<?xml version="1.0" encoding="utf-8"?>
<!-- Generator: Adobe Illustrator 16.0.0, SVG Export Plug-In . SVG Version: 6.00 Build 0)  -->
<!DOCTYPE svg PUBLIC "-//W3C//DTD SVG 1.1//EN" "http://www.w3.org/Graphics/SVG/1.1/DTD/svg11.dtd">
<svg version="1.1" id="Calque_2" xmlns="http://www.w3.org/2000/svg" xmlns:xlink="http://www.w3.org/1999/xlink" x="0px" y="0px"
	 width="500px" height="500px" viewBox="0 0 500 500" enable-background="new 0 0 500 500" xml:space="preserve">
<g>
	<g>
		<polygon fill="#013B5B" points="124.597,240.372 108.707,240.372 103.277,255.76 119.168,255.76 		"/>
		<polygon fill="#013B5B" points="152.064,240.372 136.471,240.372 131.042,255.76 146.616,255.76 		"/>
		<polygon fill="#013B5B" points="106.166,213.927 90.275,213.927 84.468,230.382 100.358,230.382 		"/>
		<polygon fill="#013B5B" points="133.93,213.927 118.04,213.927 112.233,230.382 128.123,230.382 		"/>
		<polygon fill="#013B5B" points="78.4,213.927 64.636,213.927 58.374,230.382 72.594,230.382 		"/>
		<polygon fill="#013B5B" points="164.97,203.937 170.043,189.615 154.382,189.615 149.331,203.937 		"/>
		<polygon fill="#013B5B" points="96.832,240.372 80.941,240.372 75.513,255.76 91.403,255.76 		"/>
		<polygon fill="#013B5B" points="63.638,255.76 69.067,240.372 54.568,240.372 48.708,255.76 		"/>
		<polygon fill="#013B5B" points="81.927,203.937 86.978,189.615 73.895,189.615 68.441,203.937 		"/>
		<polygon fill="#013B5B" points="145.805,213.927 139.998,230.382 155.606,230.382 161.432,213.927 		"/>
		<polygon fill="#013B5B" points="99.751,265.75 94.049,281.914 109.939,281.914 115.642,265.75 		"/>
		<polygon fill="#013B5B" points="127.516,265.75 121.814,281.914 137.351,281.914 143.078,265.75 		"/>
		<polygon fill="#013B5B" points="71.986,265.75 66.285,281.914 82.175,281.914 87.877,265.75 		"/>
		<polygon fill="#013B5B" points="137.457,203.937 142.508,189.615 126.617,189.615 121.566,203.937 		"/>
		<polygon fill="#013B5B" points="44.903,265.75 38.749,281.914 54.41,281.914 60.112,265.75 		"/>
		<polygon fill="#013B5B" points="109.692,203.937 114.743,189.615 98.853,189.615 93.802,203.937 		"/>
	</g>
	<path fill="#013B5B" d="M220.869,190.377h-32.047l-34.969,91.097v0.439h34.929l4.942-16.163h10.508h2.185h10.508l4.942,16.163
		h34.139L220.869,190.377z M204.929,251.113c-5.249,0-9.504-4.258-9.504-9.507s4.255-16.987,9.504-16.987s9.504,11.738,9.504,16.987
		S210.178,251.113,204.929,251.113z"/>
	<path fill="#013B5B" d="M306.397,228.541c4.356-4.09,7.059-9.699,7.059-15.903c0-12.506-10.944-22.639-24.443-22.639
		c-0.13,0-0.247,0.031-0.378,0.031v-0.031h-44.987v28.025l24.523,63.89h20.464v-0.074c0.261,0.007,0.503,0.074,0.769,0.074
		c16.883,0,30.566-13.052,30.566-29.146C319.97,242.666,314.578,233.772,306.397,228.541z M268.804,211.957h11.137
		c4.325,0.006,7.821,3.167,7.821,7.084c0,3.911-3.496,7.077-7.821,7.077v0.124h-11.137V211.957z M282.282,262.194v0.143h-13.479
		V245.77h13.479c5.231,0.006,9.458,3.675,9.458,8.212C291.74,258.518,287.514,262.187,282.282,262.194z"/>
	<path fill="#013B5B" d="M364.858,190.377h-32.041l-15.271,39.782c6.222,6.099,10.157,14.917,10.157,24.759
		c0,11.144-5.063,20.948-12.761,26.996h17.83l4.939-16.163h10.511h2.182h10.512l4.945,16.163h34.136L364.858,190.377z
		 M361.108,261.022l-13.113-8.937l-13.114,8.937l4.506-15.14l-12.618-10.108l15.902,0.062l5.324-14.88l5.317,14.88l15.902-0.062
		l-12.618,10.108L361.108,261.022z"/>
	<g>
		<path fill="#013B5B" d="M376.745,237.119l1.673-1.345l-1.741,0.006C376.683,236.232,376.727,236.672,376.745,237.119z"/>
		<path fill="#013B5B" d="M444.502,246.006c-3.843,7.059-11.242,11.917-19.825,11.917c-12.482,0-22.64-10.158-22.64-22.646
			s10.157-22.646,22.64-22.646c6.816,0,12.865,3.092,17.018,7.864h28.676c-6.234-19.286-24.318-33.249-45.693-33.249
			c-18.209,0-34.05,10.139-42.193,25.075l26.179,68.191c5.014,1.778,10.387,2.795,16.015,2.795
			c22.844,0,41.913-15.952,46.791-37.302H444.502z"/>
	</g>
	<g>
		<path fill="#013B5B" d="M32.381,293.838L25,312.752h441.23l8.77-18.914H32.381z M55.817,308.172
			c-0.666,0.521-1.624,0.979-2.885,1.37c-1.258,0.396-2.535,0.595-3.824,0.595c-1.64,0-3.071-0.278-4.292-0.837
			c-1.218-0.563-2.138-1.363-2.749-2.41c-0.614-1.041-0.92-2.169-0.92-3.391c0-1.332,0.344-2.51,1.026-3.545
			c0.688-1.034,1.692-1.828,3.009-2.373c1.007-0.428,2.259-0.639,3.756-0.639c1.952,0,3.47,0.328,4.567,0.991
			c1.094,0.664,1.8,1.574,2.113,2.746l-3.145,0.465c-0.22-0.626-0.635-1.115-1.246-1.476c-0.61-0.359-1.373-0.539-2.287-0.539
			c-1.382,0-2.482,0.359-3.3,1.072c-0.818,0.719-1.224,1.778-1.224,3.192c0,1.512,0.412,2.658,1.242,3.414
			c0.834,0.756,1.921,1.141,3.263,1.141c0.666,0,1.333-0.105,1.999-0.316c0.672-0.211,1.246-0.471,1.726-0.769v-1.617h-3.635v-2.163
			h6.805V308.172z M71.215,309.889l-2.266-2.776c-0.812-0.997-1.373-1.624-1.67-1.878c-0.301-0.26-0.617-0.434-0.955-0.533
			c-0.337-0.093-0.868-0.143-1.596-0.143h-0.638v5.33h-3.17v-12.748h6.649c1.674,0,2.888,0.111,3.647,0.341
			c0.756,0.229,1.36,0.639,1.819,1.221c0.456,0.583,0.682,1.259,0.682,2.002c0,0.961-0.341,1.754-1.032,2.374
			c-0.685,0.619-1.713,1.017-3.08,1.178c0.685,0.328,1.246,0.682,1.689,1.072c0.443,0.384,1.041,1.078,1.791,2.069l1.912,2.491
			H71.215z M91.431,308.389c-1.375,1.166-3.216,1.748-5.519,1.748c-2.33,0-4.187-0.576-5.563-1.735
			c-1.375-1.159-2.063-2.751-2.063-4.784c0-1.302,0.242-2.393,0.716-3.272c0.356-0.65,0.843-1.233,1.459-1.747
			c0.617-0.521,1.292-0.899,2.026-1.153c0.979-0.335,2.101-0.502,3.381-0.502c2.309,0,4.159,0.583,5.547,1.748
			c1.382,1.165,2.079,2.788,2.079,4.871C93.495,305.62,92.804,307.231,91.431,308.389z M110.637,303.853
			c0,1.531-0.086,2.615-0.254,3.254c-0.173,0.626-0.486,1.165-0.945,1.599c-0.461,0.434-1.075,0.787-1.844,1.048
			c-0.765,0.254-1.772,0.384-3.012,0.384c-1.494,0-2.628-0.143-3.399-0.421c-0.771-0.285-1.382-0.651-1.831-1.104
			c-0.45-0.446-0.744-0.917-0.887-1.413c-0.204-0.731-0.31-1.815-0.31-3.241v-6.817h3.17v6.936c0,1.097,0.04,1.81,0.118,2.138
			c0.133,0.521,0.456,0.942,0.964,1.258c0.505,0.316,1.199,0.478,2.079,0.478c0.896,0,1.568-0.148,2.023-0.446
			c0.456-0.304,0.729-0.669,0.821-1.109c0.093-0.434,0.136-1.159,0.136-2.169v-7.084h3.17V303.853z M127.649,303.035
			c-0.347,0.533-0.796,0.948-1.329,1.252c-0.54,0.311-1.091,0.509-1.646,0.607c-0.753,0.118-1.847,0.18-3.282,0.18h-2.063v4.815
			h-3.17v-12.748h5.085c1.921,0,3.176,0.063,3.762,0.192c0.898,0.186,1.646,0.607,2.259,1.245c0.604,0.639,0.911,1.469,0.911,2.479
			C128.176,301.838,127.999,302.502,127.649,303.035z"/>
		<path fill="#013B5B" d="M85.906,299.13c-1.304,0-2.358,0.366-3.154,1.097c-0.799,0.731-1.196,1.835-1.196,3.304
			c0,1.45,0.406,2.554,1.227,3.297c0.821,0.744,1.862,1.122,3.124,1.122s2.296-0.372,3.108-1.109
			c0.809-0.744,1.212-1.859,1.212-3.341c0-1.469-0.391-2.565-1.181-3.284C88.261,299.49,87.213,299.13,85.906,299.13z"/>
		<path fill="#013B5B" d="M70.452,300.878c0-0.428-0.143-0.774-0.421-1.035c-0.279-0.261-0.676-0.428-1.184-0.502
			c-0.254-0.024-1.026-0.043-2.299-0.043h-2.457v3.223h2.327c1.512,0,2.454-0.05,2.832-0.155s0.669-0.285,0.88-0.539
			C70.344,301.573,70.452,301.256,70.452,300.878z"/>
		<path fill="#013B5B" d="M123.131,299.391c-0.381-0.063-1.134-0.093-2.274-0.093h-1.527v3.612h1.732
			c1.243,0,2.076-0.067,2.498-0.198c0.418-0.13,0.75-0.341,0.989-0.619c0.235-0.292,0.359-0.614,0.359-0.992
			c0-0.465-0.17-0.849-0.502-1.146C124.067,299.651,123.643,299.465,123.131,299.391z"/>
	</g>
</g>
</svg>
