<?xml version="1.0" encoding="utf-8"?>
<!-- Generator: Adobe Illustrator 16.0.0, SVG Export Plug-In . SVG Version: 6.00 Build 0)  -->
<!DOCTYPE svg PUBLIC "-//W3C//DTD SVG 1.1//EN" "http://www.w3.org/Graphics/SVG/1.1/DTD/svg11.dtd">
<svg version="1.1" id="Calque_2" xmlns="http://www.w3.org/2000/svg" xmlns:xlink="http://www.w3.org/1999/xlink" x="0px" y="0px"
	 width="500px" height="500px" viewBox="345.275 170.945 500 500" enable-background="new 345.275 170.945 500 500"
	 xml:space="preserve">
<g>
	<path fill="#FFFFFF" d="M751.615,576.671c-23.456,0-33.86-21.066-33.959-21.287l-0.159-0.318v-28.137
		c0.159-0.821,2.929-10.602,19.608-10.602c1.679,0,3.223,0.074,4.656,0.209c-26.274-13.995-27.181-34.008-26.642-40.76l-0.049-0.92
		c-1.912-16.544,0.919-29.607,8.21-37.77c5.589-6.262,13.677-9.437,24.045-9.437c38.934,0,54.216,32.354,54.351,32.672l0.135,0.318
		v21.545l-0.208,0.38c-2.979,5.159-10.564,6.237-16.397,6.237c0,0-0.649,0-0.956-0.012l17.586,14.521v40.417
		C801.811,553.29,775.009,576.671,751.615,576.671z M759.728,524.012v5.932l1.299-0.576v-5.233
		c-0.527-0.159-1.055-0.318-1.581-0.465L759.728,524.012z M762.081,479.465v-3.272l-3.664-1.911v3.271L762.081,479.465z"/>
	<path d="M747.301,429.22c38.395,0,52.953,31.765,52.953,31.765v20.797c-2.646,4.559-9.853,5.453-15.049,5.453
		c-3.26,0-5.735-0.368-5.735-0.368l20.784,17.194c0,0,0,31.434,0,39.669c0,8.224-25.882,31.373-48.627,31.373
		c-22.746,0-32.55-20.393-32.55-20.393v-27.781c0,0,2.354-9.032,18.039-9.032c15.687,0,21.042,6.679,21.042,6.679v7.77l4.449-1.961
		v-7.463c-50.981-14.118-45.883-45.883-45.883-47.451S708.906,429.22,747.301,429.22 M763.649,482.051v-6.802l-6.802-3.542v6.802
		L763.649,482.051 M747.301,426.083c-10.834,0-19.314,3.357-25.209,9.963c-7.573,8.505-10.539,21.985-8.578,38.996l0.073,0.601
		c-0.539,6.531,0.209,25,22.096,39.154c-16.643,0.563-19.521,10.883-19.645,11.36l-0.123,0.38v0.404v27.795v0.71l0.331,0.649
		c0.417,0.907,10.932,22.17,35.381,22.17c24.13,0,51.765-24.498,51.765-34.51v-39.682v-1.471l-1.14-0.944l-13.787-11.385
		c7.182-0.539,12.157-2.892,14.498-6.899l0.429-0.735v-0.846v-20.784v-0.687l-0.282-0.625
		C802.939,459.342,787.252,426.083,747.301,426.083L747.301,426.083z"/>
</g>
<g>
	<path fill="#003F8A" d="M691.615,388.438c-14.118-19.222-16.079-18.039-16.079-18.039s-3.921-41.967-28.235-58.824
		c-24.313-16.869-26.667-19.608-26.667-19.608s3.922-7.457,4.706-11.378c0.784-3.922,3.922-7.843,4.706-9.412
		c0.784-1.568,5.882-23.137-26.287-28.627c0,0-6.271-1.967-16.075,1.96c-9.804,3.928-9.804,5.104-14.118,7.844
		c-4.313,2.751-2.745,9.025-4.313,13.731c-1.569,4.706-1.569,11.373,0,14.51c1.568,3.138,1.568,3.138,1.568,3.138
		s-9.412-3.922-18.039,0c-8.627,3.921-12.163,7.843-12.163,7.843s-13.732,9.026-24.314,14.902
		c-10.594,5.888-13.732,25.098-14.118,34.124c0,0-12.549,24.706-22.745,33.726c-10.196,9.014-21.575,14.51-21.575,14.51
		s-3.529,3.536-3.921,7.059c0,0-22.353,12.341-16.079,25.383c6.274,13.051,7.451,25.992,28.627,20.895
		c21.177-5.098,67.065-15.294,81.569-18.039c14.51-2.746,46.673-4.706,46.673-4.706l36.461,18.432l62.366-12.157
		C693.576,425.69,705.732,407.648,691.615,388.438z M562.989,385.687c-6.275,3.137-1.569,12.163-11.373,16.471
		c-9.804,4.32-34.118,7.059-44.314,6.274c-10.196-0.784-17.255-12.157-17.255-12.157s12.549-20.006,16.863-23.53
		c4.314-3.535,7.059-16.084,12.941-21.961c5.889-5.889,10.196-14.118,10.196-14.118l21.575,2.745l18.04,39.216
		C569.656,378.628,569.264,382.55,562.989,385.687z"/>
</g>
<g>
	<path fill="#FFFFFF" d="M650.045,599.283c-9.693,0-16.152-3.444-16.422-3.579l-0.833-0.441V437.235
		c-0.037-0.282-1.078-10.846,6.348-19.103c5.539-6.165,14.229-9.296,25.81-9.296c32.941,0,53.333,22.798,53.333,43.925v130.295
		l-0.747,0.466c-0.539,0.331-13.432,8.064-22.782,8.064c-9.154,0-17.758-2.721-18.125-2.819l-1.091-0.343v-35.27h-2.353v34.841
		l-0.539,0.466C672.128,588.89,659.923,599.283,650.045,599.283z M675.536,511.181v-58.48l-1.568-1.3v59.78H675.536z"/>
	<path d="M664.948,410.399c33.468,0,51.765,23.135,51.765,42.351s0,129.412,0,129.412s-12.941,7.844-21.961,7.844
		c-9.007,0-17.646-2.745-17.646-2.745v-35.687h-5.49v35.687c0,0-12.17,10.453-21.582,10.453c-9.411,0-15.686-3.395-15.686-3.395
		V437.235C634.359,437.235,631.479,410.399,664.948,410.399 M672.399,512.75h4.706v-60.784l-4.706-3.922V512.75 M664.948,407.262
		c-12.047,0-21.115,3.309-26.985,9.816c-7.415,8.257-6.875,18.71-6.74,20.303v156.938v1.875l1.654,0.895
		c0.281,0.147,7.083,3.774,17.169,3.774c10.453,0,23.089-10.76,23.628-11.201l0.307-0.257v0.159l2.181,0.698
		c0.393,0.11,9.216,2.893,18.615,2.893c9.792,0,23.027-7.966,23.591-8.297l1.508-0.907v-1.764V452.761
		C719.85,430.875,698.857,407.262,664.948,407.262L664.948,407.262z"/>
</g>
<g>
	<path fill="#FFFFFF" d="M628.893,436.67c0-25.885-26.691-32.552-40.027-32.552c-13.333,0-43.922,1.96-43.922,1.96v187.848
		c0,0,11.378,6.274,25.496,6.274c14.118,0,14.902-4.314,14.902-4.314v-70.589h5.098v74.903c0,0,6.274,0,16.872,0
		c10.589,0,21.581-6.274,21.581-6.274v-81.569l-5.11-8.297l5.11-10.527C628.893,493.534,628.893,462.553,628.893,436.67z
		 M589.656,484.514c0,3.922-5.098,0-5.098,0v-39.608h5.098C589.656,444.906,589.656,480.592,589.656,484.514z"/>
	<path d="M607.312,601.77h-18.44v-74.902h-1.961v69.02c-0.196,1.214-1.786,5.883-16.471,5.883c-14.356,0-25.775-6.207-26.253-6.471
		l-0.812-0.447V404.609l1.467-0.095c0.307-0.018,30.794-1.964,44.023-1.964c14.384,0,41.597,7.132,41.597,34.121l-0.16,57.55
		l-4.73,9.749l4.891,7.941v82.929l-0.791,0.447C629.206,595.556,618.195,601.77,607.312,601.77z M592.009,598.632h15.303
		c8.456,0,17.354-4.265,20.013-5.643v-80.185l-5.331-8.652l5.331-10.98V436.67c0-24.507-25.159-30.983-38.459-30.983
		c-11.468,0-36.094,1.477-42.354,1.866v185.411c2.8,1.373,12.503,5.668,23.928,5.668c10.751,0,12.975-2.512,13.333-3.058V523.73
		h8.235V598.632z M588.335,487.823c-1.945,0-4.286-1.722-4.733-2.064l-0.613-0.472v-41.949h8.235v41.177
		C591.225,486.959,589.668,487.823,588.335,487.823z M586.126,483.7c0.687,0.447,1.458,0.845,1.958,0.955
		c0.003-0.042,0.003-0.085,0.003-0.141v-38.039h-1.961V483.7z"/>
</g>
<g>
	<path fill="#FFFFFF" d="M542.989,490.004c0-10.98,0-56.471,0-56.471s-4.313-23.141-31.373-23.141s-53.726,14.513-53.726,14.513
		v158.433c0,0,15.294,10.589,35.687,12.941c20.393,2.353,49.412,5.882,49.412-26.667s0-54.51,0-54.51s-3.921-10.589-7.843-10.589
		C535.146,504.514,542.989,500.985,542.989,490.004z M503.185,557.848l-5.49-1.765V522.75h5.49V557.848z M503.185,484.907h-5.49
		v-35.099h5.49V484.907z"/>
	<path d="M512.235,599.283L512.235,599.283c-6.308,0-12.788-0.748-18.505-1.403c-20.879-2.415-36.094-12.807-36.731-13.254
		l-0.677-0.466V423.974l0.818-0.447c1.103-0.6,27.332-14.703,54.477-14.703c28.04,0,32.868,24.176,32.914,24.421l0.028,56.759
		c0,7.801-3.643,12.169-6.235,14.289c3.088,2.593,5.371,8.199,6.137,10.264l0.098,0.546v54.51c0,11.14-3.385,19.234-10.062,24.051
		C529.263,597.444,521.981,599.283,512.235,599.283z M459.459,582.493c3.146,2.004,16.918,10.221,34.298,12.23
		c5.965,0.687,12.35,1.422,18.478,1.422c9.063,0,15.745-1.643,20.426-5.024c5.895-4.253,8.759-11.293,8.759-21.508V515.39
		c-1.697-4.46-4.642-9.307-6.274-9.307h-7.307l6.664-2.997c0.275-0.128,6.918-3.321,6.918-13.082v-56.471
		c-0.144-0.601-4.421-21.572-29.804-21.572c-23.747,0-47.498,11.511-52.157,13.895V582.493z M504.753,559.999l-8.627-2.77v-36.048
		h8.627V559.999z M499.263,554.937l2.353,0.76v-31.378h-2.353V554.937z M504.753,486.475h-8.627V448.24h8.627V486.475z
		 M499.263,483.337h2.353v-31.961h-2.353V483.337z"/>
</g>
<g>
	<path fill="#FFFFFF" d="M419.458,429.22c-32.549,0-47.843,22.745-47.843,33.333c0,10.601,0,98.04,0,98.04l38.83,12.953v-29.804
		h6.274v33.333l37.647,10.196V454.71C454.361,454.71,452.008,429.22,419.458,429.22z M414.753,504.048h-5.882V478.24l5.882-6.274
		V504.048z"/>
	<path d="M455.936,589.325l-40.785-11.048v-32.966h-3.137v30.411l-41.967-14.002v-99.167c0-12.182,16.97-34.902,49.412-34.902
		c33.132,0,36.346,25.778,36.465,26.875L455.936,589.325z M418.289,575.875l34.51,9.344V454.802
		c-0.202-1.68-3.489-24.014-33.34-24.014c-32.509,0-46.274,22.727-46.274,31.765v96.912l35.692,11.906v-29.197h9.412V575.875z
		 M416.321,505.618h-9.02v-27.997l9.02-9.62V505.618z M410.439,502.48h2.745v-26.551l-2.745,2.93V502.48z"/>
</g>
<g>
	<path d="M808.085,459.22c-6.593,0-11.961-5.368-11.961-11.961c0-6.594,5.368-11.961,11.961-11.961
		c6.594,0,11.961,5.367,11.961,11.961C820.046,453.852,814.679,459.22,808.085,459.22z M808.085,436.867
		c-5.723,0-10.392,4.657-10.392,10.393c0,5.723,4.669,10.393,10.392,10.393c5.735,0,10.393-4.67,10.393-10.393
		C818.478,441.524,813.821,436.867,808.085,436.867z"/>
</g>
<g>
	<path d="M804.74,454.085v-13.113h4.657c0.943,0,1.654,0.11,2.145,0.344c0.478,0.244,0.883,0.661,1.177,1.25
		c0.281,0.6,0.429,1.262,0.429,1.973c0,0.932-0.245,1.716-0.723,2.353c-0.479,0.649-1.226,1.054-2.243,1.226
		c0.38,0.221,0.649,0.43,0.846,0.649c0.404,0.466,0.797,1.055,1.177,1.74l1.826,3.579h-1.753l-1.385-2.745
		c-0.417-0.797-0.748-1.397-1.005-1.802c-0.27-0.417-0.503-0.698-0.711-0.895c-0.208-0.147-0.417-0.282-0.637-0.344
		c-0.159-0.036-0.417-0.061-0.772-0.061h-1.617v5.82h-1.41V454.085L804.74,454.085z M806.125,446.756h3.003
		c0.638,0,1.128-0.085,1.495-0.245c0.355-0.159,0.625-0.429,0.809-0.784c0.184-0.367,0.282-0.76,0.282-1.188
		c0-0.613-0.184-1.128-0.539-1.508c-0.368-0.404-0.932-0.625-1.716-0.625h-3.309v4.351H806.125z"/>
</g>
<g>
	<path d="M765.733,495.09c-15.295-3.333-20.589-10.589-20.589-13.138s0-17.451,0-17.451s3.542-6.471,8.039-6.471
		c4.51,0,22.157,10.993,22.157,10.993v3.922l11.961,1.765v-10c0,0-21.765-21.41-37.844-21.41c-16.078,0-19.411,15.099-19.411,22.28
		c0,7.169,0,22.855,0,22.855s8.627,13.149,23.137,17.451c14.51,4.313,21.177,8.039,21.177,8.039v23.726
		c0,0-14.901,8.027-19.607,8.027s-9.021-2.941-9.021-2.941V529.6c0,0-1.568-1.568-6.471-1.568c-4.901,0-7.843,5.294-7.843,5.294
		v15.883c0,0,4.706,12.549,20.196,12.549s37.059-17.255,37.059-22.745s0-29.804,0-29.804S781.027,498.423,765.733,495.09z"/>
	<path d="M669.654,422.553c-20.576,0-23.714,9.216-23.714,9.216v152.942c0,0,13.922-0.196,13.922-6.079c0-5.882,0-34.706,0-34.706
		s5.232-5.687,15.649-5.687c10.429,0,13.174,2.941,13.174,2.941v35.295c0,0,10.013,0.588,14.522-2.745V447.063
		C703.183,447.063,690.242,422.553,669.654,422.553z M688.87,517.064c0,0-8.04,9.02-16.079,9.02s-12.549-8.016-12.549-8.016v-73.149
		c0,0,1.765-9.032,10.784-9.032s17.844,13.946,17.844,13.946V517.064z"/>
	<path d="M610.841,505.483v-3.334c-0.012,0.013,5.871-8.615,5.871-13.909s0-53.529,0-53.529s-4.977-17.651-20.225-17.651
		c-15.263,0-38.192,0.785-38.192,0.785c0.588-0.184,0,166.867,0,166.867s4.105,3.921,8.235,3.921s6.673-1.372,6.673-1.372v-74.902
		h29.403v76.274c0,0,14.117-0.195,14.117-5.49c0-5.318,0-66.287,0-66.287S613.979,505.483,610.841,505.483z M602.202,490.789
		c0,0-7.84,6.863-15.089,6.863c-7.255,0-14.902-5.687-14.902-5.687V438.24c0,0,6.863-7.451,14.902-7.451
		c8.033,0,15.089,7.451,15.089,7.451V490.789z"/>
	<path d="M510.832,423.534c-15.882,0-40,8.823-40,8.823v143.727c0,0,35.099,11.164,43.726,11.164
		c8.628,0,14.902-10.784,14.902-15.49s0-54.902,0-54.902s-1.765-10.784-7.647-11.961c0,0,7.647-6.862,7.647-13.517
		c0-6.667,0-54.314,0-54.314S526.714,423.534,510.832,423.534z M514.753,566.28c0,0-6.274,3.921-14.118,3.921
		s-14.118-7.45-14.118-7.45v-47.673c0,0,6.667-3.309,14.118-3.309s14.118,5.883,14.118,5.883V566.28z M514.753,490.397
		c0,0-8.039,6.862-14.608,6.862s-13.627-4.117-13.627-4.117s0-40.172,0-47.231c0-7.059,13.922-8.247,13.922-8.247
		c12.279,0,14.313,7.255,14.313,7.255V490.397z"/>
	<path d="M419.655,443.3c-18.235,0-35.687,19.646-35.687,19.646v86.863l14.314,5.49V529.22l30.392,4.534v33.113l12.745,3.333
		V456.083C441.419,456.083,437.89,443.3,419.655,443.3z M427.302,518.632l-30.392-2.941v-43.726c0,0,14.313-12.354,21.373-12.354
		s9.02,5.969,9.02,5.969V518.632z"/>
</g>
</svg>
