<?xml version="1.0" encoding="utf-8"?>
<!-- Generator: Adobe Illustrator 16.0.0, SVG Export Plug-In . SVG Version: 6.00 Build 0)  -->
<!DOCTYPE svg PUBLIC "-//W3C//DTD SVG 1.1//EN" "http://www.w3.org/Graphics/SVG/1.1/DTD/svg11.dtd">
<svg version="1.1" id="Calque_2" xmlns="http://www.w3.org/2000/svg" xmlns:xlink="http://www.w3.org/1999/xlink" x="0px" y="0px"
	 width="500px" height="500px" viewBox="0 0 500 500" enable-background="new 0 0 500 500" xml:space="preserve">
<g>
	<g>
		<path fill="#E2001A" d="M404.023,312.316c-21.069,0-38.211,17.141-38.211,38.21s17.142,38.211,38.211,38.211
			s38.21-17.142,38.21-38.211S425.092,312.316,404.023,312.316z"/>
		<path fill="#E2001A" d="M333.32,77.65v344.699h141.405V77.65H333.32z M404.023,411.195c-33.507,0-60.669-27.163-60.669-60.669
			s27.162-60.669,60.669-60.669c33.506,0,60.668,27.163,60.668,60.669S437.529,411.195,404.023,411.195z"/>
	</g>
	<path fill="#E2001A" d="M179.022,77.65v344.699h141.405V77.65H179.022z M255.236,411.195c-33.506,0-60.668-27.163-60.668-60.669
		s27.163-60.669,60.668-60.669c18.674,0,35.372,8.444,46.5,21.716l-15.985,15.984c-6.98-9.249-18.06-15.241-30.515-15.241
		c-21.069,0-38.21,17.141-38.21,38.21s17.141,38.211,38.21,38.211c13.175,0,24.813-6.703,31.686-16.878l16.066,16.066
		C291.882,402.086,274.627,411.195,255.236,411.195z"/>
	<g>
		<path fill="#E2001A" d="M24.725,77.65v344.699H166.13V77.65H24.725z M151.095,407.333l-19.96-0.29c0,0-0.413-7.392-2.167-15.422
			l-33.869-0.493H61.221c-1.872,8.005-2.392,15.389-2.392,15.389H38.866c0-79.229,56.562-116.659,56.562-116.659l0.812,0.007
			C96.24,289.864,152.25,328.113,151.095,407.333z"/>
		<path fill="#E2001A" d="M95.64,319.806l-0.423-0.003c0,0-23.563,17.912-28.526,49.907h56.71
			C118.782,337.895,95.64,319.806,95.64,319.806z"/>
	</g>
</g>
</svg>
