<?xml version="1.0" encoding="utf-8"?>
<!-- Generator: Adobe Illustrator 16.0.0, SVG Export Plug-In . SVG Version: 6.00 Build 0)  -->
<!DOCTYPE svg PUBLIC "-//W3C//DTD SVG 1.1//EN" "http://www.w3.org/Graphics/SVG/1.1/DTD/svg11.dtd">
<svg version="1.1" id="Calque_2" xmlns="http://www.w3.org/2000/svg" xmlns:xlink="http://www.w3.org/1999/xlink" x="0px" y="0px"
	 width="500px" height="500px" viewBox="0 0 500 500" enable-background="new 0 0 500 500" xml:space="preserve">
<g>
	<polygon fill="#A5B9C4" points="241.063,263.596 241.063,228.6 208.695,228.6 208.695,217.695 287.556,217.695 287.556,228.6 
		253.722,228.6 253.722,263.596 	"/>
	<path d="M287.206,218.045v10.205h-33.834v34.996h-11.959V228.25h-32.368v-10.205H287.206 M287.906,217.345h-0.7h-78.161h-0.7v0.7
		v10.205v0.7h0.7h31.668v34.296v0.7h0.7h11.959h0.7v-0.7V228.95h33.134h0.7v-0.7v-10.205V217.345L287.906,217.345z"/>
</g>
<g>
	<polygon fill="#A5B9C4" points="470.939,263.596 394.877,233.358 394.877,263.596 383.973,263.596 383.973,217.535 
		463.883,248.409 463.883,217.695 474.787,217.695 474.787,263.596 	"/>
	<path d="M474.438,218.045v45.201h-3.431l-76.479-30.403v30.403h-10.205v-45.201l79.91,30.875v-30.875H474.438 M383.622,217.024
		v1.021v45.201v0.7h0.7h10.205h0.7v-0.7v-29.372l75.521,30.022l0.125,0.05h0.134h3.431h0.7v-0.7v-45.201v-0.7h-0.7h-10.205h-0.7v0.7
		v29.854l-78.958-30.506L383.622,217.024L383.622,217.024z"/>
</g>
<g>
	<path fill="#A5B9C4" d="M304.705,263.596c-7.912,0-14.349-6.437-14.349-14.348v-17.204c0-7.912,6.437-14.349,14.349-14.349h60.655
		c7.912,0,14.349,6.437,14.349,14.349v17.204c0,7.912-6.437,14.348-14.349,14.348H304.705z M306.857,228.894
		c-3.666,0-6.649,2.982-6.649,6.649v10.205c0,3.667,2.983,6.649,6.649,6.649h56.351c3.666,0,6.649-2.983,6.649-6.649v-10.205
		c0-3.667-2.983-6.649-6.649-6.649H306.857z"/>
	<path d="M365.36,218.045c7.697,0,13.999,6.298,13.999,13.999v17.204c0,7.697-6.302,13.999-13.999,13.999h-60.655
		c-7.697,0-13.999-6.302-13.999-13.999v-17.204c0-7.7,6.302-13.999,13.999-13.999H365.36 M306.857,252.747h56.351
		c3.848,0,6.999-3.151,6.999-6.999v-10.205c0-3.848-3.151-6.999-6.999-6.999h-56.351c-3.848,0-6.999,3.151-6.999,6.999v10.205
		C299.858,249.596,303.01,252.747,306.857,252.747 M365.36,217.345h-60.655c-8.105,0-14.699,6.593-14.699,14.698v17.204
		c0,8.105,6.594,14.699,14.699,14.699h60.655c8.105,0,14.699-6.594,14.699-14.699v-17.204
		C380.06,223.938,373.466,217.345,365.36,217.345L365.36,217.345z M306.857,252.047c-3.474,0-6.299-2.826-6.299-6.299v-10.205
		c0-3.473,2.825-6.299,6.299-6.299h56.351c3.474,0,6.299,2.826,6.299,6.299v10.205c0,3.473-2.825,6.299-6.299,6.299H306.857
		L306.857,252.047z"/>
</g>
<g>
	<path fill="#A5B9C4" d="M141.383,263.596c-11.771,0-21.348-9.576-21.348-21.347v-3.206c0-11.771,9.577-21.348,21.348-21.348h61.3
		v11.199h-64.687c-3.667,0-6.649,2.982-6.649,6.649v10.205c0,3.667,2.983,6.649,6.649,6.649h64.687v11.198H141.383z"/>
	<path d="M202.333,218.045v10.499h-64.337c-3.848,0-7,3.151-7,6.999v10.205c0,3.848,3.151,6.999,7,6.999h64.337v10.499h-60.95
		c-11.548,0-20.998-9.446-20.998-20.998v-3.206c0-11.548,9.45-20.998,20.998-20.998H202.333 M203.032,217.345h-0.7h-60.95
		c-11.964,0-21.698,9.734-21.698,21.698v3.206c0,11.964,9.733,21.698,21.698,21.698h60.95h0.7v-0.7v-10.499v-0.7h-0.7h-64.337
		c-3.474,0-6.3-2.826-6.3-6.299v-10.205c0-3.473,2.826-6.299,6.3-6.299h64.337h0.7v-0.7v-10.499V217.345L203.032,217.345z"/>
</g>
<path fill="#A5B9C4" stroke="#000000" stroke-width="0.6999" d="M114.26,263.246v-31.203c0-7.7-6.299-13.999-13.999-13.999H38.437
	c-7.7,0-13.999,6.298-13.999,13.999v31.203h9.33v-9.911h71.162v9.911H114.26z M33.768,244.586v-7.067
	c0-5.738,4.696-10.434,10.434-10.434h50.294c5.738,0,10.434,4.696,10.434,10.434v7.067H33.768z"/>
</svg>
