<?xml version="1.0" encoding="utf-8"?>
<!-- Generator: Adobe Illustrator 16.0.0, SVG Export Plug-In . SVG Version: 6.00 Build 0)  -->
<!DOCTYPE svg PUBLIC "-//W3C//DTD SVG 1.1//EN" "http://www.w3.org/Graphics/SVG/1.1/DTD/svg11.dtd">
<svg version="1.1" id="Calque_2" xmlns="http://www.w3.org/2000/svg" xmlns:xlink="http://www.w3.org/1999/xlink" x="0px" y="0px"
	 width="500px" height="500px" viewBox="0 0 500 500" enable-background="new 0 0 500 500" xml:space="preserve">
<g>
	<g>
		<linearGradient id="SVGID_1_" gradientUnits="userSpaceOnUse" x1="25.0005" y1="250" x2="475.0005" y2="250">
			<stop  offset="0" style="stop-color:#656565"/>
			<stop  offset="0.6783" style="stop-color:#FFFFFF"/>
			<stop  offset="1" style="stop-color:#505052"/>
		</linearGradient>
		<path fill="url(#SVGID_1_)" d="M475,416.948c-168.784,52.016-281.231-72.932-450-20.899c0-125.205,0-187.815,0-313.021
			c168.722-51.93,281.263,72.837,450,20.922C475,229.147,475,291.75,475,416.948z"/>
		<path d="M389.125,433.9c-49.375,0-95.513-11.964-140.13-23.534c-44.129-11.443-89.76-23.276-138.105-23.276
			c-29.104,0-56.813,4.181-84.711,12.781L21,401.468V80.074l2.823-0.869c28.652-8.818,57.115-13.105,87.015-13.105
			c49.376,0,95.531,11.954,140.167,23.514c44.152,11.435,89.809,23.259,138.17,23.259c29.086,0,56.774-4.169,84.649-12.745
			L479,98.535v321.367l-2.822,0.869C447.51,429.605,419.035,433.9,389.125,433.9z M110.89,379.089
			c49.366,0,95.499,11.964,140.113,23.533c44.133,11.444,89.768,23.278,138.122,23.278c28.117,0,54.934-3.902,81.875-11.92V109.317
			c-26.906,7.771-53.731,11.555-81.825,11.555c-49.381,0-95.538-11.954-140.176-23.515c-44.151-11.435-89.804-23.258-138.161-23.258
			c-28.108,0-54.911,3.894-81.838,11.897v304.682C55.93,382.885,82.777,379.089,110.89,379.089z"/>
	</g>
</g>
<path d="M445.36,248.734c-27.017,16.719-53.329,25.938-80.111,27.985c4.141-29.938,12.517-59.829,28.454-76.782
	c9.156-9.727,20.016-14.461,33.188-14.461c0.391,0,0.813-0.008,1.109,0.008c6.548,0,11.892-5.243,12.001-11.805
	c0.109-6.625-5.172-12.086-11.798-12.195c-20.906-0.25-37.922,7.086-51.984,22.008c-21.079,22.431-30.86,59.095-35.251,93.15
	c-30.297-2.406-58.876-12.906-86.611-23.141c-3.125-1.156-6.273-2.297-9.422-3.454c1.109-5.656,2.313-11.391,3.727-17.258
	c4.75-19.719,12.555-33.375,22.571-39.477c6.406-3.906,13.859-4.883,22.063-2.852c0.938,0.227,2.734,0.523,3.703,0.523
	c6.625,0,12-5.375,12-12c0-5.938-4.313-10.875-9.984-11.828v-0.008c-18.234-4.469-31.97,0.609-40.274,5.672
	c-15.805,9.625-27.047,27.923-33.406,54.36c-1.219,5.063-2.289,10.031-3.297,14.938c-13.798-4.477-27.892-8.329-42.454-10.586
	c2.688-44.907-5.852-95.048-35.587-95.048c-34.5,0-39.5,59.001-45,91.501c-0.759,4.492-1.626,8.164-2.54,11.422
	c-13.297,4.79-26.602,11.219-40.055,19.532c-3.648,2.281-6.406,6.859-6.406,10.688c0,2.188,0.859,3.609,1.586,4.406
	c2.07,2.281,5.688,2.5,9.039,0.453c8.359-5.172,16.648-9.563,24.906-13.313c-3.602,5.141-7.391,10.891-11.031,21.813
	c-9,27.001,0,33.001,0,33.001c12.523,2.5,24.767-32.86,32.751-63.095c14.969-4.555,29.938-6.836,45.102-6.836
	c2.289,0,4.54,0.18,6.806,0.281c-1.383,37.899-5.978,82.306-0.156,83.65c6.5,1.5,11.5-29,18.5-77.501
	c0.203-1.438,0.359-2.922,0.547-4.383c13.992,2.148,27.625,5.852,41.009,10.165c-8.813,52.657-6.164,92.142-6.023,94.095
	c0.461,6.313,5.727,11.125,11.953,11.125c0.297,0,0.594-0.016,0.883-0.031c6.609-0.484,11.578-6.234,11.102-12.844
	c-0.031-0.438-2.469-36.297,5.086-84.376c3.203,1.172,6.398,2.344,9.57,3.516c27.923,10.297,56.688,20.875,87.596,23.531
	c-2.906,34.61-0.875,63.204-0.688,65.642c0.5,6.281,5.75,11.063,11.953,11.063c0.313,0,0.625-0.016,0.953-0.031
	c6.609-0.516,11.547-6.298,11.031-12.907c-1.063-13.516-1.5-37.594,0.844-63.47c28.97-1.75,57.282-11.313,86.252-29.234
	c3.672-2.266,6.438-6.875,6.438-10.719C456,248.406,450.516,245.57,445.36,248.734z M152.331,229.343
	c-13.664,0-27.148,1.836-40.594,5.328c1.102-4.797,2.031-9.133,2.758-12.688c5.5-27,16-40.501,29.5-40.501
	c13.04,0,15.79,11.446,15.509,48.149C157.113,229.53,154.745,229.343,152.331,229.343z"/>
</svg>
