<?xml version="1.0" encoding="utf-8"?>
<!-- Generator: Adobe Illustrator 16.0.0, SVG Export Plug-In . SVG Version: 6.00 Build 0)  -->
<!DOCTYPE svg PUBLIC "-//W3C//DTD SVG 1.1//EN" "http://www.w3.org/Graphics/SVG/1.1/DTD/svg11.dtd">
<svg version="1.1" id="Calque_1" xmlns="http://www.w3.org/2000/svg" xmlns:xlink="http://www.w3.org/1999/xlink" x="0px" y="0px"
	 width="500px" height="500px" viewBox="0 0 500 500" enable-background="new 0 0 500 500" xml:space="preserve">
<g>
	<polygon points="293.158,241.05 262.533,241.05 259.209,259.886 289.84,259.886 	"/>
	<polygon points="100.554,240.405 69.877,240.405 68.045,251.015 98.674,251.015 	"/>
	<path d="M463.827,221.847H241.758c-9.752-17.741-28.438-29.744-49.892-29.744c-21.448,0-40.139,12.002-49.889,29.744H36.174
		c-6.176,0-11.173,5.076-11.173,11.334v34.307c0,6.258,4.998,11.331,11.173,11.331h106.173c9.852,17.378,28.34,29.078,49.52,29.078
		c21.18,0,39.668-11.7,49.52-29.078h222.44c6.174,0,11.174-5.073,11.174-11.331v-34.307C475,226.923,470,221.847,463.827,221.847z
		 M112.153,266.326h-16.16l1.587-9.121H66.955l-1.638,9.121H49.163l5.75-32.708h63.038L112.153,266.326z M135.769,266.326h-16.205
		l5.798-32.708h16.157L135.769,266.326z M192.149,296.106c-25.465,0-46.104-20.642-46.104-46.106
		c0-25.462,20.639-46.106,46.104-46.106c25.467,0,46.109,20.644,46.109,46.106C238.258,275.465,217.616,296.106,192.149,296.106z
		 M304.757,267.02h-62.99l5.75-32.708h63.038L304.757,267.02z M374.504,267.022H358.35l-26.813-21.924l-3.864,21.924h-16.159
		l5.75-32.709h16.208l26.809,21.719l3.819-21.719h16.202L374.504,267.022z M446.133,241.053h-23.24l-4.561,25.969h-16.552
		l4.611-25.969h-23.243l1.189-6.74h62.987L446.133,241.053z M460.417,240.467c-0.91,0.919-2.016,1.376-3.307,1.376
		c-1.297,0-2.396-0.457-3.304-1.376c-0.901-0.91-1.355-2.018-1.355-3.312c0-1.289,0.456-2.388,1.37-3.298
		c0.907-0.905,2.004-1.361,3.289-1.361c1.291,0,2.396,0.457,3.307,1.361c0.913,0.908,1.37,2.004,1.37,3.298
		C461.787,238.446,461.33,239.548,460.417,240.467z"/>
	<path d="M457.11,233.124c-1.11,0-2.052,0.395-2.838,1.184c-0.781,0.784-1.173,1.733-1.173,2.847c0,1.116,0.392,2.071,1.164,2.858
		c0.78,0.792,1.728,1.187,2.847,1.187c1.113,0,2.063-0.395,2.842-1.187c0.783-0.787,1.172-1.742,1.172-2.858
		c0-1.114-0.389-2.063-1.172-2.847C459.167,233.519,458.22,233.124,457.11,233.124z M458.375,239.706
		c-0.006-0.017-0.009-0.037-0.014-0.054c-0.003-0.017-0.009-0.034-0.012-0.056l-0.02-0.169v-0.403c0-0.595-0.164-0.987-0.482-1.178
		c-0.191-0.11-0.529-0.167-1.009-0.167h-0.713v2.027h-0.902v-5.13h1.796c0.637,0,1.102,0.062,1.4,0.186
		c0.53,0.217,0.792,0.651,0.792,1.294c0,0.459-0.166,0.798-0.501,1.015c-0.178,0.113-0.429,0.2-0.744,0.248
		c0.402,0.062,0.698,0.231,0.885,0.502c0.186,0.271,0.279,0.538,0.279,0.798v0.372c0,0.121,0.005,0.248,0.017,0.383
		c0.009,0.135,0.02,0.225,0.042,0.265l0.031,0.068H458.375z"/>
	<path d="M458.331,236.135c0-0.372-0.115-0.623-0.344-0.75c-0.226-0.127-0.587-0.191-1.088-0.191h-0.772v1.857h0.817
		c0.38,0,0.668-0.04,0.856-0.113C458.153,236.797,458.331,236.526,458.331,236.135z"/>
</g>
<polygon fill="#B00E31" points="215.226,276.682 215.226,259.006 208.258,249.078 201.292,259.006 201.292,276.682 183.007,276.682 
	183.007,259.006 176.045,249.078 169.078,259.006 169.078,276.682 150.792,253.259 176.045,217.209 192.151,240.196 
	208.258,217.209 233.469,253.256 "/>
</svg>
