<?xml version="1.0" encoding="utf-8"?>
<!-- Generator: Adobe Illustrator 16.0.0, SVG Export Plug-In . SVG Version: 6.00 Build 0)  -->
<!DOCTYPE svg PUBLIC "-//W3C//DTD SVG 1.1//EN" "http://www.w3.org/Graphics/SVG/1.1/DTD/svg11.dtd">
<svg version="1.1" id="Calque_1" xmlns="http://www.w3.org/2000/svg" xmlns:xlink="http://www.w3.org/1999/xlink" x="0px" y="0px"
	 width="500px" height="500px" viewBox="0 0 500 500" enable-background="new 0 0 500 500" xml:space="preserve">
<g>
	<path fill="#00519E" d="M435.046,288.169c0-0.182,0.032-0.331,0.106-0.47c0.47-1.088,3.052-6.828,6.701-14.883H425.71
		l-5.334,11.768c-1.366,3.015-3.361,4.727-5.847,4.727h-11.651c-0.576,0-1.109-0.49-1.109-1.142c0-0.182,0.043-0.331,0.106-0.47
		c0.47-1.088,3.063-6.828,6.7-14.883h-16.132l-5.334,11.768c-1.366,3.015-3.361,4.727-5.857,4.727h-43.137
		c-0.715,0-0.661-0.293-0.416-0.96c0,0,1.089-2.39,1.644-3.713h30.557c3.83,0,7.757-2.796,9.187-6.423l2.433-5.398h0.005
		l2.865-6.349c0.501-1.36,0.821-2.838,0.821-4.513c0-5.121-3.104-9.533-7.244-9.619l-0.363-0.019l-32.637-0.005
		c-3.138,0.014-7.356,0.139-9.438,5.001l-6.161,13.838h-10.499l8.589-18.876h-16.164l-9.304,20.541H302l-5.602,12.333
		c-1.141,2.529-3.681,4.226-6.614,4.226h-15.631l7.512-16.559h0.005l9.319-20.541h-16.163l-9.272,20.541l-5.579,12.333
		c-1.143,2.529-3.602,4.226-6.52,4.226h-15.321l7.511-16.559h-0.005l9.309-20.52h-16.127l-9.288,20.52h0.005l-8.319,18.383
		c-0.651,1.291-0.813,2.625-0.813,3.777c0,4.993,4.041,9.036,9.029,9.036h24.216c2.617,0,5.116-0.453,7.432-1.291
		c1.365,0.816,2.955,1.291,4.662,1.291h24.219c8.909,0,16.389-5.303,19.803-12.835l3.02-6.646h10.627l-0.459,1.04
		c-3.574,9.426,1.237,18.441,11.522,18.441h131.69v-14.702h-30.013C435.579,289.311,435.046,288.82,435.046,288.169z
		 M346.565,265.833h22.342l-2.438,5.329h-22.326L346.565,265.833z"/>
	<path fill="#00519E" d="M233.288,253.374h-14.934c-2.305,0-4.863,0.861-7.178,2.009l1.339-3.103h-15.532l-9.314,20.536h0.005
		l-7.511,16.563h-19.912l7.469-16.563h-0.005l5.545-12.302c1.752-3.862-0.491-8.229-3.993-8.229h-37.06v-46.47v-0.574
		c-0.104-4.982-4.156-9.026-9.17-9.026h-13.745c-6.562,0-9.047,1.625-11.816,5.29l-50.524,71.311L24.96,303.853h18.396
		l22.147-31.036l41.981-58.841c1.376-1.92,3.376-2.723,4.452-2.723h1.678h1.912c1.118,0,2.03,0.904,2.03,2.03v39.004H89.188
		l-10.439,14.641l38.807,0.011v5.879h0.005v31.025h14.652v-31.025h-0.005v-5.874h22.075l-2.638,5.874l-8.266,18.388
		c-0.651,1.297-0.819,2.63-0.819,3.782c0,4.994,4.046,9.032,9.034,9.032h24.216c2.168,0,4.049,0.101,5.703,0.144
		c5.399,0.117,8.335-0.603,10.872-6.188c0,0,7.583-16.861,11.315-25.153h0.002c0.454-1.008,0.848-1.883,1.166-2.587
		c0.982-2.337,4.969-4.098,8.618-4.119l14.235,0.012L233.288,253.374z"/>
	<path fill="#00519E" d="M173.337,243.918c4.895,0,8.858-3.966,8.858-8.855s-3.964-8.855-8.858-8.855
		c-4.889,0-8.855,3.966-8.855,8.855S168.448,243.918,173.337,243.918z"/>
	<path fill="#00519E" d="M441.693,199.838h-16.164l-33.086,72.978l16.138-0.006C419.971,247.647,441.693,199.838,441.693,199.838z"
		/>
	<path fill="#00519E" d="M474.96,199.838h-16.164l-33.086,72.978l16.144-0.006C453.237,247.647,474.96,199.838,474.96,199.838z"/>
</g>
</svg>
