<?xml version="1.0" encoding="utf-8"?>
<!-- Generator: Adobe Illustrator 16.0.0, SVG Export Plug-In . SVG Version: 6.00 Build 0)  -->
<!DOCTYPE svg PUBLIC "-//W3C//DTD SVG 1.1//EN" "http://www.w3.org/Graphics/SVG/1.1/DTD/svg11.dtd">
<svg version="1.1" id="Calque_1" xmlns="http://www.w3.org/2000/svg" xmlns:xlink="http://www.w3.org/1999/xlink" x="0px" y="0px"
	 width="500px" height="500px" viewBox="0 0 500 500" enable-background="new 0 0 500 500" xml:space="preserve">
<g id="Calque_2">
</g>
<g>
	<path fill="#004D95" d="M110.04,214.524c-4.221-5.468-12.667-4.972-12.667-4.972s-42.366,0-45.962,0
		c-3.607,0-12.678,4.099-12.678,12.297s7.836,7.828,7.836,7.828h43.842l-1.613,7.702h-41.12c0,0-5.586-0.377-10.18,3.108
		c-6.046,4.571-7.824,9.685-7.824,9.685s-2.486,6.955-3.978,15.53c-1.487,8.567-0.621,10.44,2.856,14.405
		c3.477,3.974,10.936,4.603,10.936,4.603h58.75c0,0,14.036-56.897,14.413-58.88C113.018,223.832,114.261,219.992,110.04,214.524z
		 M81.343,265.45H47.061l2.238-8.945l34.53,0.126L81.343,265.45z"/>
	<path fill="#004D95" d="M128.178,284.34h-21.242l18.382-74.788h49.565c0,0,6.707,1.117,8.449,5.963
		c1.731,4.847,0.87,9.189,0.244,11.801c-0.622,2.604-14.032,57.275-14.032,57.275h-20.994l13.166-54.797h-20.003L128.178,284.34z"/>
	<path fill="#004D95" d="M223.717,199.088c-0.692,2.479-3.548,4.5-6.376,4.5h-11.632c-2.829,0-4.559-2.022-3.863-4.5l3.721-13.359
		c0.696-2.479,3.552-4.5,6.384-4.5h11.632c2.829,0,4.56,2.021,3.863,4.5L223.717,199.088z"/>
	<path fill="#004D95" d="M199.977,209.804h21.242l-22.607,92.419c0,0-5.098,16.53-16.152,16.53c-11.058,0-23.972,0-23.972,0
		s15.9,1.487,19.999-21.872L199.977,209.804z"/>
	<path fill="#004D95" d="M283.773,208.938h-33.417c-9.815,0-19.842,7.561-22.391,16.899l-11.356,41.47
		c-2.553,9.331,3.328,16.907,13.143,16.907h33.417c9.812,0,19.842-7.576,22.399-16.907l11.345-41.47
		C299.469,216.499,293.584,208.938,283.773,208.938z M265.678,265.207h-26.336l8.387-35.656h26.336L265.678,265.207z"/>
	<path fill="#004D95" d="M327.422,209.686h36.898c0,0,7.82,0.236,7.82,7.946c0,7.703-9.559,12.415-12.549,12.415
		c-2.974,0-34.404,0-34.404,0l-1.746,7.073h43.854l-7.82,30.816c0,0-3.478,14.531-20.621,16.145H281.83
		c0,0,11.636,0.802,15.53-18.505h41.863l1.864-9.188h-32.422c0,0-6.986,0.479-7.946-10.314c-0.495-5.586,4.839-22.359,4.839-22.359
		S312.018,209.686,327.422,209.686z"/>
	<path fill="#004D95" d="M451.036,214.689h15.695c-2.572-2.895-6.585-4.681-11.533-4.681h-6.821
		c0.149,0.165,0.314,0.307,0.448,0.479C449.777,211.708,450.462,213.155,451.036,214.689z"/>
	<path fill="#004D95" d="M402.935,211.079c-2.573,0.81-5.035,2.045-7.246,3.611h10.856c-0.534-0.598-0.873-0.936-0.889-0.952
		L402.935,211.079z"/>
	<path fill="#004D95" d="M455.245,225.523l0.433,0.291c0.378,0.268,0.857,0.487,1.4,0.676h12.344
		c0.378-1.644,0.496-3.226,0.354-4.72h-16.537C453.813,223.485,454.506,225.083,455.245,225.523z"/>
	<path fill="#004D95" d="M389.024,221.771c-0.912,1.495-1.597,3.076-2.062,4.72h26.836c-0.621-1.707-1.393-3.281-2.194-4.72H389.024
		z"/>
	<path fill="#004D95" d="M415.255,233.194h-30.03l-1.22,4.729h31.132c0.118-1.133,0.196-2.266,0.196-3.399
		C415.333,234.067,415.294,233.643,415.255,233.194z"/>
	<path fill="#004D95" d="M382.227,244.877l-1.203,4.713h31.179c0.613-1.542,1.148-3.124,1.597-4.713H382.227z"/>
	<path fill="#004D95" d="M453.979,261.273h6.562l1.203-4.729h-1.368c-0.795,0.385-1.598,0.794-2.376,1.306
		C456.708,258.669,455.355,259.865,453.979,261.273z"/>
	<path fill="#004D95" d="M379.245,256.545l-1.212,4.729h28.087c0.976-1.519,1.904-3.101,2.793-4.729H379.245z"/>
	<path fill="#004D95" d="M376.334,267.984c-0.386,1.628-0.511,3.226-0.386,4.712h21.534c1.234-1.424,2.549-2.997,3.886-4.712
		H376.334z"/>
	<path fill="#004D95" d="M444.577,272.696h12.187c0.896-1.486,1.581-3.084,2.037-4.712h-10.565
		c-0.983,1.242-1.967,2.525-2.942,3.792C445.049,272.091,444.82,272.397,444.577,272.696z"/>
	<path fill="#004D95" d="M390.85,279.667h-12.037c1.738,2.038,4.201,3.524,7.175,4.296l3.714-3.257
		C389.732,280.689,390.149,280.313,390.85,279.667z"/>
	<path fill="#004D95" d="M434.498,284.372h4.1c4.209-0.496,8.315-2.195,11.738-4.705H439.03
		C437.527,281.391,436.024,283.003,434.498,284.372z"/>
	<path fill="#004D95" d="M422.949,284.34h-30.313c0,0,27.323-23.484,27.323-48.825c0-15.782-11.054-24.971-11.054-24.971h29.811
		c0,0,4.728,0.496,6.467,3.855c1.738,3.352,2.604,11.432,5.594,13.792c2.974,2.36,3.226,3.847,12.045,3.973
		c8.812,0.126,11.919,5.83,12.053,8.82c0.126,2.974,0.126,7.82,0.126,7.82s-12.674-1.361-22.241,5.719
		C443.192,261.604,433.012,284.34,422.949,284.34z"/>
	<g>
		<g>
			<path fill="#82939C" d="M219.842,313.136l6.856-12.832h7.053l-9.288,16.277h-10.692l-1.908-16.277h7.175L219.842,313.136z"/>
			<path fill="#82939C" d="M241.694,309.375c-0.37,1.486-0.374,2.462-0.024,2.942c0.366,0.464,1.243,0.685,2.624,0.685
				c1.2,0,2.061-0.087,2.604-0.291c0.673-0.275,1.109-0.787,1.298-1.559h6.742c-0.531,2.141-1.68,3.611-3.473,4.398
				c-1.786,0.803-4.402,1.195-7.856,1.195c-4.465,0-7.187-0.668-8.159-1.998c-0.952-1.338-1.082-3.406-0.389-6.246
				c0.791-3.203,2.03-5.39,3.721-6.594c1.703-1.18,4.681-1.777,8.934-1.777c3.458,0,5.854,0.511,7.183,1.541
				c1.326,1.031,1.487,3.596,0.476,7.703H241.694z M242.418,306.433h6.841c0.268-1.078,0.177-1.786-0.264-2.093
				c-0.444-0.322-1.274-0.48-2.51-0.48c-1.361,0-2.313,0.174-2.868,0.52C243.067,304.717,242.67,305.401,242.418,306.433z"/>
			<path fill="#82939C" d="M259.644,316.581l3.997-16.277h6.837l-0.787,3.233c1.448-2.273,3.832-3.406,7.151-3.406
				c2.644,0,4.367,0.448,5.161,1.353c0.826,0.89,0.999,2.274,0.535,4.178l-2.675,10.92h-6.845l2.273-9.26
				c0.283-1.181,0.275-1.99-0.031-2.415c-0.291-0.441-0.999-0.685-2.132-0.685c-1.204,0-2.18,0.275-2.911,0.786
				c-0.716,0.496-1.235,1.385-1.542,2.636l-2.195,8.938H259.644z"/>
			<path fill="#82939C" d="M289.21,300.304h2.564l0.834-3.407h6.845l-0.834,3.407h7.773l-0.968,3.918h-7.773l-1.723,7.018
				c-0.165,0.653-0.157,1.078,0.016,1.282c0.188,0.205,0.598,0.307,1.251,0.307c0.52,0,0.952-0.133,1.282-0.408
				c0.339-0.291,0.685-1.109,1.015-2.479h5.469l-0.268,1.038c-0.551,2.282-1.44,3.8-2.659,4.587c-1.212,0.787-3.328,1.18-6.35,1.18
				c-3.037,0-5.035-0.354-5.995-1.077c-0.96-0.7-1.219-1.936-0.786-3.675l1.903-7.772h-2.564L289.21,300.304z"/>
			<path fill="#82939C" d="M312.301,300.304h6.845l-4.005,16.277h-6.845L312.301,300.304z M314.023,293.285h6.845l-1.007,4.092
				h-6.837L314.023,293.285z"/>
			<path fill="#82939C" d="M321.805,316.581l5.728-23.327h6.845l-5.728,23.327H321.805z"/>
			<path fill="#82939C" d="M350.867,308.518l0.763-3.116c0.331-1.353-0.503-2.021-2.501-2.021c-0.983,0-1.755,0.126-2.329,0.362
				c-0.559,0.243-0.929,0.739-1.117,1.486h-6.845c0.433-1.778,1.338-3.061,2.706-3.863c1.369-0.826,3.438-1.234,6.224-1.234h2.903
				c3.524,0,5.813,0.433,6.868,1.282c1.062,0.873,1.298,2.518,0.692,4.948l-2.502,10.22h-6.845l0.495-2.021
				c-0.747,0.873-1.651,1.455-2.722,1.746c-1.07,0.292-2.463,0.44-4.178,0.44c-2.62,0-4.397-0.393-5.35-1.195
				c-0.929-0.787-1.181-2.054-0.756-3.761c0.433-1.786,1.338-3.1,2.723-3.941c1.385-0.857,3.524-1.282,6.412-1.282
				c1.715,0,2.942,0.157,3.705,0.425C349.979,307.267,350.529,307.785,350.867,308.518z M343.252,311.633
				c-0.275,1.133,0.59,1.676,2.604,1.676c1.59,0,2.667-0.134,3.21-0.394c0.543-0.275,0.913-0.786,1.102-1.558
				c0.165-0.669-0.031-1.094-0.605-1.267c-0.551-0.188-1.456-0.275-2.715-0.275c-1.282,0-2.155,0.126-2.636,0.362
				C343.747,310.437,343.433,310.917,343.252,311.633z"/>
			<path fill="#82939C" d="M364.997,300.304h2.564l0.842-3.407h6.837l-0.834,3.407h7.781l-0.968,3.918h-7.78l-1.731,7.018
				c-0.157,0.653-0.142,1.078,0.023,1.282c0.174,0.205,0.606,0.307,1.259,0.307c0.52,0,0.944-0.133,1.282-0.408
				c0.331-0.291,0.677-1.109,1.008-2.479h5.46l-0.252,1.038c-0.559,2.282-1.439,3.8-2.659,4.587s-3.336,1.18-6.357,1.18
				c-3.036,0-5.027-0.354-5.994-1.077c-0.96-0.7-1.22-1.936-0.787-3.675l1.904-7.772h-2.558L364.997,300.304z"/>
			<path fill="#82939C" d="M388.096,300.304h6.837l-3.996,16.277h-6.845L388.096,300.304z M389.819,293.285h6.845l-1.008,4.092
				h-6.853L389.819,293.285z"/>
			<path fill="#82939C" d="M398.639,308.431c0.834-3.383,2.045-5.609,3.643-6.688c1.604-1.077,4.603-1.612,8.969-1.612
				c4.438,0,7.112,0.566,8.041,1.715c0.92,1.141,0.976,3.406,0.134,6.789c-0.818,3.359-2.069,5.547-3.745,6.578
				c-1.684,1.022-4.571,1.533-8.662,1.533c-4.288,0-6.963-0.598-8.01-1.762C397.97,313.805,397.852,311.633,398.639,308.431z
				 M405.468,308.47c-0.473,1.951-0.512,3.132-0.126,3.557c0.386,0.409,1.337,0.613,2.855,0.613c1.503,0,2.502-0.235,3.006-0.731
				c0.503-0.52,0.991-1.66,1.432-3.478c0.448-1.81,0.52-2.958,0.229-3.454c-0.283-0.495-1.142-0.755-2.597-0.755
				c-1.676,0-2.777,0.26-3.32,0.771C406.411,305.488,405.924,306.652,405.468,308.47z"/>
			<path fill="#82939C" d="M423.72,316.581l3.997-16.277h6.845l-0.795,3.233c1.456-2.273,3.84-3.406,7.159-3.406
				c2.644,0,4.367,0.448,5.169,1.353c0.811,0.89,0.992,2.274,0.52,4.178l-2.675,10.92h-6.845l2.273-9.26
				c0.291-1.181,0.283-1.99-0.023-2.415c-0.299-0.441-1.007-0.685-2.132-0.685c-1.204,0-2.18,0.275-2.919,0.786
				c-0.716,0.496-1.228,1.385-1.542,2.636l-2.188,8.938H423.72z"/>
		</g>
	</g>
</g>
</svg>
