<?xml version="1.0" encoding="utf-8"?>
<!-- Generator: Adobe Illustrator 16.0.0, SVG Export Plug-In . SVG Version: 6.00 Build 0)  -->
<!DOCTYPE svg PUBLIC "-//W3C//DTD SVG 1.1//EN" "http://www.w3.org/Graphics/SVG/1.1/DTD/svg11.dtd">
<svg version="1.1" id="Calque_2" xmlns="http://www.w3.org/2000/svg" xmlns:xlink="http://www.w3.org/1999/xlink" x="0px" y="0px"
	 width="500px" height="500px" viewBox="0 0 500 500" enable-background="new 0 0 500 500" xml:space="preserve">
<g>
	<polygon fill="#256287" points="219.636,233.656 219.636,270.664 202.729,233.656 185.802,233.656 185.802,289.465 
		197.808,289.465 197.808,253.109 214.417,289.465 232.048,289.465 232.048,233.656 	"/>
	<rect x="351.775" y="233.656" fill="#256287" width="13.56" height="55.809"/>
	<polygon fill="#256287" points="388.403,278.859 388.403,266.787 409.072,266.787 409.072,255.549 388.403,255.549 
		388.403,244.142 411.537,244.142 411.537,233.656 375.18,233.656 375.18,289.465 411.537,289.465 411.537,278.859 	"/>
	<path fill="#256287" d="M297.356,233.656v36.793c0,11.375,9.305,20.68,20.679,20.68h3.175c11.374,0,20.679-9.305,20.679-20.68
		v-36.793l-13.421,0.021v37.402c0,4.74-3.878,8.617-8.616,8.617h-0.458c-4.739,0-8.617-3.877-8.617-8.617v-37.421L297.356,233.656z"
		/>
	<path fill="#256287" d="M290.712,266.826v-10.533c0-13.269-10.855-24.125-24.126-24.125h-2.098
		c-13.27,0-24.126,10.856-24.126,24.125v10.533c0,13.27,10.856,24.125,24.126,24.125h2.098c0.086,0,0.169-0.012,0.254-0.012
		l6.538,9.105h15.966l-9.435-13.141C286.407,282.568,290.712,275.18,290.712,266.826z M253.933,266.766v-10.41
		c0-7.057,5.222-12.831,11.605-12.831c6.382,0,11.604,5.774,11.604,12.831v10.41c0,7.057-5.222,12.83-11.604,12.83
		C259.155,279.596,253.933,273.822,253.933,266.766z"/>
	<path fill="#256287" d="M456.813,272.771c-3.36-11.047-10.221-10.221-10.221-10.221l0.001-0.014
		c7.396-0.648,13.199-6.842,13.199-14.405c0-7.597-5.856-13.816-13.3-14.417v-0.059h-26.478v55.809h12.979v-21.91
		c13.163,0.09,15.193,21.879,15.193,21.879l13.982,0.031C462.17,289.465,460.173,283.818,456.813,272.771z M440.058,256.986h-6.991
		V244.22h6.991c3.525,0,6.384,2.858,6.384,6.383C446.442,254.129,443.583,256.986,440.058,256.986z"/>
	<path fill="#256287" d="M166.899,208.936l-80.246,80.529h19.961l18.184-18.395h39.366v18.395h13.164v-80.529H166.899z
		 M138.32,257.393l25.844-26.141v26.141H138.32z"/>
	<g>
		<g>
			<polygon fill="#F6A906" points="173.42,229.944 173.994,228.942 173.42,227.94 			"/>
			<path fill="#F6A906" d="M72.928,288.498l27.729-27.828c-15.511-2.248-27.429-15.594-27.429-31.728
				c0-17.71,14.357-32.068,32.068-32.068c16.095,0,29.418,11.858,31.715,27.314l21.773-21.851l-18.837-32.952H69.976L35.93,228.942
				l34.046,59.556H72.928z"/>
		</g>
	</g>
	<path fill="#256287" d="M105.296,255.387c0.215,0,0.429-0.012,0.643-0.018l7.975-8.002c-2.621,1.231-5.534,1.939-8.617,1.939
		c-11.229,0-20.365-9.135-20.365-20.365s9.136-20.365,20.365-20.365s20.365,9.136,20.365,20.365c0,3.056-0.696,5.946-1.907,8.55
		l7.973-8c0.004-0.183,0.014-0.365,0.014-0.549c0-14.605-11.84-26.445-26.444-26.445c-14.605,0-26.445,11.84-26.445,26.445
		S90.691,255.387,105.296,255.387z"/>
	<polygon fill="#256287" points="262.343,300.748 75.625,300.748 80.151,297.332 260.417,297.332 	"/>
	<polygon fill="#256287" points="464.07,300.748 299.223,300.748 297.392,297.332 464.07,297.332 	"/>
	<g>
		<path d="M74.715,313.83c1.391-0.223,3.203-0.346,5.114-0.346c3.178,0,5.238,0.57,6.852,1.787c1.738,1.291,2.831,3.352,2.831,6.305
			c0,3.203-1.167,5.412-2.781,6.777c-1.763,1.465-4.443,2.16-7.721,2.16c-1.961,0-3.352-0.123-4.295-0.248V313.83z M78.514,327.484
			c0.322,0.076,0.844,0.076,1.315,0.076c3.426,0.023,5.66-1.863,5.66-5.859c0.025-3.477-2.011-5.313-5.263-5.313
			c-0.845,0-1.391,0.074-1.713,0.148V327.484z"/>
		<path d="M125.047,323.266h-6.157v3.971h6.877v3.104h-10.675v-16.732h10.327v3.104h-6.529v3.475h6.157V323.266z"/>
		<path d="M163.735,329.869c-0.695,0.348-2.259,0.719-4.295,0.719c-5.784,0-8.764-3.6-8.764-8.365c0-5.711,4.071-8.889,9.136-8.889
			c1.962,0,3.451,0.398,4.121,0.746l-0.77,3.004c-0.77-0.324-1.837-0.621-3.178-0.621c-3.004,0-5.337,1.813-5.337,5.535
			c0,3.352,1.985,5.463,5.362,5.463c1.142,0,2.408-0.248,3.152-0.547L163.735,329.869z"/>
		<path d="M203.887,321.801c0,5.486-3.327,8.813-8.218,8.813c-4.965,0-7.869-3.748-7.869-8.516c0-5.014,3.202-8.764,8.143-8.764
			C201.082,313.334,203.887,317.182,203.887,321.801z M191.796,322.023c0,3.277,1.54,5.586,4.072,5.586
			c2.557,0,4.021-2.434,4.021-5.686c0-3.004-1.44-5.586-4.047-5.586C193.287,316.338,191.796,318.771,191.796,322.023z"/>
		<path d="M229.467,313.607h3.799v13.555h6.653v3.178h-10.452V313.607z"/>
		<path d="M265.25,313.607h3.798v13.555h6.653v3.178H265.25V313.607z"/>
		<path d="M310.987,323.266h-6.157v3.971h6.877v3.104h-10.675v-16.732h10.327v3.104h-6.529v3.475h6.157V323.266z"/>
		<path d="M340.738,316.785h-4.494v-3.178h12.86v3.178h-4.568v13.555h-3.798V316.785z"/>
		<path d="M376.321,326.045l-1.191,4.295h-3.923l5.114-16.732h4.965l5.189,16.732h-4.072l-1.29-4.295H376.321z M380.566,323.215
			l-1.043-3.549c-0.298-0.994-0.596-2.234-0.844-3.229h-0.05c-0.248,0.994-0.496,2.26-0.77,3.229l-0.993,3.549H380.566z"/>
		<path d="M425.163,329.57c-1.166,0.398-3.376,0.943-5.586,0.943c-3.053,0-5.263-0.77-6.802-2.258
			c-1.539-1.441-2.384-3.625-2.358-6.084c0.024-5.561,4.071-8.738,9.558-8.738c2.16,0,3.823,0.422,4.643,0.82l-0.794,3.027
			c-0.919-0.396-2.061-0.719-3.898-0.719c-3.152,0-5.536,1.787-5.536,5.412c0,3.449,2.16,5.486,5.264,5.486
			c0.868,0,1.563-0.1,1.861-0.248v-3.502h-2.582v-2.953h6.231V329.57z"/>
		<path d="M461.17,323.266h-6.157v3.971h6.877v3.104h-10.675v-16.732h10.327v3.104h-6.529v3.475h6.157V323.266z"/>
	</g>
</g>
</svg>
