<?xml version="1.0" encoding="utf-8"?>
<!-- Generator: Adobe Illustrator 16.0.0, SVG Export Plug-In . SVG Version: 6.00 Build 0)  -->
<!DOCTYPE svg PUBLIC "-//W3C//DTD SVG 1.1//EN" "http://www.w3.org/Graphics/SVG/1.1/DTD/svg11.dtd">
<svg version="1.1" id="Calque_2" xmlns="http://www.w3.org/2000/svg" xmlns:xlink="http://www.w3.org/1999/xlink" x="0px" y="0px"
	 width="500px" height="500px" viewBox="0 0 500 500" enable-background="new 0 0 500 500" xml:space="preserve">
<g>
	<path fill="#00448A" d="M113.375,307.966c22.628-9.554,38.51-31.949,38.51-58.055c0-17.687-7.291-33.67-19.029-45.111l-0.74-0.708
		c0,0-5.52-6.575-9.696-0.317L65.187,302.62c0,0-1.219,5.36,2.075,6.463c3.294,1.103,8.707,3.018,14.43,3.408
		c4.651,0.356,7.124-6.227,9.107-9.871s29.593-51.835,29.593-51.835s2.646-6.531,6.862-6.531s3.389,5.539,3.389,6.779
		c0,1.239-1.653,15.952-8.019,28.021c-6.365,12.068-14.796,22.318-14.796,22.318s-3.501,3.714-1.323,6.034s5.085,1.328,6.644,0.652
		L113.375,307.966z"/>
	<path fill="#B70642" d="M63.51,192.035C40.881,201.589,25,223.986,25,250.092c0,17.686,7.29,33.668,19.029,45.109l0.74,0.709
		c0,0,5.52,6.574,9.696,0.317l57.233-98.847c0,0,1.219-5.361-2.075-6.463c-3.294-1.103-8.707-3.018-14.43-3.409
		c-4.651-0.357-7.124,6.227-9.107,9.872c-1.984,3.645-29.594,51.838-29.594,51.838s-2.645,6.529-6.861,6.529
		s-3.389-5.538-3.389-6.777c0-1.24,1.653-15.954,8.018-28.023c6.366-12.069,14.797-22.319,14.797-22.319s3.501-3.715,1.322-6.035
		c-2.179-2.32-5.085-1.328-6.644-0.652L63.51,192.035z"/>
	<path fill="none" stroke="#E2007A" stroke-width="0.4666" stroke-miterlimit="10" d="M132.116,303.294"/>
	<path fill="#00448A" d="M262.204,282.857v-59.021c0,0-1.487-12.027,37.075-12.027c0,0,4.34-0.372,4.34,3.844s0,9.424,0,9.424
		s0,2.976-5.208,2.976c-5.207,0-14.755,0-14.755,2.604s0,52.202,0,52.202s0.744,3.72-3.225,3.72c-3.968,0-14.879,0-14.879,0
		S262.204,286.949,262.204,282.857z"/>
	<path fill="#00448A" d="M350.366,226.192c0,0-18.724-4.453-18.724,22.573c0,27.024,14.88,24.668,18.724,24.668
		s12.399-1.488,13.392-1.86s4.712-1.88,5.456,1.913c0.744,3.791,1.364,7.139,1.364,7.139s1.611,2.604-3.101,4.092
		c-4.712,1.488-11.903,2.852-22.195,2.852s-35.339,1.667-35.339-37.666c0-39.334,26.535-38.103,34.843-38.103
		s23.436,3.356,23.436,3.356s2.729,0.62,1.86,5.208s-0.62,8.556-5.208,7.812C360.286,227.432,350.366,226.192,350.366,226.192z"/>
	<path fill="#00448A" d="M422.932,211.795h-14.439c-15.466,0-28.12,12.654-28.12,28.119v20.281c0,15.465,12.654,28.117,28.12,28.117
		h14.439c15.466,0,28.119-12.652,28.119-28.117v-20.281C451.051,224.449,438.398,211.795,422.932,211.795z M429.352,260.049
		c0,7.571-6.138,13.767-13.64,13.767s-13.64-6.195-13.64-13.767v-19.988c0-7.572,6.138-13.767,13.64-13.767
		s13.64,6.195,13.64,13.767V260.049z"/>
	<path fill="#00448A" d="M245.092,274.798c0,0,0-23.559,0-41.414s-15.375-21.575-28.395-21.575s-25.543,2.604-30.751,4.34
		c-5.208,1.736-3.224,5.208-3.224,5.208s0.248,1.984,1.116,6.076c0.868,4.092,4.092,2.604,4.092,2.604s10.788-3.72,23.707-3.72
		s11.88,7.192,11.88,7.192v5.704c0,0-8.928,1.364-26.164,4.34c-17.235,2.976-19.219,14.507-19.219,20.087
		c0,5.579-2.232,24.922,33.975,24.922S245.092,274.798,245.092,274.798z M223.641,273.186c0,0-3.224,1.612-10.664,1.612
		c-7.439,0-14.011-1.116-14.011-11.035c0-9.92,10.292-8.804,24.675-12.275V273.186z"/>
	<g>
		<g>
			<path fill="#00448A" d="M464.872,204.323c1.737,0,3.403,0.434,4.998,1.302c1.596,0.869,2.85,2.113,3.763,3.735
				c0.912,1.622,1.368,3.319,1.368,5.091c0,1.763-0.447,3.445-1.342,5.044c-0.895,1.6-2.143,2.848-3.742,3.742
				c-1.601,0.895-3.282,1.342-5.045,1.342s-3.444-0.447-5.044-1.342c-1.601-0.895-2.848-2.142-3.742-3.742
				c-0.896-1.6-1.343-3.281-1.343-5.044c0-1.772,0.457-3.469,1.369-5.091s2.167-2.867,3.762-3.735
				C461.469,204.757,463.135,204.323,464.872,204.323z M464.885,206.307c-1.394,0-2.729,0.348-4.007,1.044
				c-1.277,0.696-2.286,1.697-3.021,3.002c-0.735,1.304-1.104,2.671-1.104,4.099c0,1.419,0.359,2.772,1.078,4.059
				c0.719,1.288,1.721,2.292,3.008,3.015c1.287,0.723,2.637,1.084,4.047,1.084c1.419,0,2.77-0.361,4.053-1.084
				c1.282-0.723,2.285-1.728,3.008-3.015c0.723-1.287,1.085-2.64,1.085-4.059c0-1.428-0.369-2.794-1.104-4.099
				c-0.736-1.305-1.746-2.306-3.028-3.002S466.278,206.307,464.885,206.307z M460.296,219.873v-10.75h2.183
				c2.045,0,3.19,0.009,3.438,0.026c0.723,0.062,1.285,0.205,1.686,0.43s0.736,0.569,1.005,1.031
				c0.27,0.463,0.403,0.977,0.403,1.541c0,0.776-0.253,1.439-0.76,1.99c-0.507,0.551-1.219,0.893-2.136,1.025
				c0.326,0.123,0.577,0.258,0.754,0.403c0.176,0.146,0.419,0.421,0.727,0.827c0.08,0.106,0.345,0.542,0.794,1.309l1.27,2.168
				h-2.697l-0.899-1.746c-0.608-1.172-1.111-1.911-1.507-2.214c-0.397-0.304-0.9-0.456-1.508-0.456h-0.568v4.416H460.296z
				 M462.479,213.764h0.885c1.261,0,2.043-0.048,2.348-0.146c0.304-0.097,0.544-0.267,0.721-0.509
				c0.177-0.242,0.265-0.518,0.265-0.826c0-0.3-0.087-0.566-0.259-0.8c-0.172-0.233-0.416-0.401-0.732-0.502
				c-0.317-0.101-1.098-0.152-2.342-0.152h-0.885V213.764z"/>
		</g>
	</g>
</g>
</svg>
