<?xml version="1.0" encoding="utf-8"?>
<!-- Generator: Adobe Illustrator 16.0.0, SVG Export Plug-In . SVG Version: 6.00 Build 0)  -->
<!DOCTYPE svg PUBLIC "-//W3C//DTD SVG 1.1//EN" "http://www.w3.org/Graphics/SVG/1.1/DTD/svg11.dtd">
<svg version="1.1" id="Calque_1" xmlns="http://www.w3.org/2000/svg" xmlns:xlink="http://www.w3.org/1999/xlink" x="0px" y="0px"
	 width="500px" height="500px" viewBox="0 0 500 500" enable-background="new 0 0 500 500" xml:space="preserve">
<g>
	<path fill="#DDDB00" d="M25,296.511h90.453V203.49H25V296.511z M70.223,210.512c35.537,0,42.483,37.003,42.483,37.003H96.945
		v-17.471H46.241v17.128H30.824C30.824,247.171,34.693,210.512,70.223,210.512z M45.555,255.055v18.254h50.81v-18.205h16.144
		c0,0-7.045,38.766-43.163,38.469c-36.124-0.297-39.551-38.518-39.551-38.518H45.555z"/>
	<path fill="#DDDB00" d="M168.6,228.963l-20.845,47.283h14.388l4.404-8.221h23.203l4.701,8.221h12.916l-20.562-47.283H168.6z
		 M169.769,259.218l7.349-19.096l9.687,19.096H169.769z"/>
	<path fill="#DDDB00" d="M265.51,240.713c0.291-9.105-11.449-12.04-11.449-12.04h-41.413v46.986h13.51v-14.686h17.913
		c0,0,4.992-0.581,4.702,4.114c-0.291,4.694,0,10.571,0,10.571h14.691c0,0,2.232-15.688-6.761-19.677
		C259.271,253.157,265.22,249.815,265.51,240.713z M226.157,251.285v-13.513c0,0,22.667-2.958,22.667,6.636
		C248.825,253.999,226.157,251.285,226.157,251.285z"/>
	<polygon fill="#DDDB00" points="370.701,276.293 413.521,276.293 413.521,267.729 384.566,267.386 384.566,255.392 
		412.153,255.392 412.153,247.003 384.903,247.003 384.903,236.725 413.87,236.725 413.87,228.673 371.202,228.673 	"/>
	<polygon fill="#DDDB00" points="337.29,229.01 324.956,229.01 324.956,275.95 364.864,275.95 364.864,267.901 337.29,267.901 	"/>
	<polygon fill="#DDDB00" points="271.513,276.293 314.339,276.293 314.339,267.729 285.372,267.386 285.372,255.392 
		312.965,255.392 312.965,247.003 285.729,247.003 285.729,236.725 314.669,236.725 314.669,228.673 272.027,228.673 	"/>
	<path fill="#DDDB00" d="M475,244.946v-7.709c0,0-7.481-9.937-25.844-9.937c-18.376,0-25.87,12.334-25.87,12.334l0.158,27.752
		c0,0,6.518,8.563,27.079,8.563s23.466-6.676,23.466-6.676v-11.311h-12.849v6.167c0,0-3.89,4.285-10.452,4.285
		c-6.551,0-12.85-3.427-12.85-3.427v-26.213c0,0,5.487-3.298,11.654-3.423c6.167-0.129,11.819,3.423,11.819,3.423v6.17H475z"/>
</g>
</svg>
