<?xml version="1.0" encoding="utf-8"?>
<!-- Generator: Adobe Illustrator 16.0.0, SVG Export Plug-In . SVG Version: 6.00 Build 0)  -->
<!DOCTYPE svg PUBLIC "-//W3C//DTD SVG 1.1//EN" "http://www.w3.org/Graphics/SVG/1.1/DTD/svg11.dtd">
<svg version="1.1" id="Calque_1" xmlns="http://www.w3.org/2000/svg" xmlns:xlink="http://www.w3.org/1999/xlink" x="0px" y="0px"
	 width="500px" height="500px" viewBox="0 0 500 500" enable-background="new 0 0 500 500" xml:space="preserve">
<g>
	<g>
		<polygon fill="#FFDD00" points="219.014,244.649 219.014,122.859 50.293,68.796 50.293,143.652 		"/>
		<polygon fill="#4B575F" points="234.558,244.649 234.558,122.859 403.277,68.796 403.277,143.652 		"/>
	</g>
	<g>
		<path fill="#4B575F" d="M41.066,384.022c-10.218,0-16.065,7.307-16.065,17.436c0,10.193,5.848,17.504,16.065,17.504
			s16.066-7.311,16.066-17.504C57.132,391.329,51.284,384.022,41.066,384.022z M41.066,413.188c-6.278,0-9.05-5.959-9.05-11.73
			c0-5.705,2.771-11.666,9.05-11.666s9.05,5.961,9.05,11.666C50.116,407.229,47.344,413.188,41.066,413.188z"/>
		<path fill="#4B575F" d="M79.784,384.022c-4.062,0-7.879,1.6-9.85,5.385h-0.123v-4.49h-6.648v45.389h7.019v-16.539h0.123
			c2.216,3.656,6.586,5.195,10.647,5.195c9.421,0,13.728-8.4,13.728-17.311C94.679,391.969,89.817,384.022,79.784,384.022z
			 M78.861,413.188c-5.663,0-8.927-4.998-8.927-11.666c0-7.051,3.017-11.73,8.927-11.73c5.786,0,8.803,5.705,8.803,11.73
			C87.664,407.292,85.262,413.188,78.861,413.188z"/>
		<path fill="#4B575F" d="M114.443,384.022c-9.48,0-15.391,8.078-15.391,17.5c0,10.193,5.603,17.439,15.573,17.439
			c6.956,0,12.866-4.041,14.405-11.285h-6.649c-1.23,3.656-3.691,5.512-7.756,5.512c-5.846,0-8.555-4.613-8.555-9.807h23.39
			C130.631,393.444,124.475,384.022,114.443,384.022z M106.071,398.575c0.186-4.938,3.51-8.783,8.372-8.783
			c4.74,0,7.754,4.164,8.002,8.783H106.071z"/>
		<path fill="#4B575F" d="M151.5,384.022c-4.188,0-7.819,2.242-9.91,5.896l-0.125-0.127v-4.875h-6.646v33.146h7.016v-19.555
			c0-4.871,3.017-8.717,7.694-8.717c4.125,0,6.096,2.242,6.218,7.436v20.836h7.017v-22.76
			C162.763,387.866,158.393,384.022,151.5,384.022z"/>
		<rect x="170.334" y="384.917" fill="#4B575F" width="7.019" height="33.146"/>
		<rect x="170.334" y="372.29" fill="#4B575F" width="7.019" height="6.924"/>
		<path fill="#4B575F" d="M201.668,384.022c-4.187,0-7.818,2.242-9.91,5.896l-0.125-0.127v-4.875h-6.646v33.146h7.016v-19.555
			c0-4.871,3.017-8.717,7.694-8.717c4.125,0,6.096,2.242,6.219,7.436v20.836h7.016v-22.76
			C212.932,387.866,208.562,384.022,201.668,384.022z"/>
		<path fill="#4B575F" d="M242.725,389.469h-0.122c-1.786-3.719-5.415-5.447-9.417-5.447c-9.051,0-14.405,7.691-14.405,16.602
			c0,9.488,4.187,17.439,14.282,17.439c3.939,0,7.571-2.182,9.54-5.836h0.122v5.064c0,5.451-2.523,8.465-8.187,8.465
			c-3.569,0-6.771-0.705-7.631-4.873h-7.02c0.615,7.756,7.819,10.32,14.221,10.32c10.032,0,15.636-4.936,15.636-14.873v-31.414
			h-7.02V389.469z M234.171,412.293c-5.849,0-8.372-5.514-8.372-10.965c0-5.514,2.153-11.537,8.372-11.537
			c6.093,0,8.554,5.256,8.554,10.961C242.725,406.393,240.387,412.293,234.171,412.293z"/>
		<path fill="#4B575F" d="M296.897,389.213h-0.122c-2.156-3.654-6.589-5.191-10.589-5.191c-6.956,0-13.789,5.254-13.789,17.244
			c0,9.936,4.862,17.695,14.897,17.695c3.999,0,8.002-1.605,9.848-5.387h0.125v4.488h6.646V372.29h-7.017V389.213z M288.217,413.188
			c-6.093,0-8.802-5.641-8.802-11.344c0-5.963,2.339-12.053,8.925-12.053c5.418,0,8.802,4.357,8.802,11.666
			C297.142,407.229,294.496,413.188,288.217,413.188z"/>
		<path fill="#4B575F" d="M326.135,384.022c-10.219,0-16.066,7.307-16.066,17.436c0,10.193,5.848,17.504,16.066,17.504
			c10.218,0,16.065-7.311,16.065-17.504C342.201,391.329,336.353,384.022,326.135,384.022z M326.135,413.188
			c-6.278,0-9.05-5.959-9.05-11.73c0-5.705,2.771-11.666,9.05-11.666s9.05,5.961,9.05,11.666
			C335.185,407.229,332.414,413.188,326.135,413.188z"/>
		<path fill="#4B575F" d="M362.636,384.022c-10.218,0-16.065,7.307-16.065,17.436c0,10.193,5.848,17.504,16.065,17.504
			s16.066-7.311,16.066-17.504C378.703,391.329,372.854,384.022,362.636,384.022z M362.636,413.188c-6.278,0-9.05-5.959-9.05-11.73
			c0-5.705,2.771-11.666,9.05-11.666s9.05,5.961,9.05,11.666C371.686,407.229,368.915,413.188,362.636,413.188z"/>
		<path fill="#4B575F" d="M391.262,391.329h-0.123v-6.412h-6.586v33.146h7.017V402.29c0-7.307,3.816-11.344,8.616-11.344
			c0.986,0,2.031,0.189,3.018,0.318v-7.053c-0.616-0.063-1.046-0.189-2.646-0.189C396.247,384.022,392.062,387.803,391.262,391.329z
			"/>
		<path fill="#4B575F" d="M422.531,398.508c-5.17-1.217-10.341-1.73-10.341-5.32c0-2.885,3.755-3.396,5.786-3.396
			c3.076,0,5.848,0.961,6.463,4.424h7.324c-0.86-7.373-6.771-10.193-13.295-10.193c-5.785,0-13.297,2.242-13.297,9.488
			c0,6.73,5.048,8.652,10.218,9.807c5.11,1.219,10.221,1.666,10.403,5.514c0.186,3.783-4.433,4.357-7.079,4.357
			c-3.754,0-6.831-1.537-7.201-5.768h-7.019c0.125,7.82,6.096,11.541,14.098,11.541c6.586,0,14.22-2.887,14.22-10.771
			C432.811,401.651,427.641,399.729,422.531,398.508z"/>
	</g>
	<g>
		<path fill="#4B575F" d="M80.967,295.018c0-14.227-14.228-16.867-26.045-16.867c-13.309,0-26.961,4.59-27.88,19.85h16.292
			c0.574-6.424,4.59-8.947,10.785-8.947c5.736,0,10.556,1.031,10.556,8.031c0,6.654-9.294,6.309-19.274,7.799
			c-10.097,1.379-20.193,4.592-20.193,18.014c0,12.162,8.949,17.783,20.193,17.783c7.227,0,14.8-1.949,19.962-7.342
			c0.115,1.949,0.574,3.9,1.147,5.736h16.521c-1.491-2.41-2.064-7.803-2.064-13.193V295.018z M64.675,316.129
			c0,3.555-0.459,13.652-13.195,13.652c-5.277,0-9.98-1.492-9.98-7.574c0-5.965,4.589-7.686,9.638-8.717
			c5.048-0.918,10.784-1.035,13.538-3.445V316.129z"/>
		<path fill="#4B575F" d="M109.299,290.774h-0.229v-11.016H93.581v59.316h16.292v-26.732c0-10.441,4.131-19.045,16.063-19.045
			c1.95,0,4.36,0.229,5.852,0.574v-15.146c-1.033-0.342-2.409-0.574-3.557-0.574C120.314,278.151,112.283,283.315,109.299,290.774z"
			/>
		<path fill="#4B575F" d="M179.74,287.674h-0.229c-3.9-6.883-9.867-9.523-17.669-9.523c-16.636,0-25.47,13.996-25.47,29.371
			c0,16.293,7.571,29.832,25.355,29.832c7.113,0,14.227-2.984,17.783-9.178h0.229v7.801c0.114,8.49-4.016,14.686-13.079,14.686
			c-5.736,0-10.67-2.064-12.162-8.146h-16.178c0.804,13.539,14.457,19.047,26.16,19.047c27.307,0,30.748-16.523,30.748-26.275
			v-55.529H179.74V287.674z M165.857,325.077c-9.982,0-13.193-9.295-13.193-17.783c0-8.834,4.015-16.867,13.193-16.867
			c10.556,0,13.883,8.607,13.883,18.244C179.74,317.161,175.151,325.077,165.857,325.077z"/>
		<path fill="#4B575F" d="M235.721,278.151c-18.012,0-30.288,13.539-30.288,31.324c0,18.355,11.589,31.205,30.288,31.205
			c13.424,0,23.177-5.965,27.767-19.965h-14.343c-1.031,3.674-6.31,7.689-12.849,7.689c-9.063,0-14.113-4.705-14.571-15.029h42.795
			C265.667,295.131,255.916,278.151,235.721,278.151z M221.725,303.049c0.229-4.59,3.212-12.623,13.538-12.623
			c7.917,0,11.473,4.363,12.965,12.623H221.725z"/>
		<path fill="#4B575F" d="M308.112,278.151c-6.883,0-13.997,3.213-18.127,9.867h-0.344v-8.26H274.15v59.316h16.292v-31.092
			c0-12.049,3.787-16.98,12.622-16.98c7.574,0,10.44,4.818,10.44,14.57v33.502h16.292v-36.486
			C329.796,287.903,325.435,278.151,308.112,278.151z"/>
		<path fill="#4B575F" d="M362.833,261.973h-16.292v17.785h-9.866v10.9h9.866v34.994c0,11.814,8.721,14.111,18.701,14.111
			c3.213,0,6.769-0.115,9.524-0.576v-12.732c-1.724,0.342-3.33,0.457-5.051,0.457c-5.505,0-6.883-1.377-6.883-6.883v-29.371h11.934
			v-10.9h-11.934V261.973z"/>
		<path fill="#4B575F" d="M435.798,295.018c0-14.227-14.229-16.867-26.045-16.867c-13.308,0-26.962,4.59-27.879,19.85h16.292
			c0.571-6.424,4.588-8.947,10.784-8.947c5.736,0,10.556,1.031,10.556,8.031c0,6.654-9.295,6.309-19.276,7.799
			c-10.096,1.379-20.19,4.592-20.19,18.014c0,12.162,8.946,17.783,20.19,17.783c7.229,0,14.8-1.949,19.965-7.342
			c0.114,1.949,0.571,3.9,1.146,5.736h16.521c-1.489-2.41-2.063-7.803-2.063-13.193V295.018z M419.506,316.129
			c0,3.555-0.461,13.652-13.194,13.652c-5.278,0-9.983-1.492-9.983-7.574c0-5.965,4.59-7.686,9.638-8.717
			c5.048-0.918,10.784-1.035,13.54-3.445V316.129z"/>
		<path fill="#4B575F" d="M458.943,261.11c-8.489,0-16.058,6.107-16.058,15.598c0,9.535,7.568,15.684,16.058,15.684
			S475,286.243,475,276.708C475,267.217,467.432,261.11,458.943,261.11z M458.943,289.043c-6.567,0-11.794-5.184-11.794-12.336
			c0-7.107,5.227-12.252,11.794-12.252c6.479,0,11.791,5.145,11.791,12.252C470.734,283.86,465.422,289.043,458.943,289.043z"/>
		<path fill="#4B575F" d="M466.176,273.112c0-3.803-2.467-5.184-6.857-5.184h-6.608v17.52h3.472v-7.484h2.175l4.264,7.484h3.641
			l-4.686-7.65C464.17,277.588,466.176,276.333,466.176,273.112z M456.182,275.247v-4.602h2.927c1.59,0,3.597,0.293,3.597,2.176
			c0,2.131-1.462,2.426-3.428,2.426H456.182z"/>
	</g>
</g>
</svg>
