<?xml version="1.0" encoding="utf-8"?>
<!-- Generator: Adobe Illustrator 16.0.0, SVG Export Plug-In . SVG Version: 6.00 Build 0)  -->
<!DOCTYPE svg PUBLIC "-//W3C//DTD SVG 1.1//EN" "http://www.w3.org/Graphics/SVG/1.1/DTD/svg11.dtd">
<svg version="1.1" id="Calque_2" xmlns="http://www.w3.org/2000/svg" xmlns:xlink="http://www.w3.org/1999/xlink" x="0px" y="0px"
	 width="500px" height="500px" viewBox="0 0 500 500" enable-background="new 0 0 500 500" xml:space="preserve">
<g>
	<path fill="#005B9A" d="M377.914,220.814c0.161-0.402,0.347-0.793,0.514-1.189l10.48-1.518l7.768-1.121l-7.594-1.982l-7.73-2.013
		c2.942-6.262,6.274-12.338,9.985-18.217c-0.335,0-2.559,0-6.355,0l2.359-3.784l4.33-6.944l-6.609,4.825l-8.083,5.903
		c-3.245,0-6.98,0-11.144,0l-0.495-1.133l-1.257-2.874l-1.567,2.713l-0.75,1.294c-4.373,0-9.154,0-14.271,0l-9.235-4.688
		l-5.234-2.664l3.184,4.937l1.562,2.416c-89.647,0-260.579,0-263.75,0C55.686,240.387,44.567,267.958,25,315.956
		c4.274,0,346.249,0,350.523,0c-5.966-18.348-8.096-35.598-7.267-51.832l4.361,10.195l4.794,11.205l-1.771-12.061l-4.521-30.815
		c0.836-3.791,1.877-7.507,3.028-11.18l14.711,10.734l7.489,5.463l-5.247-7.644L377.914,220.814z"/>
	<path fill="#005B9A" d="M449.616,315.956c-15.361-47.262-5.55-87.343,15.813-121.182H475
		c-21.363,33.838-31.175,73.92-15.813,121.182H449.616z"/>
	<path fill="#3677AD" d="M428.978,315.956c-15.361-47.262-5.55-87.343,15.813-121.182h9.57
		c-21.363,33.838-31.175,73.92-15.813,121.182H428.978z"/>
	<path fill="#7C9EC7" d="M408.346,315.956c-15.361-47.262-5.55-87.343,15.813-121.182h9.569
		c-21.363,33.838-31.175,73.92-15.813,121.182H408.346z"/>
	<path fill="#BCCAE1" d="M387.707,315.956c-15.361-47.262-5.55-87.343,15.813-121.182h9.569
		c-21.363,33.838-31.175,73.92-15.813,121.182H387.707z"/>
	<g>
		<polygon fill="#FFFFFF" points="335.621,213.437 349.229,209.603 337.541,191.498 359.14,202.467 363.884,194.279 
			367.861,203.396 385.997,190.153 372.222,212.248 388.679,216.54 374.47,218.59 389.794,240.92 366.802,224.14 374.073,273.693 
			360.329,241.583 367.198,213.703 349.756,217.538 		"/>
	</g>
	<path fill="#E2007A" d="M292.145,298.271"/>
	<path fill="#FFFFFF" d="M303.176,216.181l0.007-0.136h-36.415l-15.331,36.638l-14.134-36.334h-28.146l-0.074,0.458
		c4.429,3.407,7.538,8.703,6.975,17.009c-0.898,13.131-7.26,17.703-12.717,19.958l-2.229,14.339
		c7.513,12.308,19.369,31.59,19.369,31.59h8.758v-28.251h3.704l13.082,25.501h9.117l11.627-34.755l3.834,36.396l24.838-0.304
		C288.868,267.871,292.789,240.598,303.176,216.181z"/>
	<g>
		<path fill="#FFFFFF" d="M92.206,226.079c0,0-6.46-2.075-14.389,18.303c-7.928,20.379-19.338,55.747-19.338,55.747h9.031h16.272
			l3.023-13.367c0,0,13.825-2.168,13.825,4.992c0,7.154,0,8.375,0,8.375h31.472c-6.795-31.584-2.298-59.786,9.025-84.909
			c0-0.012,0-0.025,0-0.043L92.206,226.079z M85.807,237.804c-0.353,0.799-0.601,1.623-0.774,2.447
			c-0.235-1.809-0.031-3.698,0.755-5.488c2.298-5.209,8.381-7.569,13.59-5.277c1.536,0.681,2.793,1.716,3.785,2.93
			c-0.458-0.279-0.911-0.576-1.418-0.799C95.637,228.922,88.502,231.691,85.807,237.804z M104.897,264.643l-13.677,2.775
			l14.99-21.246C106.21,246.172,103.51,256.121,104.897,264.643z"/>
	</g>
	<path fill="#FFFFFF" d="M362.664,217.927l-42.12,7.984c0,0-6.466-2.038-14.395,17.919c-4.764,11.992-7.427,18.564-8.814,21.958
		c-0.241,10.449,0.762,21.319,3.215,32.624h11.57l3.017-13.088c0,0,13.831-2.119,13.831,4.887s0,8.201,0,8.201h27.967
		c-5.841-27.817-2.887-52.997,5.729-75.76C362.664,221.074,362.664,219.569,362.664,217.927z M314.214,237.414
		c-0.353,0.799-0.601,1.623-0.768,2.447c-0.242-1.809-0.037-3.698,0.756-5.488c2.291-5.209,8.374-7.569,13.583-5.277
		c1.542,0.682,2.794,1.716,3.784,2.93c-0.451-0.279-0.904-0.576-1.412-0.799C324.044,228.532,316.908,231.3,314.214,237.414z
		 M331.737,264.643l-13.677,2.775l14.989-21.246C333.05,246.172,330.35,256.121,331.737,264.643z"/>
	<path fill="#FFFFFF" d="M190.599,259.279c-4.02-6.751,18.558,0.143,20.304-25.463c1.747-25.606-31.212-22.887-31.212-22.887
		l-31.107,4.131c-11.322,25.049-15.869,53.164-9.192,84.642h24.306v-24.287h1.722l11.502,24.287h38.403
		C215.325,299.702,194.619,266.031,190.599,259.279z M197.61,217.896c5.63,0.842,9.508,6.089,8.666,11.719
		c-0.248,1.66-0.917,3.146-1.833,4.423c0.155-0.514,0.322-1.028,0.403-1.58c0.991-6.603-3.556-12.76-10.165-13.751
		c-0.861-0.13-1.722-0.149-2.558-0.099C193.801,217.903,195.678,217.605,197.61,217.896z M185.315,236.299
		c-1.834,10.505-16.786,9.316-16.786,9.316l1.381-13.689C169.911,231.926,187.155,225.794,185.315,236.299z"/>
	<g>
		<path fill="#005B9A" d="M350.759,225.311c0.65,0,1.289,0.167,1.883,0.495c0.602,0.322,1.078,0.793,1.419,1.406
			c0.347,0.613,0.521,1.251,0.521,1.926c0,0.663-0.174,1.294-0.508,1.902c-0.341,0.601-0.806,1.071-1.412,1.412
			c-0.602,0.334-1.239,0.508-1.902,0.508c-0.669,0-1.301-0.173-1.907-0.508c-0.601-0.341-1.071-0.812-1.412-1.412
			c-0.335-0.607-0.502-1.239-0.502-1.902c0-0.675,0.167-1.313,0.514-1.926s0.817-1.084,1.419-1.406
			C349.471,225.478,350.103,225.311,350.759,225.311z M350.759,226.061c-0.52,0-1.028,0.13-1.505,0.396
			c-0.483,0.26-0.867,0.638-1.146,1.134c-0.279,0.489-0.415,1.003-0.415,1.548c0,0.533,0.136,1.041,0.408,1.53
			c0.267,0.483,0.645,0.861,1.134,1.14c0.483,0.266,0.991,0.409,1.523,0.409c0.539,0,1.054-0.143,1.536-0.409
			c0.483-0.279,0.855-0.657,1.134-1.14c0.272-0.49,0.409-0.998,0.409-1.53c0-0.545-0.137-1.059-0.422-1.548
			c-0.272-0.496-0.656-0.874-1.14-1.134C351.794,226.19,351.285,226.061,350.759,226.061z M349.031,231.183v-4.058h0.823
			c0.769,0,1.202,0,1.301,0.006c0.272,0.025,0.483,0.081,0.632,0.167c0.148,0.081,0.279,0.21,0.378,0.384
			c0.105,0.18,0.155,0.372,0.155,0.583c0,0.297-0.1,0.545-0.292,0.755c-0.191,0.205-0.451,0.334-0.799,0.384
			c0.118,0.049,0.217,0.099,0.279,0.155c0.068,0.05,0.161,0.155,0.278,0.31c0.031,0.037,0.13,0.205,0.298,0.496l0.477,0.818h-1.016
			l-0.341-0.657c-0.229-0.446-0.421-0.725-0.569-0.842c-0.149-0.112-0.341-0.167-0.564-0.167h-0.217v1.667H349.031z
			 M349.854,228.878h0.335c0.477,0,0.768-0.019,0.886-0.056c0.111-0.037,0.204-0.105,0.272-0.192
			c0.062-0.093,0.099-0.198,0.099-0.316c0-0.111-0.037-0.21-0.099-0.297c-0.063-0.093-0.155-0.155-0.279-0.192
			c-0.117-0.037-0.408-0.056-0.879-0.056h-0.335V228.878z"/>
	</g>
</g>
</svg>
