<?xml version="1.0" encoding="utf-8"?>
<!-- Generator: Adobe Illustrator 16.0.0, SVG Export Plug-In . SVG Version: 6.00 Build 0)  -->
<!DOCTYPE svg PUBLIC "-//W3C//DTD SVG 1.1//EN" "http://www.w3.org/Graphics/SVG/1.1/DTD/svg11.dtd">
<svg version="1.1" id="Calque_2" xmlns="http://www.w3.org/2000/svg" xmlns:xlink="http://www.w3.org/1999/xlink" x="0px" y="0px"
	 width="500px" height="500px" viewBox="0 0 500 500" enable-background="new 0 0 500 500" xml:space="preserve">
<g>
	<path fill="#576468" d="M109.159,280.058c-1.922,2.211-5.555,7.368-13.78,7.368c-8.333,0-14.316-5.895-14.316-12.105
		c0-14.845,21.259-16.003,28.096-16.213v-5.37c0-6.632,0-14.002-6.73-14.002c-7.05,0-7.478,6.107-7.478,10.74H82.238
		c1.176-6.95,4.7-14.318,20.084-14.318c15.17,0,17.521,7.685,17.521,18.108v32.004h-10.684V280.058z M109.159,262.896
		c-3.845,0.107-16.345,0.633-16.345,10.635c0,4.843,2.458,8.211,6.41,8.211c6.197,0,9.935-5.578,9.935-12.738V262.896z"/>
	<path fill="#576468" d="M140.454,251c0-7.37-1.709-9.158-8.44-9.37v-2.105l19.123-3.368v13.896h0.214
		c1.496-4.843,4.807-13.896,13.354-13.896c1.923,0,3.954,0.21,5.77,0.525v10.002c-1.709-0.527-3.632-1.265-5.449-1.265
		c-10.791,0-13.888,8.317-13.888,15.688v25.161h-10.683V251z"/>
	<path fill="#576468" d="M184.461,251c0-7.37-1.709-9.158-8.227-9.37v-2.105l19.123-3.368v12.528h0.213
		c1.816-3.685,6.731-12.528,16.345-12.528c9.936,0,12.393,7.053,13.141,11.791h0.214c2.243-4.105,6.303-11.791,15.917-11.791
		c13.568,0,13.568,12.211,13.568,19.686v30.426h-10.683v-28.741c0-6.527,0-14.212-7.158-14.212
		c-8.119,0-11.965,11.055-11.965,18.633v24.32h-10.683v-27.268c0-8.316,0-15.686-7.158-15.686c-7.371,0-11.965,9.791-11.965,17.265
		v25.688h-10.683V251z"/>
	<path fill="#576468" d="M298.221,280.058c-1.922,2.211-5.554,7.368-13.779,7.368c-8.335,0-14.316-5.895-14.316-12.105
		c0-14.845,21.258-16.003,28.096-16.213v-5.37c0-6.632,0-14.002-6.729-14.002c-7.051,0-7.479,6.107-7.479,10.74H271.3
		c1.175-6.95,4.702-14.318,20.083-14.318c15.172,0,17.521,7.685,17.521,18.108v32.004h-10.684V280.058z M298.221,262.896
		c-3.845,0.107-16.343,0.633-16.343,10.635c0,4.843,2.456,8.211,6.409,8.211c6.195,0,9.934-5.578,9.934-12.738V262.896z"/>
	<path fill="#7AB51D" d="M363.704,284.9c-3.847,1.368-6.305,2.525-15.172,2.525c-14.958,0-23.821-10.422-23.821-26.318
		c0-14.423,5.981-24.951,21.258-24.951c11.858,0,19.656,5.896,19.656,14.423H353.02c0-4.317-1.07-10.845-7.693-10.845
		c-7.265,0-8.867,7.792-8.867,17.898c0,15.58,7.265,24.108,16.988,24.108c3.31,0,7.688-0.631,10.256-1.473V284.9z"/>
	<path fill="#576468" d="M415.721,284.584c-2.03,0.737-7.692,2.842-15.063,2.842c-16.347,0-26.175-9.79-26.175-27.371
		c0-16.635,8.121-23.898,22.437-23.898c18.268,0,19.762,13.053,19.762,20.108h-30.444c0,10.528,4.379,25.477,19.441,25.477
		c4.488,0,8.226-1.053,10.042-1.79V284.584z M405.999,252.053c0-2.42-0.214-12.318-9.506-12.318
		c-8.015,0-10.255,8.317-10.255,12.318H405.999z"/>
	<path fill="#576468" d="M432.274,226.892c0-7.475-1.816-9.265-8.121-9.58v-2.105l18.805-2.632v73.695h-10.684V226.892z"/>
	<path fill="#576468" d="M464.317,226.892c0-7.475-1.816-9.265-8.12-9.58v-2.105L475,212.574v73.695h-10.684V226.892z"/>
	<g>
		<path fill="#576468" d="M47.779,214.283c-0.324,0-0.639,0.036-0.96,0.049c12.814,0.508,23.056,11.029,23.056,23.967
			c0,12.941-10.242,23.461-23.056,23.968c0.321,0.013,0.636,0.048,0.96,0.048c13.263,0,24.016-10.753,24.016-24.016
			S61.042,214.283,47.779,214.283z"/>
		<path fill="#576468" d="M26.771,237.457c0-11.935,9.448-21.641,21.271-22.11c-0.296-0.011-0.587-0.045-0.886-0.045
			c-12.235,0-22.155,9.92-22.155,22.155s9.92,22.155,22.155,22.155c0.299,0,0.59-0.032,0.886-0.045
			C36.22,259.1,26.771,249.394,26.771,237.457z"/>
		<path fill="#576468" d="M45.536,235.783c-6.884,0-12.511-4.514-13.018-10.241c-0.024,0.278-0.05,0.556-0.05,0.837
			c0,6.119,5.85,11.078,13.067,11.078c7.218,0,13.068-4.959,13.068-11.078c0-0.281-0.025-0.559-0.05-0.837
			C58.047,231.269,52.42,235.783,45.536,235.783z"/>
		<path fill="#576468" d="M47.735,246.998c-10.396,0-18.892-6.606-19.657-14.988c-0.037,0.405-0.075,0.811-0.075,1.225
			c0,8.954,8.833,16.213,19.732,16.213s19.733-7.259,19.733-16.213c0-0.415-0.039-0.82-0.075-1.225
			C66.628,240.392,58.132,246.998,47.735,246.998z"/>
		<path fill="#7AB51D" d="M56.155,221.094c0,0-0.187-0.054-0.403-0.09c-0.216-0.06-0.619-0.081-1.082-0.129
			c-0.47,0.024-1.034-0.038-1.632,0.067c-0.606,0.055-1.25,0.16-1.884,0.343c-0.652,0.128-1.27,0.368-1.852,0.601
			c-0.595,0.208-1.136,0.441-1.57,0.702c-0.898,0.482-1.497,0.803-1.497,0.803s0.536-0.424,1.339-1.058
			c0.392-0.34,0.893-0.672,1.458-0.991c0.553-0.345,1.151-0.708,1.806-0.963c0.633-0.313,1.299-0.549,1.948-0.726
			c0.634-0.227,1.272-0.279,1.808-0.397c0.554-0.043,1-0.102,1.375-0.077c0.375,0.006,0.521,0.024,0.521,0.024l0.056,0.006
			c0.529,0.069,0.902,0.551,0.835,1.081s-0.552,0.902-1.081,0.835C56.253,221.118,56.2,221.107,56.155,221.094z"/>
		<path fill="#7AB51D" d="M46.235,224.351c0,0,1.537,1.67,3.391,4.524c0.932,1.42,1.936,3.137,2.88,5.051
			c0.479,0.951,0.898,1.974,1.347,3.002c0.364,1.061,0.831,2.109,1.122,3.216c0.314,1.099,0.659,2.195,0.844,3.312
			c0.111,0.553,0.221,1.105,0.33,1.647c0.063,0.551,0.125,1.098,0.186,1.634c0.058,0.537,0.114,1.065,0.17,1.583
			c0.004,0.521,0.009,1.032,0.013,1.527c0.017,0.996,0.03,1.938-0.095,2.801c-0.092,0.867-0.175,1.662-0.25,2.366
			c-0.151,0.692-0.282,1.296-0.391,1.793c-0.219,0.999-0.344,1.569-0.344,1.569c-0.114,0.518-0.625,0.846-1.145,0.731
			c-0.518-0.114-0.846-0.627-0.732-1.145c0.003-0.015,0.007-0.03,0.011-0.045l0.031-0.109c0,0,0.144-0.526,0.396-1.448
			c0.127-0.463,0.282-1.024,0.459-1.668c0.105-0.66,0.223-1.405,0.352-2.218c0.165-0.811,0.198-1.704,0.231-2.651
			c0.022-0.473,0.044-0.961,0.067-1.458c-0.027-0.497-0.055-1.008-0.083-1.523c-0.031-0.52-0.062-1.047-0.094-1.58
			c-0.078-0.529-0.156-1.065-0.235-1.606c-0.12-1.09-0.399-2.169-0.647-3.257c-0.226-1.094-0.628-2.141-0.93-3.201
			c-0.386-1.03-0.745-2.059-1.167-3.021c-0.829-1.935-1.732-3.687-2.583-5.146C47.681,226.102,46.235,224.351,46.235,224.351z"/>
		<path fill="#7AB51D" d="M42.993,224.351c0,0-1.415,0.683-3.245,2.124c-0.927,0.7-1.927,1.619-2.932,2.655
			c-0.475,0.544-1.002,1.072-1.448,1.685c-0.479,0.583-0.926,1.205-1.331,1.854c-0.445,0.623-0.785,1.308-1.148,1.962
			c-0.389,0.64-0.617,1.351-0.921,1.991c-0.31,0.638-0.459,1.319-0.68,1.927c-0.227,0.608-0.338,1.214-0.462,1.766
			c-0.109,0.556-0.264,1.049-0.305,1.511c-0.054,0.454-0.102,0.852-0.14,1.178c-0.078,0.653-0.123,1.024-0.123,1.024l-0.011,0.092
			c-0.063,0.527-0.542,0.904-1.069,0.841c-0.527-0.062-0.904-0.542-0.841-1.07c0.003-0.022,0.007-0.049,0.011-0.071
			c0,0,0.078-0.396,0.215-1.09c0.068-0.345,0.152-0.766,0.248-1.246c0.082-0.484,0.286-1.007,0.449-1.587
			c0.177-0.576,0.346-1.206,0.636-1.836c0.285-0.631,0.5-1.329,0.876-1.981c0.372-0.653,0.67-1.372,1.127-2.013
			c0.433-0.657,0.843-1.34,1.354-1.952c0.472-0.64,0.983-1.244,1.522-1.809c0.506-0.593,1.089-1.094,1.616-1.61
			c1.107-0.979,2.191-1.83,3.181-2.463C41.531,224.921,42.993,224.351,42.993,224.351z"/>
		<path fill="#7AB51D" d="M43.593,223.021c0,0-0.382-0.306-1.022-0.64c-0.306-0.184-0.705-0.33-1.1-0.518
			c-0.429-0.124-0.855-0.317-1.314-0.392c-0.457-0.073-0.893-0.205-1.322-0.184c-0.423,0.01-0.803-0.073-1.132,0.015
			c-0.641,0.096-1.068,0.162-1.068,0.162l-0.153,0.022c-0.532,0.081-1.029-0.285-1.11-0.818c-0.081-0.531,0.285-1.028,0.818-1.109
			c0.079-0.011,0.162-0.013,0.238-0.005c0,0,0.538,0.05,1.345,0.127c0.399,0.007,0.841,0.203,1.314,0.317
			c0.479,0.104,0.938,0.368,1.403,0.572c0.465,0.207,0.873,0.523,1.272,0.76c0.366,0.298,0.722,0.542,0.984,0.807
			C43.298,222.631,43.593,223.021,43.593,223.021z"/>
		<path fill="#576468" d="M67.188,243.626c-0.069-0.43-0.105-0.957-0.239-1.542c-0.173-0.576-0.367-1.227-0.58-1.937
			c-0.195-0.713-0.613-1.405-0.944-2.174c-0.313-0.785-0.883-1.477-1.34-2.259c-0.483-0.769-1.132-1.452-1.708-2.203
			c-0.648-0.687-1.311-1.381-2.008-2.032c-0.733-0.611-1.417-1.279-2.186-1.814c-0.741-0.572-1.486-1.109-2.239-1.58
			c-1.477-0.985-2.937-1.764-4.192-2.411c-1.313-0.653-2.417-1.125-3.183-1.433c0.037-0.141,0.067-0.284,0.067-0.43
			c0-1.334-1.557-2.417-3.546-2.556c0.186-0.447,0.419-0.981,0.678-1.503c0.285-0.63,0.605-1.225,0.887-1.61
			c0.256-0.399,0.427-0.664,0.427-0.664l0.095-0.146c0.057-0.09,0.101-0.189,0.126-0.3c0.127-0.529-0.199-1.06-0.728-1.188
			c-0.529-0.126-1.061,0.201-1.188,0.73c0,0-0.09,0.373-0.224,0.934c-0.158,0.557-0.263,1.274-0.32,1.985
			c-0.072,0.625-0.113,1.238-0.136,1.737c-0.011,0-0.022-0.002-0.034-0.002c-1.739,0-3.2,0.734-3.734,1.749
			c-0.142-0.026-0.269-0.05-0.426-0.083c-0.593-0.022-1.305-0.165-2.057-0.077c-0.381,0.022-0.773,0.047-1.172,0.071
			c-0.393,0.077-0.79,0.156-1.188,0.234c-0.395,0.094-0.814,0.135-1.188,0.278c-0.378,0.135-0.75,0.27-1.111,0.399
			c-0.363,0.131-0.714,0.261-1.047,0.381c-0.311,0.164-0.605,0.317-0.876,0.46c-1.091,0.585-1.818,0.976-1.818,0.976
			c-0.041,0.021-0.084,0.049-0.123,0.077c-0.427,0.321-0.514,0.925-0.194,1.353c0.32,0.428,0.926,0.514,1.353,0.195l0.1-0.075
			c0,0,0.604-0.452,1.51-1.131c0.23-0.171,0.479-0.354,0.742-0.55c0.285-0.156,0.585-0.319,0.896-0.49
			c0.313-0.171,0.638-0.347,0.967-0.529c0.33-0.188,0.7-0.274,1.054-0.42c0.361-0.131,0.721-0.263,1.077-0.392
			c0.37-0.079,0.732-0.158,1.084-0.233c0.706-0.195,1.386-0.159,1.97-0.227c0.123,0.006,0.223,0.009,0.337,0.013
			c-0.071,0.193-0.119,0.394-0.119,0.603c0,1.11,1.083,2.049,2.593,2.413c-0.264,0.822-0.579,1.873-0.899,3.122
			c-0.795,3.038-1.612,7.171-1.891,11.38c-0.076,1.053-0.144,2.105-0.139,3.145c-0.036,1.04-0.021,2.064,0.038,3.055
			c0.02,0.994,0.093,1.951,0.203,2.857c0.089,0.908,0.169,1.77,0.327,2.554c0.136,0.788,0.261,1.509,0.372,2.15
			c0.157,0.63,0.294,1.182,0.407,1.634c0.228,0.91,0.358,1.428,0.358,1.428c0.003,0.018,0.009,0.036,0.014,0.053
			c0.159,0.507,0.697,0.79,1.204,0.633c0.508-0.158,0.79-0.696,0.632-1.205l-0.022-0.071c0,0-0.151-0.485-0.417-1.338
			c-0.133-0.428-0.294-0.945-0.48-1.54c-0.142-0.608-0.3-1.293-0.475-2.041c-0.196-0.745-0.319-1.571-0.456-2.443
			c-0.158-0.871-0.283-1.795-0.357-2.76c-0.111-0.962-0.184-1.958-0.208-2.978c-0.062-1.017-0.056-2.051-0.041-3.088
			c0.036-4.148,0.607-8.291,1.225-11.355c0.248-1.265,0.502-2.333,0.717-3.167c0.398,0.088,0.815,0.146,1.258,0.146
			c1.92,0,3.52-0.891,3.884-2.071c0.742,0.354,1.804,0.893,3.053,1.615c1.204,0.723,2.598,1.585,3.987,2.646
			c0.709,0.511,1.405,1.084,2.092,1.687c0.717,0.57,1.339,1.263,2.009,1.897c0.633,0.672,1.225,1.381,1.801,2.073
			c0.5,0.75,1.076,1.434,1.48,2.184c0.378,0.764,0.874,1.435,1.111,2.178c0.255,0.73,0.604,1.381,0.736,2.042
			c0.151,0.651,0.29,1.25,0.412,1.779c0.087,0.533,0.083,1.009,0.122,1.396c0.056,0.771,0.088,1.212,0.088,1.212l0.011,0.152
			c0.002,0.017,0.004,0.036,0.006,0.053c0.07,0.525,0.554,0.895,1.079,0.825c0.526-0.069,0.895-0.553,0.825-1.079
			C67.37,244.981,67.304,244.487,67.188,243.626z"/>
	</g>
</g>
</svg>
