<?xml version="1.0" encoding="utf-8"?>
<!-- Generator: Adobe Illustrator 16.0.0, SVG Export Plug-In . SVG Version: 6.00 Build 0)  -->
<!DOCTYPE svg PUBLIC "-//W3C//DTD SVG 1.1//EN" "http://www.w3.org/Graphics/SVG/1.1/DTD/svg11.dtd">
<svg version="1.1" id="Calque_1" xmlns="http://www.w3.org/2000/svg" xmlns:xlink="http://www.w3.org/1999/xlink" x="0px" y="0px"
	 width="500px" height="500px" viewBox="0 0 500 500" enable-background="new 0 0 500 500" xml:space="preserve">
<g>
	<path fill="#004178" d="M93.864,233.683h-9.266c-3.082,0-3.016,2.982-3.016,2.982l-0.1,1.163c0,0-6.07-8.733-20.857-8.733
		c0,0-15.613-0.662-26.817,12.33c0,0-8.808,10.134-8.808,22.646c0,12.499,9.475,34.67,35.894,34.67c0,0,12.415-0.098,20.646-8.903
		v7.13h15.333v-60.301C96.874,236.665,96.954,233.683,93.864,233.683z M61.561,284.407c-11.319,0-20.487-9.134-20.487-20.401
		s9.167-20.411,20.487-20.411c11.312,0,20.483,9.144,20.483,20.411S72.873,284.407,61.561,284.407z"/>
	<path fill="#004178" d="M136.579,229.05c-8.475,0-12.782,7.405-12.782,7.405s0.067-2.981-3.01-2.981h-8.405
		c-3.08,0-3.01,2.981-3.01,2.981l-0.145,60.511h15.288v-43.257c0-8.947,8.974-9.523,8.974-9.523c3.23,0,5.886,2.278,5.886,2.278
		l5.53-15.068C140.599,228.836,136.579,229.05,136.579,229.05z"/>
	<path fill="#004178" d="M188.48,229.05c0,0-13.692-0.235-19.914,9.052l0.06-1.476c0,0,0.077-2.974-3.014-2.974h-9.474
		c-3.093,0-3.015,2.974-3.015,2.974v60.359h15.306V259.23c0,0,0.099-14.969,15.601-14.969c0,0,15.27-0.757,15.27,14.824v37.9h15.422
		v-41.431c0,0-0.036-9.58-6.577-17.265C208.146,238.291,201.182,229.05,188.48,229.05z"/>
	<path fill="#004178" d="M261.051,228.836c-19.862,0-37.176,15.653-37.176,34.958c0,19.301,16.646,34.945,37.176,34.945
		c20.536,0,37.18-15.645,37.18-34.945C298.231,244.489,280.913,228.836,261.051,228.836z M261.125,284.407
		c-11.528,0-20.864-9.134-20.864-20.401s9.336-20.411,20.864-20.411c11.522,0,20.863,9.144,20.863,20.411
		S272.647,284.407,261.125,284.407z"/>
	<path fill="#004178" d="M366.216,233.435h-9.292c-3.083,0-2.986,2.982-2.986,2.982v23.839v8.664
		c0,8.122-6.896,14.705-15.498,14.705c-8.6,0-15.507-6.583-15.507-14.705v-8.664v-23.839c0,0,0.103-2.982-2.984-2.982h-9.286
		c-3.097,0-3.008,2.982-3.008,2.982v23.904v8.645c0,17.928,13.8,29.729,30.785,29.729c16.986,0,30.784-11.802,30.784-29.729v-8.645
		v-23.904C369.224,236.417,369.307,233.435,366.216,233.435z"/>
	<path fill="#004178" d="M391.47,201.251h-9.29c-3.089,0-3.008,2.985-3.008,2.985v92.649h15.29v-92.649
		C394.462,204.236,394.559,201.251,391.47,201.251z"/>
	<path fill="#004178" d="M472.01,201.251h-9.296c-3.086,0-2.994,2.987-2.994,2.987v34.132c-7.758-10.216-21.894-9.534-21.894-9.534
		c-18.631,0-34.889,15.655-34.889,34.954c0,19.305,15.624,34.949,34.889,34.949c0,0,13.172,0.688,21.894-9.301v7.446H475v-92.647
		C475,204.238,475.103,201.251,472.01,201.251z M439.744,284.407c-11.28,0-20.41-9.134-20.41-20.401s9.13-20.411,20.41-20.411
		c11.271,0,20.401,9.144,20.401,20.411S451.015,284.407,439.744,284.407z"/>
</g>
</svg>
