<?xml version="1.0" encoding="utf-8"?>
<!-- Generator: Adobe Illustrator 16.0.0, SVG Export Plug-In . SVG Version: 6.00 Build 0)  -->
<!DOCTYPE svg PUBLIC "-//W3C//DTD SVG 1.1//EN" "http://www.w3.org/Graphics/SVG/1.1/DTD/svg11.dtd">
<svg version="1.1" id="Calque_1" xmlns="http://www.w3.org/2000/svg" xmlns:xlink="http://www.w3.org/1999/xlink" x="0px" y="0px"
	 width="500px" height="500px" viewBox="0 0 500 500" enable-background="new 0 0 500 500" xml:space="preserve">
<g>
	<rect x="25" y="80.361" fill="#0072BA" width="450" height="196.541"/>
	<rect x="25" y="363.619" fill="#0072BA" width="450" height="56.021"/>
	<rect x="25" y="327.144" fill="#0072BA" width="450" height="20.461"/>
	<rect x="25" y="293.356" fill="#0072BA" width="450" height="20.449"/>
	<polygon fill="#FFED00" points="64.792,188.859 46.149,188.859 73.239,101.336 92.889,101.702 119.481,188.859 100.595,188.859 
		95.118,174.176 70.251,174.176 	"/>
	<polygon fill="#0072BA" points="76.719,155.03 83.423,131.165 90.133,155.03 	"/>
	<polygon fill="#FFED00" points="127.934,101.702 105.806,101.702 131.402,145.089 131.402,188.343 149.315,188.343 
		149.315,146.333 175.664,101.702 153.292,101.702 140.851,124.704 	"/>
	<path fill="#FFED00" d="M185.61,101.702v87.157h18.394v-31.583l18.15,31.583h21.381l-20.403-35.815c0,0,14.665-2.235,14.665-26.598
		c0-24.357-15.644-24.745-15.644-24.745H185.61z"/>
	<path fill="#0072BA" d="M204.994,118.989v21.625c0,0,13.42,0.498,13.42-10.931C218.414,118.248,204.994,118.989,204.994,118.989z"
		/>
	<polygon fill="#FFED00" points="245.765,101.336 245.765,119.979 259.179,119.979 259.179,188.343 277.087,188.343 
		277.087,120.732 292.244,120.732 292.244,101.702 	"/>
	<path fill="#FFED00" d="M375.268,143.844c0,25.81-17.357,46.74-38.779,46.74c-21.398,0-38.768-20.93-38.768-46.74
		c0-25.811,17.369-46.734,38.768-46.734C357.91,97.11,375.268,118.034,375.268,143.844z"/>
	<path fill="#0072BA" d="M356.139,143.844c0,13.322-9.078,24.114-20.265,24.114c-11.196,0-20.274-10.792-20.274-24.114
		c0-13.311,9.078-24.114,20.274-24.114C347.061,119.73,356.139,130.534,356.139,143.844z"/>
	<polygon fill="#FFED00" points="402.374,188.343 383.986,188.343 383.986,101.702 402.629,101.702 436.673,153.044 
		436.673,101.702 454.829,101.702 454.829,188.859 437.68,188.859 403.115,135.889 	"/>
</g>
</svg>
