<?xml version="1.0" encoding="utf-8"?>
<!-- Generator: Adobe Illustrator 16.0.0, SVG Export Plug-In . SVG Version: 6.00 Build 0)  -->
<!DOCTYPE svg PUBLIC "-//W3C//DTD SVG 1.1//EN" "http://www.w3.org/Graphics/SVG/1.1/DTD/svg11.dtd">
<svg version="1.1" id="Calque_2" xmlns="http://www.w3.org/2000/svg" xmlns:xlink="http://www.w3.org/1999/xlink" x="0px" y="0px"
	 width="500px" height="500px" viewBox="0 0 500 500" enable-background="new 0 0 500 500" xml:space="preserve">
<g>
	<rect x="25" y="57.962" fill="#009EE0" width="450" height="182.813"/>
	<rect x="25" y="259.231" fill="#E2001A" width="450" height="182.807"/>
	<path fill="#FFFFFF" d="M335.697,75.101v97.533c0,28.777,23.545,52.32,52.316,52.32h25.446c28.772,0,52.317-23.543,52.317-52.32
		V75.101l-32.084-0.054v92.1c0,17.533-14.348,31.88-31.883,31.88h-2.147c-17.535,0-31.883-14.348-31.883-31.88v-92.1L335.697,75.101
		z"/>
	<path fill="#FFFFFF" d="M335.697,277.251v97.53c0,28.777,23.545,52.322,52.316,52.322h25.446c28.772,0,52.317-23.545,52.317-52.322
		v-97.53l-32.084-0.057v92.097c0,17.536-14.348,31.883-31.883,31.883h-2.147c-17.535,0-31.883-14.347-31.883-31.883v-92.097
		L335.697,277.251z"/>
	<path fill="#FFFFFF" d="M216.163,189.028h57.349l10.8,32.849h36.445L268.018,75.101h-43.612l-52.737,146.776h33.696
		L216.163,189.028z M246.213,103.664l19.719,63.611h-19.719h-19.719L246.213,103.664z"/>
	<path fill="#FFFFFF" d="M129.218,141.794c12.112-5.369,20.587-17.62,20.587-31.896c0-19.217-15.347-34.798-34.277-34.798H38.184
		v146.776h77.344c22.453,0,40.65-18.476,40.65-41.269C156.178,162.702,144.923,147.505,129.218,141.794z M69.824,97.731h27.356
		c10.102,0,18.292,8.191,18.292,18.292s-8.19,18.292-18.292,18.292H69.824V97.731z M101.123,197.927H69.824v-41.858h31.299
		c11.559,0,20.929,9.373,20.929,20.929C122.052,188.555,112.682,197.927,101.123,197.927z"/>
	<path fill="#FFFFFF" d="M246.218,274.171c-38.259,0-69.269,34.233-69.269,76.463c0,42.229,31.01,76.47,69.269,76.47
		c38.248,0,69.266-34.241,69.266-76.47C315.483,308.404,284.466,274.171,246.218,274.171z M246.218,403.811
		c-20.782,0-37.628-23.813-37.628-53.177s16.846-53.17,37.628-53.17c20.774,0,37.625,23.806,37.625,53.17
		S266.992,403.811,246.218,403.811z"/>
	<path fill="#FFFFFF" d="M103.886,276.787c-0.224,0-0.438,0.041-0.662,0.047v-0.047h-65.04v150.729h65.04v-0.458
		c0.225,0.005,0.438,0.046,0.662,0.046c30.943,0,56.028-33.654,56.028-75.162S134.829,276.787,103.886,276.787z M99.05,398.403
		v0.134H68.946v-98.439H99.05v0.135c15.056,1.38,27.026,22.793,27.026,49.088C126.076,375.61,114.105,397.023,99.05,398.403z"/>
</g>
</svg>
