<?xml version="1.0" encoding="utf-8"?>
<!-- Generator: Adobe Illustrator 16.0.0, SVG Export Plug-In . SVG Version: 6.00 Build 0)  -->
<!DOCTYPE svg PUBLIC "-//W3C//DTD SVG 1.1//EN" "http://www.w3.org/Graphics/SVG/1.1/DTD/svg11.dtd">
<svg version="1.1" id="Calque_1" xmlns="http://www.w3.org/2000/svg" xmlns:xlink="http://www.w3.org/1999/xlink" x="0px" y="0px"
	 width="500px" height="500px" viewBox="0 0 500 500" enable-background="new 0 0 500 500" xml:space="preserve">
<g>
	<path fill="#E42426" d="M94.068,379.458h-5.26v20.516h5.26c6.484,0,9.793-3.779,9.793-10.264
		C103.861,383.238,100.552,379.458,94.068,379.458z"/>
	<path fill="#E42426" d="M100.794,342.745c0-5.758-2.691-8.986-7.83-8.986h-4.157v17.986h4.157
		C98.104,351.745,100.794,348.502,100.794,342.745z"/>
	<path fill="#E42426" d="M25,25v450h450V25H25z M101.05,431.817H59.333v-128.65h41.838c18.35,0,28.493,13.856,28.493,35.085
		c0,14.031-5.004,23.758-13.574,26.637c11.865,3.592,17.623,13.668,17.623,30.579C133.713,419.225,122.696,431.817,101.05,431.817z
		 M160.444,434.521c-12.229,0-21.242-9.727-21.242-21.054c0-11.342,9.175-21.055,21.242-21.055c12.081,0,21.242,9.902,21.242,21.055
		S172.673,434.521,160.444,434.521z M246.53,431.817h-59.207v-128.65h58.466v34.91h-27.646v12.417h25.076v32.919h-25.076v13.494
		h28.386V431.817z M277.175,434.521c-12.229,0-21.242-9.727-21.242-21.054c0-11.342,9.175-21.055,21.242-21.055
		c12.081,0,21.242,9.902,21.242,21.055S289.404,434.521,277.175,434.521z M387.045,408.96c-8.557,16.561-22.13,26.273-37.789,26.273
		c-13.346,0-24.848-6.659-33.525-19.251c-8.69-12.418-13.21-29.152-13.21-48.216c0-19.076,4.641-35.812,13.21-48.229
		c8.678-12.592,20.301-19.251,33.525-19.251c17.852,0,32.166,11.879,40.978,34.009l-28.022,15.296
		c-3.175-7.197-7.09-10.614-12.471-10.614c-8.934,0-15.297,10.789-15.297,28.789c0,18.161,6,28.601,16.023,28.601
		c6.121,0,10.035-3.955,10.775-10.613h-13.709v-30.229h48.323c0.242,3.242,0.242,6.484,0.242,9.538
		C396.099,382.7,393.167,397.094,387.045,408.96z M419.426,434.521c-12.229,0-21.242-9.727-21.242-21.054
		c0-11.342,9.162-21.055,21.242-21.055c12.067,0,21.242,9.902,21.242,21.055S431.641,434.521,419.426,434.521z"/>
</g>
</svg>
