<svg xmlns="http://www.w3.org/2000/svg" viewBox="0 0 300 132.9" enable-background="new 0 0 300 132.9"><path fill="#E30613" d="M299.2 54l-31.3 72.5c-1.6 3.8-5.4 6.5-9.8 6.5h-216.8c-4.4 0-8.2-2.7-9.8-6.5l-30.7-72.5c-.5-1.3-.8-2.7-.8-4.1 0-3.4 1.6-6.4 4-8.3 11.8-9.3 56.7-39 140.9-41.5 2.9-.1 5.9-.1 8.8-.1 80.4 0 129.6 32.1 142.2 41.6 2.5 1.9 4.1 5 4.1 8.4 0 1.4-.8 4-.8 4"/><path fill="#fff" d="M225.4 115.9c-13.8 0-23-3.3-30.7-11.1l-.6-.6 11.7-11.7.6.6c4.5 4.5 10.8 6.7 19.2 6.7 6.2 0 13.6-1.6 13.6-9.2 0-2.7-.8-4.9-2.2-6.3-1.3-1.2-2.8-2-6.8-2.6l-9.9-1.4c-7.3-1.1-12.6-3.4-16.4-7-4.2-4.2-6.2-9.6-6.2-16.8 0-7.6 2.8-14 7.9-18.6 5.3-4.7 12.8-7.2 21.6-7.2 11.8 0 20.1 3 27.2 9.8l.7.6-11.5 11.3-.6-.6c-5-4.7-11-5.4-16.2-5.4-8.7 0-11.8 4.9-11.8 9.5 0 2.1.8 3.9 2.1 5.2 1.6 1.5 4.2 2.6 7.1 3l9.7 1.4c7.4 1 12.4 3 16.2 6.6 4.4 4.2 6.6 10.3 6.6 18.1 0 15.3-12.6 25.7-31.3 25.7"/><path fill="#fff" d="M192.9 115.2h-20.9l-.2-.5-20.5-36.2-9.6 11.4v25.3h-17.8v-84h17.8v34.1l27.6-34.1h21.9l-28 33.7zM82.5 100h-16.7v-20.2h16.7c7.3 0 10.7 4.5 10.7 10 .1 5.6-3.4 10.2-10.7 10.2m-16.7-53.6h15.7c6.8 0 10.6 3.8 10.6 9.5s-3.8 9.5-10.6 9.5h-15.7v-19zm34.2 25.7c4.6-2.9 9.1-9.1 9.1-16.9 0-14.8-10.1-24-26.3-24h-34v84h35.3c16.1 0 26.1-9.4 26.1-24.6 0-10.6-5.8-16-10.2-18.5"/></svg>