<?xml version="1.0" encoding="utf-8"?>
<!-- Generator: Adobe Illustrator 16.0.0, SVG Export Plug-In . SVG Version: 6.00 Build 0)  -->
<!DOCTYPE svg PUBLIC "-//W3C//DTD SVG 1.1//EN" "http://www.w3.org/Graphics/SVG/1.1/DTD/svg11.dtd">
<svg version="1.1" id="Calque_1" xmlns="http://www.w3.org/2000/svg" xmlns:xlink="http://www.w3.org/1999/xlink" x="0px" y="0px"
	 width="500px" height="500px" viewBox="0 0 500 500" enable-background="new 0 0 500 500" xml:space="preserve">
<g>
	<path d="M470.242,236.774c-2.8,0-4.789-2.097-4.789-4.864c0-2.929,2.209-4.862,4.789-4.862c2.542,0,4.758,1.933,4.758,4.862
		C475,234.837,472.784,236.774,470.242,236.774 M470.242,227.892c-2.112,0-3.748,1.651-3.748,4.019c0,2.209,1.427,4.019,3.748,4.019
		c2.077,0,3.713-1.638,3.713-4.019C473.955,229.542,472.319,227.892,470.242,227.892z M469.276,234.69h-0.884v-5.381h2.039
		c1.306,0,1.967,0.453,1.967,1.547c0,0.974-0.595,1.377-1.409,1.467l1.513,2.366H471.5l-1.39-2.299h-0.834V234.69z M470.264,231.639
		c0.665,0,1.249-0.067,1.249-0.847c0-0.653-0.638-0.728-1.17-0.728h-1.066v1.575H470.264z"/>
	<polyline points="339.278,264.527 327.731,264.527 327.731,253.968 338.716,253.968 338.716,244.856 327.731,244.856 
		327.731,235.591 339.278,235.591 339.278,225.993 315.974,225.993 315.974,274.074 339.278,274.074 339.278,264.527 	"/>
	<polyline points="431.854,264.527 420.312,264.527 420.312,253.968 431.296,253.968 431.296,244.856 420.312,244.856 
		420.312,235.591 431.854,235.591 431.854,225.993 408.554,225.993 408.554,274.074 431.854,274.074 431.854,264.527 	"/>
	<path d="M157.004,234.4c0,0,0.056-0.229,0.25-0.229c0.198,0,0.259,0.229,0.259,0.229l2.789,22.386h-6L157.004,234.4
		 M153.186,265.527l8.172,0.011l1.107,8.481l11.396,0.011l-6.918-48.022h-18.981l-5.542,38.597h-7.737v-38.597h-11.813v48.022
		h29.259L153.186,265.527z"/>
	<path d="M356.529,275.173c9.935,0.02,14.622-4.679,14.622-12.133v-9.679h-11.772v9.256c0,2.153-1.117,3.369-2.946,3.369
		c-1.832,0-2.941-0.871-2.941-2.895v-26.72c0-1.715,1.109-2.894,2.941-2.894c1.898,0,2.946,1.084,2.946,2.894v8.21h11.772v-8.18
		c0-8.006-4.045-11.575-14.437-11.575c-9.39,0-15.01,4.493-15.01,11.575v26.412C341.705,271.19,346.672,275.153,356.529,275.173"/>
	<path d="M189.558,275.173c9.937,0.02,14.624-4.679,14.624-12.133v-9.679h-11.771v9.256c0,2.153-1.121,3.369-2.948,3.369
		c-1.827,0-2.943-0.871-2.943-2.895v-26.72c0-1.715,1.116-2.894,2.943-2.894c1.901,0,2.948,1.084,2.948,2.894v8.21h11.771v-8.18
		c0-8.006-4.041-11.575-14.435-11.575c-9.392,0-15.008,4.493-15.008,11.575v26.412C174.74,271.19,179.703,275.153,189.558,275.173"
		/>
	<path d="M108.783,261.529c0,2.577-1.578,4.079-4.291,4.079c-1.66,0-3.433,0-3.433,0v-12.376c0,0,2.229,0,3.98,0
		c2.304,0,3.743,1.487,3.743,4.061C108.783,259.732,108.783,259.318,108.783,261.529 M101.06,234.402h3.388
		c2.435,0,3.64,1.388,3.64,4.092c0,2.227,0,0.808,0,2.646c0,2.58-1.58,3.946-4.01,3.946c-1.448,0-3.017,0-3.017,0V234.402z
		 M120.463,261.806c0-1.73,0-1.526,0-4.563c0-4.204-2.276-6.396-3.97-7.312c-0.883-0.47-2.045-0.78-2.045-0.78
		s0.873-0.383,1.95-1.338c1.582-1.4,3.2-3.129,3.2-8.441c0-2.623,0-3.674,0-3.674c0-5.987-3.623-9.67-11.96-9.67
		c-5.291,0-18.311,0-18.311,0v48.025c0,0,13.115,0,18.565,0C115.084,274.053,120.463,270.846,120.463,261.806z"/>
	<path d="M445.652,234.025h3.371c1.543,0,3.068,0.905,3.068,3.525c0,2.58,0,3.162,0,4.681c0,2.114-1.28,3.554-3.252,3.554
		c-1.98,0-3.188,0-3.188,0V234.025 M445.652,253.849c0,0,1.643,0,3.302,0c1.653,0,3.575,0.78,3.575,4.295c0,3.521,0,15.906,0,15.906
		h11.741v-15.79c0-3.002-0.442-5.213-2.487-6.842c-1.179-0.938-2.691-1.489-2.691-1.489s0.761-0.336,1.599-1.088
		c1.431-1.293,2.75-3.254,2.75-6.804c0-3.914,0-5.84,0-5.84c0-6.075-4.215-10.211-11.797-10.211c-7.243,0-17.563,0-17.563,0v48.063
		h11.572V253.849z"/>
	<path d="M301.016,260.633c0,2.422-1.146,4.92-4.388,4.92h-3.081v-30.97h3.22c3.407,0,4.249,2.084,4.249,5.286
		C301.016,242.108,301.016,260.633,301.016,260.633 M312.754,260.42c0-7.543,0-14.599,0-21.956c0-8.331-4.769-12.505-13.643-12.505
		c-7.905,0-17.275,0.009-17.275,0.009v48.083c0,0,9.508,0,17.044,0C307.158,274.05,312.754,269.462,312.754,260.42z"/>
	<polyline points="219.148,251.095 227.491,274.035 240.878,274.035 230.805,249.819 240.5,225.986 227.491,225.986 
		219.148,248.939 219.148,226.008 207.208,226.008 207.208,274.03 219.148,274.03 219.148,251.095 	"/>
	<polyline points="385.592,251.095 393.932,274.055 407.084,274.055 397.246,249.819 406.944,225.986 393.932,225.986 
		385.592,248.939 385.592,226.008 373.903,226.008 373.903,274.05 385.592,274.05 385.592,251.095 	"/>
	<path d="M248.597,258.695c0-3.75,1.722-6.072,3.93-6.969l14.306,15.098c-0.651,2.498-3.545,4.14-6.929,4.14
		c-2.161,0-3.861,0-3.861,0c-5.172,0-7.446-2.4-7.446-6.603V258.695 M255.157,275.057c0,0,1.691,0,4.472,0
		c5.588,0,8.76-2.284,10.275-5.181l3.847,4.174h6.267l-8.234-8.594c0.036-0.364,0.058-0.727,0.058-1.095v-13.833h-4.499v10.292
		c0,0-13.424-14.036-15.021-15.788c-1.405-1.547-2.914-3.873-2.914-7.357v-1.676c0-3.795,2.597-6.769,7.806-6.769
		c1.107,0,0.694,0,1.521,0c5.793,0,7.144,3.493,7.144,7.45v3.523h4.485v-4.37c0-6.65-2.744-10.707-11.015-10.707h-2.438
		c-7.478,0-12.081,3.918-12.081,10.707v2.851c0,4.392,1.767,6.967,3.209,8.527l1.644,1.724c-3.226,1.477-5.678,4.581-5.678,9.406
		v6.02C244.005,270.822,247.834,275.057,255.157,275.057z"/>
	<polyline fill="#ED7826" points="38.909,226.03 25,250.116 27.323,254.142 43.553,226.03 38.909,226.03 	"/>
	<polyline fill="#ED7826" points="57.459,226.03 34.275,266.185 36.598,270.197 62.097,226.03 57.459,226.03 	"/>
	<polyline fill="#ED7826" points="38.917,274.21 66.732,274.21 80.643,250.118 66.732,226.032 38.917,274.21 	"/>
	<polyline fill="#ED7826" points="48.188,226.03 29.644,258.154 31.961,262.17 52.824,226.03 48.188,226.03 	"/>
</g>
</svg>
