<?xml version="1.0" encoding="utf-8"?>
<!-- Generator: Adobe Illustrator 16.0.0, SVG Export Plug-In . SVG Version: 6.00 Build 0)  -->
<!DOCTYPE svg PUBLIC "-//W3C//DTD SVG 1.1//EN" "http://www.w3.org/Graphics/SVG/1.1/DTD/svg11.dtd">
<svg version="1.1" id="Calque_2" xmlns="http://www.w3.org/2000/svg" xmlns:xlink="http://www.w3.org/1999/xlink" x="0px" y="0px"
	 width="500px" height="500px" viewBox="0 0 500 500" enable-background="new 0 0 500 500" xml:space="preserve">
<g>
	<path d="M249.333,209.335c0,0,21.091-9.424,21.091-34.554c0-25.13-31.414-25.58-31.414-25.58h-53.402l-25.131,131.49h16.605
		l21.765-119.15h40.389c0,0,13.913-1.796,13.913,17.052c0,18.848-22.214,28.722-22.214,28.722h-16.605l-2.47,12.34h29.619
		c0,0,19.521,0.899,19.521,22.214s-31.412,27.599-31.412,27.599h-27.825l-2.692,11.223c0,0,0,0,32.761,0s46.224-26.479,46.224-44.88
		S249.333,209.335,249.333,209.335z"/>
	<path d="M302.96,239.626c4.486-27.599,16.156-90.425,16.156-90.425h-15.709c0,0-16.618,93.72-16.828,99.85
		c-0.222,6.508,3.592,31.641,33.21,31.641c27.546,0,39.553,0,41.099,0l1.025-10.996c-16.671,0-30.681,0-30.681,0
		S298.475,267.229,302.96,239.626z"/>
	<path d="M429.06,207.763c-24.007,0-49.36-2.469-49.36-21.541s21.314-25.803,40.836-25.803s45.101,0,45.101,0l1.794-11.217h-55.646
		c0,0-46.227-0.229-53.404,33.655c-7.179,33.883,29.171,35.454,44.653,35.454s50.486-0.673,50.486,22.663
		c0,23.337-25.354,28.723-39.043,28.723c-6.626,0-26.347,0-44.933,0l-1.025,10.996h65.927c0,0,41.288-8.756,41.288-39.271
		C475.734,210.905,453.068,207.763,429.06,207.763z"/>
</g>
<g>
	<path fill="#009036" d="M268.068,299.309c0,4.585-3.713,8.304-8.299,8.304s-8.302-3.719-8.302-8.304
		c0-4.581,3.716-8.299,8.302-8.299S268.068,294.728,268.068,299.309z"/>
	<path d="M259.769,308.285c-4.949,0-8.975-4.026-8.975-8.977c0-4.947,4.025-8.972,8.975-8.972c4.947,0,8.972,4.024,8.972,8.972
		C268.741,304.259,264.716,308.285,259.769,308.285z M259.769,291.683c-4.206,0-7.629,3.421-7.629,7.626
		c0,4.207,3.423,7.631,7.629,7.631c4.205,0,7.626-3.424,7.626-7.631C267.395,295.104,263.974,291.683,259.769,291.683z"/>
</g>
<g>
	<path d="M303.181,308.285c-4.95,0-8.977-4.026-8.977-8.977c0-4.947,4.026-8.972,8.977-8.972c4.947,0,8.972,4.024,8.972,8.972
		C312.153,304.259,308.128,308.285,303.181,308.285z M303.181,291.683c-4.207,0-7.631,3.421-7.631,7.626
		c0,4.207,3.424,7.631,7.631,7.631c4.205,0,7.626-3.424,7.626-7.631C310.807,295.104,307.386,291.683,303.181,291.683z"/>
</g>
<g>
	<path fill="#E2001A" d="M354.893,299.309c0,4.585-3.713,8.304-8.299,8.304s-8.304-3.719-8.304-8.304
		c0-4.581,3.718-8.299,8.304-8.299S354.893,294.728,354.893,299.309z"/>
	<path d="M346.594,308.285c-4.95,0-8.977-4.026-8.977-8.977c0-4.947,4.026-8.972,8.977-8.972c4.947,0,8.972,4.024,8.972,8.972
		C355.566,304.259,351.542,308.285,346.594,308.285z M346.594,291.683c-4.207,0-7.631,3.421-7.631,7.626
		c0,4.207,3.424,7.631,7.631,7.631c4.205,0,7.626-3.424,7.626-7.631C354.22,295.104,350.799,291.683,346.594,291.683z"/>
</g>
<g>
	<path fill="#B1B3B4" d="M146.227,247.145c0-19.529-16.121-35.346-36.021-35.346c-19.884,0-36.005,15.816-36.005,35.346
		c0,19.511,16.121,35.335,36.005,35.335C130.106,282.479,146.227,266.655,146.227,247.145z M107.629,275.301
		c-16.046,0-29.051-12.927-29.051-28.869c0-15.956,13.005-28.88,29.051-28.88c16.056,0,29.061,12.924,29.061,28.88
		C136.69,262.374,123.685,275.301,107.629,275.301z"/>
	<path fill="#B1B3B4" d="M209.622,296.326c-11.446-2.267-32.077-10.286-32.077-10.286c-1.93,3.46-4.092,6.758-6.526,9.813
		c3.963,2.698,11.901,7.91,17.281,10.192c7.013,2.971,11.212,4.134,11.641,4.249c-5.49,6.626-11.812,12.527-18.919,17.381
		l6.508,3.66c12.245-8.877,22.424-20.479,29.573-34.004C214.586,297.1,221.068,298.593,209.622,296.326z"/>
	<path fill="#B1B3B4" d="M77.656,173.355l-0.937-6.455c-12.432,8.298-22.832,19.408-30.452,32.411l4.215,3.752l10.905,9.708
		c2.098-3.739,4.493-7.257,7.176-10.515l-9.939-10.986C64.111,184.437,70.482,178.367,77.656,173.355z"/>
	<path fill="#B1B3B4" d="M172.127,159.291c-13.405-6.611-26.145-8.996-41.214-9.085l-13.256,28.469
		c4.289-0.052,11.617,0.261,15.779,0.952l12.062-22.514c8.662,1.333,13.579,2.514,21.51,6.216L172.127,159.291z"/>
	<path fill="#B1B3B4" d="M38.092,254.88h-5.385c0.757,15.788,5.063,30.613,12.256,43.629l3.954-4.191l10.845-11.496l-5.002-12.879
		l-12.568,8.046C39.933,270.626,38.502,262.9,38.092,254.88z"/>
	<path fill="#B1B3B4" d="M89.051,339.129c14.592,6.074,26.306,9.824,41.146,8.898l-11.706-28.651l-13.778-0.999l5.753,20.631
		c-7.62-1.109-15.717-5.653-23.14-8.719L89.051,339.129z"/>
	<path fill="#B1B3B4" d="M224.518,290.736c-15.562,36.896-51.602,62.76-93.629,62.76c-56.216,0-101.79-46.342-101.79-103.48
		c0-57.194,45.574-103.512,101.79-103.512c15.577,0,30.276,3.655,43.474,10.002l3.477-6.392c-13.39-5.961-28.167-9.333-43.752-9.333
		c-59.843,0-108.354,48.88-108.354,109.234c0,60.3,48.511,109.203,108.354,109.203c45.345,0,84.122-28.063,100.302-67.852
		L224.518,290.736z"/>
</g>
</svg>
