<?xml version="1.0" encoding="utf-8"?>
<!-- Generator: Adobe Illustrator 16.0.0, SVG Export Plug-In . SVG Version: 6.00 Build 0)  -->
<!DOCTYPE svg PUBLIC "-//W3C//DTD SVG 1.1//EN" "http://www.w3.org/Graphics/SVG/1.1/DTD/svg11.dtd">
<svg version="1.1" id="Calque_1" xmlns="http://www.w3.org/2000/svg" xmlns:xlink="http://www.w3.org/1999/xlink" x="0px" y="0px"
	 width="500px" height="500px" viewBox="0 0 500 500" enable-background="new 0 0 500 500" xml:space="preserve">
<g>
	<g>
		<path fill="#9C9E9F" d="M25,299.81h1.48c1.859,0,2.154-0.326,2.154-3.303v-33.817c0-2.971-0.295-3.303-2.154-3.303H25V256.8
			c1.648,0.132,3.213,0.253,5.32,0.253c2.286,0,4.82-0.253,7.606-0.253c5.916,0,9.719,3.624,9.719,10.814
			c0,5.637-2.492,8.944-6.632,10.361v0.132c5.194,0.779,8.149,4.473,8.149,11.531c0,6.089-3.124,12.763-11.868,12.763
			c-2.323,0-4.604-0.258-6.884-0.258c-2.112,0-3.719,0.126-5.41,0.258V299.81z M32.859,277.139h3.424
			c3.84,0,6.885-2.919,6.885-8.876c0-6.222-2.281-8.354-6.21-8.354h-4.098V277.139z M32.859,299.294h4.478
			c4.983,0,7.354-3.824,7.354-10.24c0-5.373-2.539-9.065-7.564-9.065h-4.267V299.294z"/>
		<path fill="#9C9E9F" d="M70.912,256.152c8.549,0,13.807,9.07,13.807,22.803c0,12.563-4.736,24.094-14.165,24.094
			c-9.745,0-13.443-11.856-13.443-23.061C57.111,265.997,62.453,256.152,70.912,256.152z M70.517,300.194
			c7.096,0,9.708-9.645,9.708-21.37c0-10.499-2.686-19.822-9.271-19.822c-5.257,0-9.345,6.995-9.345,20.401
			C61.61,293.789,65.582,300.194,70.517,300.194z"/>
		<path fill="#9C9E9F" d="M117.857,299.81h1.18c1.938,0,2.244-0.326,2.244-3.303v-33.817c0-2.971-0.306-3.303-2.244-3.303h-1.18
			V256.8c1.011,0.063,1.97,0.132,2.939,0.19c0.969,0.063,1.933,0.063,2.939,0.063h9.887c2.239,0,4.346-0.121,6.369-0.253
			l0.353,10.751h-1.849c-0.701-6.742-1.401-7.379-5.136-7.379h-7.686v16.582h3.993c5.494,0,5.889-0.132,5.889-3.635v-1.291h1.754
			v14.123h-1.754v-0.717c0-5.046-0.706-5.31-4.393-5.378h-5.489v19.174h9.176c3.16,0,3.734-0.316,5.583-7.706h1.928l-1.58,11.077
			c-5.973-0.132-11.947-0.258-16.077-0.258c-3.514,0-5.357,0.126-6.848,0.258V299.81z"/>
		<path fill="#9C9E9F" d="M153.687,299.81h1.775c1.902,0,2.202-0.326,2.202-3.371v-36.267h-4.319c-3.155,0-3.408,0.705-4.535,8.938
			h-1.812l0.474-12.311c4.104,0.063,8.249,0.253,12.353,0.253c4.103,0,8.254-0.189,12.352-0.253l0.479,12.311h-1.812
			c-1.127-8.233-1.385-8.938-4.535-8.938h-4.32v36.267c0,3.045,0.295,3.371,2.197,3.371h1.775v2.592
			c-1.944-0.132-3.935-0.258-6.137-0.258c-2.197,0-4.188,0.126-6.137,0.258V299.81z"/>
		<path fill="#9C9E9F" d="M184.639,299.81h1.77c1.896,0,2.207-0.326,2.207-3.371v-36.267h-4.324c-3.15,0-3.414,0.705-4.53,8.938
			h-1.817l0.474-12.311c4.104,0.063,8.254,0.253,12.353,0.253c4.109,0,8.254-0.189,12.358-0.253l0.474,12.311h-1.812
			c-1.122-8.233-1.385-8.938-4.541-8.938h-4.319v36.267c0,3.045,0.306,3.371,2.202,3.371h1.775v2.592
			c-1.944-0.132-3.93-0.258-6.137-0.258c-2.202,0-4.183,0.126-6.131,0.258V299.81z"/>
		<path fill="#9C9E9F" d="M208.48,299.81h1.644c2.075,0,2.402-0.326,2.402-3.371v-33.749c0-2.971-0.327-3.303-2.402-3.303h-1.644
			V256.8c2.118,0.132,4.288,0.253,6.405,0.253s4.283-0.121,6.405-0.253v2.587h-1.654c-2.065,0-2.402,0.332-2.402,3.303v33.749
			c0,3.045,0.337,3.371,2.402,3.371h1.654v2.592c-2.123-0.132-4.288-0.258-6.405-0.258s-4.288,0.126-6.405,0.258V299.81z"/>
		<path fill="#9C9E9F" d="M243.772,256.8c1.454,0.132,2.903,0.253,4.356,0.253c1.449,0,2.86-0.121,4.32-0.253l8.594,33.681
			l8.218-33.681c1.485,0.132,2.98,0.253,4.487,0.253c1.485,0,2.939-0.121,4.425-0.253v2.587h-1.243
			c-1.812,0-2.117,0.332-2.117,3.303v33.817c0,2.977,0.306,3.303,2.117,3.303h1.243v2.592c-1.822-0.132-3.688-0.258-5.51-0.258
			c-1.875,0-3.698,0.126-5.563,0.258v-2.592h1.454c1.822,0,2.117-0.326,2.117-3.303v-35.171h-0.095l-10.24,40.808h-0.621
			l-10.391-40.354l-0.032,0.131v34.587c0,2.977,0.285,3.303,2.118,3.303h1.243v2.592c-1.496-0.132-2.992-0.258-4.44-0.258
			c-1.459,0-2.955,0.126-4.441,0.258v-2.592h1.243c1.828,0,2.118-0.326,2.118-3.303v-33.817c0-2.971-0.29-3.303-2.118-3.303h-1.243
			V256.8z"/>
		<path fill="#9C9E9F" d="M285.083,299.81h0.874c1.37,0,2.065-0.585,2.939-4.082l10.167-39.575h2.096l10.04,40.486
			c0.653,2.523,1.139,3.171,2.413,3.171h1.054v2.592c-1.823-0.132-3.625-0.258-5.384-0.258c-1.813,0-3.624,0.126-5.437,0.258v-2.592
			h1.37c1.043,0,1.686-0.453,1.686-1.749c0-0.584-0.2-1.232-0.358-1.948l-2.497-8.739h-10.208l-1.918,7.775
			c-0.453-0.391-0.938,1.49-0.938,2.781c0,1.169,0.411,1.88,1.696,1.88h1.401v2.592c-1.485-0.132-3.003-0.258-4.498-0.258
			c-1.486,0-3.014,0.126-4.499,0.258V299.81z M299.032,267.004l-4.467,17.43h8.797L299.032,267.004z"/>
		<path fill="#9C9E9F" d="M445.417,299.81h0.885c1.359,0,2.055-0.585,2.939-4.082l10.156-39.575h2.097l10.039,40.486
			c0.653,2.523,1.128,3.171,2.413,3.171H475v2.592c-1.813-0.132-3.624-0.258-5.384-0.258c-1.812,0-3.624,0.126-5.437,0.258v-2.592
			h1.37c1.043,0,1.686-0.453,1.686-1.749c0-0.584-0.2-1.232-0.358-1.948l-2.486-8.739h-10.219l-1.928,7.775
			c-0.442-0.391-0.928,1.49-0.928,2.781c0,1.169,0.411,1.88,1.696,1.88h1.401v2.592c-1.485-0.132-3.013-0.258-4.498-0.258
			c-1.486,0-3.014,0.126-4.499,0.258V299.81z M459.366,267.004l-4.467,17.43h8.797L459.366,267.004z"/>
		<path fill="#9C9E9F" d="M320.797,299.81h1.443c1.802,0,2.097-0.326,2.097-3.303v-33.817c0-2.971-0.295-3.303-2.097-3.303h-1.443
			V256.8c2.223,0.132,4.361,0.253,6.585,0.253c2.181,0,4.361-0.253,6.511-0.253c5.963,0,9.049,4.794,9.049,11.078
			c0,6.342-3.623,10.298-7.132,11.198v0.132c2.434,1.949,3.34,3.435,5.595,10.825c2.359,7.638,3.381,9.519,4.414,9.519h0.896v2.592
			h-5.826c-1.485-3.761-3.382-9.524-5.109-15.292c-1.56-5.31-3.003-6.605-5.604-6.605h-1.718v16.261
			c0,2.977,0.284,3.303,2.097,3.303h1.443v2.592c-1.854-0.132-3.751-0.258-5.595-0.258c-1.864,0-3.761,0.126-5.604,0.258V299.81z
			 M328.457,277.654h1.97c5.311,0,8.145-2.781,8.145-9.455c0-4.077-1.56-8.291-6.006-8.291h-4.108V277.654z"/>
		<path fill="#9C9E9F" d="M353.32,299.81h1.274c2.064,0,2.402-0.326,2.402-3.303v-33.817c0-2.971-0.338-3.303-2.402-3.303h-1.274
			V256.8c1.085,0.063,2.117,0.132,3.149,0.19c1.043,0.063,2.076,0.063,3.161,0.063h10.598c2.402,0,4.657-0.121,6.827-0.253
			l0.379,10.751h-1.98c-0.758-6.742-1.506-7.379-5.51-7.379h-8.238v16.582h4.277c5.889,0,6.321-0.132,6.321-3.635v-1.291h1.886
			v14.123h-1.886v-0.717c0-5.046-0.759-5.31-4.72-5.378h-5.879v19.174h9.84c3.393,0,4.003-0.316,5.974-7.706h2.086l-1.696,11.077
			c-6.405-0.132-12.811-0.258-17.246-0.258c-3.761,0-5.742,0.126-7.343,0.258V299.81z"/>
		<path fill="#9C9E9F" d="M384.272,299.81h1.644c2.075,0,2.401-0.326,2.401-3.303v-33.817c0-2.971-0.326-3.303-2.401-3.303h-1.644
			V256.8c2.117,0.132,4.277,0.253,6.395,0.253c2.128,0,4.299-0.121,6.405-0.253v2.587h-1.644c-2.075,0-2.402,0.332-2.402,3.303
			v36.341h8.998c4.045,0,4.846-0.774,5.794-4.403l1.18-4.594h1.97l-1.695,12.368c-4.794-0.132-9.65-0.258-14.508-0.258
			c-3.528,0-7.016,0.126-10.492,0.258V299.81z"/>
		<path fill="#9C9E9F" d="M414.855,300.021h1.654c2.064,0,2.392-0.321,2.392-3.308V262.9c0-2.977-0.327-3.303-2.392-3.303h-1.654
			v-2.592c2.118,0.132,4.277,0.258,6.405,0.258c2.118,0,4.288-0.126,6.405-0.258v2.592h-1.644c-2.086,0-2.412,0.326-2.412,3.303
			v36.335h8.997c4.056,0,4.856-0.769,5.794-4.403l1.18-4.594h1.971l-1.686,12.369c-4.805-0.132-9.65-0.259-14.507-0.259
			c-3.529,0-7.027,0.127-10.504,0.259V300.021z"/>
		<path fill="#9C9E9F" d="M102.133,275.716c-5.405-3.371-6.337-5.252-6.337-9.334c0-4.403,1.78-7.644,5.278-7.644
			c3.614,0,6.168,2.655,6.727,9.656h1.701l-0.258-10.304l-0.026-1.938l-1.733,0.216c0,0.812-0.737,1.032-0.753,1.032
			c-1.644-0.584-3.087-1.248-5.531-1.248c-6.047,0-9.323,5.889-9.323,12.11c0,5.894,1.533,9.587,8.127,13.933
			c6.005,3.95,6.769,6.021,6.769,10.229c0,3.366-1.786,8.033-6.258,8.033c-4.13,0-6.811-3.951-7.106-10.751h-1.791l0.469,11.141
			l0.032,1.949l1.728-0.222c0-0.379,0.158-0.616,0.332-0.774c1.88,0.706,4.198,1.248,5.958,1.248
			c6.985,0,10.725-5.636,10.725-13.532C110.861,283.681,108.818,279.856,102.133,275.716z"/>
		<path fill="#9C9E9F" d="M237.188,282.785c0,2.854-2.033,5.162-4.541,5.162s-4.546-2.308-4.546-5.162
			c0-2.85,2.039-5.162,4.546-5.162S237.188,279.936,237.188,282.785z"/>
	</g>
	<g>
		<path d="M182.711,333.812l-5.657-11.229v8.923c0,0.832,0.095,1.338,0.285,1.538c0.273,0.269,0.69,0.4,1.27,0.4h0.511v0.368h-5.099
			v-0.368h0.521c0.627,0,1.059-0.169,1.328-0.506c0.152-0.2,0.227-0.674,0.227-1.433v-8.718c0-0.301-0.011-0.569-0.032-0.812
			c-0.032-0.247-0.105-0.447-0.248-0.616c-0.132-0.169-0.343-0.295-0.622-0.39c-0.274-0.084-0.669-0.132-1.175-0.132v-0.358h4.156
			l5.326,10.436l5.225-10.436h4.14v0.358h-0.495c-0.627,0-1.069,0.169-1.327,0.506c-0.169,0.216-0.242,0.695-0.242,1.443v8.718
			c0,0.816,0.105,1.333,0.3,1.538c0.269,0.269,0.69,0.4,1.27,0.4h0.495v0.368h-6.221v-0.368h0.521c0.616,0,1.064-0.169,1.327-0.506
			c0.147-0.2,0.232-0.674,0.232-1.433v-8.923l-5.668,11.229H182.711z"/>
		<path d="M203.47,329.355h-5.673l-0.99,2.102c-0.253,0.501-0.369,0.885-0.369,1.159c0,0.216,0.105,0.4,0.316,0.548
			c0.211,0.152,0.664,0.248,1.37,0.279v0.368h-4.615v-0.368c0.622-0.09,1.012-0.216,1.191-0.379
			c0.369-0.316,0.779-0.949,1.227-1.912l5.152-10.988h0.379l5.099,11.109c0.406,0.869,0.785,1.443,1.122,1.732
			c0.321,0.258,0.79,0.406,1.401,0.438v0.368h-5.784v-0.368c0.295-0.006,0.538-0.031,0.722-0.084
			c0.195-0.048,0.348-0.096,0.458-0.169c0.111-0.079,0.19-0.153,0.242-0.248c0.047-0.089,0.074-0.194,0.074-0.306
			c0-0.295-0.147-0.747-0.432-1.363L203.47,329.355z M203.17,328.618l-2.486-5.389l-2.56,5.389H203.17z"/>
		<path d="M209.712,333.812v-0.368h0.538c0.622,0,1.064-0.174,1.327-0.527c0.153-0.221,0.232-0.7,0.232-1.459v-8.628
			c0-0.827-0.1-1.343-0.3-1.554c-0.269-0.29-0.69-0.438-1.259-0.438h-0.538v-0.358h5.953c1.106,0,2.07,0.053,2.886,0.158
			c0.812,0.105,1.528,0.274,2.139,0.517c0.606,0.231,1.127,0.531,1.57,0.906c0.427,0.373,0.822,0.826,1.175,1.358
			c0.695,1.059,1.043,2.286,1.043,3.655c0,0.985-0.174,1.887-0.527,2.708c-0.348,0.827-0.864,1.544-1.554,2.144
			c-0.685,0.59-1.549,1.06-2.571,1.386c-1.022,0.337-2.217,0.5-3.571,0.5H209.712z M213.895,332.854
			c0.922,0.184,1.696,0.273,2.292,0.273c0.837,0,1.617-0.137,2.323-0.416c0.717-0.279,1.328-0.674,1.844-1.19
			s0.917-1.138,1.217-1.875c0.29-0.728,0.438-1.554,0.438-2.471s-0.147-1.738-0.438-2.481c-0.3-0.731-0.701-1.354-1.222-1.869
			c-0.527-0.517-1.148-0.912-1.865-1.196c-0.722-0.269-1.512-0.416-2.37-0.416c-0.669,0-1.407,0.101-2.218,0.29V332.854z"/>
		<path d="M229.94,321.201v5.273h3.224c0.464,0,0.848-0.043,1.138-0.111c0.285-0.079,0.517-0.189,0.695-0.353
			c0.164-0.158,0.285-0.358,0.348-0.605c0.063-0.237,0.111-0.527,0.127-0.869h0.39v4.641h-0.39c-0.063-0.374-0.127-0.685-0.19-0.938
			c-0.079-0.259-0.189-0.464-0.337-0.616c-0.158-0.148-0.369-0.264-0.653-0.332c-0.274-0.063-0.653-0.101-1.127-0.101h-3.224v4.398
			c0,0.596,0.032,0.959,0.084,1.085c0.021,0.063,0.058,0.121,0.105,0.169c0.048,0.053,0.116,0.1,0.195,0.137
			s0.195,0.063,0.321,0.085c0.132,0.021,0.3,0.025,0.505,0.025h2.492c0.416,0,0.769-0.005,1.059-0.025
			c0.285-0.021,0.532-0.063,0.748-0.122c0.206-0.058,0.39-0.142,0.553-0.242c0.174-0.095,0.342-0.231,0.527-0.395
			c0.437-0.38,0.896-0.99,1.37-1.833h0.437l-1.274,3.339h-11.289v-0.368h0.511c0.137,0,0.285-0.006,0.438-0.031
			c0.147-0.032,0.295-0.074,0.421-0.127c0.132-0.058,0.253-0.132,0.353-0.221c0.105-0.085,0.19-0.19,0.243-0.306
			c0.079-0.211,0.121-0.638,0.121-1.302v-8.654c0-0.427-0.021-0.77-0.058-1.032c-0.053-0.264-0.116-0.448-0.216-0.537
			c-0.258-0.269-0.695-0.396-1.301-0.396h-0.511v-0.358h11.289v2.919h-0.258c-0.105-0.49-0.216-0.869-0.332-1.17
			c-0.116-0.279-0.274-0.511-0.484-0.664c-0.206-0.157-0.463-0.252-0.791-0.295c-0.316-0.047-0.732-0.068-1.232-0.068H229.94z"/>
		<path d="M251.21,333.443v0.368h-6.29v-0.368h0.516c0.622,0,1.064-0.153,1.328-0.475c0.168-0.221,0.263-0.727,0.263-1.512v-8.628
			c0-0.3-0.01-0.559-0.021-0.753c-0.01-0.2-0.042-0.369-0.084-0.49c-0.042-0.127-0.105-0.227-0.189-0.306
			c-0.074-0.068-0.174-0.147-0.295-0.205c-0.327-0.163-0.653-0.237-1.001-0.237h-0.516v-0.358h6.29v0.358h-0.537
			c-0.59,0-1.027,0.163-1.307,0.484c-0.179,0.206-0.274,0.711-0.274,1.507v8.628c0,0.316,0.005,0.58,0.021,0.78
			c0.005,0.194,0.037,0.357,0.084,0.479c0.042,0.121,0.105,0.226,0.179,0.3c0.084,0.073,0.189,0.147,0.321,0.205
			c0.29,0.147,0.622,0.222,0.975,0.222H251.21z"/>
		<path d="M251.458,320.479h3.98l8.965,10.003v-7.695c0-0.807-0.105-1.322-0.315-1.533c-0.285-0.273-0.695-0.416-1.254-0.416h-0.517
			v-0.358h5.1v0.358h-0.527c-0.253,0-0.474,0.021-0.674,0.053c-0.2,0.042-0.348,0.132-0.484,0.269
			c-0.127,0.132-0.232,0.327-0.296,0.59c-0.063,0.253-0.095,0.601-0.095,1.038v11.246h-0.379l-9.671-10.751v8.223
			c0,0.816,0.095,1.333,0.306,1.538c0.263,0.269,0.685,0.4,1.242,0.4h0.527v0.368h-5.102v-0.368h0.516
			c0.622,0,1.054-0.169,1.32-0.506c0.157-0.2,0.231-0.674,0.231-1.433v-9.276c-0.211-0.237-0.4-0.422-0.551-0.574
			c-0.147-0.132-0.284-0.247-0.421-0.332c-0.127-0.089-0.264-0.163-0.411-0.211c-0.147-0.058-0.337-0.121-0.548-0.179
			c-0.231-0.068-0.543-0.095-0.943-0.095V320.479z"/>
		<path d="M280.1,333.443v0.368h-6.289v-0.368h0.516c0.611,0,1.054-0.153,1.328-0.475c0.168-0.221,0.264-0.727,0.264-1.512v-8.628
			c0-0.3-0.011-0.559-0.021-0.753c-0.021-0.2-0.042-0.369-0.084-0.49c-0.043-0.127-0.105-0.227-0.19-0.306
			c-0.073-0.068-0.168-0.147-0.295-0.205c-0.326-0.163-0.653-0.237-1.001-0.237h-0.516v-0.358h6.289v0.358h-0.537
			c-0.601,0-1.032,0.163-1.307,0.484c-0.189,0.206-0.273,0.711-0.273,1.507v8.628c0,0.316,0.011,0.58,0.021,0.78
			c0.01,0.194,0.031,0.357,0.084,0.479c0.042,0.121,0.105,0.226,0.179,0.3c0.074,0.073,0.18,0.147,0.316,0.205
			c0.295,0.147,0.621,0.222,0.979,0.222H280.1z"/>
		<path d="M293.449,320.479v3.129h-0.253c-0.063-0.432-0.158-0.784-0.295-1.079c-0.116-0.285-0.295-0.527-0.506-0.701
			c-0.222-0.185-0.475-0.321-0.779-0.4c-0.316-0.073-0.686-0.115-1.096-0.115h-2.065v10.192c0,0.832,0.095,1.338,0.284,1.538
			c0.264,0.269,0.695,0.4,1.275,0.4h0.506v0.368h-6.227v-0.368h0.516c0.622,0,1.075-0.169,1.328-0.506
			c0.158-0.2,0.242-0.674,0.242-1.433v-10.192h-1.77c-0.675,0-1.17,0.047-1.454,0.131c-0.369,0.116-0.695,0.354-0.959,0.706
			c-0.273,0.363-0.432,0.854-0.474,1.459h-0.422v-3.129H293.449z"/>
		<path d="M302.519,329.355h-5.679l-0.99,2.102c-0.242,0.501-0.368,0.885-0.368,1.159c0,0.216,0.095,0.4,0.315,0.548
			c0.211,0.152,0.675,0.248,1.37,0.279v0.368h-4.604v-0.368c0.601-0.09,1.001-0.216,1.181-0.379
			c0.368-0.316,0.769-0.949,1.232-1.912l5.151-10.988h0.369l5.109,11.109c0.4,0.869,0.779,1.443,1.127,1.732
			c0.316,0.258,0.78,0.406,1.391,0.438v0.368h-5.773v-0.368c0.274-0.006,0.527-0.031,0.717-0.084
			c0.18-0.048,0.348-0.096,0.464-0.169c0.105-0.079,0.189-0.153,0.231-0.248c0.053-0.089,0.074-0.194,0.074-0.306
			c0-0.295-0.148-0.747-0.422-1.363L302.519,329.355z M302.213,328.618l-2.486-5.389l-2.56,5.389H302.213z"/>
		<path d="M321.419,330.198l-1.254,3.613h-11.347v-0.368h0.548c0.622,0,1.064-0.18,1.327-0.543c0.148-0.205,0.222-0.695,0.222-1.448
			v-8.623c0-0.827-0.105-1.343-0.295-1.554c-0.264-0.29-0.685-0.438-1.254-0.438h-0.548v-0.358h6.648v0.358
			c-0.4,0-0.728,0.021-1.001,0.048c-0.264,0.042-0.485,0.095-0.643,0.147c-0.18,0.073-0.316,0.142-0.422,0.227
			c-0.084,0.095-0.179,0.194-0.231,0.3c-0.116,0.195-0.169,0.7-0.169,1.496v8.396c0,0.458,0.032,0.79,0.105,0.995
			c0.073,0.206,0.222,0.348,0.464,0.427c0.189,0.068,0.748,0.095,1.686,0.095h1.085c0.569,0,1.043-0.01,1.411-0.047
			c0.38-0.026,0.695-0.084,0.948-0.163c0.253-0.085,0.475-0.19,0.675-0.316c0.189-0.126,0.379-0.3,0.568-0.495
			c0.18-0.2,0.38-0.447,0.548-0.743c0.2-0.306,0.39-0.669,0.569-1.079L321.419,330.198z"/>
		<path d="M330.227,320.479h5.119v0.358h-0.284c-0.379,0-0.832,0.169-1.307,0.506c-0.463,0.342-1.001,0.927-1.591,1.754
			l-3.529,5.057v3.351c0,0.816,0.096,1.333,0.295,1.538c0.274,0.269,0.695,0.4,1.297,0.4h0.484v0.368h-6.237v-0.368h0.527
			c0.621,0,1.063-0.169,1.316-0.506c0.158-0.2,0.231-0.674,0.231-1.433v-3.161l-4.024-5.599c-0.242-0.321-0.442-0.596-0.61-0.807
			c-0.158-0.205-0.327-0.368-0.453-0.495c-0.147-0.126-0.295-0.231-0.442-0.295c-0.138-0.073-0.316-0.142-0.506-0.216
			c-0.063-0.026-0.147-0.047-0.253-0.068s-0.242-0.026-0.369-0.026v-0.358h6.258v0.358h-0.305c-0.18,0-0.348,0.021-0.506,0.048
			c-0.169,0.042-0.316,0.1-0.442,0.168c-0.138,0.079-0.242,0.169-0.316,0.279c-0.073,0.095-0.116,0.227-0.116,0.374
			c0,0.127,0.063,0.295,0.158,0.5c0.127,0.217,0.285,0.469,0.506,0.765l3.065,4.309l2.876-4.108
			c0.422-0.617,0.633-1.075,0.633-1.386c0-0.269-0.105-0.495-0.306-0.675c-0.211-0.184-0.601-0.273-1.169-0.273V320.479z"/>
	</g>
	<g>
		<path d="M373.863,345.648v15.06H125.084v-15.06H373.863 M375.148,344.357h-1.285H125.084h-1.286v1.291v15.06v1.291h1.286h248.779
			h1.285v-1.291v-15.06V344.357L375.148,344.357z"/>
		<rect x="125.084" y="345.648" fill="#57AB27" width="81.837" height="15.06"/>
		<rect x="288.391" y="345.648" fill="#E2001A" width="85.472" height="15.06"/>
	</g>
	<path fill="#F4B31F" d="M294.965,188.243h-23.693c0,0-23.938-35.909-29.69-45c-5.742-9.097-15.798-3.587-15.798-3.587
		l-57.458,33.27c-2.581,2.581-1.196,5.273-1.196,5.273l14.633,19.032h4.936c15.803,0,25.679,9.065,25.679,20.554
		c0,11.494-8.623,18.226-11.046,19.927c-2.418,1.707-4.309,1.349-4.309,4.757c0,3.418,2.918,3.471,2.918,3.471s71.331,0,84.731,0
		c13.411,0,31.848-4.783,31.848-29.446C316.52,191.841,294.965,188.243,294.965,188.243z M209.054,191.229
		c-0.506,0.353-1.075,0.516-1.649,0.516c-0.906,0-1.791-0.421-2.354-1.222l-14.934-21.323c-0.911-1.306-0.59-3.092,0.706-4.009
		c1.306-0.906,3.092-0.59,4.008,0.711l14.929,21.323C210.671,188.527,210.35,190.323,209.054,191.229z M214.28,152.318
		c1.306-0.917,3.092-0.596,3.998,0.7l25.168,35.94c0.906,1.296,0.59,3.092-0.706,4.003c-0.506,0.342-1.075,0.516-1.644,0.516
		c-0.911,0-1.801-0.426-2.36-1.227l-25.168-35.93C212.663,155.015,212.979,153.224,214.28,152.318z M227.728,241.756
		c-0.832,0-1.654-0.047-2.465-0.132c11.889-1.232,21.16-11.272,21.16-23.488c0-12.205-9.271-22.245-21.16-23.478
		c0.812-0.084,1.633-0.126,2.465-0.126c13.032,0,23.609,10.572,23.609,23.604C251.336,231.179,240.759,241.756,227.728,241.756z
		 M263.455,241.756c-0.832,0-1.653-0.047-2.454-0.132c11.883-1.232,21.154-11.272,21.154-23.488
		c0-12.205-9.271-22.245-21.154-23.478c0.801-0.084,1.622-0.126,2.454-0.126c13.043,0,23.62,10.572,23.62,23.604
		C287.075,231.179,276.498,241.756,263.455,241.756z"/>
	<g>
		<g>
			<g>
				<path d="M284.41,169.222c-0.19-0.016-0.327-0.021-0.411-0.021c-0.537,0-0.938,0.163-1.17,0.49
					c-0.252,0.316-0.379,0.606-0.421,0.858c-0.011,0.09-0.053,0.137-0.095,0.137c-0.032,0-0.063-0.026-0.084-0.053
					c0.01-0.427,0.063-1,0.146-1.733c0.127,0,0.201,0,0.232,0c0.189,0,0.453,0.016,0.779,0.042c0.358,0.026,0.896,0.047,1.612,0.047
					c0.748,0,1.232-0.016,1.464-0.042c0.2-0.032,0.475-0.047,0.832-0.047c0.032,0.263,0.053,0.527,0.063,0.806
					c0.011,0.321,0.032,0.543,0.042,0.674c0,0.032,0,0.058,0,0.095c0,0.084-0.021,0.126-0.073,0.126
					c-0.032,0-0.063-0.016-0.085-0.047c-0.021-0.032-0.063-0.131-0.137-0.305c-0.126-0.285-0.273-0.5-0.41-0.653
					c-0.138-0.147-0.295-0.248-0.464-0.29c-0.169-0.042-0.517-0.073-1.043-0.084c-0.032,0.537-0.042,1.159-0.042,1.849
					c0,2.302,0.031,3.656,0.105,4.067c0.073,0.411,0.305,0.611,0.737,0.611c0.095,0,0.147,0.042,0.147,0.1
					c0,0.069-0.053,0.105-0.147,0.105h-2.297c-0.063,0-0.095-0.037-0.095-0.1c0-0.074,0.063-0.105,0.179-0.105
					c0.19,0,0.348-0.079,0.485-0.231c0.115-0.169,0.179-0.379,0.189-0.653c0.031-0.274,0.031-1.059,0.031-2.354
					C284.483,171.397,284.461,170.302,284.41,169.222z"/>
			</g>
			<g>
				<path d="M289.361,168.927c0.253,0.779,0.484,1.475,0.706,2.081c0.263,0.722,0.463,1.312,0.61,1.796
					c0.147,0.474,0.316,0.943,0.517,1.406c0.517-1.228,1.117-2.986,1.791-5.283l1.485,0.005c0.053,0.01,0.084,0.042,0.084,0.1
					c0,0.058-0.031,0.089-0.095,0.095c-0.263,0.026-0.442,0.105-0.526,0.221c-0.084,0.126-0.137,0.327-0.169,0.606
					c-0.021,0.284-0.031,0.811-0.053,1.58c-0.021,0.769-0.031,1.412-0.031,1.923c0,0.979,0,1.559,0.021,1.717
					c0,0.164,0.042,0.295,0.115,0.39c0.084,0.1,0.222,0.163,0.442,0.216c0.053,0.01,0.095,0.042,0.095,0.1
					c0,0.053-0.042,0.074-0.115,0.074h-1.465h-0.368c-0.095,0-0.138-0.032-0.138-0.089c0-0.048,0.032-0.074,0.085-0.084
					c0.21-0.042,0.358-0.1,0.421-0.174c0.063-0.074,0.127-0.195,0.147-0.379c0.042-0.179,0.053-0.643,0.053-1.38l0.074-2.581
					l0.042-1.27c0-0.1-0.011-0.143-0.042-0.143c-0.021,0-0.042,0.021-0.063,0.079l-0.737,2.107c-0.484,1.338-0.78,2.196-0.875,2.57
					l-0.231,0.816c-0.074,0.253-0.126,0.379-0.137,0.406c-0.021,0.021-0.031,0.032-0.053,0.032c-0.031,0-0.053-0.042-0.074-0.137
					c-0.042-0.221-0.284-0.927-0.695-2.118c-0.221-0.669-0.474-1.433-0.779-2.291c-0.306-0.859-0.464-1.312-0.495-1.349
					c-0.021-0.037-0.042-0.053-0.053-0.053c-0.021,0-0.042,0.047-0.042,0.132l-0.042,3.25v1.074c0,0.569,0.042,0.943,0.147,1.117
					c0.115,0.174,0.273,0.258,0.474,0.258c0.127,0,0.19,0.047,0.19,0.126c0,0.058-0.021,0.079-0.085,0.079h-0.084h-0.242h-0.527
					c-0.231,0-0.526,0.016-0.885,0.047c-0.031-0.016-0.042-0.047-0.042-0.084c0-0.063,0.042-0.111,0.127-0.111
					c0.252-0.005,0.432-0.126,0.547-0.353c0.116-0.227,0.18-0.732,0.18-1.512v-0.948l0.042-2.396c0-0.553-0.053-0.943-0.169-1.148
					c-0.105-0.2-0.284-0.327-0.506-0.363c-0.094-0.016-0.137-0.053-0.137-0.111c0-0.063,0.021-0.095,0.105-0.095
					c0.031,0,0.074,0,0.127,0L289.361,168.927z"/>
			</g>
		</g>
		<g>
			<path d="M288.391,181.548c-5.025,0-9.102-4.083-9.102-9.107c0-5.015,4.076-9.103,9.102-9.103s9.103,4.087,9.103,9.103
				C297.494,177.465,293.417,181.548,288.391,181.548z M288.391,164.434c-4.403,0-8.006,3.598-8.006,8.007
				c0,4.419,3.603,8.012,8.006,8.012c4.415,0,8.018-3.593,8.018-8.012C296.409,168.031,292.806,164.434,288.391,164.434z"/>
		</g>
	</g>
</g>
</svg>
