<?xml version="1.0" encoding="utf-8"?>
<!-- Generator: Adobe Illustrator 16.0.0, SVG Export Plug-In . SVG Version: 6.00 Build 0)  -->
<!DOCTYPE svg PUBLIC "-//W3C//DTD SVG 1.1//EN" "http://www.w3.org/Graphics/SVG/1.1/DTD/svg11.dtd">
<svg version="1.1" id="Calque_1" xmlns="http://www.w3.org/2000/svg" xmlns:xlink="http://www.w3.org/1999/xlink" x="0px" y="0px"
	 width="500px" height="500px" viewBox="0 0 500 500" enable-background="new 0 0 500 500" xml:space="preserve">
<g>
	<g>
		<g>
			<g>
				<path fill="#00244D" d="M269.186,284.322h2.653v2.04h-2.653V284.322L269.186,284.322z M269.211,288.128h2.609v10.136h-2.609
					V288.128L269.211,288.128z"/>
				<path fill="#00244D" d="M274.833,288.128h2.616v1.37c0.719-0.688,2.058-1.563,4.092-1.563c1.958,0,3.229,1.048,3.229,3.063
					v7.266h-2.622v-6.683c0-1.122-0.527-1.637-1.668-1.637s-2.083,0.533-3.031,1.314v7.005h-2.616V288.128L274.833,288.128z"/>
				<path fill="#00244D" d="M286.934,293.23c0-3.521,1.928-5.294,4.792-5.294c1.203,0,2.381,0.44,3.205,1.277v-5.083h2.591v11.654
					c0,1.227,0.081,1.965,0.341,2.479h-2.684c-0.143-0.285-0.248-0.855-0.248-1.37c-0.824,0.855-1.903,1.531-3.57,1.531
					C288.813,298.425,286.934,296.739,286.934,293.23L286.934,293.23z M294.931,295.214v-4.073
					c-0.701-0.818-1.711-1.259-2.635-1.259c-1.965,0-2.765,1.141-2.765,3.403c0,2.139,1.011,3.205,2.672,3.205
					C293.288,296.491,294.316,295.883,294.931,295.214L294.931,295.214z"/>
				<path fill="#00244D" d="M300.312,295.413v-7.284h2.609v6.714c0,1.128,0.527,1.648,1.661,1.648c1.141,0,2.09-0.533,3.038-1.313
					v-7.049h2.622v10.136h-2.622v-1.37c-0.713,0.688-2.07,1.568-4.085,1.568C301.569,298.462,300.312,297.409,300.312,295.413
					L300.312,295.413z"/>
				<path fill="#00244D" d="M312.307,296.875l1.407-1.438c0.843,0.657,2.089,1.203,3.521,1.203c1.396,0,2.238-0.322,2.238-1.153
					c0-0.824-1.141-1.079-2.486-1.364c-1.921-0.396-4.222-0.855-4.222-3.205c0-1.778,1.687-2.981,4.154-2.981
					c2.132,0,3.434,0.558,4.593,1.433l-1.239,1.531c-0.818-0.62-2.151-1.116-3.162-1.116c-1.438,0-1.896,0.465-1.896,1.035
					c0,0.824,1.115,1.072,2.448,1.333c1.916,0.384,4.259,0.83,4.259,3.198c0,2.133-2.139,3.131-4.687,3.131
					C315.164,298.481,313.317,297.805,312.307,296.875L312.307,296.875z"/>
				<path fill="#00244D" d="M324.847,295.617v-5.622h-1.934v-1.866h1.934v-3.539h2.598v3.539h2.883v1.866h-2.883v5.033
					c0,1.079,0.354,1.525,1.643,1.525c0.379,0,0.855-0.063,1.122-0.137v1.848c-0.272,0.062-1.252,0.136-1.903,0.136
					C325.454,298.4,324.847,297.458,324.847,295.617L324.847,295.617z"/>
				<path fill="#00244D" d="M332.46,288.128h2.597v1.655h0.037c0.701-1.005,1.897-1.848,4.023-1.848h0.167l-0.08,2.157
					c-0.118-0.019-0.552-0.037-0.694-0.037c-1.661,0-2.715,0.707-3.453,1.792v6.416h-2.597V288.128L332.46,288.128z"/>
				<path fill="#00244D" d="M341.237,284.322h2.653v2.04h-2.653V284.322L341.237,284.322z M341.25,288.128h2.616v10.136h-2.616
					V288.128L341.25,288.128z"/>
				<path fill="#00244D" d="M346.252,293.206c0-3.856,3.02-5.27,5.338-5.27c2.517,0,4.903,1.352,4.903,5.486v0.546h-7.649
					c0.105,1.841,1.351,2.635,3,2.635c1.45,0,2.294-0.435,3.137-1.179l1.364,1.216c-1.153,1.165-2.69,1.841-4.693,1.841
					C348.844,298.481,346.252,296.937,346.252,293.206L346.252,293.206z M354.112,292.213c-0.143-1.55-0.991-2.368-2.548-2.368
					c-1.265,0-2.424,0.645-2.678,2.368H354.112L354.112,292.213z"/>
				<path fill="#00244D" d="M357.721,296.875l1.419-1.438c0.837,0.657,2.077,1.203,3.509,1.203c1.401,0,2.244-0.322,2.244-1.153
					c0-0.824-1.141-1.079-2.492-1.364c-1.915-0.396-4.215-0.855-4.215-3.205c0-1.778,1.68-2.981,4.153-2.981
					c2.126,0,3.44,0.558,4.6,1.433l-1.246,1.531c-0.824-0.62-2.157-1.116-3.174-1.116c-1.42,0-1.885,0.465-1.885,1.035
					c0,0.824,1.109,1.072,2.442,1.333c1.929,0.384,4.266,0.83,4.266,3.198c0,2.133-2.133,3.131-4.693,3.131
					C360.585,298.481,358.731,297.805,357.721,296.875L357.721,296.875z"/>
			</g>
			<path fill="#00244D" d="M342.298,216.744c-12.113,0-18.753,2.703-23.129,9.559v-8.062h-23.11v60.694h24.375v-25.326
				c0-8.722,0.552-11.846,2.56-14.521c1.922-2.433,5.784-3.831,10.582-3.831c8.642,0,10.756,1.968,10.756,10.037v1.004h23.104
				v-5.092C367.435,223.144,360.851,216.744,342.298,216.744L342.298,216.744z"/>
			<path fill="#00244D" d="M433.789,218.241v6.899c-4.681-6.556-10.532-8.396-25.392-8.396c-11.79,0-20.085,0.942-24.622,2.796
				c-9.714,3.738-13.161,10.839-13.161,27.121c0,15.215,1.866,21.291,7.997,25.99c5.431,4.041,13.434,5.541,29.526,5.541
				c14.034,0,19.941-1.891,24.517-8.22v3.242c0,8.338-0.465,9.751-2.269,11.735c-2.399,2.696-6.59,3.515-17.953,3.515
				c-11.945,0-14.307-1.209-15.373-4.953l-0.502-1.246H372.04l0.094,1.085c0.669,7.401,2.733,12.088,6.918,15.684
				c5.883,5.133,13.619,6.701,33.134,6.701c14.282,0,22.787-0.911,29.37-3.162c6.236-2.076,11.252-6.85,13.391-12.764
				c1.828-5.009,1.959-6.757,1.959-16.595v-54.973H433.789L433.789,218.241z M432.524,247.404c0,6.382-0.881,8.143-2.746,9.5
				c-1.649,1.209-5.814,2.653-16.341,2.653c-16.272,0-18.442-2.368-18.442-11.781c0-6.927,1.166-8.97,3.323-10.321
				c2.293-1.46,7.681-2.198,16.018-2.198C430.851,235.257,432.524,237.554,432.524,247.404L432.524,247.404z"/>
			<path fill="#00244D" d="M268.033,242.811c0,11.13-0.85,13.641-3.559,15.991c-2.572,2.169-6.403,2.987-14.134,2.987
				c-8.189,0-11.418-0.694-13.842-2.957c-2.002-1.865-2.715-4.078-2.715-12.792v-27.799h-24.362v27.799
				c0,16.232,1.215,20.968,6.862,26.647c5.672,5.566,13.341,7.736,27.369,7.736c14.388,0,21.802-2.653,25.651-9.367v7.879h23.092
				v-60.694h-24.362V242.811L268.033,242.811z"/>
			<path fill="#00244D" d="M103.275,222.381c-5.412-4.02-13.824-5.66-29.024-5.66c-14.208,0-20.382,2.046-24.883,8.595v-31.051H25
				v84.769h23.104v-7.055c4.575,6.67,10.743,8.542,26.904,8.542c15.745,0,24.25-1.835,29.34-6.323
				c5.3-4.556,6.918-10.563,6.918-25.701C111.266,233.053,109.4,226.954,103.275,222.381L103.275,222.381z M86.891,247.627
				c0,8.152-1.01,10.386-2.994,11.849c-1.525,1.098-5.399,2.412-15.194,2.412c-5.74,0-11.462-0.577-14.208-1.438
				c-3.782-1.239-5.127-3.118-5.127-11.208c0-7.628,0.818-10.299,3.676-11.914c1.618-0.955,5.542-2.092,15.026-2.092
				c6.019,0,11.332,0.583,14.177,1.543C85.397,237.944,86.891,239.863,86.891,247.627L86.891,247.627z"/>
		</g>
		<path fill="#57AB27" d="M188.555,284.725c8.437-6.683,14.524-16.291,16.601-27.523c4.568-24.769-11.859-48.625-36.605-53.191
			c-2.083-0.391-4.197-0.583-6.323-0.676l-0.124-0.006H75.646l-0.136,1.91l56.461,7.867c-8.437,6.676-14.531,16.285-16.602,27.523
			c-4.568,24.769,11.865,48.622,36.624,53.197c2.083,0.384,4.203,0.576,6.323,0.669l0.13,0.007h86.427l0.142-1.916L188.555,284.725
			L188.555,284.725z M160.244,224.018c1.624,0,3.267,0.161,4.873,0.483c6.515,1.296,12.131,5.049,15.82,10.576
			c3.701,5.526,5.021,12.163,3.726,18.681c-2.306,11.626-12.547,20.044-24.362,20.044c-1.624,0-3.261-0.161-4.872-0.483
			c-6.521-1.289-12.15-5.046-15.845-10.569c-3.695-5.523-5.015-12.166-3.72-18.684C138.163,232.449,148.423,224.018,160.244,224.018
			L160.244,224.018z"/>
	</g>
	<g>
		<path fill="#00244D" d="M459.602,211.468c0-4.324,3.385-7.746,7.73-7.746c4.32,0,7.668,3.382,7.668,7.709
			c0,4.324-3.379,7.746-7.718,7.746C462.949,219.177,459.602,215.795,459.602,211.468z M473.723,211.468
			c0-3.683-2.796-6.577-6.44-6.577c-3.651,0-6.41,2.857-6.41,6.54c0,3.682,2.79,6.577,6.46,6.577
			C470.977,218.008,473.723,215.15,473.723,211.468z M464.356,207.085h3.118c1.983,0,3.155,0.862,3.155,2.573
			c0,1.33-0.682,2.033-1.711,2.374l1.828,3.481h-1.704l-1.699-3.279h-1.4c0,0.301,0,3.217,0,3.279c0,0-1.525,0-1.587,0
			C464.356,215.513,464.356,207.123,464.356,207.085z M467.394,211.028c1.061,0,1.668-0.362,1.668-1.289
			c0-0.887-0.607-1.246-1.692-1.246h-1.426v2.535H467.394z"/>
	</g>
</g>
</svg>
