<svg xmlns="http://www.w3.org/2000/svg" viewBox="0 0 300 130.6" enable-background="new 0 0 300 130.6"><path d="M283.8 129.8c-44.6-.1-89.3 0-133.9 0h-133.7c-3.5 0-6.8-.8-9.6-3-3.6-2.9-5.6-6.6-5.6-11.2v-100.4c0-7.8 6.3-14.2 14.2-14.3 6.2-.1 12.5 0 18.7 0h250.1c7.2 0 12.9 4.2 14.6 10.8.4 1.4.5 2.9.5 4.4 0 32.8 0 65.6.1 98.5-.1 8.6-6.6 15.3-15.4 15.2m15.8-117.5c-1.5-6.5-5.5-10.6-12.1-12-.2 0-.3-.2-.4-.3h-274.5l-.6.4c-7.3 1.4-12 8.3-12 14.7.1 33.3.1 66.7 0 100 0 6.5 4.3 13.1 11.1 15 .4.1.7.4 1.1.6h274.6c.6-.2 1.3-.4 1.9-.5 5.3-1.6 8.8-5 10.6-10.3.2-.6.5-1.1.8-1.6v-105.4c-.2-.2-.4-.4-.5-.6"/><path d="M282.4 28.9c-3.7-3.8-7.5-7.6-11.1-11.3h-243.4c-3.7 3.6-7.1 7-10.5 10.3l-.1 74.6 10.5 10.5h244c3.7-3.5 7.1-6.9 10.4-10.1l.2-74z"/><path fill="#038B44" d="M25.7 116.2h247.2c4.3-4.1 8.5-8.2 12.7-12.2v-76.6c-4.3-4.4-8.5-8.6-12.8-12.9h-247.2c-3.8 4-7.6 8-11.4 11.9v77.9c3.9 4 7.7 7.9 11.5 11.9m124.4 10.1h-133.9c-5.5 0-9.5-3.4-10.6-7.5-.3-1.2-.6-2.5-.6-3.8v-99.4c0-7 5.2-11.4 11.6-11.3 42.1.1 83.7 0 125.4 0h141.4c3.5 0 6.6.9 9 3.6 1.7 2 2.7 4.2 2.7 6.9v101c0 4.4-3.5 10.1-10.4 10.5h-134.6"/><path fill="#E8DF07" d="M100.4 63.4h182.1v-34.5c-3.7-3.8-7.5-7.6-11.1-11.3h-243.5c-3.7 3.6-7.1 7-10.5 10.3v35.7h52.2l-.2 3.2h-52v35.8l10.5 10.5h244c3.7-3.5 7.1-6.9 10.4-10.1v-36.4h-182v-3.2zm-74.7 52.8c-3.8-4-7.6-7.9-11.5-11.9v-77.9c3.8-3.9 7.6-7.9 11.4-11.9h247.1c4.3 4.3 8.5 8.5 12.8 12.9v76.6c-4.2 4-8.4 8.1-12.7 12.2h-247.1zM61.1 74.2h8.6c-1.3 5.3-2.9 10.4-4.4 15.6-1.5 5.1-2.9 10.3-4.3 15.5h-6.8c-1.3-4.8-2.6-9.7-4-14.9-1.6 5.1-2.5 10.1-4 14.9h-6.7c-3-10.2-6.1-20.5-9.2-31h8.7c1.3 5.1 2.5 10.4 3.8 15.6.1 0 .2 0 .2.1l3.4-15.7h7.2c1.2 5.3 2.4 10.5 3.5 15.7l.3.1c1.2-5.4 2.4-10.5 3.7-15.9"/><path fill="#E8DF07" d="M139.8 74.2h10v11.1h10.6v-11.1h10v31h-10v-11.5h-10.4v11.5h-10.2zM93.2 37.8c1.3 0 2.6.1 3.9 0 1.9-.2 3.1-1.8 3.2-3.8.1-1.8-1.1-3.5-2.6-3.8-1.4-.3-2.9-.2-4.4-.3v7.9zm.1 13.3c1.6 0 3.2.2 4.7 0 1.9-.2 3.1-2.1 3.1-4.1 0-1.8-1.2-3.6-2.9-3.9-1.6-.3-3.2-.2-4.8-.3v8.3zm-10.1 4.9v-31h16.5c1.9 0 3.7.3 5.5 1.1 5.1 2.4 5 9.7.9 12.2-.3.2-.6.4-1 .8.6.3 1.1.6 1.6.9 2.6 1.6 4 3.8 4 6.9 0 2.7-.5 5.1-2.5 7.1-1.5 1.5-3.3 2.3-5.4 2.3-6.3.1-12.6 0-18.9 0-.3-.2-.4-.2-.7-.3M245.8 79.2v8.2c1.2 0 2.3.1 3.4 0 2.3-.1 3.9-1.6 4-3.7.2-2.3-.9-3.7-3.3-4.2-1.3-.3-2.7-.2-4.1-.3m20.7 26h-9.9l-2.6-5.6c-.7-1.5-1.3-3.1-2.1-4.5-1-1.8-2.4-3-4.7-2.7-.4.1-.9 0-1.5 0v12.8h-9.9v-31c.4 0 .8-.1 1.3-.1 5.1 0 10.1-.1 15.2 0 2.7 0 5.3.6 7.6 2.4 3.4 2.7 4.1 9.7-.1 12.8-.4.3-.8.6-1 .8l2.7 3.9c.3.4.4.8.6 1.2 1.4 3.3 2.8 6.6 4.4 10"/><path fill="#E8DF07" d="M146.4 25.1c.1.5.2 1 .2 1.4 0 5 .1 10 0 15-.1 3-.4 5.9-1.9 8.6-1.9 3.2-4.7 5.2-8.2 6-4.1.9-8.2.8-12.2-.7-4.7-1.7-7.8-6-7.9-11-.1-6.1-.1-12.2-.1-18.3 0-.3 0-.6.1-1h10v16.3c0 1.1.1 2.3.5 3.4.7 2.1 2.1 3.1 4.2 3.1 2.3.1 4-.9 4.7-2.9.5-1.5.8-3.2.8-4.7.1-4.4 0-8.8 0-13.3v-2h9.8zM164 38.2c1.4 0 2.6.1 3.8 0 1.9-.1 3.4-1.6 3.8-3.4.3-1.7-.6-3.5-2.2-4.2-1.7-.7-3.6-.8-5.4-.4v8zm-.1 5.3v12.6h-9.7v-31l1.5-.1h14.4c2.1 0 4.2.4 6.2 1.2 5.8 2.5 6.5 11.4 1.1 14.5-.2.1-.3.2-.6.4 2.5 1.8 3.4 4.7 4.6 7.4 1.1 2.5 2.3 5 3.4 7.6h-9.8c-.9-2.1-1.9-4.3-2.9-6.4-.4-1-.8-2.1-1.4-3-1.9-3.5-3-3.8-6.8-3.2M217.1 26.8c-.8 2.1-1.7 4.2-2.5 6.5-1.6-.4-3.1-.9-4.6-1.1-3.6-.6-6.9 0-9.4 2.8-2.5 2.7-2.7 6-1.4 9.3 1.3 3.1 4 4.4 7.3 4.5h2.6v-4.2c-1.2 0-2.4-.1-3.6-.2v-4.5h12.1v15.3c-1.4.3-2.8.6-4.3.8-4.8.6-9.7 1.1-14.5-.2-7.8-2.1-12.2-9.3-11.3-16.7.8-6.6 4.6-10.8 10.6-13.1 5.9-2.2 13-1.8 19 .8M89.3 94.3c-1.3-3.9-2.6-7.6-4.1-11.8-1.4 4.1-2.8 7.9-4.1 11.8h8.2zm14 10.9h-9.9c-.6-1.6-1.3-3.2-1.9-4.9h-12.6c-.6 1.6-1.2 3.2-1.9 4.9h-9.9c4.3-10.4 8.6-20.7 12.8-31h10.5c4.2 10.2 8.5 20.5 12.9 31M129.6 82.3c-1.4-.3-2.6-.6-3.8-.9-3.7-.8-6.7.5-9.1 3.1-3.4 3.6-2.7 10.6 3.7 12.6 2.8.8 5.5.1 8.2-.6.6-.2 1.2-.4 2-.6l1.5 3.5c.4 1.1.8 2.3 1.4 3.6-1.3.4-2.5.8-3.7 1.2-3.3 1-6.7 1.6-10.1 1.4-3.4-.2-6.6-1.1-9.4-3.1-3-2.2-4.8-5.3-5.6-8.8-1.1-5.2-.2-10 3.1-14.3 2.1-2.7 4.9-4.1 8.1-5 6-1.8 11.9-1.1 17.8 1.4-1.4 2.2-2.7 4.4-4.1 6.5"/><path fill="#E8DF07" d="M218.2 98.6h11.1v6.6h-21.2v-31h21.1v6.6h-11v5.3h9.9v6.7h-9.9zM194.2 81.9v23.3h-10v-23.1h-8.7v-7.9h27.3v7.7zM83.6 65.1c0 2.3-1.6 4-4 4-2.2 0-4.2-1.8-4.2-3.9-.1-2.3 1.8-4 4.2-4 2.5 0 4 1.5 4 3.9M86.3 65c.9-3.1 2.4-4.2 5.1-3.8 1.8.3 3.3 2.1 3.3 3.9 0 1.9-1.5 3.6-3.4 3.9-2.5.4-4.6-1-5-4"/></svg>