<?xml version="1.0" encoding="utf-8"?>
<!-- Generator: Adobe Illustrator 16.0.0, SVG Export Plug-In . SVG Version: 6.00 Build 0)  -->
<!DOCTYPE svg PUBLIC "-//W3C//DTD SVG 1.1//EN" "http://www.w3.org/Graphics/SVG/1.1/DTD/svg11.dtd">
<svg version="1.1" id="Calque_2" xmlns="http://www.w3.org/2000/svg" xmlns:xlink="http://www.w3.org/1999/xlink" x="0px" y="0px"
	 width="500px" height="500px" viewBox="0 0 500 500" enable-background="new 0 0 500 500" xml:space="preserve">
<g>
	<path fill="#E2001A" d="M202.476,228.344h-37.634c-9.039,0-16.515,6.989-17.315,15.829h19.775v-1.43
		c0-3.538,2.894-6.432,6.432-6.432h19.851c3.538,0,6.432,2.894,6.432,6.432v11.293c-3.507-2.458-8.052-3.958-13.014-3.958h-22.594
		c-11.005,0-20.01,7.333-20.01,16.294s9.005,16.294,20.01,16.294h22.594c4.962,0,9.507-1.5,13.014-3.958v3.417h19.855v-36.386
		C219.871,236.172,212.043,228.344,202.476,228.344z M189.728,275.09h-14.41c-6.177,0-11.231-3.923-11.231-8.718
		s5.055-8.718,11.231-8.718h14.41c4.589,0,8.55,2.17,10.288,5.25v6.936C198.278,272.92,194.317,275.09,189.728,275.09z"/>
	<path fill="#E2001A" d="M369.256,228.344h-37.632c-9.041,0-16.518,6.989-17.315,15.829h19.775v-1.43
		c0-3.538,2.895-6.432,6.431-6.432h19.851c3.537,0,6.431,2.894,6.431,6.432v11.293c-3.506-2.458-8.051-3.958-13.012-3.958H331.19
		c-11.007,0-20.011,7.333-20.011,16.294s9.004,16.294,20.011,16.294h22.594c4.961,0,9.506-1.5,13.012-3.958v3.417h19.855v-36.386
		C386.651,236.172,378.824,228.344,369.256,228.344z M356.51,275.09H342.1c-6.176,0-11.233-3.923-11.233-8.718
		s5.058-8.718,11.233-8.718h14.41c4.589,0,8.549,2.17,10.286,5.25v6.936C365.059,272.92,361.099,275.09,356.51,275.09z"/>
	<path fill="#E2001A" d="M285.107,206.22v29.806c-3.599-4.777-9.296-7.894-15.7-7.894h-21.169c-10.818,0-19.671,8.853-19.671,19.672
		v15.19c0,10.818,8.853,19.671,19.671,19.671h21.169c6.404,0,12.102-3.115,15.7-7.894v7.353h18.344V206.22H285.107z
		 M272.157,273.756h-13.054c-7.123,0-12.949-5.828-12.949-12.95v-10.814c0-7.121,5.826-12.949,12.949-12.949h13.054
		c7.122,0,12.95,5.828,12.95,12.949v10.814C285.107,267.928,279.279,273.756,272.157,273.756z"/>
	<path fill="#E2001A" d="M416.652,304.715V274.91c3.661,4.775,9.456,7.894,15.969,7.894h21.53c11.002,0,20.005-8.855,20.005-19.674
		v-15.19c0-10.818-9.003-19.671-20.005-19.671h-21.53c-6.513,0-12.308,3.116-15.969,7.894v-7.353h-18.655v75.905H416.652z
		 M429.824,237.179h13.276c7.243,0,13.171,5.828,13.171,12.95v10.814c0,7.119-5.928,12.947-13.171,12.947h-13.276
		c-7.244,0-13.172-5.828-13.172-12.947v-10.814C416.652,243.007,422.58,237.179,429.824,237.179z"/>
	<path fill="#E2001A" d="M115.868,257.843v0.754c0,3.538-2.894,6.433-6.432,6.433H52.712c-3.538,0-6.432-2.895-6.432-6.433v-37.436
		c0-3.538,2.894-6.432,6.432-6.432h56.724c3.538,0,6.432,2.894,6.432,6.432v1.51h22.124v-7.933c0-10.613-8.683-19.297-19.296-19.297
		H43.453c-10.613,0-19.296,8.684-19.296,19.297v50.282c0,10.612,8.683,19.296,19.296,19.296h75.243
		c10.613,0,19.296-8.684,19.296-19.296v-7.178H115.868z"/>
</g>
</svg>
