<?xml version="1.0" encoding="utf-8"?>
<!-- Generator: Adobe Illustrator 16.0.0, SVG Export Plug-In . SVG Version: 6.00 Build 0)  -->
<!DOCTYPE svg PUBLIC "-//W3C//DTD SVG 1.1//EN" "http://www.w3.org/Graphics/SVG/1.1/DTD/svg11.dtd">
<svg version="1.1" id="Calque_1" xmlns="http://www.w3.org/2000/svg" xmlns:xlink="http://www.w3.org/1999/xlink" x="0px" y="0px"
	 width="500px" height="500px" viewBox="0 0 500 500" enable-background="new 0 0 500 500" xml:space="preserve">
<path fill="#FABB00" d="M382.377,189.729c-33.477-10.132-51.905-47.003-41.205-82.358c3.694-12.252,10.421-22.701,19.011-30.738
	c0,0,22.363-21.94,57.577-9.742c-0.39-0.012-0.778-0.042-1.177-0.042c-21.311,0-38.579,19.063-38.579,42.568
	c0,23.517,17.269,42.566,38.579,42.566c16.831,0,31.147-11.877,36.412-28.461l-0.029-0.012c0,0,1.254-3.567,1.964-9.387
	c0.122-0.991,0.23-2.198,0.23-2.198c1.354-14.807-1.255-41.069-30.225-61.969c-39.307-27.708-94.603-24.873-94.603-24.873
	c-98.262,0-177.917,81.364-177.917,181.748c0,100.367,79.656,181.734,177.917,181.734h132.01V144.069
	C451.643,179.424,415.842,199.859,382.377,189.729"/>
<g>
	<path d="M60.799,429.628c-14.485,0.037-23.529,9.268-23.517,22.273c0.023,13,9.705,22.178,24.173,22.141h26.792v-9.741H58.367
		c-4.332,0-9.96-5.436-9.96-12.435c0-6.987,5.634-12.448,10.329-12.448h29.511v-9.79C88.247,429.628,64.026,429.615,60.799,429.628z
		"/>
	<rect x="212.056" y="418.539" width="10.949" height="55.521"/>
	<path d="M227.676,430.599c-2.767,1.784-1.306,10.069,0.466,9.524c1.766-0.56,6.962-3.445,14.801-1.923
		c7.855,1.54,13.168,10.475,2.946,33.282c-1.661,3.094,2.999,3.518,2.999,3.518l7.502-0.886c0,0,12.557-26.458,2.7-37.655
		C249.245,425.255,229.01,429.749,227.676,430.599z"/>
	<polygon points="404.39,421.323 393.273,421.323 393.273,429.641 383.669,429.641 383.669,439.843 393.273,439.843 
		393.273,474.055 404.39,474.055 404.39,439.843 419.707,439.843 419.707,429.641 404.39,429.641 	"/>
	<polygon points="447.403,429.641 447.403,421.323 436.285,421.323 436.285,429.641 426.682,429.641 426.682,439.843 
		436.285,439.843 436.285,474.055 447.403,474.055 447.403,439.843 462.719,439.843 462.719,429.641 	"/>
	<path d="M135.864,429.615h-35.698v9.827h35.625c3.463,0,5.453,1.888,5.453,4.38v20.454h-31.616c-3.33,0-5.458-2.051-5.458-4.537
		c0-2.488,1.989-4.368,5.458-4.368h27.733l-0.013-9.389c0,0-20.271-0.019-27.751-0.019c-10.888,0-16.51,7.813-16.51,14.321
		c0.025,8.231,7.559,13.781,16.687,13.757h42.589v-29.989v-0.109C152.362,437.435,146.751,429.615,135.864,429.615z"/>
	<path d="M309.583,429.615h-35.697v9.827h35.612c3.476,0,5.452,1.888,5.452,4.38v20.454h-31.614c-3.331,0-5.448-2.051-5.448-4.537
		c0-2.488,1.984-4.368,5.448-4.368h27.732l-0.013-9.389c0,0-20.265-0.019-27.744-0.019c-10.889,0-16.517,7.813-16.517,14.321
		c0.023,8.231,7.563,13.781,16.692,13.757h42.582v-29.989v-0.109C326.069,437.435,320.471,429.615,309.583,429.615z"/>
	<rect x="159.308" y="429.641" width="11.009" height="44.42"/>
	<path d="M200.719,433.499c-7.498-6.898-24.476-3.616-25.811-2.772c-2.765,1.783-1.304,10.063,0.46,9.529
		c1.766-0.559,4.459-3.458,12.303-1.93c5.003,0.983,8.062,4.55,7.715,13.237c-0.098,2.364,10.482,1.526,10.495-0.28
		C205.929,444.187,206.815,439.103,200.719,433.499z"/>
	<rect x="333.013" y="429.641" width="11.005" height="44.42"/>
	<path d="M374.425,433.499c-7.498-6.898-24.476-3.616-25.804-2.772c-2.773,1.783-1.316,10.063,0.455,9.529
		c1.759-0.559,4.457-3.458,12.3-1.93c5.005,0.983,8.062,4.55,7.716,13.237c-0.096,2.364,10.482,1.526,10.495-0.28
		C379.635,444.187,380.515,439.103,374.425,433.499z"/>
</g>
<path fill-rule="evenodd" clip-rule="evenodd" d="M456.622,467.279h1.3c0.612,0,1.043,0.223,1.043,0.764
	c0,0.601-0.448,0.85-1.328,0.85h-1.015V467.279z M455.712,472.185h0.909v-2.473h0.681l1.644,2.473h1.081l-1.646-2.516
	c0.813-0.078,1.48-0.516,1.48-1.59c0-1.086-0.661-1.62-1.965-1.62h-2.185V472.185z M461.519,469.329c0,2.213-1.771,4.01-3.943,4.01
	s-3.931-1.797-3.931-4.01c0-2.215,1.759-4.01,3.931-4.01S461.519,467.114,461.519,469.329 M452.663,469.329
	c0,2.712,2.195,4.913,4.913,4.913c2.712,0,4.914-2.201,4.914-4.913s-2.202-4.914-4.914-4.914
	C454.858,464.415,452.663,466.617,452.663,469.329"/>
</svg>
