<?xml version="1.0" encoding="utf-8"?>
<!-- Generator: Adobe Illustrator 16.0.0, SVG Export Plug-In . SVG Version: 6.00 Build 0)  -->
<!DOCTYPE svg PUBLIC "-//W3C//DTD SVG 1.1//EN" "http://www.w3.org/Graphics/SVG/1.1/DTD/svg11.dtd">
<svg version="1.1" id="Calque_1" xmlns="http://www.w3.org/2000/svg" xmlns:xlink="http://www.w3.org/1999/xlink" x="0px" y="0px"
	 width="500px" height="500px" viewBox="0 0 500 500" enable-background="new 0 0 500 500" xml:space="preserve">
<g>
	<g>
		<polygon fill="#E21B25" points="135.265,123.51 412.344,123.51 397.264,199.038 300.99,199.038 276.434,319.868 200.923,319.868 
			225.463,199.038 119.553,199.23 		"/>
		<path d="M279.782,323.965h-83.874l24.539-120.82l-105.932,0.192l17.415-83.925h285.411l-16.717,83.724h-96.285L279.782,323.965z
			 M205.937,315.77h67.148l24.557-120.831h96.262l13.443-67.331H138.6l-14.009,67.514l105.889-0.192L205.937,315.77z"/>
	</g>
	<g>
		<path d="M117.504,214.934h83.331l-21.355,104.118c0,0-5.203,13.863,13.887,12.135h84.635c0,0,13.991-1.729,15.721-17.354
			l19.37-95.425h81.033l-28.015,138.808c0,0-9.637,36.435-39.14,38.164H122.971c0,0-36.203-4.227-31.568-46.425L117.504,214.934z"/>
	</g>
	<g>
		<path d="M250.004,479.102c-61.199,0-118.732-23.828-162.001-67.096c-43.271-43.269-67.101-100.801-67.101-161.999
			c0-61.199,23.83-118.733,67.1-162.006c43.271-43.273,100.804-67.104,162.002-67.104c61.197,0,118.729,23.832,161.998,67.104
			c43.268,43.272,67.096,100.807,67.096,162.006c0,61.199-23.828,118.73-67.096,161.999
			C368.734,455.274,311.202,479.102,250.004,479.102z M250.004,29.094c-121.808,0-220.906,99.102-220.906,220.914
			c0,121.804,99.098,220.899,220.906,220.899c121.804,0,220.898-99.095,220.898-220.899
			C470.902,128.195,371.808,29.094,250.004,29.094z"/>
	</g>
</g>
</svg>
