<?xml version="1.0" encoding="utf-8"?>
<!-- Generator: Adobe Illustrator 16.0.0, SVG Export Plug-In . SVG Version: 6.00 Build 0)  -->
<!DOCTYPE svg PUBLIC "-//W3C//DTD SVG 1.1//EN" "http://www.w3.org/Graphics/SVG/1.1/DTD/svg11.dtd">
<svg version="1.1" id="Calque_1" xmlns="http://www.w3.org/2000/svg" xmlns:xlink="http://www.w3.org/1999/xlink" x="0px" y="0px"
	 width="500px" height="500px" viewBox="0 0 500 500" enable-background="new 0 0 500 500" xml:space="preserve">
<g>
	<path fill="#005EA1" d="M250.002,449.641c109.644,0,199.039-89.095,199.638-197.84c0.45-110.543-88.044-200.239-197.839-201.139
		C140.657,49.614,50.662,139.308,50.512,249.252C50.362,360.396,139.308,449.641,250.002,449.641 M267.7,474.99h-35.248
		c-0.6-0.3-1.2-0.6-1.95-0.75c-6-0.75-11.85-1.35-17.849-2.25c-94.495-14.249-173.24-95.095-185.39-189.59
		c-0.6-4.949-1.5-9.749-2.25-14.549v-35.248c0.3-0.75,0.6-1.5,0.75-2.25c1.05-7.499,1.8-15.149,3.149-22.649
		C52.012,86.062,170.506,5.816,292.149,29.064c118.494,22.649,197.989,134.843,180.44,254.387
		c-14.55,98.394-92.695,175.789-191.39,189.59C276.55,473.639,272.199,474.39,267.7,474.99"/>
	<path fill="#005EA1" d="M313.148,93.111v35.698h-79.345v84.445h69.446v35.548h-69.446v119.243h79.196v37.647H194.054V93.111
		H313.148z M317.498,317.648c2.549,1.051,4.648,2.1,7.049,3c9.299,3.9,19.049,6,29.248,4.949c12.75-1.35,20.399-8.849,22.199-21.599
		c1.949-14.399-2.85-25.498-15.6-32.848c-5.999-3.45-12.149-6.899-18.299-10.35c-19.949-10.949-29.398-28.048-30.598-50.397
		c-0.75-13.349,0.6-26.548,6.449-38.847c12.149-26.099,40.647-38.848,70.196-31.349c4.05,1.05,7.949,2.25,11.849,3.45v37.348
		c-2.25-1.05-4.35-1.8-6.299-2.7c-9.75-4.5-19.8-6.75-30.599-3.9c-8.55,2.25-13.949,7.65-15.749,16.35
		c-2.7,12.599,0.15,23.249,10.949,30.749c5.699,4.05,11.999,7.2,17.849,10.949c5.4,3.3,10.8,6.3,15.749,10.05
		c17.699,13.349,22.949,32.099,22.049,53.097c-0.749,16.499-5.099,31.799-15.599,44.848c-11.099,13.649-25.648,20.85-43.197,21.899
		c-11.999,0.75-23.698-0.301-35.249-4.2c-1.649-0.601-2.699-1.199-2.699-3.3l0.15-35.248
		C317.198,318.999,317.348,318.549,317.498,317.648 M180.555,313.898c0.45,12.75,0.9,24.899,1.2,37.049c0,1.05-1.2,2.699-2.25,3.3
		c-33.448,18.749-70.196,6.75-86.245-27.898c-6.75-14.55-10.05-30.148-11.549-46.048c-2.55-28.349-1.35-56.546,6.449-84.146
		c4.05-14.399,10.2-27.748,20.399-38.848c17.699-19.198,39.447-22.499,63.597-16.199c8.549,2.25,8.549,2.4,8.249,11.1
		c-0.3,10.35-0.45,20.699-0.75,31.499c-1.649-0.75-2.7-1.5-4.05-1.95c-5.55-1.8-10.95-4.35-16.649-5.25
		c-13.049-2.101-23.249,2.849-30.148,14.249c-5.699,9.299-8.25,19.648-9.449,30.148c-3,24.298-3,48.447,2.549,72.446
		c0.9,3.899,2.4,7.649,4.05,11.249c8.55,18.299,28.649,24.748,46.348,14.699C175.005,317.948,177.406,315.999,180.555,313.898"/>
</g>
</svg>
