<?xml version="1.0" encoding="utf-8"?>
<!-- Generator: Adobe Illustrator 16.0.0, SVG Export Plug-In . SVG Version: 6.00 Build 0)  -->
<!DOCTYPE svg PUBLIC "-//W3C//DTD SVG 1.1//EN" "http://www.w3.org/Graphics/SVG/1.1/DTD/svg11.dtd">
<svg version="1.1" id="Calque_2" xmlns="http://www.w3.org/2000/svg" xmlns:xlink="http://www.w3.org/1999/xlink" x="0px" y="0px"
	 width="500px" height="500px" viewBox="0 0 500 500" enable-background="new 0 0 500 500" xml:space="preserve">
<g>
	<rect x="25" y="127.709" fill="#E2001A" width="450" height="189.468"/>
	<path fill="#FFFFFF" d="M406.371,158.711h-0.205h-34.129H175.493v19.531v10.074v20.354v27.96v21.175v29.605v0.206h34.231v-0.206
		h61.574v-29.605h-61.574V236.63h34.23v-27.96h-34.23v-20.354h77.405v99.301h32.895v-99.301h40.067l-40.067,99.301h35.772
		l7.606-24.055h46.67l10.79,24.055h32.795L406.371,158.711z M388.279,239.097h-12.747l12.747-36.801l12.746,36.801H388.279z"/>
	<path fill="#FFFFFF" d="M132.524,222.923c0,13.588-11.015,24.604-24.602,24.604c-13.588,0-24.604-11.015-24.604-24.604
		c0-13.585,11.015-24.6,24.604-24.6C121.509,198.323,132.524,209.338,132.524,222.923z"/>
	<path fill="#FFFFFF" d="M140.091,236.425c-5.278,12.56-17.692,21.381-32.168,21.381c-19.266,0-34.883-15.615-34.883-34.883
		c0-19.264,15.617-34.879,34.883-34.879c14.101,0,26.217,8.381,31.715,20.421H175.6c-6.653-31.282-34.412-54.755-67.678-54.755
		c-38.229,0-69.217,30.986-69.217,69.213c0,38.228,30.988,69.217,69.217,69.217c33.604,0,61.594-23.954,67.877-55.715H140.091z"/>
	<g>
		<path fill="#E2001A" d="M175.333,336.692h3.506l-6.752,31.776h14.345l-0.681,3.142h-17.853L175.333,336.692z"/>
		<path fill="#E2001A" d="M198.988,360.826l-5.183,11.465l-3.245-0.941l16.229-34.657h4.188l1.466,34.657l-3.666,0.941
			l-0.262-11.465H198.988z M207.94,341.35h-0.104l-7.331,16.335h7.853L207.94,341.35z"/>
	</g>
	<g>
		<path fill="#E2001A" d="M246.288,354.283c-3.823-2.358-6.335-4.032-5.135-9.162c1.084-4.713,5.479-8.901,10.899-8.901
			c5.364,0,7.135,3.508,7.135,7.905l-3.881,0.523c0-2.563-0.8-5.13-4.054-5.13c-3.595,0-5.593,2.67-6.277,5.603
			c-0.628,2.827-0.286,3.717,4.964,7.016c4.053,2.563,6.793,4.71,5.537,10.104c-1.257,5.496-5.479,9.842-11.872,9.842
			c-6.733,0-8.217-4.082-7.533-9.634l3.938-0.472c-0.4,3.874-0.172,6.807,4.451,6.807c3.311,0,6.165-2.043,7.135-6.229
			C252.621,357.948,249.771,356.377,246.288,354.283z"/>
		<path fill="#E2001A" d="M286.794,354.125c-1.024,4.398-3.992,17.957-14.722,17.957c-10.842,0-7.418-13.456-6.39-17.957
			c1.311-5.76,4.562-17.905,14.723-17.905C291.135,336.22,287.88,349.519,286.794,354.125z M269.676,354.125
			c-2.168,9.422-2.227,14.658,3.139,14.658c6.62,0,8.561-8.586,9.987-14.658c1.542-6.598,3.536-14.606-3.196-14.606
			C272.872,339.519,270.874,348.995,269.676,354.125z"/>
		<path fill="#E2001A" d="M301.397,336.692h3.823l-7.363,31.776h15.638l-0.741,3.142h-19.461L301.397,336.692z"/>
		<path fill="#E2001A" d="M331.973,336.692l-5.875,25.39c-0.8,3.457-0.857,6.701,3.881,6.701c4.734,0,6.334-3.299,7.131-6.701
			l5.879-25.39h3.822l-6.161,26.438c-1.256,5.444-5.766,8.952-11.413,8.952c-5.767,0-8.449-3.613-7.251-8.795l6.165-26.595H331.973z
			"/>
		<path fill="#E2001A" d="M363.467,339.834h-8.217l0.742-3.142h20.087l-0.742,3.142h-8.047l-7.363,31.776h-3.822L363.467,339.834z"
			/>
		<path fill="#E2001A" d="M391.932,339.834h-5.134l0.739-3.142h14.153l-0.741,3.142h-5.191l-6.621,28.635h5.194l-0.742,3.142
			h-14.153l0.742-3.142h5.137L391.932,339.834z"/>
		<path fill="#E2001A" d="M429.702,354.125c-1.027,4.398-3.996,17.957-14.725,17.957c-10.842,0-7.418-13.456-6.393-17.957
			c1.313-5.76,4.567-17.905,14.725-17.905C434.039,336.22,430.785,349.519,429.702,354.125z M412.581,354.125
			c-2.169,9.422-2.227,14.658,3.138,14.658c6.621,0,8.562-8.586,9.987-14.658c1.542-6.598,3.54-14.606-3.196-14.606
			C415.777,339.519,413.779,348.995,412.581,354.125z"/>
		<path fill="#E2001A" d="M441.849,336.692h4.793l4.51,29.37l0.116-0.105l1.654-7.8l4.963-21.465h3.826l-8.105,34.918h-4.793
			l-4.51-29.422l-0.112,0.105l-1.657,7.906l-4.964,21.41h-3.825L441.849,336.692z"/>
	</g>
</g>
</svg>
