<?xml version="1.0" encoding="utf-8"?>
<!-- Generator: Adobe Illustrator 16.0.0, SVG Export Plug-In . SVG Version: 6.00 Build 0)  -->
<!DOCTYPE svg PUBLIC "-//W3C//DTD SVG 1.1//EN" "http://www.w3.org/Graphics/SVG/1.1/DTD/svg11.dtd">
<svg version="1.1" id="Calque_2" xmlns="http://www.w3.org/2000/svg" xmlns:xlink="http://www.w3.org/1999/xlink" x="0px" y="0px"
	 width="500px" height="500px" viewBox="0 0 500 500" enable-background="new 0 0 500 500" xml:space="preserve">
<g>
	<rect x="140.879" y="298.092" fill="#FFE108" width="297.591" height="15.903"/>
	<rect x="25" y="186.775" fill="#1A171C" width="99.392" height="99.392"/>
	<rect x="73.498" y="228.411" fill="#FFE108" width="34.032" height="9.919"/>
	<path fill="#FFE108" d="M79.604,272.841v4.102h-9.921v-4.115c1.62,0.196,3.287,0.302,4.962,0.302
		C76.27,273.129,78.027,273.032,79.604,272.841"/>
	<path fill="#FFE108" d="M88.757,254.896l5.528,8.512c-5.664,3.64-12.405,5.753-19.64,5.753c-20.102,0-36.4-16.296-36.4-36.397
		c0-12.427,6.23-23.401,15.732-29.97l5.845,8.304c-6.9,4.728-11.426,12.668-11.426,21.666c0,14.496,11.75,26.249,26.25,26.249
		C79.841,259.013,84.683,257.501,88.757,254.896"/>
	<path fill="#FFE108" d="M93.584,250.932l7.25,7.104c6.323-6.546,10.208-15.461,10.208-25.275c0-20.103-16.295-36.396-36.396-36.396
		h-4.959v58.754h9.918v-48.167c12.207,2.252,21.29,12.95,21.29,25.81C100.894,239.813,98.109,246.214,93.584,250.932"/>
	<path fill="#1A171C" d="M176.248,195.844c-2.989-3.88-6.425-7.506-11.895-7.506c-10.052,0-15.141,7.38-15.141,19.276
		c0,9.285,4.707,18.319,14.188,18.319c6.107,0,11.325-3.626,13.676-9.034l2.736,1.336c-3.753,7.763-10.051,10.942-17.939,10.942
		c-11.641,0-20.994-9.733-20.994-21.247c0-13.168,9.669-22.265,21.755-22.265c6.489,0,12.342,3.435,15.907,8.522L176.248,195.844"/>
	<polyline fill="#1A171C" points="193.741,228.033 193.741,186.813 201.505,186.813 201.505,204.941 218.423,204.941 
		218.423,186.813 226.185,186.813 226.185,228.033 218.423,228.033 218.423,208.188 201.505,208.188 201.505,228.033 
		193.741,228.033 	"/>
	<path fill="#1A171C" d="M254.938,199.473l-5.982,15.139h12.027L254.938,199.473 M274.403,228.033h-7.948l-4.392-10.75h-14.185
		l-4.138,10.75h-3.624l16.792-42.367h0.132L274.403,228.033z"/>
	<path fill="#1A171C" d="M296.291,186.813v29.453c0,6.36,5.595,8.716,8.775,8.716c3.63,0,9.924-1.273,9.924-8.333v-29.836h3.311
		v30.79c0,5.278-4.01,11.578-14.44,11.578c-6.806,0-15.332-2.609-15.332-13.105v-29.263H296.291"/>
	<polyline fill="#1A171C" points="362.189,186.813 365.88,186.813 349.594,229.181 349.466,229.181 332.101,186.813 340.18,186.813 
		351.633,214.104 362.189,186.813 	"/>
	<rect x="380.067" y="186.813" fill="#1A171C" width="7.761" height="41.221"/>
	<polyline fill="#1A171C" points="406.468,228.033 406.468,186.813 413.401,186.813 434.967,215.186 435.093,215.186 
		435.093,186.813 438.4,186.813 438.4,228.033 434.967,228.033 409.899,195.146 409.774,195.146 409.774,228.033 406.468,228.033 	
		"/>
	<path fill="#1A171C" d="M155.607,257.658l-5.979,15.138h12.021L155.607,257.658 M175.073,286.22h-7.952l-4.389-10.751h-14.185
		l-4.137,10.751h-3.626l16.795-42.366h0.126L175.073,286.22z"/>
	<path fill="#1A171C" d="M193.522,286.22v-41.222h17.809c7.511,0,11.706,5.534,11.706,12.151c0,6.297-4.58,9.031-10.751,9.797
		l10.942,19.273h-8.523l-11.26-21.121h0.509c6.87,0,11.324-2.67,11.324-8.842c0-4.581-2.227-9.224-9.795-9.224h-4.2v39.187H193.522"
		/>
	<polyline fill="#1A171C" points="242.628,286.22 242.628,244.998 249.565,244.998 271.129,273.369 271.257,273.369 
		271.257,244.998 274.563,244.998 274.563,286.22 271.129,286.22 246.065,253.33 245.938,253.33 245.938,286.22 242.628,286.22 	"/>
	<path fill="#1A171C" d="M314.448,284.693c9.925,0,12.151-11.07,12.151-19.084s-2.227-19.084-12.151-19.084
		c-9.921,0-12.085,11.07-12.085,19.084S304.527,284.693,314.448,284.693 M314.448,243.854c11.963,0,20.484,9.605,20.484,21.756
		c0,12.151-8.521,21.756-20.484,21.756c-11.893,0-20.42-9.604-20.42-21.756C294.028,253.459,302.556,243.854,314.448,243.854z"/>
	<path fill="#1A171C" d="M362.033,244.998v29.453c0,6.36,5.598,8.715,8.777,8.715c3.625,0,9.924-1.273,9.924-8.334v-29.834h3.311
		v30.789c0,5.278-4.009,11.577-14.442,11.577c-6.807,0-15.332-2.607-15.332-13.105v-29.261H362.033"/>
	<polyline fill="#1A171C" points="402.234,244.998 411.461,244.998 421.191,259.755 431.689,244.998 436.142,244.998 
		423.289,263.001 438.432,286.22 428.823,286.22 418.329,269.998 406.627,286.22 402.361,286.22 416.168,266.689 402.234,244.998 	
		"/>
	<path fill="#1A171C" d="M42.113,306.239v5.673c-2.184,1.551-4.886,2.422-7.803,2.422c-4.993,0-9.002-3.709-9.002-8.095
		c0-5.016,4.146-8.481,9.33-8.481c2.782,0,5.292,1.308,6.82,3.248l-0.982,0.63c-1.282-1.479-2.758-2.857-5.101-2.857
		c-4.311,0-6.494,2.81-6.494,7.34c0,3.855,2.017,7.199,6.191,7.199c1.558,0,3.136-0.531,3.711-1.213v-5.865H42.113"/>
	<path fill="#1A171C" d="M47.893,313.898v-15.705h7.637c3.221,0,5.02,2.108,5.02,4.629c0,2.4-1.962,3.441-4.61,3.734l4.692,7.342
		h-3.655l-4.829-8.048h0.219c2.948,0,4.854-1.018,4.854-3.368c0-1.743-0.954-3.515-4.2-3.515h-1.802v14.931H47.893"/>
	<path fill="#1A171C" d="M75.024,313.317c4.254,0,5.213-4.216,5.213-7.272c0-3.051-0.959-7.267-5.213-7.267
		s-5.183,4.216-5.183,7.267C69.841,309.102,70.771,313.317,75.024,313.317 M75.024,297.758c5.126,0,8.784,3.661,8.784,8.287
		c0,4.631-3.658,8.289-8.784,8.289c-5.102,0-8.76-3.658-8.76-8.289C66.265,301.419,69.922,297.758,75.024,297.758z"/>
	<path fill="#1A171C" d="M93.69,298.193v11.223c0,2.424,2.4,3.317,3.767,3.317c1.552,0,4.257-0.482,4.257-3.175v-11.365h1.415v11.73
		c0,2.011-1.718,4.41-6.191,4.41c-2.919,0-6.574-0.993-6.574-4.99v-11.15H93.69"/>
	<path fill="#1A171C" d="M113.566,306.361h1.636c2.894,0,4.284-1.261,4.284-3.952c0-1.62-0.9-3.441-4.365-3.441h-1.555V306.361
		 M110.234,298.193h7.23c2.648,0,5.346,1.576,5.346,4.653c0,3.393-2.316,4.531-6.816,4.531h-2.428v6.521h-3.332V298.193z"/>
	<path fill="#1A171C" d="M463.006,198.394c1.12,0,2.025-0.533,2.025-1.708c0-1.171-0.798-1.759-2.239-1.759h-2.665v3.467H463.006
		 M467.696,205.855h-2.665l-2.079-5.332h-2.825v5.332h-2.396v-13.22h4.418c2.511,0,5.384,0.428,5.384,4.265
		c0,2.345-1.436,2.824-2.287,3.25L467.696,205.855z M473.131,199.564c0-5.863-4.796-10.659-10.657-10.659
		c-5.862,0-10.662,4.796-10.662,10.659c0,5.864,4.8,10.658,10.662,10.658C468.335,210.223,473.131,205.429,473.131,199.564z
		 M462.474,212.09c-6.875,0-12.526-5.598-12.526-12.525c0-6.876,5.651-12.524,12.526-12.524S475,192.688,475,199.564
		C475,206.492,469.349,212.09,462.474,212.09z"/>
</g>
</svg>
