<?xml version="1.0" encoding="utf-8"?>
<!-- Generator: Adobe Illustrator 16.0.0, SVG Export Plug-In . SVG Version: 6.00 Build 0)  -->
<!DOCTYPE svg PUBLIC "-//W3C//DTD SVG 1.1//EN" "http://www.w3.org/Graphics/SVG/1.1/DTD/svg11.dtd">
<svg version="1.1" id="Calque_1" xmlns="http://www.w3.org/2000/svg" xmlns:xlink="http://www.w3.org/1999/xlink" x="0px" y="0px"
	 width="500px" height="500px" viewBox="0 0 500 500" enable-background="new 0 0 500 500" xml:space="preserve">
<g>
	<g>
		<g>
			<path fill="#004494" d="M49.398,295.589C35.174,295.589,25,277.88,25,250.813c0-28.437,10.013-46.402,23.923-46.402
				c2.542,0,4.848,0.625,7.076,2.121v16.591c-2.228-1.375-4.214-1.995-6.203-1.995c-7.232,0-12.717,10.725-12.717,28.688
				c0,17.458,5.721,27.938,12.956,27.938c1.989,0,3.972-0.75,5.963-2.122v17.836C53.693,294.967,51.465,295.589,49.398,295.589z"/>
			<path fill="#004494" d="M65.294,205.538h11.207v32.928H89.14v-32.928h11.284v88.934H89.14v-38.666H76.501v38.666H65.294V205.538z
				"/>
			<path fill="#004494" d="M119.978,205.538h11.84l12.561,88.934h-11.287l-1.908-15.594h-11.365l-1.752,15.594h-11.284
				L119.978,205.538z M129.435,265.026c-1.672-13.213-2.862-26.936-3.733-41.033c-1.115,13.097-2.383,26.82-3.819,41.033H129.435z"
				/>
			<path fill="#004494" d="M185.864,258.799c0,0.871,0,1.741,0,2.617c0,9.604-0.078,16.712-1.666,21.577
				c-2.784,8.733-7.952,12.596-15.979,12.596s-13.271-3.862-16.052-12.596c-1.591-4.986-1.672-12.1-1.672-21.577
				c0-0.876,0-1.746,0-2.617v-53.262h11.287v57.251c0,11.472,0.476,17.208,6.437,17.208c5.802,0,6.439-5.24,6.439-17.208v-57.251
				h11.207V258.799z"/>
			<path fill="#004494" d="M196.759,205.538h10.964c14.068,0,20.346,5.736,20.346,23.695c0,9.601-2.228,15.717-7.148,19.456
				c5.404,3,8.027,9.361,8.027,20.337c0,8.232-1.836,14.838-5.015,19.208c-4.136,5.735-9.376,6.237-16.686,6.237h-10.489V205.538z
				 M208.914,242.457c5.718,0,8.422-3.37,8.422-10.976c0-7.859-2.704-11.48-8.5-11.48c-0.314,0-0.715,0-1.112,0v22.456
				C208.121,242.457,208.522,242.457,208.914,242.457z M209.312,278.751c5.796,0,8.264-3.488,8.264-11.478
				c0-8.475-2.467-11.844-8.5-11.844c-0.479,0-0.876,0-1.352,0v23.2C208.277,278.63,208.761,278.751,209.312,278.751z"/>
			<path fill="#004494" d="M237.838,205.538h23.859v16.461h-12.89v17.962h11.68v16.336h-11.68v20.834h12.89v17.34h-23.859V205.538z"
				/>
			<path fill="#004494" d="M277.02,252.684l-13.108-47.146h11.916l3.74,16.089c1.43,6.11,2.543,11.723,3.506,17.334
				c1.106-7.48,2.225-12.97,3.176-16.838l4.128-16.585h11.045l-13.184,47.146v41.787H277.02V252.684z"/>
			<path fill="#004494" d="M305.001,205.538h11.771c12.544,0,18.424,7.105,18.424,25.067c0,12.478-2.859,20.208-8.97,23.327
				l10.884,40.539h-11.922l-9.211-36.916v36.916h-10.977V205.538z M317.245,244.201c4.843,0,7.391-4.24,7.391-12.72
				c0-8.479-2.156-12.224-7.148-12.224c-0.484,0-0.957,0-1.51,0.124v24.695C316.369,244.077,316.842,244.201,317.245,244.201z"/>
			<path fill="#004494" d="M343.786,205.538h23.842v16.461H354.75v17.962h11.69v16.336h-11.69v20.834h12.878v17.34h-23.842V205.538z
				"/>
		</g>
	</g>
	<rect x="386.894" y="207.083" fill="#004494" width="88.083" height="88.092"/>
	<path fill="#FFFFFF" d="M410.194,256.545l-13.386,13.386c-5.107,5.107-5.119,13.392,0,18.499c5.096,5.107,13.397,5.107,18.493,0
		l13.396-13.386c5.096-5.113,5.096-13.392,0-18.499C423.579,251.436,415.302,251.436,410.194,256.545z M425.771,273.096
		l-12.418,12.417c-3.758,3.77-9.868,3.765-13.615,0c-3.771-3.771-3.771-9.869,0-13.634l12.405-12.417
		c3.77-3.761,9.869-3.761,13.628,0C429.528,263.227,429.54,269.332,425.771,273.096z"/>
	<path fill="#FFFFFF" d="M451.572,215.165l-13.386,13.386c-5.107,5.11-5.107,13.391,0,18.501c5.107,5.107,13.386,5.107,18.505-0.003
		l13.386-13.385c5.096-5.107,5.096-13.388,0-18.499C464.958,210.057,456.68,210.057,451.572,215.165z M467.16,231.715
		l-12.429,12.417c-3.759,3.764-9.857,3.761-13.628,0c-3.758-3.764-3.758-9.866,0-13.63l12.417-12.417
		c3.759-3.765,9.869-3.765,13.64,0C470.919,221.852,470.919,227.951,467.16,231.715z"/>
	<polygon fill="#004494" points="474.977,207.083 475,215.891 395.713,295.174 386.894,295.174 386.87,294.495 474.181,207.178 	"/>
	<path fill="#FFFFFF" d="M387.573,295.221l15.449-15.438c0.865-0.87,2.283-0.87,3.147,0l0,0c0.877,0.876,0.877,2.295,0,3.171
		l-12.163,12.163L387.573,295.221z"/>
	<path fill="#FFFFFF" d="M474.977,207.818l-15.898,15.904c-0.865,0.867-0.865,2.289,0,3.162l0,0c0.876,0.87,2.294,0.87,3.17,0.003
		l12.729-12.746V207.818z"/>
	<path fill="#FFFFFF" d="M446.499,239.459c0.889,0.873,0.889,2.292,0,3.162l-25.468,25.482c-0.876,0.876-2.294,0.876-3.17,0l0,0
		c-0.877-0.877-0.877-2.295,0.011-3.165l25.469-25.479C444.217,238.583,445.635,238.583,446.499,239.459L446.499,239.459z"/>
</g>
</svg>
