<?xml version="1.0" encoding="utf-8"?>
<!-- Generator: Adobe Illustrator 16.0.0, SVG Export Plug-In . SVG Version: 6.00 Build 0)  -->
<!DOCTYPE svg PUBLIC "-//W3C//DTD SVG 1.1//EN" "http://www.w3.org/Graphics/SVG/1.1/DTD/svg11.dtd">
<svg version="1.1" id="Calque_2" xmlns="http://www.w3.org/2000/svg" xmlns:xlink="http://www.w3.org/1999/xlink" x="0px" y="0px"
	 width="500px" height="500px" viewBox="0 0 500 500" enable-background="new 0 0 500 500" xml:space="preserve">
<g>
	<g>
		<path fill="#3FA3D7" d="M475,250c0,55.513-101.25,100.932-225,100.932S25,305.513,25,250c0-55.512,101.25-100.931,225-100.931
			S475,194.488,475,250z"/>
	</g>
	<linearGradient id="SVGID_1_" gradientUnits="userSpaceOnUse" x1="213.4111" y1="137.3926" x2="286.5887" y2="362.61">
		<stop  offset="0" style="stop-color:#82BAE1"/>
		<stop  offset="0.1783" style="stop-color:#6DAAD3"/>
		<stop  offset="0.5049" style="stop-color:#4C94BD"/>
		<stop  offset="0.7886" style="stop-color:#3886B0"/>
		<stop  offset="0.9956" style="stop-color:#3082AC"/>
	</linearGradient>
	<path fill="url(#SVGID_1_)" d="M250,149.069c-123.75,0-225,45.42-225,100.934c0,55.51,101.25,100.929,225,100.929
		s225-45.419,225-100.929C475,194.489,373.75,149.069,250,149.069z M258.007,334.168h-16.014
		c-109.77,0-199.582-37.875-199.582-84.165c0-46.293,89.812-84.17,199.582-84.17h16.014c109.771,0,199.582,37.876,199.582,84.17
		C457.589,296.293,367.777,334.168,258.007,334.168z"/>
	<g>
		<path d="M91.795,292.636v-17.927h7.011c1.583,0,2.792,0.086,3.624,0.256c1.167,0.238,2.161,0.666,2.985,1.285
			c1.074,0.799,1.877,1.819,2.409,3.063c0.532,1.244,0.798,2.664,0.798,4.262c0,1.361-0.181,2.568-0.542,3.619
			c-0.361,1.053-0.824,1.922-1.388,2.611c-0.565,0.689-1.183,1.23-1.854,1.627c-0.671,0.395-1.481,0.694-2.43,0.898
			c-0.949,0.203-2.039,0.306-3.27,0.306H91.795z M94.489,290.52h4.346c1.342,0,2.395-0.109,3.158-0.33
			c0.764-0.221,1.373-0.529,1.826-0.929c0.639-0.563,1.136-1.319,1.493-2.269c0.356-0.95,0.535-2.102,0.535-3.455
			c0-1.875-0.35-3.314-1.048-4.322c-0.699-1.006-1.548-1.682-2.548-2.023c-0.722-0.244-1.884-0.367-3.485-0.367h-4.276V290.52z"/>
		<path d="M123.878,292.636v-17.927h2.694v17.927H123.878z"/>
		<path d="M141.494,286.876l2.541-0.196c0.12,0.898,0.4,1.633,0.84,2.208c0.439,0.574,1.123,1.04,2.048,1.394
			c0.925,0.355,1.967,0.531,3.124,0.531c1.027,0,1.935-0.134,2.721-0.402c0.787-0.27,1.373-0.638,1.756-1.107
			c0.384-0.468,0.576-0.979,0.576-1.534c0-0.563-0.185-1.054-0.555-1.474s-0.981-0.771-1.833-1.057
			c-0.546-0.189-1.754-0.48-3.624-0.875c-1.87-0.396-3.18-0.77-3.929-1.119c-0.972-0.448-1.696-1.004-2.173-1.668
			c-0.477-0.665-0.715-1.408-0.715-2.232c0-0.904,0.292-1.75,0.875-2.537c0.583-0.787,1.435-1.385,2.555-1.793
			c1.12-0.406,2.365-0.611,3.735-0.611c1.509,0,2.839,0.215,3.992,0.644c1.152,0.427,2.039,1.058,2.659,1.89
			c0.62,0.83,0.953,1.771,1,2.824l-2.583,0.17c-0.139-1.133-0.609-1.988-1.41-2.568c-0.8-0.577-1.983-0.867-3.547-0.867
			c-1.629,0-2.816,0.264-3.562,0.789c-0.745,0.525-1.117,1.16-1.117,1.901c0,0.644,0.264,1.174,0.791,1.589
			c0.519,0.417,1.872,0.844,4.062,1.279c2.189,0.436,3.691,0.816,4.505,1.143c1.185,0.48,2.06,1.09,2.624,1.828
			c0.565,0.737,0.847,1.588,0.847,2.549c0,0.955-0.31,1.854-0.93,2.697c-0.621,0.844-1.511,1.5-2.673,1.969
			s-2.469,0.703-3.922,0.703c-1.842,0-3.386-0.236-4.631-0.709c-1.245-0.473-2.221-1.184-2.929-2.135
			C141.903,289.148,141.531,288.074,141.494,286.876z"/>
		<path d="M177.646,292.636v-15.812h-6.707v-2.115h16.134v2.115h-6.734v15.812H177.646z"/>
		<path d="M201.971,292.636v-17.927h9.025c1.814,0,3.193,0.161,4.138,0.482c0.944,0.322,1.698,0.891,2.263,1.706
			c0.565,0.815,0.847,1.717,0.847,2.702c0,1.272-0.467,2.344-1.402,3.217c-0.936,0.872-2.379,1.427-4.332,1.663
			c0.712,0.302,1.254,0.599,1.625,0.893c0.786,0.636,1.531,1.431,2.235,2.384l3.541,4.88h-3.388l-2.693-3.729
			c-0.787-1.076-1.435-1.9-1.944-2.471c-0.509-0.57-0.965-0.97-1.368-1.197c-0.403-0.229-0.813-0.388-1.229-0.479
			c-0.306-0.057-0.806-0.084-1.5-0.084h-3.124v7.96H201.971z M204.665,282.621h5.79c1.231,0,2.194-0.111,2.888-0.336
			c0.694-0.225,1.222-0.584,1.583-1.077c0.361-0.493,0.542-1.028,0.542-1.608c0-0.848-0.349-1.544-1.048-2.09
			c-0.699-0.547-1.803-0.82-3.312-0.82h-6.442V282.621z"/>
		<path d="M234.013,292.636v-17.927h2.693v17.927H234.013z"/>
		<path d="M253.438,292.636v-17.927h7.636c1.556,0,2.803,0.182,3.742,0.545c0.939,0.361,1.676,0.92,2.208,1.674
			c0.531,0.755,0.798,1.543,0.798,2.367c0,0.766-0.235,1.488-0.708,2.164c-0.473,0.677-1.185,1.223-2.138,1.639
			c1.23,0.317,2.177,0.859,2.839,1.625c0.662,0.768,0.993,1.672,0.993,2.716c0,0.84-0.202,1.62-0.604,2.342
			c-0.403,0.722-0.9,1.278-1.492,1.669c-0.594,0.392-1.336,0.687-2.229,0.887c-0.894,0.199-1.988,0.3-3.283,0.3H253.438z
			 M256.13,282.242h4.401c1.194,0,2.051-0.07,2.569-0.208c0.685-0.18,1.201-0.478,1.548-0.893c0.348-0.417,0.521-0.938,0.521-1.565
			c0-0.596-0.161-1.119-0.485-1.571c-0.325-0.452-0.787-0.763-1.389-0.93s-1.634-0.251-3.097-0.251h-4.068V282.242z M256.13,290.52
			h5.069c0.869,0,1.48-0.027,1.832-0.084c0.62-0.099,1.139-0.262,1.555-0.49c0.417-0.228,0.759-0.561,1.028-0.997
			c0.268-0.437,0.402-0.939,0.402-1.51c0-0.669-0.194-1.249-0.584-1.742c-0.388-0.493-0.928-0.84-1.616-1.04
			c-0.69-0.199-1.683-0.299-2.979-0.299h-4.707V290.52z"/>
		<path d="M296.961,274.709h2.693v10.357c0,1.802-0.231,3.232-0.693,4.291c-0.464,1.061-1.299,1.923-2.507,2.588
			c-1.208,0.664-2.793,0.996-4.755,0.996c-1.907,0-3.467-0.289-4.68-0.868s-2.078-1.417-2.596-2.513
			c-0.519-1.098-0.778-2.594-0.778-4.494v-10.357h2.693v10.344c0,1.559,0.165,2.706,0.493,3.443
			c0.329,0.738,0.894,1.307,1.694,1.705c0.8,0.4,1.779,0.6,2.937,0.6c1.981,0,3.393-0.395,4.234-1.186s1.264-2.311,1.264-4.563
			V274.709z"/>
		<path d="M320.409,292.636v-15.812h-6.707v-2.115h16.135v2.115h-6.734v15.812H320.409z"/>
		<path d="M344.146,292.636v-17.927h2.694v17.927H344.146z"/>
		<path d="M361.86,283.904c0-2.975,0.907-5.305,2.722-6.988s4.156-2.525,7.025-2.525c1.879,0,3.573,0.396,5.081,1.186
			c1.51,0.793,2.66,1.895,3.451,3.309c0.791,1.415,1.187,3.02,1.187,4.812c0,1.819-0.416,3.444-1.249,4.88
			c-0.833,1.435-2.014,2.521-3.54,3.259c-1.527,0.737-3.176,1.106-4.943,1.106c-1.916,0-3.629-0.408-5.138-1.223
			c-1.509-0.815-2.651-1.929-3.43-3.339C362.25,286.971,361.86,285.478,361.86,283.904z M364.638,283.941
			c0,2.16,0.659,3.861,1.979,5.105c1.318,1.243,2.974,1.864,4.964,1.864c2.027,0,3.695-0.627,5.005-1.884
			c1.311-1.255,1.965-3.036,1.965-5.343c0-1.46-0.28-2.733-0.84-3.821c-0.561-1.088-1.38-1.932-2.458-2.531
			s-2.288-0.898-3.631-0.898c-1.907,0-3.547,0.576-4.922,1.73C365.324,279.316,364.638,281.243,364.638,283.941z"/>
		<path d="M397.866,292.636v-17.927h2.763l10.691,14.074v-14.074h2.583v17.927h-2.764l-10.691-14.087v14.087H397.866z"/>
	</g>
	<path d="M190.524,215.939l0.005-0.063h-23.956l-4.443,50.795h23.956l0.005-0.063c5.378-0.829,10.469-10.715,11.517-22.689
		l0.462-5.289C199.119,226.654,195.758,216.769,190.524,215.939z M191.387,239.564l-0.289,4.047
		c-0.655,9.166-3.84,16.732-7.205,17.369l-0.003,0.047h-14.986l2.78-38.88h14.986l-0.003,0.048
		C189.94,222.831,192.043,230.397,191.387,239.564z"/>
	<path d="M103.507,261.027l0.005-0.047c-3.253-0.637-5.114-8.203-4.166-17.369l0.418-4.047c0.948-9.167,4.375-16.733,7.761-17.368
		l0.005-0.048h15.625l0.549-6.271h-18.938l-0.006,0.063c-5.378,0.829-10.469,10.714-11.517,22.691l-0.462,5.289
		c-1.048,11.975,2.313,21.86,7.547,22.689l-0.005,0.063h18.938l0.494-5.645H103.507z"/>
	<polygon points="206.846,266.672 199.822,266.672 204.387,215.876 211.411,215.876 	"/>
	<polygon points="247.772,215.876 215,215.876 214.507,221.52 227.485,221.52 223.427,266.672 230.451,266.672 234.509,221.52 
		247.278,221.521 	"/>
	<polygon points="278.788,215.876 276.699,239.143 257.008,239.142 259.097,215.876 252.073,215.876 247.508,266.713 
		254.532,266.713 256.501,244.786 276.192,244.786 274.223,266.713 281.247,266.713 285.812,215.876 	"/>
	<path d="M302.683,222.196l0.005-0.048h20.644l0.548-6.271h-23.955l-0.006,0.063c-5.378,0.829-10.469,10.714-11.518,22.691
		l-0.462,5.289c-1.048,11.975,2.314,21.86,7.547,22.689l-0.005,0.063h23.955l0.494-5.645h-21.266l0.006-0.047
		c-3.112-0.609-4.944-7.566-4.268-16.194h26.718l0.494-5.644l-26.641,0C295.981,230.168,299.351,222.821,302.683,222.196z"/>
	<polygon points="410.765,215.876 410.765,215.876 401.734,215.876 387.353,254.965 380.663,215.876 371.466,215.876 
		371.466,215.876 367.429,215.876 362.864,267.089 369.888,267.089 373.113,230.899 380.831,266.672 392.035,266.672 
		406.452,231.921 406.452,231.919 403.317,267.089 410.341,267.089 414.906,215.876 	"/>
	<path d="M351.869,215.914l0.003-0.037h-17.366h-6.59h-0.434l-4.565,51.212h7.023l1.901-21.32h10.033l8.019,20.903h9.698
		l-8.137-21.211c4.711-1.284,8.546-6.666,8.938-13.081l0.19-3.113C361.016,222.219,357.145,216.402,351.869,215.914z
		 M353.135,229.415l-0.113,1.835c-0.257,4.153-2.982,7.583-6.157,7.87l-0.001,0.022h-14.254l0.399-6.467l0.993-11.153h13.948
		l-0.002,0.022C351.088,221.832,353.392,225.261,353.135,229.415z"/>
	<path d="M144.623,215.876h-1.003c-9.729,0-18.383,7.93-19.231,17.622l-1.364,15.593c-0.848,9.691,6.418,17.621,16.148,17.621h1.003
		c9.729,0,18.383-7.93,19.231-17.621l1.364-15.593C161.618,223.807,154.352,215.876,144.623,215.876z M155.468,235.688
		l-0.981,11.212c-0.61,6.969-6.833,12.671-13.828,12.671h-0.721c-6.996,0-12.221-5.702-11.611-12.671l0.981-11.212
		c0.61-6.969,6.833-12.671,13.828-12.671h0.721C150.853,223.018,156.078,228.719,155.468,235.688z"/>
	<path fill="#E2001A" d="M189.521,214.936l0.005-0.063h-23.956l-4.443,50.795h23.956l0.005-0.063
		c5.378-0.83,10.469-10.715,11.517-22.69l0.462-5.289C198.116,225.65,194.754,215.765,189.521,214.936z M190.383,238.561
		l-0.289,4.047c-0.655,9.167-3.84,16.732-7.205,17.369l-0.003,0.048H167.9l2.78-38.88h14.986l-0.003,0.049
		C188.937,221.828,191.04,229.394,190.383,238.561z"/>
	<path fill="#E2001A" d="M102.504,260.024l0.005-0.048c-3.253-0.637-5.114-8.202-4.166-17.369l0.418-4.047
		c0.948-9.167,4.375-16.733,7.761-17.368l0.005-0.049h15.625l0.549-6.271h-18.938l-0.005,0.063
		c-5.378,0.829-10.47,10.714-11.518,22.691l-0.462,5.289c-1.048,11.975,2.313,21.86,7.547,22.69l-0.005,0.063h18.938l0.494-5.644
		H102.504z"/>
	<polygon fill="#E2001A" points="205.842,265.668 198.818,265.668 203.384,214.873 210.407,214.873 	"/>
	<polygon fill="#E2001A" points="246.769,214.873 213.997,214.873 213.503,220.516 226.482,220.517 222.424,265.668 
		229.447,265.668 233.505,220.517 246.275,220.517 	"/>
	<polygon fill="#E2001A" points="277.785,214.873 275.695,238.139 256.005,238.139 258.094,214.873 251.07,214.873 246.505,265.709 
		253.528,265.709 255.498,243.783 275.189,243.783 273.22,265.709 280.243,265.709 284.809,214.873 	"/>
	<path fill="#E2001A" d="M301.68,221.193l0.005-0.049h20.643l0.549-6.271H298.92l-0.006,0.063
		c-5.377,0.829-10.469,10.714-11.517,22.691l-0.463,5.289c-1.047,11.975,2.314,21.86,7.547,22.69l-0.005,0.063h23.956l0.493-5.644
		H297.66l0.006-0.048c-3.112-0.608-4.944-7.564-4.268-16.194h26.719l0.493-5.644l-26.641,0
		C294.979,229.165,298.348,221.818,301.68,221.193z"/>
	<polygon fill="#E2001A" points="409.761,214.873 409.761,214.873 400.73,214.873 386.35,253.962 379.66,214.873 370.463,214.873 
		370.463,214.873 366.426,214.873 361.86,266.086 368.885,266.086 372.11,229.896 379.827,265.668 391.032,265.668 405.448,230.918 
		405.448,230.917 402.314,266.086 409.338,266.086 413.903,214.873 	"/>
	<path fill="#E2001A" d="M350.865,214.91l0.003-0.037h-17.365h-6.59h-0.435l-4.564,51.213h7.023l1.9-21.32h10.034l8.019,20.902
		h9.698l-8.137-21.211c4.71-1.284,8.545-6.666,8.938-13.081l0.189-3.113C360.013,221.216,356.142,215.398,350.865,214.91z
		 M352.132,228.412l-0.114,1.835c-0.256,4.154-2.982,7.583-6.157,7.87l-0.001,0.022h-14.254l0.399-6.467l0.994-11.153h13.948
		l-0.002,0.022C350.085,220.829,352.389,224.258,352.132,228.412z"/>
	<path fill="#E2001A" d="M143.619,214.873h-1.003c-9.729,0-18.383,7.93-19.231,17.622l-1.364,15.593
		c-0.848,9.691,6.419,17.621,16.148,17.621h1.003c9.729,0,18.383-7.93,19.231-17.621l1.364-15.593
		C160.615,222.803,153.348,214.873,143.619,214.873z M154.464,234.685l-0.981,11.212c-0.61,6.97-6.833,12.671-13.828,12.671h-0.721
		c-6.996,0-12.221-5.701-11.611-12.671l0.981-11.212c0.61-6.969,6.833-12.671,13.828-12.671h0.721
		C149.849,222.014,155.074,227.716,154.464,234.685z"/>
	<g>
		<path fill="#FFFFFF" d="M91.379,292.33v-17.928h7.012c1.583,0,2.791,0.087,3.624,0.258c1.167,0.236,2.161,0.664,2.985,1.284
			c1.074,0.798,1.877,1.819,2.409,3.063c0.532,1.242,0.798,2.664,0.798,4.26c0,1.363-0.181,2.568-0.542,3.62
			s-0.824,1.923-1.388,2.611c-0.565,0.688-1.183,1.231-1.854,1.626c-0.671,0.396-1.481,0.695-2.43,0.898
			c-0.949,0.205-2.039,0.307-3.27,0.307H91.379z M94.073,290.215h4.346c1.342,0,2.395-0.11,3.159-0.33
			c0.764-0.221,1.372-0.531,1.826-0.93c0.639-0.563,1.136-1.318,1.493-2.27c0.356-0.949,0.535-2.101,0.535-3.453
			c0-1.875-0.35-3.316-1.048-4.323c-0.699-1.007-1.548-1.681-2.548-2.023c-0.722-0.245-1.884-0.367-3.485-0.367h-4.276V290.215z"/>
		<path fill="#FFFFFF" d="M123.463,292.33v-17.928h2.694v17.928H123.463z"/>
		<path fill="#FFFFFF" d="M141.079,286.57l2.541-0.195c0.12,0.896,0.4,1.632,0.84,2.207c0.439,0.574,1.123,1.039,2.048,1.395
			c0.925,0.354,1.967,0.531,3.125,0.531c1.027,0,1.934-0.135,2.721-0.403c0.787-0.27,1.373-0.638,1.756-1.106
			c0.384-0.469,0.576-0.98,0.576-1.535c0-0.563-0.185-1.053-0.555-1.474c-0.371-0.419-0.981-0.772-1.833-1.058
			c-0.546-0.188-1.754-0.479-3.624-0.875c-1.87-0.395-3.18-0.768-3.929-1.119c-0.972-0.447-1.696-1.004-2.173-1.668
			s-0.715-1.408-0.715-2.232c0-0.904,0.292-1.75,0.875-2.536c0.583-0.787,1.435-1.385,2.555-1.792
			c1.12-0.408,2.365-0.611,3.735-0.611c1.509,0,2.839,0.214,3.992,0.643c1.152,0.427,2.039,1.057,2.659,1.889
			c0.62,0.831,0.953,1.773,1,2.825l-2.583,0.171c-0.139-1.133-0.609-1.99-1.409-2.568c-0.801-0.578-1.983-0.869-3.548-0.869
			c-1.629,0-2.816,0.264-3.561,0.789c-0.746,0.526-1.118,1.16-1.118,1.902c0,0.644,0.264,1.174,0.791,1.59
			c0.519,0.416,1.872,0.842,4.062,1.278c2.189,0.437,3.691,0.817,4.505,1.142c1.185,0.481,2.06,1.091,2.624,1.828
			c0.565,0.738,0.847,1.589,0.847,2.551c0,0.953-0.31,1.852-0.93,2.695s-1.511,1.501-2.673,1.969
			c-1.162,0.47-2.469,0.704-3.922,0.704c-1.842,0-3.386-0.236-4.63-0.71c-1.245-0.472-2.222-1.184-2.93-2.134
			C141.488,288.843,141.116,287.769,141.079,286.57z"/>
		<path fill="#FFFFFF" d="M177.23,292.33v-15.812h-6.707v-2.116h16.134v2.116h-6.734v15.812H177.23z"/>
		<path fill="#FFFFFF" d="M201.556,292.33v-17.928h9.025c1.814,0,3.193,0.162,4.138,0.483c0.944,0.323,1.699,0.892,2.263,1.706
			c0.564,0.815,0.847,1.717,0.847,2.703c0,1.271-0.467,2.344-1.402,3.217c-0.936,0.871-2.379,1.426-4.332,1.662
			c0.712,0.301,1.254,0.599,1.625,0.893c0.786,0.636,1.532,1.43,2.235,2.384l3.541,4.88h-3.388l-2.693-3.729
			c-0.787-1.077-1.435-1.899-1.943-2.47c-0.51-0.572-0.965-0.971-1.368-1.199s-0.812-0.387-1.229-0.477
			c-0.306-0.057-0.806-0.086-1.5-0.086h-3.124v7.961H201.556z M204.25,282.315h5.79c1.231,0,2.194-0.112,2.888-0.337
			c0.694-0.224,1.222-0.582,1.583-1.076c0.361-0.493,0.542-1.029,0.542-1.607c0-0.848-0.349-1.545-1.048-2.092
			c-0.699-0.545-1.803-0.818-3.312-0.818h-6.442V282.315z"/>
		<path fill="#FFFFFF" d="M233.597,292.33v-17.928h2.694v17.928H233.597z"/>
		<path fill="#FFFFFF" d="M253.021,292.33v-17.928h7.637c1.555,0,2.802,0.183,3.742,0.545c0.939,0.363,1.675,0.922,2.207,1.675
			c0.532,0.755,0.799,1.544,0.799,2.366c0,0.767-0.236,1.488-0.709,2.165c-0.472,0.677-1.185,1.223-2.138,1.639
			c1.23,0.317,2.178,0.859,2.84,1.626c0.661,0.767,0.992,1.672,0.992,2.715c0,0.84-0.201,1.621-0.604,2.342
			c-0.402,0.721-0.9,1.277-1.492,1.668c-0.593,0.393-1.335,0.688-2.229,0.888s-1.987,0.3-3.283,0.3H253.021z M255.715,281.936h4.401
			c1.194,0,2.051-0.068,2.569-0.207c0.685-0.18,1.201-0.478,1.548-0.893c0.347-0.416,0.521-0.938,0.521-1.566
			c0-0.594-0.162-1.119-0.486-1.57c-0.324-0.453-0.787-0.762-1.389-0.93c-0.602-0.167-1.633-0.251-3.096-0.251h-4.068V281.936z
			 M255.715,290.215h5.068c0.869,0,1.48-0.029,1.832-0.086c0.621-0.098,1.139-0.262,1.556-0.49c0.416-0.227,0.758-0.561,1.027-0.996
			c0.268-0.436,0.403-0.939,0.403-1.51c0-0.668-0.195-1.25-0.584-1.742c-0.389-0.494-0.928-0.84-1.617-1.039
			c-0.689-0.201-1.683-0.301-2.979-0.301h-4.707V290.215z"/>
		<path fill="#FFFFFF" d="M296.545,274.402h2.694v10.357c0,1.803-0.231,3.233-0.694,4.293s-1.298,1.922-2.506,2.586
			c-1.209,0.664-2.793,0.997-4.756,0.997c-1.906,0-3.467-0.289-4.679-0.868c-1.213-0.579-2.078-1.417-2.597-2.514
			c-0.519-1.096-0.778-2.594-0.778-4.494v-10.357h2.694v10.346c0,1.558,0.164,2.705,0.492,3.443c0.33,0.737,0.895,1.306,1.694,1.705
			c0.801,0.399,1.779,0.6,2.937,0.6c1.981,0,3.393-0.396,4.235-1.188c0.842-0.789,1.263-2.311,1.263-4.561V274.402z"/>
		<path fill="#FFFFFF" d="M319.993,292.33v-15.812h-6.706v-2.116h16.135v2.116h-6.735v15.812H319.993z"/>
		<path fill="#FFFFFF" d="M343.731,292.33v-17.928h2.693v17.928H343.731z"/>
		<path fill="#FFFFFF" d="M361.445,283.598c0-2.974,0.907-5.304,2.721-6.987c1.814-1.683,4.157-2.524,7.025-2.524
			c1.88,0,3.574,0.395,5.082,1.186c1.509,0.791,2.659,1.894,3.451,3.308c0.791,1.415,1.187,3.019,1.187,4.812
			c0,1.818-0.417,3.444-1.249,4.88c-0.833,1.435-2.014,2.521-3.541,3.259s-3.176,1.106-4.943,1.106
			c-1.915,0-3.628-0.407-5.137-1.224c-1.51-0.814-2.651-1.928-3.43-3.338C361.834,286.664,361.445,285.172,361.445,283.598z
			 M364.222,283.636c0,2.161,0.66,3.861,1.979,5.104c1.319,1.244,2.974,1.865,4.964,1.865c2.027,0,3.695-0.627,5.006-1.883
			c1.31-1.256,1.964-3.037,1.964-5.344c0-1.459-0.28-2.733-0.84-3.82c-0.56-1.09-1.379-1.934-2.457-2.533
			c-1.079-0.598-2.289-0.898-3.632-0.898c-1.906,0-3.547,0.578-4.921,1.73C364.909,279.012,364.222,280.938,364.222,283.636z"/>
		<path fill="#FFFFFF" d="M397.451,292.33v-17.928h2.762l10.691,14.076v-14.076h2.583v17.928h-2.763l-10.691-14.087v14.087H397.451z
			"/>
	</g>
</g>
</svg>
