<?xml version="1.0" encoding="utf-8"?>
<!-- Generator: Adobe Illustrator 16.0.0, SVG Export Plug-In . SVG Version: 6.00 Build 0)  -->
<!DOCTYPE svg PUBLIC "-//W3C//DTD SVG 1.1//EN" "http://www.w3.org/Graphics/SVG/1.1/DTD/svg11.dtd">
<svg version="1.1" id="Calque_2" xmlns="http://www.w3.org/2000/svg" xmlns:xlink="http://www.w3.org/1999/xlink" x="0px" y="0px"
	 width="500px" height="500px" viewBox="0 0 500 500" enable-background="new 0 0 500 500" xml:space="preserve">
<g>
	<rect x="158.06" y="211.675" fill="#009AB1" width="17.377" height="80.446"/>
	<rect x="188.266" y="211.675" fill="#009AB1" width="17.371" height="80.446"/>
	<rect x="379.902" y="241.606" fill="#009AB1" width="17.377" height="50.515"/>
	<polygon fill="#009AB1" points="475,292.121 450.287,264.684 471.066,241.606 448.352,241.606 438.931,252.067 429.516,241.606 
		406.801,241.606 427.573,264.684 402.867,292.121 425.581,292.121 438.931,277.293 452.286,292.121 	"/>
	<path fill="#009AB1" d="M119.24,240.804c-16.575,0-30.137,12.008-30.137,26.679s13.562,26.68,30.137,26.68
		s30.137-12.009,30.137-26.68S135.815,240.804,119.24,240.804z M119.24,279.06c-6.358,0-11.558-5.205-11.558-11.576
		c0-6.37,5.199-11.576,11.558-11.576c6.358,0,11.558,5.206,11.558,11.576C130.797,273.854,125.598,279.06,119.24,279.06z"/>
	<path fill="#009AB1" d="M244.325,240.804c-16.576,0-30.138,12.008-30.138,26.679s13.562,26.68,30.138,26.68
		c16.575,0,30.137-12.009,30.137-26.68S260.899,240.804,244.325,240.804z M244.325,279.06c-6.358,0-11.558-5.205-11.558-11.576
		c0-6.37,5.199-11.576,11.558-11.576c6.358,0,11.557,5.206,11.557,11.576C255.882,273.854,250.683,279.06,244.325,279.06z"/>
	<path fill="#009AB1" d="M80.282,269.125c-3.815,4.141-9.315,6.797-15.51,6.797c-11.507,0-20.829-8.983-20.829-20.064
		c0-11.082,9.321-20.065,20.829-20.065c6.195,0,11.695,2.656,15.51,6.797v-22.013c-4.767-1.948-10.004-3.025-15.51-3.025
		C42.803,217.551,25,234.703,25,255.857c0,21.154,17.803,38.306,39.772,38.306c5.506,0,10.743-1.077,15.51-3.025V269.125z"/>
	<path fill="#009AB1" d="M349.827,240.804c-7.573,0-14.013,4.961-16.5,11.833c-2.487-6.871-8.927-11.833-16.506-11.833
		c-7.116,0-13.249,4.378-16.03,10.599v-9.797h-17.377v50.515h15.767h0.939h0.671v-31.184c1.297-3.652,4.347-6.233,7.88-6.233
		c4.705,0,8.551,4.573,8.551,10.167v27.243v0.007h14.966h0.939h1.341v-32.649c1.516-2.851,4.178-4.768,7.21-4.768
		c4.704,0,8.551,4.573,8.551,10.167v27.243v0.007h17.245v-33.332C367.474,248.897,359.531,240.804,349.827,240.804z"/>
	<g>
		<path fill="#009AB1" d="M403.851,221.854c0,2.869-0.714,5.544-2.148,8.019c-1.435,2.48-3.39,4.429-5.87,5.857
			c-2.475,1.428-5.149,2.143-8.018,2.143c-2.857,0-5.525-0.714-8-2.143s-4.429-3.376-5.869-5.857
			c-1.429-2.475-2.149-5.149-2.149-8.019c0-2.856,0.721-5.525,2.149-8.012c1.44-2.481,3.395-4.435,5.869-5.863
			c2.475-1.429,5.143-2.143,8-2.143c2.868,0,5.543,0.714,8.018,2.143c2.48,1.428,4.436,3.382,5.87,5.863
			C403.137,216.33,403.851,218.998,403.851,221.854z M400.743,221.854c0-3.57-1.259-6.615-3.79-9.146
			c-2.524-2.524-5.575-3.784-9.139-3.784c-3.564,0-6.615,1.259-9.141,3.784c-2.53,2.531-3.789,5.575-3.789,9.146
			c0,3.571,1.259,6.615,3.789,9.14c2.525,2.531,5.576,3.79,9.141,3.79c3.563,0,6.614-1.259,9.139-3.79
			C399.484,228.47,400.743,225.425,400.743,221.854z M380.547,213.292h7.668c2.167,0,3.74,0.438,4.711,1.309
			c0.971,0.877,1.453,2.048,1.453,3.514c0,1.153-0.369,2.143-1.108,2.982c-0.746,0.839-1.911,1.447-3.502,1.829
			c0.657,0.25,1.14,0.52,1.447,0.796c0.432,0.395,0.89,0.971,1.365,1.741c0.025,0.057,0.946,1.71,2.769,4.955h-5.036
			c-1.642-3.257-2.737-5.206-3.295-5.845c-0.563-0.639-1.121-0.958-1.686-0.958c-0.119,0-0.301,0.025-0.526,0.063v6.74h-4.26
			V213.292z M384.807,220.552h1.854c1.228,0,2.099-0.201,2.6-0.595c0.508-0.401,0.758-0.915,0.758-1.547
			c0-0.626-0.237-1.14-0.72-1.541c-0.482-0.395-1.31-0.595-2.475-0.595h-2.018V220.552z"/>
	</g>
</g>
</svg>
