<?xml version="1.0" encoding="utf-8"?>
<!-- Generator: Adobe Illustrator 16.0.0, SVG Export Plug-In . SVG Version: 6.00 Build 0)  -->
<!DOCTYPE svg PUBLIC "-//W3C//DTD SVG 1.1//EN" "http://www.w3.org/Graphics/SVG/1.1/DTD/svg11.dtd">
<svg version="1.1" id="Calque_2" xmlns="http://www.w3.org/2000/svg" xmlns:xlink="http://www.w3.org/1999/xlink" x="0px" y="0px"
	 width="500px" height="500px" viewBox="0 0 500 500" enable-background="new 0 0 500 500" xml:space="preserve">
<g>
	<rect x="25" y="206.802" fill="#0068AE" width="450" height="86.396"/>
	<g>
		<path fill="#FFFFFF" d="M130.866,223.551h-6.615c-13.281,0-24.148,10.867-24.148,24.148v5.98c0,13.28,10.867,24.146,24.148,24.146
			h6.615c13.282,0,24.148-10.866,24.148-24.146v-5.98C155.014,234.417,144.148,223.551,130.866,223.551z M138.897,254.738
			c0,6.284-4.852,11.426-10.781,11.426c-5.931,0-10.782-5.142-10.782-11.426v-8.099c0-6.286,4.852-11.428,10.782-11.428
			c5.93,0,10.781,5.142,10.781,11.428V254.738z"/>
		<polygon fill="#FFFFFF" points="176.533,224.134 160.076,224.134 160.076,276.923 169.298,276.923 176.533,276.923 
			201.576,276.923 201.576,263.727 176.533,263.727 		"/>
		<polygon fill="#FFFFFF" points="221.77,224.134 205.313,224.134 205.313,276.923 214.535,276.923 221.77,276.923 246.813,276.923 
			246.813,263.727 221.77,263.727 		"/>
		<polygon fill="#FFFFFF" points="320.115,224.134 303.658,224.134 303.658,276.923 312.881,276.923 320.115,276.923 
			345.159,276.923 345.159,263.727 320.115,263.727 		"/>
		<rect x="349.452" y="224.134" fill="#FFFFFF" width="16.378" height="52.789"/>
		<path fill="#FFFFFF" d="M73.497,266.164c-5.655,0-10.282-5.021-10.282-11.159v-8.633c0-6.138,4.627-11.16,10.282-11.16
			c4.579,0,8.481,3.292,9.802,7.803l14.609-3.356c-3.146-9.332-11.982-16.108-22.34-16.108h-5.203
			c-12.97,0-23.582,10.612-23.582,23.582v7.113c0,12.97,10.612,23.58,23.582,23.58h5.203c10.938,0,20.171-7.557,22.804-17.701
			l-14.62-4.544C83.473,261.451,78.973,266.164,73.497,266.164z"/>
		<path fill="#FFFFFF" d="M274.48,266.164c-5.654,0-10.281-5.021-10.281-11.159v-8.633c0-6.138,4.627-11.16,10.281-11.16
			c4.579,0,8.482,3.292,9.803,7.803l14.608-3.356c-3.146-9.332-11.981-16.108-22.339-16.108h-5.204
			c-12.97,0-23.581,10.612-23.581,23.582v7.113c0,12.97,10.611,23.58,23.581,23.58h5.204c10.937,0,20.172-7.557,22.804-17.701
			l-14.62-4.544C284.456,261.451,279.956,266.164,274.48,266.164z"/>
		<path fill="#FFFFFF" d="M404.329,224.134h-4.419h-1.158h-8.382h-5.565h-10.813v52.789h16.378v-19.636h8.382h1.158h4.419
			c7.933,0,14.424-6.491,14.424-14.423v-4.307C418.753,230.625,412.262,224.134,404.329,224.134z M395.323,246.792h-1.481h-2.117
			h-1.514v-0.135v-11.655v-0.135h1.514h2.117h1.481c3.966,0,7.211,2.683,7.211,5.963
			C402.534,244.109,399.289,246.792,395.323,246.792z"/>
		<path fill="#FFFFFF" d="M443.955,241.456c-0.297-0.271-0.763-0.527-1.398-0.771c1.54-0.364,2.67-0.953,3.385-1.763
			c0.717-0.811,1.075-1.77,1.075-2.878c0-1.418-0.47-2.551-1.409-3.395c-0.939-0.845-2.456-1.267-4.551-1.267h-7.398v16.541h4.115
			v-6.507c0.217-0.041,0.386-0.061,0.507-0.061c0.541,0,1.081,0.308,1.622,0.922c0.54,0.615,1.601,2.497,3.182,5.646h4.865
			c-1.757-3.135-2.648-4.73-2.676-4.784C444.813,242.395,444.375,241.835,443.955,241.456z M442.07,237.817
			c-0.486,0.386-1.324,0.578-2.513,0.578h-1.784v-4.135h1.945c1.122,0,1.916,0.192,2.382,0.578c0.467,0.385,0.699,0.882,0.699,1.49
			C442.8,236.936,442.557,237.432,442.07,237.817z"/>
		<path fill="#FFFFFF" d="M454.081,231.919c-1.386-2.399-3.273-4.287-5.666-5.666c-2.392-1.378-4.973-2.067-7.743-2.067
			c-2.756,0-5.33,0.689-7.723,2.067c-2.392,1.378-4.281,3.267-5.665,5.666c-1.386,2.398-2.078,4.976-2.078,7.733
			c0,2.77,0.692,5.351,2.078,7.743c1.384,2.391,3.273,4.277,5.665,5.656c2.393,1.378,4.967,2.067,7.723,2.067
			c2.771,0,5.352-0.689,7.743-2.067c2.393-1.379,4.28-3.265,5.666-5.656c1.385-2.392,2.077-4.973,2.077-7.743
			C456.158,236.896,455.466,234.318,454.081,231.919z M449.499,248.479c-2.438,2.439-5.381,3.658-8.827,3.658
			c-3.445,0-6.389-1.219-8.827-3.658c-2.439-2.439-3.658-5.381-3.658-8.827c0-3.446,1.219-6.388,3.658-8.828
			c2.438-2.439,5.382-3.659,8.827-3.659c3.446,0,6.389,1.22,8.827,3.659c2.44,2.439,3.659,5.381,3.659,8.828
			C453.158,243.098,451.939,246.041,449.499,248.479z"/>
	</g>
</g>
</svg>
