<?xml version="1.0" encoding="utf-8"?>
<!-- Generator: Adobe Illustrator 16.0.0, SVG Export Plug-In . SVG Version: 6.00 Build 0)  -->
<!DOCTYPE svg PUBLIC "-//W3C//DTD SVG 1.1//EN" "http://www.w3.org/Graphics/SVG/1.1/DTD/svg11.dtd">
<svg version="1.1" id="Calque_2" xmlns="http://www.w3.org/2000/svg" xmlns:xlink="http://www.w3.org/1999/xlink" x="0px" y="0px"
	 width="500px" height="500px" viewBox="0 0 500 500" enable-background="new 0 0 500 500" xml:space="preserve">
<g>
	<polygon fill="#9ABDE1" points="25,78.535 475,78.535 255.427,469.066 	"/>
	<path stroke="#000000" stroke-width="3.1579" stroke-miterlimit="10" d="M103.638,178.707l7.278,11.152l-0.87,0.813
		c-0.208-0.032-0.4-0.061-0.566-0.08c-0.155-0.014-0.384-0.019-0.672-0.019c-0.21,0-1.974,0.785-5.28,2.361
		c-3.306,1.58-6.907,2.975-10.805,4.175c-3.906,1.203-7.951,1.809-12.158,1.809c-4.743,0-9.207-0.605-13.396-1.809
		c-4.184-1.201-7.956-3.028-11.317-5.469c-3.362-2.449-5.966-5.435-7.814-8.962c-1.857-3.535-2.777-7.569-2.777-12.121
		c0-4.546,0.92-8.58,2.777-12.094c1.849-3.511,4.421-6.483,7.734-8.908c3.306-2.428,7.067-4.242,11.291-5.451
		c4.221-1.204,8.722-1.806,13.502-1.806c5.718,0,11.787,0.861,18.225,2.596c1.828,0.504,3.564,1.078,5.224,1.708
		c1.648,0.625,2.519,0.945,2.585,0.945c0.328,0,0.846-0.462,1.566-1.382l1.673,1.278l-8.623,12.681l-1.134-0.718
		c0-0.166-0.069-0.627-0.216-1.374c-0.328-1.492-2.655-2.98-6.977-4.458c-4.335-1.475-8.444-2.214-12.324-2.214
		c-3.193,0-6.173,0.418-8.919,1.251c-2.75,0.827-5.21,2.06-7.388,3.695c-2.171,1.622-3.86,3.631-5.063,6.032
		c-1.203,2.393-1.801,5.026-1.801,7.913c0,3.903,1.035,7.289,3.119,10.162c2.086,2.868,4.904,5.059,8.463,6.563
		c3.559,1.51,7.419,2.271,11.589,2.271c2.986,0,6.217-0.427,9.709-1.27c3.479-0.851,6.4-1.937,8.756-3.263
		c2.35-1.326,3.53-2.628,3.53-3.924c0-0.307-0.16-0.726-0.488-1.27L103.638,178.707z"/>
	<path stroke="#000000" stroke-width="3.1579" stroke-miterlimit="10" d="M455.759,178.707l7.278,11.152l-0.881,0.813
		c-0.208-0.032-0.405-0.061-0.565-0.08c-0.16-0.014-0.384-0.019-0.678-0.019c-0.197,0-1.975,0.785-5.277,2.361
		c-3.308,1.58-6.91,2.975-10.811,4.175c-3.896,1.203-7.939,1.809-12.149,1.809c-4.749,0-9.216-0.605-13.394-1.809
		c-4.184-1.201-7.956-3.028-11.313-5.469c-3.366-2.449-5.971-5.435-7.822-8.962c-1.852-3.535-2.774-7.569-2.774-12.121
		c0-4.546,0.923-8.58,2.774-12.094c1.852-3.511,4.418-6.483,7.737-8.908c3.303-2.428,7.064-4.242,11.285-5.451
		c4.216-1.204,8.735-1.806,13.506-1.806c5.715,0,11.781,0.861,18.222,2.596c1.825,0.504,3.575,1.078,5.229,1.708
		c1.654,0.625,2.519,0.945,2.588,0.945c0.325,0,0.843-0.462,1.558-1.382l1.676,1.278l-8.623,12.681l-1.136-0.718
		c0-0.166-0.06-0.627-0.209-1.374c-0.33-1.492-2.662-2.98-6.979-4.458c-4.344-1.475-8.437-2.214-12.326-2.214
		c-3.196,0-6.18,0.418-8.917,1.251c-2.753,0.827-5.208,2.06-7.39,3.695c-2.172,1.622-3.858,3.631-5.069,6.032
		c-1.195,2.393-1.804,5.026-1.804,7.913c0,3.903,1.041,7.289,3.138,10.162c2.07,2.868,4.893,5.059,8.457,6.563
		c3.554,1.51,7.417,2.271,11.585,2.271c2.988,0,6.216-0.427,9.711-1.27c3.479-0.851,6.397-1.937,8.756-3.263
		c2.343-1.326,3.527-2.628,3.527-3.924c0-0.307-0.16-0.726-0.49-1.27L455.759,178.707z"/>
	<path d="M74.331,216.138h3.212v25.191h-3.212V216.138z"/>
	<path d="M88.071,241.329v-25.191h0.635l19.351,19.305v-19.305h2.86v25.191h-0.648l-19.193-19.07v19.07H88.071z"/>
	<path d="M345.278,241.329v-25.191h0.641l19.343,19.305v-19.305h2.865v25.191h-0.641l-19.198-19.07v19.07H345.278z"/>
	<path d="M116.327,218.606v-2.468h24.756v2.468h-10.744v22.723h-3.274v-22.723H116.327z"/>
	<path d="M266.878,218.606v-2.468h24.742v2.468h-10.73v22.723h-3.281v-22.723H266.878z"/>
	<path d="M146.085,216.138h18.393v2.468h-15.186v7.895h15.063v2.468h-15.063v9.893h15.063v2.468h-18.27V216.138z"/>
	<path d="M176.924,216.138h6.39c3.564,0,5.984,0.118,7.246,0.347c1.907,0.344,3.455,1.078,4.65,2.206
		c1.192,1.123,1.79,2.505,1.79,4.151c0,1.377-0.414,2.58-1.235,3.621c-0.819,1.038-1.996,1.825-3.521,2.356
		c-1.529,0.531-3.645,0.803-6.334,0.813l11.547,11.696h-3.964l-11.547-11.696h-1.814v11.696h-3.207V216.138z M180.131,218.606v8.562
		l5.534,0.029c2.14,0,3.724-0.152,4.754-0.475c1.024-0.32,1.825-0.833,2.401-1.529c0.571-0.705,0.862-1.486,0.862-2.356
		c0-0.846-0.291-1.609-0.875-2.308c-0.579-0.691-1.344-1.177-2.294-1.481c-0.945-0.296-2.524-0.443-4.72-0.443H180.131z"/>
	<path d="M205.747,241.329v-25.191h0.696l21.365,19.305v-19.305h3.165v25.191h-0.715l-21.199-19.07v19.07H205.747z"/>
	<path d="M251.905,216.138l14.973,25.191h-3.479l-5.037-8.289h-13.839l-5.002,8.289h-3.575l15.17-25.191H251.905z M251.499,221.493
		l-5.509,9.117h10.989L251.499,221.493z"/>
	<path d="M297.49,216.138h3.233v25.191h-3.233V216.138z"/>
	<path d="M323.369,215.509c4.861,0,8.911,1.272,12.192,3.82c3.281,2.545,4.931,5.672,4.931,9.391c0,3.69-1.649,6.822-4.909,9.389
		c-3.282,2.564-7.252,3.847-11.963,3.847c-4.766,0-8.783-1.27-12.044-3.834c-3.275-2.556-4.93-5.646-4.93-9.279
		c0-2.417,0.763-4.661,2.241-6.729c1.504-2.065,3.532-3.682,6.093-4.853C317.574,216.096,320.359,215.509,323.369,215.509z
		 M323.497,217.958c-2.369,0-4.615,0.488-6.761,1.457c-2.123,0.968-3.777,2.276-4.962,3.922c-1.206,1.646-1.799,3.479-1.799,5.501
		c0,2.993,1.308,5.52,3.949,7.58c2.662,2.062,5.848,3.097,9.572,3.097c2.492,0,4.808-0.48,6.932-1.43
		c2.118-0.939,3.772-2.247,4.957-3.887c1.185-1.641,1.776-3.471,1.776-5.483c0-1.998-0.592-3.804-1.776-5.421
		c-1.185-1.617-2.86-2.911-5.005-3.879C328.209,218.446,325.914,217.958,323.497,217.958z"/>
	<path d="M389.961,216.138l14.946,25.191h-3.452l-5.059-8.289h-13.842l-4.983,8.289h-3.575l15.148-25.191H389.961z M389.54,221.493
		l-5.502,9.117h10.977L389.54,221.493z"/>
	<path d="M409.891,216.138h3.207v22.76h12.363v2.431h-15.57V216.138z"/>
	<polygon fill="#F29400" points="70.585,210.144 429.41,210.144 254.327,30.934 	"/>
	<g>
		<path fill="#FFFFFF" stroke="#000000" stroke-width="0.5464" stroke-miterlimit="10" d="M169.086,153.58
			c-2.614-2.007-5.669-3.517-9.068-4.49c-6.63-1.924-15.239-1.942-21.992,0c-3.412,0.974-6.459,2.483-9.073,4.49
			c-2.647,2.027-4.755,4.663-6.254,7.828c-1.505,3.143-2.265,6.72-2.265,10.619c0,5.256,1.296,9.789,3.85,13.479
			c2.548,3.676,6.056,6.451,10.429,8.252c4.274,1.763,9.084,2.657,14.292,2.657c5.216,0,10.021-0.889,14.271-2.633
			c4.359-1.788,7.865-4.565,10.41-8.257c2.548-3.701,3.845-8.241,3.845-13.497c0-3.997-0.742-7.591-2.209-10.688
			C173.854,158.217,171.749,155.607,169.086,153.58z M163.398,177.634c-0.833,1.721-1.985,3.188-3.428,4.359
			c-1.492,1.203-3.196,2.14-5.077,2.775c-3.781,1.291-8.079,1.283-11.779,0.026c-1.833-0.616-3.529-1.561-5.034-2.788
			c-1.478-1.227-2.652-2.708-3.484-4.416c-0.833-1.686-1.251-3.567-1.251-5.589c0-2.793,0.696-5.144,2.134-7.19
			c1.449-2.073,3.399-3.703,5.792-4.842c2.422-1.161,5.026-1.753,7.734-1.753c2.083,0,4.082,0.333,5.925,0.982
			c1.852,0.653,3.541,1.603,5.04,2.812c1.449,1.171,2.601,2.641,3.428,4.349c0.814,1.713,1.227,3.612,1.227,5.643
			C164.625,174.024,164.212,175.924,163.398,177.634z"/>
		<path fill="#FFFFFF" stroke="#000000" stroke-width="0.5464" stroke-miterlimit="10" d="M235.075,148.836
			c1.534,0,2.305,0.555,2.305,1.665v31.196l-27.656-29.246c-1.689-1.782-2.535-2.801-2.535-3.06c0-0.296,0.264-0.48,0.79-0.555
			v-2.06h-16.955v2.06c0.598,0,1.097,0.136,1.492,0.419c0.395,0.277,0.592,0.691,0.592,1.246v43.045
			c0,1.147-0.696,1.721-2.084,1.721v2.06h14.196v-2.06c-1.614,0-2.422-0.573-2.422-1.721v-33.478l28.611,30.308
			c1.467,1.635,2.425,2.708,2.876,3.226c0.448,0.518,0.678,0.888,0.678,1.11c0,0.371-0.267,0.555-0.79,0.555v2.06h14.98v-2.06
			c-1.393,0-2.084-0.573-2.084-1.721v-43.045c0-0.555,0.198-0.969,0.593-1.246c0.395-0.283,0.888-0.419,1.491-0.419v-2.06h-14.079
			V148.836z"/>
		<path fill="#FFFFFF" stroke="#000000" stroke-width="0.5464" stroke-miterlimit="10" d="M308.903,146.776h-42.618
			c-1.756,0-2.631-0.963-2.631-2.892h-2.107v13.401h2.097c0-0.702,0.272-1.219,0.79-1.553c0.528-0.333,1.147-0.501,1.825-0.501
			h15.554v38.32c0,1.147-0.603,1.724-1.814,1.724v2.051h15.47v-2.051c-1.431,0-2.146-0.577-2.146-1.724v-38.32h15.581
			c0.704,0,1.308,0.168,1.852,0.501c0.518,0.333,0.773,0.851,0.773,1.553h2.108v-13.401h-2.108
			C311.528,145.813,310.653,146.776,308.903,146.776z"/>
		<path fill="#FFFFFF" stroke="#000000" stroke-width="0.5464" stroke-miterlimit="10" d="M377.448,188.148
			c-0.677,0.414-1.515,0.619-2.513,0.619h-32.678v-13.513h18.612c1.702,0,2.95,0.115,3.762,0.357
			c0.816,0.24,1.211,0.715,1.211,1.417h2.566V164.86h-2.305c0,0.776-0.299,1.27-0.912,1.494c-0.608,0.221-1.692,0.331-3.261,0.331
			h-19.674v-11.453h31.119c2.62,0,3.928,0.752,3.928,2.271h2.305V144.61h-2.32c0,1.446-1.308,2.166-3.923,2.166H328.07v2.073
			c0.533,0,1.003,0.142,1.371,0.419c0.357,0.277,0.555,0.691,0.555,1.246v43.032c0,1.147-0.641,1.721-1.926,1.721v2.06h46.865
			c2.354,0,3.537,0.537,3.537,1.612h2.311v-12.454h-2.311C378.473,187.188,378.143,187.743,377.448,188.148z"/>
	</g>
	<path fill="#FFFFFF" stroke="#000000" stroke-width="0.5464" stroke-miterlimit="10" d="M108.24,188.698l0.752,0.112l2.393-2.239
		l-8.783-13.46l-4.33,2.252l0.87,1.438c0.192,0.315,0.248,0.475,0.259,0.475c-0.019,0.494-0.739,1.412-2.727,2.529
		c-2.207,1.244-5.019,2.287-8.351,3.101c-8.022,1.945-14.543,1.531-20.312-0.918c-3.268-1.382-5.896-3.41-7.801-6.032
		c-1.895-2.615-2.817-5.638-2.817-9.239c0-2.628,0.547-5.05,1.633-7.203c1.086-2.167,2.633-4.01,4.602-5.478
		c2.022-1.523,4.341-2.684,6.894-3.447c5.75-1.747,12.7-1.63,20.274,0.942c5.582,1.913,5.934,3.252,5.939,3.276
		c0.112,0.56,0.173,0.931,0.187,1.067v0.87l3.164,1.99l10.317-15.17l-4.096-3.135l-0.96,1.227c-0.229,0.286-0.4,0.488-0.531,0.625
		c-0.414-0.155-1.017-0.384-1.819-0.686c-1.702-0.648-3.493-1.241-5.374-1.758c-12.032-3.23-23.048-3.503-32.57-0.781
		c-4.392,1.256-8.364,3.169-11.792,5.69c-3.479,2.548-6.235,5.726-8.199,9.445c-1.966,3.719-2.958,8.036-2.958,12.835
		c0,4.792,0.992,9.122,2.953,12.852c1.956,3.727,4.744,6.926,8.29,9.506c3.498,2.54,7.47,4.466,11.806,5.709
		c4.317,1.241,8.975,1.871,13.833,1.871c4.33,0,8.58-0.63,12.619-1.876c3.941-1.222,7.655-2.652,11.021-4.261
		c3.943-1.881,4.781-2.196,4.626-2.209c0.221,0,0.4,0.005,0.518,0.013L108.24,188.698z"/>
	<path fill="#FFFFFF" stroke="#000000" stroke-width="0.5464" stroke-miterlimit="10" d="M460.348,188.698l0.752,0.112l2.401-2.233
		l-8.783-13.457l-4.354,2.244l0.891,1.449c0.187,0.31,0.246,0.464,0.257,0.47c-0.021,0.493-0.736,1.4-2.728,2.523
		c-2.203,1.244-5.016,2.287-8.351,3.101c-8.052,1.932-14.557,1.537-20.303-0.918c-3.281-1.382-5.907-3.417-7.807-6.038
		c-1.899-2.609-2.828-5.632-2.828-9.234c0-2.614,0.555-5.04,1.633-7.203c1.094-2.167,2.636-4.01,4.61-5.478
		c2.038-1.523,4.354-2.684,6.894-3.447c5.736-1.734,12.673-1.641,20.271,0.942c5.587,1.913,5.944,3.258,5.944,3.276
		c0.112,0.56,0.171,0.926,0.187,1.067v0.87l3.154,1.99l10.324-15.178l-4.104-3.126l-0.965,1.235
		c-0.219,0.283-0.396,0.475-0.518,0.608c-0.406-0.147-1.025-0.376-1.814-0.678c-1.713-0.654-3.512-1.241-5.39-1.758
		c-12.038-3.236-23.067-3.489-32.565-0.781c-4.391,1.256-8.361,3.175-11.781,5.69c-3.479,2.543-6.238,5.718-8.201,9.45
		c-1.964,3.725-2.962,8.044-2.962,12.83c0,4.778,0.998,9.103,2.962,12.852c1.947,3.732,4.738,6.926,8.286,9.506
		c3.495,2.54,7.465,4.466,11.809,5.709c4.306,1.241,8.954,1.871,13.825,1.871c4.333,0,8.575-0.63,12.62-1.876
		c3.938-1.222,7.651-2.652,11.019-4.261c3.836-1.833,4.749-2.185,4.647-2.209c0.224,0,0.384,0.005,0.507,0.013L460.348,188.698z"/>
</g>
</svg>
