<svg xmlns="http://www.w3.org/2000/svg" viewBox="0 0 336 322" enable-background="new 0 0 336 322"><path d="M24.5 298c3.1 1 7.2 1.5 10.5 1.5 7.8 0 15.5-2.5 15.5-11.6 0-12.8-16.7-8.9-16.7-14.6 0-3.1 3.9-3.3 6.3-3.3 2.7 0 5.4.5 7.8 1.6l.6-7.3c-2.4-.8-5.7-1.3-9.1-1.3-7.1 0-15.4 2.3-15.4 10.8 0 12.9 16.7 8.7 16.7 15.3 0 2.8-2.8 3.4-5.8 3.4-3.9 0-7.3-1-9.7-2.3l-.7 7.8zM55.2 298.9h25.5v-6.7h-16v-8h14.6v-6.7h-14.6v-7.3h15.4v-6.6h-24.9v35.3zM85.6 298.9h9.4v-14h2c3.5 0 4.7 1.5 6.6 7.6l2 6.4h9.8l-3.4-9.6c-1.8-4.3-2-7-5-7.8v-.1c4.6-1.1 6.8-4.2 6.8-8.9 0-6.1-5.1-8.9-11.4-8.9h-16.8v35.3zm9.4-28.7h2.5c3.6 0 6.9.6 6.9 3.9 0 4-3.8 4.1-6.9 4.1h-2.5v-8zM118.8 298.9h9.4v-14h2c3.5 0 4.7 1.5 6.6 7.6l2 6.4h9.8l-3.4-9.6c-1.8-4.3-2-7-5-7.8v-.1c4.6-1.1 6.8-4.2 6.8-8.9 0-6.1-5.1-8.9-11.4-8.9h-16.8v35.3zm9.4-28.7h2.5c3.6 0 6.9.6 6.9 3.9 0 4-3.8 4.1-6.9 4.1h-2.5v-8zM149.3 298.9h9.6l2.8-7.5h13.3l2.6 7.5h10.3l-13.6-35.3h-11.5l-13.5 35.3zm23.4-14.2h-8.9l4.6-13.8h.1l4.2 13.8zM193.6 298.9h9.4v-28.4h8.7v-6.9h-26.8v6.9h8.7v28.4zM245.6 263.6h-9.4v20.3c0 4.7-1.3 8.6-6.1 8.6s-6.1-3.9-6.1-8.6v-20.3h-9.4v21.9c0 9.7 6.3 14 15.5 14s15.5-4.4 15.5-14v-21.9zM250.8 298.9h9.4v-14h2c3.5 0 4.7 1.5 6.6 7.6l2 6.4h9.8l-3.4-9.6c-1.8-4.3-2-7-5-7.8v-.1c4.6-1.1 6.8-4.2 6.8-8.9 0-6.1-5.1-8.9-11.4-8.9h-16.8v35.3zm9.4-28.7h2.5c3.6 0 6.9.6 6.9 3.9 0 4-3.8 4.1-6.9 4.1h-2.5v-8zM284 298.9h25.5v-6.7h-16.1v-8h14.6v-6.7h-14.6v-7.3h15.5v-6.6h-24.9v35.3z"/><path fill="#E30613" d="M138.4 24.2c8.2.7 13.9 7 15.4 12.4.5 1.7.7 5.4.7 6.1v85.5h-35.5c.3-.5-.3-18.9-.3-18.9h-.4l-51.1 100.7v1.2h87.6v35h-120.4c-.8 0-5-1.1-7.2-2.4-1.4-.8-3.7-2.6-4.8-3.9-1.6-2-3.1-4-4-7-1-3.4-.3-8.7-.1-8.9.5-5.2 5-12.4 7.2-16.8 1.7-3.8 71.2-129.2 75.5-137.2.3-.5 14-26.3 16.3-30.7 2.4-4.7 6.9-12.2 12.8-13.9 1.6-.5 4.7-1.5 8.3-1.2zM188.2 23.9c9.1 0 13.6 7.3 19.9 15.4 6.8 8.6 76.5 93.9 80.4 99.9 6.5 9.9 7.5 9.3 7.5 17.5 0 9.5-6.3 17.9-17.1 17.9h-11.8c-.8 0-2.4.1-3 .3l53.7 71.2c-.2.3-.9.1-3.3.2h-40.8c0-.4-37.2-48.7-41-53.6-6.9-9.1-12.6-17.2-19.2-26.7-1.6-2.3-2.6-6.1-2.4-9.9.4-7 3.3-11.6 9.7-15 1.3-.7 4.6-2 7.4-2h13.3c.3-.3.5-.5.5-.7l-35.4-42.8c-.2 0-.6.1-.9.3 0 0 .5 150.4-.3 150.3h-35.3v-203.2c0-.8.3-4 .7-5.7.2-1.1 1-3.2 1.7-4.5 1.4-2.2 2.7-3.9 5.4-5.7 3.3-2.3 6.7-3.2 10.3-3.2z"/></svg>