<?xml version="1.0" encoding="utf-8"?>
<!-- Generator: Adobe Illustrator 16.0.0, SVG Export Plug-In . SVG Version: 6.00 Build 0)  -->
<!DOCTYPE svg PUBLIC "-//W3C//DTD SVG 1.1//EN" "http://www.w3.org/Graphics/SVG/1.1/DTD/svg11.dtd">
<svg version="1.1" id="Calque_2" xmlns="http://www.w3.org/2000/svg" xmlns:xlink="http://www.w3.org/1999/xlink" x="0px" y="0px"
	 width="500px" height="500px" viewBox="0 0 500 500" enable-background="new 0 0 500 500" xml:space="preserve">
<g>
	<g>
		<rect x="25" y="145.206" width="13.468" height="122.31"/>
	</g>
	<g>
		<path d="M169.667,206.357c0-33.294-26.569-60.318-59.604-61.075V145.2H50.054v13.291h59.807l0,0
			c25.843,0.656,46.604,21.809,46.604,47.866c0,26.045-20.741,47.191-46.565,47.867H26.617v13.291h83.648v-0.089
			C143.205,266.562,169.667,239.588,169.667,206.357z"/>
	</g>
	<g>
		<path d="M180.445,206.357c0-33.294,27.011-60.318,60.608-61.075V145.2h61.025v13.291h-60.817l0,0
			c-26.285,0.656-47.399,21.809-47.399,47.866c0,26.045,21.095,47.191,47.355,47.867h84.696v13.291h-85.062v-0.089
			C207.349,266.562,180.445,239.588,180.445,206.357z"/>
	</g>
	<g>
		<path d="M328.08,206.357c0-33.294,27.018-60.318,60.608-61.075V145.2h61.025v13.291h-60.817l0,0
			c-26.285,0.656-47.399,21.809-47.399,47.866c0,26.045,21.096,47.191,47.355,47.867h72.371l0.102-23.659L475,230.464v23.76v13.291
			h-86.515v-0.089C354.984,266.562,328.08,239.588,328.08,206.357z"/>
	</g>
	<rect x="414.651" y="205.916" fill="#97BF0D" width="60.35" height="13.436"/>
	<rect x="140.168" y="291.281" width="5.657" height="38.383"/>
	<polygon points="293.321,329.664 285.876,329.664 270.218,311.183 278.268,311.183 	"/>
	<polygon points="243.011,329.664 227.453,291.281 227.251,291.281 221.796,291.281 221.594,291.281 206.036,329.664 
		211.693,329.664 224.523,298.012 237.354,329.664 	"/>
	<rect x="353.127" y="291.281" width="5.657" height="38.383"/>
	<polygon points="405.256,295.727 405.256,291.281 380.404,291.281 378.611,291.281 374.747,291.281 374.747,329.664 
		378.611,329.664 380.404,329.664 405.256,329.664 405.256,325.219 380.404,325.219 380.404,312.698 403.943,312.698 
		403.943,308.253 380.404,308.253 380.404,295.727 	"/>
	<path d="M322.574,297.696l1.118,0.183c4.893,0.814,8.58,6.207,8.58,12.546c0,6.34-3.688,11.726-8.58,12.54l-0.859,0.184h-12.943
		l0.006-25.452H322.574 M324.746,291.23H303.43v0.051h-0.007v38.383h5.657v-0.051h15.665v-0.271
		c7.893-1.307,13.992-9.237,13.992-18.917c0-9.686-6.1-17.616-13.992-18.923V291.23L324.746,291.23z"/>
	<g>
		<path d="M116.73,291.471v-0.215H95.415v0.025h-1.919v38.383h5.657v-15.779h15.4c0.088,0,0.17,0.025,0.259,0.025
			s0.17-0.025,0.259-0.025h1.661v-0.164c5.55-0.89,9.799-5.512,9.799-11.125S122.281,292.36,116.73,291.471z M114.003,309.648v0.02
			H99.556v-14.144h14.447v0.019c3.852,0.057,6.971,3.183,6.971,7.053C120.974,306.467,117.854,309.592,114.003,309.648z"/>
	</g>
	<g>
		<path d="M278.913,291.471v-0.215H257.59v0.025h-1.92v38.383h5.657v-15.779h15.4c0.088,0,0.17,0.025,0.259,0.025
			c0.088,0,0.17-0.025,0.259-0.025h1.667v-0.164c5.543-0.89,9.793-5.512,9.793-11.125S284.456,292.36,278.913,291.471z
			 M276.178,309.648v0.02h-14.446v-14.144h14.446v0.019c3.858,0.057,6.971,3.183,6.971,7.053
			C283.149,306.467,280.037,309.592,276.178,309.648z"/>
	</g>
	<g>
		<path d="M179.366,291.054c6.276,0,12.079,3.15,15.646,8.454l-1.383,1.042l-2.766,2.097c-2.583-4.035-6.832-6.422-11.498-6.422
			c-7.634,0-13.847,6.402-13.847,14.276c0,7.867,6.213,14.27,13.847,14.27c5.102,0,9.831-2.986,12.224-7.659l4.792,1.989
			c-3.208,6.61-9.812,10.841-17.016,10.841c-10.488,0-19.018-8.719-19.018-19.44S168.878,291.054,179.366,291.054"/>
	</g>
	<path d="M93.236,354.472v-11.063h7.173v0.941h-5.859v3.466h5.639v0.947h-5.639v5.708H93.236z"/>
	<path d="M108.068,354.472l6.358-11.498l6.093,11.498h-1.434l-1.85-3.744h-5.91l-1.919,3.744H108.068z M111.768,349.862h5.039
		l-2.469-4.812L111.768,349.862z"/>
	<path d="M127.603,354.472v-11.063h2.507c1.105,0,1.9,0.045,2.387,0.12c0.486,0.082,0.903,0.221,1.25,0.417
		c0.48,0.278,0.84,0.612,1.093,1.017c0.252,0.397,0.379,0.846,0.379,1.326c0,0.587-0.202,1.092-0.606,1.502
		c-0.398,0.417-0.96,0.688-1.661,0.815c0.935,0.106,1.661,0.391,2.191,0.858c0.524,0.461,0.789,1.048,0.789,1.755
		c0,0.519-0.107,0.979-0.309,1.383c-0.202,0.404-0.511,0.758-0.928,1.048c-0.423,0.304-0.935,0.512-1.528,0.639
		c-0.587,0.119-1.604,0.183-3.037,0.183H127.603z M128.917,348.328h1.642c1.206,0,2.059-0.151,2.557-0.455
		c0.499-0.303,0.745-0.802,0.745-1.509c0-0.758-0.24-1.294-0.726-1.609c-0.486-0.316-1.345-0.468-2.576-0.468h-1.642V348.328z
		 M128.917,353.601h1.68c0.959,0,1.616-0.032,1.982-0.089c0.36-0.063,0.669-0.164,0.916-0.315c0.31-0.177,0.556-0.43,0.745-0.745
		c0.183-0.322,0.278-0.663,0.278-1.022c0-0.448-0.107-0.84-0.31-1.169c-0.202-0.334-0.486-0.587-0.852-0.751
		c-0.252-0.113-0.543-0.195-0.884-0.239c-0.341-0.051-0.865-0.07-1.584-0.07h-0.291h-1.68V353.601z"/>
	<path d="M153.636,354.472h-1.604l-5.083-5.272h-0.796v5.272h-1.313v-11.063h2.665c1.566,0,2.741,0.253,3.523,0.752
		s1.168,1.25,1.168,2.267c0,0.858-0.328,1.534-0.998,2.033c-0.669,0.486-1.591,0.738-2.766,0.738L153.636,354.472z M146.154,344.287
		v4.085h1.326c1.231,0,2.083-0.145,2.569-0.448c0.486-0.303,0.727-0.808,0.727-1.527c0-0.765-0.253-1.301-0.751-1.629
		c-0.499-0.322-1.351-0.48-2.544-0.48H146.154z"/>
	<path d="M166.049,354.472v-11.063h1.319v11.063H166.049z"/>
	<path d="M190.333,345.437c-0.72-0.474-1.452-0.827-2.204-1.048c-0.758-0.228-1.547-0.342-2.374-0.342
		c-1.875,0-3.397,0.449-4.565,1.357c-1.174,0.91-1.755,2.091-1.755,3.543c0,0.732,0.139,1.389,0.429,1.97
		c0.284,0.587,0.72,1.104,1.307,1.56c0.581,0.441,1.244,0.783,1.995,1.017c0.751,0.228,1.553,0.347,2.412,0.347
		c0.827,0,1.642-0.113,2.431-0.328c0.796-0.221,1.541-0.536,2.242-0.959v1.174c-0.707,0.341-1.465,0.594-2.26,0.771
		c-0.79,0.177-1.579,0.271-2.355,0.271c-1.048,0-2.052-0.146-3.005-0.43c-0.959-0.297-1.781-0.694-2.462-1.212
		c-0.707-0.537-1.244-1.155-1.604-1.856c-0.366-0.707-0.55-1.478-0.55-2.323c0-0.827,0.189-1.598,0.562-2.312
		c0.373-0.713,0.91-1.332,1.604-1.85c0.688-0.505,1.503-0.909,2.462-1.193c0.959-0.29,1.958-0.436,2.993-0.436
		c0.922,0,1.774,0.101,2.563,0.297c0.79,0.189,1.509,0.479,2.153,0.871L190.333,345.437z"/>
	<path d="M195.428,354.472l6.358-11.498l6.1,11.498h-1.434l-1.856-3.744h-5.916l-1.913,3.744H195.428z M199.128,349.862h5.045
		l-2.469-4.812L199.128,349.862z"/>
	<path d="M213.385,354.472v-11.529l10.261,9.25v-8.783h1.225V354.8l-10.248-9.275v8.947H213.385z"/>
	<path d="M235.939,354.472v-10.121h-3.984v-0.941h9.294v0.941h-3.997v10.121H235.939z"/>
	<path d="M261.549,354.472v-11.063h2.247c2.008,0,3.441,0.076,4.281,0.228c0.846,0.151,1.572,0.41,2.185,0.783
		c0.796,0.479,1.414,1.117,1.837,1.882c0.417,0.77,0.626,1.654,0.626,2.646s-0.209,1.875-0.626,2.651
		c-0.423,0.771-1.028,1.39-1.818,1.851c-0.631,0.366-1.351,0.631-2.146,0.789c-0.808,0.151-2.103,0.233-3.89,0.233h-0.448H261.549z
		 M262.856,353.601h1.856c1.49,0,2.551-0.063,3.182-0.196c0.626-0.119,1.162-0.341,1.598-0.65c0.6-0.429,1.061-0.972,1.364-1.616
		c0.315-0.644,0.467-1.376,0.467-2.203c0-0.847-0.151-1.591-0.467-2.235c-0.316-0.645-0.777-1.175-1.39-1.591
		c-0.461-0.316-1.029-0.537-1.698-0.67c-0.663-0.132-1.824-0.195-3.485-0.195h-0.246h-1.181V353.601z"/>
	<path d="M281.773,354.472v-11.063h7.166v0.941h-5.853v3.466h5.853v0.947h-5.853v4.761h5.853v0.947H281.773z"/>
	<path d="M309.611,352.609l1.131-0.461c0.208,0.549,0.574,0.966,1.092,1.269c0.518,0.304,1.137,0.448,1.862,0.448
		c0.916,0,1.63-0.208,2.147-0.618c0.518-0.411,0.776-0.985,0.776-1.718c0-0.53-0.177-0.973-0.524-1.326
		c-0.341-0.354-1.092-0.758-2.234-1.225c-1.452-0.587-2.419-1.105-2.905-1.56c-0.485-0.442-0.72-0.985-0.72-1.61
		c0-0.789,0.341-1.427,1.042-1.919c0.688-0.499,1.598-0.745,2.709-0.745c0.72,0,1.352,0.12,1.895,0.354
		c0.53,0.233,0.979,0.587,1.307,1.055l-1.017,0.467c-0.208-0.315-0.512-0.556-0.891-0.726c-0.392-0.165-0.846-0.247-1.37-0.247
		c-0.72,0-1.288,0.158-1.704,0.48c-0.423,0.315-0.638,0.751-0.638,1.294c0,0.771,0.84,1.497,2.513,2.166
		c0.303,0.12,0.536,0.215,0.701,0.277c1.225,0.519,2.052,1.011,2.469,1.472c0.41,0.467,0.618,1.061,0.618,1.793
		c0,0.998-0.379,1.787-1.137,2.361c-0.757,0.588-1.793,0.878-3.1,0.878c-0.947,0-1.762-0.183-2.431-0.543
		C310.52,353.865,309.997,353.329,309.611,352.609z"/>
	<path d="M330.637,354.472v-10.121h-3.984v-0.941h9.301v0.941h-4.004v10.121H330.637z"/>
	<path d="M348.228,354.472v-5.096l-4.812-5.967h1.585l3.883,5.07l3.915-5.07h1.502l-4.76,5.967v5.096H348.228z"/>
	<path d="M363.28,354.472v-11.063h1.313v10.115h4.963v0.947H363.28z"/>
	<path d="M380.398,354.472v-11.063h7.166v0.941h-5.853v3.466h5.853v0.947h-5.853v4.761h5.853v0.947H380.398z"/>
	<path d="M397.408,352.609l1.124-0.461c0.208,0.549,0.574,0.966,1.092,1.269c0.518,0.304,1.137,0.448,1.863,0.448
		c0.922,0,1.635-0.208,2.152-0.618c0.512-0.411,0.771-0.985,0.771-1.718c0-0.53-0.177-0.973-0.518-1.326
		c-0.348-0.354-1.093-0.758-2.235-1.225c-1.458-0.587-2.425-1.105-2.91-1.56c-0.48-0.442-0.714-0.985-0.714-1.61
		c0-0.789,0.341-1.427,1.042-1.919c0.688-0.499,1.591-0.745,2.695-0.745c0.732,0,1.364,0.12,1.901,0.354
		c0.536,0.233,0.972,0.587,1.313,1.055l-1.023,0.467c-0.208-0.315-0.512-0.556-0.896-0.726c-0.385-0.165-0.84-0.247-1.364-0.247
		c-0.72,0-1.281,0.158-1.704,0.48c-0.417,0.315-0.632,0.751-0.632,1.294c0,0.771,0.834,1.497,2.507,2.166
		c0.303,0.12,0.543,0.215,0.694,0.277c1.237,0.519,2.059,1.011,2.476,1.472c0.416,0.467,0.625,1.061,0.625,1.793
		c0,0.998-0.386,1.787-1.137,2.361c-0.764,0.588-1.793,0.878-3.101,0.878c-0.953,0-1.761-0.183-2.437-0.543
		S397.792,353.329,397.408,352.609z"/>
</g>
</svg>
