<?xml version="1.0" encoding="utf-8"?>
<!-- Generator: Adobe Illustrator 16.0.0, SVG Export Plug-In . SVG Version: 6.00 Build 0)  -->
<!DOCTYPE svg PUBLIC "-//W3C//DTD SVG 1.1//EN" "http://www.w3.org/Graphics/SVG/1.1/DTD/svg11.dtd">
<svg version="1.1" id="Calque_2" xmlns="http://www.w3.org/2000/svg" xmlns:xlink="http://www.w3.org/1999/xlink" x="0px" y="0px"
	 width="500px" height="500px" viewBox="0 0 500 500" enable-background="new 0 0 500 500" xml:space="preserve">
<g>
	<path fill="#84AAD1" d="M187.729,247.339c-4.869-3.85-9.003-8.099-12.254-12.732c12.201-3.356,25.232-9.995,34.513-17.7
		c1.46,4.128,3.971,7.758,7.222,10.72C210.324,235.668,200.481,242.255,187.729,247.339z M235.335,245.27h-1.512v6.418h1.292
		c2.127,0,3.855-0.888,3.855-3.235C238.918,246.168,237.405,245.27,235.335,245.27z M226.606,249.571h2.904l-1.444-3.855
		L226.606,249.571L226.606,249.571z M219.783,245.27h-1.57v6.418h1.292c2.122,0,3.86-0.888,3.86-3.235
		C223.365,246.168,221.853,245.27,219.783,245.27z"/>
	<path fill="#237BAD" d="M267.89,174.074c-6.04-4.69-13.478-7.206-21.524-7.316c7.154,3.687,12.8,9.438,16.44,16.645
		c2.353,0.441,8.004,1.781,15.673,4.801C276.23,182.62,272.596,177.704,267.89,174.074z M250.835,150.68
		c-46.325,0-83.922,26.078-83.922,58.238c0,8.482,2.632,16.587,7.327,23.84c14.712-5.867,26.299-12.784,34.519-20.547
		c-0.221-1.392-0.331-2.789-0.331-4.186c0-11.839,9.68-21.503,21.529-21.503c4.706,0,9.181,1.843,12.479,5.194
		c3.356,3.351,5.205,7.763,5.205,12.517c0,8.036-6.539,14.564-14.596,14.564c-6.729,0-12.144-5.41-12.144-12.112
		c0-5.588,4.532-10.163,10.179-10.163c2.127,0,3.918,0.782,5.205,2.232c1.513,1.728,2.185,4.244,1.844,7.038
		c-0.053,0.221-0.221,0.389-0.446,0.447c-0.221,0-0.441-0.116-0.51-0.389c-1.56-5.814-5.809-5.305-5.982-5.305h-0.058
		c-2.957,0-5.589,2.847-5.589,6.087c0,4.187,3.404,7.59,7.605,7.59c5.542,0,10.074-4.522,10.074-10.058
		c0-3.509-1.35-6.807-3.855-9.265c-2.468-2.458-5.772-3.85-9.296-3.85c-9.338,0-17.002,7.595-17.002,16.976
		c0,12.001,9.785,21.776,21.813,21.776c15.337,0,27.816-12.454,27.816-27.749c0-20.111-15.169-35.295-35.312-35.295
		c-0.168,0-16.666,0.394-26.519,11.056c-0.105,0.115-10.458,11.561-10.458,29.487c0,0.446-0.278,0.782-0.672,0.782
		c-0.168,0-0.336-0.058-0.504-0.226c-0.221-0.221-0.221-0.504-0.221-0.557c-0.562-13.74,2.905-24.681,10.231-32.612
		c11.25-12.117,27.412-12.454,28.084-12.506c3.529,0,6.938,0.389,10.289,1.224c4.764-1.171,8.173-1.224,8.288-1.224
		c9.345,0,17.958,2.847,24.901,8.262c6.471,5.021,11.125,12.007,13.415,20.048c10.41,4.685,21.041,9.717,36.146,24.849l0.673,0.667
		c0.104,0.116,0.168,0.278,0.104,0.452l-0.168,0.888c-0.053,0.226-1.166,6.035-5.589,9.05c-2.405,1.618-5.315,2.568-8.561,1.896
		c-9.78-2.011-12.806,1.397-17.785,3.629l-1.071,0.452c-8.215,3.734-15.715,4.632-22.774,2.621c-0.21,0.725-0.389,1.507-0.609,2.395
		c-1.455,6.098-3.855,16.083-15.21,29.718h1.507c46.32,0,83.917-26.083,83.917-58.243
		C334.741,176.758,297.155,150.68,250.835,150.68L250.835,150.68z"/>
	<path fill="#84AAD1" d="M271.293,199.984c5.326-3.015,15.337,0.053,16.356,8.099C281.935,199.764,271.293,199.984,271.293,199.984z
		 M235.677,253.201h-4.648l-0.893-2.18h-4.139l-0.841,2.18h-1.906l0.725-1.618c-1.003,1.119-2.516,1.618-3.855,1.618h-3.53v-9.496
		h3.756c2.51,0,4.811,1.507,4.811,4.748c0,0.168,0,0.331-0.063,0.504l2.295-5.252h1.455l3.246,7.601v-7.601h3.75
		c2.521,0,4.806,1.507,4.806,4.748C240.709,251.688,237.962,253.201,235.677,253.201z M264.927,188.592
		c1.45,4.244,2.186,8.766,2.186,13.461c0,14.959-10.578,28.142-25.127,31.488c-0.725,2.29-1.733,4.632-3.015,6.922h-6.718
		c1.402-2.174,2.468-4.239,3.309-6.14h-0.788c-4.475,0-8.95-1.171-12.868-3.346c-7.101,8.43-18.735,15.405-30.769,18.93
		c6.214,4.354,13.373,8.036,21.262,10.888c1.959-1.396,3.75-2.852,5.426-4.244h7.332c-2.526,2.07-5.205,4.023-8.004,5.81
		c8.619,2.626,18.016,4.296,27.864,4.748c12.364-13.966,14.659-25.689,15.883-32.113c0.284-1.339,0.505-2.516,0.794-3.461
		l0.608-1.733c0.058-0.11,0.11-0.221,0.273-0.284c0.126-0.053,0.284-0.053,0.394,0l1.739,0.677
		c8.057,3.125,15.662,0.499,21.429-2.122l1.062-0.504c5.883-2.626,9.055-5.583,20.589-3.235c2.007,0.389,4.023-0.389,5.483-1.681
		c1.733-1.508,2.899-3.566,3.352-5.027C293.794,195.352,274.833,191.107,264.927,188.592L264.927,188.592z"/>
	<polygon fill="#237BAD" points="102.083,335.2 102.083,322.762 129.023,322.762 129.023,310.284 102.083,310.284 102.083,298.739 
		130.467,298.739 130.467,286.249 102.083,286.249 93.449,286.249 88.701,286.249 88.701,347.69 93.449,347.69 102.083,347.69 
		131.922,347.69 131.922,335.2 	"/>
	<polygon fill="#237BAD" points="326.579,335.2 326.579,322.762 353.524,322.762 353.524,310.284 326.579,310.284 326.579,298.739 
		354.963,298.739 354.963,286.249 326.579,286.249 317.944,286.249 313.196,286.249 313.196,347.69 317.944,347.69 326.579,347.69 
		356.423,347.69 356.423,335.2 	"/>
	<path fill="#237BAD" d="M51.257,286.249H38.383H25v61.441h13.383h12.874c16.771,0,30.49-13.719,30.49-30.494v-0.452
		C81.747,299.967,68.027,286.249,51.257,286.249z M67.691,317.112c0,10.105-7.086,18.383-15.747,18.383H38.383v-37.051h13.562
		c8.661,0,15.747,8.268,15.747,18.395V317.112z"/>
	<path fill="#237BAD" d="M179.771,330.977c-3.209,3.782-7.679,6.135-12.648,6.135c-9.753,0-17.658-9.023-17.658-20.147
		c0-11.114,7.905-20.147,17.658-20.147c4.533,0,8.63,2.016,11.755,5.221l11.151-9.182c-5.846-5.641-13.729-9.17-22.459-9.17
		c-17.963,0-32.522,14.706-32.522,32.816c0,18.131,14.559,32.816,32.522,32.816c9.47,0,17.921-4.149,23.867-10.673L179.771,330.977z
		"/>
	<path fill="#237BAD" d="M400.521,286.227v36.578c0,7.73-5.714,14.055-12.71,14.055s-12.711-6.324-12.711-14.055v-36.578h-12.837
		v41.221c0,11.744,9.602,21.346,21.346,21.346h8.403c11.744,0,21.346-9.602,21.346-21.346v-41.221H400.521z"/>
	<polygon fill="#237BAD" points="475,347.68 453.78,315.021 472.469,286.249 456.9,286.249 446.007,303.036 435.104,286.249 
		419.535,286.249 438.213,315.021 417.004,347.69 432.571,347.69 446.007,327.006 459.433,347.68 	"/>
	<polygon fill="#237BAD" points="308.595,286.249 293.027,286.249 278.856,308.077 264.675,286.249 249.107,286.249 
		271.062,320.074 272.07,321.608 272.07,347.69 285.453,347.69 285.453,321.88 286.63,320.074 	"/>
	<path fill="#237BAD" d="M226.937,284.904h-9.517c-7.784,0-14.67,3.866-18.951,9.749l7.842,8.235
		c2.616-4.013,7.117-6.702,12.233-6.702h3.393c7.753,0,14.087,6.145,14.523,13.793c-0.509-0.043-42.544-3.582-42.544,20.326
		c0,22.154,36.834,22.438,42.628,9.979v3.571c0,1.334-0.242,2.605-0.578,3.834h14.47v-39.297
		C250.436,295.471,239.863,284.904,226.937,284.904z M209.147,329.465c0-11.934,26.724-9.076,26.724-9.076
		C235.871,342.911,209.147,341.399,209.147,329.465z"/>
	<polygon fill="#84AAD1" points="445.997,327.006 459.433,347.68 475,347.68 453.791,315.021 472.469,286.249 456.9,286.249 
		445.997,303.036 438.224,315.021 	"/>
</g>
</svg>
