<?xml version="1.0" encoding="utf-8"?>
<!-- Generator: Adobe Illustrator 16.0.0, SVG Export Plug-In . SVG Version: 6.00 Build 0)  -->
<!DOCTYPE svg PUBLIC "-//W3C//DTD SVG 1.1//EN" "http://www.w3.org/Graphics/SVG/1.1/DTD/svg11.dtd">
<svg version="1.1" id="Calque_1" xmlns="http://www.w3.org/2000/svg" xmlns:xlink="http://www.w3.org/1999/xlink" x="0px" y="0px"
	 width="500px" height="500px" viewBox="0 0 500 500" enable-background="new 0 0 500 500" xml:space="preserve">
<g>
	<g>
		<path d="M25,70.728h25.188c4.965,0,8.978,0.615,12.033,1.847c3.055,1.231,5.581,2.998,7.581,5.301
			c1.995,2.303,3.443,4.982,4.338,8.037c0.9,3.056,1.351,6.293,1.351,9.713c0,5.358-0.672,9.514-2.006,12.466
			s-3.187,5.426-5.558,7.421s-4.913,3.323-7.632,3.984c-3.716,0.912-7.085,1.368-10.106,1.368H25V70.728z M41.958,82.083v27.395
			h4.149c3.545,0,6.065-0.359,7.564-1.078c1.494-0.718,2.668-1.972,3.517-3.762c0.849-1.79,1.271-4.691,1.271-8.704
			c0-5.313-0.946-8.949-2.844-10.91c-1.898-1.96-5.039-2.941-9.434-2.941H41.958z"/>
		<path d="M84.354,70.728h45.435v10.705h-28.443v7.969h26.385v10.226h-26.385v9.884h29.27v11.354H84.354V70.728z"/>
		<path d="M176.273,100.345l14.86,4.104c-0.998,3.808-2.571,6.988-4.72,9.542c-2.143,2.554-4.805,4.48-7.986,5.78
			c-3.181,1.3-7.233,1.95-12.147,1.95c-5.962,0-10.835-0.792-14.615-2.377s-7.04-4.366-9.787-8.356
			c-2.742-3.984-4.115-9.091-4.115-15.31c0-8.294,2.411-14.667,7.239-19.124c4.828-4.452,11.663-6.681,20.492-6.681
			c6.914,0,12.346,1.277,16.302,3.831c3.95,2.554,6.892,6.475,8.813,11.765l-14.974,3.044c-0.519-1.528-1.072-2.645-1.642-3.352
			c-0.952-1.186-2.109-2.098-3.483-2.736c-1.374-0.639-2.907-0.958-4.605-0.958c-3.842,0-6.783,1.414-8.829,4.235
			c-1.551,2.098-2.32,5.387-2.32,9.873c0,5.558,0.923,9.365,2.771,11.423c1.841,2.063,4.44,3.095,7.78,3.095
			c3.244,0,5.694-0.832,7.354-2.497C174.324,105.931,175.527,103.515,176.273,100.345z"/>
		<path d="M197.233,95.831c0-8.186,2.491-14.558,7.484-19.118c4.988-4.56,11.936-6.84,20.845-6.84c9.131,0,16.166,2.24,21.107,6.721
			c4.942,4.48,7.41,10.756,7.41,18.827c0,5.86-1.077,10.665-3.237,14.416s-5.278,6.669-9.354,8.755
			c-4.082,2.086-9.166,3.129-15.253,3.129c-6.19,0-11.309-0.901-15.362-2.702c-4.059-1.801-7.342-4.651-9.861-8.55
			C198.493,106.57,197.233,101.69,197.233,95.831z M214.185,95.899c0,5.062,1.026,8.698,3.09,10.91
			c2.058,2.212,4.856,3.317,8.402,3.317c3.642,0,6.458-1.083,8.453-3.249c2-2.166,2.998-6.053,2.998-11.662
			c0-4.72-1.043-8.168-3.124-10.346c-2.086-2.177-4.914-3.266-8.481-3.266c-3.415,0-6.162,1.106-8.231,3.317
			C215.222,87.132,214.185,90.792,214.185,95.899z"/>
		<path d="M263.288,70.728h41.918v10.773h-24.887v8.755h21.262v10.123h-21.262v20.486h-17.031V70.728z"/>
		<path d="M314.338,70.728h16.952v37.791h26.459v12.347h-43.411V70.728z"/>
		<path d="M365.422,70.728h45.43v10.705h-28.443v7.969h26.391v10.226h-26.391v9.884h29.275v11.354h-46.262V70.728z"/>
		<path d="M417.064,70.728h18.685l9.701,15.424l9.451-15.424h18.491L456.315,95.01L475,120.866h-19.05l-10.83-16.108l-10.83,16.108
			h-18.947l18.924-26.129L417.064,70.728z"/>
	</g>
	<g>
		<g>
			<path fill="#95C154" d="M250.004,152.82c-68.304,0-124.409,53.062-129.352,120.123h45.344v-67.967h168.006v67.967h45.35
				C374.405,205.882,318.305,152.82,250.004,152.82z"/>
			<path fill="#95C154" d="M101.694,142.657v130.286h15.099c4.954-69.181,62.786-123.97,133.21-123.97
				c70.422,0,128.255,54.789,133.202,123.97h15.105V142.657H101.694z"/>
		</g>
		<g>
			<path fill="#95C154" d="M250.004,412.31c65.679,0,120.08-49.072,128.563-112.474h-44.563v67.967H165.997v-67.967h-44.558
				C129.915,363.238,184.316,412.31,250.004,412.31z"/>
			<path fill="#95C154" d="M382.442,299.836c-8.505,65.527-64.639,116.32-132.438,116.32c-67.808,0-123.937-50.793-132.441-116.32
				h-15.869v130.292h296.617V299.836H382.442z"/>
		</g>
	</g>
</g>
</svg>
