<?xml version="1.0" encoding="utf-8"?>
<!-- Generator: Adobe Illustrator 16.0.0, SVG Export Plug-In . SVG Version: 6.00 Build 0)  -->
<!DOCTYPE svg PUBLIC "-//W3C//DTD SVG 1.1//EN" "http://www.w3.org/Graphics/SVG/1.1/DTD/svg11.dtd">
<svg version="1.1" id="Calque_1" xmlns="http://www.w3.org/2000/svg" xmlns:xlink="http://www.w3.org/1999/xlink" x="0px" y="0px"
	 width="500px" height="500px" viewBox="0 0 500 500" enable-background="new 0 0 500 500" xml:space="preserve">
<g>
	<path fill="#005397" d="M67.311,208.203c-3.439,0.018-42.339,0.018-42.311,0v84.622l35.459-0.172
		c-0.013-0.067,40.812,1.859,41.625-44.023C102.414,228.206,85.426,208.935,67.311,208.203z M59.773,281.346l-13.532,0.172v-63.722
		l10.621,0.171c0.015,0.032,20.072-0.539,21.24,29.978C79.36,278.526,59.732,281.379,59.773,281.346z"/>
	<polygon fill="#005397" points="112.02,208.031 112.02,292.139 163.066,292.139 163.066,281.003 133.603,281.003 133.603,253.768 
		159.983,253.768 159.983,242.805 133.603,242.805 133.603,218.652 161.867,218.652 161.867,208.031 112.02,208.031 	"/>
	<polygon fill="#005397" points="174.373,207.347 174.373,291.454 225.247,291.454 225.247,281.003 196.127,281.003 
		196.127,207.347 174.373,207.347 	"/>
	<polygon fill="#005397" points="227.645,291.111 254.883,207.518 276.295,207.518 305.929,291.111 281.604,291.454 
		273.039,267.471 246.317,267.3 249.917,255.995 269.613,255.995 259.508,226.532 238.953,290.94 227.645,291.111 	"/>
	<path fill="#FFFFFF" d="M333.852,217.967c-0.009,0.005,0.187,0.005,0.51,0.002v-0.002H333.852z"/>
	<path fill="none" d="M333.852,217.967c-0.009,0.005,0.187,0.005,0.51,0.002v-0.002H333.852z"/>
	<path fill="#005397" d="M361.945,248.972c-0.087-0.068,14.76-5.064,14.559-19.7c-0.368-19.267-23.565-21.765-23.637-21.754
		l-40.256-0.171v84.963l44.536-0.513c0.071,0.073,21.84-0.925,22.268-22.27C379.845,256.184,361.858,248.904,361.945,248.972z
		 M334.362,217.969c1.609-0.016,6.704-0.123,9.768-0.173c5.24,0.061,10.593,7.198,10.449,12.505
		c-0.427,10.039-7.353,12.68-7.367,12.676h-12.85V217.969z M356.12,268.672c-0.61,9.995-8.393,12.636-8.396,12.674h-12.845v-28.091
		c0,0.075,4.354,0.075,8.051,0C350.224,253.687,356.649,261.538,356.12,268.672z"/>
	<polygon fill="#005397" points="389.35,207.175 410.765,207.175 410.765,292.139 389.35,292.139 389.35,207.175 	"/>
	<polygon fill="#005397" points="423.954,207.518 423.954,291.454 475,291.454 475,280.492 445.54,280.492 445.54,253.083 
		471.918,253.083 471.918,242.292 445.54,242.292 445.54,217.967 473.63,217.967 473.63,207.518 423.954,207.518 	"/>
</g>
</svg>
