<svg xmlns="http://www.w3.org/2000/svg" viewBox="0 0 300 208.6" enable-background="new 0 0 300 208.6"><path d="M70.6 141.4c0-9.9 1.2-18-9.9-25.4-6.5-4.3-15.7-6.2-25.6-6.2h-35v63.2h35.1c9.9 0 19-1.9 25.6-6.2 11-7.4 9.8-15.5 9.8-25.4m-23.3 0c0 10.7-.7 12.4-2.5 14.2-2.1 2.1-5.3 3.5-11.2 3.5h-10.2v-35.5h10.3c5.8 0 9 1.4 11.2 3.6 1.8 1.8 2.4 3.5 2.4 14.2"/><path d="M146.4 173v-13.9h-41.1v-11.1h35.1v-13.8h-35.1v-10.6h41.1v-13.8h-64.4v63.2zM233.4 173v-63.2h-23.3v31.8l-30.3-31.8h-20.4v63.2h23.3v-31.8l30.4 31.8zM247.8 109.8h23.3v63.2h-23.3z"/><path fill="#E30613" d="M97.6 58.2l-8.1-8.2c-1.3-1.3-1.3-3.4 0-4.7l43.8-44.3c1.3-1.3 3.4-1.3 4.6 0l8.2 8.2-48.5 49zm12.7 12.8l-10.6-10.7 48.5-49 10.6 10.7-48.5 49zm12.7 12.8l-10.6-10.7 48.5-49 10.6 10.7-48.5 49zm10.3 10.4l-8.2-8.3 48.5-49 8.2 8.3c1.3 1.3 1.3 3.4 0 4.7l-43.8 44.3c-1.3 1.3-3.4 1.3-4.7 0"/><path d="M285.7 100.3h2.2c1.6 0 3.2.4 3.2 2 0 1.8-1.8 2-3.7 2h-1.7v-4zm-2.4 11.9h2.4v-5.7h1.4l4 5.7h2.8l-4.1-5.8c2-.2 3.6-1.3 3.6-4.1 0-2.9-1.6-4.2-4.9-4.2h-5.4v14.1zm-7.5-6.7c0 6.7 5.4 12.1 12.1 12.1 6.7 0 12.1-5.4 12.1-12.1 0-6.7-5.4-12.1-12.1-12.1-6.7 0-12.1 5.4-12.1 12.1m2.6 0c0-5.7 4-9.7 9.5-9.7s9.5 4.1 9.5 9.7c0 5.7-4 9.7-9.5 9.7s-9.5-4-9.5-9.7"/><path fill="#E30613" d="M0 205.3v-24.7l272.4-.3v24.7c0 1.8-1.5 3.3-3.3 3.3l-265.8.3c-1.8 0-3.3-1.5-3.3-3.3"/><path fill="#fff" d="M21.7 202.7l-1.6-1.6c1.1-1.5 1-3.1 1-5.9 0-3.1 0-4.9-1.6-6.5-1.1-1.1-2.5-1.7-4.3-1.7-1.7 0-3.1.6-4.3 1.7-1.6 1.6-1.6 3.4-1.6 6.5s0 4.9 1.6 6.5c1.1 1.1 2.5 1.7 4.3 1.7 1.3 0 2.5-.4 3.4-1l1.6 1.6 1.5-1.3zm-3-7.4c0 2.1-.1 3.2-.5 4l-1.6-1.6-1.4 1.4 1.7 1.7c-.5.4-1 .5-1.7.5-.9 0-1.8-.4-2.4-1-.8-.9-.9-1.8-.9-5 0-3.3.2-4.2.9-5 .6-.6 1.5-1 2.4-1 1 0 1.9.4 2.4 1 .9.8 1.1 1.7 1.1 5M37.2 197.9v-10.8h-2.5v10.6c0 2.2-1.3 3.5-3.4 3.5-2 0-3.4-1.3-3.4-3.5v-10.6h-2.5v10.8c0 3.4 2.5 5.6 5.8 5.6 3.5 0 6-2.2 6-5.6"/><path fill="#fff" d="M54.2 203.4l-5.9-16.2h-2l-5.9 16.2h2.6l1.1-3.3h6.4l1.1 3.3h2.6zm-4.4-5.4h-5l2.5-7.2 2.5 7.2zM57.5 187.2v16.2h10.3v-2.2h-7.8v-14zM71.6 187.2h2.5v16.2h-2.5zM89.3 189.4v-2.2h-11.4v2.2h4.5v14h2.4v-14zM98.1 185.5h2.1v-2.5h-2.1v2.5zm-4.9 0h2.1v-2.5h-2.1v2.5zm10.5 17.9l-5.9-16.2h-2l-5.9 16.2h2.6l1.1-3.3h6.4l1.1 3.3h2.6zm-4.4-5.4h-5l2.5-7.2 2.5 7.2zM115.6 189.4v-2.2h-11.4v2.2h4.5v14h2.4v-14zM139.4 203.4l-2.7-3.2c1.1-1.3 1.6-2.9 1.6-5h-2.2c0 1.5-.3 2.4-.9 3.3l-3.4-4.1c.4-.3 1.2-.8 1.2-.8 1-.7 1.7-1.6 1.7-2.9 0-2.1-1.6-3.6-3.9-3.6-2.4 0-4 1.5-4 3.6 0 1.5.9 2.6 1.7 3.5-1.6 1-3.2 2.3-3.2 4.6 0 2.9 1.9 4.8 5.2 4.8 2.5 0 3.8-1.1 4.5-1.7l1.3 1.6h3.1zm-6.9-12.7c0 .8-.5 1.3-1.2 1.7l-.8.5c-.8-.9-1.3-1.6-1.3-2.2 0-.9.6-1.6 1.6-1.6 1-.1 1.7.6 1.7 1.6m1.2 9.4c-1.1 1-2 1.2-3.1 1.2-1.7 0-2.9-1.1-2.9-2.7 0-1.5 1-2.3 2.2-3.1l3.8 4.6zM150.1 187.2v16.2h2.4v-6.9h6.8v-2.2h-6.8v-4.9h7.9v-2.2zM175.8 197.9v-10.8h-2.5v10.6c0 2.2-1.3 3.5-3.4 3.5-2 0-3.3-1.3-3.3-3.5v-10.6h-2.5v10.8c0 3.4 2.5 5.6 5.8 5.6 3.4 0 5.9-2.2 5.9-5.6"/><path fill="#fff" d="M193 203.4v-16.2h-2.4v11.3l-7.5-11.3h-2.3v16.2h2.5v-11.4l7.5 11.4zM210.9 203.4l-5.8-9.9 5.3-6.3h-3l-6.6 8.1v-8.1h-2.5v16.2h2.5v-4.7l2.7-3.3 4.6 8zM224.3 189.4v-2.2h-11.4v2.2h4.4v14h2.5v-14zM228.1 187.2h2.5v16.2h-2.5zM246.9 195.3c0-3.1 0-4.9-1.5-6.5-1.1-1.1-2.6-1.7-4.3-1.7-1.7 0-3.2.6-4.3 1.7-1.6 1.6-1.6 3.4-1.6 6.5s0 4.9 1.6 6.5c1.1 1.1 2.5 1.7 4.3 1.7 1.7 0 3.2-.6 4.3-1.7 1.5-1.6 1.5-3.4 1.5-6.5m-2.5 0c0 3.3-.2 4.2-1 5-.6.6-1.5 1-2.4 1-1 0-1.9-.4-2.4-1-.8-.9-1-1.8-1-5 0-3.3.2-4.2 1-5 .6-.6 1.5-1 2.4-1 .9 0 1.8.4 2.4 1 .9.8 1 1.7 1 5"/><path fill="#fff" d="M263.8 203.4v-16.2h-2.5v11.3l-7.5-11.3h-2.2v16.2h2.4v-11.4l7.5 11.4z"/></svg>