<svg xmlns="http://www.w3.org/2000/svg" viewBox="0 0 321.9 62.9" enable-background="new 0 0 321.9 62.9"><path fill="#ED6E21" d="M31.4 6.8h-20.4v32.1h15.1v-20.1h5.3s7.8.8 7.8 12.9c0 0-.3 3.7-1.8 7.2h15.6c.9-3.9 1-6.6 1-6.6 0-26.1-22.6-25.5-22.6-25.5"/><path fill="#ED6E21" d="M198.9 55.5h15.2v.5h-15.2zM226.5 6.8h-40.3v11.8h12.7v20.3h15.2v-20.3h12.4zM198.9 41.3h15.2v3.3h-15.2zM198.9 51.4h15.2v1.8h-15.2zM198.9 47.1h15.2v2.1h-15.2zM231.2 49.2h33.5c.5-.6 1-1.4 1.5-2.1h-36.4c.4.7.9 1.5 1.4 2.1M236.2 53.3h23.5c1-.6 1.9-1 2.8-1.8h-29.2l2.9 1.8M248 6.2c-12.4 0-22.7 11.7-22.7 26.2v.1c0 2.4.3 4.3.9 6.4h16.1c-.1-.1-.1-.2-.1-.3h.1c-1.4-2-2-4.2-2-7.4v-.1c0-5.8 3.4-10.5 7.8-10.5 4.1 0 7.7 4.7 7.7 10.5 0 3.2-.9 5.5-2.4 7.5h.1c-.1.1-.1.2-.1.3h16.4c.5-2.2.8-4.1.8-6.5-.1-14.5-10.2-26.2-22.6-26.2M248 41.9c-1.1 0-2.1-.3-2.9-.6h-18.3c.4 1.2.9 2.3 1.5 3.3h39.1c.6-1.1 1.1-2.1 1.5-3.3h-18.5c-.7.3-1.5.6-2.4.6M248 56.7c2.5 0 4.8-.4 7.1-1.1h-14.2c2.3.7 4.6 1.1 7.1 1.1"/><path fill="#ED6E21" d="M272.5 41.3h14.4v3.3h-14.4zM272.5 47.1h14.4v2.1h-14.4zM272.5 51.4h14.4v1.8h-14.4zM291.3 26.8h-4.4v-11.7h4.4s3.6 0 3.6 5.9c-.1 0-.2 5.8-3.6 5.8m16.9 11.9h.2c-2.8-5.6-4.9-7.2-4.9-7.2 5.2-2.1 5.2-10.6 5.2-10.6 0-14.2-13.5-14-13.5-14h-22.8v32.1h14.4v-4.6c2.5-1.1 5 1 7.2 4.6h14.2c.1-.2.1-.2 0-.3M184.1 34.5h-2.1l.1.3h2.1c0-.2-.1-.2-.1-.3M184.3 35.1h-2.1v.1l2.1-.1M183.9 33.8h-2.1l.1.3h2.1l-.1-.3"/><path fill="#ED6E21" d="M272.5 55.5h14.4v.5h-14.4zM309.5 41.3h-14.1l1.7 3.3h13.9c-.6-1.2-1.1-2.2-1.5-3.3"/><path fill="#ED6E21" d="M11 49.2h37.9l1.2-2.1h-39.1v2.1zM11 56.3l23.4.1c2.2 0 4.1-.3 5.8-.8h-29.2v.7zM11 53.3h33.7c.9-.6 1.7-1.1 2.4-1.8h-36.1v1.8zM31.7 44.1h-5.6v-2.8h-15.1v3.3h40.2c.5-1.2.9-2.2 1.3-3.3h-16.3c-1.1 1.5-2.5 2.8-4.5 2.8"/><path fill="#ED6E21" d="M145.9 47.1l-.6 2.1h16l.5-1.3h14.9l.4 1.3h16.1l-.7-2.1zM144.5 51.4l-.8 1.9h16.1l.7-1.9zM142.9 55.5l-.3.9h16.1l.3-.9zM169.2 27l3.8 10.4h-7.5l3.7-10.4zm20.5 11.9l-11.6-32h-17.700000000000003l-11.6 32h40.9zM148 41.3l-1.3 3.4h45.1l-1.3-3.4zM177.9 51.4l.8 1.9h16.1l-.8-1.9zM179.5 55.5l.3.9h16l-.2-.9zM55.7 41.3h15.2v3.3h-15.2zM55.7 47.1h15.2v2.1h-15.2zM55.7 51.4h15.2v1.8h-15.2zM55.7 55.5h15.2v.7h-15.2zM99.6 43.7s-4 0-7.4-2.4h-18.2c.4 1.1.8 2.2 1.4 3.3h35.1v-3.3h-3.5c-1 .5-5 2.7-7.4 2.4M72.6 31.1v.6c0 1.1 0 3.8.8 7.3h16.5l-.2-.3h.2c-1.3-1.7-2.3-3.4-2.5-6.6v-.2s-.3-12.6 12.1-12.6c0 0 5.5-.2 10.7 4.2h.5v-14.2s-2.9-3.1-13.6-3.1c0 .1-24.5-1.5-24.5 24.9M83.2 53.3h27.1l.3-.3v-1.5h-30.4c.9.7 1.9 1.1 3 1.8M97.1 56.7s4.9 0 8.9-1.1h-17.7c2.5.7 5.4 1.1 8.8 1.1M78.1 49.2h32.4v-2.1h-33.8c.4.7.9 1.5 1.4 2.1"/><path fill="#ED6E21" d="M125 51.4h15.2v1.8h-15.2zM125 55.5h15.2v.5h-15.2zM125 38.9h15.1v-20.3h12.4v-11.8h-40.3v11.8h12.8v20.1zM55.7 6.8v32.1h15.2v-32.1zM125 41.3h15.2v3.3h-15.2zM125 47.1h15.2v2.1h-15.2z"/></svg>