<?xml version="1.0" encoding="utf-8"?>
<!-- Generator: Adobe Illustrator 16.0.0, SVG Export Plug-In . SVG Version: 6.00 Build 0)  -->
<!DOCTYPE svg PUBLIC "-//W3C//DTD SVG 1.1//EN" "http://www.w3.org/Graphics/SVG/1.1/DTD/svg11.dtd">
<svg version="1.1" id="Calque_1" xmlns="http://www.w3.org/2000/svg" xmlns:xlink="http://www.w3.org/1999/xlink" x="0px" y="0px"
	 width="500px" height="500px" viewBox="0 0 500 500" enable-background="new 0 0 500 500" xml:space="preserve">
<g>
	<path fill="#068C44" d="M91.788,185.717H25v127.321h66.788c26.466-0.257,40.372-34.58,40.182-64.073
		C131.801,219.73,118.254,185.717,91.788,185.717z M71.565,292.544c-11.977,0.101-21.725-9.788-21.725-21.819
		c0-10.604,7.165-19.664,11.153-32.417c4.426-14.138,7.045-22.621,10.219-36.57c3.198,13.949,6.675,22.527,11.221,36.863
		c3.972,12.568,10.516,21.521,10.516,32.124C92.949,282.756,83.453,292.463,71.565,292.544z"/>
	<polygon points="451.1,190.591 176.538,190.591 176.538,185.699 451.032,185.699 	"/>
	<polygon points="451.1,314.301 176.538,314.301 176.538,309.405 451.032,309.405 	"/>
	<rect x="240.088" y="199.098" width="6.451" height="98.28"/>
	<polygon points="343.987,199.098 343.987,297.378 366.385,297.378 366.385,291.309 350.479,291.309 350.479,199.098 	"/>
	<polygon points="400.598,291.342 400.598,297.378 377.239,297.378 377.239,229.996 371.051,229.996 371.051,223.923 
		377.239,223.923 377.239,199.095 400.557,199.095 400.557,205.144 383.696,205.144 383.696,223.923 400.557,223.923 
		400.557,229.996 383.696,229.996 383.696,291.342 	"/>
	<polygon points="429.208,226.833 421.151,199.098 413.922,199.098 425.522,239.077 407.532,297.378 415.01,297.378 429.184,250.46 
		443.379,297.378 450.881,297.378 433.35,239.077 444.95,199.098 437.262,199.098 	"/>
	<polygon points="305.352,297.344 305.352,229.993 299.157,229.993 299.157,223.927 305.352,223.927 305.352,199.095 
		328.67,199.095 328.67,205.144 311.813,205.144 311.813,223.927 328.67,223.927 328.67,229.993 311.813,229.993 311.813,297.337 	
		"/>
	<path d="M184.748,290.998h-0.484l0.003-85.513h0.501c23.745,0,42.988,19.137,42.988,42.76
		C227.756,271.855,208.503,290.998,184.748,290.998 M184.768,199.074h-6.944v98.304h6.923c27.312,0,49.452-21.988,49.452-49.133
		C234.199,221.088,212.076,199.074,184.768,199.074"/>
	<path d="M258.785,297.337h8.644c8.643,0,13.469-1.275,18.304-4.712c6.228-4.314,9.917-11.564,9.917-19.321
		c0-6.606-1.275-9.911-7.875-20.207l-15.637-24.271c-3.817-5.982-4.709-8.008-4.709-11.066c0-7.24,5.341-11.689,13.854-11.689h6.991
		v-6.235h-6.742c-6.596,0-10.285,1.029-13.975,4.074c-3.939,3.174-6.48,8.646-6.48,13.736c0,5.077,0.637,6.853,5.467,14.219
		l16.39,25.558c5.722,9.023,6.488,10.674,6.488,15.755c0,10.947-8.524,17.93-21.864,17.93h-8.772V297.337z"/>
	<path d="M465.163,204.726h3.066c1.01,0,1.363,0.445,1.363,1.231c0.148,1.084-0.814,1.641-1.34,1.641h-3.09V204.726z
		 M462.899,213.819h2.264v-4.334h2.658c0.789,0,1.33,0.354,1.35,1.094c-0.02,0.807-0.02,1.671,0,2.214
		c0.031,0.368,0.121,0.692,0.311,1.026h2.414v-0.408c-0.246-0.146-0.416-0.283-0.416-0.908c-0.014-0.55-0.041-1.998-0.111-2.454
		c-0.121-0.989-0.834-1.256-1.215-1.516c0.738-0.438,1.215-0.79,1.482-1.729c0.27-0.952,0.053-1.735-0.092-2.211
		c-0.324-1.195-1.445-1.705-2.531-1.756h-6.113V213.819z"/>
	<path fill="none" stroke="#000000" stroke-width="1.7284" stroke-miterlimit="3.864" d="M459.493,208.621
		c0-4.287,3.463-7.761,7.746-7.761c4.287,0,7.762,3.474,7.762,7.761s-3.475,7.761-7.762,7.761
		C462.956,216.382,459.493,212.908,459.493,208.621z"/>
</g>
</svg>
