<?xml version="1.0" encoding="utf-8"?>
<!-- Generator: Adobe Illustrator 16.0.0, SVG Export Plug-In . SVG Version: 6.00 Build 0)  -->
<!DOCTYPE svg PUBLIC "-//W3C//DTD SVG 1.1//EN" "http://www.w3.org/Graphics/SVG/1.1/DTD/svg11.dtd">
<svg version="1.1" id="Calque_2" xmlns="http://www.w3.org/2000/svg" xmlns:xlink="http://www.w3.org/1999/xlink" x="0px" y="0px"
	 width="500px" height="500px" viewBox="0 0 500 500" enable-background="new 0 0 500 500" xml:space="preserve">
<g>
	<g>
		<path fill="#38AADD" d="M148.887,178.076c-0.807-2.875-5.226-9.906-9.759-9.906h-33.563v44.662h33.655l0.087-0.03
			c0.31-0.104,7.603-2.642,9.492-8.497c0.23-0.477,1.278-3.272,1.148-14.364C149.943,189.601,149.865,181.575,148.887,178.076z
			 M133.858,200.209h-16.572l0.065-19.485l16.659-0.003c0.175,0.018,4.285,0.488,4.285,5.203l0.002,8.025
			c0.003,0.032,0.274,3.243-1.375,5.048C136.189,199.802,135.158,200.209,133.858,200.209z"/>
		<rect x="152.095" y="168.17" fill="#38AADD" width="11.166" height="44.661"/>
		<path fill="#38AADD" d="M204.588,186.708c-1.077-1.165-2.569-1.755-4.434-1.755l-20.44,0.001c-0.133,0-0.827-0.019-1.453-0.371
			c-0.75-0.424-1.13-1.186-1.136-2.341c-0.07-0.507-0.098-2,0.603-2.804c0.345-0.396,0.83-0.588,1.482-0.588h13.871l0.14-0.019
			c0,0,0.055-0.013,0.14-0.013c0.867,0,1.384,1.204,1.384,3.221v0.556h11.235v-7.758c0.002-0.122,0.033-3.028-2.138-5.242
			c-1.559-1.59-3.827-2.396-6.74-2.396l-24.715,0.001c-0.06,0.003-5.937,0.391-5.937,7.768l0,15.102
			c-0.002,0.061-0.024,1.5,1.355,2.918c1.798,1.848,5.029,2.784,9.601,2.784l15.32-0.004c0.013-0.001,0.089-0.008,0.207-0.008
			c0.987,0,2.642,0.397,2.644,3.108c0.001,0.013,0.083,1.263-0.639,2.048c-0.416,0.451-1.041,0.68-1.859,0.68l-14.498,0.004
			c-0.019-0.002-1.869-0.259-1.869-3.609v-0.556h-10.264l0.004,10.472c0.025,0.201,0.708,4.925,8.733,4.925h22.075l0.022-0.002
			c0.091-0.007,9.111-0.81,9.111-7.349l-0.002-12.856C206.406,192.475,206.656,188.944,204.588,186.708z"/>
		<polygon fill="#38AADD" points="208.129,180.584 221.235,180.584 221.235,212.832 233.094,212.832 233.094,180.653 
			246.964,180.653 246.964,168.17 208.129,168.17 		"/>
		<path fill="#38AADD" d="M288.365,187.449v-9.569c0-8.701-6.099-9.694-6.24-9.71h-33.426v44.662h11.651v-11.097h14.84
			c0.396,0,0.695,0.121,0.915,0.369c0.548,0.618,0.528,1.896,0.471,2.405v8.322h11.653v-13.455c0-2.989-1.606-4.635-2.885-5.471
			c0.446-0.196,0.851-0.479,1.21-0.847C288.425,191.146,288.369,187.588,288.365,187.449z M259.933,179.405h15.117
			c1.979,0,2.349,2.339,2.358,2.358v4.576c0,2.128-2.75,2.623-2.774,2.636h-14.701V179.405z"/>
		<rect x="292.387" y="168.17" fill="#38AADD" width="11.235" height="44.661"/>
		<polygon fill="#38AADD" points="319.779,168.17 308.545,168.17 308.545,212.832 339.405,212.832 339.405,200.486 319.779,200.486 
					"/>
		<path fill="#38AADD" d="M355.653,168.17l-15.503,44.662h12.005l2.843-8.878h16.741l2.98,8.878h12.39l-18.204-44.662H355.653z
			 M368.168,193.689h-10.173l4.367-13.222L368.168,193.689z"/>
		<path fill="#38AADD" d="M425.019,188.519c0.394-0.215,0.75-0.487,1.068-0.817c1.757-1.822,1.673-4.727,1.668-4.829v-5.2
			c0-9.389-5.902-9.502-6.174-9.502H387.81v44.662h31.969c8.976,0,9.154-7.755,9.154-7.838v-11.373
			C428.933,190.748,426.971,189.228,425.019,188.519z M417.42,198.477c0,2.392-2.543,2.831-2.564,2.842h-15.882v-6.168l15.949,0.065
			C416.58,195.216,417.42,196.313,417.42,198.477z M414.856,184.605h-15.882v-6.168l15.949,0.066c1.656,0,2.497,1.097,2.497,3.26
			C417.42,184.155,414.877,184.595,414.856,184.605z"/>
		<path fill="#38AADD" d="M473.264,169.661c-1.451-1.587-3.511-2.393-6.12-2.393c-8.657,0-26.911-0.036-26.939-0.067
			c0,0-0.071-0.006-0.202-0.006c-0.8,0-7.811,0.28-7.811,9.991v26.059c-0.006,0.202-0.114,4.995,2.674,7.866
			c1.331,1.371,3.092,2.066,5.232,2.066h27.075l0.029-0.004c0.083-0.009,8.332-0.986,8.332-9.913l-0.002-26.096
			C475.549,176.979,475.913,172.557,473.264,169.661z M442.178,196.673v-14.425c0-4.226,3.792-4.298,3.954-4.299h14.354
			c1.176,0,2.102,0.343,2.752,1.02c1.195,1.242,1.133,3.236,1.132,3.279v14.425c0,4.165-3.735,4.296-3.884,4.299H446.13
			c-1.176,0-2.108-0.344-2.771-1.021C442.144,198.704,442.178,196.708,442.178,196.673z"/>
	</g>
	<path d="M69.133,213.96"/>
	<path fill="none" stroke="#000000" stroke-width="1.1101" d="M69.133,213.96"/>
	<g>
		<path fill="#38AADD" d="M58.59,188.994v13.107l0.018,0.139c0.104,0.401,2.573,9.598,9.969,10.039l0.002,105.744
			c0.006,0.075,0.532,7.562-4.114,12.585c-2.806,3.034-6.929,4.572-12.254,4.572c-17.533,0-18.018-15.175-18.029-15.811
			l-0.007-104.941c-0.004-0.026-0.394-2.663,1.166-4.484c1.028-1.2,2.691-1.81,4.943-1.81c2.267,0,3.889,0.487,4.821,1.449
			c1.044,1.077,0.999,2.526,0.975,3.305c-0.01,0.318-0.017,0.544,0.065,0.727c0.161,1.332,0.072,15.684-0.03,25.433
			c-1.512,0.423-6.386,2.128-6.386,6.535l0.001,49.066c-0.01,0.178-0.201,4.386,2.789,7.541c2.08,2.196,5.155,3.309,9.139,3.309
			c3.852,0,6.884-1.096,9.013-3.259c3.23-3.28,3.195-7.925,3.192-8.115v-49.097l-0.049-0.228c-0.103-0.228-2.427-5.31-5.778-5.832
			l0-26.377c0.01-0.272,0.186-6.728-4.351-11.43c-2.995-3.104-7.317-4.678-12.847-4.678c-5.689,0-10.01,1.577-12.841,4.688
			c-4.052,4.453-3.545,10.37-3.524,10.568l0.001,109.329c0.017,0.249,1.998,24.927,27.737,24.927
			c25.733,0,28.271-27.417,28.296-27.739V212.672c1.883-0.774,10.262-4.547,10.262-10.362v-13.315H58.59z"/>
		<path fill="#FFFFFF" d="M90.261,190.609v-18.45c0,0-1.261-8.658-7.895-8.658c0,0-0.564-8.942-8.047-8.942h0.706
			c-7.483,0-8.048,8.942-8.048,8.942c-6.635,0-7.896,8.658-7.896,8.658v18.45"/>
		<g>
			<path fill="#38AADD" d="M90.816,190.609h-1.11v-18.45c-0.006-0.002-1.269-8.104-7.339-8.104h-0.52l-0.034-0.52
				c-0.022-0.338-0.606-8.144-7.141-8.415c-6.55,0.271-7.12,8.077-7.141,8.415l-0.033,0.52h-0.521c-6.084,0-7.334,8.102-7.346,8.184
				l0.006,18.37h-1.11v-18.45c0.019-0.167,1.351-8.784,7.953-9.198c0.259-1.891,1.607-8.469,7.84-8.932v-0.025l0.706,0.025
				c6.233,0.463,7.581,7.041,7.839,8.932c6.602,0.414,7.933,9.029,7.946,9.118L90.816,190.609z"/>
		</g>
	</g>
	<path d="M174.474,234.671l0.5,0.13l0.434-0.086c0.393,0,0.618,0.311,0.677,0.927l0.043,0.259c0.13,0.476,0.212,0.898,0.24,1.272
		c0.028,0.375,0.095,0.67,0.197,0.886c0.101,0.216,0.152,0.338,0.152,0.366l-0.065,0.215c-0.029,0.028-0.044,0.072-0.044,0.129
		c0,0.158,0.097,0.324,0.292,0.496c0.196,0.175,0.294,0.303,0.294,0.389c0,0.332-0.238,0.496-0.718,0.496
		c-0.116,0-0.253-0.014-0.414-0.044c-0.161-0.026-0.29-0.043-0.392-0.043h-0.13l-0.218,0.043c-0.059,0-0.146-0.074-0.262-0.227
		c-0.118-0.149-0.342-0.368-0.674-0.657l-0.089-0.129v-0.453c-0.348-0.445-0.516-0.726-0.501-0.841
		c-0.144-0.13-0.217-0.366-0.217-0.712l-0.564-1.359c-0.102-0.214,0.1-0.524,0.607-0.927L174.474,234.671z M174.129,248.774
		c0.057-0.317,0.233-0.559,0.527-0.726c0.293-0.166,0.469-0.336,0.527-0.51c0.272-0.202,0.664-0.563,1.174-1.084
		c0.507-0.52,0.763-0.837,0.763-0.953c0-0.043-0.029-0.064-0.085-0.064h-0.043l-0.173,0.108l-0.387-0.044l-0.409,0.044l-0.302-0.152
		l-0.279,0.044l-0.431-0.087c-0.23,0-0.427,0.048-0.592,0.142c-0.165,0.094-0.481,0.198-0.947,0.313
		c-0.466,0.116-0.887,0.314-1.259,0.596c-0.373,0.282-0.646,0.423-0.818,0.423c-0.1,0.217-0.437,0.528-1.011,0.932
		c-0.345,0.116-0.568,0.369-0.668,0.759c-0.374,0.303-0.558,0.477-0.558,0.52l-0.152,0.369c-0.116,0.103-0.262,0.185-0.434,0.249
		c-0.173,0.064-0.275,0.217-0.303,0.455c-0.03,0.239-0.128,0.455-0.293,0.65c-0.168,0.195-0.251,0.351-0.251,0.465
		c0,0.71,0.138,1.063,0.414,1.063c0.115,0,0.355-0.076,0.726-0.228c0.367-0.15,0.579-0.256,0.637-0.313
		c0.058-0.059,0.173-0.116,0.346-0.175l0.409-0.216c0.056-0.058,0.122-0.093,0.192-0.108c0.073-0.015,0.144-0.062,0.217-0.142
		c0.07-0.078,0.201-0.165,0.387-0.259s0.33-0.221,0.431-0.38c0.244-0.144,0.638-0.369,1.185-0.672l0.45-0.347
		c0.316-0.144,0.51-0.267,0.582-0.368S173.912,248.876,174.129,248.774 M181.3,248.763l0.351-0.305c0.218,0,0.348-0.098,0.392-0.292
		c0.044-0.195,0.201-0.352,0.47-0.468c0.268-0.115,0.521-0.351,0.753-0.706c0.232-0.354,0.474-0.532,0.722-0.532
		c0.085,0,0.188,0.072,0.304,0.217s0.175,0.261,0.175,0.347c0,0.478-0.145,0.968-0.436,1.473l-0.085,0.605l-0.153,0.281
		c-0.218,0.116-0.359,0.239-0.423,0.369c-0.065,0.13-0.236,0.289-0.51,0.477l-0.218,0.304c-0.319,0.101-0.533,0.266-0.643,0.496
		c-0.107,0.232-0.26,0.362-0.455,0.391c-0.197,0.03-0.41,0.174-0.642,0.435c-0.146,0.072-0.319,0.137-0.521,0.194l-0.044,0.217
		c-0.146,0.144-0.374,0.258-0.685,0.346c-0.312,0.087-0.542,0.17-0.694,0.249c-0.153,0.079-0.258,0.119-0.315,0.119
		c-0.276,0-0.529-0.055-0.762-0.163c-0.232-0.106-0.471-0.175-0.717-0.205c-0.087-0.088-0.139-0.181-0.151-0.28
		c-0.016-0.101-0.09-0.234-0.219-0.401c-0.131-0.165-0.195-0.395-0.195-0.682l0.086-0.411c0-0.057-0.035-0.131-0.109-0.217
		c-0.072-0.087-0.108-0.158-0.108-0.217c0-0.058,0.015-0.102,0.044-0.131c0.029-0.027,0.043-0.07,0.043-0.128
		c0-0.071-0.014-0.152-0.043-0.238c-0.029-0.087-0.044-0.158-0.044-0.217l0.131-1.062c0-0.086-0.03-0.13-0.087-0.13
		c-0.059,0-0.163,0.072-0.316,0.217c-0.151,0.144-0.329,0.216-0.531,0.216c-0.115,0.086-0.209,0.268-0.281,0.542
		c-0.117,0.144-0.262,0.274-0.435,0.389l-0.087,0.13c-0.029,0.102-0.136,0.184-0.326,0.249c-0.188,0.065-0.319,0.148-0.39,0.249
		l-0.216,0.216l-0.414-0.043c-0.029,0.029-0.108,0.156-0.239,0.379c-0.129,0.223-0.295,0.408-0.499,0.553l-1.65,1.341
		c-0.173,0.114-0.426,0.261-0.759,0.434l-0.13,0.129c-1.157,0.765-1.975,1.148-2.452,1.148c-0.392,0-0.847-0.109-1.368-0.326
		c-0.521-0.217-0.803-0.477-0.847-0.78l-0.216-0.889c-0.129-0.202-0.196-0.484-0.196-0.848c0-0.173,0.016-0.287,0.044-0.345v-0.13
		l-0.044-0.716c0-0.174,0.137-0.26,0.412-0.26l-0.043-0.587c0-0.058,0.126-0.284,0.379-0.682c0.253-0.397,0.423-0.625,0.511-0.683
		l0.216-0.283c-0.014-0.174,0.086-0.355,0.304-0.552c0.217-0.194,0.39-0.394,0.521-0.596c0.129-0.203,0.375-0.428,0.735-0.673
		l0.651-0.65c0.505-0.504,1.055-0.911,1.646-1.214c0.087-0.028,0.263-0.173,0.53-0.434c0.267-0.261,0.571-0.452,0.91-0.575
		c0.339-0.122,0.672-0.276,0.998-0.466c0.325-0.188,0.58-0.281,0.769-0.281h0.173c0.057,0,0.44-0.18,1.149-0.542h0.131
		c0.056,0,0.194,0.058,0.411,0.173h0.044l0.345-0.173c0.056-0.027,0.129-0.043,0.215-0.043c0.895,0,1.387,0.628,1.474,1.886
		c0.029,0.259,0.103,0.39,0.217,0.39c0.144,0,0.35-0.265,0.618-0.792c0.266-0.526,0.834-0.79,1.703-0.79
		c0.621,0,0.932,0.396,0.932,1.192c0,0.939-0.418,1.827-1.258,2.664c-0.058,0.116-0.102,0.246-0.129,0.391l-0.305,0.889v0.043
		c0,0.088-0.062,0.206-0.185,0.357c-0.123,0.152-0.184,0.287-0.184,0.401l0.044,0.542l-0.088,0.607c0,0.274,0.051,0.454,0.152,0.542
		c0.466-0.116,0.804-0.308,1.016-0.576c0.212-0.268,0.36-0.416,0.448-0.446l0.218-0.086
		C180.972,249.09,181.125,248.908,181.3,248.763"/>
	<path d="M196.887,245.056l0.088-0.173c0.473,0,0.782-0.195,0.926-0.586l0.086-0.086c0.518-0.174,0.888-0.372,1.112-0.597
		c0.223-0.223,0.625-0.429,1.208-0.616c0.582-0.188,0.888-0.282,0.916-0.282c0.086,0,0.35,0.13,0.79,0.389
		c0.439,0.26,0.661,0.748,0.661,1.465c0,0.519-0.145,1.001-0.433,1.447v0.668l-0.045,0.173c-0.246,0.173-0.367,0.367-0.367,0.582
		v0.173l0.042,0.626l-0.607,1.315c-0.247,0.116-0.369,0.217-0.369,0.303c0,0.059,0.061,0.126,0.185,0.206
		c0.122,0.078,0.184,0.19,0.184,0.334c0,0.158-0.044,0.452-0.13,0.883c0.028,0.03,0.057,0.043,0.086,0.043h0.086
		c0.057-0.114,0.173-0.199,0.348-0.259l0.216-0.15c0.028-0.158,0.079-0.274,0.152-0.346h0.259c0.115,0,0.173-0.114,0.173-0.345
		c0-0.087,0.316-0.457,0.952-1.112c0.634-0.654,1.02-1.075,1.157-1.264c0.135-0.186,0.283-0.342,0.441-0.463
		s0.253-0.247,0.282-0.378c0.028-0.13,0.112-0.252,0.25-0.366c0.135-0.116,0.247-0.234,0.333-0.358
		c0.087-0.12,0.209-0.232,0.367-0.332c0.158-0.101,0.321-0.274,0.487-0.52c0.167-0.245,0.516-0.589,1.049-1.035
		c0.086-0.072,0.188-0.202,0.302-0.391c0.116-0.186,0.33-0.376,0.639-0.572c0.31-0.192,0.604-0.431,0.888-0.711
		c0.28-0.28,0.758-0.421,1.438-0.421c0.387,0,0.765,0.184,1.133,0.551s0.552,0.745,0.552,1.135c0,0.2-0.038,0.356-0.108,0.465
		c-0.072,0.108-0.192,0.292-0.358,0.551s-0.321,0.389-0.465,0.389l-0.388-0.13c-0.276,0.273-0.557,0.41-0.847,0.41l-0.41-0.086
		c-0.26,0.175-0.471,0.267-0.629,0.281c-0.158,0.016-0.291,0.103-0.399,0.26c-0.108,0.158-0.228,0.248-0.357,0.27
		c-0.13,0.021-0.275,0.091-0.433,0.205l-0.346,0.173c-0.145,0.36-0.454,0.627-0.931,0.8c-0.174,0.174-0.333,0.375-0.476,0.605
		c0,0.043-0.069,0.102-0.206,0.174c-0.137,0.071-0.28,0.2-0.423,0.389c-0.144,0.187-0.258,0.28-0.346,0.28h-0.194
		c-0.115,0.13-0.202,0.331-0.259,0.604c-0.059,0.274-0.297,0.462-0.715,0.563c-0.058,0.028-0.144,0.134-0.259,0.313
		c-0.116,0.18-0.281,0.32-0.498,0.42c-0.086,0.331-0.275,0.598-0.563,0.8l-0.26,0.455c-0.072,0.144-0.213,0.283-0.422,0.421
		c-0.209,0.137-0.321,0.219-0.335,0.248c-0.015,0.028-0.108,0.221-0.281,0.572c-0.173,0.353-0.364,0.579-0.573,0.682
		c-0.21,0.102-0.416,0.264-0.618,0.486c-0.201,0.224-0.375,0.334-0.518,0.334c-0.506,0-1.046-0.409-1.625-1.229
		s-0.868-1.338-0.868-1.554c0-0.807,0.112-1.436,0.336-1.888c0.225-0.453,0.359-0.885,0.403-1.296
		c0.042-0.41,0.123-0.766,0.238-1.067l0.129-0.67l0.175-0.303c0.101-0.114,0.188-0.307,0.261-0.581l0.108-0.347
		c0-0.258-0.08-0.388-0.238-0.388c-0.205,0-0.376,0.13-0.52,0.391l-0.086,0.085c-0.356-0.085-0.542-0.129-0.557-0.129
		c-0.1,0-0.194,0.225-0.28,0.671c-0.058,0.146-0.201,0.239-0.429,0.282c-0.23,0.044-0.479,0.275-0.75,0.694l-0.107,0.087
		c-0.13,0.028-0.215,0.059-0.258,0.086c-0.201,0.332-0.344,0.498-0.429,0.498c-0.085,0-0.174-0.082-0.268-0.249
		c-0.094-0.166-0.212-0.293-0.355-0.379c-0.141-0.087-0.214-0.195-0.214-0.325c0-0.331,0.323-0.759,0.971-1.278
		c0.144-0.116,0.23-0.223,0.259-0.325c0.028-0.101,0.223-0.165,0.583-0.195C196.641,245.483,196.742,245.331,196.887,245.056"/>
	<path d="M215.756,252.672l0.085,0.498l0.044,0.044h0.349l0.108,0.044c0.29,0.058,0.51,0.085,0.654,0.085
		c0.45,0,0.811-0.111,1.078-0.334c0.269-0.224,0.484-0.337,0.645-0.337c0.159,0,0.293-0.106,0.403-0.323
		c0.108-0.216,0.178-0.324,0.207-0.324h0.306l0.087-0.043c0-0.333,0.148-0.568,0.448-0.714c0.297-0.145,0.507-0.334,0.633-0.572
		c0.123-0.238,0.264-0.418,0.423-0.539c0.161-0.124,0.269-0.286,0.328-0.487l0.175-0.261c0.059-0.057,0.086-0.166,0.086-0.324
		l0.415-0.777c0.086-0.36,0.13-0.642,0.13-0.844c0-0.302-0.157-0.539-0.47-0.713c-0.312-0.173-0.467-0.511-0.467-1.017
		c0-0.331,0.169-0.636,0.511-0.918c0.34-0.281,0.513-0.451,0.513-0.51c0-0.086-0.044-0.13-0.131-0.13
		c-0.044,0-0.209,0.059-0.501,0.174c-0.101,0.203-0.618,0.47-1.546,0.801c-0.307-0.144-0.475-0.216-0.502-0.216
		c-0.087,0-0.176,0.087-0.262,0.26c-0.087,0.173-0.175,0.295-0.262,0.366h-0.285c-0.028,0-0.123,0.095-0.283,0.281
		c-0.16,0.188-0.363,0.281-0.61,0.281l-0.261,0.26c0.013,0.231-0.13,0.469-0.436,0.714l-0.241,0.28
		c-0.145,0.173-0.333,0.376-0.566,0.605l-0.393,0.972c-0.162,0.376-0.239,0.656-0.239,0.844c-0.044,0.086-0.143,0.177-0.294,0.271
		c-0.152,0.094-0.228,0.213-0.228,0.356c0,0.029,0.05,0.103,0.152,0.217s0.153,0.202,0.153,0.259l-0.089,0.281l-0.086,0.8
		L215.756,252.672z M222.553,252.123l-1.024,0.891c-0.058-0.058-0.115-0.087-0.175-0.087c-0.144,0-0.323,0.131-0.534,0.392
		c-0.209,0.26-0.359,0.391-0.445,0.391l-0.219-0.043c-0.364,0.275-0.624,0.435-0.784,0.478c-0.161,0.043-0.353,0.124-0.578,0.239
		c-0.225,0.115-0.427,0.182-0.61,0.196c-0.182,0.015-0.33,0.075-0.445,0.185c-0.117,0.107-0.4,0.16-0.851,0.16l-0.348-0.042
		c-0.188,0.086-0.312,0.13-0.37,0.13c-0.118,0-0.241-0.061-0.372-0.184c-0.13-0.123-0.272-0.191-0.423-0.207
		c-0.153-0.013-0.309-0.115-0.469-0.303c-0.161-0.188-0.309-0.318-0.446-0.392c-0.14-0.072-0.251-0.174-0.338-0.305l-0.305-0.26
		c-0.247-0.174-0.487-0.493-0.719-0.957c-0.232-0.463-0.348-0.826-0.348-1.086v-0.087l0.042-0.413l-0.042-0.479
		c0.059-0.058,0.13-0.179,0.218-0.368v-0.695l0.521-1.738c0.027-0.072-0.031-0.166-0.175-0.283
		c-0.144,0.218-0.289,0.349-0.432,0.392c-0.146,0.043-0.242,0.146-0.292,0.306c-0.051,0.159-0.135,0.237-0.25,0.237l-0.26-0.086
		c-0.029,0.029-0.095,0.177-0.196,0.445c-0.102,0.269-0.275,0.401-0.521,0.401c-0.259,0-0.39-0.101-0.39-0.305l0.043-0.392
		l-0.129-0.542c0-0.115,0.117-0.344,0.347-0.684c0.232-0.34,0.447-0.537,0.643-0.589c0.197-0.05,0.364-0.187,0.5-0.412
		c0.139-0.224,0.44-0.496,0.905-0.814c0.26-0.058,0.485-0.245,0.674-0.565c0.204-0.158,0.468-0.288,0.795-0.391
		c0.325-0.102,0.573-0.25,0.74-0.444c0.168-0.195,0.66-0.5,1.481-0.913c0.82-0.413,1.419-0.619,1.797-0.619
		c0.115,0,0.273-0.032,0.478-0.098c0.203-0.065,0.392-0.123,0.567-0.174c0.173-0.05,0.355-0.131,0.543-0.24
		c0.189-0.108,0.34-0.163,0.458-0.163l0.631,0.218c0.465,0.131,0.748,0.225,0.851,0.282c0.028,0.029,0.176,0.091,0.445,0.186
		c0.268,0.094,0.544,0.221,0.827,0.38c0.284,0.159,0.425,0.456,0.425,0.892c-0.247,0.36-0.371,0.558-0.371,0.585
		c0,0.059,0.167,0.146,0.501,0.262c0.115,0.218,0.29,0.501,0.523,0.848l0.24,0.76l0.042,1.782l-0.042,0.174
		c-0.161,0.146-0.24,0.239-0.24,0.281l0.064,0.436l-0.174,0.608c-0.042,0.188-0.117,0.312-0.217,0.369
		c-0.102,0.059-0.169,0.131-0.197,0.217l-0.132,0.175c-0.028,0.044-0.091,0.17-0.185,0.38c-0.094,0.21-0.2,0.374-0.315,0.489
		c-0.118,0.116-0.19,0.254-0.219,0.412c-0.028,0.16-0.101,0.276-0.217,0.348c-0.117,0.073-0.201,0.148-0.252,0.229
		C222.751,251.997,222.668,252.065,222.553,252.123"/>
	<path d="M233.596,234.773l0.304-0.088l0.217-0.216h0.043l0.195,0.086h0.042c0.348,0,0.657-0.068,0.925-0.205
		c0.269-0.139,0.497-0.235,0.678-0.294c0.183-0.058,0.296-0.102,0.339-0.13c0.044-0.028,0.079-0.044,0.111-0.044l0.351,0.044
		c0.114,0,0.268-0.206,0.461-0.618c0.195-0.411,0.413-0.711,0.658-0.9c0.245-0.188,0.489-0.542,0.734-1.063
		c0.057-0.071,0.123-0.185,0.193-0.336c0.072-0.151,0.129-0.229,0.173-0.229c0.215,0,0.388-0.136,0.517-0.411
		c0.432-0.505,0.782-0.76,1.056-0.76c0.36,0,0.611,0.348,0.754,1.042l0.218,0.824c0,0.015-0.035,0.12-0.109,0.315
		c-0.072,0.194-0.105,0.392-0.098,0.585c0.007,0.196,0,0.326-0.021,0.391c-0.022,0.066-0.033,0.141-0.033,0.228
		c0,0.116,0.123,0.174,0.369,0.174c0.087,0,0.246-0.058,0.478-0.174l0.13-0.043c0.145,0.087,0.266,0.131,0.369,0.131
		c0.028,0,0.236-0.072,0.618-0.217c0.384-0.145,0.625-0.224,0.728-0.239c0.101-0.014,0.273-0.071,0.521-0.174h0.261l0.174,0.065
		c0.059,0,0.178-0.06,0.358-0.184c0.18-0.123,0.524-0.199,1.03-0.228l0.304-0.13h0.088c0.477,0,0.716,0.209,0.716,0.628
		c0,0.086-0.07,0.238-0.207,0.455c-0.139,0.217-0.25,0.463-0.337,0.737l-0.998,1.259c-0.333,0.435-0.667,0.651-0.999,0.651
		c-0.058,0-0.238-0.195-0.542-0.587c0-0.027-0.029-0.044-0.086-0.044c-0.146,0-0.298,0.03-0.456,0.088
		c-0.159,0.059-0.29,0.087-0.392,0.087c-0.044,0-0.427,0.108-1.15,0.325l-0.521,0.087c-0.058,0-0.197,0.029-0.414,0.088
		l-1.111,0.217c-0.378,0.188-0.675,0.542-0.893,1.063c0,0.029-0.074,0.094-0.219,0.194l-0.982,1.779
		c-0.32,0.089-0.529,0.276-0.63,0.564l-0.086,0.131c-0.16,0.029-0.306,0.119-0.436,0.271c-0.13,0.152-0.254,0.271-0.37,0.357
		l-0.391,0.586c-0.162,0.203-0.32,0.424-0.479,0.663c-0.161,0.237-0.276,0.492-0.348,0.759c-0.074,0.268-0.132,0.423-0.174,0.466
		c-0.044,0.044-0.065,0.123-0.065,0.239l-0.065,0.173c-0.175,0.174-0.26,0.369-0.26,0.585l0.085,0.349
		c-0.203,0.695-0.303,1.063-0.303,1.105c0,0.031,0.014,0.109,0.042,0.24v0.13c0,0.318-0.115,0.716-0.347,1.191l0.042,0.35
		l-0.13,0.976c0,0.131,0.043,0.37,0.13,0.716c-0.06,0.059-0.086,0.103-0.086,0.13c0,0.406,0.213,0.851,0.64,1.336
		c0.427,0.484,0.643,1.238,0.643,2.266c0,0.087-0.022,0.214-0.066,0.382c-0.043,0.165-0.072,0.346-0.085,0.54
		c-0.017,0.196-0.128,0.387-0.338,0.577c-0.21,0.188-0.387,0.281-0.533,0.281c-0.769,0-1.341-0.558-1.718-1.674
		c-0.377-1.115-0.566-1.833-0.566-2.152l0.044-0.847l-0.131-0.434l0.131-1.906l-0.087-0.456l0.501-1.863v-0.671
		c0-0.029,0.101-0.145,0.304-0.348c0-0.027-0.029-0.044-0.086-0.044c-0.089,0-0.205,0.087-0.35,0.261
		c-0.146,0.173-0.326,0.34-0.542,0.498l-0.175,0.304c-0.028-0.028-0.086-0.057-0.174-0.087c-0.072,0.03-0.312,0.369-0.718,1.02
		c-0.304,0.042-0.543,0.217-0.717,0.52c-0.174,0.304-0.415,0.455-0.718,0.455l-0.088,0.043c-0.059,0.42-0.26,0.628-0.608,0.628
		l-0.087,0.044c-0.218,0.492-0.443,0.729-0.675,0.715c-0.144,0.434-0.499,0.73-1.065,0.889c-0.086,0.175-0.213,0.304-0.381,0.39
		c-0.167,0.087-0.285,0.167-0.359,0.239c-0.072,0.072-0.136,0.108-0.194,0.108c-0.189,0-0.284-0.202-0.284-0.606
		c0-0.115,0.047-0.242,0.141-0.38c0.096-0.138,0.143-0.234,0.143-0.293c0-0.028-0.072-0.114-0.218-0.261
		c0-0.447,0.117-0.729,0.348-0.845c0.235-0.115,0.409-0.283,0.526-0.5c0.073-0.174,0.219-0.296,0.437-0.368
		c0.218-0.071,0.328-0.166,0.328-0.282c0-0.101,0.188-0.304,0.568-0.606c0.378-0.304,0.655-0.567,0.829-0.792
		c0.175-0.224,0.321-0.336,0.438-0.336l0.086-0.087c0.029-0.361,0.169-0.543,0.415-0.543l0.219-0.13l0.042-0.173l0.132-0.087h0.174
		l0.109-0.086c0.028-0.361,0.2-0.644,0.512-0.847c0.313-0.202,0.885-0.77,1.716-1.702c0.83-0.932,1.296-1.528,1.396-1.789
		c0.103-0.259,0.289-0.61,0.559-1.052c0.268-0.44,0.417-0.856,0.448-1.247c-0.03-0.057-0.074-0.114-0.131-0.173l-0.932,0.455
		c0-0.044-0.146-0.108-0.434-0.196c-0.217,0.131-0.377,0.261-0.479,0.392c-0.1,0.129-0.18,0.194-0.237,0.194l-0.304-0.044
		l-0.955,0.108c-0.854,0.072-1.497,0.247-1.931,0.521l-0.891,0.26h-0.196c-0.116,0-0.289,0.073-0.521,0.217l-0.498-0.042
		c-0.463,0.245-0.804,0.367-1.021,0.367c-0.028,0-0.115-0.014-0.261-0.043l-2.214,0.606c-0.174,0.059-0.563,0.355-1.172,0.89
		l-0.173,0.042c-0.145,0-0.315-0.162-0.511-0.487c-0.195-0.324-0.293-0.618-0.293-0.877c0-1.431,1.231-2.262,3.69-2.493l0.89-0.347
		h0.044l0.238,0.088h0.086c0.087,0,0.225-0.056,0.413-0.163c0.188-0.108,0.608-0.243,1.259-0.403l0.891-0.237l0.282,0.043
		c0.144,0,0.307-0.057,0.488-0.173c0.18-0.115,0.455-0.199,0.825-0.25c0.367-0.05,0.625-0.104,0.77-0.164l0.347-0.086
		c0.057,0,0.177-0.05,0.358-0.151c0.18-0.102,0.416-0.152,0.707-0.152C233.314,234.686,233.423,234.715,233.596,234.773"/>
	<path d="M243.717,243.812l0.326-0.087l0.129-0.279c0.708-0.42,1.214-0.814,1.517-1.189c0.028-0.057,0.094-0.115,0.195-0.172
		c0.101-0.058,0.209-0.158,0.325-0.303c0.536-0.533,1.17-0.8,1.909-0.8c0.868,0,1.331,0.53,1.39,1.59l0.129,0.326
		c0.117,0.203,0.278,0.617,0.489,1.241c0.21,0.624,0.315,1.008,0.315,1.154c0,0.392-0.123,0.783-0.369,1.174
		c-0.203,0.103-0.688,0.647-1.454,1.634l-0.217,0.153c-0.118,0.262-0.27,0.523-0.456,0.782c-0.291,0.103-0.436,0.212-0.436,0.328
		v0.392c0,0.029-0.032,0.088-0.096,0.175c-0.067,0.088-0.157,0.253-0.272,0.5l-0.173,0.261c-0.059,0.059-0.116,0.18-0.174,0.36
		c-0.059,0.181-0.141,0.344-0.25,0.488c-0.108,0.146-0.162,0.265-0.162,0.35c0,0.218,0.281,0.326,0.846,0.326
		c0.028,0,0.136-0.044,0.325-0.13l0.303,0.086c0.029,0,0.101-0.046,0.217-0.141c0.114-0.094,0.293-0.171,0.532-0.229
		c0.237-0.058,0.448-0.146,0.629-0.263c0.18-0.115,0.396-0.218,0.65-0.304c0.253-0.088,0.496-0.229,0.726-0.426
		c0.231-0.195,0.459-0.338,0.683-0.426c0.225-0.086,0.435-0.222,0.628-0.403c0.196-0.182,0.416-0.353,0.663-0.513
		c0.245-0.16,0.635-0.509,1.171-1.047c0.346-0.275,0.584-0.429,0.714-0.457c0.028,0,0.155-0.192,0.38-0.578
		c0.224-0.386,0.48-0.578,0.771-0.578c0.302,0,0.454,0.145,0.454,0.434c0,0.16-0.073,0.313-0.217,0.456v0.132l0.044,0.347
		c0.027,0.044,0.042,0.109,0.042,0.195c0,0.059-0.053,0.146-0.161,0.262s-0.186,0.265-0.229,0.445
		c-0.041,0.182-0.18,0.3-0.412,0.358c-0.086,0.319-0.198,0.5-0.336,0.543c-0.138,0.044-0.328,0.188-0.574,0.435
		c-0.246,0.247-0.593,0.536-1.04,0.868c-0.449,0.335-0.756,0.591-0.923,0.771c-0.166,0.184-0.278,0.274-0.335,0.274
		c-0.029,0-0.088-0.029-0.175-0.088c-0.086-0.059-0.146-0.088-0.173-0.088c-0.087,0-0.146,0.102-0.172,0.305l-0.088,0.218
		c-0.188,0.115-0.297,0.174-0.325,0.174l-0.13-0.044h-0.088c-0.174,0-0.261,0.065-0.261,0.197l0.132,0.214v0.044
		c0,0.204-0.115,0.306-0.348,0.306c-0.16,0-0.622,0.269-1.387,0.804l-0.63,0.129l-0.52,0.282c-0.173-0.1-0.282-0.149-0.326-0.149
		l-0.347,0.108l-0.629,0.041c-0.015,0-0.277-0.142-0.791-0.433c-0.515-0.29-0.821-0.58-0.922-0.871
		c-0.102-0.29-0.232-0.582-0.391-0.881c-0.158-0.296-0.238-0.503-0.238-0.621c0-0.694,0.057-1.191,0.174-1.488
		c0.115-0.297,0.188-0.52,0.217-0.664c0.028-0.146,0.112-0.3,0.25-0.467c0.137-0.167,0.25-0.438,0.337-0.816
		c0.418-0.841,0.708-1.355,0.868-1.544c0.159-0.188,0.282-0.42,0.37-0.696l0.281-0.391c0.029-0.029,0.072-0.142,0.13-0.338
		c0.058-0.194,0.13-0.308,0.218-0.338c0.114-0.203,0.172-0.332,0.172-0.392c0-0.42-0.187-0.63-0.564-0.63
		c-0.072,0-0.151,0.076-0.237,0.227c-0.087,0.151-0.287,0.299-0.597,0.441c-0.313,0.143-0.504,0.252-0.576,0.323
		s-0.228,0.161-0.466,0.27c-0.237,0.108-0.444,0.276-0.617,0.506l-0.369,0.174c-0.116,0.272-0.216,0.424-0.303,0.451
		c-0.086,0.03-0.353,0.102-0.802,0.216c-0.029,0.016-0.101,0.101-0.217,0.259c-0.116,0.159-0.282,0.237-0.498,0.237
		c-0.173,0.173-0.346,0.374-0.52,0.604c-0.059,0-0.21,0.057-0.457,0.172l-0.432,0.108c-0.116,0.087-0.244,0.223-0.38,0.41
		c-0.136,0.187-0.393,0.278-0.768,0.278c-0.217,0-0.325-0.172-0.325-0.517c0-0.706,0.25-1.268,0.748-1.687
		c0.499-0.416,0.862-0.64,1.094-0.668c0.231-0.029,0.375-0.115,0.434-0.26c0.057-0.145,0.197-0.263,0.422-0.356
		c0.223-0.094,0.483-0.303,0.78-0.627c0.296-0.324,0.618-0.543,0.965-0.659L243.717,243.812z"/>
	<path d="M263.072,244.25l-0.26,0.129c-0.059,0.03-0.229,0.157-0.511,0.38c-0.281,0.225-0.557,0.405-0.825,0.542
		c-0.268,0.138-0.543,0.495-0.824,1.073c-0.282,0.577-0.423,0.908-0.423,0.995s0.044,0.13,0.13,0.13l0.738-0.325
		c0.274-0.13,0.532-0.295,0.771-0.498c0.238-0.202,0.583-0.447,1.032-0.736l0.172-0.174c0.029-0.057,0.162-0.162,0.402-0.313
		c0.237-0.151,0.416-0.3,0.531-0.443l0.218-0.088c0.245-0.39,0.494-0.627,0.748-0.715c0.254-0.086,0.38-0.174,0.38-0.26
		c0-0.174-0.139-0.26-0.412-0.26c-0.117,0-0.29,0.072-0.521,0.217h-0.501c-0.058,0-0.218,0.086-0.477,0.26L263.072,244.25z
		 M258.458,245.556l0.457-0.368c0.347-0.027,0.536-0.208,0.564-0.539c0.029-0.332,0.269-0.619,0.72-0.864l0.259-0.368
		c0.217-0.216,0.812-0.496,1.784-0.841c0.245-0.144,0.412-0.274,0.5-0.391c0.026-0.027,0.057-0.042,0.085-0.042l0.35,0.086
		c0.188,0,0.432-0.05,0.728-0.15c0.297-0.102,0.585-0.151,0.86-0.151l0.912-0.043c0.059,0,0.177,0.043,0.359,0.13
		c0.181,0.087,0.401,0.129,0.663,0.129c0.317,0,0.611,0.146,0.881,0.434c0.268,0.289,0.401,0.556,0.401,0.8
		c0,0.447-0.232,0.903-0.693,1.364c-0.463,0.461-0.831,0.722-1.104,0.779c-0.247,0.245-0.434,0.399-0.564,0.465
		c-0.13,0.065-0.265,0.167-0.399,0.304c-0.139,0.137-0.25,0.205-0.337,0.205c-0.059,0-0.103-0.017-0.129-0.054
		c-0.031-0.035-0.074-0.055-0.132-0.055c-0.231,0-0.483,0.282-0.757,0.846l-0.391-0.044c-0.246,0.158-0.405,0.331-0.476,0.519
		c-0.074,0.188-0.224,0.282-0.456,0.282c-0.534,0.533-0.896,0.801-1.083,0.801c-0.029,0-0.13-0.028-0.305-0.087
		c-0.115,0.145-0.173,0.296-0.173,0.454c0,0.173-0.115,0.274-0.347,0.302l-0.279,0.261l-0.217-0.042l-0.435,0.453
		c-0.217,0-0.44,0.072-0.672,0.218c-0.028,0.173-0.072,0.394-0.13,0.66c-0.059,0.266-0.086,0.414-0.086,0.442
		c0,0.419,0.384,0.628,1.15,0.628l1.046-0.149c0.273,0,0.531-0.072,0.77-0.216c0.238-0.143,0.497-0.217,0.771-0.217
		c0.088,0,0.217-0.026,0.392-0.085l0.218,0.085c0.102-0.214,0.29-0.408,0.565-0.581c0.274-0.171,0.491-0.258,0.65-0.258l0.219-0.129
		c0.058-0.171,0.144-0.287,0.261-0.345l0.174-0.15c0.114-0.116,0.224-0.173,0.326-0.173h0.305l0.087-0.043
		c0.173-0.372,0.416-0.59,0.728-0.656c0.312-0.065,0.507-0.169,0.587-0.312c0.08-0.144,0.22-0.229,0.424-0.26
		c0.203-0.027,0.374-0.126,0.511-0.29c0.139-0.165,0.308-0.32,0.512-0.462c0.202-0.144,0.344-0.252,0.424-0.322
		c0.079-0.073,0.147-0.109,0.206-0.109c0.086,0,0.131,0.065,0.131,0.193c0,0.131,0.028,0.194,0.087,0.194
		c0.057,0,0.086-0.028,0.086-0.086c0-0.057-0.015-0.128-0.044-0.215v-0.151c0-0.214,0.116-0.358,0.35-0.432l0.979-0.624
		c0.026-0.301,0.11-0.476,0.249-0.525c0.137-0.051,0.242-0.108,0.315-0.174c0.071-0.064,0.153-0.097,0.238-0.097
		c0.189,0,0.283,0.108,0.283,0.323l-0.107,0.558l0.107,0.581c0,0.087-0.07,0.205-0.206,0.355c-0.139,0.149-0.245,0.381-0.316,0.688
		c-0.073,0.308-0.168,0.476-0.284,0.505h-0.13c-0.262,0.272-0.469,0.433-0.621,0.482c-0.153,0.051-0.273,0.141-0.358,0.269
		l-0.742,0.84c-0.146,0.142-0.27,0.271-0.371,0.387c-0.102,0.114-0.182,0.171-0.238,0.171l-0.176-0.171
		c0-0.029-0.028-0.044-0.085-0.044c-0.146,0-0.237,0.087-0.273,0.258c-0.037,0.171-0.113,0.322-0.229,0.451
		c-0.436,0.202-0.719,0.389-0.849,0.56l-0.131,0.043h-0.392c-0.189,0-0.321,0.14-0.395,0.42c-0.071,0.279-0.278,0.44-0.62,0.484
		c-0.342,0.043-0.584,0.127-0.729,0.258c-0.03,0.026-0.096,0.057-0.197,0.085c-0.102,0.029-0.306,0.144-0.609,0.345l-1.83,0.646
		c-0.146,0.07-0.239,0.107-0.282,0.107l-0.611,0.085c-0.088,0-0.175-0.058-0.262-0.172c-0.087-0.115-0.146-0.171-0.173-0.171
		l-0.393,0.127c-0.291,0.087-0.567,0.131-0.829,0.131c-0.145,0-0.305-0.052-0.479-0.151c-0.175-0.102-0.312-0.174-0.413-0.217
		c-0.422,0-0.722-0.324-0.895-0.973l-0.26,0.044c-0.059,0-0.256-0.512-0.589-1.535c-0.086-0.115-0.225-0.196-0.413-0.248
		c-0.188-0.05-0.281-0.19-0.281-0.421c0-0.647,0.142-1.084,0.423-1.307c0.282-0.224,0.438-0.393,0.467-0.508l0.305-1.123
		c0.057-0.044,0.131-0.188,0.218-0.433l0.5-0.907C258.125,246.211,258.254,245.959,258.458,245.556"/>
	<path d="M289.915,244.536l0.604-0.282c0.202-0.131,0.396-0.317,0.587-0.563l0.754-0.543c0.434-0.291,0.716-0.437,0.845-0.437
		l0.346,0.131c0.029,0,0.119-0.09,0.27-0.272c0.151-0.18,0.329-0.271,0.53-0.271c0.259,0,0.613,0.196,1.059,0.585
		c0.445,0.39,0.672,0.735,0.672,1.039l-0.087,0.735c0,0.115,0.058,0.44,0.172,0.974v0.172l-0.085,0.521l0.085,0.541l-0.235,1.06
		c0,0.274,0.092,0.412,0.279,0.412c0.248-0.231,0.463-0.367,0.638-0.41l0.305-0.302c0.119-0.114,0.206-0.172,0.265-0.172
		s0.134-0.068,0.229-0.204c0.095-0.138,0.214-0.233,0.362-0.291c0.146-0.059,0.248-0.158,0.307-0.303
		c0.817-0.876,1.445-1.378,1.884-1.509c0.058,0,0.158-0.071,0.297-0.214c0.139-0.144,0.25-0.229,0.338-0.259l0.484-0.367
		l0.194,0.088h0.046c0.027,0,0.145-0.071,0.351-0.217c0.202-0.143,0.349-0.215,0.438-0.215c0.555,0,1.01,0.183,1.367,0.549
		c0.358,0.367,0.538,0.649,0.538,0.85l-0.109,0.495l0.153,0.668v0.432l-0.109,0.451c0,0.087,0.061,0.208,0.185,0.366
		s0.186,0.266,0.186,0.323c-0.173,0.187-0.261,0.308-0.261,0.367l0.044,0.386l-0.107,1.185c0,0.1,0.093,0.266,0.28,0.495
		c0.087-0.057,0.209-0.106,0.367-0.15c0.158-0.043,0.28-0.089,0.367-0.139c0.085-0.05,0.129-0.08,0.129-0.087
		s-0.007-0.012-0.021-0.012c0.029,0,0.116,0.029,0.26,0.086h0.086c0.114,0,0.183-0.109,0.194-0.332
		c0.015-0.222,0.158-0.404,0.434-0.549l0.518,0.044c0.029-0.029,0.091-0.146,0.183-0.354c0.093-0.209,0.396-0.517,0.908-0.925
		c0.511-0.408,0.905-0.613,1.178-0.613c0.229,0,0.346,0.101,0.346,0.303c0,0.057-0.029,0.208-0.086,0.454
		c0.115,0.2,0.173,0.373,0.173,0.517c0,0.272-0.235,0.569-0.705,0.886c-0.475,0.316-0.832,0.712-1.078,1.186l-0.088,0.088
		l-0.433-0.044c-0.032,0-0.101,0.111-0.207,0.336c-0.109,0.223-0.236,0.349-0.382,0.376c-0.144,0.03-0.246,0.072-0.305,0.131
		l-0.455,0.278c-0.088,0.059-0.375,0.351-0.861,0.875c-0.484,0.526-0.894,0.787-1.227,0.787c-0.146,0-0.406-0.074-0.786-0.225
		c-0.375-0.151-0.63-0.306-0.759-0.464s-0.314-0.337-0.556-0.539c-0.238-0.199-0.357-0.58-0.357-1.141
		c0-0.028,0.039-0.079,0.119-0.151c0.081-0.07,0.119-0.128,0.119-0.172c-0.333-0.431-0.498-0.739-0.498-0.926
		c0-0.085,0.012-0.179,0.043-0.279c0.029-0.102,0.044-0.195,0.044-0.281l-0.044-0.753l0.086-0.388l-0.042-0.238l0.129-1.098
		c0-0.172-0.102-0.258-0.304-0.258c-0.059,0-0.137,0.059-0.238,0.173c-0.103,0.115-0.229,0.204-0.38,0.27
		c-0.153,0.064-0.314,0.271-0.489,0.614c-0.261,0.145-0.438,0.285-0.53,0.423c-0.095,0.136-0.171,0.204-0.229,0.204
		c-0.029,0-0.088-0.014-0.173-0.044c-0.176,0.115-0.264,0.245-0.264,0.389v0.086l0.044,0.174c0,0.13-0.109,0.253-0.326,0.367
		c-0.216,0.115-0.483,0.41-0.803,0.885c-0.144,0-0.243,0.015-0.304,0.043l-0.258,0.518c-0.146,0.087-0.283,0.238-0.414,0.453
		l-0.258,0.13c-0.103,0.188-0.205,0.346-0.307,0.476l-0.129,0.236c-0.623,0.734-1.057,1.101-1.303,1.101
		c-0.248,0-0.545-0.324-0.891-0.976c-0.348-0.648-0.521-1.154-0.521-1.516l0.088-0.803c0-0.027-0.061-0.144-0.175-0.347v-0.087
		c0-0.027,0.058-0.194,0.175-0.499v-0.648c0-0.029-0.018-0.072-0.044-0.131v-0.108c0-0.027,0.056-0.143,0.173-0.347l-0.129-0.627
		l0.085-0.349l-0.044-0.759l0.088-0.671c0-0.043-0.041-0.119-0.119-0.228c-0.083-0.108-0.137-0.163-0.163-0.163
		c-0.103,0-0.404,0.167-0.905,0.498c-0.501,0.333-0.84,0.594-1.013,0.78c-0.175,0.189-0.406,0.412-0.698,0.673
		c-0.304,0.145-0.516,0.514-0.63,1.105c0,0.028-0.032,0.044-0.088,0.044c0-0.029-0.044-0.06-0.132-0.088h-0.087
		c-0.073,0-0.3,0.311-0.675,0.933l-0.087,0.085l-0.414-0.085c-0.348,0-0.523,0.367-0.523,1.105c0,0.129-0.09,0.216-0.272,0.26
		c-0.183,0.042-0.323,0.166-0.423,0.367c-0.103,0.204-0.241,0.412-0.416,0.629c-0.331,0.146-0.517,0.253-0.561,0.326
		c0,0.015-0.16,0.231-0.477,0.648c-0.316,0.42-0.489,0.666-0.519,0.738c-0.026,0.072-0.124,0.156-0.292,0.249
		c-0.165,0.093-0.245,0.175-0.245,0.248l0.065,0.366c0,0.229-0.224,0.346-0.672,0.346c-0.866,0-1.3-0.899-1.3-2.703
		c0-0.202,0.093-0.428,0.272-0.682c0.181-0.251,0.358-0.558,0.533-0.918c0.275-0.274,0.599-0.671,0.974-1.19
		c0.377-0.52,0.659-0.872,0.85-1.061l0.282-0.453c0-0.173,0.034-0.303,0.106-0.389c0.073-0.087,0.107-0.195,0.107-0.325
		c0-0.229-0.056-0.345-0.173-0.345c-0.275,0-0.491,0.068-0.649,0.205c-0.161,0.136-0.339,0.234-0.533,0.292
		c-0.194,0.057-0.321,0.158-0.38,0.302c-0.202,0.087-0.416,0.27-0.64,0.551c-0.222,0.281-0.367,0.458-0.44,0.528
		c-0.07,0.073-0.139,0.17-0.202,0.292c-0.065,0.123-0.148,0.191-0.248,0.205c-0.1,0.016-0.192,0.065-0.277,0.151
		c-0.088,0.088-0.222,0.13-0.409,0.13c-0.129,0-0.248-0.134-0.355-0.4c-0.106-0.266-0.16-0.429-0.16-0.487
		c0-1.053,0.701-1.961,2.1-2.726c0.186-0.1,0.334-0.201,0.44-0.303c0.11-0.102,0.222-0.18,0.339-0.238l0.085-0.152
		c0.114-0.171,0.548-0.417,1.297-0.734h0.302l1.45-0.368c0.621-0.146,0.93,0.556,0.93,2.103l-0.044,0.39l0.088,0.174
		c0.243-0.23,0.491-0.438,0.745-0.618c0.253-0.18,0.438-0.344,0.552-0.487C289.357,244.824,289.582,244.682,289.915,244.536"/>
	<path d="M316.585,244.25l-0.26,0.129c-0.059,0.03-0.229,0.157-0.512,0.38c-0.279,0.225-0.557,0.405-0.824,0.542
		c-0.268,0.138-0.543,0.495-0.825,1.073c-0.28,0.577-0.421,0.908-0.421,0.995s0.044,0.13,0.129,0.13l0.739-0.325
		c0.273-0.13,0.531-0.295,0.77-0.498c0.238-0.202,0.584-0.447,1.031-0.736l0.173-0.174c0.029-0.057,0.163-0.162,0.401-0.313
		c0.239-0.151,0.417-0.3,0.533-0.443l0.217-0.088c0.246-0.39,0.494-0.627,0.75-0.715c0.25-0.086,0.379-0.174,0.379-0.26
		c0-0.174-0.139-0.26-0.413-0.26c-0.117,0-0.29,0.072-0.521,0.217h-0.498c-0.059,0-0.22,0.086-0.478,0.26L316.585,244.25z
		 M311.972,245.556l0.457-0.368c0.349-0.027,0.535-0.208,0.564-0.539c0.029-0.332,0.268-0.619,0.721-0.864l0.258-0.368
		c0.217-0.216,0.813-0.496,1.784-0.841c0.245-0.144,0.413-0.274,0.501-0.391c0.026-0.027,0.056-0.042,0.085-0.042l0.348,0.086
		c0.19,0,0.432-0.05,0.729-0.15c0.297-0.102,0.584-0.151,0.861-0.151l0.912-0.043c0.057,0,0.176,0.043,0.357,0.13
		c0.183,0.087,0.402,0.129,0.665,0.129c0.316,0,0.61,0.146,0.881,0.434c0.268,0.289,0.401,0.556,0.401,0.8
		c0,0.447-0.233,0.903-0.693,1.364c-0.463,0.461-0.832,0.722-1.105,0.779c-0.245,0.245-0.433,0.399-0.564,0.465
		c-0.129,0.065-0.263,0.167-0.398,0.304c-0.139,0.137-0.248,0.205-0.336,0.205c-0.059,0-0.103-0.017-0.132-0.054
		c-0.029-0.035-0.07-0.055-0.129-0.055c-0.233,0-0.484,0.282-0.759,0.846l-0.39-0.044c-0.246,0.158-0.404,0.331-0.475,0.519
		c-0.075,0.188-0.227,0.282-0.457,0.282c-0.533,0.533-0.896,0.801-1.083,0.801c-0.029,0-0.132-0.028-0.305-0.087
		c-0.114,0.145-0.173,0.296-0.173,0.454c0,0.173-0.114,0.274-0.346,0.302l-0.279,0.261l-0.217-0.042l-0.436,0.453
		c-0.217,0-0.44,0.072-0.672,0.218c-0.029,0.173-0.072,0.394-0.129,0.66c-0.059,0.266-0.087,0.414-0.087,0.442
		c0,0.419,0.384,0.628,1.15,0.628l1.044-0.149c0.275,0,0.533-0.072,0.771-0.216c0.238-0.143,0.496-0.217,0.771-0.217
		c0.088,0,0.217-0.026,0.392-0.085l0.22,0.085c0.1-0.214,0.287-0.408,0.564-0.581c0.274-0.171,0.491-0.258,0.649-0.258l0.219-0.129
		c0.059-0.171,0.144-0.287,0.261-0.345l0.175-0.15c0.114-0.116,0.225-0.173,0.326-0.173h0.305l0.087-0.043
		c0.173-0.372,0.417-0.59,0.728-0.656c0.312-0.065,0.504-0.169,0.587-0.312c0.078-0.144,0.219-0.229,0.424-0.26
		c0.201-0.027,0.372-0.126,0.511-0.29c0.139-0.165,0.307-0.32,0.511-0.462c0.202-0.144,0.344-0.252,0.424-0.322
		c0.078-0.073,0.148-0.109,0.207-0.109c0.085,0,0.129,0.065,0.129,0.193c0,0.131,0.029,0.194,0.087,0.194
		c0.059,0,0.088-0.028,0.088-0.086c0-0.057-0.017-0.128-0.044-0.215v-0.151c0-0.214,0.117-0.358,0.349-0.432l0.978-0.624
		c0.029-0.301,0.112-0.476,0.249-0.525c0.139-0.051,0.243-0.108,0.316-0.174c0.072-0.064,0.152-0.097,0.238-0.097
		c0.189,0,0.282,0.108,0.282,0.323l-0.107,0.558l0.107,0.581c0,0.087-0.068,0.205-0.207,0.355c-0.137,0.149-0.243,0.381-0.316,0.688
		c-0.07,0.308-0.165,0.476-0.282,0.505h-0.132c-0.26,0.272-0.467,0.433-0.62,0.482c-0.153,0.051-0.272,0.141-0.357,0.269
		l-0.742,0.84c-0.146,0.142-0.268,0.271-0.37,0.387c-0.103,0.114-0.183,0.171-0.241,0.171l-0.173-0.171
		c0-0.029-0.029-0.044-0.087-0.044c-0.145,0-0.236,0.087-0.273,0.258c-0.036,0.171-0.111,0.322-0.229,0.451
		c-0.436,0.202-0.718,0.389-0.85,0.56l-0.129,0.043h-0.394c-0.188,0-0.319,0.14-0.392,0.42c-0.073,0.279-0.28,0.44-0.621,0.484
		c-0.343,0.043-0.584,0.127-0.729,0.258c-0.029,0.026-0.096,0.057-0.197,0.085c-0.1,0.029-0.305,0.144-0.608,0.345l-1.83,0.646
		c-0.146,0.07-0.241,0.107-0.282,0.107l-0.611,0.085c-0.087,0-0.178-0.058-0.263-0.172c-0.088-0.115-0.146-0.171-0.173-0.171
		l-0.392,0.127c-0.292,0.087-0.567,0.131-0.83,0.131c-0.144,0-0.304-0.052-0.479-0.151c-0.175-0.102-0.312-0.174-0.411-0.217
		c-0.423,0-0.723-0.324-0.896-0.973l-0.26,0.044c-0.059,0-0.256-0.512-0.589-1.535c-0.086-0.115-0.225-0.196-0.412-0.248
		c-0.187-0.05-0.282-0.19-0.282-0.421c0-0.647,0.142-1.084,0.424-1.307c0.28-0.224,0.436-0.393,0.467-0.508l0.305-1.123
		c0.056-0.044,0.129-0.188,0.217-0.433l0.501-0.907C311.638,246.211,311.767,245.959,311.972,245.556"/>
	<path d="M326.882,243.987l0.302-0.538c0.087-0.13,0.199-0.263,0.335-0.398c0.14-0.138,0.288-0.488,0.446-1.056
		c0.157-0.568,0.335-0.959,0.532-1.175c0.195-0.216,0.479-0.324,0.856-0.324c0.217,0,0.502,0.104,0.857,0.313
		c0.354,0.211,0.703,0.843,1.041,1.898c0.341,1.055,0.511,1.799,0.511,2.232c0,0.175,0.052,0.396,0.151,0.663
		c0.103,0.267,0.165,0.474,0.197,0.617c-0.117,0.246-0.176,0.384-0.176,0.412l0.044,0.89l-0.261,0.715v0.52
		c-0.172,0.291-0.26,0.473-0.26,0.544c0,0.086,0.029,0.173,0.088,0.26c0.681-0.289,1.095-0.523,1.24-0.705
		c0.146-0.181,0.287-0.293,0.427-0.337c0.139-0.043,0.367-0.23,0.686-0.563l0.416-0.218c0.146-0.172,0.269-0.328,0.37-0.466
		c0.103-0.137,0.224-0.234,0.36-0.292c0.139-0.059,0.302-0.16,0.494-0.305c0.188-0.144,0.465-0.311,0.83-0.498l0.216-0.261
		c0.217-0.245,0.475-0.439,0.774-0.585c0.299-0.144,0.462-0.217,0.491-0.217c0.103,0,0.207,0.134,0.316,0.401
		s0.166,0.53,0.166,0.791c0,0.245-0.142,0.488-0.427,0.726c-0.282,0.239-0.474,0.417-0.574,0.533
		c-0.102,0.115-0.333,0.216-0.695,0.302c-0.029,0.016-0.268,0.312-0.718,0.889l-0.436,0.262l-0.217,0.282
		c-0.029,0.059-0.227,0.115-0.587,0.173c-0.015,0-0.049,0.072-0.097,0.216c-0.052,0.146-0.21,0.246-0.47,0.305
		c-0.521,0.478-0.789,0.745-0.804,0.803l-0.457,0.087c-0.088,0.273-0.158,0.438-0.217,0.499c-0.348,0.086-0.545,0.231-0.587,0.432
		c-0.043,0.03-0.116,0.059-0.219,0.088l-0.085,0.064c-0.336,0.26-0.662,0.419-0.979,0.478l-0.501,0.131l-0.173,0.26
		c0,0.072-0.18,0.167-0.533,0.281c-0.355,0.117-0.62,0.261-0.796,0.434l-0.367,0.282c-0.45,0.173-0.732,0.333-0.85,0.477h-0.304
		c-0.202,0-0.521,0.149-0.956,0.445c-0.436,0.297-0.784,0.443-1.044,0.443c-0.84,0-1.417-0.105-1.729-0.315
		c-0.312-0.211-0.569-0.473-0.771-0.786c-0.204-0.313-0.387-0.564-0.555-0.753c-0.168-0.19-0.25-0.342-0.25-0.459
		c0-0.103,0.07-0.203,0.206-0.306c0.139-0.102,0.287-0.309,0.445-0.621c0.161-0.312,0.567-0.513,1.22-0.601
		c0.026,0,0.131-0.041,0.313-0.129c0.181-0.087,0.329-0.129,0.448-0.129c0.144,0,0.326,0.129,0.542,0.39
		c0,0.029,0.029,0.044,0.088,0.044l0.346-0.044c0.161,0.115,0.271,0.173,0.328,0.173c0.346,0,0.716-0.172,1.107-0.52l0.088-0.043
		h0.173c0.044,0,0.117-0.123,0.219-0.366l0.367-0.757l0.762-0.974v-0.216c0-0.044,0.044-0.173,0.129-0.389v-0.324
		c0-0.131,0.088-0.214,0.264-0.249c0.173-0.037,0.263-0.126,0.263-0.271l-0.044-0.172c-0.119-0.159-0.176-0.281-0.176-0.368
		l0.22-0.433l-0.044-0.453l0.085-0.174c-0.059-0.201-0.085-0.316-0.085-0.346l0.085-0.541c0-0.014-0.039-0.15-0.119-0.409
		c-0.08-0.26-0.142-0.391-0.185-0.391c-0.088,0-0.363,0.223-0.828,0.665c-0.465,0.444-0.739,0.759-0.827,0.946
		c-0.088,0.186-0.272,0.354-0.555,0.503c-0.282,0.151-0.475,0.318-0.577,0.504c-0.102,0.188-0.224,0.295-0.367,0.323l-1.46,1.159
		l-1.589,1.159c-0.114,0.129-0.188,0.194-0.217,0.194c-0.535,0-0.806-0.295-0.806-0.884c0-0.188,0.107-0.525,0.326-1.013
		c0.103-0.06,0.178-0.102,0.227-0.13c0.051-0.028,0.075-0.05,0.075-0.065c0-0.013-0.012-0.021-0.041-0.021l0.129,0.086h0.044
		c0.535-0.36,0.883-0.568,1.041-0.625c0.158-0.059,0.305-0.217,0.434-0.476l0.912-0.646c0.231-0.172,0.584-0.488,1.063-0.948
		C326.447,244.541,326.75,244.203,326.882,243.987"/>
	<path d="M337.09,245.554l0.305,0.13c0.029-0.244,0.168-0.454,0.413-0.628h0.176c0.146,0,0.333-0.195,0.566-0.585l0.373-0.218
		c0.056,0.031,0.144,0.044,0.26,0.044c0.088,0,0.171-0.057,0.251-0.173c0.078-0.114,0.277-0.339,0.599-0.671h0.088
		c0.087,0,0.191-0.065,0.316-0.196c0.124-0.13,0.287-0.194,0.491-0.194l0.742-0.195c0.231-0.058,0.36-0.086,0.39-0.086
		c0.131-0.044,0.447,0.222,0.956,0.796c0.506,0.574,0.759,1.131,0.759,1.668c0,0.306-0.16,0.487-0.479,0.546l-0.106,0.087v0.437
		l-0.367,0.808c-0.103,0.218-0.225,0.355-0.37,0.415c-0.132,0.232-0.224,0.392-0.282,0.479l-0.305,0.043l-0.131,0.131v0.545
		c-0.129,0.175-0.316,0.557-0.564,1.146c-0.244,0.589-0.368,0.963-0.368,1.122c0,0.277,0.059,0.415,0.176,0.415
		c0.085,0,0.173-0.035,0.258-0.109c0.088-0.072,0.207-0.156,0.357-0.252c0.153-0.095,0.266-0.193,0.339-0.295
		c0.07-0.102,0.224-0.192,0.457-0.272c0.231-0.08,0.448-0.229,0.649-0.448c0.205-0.219,0.351-0.363,0.436-0.437
		c0.088-0.072,0.181-0.171,0.282-0.295c0.103-0.123,0.168-0.186,0.197-0.186c0.088,0,0.225-0.029,0.414-0.088
		c0.026-0.161,0.059-0.277,0.088-0.351l0.521-0.262l1.263-1.137l0.173-0.218c0.231-0.057,0.377-0.101,0.436-0.132
		c0.114-0.391,0.312-0.675,0.587-0.851c0-0.059,0.073-0.103,0.219-0.131c0.114-0.233,0.263-0.419,0.445-0.558
		c0.18-0.14,0.328-0.311,0.445-0.514l0.499-0.415c0.146-0.06,0.248-0.145,0.307-0.262c0.752-0.671,1.219-1.053,1.401-1.148
		c0.181-0.094,0.475-0.142,0.881-0.142s0.735,0.156,0.991,0.469c0.253,0.312,0.527,0.548,0.824,0.707
		c0.297,0.16,0.445,0.465,0.445,0.914c0,0.421-0.326,1.227-0.976,2.415c-0.424,1.249-0.64,2.014-0.652,2.297
		c-0.015,0.284-0.08,0.446-0.197,0.49c-0.114,0.044-0.173,0.095-0.173,0.153v0.085c0,0.349,0.059,0.522,0.173,0.522
		c0.088,0,0.207-0.071,0.358-0.217c0.153-0.144,0.46-0.303,0.922-0.477l0.192,0.044c0.416-0.635,0.698-0.979,0.84-1.03
		c0.144-0.05,0.287-0.179,0.431-0.39c0.144-0.21,0.321-0.32,0.527-0.336c0.21-0.015,0.344-0.049,0.399-0.108
		c0.015-0.347,0.3-0.737,0.852-1.171c0.553-0.433,0.874-0.648,0.959-0.648c0.144,0,0.258,0.107,0.346,0.325
		c0.085,0.215,0.175,0.365,0.268,0.443c0.093,0.081,0.142,0.148,0.142,0.206v0.39c0,0.189-0.096,0.312-0.28,0.368
		c-0.144,0.319-0.275,0.506-0.39,0.563l-0.389-0.042c-0.071,0.086-0.134,0.167-0.183,0.237c-0.052,0.072-0.083,0.103-0.098,0.087
		c-0.117,0.029-0.321,0.221-0.615,0.574c-0.295,0.354-0.558,0.647-0.789,0.878l-0.085,0.129c-0.114,0.088-0.224,0.146-0.323,0.174
		l-0.39,0.325c-0.146-0.086-0.231-0.13-0.261-0.13c-0.026,0-0.09,0.059-0.183,0.173c-0.092,0.117-0.279,0.266-0.562,0.445
		c-0.282,0.182-0.494,0.387-0.638,0.617l-0.346,0.348l-0.453,0.064c-0.043,0-0.114,0.065-0.216,0.194l-0.388,0.499
		c-0.189,0.246-0.483,0.367-0.888,0.367c-0.085,0-0.197-0.075-0.333-0.229c-0.137-0.15-0.266-0.282-0.39-0.389
		c-0.122-0.11-0.396-0.438-0.822-0.981c-0.427-0.545-0.638-0.832-0.638-0.861l0.129-0.761l-0.042-0.523
		c0-0.101,0.066-0.258,0.205-0.467c0.139-0.211,0.207-0.323,0.207-0.339l-0.044-0.849c0.029-0.029,0.059-0.073,0.087-0.131
		l0.305-0.501c-0.029-0.146-0.044-0.306-0.044-0.48l0.085-0.718c-0.26,0.116-0.489,0.354-0.684,0.712
		c-0.197,0.357-0.455,0.536-0.773,0.536c-0.275,0.496-0.484,0.736-0.631,0.721c-0.059,0.06-0.102,0.117-0.129,0.175l-0.304,0.176
		l-0.37-0.044l-0.132,0.546c-0.321,0.176-0.527,0.333-0.62,0.471c-0.095,0.14-0.243,0.282-0.445,0.427l-0.37,0.35h-0.351
		c-0.056,0.395-0.282,0.723-0.671,0.985l-0.176,0.218l-0.392-0.043c-0.146,0.468-0.326,0.75-0.545,0.852
		c-0.246,0-0.584,0.228-1.01,0.68c-0.429,0.452-0.73,0.679-0.903,0.679c-1.263,0-2.285-0.795-3.066-2.383
		c-0.029-0.056-0.097-0.165-0.207-0.326c-0.109-0.16-0.163-0.406-0.163-0.742c0-0.568,0.076-0.953,0.229-1.157
		c0.15-0.203,0.346-0.584,0.586-1.146c0.238-0.559,0.416-0.804,0.531-0.731c0.028-0.059,0.043-0.144,0.043-0.262
		c0.231-0.276,0.349-0.488,0.349-0.633c0-0.059-0.029-0.089-0.088-0.089c-0.029,0-0.114,0.044-0.261,0.131l-0.307,0.13
		c-0.131,0.03-0.226,0.088-0.284,0.174c-0.059,0.087-0.161,0.171-0.307,0.249c-0.146,0.081-0.263,0.147-0.351,0.206h-0.065
		c-0.09-0.087-0.148-0.13-0.176-0.13c-0.09,0.231-0.163,0.376-0.219,0.434l-0.263,0.043c-0.324,0.333-0.528,0.499-0.616,0.499
		c-0.058,0-0.189-0.05-0.394-0.152c-0.205-0.102-0.307-0.202-0.307-0.303l0.153-0.846v-0.391c0-0.028,0.059-0.086,0.173-0.173
		c0.029,0,0.146-0.154,0.351-0.466C336.575,245.71,336.813,245.554,337.09,245.554"/>
	<path d="M361.345,243.812l0.326-0.087l0.129-0.279c0.708-0.42,1.212-0.814,1.516-1.189c0.029-0.057,0.096-0.115,0.195-0.172
		c0.102-0.058,0.209-0.158,0.326-0.303c0.535-0.533,1.17-0.8,1.907-0.8c0.869,0,1.331,0.53,1.39,1.59l0.129,0.326
		c0.117,0.203,0.28,0.617,0.489,1.241c0.212,0.624,0.316,1.008,0.316,1.154c0,0.392-0.124,0.783-0.37,1.174
		c-0.202,0.103-0.688,0.647-1.452,1.634l-0.217,0.153c-0.119,0.262-0.271,0.523-0.458,0.782c-0.289,0.103-0.436,0.212-0.436,0.328
		v0.392c0,0.029-0.031,0.088-0.095,0.175c-0.068,0.088-0.158,0.253-0.272,0.5l-0.173,0.261c-0.059,0.059-0.116,0.18-0.175,0.36
		s-0.142,0.344-0.248,0.488c-0.11,0.146-0.163,0.265-0.163,0.35c0,0.218,0.282,0.326,0.847,0.326c0.026,0,0.136-0.044,0.323-0.13
		l0.305,0.086c0.029,0,0.1-0.046,0.217-0.141c0.114-0.094,0.292-0.171,0.53-0.229c0.238-0.058,0.447-0.146,0.63-0.263
		c0.181-0.115,0.396-0.218,0.649-0.304c0.254-0.088,0.494-0.229,0.726-0.426c0.231-0.195,0.46-0.338,0.684-0.426
		c0.225-0.086,0.434-0.222,0.628-0.403c0.195-0.182,0.416-0.353,0.662-0.513s0.635-0.509,1.171-1.047
		c0.345-0.275,0.584-0.429,0.715-0.457c0.027,0,0.153-0.192,0.38-0.578c0.224-0.386,0.479-0.578,0.771-0.578
		c0.302,0,0.452,0.145,0.452,0.434c0,0.16-0.07,0.313-0.216,0.456v0.132l0.043,0.347c0.029,0.044,0.044,0.109,0.044,0.195
		c0,0.059-0.053,0.146-0.163,0.262c-0.106,0.116-0.185,0.265-0.229,0.445c-0.041,0.182-0.18,0.3-0.411,0.358
		c-0.088,0.319-0.199,0.5-0.336,0.543c-0.139,0.044-0.328,0.188-0.574,0.435c-0.246,0.247-0.594,0.536-1.042,0.868
		c-0.447,0.335-0.754,0.591-0.922,0.771c-0.165,0.184-0.277,0.274-0.336,0.274c-0.029,0-0.085-0.029-0.173-0.088
		c-0.087-0.059-0.146-0.088-0.173-0.088c-0.087,0-0.146,0.102-0.173,0.305l-0.087,0.218c-0.19,0.115-0.297,0.174-0.326,0.174
		l-0.129-0.044h-0.088c-0.175,0-0.261,0.065-0.261,0.197l0.132,0.214v0.044c0,0.204-0.117,0.306-0.348,0.306
		c-0.161,0-0.623,0.269-1.39,0.804l-0.628,0.129l-0.521,0.282c-0.173-0.1-0.283-0.149-0.326-0.149l-0.346,0.108l-0.631,0.041
		c-0.015,0-0.277-0.142-0.791-0.433c-0.513-0.29-0.819-0.58-0.922-0.871c-0.103-0.29-0.231-0.582-0.39-0.881
		c-0.158-0.296-0.238-0.503-0.238-0.621c0-0.694,0.056-1.191,0.173-1.488c0.114-0.297,0.188-0.52,0.217-0.664
		c0.029-0.146,0.111-0.3,0.248-0.467c0.139-0.167,0.251-0.438,0.338-0.816c0.419-0.841,0.711-1.355,0.869-1.544
		c0.158-0.188,0.282-0.42,0.37-0.696l0.279-0.391c0.029-0.029,0.073-0.142,0.132-0.338c0.056-0.194,0.129-0.308,0.217-0.338
		c0.114-0.203,0.173-0.332,0.173-0.392c0-0.42-0.188-0.63-0.565-0.63c-0.07,0-0.15,0.076-0.235,0.227
		c-0.088,0.151-0.287,0.299-0.599,0.441s-0.504,0.252-0.574,0.323c-0.073,0.071-0.229,0.161-0.468,0.27
		c-0.235,0.108-0.442,0.276-0.615,0.506l-0.37,0.174c-0.114,0.272-0.214,0.424-0.302,0.451c-0.088,0.03-0.355,0.102-0.803,0.216
		c-0.029,0.016-0.101,0.101-0.217,0.259c-0.114,0.159-0.282,0.237-0.496,0.237c-0.173,0.173-0.346,0.374-0.521,0.604
		c-0.059,0-0.209,0.057-0.455,0.172l-0.433,0.108c-0.114,0.087-0.243,0.223-0.38,0.41c-0.137,0.187-0.392,0.278-0.767,0.278
		c-0.217,0-0.326-0.172-0.326-0.517c0-0.706,0.251-1.268,0.747-1.687c0.499-0.416,0.864-0.64,1.095-0.668
		c0.231-0.029,0.375-0.115,0.434-0.26s0.197-0.263,0.424-0.356c0.221-0.094,0.481-0.303,0.778-0.627s0.618-0.543,0.966-0.659
		L361.345,243.812z"/>
	<path d="M380.699,244.25l-0.261,0.129c-0.058,0.03-0.229,0.157-0.511,0.38c-0.279,0.225-0.557,0.405-0.825,0.542
		c-0.268,0.138-0.542,0.495-0.824,1.073c-0.28,0.577-0.421,0.908-0.421,0.995s0.043,0.13,0.129,0.13l0.739-0.325
		c0.275-0.13,0.53-0.295,0.77-0.498c0.238-0.202,0.584-0.447,1.031-0.736l0.173-0.174c0.029-0.057,0.163-0.162,0.401-0.313
		s0.416-0.3,0.533-0.443l0.217-0.088c0.245-0.39,0.494-0.627,0.749-0.715c0.253-0.086,0.38-0.174,0.38-0.26
		c0-0.174-0.139-0.26-0.414-0.26c-0.114,0-0.289,0.072-0.521,0.217h-0.499c-0.059,0-0.219,0.086-0.477,0.26L380.699,244.25z
		 M376.084,245.556l0.458-0.368c0.348-0.027,0.535-0.208,0.564-0.539c0.029-0.332,0.268-0.619,0.721-0.864l0.258-0.368
		c0.217-0.216,0.813-0.496,1.783-0.841c0.246-0.144,0.414-0.274,0.502-0.391c0.026-0.027,0.056-0.042,0.085-0.042l0.348,0.086
		c0.19,0,0.431-0.05,0.728-0.15c0.297-0.102,0.584-0.151,0.861-0.151l0.913-0.043c0.056,0,0.175,0.043,0.357,0.13
		s0.401,0.129,0.665,0.129c0.315,0,0.61,0.146,0.881,0.434c0.268,0.289,0.401,0.556,0.401,0.8c0,0.447-0.233,0.903-0.693,1.364
		c-0.463,0.461-0.833,0.722-1.105,0.779c-0.245,0.245-0.433,0.399-0.562,0.465c-0.132,0.065-0.266,0.167-0.402,0.304
		c-0.139,0.137-0.248,0.205-0.335,0.205c-0.059,0-0.103-0.017-0.132-0.054c-0.029-0.035-0.07-0.055-0.129-0.055
		c-0.233,0-0.484,0.282-0.76,0.846l-0.389-0.044c-0.246,0.158-0.404,0.331-0.475,0.519c-0.075,0.188-0.227,0.282-0.458,0.282
		c-0.532,0.533-0.896,0.801-1.083,0.801c-0.028,0-0.129-0.028-0.304-0.087c-0.114,0.145-0.173,0.296-0.173,0.454
		c0,0.173-0.114,0.274-0.346,0.302l-0.279,0.261l-0.217-0.042l-0.436,0.453c-0.217,0-0.44,0.072-0.672,0.218
		c-0.029,0.173-0.073,0.394-0.129,0.66c-0.059,0.266-0.088,0.414-0.088,0.442c0,0.419,0.385,0.628,1.151,0.628l1.044-0.149
		c0.277,0,0.533-0.072,0.771-0.216c0.238-0.143,0.496-0.217,0.771-0.217c0.088,0,0.217-0.026,0.392-0.085l0.219,0.085
		c0.1-0.214,0.287-0.408,0.564-0.581c0.275-0.171,0.492-0.258,0.65-0.258l0.219-0.129c0.059-0.171,0.144-0.287,0.261-0.345
		l0.175-0.15c0.114-0.116,0.224-0.173,0.326-0.173h0.304l0.088-0.043c0.173-0.372,0.416-0.59,0.728-0.656
		c0.312-0.065,0.504-0.169,0.587-0.312c0.08-0.144,0.219-0.229,0.423-0.26c0.202-0.027,0.373-0.126,0.512-0.29
		c0.139-0.165,0.307-0.32,0.511-0.462c0.202-0.144,0.343-0.252,0.424-0.322c0.08-0.073,0.148-0.109,0.206-0.109
		c0.086,0,0.132,0.065,0.132,0.193c0,0.131,0.026,0.194,0.085,0.194s0.088-0.028,0.088-0.086c0-0.057-0.015-0.128-0.044-0.215
		v-0.151c0-0.214,0.117-0.358,0.348-0.432l0.979-0.624c0.029-0.301,0.112-0.476,0.248-0.525c0.139-0.051,0.243-0.108,0.316-0.174
		c0.073-0.064,0.153-0.097,0.238-0.097c0.19,0,0.283,0.108,0.283,0.323l-0.107,0.558l0.107,0.581c0,0.087-0.068,0.205-0.205,0.355
		c-0.139,0.149-0.245,0.381-0.318,0.688c-0.071,0.308-0.166,0.476-0.282,0.505h-0.132c-0.261,0.272-0.467,0.433-0.62,0.482
		c-0.151,0.051-0.272,0.141-0.358,0.269l-0.742,0.84c-0.146,0.142-0.268,0.271-0.369,0.387c-0.103,0.114-0.183,0.171-0.239,0.171
		l-0.175-0.171c0-0.029-0.029-0.044-0.085-0.044c-0.146,0-0.238,0.087-0.275,0.258c-0.036,0.171-0.111,0.322-0.229,0.451
		c-0.436,0.202-0.718,0.389-0.85,0.56l-0.129,0.043h-0.395c-0.187,0-0.318,0.14-0.392,0.42c-0.072,0.279-0.279,0.44-0.62,0.484
		c-0.344,0.043-0.584,0.127-0.73,0.258c-0.029,0.026-0.095,0.057-0.197,0.085c-0.1,0.029-0.304,0.144-0.608,0.345l-1.829,0.646
		c-0.146,0.07-0.241,0.107-0.283,0.107l-0.61,0.085c-0.088,0-0.178-0.058-0.263-0.172c-0.088-0.115-0.146-0.171-0.173-0.171
		l-0.392,0.127c-0.292,0.087-0.567,0.131-0.83,0.131c-0.144,0-0.304-0.052-0.479-0.151c-0.175-0.102-0.312-0.174-0.411-0.217
		c-0.424,0-0.721-0.324-0.896-0.973l-0.261,0.044c-0.058,0-0.255-0.512-0.589-1.535c-0.085-0.115-0.224-0.196-0.411-0.248
		c-0.188-0.05-0.282-0.19-0.282-0.421c0-0.647,0.142-1.084,0.424-1.307c0.279-0.224,0.438-0.393,0.467-0.508l0.305-1.123
		c0.056-0.044,0.129-0.188,0.216-0.433l0.502-0.907C375.751,246.211,375.883,245.959,376.084,245.556"/>
	<path d="M393.541,253.075l0.416,0.304c0.204,0.117,0.307,0.37,0.307,0.76c0,0.087-0.036,0.187-0.109,0.304
		s-0.139,0.238-0.197,0.369c-0.511,0.997-1.107,1.495-1.791,1.495c-0.219,0-0.564-0.194-1.032-0.584
		c-0.465-0.39-0.759-0.745-0.883-1.063c-0.122-0.317-0.224-0.521-0.305-0.607c-0.08-0.086-0.121-0.158-0.121-0.217
		c0-0.158,0.063-0.332,0.188-0.521c0.121-0.188,0.214-0.423,0.272-0.704c0.059-0.282,0.214-0.492,0.47-0.629
		c0.255-0.138,0.44-0.273,0.557-0.403c0.117-0.129,0.268-0.194,0.46-0.194c0.117,0,0.231,0.051,0.349,0.15
		c0.116,0.103,0.282,0.207,0.491,0.316c0.212,0.108,0.426,0.344,0.645,0.706L393.541,253.075z"/>
	<path d="M404.443,253.075l0.416,0.304c0.204,0.117,0.307,0.37,0.307,0.76c0,0.087-0.037,0.187-0.109,0.304
		c-0.073,0.117-0.139,0.238-0.197,0.369c-0.512,0.997-1.107,1.495-1.791,1.495c-0.22,0-0.564-0.194-1.029-0.584
		c-0.468-0.39-0.762-0.745-0.886-1.063c-0.122-0.317-0.225-0.521-0.305-0.607c-0.08-0.086-0.121-0.158-0.121-0.217
		c0-0.158,0.063-0.332,0.185-0.521c0.124-0.188,0.217-0.423,0.274-0.704c0.059-0.282,0.215-0.492,0.47-0.629
		c0.256-0.138,0.44-0.273,0.558-0.403c0.117-0.129,0.271-0.194,0.46-0.194c0.117,0,0.231,0.051,0.348,0.15
		c0.117,0.103,0.28,0.207,0.494,0.316c0.21,0.108,0.426,0.344,0.646,0.706L404.443,253.075z"/>
	<path d="M415.347,253.075l0.416,0.304c0.202,0.117,0.304,0.37,0.304,0.76c0,0.087-0.036,0.187-0.109,0.304
		c-0.072,0.117-0.139,0.238-0.194,0.369c-0.514,0.997-1.109,1.495-1.794,1.495c-0.219,0-0.562-0.194-1.029-0.584
		c-0.465-0.39-0.762-0.745-0.883-1.063c-0.124-0.317-0.227-0.521-0.307-0.607c-0.08-0.086-0.122-0.158-0.122-0.217
		c0-0.158,0.063-0.332,0.188-0.521c0.122-0.188,0.214-0.423,0.272-0.704c0.059-0.282,0.215-0.492,0.47-0.629
		c0.256-0.138,0.44-0.273,0.558-0.403c0.116-0.129,0.27-0.194,0.46-0.194c0.116,0,0.23,0.051,0.351,0.15
		c0.116,0.103,0.279,0.207,0.491,0.316c0.209,0.108,0.426,0.344,0.645,0.706L415.347,253.075z"/>
</g>
</svg>
