<?xml version="1.0" encoding="utf-8"?>
<!-- Generator: Adobe Illustrator 16.0.0, SVG Export Plug-In . SVG Version: 6.00 Build 0)  -->
<!DOCTYPE svg PUBLIC "-//W3C//DTD SVG 1.1//EN" "http://www.w3.org/Graphics/SVG/1.1/DTD/svg11.dtd">
<svg version="1.1" id="Calque_1" xmlns="http://www.w3.org/2000/svg" xmlns:xlink="http://www.w3.org/1999/xlink" x="0px" y="0px"
	 width="500px" height="500px" viewBox="0 0 500 500" enable-background="new 0 0 500 500" xml:space="preserve">
<g>
	<rect x="25.36" y="110.438" fill="#E2001A" width="450" height="7.642"/>
	<polygon fill="#E2001A" points="206.633,206.807 206.633,154.165 185.407,154.165 185.407,221.241 189.795,221.241 
		206.633,221.241 237.203,221.241 237.203,206.807 	"/>
	<path fill="#E2001A" d="M370.289,221.241h21.227l-23.561-67.076h-0.213h-21.014h-0.213l-23.561,67.076h21.225l3.23-9.197h19.648
		L370.289,221.241z M349.633,199.271l7.602-23.031l7.602,23.031H349.633z"/>
	<path fill="#E2001A" d="M76.714,154.165H42.202v67.076h34.513c15.883,0,28.881-12.998,28.881-28.881v-9.313
		C105.596,167.163,92.598,154.165,76.714,154.165z M84.091,190.24c0,8.649-4.322,15.728-9.608,15.728H63.007v-36.529h11.476
		c5.287,0,9.608,7.077,9.608,15.728V190.24z"/>
	<path fill="#E2001A" d="M145.15,151.9c-19.575,0-35.448,16.251-35.448,36.297c0,20.045,15.874,36.297,35.448,36.297
		c19.578,0,35.451-16.251,35.451-36.297C180.601,168.151,164.728,151.9,145.15,151.9z M145.15,207.795
		c-7.695,0-13.937-8.775-13.937-19.598s6.242-19.598,13.937-19.598c7.698,0,13.939,8.776,13.939,19.598
		S152.848,207.795,145.15,207.795z"/>
	<polygon fill="#E2001A" points="309.369,154.165 299.816,154.165 293.369,154.165 280.926,195.709 268.482,154.165 
		262.035,154.165 252.482,154.165 242.931,154.165 242.931,221.241 262.035,221.241 262.035,185.172 273.145,221.241 
		273.277,221.241 288.574,221.241 288.707,221.241 299.816,185.172 299.816,221.241 318.922,221.241 318.922,154.165 	"/>
	<path fill="#E2001A" d="M456.402,177.129v-5.598c0-9.549-11.488-17.366-25.539-17.366h-13.877h-16.623h-4.602v67.076h21.225
		v-23.986c2.023,0,4.592,0,7.961,0c10.4,0,12.1,8.066,12.1,8.066v16.451h19.355c0,0,0-10.932,0-20.059
		c0-6.494-6.527-9.512-10.322-10.736C452.303,187.803,456.402,182.794,456.402,177.129z M416.986,169.591h9.891
		c4.697,0,8.545,2.849,8.545,6.338v2.043c0,3.486-3.848,6.335-8.545,6.335h-9.891V169.591z"/>
	<g>
		<path d="M27.158,368.691h8.013c4.813,0,8.428,2.819,8.428,8.563c0,5.021-2.756,8.756-8.428,8.756h-8.013V368.691z M31.244,382.807
			h3.642c2.368,0,4.63-1.354,4.63-5.188c0-3.495-1.3-5.725-5.359-5.725h-2.912V382.807z"/>
		<path d="M54.755,368.28c5.751,0,9.13,4.006,9.13,9.147c0,4.994-3.379,8.994-9.13,8.994c-5.748,0-9.131-4-9.131-8.994
			C45.625,372.286,49.007,368.28,54.755,368.28z M54.755,383.225c3.668,0,5.048-2.912,5.048-5.797c0-3.032-1.38-5.943-5.048-5.943
			c-3.668,0-5.045,2.911-5.045,5.943C49.71,380.313,51.087,383.225,54.755,383.225z"/>
		<path d="M66.668,368.691h4.086v14.115h9.051v3.204H66.668V368.691z"/>
		<path d="M82.094,368.691h5.751l4.345,11.913h0.05l4.112-11.913h5.748v17.319h-3.824v-12.271h-0.053l-4.55,12.271h-3.147
			l-4.554-12.152h-0.053v12.152h-3.824V368.691z"/>
		<path d="M110.76,368.691h4.189l6.945,17.319h-4.242l-1.403-3.854h-6.945l-1.459,3.854h-4.136L110.76,368.691z M110.368,379.317
			h4.813l-2.341-6.354h-0.05L110.368,379.317z"/>
		<path d="M123.502,368.691h10.016c3.33,0,5.437,2.162,5.437,4.782c0,2.036-0.882,3.563-2.939,4.339v0.053
			c2.003,0.484,2.577,2.302,2.707,4.046c0.076,1.095,0.053,3.131,0.779,4.1h-4.083c-0.495-1.095-0.445-2.767-0.65-4.146
			c-0.289-1.818-1.042-2.62-3.098-2.62h-4.083v6.766h-4.086V368.691z M127.588,376.525h4.474c1.821,0,2.809-0.724,2.809-2.475
			c0-1.672-0.988-2.395-2.809-2.395h-4.474V376.525z"/>
		<path d="M152.167,380.578c0.106,2.183,1.25,3.178,3.304,3.178c1.486,0,2.68-0.85,2.915-1.626h3.25
			c-1.038,2.959-3.25,4.219-6.295,4.219c-4.239,0-6.869-2.713-6.869-6.593c0-3.762,2.786-6.62,6.869-6.62
			c4.58,0,6.789,3.589,6.53,7.442H152.167z M158.177,378.396c-0.338-1.744-1.144-2.666-2.938-2.666
			c-2.341,0-3.018,1.698-3.071,2.666H158.177z"/>
		<path d="M166.914,381.938c0.026,1.5,1.38,2.109,2.835,2.109c1.068,0,2.421-0.391,2.421-1.598c0-1.049-1.536-1.414-4.189-1.944
			c-2.132-0.438-4.265-1.141-4.265-3.35c0-3.197,2.965-4.02,5.851-4.02c2.942,0,5.648,0.915,5.934,4h-3.513
			c-0.103-1.334-1.197-1.698-2.524-1.698c-0.833,0-2.056,0.146-2.056,1.16c0,1.241,2.083,1.406,4.189,1.871
			c2.159,0.457,4.269,1.188,4.269,3.516c0,3.297-3.071,4.364-6.139,4.364c-3.125,0-6.166-1.087-6.325-4.411H166.914z"/>
		<path d="M182.704,373.474h2.706v2.302h-2.706v6.209c0,1.168,0.315,1.453,1.562,1.453c0.392,0,0.756-0.021,1.144-0.094v2.693
			c-0.624,0.093-1.429,0.119-2.159,0.119c-2.262,0-4.239-0.484-4.239-2.984v-7.396h-2.239v-2.302h2.239v-3.761h3.691V373.474z"/>
		<path d="M207.028,386.011h-3.512v-1.745h-0.08c-0.935,1.406-2.547,2.083-4.109,2.083c-3.927,0-4.915-2.063-4.915-5.167v-7.708
			h3.691v7.078c0,2.063,0.65,3.084,2.368,3.084c2.003,0,2.862-1.048,2.862-3.589v-6.573h3.694V386.011z"/>
		<path d="M209.834,373.474h3.509v1.745h0.08c0.936-1.406,2.551-2.083,4.109-2.083c3.93,0,4.919,2.056,4.919,5.16v7.715h-3.695
			v-7.085c0-2.056-0.65-3.077-2.368-3.077c-2.003,0-2.862,1.041-2.862,3.589v6.573h-3.691V373.474z"/>
		<path d="M228.301,380.578c0.106,2.183,1.25,3.178,3.303,3.178c1.486,0,2.68-0.85,2.916-1.626h3.25
			c-1.038,2.959-3.25,4.219-6.295,4.219c-4.239,0-6.869-2.713-6.869-6.593c0-3.762,2.786-6.62,6.869-6.62
			c4.58,0,6.789,3.589,6.53,7.442H228.301z M234.311,378.396c-0.338-1.744-1.144-2.666-2.938-2.666
			c-2.341,0-3.018,1.698-3.071,2.666H234.311z"/>
		<path d="M247.524,373.474h3.486v1.698h0.053c0.963-1.287,2.365-2.036,4.109-2.036c1.691,0,3.201,0.577,3.93,2.083
			c0.777-1.095,2.184-2.083,4.061-2.083c2.859,0,4.916,1.233,4.916,4.483v8.392h-3.695v-7.104c0-1.678-0.16-3.058-2.262-3.058
			c-2.084,0-2.475,1.599-2.475,3.177v6.985h-3.695v-7.031c0-1.46,0.107-3.131-2.234-3.131c-0.73,0-2.498,0.438-2.498,2.886v7.276
			h-3.695V373.474z"/>
		<path d="M270.83,377.328c0.213-3.225,3.303-4.192,6.322-4.192c2.68,0,5.91,0.557,5.91,3.562v6.527
			c0,1.135,0.125,2.275,0.463,2.786h-3.748c-0.125-0.385-0.23-0.803-0.258-1.214c-1.168,1.141-2.885,1.552-4.523,1.552
			c-2.555,0-4.578-1.187-4.578-3.761c0-2.832,2.289-3.516,4.578-3.808c2.262-0.312,4.371-0.238,4.371-1.645
			c0-1.479-1.094-1.698-2.395-1.698c-1.406,0-2.314,0.53-2.447,1.891H270.83z M279.367,379.875c-0.631,0.511-1.93,0.53-3.072,0.729
			c-1.146,0.219-2.188,0.577-2.188,1.845c0,1.279,1.066,1.598,2.268,1.598c2.887,0,2.992-2.136,2.992-2.885V379.875z"/>
		<path d="M285.914,373.474h3.51v2.328h0.053c0.676-1.578,2.5-2.666,4.291-2.666c0.26,0,0.57,0.046,0.809,0.119v3.197
			c-0.338-0.073-0.889-0.119-1.326-0.119c-2.705,0-3.641,1.817-3.641,4.026v5.651h-3.695V373.474z"/>
		<path d="M309.145,390.422h-3.689v-5.99h-0.053c-0.861,1.36-2.627,1.917-4.244,1.917c-2.469,0-5.691-1.671-5.691-6.521
			c0-3.449,1.949-6.692,6.029-6.692c1.664,0,3.256,0.557,4.086,1.937h0.053v-1.599h3.51V390.422z M302.357,383.756
			c2.395,0,3.225-1.891,3.225-3.954c0-1.963-0.83-4.072-3.145-4.072c-2.395,0-3.283,1.989-3.283,4.026
			C299.154,381.766,299.938,383.756,302.357,383.756z"/>
		<path d="M324.547,386.011h-3.516v-1.745h-0.074c-0.941,1.406-2.553,2.083-4.111,2.083c-3.928,0-4.916-2.063-4.916-5.167v-7.708
			h3.695v7.078c0,2.063,0.65,3.084,2.367,3.084c2.004,0,2.859-1.048,2.859-3.589v-6.573h3.695V386.011z"/>
		<path d="M330.396,380.578c0.1,2.183,1.248,3.178,3.303,3.178c1.48,0,2.68-0.85,2.912-1.626h3.252
			c-1.043,2.959-3.252,4.219-6.297,4.219c-4.238,0-6.865-2.713-6.865-6.593c0-3.762,2.779-6.62,6.865-6.62
			c4.578,0,6.793,3.589,6.527,7.442H330.396z M336.406,378.396c-0.338-1.744-1.146-2.666-2.945-2.666
			c-2.342,0-3.018,1.698-3.064,2.666H336.406z"/>
	</g>
	<path fill="#E2001A" d="M471.008,369.434h-12.41c-3.84,0.08-5.16,4.127-5.16,4.127l-3.119,7.834h-6.566l3.111-8.159h3.754
		l1.406-4.04h-3.455l2.262-5.698h-5.93l-2.555,5.857h-3.674l-1.492,3.96h3.84l-3.283,8.159h-6.574l4.604-12.119h-5.711
		l-5.074,12.198l-5.074,0.04l-1.24-4.483l8.285-7.676h-6.873l-6.574,5.944l4.393-11.881h-5.666l-7.256,17.977h-4.689l4.518-12.04
		h-12.664c-3.289,0-4.689,3.357-4.689,3.357l-3.674,8.604h-4.691l4.559-11.961h-10.023l1.113-3.024h-9.941l1.021-2.912h-18.422
		v5.009h10.527l-6.945,17.365h6.018l5.93-14.619h3.926l-5.559,14.619h6.018L372,373.998h4.305l-4.861,11.873h8.105
		c0.219-0.119,1.711-1.167,4.061-2.779c0,0,0.543,2.097,2.34,2.779h4.273c0.078-0.119,0.676-0.643,3.574-2.865
		c0,0,0.127,1.983,2.137,2.865h5.113c0.127-0.119,0.902-0.961,3.371-2.825l-1.148,2.825h6.057l3.375-8.318l2.721,8.318h6.189
		l3.07-2.825c0.471,2.341,2.27,2.753,2.779,2.825h6.818l3.158-2.746c0.252,1.817,2.342,2.627,2.686,2.746h6.826l3.064-2.825
		c0.393,2.428,2.992,2.825,2.992,2.825h4.139l2.898-2.825c0.471,2.428,3.291,2.825,3.291,2.825h12.025v-4.438h-8.961
		L471.008,369.434L471.008,369.434z M393.971,381.553h-4.061l3.203-7.595h4.055L393.971,381.553z M460.129,381.553h-4.053
		l3.205-7.595h4.053L460.129,381.553z M437.955,363.497h-5.719l-1.711,4.484h5.719L437.955,363.497z"/>
	<g>
		<polygon fill="#E2001A" points="222.772,259.448 194.989,259.448 112.209,342.231 139.989,342.231 		"/>
		<polygon fill="#E2001A" points="187.785,259.448 160.001,259.448 77.225,342.231 105.002,342.231 		"/>
		<polygon fill="#E2001A" points="257.756,259.448 229.976,259.448 147.2,342.231 174.976,342.231 		"/>
		<polygon fill="#E2001A" points="327.73,259.448 299.957,259.448 217.174,342.231 244.951,342.231 		"/>
		<polygon fill="#E2001A" points="152.798,259.448 125.015,259.448 42.235,342.231 70.015,342.231 		"/>
		<polygon fill="#E2001A" points="90.027,259.448 25.36,324.122 25.36,342.231 35.028,342.231 117.811,259.448 		"/>
		<polygon fill="#E2001A" points="25.36,289.132 25.36,316.912 82.824,259.448 55.041,259.448 		"/>
		<polygon fill="#E2001A" points="292.746,259.448 264.967,259.448 182.187,342.231 209.963,342.231 		"/>
		<polygon fill="#E2001A" points="47.836,259.448 25.36,259.448 25.36,281.922 		"/>
		<polygon fill="#E2001A" points="475.359,321.728 475.359,293.954 427.09,342.231 454.863,342.231 		"/>
		<polygon fill="#E2001A" points="475.359,286.744 475.359,259.448 474.883,259.448 392.105,342.231 419.879,342.231 		"/>
		<polygon fill="#E2001A" points="462.074,342.231 475.359,342.231 475.359,328.945 		"/>
		<polygon fill="#E2001A" points="362.715,259.448 334.941,259.448 252.16,342.231 279.938,342.231 		"/>
		<polygon fill="#E2001A" points="397.697,259.448 369.924,259.448 287.148,342.231 314.922,342.231 		"/>
		<polygon fill="#E2001A" points="467.666,259.448 439.898,259.448 357.121,342.231 384.895,342.231 		"/>
		<polygon fill="#E2001A" points="432.682,259.448 404.908,259.448 322.139,342.231 349.912,342.231 		"/>
	</g>
</g>
</svg>
