<?xml version="1.0" encoding="utf-8"?>
<!-- Generator: Adobe Illustrator 16.0.0, SVG Export Plug-In . SVG Version: 6.00 Build 0)  -->
<!DOCTYPE svg PUBLIC "-//W3C//DTD SVG 1.1//EN" "http://www.w3.org/Graphics/SVG/1.1/DTD/svg11.dtd">
<svg version="1.1" id="Calque_2" xmlns="http://www.w3.org/2000/svg" xmlns:xlink="http://www.w3.org/1999/xlink" x="0px" y="0px"
	 width="500px" height="500px" viewBox="0 0 500 500" enable-background="new 0 0 500 500" xml:space="preserve">
<g>
	<g>
		<g>
			<path fill="#2D5F8D" d="M32.504,376.014c0-6.892-0.238-6.892-7.504-7.935v-1.53h21.879c15.01,0,25.988,3.616,25.988,23.316
				c0,21.994-13.191,23.524-28.592,23.524H32.504V376.014z M41.191,405.523c0,2.715,0,4.597,5.452,4.597
				c14.375,0,17.535-6.059,17.535-20.113c0-12.321-1.658-20.188-16.509-20.188c-4.582,0-6.478,0.487-6.478,3.758V405.523z"/>
			<path fill="#2D5F8D" d="M83.362,390.143c0-14.962,4.738-24.358,21.879-24.358c16.43,0,21.406,9.396,21.406,24.358
				c0,14.758-4.976,24.013-21.406,24.013C88.577,414.155,83.362,405.036,83.362,390.143z M105.241,410.885
				c12.245,0,12.718-11.833,12.718-20.742c0-9.119-0.711-21.088-12.718-21.088c-12.244,0-13.19,11.691-13.19,21.088
				C92.051,398.773,93.235,410.885,105.241,410.885z"/>
			<path fill="#2D5F8D" d="M140.303,375.458c0-6.472-1.105-6.194-7.821-7.379v-1.53h17.932l15.639,38.42h0.159l15.322-38.42h10.666
				v46.841h-7.9v-41.411h-0.159l-16.585,41.411h-5.608l-16.509-40.997h-0.159v40.997h-4.976V375.458z"/>
			<path fill="#2D5F8D" d="M246.293,395.362c0,9.328-0.946,18.793-18.798,18.793c-13.902,0-18.958-5.775-18.958-16.146v-22.272
				c0-5.849-0.238-5.917-7.9-6.824v-1.529l16.588-1.599v28.745c0,7.934,0,16.355,11.295,16.355c12.086,0,12.086-7.725,12.086-14.758
				v-29.578h5.687V395.362z"/>
			<path fill="#2D5F8D" d="M288.935,372.188c-2.131-0.907-7.974-3.134-14.134-3.134c-4.188,0-7.583,2.159-7.583,6.749
				c0,10.718,25.667,9.748,25.667,24.642c0,9.952-8.926,13.71-19.824,13.71c-6.081,0-12.162-1.462-13.822-1.808v-5.64
				c2.448,1.253,8.767,4.177,15.086,4.177c4.976,0,9.873-1.808,9.873-8.144c0-11.278-25.671-10.229-25.671-24.92
				c0-7.656,6.634-12.037,17.771-12.037c5.452,0,10.587,0.901,12.638,1.253V372.188z"/>
			<path fill="#2D5F8D" d="M332.211,375.736c0-5.849-0.238-5.917-7.9-6.824v-1.529l16.589-1.599V404.9c0,5.22,0,5.22,5.293,5.22
				h6.795c4.977,0,9.317-0.278,9.317-6.823h2.216l-0.238,10.093h-32.071V375.736z"/>
			<path fill="#2D5F8D" d="M377.306,390.074c0-4.874-1.264-6.059-6.081-6.194v-1.394l13.981-2.228v33.131h-7.9V390.074z
				 M376.438,370.375c0-2.363,2.211-4.313,4.977-4.313c2.687,0,5.055,1.876,5.055,4.313c0,2.437-2.368,4.387-5.134,4.387
				C378.649,374.762,376.438,372.812,376.438,370.375z"/>
			<path fill="#2D5F8D" d="M401.387,390.074c0-4.874-1.343-6.059-6.319-6.194v-1.394l14.22-2.228v8.909h0.158
				c1.185-2.438,5.373-8.909,13.194-8.909c7.186,0,9.555,4.454,9.555,9.815v23.315h-7.9v-18.027c0-5.497,0-10.371-5.287-10.371
				c-5.215,0-9.72,6.472-9.72,11.414v16.984h-7.9V390.074z"/>
			<path fill="#2D5F8D" d="M474.286,412.279c-1.496,0.481-5.685,1.876-11.137,1.876c-12.083,0-19.348-6.473-19.348-18.096
				c0-10.995,6.001-15.801,16.588-15.801c13.505,0,14.61,8.631,14.61,13.296h-22.511c0,6.959,3.236,16.843,14.372,16.843
				c3.321,0,6.087-0.697,7.425-1.185V412.279z M467.1,390.771c0-1.604-0.158-8.144-7.027-8.144c-5.928,0-7.583,5.497-7.583,8.144
				H467.1z"/>
		</g>
	</g>
	<path fill="#2D5F8D" d="M369.372,213.08c-14.248,19.312-35.75,36.557-62.336,48.164c-14.043,6.132-28.257,10.06-42.08,12.094
		c-2.426-1.813-4.363-4.658-4.363-9.142c0-12.088,0-156.691,0-156.691s0.215-8.458,9.481-14.012
		c12.389-3.199,24.613-4.894,36.22-4.364v-2.417c-26.784-2.947-57.158,1.556-86.711,14.46
		c-69.136,30.185-107.62,94.889-85.951,144.521c21.672,49.629,95.289,65.396,164.422,35.211
		c34.186-14.928,59.598-42.642,75.223-68.454L369.372,213.08z M162.742,231.898c-17.299-39.615,9.955-92.004,62.384-120.726
		c5.05,0.405,10.077,2.287,10.077,8.181c0,11.851,0,149.196,0,149.196s0.396,3.486-3.446,5.85
		C199.793,271.451,173.564,256.688,162.742,231.898z"/>
</g>
</svg>
