<?xml version="1.0" encoding="utf-8"?>
<!-- Generator: Adobe Illustrator 16.0.0, SVG Export Plug-In . SVG Version: 6.00 Build 0)  -->
<!DOCTYPE svg PUBLIC "-//W3C//DTD SVG 1.1//EN" "http://www.w3.org/Graphics/SVG/1.1/DTD/svg11.dtd">
<svg version="1.1" id="Calque_1" xmlns="http://www.w3.org/2000/svg" xmlns:xlink="http://www.w3.org/1999/xlink" x="0px" y="0px"
	 width="500px" height="500px" viewBox="0 0 500 500" enable-background="new 0 0 500 500" xml:space="preserve">
<g>
	<path d="M367.559,203.702l8.777-0.063c-0.279,0.346-0.553,0.681-0.721,0.979c-0.561,0.98-1.364,3.441-2.94,3.385
		c-2.903-0.107-3.967-1.603-4.54-3.133C368.135,204.87,367.913,204.383,367.559,203.702"/>
	<g>
		<path d="M305.688,192.69c1.464-0.992,3.107-1.56,4.678-1.649c0.974-7.62-2.257-14.685-5.546-17.906
			c-0.297-0.072-0.595-0.112-0.894-0.151c0.648,1.033,1.173,2.541,0.98,4.637c-0.377,4.143-2.493,6.06-4.685,6.569l-0.492,2.089
			l-0.533,2.26l-2.311-0.196l-0.313-0.023l-0.556,1.227l1.868,0.93l2.269,1.137l-0.311,0.721L305.688,192.69z"/>
		<path d="M475.364,199.141l-142.345-1.541c-3.687,0-11.021-0.653-17.769-2.504c-1.764-0.485-2.9-1.394-4.478-1.394
			c-1.391,0-2.946,0.627-4.253,1.733l-10.715-0.648c0.562-1.166,0.877-1.9,0.877-1.9l-2.383-1.19
			c-0.843,0.065-1.584,0.187-2.344,0.305l2.943-6.52l2.209,0.184l0.977-4.143c0,0,0.357,0.112,0.864,0.112
			c1.11,0,2.937-0.573,3.274-4.259c0.29-3.201-1.681-4.751-4.303-4.751c-1.764,0-3.824,0.707-5.686,2.075
			c-4.63,3.413-6.823,9.983-6.823,9.983l3.104,0.266l-3.734,9.32c-2.65,1.434-3.817,2.901-3.817,2.901l0.012,0.446H247.28
			l-1.828,3.832h36.308c1.762,4.204,5.871,6.201,5.871,6.201c1.492-1.666,2.867-3.579,4.075-5.462l12.717-0.298l3.046,1.886
			l5.207-1.164l-0.445,1.327c2.966-1.581,14.008-2.488,17.624-2.49l145.487-1.554c0.202-0.005,0.369-0.172,0.369-0.377
			C475.711,199.313,475.57,199.146,475.364,199.141z"/>
		<path d="M355.97,195.109c-0.184-1.033-0.116-1.851-0.015-2.45c0.417-2.54,1.725-3.996,4.049-5.211
			c-1.295,1.986-1.833,3.679-1.511,5.553c0.114,0.677,0.415,1.353,0.827,2.001l14.631,0.216l-0.055-0.38
			c-0.213-1.65-0.028-2.847,0.037-4.269c0.033-0.708,1.649-4.891,1.265-5.119c-1.257-0.753-2.367-1.149-3.274-2.357
			c-1.111-1.48-1.831-3.398-1.743-5.344c0.89-1.783,2.184-3.025,4.106-3.6c-0.929-0.169-1.923-0.101-2.847,0.184
			c0.966-1.234,2.366-2.01,3.613-2.907c-1.887-0.196-4.546-0.453-6.251,0.896c-0.264,0.208-2.608,2.066-2.492,2.304
			c-1.614-3.175-7.189-2.263-10.145-1.611c-2.019,0.44-4.005,1.057-5.949,1.77c-2.212,0.809-3.839,2.192-5.852,3.381
			c1.2,0.724,0.438,0.652-0.665,1.563l-2.333,1.882c-0.814,0.652-3.711,3.909-6.044,8.039c0,0-0.638,1.325-3.176,5.243
			c0.299,0.008,0.611-0.034,0.886-0.034L355.97,195.109z"/>
		<path d="M304.611,162.156c-1.816,3.1-3.545,6.97-3.545,6.97s2.624,0.235,3.86,0.888c1.7,0.897,3.108,3.346,3.216,3.545
			c0.239,0.039,0.961,0.138,1.482,0.199c0.416,1.874,3.387,4.443,3.387,4.443l1.164-0.083c0,0-0.831-3.083-0.831-4.165
			c0-1.079,0.746-1.957,0.746-1.957l1.21-0.083l0.169-3.286c4.158,1.958,7.766,3.036,10.021,3.157
			c-0.175-0.091-0.353-0.172-0.528-0.269c-3.532-1.958-5.925-4.391-5.347-5.434c0.482-0.868,2.845-0.502,5.692,0.772
			c-1.629-1.541-3.859-3.34-6.595-5.087c0.019-0.181,0.023-0.365,0.023-0.549c0-3.517-2.851-6.369-6.368-6.369
			c-1.605,0-3.09,0.593-4.189,1.572c-4.947-1.989-8.715-2.679-9.435-1.377C298.037,156.32,300.446,159.103,304.611,162.156z"/>
		<path d="M359.659,203.874l-29.789,0.318c-1.499,0-4.043,0.151-6.701,0.412c-4.183,2.117-8.163,1.928-8.249,1.932
			c-0.956,0-1.899-0.335-2.849-1.024l-4.014,0.896l-1.068,0.24l-0.934-0.577l-2.368-1.469l-10.51,0.24
			c-1.188,1.765-2.382,3.31-3.546,4.606l-1.352,1.513l-1.826-0.894c-0.178-0.086-3.99-1.972-6.342-5.922h-6.226
			c-0.104,0.057-0.199,0.141-0.304,0.201c-0.234-0.085-0.479-0.138-0.717-0.201h-4.086c-1.856,0.521-3.728,1.797-5.567,4.122
			c-3.547,4.463-5.754,9.754-9.591,14.027c-4.063,4.54-9.264,6.844-14.789,8.854c4.293,3.681,10.295,4.102,10.303,4.11
			c3.135,0.208,8.127-9.785,9.387-11.996c2.897-5.081,3.941-11.813,9.79-14.338c-2.311,2.957-3.613,6.638-3.329,10.966
			c-0.147,5.675,1.346,7.581-3.721,12.437l-6.33,5.769c-1.915,1.781-6.603,4.591-9.095,4.378c-0.163,4.784-3.148,11.04-4.984,15.672
			c-2.034,5.14-4.415,10.593-6.954,15.347l-0.09,0.171c1.011,3.557-0.939,4.471-0.651,5.579c0.214,0.854-0.24,2.222-0.292,3.123
			c2.403,0.204,4.938,0.303,7.364,0.259c0.479-2.049-0.463-3.898-1.86-5.222c-1.358-1.299-1.251-1.253,0.847-3.558
			c1.061-6.229,11.251-22.394,19.538-25.631c5.327-2.077,8.737-3.479,12.922-5.711c-0.231,1.889-0.436,3.79-0.544,5.64
			c8.567-0.438,20.014,8.455,21.773,17.909l-0.209,0.318c-0.431,0.952-0.213,2.494,0.952,2.816c-1.31,1.142-4.113,3.178-4.113,3.178
			l5.692,5.975c0,0,4.98-9.548,2.456-14.223c-2.935-4.929-10.991-14.469-16.34-21.264c-1.075-1.377-1.665-2.942-1.939-4.627
			c5.34-2.477,10.38-2.629,15.871-2.421c0.961-0.873,2.051-1.891,2.927-2.814c2.077-2.19,7.417-10.042,7.417-10.042
			s-2.479,4.683-4.708,8.789c-0.966,1.775-1.835,3.146-2.513,4.135c-0.688,1.031-1.466,2.109-2.217,3.067
			c-2.631,3.349-3.562,5.26-2.824,7.375c0.568,0.299,1.27,0.877,2.133,1.804l-0.57,0.988l0.859,1.171l1.126-0.301
			c0.747,1.137,1.499,2.499,2.121,3.69c2.2,2.164,4.076,2.638,8.313-0.356c-5.267-4.388-6.226-7.33-1.875-13.296
			c0.436-0.599,1.898-2.301,1.898-2.301s1.007,0.121,1.646,0.221c4.86,0.766,8.491,1.291,11.979,1.651
			c-2.537,6.613-4.846,13.823-5.796,19.918c-0.215,1.366-1.23,9.34-3.56,16.49c1.002,3.554-0.964,4.391-0.978,5.563
			c-0.012,0.869,0.02,3.136,0.02,3.136s4.947,0.303,7.372,0.261c0.482-2.049-0.458-3.901-1.859-5.228
			c-1.351-1.283-1.246-1.245,0.848-3.552c-1.762-6.749,3.543-18.586,8.13-27.047c0.844-1.563,1.54-2.88,2.215-4.118
			c5.137,3.357,14.836,4.696,19.004,6.164c0.237,3.666-2.664,9.132-6.1,17.127l-0.496,0.085c-0.978,0.354-2.031,1.617-1.588,2.74
			c-1.651-0.166-4.849-0.826-4.849-0.826l-1.186,8.589c0,0,10.313-3.117,12.303-8.438c1.688-2.574,7.685-11.946,9.865-18.411
			c2.91-8.603-11.855-9.772-12.975-13.535c7.367-2.191,10.6-6.31,12.38-10.116c3.873-3.884,6.88-8.725,7.385-14.744
			c0.255-3.085-0.023-5.645-0.688-7.88C360.265,205.18,359.998,204.535,359.659,203.874z"/>
	</g>
	<polygon fill="#E42E18" points="198.193,321.887 174.185,345.894 369.437,345.894 393.446,321.887 	"/>
	<path fill="#7B7156" d="M54.186,296.524c0-13.986-5.28-16.65-15.342-16.65H26.479c-0.407,0-0.768,0.317-0.768,0.723V312.5
		c0,0.404,0.361,0.724,0.768,0.724h12.365C48.906,313.224,54.186,310.558,54.186,296.524 M49.627,296.436
		c0,11.553-3.655,13.13-11.415,13.13h-7.988V283.53h8.032C45.972,283.53,49.627,284.884,49.627,296.436 M80.584,301.4
		c0-6.86-1.128-12.456-10.74-12.456c-9.567,0-10.74,5.596-10.74,12.456c0,6.813,1.172,12.409,10.74,12.409
		C79.456,313.809,80.584,308.213,80.584,301.4 M76.251,301.4c0,5.64-0.269,9.205-6.407,9.205c-6.092,0-6.362-3.565-6.362-9.205
		c0-5.686,0.27-9.25,6.362-9.25C75.982,292.15,76.251,295.714,76.251,301.4 M106.261,312.543v-17.012
		c0-4.964-2.572-6.588-7.988-6.588c-2.89,0-7.221,0.632-9.567,1.399c-2.346,0.768-2.617,1.535-2.617,3.295v18.905
		c0,0.409,0.271,0.681,0.722,0.681h2.797c0.452,0,0.677-0.271,0.677-0.681v-19.269c0.767-0.225,4.333-1.125,7.762-1.125
		c2.934,0,4.016,0.992,4.016,3.879v16.515c0,0.409,0.271,0.681,0.723,0.681h2.796C106.035,313.224,106.261,312.953,106.261,312.543
		 M154.952,296.524c0-10.063-2.347-17.237-15.119-17.237c-12.77,0-15.116,7.175-15.116,17.237c0,9.433,2.074,16.339,12.77,17.195
		l0.587,1.985c1.262,4.243,2.707,6.183,7.715,6.183h4.467c0.407,0,0.724-0.319,0.724-0.722v-2.576c0-0.401-0.317-0.721-0.724-0.721
		h-7.625l-0.901-4.106C152.919,313.13,154.952,306.137,154.952,296.524 M150.303,296.524c0,8.351-0.902,13.539-10.47,13.539
		s-10.425-5.188-10.425-13.491c0-8.351,0.857-13.539,10.425-13.539S150.303,288.178,150.303,296.524 M180.987,304.559v-14.983
		c0-0.406-0.271-0.722-0.676-0.632l-2.888,0.678c-0.406,0.089-0.632,0.227-0.632,0.675v14.578c0,3.159-0.495,5.775-5.866,5.775
		c-4.513,0-5.912-1.759-5.912-5.688v-15.387c0-0.406-0.314-0.722-0.631-0.632l-2.932,0.632c-0.361,0.091-0.631,0.272-0.631,0.678
		v14.349c0,6.048,2.301,9.207,10.106,9.207C179.904,313.809,180.987,309.295,180.987,304.559 M192.313,312.543v-22.247
		c0-0.403-0.27-0.675-0.677-0.675h-2.84c-0.408,0-0.677,0.271-0.677,0.675v22.247c0,0.409,0.269,0.681,0.677,0.681h2.84
		C192.043,313.224,192.313,312.953,192.313,312.543 M192.269,284.972v-4.918c0-0.495-0.27-0.768-0.723-0.768h-2.662
		c-0.451,0-0.766,0.272-0.766,0.768v4.918c0,0.453,0.315,0.768,0.766,0.768h2.662C191.999,285.74,192.269,285.469,192.269,284.972
		 M216.412,310.02c-0.136-0.542-0.497-0.497-0.813-0.407c-0.994,0.271-3.564,0.902-5.911,0.902c-5.279,0-6.904-2.256-6.904-9.162
		c0-6.903,1.625-9.16,6.904-9.16c1.715,0,4.016,0.495,5.822,0.992c0.541,0.138,0.812-0.043,0.903-0.449l0.359-1.625
		c0.046-0.226,0.046-0.271,0.046-0.36c0-0.407-0.227-0.544-0.497-0.632c-1.172-0.408-4.287-1.175-7.084-1.175
		c-8.529,0-10.785,4.017-10.785,12.409c0,8.438,2.256,12.409,10.785,12.409c2.798,0,6.002-0.632,7.13-1.172
		c0.495-0.225,0.495-0.495,0.405-0.902L216.412,310.02z M242.222,312.543v-17.1c0-4.876-2.481-6.5-7.762-6.5
		c-2.571,0-6.272,0.588-8.663,1.263l0.451-2.617v-7.669c0-0.409-0.227-0.724-0.632-0.634l-2.934,0.679
		c-0.407,0.089-0.632,0.226-0.632,0.631v31.947c0,0.409,0.271,0.681,0.722,0.681h2.798c0.45,0,0.677-0.271,0.677-0.681v-19.269
		c0.767-0.225,4.333-1.125,7.806-1.125c2.979,0,4.016,1.035,4.016,3.835v16.559c0,0.409,0.273,0.681,0.723,0.681h2.798
		C241.996,313.224,242.222,312.953,242.222,312.543 M269.027,301.4c0-6.86-1.128-12.456-10.74-12.456
		c-9.567,0-10.739,5.596-10.739,12.456c0,6.813,1.172,12.409,10.739,12.409C267.899,313.809,269.027,308.213,269.027,301.4
		 M264.697,301.4c0,5.64-0.273,9.205-6.41,9.205c-6.093,0-6.361-3.565-6.361-9.205c0-5.686,0.269-9.25,6.361-9.25
		C264.423,292.15,264.697,295.714,264.697,301.4 M286.897,310.38c-0.09-0.317-0.271-0.454-0.497-0.454c-0.045,0-0.09,0-0.271,0.047
		c-0.902,0.18-2.437,0.542-3.836,0.542c-2.347,0-3.564-0.632-3.564-2.979V292.78h7.264c0.407,0,0.679-0.27,0.679-0.63v-1.943
		c0-0.405-0.271-0.675-0.63-0.675h-7.313v-7.354c0-0.409-0.315-0.724-0.63-0.634l-2.937,0.678c-0.403,0.09-0.63,0.225-0.63,0.677
		v24.411c0,4.516,2.255,6.453,6.858,6.453c2.664,0,4.512-0.497,5.549-0.857c0.317-0.135,0.452-0.404,0.407-0.632L286.897,310.38z
		 M304.044,310.38c-0.092-0.317-0.271-0.454-0.495-0.454c-0.047,0-0.094,0-0.272,0.047c-0.903,0.18-2.437,0.542-3.834,0.542
		c-2.349,0-3.568-0.632-3.568-2.979V292.78h7.268c0.407,0,0.676-0.27,0.676-0.63v-1.943c0-0.405-0.269-0.675-0.631-0.675h-7.313
		v-7.354c0-0.409-0.314-0.724-0.63-0.634l-2.934,0.678c-0.405,0.09-0.633,0.225-0.633,0.677v24.411c0,4.516,2.257,6.453,6.86,6.453
		c2.664,0,4.515-0.497,5.551-0.857c0.317-0.135,0.453-0.404,0.405-0.632L304.044,310.38z M328.866,300.903
		c0-3.251-0.319-6.046-1.584-8.123c-1.53-2.437-4.286-3.836-8.978-3.836c-8.893,0-10.65,4.648-10.65,12.456
		c0,8.438,2.845,12.409,11.687,12.409c3.114,0,6.092-0.632,7.852-1.354c0.454-0.183,0.544-0.408,0.454-0.768l-0.499-1.805
		c-0.09-0.317-0.226-0.454-0.45-0.454c-0.045,0-0.09,0-0.313,0.049c-2.033,0.585-3.838,1.127-6.547,1.127
		c-2.978,0-5.054-0.496-6.316-1.941c-1.035-1.127-1.532-2.482-1.532-4.873h16.245c0.313,0,0.633-0.36,0.633-0.678V300.903z
		 M324.575,300.586l-12.635,0.044c0.048-1.624,0.09-3.292,0.497-4.826c0.721-2.754,2.346-3.654,5.821-3.654
		c3.385,0,5.054,0.855,5.776,3.654C324.44,297.381,324.532,298.963,324.575,300.586"/>
	<path d="M398.652,316.991c0.452-1.023,1.067-1.914,1.844-2.669c0.775-0.751,1.68-1.344,2.712-1.772
		c1.033-0.431,2.129-0.646,3.289-0.646c1.159,0,2.251,0.215,3.278,0.646c1.022,0.429,1.92,1.021,2.688,1.772
		c0.769,0.755,1.378,1.646,1.83,2.669c0.452,1.024,0.678,2.131,0.678,3.322c0,1.22-0.226,2.349-0.678,3.381
		c-0.452,1.031-1.062,1.928-1.83,2.687c-0.769,0.762-1.666,1.354-2.688,1.775c-1.027,0.422-2.119,0.633-3.278,0.633
		c-1.16,0-2.256-0.211-3.289-0.633c-1.032-0.421-1.937-1.014-2.712-1.775c-0.776-0.759-1.392-1.655-1.844-2.687
		c-0.452-1.032-0.678-2.161-0.678-3.381C397.974,319.122,398.2,318.015,398.652,316.991 M400.043,323.193
		c0.354,0.885,0.844,1.648,1.469,2.297s1.362,1.155,2.215,1.524c0.852,0.37,1.773,0.553,2.77,0.553c0.979,0,1.891-0.183,2.735-0.553
		c0.842-0.369,1.577-0.876,2.203-1.524c0.625-0.648,1.115-1.412,1.47-2.297c0.354-0.881,0.529-1.84,0.529-2.88
		c0-1.009-0.176-1.952-0.529-2.825c-0.354-0.872-0.845-1.632-1.47-2.271c-0.626-0.64-1.361-1.146-2.203-1.514
		c-0.845-0.371-1.757-0.554-2.735-0.554c-0.996,0-1.918,0.183-2.77,0.554c-0.853,0.368-1.59,0.874-2.215,1.514
		s-1.115,1.399-1.469,2.271c-0.354,0.873-0.532,1.816-0.532,2.825C399.511,321.353,399.689,322.312,400.043,323.193
		 M407.016,315.409c1.175,0,2.048,0.234,2.612,0.701c0.565,0.466,0.848,1.174,0.848,2.124c0,0.888-0.251,1.539-0.748,1.955
		c-0.496,0.415-1.114,0.657-1.853,0.734l2.825,4.363h-1.65l-2.69-4.251h-1.625v4.251h-1.539v-9.878H407.016z M406.338,319.794
		c0.346,0,0.673-0.013,0.982-0.036c0.309-0.021,0.585-0.085,0.825-0.191c0.241-0.104,0.433-0.266,0.577-0.487
		c0.143-0.217,0.214-0.523,0.214-0.913c0-0.331-0.064-0.597-0.192-0.793c-0.128-0.193-0.294-0.344-0.497-0.452
		c-0.202-0.104-0.437-0.175-0.701-0.215c-0.261-0.034-0.523-0.056-0.779-0.056h-2.032v3.144H406.338z"/>
</g>
</svg>
