<?xml version="1.0" encoding="utf-8"?>
<!-- Generator: Adobe Illustrator 16.0.0, SVG Export Plug-In . SVG Version: 6.00 Build 0)  -->
<!DOCTYPE svg PUBLIC "-//W3C//DTD SVG 1.1//EN" "http://www.w3.org/Graphics/SVG/1.1/DTD/svg11.dtd">
<svg version="1.1" id="Calque_1" xmlns="http://www.w3.org/2000/svg" xmlns:xlink="http://www.w3.org/1999/xlink" x="0px" y="0px"
	 width="500px" height="500px" viewBox="0 0 500 500" enable-background="new 0 0 500 500" xml:space="preserve">
<g>
	<path d="M473.66,252.389c0.332-53.038-39.437-99.896-99.968-127.354c57.544,27.704,95.17,74.19,94.844,126.714
		c-0.479,76.374-81.023,139.299-185.735,150.04C390.413,391.111,473.185,328.454,473.66,252.389z"/>
	<path d="M32.487,250.448C32.86,190.251,82.988,138.419,155.48,113.9C79.068,137.81,25.917,190.112,25.536,251.016
		c-0.512,82.863,96.829,150.661,218.376,152.916C126.124,401.315,31.97,333.406,32.487,250.448z"/>
	<g>
		<path d="M251.063,403.703l-1.505-0.003c-74.573-0.335-144.008-25.714-185.739-67.89c-25.264-25.532-38.518-55.355-38.33-86.244
			c0.253-40.8,23.772-79.072,66.23-107.767c42.305-28.592,98.483-44.337,158.184-44.337l1.514,0.003
			c74.572,0.334,144.011,25.715,185.74,67.89c25.264,25.531,38.518,55.353,38.328,86.24c-0.25,40.801-23.771,79.074-66.23,107.77
			C366.946,387.958,310.767,403.703,251.063,403.703z M249.903,99.72c-59.256,0-114.983,15.607-156.92,43.949
			c-41.821,28.265-64.99,65.877-65.236,105.91c-0.185,30.278,12.844,59.547,37.677,84.645
			c41.319,41.759,110.159,66.889,184.146,67.221l1.495,0.003c59.257,0,114.988-15.607,156.927-43.952
			c41.825-28.264,64.993-65.879,65.238-105.914c0.186-30.273-12.843-59.542-37.676-84.638
			c-41.319-41.759-110.158-66.888-184.146-67.22L249.903,99.72z"/>
	</g>
	<g>
		<path fill="none" d="M461.196,251.624c-0.501,81.782-95.379,147.661-211.919,147.142
			C132.73,398.248,38.651,331.529,39.149,249.745c0.5-81.785,95.384-147.661,211.93-147.143
			C367.618,103.12,461.698,169.84,461.196,251.624z"/>
		<path d="M250.646,400.46l-1.377-0.003c-69.155-0.307-134.081-24.378-173.674-64.391c-25.141-25.406-38.329-55.26-38.14-86.332
			c0.245-39.95,22.521-77.417,62.725-105.498c40.005-27.941,93.109-43.33,149.53-43.33l1.373,0.003
			c69.153,0.307,134.076,24.38,173.671,64.394c25.138,25.406,38.324,55.259,38.134,86.33
			c-0.245,39.949-22.521,77.415-62.722,105.496C360.166,385.071,307.064,400.46,250.646,400.46z M249.711,104.292
			c-114.682,0-208.379,65.254-208.87,145.463c-0.184,30.154,12.666,59.178,37.161,83.932
			c38.976,39.388,103.006,63.083,171.283,63.386l1.361,0.003c114.673,0,208.367-65.254,208.858-145.462
			c0.185-30.153-12.663-59.176-37.156-83.93c-38.977-39.39-103.005-63.085-171.279-63.39L249.711,104.292z"/>
	</g>
	<path d="M97.551,295.54c-0.727,0,84.284-0.23,84.284-0.521c0-0.438,0.729-0.438,1.457-0.438l53.011-1.748
		c0.582,0.876,1.457,1.458,2.329,1.458c1.166,0,2.041-1.167,2.625-2.039c0.873,0.872,3.783,2.039,6.408,2.039
		c2.329,0,5.242-1.167,6.988-2.624c1.747,1.457,4.662,2.624,6.989,2.624c2.622,0,5.535-1.167,6.409-2.039
		c0.582,0.872,1.454,2.039,2.621,2.039c0.875,0,1.749-0.582,2.329-1.458l136.718,1.496c0.727,0-57.429,0.252-57.429,0.69
		c0,0.291-14.23,0.717-14.955,0.717l-64.334,1.466c-0.58-0.873-1.163-1.456-2.329-1.456c-0.873,0-2.039,0.874-2.621,2.038
		c-0.874-1.164-3.493-2.038-6.409-2.038c-2.036,0-5.242,0.874-6.989,2.619c-1.746-1.745-4.95-2.619-6.988-2.619
		c-2.915,0-5.535,0.874-6.408,2.038c-0.584-1.164-1.748-2.038-2.625-2.038c-1.163,0-1.747,0.583-2.329,1.456L97.551,295.54z"/>
	<g>
		<path d="M212.767,176.336c12.349-12.603,25.272-18.993,38.415-18.993c6.83,0,12.398,2.11,16.548,6.271
			c4.145,4.163,6.246,9.751,6.246,16.61c0,4.477-0.635,8.435-1.89,11.773c-0.12,0.353-0.179,0.729-0.179,1.148
			c0,0.46,0.264,0.724,0.725,0.724c0.506,0,1.21-0.55,2.163-4.844c0.69-3.127,1.041-6.135,1.041-8.938
			c0-7.294-2.188-13.282-6.505-17.797c-4.323-4.518-10.05-6.808-17.021-6.808c-13.805,0-27.577,6.248-40.937,18.571
			c-9.195-13.258-22.98-19.981-40.975-19.981c-21.248,0-40.567,6.866-57.421,20.406c-16.867,13.549-25.419,29.096-25.419,46.211
			c0,8.011,2.52,14.662,7.49,19.768c4.971,5.113,11.385,7.706,19.062,7.706c11.125,0,22.632-5.886,34.203-17.496
			c11.574-11.608,17.442-23.14,17.442-34.272c0-4.331-1.285-7.899-3.82-10.604c-2.54-2.706-5.89-4.077-9.957-4.077
			c-3.176,0-5.919,0.911-8.153,2.707c-2.249,1.808-3.389,4.02-3.389,6.574c0,3.788,1.752,5.708,5.209,5.708
			c1.905,0,3.58-0.701,4.976-2.084c1.401-1.382,2.112-3.029,2.112-4.893c0-2.609-1.412-3.933-4.196-3.933H147.4l-0.102,0.024
			c-0.182,0.092-0.42,0.139-0.708,0.139c-0.666,0-0.666-0.247-0.666-0.352c0-1.144,2.008-1.749,5.808-1.749
			c3.448,0,6.272,1.196,8.396,3.556c2.125,2.372,3.203,5.543,3.203,9.426c0,10.345-5.67,21.289-16.853,32.527
			c-11.181,11.238-22.106,16.936-32.473,16.936c-6.117,0-11.093-1.788-14.789-5.313c-3.693-3.521-5.566-8.281-5.566-14.147
			c0-7.429,2.352-15.687,6.99-24.542c4.646-8.868,10.939-17.086,18.702-24.426c15.405-14.557,32.578-21.938,51.041-21.938
			c17.758,0,30.801,6.782,38.768,20.157c-9.552,9.045-18.434,20.118-26.399,32.915c-13.245,21.165-23.205,35.091-29.604,41.39
			c-6.531,6.435-15.615,11.224-27.002,14.234c-16.967-3.739-28.462-5.635-34.166-5.635c-4.727,0-8.929,0.562-12.49,1.669
			c-3.689,1.151-5.482,2.47-5.482,4.029c0,3.111,7.202,4.623,22.018,4.623c8.48,0,17.478-0.864,26.744-2.569
			c10.683,1.705,19.208,2.569,25.337,2.569c19.946,0,37.063-6.364,50.876-18.916c13.825-12.557,20.834-28.083,20.834-46.149
			C219.816,194.501,217.444,185.111,212.767,176.336z M151.168,267.455c-7.471,0-14.642-0.662-21.332-1.968
			c16.086-4.591,28.5-10.725,36.912-18.238c8.293-7.484,16.419-19.889,24.154-36.871c5.793-12.634,12.425-23.293,19.715-31.688
			c2.811,6.025,4.235,12.558,4.235,19.422c0,12.62-4.266,25.671-12.68,38.792C189.23,257.176,172.07,267.455,151.168,267.455z
			 M97.712,267.455c-18.516,0-21.28-1.674-21.28-2.671c0-0.624,1.25-1.672,9.624-1.672c7.127,0,17.983,0.985,32.285,2.929
			C112.162,266.979,105.231,267.455,97.712,267.455z"/>
		<path d="M311.521,223.802c-1.994-2.556-4.598-3.852-7.738-3.852c-2.635,0-5.439,1.394-8.338,4.143
			c-2.223,2.114-5.359,5.857-9.351,11.159l34-54.02l-0.494,0.081c-2.006,0.329-3.696,0.495-5.024,0.495
			c-1.688,0-3.285-0.219-4.748-0.652l-0.165-0.049l-34.206,55.074c-1.172,1.888-2.26,3.757-3.218,5.532l-2.313,3.218
			c-9.829,13.822-16.996,20.83-21.305,20.83c-2.129,0-3.164-1.096-3.164-3.35c0-2.879,3.147-9.521,9.354-19.744l13.177-21.69
			l0.252-0.414l-0.479,0.073c-2.511,0.385-4.472,0.58-5.827,0.58c-1.131,0-2.558-0.194-4.242-0.577l-0.161-0.036l-8.195,13.935
			c-12.203,20.718-21.159,31.223-26.621,31.223c-1.965,0-2.921-1.15-2.921-3.518c0-2.494,0.988-5.419,2.935-8.691l19.842-32.985
			l-0.471,0.069c-2.646,0.384-4.501,0.58-5.516,0.58s-2.454-0.194-4.277-0.577l-0.158-0.033l-15.233,25.503
			c-2.507,4.16-3.778,7.91-3.778,11.143c0,2.81,0.856,5.215,2.545,7.149c1.697,1.95,3.822,2.938,6.315,2.938
			c2.376,0,4.915-1.275,7.543-3.788c2.378-2.213,6.153-6.623,11.222-13.114c-1.302,2.728-1.96,4.956-1.96,6.646
			c0,2.809,0.868,5.243,2.58,7.236c1.723,2.003,3.858,3.019,6.345,3.019c3.971,0,9.178-3.866,15.919-11.818
			c1.908-2.248,3.607-4.287,5.066-6.078c-0.796,2.28-1.198,4.228-1.198,5.802c0,3.517,0.92,6.42,2.735,8.629
			c1.829,2.22,4.239,3.346,7.163,3.346c6.138,0,13.247-3.049,21.13-9.063c10.59-8.056,15.96-16.382,15.96-24.748
			C314.502,229.573,313.499,226.342,311.521,223.802z M308.128,226.875c0,6.013-4.083,14.063-12.135,23.929
			c-8.041,9.846-14.583,14.838-19.444,14.838c-2.739,0-4.07-1.368-4.07-4.182c0-3.371,3.653-10.095,10.859-19.985
			c9.605-13.234,16.465-19.944,20.389-19.944C306.689,221.531,308.128,223.279,308.128,226.875z"/>
		<path d="M388.227,213.188c1.994,0,3.854-0.877,5.53-2.608c1.671-1.729,2.518-3.613,2.518-5.603c0-2.524-1.279-3.805-3.804-3.805
			c-1.939,0-3.812,0.876-5.565,2.604c-1.756,1.728-2.646,3.559-2.646,5.445c-0.001,1.303,0.336,2.3,1.001,2.965
			C385.925,212.851,386.923,213.188,388.227,213.188z"/>
		<path d="M414.642,224.685c0-1.239,0.16-2.706,0.477-4.36c7.017-6.722,10.427-11.113,10.427-13.426
			c0-0.965-0.553-1.496-1.557-1.496c-1.956,0-3.95,1.426-5.927,4.239c-1.941,2.761-3.405,6.116-4.351,9.971
			c-3.275,4.182-5.937,7.511-7.913,9.897l-6.513,8.042c-0.429-0.185-0.907-0.278-1.425-0.278c-3.177,0-6.284,2.001-9.236,5.948
			c-2.739,3.659-4.217,7.491-4.392,11.389c-6.31,7.399-11.084,11.15-14.193,11.15c-2.464,0-3.662-1.15-3.662-3.518
			c0-2.386,1.354-5.841,4.022-10.269l19.038-31.407l-0.473,0.067c-2.706,0.385-4.83,0.58-6.313,0.58c-0.98,0-2.34-0.194-4.04-0.577
			l-0.161-0.036l-10.592,18.028c-0.286,0.177-0.643,0.546-1.099,1.137c-2.047,3.258-4.729,6.088-7.971,8.411
			c-3.229,2.309-6.094,3.479-8.514,3.479c-1.238,0-2.375-0.282-3.382-0.839c6.563-8.868,9.889-16.57,9.889-22.896
			c0-5.211-2.468-7.854-7.336-7.854c-5.095,0-11.648,2.825-19.477,8.397c-11.142,7.895-16.791,16.222-16.791,24.75
			c0,3.847,1.196,7.194,3.556,9.949c2.37,2.77,5.273,4.174,8.63,4.174c6.394,0,13.3-5.152,20.53-15.316
			c1.31,0.619,2.811,0.933,4.466,0.933c4.115,0,8.665-2.508,13.521-7.455c0.017-0.016,0.032-0.032,0.048-0.048
			c-2.795,5.193-4.21,9.212-4.21,11.96c0,2.813,0.898,5.195,2.671,7.079c1.775,1.89,4.021,2.848,6.673,2.848
			c3.856,0,8.969-3.56,15.202-10.581c0.256,3.013,1.381,5.482,3.347,7.347c2.269,2.146,5.335,3.234,9.114,3.234
			c6.623,0,12.434-1.855,17.271-5.516c4.855-3.674,7.317-8.083,7.317-13.104c0-2.396-0.766-5.382-2.274-8.875
			C416.121,232.947,414.642,227.846,414.642,224.685z M413.2,227.998c0,3.091,0.054,5.379,0.163,6.997
			c0.111,1.642,0.167,3.289,0.167,4.894c0,6.062-2.075,11.813-6.168,17.094c-4.075,5.265-8.429,7.934-12.939,7.934
			c-2.288,0-4.229-0.728-5.77-2.162c-1.534-1.427-2.313-3.227-2.313-5.35c0-1.964,0.767-3.863,2.278-5.647
			c1.511-1.792,3.329-2.945,5.401-3.425c5.385-1.171,8.114-3.459,8.114-6.801c0-1.253-0.499-2.34-1.484-3.234
			c5.428-6.589,9.726-11.878,12.788-15.736C413.281,224.075,413.2,225.899,413.2,227.998z M325.633,265.479
			c-3.521,0-5.233-1.79-5.233-5.474c0-6.474,3.632-14.573,10.795-24.071c7.151-9.479,13.271-14.285,18.191-14.285
			c3.915,0,5.818,2.115,5.818,6.465c0,2.121-0.364,4.084-1.083,5.846c-0.393-0.849-1.01-1.278-1.839-1.278
			c-2.107,0-4.284,1.476-6.471,4.387c-2.17,2.892-3.271,5.744-3.271,8.477c0,1.872,0.785,3.71,2.333,5.466
			C337.934,260.612,331.461,265.479,325.633,265.479z"/>
	</g>
	<g>
		<path d="M114.864,339.356l0.017-0.389c0.222-0.107,0.597-0.211,1.122-0.3c0.523-0.088,0.886-0.176,1.084-0.258
			c0.198-0.089,0.366-0.203,0.498-0.35c0.09-0.453,0.136-1.271,0.136-2.454v-12.001l0.046-1.986c0-0.411-0.082-0.696-0.242-0.852
			c-0.161-0.153-0.582-0.294-1.265-0.423c-0.683-0.128-1.086-0.232-1.209-0.313c-0.124-0.086-0.185-0.174-0.185-0.265
			c0-0.051,0.016-0.12,0.046-0.2c0.134-0.082,0.272-0.123,0.417-0.123c0.153,0,0.467,0.009,0.942,0.032h0.433
			c0.143,0,0.551-0.01,1.218-0.032h2.144l4.432-0.073l4.69-0.174h0.419l0.663-0.018c0.186,0,0.352,0.053,0.494,0.155
			c0.063,0.167,0.097,0.281,0.108,0.355l-0.016,0.616l0.156,2.756c0,0.114-0.009,0.259-0.029,0.433
			c-0.155,0.073-0.297,0.108-0.425,0.108c-0.088,0-0.156-0.029-0.205-0.091c-0.077-0.115-0.128-0.332-0.147-0.652
			c-0.042-0.441-0.2-1.014-0.48-1.716c-0.132-0.329-0.354-0.557-0.665-0.68c-0.617-0.237-1.659-0.354-3.123-0.354
			c-0.688,0-1.335,0.018-1.932,0.056c-0.601,0.035-0.965,0.054-1.101,0.054l-1.205-0.019c-0.496,0-0.903,0.076-1.222,0.218
			c-0.218,0.091-0.326,0.313-0.326,0.664v0.229c0.031,0.525,0.047,1.102,0.047,1.742l-0.047,4.188c0,0.412,0.031,0.8,0.094,1.17
			l0.439,0.029l0.855-0.044h2.911c1.167,0,1.98-0.083,2.438-0.247c0.304-0.114,0.533-0.282,0.687-0.511
			c0.05-0.071,0.178-0.478,0.381-1.218l0.197-1.28c0.124-0.063,0.219-0.095,0.28-0.095c0.05,0,0.134,0.026,0.249,0.076
			c0.049,0.238,0.082,0.601,0.093,1.078l0.226,5.683c-0.172,0.073-0.304,0.108-0.396,0.108l-0.167-0.029
			c-0.163-1.03-0.421-1.842-0.769-2.43c-0.124-0.206-0.262-0.326-0.417-0.354c-0.268-0.063-1.487-0.095-3.662-0.095
			c-0.679,0-1.146,0.01-1.401,0.019c-0.616,0.032-0.984,0.044-1.107,0.044h-0.154c-0.306,0-0.526,0.044-0.661,0.123
			c-0.042,0.124-0.062,0.212-0.062,0.265v1.063c0,0.123,0.004,0.635,0.016,1.535l-0.031,5.096c0,0.142,0.04,0.323,0.123,0.538
			c0.216,0.176,0.61,0.291,1.182,0.35c0.57,0.053,1.107,0.193,1.612,0.408c0.287,0.138,0.433,0.291,0.433,0.458
			c0,0.07-0.022,0.142-0.063,0.203c-0.042,0.062-0.111,0.11-0.216,0.141c-0.842-0.167-2.007-0.247-3.497-0.247
			c-0.791,0-1.628,0.071-2.51,0.218c-0.608,0.089-1.3,0.136-2.08,0.136L114.864,339.356z"/>
		<path d="M143.423,336.985c0.062,0.139,0.092,0.235,0.092,0.297c0,0.153-0.123,0.427-0.368,0.814
			c-0.319,0.517-0.674,0.89-1.062,1.128c-0.247,0.154-0.586,0.229-1.017,0.229c-0.737,0-1.291-0.224-1.658-0.682
			c-0.228-0.271-0.387-0.75-0.479-1.446l-1.728,1.199c-0.606,0.347-1.069,0.565-1.389,0.661c-0.513,0.132-1.13,0.195-1.851,0.195
			c-0.524,0-0.938-0.151-1.24-0.47c-0.304-0.313-0.456-0.72-0.456-1.214c0-0.708,0.435-1.56,1.302-2.547
			c0.868-0.99,2.05-1.798,3.539-2.427c1.05-0.44,1.692-0.729,1.929-0.853c0.02-0.338,0.03-0.708,0.03-1.114
			c0-1.31-0.183-2.199-0.549-2.66c-0.363-0.469-0.886-0.702-1.563-0.702c-0.709,0-1.373,0.281-1.99,0.837
			c-0.381,0.353-0.667,1.014-0.864,1.989c-0.062,0.268-0.181,0.556-0.354,0.865c-0.441,0.291-0.795,0.434-1.063,0.434
			c-0.225,0-0.432-0.064-0.615-0.197c-0.104-0.07-0.153-0.155-0.153-0.247c0-0.27,0.284-0.872,0.854-1.814
			c0.57-0.939,1.289-1.646,2.157-2.112c0.868-0.47,1.626-0.705,2.274-0.705c0.882,0,1.541,0.085,1.972,0.244
			c0.43,0.158,0.811,0.439,1.139,0.84c0.329,0.405,0.529,0.844,0.603,1.319c0.042,0.229,0.062,1.04,0.062,2.433l-0.046,2.462
			l0.017,1.798c0,0.235-0.008,0.438-0.017,0.605c-0.011,0.3-0.016,0.521-0.016,0.664c0,0.341,0.097,0.613,0.293,0.818
			c0.193,0.209,0.425,0.31,0.691,0.31c0.391,0,0.724-0.193,1-0.591l0.186-0.249C143.136,337.065,143.249,337.03,143.423,336.985z
			 M138.941,336.519c0.073-1.309,0.108-2.232,0.108-2.771c0-0.278-0.015-0.658-0.046-1.134c-0.694,0.253-1.428,0.626-2.206,1.134
			c-0.775,0.506-1.39,1.087-1.846,1.748c-0.331,0.478-0.496,0.926-0.496,1.35c0,0.404,0.137,0.739,0.412,1.011
			c0.272,0.268,0.616,0.398,1.03,0.398c0.322,0,0.709-0.107,1.164-0.338C137.663,337.617,138.289,337.15,138.941,336.519z"/>
		<path d="M144.256,319.693v-0.074c0-0.104,0.042-0.246,0.121-0.438c1.109-0.193,2.292-0.493,3.545-0.898
			c0.073-0.009,0.187-0.018,0.341-0.018c0.051,0.167,0.077,0.271,0.077,0.325v4.593l-0.015,1.463l0.015,1.637l-0.031,1.321
			c0,0.054,0.011,0.229,0.031,0.522l1.271-0.479c0.135-0.042,0.58-0.177,1.335-0.406c0.96-0.155,1.519-0.234,1.675-0.234
			c1.033,0,1.966,0.167,2.792,0.499c0.507,0.203,1.007,0.548,1.505,1.025c0.496,0.476,0.863,0.987,1.102,1.521
			c0.412,0.979,0.619,1.824,0.619,2.532c0,1.125-0.072,1.9-0.216,2.332c-0.351,1.031-0.778,1.847-1.285,2.441
			c-0.504,0.6-1.212,1.111-2.117,1.534c-0.908,0.417-1.871,0.629-2.894,0.629c-0.937,0-1.824-0.171-2.657-0.521
			c-0.837-0.353-1.304-0.521-1.408-0.521c-0.314,0-0.714,0.417-1.199,1.254l-0.46-0.012c-0.044-0.688-0.063-1.539-0.063-2.545
			l0.031-2.301l-0.017-1.172l0.031-3.357l-0.031-0.646l0.063-1.592v-1.353l0.015-0.556c0-0.114-0.006-0.561-0.015-1.345v-0.926
			c0.03-1.783-0.046-2.82-0.231-3.098C145.889,320.396,145.245,320.017,144.256,319.693z M151.551,338.678
			c1.563,0,2.752-0.44,3.57-1.316c0.816-0.881,1.227-2.191,1.227-3.931c0-1.602-0.462-2.892-1.388-3.878
			c-0.925-0.987-2.069-1.486-3.426-1.486c-0.987,0-1.815,0.164-2.483,0.48c-0.401,0.194-0.624,0.373-0.672,0.541
			c-0.044,0.164-0.068,1.267-0.068,3.306c0,2.421,0.051,3.834,0.154,4.248c0.174,0.641,0.494,1.1,0.956,1.375
			C150.15,338.458,150.859,338.678,151.551,338.678z"/>
		<path d="M160.471,339.207l-0.062-0.203c0-0.069,0.046-0.179,0.139-0.325l0.913-0.186l1.285-0.231
			c0.101-0.051,0.174-0.123,0.216-0.219c0.062-0.132,0.092-0.53,0.092-1.191c0-3.515-0.021-5.541-0.062-6.081
			c-0.042-0.544-0.135-0.889-0.28-1.031c-0.145-0.142-0.517-0.256-1.113-0.341c-0.353-0.054-0.63-0.118-0.837-0.203l0.063-0.476
			c1.084-0.444,1.812-0.823,2.184-1.146c0.515-0.467,0.954-1.075,1.314-1.833l0.54,0.018c0.064,0.513,0.096,1.654,0.096,3.421
			l-0.016,0.262c0,0.062,0.012,0.161,0.031,0.294c0.39-0.715,0.879-1.366,1.465-1.966l0.354-0.355
			c0.146-0.165,0.282-0.291,0.417-0.385c0.72-0.435,1.253-0.652,1.602-0.652c0.454,0,0.824,0.155,1.111,0.458
			c0.287,0.307,0.432,0.68,0.432,1.119c0,0.354-0.104,0.626-0.308,0.826c-0.278,0.256-0.601,0.382-0.959,0.382
			c-0.165,0-0.489-0.088-0.975-0.265c-0.481-0.176-0.804-0.266-0.958-0.266c-0.286,0-0.488,0.052-0.602,0.143
			c-0.289,0.226-0.639,0.692-1.051,1.393c-0.319,0.528-0.479,1.015-0.479,1.454l0.077,2.563l0.031,3.066
			c0.031,0.354,0.073,0.576,0.124,0.683c0.042,0.069,0.146,0.158,0.311,0.262c1.115,0.097,1.776,0.161,1.983,0.202
			c0.143,0.01,0.253,0.021,0.326,0.029c0.442,0.016,0.753,0.076,0.93,0.186c0.092,0.053,0.139,0.139,0.139,0.244
			c0,0.062-0.042,0.144-0.124,0.25l-1.718-0.036l-0.651-0.012l-0.943,0.012h-1.58l-0.851,0.071L160.471,339.207z"/>
		<path d="M171.296,328.066l0.016-0.441c0.676-0.192,1.04-0.302,1.093-0.334c0.375-0.162,0.768-0.415,1.178-0.753
			c0.412-0.335,0.758-0.714,1.04-1.134c0.124-0.021,0.223-0.029,0.295-0.029l0.187,0.013c0.042,0.492,0.063,0.854,0.063,1.08
			c0,0.054-0.012,0.285-0.031,0.696v0.814l0.016,4.44l-0.046,4.707c-0.011,0.379,0.051,0.645,0.188,0.793
			c0.132,0.15,0.533,0.317,1.195,0.503c0.415,0.114,0.726,0.211,0.933,0.29c0.031,0.077,0.046,0.14,0.046,0.191
			c0,0.062-0.026,0.141-0.077,0.232c-0.408-0.01-0.928-0.035-1.563-0.071c-0.864-0.07-1.435-0.105-1.717-0.105
			c-0.137,0-0.967,0.026-2.499,0.07c-0.311,0.015-0.612,0.035-0.903,0.071c-0.054,0-0.137-0.02-0.251-0.048
			c-0.052-0.079-0.077-0.149-0.077-0.208c0-0.159,0.099-0.285,0.293-0.38c0.042-0.018,0.568-0.136,1.58-0.353
			c0.328-0.063,0.546-0.162,0.649-0.309c0.175-0.213,0.263-0.557,0.263-1.025c0.02-0.79,0.03-2.95,0.03-6.484
			c0-0.708-0.03-1.147-0.092-1.321c-0.051-0.123-0.188-0.265-0.406-0.424C172.478,328.393,172.01,328.233,171.296,328.066z
			 M172.601,320.104c0-0.335,0.13-0.626,0.391-0.873c0.26-0.243,0.572-0.367,0.938-0.367c0.377,0,0.707,0.142,0.994,0.414
			c0.284,0.273,0.428,0.57,0.428,0.888c0,0.313-0.144,0.611-0.428,0.892c-0.287,0.28-0.617,0.417-0.994,0.417
			s-0.692-0.124-0.948-0.379C172.729,320.839,172.601,320.51,172.601,320.104z"/>
		<path d="M189.938,336.316l0.016,1.013c-0.803,0.844-1.596,1.429-2.375,1.763c-0.784,0.336-1.703,0.504-2.764,0.504
			c-1.152,0-2.189-0.301-3.115-0.908c-0.929-0.603-1.641-1.463-2.139-2.567c-0.5-1.106-0.749-2.193-0.749-3.261
			c0-1.17,0.3-2.274,0.903-3.314c0.602-1.04,1.398-1.814,2.393-2.326c0.994-0.518,2.243-0.772,3.746-0.772
			c1.441,0,2.538,0.247,3.29,0.737c0.421,0.281,0.632,0.646,0.632,1.096c0,0.326-0.107,0.597-0.325,0.813
			c-0.217,0.211-0.494,0.316-0.835,0.316c-0.517,0-1.082-0.312-1.703-0.946c-0.382-0.388-0.729-0.657-1.036-0.802
			c-0.31-0.149-0.657-0.227-1.036-0.227c-0.921,0-1.685,0.385-2.292,1.143c-0.846,1.084-1.271,2.444-1.271,4.081
			c0,1.688,0.433,3.032,1.299,4.031c0.865,1.001,1.875,1.498,3.029,1.498c0.805,0,1.519-0.132,2.143-0.396
			C188.374,337.523,189.103,337.036,189.938,336.316z"/>
		<path d="M203.299,336.985c0.062,0.139,0.093,0.235,0.093,0.297c0,0.153-0.124,0.427-0.368,0.814
			c-0.318,0.517-0.674,0.89-1.062,1.128c-0.247,0.154-0.586,0.229-1.017,0.229c-0.737,0-1.292-0.224-1.658-0.682
			c-0.228-0.271-0.387-0.75-0.479-1.446l-1.728,1.199c-0.606,0.347-1.069,0.565-1.389,0.661c-0.514,0.132-1.13,0.195-1.851,0.195
			c-0.524,0-0.938-0.151-1.241-0.47c-0.304-0.313-0.456-0.72-0.456-1.214c0-0.708,0.435-1.56,1.302-2.547
			c0.868-0.99,2.05-1.798,3.539-2.427c1.05-0.44,1.692-0.729,1.929-0.853c0.02-0.338,0.03-0.708,0.03-1.114
			c0-1.31-0.183-2.199-0.548-2.66c-0.363-0.469-0.886-0.702-1.563-0.702c-0.709,0-1.373,0.281-1.99,0.837
			c-0.381,0.353-0.668,1.014-0.864,1.989c-0.062,0.268-0.181,0.556-0.354,0.865c-0.44,0.291-0.795,0.434-1.063,0.434
			c-0.225,0-0.432-0.064-0.615-0.197c-0.104-0.07-0.153-0.155-0.153-0.247c0-0.27,0.284-0.872,0.854-1.814
			c0.571-0.939,1.289-1.646,2.157-2.112c0.868-0.47,1.626-0.705,2.274-0.705c0.881,0,1.54,0.085,1.972,0.244
			c0.43,0.158,0.811,0.439,1.139,0.84c0.328,0.405,0.529,0.844,0.603,1.319c0.042,0.229,0.062,1.04,0.062,2.433l-0.046,2.462
			l0.016,1.798c0,0.235-0.007,0.438-0.016,0.605c-0.011,0.3-0.016,0.521-0.016,0.664c0,0.341,0.097,0.613,0.293,0.818
			c0.193,0.209,0.425,0.31,0.691,0.31c0.391,0,0.724-0.193,1-0.591l0.186-0.249C203.013,337.065,203.125,337.03,203.299,336.985z
			 M198.818,336.519c0.073-1.309,0.108-2.232,0.108-2.771c0-0.278-0.016-0.658-0.046-1.134c-0.694,0.253-1.428,0.626-2.206,1.134
			c-0.776,0.506-1.391,1.087-1.847,1.748c-0.331,0.478-0.496,0.926-0.496,1.35c0,0.404,0.137,0.739,0.412,1.011
			c0.272,0.268,0.616,0.398,1.03,0.398c0.322,0,0.709-0.107,1.163-0.338C197.54,337.617,198.166,337.15,198.818,336.519z"/>
		<path d="M204.214,338.569c0.258-0.07,0.555-0.132,0.896-0.187c0.648-0.094,1.038-0.198,1.166-0.321
			c0.131-0.124,0.194-0.406,0.194-0.851l0.031-0.556c0.009-0.202,0.016-0.467,0.016-0.784l-0.031-4.731
			c0-0.642-0.082-1.05-0.244-1.234c-0.278-0.288-0.789-0.49-1.534-0.605v-0.546c0.743-0.206,1.313-0.477,1.71-0.806
			c0.577-0.464,1.065-1.093,1.463-1.892l0.529,0.018c0.03,0.484,0.046,0.834,0.046,1.04v1.028l0.016,0.281
			c0.123-0.085,0.27-0.19,0.435-0.313c0.618-0.461,1.253-0.847,1.905-1.137c0.65-0.294,1.229-0.503,1.734-0.617
			c0.319-0.079,0.681-0.124,1.084-0.124c0.846,0,1.575,0.229,2.184,0.685c0.61,0.453,1.005,0.987,1.187,1.604
			c0.181,0.61,0.271,1.833,0.271,3.661v2.341c0,0.063-0.007,0.265-0.023,0.617c-0.014,0.353-0.022,0.752-0.022,1.208
			c0,0.723,0.031,1.181,0.093,1.378c0.051,0.132,0.186,0.27,0.401,0.401c0.987,0.136,1.563,0.294,1.729,0.479v0.12
			c0,0.101-0.031,0.224-0.094,0.374h-0.295l-2.054-0.036l-2.023,0.054c-0.749,0.019-1.438,0.016-2.07-0.018l-0.093-0.355
			c0-0.071,0.035-0.165,0.108-0.278c0.277-0.124,0.667-0.203,1.172-0.247c0.297-0.019,0.504-0.048,0.617-0.092
			c0.112-0.041,0.251-0.121,0.417-0.243c0.124-0.247,0.185-0.452,0.185-0.617c0-0.07-0.011-0.214-0.03-0.433
			c-0.031-0.47-0.054-1.647-0.063-3.524v-0.796l0.031-1.234c0-1.322-0.267-2.235-0.8-2.741c-0.533-0.502-1.245-0.755-2.139-0.755
			c-0.688,0-1.358,0.155-2.016,0.458c-0.657,0.306-1.291,0.758-1.906,1.366c-0.02,0.494-0.03,0.914-0.03,1.267l0.046,3.402
			c0,1.774,0.025,2.864,0.077,3.264c0.02,0.164,0.058,0.279,0.107,0.342c0.084,0.078,0.249,0.144,0.498,0.196
			c0.249,0.054,0.536,0.123,0.862,0.217c0.326,0.092,0.542,0.15,0.646,0.168c0.207,0.054,0.347,0.158,0.418,0.317l-0.015,0.316
			h-1.62l-3.334-0.032c-0.771,0-1.26-0.003-1.465-0.003h-0.385l-0.031-0.193C204.167,338.799,204.183,338.701,204.214,338.569z"/>
		<path d="M224.094,323.8l0.462,0.02l0.063,1.472l-0.031,1.909c0.199,0.009,0.322,0.012,0.375,0.012
			c0.271,0,0.789-0.018,1.549-0.062c0.491-0.029,0.958-0.044,1.408-0.044c0.207,0,0.52,0.006,0.938,0.015
			c0.021,0.197,0.031,0.355,0.031,0.477c0,0.133-0.031,0.335-0.092,0.607h-0.268l-2.417,0.073l-1.2,0.032l-0.28,0.029
			c-0.084,0.262-0.125,0.562-0.125,0.898l0.046,2.324l-0.031,4.09c0,1.069,0.142,1.783,0.418,2.133
			c0.27,0.361,0.674,0.54,1.214,0.54c0.27,0,0.778-0.079,1.522-0.24c0.229-0.051,0.533-0.218,0.917-0.5h0.141
			c0.094,0,0.167,0.032,0.226,0.088c0.057,0.055,0.086,0.131,0.086,0.222l-0.017,0.104c-0.442,0.485-0.946,0.835-1.521,1.056
			c-0.568,0.221-1.329,0.329-2.274,0.329c-0.67,0-1.221-0.152-1.656-0.462c-0.438-0.309-0.72-0.676-0.843-1.099
			c-0.124-0.423-0.185-1.349-0.185-2.771l0.062-3.487l-0.015-1.669v-0.623c0-0.285-0.011-0.575-0.031-0.866l-0.262-0.015
			l-1.271,0.05l-0.124,0.012c-0.115,0-0.201-0.021-0.259-0.073c-0.055-0.05-0.084-0.111-0.084-0.186c0-0.12,0.038-0.221,0.115-0.297
			c0.077-0.073,0.31-0.196,0.698-0.361c0.265-0.107,0.575-0.319,0.928-0.635c0.354-0.312,0.65-0.66,0.896-1.04
			c0.124-0.205,0.298-0.593,0.521-1.166C223.889,324.273,224.012,323.977,224.094,323.8z"/>
		<path d="M248.074,327.898l0.016-0.443l-0.016-1.807l0.016-3.411c0-0.949-0.104-1.548-0.313-1.807
			c-0.207-0.257-0.816-0.519-1.826-0.784c-0.073-0.024-0.188-0.055-0.345-0.096v-0.167c0-0.098,0.012-0.205,0.031-0.325
			c1.391-0.146,2.589-0.392,3.592-0.74l0.782-0.019c0.042,0.696,0.063,1.479,0.063,2.336l-0.063,5.913l0.108,6.664l-0.046,3.55
			c0,0.726,0.051,1.137,0.153,1.228c0.205,0.203,0.657,0.314,1.354,0.323c0.144,0,0.338,0.009,0.584,0.028v0.288
			c0,0.07-0.006,0.15-0.016,0.238c-0.316,0.07-0.648,0.141-0.984,0.202l-2.232,0.444c-0.331,0.066-0.591,0.097-0.787,0.097v-1.445
			c-0.174,0.054-0.444,0.158-0.813,0.314c-1.596,0.682-3.063,1.024-4.402,1.024c-0.809,0-1.633-0.265-2.472-0.797
			c-0.837-0.527-1.481-1.266-1.934-2.212c-0.448-0.949-0.674-1.912-0.674-2.898c0-0.889,0.148-1.733,0.447-2.539
			c0.298-0.812,0.688-1.48,1.172-2.016c0.309-0.353,0.745-0.699,1.312-1.043c0.563-0.344,1.033-0.563,1.403-0.658
			c0.915-0.231,1.525-0.353,1.833-0.353c1.389,0,2.53,0.208,3.424,0.625C247.719,327.755,247.931,327.846,248.074,327.898z
			 M248.047,337.415c0.042-0.688,0.062-2.104,0.062-4.249c0-1.814-0.083-2.961-0.251-3.441c-0.17-0.478-0.588-0.927-1.26-1.353
			c-0.672-0.43-1.426-0.641-2.259-0.641c-1.17,0-2.164,0.458-2.978,1.372c-0.813,0.91-1.221,2.259-1.221,4.048
			c0,1.569,0.44,2.821,1.32,3.755c0.881,0.936,1.976,1.401,3.29,1.401c0.753,0,1.438-0.101,2.06-0.31
			C247.433,337.794,247.845,337.6,248.047,337.415z"/>
		<path d="M264.82,330.922l-6.167,0.076l-1.172-0.022c-0.474,0-0.952,0.018-1.441,0.053c-0.092,0.309-0.14,0.521-0.14,0.635
			l0.016,0.156v0.152l-0.016,0.755c0,0.626,0.197,1.393,0.595,2.301c0.394,0.91,0.958,1.604,1.691,2.08
			c0.732,0.479,1.649,0.73,2.747,0.761c0.584-0.029,1.052-0.1,1.398-0.212c0.351-0.114,0.843-0.373,1.479-0.784l1.109-0.908
			l0.091,0.617c0,0.07-0.003,0.147-0.015,0.229c-0.463,0.588-1.05,1.099-1.758,1.539s-1.429,0.762-2.158,0.97
			c-0.348,0.091-0.927,0.136-1.729,0.136c-0.729,0-1.447-0.149-2.156-0.443c-1.049-0.455-1.872-1.182-2.474-2.184
			c-0.603-1.005-0.902-2.221-0.902-3.648c0-0.452,0.084-1.033,0.254-1.745c0.17-0.708,0.476-1.463,0.916-2.266
			c0.299-0.547,0.663-0.989,1.097-1.343c0.613-0.493,1.154-0.837,1.617-1.031c0.668-0.278,1.442-0.42,2.324-0.42
			c0.955,0,1.736,0.176,2.343,0.528c0.821,0.465,1.437,1.063,1.842,1.796c0.405,0.731,0.607,1.401,0.607,2.009L264.82,330.922
			L264.82,330.922z M256.238,330.393h0.726c0.521,0,2.081-0.079,4.676-0.246c0.409-0.019,0.66-0.063,0.753-0.124
			c0.187-0.196,0.278-0.373,0.278-0.528c0-0.32-0.104-0.688-0.31-1.096c-0.206-0.405-0.521-0.724-0.945-0.949
			c-0.425-0.221-0.92-0.335-1.483-0.335c-1.189,0-2.145,0.455-2.862,1.354C256.515,329.15,256.238,329.794,256.238,330.393z"/>
		<path d="M266.568,347.11c-0.012-0.121-0.017-0.229-0.017-0.326c0-0.077,0.011-0.168,0.031-0.279l1.545-0.303
			c0.247-0.123,0.447-0.272,0.601-0.449c0.052-0.186,0.078-0.366,0.078-0.553c0-1.581-0.042-4.586-0.123-9.028l-0.047-5.629
			c-0.021-0.891-0.076-1.454-0.168-1.691c-0.05-0.123-0.128-0.222-0.231-0.291c-0.253-0.193-0.765-0.355-1.527-0.493l0.091-0.478
			c1.097-0.467,1.831-0.83,2.201-1.093c0.37-0.265,0.723-0.626,1.058-1.096l0.211-0.05c0.081,0,0.197,0.032,0.354,0.094
			c-0.016,0.644-0.019,1.061-0.019,1.27l0.019,1.679c0.759-0.573,1.546-0.999,2.364-1.278c0.82-0.282,1.673-0.423,2.555-0.423
			c1.577,0,2.908,0.561,3.994,1.681c1.085,1.113,1.629,2.557,1.629,4.313c0,1.311-0.31,2.484-0.923,3.524
			c-0.614,1.04-1.464,1.815-2.54,2.333c-1.079,0.515-2.166,0.771-3.262,0.771c-0.93,0-1.993-0.247-3.189-0.743
			c-0.195-0.079-0.372-0.149-0.527-0.212c-0.021,0.82-0.029,1.552-0.029,2.187c0,3.174,0.089,4.944,0.265,5.326
			c0.095,0.203,0.386,0.326,0.873,0.367c0.831,0.062,1.384,0.18,1.65,0.355c0.157,0.094,0.262,0.272,0.314,0.553l-1.525,0.028
			l-1.39-0.034h-2.312L266.568,347.11z M270.58,329.459c-0.021,0.146-0.031,0.282-0.031,0.405c0,3.69,0.035,5.755,0.109,6.202
			c0.142,0.813,0.432,1.387,0.862,1.719c0.67,0.528,1.625,0.787,2.87,0.787c1.287,0,2.374-0.443,3.259-1.34
			c0.885-0.894,1.328-2.054,1.328-3.481c0-1.713-0.468-3.069-1.408-4.071c-0.934-1.006-2.169-1.508-3.702-1.508
			c-0.647,0-1.244,0.105-1.79,0.317C271.532,328.701,271.031,329.027,270.58,329.459z"/>
		<path d="M282.776,326.974h1.156l0.51,0.031l0.399-0.031c1.058,0,1.718,0.015,1.975,0.031l0.018,0.294
			c0,1.442-0.021,2.839-0.063,4.192c-0.029,0.796-0.045,1.254-0.045,1.366c0,1.801,0.06,2.929,0.178,3.378
			c0.119,0.45,0.396,0.812,0.836,1.084c0.44,0.273,0.971,0.406,1.59,0.406c0.755,0,1.473-0.153,2.159-0.469
			c0.688-0.312,1.274-0.689,1.762-1.146c0.052-0.388,0.078-0.813,0.078-1.287c0-1.523,0.015-2.556,0.045-3.085
			c0.011-0.317,0.017-0.593,0.017-0.828c0-1.66-0.082-2.595-0.247-2.812c-0.164-0.215-0.79-0.379-1.877-0.488
			c-0.36-0.044-0.623-0.079-0.784-0.111c-0.086-0.132-0.124-0.237-0.124-0.309l0.046-0.17c0.267-0.032,0.527-0.05,0.783-0.05
			l2.441,0.031c0.869-0.018,1.33-0.031,1.384-0.031c0.111,0,0.22,0.009,0.32,0.018l0.031,1.125
			c-0.073,1.563-0.114,3.499-0.124,5.803l-0.031,1.248l0.062,2.099c0.095,0.168,0.175,0.265,0.247,0.294
			c0.123,0.053,0.376,0.076,0.755,0.076h0.14c0.135,0,0.514,0.028,1.14,0.092c0.009,0.132,0.015,0.229,0.015,0.29v0.168
			c-1.37,0.297-2.48,0.591-3.329,0.887c-0.341,0.109-0.625,0.194-0.859,0.241c-0.053-0.361-0.076-0.585-0.076-0.67v-1.261
			c0-0.054-0.006-0.193-0.015-0.424c-0.137,0.096-0.29,0.209-0.467,0.345c-0.814,0.632-1.677,1.163-2.584,1.596
			c-0.607,0.3-1.196,0.449-1.763,0.449c-1.084,0-1.966-0.396-2.649-1.198c-0.688-0.803-1.034-2.162-1.034-4.093
			c0-0.104,0.003-0.288,0.015-0.557c0.041-0.489,0.063-0.834,0.063-1.03c0-0.07-0.007-0.297-0.016-0.677
			c-0.012-0.167-0.016-0.308-0.016-0.432c0-0.091,0.004-0.3,0.016-0.626c0.009-0.319,0.016-0.549,0.016-0.682
			c0-0.174-0.007-0.325-0.016-0.465l-0.032-0.813l0.018-0.432c0-0.165-0.081-0.314-0.247-0.447c-0.65-0.17-1.075-0.273-1.276-0.3
			c-0.2-0.026-0.379-0.07-0.532-0.133v-0.49H282.776z"/>
		<path d="M298.67,328.066l0.016-0.441c0.676-0.192,1.04-0.302,1.093-0.334c0.373-0.162,0.769-0.415,1.176-0.753
			c0.412-0.335,0.759-0.714,1.04-1.134c0.123-0.021,0.224-0.029,0.297-0.029l0.188,0.013c0.042,0.492,0.063,0.854,0.063,1.08
			c0,0.054-0.012,0.285-0.031,0.696v0.814l0.015,4.44l-0.045,4.707c-0.011,0.379,0.051,0.645,0.188,0.793
			c0.132,0.15,0.533,0.317,1.196,0.503c0.414,0.114,0.725,0.211,0.934,0.29c0.028,0.077,0.045,0.14,0.045,0.191
			c0,0.062-0.026,0.141-0.077,0.232c-0.407-0.01-0.927-0.035-1.563-0.071c-0.863-0.07-1.436-0.105-1.718-0.105
			c-0.135,0-0.967,0.026-2.497,0.07c-0.312,0.015-0.614,0.035-0.904,0.071c-0.054,0-0.136-0.02-0.249-0.048
			c-0.053-0.079-0.078-0.149-0.078-0.208c0-0.159,0.099-0.285,0.292-0.38c0.043-0.018,0.569-0.136,1.581-0.353
			c0.329-0.063,0.546-0.162,0.648-0.309c0.175-0.213,0.264-0.557,0.264-1.025c0.02-0.79,0.03-2.95,0.03-6.484
			c0-0.708-0.03-1.147-0.093-1.321c-0.052-0.123-0.187-0.265-0.405-0.424C299.851,328.393,299.384,328.233,298.67,328.066z
			 M299.974,320.104c0-0.335,0.131-0.626,0.39-0.873c0.263-0.243,0.573-0.367,0.94-0.367c0.376,0,0.706,0.142,0.993,0.414
			c0.283,0.273,0.427,0.57,0.427,0.888c0,0.313-0.144,0.611-0.427,0.892c-0.287,0.28-0.617,0.417-0.993,0.417
			c-0.378,0-0.693-0.124-0.949-0.379C300.102,320.839,299.974,320.51,299.974,320.104z"/>
		<path d="M307.209,335.188c0.379,0.976,0.663,1.604,0.859,1.896c0.392,0.581,0.855,1.037,1.398,1.357
			c0.544,0.326,1.134,0.483,1.769,0.483c0.584,0,1.164-0.25,1.738-0.752c0.41-0.385,0.615-0.825,0.615-1.331
			c0-0.667-0.241-1.286-0.722-1.851c-0.479-0.556-1.395-1.09-2.74-1.602c-1.349-0.506-2.249-1.053-2.718-1.632
			c-0.464-0.574-0.695-1.232-0.695-1.977c0-0.702,0.188-1.319,0.566-1.852c0.382-0.537,0.905-0.942,1.574-1.217
			c0.664-0.272,1.281-0.411,1.846-0.411c0.729,0,1.385,0.06,1.965,0.174c0.581,0.114,1.082,0.284,1.503,0.522
			c0.082,0.528,0.146,1.304,0.198,2.332l0.032,0.497c-0.138,0.015-0.252,0.019-0.344,0.019h-0.22
			c-0.31-0.858-0.775-1.543-1.404-2.046c-0.631-0.505-1.249-0.758-1.864-0.758s-1.109,0.19-1.488,0.569
			c-0.379,0.374-0.565,0.867-0.565,1.476c0,0.464,0.151,0.878,0.459,1.239s1.023,0.768,2.155,1.22
			c1.131,0.455,1.951,0.882,2.468,1.277c0.516,0.397,0.896,0.882,1.142,1.452c0.245,0.565,0.368,1.11,0.368,1.63
			c0,0.714-0.234,1.378-0.702,2.001c-0.467,0.617-1.052,1.058-1.754,1.308c-0.705,0.257-1.332,0.38-1.886,0.38
			c-1.305,0-2.505-0.241-3.603-0.731c-0.104-0.079-0.161-0.232-0.171-0.459c0-0.091-0.01-0.24-0.028-0.449
			c-0.166-1.384-0.247-2.203-0.247-2.459c0-0.123,0.025-0.202,0.08-0.247C306.848,335.211,306.985,335.188,307.209,335.188z"/>
		<path d="M335.565,339.065h-7.019c-0.013-0.091-0.017-0.17-0.017-0.231c0-0.177,0.035-0.3,0.106-0.37
			c0.07-0.067,0.299-0.139,0.678-0.209c0.595-0.123,1.076-0.272,1.447-0.448c0.104-0.225,0.154-0.436,0.154-0.636v-0.955
			c0-0.113,0.016-0.635,0.047-1.56c0.01-0.35,0.019-1.866,0.029-4.545l0.031-3.626l-0.031-2.121c0-0.309,0.013-1.281,0.031-2.917
			c-2.343,1.666-3.627,2.494-3.854,2.494c-0.085,0-0.174-0.044-0.266-0.126c-0.094-0.089-0.139-0.174-0.139-0.256
			c0-0.104,0.035-0.187,0.105-0.247c0.146-0.132,0.491-0.354,1.034-0.661c0.083-0.044,0.438-0.323,1.063-0.834
			c0.999-0.832,1.728-1.483,2.191-1.957c0.461-0.477,0.746-0.74,0.85-0.802c0.202-0.01,0.359-0.019,0.473-0.019
			c0.262,0,0.427,0.044,0.494,0.132c0.063,0.088,0.099,0.405,0.099,0.952l-0.106,13.769v1.355c0,0.332-0.007,0.661-0.018,0.996
			c-0.01,0.335-0.016,0.582-0.016,0.737c0,0.37,0.047,0.61,0.14,0.727c0.063,0.07,0.251,0.164,0.568,0.278l1.044,0.215
			c0.45,0.111,0.696,0.19,0.736,0.229c0.103,0.095,0.153,0.237,0.153,0.438L335.565,339.065z"/>
		<path d="M345.173,329.218c-0.999-0.536-1.682-0.961-2.042-1.283c-0.515-0.44-0.943-1.009-1.287-1.71
			c-0.344-0.696-0.517-1.41-0.517-2.143c0-1.271,0.508-2.424,1.523-3.455c1.014-1.033,2.258-1.551,3.731-1.551
			c1.656,0,2.971,0.438,3.938,1.312c0.969,0.875,1.453,1.938,1.453,3.189c0,0.699-0.144,1.334-0.435,1.912
			c-0.287,0.573-0.717,1.093-1.282,1.555c-0.381,0.317-1.034,0.714-1.963,1.188c1.413,0.749,2.252,1.233,2.518,1.445
			c0.556,0.433,1.022,1.005,1.401,1.713c0.382,0.705,0.57,1.496,0.57,2.354c0,1.613-0.557,2.978-1.674,4.087
			c-1.118,1.11-2.539,1.66-4.268,1.66c-1.78,0-3.198-0.485-4.251-1.455c-1.056-0.969-1.582-2.168-1.582-3.596
			c0-0.812,0.139-1.551,0.415-2.212c0.278-0.661,0.711-1.229,1.296-1.701C343.172,330.164,343.99,329.729,345.173,329.218z
			 M345.931,329.553c-0.743,0.391-1.263,0.733-1.563,1.033c-0.454,0.433-0.81,0.949-1.066,1.542c-0.256,0.601-0.388,1.42-0.388,2.47
			c0,1.102,0.242,1.965,0.729,2.597c0.805,1.034,1.854,1.554,3.152,1.554c1.187,0,2.156-0.373,2.916-1.122
			c0.758-0.755,1.137-1.719,1.137-2.904c0-1.287-0.384-2.305-1.153-3.054C348.928,330.913,347.673,330.214,345.931,329.553z
			 M347.6,327.872c0.868-0.47,1.472-0.961,1.813-1.463c0.557-0.837,0.836-1.783,0.836-2.841c0-0.826-0.166-1.534-0.492-2.124
			c-0.328-0.591-0.769-1.021-1.315-1.275c-0.552-0.256-1.144-0.388-1.78-0.388c-1.02,0-1.854,0.353-2.512,1.055
			c-0.658,0.699-0.985,1.561-0.985,2.576c0,0.601,0.087,1.101,0.258,1.496c0.173,0.396,0.445,0.761,0.817,1.102
			c0.242,0.229,0.818,0.636,1.727,1.22c0.133,0.08,0.459,0.209,0.973,0.385C347.092,327.667,347.312,327.749,347.6,327.872z"/>
		<path d="M365.709,321.268c-1.144,0.091-2.068,0.136-2.771,0.136c-0.521,0-1.075-0.012-1.657-0.045
			c-0.316-0.021-0.505-0.029-0.565-0.029c-1.247,0-1.916,0.026-2.008,0.074c-0.04,0.023-0.066,0.07-0.077,0.141
			c-0.03,0.167-0.167,2.007-0.406,5.519c0.459-0.238,0.904-0.405,1.333-0.503c0.433-0.098,1.002-0.149,1.707-0.149
			c0.503,0,0.85,0.032,1.046,0.094c0.973,0.32,1.675,0.608,2.104,0.867c0.598,0.37,1.078,0.79,1.453,1.267
			c0.372,0.471,0.723,1.167,1.039,2.083c0.224,0.657,0.336,1.349,0.336,2.067c0,0.785-0.109,1.511-0.333,2.188
			c-0.221,0.673-0.495,1.235-0.822,1.691c-0.332,0.449-0.818,0.919-1.467,1.41c-0.646,0.487-1.413,0.863-2.289,1.119
			c-0.881,0.259-1.47,0.391-1.769,0.399l-2.235-0.197c-0.616-0.104-1.157-0.271-1.619-0.499c-0.464-0.229-0.771-0.452-0.925-0.664
			c-0.095-0.138-0.14-0.309-0.14-0.525c0-0.162,0.115-0.338,0.345-0.538c0.235-0.193,0.52-0.291,0.858-0.291
			c0.154,0,0.322,0.051,0.508,0.143l1.22,0.774c0.277,0.246,0.622,0.477,1.034,0.688c0.063,0.032,0.214,0.067,0.461,0.111
			c0.598,0.079,0.922,0.116,0.977,0.116c0.223,0,0.608-0.091,1.153-0.274c0.547-0.187,1.05-0.5,1.514-0.949
			c0.463-0.443,0.86-1.014,1.195-1.695c0.333-0.685,0.501-1.441,0.501-2.273c0-1.489-0.468-2.72-1.4-3.685
			c-0.936-0.967-2.06-1.45-3.372-1.45c-0.584,0-1.125,0.103-1.624,0.297c-0.497,0.192-0.832,0.407-1.008,0.646l-0.229,0.095
			c-0.123,0.054-0.211,0.073-0.263,0.073l-0.201-0.044c-0.029-0.186-0.046-0.326-0.046-0.417c0-0.086,0.011-0.238,0.034-0.456
			c0.066-0.502,0.103-1.021,0.106-1.563c0.004-0.538,0.055-1.028,0.151-1.46l0.018-0.735c0.051-0.379,0.076-0.746,0.082-1.099
			c0.032-2.365,0.132-3.723,0.304-4.074c0.069-0.165,0.192-0.247,0.369-0.247c0.07,0,0.188,0.012,0.354,0.029l0.091,0.018
			l1.954-0.018c0.881,0.053,1.53,0.079,1.95,0.079c0.961,0,1.736-0.064,2.321-0.202c0.285-0.269,0.507-0.406,0.657-0.406
			c0.063,0,0.177,0.015,0.342,0.032l0.046,0.186l-0.122,0.652l-0.073,1.034C365.835,320.874,365.79,321.029,365.709,321.268z"/>
		<path d="M382.317,339.065c-1.546-0.091-3.614-0.142-6.208-0.142l-3.35,0.079l-1.498-0.047l-1.189,0.047
			c-0.124-0.009-0.303-0.034-0.539-0.079c0.182-0.423,0.412-0.813,0.694-1.166c0.858-1.049,2.115-2.396,3.77-4.052
			c2.308-2.313,3.825-4.134,4.558-5.456c0.731-1.321,1.098-2.563,1.098-3.728c0-1.094-0.37-2.004-1.112-2.744
			c-0.739-0.746-1.653-1.117-2.731-1.117c-0.649,0-1.278,0.156-1.885,0.459c-0.608,0.3-1.098,0.686-1.468,1.146
			c-0.234,0.3-0.552,0.896-0.939,1.789c-0.219,0.493-0.347,0.764-0.388,0.803c-0.063,0.07-0.134,0.104-0.219,0.104
			c-0.081,0-0.161-0.044-0.237-0.127c-0.079-0.088-0.115-0.198-0.115-0.331c0-0.462,0.232-1.201,0.703-2.216
			c0.467-1.014,1.153-1.813,2.063-2.386c0.91-0.572,1.968-0.863,3.172-0.863c1.57,0,2.885,0.512,3.939,1.533
			c1.053,1.028,1.58,2.248,1.58,3.664c0,1.122-0.36,2.259-1.077,3.414c-0.722,1.16-2.374,2.932-4.962,5.313
			c-0.855,0.781-1.462,1.357-1.823,1.729c-0.36,0.37-1.086,1.172-2.177,2.412c1.576,0.056,3.005,0.088,4.292,0.088
			c0.276,0,0.582-0.009,0.909-0.032c0.607-0.018,0.964-0.029,1.065-0.029l2.147,0.048c0.238,0,0.478-0.114,0.726-0.339
			c0.247-0.227,0.582-0.854,1.004-1.899l0.365-0.012c0.051,0,0.127,0.002,0.228,0.012c0.053,0.104,0.077,0.182,0.077,0.234
			l-0.03,0.123c-0.082,0.3-0.152,0.85-0.215,1.643C382.505,337.409,382.428,338.12,382.317,339.065z"/>
	</g>
</g>
</svg>
