<?xml version="1.0" encoding="utf-8"?>
<!-- Generator: Adobe Illustrator 16.0.0, SVG Export Plug-In . SVG Version: 6.00 Build 0)  -->
<!DOCTYPE svg PUBLIC "-//W3C//DTD SVG 1.1//EN" "http://www.w3.org/Graphics/SVG/1.1/DTD/svg11.dtd">
<svg version="1.1" id="Layer_1" xmlns="http://www.w3.org/2000/svg" xmlns:xlink="http://www.w3.org/1999/xlink" x="0px" y="0px"
	 width="500px" height="500px" viewBox="0 0 500 500" enable-background="new 0 0 500 500" xml:space="preserve">
<g>
	<path fill="#004C99" d="M212.695,256.404h14.814l4.483-12.237h-14.664L212.695,256.404L212.695,256.404z M220.63,284.993h33.199
		l5.694-15.469h-6.585l4.482-12.241h11.22l5.237-13.71h-11.366l5.091-13.261h4.177l-1.933,5.892h16.744l7.939-21.201H246.35
		l-5.674,15.31h6.568l-14.5,39.212h-6.585L220.63,284.993L220.63,284.993z M161.545,284.993c-10.932,0-11.675-5.893-8.376-15.469
		l16.603-44.373c1.642-4.562,7.917-10.149,14.815-10.149h17.494c9.263,0,12.999,6.182,9.426,15.31l-14.37,39.212
		c-3.286,8.675-5.989,15.469-17.04,15.469H161.545L161.545,284.993L161.545,284.993z M172.013,269.524h6.588l14.648-39.212h-6.589
		L172.013,269.524L172.013,269.524z M271.637,269.524l-5.838,15.469h27.233l5.674-15.469h-5.236l2.387-3.256h10.93l-0.894,3.256
		h-4.05l-5.523,15.469h27.523l5.984-15.469h-7.042l14.063-54.522h-33.95l-5.837,15.31h7.188l-26.489,39.212H271.637L271.637,269.524
		z M304.25,254.052l8.978-13.571l-3.45,13.571H304.25L304.25,254.052z M331.615,284.993l8.226-21.813h16.6l-2.389,6.345h7.042
		l4.487-12.241h-14.064c-5.69,0-14.668-3.23-10.786-13.71l7.798-21.652c1.638-3.542,6.123-6.919,10.153-6.919h34.117l-7.77,21.201
		h-15.877l1.813-5.892h-5.385l-4.487,11.789H376.8c7.169,0,12.112,5.317,9.724,11.952l-8.687,23.268
		c-2.699,7.673-10.178,7.673-15.701,7.673H331.615L331.615,284.993z M25,284.993h38.432c15.706,0,19.302-7.076,22.147-15.469
		l14.501-39.212c3.45-8.677-3.135-15.31-11.219-15.31H50.716l-5.528,15.31h7.773L38.75,269.524h-8.083L25,284.993L25,284.993z
		 M58.798,269.524l14.211-39.212h7.479l-14.668,39.212H58.798L58.798,269.524z M389.059,284.993l5.837-15.469h7.166l14.377-39.212
		H412.7l-2.241,5.892h-16.767l8.079-21.201h59.546l-7.646,21.201h-16.146l2.102-5.892h-4.343l-14.211,39.212h7.169l-5.818,15.469
		H389.059L389.059,284.993z M97.434,269.524c-3.287,8.838-1.955,15.469,6.127,15.469h24.245c8.059,0.145,13.003-3.11,17.2-15.469
		l20.338-54.522h-25.429l-5.691,15.31h6.585l-14.501,39.212h-9.721l20.334-54.522h-25.882l-5.675,15.31h6.565L97.434,269.524
		L97.434,269.524L97.434,269.524z"/>
	<g>
		<g>
			<path fill="#004C99" d="M475,221.926c0,3.69-2.969,6.619-6.738,6.619c-3.771,0-6.78-2.928-6.78-6.619
				c0-3.691,3.01-6.579,6.82-6.579C472.031,215.348,475,218.235,475,221.926z M463.167,221.926c0,2.928,2.206,5.254,5.135,5.254
				c2.848,0.04,5.015-2.327,5.015-5.214c0-2.929-2.167-5.295-5.095-5.295C465.373,216.671,463.167,219.038,463.167,221.926z
				 M467.219,225.336h-1.523v-6.579c0.602-0.081,1.443-0.201,2.526-0.201c1.242,0,1.806,0.201,2.246,0.521
				c0.4,0.281,0.682,0.763,0.682,1.404c0,0.803-0.601,1.324-1.364,1.564v0.081c0.643,0.201,0.964,0.722,1.163,1.604
				c0.201,1.003,0.362,1.364,0.483,1.605h-1.605c-0.2-0.241-0.321-0.802-0.521-1.605c-0.121-0.682-0.522-1.003-1.364-1.003h-0.722
				V225.336z M467.259,221.645h0.723c0.842,0,1.523-0.281,1.523-0.962c0-0.602-0.44-1.003-1.404-1.003
				c-0.401,0-0.682,0.04-0.842,0.081V221.645z"/>
		</g>
	</g>
</g>
</svg>
