<?xml version="1.0" encoding="utf-8"?>
<!-- Generator: Adobe Illustrator 16.0.0, SVG Export Plug-In . SVG Version: 6.00 Build 0)  -->
<!DOCTYPE svg PUBLIC "-//W3C//DTD SVG 1.1//EN" "http://www.w3.org/Graphics/SVG/1.1/DTD/svg11.dtd">
<svg version="1.1" id="Calque_1" xmlns="http://www.w3.org/2000/svg" xmlns:xlink="http://www.w3.org/1999/xlink" x="0px" y="0px"
	 width="500px" height="500px" viewBox="0 0 500 500" enable-background="new 0 0 500 500" xml:space="preserve">
<g>
	<path fill="#1579BA" d="M76.916,269.211L84.65,243.7H55.954v-7.71h31.051l7.369-24.461h-38.42v-7.409h40.565l7.82-25.902H25v90.993
		H76.916z M331.354,235.416l-16.757-57.197h-42.893v90.993h26.793v-57.035h0.188l16.604,57.035h43.261v-90.993h-27.028v57.197
		H331.354z M244.792,245.909c9.74,0,17.552-8.085,17.552-18.295c0-10.151-7.327-19.343-17.2-19.343
		c-9.911,0-17.709,9.192-17.709,19.343C227.436,237.824,234.759,245.909,244.792,245.909 M230.477,178.218h-82.532v25.902h26.038
		v65.091h41.908c-2.592-1.596-20.373-15.703-20.373-42.049C195.518,205.262,208.802,183.838,230.477,178.218 M118.262,245.09
		l-7.36,24.121h43.004l-6.925-24.121H118.262z M132.961,195.654l8.076,29.071h-16.735L132.961,195.654z"/>
	<path d="M103.232,301.434h4.139c2.329,0,4.062-1.111,4.896-5.043c0.909-4.273-0.858-4.623-2.88-4.623h-4.1L103.232,301.434z
		 M103.458,289.891h6.889c2.085,0,5.467,0.271,4.233,6.082c-1.069,5.045-3.194,7.342-7.506,7.342h-4.239l-2.486,11.688h-2.226
		L103.458,289.891z"/>
	<path d="M123.138,311.346c0.533-0.869,1.274-4.033,1.512-5.146c1.101-5.178,1.058-7.443-2.385-7.443
		c-3.441,0-4.442,2.266-5.543,7.443c-0.238,1.113-0.843,4.277-0.679,5.146c0.084,0.42,0.165,2.332,3.054,2.332
		C121.981,313.678,122.876,311.766,123.138,311.346 M114.226,308.11l0.887-4.172c0.471-2.223,1.491-6.848,7.509-6.848
		s5.069,4.625,4.595,6.848l-0.887,4.172c-0.97,4.561-3.104,7.238-7.592,7.238C114.255,315.348,113.257,312.67,114.226,308.11"/>
	<polygon points="130.412,297.436 132.638,297.436 133.301,312.809 133.369,312.809 140.358,297.436 142.935,297.436 
		143.561,312.809 143.629,312.809 150.827,297.436 152.917,297.436 144.348,315.002 141.738,315.002 141.073,299.975 141,299.975 
		134.123,315.002 131.513,315.002 	"/>
	<path d="M163.207,304.981c0.828-3.893,0.695-6.225-2.646-6.225c-3.336,0-4.457,2.332-5.286,6.225H163.207z M154.92,306.651
		l-0.289,1.361c-0.517,2.43-0.546,5.664,2.762,5.664c2.605,0,4.249-1.666,4.717-4.033h2.191c-1.144,4.244-3.75,5.705-7.266,5.705
		c-3.024,0-5.79-1.215-4.658-6.543l0.912-4.307c1.082-5.08,3.701-7.412,7.63-7.412c6.049,0,5.126,4.352,4.015,9.564H154.92z"/>
	<path d="M172.482,299.799h0.071c1.222-1.666,3.287-2.713,5.41-2.713l-0.452,2.123c-2.905-0.244-5.228,1.529-5.857,4.484
		l-2.402,11.305h-2.086l3.733-17.563h2.086L172.482,299.799z"/>
	<path d="M181.063,292.534l0.562-2.643h2.573l-0.562,2.643H181.063z M176.531,314.999l3.733-17.563h2.086l-3.733,17.563H176.531z"/>
	<path d="M185.461,314.999h-2.086l3.733-17.563h2.089l-0.461,2.158h0.071c1.32-1.461,2.896-2.508,4.774-2.508
		c4.35,0,4.112,3.236,3.625,5.531l-2.632,12.381h-2.089l2.613-12.273c0.435-2.057,0.043-3.973-2.394-3.973
		c-1.878,0-4.065,1.291-4.897,5.223L185.461,314.999z"/>
	<path d="M202.775,305.813c-0.776,3.654-1.553,7.307,2.235,7.307c1.742,0,3.1-1.145,3.587-1.979
		c0.813-1.355,1.122-2.158,2.216-7.305c0.784-3.688-0.902-5.084-2.853-5.084C204.344,298.752,203.332,303.208,202.775,305.813
		 M212.318,297.397h2.054c-0.423,1.676-0.644,2.543-0.839,3.449l-3.141,14.777c-0.819,3.861-2.489,6.158-7.496,6.158
		c-4.384,0-4.595-3.096-4.078-4.869h2.086c-0.57,2.014,0.676,3.197,2.624,3.197c4.069,0,4.29-2.189,5.404-7.439h-0.068
		c-1.222,1.49-3.021,2.121-4.691,2.121c-5.046,0-4.468-4.346-3.639-8.242c0.864-4.068,0.907-4.104,1.791-5.984
		c0.332-0.73,2.131-3.479,5.68-3.479c1.774,0,3.355,0.904,3.787,2.469l0.052,0.07L212.318,297.397z"/>
	<path d="M231.992,301.053c3.197,0,4.672-2.193,5.28-5.043c0.887-4.176-1.395-4.242-3.168-4.242h-4.416l-1.975,9.285H231.992z
		 M225.149,313.12h3.547c3.686,0,5.726-1.252,6.51-4.938c0.474-2.223,0.454-5.254-3.37-5.254h-4.52L225.149,313.12z
		 M222.524,314.999l5.338-25.107h6.989c3.931,0,5.608,1.598,4.669,6.016c-0.643,3.023-1.572,5.111-4.921,5.98l-0.017,0.07
		c3.155,0.697,3.562,2.887,2.889,6.055c-0.961,4.518-3.643,6.986-7.85,6.986H222.524z"/>
	<path d="M254.43,297.436l-3.736,17.566h-1.807l0.417-1.955h-0.068c-1.537,1.504-2.96,2.297-4.907,2.297
		c-3.616,0-4.065-2.641-3.46-5.492l2.642-12.416h2.083l-2.561,12.066c-0.104,0.486-0.995,4.176,2.034,4.176
		c2.817,0,4.383-2.643,4.646-3.861l2.632-12.381H254.43z"/>
	<path d="M259.418,315.344c-3.789,0-4.893-1.84-4.068-5.563h2.123c-0.511,2.402-0.292,4.004,2.383,4.004
		c2.019,0,3.236-1.154,3.649-3.1c0.978-4.592-7.171-3.408-5.937-9.215c0.688-3.236,3.156-4.385,6.216-4.385
		c3.483,0,4.083,2.402,3.516,5.078h-2.05c0.365-2.225,0.025-3.408-2.339-3.408c-1.494,0-2.884,0.977-3.221,2.537
		c-0.927,4.387,7.219,3.203,5.966,9.078C264.958,313.678,262.686,315.344,259.418,315.344"/>
	<path d="M273.031,292.534l0.559-2.643h2.576l-0.564,2.643H273.031z M268.497,314.999l3.734-17.563h2.085l-3.735,17.563H268.497z"/>
	<path d="M277.466,314.999h-2.085l3.732-17.563h2.088l-0.457,2.158h0.066c1.32-1.461,2.9-2.508,4.778-2.508
		c4.348,0,4.112,3.236,3.624,5.531l-2.631,12.381h-2.091l2.614-12.273c0.435-2.057,0.038-3.973-2.396-3.973
		c-1.875,0-4.064,1.291-4.899,5.223L277.466,314.999z"/>
	<path d="M302.908,304.981c0.828-3.893,0.698-6.225-2.646-6.225c-3.338,0-4.454,2.332-5.286,6.225H302.908z M294.62,306.651
		l-0.285,1.361c-0.521,2.43-0.546,5.664,2.761,5.664c2.604,0,4.252-1.666,4.715-4.033h2.192c-1.146,4.244-3.75,5.705-7.263,5.705
		c-3.027,0-5.794-1.215-4.661-6.543l0.91-4.307c1.086-5.08,3.703-7.412,7.632-7.412c6.051,0,5.127,4.352,4.014,9.564H294.62z"/>
	<path d="M311.101,315.344c-3.789,0-4.894-1.84-4.068-5.563h2.12c-0.508,2.402-0.292,4.004,2.386,4.004
		c2.019,0,3.233-1.154,3.649-3.1c0.977-4.592-7.172-3.408-5.938-9.215c0.689-3.236,3.157-4.385,6.22-4.385
		c3.478,0,4.084,2.402,3.513,5.078h-2.054c0.372-2.225,0.029-3.408-2.338-3.408c-1.491,0-2.881,0.977-3.218,2.537
		c-0.93,4.387,7.216,3.203,5.966,9.078C316.641,313.678,314.373,315.344,311.101,315.344"/>
	<path d="M324.389,315.344c-3.795,0-4.898-1.84-4.074-5.563h2.123c-0.511,2.402-0.292,4.004,2.383,4.004
		c2.019,0,3.236-1.154,3.649-3.1c0.978-4.592-7.171-3.408-5.934-9.215c0.686-3.236,3.157-4.385,6.219-4.385
		c3.475,0,4.081,2.402,3.51,5.078h-2.05c0.368-2.225,0.025-3.408-2.339-3.408c-1.494,0-2.884,0.977-3.214,2.537
		c-0.934,4.387,7.209,3.203,5.965,9.078C329.923,313.678,327.658,315.344,324.389,315.344"/>
	<polygon points="355.124,289.891 358.116,289.891 358.481,311.905 358.547,311.905 368.583,289.891 370.773,289.891 
		359.213,315.002 356.292,315.002 355.993,292.672 355.926,292.672 345.998,315.002 343.215,315.002 342.501,289.891 
		344.865,289.891 345.227,312.079 345.293,312.079 	"/>
	<path d="M376.96,311.346c0.533-0.869,1.272-4.033,1.511-5.146c1.104-5.178,1.06-7.443-2.387-7.443
		c-3.439,0-4.442,2.266-5.543,7.443c-0.238,1.113-0.841,4.277-0.68,5.146c0.09,0.42,0.169,2.332,3.057,2.332
		C375.802,313.678,376.694,311.766,376.96,311.346 M368.044,308.11l0.895-4.172c0.47-2.223,1.485-6.848,7.501-6.848
		c6.02,0,5.07,4.625,4.595,6.848l-0.886,4.172c-0.968,4.561-3.103,7.238-7.586,7.238C368.076,315.348,367.08,312.67,368.044,308.11"
		/>
	<path d="M388.304,299.799h0.066c1.225-1.666,3.287-2.713,5.413-2.713l-0.45,2.123c-2.906-0.244-5.232,1.529-5.864,4.484
		l-2.398,11.305h-2.088l3.734-17.563h2.085L388.304,299.799z"/>
	<polygon points="392.528,314.999 397.865,289.891 399.953,289.891 394.615,314.999 	"/>
	<path d="M410.163,307.799l0.667-3.129c0.222-1.045,1.253-5.914-2.679-5.914c-3.75,0-4.477,3.408-5.35,7.514
		c-1.39,6.535-0.013,7.408,2.25,7.408C407.038,313.678,409.252,312.077,410.163,307.799 M409.211,312.778l-0.076,0.027
		c-1.435,1.674-2.945,2.543-4.994,2.543c-5.077,0-4.284-5.043-3.411-9.148c0.72-3.373,1.938-9.109,7.326-9.109
		c1.6,0,3.008,0.729,3.802,2.084l0.063,0.031l1.979-9.313h2.088l-4.601,21.625c-0.371,1.742-0.508,2.891-0.53,3.48h-2.018
		L409.211,312.778z"/>
	<polygon points="416.887,297.436 419.111,297.436 419.778,312.809 419.844,312.809 426.834,297.436 429.411,297.436 
		430.036,312.809 430.102,312.809 437.302,297.436 439.39,297.436 430.82,315.002 428.211,315.002 427.545,299.975 427.475,299.975 
		420.596,315.002 417.988,315.002 	"/>
	<path d="M442.794,292.534l0.559-2.643h2.576l-0.564,2.643H442.794z M438.26,314.999l3.734-17.563h2.085l-3.734,17.563H438.26z"/>
	<path d="M455.785,307.799l0.667-3.129c0.222-1.045,1.256-5.914-2.675-5.914c-3.754,0-4.478,3.408-5.354,7.514
		c-1.387,6.535-0.009,7.408,2.253,7.408C452.663,313.678,454.877,312.077,455.785,307.799 M454.833,312.778l-0.076,0.027
		c-1.435,1.674-2.938,2.543-4.991,2.543c-5.08,0-4.287-5.043-3.411-9.148c0.717-3.373,1.936-9.109,7.326-9.109
		c1.603,0,3.012,0.729,3.802,2.084l0.061,0.031l1.979-9.313h2.088l-4.598,21.625c-0.368,1.742-0.508,2.891-0.53,3.48h-2.018
		L454.833,312.778z"/>
	<path d="M472.457,304.981c0.831-3.893,0.698-6.225-2.641-6.225c-3.338,0-4.458,2.332-5.289,6.225H472.457z M464.174,306.651
		l-0.288,1.361c-0.518,2.43-0.546,5.664,2.757,5.664c2.611,0,4.252-1.666,4.722-4.033h2.189c-1.146,4.244-3.751,5.705-7.263,5.705
		c-3.024,0-5.795-1.215-4.662-6.543l0.914-4.307c1.079-5.08,3.7-7.412,7.628-7.412c6.048,0,5.128,4.352,4.018,9.564H464.174z"/>
</g>
</svg>
