<?xml version="1.0" encoding="utf-8"?>
<!-- Generator: Adobe Illustrator 16.0.0, SVG Export Plug-In . SVG Version: 6.00 Build 0)  -->
<!DOCTYPE svg PUBLIC "-//W3C//DTD SVG 1.1//EN" "http://www.w3.org/Graphics/SVG/1.1/DTD/svg11.dtd">
<svg version="1.1" id="Calque_2" xmlns="http://www.w3.org/2000/svg" xmlns:xlink="http://www.w3.org/1999/xlink" x="0px" y="0px"
	 width="500px" height="500px" viewBox="0 0 500 500" enable-background="new 0 0 500 500" xml:space="preserve">
<g>
	<path fill="#E2001A" d="M447.274,274.735c0,0,0-25.801,0-43.207s-20.588-19.604-20.588-19.604h-3.649h-7.544H91.783v81.986h331.254
		v-0.092C448.674,292.851,447.274,274.735,447.274,274.735z"/>
	<g>
		<path fill="#004A99" d="M463.007,206.09c1.655,0,3.213,0.312,4.676,0.929c1.466,0.614,2.773,1.509,3.922,2.672
			c1.105,1.118,1.945,2.392,2.528,3.83c0.58,1.438,0.867,2.957,0.867,4.569c0,1.628-0.299,3.17-0.9,4.621
			c-0.604,1.457-1.479,2.733-2.63,3.839c-1.143,1.124-2.449,1.991-3.912,2.587c-1.466,0.602-2.981,0.904-4.551,0.904
			c-1.598,0-3.128-0.312-4.588-0.935c-1.456-0.623-2.761-1.521-3.906-2.685c-1.117-1.124-1.97-2.407-2.553-3.839
			c-0.587-1.43-0.877-2.93-0.877-4.493c0-1.097,0.144-2.156,0.434-3.197c0.29-1.032,0.728-2.041,1.302-3.027
			c1.084-1.82,2.517-3.24,4.3-4.251C458.898,206.601,460.859,206.09,463.007,206.09z M463.04,208.1
			c-1.358,0-2.626,0.238-3.793,0.715c-1.167,0.479-2.218,1.182-3.152,2.113c-0.971,0.969-1.726,2.074-2.251,3.305
			c-0.521,1.234-0.784,2.511-0.784,3.824c0,1.328,0.25,2.583,0.739,3.777c0.494,1.188,1.206,2.248,2.141,3.18
			c0.949,0.975,2.037,1.717,3.259,2.239c1.225,0.516,2.492,0.778,3.809,0.778c1.289,0,2.538-0.254,3.757-0.751
			c1.215-0.508,2.317-1.229,3.316-2.172c0.935-0.895,1.652-1.939,2.169-3.143c0.513-1.194,0.772-2.435,0.772-3.717
			c0-1.421-0.238-2.728-0.718-3.931c-0.477-1.191-1.182-2.267-2.126-3.223c-0.968-0.989-2.053-1.737-3.256-2.241
			C465.716,208.351,464.421,208.1,463.04,208.1z M458.068,211.209h5.195c1.891,0,3.313,0.314,4.264,0.953
			c0.949,0.638,1.42,1.591,1.42,2.855c0,0.88-0.254,1.631-0.767,2.251c-0.517,0.623-1.228,1.047-2.138,1.273l2.975,5.935h-3.604
			l-2.538-5.439h-1.597v5.439h-3.21V211.209z M461.278,213.249v3.842h1.597c0.95,0,1.646-0.149,2.083-0.451
			c0.44-0.294,0.663-0.771,0.663-1.411c0-0.676-0.235-1.18-0.709-1.497c-0.473-0.32-1.206-0.482-2.195-0.482H461.278z"/>
	</g>
	<g>
		<polygon fill="#FFFFFF" points="310.838,234.072 310.838,223.456 293.115,223.456 293.115,239.601 		"/>
		<polygon fill="#FFFFFF" points="293.115,242.398 293.115,277.21 310.838,277.21 310.838,236.867 		"/>
	</g>
	<path fill="#FFFFFF" d="M348.628,236.421c-8.958,0-13.641,1.671-16.028,3.143v-2.696h-18.503v40.343H332.6v-22.164
		c1.786-2.307,4.639-4.743,8.793-4.743c4.132,0,6.196,2.184,7.235,4.26v22.647h19.415V250
		C368.043,250,364.656,236.421,348.628,236.421z"/>
	<path fill="#FFFFFF" d="M146.905,264.568c0,0-2.346,2.218-8.342,2.218c-5.995,0-8.991-2.605-8.991-5.082h38.067
		c0.482-1.616,0.767-3.29,0.767-5.019c0-11.933-12.189-21.697-27.091-21.697h-7.067c-14.901,0-27.09,9.765-27.09,21.697
		s12.188,21.697,27.09,21.697h7.067c11.429,0,21.239-5.755,25.2-13.814H146.905z M138.368,246.585c6.842,0,8.796,5.083,8.796,5.083
		h-17.592C129.572,251.668,131.527,246.585,138.368,246.585z"/>
	<path fill="#FFFFFF" d="M210.105,223.456v16.224c-4.103-2.395-9.071-3.812-14.419-3.812c-13.949,0-25.359,9.565-25.359,21.257
		s11.41,21.258,25.359,21.258c5.348,0,10.316-1.417,14.419-3.812v2.834h18.765v-53.949H210.105z M200.82,264.858
		c-5.452,0-9.871-3.5-9.871-7.818s4.419-7.818,9.871-7.818s9.871,3.5,9.871,7.818S206.272,264.858,200.82,264.858z"/>
	<path fill="#FFFFFF" d="M271.351,223.456v16.224c-4.102-2.395-9.071-3.812-14.419-3.812c-13.948,0-25.358,9.565-25.358,21.257
		s11.41,21.258,25.358,21.258c5.348,0,10.317-1.417,14.419-3.812v2.834h18.765v-53.949H271.351z M260.845,264.858
		c-5.452,0-9.871-3.5-9.871-7.818s4.419-7.818,9.871-7.818c5.451,0,9.871,3.5,9.871,7.818S266.296,264.858,260.845,264.858z"/>
	<path fill="#FFFFFF" d="M409.229,236.504v2.626c-4.028-2.22-8.909-3.533-14.162-3.533c-13.701,0-24.907,8.866-24.907,19.705
		c0,10.84,11.206,19.709,24.907,19.709c5.253,0,10.134-1.316,14.162-3.537v2.743c-1.548,2.01-5.125,4.166-13.426,4.166
		c-15.537,0-20.592-6.644-20.592-6.644l-4.169,9.383c0,0,0.522,6.646,28.67,6.646s27.948-15.246,27.948-15.246v-8.213v-2.864v-24.94
		H409.229z M401.077,263.136c-5.452,0-9.871-3.115-9.871-6.957s4.419-6.957,9.871-6.957s9.871,3.115,9.871,6.957
		S406.529,263.136,401.077,263.136z"/>
	<rect x="25" y="211.924" fill="#FFFFFF" width="57.923" height="81.986"/>
	<polygon fill="#004A99" points="82.923,229.384 25,247.107 25,211.924 82.923,211.924 	"/>
	<polygon fill="#E2001A" points="82.923,293.91 25,293.91 25,253.656 82.923,235.966 	"/>
	<polygon fill="#004A99" points="82.923,293.91 25,293.91 25,256.783 82.923,239.094 	"/>
	<polygon fill="#E2001A" points="82.923,226.257 25,243.98 25,211.924 82.923,211.924 	"/>
</g>
</svg>
