<?xml version="1.0" encoding="utf-8"?>
<!-- Generator: Adobe Illustrator 16.0.0, SVG Export Plug-In . SVG Version: 6.00 Build 0)  -->
<!DOCTYPE svg PUBLIC "-//W3C//DTD SVG 1.1//EN" "http://www.w3.org/Graphics/SVG/1.1/DTD/svg11.dtd">
<svg version="1.1" id="Calque_1" xmlns="http://www.w3.org/2000/svg" xmlns:xlink="http://www.w3.org/1999/xlink" x="0px" y="0px"
	 width="500px" height="500px" viewBox="0 0 500 500" enable-background="new 0 0 500 500" xml:space="preserve">
<g>
	<path fill="#003A80" d="M475,289.885c0,2.306-1.886,4.19-4.19,4.19H29.19c-2.305,0-4.19-1.885-4.19-4.19v-79.771
		c0-2.305,1.885-4.189,4.19-4.189h441.62c2.305,0,4.19,1.885,4.19,4.189V289.885z"/>
	<g>
		<path fill="#FFFFFF" d="M448.941,231.785c0-4.189,3.394-7.585,7.59-7.585c4.191,0,7.587,3.396,7.587,7.585
			s-3.396,7.585-7.587,7.585C452.334,239.37,448.941,235.974,448.941,231.785z"/>
		<g>
			<g>
				<path fill="#EE8027" d="M456.503,223.599c1.126,0,2.196,0.213,3.196,0.637c0.999,0.417,1.895,1.029,2.684,1.828
					c0.748,0.761,1.325,1.631,1.72,2.615c0.401,0.981,0.601,2.02,0.601,3.123c0,1.112-0.205,2.168-0.616,3.157
					c-0.416,0.998-1.011,1.869-1.801,2.624c-0.778,0.771-1.673,1.359-2.673,1.771c-1.002,0.41-2.037,0.616-3.111,0.616
					c-1.095,0-2.143-0.214-3.131-0.641c-0.995-0.425-1.889-1.037-2.676-1.831c-0.763-0.773-1.341-1.648-1.74-2.624
					c-0.406-0.979-0.606-2.003-0.606-3.073c0-0.748,0.1-1.475,0.3-2.182c0.201-0.712,0.5-1.4,0.89-2.071
					c0.742-1.244,1.722-2.216,2.942-2.907C453.693,223.948,455.035,223.599,456.503,223.599z M456.526,224.975
					c-0.927,0-1.79,0.159-2.59,0.486c-0.8,0.326-1.511,0.809-2.158,1.446c-0.663,0.66-1.18,1.42-1.538,2.258
					c-0.356,0.844-0.535,1.714-0.535,2.614c0,0.905,0.175,1.766,0.505,2.58c0.338,0.813,0.821,1.54,1.464,2.173
					c0.651,0.667,1.394,1.174,2.227,1.531c0.836,0.353,1.704,0.531,2.605,0.531c0.885,0,1.738-0.173,2.563-0.516
					c0.836-0.345,1.582-0.837,2.269-1.483c0.642-0.607,1.131-1.325,1.485-2.148c0.351-0.813,0.529-1.658,0.529-2.536
					c0-0.972-0.167-1.866-0.489-2.688c-0.326-0.816-0.812-1.548-1.452-2.2c-0.663-0.679-1.404-1.189-2.227-1.533
					C458.352,225.144,457.474,224.975,456.526,224.975z M453.124,227.1h3.553c1.301,0,2.264,0.215,2.916,0.646
					c0.648,0.439,0.97,1.087,0.97,1.956c0,0.601-0.175,1.113-0.526,1.541c-0.353,0.424-0.832,0.716-1.457,0.864l2.037,4.06h-2.469
					l-1.736-3.719h-1.09v3.719h-2.196L453.124,227.1L453.124,227.1z M455.322,228.494v2.624h1.09c0.65,0,1.13-0.103,1.426-0.308
					c0.305-0.202,0.458-0.526,0.458-0.966c0-0.46-0.162-0.806-0.485-1.023c-0.326-0.22-0.825-0.327-1.504-0.327H455.322
					L455.322,228.494z"/>
			</g>
		</g>
	</g>
	<g>
		<path fill="#EE8027" d="M94.461,279.078c-31.464,0-57.061-12.437-57.061-27.724s25.597-27.725,57.061-27.725
			c7.065,0,13.984,0.622,20.563,1.851l0.604,0.112v15.23l-1.074-0.546c-4.578-2.33-10.414-3.613-16.432-3.613
			c-10.159,0-19.219,3.574-23.136,9.008h40.642v12.75H76.14c4.415,4.67,12.815,7.622,21.981,7.622
			c6.018,0,11.854-1.283,16.432-3.612l1.074-0.547v15.056l-0.581,0.127C108.082,278.59,103.08,279.078,94.461,279.078z"/>
		<path fill="#FFFFFF" d="M94.461,224.369c7.208,0,14.092,0.655,20.427,1.838v13.411c-4.517-2.299-10.365-3.693-16.767-3.693
			c-11.385,0-21.031,4.393-24.488,10.486h41.255v11.271H74.546c4.053,5.361,13.074,9.101,23.575,9.101
			c6.402,0,12.25-1.395,16.767-3.692v12.82v0.435c-7.113,1.555-12.098,1.993-20.427,1.993c-31.104,0-56.321-12.083-56.321-26.984
			C38.14,236.451,63.357,224.369,94.461,224.369 M94.461,222.891c-15.26,0-29.63,2.857-40.464,8.048
			c-11.179,5.356-17.336,12.606-17.336,20.415c0,7.808,6.157,15.058,17.336,20.413c10.833,5.191,25.204,8.05,40.464,8.05
			c8.68,0,13.72-0.492,20.742-2.028l1.163-0.254v-1.189v-0.435v-12.82v-2.411l-2.148,1.093c-4.477,2.278-10.193,3.532-16.097,3.532
			c-8.12,0-15.606-2.344-20.121-6.144h36.888h1.478v-1.479v-11.271v-1.478h-1.478H76.535c4.177-4.584,12.411-7.53,21.585-7.53
			c5.903,0,11.62,1.255,16.097,3.532l2.148,1.093v-2.41v-13.411v-1.228l-1.207-0.226
			C108.536,223.517,101.573,222.891,94.461,222.891L94.461,222.891z"/>
	</g>
	<g>
		<path fill="#EE8027" d="M317.761,277.466v-29.326c0-3.059-2.489-5.547-5.547-5.547h-3.565c-3.058,0-5.546,2.488-5.546,5.547
			v29.326h-34.124v-29.326c0-3.059-2.488-5.547-5.546-5.547h-3.565c-3.058,0-5.547,2.488-5.547,5.547v29.326h-33.435v-31.873
			c0-11.571,19.132-20.985,42.647-20.985c8.074,0,15.926,1.107,22.729,3.205c6.802-2.098,14.653-3.205,22.728-3.205
			c23.516,0,42.647,9.414,42.647,20.985v31.873H317.761z"/>
		<path fill="#FFFFFF" d="M308.99,225.346c23.145,0,41.908,9.064,41.908,20.246v31.134H318.5v-28.587
			c0-3.457-2.828-6.285-6.286-6.285h-3.565c-3.457,0-6.285,2.828-6.285,6.285v28.587h-32.646v-28.587
			c0-3.457-2.828-6.285-6.285-6.285h-3.565c-3.458,0-6.286,2.828-6.286,6.285v28.587h-31.956v-31.134
			c0-11.182,18.764-20.246,41.908-20.246c8.381,0,16.18,1.193,22.729,3.239C292.81,226.54,300.61,225.346,308.99,225.346
			 M308.99,223.868c-8.06,0-15.907,1.096-22.728,3.171c-6.821-2.075-14.669-3.171-22.729-3.171
			c-24.329,0-43.387,9.543-43.387,21.725v31.134v1.479h1.479h31.956h1.479v-1.479v-28.587c0-2.65,2.157-4.808,4.808-4.808h3.565
			c2.65,0,4.807,2.157,4.807,4.808v28.587v1.479h1.479h32.646h1.479v-1.479v-28.587c0-2.65,2.156-4.808,4.807-4.808h3.565
			c2.65,0,4.808,2.157,4.808,4.808v28.587v1.479h1.479h32.397h1.479v-1.479v-31.134C352.376,233.411,333.319,223.868,308.99,223.868
			L308.99,223.868z"/>
	</g>
	<g>
		<path fill="#EE8027" d="M411.948,277.466v-28.783c0-3.358-2.731-6.09-6.089-6.09h-5.387c-3.357,0-6.089,2.731-6.089,6.09v3.149
			h13.55v9.114h-13.55v16.52h-33.805v-31.873c0-11.571,19.132-20.985,42.648-20.985c23.516,0,42.647,9.414,42.647,20.985v31.873
			H411.948z"/>
		<path fill="#FFFFFF" d="M403.227,225.346c23.145,0,41.908,9.064,41.908,20.246v31.134h-32.448v-11.411v-16.633
			c0-3.756-3.072-6.828-6.828-6.828h-5.387c-3.756,0-6.828,3.072-6.828,6.828v3.889h13.55v7.637h-13.55v16.519h-32.326v-31.134
			C361.318,234.411,380.081,225.346,403.227,225.346 M403.227,223.868c-24.329,0-43.387,9.543-43.387,21.725v31.134v1.479h1.478
			h32.326h1.479v-1.479v-15.041h12.071h1.479v-1.478v-7.637v-1.479h-1.479h-12.071v-2.41c0-2.95,2.4-5.351,5.35-5.351h5.387
			c2.95,0,5.35,2.4,5.35,5.351v16.633v11.411v1.479h1.479h32.448h1.479v-1.479v-31.134
			C446.614,233.411,427.555,223.868,403.227,223.868L403.227,223.868z"/>
	</g>
	<g>
		<path fill="#EE8027" d="M161.228,276.905v-14.658h3.464c8.297,0,18.823-4.641,18.823-9.856c0-5.214-10.526-9.854-18.823-9.854
			h-9.331v34.368h-31.603v-51.737h45.435c25.053,0,45.434,11.604,45.434,25.869c0,14.264-20.381,25.868-45.434,25.868H161.228z"/>
		<path fill="#FFFFFF" d="M169.193,225.907c24.684,0,44.695,11.251,44.695,25.13c0,13.878-20.011,25.129-44.695,25.129h-7.226
			v-13.18h2.725c8.182,0,19.562-4.559,19.562-10.596c0-6.035-11.38-10.593-19.562-10.593h-10.07v18.354v2.835v13.18h-30.125v-50.259
			h30.378H169.193 M169.193,224.428h-14.317h-30.378h-1.479v1.479v50.259v1.479h1.479h30.125h1.478v-1.479v-13.18v-2.835v-16.875
			h8.592c7.896,0,18.084,4.42,18.084,9.114c0,4.696-10.188,9.117-18.084,9.117h-2.725h-1.479v1.479v13.18v1.479h1.479h7.226
			c25.46,0,46.173-11.937,46.173-26.607C215.366,236.365,194.653,224.428,169.193,224.428L169.193,224.428z"/>
	</g>
</g>
</svg>
