<?xml version="1.0" encoding="utf-8"?>
<!-- Generator: Adobe Illustrator 16.0.0, SVG Export Plug-In . SVG Version: 6.00 Build 0)  -->
<!DOCTYPE svg PUBLIC "-//W3C//DTD SVG 1.1//EN" "http://www.w3.org/Graphics/SVG/1.1/DTD/svg11.dtd">
<svg version="1.1" id="Calque_2" xmlns="http://www.w3.org/2000/svg" xmlns:xlink="http://www.w3.org/1999/xlink" x="0px" y="0px"
	 width="500px" height="500px" viewBox="0 0 500 500" enable-background="new 0 0 500 500" xml:space="preserve">
<g>
	<g>
		<path fill="#E2001A" d="M194.224,170.962c0-2.059,0.294-4.048,0.8-5.951c-5.33,1.406-9.3,6.332-9.3,12.166v24.939l8.5-2.693
			V170.962z"/>
		<polygon fill="#E2001A" points="185.724,214.658 185.733,214.658 185.733,236.805 194.224,232.951 194.224,207.213 
			185.724,209.907 		"/>
		<path fill="#E2001A" d="M125.971,242.846l6.646-3.016c1.027-0.467,1.868-1.786,1.868-2.93v-11.12c0-4.679-5.039-3.966-6.056-3.477
			c-1.016,0.489-4.327,2.087-4.327,6.581v12.729C124.103,242.758,124.943,243.313,125.971,242.846z"/>
		<path fill="#8D8E90" d="M194.233,276.364v-33.303l-8.5,3.859v35.659c0,2.06-0.295,4.048-0.8,5.95
			C190.263,287.125,194.233,282.199,194.233,276.364z"/>
		<path fill="#8D8E90" d="M374.632,221.539c0,12.496-10.224,22.719-22.719,22.719h-1.983c-2.321,0-4.539-0.405-6.65-1.062
			c-4.026,6.415-11.145,10.716-19.236,10.716h-1.983c-3.54,0-6.868-0.875-9.884-2.284c-0.439-0.206-1.998-0.751-1.634-2.482
			c0.364-1.73,1.189-2.028,1.189-2.028h3.268c6.815,0,12.393-5.577,12.393-12.393v-31.877l-24.879,11.3
			c-0.143,0.073-0.283,0.153-0.427,0.221l-16.615,7.796c-6.171,2.895-17.585-1.633-17.585-8.449v-4.085l-54.282,24.638v38.509
			c0,12.686-10.224,23.065-22.719,23.065h-1.983c-2.321,0-4.539-0.412-6.65-1.078c-4.026,6.514-11.145,10.88-19.236,10.88h-1.984
			c-3.539,0-6.867-0.889-9.883-2.318c-0.44-0.209-1.998-0.763-1.634-2.521s1.189-2.061,1.189-2.061h3.268
			c6.815,0,12.393-5.66,12.393-12.58v-30.453l-27.873,12.65v-0.1l-13.805,6.59c-6.17,2.945-17.585-1.661-17.585-8.596v-4.005
			l-27.808,12.698v89.593h342.215V160.101l-46.876,21.291V221.539z"/>
		<path fill="#E2001A" d="M286.756,190.704l6.646-2.964c1.027-0.459,1.868-1.754,1.868-2.879v-10.93c0-4.6-5.039-3.899-6.056-3.418
			c-1.016,0.481-4.327,2.052-4.327,6.469v12.511C284.888,190.617,285.729,191.163,286.756,190.704z"/>
		<path fill="#E2001A" d="M79.293,25v239.836l27.808-12.698v-15.835c0-3.691,5.966-14.539,15.241-18.969
			c21.204-12.125,30.178-1.391,30.178,2.501v21.287l-22.845,10.775c-2.597,1.225-4.723,1.524-4.723,4.415
			c0,5.795,3.247,6.789,5.843,5.564l21.464-10.123c-0.016,0.09-0.04,0.181-0.057,0.271l14.151-6.424v-29.557l-8.645,2.738
			c-0.65,0.206-1.183-0.191-1.183-0.883v-5.273c0-0.692,0.532-1.427,1.183-1.634l8.645-2.738v-27.491
			c0-12.686,10.224-23.065,22.719-23.065h1.983c2.321,0,4.538,0.411,6.65,1.077c4.025-6.513,11.145-10.879,19.236-10.879h1.983
			c3.539,0,6.868,0.888,9.884,2.319c0.439,0.208,1.998,0.763,1.634,2.52s-1.19,2.06-1.19,2.06h-3.267
			c-6.815,0-12.393,5.661-12.393,12.581v25.91l17.554-5.563c0.65-0.206,1.183,0.191,1.183,0.884v5.273
			c0,0.692-0.532,1.427-1.183,1.634l-17.554,5.562v3.78h0.01v19.298l54.282-24.639v-15.244c0-3.627,5.966-14.291,15.241-18.645
			c21.204-11.918,30.177-1.366,30.177,2.46v20.923l-22.844,10.591c-2.597,1.204-4.723,1.499-4.723,4.34
			c0,5.696,3.247,6.673,5.843,5.47l21.464-9.951c-0.007,0.042-0.019,0.084-0.027,0.125l14.365-6.567v-27.361l-8.645,2.698
			c-0.65,0.203-1.183-0.189-1.183-0.871v-5.194c0-0.682,0.532-1.406,1.183-1.609l8.645-2.697v-27.078
			c0-12.496,10.224-22.719,22.719-22.719h1.983c2.321,0,4.538,0.405,6.65,1.062c4.025-6.416,11.145-10.716,19.236-10.716h1.983
			c3.539,0,6.868,0.875,9.884,2.284c0.439,0.206,1.998,0.751,1.634,2.481c-0.364,1.731-1.189,2.029-1.189,2.029h-3.268
			c-6.815,0-12.393,5.577-12.393,12.393v25.521l17.554-5.478c0.65-0.203,1.183,0.188,1.183,0.87v5.194
			c0,0.682-0.532,1.406-1.183,1.609l-17.554,5.479v3.723h0.01v16.779l46.876-21.431V25H79.293z"/>
		<polygon fill="#E2001A" points="346.752,164.291 346.762,164.291 346.762,184.158 355.252,180.276 355.252,156.958 
			346.752,159.611 		"/>
		<path fill="#8D8E90" d="M355.262,225.071v-34.881l-8.5,3.861v37.143c0,2.028-0.295,3.987-0.8,5.861
			C351.291,235.669,355.262,230.818,355.262,225.071z"/>
		<path fill="#E2001A" d="M355.252,121.251c0-2.028,0.295-3.987,0.8-5.861c-5.33,1.385-9.3,6.236-9.3,11.983v24.564l8.5-2.653
			V121.251z"/>
	</g>
	<g>
		<path d="M437.347,413.001h-2.914v-10.809c0-1.475-1.2-2.675-2.674-2.675H68.241c-3.081,0-5.588-2.507-5.588-5.588v-10.077h2.915
			v10.077c0,1.475,1.199,2.674,2.673,2.674h363.518c3.081,0,5.588,2.508,5.588,5.589V413.001z"/>
	</g>
	<g>
		<path d="M200.845,429.777l-11.934,29.301c-0.23-1.716-0.722-3.245-1.503-4.563c-1.108-1.87-2.713-3.396-4.813-4.578
			s-5.511-2.31-10.229-3.383c-4.461-0.99-7.313-1.899-8.553-2.727c-1.241-0.827-1.861-1.845-1.861-3.054
			c0-1.229,0.684-2.258,2.05-3.084c1.367-0.827,3.314-1.24,5.842-1.24s4.475,0.476,5.842,1.427c1.366,0.95,2.257,2.618,2.67,5.003
			l9.4-0.394c-0.182-4.326-1.806-7.652-4.875-9.979c-3.069-2.323-7.337-3.486-12.805-3.486c-3.636,0-6.692,0.495-9.169,1.484
			c-2.476,0.99-4.416,2.455-5.821,4.395c-0.86,1.187-1.425,2.475-1.759,3.844c-0.744-2.549-2.155-4.635-4.267-6.236
			c-3.07-2.323-7.338-3.486-12.806-3.486c-3.636,0-6.692,0.495-9.168,1.484c-2.477,0.99-4.417,2.455-5.822,4.395
			c-1.406,1.939-2.108,4.121-2.108,6.547c0,2.08,0.547,4.024,1.644,5.833c1.096,1.809,2.573,3.268,4.43,4.379
			c1.857,1.111,4.784,2.141,8.782,3.09c4.461,1.069,7.272,1.831,8.434,2.286c1.16,0.454,2.024,1.036,2.592,1.742
			c0.566,0.709,0.851,1.567,0.851,2.577c0,1.718-0.813,3.158-2.437,4.321c-1.625,1.162-3.856,1.743-6.693,1.743
			c-5.726,0-9.104-2.841-10.135-8.523l-8.325,0.771l-12.53-29.889h-9.944l-18.108,44.464h9.98l3.846-10.069h18.615l4.073,10.069
			h10.179l-1.312-3.129c3.178,2.589,7.639,3.888,13.391,3.888c6.447,0,11.187-1.313,14.217-3.942
			c1.286-1.115,2.283-2.35,3.023-3.687c3.007,5.077,8.525,7.629,16.58,7.629c5.975,0,10.463-1.143,13.504-3.399l-1.076,2.641h9.981
			l3.845-10.069h18.616l4.072,10.069h10.179l-18.641-44.464H200.845z M94.413,456.65l6.301-16.5l6.42,16.5H94.413z M177.272,465.675
			c-1.626,1.162-3.856,1.743-6.693,1.743c-5.726,0-9.104-2.841-10.136-8.523l-5.3,0.491c-0.208-1.848-0.727-3.471-1.557-4.87
			c-1.108-1.87-2.713-3.396-4.813-4.578s-5.511-2.31-10.229-3.383c-4.461-0.99-7.313-1.899-8.553-2.727s-1.861-1.845-1.861-3.054
			c0-1.229,0.684-2.258,2.051-3.084c1.366-0.827,3.313-1.24,5.842-1.24c2.527,0,4.474,0.476,5.841,1.427
			c1.367,0.95,2.257,2.618,2.67,5.003l8.515-0.356c0.159,1.676,0.668,3.265,1.572,4.756c1.096,1.809,2.573,3.268,4.43,4.379
			s4.783,2.141,8.782,3.09c4.461,1.069,7.272,1.831,8.433,2.286c1.161,0.454,2.024,1.036,2.593,1.742
			c0.566,0.709,0.851,1.567,0.851,2.577C179.709,463.071,178.896,464.512,177.272,465.675z M199.434,456.65l6.301-16.5l6.42,16.5
			H199.434z"/>
		<path d="M363.795,429.021c-4.459,0-8.254,0.838-11.385,2.518c-3.131,1.678-5.667,4.23-7.608,7.658
			c-1.939,3.427-2.911,7.79-2.911,13.087c0,5.802,1.385,10.604,4.105,14.438h-22.224v-36.579h-9.091v25.907
			c-0.286-0.522-0.619-1.021-1.002-1.492c-1.513-1.859-3.608-3.173-6.286-3.941c1.888-0.83,3.422-2.108,4.604-3.837
			c1.183-1.729,1.772-3.665,1.772-5.808c0-2.325-0.688-4.409-2.068-6.249c-1.38-1.839-3.071-3.124-5.078-3.851
			c-2.005-0.729-5.478-1.094-10.417-1.094h-18.09v33.503l-13.64-33.503h-9.657l-17.588,44.464h9.693l3.734-10.069h18.079
			l3.956,10.069h5.422h4.462h10.905c6.662,0,10.907-0.182,12.735-0.546c2.63-0.525,4.908-1.906,6.837-4.141
			c0.656-0.76,1.192-1.582,1.625-2.457v7.144h31.784v-6.884c0.579,0.753,1.196,1.48,1.887,2.152c3.781,3.66,8.941,5.49,15.479,5.49
			c6.486,0,11.621-1.85,15.403-5.55c4.308-4.186,6.463-9.999,6.463-17.44c0-7.359-2.037-13.031-6.106-17.015
			C375.521,431.012,370.256,429.021,363.795,429.021z M253.449,456.65l6.119-16.5l6.235,16.5H253.449z M287.21,437.18h5.26
			c4.809,0,7.721,0.101,8.733,0.303c1.015,0.202,1.879,0.713,2.593,1.531c0.715,0.818,1.07,1.886,1.07,3.199
			c0,1.478-0.438,2.645-1.314,3.504c-0.877,0.859-2.091,1.391-3.644,1.592c-0.853,0.102-3.081,0.151-6.688,0.151h-6.01V437.18z
			 M305.484,464.406c-0.715,0.917-1.6,1.531-2.653,1.845c-1.054,0.313-3.439,0.47-7.152,0.47h-8.469v-11.859h7.377
			c3.915,0,6.507,0.177,7.773,0.529c1.267,0.354,2.284,0.998,3.05,1.936c0.766,0.938,1.148,2.134,1.148,3.585
			C306.559,462.323,306.2,463.488,305.484,464.406z M372.769,463.52c-2.357,2.538-5.331,3.807-8.918,3.807
			c-3.563,0-6.548-1.279-8.954-3.836c-2.408-2.558-3.613-6.395-3.613-11.511c0-5.217,1.167-9.068,3.499-11.556
			s5.355-3.729,9.068-3.729c3.711,0,6.716,1.232,9.013,3.7c2.294,2.466,3.442,6.277,3.442,11.433
			C376.306,457.086,375.126,460.982,372.769,463.52z"/>
		<polygon points="410.69,429.777 400.225,447.36 389.614,429.777 378.945,429.777 395.475,455.521 395.475,474.241 
			404.567,474.241 404.567,455.583 421.172,429.777 		"/>
	</g>
</g>
</svg>
