<?xml version="1.0" encoding="utf-8"?>
<!-- Generator: Adobe Illustrator 16.0.0, SVG Export Plug-In . SVG Version: 6.00 Build 0)  -->
<!DOCTYPE svg PUBLIC "-//W3C//DTD SVG 1.1//EN" "http://www.w3.org/Graphics/SVG/1.1/DTD/svg11.dtd">
<svg version="1.1" xmlns="http://www.w3.org/2000/svg" xmlns:xlink="http://www.w3.org/1999/xlink" x="0px" y="0px" width="500px"
	 height="500px" viewBox="0 0 500 500" enable-background="new 0 0 500 500" xml:space="preserve">
<g id="Calque_1">
</g>
<g id="Calque_2">
	<g>
		<g>
			<rect x="134.168" y="196.097" width="22.426" height="77.011"/>
			<polygon points="236.354,194.405 201.023,194.405 160.19,224.659 160.19,232.91 160.19,234.603 160.19,242.853 201.023,273.108 
				236.354,273.108 181.884,233.756 			"/>
		</g>
		<g>
			<polygon points="47.426,196.097 36.212,196.097 25,196.097 25,273.108 36.212,273.108 47.426,273.108 118.723,273.108 
				118.723,255.548 47.426,255.548 47.426,213.657 118.723,213.657 118.723,196.097 			"/>
			<rect x="52.08" y="225.823" width="66.643" height="17.56"/>
		</g>
		<path d="M323.941,194.405v44.442c0,8.495-6.951,15.446-15.446,15.446h-27.287c-8.495,0-15.446-6.951-15.446-15.446v-44.442
			h-22.638v54.361c0,13.853,11.335,25.188,25.188,25.188h53.079c13.854,0,25.188-11.336,25.188-25.188v-54.361H323.941z"/>
		<circle fill="#003064" cx="392.964" cy="238.622" r="19.566"/>
		<g>
			<path fill="#E2001A" d="M407.51,207.099c18.814,0,34.063,15.25,34.063,34.062c0,13.336-7.667,24.873-18.83,30.466h41.438
				c6.771-8.628,10.819-19.493,10.819-31.313c0-28.042-22.732-50.775-50.775-50.775c-28.044,0-50.776,22.733-50.776,50.775
				c0,0.143,0.01,0.281,0.012,0.424C373.687,222.121,388.84,207.099,407.51,207.099z"/>
		</g>
		<g>
			<path d="M168.865,300.26l2.51-0.181c0.135,0.911,0.439,1.621,0.913,2.13c0.475,0.508,1.153,0.917,2.034,1.226
				s1.875,0.463,2.979,0.463c1.584,0,2.814-0.261,3.69-0.783c0.875-0.522,1.314-1.2,1.314-2.034c0-0.489-0.16-0.915-0.478-1.279
				c-0.318-0.365-0.798-0.664-1.439-0.896c-0.642-0.233-2.028-0.563-4.159-0.988c-1.896-0.381-3.247-0.763-4.05-1.146
				c-0.805-0.383-1.429-0.872-1.875-1.463c-0.446-0.592-0.669-1.26-0.669-2.005c0-1.34,0.642-2.436,1.925-3.287
				c1.283-0.851,3.012-1.277,5.188-1.277c1.495,0,2.804,0.2,3.924,0.6c1.122,0.398,1.992,0.972,2.612,1.717
				c0.618,0.746,0.951,1.624,0.995,2.633l-2.561,0.157c-0.134-1.077-0.611-1.876-1.431-2.395c-0.82-0.52-1.972-0.779-3.456-0.779
				c-1.506,0-2.655,0.228-3.447,0.684c-0.793,0.455-1.189,1.045-1.189,1.768c0,0.669,0.29,1.188,0.87,1.559
				c0.58,0.369,1.886,0.742,3.916,1.12c1.985,0.371,3.378,0.693,4.182,0.965c1.227,0.424,2.153,0.98,2.779,1.668
				c0.626,0.688,0.939,1.51,0.939,2.466c0,0.947-0.33,1.812-0.988,2.59s-1.553,1.371-2.687,1.777
				c-1.132,0.405-2.497,0.609-4.092,0.609c-2.488,0-4.472-0.505-5.949-1.514C169.688,303.352,168.921,301.985,168.865,300.26z"/>
			<path d="M190.849,305.592l-4.478-11.996h2.554l2.321,6.925l0.857,2.575l0.771-2.474l2.313-7.026h2.55l2.168,6.958l0.734,2.294
				l0.834-2.316l2.488-6.936h2.41l-4.549,11.996h-2.572l-2.326-7.184l-0.553-2.046l-2.946,9.229H190.849z"/>
			<path d="M208.447,291.372v-2.34h2.46v2.34H208.447z M208.447,305.592v-11.996h2.46v11.996H208.447z"/>
			<path d="M213.737,302l2.459-0.315c0.145,0.848,0.541,1.478,1.186,1.889c0.646,0.413,1.502,0.619,2.571,0.619
				c1.068,0,1.896-0.179,2.479-0.537c0.585-0.357,0.876-0.811,0.876-1.361c0-0.474-0.25-0.843-0.752-1.106
				c-0.346-0.18-1.183-0.407-2.51-0.677c-1.919-0.399-3.203-0.739-3.85-1.019c-0.647-0.277-1.149-0.65-1.506-1.118
				c-0.357-0.466-0.536-0.997-0.536-1.593c0-1.023,0.486-1.855,1.457-2.495c0.97-0.641,2.315-0.961,4.034-0.961
				c1.082,0,2.033,0.132,2.854,0.396c0.819,0.265,1.447,0.617,1.882,1.063c0.437,0.443,0.738,1.08,0.905,1.909l-2.411,0.271
				c-0.223-1.311-1.277-1.965-3.162-1.965c-1.071,0-1.87,0.144-2.394,0.433c-0.524,0.288-0.787,0.658-0.787,1.107
				c0,0.443,0.252,0.791,0.755,1.047c0.303,0.149,1.196,0.391,2.683,0.72c2.045,0.438,3.367,0.787,3.968,1.048
				c0.6,0.261,1.066,0.615,1.401,1.063c0.332,0.449,0.5,0.981,0.5,1.601c0,1.146-0.538,2.075-1.615,2.784
				c-1.076,0.709-2.546,1.063-4.41,1.063C216.319,305.864,214.294,304.576,213.737,302z"/>
			<path d="M227.795,302l2.459-0.315c0.145,0.848,0.541,1.478,1.187,1.889c0.646,0.413,1.502,0.619,2.571,0.619
				c1.069,0,1.896-0.179,2.479-0.537c0.585-0.357,0.876-0.811,0.876-1.361c0-0.474-0.25-0.843-0.752-1.106
				c-0.346-0.18-1.183-0.407-2.51-0.677c-1.919-0.399-3.204-0.739-3.851-1.019c-0.647-0.277-1.149-0.65-1.506-1.118
				c-0.357-0.466-0.536-0.997-0.536-1.593c0-1.023,0.486-1.855,1.457-2.495c0.971-0.641,2.315-0.961,4.034-0.961
				c1.083,0,2.033,0.132,2.854,0.396c0.82,0.265,1.447,0.617,1.882,1.063c0.437,0.443,0.738,1.08,0.905,1.909l-2.411,0.271
				c-0.223-1.311-1.277-1.965-3.163-1.965c-1.071,0-1.869,0.144-2.394,0.433c-0.524,0.288-0.787,0.658-0.787,1.107
				c0,0.443,0.251,0.791,0.755,1.047c0.302,0.149,1.196,0.391,2.683,0.72c2.045,0.438,3.367,0.787,3.968,1.048
				c0.6,0.261,1.066,0.615,1.401,1.063c0.333,0.449,0.5,0.981,0.5,1.601c0,1.146-0.538,2.075-1.615,2.784
				c-1.076,0.709-2.546,1.063-4.409,1.063C230.378,305.864,228.354,304.576,227.795,302z"/>
			<path d="M250.071,300.26l2.51-0.181c0.135,0.911,0.438,1.621,0.912,2.13c0.475,0.508,1.153,0.917,2.034,1.226
				c0.882,0.309,1.875,0.463,2.979,0.463c1.584,0,2.813-0.261,3.69-0.783c0.875-0.522,1.313-1.2,1.313-2.034
				c0-0.489-0.16-0.915-0.478-1.279c-0.318-0.365-0.798-0.664-1.438-0.896c-0.643-0.233-2.028-0.563-4.159-0.988
				c-1.896-0.381-3.247-0.763-4.05-1.146c-0.805-0.383-1.43-0.872-1.876-1.463c-0.446-0.592-0.669-1.26-0.669-2.005
				c0-1.34,0.642-2.436,1.925-3.287c1.283-0.851,3.013-1.277,5.188-1.277c1.495,0,2.805,0.2,3.925,0.6
				c1.122,0.398,1.992,0.972,2.612,1.717c0.618,0.746,0.951,1.624,0.995,2.633l-2.561,0.157c-0.134-1.077-0.611-1.876-1.431-2.395
				c-0.821-0.52-1.973-0.779-3.456-0.779c-1.507,0-2.655,0.228-3.447,0.684c-0.794,0.455-1.189,1.045-1.189,1.768
				c0,0.669,0.29,1.188,0.87,1.559c0.58,0.369,1.886,0.742,3.916,1.12c1.985,0.371,3.378,0.693,4.182,0.965
				c1.228,0.424,2.153,0.98,2.779,1.668c0.626,0.688,0.939,1.51,0.939,2.466c0,0.947-0.329,1.812-0.987,2.59
				c-0.659,0.778-1.554,1.371-2.687,1.777c-1.132,0.405-2.497,0.609-4.093,0.609c-2.487,0-4.471-0.505-5.948-1.514
				C250.894,303.352,250.126,301.985,250.071,300.26z"/>
			<path d="M269.285,305.592v-16.561h2.461v16.561H269.285z"/>
			<path d="M275.611,291.372v-2.34h2.46v2.34H275.611z M275.611,305.592v-11.996h2.46v11.996H275.611z"/>
			<path d="M291.292,305.592v-1.514c-0.445,0.58-1.02,1.022-1.723,1.328c-0.703,0.305-1.462,0.457-2.276,0.457
				c-1.718,0-3.205-0.548-4.46-1.644c-1.256-1.096-1.883-2.638-1.883-4.626c0-1.363,0.277-2.52,0.836-3.468
				c0.556-0.949,1.3-1.653,2.229-2.112c0.93-0.46,1.964-0.689,3.1-0.689c0.813,0,1.567,0.146,2.265,0.436
				c0.695,0.29,1.271,0.694,1.729,1.213v-5.941h2.492v16.561H291.292z M283.477,299.606c0,1.551,0.399,2.704,1.197,3.456
				c0.799,0.754,1.729,1.13,2.789,1.13c1.049,0,1.959-0.361,2.73-1.085c0.77-0.723,1.155-1.814,1.155-3.275
				c0-1.68-0.386-2.905-1.155-3.677c-0.771-0.772-1.742-1.157-2.915-1.157c-1.039,0-1.932,0.37-2.68,1.111
				C283.851,296.852,283.477,298.017,283.477,299.606z"/>
			<path d="M297.485,291.372v-2.34h2.46v2.34H297.485z M297.485,305.592v-11.996h2.46v11.996H297.485z"/>
			<path d="M303.729,305.592v-11.996h2.226v1.694c0.534-0.659,1.188-1.151,1.963-1.478c0.773-0.326,1.663-0.488,2.666-0.488
				c0.778,0,1.5,0.104,2.163,0.312c0.661,0.207,1.197,0.478,1.604,0.813c0.407,0.334,0.709,0.77,0.91,1.304
				c0.201,0.535,0.301,1.356,0.301,2.463v7.376h-2.46v-7.305c0-0.882-0.112-1.526-0.335-1.935c-0.224-0.406-0.571-0.722-1.046-0.943
				c-0.474-0.223-1.024-0.334-1.647-0.334c-1.185,0-2.126,0.298-2.829,0.894s-1.055,1.617-1.055,3.064v6.559H303.729z"/>
			<path d="M318.874,306.586l2.41,0.294c0.111,0.644,0.446,1.123,1.004,1.438c0.559,0.313,1.334,0.471,2.327,0.471
				c1.082,0,1.943-0.175,2.586-0.525c0.641-0.35,1.08-0.872,1.314-1.564c0.145-0.422,0.217-1.311,0.217-2.667
				c-0.536,0.516-1.139,0.905-1.808,1.167c-0.67,0.263-1.412,0.393-2.227,0.393c-1.74,0-3.185-0.497-4.334-1.491
				c-1.316-1.145-1.975-2.677-1.975-4.597c0-1.288,0.29-2.413,0.87-3.378s1.342-1.672,2.285-2.123
				c0.942-0.453,1.999-0.679,3.171-0.679c0.859,0,1.643,0.143,2.352,0.427c0.708,0.284,1.336,0.71,1.883,1.279v-1.435h2.276v10.37
				c0,1.845-0.224,3.161-0.67,3.948s-1.178,1.408-2.192,1.863c-1.016,0.456-2.238,0.684-3.666,0.684
				c-1.886,0-3.336-0.343-4.351-1.027C319.332,308.749,318.841,307.799,318.874,306.586z M320.916,299.379
				c0,1.578,0.386,2.729,1.158,3.455c0.771,0.724,1.716,1.087,2.834,1.087s2.068-0.355,2.851-1.064
				c0.782-0.711,1.174-1.839,1.174-3.387c0-1.511-0.402-2.634-1.207-3.37c-0.805-0.734-1.782-1.103-2.935-1.103
				c-1.028,0-1.933,0.368-2.71,1.103C321.305,296.836,320.916,297.93,320.916,299.379z"/>
			<path d="M342.256,300.26l2.51-0.181c0.134,0.911,0.438,1.621,0.912,2.13c0.476,0.508,1.152,0.917,2.033,1.226
				c0.882,0.309,1.876,0.463,2.98,0.463c1.584,0,2.813-0.261,3.69-0.783c0.875-0.522,1.313-1.2,1.313-2.034
				c0-0.489-0.158-0.915-0.476-1.279c-0.319-0.365-0.799-0.664-1.439-0.896c-0.643-0.233-2.028-0.563-4.159-0.988
				c-1.897-0.381-3.248-0.763-4.051-1.146c-0.804-0.383-1.429-0.872-1.875-1.463c-0.446-0.592-0.669-1.26-0.669-2.005
				c0-1.34,0.642-2.436,1.925-3.287c1.283-0.851,3.013-1.277,5.188-1.277c1.495,0,2.804,0.2,3.925,0.6
				c1.121,0.398,1.991,0.972,2.61,1.717c0.62,0.746,0.95,1.624,0.996,2.633l-2.561,0.157c-0.134-1.077-0.611-1.876-1.431-2.395
				c-0.82-0.52-1.973-0.779-3.456-0.779c-1.508,0-2.656,0.228-3.449,0.684c-0.792,0.455-1.188,1.045-1.188,1.768
				c0,0.669,0.29,1.188,0.87,1.559c0.581,0.369,1.886,0.742,3.915,1.12c1.985,0.371,3.38,0.693,4.183,0.965
				c1.227,0.424,2.153,0.98,2.779,1.668c0.626,0.688,0.939,1.51,0.939,2.466c0,0.947-0.329,1.812-0.987,2.59
				s-1.554,1.371-2.687,1.777c-1.133,0.405-2.497,0.609-4.092,0.609c-2.488,0-4.472-0.505-5.95-1.514
				C343.078,303.352,342.312,301.985,342.256,300.26z"/>
			<path d="M360.616,299.594c0-2.07,0.643-3.634,1.932-4.688c1.29-1.055,2.921-1.582,4.896-1.582c1.941,0,3.565,0.527,4.871,1.582
				c1.305,1.054,1.957,2.574,1.957,4.563c0,2.154-0.641,3.758-1.924,4.812c-1.283,1.056-2.918,1.582-4.904,1.582
				c-1.952,0-3.578-0.529-4.879-1.587C361.266,303.218,360.616,301.658,360.616,299.594z M363.143,299.588
				c0,1.554,0.419,2.709,1.255,3.467c0.837,0.758,1.875,1.137,3.113,1.137c1.16,0,2.155-0.382,2.987-1.148
				c0.831-0.765,1.247-1.916,1.247-3.455c0-1.545-0.419-2.697-1.256-3.454c-0.837-0.759-1.874-1.137-3.112-1.137
				c-1.172,0-2.171,0.38-2.996,1.142C363.555,296.901,363.143,298.05,363.143,299.588z"/>
			<path d="M377.101,305.592v-16.561h2.461v16.561H377.101z"/>
			<path d="M392.967,305.592v-1.762c-0.569,0.677-1.238,1.187-2.009,1.525c-0.77,0.338-1.64,0.508-2.61,0.508
				c-1.149,0-2.131-0.209-2.945-0.627s-1.358-0.947-1.633-1.587c-0.272-0.64-0.409-1.514-0.409-2.621v-7.433h2.46v6.653
				c0,1.234,0.093,2.062,0.276,2.479c0.185,0.418,0.524,0.754,1.021,1.005c0.496,0.253,1.063,0.38,1.698,0.38
				c1.183,0,2.153-0.329,2.912-0.983c0.646-0.565,0.971-1.601,0.971-3.106v-6.428h2.477v11.996H392.967z"/>
			<path d="M404.549,303.774l0.335,1.796c-0.681,0.12-1.295,0.182-1.841,0.182c-0.859,0-1.552-0.115-2.075-0.345
				c-0.524-0.229-0.886-0.545-1.08-0.943c-0.196-0.399-0.293-1.194-0.293-2.384v-6.902h-1.807v-1.581h1.807v-2.972l2.46-1.22v4.191
				h2.494v1.581h-2.494v7.015c0,0.648,0.073,1.066,0.218,1.255c0.212,0.271,0.607,0.406,1.188,0.406
				C403.739,303.853,404.103,303.827,404.549,303.774z"/>
			<path d="M406.876,291.372v-2.34h2.459v2.34H406.876z M406.876,305.592v-11.996h2.459v11.996H406.876z"/>
			<path d="M412.181,299.594c0-2.07,0.644-3.634,1.933-4.688c1.29-1.055,2.921-1.582,4.896-1.582c1.941,0,3.565,0.527,4.871,1.582
				c1.305,1.054,1.957,2.574,1.957,4.563c0,2.154-0.641,3.758-1.924,4.812c-1.283,1.056-2.918,1.582-4.904,1.582
				c-1.952,0-3.578-0.529-4.879-1.587C412.831,303.218,412.181,301.658,412.181,299.594z M414.708,299.588
				c0,1.554,0.419,2.709,1.255,3.467c0.837,0.758,1.875,1.137,3.113,1.137c1.16,0,2.155-0.382,2.987-1.148
				c0.831-0.765,1.247-1.916,1.247-3.455c0-1.545-0.419-2.697-1.256-3.454c-0.837-0.759-1.874-1.137-3.112-1.137
				c-1.172,0-2.171,0.38-2.996,1.142C415.12,296.901,414.708,298.05,414.708,299.588z"/>
			<path d="M428.75,305.592v-11.996h2.226v1.694c0.534-0.659,1.188-1.151,1.963-1.478s1.663-0.488,2.666-0.488
				c0.778,0,1.5,0.104,2.163,0.312c0.662,0.207,1.197,0.478,1.604,0.813c0.407,0.334,0.709,0.77,0.91,1.304
				c0.201,0.535,0.302,1.356,0.302,2.463v7.376h-2.461v-7.305c0-0.882-0.111-1.526-0.335-1.935
				c-0.223-0.406-0.571-0.722-1.046-0.943c-0.474-0.223-1.024-0.334-1.647-0.334c-1.185,0-2.126,0.298-2.829,0.894
				s-1.055,1.617-1.055,3.064v6.559H428.75z"/>
			<path d="M443.428,302l2.461-0.315c0.144,0.848,0.539,1.478,1.185,1.889c0.646,0.413,1.503,0.619,2.571,0.619
				s1.896-0.179,2.48-0.537c0.584-0.357,0.876-0.811,0.876-1.361c0-0.474-0.251-0.843-0.753-1.106
				c-0.347-0.18-1.183-0.407-2.511-0.677c-1.919-0.399-3.202-0.739-3.849-1.019c-0.647-0.277-1.149-0.65-1.507-1.118
				c-0.358-0.466-0.535-0.997-0.535-1.593c0-1.023,0.484-1.855,1.455-2.495c0.971-0.641,2.315-0.961,4.034-0.961
				c1.082,0,2.033,0.132,2.854,0.396c0.819,0.265,1.448,0.617,1.883,1.063c0.436,0.443,0.736,1.08,0.903,1.909l-2.409,0.271
				c-0.225-1.311-1.278-1.965-3.164-1.965c-1.07,0-1.869,0.144-2.394,0.433c-0.524,0.288-0.786,0.658-0.786,1.107
				c0,0.443,0.251,0.791,0.754,1.047c0.303,0.149,1.196,0.391,2.684,0.72c2.045,0.438,3.367,0.787,3.967,1.048
				c0.601,0.261,1.067,0.615,1.401,1.063c0.333,0.449,0.499,0.981,0.499,1.601c0,1.146-0.538,2.075-1.615,2.784
				c-1.075,0.709-2.546,1.063-4.409,1.063C446.011,305.864,443.985,304.576,443.428,302z"/>
		</g>
	</g>
</g>
</svg>
