<?xml version="1.0" encoding="utf-8"?>
<!-- Generator: Adobe Illustrator 16.0.0, SVG Export Plug-In . SVG Version: 6.00 Build 0)  -->
<!DOCTYPE svg PUBLIC "-//W3C//DTD SVG 1.1//EN" "http://www.w3.org/Graphics/SVG/1.1/DTD/svg11.dtd">
<svg version="1.1" id="Calque_1" xmlns="http://www.w3.org/2000/svg" xmlns:xlink="http://www.w3.org/1999/xlink" x="0px" y="0px"
	 width="500px" height="500px" viewBox="0 0 500 500" enable-background="new 0 0 500 500" xml:space="preserve">
<g>
	<path fill="#DB2F36" d="M357.546,191.607c8.48,7.814,13.031,19.7,12.135,31.642l-1.197,0.061h-38.17l-0.67-0.032
		c-0.113-8.146-0.227-17.384-7.032-22.073c-6.811-4.014-16.63-4.014-23.437,0c-9.602,5.249-7.258,17.413-8.262,27.011v10.546
		l0.141,1.622l20.983,0.081l0.5-0.052c0,10.179-0.278,17.046-0.278,17.046h-1.255l-20.647-0.053l-0.227,60.657v3.349l-0.557-0.108
		h-41.297v-10.941v-44.084l-0.024-9.711h-20.624l-1.227,0.056v-17.69h21.177l0.028-2.118c0.335-14.068-0.892-29.468,7.702-40.74
		c11.163-15.065,29.246-19.531,47.659-19.196C323.168,176.208,342.812,178.882,357.546,191.607"/>
	<path fill="#DB2F36" d="M94.254,251.881c-9.929,0.109-20.088,6.415-21.984,14.952c-0.335,1.117-0.811,2.929-0.811,2.929
		l46.905-0.081c-0.109-4.409-1.562-6.084-3.014-8.649C110.888,254.669,102.742,251.434,94.254,251.881 M145.822,250.986
		c9.15,8.259,17.296,18.413,17.631,31.251c-0.222,0.335,0,0.892-0.222,1.227H86.221H71.266c-1.118,0.222-1.562,1.452-1.34,2.683
		c1.227,7.141,6.363,13.951,13.06,16.848c9.263,4.579,20.983,2.122,28.907-3.457c2.231-2.122,5.131-4.91,6.806-7.702l0.42-1.089
		c10.433,4.244,22.988,9.404,33.066,13.588l0.415,0.282c-10.909,9.768-24.525,14.339-38.142,17.243
		c-24.667,3.345-50.003,0.113-70.09-12.168c-10.937-7.924-21.209-19.979-19.087-34.708c2.57-18.644,20.087-29.912,35.935-35.604
		C88.452,230.451,123.83,232.794,145.822,250.986"/>
	<path fill="#DB2F36" d="M378.307,285.92c-5.026,2.457-10.72,6.253-10.05,12.833c0,6.25,5.806,9.489,10.828,11.498
		c9.599,2.897,21.428,1.336,28.016-6.362c2.344-3.57,2.231-9.711-0.113-13.172C400.625,282.68,387.457,282.907,378.307,285.92
		 M429.979,243.954c10.603,5.023,21.762,14.177,22.884,26.785l0.443,9.937l-0.557,39.618c-0.892,1.787-3.574,1.009-5.471,1.23
		h-37.612c-2.203-0.311-0.67-6.726-1.868-7.536c-14.621,7.589-33.292,10.885-50.588,8.428c-1.368-0.222-2.207-0.08-3.684-0.443
		c-12.164-2.235-26.454-6.811-31.138-19.757c-1.453-7.367,0.948-14.903,6.919-18.974c20.648-15.404,54.913-14.064,77.122-2.566
		c2.566-1.117,1.448-4.688,1.675-7.254c-0.227-5.692,0.557-12.39-4.24-16.073c-8.598-6.471-22.997-6.81-32.034-1.009
		c-3.122,2.235-5.136,5.697-6.14,9.493c-15.291,0.274-22.823,0-40.07-0.113c-0.193-1.146,0.504-2.683,1.117-3.683
		c11.498-20.427,35.382-25.002,57.705-26.232C400.738,235.025,416.028,238.487,429.979,243.954"/>
	<rect x="174.059" y="177.099" fill="#DB2F36" width="42.971" height="144.538"/>
	<path fill="#DB2F36" d="M459.653,224.633c2.61-0.077,3.215-1.166,3.215-2.534c0-1.323-0.604-2.005-2.815-2.005h-3.333v4.539
		H459.653z M456.72,227.405v7.673h-2.771v-17.756h5.745c3.252,0,6.629,0.884,6.629,4.902c0,2.05-1.251,3.651-3.615,4.136v0.084
		c2.449,0.476,2.731,1.565,3.01,3.494c0.246,1.687,0.444,3.53,1.045,5.14h-3.534c-0.197-1.004-0.479-2.13-0.605-3.175
		c-0.197-1.521-0.197-2.933-1.004-3.776c-0.678-0.722-1.605-0.641-2.566-0.722H456.72z M472.35,226.4
		c0-6.826-5.543-12.414-12.414-12.414c-6.911,0-12.495,5.588-12.495,12.414c0,6.915,5.584,12.495,12.495,12.495
		C466.807,238.895,472.35,233.315,472.35,226.4 M444.79,226.4c0-8.315,6.746-15.064,15.146-15.064
		c8.355,0,15.064,6.75,15.064,15.064c0,8.396-6.709,15.146-15.064,15.146C451.536,241.545,444.79,234.795,444.79,226.4"/>
</g>
</svg>
