<?xml version="1.0" encoding="utf-8"?>
<!-- Generator: Adobe Illustrator 16.0.0, SVG Export Plug-In . SVG Version: 6.00 Build 0)  -->
<!DOCTYPE svg PUBLIC "-//W3C//DTD SVG 1.1//EN" "http://www.w3.org/Graphics/SVG/1.1/DTD/svg11.dtd">
<svg version="1.1" id="Calque_1" xmlns="http://www.w3.org/2000/svg" xmlns:xlink="http://www.w3.org/1999/xlink" x="0px" y="0px"
	 width="500px" height="500px" viewBox="0 0 500 500" enable-background="new 0 0 500 500" xml:space="preserve">
<g>
	<polygon points="427.215,350.872 101.668,476.197 101.668,176.554 427.215,51.237 	"/>
	<polygon fill="#E2001A" points="397.61,325.877 72.064,451.203 72.064,151.552 397.61,26.235 	"/>
	<polygon fill="#FFFFFF" points="397.642,83.1 72.071,208.424 72.071,192.582 397.642,67.257 	"/>
	<polygon fill="#FFFFFF" points="397.642,287.655 72.071,412.979 72.071,397.128 397.642,271.803 	"/>
	<path fill="#E2001A" d="M246.59,239.748c0,0-2.39-18.187-0.293-27.652c2.097-9.468,8.935-20.5,12.087-20.5
		c3.154,0,2.622,14.192-1.056,26.806C253.652,231.013,246.59,239.748,246.59,239.748z"/>
	<path fill="#E2001A" d="M204.227,250.556c0,0-2.39-18.194-0.292-27.661s8.936-20.5,12.088-20.5c3.153,0,2.621,14.192-1.056,26.806
		C211.289,241.814,204.227,250.556,204.227,250.556z"/>
	<path fill="#E2001A" d="M290.974,241.521c0,0-5.782-9.459,6.307-23.652c12.088-14.193,16.821-6.313,11.563,5.25
		C303.586,234.683,295.707,240.997,290.974,241.521z"/>
	<g>
		<path d="M414.017,26.197c5.427,0,9.744,4.41,9.744,9.922c0,5.597-4.317,9.96-9.776,9.96c-5.427,0-9.836-4.364-9.836-9.96
			c0-5.512,4.409-9.922,9.836-9.922H414.017z M413.984,27.738c-4.378,0-7.938,3.747-7.938,8.38c0,4.718,3.562,8.418,7.972,8.418
			c4.409,0.046,7.94-3.701,7.94-8.373c0-4.68-3.531-8.426-7.94-8.426L413.984,27.738L413.984,27.738z M412.135,41.893h-1.773V30.83
			c0.925-0.139,1.805-0.27,3.13-0.27c1.666,0,2.775,0.354,3.439,0.84c0.663,0.486,1.018,1.233,1.018,2.29
			c0,1.458-0.972,2.336-2.175,2.689v0.094c0.987,0.169,1.635,1.056,1.866,2.683c0.262,1.719,0.523,2.382,0.692,2.737h-1.851
			c-0.246-0.354-0.522-1.364-0.739-2.821c-0.276-1.411-0.972-1.943-2.375-1.943h-1.232V41.893L412.135,41.893z M412.135,35.764
			h1.265c1.449,0,2.698-0.532,2.698-1.897c0-0.971-0.709-1.935-2.698-1.935c-0.57,0-0.956,0.039-1.265,0.085V35.764z"/>
	</g>
</g>
<g>
	<path fill="#FFFFFF" d="M186.036,284.151c-14.111,26.612-31.405,43.879-51.882,51.799c-5.942,2.298-10.806,3.269-14.591,2.908
		c-3.787-0.358-6.226-1.951-7.319-4.778c-1.272-3.288-0.513-7.924,2.278-13.912c2.79-5.986,7.333-12.584,13.63-19.795
		c4.258-4.763,8.285-8.708,12.083-11.836c3.797-3.125,7.165-5.605,10.104-7.438c2.938-1.833,6.922-4.22,11.953-7.16
		c3.26-1.857,5.412-4.563,6.458-8.118c1.046-3.554,1.156-6.398,0.331-8.533c-0.647-1.673-1.955-2.393-3.921-2.164
		c-1.967,0.23-6.065,1.55-12.295,3.96c-8.538,3.303-15.753,5.993-21.646,8.074c-5.894,2.08-10.881,3.629-14.964,4.644
		c-4.083,1.017-7.178,1.418-9.283,1.203c-2.106-0.212-3.426-1.013-3.961-2.396c-1.026-2.652,0.601-7.062,4.881-13.228
		c4.28-6.164,10.012-12.261,17.197-18.29c7.184-6.027,14.353-10.425,21.506-13.192c4.614-1.785,8.421-2.66,11.418-2.626
		c-2.13,3.41-3.784,6.206-4.963,8.385c-1.18,2.182-2.234,5.241-3.163,9.181c4.087-5.891,8.609-11.387,13.567-16.487
		c4.956-5.1,7.789-8.151,8.495-9.155c0.707-1.002,0.591-2.715-0.346-5.138l-2.276-5.884c-1.25-3.23-2.306-5.358-3.166-6.385
		c-0.861-1.025-2.686-1.414-5.474-1.165c-2.788,0.25-7.355,1.602-13.7,4.056c-11.019,4.262-20.681,9.409-28.992,15.441
		c-8.31,6.034-14.943,12.33-19.9,18.888c-4.957,6.56-8.252,13.04-9.888,19.441c-1.636,6.402-1.493,12.084,0.425,17.045
		c1.495,3.865,3.966,6.955,7.415,9.268c3.447,2.314,7.465,3.313,12.052,2.998c4.427-0.386,8.494-1.098,12.205-2.135
		c3.71-1.037,7.927-2.436,12.651-4.197c4.723-1.76,7.992-2.908,9.808-3.445c1.815-0.536,2.856-0.459,3.124,0.233
		c0.246,0.636-0.326,1.387-1.714,2.255c-9.741,6.022-17.975,12.291-24.706,18.807c-6.73,6.517-11.912,12.881-15.543,19.093
		c-3.632,6.214-5.835,12.089-6.611,17.627c-0.776,5.539-0.271,10.616,1.514,15.23c2.455,6.346,7.047,10.42,13.781,12.226
		c6.732,1.806,14.108,1.158,22.127-1.943c6.922-2.677,13.974-6.434,21.156-11.267c7.182-4.834,13.524-10.04,19.027-15.615
		c5.503-5.576,9.348-10.679,11.538-15.306c2.636-5.528,3.8-10.703,3.494-15.525C189.642,294.975,188.338,289.76,186.036,284.151z"/>
	<path fill="#FFFFFF" d="M394.042,210.856c-3.971,6.708-6.957,11.461-8.959,14.257c-2.001,2.798-3.839,4.519-5.512,5.166
		c-2.02,0.781-3.508-0.068-4.468-2.549c-1.718-4.441,0.313-14.278,6.092-29.512c1.476-3.555,1.97-5.967,1.479-7.237
		c-1.004-2.596-2.444-4.989-4.319-7.182c-1.877-2.191-3.276-3.109-4.198-2.752c-2.021,0.781-4.145,2.831-6.376,6.146
		c-4.075,5.754-7.503,11.424-10.282,17.008c-2.78,5.586-5.045,10.789-6.794,15.609c-1.75,4.822-3.189,8.728-4.321,11.718
		c-1.131,2.991-2.042,4.62-2.734,4.888c-1.097,0.424-1.968-0.2-2.614-1.874c-1.16-2.999,0.863-11.309,6.073-24.929
		c0.805-2.035,1.322-3.396,1.555-4.083c0.231-0.686,0.398-1.413,0.498-2.182c0.102-0.768,0.04-1.44-0.184-2.018
		c-0.513-1.326-1.454-2.089-2.825-2.289c-1.37-0.199-2.979,0.058-4.824,0.772c-2.653,1.026-4.87,3.525-6.649,7.496
		c-1.78,3.971-3.477,9.784-5.093,17.438c-0.862,4.113-1.309,7.205-1.338,9.271c-0.013,0.914,0.104,1.941,0.337,3.07
		c-2.749,5.063-5.159,9.212-7.221,12.424c-2.152,3.353-4.485,6.278-7.001,8.776c-2.515,2.499-5.187,4.294-8.013,5.387
		c-2.712,1.049-5.271,0.945-7.68-0.312c-2.41-1.257-4.271-3.586-5.589-6.99l-0.837-2.163c6.862-6.434,12.39-12.501,16.584-18.202
		c4.194-5.7,6.949-10.877,8.267-15.532c1.317-4.653,1.272-8.798-0.133-12.432c-0.959-2.479-2.473-4.033-4.538-4.661
		c-2.067-0.625-4.455-0.416-7.166,0.633c-3.404,1.316-6.9,3.763-10.49,7.34c-3.59,3.577-6.853,8.089-9.785,13.533
		c-4.283,7.958-6.886,14.948-7.804,20.973c-0.516,3.381-0.499,6.768,0.013,10.16c-3.218,6.571-5.414,11.024-6.564,13.314
		c-1.199,2.388-2.418,4.466-3.654,6.238c-1.24,1.771-2.58,2.937-4.021,3.494c-2.826,1.094-5.479,0.794-7.957-0.9
		c-2.479-1.693-4.432-4.387-5.86-8.079c-0.624-1.614-1.229-4.033-1.812-7.257c6.944-16.677,11.417-32.118,13.417-46.321
		c2-14.202,1.449-25.312-1.652-33.331c-1.004-2.596-1.914-4.348-2.73-5.26c-0.816-0.91-1.83-1.132-3.041-0.664
		c-0.982,0.38-2.137,1.423-3.465,3.13c-3.31,4.132-6.26,10.264-8.851,18.394c-2.591,8.132-4.597,17.263-6.016,27.394
		c-1.419,10.133-1.946,19.786-1.58,28.961c0.278,6.969,1.11,12.981,2.489,18.051c-2.83,5.773-4.782,9.728-5.844,11.844
		c-1.2,2.388-2.418,4.466-3.655,6.237c-1.239,1.772-2.579,2.938-4.02,3.495c-2.827,1.094-5.479,0.794-7.958-0.9
		c-2.479-1.693-4.432-4.387-5.86-8.079c-0.625-1.614-1.229-4.033-1.812-7.257c6.944-16.677,11.416-32.118,13.417-46.321
		c2-14.202,1.45-25.312-1.652-33.331c-1.004-2.596-1.915-4.348-2.73-5.26c-0.817-0.91-1.831-1.132-3.042-0.664
		c-0.981,0.38-2.136,1.423-3.464,3.13c-3.31,4.132-6.26,10.264-8.851,18.394c-2.591,8.132-4.597,17.263-6.016,27.394
		c-1.419,10.133-1.946,19.786-1.58,28.961c0.366,9.176,1.687,16.705,3.963,22.589c2.811,7.269,6.25,12.687,10.315,16.253
		c4.065,3.567,8.145,4.559,12.241,2.974c7.149-2.766,13.545-13.473,19.19-32.101c2.58,5.863,5.628,10.345,9.147,13.433
		c4.065,3.567,8.146,4.559,12.241,2.974c7.249-2.804,13.721-13.782,19.424-32.892c2.675,6.881,6.271,11.729,10.794,14.538
		c4.538,2.82,9.374,3.238,14.51,1.252c5.884-2.276,10.872-6.61,14.965-13c3.915-6.112,7.547-14.063,10.904-23.813
		c1.909,4.605,4.266,8.424,7.083,11.434c3.053,3.263,5.5,4.537,7.348,3.822c1.211-0.469,2.179-1.522,2.904-3.162
		c0.725-1.639,1.707-4.672,2.946-9.098c1.239-4.424,2.443-8.471,3.611-12.139c1.167-3.667,2.763-7.684,4.789-12.048
		c3.042-6.879,5.884-11.791,8.524-14.737c-0.949,5.607-1.764,10.614-2.446,15.021c-0.682,4.409-1.154,7.775-1.416,10.097
		c-0.262,2.324-0.336,4.491-0.221,6.501c0.114,2.012,0.529,3.94,1.243,5.786c2.41,6.23,5.979,8.43,10.71,6.6
		c2.769-1.071,5.653-4.241,8.654-9.514c3-5.271,7.034-13.529,12.102-24.774L394.042,210.856z M205.119,265.329
		c-1.457-9.25-1.616-18.921-0.478-29.01c1.137-10.089,2.908-17.255,5.311-21.501c0.735-1.013,1.276-1.587,1.622-1.721
		c0.922-0.357,1.641,0.128,2.154,1.455c0.669,1.73,0.956,4.571,0.859,8.521c-0.097,3.952-0.561,8.54-1.389,13.767
		c-0.83,5.229-1.918,10.259-3.265,15.09C208.585,256.761,206.98,261.227,205.119,265.329z M245.698,249.635
		c-1.457-9.25-1.616-18.921-0.478-29.01c1.137-10.089,2.908-17.255,5.311-21.501c0.734-1.013,1.275-1.587,1.621-1.721
		c0.924-0.357,1.643,0.128,2.154,1.455c0.67,1.73,0.957,4.571,0.859,8.521c-0.098,3.952-0.561,8.54-1.389,13.767
		c-0.83,5.229-1.918,10.259-3.266,15.09C249.164,241.067,247.559,245.533,245.698,249.635z M291.007,237.381
		c0.788-3.62,1.966-6.96,3.534-10.021c1.568-3.059,3.265-5.705,5.088-7.936c1.823-2.23,3.253-3.546,4.292-3.948
		c1.211-0.469,2.073-0.039,2.587,1.287c0.49,1.27,0.386,3.615-0.313,7.035c-0.7,3.421-2.315,7.346-4.847,11.772
		c-2.532,4.428-6.002,8.655-10.413,12.682C290.195,244.625,290.22,241.002,291.007,237.381z"/>
</g>
</svg>
