<?xml version="1.0" encoding="utf-8"?>
<!-- Generator: Adobe Illustrator 16.0.0, SVG Export Plug-In . SVG Version: 6.00 Build 0)  -->
<!DOCTYPE svg PUBLIC "-//W3C//DTD SVG 1.1//EN" "http://www.w3.org/Graphics/SVG/1.1/DTD/svg11.dtd">
<svg version="1.1" id="Calque_1" xmlns="http://www.w3.org/2000/svg" xmlns:xlink="http://www.w3.org/1999/xlink" x="0px" y="0px"
	 width="500px" height="500px" viewBox="0 0 500 500" enable-background="new 0 0 500 500" xml:space="preserve">
<g>
	<path fill="#131113" d="M38.726,200.475h71.197c7.578,0,13.729,6.144,13.729,13.725v71.603c0,7.578-6.151,13.723-13.729,13.723
		H38.726c-7.578,0-13.726-6.145-13.726-13.723V214.2C25,206.619,31.147,200.475,38.726,200.475"/>
	<polyline fill="#0076B3" points="49.122,203.842 85.526,203.842 60.914,296.297 49.466,296.297 49.466,276.219 28.341,276.219 
		28.341,224.562 49.122,224.562 	"/>
	<polyline fill="#DF1E27" points="88.991,203.916 64.143,296.297 99.643,296.297 99.643,276.223 120.625,276.223 120.625,224.337 
		100.045,224.337 100.045,203.916 	"/>
	<polyline fill="#0076B3" points="140.911,282.379 212.027,282.379 212.027,267.01 160.524,267.01 160.524,256.764 208.23,256.764 
		208.23,243.506 160.524,243.506 160.524,233.261 210.879,233.261 210.879,218.422 140.911,218.422 	"/>
	<path fill="#0076B3" d="M215.236,265.861c0,13.873,7.153,17.229,25,17.229h23.766c26.06,0,31.894-2.822,31.894-20.059
		c0-18.639-7.068-20.492-37.546-20.406c-21.024,0.093-23.414-0.086-23.414-5.653c0-3.444,3.004-4.948,7.423-4.948h21.736
		c9.009,0,9.539,1.948,9.539,6.627h19.617v-2.03c0-11.224-2.123-18.91-24.74-18.91h-27.389c-24.737,0-25.797,8.924-25.797,20.499
		c0,15.724,3.36,19.257,32.859,19.257c25.271,0,27.567,0.361,27.567,5.92c0,4.949-4.237,5.395-8.39,5.395h-24.033
		c-5.652,0-8.394-0.539-8.479-7.336h-19.614V265.861"/>
	<path fill-rule="evenodd" clip-rule="evenodd" fill="#0076B3" d="M320.113,233.791h34.72c3.627,0,5.749,1.326,5.749,5.034
		c0,3.623-2.122,4.948-5.749,4.948h-34.72 M320.113,257.023h35.164c4.241,0,7.067,0.975,7.067,5.297
		c0,3.719-2.826,4.689-7.067,4.689h-35.164V257.023z M300.504,282.379h62.456c11.22,0,19.524-2.916,19.524-16.959
		c0-9.631-3.178-14.223-11.749-15.283v-0.266c5.479-1.593,9.456-3.708,9.456-14.669c0-12.542-7.597-16.779-23.236-16.779h-56.451
		V282.379"/>
	<polyline fill="#0076B3" points="386.818,282.379 457.935,282.379 457.935,267.01 406.436,267.01 406.436,256.764 454.142,256.764 
		454.142,243.506 406.436,243.506 406.436,233.261 456.786,233.261 456.786,218.422 386.818,218.422 	"/>
	<path fill-rule="evenodd" clip-rule="evenodd" fill="#006FAD" d="M464.976,211.385v-2.935h1.952c0.997,0,2.068,0.221,2.068,1.389
		c0,1.461-1.09,1.546-2.305,1.546 M464.976,212.599h1.65l2.498,4.099h1.604l-2.695-4.16c1.393-0.174,2.455-0.912,2.455-2.609
		c0-1.864-1.109-2.691-3.344-2.691h-3.6v9.461h1.431V212.599z M460.026,211.95c0-3.886,2.927-6.816,6.685-6.816
		c3.716,0,6.639,2.931,6.639,6.816c0,3.943-2.923,6.855-6.639,6.855C462.953,218.805,460.026,215.893,460.026,211.95
		 M466.711,220.173c4.47,0,8.289-3.476,8.289-8.224c0-4.713-3.819-8.181-8.289-8.181c-4.516,0-8.332,3.468-8.332,8.181
		C458.379,216.698,462.195,220.173,466.711,220.173"/>
</g>
</svg>
