<?xml version="1.0" encoding="utf-8"?>
<!-- Generator: Adobe Illustrator 16.0.0, SVG Export Plug-In . SVG Version: 6.00 Build 0)  -->
<!DOCTYPE svg PUBLIC "-//W3C//DTD SVG 1.1//EN" "http://www.w3.org/Graphics/SVG/1.1/DTD/svg11.dtd">
<svg version="1.1" id="Calque_1" xmlns="http://www.w3.org/2000/svg" xmlns:xlink="http://www.w3.org/1999/xlink" x="0px" y="0px"
	 width="500px" height="500px" viewBox="0 0 500 500" enable-background="new 0 0 500 500" xml:space="preserve">
<g>
	<path fill="#E42D3A" d="M475,310.894c0,9.08-7.361,16.441-16.441,16.441H41.442c-9.081,0-16.441-7.361-16.441-16.441V189.105
		c0-9.082,7.36-16.441,16.441-16.441h417.117c9.08,0,16.441,7.359,16.441,16.441V310.894z"/>
	<g>
		<path fill="#FFFFFF" d="M180.039,234.796h45.508v12.228h-30.4v14.417h20.236v12.411h-20.236v27.921h-15.107V234.796z"/>
		<path fill="#FFFFFF" d="M232.254,234.796h45.973v12.228h-31.053v14.234h21.355v12.228h-21.169v15.786h33.012v12.501h-48.118
			V234.796z"/>
		<path fill="#FFFFFF" d="M303.494,301.773h-14.827v-66.977h22.101c11.098,0,25.18,1.461,25.18,19.437
			c0,8.486-3.452,14.965-13.057,17.793l14.92,29.747h-16.319l-12.961-27.374h-5.036V301.773z M303.494,263.722
			c8.485,0,9.792,0,11.937-0.729c4.756-1.643,5.128-5.293,5.128-8.944c0-4.652-1.491-6.934-4.477-8.028
			c-2.33-0.821-4.195-0.821-12.588-0.821V263.722z"/>
		<path fill="#FFFFFF" d="M344.983,257.334c0-15.329,8.395-23.997,24.339-23.997c4.105,0,10.259,0.821,15.015,4.471
			c6.155,4.745,6.9,12.958,7.088,18.341H376.41c-0.092-3.285-0.279-10.584-7.739-10.584c-1.865,0-4.197,0.729-5.688,2.099
			c-2.424,2.189-2.519,5.474-2.519,7.3v25.457c0,3.649,0,10.677,8.3,10.677c6.155,0,8.021-4.928,8.021-12.136h15.106
			c-0.092,4.835-0.187,5.383-0.653,8.211c-0.559,2.647-1.491,7.482-7.18,11.953c-4.849,3.833-11.937,4.474-14.92,4.474
			c-7.928,0-13.43-1.826-17.72-5.933c-2.796-2.646-6.435-6.479-6.435-20.165V257.334z"/>
		<path fill="#FFFFFF" d="M401.395,258.43c0-6.843,1.212-13.413,5.969-18.523c4.289-4.653,10.724-6.387,17.158-6.387
			c6.994,0,13.429,1.643,17.998,6.479c3.823,4.015,5.968,9.945,5.968,20.712v16.243c0,9.399-1.586,15.42-5.876,19.983
			c-5.688,6.021-13.895,6.662-18.276,6.662c-6.714,0-17.718-2.374-21.169-13.689c-1.492-4.744-1.771-10.584-1.771-13.503V258.43z
			 M416.689,279.417c0,7.026,1.398,12.045,8.113,12.045c8.112,0,8.112-7.393,8.112-12.045v-23.269c0-4.654,0-10.311-7.928-10.311
			c-8.298,0-8.298,7.663-8.298,10.311V279.417z"/>
	</g>
	<polygon fill="#FFFFFF" points="43.609,274.167 43.609,192.964 125.295,192.964 159.13,228.732 79.861,228.732 79.861,310.418 	"/>
	<polygon fill="#FFFFFF" points="87.111,274.167 87.111,234.533 125.295,234.533 159.13,270.3 123.362,270.3 123.362,310.418 	"/>
</g>
</svg>
