<?xml version="1.0" encoding="utf-8"?>
<!-- Generator: Adobe Illustrator 16.0.0, SVG Export Plug-In . SVG Version: 6.00 Build 0)  -->
<!DOCTYPE svg PUBLIC "-//W3C//DTD SVG 1.1//EN" "http://www.w3.org/Graphics/SVG/1.1/DTD/svg11.dtd">
<svg version="1.1" id="Calque_2" xmlns="http://www.w3.org/2000/svg" xmlns:xlink="http://www.w3.org/1999/xlink" x="0px" y="0px"
	 width="500px" height="500px" viewBox="0 0 500 500" enable-background="new 0 0 500 500" xml:space="preserve">
<g>
	<g>
		<polygon fill="#82BC00" points="197.574,187.432 197.574,232.762 211.435,187.036 243.957,187.036 243.957,140.508 25,140.508 
			25,187.432 		"/>
		<path fill="#82BC00" d="M221.322,198.986l-21.442,69.738h-13.252v-69.997H58.08v30.819h18.499v10.151H57.841v29.026H45.754
			v-28.348l0.026-10.545l-0.026-0.378v-30.983H25v161.012h218.957V198.986H221.322z M175.601,238.793
			c-2.782,18.444-21.149,32.234-46.622,32.234c-25.472,0-46.119-15.121-46.119-33.772s20.647-33.775,46.119-33.775
			c16.405,0,32.732,4.543,41.188,14.172l-6.043,8.971c-5.751-7.19-19.48-12.673-33.607-12.673c-20.57,0-37.213,10.535-37.213,23.533
			c0,12.994,16.643,23.528,37.213,23.528c18.66,0,28.917-8.35,33.662-20.37l-53.913-0.218v-10.41l65.31,0.146
			C176.052,232.845,176.052,235.723,175.601,238.793z"/>
	</g>
	<rect x="256.046" y="140.518" fill="#C6C7C8" width="218.954" height="218.975"/>
	<path fill-rule="evenodd" clip-rule="evenodd" d="M284.083,261.409h4.67c-0.875,4.281-3.95,4.664-4.882,4.664
		c-2.857,0-5.855-1.506-5.855-7.288c0-5.426,2.785-7.61,5.777-7.61c2.972,0,4.4,2.656,4.4,3.484h4.214
		c-0.238-2.925-2.677-7.139-8.826-7.139c-6.787-0.031-9.856,5.425-9.856,11.207c0,7.435,4.426,11.089,9.245,11.089
		c3.687,0,5.224-1.915,6.285-3.215l0.424,2.656h2.806v-11.415h-8.401"/>
	<rect x="296.119" y="248.08" width="4.188" height="21.178"/>
	<path fill-rule="evenodd" clip-rule="evenodd" d="M303.355,258.671c0,9.939,6.994,11.146,9.671,11.146
		c2.65,0,9.649-1.206,9.649-11.146c0-9.944-6.999-11.15-9.649-11.15C310.35,247.521,303.355,248.727,303.355,258.671
		 M307.57,258.671c0-5.933,3.178-7.408,5.456-7.408c2.257,0,5.461,1.476,5.461,7.408c0,5.928-3.204,7.402-5.461,7.402
		C310.748,266.073,307.57,264.599,307.57,258.671"/>
	<polyline fill-rule="evenodd" clip-rule="evenodd" points="331.952,264.122 331.9,264.122 327.578,248.08 323.074,248.08 
		329.86,269.258 333.862,269.258 340.701,248.08 336.326,248.08 	"/>
	<polyline fill-rule="evenodd" clip-rule="evenodd" points="358.167,248.08 343.377,248.08 343.377,269.258 358.644,269.258 
		358.644,265.515 347.514,265.515 347.514,260.027 357.318,260.027 357.318,256.279 347.514,256.279 347.514,251.822 
		358.167,251.822 	"/>
	<polyline fill-rule="evenodd" clip-rule="evenodd" points="374.359,262.828 374.308,262.828 366.331,248.08 361.904,248.08 
		361.904,269.258 365.823,269.258 365.823,254.157 365.88,254.157 374.096,269.258 378.284,269.258 378.284,248.08 374.359,248.08 	
		"/>
	<polyline fill-rule="evenodd" clip-rule="evenodd" points="396.625,265.515 386.049,265.515 396.573,251.563 396.573,248.08 
		381.198,248.08 381.198,251.822 391.298,251.822 380.908,265.515 380.908,269.258 396.625,269.258 	"/>
	<path fill-rule="evenodd" clip-rule="evenodd" d="M403.728,264.894h7.449l1.273,4.364h4.556l-7.077-21.178h-4.851l-7.18,21.178
		h4.452 M407.439,252.857h0.051l2.49,8.376h-5.114L407.439,252.857z"/>
	<polyline fill-rule="evenodd" clip-rule="evenodd" points="432.008,262.828 431.956,262.828 423.953,248.08 419.526,248.08 
		419.526,269.258 423.445,269.258 423.445,254.157 423.502,254.157 431.718,269.258 435.932,269.258 435.932,248.08 432.008,248.08 
			"/>
	<path fill-rule="evenodd" clip-rule="evenodd" d="M444.225,264.894h7.424l1.299,4.364h4.561l-7.076-21.178h-4.851l-7.186,21.178
		h4.427 M447.937,252.857h0.052l2.495,8.376h-5.114L447.937,252.857z"/>
	<polyline fill-rule="evenodd" clip-rule="evenodd" points="278.839,234.521 287.691,234.521 287.691,230.773 278.839,230.773 
		278.839,225.996 288.965,225.996 288.965,222.253 274.625,222.253 274.625,243.431 278.839,243.431 	"/>
	<path fill-rule="evenodd" clip-rule="evenodd" d="M291.719,232.84c0,9.938,6.999,11.15,9.675,11.15
		c2.651,0,9.676-1.212,9.676-11.15c0-9.939-7.024-11.151-9.676-11.151C298.718,221.688,291.719,222.9,291.719,232.84
		 M295.933,232.84c0-5.928,3.179-7.403,5.461-7.403c2.252,0,5.462,1.476,5.462,7.403c0,5.927-3.21,7.402-5.462,7.402
		C299.111,240.242,295.933,238.767,295.933,232.84"/>
	<path fill-rule="evenodd" clip-rule="evenodd" d="M315.283,243.431h4.131v-8.288h4.322c3.127,0,3.287,1.118,3.287,4.007
		c0,2.185,0.161,3.277,0.451,4.281h4.664v-0.564c-0.901-0.352-0.901-1.118-0.901-4.214c0-3.954-0.9-4.602-2.572-5.368
		c2.014-0.709,3.127-2.712,3.127-5.047c0-1.827-0.979-5.989-6.331-5.989h-10.178 M319.414,231.571v-5.663h5.224
		c2.464,0,2.94,1.651,2.94,2.77c0,2.096-1.057,2.894-3.23,2.894H319.414z"/>
	<polyline fill-rule="evenodd" clip-rule="evenodd" points="355.703,222.253 349.604,222.253 346.027,238.948 345.976,238.948 
		342.316,222.253 336.191,222.253 336.191,243.431 340.116,243.431 340.116,225.731 340.168,225.731 343.827,243.431 
		347.964,243.431 351.701,225.731 351.779,225.731 351.779,243.431 355.703,243.431 	"/>
	<polyline fill-rule="evenodd" clip-rule="evenodd" points="375.396,222.253 360.605,222.253 360.605,243.431 375.871,243.431 
		375.871,239.683 364.71,239.683 364.71,234.195 374.521,234.195 374.521,230.447 364.71,230.447 364.71,225.996 375.396,225.996 	
		"/>
	<polyline fill-rule="evenodd" clip-rule="evenodd" points="392.437,237.001 392.385,237.001 384.382,222.248 379.95,222.248 
		379.95,243.431 383.875,243.431 383.875,228.325 383.927,228.325 392.146,243.431 396.36,243.431 396.36,222.248 392.437,222.248 	
		"/>
	<polyline fill-rule="evenodd" clip-rule="evenodd" points="409.8,225.996 415.866,225.996 415.866,222.248 399.514,222.248 
		399.514,225.996 405.58,225.996 405.58,243.431 409.8,243.431 	"/>
	<rect x="418.89" y="222.253" width="4.214" height="21.178"/>
	<path fill-rule="evenodd" clip-rule="evenodd" d="M448.708,227.119c0,1.092-0.771,1.915-1.833,2.625
		c-0.952-1.093-1.454-1.947-1.454-2.656c0-1.118,0.74-1.713,1.614-1.713C447.993,225.375,448.708,225.938,448.708,227.119
		 M453.849,238.798c1.351-1.858,2.039-3.51,2.304-6.373h-3.495c-0.134,1.626-0.533,2.656-1.035,3.484l-2.837-3.717
		c0.798-0.502,3.313-2.065,3.313-5.042c0-3.396-2.702-4.902-4.929-4.902c-3.126,0-5.353,1.978-5.353,4.871
		c0,1.827,0.979,3.422,1.827,4.421l-0.424,0.27c-3.339,2.122-3.872,4.125-3.872,6.165c0,3.152,2.438,6.016,6.284,6.016
		c3.023,0,4.556-1.124,5.751-2.36l1.377,1.801h4.716L453.849,238.798z M449.37,239.036c-0.688,0.646-1.832,1.476-3.127,1.476
		c-2.334,0-2.971-1.978-2.971-2.807c0-1.682,0.745-2.267,2.386-3.54L449.37,239.036z"/>
</g>
</svg>
