<?xml version="1.0" encoding="utf-8"?>
<!-- Generator: Adobe Illustrator 16.0.0, SVG Export Plug-In . SVG Version: 6.00 Build 0)  -->
<!DOCTYPE svg PUBLIC "-//W3C//DTD SVG 1.1//EN" "http://www.w3.org/Graphics/SVG/1.1/DTD/svg11.dtd">
<svg version="1.1" id="Calque_1" xmlns="http://www.w3.org/2000/svg" xmlns:xlink="http://www.w3.org/1999/xlink" x="0px" y="0px"
	 width="500px" height="500px" viewBox="0 0 500 500" enable-background="new 0 0 500 500" xml:space="preserve">
<g>
	<rect x="25" y="211.087" fill="#E2001A" width="450" height="77.825"/>
	<path fill="#FFFFFF" d="M414.281,274.129c4.159,2.923,9.225,4.634,14.689,4.634c14.127,0,25.575-11.454,25.575-25.584
		c0-14.131-11.448-25.585-25.575-25.585c-5.296,0-10.218,1.608-14.302,4.369l7.251,9.265c2.067-1.218,4.478-1.92,7.051-1.92
		c7.657,0,13.858,6.211,13.858,13.872s-6.201,13.868-13.858,13.868c-2.979,0-5.739-0.938-8-2.536L414.281,274.129z"/>
	<polygon fill="#FFFFFF" points="367.803,230.364 401.278,230.364 420.302,252.142 403.183,274.304 368.939,274.304 
		386.727,252.716 	"/>
	<g>
		<polygon fill="#FFFFFF" points="200.754,230.798 234.63,230.798 230.552,242.527 208.911,242.527 206.406,249.56 221.146,249.56 
			218.629,259.94 203.89,259.94 199.499,275.016 187.583,275.016 		"/>
		<polygon fill="#FFFFFF" points="237.765,230.464 248.114,230.464 236.197,275.685 223.962,275.685 		"/>
		<polygon fill="#FFFFFF" points="312.093,230.464 325.265,230.464 327.775,254.584 342.82,229.461 357.254,229.461 344.707,276.69 
			334.046,276.69 340.004,252.573 326.514,276.022 318.051,276.022 315.54,252.573 308.951,276.022 298.296,276.022 		"/>
		<polygon fill="#FFFFFF" points="257.207,230.464 270.386,230.464 272.89,254.584 287.947,229.461 302.375,229.461 289.827,276.69 
			279.167,276.69 285.125,252.573 271.641,276.022 263.172,276.022 260.661,252.573 254.072,276.022 243.411,276.022 		"/>
	</g>
</g>
</svg>
