<?xml version="1.0" encoding="utf-8"?>
<!-- Generator: Adobe Illustrator 16.0.0, SVG Export Plug-In . SVG Version: 6.00 Build 0)  -->
<!DOCTYPE svg PUBLIC "-//W3C//DTD SVG 1.1//EN" "http://www.w3.org/Graphics/SVG/1.1/DTD/svg11.dtd">
<svg version="1.1" id="Calque_2" xmlns="http://www.w3.org/2000/svg" xmlns:xlink="http://www.w3.org/1999/xlink" x="0px" y="0px"
	 width="500px" height="500px" viewBox="0 0 500 500" enable-background="new 0 0 500 500" xml:space="preserve">
<g>
	<path fill="#38AADD" d="M76.942,198.287C48.421,198.413,25.379,221.248,25,249.77c0.127,28.65,23.294,51.816,51.942,51.943
		c28.779,0.125,52.535-23.168,52.406-51.943C129.221,221.12,105.594,198.161,76.942,198.287z M82.169,209.083v63.892L66.187,255.61
		c1.854,0.387,3.357-0.115,4.611-1.537c1.142-1.299,1.227-2.305,1.073-4.303v-40.71c1.663-0.205,3.353-0.323,5.071-0.323
		C78.714,208.736,80.456,208.863,82.169,209.083z M61.576,211.726v32.819H36.381C38.23,229.592,48.116,217.182,61.576,211.726z
		 M76.942,290.495c-20.603,0.076-37.737-15.08-40.721-34.885h13.521l26.279,25.662c3.997,4.457,7.306,7.244,11.834,5.072
		c2.822-1.354,4.303-3.227,4.763-6.453v-36.268h12.296c2.702-0.232,4.685-2.216,4.917-4.918c0.256-2.966-1.952-5.585-4.917-5.84
		H92.618v-20.993c14.828,6.187,25.269,20.861,25.204,37.898C117.739,272.27,99.446,290.409,76.942,290.495z"/>
	<path fill="#38AADD" d="M412.272,243.623h18.75v3.688c0,0,7.839-6.607,20.285-3.842c13.371,3.074,10.449,21.053,10.449,21.053
		h-19.821c0,0,0.308-1.229,0-2.611c-0.156-2.305-1.383-5.225-5.996-4.918c-4.917,0.768-4.917,5.379-4.917,5.379v23.357h-18.75
		V243.623"/>
	<path fill="#38AADD" d="M214.025,243.579h19.625v4.892c0,0,7.293-5.251,21.002-5.251c8.982,0,18.084,4.203,18.081,13.294
		c0,0.686,0,29.172,0,29.172h-19.362c0,0-0.011-18.84-0.011-20.256c0-4.156-3.638-7.123-9.005-6.742
		c-10.995,0.783-10.705,9.117-10.705,9.117v17.881h-19.625V243.579"/>
	<path fill="#38AADD" d="M176.991,239.013v-9.835c0,0-11.067,0-16.292,0c-5.377,0-9.834,4.456-9.834,9.835v4.61h-5.84v11.987h5.84
		v30.119h19.517V255.61h6.61v-11.987h-7.225c0-2.765,0.614-4.61,3.382-4.61C175.608,239.013,176.991,239.013,176.991,239.013"/>
	<rect x="184.828" y="243.623" fill="#38AADD" width="19.825" height="42.106"/>
	<rect x="184.828" y="229.176" fill="#38AADD" width="19.825" height="9.683"/>
	<path fill="#38AADD" d="M468.871,239.344c-3.428,0-6.134,2.705-6.134,6.096c0,3.393,2.706,6.096,6.134,6.096
		c3.424,0,6.13-2.703,6.13-6.096C475,242.049,472.294,239.344,468.871,239.344 M468.871,250.598c-2.805,0-5.196-2.281-5.196-5.158
		c0-2.875,2.392-5.156,5.196-5.156c2.8,0,5.192,2.281,5.192,5.156C474.063,248.317,471.67,250.598,468.871,250.598z"/>
	<path fill="#38AADD" d="M471.872,243.83c0-1.438-1.173-1.764-2.374-1.764h-2.915v6.672h0.941v-3.079h1.127l2.003,3.079h1.124
		l-2.02-3.079C470.949,245.627,471.872,245.144,471.872,243.83 M468.651,244.722h-1.127v-1.719h1.781
		c0.72,0,1.626,0.124,1.626,0.811C470.931,244.878,469.477,244.722,468.651,244.722z"/>
	<path fill="#38AADD" d="M319.452,229.302v15.958c-4.138-2.019-8.979-3.182-14.154-3.182c-15.223,0-27.563,10.04-27.563,22.426
		c0,12.385,12.34,22.426,27.563,22.426c5.176,0,10.017-1.164,14.154-3.182v2.152h19.504v-56.599H319.452z M308.906,272.704
		c-5.824,0-10.546-3.928-10.546-8.77c0-4.844,4.722-8.771,10.546-8.771s10.546,3.928,10.546,8.771
		C319.452,268.776,314.73,272.704,308.906,272.704z"/>
	<path fill="#38AADD" d="M404.255,268.305h2.381c0.171-1.232,0.258-2.494,0.258-3.781c0-12.902-10.159-23.361-31.271-23.361
		c-21.639,0-31.271,10.458-31.271,23.361c0,12.9,10.257,23.359,31.271,23.359c17.874,0,26.855-6.326,29.968-15.203h-21.045
		c-1.907,1.953-4.788,3.154-8.923,3.154c-6.11,0-9.843-3.115-11.291-7.529h22.683H404.255z M375.624,251.68
		c5.999,0,9.686,2.975,11.193,7.229H364.4C365.861,254.655,369.475,251.68,375.624,251.68z"/>
</g>
</svg>
