<?xml version="1.0" encoding="utf-8"?>
<!-- Generator: Adobe Illustrator 16.0.0, SVG Export Plug-In . SVG Version: 6.00 Build 0)  -->
<!DOCTYPE svg PUBLIC "-//W3C//DTD SVG 1.1//EN" "http://www.w3.org/Graphics/SVG/1.1/DTD/svg11.dtd">
<svg version="1.1" id="Calque_2" xmlns="http://www.w3.org/2000/svg" xmlns:xlink="http://www.w3.org/1999/xlink" x="0px" y="0px"
	 width="500px" height="500px" viewBox="0 0 500 500" enable-background="new 0 0 500 500" xml:space="preserve">
<g>
	<path fill="#E2001A" d="M162.329,215.404h43.856v13.856h-26.04v11.26h22.242v13.019h-22.242v26.346h-17.816V215.404z"/>
	<path fill="#E2001A" d="M215.857,215.404h15.976v64.481h-15.976V215.404z"/>
	<path fill="#E2001A" d="M256.539,248.305l-15.23-1.803c0.574-2.991,1.402-5.344,2.487-7.06c1.083-1.715,2.643-3.203,4.678-4.465
		c1.461-0.909,3.473-1.612,6.03-2.111c2.56-0.499,5.326-0.748,8.303-0.748c4.775,0,8.613,0.301,11.511,0.901
		c2.9,0.602,5.314,1.855,7.247,3.76c1.354,1.32,2.426,3.189,3.21,5.609c0.781,2.419,1.175,4.728,1.175,6.927v20.627
		c0,2.2,0.123,3.922,0.371,5.17c0.249,1.247,0.789,2.835,1.627,4.771h-14.962c-0.601-1.201-0.991-2.116-1.175-2.747
		c-0.18-0.632-0.363-1.623-0.547-2.97c-2.09,2.258-4.163,3.868-6.226,4.837c-2.82,1.289-6.096,1.936-9.827,1.936
		c-4.963,0-8.727-1.289-11.298-3.868c-2.571-2.583-3.857-5.763-3.857-9.547c0-3.547,0.926-6.465,2.78-8.751
		c1.854-2.288,5.273-3.987,10.26-5.104c5.977-1.348,9.853-2.292,11.628-2.836c1.776-0.543,3.654-1.254,5.641-2.133
		c0-2.199-0.405-3.738-1.213-4.618c-0.812-0.88-2.234-1.319-4.271-1.319c-2.609,0-4.568,0.469-5.874,1.407
		C257.989,244.903,257.167,246.282,256.539,248.305z M270.364,257.718c-2.192,0.88-4.477,1.657-6.854,2.33
		c-3.237,0.969-5.284,1.921-6.148,2.858c-0.888,0.969-1.332,2.07-1.332,3.299c0,1.408,0.44,2.56,1.313,3.455
		c0.876,0.896,2.162,1.34,3.857,1.34c1.775,0,3.428-0.482,4.955-1.45c1.526-0.969,2.609-2.147,3.249-3.54
		c0.639-1.393,0.96-3.204,0.96-5.434V257.718z"/>
	<path fill="#E2001A" d="M295.619,233.174H310.5v6.818c2.143-2.844,4.305-4.867,6.49-6.07c2.181-1.202,4.817-1.803,7.901-1.803
		c3.317,0,5.946,0.659,7.883,1.979c1.932,1.319,3.517,3.284,4.744,5.894c2.503-3.049,4.783-5.125,6.842-6.224
		c2.059-1.1,4.604-1.649,7.626-1.649c4.458,0,7.937,1.489,10.439,4.464c2.502,2.977,3.757,7.632,3.757,13.964v29.338h-15.979
		v-26.609c0-2.112-0.364-3.68-1.091-4.707c-1.067-1.613-2.396-2.419-3.979-2.419c-1.875,0-3.383,0.763-4.527,2.288
		c-1.147,1.525-1.718,3.974-1.718,7.345v24.103h-15.976v-25.729c0-2.053-0.107-3.445-0.313-4.179
		c-0.345-1.172-0.93-2.118-1.771-2.837c-0.838-0.717-1.818-1.077-2.946-1.077c-1.833,0-3.341,0.778-4.52,2.332
		c-1.179,1.554-1.768,4.106-1.768,7.653v23.839h-15.976V233.174z"/>
	<path fill="#E2001A" d="M427.227,256.662c0-7.126,2.143-12.998,6.425-17.616c4.278-4.619,10.06-6.927,17.346-6.927
		c8.326,0,14.617,2.712,18.872,8.137c3.421,4.369,5.131,9.75,5.131,16.142c0,7.187-2.119,13.071-6.363,17.659
		c-4.243,4.592-10.109,6.884-17.602,6.884c-6.681,0-12.088-1.905-16.209-5.717C429.76,270.502,427.227,264.314,427.227,256.662z
		 M443.202,256.618c0,4.165,0.75,7.241,2.254,9.235c1.5,1.997,3.387,2.992,5.659,2.992c2.296,0,4.183-0.983,5.655-2.946
		c1.478-1.964,2.212-5.116,2.212-9.458c0-4.046-0.742-7.06-2.23-9.039c-1.488-1.979-3.329-2.968-5.521-2.968
		c-2.323,0-4.24,1.004-5.755,3.012C443.96,249.456,443.202,252.514,443.202,256.618z"/>
	<path fill="#E2001A" d="M404.934,261.787c-0.367,1.697-0.934,3.075-1.71,4.112c-1.478,1.963-3.364,2.946-5.66,2.946
		c-2.269,0-4.155-0.995-5.659-2.992c-1.5-1.994-2.25-5.07-2.25-9.235c0-4.104,0.758-7.163,2.27-9.171
		c1.515-2.008,3.436-3.012,5.759-3.012c2.192,0,4.033,0.989,5.521,2.968c0.662,0.879,1.151,1.996,1.516,3.282h16.205
		c-0.739-3.948-2.258-7.432-4.604-10.429c-4.255-5.425-10.546-8.137-18.876-8.137c-7.282,0-13.063,2.309-17.346,6.927
		c-4.281,4.618-6.421,10.49-6.421,17.616c0,7.652,2.529,13.84,7.596,18.562c4.125,3.812,9.528,5.717,16.213,5.717
		c7.492,0,13.358-2.292,17.598-6.884c3.131-3.382,5.094-7.477,5.916-12.27H404.934z"/>
	<g>
		<g>
			
				<rect x="15.085" y="200.429" transform="matrix(0.7071 -0.7071 0.7071 0.7071 -127.3898 95.7135)" fill="#E2001A" width="73.516" height="2.405"/>
			
				<rect x="18.677" y="204.02" transform="matrix(0.7071 -0.7071 0.7071 0.7071 -128.8766 99.3044)" fill="#E2001A" width="73.515" height="2.405"/>
			
				<rect x="22.27" y="207.612" transform="matrix(0.7071 -0.7071 0.7071 0.7071 -130.3643 102.8969)" fill="#E2001A" width="73.515" height="2.405"/>
			
				<rect x="25.862" y="211.203" transform="matrix(0.7071 -0.7071 0.7071 0.7071 -131.8514 106.4888)" fill="#E2001A" width="73.516" height="2.405"/>
			
				<rect x="29.454" y="214.794" transform="matrix(0.7071 -0.7071 0.7071 0.7071 -133.3389 110.0804)" fill="#E2001A" width="73.515" height="2.405"/>
			
				<rect x="50.754" y="225.916" transform="matrix(-0.7075 -0.7067 0.7067 -0.7075 -79.079 442.1396)" fill="#E2001A" width="2.405" height="23.036"/>
			
				<rect x="87.487" y="190.653" transform="matrix(0.7073 0.7069 -0.7069 0.7073 167.8351 -3.9511)" fill="#E2001A" width="2.404" height="20.097"/>
			
				<rect x="91.079" y="194.244" transform="matrix(0.7072 0.707 -0.707 0.7072 171.4556 -5.428)" fill="#E2001A" width="2.405" height="20.098"/>
			
				<rect x="54.345" y="229.508" transform="matrix(-0.7077 -0.7065 0.7065 -0.7077 -75.4241 450.8477)" fill="#E2001A" width="2.405" height="23.035"/>
			
				<rect x="57.938" y="233.1" transform="matrix(-0.7076 -0.7066 0.7066 -0.7076 -71.8575 459.4998)" fill="#E2001A" width="2.405" height="23.035"/>
			
				<rect x="94.671" y="197.835" transform="matrix(0.7074 0.7068 -0.7068 0.7074 174.9845 -6.9388)" fill="#E2001A" width="2.405" height="20.098"/>
			
				<rect x="61.529" y="236.691" transform="matrix(-0.7076 -0.7066 0.7066 -0.7076 -68.262 468.1697)" fill="#E2001A" width="2.405" height="23.033"/>
			
				<rect x="98.263" y="201.426" transform="matrix(0.7073 0.7069 -0.7069 0.7073 178.6052 -8.4152)" fill="#E2001A" width="2.404" height="20.099"/>
			
				<rect x="54.807" y="250.597" transform="matrix(0.7071 -0.7071 0.7071 0.7071 -158.6228 120.6487)" fill="#E2001A" width="23.036" height="2.405"/>
			
				<rect x="101.854" y="205.017" transform="matrix(0.7072 0.707 -0.707 0.7072 182.2278 -9.8919)" fill="#E2001A" width="2.405" height="20.1"/>
			
				<rect x="51.006" y="236.341" transform="matrix(0.7071 -0.7071 0.7071 0.7071 -142.2618 131.631)" fill="#E2001A" width="73.515" height="2.405"/>
			
				<rect x="54.599" y="239.931" transform="matrix(0.7071 -0.7071 0.7071 0.7071 -143.7479 135.2207)" fill="#E2001A" width="73.515" height="2.405"/>
			
				<rect x="58.19" y="243.523" transform="matrix(0.7071 -0.7071 0.7071 0.7071 -145.2368 138.8156)" fill="#E2001A" width="73.515" height="2.405"/>
			
				<rect x="61.783" y="247.114" transform="matrix(0.7071 -0.7071 0.7071 0.7071 -146.7234 142.4064)" fill="#E2001A" width="73.515" height="2.405"/>
			
				<rect x="65.375" y="250.705" transform="matrix(0.7071 -0.7071 0.7071 0.7071 -148.2106 145.9983)" fill="#E2001A" width="73.516" height="2.404"/>
		</g>
		<polygon fill="#E2001A" points="76.984,219.679 63.729,232.933 93.216,262.526 93.215,262.526 101.924,271.357 78.55,294.731 
			55.478,271.662 62.651,264.489 47.438,249.223 25,271.662 78.55,325.209 130.532,273.227 		"/>
	</g>
</g>
</svg>
