<?xml version="1.0" encoding="utf-8"?>
<!-- Generator: Adobe Illustrator 16.0.0, SVG Export Plug-In . SVG Version: 6.00 Build 0)  -->
<!DOCTYPE svg PUBLIC "-//W3C//DTD SVG 1.1//EN" "http://www.w3.org/Graphics/SVG/1.1/DTD/svg11.dtd">
<svg version="1.1" id="Calque_1" xmlns="http://www.w3.org/2000/svg" xmlns:xlink="http://www.w3.org/1999/xlink" x="0px" y="0px"
	 width="500px" height="500px" viewBox="0 0 500 500" enable-background="new 0 0 500 500" xml:space="preserve">
<g>
	<radialGradient id="SVGID_1_" cx="379.3994" cy="250" r="95.6006" gradientUnits="userSpaceOnUse">
		<stop  offset="0.6957" style="stop-color:#F5A244"/>
		<stop  offset="1" style="stop-color:#F5A244;stop-opacity:0"/>
	</radialGradient>
	<circle fill="url(#SVGID_1_)" cx="379.399" cy="250" r="95.601"/>
	<g>
		<path fill="#FFFFFF" d="M319.308,212.956H25.305v2.094h294.34c17.396,0,31.482,16.122,31.482,35.998
			c0,16.087-9.218,29.71-21.945,34.333c12.452-4.19,21.581-16.335,23.154-30.94c0.155-1.473,0.248-2.973,0.248-4.492
			C352.584,229.514,338.993,212.956,319.308,212.956"/>
		<path fill="#9C9E9F" d="M329.266,285.716l-0.177-0.667c13-4.721,21.733-18.385,21.733-34.001c0-19.656-13.988-35.65-31.178-35.65
			H25v-2.791h294.308c19.144,0,33.581,16.054,33.581,37.341c0,1.451-0.082,2.935-0.251,4.535
			C351.051,269.215,341.876,281.474,329.266,285.716z M25.61,214.701h294.035c17.527,0,31.787,16.305,31.787,36.347
			c0,8.317-2.431,16.095-6.643,22.308c3.901-5.295,6.477-11.831,7.244-18.956c0.164-1.571,0.245-3.027,0.245-4.451
			c0-20.889-14.173-36.644-32.971-36.644H25.61V214.701z"/>
	</g>
	<g>
		<path fill="#D9DADB" d="M25.308,215.052v71.897l294.337,0.116c3.324,0,6.526-0.593,9.537-1.688
			c12.725-4.62,21.945-18.246,21.945-34.33c0-19.876-14.086-35.996-31.482-35.996H25.308z"/>
	</g>
	<path fill="#F5A244" d="M319.027,286.949H25.308v4.608l295.576,0.027c17.388,0,31.477-15.942,31.477-35.821
		c0-0.444-0.014-0.885-0.024-1.32C350.362,272.789,336.473,287.259,319.027,286.949"/>
	<g>
		<defs>
			<path id="SVGID_2_" d="M355.616,191.816h0.139c28.539,4.636,50.327,29.386,50.327,59.231c0,29.934-21.907,54.729-50.531,59.275
				l0.142-0.017c3.131,0.479,6.327,0.752,9.589,0.752c33.121,0,60.008-26.873,60.008-60.011c0-33.126-26.887-59.994-60.008-59.994
				C362.009,191.054,358.785,191.318,355.616,191.816"/>
		</defs>
		<clipPath id="SVGID_3_">
			<use xlink:href="#SVGID_2_"  overflow="visible"/>
		</clipPath>
		
			<linearGradient id="SVGID_4_" gradientUnits="userSpaceOnUse" x1="-391.7646" y1="715.207" x2="-388.9761" y2="715.207" gradientTransform="matrix(234.0275 -5.1355 -5.1355 -234.0275 95253.875 165628.25)">
			<stop  offset="0" style="stop-color:#B1B2B5"/>
			<stop  offset="0.255" style="stop-color:#AAADAE"/>
			<stop  offset="0.2753" style="stop-color:#A9ACAE"/>
			<stop  offset="0.4382" style="stop-color:#EBECED"/>
			<stop  offset="0.6292" style="stop-color:#C5C6C8"/>
			<stop  offset="0.6687" style="stop-color:#D7D7D8"/>
			<stop  offset="0.7416" style="stop-color:#FFFFFF"/>
			<stop  offset="0.8161" style="stop-color:#C3C3C5"/>
			<stop  offset="0.8539" style="stop-color:#A8AAAC"/>
			<stop  offset="1" style="stop-color:#B2B4B6"/>
		</linearGradient>
		<polygon clip-path="url(#SVGID_3_)" fill="url(#SVGID_4_)" points="352.921,191.114 425.253,189.527 427.918,310.999 
			355.584,312.583 		"/>
	</g>
	<g>
		<defs>
			<path id="SVGID_5_" d="M328.354,201.293h0.123c23.971,3.901,42.269,24.69,42.269,49.755c0,25.134-18.391,45.99-42.451,49.791
				h0.125c2.633,0.408,5.314,0.609,8.056,0.609c27.843,0,50.4-22.55,50.4-50.4c0-27.831-22.558-50.392-50.4-50.392
				C333.723,200.656,331.038,200.874,328.354,201.293"/>
		</defs>
		<clipPath id="SVGID_6_">
			<use xlink:href="#SVGID_5_"  overflow="visible"/>
		</clipPath>
		
			<linearGradient id="SVGID_7_" gradientUnits="userSpaceOnUse" x1="-391.3779" y1="715.4404" x2="-388.5894" y2="715.4404" gradientTransform="matrix(196.6005 -4.3142 -4.3142 -196.6005 79975.125 139227.625)">
			<stop  offset="0" style="stop-color:#B1B2B5"/>
			<stop  offset="0.255" style="stop-color:#AAADAE"/>
			<stop  offset="0.2753" style="stop-color:#A9ACAE"/>
			<stop  offset="0.4382" style="stop-color:#EBECED"/>
			<stop  offset="0.6292" style="stop-color:#C5C6C8"/>
			<stop  offset="0.6687" style="stop-color:#D7D7D8"/>
			<stop  offset="0.7416" style="stop-color:#FFFFFF"/>
			<stop  offset="0.8161" style="stop-color:#C3C3C5"/>
			<stop  offset="0.8539" style="stop-color:#A8AAAC"/>
			<stop  offset="1" style="stop-color:#B2B4B6"/>
		</linearGradient>
		<polygon clip-path="url(#SVGID_6_)" fill="url(#SVGID_7_)" points="326.084,200.705 386.848,199.371 389.086,301.399 
			328.321,302.733 		"/>
	</g>
	<path fill="#FFFFFF" d="M366.329,191.267c-0.352,0-0.727,0.016-1.092,0.016c32.751,0.458,59.164,27.121,59.164,59.983
		c0,32.847-26.408,59.499-59.137,59.983c0.349,0,0.713,0.021,1.064,0.021c33.146,0,60.013-26.856,60.013-60.005
		C426.342,218.134,399.475,191.267,366.329,191.267"/>
	<path fill="#FFFFFF" d="M337.534,200.869c-0.37,0-0.729,0.005-1.084,0.019c27.442,0.449,49.551,22.813,49.551,50.378
		c0,27.551-22.114,49.927-49.566,50.373c0.359,0.006,0.724,0.033,1.1,0.033c27.839,0,50.402-22.563,50.402-50.406
		C387.937,223.426,365.373,200.869,337.534,200.869"/>
	<polygon points="60.639,272.871 71.153,272.871 71.153,254.064 81.229,254.064 81.229,245.625 71.083,245.625 71.088,244.898 
		71.083,244.898 71.083,237.327 83.548,237.327 84.322,228.569 60.639,228.569 	"/>
	<path d="M98.266,244.392c0-0.49,0.017-1.11,0-1.699l-0.005,0.011c0-1.062-0.239-2.146-0.487-3.117l-9.523,1.633
		c0.898,3.621,1.032,7.821,1.032,12.098v19.55h10.207v-22.806c0.765-1.364,2.001-2.396,3.934-2.396c1.293,0,2.132,0.267,3.303,0.915
		l2.48-8.682c-0.931-0.387-2.018-0.596-3.057-0.615C102.175,239.219,99.608,242.601,98.266,244.392"/>
	<polygon points="113.901,272.871 124.118,272.871 124.118,239.9 113.901,240.785 	"/>
	<path d="M159.91,256.978c0.043-7.8-1.99-13.457-6.687-16.269c-2.15-0.888-4.794-1.285-7.337-1.285
		c-9.417,0-15.167,6.706-15.167,17.693c0,6.387,2.083,11.255,5.965,14.184c2.543,1.563,5.728,2.41,9.54,2.41
		c4.977,0,9.079-1.364,13.566-4.786l-3.637-5.426c-2.657,1.862-5.821,3.027-8.453,3.057c-1.539,0.017-3.373-0.501-4.536-1.889
		c-1.546-1.348-1.857-3.551-1.857-4.917h18.603V256.978z M141.329,253.177l-0.011-0.713h-0.011c0-4.481,1.544-5.938,3.934-5.938
		c0.539,0,1.007,0.092,1.418,0.264c2.382,0.722,3.267,2.93,3.183,6.387H141.329z"/>
	<path d="M214.075,265.894c-2.516,0-2.704-1.549-2.704-7.44v-24.73c0-3.036,0.199-5.519,0.035-7.438h-10.285
		c0,2.779,0.038,9.441,0.038,13.841v22.74c0,4.162,0.087,7.637,2.48,9.651c1.418,0.77,3.4,1.192,6.191,1.192
		c3.074,0,5.742-0.463,7.209-1.032l-1.81-6.985C214.854,265.836,214.461,265.894,214.075,265.894"/>
	<path d="M247.065,261.429l0.117-11.494c0-2.456-0.065-3.684-0.506-5.17c-0.615-1.946-2.017-3.452-4.035-4.47
		c-1.924-0.773-4.307-1.17-7.045-1.17c-5.494,0-10.849,2.183-14.981,4.696l3.702,6.161c2.66-1.892,5.42-3.084,8.914-3.084
		c0.544,0,0.972,0.057,1.323,0.166c1.966,0.313,2.458,1.522,2.434,3.352v2.363c-0.332-0.058-1.416-0.058-1.875-0.058
		c-9.3,0-14.783,4.527-14.783,10.854c0,3.425,1.057,6.493,3.526,8.485c1.723,1.037,3.977,1.652,6.866,1.652
		c3.934,0,6.711-1.432,8.328-2.784c0.525,1.037,2.521,2.784,4.132,3.297l6.46-6.268
		C247.329,266.454,247.065,264.206,247.065,261.429z M236.987,265.58c-0.395,0.512-1.647,1.073-2.611,1.067
		c-1.203-0.008-2.143-0.454-2.902-1.211c-0.814-0.542-1.274-1.5-1.274-2.709c0-1.882,0.975-3.689,5.339-3.689
		c0,0,0.925-0.005,1.448,0V265.58z"/>
	<path d="M121.883,225.332c-0.65-0.22-1.334-0.367-2.063-0.367c-3.697,0-6.697,2.894-6.716,6.458
		c-0.011,2.096,0.907,3.738,2.298,4.897c0.901,0.482,1.93,0.757,3.011,0.757c3.616,0,6.526-2.839,6.526-6.338
		C124.938,228.449,123.723,226.44,121.883,225.332"/>
	<path d="M193.322,259.621l0.038-33.336h-10.261l0.024,8.998c0,1.685,0.196,4.318,0.381,5.306c-0.907-0.59-2.837-1.165-4.451-1.165
		c-9.88,0-14.333,8.379-14.333,18.148c0,6.694,1.927,11.638,5.504,14.391c1.898,1.144,4.182,1.75,6.82,1.75
		c3.352,0,5.693-1.034,7.233-2.85c0.074,0.582,0.183,1.228,0.523,2.006h9.751C193.575,270.279,193.322,268.082,193.322,259.621z
		 M183.124,264.864c-0.386,0.588-1.293,1.095-2.456,1.111c-1.304,0.021-2.363-0.776-2.896-1.269h0.014
		c-1.601-1.139-1.906-4-1.906-7.672c0-7.547,0.893-9.689,3.812-9.689c0.471,0,0.939,0.128,1.345,0.327
		c0.876,0.286,1.835,1.056,2.088,1.693V264.864z"/>
	<path d="M279.721,240.161c-1.225-0.441-2.685-0.83-4.509-0.876c-4.808-0.123-7.846,1.127-11.115,3.289
		c-0.011-0.223-0.019-0.468-0.027-0.722l-0.008,0.006c-0.055-0.738-0.231-1.609-0.42-2.328l-9.52,1.691
		c0.844,3.547,1.04,7.166,1.04,11.178v20.47h10.187v-23.013c1.55-1.347,2.84-1.922,3.689-1.922c0.588,0,1.113,0,1.546,0.177
		c1.209,0.25,2.162,0.718,2.162,3.697v21.061h10.296v-24.997C283.042,244.866,282.367,241.874,279.721,240.161"/>
	<path d="M316.811,259.621l0.044-33.336h-10.258l0.021,8.998c0,1.685,0.196,4.318,0.381,5.306c-0.909-0.59-2.837-1.165-4.453-1.165
		c-9.877,0-14.334,8.379-14.334,18.148c0,6.694,1.931,11.638,5.508,14.391c1.895,1.144,4.182,1.75,6.816,1.75
		c3.349,0,5.69-1.034,7.236-2.85c0.076,0.582,0.18,1.228,0.522,2.006h9.752C317.066,270.279,316.811,268.082,316.811,259.621z
		 M306.618,264.864c-0.392,0.588-1.296,1.095-2.456,1.111c-1.307,0.021-2.371-0.776-2.901-1.269h0.021
		c-1.601-1.139-1.905-4-1.905-7.672c0-7.547,0.893-9.689,3.809-9.689c0.474,0,0.938,0.128,1.342,0.327
		c0.882,0.286,1.835,1.056,2.091,1.693V264.864z"/>
	<path fill="#F5A244" d="M235.599,239.124c2.736,0,5.121,0.397,7.042,1.17c-2.069-1.051-4.789-1.595-7.99-1.595
		c-5.491,0-10.852,2.186-14.984,4.704l4.081,6.989l0.566-0.411l-3.697-6.158C224.747,241.307,230.102,239.124,235.599,239.124"/>
	<path fill="#F5A244" d="M220.328,263.574c0-6.327,5.486-10.854,14.783-10.854c0.46,0,1.546,0,1.875,0.058v-2.363
		c0.024-1.83-0.468-3.039-2.431-3.352c1.233,0.381,1.396,1.421,1.396,2.935v2.05c-0.337-0.049-1.421-0.049-1.887-0.049
		c-9.286,0-14.777,4.533-14.777,10.849c0,3.86,1.35,7.286,4.565,9.216C221.385,270.067,220.328,266.999,220.328,263.574"/>
	<path fill="#F5A244" d="M235.952,259.041v5.807c-0.403,0.515-1.688,1.095-2.66,1.095c-0.721,0-1.334-0.177-1.818-0.504
		c0.759,0.752,1.699,1.201,2.902,1.209c0.964,0.006,2.216-0.556,2.611-1.067v-6.539
		C236.464,259.036,235.808,259.038,235.952,259.041"/>
	<path fill="#F5A244" d="M130.72,257.116c0-10.987,5.752-17.693,15.169-17.693c2.537,0,5.184,0.397,7.337,1.288
		c-2.191-1.315-4.958-2.012-8.369-2.012c-9.422,0-15.183,6.708-15.183,17.695c0,6.935,2.442,12.094,7.007,14.905
		C132.8,268.371,130.72,263.503,130.72,257.116"/>
	<path fill="#F5A244" d="M201.16,262.866v-22.74c0-4.397-0.038-11.062-0.038-13.841h10.285c-0.016-0.248-0.043-0.49-0.076-0.716
		h-11.26c0,2.763,0.049,9.433,0.049,13.827v22.735c0,4.702,0.104,8.538,3.518,10.387C201.247,270.503,201.16,267.028,201.16,262.866
		"/>
	<path fill="#F5A244" d="M146.66,246.788c1.636,0.691,2.241,2.72,2.148,5.676h-0.406h-7.083l0.011,0.71h8.513
		C149.927,249.72,149.044,247.512,146.66,246.788"/>
	<path fill="#F5A244" d="M147.7,266.555c2.632-0.029,5.793-1.194,8.45-3.057l-0.697-1.037c-2.908,2.265-5.889,3.373-8.783,3.373
		c-1.59,0-2.711-0.472-3.506-1.168C144.327,266.057,146.159,266.571,147.7,266.555"/>
	<polygon fill="#F5A244" points="59.602,227.851 59.602,272.868 60.642,272.868 60.642,228.569 84.324,228.569 84.39,227.851 	"/>
	<polygon fill="#F5A244" points="81.229,245.625 81.229,244.898 71.091,244.898 71.085,245.625 	"/>
	<path fill="#F5A244" d="M105.104,238.555c-3.55,0-5.502,2.322-6.836,4.138c0.011,0.585-0.003,1.209-0.003,1.699
		c1.345-1.791,3.91-5.172,7.882-5.107c1.04,0.021,2.126,0.229,3.054,0.615l0.104-0.362
		C107.753,238.879,106.725,238.555,105.104,238.555"/>
	<polygon fill="#F5A244" points="112.863,240.052 112.863,272.868 113.901,272.868 113.901,240.785 124.115,239.9 124.115,239.012 	
		"/>
	<path fill="#F5A244" d="M88.25,241.22l9.523-1.633c-0.071-0.289-0.149-0.566-0.215-0.828l-10.348,1.74
		c0.896,3.618,1.026,7.818,1.026,12.087v20.282h1.045v-19.55C89.282,249.042,89.146,244.841,88.25,241.22"/>
	<path fill="#F5A244" d="M113.103,231.422c0.022-3.566,3.019-6.455,6.713-6.455c0.735,0,1.413,0.145,2.066,0.365
		c-0.947-0.572-2.066-0.912-3.27-0.912c-3.637,0-6.594,2.842-6.594,6.319c0,2.412,1.38,4.506,3.381,5.579
		C114.007,235.157,113.092,233.519,113.103,231.422"/>
	<path fill="#F5A244" d="M270.584,248.111c0.757,0.31,1.22,1.143,1.22,3.433v21.324h0.942v-21.061
		C272.746,248.829,271.79,248.361,270.584,248.111"/>
	<path fill="#F5A244" d="M275.212,239.285c1.824,0.046,3.284,0.433,4.509,0.876c-1.394-0.909-3.335-1.465-6.033-1.465
		c-4.389,0-7.432,1.549-9.618,3.155c0.009,0.256,0.017,0.501,0.027,0.725C267.366,240.412,270.404,239.162,275.212,239.285"/>
	<path fill="#F5A244" d="M254.122,241.22l9.52-1.691c-0.076-0.286-0.152-0.547-0.22-0.77l-10.343,1.74
		c0.841,3.55,1.037,7.168,1.037,11.178v21.191h1.046v-20.473C255.162,248.386,254.969,244.765,254.122,241.22"/>
	<path fill="#F5A244" d="M181.036,247.672c0.479,0.234,0.874,0.58,1.051,0.961v15.496c-0.392,0.597-1.291,1.119-2.458,1.119
		c-0.757,0-1.361-0.193-1.843-0.541h-0.014c0.534,0.492,1.593,1.29,2.896,1.269c1.163-0.017,2.069-0.521,2.456-1.111v-15.499
		C182.868,248.731,181.912,247.958,181.036,247.672"/>
	<path fill="#F5A244" d="M164.72,257.568c0-9.763,4.454-18.145,14.333-18.145c1.614,0,3.542,0.575,4.451,1.165
		c-0.185-0.988-0.381-3.618-0.381-5.306l-0.024-8.995h10.261l0.003-0.719h-11.304l0.027,8.99c0,1.674,0.188,4.317,0.387,5.303
		c-0.917-0.588-2.845-1.163-4.465-1.163c-9.88,0-14.328,8.388-14.328,18.15c0,7.313,2.309,12.564,6.544,15.115
		C166.65,269.207,164.72,264.266,164.72,257.568"/>
	<path fill="#F5A244" d="M304.527,247.672c0.484,0.234,0.874,0.58,1.057,0.961v15.496c-0.397,0.597-1.291,1.119-2.464,1.119
		c-0.754,0-1.358-0.193-1.838-0.541h-0.021c0.533,0.492,1.595,1.29,2.899,1.269c1.162-0.017,2.066-0.521,2.458-1.111v-15.499
		C306.362,248.731,305.406,247.958,304.527,247.672"/>
	<path fill="#F5A244" d="M288.215,257.568c0-9.763,4.451-18.145,14.331-18.145c1.616,0,3.544,0.575,4.453,1.165
		c-0.185-0.988-0.381-3.618-0.381-5.306l-0.027-8.995h10.264v-0.719h-11.304l0.03,8.99c0,1.674,0.188,4.317,0.39,5.303
		c-0.921-0.588-2.848-1.163-4.471-1.163c-9.883,0-14.325,8.388-14.325,18.15c0,7.313,2.309,12.564,6.545,15.115
		C290.143,269.207,288.215,264.266,288.215,257.568"/>
</g>
</svg>
