<?xml version="1.0" encoding="utf-8"?>
<!-- Generator: Adobe Illustrator 16.0.0, SVG Export Plug-In . SVG Version: 6.00 Build 0)  -->
<!DOCTYPE svg PUBLIC "-//W3C//DTD SVG 1.1//EN" "http://www.w3.org/Graphics/SVG/1.1/DTD/svg11.dtd">
<svg version="1.1" id="Calque_1" xmlns="http://www.w3.org/2000/svg" xmlns:xlink="http://www.w3.org/1999/xlink" x="0px" y="0px"
	 width="500px" height="500px" viewBox="0 0 500 500" enable-background="new 0 0 500 500" xml:space="preserve">
<g>
	<path fill="#E2001A" d="M45.823,285.472H28.088l10.409-44.73c0,0,1.932-9.254,13.497-18.125c9.43-7.228,22.752-5.785,22.752-5.785
		h73.265l-3.083,13.497H73.974c0,0-5.397,0.389-10.409,3.472c-5.012,3.087-8.87,11.568-8.87,11.568h50.516l-2.701,14.266H51.222
		L45.823,285.472z"/>
	<path fill="#E2001A" d="M112.534,246.142h12.34l-5.784,26.991h26.222l6.556-27.763h13.495l-8.867,40.493h-40.874
		c0,0-5.219-0.118-8.485-5.015c-1.544-2.314,0.385-11.187,0.385-11.187L112.534,246.142z"/>
	<path fill="#E2001A" d="M178.473,219.15h12.725l-12.725,54.757h25.453l-2.698,11.565H175.39c0,0-5.015-0.77-7.326-4.624
		c-2.313-3.858-1.157-10.027-1.157-10.027l11.565-50.513"/>
	<path fill="none" stroke="#000000" stroke-width="2.3279" d="M25,285.863l11.305-45.725c0,0,5.044-12.803,13.581-19.396
		c8.633-6.675,23.319-6.604,23.319-6.604h72.108"/>
	<path fill="none" stroke="#000000" stroke-width="2.3279" d="M123.333,242.674h-13.497l-6.551,32.775c0,0-0.387,5.017,3.083,8.482"
		/>
	<polyline fill="none" stroke="#000000" stroke-width="2.3279" points="122.561,270.821 142.999,270.821 149.17,243.059 
		161.893,243.059 	"/>
	<path fill="none" stroke="#000000" stroke-width="2.3279" d="M188.5,216.067h-13.497l-11.953,59.767c0,0,1.539,7.328,4.24,9.249"/>
	<path fill="#E2001A" d="M195.826,230.33h22.746l2.704-11.564h12.725l-2.699,11.564h30.847l-2.313,11.571h-31.619l-6.554,31.232
		h24.288l-1.926,11.95h-27.376c0,0-4.627-1.921-6.941-5.007c-2.316-3.086,0-8.87,0-8.87l5.781-28.532h-21.977L195.826,230.33z"/>
	<polyline fill="none" stroke="#000000" stroke-width="2.3279" points="231.302,216.067 218.188,216.067 215.489,227.634 
		192.74,227.634 189.654,242.285 	"/>
	<path fill="none" stroke="#000000" stroke-width="2.3279" d="M211.636,245.37l-5.012,26.224c0,0-2.314,8.872,3.083,12.338"/>
	<path fill="#E2001A" d="M276.801,264.652h16.195l18.127-19.668h-42.8c0,0-19.286,4.627-19.286,20.438
		c0,15.813,19.669,19.281,19.669,19.281h52.06l6.174-27.767h19.653l3.088-11.953h-25.453c0,0-5.396,1.163-6.94,2.314
		c-1.536,1.158-3.081,6.556-3.081,6.556l-3.857,19.279h-40.489c0,0-6.938-1.927-6.938-8.098c0-6.167,8.482-8.483,8.482-8.483h11.573
		L276.801,264.652z"/>
	<path fill="none" stroke="#000000" stroke-width="2.3279" d="M310.349,242.285H269.48c0,0-19.957,4.763-22.133,20.358
		c-1.861,13.362,7.372,17.842,7.372,17.842"/>
	<path fill="none" stroke="#000000" stroke-width="2.3279" d="M271.791,270.821h35.475l4.625-18.512c0,0,1.296-3.222,4.632-6.552
		c2.699-2.698,10.03-2.698,10.03-2.698h20.43"/>
	<path fill="#E2001A" d="M377.45,264.652h16.189l18.128-19.668h-42.811c0,0-19.276,4.627-19.276,20.438
		c0,15.813,19.666,19.281,19.666,19.281h52.058l6.174-27.767h44.342l3.08-11.953h-50.12c0,0-5.405,1.163-6.952,2.314
		c-1.533,1.158-3.088,6.556-3.088,6.556l-3.85,19.279h-40.492c0,0-6.938-1.927-6.938-8.098c0-6.167,8.485-8.483,8.485-8.483h11.579
		L377.45,264.652z"/>
	<path fill="none" stroke="#000000" stroke-width="2.3279" d="M410.99,242.285h-40.866c0,0-19.973,4.451-21.901,20.748
		c-1.596,13.397,6.591,17.067,6.591,17.067"/>
	<path fill="none" stroke="#000000" stroke-width="2.3279" d="M373.987,271.598h35.469l3.081-19.289c0,0,1.02-3.021,4.35-6.351
		c2.707-2.698,10.302-2.9,10.302-2.9h43.962"/>
	<line fill="none" stroke="#000000" stroke-width="2.3279" x1="277.578" y1="259.255" x2="273.333" y2="265.035"/>
	<line fill="none" stroke="#000000" stroke-width="2.3279" x1="103.029" y1="243.247" x2="58.806" y2="243.247"/>
	<line fill="none" stroke="#000000" stroke-width="2.3279" x1="181.4" y1="271.564" x2="200.407" y2="271.564"/>
	<line fill="none" stroke="#000000" stroke-width="2.3279" x1="224.851" y1="271.173" x2="245.795" y2="271.173"/>
	<line fill="none" stroke="#000000" stroke-width="2.3279" x1="233.775" y1="228.886" x2="259.763" y2="228.886"/>
	<line fill="none" stroke="#000000" stroke-width="2.3279" x1="378.483" y1="259.538" x2="373.82" y2="264.583"/>
</g>
</svg>
