<?xml version="1.0" encoding="utf-8"?>
<!-- Generator: Adobe Illustrator 16.0.0, SVG Export Plug-In . SVG Version: 6.00 Build 0)  -->
<!DOCTYPE svg PUBLIC "-//W3C//DTD SVG 1.1//EN" "http://www.w3.org/Graphics/SVG/1.1/DTD/svg11.dtd">
<svg version="1.1" id="Calque_2" xmlns="http://www.w3.org/2000/svg" xmlns:xlink="http://www.w3.org/1999/xlink" x="0px" y="0px"
	 width="500px" height="500px" viewBox="0 0 500 500" enable-background="new 0 0 500 500" xml:space="preserve">
<g>
	<rect x="25" y="190.228" width="450" height="119.545"/>
	<polyline fill="#EC7404" points="250.038,190.624 235.333,251.988 235.081,251.988 242.872,190.624 	"/>
	<polyline fill="#EC7404" points="269.237,190.624 251.439,251.988 251.156,251.988 261.995,190.624 	"/>
	<path fill="#EC7404" d="M65.439,289.145c-3.432,3.985-8.031,6.07-13.042,6.07c-4.801,0-9.203-1.925-12.497-5.478
		c-4.597-4.961-4.597-10.141-4.597-21.309c0-11.172,0-16.344,4.597-21.292c3.294-3.56,7.626-5.479,12.497-5.479
		c9.333,0,15.657,6.518,17.092,15.754h-5.219c-1.371-6.672-5.76-10.737-11.873-10.737c-3.217,0-6.301,1.401-8.444,3.784
		c-3.099,3.407-3.436,6.953-3.436,17.971c0,11.028,0.337,14.64,3.436,18.049c2.143,2.365,5.227,3.7,8.444,3.7
		c3.572,0,7.01-1.558,9.274-4.514c1.985-2.596,2.747-5.474,2.747-9.535v-4H52.397v-4.963h17.234v8.372
		C69.631,281.598,68.456,285.665,65.439,289.145"/>
	<path fill="#EC7404" d="M98.658,294.864v-3.483c-2.749,2.965-5.224,3.931-9.76,3.931c-4.663,0-7.41-0.966-9.526-3.338
		c-1.655-1.767-2.538-4.51-2.538-7.394c0-6.354,4.107-10.495,11.657-10.495h10.167v-3.485c0-5.33-2.472-8.003-8.649-8.003
		c-4.334,0-6.516,1.122-8.521,4.16l-3.365-3.347c3.027-4.205,6.447-5.382,11.95-5.382c9.064,0,13.518,4.206,13.518,12.124v24.712
		H98.658 M98.658,278.072h-9.473c-5.076,0-7.544,2.218-7.544,6.437c0,4.21,2.385,6.224,7.747,6.224c2.882,0,5.419-0.229,7.546-2.448
		c1.165-1.188,1.724-3.271,1.724-6.286V278.072z"/>
	<path fill="#EC7404" d="M124.869,295.311c-5.7,0-10.164-1.415-13.871-5.256l3.295-3.556c2.674,3.032,6.314,4.232,10.499,4.232
		c5.557,0,8.999-2.162,8.999-6.454c0-3.179-1.713-4.945-5.62-5.323l-5.566-0.519c-6.595-0.588-10.094-3.771-10.094-9.755
		c0-6.658,5.211-10.668,12.42-10.668c4.808,0,9.134,1.263,12.154,3.925l-3.225,3.477c-2.406-2.005-5.495-2.888-8.991-2.888
		c-4.947,0-7.557,2.3-7.557,6c0,3.097,1.646,4.946,5.903,5.326l5.426,0.519c5.902,0.588,9.945,3.027,9.945,9.833
		C138.587,291.235,133.035,295.311,124.869,295.311"/>
	<path fill="#EC7404" d="M155.706,294.751c-5.756,0-8.647-4.358-8.647-9.749v-22.363h-4.258v-4.064h4.258v-11.381H152v11.381h7.208
		v4.064H152v22.2c0,3.334,1.447,5.328,4.609,5.328h2.599v4.584H155.706"/>
	<path fill="#EC7404" d="M188.779,291.066c-2.331,2.507-5.566,4.147-9.675,4.147c-4.123,0-7.351-1.641-9.677-4.147
		c-3.434-3.771-4.121-8.873-4.121-14.51c0-5.622,0.688-10.723,4.121-14.498c2.326-2.507,5.554-4.139,9.677-4.139
		c4.108,0,7.344,1.632,9.675,4.139c3.432,3.775,4.12,8.876,4.12,14.498C192.898,282.193,192.211,287.294,188.779,291.066
		 M185.279,265.317c-1.573-1.705-3.777-2.665-6.175-2.665c-2.41,0-4.535,0.96-6.108,2.665c-2.476,2.654-2.742,7.168-2.742,11.239
		c0,4.065,0.266,8.594,2.742,11.242c1.573,1.71,3.698,2.666,6.108,2.666c2.398,0,4.602-0.956,6.175-2.666
		c2.473-2.648,2.676-7.177,2.676-11.242C187.955,272.485,187.752,267.971,185.279,265.317z"/>
	<path fill="#EC7404" d="M223.685,294.751v-22.412c0-6.434-3.221-9.7-8.315-9.7c-5.073,0-8.365,3.336-8.365,9.7v22.412h-4.948v-36.4
		h4.948v3.995c2.397-2.958,5.693-4.431,9.468-4.431c3.65,0,6.602,1.178,8.647,3.406c2.417,2.509,3.514,5.901,3.514,10.12v23.31
		H223.685"/>
	<polyline fill="#FFFFFF" points="301.057,295.452 301.057,264.755 291.71,284.72 285.259,284.72 275.869,264.755 275.869,295.452 
		266.322,295.452 266.322,242.777 275.728,242.777 288.488,271.259 301.185,242.777 310.604,242.777 310.604,295.452 
		301.057,295.452 	"/>
	<rect x="320.68" y="242.777" fill="#FFFFFF" width="9.548" height="52.674"/>
	<polyline fill="#FFFFFF" points="340.304,295.452 340.304,242.777 349.842,242.777 349.842,286.274 372.008,286.274 
		372.008,295.452 340.304,295.452 	"/>
	<polyline fill="#FFFFFF" points="378.287,295.452 378.287,242.777 387.837,242.777 387.837,286.274 410.007,286.274 
		410.007,295.452 378.287,295.452 	"/>
	<polyline fill="#FFFFFF" points="416.411,295.452 416.411,242.777 448.609,242.777 448.609,251.945 425.961,251.945 
		425.961,264.308 445.244,264.308 445.244,273.473 425.961,273.473 425.961,286.274 448.609,286.274 448.609,295.452 
		416.411,295.452 	"/>
	<path fill="#FFFFFF" d="M459.104,254.356c-3.317,0-6.005-2.687-6.005-6.003c0-3.316,2.688-6.001,6.005-6.001
		c3.318,0,6.003,2.685,6.003,6.001C465.107,251.669,462.422,254.356,459.104,254.356 M459.104,243.459
		c-2.687,0-4.811,2.159-4.811,4.893c0,2.737,2.124,4.892,4.811,4.892s4.79-2.155,4.79-4.892
		C463.894,245.618,461.791,243.459,459.104,243.459z M460.365,251.587l-1.326-2.571h-0.831v2.571h-1.191v-6.486h2.436
		c1.229,0,2.092,0.913,2.092,1.991c0,0.913-0.566,1.509-1.278,1.758l1.441,2.737H460.365z M459.302,246.114h-1.095v1.957h1.095
		c0.631,0,1.063-0.431,1.063-0.978S459.933,246.114,459.302,246.114z"/>
</g>
</svg>
