<?xml version="1.0" encoding="utf-8"?>
<!-- Generator: Adobe Illustrator 16.0.0, SVG Export Plug-In . SVG Version: 6.00 Build 0)  -->
<!DOCTYPE svg PUBLIC "-//W3C//DTD SVG 1.1//EN" "http://www.w3.org/Graphics/SVG/1.1/DTD/svg11.dtd">
<svg version="1.1" id="Calque_1" xmlns="http://www.w3.org/2000/svg" xmlns:xlink="http://www.w3.org/1999/xlink" x="0px" y="0px"
	 width="500px" height="500px" viewBox="0 0 500 500" enable-background="new 0 0 500 500" xml:space="preserve">
<g>
	<path fill="#3870B2" d="M271.567,232.898c0,2.248-0.563,3.695-2.189,4.78c-3.4,2.25-8.363,3.626-13.534,3.626
		c-13.672,0-21.395-10.365-21.395-25.076c0-18.258,11.903-25.649,22.029-25.649c6.166,0,10.205,2.098,13.037,4.127
		c0.78,0.582,1.137,1.165,1.137,1.958c0,1.085-0.993,2.391-2.198,2.391c-0.707,0-1.062-0.363-1.913-0.943
		c-3.18-2.172-6.448-3.256-10.199-3.256c-8.924,0-17.427,6.881-17.427,21.372c0,12.392,6.301,20.799,17.141,20.799
		c3.757,0,7.017-0.866,9.923-2.32c0.847-0.432,1.132-1.015,1.132-2.46v-12.974h-10.702c-1.41,0-2.193-0.724-2.193-2.242
		c0-1.454,0.783-2.248,2.193-2.248h13.041c1.412,0,2.119,0.794,2.119,2.248V232.898"/>
	<path fill="#3870B2" d="M308.972,240.581H289.49c-2.978,0-4.744-1.738-4.744-4.781v-38.992c0-3.255,1.559-5.504,5.171-5.504h19.056
		c1.487,0,2.271,0.723,2.271,2.249c0,1.517-0.711,2.242-2.271,2.242H290.41c-0.709,0-1.202,0.581-1.202,1.375v15.516h17.499
		c1.416,0,2.197,0.792,2.197,2.318c0,1.447-0.781,2.17-2.197,2.17h-17.499v17.827c0,0.652,0.282,1.084,0.92,1.084h18.845
		c1.56,0,2.271,0.652,2.271,2.179C311.243,239.778,310.459,240.581,308.972,240.581"/>
	<path fill="#3870B2" d="M275.928,261.954c-1.63,0-2.978-1.375-2.978-3.042c0-1.668,1.348-3.044,2.978-3.044
		c1.696,0,2.978,1.376,2.978,3.044C278.906,260.655,277.625,261.954,275.928,261.954 M275.858,308.259
		c-1.422,0-2.127-0.725-2.127-2.241v-32.978c0-1.445,0.779-2.169,2.197-2.169c1.484,0,2.197,0.724,2.197,2.169v32.978
		C278.125,307.535,277.346,308.259,275.858,308.259"/>
	<path fill="#3870B2" d="M318.1,304.714c0,11.668-4.955,18.617-16.146,18.617c-4.047,0-8.148-1.587-10.281-3.11
		c-0.981-0.726-1.338-1.308-1.338-1.959c0-1.448,0.993-2.463,1.842-2.463c0.635,0,1.134,0.292,1.979,0.795
		c1.63,0.943,4.183,2.469,7.934,2.469c8.86,0,11.62-5.875,11.62-13.265v-3.475c-1.765,3.475-5.38,6.446-10.767,6.446
		c-8.932,0-15.021-7.029-15.021-19.271c0-11.96,6.029-19.138,15.524-19.138c5.158,0,8.637,2.828,10.264,5.653v-2.974
		c0-1.445,0.778-2.169,2.271-2.169c1.41,0,2.119,0.724,2.119,2.169V304.714 M313.71,286.016c0-6.599-4.182-11.379-10.264-11.379
		c-6.667,0-11.125,5.364-11.125,14.861c0,9.271,4.027,14.994,11.125,14.994c6.298,0,10.264-4.851,10.264-11.447V286.016z"/>
	<path fill="#3870B2" d="M475,304.714c0,11.668-4.956,18.617-16.145,18.617c-4.046,0-8.149-1.587-10.28-3.11
		c-0.984-0.726-1.335-1.308-1.335-1.959c0-1.448,0.987-2.463,1.834-2.463c0.639,0,1.14,0.292,1.982,0.795
		c1.629,0.943,4.184,2.469,7.933,2.469c8.861,0,11.623-5.875,11.623-13.265v-3.475c-1.768,3.475-5.383,6.446-10.77,6.446
		c-8.932,0-15.019-7.029-15.019-19.271c0-11.96,6.028-19.138,15.522-19.138c5.159,0,8.636,2.828,10.266,5.653v-2.974
		c0-1.445,0.775-2.169,2.268-2.169c1.412,0,2.12,0.724,2.12,2.169V304.714 M470.613,286.016c0-6.599-4.184-11.379-10.266-11.379
		c-6.666,0-11.124,5.364-11.124,14.861c0,9.271,4.027,14.994,11.124,14.994c6.297,0,10.266-4.851,10.266-11.447V286.016z"/>
	<path fill="#3870B2" d="M356.022,308.259c-1.484,0-2.269-0.725-2.269-2.241v-21.31c0-4.418-1.344-10.071-8.571-10.071
		c-6.019,0-10.841,4.499-10.841,12.904v18.477c0,1.517-0.709,2.241-2.199,2.241c-1.485,0-2.188-0.725-2.188-2.241v-50.463
		c0-1.457,0.703-2.249,2.188-2.249c1.49,0,2.199,0.792,2.199,2.249v21.4c1.986-3.623,6.021-6.595,11.409-6.595
		c9.14,0,12.398,6.234,12.398,13.122v22.535C358.149,307.535,357.512,308.259,356.022,308.259"/>
	<path fill="#3870B2" d="M381.295,275.219h-6.021v23.047c0,3.044,0.638,6.227,4.182,6.227c0.922,0,1.839-0.213,2.622-0.583
		c0.49-0.209,1.062-0.571,1.552-0.571c0.921,0,1.774,1.014,1.774,2.099c0,0.722-0.423,1.306-1.058,1.809
		c-0.923,0.802-2.905,1.524-5.038,1.524c-5.167,0-8.422-2.462-8.422-10.144v-23.407h-3.969c-1.49,0-2.199-0.582-2.199-2.03
		c0-1.524,0.709-2.099,2.199-2.099h3.969v-8.483c0-1.448,0.775-2.171,2.188-2.171c1.491,0,2.2,0.723,2.2,2.171v8.483h6.021
		c1.492,0,2.197,0.574,2.197,2.099C383.493,274.637,382.788,275.219,381.295,275.219"/>
	<path fill="#3870B2" d="M393.8,261.954c-1.629,0-2.977-1.375-2.977-3.042c0-1.668,1.348-3.044,2.977-3.044
		c1.697,0,2.974,1.376,2.974,3.044C396.774,260.655,395.498,261.954,393.8,261.954 M393.73,308.259
		c-1.422,0-2.131-0.725-2.131-2.241v-32.978c0-1.445,0.776-2.169,2.201-2.169c1.483,0,2.192,0.724,2.192,2.169v32.978
		C395.993,307.535,395.213,308.259,393.73,308.259"/>
	<path fill="#3870B2" d="M433.754,308.259c-1.492,0-2.276-0.725-2.276-2.241v-21.31c0-4.418-1.336-10.071-8.563-10.071
		c-6.026,0-10.841,4.499-10.841,12.904v18.477c0,1.517-0.715,2.241-2.194,2.241c-1.492,0-2.201-0.725-2.201-2.241v-32.897
		c0-1.456,0.709-2.249,2.201-2.249c1.479,0,2.194,0.793,2.194,2.249v3.835c1.986-3.623,6.021-6.595,11.401-6.595
		c9.14,0,12.398,6.234,12.398,13.122v22.535C435.874,307.535,435.239,308.259,433.754,308.259"/>
	<path fill="#3870B2" d="M245.23,294.235v12.16c0,1.392-0.709,2.108-2.2,2.108c-1.485,0-2.194-0.717-2.194-2.108V260.8
		c0-1.327,0.709-2.051,2.194-2.051c1.49,0,2.2,0.724,2.2,2.051v28.94V294.235z"/>
	<path fill="#3870B2" d="M244.005,308.503c-1.527,0-2.314-0.709-2.314-2.199c0-1.483,0.787-2.192,2.314-2.192h20.724
		c1.454,0,2.249,0.709,2.249,2.194c0,1.49-0.795,2.199-2.249,2.199"/>
	<path fill="#3870B2" d="M113.024,338.023C64.5,338.023,25,298.767,25,250c0-48.524,39.5-88.022,88.024-88.022
		c48.518,0,88.023,39.498,88.023,88.022C201.047,298.767,161.542,338.023,113.024,338.023 M113.024,166.118
		c-46.329,0-83.882,37.554-83.882,83.882c0,46.328,37.553,83.871,83.882,83.871c46.331,0,83.875-37.543,83.875-83.871
		C196.9,203.912,159.355,166.118,113.024,166.118 M187.614,275.091c-0.034,0.08-0.175,0.187-0.45,0.09
		c-0.204-0.078-0.269-0.182-0.257-0.314c0.008-0.142,2.949-8.815,2.924-18.767c-0.032-10.736-4.392-17.326-9.993-17.326
		c-3.421,0-5.854,2.444-5.854,6.102c0,6.59,8.043,7.073,8.043,21.463c0,5.847-1.214,11.455-3.173,17.55
		c-9.016,30.48-37.792,44.627-65.83,44.627c-12.922,0-22.107-2.657-24.842-3.892c-0.115-0.058-0.204-0.267-0.118-0.492
		c0.061-0.156,0.25-0.284,0.358-0.24c1.107,0.438,8.993,2.922,18.75,2.922c10.73,0,17.064-4.4,17.064-9.761
		c0-3.409-2.67-6.095-6.092-6.095c-6.585,0-7.077,8.287-21.215,8.287c-6.1,0-11.461-1.224-17.8-3.176
		c-30.237-9.259-44.645-37.788-44.619-66.07c0.011-13.781,3.865-24.748,3.932-24.85c0.046-0.078,0.227-0.15,0.433-0.078
		c0.219,0.078,0.278,0.258,0.261,0.314c-0.354,1.146-2.918,9.007-2.918,18.755c0,10.736,4.39,17.075,9.995,17.075
		c3.169,0,5.855-2.439,5.855-5.852c0-6.589-8.053-7.314-8.053-21.466c0-6.09,1.224-11.462,3.173-17.799
		c9.267-30.226,37.796-44.407,65.837-44.615c13.033-0.1,24.435,3.798,24.87,4.142c0.082,0.067,0.16,0.235,0.082,0.438
		c-0.101,0.23-0.248,0.258-0.33,0.248c-0.136-0.017-7.55-3.118-18.776-3.118c-10.479-0.006-17.062,4.388-17.062,9.995
		c0,3.168,2.436,5.849,6.093,5.849c6.583,0,7.073-8.041,21.214-8.041c6.091,0,11.458,1.214,17.798,3.164
		c30.481,9.27,44.356,38.041,44.624,65.84C191.672,264.237,187.656,275.007,187.614,275.091 M145.695,254.146
		c-8.289,0-14.63,6.098-14.63,13.411c0,6.097,3.658,10.973,8.531,10.973c1.711,0,3.419-0.973,3.419-3.168
		c0-3.176-4.203-3.945-3.883-8.688c0.212-3.122,3.153-5.219,6.073-5.219c5.85,0,8.586,5.675,8.586,11.523
		c-0.242,9.023-6.879,15.298-14.678,15.298c-10.247,0-16.824-9.747-16.824-20.237c0-15.606,10.241-21.703,15.604-23.163
		c0.053,0,14.022,2.494,13.588-3.669c-0.196-2.703-4.218-3.743-7.142-3.86c-3.235-0.129-6.5,1.039-6.5,1.039
		c-1.694-0.854-2.871-2.533-3.601-4.489c9.993-7.556,17.063-14.872,17.063-23.153c0-4.399-2.928-8.297-8.535-8.297
		c-9.995,0-17.554,12.685-17.554,24.135c0,1.955,0,3.905,0.49,5.612c-6.335,4.63-11.055,7.506-19.588,12.631
		c0-1.074,0.225-3.82,0.938-7.394c2.926-3.169,6.943-7.922,6.943-11.573c0-1.703-0.972-3.18-2.929-3.18
		c-4.874,0-8.526,7.32-9.503,12.444c-2.198,2.685-6.585,6.096-10.241,6.096c-2.927,0-3.899-2.687-4.147-3.659
		c9.267-3.173,20.726-15.849,20.726-27.31c0-2.433-0.972-7.803-8.287-7.803c-10.975,0-20.238,16.337-20.238,29.018
		c-3.905,0-5.363-4.146-5.363-7.31c0-3.174,1.216-6.348,1.216-7.321c0-0.977-0.486-2.191-1.95-2.191
		c-3.661,0-5.852,4.872-5.852,10.478c0.246,7.804,5.36,12.686,12.191,13.169c0.976,4.636,5.12,9.023,10.239,9.023
		c3.171,0,7.071-0.978,9.757-3.415c-0.248,1.707-0.488,3.173-0.73,4.634c-10.731,5.613-18.532,9.518-25.605,15.85
		c-5.605,5.123-8.779,11.95-8.779,17.311c0,7.318,4.635,14.139,14.141,14.139c11.217,0,19.753-9.016,23.901-21.454
		c1.95-5.85,2.729-14.367,3.219-22.171c11.213-6.343,16.529-10.012,22.376-14.158c0.73,1.214,1.468,2.186,2.445,2.922
		c-5.125,2.686-17.316,10.247-17.316,28.048c0,12.675,8.535,26.813,25.357,26.813c13.904,0,23.415-11.447,23.415-22.426
		C162.039,263.416,156.428,254.146,145.695,254.146 M78.641,288.277c-3.65,0.168-6.096-2.169-6.096-6.066
		c0-10.485,14.541-20.491,25.512-25.855C96.109,270.986,91.168,287.706,78.641,288.277 M86.688,230.734
		c0-8.056,7.942-23.349,12.797-21.726C105.21,210.919,94.735,226.342,86.688,230.734 M132.772,227.077
		c0-10,6.771-19.72,10.468-17.877C147.455,211.312,140.09,220.733,132.772,227.077"/>
</g>
</svg>
