<?xml version="1.0" encoding="utf-8"?>
<!-- Generator: Adobe Illustrator 16.0.0, SVG Export Plug-In . SVG Version: 6.00 Build 0)  -->
<!DOCTYPE svg PUBLIC "-//W3C//DTD SVG 1.1//EN" "http://www.w3.org/Graphics/SVG/1.1/DTD/svg11.dtd">
<svg version="1.1" id="Calque_2" xmlns="http://www.w3.org/2000/svg" xmlns:xlink="http://www.w3.org/1999/xlink" x="0px" y="0px"
	 width="500px" height="500px" viewBox="0 0 500 500" enable-background="new 0 0 500 500" xml:space="preserve">
<g>
	<g>
		<path d="M159.279,277.073c-4.508,1.417-13.044,3.363-21.581,3.363c-11.797,0-20.333-2.743-26.28-8.052
			c-5.947-5.132-9.208-12.918-9.112-21.678c0.096-19.818,15.729-31.144,36.927-31.144c8.344,0,14.771,1.504,17.937,2.92
			l-3.069,10.794c-3.549-1.416-7.961-2.566-15.059-2.566c-12.182,0-21.389,6.37-21.389,19.289c0,12.298,8.344,19.553,20.333,19.553
			c3.357,0,6.043-0.353,7.194-0.884v-12.476h-9.976v-10.529h24.075V277.073z"/>
		<path d="M211.642,254.6h-23.787v14.157h26.569v11.06h-41.243v-59.634h39.9v11.06h-25.226v12.387h23.787V254.6z"/>
		<path d="M226.888,220.979c3.836-0.708,11.605-1.238,18.895-1.238c8.92,0,14.388,0.796,19.087,3.362
			c4.509,2.212,7.769,6.282,7.769,11.679c0,5.309-3.356,10.263-10.646,12.74v0.177c7.387,1.858,12.853,6.989,12.853,14.687
			c0,5.397-2.685,9.645-6.714,12.653c-4.699,3.451-12.564,5.397-25.417,5.397c-7.193,0-12.565-0.442-15.825-0.886V220.979z
			 M241.371,243.806h4.795c7.673,0,11.797-2.92,11.797-7.343c0-4.512-3.739-6.902-10.358-6.902c-3.165,0-4.987,0.177-6.234,0.354
			V243.806z M241.371,270.261c1.439,0.178,3.165,0.178,5.659,0.178c6.619,0,12.469-2.301,12.469-8.582
			c0-6.017-5.851-8.406-13.141-8.406h-4.987V270.261z"/>
		<path d="M325.771,254.6h-23.786v14.157h26.567v11.06h-41.243v-59.634h39.9v11.06h-25.225v12.387h23.786V254.6z"/>
		<path d="M341.016,220.979c4.699-0.708,11.701-1.238,19.472-1.238c9.59,0,16.305,1.327,20.909,4.689
			c3.836,2.832,5.945,6.989,5.945,12.475c0,7.609-5.851,12.83-11.414,14.688v0.266c4.509,1.681,7.002,5.662,8.633,11.147
			c2.015,6.724,4.029,14.51,5.275,16.811h-14.963c-1.055-1.681-2.59-6.548-4.508-13.892c-1.727-7.432-4.508-9.467-10.454-9.556
			h-4.413v23.447h-14.482V220.979z M355.498,246.637h5.756c7.29,0,11.605-3.362,11.605-8.582c0-5.486-4.028-8.229-10.742-8.317
			c-3.55,0-5.563,0.266-6.619,0.443V246.637z"/>
		<path d="M415.057,220.183v59.634h-14.676v-59.634H415.057z"/>
		<path d="M442.677,231.508h-17.36v-11.325H475v11.325h-17.648v48.309h-14.675V231.508z"/>
	</g>
	<rect x="25" y="220.654" fill="#003E90" width="60.235" height="59.704"/>
</g>
</svg>
