<?xml version="1.0" encoding="utf-8"?>
<!-- Generator: Adobe Illustrator 16.0.0, SVG Export Plug-In . SVG Version: 6.00 Build 0)  -->
<!DOCTYPE svg PUBLIC "-//W3C//DTD SVG 1.1//EN" "http://www.w3.org/Graphics/SVG/1.1/DTD/svg11.dtd">
<svg version="1.1" id="Calque_3" xmlns="http://www.w3.org/2000/svg" xmlns:xlink="http://www.w3.org/1999/xlink" x="0px" y="0px"
	 width="500px" height="500px" viewBox="0 0 500 500" enable-background="new 0 0 500 500" xml:space="preserve">
<g>
	<g>
		<path fill="#97BF0D" d="M194.768,98.196l36.906-17.011l31.103,67.482l47.656-21.966l63.133,136.963l-84.562,38.979L194.768,98.196
			z M309.209,249.396l15.048-6.935l-29.584-64.184l-15.048,6.937L309.209,249.396z"/>
		<path d="M230.9,83.279l31.105,67.482l47.653-21.966l61.813,134.098l-81.694,37.655L196.861,98.969L230.9,83.279 M308.436,251.49
			l17.914-8.257l-30.903-67.049l-17.915,8.257L308.436,251.49 M232.445,79.09l-2.867,1.322l-34.039,15.69l-2.866,1.322l1.321,2.867
			l92.917,201.577l1.319,2.867l2.867-1.321l81.694-37.655l2.866-1.321l-1.319-2.866l-61.813-134.099l-1.319-2.866l-2.866,1.321
			l-44.79,20.646l-29.783-64.616L232.445,79.09L232.445,79.09z M281.718,185.986l12.182-5.615l28.265,61.316l-12.182,5.616
			L281.718,185.986L281.718,185.986z"/>
	</g>
	<g>
		<path fill="#97BF0D" d="M325.392,119.805l84.383-38.895l63.133,136.964l-84.383,38.895L325.392,119.805z M405.595,204.968
			l15.137-6.978l-29.584-64.183l-15.138,6.979L405.595,204.968z"/>
		<path d="M409,83.003l61.813,134.097l-81.516,37.574l-61.811-134.097L409,83.003 M404.82,207.062l18.005-8.299l-30.904-67.049
			l-18.004,8.299L404.82,207.062 M410.548,78.815l-2.867,1.321l-81.516,37.574l-2.866,1.321l1.322,2.867l61.811,134.096l1.319,2.867
			l2.866-1.321l81.516-37.574l2.867-1.322l-1.319-2.866L411.867,81.682L410.548,78.815L410.548,78.815z M378.103,141.558
			l12.271-5.656l28.265,61.315l-12.271,5.656L378.103,141.558L378.103,141.558z"/>
	</g>
	<g>
		<path fill="#97BF0D" d="M125.988,210.995l84.561-38.977l40.161,87.127l-47.296,21.802l6.689,14.512l47.295-21.802l16.559,35.92
			l-84.561,38.979L125.988,210.995z M186.621,247.343l15.407-7.1l-7.488-16.244l-15.407,7.102L186.621,247.343z"/>
		<path d="M209.775,174.112l38.84,84.261l-47.296,21.802l8.01,17.378l47.298-21.801l15.236,33.054l-81.695,37.657l-62.086-134.695
			L209.775,174.112 M185.848,249.438l18.274-8.422l-8.809-19.11l-18.274,8.422L185.848,249.438 M211.32,169.924l-2.866,1.321
			l-81.694,37.656l-2.866,1.322l1.321,2.867l62.086,134.693l1.321,2.866l2.867-1.32l81.693-37.657l2.866-1.32l-1.319-2.867
			l-15.235-33.054l-1.322-2.866l-2.867,1.32l-44.431,20.481l-5.368-11.646l44.43-20.48l2.866-1.321l-1.319-2.866l-38.84-84.263
			L211.32,169.924L211.32,169.924z M181.228,231.873l12.541-5.78l6.166,13.376l-12.541,5.781L181.228,231.873L181.228,231.873z"/>
	</g>
	<g>
		<path fill="#97BF0D" d="M96.698,408.842l48.015-22.132l-6.606-14.331l-47.536,21.912l-63.477-137.71l83.845-38.648l85.208,184.856
			l-84.323,38.869L96.698,408.842z M107.047,342.382l14.213-6.551l-29.785-64.615l-14.213,6.552L107.047,342.382z"/>
		<path d="M110.166,220.026l83.887,181.991l-81.456,37.546l-13.805-29.95l48.015-22.131l-7.927-17.198l-47.536,21.913
			L29.188,257.354L110.166,220.026 M106.274,344.476l17.08-7.872l-31.105-67.482l-17.08,7.874L106.274,344.476 M111.711,215.838
			l-2.867,1.322l-80.978,37.326L25,255.808l1.321,2.866l62.156,134.844l1.322,2.867l2.866-1.321l44.669-20.592l5.285,11.465
			l-45.148,20.811l-2.866,1.321l1.321,2.866l13.805,29.949l1.322,2.867l2.867-1.321l81.456-37.546l2.866-1.32l-1.32-2.867
			l-83.887-181.991L111.711,215.838L111.711,215.838z M79.356,278.541l11.348-5.232l28.462,61.749l-11.347,5.23L79.356,278.541
			L79.356,278.541z"/>
	</g>
	<g>
		<path fill="#97BF0D" d="M472.108,70.857c5.949,12.902,0.679,27.611-12.259,33.574c-12.801,5.901-27.683,0.48-33.631-12.421
			c-5.816-12.625-0.271-27.46,12.529-33.36C451.685,52.686,466.292,58.232,472.108,70.857z M431.939,89.373
			c4.67,10.128,15.729,14.785,25.809,10.14c9.802-4.519,13.31-15.892,8.704-25.88c-4.666-10.127-15.655-14.986-25.596-10.405
			C430.916,67.81,427.337,79.385,431.939,89.373z M451.191,94.964l-5.172,2.385L435.53,74.598c1.85-1.358,4.58-2.955,8.261-4.65
			c4.22-1.946,6.448-2.13,8.528-1.913c1.671,0.408,3.456,1.771,4.479,3.991c1.152,2.498,0.142,5.318-2.198,7.405l0.13,0.278
			c2.562-0.171,4.553,0.928,6.639,3.667c2.281,3.155,3.329,4.353,4.257,4.935l-5.582,2.573c-1.066-0.519-2.432-2.411-4.327-4.732
			c-1.56-2.31-3.434-2.793-6.291-1.474l-2.454,1.129L451.191,94.964z M445.382,82l2.453-1.13c2.857-1.318,4.726-3.356,3.637-5.714
			c-0.958-2.082-3.098-2.779-6.364-1.272c-1.359,0.627-2.25,1.205-2.731,1.595L445.382,82z"/>
	</g>
</g>
</svg>
