<?xml version="1.0" encoding="utf-8"?>
<!-- Generator: Adobe Illustrator 16.0.0, SVG Export Plug-In . SVG Version: 6.00 Build 0)  -->
<!DOCTYPE svg PUBLIC "-//W3C//DTD SVG 1.1//EN" "http://www.w3.org/Graphics/SVG/1.1/DTD/svg11.dtd">
<svg version="1.1" id="Calque_2" xmlns="http://www.w3.org/2000/svg" xmlns:xlink="http://www.w3.org/1999/xlink" x="0px" y="0px"
	 width="500px" height="500px" viewBox="0 0 500 500" enable-background="new 0 0 500 500" xml:space="preserve">
<g>
	<path fill="#00946C" d="M235.527,273.755h-48.203c-1.477,9.313,2.634,14.347,12.073,14.347c4.908,0,8.69-1.636,11.888-5.914h22.024
		c-6.065,15.228-21.637,22.15-36.362,22.15c-21.395,0-35.462-12.082-31.93-34.357c3.411-21.523,20.19-34.487,41.208-34.487
		c22.402,0,33.171,13.844,29.68,35.871L235.527,273.755z M216.354,260.539c-0.158-6.165-5.182-10.192-11.348-10.192
		c-6.671,0-12.767,3.523-15.209,10.192H216.354z"/>
	<path fill="#00946C" d="M266.641,248.206h0.254c5.659-7.93,13.771-11.453,22.707-11.453h4.401l-3.488,22.024
		c-2.866-1.762-5.83-2.138-9.352-2.138c-12.713,0-17.195,8.431-18.954,19.508l-4.127,26.051h-22.906l10.234-64.565h22.906
		L266.641,248.206z"/>
	<path fill="#00946C" d="M311.04,302.198h-22.903l16.559-104.46h22.905L311.04,302.198z"/>
	<path fill="#00946C" d="M400.392,269.981c-3.473,21.896-23.569,34.357-44.336,34.357c-20.642,0-36.934-12.336-33.442-34.357
		c3.49-22.027,23.589-34.487,44.355-34.487S403.882,247.954,400.392,269.981z M346.778,269.981
		c-1.299,8.18,3.117,14.472,12.428,14.472c9.315,0,15.725-6.292,17.022-14.472c1.256-7.93-3.1-14.601-12.412-14.601
		C354.503,255.38,348.032,262.051,346.778,269.981z"/>
	<path fill="#00946C" d="M430.128,245.94h0.252c6.523-7.803,13.36-10.446,22.298-10.446c17.367,0,22.554,10.95,20.037,26.807
		l-6.323,39.896h-22.903l4.986-31.463c0.979-6.169,3.697-16.991-7.627-16.991c-9.313,0-13.054,6.922-14.332,14.977l-5.306,33.478
		h-22.906l10.236-64.565h22.904L430.128,245.94z"/>
	<g>
		<path fill="#00946C" d="M156.01,269.755c1.968-12.422,7.991-22.23,16.58-28.799h-61.542l-5.066,31.659h33.201
			c-4.521,17.887-19.457,26.932-37.096,26.932c-26.766,0-37.375-24.465-33.529-48.518c3.784-23.645,21.732-48.932,48.501-48.932
			c16.392,0,26.64,9.867,29.873,24.67l41.162-16.035c-8.851-28.988-31.447-43.382-63.608-43.382
			c-50.424,0-90.165,33.101-98.224,83.472c-7.796,48.724,21.146,81.826,70.322,81.826c26.146,0,50.658-9.251,69.401-30.429
			c0.343-0.39,0.651-0.781,0.984-1.172C158.141,294.784,153.717,284.216,156.01,269.755z"/>
	</g>
	<g>
		<path fill="#00946C" d="M472.412,204.123c1.685,1.684,2.588,3.945,2.588,6.356c0,2.462-0.903,4.674-2.611,6.333
			c-1.784,1.733-4.047,2.688-6.407,2.688c-2.389,0-4.625-0.955-6.358-2.688c-1.708-1.709-2.639-3.947-2.639-6.333
			c0-2.388,0.956-4.672,2.715-6.433c1.657-1.682,3.845-2.587,6.282-2.587C468.443,201.459,470.68,202.39,472.412,204.123z
			 M471.659,204.876c-1.533-1.531-3.493-2.335-5.678-2.335c-2.138,0-4.072,0.779-5.529,2.261c-1.557,1.559-2.388,3.567-2.388,5.678
			c0,2.087,0.831,4.045,2.339,5.578c1.506,1.533,3.493,2.337,5.553,2.337c2.136,0,4.121-0.804,5.678-2.337
			c1.482-1.457,2.312-3.392,2.312-5.527C473.945,208.369,473.142,206.36,471.659,204.876z M470.528,208.017
			c0,1.434-0.903,2.488-2.411,2.738l2.312,4.725h-1.936l-2.161-4.473h-2.187v4.473h-1.733v-10.303h3.819
			C469.097,205.177,470.528,206.083,470.528,208.017z M464.146,206.31v3.567h1.811c1.909,0,2.789-0.426,2.789-1.733
			c0-1.332-0.905-1.834-2.84-1.834H464.146z"/>
	</g>
</g>
</svg>
