<?xml version="1.0" encoding="utf-8"?>
<!-- Generator: Adobe Illustrator 16.0.0, SVG Export Plug-In . SVG Version: 6.00 Build 0)  -->
<!DOCTYPE svg PUBLIC "-//W3C//DTD SVG 1.1//EN" "http://www.w3.org/Graphics/SVG/1.1/DTD/svg11.dtd">
<svg version="1.1" id="Calque_2" xmlns="http://www.w3.org/2000/svg" xmlns:xlink="http://www.w3.org/1999/xlink" x="0px" y="0px"
	 width="500px" height="500px" viewBox="0 0 500 500" enable-background="new 0 0 500 500" xml:space="preserve">
<g>
	<g>
		<path fill="#EB690B" d="M285.677,296.782c0,0.548,0.45,0.998,0.998,0.998h24.966c0.548,0,0.998-0.45,0.998-0.998v-59.225
			c0-0.552-0.45-1.002-0.998-1.002h-24.966c-0.548,0-0.998,0.45-0.998,1.002V296.782z"/>
	</g>
	<g>
		<path fill="#EB690B" d="M312.639,204.398c0-1.114-0.911-2.028-2.028-2.028h-45.692c-1.117,0-2.28,0.876-2.591,1.948
			l-10.348,35.949c-0.311,1.072-0.694,1.047-0.852-0.056l-5.227-35.984c-0.161-1.103-1.203-2.007-2.318-2.007h-22.759
			c-1.116,0-2.18,0.9-2.367,2l-6.172,36.294c-0.187,1.1-0.557,1.113-0.82,0.031l-8.871-36.357c-0.264-1.082-1.391-1.969-2.507-1.969
			h-46.295c-1.115,0-2.026,0.915-2.026,2.028v22.385c0,1.114,0.911,2.025,2.026,2.025h25.865c1.115,0,2.236,0.891,2.491,1.973
			l15.33,65.027c0.255,1.085,1.376,1.972,2.491,1.972h22.166c1.116,0,2.196-0.896,2.402-1.989l6.839-36.211
			c0.208-1.093,0.555-1.097,0.771-0.004l7.18,36.218c0.216,1.093,1.306,1.986,2.421,1.986h22.162c1.117,0,2.23-0.89,2.475-1.976
			l14.688-64.87c0.245-1.086,1.358-1.976,2.476-1.976h27.063c1.117,0,2.028-0.911,2.028-2.025V204.398z"/>
	</g>
	<g>
		<path fill="#EB690B" d="M348.584,236.556c-1.135,0-2.06-0.925-2.06-2.057v-4.339c0-1.131,0.925-2.056,2.06-2.056h43.025
			c1.135,0,2.06-0.929,2.06-2.06V204.43c0-1.131-0.925-2.06-2.06-2.06h-69.24c-1.135,0-2.061,0.929-2.061,2.06v56.452
			c0,1.135,0.926,2.06,2.061,2.06h42.986c1.135,0,2.061,0.926,2.061,2.061v4.332c0,1.135-0.926,2.06-2.061,2.06h-42.986
			c-1.135,0-2.061,0.926-2.061,2.061v22.267c0,1.135,0.926,2.06,2.061,2.06h69.24c1.135,0,2.06-0.925,2.06-2.06v-57.105
			c0-1.131-0.925-2.06-2.06-2.06H348.584z"/>
	</g>
	<g>
		<path fill="#EB690B" d="M133.077,271.114c-1.131,0-2.056-0.925-2.056-2.056v-4.49c0-1.131,0.925-2.056,2.056-2.056h42.549
			c1.131,0,2.056-0.926,2.056-2.057v-21.694c0-1.131-0.925-2.056-2.056-2.056h-30.148c-1.131,0-2.981,0-4.113,0h-8.288
			c-1.131,0-2.056-0.925-2.056-2.056v-4.49c0-1.131,0.925-2.056,2.056-2.056h8.288c1.131,0,2.056-0.925,2.056-2.057v-21.694
			c0-1.131-0.925-2.056-2.056-2.056H106.6c-1.131,0-2.057,0.925-2.057,2.056v91.371c0,1.132,0.925,2.057,2.057,2.057h69.026
			c1.131,0,2.056-0.925,2.056-2.057v-22.553c0-1.131-0.925-2.057-2.056-2.057H133.077z"/>
	</g>
	<path fill="#EB690B" d="M96.053,295.752V238.88c0-1.117-0.911-2.028-2.027-2.028H72.459c-1.115,0-2.026,0.911-2.026,2.028v30.056
		c0,1.117-0.911,2.028-2.027,2.028h-4.884c-1.115,0-2.026-0.911-2.026-2.028V238.88c0-1.117,0-2.939,0-4.053v-4.587
		c0-1.114,0.911-2.025,2.026-2.025h4.884c1.116,0,2.938,0,4.053,0h21.567c1.116,0,2.027-0.911,2.027-2.028v-21.865
		c0-1.114-0.911-2.025-2.027-2.025H75.669C47.801,202.296,25,223.781,25,250.038c0,26.258,22.801,47.742,50.669,47.742h18.356
		C95.142,297.78,96.053,296.869,96.053,295.752z"/>
	<path fill="#EB690B" d="M429.915,236.556c-1.135,0-2.06-0.925-2.06-2.057v-4.339c0-1.131,0.925-2.056,2.06-2.056h39.342
		c-8.239-14.876-24.543-25.182-43.36-25.734h-22.197c-1.135,0-2.06,0.929-2.06,2.06v56.452c0,1.135,0.925,2.06,2.06,2.06h35.837
		c1.135,0,2.061,0.926,2.061,2.061v4.332c0,1.135-0.926,2.06-2.061,2.06h-35.837c-1.135,0-2.06,0.926-2.06,2.061v22.267
		c0,1.135,0.925,2.06,2.06,2.06h20.633c27.867,0,50.668-21.484,50.668-47.742c0-4.682-0.754-9.199-2.102-13.482H429.915z"/>
</g>
</svg>
