<?xml version="1.0" encoding="utf-8"?>
<!-- Generator: Adobe Illustrator 16.0.0, SVG Export Plug-In . SVG Version: 6.00 Build 0)  -->
<!DOCTYPE svg PUBLIC "-//W3C//DTD SVG 1.1//EN" "http://www.w3.org/Graphics/SVG/1.1/DTD/svg11.dtd">
<svg version="1.1" id="Calque_1" xmlns="http://www.w3.org/2000/svg" xmlns:xlink="http://www.w3.org/1999/xlink" x="0px" y="0px"
	 width="500px" height="500px" viewBox="0 0 500 500" enable-background="new 0 0 500 500" xml:space="preserve">
<g>
	
		<rect x="331.523" y="187.877" fill="none" stroke="#005091" stroke-width="3.4474" stroke-linecap="round" width="143.477" height="127.285"/>
	<path fill="#005091" stroke="#005091" stroke-width="0.4593" stroke-linecap="round" stroke-linejoin="round" d="M70.674,265.98
		v-29.505h41.654v78.352H44.88c-21.817,1.988-19.833-22.812-19.833-22.812l0.994-95.213c3.635-13.558,22.808-11.901,22.808-11.901
		h62.485v32.725h-45.62c-4.96,0-4.96,4.96-4.96,4.96v54.061c0.495,4.214,3.467,3.467,3.467,3.467h11.406
		c0,0,2.731,0.503,1.737-1.981v-9.92c0,0,0.495-2.727-2.725-2.232H70.674z"/>
	<path fill="#005091" stroke="#005091" stroke-width="0.4593" stroke-linecap="round" stroke-linejoin="round" d="M165.883,266.895
		h37.367v-31.741h-37.367v-16.53h36.039v-33.398h-53.228c0,0-16.858-1.318-18.842,11.905v37.032h-7.936v32.731h7.269v47.612h36.698
		V266.895z"/>
	<path fill="#005091" stroke="#005091" stroke-width="0.4593" stroke-linecap="round" stroke-linejoin="round" d="M284.246,185.558
		H211.51v128.279h68.766c0,0,15.543,3.307,19.513-13.882v-96.874C299.789,203.081,302.761,186.883,284.246,185.558z
		 M259.453,280.449h-10.586v-60.175h11.577c4.297,0.659,3.307,5.294,3.307,5.294v48.268
		C264.741,281.105,259.453,280.449,259.453,280.449z"/>
	<path fill="#005091" stroke="#005091" stroke-width="0.4593" stroke-linecap="round" stroke-linejoin="round" d="M467.402,194.822
		v35.704c0,0-17.845,5.288-17.53,17.188c0,0-3.635,14.884,16.868,19.509v36.031h-23.803l-30.423-28.092v-53.566l29.433-26.774
		H467.402z"/>
	<path fill="#005091" stroke="#005091" stroke-width="0.4593" stroke-linecap="round" stroke-linejoin="round" d="M341.443,195.153
		l27.765,27.433v17.527l34.057-12.895v-3.638l29.425-28.759h-40.663c0,0-4.639,5.284-8.273,0L341.443,195.153z"/>
	
		<line fill="none" stroke="#005091" stroke-width="3.4474" stroke-linecap="round" stroke-linejoin="round" x1="369.87" y1="249.695" x2="403.921" y2="235.813"/>
	
		<line fill="none" stroke="#005091" stroke-width="3.4474" stroke-linecap="round" stroke-linejoin="round" x1="369.87" y1="260.938" x2="403.921" y2="247.055"/>
	
		<line fill="none" stroke="#005091" stroke-width="3.4474" stroke-linecap="round" stroke-linejoin="round" x1="369.87" y1="273.174" x2="403.921" y2="259.291"/>
	
		<line fill="none" stroke="#005091" stroke-width="3.4474" stroke-linecap="round" stroke-linejoin="round" x1="369.87" y1="284.412" x2="403.921" y2="270.529"/>
	<path fill="#005091" stroke="#005091" stroke-width="0.4593" stroke-linecap="round" stroke-linejoin="round" d="M370.533,294.004
		c0.99,0.99,14.217,14.545,15.536,14.21c1.318-0.327,17.523-17.188,17.523-17.188v-10.911L370.533,294.004z"/>
</g>
</svg>
