<?xml version="1.0" encoding="utf-8"?>
<!-- Generator: Adobe Illustrator 16.0.0, SVG Export Plug-In . SVG Version: 6.00 Build 0)  -->
<!DOCTYPE svg PUBLIC "-//W3C//DTD SVG 1.1//EN" "http://www.w3.org/Graphics/SVG/1.1/DTD/svg11.dtd">
<svg version="1.1" id="Calque_2" xmlns="http://www.w3.org/2000/svg" xmlns:xlink="http://www.w3.org/1999/xlink" x="0px" y="0px"
	 width="500px" height="500px" viewBox="0 0 500 500" enable-background="new 0 0 500 500" xml:space="preserve">
<path fill="#0F3381" d="M417.722,192.665H406.49h-2.202h-66.989h-6.638c0.011,0.46,0.036,0.916,0.036,1.378
	c0,43.093-34.871,78.028-77.892,78.028c-43.016,0-77.893-34.935-77.893-78.028s34.877-78.027,77.893-78.027
	c27.539,0,51.72,14.329,65.571,35.937V39.567C297.522,30.233,274.435,25,250.114,25c-92.57,0-167.612,75.195-167.612,167.955
	c0,92.762,75.042,167.956,167.612,167.956c31.937,0,61.78-8.957,87.185-24.49v12.687c-27.528,20.483-61.462,32.598-98.202,32.598
	c-72.366,0-133.912-46.935-156.825-112.47v148.646C122.123,452.897,180.331,475,245.208,475c70.143,0,132.485-25.831,172.262-65.891
	h0.258v-0.253V203.087v-10.422H417.722z"/>
</svg>
