<?xml version="1.0" encoding="utf-8"?>
<!-- Generator: Adobe Illustrator 16.0.0, SVG Export Plug-In . SVG Version: 6.00 Build 0)  -->
<!DOCTYPE svg PUBLIC "-//W3C//DTD SVG 1.1//EN" "http://www.w3.org/Graphics/SVG/1.1/DTD/svg11.dtd">
<svg version="1.1" id="Calque_1" xmlns="http://www.w3.org/2000/svg" xmlns:xlink="http://www.w3.org/1999/xlink" x="0px" y="0px"
	 width="500px" height="500px" viewBox="0 0 500 500" enable-background="new 0 0 500 500" xml:space="preserve">
<g>
	<path fill="#E21B37" d="M228.484,247.303v28.874c0,7.021-0.264,13.969-5.229,19.239c-4.176,4.504-10.734,6.091-16.568,6.091
		c-5.827,0-12.391-1.587-16.564-6.091c-4.969-5.271-5.232-12.218-5.232-19.239v-28.874h15.484v25.41
		c0,7.097,0.341,14.84,6.372,14.84c6.027,0,6.365-7.743,6.365-14.84v-25.41"/>
	<path fill="#E21B37" d="M252.377,269.239h0.824c2.782,0,4.097-0.522,4.097-4.081c0-3.563-1.314-4.085-4.097-4.085h-0.824
		 M280.493,301.865h-17.656l-10.365-15.068h-0.144v15.068h-17.201v-54.563h21.207c10.776,0,17.371,3.912,19.859,15.586
		c1.563,7.355-3.992,12.751-7.036,15.855L280.493,301.865z"/>
	<polyline fill="#E21B37" points="307.249,301.865 289.746,301.865 289.746,263.237 278.021,263.237 278.021,247.303 
		318.961,247.303 318.961,263.237 307.249,263.237 	"/>
	<polyline fill="#E21B37" points="325.611,247.303 335.797,247.303 354.911,267.398 355.059,267.398 355.059,247.303 
		369.841,247.303 369.841,301.865 359.58,301.865 341.741,280.801 341.597,280.801 341.597,301.865 325.611,301.865 	"/>
	<polyline fill="#E21B37" points="392.676,262.641 392.676,267.537 404.826,267.537 404.826,279.545 392.676,279.545 
		392.676,284.433 411.346,284.433 411.346,301.865 378.502,301.865 378.502,247.303 411.346,247.303 411.346,262.641 	"/>
	<path fill="#E21B37" d="M435.395,269.239h0.823c2.773,0,4.091-0.522,4.091-4.081c0-3.563-1.317-4.085-4.091-4.085h-0.823
		 M463.51,301.865h-17.646l-10.381-15.068h-0.144v15.068H418.14v-54.563h21.211c10.773,0,17.372,3.912,19.86,15.586
		c1.556,7.355-4.003,12.751-7.037,15.855L463.51,301.865z"/>
	<path fill="#E21B37" d="M147.265,264.84c-8.157,11.228-25.427,18.751-45.413,18.751c-27.846,0-50.419-15.044-50.419-33.591
		c0-18.533,22.573-33.581,50.419-33.581c19.575,0,36.555,7.435,44.906,18.294l22.792-9.556c-12.981-16.432-38.429-27.6-67.698-27.6
		C59.405,197.558,25,221.047,25,250c0,28.968,34.405,52.442,76.852,52.442c42.449,0,76.862-23.475,76.862-52.442
		c0-1.105-0.057-2.22-0.154-3.319H65.974l-7.537,18.159"/>
	<path fill="#E21B37" d="M466.293,250.104v1.975h1.219c1.083,0,2.577,0.19,2.577-0.884c0-1.027-0.856-1.091-1.818-1.091
		 M471.135,256.927h-1.324l-2.04-3.682h-1.478v3.682h-1.161v-7.991h3.358c1.448,0,2.753,0.448,2.753,2.119
		c0,1.577-1.066,2.154-2.139,2.19L471.135,256.927z M461.918,252.887c0,3.334,2.71,5.937,5.957,5.937
		c3.26,0,5.967-2.603,5.967-5.937c0-3.354-2.707-5.952-5.967-5.952C464.628,246.935,461.918,249.532,461.918,252.887
		 M460.767,252.887c0-3.961,3.143-7.102,7.108-7.102c3.977,0,7.125,3.141,7.125,7.102c0,3.945-3.148,7.101-7.125,7.101
		C463.909,259.987,460.767,256.832,460.767,252.887"/>
</g>
</svg>
