<?xml version="1.0" encoding="utf-8"?>
<!-- Generator: Adobe Illustrator 16.0.0, SVG Export Plug-In . SVG Version: 6.00 Build 0)  -->
<!DOCTYPE svg PUBLIC "-//W3C//DTD SVG 1.1//EN" "http://www.w3.org/Graphics/SVG/1.1/DTD/svg11.dtd">
<svg version="1.1" id="Calque_1" xmlns="http://www.w3.org/2000/svg" xmlns:xlink="http://www.w3.org/1999/xlink" x="0px" y="0px"
	 width="500px" height="500px" viewBox="0 0 500 500" enable-background="new 0 0 500 500" xml:space="preserve">
<g>
	<rect x="25" y="45.367" fill="#1762A1" width="450" height="306.946"/>
	<path fill="#FFFFFF" d="M171.003,200.045v-28.113H88.996c0,0-60.926,5.456-60.926,63.99s55.458,63.306,55.458,63.306h100.749
		v-71.976h-48.42v43.857h-28.119c0,0-26.548-8.592-26.548-35.139c0-26.554,29.198-35.896,29.198-35.896L171.003,200.045z"/>
	<polygon fill="#FFFFFF" points="172.91,172.592 227.889,172.592 263.226,220.041 297.916,171.933 352.896,171.933 289.402,248.843 
		289.402,298.906 233.117,298.906 233.117,248.843 	"/>
	<path fill="#FFFFFF" d="M407.874,197.131h51.718v-27.813h-67.426c0,0-54.644,3.273-54.644,40.907
		c0,34.031,79.189,39.924,79.189,53.019c0,9.809-15.709,9.484-15.709,9.484h-75.592v29.45h83.446c0,0,64.8,3.273,64.8-43.851
		c0-47.125-79.525-30.758-79.525-53.337C394.132,194.841,407.874,197.131,407.874,197.131z"/>
	<rect x="106.467" y="227.253" fill="#FDC600" width="29.39" height="29.39"/>
	<rect x="25" y="348.512" fill="#FDC600" width="450" height="106.121"/>
</g>
</svg>
