<?xml version="1.0" encoding="utf-8"?>
<!-- Generator: Adobe Illustrator 16.0.0, SVG Export Plug-In . SVG Version: 6.00 Build 0)  -->
<!DOCTYPE svg PUBLIC "-//W3C//DTD SVG 1.1//EN" "http://www.w3.org/Graphics/SVG/1.1/DTD/svg11.dtd">
<svg version="1.1" id="Calque_1" xmlns="http://www.w3.org/2000/svg" xmlns:xlink="http://www.w3.org/1999/xlink" x="0px" y="0px"
	 width="500px" height="500px" viewBox="0 0 500 500" enable-background="new 0 0 500 500" xml:space="preserve">
<g>
	<rect x="25" y="208.009" fill="#00B195" width="450" height="83.982"/>
	<g>
		<path fill-rule="evenodd" clip-rule="evenodd" fill="#FFFFFF" d="M147.175,231.885l-0.023,3.852
			c-3.198-2.832-5.72-4.544-10.262-4.544c-10.117,0-18.599,8.553-18.599,19.035c0,10.474,8.481,19.007,18.599,19.007
			c4.504,0,7.05-1.559,10.237-4.348l-0.008,3.564l8.315,0.023l-0.011-36.588L147.175,231.885z M136.992,260.674
			c-5.606,0-10.149-4.702-10.149-10.508c0-5.803,4.542-10.51,10.149-10.51c5.602,0,10.146,4.707,10.146,10.51
			C147.138,255.972,142.593,260.674,136.992,260.674z"/>
		<path fill-rule="evenodd" clip-rule="evenodd" fill="#FFFFFF" d="M182.097,231.081c-3.963,0-7.535,1.597-10.068,4.16l0.008-3.368
			l-7.882,0.012l-0.013,36.59h8.472l0.04-21.504c0-3.862,3.37-6.991,7.527-6.991c4.156,0,7.528,3.129,7.528,6.991l-0.014,21.504
			h8.349l-0.056-24.297C195.828,236.917,189.669,231.081,182.097,231.081z"/>
		<path fill-rule="evenodd" clip-rule="evenodd" fill="#FFFFFF" d="M221.547,246.544l-5.608-1.182
			c-2.401-0.384-5.358-1.1-5.358-3.584c0-1.809,2.39-3.275,5.337-3.275c2.949,0,5.781,2.288,5.781,4.097l9.259,0.02
			c-1.007-6.464-7.245-11.342-14.788-11.342c-8.245,0-14.113,5.152-13.896,12.483c0.156,5.245,5.786,8.314,11.994,9.622l2.04,0.401
			c4.369,0.598,6.803,1.513,6.921,3.657c0.146,2.623-2.259,4.298-5.811,4.294c-3.794-0.008-6.834-2.462-6.834-5.336l-8.837-0.019
			c0.113,7.198,7.48,13.004,15.699,13.004c8.284,0,14.217-5.505,14.217-12.784C231.663,250.795,227.449,247.601,221.547,246.544z"/>
		<path fill-rule="evenodd" clip-rule="evenodd" fill="#FFFFFF" d="M265.969,235.54c-2.631-2.82-6.344-4.471-10.996-4.471
			c-9.698,0-17.912,8.942-17.912,18.667c0,10.302,8.02,18.661,17.912,18.661c4.12,0,8.092-2.33,11.064-5.625
			c0,0-0.021,0.452-0.021,0.684c0,6.261-5.04,11.338-11.253,11.338c-3.372,0-6.393-1.489-8.456-3.851l-8.819,0.043
			c2.324,6.666,9.292,11.511,17.524,11.511c9.389,0,18.569-8.803,18.585-16.388l0.016-0.362l0.02-33.858h-7.692L265.969,235.54z
			 M255.536,260.365c-5.556,0-10.053-4.637-10.053-10.366c0-5.725,4.497-10.37,10.053-10.37c5.547,0,10.049,4.645,10.049,10.37
			C265.585,255.729,261.083,260.365,255.536,260.365z"/>
		<path fill-rule="evenodd" clip-rule="evenodd" fill="#FFFFFF" d="M290.686,235.035v-3.146h-7.952v36.59h8.646l0.035-22.849
			c0.143-3.501,3.881-6.327,8.553-6.489l-0.004-8.084C295.759,231.057,292.23,232.724,290.686,235.035z"/>
		<path fill-rule="evenodd" clip-rule="evenodd" fill="#FFFFFF" d="M320.161,231.132c-10.147,0-18.38,8.516-18.38,19.018
			c0,10.501,8.232,19.015,18.38,19.015c10.149,0,18.38-8.514,18.38-19.015C338.541,239.648,330.311,231.132,320.161,231.132z
			 M320.094,260.686c-5.548,0-10.048-4.718-10.048-10.535c0-5.822,4.5-10.541,10.048-10.541c5.551,0,10.045,4.718,10.045,10.541
			C330.139,255.968,325.645,260.686,320.094,260.686z"/>
		<path fill-rule="evenodd" clip-rule="evenodd" fill="#FFFFFF" d="M420.129,250.166c0-10.518-8.132-19.047-18.164-19.047
			c-10.026,0-18.16,8.529-18.16,19.047c0,10.52,8.134,19.049,18.16,19.049c7.729,0,14.328-5.03,16.953-12.163l-8.988-0.004
			c-1.821,2.354-4.732,3.893-8.011,3.893c-4.757,0-8.742-3.137-9.747-7.438l27.83-0.012
			C420.186,252.407,420.129,251.308,420.129,250.166z M392.737,245.794c1.234-3.661,4.965-6.474,9.376-6.474
			c4.466,0,8.234,2.728,9.415,6.46L392.737,245.794z"/>
		<path fill-rule="evenodd" clip-rule="evenodd" fill="#FFFFFF" d="M97.881,231.128c-3.758,0-7.154,1.402-9.58,3.763v-26.883h-8.438
			v60.747h8.448v-21.888c0.377-3.682,3.259-6.925,7.285-6.925c4.019,0,7.28,3.1,7.28,6.925l-0.032,21.888h8.219l0.013-25.425
			C110.145,236.232,105.127,231.128,97.881,231.128z"/>
		<path fill-rule="evenodd" clip-rule="evenodd" fill="#FFFFFF" d="M363.705,231.034c-3.759,0-7.155,1.404-9.574,3.765v-26.791
			h-8.445v60.658h8.453v-21.888c0.378-3.686,3.26-6.924,7.281-6.924s7.283,3.096,7.283,6.924l0.002,21.888h8.19l0.006-25.425
			C375.97,236.142,370.952,231.034,363.705,231.034z"/>
	</g>
</g>
</svg>
