<?xml version="1.0" encoding="utf-8"?>
<!-- Generator: Adobe Illustrator 16.0.0, SVG Export Plug-In . SVG Version: 6.00 Build 0)  -->
<!DOCTYPE svg PUBLIC "-//W3C//DTD SVG 1.1//EN" "http://www.w3.org/Graphics/SVG/1.1/DTD/svg11.dtd">
<svg version="1.1" id="Calque_1" xmlns="http://www.w3.org/2000/svg" xmlns:xlink="http://www.w3.org/1999/xlink" x="0px" y="0px"
	 width="500px" height="500px" viewBox="0 0 500 500" enable-background="new 0 0 500 500" xml:space="preserve">
<g>
	<g>
		<path d="M168.914,163.338h18.417v31.973h33.899v-31.973h18.42v83.32h-18.42v-35.94h-33.899v35.94h-18.417V163.338z"/>
		<path d="M253.371,204.883c0.935-15.522,14.9-20.19,28.507-20.19c12.083,0,26.624,2.685,26.624,17.158v31.391
			c0,5.483,0.59,10.966,2.113,13.417h-16.891c-0.589-1.869-1.057-3.853-1.171-5.836c-5.28,5.483-13.024,7.467-20.417,7.467
			c-11.495,0-20.641-5.713-20.641-18.081c0-13.654,10.323-16.924,20.641-18.325c10.208-1.517,19.713-1.165,19.713-7.934
			c0-7.118-4.929-8.171-10.791-8.171c-6.336,0-10.438,2.573-11.034,9.105H253.371z M291.85,217.136
			c-2.816,2.451-8.679,2.565-13.844,3.5c-5.165,1.049-9.85,2.803-9.85,8.868c0,6.188,4.807,7.704,10.201,7.704
			c13.018,0,13.492-10.269,13.492-13.884V217.136z"/>
		<path d="M390.732,246.658h-17.12l-10.798-40.496h-0.23l-10.323,40.496h-17.249l-19.238-60.331h17.601l11.143,40.962h0.23
			l10.087-40.962h16.192l10.323,40.84h0.237l11.143-40.84h17.127L390.732,246.658z"/>
		<path d="M416.192,204.883c0.935-15.522,14.894-20.19,28.5-20.19c12.084,0,26.632,2.685,26.632,17.158v31.391
			c0,5.483,0.582,10.966,2.112,13.417h-16.897c-0.589-1.869-1.056-3.853-1.171-5.836c-5.28,5.483-13.024,7.467-20.41,7.467
			c-11.495,0-20.647-5.713-20.647-18.081c0-13.654,10.324-16.924,20.647-18.325c10.208-1.517,19.706-1.165,19.706-7.934
			c0-7.118-4.928-8.171-10.791-8.171c-6.336,0-10.445,2.573-11.027,9.105H416.192z M454.664,217.136
			c-2.816,2.451-8.679,2.565-13.844,3.5c-5.158,1.049-9.85,2.803-9.85,8.868c0,6.188,4.807,7.704,10.209,7.704
			c13.018,0,13.484-10.269,13.484-13.884V217.136z"/>
	</g>
	<g>
		<path d="M395.234,167.877c-0.061,2.904,2.031,3.794,4.604,3.794c1.482,0,3.736-0.812,3.736-2.864c0-1.604-1.604-2.233-2.904-2.552
			l-3.147-0.769c-1.659-0.416-3.182-1.208-3.182-3.401c0-1.385,0.894-3.974,4.86-3.974c2.789,0,5.239,1.502,5.227,4.39h-1.348
			c-0.081-2.156-1.861-3.242-3.852-3.242c-1.842,0-3.541,0.71-3.541,2.806c0,1.327,0.988,1.879,2.133,2.152l3.438,0.854
			c1.997,0.535,3.655,1.404,3.655,3.716c0,0.968-0.393,4.031-5.395,4.031c-3.338,0-5.788-1.503-5.633-4.942H395.234z"/>
		<path d="M410.567,158.41h1.441l3.202,12.351h0.041l3.438-12.351h1.679l3.46,12.351h0.04l3.223-12.351h1.348l-3.893,14.111h-1.429
			l-3.574-12.628h-0.041l-3.561,12.628h-1.456L410.567,158.41z"/>
		<path d="M434.958,158.41h1.347v14.111h-1.347V158.41z"/>
		<path d="M444.821,167.877c-0.062,2.904,2.038,3.794,4.604,3.794c1.482,0,3.736-0.812,3.736-2.864c0-1.604-1.598-2.233-2.904-2.552
			l-3.141-0.769c-1.659-0.416-3.182-1.208-3.182-3.401c0-1.385,0.887-3.974,4.86-3.974c2.789,0,5.24,1.502,5.22,4.39h-1.348
			c-0.074-2.156-1.854-3.242-3.852-3.242c-1.842,0-3.54,0.71-3.54,2.806c0,1.327,0.988,1.879,2.132,2.152l3.446,0.854
			c1.99,0.535,3.655,1.404,3.655,3.716c0,0.968-0.399,4.031-5.396,4.031c-3.344,0-5.795-1.503-5.633-4.942H444.821z"/>
		<path d="M462.219,167.877c-0.061,2.904,2.031,3.794,4.604,3.794c1.482,0,3.73-0.812,3.73-2.864c0-1.604-1.598-2.233-2.904-2.552
			l-3.142-0.769c-1.658-0.416-3.182-1.208-3.182-3.401c0-1.385,0.894-3.974,4.86-3.974c2.789,0,5.24,1.502,5.22,4.39h-1.341
			c-0.081-2.156-1.861-3.242-3.858-3.242c-1.834,0-3.54,0.71-3.54,2.806c0,1.327,0.995,1.879,2.139,2.152l3.439,0.854
			c1.997,0.535,3.655,1.404,3.655,3.716c0,0.968-0.393,4.031-5.396,4.031c-3.337,0-5.788-1.503-5.632-4.942H462.219z"/>
	</g>
	<polygon points="107.48,206.663 161.346,206.663 107.48,261.643 233.729,261.643 256.174,288.585 25,288.585 	"/>
	<polygon fill="#E21B25" points="391.396,288.585 266.829,288.585 244.95,262.211 475,262.211 394.205,341.889 340.333,341.889 	"/>
</g>
</svg>
