<?xml version="1.0" encoding="utf-8"?>
<!-- Generator: Adobe Illustrator 16.0.0, SVG Export Plug-In . SVG Version: 6.00 Build 0)  -->
<!DOCTYPE svg PUBLIC "-//W3C//DTD SVG 1.1//EN" "http://www.w3.org/Graphics/SVG/1.1/DTD/svg11.dtd">
<svg version="1.1" id="Calque_1" xmlns="http://www.w3.org/2000/svg" xmlns:xlink="http://www.w3.org/1999/xlink" x="0px" y="0px"
	 width="500px" height="500px" viewBox="0 0 500 500" enable-background="new 0 0 500 500" xml:space="preserve">
<g>
	<path fill="#172983" d="M457.563,157.447h-92.712c-10.451,0-18.955,8.503-18.955,18.955v92.479
		c0,10.459,8.504,18.968,18.955,18.968h92.712c10.455,0,18.961-8.509,18.961-18.968v-92.479
		C476.524,165.95,468.019,157.447,457.563,157.447z"/>
	<path fill="#FFFFFF" d="M451.984,209.667c-4.999-1.132-9.786,3.191-12.283,10.694c0,0,1.371,5.456,0.683,7.509
		c-0.683,2.039,0.913,13.641,2.271,14.786c1.377,1.132,3.647-0.457,4.78-2.046c1.139-1.602,4.549-5.237,6.602-7.058
		C464.042,221.493,456.984,210.806,451.984,209.667z M455.549,221.023c-1.273,0.534-2.188,0.798-2.708-0.476
		c-0.599-1.409,0.187-3.706-0.483-3.719l-2.116-0.824c-0.509,0-1.59,2.67-3.127,5.579c2.444,1.338,3.487,1.152,3.487,4.054
		c0,1.319-1.043,2.252-2.361,2.335c-1.313,0.09-1.86-4.613-3.964-5.476l-3.81,1.622l1.004-2.335
		c2.606-6.067,5.534-9.008,8.963-8.989c3.397,0.019,5.907,3.146,7.026,5.823C457.987,219.891,456.829,220.496,455.549,221.023z"/>
	<g>
		<path fill="#FFFFFF" d="M471.146,274.717c-3.854-4.484-9.374-7.328-13.486-16.4c-4.085-11.421-6.009-25.854-6.009-25.854
			l-9.278-2.824c0.199-2.825-0.213-5.727-1.326-8.693c-2.998-7.888-11.607-3.867-11.607-3.867s0.683-14.554-2.722-20.023
			c-3.423-5.45-2.76-14.329-2.76-16.832c0-1.365-12.238-4.218-25.027-3.431c-2.413,0.839-4.565,1.545-5.407,1.835
			c-1.441,0.496-0.456,1.184-5.379,4.42c0,0-0.626-2.268,2.144-5.1c-7.551,1.639-14.33,5.046-17.721,11.373
			c-2.04,4.78-3.41,10.243-3.86,11.382c-0.287,0.723-1.639,6.014-2.579,10.222c2.769-0.251,6.749,1.877,7.128,4.333
			c-2.466-0.452-6.059-0.89-7.013,2.394c0.289,0.229,0.608,0.437,0.931,0.618c0.67-0.961,2.123-1.527,4.133-0.393l-3.592,2.473
			c-0.225,0.232-0.469,0.493-0.745,0.809c-2.259,1.756-3.018,3.326-2.008,6.769c0.393,2.13,0.92,3.745,2.123,6.145
			c-1.589,4.543-0.746,11.569,0.02,14.851c0.914,3.873,2.406,8.107,2.239,14.168c-0.244,9.523,10.019,15.172,17.759,13.345
			c5.012-1.171,28.368-11.794,44.242-26.985c0.669,7.869-5.129,21.716-9.51,34.179h39.48
			C459.757,282.497,472.182,277.419,471.146,274.717z M367.657,230.701c-1.036-1.635-1.705-2.593-0.187-3.275
			c2.001-1.042,6.55-0.013,8.345,0.837c2.053,0.965,2.671,3.339,8.609,0.739c-0.682,2.954-2.953,4.317-5.682,3.642
			c-0.969-0.242-1.892-0.538-2.76-0.816c-3.613,2.077-5.394,3.437-6.501,0.271C368.428,232.613,368.158,231.49,367.657,230.701z
			 M372.83,254.874c-3.005-1.1,0.683-4.536,3.417-5.449C383.292,251.013,377.495,256.579,372.83,254.874z M386.246,244.926
			c-8.416-3.416-14.786,1.364-17.058,3.867c-0.231-3.417-0.36-5.141,2.567-6.839c1.255-0.74,6.112-0.296,8.468,0.212
			c1.486,0.315,3.918,0.617,9.793,0.405C390.017,242.572,389.662,245.158,386.246,244.926z M403.534,197.384
			c-5.913-1.132-11.607,0.457-13.184,4.324c-0.238,1.814,3.867-1.19,6.357-1.37c3.191-0.219,8.596,1.878,8.821,6.434
			c-4.549-0.688-16.092-0.573-17.231,5.167c0.676-1.589-3.152-2.657-3.152-2.657c-2.046,0-6.28-3.764-3.674-7.123
			c4.015-5.192,19.341-13.872,29.121-5.462C412.407,198.297,409.447,198.523,403.534,197.384z"/>
	</g>
	<path fill="#172983" d="M452.898,234.664c-1.918,2.052-7.767,4.838-9.162,5.096c-0.695,0.083-1.423,0.083-2.156-0.032
		c-0.881-0.129-1.628-0.728-1.956-1.551c-0.328-0.843-0.18-1.776,0.373-2.471c1.474-1.866,2.033-5.656,2.13-6.962
		c0-0.045,0.02-0.09,0.02-0.148c-0.54-1.994-1.139-3.255-1.718-3.423c-1.435-1.383-1.113-3.777-0.728-4.813
		c1.281-3.378,2.522-6.589-2.188-7.535c0,0-5.019-0.547-4.118,3.262c2.227,9.478-3.075,23.53-6.241,29.906
		c-2.74,1.139-5.598,1.603-8.178,2.252c-7.277,1.821-7.29,7.271-14.116,11.588c-6.37,4.028-8.32,5.109-15.597,5.412
		c-6.017,0.25-16.453,8.512-10.951,10.809c10.507,4.401,21.001-4.201,25.499,8.159h23.729c0.334-0.309-2.06-2.374-2.078-2.471
		c-3.23-13.467,6.138-6.435,12.289-20.789c1.036-2.413,2.291-5.868,3.391-9.567c0,0,0.007,0.006,0.02,0.006
		c0.013-0.07,0.025-0.129,0.032-0.199c0.315-1.042,0.611-2.098,0.888-3.153c3.23-8.274,11.306-6.074,12.238-1.557
		C454.623,247.951,452.898,234.664,452.898,234.664z"/>
	<polygon fill="#172983" points="25,158.836 30.476,158.836 30.476,181.542 64.635,181.542 64.635,158.836 70.11,158.836 
		70.11,211.127 64.635,211.127 64.635,185.79 30.476,185.79 30.476,211.127 25,211.127 25,158.836 	"/>
	<path fill="#172983" d="M99.361,207.981c15.143,0,21.593-11.575,21.593-22.996c0-11.427-6.45-23.002-21.593-23.002
		c-15.23,0-21.674,11.575-21.674,23.002C77.687,196.406,84.131,207.981,99.361,207.981L99.361,207.981z M99.361,157.736
		c18.042,0,27.069,12.965,27.069,27.249c0,14.278-9.027,27.243-27.069,27.243c-18.132,0-27.153-12.965-27.153-27.243
		C72.208,170.701,81.229,157.736,99.361,157.736L99.361,157.736z"/>
	<polygon fill="#172983" points="122.717,158.836 128.868,158.836 142.519,204.609 142.683,204.609 157.337,158.836 
		164.495,158.836 179.239,204.609 179.41,204.609 193.134,158.836 198.864,158.836 182.27,211.127 176.205,211.127 160.959,164.331 
		160.789,164.331 145.633,211.127 139.395,211.127 122.717,158.836 	"/>
	<path fill="#172983" d="M200.411,190.622h22.642l-11.122-26.806L200.411,190.622L200.411,190.622z M209.117,158.836h6.122
		l22.562,52.291h-5.884l-7.004-16.26h-26.194l-6.92,16.26h-5.888L209.117,158.836L209.117,158.836z"/>
	<path fill="#172983" d="M244.486,183.666h20.46c6.686,0,12.406-3.809,12.406-10.179c0-6.376-4.195-10.397-12.406-10.397h-20.46
		V183.666L244.486,183.666z M239.007,158.836h26.339c9.51,0,17.488,4.176,17.488,13.621c0,6.595-3.796,12.019-11.202,13.332v0.147
		c7.496,0.882,9.658,5.566,10.076,11.788c0.238,3.59,0.238,10.764,2.657,13.402h-6.048c-1.364-2.046-1.364-5.933-1.531-8.133
		c-0.477-7.316-1.126-15.449-11.518-15.082h-20.783v23.215h-5.479V158.836L239.007,158.836z"/>
	<path fill="#172983" d="M291.777,206.881h11.672c16.523,0.077,23.691-6.299,23.691-21.896c0-15.603-7.168-21.973-23.691-21.896
		h-11.672V206.881L291.777,206.881z M286.289,158.836h19.908c17.32,0.366,26.425,9.008,26.425,26.148
		c0,17.135-9.104,25.782-26.425,26.143h-19.908V158.836L286.289,158.836z"/>
	<polygon fill="#172983" points="25.312,219.936 34.857,219.936 34.857,277.857 72.839,277.857 72.839,285.167 25.312,285.167 
		25.312,219.936 	"/>
	<polygon fill="#172983" points="75.856,219.936 125.388,219.936 125.388,227.246 85.398,227.246 85.398,247.983 122.679,247.983 
		122.679,255.292 85.398,255.292 85.398,277.857 125.693,277.857 125.693,285.167 75.856,285.167 75.856,219.936 	"/>
	<polygon fill="#172983" points="132.33,219.936 141.872,219.936 141.872,285.167 132.33,285.167 132.33,219.936 	"/>
	<path fill="#172983" d="M203.062,277.034c-5.524,6.846-14.564,9.677-23.009,9.677c-21.403,0-34.159-15.886-34.159-32.892
		c0-18.994,11.453-35.427,34.159-35.427c15.681,0,28.137,6.383,30.856,21.645h-9.552c-1.911-9.864-10.652-14.349-21.304-14.349
		c-17.379,0-24.617,13.705-24.617,27.681c0,13.614,8.645,26.039,24.617,26.039c14.77,0,23.614-9.407,23.009-21.284h-22.906v-7.31
		h31.454v34.353h-6.032L203.062,277.034L203.062,277.034z"/>
	<polygon fill="#172983" points="215.631,219.936 225.173,219.936 225.173,247.983 262.952,247.983 262.952,219.936 
		272.501,219.936 272.501,285.167 262.952,285.167 262.952,255.292 225.173,255.292 225.173,285.167 215.631,285.167 
		215.631,219.936 	"/>
	<polygon fill="#172983" points="299.126,227.246 275.216,227.246 275.216,219.936 332.59,219.936 332.59,227.246 308.674,227.246 
		308.674,285.167 299.126,285.167 299.126,227.246 	"/>
	<g>
		<path d="M142.725,315.401c-5.073,0-5.624,5.463-5.624,8.854c0,5.553,3.468,7.039,5.704,7.039c3.834,0,5.624-3.48,5.624-8.074
			C148.429,320.542,148.148,315.401,142.725,315.401L142.725,315.401z M133.752,333.719v-28.651h3.5v10.417h0.087
			c1.519-2.2,3.587-3.191,6.022-3.243c5.547,0,8.696,4.55,8.696,10.424c0,4.986-2.069,11.652-9.175,11.652
			c-3.555,0-5.028-2.033-5.746-3.198h-0.078v2.6H133.752L133.752,333.719z"/>
		<path d="M168.462,312.84h3.873c-2.432,6.833-4.829,13.653-7.502,20.474c-3.317,8.461-3.674,8.95-8.182,8.95
			c-0.521,0-0.92-0.16-1.477-0.315v-3.197c0.444,0.154,1.158,0.354,2.117,0.354c1.837,0,2.033-0.515,3.706-4.825l-7.737-21.439
			h3.992l5.543,17.006h0.077L168.462,312.84L168.462,312.84z"/>
		<polygon points="205.777,305.068 209.65,305.068 209.65,333.719 205.777,333.719 205.777,320.342 190.817,320.342 
			190.817,333.719 186.938,333.719 186.938,305.068 190.817,305.068 190.817,316.914 205.777,316.914 205.777,305.068 		"/>
		<path d="M223.764,331.243c5.044,0,6.077-5.193,6.077-7.973c0-2.805-1.033-7.984-6.077-7.984c-5.022,0-6.051,5.18-6.051,7.984
			C217.713,326.049,218.742,331.243,223.764,331.243L223.764,331.243z M223.764,312.242c6.679,0,9.709,5.63,9.709,11.028
			c0,5.386-3.031,11.01-9.709,11.01c-6.653,0-9.684-5.624-9.684-11.01C214.081,317.872,217.111,312.242,223.764,312.242
			L223.764,312.242z"/>
		<path d="M254.469,333.719h-3.517v-12.855c0-3.629-1.042-5.463-4.469-5.463c-1.998,0-5.511,1.274-5.511,6.949v11.369h-3.51V312.84
			h3.317v2.967h0.074c0.756-1.12,2.719-3.565,6.303-3.565c3.239,0,7.313,1.325,7.313,7.277V333.719L254.469,333.719z"/>
		<path d="M274.019,321.624c-0.205-3.236-1.569-6.223-5.822-6.223c-3.243,0-5.791,2.986-5.791,6.223H274.019L274.019,321.624z
			 M277.365,327.169c-0.116,0.997-1.068,3.95-3.693,5.714c-0.966,0.637-2.323,1.435-5.675,1.435c-5.868,0-9.343-4.433-9.343-10.456
			c0-6.466,3.114-11.62,10.012-11.62c6.022,0,8.982,4.794,8.982,12.181h-15.243c0,4.343,2.033,6.871,6.067,6.871
			c3.308,0,5.27-2.554,5.379-4.124H277.365L277.365,327.169z"/>
		<path d="M294.094,312.84h3.88c-2.451,6.833-4.838,13.653-7.509,20.474c-3.319,8.461-3.674,8.95-8.185,8.95
			c-0.521,0-0.913-0.16-1.486-0.315v-3.197c0.457,0.154,1.165,0.354,2.13,0.354c1.827,0,2.021-0.515,3.72-4.825l-7.747-21.439h3.977
			l5.546,17.006h0.09L294.094,312.84L294.094,312.84z"/>
		<polygon points="308.622,333.719 304.993,333.719 298.952,312.84 302.793,312.84 306.782,329.254 306.866,329.254 310.888,312.84 
			314.8,312.84 318.872,329.254 318.943,329.254 323.189,312.84 326.703,312.84 320.629,333.719 317,333.719 312.767,317.55 
			312.689,317.55 308.622,333.719 		"/>
		<path d="M343.779,321.624c-0.199-3.236-1.557-6.223-5.836-6.223c-3.224,0-5.771,2.986-5.771,6.223H343.779L343.779,321.624z
			 M347.138,327.169c-0.122,0.997-1.087,3.95-3.725,5.714c-0.946,0.637-2.311,1.435-5.662,1.435c-5.862,0-9.337-4.433-9.337-10.456
			c0-6.466,3.102-11.62,10.025-11.62c6.009,0,8.969,4.794,8.969,12.181h-15.236c0,4.343,2.033,6.871,6.062,6.871
			c3.307,0,5.257-2.554,5.385-4.124H347.138L347.138,327.169z"/>
		<polygon points="355.194,333.719 351.681,333.719 351.681,305.068 355.194,305.068 355.194,333.719 		"/>
		<polygon points="364.041,333.719 360.547,333.719 360.547,305.068 364.041,305.068 364.041,333.719 		"/>
	</g>
</g>
</svg>
