<?xml version="1.0" encoding="utf-8"?>
<!-- Generator: Adobe Illustrator 16.0.0, SVG Export Plug-In . SVG Version: 6.00 Build 0)  -->
<!DOCTYPE svg PUBLIC "-//W3C//DTD SVG 1.1//EN" "http://www.w3.org/Graphics/SVG/1.1/DTD/svg11.dtd">
<svg version="1.1" id="Calque_2" xmlns="http://www.w3.org/2000/svg" xmlns:xlink="http://www.w3.org/1999/xlink" x="0px" y="0px"
	 width="500px" height="500px" viewBox="0 0 500 500" enable-background="new 0 0 500 500" xml:space="preserve">
<g>
	<path fill="#0076BD" d="M60.275,251.256v-65.407V109.91H25v147.868c0,15.854,12.895,28.753,28.747,28.753h6.528V251.256z"/>
	<path fill="#0076BD" d="M123.721,102.071l-40.71,40.698h23.073v43.079v65.407v35.275h6.528c15.852,0,28.747-12.899,28.747-28.753
		V142.77h23.08L123.721,102.071z"/>
	<path fill="#0076BD" d="M164.435,382.68l-40.71-40.702h23.073v-43.076v-65.407V198.22h6.528c15.852,0,28.747,12.895,28.747,28.749
		v115.009h23.08L164.435,382.68z"/>
	<path fill="#0076BD" d="M118.186,348.859c-9.165,0-16.665-7.502-16.665-16.665v-70.16v-14.906V197.47
		c-20.75,4.279-36.475,22.753-36.475,44.721v94.941c0,25.108,20.544,45.655,45.655,45.655h26.272c6.486,0,12.656-1.394,18.258-3.858
		l-30.077-30.069H118.186z"/>
	<rect x="26.388" y="395.104" fill="#0076BD" width="448.612" height="2.825"/>
	<polygon fill="#4D4F50" points="475,197.567 461.657,197.567 438.141,197.567 424.798,197.567 424.798,217.359 438.141,217.359 
		438.141,341.487 461.657,341.487 461.657,217.359 475,217.359 	"/>
	<polygon fill="#4D4F50" points="254.417,197.567 254.417,250.246 244.62,250.246 244.62,197.567 221.104,197.567 221.104,341.487 
		244.62,341.487 244.62,275.339 254.417,275.339 254.417,341.487 277.934,341.487 277.934,197.567 	"/>
	<path fill="#4D4F50" d="M400.274,197.567h-22.146c-9.167,0-16.665,7.5-16.665,16.665v110.59c0,9.171,7.498,16.665,16.665,16.665
		h22.146c9.167,0,16.665-7.494,16.665-16.665v-110.59C416.939,205.067,409.441,197.567,400.274,197.567z M394.896,316.332
		c0,3.575-2.564,6.5-5.695,6.5s-5.695-2.925-5.695-6.5v-93.608c0-3.575,2.564-6.499,5.695-6.499s5.695,2.924,5.695,6.499V316.332z"
		/>
	<path fill="#4D4F50" d="M325.082,198.22V315.1c0,4.249-2.564,7.732-5.696,7.732c-3.131,0-5.695-3.483-5.695-7.732V198.22h-22.043
		v126.603c0,9.171,7.499,16.665,16.666,16.665h22.146c9.167,0,16.666-7.494,16.666-16.665V198.22H325.082z"/>
	<g>
		<path d="M239.687,367.848c-1.451-0.521-3.433-1.057-5.893-1.588c-2.373-0.514-4.007-1.049-4.855-1.585
			c-0.75-0.475-1.114-1.171-1.114-2.136c0-1.087,0.477-1.937,1.454-2.595c1.03-0.697,2.522-1.049,4.438-1.049
			c3.938,0,6.015,1.47,6.348,4.493l0.048,0.437h4.5l-0.021-0.513c-0.119-2.733-1.204-4.885-3.221-6.389
			c-1.979-1.478-4.603-2.224-7.802-2.224c-3.051,0-5.544,0.742-7.41,2.212c-1.898,1.501-2.861,3.445-2.861,5.788
			c0,2.09,0.749,3.789,2.228,5.06c1.445,1.232,3.732,2.166,6.997,2.855c3.085,0.643,5.282,1.305,6.524,1.96
			c1.127,0.593,1.675,1.52,1.675,2.824c0,1.256-0.54,2.224-1.65,2.963c-1.158,0.766-2.725,1.155-4.658,1.155
			c-2.046,0-3.81-0.459-5.246-1.377c-1.399-0.889-2.165-2.235-2.338-4.119l-0.042-0.443h-4.465l0.019,0.505
			c0.105,2.817,1.179,5.159,3.196,6.958c2.004,1.792,5.041,2.695,9.027,2.695c3.129,0,5.712-0.815,7.678-2.427
			c1.994-1.631,3.006-3.713,3.006-6.186c0-1.96-0.563-3.552-1.675-4.734C242.502,369.249,241.195,368.396,239.687,367.848z"/>
		<path d="M261.536,355.159h-4.593l-10.69,27.448l-0.258,0.67h4.905l3.043-8.261h10.848l3.073,7.946l0.119,0.314h5.178
			l-11.501-27.812L261.536,355.159z M263.351,371.189h-8.057l3.935-10.706L263.351,371.189z"/>
		<rect x="275.435" y="355.159" width="4.643" height="28.118"/>
		<polygon points="303.804,375.461 290.136,355.159 285.665,355.159 285.665,383.277 290.102,383.277 290.102,362.976 
			303.77,383.277 308.256,383.277 308.256,355.159 303.804,355.159 		"/>
		<polygon points="311.199,359.362 320.229,359.362 320.229,383.277 324.871,383.277 324.871,359.362 333.977,359.362 
			333.977,355.159 311.199,355.159 		"/>
		<rect x="335.083" y="370.799" width="11.307" height="4.333"/>
		<polygon points="363.132,376.709 356.035,355.159 349.724,355.159 349.724,383.277 354.16,383.277 354.16,362.669 
			361.053,382.939 361.164,383.277 365.137,383.277 372.142,362.669 372.142,383.277 376.578,383.277 376.578,355.159 
			370.27,355.159 		"/>
		<rect x="382.204" y="355.159" width="4.644" height="28.118"/>
		<polygon points="410.387,366.306 397.06,366.306 397.06,355.159 392.436,355.159 392.436,383.277 397.06,383.277 397.06,370.5 
			410.387,370.5 410.387,383.277 415.025,383.277 415.025,355.159 410.387,355.159 		"/>
		<rect x="420.656" y="355.159" width="4.643" height="28.118"/>
		<polygon points="435.511,370.875 450.699,370.875 450.699,366.673 435.511,366.673 435.511,359.362 451.751,359.362 
			451.751,355.159 430.888,355.159 430.888,383.277 452.391,383.277 452.391,379.074 435.511,379.074 		"/>
		<polygon points="461.155,379.074 461.155,355.159 456.532,355.159 456.532,383.277 474.541,383.277 474.541,379.074 		"/>
	</g>
</g>
</svg>
