<?xml version="1.0" encoding="utf-8"?>
<!-- Generator: Adobe Illustrator 16.0.0, SVG Export Plug-In . SVG Version: 6.00 Build 0)  -->
<!DOCTYPE svg PUBLIC "-//W3C//DTD SVG 1.1//EN" "http://www.w3.org/Graphics/SVG/1.1/DTD/svg11.dtd">
<svg version="1.1" xmlns="http://www.w3.org/2000/svg" xmlns:xlink="http://www.w3.org/1999/xlink" x="0px" y="0px" width="500px"
	 height="500px" viewBox="0 0 500 500" enable-background="new 0 0 500 500" xml:space="preserve">
<g id="Calque_1">
</g>
<g id="Calque_2">
	<g>
		<rect x="25" y="82.695" fill="#172983" width="450" height="334.61"/>
		<polygon fill="#FFFFFF" points="250.599,98.287 53.914,392.12 446.091,392.12 		"/>
		<g>
			<g>
				<path fill="#172983" d="M239.98,127.195h15.777v48.245H239.98V127.195z"/>
				<path fill="#172983" d="M209.819,195.556h14.701l19.177,26.691v-26.691h14.836v48.245h-14.836l-19.079-26.491v26.491h-14.799
					V195.556z"/>
				<path fill="#172983" d="M269.616,195.556h15.775v48.245h-15.775V195.556z"/>
				<path fill="#172983" d="M158.675,263.915h47.841v11.915h-16.05v36.334h-15.741V275.83h-16.05V263.915z"/>
				<path fill="#172983" d="M214.268,263.915h15.776v48.249h-15.776V263.915z"/>
				<path fill="#172983" d="M272.645,304.199h-17.865l-2.487,7.965h-16.064l19.145-48.249h17.167l19.135,48.249h-16.479
					L272.645,304.199z M269.384,293.766l-5.622-17.343l-5.565,17.343H269.384z"/>
				<path fill="#172983" d="M296.678,263.915h15.741v36.366h24.566v11.883h-40.308V263.915z"/>
			</g>
			<g>
				<path fill="#172983" d="M105.079,365.901l13.422-0.84c0.295,2.179,0.885,3.841,1.778,4.982c1.448,1.849,3.528,2.769,6.226,2.769
					c2.01,0,3.563-0.471,4.652-1.416c1.096-0.945,1.637-2.038,1.637-3.285c0-1.181-0.52-2.241-1.553-3.176
					c-1.04-0.935-3.45-1.816-7.231-2.646c-6.184-1.391-10.597-3.239-13.232-5.54c-2.656-2.306-3.984-5.243-3.984-8.813
					c0-2.348,0.682-4.564,2.038-6.651c1.363-2.084,3.408-3.725,6.135-4.919c2.733-1.191,6.472-1.789,11.229-1.789
					c5.833,0,10.281,1.083,13.337,3.254c3.064,2.168,4.884,5.618,5.467,10.352l-13.295,0.779c-0.352-2.055-1.096-3.548-2.228-4.482
					c-1.131-0.936-2.691-1.402-4.688-1.402c-1.637,0-2.874,0.348-3.703,1.043c-0.829,0.696-1.244,1.543-1.244,2.537
					c0,0.728,0.337,1.381,1.026,1.961c0.661,0.604,2.242,1.163,4.729,1.683c6.17,1.328,10.583,2.674,13.253,4.034
					c2.664,1.359,4.61,3.046,5.826,5.06c1.208,2.013,1.82,4.266,1.82,6.757c0,2.927-0.808,5.625-2.431,8.095
					c-1.616,2.47-3.879,4.343-6.789,5.622c-2.902,1.275-6.57,1.915-10.99,1.915c-7.765,0-13.141-1.497-16.127-4.483
					C107.166,374.309,105.473,370.511,105.079,365.901z"/>
				<path fill="#172983" d="M189.469,367.612h-25.411c0.225,2.038,0.78,3.553,1.651,4.547c1.223,1.434,2.818,2.15,4.793,2.15
					c1.244,0,2.431-0.313,3.548-0.935c0.689-0.394,1.42-1.089,2.214-2.087l12.487,1.152c-1.912,3.32-4.216,5.702-6.915,7.146
					c-2.698,1.444-6.57,2.164-11.616,2.164c-4.378,0-7.829-0.618-10.337-1.852c-2.509-1.236-4.596-3.197-6.24-5.885
					c-1.651-2.688-2.481-5.851-2.481-9.483c0-5.169,1.659-9.35,4.969-12.547c3.31-3.197,7.884-4.796,13.717-4.796
					c4.736,0,8.468,0.717,11.208,2.146c2.741,1.434,4.828,3.51,6.261,6.229s2.15,6.258,2.15,10.618V367.612z M176.574,361.541
					c-0.246-2.449-0.907-4.202-1.975-5.26c-1.068-1.062-2.48-1.588-4.223-1.588c-2.01,0-3.619,0.797-4.828,2.396
					c-0.766,0.998-1.25,2.481-1.461,4.452H176.574z M169.849,334.577h10.899l-10.056,9.308h-6.071L169.849,334.577z"/>
				<path fill="#172983" d="M219.953,368.051l12.052,1.367c-0.667,2.512-1.757,4.687-3.275,6.524
					c-1.511,1.838-3.45,3.265-5.804,4.283c-2.354,1.016-5.355,1.524-8.981,1.524c-3.514,0-6.43-0.326-8.77-0.979
					c-2.333-0.654-4.343-1.712-6.022-3.173c-1.687-1.462-3.001-3.18-3.957-5.147c-0.956-1.972-1.434-4.586-1.434-7.843
					c0-3.401,0.583-6.233,1.743-8.492c0.851-1.658,2.017-3.148,3.493-4.466c1.469-1.314,2.987-2.295,4.546-2.938
					c2.467-1.016,5.636-1.524,9.494-1.524c5.397,0,9.515,0.966,12.347,2.895c2.832,1.93,4.821,4.754,5.966,8.472l-11.932,1.588
					c-0.373-1.412-1.054-2.477-2.038-3.193s-2.305-1.075-3.971-1.075c-2.094,0-3.794,0.752-5.087,2.256
					c-1.3,1.5-1.947,3.776-1.947,6.823c0,2.712,0.64,4.774,1.926,6.184c1.293,1.409,2.93,2.115,4.926,2.115
					c1.659,0,3.057-0.425,4.188-1.279C218.547,371.123,219.391,369.815,219.953,368.051z"/>
				<path fill="#172983" d="M272.673,381.002h-11.834v-5.354c-1.764,2.199-3.549,3.767-5.341,4.701
					c-1.801,0.935-4,1.401-6.621,1.401c-3.486,0-6.219-1.043-8.201-3.13c-1.981-2.084-2.972-5.299-2.972-9.638v-21.047h12.733
					v18.183c0,2.077,0.386,3.549,1.152,4.424c0.767,0.871,1.849,1.307,3.24,1.307c1.513,0,2.756-0.583,3.719-1.746
					c0.97-1.159,1.447-3.246,1.447-6.258v-15.909h12.678V381.002z"/>
				<path fill="#172983" d="M280.487,347.936h11.861v5.418c1.146-2.348,2.319-3.96,3.535-4.846c1.216-0.882,2.712-1.32,4.504-1.32
					c1.862,0,3.907,0.579,6.128,1.742l-3.921,9.03c-1.497-0.622-2.678-0.935-3.549-0.935c-1.658,0-2.951,0.685-3.858,2.055
					c-1.313,1.933-1.967,5.545-1.967,10.837v11.085h-12.733V347.936z"/>
				<path fill="#172983" d="M309.137,335.354h12.67v8.626h-12.67V335.354z M309.137,347.936h12.67v33.066h-12.67V347.936z"/>
				<path fill="#172983" d="M345.193,335.354v12.582h6.979v9.275h-6.979v11.719c0,1.408,0.134,2.34,0.408,2.797
					c0.414,0.702,1.138,1.057,2.178,1.057c0.935,0,2.242-0.271,3.922-0.808l0.935,8.745c-3.135,0.686-6.064,1.029-8.784,1.029
					c-3.155,0-5.475-0.403-6.972-1.212c-1.496-0.808-2.6-2.038-3.316-3.686c-0.717-1.648-1.075-4.318-1.075-8.008v-11.634h-4.673
					v-9.275h4.673v-6.075L345.193,335.354z"/>
				<path fill="#172983" d="M394.925,367.612h-25.41c0.225,2.038,0.78,3.553,1.651,4.547c1.223,1.434,2.818,2.15,4.793,2.15
					c1.243,0,2.431-0.313,3.549-0.935c0.688-0.394,1.419-1.089,2.213-2.087l12.487,1.152c-1.911,3.32-4.216,5.702-6.914,7.146
					c-2.699,1.444-6.57,2.164-11.616,2.164c-4.378,0-7.828-0.618-10.337-1.852c-2.509-1.236-4.596-3.197-6.24-5.885
					c-1.651-2.688-2.48-5.851-2.48-9.483c0-5.169,1.658-9.35,4.968-12.547s7.885-4.796,13.718-4.796
					c4.736,0,8.467,0.717,11.208,2.146c2.74,1.434,4.827,3.51,6.261,6.229s2.15,6.258,2.15,10.618V367.612z M382.03,361.541
					c-0.246-2.449-0.906-4.202-1.975-5.26c-1.068-1.062-2.48-1.588-4.224-1.588c-2.01,0-3.619,0.797-4.827,2.396
					c-0.767,0.998-1.251,2.481-1.462,4.452H382.03z M375.306,334.577h10.898l-10.056,9.308h-6.071L375.306,334.577z"/>
			</g>
		</g>
	</g>
</g>
</svg>
