<?xml version="1.0" encoding="utf-8"?>
<!-- Generator: Adobe Illustrator 16.0.0, SVG Export Plug-In . SVG Version: 6.00 Build 0)  -->
<!DOCTYPE svg PUBLIC "-//W3C//DTD SVG 1.1//EN" "http://www.w3.org/Graphics/SVG/1.1/DTD/svg11.dtd">
<svg version="1.1" id="Calque_2" xmlns="http://www.w3.org/2000/svg" xmlns:xlink="http://www.w3.org/1999/xlink" x="0px" y="0px"
	 width="500px" height="500px" viewBox="0 0 500 500" enable-background="new 0 0 500 500" xml:space="preserve">
<g>
	<rect x="27.017" y="184.515" fill="#E2001A" width="39.512" height="95.04"/>
	<path fill="#E2001A" d="M334.928,279.555h39.512l-38.799-95.04h-12.105h-19.577h-4.271l-39.512,95.04h34.085l3.729-12.105h32.992
		L334.928,279.555z M303.361,250.009L314.02,215.4l11.28,34.609H303.361z"/>
	<path fill="#E2001A" d="M184.886,279.555l-27.513-43.206c11.77-4.438,19.153-11.905,19.153-23.894
		c0-23.139-27.333-29.542-61.047-29.542c-13.009,0-25.043,1.986-34.949,5.339h-0.119v91.303h39.512v-37.607l-0.023-5.907
		l22.092,43.514H184.886z M137.454,216.723c0,6.662-5.448,12.109-12.107,12.109h-4.484c-0.353,0-0.684-0.075-1.028-0.104v-28.091
		c0.344-0.029,0.676-0.104,1.028-0.104h4.484c6.66,0,12.107,5.448,12.107,12.109V216.723z"/>
	<path fill="#E2001A" d="M413.418,183.092c-14.834,0-26.506,1.844-35.295,5.16h-0.033v91.303h39.512v-33.119
		c31.815-0.146,57.045-5.039,57.396-31.753C475.352,187.539,445.955,183.092,413.418,183.092z M435.355,216.543
		c0,6.662-5.448,12.11-12.105,12.11h-4.488c-0.351,0-0.685-0.075-1.026-0.104v-28.09c0.342-0.029,0.676-0.104,1.026-0.104h4.488
		c6.657,0,12.105,5.448,12.105,12.11V216.543z"/>
	<path fill="#E2001A" d="M265.181,245.672l-0.154-0.025c-3.058-7.35-9.979-14.308-19.571-19.844
		c-0.006-0.004-0.012-0.008-0.019-0.013c-0.098-0.054-0.21-0.1-0.309-0.158c-0.335-0.175-0.673-0.347-1.003-0.563
		c-9.453-6.294-17.731-9.786-17.731-15.806s10.969-7.726,22.096-5.464c2.599,0.53,5.01,1.285,7.204,2.173l6.537-18.342
		c-5.398-2.124-11.292-3.788-17.585-4.797c-29.069-4.664-54.919,5.815-57.742,23.402c-0.44,2.736-0.229,5.485,0.44,8.193
		c-0.012,0.004-0.025,0.004-0.037,0.004c1.813,7.284,7.367,14.258,15.541,19.923c0.3,0.175,0.603,0.321,0.905,0.534
		c0.674,0.476,1.373,0.959,2.082,1.443c0.223,0.138,0.484,0.246,0.709,0.379c8.206,5.552,18.063,11.534,18.063,16.976
		c0,6.045-10.962,7.722-22.092,5.457c-3.06-0.622-5.859-1.557-8.339-2.662l-8.506,18.973c5.604,2.022,11.674,3.629,18.108,4.663
		c31.872,5.114,60.046-5.306,62.929-23.265C267.308,253.112,266.703,249.348,265.181,245.672z"/>
	<g>
		<path fill="#E2001A" d="M41.323,304.534v4.017c-2.186,0.789-4.192,1.185-6.011,1.185c-3.128,0-5.631-0.838-7.504-2.515
			C25.938,305.539,25,303.315,25,300.55c0-2.703,0.947-4.935,2.836-6.69c1.894-1.752,4.301-2.628,7.229-2.628
			c1.886,0,3.884,0.388,5.995,1.168v4.163c-1.548-0.793-3.066-1.186-4.563-1.186c-1.668,0-3.008,0.464-4.013,1.394
			c-1.005,0.935-1.51,2.182-1.51,3.742c0,1.572,0.492,2.841,1.472,3.804c0.98,0.964,2.27,1.443,3.863,1.443
			C37.489,305.76,39.162,305.352,41.323,304.534z"/>
		<path fill="#E2001A" d="M50.821,291.606v5.089h0.075c1.623-3.646,3.512-5.464,5.673-5.464c1.031,0,2.27,0.538,3.713,1.618
			l-1.543,4.956c-1.385-0.876-2.49-1.318-3.321-1.318c-1.293,0-2.382,0.801-3.266,2.407c-0.888,1.605-1.331,2.54-1.331,2.803v7.7
			h-5.598v-17.791H50.821z"/>
		<path fill="#E2001A" d="M78.962,303.875v3.524c-2.136,1.561-4.78,2.336-7.934,2.336c-3.128,0-5.631-0.838-7.504-2.515
			c-1.873-1.682-2.808-3.905-2.808-6.671c0-2.72,0.88-4.951,2.641-6.699c1.756-1.748,4-2.619,6.729-2.619
			c2.737,0,4.985,0.917,6.737,2.757c1.752,1.844,2.574,4.31,2.457,7.4H66.502c0.112,1.614,0.684,2.857,1.714,3.725
			c1.03,0.872,2.415,1.306,4.146,1.306C74.461,306.419,76.659,305.572,78.962,303.875z M66.614,298.447h7.73
			c-0.305-2.586-1.589-3.883-3.863-3.883C68.179,294.564,66.894,295.861,66.614,298.447z"/>
		<path fill="#E2001A" d="M101.066,305.005v3.112c-1.856,1.08-3.604,1.618-5.239,1.618c-1.756,0-2.799-0.663-3.128-1.998
			c-1.948,1.335-3.9,1.998-5.861,1.998c-1.381,0-2.557-0.438-3.525-1.31c-0.968-0.876-1.452-1.89-1.452-3.049
			c0-1.548,0.5-2.8,1.501-3.746c0.997-0.951,4.021-2.174,9.073-3.676c0.125-1.981-0.905-2.974-3.091-2.974
			c-2.374,0-4.56,0.992-6.558,2.974v-4.559c2.336-1.443,4.906-2.165,7.709-2.165c5.026,0,7.538,1.802,7.538,5.414v8.113
			c0,0.83,0.309,1.247,0.922,1.247C99.423,306.006,100.128,305.673,101.066,305.005z M92.436,305.076v-4.31
			c-1.873,0.655-3.158,1.243-3.854,1.77c-0.697,0.521-1.047,1.185-1.047,1.993c0,0.518,0.18,0.96,0.53,1.331
			c0.351,0.376,0.78,0.559,1.281,0.559C90.4,306.419,91.431,305.973,92.436,305.076z"/>
		<path fill="#E2001A" d="M116.163,291.606v3.825h-6.482v7.334c0,0.875,0.242,1.572,0.726,2.081
			c0.484,0.509,1.151,0.764,2.007,0.764c1.155,0,2.407-0.347,3.75-1.039v4.055c-1.781,0.742-3.512,1.109-5.181,1.109
			c-2.186,0-3.883-0.563-5.089-1.693c-1.206-1.13-1.811-2.791-1.811-4.977v-7.634h-2.544v-1.093l7.446-8.33h0.697v5.598H116.163z"/>
		<path fill="#E2001A" d="M118.858,285.82c0-0.854,0.304-1.585,0.905-2.186c0.605-0.604,1.327-0.905,2.169-0.905
			c0.855,0,1.581,0.301,2.186,0.905c0.601,0.601,0.905,1.331,0.905,2.186c0,0.843-0.305,1.568-0.905,2.178
			c-0.605,0.609-1.331,0.914-2.186,0.914c-0.842,0-1.564-0.305-2.169-0.914C119.162,287.389,118.858,286.663,118.858,285.82z
			 M124.756,291.606v17.791h-5.594v-17.791H124.756z"/>
		<path fill="#E2001A" d="M135.105,291.606v2.523c1.644-1.931,3.575-2.898,5.786-2.898c1.848,0,3.387,0.588,4.626,1.772
			c1.239,1.181,1.856,2.874,1.856,5.072v11.321h-5.598v-10.85c0-2.378-0.922-3.566-2.77-3.566c-1.318,0-2.62,0.979-3.9,2.937v11.479
			h-5.598v-17.791H135.105z"/>
		<path fill="#E2001A" d="M170.142,291.606v3.75h-2.544c0.592,1.006,0.889,1.99,0.889,2.958c0,1.385-0.517,2.657-1.548,3.829
			c-1.03,1.168-2.553,1.86-4.567,2.081c-2.019,0.222-3.162,0.426-3.433,0.622c-0.267,0.196-0.405,0.45-0.405,0.764
			c0,0.313,0.175,0.567,0.53,0.763c0.351,0.196,1.735,0.396,4.155,0.602c2.419,0.208,4.101,0.842,5.052,1.906
			c0.947,1.06,1.422,2.202,1.422,3.42c0,1.948-0.81,3.43-2.424,4.447s-3.946,1.526-7,1.526c-3.116,0-5.477-0.472-7.087-1.414
			c-1.606-0.942-2.411-2.189-2.411-3.75c0-2.161,1.581-3.667,4.747-4.521c-1.431-0.43-2.148-1.202-2.148-2.319
			c0-1.306,1.081-2.207,3.241-2.695c-1.443-0.25-2.636-0.88-3.579-1.885c-0.942-1.006-1.414-2.207-1.414-3.601
			c0-1.706,0.68-3.216,2.036-4.521c1.356-1.306,3.329-1.961,5.919-1.961H170.142z M160.531,314.958c1.193,0,2.161-0.221,2.903-0.659
			c0.743-0.441,1.114-0.968,1.114-1.585c0-1.306-1.452-1.96-4.355-1.96c-1.318,0-2.357,0.191-3.112,0.575
			c-0.751,0.384-1.13,0.897-1.13,1.535C155.951,314.262,157.478,314.958,160.531,314.958z M160.068,294.923
			c-0.914,0-1.681,0.313-2.298,0.942c-0.622,0.63-0.931,1.394-0.931,2.299c0,0.867,0.317,1.618,0.956,2.253
			c0.642,0.634,1.397,0.95,2.273,0.95c0.88,0,1.631-0.329,2.257-0.996c0.625-0.668,0.938-1.465,0.938-2.395
			c0-0.843-0.305-1.561-0.91-2.157C161.745,295.223,160.985,294.923,160.068,294.923z"/>
		<path fill="#E2001A" d="M200.998,291.606l-11.922,26.33h-5.965l5.223-11.446l-6.958-14.884h5.974l3.763,9.165l4.017-9.165H200.998
			z"/>
		<path fill="#E2001A" d="M211.552,291.231c2.787,0,5.156,0.817,7.096,2.452c1.94,1.631,2.912,3.909,2.912,6.829
			c0,2.929-0.989,5.197-2.958,6.808c-1.973,1.61-4.326,2.415-7.05,2.415c-2.953,0-5.368-0.854-7.246-2.573
			c-1.881-1.719-2.82-3.946-2.82-6.688c0-2.795,0.959-5.03,2.874-6.716C206.275,292.074,208.674,291.231,211.552,291.231z
			 M211.552,306.419c2.674,0,4.013-2.019,4.013-6.061c0-3.863-1.339-5.794-4.013-5.794c-1.28,0-2.286,0.509-3.007,1.53
			c-0.722,1.019-1.084,2.479-1.084,4.38C207.46,304.438,208.824,306.419,211.552,306.419z"/>
		<path fill="#E2001A" d="M237.578,309.397v-2.544c-1.644,1.923-3.562,2.882-5.748,2.882c-1.936,0-3.504-0.597-4.709-1.789
			c-1.206-1.193-1.811-2.845-1.811-4.956v-11.384h5.598v10.992c0,2.257,0.934,3.387,2.807,3.387c1.056,0,1.957-0.409,2.703-1.23
			c0.751-0.821,1.122-1.427,1.122-1.818v-11.33h5.636v17.791H237.578z"/>
		<path fill="#E2001A" d="M253.563,291.606v5.089h0.075c1.619-3.646,3.513-5.464,5.674-5.464c1.025,0,2.261,0.538,3.712,1.618
			l-1.552,4.956c-1.376-0.876-2.486-1.318-3.312-1.318c-1.294,0-2.387,0.801-3.271,2.407c-0.885,1.605-1.327,2.54-1.327,2.803v7.7
			h-5.598v-17.791H253.563z"/>
		<path fill="#E2001A" d="M291.386,304.534v4.017c-2.187,0.789-4.188,1.185-6.012,1.185c-3.128,0-5.631-0.838-7.5-2.515
			c-1.873-1.682-2.812-3.905-2.812-6.671c0-2.703,0.947-4.935,2.837-6.69c1.894-1.752,4.301-2.628,7.229-2.628
			c1.886,0,3.884,0.388,5.995,1.168v4.163c-1.548-0.793-3.066-1.186-4.56-1.186c-1.673,0-3.012,0.464-4.018,1.394
			c-1.005,0.935-1.506,2.182-1.506,3.742c0,1.572,0.488,2.841,1.469,3.804c0.98,0.964,2.27,1.443,3.862,1.443
			C287.552,305.76,289.225,305.352,291.386,304.534z"/>
		<path fill="#E2001A" d="M304.317,291.231c2.79,0,5.155,0.817,7.096,2.452c1.939,1.631,2.911,3.909,2.911,6.829
			c0,2.929-0.984,5.197-2.957,6.808c-1.974,1.61-4.322,2.415-7.05,2.415c-2.954,0-5.369-0.854-7.246-2.573s-2.82-3.946-2.82-6.688
			c0-2.795,0.96-5.03,2.874-6.716C299.044,292.074,301.438,291.231,304.317,291.231z M304.317,306.419
			c2.678,0,4.013-2.019,4.013-6.061c0-3.863-1.335-5.794-4.013-5.794c-1.281,0-2.282,0.509-3.008,1.53
			c-0.722,1.019-1.081,2.479-1.081,4.38C300.229,304.438,301.589,306.419,304.317,306.419z"/>
		<path fill="#E2001A" d="M323.785,291.606v2.282c1.898-1.773,3.959-2.657,6.187-2.657c3.054,0,5.193,1.26,6.411,3.787
			c2.148-2.527,4.488-3.787,7.017-3.787c2.048,0,3.721,0.621,5.019,1.864c1.293,1.247,1.939,2.87,1.939,4.868v11.434h-5.598v-10.437
			c0-1.256-0.288-2.236-0.868-2.933c-0.58-0.701-1.385-1.047-2.419-1.047c-1.636,0-3.112,1.005-4.422,3.016v11.4h-5.577v-10.55
			c0-1.242-0.31-2.202-0.935-2.869c-0.622-0.664-1.447-0.997-2.479-0.997c-1.468,0-2.895,0.821-4.275,2.47v11.946h-5.598v-17.791
			H323.785z"/>
		<path fill="#E2001A" d="M361.462,291.606h2.545v3.825h-2.545v13.966h-5.598v-13.966h-2.545v-3.825h2.545v-0.884
			c0-2.504,0.704-4.46,2.11-5.874s3.304-2.119,5.694-2.119c0.575,0,1.706,0.112,3.392,0.338v4.526
			c-1.168-0.154-2.007-0.229-2.508-0.229c-2.061,0-3.091,1.038-3.091,3.111V291.606z"/>
		<path fill="#E2001A" d="M375.499,291.231c2.791,0,5.156,0.817,7.096,2.452c1.939,1.631,2.911,3.909,2.911,6.829
			c0,2.929-0.984,5.197-2.957,6.808c-1.974,1.61-4.322,2.415-7.05,2.415c-2.953,0-5.369-0.854-7.246-2.573s-2.819-3.946-2.819-6.688
			c0-2.795,0.959-5.03,2.874-6.716C370.227,292.074,372.621,291.231,375.499,291.231z M375.499,306.419
			c2.678,0,4.013-2.019,4.013-6.061c0-3.863-1.335-5.794-4.013-5.794c-1.28,0-2.282,0.509-3.008,1.53
			c-0.722,1.019-1.08,2.479-1.08,4.38C371.411,304.438,372.771,306.419,375.499,306.419z"/>
		<path fill="#E2001A" d="M395.009,291.606v5.089h0.075c1.618-3.646,3.513-5.464,5.673-5.464c1.03,0,2.266,0.538,3.713,1.618
			l-1.548,4.956c-1.381-0.876-2.486-1.318-3.316-1.318c-1.293,0-2.382,0.801-3.27,2.407c-0.885,1.605-1.327,2.54-1.327,2.803v7.7
			h-5.598v-17.791H395.009z"/>
		<path fill="#E2001A" d="M420.113,291.606v3.825h-6.483v7.334c0,0.875,0.242,1.572,0.727,2.081
			c0.483,0.509,1.151,0.764,2.006,0.764c1.155,0,2.407-0.347,3.751-1.039v4.055c-1.786,0.742-3.513,1.109-5.182,1.109
			c-2.189,0-3.884-0.563-5.089-1.693c-1.21-1.13-1.811-2.791-1.811-4.977v-7.634h-2.545v-1.093l7.446-8.33h0.696v5.598H420.113z"/>
	</g>
</g>
</svg>
