<?xml version="1.0" encoding="utf-8"?>
<!-- Generator: Adobe Illustrator 16.0.0, SVG Export Plug-In . SVG Version: 6.00 Build 0)  -->
<!DOCTYPE svg PUBLIC "-//W3C//DTD SVG 1.1//EN" "http://www.w3.org/Graphics/SVG/1.1/DTD/svg11.dtd">
<svg version="1.1" id="Calque_1" xmlns="http://www.w3.org/2000/svg" xmlns:xlink="http://www.w3.org/1999/xlink" x="0px" y="0px"
	 width="500px" height="500px" viewBox="0 0 500 500" enable-background="new 0 0 500 500" xml:space="preserve">
<g>
	<path d="M31.35,82.169h437.3v335.66H31.35V82.169z M25,426.115h450V73.886H25V426.115z"/>
	<rect x="66.701" y="115.587" fill="#E2001A" width="135.198" height="22.009"/>
	<rect x="66.701" y="147.03" width="31.438" height="100.596"/>
	<path fill="#E2001A" d="M138.548,213.838c2.713,9.234,9.646,12.568,18.846,12.568c4.069,0,12.214-0.612,12.214-6.359
		c0-6.36-7.992-7.576-12.667-8.479c-19.446-3.79-42.52-9.086-42.52-33.767c0-10.145,4.979-20.134,13.266-26.035
		c8.448-5.906,19.457-7.885,29.707-7.885c17.942,0,35.281,7.425,41.607,25.446l-26.226,8.022
		c-3.018-7.724-8.748-10.448-16.736-10.448c-4.222,0-10.253,1.212-10.253,6.657c0,5.453,7.543,6.512,11.456,7.424
		c9.807,1.968,20.203,3.629,29.245,8.327c10.112,5.448,15.383,15.142,15.383,26.495c0,24.985-24.73,34.974-46.14,34.974
		c-21.703,0-41.004-9.082-46.584-31.644L138.548,213.838"/>
	<polygon points="296.19,247.624 220.74,247.624 220.74,147.027 296.19,147.027 296.19,170.204 250.919,170.204 250.919,184.867 
		287.535,184.867 287.535,207.295 250.919,207.295 250.919,223.577 296.19,223.577 	"/>
	<path d="M409.357,197.636c0,29.524-18.398,53.146-50.302,53.146c-31.888,0-50.293-23.621-50.293-53.146
		c0-31.032,18.242-53.752,50.293-53.752C391.102,143.884,409.357,166.604,409.357,197.636 M343.254,197.787
		c0,9.99,1.076,29.217,15.801,29.217s15.79-19.228,15.79-29.217c0-10.131-1.53-30.428-15.79-30.428
		C344.786,167.359,343.254,187.656,343.254,197.787"/>
	<path fill="none" stroke="#000000" stroke-width="1.7163" d="M425.083,151.742c0,4.334-3.516,7.852-7.854,7.852
		c-4.34,0-7.854-3.518-7.854-7.852c0-4.338,3.514-7.861,7.854-7.861C421.568,143.881,425.083,147.404,425.083,151.742z"/>
	<path d="M415.889,157.036h-2.251v-9.651h4.061c0.861,0,1.733,0.013,2.471,0.495c0.795,0.521,1.227,1.461,1.227,2.403
		c0,1.098-0.632,2.108-1.667,2.492l1.772,4.262h-2.49l-1.484-3.816h-1.638V157.036z M415.889,151.563h1.235
		c0.46,0,0.967,0.044,1.378-0.196c0.365-0.225,0.557-0.677,0.557-1.1c0-0.375-0.22-0.783-0.546-0.979
		c-0.374-0.241-1.025-0.187-1.446-0.187h-1.178V151.563"/>
	<rect x="25" y="73.886" fill="none" width="450" height="352.229"/>
	<rect x="163.217" y="271.395" width="33.672" height="107.942"/>
	<polygon points="279.69,271.395 258.931,271.395 225.253,271.395 204.496,271.395 204.496,296.079 225.253,296.079 
		225.253,379.337 258.931,379.337 258.931,296.079 279.69,296.079 	"/>
	<polygon points="357.879,271.395 337.996,304.544 321.671,271.395 284.771,271.395 320.514,333.669 320.514,379.337 
		352.333,379.337 352.333,333.669 386.238,271.395 	"/>
	<path d="M124.694,338.761v0.356c0,11.082-7.107,20.153-15.793,20.153c-8.693,0-15.8-9.071-15.8-20.153v-25.883
		c0-11.087,7.107-20.158,15.8-20.158c8.626,0,15.677,8.952,15.774,19.931l30.792-0.939c-1.428-24.64-21.959-44.36-46.933-44.36
		h-3.417c-25.894,0-47.075,21.181-47.075,47.073v22.792c0,25.882,21.181,47.072,47.075,47.072h3.417
		c24.915,0,45.408-19.634,46.921-44.187L124.694,338.761z"/>
	<rect x="391.557" y="345.207" fill="#E2001A" width="34.131" height="34.131"/>
</g>
</svg>
