<?xml version="1.0" encoding="utf-8"?>
<!-- Generator: Adobe Illustrator 16.0.0, SVG Export Plug-In . SVG Version: 6.00 Build 0)  -->
<!DOCTYPE svg PUBLIC "-//W3C//DTD SVG 1.1//EN" "http://www.w3.org/Graphics/SVG/1.1/DTD/svg11.dtd">
<svg version="1.1" id="Calque_1" xmlns="http://www.w3.org/2000/svg" xmlns:xlink="http://www.w3.org/1999/xlink" x="0px" y="0px"
	 width="500px" height="500px" viewBox="0 0 500 500" enable-background="new 0 0 500 500" xml:space="preserve">
<g>
	<path fill="#0067AB" d="M467.996,185.227H32.007c-3.869,0-7.005,2.95-7.005,6.6v116.345c0,3.646,3.136,6.602,7.005,6.602h435.989
		c3.866,0,7.007-2.956,7.007-6.602V191.827C475.003,188.177,471.862,185.227,467.996,185.227z"/>
	<path fill="#FFFFFF" d="M467.996,186.844c2.972,0,5.387,2.235,5.387,4.982v116.345c0,2.747-2.415,4.983-5.387,4.983H32.007
		c-2.972,0-5.387-2.236-5.387-4.983V191.827c0-2.747,2.416-4.982,5.387-4.982H467.996 M467.996,185.227H32.007
		c-3.869,0-7.005,2.95-7.005,6.6v116.345c0,3.646,3.136,6.602,7.005,6.602h435.989c3.866,0,7.007-2.956,7.007-6.602V191.827
		C475.003,188.177,471.862,185.227,467.996,185.227z"/>
	<path fill="#FFFFFF" d="M182.961,226.692l-0.161,0.78c-0.493,2.629-0.596,4.48-0.313,5.548c0.284,1.071,1.273,1.605,2.967,1.605
		c1.675,0,2.904-0.586,3.69-1.752c0.476-0.694,0.891-1.863,1.245-3.509l5.052-23.785h7.106l-5.03,23.668
		c-0.616,2.895-1.608,5.185-2.975,6.875c-2.292,2.859-5.645,4.291-10.06,4.291c-4.412,0-7.126-1.156-8.142-3.469
		c-1.014-2.316-1.096-5.472-0.251-9.472l0.161-0.78H182.961"/>
	<path fill="#FFFFFF" d="M219.315,205.58h8.028l4.821,34.003h-7.703l-0.714-6.989H211.22l-3.83,6.989h-7.428L219.315,205.58
		 M214.379,226.736h8.629l-1.406-13.38L214.379,226.736z"/>
	<path fill="#FFFFFF" d="M268.613,208.833c0.553,0.864,0.935,1.815,1.144,2.861c0.205,1.046,0.17,2.242-0.107,3.577
		c-0.351,1.614-1.099,3.204-2.245,4.765c-1.146,1.561-2.729,2.665-4.744,3.311c1.432,0.629,2.351,1.526,2.759,2.686
		c0.409,1.163,0.356,2.937-0.148,5.317l-0.483,2.285c-0.326,1.553-0.487,2.608-0.487,3.159c0,0.878,0.294,1.523,0.875,1.942
		l-0.161,0.848h-7.819c-0.062-0.752-0.092-1.362-0.092-1.823c0.016-0.951,0.125-1.925,0.322-2.927l0.623-3.161
		c0.43-2.167,0.341-3.611-0.266-4.334c-0.606-0.724-1.956-1.087-4.048-1.087h-7.336l-2.812,13.333h-6.945l7.22-34.001h16.679
		c2.366,0.045,4.136,0.338,5.307,0.878C267.014,206.999,267.937,207.789,268.613,208.833 M249.536,211.489l-1.937,9.134h8.051
		c1.599,0,2.837-0.183,3.714-0.551c1.553-0.649,2.539-1.922,2.953-3.834c0.431-2.06,0.041-3.444-1.173-4.151
		c-0.695-0.401-1.811-0.597-3.349-0.597H249.536z"/>
	<path fill="#FFFFFF" d="M297.563,206.321c2.215,0.785,3.839,2.224,4.87,4.316c0.83,1.69,1.247,3.517,1.253,5.486
		c0.01,1.968-0.174,3.845-0.54,5.632c-0.969,4.52-2.692,8.349-5.167,11.486c-3.354,4.231-7.598,6.341-12.731,6.341h-14.651
		l7.22-34.001h14.649C294.561,205.615,296.262,205.86,297.563,206.321 M283.445,211.489l-4.706,22.191h6.553
		c3.353,0,6.047-1.651,8.072-4.959c1.109-1.817,1.925-3.975,2.445-6.483c0.74-3.46,0.767-6.117,0.07-7.967
		c-0.692-1.856-2.651-2.782-5.88-2.782H283.445z"/>
	<polyline fill="#FFFFFF" points="311.226,239.583 304.16,239.583 311.384,205.582 318.441,205.582 311.226,239.583 	"/>
	<polyline fill="#FFFFFF" points="324.947,205.58 332.397,205.58 340.887,229.318 345.939,205.58 352.559,205.58 345.339,239.583 
		338.233,239.583 329.47,215.432 324.347,239.583 317.725,239.583 324.947,205.58 	"/>
	<polyline fill="#FFFFFF" points="358.465,239.583 351.405,239.583 358.625,205.582 365.687,205.582 358.465,239.583 	"/>
	<polyline fill="#FFFFFF" points="396.156,211.605 378.163,211.605 376.641,218.825 393.158,218.825 391.892,224.729 
		375.373,224.729 373.528,233.469 392.353,233.469 391.061,239.583 365.291,239.583 372.514,205.58 397.449,205.58 396.156,211.605 
			"/>
	<path fill="#FFFFFF" d="M428.729,208.833c0.558,0.864,0.935,1.815,1.144,2.861c0.208,1.046,0.175,2.242-0.104,3.577
		c-0.354,1.614-1.103,3.204-2.246,4.765c-1.147,1.561-2.73,2.665-4.743,3.311c1.429,0.629,2.35,1.526,2.756,2.686
		c0.41,1.163,0.356,2.937-0.148,5.317l-0.483,2.285c-0.326,1.553-0.487,2.608-0.487,3.159c0,0.878,0.296,1.523,0.879,1.942
		l-0.165,0.848h-7.813c-0.066-0.752-0.095-1.362-0.095-1.823c0.015-0.951,0.12-1.925,0.322-2.927l0.621-3.161
		c0.435-2.167,0.345-3.611-0.262-4.334c-0.607-0.724-1.961-1.087-4.051-1.087h-7.333l-2.817,13.333h-6.941l7.22-34.001h16.676
		c2.37,0.045,4.136,0.338,5.305,0.878C427.129,206.999,428.052,207.789,428.729,208.833 M409.65,211.489l-1.934,9.134h8.051
		c1.599,0,2.834-0.183,3.713-0.551c1.551-0.649,2.537-1.922,2.952-3.834c0.432-2.06,0.04-3.444-1.177-4.151
		c-0.692-0.401-1.808-0.597-3.346-0.597H409.65z"/>
	<path fill="#FFFFFF" d="M205.846,262.274h10.218l-7.219,34.003h-6.619l4.866-22.998c0.155-0.66,0.366-1.589,0.632-2.778
		c0.271-1.193,0.467-2.112,0.591-2.759l-12.48,28.535h-6.897l-0.346-28.535c-0.122,0.646-0.305,1.565-0.542,2.759
		c-0.237,1.189-0.436,2.118-0.589,2.778l-4.867,22.998h-6.619l7.219-34.003h10.335l0.483,26.739L205.846,262.274"/>
	<path fill="#FFFFFF" d="M232.395,262.274h8.03l4.82,34.003h-7.703l-0.717-6.987H224.3l-3.831,6.987h-7.427L232.395,262.274
		 M227.46,283.431h8.625l-1.406-13.38L227.46,283.431z"/>
	<path fill="#FFFFFF" d="M256.92,285.786c-0.111,1.552,0.065,2.71,0.527,3.478c0.865,1.402,2.691,2.101,5.491,2.101
		c1.678,0,3.074-0.179,4.199-0.553c2.141-0.706,3.405-2.022,3.807-3.946c0.243-1.118-0.062-1.987-0.924-2.606
		c-0.846-0.601-2.276-1.128-4.289-1.586l-3.438-0.813c-3.368-0.799-5.631-1.663-6.783-2.604c-1.953-1.572-2.575-4.023-1.868-7.36
		c0.645-3.046,2.289-5.575,4.938-7.589c2.642-2.016,6.112-3.021,10.401-3.021c3.583,0,6.436,0.947,8.56,2.847
		c2.123,1.903,2.859,4.657,2.215,8.274h-6.831c0.325-2.049-0.253-3.504-1.729-4.363c-0.982-0.568-2.3-0.853-3.941-0.853
		c-1.833,0-3.376,0.366-4.627,1.105c-1.255,0.739-2.02,1.77-2.294,3.093c-0.266,1.214,0.082,2.122,1.036,2.721
		c0.598,0.401,1.977,0.869,4.131,1.406l5.557,1.409c2.43,0.612,4.192,1.438,5.284,2.469c1.691,1.599,2.213,3.913,1.57,6.94
		c-0.665,3.105-2.403,5.689-5.218,7.742c-2.811,2.052-6.389,3.079-10.727,3.079c-4.426,0-7.697-1.015-9.805-3.033
		c-2.104-2.022-2.782-4.803-2.028-8.337H256.92"/>
	<path fill="#FFFFFF" d="M288.43,285.786c-0.107,1.552,0.07,2.71,0.529,3.478c0.86,1.402,2.689,2.101,5.492,2.101
		c1.675,0,3.076-0.179,4.196-0.553c2.139-0.706,3.409-2.022,3.807-3.946c0.248-1.118-0.06-1.987-0.922-2.606
		c-0.846-0.601-2.275-1.128-4.289-1.586l-3.438-0.813c-3.37-0.799-5.629-1.663-6.779-2.604c-1.956-1.572-2.581-4.023-1.873-7.36
		c0.646-3.046,2.294-5.575,4.939-7.589c2.643-2.016,6.109-3.021,10.399-3.021c3.585,0,6.437,0.947,8.561,2.847
		c2.122,1.903,2.858,4.657,2.214,8.274h-6.828c0.322-2.049-0.253-3.504-1.729-4.363c-0.984-0.568-2.297-0.853-3.948-0.853
		c-1.826,0-3.371,0.366-4.622,1.105c-1.254,0.739-2.018,1.77-2.297,3.093c-0.259,1.214,0.085,2.122,1.041,2.721
		c0.601,0.401,1.977,0.869,4.128,1.406l5.561,1.409c2.427,0.612,4.189,1.438,5.283,2.469c1.69,1.599,2.216,3.913,1.566,6.94
		c-0.66,3.105-2.401,5.689-5.213,7.742c-2.815,2.052-6.392,3.079-10.725,3.079c-4.432,0-7.698-1.015-9.806-3.033
		c-2.107-2.022-2.784-4.803-2.032-8.337H288.43"/>
	<path fill="#FFFFFF" d="M329.536,262.274h8.028l4.82,34.003h-7.703l-0.717-6.987h-12.523l-3.829,6.987h-7.428L329.536,262.274
		 M324.6,283.431h8.629l-1.408-13.38L324.6,283.431z"/>
	<path fill="#FFFFFF" d="M378.833,265.529c0.553,0.859,0.936,1.813,1.144,2.86c0.209,1.045,0.172,2.239-0.103,3.577
		c-0.358,1.612-1.104,3.202-2.251,4.763c-1.147,1.561-2.726,2.665-4.743,3.308c1.435,0.629,2.352,1.526,2.761,2.689
		c0.405,1.162,0.358,2.937-0.153,5.317l-0.483,2.284c-0.322,1.552-0.483,2.608-0.483,3.156c0,0.882,0.29,1.526,0.875,1.941
		l-0.16,0.852h-7.819c-0.061-0.752-0.094-1.361-0.094-1.819c0.017-0.954,0.124-1.931,0.322-2.931l0.623-3.16
		c0.433-2.169,0.344-3.612-0.266-4.334c-0.606-0.726-1.956-1.089-4.047-1.089h-7.335l-2.817,13.333h-6.941l7.22-34.001h16.68
		c2.366,0.049,4.137,0.337,5.305,0.877C377.234,263.688,378.156,264.48,378.833,265.529 M359.756,268.183l-1.937,9.135h8.05
		c1.599,0,2.838-0.184,3.713-0.552c1.556-0.649,2.537-1.926,2.954-3.832c0.43-2.062,0.038-3.445-1.179-4.153
		c-0.69-0.398-1.804-0.598-3.341-0.598H359.756z"/>
	<path fill="#FFFFFF" d="M407.785,263.016c2.213,0.785,3.837,2.225,4.867,4.316c0.828,1.689,1.248,3.518,1.254,5.486
		c0.012,1.968-0.169,3.845-0.54,5.63c-0.97,4.521-2.691,8.351-5.164,11.488c-3.354,4.228-7.601,6.341-12.737,6.341h-14.647
		l7.219-34.001h14.648C404.779,262.31,406.476,262.553,407.785,263.016 M393.667,268.183l-4.705,22.189h6.55
		c3.353,0,6.041-1.655,8.076-4.957c1.105-1.816,1.921-3.978,2.445-6.485c0.736-3.456,0.76-6.115,0.066-7.965
		c-0.692-1.856-2.654-2.782-5.883-2.782H393.667z"/>
	<path fill="#FFFFFF" d="M434.611,277.731c-2.325,1.865-4.838,2.799-7.539,2.799c-2.79,0-4.938-0.952-6.445-2.865
		c-1.506-1.908-1.962-4.263-1.374-7.051c0.625-2.895,2.164-5.305,4.632-7.228c2.322-1.793,4.79-2.688,7.399-2.688
		c2.736,0,4.869,0.972,6.392,2.905c1.522,1.938,1.998,4.273,1.415,7.011C438.488,273.431,436.993,275.803,434.611,277.731
		 M424.57,264.865c-1.921,1.618-3.118,3.532-3.593,5.749c-0.483,2.299-0.095,4.248,1.171,5.854c1.256,1.607,3.013,2.41,5.278,2.41
		c2.246,0,4.341-0.809,6.28-2.423c1.936-1.628,3.148-3.57,3.634-5.841c0.468-2.21,0.079-4.125-1.158-5.749
		c-1.256-1.646-3.009-2.474-5.262-2.474C428.643,262.392,426.525,263.22,424.57,264.865z M423.657,276.133l2.34-10.999
		c0.682,0,1.701,0.007,3.054,0.01c1.355,0.007,2.11,0.013,2.264,0.023c0.857,0.061,1.54,0.248,2.046,0.562
		c0.867,0.54,1.172,1.415,0.914,2.625c-0.2,0.926-0.601,1.594-1.205,2.005c-0.608,0.412-1.289,0.662-2.054,0.741
		c0.657,0.142,1.131,0.354,1.425,0.632c0.531,0.52,0.68,1.34,0.445,2.464l-0.215,0.979c-0.019,0.109-0.031,0.219-0.047,0.322
		c-0.013,0.109-0.007,0.215,0.006,0.327l0.028,0.309h-2.744c-0.021-0.354,0.027-0.855,0.145-1.521
		c0.12-0.665,0.154-1.11,0.107-1.348c-0.063-0.386-0.272-0.654-0.632-0.805c-0.196-0.088-0.511-0.146-0.938-0.178l-0.636-0.037h-0.6
		l-0.823,3.889H423.657z M430.772,267.305c-0.36-0.154-0.895-0.228-1.613-0.228h-0.699l-0.674,3.188h1.117
		c0.673,0,1.228-0.137,1.654-0.405c0.435-0.271,0.714-0.707,0.85-1.305C431.532,267.955,431.322,267.535,430.772,267.305z"/>
	<path fill="#FFFFFF" d="M148.456,250.496c0,31.252-25.336,56.584-56.584,56.584c-31.254,0-56.587-25.332-56.587-56.584
		c0-31.254,25.333-56.59,56.587-56.59C123.12,193.906,148.456,219.242,148.456,250.496"/>
	<path fill="#0067AB" d="M128.891,258.014l-13.347,0.695l3.403,3.711c0.697,0.54,0.192,1.355,0.192,1.355
		c-3.865,7.387-14.462,12.185-14.462,12.185c-5.724,2.008-6.611-2.937-6.611-2.937l-1.006-44.707
		c0.074-2.79,1.389-3.138,1.389-3.138h14.584v-9.393H96.124v-1.292c1.477-1.352,2.406-3.303,2.406-5.481
		c0-3.946-3.062-7.175-6.973-7.359v-0.019c-3.883,0.177-6.976,3.409-6.976,7.378c0,2.173,0.926,4.129,2.404,5.481v1.292H70.078
		v9.393h14.58c0,0,1.313,0.348,1.392,3.131l-1.005,44.708c0,0-0.891,4.95-6.616,2.938c0,0-10.59-4.794-14.459-12.18
		c0,0-0.504-0.815,0.193-1.355l3.404-3.712l-13.343-0.694l-1.201,13.417l4.253-3.674c0,0,0.389-0.58,0.736-0.117
		c0,0,7.115,13.77,17.091,17.946c0,0,3.755,2.126,8.238,2.591c0,0,6.629,0.423,8.185,4.676v0.12c0.006-0.022,0.019-0.039,0.025-0.06
		c0.008,0.021,0.021,0.037,0.026,0.06v-0.12c1.558-4.253,8.188-4.676,8.188-4.676c4.482-0.465,8.239-2.591,8.239-2.591
		c9.971-4.177,17.093-17.938,17.093-17.938c0.346-0.469,0.735,0.115,0.735,0.115l4.252,3.673L128.891,258.014 M91.563,212.738
		c-2.05,0-3.709-1.661-3.709-3.709s1.659-3.709,3.709-3.709c2.051,0,3.709,1.661,3.709,3.709S93.613,212.738,91.563,212.738z"/>
	<text transform="matrix(0.953 0.3031 -0.3031 0.953 70.98 298.1816)" fill="#231F20" font-family="'Vivaldii'" font-size="6.4257">O</text>
	
		<text transform="matrix(0.9744 0.2246 -0.2246 0.9744 76.4897 299.8867)" fill="#231F20" font-family="'Vivaldii'" font-size="6.4256">m</text>
	
		<text transform="matrix(0.985 0.1727 -0.1727 0.985 79.8984 300.6592)" fill="#231F20" font-family="'Vivaldii'" font-size="6.4255">n</text>
	
		<text transform="matrix(0.9901 0.1403 -0.1403 0.9901 82.3931 301.084)" fill="#231F20" font-family="'Vivaldii'" font-size="6.4255">i</text>
	
		<text transform="matrix(0.994 0.1093 -0.1093 0.994 83.5093 301.252)" fill="#231F20" font-family="'Vivaldii'" font-size="6.4256">a</text>
	
		<text transform="matrix(0.9973 0.0735 -0.0735 0.9973 85.9126 301.5098)" fill="#231F20" font-family="'Vivaldii'" font-size="6.4256"> </text>
	
		<text transform="matrix(0.9992 0.0408 -0.0408 0.9992 87.5068 301.6318)" fill="#231F20" font-family="'Vivaldii'" font-size="6.4256">v</text>
	
		<text transform="matrix(0.9999 0.0123 -0.0123 0.9999 89.5513 301.707)" fill="#231F20" font-family="'Vivaldii'" font-size="6.4256">i</text>
	
		<text transform="matrix(0.9998 -0.021 0.021 0.9998 90.7158 301.7344)" fill="#231F20" font-family="'Vivaldii'" font-size="6.4255">n</text>
	
		<text transform="matrix(0.9981 -0.061 0.061 0.9981 93.2153 301.6738)" fill="#231F20" font-family="'Vivaldii'" font-size="6.4256">c</text>
	
		<text transform="matrix(0.9961 -0.0885 0.0885 0.9961 95.1001 301.5566)" fill="#231F20" font-family="'Vivaldii'" font-size="6.4255">i</text>
	
		<text transform="matrix(0.9939 -0.1105 0.1105 0.9939 96.2407 301.4551)" fill="#231F20" font-family="'Vivaldii'" font-size="6.4256">t</text>
	
		<text transform="matrix(0.9905 -0.1374 0.1374 0.9905 97.5386 301.3125)" fill="#231F20" font-family="'Vivaldii'" font-size="6.4255"> </text>
	
		<text transform="matrix(0.9799 -0.1997 0.1997 0.9799 99.1182 301.1514)" fill="#231F20" font-family="'Vivaldii'" font-size="6.4255">A</text>
	
		<text transform="matrix(0.9603 -0.2789 0.2789 0.9603 104.3027 300.0586)" fill="#231F20" font-family="'Vivaldii'" font-size="6.4255">m</text>
	
		<text transform="matrix(0.9446 -0.3281 0.3281 0.9446 107.6196 299.0762)" fill="#231F20" font-family="'Vivaldii'" font-size="6.4256">o</text>
	
		<text transform="matrix(0.9326 -0.3609 0.3609 0.9326 109.6421 298.3691)" fill="#231F20" font-family="'Vivaldii'" font-size="6.4256">r</text>
</g>
</svg>
