<?xml version="1.0" encoding="utf-8"?>
<!-- Generator: Adobe Illustrator 16.0.0, SVG Export Plug-In . SVG Version: 6.00 Build 0)  -->
<!DOCTYPE svg PUBLIC "-//W3C//DTD SVG 1.1//EN" "http://www.w3.org/Graphics/SVG/1.1/DTD/svg11.dtd">
<svg version="1.1" id="Calque_2" xmlns="http://www.w3.org/2000/svg" xmlns:xlink="http://www.w3.org/1999/xlink" x="0px" y="0px"
	 width="500px" height="500px" viewBox="0 0 500 500" enable-background="new 0 0 500 500" xml:space="preserve">
<g>
	<rect x="25" y="195.793" fill="#363B3E" width="450" height="108.415"/>
	<rect x="361.472" y="198.354" fill="#FFFFFF" width="110.445" height="102.846"/>
	<path fill="#FFFFFF" d="M116.982,207.71c0,0,0,30.835,0,44.568c0,13.731-12.099,24.86-27.018,24.86
		c-14.925,0-27.018-11.129-27.018-24.86v-8.122h17.282v8.122c0,5.696,4.077,10.317,9.735,10.317c5.658,0,9.735-4.621,9.735-10.317
		c0-5.699,0-44.568,0-44.568H116.982L116.982,207.71z"/>
	<path fill-rule="evenodd" clip-rule="evenodd" fill="#FFFFFF" d="M187.136,245.545c0-6.372,2.52-9.779,8.253-9.779
		c5.171,0,7.403,4.383,7.403,9.779H187.136L187.136,245.545z M218.956,255.393c0-19.265-7.566-30.241-25.098-30.241
		c-13.956,0-23.316,11.736-23.316,26.146c0,16.501,10.636,25.842,24.76,25.842c10.042,0,20.365-5.652,23.391-16.144h-16.419
		c-1.357,2.388-3.051,5.077-7.059,5.077c-5.896,0-8.079-4.908-8.079-10.68H218.956L218.956,255.393z"/>
	<path fill-rule="evenodd" clip-rule="evenodd" fill="#FFFFFF" d="M136.284,245.545c0-6.372,2.52-9.779,8.253-9.779
		c5.171,0,7.403,4.383,7.403,9.779H136.284L136.284,245.545z M168.104,255.393c0-19.265-7.572-30.241-25.098-30.241
		c-13.956,0-23.316,11.736-23.316,26.146c0,16.501,10.636,25.842,24.76,25.842c10.042,0,20.365-5.652,23.385-16.144h-16.413
		c-1.357,2.388-3.051,5.077-7.059,5.077c-5.896,0-8.078-4.908-8.078-10.68H168.104L168.104,255.393z"/>
	<path fill-rule="evenodd" clip-rule="evenodd" fill="#FFFFFF" d="M238.32,253.213c0-8.031,3.914-14.546,8.735-14.546
		c6.877,0,8.722,6.515,8.722,14.546c0,8.032-2.514,14.041-8.722,14.041C242.234,267.254,238.32,261.246,238.32,253.213
		L238.32,253.213z M222.045,227.163h16.45v4.633c3.602-3.536,8.147-6.155,13.087-6.155c11.674,0,21.152,12.286,21.152,26.812
		c0,14.527-9.479,26.301-21.152,26.301c-4.939,0-9.485-2.101-13.087-5.64v19.177h-16.45V227.163L222.045,227.163z"/>
	<path fill-rule="evenodd" clip-rule="evenodd" fill="#FFFFFF" d="M261.505,283.98c0,3.026,2.301,5.29,5.039,5.29
		c2.727,0,5.016-2.264,5.016-5.29c0-2.964-2.289-5.228-5.016-5.228C263.806,278.752,261.505,281.016,261.505,283.98L261.505,283.98z
		 M262.418,283.98c0-2.514,1.788-4.452,4.126-4.452c2.314,0,4.103,1.938,4.103,4.452c0,2.576-1.788,4.515-4.103,4.515
		C264.206,288.495,262.418,286.556,262.418,283.98L262.418,283.98z M264.594,287.081h0.906v-2.65h0.963l1.595,2.65h0.976
		l-1.67-2.719c0.869-0.095,1.532-0.557,1.532-1.67c0-1.182-0.65-1.757-2.045-1.757h-2.257V287.081L264.594,287.081z M265.5,281.704
		h1.207c0.612,0,1.275,0.125,1.275,0.944c0,0.97-0.731,1.013-1.532,1.013h-0.95V281.704L265.5,281.704z"/>
	<g>
		<path fill="#E6A300" d="M417.095,297.098c-25.974,0-47.101-21.128-47.101-47.098s21.127-47.101,47.101-47.101
			S464.195,224.03,464.195,250S443.068,297.098,417.095,297.098z M417.095,215.705c-18.908,0-34.296,15.385-34.296,34.295
			s15.388,34.292,34.296,34.292S451.39,268.911,451.39,250S436.003,215.705,417.095,215.705z"/>
	</g>
	<g>
		<polygon fill="#E6A300" points="417.095,266.96 391.003,285.918 400.97,255.24 374.871,236.282 407.128,236.282 417.095,205.604 
			427.062,236.282 459.318,236.282 433.22,255.24 443.187,285.918 		"/>
		<path fill="#FFFFFF" d="M417.095,210.784l8.804,27.099h28.493l-23.054,16.745l8.804,27.102l-23.047-16.751l-23.047,16.751
			l8.804-27.102l-23.054-16.745h28.493L417.095,210.784 M417.095,200.423l-3.045,9.373l-8.085,24.885h-26.167h-9.854l7.973,5.793
			l21.171,15.375l-8.084,24.892l-3.045,9.367l7.972-5.791l21.165-15.381l21.165,15.381l7.972,5.791l-3.045-9.367l-8.084-24.892
			l21.171-15.375l7.972-5.793h-9.854h-26.167l-8.085-24.885L417.095,200.423L417.095,200.423z"/>
	</g>
</g>
</svg>
