<?xml version="1.0" encoding="utf-8"?>
<!-- Generator: Adobe Illustrator 16.0.0, SVG Export Plug-In . SVG Version: 6.00 Build 0)  -->
<!DOCTYPE svg PUBLIC "-//W3C//DTD SVG 1.1//EN" "http://www.w3.org/Graphics/SVG/1.1/DTD/svg11.dtd">
<svg version="1.1" id="Calque_2" xmlns="http://www.w3.org/2000/svg" xmlns:xlink="http://www.w3.org/1999/xlink" x="0px" y="0px"
	 width="500px" height="500px" viewBox="0 0 500 500" enable-background="new 0 0 500 500" xml:space="preserve">
<g>
	<path d="M95.055,215.151l-18.58,70.665c0,0-0.914,16.143-34.723,9.746l-8.833,33.505c0,0,77.67,24.672,89.244-21.321
		c11.574-45.992,23.453-92.594,23.453-92.594H95.055z"/>
	<polygon points="294.865,215.151 340.553,215.151 310.703,331.503 262.579,331.503 	"/>
	<path d="M385.632,215.151h27.108l-3.96,17.971h38.987l-10.051,36.855H398.12l-8.224,29.85c0,0,2.132,12.184,32.286,6.092
		l-7.006,25.585c0,0-25.585,3.653-47.82,3.653c-22.234,0-31.981-6.395-26.804-27.106c5.179-20.712,10.356-37.769,10.356-37.769
		h-17.361l4.264-19.189C337.812,251.092,368.575,233.122,385.632,215.151z"/>
	<path d="M261.665,292.516c0,0,38.987-62.745-46.603-62.745c-85.589,0-78.279,82.239-73.71,88.94
		c4.569,6.7,18.58,26.803,100.514,9.746l13.098-26.499c0,0-28.023,8.528-52.999,6.092s-15.229-15.839-15.229-15.839L261.665,292.516
		z M216.89,254.747c17.057,0,11.27,16.753,11.27,16.753h-33.504C194.655,271.5,199.833,254.747,216.89,254.747z"/>
	<path fill="#E2001A" d="M87.136,207.231l-18.58,70.664c0,0-0.914,16.144-34.723,9.747L25,321.147c0,0,77.669,24.671,89.244-21.321
		c11.574-45.993,23.453-92.595,23.453-92.595H87.136z"/>
	<polygon fill="#E2001A" points="286.945,207.231 332.634,207.231 302.784,323.584 254.659,323.584 	"/>
	<path fill="#E2001A" d="M377.713,207.231h27.108l-3.96,17.971h38.987l-10.052,36.855h-39.596l-8.225,29.85
		c0,0,2.133,12.183,32.287,6.092l-7.006,25.585c0,0-25.586,3.652-47.82,3.652s-31.981-6.394-26.804-27.105
		s10.356-37.769,10.356-37.769h-17.362l4.265-19.189C329.893,243.173,360.656,225.202,377.713,207.231z"/>
	<path fill="#E2001A" d="M253.746,284.597c0,0,38.987-62.745-46.604-62.745c-85.589,0-78.279,82.238-73.71,88.939
		s18.58,26.804,100.514,9.747l13.098-26.499c0,0-28.022,8.528-52.999,6.092s-15.229-15.839-15.229-15.839L253.746,284.597z
		 M208.97,246.828c17.057,0,11.27,16.752,11.27,16.752h-33.505C186.735,263.58,191.914,246.828,208.97,246.828z"/>
	<polygon points="93.836,204.795 455.688,204.795 463.606,172.204 95.969,198.398 	"/>
	<polygon fill="#E2001A" points="89.268,196.916 451.118,196.916 459.037,164.325 91.4,190.52 	"/>
	<g>
		<path fill="#E2001A" d="M475,234.628c0,6.289-4.936,11.227-11.36,11.227c-6.358,0-11.432-4.938-11.432-11.227
			c0-6.154,5.073-11.091,11.432-11.091C470.064,223.537,475,228.474,475,234.628z M455.049,234.628c0,4.938,3.655,8.859,8.657,8.859
			c4.869,0,8.457-3.921,8.457-8.791c0-4.937-3.588-8.927-8.523-8.927S455.049,229.759,455.049,234.628z M461.884,240.443h-2.57
			v-11.09c1.014-0.204,2.432-0.339,4.26-0.339c2.094,0,3.041,0.339,3.854,0.812c0.609,0.474,1.08,1.353,1.08,2.436
			c0,1.217-0.946,2.165-2.298,2.57v0.136c1.08,0.406,1.689,1.217,2.027,2.705c0.338,1.69,0.542,2.368,0.813,2.772h-2.774
			c-0.338-0.404-0.538-1.419-0.876-2.704c-0.204-1.217-0.88-1.759-2.304-1.759h-1.213V240.443z M461.95,234.154h1.218
			c1.419,0,2.57-0.472,2.57-1.623c0-1.014-0.747-1.69-2.37-1.69c-0.676,0-1.146,0.068-1.418,0.136V234.154z"/>
	</g>
</g>
</svg>
