<?xml version="1.0" encoding="utf-8"?>
<!-- Generator: Adobe Illustrator 16.0.0, SVG Export Plug-In . SVG Version: 6.00 Build 0)  -->
<!DOCTYPE svg PUBLIC "-//W3C//DTD SVG 1.1//EN" "http://www.w3.org/Graphics/SVG/1.1/DTD/svg11.dtd">
<svg version="1.1" id="Calque_2" xmlns="http://www.w3.org/2000/svg" xmlns:xlink="http://www.w3.org/1999/xlink" x="0px" y="0px"
	 width="500px" height="500px" viewBox="0 0 500 500" enable-background="new 0 0 500 500" xml:space="preserve">
<g>
	<path fill="#008AC9" d="M240.58,273.157c-0.492,16.908,5.414,30.528,22.813,30.528c6.727,0,14.116-3.117,19.205-7.385l1.967,1.477
		l-3.609,9.192c-6.563,4.595-15.429,7.385-23.472,7.385c-27.244,0-41.195-16.412-41.195-43.164
		c0-22.978,13.787-39.391,37.585-39.391c25.769,0,35.45,17.89,33.646,41.358 M264.868,265.281c0-8.698-0.983-26.097-10.831-26.097
		c-11.982,0-13.13,17.398-13.458,26.097H264.868z"/>
	<path fill="#008AC9" d="M332.325,290.558c0,11.323,0.658,17.396,15.266,13.622v6.398c-6.072,2.299-11.981,3.776-17.07,3.776
		c-17.07,0-20.842-11.325-20.842-26.59V243.78h-11.161c0.492-3.775,0.492-6.729,0-10.504h11.161V214.73
		c7.385-2.954,14.77-6.4,22.646-10.175v28.721h13.953c-0.492,3.776-0.492,6.729,0,10.504h-13.953"/>
	<path fill="#008AC9" d="M387.929,193.165v119.712c-3.776-0.327-7.552-0.818-11.328-0.818c-3.771,0-7.548,0.491-11.323,0.818
		V193.165"/>
	<path fill="#008AC9" d="M431.345,312.221l-33.153-78.945c4.101,0.329,8.368,0.821,12.474,0.821c4.101,0,8.368-0.492,12.474-0.821
		c6.072,17.235,12.799,34.301,19.691,51.042l6.239-16.741c4.268-11.323,8.697-22.649,12.474-34.301
		c2.296,0.329,4.43,0.493,6.73,0.493c2.297,0,4.431-0.164,6.727-0.493l-16.574,37.585c-12.145,27.573-21.945,51.349-32.452,79.904
		c-2.297-0.329-4.593-0.491-6.894-0.491c-2.296,0-4.593,0.162-6.893,0.491"/>
	<path fill="#008AC9" d="M166.088,242.962c0-9.567,1.223-13.644-11.824-15.369c-2.446-0.314-6.525-0.47-6.525-3.137
		c0-2.509,2.04-2.979,4.894-2.979c10.603,0,20.797,0.626,31.398,0.626c9.788,0,19.572-0.626,29.155-0.626
		c2.856,0,5.097,0.47,5.097,2.979c0,2.509-3.261,2.822-5.709,3.137c-13.863,1.725-12.846,4.861-12.846,15.369v49.555
		c0,15.684-1.426,25.407-15.493,37.64c-10.399,8.939-30.177,20.072-46.486,20.072c-10.194,0-22.634-5.174-22.634-14.113
		c0-6.273,6.731-10.821,14.68-10.821c8.155,0,14.274,4.235,16.923,9.88c1.02,2.196,2.243,4.862,5.709,4.862
		c5.3,0,8.157-4.392,9.991-7.685c3.669-6.743,3.669-14.271,3.669-21.485"/>
	<g>
		<path fill="#008AC9" d="M73.471,280.286c-13.19,0-28.895-4.807-48.471-19.761l2.108-2.762
			c37.502,28.642,59.176,18.879,78.294,10.265c16.374-7.374,31.836-14.34,52.347,7.695l-2.544,2.369
			c-18.811-20.21-31.857-14.334-48.375-6.894C97.325,275.479,86.652,280.286,73.471,280.286z"/>
	</g>
	<g>
		<path fill="#008AC9" d="M73.468,265.512c-13.19,0-28.892-4.807-48.468-19.761l2.108-2.762
			c37.502,28.643,59.176,18.878,78.294,10.264c16.374-7.373,31.84-14.337,52.347,7.693l-2.544,2.368
			c-18.813-20.209-31.86-14.332-48.375-6.891C97.325,260.705,86.652,265.512,73.468,265.512z"/>
	</g>
	<polyline fill="#00769F" points="26.054,275.774 26.054,350.988 108.428,350.988 	"/>
	<path fill="#008AC9" d="M139.26,314.915c-3.77-3.013-9.81-4.565-16.587-4.565c-13.849,0-25.084,7.591-25.084,17.318
		c0,11.258,4.723,20.618,10.84,21.896v0.101v1.268H26.054v-75.158c71.421,54.554,87.998-27.637,130.423,17.938l0.175,23.855
		c0,2.021-2.296,3.79-5.347,3.79c0,0-1.167,0.828-6.865-2.127c0,0-1.054-0.528-4.644-3.694"/>
	<path fill="#008AC9" d="M181.312,208.85c18.597,0,33.671-15.075,33.671-33.669c0-18.594-15.074-33.669-33.671-33.669
		c-18.593,0-33.668,15.076-33.668,33.669C147.643,193.775,162.719,208.85,181.312,208.85"/>
	<path fill="#008AC9" d="M200.507,337.256c0.811-2.134,0.757-2.701-0.541-2.891l-0.754-0.109c-0.244-0.16-0.163-0.782,0.214-0.945
		c1.488,0.056,2.865,0.081,4.161,0.081c0.945,0,1.514-0.025,2.484-0.081c-0.539,1.352-0.188,3.945-0.051,5.269l0.214,2.215
		c0.162,1.567,0.299,2.944,0.462,3.917c0.539-0.757,1.214-1.674,2.294-3.188l3.134-4.402c1.648-2.324,1.972-3.323,2.162-3.811
		c0.595,0.056,1.621,0.081,2.622,0.081c1.321,0,2.457-0.025,3.806-0.081c0.325,0.163,0.244,0.838-0.107,0.945l-0.757,0.109
		c-1.133,0.216-1.595,0.378-2.377,3.297l-2.619,9.67c-0.595,2.216-0.704,2.673,0.673,2.891l0.757,0.135
		c0.137,0.161,0.056,0.783-0.214,0.945c-1.433-0.054-2.81-0.081-4.107-0.081c-1.297,0-2.486,0.027-3.808,0.081
		c-0.351-0.135-0.325-0.836,0.051-0.945l0.785-0.135c1.161-0.188,1.46-0.353,2.243-2.891l2.378-7.808
		c0.432-1.459,0.594-2.053,0.836-2.889l-0.054-0.056c-0.65,0.838-1.133,1.404-2.052,2.73l-3.862,5.563
		c-1.381,1.972-2.595,3.89-3.838,5.917c-0.353,0.216-0.947,0.16-1.216-0.109c0.056-0.971-0.081-3.079-0.27-5.51l-0.297-3.971
		c-0.135-1.864-0.353-3.673-0.46-4.62h-0.051c-0.38,0.947-0.919,2.377-1.595,4.27l-1.377,3.917c-1.219,3.485-1.432,4.158-1.46,4.699
		c-0.028,0.27,0.079,0.539,0.647,0.648l1.296,0.243c0.137,0.242,0.081,0.811-0.132,0.945c-1.164-0.027-2.324-0.081-3.566-0.081
		c-1.189,0-2.027,0.054-2.972,0.081c-0.216-0.216-0.216-0.784,0.056-0.945l0.646-0.108c0.813-0.135,1.245-0.325,1.567-0.595
		c0.485-0.457,0.947-1.323,1.918-3.996"/>
	<path fill="#008AC9" d="M232.057,341.038l0.625-1.271c0.16-0.106,0.432-0.188,0.727-0.188c0.325,0,0.676,0.053,1.001,0.162
		c0.458,0.133,0.864,0.432,1,0.701c-1.026,2.54-2.217,5.538-3.244,8.535c-0.109,0.351-0.135,0.569,0.054,0.569
		c0.38,0,1.702-0.811,2.54-1.677c0.27,0,0.541,0.218,0.513,0.597c-1.189,1.674-3.511,3.158-5.401,3.158
		c-0.704,0-1.056-0.62-1.056-1.053c0-0.297,0.137-0.703,0.299-1.135l0.81-2.08h-0.109c-1.595,2.107-4.187,4.241-6.158,4.241
		c-0.838,0-1.651-0.782-1.651-1.676c0-1.593,1.595-4.969,4.054-7.184c1.783-1.596,3.376-2.324,4.809-2.324
		C231.14,340.416,231.681,340.659,232.057,341.038 M230.274,341.604c-0.402,0-0.89,0.243-1.809,1.404
		c-1.351,1.702-2.591,4.377-2.672,5.889v0.244c0.026,0.269,0.163,0.432,0.376,0.432c0.594,0,2.08-1.593,2.891-2.673
		c0.975-1.298,2.027-3.378,2.352-4.27C231.086,341.848,230.708,341.604,230.274,341.604z"/>
	<path fill="#008AC9" d="M257.852,340.497c0.324-0.054,0.594-0.081,0.756-0.081c3.404,0,4.512,1.836,4.512,3.97
		c0,1.488-0.838,3.485-2.026,4.702c-1.377,1.404-3.212,2.512-5.563,2.512c-0.325,0-0.809-0.135-1.107-0.27
		c-0.188,0.026-0.3,0.188-0.377,0.458l-1.219,3.594c-0.295,0.918-0.351,1.567,0.676,1.675l1.134,0.106
		c0.324,0.137,0.273,0.813-0.133,0.92h-1.92c-1.672,0-3.323,0.106-5.563,0.297c-0.351-0.162-0.378-0.729-0.135-0.945l0.866-0.135
		c1.133-0.19,1.402-0.622,2.022-2.433l4.271-12.533c-0.649,0.137-2.057,0.757-2.81,1.162c-0.354-0.055-0.487-0.513-0.324-0.784
		c0.487-0.566,2.591-1.593,3.592-1.862l0.782-2.027c0.244-0.216,0.65-0.378,1.296-0.378c0.949,0,1.676,0.244,1.813,0.513
		 M255.042,348.872c-0.107,0.325-0.214,0.757,0.137,1.107c0.27,0.297,0.594,0.432,0.838,0.432c0.32,0,0.945-0.297,1.591-1.082
		c1.188-1.377,2.057-3.511,2.057-5.294c0-1.593-0.868-2.215-1.783-2.215c-0.111,0-0.273,0.027-0.436,0.056L255.042,348.872z"/>
	<path fill="#008AC9" d="M279.274,341.658c0,1.539-1.056,2.646-1.783,2.646c-0.543,0-0.649-0.539-0.786-1.24
		c-0.077-0.462-0.214-0.622-0.433-0.622c-0.457,0-1.158,1.107-1.864,2.35c-1.214,2.189-1.971,4.217-2.835,6.32
		c-0.162,0.381-0.701,0.487-1.296,0.487c-0.676,0-1.757-0.216-1.488-1.081c0.787-2.485,1.783-5.32,2.541-7.642
		c0.162-0.516,0.188-0.868-0.107-0.868c-0.462,0-1.488,0.786-2.245,1.65c-0.32-0.028-0.539-0.325-0.483-0.622
		c0.539-1.08,2.267-3,4.242-3c1.565,0,1.646,1.217,1.159,2.594l-0.971,2.862h0.137c0.89-1.591,1.591-2.753,2.24-3.592
		c0.839-1.133,1.673-1.864,2.647-1.864C278.731,340.037,279.274,340.551,279.274,341.658"/>
	<path fill="#008AC9" d="M293.322,342.199c0,2.781-4.618,4.079-6.808,4.646c-0.107,0.325-0.137,0.731-0.137,1.296
		c0,0.731,0.351,1.488,1.163,1.488c0.971,0,2.271-0.65,3.511-1.893c0.299,0,0.568,0.271,0.543,0.622
		c-1.3,2.027-3.46,3.241-5.893,3.241c-1.946,0-2.891-1.377-2.891-3.106c0-2.431,1.514-5.269,3.647-6.889
		c1.514-1.161,2.972-1.567,4.242-1.567C292.266,340.037,293.322,341.012,293.322,342.199 M288.593,341.93
		c-0.971,1.054-1.621,2.728-1.864,3.729c0.949-0.271,1.783-0.729,2.569-1.542c0.539-0.566,0.945-1.595,0.971-2.269
		c0-0.297-0.188-0.622-0.513-0.622C289.405,341.226,288.999,341.47,288.593,341.93z M291.595,333.798
		c0.295-0.622,0.564-0.81,0.834-0.81c0.299,0,0.594,0.108,1.056,0.432c0.483,0.378,0.727,0.676,0.727,0.973
		s-0.243,0.647-0.594,0.998l-3.806,3.757c-0.381,0.054-0.625-0.108-0.676-0.434L291.595,333.798z"/>
	<path fill="#008AC9" d="M303.747,341.82c-1.052,3.351-1.89,6.564-2.916,9.724c-0.595,1.783-1.215,3.485-1.92,4.54
		c-0.834,1.242-2.455,2.405-4.268,2.405c-1.24,0-2.729-0.65-2.729-2.081c0-0.892,0.782-1.593,1.514-1.593
		c0.432,0,0.646,0.242,0.757,0.566c0.676,1.215,1.321,1.781,1.621,1.781c0.295,0,0.539-0.538,1.026-2.296
		c1.133-4.187,2.321-8.535,3.54-13.047h-2.54c-0.192-0.566,0.082-1.27,0.406-1.404h2.536c0.487-1.567,1.001-3.16,1.813-4.591
		c1.214-2.189,3.104-3.917,5.618-3.917c2.16,0,3.16,1.188,3.131,2.429c0,1.379-1.189,2.055-1.728,2.055
		c-0.433,0-0.676-0.325-0.783-0.784c-0.487-1.997-1.056-2.511-1.406-2.511s-0.89,0.646-1.484,1.997
		c-0.782,1.702-1.296,3.541-1.783,5.322h3.079c0.188,0.378,0.03,1.188-0.432,1.404"/>
	<path fill="#008AC9" d="M319.792,342.199c0,2.781-4.619,4.079-6.808,4.646c-0.107,0.325-0.138,0.731-0.138,1.296
		c0,0.731,0.355,1.488,1.163,1.488c0.971,0,2.271-0.65,3.511-1.893c0.3,0,0.569,0.271,0.544,0.622
		c-1.301,2.027-3.46,3.241-5.893,3.241c-1.941,0-2.887-1.377-2.887-3.106c0-2.431,1.51-5.269,3.644-6.889
		c1.514-1.161,2.972-1.567,4.241-1.567C318.739,340.037,319.792,341.012,319.792,342.199 M315.063,341.93
		c-0.971,1.054-1.621,2.728-1.86,3.729c0.945-0.271,1.778-0.729,2.565-1.542c0.539-0.566,0.945-1.595,0.971-2.269
		c0-0.297-0.188-0.622-0.513-0.622C315.875,341.226,315.469,341.47,315.063,341.93z M318.064,333.798
		c0.295-0.622,0.564-0.81,0.838-0.81c0.295,0,0.59,0.108,1.052,0.432c0.487,0.378,0.727,0.676,0.727,0.973s-0.239,0.647-0.594,0.998
		l-3.806,3.757c-0.381,0.054-0.625-0.108-0.676-0.434L318.064,333.798z"/>
	<path fill="#008AC9" d="M334.865,341.658c0,1.539-1.052,2.646-1.783,2.646c-0.539,0-0.65-0.539-0.782-1.24
		c-0.082-0.462-0.219-0.622-0.433-0.622c-0.462,0-1.163,1.107-1.864,2.35c-1.219,2.189-1.971,4.217-2.839,6.32
		c-0.158,0.381-0.701,0.487-1.296,0.487c-0.676,0-1.753-0.216-1.484-1.081c0.783-2.485,1.783-5.32,2.54-7.642
		c0.158-0.516,0.188-0.868-0.11-0.868c-0.458,0-1.484,0.786-2.241,1.65c-0.325-0.028-0.539-0.325-0.487-0.622
		c0.543-1.08,2.271-3,4.242-3c1.569,0,1.646,1.217,1.163,2.594l-0.976,2.862h0.138c0.889-1.591,1.595-2.753,2.24-3.592
		c0.838-1.133,1.676-1.864,2.646-1.864C334.326,340.037,334.865,340.551,334.865,341.658"/>
	<path fill="#008AC9" d="M348.912,342.199c0,2.781-4.618,4.079-6.808,4.646c-0.106,0.325-0.132,0.731-0.132,1.296
		c0,0.731,0.351,1.488,1.158,1.488c0.975,0,2.271-0.65,3.511-1.893c0.3,0,0.569,0.271,0.543,0.622
		c-1.296,2.027-3.459,3.241-5.888,3.241c-1.946,0-2.891-1.377-2.891-3.106c0-2.431,1.514-5.269,3.647-6.889
		c1.514-1.161,2.972-1.567,4.241-1.567C347.86,340.037,348.912,341.012,348.912,342.199 M344.188,341.93
		c-0.976,1.054-1.621,2.728-1.864,3.729c0.944-0.271,1.782-0.729,2.565-1.542c0.539-0.566,0.945-1.595,0.971-2.269
		c0-0.297-0.188-0.622-0.514-0.622C344.995,341.226,344.594,341.47,344.188,341.93z"/>
	<path fill="#008AC9" d="M359.205,341.739l-1.27,3.322h0.106c1.569-2.185,3.678-5.024,6.324-5.024c1.215,0,1.702,0.864,1.702,1.567
		c0,0.647-0.218,1.567-0.543,2.405c-0.514,1.35-1.188,2.916-1.997,4.834c-0.162,0.379-0.106,0.595,0.107,0.595
		c0.406,0,1.701-1.054,2.402-1.837c0.3-0.054,0.569,0.163,0.544,0.514c-0.758,1.351-3.002,3.484-5.675,3.484
		c-0.62,0-1.163-0.568-1.163-1.054c0-0.404,0.192-0.945,0.406-1.458c0.813-1.893,1.62-3.757,2.296-5.646
		c0.244-0.646,0.351-0.999,0.351-1.271c0-0.214-0.106-0.376-0.351-0.376c-0.376,0-1.107,0.513-2.053,1.728
		c-1.514,1.945-2.972,4.999-4.186,7.59c-0.188,0.381-0.702,0.487-1.296,0.487c-0.676,0-1.758-0.216-1.458-1.081
		c0.106-0.377,2.185-6.158,2.591-7.321c0.188-0.539,0.219-0.971-0.106-0.971c-0.569,0-1.677,0.864-2.297,1.458
		c-0.27,0-0.462-0.216-0.487-0.432c0.701-1.405,2.972-3.216,5.161-3.216C359.556,340.037,359.449,341.119,359.205,341.739"/>
	<path fill="#008AC9" d="M371.499,348.468c0-1.704,0.915-4.163,2.429-5.865c1.625-1.809,3.379-2.565,4.862-2.565
		c1.569,0,2.758,0.731,2.758,2.083c0,1.025-0.863,1.699-1.839,1.699c-0.675,0-1.052-0.404-1.081-0.998
		c-0.026-0.514-0.026-1.596-0.539-1.596c-0.432,0-1.026,0.514-1.672,1.702c-0.706,1.323-1.326,3.054-1.326,4.918
		c0,1.296,0.488,1.783,1.134,1.783c0.649,0,1.595-0.432,2.81-1.73c0.351,0,0.624,0.27,0.568,0.595
		c-0.894,1.405-3.027,3.106-5.375,3.106C372.444,351.6,371.499,350.357,371.499,348.468"/>
	<path fill="#008AC9" d="M396.027,342.199c0,2.781-4.618,4.079-6.808,4.646c-0.106,0.325-0.137,0.731-0.137,1.296
		c0,0.731,0.354,1.488,1.163,1.488c0.971,0,2.267-0.65,3.511-1.893c0.299,0,0.568,0.271,0.539,0.622
		c-1.296,2.027-3.455,3.241-5.889,3.241c-1.941,0-2.891-1.377-2.891-3.106c0-2.431,1.514-5.269,3.647-6.889
		c1.514-1.161,2.972-1.567,4.242-1.567C394.976,340.037,396.027,341.012,396.027,342.199 M391.298,341.93
		c-0.971,1.054-1.62,2.728-1.86,3.729c0.945-0.271,1.779-0.729,2.562-1.542c0.543-0.566,0.949-1.595,0.976-2.269
		c0-0.297-0.188-0.622-0.514-0.622C392.11,341.226,391.704,341.47,391.298,341.93z"/>
</g>
</svg>
