<?xml version="1.0" encoding="utf-8"?>
<!-- Generator: Adobe Illustrator 16.0.0, SVG Export Plug-In . SVG Version: 6.00 Build 0)  -->
<!DOCTYPE svg PUBLIC "-//W3C//DTD SVG 1.1//EN" "http://www.w3.org/Graphics/SVG/1.1/DTD/svg11.dtd">
<svg version="1.1" id="Calque_1" xmlns="http://www.w3.org/2000/svg" xmlns:xlink="http://www.w3.org/1999/xlink" x="0px" y="0px"
	 width="500px" height="500px" viewBox="0 0 500 500" enable-background="new 0 0 500 500" xml:space="preserve">
<g>
	<path fill="#FFD400" d="M475,249.996c0,124.26-100.74,224.995-225,224.995c-124.266,0-225-100.734-225-224.995
		C25,125.741,125.734,25.01,250,25.01C374.26,25.01,475,125.741,475,249.996"/>
	<path fill="#231F20" d="M339.657,170.765c-15.632,0-29.621-3.895-43.156-7.644c-14.294-3.981-29.07-8.074-46.843-8.074
		c-17.931,0-41.787,4.11-62.831,7.735c-18.783,3.234-36.533,6.3-48.775,6.3c-7.466,0-15.164-1.465-22.584-4.007
		c1.752,4.771,3.941,9.272,6.478,13.544c5.047,1.235,10.447,1.876,16.106,1.876c10.743,0,27.757-2.93,45.788-6.03
		c21.73-3.749,46.374-8,65.818-8c20.186,0,36.863,4.628,51.57,8.724c12.955,3.599,25.204,6.989,38.429,6.989
		c15.765,0,35.614-4.479,49.155-12.967c1.104-3.777,1.867-7.712,2.194-11.866C375.357,166.511,355.888,170.765,339.657,170.765
		 M296.501,192.177c-14.294-3.981-29.07-8.069-46.843-8.069c-17.931,0-41.787,4.104-62.831,7.724
		c-18.683,3.234-36.332,6.259-48.586,6.299c4.306,3.783,9.077,7.219,14.248,10.33c9.189-1.135,20.079-2.999,31.351-4.941
		c21.73-3.743,46.374-7.994,65.818-7.994c20.186,0,36.863,4.636,51.57,8.712c12.955,3.605,25.204,7.012,38.429,7.012
		c3.81,0,8.371-0.477,13.214-1.365c7.923-4.306,14.857-9.295,20.51-14.989c-11.455,3.295-23.348,4.918-33.724,4.918
		C324.025,199.815,310.036,195.938,296.501,192.177z M183.84,145.392c21.73-3.731,46.374-7.983,65.818-7.983
		c20.186,0,36.863,4.628,51.57,8.718c12.955,3.611,25.204,7,38.429,7c15.294,0,35.011-4.653,48.127-14.742
		c-19.47-32.428-116.86-4.866-167.736-55.753c-36.768-36.757-114.539-0.735-109.409,61.03c8.529,4.777,18.385,7.781,27.413,7.781
		C148.795,151.444,165.809,148.515,183.84,145.392z M249.658,213.164c-17.931,0-41.787,4.099-62.831,7.718
		c-1.336,0.247-2.668,0.462-3.993,0.692c19.637,5.92,42.714,8.89,68.682,8.89c20.958,0,40.778-1.881,58.6-5.63
		c-4.607-1.117-9.14-2.364-13.615-3.605C282.207,217.263,267.431,213.164,249.658,213.164z"/>
	<path fill="#231F20" d="M475,249.996c0,124.26-100.74,224.995-225,224.995c-124.266,0-225-100.734-225-224.995H475"/>
	<path fill="#FFFFFF" d="M93.154,332.225v10.054h-2.042l-0.658-1.976c-1.307,0.941-3.117,2.24-6.466,2.24
		c-4.406,0-9.746-2.401-9.746-10.031c0-5.113,2.78-10.1,9.666-10.1c3.964,0,8.299,1.632,9.129,6.469h-3.441
		c-0.405-0.977-1.33-3.252-5.288-3.252c-5.412,0-6.696,4.057-6.696,6.723c0,4.538,2.761,6.859,6.406,6.859
		c3.321,0,5.173-1.287,5.984-3.987h-6.053v-2.999H93.154"/>
	<path fill="#FFFFFF" d="M96.46,322.895h10.367c4.087,0,7.035,1.034,7.035,5.699c0,3.551-2.29,5.492-4.823,5.665l5.288,7.802h-4.153
		l-4.996-7.549h-5.354v7.549H96.46V322.895 M106.327,331.397c2.758,0,4.157-0.437,4.157-2.712c0-2.24-1.399-2.7-4.157-2.7h-6.503
		v5.412H106.327z"/>
	<path fill="#FFFFFF" d="M126.722,322.412c7.589,0,10.272,4.964,10.272,10.191c0,3.999-2.12,9.939-10.272,9.939
		c-8.172,0-10.284-5.94-10.284-9.939C116.438,327.376,119.122,322.412,126.722,322.412 M133.628,332.408
		c0-4.607-2.97-6.779-6.906-6.779c-3.935,0-6.914,2.172-6.914,6.779c0,5.436,3.677,6.917,6.914,6.917
		C129.951,339.325,133.628,337.844,133.628,332.408z"/>
	<path fill="#FFFFFF" d="M158.289,333.822c0,6.192-3.539,8.721-9.164,8.721c-5.63,0-9.16-2.528-9.16-8.721v-10.928h3.369v10.675
		c0,3.159,1.025,5.756,5.791,5.756c4.771,0,5.788-2.597,5.788-5.756v-10.675h3.375V333.822"/>
	<path fill="#FFFFFF" d="M162.368,322.895h9.605c2.924,0,7.713,0,7.713,5.883c0,5.849-4.789,5.849-7.713,5.849h-6.242v7.435h-3.364
		V322.895 M172.714,331.397c1.919,0,3.602-0.173,3.602-2.643c0-2.459-1.683-2.643-3.602-2.643h-6.983v5.285H172.714z"/>
	<polyline fill="#FFFFFF" points="182.139,322.895 197.611,322.895 197.611,326.112 185.506,326.112 185.506,330.559 
		195.93,330.559 195.93,333.775 185.506,333.775 185.506,338.843 197.901,338.843 197.901,342.061 182.139,342.061 182.139,322.895 
			"/>
	<path fill="#FFFFFF" d="M262.938,291.354h-17.338v86.636c0,4.113-1.129,4.309-4.323,4.309v7.652h85.989v-17.063h-64.328V291.354
		 M207.265,351.447c0.242,14.513-3.789,22.659-24.167,22.521c-7.69,0-13.679-1.356-19.904-3.126v18.04
		c4.271,1.229,13.667,2.172,21.981,2.172c26.125,0,39.172-9.491,39.419-38.516v-49.178c0-4.137,1.132-4.32,4.332-4.32v-7.687
		h-21.662V351.447z M422.249,307.911v-16.557h-85.992v7.687c3.188,0,4.32,0.184,4.32,4.32v86.59h17.327V347.38h55.302v-16.557
		h-55.302v-22.912H422.249z"/>
</g>
</svg>
