<?xml version="1.0" encoding="utf-8"?>
<!-- Generator: Adobe Illustrator 16.0.0, SVG Export Plug-In . SVG Version: 6.00 Build 0)  -->
<!DOCTYPE svg PUBLIC "-//W3C//DTD SVG 1.1//EN" "http://www.w3.org/Graphics/SVG/1.1/DTD/svg11.dtd">
<svg version="1.1" id="Calque_2" xmlns="http://www.w3.org/2000/svg" xmlns:xlink="http://www.w3.org/1999/xlink" x="0px" y="0px"
	 width="500px" height="500px" viewBox="0 0 500 500" enable-background="new 0 0 500 500" xml:space="preserve">
<g>
	<path fill="#1A171B" d="M25,250.006C25,125.331,125.735,24.258,250,24.258c124.262,0,225,101.073,225,225.748
		c0,124.67-100.738,225.736-225,225.736C125.735,475.742,25,374.676,25,250.006z"/>
	<path fill="#E0001A" d="M252.415,73.83l-67.262,149.124c-3.994,8.851-15.205,16.096-24.917,16.096h-8.2
		c-9.711,0-14.39-7.245-10.396-16.096l14.344-31.81H82.952L58.841,244.61c-9.982,22.131,1.716,40.24,25.994,40.24h119.234
		c24.278,0,52.313-18.109,62.289-40.24l77.026-170.78H252.415z"/>
	<path fill="#E0001A" d="M338.066,160.777l-80.237,171.182c-3.997,8.852-15.205,16.097-24.917,16.097h-8.2
		c-9.712,0-14.39-7.245-10.396-16.097l14.344-31.803h-73.032l-24.111,53.459c-9.982,22.131,1.715,40.24,25.994,40.24h119.237
		c24.271,0,52.31-18.109,62.286-40.24l90.001-192.838H338.066z"/>
</g>
</svg>
