<?xml version="1.0" encoding="utf-8"?>
<!-- Generator: Adobe Illustrator 16.0.0, SVG Export Plug-In . SVG Version: 6.00 Build 0)  -->
<!DOCTYPE svg PUBLIC "-//W3C//DTD SVG 1.1//EN" "http://www.w3.org/Graphics/SVG/1.1/DTD/svg11.dtd">
<svg version="1.1" id="Calque_1" xmlns="http://www.w3.org/2000/svg" xmlns:xlink="http://www.w3.org/1999/xlink" x="0px" y="0px"
	 width="500px" height="500px" viewBox="0 0 500 500" enable-background="new 0 0 500 500" xml:space="preserve">
<g>
	<rect x="25" y="105.66" fill="#FFFFFF" width="450" height="288.68"/>
	<path fill="#0095D8" d="M483.49,402.831H16.51V97.17h466.98V402.831z M33.49,385.85h433.02v-271.7H33.49V385.85z"/>
</g>
<g>
	<path fill="#0095D8" d="M152.355,345.516H82.309V153.418h70.047V345.516z M99.289,328.536h36.086V170.398H99.289V328.536z"/>
</g>
<g>
	<path fill="#0095D8" d="M270.472,345.516h-72.28l-51.211-96.601l51.241-95.498h72.332l-51.266,95.545L270.472,345.516z
		 M208.409,328.536h33.841l-42.209-79.62l42.129-78.517H208.38l-42.155,78.565L208.409,328.536z"/>
</g>
<polygon fill="#0095D8" points="417.677,207.55 417.677,154.479 339.14,154.479 309.423,154.479 278.649,154.479 278.649,341.268 
	339.14,341.268 339.14,282.899 417.677,282.899 417.677,229.838 339.14,229.838 339.14,207.55 "/>
<g>
	<path fill="#0095D8" d="M398.294,301.417c3.709,0,7.339,0.944,10.877,2.854c3.539,1.9,6.294,4.625,8.265,8.174
		c1.98,3.539,2.966,7.238,2.966,11.068c0,3.811-0.976,7.471-2.926,10.979c-1.94,3.519-4.665,6.243-8.184,8.184
		c-3.498,1.939-7.178,2.916-10.998,2.916c-3.841,0-7.5-0.977-11.009-2.916c-3.519-1.94-6.243-4.665-8.203-8.184
		c-1.94-3.508-2.926-7.168-2.926-10.979c0-3.83,0.985-7.529,2.976-11.068c1.991-3.549,4.746-6.273,8.284-8.174
		C390.955,302.362,394.574,301.417,398.294,301.417z M398.294,305.057c-3.117,0-6.143,0.804-9.088,2.393
		c-2.936,1.588-5.248,3.87-6.917,6.836c-1.649,2.945-2.483,6.032-2.483,9.229c0,3.188,0.814,6.244,2.443,9.159
		c1.639,2.915,3.92,5.197,6.855,6.826c2.936,1.628,5.992,2.442,9.189,2.442c3.187,0,6.243-0.814,9.179-2.442
		c2.936-1.629,5.218-3.911,6.846-6.826c1.619-2.915,2.433-5.972,2.433-9.159c0-3.196-0.824-6.283-2.473-9.229
		c-1.669-2.966-3.971-5.248-6.916-6.836C404.406,305.861,401.38,305.057,398.294,305.057z M388.563,335.709v-23.746h8.213
		c2.815,0,4.846,0.221,6.103,0.664c1.257,0.432,2.252,1.195,3.006,2.291c0.744,1.096,1.116,2.252,1.116,3.489
		c0,1.729-0.624,3.237-1.88,4.524c-1.257,1.286-2.926,2.01-4.996,2.16c0.844,0.363,1.527,0.775,2.03,1.258
		c0.965,0.944,2.131,2.513,3.528,4.715l2.906,4.645h-4.686l-2.131-3.74c-1.68-2.936-3.017-4.775-4.021-5.52
		c-0.704-0.553-1.729-0.824-3.086-0.824h-2.263v10.084H388.563z M392.402,322.378h4.745c2.272,0,3.811-0.331,4.625-0.995
		c0.834-0.664,1.246-1.538,1.246-2.634c0-0.694-0.201-1.327-0.593-1.88c-0.393-0.553-0.955-0.976-1.659-1.247
		c-0.703-0.271-2.011-0.412-3.921-0.412h-4.443V322.378z"/>
</g>
</svg>
