<?xml version="1.0" encoding="utf-8"?>
<!-- Generator: Adobe Illustrator 16.0.0, SVG Export Plug-In . SVG Version: 6.00 Build 0)  -->
<!DOCTYPE svg PUBLIC "-//W3C//DTD SVG 1.1//EN" "http://www.w3.org/Graphics/SVG/1.1/DTD/svg11.dtd">
<svg version="1.1" id="Calque_1" xmlns="http://www.w3.org/2000/svg" xmlns:xlink="http://www.w3.org/1999/xlink" x="0px" y="0px"
	 width="500px" height="500px" viewBox="0 0 500 500" enable-background="new 0 0 500 500" xml:space="preserve">
<g>
	<g>
		<path fill="#E2001A" d="M172.491,211.327c-3.63,0-6.6,2.97-6.6,6.6v51.124c0,3.632,2.97,6.602,6.6,6.602h14.45
			c3.63,0,6.6-2.97,6.6-6.602v-29.39c0-3.63,2.97-6.6,6.6-6.6h9.115c3.63,0,6.6,2.97,6.6,6.6v29.39c0,3.632,2.97,6.602,6.6,6.602
			h13.965c3.63,0,6.6-2.97,6.6-6.602v-29.39c0-3.63,2.97-6.6,6.6-6.6h9.115c3.632,0,6.602,2.97,6.602,6.6v29.39
			c0,3.632,2.97,6.602,6.599,6.602h14.549c3.631,0,6.601-2.97,6.601-6.602v-51.124c0-3.63-2.97-6.6-6.601-6.6H172.491z"/>
	</g>
	<path fill="#E2001A" d="M373.319,211.327h-58.595c-3.631,0-6.601,2.97-6.601,6.6v51.124c0,3.632,2.97,6.602,6.601,6.602h58.595
		c3.629,0,6.599-2.97,6.599-6.602v-51.124C379.918,214.296,376.948,211.327,373.319,211.327z M357.502,245.874l-11.078,11.078
		c-1.283,1.285-3.384,1.285-4.669,0L330.704,245.9c-1.283-1.282-1.283-3.383,0.002-4.666l11.078-11.078
		c1.283-1.283,3.384-1.283,4.666,0l11.052,11.051C358.784,242.49,358.784,244.591,357.502,245.874z"/>
	<path fill="#E2001A" d="M88.356,210.955c-19.924,0-36.077,16.151-36.077,36.076c0,19.926,16.153,36.078,36.077,36.078
		c19.924,0,36.077-16.151,36.077-36.078C124.433,227.106,108.28,210.955,88.356,210.955z M108.091,250.446l-16.317,16.317
		c-1.891,1.892-4.986,1.892-6.876,0l-16.277-16.276c-1.889-1.89-1.889-4.984,0.002-6.873l16.317-16.318
		c1.89-1.888,4.984-1.888,6.874,0l16.277,16.278C109.98,245.462,109.98,248.558,108.091,250.446z"/>
	<path fill="#E2001A" d="M129.91,274.891c2.551-2.945,8.669-1.879,14.197,2.258c1.6-2.956,2.958-6.058,4.078-9.273
		c-0.123-0.041-0.246-0.072-0.368-0.115c-7.354-2.529-12.201-7.82-10.828-11.822c1.291-3.769,7.601-5.057,14.448-3.113
		c0.173-1.91,0.275-3.839,0.275-5.793c0-1.048-0.028-2.091-0.08-3.126c-0.002,0-0.004,0-0.008,0
		c-7.767,0.409-14.242-2.681-14.468-6.907c-0.21-3.905,4.972-7.404,11.865-8.249c-0.939-3.12-2.104-6.141-3.491-9.037
		c-6.877,3.03-13.735,2.531-15.484-1.21c-1.598-3.411,1.583-8.344,7.245-11.71c-2.123-2.579-4.453-4.976-6.95-7.189
		c-4.402,5.719-10.341,8.476-13.63,6.178c-3.28-2.292-2.751-8.776,1.065-14.858c-2.648-1.391-5.404-2.603-8.256-3.612
		c-1.937,6.959-6.414,11.752-10.328,10.852c-3.902-0.896-5.839-7.108-4.577-14.177c-2.06-0.202-4.148-0.311-6.26-0.311
		c-1.312,0-2.61,0.052-3.902,0.132c0.786,7.146-1.569,13.225-5.521,13.855c-3.894,0.621-7.952-4.254-9.485-11.115
		c-2.856,0.891-5.623,1.984-8.288,3.254c3.213,6.214,3.243,12.525-0.12,14.551c-3.312,1.993-8.745-0.855-12.717-6.418
		c-2.508,2.047-4.856,4.28-7.023,6.682c5.53,4.598,8.061,10.604,5.655,13.805c-2.355,3.131-8.599,2.469-14.436-1.338
		c-1.338,2.491-2.513,5.082-3.514,7.757c7.109,2.126,11.945,6.866,10.89,10.822c-1.039,3.893-7.388,5.607-14.46,4.048
		c-0.276,2.403-0.434,4.843-0.434,7.322c0,0.996,0.03,1.986,0.075,2.972c7.675-0.917,14.297,1.705,14.815,5.889
		c0.504,4.065-4.93,8.1-12.256,9.226c0.927,3.115,2.08,6.13,3.452,9.025c6.798-3.775,13.972-3.834,16.029-0.135
		c1.982,3.565-1.507,9.308-7.826,13.096c1.951,2.388,4.071,4.63,6.345,6.708c0.081-0.103,0.153-0.207,0.235-0.31
		c4.89-6.048,11.522-8.793,14.814-6.133c3.225,2.604,2.055,9.403-2.561,15.352c2.574,1.4,5.26,2.62,8.034,3.659
		c0.011-0.039,0.02-0.077,0.032-0.116c2.268-7.44,7.389-12.471,11.438-11.235c3.918,1.191,5.392,7.786,3.45,14.931
		c2.39,0.272,4.815,0.428,7.279,0.428c1.022,0,2.038-0.03,3.048-0.078c-0.654-7.706,2.202-14.241,6.402-14.612
		c3.982-0.354,7.74,4.938,8.729,12.029c3.199-0.957,6.296-2.148,9.262-3.574c-0.032-0.062-0.067-0.121-0.099-0.183
		c-3.535-6.926-3.345-14.101,0.424-16.023c3.564-1.824,9.039,1.687,12.613,7.903c2.309-1.912,4.483-3.983,6.5-6.2
		C129.573,284.582,127.183,278.033,129.91,274.891z M88.356,288.93c-23.139,0-41.898-18.76-41.898-41.899
		s18.759-41.898,41.898-41.898c23.14,0,41.898,18.759,41.898,41.898S111.496,288.93,88.356,288.93z"/>
	<g>
		<path fill="#E2001A" d="M227.15,294.849h-1.652v11.559h1.581c4.2,0,7.79-1.754,7.79-5.778
			C234.869,296.929,231.674,294.849,227.15,294.849z"/>
		<path fill="#E2001A" d="M256.335,294.849h-1.653v11.559h1.581c4.199,0,7.79-1.754,7.79-5.778
			C264.053,296.929,260.858,294.849,256.335,294.849z"/>
		<polygon fill="#E2001A" points="399.633,296.684 396.725,303.258 402.575,303.258 399.703,296.684 		"/>
		<path fill="#E2001A" d="M470.002,284.723h-318.29c-20.97,29.834-49.758,30.998-49.758,30.998v1.201c0,0,360.335,0,366.302,0
			s6.744-4.111,6.744-4.111s0-14.845,0-21.539S470.002,284.723,470.002,284.723z M181.635,304.107h-3.985v6.848h-7.037v-20.654
			h10.771c5.817,0,9.838,2.054,9.838,6.794C191.221,301.971,187.774,304.107,181.635,304.107z M211.932,294.849h-8.366v3.452h7.935
			v4.545h-7.935v3.562h8.366v4.548H196.53v-20.654h15.402V294.849z M228.443,310.955h-9.981v-20.654h9.981
			c7.539,0,13.75,4.521,13.75,10.328S235.947,310.955,228.443,310.955z M257.627,310.955h-9.981v-20.654h9.981
			c7.54,0,13.75,4.521,13.75,10.328S265.131,310.955,257.627,310.955z M283.865,310.955h-7.035v-20.654h7.035V310.955z
			 M317.684,310.955h-7.036l-12.891-12.654h-0.07v12.654h-7.038v-20.654h7.038l12.889,12.629h0.072v-12.629h7.036V310.955z
			 M348.697,307.585c-2.656,2.821-6.643,4.054-11.165,4.054c-8.509,0-14.433-4.408-14.433-10.9c0-6.713,5.96-11.122,14.683-11.122
			c5.566,0,9.874,1.917,12.209,5.78l-6.679,2.135c-0.969-1.971-3.015-3.285-5.853-3.285c-4.63,0-7.036,3.367-7.036,6.52
			c0,3.203,2.513,6.465,7.145,6.465c3.052,0,5.385-1.206,5.672-3.589h-5.744v-4.218h13.966
			C351.392,302.437,351.104,305.011,348.697,307.585z M381.112,310.955h-7.036v-8.464h-10.162v8.464h-7.035v-20.654h7.035v7.973
			h10.162v-7.973h7.036V310.955z M406.239,310.955l-1.761-3.589h-9.693l-1.867,3.589h-7.467l10.412-20.654h7.684l10.196,20.654
			H406.239z M441.596,301.916c0,2.656-0.143,5.287-2.835,7.285c-2.263,1.699-5.817,2.302-8.976,2.302
			c-3.16,0-6.715-0.603-8.978-2.302c-2.692-1.998-2.835-4.629-2.835-7.285v-11.615h7.037v10.876c0,2.684,0.25,5.614,4.775,5.614
			c4.523,0,4.775-2.931,4.775-5.614v-10.876h7.035V301.916z M464.21,309.559c-2.119,1.369-4.955,1.944-7.684,1.944
			c-3.41,0-6.749-0.876-9.514-2.356l3.015-4.327c1.761,1.179,3.844,2.136,6.247,2.136c1.653,0,3.411-0.63,3.411-2.081
			c0-1.508-2.764-2.028-4.271-2.355c-4.416-0.96-7.324-1.835-7.324-5.835c0-4.19,3.913-6.931,9.334-6.931
			c2.729,0,6.066,0.657,8.473,1.698l-2.802,4.164c-1.291-0.821-2.942-1.369-4.666-1.369c-1.294,0-3.015,0.575-3.015,1.726
			c0,1.205,1.9,1.669,3.122,1.972l1.796,0.411c3.771,0.849,6.677,2.302,6.677,5.642C467.01,306.052,466.363,308.16,464.21,309.559z"
			/>
		<path fill="#E2001A" d="M178.834,294.628h-1.185v5.15h1.185c2.549,0,5.063,0,5.063-2.52
			C183.897,294.655,181.563,294.628,178.834,294.628z"/>
	</g>
	<path fill="#E2001A" d="M468.398,211.327h-45.794v-21.647c0-3.63-2.97-6.6-6.602-6.6h-14.349c-3.629,0-6.599,2.97-6.599,6.6v28.248
		v22.877v28.247c0,3.632,2.97,6.602,6.599,6.602h66.744c3.632,0,6.602-2.97,6.602-6.602v-51.124
		C475,214.296,472.03,211.327,468.398,211.327z M435.026,257.124c-7.531,0-13.634-6.104-13.634-13.635
		c0-7.53,6.103-13.636,13.634-13.636s13.637,6.105,13.637,13.636C448.663,251.021,442.558,257.124,435.026,257.124z"/>
</g>
</svg>
