<?xml version="1.0" encoding="utf-8"?>
<!-- Generator: Adobe Illustrator 16.0.0, SVG Export Plug-In . SVG Version: 6.00 Build 0)  -->
<!DOCTYPE svg PUBLIC "-//W3C//DTD SVG 1.1//EN" "http://www.w3.org/Graphics/SVG/1.1/DTD/svg11.dtd">
<svg version="1.1" xmlns="http://www.w3.org/2000/svg" xmlns:xlink="http://www.w3.org/1999/xlink" x="0px" y="0px" width="500px"
	 height="500px" viewBox="0 0 500 500" enable-background="new 0 0 500 500" xml:space="preserve">
<g id="Calque_2">
	<g>
		<polygon fill="#1D2D28" points="112.329,218.131 65.944,218.131 71.742,205.375 118.127,205.375 		"/>
		<polygon fill="#1D2D28" points="103.705,237.845 57.319,237.845 63.118,225.089 109.502,225.089 		"/>
		<polygon fill="#1D2D28" points="95.08,257.558 48.695,257.558 54.493,244.803 100.878,244.803 		"/>
		<polygon fill="#1D2D28" points="86.455,277.272 40.07,277.272 45.868,264.516 92.253,264.516 		"/>
		<polygon fill="#1D2D28" points="469.202,218.131 422.817,218.131 428.615,205.375 475,205.375 		"/>
		<path fill="#1D2D28" d="M208.481,190.783c-21.163,0-37.012,8.601-37.012,8.601l3.092-7.344h-36.625l-43.292,97.602h36.915
			l13.046-29.57c0,0,12.852,3.188,23.289,3.188s54.792-1.547,72.283-31.213C257.667,202.38,229.645,190.783,208.481,190.783z
			 M205.679,223.253c-5.798,17.395-25.706,24.738-37.398,24.738s-16.428-4.059-16.428-4.059s3.866-8.987,5.508-12.466
			c1.643-3.479,5.798-14.495,18.94-20.389C189.444,205.182,211.477,205.859,205.679,223.253z"/>
		<path fill="#1D2D28" d="M278.444,179.67h36.143l-5.702,12.756h26.575l-6.861,15.311h-26.672c0,0-10.146,21.701-11.982,26.146
			s-7.152,14.785,18.167,11.886l-7.15,15.945c0,0-7.249,1.354-20.681,1.354s-38.557-1.354-28.507-23.87
			c10.051-22.516,14.012-30.923,14.012-30.923H249.86l6.937-15.559h16.042L278.444,179.67z"/>
		<path fill="#1D2D28" d="M420.113,193.489l-6.668,15.269c0,0-7.731-2.707-20.487-2.707s-20.198,1.352-20.971,6.184
			c-0.771,4.832,10.727,6.669,19.328,9.133c8.601,2.463,24.642,8.746,20.873,20.051c-3.769,11.306-22.227,21.647-57.691,21.647
			c-28.7,0-35.755-3.962-35.755-3.962l6.86-15.462c0,0,15.558,5.412,31.311,5.122c15.752-0.29,16.814-4.64,17.008-7.151
			c0.193-2.513-2.126-5.218-16.911-9.083c-14.785-3.866-23.289-10.727-22.71-17.202c0.58-6.474,4.93-14.688,27.929-21.066
			S420.113,193.489,420.113,193.489z"/>
		<path fill="#1D2D28" d="M436.862,244.803c-0.003,0.012-0.005,0.025-0.008,0.039c-1.168,4.517-3.893,8.902-8.255,12.717h23.354
			l5.798-12.755H436.862z"/>
		<path fill="#1D2D28" d="M425.84,225.089c4.971,2.888,9.819,7.075,11.157,12.756h23.579l5.799-12.756H425.84z"/>
		<path fill="#1D2D28" d="M417.139,264.516c-4.646,1.96-10.108,3.499-16.428,4.465l-3.769,8.291h46.385l5.798-12.756H417.139z"/>
		<g>
			<path fill="#1D2D28" d="M208.441,272.617l-5.174,11.052c-1.51,3.285-5.704,5.974-9.32,5.974h-15.91
				c-3.616,0-5.339-2.688-3.829-5.974l5.173-11.052h5.231l-4.639,10.937c0,0-1.075,1.728,0.628,1.728s15.8-0.036,15.8-0.036
				s1.232,0.036,1.848-1.45c0.616-1.485,4.929-11.178,4.929-11.178H208.441z"/>
		</g>
		<g>
			<path fill="#1D2D28" d="M265.956,289.642h-15.909c-3.616,0-5.339-2.688-3.829-5.974l5.172-11.052h5.231l-4.638,10.937
				c0,0-1.076,1.728,0.627,1.728s15.8-0.036,15.8-0.036L265.956,289.642z"/>
		</g>
		<g>
			<path fill="#1D2D28" d="M290.959,289.642H275.05c-3.616,0-5.34-2.688-3.829-5.974l5.173-11.052h5.232l-4.639,10.937
				c0,0-1.076,1.728,0.627,1.728c1.704,0,15.801-0.036,15.801-0.036L290.959,289.642z"/>
		</g>
		<path fill="#1D2D28" d="M170.21,272.441H154.3c-3.616,0-7.829,2.68-9.363,5.953l-2.479,5.294c-1.533,3.274,0.17,5.954,3.787,5.954
			h15.91c3.616,0,7.829-2.68,9.363-5.954l2.479-5.294C175.53,275.121,173.826,272.441,170.21,272.441z M168.579,278.768
			l-2.331,5.125c-0.375,0.823-1.42,1.496-2.324,1.496h-15.375c-0.904,0-1.337-0.673-0.963-1.496l2.331-5.125
			c0.374-0.823,1.42-1.496,2.324-1.496h15.375C168.52,277.272,168.954,277.945,168.579,278.768z"/>
		<path fill="#1D2D28" d="M350.812,289.642l4.747-10.667l-14.741,0.108l-1.783,4.349l9.204-0.036c0,0-0.29,0.616-0.87,1.413
			c-0.579,0.798-2.158,0.58-2.158,0.58h-15.376c-0.903,0-1.336-0.673-0.963-1.496l2.331-5.125c0.375-0.823,1.42-1.496,2.324-1.496
			h22.757l2.171-4.831h-22.868c-3.616,0-7.829,2.68-9.362,5.953l-2.48,5.294c-1.533,3.274,0.17,5.954,3.787,5.954h15.91H350.812z"/>
		<path fill="#1D2D28" d="M365.417,277.272h22.757l2.171-4.831h-22.868c-3.616,0-7.829,2.68-9.362,5.953l-2.48,5.294
			c-1.533,3.274,0.17,5.954,3.787,5.954h15.91h7.142l1.691-4.253h-22.439c-0.904,0-1.337-0.673-0.963-1.496l0.198-0.436h24.073
			l2.078-4.493h-24.108l0.09-0.196C363.466,277.945,364.512,277.272,365.417,277.272z"/>
		<polygon fill="#1D2D28" points="241.476,289.642 235.719,289.642 243.221,272.617 248.978,272.617 		"/>
		<polygon fill="#1D2D28" points="240.467,272.441 211.332,272.441 209.411,277.018 221.497,277.018 215.935,289.642 
			221.11,289.642 226.672,277.018 238.546,277.018 		"/>
		<path fill="#1D2D28" d="M309.922,274.107c0,0-1.28-1.666-3.769-1.666s-5.628,1.231-6.86,4.13
			c-1.232,2.899-5.774,13.071-5.774,13.071h0.218h4.855l2.054-4.276h10.074l3.334,4.276h8.166L309.922,274.107z M302.265,281.693
			l1.98-4.662l3.624,4.662H302.265z"/>
		<path fill="#949597" d="M200.604,298.145h-14.439c-0.904,0-1.977,0.66-2.384,1.468l-2.796,5.545c-0.407,0.807,0,1.467,0.904,1.467
			h14.44c0.904,0,1.977-0.66,2.384-1.467l2.796-5.545C201.916,298.805,201.509,298.145,200.604,298.145z M195.505,305.054h-11.134
			l2.686-5.411h11.134L195.505,305.054z"/>
		<path fill="#949597" d="M149.69,303.213l-0.881,1.841h-10.734l2.589-5.411h10.734l-0.43,0.898l3.25-0.15l0.378-0.778
			c0.392-0.808,0-1.468-0.872-1.468h-13.92c-0.872,0-1.905,0.66-2.298,1.468l-2.695,5.545c-0.393,0.807,0,1.467,0.872,1.467h13.92
			c0.872,0,1.905-0.66,2.298-1.467l1.694-3.485l-8.892,0.071l-0.606,1.45L149.69,303.213z"/>
		<path fill="#949597" d="M222.356,298.141l-3.239,6.913h-10.207l3.291-6.878l-3.002-0.031l-3.392,7.013
			c-0.373,0.807,0,1.467,0.828,1.467h13.237c0.829,0,1.813-0.66,2.186-1.467l3.312-6.995L222.356,298.141z"/>
		<path fill="#949597" d="M253.633,298.17l-3.889,8.407h14.857l0.701-1.595c0,0-11.519,0-11.464,0s0.997-2.108,0.997-2.108h6.613
			l0.598-1.432h-6.613l0.942-1.885h11.306l0.707-1.388H253.633z"/>
		<path fill="#949597" d="M176.857,300.199c0.894-1.957-1.474-1.981-1.474-1.981h-13.143l-3.925,8.407h3.406l1.438-3.212h3.237
			l4.18,3.212h4.856l-4.953-3.261c0,0,0.193,0,2.367,0S175.963,302.155,176.857,300.199z M163.805,301.932l1.105-2.374h8.045
			c0,0,0.997,0.109,0.543,0.997s-0.634,1.377-1.866,1.377S163.805,301.932,163.805,301.932z"/>
		<path fill="#949597" d="M245.42,298.141h-12.49l-3.914,8.483h3.261l1.498-3.333h8.987c2.271,0,3.696-0.677,4.638-2.948
			C248.343,298.072,245.42,298.141,245.42,298.141z M244.043,300.682c-0.604,1.136-0.846,1.231-1.885,1.231
			c-1.039,0-7.731,0-7.731,0l1.063-2.319h8.045C243.536,299.594,244.647,299.546,244.043,300.682z"/>
		<path fill="#949597" d="M135.135,311.673h9.374l-0.362,0.967l3.117-0.362c0,0,1.184-2.078-2.368-2.078c-3.551,0-8.987,0-8.987,0
			s-2.851-0.121-3.648,1.595c-0.797,1.716-1.958,3.383,1.135,3.383c3.092,0,9.76,0,9.76,0l-0.87,1.98h-10.195l0.507-1.038
			l-3.02,0.313c0,0-1.933,2.198,1.208,2.198s11.451,0,11.451,0s2.126,0.049,2.923-1.474c0.797-1.521,2.271-3.624-1.377-3.624
			c-3.648,0-9.542,0-9.542,0L135.135,311.673z"/>
		<path fill="#949597" d="M164.029,310.198h-3.286l-11.958,8.434h3.479l2.343-1.764h9.108l0.894,1.764h3.841L164.029,310.198z
			 M156.926,315.25l4.566-3.286l1.546,3.286H156.926z"/>
		<polygon fill="#949597" points="173.064,318.631 176.881,310.198 179.635,310.198 184.008,315.346 192.995,310.297 
			195.725,310.297 191.932,318.631 188.792,318.631 191.545,312.737 183.066,317.69 182.414,317.69 178.476,312.689 
			175.818,318.631 		"/>
		<path fill="#A80B17" d="M122.582,314.226c-1.343,3.356-5.4,6.104-9.016,6.104H29.419c-3.616,0-5.371-2.702-3.899-6.005
			l5.307-11.91c1.472-3.304,5.634-6.006,9.25-6.006h83.056c3.616,0,5.476,2.748,4.133,6.104L122.582,314.226z"/>
		<path fill="#E2001A" d="M31.395,314.761l3.736-8.492c0,0,0.76-4.062,8.297-4.062c7.538,0,77.667,0,77.667,0l-3.547,8.211
			c0,0-2.04,4.113-7.759,4.113C104.069,314.532,31.395,314.761,31.395,314.761z"/>
	</g>
</g>
<g id="Calque_3">
</g>
</svg>
