<?xml version="1.0" encoding="utf-8"?>
<!-- Generator: Adobe Illustrator 16.0.0, SVG Export Plug-In . SVG Version: 6.00 Build 0)  -->
<!DOCTYPE svg PUBLIC "-//W3C//DTD SVG 1.1//EN" "http://www.w3.org/Graphics/SVG/1.1/DTD/svg11.dtd">
<svg version="1.1" id="Calque_1" xmlns="http://www.w3.org/2000/svg" xmlns:xlink="http://www.w3.org/1999/xlink" x="0px" y="0px"
	 width="500px" height="500px" viewBox="0 0 500 500" enable-background="new 0 0 500 500" xml:space="preserve">
<g>
	<linearGradient id="SVGID_1_" gradientUnits="userSpaceOnUse" x1="20.7344" y1="250" x2="479.2656" y2="250">
		<stop  offset="0" style="stop-color:#C6C7C8"/>
		<stop  offset="0.5019" style="stop-color:#3E3D40"/>
		<stop  offset="0.5215" style="stop-color:#3E3D40"/>
		<stop  offset="0.5247" style="stop-color:#3E3D40"/>
		<stop  offset="1" style="stop-color:#C6C7C8"/>
	</linearGradient>
	<path stroke="url(#SVGID_1_)" stroke-width="8.5315" stroke-miterlimit="10" d="M89.216,134.005
		c-35.412,0-64.216,28.807-64.216,64.22v103.551c0,35.386,28.804,64.22,64.216,64.22H410.81c35.416,0,64.19-28.834,64.19-64.22
		V198.225c0-35.413-28.774-64.22-64.19-64.22H89.216"/>
	<linearGradient id="SVGID_2_" gradientUnits="userSpaceOnUse" x1="249.4146" y1="285.9053" x2="249.4146" y2="144.2749">
		<stop  offset="0" style="stop-color:#C6C7C8"/>
		<stop  offset="0.0047" style="stop-color:#C3C5C6"/>
		<stop  offset="0.0785" style="stop-color:#A2A3A5"/>
		<stop  offset="0.1572" style="stop-color:#848587"/>
		<stop  offset="0.2433" style="stop-color:#68696B"/>
		<stop  offset="0.337" style="stop-color:#505052"/>
		<stop  offset="0.4413" style="stop-color:#3C3B3E"/>
		<stop  offset="0.5622" style="stop-color:#222223"/>
		<stop  offset="0.7144" style="stop-color:#0A090A"/>
		<stop  offset="1" style="stop-color:#000000"/>
	</linearGradient>
	<path fill="url(#SVGID_2_)" d="M88.628,144.274c-29.49,0-53.512,23.758-53.938,53.148v88.482
		c19.212-1.513,86.231,3.187,208.605-27.327c100.383-25.443,182.492-4.219,220.844,9.578v-69.93
		c0-29.76-24.188-53.952-53.915-53.952"/>
	<g>
		<defs>
			<path id="SVGID_3_" d="M393.261,196.238l0.053-0.08c-1.399-0.453-2.572-0.926-4.726-1.766"/>
		</defs>
		<clipPath id="SVGID_4_">
			<use xlink:href="#SVGID_3_"  overflow="visible"/>
		</clipPath>
		<polyline clip-path="url(#SVGID_4_)" fill="#96989B" points="388.521,194.599 393.307,196.165 393.267,196.218 388.588,194.392 		
			"/>
		<polyline clip-path="url(#SVGID_4_)" fill="#989A9D" points="388.588,194.392 393.261,196.218 393.261,196.222 388.588,194.389 		
			"/>
		<polyline clip-path="url(#SVGID_4_)" fill="#9A9D9F" points="388.588,194.389 393.261,196.222 393.254,196.225 		"/>
		<polyline clip-path="url(#SVGID_4_)" fill="#9D9FA1" points="388.588,194.389 393.254,196.228 393.247,196.235 		"/>
		<polyline clip-path="url(#SVGID_4_)" fill="#9FA1A4" points="388.588,194.385 393.247,196.231 393.244,196.235 		"/>
		<line clip-path="url(#SVGID_4_)" fill="#A1A4A6" x1="388.588" y1="194.385" x2="393.244" y2="196.235"/>
	</g>
	<g>
		<defs>
			<path id="SVGID_5_" d="M397.319,192.822c2.073,0.03,3.213,0.447,3.976,3.029c0.084,0.333,0.137,0.78,0.137,1.173
				c0,1.959-1.206,3.583-4.112,3.806l0.333,6.492c6.636-0.36,10.305-5.119,10.305-10.297c0-0.953-0.146-1.933-0.396-2.859
				c-1.649-6.186-5.902-7.865-10.241-7.865"/>
		</defs>
		<clipPath id="SVGID_6_">
			<use xlink:href="#SVGID_5_"  overflow="visible"/>
		</clipPath>
		<polyline clip-path="url(#SVGID_6_)" fill="#CCCECF" points="397.319,192.809 397.319,186.307 397.687,186.313 397.493,192.813 		
			"/>
		<polyline clip-path="url(#SVGID_6_)" fill="#CFD0D2" points="397.493,192.815 397.687,186.313 398.329,186.34 397.786,192.829 		
			"/>
		<path clip-path="url(#SVGID_6_)" fill="#D1D3D4" d="M397.786,192.829l0.543-6.489c3.973,0.26,7.719,2.113,9.248,7.832
			c0.24,0.92,0.367,1.903,0.367,2.853c0,0.477-0.027,0.953-0.094,1.419l-6.438-0.886l0.033-0.533c0-0.403-0.054-0.827-0.15-1.187
			C400.586,193.482,399.565,192.936,397.786,192.829"/>
		<polyline clip-path="url(#SVGID_6_)" fill="#CFD0D2" points="401.405,197.558 407.851,198.444 407.784,198.877 401.379,197.718 		
			"/>
		<polyline clip-path="url(#SVGID_6_)" fill="#CCCECF" points="401.379,197.718 407.784,198.881 407.711,199.271 401.352,197.865 		
			"/>
		<polyline clip-path="url(#SVGID_6_)" fill="#CACBCC" points="401.355,197.865 407.711,199.271 407.624,199.641 401.325,198.004 		
			"/>
		<polyline clip-path="url(#SVGID_6_)" fill="#C7C9CB" points="401.325,198.004 407.624,199.644 407.524,200.014 401.289,198.138 		
			"/>
		<polyline clip-path="url(#SVGID_6_)" fill="#C5C6C8" points="401.289,198.138 407.524,200.011 407.414,200.364 401.252,198.271 		
			"/>
		<polyline clip-path="url(#SVGID_6_)" fill="#C2C4C6" points="401.252,198.271 407.414,200.367 407.291,200.717 401.205,198.398 		
			"/>
		<polyline clip-path="url(#SVGID_6_)" fill="#C0C1C4" points="401.209,198.398 407.291,200.717 407.157,201.061 401.159,198.521 		
			"/>
		<polyline clip-path="url(#SVGID_6_)" fill="#BDBFC1" points="401.159,198.521 407.157,201.061 407.011,201.397 401.105,198.645 		
			"/>
		<polyline clip-path="url(#SVGID_6_)" fill="#BBBCBE" points="401.105,198.645 407.011,201.397 406.851,201.734 401.046,198.768 		
			"/>
		<polyline clip-path="url(#SVGID_6_)" fill="#B8B9BC" points="401.049,198.768 406.848,201.734 406.678,202.061 400.979,198.888 		
			"/>
		<polyline clip-path="url(#SVGID_6_)" fill="#B6B7B9" points="400.979,198.884 406.678,202.061 406.484,202.39 400.912,199.004 		
			"/>
		<polyline clip-path="url(#SVGID_6_)" fill="#B3B4B7" points="400.915,199.004 406.491,202.39 406.284,202.71 400.839,199.124 		
			"/>
		<polyline clip-path="url(#SVGID_6_)" fill="#B1B2B4" points="400.839,199.124 406.288,202.71 406.064,203.04 400.756,199.237 		
			"/>
		<polyline clip-path="url(#SVGID_6_)" fill="#ADB0B2" points="400.756,199.237 406.064,203.04 405.817,203.356 400.665,199.354 		
			"/>
		<polyline clip-path="url(#SVGID_6_)" fill="#ABADB0" points="400.665,199.354 405.824,203.356 405.555,203.69 400.565,199.474 		
			"/>
		<polyline clip-path="url(#SVGID_6_)" fill="#A9ABAD" points="400.565,199.474 405.555,203.69 405.265,204.017 400.455,199.594 		
			"/>
		<polyline clip-path="url(#SVGID_6_)" fill="#A6A8AB" points="400.455,199.591 405.258,204.013 404.932,204.35 400.325,199.711 		
			"/>
		<polyline clip-path="url(#SVGID_6_)" fill="#A4A6A9" points="400.325,199.711 404.932,204.353 404.552,204.696 400.183,199.837 		
			"/>
		<polyline clip-path="url(#SVGID_6_)" fill="#A1A4A6" points="400.183,199.837 404.552,204.696 404.135,205.043 400.019,199.964 		
			"/>
		<polyline clip-path="url(#SVGID_6_)" fill="#9FA1A4" points="400.019,199.964 404.138,205.043 403.621,205.419 399.813,200.098 		
			"/>
		<polyline clip-path="url(#SVGID_6_)" fill="#9D9FA1" points="399.819,200.094 403.618,205.419 402.995,205.81 399.565,200.237 		
			"/>
		<polyline clip-path="url(#SVGID_6_)" fill="#9A9D9F" points="399.565,200.237 402.995,205.81 402.172,206.236 399.232,200.397 		
			"/>
		<path clip-path="url(#SVGID_6_)" fill="#989A9D" d="M399.239,200.397l2.93,5.839c-0.407,0.193-0.837,0.36-1.287,0.503
			l-2.176-6.155L399.239,200.397"/>
		<path clip-path="url(#SVGID_6_)" fill="#96989B" d="M398.706,200.584l2.18,6.155c-0.98,0.313-2.06,0.51-3.227,0.57l-0.326-6.492
			C397.84,200.781,398.3,200.704,398.706,200.584"/>
	</g>
	<polyline fill="#96989B" points="397.329,200.817 397.659,207.309 397.013,207.309 397.013,200.811 	"/>
	<path fill="#D1D3D4" d="M397.319,192.809c2.073,0.05,3.206,0.47,3.976,3.029c0.091,0.353,0.15,0.78,0.15,1.18
		c-0.026,1.966-1.22,3.592-4.116,3.799l-0.316-0.007c-2.489,0.06-3.593-2.313-3.886-4.393l0.12-0.183
		C393.954,193.579,395.38,192.839,397.319,192.809"/>
	<g>
		<defs>
			<path id="SVGID_7_" d="M386.655,197.305l6.465-0.9l0.193-0.247c-1.453-0.48-2.6-0.926-4.726-1.766l-1.406-0.563
				C387.155,193.885,386.655,195.145,386.655,197.305"/>
		</defs>
		<clipPath id="SVGID_8_">
			<use xlink:href="#SVGID_7_"  overflow="visible"/>
		</clipPath>
		<path clip-path="url(#SVGID_8_)" fill="#96989B" d="M393.12,196.418l-6.455,0.887c0-2.153,0.497-3.406,0.523-3.473l6.056,2.406
			L393.12,196.418"/>
	</g>
	<g>
		<defs>
			<path id="SVGID_9_" d="M387.182,193.829l6.079,2.41c0.699-2.66,2.126-3.386,4.059-3.416V186.3
				C393.034,186.3,388.498,188.453,387.182,193.829"/>
		</defs>
		<clipPath id="SVGID_10_">
			<use xlink:href="#SVGID_9_"  overflow="visible"/>
		</clipPath>
		<path clip-path="url(#SVGID_10_)" fill="#96989B" d="M393.247,196.238l-6.059-2.406c0.229-0.94,0.56-1.786,0.973-2.533l5.52,3.712
			C393.517,195.365,393.37,195.771,393.247,196.238"/>
		<path clip-path="url(#SVGID_10_)" fill="#989A9D" d="M393.681,195.012l-5.52-3.712c0.193-0.36,0.414-0.7,0.646-1.023l5.129,4.252
			L393.681,195.012"/>
		<polyline clip-path="url(#SVGID_10_)" fill="#9A9D9F" points="393.94,194.528 388.808,190.273 389.321,189.633 394.141,194.235 		
			"/>
		<polyline clip-path="url(#SVGID_10_)" fill="#9D9FA1" points="394.134,194.235 389.328,189.633 389.788,189.146 394.313,194.019 
					"/>
		<polyline clip-path="url(#SVGID_10_)" fill="#9FA1A4" points="394.313,194.019 389.784,189.146 390.215,188.753 394.474,193.845 
					"/>
		<polyline clip-path="url(#SVGID_10_)" fill="#A1A4A6" points="394.474,193.842 390.215,188.753 390.621,188.423 394.627,193.695 
					"/>
		<polyline clip-path="url(#SVGID_10_)" fill="#A4A6A9" points="394.627,193.695 390.621,188.423 391.008,188.144 394.773,193.572 
					"/>
		<polyline clip-path="url(#SVGID_10_)" fill="#A6A8AB" points="394.773,193.579 391.008,188.144 391.395,187.894 394.917,193.472 
					"/>
		<polyline clip-path="url(#SVGID_10_)" fill="#A9ABAD" points="394.917,193.465 391.395,187.894 391.774,187.673 395.06,193.372 		
			"/>
		<polyline clip-path="url(#SVGID_10_)" fill="#ABADB0" points="395.06,193.372 391.774,187.673 392.147,187.474 395.203,193.292 		
			"/>
		<polyline clip-path="url(#SVGID_10_)" fill="#ADB0B2" points="395.203,193.292 392.147,187.474 392.527,187.293 395.347,193.219 
					"/>
		<polyline clip-path="url(#SVGID_10_)" fill="#B1B2B4" points="395.343,193.219 392.527,187.297 392.907,187.133 395.49,193.152 		
			"/>
		<polyline clip-path="url(#SVGID_10_)" fill="#B3B4B7" points="395.49,193.152 392.907,187.133 393.294,186.987 395.64,193.089 		
			"/>
		<polyline clip-path="url(#SVGID_10_)" fill="#B6B7B9" points="395.64,193.089 393.294,186.987 393.687,186.854 395.793,193.032 		
			"/>
		<polyline clip-path="url(#SVGID_10_)" fill="#B8B9BC" points="395.793,193.032 393.687,186.854 394.087,186.733 395.95,192.985 		
			"/>
		<polyline clip-path="url(#SVGID_10_)" fill="#BBBCBE" points="395.95,192.985 394.084,186.733 394.493,186.634 396.12,192.946 		
			"/>
		<polyline clip-path="url(#SVGID_10_)" fill="#BDBFC1" points="396.12,192.946 394.493,186.634 394.913,186.543 396.286,192.906 		
			"/>
		<polyline clip-path="url(#SVGID_10_)" fill="#C0C1C4" points="396.286,192.906 394.917,186.54 395.35,186.467 396.47,192.879 		
			"/>
		<polyline clip-path="url(#SVGID_10_)" fill="#C2C4C6" points="396.47,192.879 395.35,186.467 395.804,186.404 396.659,192.853 		
			"/>
		<polyline clip-path="url(#SVGID_10_)" fill="#C5C6C8" points="396.656,192.853 395.8,186.404 396.267,186.354 396.859,192.832 		
			"/>
		<polyline clip-path="url(#SVGID_10_)" fill="#C7C9CB" points="396.859,192.832 396.267,186.354 396.753,186.327 397.066,192.819 
					"/>
		<polyline clip-path="url(#SVGID_10_)" fill="#CACBCC" points="397.063,192.819 396.75,186.327 397.26,186.313 397.286,192.813 		
			"/>
		<polyline clip-path="url(#SVGID_10_)" fill="#CCCECF" points="397.293,192.809 397.26,186.307 397.323,186.307 397.323,192.809 		
			"/>
	</g>
	<g>
		<defs>
			<path id="SVGID_11_" d="M386.655,197.305c0.526,3.806,3.053,10.018,10.351,10.018v-6.521c-2.489,0.057-3.579-2.296-3.886-4.396"
				/>
		</defs>
		<clipPath id="SVGID_12_">
			<use xlink:href="#SVGID_11_"  overflow="visible"/>
		</clipPath>
		<path clip-path="url(#SVGID_12_)" fill="#96989B" d="M397.013,200.807v6.502c-7.305,0-9.824-6.199-10.344-10.011l6.451-0.88
			C393.42,198.498,394.523,200.874,397.013,200.807"/>
	</g>
	<path fill="none" stroke="#000000" stroke-width="1.6517" d="M397.3,204.99c4.512,0,8.145-3.659,8.145-8.132
		c0-4.525-3.633-8.175-8.145-8.175c-4.506,0-8.152,3.649-8.152,8.175C389.147,201.331,392.794,204.99,397.3,204.99z"/>
	<g>
		<defs>
			<path id="SVGID_13_" d="M85.354,222.886h0.307c-0.894-0.913-2.06-2.103-2.979-3.056C83.697,220.886,84.4,221.726,85.354,222.886
				 M82.501,219.646c0.053,0.06,0.12,0.12,0.18,0.184C82.621,219.767,82.561,219.707,82.501,219.646z"/>
		</defs>
		<clipPath id="SVGID_14_">
			<use xlink:href="#SVGID_13_"  overflow="visible"/>
		</clipPath>
		<polyline clip-path="url(#SVGID_14_)" fill="#96989B" points="82.487,219.633 85.656,222.899 85.36,222.899 82.761,219.633 		"/>
	</g>
	<g>
		<defs>
			<path id="SVGID_15_" d="M80.621,278.961c1.767-1.733,3.272-3.047,5.232-4.563v-0.67
				C84.287,275.295,82.188,277.367,80.621,278.961"/>
		</defs>
		<clipPath id="SVGID_16_">
			<use xlink:href="#SVGID_15_"  overflow="visible"/>
		</clipPath>
		<polyline clip-path="url(#SVGID_16_)" fill="#D1D3D4" points="80.635,278.947 85.86,273.715 85.86,273.748 		"/>
		<polyline clip-path="url(#SVGID_16_)" fill="#CFD0D2" points="80.635,278.947 85.86,273.748 85.86,273.775 		"/>
		<polyline clip-path="url(#SVGID_16_)" fill="#CCCECF" points="80.635,278.947 85.86,273.781 85.86,273.809 		"/>
		<polyline clip-path="url(#SVGID_16_)" fill="#CACBCC" points="80.635,278.943 85.86,273.809 85.86,273.835 		"/>
		<polyline clip-path="url(#SVGID_16_)" fill="#C7C9CB" points="80.635,278.943 85.86,273.838 85.86,273.865 80.635,278.94 		"/>
		<polyline clip-path="url(#SVGID_16_)" fill="#C5C6C8" points="80.635,278.94 85.86,273.865 85.86,273.895 80.635,278.938 		"/>
		<polyline clip-path="url(#SVGID_16_)" fill="#C2C4C6" points="80.635,278.938 85.86,273.895 85.86,273.922 80.635,278.934 		"/>
		<polyline clip-path="url(#SVGID_16_)" fill="#C0C1C4" points="80.635,278.934 85.86,273.922 85.86,273.941 80.635,278.927 		"/>
		<polyline clip-path="url(#SVGID_16_)" fill="#BDBFC1" points="80.635,278.927 85.86,273.941 85.86,273.968 80.635,278.921 		"/>
		<polyline clip-path="url(#SVGID_16_)" fill="#BBBCBE" points="80.635,278.921 85.86,273.968 85.86,273.995 80.635,278.914 		"/>
		<polyline clip-path="url(#SVGID_16_)" fill="#B8B9BC" points="80.635,278.914 85.86,273.995 85.86,274.015 80.635,278.914 		"/>
		<polyline clip-path="url(#SVGID_16_)" fill="#B6B7B9" points="80.635,278.907 85.86,274.015 85.86,274.041 80.635,278.9 		"/>
		<polyline clip-path="url(#SVGID_16_)" fill="#B3B4B7" points="80.635,278.9 85.86,274.041 85.86,274.062 80.635,278.894 		"/>
		<polyline clip-path="url(#SVGID_16_)" fill="#B1B2B4" points="80.635,278.894 85.86,274.062 85.86,274.081 80.635,278.887 		"/>
		<polyline clip-path="url(#SVGID_16_)" fill="#ADB0B2" points="80.635,278.887 85.86,274.081 85.86,274.104 80.635,278.881 		"/>
		<polyline clip-path="url(#SVGID_16_)" fill="#ABADB0" points="80.635,278.881 85.86,274.104 85.86,274.121 80.635,278.867 		"/>
		<polyline clip-path="url(#SVGID_16_)" fill="#A9ABAD" points="80.635,278.867 85.86,274.121 85.86,274.142 80.635,278.857 		"/>
		<polyline clip-path="url(#SVGID_16_)" fill="#A6A8AB" points="80.635,278.857 85.86,274.142 85.86,274.161 80.635,278.848 		"/>
		<polyline clip-path="url(#SVGID_16_)" fill="#A4A6A9" points="80.635,278.848 85.86,274.161 85.86,274.182 80.635,278.837 		"/>
		<polyline clip-path="url(#SVGID_16_)" fill="#A1A4A6" points="80.635,278.837 85.86,274.178 85.86,274.195 80.635,278.827 		"/>
		<polyline clip-path="url(#SVGID_16_)" fill="#9FA1A4" points="80.635,278.824 85.86,274.195 85.86,274.208 80.635,278.811 		"/>
		<polyline clip-path="url(#SVGID_16_)" fill="#9D9FA1" points="80.635,278.813 85.86,274.215 85.86,274.229 80.635,278.801 		"/>
		<polyline clip-path="url(#SVGID_16_)" fill="#9A9D9F" points="80.635,278.801 85.86,274.229 85.86,274.245 80.635,278.787 		"/>
		<polyline clip-path="url(#SVGID_16_)" fill="#989A9D" points="80.635,278.787 85.86,274.245 85.86,274.258 80.635,278.773 		"/>
		<polyline clip-path="url(#SVGID_16_)" fill="#96989B" points="80.635,278.773 85.86,274.258 85.86,274.398 80.635,278.36 		"/>
	</g>
	<g>
		<defs>
			<path id="SVGID_17_" d="M197.189,192.769c0,0,0,0,0-0.003C197.189,192.769,197.189,192.769,197.189,192.769 M196.573,192.516
				c0.413,0.153,0.609,0.237,0.616,0.25c2.439-1.593,4.343-2.543,5.905-3.272L196.573,192.516z"/>
		</defs>
		<clipPath id="SVGID_18_">
			<use xlink:href="#SVGID_17_"  overflow="visible"/>
		</clipPath>
		<polyline clip-path="url(#SVGID_18_)" fill="#9A9D9F" points="202.512,189.267 197.203,192.782 196.986,192.682 202.988,189.466 
					"/>
		<polyline clip-path="url(#SVGID_18_)" fill="#989A9D" points="202.984,189.459 196.982,192.682 196.803,192.605 203.055,189.493 
					"/>
		<polyline clip-path="url(#SVGID_18_)" fill="#96989B" points="203.055,189.493 196.803,192.605 196.569,192.506 203.085,189.503 
					"/>
	</g>
	<g>
		<defs>
			<path id="SVGID_19_" d="M80.258,217.32l5.402,5.565c0.026-1.34,0.087-1.953,0.087-1.953
				C83.28,219.836,81.827,218.913,80.258,217.32"/>
		</defs>
		<clipPath id="SVGID_20_">
			<use xlink:href="#SVGID_19_"  overflow="visible"/>
		</clipPath>
		<polyline clip-path="url(#SVGID_20_)" fill="#96989B" points="80.258,218.543 85.753,220.943 85.727,221.236 80.258,217.767 		"/>
		<polyline clip-path="url(#SVGID_20_)" fill="#989A9D" points="80.258,217.773 85.727,221.239 85.727,221.25 80.258,217.76 		"/>
		<polyline clip-path="url(#SVGID_20_)" fill="#9A9D9F" points="80.258,217.76 85.727,221.246 85.72,221.26 80.258,217.747 		"/>
		<polyline clip-path="url(#SVGID_20_)" fill="#9D9FA1" points="80.258,217.747 85.72,221.263 85.72,221.273 80.258,217.74 		"/>
		<polyline clip-path="url(#SVGID_20_)" fill="#9FA1A4" points="80.258,217.733 85.72,221.273 85.72,221.286 80.258,217.724 		"/>
		<polyline clip-path="url(#SVGID_20_)" fill="#A1A4A6" points="80.258,217.727 85.72,221.286 85.72,221.299 80.258,217.717 		"/>
		<polyline clip-path="url(#SVGID_20_)" fill="#A4A6A9" points="80.258,217.714 85.72,221.299 85.72,221.313 80.258,217.704 		"/>
		<polyline clip-path="url(#SVGID_20_)" fill="#A6A8AB" points="80.258,217.704 85.72,221.319 85.72,221.326 80.258,217.693 		"/>
		<polyline clip-path="url(#SVGID_20_)" fill="#A9ABAD" points="80.258,217.693 85.72,221.326 85.72,221.346 80.258,217.684 		"/>
		<polyline clip-path="url(#SVGID_20_)" fill="#ABADB0" points="80.258,217.68 85.72,221.343 85.72,221.356 80.258,217.67 		"/>
		<polyline clip-path="url(#SVGID_20_)" fill="#ADB0B2" points="80.258,217.674 85.72,221.359 85.713,221.376 80.258,217.664 		"/>
		<polyline clip-path="url(#SVGID_20_)" fill="#B1B2B4" points="80.258,217.66 85.713,221.373 85.713,221.386 80.258,217.647 		"/>
		<polyline clip-path="url(#SVGID_20_)" fill="#B3B4B7" points="80.258,217.654 85.713,221.39 85.713,221.406 80.258,217.64 		"/>
		<polyline clip-path="url(#SVGID_20_)" fill="#B6B7B9" points="80.258,217.64 85.713,221.406 85.713,221.419 80.258,217.634 		"/>
		<polyline clip-path="url(#SVGID_20_)" fill="#B8B9BC" points="80.258,217.634 85.713,221.419 85.713,221.439 80.258,217.62 		"/>
		<polyline clip-path="url(#SVGID_20_)" fill="#BBBCBE" points="80.258,217.62 85.713,221.439 85.713,221.453 80.258,217.614 		"/>
		<polyline clip-path="url(#SVGID_20_)" fill="#BDBFC1" points="80.258,217.614 85.713,221.453 85.713,221.466 80.258,217.6 		"/>
		<polyline clip-path="url(#SVGID_20_)" fill="#C0C1C4" points="80.258,217.6 85.713,221.466 85.713,221.479 80.258,217.594 		"/>
		<polyline clip-path="url(#SVGID_20_)" fill="#C2C4C6" points="80.258,217.594 85.713,221.479 85.707,221.503 80.258,217.58 		"/>
		<polyline clip-path="url(#SVGID_20_)" fill="#C5C6C8" points="80.258,217.583 85.707,221.5 85.707,221.516 80.258,217.577 		"/>
		<polyline clip-path="url(#SVGID_20_)" fill="#C7C9CB" points="80.258,217.574 85.707,221.516 85.707,221.533 80.258,217.563 		"/>
		<polyline clip-path="url(#SVGID_20_)" fill="#CACBCC" points="80.258,217.563 85.707,221.536 85.707,221.553 80.258,217.557 		"/>
		<polyline clip-path="url(#SVGID_20_)" fill="#CCCECF" points="80.258,217.557 85.707,221.549 85.707,221.573 80.258,217.55 		"/>
		<polyline clip-path="url(#SVGID_20_)" fill="#CFD0D2" points="80.258,217.547 85.707,221.566 85.707,221.593 80.258,217.54 		"/>
		<path clip-path="url(#SVGID_20_)" fill="#D1D3D4" d="M80.258,217.54l5.449,4.046c-0.017,0.32-0.037,0.753-0.054,1.313
			l-5.396-5.572V217.54"/>
	</g>
	<line fill="#97999C" x1="272.433" y1="217.78" x2="276.025" y2="217.78"/>
	<line fill="#939598" x1="276.025" y1="217.78" x2="283.761" y2="184.131"/>
	<line fill="#97999C" x1="283.761" y1="184.131" x2="325.202" y2="184.194"/>
	<line fill="#CECFD0" x1="325.208" y1="184.194" x2="330.947" y2="201.201"/>
	<line fill="#939598" x1="331.867" y1="201.844" x2="338.039" y2="184.194"/>
	<line fill="#97999C" x1="196.546" y1="217.963" x2="201.855" y2="217.963"/>
	<line fill="#CECFD0" x1="380.406" y1="184.314" x2="382.31" y2="196.318"/>
	<line fill="#CECFD0" x1="382.952" y1="200.404" x2="385.469" y2="216.487"/>
	<g>
		<defs>
			<rect id="SVGID_21_" x="79.225" y="177.256" width="341.67" height="121.637"/>
		</defs>
		<clipPath id="SVGID_22_">
			<use xlink:href="#SVGID_21_"  overflow="visible"/>
		</clipPath>
		<line clip-path="url(#SVGID_22_)" fill="#97999C" x1="385.469" y1="216.487" x2="420.901" y2="216.487"/>
	</g>
	<line fill="#CDCFCF" x1="396.093" y1="281.573" x2="398.026" y2="297.816"/>
	<line fill="#97999C" x1="338.039" y1="184.194" x2="380.406" y2="184.314"/>
	<line fill="#939598" x1="201.852" y1="217.963" x2="213.766" y2="184.041"/>
	<line fill="#97999C" x1="213.766" y1="184.041" x2="260.456" y2="184.194"/>
	<line fill="#CECFD0" x1="260.462" y1="184.194" x2="272.433" y2="217.78"/>
	<polyline fill="#D1D3D4" points="376.434,201.431 382.952,200.404 385.469,216.487 379.826,223.089 	"/>
	<polyline fill="#A9ABAD" points="379.826,223.089 385.469,216.487 420.895,216.487 414.296,223.089 	"/>
	<polyline fill="#D1D3D4" points="414.303,223.089 420.901,216.487 420.901,280.467 414.303,273.871 	"/>
	<polyline fill="#949699" points="414.303,273.868 420.901,280.467 395.974,280.467 388.595,273.868 	"/>
	<polyline fill="#D1D3D4" points="388.595,273.868 395.974,280.467 396.093,281.573 389.534,282.307 	"/>
	<polyline fill="#D1D3D4" points="389.534,282.307 396.093,281.573 398.026,297.81 390.595,291.208 	"/>
	<polyline fill="#949699" points="390.595,291.208 398.029,297.81 350.749,297.779 356.021,291.188 	"/>
	<polyline fill="#939598" points="356.021,291.188 350.749,297.783 348.566,288.139 349.979,264.474 	"/>
	<polyline fill="#D1D3D4" points="349.977,264.477 348.57,288.146 345.131,297.816 340.476,291.215 	"/>
	<polyline fill="#949699" points="340.476,291.215 345.131,297.816 315.443,297.816 320.239,291.215 	"/>
	<polyline fill="#939598" points="320.239,291.215 315.443,297.816 312.124,287.592 311.302,263.637 	"/>
	<polyline fill="#D1D3D4" points="311.302,263.637 312.124,287.592 309.582,297.816 304.42,291.215 	"/>
	<polyline fill="#949699" points="304.426,291.215 309.582,297.816 249.411,297.816 254.181,291.215 	"/>
	<polyline fill="#939598" points="254.184,291.215 249.411,297.816 242.566,277.034 247.346,270.459 	"/>
	<polyline fill="#949699" points="247.346,270.456 242.566,277.027 230.896,276.968 226.35,270.342 	"/>
	<polyline fill="#D1D3D4" points="226.35,270.342 230.896,276.968 223.063,297.627 218.512,291.027 	"/>
	<polyline fill="#949699" points="218.512,291.031 223.063,297.63 175.638,297.63 184.615,291.031 	"/>
	<polyline fill="#939598" points="184.619,291.031 175.638,297.63 175.974,296.557 185.972,286.705 	"/>
	<g>
		<defs>
			<path id="SVGID_23_" d="M100.804,280.307c1.119,0.587,21.838,11.728,32.113,15.477c5.545,2.02,14.303,3.109,23.034,3.109
				c7.336,0,14.644-0.753,20.02-2.322l9.994-9.885c-16.463,4.929-23.154,5.599-30.014,5.599c-8.175,0-16.183-1.007-20.795-2.683
				c-9.688-3.553-30.15-14.561-32.673-15.873"/>
		</defs>
		<clipPath id="SVGID_24_">
			<use xlink:href="#SVGID_23_"  overflow="visible"/>
		</clipPath>
		<path clip-path="url(#SVGID_24_)" fill="#989A9D" d="M185.972,286.705l-10.001,9.852c-1.77,0.526-3.746,0.96-5.865,1.307
			l2.419-7.559C176.181,289.475,180.546,288.318,185.972,286.705"/>
		<path clip-path="url(#SVGID_24_)" fill="#96989B" d="M172.524,290.298l-2.419,7.562c-4.322,0.7-9.229,1.03-14.147,1.03
			c-8.748,0-17.496-1.073-23.055-3.103c-10.255-3.743-30.986-14.887-32.087-15.474l1.667-6.599
			c2.522,1.347,22.975,12.338,32.683,15.877c4.615,1.699,12.604,2.699,20.792,2.699
			C160.561,292.291,165.076,291.984,172.524,290.298"/>
	</g>
	<g>
		<defs>
			<path id="SVGID_25_" d="M79.278,216.307c4.646,4.819,4.646,4.819,6.075,6.579h34.293l-7.192-6.579"/>
		</defs>
		<clipPath id="SVGID_26_">
			<use xlink:href="#SVGID_25_"  overflow="visible"/>
		</clipPath>
		<polyline clip-path="url(#SVGID_26_)" fill="#A4A6A9" points="85.656,222.906 79.271,216.307 112.454,216.307 119.643,222.906 
			111.348,222.906 		"/>
	</g>
	<g>
		<defs>
			<path id="SVGID_27_" d="M162.867,183.864c2.469,0.28,5.488,0.167,7.895,0.503c8.752,1.253,26.135,8.352,26.421,8.402h0.007
				c2.439-1.596,4.343-2.546,5.905-3.276l1.597-0.727c-1.123-0.477-22.172-9.352-32.977-10.918c-2.77-0.42-5.792-0.593-8.848-0.593"
				/>
		</defs>
		<clipPath id="SVGID_28_">
			<use xlink:href="#SVGID_27_"  overflow="visible"/>
		</clipPath>
		<path clip-path="url(#SVGID_28_)" fill="#A6A8AB" d="M162.867,183.854v-6.598c1.985,0,3.945,0.076,5.828,0.24l-0.666,6.642
			C166.282,184.061,164.453,184.041,162.867,183.854"/>
		<path clip-path="url(#SVGID_28_)" fill="#A9ABAD" d="M168.029,184.138l0.666-6.642c0.646,0.053,1.28,0.12,1.906,0.193
			l-0.819,6.565C169.216,184.201,168.629,184.164,168.029,184.138"/>
		<path clip-path="url(#SVGID_28_)" fill="#ABADB0" d="M169.775,184.254l0.826-6.565c0.373,0.046,0.74,0.1,1.104,0.15l0.097,0.013
			l-0.957,6.532l-0.083-0.017C170.441,184.328,170.115,184.284,169.775,184.254"/>
		<path clip-path="url(#SVGID_28_)" fill="#ADB0B2" d="M170.849,184.381l0.953-6.532c0.413,0.067,0.833,0.137,1.276,0.213
			l-1.063,6.509C171.608,184.501,171.222,184.434,170.849,184.381"/>
		<path clip-path="url(#SVGID_28_)" fill="#B1B2B4" d="M172.008,184.571l1.066-6.509c0.533,0.1,1.087,0.213,1.66,0.333l-1.207,6.485
			C173.001,184.768,172.495,184.661,172.008,184.571"/>
		<path clip-path="url(#SVGID_28_)" fill="#B3B4B7" d="M173.527,184.881l1.207-6.479c0.713,0.157,1.453,0.333,2.213,0.527
			l-1.373,6.448C174.874,185.194,174.188,185.027,173.527,184.881"/>
		<path clip-path="url(#SVGID_28_)" fill="#B6B7B9" d="M175.574,185.377l1.376-6.448c1.037,0.267,2.106,0.56,3.189,0.88
			l-1.619,6.378C177.514,185.894,176.527,185.621,175.574,185.377"/>
		<path clip-path="url(#SVGID_28_)" fill="#B8B9BC" d="M178.521,186.187l1.626-6.378c1.517,0.439,3.076,0.93,4.639,1.446
			l-2.01,6.262C181.353,187.047,179.92,186.6,178.521,186.187"/>
		<path clip-path="url(#SVGID_28_)" fill="#BBBCBE" d="M182.772,187.514l2.013-6.259c2.393,0.786,4.796,1.633,7.059,2.466
			l-2.816,5.962C187.092,188.98,184.945,188.227,182.772,187.514"/>
		<path clip-path="url(#SVGID_28_)" fill="#BDBFC1" d="M189.027,189.683l2.816-5.965c4.219,1.553,7.975,3.042,10.318,4.002
			l-5.466,4.872C195.566,192.152,192.65,190.996,189.027,189.683"/>
		<path clip-path="url(#SVGID_28_)" fill="#C0C1C4" d="M196.696,192.592l5.466-4.866c0.689,0.28,1.26,0.517,1.683,0.69l-6.648,4.366
			C197.203,192.789,197.026,192.719,196.696,192.592"/>
		<polyline clip-path="url(#SVGID_28_)" fill="#BDBFC1" points="197.203,192.782 203.845,188.417 204.375,188.64 197.056,192.712 		
			"/>
		<polyline clip-path="url(#SVGID_28_)" fill="#BBBCBE" points="197.056,192.712 204.375,188.633 204.397,188.65 197.036,192.706 		
			"/>
		<polyline clip-path="url(#SVGID_28_)" fill="#B8B9BC" points="197.036,192.706 204.397,188.653 204.428,188.663 197.013,192.696 
					"/>
		<polyline clip-path="url(#SVGID_28_)" fill="#B6B7B9" points="197.013,192.696 204.428,188.663 204.454,188.67 196.989,192.686 		
			"/>
		<polyline clip-path="url(#SVGID_28_)" fill="#B3B4B7" points="196.989,192.686 204.454,188.67 204.475,188.68 196.966,192.676 		
			"/>
		<polyline clip-path="url(#SVGID_28_)" fill="#B1B2B4" points="196.966,192.676 204.475,188.683 204.498,188.693 196.937,192.666 
					"/>
		<polyline clip-path="url(#SVGID_28_)" fill="#ADB0B2" points="196.942,192.666 204.501,188.693 204.524,188.703 196.916,192.656 
					"/>
		<polyline clip-path="url(#SVGID_28_)" fill="#ABADB0" points="196.916,192.652 204.521,188.696 204.541,188.707 196.883,192.643 
					"/>
		<polyline clip-path="url(#SVGID_28_)" fill="#A9ABAD" points="196.883,192.643 204.541,188.71 204.562,188.716 196.853,192.629 		
			"/>
		<polyline clip-path="url(#SVGID_28_)" fill="#A6A8AB" points="196.853,192.629 204.562,188.716 204.581,188.727 196.823,192.612 
					"/>
		<polyline clip-path="url(#SVGID_28_)" fill="#A4A6A9" points="196.823,192.612 204.574,188.727 204.595,188.733 196.789,192.599 
					"/>
		<polyline clip-path="url(#SVGID_28_)" fill="#A1A4A6" points="196.789,192.599 204.595,188.733 204.614,188.74 196.756,192.586 		
			"/>
		<polyline clip-path="url(#SVGID_28_)" fill="#9FA1A4" points="196.756,192.586 204.614,188.74 204.628,188.747 196.723,192.572 		
			"/>
		<polyline clip-path="url(#SVGID_28_)" fill="#9D9FA1" points="196.723,192.572 204.628,188.74 204.642,188.747 196.687,192.552 		
			"/>
		<polyline clip-path="url(#SVGID_28_)" fill="#9A9D9F" points="196.689,192.552 204.645,188.747 204.654,188.753 196.649,192.539 
					"/>
		<polyline clip-path="url(#SVGID_28_)" fill="#989A9D" points="196.649,192.539 204.658,188.753 204.671,188.76 196.609,192.522 		
			"/>
		<polyline clip-path="url(#SVGID_28_)" fill="#96989B" points="196.609,192.522 204.668,188.76 204.678,188.767 196.566,192.506 		
			"/>
	</g>
	<polyline fill="#D1D3D4" points="196.566,192.506 204.678,188.767 195.406,217.963 186.385,224.565 	"/>
	<path fill="#D1D3D4" d="M162.867,183.854c2.456,0.29,5.481,0.167,7.895,0.513c9.784,1.393,30.294,10.065,25.808,8.139
		l-10.178,32.06h20.143l11.904-33.913l37.365,0.126l11.98,33.6h13.5l7.732-33.64l31.453,0.047l4.226,12.527l7.104,20.832
		l6.372-20.322l4.553-13.017l32.047,0.093l1.026,6.455l0.64,4.076l3.393,21.658h34.473v50.782h-25.701l0.937,8.436l1.063,8.904
		l-34.572-0.02l-6.045-26.715l-9.508,26.741h-20.229l-8.941-27.577l-6.879,27.577h-50.239l-6.835-20.762l-21.002-0.114
		l-7.838,20.692h-33.893l1.353-4.329c-16.483,4.902-23.148,5.586-30.014,5.586c-8.188-0.007-16.177-1-20.795-2.699
		c-9.705-3.539-30.157-14.53-32.68-15.873H85.866c0.007,5.225-0.026-20.727-0.026-39.695c0-9.705,0-16.65-0.184-11.118h33.983
		c-0.653-7.675-0.5-8.455-0.677-8.845c-0.026-6.699,4.282-18.263,22.175-26.741C146.188,185.294,154.745,183.854,162.867,183.854"/>
	<g>
		<defs>
			<path id="SVGID_29_" d="M79.225,232.46v2.236c0,18.896,0.054,44.281,0.054,45.61c2.379-2.379,3.695-3.723,6.575-5.908
				c0,0-0.027-23.092-0.027-40.368c0-7.305,0-13.044-0.079-13.097c-2.467-1.097-3.92-2.02-5.489-3.613l-0.979-1.013
				C79.225,217.264,79.225,223.565,79.225,232.46"/>
		</defs>
		<clipPath id="SVGID_30_">
			<use xlink:href="#SVGID_29_"  overflow="visible"/>
		</clipPath>
		<polyline clip-path="url(#SVGID_30_)" fill="#B1B2B4" points="85.86,273.715 79.269,280.313 85.86,273.719 		"/>
		<polyline clip-path="url(#SVGID_30_)" fill="#ADB0B2" points="85.86,273.719 79.269,280.313 79.269,280.29 85.86,273.788 		"/>
		<polyline clip-path="url(#SVGID_30_)" fill="#ABADB0" points="85.86,273.788 79.269,280.29 79.269,280.267 85.86,273.852 		"/>
		<polyline clip-path="url(#SVGID_30_)" fill="#A9ABAD" points="85.86,273.852 79.269,280.267 79.269,280.243 85.86,273.915 		"/>
		<polyline clip-path="url(#SVGID_30_)" fill="#A6A8AB" points="85.86,273.915 79.269,280.243 79.269,280.214 85.86,273.972 		"/>
		<polyline clip-path="url(#SVGID_30_)" fill="#A4A6A9" points="85.86,273.972 79.269,280.214 79.269,280.18 85.86,274.024 		"/>
		<polyline clip-path="url(#SVGID_30_)" fill="#A1A4A6" points="85.86,274.024 79.269,280.18 79.269,280.146 85.86,274.075 		"/>
		<polyline clip-path="url(#SVGID_30_)" fill="#9FA1A4" points="85.86,274.075 79.269,280.146 79.269,280.11 85.86,274.125 		"/>
		<polyline clip-path="url(#SVGID_30_)" fill="#9D9FA1" points="85.86,274.121 79.269,280.106 79.269,280.066 85.86,274.165 		"/>
		<polyline clip-path="url(#SVGID_30_)" fill="#9A9D9F" points="85.86,274.165 79.269,280.066 79.269,280.027 85.86,274.201 		"/>
		<polyline clip-path="url(#SVGID_30_)" fill="#989A9D" points="85.86,274.201 79.269,280.027 79.269,279.977 85.86,274.234 		"/>
		<path clip-path="url(#SVGID_30_)" fill="#96989B" d="M85.86,274.234l-6.592,5.742c-0.004-3.376-0.03-27.847-0.03-45.96
			c0-8.298,0-14.62,0.017-16.91l6.465,4.149c0.113-1.816,0.12,4.462,0.113,12.76C85.84,252.126,85.866,276.595,85.86,274.234"/>
		<polyline clip-path="url(#SVGID_30_)" fill="#989A9D" points="85.72,221.256 79.255,217.114 79.255,217.067 85.72,221.293 		"/>
		<polyline clip-path="url(#SVGID_30_)" fill="#9A9D9F" points="85.72,221.293 79.255,217.067 79.255,217.027 85.72,221.326 		"/>
		<polyline clip-path="url(#SVGID_30_)" fill="#9D9FA1" points="85.72,221.326 79.255,217.027 79.258,216.98 85.713,221.37 		"/>
		<polyline clip-path="url(#SVGID_30_)" fill="#9FA1A4" points="85.713,221.37 79.258,216.984 79.258,216.944 85.713,221.41 		"/>
		<polyline clip-path="url(#SVGID_30_)" fill="#A1A4A6" points="85.713,221.41 79.258,216.947 79.258,216.907 85.713,221.453 		"/>
		<polyline clip-path="url(#SVGID_30_)" fill="#A4A6A9" points="85.713,221.453 79.258,216.907 79.258,216.867 85.707,221.496 		"/>
		<polyline clip-path="url(#SVGID_30_)" fill="#A6A8AB" points="85.707,221.496 79.258,216.867 79.258,216.831 85.707,221.543 		"/>
		<polyline clip-path="url(#SVGID_30_)" fill="#A9ABAD" points="85.707,221.546 79.258,216.834 79.258,216.797 85.707,221.593 		"/>
		<polyline clip-path="url(#SVGID_30_)" fill="#ABADB0" points="85.707,221.593 79.258,216.797 79.262,216.601 85.69,221.929 		"/>
		<path clip-path="url(#SVGID_30_)" fill="#ADB0B2" d="M85.69,221.926l-6.429-5.325l0.007-0.297l6.385,6.596
			C85.667,222.516,85.677,222.192,85.69,221.926"/>
	</g>
	<g>
		<defs>
			<path id="SVGID_31_" d="M112.367,214.074c0,0.75,0.027,1.533,0.087,2.233l7.192,6.579c-0.646-7.665-0.507-8.418-0.674-8.812
				c-0.026-6.718,4.253-18.283,22.172-26.761l-2.796-5.965C117.823,190.946,112.367,205.143,112.367,214.074"/>
		</defs>
		<clipPath id="SVGID_32_">
			<use xlink:href="#SVGID_31_"  overflow="visible"/>
		</clipPath>
		<path clip-path="url(#SVGID_32_)" fill="#96989B" d="M119.64,222.906l-7.186-6.599c-0.06-0.707-0.093-1.473-0.093-2.239
			c0-8.935,5.465-23.119,25.974-32.733l2.8,5.979c-17.896,8.485-22.202,20.049-22.175,26.754
			C119.14,214.451,118.986,215.231,119.64,222.906"/>
	</g>
	<g>
		<defs>
			<path id="SVGID_33_" d="M138.349,181.348l2.796,5.965c5.043-2.023,13.604-3.449,21.723-3.449v-6.608
				C154.025,177.256,144.621,178.829,138.349,181.348"/>
		</defs>
		<clipPath id="SVGID_34_">
			<use xlink:href="#SVGID_33_"  overflow="visible"/>
		</clipPath>
		<path clip-path="url(#SVGID_34_)" fill="#96989B" d="M141.135,187.313l-2.8-5.972c0.644-0.26,1.323-0.51,2.033-0.75l2.433,6.119
			C142.208,186.907,141.654,187.107,141.135,187.313"/>
		<path clip-path="url(#SVGID_34_)" fill="#989A9D" d="M142.801,186.71l-2.433-6.119c1.359-0.457,2.819-0.874,4.359-1.243
			l1.786,6.329C145.174,185.99,143.928,186.34,142.801,186.71"/>
		<path clip-path="url(#SVGID_34_)" fill="#9A9D9F" d="M146.514,185.677l-1.786-6.329c1.46-0.354,2.992-0.667,4.572-0.937
			l1.246,6.462C149.14,185.11,147.787,185.38,146.514,185.677"/>
		<path clip-path="url(#SVGID_34_)" fill="#9D9FA1" d="M150.546,184.874l-1.246-6.465c1.479-0.253,3.009-0.466,4.552-0.643
			l0.78,6.545C153.239,184.467,151.866,184.654,150.546,184.874"/>
		<path clip-path="url(#SVGID_34_)" fill="#9FA1A4" d="M154.635,184.311l-0.783-6.545c1.4-0.157,2.813-0.28,4.232-0.363l0.4,6.582
			C157.188,184.061,155.901,184.174,154.635,184.311"/>
		<path clip-path="url(#SVGID_34_)" fill="#A1A4A6" d="M158.481,183.987l-0.403-6.585c1.243-0.077,2.489-0.12,3.726-0.14
			l0.083,6.599C160.757,183.877,159.617,183.921,158.481,183.987"/>
		<path clip-path="url(#SVGID_34_)" fill="#A4A6A9" d="M161.891,183.861l-0.087-6.599c0.356-0.006,0.713-0.006,1.063-0.006v6.598
			C162.544,183.854,162.217,183.857,161.891,183.861"/>
	</g>
	<polyline fill="#949699" points="102.483,273.715 100.816,280.313 79.269,280.313 85.86,273.715 	"/>
	<polyline fill="#A9ABAD" points="186.385,224.559 195.41,217.96 196.546,217.96 196.546,224.559 	"/>
	<polyline fill="#A9ABAD" points="196.546,224.559 196.546,217.96 201.855,217.96 206.534,224.559 	"/>
	<polyline fill="#939598" points="206.53,224.559 201.855,217.96 213.766,184.034 218.438,190.649 	"/>
	<polyline fill="#A9ABAD" points="218.438,190.653 213.77,184.041 260.462,184.194 255.804,190.779 	"/>
	<polyline fill="#D1D3D4" points="255.804,190.772 260.456,184.194 272.433,217.78 267.78,224.375 	"/>
	<polyline fill="#A9ABAD" points="267.78,224.375 272.433,217.773 276.025,217.773 281.277,224.375 	"/>
	<polyline fill="#939598" points="281.277,224.375 276.025,217.773 283.761,184.131 289.017,190.739 	"/>
	<polyline fill="#A9ABAD" points="289.013,190.739 283.761,184.131 325.208,184.194 320.47,190.786 	"/>
	<polyline fill="#D1D3D4" points="320.47,190.786 325.208,184.194 330.947,201.201 324.691,203.31 	"/>
	<polyline fill="#D1D3D4" points="324.695,203.31 330.947,201.197 331.534,202.917 331.8,224.146 	"/>
	<polyline fill="#939598" points="331.8,224.146 331.534,202.92 331.874,201.844 338.169,203.823 	"/>
	<polyline fill="#939598" points="338.169,203.816 331.867,201.844 338.039,184.194 342.718,190.81 	"/>
	<polyline fill="#A9ABAD" points="342.718,190.806 338.039,184.194 380.406,184.314 374.771,190.899 	"/>
	<polyline fill="#D1D3D4" points="374.771,190.899 380.403,184.314 382.31,196.318 375.791,197.354 	"/>
	<polyline fill="#D1D3D4" points="375.791,197.352 382.31,196.318 382.956,200.404 376.431,201.431 	"/>
	<path d="M394.2,191.526h4.393c0.733,0,1.329,0.113,1.813,0.313c0.873,0.42,1.3,1.173,1.3,2.272c0,0.587-0.104,1.053-0.35,1.43
		c-0.23,0.387-0.566,0.673-1.003,0.903c0.387,0.14,0.656,0.34,0.866,0.586c0.167,0.253,0.3,0.66,0.307,1.22l0.05,1.293
		c0.007,0.377,0.054,0.65,0.07,0.82c0.097,0.313,0.22,0.506,0.439,0.58v0.233h-1.606l-0.086-0.32c-0.04-0.133-0.047-0.4-0.077-0.76
		l-0.09-1.61c-0.01-0.63-0.26-1.05-0.68-1.276c-0.22-0.107-0.613-0.18-1.146-0.18h-2.89v4.146h-1.31 M398.442,195.968
		c0.604,0,1.076-0.143,1.427-0.383c0.35-0.253,0.536-0.7,0.536-1.326c0-0.707-0.256-1.177-0.732-1.413
		c-0.287-0.133-0.627-0.21-1.04-0.21h-3.123v3.333H398.442z"/>
	<path fill="#FFFFFF" d="M377.917,200.624l-0.666-4.109l-1.146-7.355l-33.7-0.07l-4.622,13.284l-0.224,0.643l-5.679,16.347
		l-5.158-15.347l-0.34-1.033l-0.233-0.667l-4.489-13.241L288.609,189l-7.765,33.656h-11.891l-11.941-33.589l-38.888-0.146
		l-11.904,33.906h-17.942l10.011-31.506c-2.06-0.813-4.659-1.846-7.521-2.906c-6.716-2.473-14.934-5.135-19.413-5.759
		c-2.466-0.356-5.222-0.53-8.062-0.53c-8.088-0.02-17.026,1.503-22.321,3.643c-18.732,8.938-22.545,20.956-22.658,27.624v0.34
		c0.006,0.47,0.036,0.903,0.076,1.293l0.706,6.148H85.21c-0.007,3.02-0.007,7.035-0.007,11.531v1.393
		c0,13.634,0.007,31.22,0.033,40.024h17.387l1.243,0.66c0.007,0.007,5.402,2.886,12.07,6.266c6.643,3.365,14.66,7.225,19.286,8.897
		c4.439,1.65,12.91,2.786,21.155,2.767c6.959,0.007,13.914-0.764,18.483-2.119l9.984-2.957l-1.21,3.816h36.056l7.818-20.676
		l19.489,0.063l6.861,20.782h51.853l6.158-24.685l8.038,24.685h21.749l8.621-23.991l5.315,23.965l36.636,0.02l-1.189-9.994
		l-0.014-0.057l-0.853-7.266h25.614v-52.935H381.14L377.917,200.624"/>
	<path fill="none" stroke="#FFFFFF" stroke-width="3.3" d="M377.917,200.624l-0.666-4.109l-1.146-7.355l-33.7-0.07l-4.622,13.284
		l-0.224,0.643l-5.679,16.347l-5.158-15.347l-0.34-1.033l-0.233-0.667l-4.489-13.241L288.609,189l-7.765,33.656h-11.891
		l-11.941-33.589l-38.888-0.146l-11.904,33.906h-17.942l10.011-31.506c-2.06-0.813-4.659-1.846-7.521-2.906
		c-6.716-2.473-14.934-5.135-19.413-5.759c-2.466-0.356-5.222-0.53-8.062-0.53c-8.088-0.02-17.026,1.503-22.321,3.643
		c-18.732,8.938-22.545,20.956-22.658,27.624v0.34c0.006,0.47,0.036,0.903,0.076,1.293l0.706,6.148H85.21
		c-0.007,3.02-0.007,7.035-0.007,11.531v1.393c0,13.634,0.007,31.22,0.033,40.024h17.387l1.243,0.66
		c0.007,0.007,5.402,2.886,12.07,6.266c6.643,3.365,14.66,7.225,19.286,8.897c4.439,1.65,12.91,2.786,21.155,2.767
		c6.959,0.007,13.914-0.764,18.483-2.119l9.984-2.957l-1.21,3.816h36.056l7.818-20.676l19.489,0.063l6.861,20.782h51.853
		l6.158-24.685l8.038,24.685h21.749l8.621-23.991l5.315,23.965l36.636,0.02l-1.189-9.994l-0.014-0.057l-0.853-7.266h25.614v-52.935
		H381.14L377.917,200.624"/>
	<path fill="#231F20" d="M192.964,244.694h15.83l3.079-8.555h-26.381C185.492,236.14,191.03,239.362,192.964,244.694"/>
	<polyline fill="#231F20" points="268.86,249.403 278.658,283.606 285.323,249.403 	"/>
	<polyline fill="#231F20" points="267.684,244.694 285.99,244.694 287.727,236.14 265.118,236.14 	"/>
	<polyline fill="#231F20" points="229.196,244.694 248.639,244.694 239.894,215.634 	"/>
	<path fill="#231F20" d="M414.256,263.49h-27.961l-0.8-5.115h28.761v-8.565h-30.101l-0.806-5.132h30.887v-8.555h-32.24l-0.813-5.125
		h33.073v-8.552h-34.419l-5.032-32.08l-31.634,0.03l-11.291,32.106l-11.188-32.163l-31.316,0.043l-7.832,33.693l-13.963-0.083
		l-11.151-33.626h-37.575l-11.921,33.869h-9.107c-10.788,0-29.091,0-30.777-0.126l-0.56-0.033l-0.467-0.29
		c-2.146-1.29-3.735-3.076-3.806-5.452c0.021-2.176,1.536-3.839,3.286-4.706c1.803-0.93,4.119-1.393,6.896-1.393
		c4.238,0,9.654,1.1,16.033,3.856l7.725-24.352c-1.163-0.553-2.896-1.373-5.072-2.286c-4.176-1.753-9.901-3.779-16.097-4.952
		c-1.406-0.313-6.282-0.97-12.273-0.97c-6.966,0-15.54,0.88-22.482,3.889c-10.834,5.106-15.553,10.578-17.826,15.677
		c-2.253,5.105-2.066,10.145-2.239,14.627v0.19c-0.007,1.49,0.213,3.036,0.6,4.532H86.14v8.552h38.195
		c0.41,0.68,0.776,1.26,1.043,1.626c0.747,1.073,1.92,2.27,3.3,3.5H86.127v8.555h53.168v-0.807l0.707,0.45
		c4.479,2.786,11.124,5.319,14.06,5.952c3.05,0.593,5.376,2.662,5.369,5.332c-0.16,3.412-3.112,5.679-6.578,5.719
		c-0.84,0-1.727-0.156-2.623-0.453c-9.768-1.64-17.363-6.632-25.998-12.501l-0.973,1.44H86.14v8.565h31.347l-3.445,5.115H86.16
		v8.535h22.125l-2.043,3.043c9.185,6.484,24.722,12.83,30.794,14.21c6.472,1.489,13.437,2.279,20.075,2.279
		c9.908,0.033,19.056-1.813,24.441-5.272l4.732-3.016l-1.257,5.482l-0.386,1.593l34.022,0.03l7.411-20.6l21.603-0.053l6.991,20.535
		l49.77,0.014l6.919-28.294l9.411,28.344h19.822l10.157-29.127l5.673,29.07l34.089,0.007l-2.869-18.246h26.614 M362.42,283.687
		l-8.404-50.353l-17.569,50.286l-11.048-0.066l-16.293-50.869l-10.328,50.923h-38.481l-6.332-20.022h-31.033l-7.441,19.869
		l-21.469,0.04l13.327-34.13l-12.618,0.063c4.416,10.631-2.279,21.412-8.204,26.621c-10.958,9.774-20.163,10.197-32.36,9.498
		c-14.55-1.087-27.247-5.938-36.089-11.591l10.268-16.146c2.587,2.329,14.457,8.371,21.516,9.538
		c17.37,4.266,25.404-18.3,8.028-22.985c-7.531-2.453-13.747-4.726-20.035-9.978c-14.914-11.558-10.295-33.859,8.414-40.098
		c6.839-2.819,27.928-6.205,43.244,2.393l-3.889,11.824c-6.462-2.476-13.314-4.106-21.195-1.2
		c-11.874,4.096-13.621,22.495,6.538,23.758c0,0,20.532-0.19,42.321-0.063l11.724-33.326l27.594-0.043l10.955,33.433h25.23
		l7.119-33.433l20.063,0.11l15.546,47.89l16.344-48.009l21.309,0.01l12.251,86.125L362.42,283.687z"/>
	<linearGradient id="SVGID_35_" gradientUnits="userSpaceOnUse" x1="86.918" y1="318.9316" x2="422.1442" y2="318.9316">
		<stop  offset="0" style="stop-color:#000000"/>
		<stop  offset="0.5" style="stop-color:#E2001A"/>
		<stop  offset="1" style="stop-color:#000000"/>
	</linearGradient>
	<rect x="79.225" y="313.813" fill="url(#SVGID_35_)" width="342.756" height="10.238"/>
</g>
</svg>
