<?xml version="1.0" encoding="utf-8"?>
<!-- Generator: Adobe Illustrator 16.0.0, SVG Export Plug-In . SVG Version: 6.00 Build 0)  -->
<!DOCTYPE svg PUBLIC "-//W3C//DTD SVG 1.1//EN" "http://www.w3.org/Graphics/SVG/1.1/DTD/svg11.dtd">
<svg version="1.1" id="Calque_1" xmlns="http://www.w3.org/2000/svg" xmlns:xlink="http://www.w3.org/1999/xlink" x="0px" y="0px"
	 width="500px" height="500px" viewBox="0 0 500 500" enable-background="new 0 0 500 500" xml:space="preserve">
<g>
	<polygon fill="#E2001A" points="102.763,214.208 25,214.208 25,229.54 52.868,229.54 52.868,285.844 74.334,285.844 74.334,229.54 
		102.763,229.54 	"/>
	<rect x="269.996" y="214.208" fill="#E2001A" width="21.466" height="71.635"/>
	<path fill="#E2001A" d="M394.141,229.54c-0.836-6.656-5.926-16.442-19.213-16.442c-14.633,0-19.858,10.452-19.858,10.452
		s-3.763-10.452-16.933-10.452c-8.498,0-13.992,4.325-16.854,7.415v-6.304H300.66v71.635h20.623v-50.169
		c1.438-3.24,4.207-6.715,8.728-6.715s6.604,6.611,6.604,6.611v50.274h20.623v-48.915c0-4.599,3.998-7.389,9.851-7.389
		c5.854,0,6.599,6.134,6.599,6.134v50.169h20.623V229.54H394.141z"/>
	<path fill="#E2001A" d="M181.833,231.219c-0.444-10.38-9.002-18.748-19.486-18.748h-35.001c-10.478,0-19.036,8.368-19.48,18.748
		h17.834c1.267-1.985,3.403-3.384,5.938-3.384h24.177c2.535,0,4.671,1.398,5.938,3.384h0.092v7.591
		c-2.502-1.293-5.298-2.09-8.296-2.09h-28.41c-10.086,0-18.337,8.25-18.337,18.337v12.45c0,10.087,8.25,18.337,18.337,18.337h28.41
		c2.999,0,5.794-0.797,8.296-2.09v2.09h20.074v-54.625H181.833z M161.844,263.124c0,4.684-3.828,8.512-8.512,8.512h-18.788
		c-4.684,0-8.512-3.828-8.512-8.512v-2.215c0-4.684,3.828-8.512,8.512-8.512h18.788c4.684,0,8.512,3.828,8.512,8.512V263.124z"/>
	<path fill="#E2001A" d="M474.915,231.219c-0.444-10.38-9.002-18.748-19.486-18.748h-35.001c-10.479,0-19.036,8.368-19.48,18.748
		h17.834c1.268-1.985,3.403-3.384,5.938-3.384h24.178c2.534,0,4.67,1.398,5.938,3.384h0.092v7.591
		c-2.502-1.293-5.298-2.09-8.297-2.09h-28.41c-10.086,0-18.336,8.25-18.336,18.337v12.45c0,10.087,8.25,18.337,18.336,18.337h28.41
		c2.999,0,5.795-0.797,8.297-2.09v2.09H475v-54.625H474.915z M454.926,263.124c0,4.684-3.828,8.512-8.512,8.512h-18.788
		c-4.684,0-8.512-3.828-8.512-8.512v-2.215c0-4.684,3.828-8.512,8.512-8.512h18.788c4.684,0,8.512,3.828,8.512,8.512V263.124z"/>
	<path fill="#E2001A" d="M239.888,214.208v40.208c0,8.434-6.898,15.332-15.332,15.332h-1.946c-8.434,0-15.332-6.898-15.332-15.332
		v-3.547h-20.904v8.218c0,15.646,12.797,28.442,28.443,28.442h18.37c15.645,0,28.442-12.797,28.442-28.442v-44.878H239.888z"/>
</g>
</svg>
