<?xml version="1.0" encoding="utf-8"?>
<!-- Generator: Adobe Illustrator 16.0.0, SVG Export Plug-In . SVG Version: 6.00 Build 0)  -->
<!DOCTYPE svg PUBLIC "-//W3C//DTD SVG 1.1//EN" "http://www.w3.org/Graphics/SVG/1.1/DTD/svg11.dtd">
<svg version="1.1" id="Calque_1" xmlns="http://www.w3.org/2000/svg" xmlns:xlink="http://www.w3.org/1999/xlink" x="0px" y="0px"
	 width="500px" height="500px" viewBox="0 0 500 500" enable-background="new 0 0 500 500" xml:space="preserve">
<g>
	<path fill="#E0091D" d="M79.063,31.763h341.815v342.32H79.063V31.763z M72.833,380.4h354.333V25H72.833V380.4z"/>
	<g>
		<defs>
			<rect id="SVGID_1_" x="72.833" y="25" width="354.333" height="450"/>
		</defs>
		<clipPath id="SVGID_2_">
			<use xlink:href="#SVGID_1_"  overflow="visible"/>
		</clipPath>
		<path clip-path="url(#SVGID_2_)" fill="#E0091D" d="M202.977,235.426c13.179,0,20.446-6.249,21.148-54.112
			s-17.342-48.556-24.619-48.556c-20.466,0-19.784,23.581-19.784,23.581s0.356,13.525,0,43.701
			C179.386,230.216,189.788,235.426,202.977,235.426"/>
		<path clip-path="url(#SVGID_2_)" fill="#E0091D" d="M127.697,260.046V109.336c-19.883,25.934-31.718,58.374-31.718,93.591
			s11.835,67.647,31.718,93.582V260.046z"/>
		<path clip-path="url(#SVGID_2_)" fill="#E0091D" d="M179.723,98.431c0,0,8.691-11.103,23.937-11.449
			c15.256-0.346,37.453,3.114,52.382,31.204c14.92,28.099,12.547,67.984,12.547,67.984s-2.136,47.438-13.714,67.905
			c-11.577,20.455-23.551,26.111-36.028,27.169c-7.988,1.028-28.02,2.729-35.297-11.133v71.78
			c20.11,9.63,42.633,15.009,66.412,15.009c85.039,0,154.011-68.934,154.011-153.981c0-20.121-3.936-39.321-10.925-56.95
			l-68.34,133.841h-46.479V90.789h46.479v81.163v0.702l38.174-74.39c-28.119-30.334-68.3-49.336-112.92-49.336
			c-40.468,0-77.268,15.641-104.763,41.169h34.525V98.431z"/>
		<rect x="72.823" y="391.247" clip-path="url(#SVGID_2_)" fill="#E0091D" width="354.344" height="83.763"/>
		<path clip-path="url(#SVGID_2_)" fill="#FFFFFF" d="M110.019,463.659l-18.687-44.966h8.79l10.539,26.923
			c1.137,2.906,2.195,5.933,3.154,9.066c0.761-2.373,1.779-5.221,3.085-8.563l10.905-27.427h8.563l-18.598,44.966H110.019z"/>
		<path clip-path="url(#SVGID_2_)" fill="#FFFFFF" d="M150.397,401.579h8.315v8.76h-8.315V401.579z M150.397,418.693h8.315v44.957
			h-8.315V418.693z"/>
		<path clip-path="url(#SVGID_2_)" fill="#FFFFFF" d="M178.022,463.659v-44.966h7.494v6.387c3.589-4.943,8.799-7.405,15.612-7.405
			c2.966,0,5.675,0.475,8.157,1.464c2.491,0.979,4.34,2.254,5.566,3.826c1.246,1.582,2.096,3.461,2.581,5.635
			c0.317,1.414,0.465,3.877,0.465,7.406v27.653h-8.305v-27.356c0-3.096-0.326-5.429-0.979-6.961
			c-0.643-1.542-1.779-2.769-3.441-3.688c-1.641-0.92-3.589-1.374-5.804-1.374c-3.559,0-6.604,1.027-9.175,3.084
			c-2.581,2.066-3.866,5.972-3.866,11.736v24.559H178.022z"/>
		<path clip-path="url(#SVGID_2_)" fill="#FFFFFF" d="M237.275,463.659v-44.966h7.455v6.298c1.552-2.194,3.579-3.965,6.149-5.309
			c2.561-1.345,5.468-2.008,8.751-2.008c3.627,0,6.614,0.683,8.938,2.077c2.323,1.374,3.964,3.312,4.934,5.803
			c3.876-5.26,8.918-7.88,15.147-7.88c4.854,0,8.602,1.236,11.241,3.708c2.6,2.472,3.935,6.278,3.935,11.409v30.867h-8.285v-28.325
			c0-3.065-0.257-5.241-0.821-6.586c-0.523-1.334-1.482-2.422-2.926-3.252c-1.395-0.811-3.065-1.216-4.983-1.216
			c-3.46,0-6.317,1.057-8.582,3.144c-2.304,2.115-3.44,5.478-3.44,10.104v26.131h-8.315v-29.215c0-3.393-0.692-5.933-2.017-7.624
			c-1.364-1.69-3.599-2.54-6.684-2.54c-2.333,0-4.499,0.563-6.485,1.689c-2.018,1.128-3.432,2.778-4.321,4.954
			c-0.899,2.175-1.355,5.31-1.355,9.412v23.323H237.275z"/>
		<path clip-path="url(#SVGID_2_)" fill="#FFFFFF" d="M356.396,449.176l8.602,0.978c-1.364,4.599-3.886,8.167-7.545,10.709
			c-3.688,2.54-8.363,3.806-14.039,3.806c-7.178,0-12.883-2.007-17.074-6.07c-4.223-4.054-6.338-9.729-6.338-17.035
			c0-7.574,2.146-13.438,6.396-17.619c4.252-4.182,9.778-6.269,16.551-6.269c6.546,0,11.925,2.037,16.077,6.14
			c4.162,4.084,6.238,9.857,6.238,17.273c0,0.464,0,1.127-0.049,2.026h-36.603c0.316,4.944,1.819,8.73,4.567,11.351
			c2.739,2.63,6.17,3.945,10.283,3.945c3.025,0,5.626-0.731,7.801-2.205C353.438,454.742,355.149,452.389,356.396,449.176
			 M329.077,436.846h27.406c-0.355-3.776-1.403-6.604-3.153-8.503c-2.641-2.937-6.081-4.399-10.293-4.399
			c-3.815,0-7.03,1.176-9.63,3.51C330.797,429.797,329.344,432.931,329.077,436.846"/>
		<path clip-path="url(#SVGID_2_)" fill="#FFFFFF" d="M381.983,463.659v-44.966h7.464v6.803c1.928-3.184,3.678-5.29,5.31-6.309
			c1.641-1.009,3.382-1.513,5.339-1.513c2.798,0,5.646,0.821,8.563,2.462l-2.887,7.06c-2.027-1.097-4.064-1.642-6.081-1.642
			c-1.819,0-3.46,0.494-4.904,1.493c-1.453,0.998-2.481,2.394-3.114,4.173c-0.89,2.699-1.374,5.665-1.374,8.898v23.54H381.983z"/>
	</g>
</g>
</svg>
