<?xml version="1.0" encoding="utf-8"?>
<!-- Generator: Adobe Illustrator 16.0.0, SVG Export Plug-In . SVG Version: 6.00 Build 0)  -->
<!DOCTYPE svg PUBLIC "-//W3C//DTD SVG 1.1//EN" "http://www.w3.org/Graphics/SVG/1.1/DTD/svg11.dtd">
<svg version="1.1" id="Calque_1" xmlns="http://www.w3.org/2000/svg" xmlns:xlink="http://www.w3.org/1999/xlink" x="0px" y="0px"
	 width="500px" height="500px" viewBox="0 0 500 500" enable-background="new 0 0 500 500" xml:space="preserve">
<g>
	<path fill="#9B9C9E" d="M434.554,235.124h20.366c0-7.522-0.729-22.322-28.898-22.322c-20.981,0-29.022,8.832-29.022,20.628
		c0,12.437,5.463,18.675,19.01,22.671c13.558,4.004,20.323,4.531,20.323,9.635c0,3.82-4.81,5.252-9.154,5.252
		c-4.188,0-10.099-2.283-10.963-7.946h-21.14c0,10.557,6.971,24.157,31.919,24.157c24.997,0,30.833-12.62,30.833-23.454
		c0-10.748-5.582-18.64-22.598-22.847c-14.185-3.563-16.459-4.366-16.459-7.468c0-2.731,2.669-4.396,7.154-4.396
		C431.156,229.034,433.76,232.16,434.554,235.124"/>
	<polyline fill="#9B9C9E" points="295.677,214.674 397.637,214.674 397.637,233.683 380.367,233.683 380.367,285.722 
		356.613,285.722 356.613,233.6 336.414,233.6 336.414,285.758 312.887,285.758 312.887,233.6 295.677,233.6 	"/>
	<path fill="#9B9C9E" d="M258.268,274.878l-3.488,10.88h-22.203l23.003-71.084h26.378l22.692,71.084h-21.998l-3.583-10.88
		 M273.916,258.84l-5.131-16.184l-5.35,16.138L273.916,258.84z"/>
	<polyline fill="#9B9C9E" points="142.871,214.674 165.488,285.758 185.538,285.758 194.443,257.784 203.146,285.758 
		223.352,285.758 246.142,214.674 223.352,214.674 212.781,244.023 202.762,214.674 186.052,214.674 176.041,244.023 
		165.488,214.674 	"/>
	<polyline fill="#0072B9" points="95.944,285.722 60.531,215.076 25,215.076 60.553,285.722 	"/>
	<polyline fill="#0072B9" points="135.444,285.722 99.94,215.076 64.549,215.076 99.948,285.722 	"/>
	<polyline fill="#0072B9" points="136.82,280.379 136.82,215.076 103.992,215.076 	"/>
	<path fill="#1A171B" d="M469.332,222.336h-0.844v-5.304h2.021c1.259,0,1.918,0.476,1.918,1.505c0,0.964-0.643,1.367-1.404,1.489
		l1.539,2.31h-0.924l-1.448-2.275h-0.858 M470.229,219.367c0.702,0,1.361-0.027,1.361-0.878c0-0.681-0.659-0.775-1.199-0.775h-1.059
		v1.654H470.229z"/>
	<path fill="#1A171B" d="M465.517,219.621c0-2.621,2.231-4.571,4.771-4.571c2.485,0,4.712,1.95,4.712,4.571
		c0,2.677-2.227,4.615-4.712,4.615C467.748,224.236,465.517,222.298,465.517,219.621 M470.288,223.441
		c2.112,0,3.733-1.594,3.733-3.82c0-2.197-1.621-3.855-3.733-3.855c-2.091,0-3.745,1.659-3.745,3.855
		C466.543,221.847,468.198,223.441,470.288,223.441z"/>
</g>
</svg>
