<?xml version="1.0" encoding="utf-8"?>
<!-- Generator: Adobe Illustrator 21.0.2, SVG Export Plug-In . SVG Version: 6.00 Build 0)  -->
<svg version="1.1" id="Calque_1" xmlns="http://www.w3.org/2000/svg" xmlns:xlink="http://www.w3.org/1999/xlink" x="0px" y="0px"
	 viewBox="0 0 500 296" style="enable-background:new 0 0 500 296;" xml:space="preserve">
<style type="text/css">
	.st0{fill:#D10019;}
</style>
<path class="st0" d="M378.2,33.6l-31.5,136.1H346L314.5,33.6h-96.8V78c-6.8-20.5-31.8-48-88.2-48c-26.2,0-50.4,6.3-68.2,19.2
	c-17.8,13.3-28.9,33.1-29.2,60.3h63.1c-0.7-19.2,14.1-28.8,32.2-28.8c13.8,0,30.5,5.6,30.5,20.2c0,17.9-17.8,20.9-31.9,20.9
	c-9.1,0-14.4-1-19.5-1.3v45.1c5-0.7,9.7-1.7,19.5-1.7c15.4,0,31.2,3.6,31.2,23.9c0,18.9-12.1,25.8-31.2,25.8
	c-11.8,0-21.5-2.6-27.9-10.3c-6.4-6-9.4-15.2-9.1-27.5H25.3C23.6,193,24,265.9,129,265.9c49.7,0,76.1-18.7,88.6-39.5V265H282V116.6
	h0.6L321,265h50.7l38.4-148.4h0.6V265H475V33.7L378.2,33.6L378.2,33.6L378.2,33.6L378.2,33.6z M188.9,139.4v-0.7
	c0-0.8,21.9-1.1,28.8-30.2v49.3C206.3,141.8,188.9,141.2,188.9,139.4z"/>
</svg>
