<?xml version="1.0" encoding="utf-8"?>
<!-- Generator: Adobe Illustrator 19.1.0, SVG Export Plug-In . SVG Version: 6.00 Build 0)  -->
<svg version="1.1" id="Calque_2" xmlns="http://www.w3.org/2000/svg" xmlns:xlink="http://www.w3.org/1999/xlink" x="0px" y="0px"
	 viewBox="0 0 500 500" style="enable-background:new 0 0 500 500;" xml:space="preserve">
<style type="text/css">
	.st0{fill:#003F7D;}
	.st1{fill:#87888A;}
</style>
<g>
	<path class="st0" d="M189,128.9v85.6c7.4,1,13,7.2,13,14.8c0,7.7-5.6,13.8-13,14.8v36.5h164.3l10.8-15
		C312,223.3,266.4,206,266.4,206l-12.2,15.9c12.3,0,80.2,41,80.2,41l-128-8.6l6.3-80.5c48.6,0,164.2,80.1,171.5,87.5
		c7.5,7.4-1.5,15.9-1.5,15.9l10.8,9.7l19-22.2C300.8,160.2,189,128.9,189,128.9z"/>
	<path class="st0" d="M87.3,216.5l60.2,121.2h9.7l-23.9-76.8l32.2-20.5l5.8,97.3h11.8v-93.8c-6.5-1.7-11.2-7.5-11.2-14.5
		c0-6.9,4.7-12.8,11.2-14.5v-85C183.1,129.9,148,142.5,87.3,216.5z M164.3,216.1l-34.7,22.6l-10-20l41.8-35.5L164.3,216.1z"/>
</g>
<g>
	<polygon class="st1" points="173.8,317.4 157.5,317.4 157.5,348 157.5,364.3 173.8,364.3 328.5,364.3 328.5,348 173.8,348 	"/>
	<path class="st1" d="M173.8,150.2v-128h-16.3v122.8l2.7,0.7C161,146.1,165.9,147.4,173.8,150.2z"/>
	<polygon class="st1" points="214.6,335.8 197.1,335.8 200.7,331.6 216.3,331.6 220,327.3 204.2,327.3 207,324 224.1,324 
		227.8,319.4 200.8,319.4 183,340.6 210.6,340.6 	"/>
	<polygon class="st1" points="227,340.6 238.1,329 241,340.6 251.9,340.6 272.2,319.4 261.3,319.4 250,331.2 247.2,319.4 
		236.4,319.4 216.1,340.6 	"/>
	<polygon class="st1" points="275.2,340.6 286.4,329 289.2,340.6 300.2,340.6 320.5,319.4 309.5,319.4 298.3,331.2 295.5,319.4 
		284.7,319.4 264.3,340.6 	"/>
	<polygon class="st1" points="353.4,324 357.1,319.4 330,319.4 312.3,340.6 339.9,340.6 343.9,335.8 326.4,335.8 329.9,331.6 
		345.6,331.6 349.3,327.3 333.5,327.3 336.3,324 	"/>
	<path class="st1" d="M152.6,257.7c-0.4,0.5-0.5,1-0.5,1.5c0,0.6,0.3,1.3,0.7,1.9c0.5,0.6,1.2,1,2.1,1c0.5,0,1.1-0.2,1.7-0.5
		c0.5-0.4,1.1-0.8,1.5-1.4l-3.4-4.2C153.6,256.7,152.9,257.3,152.6,257.7z"/>
	<path class="st1" d="M168.1,256c0-6.9-5.6-12.6-12.6-12.6s-12.6,5.6-12.6,12.6c0,6.9,5.6,12.6,12.6,12.6S168.1,262.9,168.1,256z
		 M161.5,263.9c-0.7-0.5-1.5-1.2-2.4-2.1c-0.6,0.6-1.3,1.2-2,1.5c-0.7,0.4-1.5,0.5-2.4,0.5c-1.5,0-2.8-0.5-3.7-1.5
		c-0.7-0.8-1.1-1.8-1.1-2.8c0-0.9,0.3-1.8,0.9-2.6c0.6-0.7,1.5-1.4,2.7-2c-0.7-0.8-1.1-1.5-1.4-1.9c-0.3-0.5-0.4-1-0.4-1.4
		c0-0.9,0.4-1.7,1.1-2.4c0.7-0.6,1.6-1,2.7-1c1,0,1.9,0.3,2.6,1c0.6,0.6,1,1.4,1,2.3c0,1.5-0.9,2.6-2.8,3.6l2.7,3.5
		c0.3-0.5,0.5-1.3,0.7-2.1l1.9,0.5c-0.4,1.3-0.8,2.4-1.4,3.3c0.7,0.9,1.5,1.7,2.4,2.4L161.5,263.9z"/>
	<path class="st1" d="M154.6,252.9l0.8,1c0.8-0.5,1.4-0.9,1.5-1.3c0.2-0.4,0.4-0.7,0.4-1.2c0-0.5-0.2-0.9-0.5-1.3
		c-0.4-0.4-0.7-0.5-1.2-0.5s-0.9,0.2-1.3,0.5c-0.4,0.4-0.5,0.7-0.5,1.2c0,0.2,0.1,0.5,0.2,0.7C154.1,252.4,154.3,252.6,154.6,252.9z
		"/>
</g>
<g>
	<path class="st1" d="M453.5,249.3c-1.5-8-1.9-16.1-4.3-23.8c-7.4-31-21.6-58.3-38.8-80c-17.2-21.9-37.4-37.9-56.9-49.1
		c-19.5-11.1-38-18.2-53.7-21.6c-7.7-2.3-14.9-3.1-21.1-4c-3.1-0.5-5.9-0.8-8.6-1.2c-2.6-0.1-5-0.2-7.2-0.3
		c-8.7-0.4-13.2-0.5-13.2-0.5s4.6,0.3,13.2,0.8c2.2,0.1,4.6,0.3,7.2,0.5c2.6,0.5,5.5,0.8,8.6,1.4c6.2,1,13.3,2,21,4.3
		c15.7,3.6,33.9,11,53,22.3c19,11.4,38.8,27.7,55.7,49.2c16.9,21.5,30.7,48.5,37.8,79c2.3,7.6,2.6,15.6,4,23.4
		c0.7,7.9,1.1,16.2,1.2,24.2c-0.7,16.7-2.1,33.3-6.9,49.7c-8.4,33.2-26.8,64.5-51.7,90.2c-25.4,25.1-57.7,44.4-93,52.9
		c-17.5,4.9-35.8,6.6-53.7,6.5c-9.1-0.5-18.3-0.6-27.1-2.3c-8.9-1-17.6-3.5-26.2-5.6c-17-5.4-33.6-12-48.4-21.6
		c-7.7-4.2-14.4-9.8-21.4-14.9c-3.4-2.6-6.5-5.7-9.7-8.6c-3.2-2.9-6.5-5.6-9.2-8.9c-23.5-24.7-40.4-54.3-48.5-84.5
		c-2-7.6-4.1-15-4.9-22.6c-0.5-3.7-1.2-7.5-1.7-11.2c-0.2-3.7-0.4-7.5-0.5-11.1c-0.1-3.6-0.5-7.4-0.5-10.8c0.2-3.6,0.5-7.3,0.7-10.8
		c0.3-3.6,0.5-7.1,0.7-10.7l0.4-5.2l1-5c1.4-6.7,2.7-13.2,4.1-19.6c1.5-6.4,4.2-12.2,6.1-18.2c1-2.9,2-5.8,3-8.7
		c1.1-2.8,2.6-5.5,3.9-8.1c2.6-5.3,5.3-10.4,7.7-15.4c6.1-9.3,11.8-18.1,17.8-25.6c6.6-7.1,12.1-14,18-19.5
		c6.1-5.2,11.5-9.9,16.2-13.9c4.8-3.9,9.6-6.5,13.1-8.9c7.2-4.7,11-7.2,11-7.2s-3.9,2.4-11.2,6.9c-3.6,2.4-8.3,4.9-13.3,8.7
		c-4.8,4-10.3,8.6-16.5,13.8c-6,5.4-11.7,12.3-18.4,19.3c-6.2,7.5-12,16.2-18.3,25.5c-2.6,5-5.3,10.1-8.1,15.4
		c-1.4,2.6-2.9,5.3-4.1,8.1c-1.1,2.9-2.1,5.8-3.2,8.7c-2,5.9-4.6,11.9-6.3,18.4c-1.4,6.5-2.8,13.2-4.3,20l-1.1,5.1l-0.4,5.2
		c-0.3,3.5-0.5,7-0.7,10.7c-0.3,3.6-0.5,7.2-0.8,10.8c-0.2,3.8,0.3,7.4,0.4,11.2c0.2,3.7,0.4,7.5,0.5,11.3c0.5,3.7,1.1,7.6,1.7,11.4
		c0.8,7.7,2.9,15.3,4.9,23c8.1,30.8,25.1,60.9,48.8,86.3c2.8,3.4,6.1,6.2,9.3,9.2c3.3,2.9,6.4,6,9.8,8.7c7.1,5.2,13.9,11,21.8,15.3
		c15,9.8,32,16.8,49.3,22.3c8.8,2.3,17.7,4.9,26.9,5.9c9.2,1.8,18.3,2,27.4,2.6c18.6,0.2,37.3-1.4,55.2-6.4
		c36.2-8.9,69.1-29,94.9-54.7c25.3-26.3,43.9-58.5,52.2-92.3c4.8-16.8,6.2-34.1,6.7-50.6C454.7,265.6,454.4,257.4,453.5,249.3z"/>
	<path class="st1" d="M169.3,447.6c3.4,1.7,7.2,3.7,11.8,5.2c4.6,1.6,9.7,3.5,15.1,5.4c5.5,2,11.8,2.8,18.4,4.4
		c3.3,0.6,6.7,1.5,10.3,2.1c3.6,0.3,7.2,0.5,11,0.9c3.7,0.3,7.7,0.5,11.6,0.9c4.1,0.4,8.1-0.2,12.3-0.3c16.7-0.3,34.7-3.7,52.9-9.6
		c18.4-5.6,36.4-15.3,53.4-27.7c16.9-12.5,32.5-27.9,44.9-46.1c12.5-18.2,22-38.7,27.9-60.3c3.1-10.8,4.6-22,5.8-33.1l0.8-16.5
		c-0.1-5.7-0.5-11.1-0.8-16.7c-1.9-22-7.5-43.2-15.8-62.4c-8.3-19.3-20-36.1-32.7-50.5c-12.5-14.6-27.1-25.7-41-34.8
		c-7.1-4.3-13.9-8.6-21-11.5c-3.5-1.5-6.7-3.3-10.1-4.6c-3.4-1.2-6.7-2.4-9.9-3.5c-6.3-2.5-12.6-3.7-18.2-5.1
		c-5.6-1.5-11-2.4-15.8-2.9c-9.6-1.6-17.2-1.7-22.4-1.9c-5.2-0.2-7.9-0.3-7.9-0.3s2.7,0.2,7.9,0.5c5.2,0.3,12.8,0.5,22.2,2.6
		c4.7,0.7,10,1.6,15.6,3.4c5.6,1.5,11.8,2.9,17.9,5.6c3.1,1.2,6.4,2.5,9.7,3.7c3.3,1.4,6.5,3.2,9.9,4.7c6.8,3.1,13.6,7.3,20.5,11.7
		c13.6,9.2,27.7,20.4,39.8,34.9c12.1,14.3,23.4,30.9,31.4,49.8c8,18.9,13.3,39.5,15,61c0.3,5.4,0.5,10.7,0.7,16l-0.9,16.5
		c-1.3,10.8-2.7,21.5-5.8,32c-5.6,21-14.8,41.2-26.9,58.9c-12,17.9-27.2,33-43.6,45.2c-16.5,12-34.1,21.9-51.9,27.7
		c-17.8,6-35.4,9.7-51.8,10.2c-4.1,0.2-8.2,0.7-12,0.5c-3.9-0.2-7.8-0.5-11.6-0.6c-3.7-0.2-7.5-0.4-11-0.5
		c-3.6-0.5-6.8-1.2-10.2-1.8c-6.6-1.4-12.8-2-18.3-3.8c-5.6-1.8-10.6-3.5-15.2-4.9c-4.6-1.3-8.6-3.2-11.9-4.8s-6.3-3-8.6-4.1
		c-4.6-2.3-7.2-3.5-7.2-3.5s2.5,1.3,7.1,3.6C163.1,444.4,165.9,445.9,169.3,447.6z"/>
</g>
</svg>
