<?xml version="1.0" encoding="utf-8"?>
<!-- Generator: Adobe Illustrator 15.0.0, SVG Export Plug-In . SVG Version: 6.00 Build 0)  -->
<!DOCTYPE svg PUBLIC "-//W3C//DTD SVG 1.1//EN" "http://www.w3.org/Graphics/SVG/1.1/DTD/svg11.dtd">
<svg version="1.1" id="Calque_1" xmlns="http://www.w3.org/2000/svg" xmlns:xlink="http://www.w3.org/1999/xlink" x="0px" y="0px"
	 width="500px" height="500px" viewBox="0 0 500 500" enable-background="new 0 0 500 500" xml:space="preserve">
<g>
	<path fill="#008F39" d="M417.579,199.046C357.345,74.309,251.234,28.417,251.234,28.417s-91.961,65.315-127.617,120.453
		c-25.922,40.058-77.427,84.591-90.336,262.383c0,0,80.292,60.233,202.179,63.1c121.886,2.865,233.699-60.234,233.699-60.234
		S477.783,323.798,417.579,199.046z M440.503,398.359c0,0-91.784,48.757-193.582,48.757c-101.799,0-176.36-35.862-189.27-50.189
		c-12.909-14.343,27.547-143.2,44.459-174.942c30.25-56.808,120.438-162.018,147.676-163.45
		c87.471,34.415,122.152,106.643,145.785,147.203C451.02,331.921,440.503,398.359,440.503,398.359z"/>
	<path fill="#008F39" d="M225.947,276.28h-23.751l-9.482-22.584h-43.839l-9.069,22.584h-23.367l42.303-99.109h23.279L225.947,276.28
		z M185.534,237.021l-15.243-36.749l-14.74,36.749H185.534z"/>
	<path fill="#008F39" d="M292.444,177.171h43.632c8.626,0,15.066,0.324,19.32,0.975c4.224,0.65,8.005,2.009,11.373,4.076
		c3.338,2.098,6.145,4.846,8.36,8.302c2.215,3.456,3.338,7.312,3.338,11.595c0,4.638-1.359,8.906-4.106,12.776
		c-2.747,3.885-6.47,6.794-11.166,8.729c6.646,1.758,11.757,4.756,15.302,8.995c3.574,4.225,5.348,9.217,5.348,14.933
		c0,4.505-1.123,8.892-3.457,13.146c-2.304,4.254-5.436,7.666-9.424,10.206c-4.018,2.54-8.95,4.106-14.77,4.697
		c-3.693,0.354-12.556,0.591-26.588,0.679h-37.162V177.171z M314.511,193.655v22.938h14.386c8.567,0,13.885-0.104,15.982-0.34
		c3.752-0.413,6.705-1.595,8.862-3.545c2.156-1.964,3.22-4.549,3.22-7.754c0-3.058-0.916-5.568-2.777-7.488
		c-1.86-1.906-4.607-3.072-8.271-3.486c-2.156-0.207-8.448-0.325-18.787-0.325H314.511z M314.511,233.092v26.512h20.383
		c7.946,0,12.998-0.191,15.125-0.605c3.25-0.531,5.938-1.861,8.006-3.958c2.038-2.098,3.072-4.904,3.072-8.418
		c0-2.984-0.798-5.495-2.393-7.593c-1.565-2.067-3.87-3.574-6.884-4.52c-2.983-0.945-9.512-1.418-19.526-1.418H314.511z"/>
	<path fill="#008F39" d="M276.491,388.832l21.329,6.101c-3.279,10.855-8.744,18.921-16.366,24.179
		c-7.651,5.273-17.37,7.902-29.098,7.902c-14.534,0-26.469-4.505-35.833-13.485c-9.365-9.01-14.062-21.299-14.062-36.896
		c0-16.499,4.727-29.305,14.121-38.448c9.395-9.128,21.771-13.692,37.074-13.692c13.382,0,24.253,3.59,32.613,10.754
		c4.992,4.254,8.715,10.339,11.195,18.285l-21.859,4.668c-1.301-5.155-3.988-9.217-8.095-12.201
		c-4.106-2.983-9.099-4.475-14.978-4.475c-8.094,0-14.682,2.644-19.733,7.932c-5.021,5.287-7.562,13.854-7.562,25.7
		c0,12.556,2.481,21.506,7.474,26.838c4.993,5.333,11.492,7.991,19.468,7.991c5.879,0,10.96-1.698,15.185-5.096
		C271.617,401.49,274.66,396.129,276.491,388.832z"/>
	<polyline fill="#008E39" points="239.92,126.479 222.136,106.864 281.307,106.864 264.764,124.647 263.819,165.104 
		253.715,170.318 265.059,171.529 264.439,176.433 255.842,180.568 254.956,183.183 265.059,182.578 263.523,188.397 
		255.251,192.991 265.059,194.836 263.819,200.346 254.631,205.25 265.059,206.771 263.819,213.537 255.547,217.509 
		264.439,218.736 263.819,226.401 255.251,230.08 264.439,232.531 263.523,236.194 253.715,242.944 261.692,244.48 260.45,248.764 
		254.04,253.978 260.45,257.345 252.179,263.785 243.287,252.441 244.528,244.791 239.299,239.886 242.371,232.827 238.383,226.711 
		242.371,220.877 238.088,215.664 241.455,209.843 237.793,202.193 242.076,196.668 237.172,191.455 242.667,185.325 
		237.172,179.209 242.667,174.306 239.004,168.471 239.92,125.874 	"/>
	<polyline fill="#008E39" points="394.065,353.265 420.09,348.391 389.131,398.787 382.662,375.391 348.66,353.442 349.517,342.099 
		342.545,351.108 338.675,348.036 339.651,338.554 337.907,336.396 333.151,345.348 328.956,340.99 329.4,331.537 322.664,338.938 
		318.647,335.009 319.267,324.61 312.502,332.675 307.391,328.096 308.336,318.968 302.635,325.909 296.432,321.36 297.79,312.129 
		290.878,318.687 288.219,315.983 287.599,304.094 282.134,310.075 279.12,306.797 278.057,298.584 271.824,302.307 
		270.643,291.878 284.97,290.254 290.848,295.29 297.761,293.415 302.162,299.722 309.459,299.529 312.354,305.97 319.031,305.039 
		322.221,310.962 330.699,311.849 333.151,318.377 340.153,316.929 342.487,324.847 350.61,323.34 351.88,330.606 358.763,330.519 
		394.596,353.59 	"/>
	<polyline fill="#008E39" points="123.336,376.883 115.729,402.243 85.155,351.61 108.935,356.573 144.03,336.456 153.719,342.423 
		148.904,332.084 153.424,330.075 161.4,335.304 164.117,334.713 158.357,326.382 164.117,324.669 172.33,329.381 168.844,320.031 
		174.191,318.229 183.142,323.576 179.065,313.856 185.476,311.42 193.186,316.456 189.612,308.2 196.494,304.773 204.086,310.224 
		201.428,301.065 205.061,299.958 215.903,304.876 213.096,297.255 217.38,296.088 225.179,298.909 224.736,291.642 
		234.543,295.408 229.403,308.879 222.225,311.789 220.718,318.79 213.096,319.81 209.906,326.382 202.875,325.998 200.63,332.35 
		193.895,332.468 189.227,339.587 182.315,338.76 180.365,345.658 172.271,344.106 169.878,351.994 162.847,349.809 
		159.745,355.953 122.804,377.192 	"/>
</g>
</svg>
