<?xml version="1.0" encoding="utf-8"?>
<!-- Generator: Adobe Illustrator 21.0.2, SVG Export Plug-In . SVG Version: 6.00 Build 0)  -->
<svg version="1.1" id="Calque_2" xmlns="http://www.w3.org/2000/svg" xmlns:xlink="http://www.w3.org/1999/xlink" x="0px" y="0px"
	 viewBox="0 0 500 400" style="enable-background:new 0 0 500 400;" xml:space="preserve">
<style type="text/css">
	.st0{fill:#FFFFFF;}
	.st1{fill:#003F8A;}
</style>
<path class="st0" d="M406.5,354.8c-23.5,0-33.9-21.1-34-21.3l-0.2-0.3v-28.1c0.2-0.8,2.9-10.6,19.6-10.6c1.7,0,3.2,0.1,4.7,0.2
	c-26.3-14-27.2-34-26.6-40.8V253c-1.9-16.5,0.9-29.6,8.2-37.8c5.6-6.3,13.7-9.4,24-9.4c38.9,0,54.2,32.4,54.4,32.7l0.1,0.3v21.5
	l-0.2,0.4c-3,5.2-10.6,6.2-16.4,6.2c0,0-0.6,0-1,0l17.6,14.5v40.4C456.8,331.3,430,354.8,406.5,354.8z M414.7,302v5.9l1.3-0.6v-5.2
	c-0.5-0.2-1.1-0.3-1.6-0.5L414.7,302z M417,257.5v-3.3l-3.7-1.9v3.3L417,257.5z"/>
<path d="M402.2,207.2c38.4,0,53,31.8,53,31.8v20.8c-2.6,4.6-9.9,5.5-15,5.5c-3.3,0-5.7-0.4-5.7-0.4l20.8,17.2c0,0,0,31.4,0,39.7
	c0,8.2-25.9,31.4-48.6,31.4s-32.5-20.4-32.5-20.4V305c0,0,2.4-9,18-9c15.7,0,21,6.7,21,6.7v7.8l4.4-2V301
	c-51-14.1-45.9-45.9-45.9-47.5C371.8,252,363.9,207.2,402.2,207.2 M418.5,260.2v-6.8l-6.8-3.5v6.8L418.5,260.2 M402.2,204.2
	c-10.8,0-19.3,3.4-25.2,10c-7.6,8.5-10.5,22-8.6,39l0.1,0.6c-0.5,6.5,0.2,25,22.1,39.2c-16.6,0.6-19.5,10.9-19.6,11.4l-0.1,0.4v0.4
	V333v0.7l0.3,0.6c0.4,0.9,10.9,22.2,35.4,22.2c24.1,0,51.8-24.5,51.8-34.5v-39.7v-1.5l-1.1-0.9l-13.8-11.4
	c7.2-0.5,12.2-2.9,14.5-6.9l0.4-0.7v-0.8v-21v-0.7l-0.3-0.6C457.9,237.3,442.2,204.2,402.2,204.2L402.2,204.2z"/>
<path class="st1" d="M346.5,166.4c-14.1-19.2-16.1-18-16.1-18s-3.9-42-28.2-58.8C277.9,72.7,275.5,70,275.5,70s3.9-7.5,4.7-11.4
	s3.9-7.8,4.7-9.4s5.9-23.1-26.3-28.6c0,0-6.3-2-16.1,2c-9.8,3.9-9.8,5.1-14.1,7.8c-4.3,2.8-2.7,9-4.3,13.7s-1.6,11.4,0,14.5
	s1.6,3.1,1.6,3.1s-9.4-3.9-18,0s-12.2,7.8-12.2,7.8s-13.7,9-24.3,14.9s-13.7,25.1-14.1,34.1c0,0-12.5,24.7-22.7,33.7
	s-21.6,14.5-21.6,14.5s-3.5,3.5-3.9,7.1c0,0-22.4,12.3-16.1,25.4s7.5,26,28.6,20.9c21.2-5.1,67.1-15.3,81.6-18s46.7-4.7,46.7-4.7
	l36.5,18.4l62.4-12.2C348.5,203.8,360.7,185.7,346.5,166.4z M218,163.8c-6.3,3.1-1.6,12.2-11.4,16.5c-9.8,4.3-34.1,7.1-44.3,6.3
	S145,174.4,145,174.4s12.5-20,16.9-23.5c4.3-3.5,7.1-16.1,12.9-22c5.9-5.9,10.2-14.1,10.2-14.1l21.6,2.7l18,39.2
	C224.7,156.7,224.2,160.6,218,163.8z"/>
<path class="st0" d="M305,377.3c-9.7,0-16.2-3.4-16.4-3.6l-0.8-0.4v-158c0-0.3-1.1-10.8,6.3-19.1c5.5-6.2,14.2-9.3,25.8-9.3
	c32.9,0,53.3,22.8,53.3,43.9v130.3l-0.7,0.5c-0.5,0.3-13.4,8.1-22.8,8.1c-9.2,0-17.8-2.7-18.1-2.8l-1.1-0.3v-35.3H328V366l-0.5,0.5
	C327,367,314.9,377.3,305,377.3z M330.5,289.2v-58.5l-1.6-1.3v59.8H330.5z"/>
<path d="M319.9,188.4c33.5,0,51.8,23.1,51.8,42.4s0,129.4,0,129.4s-12.9,7.8-22,7.8c-9,0-17.6-2.7-17.6-2.7v-35.7h-5.5v35.7
	c0,0-12.2,10.5-21.6,10.5s-15.7-3.4-15.7-3.4V215.2C289.4,215.2,286.5,188.4,319.9,188.4 M327.4,290.8h4.7V230l-4.7-3.9V290.8
	 M319.9,185.3c-12,0-21.1,3.3-27,9.8c-7.4,8.3-6.9,18.7-6.7,20.3v156.9v1.9l1.7,0.9c0.3,0.1,7.1,3.8,17.2,3.8
	c10.5,0,23.1-10.8,23.6-11.2l0.3-0.3v0.2l2.2,0.7c0.4,0.1,9.2,2.9,18.6,2.9c9.8,0,23-8,23.6-8.3l1.5-0.9v-1.8V230.8
	C374.8,209,353.9,185.3,319.9,185.3L319.9,185.3z"/>
<path class="st0" d="M283.9,214.8c0-25.9-26.7-32.6-40-32.6s-43.9,2-43.9,2V372c0,0,11.4,6.3,25.5,6.3s14.9-4.3,14.9-4.3v-70.6h5.1
	v74.9c0,0,6.3,0,16.9,0c10.6,0,21.6-6.3,21.6-6.3v-81.6l-5.1-8.3l5.1-10.5C283.9,271.5,283.9,240.7,283.9,214.8z M244.7,262.5
	c0,3.9-5.1,0-5.1,0V223h5.1C244.7,223,244.7,258.7,244.7,262.5z"/>
<path d="M262.2,379.8h-18.4v-74.9h-2v69c-0.2,1.2-1.8,5.9-16.5,5.9c-14.4,0-25.8-6.2-26.3-6.5l-0.8-0.4V182.7l1.5-0.1
	c0.3,0,30.8-2,44-2c14.4,0,41.6,7.1,41.6,34.1l-0.2,57.5l-4.7,9.7l4.9,7.9v82.9l-0.8,0.4C284.2,373.6,273.2,379.8,262.2,379.8z
	 M247,376.6h15.3c8.5,0,17.4-4.3,20-5.6v-80.2l-5.3-8.7l5.3-11v-56.5c0-24.5-25.2-31-38.5-31c-11.5,0-36.1,1.5-42.4,1.9V371
	c2.8,1.4,12.5,5.7,23.9,5.7c10.8,0,13-2.5,13.3-3.1v-71.8h8.2L247,376.6L247,376.6z M243.2,265.8c-1.9,0-4.3-1.7-4.7-2.1l-0.6-0.5
	v-41.9h8.2v41.2C246.2,265,244.7,265.8,243.2,265.8z M241,261.8c0.7,0.4,1.5,0.8,2,1v-0.1v-38h-2V261.8z"/>
<path class="st0" d="M198,268c0-11,0-56.5,0-56.5s-4.3-23.1-31.4-23.1s-53.7,14.5-53.7,14.5v158.4c0,0,15.3,10.6,35.7,12.9
	c20.4,2.4,49.4,5.9,49.4-26.7s0-54.5,0-54.5s-3.9-10.6-7.8-10.6C190,282.5,198,279,198,268z M158.2,335.8l-5.5-1.8v-33.3h5.5V335.8z
	 M158.2,263h-5.5v-35.1h5.5V263z"/>
<path d="M167.2,377.3L167.2,377.3c-6.3,0-12.8-0.7-18.5-1.4c-20.9-2.4-36.1-12.8-36.7-13.3l-0.7-0.5v-160l0.8-0.4
	c1.1-0.6,27.3-14.7,54.5-14.7c28,0,32.9,24.2,32.9,24.4v56.8c0,7.8-3.6,12.2-6.2,14.3c3.1,2.6,5.4,8.2,6.1,10.3l0.1,0.5v54.5
	c0,11.1-3.4,19.2-10.1,24.1C184.2,375.5,177,377.3,167.2,377.3z M114.5,360.5c3.1,2,16.9,10.2,34.3,12.2c6,0.7,12.4,1.4,18.5,1.4
	c9.1,0,15.7-1.6,20.4-5c5.9-4.3,8.8-11.3,8.8-21.5v-54.2c-1.7-4.5-4.6-9.3-6.3-9.3h-7.3l6.7-3c0.3-0.1,6.9-3.3,6.9-13.1v-56.5
	c-0.1-0.6-4.4-21.6-29.8-21.6c-23.7,0-47.5,11.5-52.2,13.9L114.5,360.5L114.5,360.5z M159.8,338l-8.6-2.8v-36h8.6V338z M154.2,333
	l2.4,0.8v-31.4h-2.4V333z M159.8,264.5h-8.6v-38.2h8.6V264.5z M154.2,261.3h2.4v-32h-2.4V261.3z"/>
<path class="st0" d="M74.5,207.2c-32.5,0-47.8,22.7-47.8,33.3c0,10.6,0,98,0,98l38.8,13v-29.8h6.3V355l37.6,10.2V232.8
	C109.4,232.8,107,207.2,74.5,207.2z M69.8,282h-5.9v-25.8l5.9-6.3V282z"/>
<path d="M110.9,367.3l-40.8-11v-33H67v30.4l-42-14v-99.2c0-12.2,17-34.9,49.4-34.9c33.1,0,36.3,25.8,36.5,26.9V367.3z M73.2,354
	l34.5,9.3V232.8c-0.2-1.7-3.5-24-33.3-24c-32.5,0-46.3,22.7-46.3,31.8v96.9l35.7,11.9v-29.2h9.4V354L73.2,354z M71.2,283.7h-9v-28
	l9-9.6V283.7z M65.4,280.5h2.7V254l-2.7,2.9V280.5z"/>
<path d="M463,237.2c-6.6,0-12-5.4-12-12s5.4-12,12-12s12,5.4,12,12C475,232,469.7,237.2,463,237.2z M463,215
	c-5.7,0-10.4,4.7-10.4,10.4c0,5.7,4.7,10.4,10.4,10.4s10.4-4.7,10.4-10.4C473.5,219.5,468.8,215,463,215z"/>
<path d="M459.7,232.2V219h4.7c0.9,0,1.7,0.1,2.1,0.3c0.5,0.2,0.9,0.7,1.2,1.2c0.3,0.6,0.4,1.3,0.4,2c0,0.9-0.2,1.7-0.7,2.4
	c-0.5,0.6-1.2,1.1-2.2,1.2c0.4,0.2,0.6,0.4,0.8,0.6c0.4,0.5,0.8,1.1,1.2,1.7l1.8,3.6h-1.8l-1.4-2.7c-0.4-0.8-0.7-1.4-1-1.8
	s-0.5-0.7-0.7-0.9c-0.2-0.1-0.4-0.3-0.6-0.3s-0.4-0.1-0.8-0.1h-1.6v5.8L459.7,232.2L459.7,232.2L459.7,232.2z M461,224.8h3
	c0.6,0,1.1-0.1,1.5-0.2c0.4-0.2,0.6-0.4,0.8-0.8c0.2-0.4,0.3-0.8,0.3-1.2c0-0.6-0.2-1.1-0.5-1.5c-0.4-0.4-0.9-0.6-1.7-0.6h-3.3
	L461,224.8L461,224.8L461,224.8z"/>
<path d="M420.7,273.2c-15.3-3.3-20.6-10.6-20.6-13.1s0-17.5,0-17.5s3.5-6.5,8-6.5s22.2,11,22.2,11v3.9l12,1.8v-10
	c0,0-21.8-21.4-37.8-21.4c-16.1,0-19.4,15.1-19.4,22.3c0,7.2,0,22.9,0,22.9s8.6,13.1,23.1,17.5c14.5,4.3,21.2,8,21.2,8v23.7
	c0,0-14.9,8-19.6,8s-9-2.9-9-2.9v-13.1c0,0-1.6-1.6-6.5-1.6s-7.8,5.3-7.8,5.3v15.9c0,0,4.7,12.5,20.2,12.5s37.1-17.3,37.1-22.7
	s0-29.8,0-29.8S436,276.5,420.7,273.2z"/>
<path d="M324.7,200.7c-20.6,0-23.7,9.2-23.7,9.2v152.9c0,0,13.9-0.2,13.9-6.1s0-34.7,0-34.7s5.2-5.7,15.6-5.7s13.2,2.9,13.2,2.9
	v35.3c0,0,10,0.6,14.5-2.7V225.2C358.2,225.2,345.2,200.7,324.7,200.7z M343.9,295.1c0,0-8,9-16.1,9s-12.5-8-12.5-8V223
	c0,0,1.8-9,10.8-9s17.8,13.9,17.8,13.9L343.9,295.1L343.9,295.1z"/>
<path d="M265.8,283.5v-3.3c0,0,5.9-8.6,5.9-13.9s0-53.5,0-53.5s-5-17.7-20.2-17.7c-15.3,0-38.2,0.8-38.2,0.8
	c0.6-0.2,0,166.9,0,166.9s4.1,3.9,8.2,3.9s6.7-1.4,6.7-1.4v-74.9h29.4v76.3c0,0,14.1-0.2,14.1-5.5s0-66.3,0-66.3
	S269,283.5,265.8,283.5z M257.2,268.8c0,0-7.8,6.9-15.1,6.9s-14.9-5.7-14.9-5.7v-53.7c0,0,6.9-7.5,14.9-7.5s15.1,7.5,15.1,7.5V268.8
	z"/>
<path d="M165.8,201.6c-15.9,0-40,8.8-40,8.8V354c0,0,35.1,11.2,43.7,11.2s14.9-10.8,14.9-15.5s0-54.9,0-54.9s-1.8-10.8-7.6-12
	c0,0,7.6-6.9,7.6-13.5c0-6.7,0-54.3,0-54.3S181.7,201.6,165.8,201.6z M169.8,344.3c0,0-6.3,3.9-14.1,3.9s-14.1-7.5-14.1-7.5V293
	c0,0,6.7-3.3,14.1-3.3s14.1,5.9,14.1,5.9V344.3z M169.8,268.5c0,0-8,6.9-14.6,6.9s-13.6-4.1-13.6-4.1s0-40.2,0-47.2
	s13.9-8.2,13.9-8.2c12.3,0,14.3,7.3,14.3,7.3L169.8,268.5L169.8,268.5z"/>
<path d="M74.7,221.3C56.5,221.3,39,241,39,241v86.9l14.3,5.5v-26.1l30.4,4.5v33.1l12.7,3.3v-114C96.4,234.2,92.9,221.3,74.7,221.3z
	 M82.2,296.6l-30.4-2.9V250c0,0,14.3-12.4,21.4-12.4s9,6,9,6V296.6L82.2,296.6z"/>
</svg>
