<?xml version="1.0" encoding="utf-8"?>
<!-- Generator: Adobe Illustrator 19.1.0, SVG Export Plug-In . SVG Version: 6.00 Build 0)  -->
<svg version="1.1" id="Calque_1" xmlns="http://www.w3.org/2000/svg" xmlns:xlink="http://www.w3.org/1999/xlink" x="0px" y="0px"
	 viewBox="175 1.1 500 500" style="enable-background:new 175 1.1 500 500;" xml:space="preserve">
<style type="text/css">
	.st0{fill:#DB0812;}
	.st1{fill:#FFFFFF;}
	.st2{fill:#7C7C7B;}
</style>
<g>
	<path class="st0" d="M272.8,161.4h304.4c36.5,0,66.1,29.6,66.1,66.1v2.6c0,36.5-29.6,66.1-66.1,66.1H272.8
		c-36.5,0.1-66.1-29.5-66.1-66.1v-2.6C206.7,191,236.3,161.4,272.8,161.4"/>
	<path class="st1" d="M274.2,172.7h301.7c30.4,0,55.1,24.7,55.1,55.1v1.9c0,30.4-24.6,55.1-55.1,55.1H274.2
		c-30.4,0.1-55.1-24.6-55.1-55.1v-1.9C219,197.4,243.7,172.7,274.2,172.7"/>
	<path class="st0" d="M574.5,181.8H275.6c-25.3,0-45.7,20.5-45.7,45.8v2.4c0,25.3,20.5,45.7,45.7,45.7h298.9
		c25.3,0,45.7-20.5,45.7-45.7v-2.4C620.3,202.3,599.8,181.8,574.5,181.8"/>
	<path class="st1" d="M302.8,234.4l7.3-17.4l7.1,17.4H302.8z M349.8,249.8l-22.2-54.3h-38.7v11.8h4.8l-17.5,42.5h-4.8v11.8h20.4
		c0.1,0.1,6.1-15.3,6.1-15.3h24.2l6.3,15.4h26.3v-11.8L349.8,249.8L349.8,249.8z M403.4,221.2c0,0.8-0.7,1.5-1.5,1.5h-11.5v-15.4
		h11.5c0.8,0,1.5,0.7,1.5,1.5V221.2z M403.4,248.4c0,0.8-0.7,1.4-1.5,1.4h-11.5v-15.3h11.5c0.8,0,1.5,0.7,1.5,1.5V248.4z
		 M429.3,234.4c0-3.2-2.6-5.9-5.9-5.9c3.1,0,5.7-2.5,5.9-5.5v-21.6c0-3.3-2.6-5.9-5.9-5.9h-63.8v11.8h4.8v42.5h-4.9v11.8h63.9
		c3.3,0,5.9-2.6,5.9-5.9V234.4z M513.6,234.4h39v13.9c0,0.8-0.7,1.5-1.4,1.5h-10.1c-0.8,0-1.5-0.7-1.5-1.5v-2h-25.9v9.3
		c0,3.3,2.6,6,5.9,6h53.1c3.2,0,5.9-2.6,5.9-6v-33h-39v-13.9c0-0.8,0.7-1.4,1.5-1.4h10.1c0.8,0,1.4,0.6,1.4,1.4v2.1h26v-9.4
		c0-3.3-2.7-5.9-5.9-5.9h-53.2c-3.2,0-5.9,2.7-5.9,5.9L513.6,234.4L513.6,234.4z M439,255.6c0,3.2,2.6,5.9,5.9,5.9H498
		c3.3,0,5.9-2.7,5.9-5.9l-0.1-48.4h4.9v-11.8h-30.9v52.8c0,0.8-0.7,1.5-1.4,1.5h-10.1c-0.8,0-1.5-0.7-1.5-1.5l0.1-52.7h-30.8v11.8
		h4.8L439,255.6z"/>
	<path class="st2" d="M275.7,334.9c-1.4,0-2.8-0.3-4.2-0.7v-2.6c1.3,0.4,3,0.8,4.2,0.8c2.1,0,3.9-0.7,3.9-3.5c0-2-1.1-3-2.6-4
		l-2.3-1.5c-1.8-1.2-3.4-2.9-3.4-5.5c0-4.5,3.5-5.8,6.4-5.8c1.4,0,2.7,0.3,3.8,0.7v2.5c-1.3-0.5-2.6-0.8-3.8-0.8
		c-2.2,0-3.6,0.8-3.6,3.1c0,1.6,1.1,2.6,2.5,3.5l1.7,1.2c2,1.4,4,3,4,6.3C282.4,333.9,279.2,334.9,275.7,334.9"/>
	<path class="st2" d="M292.2,319.6c-2.1,0-3.3,1-3.5,5.5h6.7C295.5,320.3,294,319.6,292.2,319.6 M288.8,327c0.2,5.3,2.6,5.3,4.3,5.3
		c1.1,0,2.7-0.4,4.4-0.8v2.5c-1.5,0.5-3.1,0.8-4.4,0.8c-3.3,0-7.1-0.7-7.1-8.7c0-7.1,3.1-8.7,6.4-8.7c2.9,0,6,1.2,6,8
		c0,0.5,0,1.1-0.1,1.7L288.8,327L288.8,327z M312.6,334.3c-1.2,0.4-2.4,0.6-3.4,0.6c-2.7,0-7.1-0.7-7.1-8.6c0-8,4.7-8.8,7.2-8.8
		c1.2,0,2.2,0.2,3.2,0.6v2.5c-1-0.4-2.2-0.6-3.1-0.6c-2.1,0-4.5,0.5-4.5,6.4c0,5.4,2.3,6.1,4.2,6.1c0.9,0,2.3-0.3,3.4-0.7V334.3z
		 M326.3,334.6l-0.4-2.2c-1,1-2.9,2.5-5.1,2.5c-2.7,0-4.6-1.2-4.6-4.9v-12.3h2.9v11.6c0,2,0.5,3,2.4,3c1.2,0,2.8-0.7,4.3-1.8v-12.8
		h2.9v16.8L326.3,334.6L326.3,334.6z M341.5,320.7c-0.6-0.2-1.3-0.3-2.1-0.3c-1.1,0-2,0.6-2.6,1.3v12.8H334v-16.8h2.2l0.4,2.2
		c0.6-1.2,1.7-2.5,3.5-2.5c0.4,0,0.9,0.1,1.4,0.2V320.7L341.5,320.7z M345.1,317.7h2.9v16.8h-2.9V317.7z M346.6,315.2
		c-1.1,0-1.9-0.8-1.9-1.9s0.8-1.9,1.9-1.9c1,0,1.8,0.9,1.8,1.9C348.4,314.3,347.6,315.2,346.6,315.2"/>
	<path class="st2" d="M361.7,334.3c-0.9,0.3-2.2,0.6-3.5,0.6c-2.4,0-3.8-0.9-3.8-4.2v-10.7h-2.9v-2.2h2.9l0.1-3.8l2.7-1.3v5h3.8
		l-0.3,2.2h-3.5v10.8c0,1.5,0.5,1.7,1.6,1.7c0.7,0,1.7-0.3,2.9-0.5V334.3L361.7,334.3z M377.6,317.7l-5.5,18.7
		c-1.2,4-3.1,4.5-4.9,4.5c-1.4,0-2.9-0.5-2.9-0.5v-2.4c0,0,2,0.4,2.8,0.4c1,0,1.8-0.6,2.4-3.1l0.2-0.8l-6.3-16.8h3.4l4.2,13.5
		l3.3-13.5L377.6,317.7L377.6,317.7z M400.6,315h-5.1v19.6h-2.8V315h-5.4v-2.7h13.7L400.6,315z M407.2,319.6c-2.1,0-3.3,1-3.5,5.5
		h6.7C410.4,320.3,408.9,319.6,407.2,319.6 M403.7,327c0.2,5.3,2.6,5.3,4.3,5.3c1.1,0,2.7-0.4,4.4-0.8v2.5c-1.5,0.5-3.1,0.8-4.4,0.8
		c-3.3,0-7.1-0.7-7.1-8.7c0-7.1,3.1-8.7,6.4-8.7c2.9,0,6,1.2,6,8c0,0.5,0,1.1-0.1,1.7L403.7,327L403.7,327z M427.5,334.3
		c-1.2,0.4-2.4,0.6-3.4,0.6c-2.7,0-7.1-0.7-7.1-8.6c0-8,4.7-8.8,7.2-8.8c1.2,0,2.2,0.2,3.2,0.6v2.5c-1-0.4-2.2-0.6-3.1-0.6
		c-2.1,0-4.5,0.5-4.5,6.4c0,5.4,2.3,6.1,4.2,6.1c0.9,0,2.3-0.3,3.4-0.7V334.3z M441.4,334.6v-12.2c0-2.2-1.1-2.3-2.7-2.3
		s-3.4,0.9-4.6,1.7v12.8h-2.9v-22.8h2.9v8.1c0.9-0.8,3-2.4,5.3-2.4c2.8,0,4.8,1.1,4.8,5v12.1L441.4,334.6L441.4,334.6z M466.2,334.9
		c-3.8,0-7.5-1.3-7.5-11.4c0-10,5.5-11.5,9-11.5c1.5,0,3.2,0.3,4.7,1v2.5c-1.8-0.7-3.3-1-4.7-1c-2.9,0-6.1,1.4-6.1,8.9
		s2.3,8.9,4.8,8.9c1.2,0,2.6-0.3,3.8-0.6v-8.1h-3.5v-2.4h6.4v12.4C471.6,334,468.7,334.9,466.2,334.9"/>
	<path class="st2" d="M483.9,319.6c-2.1,0-3.3,1-3.5,5.5h6.7C487.1,320.3,485.6,319.6,483.9,319.6 M480.3,327
		c0.2,5.3,2.7,5.3,4.3,5.3c1.1,0,2.7-0.4,4.4-0.8v2.5c-1.5,0.5-3.1,0.8-4.4,0.8c-3.3,0-7.1-0.7-7.1-8.7c0-7.1,3.1-8.7,6.3-8.7
		c2.9,0,6.1,1.2,6.1,8c0,0.5,0,1.1-0.1,1.7L480.3,327L480.3,327z M502,320.7c-0.6-0.2-1.3-0.3-2.1-0.3c-1.1,0-2,0.6-2.6,1.3v12.8
		h-2.9v-16.8h2.2l0.4,2.2c0.6-1.2,1.7-2.5,3.5-2.5c0.4,0,1,0.1,1.4,0.2L502,320.7L502,320.7z M524,334.6v-12.3c0-2-1-2.3-2.2-2.3
		c-1.3,0-3,0.9-4.1,1.6v12.9h-2.9v-12.3c0-2-0.9-2.3-2.2-2.3c-1.5,0-3.1,0.9-4.1,1.6v12.9h-2.9v-16.8h2.1l0.6,2c1-1,3-2.4,5-2.4
		c2,0,3.7,0.8,4.1,2.5c0.8-0.8,2.9-2.5,5.2-2.5c2.7,0,4.3,1.1,4.3,5v12.1L524,334.6L524,334.6z M540.2,325.9h-2.1
		c-2.6,0.1-4.3,0.6-4.3,3.4c0,2.8,1.2,3.2,2.7,3.2c1.3,0,2.6-0.8,3.6-1.7V325.9L540.2,325.9z M540.7,334.6l-0.4-2
		c-0.8,1.1-2.3,2.3-4.4,2.3c-2.1,0-4.9-0.7-4.9-5.3c0-4.6,3.5-5.4,6.4-5.4h2.8v-1.8c0-2.3-1.2-2.5-3.2-2.5c-1.5,0-4,0.7-4.6,0.9
		v-2.5c1.4-0.5,3.3-0.8,5-0.8c3,0,5.6,0.8,5.6,5.4v11.7L540.7,334.6L540.7,334.6z M558.6,334.6v-12.3c0-2.3-1.4-2.3-2.7-2.3
		c-1.4,0-3.1,0.7-4.6,1.7v12.9h-2.9v-16.8h2.2l0.6,2.1c0.8-0.7,3-2.4,5.4-2.4c2.8,0,4.8,1.1,4.8,5v12.1H558.6L558.6,334.6z
		 M578.5,317.7l-5.5,18.7c-1.2,4-3.1,4.5-4.9,4.5c-1.4,0-2.9-0.5-2.9-0.5v-2.4c0,0,2,0.4,2.8,0.4c1,0,1.9-0.6,2.5-3.1l0.2-0.8
		l-6.3-16.8h3.4l4.2,13.5l3.2-13.5L578.5,317.7L578.5,317.7z"/>
</g>
</svg>
