<svg xmlns="http://www.w3.org/2000/svg" viewBox="0 0 850.4 349.7" enable-background="new 0 0 850.4 349.7"><path fill="#DB0812" d="M128.7 0h592.9c71.1 0 128.7 57.7 128.7 128.7v5.1c0 71.1-57.6 128.7-128.7 128.7h-592.9c-71.1.1-128.7-57.5-128.7-128.7v-5.1c0-71 57.6-128.7 128.7-128.7"/><path fill="#fff" d="M131.4 22.1h587.6c59.3 0 107.3 48.1 107.3 107.3v3.7c0 59.3-48 107.4-107.3 107.4h-587.6c-59.3.1-107.4-48-107.4-107.3v-3.7c0-59.4 48.1-107.4 107.4-107.4"/><path fill="#DB0812" d="M716.3 39.8h-582.2c-49.2 0-89.1 40-89.1 89.2v4.7c0 49.2 39.9 89.1 89.1 89.1h582.2c49.2 0 89.1-39.9 89.1-89.1v-4.7c.1-49.2-39.8-89.2-89.1-89.2"/><path fill="#fff" d="M187.2 142.3l14.2-33.8 13.8 33.8h-28zm91.5 29.9l-43.3-105.7h-75.4v23h9.4l-34 82.7h-9.4v23h39.8c.2.2 11.9-29.8 11.9-29.8h47.1l12.2 29.9h51.2v-23h-9.5zM383 116.5c0 1.6-1.3 2.9-2.9 2.9h-22.4v-29.9h22.4c1.6 0 2.9 1.3 2.9 2.9v24.1zm0 52.9c0 1.5-1.3 2.8-2.9 2.8h-22.4v-29.8h22.4c1.6 0 2.9 1.3 2.9 2.9v24.1zm50.5-27.1c0-6.3-5.1-11.5-11.5-11.5 6.1 0 11.1-4.8 11.5-10.8v-42c0-6.4-5.1-11.5-11.5-11.5h-124.3v23h9.4v82.7h-9.5v23h124.4c6.4 0 11.5-5.1 11.5-11.5v-41.4zM597.8 142.3h75.9v27c0 1.6-1.3 2.9-2.8 2.9h-19.6c-1.6 0-2.9-1.3-2.9-2.9v-3.8h-50.5v18.2c0 6.4 5.1 11.6 11.5 11.6h103.5c6.3 0 11.5-5.1 11.5-11.6v-64.3h-75.9v-27.1c0-1.6 1.3-2.8 2.9-2.8h19.6c1.6 0 2.8 1.2 2.8 2.8v4.1h50.6v-18.4c0-6.4-5.2-11.5-11.5-11.5h-103.7c-6.3 0-11.5 5.2-11.5 11.5l.1 64.3zM452.4 183.6c0 6.3 5.1 11.5 11.5 11.5h103.4c6.4 0 11.5-5.2 11.5-11.5l-.1-94.2h9.6v-23h-60.2v102.8c0 1.6-1.3 2.9-2.8 2.9h-19.6c-1.6 0-2.9-1.3-2.9-2.9l.2-102.7h-59.9v23h9.4l-.1 94.1z"/><path fill="#7C7C7B" d="M134.3 337.9c-2.8 0-5.5-.6-8.2-1.3v-5c2.5.7 5.8 1.5 8.1 1.5 4.1 0 7.6-1.3 7.6-6.9 0-3.9-2.1-5.8-5-7.7l-4.4-3c-3.5-2.4-6.6-5.6-6.6-10.7 0-8.7 6.8-11.3 12.5-11.3 2.8 0 5.3.6 7.4 1.4v4.8c-2.5-.9-5.1-1.5-7.4-1.5-4.2 0-7.1 1.5-7.1 6 0 3.2 2.2 5 4.9 6.9l3.4 2.4c3.9 2.8 7.8 5.8 7.8 12.2.1 10.4-6.2 12.2-13 12.2"/><path fill="#7C7C7B" d="M166.6 308.1c-4 0-6.5 2-6.8 10.7h13c.1-9.3-2.8-10.7-6.2-10.7m-6.8 14.5c.3 10.4 5.1 10.4 8.4 10.4 2.1 0 5.3-.7 8.5-1.6v4.9c-2.9 1-6 1.5-8.5 1.5-6.4 0-13.9-1.3-13.9-17 0-13.8 6.1-17 12.4-17 5.6 0 11.7 2.4 11.7 15.5 0 1 0 2.1-.1 3.3h-18.5zM206.2 336.7c-2.4.8-4.6 1.2-6.6 1.2-5.2 0-13.8-1.3-13.8-16.8 0-15.6 9.2-17.2 14.1-17.2 2.4 0 4.2.4 6.3 1.2v4.8c-1.9-.7-4.2-1.2-6.1-1.2-4 0-8.7.9-8.7 12.4 0 10.5 4.4 11.9 8.2 11.9 1.8 0 4.4-.6 6.6-1.3v5zM232.9 337.3l-.7-4.3c-1.9 2-5.7 4.8-9.9 4.8-5.2 0-9-2.3-9-9.5v-23.9h5.6v22.6c0 3.9 1 5.8 4.7 5.8 2.4 0 5.5-1.3 8.3-3.5v-24.9h5.6v32.8h-4.6zM262.6 310.3c-1.2-.4-2.6-.6-4-.6-2.2 0-3.9 1.2-5.1 2.6v24.9h-5.6v-32.8h4.3l.8 4.3c1.1-2.4 3.3-4.9 6.9-4.9.7 0 1.8.2 2.7.4v6.1zM269.5 304.5h5.6v32.8h-5.6v-32.8zm2.9-5c-2.1 0-3.7-1.6-3.7-3.7s1.6-3.7 3.7-3.7c2 0 3.6 1.7 3.6 3.7 0 2.1-1.6 3.7-3.6 3.7"/><path fill="#7C7C7B" d="M301.8 336.8c-1.7.6-4.3 1.1-6.8 1.1-4.7 0-7.4-1.8-7.4-8.2v-20.9h-5.6v-4.3h5.6l.2-7.4 5.3-2.5v9.8h7.4l-.6 4.3h-6.8v21.1c0 2.9 1 3.3 3.1 3.3 1.4 0 3.4-.5 5.6-1v4.7zM332.8 304.5l-10.7 36.5c-2.3 7.7-6 8.7-9.5 8.7-2.7 0-5.7-1-5.7-1v-4.6s3.8.8 5.5.8c1.9 0 3.6-1.1 4.7-6.1l.4-1.6-12.2-32.8h6.7l8.2 26.3 6.4-26.3h6.2zM377.6 299.2h-9.9v38.1h-5.5v-38.1h-10.6v-5.2h26.7zM390.5 308.1c-4 0-6.5 2-6.8 10.7h13c0-9.3-2.9-10.7-6.2-10.7m-6.9 14.5c.3 10.4 5.1 10.4 8.4 10.4 2.1 0 5.2-.7 8.5-1.6v4.9c-2.9 1-6 1.5-8.5 1.5-6.4 0-13.9-1.3-13.9-17 0-13.8 6.1-17 12.4-17 5.6 0 11.7 2.4 11.7 15.5 0 1 0 2.1-.1 3.3h-18.5zM430 336.7c-2.4.8-4.6 1.2-6.6 1.2-5.2 0-13.8-1.3-13.8-16.8 0-15.6 9.2-17.2 14.1-17.2 2.4 0 4.2.4 6.3 1.2v4.8c-1.9-.7-4.2-1.2-6.1-1.2-4 0-8.7.9-8.7 12.4 0 10.5 4.4 11.9 8.2 11.9 1.8 0 4.4-.6 6.6-1.3v5zM457 337.3v-23.8c0-4.2-2.2-4.5-5.2-4.5s-6.7 1.7-9 3.4v25h-5.6v-44.5h5.6v15.7c1.8-1.6 5.9-4.6 10.4-4.6 5.4 0 9.4 2.2 9.4 9.8v23.6h-5.6zM505.4 337.9c-7.4 0-14.6-2.6-14.6-22.2 0-19.5 10.8-22.3 17.5-22.3 2.9 0 6.2.6 9.1 2v4.8c-3.5-1.4-6.4-2-9.1-2-5.6 0-11.9 2.7-11.9 17.4s4.4 17.4 9.3 17.4c2.3 0 5-.5 7.4-1.1v-15.8h-6.8v-4.7h12.4v24.1c-2.7.7-8.4 2.4-13.3 2.4"/><path fill="#7C7C7B" d="M539.8 308.1c-4 0-6.5 2-6.8 10.7h13c0-9.3-2.9-10.7-6.2-10.7m-6.9 14.5c.3 10.4 5.2 10.4 8.4 10.4 2.1 0 5.3-.7 8.5-1.6v4.9c-3 1-6 1.5-8.5 1.5-6.4 0-13.9-1.3-13.9-17 0-13.8 6.1-17 12.3-17 5.6 0 11.8 2.4 11.8 15.5 0 1 0 2.1-.1 3.3h-18.5zM575.1 310.3c-1.2-.4-2.6-.6-4-.6-2.2 0-3.9 1.2-5.1 2.6v24.9h-5.6v-32.8h4.2l.8 4.3c1.1-2.4 3.3-4.9 6.9-4.9.8 0 1.9.2 2.7.4v6.1zM617.9 337.3v-23.9c0-3.9-1.9-4.5-4.3-4.5-2.5 0-5.9 1.7-8 3.2v25.2h-5.6v-23.9c0-3.9-1.8-4.5-4.3-4.5-2.9 0-6.1 1.7-8 3.2v25.2h-5.7v-32.8h4.1l1.2 3.9c2-1.9 5.8-4.6 9.7-4.6s7.3 1.6 7.9 4.8c1.6-1.6 5.6-4.8 10.1-4.8 5.2 0 8.4 2.2 8.4 9.8v23.6h-5.5zM649.6 320.5h-4c-5.1.1-8.3 1.2-8.3 6.6 0 5.5 2.4 6.2 5.2 6.2 2.5 0 5.1-1.5 7.1-3.4v-9.4zm.8 16.8l-.7-3.8c-1.5 2.1-4.4 4.4-8.5 4.4-4 0-9.5-1.4-9.5-10.3s6.9-10.5 12.5-10.5h5.4v-3.5c0-4.5-2.4-4.9-6.2-4.9-3 0-7.7 1.3-8.9 1.7v-4.8c2.8-.9 6.4-1.6 9.8-1.6 5.9 0 10.9 1.6 10.9 10.6v22.7h-4.8zM685.3 337.3v-23.9c0-4.4-2.8-4.5-5.3-4.5-2.8 0-6 1.3-9 3.3v25.1h-5.6v-32.8h4.2l1.2 4c1.6-1.4 5.9-4.6 10.6-4.6 5.4 0 9.4 2.2 9.4 9.8v23.6h-5.5zM724.1 304.5l-10.7 36.5c-2.3 7.7-6 8.7-9.5 8.7-2.7 0-5.7-1-5.7-1v-4.6s3.8.8 5.5.8c2 0 3.7-1.1 4.8-6.1l.4-1.6-12.3-32.8h6.7l8.2 26.3 6.3-26.3h6.3z"/></svg>