<?xml version="1.0" encoding="utf-8"?>
<!-- Generator: Adobe Illustrator 19.1.0, SVG Export Plug-In . SVG Version: 6.00 Build 0)  -->
<svg version="1.1" id="Calque_1" xmlns="http://www.w3.org/2000/svg" xmlns:xlink="http://www.w3.org/1999/xlink" x="0px" y="0px"
	 viewBox="-99 -48.7 500 600" style="enable-background:new -99 -48.7 500 600;" xml:space="preserve">
<style type="text/css">
	.st0{fill:#DB0812;}
	.st1{fill:#FFFFFF;}
	.st2{fill:#7C7C7B;}
</style>
<g>
	<path class="st0" d="M2.3,163.6h297.4c35.7,0,64.5,28.9,64.5,64.5v2.6c0,35.7-28.9,64.5-64.5,64.5H2.3c-35.7,0-64.5-28.9-64.5-64.5
		v-2.6C-62.2,192.5-33.4,163.6,2.3,163.6"/>
	<path class="st1" d="M3.6,174.7h294.7c29.7,0,53.9,24.2,53.9,53.9v1.8c0,29.7-24.2,53.9-53.9,53.9H3.6c-29.7,0-53.9-24.2-53.9-53.9
		v-1.8C-50.1,198.7-26.1,174.7,3.6,174.7"/>
	<path class="st0" d="M297,183.5H5c-24.7,0-44.6,20-44.6,44.8v2.3c0,24.7,20,44.6,44.6,44.6h292c24.7,0,44.6-20,44.6-44.6v-2.3
		C341.6,203.5,321.7,183.5,297,183.5"/>
	<path class="st1" d="M31.6,235l7.1-16.9l7,16.9H31.6z M77.5,249.9l-21.7-53H17.9v11.5h4.7L5.6,249.9H0.9v11.5h19.9
		c0.1,0.1,6-14.9,6-14.9h23.6l6.1,14.9h25.7v-11.5C82.2,249.9,77.5,249.9,77.5,249.9z M129.8,222c0,0.9-0.6,1.4-1.4,1.4h-11.2v-14.9
		h11.2c0.9,0,1.4,0.7,1.4,1.4V222z M129.8,248.6c0,0.7-0.6,1.4-1.4,1.4h-11.2V235h11.2c0.9,0,1.4,0.7,1.4,1.4
		C129.8,236.4,129.8,248.6,129.8,248.6z M155.1,235c0-3.1-2.6-5.7-5.8-5.7c3.1,0,5.5-2.4,5.8-5.4v-21.2c0-3.3-2.6-5.8-5.8-5.8H86.9
		v11.5h4.7v41.5H87v11.5h62.4c3.1,0,5.8-2.6,5.8-5.8V235L155.1,235L155.1,235z M237.6,235h38.1v13.5c0,0.9-0.6,1.4-1.4,1.4h-9.8
		c-0.9,0-1.4-0.7-1.4-1.4v-2h-25.3v9.1c0,3.3,2.6,5.8,5.7,5.8h51.9c3.1,0,5.7-2.6,5.7-5.8v-32.3h-38.1v-13.6c0-0.9,0.7-1.4,1.4-1.4
		h9.8c0.9,0,1.4,0.6,1.4,1.4v2.3H301v-9.2c0-3.1-2.6-5.8-5.7-5.8h-51.9c-3.1,0-5.7,2.6-5.7,5.8L237.6,235L237.6,235z M164.6,255.7
		c0,3.1,2.6,5.8,5.8,5.8h51.9c3.1,0,5.8-2.6,5.8-5.8v-47.2h4.8V197h-30.1v51.6c0,0.9-0.7,1.4-1.4,1.4h-9.8c-0.9,0-1.4-0.7-1.4-1.4
		V197h-30v11.5h4.7L164.6,255.7L164.6,255.7z"/>
	<path class="st2" d="M5.2,333c-1.4,0-2.8-0.3-4.1-0.7v-2.4c1.3,0.4,3,0.7,4,0.7c2.1,0,3.8-0.7,3.8-3.4c0-2-1-2.8-2.6-3.8L4,321.8
		c-1.7-1.1-3.3-2.8-3.3-5.4c0-4.4,3.4-5.7,6.3-5.7c1.4,0,2.7,0.3,3.7,0.7v2.4c-1.3-0.4-2.6-0.7-3.7-0.7c-2.1,0-3.6,0.7-3.6,3
		c0,1.6,1.1,2.6,2.4,3.4l1.7,1.3c2,1.4,3.8,3,3.8,6.1C11.7,332.2,8.6,333,5.2,333"/>
	<path class="st2" d="M21.4,318.1c-2,0-3.3,1-3.4,5.4h6.5C24.5,318.8,23.1,318.1,21.4,318.1 M17.9,325.4c0.1,5.3,2.6,5.3,4.3,5.3
		c1,0,2.7-0.3,4.3-0.9v2.4c-1.4,0.6-3,0.7-4.3,0.7c-3.3,0-7-0.7-7-8.5c0-7,3.1-8.5,6.3-8.5c2.8,0,5.8,1.1,5.8,7.8v1.7
		C27.3,325.4,17.9,325.4,17.9,325.4z M41.1,332.5c-1.1,0.4-2.3,0.6-3.3,0.6c-2.6,0-7-0.7-7-8.4c0-7.8,4.7-8.7,7.1-8.7
		c1.1,0,2.1,0.1,3.1,0.6v2.4c-1-0.3-2.1-0.6-3.1-0.6c-2,0-4.4,0.4-4.4,6.3c0,5.3,2.3,6,4.1,6c0.9,0,2.3-0.3,3.3-0.7L41.1,332.5
		L41.1,332.5z M54.6,332.8l-0.3-2.1c-1,1-2.8,2.4-5,2.4c-2.7,0-4.5-1.1-4.5-4.8v-11.9h2.8v11.4c0,2,0.4,3,2.3,3
		c1.1,0,2.7-0.7,4.1-1.7v-12.5h2.8v16.3C56.9,332.8,54.6,332.8,54.6,332.8z M69.4,319.2c-0.6-0.1-1.3-0.3-2-0.3
		c-1.1,0-2,0.6-2.6,1.3v12.5H62v-16.5h2.3l0.4,2.1c0.6-1.3,1.7-2.4,3.6-2.4l1.3,0.1L69.4,319.2L69.4,319.2z M73,316.3h2.8v16.5H73
		V316.3z M74.4,313.8c-1,0-1.8-0.9-1.8-1.8c0-1,0.9-1.8,1.8-1.8s1.8,0.9,1.8,1.8C76.2,313,75.4,313.8,74.4,313.8"/>
	<path class="st2" d="M89.2,332.5c-0.9,0.3-2.1,0.6-3.4,0.6c-2.4,0-3.7-0.9-3.7-4.1v-10.5h-2.8v-2.1h2.8l0.1-3.7l2.7-1.3v5h3.7
		l-0.3,2.1h-3.4v10.5c0,1.4,0.6,1.7,1.6,1.7c0.7,0,1.7-0.3,2.8-0.6L89.2,332.5L89.2,332.5z M104.7,316.3l-5.4,18.3
		c-1.1,3.8-3,4.4-4.8,4.4c-1.4,0-2.8-0.4-2.8-0.4v-2.3c0,0,1.8,0.4,2.7,0.4c1,0,1.8-0.6,2.4-3.1l0.1-0.9l-6.1-16.5h3.4l4.1,13.2
		l3.1-13.2H104.7z M127.1,313.7h-5v19h-2.7v-19h-5.3V311h13.2L127.1,313.7z M133.5,318.1c-2,0-3.3,1-3.4,5.4h6.5
		C136.6,318.8,135.2,318.1,133.5,318.1 M130.1,325.4c0.1,5.3,2.6,5.3,4.3,5.3c1,0,2.7-0.3,4.3-0.9v2.4c-1.4,0.6-3,0.7-4.3,0.7
		c-3.3,0-7-0.7-7-8.5c0-7,3.1-8.5,6.3-8.5c2.8,0,5.8,1.1,5.8,7.8v1.7C139.5,325.4,130.1,325.4,130.1,325.4z M153.4,332.5
		c-1.1,0.4-2.3,0.6-3.3,0.6c-2.6,0-7-0.7-7-8.4c0-7.8,4.7-8.7,7.1-8.7c1.1,0,2.1,0.1,3.1,0.6v2.4c-1-0.3-2.1-0.6-3.1-0.6
		c-2,0-4.4,0.4-4.4,6.3c0,5.3,2.3,6,4.1,6c0.9,0,2.1-0.3,3.3-0.7v2.6H153.4z M166.9,332.8v-11.9c0-2.1-1.1-2.3-2.6-2.3
		c-1.6,0-3.4,0.9-4.5,1.7v12.5H157v-22.3h2.8v7.8c1-0.9,3-2.3,5.3-2.3c2.7,0,4.7,1.1,4.7,4.8v11.8h-2.8
		C166.9,332.6,166.9,332.8,166.9,332.8z M191.2,333c-3.7,0-7.4-1.3-7.4-11.1c0-9.8,5.4-11.2,8.8-11.2c1.4,0,3.1,0.3,4.5,1v2.4
		c-1.7-0.7-3.3-1-4.5-1c-2.8,0-6,1.3-6,8.8c0,7.4,2.3,8.7,4.7,8.7c1.1,0,2.6-0.3,3.7-0.6v-8h-3.4v-2.4h6.3v12.1
		C196.5,332.2,193.6,333,191.2,333"/>
	<path class="st2" d="M208.4,318.1c-2,0-3.3,1-3.4,5.4h6.5C211.6,318.8,210.1,318.1,208.4,318.1 M205,325.4c0.1,5.3,2.6,5.3,4.3,5.3
		c1,0,2.7-0.3,4.3-0.9v2.4c-1.6,0.6-3,0.7-4.3,0.7c-3.3,0-7-0.7-7-8.5c0-7,3.1-8.5,6.3-8.5c2.8,0,6,1.1,6,7.8v1.7
		C214.5,325.4,205,325.4,205,325.4z M226.2,319.2c-0.6-0.1-1.3-0.3-2-0.3c-1.1,0-2,0.6-2.6,1.3v12.5h-2.8v-16.5h2.1l0.4,2.1
		c0.6-1.3,1.7-2.4,3.4-2.4l1.4,0.1V319.2z M247.7,332.8v-11.9c0-2-1-2.3-2.1-2.3c-1.3,0-3,0.9-4,1.6v12.7h-2.8v-11.9
		c0-2-1-2.3-2.1-2.3c-1.4,0-3,0.9-4,1.6v12.7h-2.8v-16.5h2.1l0.6,2c1-1,2.8-2.3,4.8-2.3c2,0,3.7,0.9,4,2.4c0.9-0.9,2.8-2.4,5.1-2.4
		c2.6,0,4.3,1.1,4.3,4.8v11.8h-3V332.8z M263.6,324.4h-2c-2.6,0-4.1,0.6-4.1,3.3s1.3,3.1,2.7,3.1c1.3,0,2.6-0.7,3.6-1.7v-4.7H263.6z
		 M264,332.8l-0.3-1.8c-0.7,1-2.3,2.3-4.3,2.3c-2,0-4.8-0.7-4.8-5.1c0-4.5,3.4-5.3,6.3-5.3h2.7V321c0-2.3-1.1-2.4-3.1-2.4
		c-1.4,0-3.8,0.6-4.5,0.9V317c1.4-0.4,3.3-0.9,5-0.9c3,0,5.4,0.9,5.4,5.4v11.4H264V332.8z M281.5,332.8v-11.9c0-2.1-1.4-2.3-2.7-2.3
		c-1.4,0-3,0.6-4.5,1.7v12.7h-2.8v-16.5h2.1l0.6,2c0.9-0.7,3-2.3,5.3-2.3c2.7,0,4.7,1.1,4.7,4.8v11.8
		C284.1,332.8,281.5,332.8,281.5,332.8z M300.8,316.3l-5.4,18.3c-1.1,3.8-3,4.4-4.8,4.4c-1.4,0-2.8-0.4-2.8-0.4v-2.3
		c0,0,1.8,0.4,2.7,0.4c1,0,1.8-0.6,2.4-3.1l0.1-0.9l-6.1-16.5h3.4l4.1,13.2l3.1-13.2L300.8,316.3L300.8,316.3z"/>
</g>
</svg>
