<?xml version="1.0" encoding="utf-8"?>
<!-- Generator: Adobe Illustrator 16.0.0, SVG Export Plug-In . SVG Version: 6.00 Build 0)  -->
<!DOCTYPE svg PUBLIC "-//W3C//DTD SVG 1.1//EN" "http://www.w3.org/Graphics/SVG/1.1/DTD/svg11.dtd">
<svg version="1.1" id="Calque_1" xmlns="http://www.w3.org/2000/svg" xmlns:xlink="http://www.w3.org/1999/xlink" x="0px" y="0px"
	 width="500px" height="500px" viewBox="0 0 500 500" enable-background="new 0 0 500 500" xml:space="preserve">
<g>
	<path fill-rule="evenodd" clip-rule="evenodd" fill="#004C93" d="M113.799,186.943l35.042-36.289H167.8l-28.56,74.538h-12.263
		l10.132-27.38h-19.136l-26.753,27.38H75.823l27.004-27.624H27.441l5.073-10.626H113.799L113.799,186.943z M141.032,186.943
		l7.972-20.426l-20.338,20.426H141.032L141.032,186.943z"/>
	<path fill-rule="evenodd" clip-rule="evenodd" fill="#004C93" d="M185.764,212.273c-3.473,2.625-7.824,4.27-12.322,4.424
		c-7.625,0.266-13.583-4.8-10.744-11.474c3.149-7.411,12.227-12.573,19.977-12.138c4.307,0.243,7.522,1.888,9.026,4.417
		l13.708,0.037c-0.133-8.089-7.286-13.753-18.34-14.387c-14.291-0.811-30.094,6.88-35.809,20.596
		c-5.14,12.322,4.734,23.376,18.789,22.882c11.445-0.391,22.403-6.01,29.224-14.431L185.764,212.273L185.764,212.273z"/>
	<path fill-rule="evenodd" clip-rule="evenodd" fill="#004C93" d="M240.03,212.273c-3.466,2.625-7.832,4.27-12.322,4.424
		c-7.64,0.266-13.576-4.8-10.744-11.474c3.156-7.411,12.227-12.573,19.984-12.138c4.292,0.243,7.507,1.888,9.011,4.417l13.708,0.037
		c-0.132-8.089-7.277-13.753-18.339-14.387c-14.291-0.811-30.079,6.88-35.809,20.596c-5.132,12.322,4.742,23.376,18.804,22.882
		c11.43-0.391,22.396-6.01,29.217-14.431L240.03,212.273L240.03,212.273z"/>
	<path fill-rule="evenodd" clip-rule="evenodd" fill="#004C93" d="M267.506,183.971l-9.52,25.013c0,0-5.391,16.998,12.418,16.998
		c5.723,0,10.294-1.475,15.515-4.417l-1.415,3.628h11.105l16.2-41.222h-12.277l-8.2,20.758c0,0-3.613,11.438-14.881,11.438
		c-10.132,0-5.229-9.476-5.229-9.476l8.539-22.72H267.506L267.506,183.971z"/>
	<path fill-rule="evenodd" clip-rule="evenodd" fill="#004C93" d="M318.661,183.971l-16.18,41.222h11.924l9.447-23.243
		c0,0,3.267-9.483,14.047-9.483l3.613-9.638c0,0-6.932-0.266-12.521,4.115l1.143-2.972H318.661L318.661,183.971z"/>
	<polygon fill-rule="evenodd" clip-rule="evenodd" fill="#004C93" points="345.967,183.971 329.95,225.193 342.073,225.193 
		357.884,183.971 345.967,183.971 	"/>
	<path fill-rule="evenodd" clip-rule="evenodd" fill="#004C93" d="M362.139,174.997c-1.018,2.891-4.764,5.221-8.37,5.221
		c-3.62-0.008-5.722-2.353-4.704-5.25c1.01-2.883,4.764-5.221,8.377-5.214C361.047,169.761,363.164,172.106,362.139,174.997
		L362.139,174.997z"/>
	<path fill-rule="evenodd" clip-rule="evenodd" fill="#004C93" d="M409.171,170.241l-6.113,15.589
		c-3.142-2.271-7.426-3.65-12.58-3.65c-18.9,0-30.883,8.871-35.89,21.245c-4.896,12.094,6.047,22.226,18.862,22.226
		c5.384,0,10.642-1.334,15.427-3.621l-1.238,3.164h12.13l21.334-54.952H409.171L409.171,170.241z M376.592,215.518
		c-8.362-0.007-13.214-5.206-10.84-11.622c2.374-6.401,11.076-11.592,19.424-11.592c8.148,0.007,12.934,4.94,10.987,11.105
		l-0.583,1.512C392.72,210.857,384.497,215.525,376.592,215.518L376.592,215.518z"/>
	<path fill-rule="evenodd" clip-rule="evenodd" fill="#004C93" d="M465.421,197.481c-0.125-8.089-7.293-13.753-18.347-14.387
		c-14.276-0.811-30.087,6.888-35.809,20.596c-5.14,12.315,4.741,23.376,18.796,22.882c11.445-0.398,22.403-6.01,29.209-14.431
		l-13.502,0.074c-3.466,2.633-7.823,4.27-12.314,4.425c-6.187,0.214-11.253-3.075-11.46-7.883h38.626
		C465.022,204.339,465.421,197.481,465.421,197.481L465.421,197.481z M451.809,200.91h-26.451
		c4.188-5.036,11.164-8.237,17.329-7.875c4.299,0.236,7.507,1.88,9.026,4.41C452.878,199.664,451.809,200.91,451.809,200.91
		L451.809,200.91z"/>
	<path fill-rule="evenodd" clip-rule="evenodd" fill="#004C93" d="M469.831,176.877c0.862,0,1.711,0.221,2.544,0.664
		c0.826,0.45,1.46,1.084,1.925,1.917c0.457,0.826,0.7,1.696,0.7,2.596c0,0.892-0.229,1.748-0.686,2.566
		c-0.457,0.826-1.092,1.467-1.918,1.924c-0.818,0.45-1.674,0.678-2.565,0.678c-0.907,0-1.771-0.229-2.581-0.678
		c-0.834-0.457-1.46-1.099-1.91-1.924c-0.472-0.819-0.686-1.674-0.686-2.566c0-0.899,0.221-1.77,0.686-2.596
		c0.472-0.833,1.113-1.468,1.932-1.917C468.112,177.099,468.961,176.877,469.831,176.877L469.831,176.877z M469.831,177.733
		c-0.745,0-1.438,0.185-2.132,0.561c-0.686,0.369-1.217,0.907-1.614,1.6c-0.384,0.686-0.583,1.409-0.583,2.161
		c0,0.745,0.199,1.46,0.575,2.139c0.376,0.686,0.914,1.217,1.601,1.6c0.686,0.383,1.394,0.568,2.153,0.568
		c0.744,0,1.452-0.185,2.146-0.568c0.679-0.383,1.202-0.915,1.593-1.6c0.369-0.679,0.568-1.394,0.568-2.139
		c0-0.752-0.199-1.475-0.583-2.161c-0.384-0.693-0.929-1.231-1.607-1.6C471.246,177.917,470.546,177.733,469.831,177.733
		L469.831,177.733z M467.545,184.923v-5.583h1.917c0.671,0,1.144,0.052,1.423,0.147c0.296,0.111,0.539,0.288,0.708,0.546
		c0.178,0.258,0.259,0.523,0.259,0.818c0,0.406-0.147,0.767-0.428,1.062c-0.295,0.302-0.679,0.472-1.158,0.509
		c0.185,0.088,0.347,0.184,0.457,0.295c0.229,0.221,0.502,0.59,0.826,1.106l0.686,1.099h-1.091l-0.494-0.885
		c-0.398-0.686-0.723-1.113-0.944-1.298c-0.169-0.133-0.413-0.191-0.729-0.191h-0.539v2.375H467.545L467.545,184.923z
		 M468.437,181.781h1.121c0.523,0,0.885-0.074,1.077-0.229c0.191-0.162,0.295-0.369,0.295-0.627c0-0.162-0.052-0.317-0.141-0.45
		c-0.096-0.133-0.229-0.229-0.383-0.288c-0.178-0.066-0.479-0.103-0.93-0.103h-1.04V181.781L468.437,181.781z"/>
	<g>
		<polygon fill-rule="evenodd" clip-rule="evenodd" fill="#FFFFFF" points="31.813,245.435 463.459,245.435 463.459,313.933 
			31.813,313.933 31.813,245.435 		"/>
		<path fill="#004C93" d="M470.273,320.748H25v-82.126h445.273V320.748z M38.627,307.12h418.018v-54.871H38.627V307.12z"/>
	</g>
	<rect x="288.242" y="238.621" fill="#004C93" width="177.142" height="82.126"/>
	<path fill-rule="evenodd" clip-rule="evenodd" fill="#004C93" d="M31.888,328.475h2.861c0.251,0,0.738,0.029,1.534,0.029
		c1.283,0,2.315,0.037,3.046,0.066c1.585,0.037,2.927,0.243,4.026,0.575c2.131,0.612,3.532,2.139,3.532,3.835
		c0,1.726-1.52,3.289-3.717,3.96c-1.954,0.546-3.473,0.686-8.229,0.686h-3.053V328.475L31.888,328.475z M27.625,326.374v22.602
		h4.263v-9.284h1.829h2.75c4.631,0,7.618-0.376,9.874-1.224c2.994-1.113,4.823-3.215,4.823-5.449c0-3.326-3.599-5.833-9.092-6.372
		c-1.585-0.169-3.415-0.243-5.361-0.272h-4.881H27.625L27.625,326.374z"/>
	<path fill-rule="evenodd" clip-rule="evenodd" fill="#004C93" d="M75.823,328.475h2.566c4.941,0,6.46,0.17,8.038,0.745
		c1.902,0.708,2.935,2.035,2.935,3.555c0,2.345-2.433,3.93-6.4,4.137c-0.855,0.066-1.836,0.066-2.994,0.103h-0.789h-3.355V328.475
		L75.823,328.475z M85.395,338.74c2.868-0.442,3.967-0.781,5.375-1.629c1.762-1.011,2.736-2.604,2.736-4.3
		c0-3.09-3.348-5.56-8.289-6.135c-1.409-0.17-2.935-0.273-4.395-0.273c-1.165-0.029-2.802-0.029-5.118-0.029h-4.218v22.602h4.336
		v-9.866h5l11.408,9.866h5.184L85.395,338.74L85.395,338.74z"/>
	<path fill-rule="evenodd" clip-rule="evenodd" fill="#004C93" d="M148.79,337.213c0.066,0.141,0.066,0.31,0.066,0.472
		c0,5.324-6.534,9.388-15.073,9.388c-8.775,0-15.434-4.063-15.434-9.446c0-5.391,6.592-9.49,15.257-9.49
		C141.902,328.136,148.37,332.03,148.79,337.213L148.79,337.213L148.79,337.213z M153.126,337.213
		c-0.435-6.438-8.908-11.349-19.645-11.349c-10.862,0-19.46,5.221-19.46,11.791c0,6.578,8.599,11.688,19.586,11.688
		c11.032,0,19.571-5.081,19.571-11.688C153.178,337.523,153.178,337.354,153.126,337.213L153.126,337.213L153.126,337.213z"/>
	<path fill-rule="evenodd" clip-rule="evenodd" fill="#004C93" d="M204.944,327.863c-3.606-1.29-7.875-1.998-12.448-1.998
		c-11.584,0-20.308,5.015-20.308,11.622c0,2.949,1.947,6.032,5.118,8.134c3.724,2.47,8.849,3.724,15.19,3.724
		c3.909,0,7.876-0.472,11.342-1.416c0.435-0.104,0.974-0.28,1.77-0.509V337.25h-11.887v1.998h7.92v6.711
		c-3.039,0.848-5.604,1.217-8.775,1.217c-9.203,0-16.341-4.167-16.341-9.55c0-5.428,7.064-9.527,16.459-9.527
		c3.355,0,6.593,0.472,9.705,1.423c0.546,0.133,1.283,0.406,2.256,0.745V327.863L204.944,327.863z"/>
	<path fill-rule="evenodd" clip-rule="evenodd" fill="#004C93" d="M230.724,328.475h2.551c4.94,0,6.475,0.17,8.06,0.745
		c1.88,0.708,2.927,2.035,2.927,3.555c0,2.345-2.448,3.93-6.415,4.137c-0.848,0.066-1.822,0.066-2.979,0.103h-0.796h-3.348V328.475
		L230.724,328.475z M240.296,338.74c2.868-0.442,3.967-0.781,5.368-1.629c1.77-1.011,2.743-2.604,2.743-4.3
		c0-3.09-3.355-5.56-8.296-6.135c-1.401-0.17-2.928-0.273-4.388-0.273c-1.165-0.029-2.817-0.029-5.132-0.029h-4.204v22.602h4.336
		v-9.866h5l11.4,9.866h5.184L240.296,338.74L240.296,338.74z"/>
	<path fill-rule="evenodd" clip-rule="evenodd" fill="#004C93" d="M293.626,341.048h-16.172l7.935-11.526L293.626,341.048
		L293.626,341.048z M287.335,326.374h-3.952l-16.112,22.602h4.572l4.092-5.729h19.276l4.203,5.729h4.572L287.335,326.374
		L287.335,326.374z"/>
	<polygon fill-rule="evenodd" clip-rule="evenodd" fill="#004C93" points="360.509,326.374 355.377,326.374 341.543,336.779 
		327.635,326.374 322.51,326.374 322.51,348.975 326.831,348.975 326.831,329.588 341.543,340.54 356.181,329.559 356.181,348.975 
		360.509,348.975 360.509,326.374 	"/>
	<polygon fill-rule="evenodd" clip-rule="evenodd" fill="#004C93" points="420.623,326.374 415.498,326.374 401.649,336.779 
		387.741,326.374 382.624,326.374 382.624,348.975 386.952,348.975 386.952,329.588 401.649,340.54 416.294,329.559 
		416.294,348.975 420.623,348.975 420.623,326.374 	"/>
	<polygon fill-rule="evenodd" clip-rule="evenodd" fill="#004C93" points="466.712,326.374 443.04,326.374 443.04,348.975 
		467.383,348.975 467.383,346.874 447.376,346.874 447.376,337.656 463.784,337.656 463.784,335.554 447.376,335.554 
		447.376,328.475 466.712,328.475 466.712,326.374 	"/>
	<path fill-rule="evenodd" clip-rule="evenodd" fill="#004C93" d="M87.488,285.33l-3.93-2.847l-8.104,4.992l4.255,3.192
		c-2.566,0.693-3.606,0.812-6.895,0.812c-9.867,0-16.031-4.232-16.031-11.031c0-7.382,7.448-12.897,17.477-12.897
		c8.982,0,15.235,4.469,15.235,10.921C89.494,280.912,88.845,283.293,87.488,285.33L87.488,285.33L87.488,285.33z M95.733,291.074
		c3.856-3.488,5.855-7.839,5.855-12.779c0-11.099-11.297-19.106-27.004-19.106c-17.005,0-29.829,9.181-29.829,21.37
		c0,11.098,11.069,18.944,26.775,18.944c6.327,0,11.946-1.165,15.869-3.26l4.248,3.083l8.259-5L95.733,291.074L95.733,291.074z"/>
	<path fill-rule="evenodd" clip-rule="evenodd" fill="#004C93" d="M113.047,259.94l-4.321,18.768
		c-0.723,3.192-0.885,4.586-0.885,6.327c0,8.774,8.421,14.35,21.724,14.35c10.014,0,18.605-3.37,22.204-8.775
		c1.526-2.264,1.924-3.429,2.891-7.492l5.369-23.177h-12.027l-4.483,19.52c-0.487,2.035-1.283,4.527-1.844,6.039
		c-0.723,1.63-1.844,3.023-3.451,4.07c-2.08,1.394-4.727,2.087-7.935,2.087c-6.489,0-10.589-2.669-10.589-6.857
		c0-1.04,0.325-2.898,0.811-4.992l4.572-19.866H113.047L113.047,259.94z"/>
	<polygon fill-rule="evenodd" clip-rule="evenodd" fill="#004C93" points="168.397,259.94 159.416,298.684 172.011,298.684 
		180.993,259.94 168.397,259.94 	"/>
	<path fill-rule="evenodd" clip-rule="evenodd" fill="#004C93" d="M233.954,262.668c-5.767-2.382-11.224-3.429-18.119-3.429
		c-8.657,0-16.112,1.917-21.717,5.522c-6.179,3.887-9.94,9.934-9.94,15.796c0,10.921,12.182,18.944,28.686,18.944
		c5.221,0,9.07-0.583,14.114-2.153l1.681-8.886c-4.085,1.917-9.129,2.957-14.1,2.957c-10.353,0-17.89-4.697-17.89-11.209
		c0-7.315,8.584-13.067,19.571-13.067c5.767,0,11.378,1.453,15.788,4.005L233.954,262.668L233.954,262.668z"/>
	<polygon fill-rule="evenodd" clip-rule="evenodd" fill="#004C93" points="243.666,259.94 234.691,298.684 246.711,298.684 
		250.487,282.593 264.991,298.684 279.342,298.684 259.137,278.183 287.601,259.94 271.644,259.94 252.721,272.719 255.7,259.94 
		243.666,259.94 	"/>
	<path fill-rule="evenodd" clip-rule="evenodd" fill="#FFFFFF" d="M328.048,265.515c-2.928-4.24-7.964-6.327-15.375-6.327
		c-9.999,0-17.078,4.358-17.078,10.516c0,3.421,2.197,6.386,6.592,8.826c1.541,0.87,3.171,1.571,4.713,2.146
		c0.243,0.059,1.71,0.582,4.395,1.452c5.044,1.748,6.909,3.083,6.909,4.941c0,2.382-2.677,4.24-6.098,4.24
		c-3.658,0-6.593-1.63-8.856-4.882l-9.926,4.646c4.72,5.869,10.404,8.429,18.538,8.429c11.386,0,19.763-5.287,19.763-12.492
		c0-4.012-2.765-7.551-7.646-9.874c-1.541-0.7-3.009-1.283-4.469-1.688c-0.332-0.11-1.703-0.517-3.982-1.165
		c-5.781-1.682-7.89-2.957-7.89-4.815c0-1.688,2.035-2.964,4.793-2.964c3.009,0,4.638,0.929,5.773,3.252L328.048,265.515
		L328.048,265.515z"/>
	<polygon fill-rule="evenodd" clip-rule="evenodd" fill="#FFFFFF" points="385.043,259.94 372.278,259.94 372.278,274.113 
		352.021,274.113 352.021,259.94 339.257,259.94 339.257,298.684 352.021,298.684 352.021,282.188 372.278,282.188 372.278,298.684 
		385.043,298.684 385.043,259.94 	"/>
	<polygon fill-rule="evenodd" clip-rule="evenodd" fill="#FFFFFF" points="407.939,259.94 395.249,259.94 395.249,298.684 
		407.939,298.684 407.939,259.94 	"/>
	<path fill-rule="evenodd" clip-rule="evenodd" fill="#FFFFFF" d="M430.969,267.314h2.279c7.809,0,11.223,1.748,11.223,5.642
		c0,2.382-1.298,4.122-3.657,4.933c-1.784,0.583-3.09,0.701-7.079,0.701h-2.766V267.314L430.969,267.314z M430.969,286.022h3.179
		c8.134,0,13.178-1.105,17.321-3.834c3.658-2.382,5.45-5.457,5.45-9.292c0-4.652-2.928-8.598-7.891-10.692
		c-4.226-1.74-7.729-2.264-16.187-2.264h-14.476v38.744h12.603V286.022L430.969,286.022z"/>
</g>
</svg>
