<?xml version="1.0" encoding="utf-8"?>
<!-- Generator: Adobe Illustrator 21.0.2, SVG Export Plug-In . SVG Version: 6.00 Build 0)  -->
<svg version="1.1" id="Calque_2" xmlns="http://www.w3.org/2000/svg" xmlns:xlink="http://www.w3.org/1999/xlink" x="0px" y="0px"
	 viewBox="0 0 500 392" style="enable-background:new 0 0 500 392;" xml:space="preserve">
<style type="text/css">
	.st0{fill:#E2001A;}
</style>
<path class="st0" d="M404,258.3c-21.1,0-38.2,17.1-38.2,38.2s17.1,38.2,38.2,38.2s38.2-17.1,38.2-38.2S425.1,258.3,404,258.3z"/>
<path class="st0" d="M333.3,23.7v344.7h141.4V23.7H333.3z M404,357.2c-33.5,0-60.7-27.2-60.7-60.7s27.2-60.7,60.7-60.7
	s60.7,27.2,60.7,60.7S437.5,357.2,404,357.2z"/>
<path class="st0" d="M179,23.7v344.7h141.4V23.7H179z M255.2,357.2c-33.5,0-60.7-27.2-60.7-60.7s27.2-60.7,60.7-60.7
	c18.7,0,35.4,8.4,46.5,21.7l-16,16c-7-9.2-18.1-15.2-30.5-15.2c-21.1,0-38.2,17.1-38.2,38.2s17.1,38.2,38.2,38.2
	c13.2,0,24.8-6.7,31.7-16.9l16.1,16.1C291.9,348.1,274.6,357.2,255.2,357.2z"/>
<path class="st0" d="M24.7,23.7v344.7h141.4V23.7H24.7z M151.1,353.3l-20-0.3c0,0-0.4-7.4-2.2-15.4L95,337.1H61.2
	c-1.9,8-2.4,15.4-2.4,15.4h-20c0-79.2,56.6-116.7,56.6-116.7h0.8C96.2,235.9,152.2,274.1,151.1,353.3z"/>
<path class="st0" d="M95.6,265.8h-0.4c0,0-23.6,17.9-28.5,49.9h56.7C118.8,283.9,95.6,265.8,95.6,265.8z"/>
</svg>
