<?xml version="1.0" encoding="utf-8"?>
<!-- Generator: Adobe Illustrator 19.1.0, SVG Export Plug-In . SVG Version: 6.00 Build 0)  -->
<svg version="1.1" id="Calque_2" xmlns="http://www.w3.org/2000/svg" xmlns:xlink="http://www.w3.org/1999/xlink" x="0px" y="0px"
	 viewBox="0 0 500 500" style="enable-background:new 0 0 500 500;" xml:space="preserve">
<style type="text/css">
	.st0{fill:#E2001A;}
</style>
<g>
	<g>
		<path class="st0" d="M404,312.3c-21.1,0-38.2,17.1-38.2,38.2s17.1,38.2,38.2,38.2s38.2-17.1,38.2-38.2S425.1,312.3,404,312.3z"/>
		<path class="st0" d="M333.3,77.7v344.7h141.4V77.7H333.3z M404,411.2c-33.5,0-60.7-27.2-60.7-60.7s27.2-60.7,60.7-60.7
			c33.5,0,60.7,27.2,60.7,60.7S437.5,411.2,404,411.2z"/>
	</g>
	<path class="st0" d="M179,77.7v344.7h141.4V77.7H179z M255.2,411.2c-33.5,0-60.7-27.2-60.7-60.7s27.2-60.7,60.7-60.7
		c18.7,0,35.4,8.4,46.5,21.7l-16,16c-7-9.2-18.1-15.2-30.5-15.2c-21.1,0-38.2,17.1-38.2,38.2s17.1,38.2,38.2,38.2
		c13.2,0,24.8-6.7,31.7-16.9l16.1,16.1C291.9,402.1,274.6,411.2,255.2,411.2z"/>
	<g>
		<path class="st0" d="M24.7,77.7v344.7h141.4V77.7H24.7z M151.1,407.3l-20-0.3c0,0-0.4-7.4-2.2-15.4l-33.9-0.5H61.2
			c-1.9,8-2.4,15.4-2.4,15.4h-20c0-79.2,56.6-116.7,56.6-116.7l0.8,0C96.2,289.9,152.2,328.1,151.1,407.3z"/>
		<path class="st0" d="M95.6,319.8l-0.4,0c0,0-23.6,17.9-28.5,49.9h56.7C118.8,337.9,95.6,319.8,95.6,319.8z"/>
	</g>
</g>
</svg>
