<?xml version="1.0" encoding="utf-8"?>
<!-- Generator: Adobe Illustrator 19.1.0, SVG Export Plug-In . SVG Version: 6.00 Build 0)  -->
<svg version="1.1" id="Calque_2" xmlns="http://www.w3.org/2000/svg" xmlns:xlink="http://www.w3.org/1999/xlink" x="0px" y="0px"
	 viewBox="0 0 500 500" style="enable-background:new 0 0 500 500;" xml:space="preserve">
<style type="text/css">
	.st0{fill:#E2001A;}
</style>
<g>
	<polygon class="st0" points="434.1,195.2 402.3,195.2 357.4,259.8 357.4,195.2 329.5,195.2 329.5,304.7 360.5,304.7 434.1,196.3 	
		"/>
	<path class="st0" d="M269.8,195.2c-30.5,0-55.3,24.8-55.3,55.3c0,30.5,24.8,55.3,55.3,55.3c30.5,0,55.3-24.8,55.3-55.3
		C325.1,219.9,300.3,195.2,269.8,195.2z M269.8,277.8c-15.1,0-27.4-12.3-27.4-27.4c0-15.1,12.3-27.4,27.4-27.4
		c15.1,0,27.4,12.3,27.4,27.4C297.1,265.6,284.9,277.8,269.8,277.8z"/>
	<path class="st0" d="M129.6,250.5c0,30.5,24.8,55.3,55.3,55.3c9.6,0,18.7-2.5,26.6-6.8v-42.1c-2.9,12-13.7,20.9-26.6,20.9
		c-15.1,0-27.4-12.3-27.4-27.4c0-15.1,12.3-27.4,27.4-27.4c12.9,0,23.7,8.9,26.6,20.9V202c-7.9-4.3-16.9-6.8-26.6-6.8
		C154.3,195.2,129.6,219.9,129.6,250.5z"/>
	<path class="st0" d="M24.6,303.5v1.2h32.9l9.7-15.1H98v15.1h27.9V195.2H98.3L24.6,303.5z M97.9,265.8H83.4l13.8-20.1h0.7
		L97.9,265.8L97.9,265.8z"/>
	<path class="st0" d="M447,195.2l-73.6,108.3v1.2h32.9l9.7-15.1h30.8v15.1h27.9V195.2H447z M446.7,265.8h-14.5l13.8-20.1h0.7
		L446.7,265.8L446.7,265.8z"/>
</g>
</svg>
