<?xml version="1.0" encoding="utf-8"?>
<!-- Generator: Adobe Illustrator 15.0.0, SVG Export Plug-In . SVG Version: 6.00 Build 0)  -->
<!DOCTYPE svg PUBLIC "-//W3C//DTD SVG 1.1//EN" "http://www.w3.org/Graphics/SVG/1.1/DTD/svg11.dtd">
<svg version="1.1" id="Calque_1" xmlns="http://www.w3.org/2000/svg" xmlns:xlink="http://www.w3.org/1999/xlink" x="0px" y="0px"
	 width="500px" height="500px" viewBox="0 0 500 500" enable-background="new 0 0 500 500" xml:space="preserve">
<g>
	<g>
		<path fill="#001739" d="M298.781,245.763v-3.671h-3.525h-34.954v3.671h11.162v30.843h13.021v-30.843h4.817
			c1.685,0.722,4.059,2.192,5.953,5.141h3.525V245.763z"/>
		<path fill="#001739" d="M174.237,230.391l-1.86,3.035c0,0,2.938,0.392,4.21,3.818c0.059,0.158,0.165,0.406,0.292,0.694
			l-18.576,38.446h5.654l6.139-12.704h15.157l-1.518-3.525h-11.936l7.889-16.326c5.534,11.289,16.384,32.58,16.384,32.58h13.903
			l-22.911-45.823L174.237,230.391z"/>
		<path fill="#001739" d="M341.541,271.098l-0.578-0.953c-0.033-0.076-0.074-0.144-0.104-0.223l-0.34-0.51l-17.063-28.153h-4.896
			l-20.365,35.15h5.091l4.918-8.42h14.077l-1.371-2.938h-10.99l6.532-11.185l2.447,3.384l12.194,19.061h7.931l6.413,0.098
			l1.859-3.035C347.296,273.374,343.398,273.354,341.541,271.098z"/>
		<path fill="#001739" d="M408.916,245.263c0,0,5.165-0.047,6.485,3.361l-0.202,27.785l13.316-0.195v-33.996l-17.782-0.015
			L408.916,245.263z"/>
		<path fill="#001739" d="M386.291,260.448l0.024,0.002c0,0,9.987-0.588,9.987-9.204c0-8.617-10.086-9.008-15.568-9.008
			c-5.483,0-11.358-0.02-11.358-0.02l-17.781-0.015l-1.817,3.06c0,0,5.164-0.047,6.485,3.361l-0.203,27.785l13.316-0.195v-30.848
			c10.852,0.1,14.197,2.735,14.197,6.076c0,7.05-11.553,8.225-11.553,8.225l13.637,16.757l14.645,0.014l1.818-3.061
			c0,0-3.8-1.001-6.486-3.361L386.291,260.448z"/>
		<path fill="#001739" d="M470.814,256.827c-3.035-1.175-9.278-3.085-11.063-3.917c-2.185-1.019-5.495-2.517-5.288-4.7
			c0.176-1.852,2.839-4.406,8.42-4.406s12.631,3.329,12.631,3.329c0.637-3.525-1.566-4.798-1.566-4.798s-4.603-0.685-13.512-0.685
			s-17.134,2.546-17.134,9.596c0,7.049,7.049,9.399,10.084,10.574c3.035,1.176,9.302,3.035,11.064,3.916s3.721,2.644,3.721,3.819
			c0,1.074-0.021,4.007-6.457,4.15c-6.438,0.143-15.984-1.609-17.665-3.647c0,5.292,0,5.436,0,5.436l6.204,0.817
			c0,0,4.602,0.685,13.512,0.685s17.135-2.545,17.135-9.595S473.849,258.002,470.814,256.827z"/>
		<path fill="#001739" d="M232.837,241.749c-9.814,0-17.771,7.957-17.771,17.771s7.957,17.771,17.771,17.771h9.058
			c7.833,0,11.945-2.938,11.945-2.938v-3.427c0,0-4.309,3.035-12.729,3.035s-10.966-7.734-10.966-12.337v-4.015
			c0-4.602,2.546-12.337,10.966-12.337s12.729,3.036,12.729,3.036V244c-4.7-1.86-9.89-2.252-12.925-2.252H232.837z"/>
	</g>
	<g>
		<path fill="#FF7900" d="M109.096,232.25c-0.848-2.624-4.79-3.698-8.803-2.4c-1.001,0.323-1.912,0.765-2.702,1.285
			c-1.271-1.488-3.876-2.029-6.48-1.187c-1.408,0.456-2.578,1.239-3.382,2.17c-0.872-1.666-4.033-2.169-7.34-1.099
			c-2.12,0.686-3.812,1.861-4.684,3.106c-1.219-0.763-3.522-0.832-5.93-0.052c-2.616,0.846-4.545,2.429-4.885,3.857
			c-0.884-1.183-3.188-1.543-5.562-0.776c-2.709,0.876-4.483,2.892-3.963,4.5c0.521,1.609,3.139,2.203,5.848,1.326
			c2.197-0.711,3.778-2.169,4.021-3.554c0.981,1.14,3.632,1.376,6.425,0.472c1.769-0.573,3.221-1.482,4.084-2.453
			c1.244,1.183,4.011,1.445,6.892,0.513c1.647-0.533,3.037-1.361,3.984-2.288c0.023,0.106,0.045,0.213,0.079,0.319
			c0.747,2.307,3.933,3.343,7.117,2.313c0.416-0.134,0.809-0.299,1.179-0.485c1.358,1.978,4.837,2.677,8.374,1.533
			C107.381,238.054,109.946,234.874,109.096,232.25z"/>
		
			<ellipse transform="matrix(-0.3079 -0.9514 0.9514 -0.3079 -165.9798 367.6156)" fill="#FF7900" cx="50.724" cy="244.18" rx="3.062" ry="5.155"/>
		
			<ellipse transform="matrix(-0.3078 -0.9515 0.9515 -0.3078 -182.9113 365.9098)" fill="#FF7900" cx="41.65" cy="249.492" rx="2.746" ry="4.623"/>
		
			<ellipse transform="matrix(-0.3079 -0.9514 0.9514 -0.3079 -197.672 365.6307)" fill="#FF7900" cx="34.156" cy="254.715" rx="2.289" ry="3.855"/>
		
			<ellipse transform="matrix(-0.3079 -0.9514 0.9514 -0.3079 -209.5651 367.2726)" fill="#FF7900" cx="28.796" cy="259.856" rx="2.168" ry="3.275"/>
		
			<ellipse transform="matrix(-0.3078 -0.9514 0.9514 -0.3078 -220.3647 370.5555)" fill="#FF7900" cx="24.61" cy="265.437" rx="2.047" ry="2.696"/>
	</g>
	<g>
		<path fill="#CEEBF9" d="M109.278,279.146c2.691,0.605,5.622-2.241,6.546-6.355c0.23-1.026,0.314-2.035,0.269-2.981
			c1.927-0.337,3.719-2.303,4.318-4.975c0.325-1.442,0.245-2.849-0.147-4.016c1.878,0.098,3.919-2.367,4.68-5.76
			c0.489-2.173,0.338-4.229-0.29-5.613c1.277-0.66,2.508-2.608,3.062-5.078c0.603-2.682,0.222-5.148-0.835-6.167
			c1.468-0.16,2.951-1.959,3.498-4.393c0.624-2.778-0.208-5.331-1.858-5.702s-3.493,1.582-4.117,4.359
			c-0.505,2.253-0.055,4.356,1.013,5.27c-1.48,0.265-3.032,2.427-3.676,5.292c-0.407,1.814-0.363,3.527,0.034,4.763
			c-1.651,0.469-3.285,2.718-3.949,5.671c-0.38,1.689-0.374,3.308-0.058,4.595c-0.104-0.034-0.207-0.069-0.315-0.095
			c-2.367-0.531-4.879,1.686-5.612,4.949c-0.096,0.427-0.155,0.849-0.183,1.262c-2.393,0.164-4.765,2.804-5.58,6.43
			C105.155,274.716,106.587,278.542,109.278,279.146z"/>
		
			<ellipse transform="matrix(0.9757 0.2193 -0.2193 0.9757 51.9884 -22.7986)" fill="#CEEBF9" cx="128.709" cy="222.825" rx="3.062" ry="5.156"/>
		
			<ellipse transform="matrix(0.9757 0.2192 -0.2192 0.9757 49.6604 -23.0563)" fill="#CEEBF9" cx="128.754" cy="212.311" rx="2.746" ry="4.624"/>
		
			<ellipse transform="matrix(0.9757 0.219 -0.219 0.9757 47.6118 -23.1151)" fill="#CEEBF9" cx="128.07" cy="203.202" rx="2.29" ry="3.855"/>
		
			<ellipse transform="matrix(0.9757 0.219 -0.219 0.9757 45.9837 -22.9177)" fill="#CEEBF9" cx="126.372" cy="195.971" rx="2.168" ry="3.276"/>
		
			<ellipse transform="matrix(0.9757 0.2191 -0.2191 0.9757 44.5232 -22.4941)" fill="#CEEBF9" cx="123.698" cy="189.528" rx="2.047" ry="2.695"/>
	</g>
	<g>
		<path fill="#009EE0" d="M69.722,255.841c-1.883,2.015-0.912,5.982,2.17,8.864c0.769,0.717,1.596,1.301,2.434,1.739
			c-0.685,1.832,0.104,4.373,2.105,6.241c1.081,1.012,2.333,1.654,3.537,1.907c-1.034,1.57,0.059,4.578,2.599,6.951
			c1.628,1.521,3.477,2.433,4.989,2.591c-0.078,1.437,0.98,3.482,2.829,5.211c2.008,1.877,4.329,2.797,5.742,2.401
			c-0.605,1.347,0.196,3.537,2.018,5.239c2.081,1.945,4.704,2.52,5.858,1.284c1.155-1.234,0.404-3.812-1.676-5.757
			c-1.687-1.575-3.729-2.252-5.058-1.794c0.521-1.41-0.559-3.844-2.703-5.848c-1.358-1.27-2.859-2.099-4.125-2.382
			c0.432-1.66-0.682-4.209-2.893-6.276c-1.265-1.182-2.664-1.995-3.933-2.374c0.082-0.072,0.165-0.144,0.24-0.225
			c1.656-1.771,1.016-5.061-1.428-7.346c-0.318-0.298-0.653-0.562-0.996-0.796c1.07-2.146-0.005-5.527-2.721-8.065
			C75.63,254.527,71.606,253.826,69.722,255.841z"/>
		
			<ellipse transform="matrix(-0.6829 0.7305 -0.7305 -0.6829 402.4997 427.4813)" fill="#009EE0" cx="108.463" cy="301.105" rx="3.062" ry="5.156"/>
		
			<ellipse transform="matrix(-0.6828 0.7306 -0.7306 -0.6828 421.6438 429.8802)" fill="#009EE0" cx="117.508" cy="306.466" rx="2.746" ry="4.623"/>
		
			<ellipse transform="matrix(-0.6827 0.7307 -0.7307 -0.6827 438.4126 430.579)" fill="#009EE0" cx="125.711" cy="310.486" rx="2.29" ry="3.854"/>
		
			<ellipse transform="matrix(-0.6828 0.7306 -0.7306 -0.6828 451.9261 429.1644)" fill="#009EE0" cx="132.805" cy="312.681" rx="2.168" ry="3.276"/>
		
			<ellipse transform="matrix(-0.6827 0.7307 -0.7307 -0.6827 464.2785 425.6494)" fill="#009EE0" cx="139.717" cy="313.635" rx="2.047" ry="2.696"/>
	</g>
</g>
</svg>
