<?xml version="1.0" encoding="utf-8"?>
<!-- Generator: Adobe Illustrator 19.1.0, SVG Export Plug-In . SVG Version: 6.00 Build 0)  -->
<svg version="1.1" id="Calque_1" xmlns="http://www.w3.org/2000/svg" xmlns:xlink="http://www.w3.org/1999/xlink" x="0px" y="0px"
	 viewBox="-345 170.9 500 500" style="enable-background:new -345 170.9 500 500;" xml:space="preserve">
<style type="text/css">
	.st0{fill:#ED0325;}
	.st1{fill:#FFFFFF;}
</style>
<path class="st0" d="M127.8,304.2c0,0-17.5,31.1-114.1,31.1S-124.4,272-200.6,272s-114.3,29.3-114.3,29.3v238.1
	c13.6-10.9,43.6-29.9,106.8-29.9c96.6,0,138.1,63.3,214.3,63.3c76.2,0,114.3-29.3,114.3-29.3l7.3-7L127.8,304.2L127.8,304.2z"/>
<path class="st1" d="M-151.6,442.5l-7.9-11.7h-31.2l-7.9,11.7h-13l31.5-46.2c0.6-0.9,1.3-1.7,2.2-2.2c0.9-0.6,2-0.9,3.2-0.9
	c1.2,0,2.3,0.3,3.1,0.9c0.8,0.5,1.5,1.3,2.1,2.2l31.5,46.2L-151.6,442.5L-151.6,442.5z M-165.3,422.1l-9.8-14.6l-9.8,14.6H-165.3z"
	/>
<path d="M-174.8,393.8c1.1,0,2,0.3,2.8,0.8c0.7,0.5,1.4,1.2,1.9,2l30.8,45.2h-11.9l-7.9-11.7h-32l-7.9,11.7h-11.4l30.7-45.2
	c0.6-0.8,1.2-1.5,2-2C-176.8,394.1-175.9,393.8-174.8,393.8 M-186.2,422.7h22.2l-11.1-16.5L-186.2,422.7 M-174.8,392.5
	c-1.3,0-2.5,0.3-3.5,1c-0.9,0.6-1.7,1.4-2.4,2.4l-30.7,45.2l-1.4,2.1h2.6h11.4h0.7l0.4-0.6l7.5-11.1h30.5l7.5,11.1l0.4,0.6h0.7h11.9
	h2.6l-1.5-2.1l-30.8-45.2c-0.6-1-1.4-1.8-2.3-2.4C-172.3,392.8-173.5,392.5-174.8,392.5L-174.8,392.5z M-183.7,421.4l8.5-12.7
	l8.6,12.7H-183.7L-183.7,421.4z"/>
<path class="st1" d="M25.1,443c-1.7,0-3.4-0.7-4.8-2l-34.8-31.4v32.9h-10.7v-43.4c0-1.8,0.5-3.2,1.5-4.3c1-1.1,2.4-1.6,4.1-1.6
	c0.8,0,1.6,0.2,2.3,0.5c0.7,0.3,1.5,0.8,2.2,1.5l34.9,31.1v-32.9h10.7v43.8c0,1.8-0.5,3.3-1.5,4.3C28,442.5,26.7,443,25.1,443z"/>
<path d="M-19.5,393.9c0.7,0,1.4,0.1,2.1,0.4c0.6,0.3,1.3,0.7,2,1.3l36.1,32.2v-33.7h9.3v43.1c0,1.6-0.5,2.9-1.3,3.8
	c-0.9,0.9-2.1,1.4-3.5,1.4c-1.6,0-3-0.6-4.4-1.8l-35.9-32.5v33.7h-9.3v-42.7c0-1.6,0.5-2.9,1.3-3.8C-22.3,394.4-21,393.9-19.5,393.9
	 M-19.5,392.5c-1.9,0-3.5,0.6-4.6,1.8c-1.1,1.2-1.7,2.8-1.7,4.7v42.7v1.4h1.4h9.3h1.4v-1.4v-30.6l33.6,30.4c1.6,1.4,3.4,2.2,5.3,2.2
	c1.8,0,3.3-0.6,4.5-1.8c1.1-1.2,1.7-2.8,1.7-4.8v-43.1v-1.4h-1.4h-9.3h-1.4v1.4v30.7l-33.8-30.1c-0.8-0.7-1.6-1.3-2.4-1.6
	C-17.8,392.7-18.6,392.5-19.5,392.5L-19.5,392.5z"/>
<polygon class="st1" points="53.8,442.5 53.8,404 31.6,404 31.6,393.8 85.2,393.8 85.2,404 64,404 64,442.5 "/>
<path d="M84.5,394.5v8.8H63.3v38.5h-8.8v-38.5H32.3v-8.8H84.5 M85.9,393.1h-1.4H32.3h-1.4v1.4v8.8v1.4h1.4h20.9v37.1v1.4h1.4h8.8
	h1.4v-1.4v-37.1h19.9h1.4v-1.4v-8.8L85.9,393.1L85.9,393.1z"/>
<path class="st1" d="M-245.6,442.5c-12.1,0-13.9-8.6-13.9-13.7v-35h10.2v31.9c0,6.1,5.5,6.6,7.2,6.6l31.9,0v10.2L-245.6,442.5
	L-245.6,442.5z"/>
<path d="M-250,394.5v31.3c0,6.9,6.6,7.2,7.9,7.2c0.1,0,0.2,0,0.2,0l31,0v8.8h-34.7c-11.5,0-13.2-8.1-13.2-13v-34.3L-250,394.5
	 M-248.6,393.1h-1.4h-8.8h-1.4v1.4v34.3c0,4.3,1.4,14.4,14.6,14.4h34.7h1.4v-1.4V433v-1.4h-1.4l-31,0l-0.2,0c-1.5,0-6.5-0.4-6.5-5.9
	v-31.3L-248.6,393.1L-248.6,393.1z"/>
<path class="st1" d="M-139.1,442.5v-34.3c0,0-0.8-6.5,3-10.9c2.1-2.3,5.1-3.5,8.9-3.5H-88v9.3h-31.5c-8.3,0-8.7,3.2-8.7,8.9v2.1
	h28.8v9.2h-28.8v19.3H-139.1z"/>
<path d="M-88.7,394.5v7.9h-30.8c-8.8,0-9.4,3.6-9.4,9.5v2.8h28.8v7.8h-28.8v19.3h-9.5v-33.6c0-0.2-0.8-6.4,2.8-10.4
	c1.9-2.2,4.8-3.3,8.4-3.3L-88.7,394.5 M-87.3,393.1h-1.4h-38.6c-4,0-7.2,1.3-9.4,3.8c-3.7,4.2-3.2,10.5-3.1,11.4v33.6v1.4h1.4h9.5
	h1.4v-1.4v-18h27.5h1.4v-1.4v-7.8v-1.4h-1.4h-27.5v-1.4c0-5.5,0.3-8.2,8.1-8.2h30.8h1.4v-1.4v-7.9L-87.3,393.1L-87.3,393.1z"/>
<path class="st1" d="M-69,440.4c-8.5,0-15.4-6.9-15.4-15.3v-14.9c0-8.5,6.9-15.3,15.4-15.3h24.1c8.5,0,15.4,6.9,15.4,15.3V425
	c0,8.5-6.9,15.3-15.4,15.3H-69z M-69,404.1c-3.3,0-6.1,2.7-6.1,6V425c0,3.3,2.7,6,6.1,6h24.1c3.3,0,6.1-2.7,6.1-6v-14.9
	c0-3.3-2.7-6-6.1-6H-69z"/>
<path d="M-44.9,395.4c8.1,0,14.7,6.6,14.7,14.7V425c0,8.1-6.6,14.7-14.7,14.7H-69c-8.1,0-14.7-6.6-14.7-14.7v-14.9
	c0-8.1,6.6-14.7,14.7-14.7L-44.9,395.4 M-69,431.7h24.1c3.7,0,6.7-3,6.7-6.7v-14.9c0-3.7-3-6.7-6.7-6.7H-69c-3.7,0-6.7,3-6.7,6.7
	V425C-75.8,428.7-72.7,431.7-69,431.7 M-44.9,394.1H-69c-8.9,0-16.1,7.2-16.1,16V425c0,8.8,7.2,16,16.1,16h24.1
	c8.9,0,16.1-7.2,16.1-16v-14.9C-28.8,401.3-36,394.1-44.9,394.1L-44.9,394.1z M-69,430.4c-3,0-5.4-2.4-5.4-5.3v-14.9
	c0-2.9,2.4-5.3,5.4-5.3h24.1c3,0,5.4,2.4,5.4,5.3V425c0,2.9-2.4,5.3-5.4,5.3H-69L-69,430.4z"/>
</svg>
