<?xml version="1.0" encoding="utf-8"?>
<!-- Generator: Adobe Illustrator 16.0.0, SVG Export Plug-In . SVG Version: 6.00 Build 0)  -->
<!DOCTYPE svg PUBLIC "-//W3C//DTD SVG 1.1//EN" "http://www.w3.org/Graphics/SVG/1.1/DTD/svg11.dtd">
<svg version="1.1" id="Calque_2" xmlns="http://www.w3.org/2000/svg" xmlns:xlink="http://www.w3.org/1999/xlink" x="0px" y="0px"
	 width="500px" height="500px" viewBox="0 0 500 500" enable-background="new 0 0 500 500" xml:space="preserve">
<g>
	<g>
		<polygon fill="#006AB3" points="50.838,283.805 75.925,274.235 101.012,283.805 75.925,222.385 		"/>
		<path fill="#006AB3" d="M25,199.909v100.399h101.85V199.909H25z M75.925,281.792L37.6,296.41l38.326-93.833l38.326,93.833
			L75.925,281.792z"/>
	</g>
	<polygon points="218.049,228.76 259.299,228.76 259.299,222.611 218.049,222.611 218.049,205.961 261.099,205.961 261.099,199.909 
		211.149,199.909 211.149,253.096 218.049,253.096 	"/>
	<rect x="329.5" y="199.909" width="7.502" height="53.187"/>
	<path d="M168.4,199.909l-31.5,53.187h8.48l6.071-11.435h42.45l6.072,11.435h8.476l-31.5-53.187H168.4z M172.677,235.51h-17.625
		l17.625-29.549l17.626,29.549H172.677z"/>
	<path fill="#006AB3" d="M340.163,272.808l-16.464,27.798h4.433l3.175-5.977h22.188l3.175,5.977h4.43l-16.464-27.798H340.163z
		 M342.398,291.414h-9.211l9.211-15.442l9.215,15.442H342.398z"/>
	<path d="M459.694,199.211h-37.188c-8.417,0-15.308,6.887-15.308,15.307v23.27c0,8.42,6.891,15.307,15.308,15.307h37.188
		c8.416,0,15.307-6.887,15.307-15.307v-23.27C475,206.099,468.11,199.211,459.694,199.211z M467.501,236.931
		c0,5.613-4.591,10.206-10.206,10.206h-32.393c-5.614,0-10.206-4.593-10.206-10.206v-21.554c0-5.613,4.592-10.206,10.206-10.206
		h32.393c5.615,0,10.206,4.593,10.206,10.206V236.931z"/>
	<path fill="#006AB3" d="M281.244,272.627h-19.438c-4.398,0-8.002,3.6-8.002,7.999v12.163c0,4.399,3.604,7.999,8.002,7.999h19.438
		c4.398,0,7.998-3.6,7.998-7.999v-12.163C289.242,276.227,285.642,272.627,281.244,272.627z M285.326,292.339
		c0,2.934-2.401,5.335-5.337,5.335h-16.932c-2.932,0-5.333-2.401-5.333-5.335v-11.265c0-2.934,2.401-5.333,5.333-5.333h16.932
		c2.936,0,5.337,2.399,5.337,5.333V292.339z"/>
	<path fill="#006AB3" d="M293.865,292.789c0,4.399,2.922,7.999,7.319,7.999h12.234c4.402,0,6.202-3.6,6.202-7.999v-19.981h-3.92
		v19.531c0,2.934-0.602,5.335-3.533,5.335h-9.731c-2.932,0-5.333-2.401-5.333-5.335v-2.212h-3.267L293.865,292.789z"/>
	<path fill="#006AB3" d="M366.627,272.808v19.981c0,4.399,3.263,7.999,7.246,7.999h17.606c3.986,0,7.245-3.6,7.245-7.999v-19.981
		h-3.547v19.531c0,2.934-2.176,5.335-4.834,5.335h-15.335c-2.658,0-4.831-2.401-4.831-5.335v-19.531H366.627z"/>
	<path fill="#006AB3" d="M176.351,272.808v19.981c0,4.399,3.263,7.999,7.248,7.999h17.606c3.985,0,7.246-3.6,7.246-7.999v-19.981
		h-3.549v19.531c0,2.934-2.175,5.335-4.833,5.335h-15.337c-2.658,0-4.831-2.401-4.831-5.335v-19.531H176.351z"/>
	<path d="M323.952,219.456v-9.341c0-5.613-4.592-10.206-10.206-10.206h-4.496h-29.992h-14.856v53.187h7.502V232.31h37.347h0.302
		h2.25c2.806,0,5.102,2.295,5.102,5.103v15.047h7.049v-12.593c0-5.613-4.592-10.206-10.206-10.206
		C319.36,229.66,323.952,225.069,323.952,219.456z M316.903,219.071c0,3.896-3.186,7.082-7.08,7.082h-0.573h-37.347v-20.649h13.979
		h23.368h0.573c3.895,0,7.08,3.187,7.08,7.084V219.071z"/>
	<path fill="#006AB3" d="M247.6,283.025v-4.883c0-2.932-2.399-5.333-5.333-5.333h-2.35H224.24h-7.765v27.796h3.922v-10.863h19.521
		h0.158h1.175c1.467,0,2.667,1.199,2.667,2.667v7.864h3.684v-6.581c0-2.936-2.399-5.335-5.333-5.335
		C245.201,288.357,247.6,285.96,247.6,283.025z M243.917,282.825c0,2.036-1.666,3.7-3.701,3.7h-0.299h-19.521v-10.791h7.306h12.214
		h0.299c2.035,0,3.701,1.665,3.701,3.702V282.825z"/>
	<path d="M389.296,223.287h-0.442l-33.655-0.376c-3.368,0-6.124-2.754-6.124-6.122v-5.305c0-3.366,2.756-6.123,6.124-6.123h33.655
		c3.367,0,6.12,2.756,6.12,6.123v3.777h6.976v-2.273c0-7.578-6.198-13.776-13.774-13.776h-31.999
		c-7.576,0-13.778,6.198-13.778,13.776v2.897c0,7.576,6.202,13.776,13.778,13.776l33.943-0.212c3.393,0.068,6.145,2.786,6.145,6.11
		v5.305c0,3.368-2.819,6.123-6.271,6.123h-34.481c-3.448,0-6.271-2.754-6.271-6.123v-5.015h-6.778
		c-0.035,0.401-0.063,0.805-0.063,1.215v2.897c0,7.576,6.353,13.776,14.115,13.776h32.783c7.763,0,14.115-6.2,14.115-13.776v-2.897
		C403.412,229.484,397.059,223.287,389.296,223.287z"/>
	<polygon fill="#006AB3" points="169.3,275.972 169.3,272.81 143.199,272.81 143.199,300.599 146.805,300.599 169.3,300.599 
		169.3,297.437 146.805,297.437 146.805,287.885 168.36,287.885 168.36,284.671 146.805,284.671 146.805,275.972 	"/>
	<polygon fill="#006AB3" points="474.174,275.972 474.174,272.81 448.075,272.81 448.075,300.599 451.678,300.599 474.174,300.599 
		474.174,297.437 451.678,297.437 451.678,287.885 473.236,287.885 473.236,284.671 451.678,284.671 451.678,275.972 	"/>
	<path fill="#006AB3" d="M437.183,286.705h-2.085h-12.6v3.403h14.685v2.23c0,2.934-2.401,5.335-5.337,5.335h-16.932
		c-2.932,0-5.333-2.401-5.333-5.335v-11.265c0-2.934,2.401-5.333,5.333-5.333h16.932c2.936,0,5.337,2.399,5.337,5.333v0.035h3.916
		v-0.483c0-4.399-3.6-7.999-7.998-7.999h-19.438c-4.398,0-8.002,3.6-8.002,7.999v12.163c0,4.399,3.604,7.999,8.002,7.999h19.438
		c4.398,0,7.998-3.6,7.998-7.999v-6.084H437.183z"/>
</g>
</svg>
