<?xml version="1.0" encoding="utf-8"?>
<!-- Generator: Adobe Illustrator 15.0.0, SVG Export Plug-In . SVG Version: 6.00 Build 0)  -->
<!DOCTYPE svg PUBLIC "-//W3C//DTD SVG 1.1//EN" "http://www.w3.org/Graphics/SVG/1.1/DTD/svg11.dtd">
<svg version="1.1" id="Calque_1" xmlns="http://www.w3.org/2000/svg" xmlns:xlink="http://www.w3.org/1999/xlink" x="0px" y="0px"
	 width="500px" height="500px" viewBox="0 0 500 500" enable-background="new 0 0 500 500" xml:space="preserve">
<g>
	<g>
		<g>
			<path fill="#1A171B" d="M107.952,304.285h4.746v18.528h-4.746V304.285z"/>
		</g>
		<g>
			<path fill="#1A171B" d="M132.267,304.285h4.413l5.786,10.255v-10.255h4.494v18.528h-4.494l-5.756-10.198v10.198h-4.443V304.285z"
				/>
		</g>
		<g>
			<path fill="#1A171B" d="M166.265,304.285h7.081c1.389,0,2.519,0.227,3.375,0.681c0.859,0.455,1.572,1.111,2.127,1.963
				c0.568,0.853,0.972,1.837,1.224,2.967c0.253,1.129,0.38,2.328,0.38,3.591c0,1.981-0.189,3.515-0.569,4.606
				c-0.372,1.092-0.896,2.007-1.559,2.745c-0.663,0.732-1.382,1.225-2.146,1.471c-1.042,0.334-1.988,0.505-2.833,0.505h-7.081
				V304.285z M171.01,308.476v10.147h1.18c1.01,0,1.723-0.133,2.152-0.397c0.43-0.265,0.757-0.732,0.998-1.395
				c0.239-0.663,0.365-1.736,0.365-3.226c0-1.969-0.271-3.312-0.807-4.038c-0.542-0.727-1.438-1.092-2.688-1.092H171.01z"/>
		</g>
		<g>
			<path fill="#1A171B" d="M209.021,304.285h4.746v11.031c0,1.092-0.146,2.127-0.424,3.099c-0.29,0.972-0.731,1.824-1.337,2.549
				c-0.606,0.727-1.237,1.237-1.907,1.534c-0.92,0.41-2.032,0.619-3.319,0.619c-0.751,0-1.564-0.064-2.455-0.19
				c-0.884-0.126-1.622-0.379-2.215-0.75c-0.593-0.373-1.142-0.909-1.634-1.597c-0.492-0.688-0.827-1.401-1.016-2.134
				c-0.291-1.18-0.436-2.222-0.436-3.13v-11.031h4.746v11.277c0,1.01,0.233,1.799,0.695,2.36c0.466,0.567,1.11,0.852,1.937,0.852
				c0.814,0,1.452-0.277,1.918-0.839c0.467-0.556,0.701-1.352,0.701-2.373V304.285z"/>
		</g>
		<g>
			<path fill="#1A171B" d="M232.214,316.691l4.493-0.34c0.095,0.883,0.297,1.553,0.6,2.013c0.492,0.745,1.193,1.117,2.114,1.117
				c0.682,0,1.213-0.189,1.578-0.574c0.366-0.386,0.556-0.827,0.556-1.332c0-0.479-0.177-0.908-0.536-1.287
				c-0.36-0.379-1.174-0.738-2.449-1.079c-2.083-0.562-3.566-1.312-4.462-2.247c-0.896-0.934-1.337-2.12-1.337-3.565
				c0-0.953,0.227-1.85,0.681-2.695c0.46-0.846,1.148-1.508,2.07-1.994c0.92-0.485,2.183-0.725,3.786-0.725
				c1.962,0,3.458,0.435,4.494,1.312c1.034,0.877,1.64,2.271,1.843,4.178l-4.494,0.315c-0.12-0.827-0.365-1.433-0.751-1.806
				c-0.379-0.378-0.903-0.567-1.571-0.567c-0.556,0-0.972,0.139-1.25,0.423c-0.277,0.284-0.417,0.625-0.417,1.028
				c0,0.297,0.114,0.562,0.348,0.796c0.22,0.246,0.757,0.473,1.596,0.682c2.076,0.542,3.566,1.085,4.469,1.641
				c0.895,0.549,1.552,1.236,1.956,2.051c0.411,0.813,0.618,1.729,0.618,2.739c0,1.192-0.277,2.284-0.821,3.287
				c-0.542,0.997-1.306,1.762-2.284,2.278c-0.978,0.518-2.209,0.777-3.699,0.777c-2.612,0-4.417-0.606-5.427-1.818
				C232.913,320.094,232.339,318.554,232.214,316.691z"/>
		</g>
		<g>
			<path fill="#1A171B" d="M263.572,304.285h14.44v4.594h-4.848v13.935h-4.745v-13.935h-4.848V304.285z"/>
		</g>
		<g>
			<path fill="#1A171B" d="M296.301,322.813v-18.528h7.919c1.471,0,2.595,0.151,3.371,0.454c0.775,0.303,1.4,0.864,1.881,1.691
				c0.473,0.82,0.712,1.817,0.712,2.997c0,1.029-0.183,1.919-0.549,2.664c-0.36,0.744-0.864,1.35-1.496,1.811
				c-0.41,0.297-0.966,0.543-1.672,0.732c0.568,0.233,0.979,0.46,1.237,0.688c0.176,0.151,0.429,0.479,0.764,0.979
				c0.328,0.498,0.548,0.883,0.662,1.148l2.316,5.364h-5.365l-2.562-5.667c-0.321-0.732-0.612-1.206-0.871-1.426
				c-0.347-0.285-0.737-0.43-1.18-0.43h-0.423v7.522H296.301z M301.046,311.808h2.032c0.221,0,0.644-0.082,1.275-0.253
				c0.321-0.075,0.58-0.271,0.781-0.587c0.203-0.309,0.303-0.675,0.303-1.079c0-0.6-0.157-1.061-0.479-1.388
				c-0.316-0.316-0.916-0.48-1.799-0.48h-2.114V311.808z"/>
		</g>
		<g>
			<path fill="#1A171B" d="M329.262,304.285h4.745v18.528h-4.745V304.285z"/>
		</g>
		<g>
			<path fill="#1A171B" d="M353.521,304.285h12.723v3.938h-7.977v2.929h7.421v3.786h-7.421v3.686h8.229v4.19h-12.976V304.285z"/>
		</g>
	</g>
	<g>
		<polygon fill="#005B40" points="24.333,322.145 147.117,198.817 192.354,198.817 192.354,288.217 160.042,288.217 
			160.042,231.129 128.267,262.898 150.349,262.898 150.954,288.28 102.891,288.28 69.027,323.218 		"/>
		<path d="M69.695,324.85l-49.159-1.181l125.911-126.467h47.523v92.631h-35.543v-54.804l-26.259,26.253h19.759l0.683,28.613h-49.034
			L69.695,324.85z M28.132,320.619l40.227,0.966l33.849-34.921H149.3l-0.528-22.15h-24.406l37.292-37.285v59.373h29.081v-86.168
			h-42.95L28.132,320.619z"/>
	</g>
	<g>
		<polygon fill="#005B40" points="211.741,198.953 247.827,198.953 247.827,288.35 212.283,288.35 		"/>
		<path d="M249.443,289.966h-38.766l-0.562-92.628h39.327V289.966z M213.889,286.734h32.322v-86.166h-32.845L213.889,286.734z"/>
	</g>
	<g>
		<polygon fill="#005B40" points="266.943,198.076 319.177,198.076 319.177,218.539 301.406,218.539 301.406,230.388 
			319.177,230.388 319.177,250.851 298.717,250.851 298.717,265.391 319.177,265.391 319.177,288.545 267.479,288.545 		"/>
		<path d="M320.792,290.161h-54.92l-0.556-93.701h55.476v23.695h-17.771v8.617h17.771v23.694h-20.459v11.31h20.459V290.161z
			 M269.084,286.93h48.477v-19.923h-20.459v-17.772h20.459v-17.232h-17.771v-15.08h17.771v-17.232h-48.993L269.084,286.93z"/>
	</g>
	<g>
		<polygon fill="#005B40" points="338.432,196.328 372.359,196.328 372.359,240.485 435.367,179.632 478.445,179.632 
			369.664,288.955 338.432,288.955 		"/>
		<path d="M370.336,290.571h-33.521v-95.859h37.158v41.967l60.741-58.662h47.616L370.336,290.571z M340.047,287.34h28.945
			l105.565-106.092H436.02l-65.277,63.043v-46.348h-30.695V287.34z"/>
	</g>
	<g>
		<polygon fill="#005B40" points="324.832,265.328 332.778,265.328 332.778,288.615 324.964,288.754 		"/>
		<path d="M323.358,290.398l-0.15-26.687h11.186v26.49L323.358,290.398z M326.457,266.943l0.113,20.166l4.591-0.082v-20.084H326.457
			z"/>
	</g>
	<g>
		<polygon fill="#005B40" points="253.475,265.062 261.42,265.062 261.42,288.35 253.607,288.488 		"/>
		<path d="M252,290.133l-0.15-26.686h11.186v26.489L252,290.133z M255.1,266.679l0.113,20.165l4.592-0.081v-20.084H255.1z"/>
	</g>
	<g>
		<polygon fill="#005B40" points="198.273,265.057 206.225,265.057 206.225,288.344 198.412,288.482 		"/>
		<path d="M196.806,290.127l-0.159-26.687h11.192v26.49L196.806,290.127z M199.899,266.672l0.12,20.166l4.591-0.082v-20.084H199.899
			z"/>
	</g>
</g>
</svg>
