<?xml version="1.0" encoding="utf-8"?>
<!-- Generator: Adobe Illustrator 21.0.2, SVG Export Plug-In . SVG Version: 6.00 Build 0)  -->
<svg version="1.1" id="Layer_1" xmlns="http://www.w3.org/2000/svg" xmlns:xlink="http://www.w3.org/1999/xlink" x="0px" y="0px"
	 viewBox="0 0 500 115" style="enable-background:new 0 0 500 115;" xml:space="preserve">
<style type="text/css">
	.st0{fill:#006AB3;}
</style>
<path class="st0" d="M132.8,33.7l-18.9,48.9h15.7l2.6-8.3h16.3l2.6,8.3h15.7l-18.9-48.9L132.8,33.7L132.8,33.7z M135.9,62.7l4.4-14
	l4.4,14H135.9z"/>
<rect x="172.8" y="33.4" class="st0" width="15.4" height="49.2"/>
<path class="st0" d="M223,33.6h-22.8v49.1h14.9v-12h8.2C249.5,70.7,249.3,33.6,223,33.6z M223.7,58.5h-8.5V46h8.7
	C231.8,46,232.4,58.5,223.7,58.5z"/>
<polygon class="st0" points="276.6,51.9 263.6,51.9 263.6,33.6 249.4,33.6 249.4,82.7 263.6,82.7 263.6,63.3 276.6,63.3 276.6,82.7 
	290.8,82.7 290.8,33.6 276.6,33.6 "/>
<path class="st0" d="M323.5,33c-14.3,0-25.8,11.6-25.8,25.8c0,14.3,11.6,25.8,25.8,25.8c14.3,0,25.8-11.6,25.8-25.8
	C349.3,44.5,337.7,33,323.5,33z M323.5,71.2c-6.9,0-12.4-5.6-12.4-12.4c0-6.9,5.6-12.4,12.4-12.4c6.9,0,12.4,5.5,12.4,12.4
	S330.3,71.2,323.5,71.2z"/>
<polygon class="st0" points="384.3,56.7 370.8,34.1 356.8,34.1 356.8,82.7 371.4,82.7 371.4,58.5 385.7,82.7 399,82.7 399,34.1 
	384.3,34.1 "/>
<polygon class="st0" points="425.4,61.7 441.7,61.7 441.7,53.2 425.4,53.2 425.4,44.4 445,44.4 445,33.9 410.4,33.9 410.4,82.7 
	445.3,82.7 445.3,72 425.4,72 "/>
<path class="st0" d="M71.4,56.5c1-2.4,2.1-3,4-3.2H100c0.2-5.7-9.7-28.9-37.5-28.7c-31,0.6-37.5,26.5-37.4,28.8h22L55.4,35h15.4
	v17.3h-8.2V38.9l-8.9,20c0,0-0.7,2.6-3.7,2.7H25v0.1c-0.2,5.7,9.7,28.9,37.5,28.7c31-0.6,37.5-26.5,37.4-28.8v-0.1H78.3l-8.6,18.4
	H54.4V62.5h8.2v13.2L71.4,56.5z"/>
<path class="st0" d="M469.5,40.7c0-2.3-1.4-3.5-4.2-3.5h-4.7v12.1h1.9v-5.2h2l3.3,5.2h2l-3.5-5.3C468.1,43.8,469.5,42.9,469.5,40.7z
	 M464.4,42.6h-2v-3.9h2.5c1.3,0,2.7,0.2,2.7,1.9C467.6,42.5,466.1,42.6,464.4,42.6z"/>
<path class="st0" d="M464.6,32.9c-5.7,0-10.4,4.5-10.4,10.3c0,6,4.8,10.4,10.4,10.4c5.7,0,10.4-4.5,10.4-10.4
	C475,37.4,470.3,32.9,464.6,32.9z M464.6,52.1c-4.9,0-8.6-3.8-8.6-8.9c0-5,3.7-8.8,8.6-8.8c4.8,0,8.5,3.8,8.5,8.8
	C473.1,48.3,469.4,52.1,464.6,52.1z"/>
</svg>
