<?xml version="1.0" encoding="utf-8"?>
<!-- Generator: Adobe Illustrator 21.0.2, SVG Export Plug-In . SVG Version: 6.00 Build 0)  -->
<svg version="1.1" id="Calque_1" xmlns="http://www.w3.org/2000/svg" xmlns:xlink="http://www.w3.org/1999/xlink" x="0px" y="0px"
	 viewBox="0 0 500 148" style="enable-background:new 0 0 500 148;" xml:space="preserve">
<style type="text/css">
	.st0{fill:#00519E;}
</style>
<path class="st0" d="M218.4,77.4c-2.3,0-4.9,0.9-7.2,2l1.3-3.1H197l-9.3,20.5l-7.5,16.6h-19.9l7.5-16.6l5.5-12.3
	c1.8-3.9-0.5-8.2-4-8.2h-37.1V29.8v-0.6c-0.1-5-4.2-9-9.2-9h-13.7c-6.6,0-9,1.6-11.8,5.3L47,96.8l-22,31h18.4l22.1-31l42-58.8
	c1.4-1.9,3.4-2.7,4.5-2.7h1.7h1.9c1.1,0,2,0.9,2,2v39H89.2L78.8,90.9h38.8v5.9v31h14.7v-31v-5.9h22.1l-2.6,5.9l-8.3,18.4
	c-0.7,1.3-0.8,2.6-0.8,3.8c0,5,4,9,9,9h24.2c2.2,0,4,0.1,5.7,0.1c5.4,0.1,8.3-0.6,10.9-6.2c0,0,7.6-16.9,11.3-25.2
	c0.5-1,0.8-1.9,1.2-2.6c1-2.3,5-4.1,8.6-4.1h14.2l5.5-12.6H218.4z"/>
<path class="st0" d="M173.3,67.9c4.9,0,8.9-4,8.9-8.9s-4-8.9-8.9-8.9s-8.9,4-8.9,8.9S168.4,67.9,173.3,67.9z"/>
<path class="st0" d="M435,112.2c0-0.2,0-0.3,0.1-0.5c0.5-1.1,3.1-6.8,6.7-14.9h0c11.4-25.2,33.2-73,33.2-73h-16.2l-33.1,73
	l-5.3,11.8c-1.4,3-3.4,4.7-5.8,4.7h-11.7c-0.6,0-1.1-0.5-1.1-1.1c0-0.2,0-0.3,0.1-0.5c0.5-1.1,3.1-6.8,6.7-14.9h-0.1
	c11.5-25.2,33.2-73,33.2-73h-16.2l-33.1,73h0.1l-5.3,11.8c-1.4,3-3.4,4.7-5.9,4.7h-43.1c-0.7,0-0.7-0.3-0.4-1c0,0,1.1-2.4,1.6-3.7
	H370c3.8,0,7.8-2.8,9.2-6.4l2.4-5.4l2.9-6.3c0.5-1.4,0.8-2.8,0.8-4.5c0-5.1-3.1-9.5-7.2-9.6h-0.4h-32.6c-3.1,0-7.4,0.1-9.4,5
	l-6.2,13.8H319l8.6-18.9h-16.2l-9.3,20.5l-5.6,12.3c-1.1,2.5-3.7,4.2-6.6,4.2h-15.6l7.5-16.6l9.3-20.5h-16.2l-9.3,20.5L260,109
	c-1.1,2.5-3.6,4.2-6.5,4.2h-15.3l7.5-16.6l9.3-20.5h-16.1l-9.3,20.5l-8.3,18.4c-0.7,1.3-0.8,2.6-0.8,3.8c0,5,4,9,9,9h24.2
	c2.6,0,5.1-0.5,7.4-1.3c1.4,0.8,3,1.3,4.7,1.3H290c8.9,0,16.4-5.3,19.8-12.8l3-6.6h10.6l-0.5,1c-3.6,9.4,1.2,18.4,11.5,18.4h131.7
	v-14.7h-30C435.6,113.3,435,112.8,435,112.2z M346.6,89.8h22.3l-2.4,5.3h-22.3L346.6,89.8z"/>
</svg>
