<?xml version="1.0" encoding="utf-8"?>
<!-- Generator: Adobe Illustrator 16.0.0, SVG Export Plug-In . SVG Version: 6.00 Build 0)  -->
<!DOCTYPE svg PUBLIC "-//W3C//DTD SVG 1.1//EN" "http://www.w3.org/Graphics/SVG/1.1/DTD/svg11.dtd">
<svg version="1.1" id="Calque_2" xmlns="http://www.w3.org/2000/svg" xmlns:xlink="http://www.w3.org/1999/xlink" x="0px" y="0px"
	 width="500px" height="500px" viewBox="0 0 500 500" enable-background="new 0 0 500 500" xml:space="preserve">
<g>
	<rect x="25" y="25.006" fill="#16286A" width="450" height="449.988"/>
	<path fill="#FFFFFF" d="M73.929,410.666l-28.954-0.586c-0.13-5.439,2.666-10.14,4.726-12.717c2.059-2.574,5.024-4.807,8.895-6.699
		c2.779-1.364,6.6-2.419,11.462-3.168s10.124-1.122,15.78-1.122c9.081,0,16.375,0.451,21.883,1.352
		c5.508,0.902,10.098,2.785,13.771,5.644c2.58,1.981,4.615,4.788,6.103,8.419s2.233,7.098,2.233,10.397v30.96
		c0,3.301,0.235,5.887,0.708,7.759c0.471,1.869,1.501,4.257,3.089,7.161h-28.434c-1.142-1.803-1.886-3.18-2.233-4.126
		c-0.347-0.945-0.695-2.431-1.042-4.456c-3.971,3.39-7.916,5.809-11.835,7.263c-5.358,1.937-11.586,2.904-18.683,2.904
		c-9.429,0-16.586-1.936-21.474-5.81c-4.889-3.872-7.333-8.648-7.333-14.324c0-5.324,1.761-9.706,5.285-13.139
		c3.523-3.433,10.023-5.984,19.502-7.657c11.362-2.023,18.731-3.444,22.107-4.258c3.374-0.814,6.946-1.882,10.718-3.203
		c0-3.298-0.77-5.611-2.308-6.929c-1.539-1.321-4.242-1.981-8.112-1.981c-4.964,0-8.685,0.704-11.166,2.111
		C76.684,405.562,75.121,407.63,73.929,410.666z M100.205,424.795c-4.168,1.319-8.511,2.485-13.027,3.496
		c-6.153,1.454-10.048,2.884-11.686,4.292c-1.688,1.454-2.531,3.104-2.531,4.952c0,2.114,0.831,3.839,2.494,5.183
		c1.662,1.343,4.105,2.013,7.332,2.013c3.374,0,6.512-0.728,9.416-2.179c2.903-1.452,4.961-3.225,6.178-5.314
		s1.824-4.807,1.824-8.152V424.795z"/>
	<path fill="#FFFFFF" d="M140.515,363.563h29.158v94.102h-29.158V363.563z"/>
	<path fill="#FFFFFF" d="M268.469,363.561v94.542h-28.165v-8.216c-4.165,4.298-8.65,6.274-12.087,7.778
		c-4.582,1.979-10.585,1.985-16.208,1.985c-11.298,0-19.927-3.546-25.887-10.641c-5.961-7.095-8.941-15.714-8.941-25.86
		c0-11.351,3.292-20.034,9.878-26.056c6.585-6.018,14.955-9.026,25.106-9.026c4.946,0,9.436,0.688,13.472,2.064
		c4.034,1.374,10.789,3.439,13.913,6.189v-32.761H268.469z M240.323,422.879c0-6.177-1.745-10.786-5.229-13.825
		c-3.488-3.039-7.894-4.556-13.223-4.556c-4.671,0-8.583,1.458-11.741,4.372c-3.158,2.915-4.736,7.809-4.736,14.675
		c0,6.424,1.628,11.131,4.884,14.117c3.256,2.989,7.285,4.485,12.087,4.485c5.13,0,9.405-1.506,12.827-4.52
		C238.611,434.61,240.323,429.695,240.323,422.879z"/>
	<path fill="#FFFFFF" d="M368.423,430.167h-62.646c0.563,4.276,1.922,7.464,4.068,9.557c3.021,3.012,6.96,4.516,11.824,4.516
		c3.069,0,5.987-0.654,8.752-1.965c1.688-0.828,3.506-3.878,5.451-5.971l30.787-0.108c0,8.201-10.393,16.105-17.046,19.137
		c-6.652,3.031-16.198,4.548-28.638,4.548c-10.799,0-19.295-1.3-25.485-3.892c-6.194-2.598-11.325-6.722-15.395-12.371
		c-4.068-5.651-6.103-12.29-6.103-19.928c0-10.864,4.081-19.656,12.243-26.376c8.165-6.717,19.437-10.077,33.818-10.077
		c11.672,0,20.884,1.505,27.641,4.516c6.756,3.01,11.898,7.372,15.431,13.091c3.533,5.715,5.297,13.152,5.297,22.313V430.167z
		 M339.88,416.22c0-5.425-4.509-8.36-7.145-10.583c-2.636-2.227-6.153-3.309-10.451-3.309c-4.966,0-10.527,1.932-13.495,5.293
		c-1.896,2.091-3.986,5.642-4.497,8.599H339.88z"/>
	<path fill="#FFFFFF" d="M372.903,434.806l31.186,0.199c1.285,3.159,3.087,6.565,5.401,7.924c2.318,1.361,5.405,2.042,9.266,2.042
		c4.219,0,7.485-0.766,9.804-2.301c1.8-1.138,2.7-2.562,2.7-4.271c0-1.929-1.185-3.42-3.551-4.471
		c-1.699-0.744-6.201-1.665-13.51-2.76c-10.909-1.622-18.486-3.126-22.731-4.506c-4.244-1.38-7.823-3.715-10.73-7.003
		c-2.908-3.287-4.361-7.036-4.361-11.245c0-4.602,1.571-8.571,4.709-11.901c3.139-3.332,7.462-5.82,12.968-7.466
		c5.506-1.643,12.892-2.465,22.154-2.465c9.776,0,16.994,0.638,21.651,1.91c4.659,1.273,8.543,3.248,11.658,5.921
		c3.113,2.68,8.313,7.647,7.756,14.395l-29.794-1.029c-0.773-2.239-2.061-3.883-3.86-4.937c-2.47-1.405-5.455-2.105-8.954-2.105
		c-3.551,0-6.138,0.536-7.758,1.609c-1.62,1.075-2.432,2.375-2.432,3.913c0,1.708,1.028,2.998,3.087,3.874s6.535,1.665,13.432,2.368
		c10.446,1.006,18.218,2.41,23.313,4.207c5.094,1.799,8.992,4.363,11.694,7.693c2.702,3.334,4.053,6.993,4.053,10.98
		c0,4.037-1.43,7.958-4.284,11.773c-2.855,3.814-7.361,6.849-13.509,9.107c-6.15,2.255-14.527,3.387-25.126,3.387
		c-14.974,0-25.641-1.82-31.997-5.463C378.781,450.546,372.903,442.544,372.903,434.806z"/>
	<path fill="#BDCF31" d="M454.192,49.085c0,0-15.083,5.291-39.956,7.938c-24.874,2.646-40.22,11.644-40.22,24.874
		c0,13.229,12.701,21.168,33.075,21.168S454.192,101.741,454.192,49.085z"/>
</g>
</svg>
