<svg xmlns="http://www.w3.org/2000/svg" viewBox="0 0 346.8 97.8" enable-background="new 0 0 346.8 97.8"><path fill="#1C5D3D" d="M324.6 73.4l-2.1-.1-141.3-.1c-.9 0-2.1.3-2.3-1.4.7 0 1.4-.1 2-.1l142-.1h1.6c.1.6.1 1.2.1 1.8zM72.2 25.9v47.4h-47.6v-47.4h47.6zm-1.8 1.7c-.5 0-.9-.1-1.3-.1h-41.4c-1.4 0-1.5.6-1.5 1.7v40.7c0 1.4.5 1.7 1.8 1.7h40.7c1.4 0 1.8-.4 1.8-1.8-.1-13.6 0-27.1 0-40.7 0-.4 0-.9-.1-1.5zM167.4 56.8c.2-.1.1 0 0 0-2.3 0-4.6 0-7.1-.1 2.7-.4 2.1-2.3 2.1-4v-6.2c0-2.2-.1-2.3-2.4-2.7 1.7-.7 3.4-1.3 5.3-2 .1 1 .2 1.6.2 2.2 1-.6 1.9-1.6 3-1.8.9-.2 2 .5 3.1.9l-.1.5c1.5-.5 3.1-1.1 4.8-1.6.1 1 .2 1.7.3 2.5.8-.6 1.4-1.1 2.1-1.5 3.2-2 6.3-.3 6.5 3.4l.1 7.5c0 1.9.3 2.2 2.3 3h-7.2c1.9-.4 2.1-1.7 2-3.3-.1-2.1 0-4.2 0-6.4 0-2-.9-3.1-2.3-3-1.7 0-3.5 1.6-3.5 3.2v6.2c0 1.5.1 3 2.1 3.3h-6.8c1.9-.5 1.8-1.9 1.8-3.4 0-2.5 0-5-.1-7.5 0-.6-.3-1.4-.7-1.6-.4-.2-1.1.3-1.7.5-.7.1-1.5.3-2.2.2l-1.6-.5c-.7.6-1.5 1.4-1.5 2.2-.2 2.6-.2 5.3 0 8-.1.6.9 1.3 1.5 2zM321.4 44.5v.5c1.3 4.3-1.1 7.4-5.6 7.2l-1-.1c-1.2-.3-1.8.5-2 1.4-.2 1.1.9 1.2 1.6 1.2l5.9.3c1.4.1 2.6.6 3.2 1.9.6 1.4.3 2.7-.6 3.9-2.6 3.4-9.7 4.2-12.9 1.4-.9-.7-.9-1.6-.3-2.5.7-1 1.5-1.9 2.3-2.8-1.8-1.9-1.8-1.9.7-4.9-.8-1.5-1.9-2.8-2.1-4.2-.6-4.1 3.4-6.7 7.8-5.5 1.4.4 2.9.4 4.3.7.5.1.9.5 1.4.7-.4.2-.8.5-1.3.6-.5.2-.9.2-1.4.2zm-4.2 17.9c1.6-.2 3.5-.7 4.3-1.6.6-.3 1.1-1.5 1-2.2-.1-.5-1.2-1.1-1.9-1.1-2.3-.3-4.6-.3-6.9-.4-1.5-.1-1.8 1.2-2.2 2.2-.4 1 .4 1.5 1.1 2 .8.6 1.6.8 4.6 1.1zm2-14.7c.1 0-.4-2.4-.9-3.5s-1.6-1.7-2.7-1.3c-.9.3-1.8 1.1-2.2 1.9-.8 1.8-.4 3.8.6 5.5.6 1.1 1.7 1.5 2.9 1.3 1.2-.3 1.9-1.1 2.1-2.3.1-.6.1-1.1.2-1.6zM98.2 52.1c-1.5 2.6-3.6 4.6-6.8 5.1-6.4 1-11.5-1.9-12.8-8-1-4.5 0-8.6 3.6-11.7 3.6-3 7.7-3.4 11.9-1.5 1 .4 1.7.5 2.1-.6.1-.2.4-.4.9-.8.2 2.7.4 5.1.6 7.5-.2.1-.3.2-.5.2l-.9-1.5c-1.9-4.3-6-5.9-10-3.8-1.6.8-2.6 2.2-3.2 3.9-1.2 3.2-1.3 6.4-.4 9.7.8 2.8 2.7 4.7 5.6 5.3 2.9.6 5.5-.1 7.5-2.4l1.8-1.9c.3.2.5.4.6.5zM277.3 43.1v-3.8c0-2.6 0-2.6-2.7-2.9 1.9-.8 3.5-1.4 5.2-2.1 0 .7.1 1.1.1 1.5v17.5c.1 1.9.4 2.1 2.3 2.3-1.6.6-3.1 1.3-4.8 2-.1-.8-.2-1.3-.2-1.9-.2 0-.3 0-.4.1-3.8 3.4-9.1.8-9.8-4.3-.4-3 .5-5.7 2.7-7.8 2.2-2 4.8-2.2 7.6-.6zm0 7v-3.5c-.1-1.8-1.3-3.2-2.8-3.5-1.4-.3-2.9.5-3.7 2.1-1.4 2.8-1.4 5.6.2 8.3.5.9 1.5 1.6 2.4 2 2 .9 4-.5 4-2.7-.1-.9-.1-1.8-.1-2.7zM221.2 40.4v-4.8h17.8c.1 1.6.2 3.2.2 4.5-.9-1-1.7-2.4-3-3-1.3-.6-3-.4-4.4-.5-.2.4-.3.5-.3.6v16.4c0 2.2.2 2.2 3.1 3.1h-8.8c2.8-.2 2.7-2.2 2.6-4.2v-15.5c-3.7-.9-5.5-.1-7.2 3.4zM111.9 55.5c.9-.6 1.4-.9 2.1-1.4-.1 1.4-1.4 2.7-2.7 3-1.5.3-2 0-2.8-1.5-1.5.5-2.9 1.3-4.4 1.5-1.8.3-2.9-.6-3.5-2.1-.6-1.7-.3-3.4 1.1-4.4 1.7-1.1 3.6-1.9 5.5-2.8 1.5-.7 1.7-1.3 1.1-3.2-.4-1.3-1.6-2-2.9-1.7-1 .3-1.5.9-1.5 2 0 .6-.2 1.4-.7 1.8-.4.3-1.4.3-1.7 0-.4-.5-.6-1.4-.4-1.9.7-2 2.5-2.6 4.5-2.8.6-.1 1.3 0 1.9 0 2.8.2 4 1.3 4 4.2v6.8c.1.8.2 1.5.4 2.5zm-3.3-6.8c-.2-.1-.3-.2-.5-.4-1.4.9-2.9 1.7-4.2 2.8-.9.8-.8 2.1-.2 3.1.5.9 1.4 1.5 2.3 1 .9-.5 2.1-1.2 2.3-2 .6-1.4.3-3 .3-4.5zM206 55.6c-1.6.6-3 1.3-4.5 1.5-1.4.3-2.7-.4-3.4-1.8-.7-1.6-.6-3.3.8-4.3 1.7-1.2 3.7-2 5.5-3.1.6-.3 1.4-.7 1.5-1.2.2-1.2.1-2.6-1.1-3.3-.6-.4-1.7-.4-2.3-.2-.5.2-1 1.2-1.1 1.8-.2 1-.1 1.9-1.4 2-1.1.1-1.9-.8-1.6-1.9.2-.6.6-1.3 1.1-1.7 1.7-1.7 6.5-2.1 8.3-.5.6.5 1.1 1.6 1.1 2.4.2 2.3 0 4.6.1 6.9 0 .9.2 1.8.3 3 .9-.5 1.5-.8 2.1-1.2-.1 1.3-1.4 2.7-2.7 2.9-1.5.5-2 .2-2.7-1.3zm0-6.9l-.5-.4c-1.4 1-3 1.8-4.1 3-.5.6-.3 2.2 0 3.1.2.5 1.6 1 2.2.8.9-.3 2.1-1.2 2.3-2 .4-1.4.1-3 .1-4.5zM151.7 42.1c4.2 0 7.3 3.2 7.3 7.4 0 4.6-3.1 7.8-7.6 7.8-4 0-7-3.2-7-7.5 0-4.4 3.1-7.7 7.3-7.7zm4 9.2c-.1-3-.4-5.3-2.2-7.1-1.7-1.7-4-1.3-5.1.8-1.4 2.7-.7 7.8 1.3 10.1 1.8 2 4.5 1.6 5.4-.9.4-1.1.5-2.3.6-2.9zM296.9 44.9c.7-.6 1.3-1.1 1.8-1.6 1.4-1.1 2.9-1.7 4.6-1 1.7.8 2.2 2.3 2.2 4 .1 2.5 0 4.9 0 7.4 0 1.3.2 2.5 1.8 2.9h-6.3c2.4-.4 1.9-2.2 1.9-3.8v-6.1c-.1-2-.9-2.9-2.4-2.9-1.9.1-3.8 1.6-3.8 3.2v6.8c0 1.4.4 2.5 2 2.8h-6.8c2.5-.5 2.3-2.1 2.3-3.6v-6.6c-.1-2.3-.2-2.3-2.3-2.7 1.5-.6 3.1-1.2 4.8-1.9.1 1.2.1 2 .2 3.1zM142.8 56.8h-8.6c2.1-.5 2.3-2 2.3-3.7-.1-2.7-.1-5.4 0-8.1 0-1.1-.3-1.6-1.4-1.4-.2 0-.5.1-.7 0-.3-.1-.5-.3-.8-.5.3-.2.5-.5.8-.6.6-.1 1.3 0 1.9 0 .2-1.3.2-2.5.5-3.6.9-3.7 5.6-5.6 8.8-3.6.6.4 1.1 1.2 1.4 1.9.1.2-.7 1.1-1 1.1-.7-.1-1.6-.4-2.1-.9-.9-.7-1.4-2.1-2.8-1.7-1.6.5-1.4 2-1.6 3.2v.9c0 2.6 0 2.6 2.6 2.7.4 0 .8.4 1.1.5-.4.2-.8.5-1.2.5-2.6.1-2.6.1-2.6 2.6v6.5c0 3.3.1 3.4 3.4 4.2zM265.7 54.5c-.7 1.7-2.2 2.9-3.4 2.6-.8-.2-1.4-1-2-1.6l.1-.5c-.7.5-1.3 1-2 1.4-1.9 1.3-4.3 1-5.4-.7-1.2-1.7-.7-4.2 1.2-5.4 1.5-.9 3.2-1.6 4.7-2.4.6-.3 1.6-.8 1.6-1.2-.1-1.1-.3-2.4-.9-3.1-.5-.6-1.9-.6-2.8-.5-1 .1-1.2 1.1-1.2 2.1 0 .6-.4 1.3-.8 1.7-.2.2-1.1 0-1.3-.2-.3-.6-.4-1.3-.4-1.9.1-.5.5-.9.9-1.3 1.7-1.7 5.9-2.1 7.8-.6.6.5 1.1 1.4 1.2 2.2.2 2.6.1 5.2.2 7.8 0 .7.3 1.5.5 2.2.7-.1 1.3-.4 2-.6zm-5.1-5.9l-.5-.4c-1.5 1-3.1 1.8-4.5 2.9-.9.8-1 2.2-.2 3.1.5.6 1.5 1.2 2.1 1.1 1.1-.3 2.6-1 2.9-1.8.6-1.5.2-3.3.2-4.9zM122.6 56.8h-7c2.2-.5 1.8-2.3 1.8-3.7v-13.9c0-2.4 0-2.4-2.3-3 1.7-.6 3.4-1.2 5.3-2v19.1c-.1 2.4-.1 2.4 2.2 3.5zM245.5 44.6c.8-.7 1.5-1.6 2.4-2 .8-.3 1.9-.3 2.7 0 .3.1.6 1.4.4 1.9-.2.4-1.2.5-1.8.5-.7 0-1.8-.7-2-.5-.7.8-1.5 1.9-1.6 2.9-.3 1.9 0 3.9-.1 5.9 0 1.6.3 2.9 2.2 3.4h-6.7c2.1-.4 2-2 2-3.6 0-2.4 0-4.7-.1-7.1-.1-2-.3-2-2.3-2.3 1.6-.6 3.1-1.2 4.9-1.9-.1 1.2 0 2.1 0 2.8zM131.2 56.8h-6.6c1.8-.4 1.9-1.8 1.9-3.2 0-2.7-.1-5.3-.2-8 0-1.6-1.1-1.5-2.3-1.4v-.4c1.7-.7 3.3-1.3 5.4-2.1v11.9c.1 1.4.2 2.7 1.8 3.2zM193.8 41.7v12.1c0 1.4.2 2.6 2 2.9h-6.8c1.9-.4 2-1.8 1.9-3.4v-6.5c0-2.3-.2-2.5-2.4-3.1 1.7-.6 3.3-1.2 5.3-2zM290.3 56.8h-6.2c1.8-.6 1.8-2.1 1.7-3.6v-7.1c0-1.8-.5-2.2-2.2-1.9l-.2-.4c1.6-.6 3.1-1.2 5-2v12.200000000000001c-.1 1.4.5 2.3 1.9 2.8zM192.4 37.6c-1 0-1.7-.3-1.8-1.5-.1-1.1.7-1.6 1.7-1.6.9 0 1.8.4 1.8 1.5s-.6 1.6-1.7 1.6zM128 37.6c-1.1 0-1.7-.5-1.7-1.5 0-1.1.8-1.5 1.8-1.5s1.8.5 1.7 1.6c-.1.9-.7 1.4-1.8 1.4zM287.1 37.6c-.9-.1-1.7-.6-1.4-1.6.1-.6.9-1.3 1.5-1.4.9-.2 1.6.5 1.6 1.5-.1.9-.7 1.4-1.7 1.5zM51.6 49.5c-1.2 3.6-4.9 5.8-9 5.6-4.7-.2-8.2-2.5-9.5-6.6-1.6-4.8-.8-9.2 2.8-12.8 3-3 7.8-3.8 11.8-1.9 1.3.6 2.2.6 2.9-.9l.3.1.5 6.8c-.1 0-.2 0-.3.1-.4-.8-.7-1.6-1.1-2.3-1.3-2.5-3.5-3.7-6.3-3.7s-5 1.1-6.3 3.7c-1.9 3.8-2.1 7.8-.5 11.7 2 5 8.8 6.2 12.6 2.5l2.1-2.3zM51.9 65.9l.9-.1c1.2-.1 1.9-.7 2-1.9.1-2 .2-3.9.2-5.9v-10.5c0-.9-.3-1.4-1.2-1.3h-.7c-3.7 0-4 .3-5.6 3.6.1-1.5.1-3 .2-4.6h17.7l.3 4.5c-.1.1-.2.3-.4.4-.9-4.6-4.1-3.9-7.1-3.8-.1.2-.2.3-.2.5v16.7c0 1.8.3 2 2.8 2.7h-8.8c-.1-.2-.1-.2-.1-.3z"/></svg>