<?xml version="1.0" encoding="utf-8"?>
<!-- Generator: Adobe Illustrator 19.1.0, SVG Export Plug-In . SVG Version: 6.00 Build 0)  -->
<svg version="1.1" id="Calque_1" xmlns="http://www.w3.org/2000/svg" xmlns:xlink="http://www.w3.org/1999/xlink" x="0px" y="0px"
	 viewBox="-76 202.2 346.8 97.8" style="enable-background:new -76 202.2 346.8 97.8;" xml:space="preserve">
<style type="text/css">
	.st0{fill:#1C5D3D;}
</style>
<path class="st0" d="M248.6,275.6l-2.1-0.1l-141.3-0.1c-0.9,0-2.1,0.3-2.3-1.4c0.7,0,1.4-0.1,2-0.1l142-0.1h1.6
	C248.6,274.4,248.6,275,248.6,275.6z M-3.8,228.1v47.4h-47.6v-47.4C-51.4,228.1-3.8,228.1-3.8,228.1z M-5.6,229.8
	c-0.5,0-0.9-0.1-1.3-0.1h-41.4c-1.4,0-1.5,0.6-1.5,1.7v40.7c0,1.4,0.5,1.7,1.8,1.7h40.7c1.4,0,1.8-0.4,1.8-1.8
	c-0.1-13.6,0-27.1,0-40.7C-5.5,230.9-5.5,230.4-5.6,229.8z M91.4,259C91.6,258.9,91.5,259,91.4,259c-2.3,0-4.6,0-7.1-0.1
	c2.7-0.4,2.1-2.3,2.1-4v-6.2c0-2.2-0.1-2.3-2.4-2.7c1.7-0.7,3.4-1.3,5.3-2c0.1,1,0.2,1.6,0.2,2.2c1-0.6,1.9-1.6,3-1.8
	c0.9-0.2,2,0.5,3.1,0.9l-0.1,0.5c1.5-0.5,3.1-1.1,4.8-1.6c0.1,1,0.2,1.7,0.3,2.5c0.8-0.6,1.4-1.1,2.1-1.5c3.2-2,6.3-0.3,6.5,3.4
	l0.1,7.5c0,1.9,0.3,2.2,2.3,3h-7.2c1.9-0.4,2.1-1.7,2-3.3c-0.1-2.1,0-4.2,0-6.4c0-2-0.9-3.1-2.3-3c-1.7,0-3.5,1.6-3.5,3.2v6.2
	c0,1.5,0.1,3,2.1,3.3h-6.8c1.9-0.5,1.8-1.9,1.8-3.4c0-2.5,0-5-0.1-7.5c0-0.6-0.3-1.4-0.7-1.6c-0.4-0.2-1.1,0.3-1.7,0.5
	c-0.7,0.1-1.5,0.3-2.2,0.2l-1.6-0.5c-0.7,0.6-1.5,1.4-1.5,2.2c-0.2,2.6-0.2,5.3,0,8C89.8,257.6,90.8,258.3,91.4,259L91.4,259z
	 M245.4,246.7v0.5c1.3,4.3-1.1,7.4-5.6,7.2l-1-0.1c-1.2-0.3-1.8,0.5-2,1.4c-0.2,1.1,0.9,1.2,1.6,1.2l5.9,0.3
	c1.4,0.1,2.6,0.6,3.2,1.9c0.6,1.4,0.3,2.7-0.6,3.9c-2.6,3.4-9.7,4.2-12.9,1.4c-0.9-0.7-0.9-1.6-0.3-2.5c0.7-1,1.5-1.9,2.3-2.8
	c-1.8-1.9-1.8-1.9,0.7-4.9c-0.8-1.5-1.9-2.8-2.1-4.2c-0.6-4.1,3.4-6.7,7.8-5.5c1.4,0.4,2.9,0.4,4.3,0.7c0.5,0.1,0.9,0.5,1.4,0.7
	c-0.4,0.2-0.8,0.5-1.3,0.6C246.3,246.7,245.9,246.7,245.4,246.7z M241.2,264.6c1.6-0.2,3.5-0.7,4.3-1.6c0.6-0.3,1.1-1.5,1-2.2
	c-0.1-0.5-1.2-1.1-1.9-1.1c-2.3-0.3-4.6-0.3-6.9-0.4c-1.5-0.1-1.8,1.2-2.2,2.2c-0.4,1,0.4,1.5,1.1,2
	C237.4,264.1,238.2,264.3,241.2,264.6z M243.2,249.9c0.1,0-0.4-2.4-0.9-3.5c-0.5-1.1-1.6-1.7-2.7-1.3c-0.9,0.3-1.8,1.1-2.2,1.9
	c-0.8,1.8-0.4,3.8,0.6,5.5c0.6,1.1,1.7,1.5,2.9,1.3c1.2-0.3,1.9-1.1,2.1-2.3C243.1,250.9,243.1,250.4,243.2,249.9z M22.2,254.3
	c-1.5,2.6-3.6,4.6-6.8,5.1c-6.4,1-11.5-1.9-12.8-8c-1-4.5,0-8.6,3.6-11.7c3.6-3,7.7-3.4,11.9-1.5c1,0.4,1.7,0.5,2.1-0.6
	c0.1-0.2,0.4-0.4,0.9-0.8c0.2,2.7,0.4,5.1,0.6,7.5c-0.2,0.1-0.3,0.2-0.5,0.2l-0.9-1.5c-1.9-4.3-6-5.9-10-3.8
	c-1.6,0.8-2.6,2.2-3.2,3.9c-1.2,3.2-1.3,6.4-0.4,9.7c0.8,2.8,2.7,4.7,5.6,5.3s5.5-0.1,7.5-2.4l1.8-1.9
	C21.9,254,22.1,254.2,22.2,254.3z M201.3,245.3v-3.8c0-2.6,0-2.6-2.7-2.9c1.9-0.8,3.5-1.4,5.2-2.1c0,0.7,0.1,1.1,0.1,1.5v17.5
	c0.1,1.9,0.4,2.1,2.3,2.3c-1.6,0.6-3.1,1.3-4.8,2c-0.1-0.8-0.2-1.3-0.2-1.9c-0.2,0-0.3,0-0.4,0.1c-3.8,3.4-9.1,0.8-9.8-4.3
	c-0.4-3,0.5-5.7,2.7-7.8C195.9,243.9,198.5,243.7,201.3,245.3L201.3,245.3z M201.3,252.3v-3.5c-0.1-1.8-1.3-3.2-2.8-3.5
	c-1.4-0.3-2.9,0.5-3.7,2.1c-1.4,2.8-1.4,5.6,0.2,8.3c0.5,0.9,1.5,1.6,2.4,2c2,0.9,4-0.5,4-2.7C201.3,254.1,201.3,253.2,201.3,252.3z
	 M145.2,242.6v-4.8H163c0.1,1.6,0.2,3.2,0.2,4.5c-0.9-1-1.7-2.4-3-3c-1.3-0.6-3-0.4-4.4-0.5c-0.2,0.4-0.3,0.5-0.3,0.6v16.4
	c0,2.2,0.2,2.2,3.1,3.1h-8.8c2.8-0.2,2.7-2.2,2.6-4.2v-15.5C148.7,238.3,146.9,239.1,145.2,242.6L145.2,242.6z M35.9,257.7
	c0.9-0.6,1.4-0.9,2.1-1.4c-0.1,1.4-1.4,2.7-2.7,3c-1.5,0.3-2,0-2.8-1.5c-1.5,0.5-2.9,1.3-4.4,1.5c-1.8,0.3-2.9-0.6-3.5-2.1
	c-0.6-1.7-0.3-3.4,1.1-4.4c1.7-1.1,3.6-1.9,5.5-2.8c1.5-0.7,1.7-1.3,1.1-3.2c-0.4-1.3-1.6-2-2.9-1.7c-1,0.3-1.5,0.9-1.5,2
	c0,0.6-0.2,1.4-0.7,1.8c-0.4,0.3-1.4,0.3-1.7,0c-0.4-0.5-0.6-1.4-0.4-1.9c0.7-2,2.5-2.6,4.5-2.8c0.6-0.1,1.3,0,1.9,0
	c2.8,0.2,4,1.3,4,4.2v6.8C35.6,256,35.7,256.7,35.9,257.7z M32.6,250.9c-0.2-0.1-0.3-0.2-0.5-0.4c-1.4,0.9-2.9,1.7-4.2,2.8
	c-0.9,0.8-0.8,2.1-0.2,3.1c0.5,0.9,1.4,1.5,2.3,1s2.1-1.2,2.3-2C32.9,254,32.6,252.4,32.6,250.9L32.6,250.9z M130,257.8
	c-1.6,0.6-3,1.3-4.5,1.5c-1.4,0.3-2.7-0.4-3.4-1.8c-0.7-1.6-0.6-3.3,0.8-4.3c1.7-1.2,3.7-2,5.5-3.1c0.6-0.3,1.4-0.7,1.5-1.2
	c0.2-1.2,0.1-2.6-1.1-3.3c-0.6-0.4-1.7-0.4-2.3-0.2c-0.5,0.2-1,1.2-1.1,1.8c-0.2,1-0.1,1.9-1.4,2c-1.1,0.1-1.9-0.8-1.6-1.9
	c0.2-0.6,0.6-1.3,1.1-1.7c1.7-1.7,6.5-2.1,8.3-0.5c0.6,0.5,1.1,1.6,1.1,2.4c0.2,2.3,0,4.6,0.1,6.9c0,0.9,0.2,1.8,0.3,3
	c0.9-0.5,1.5-0.8,2.1-1.2c-0.1,1.3-1.4,2.7-2.7,2.9C131.2,259.6,130.7,259.3,130,257.8L130,257.8z M130,250.9l-0.5-0.4
	c-1.4,1-3,1.8-4.1,3c-0.5,0.6-0.3,2.2,0,3.1c0.2,0.5,1.6,1,2.2,0.8c0.9-0.3,2.1-1.2,2.3-2C130.3,254,130,252.4,130,250.9z
	 M75.7,244.3c4.2,0,7.3,3.2,7.3,7.4c0,4.6-3.1,7.8-7.6,7.8c-4,0-7-3.2-7-7.5C68.4,247.6,71.5,244.3,75.7,244.3z M79.7,253.5
	c-0.1-3-0.4-5.3-2.2-7.1c-1.7-1.7-4-1.3-5.1,0.8c-1.4,2.7-0.7,7.8,1.3,10.1c1.8,2,4.5,1.6,5.4-0.9C79.5,255.3,79.6,254.1,79.7,253.5
	z M220.9,247.1c0.7-0.6,1.3-1.1,1.8-1.6c1.4-1.1,2.9-1.7,4.6-1c1.7,0.8,2.2,2.3,2.2,4c0.1,2.5,0,4.9,0,7.4c0,1.3,0.2,2.5,1.8,2.9
	H225c2.4-0.4,1.9-2.2,1.9-3.8v-6.1c-0.1-2-0.9-2.9-2.4-2.9c-1.9,0.1-3.8,1.6-3.8,3.2v6.8c0,1.4,0.4,2.5,2,2.8h-6.8
	c2.5-0.5,2.3-2.1,2.3-3.6v-6.6c-0.1-2.3-0.2-2.3-2.3-2.7c1.5-0.6,3.1-1.2,4.8-1.9C220.8,245.2,220.8,246,220.9,247.1L220.9,247.1z
	 M66.8,259h-8.6c2.1-0.5,2.3-2,2.3-3.7c-0.1-2.7-0.1-5.4,0-8.1c0-1.1-0.3-1.6-1.4-1.4c-0.2,0-0.5,0.1-0.7,0
	c-0.3-0.1-0.5-0.3-0.8-0.5c0.3-0.2,0.5-0.5,0.8-0.6c0.6-0.1,1.3,0,1.9,0c0.2-1.3,0.2-2.5,0.5-3.6c0.9-3.7,5.6-5.6,8.8-3.6
	c0.6,0.4,1.1,1.2,1.4,1.9c0.1,0.2-0.7,1.1-1,1.1c-0.7-0.1-1.6-0.4-2.1-0.9c-0.9-0.7-1.4-2.1-2.8-1.7c-1.6,0.5-1.4,2-1.6,3.2v0.9
	c0,2.6,0,2.6,2.6,2.7c0.4,0,0.8,0.4,1.1,0.5c-0.4,0.2-0.8,0.5-1.2,0.5c-2.6,0.1-2.6,0.1-2.6,2.6v6.5C63.4,258.1,63.5,258.2,66.8,259
	L66.8,259z M189.7,256.7c-0.7,1.7-2.2,2.9-3.4,2.6c-0.8-0.2-1.4-1-2-1.6l0.1-0.5c-0.7,0.5-1.3,1-2,1.4c-1.9,1.3-4.3,1-5.4-0.7
	c-1.2-1.7-0.7-4.2,1.2-5.4c1.5-0.9,3.2-1.6,4.7-2.4c0.6-0.3,1.6-0.8,1.6-1.2c-0.1-1.1-0.3-2.4-0.9-3.1c-0.5-0.6-1.9-0.6-2.8-0.5
	c-1,0.1-1.2,1.1-1.2,2.1c0,0.6-0.4,1.3-0.8,1.7c-0.2,0.2-1.1,0-1.3-0.2c-0.3-0.6-0.4-1.3-0.4-1.9c0.1-0.5,0.5-0.9,0.9-1.3
	c1.7-1.7,5.9-2.1,7.8-0.6c0.6,0.5,1.1,1.4,1.2,2.2c0.2,2.6,0.1,5.2,0.2,7.8c0,0.7,0.3,1.5,0.5,2.2
	C188.4,257.2,189,256.9,189.7,256.7L189.7,256.7z M184.6,250.8l-0.5-0.4c-1.5,1-3.1,1.8-4.5,2.9c-0.9,0.8-1,2.2-0.2,3.1
	c0.5,0.6,1.5,1.2,2.1,1.1c1.1-0.3,2.6-1,2.9-1.8C185,254.2,184.6,252.4,184.6,250.8z M46.6,259h-7c2.2-0.5,1.8-2.3,1.8-3.7v-13.9
	c0-2.4,0-2.4-2.3-3c1.7-0.6,3.4-1.2,5.3-2v19.1C44.3,257.9,44.3,257.9,46.6,259z M169.5,246.8c0.8-0.7,1.5-1.6,2.4-2
	c0.8-0.3,1.9-0.3,2.7,0c0.3,0.1,0.6,1.4,0.4,1.9c-0.2,0.4-1.2,0.5-1.8,0.5c-0.7,0-1.8-0.7-2-0.5c-0.7,0.8-1.5,1.9-1.6,2.9
	c-0.3,1.9,0,3.9-0.1,5.9c0,1.6,0.3,2.9,2.2,3.4H165c2.1-0.4,2-2,2-3.6c0-2.4,0-4.7-0.1-7.1c-0.1-2-0.3-2-2.3-2.3
	c1.6-0.6,3.1-1.2,4.9-1.9C169.4,245.2,169.5,246.1,169.5,246.8L169.5,246.8z M55.2,259h-6.6c1.8-0.4,1.9-1.8,1.9-3.2
	c0-2.7-0.1-5.3-0.2-8c0-1.6-1.1-1.5-2.3-1.4V246c1.7-0.7,3.3-1.3,5.4-2.1v11.9C53.5,257.2,53.6,258.5,55.2,259z M117.8,243.9V256
	c0,1.4,0.2,2.6,2,2.9H113c1.9-0.4,2-1.8,1.9-3.4V249c0-2.3-0.2-2.5-2.4-3.1C114.2,245.3,115.8,244.7,117.8,243.9z M214.3,259h-6.2
	c1.8-0.6,1.8-2.1,1.7-3.6v-7.1c0-1.8-0.5-2.2-2.2-1.9l-0.2-0.4c1.6-0.6,3.1-1.2,5-2v12.2C212.3,257.6,212.9,258.5,214.3,259
	L214.3,259z M116.4,239.8c-1,0-1.7-0.3-1.8-1.5c-0.1-1.1,0.7-1.6,1.7-1.6c0.9,0,1.8,0.4,1.8,1.5S117.5,239.8,116.4,239.8z M52,239.8
	c-1.1,0-1.7-0.5-1.7-1.5c0-1.1,0.8-1.5,1.8-1.5s1.8,0.5,1.7,1.6C53.7,239.3,53.1,239.8,52,239.8z M211.1,239.8
	c-0.9-0.1-1.7-0.6-1.4-1.6c0.1-0.6,0.9-1.3,1.5-1.4c0.9-0.2,1.6,0.5,1.6,1.5C212.7,239.2,212.1,239.7,211.1,239.8z M-24.4,251.7
	c-1.2,3.6-4.9,5.8-9,5.6c-4.7-0.2-8.2-2.5-9.5-6.6c-1.6-4.8-0.8-9.2,2.8-12.8c3-3,7.8-3.8,11.8-1.9c1.3,0.6,2.2,0.6,2.9-0.9l0.3,0.1
	l0.5,6.8c-0.1,0-0.2,0-0.3,0.1c-0.4-0.8-0.7-1.6-1.1-2.3c-1.3-2.5-3.5-3.7-6.3-3.7s-5,1.1-6.3,3.7c-1.9,3.8-2.1,7.8-0.5,11.7
	c2,5,8.8,6.2,12.6,2.5C-26.5,254-24.4,251.7-24.4,251.7z M-24.1,268.1l0.9-0.1c1.2-0.1,1.9-0.7,2-1.9c0.1-2,0.2-3.9,0.2-5.9v-10.5
	c0-0.9-0.3-1.4-1.2-1.3h-0.7c-3.7,0-4,0.3-5.6,3.6c0.1-1.5,0.1-3,0.2-4.6h17.7l0.3,4.5c-0.1,0.1-0.2,0.3-0.4,0.4
	c-0.9-4.6-4.1-3.9-7.1-3.8c-0.1,0.2-0.2,0.3-0.2,0.5v16.7c0,1.8,0.3,2,2.8,2.7H-24C-24.1,268.2-24.1,268.2-24.1,268.1L-24.1,268.1z"
	/>
</svg>
