<?xml version="1.0" encoding="utf-8"?>
<!-- Generator: Adobe Illustrator 19.1.0, SVG Export Plug-In . SVG Version: 6.00 Build 0)  -->
<svg version="1.1" id="Calque_1" xmlns="http://www.w3.org/2000/svg" xmlns:xlink="http://www.w3.org/1999/xlink" x="0px" y="0px"
	 viewBox="-99 182.6 300 137.4" style="enable-background:new -99 182.6 300 137.4;" xml:space="preserve">
<style type="text/css">
	.st0{fill:#147241;}
	.st1{fill:#FFEC0A;}
</style>
<path class="st0" d="M49.6,189.8c-76.7,0-139.2,27.6-139.2,61.6S-27.1,313,49.6,313s139.1-27.6,139.1-61.6S126.2,189.8,49.6,189.8z
	 M49.9,183c-82,0-148.9,30.7-148.9,68.4c0,37.8,66.9,68.5,148.9,68.5s149-30.7,149-68.5C198.9,213.7,131.9,183,49.9,183z
	 M49.5,316.4c-79.3,0-143.9-29.2-143.9-64.9c0-35.8,64.6-64.9,143.9-64.9s144,29.1,144,64.8C193.6,287.2,128.8,316.4,49.5,316.4z
	 M192.7,193.9c-0.2-0.2-0.5-0.4-0.9-0.6c0.9-0.1,1.7-0.4,2.2-1c0.6-0.6,0.8-1.3,0.8-2c0-0.6-0.2-1.1-0.5-1.6s-0.8-0.9-1.3-1
	c-0.6-0.2-1.5-0.3-2.7-0.3h-3.7v10.8h1.7v-4.6h1c0.6,0,1.1,0.1,1.4,0.4c0.5,0.3,1.1,1.2,1.8,2.5l1,1.7h2.1l-1.3-2.1
	C193.7,195,193.2,194.3,192.7,193.9z M190.4,192.1h-2.1v-3.3h2c0.9,0,1.4,0.1,1.7,0.2c0.3,0.1,0.6,0.3,0.7,0.6
	c0.2,0.2,0.3,0.5,0.3,0.9c0,0.5-0.2,0.9-0.6,1.2C192.1,191.9,191.5,192.1,190.4,192.1z M199.7,187.6c-0.9-1.6-2.1-2.8-3.7-3.7
	c-1.7-0.9-3.3-1.3-5-1.3s-3.3,0.4-4.9,1.3c-1.6,0.9-2.9,2.1-3.8,3.7s-1.3,3.3-1.3,5s0.4,3.4,1.3,5s2.1,2.8,3.7,3.7
	c1.6,0.9,3.2,1.3,5,1.3c1.7,0,3.4-0.4,5-1.3c1.6-0.9,2.8-2.1,3.7-3.7s1.3-3.3,1.3-5S200.6,189.2,199.7,187.6L199.7,187.6z
	 M198.2,196.8c-0.7,1.3-1.8,2.4-3.1,3.1c-1.3,0.7-2.7,1.1-4.2,1.1c-1.4,0-2.8-0.4-4.2-1.1c-1.3-0.7-2.4-1.8-3.1-3.1
	s-1.1-2.7-1.1-4.1c0-1.4,0.4-2.8,1.1-4.2c0.8-1.3,1.8-2.4,3.1-3.1c1.3-0.7,2.7-1.1,4.1-1.1s2.8,0.4,4.1,1.1s2.4,1.8,3.1,3.1
	c0.7,1.3,1.1,2.7,1.1,4.2C199.3,194.1,199,195.4,198.2,196.8z"/>
<path class="st1" d="M153.4,244.3c-5.6,5.9-5.7,0.4-5.7-2c0-1.2,0.3-3.3,1.7-8.8l1.8-7.5l-2.6,0.3c-2,4.9-4,6.9-7.3,8
	c0.6-2.2,0.7-4.2,0.7-5.2c0-1.3-1.3-1.9-2.4-1.9c-3.8,0-4.8,6.1-4.8,7.4s1,2.4,2.9,2.9c-2.2,3.7-5.8,10.4-10.6,10.5
	c-2.6,0.1-5.2-1.3-6.3-4.8c4.5-1.9,11.6-5.3,11.4-10.5c-0.1-2.6-2.7-4.5-5.9-4.2c-6.3,0.5-11.8,7.9-11.8,15.3l-0.4,1.2
	c-1.1,3.5-3.6,4.9-5,4.9c-1,0-1.6-0.6-1.6-1.6c0-0.3-0.3-2.6-0.3-2.6c-0.2-1.4-0.7-3.2-3.6-3.6c6.3-2,7.6-5,7.6-7.3
	c0-2.6-3-4.1-6.2-4.1c-0.8,0-2.5,0.3-3.9,1.1c1.6-2.5,3.4-6.4,4.9-10.4l50.1-3.8l-0.2-2.5l-48.9,3.7c1.8-5.3,2.9-10.4,2.9-11.8
	c0-1.7-1.6-3.8-2.6-3.8c-0.3,0-4.2,1.5-9.8,4.2c-1.6,3.2-3.2,7.6-4.7,12.4l-59.5,4.5c2.6-6.2,4.4-12.4,4.4-14.8
	c0-1.9-1.5-3.4-2.6-3.4c-0.2,0-4.5,1.5-9.1,3.4c-0.8,1.7-3.2,8.3-5.6,15.7L-5,226.9c1.8-5.5,2.6-10.7,2.6-13.1
	c0-2.7-1.1-4.1-2.2-4.1h-0.8l-6.6,3.1c-0.9,2-3.1,7.9-5.4,15l-5.5,0.4c1.7-5.4,2.5-10.4,2.5-12.7c0-2.7-1.2-4.1-2.2-4.1
	c-0.2,0-0.4,0-0.7,0.1l-6.7,3.1c-0.9,2-3,7.7-5.2,14.5l-13,1c-2.5-0.2-5.4-0.1-8,0.2c-21.1,1.7-23.7,22.5-23.2,30.6
	c0.5,6.9,4.7,11.7,9.5,11.4c3.3-0.2,6.2-3.1,10.4-9.4c0.8,4.2,3.4,7.7,7.6,7.6c3.1-0.2,6.7-3,10.4-7.7c1,3.9,3.8,6.1,6.9,6
	c3-0.1,6.5-2.7,10.9-8.1c1,4.1,3.9,6.4,7.1,6.3c3,0,6.5-2.8,11-8.1c1.2,3.9,5,6.3,8.8,6.2c3.8-0.2,6.7-2.7,11.2-7.8
	c0.7,3.4,3.6,6.1,6.3,6c3-0.1,5.5-2.7,9.4-8.2c2,1.3,3.3,1.7,4.9,1.7c1.5,0,3-0.9,3.9-2.2c0.8,3.7,3.7,6.4,6.3,6.3
	c3-0.1,5.9-3.4,8.9-9.2c0.2,1.8,1,8,5.1,7.8c2.5-0.1,4.6-3.1,8.9-7.6c1.2,3.7,4.9,6,8.7,5.9c3.5-0.2,7-3,11.2-7.7
	c0,0.3,0.1,0.7,0.1,0.8c0,2.5,0.3,3.6,0.9,5.7l6-2c-0.4-4.3-0.7-7.6,0.1-14.5c2.5-4.2,4.2-5.5,6.6-5.7c1.8-0.2,3.2,0.8,3.2,2.2
	c0,0.6-0.5,4.3-5.7,4.5c-1.2,0-1.6,0.6-1.6,2c0,0.5,0.8,0.6,1.2,0.9c1.1-0.1,1.9,0.3,1.9,0.9c0,0.7-0.2,3.9-0.2,5.5
	c0,2.3,2.8,4.5,5.2,4.5c2.5,0,5.7-2.9,9.4-7.7c1.3,3.9,5,6.2,8.6,6c5.8-0.3,14.5-10.2,16.3-16.2c2.1-0.6,3.2-1,4.6-1.9
	c-2.5,5-3.3,8.6-3.3,10.9c0,2.7,2.6,5,4.5,5c2.7,0,4.3-0.1,9.1-4.9c11.3-11.6,41.1,11-14.8,14.9l-179.6,17c0.7,5.6-0.7,9.7-4.1,12.5
	L141,268.1C208.8,259.9,169.6,227.2,153.4,244.3L153.4,244.3z M-59.5,258.9c-2.5,4.6-4.7,6.8-7,6.8c-2.2,0-4.7-2.8-5-6.8
	c-0.4-7,2.7-25.7,13.8-26.4c1.8-0.1,4,0,5.8,0.6C-57.3,240.5-59.3,249.8-59.5,258.9z M-26.9,223.4c0.7-5.3,2.1-8.6,3.2-8.6
	c0.6,0,1.3,0.7,1.3,2c0,1.6-1,6.3-2.8,11.6l-3.3,0.2C-27.7,226.1-27,223.8-26.9,223.4z M-29.4,231.3l3.3-0.3
	c-2.8,8-6.6,16.8-8.7,19.6C-34.6,246.9-31.6,238-29.4,231.3z M-41.9,260.5c-2.4,2.2-4.4,3.8-5.9,3.8c-1.9,0-3.8-1.4-4-4.3
	c-0.3-5.6,2.4-18.6,5.5-24.9c0-0.2,0.9-1.1,1.5-2.6l8.7-0.7C-39.3,242.4-42.5,254.7-41.9,260.5z M-24,256.6
	c-2.8,4.7-5.1,7.2-7.4,7.2c-1.6,0-3.8-1.9-3.8-5.1c0-0.7,0.1-2.6,0-4c3.9-5.2,8.5-15,11.5-23.8l5.6-0.4
	C-21,239.7-23.8,250.4-24,256.6z M-8.9,221.6c0.7-5.4,2.1-8.6,3.1-8.6c0.6,0,1.3,0.8,1.3,2c0,1.7-1.1,6.6-2.9,12.1l-3.2,0.2
	C-9.7,224.5-9,222.1-8.9,221.6z M-11.5,229.9l3.2-0.2c-2.8,7.9-6.4,16.5-8.6,19.3C-16.6,245.2-13.7,236.5-11.5,229.9z M15.6,243.2
	c-0.6,3.5-1.3,7.8-1.4,10.9c-2.6,3.5-4.7,5.5-7.6,5.6c-2.6,0.1-5.2-1.3-6.3-4.9c4.5-1.9,11.6-5.4,11.3-10.5c-0.1-2.6-3-4.3-5.9-4.2
	C-0.4,240.5-6,248-6,255.5c-2.8,4.1-5.2,6.5-7.5,6.5c-1.6,0-3.7-1.9-3.7-5.1c0-0.8,0.1-2.5,0-4c3.8-5.1,8.2-14.6,11.3-23.3l25.9-2
	C18.3,233,16.4,238.8,15.6,243.2z M0.2,253.1c-0.6-6.5,2.1-10.5,4.1-10.5c1.2,0,2.1,1.1,2.1,2.7C6.4,248.3,4.7,251.2,0.2,253.1z
	 M34.3,208.8c0.6,0,1.2,0.8,1.2,1.7c0,1-1.6,7.1-4.2,13.7l-4,0.2C29.8,216.6,32.7,208.8,34.3,208.8z M26.5,227.1l3.8-0.3
	c-2.3,5.6-5,11.2-7.5,14.2C23.1,239.4,24.6,233.4,26.5,227.1z M48.3,254.9c-1.1,0-2.8-1.1-2.8-3c-0.2-4.5,2.5-14,6.6-14.1
	c1.1,0,2.8,1.1,2.9,3C55.1,245.3,52.5,254.8,48.3,254.9z M88,246.7c-2.9,4-5.2,5.7-7.6,5.7c-3.4,0.1-6.3-2.5-6.5-6.6
	c-0.3-4.8,1.8-10.2,4.5-10.2c0.8,0,2,0.9,2,2.3v2.9c0,0.3,0.1,0.7,0.4,0.7c0.4,0,0.7-0.1,0.7-0.5l3.1-1.7c0.7-0.4,1.2-1.6,1.2-1.9
	c0-3.1-2.7-4.8-5.9-4.6c-6.3,0.5-12.1,8.2-12.2,15.7c-2.8,3.7-4.1,4.9-5.1,4.9s-2-0.7-2-2c0-1.7,0.6-7,0.9-8.8l1.8-8.2l-1.5,0.2
	l-5.5,3.5c-0.9-1.8-3.1-2.5-4.9-2.5c-4.6,0.2-12.7,7.4-12.9,15.9c-1.1,2-2.2,3.2-3.8,3.2c-1.3,0-2.6-0.5-3.7-1.5
	c2.7-5.3,3.6-10.3,3.6-13c0-1.5-1.3-2.7-2.5-2.7c-3.1,0-5.8,6.2-5.6,11.4c0,1.1,0.7,3.2,1.9,4.5c-1.8,3.1-3.1,4.1-4.3,4.1
	c-1.6,0-3.2-1.3-3.2-3.3c0-1.6,0.3-4.4,1-8.8l3.1-3.9c0.9-1.1,4.4-8,7.4-14.9l59.8-4.5C89.7,231.1,87.8,240.9,88,246.7L88,246.7z
	 M106.1,206.3c0.9,0,1.6,0.8,1.6,1.6c0,1.2-1.3,5.8-3.2,10.7L100,219C102.4,211.8,105.1,206.3,106.1,206.3L106.1,206.3z M97.8,233
	l-1.6,2.3c0.7-4.7,1.8-9.5,3.1-13.8l4.2-0.2C101.5,226.1,99.1,231.1,97.8,233z M124.8,230.7c1.2,0,2.1,1.1,2.1,2.7
	c0,3.1-1.6,6-6.1,7.9C120.1,234.8,122.8,230.7,124.8,230.7z M49.5,186.6c-79.3,0-143.9,29.1-143.9,64.8c0,35.8,64.6,64.9,143.9,64.9
	s144-29.2,144-64.9C193.6,215.7,128.8,186.6,49.5,186.6z M49.6,313c-76.6,0-139.2-27.6-139.2-61.6s62.5-61.6,139.2-61.6
	s139.1,27.6,139.1,61.6S126.2,313,49.6,313z"/>
</svg>
