<?xml version="1.0" encoding="utf-8"?>
<!-- Generator: Adobe Illustrator 16.0.0, SVG Export Plug-In . SVG Version: 6.00 Build 0)  -->
<!DOCTYPE svg PUBLIC "-//W3C//DTD SVG 1.1//EN" "http://www.w3.org/Graphics/SVG/1.1/DTD/svg11.dtd">
<svg version="1.1" id="Calque_1" xmlns="http://www.w3.org/2000/svg" xmlns:xlink="http://www.w3.org/1999/xlink" x="0px" y="0px"
	 width="500px" height="500px" viewBox="0 0 500 500" enable-background="new 0 0 500 500" xml:space="preserve">
<g>
	<g>
		<path fill="#00548F" d="M61.572,349.5c-1.485,0-2.969-0.116-4.571-0.341c-9.599,26.968-20.113,53.599-31.879,79.534
			c1.938-0.229,3.656-0.342,5.369-0.342s3.427,0.112,4.912,0.342c2.628-6.971,5.257-14.628,8.115-22.971
			c4.454-0.229,8.913-0.229,13.371-0.229c4.459,0,8.913,0,13.367,0.229c2.404,7.203,4.916,14.744,7.544,22.971
			c3.315-0.342,6.513-0.458,9.828-0.458s6.629,0.116,9.832,0.458C85.687,401.498,75.06,374.988,65.69,349.16
			C64.43,349.384,63.062,349.5,61.572,349.5z M56.889,398.412c-3.427,0-6.746-0.112-10.173-0.229
			c2.974-8.8,6.4-17.597,10.402-26.168c3.772,8.571,7.083,17.368,9.94,26.168C63.631,398.299,60.204,398.412,56.889,398.412z"/>
		<path fill="#00548F" d="M124.433,420.579c-0.69-8.23-0.803-18.516-0.803-30.855c0-14.403,0.341-27.43,1.368-39.083
			c-3.194,0.458-6.396,0.687-9.599,0.687c-3.194,0-6.396-0.229-9.599-0.687c1.032,11.425,1.373,24.455,1.373,39.083
			c0,13.371-0.229,26.28-1.373,38.966c7.544-0.458,14.515-0.799,21.028-0.799c7.087,0,15.085,0.341,23.657,0.799
			c-0.229-1.714-0.341-3.315-0.341-4.912c0-1.713,0.112-3.314,0.341-4.799C141.227,419.893,132.542,420.35,124.433,420.579z"/>
		<path fill="#00548F" d="M188.312,350.528c-7.423,0-13.708,0.57-18.969,0.57c-2.288,0-4.916-0.112-8.002-0.453
			c1.032,11.648,1.377,24.796,1.377,39.082c0,13.708-0.233,26.627-1.377,38.967c3.086-0.342,6.177-0.574,9.375-0.574
			s6.401,0.232,9.604,0.574c-0.807-9.142-1.26-14.856-1.26-17.027v-16.794c1.26,0,2.512,0.107,3.772,0.107
			c21.141,0,31.426-7.657,31.426-23.886C214.256,356.7,205.913,350.528,188.312,350.528z M178.941,388.696v-18.853
			c0-4.23,0.345-8.46,0.803-12.686c1.256-0.116,2.4-0.233,3.539-0.233c8.688,0,12.918,4.8,12.918,14.744
			C196.202,383.784,191.169,388.696,178.941,388.696z"/>
		<path fill="#00548F" d="M246.53,349.5c-1.485,0-2.974-0.116-4.571-0.341c-9.604,26.968-20.113,53.599-31.888,79.534
			c1.942-0.229,3.656-0.342,5.374-0.342c1.713,0,3.427,0.112,4.912,0.342c2.633-6.971,5.257-14.628,8.114-22.971
			c4.454-0.229,8.913-0.229,13.372-0.229c4.454,0,8.917,0,13.371,0.229c2.396,7.203,4.916,14.744,7.541,22.971
			c3.314-0.342,6.513-0.458,9.832-0.458c3.311,0,6.625,0.116,9.828,0.458c-11.771-27.196-22.401-53.706-31.771-79.534
			C249.382,349.384,248.01,349.5,246.53,349.5z M241.842,398.412c-3.432,0-6.742-0.112-10.169-0.229
			c2.965-8.8,6.396-17.597,10.393-26.168c3.777,8.571,7.087,17.368,9.945,26.168C248.584,398.299,245.153,398.412,241.842,398.412z"
			/>
		<path fill="#00548F" d="M308.847,351.439c-10.173,0-20.229-0.341-30.398-0.799c0.225,1.485,0.341,3.086,0.341,4.688
			c0,1.714-0.116,3.423-0.341,5.369c5.938-0.915,12.34-1.372,19.311-1.372c0.798,0,1.605,0,2.404,0
			c0.336,16.341,0.453,26.509,0.453,30.398c0,13.371-0.341,26.28-1.368,38.966c3.086-0.341,6.168-0.569,9.37-0.569
			c3.203,0,6.513,0.229,9.823,0.569c-1.139-12.909-1.251-27.771-1.251-44.798c0-8.109,0-16.336,0.453-24.566
			c0.798,0,1.597,0,2.287,0c6.971,0,13.372,0.457,19.311,1.372c-0.225-1.946-0.341-3.655-0.341-5.369
			c0-1.602,0.116-3.202,0.341-4.688C329.185,351.098,319.016,351.439,308.847,351.439z"/>
		<path fill="#00548F" d="M395.472,418.749c-10.168,0.911-18.74,1.485-25.599,1.714c-0.453-3.768-0.453-8.913-0.453-15.313v-13.713
			c7.083,0,15.65,0.458,25.595,1.027c-0.229-1.713-0.458-3.311-0.458-4.916c0-1.714,0.229-3.311,0.458-4.795
			c-7.886,0.341-16.565,0.569-25.595,0.915v-7.773c0-1.826,0-3.66,0-5.481c0-3.656,0-7.433,0.336-11.313
			c6.859,0.107,15.431,0.569,25.716,1.251c-0.229-1.601-0.457-3.198-0.457-4.799c0-1.597,0.229-3.315,0.457-4.912
			c-6.741,0.341-13.717,0.458-21.14,0.458c-7.316,0-14.973-0.117-22.971-0.458c1.256,10.057,1.368,21.257,1.368,33.368
			c0,1.942,0,3.772,0,5.715c0,14.627,0,27.653-1.368,38.966c5.485-0.458,10.972-0.569,16.569-0.569
			c6.06,0,15.313,0.229,27.653,0.569c-0.229-1.825-0.457-3.655-0.457-5.481C395.127,421.718,395.244,420.234,395.472,418.749z"/>
		<path fill="#00548F" d="M450.896,423.436c-17.709,0-27.308-11.998-27.308-34.507c0-21.033,9.711-32.915,26.057-32.915
			c10.967,0,18.507,4.799,20.906,12.797l1.602-0.229c0.57-4.57,1.485-9.258,2.97-13.824c-8.455-3.772-16.798-5.715-25.37-5.715
			c-27.196,0-44.224,16.229-44.224,40.339c0,25.599,15.543,40.796,42.397,40.796c8.685,0,16.565-1.714,23.886-5.253l2.624-9.604
			l-1.368-0.341C466.438,420.579,458.212,423.436,450.896,423.436z"/>
	</g>
	<path fill="#1E68A0" d="M46.981,261.633c0,0,41.307-3.423,93.882,11.406c0,0,24.491,8.851,36.688,14.372
		c0,0,46.479,19.36,74.635,21.661c0,0,43.098,7.186,121.474,1.318c0,0,58.688-4.015,61.16,7.688c0,0,10.065,17.216-63.839,18.75
		c0,0-31.879,0.367-59.873,0.421c0,0-75.142,2.499-151.8-34.987C159.308,302.263,92.438,265.89,46.981,261.633"/>
	<linearGradient id="SVGID_1_" gradientUnits="userSpaceOnUse" x1="261.5767" y1="87.6699" x2="261.5767" y2="295.3877">
		<stop  offset="0" style="stop-color:#F8E102"/>
		<stop  offset="1" style="stop-color:#EA7E14"/>
	</linearGradient>
	<path fill="url(#SVGID_1_)" d="M185.535,148.884c0,31.816,34.18,57.608,76.348,57.608c42.188,0,76.362-25.792,76.362-57.608
		c0-31.803-34.175-57.608-76.362-57.608C219.715,91.276,185.535,117.082,185.535,148.884 M261.583,295.387
		c-57.366,0-103.868-46.497-103.868-103.854c0-57.366,46.502-103.863,103.868-103.863c57.356,0,103.854,46.498,103.854,103.863
		C365.437,248.89,318.94,295.387,261.583,295.387"/>
	<linearGradient id="SVGID_2_" gradientUnits="userSpaceOnUse" x1="261.8911" y1="91.2764" x2="261.8911" y2="206.4927">
		<stop  offset="0" style="stop-color:#FEF1B4"/>
		<stop  offset="1" style="stop-color:#FAB820"/>
	</linearGradient>
	<path fill="url(#SVGID_2_)" d="M261.883,206.493c-42.168,0-76.348-25.792-76.348-57.608c0-31.803,34.18-57.608,76.348-57.608
		c42.188,0,76.362,25.805,76.362,57.608C338.246,180.701,304.071,206.493,261.883,206.493"/>
	<path fill="#BBC9E0" d="M322.026,238.335c-96.354,20.032-177.812-16.794-181.934-82.27c-1.83-28.977,11.824-58.707,35.943-84.593
		c-37.603,30.228-60.371,68.948-57.994,106.532c4.194,66.579,85.701,104.312,182.046,84.262
		c59.299-12.34,110.349-43.672,139.904-81.458C409.983,207.47,368.545,228.656,322.026,238.335"/>
	<path fill="#FFFFFF" d="M322.026,238.335l-0.246-1.202c-17.714,3.683-34.916,5.437-51.207,5.437
		c-35.979,0-67.535-8.55-90.434-23.644c-22.903-15.112-37.159-36.66-38.818-62.937v-0.005c-0.112-1.7-0.161-3.413-0.161-5.122
		c-0.009-26.905,13.241-54.37,35.776-78.556c0.436-0.467,0.436-1.198,0-1.673c-0.435-0.466-1.166-0.52-1.668-0.117
		c-35.992,28.937-58.608,65.691-58.622,102.091c0,1.83,0.054,3.651,0.17,5.477c1.736,27.645,16.664,50.431,40.231,66.188
		c23.576,15.768,55.782,24.59,92.344,24.595c16.247,0,33.354-1.745,50.947-5.405c59.568-12.398,110.838-43.846,140.622-81.902
		c0.391-0.498,0.337-1.211-0.126-1.65c-0.462-0.431-1.18-0.44-1.654-0.022c-29.834,26.514-71.092,47.614-117.4,57.245
		L322.026,238.335l0.247,1.197c46.726-9.72,88.343-30.99,118.54-57.81l-0.821-0.915l-0.964-0.758
		c-29.336,37.513-80.153,68.741-139.188,81.009c-17.436,3.629-34.377,5.355-50.449,5.355c-36.163,0.005-67.916-8.746-90.981-24.181
		c-23.06-15.444-37.45-37.477-39.145-64.305c-0.112-1.767-0.166-3.539-0.166-5.32c-0.018-35.337,22.083-71.554,57.707-100.18
		l-0.771-0.956l-0.897-0.839c-22.823,24.496-36.427,52.499-36.432,80.229c0,1.758,0.054,3.521,0.166,5.279
		c1.696,27.11,16.507,49.422,39.917,64.83c23.415,15.426,55.419,24.047,91.784,24.052c16.466,0,33.834-1.776,51.7-5.491
		L322.026,238.335"/>
</g>
</svg>
