<?xml version="1.0" encoding="utf-8"?>
<!-- Generator: Adobe Illustrator 19.1.0, SVG Export Plug-In . SVG Version: 6.00 Build 0)  -->
<svg version="1.1" id="Calque_2" xmlns="http://www.w3.org/2000/svg" xmlns:xlink="http://www.w3.org/1999/xlink" x="0px" y="0px"
	 viewBox="0 0 500 500" style="enable-background:new 0 0 500 500;" xml:space="preserve">
<g>
	<path d="M149.4,125.6C80.7,125.6,25,181.3,25,250s55.7,124.4,124.4,124.4S273.8,318.7,273.8,250S218.1,125.6,149.4,125.6z
		 M149.4,356.2c-58.7,0-106.2-47.6-106.2-106.2c0-58.7,47.6-106.2,106.2-106.2S255.6,191.3,255.6,250
		C255.6,308.7,208.1,356.2,149.4,356.2z"/>
	<g>
		<path d="M347.7,251.5V262c-5.7-7.3-14.5-12-24.5-12c-17.1,0-31,13.9-31,31c0,17.1,13.9,31,31,31c10,0,18.8-4.7,24.5-12v10.3h7.2
			v-58.7H347.7z M323.2,305.4c-13.5,0-24.5-10.9-24.5-24.5c0-13.5,11-24.5,24.5-24.5c13.5,0,24.5,11,24.5,24.5
			C347.7,294.5,336.7,305.4,323.2,305.4z"/>
	</g>
	<g>
		<g>
			<rect x="467.8" y="251.5" width="7.2" height="58.7"/>
		</g>
		<g>
			<rect x="467.8" y="230.9" width="7.2" height="14.1"/>
		</g>
	</g>
	<g>
		<path d="M425,250c-9.8,0-18.5,4.6-24.2,11.7v-10.2h-7.2v79.3h7.9v-29.5c5.7,6.6,14.1,10.7,23.4,10.7c17.1,0,31-13.9,31-31
			C456,263.9,442.2,250,425,250z M425,304.8c-13.2,0-23.8-10.7-23.8-23.8c0-13.2,10.7-23.8,23.8-23.8c13.2,0,23.8,10.7,23.8,23.8
			C448.9,294.1,438.2,304.8,425,304.8z"/>
	</g>
	<g>
		<rect x="370.5" y="230.9" width="7.2" height="79.4"/>
	</g>
	<rect x="173.2" y="188.8" width="17.4" height="121.4"/>
	<polygon points="110.1,310.2 90.1,310.2 140.7,188.8 159,188.8 	"/>
</g>
</svg>
