<?xml version="1.0" encoding="utf-8"?>
<!-- Generator: Adobe Illustrator 19.1.0, SVG Export Plug-In . SVG Version: 6.00 Build 0)  -->
<svg version="1.1" id="Calque_1" xmlns="http://www.w3.org/2000/svg" xmlns:xlink="http://www.w3.org/1999/xlink" x="0px" y="0px"
	 viewBox="0 0 500 500" style="enable-background:new 0 0 500 500;" xml:space="preserve">
<style type="text/css">
	.st0{fill:#004D95;}
	.st1{fill:#82939C;}
</style>
<g id="Calque_2">
</g>
<g>
	<path class="st0" d="M110,214.5c-4.2-5.5-12.7-5-12.7-5s-42.4,0-46,0c-3.6,0-12.7,4.1-12.7,12.3s7.8,7.8,7.8,7.8h43.8l-1.6,7.7
		H47.7c0,0-5.6-0.4-10.2,3.1c-6,4.6-7.8,9.7-7.8,9.7s-2.5,7-4,15.5c-1.5,8.6-0.6,10.4,2.9,14.4c3.5,4,10.9,4.6,10.9,4.6h58.8
		c0,0,14-56.9,14.4-58.9C113,223.8,114.3,220,110,214.5z M81.3,265.5H47.1l2.2-8.9l34.5,0.1L81.3,265.5z"/>
	<path class="st0" d="M128.2,284.3h-21.2l18.4-74.8h49.6c0,0,6.7,1.1,8.4,6c1.7,4.8,0.9,9.2,0.2,11.8c-0.6,2.6-14,57.3-14,57.3h-21
		l13.2-54.8h-20L128.2,284.3z"/>
	<path class="st0" d="M223.7,199.1c-0.7,2.5-3.5,4.5-6.4,4.5h-11.6c-2.8,0-4.6-2-3.9-4.5l3.7-13.4c0.7-2.5,3.6-4.5,6.4-4.5h11.6
		c2.8,0,4.6,2,3.9,4.5L223.7,199.1z"/>
	<path class="st0" d="M200,209.8h21.2l-22.6,92.4c0,0-5.1,16.5-16.2,16.5c-11.1,0-24,0-24,0s15.9,1.5,20-21.9L200,209.8z"/>
	<path class="st0" d="M283.8,208.9h-33.4c-9.8,0-19.8,7.6-22.4,16.9l-11.4,41.5c-2.6,9.3,3.3,16.9,13.1,16.9h33.4
		c9.8,0,19.8-7.6,22.4-16.9l11.3-41.5C299.5,216.5,293.6,208.9,283.8,208.9z M265.7,265.2h-26.3l8.4-35.7h26.3L265.7,265.2z"/>
	<path class="st0" d="M327.4,209.7h36.9c0,0,7.8,0.2,7.8,7.9c0,7.7-9.6,12.4-12.5,12.4c-3,0-34.4,0-34.4,0l-1.7,7.1h43.9l-7.8,30.8
		c0,0-3.5,14.5-20.6,16.1h-57c0,0,11.6,0.8,15.5-18.5h41.9l1.9-9.2h-32.4c0,0-7,0.5-7.9-10.3c-0.5-5.6,4.8-22.4,4.8-22.4
		S312,209.7,327.4,209.7z"/>
	<path class="st0" d="M451,214.7h15.7c-2.6-2.9-6.6-4.7-11.5-4.7h-6.8c0.1,0.2,0.3,0.3,0.4,0.5C449.8,211.7,450.5,213.2,451,214.7z"
		/>
	<path class="st0" d="M402.9,211.1c-2.6,0.8-5,2-7.2,3.6h10.9c-0.5-0.6-0.9-0.9-0.9-1L402.9,211.1z"/>
	<path class="st0" d="M455.2,225.5l0.4,0.3c0.4,0.3,0.9,0.5,1.4,0.7h12.3c0.4-1.6,0.5-3.2,0.4-4.7h-16.5
		C453.8,223.5,454.5,225.1,455.2,225.5z"/>
	<path class="st0" d="M389,221.8c-0.9,1.5-1.6,3.1-2.1,4.7h26.8c-0.6-1.7-1.4-3.3-2.2-4.7H389z"/>
	<path class="st0" d="M415.3,233.2h-30l-1.2,4.7h31.1c0.1-1.1,0.2-2.3,0.2-3.4C415.3,234.1,415.3,233.6,415.3,233.2z"/>
	<path class="st0" d="M382.2,244.9l-1.2,4.7h31.2c0.6-1.5,1.1-3.1,1.6-4.7H382.2z"/>
	<path class="st0" d="M454,261.3h6.6l1.2-4.7h-1.4c-0.8,0.4-1.6,0.8-2.4,1.3C456.7,258.7,455.4,259.9,454,261.3z"/>
	<path class="st0" d="M379.2,256.5l-1.2,4.7h28.1c1-1.5,1.9-3.1,2.8-4.7H379.2z"/>
	<path class="st0" d="M376.3,268c-0.4,1.6-0.5,3.2-0.4,4.7h21.5c1.2-1.4,2.5-3,3.9-4.7H376.3z"/>
	<path class="st0" d="M444.6,272.7h12.2c0.9-1.5,1.6-3.1,2-4.7h-10.6c-1,1.2-2,2.5-2.9,3.8C445,272.1,444.8,272.4,444.6,272.7z"/>
	<path class="st0" d="M390.9,279.7h-12c1.7,2,4.2,3.5,7.2,4.3l3.7-3.3C389.7,280.7,390.1,280.3,390.9,279.7z"/>
	<path class="st0" d="M434.5,284.4h4.1c4.2-0.5,8.3-2.2,11.7-4.7H439C437.5,281.4,436,283,434.5,284.4z"/>
	<path class="st0" d="M422.9,284.3h-30.3c0,0,27.3-23.5,27.3-48.8c0-15.8-11.1-25-11.1-25h29.8c0,0,4.7,0.5,6.5,3.9
		c1.7,3.4,2.6,11.4,5.6,13.8c3,2.4,3.2,3.8,12,4c8.8,0.1,11.9,5.8,12.1,8.8c0.1,3,0.1,7.8,0.1,7.8s-12.7-1.4-22.2,5.7
		C443.2,261.6,433,284.3,422.9,284.3z"/>
	<g>
		<g>
			<path class="st1" d="M219.8,313.1l6.9-12.8h7.1l-9.3,16.3h-10.7l-1.9-16.3h7.2L219.8,313.1z"/>
			<path class="st1" d="M241.7,309.4c-0.4,1.5-0.4,2.5,0,2.9c0.4,0.5,1.2,0.7,2.6,0.7c1.2,0,2.1-0.1,2.6-0.3
				c0.7-0.3,1.1-0.8,1.3-1.6h6.7c-0.5,2.1-1.7,3.6-3.5,4.4c-1.8,0.8-4.4,1.2-7.9,1.2c-4.5,0-7.2-0.7-8.2-2c-1-1.3-1.1-3.4-0.4-6.2
				c0.8-3.2,2-5.4,3.7-6.6c1.7-1.2,4.7-1.8,8.9-1.8c3.5,0,5.9,0.5,7.2,1.5c1.3,1,1.5,3.6,0.5,7.7L241.7,309.4L241.7,309.4z
				 M242.4,306.4h6.8c0.3-1.1,0.2-1.8-0.3-2.1c-0.4-0.3-1.3-0.5-2.5-0.5c-1.4,0-2.3,0.2-2.9,0.5
				C243.1,304.7,242.7,305.4,242.4,306.4z"/>
			<path class="st1" d="M259.6,316.6l4-16.3h6.8l-0.8,3.2c1.4-2.3,3.8-3.4,7.2-3.4c2.6,0,4.4,0.4,5.2,1.4c0.8,0.9,1,2.3,0.5,4.2
				l-2.7,10.9H273l2.3-9.3c0.3-1.2,0.3-2,0-2.4c-0.3-0.4-1-0.7-2.1-0.7c-1.2,0-2.2,0.3-2.9,0.8c-0.7,0.5-1.2,1.4-1.5,2.6l-2.2,8.9
				L259.6,316.6L259.6,316.6z"/>
			<path class="st1" d="M289.2,300.3h2.6l0.8-3.4h6.8l-0.8,3.4h7.8l-1,3.9h-7.8l-1.7,7c-0.2,0.7-0.2,1.1,0,1.3
				c0.2,0.2,0.6,0.3,1.3,0.3c0.5,0,1-0.1,1.3-0.4c0.3-0.3,0.7-1.1,1-2.5h5.5l-0.3,1c-0.6,2.3-1.4,3.8-2.7,4.6
				c-1.2,0.8-3.3,1.2-6.4,1.2c-3,0-5-0.4-6-1.1c-1-0.7-1.2-1.9-0.8-3.7l1.9-7.8h-2.6L289.2,300.3z"/>
			<path class="st1" d="M312.3,300.3h6.8l-4,16.3h-6.8L312.3,300.3z M314,293.3h6.8l-1,4.1H313L314,293.3z"/>
			<path class="st1" d="M321.8,316.6l5.7-23.3h6.8l-5.7,23.3H321.8z"/>
			<path class="st1" d="M350.9,308.5l0.8-3.1c0.3-1.4-0.5-2-2.5-2c-1,0-1.8,0.1-2.3,0.4c-0.6,0.2-0.9,0.7-1.1,1.5h-6.8
				c0.4-1.8,1.3-3.1,2.7-3.9c1.4-0.8,3.4-1.2,6.2-1.2h2.9c3.5,0,5.8,0.4,6.9,1.3c1.1,0.9,1.3,2.5,0.7,4.9l-2.5,10.2h-6.8l0.5-2
				c-0.7,0.9-1.7,1.5-2.7,1.7c-1.1,0.3-2.5,0.4-4.2,0.4c-2.6,0-4.4-0.4-5.4-1.2c-0.9-0.8-1.2-2.1-0.8-3.8c0.4-1.8,1.3-3.1,2.7-3.9
				c1.4-0.9,3.5-1.3,6.4-1.3c1.7,0,2.9,0.2,3.7,0.4C350,307.3,350.5,307.8,350.9,308.5z M343.3,311.6c-0.3,1.1,0.6,1.7,2.6,1.7
				c1.6,0,2.7-0.1,3.2-0.4c0.5-0.3,0.9-0.8,1.1-1.6c0.2-0.7,0-1.1-0.6-1.3c-0.6-0.2-1.5-0.3-2.7-0.3c-1.3,0-2.2,0.1-2.6,0.4
				C343.7,310.4,343.4,310.9,343.3,311.6z"/>
			<path class="st1" d="M365,300.3h2.6l0.8-3.4h6.8l-0.8,3.4h7.8l-1,3.9h-7.8l-1.7,7c-0.2,0.7-0.1,1.1,0,1.3
				c0.2,0.2,0.6,0.3,1.3,0.3c0.5,0,0.9-0.1,1.3-0.4c0.3-0.3,0.7-1.1,1-2.5h5.5l-0.3,1c-0.6,2.3-1.4,3.8-2.7,4.6s-3.3,1.2-6.4,1.2
				c-3,0-5-0.4-6-1.1c-1-0.7-1.2-1.9-0.8-3.7l1.9-7.8H364L365,300.3z"/>
			<path class="st1" d="M388.1,300.3h6.8l-4,16.3h-6.8L388.1,300.3z M389.8,293.3h6.8l-1,4.1h-6.9L389.8,293.3z"/>
			<path class="st1" d="M398.6,308.4c0.8-3.4,2-5.6,3.6-6.7c1.6-1.1,4.6-1.6,9-1.6c4.4,0,7.1,0.6,8,1.7c0.9,1.1,1,3.4,0.1,6.8
				c-0.8,3.4-2.1,5.5-3.7,6.6c-1.7,1-4.6,1.5-8.7,1.5c-4.3,0-7-0.6-8-1.8C398,313.8,397.9,311.6,398.6,308.4z M405.5,308.5
				c-0.5,2-0.5,3.1-0.1,3.6c0.4,0.4,1.3,0.6,2.9,0.6c1.5,0,2.5-0.2,3-0.7c0.5-0.5,1-1.7,1.4-3.5c0.4-1.8,0.5-3,0.2-3.5
				c-0.3-0.5-1.1-0.8-2.6-0.8c-1.7,0-2.8,0.3-3.3,0.8C406.4,305.5,405.9,306.7,405.5,308.5z"/>
			<path class="st1" d="M423.7,316.6l4-16.3h6.8l-0.8,3.2c1.5-2.3,3.8-3.4,7.2-3.4c2.6,0,4.4,0.4,5.2,1.4c0.8,0.9,1,2.3,0.5,4.2
				l-2.7,10.9h-6.8l2.3-9.3c0.3-1.2,0.3-2,0-2.4c-0.3-0.4-1-0.7-2.1-0.7c-1.2,0-2.2,0.3-2.9,0.8c-0.7,0.5-1.2,1.4-1.5,2.6l-2.2,8.9
				L423.7,316.6L423.7,316.6z"/>
		</g>
	</g>
</g>
</svg>
