<?xml version="1.0" encoding="utf-8"?>
<!-- Generator: Adobe Illustrator 21.0.2, SVG Export Plug-In . SVG Version: 6.00 Build 0)  -->
<svg version="1.1" id="Calque_1" xmlns="http://www.w3.org/2000/svg" xmlns:xlink="http://www.w3.org/1999/xlink" x="0px" y="0px"
	 viewBox="0 0 500 170" style="enable-background:new 0 0 500 170;" xml:space="preserve">
<style type="text/css">
	.st0{fill:#0063AC;}
	.st1{fill:#00A28F;}
</style>
<path class="st0" d="M103.8,62.1c1.8-7.2,4.6-18.7,4.6-18.7s2.9,12.7,3.9,17.1c2.1,9.3,5.3,19.5,5.3,19.5H98.7
	C100.8,73.6,102,69,103.8,62.1z M66.8,119.1h20.3l6.8-23h28.4l6.8,23H150l-30.5-97h-21L66.8,119.1z"/>
<path class="st0" d="M154.3,50.8l16.6-4.7c1.7,2.9,2.6,6,2.6,8.9c4.3-3.1,5.2-3.6,8.2-5.3c3.7-1.9,8.6-3.1,12.8-3.1
	c7.9,0,14.9,4.2,17.1,10.3c1,2.6,1.4,5.7,1.4,10.2v52.1h-18.4V72.8c0-8.1-1.4-10.4-6.3-10.4c-3.8,0-8.6,2.5-12.9,6.4v50.4h-18.7
	V67.6C156.8,61.4,156,55.5,154.3,50.8z"/>
<path class="st0" d="M278.7,52.6l-6.1,12.5c-7.1-3.6-12.2-5.2-17.5-5.2c-5.4,0-9.1,2.8-9.1,7c0,3.6,2.4,5.6,8.9,7.2l8.6,2.2
	c8.8,2.2,11.7,4.9,14.2,8.1c2.7,3.3,3.9,7.4,3.9,12.1c0,14.8-12.2,24.8-30.5,24.8c-8.8,0-18.4-2.8-28.8-8.2l6.7-13.6
	c5.7,3.5,15.6,8.1,23.7,8.1c5.3,0,9.5-3.5,9.5-8.1c0-4.9-3.5-7.4-11-8.8l-8.3-1.5c-4.7-0.8-10.6-4.2-13.1-7.2c-2.5-3.1-4-8.2-4-12.8
	c0-13.9,11-23.2,27.6-23.2C264.7,45.9,272.2,49.4,278.7,52.6z"/>
<path class="st0" d="M310,75.6c0-9.9,4-15.4,11.1-15.4c3.7,0,6.4,1.4,8.2,4.2c1.7,2.6,2.2,5.4,2.2,10.7v0.8H310V75.6L310,75.6z
	 M324.8,107.3c-9.6,0-15-6.3-15-17.3v-0.6H351c0-2.2,0-2.8,0-4.3c0-14.9-2.9-24.5-9.5-31.2c-4.6-4.7-12.4-7.5-20.6-7.5
	c-9.5,0-16.6,3.1-22.4,9.6c-6.3,7-8.9,15.4-8.9,28.3c0,22.4,13.2,36.9,33.7,36.9c10,0,18.7-3.2,26.9-9.9l-7.2-11.1
	C337.2,104.9,331.2,107.3,324.8,107.3z"/>
<path class="st0" d="M381,16.1c0.7,3.9,1,8.5,1,18.5v55.5c0,12.3,0.1,13.9,1.2,15.9c0.7,1.3,2.2,2,3.8,2c0.7,0,1.1,0,2.1-0.3
	l3.2,11.1c-3.2,1.2-7.1,1.9-11.1,1.9c-7.9,0-14.3-3.8-16.6-9.7c-1.4-3.6-1.7-5.8-1.7-16V41.8c0-9.3-0.3-15-1-21.4L381,16.1z"/>
<path class="st0" d="M418.5,16.1c0.7,3.9,1,8.5,1,18.5v55.5c0,12.3,0.1,13.9,1.2,15.9c0.7,1.3,2.2,2,3.8,2c0.7,0,1.1,0,2.1-0.3
	l3.2,11.1c-3.2,1.2-7.1,1.9-11.1,1.9c-7.9,0-14.3-3.8-16.6-9.7c-1.4-3.6-1.7-5.8-1.7-16V41.8c0-9.3-0.3-15-1-21.4L418.5,16.1z"/>
<path class="st1" d="M25,150.2l0.1,3.6c0,0,51-11.9,101.8-11.3c55.7,0.6,151.5,10.4,234.3,9.3c70.6-1,113.8-24.5,113.8-24.5v-2.8
	c0,0-30.6,11.1-102.4,10.8c-81.1-0.4-142-11.1-228.4-6.7C71.1,132.3,25,150.2,25,150.2z"/>
</svg>
