<?xml version="1.0" encoding="utf-8"?>
<!-- Generator: Adobe Illustrator 21.0.2, SVG Export Plug-In . SVG Version: 6.00 Build 0)  -->
<svg version="1.1" id="Calque_1" xmlns="http://www.w3.org/2000/svg" xmlns:xlink="http://www.w3.org/1999/xlink" x="0px" y="0px"
	 viewBox="0 0 500 144" style="enable-background:new 0 0 500 144;" xml:space="preserve">
<style type="text/css">
	.st0{fill:#0D0909;}
</style>
<path class="st0" d="M112.1,116.5h-25l-5.4-18.7H52.8l-7.4,18.7H26.2l35-82.5h19.2L112.1,116.5z M75.9,83.8l-8.3-30.6l-9.2,30.6
	H75.9z"/>
<path class="st0" d="M231,116.5v-87h20.9v87H231z"/>
<path class="st0" d="M327.3,116.5h-21.5v-8.8c-2.6,3.4-5.6,6-9,7.6c-3.5,1.7-7,2.5-10.5,2.5c-7.2,0-13.4-2.8-18.5-8.3
	c-5.1-5.5-7.7-13.3-7.7-23.2c0-10.1,2.5-17.8,7.5-23.1c5-5.3,11.3-7.9,18.9-7.9c7,0,13.1,2.8,18.2,8.3V28.7h22.7v87.8H327.3z
	 M280.3,85.3c0,6.4,0.9,11,2.6,13.8c2.5,4.1,6.1,6.2,10.7,6.2c3.6,0,6.7-1.5,9.3-4.6s3.8-7.7,3.8-13.9c0-6.9-1.2-11.8-3.7-14.8
	s-5.6-4.5-9.5-4.5c-3.7,0-6.9,1.5-9.4,4.5C281.6,74.9,280.3,79.4,280.3,85.3z"/>
<path class="st0" d="M337.7,116.5V56.7h22.9v59.8H337.7z M361.1,40.6c0,6.5-5.3,11.7-11.7,11.7s-11.8-5.2-11.8-11.7
	s5.3-11.7,11.7-11.7C355.7,28.9,361.1,34.1,361.1,40.6z"/>
<path class="st0" d="M470.6,100.7l5.2,9c-4.8,2.9-12.5,6.9-28.4,6.9c-12.8,0-31.5-7.7-31.5-29.6c0-9.5,2.8-17,8.4-22.4
	c5.6-5.4,12.7-8.1,21.4-8.1c9.7,0,17.3,2.8,22.9,8.5c5.6,5.6,8.3,12.2,8,23.9h-39.2c0.1,4.5,1.4,10.2,4.2,12.6
	C452.7,111.6,470.6,100.7,470.6,100.7z M458.9,81.5c-0.1-5.7-1.2-10-3.3-13s-4.7-4.4-7.8-4.4c-3.3,0-6,1.6-8.1,4.7
	c-2.1,3.1-3.2,7.4-3.1,12.7L458.9,81.5L458.9,81.5z"/>
<path class="st0" d="M138.1,71.1V57.5h-22.3v58.9h22.3V85.1c2.3-5.3,8.2-14.8,20.8-9.2c5.3-13.6,6.4-15.7,6.4-15.7
	S149.8,45.9,138.1,71.1z"/>
<path class="st0" d="M222.3,116.2l-1.8-4.2c0,0,0-23.7,0-34.4c0-10.7-6.8-20.9-25.5-20.9s-28.5,7-28.5,7l5.8,9.2
	c0,0,5.4-6.1,14.8-6.1c9.4,0,12.3,7.6,12.3,7.6s0.1,1.3-0.1,1.2c-22.7,0.4-38,11.6-38,22.1S166.4,118,176,118s22.2-8.5,22.2-8.5v6.7
	L222.3,116.2L222.3,116.2z M189.8,105.9c-12,5-16.7-20.2,9.5-25.3C199.3,80.6,201.8,100.9,189.8,105.9z"/>
<path class="st0" d="M415.7,114.5l-2.3-8.5c-11.4,3.1-15.1-3.1-16.1-5.7c-0.1-1.5-0.1-3.7-0.1-6.8V66.3H413v-7.7h-15.8V41.7
	L376,44.8v13.7h-7.3v7.7h7.3v29.2c0,5.6,0.2,9.3,0.5,11.1c0.4,2.6,1.2,4.6,2.2,6.2c1.1,1.5,2.7,2.8,5,3.7c1.5,0.6,5.4,1.1,8.7,1.3
	C405.2,119,415.7,114.5,415.7,114.5z"/>
</svg>
