<?xml version="1.0" encoding="utf-8"?>
<!-- Generator: Adobe Illustrator 15.0.0, SVG Export Plug-In . SVG Version: 6.00 Build 0)  -->
<!DOCTYPE svg PUBLIC "-//W3C//DTD SVG 1.1//EN" "http://www.w3.org/Graphics/SVG/1.1/DTD/svg11.dtd">
<svg version="1.1" id="Calque_1" xmlns="http://www.w3.org/2000/svg" xmlns:xlink="http://www.w3.org/1999/xlink" x="0px" y="0px"
	 width="500px" height="500px" viewBox="0 0 500 500" enable-background="new 0 0 500 500" xml:space="preserve">
<g>
	<path fill="#0D0909" d="M112.13,294.499H87.146l-5.396-18.743H52.852l-7.407,18.743H26.221l34.959-82.503h19.159L112.13,294.499z
		 M75.935,261.856l-8.328-30.614l-9.189,30.614H75.935z"/>
	<path fill="#0D0909" d="M230.961,294.499v-86.988h20.945v86.988H230.961z"/>
	<path fill="#0D0909" d="M327.33,294.499h-21.501v-8.779c-2.558,3.414-5.57,5.951-9.049,7.623
		c-3.479,1.666-6.982,2.507-10.525,2.507c-7.192,0-13.354-2.768-18.479-8.303c-5.13-5.53-7.692-13.253-7.692-23.157
		c0-10.13,2.492-17.83,7.482-23.101c4.995-5.27,11.301-7.91,18.924-7.91c6.996,0,13.053,2.78,18.162,8.331v-34.854h22.678V294.499z
		 M280.289,263.318c0,6.376,0.881,10.996,2.647,13.844c2.548,4.129,6.111,6.19,10.69,6.19c3.639,0,6.731-1.546,9.284-4.645
		c2.553-3.093,3.829-7.718,3.829-13.873c0-6.862-1.236-11.807-3.714-14.825s-5.65-4.532-9.515-4.532
		c-3.748,0-6.892,1.494-9.424,4.477C281.555,252.938,280.289,257.393,280.289,263.318z"/>
	<path fill="#0D0909" d="M337.656,294.499V234.73h22.862v59.769H337.656z M361.068,218.602c0,6.486-5.26,11.747-11.746,11.747
		s-11.746-5.26-11.746-11.747s5.26-11.747,11.746-11.747S361.068,212.116,361.068,218.602z"/>
	<path fill="#0D0909" d="M470.615,278.688l5.23,9.044c-4.75,2.902-12.492,6.937-28.402,6.937c-12.758,0-31.496-7.737-31.496-29.624
		c0-9.529,2.808-16.992,8.438-22.387c5.63-5.393,12.742-8.096,21.355-8.096c9.664,0,17.282,2.828,22.872,8.476
		c5.591,5.65,8.259,12.217,8.019,23.878l-39.214-0.005c0.12,4.52,1.441,10.164,4.159,12.622
		C452.738,289.574,470.615,278.688,470.615,278.688z M458.948,259.494c-0.11-5.686-1.227-10.004-3.349-12.962
		c-2.132-2.96-4.719-4.442-7.772-4.442c-3.263,0-5.956,1.564-8.083,4.682c-2.127,3.123-3.178,7.368-3.143,12.722H458.948z"/>
	<path fill="#0D0909" d="M138.075,249.134v-13.611h-22.262v58.936h22.262v-31.351c2.252-5.271,8.223-14.755,20.82-9.169
		c5.285-13.611,6.406-15.693,6.406-15.693S149.817,223.93,138.075,249.134z"/>
	<path fill="#0D0909" d="M222.268,294.193l-1.817-4.164c0,0,0-23.703,0-34.379c0-10.672-6.832-20.928-25.52-20.928
		s-28.508,7.047-28.508,7.047l5.766,9.182c0,0,5.445-6.083,14.845-6.083c9.389,0,12.271,7.58,12.271,7.58s0.061,1.332-0.1,1.172
		c-22.742,0.425-38.012,11.641-38.012,22.102c0,10.46,5.125,20.289,14.734,20.289s22.207-8.543,22.207-8.543v6.727H222.268z
		 M189.806,283.943c-11.957,5.02-16.656-20.18,9.504-25.305C199.31,258.639,201.762,278.924,189.806,283.943z"/>
	<path fill="#0D0909" d="M415.737,292.481l-2.348-8.538c-11.391,3.062-15.06-3.078-16.086-5.711
		c-0.085-1.451-0.135-3.658-0.135-6.807v-27.201h15.79v-7.688h-15.79v-16.869l-21.206,3.188v13.681H368.7v7.688h7.262v29.168
		c0,5.591,0.171,9.305,0.506,11.142c0.415,2.593,1.156,4.645,2.228,6.166c1.065,1.521,2.742,2.758,5.034,3.708
		c1.502,0.631,5.421,1.052,8.749,1.267C405.237,297.057,415.737,292.481,415.737,292.481z"/>
</g>
</svg>
