<?xml version="1.0" encoding="utf-8"?>
<!-- Generator: Adobe Illustrator 19.1.0, SVG Export Plug-In . SVG Version: 6.00 Build 0)  -->
<svg version="1.1" id="Calque_2" xmlns="http://www.w3.org/2000/svg" xmlns:xlink="http://www.w3.org/1999/xlink" x="0px" y="0px"
	 viewBox="0 0 500 500" style="enable-background:new 0 0 500 500;" xml:space="preserve">
<style type="text/css">
	.st0{fill:#00448A;}
	.st1{fill:#B70642;}
	.st2{fill:none;stroke:#E2007A;stroke-width:0.4666;stroke-miterlimit:10;}
</style>
<g>
	<path class="st0" d="M113.4,308c22.6-9.6,38.5-31.9,38.5-58.1c0-17.7-7.3-33.7-19-45.1l-0.7-0.7c0,0-5.5-6.6-9.7-0.3l-57.2,98.8
		c0,0-1.2,5.4,2.1,6.5c3.3,1.1,8.7,3,14.4,3.4c4.7,0.4,7.1-6.2,9.1-9.9s29.6-51.8,29.6-51.8s2.6-6.5,6.9-6.5s3.4,5.5,3.4,6.8
		c0,1.2-1.7,16-8,28c-6.4,12.1-14.8,22.3-14.8,22.3s-3.5,3.7-1.3,6s5.1,1.3,6.6,0.7L113.4,308z"/>
	<path class="st1" d="M63.5,192C40.9,201.6,25,224,25,250.1c0,17.7,7.3,33.7,19,45.1l0.7,0.7c0,0,5.5,6.6,9.7,0.3l57.2-98.8
		c0,0,1.2-5.4-2.1-6.5c-3.3-1.1-8.7-3-14.4-3.4c-4.7-0.4-7.1,6.2-9.1,9.9c-2,3.6-29.6,51.8-29.6,51.8s-2.6,6.5-6.9,6.5
		s-3.4-5.5-3.4-6.8c0-1.2,1.7-16,8-28c6.4-12.1,14.8-22.3,14.8-22.3s3.5-3.7,1.3-6s-5.1-1.3-6.6-0.7L63.5,192z"/>
	<path class="st2" d="M132.1,303.3"/>
	<path class="st0" d="M262.2,282.9v-59c0,0-1.5-12,37.1-12c0,0,4.3-0.4,4.3,3.8s0,9.4,0,9.4s0,3-5.2,3c-5.2,0-14.8,0-14.8,2.6
		s0,52.2,0,52.2s0.7,3.7-3.2,3.7c-4,0-14.9,0-14.9,0S262.2,286.9,262.2,282.9z"/>
	<path class="st0" d="M350.4,226.2c0,0-18.7-4.5-18.7,22.6c0,27,14.9,24.7,18.7,24.7s12.4-1.5,13.4-1.9s4.7-1.9,5.5,1.9
		c0.7,3.8,1.4,7.1,1.4,7.1s1.6,2.6-3.1,4.1s-11.9,2.9-22.2,2.9s-35.3,1.7-35.3-37.7c0-39.3,26.5-38.1,34.8-38.1s23.4,3.4,23.4,3.4
		s2.7,0.6,1.9,5.2s-0.6,8.6-5.2,7.8C360.3,227.4,350.4,226.2,350.4,226.2z"/>
	<path class="st0" d="M422.9,211.8h-14.4c-15.5,0-28.1,12.7-28.1,28.1v20.3c0,15.5,12.7,28.1,28.1,28.1h14.4
		c15.5,0,28.1-12.7,28.1-28.1v-20.3C451.1,224.4,438.4,211.8,422.9,211.8z M429.4,260c0,7.6-6.1,13.8-13.6,13.8s-13.6-6.2-13.6-13.8
		v-20c0-7.6,6.1-13.8,13.6-13.8s13.6,6.2,13.6,13.8V260z"/>
	<path class="st0" d="M245.1,274.8c0,0,0-23.6,0-41.4s-15.4-21.6-28.4-21.6s-25.5,2.6-30.8,4.3s-3.2,5.2-3.2,5.2s0.2,2,1.1,6.1
		c0.9,4.1,4.1,2.6,4.1,2.6s10.8-3.7,23.7-3.7s11.9,7.2,11.9,7.2v5.7c0,0-8.9,1.4-26.2,4.3c-17.2,3-19.2,14.5-19.2,20.1
		c0,5.6-2.2,24.9,34,24.9S245.1,274.8,245.1,274.8z M223.6,273.2c0,0-3.2,1.6-10.7,1.6c-7.4,0-14-1.1-14-11
		c0-9.9,10.3-8.8,24.7-12.3V273.2z"/>
	<g>
		<g>
			<path class="st0" d="M464.9,204.3c1.7,0,3.4,0.4,5,1.3c1.6,0.9,2.9,2.1,3.8,3.7c0.9,1.6,1.4,3.3,1.4,5.1c0,1.8-0.4,3.4-1.3,5
				c-0.9,1.6-2.1,2.8-3.7,3.7c-1.6,0.9-3.3,1.3-5,1.3s-3.4-0.4-5-1.3c-1.6-0.9-2.8-2.1-3.7-3.7c-0.9-1.6-1.3-3.3-1.3-5
				c0-1.8,0.5-3.5,1.4-5.1s2.2-2.9,3.8-3.7C461.5,204.8,463.1,204.3,464.9,204.3z M464.9,206.3c-1.4,0-2.7,0.3-4,1
				c-1.3,0.7-2.3,1.7-3,3c-0.7,1.3-1.1,2.7-1.1,4.1c0,1.4,0.4,2.8,1.1,4.1c0.7,1.3,1.7,2.3,3,3c1.3,0.7,2.6,1.1,4,1.1
				c1.4,0,2.8-0.4,4.1-1.1c1.3-0.7,2.3-1.7,3-3s1.1-2.6,1.1-4.1c0-1.4-0.4-2.8-1.1-4.1c-0.7-1.3-1.7-2.3-3-3
				S466.3,206.3,464.9,206.3z M460.3,219.9v-10.8h2.2c2,0,3.2,0,3.4,0c0.7,0.1,1.3,0.2,1.7,0.4s0.7,0.6,1,1c0.3,0.5,0.4,1,0.4,1.5
				c0,0.8-0.3,1.4-0.8,2c-0.5,0.6-1.2,0.9-2.1,1c0.3,0.1,0.6,0.3,0.8,0.4c0.2,0.1,0.4,0.4,0.7,0.8c0.1,0.1,0.3,0.5,0.8,1.3l1.3,2.2
				H467l-0.9-1.7c-0.6-1.2-1.1-1.9-1.5-2.2c-0.4-0.3-0.9-0.5-1.5-0.5h-0.6v4.4H460.3z M462.5,213.8h0.9c1.3,0,2,0,2.3-0.1
				c0.3-0.1,0.5-0.3,0.7-0.5s0.3-0.5,0.3-0.8c0-0.3-0.1-0.6-0.3-0.8c-0.2-0.2-0.4-0.4-0.7-0.5c-0.3-0.1-1.1-0.2-2.3-0.2h-0.9
				L462.5,213.8L462.5,213.8z"/>
		</g>
	</g>
</g>
</svg>
