<?xml version="1.0" encoding="utf-8"?>
<!-- Generator: Adobe Illustrator 16.0.0, SVG Export Plug-In . SVG Version: 6.00 Build 0)  -->
<!DOCTYPE svg PUBLIC "-//W3C//DTD SVG 1.1//EN" "http://www.w3.org/Graphics/SVG/1.1/DTD/svg11.dtd">
<svg version="1.1" xmlns="http://www.w3.org/2000/svg" xmlns:xlink="http://www.w3.org/1999/xlink" x="0px" y="0px" width="500px"
	 height="500px" viewBox="0 0 500 500" enable-background="new 0 0 500 500" xml:space="preserve">
<g id="Calque_1">
	<g>
		<g>
			<path fill="#0071B2" d="M269.775,301.493c-1.71,0-2.943-0.378-3.668-1.127c-0.74-0.762-1.114-2.085-1.114-3.931v-58.147
				c0-10.206-3.831-18.292-11.387-24.033c-7.424-5.641-17.892-8.501-31.113-8.501c-14.464,0-25.691,2.959-33.365,8.794
				c-7.755,5.901-12.297,15.051-13.506,27.202l-0.175,1.758h20.724l0.144-1.439c0.621-6.181,2.863-10.874,6.668-13.939
				c3.856-3.113,9.494-4.689,16.759-4.689c7.652,0,13.605,1.361,17.695,4.046c3.934,2.582,5.848,6.113,5.848,10.802v3.035
				c0,2.048-0.596,3.765-1.82,5.245c-1.239,1.492-2.847,2.435-4.936,2.885c-2.844,0.637-5.988,1.155-9.328,1.539l-22.772,2.448
				c-10.831,1.211-19.316,4.823-25.22,10.736c-5.954,5.96-8.973,13.918-8.973,23.646c0,9.453,3.45,17.189,10.252,22.993
				c6.728,5.745,15.642,8.657,26.494,8.657c13.5,0,25.123-4.012,34.554-11.929c1.314-1.105,2.535-2.251,3.653-3.419
				c0.893,3.797,2.157,6.719,3.853,8.907c3.222,3.818,8.682,5.754,16.228,5.754c1.299,0,2.916-0.203,4.948-0.618
				c1.951-0.399,3.953-0.942,5.948-1.617l1.086-0.368v-15.903l-1.898,0.361C271.455,301.383,270.184,301.493,269.775,301.493z
				 M210.735,301.886c-5.492,0-9.912-1.445-13.137-4.299c-3.216-2.841-4.777-6.547-4.777-11.333c0-5.058,1.586-8.686,4.855-11.096
				c3.425-2.529,9.525-4.355,18.129-5.429l14.542-1.765c4.702-0.671,9.041-1.729,12.938-3.153v9.891c0,1.689-0.082,3.351-0.25,5.005
				c-0.078,1.482-0.193,2.585-0.334,3.237c-1.071,4.496-3.98,8.501-8.654,11.914C227.772,299.523,219.929,301.886,210.735,301.886z"
				/>
			<path fill="#0071B2" d="M334.523,205.55c-12.173,0-22.392,4.905-30.396,14.608c-0.861,1.086-1.698,2.22-2.51,3.391v-14.942
				h-22.304v108.692h23.54v-60.854c0-9.011,2.875-16.157,8.542-21.239c5.72-5.126,13.78-7.727,23.846-7.73l6.106,0.412v-21.807
				l-1.349-0.215C338.256,205.591,336.177,205.485,334.523,205.55z"/>
			<rect x="344.918" y="206.743" fill="#0071B2" width="23.54" height="111.889"/>
			<rect x="344.782" y="180.094" fill="#0071B2" width="23.952" height="17.312"/>
			<path fill="#0071B2" d="M453.477,278.946c-1.567,7.648-4.617,13.615-9.063,17.732c-4.455,4.128-9.856,6.132-16.51,6.132
				c-9.528,0-16.725-3.222-21.994-9.847c-5.286-6.644-7.965-16.162-7.965-28.288c0-11.938,2.795-21.611,8.302-28.748
				c5.488-7.115,12.572-10.571,21.657-10.571c7.353,0,13.244,1.904,17.512,5.664c4.258,3.752,6.787,9.194,7.521,16.175l0.15,1.43
				H475l-0.185-1.764c-1.333-12.772-5.991-22.803-13.836-29.815c-7.846-7.009-18.448-10.562-31.517-10.562
				c-16.397,0-29.85,5.392-39.987,16.025c-10.115,10.612-15.245,24.732-15.245,41.969c0,17.159,4.662,31.002,13.855,41.151
				c9.232,10.193,21.755,15.363,37.221,15.363c14.259,0,25.854-3.64,34.464-10.82c8.648-7.215,13.709-17.559,15.045-30.743
				l0.182-1.761H453.74L453.477,278.946z"/>
		</g>
		<rect x="25" y="179.007" fill-rule="evenodd" clip-rule="evenodd" fill="#0071B2" width="124.48" height="2.27"/>
		<rect x="25" y="185.204" fill-rule="evenodd" clip-rule="evenodd" fill="#0071B2" width="124.48" height="1.065"/>
		<polygon fill-rule="evenodd" clip-rule="evenodd" fill="#0071B2" points="149.413,198.826 25,198.826 25,196.293 41.116,196.293 
			44.513,197.892 126.834,197.892 131.83,196.293 149.213,196.293 		"/>
		<polygon fill-rule="evenodd" clip-rule="evenodd" fill="#0071B2" points="149.413,192.167 25,192.167 25,189.634 41.116,189.634 
			44.513,191.233 126.834,191.233 131.83,189.634 149.213,189.634 		"/>
		<g>
			<path fill-rule="evenodd" clip-rule="evenodd" fill="#0071B2" d="M45.065,209.578c-3.762-0.562-6.131-1.352-6.131-2.229
				c0-1.389,5.954-2.569,14.027-2.941c-4.73-0.553-7.849-1.477-7.849-2.516c0-0.219,0.144-0.431,0.403-0.637H25.328v119.32h4.333
				v-49.003v-5.064v-5.063v-5.064v-5.063v-5.064v-5.064v-5.063v-5.064c0-1.03,2.729-1.92,6.6-2.313
				c-4.053-0.559-6.6-1.346-6.6-2.217c0-1.062,3.793-2.004,9.513-2.554c-4.059-0.559-6.625-1.358-6.625-2.242
				c0-1.042,3.575-1.973,8.995-2.525c-4.09-0.562-6.688-1.371-6.688-2.27c0-1.002,3.238-1.895,8.189-2.454
				c-4.346-0.565-7.125-1.405-7.125-2.342C35.921,211.073,39.577,210.124,45.065,209.578z"/>
			<path fill-rule="evenodd" clip-rule="evenodd" fill="#0071B2" d="M130.762,201.254c0.262,0.206,0.403,0.418,0.403,0.637
				c0,1.04-3.116,1.963-7.846,2.516c8.073,0.372,14.024,1.552,14.024,2.941c0,0.877-2.37,1.667-6.128,2.229
				c5.485,0.546,9.141,1.496,9.141,2.566c0,0.937-2.775,1.776-7.121,2.342c4.952,0.559,8.186,1.452,8.186,2.454
				c0,0.899-2.595,1.708-6.685,2.27c5.417,0.552,8.992,1.483,8.992,2.525c0,0.884-2.563,1.683-6.622,2.242
				c5.716,0.549,9.51,1.492,9.51,2.554c0,0.94-2.954,1.783-7.571,2.345c3.309,0.44,5.573,1.252,5.573,2.186v89.514h5.001v-119.32
				H130.762z"/>
			<path fill-rule="evenodd" clip-rule="evenodd" fill="#0071B2" d="M124.611,248.784L124.611,248.784
				c-5.323,0-9.675-1.14-9.675-2.532c0-1.392,4.352-2.532,9.675-2.532H120.3c-5.763,0-10.478-1.14-10.478-2.532
				c0-1.392,4.714-2.532,10.478-2.532h-3.275c-6.072,0-11.04-1.14-11.04-2.532c0-1.393,4.967-2.532,11.04-2.532
				c-6.072,0-11.04-1.14-11.04-2.532c0-0.546,0.784-1.049,2.076-1.464h-3.931c2.388,0,4.564-0.362,6.194-0.946
				c-1.479-0.368-3.25-0.583-5.148-0.583H72.074c-1.901,0-3.671,0.215-5.151,0.583c1.633,0.584,3.806,0.946,6.194,0.946h-6.899
				c1.295,0.415,2.076,0.918,2.076,1.464c0,1.392-4.967,2.532-11.04,2.532c6.072,0,11.04,1.14,11.04,2.532
				c0,1.392-4.967,2.532-11.04,2.532h-3.272c5.76,0,10.475,1.14,10.475,2.532c0,1.393-4.714,2.532-10.475,2.532H49.67
				c5.32,0,9.675,1.14,9.675,2.532c0,1.393-4.355,2.532-9.675,2.532h-0.003c5.323,0,9.678,1.139,9.678,2.532
				s-4.355,2.532-9.678,2.532c5.323,0,9.678,1.14,9.678,2.531c0,1.393-4.355,2.532-9.678,2.532h1.074
				c5.432,0,9.881,1.14,9.881,2.532s-4.449,2.532-9.881,2.532h2.198c5.66,0,10.29,1.14,10.29,2.531c0,1.393-4.63,2.532-10.29,2.532
				h4.314c6.072,0,11.04,1.14,11.04,2.532s-4.967,2.532-11.04,2.532h1.371c6.197,0,11.264,1.139,11.264,2.531
				c0,0.771-1.589,1.458-4.034,1.924h42.572c-2.444-0.466-4.037-1.152-4.037-1.924c0-1.393,5.07-2.531,11.264-2.531h1.371
				c-6.072,0-11.04-1.14-11.04-2.532s4.967-2.532,11.04-2.532h4.314c-5.66,0-10.29-1.14-10.29-2.532c0-1.392,4.63-2.531,10.29-2.531
				h2.201c-5.436,0-9.881-1.14-9.881-2.532s4.446-2.532,9.881-2.532h1.071c-5.323,0-9.675-1.14-9.675-2.532
				c0-1.392,4.352-2.531,9.675-2.531c-5.323,0-9.675-1.14-9.675-2.532S119.288,248.784,124.611,248.784z"/>
			<path fill-rule="evenodd" clip-rule="evenodd" fill="#0071B2" d="M94.291,218.601c0.939,0,1.801-0.313,2.473-0.831
				c-0.646-0.434-1.446-0.696-2.308-0.696H81.708c-0.861,0-1.658,0.262-2.304,0.696c0.668,0.518,1.53,0.831,2.469,0.831H94.291z"/>
			<path fill-rule="evenodd" clip-rule="evenodd" fill="#0071B2" d="M100.872,224.098c2.001,0,3.824-0.347,5.208-0.912
				c-1.28-0.387-2.822-0.615-4.483-0.615H74.569c-1.658,0-3.204,0.228-4.483,0.615c1.386,0.565,3.209,0.912,5.208,0.912H100.872z"/>
			<path fill-rule="evenodd" clip-rule="evenodd" fill="#0071B2" d="M81.874,286.126c-0.939,0-1.801,0.313-2.469,0.83
				c0.646,0.435,1.442,0.696,2.304,0.696h12.747c0.862,0,1.661-0.262,2.308-0.696c-0.671-0.518-1.533-0.83-2.473-0.83H81.874z"/>
			<path fill-rule="evenodd" clip-rule="evenodd" fill="#0071B2" d="M55.777,305.935c0.646,0.435,1.442,0.696,2.307,0.696h12.747
				c0.862,0,1.658-0.262,2.304-0.696c-0.668-0.518-1.533-0.83-2.47-0.83H58.25C57.31,305.105,56.449,305.417,55.777,305.935z"/>
			<path fill-rule="evenodd" clip-rule="evenodd" fill="#0071B2" d="M104.812,305.105c-0.94,0-1.801,0.313-2.473,0.83
				c0.646,0.435,1.442,0.696,2.307,0.696h12.747c0.862,0,1.658-0.262,2.304-0.696c-0.668-0.518-1.533-0.83-2.47-0.83H104.812z"/>
			<path fill-rule="evenodd" clip-rule="evenodd" fill="#0071B2" d="M100.616,309.917c-1.205,0-2.311,0.399-3.169,1.064
				c0.831,0.556,1.848,0.893,2.957,0.893h16.34c1.102,0,2.126-0.337,2.954-0.893c-0.858-0.665-1.964-1.064-3.166-1.064H100.616z"/>
			<path fill-rule="evenodd" clip-rule="evenodd" fill="#0071B2" d="M58.946,309.917c-1.205,0-2.31,0.399-3.168,1.064
				c0.831,0.556,1.848,0.893,2.957,0.893h16.34c1.102,0,2.126-0.337,2.954-0.893c-0.858-0.665-1.964-1.064-3.166-1.064H58.946z"/>
			<path fill-rule="evenodd" clip-rule="evenodd" fill="#0071B2" d="M58.946,314.052c-1.205,0-2.31,0.4-3.168,1.065
				c0.831,0.556,1.848,0.893,2.957,0.893h16.34c1.102,0,2.126-0.337,2.954-0.893c-0.858-0.665-1.964-1.065-3.166-1.065H58.946z"/>
			<path fill-rule="evenodd" clip-rule="evenodd" fill="#0071B2" d="M57.513,317.322c-0.659,0-1.265,0.399-1.736,1.064
				c0.456,0.556,1.015,0.893,1.62,0.893h8.951c0.603,0,1.165-0.337,1.617-0.893c-0.468-0.665-1.077-1.064-1.732-1.064H57.513z"/>
			<path fill-rule="evenodd" clip-rule="evenodd" fill="#0071B2" d="M100.616,314.052c-1.202,0-2.311,0.4-3.169,1.065
				c0.831,0.556,1.851,0.893,2.957,0.893h16.34c1.105,0,2.126-0.337,2.954-0.893c-0.858-0.665-1.96-1.065-3.166-1.065H100.616z"/>
			<path fill-rule="evenodd" clip-rule="evenodd" fill="#0071B2" d="M109.245,317.322c-0.659,0-1.264,0.399-1.736,1.064
				c0.456,0.556,1.015,0.893,1.621,0.893h8.951c0.605,0,1.165-0.337,1.617-0.893c-0.468-0.665-1.074-1.064-1.733-1.064H109.245z"/>
			<path fill-rule="evenodd" clip-rule="evenodd" fill="#0071B2" d="M101.596,282.155c1.661,0,3.203-0.228,4.483-0.614
				c-1.383-0.565-3.207-0.912-5.208-0.912H75.293c-1.998,0-3.821,0.347-5.208,0.912c1.28,0.387,2.825,0.614,4.483,0.614H101.596z"/>
		</g>
	</g>
</g>
<g id="Calque_2">
</g>
</svg>
