<?xml version="1.0" encoding="utf-8"?>
<!-- Generator: Adobe Illustrator 21.0.2, SVG Export Plug-In . SVG Version: 6.00 Build 0)  -->
<svg version="1.1" id="Calque_1" xmlns="http://www.w3.org/2000/svg" xmlns:xlink="http://www.w3.org/1999/xlink" x="0px" y="0px"
	 viewBox="0 0 500 124" style="enable-background:new 0 0 500 124;" xml:space="preserve">
<style type="text/css">
	.st0{fill-rule:evenodd;clip-rule:evenodd;fill:#E20613;}
	.st1{fill:#E20613;}
</style>
<path class="st0" d="M300.1,77.3h-39.2l-1.1,5.3c0,0-1.3,2.2,0.5,3.5c1.2,0.9,3.8,0.7,3.8,0.7h40l-2.3,9.9h-49.7
	c-8.5,0-12.7-3.7-12.7-11.2c0-1.6,0.2-3.4,0.6-5.3l3.4-16.8c1-5.1,3-9,6.7-12.1c3.7-3.2,8-4.9,13-4.9h30.5c7,0,10.6,3.6,10.6,10.8
	c0,0.7-0.1,1.8-0.2,2.9c-0.1,1.4-0.4,2.2-0.6,3.5L300.1,77.3L300.1,77.3z M282.9,64l0.9-3.7c0,0,0.7-2.3-0.3-3
	c-0.6-0.4-1.8-0.5-1.8-0.5h-11.9c0,0-1.7,0.1-2.7,0.5c-1.3,0.5-2,3-2,3l-0.9,3.7H282.9L282.9,64z"/>
<path class="st0" d="M185.3,56.9c-7.3,0-10.2,8.5-10.2,8.5l-7.3,31.3h-22.6l9.2-40.1c0,0,1-5.1,6.1-7.8c4.7-2.4,11-2.4,17.1-2.4
	l-1.8,7.1c1.1-1.4,3.1-3.3,5.6-4.7c4.4-2.5,7.6-2.4,12.8-2.4h5.9c0,0-2.2,8.6-2.5,10.5C197.7,56.9,195.4,56.9,185.3,56.9L185.3,56.9
	z"/>
<polygon class="st1" points="199.6,96.6 221.2,96.6 232.9,46.3 211.4,46.3 "/>
<polygon class="st1" points="216.3,26.2 214.2,36 235.6,36 237.7,26.2 "/>
<path class="st0" d="M363.2,96.6h-34c-4.3,0-7.4-0.8-9.2-2.4c-1.8-1.6-2.7-4.2-2.7-7.6c0-2,0.3-4.6,1-8l5.2-23.8h-7.6l2-8.4h7.7
	l2.1-8.2h22.1l-1.5,8.2h21.7l-2.1,8.4h-22l-6.2,27.8c0,0-0.5,2.3,0.5,2.9c2.1,1.2,5.1,0.9,5.1,0.9h20.4L363.2,96.6L363.2,96.6z"/>
<path class="st0" d="M435.9,77.3h-39.2l-1.1,5.3c0,0-1.3,2.2,0.5,3.5c1.2,0.9,3.8,0.7,3.8,0.7h81l-2.3,9.9H388
	c-8.5,0-12.7-3.7-12.7-11.2c0-1.6,0.2-3.4,0.6-5.3l3.4-16.8c1-5.1,3-9,6.7-12.1c3.7-3.2,8-4.9,13-4.9h30.5c7,0,10.6,3.6,10.6,10.8
	c0,0.7-0.1,1.8-0.2,2.9c-0.1,1.4-0.4,2.2-0.6,3.5L435.9,77.3L435.9,77.3z M418.7,64l0.9-3.7c0,0,0.7-2.3-0.3-3
	c-0.6-0.4-1.8-0.5-1.8-0.5h-11.9c0,0-1.7,0.1-2.7,0.5c-1.3,0.5-2,3-2,3l-0.9,3.7H418.7L418.7,64z"/>
<path class="st0" d="M130.1,96.6h-26.3l6.6-26.9H89.4l-6.6,26.9H56.4l6.8-28.2H17.8l3.4-11.5l44.8,0l3.5-14.4
	c1-4.3,3.3-7.6,6.9-10.1c3.6-2.5,8-3.7,13.3-3.7h39.7c4.5,0,8,0.9,10.5,2.6c2.5,1.7,3.7,4.2,3.7,7.7l-0.4,3.5L130.1,96.6L130.1,96.6
	z M114.1,56.9l2.5-10.7c0,0,0.9-2.4-0.8-4.2c-0.9-1-2.2-1.8-3.8-1.6l-10.2,0.1c-1.6,0-3,0.6-3.9,1.2c-1.8,1.1-2.6,4.2-2.6,4.2
	l-2.5,11H114.1L114.1,56.9z"/>
<path class="st1" d="M453.9,46c-0.5-1-1.3-1.7-2.2-2.2c-1-0.5-1.9-0.8-2.9-0.8c-1,0-2,0.3-2.9,0.8c-1,0.5-1.7,1.2-2.2,2.2
	c-0.5,1-0.8,2-0.8,3c0,1,0.3,2,0.8,3c0.5,0.9,1.3,1.7,2.2,2.2c0.9,0.5,1.9,0.8,3,0.8c1,0,2-0.3,3-0.8c0.9-0.5,1.7-1.3,2.2-2.2
	c0.5-0.9,0.8-1.9,0.8-3C454.7,47.9,454.4,46.9,453.9,46z M453.1,51.4c-0.4,0.8-1.1,1.4-1.8,1.8c-0.8,0.4-1.6,0.7-2.5,0.7
	c-0.9,0-1.7-0.2-2.5-0.7c-0.8-0.4-1.4-1.1-1.9-1.8c-0.4-0.8-0.7-1.6-0.7-2.5c0-0.9,0.2-1.7,0.7-2.5c0.4-0.8,1.1-1.4,1.9-1.8
	c0.8-0.4,1.6-0.6,2.5-0.6c0.8,0,1.6,0.2,2.4,0.6c0.8,0.4,1.4,1,1.9,1.8c0.4,0.8,0.7,1.6,0.7,2.5C453.7,49.8,453.5,50.6,453.1,51.4z"
	/>
<path class="st1" d="M449.8,49.7c-0.1-0.1-0.3-0.2-0.5-0.3c0.6,0,1-0.2,1.3-0.6c0.3-0.3,0.5-0.8,0.5-1.2c0-0.3-0.1-0.6-0.3-0.9
	c-0.2-0.3-0.5-0.5-0.8-0.6c-0.3-0.1-0.9-0.2-1.6-0.2h-2.2v6.4h1v-2.7h0.6c0.4,0,0.6,0.1,0.8,0.2c0.3,0.2,0.6,0.7,1.1,1.5l0.6,1h1.3
	l-0.8-1.3C450.4,50.4,450,50,449.8,49.7z M448.4,48.6h-1.3v-1.9h1.2c0.5,0,0.9,0,1,0.1c0.2,0.1,0.3,0.2,0.4,0.3
	c0.1,0.1,0.2,0.3,0.2,0.5c0,0.3-0.1,0.5-0.3,0.7C449.4,48.5,449,48.6,448.4,48.6z"/>
</svg>
