<?xml version="1.0" encoding="utf-8"?>
<!-- Generator: Adobe Illustrator 21.0.2, SVG Export Plug-In . SVG Version: 6.00 Build 0)  -->
<svg version="1.1" id="Calque_2" xmlns="http://www.w3.org/2000/svg" xmlns:xlink="http://www.w3.org/1999/xlink" x="0px" y="0px"
	 viewBox="0 0 483 106" style="enable-background:new 0 0 483 106;" xml:space="preserve">
<style type="text/css">
	.st0{fill:#576468;}
	.st1{fill:#7AB51D;}
</style>
<path class="st0" d="M100.7,83.1c-1.9,2.2-5.6,7.4-13.8,7.4c-8.3,0-14.3-5.9-14.3-12.1c0-14.8,21.3-16,28.1-16.2v-5.4
	c0-6.6,0-14-6.7-14c-7.1,0-7.5,6.1-7.5,10.7H73.7c1.2-6.9,4.7-14.3,20.1-14.3c15.2,0,17.5,7.7,17.5,18.1v32h-10.7
	C100.7,89.3,100.7,83.1,100.7,83.1z M100.7,65.9c-3.8,0.1-16.3,0.6-16.3,10.6c0,4.8,2.5,8.2,6.4,8.2c6.2,0,9.9-5.6,9.9-12.7V65.9z"
	/>
<path class="st0" d="M132,54c0-7.4-1.7-9.2-8.4-9.4v-2.1l19.1-3.4V53h0.2c1.5-4.8,4.8-13.9,13.4-13.9c1.9,0,4,0.2,5.8,0.5v10
	c-1.7-0.5-3.6-1.3-5.4-1.3c-10.8,0-13.9,8.3-13.9,15.7v25.2h-10.7L132,54L132,54z"/>
<path class="st0" d="M176,54c0-7.4-1.7-9.2-8.2-9.4v-2.1l19.1-3.4v12.5h0.2c1.8-3.7,6.7-12.5,16.3-12.5c9.9,0,12.4,7.1,13.1,11.8
	h0.2c2.2-4.1,6.3-11.8,15.9-11.8c13.6,0,13.6,12.2,13.6,19.7v30.4h-10.7V60.5c0-6.5,0-14.2-7.2-14.2c-8.1,0-12,11.1-12,18.6v24.3
	h-10.7V62c0-8.3,0-15.7-7.2-15.7c-7.4,0-12,9.8-12,17.3v25.7h-10.7L176,54L176,54z"/>
<path class="st0" d="M289.7,83.1c-1.9,2.2-5.6,7.4-13.8,7.4c-8.3,0-14.3-5.9-14.3-12.1c0-14.8,21.3-16,28.1-16.2v-5.4
	c0-6.6,0-14-6.7-14c-7.1,0-7.5,6.1-7.5,10.7h-12.7c1.2-6.9,4.7-14.3,20.1-14.3c15.2,0,17.5,7.7,17.5,18.1v32h-10.7V83.1L289.7,83.1z
	 M289.7,65.9c-3.8,0.1-16.3,0.6-16.3,10.6c0,4.8,2.5,8.2,6.4,8.2c6.2,0,9.9-5.6,9.9-12.7V65.9z"/>
<path class="st1" d="M355.2,87.9c-3.8,1.4-6.3,2.5-15.2,2.5c-15,0-23.8-10.4-23.8-26.3c0-14.4,6-25,21.3-25
	c11.9,0,19.7,5.9,19.7,14.4h-12.7c0-4.3-1.1-10.8-7.7-10.8c-7.3,0-8.9,7.8-8.9,17.9c0,15.6,7.3,24.1,17,24.1c3.3,0,7.7-0.6,10.3-1.5
	L355.2,87.9L355.2,87.9z"/>
<path class="st0" d="M407.2,87.6c-2,0.7-7.7,2.8-15.1,2.8c-16.3,0-26.2-9.8-26.2-27.4c0-16.6,8.1-23.9,22.4-23.9
	c18.3,0,19.8,13.1,19.8,20.1h-30.4c0,10.5,4.4,25.5,19.4,25.5c4.5,0,8.2-1.1,10-1.8L407.2,87.6L407.2,87.6z M397.5,55.1
	c0-2.4-0.2-12.3-9.5-12.3c-8,0-10.3,8.3-10.3,12.3H397.5z"/>
<path class="st0" d="M423.8,29.9c0-7.5-1.8-9.3-8.1-9.6v-2.1l18.8-2.6v73.7h-10.7L423.8,29.9L423.8,29.9z"/>
<path class="st0" d="M455.8,29.9c0-7.5-1.8-9.3-8.1-9.6v-2.1l18.8-2.6v73.7h-10.7L455.8,29.9L455.8,29.9z"/>
<path class="st1" d="M47.7,24.1c0,0-0.2-0.1-0.4-0.1c-0.2-0.1-0.6-0.1-1.1-0.1s-1,0-1.6,0.1s-1.2,0.2-1.9,0.3s-1.3,0.4-1.9,0.6
	c-0.6,0.2-1.1,0.4-1.6,0.7c-0.9,0.5-1.5,0.8-1.5,0.8s0.5-0.4,1.3-1.1c0.4-0.3,0.9-0.7,1.5-1s1.2-0.7,1.8-1s1.3-0.5,1.9-0.7
	c0.6-0.2,1.3-0.3,1.8-0.4c0.6,0,1-0.1,1.4-0.1s0.5,0,0.5,0H48c0.5,0.1,0.9,0.6,0.8,1.1S48.2,24.1,47.7,24.1
	C47.8,24.1,47.7,24.1,47.7,24.1z"/>
<path class="st1" d="M35.1,26c0,0-0.4-0.3-1-0.6c-0.3-0.2-0.7-0.3-1.1-0.5c-0.4-0.1-0.9-0.3-1.3-0.4c-0.5-0.1-0.9-0.2-1.3-0.2
	c-0.4,0-0.8-0.1-1.1,0c-0.6,0.1-1.1,0.2-1.1,0.2H28c-0.5,0.1-1-0.3-1.1-0.8s0.3-1,0.8-1.1c0.1,0,0.2,0,0.2,0s0.5,0.1,1.3,0.1
	c0.4,0,0.8,0.2,1.3,0.3s0.9,0.4,1.4,0.6c0.5,0.2,0.9,0.5,1.3,0.8c0.4,0.3,0.7,0.5,1,0.8C34.8,25.6,35.1,26,35.1,26z"/>
<path class="st0" d="M39.3,17.3c-0.3,0-0.6,0-1,0c12.8,0.5,23.1,11,23.1,24c0,12.9-10.2,23.5-23.1,24c0.3,0,0.6,0,1,0
	c13.3,0,24-10.8,24-24S52.5,17.3,39.3,17.3z"/>
<path class="st0" d="M18.3,40.5c0-11.9,9.4-21.6,21.3-22.1c-0.3,0-0.6,0-0.9,0c-12.2,0-22.2,9.9-22.2,22.2s9.9,22.2,22.2,22.2
	c0.3,0,0.6,0,0.9,0C27.7,62.1,18.3,52.4,18.3,40.5z"/>
<path class="st0" d="M58.7,46.6c-0.1-0.4-0.1-1-0.2-1.5c-0.2-0.6-0.4-1.2-0.6-1.9c-0.1-0.4-0.3-0.8-0.5-1.1c0.9-1.8,1.4-3.8,1.4-5.9
	c0-0.4,0-0.8-0.1-1.2c-0.1,2.1-0.8,4-1.8,5.8c-0.3-0.7-0.8-1.4-1.2-2.1c-0.5-0.8-1.1-1.5-1.7-2.2s-1.3-1.4-2-2
	c-0.7-0.6-1.4-1.3-2.2-1.8c-0.1,0-0.1-0.1-0.2-0.1c0.4-1,0.6-2.1,0.6-3.2c0-0.3,0-0.6,0-0.8c-0.2,1.2-0.6,2.4-1.1,3.5
	c-0.5-0.4-1-0.7-1.5-1c-1.5-1-2.9-1.8-4.2-2.4c-0.8-0.4-1.5-0.7-2.1-1c-0.3-0.2-0.6-0.3-0.8-0.4c0,0,0,0.1,0,0.1
	c0.3,0.1,0.6,0.2,0.9,0.3c0,0,0,0,0,0c0.6,0.3,1.4,0.7,2.3,1.2c1.2,0.7,2.6,1.6,4,2.6c0.4,0.3,0.8,0.6,1.3,1
	c-2.2,3.7-6.6,6.3-11.9,6.3c-1.1,0-2.2-0.1-3.3-0.4c0.2-2.2,0.6-4.2,0.9-5.9c0.2-1.3,0.5-2.3,0.7-3.2c-0.3,0.8-0.6,1.9-0.9,3.1
	c-0.4,1.7-0.9,3.7-1.2,5.9c-4.7-1.2-8.3-4.7-9-8.9c0.2-0.1,0.3-0.2,0.5-0.3c0.2-0.2,0.5-0.4,0.7-0.6c0.3-0.2,0.6-0.3,0.9-0.5
	c0.3-0.2,0.6-0.3,1-0.5c0.3-0.2,0.7-0.3,1.1-0.4c0.4-0.1,0.7-0.3,1.1-0.4c0.4-0.1,0.7-0.2,1.1-0.2c0.7-0.2,1.4-0.2,2-0.2
	c0.1,0,0.2,0,0.3,0c-0.1,0.2-0.1,0.4-0.1,0.6c0,1.1,1.1,2,2.6,2.4c0.4,0.1,0.8,0.1,1.3,0.1c1.8,0,3.4-0.9,3.9-2
	c-0.1,0-0.2-0.1-0.3-0.1c0-0.1,0.1-0.3,0.1-0.4c0-1.3-1.6-2.4-3.5-2.6c0.2-0.4,0.4-1,0.7-1.5c0.3-0.6,0.6-1.2,0.9-1.6
	c0.3-0.4,0.4-0.7,0.4-0.7l0.1-0.1c0.1-0.1,0.1-0.2,0.1-0.3c0.1-0.5-0.2-1.1-0.7-1.2c-0.5-0.1-1.1,0.2-1.2,0.7c0,0-0.1,0.4-0.2,0.9
	c-0.2,0.6-0.3,1.3-0.3,2c-0.1,0.6-0.1,1.2-0.1,1.7c-1.7,0-3.2,0.7-3.7,1.7c-0.1,0-0.3-0.1-0.4-0.1c-0.6,0-1.3-0.2-2.1-0.1
	c-0.4,0-0.8,0-1.2,0.1c-0.4,0.1-0.8,0.2-1.2,0.2c-0.4,0.1-0.8,0.1-1.2,0.3c-0.4,0.1-0.8,0.3-1.1,0.4c-0.4,0.1-0.7,0.3-1,0.4
	c-0.3,0.2-0.6,0.3-0.9,0.5c-1.1,0.6-1.8,1-1.8,1s-0.1,0-0.1,0.1c-0.4,0.3-0.5,0.9-0.2,1.4s0.9,0.5,1.4,0.2l0.1-0.1
	c0,0,0.3-0.3,0.9-0.7c0.1,4.8,3.7,8.9,8.9,10.4c-0.2,1.3-0.3,2.6-0.4,3.9c-0.1,1.1-0.1,2.1-0.1,3.1c0,0.7,0,1.4,0,2.1
	c-7.1-2.1-12.3-7.5-12.9-14c0,0.4-0.1,0.8-0.1,1.2c0,7.1,5.4,13,13.1,15.2c0,0.5,0.1,1,0.1,1.5c0.1,0.9,0.2,1.8,0.3,2.6
	c0.1,0.8,0.3,1.5,0.4,2.1c0.2,0.6,0.3,1.2,0.4,1.6c0.2,0.9,0.4,1.4,0.4,1.4s0,0,0,0.1c0.2,0.5,0.7,0.8,1.2,0.6
	c0.5-0.2,0.8-0.7,0.6-1.2V60c0,0-0.2-0.5-0.4-1.3c-0.1-0.4-0.3-0.9-0.5-1.5c-0.1-0.6-0.3-1.3-0.5-2s-0.3-1.6-0.5-2.4
	c-0.1-0.3-0.1-0.7-0.2-1c1.7,0.4,3.4,0.6,5.3,0.6c7.8,0,14.4-3.7,17.6-9c0,0.1,0,0.2,0.1,0.2c0.2,0.7,0.3,1.2,0.4,1.8
	c0.1,0.5,0.1,1,0.1,1.4c0.1,0.8,0.1,1.2,0.1,1.2v0.2c0,0,0,0,0,0.1c0.1,0.5,0.6,0.9,1.1,0.8c0.5-0.1,0.9-0.6,0.8-1.1
	C58.9,48,58.8,47.5,58.7,46.6z M39.2,50c-2,0-3.9-0.2-5.7-0.7c-0.1-0.8-0.1-1.5-0.1-2.3c-0.1-1-0.1-2.1,0-3.1c0-1.3,0.1-2.6,0.2-3.8
	c1.1,0.3,2.3,0.4,3.5,0.4c5.7,0,10.6-3.1,12.4-7.5c0.1,0.1,0.2,0.1,0.2,0.2c0.7,0.6,1.3,1.3,2,1.9c0.6,0.7,1.2,1.4,1.8,2.1
	c0.5,0.8,1.1,1.4,1.5,2.2c0.4,0.8,0.9,1.4,1.1,2.2c0,0.1,0.1,0.2,0.1,0.3C52.9,46.7,46.5,50,39.2,50z"/>
<path class="st1" d="M37.7,27.4c0,0,1.5,1.7,3.4,4.5C42,33.3,43,35,44,37c0.5,1,0.9,2,1.3,3c0.4,1.1,0.8,2.1,1.1,3.2
	c0.3,1.1,0.7,2.2,0.8,3.3c0.1,0.6,0.2,1.1,0.3,1.6c0.1,0.6,0.1,1.1,0.2,1.6c0.1,0.5,0.1,1.1,0.2,1.6c0,0.5,0,1,0,1.5
	c0,1,0,1.9-0.1,2.8c-0.1,0.9-0.2,1.7-0.2,2.4c-0.2,0.7-0.3,1.3-0.4,1.8c-0.2,1-0.3,1.6-0.3,1.6c-0.1,0.5-0.6,0.8-1.1,0.7
	C45.3,62,45,61.5,45.1,61l0,0v-0.1c0,0,0.1-0.5,0.4-1.4c0.1-0.5,0.3-1,0.5-1.7c0.1-0.7,0.2-1.4,0.4-2.2s0.2-1.7,0.2-2.7
	c0-0.5,0-1,0.1-1.5c0-0.5-0.1-1-0.1-1.5s-0.1-1-0.1-1.6c-0.1-0.5-0.2-1.1-0.2-1.6c-0.1-1.1-0.4-2.2-0.6-3.3
	c-0.2-1.1-0.6-2.1-0.9-3.2c-0.4-1-0.7-2.1-1.2-3c-0.8-1.9-1.7-3.7-2.6-5.1C39.2,29.1,37.7,27.4,37.7,27.4z"/>
<path class="st1" d="M34.5,27.4c0,0-1.4,0.7-3.2,2.1c-0.9,0.7-1.9,1.6-2.9,2.7c-0.5,0.5-1,1.1-1.4,1.7c-0.5,0.6-0.9,1.2-1.3,1.9
	c-0.4,0.6-0.8,1.3-1.1,2c-0.4,0.6-0.6,1.4-0.9,2c-0.3,0.6-0.5,1.3-0.7,1.9c-0.2,0.6-0.3,1.2-0.5,1.8c-0.1,0.6-0.3,1-0.3,1.5
	c-0.1,0.5-0.1,0.9-0.1,1.2c-0.1,0.7-0.1,1-0.1,1v0.1c-0.1,0.5-0.5,0.9-1.1,0.8C20.4,48,20,47.6,20.1,47c0,0,0,0,0-0.1
	c0,0,0.1-0.4,0.2-1.1c0.1-0.3,0.2-0.8,0.2-1.2c0.1-0.5,0.3-1,0.4-1.6c0.2-0.6,0.3-1.2,0.6-1.8c0.3-0.6,0.5-1.3,0.9-2s0.7-1.4,1.1-2
	c0.4-0.7,0.8-1.3,1.4-2c0.5-0.6,1-1.2,1.5-1.8s1.1-1.1,1.6-1.6c1.1-1,2.2-1.8,3.2-2.5C33,27.9,34.5,27.4,34.5,27.4z"/>
</svg>
