<?xml version="1.0" encoding="utf-8"?>
<!-- Generator: Adobe Illustrator 19.1.0, SVG Export Plug-In . SVG Version: 6.00 Build 0)  -->
<svg version="1.1" id="Calque_2" xmlns="http://www.w3.org/2000/svg" xmlns:xlink="http://www.w3.org/1999/xlink" x="0px" y="0px"
	 viewBox="0 0 500 500" style="enable-background:new 0 0 500 500;" xml:space="preserve">
<style type="text/css">
	.st0{fill:#576468;}
	.st1{fill:#7AB51D;}
</style>
<g>
	<path class="st0" d="M109.2,280.1c-1.9,2.2-5.6,7.4-13.8,7.4c-8.3,0-14.3-5.9-14.3-12.1c0-14.8,21.3-16,28.1-16.2v-5.4
		c0-6.6,0-14-6.7-14c-7.1,0-7.5,6.1-7.5,10.7H82.2c1.2-6.9,4.7-14.3,20.1-14.3c15.2,0,17.5,7.7,17.5,18.1v32h-10.7
		C109.2,286.3,109.2,280.1,109.2,280.1z M109.2,262.9c-3.8,0.1-16.3,0.6-16.3,10.6c0,4.8,2.5,8.2,6.4,8.2c6.2,0,9.9-5.6,9.9-12.7
		V262.9z"/>
	<path class="st0" d="M140.5,251c0-7.4-1.7-9.2-8.4-9.4v-2.1l19.1-3.4v13.9h0.2c1.5-4.8,4.8-13.9,13.4-13.9c1.9,0,4,0.2,5.8,0.5v10
		c-1.7-0.5-3.6-1.3-5.4-1.3c-10.8,0-13.9,8.3-13.9,15.7v25.2h-10.7L140.5,251L140.5,251z"/>
	<path class="st0" d="M184.5,251c0-7.4-1.7-9.2-8.2-9.4v-2.1l19.1-3.4v12.5h0.2c1.8-3.7,6.7-12.5,16.3-12.5
		c9.9,0,12.4,7.1,13.1,11.8h0.2c2.2-4.1,6.3-11.8,15.9-11.8c13.6,0,13.6,12.2,13.6,19.7v30.4h-10.7v-28.7c0-6.5,0-14.2-7.2-14.2
		c-8.1,0-12,11.1-12,18.6v24.3h-10.7V259c0-8.3,0-15.7-7.2-15.7c-7.4,0-12,9.8-12,17.3v25.7h-10.7L184.5,251L184.5,251z"/>
	<path class="st0" d="M298.2,280.1c-1.9,2.2-5.6,7.4-13.8,7.4c-8.3,0-14.3-5.9-14.3-12.1c0-14.8,21.3-16,28.1-16.2v-5.4
		c0-6.6,0-14-6.7-14c-7.1,0-7.5,6.1-7.5,10.7h-12.7c1.2-6.9,4.7-14.3,20.1-14.3c15.2,0,17.5,7.7,17.5,18.1v32h-10.7L298.2,280.1
		L298.2,280.1z M298.2,262.9c-3.8,0.1-16.3,0.6-16.3,10.6c0,4.8,2.5,8.2,6.4,8.2c6.2,0,9.9-5.6,9.9-12.7V262.9z"/>
	<path class="st1" d="M363.7,284.9c-3.8,1.4-6.3,2.5-15.2,2.5c-15,0-23.8-10.4-23.8-26.3c0-14.4,6-25,21.3-25
		c11.9,0,19.7,5.9,19.7,14.4H353c0-4.3-1.1-10.8-7.7-10.8c-7.3,0-8.9,7.8-8.9,17.9c0,15.6,7.3,24.1,17,24.1c3.3,0,7.7-0.6,10.3-1.5
		V284.9z"/>
	<path class="st0" d="M415.7,284.6c-2,0.7-7.7,2.8-15.1,2.8c-16.3,0-26.2-9.8-26.2-27.4c0-16.6,8.1-23.9,22.4-23.9
		c18.3,0,19.8,13.1,19.8,20.1h-30.4c0,10.5,4.4,25.5,19.4,25.5c4.5,0,8.2-1.1,10-1.8L415.7,284.6L415.7,284.6z M406,252.1
		c0-2.4-0.2-12.3-9.5-12.3c-8,0-10.3,8.3-10.3,12.3H406z"/>
	<path class="st0" d="M432.3,226.9c0-7.5-1.8-9.3-8.1-9.6v-2.1l18.8-2.6v73.7h-10.7V226.9z"/>
	<path class="st0" d="M464.3,226.9c0-7.5-1.8-9.3-8.1-9.6v-2.1l18.8-2.6v73.7h-10.7L464.3,226.9L464.3,226.9z"/>
	<g>
		<path class="st0" d="M47.8,214.3c-0.3,0-0.6,0-1,0c12.8,0.5,23.1,11,23.1,24c0,12.9-10.2,23.5-23.1,24c0.3,0,0.6,0,1,0
			c13.3,0,24-10.8,24-24S61,214.3,47.8,214.3z"/>
		<path class="st0" d="M26.8,237.5c0-11.9,9.4-21.6,21.3-22.1c-0.3,0-0.6,0-0.9,0c-12.2,0-22.2,9.9-22.2,22.2s9.9,22.2,22.2,22.2
			c0.3,0,0.6,0,0.9,0C36.2,259.1,26.8,249.4,26.8,237.5z"/>
		<path class="st0" d="M45.5,235.8c-6.9,0-12.5-4.5-13-10.2c0,0.3,0,0.6,0,0.8c0,6.1,5.8,11.1,13.1,11.1c7.2,0,13.1-5,13.1-11.1
			c0-0.3,0-0.6,0-0.8C58,231.3,52.4,235.8,45.5,235.8z"/>
		<path class="st0" d="M47.7,247c-10.4,0-18.9-6.6-19.7-15c0,0.4-0.1,0.8-0.1,1.2c0,9,8.8,16.2,19.7,16.2s19.7-7.3,19.7-16.2
			c0-0.4,0-0.8-0.1-1.2C66.6,240.4,58.1,247,47.7,247z"/>
		<path class="st1" d="M56.2,221.1c0,0-0.2-0.1-0.4-0.1c-0.2-0.1-0.6-0.1-1.1-0.1c-0.5,0-1,0-1.6,0.1c-0.6,0.1-1.2,0.2-1.9,0.3
			c-0.7,0.1-1.3,0.4-1.9,0.6c-0.6,0.2-1.1,0.4-1.6,0.7c-0.9,0.5-1.5,0.8-1.5,0.8s0.5-0.4,1.3-1.1c0.4-0.3,0.9-0.7,1.5-1
			c0.6-0.3,1.2-0.7,1.8-1c0.6-0.3,1.3-0.5,1.9-0.7c0.6-0.2,1.3-0.3,1.8-0.4c0.6,0,1-0.1,1.4-0.1c0.4,0,0.5,0,0.5,0l0.1,0
			c0.5,0.1,0.9,0.6,0.8,1.1s-0.6,0.9-1.1,0.8C56.3,221.1,56.2,221.1,56.2,221.1z"/>
		<path class="st1" d="M46.2,224.4c0,0,1.5,1.7,3.4,4.5c0.9,1.4,1.9,3.1,2.9,5.1c0.5,1,0.9,2,1.3,3c0.4,1.1,0.8,2.1,1.1,3.2
			c0.3,1.1,0.7,2.2,0.8,3.3c0.1,0.6,0.2,1.1,0.3,1.6c0.1,0.6,0.1,1.1,0.2,1.6c0.1,0.5,0.1,1.1,0.2,1.6c0,0.5,0,1,0,1.5
			c0,1,0,1.9-0.1,2.8c-0.1,0.9-0.2,1.7-0.2,2.4c-0.2,0.7-0.3,1.3-0.4,1.8c-0.2,1-0.3,1.6-0.3,1.6c-0.1,0.5-0.6,0.8-1.1,0.7
			c-0.5-0.1-0.8-0.6-0.7-1.1c0,0,0,0,0,0l0-0.1c0,0,0.1-0.5,0.4-1.4c0.1-0.5,0.3-1,0.5-1.7c0.1-0.7,0.2-1.4,0.4-2.2
			c0.2-0.8,0.2-1.7,0.2-2.7c0-0.5,0-1,0.1-1.5c0-0.5-0.1-1-0.1-1.5c0-0.5-0.1-1-0.1-1.6c-0.1-0.5-0.2-1.1-0.2-1.6
			c-0.1-1.1-0.4-2.2-0.6-3.3c-0.2-1.1-0.6-2.1-0.9-3.2c-0.4-1-0.7-2.1-1.2-3c-0.8-1.9-1.7-3.7-2.6-5.1
			C47.7,226.1,46.2,224.4,46.2,224.4z"/>
		<path class="st1" d="M43,224.4c0,0-1.4,0.7-3.2,2.1c-0.9,0.7-1.9,1.6-2.9,2.7c-0.5,0.5-1,1.1-1.4,1.7c-0.5,0.6-0.9,1.2-1.3,1.9
			c-0.4,0.6-0.8,1.3-1.1,2c-0.4,0.6-0.6,1.4-0.9,2c-0.3,0.6-0.5,1.3-0.7,1.9c-0.2,0.6-0.3,1.2-0.5,1.8c-0.1,0.6-0.3,1-0.3,1.5
			c-0.1,0.5-0.1,0.9-0.1,1.2c-0.1,0.7-0.1,1-0.1,1l0,0.1c-0.1,0.5-0.5,0.9-1.1,0.8c-0.5-0.1-0.9-0.5-0.8-1.1c0,0,0,0,0-0.1
			c0,0,0.1-0.4,0.2-1.1c0.1-0.3,0.2-0.8,0.2-1.2c0.1-0.5,0.3-1,0.4-1.6c0.2-0.6,0.3-1.2,0.6-1.8c0.3-0.6,0.5-1.3,0.9-2
			c0.4-0.7,0.7-1.4,1.1-2c0.4-0.7,0.8-1.3,1.4-2c0.5-0.6,1-1.2,1.5-1.8c0.5-0.6,1.1-1.1,1.6-1.6c1.1-1,2.2-1.8,3.2-2.5
			C41.5,224.9,43,224.4,43,224.4z"/>
		<path class="st1" d="M43.6,223c0,0-0.4-0.3-1-0.6c-0.3-0.2-0.7-0.3-1.1-0.5c-0.4-0.1-0.9-0.3-1.3-0.4c-0.5-0.1-0.9-0.2-1.3-0.2
			c-0.4,0-0.8-0.1-1.1,0c-0.6,0.1-1.1,0.2-1.1,0.2l-0.2,0c-0.5,0.1-1-0.3-1.1-0.8c-0.1-0.5,0.3-1,0.8-1.1c0.1,0,0.2,0,0.2,0
			c0,0,0.5,0.1,1.3,0.1c0.4,0,0.8,0.2,1.3,0.3c0.5,0.1,0.9,0.4,1.4,0.6c0.5,0.2,0.9,0.5,1.3,0.8c0.4,0.3,0.7,0.5,1,0.8
			C43.3,222.6,43.6,223,43.6,223z"/>
		<path class="st0" d="M67.2,243.6c-0.1-0.4-0.1-1-0.2-1.5c-0.2-0.6-0.4-1.2-0.6-1.9c-0.2-0.7-0.6-1.4-0.9-2.2
			c-0.3-0.8-0.9-1.5-1.3-2.3c-0.5-0.8-1.1-1.5-1.7-2.2c-0.6-0.7-1.3-1.4-2-2c-0.7-0.6-1.4-1.3-2.2-1.8c-0.7-0.6-1.5-1.1-2.2-1.6
			c-1.5-1-2.9-1.8-4.2-2.4c-1.3-0.7-2.4-1.1-3.2-1.4c0-0.1,0.1-0.3,0.1-0.4c0-1.3-1.6-2.4-3.5-2.6c0.2-0.4,0.4-1,0.7-1.5
			c0.3-0.6,0.6-1.2,0.9-1.6c0.3-0.4,0.4-0.7,0.4-0.7l0.1-0.1c0.1-0.1,0.1-0.2,0.1-0.3c0.1-0.5-0.2-1.1-0.7-1.2
			c-0.5-0.1-1.1,0.2-1.2,0.7c0,0-0.1,0.4-0.2,0.9c-0.2,0.6-0.3,1.3-0.3,2c-0.1,0.6-0.1,1.2-0.1,1.7c0,0,0,0,0,0
			c-1.7,0-3.2,0.7-3.7,1.7c-0.1,0-0.3-0.1-0.4-0.1c-0.6,0-1.3-0.2-2.1-0.1c-0.4,0-0.8,0-1.2,0.1c-0.4,0.1-0.8,0.2-1.2,0.2
			c-0.4,0.1-0.8,0.1-1.2,0.3c-0.4,0.1-0.8,0.3-1.1,0.4c-0.4,0.1-0.7,0.3-1,0.4c-0.3,0.2-0.6,0.3-0.9,0.5c-1.1,0.6-1.8,1-1.8,1
			c0,0-0.1,0-0.1,0.1c-0.4,0.3-0.5,0.9-0.2,1.4s0.9,0.5,1.4,0.2l0.1-0.1c0,0,0.6-0.5,1.5-1.1c0.2-0.2,0.5-0.4,0.7-0.6
			c0.3-0.2,0.6-0.3,0.9-0.5c0.3-0.2,0.6-0.3,1-0.5c0.3-0.2,0.7-0.3,1.1-0.4c0.4-0.1,0.7-0.3,1.1-0.4c0.4-0.1,0.7-0.2,1.1-0.2
			c0.7-0.2,1.4-0.2,2-0.2c0.1,0,0.2,0,0.3,0c-0.1,0.2-0.1,0.4-0.1,0.6c0,1.1,1.1,2,2.6,2.4c-0.3,0.8-0.6,1.9-0.9,3.1
			c-0.8,3-1.6,7.2-1.9,11.4c-0.1,1.1-0.1,2.1-0.1,3.1c0,1,0,2.1,0,3.1c0,1,0.1,2,0.2,2.9c0.1,0.9,0.2,1.8,0.3,2.6
			c0.1,0.8,0.3,1.5,0.4,2.1c0.2,0.6,0.3,1.2,0.4,1.6c0.2,0.9,0.4,1.4,0.4,1.4c0,0,0,0,0,0.1c0.2,0.5,0.7,0.8,1.2,0.6
			c0.5-0.2,0.8-0.7,0.6-1.2l0-0.1c0,0-0.2-0.5-0.4-1.3c-0.1-0.4-0.3-0.9-0.5-1.5c-0.1-0.6-0.3-1.3-0.5-2c-0.2-0.7-0.3-1.6-0.5-2.4
			c-0.2-0.9-0.3-1.8-0.4-2.8c-0.1-1-0.2-2-0.2-3c-0.1-1-0.1-2.1,0-3.1c0-4.1,0.6-8.3,1.2-11.4c0.2-1.3,0.5-2.3,0.7-3.2
			c0.4,0.1,0.8,0.1,1.3,0.1c1.9,0,3.5-0.9,3.9-2.1c0.7,0.4,1.8,0.9,3.1,1.6c1.2,0.7,2.6,1.6,4,2.6c0.7,0.5,1.4,1.1,2.1,1.7
			c0.7,0.6,1.3,1.3,2,1.9c0.6,0.7,1.2,1.4,1.8,2.1c0.5,0.8,1.1,1.4,1.5,2.2c0.4,0.8,0.9,1.4,1.1,2.2c0.3,0.7,0.6,1.4,0.7,2
			c0.2,0.7,0.3,1.2,0.4,1.8c0.1,0.5,0.1,1,0.1,1.4c0.1,0.8,0.1,1.2,0.1,1.2l0,0.2c0,0,0,0,0,0.1c0.1,0.5,0.6,0.9,1.1,0.8
			c0.5-0.1,0.9-0.6,0.8-1.1C67.4,245,67.3,244.5,67.2,243.6z"/>
	</g>
</g>
</svg>
