<?xml version="1.0" encoding="utf-8"?>
<!-- Generator: Adobe Illustrator 19.1.0, SVG Export Plug-In . SVG Version: 6.00 Build 0)  -->
<svg version="1.1" id="Calque_2" xmlns="http://www.w3.org/2000/svg" xmlns:xlink="http://www.w3.org/1999/xlink" x="0px" y="0px"
	 viewBox="0 0 500 500" style="enable-background:new 0 0 500 500;" xml:space="preserve">
<style type="text/css">
	.st0{fill:#005B9A;}
	.st1{fill:#3677AD;}
	.st2{fill:#7C9EC7;}
	.st3{fill:#BCCAE1;}
	.st4{fill:#FFFFFF;}
	.st5{fill:#E2007A;}
</style>
<g>
	<path class="st0" d="M377.9,220.8c0.2-0.4,0.3-0.8,0.5-1.2l10.5-1.5l7.8-1.1l-7.6-2l-7.7-2c2.9-6.3,6.3-12.3,10-18.2
		c-0.3,0-2.6,0-6.4,0l2.4-3.8l4.3-6.9l-6.6,4.8l-8.1,5.9c-3.2,0-7,0-11.1,0l-0.5-1.1l-1.3-2.9l-1.6,2.7l-0.8,1.3
		c-4.4,0-9.2,0-14.3,0l-9.2-4.7l-5.2-2.7l3.2,4.9l1.6,2.4c-89.6,0-260.6,0-263.8,0C55.7,240.4,44.6,268,25,316
		c4.3,0,346.2,0,350.5,0c-6-18.3-8.1-35.6-7.3-51.8l4.4,10.2l4.8,11.2l-1.8-12.1l-4.5-30.8c0.8-3.8,1.9-7.5,3-11.2l14.7,10.7
		l7.5,5.5l-5.2-7.6L377.9,220.8z"/>
	<path class="st0" d="M449.6,316c-15.4-47.3-5.5-87.3,15.8-121.2h9.6c-21.4,33.8-31.2,73.9-15.8,121.2H449.6z"/>
	<path class="st1" d="M429,316c-15.4-47.3-5.5-87.3,15.8-121.2h9.6c-21.4,33.8-31.2,73.9-15.8,121.2H429z"/>
	<path class="st2" d="M408.3,316c-15.4-47.3-5.5-87.3,15.8-121.2h9.6c-21.4,33.8-31.2,73.9-15.8,121.2H408.3z"/>
	<path class="st3" d="M387.7,316c-15.4-47.3-5.5-87.3,15.8-121.2h9.6c-21.4,33.8-31.2,73.9-15.8,121.2H387.7z"/>
	<g>
		<polygon class="st4" points="335.6,213.4 349.2,209.6 337.5,191.5 359.1,202.5 363.9,194.3 367.9,203.4 386,190.2 372.2,212.2 
			388.7,216.5 374.5,218.6 389.8,240.9 366.8,224.1 374.1,273.7 360.3,241.6 367.2,213.7 349.8,217.5 		"/>
	</g>
	<path class="st5" d="M292.1,298.3"/>
	<path class="st4" d="M303.2,216.2l0-0.1h-36.4l-15.3,36.6l-14.1-36.3h-28.1l-0.1,0.5c4.4,3.4,7.5,8.7,7,17
		c-0.9,13.1-7.3,17.7-12.7,20l-2.2,14.3c7.5,12.3,19.4,31.6,19.4,31.6h8.8v-28.3h3.7L246,297h9.1l11.6-34.8l3.8,36.4l24.8-0.3
		C288.9,267.9,292.8,240.6,303.2,216.2z"/>
	<g>
		<path class="st4" d="M92.2,226.1c0,0-6.5-2.1-14.4,18.3c-7.9,20.4-19.3,55.7-19.3,55.7h9h16.3l3-13.4c0,0,13.8-2.2,13.8,5
			c0,7.2,0,8.4,0,8.4h31.5c-6.8-31.6-2.3-59.8,9-84.9c0,0,0,0,0,0L92.2,226.1z M85.8,237.8c-0.4,0.8-0.6,1.6-0.8,2.4
			c-0.2-1.8,0-3.7,0.8-5.5c2.3-5.2,8.4-7.6,13.6-5.3c1.5,0.7,2.8,1.7,3.8,2.9c-0.5-0.3-0.9-0.6-1.4-0.8
			C95.6,228.9,88.5,231.7,85.8,237.8z M104.9,264.6l-13.7,2.8l15-21.2C106.2,246.2,103.5,256.1,104.9,264.6z"/>
	</g>
	<path class="st4" d="M362.7,217.9l-42.1,8c0,0-6.5-2-14.4,17.9c-4.8,12-7.4,18.6-8.8,22c-0.2,10.4,0.8,21.3,3.2,32.6h11.6l3-13.1
		c0,0,13.8-2.1,13.8,4.9s0,8.2,0,8.2h28c-5.8-27.8-2.9-53,5.7-75.8C362.7,221.1,362.7,219.6,362.7,217.9z M314.2,237.4
		c-0.4,0.8-0.6,1.6-0.8,2.4c-0.2-1.8,0-3.7,0.8-5.5c2.3-5.2,8.4-7.6,13.6-5.3c1.5,0.7,2.8,1.7,3.8,2.9c-0.5-0.3-0.9-0.6-1.4-0.8
		C324,228.5,316.9,231.3,314.2,237.4z M331.7,264.6l-13.7,2.8l15-21.2C333,246.2,330.4,256.1,331.7,264.6z"/>
	<path class="st4" d="M190.6,259.3c-4-6.8,18.6,0.1,20.3-25.5c1.7-25.6-31.2-22.9-31.2-22.9l-31.1,4.1c-11.3,25-15.9,53.2-9.2,84.6
		h24.3v-24.3h1.7l11.5,24.3h38.4C215.3,299.7,194.6,266,190.6,259.3z M197.6,217.9c5.6,0.8,9.5,6.1,8.7,11.7
		c-0.2,1.7-0.9,3.1-1.8,4.4c0.2-0.5,0.3-1,0.4-1.6c1-6.6-3.6-12.8-10.2-13.8c-0.9-0.1-1.7-0.1-2.6-0.1
		C193.8,217.9,195.7,217.6,197.6,217.9z M185.3,236.3c-1.8,10.5-16.8,9.3-16.8,9.3l1.4-13.7C169.9,231.9,187.2,225.8,185.3,236.3z"
		/>
	<g>
		<path class="st0" d="M350.8,225.3c0.6,0,1.3,0.2,1.9,0.5c0.6,0.3,1.1,0.8,1.4,1.4c0.3,0.6,0.5,1.3,0.5,1.9c0,0.7-0.2,1.3-0.5,1.9
			c-0.3,0.6-0.8,1.1-1.4,1.4c-0.6,0.3-1.2,0.5-1.9,0.5c-0.7,0-1.3-0.2-1.9-0.5c-0.6-0.3-1.1-0.8-1.4-1.4c-0.3-0.6-0.5-1.2-0.5-1.9
			c0-0.7,0.2-1.3,0.5-1.9s0.8-1.1,1.4-1.4C349.5,225.5,350.1,225.3,350.8,225.3z M350.8,226.1c-0.5,0-1,0.1-1.5,0.4
			c-0.5,0.3-0.9,0.6-1.1,1.1c-0.3,0.5-0.4,1-0.4,1.5c0,0.5,0.1,1,0.4,1.5c0.3,0.5,0.6,0.9,1.1,1.1c0.5,0.3,1,0.4,1.5,0.4
			c0.5,0,1.1-0.1,1.5-0.4c0.5-0.3,0.9-0.7,1.1-1.1c0.3-0.5,0.4-1,0.4-1.5c0-0.5-0.1-1.1-0.4-1.5c-0.3-0.5-0.7-0.9-1.1-1.1
			C351.8,226.2,351.3,226.1,350.8,226.1z M349,231.2v-4.1h0.8c0.8,0,1.2,0,1.3,0c0.3,0,0.5,0.1,0.6,0.2c0.1,0.1,0.3,0.2,0.4,0.4
			c0.1,0.2,0.2,0.4,0.2,0.6c0,0.3-0.1,0.5-0.3,0.8c-0.2,0.2-0.5,0.3-0.8,0.4c0.1,0,0.2,0.1,0.3,0.2c0.1,0.1,0.2,0.2,0.3,0.3
			c0,0,0.1,0.2,0.3,0.5l0.5,0.8h-1l-0.3-0.7c-0.2-0.4-0.4-0.7-0.6-0.8c-0.1-0.1-0.3-0.2-0.6-0.2h-0.2v1.7L349,231.2L349,231.2z
			 M349.9,228.9h0.3c0.5,0,0.8,0,0.9-0.1c0.1,0,0.2-0.1,0.3-0.2c0.1-0.1,0.1-0.2,0.1-0.3c0-0.1,0-0.2-0.1-0.3
			c-0.1-0.1-0.2-0.2-0.3-0.2c-0.1,0-0.4-0.1-0.9-0.1h-0.3V228.9z"/>
	</g>
</g>
</svg>
