<?xml version="1.0" encoding="utf-8"?>
<!-- Generator: Adobe Illustrator 15.0.0, SVG Export Plug-In . SVG Version: 6.00 Build 0)  -->
<!DOCTYPE svg PUBLIC "-//W3C//DTD SVG 1.1//EN" "http://www.w3.org/Graphics/SVG/1.1/DTD/svg11.dtd">
<svg version="1.1" id="Calque_1" xmlns="http://www.w3.org/2000/svg" xmlns:xlink="http://www.w3.org/1999/xlink" x="0px" y="0px"
	 width="500px" height="500px" viewBox="0 0 500 500" enable-background="new 0 0 500 500" xml:space="preserve">
<g>
	<path fill-rule="evenodd" clip-rule="evenodd" fill="#005E95" d="M230.333,186.027l0.093-2.227l-1.258,1.062L230.333,186.027z
		 M230.333,197.968l-0.093-8.468l-2.766-3.024l-3.027,2.931L230.333,197.968z M227.125,207.324l3.208-1.778l0.093-3.208
		l-7.854-11.324l-3.918,4.55L227.125,207.324z M220.977,210.709l4.093-2.143l-8.646-11.131l-3.389,2.856L220.977,210.709z
		 M213.845,214.547l4.983-2.763l-7.749-9.982l-3.476,2.94L213.845,214.547z M207.603,217.842l4.099-2.227l-6.148-9.356l-3.569,3.034
		L207.603,217.842z M202.072,220.785l3.301-1.965l-5.444-8.014l-2.137,1.691C198.509,217.135,202.072,220.785,202.072,220.785z
		 M306.083,230.496c5.17-2.401,6.783-5.338,6.783-5.338l-1.433-1.785l-6.497,5.528L306.083,230.496z M303.237,227.107l7.307-5.88
		l-2.404-3.473l-7.487,6.148L303.237,227.107z M298.957,222.208l8.022-6.593l-3.208-4.718l-7.842,7.662L298.957,222.208z
		 M294.236,216.87l8.64-8.204l-2.498-3.476l-8.733,8.462L294.236,216.87z M289.956,211.784l9.355-8.826l-2.847-4.015l-9.811,9.004
		L289.956,211.784z M285.054,206.259l10.34-9.452l-2.317-3.208l-10.165,9.982L285.054,206.259z M282.294,201.267l9.35-9.804
		l-2.491-3.657l-6.416,6.78L282.294,201.267z M283.092,190.842l4.728-5.085l-2.056-3.121l-1.875,1.52L283.092,190.842z
		 M262.942,185.137c8.197,0.087,11.498-7.755,11.498-7.755c-6.938,2.669-21.297,1.785-21.297,1.785
		C257.871,185.046,262.942,185.137,262.942,185.137z M266.965,186.825l14.613-0.707l0.616-4.279l-6.945-1.339
		C270.877,186.118,266.965,186.825,266.965,186.825z M282.737,179.431l0.262-1.068c-3.924-2.136-3.114-1.339-4.547-1.61
		c-1.42-0.265-1.77,1.342-1.77,1.342L282.737,179.431z M234.164,248.946c15.236,3.301,27.712,2.049,27.712,2.049
		c13.373-0.354,25.495-6.942,25.495-6.942l-0.798-1.613c-14.706,4.457-23.532,5.267-23.532,5.267
		c-21.029,3.382-29.588-0.087-29.588-0.087L234.164,248.946z M233.354,244.851c7.313,3.915,24.256,1.249,24.256,1.249
		c14.426-1.342,28.603-5.97,28.603-5.97l-1.245-4.189c-7.139,3.382-24.785,5.612-24.785,5.612
		c-15.597,2.501-26.286-0.268-26.286-0.268C233.977,241.826,233.354,244.851,233.354,244.851z M234.251,238.97
		c8.11,2.314,23.259,0.626,23.259,0.626c18.624-2.059,26.921-6.151,26.921-6.151c-0.804-3.124-1.245-2.591-1.245-2.591
		c-10.527,3.037-24.779,4.015-24.779,4.015c-14.264,1.252-24.068-0.171-24.068-0.171L234.251,238.97z M234.338,232.19
		c8.471,1.604,22.643,0.361,22.643,0.361c13.373-0.542,25.931-4.092,25.931-4.092l-1.252-3.301
		c-25.309,5.432-47.409,3.114-47.409,3.114L234.338,232.19z M233.977,225.771c5.444,1.336,22.112,0.358,22.112,0.358
		c17.018-0.707,25.128-3.379,25.128-3.379l-1.158-4.279c-22.898,3.831-46.524,2.049-46.524,2.049L233.977,225.771z M233.453,218.028
		c9.437,1.065,21.564,0.349,21.564,0.349c20.145-0.623,24.953-2.398,24.953-2.398c-0.262-0.807-0.361-5.625-0.361-5.625
		c-19.247,4.731-46.611,2.946-46.611,2.946L233.453,218.028z M232.644,210.896c29.861,1.601,47.24-2.949,47.24-2.949v-5.438
		c-28.877,5.351-47.589,4.108-47.589,4.108L232.644,210.896z M232.37,204.116c15.516,1.694,47.863-3.918,47.863-3.918l0.188-3.47
		l-48.05,1.42V204.116z M232.37,195.738l48.224-1.333l0.723-6.058l-48.947,2.756V195.738z M232.37,188.793l29.326-1.7
		c-4.086-0.533-9.082-4.986-9.082-4.986l-20.051,3.385L232.37,188.793z M251.007,179.96l-4.722-4.899l-13.723,7.668l0.081,0.445
		L251.007,179.96z M230.24,208.128l-28.69,15.332c0,0-5.257-4.64-5.986-11.77l21.671-17.821c0,0,5.432-6.238,10.95-10.875
		l2.591-1.869c0,0,9.979-5.525,15.946-8.562l4.192,4.373c0,0,11.767,1.243,21.57-0.978c0,0,7.226-3.301,12.034,0.978l11.586,17.204
		l11.138,18.008l7.849,12.648c0,0,0.442,2.049-4.454,5.444l-5.089,2.844l-23.526-27.093c0,0-1.788,9.795,2.946,21.835l4.896,17.289
		c0,0-9.175,6.597-29.587,8.022c0,0-17.554,0.804-27.806-2.853c0,0-2.043-1.52-0.984-7.304l0.71-3.476c0,0,0.274-5.531-0.087-9.458
		l-0.978-13.806L230.24,208.128z"/>
	<g>
		<g>
			<path fill-rule="evenodd" clip-rule="evenodd" fill="#005E95" d="M117.06,298.565c0-9.879-1.507-11.118-7.512-9.362v-1.645
				l16.021-5.469v9.275c2.005-3.501,6.422-9.275,11.424-9.275c3.918,0,6.216,2.373,5.618,6.796
				c-0.299,2.168-2.005,3.195-4.111,3.195c-3.507,0-4.205-3.601-6.715-3.601c-2,0-6.216,5.052-6.216,8.036v24.511
				c0,4.541,1.507,6.403,7.524,6.814v1.451l-23.545-0.013v-1.438c6.005-0.411,7.512-2.273,7.512-6.814V298.565z"/>
			<path fill-rule="evenodd" clip-rule="evenodd" fill="#005E95" d="M154.919,296.099c0.299-5.768-1.202-6.896-6.316-6.896v-1.756
				l14.832-5.357v6.796c0,2.479,2-0.71,3.507-1.85c3.5-2.679,7.624-4.946,12.122-4.946c5.107,0,9.119,3.818,10.222,8.752
				c3.712-4.323,9.922-8.752,15.628-8.752c11.916,0,12.62,10.402,12.62,19.689v19.248c0,4.541,1.507,6.403,6.316,6.814v1.438
				h-21.141v-1.438c4.809-0.411,6.31-2.273,6.31-6.814v-20.911c0.106-9.885-1.501-12.558-7.805-12.558
				c-4.622,0-8.421,2.455-10.726,6.267v27.202c0,4.541,1.495,6.403,6.31,6.814v1.438h-21.141v-1.438
				c4.802-0.411,6.31-2.273,6.31-6.814v-21.422c0.112-5.251-0.299-12.047-6.914-12.047c-4.211,0-9.212,2.455-11.617,6.08v27.389
				c0,4.541,1.507,6.403,6.303,6.814v1.438h-21.135v-1.438c4.809-0.411,6.316-2.273,6.316-6.814V296.099z"/>
			<path fill-rule="evenodd" clip-rule="evenodd" fill="#005E95" d="M267.289,309.597c0-9.274-3.003-24.417-14.427-24.417
				c-7.412,0-11.224,7.119-11.224,16.077c-0.1,14.52,4.721,25.956,14.227,25.956C263.676,327.213,267.289,318.561,267.289,309.597
				 M276.508,304.77c0,13.386-8.521,25.532-22.449,25.532c-12.819,0-21.639-11.013-21.639-23.482
				c0-13.698,7.823-24.729,21.639-24.729C267.289,282.09,276.508,291.259,276.508,304.77z"/>
			<path fill-rule="evenodd" clip-rule="evenodd" fill="#005E95" d="M291.282,298.565c0-9.879-1.507-11.118-7.524-9.362v-1.645
				l16.04-5.469v9.275c1.999-3.501,6.403-9.275,11.417-9.275c3.906,0,6.211,2.373,5.606,6.796c-0.299,2.168-2.006,3.195-4.104,3.195
				c-3.507,0-4.218-3.601-6.709-3.601c-2.006,0-6.21,5.052-6.21,8.036v24.511c0,4.541,1.488,6.403,7.512,6.814v1.438h-23.552v-1.438
				c6.018-0.411,7.524-2.273,7.524-6.814V298.565z"/>
			<path fill-rule="evenodd" clip-rule="evenodd" fill="#005E95" d="M359.172,267.321c0,0,0.374-6.597-3.525-6.597v-1.438
				c4.796-0.935,7.637-2.891,12.034-4.541v66.282c0,4.541,1.52,6.403,7.711,6.814v1.438h-23.938v-1.438
				c6.21-0.411,7.718-2.273,7.718-6.814V267.321z"/>
			<path fill="#005E95" d="M359.172,267.321c0,0,0.374-6.597-3.525-6.597v-1.438c4.796-0.935,7.637-2.891,12.034-4.541v66.282
				c0,4.541,1.52,6.403,7.711,6.814v1.438h-23.938v-1.438c6.21-0.411,7.718-2.273,7.718-6.814V267.321z"/>
			<path fill-rule="evenodd" clip-rule="evenodd" fill="#005E95" d="M423.579,317.021c0,5.363,0.398,7.313,6.204,7.102v1.445
				c-3.912,1.245-9.318,3.089-14.128,4.733v-8.845l-2.104,2.36c-2.205,2.479-6.304,6.484-12.832,6.484
				c-7.998,0-11.71-5.762-11.71-14.625v-23.596c0-6.173-0.811-7.519-6.316-7.519v-1.438h14.825v32.142
				c0,5.157,2.005,9.069,7.524,9.069c2.703,0,5.705-1.558,7.798-3.308c2.815-2.361,2.23-3.595,2.23-7.201v-21.527
				c0-6.391-0.623-7.63-7.325-7.736v-1.438h15.834V317.021z"/>
			<path fill-rule="evenodd" clip-rule="evenodd" fill="#005E95" d="M474.981,320.517c2.591,4.229,5.493,7.325,8.895,7.325v1.451
				l-20.132-0.013v-1.438c3.712-0.206,6.304-1.246,4.709-3.613l-10.415-15.242l-7.213,11.648c-3.812,6.061-3.812,7.207,1.296,7.207
				v1.438l-14.526,0.013v-1.451c3.601,0,5.407-2.585,8.011-6.385l10.738-15.983l-8.62-13.479c-2.417-3.725-2.915-7.113-9.331-7.432
				v-1.438h20.742v1.438c-3.501,0.106-4.298,1.445-4.298,2.791c0,1.532,4.896,9.163,6.005,10.919
				c1.395-2.273,6.715-8.658,6.715-11.236c0-2.068-2.505-2.367-3.999-2.474v-1.438h15.834v1.438
				c-3.825,0.106-6.84,2.679-8.833,5.669l-7.712,11.125L474.981,320.517z"/>
			<path fill-rule="evenodd" clip-rule="evenodd" fill="#005E95" d="M56.091,294.417l9.929-29.015l11.15,32.304
				C73.171,297.861,65.023,297.644,56.091,294.417 M93.527,315.234l-23.969-67.123H67.59l-15.411,44.705
				c-0.635-0.299-1.264-0.579-1.899-0.909c-14.831-7.556-30.472,4.827-31.288,5.22v9.101c0,0,13.928-12.57,31.12-7.413l-2.466,7.17
				c-4.03,11.648-6.578,20.412-12.683,21.022v2.273l19.466,0.013v-2.286c-3.352,0-6.69-1.09-6.69-5.064
				c0-4.429,4.03-14.027,5.313-18.593l1.034-3.046c0.361,0.168,0.723,0.336,1.084,0.504c7.356,3.688,17.354,2.797,23.408,1.738
				l0.218,0.804l3.538,10.209c3.731,10.67,3.831,12.956-4.516,13.448v2.273l25.04,0.013v-2.286
				C97.364,327.355,95.302,320.155,93.527,315.234z"/>
			<polygon fill-rule="evenodd" clip-rule="evenodd" fill="#005E95" points="333.59,312.312 338.872,304.427 333.59,296.535 
				328.308,304.427 			"/>
			<polygon fill="#005E95" points="333.59,312.312 338.872,304.427 333.59,296.535 328.308,304.427 			"/>
		</g>
	</g>
</g>
</svg>
