<?xml version="1.0" encoding="utf-8"?>
<!-- Generator: Adobe Illustrator 19.1.0, SVG Export Plug-In . SVG Version: 6.00 Build 0)  -->
<svg version="1.1" id="Calque_1" xmlns="http://www.w3.org/2000/svg" xmlns:xlink="http://www.w3.org/1999/xlink" x="0px" y="0px"
	 viewBox="-345 170.9 500 500" style="enable-background:new -345 170.9 500 500;" xml:space="preserve">
<style type="text/css">
	.st0{fill:#005E95;}
</style>
<path class="st0" d="M-114.7,356.9l0.1-2.2l-1.3,1.1L-114.7,356.9z M-114.7,368.9l-0.1-8.5l-2.8-3l-3,2.9L-114.7,368.9z
	 M-117.9,378.2l3.2-1.8l0.1-3.2l-7.9-11.3l-3.9,4.5L-117.9,378.2z M-124,381.6l4.1-2.1l-8.6-11.1l-3.4,2.9L-124,381.6z
	 M-131.2,385.4l5-2.8l-7.7-10l-3.5,2.9L-131.2,385.4z M-137.4,388.7l4.1-2.2l-6.1-9.4l-3.6,3L-137.4,388.7z M-142.9,391.7l3.3-2
	l-5.4-8l-2.1,1.7C-146.5,388-142.9,391.7-142.9,391.7z M-38.9,401.4c5.2-2.4,6.8-5.3,6.8-5.3l-1.4-1.8l-6.5,5.5L-38.9,401.4z
	 M-41.8,398l7.3-5.9l-2.4-3.5l-7.5,6.1L-41.8,398z M-46,393.1l8-6.6l-3.2-4.7l-7.8,7.7L-46,393.1z M-50.8,387.8l8.6-8.2l-2.5-3.5
	l-8.7,8.5L-50.8,387.8z M-55,382.7l9.4-8.8l-2.8-4l-9.8,9L-55,382.7z M-59.9,377.1l10.3-9.5l-2.3-3.2l-10.2,10L-59.9,377.1z
	 M-62.7,372.2l9.4-9.8l-2.5-3.7l-6.4,6.8L-62.7,372.2z M-61.9,361.7l4.7-5.1l-2.1-3.1l-1.9,1.5L-61.9,361.7z M-82.1,356
	c8.2,0.1,11.5-7.8,11.5-7.8c-6.9,2.7-21.3,1.8-21.3,1.8C-87.1,355.9-82.1,356-82.1,356z M-78,357.7l14.6-0.7l0.6-4.3l-6.9-1.3
	C-74.1,357-78,357.7-78,357.7z M-62.3,350.3l0.3-1.1c-3.9-2.1-3.1-1.3-4.5-1.6c-1.4-0.3-1.8,1.3-1.8,1.3L-62.3,350.3z M-110.8,419.8
	c15.2,3.3,27.7,2,27.7,2c13.4-0.4,25.5-6.9,25.5-6.9l-0.8-1.6c-14.7,4.5-23.5,5.3-23.5,5.3c-21,3.4-29.6-0.1-29.6-0.1L-110.8,419.8z
	 M-111.6,415.7c7.3,3.9,24.3,1.2,24.3,1.2c14.4-1.3,28.6-6,28.6-6l-1.2-4.2c-7.1,3.4-24.8,5.6-24.8,5.6c-15.6,2.5-26.3-0.3-26.3-0.3
	C-111,412.7-111.6,415.7-111.6,415.7z M-110.7,409.9c8.1,2.3,23.3,0.6,23.3,0.6c18.6-2.1,26.9-6.2,26.9-6.2
	c-0.8-3.1-1.2-2.6-1.2-2.6c-10.5,3-24.8,4-24.8,4c-14.3,1.3-24.1-0.2-24.1-0.2L-110.7,409.9z M-110.7,403.1
	c8.5,1.6,22.6,0.4,22.6,0.4c13.4-0.5,25.9-4.1,25.9-4.1l-1.3-3.3c-25.3,5.4-47.4,3.1-47.4,3.1L-110.7,403.1z M-111,396.7
	c5.4,1.3,22.1,0.4,22.1,0.4c17-0.7,25.1-3.4,25.1-3.4l-1.2-4.3c-22.9,3.8-46.5,2-46.5,2L-111,396.7z M-111.5,388.9
	c9.4,1.1,21.6,0.3,21.6,0.3c20.1-0.6,25-2.4,25-2.4c-0.3-0.8-0.4-5.6-0.4-5.6c-19.2,4.7-46.6,2.9-46.6,2.9L-111.5,388.9z
	 M-112.4,381.8c29.9,1.6,47.2-2.9,47.2-2.9v-5.4c-28.9,5.4-47.6,4.1-47.6,4.1L-112.4,381.8z M-112.6,375c15.5,1.7,47.9-3.9,47.9-3.9
	l0.2-3.5l-48.1,1.4L-112.6,375L-112.6,375z M-112.6,366.6l48.2-1.3l0.7-6.1l-48.9,2.8V366.6z M-112.6,359.7l29.3-1.7
	c-4.1-0.5-9.1-5-9.1-5l-20.1,3.4L-112.6,359.7z M-94,350.9l-4.7-4.9l-13.7,7.7l0.1,0.4L-94,350.9z M-114.8,379l-28.7,15.3
	c0,0-5.3-4.6-6-11.8l21.7-17.8c0,0,5.4-6.2,10.9-10.9l2.6-1.9c0,0,10-5.5,15.9-8.6l4.2,4.4c0,0,11.8,1.2,21.6-1c0,0,7.2-3.3,12,1
	l11.6,17.2l11.1,18l7.8,12.6c0,0,0.4,2-4.5,5.4l-5.1,2.8L-63,376.9c0,0-1.8,9.8,2.9,21.8l4.9,17.3c0,0-9.2,6.6-29.6,8
	c0,0-17.6,0.8-27.8-2.9c0,0-2-1.5-1-7.3l0.7-3.5c0,0,0.3-5.5-0.1-9.5l-1-13.8L-114.8,379z"/>
<path class="st0" d="M-227.9,469.5c0-9.9-1.5-11.1-7.5-9.4v-1.6l16-5.5v9.3c2-3.5,6.4-9.3,11.4-9.3c3.9,0,6.2,2.4,5.6,6.8
	c-0.3,2.2-2,3.2-4.1,3.2c-3.5,0-4.2-3.6-6.7-3.6c-2,0-6.2,5.1-6.2,8v24.5c0,4.5,1.5,6.4,7.5,6.8v1.5l-23.5,0v-1.4
	c6-0.4,7.5-2.3,7.5-6.8C-227.9,491.9-227.9,469.5-227.9,469.5z"/>
<path class="st0" d="M-190.1,467c0.3-5.8-1.2-6.9-6.3-6.9v-1.8l14.8-5.4v6.8c0,2.5,2-0.7,3.5-1.9c3.5-2.7,7.6-4.9,12.1-4.9
	c5.1,0,9.1,3.8,10.2,8.8c3.7-4.3,9.9-8.8,15.6-8.8c11.9,0,12.6,10.4,12.6,19.7v19.2c0,4.5,1.5,6.4,6.3,6.8v1.4h-21.1v-1.4
	c4.8-0.4,6.3-2.3,6.3-6.8V471c0.1-9.9-1.5-12.6-7.8-12.6c-4.6,0-8.4,2.5-10.7,6.3v27.2c0,4.5,1.5,6.4,6.3,6.8v1.4h-21.1v-1.4
	c4.8-0.4,6.3-2.3,6.3-6.8v-21.4c0.1-5.3-0.3-12-6.9-12c-4.2,0-9.2,2.5-11.6,6.1v27.4c0,4.5,1.5,6.4,6.3,6.8v1.4h-21.1v-1.4
	c4.8-0.4,6.3-2.3,6.3-6.8L-190.1,467L-190.1,467z"/>
<path class="st0" d="M-77.7,480.5c0-9.3-3-24.4-14.4-24.4c-7.4,0-11.2,7.1-11.2,16.1c-0.1,14.5,4.7,26,14.2,26
	C-81.3,498.1-77.7,489.5-77.7,480.5 M-68.5,475.7c0,13.4-8.5,25.5-22.4,25.5c-12.8,0-21.6-11-21.6-23.5c0-13.7,7.8-24.7,21.6-24.7
	C-77.7,453-68.5,462.1-68.5,475.7z"/>
<path class="st0" d="M-53.7,469.5c0-9.9-1.5-11.1-7.5-9.4v-1.6l16-5.5v9.3c2-3.5,6.4-9.3,11.4-9.3c3.9,0,6.2,2.4,5.6,6.8
	c-0.3,2.2-2,3.2-4.1,3.2c-3.5,0-4.2-3.6-6.7-3.6c-2,0-6.2,5.1-6.2,8v24.5c0,4.5,1.5,6.4,7.5,6.8v1.4h-23.6v-1.4
	c6-0.4,7.5-2.3,7.5-6.8L-53.7,469.5L-53.7,469.5z"/>
<path class="st0" d="M14.2,438.2c0,0,0.4-6.6-3.5-6.6v-1.4c4.8-0.9,7.6-2.9,12-4.5v66.3c0,4.5,1.5,6.4,7.7,6.8v1.4H6.5v-1.4
	c6.2-0.4,7.7-2.3,7.7-6.8V438.2z"/>
<path class="st0" d="M14.2,438.2c0,0,0.4-6.6-3.5-6.6v-1.4c4.8-0.9,7.6-2.9,12-4.5v66.3c0,4.5,1.5,6.4,7.7,6.8v1.4H6.5v-1.4
	c6.2-0.4,7.7-2.3,7.7-6.8V438.2z"/>
<path class="st0" d="M78.6,487.9c0,5.4,0.4,7.3,6.2,7.1v1.4c-3.9,1.2-9.3,3.1-14.1,4.7v-8.8l-2.1,2.4c-2.2,2.5-6.3,6.5-12.8,6.5
	c-8,0-11.7-5.8-11.7-14.6V463c0-6.2-0.8-7.5-6.3-7.5V454h14.8v32.1c0,5.2,2,9.1,7.5,9.1c2.7,0,5.7-1.6,7.8-3.3
	c2.8-2.4,2.2-3.6,2.2-7.2v-21.5c0-6.4-0.6-7.6-7.3-7.7V454h15.8L78.6,487.9L78.6,487.9z"/>
<path class="st0" d="M130,491.4c2.6,4.2,5.5,7.3,8.9,7.3v1.5l-20.1,0v-1.4c3.7-0.2,6.3-1.2,4.7-3.6L113,479.9l-7.2,11.6
	c-3.8,6.1-3.8,7.2,1.3,7.2v1.4l-14.5,0v-1.5c3.6,0,5.4-2.6,8-6.4l10.7-16l-8.6-13.5c-2.4-3.7-2.9-7.1-9.3-7.4V454h20.7v1.4
	c-3.5,0.1-4.3,1.4-4.3,2.8c0,1.5,4.9,9.2,6,10.9c1.4-2.3,6.7-8.7,6.7-11.2c0-2.1-2.5-2.4-4-2.5V454h15.8v1.4
	c-3.8,0.1-6.8,2.7-8.8,5.7l-7.7,11.1L130,491.4z"/>
<path class="st0" d="M-288.9,465.3l9.9-29l11.1,32.3C-271.8,468.8-280,468.5-288.9,465.3 M-251.5,486.1l-24-67.1h-2l-15.4,44.7
	c-0.6-0.3-1.3-0.6-1.9-0.9c-14.8-7.6-30.5,4.8-31.3,5.2v9.1c0,0,13.9-12.6,31.1-7.4l-2.5,7.2c-4,11.6-6.6,20.4-12.7,21v2.3l19.5,0
	v-2.3c-3.4,0-6.7-1.1-6.7-5.1c0-4.4,4-14,5.3-18.6l1-3c0.4,0.2,0.7,0.3,1.1,0.5c7.4,3.7,17.4,2.8,23.4,1.7l0.2,0.8l3.5,10.2
	c3.7,10.7,3.8,13-4.5,13.4v2.3l25,0v-2.3C-247.6,498.2-249.7,491-251.5,486.1z"/>
<polygon class="st0" points="-11.4,483.2 -6.1,475.3 -11.4,467.4 -16.7,475.3 "/>
<polygon class="st0" points="-11.4,483.2 -6.1,475.3 -11.4,467.4 -16.7,475.3 "/>
</svg>
