<?xml version="1.0" encoding="utf-8"?>
<!-- Generator: Adobe Illustrator 21.0.2, SVG Export Plug-In . SVG Version: 6.00 Build 0)  -->
<svg version="1.1" id="Calque_1" xmlns="http://www.w3.org/2000/svg" xmlns:xlink="http://www.w3.org/1999/xlink" x="0px" y="0px"
	 viewBox="0 0 500 216" style="enable-background:new 0 0 500 216;" xml:space="preserve">
<style type="text/css">
	.st0{fill:#005E95;}
</style>
<path class="st0" d="M230.3,44l0.1-2.2l-1.3,1.1L230.3,44z M230.3,56l-0.1-8.5l-2.8-3l-3,2.9L230.3,56z M227.1,65.3l3.2-1.8l0.1-3.2
	L222.5,49l-3.9,4.5L227.1,65.3z M221,68.7l4.1-2.1l-8.6-11.1l-3.4,2.9L221,68.7z M213.8,72.5l5-2.8l-7.7-10l-3.5,2.9L213.8,72.5z
	 M207.6,75.8l4.1-2.2l-6.1-9.4l-3.6,3L207.6,75.8z M202.1,78.8l3.3-2l-5.4-8l-2.1,1.7C198.5,75.1,202.1,78.8,202.1,78.8z
	 M306.1,88.5c5.2-2.4,6.8-5.3,6.8-5.3l-1.4-1.8l-6.5,5.5L306.1,88.5z M303.2,85.1l7.3-5.9l-2.4-3.5l-7.5,6.1L303.2,85.1z M299,80.2
	l8-6.6l-3.2-4.7l-7.8,7.7L299,80.2z M294.2,74.9l8.6-8.2l-2.5-3.5l-8.7,8.5L294.2,74.9z M290,69.8l9.4-8.8l-2.8-4l-9.8,9L290,69.8z
	 M285.1,64.2l10.3-9.5l-2.3-3.2l-10.2,10L285.1,64.2z M282.3,59.3l9.4-9.8l-2.5-3.7l-6.4,6.8L282.3,59.3z M283.1,48.8l4.7-5.1
	l-2.1-3.1l-1.9,1.5L283.1,48.8z M262.9,43.1c8.2,0.1,11.5-7.8,11.5-7.8c-6.9,2.7-21.3,1.8-21.3,1.8C257.9,43,262.9,43.1,262.9,43.1z
	 M267,44.8l14.6-0.7l0.6-4.3l-6.9-1.3C270.9,44.1,267,44.8,267,44.8z M282.7,37.4l0.3-1.1c-3.9-2.1-3.1-1.3-4.5-1.6
	c-1.4-0.3-1.8,1.3-1.8,1.3L282.7,37.4z M234.2,106.9c15.2,3.3,27.7,2,27.7,2c13.4-0.4,25.5-6.9,25.5-6.9l-0.8-1.6
	c-14.7,4.5-23.5,5.3-23.5,5.3c-21,3.4-29.6-0.1-29.6-0.1L234.2,106.9z M233.4,102.8c7.3,3.9,24.3,1.2,24.3,1.2
	c14.4-1.3,28.6-6,28.6-6l-1.2-4.2c-7.1,3.4-24.8,5.6-24.8,5.6c-15.6,2.5-26.3-0.3-26.3-0.3C234,99.8,233.4,102.8,233.4,102.8z
	 M234.3,97c8.1,2.3,23.3,0.6,23.3,0.6c18.6-2.1,26.9-6.2,26.9-6.2c-0.8-3.1-1.2-2.6-1.2-2.6c-10.5,3-24.8,4-24.8,4
	c-14.3,1.3-24.1-0.2-24.1-0.2L234.3,97z M234.3,90.2c8.5,1.6,22.6,0.4,22.6,0.4c13.4-0.5,25.9-4.1,25.9-4.1l-1.3-3.3
	c-25.3,5.4-47.4,3.1-47.4,3.1L234.3,90.2z M234,83.8c5.4,1.3,22.1,0.4,22.1,0.4c17-0.7,25.1-3.4,25.1-3.4l-1.2-4.3
	c-22.9,3.8-46.5,2-46.5,2L234,83.8z M233.5,76c9.4,1.1,21.6,0.3,21.6,0.3c20.1-0.6,25-2.4,25-2.4c-0.3-0.8-0.4-5.6-0.4-5.6
	c-19.2,4.7-46.6,2.9-46.6,2.9L233.5,76z M232.6,68.9c29.9,1.6,47.2-2.9,47.2-2.9v-5.4c-28.9,5.4-47.6,4.1-47.6,4.1L232.6,68.9z
	 M232.4,62.1c15.5,1.7,47.9-3.9,47.9-3.9l0.2-3.5l-48.1,1.4V62.1L232.4,62.1z M232.4,53.7l48.2-1.3l0.7-6.1l-48.9,2.8
	C232.4,49.1,232.4,53.7,232.4,53.7z M232.4,46.8l29.3-1.7c-4.1-0.5-9.1-5-9.1-5l-20.1,3.4L232.4,46.8z M251,38l-4.7-4.9l-13.7,7.7
	l0.1,0.4L251,38z M230.2,66.1l-28.7,15.3c0,0-5.3-4.6-6-11.8l21.7-17.8c0,0,5.4-6.2,10.9-10.9l2.6-1.9c0,0,10-5.5,15.9-8.6l4.2,4.4
	c0,0,11.8,1.2,21.6-1c0,0,7.2-3.3,12,1L296,52l11.1,18l7.8,12.6c0,0,0.4,2-4.5,5.4l-5.1,2.8L282,64c0,0-1.8,9.8,2.9,21.8l4.9,17.3
	c0,0-9.2,6.6-29.6,8c0,0-17.6,0.8-27.8-2.9c0,0-2-1.5-1-7.3l0.7-3.5c0,0,0.3-5.5-0.1-9.5l-1-13.8L230.2,66.1z"/>
<path class="st0" d="M117.1,156.6c0-9.9-1.5-11.1-7.5-9.4v-1.6l16-5.5v9.3c2-3.5,6.4-9.3,11.4-9.3c3.9,0,6.2,2.4,5.6,6.8
	c-0.3,2.2-2,3.2-4.1,3.2c-3.5,0-4.2-3.6-6.7-3.6c-2,0-6.2,5.1-6.2,8V179c0,4.5,1.5,6.4,7.5,6.8v1.5h-23.5v-1.4
	c6-0.4,7.5-2.3,7.5-6.8C117.1,179,117.1,156.6,117.1,156.6z"/>
<path class="st0" d="M154.9,154.1c0.3-5.8-1.2-6.9-6.3-6.9v-1.8l14.8-5.4v6.8c0,2.5,2-0.7,3.5-1.9c3.5-2.7,7.6-4.9,12.1-4.9
	c5.1,0,9.1,3.8,10.2,8.8c3.7-4.3,9.9-8.8,15.6-8.8c11.9,0,12.6,10.4,12.6,19.7v19.2c0,4.5,1.5,6.4,6.3,6.8v1.4h-21.1v-1.4
	c4.8-0.4,6.3-2.3,6.3-6.8v-20.8c0.1-9.9-1.5-12.6-7.8-12.6c-4.6,0-8.4,2.5-10.7,6.3V179c0,4.5,1.5,6.4,6.3,6.8v1.4h-21.1v-1.4
	c4.8-0.4,6.3-2.3,6.3-6.8v-21.4c0.1-5.3-0.3-12-6.9-12c-4.2,0-9.2,2.5-11.6,6.1v27.4c0,4.5,1.5,6.4,6.3,6.8v1.4h-21.1v-1.4
	c4.8-0.4,6.3-2.3,6.3-6.8L154.9,154.1L154.9,154.1z"/>
<path class="st0" d="M267.3,167.6c0-9.3-3-24.4-14.4-24.4c-7.4,0-11.2,7.1-11.2,16.1c-0.1,14.5,4.7,26,14.2,26
	C263.7,185.2,267.3,176.6,267.3,167.6 M276.5,162.8c0,13.4-8.5,25.5-22.4,25.5c-12.8,0-21.6-11-21.6-23.5c0-13.7,7.8-24.7,21.6-24.7
	C267.3,140.1,276.5,149.2,276.5,162.8z"/>
<path class="st0" d="M291.3,156.6c0-9.9-1.5-11.1-7.5-9.4v-1.6l16-5.5v9.3c2-3.5,6.4-9.3,11.4-9.3c3.9,0,6.2,2.4,5.6,6.8
	c-0.3,2.2-2,3.2-4.1,3.2c-3.5,0-4.2-3.6-6.7-3.6c-2,0-6.2,5.1-6.2,8V179c0,4.5,1.5,6.4,7.5,6.8v1.4h-23.6v-1.4
	c6-0.4,7.5-2.3,7.5-6.8L291.3,156.6L291.3,156.6z"/>
<path class="st0" d="M359.2,125.3c0,0,0.4-6.6-3.5-6.6v-1.4c4.8-0.9,7.6-2.9,12-4.5v66.3c0,4.5,1.5,6.4,7.7,6.8v1.4h-23.9v-1.4
	c6.2-0.4,7.7-2.3,7.7-6.8V125.3z"/>
<path class="st0" d="M359.2,125.3c0,0,0.4-6.6-3.5-6.6v-1.4c4.8-0.9,7.6-2.9,12-4.5v66.3c0,4.5,1.5,6.4,7.7,6.8v1.4h-23.9v-1.4
	c6.2-0.4,7.7-2.3,7.7-6.8V125.3z"/>
<path class="st0" d="M423.6,175c0,5.4,0.4,7.3,6.2,7.1v1.4c-3.9,1.2-9.3,3.1-14.1,4.7v-8.8l-2.1,2.4c-2.2,2.5-6.3,6.5-12.8,6.5
	c-8,0-11.7-5.8-11.7-14.6v-23.6c0-6.2-0.8-7.5-6.3-7.5v-1.5h14.8v32.1c0,5.2,2,9.1,7.5,9.1c2.7,0,5.7-1.6,7.8-3.3
	c2.8-2.4,2.2-3.6,2.2-7.2v-21.5c0-6.4-0.6-7.6-7.3-7.7v-1.5h15.8V175L423.6,175z"/>
<path class="st0" d="M475,178.5c2.6,4.2,5.5,7.3,8.9,7.3v1.5h-20.1v-1.4c3.7-0.2,6.3-1.2,4.7-3.6L458,167l-7.2,11.6
	c-3.8,6.1-3.8,7.2,1.3,7.2v1.4h-14.5v-1.5c3.6,0,5.4-2.6,8-6.4l10.7-16l-8.6-13.5c-2.4-3.7-2.9-7.1-9.3-7.4v-1.3h20.7v1.4
	c-3.5,0.1-4.3,1.4-4.3,2.8c0,1.5,4.9,9.2,6,10.9c1.4-2.3,6.7-8.7,6.7-11.2c0-2.1-2.5-2.4-4-2.5v-1.4h15.8v1.4
	c-3.8,0.1-6.8,2.7-8.8,5.7l-7.7,11.1L475,178.5z"/>
<path class="st0" d="M56.1,152.4l9.9-29l11.1,32.3C73.2,155.9,65,155.6,56.1,152.4 M93.5,173.2l-24-67.1h-2l-15.4,44.7
	c-0.6-0.3-1.3-0.6-1.9-0.9c-14.8-7.6-30.5,4.8-31.3,5.2v9.1c0,0,13.9-12.6,31.1-7.4l-2.5,7.2c-4,11.6-6.6,20.4-12.7,21v2.3h19.5V185
	c-3.4,0-6.7-1.1-6.7-5.1c0-4.4,4-14,5.3-18.6l1-3c0.4,0.2,0.7,0.3,1.1,0.5c7.4,3.7,17.4,2.8,23.4,1.7l0.2,0.8l3.5,10.2
	c3.7,10.7,3.8,13-4.5,13.4v2.3h25v-2.3C97.4,185.3,95.3,178.1,93.5,173.2z"/>
<polygon class="st0" points="333.6,170.3 338.9,162.4 333.6,154.5 328.3,162.4 "/>
<polygon class="st0" points="333.6,170.3 338.9,162.4 333.6,154.5 328.3,162.4 "/>
</svg>
