<?xml version="1.0" encoding="utf-8"?>
<!-- Generator: Adobe Illustrator 19.1.0, SVG Export Plug-In . SVG Version: 6.00 Build 0)  -->
<svg version="1.1" id="Calque_1" xmlns="http://www.w3.org/2000/svg" xmlns:xlink="http://www.w3.org/1999/xlink" x="0px" y="0px"
	 viewBox="-99 230 300 42" style="enable-background:new -99 230 300 42;" xml:space="preserve">
<style type="text/css">
	.st0{fill:#4A4B4A;}
	.st1{fill:#E3051B;}
	.st2{fill:#3D4D52;}
</style>
<path class="st0" d="M-78.4,264.4c3-1.1,4.3-3,3.7-5.5c-0.5-2.2-2.6-3.8-4.7-3.7c-2.4,0.1-4.4,2.2-4.4,4.6c-0.1,2.3,1.5,4,4.1,4.4
	c0.4-1.5-0.3-3.1,0.6-5C-78.2,261.1-79,262.8-78.4,264.4 M-99,248.5c0.5-1.7,0.8-3.4,1.5-5c3.3-7.5,8.9-11.9,17.1-12.6
	c8.6-0.7,15.1,3,19.5,10.4c0.1,0.1,0.1,0.3,0.1,0.6H-79c-2.6,0.1-4.5,1.9-4.7,4.3c-0.1,2.4,1.5,4.5,3.8,4.8c2.6,0.4,4.5-1,5.2-3.8
	c-0.8-0.5-1.6-0.2-2.4-0.3c-0.8-0.1-1.6,0.2-2.4-0.5c0.8-0.8,1.5-0.5,2.2-0.5h14.7c1.2,0,2.3-0.1,2.9-1.5c1,1,1,2.3,1.2,3.5
	c1.6,10.9-5.7,21.2-16.3,23c-11.3,2.1-21.4-4.7-23.8-15.8c-0.1-0.4,0-0.8-0.4-1.1C-99,254-99,248.5-99,248.5z M185,272
	c-2-0.7-4.2-0.9-6.2-1.7c-10.4-3.9-13.9-12.5-13.1-21.6c1-11.3,8.4-16.7,17.7-18.3c0.5-0.1,1.2,0.1,1.6-0.5h7l9,2v0.5
	c-0.6,2.7-0.2,5.5-1.1,8.2c-2.7-1.1-5.3-2.2-8.2-2.5c-6-0.8-11.1,1.8-13.6,6.7c-2.5,5.1-1.6,11.8,2.3,15.5c3.6,3.4,8.1,3.9,12.8,3.4
	c2.4-0.3,4.7-1,7-1.7c0.6,1.6,0.5,2.2,0.7,3.4v5c-2.1,0.6-4.4,0.6-6.5,1.5H185L185,272z M20.1,247.6c2.7-0.1,5.2,0.3,7.7-0.5
	c2.1-0.7,3.1-2.2,3.1-4.3c-0.1-1.8-1.1-3.1-3.1-3.7c-2.5-0.8-5-0.6-7.6-0.5L20.1,247.6L20.1,247.6z M34.1,251.2
	c2.3,1.1,3.3,3.1,4,5.2c1.7,4.8,3.5,9.6,5.4,14.7H32.2c-0.7-2.3-1.5-4.6-2.3-7c-0.4-1.3-0.9-2.7-1.4-4c-1.9-4.5-3.4-5.3-8.5-4.7
	v15.7H9.3v-40c0.6-0.5,1.3-0.3,2-0.3h17.5c2.7,0,5.3,0.4,7.7,1.6c3.8,2,5.3,5.2,5.1,9.4c-0.2,4-1.9,7-5.6,8.6
	C35.4,250.7,34.9,250.9,34.1,251.2"/>
<path class="st1" d="M-16.4,244.9c-0.6-1.7-1.2-3.4-2-5.8c-3.7,11-7.3,21.5-10.9,32.1h-11c3.3-8.7,6.4-17.3,9.9-25.8
	c-0.3-0.1,0.4,0.1,0.1,0.2c-0.3,0.1,0.1,0.3,0.2,0c0.1-0.3,0-0.6,0-0.9c0.7-2.3,1.5-4.6,2.6-6.8c0.7-0.2,0.4-0.7,0.4-1.2
	c0.4-2,1.4-3.9,2.2-5.8h13.1c0.8,0.9,1,2.2,1.5,3.4c2.3,5.9,4.6,11.7,6.8,17.6c0.3,0.7,0.5,1.4,0.7,2.1c0,0.4-0.2,0.8,0.4,0.9
	l1.7,0.2c2.1,0.2,3.5,1.1,4,2.8c0.5,1.9,0.1,3.4-1.5,4.6c-0.3,0.2-0.5,0.4-0.9,0.7l2.8,7.7c-0.8,0.4-1.8,0.3-2.7,0.3
	c-2.3,0.1-4.6-0.2-6.8,0.2c-0.5,0.1-0.9,0.1-1.3,0c-0.1-0.2-0.2-0.2-0.4-0.1c-1.6-1.5-1.4-3.8-2.4-5.6c-0.4-0.7-0.5-1.6-1.1-2.5h-8
	c-2.4-0.1-3.9-1.4-4.1-3.5c-0.3-2.5,1.3-4.4,3.8-4.6c1.8-0.1,3.6,0,5.8,0c-0.9-3.2-1.7-6.2-2.5-9.1c0.1-0.5,0.2-1-0.3-2L-16.4,244.9
	L-16.4,244.9z"/>
<path class="st0" d="M160.4,263.6v7.6h-29v-40.4h28.4c0.3,2.5,0.1,4.9,0.1,7.5h-17.6v8.4h16.6c0.3,2.7,0.1,5.1,0.2,7.7h-16.8v9.2
	C142.3,263.6,160.4,263.6,160.4,263.6z M106.1,238.8h-9.8c-0.5-2.6-0.1-5.2-0.3-7.9h30.8v7.7c-3.2,0.5-6.3,0.1-9.8,0.3v32.4h-11
	v-32.5H106.1z M44.5,230.8h29.7c0.2,0,0.5,0.1,0.8,0.2c0.3,2.5,0.1,4.9,0.1,7.6h-10v32.5c-3.6,0.3-7,0.1-10.7,0.2v-32.6h-10
	L44.5,230.8L44.5,230.8z M90.9,230.9v40.4H80.6c-0.6-1.7-0.8-36.3-0.2-40.4C80.4,230.9,90.9,230.9,90.9,230.9z"/>
<path class="st2" d="M-16.4,244.9v-1c0.4,1,0.4,1.5,0.3,2C-16.5,245.7-16.5,245.3-16.4,244.9 M-30.2,244.7c0,0.3,0.1,0.7,0,0.9
	c-0.1,0.3-0.5,0.1-0.2,0c0.3-0.1-0.4-0.3-0.1-0.2C-30.5,245.1-30.5,244.9-30.2,244.7 M-2.4,254.8c-0.7,0-0.4-0.5-0.4-0.9
	C-2.5,254.2-2.4,254.5-2.4,254.8 M-27.1,236.7c0,0.4,0.3,1-0.4,1.2C-27.6,237.4-27.5,237-27.1,236.7"/>
</svg>
