<svg xmlns="http://www.w3.org/2000/svg" viewBox="0 0 300 42" enable-background="new 0 0 300 42"><path fill="#4A4B4A" d="M20.6 34.4c3-1.1 4.3-3 3.7-5.5-.5-2.2-2.6-3.8-4.7-3.7-2.4.1-4.4 2.2-4.4 4.6-.1 2.3 1.5 4 4.1 4.4.4-1.5-.3-3.1.6-5 .9 1.9.1 3.6.7 5.2m-20.6-15.9c.5-1.7.8-3.4 1.5-5 3.3-7.5 8.9-11.9 17.1-12.6 8.6-.7 15.1 3 19.5 10.4.1.1.1.3.1.6h-18.2c-2.6.1-4.5 1.9-4.7 4.3-.1 2.4 1.5 4.5 3.8 4.8 2.6.4 4.5-1 5.2-3.8-.8-.5-1.6-.2-2.4-.3-.8-.1-1.6.2-2.4-.5.8-.8 1.5-.5 2.2-.5h14.7c1.2 0 2.3-.1 2.9-1.5 1 1 1 2.3 1.2 3.5 1.6 10.9-5.7 21.2-16.3 23-11.3 2.1-21.4-4.7-23.8-15.8-.1-.4 0-.8-.4-1.1v-5.5zM284 42c-2-.7-4.2-.9-6.2-1.7-10.4-3.9-13.9-12.5-13.1-21.6 1-11.3 8.4-16.7 17.7-18.3.5-.1 1.2.1 1.6-.5h7l9 2v.5c-.6 2.7-.2 5.5-1.1 8.2-2.7-1.1-5.3-2.2-8.2-2.5-6-.8-11.1 1.8-13.6 6.7-2.5 5.1-1.6 11.8 2.3 15.5 3.6 3.4 8.1 3.9 12.8 3.4 2.4-.3 4.7-1 7-1.7.6 1.6.5 2.2.7 3.4v5c-2.1.6-4.4.6-6.5 1.5h-9.4zM119.1 17.6c2.7-.1 5.2.3 7.7-.5 2.1-.7 3.1-2.2 3.1-4.3-.1-1.8-1.1-3.1-3.1-3.7-2.5-.8-5-.6-7.6-.5v9zm14 3.6c2.3 1.1 3.3 3.1 4 5.2 1.7 4.8 3.5 9.6 5.4 14.7h-11.3c-.7-2.3-1.5-4.6-2.3-7-.4-1.3-.9-2.7-1.4-4-1.9-4.5-3.4-5.3-8.5-4.7v15.7h-10.7v-40c.6-.5 1.3-.3 2-.3h17.5c2.7 0 5.3.4 7.7 1.6 3.8 2 5.3 5.2 5.1 9.4-.2 4-1.9 7-5.6 8.6-.6.3-1.1.5-1.9.8"/><path fill="#E3051B" d="M82.6 14.9c-.6-1.7-1.2-3.4-2-5.8-3.7 11-7.3 21.5-10.9 32.1h-11c3.3-8.7 6.4-17.3 9.9-25.8-.3-.1.4.1.1.2-.3.1.1.3.2 0s0-.6 0-.9c.7-2.3 1.5-4.6 2.6-6.8.7-.2.4-.7.4-1.2.4-2 1.4-3.9 2.2-5.8h13.1c.8.9 1 2.2 1.5 3.4 2.3 5.9 4.6 11.7 6.8 17.6.3.7.5 1.4.7 2.1 0 .4-.2.8.4.9l1.7.2c2.1.2 3.5 1.1 4 2.8.5 1.9.1 3.4-1.5 4.6-.3.2-.5.4-.9.7l2.8 7.7c-.8.4-1.8.3-2.7.3-2.3.1-4.6-.2-6.8.2-.5.1-.9.1-1.3 0-.1-.2-.2-.2-.4-.1-1.6-1.5-1.4-3.8-2.4-5.6-.4-.7-.5-1.6-1.1-2.5h-8c-2.4-.1-3.9-1.4-4.1-3.5-.3-2.5 1.3-4.4 3.8-4.6 1.8-.1 3.6 0 5.8 0-.9-3.2-1.7-6.2-2.5-9.1.1-.5.2-1-.3-2v.9z"/><path fill="#4A4B4A" d="M259.4 33.6v7.6h-29v-40.4h28.4c.3 2.5.1 4.9.1 7.5h-17.6v8.4h16.6c.3 2.7.1 5.1.2 7.7h-16.8v9.2h18.1zM205.1 8.8h-9.8c-.5-2.6-.1-5.2-.3-7.9h30.8v7.7c-3.2.5-6.3.1-9.8.3v32.4h-11v-32.5zM143.5.8h29.7c.2 0 .5.1.8.2.3 2.5.1 4.9.1 7.6h-10v32.5c-3.6.3-7 .1-10.7.2v-32.6h-10v-7.9zM189.9.9v40.4h-10.3c-.6-1.7-.8-36.3-.2-40.4h10.5z"/><path fill="#3D4D52" d="M82.6 14.9v-1c.4 1 .4 1.5.3 2-.4-.2-.4-.6-.3-1M68.8 14.7c0 .3.1.7 0 .9-.1.3-.5.1-.2 0s-.4-.3-.1-.2c0-.3 0-.5.3-.7M96.6 24.8c-.7 0-.4-.5-.4-.9.3.3.4.6.4.9M71.9 6.7c0 .4.3 1-.4 1.2-.1-.5 0-.9.4-1.2"/></svg>