<?xml version="1.0" encoding="utf-8"?>
<!-- Generator: Adobe Illustrator 19.1.0, SVG Export Plug-In . SVG Version: 6.00 Build 0)  -->
<svg version="1.1" id="Calque_2" xmlns="http://www.w3.org/2000/svg" xmlns:xlink="http://www.w3.org/1999/xlink" x="0px" y="0px"
	 viewBox="0 0 500 500" style="enable-background:new 0 0 500 500;" xml:space="preserve">
<style type="text/css">
	.st0{fill:#EE7F00;}
	.st1{fill:#FFFFFF;}
</style>
<g>
	<g>
		<path class="st0" d="M164.9,300.3c0,8.5-7,15.5-15.5,15.5H40.5c-8.5,0-15.5-7-15.5-15.5V191.4c0-8.5,7-15.5,15.5-15.5h108.9
			c8.5,0,15.5,7,15.5,15.5V300.3z"/>
	</g>
	<circle class="st1" cx="94.9" cy="245.8" r="16"/>
	<circle class="st1" cx="94.9" cy="196.1" r="16"/>
	<circle class="st1" cx="45.2" cy="245.8" r="16"/>
	<circle class="st1" cx="94.9" cy="295.5" r="16"/>
	<circle class="st1" cx="144.6" cy="245.8" r="16"/>
	<circle cx="120.6" cy="220.2" r="16"/>
	<circle cx="69.3" cy="220.2" r="16"/>
	<circle cx="69.3" cy="271.4" r="16"/>
	<circle cx="120.6" cy="271.4" r="16"/>
	<g>
		<path d="M187.6,287.3v28.5h-3.1v-28.5H187.6z"/>
		<path d="M193.3,300.8c0-2.1,0-3.8-0.1-5.5h2.8l0.2,3.4h0.1c0.9-1.9,2.9-3.8,5.7-3.8c2.4,0,6.1,1.7,6.1,8.7v12.2h-3.1V304
			c0-3.3-1-6-4-6c-2.1,0-3.7,1.7-4.2,3.8c-0.1,0.5-0.2,1.1-0.2,1.7v12.3h-3.1L193.3,300.8L193.3,300.8z"/>
		<path d="M216.7,289.4v5.9h4.5v2.8h-4.5v11c0,2.5,0.6,4,2.4,4c0.8,0,1.4-0.1,1.8-0.3l0.1,2.8c-0.6,0.3-1.6,0.5-2.8,0.5
			c-1.5,0-2.6-0.5-3.4-1.6c-0.9-1.1-1.2-2.9-1.2-5.3v-11.1H211v-2.8h2.7v-4.9L216.7,289.4z"/>
		<path d="M226.2,306.2c0.1,5,2.8,7.1,5.9,7.1c2.2,0,3.6-0.5,4.8-1.1l0.5,2.7c-1.1,0.6-3,1.3-5.7,1.3c-5.3,0-8.5-4.1-8.5-10.3
			c0-6.2,3.1-11,8.1-11c5.6,0,7.1,5.9,7.1,9.6c0,0.8-0.1,1.4-0.1,1.7L226.2,306.2L226.2,306.2z M235.4,303.5c0-2.4-0.8-6-4.3-6
			c-3.2,0-4.6,3.5-4.8,6H235.4z"/>
		<path d="M242.3,301.7c0-2.4,0-4.5-0.1-6.4h2.7l0.1,4h0.1c0.8-2.7,2.7-4.5,4.8-4.5c0.4,0,0.6,0,0.9,0.1v3.5
			c-0.3-0.1-0.6-0.1-1.1-0.1c-2.2,0-3.8,2-4.2,4.8c-0.1,0.5-0.1,1.1-0.1,1.7v10.9h-3.1L242.3,301.7L242.3,301.7z"/>
		<path d="M254.1,300.8c0-2.1,0-3.8-0.1-5.5h2.8l0.2,3.4h0.1c0.9-1.9,2.9-3.8,5.7-3.8c2.4,0,6.1,1.7,6.1,8.7v12.2h-3.1V304
			c0-3.3-1-6-4-6c-2.1,0-3.7,1.7-4.2,3.8c-0.1,0.5-0.2,1.1-0.2,1.7v12.3h-3.1L254.1,300.8L254.1,300.8z"/>
		<path d="M283.5,315.8l-0.2-2.6h-0.1c-1,1.6-2.8,3-5.3,3c-3.5,0-5.3-2.9-5.3-5.9c0-4.9,3.7-7.6,10.4-7.6v-0.4
			c0-1.7-0.4-4.7-3.9-4.7c-1.6,0-3.3,0.6-4.5,1.5l-0.7-2.4c1.4-1.1,3.5-1.8,5.7-1.8c5.3,0,6.6,4.3,6.6,8.4v7.6
			c0,1.8,0.1,3.5,0.3,4.9L283.5,315.8L283.5,315.8z M283,305.3c-3.4-0.1-7.3,0.6-7.3,4.6c0,2.4,1.4,3.5,3,3.5c2.2,0,3.7-1.7,4.2-3.4
			c0.1-0.4,0.2-0.8,0.2-1.2L283,305.3L283,305.3z"/>
		<path d="M294.7,289.4v5.9h4.5v2.8h-4.5v11c0,2.5,0.6,4,2.4,4c0.8,0,1.4-0.1,1.8-0.3l0.1,2.8c-0.6,0.3-1.6,0.5-2.8,0.5
			c-1.5,0-2.6-0.5-3.4-1.6c-0.9-1.1-1.2-2.9-1.2-5.3v-11.1H289v-2.8h2.7v-4.9L294.7,289.4z"/>
		<path d="M306.2,289.6c0,1.3-0.7,2.3-2,2.3c-1.1,0-1.9-1-1.9-2.3c0-1.3,0.8-2.3,2-2.3C305.5,287.2,306.2,288.3,306.2,289.6z
			 M302.7,315.8v-20.4h3.1v20.4H302.7z"/>
		<path d="M326.7,305.4c0,7.6-4.4,10.9-8.6,10.9c-4.7,0-8.3-4.1-8.3-10.5c0-6.8,3.8-10.9,8.5-10.9
			C323.3,294.9,326.7,299.1,326.7,305.4z M313,305.6c0,4.5,2.2,7.9,5.2,7.9c3,0,5.2-3.3,5.2-7.9c0-3.5-1.5-7.9-5.2-7.9
			C314.6,297.6,313,301.7,313,305.6z"/>
		<path d="M330.6,300.8c0-2.1,0-3.8-0.1-5.5h2.8l0.2,3.4h0.1c0.9-1.9,2.9-3.8,5.7-3.8c2.4,0,6.1,1.7,6.1,8.7v12.2h-3.1V304
			c0-3.3-1-6-4-6c-2.1,0-3.7,1.7-4.2,3.8c-0.1,0.5-0.2,1.1-0.2,1.7v12.3h-3.1L330.6,300.8L330.6,300.8z"/>
		<path d="M360,315.8l-0.2-2.6h-0.1c-1,1.6-2.8,3-5.3,3c-3.5,0-5.3-2.9-5.3-5.9c0-4.9,3.7-7.6,10.4-7.6v-0.4c0-1.7-0.4-4.7-3.9-4.7
			c-1.6,0-3.3,0.6-4.5,1.5l-0.7-2.4c1.4-1.1,3.5-1.8,5.7-1.8c5.3,0,6.6,4.3,6.6,8.4v7.6c0,1.8,0.1,3.5,0.3,4.9L360,315.8L360,315.8z
			 M359.5,305.3c-3.4-0.1-7.3,0.6-7.3,4.6c0,2.4,1.4,3.5,3,3.5c2.2,0,3.7-1.7,4.2-3.4c0.1-0.4,0.2-0.8,0.2-1.2V305.3z"/>
		<path d="M367.6,285.8h3.1v30h-3.1V285.8z"/>
		<path d="M401.9,314.5c-1.4,0.6-4.1,1.6-7.4,1.6c-3.6,0-6.6-1.1-9-3.8c-2.1-2.4-3.3-6.2-3.3-10.6c0-8.5,5-14.7,13-14.7
			c2.8,0,5,0.7,6,1.3l-0.7,3c-1.3-0.7-2.9-1.2-5.3-1.2c-5.8,0-9.7,4.3-9.7,11.4c0,7.2,3.7,11.5,9.3,11.5c2,0,3.4-0.3,4.1-0.8v-8.5
			H394v-3h7.9L401.9,314.5L401.9,314.5z"/>
		<path d="M406.6,301.7c0-2.4,0-4.5-0.1-6.4h2.7l0.1,4h0.1c0.8-2.7,2.7-4.5,4.8-4.5c0.4,0,0.6,0,0.9,0.1v3.5
			c-0.3-0.1-0.6-0.1-1.1-0.1c-2.2,0-3.8,2-4.2,4.8c-0.1,0.5-0.1,1.1-0.1,1.7v10.9h-3.1L406.6,301.7L406.6,301.7z"/>
		<path d="M433.5,305.4c0,7.6-4.4,10.9-8.6,10.9c-4.7,0-8.3-4.1-8.3-10.5c0-6.8,3.8-10.9,8.5-10.9
			C430.1,294.9,433.5,299.1,433.5,305.4z M419.8,305.6c0,4.5,2.2,7.9,5.2,7.9c3,0,5.2-3.3,5.2-7.9c0-3.5-1.5-7.9-5.2-7.9
			C421.4,297.6,419.8,301.7,419.8,305.6z"/>
		<path d="M451.9,310.2c0,2.1,0,4,0.1,5.6h-2.8l-0.2-3.3H449c-0.8,1.6-2.6,3.8-5.7,3.8c-2.7,0-6-1.8-6-9v-12h3.1v11.3
			c0,3.9,1,6.5,3.8,6.5c2.1,0,3.6-1.7,4.1-3.4c0.2-0.5,0.3-1.2,0.3-1.9v-12.5h3.1L451.9,310.2L451.9,310.2z"/>
		<path d="M457.1,302c0-2.6-0.1-4.7-0.1-6.7h2.8l0.1,3.5h0.1c1.3-2.5,3.3-4,6.1-4c4.2,0,7.3,4.2,7.3,10.4c0,7.3-3.8,11-7.8,11
			c-2.3,0-4.3-1.2-5.3-3.2h-0.1v11.1h-3.1L457.1,302L457.1,302z M460.2,307.4c0,0.5,0.1,1.1,0.1,1.5c0.6,2.6,2.5,4.3,4.7,4.3
			c3.3,0,5.2-3.2,5.2-7.9c0-4.1-1.8-7.6-5.1-7.6c-2.1,0-4.1,1.8-4.7,4.6c-0.1,0.5-0.2,1-0.2,1.5L460.2,307.4L460.2,307.4z"/>
	</g>
	<path d="M284.5,252.9c0,9.3,0.5,18.3,1.8,23.8h-32.9l0.1-9.9l0.1-6.3c-8,10.2-14,18.4-32.2,18.4c-22.2,0-35.5-14.5-35.5-30.2
		c0-25.6,24.4-37.4,66.4-33.5V214c0-5.2-5.1-16.9-21.9-16.9c-11.2,0-23.1,3.4-30.3,7.3l-0.1-21c7.6-3.8,16.5-7.4,36.5-7.4
		c36.6,0,48.1,19.4,48.1,42.5V252.9z M252.9,232.2c-18,0-34.3-1-34.3,10.7c0,7.9,5.3,12.5,13,12.5c8.3,0,12.6-3.4,17.1-9.2
		c1-1.3,2.8-3.5,2.8-5.3L252.9,232.2z"/>
	<path d="M473.2,252.9c0,9.3,0.5,18.3,1.8,23.8h-32.9l0.1-9.9l0.1-6.3c-8,10.2-14,18.4-32.2,18.4c-22.2,0-35.5-14.5-35.5-30.2
		c0-25.6,24.4-37.4,66.4-33.5V214c0-5.2-5.1-16.9-21.9-16.9c-11.2,0-23.1,3.4-30.3,7.3l-0.1-21c7.6-3.8,16.5-7.4,36.5-7.4
		c36.6,0,48.1,19.4,48.1,42.5V252.9z M441.6,232.2c-18,0-34.3-1-34.3,10.7c0,7.9,5.3,12.5,13,12.5c8.3,0,12.6-3.4,17.1-9.2
		c1-1.3,2.8-3.5,2.8-5.3L441.6,232.2z"/>
	<path d="M294.3,248.7c6.4,3.4,18.6,6.8,28.8,6.8c10.5,0,16.7-2.6,16.7-7.6c0-5.2-5.5-7.9-18.2-11.7c-23.2-6.6-29.9-15.6-29.7-26.9
		c0-18.3,16.3-33.5,43.9-33.5c13,0,24.7,2.8,31.6,5.8l-2.7,23.4c-5-2.2-16.9-6.6-26.2-6.6c-8.4,0-15.4,3-15.4,7.8s8.7,5.9,22.3,10.1
		c21.2,6.2,27.7,16.9,27.9,31c0,18.3-16.2,31.6-48.1,31.6c-14.6,0-23.9-1.4-32.3-5.4L294.3,248.7z"/>
</g>
</svg>
