<?xml version="1.0" encoding="utf-8"?>
<!-- Generator: Adobe Illustrator 15.0.0, SVG Export Plug-In . SVG Version: 6.00 Build 0)  -->
<!DOCTYPE svg PUBLIC "-//W3C//DTD SVG 1.1//EN" "http://www.w3.org/Graphics/SVG/1.1/DTD/svg11.dtd">
<svg version="1.1" id="Calque_1" xmlns="http://www.w3.org/2000/svg" xmlns:xlink="http://www.w3.org/1999/xlink" x="0px" y="0px"
	 width="500px" height="500px" viewBox="0 0 500 500" enable-background="new 0 0 500 500" xml:space="preserve">
<g>
	<path fill="#1A171B" d="M80.625,195.798h18.789l17.65,101.632H98.988l-4.128-26.902H54.434L38.777,297.43H19.703L80.625,195.798z
		 M86.746,213.733h-0.285l-24.483,43.271h31.031L86.746,213.733z"/>
	<path fill="#1A171B" d="M144.679,263.837c-0.38,7.878,1.565,13.43,5.836,16.654c4.27,3.228,10.106,4.84,17.508,4.84
		c2.371,0,4.911-0.285,7.616-0.854c2.704-0.57,5.146-1.495,7.331-2.776c2.182-1.281,4.008-2.94,5.48-4.982
		c1.47-2.039,2.207-4.576,2.207-7.614c0-2.848-0.689-5.218-2.064-7.117c-1.376-1.897-3.181-3.487-5.409-4.769
		c-2.23-1.281-4.818-2.371-7.757-3.273c-2.943-0.901-5.979-1.78-9.11-2.634c-2.277-0.569-4.982-1.353-8.113-2.349
		c-3.132-0.997-6.17-2.466-9.11-4.413c-2.942-1.944-5.433-4.484-7.473-7.615c-2.042-3.132-3.061-7.117-3.061-11.957
		c0-4.555,0.854-8.776,2.562-12.668c1.708-3.89,4.175-7.235,7.402-10.035c3.225-2.798,7.188-4.982,11.885-6.548
		c4.697-1.566,10.035-2.349,16.014-2.349c5.313,0,10.295,0.569,14.946,1.708c4.648,1.139,8.683,2.989,12.099,5.551
		c3.416,2.562,6.071,5.907,7.971,10.035c1.897,4.128,2.751,9.181,2.562,15.159h-17.081c-0.096-6.356-1.85-10.936-5.267-13.736
		c-3.416-2.798-8.59-4.199-15.515-4.199c-1.234,0-2.943,0.143-5.125,0.427c-2.184,0.285-4.366,0.95-6.548,1.993
		c-2.184,1.045-4.081,2.54-5.693,4.484c-1.615,1.946-2.42,4.626-2.42,8.042c0,2.469,0.569,4.509,1.708,6.121
		c1.139,1.615,2.68,2.989,4.626,4.128c1.943,1.139,4.199,2.088,6.761,2.847c2.562,0.761,5.266,1.473,8.113,2.135
		c3.605,0.95,7.235,1.993,10.889,3.132c3.652,1.138,6.975,2.729,9.964,4.768c2.989,2.042,5.409,4.722,7.259,8.042
		c1.851,3.323,2.776,7.641,2.776,12.953c0,3.985-0.761,7.925-2.277,11.814c-1.519,3.893-3.963,7.402-7.331,10.533
		c-3.369,3.132-7.735,5.672-13.095,7.615c-5.362,1.944-11.886,2.918-19.572,2.918c-5.978,0-11.387-0.688-16.227-2.063
		c-4.839-1.375-8.945-3.51-12.312-6.405c-3.37-2.894-5.932-6.619-7.687-11.174c-1.757-4.556-2.54-10.011-2.349-16.37H144.679z"/>
	<path fill="#1A171B" d="M239.477,195.798h37.294c13.096,0,23.011,3.537,29.75,10.604c6.736,7.07,10.105,17.722,10.105,31.956
		c0,3.038-0.334,6.43-0.996,10.177c-0.665,3.75-1.662,7.544-2.989,11.387c-1.33,3.844-2.989,7.544-4.982,11.103
		s-4.366,6.668-7.116,9.323c-3.039,2.942-5.979,5.48-8.826,7.615c-2.847,2.136-6.027,3.915-9.537,5.338
		c-3.512,1.424-7.521,2.469-12.027,3.132c-4.508,0.665-9.941,0.996-16.298,0.996h-35.729L239.477,195.798z M239.051,282.911h22.206
		c5.125,0,9.608-0.876,13.452-2.633c3.843-1.755,7.139-3.986,9.893-6.69c2.751-2.704,5.053-5.766,6.903-9.181
		c1.851-3.416,3.32-6.762,4.412-10.035c1.09-3.274,1.851-6.356,2.278-9.252c0.426-2.894,0.641-5.196,0.641-6.904
		c0-8.918-1.947-15.8-5.837-20.639c-3.892-4.84-9.395-7.26-16.512-7.26h-22.205L239.051,282.911z"/>
	<path fill="#1A171B" d="M341.962,195.798h74.019l-3.132,15.373h-56.511l-5.551,26.618h52.382l-2.989,14.519h-52.523l-6.121,29.749
		h56.937l-3.132,15.373h-74.444L341.962,195.798z"/>
	<path fill="#1A171B" d="M432.063,195.798h17.793l-17.935,86.259h51.243l-3.132,15.373h-69.036L432.063,195.798z"/>
</g>
</svg>
