<?xml version="1.0" encoding="utf-8"?>
<!-- Generator: Adobe Illustrator 19.1.0, SVG Export Plug-In . SVG Version: 6.00 Build 0)  -->
<svg version="1.1" id="Calque_1" xmlns="http://www.w3.org/2000/svg" xmlns:xlink="http://www.w3.org/1999/xlink" x="0px" y="0px"
	 viewBox="-99 204.6 300 93.4" style="enable-background:new -99 204.6 300 93.4;" xml:space="preserve">
<style type="text/css">
	.st0{fill:#0C3C7C;}
</style>
<path d="M49.8,298H29.2l9-26.8H24.6l-9,26.8H-5.1l23.5-69.2c1.2-3.6,5-6.5,8.6-6.5h42c3.5,0,5.4,2.9,4.3,6.5
	C73.3,228.8,49.8,298,49.8,298z M49.2,229.5H42c-1.7,0-3.6,1.4-4.2,3.2l-10.6,31.4h13.6l10.6-31.4C51.8,230.9,50.9,229.5,49.2,229.5
	 M131.6,229.5h-25.7c-1.7,0-3.6,1.4-4.2,3.2l-6.8,20.1c-0.6,1.7,0.3,3.2,2.1,3.2h19.9c3.6,0,5.4,2.9,4.2,6.5l-9.9,29.1
	c-1.2,3.6-5,6.5-8.6,6.5H58.8l2.4-7.1h26.2c1.8,0,3.7-1.5,4.4-3.2l7.2-21.5c0.6-1.7-0.3-3.2-2.1-3.2H77c-3.6,0-5.4-2.9-4.2-6.5
	l9.5-27.7c1.2-3.6,5-6.5,8.6-6.5h43 M172.8,291.5c-1.3,3.6-5.1,6.5-8.7,6.5h-40c-3.6,0-5.5-2.9-4.2-6.5l23.4-69.2H164l-22.1,65.3
	c-0.6,1.7,0.3,3.2,2.1,3.2h5.1c1.7,0,3.7-1.5,4.2-3.2l22.1-65.3h20.7 M16.3,208.2H-4.4l-27,79.5c-0.6,1.7-2.5,3.2-4.2,3.2h-7
	l28-82.8h-20.6l-27,79.6c-0.6,1.7-2.5,3.2-4.4,3.2h-7l28.2-82.8h-20.8L-96.6,298h76c3.6,0,7.4-2.9,8.7-6.5l23.3-69.1
	c1.3-4,5.6-7.2,9.6-7.2h177.6l2.4-7.1"/>
<path class="st0" d="M47.4,294.5H26.8l9-26.8H22.2l-9,26.8H-7.5L16,225.3c1.2-3.6,5-6.5,8.6-6.5h42.1c3.5,0,5.4,2.9,4.2,6.5
	L47.4,294.5L47.4,294.5z M46.8,226h-7.2c-1.7,0-3.6,1.4-4.2,3.2l-10.7,31.4h13.6l10.6-31.4C49.4,227.3,48.5,226,46.8,226 M129.2,226
	h-25.7c-1.7,0-3.6,1.4-4.2,3.2l-6.8,20.1c-0.6,1.7,0.3,3.2,2.1,3.2h19.9c3.6,0,5.4,2.9,4.2,6.5l-9.9,29.1c-1.2,3.6-5,6.5-8.6,6.5
	H56.4l2.4-7.1H85c1.8,0,3.7-1.5,4.4-3.2l7.2-21.4c0.6-1.7-0.3-3.2-2.1-3.2H74.6c-3.6,0-5.4-2.9-4.2-6.5l9.5-27.7
	c1.2-3.6,5-6.5,8.6-6.5h43 M170.4,288c-1.3,3.6-5.1,6.5-8.7,6.5h-40c-3.6,0-5.5-2.9-4.2-6.5l23.4-69.2h20.7l-22.1,65.3
	c-0.6,1.7,0.3,3.2,2.1,3.2h5.1c1.7,0,3.7-1.5,4.2-3.2l22.1-65.3h20.7 M13.9,204.6H-6.8l-27,79.6c-0.6,1.7-2.5,3.2-4.2,3.2h-7
	l28-82.8h-20.7l-26.9,79.6c-0.6,1.7-2.5,3.2-4.4,3.2h-7l28.1-82.8h-20.7L-99,294.5h76c3.6,0,7.4-2.9,8.7-6.5L9,219
	c1.3-4,5.6-7.2,9.6-7.2h177.6l2.4-7.1"/>
</svg>
