<?xml version="1.0" encoding="utf-8"?>
<!-- Generator: Adobe Illustrator 21.0.2, SVG Export Plug-In . SVG Version: 6.00 Build 0)  -->
<svg version="1.1" id="Calque_1" xmlns="http://www.w3.org/2000/svg" xmlns:xlink="http://www.w3.org/1999/xlink" x="0px" y="0px"
	 viewBox="0 0 500 116" style="enable-background:new 0 0 500 116;" xml:space="preserve">
<style type="text/css">
	.st0{fill:#008DD2;}
	.st1{fill:#16B0A6;}
	.st2{fill:#E41819;}
	.st3{fill:#781C7F;}
	.st4{fill:#0099A1;}
	.st5{fill:#B41335;}
	.st6{fill:#006BB3;}
	.st7{fill:#E2001A;}
</style>
<path class="st0" d="M85.1,33.4c8.3,0.8,16,4.8,21.1,11.7c1.7,2.3,3.2,5,4.4,8c1.3-14.9-4.3-32.6-17.5-38.4
	c-13.7-6.1-31.5,2.7-41.5,14.4c4.7-1.9,9.5-2.9,13.9-3C72.9,26,79.7,28.7,85.1,33.4z"/>
<path class="st1" d="M110.6,53c-0.4,4.4-1.3,8.5-2.9,12.1c-3.2,7.3-9.2,12.6-16.4,15.3c-5.6,8.6-14.7,14.2-25,14.3
	c-2.2,0-4.4-0.2-6.8-0.6c12.5,9,31.5,13.2,43.5,4.3C115.8,89,116.6,67.8,110.6,53z"/>
<path class="st2" d="M51.1,86c-5.3-7.1-6.8-16-4.9-24.5c-3.3-7.5-3.6-16-0.2-23.7c1.3-3,3.3-6,5.7-8.8C37.9,34.4,24.9,46.7,25,60.8
	C25.2,77.4,43.5,91,59.6,94C56.2,91.7,53.3,88.9,51.1,86z"/>
<path class="st3" d="M85.1,33.4c-8.4-0.9-17.4,1.5-25,7.1C52.7,46,48,53.6,46.2,61.5c3.3,7.6,9.7,14.2,18.3,18c9,4,18.7,4,26.8,0.9
	c3.7-5.7,5.9-12.8,5.8-20.4C97,49.2,92.3,39.6,85.1,33.4z"/>
<path class="st4" d="M64.4,79.5c-8.6-3.8-14.9-10.4-18.3-18C44.2,70,45.7,78.9,51,86c2.2,2.9,5.1,5.7,8.5,8.1
	c2.3,0.4,4.6,0.7,6.8,0.6c10.3-0.1,19.4-5.7,25-14.3C83.1,83.5,73.5,83.5,64.4,79.5z"/>
<path class="st5" d="M60,40.5c7.6-5.7,16.6-8,25-7.1c-5.4-4.6-12.2-7.4-19.5-7.3c-4.4,0-9.2,1.1-13.9,3c-2.4,2.8-4.3,5.8-5.7,8.8
	c-3.4,7.7-3.1,16.2,0.2,23.6C47.9,53.5,52.7,45.9,60,40.5z"/>
<path class="st6" d="M106.2,45c-5.1-6.9-12.8-10.9-21.1-11.7c7.2,6.2,11.9,15.8,12,26.7c0.1,7.6-2.1,14.6-5.8,20.4
	c7.2-2.8,13.2-8.1,16.4-15.3c1.6-3.5,2.5-7.7,2.9-12.1C109.4,50.1,107.9,47.3,106.2,45z"/>
<path class="st7" d="M207.9,74.6V53c0,0,0,0,6.6,0s6.1-10.3,6.1-10.3h-12.8v-7.4h-14c0,0,0,29.4,0,42.3s16.5,12.8,16.5,12.8h10.3
	v-10c0,0-3.4,0-8.1,0S207.9,74.6,207.9,74.6z"/>
<path class="st7" d="M384.1,74.6V53c0,0,0,0,6.8,0s6.3-10.3,6.3-10.3h-13v-7.4h-14.3c0,0,0,29.4,0,42.3s16.9,12.8,16.9,12.8h10.5
	v-10c0,0-3.5,0-8.3,0C384,80.4,384.1,74.6,384.1,74.6z"/>
<rect x="225.6" y="25" class="st7" width="14.2" height="65.4"/>
<rect x="401.2" y="42.5" class="st7" width="15.4" height="47.9"/>
<ellipse class="st7" cx="408.9" cy="30.9" rx="8.2" ry="6.4"/>
<path class="st7" d="M165.2,42.1c-23.5,0-35.6,8.6-35.6,23.6s11.8,25.2,30.5,25.2c11.5,0,14.6-2.5,14.6-2.5v2.5
	c0,0,13.6,0.6,13.6-6.1v-31C188.3,53.9,188.7,42.1,165.2,42.1z M173.6,77.8c0,0-3.4,2.9-9.4,2.9s-19.8-1.4-19.8-15.1
	S164,52.5,164,52.5s9.5-0.4,9.5,2.9L173.6,77.8L173.6,77.8z"/>
<path class="st7" d="M279.7,42.1c-23.5,0-35.6,8.6-35.6,23.6s11.8,25.2,30.5,25.2c11.5,0,14.6-2.5,14.6-2.5v2.5
	c0,0,13.6,0.6,13.6-6.1v-31C302.8,53.9,303.2,42.1,279.7,42.1z M288.1,77.8c0,0-3.4,2.9-9.4,2.9s-19.8-1.4-19.8-15.1
	s19.6-13.1,19.6-13.1s9.5-0.4,9.5,2.9L288.1,77.8L288.1,77.8z"/>
<path class="st7" d="M343.8,42.5c-17.9,0-21.5,2.4-21.5,2.4v-2.4c-14.2,0-13.9,5.6-13.9,5.6v42.2h14.9V56.2
	c25.9-10,26.8,3.6,26.8,3.6v30.5H365c0,0,0-25.1,0-30.1S361.7,42.5,343.8,42.5z"/>
<path class="st7" d="M474.8,78.9c0,0-3.9,1.8-16.9,1.8S436,76.5,436,65.9s11.1-13.4,19.5-13.4s15.4,0.9,15.4,0.9v-9.9
	c-5-0.9-15.2-1-15.2-1c-23.8,0-34.8,9.4-34.8,23.9s9.8,25.2,33.6,25.2C478.4,91.6,474.8,78.9,474.8,78.9z"/>
</svg>
