<?xml version="1.0" encoding="utf-8"?>
<!-- Generator: Adobe Illustrator 21.0.2, SVG Export Plug-In . SVG Version: 6.00 Build 0)  -->
<svg version="1.1" id="Calque_1" xmlns="http://www.w3.org/2000/svg" xmlns:xlink="http://www.w3.org/1999/xlink" x="0px" y="0px"
	 viewBox="0 0 500 302" style="enable-background:new 0 0 500 302;" xml:space="preserve">
<style type="text/css">
	.st0{fill:#7B7777;}
	.st1{fill:#E2001A;}
</style>
<path class="st0" d="M116.4,196.2H78.9l-5.2,12.6H40l40.2-76.4h36l40.2,76.4h-34.6L116.4,196.2z M109.5,179.7l-11.8-27.5L86,179.7
	H109.5z"/>
<path class="st0" d="M202,132.4h100.4v18.9h-33.7v57.5h-33v-57.5H202V132.4z"/>
<path class="st0" d="M360.3,182.7l31-0.1c0.7,3.6,2,6.3,4.1,8.2c3.4,3,8.1,4.6,14.4,4.6c4.6,0,8.2-0.8,10.7-2.3
	c2.5-1.6,3.8-3.4,3.8-5.4c0-1.9-1.2-3.7-3.6-5.2s-7.9-3-16.7-4.4c-14.3-2.3-24.4-5.3-30.5-9.1c-6.1-3.8-9.2-8.6-9.2-14.5
	c0-3.9,1.6-7.5,4.7-10.9s7.9-6.1,14.1-8.1c6.3-2,14.9-2.9,25.9-2.9c13.5,0,23.7,1.8,30.8,5.4c7.1,3.6,11.3,10.7,12.6,18.5l-30.7-0.1
	c-0.8-3.4-2.5-5.8-5.1-7.4c-2.6-1.5-6.2-2.3-10.8-2.3c-3.8,0-6.6,0.6-8.5,1.7c-1.9,1.1-2.9,2.5-2.9,4.2c0,1.2,0.8,2.3,2.4,3.2
	c1.5,1,5.2,1.9,10.9,2.8c14.2,2.2,24.4,4.4,30.6,6.6c6.1,2.2,10.6,5,13.4,8.3s4.2,7,4.2,11.1c0,4.8-1.9,9.3-5.6,13.3
	s-9,7.2-15.7,9.2c-6.7,2.1-15.2,3.2-25.4,3.2c-17.9,0-30.3-2.5-37.2-7.4C365.1,197.9,361.2,190.3,360.3,182.7z"/>
<path class="st0" d="M208,202.5c0,5.6-7.6,10.1-17,10.1s-17-4.5-17-10.1s7.6-10.1,17-10.1S208,196.9,208,202.5z"/>
<path class="st0" d="M342.6,202.5c0,5.6-7.6,10.1-17,10.1s-17-4.5-17-10.1s7.6-10.1,17-10.1S342.6,196.9,342.6,202.5z"/>
<path class="st1" d="M115.5,193.9H78l-5.2,12.6H39l40.2-76.4h36l40.2,76.4h-34.6L115.5,193.9z M108.6,177.3l-11.8-27.5l-11.7,27.5
	H108.6z"/>
<path class="st1" d="M201.1,130.1h100.4V149h-33.7v57.5h-33V149h-33.7L201.1,130.1L201.1,130.1z"/>
<path class="st1" d="M359.4,180.4l31-0.1c0.7,3.6,2,6.3,4.1,8.2c3.4,3,8.1,4.6,14.4,4.6c4.6,0,8.2-0.8,10.7-2.3
	c2.5-1.6,3.8-3.4,3.8-5.4c0-1.9-1.2-3.7-3.6-5.2s-7.9-3-16.7-4.4c-14.3-2.3-24.4-5.3-30.5-9.1c-6.1-3.8-9.2-8.6-9.2-14.5
	c0-3.9,1.6-7.5,4.7-10.9s7.9-6.1,14.1-8.1c6.3-2,14.9-2.9,25.9-2.9c13.5,0,23.7,1.8,30.8,5.4c7.1,3.6,11.3,10.7,12.6,18.5l-30.7-0.1
	c-0.8-3.4-2.5-5.8-5.1-7.4c-2.6-1.5-6.2-2.3-10.8-2.3c-3.8,0-6.6,0.6-8.5,1.7c-1.9,1.1-2.9,2.5-2.9,4.2c0,1.2,0.8,2.3,2.4,3.2
	c1.5,1,5.2,1.9,10.9,2.8c14.2,2.2,24.4,4.4,30.6,6.6c6.1,2.2,10.6,5,13.4,8.3s4.2,7,4.2,11.1c0,4.8-1.9,9.3-5.6,13.3
	c-3.7,4.1-9,7.2-15.7,9.3c-6.7,2.1-15.2,3.2-25.4,3.2c-17.9,0-30.3-2.5-37.2-7.4C364.2,195.5,360.3,188,359.4,180.4z"/>
<ellipse class="st1" cx="190.2" cy="200.1" rx="17" ry="10.1"/>
<ellipse class="st1" cx="324.7" cy="200.1" rx="17" ry="10.1"/>
<path d="M34.1,253.8c-1.3,4.3-2.6,8.9-3.8,13.5h-5.7c4.1-12.6,8.2-25.6,12-38.5h6.2c2.6,12.8,5.5,25.8,8.4,38.5h-5.5
	c-0.8-4.6-1.8-9.2-2.7-13.5H34.1z M42,247.7l-2.7-12.9l-3.8,12.9H42z"/>
<path d="M57.3,242.4L57.3,242.4c1.1-2.8,2.5-4.6,4.7-4.6c0.5,0,1,0.1,1.5,0.3l0.1,6.8c-0.6-0.3-1.2-0.6-1.9-0.6
	c-2.5,0-3.9,2.7-4.4,6.8c-0.4,3.1-0.4,9.2-0.4,12.6v3.6h-4.8c0.3-8.1,0.7-15.9,0.7-28.7h4.6L57.3,242.4z"/>
<path d="M71.8,244.2c-0.1,2.5-0.4,11.2-0.4,13.2c0,2.4,0.3,4.4,1.8,4.4c1.4,0,1.9-0.3,2.8-0.7l-0.6,5.9c-1.3,0.6-2.5,0.9-3.9,0.9
	c-3.2,0-4.9-1.8-4.9-7.4c0-2.9,0.5-15,0.6-16.3h-2.4l0.1-5.7h2.5l0.2-5.3l4.4-1.6l-0.1,6.9h4.3l-0.1,5.7H71.8L71.8,244.2z"/>
<path d="M84.1,238.6c-0.4,8.6-0.6,17.1-0.7,28.7h-5.1c0.6-9.5,0.8-19.1,0.8-28.7H84.1z M79.2,233.7l0.1-5.4h5l-0.1,5.4H79.2z"/>
<path d="M100.5,267c-1.5,0.6-3.1,1-4.8,1c-5.5,0-8.5-5.1-8.5-14.3c0-2.3,0-15.8,9.2-15.8c1.7,0,3.4,0.3,5,1.1l0.3,6.2
	c-1.4-0.8-2.9-1.4-4.4-1.4c-3.5,0-5.2,4-5.2,9.6c0,5.3,1.6,8.6,4.9,8.6c1.4,0,2.9-0.6,4.2-1.3L100.5,267z"/>
<path d="M104.5,267.3c0.5-11.8,0.9-23.1,1.1-38.5h5c-0.6,12.8-0.9,25.7-1.1,38.5H104.5z"/>
<path d="M118.2,253.3v0.9c0,5.4,2.2,8.4,5.3,8.4c2,0,3.9-0.9,5.7-1.8l-0.6,6.1c-1.8,0.7-3.7,1.1-5.6,1.1c-8.8,0-9.6-10-9.6-14
	c0-5.3,1.2-16.1,9.3-16.1c4.6,0,8,3.9,8,12.1c0,1.2-0.1,2.4-0.2,3.3H118.2L118.2,253.3z M126.2,249.5c0-4.4-0.9-6.8-3.5-6.8
	c-2.4,0-4,3.1-4.3,6.8H126.2z"/>
<path d="M132.5,260.5c1.6,1.1,3.2,2.1,4.9,2.1c1.1,0,2.6-0.6,2.6-3c0-4-6.5-7.2-6.5-13.9c0-4.7,2-7.9,6.5-7.9c1.7,0,3.4,0.4,5.1,0.9
	l0.2,5.9c-1.1-0.8-2.4-1.5-3.8-1.5c-1.4,0-2.9,0.3-2.9,2.8c0,3.6,6.5,7,6.5,14.2c0,5.9-4,7.8-6.9,7.8c-1.9,0-3.7-0.5-5.5-1.2
	L132.5,260.5z"/>
<path d="M177.5,228.7l-0.1,6.4c-2.1-0.2-4.2-0.3-7.2-0.3c-0.3,9.8-0.7,19.8-0.7,32.4h-5.4c0.5-9.6,0.8-21.4,1-32.4
	c-5,0-5.6,0.2-7.2,0.2l0.1-6.4L177.5,228.7L177.5,228.7z"/>
<path d="M180.9,242.4L180.9,242.4c1.1-2.8,2.5-4.6,4.7-4.6c0.5,0,1,0.1,1.5,0.3l0.1,6.8c-0.6-0.3-1.2-0.6-1.9-0.6
	c-2.5,0-3.9,2.7-4.4,6.8c-0.4,3.1-0.4,9.2-0.4,12.6v3.6h-4.8c0.3-8.1,0.7-15.9,0.7-28.7h4.6L180.9,242.4z"/>
<path d="M193.5,253.3v0.9c0,5.4,2.2,8.4,5.3,8.4c2,0,3.9-0.9,5.7-1.8l-0.6,6.1c-1.8,0.7-3.7,1.1-5.6,1.1c-8.8,0-9.6-10-9.6-14
	c0-5.3,1.2-16.1,9.3-16.1c4.6,0,8,3.9,8,12.1c0,1.2-0.1,2.4-0.2,3.3H193.5L193.5,253.3z M201.4,249.5c0-4.4-0.9-6.8-3.5-6.8
	c-2.4,0-4,3.1-4.3,6.8H201.4z M197.1,227h5.4l-3.3,7.4h-3.8L197.1,227z"/>
<path d="M207.8,244.2l0.2-5.7h2.3V235c0-6.9,3.4-7.7,5.3-7.7c1.4,0,2.8,0.3,4.2,0.9l0.2,5.5c-0.9-0.6-2-1.1-3-1.1
	c-2.4,0-2.4,2.8-2.4,5.9h4.3l-0.2,5.7h-4.1l-0.5,23h-4.9c0.4-7.6,0.5-15.2,0.7-23L207.8,244.2L207.8,244.2z"/>
<path d="M226.4,238.6c-0.4,8.6-0.6,17.1-0.7,28.7h-5.1c0.6-9.5,0.8-19.1,0.8-28.7H226.4z M221.5,233.7l0.1-5.4h5l-0.1,5.4H221.5z"/>
<path d="M230,267.3c0.5-11.8,0.9-23.1,1.1-38.5h5c-0.6,12.8-0.9,25.7-1.1,38.5H230z"/>
<path d="M243.6,253.3v0.9c0,5.4,2.2,8.4,5.3,8.4c2,0,3.9-0.9,5.7-1.8l-0.6,6.1c-1.8,0.7-3.7,1.1-5.6,1.1c-8.9,0-9.6-10-9.6-14
	c0-5.3,1.2-16.1,9.3-16.1c4.6,0,8,3.9,8,12.1c0,1.2-0.1,2.4-0.2,3.3H243.6L243.6,253.3z M251.6,249.5c0-4.4-0.9-6.8-3.5-6.8
	c-2.4,0-4,3.1-4.3,6.8H251.6z M247.2,227h5.4l-3.3,7.4h-3.8L247.2,227z"/>
<path d="M257.9,260.5c1.6,1.1,3.2,2.1,4.9,2.1c1.1,0,2.6-0.6,2.6-3c0-4-6.5-7.2-6.5-13.9c0-4.7,2-7.9,6.5-7.9c1.7,0,3.4,0.4,5.1,0.9
	l0.2,5.9c-1.1-0.8-2.4-1.5-3.8-1.5s-2.9,0.3-2.9,2.8c0,3.6,6.5,7,6.5,14.2c0,5.9-4,7.8-6.9,7.8c-1.9,0-3.7-0.5-5.5-1.2L257.9,260.5z
	"/>
<path d="M297.9,262.7L297.9,262.7c-1.6,3.5-3.5,5.3-6.3,5.3c-4.5,0-7.3-5.8-7.3-13.1c0-9.7,3.6-17,10.5-17c1.1,0,2.3,0.2,3.4,0.5
	c0.1-2.6,0.1-4.6,0.1-9.6h4.9c-0.4,6.8-1,27-1,38.5h-4.5L297.9,262.7z M295.7,243.5c-4.4,0-6.5,4.7-6.5,10.9c0,4.4,1.3,7.9,4.1,7.9
	c2.6,0,4-3.8,4.4-7.6c0.3-3.4,0.4-7.2,0.4-10.6C297.3,243.8,296.5,243.5,295.7,243.5z"/>
<path d="M311,253.3v0.9c0,5.4,2.2,8.4,5.3,8.4c2,0,3.9-0.9,5.7-1.8l-0.6,6.1c-1.8,0.7-3.7,1.1-5.6,1.1c-8.8,0-9.6-10-9.6-14
	c0-5.3,1.2-16.1,9.3-16.1c4.6,0,8,3.9,8,12.1c0,1.2-0.1,2.4-0.2,3.3H311L311,253.3z M319,249.5c0-4.4-0.9-6.8-3.5-6.8
	c-2.4,0-4,3.1-4.3,6.8H319z"/>
<path d="M336.9,267.3c0.5-11.8,0.9-23.1,1.1-38.5h5c-0.6,12.8-0.9,25.7-1.1,38.5H336.9z"/>
<path d="M354.6,267.4c-1,0.3-2.1,0.5-3.2,0.5c-5.5,0-6.1-5.5-6.1-8.1c0-11.7,12.1-7.9,12.1-14.1c0-2.8-1.9-3.2-3.1-3.2
	c-2.3,0-4.6,1-6.7,2.4l0.5-5.4c2.4-1,4.9-1.7,7.4-1.7c3,0,6.7,1.2,6.7,7.5c0,4.1-0.6,13.2-0.6,21.9h-4.8c0.2-2.5,0.3-5.1,0.6-14.8
	c-1.8,2.7-7.5,2.4-7.5,7.5c0,2.7,1.5,3.4,2.9,3.4c0.9,0,1.8-0.4,2.7-0.9L354.6,267.4z"/>
<path d="M390.9,235.8c-1.5-0.9-3.1-1.7-4.8-1.7c-2.2,0-3.8,1.8-3.8,4.3c0,5.9,8.9,9.9,8.9,19.1c0,4.3-1.8,10.4-8.2,10.4
	c-2.2,0-4.3-0.7-6.5-1.5l-0.4-7.1c1.9,1.4,4,2.5,6.1,2.5c1.6,0,3.8-1,3.8-4.3c0-6.1-8.9-10.2-8.9-19.6c0-6.8,3.9-9.8,8-9.8
	c1.8,0,3.7,0.4,5.4,1L390.9,235.8z"/>
<path d="M403.1,267.4c-1,0.3-2.1,0.5-3.2,0.5c-5.5,0-6.1-5.5-6.1-8.1c0-11.7,12.1-7.9,12.1-14.1c0-2.8-1.9-3.2-3.1-3.2
	c-2.3,0-4.6,1-6.7,2.4l0.5-5.4c2.4-1,4.9-1.7,7.4-1.7c3,0,6.7,1.2,6.7,7.5c0,4.1-0.6,13.2-0.6,21.9h-4.8c0.2-2.5,0.3-5.1,0.6-14.8
	c-1.8,2.7-7.5,2.4-7.5,7.5c0,2.7,1.5,3.4,2.9,3.4c0.9,0,1.8-0.4,2.7-0.9L403.1,267.4z"/>
<path d="M432.7,252.4c0,5.6-1.8,15.5-9.7,15.5c-7,0-9.2-8.1-9.2-14.3c0-9.8,4-15.8,9.7-15.8C429,237.9,432.7,243.1,432.7,252.4z
	 M418.6,253.8c0,4.6,1.5,8.5,4.5,8.5c3.4,0,4.9-4.9,4.9-10c0-4.8-1.3-8.7-4.4-8.7C419.9,243.5,418.6,248.4,418.6,253.8z
	 M421.7,233.7h-3.1l1.9-6.8h5.8l1.7,6.8h-3l-1.6-3.9L421.7,233.7z"/>
<path d="M441.1,243.2L441.1,243.2c1.5-4,3.9-5.4,6.6-5.4c3.6,0,6.4,2.4,6.4,9.1c0,3.5-0.5,11.6-0.5,20.3h-5.1
	c0.4-5.5,0.8-11.2,0.8-16.7c0-4.2-1.1-6.2-3.7-6.2c-2.7,0-4.2,3.4-4.7,7.5c-0.5,4.6-0.5,12.8-0.6,15.4h-4.9
	c0.5-8.7,0.8-17.5,0.9-28.7h4.8L441.1,243.2z"/>
<path d="M462,253.3v0.9c0,5.4,2.2,8.4,5.3,8.4c2,0,3.9-0.9,5.7-1.8l-0.6,6.1c-1.8,0.7-3.7,1.1-5.6,1.1c-8.8,0-9.6-10-9.6-14
	c0-5.3,1.2-16.1,9.3-16.1c4.6,0,8,3.9,8,12.1c0,1.2-0.1,2.4-0.2,3.3H462L462,253.3z M470,249.5c0-4.4-0.9-6.8-3.5-6.8
	c-2.4,0-4,3.1-4.3,6.8H470z"/>
<path d="M326.8,67c-17.4-5.5-31.6-14.7-39.1-25.3c-4-5.6-6.8-8-13.4-8c-2.8,0-6.2,0.4-10.9,0.9c-3.2,0.4-6.9,0.8-11.4,1.2
	c-1.9,0.2-3.9,0.3-5.8,0.4c-23.6,1.7-50.3,3.5-74.8,70.4l-1.1,3.1l3.2-0.5c0,0,9.9-1.5,44.7,2.6c16.6,2,26.2,2.8,33,2.8
	c10,0,15.2-1.8,18.7-6.7c4.7-6.6,8.4-11.9,20.5-12.7c13.4-1,17.5-1.7,24-5.7c6.9-4.4,12.6-4.8,14.6-4.8c1.6,0.3,5.9,6.8,9.2,13.9
	l2.3,5l1.3-5.3C342,97.8,347.6,73.5,326.8,67z M288.7,55.1c-0.3-1.3-1.1-3.2-2.4-4.5c-0.8-0.8-1.7-1.1-2.3-1.3
	c-0.2-0.1-0.4-0.1-0.4,0c0-0.2,0.1-0.8,0.1-1.1c0-0.2,0-0.5,0.1-0.7c0.9,1.1,1.9,1.9,2.9,2.7l1.2,1c0.6,0.6,1.4,1.2,2.5,1.5
	c-0.1,0.2-0.2,0.4-0.2,0.7c-0.1,1.8,0.5,4.6,1.4,6.6c-0.8,1.7-1.3,3.6-1.7,5.3c-0.2,0.9-0.4,1.8-0.6,2.7c-0.2-0.4-0.3-0.7-0.4-1.1
	c-0.2-1.6-0.1-3.3,0-5.1C289,59.5,289.2,57.3,288.7,55.1z M238.5,97c1.1,1.2,2,2.4,2.1,3.3c0,0.2-0.6,0.7-1.8,1.3
	C239.1,100.1,239.1,98.4,238.5,97z M226.7,102.4c0,0.1-0.1,0.1-0.1,0.2c-0.1,0-0.1-0.1-0.2-0.1C226.5,102.4,226.6,102.4,226.7,102.4
	z M207.4,95.3c-0.3-0.1-0.6,0-0.9,0v-0.1c-0.1-0.4-0.3-0.8-0.4-1.2c0-0.1,0.1-0.2,0.2-0.2c0.3-0.6,0.6-1.1,1-1.4
	c0.2-0.2,0.5-0.4,0.7-0.7c0.1,0,0.1,0,0.2,0.1l-0.1,0.1c-0.6,1.3-0.2,2.6,0.5,3.5c-0.2,0-0.4,0.1-0.5,0.2
	C207.8,95.4,207.6,95.3,207.4,95.3z M182.9,88.8c0.1,0.1,0.1,0.2,0.2,0.4c-0.1,0-0.2,0-0.3,0C182.8,89,182.8,88.9,182.9,88.8z
	 M200.8,59.7c1.1,0.5,2.5,0.6,3.6,0.8l1.2,0.1c2.8,0.4,4.2,0.8,4.8,1c-0.5,0.3-1.3,0.5-1.6,0.6s-0.5,0.2-0.7,0.3
	c-0.3,0.1-0.7,0.3-1.1,0.4c-1.6,0.6-3.7,1.4-5,2.9c-0.2-0.2-0.4-0.3-0.6-0.5c-1.1-0.9-2.2-1.8-2.8-2.8c0-0.1-0.1-0.1-0.1-0.1
	C199.3,61.5,200.1,60.5,200.8,59.7z M277.1,46.3c0,0.1,0,0.3,0.1,0.4c0.2,0.6,0.3,1.2,0.3,1.8c0,0.1-0.1,0.3-0.1,0.5l0,0
	c-0.2,0-0.3,0.1-0.5,0.1c-0.1,0-0.2-0.1-0.4-0.2c-0.2-0.1-0.4-0.2-0.6-0.3l-0.7-0.3c-0.4-0.2-0.9-0.4-1.4-0.6
	C274.9,47.4,276,46.9,277.1,46.3z M275.3,59.3c-0.4,2.3-4,4.7-7.4,5.9c-4.8,1.7-10.1,0.7-15.4-0.4c0.8-0.8,1.2-1.8,1.3-3
	c0.2,0.1,0.4,0.2,0.6,0.2c0.4,0.1,0.8,0,1.2-0.2c0.3-0.2,0.5-0.4,0.7-0.7c7.2-4.8,12.7-6.7,16.4-5.7
	C274.4,55.9,275.6,57.6,275.3,59.3z M218.4,96.1c-1-0.4-1.9-0.8-2.6-1.3c-0.4-0.3-0.6-0.5-0.6-0.5c0-0.2,0.3-0.8,0.4-1
	c0.2-0.6,0.4-1.1,0.5-1.6c0.7-0.3,1.4-0.5,2-0.8c0.5-0.2,0.9-0.3,1.3-0.5c0,0.2,0.1,0.3,0.1,0.5c0.4,1,1.1,1.7,1.7,2.2l0.1,0.1
	c-0.6-0.3-1.2-0.6-1.8-0.6l0,0c-1.1,0-2.1,0.8-2.1,1.9C217.5,95.2,217.8,95.8,218.4,96.1z M221.3,73.1c-0.2,0-0.3,0-0.5,0.1
	c0.1-0.3,0.3-0.5,0.4-0.8C221.2,72.6,221.3,72.9,221.3,73.1z M204.7,70.6c0.1,0,0.1,0,0.2,0c-0.1,0.1-0.1,0.2-0.2,0.3V70.6z
	 M211.7,92.6L211.7,92.6L211.7,92.6L211.7,92.6z M211.4,88.7L211.4,88.7l0.6-0.4v0.1c0,0.1,0.1,0.2,0.1,0.4
	C211.9,88.7,211.6,88.7,211.4,88.7z M213.8,82c0-0.6,0.1-1.1,0.2-1.7v0.8l0.8,0.1C214.5,81.4,214.2,81.7,213.8,82z M216.5,84.8
	c0.5,0.7,1.2,1.2,1.8,1.5c0.1,0.1,0.3,0.1,0.4,0.3c-0.7,0.3-1.4,0.5-2.1,0.8c-0.3,0.1-0.5,0.2-0.8,0.3c-0.1-0.2-0.1-0.4-0.2-0.6
	c-0.1-0.4-0.4-0.8-0.6-1.2C215.6,85.5,216,85.1,216.5,84.8z M229.7,71.5c-0.6,0.6-1.3,1-2,1.5c0.1-0.2,0.2-0.4,0.2-0.6
	c0.2-0.8-0.1-1.6-0.8-2c1-0.5,2.2-0.9,3.1-1.2c0.8-0.2,1.5-0.5,2.1-0.7c0.2-0.1,0.4-0.2,0.6-0.3C231.9,69.4,230.7,70.6,229.7,71.5z
	 M229.4,59.7c0.3-0.2,0.6-0.5,0.9-0.7c-0.1,0.2-0.3,0.3-0.3,0.5C229.9,59.5,229.7,59.6,229.4,59.7z M224,53.2
	c-0.1,0.3-0.4,0.6-0.6,0.9c-0.1,0.2-0.3,0.4-0.5,0.7l-0.1-0.1c-0.9-1.2-1.4-3.1-1.6-5.2c0.5,0.1,1.1,0.2,1.7,0.3
	c0.7,0.1,1.5,0.2,2.2,0.4C224.9,50.9,224.5,52.2,224,53.2z M218.8,59.6c0.1-0.3,0.1-0.6,0-0.8l0.1,0.1c0.3,0.2,0.7,0.4,1,0.7
	c0.3,0.2,0.6,0.4,0.9,0.6c-0.6,0.3-1.3,0.6-1.9,0.9c-1.2,0.5-2.3,1.1-3.5,1.6c0.3-0.4,0.5-0.8,0.7-1.3c0-0.1,0.1-0.3,0.1-0.4h0.1
	c0.2,0.1,0.4,0.1,0.5,0.1C217.8,60.9,218.6,60.4,218.8,59.6z M216,70.5c0.9-0.5,1.8-1,2.7-1.4c-0.8,1.2-1.4,2.4-2,3.6
	c-0.2,0.3-0.3,0.6-0.5,0.9c-0.5,0.3-0.9,0.8-1,1.4c-0.1,0.6,0.1,1.2,0.4,1.7c-0.1,0-0.2-0.1-0.3-0.1c0-0.3-0.1-0.7-0.4-1
	c-0.6-0.8-1.9-1-2.7-0.4c-0.2,0.2-0.4,0.4-0.5,0.6c-0.7-0.4-1.4-0.8-1.9-1.6c-0.2-0.3-0.3-0.7-0.3-0.9c0.7-0.5,1.1-1.4,0.8-2.2
	c0.5-0.4,1-0.8,1.4-1.2s0.9-0.7,1.3-1.1c0,0.3,0,0.7,0.2,1c0.4,0.6,1,1,1.7,1C215.4,70.7,215.7,70.7,216,70.5z M218.7,96.3
	c0.2,0.1,0.3,0.1,0.5,0.1c0.2,0.1,0.4,0.2,0.7,0.4C219.5,96.6,219.1,96.4,218.7,96.3z M223.6,86.2c-0.2,0-0.3-0.1-0.5-0.1
	c-0.2-0.8-0.7-1.7-1.8-2.5c-0.3-0.2-0.6-0.4-0.8-0.5c0.4-0.3,1.1-0.6,1.7-0.9c0.5-0.2,1.1-0.5,1.6-0.8c0.1,0.7,0.2,1.3,0.4,1.9
	c0.3,1.1,0.6,2.1,0.3,2.8c0,0.1,0,0.3-0.1,0.4C224.2,86.4,223.9,86.3,223.6,86.2z M228.5,79.1c0.1-0.1,0.2-0.1,0.3-0.1l0,0
	C228.7,79,228.6,79.1,228.5,79.1z M230.5,75.7c0.4-0.3,0.8-0.5,1.2-0.8l2.4,2.8c-0.5,0.1-1,0.2-1.3,0.3l-1.4,0.3
	c-0.2,0-0.4,0.1-0.5,0.1c0.1-0.1,0.2-0.2,0.2-0.3C231.5,77.2,231.3,76.2,230.5,75.7z M232.2,74.4l0.1-0.1c1-0.9,2-2,3.1-3.1
	c0,0.6,0.1,1.3,0.2,1.9c0.1,0.5,0.2,0.9,0.2,1.3V75c0,0.1,0,0.3,0,0.4L232.2,74.4z M234.6,58.6c-0.2,0.3-0.4,0.4-0.7,0.7
	c-0.3-0.5-0.6-0.7-0.5-0.6c-0.6-0.6-1.4-0.8-2.2-0.5c1.6-1.5,3-3.2,3.9-5.3l0,0c0.7,0,1.3,0,1.7,0.1c0.8,0,1.5,0,2.1,0.1
	C237.5,54.9,236,56.8,234.6,58.6z M262.2,52.4c0.4,0.3,0.9,0.4,1.5,0.3c0.4-0.1,0.7-0.2,1-0.3c-0.9,0.3-1.7,0.6-2.6,1
	C262.2,53.1,262.2,52.7,262.2,52.4z M245.8,70.5c-0.8,1-0.9,2.3-1,3.2c0,0.4-0.1,0.9-0.2,1.1c-0.1,0.2-0.4,0.4-0.8,0.6
	c-0.2-0.5-0.4-1-0.6-1.5c-0.4-0.9-0.7-1.8-1-2.6c0-0.1,0-0.2,0-0.4c1.4-0.2,2.9-0.7,4.1-1.7c0,0.3-0.1,0.6-0.1,0.8
	C246.1,70.2,246,70.3,245.8,70.5z M253.7,48.5c0-0.2,0.1-0.4,0.1-0.6l0,0c0.1,0.2,0.3,0.3,0.4,0.4C254.1,48.4,253.9,48.5,253.7,48.5
	z M253.9,54.3c0.1-0.2,0.2-0.4,0.3-0.6c0.3,0.1,0.5,0.1,0.8,0c0.2,0,0.5-0.1,0.7-0.2C255.2,53.9,254.4,54.2,253.9,54.3
	C253.9,54.4,253.9,54.4,253.9,54.3C253.9,54.4,253.9,54.4,253.9,54.3z M249.4,55.1c-0.4,1.7,0,3.3,0.3,4.7l0.2,0.9
	c0,0.1,0.3,1.4-0.2,1.6c-0.3,0.1-1.5,0-2.1-0.1c-0.7-0.1-1.5-0.1-2-0.1l-1.6,0.1v0.2c-0.1,0-0.2-0.1-0.4-0.1
	c0.2-0.2,0.4-0.4,0.6-0.7c0.7-1.1,0.4-2.1,0.2-2.5c0.1-0.2,0.5-1,1.3-1.8c0.6-0.6,1.1-1.2,1.7-1.7c0.8-0.8,1.6-1.5,2.3-2.4
	c0.1-0.2,0.3-0.3,0.5-0.5C250,53.4,249.6,54.2,249.4,55.1z M243,66.1c0.3,0.1,0.6,0.1,0.9,0.2c-0.3,0.2-0.7,0.3-1.2,0.5
	C242.9,66.6,243,66.4,243,66.1z M250.4,68.4l0.9,0.2c1.1,0.2,2.2,0.4,3.3,0.6c-1,0.1-1.9,0.1-2.9-0.1c-0.4-0.1-0.8-0.1-1.3-0.2
	C250.4,68.7,250.4,68.6,250.4,68.4z M254.6,45.3c-0.2,0.1-0.4,0.3-0.6,0.5c0-0.1,0-0.2,0-0.3c0.5-0.4,1.3-0.8,1.6-0.9
	c0.3-0.2,0.6-0.3,0.8-0.4c0.7-0.4,1.3-0.8,1.9-1.2c0.7-0.5,1.5-1,2.2-1.4c0.2-0.1,0.5-0.2,0.9-0.4l-0.2,0.1
	C258.9,42.7,256.8,44.1,254.6,45.3z M239.6,75c0,0.1,0.1,0.2,0.1,0.3c0.1,0.3,0.2,0.6,0.3,0.8c-0.2,0-0.3,0-0.5,0
	C239.6,75.8,239.6,75.4,239.6,75z M259.9,75.8c-0.2-0.7-0.9-1.2-1.7-1.3c-1.4-0.1-2.7,0.4-3.7,0.8c-0.4,0.1-0.8,0.3-1.1,0.4
	c-1.5,0.4-3,0.6-4.7,0.5c0.3-0.4,0.5-0.8,0.6-1.3c0.2-0.7,0.3-1.4,0.5-2.1c0.5,0,1.2,0.1,1.7,0.2c3.2,0.5,6.4-0.2,9.4-0.9
	c0.8-0.2,1.6-0.4,2.4-0.5c-0.4,0.5-0.9,1.1-1.3,1.7C261.2,74.2,260.6,75,259.9,75.8z M237.9,44.1l-1.1,0.1c-0.4,0-1.5,0.1-2,0
	c0-0.4,0.1-1,0.2-1.2c0.5-0.4,0.8-1.1,0.7-1.8c0.1,0,0.1,0,0.2,0C236.1,42.3,237,43.3,237.9,44.1z M220.4,45
	c-0.4,0.1-0.8,0.4-1.1,0.9c0,0,0,0-0.1,0c-0.3,0-0.5,0-0.7,0.1c0,0,0-0.1-0.1-0.1C219.1,45.5,219.8,45.3,220.4,45L220.4,45z M217,57
	c-0.1,0-0.2-0.1-0.3-0.1c0-0.1,0-0.2,0-0.4C216.8,56.7,216.9,56.9,217,57z M195.8,91.4c0.5-0.4,1-0.9,1.5-1.3
	c0.4,0.7,1.1,1.4,2.7,1.7c0.2,0,0.4,0.1,0.5,0.1c0.3,0.2,0.6,1.2,0.8,1.8c-0.9,0.6-1.8,1-3,0.9c-0.3,0-0.6,0-0.9-0.1h-0.1l-0.1-0.2
	c-0.1-0.2-0.2-0.3-0.2-0.5c-0.3-0.5-0.6-1.2-1.2-1.9c-0.1-0.1-0.2-0.1-0.3-0.2C195.6,91.5,195.7,91.5,195.8,91.4z M204.9,84.9
	c-0.2-0.8-0.5-1.8-1-2.9c0-0.1,0.1-0.2,0.1-0.3c0.4,0.1,0.7,0.1,1.2,0.2c1.2,0.1,1.6,0.1,2.1,0.6c0.5,0.4,1.6,1.8,2.4,2.8l-0.6,0.4
	c-0.4,0.3-1,0.8-1.5,1.2c-0.1-0.1-0.2-0.1-0.2-0.2C206.6,86,205.7,85.4,204.9,84.9z M227.4,95c-0.4-0.5-0.8-0.9-1.2-1.2
	c-0.1-0.1-0.4-0.3-0.4-0.4c-0.1-0.1-0.1-0.3-0.2-0.5c-0.1-0.4-0.3-0.9-0.7-1.5c-0.4-0.5-0.8-0.9-1.1-1.2c0.4,0.1,0.9,0.1,1.4,0.1
	c2.3-0.1,3.4-1.1,4.1-2.2c0.5,0.2,1,0.4,1.5,0.5c0.9,0.3,1.8,0.6,2.7,1c-0.3,1.2,0.1,2,1,3.2c-1.3-0.8-2.8-1.4-4.3-0.9
	C228.5,92.4,227.8,94,227.4,95z M231,96.5c0.1-0.3,0.3-0.9,0.4-0.9c0.5,0,2.5,1.3,3.7,2.9c0.2,0.2,0.2,0.7,0.2,1.3
	c-0.4,0-0.8-0.1-1-0.2c-0.8-0.4-1.3-0.8-1.5-0.9c0-0.7-0.3-1.3-1-1.7c-0.2-0.1-0.5-0.2-0.8-0.2C230.9,96.6,231,96.5,231,96.5z
	 M236.9,85.2l-0.5,0.4c-0.2,0.2-0.5,0.5-0.8,0.7c-1.2-0.6-2.4-1-3.5-1.4c-0.7-0.2-1.4-0.5-2-0.7c0-0.4,0-0.7,0.1-1.1
	c0.1-0.8,0.1-0.8,1.9-1.1l1.5-0.3c1.2-0.2,2.7-0.5,3.9-1.2h0.1c0.4,0,0.9-0.2,1.2-0.5c1.3,0.1,2.7,0,4.1-0.3c-1.2,1-2.4,2.1-3.6,3.2
	C238.5,83.7,237.7,84.5,236.9,85.2z M238.9,88.6l0.6-0.5c0.9-0.8,1.7-1.6,2.6-2.4c0.4-0.4,0.9-0.8,1.3-1.1c0,0.4,0.1,0.9,0.1,1.4
	c-0.1,2-0.2,3.5,0.7,6c0.4,1.1,0.9,2.4,1.5,3.6c-1.5-1-2.7-2.5-4-4.1C240.6,90.5,239.8,89.5,238.9,88.6z M257.1,87.7
	c0.3-0.3,0.5-0.6,0.8-0.9c0,0.1-0.1,0.1-0.1,0.2c-0.7,1-1.4,2-2.2,3l0,0c0-0.3,0.1-0.6,0.2-0.9C256.1,88.7,256.6,88.2,257.1,87.7z
	 M260.7,81.5c-0.2,0-0.3-0.1-0.5-0.1l0.1-0.8h-0.1c2-1.4,3.4-3.2,4.8-5.1c1.2-1.6,2.3-3.1,3.6-4c0.2-0.1,0.4-0.3,0.5-0.5
	c1.4-0.1,2.8,0,4.2,0.1c-1.2,0.6-2.4,1.2-3.5,1.9c-0.6,0.4-1.1,0.7-1.7,1c-1.9,1.1-5,2.9-4.6,6.5c0,0.2,0.1,0.3,0.1,0.5
	C262.7,81.1,261.7,81.3,260.7,81.5z M267.4,80.2c-0.1-1,0.8-1.7,2.8-2.9c0.4-0.2,0.7-0.4,1.1-0.7c-0.3,0.3-0.5,0.6-0.8,1
	c-0.5,0.7-1.1,1.3-1.6,1.9c-0.6,0.6-1,1-1.5,1.2C267.4,80.6,267.4,80.4,267.4,80.2z M273.4,80.1c0.9-1,1.7-2.1,2.7-3
	c1.7-1.6,2.2-1.9,4.4-2.4c0.2,0,0.6-0.1,1.2-0.1c2.4-0.2,4.2-0.5,5.4-1.4V75c-2.6,1-5.2,2-7.8,2.7c-2.2,0.6-4.3,1.6-6.1,2.8
	C273.2,80.4,273.3,80.2,273.4,80.1z M285.1,67.2c-0.2-0.2-0.3-0.4-0.4-0.4c-0.3-0.5-0.5-1.1-0.5-2c0-0.5,0.1-1.2,0.1-2
	c0.3-3.2,0.6-7.5-1.2-9.6c0.2,0.1,0.4,0.2,0.6,0.3c0.5,0.5,1.1,1.6,1.3,2.5c0.4,1.7,0.2,3.6,0.1,5.6
	C284.9,63.3,284.8,65.2,285.1,67.2z M285.4,68.3c0.1,0.3,0.2,0.7,0.3,0.9c-0.4,0.1-0.8,0.4-1,0.7l-0.3-0.7L285.4,68.3z M283.6,42.6
	c-0.1,0-0.2,0-0.3,0.1l0,0c-0.1-0.2-0.1-0.4-0.2-0.6C283.3,42.2,283.5,42.4,283.6,42.6z M282.9,70.5c-0.4,0-0.7,0.1-1,0.1
	c0,0,0-0.1-0.1-0.1c-2.2-2.3-5.6-3.1-8.9-3.4c2.6-1.5,5.6-3.8,6.2-7.2c0.5-2.8-0.7-5.6-2.9-7.1c0.2,0,0.3,0.1,0.5,0.1
	c0.4,0,0.8-0.1,1.3-0.3c0.1,0.1,0.1,0.1,0.2,0.2c0.3,0.2,0.7,0.3,1.1,0.4c-0.3,0.9,0.1,1.9,1,2.3c0.8,0.8,0.5,5.4,0.3,6.9
	c-0.1,1-0.1,1.9-0.1,2.4c0,1,0.2,2.6,1.1,4.1C282,69.7,282.5,70.2,282.9,70.5z M271.9,37.6c0.9-0.1,1.6-0.1,2.4-0.1
	c1.1,0,2.1,0.1,2.9,0.2c-0.6,0.3-1,0.9-1,1.7c0,0.3,0,0.5,0.1,0.7c0,0.3,0,0.6,0.2,0.9c0,0.2-0.2,0.9-0.4,1.1
	c-0.6,0.8-2.6,1.7-4.2,2c0.7-1.2,1.2-2.7,1.4-4.5C273.4,38.8,272.8,37.9,271.9,37.6z M270.6,37.7c-0.2,0.1-0.4,0.3-0.6,0.5
	c0-0.1-0.1-0.3-0.2-0.4C270.1,37.8,270.3,37.8,270.6,37.7z M269.8,46.9L269.8,46.9C269.8,47,269.7,47,269.8,46.9
	C269.7,46.9,269.8,46.9,269.8,46.9z M271,50.9c0.8,0.1,1.4,0.4,2.1,0.7c-2.2-0.4-4.7-0.2-7.5,0.6c0.5-0.2,0.9-0.3,1.3-0.5
	C268.4,51.1,269.5,50.6,271,50.9z M265.9,38.9c0,0.1-0.1,0.1-0.1,0.2c0,0.1-0.1,0.1-0.3,0.2c0.2-0.3,0.3-0.7,0.2-1.1
	c0.2,0,0.4,0,0.6-0.1C266.1,38.4,266,38.6,265.9,38.9z M257.1,39.1C257,39.2,257,39.2,257.1,39.1c-0.1,0-0.1,0-0.1,0
	C257,39.2,257,39.1,257.1,39.1z M246.4,40.1c1.9-0.1,3.8-0.3,5.7-0.4c-1.2,0.7-2.3,1.6-3.1,2.2c-1.8,1.5-3.5,3.2-5.1,5
	c0-1.3-0.2-2.5-0.5-3.6c-0.2-0.8-0.3-1.5-0.4-2.3c0-0.2-0.1-0.4-0.2-0.6C244,40.2,245.2,40.1,246.4,40.1z M228.1,43.8
	c-0.8-0.4-1.9-0.5-3-0.6c1.3-0.4,2.5-0.7,3.8-1C228.6,42.7,228.3,43.3,228.1,43.8z M212.7,49.1c0,0.1,0.1,0.2,0.1,0.3
	c0.1,0.6,0,1.2-0.1,1.9c0,0.4-0.1,0.8-0.1,1.3c0,0.9,0,2,0.1,3c0,0.1,0,0.3,0,0.4c-0.4-0.1-0.7-0.2-1.1-0.3c-0.3-0.1-1-0.3-1.8-0.5
	c-1.6-0.5-2.8-0.8-3.7-1C208.4,52.2,210.5,50.5,212.7,49.1z M196.4,70.1l0.6,0.5c1.6,1.3,3.3,2.9,3.9,4.5c0,0.1,0,0.2,0.1,0.4l0,0
	c-0.5,0.1-1.2,0.3-1.7,1.2c-0.2,0.1-0.3,0.1-0.5,0.1c-0.7,0-1.3-0.1-1.4-0.3c-0.2-0.4-0.2-0.9-0.3-1.4c-0.2-1.6-0.6-4.2-3.9-5.1
	h-0.1c0.4-0.6,0.8-1.2,1.2-1.8C194.9,69,195.7,69.6,196.4,70.1z M190.1,74.8c0,0.1,0.1,0.3,0.1,0.4l0.2,0.4c0.8,1.8,1.6,3.5,2.7,4.6
	c-1.8-0.4-3.7-0.7-5.7-0.5C188.3,77.9,189.2,76.3,190.1,74.8z M192.7,84.1c-0.8,0.7-1.4,1.4-1.6,1.7c-0.4,0.5-0.8,1.1-1.1,1.6
	s-0.6,1-0.9,1.3c-0.1,0-0.1,0.1-0.2,0.1c-0.3-0.2-0.7-0.4-1-0.5c-0.5-0.3-1.1-0.5-1.3-0.8s-0.4-0.6-0.4-0.9c0.6-0.7,0.7-1.8,0.1-2.5
	c-0.2-0.2-0.3-0.3-0.5-0.5c0.1,0,0.3,0,0.4,0C188,83.3,190.3,83.5,192.7,84.1z M181.1,92.8c0.9,0.2,1.8,0.3,2.8,0.3
	c-0.6,0.7-1.1,1.4-1.5,2.1c-0.2,0.3-0.4,0.7-0.7,1.1c-0.3,0.5-0.8,1.6-1.1,1.7c-0.7,0.3-1.2,1-1.2,1.7c-0.6,0.5-1.2,0.9-1.7,1.4
	C178.8,98.2,179.9,95.4,181.1,92.8z M183.5,102.6c-0.1,0.2-0.2,0.3-0.3,0.4c-0.1,0.1-0.3,0.2-0.4,0.3c-0.4,0.5-0.5,1.2-0.3,1.8
	c-0.8,0-1.6,0-2.3,0c-0.4,0-0.8,0-1.2,0c1.2-1.1,2.6-2.1,4-3.2c1.8-1.3,3.6-2.7,5.2-4.2c1.4-1.3,2.8-2.4,4.2-3.6
	c0.2,0.2,0.5,0.3,0.7,0.5c0.1,0.1,0.2,0.3,0.3,0.5c-0.6,0.4-1.1,1-1.4,1.9c-0.3,0.9-0.4,1.8-0.5,2.4c0,0.1,0,0.2,0,0.2
	c-0.2,0-0.4,0.1-0.7,0H190c-1.3-0.1-2.9-0.1-4.3,0.6C184.8,100.6,184.2,101.5,183.5,102.6z M200.5,104.6c-0.8,0.1-1.3,0.7-1.5,1.4
	c-5.1-0.4-9.3-0.6-12.7-0.8c0.1-0.2,0.3-0.3,0.4-0.5c0.2-0.4,0.7-1,0.8-1.1c0.4-0.2,1.5-0.2,2.2-0.1c0.3,0,0.7,0,1,0
	c3.7,0.1,4.4-1.5,4.6-3.7c0-0.3,0.1-0.7,0.2-1h0.6c0.2,0,0.3,0.1,0.4,0.1c0.1,0,0.2,0,0.2,0c0.2,0,0.4-0.1,0.6-0.2l5.6-0.3l0.4-0.7
	c0.1,0.1,0.1,0.3,0.2,0.4l-0.1,0.4c0.1,0,0.2,0,0.3,0c0.4,0.8,0.6,1.5,0.4,2C203.7,101.9,201.4,104.5,200.5,104.6z M204.5,106.5
	c1-1,1.9-2.1,2.6-3.2c0.2,0.3,0.3,0.6,0.5,0.9c0.7,1.1,1,1.9,1.1,2.7C207.2,106.7,205.8,106.6,204.5,106.5z M217.1,103.4
	c-1.2,1-2,1.9-2.6,2.8c0.1-1.2-0.3-2.3-0.7-3.4c-0.2-0.4-0.4-0.9-0.4-1.3c-0.1-0.6-0.2-1.5-0.5-2.3c0.5,0.3,1,0.5,1.4,0.7l0.9,0.4
	c1.2,0.6,2.3,1.3,3.2,2.2c-0.3,0.2-0.6,0.4-0.8,0.7L217.1,103.4z M218.7,108c-0.3,0-0.5-0.1-0.7-0.1c0.3-0.4,0.9-0.9,1.7-1.6
	l0.4-0.4c0.8-0.8,1.7-1.4,2.5-1.9c0.2,0.3,0.4,0.5,0.7,0.8c0.5,0.4,1,0.9,1.6,1.5c1,0.8,2.2,1.9,2.9,2.8
	C225,108.7,222,108.4,218.7,108z M229.6,100.9c0.2,0.2,0.4,0.4,0.7,0.6c-0.4-0.1-0.7-0.1-1.1-0.2
	C229.3,101.2,229.5,101.1,229.6,100.9z M232.2,109.5c0-0.2,0-0.3-0.1-0.5c-0.4-1.3-1.4-2.5-2.5-3.6c1.3,0.3,2.5,0.4,3.5,0.4
	c0.4,0,0.8,0,1.1-0.1c0,0.3-0.1,0.6,0,1.1c0.2,1.1,1.1,2,2.4,3.1C235.3,109.8,233.8,109.6,232.2,109.5z M246.7,104.1
	c-1.5,1.6-3.4,3.7-3.2,6.4c-0.6,0-1.3-0.1-2-0.1v-0.1c0.2-1.3-0.7-2-1.9-2.9c-0.3-0.2-0.8-0.6-1.2-1c0.1,0,0.1-0.1,0.2-0.2
	c0.4-0.3,0.9-0.5,1.4-0.8c1.8-0.9,4.5-2.3,4.4-5.1c0-0.3-0.1-0.6-0.1-0.8c0.5,0.3,1,0.5,1.6,0.8c-0.1,0.2-0.2,0.5-0.2,0.8
	c-0.1,1.1,0.6,2,1.4,2.7C246.9,103.8,246.8,103.9,246.7,104.1z M247.3,110.6c0-0.1,0-0.2,0-0.3s0-0.3,0-0.4c0.2,0.2,0.4,0.5,0.6,0.7
	C247.7,110.6,247.5,110.6,247.3,110.6z M247.6,90.4c-0.5-1.5-0.5-2.5-0.4-4.5l0,0c0.1,0,0.1,0,0.2,0c0.9,0.1,1.9-0.5,2.1-1.5l0,0
	c0.8-0.2,2.3-0.3,5.1-0.2h-0.1c-2.3,1.5-2.9,3.2-3.5,4.8c-0.2,0.5-0.4,1.1-0.7,1.7l-0.3,0.6c-0.4,0.7-0.7,1.5-1,2.3
	C248.4,92.7,248,91.6,247.6,90.4z M250.8,110.7c0.7-0.8,0.7-2-0.1-2.7c-0.3-0.3-0.5-0.5-0.6-0.6l0.1-0.1c0.2-0.2,0.5-0.5,0.7-0.8
	c0.1-0.1,0.2-0.3,0.4-0.5c0.3,0.2,0.6,0.4,1,0.6c0.6,0.4,1.3,0.8,1.6,1.1c0.7,0.8,1,1.5,1.4,2.7v0.1c-1.2,0.1-2.5,0.2-4,0.2
	C251.1,110.7,251,110.7,250.8,110.7z M260.6,109.8l-0.1-0.2c-0.2-0.7-0.2-1.3-0.2-2c0.3,0.2,0.7,0.4,1.1,0.4s0.7-0.1,1-0.3
	c0.1,0,0.1-0.1,0.2-0.2c-0.1,0.5,0,1,0.2,1.5C262.2,109.3,261.5,109.5,260.6,109.8z M263.4,97.6l-0.5,0.5c-1.1,1.3-2.8,3.2-3.4,5.2
	c-0.5-0.8-1.3-1.6-2.5-2.4c-0.8-0.5-1.6-0.9-2.4-1.2c0.8-0.9,1.8-1.9,2.8-2.8c0.6-0.6,1.2-1.1,1.7-1.6c0.1,0.8,0.6,1.5,1.5,1.7
	c0.6,0.1,1.3,0.2,2.1,0.2c0.3,0,0.6,0,1,0.1C263.6,97.4,263.5,97.5,263.4,97.6z M269,99.4c0.2-0.6,0.3-1.3,0.2-2
	c0.8-0.5,1.5-1,2.3-1.5C270.6,97.1,269.8,98.3,269,99.4z M329.1,80.7c-0.4,0-1,0-1.6,0.1c-0.6-2.4-2.4-6.2-7.6-8.4
	c-1-0.4-2.1,0-2.5,1s0,2.1,1,2.5c3.4,1.4,4.7,3.8,5.2,5.4c-1.7,0.4-3.6,0.9-5.8,1.9c-7-0.4-20.7-0.6-31.8,3
	c-0.4-0.3-0.9-0.4-1.4-0.3c-4.8,0.9-9.3,3.5-13.3,5.8l-1.4,0.8c-0.9,0.5-1.9,1.1-2.8,1.8c-1.3-0.7-2.9-0.8-4.2-0.9
	c-0.6,0-1.1,0-1.5-0.1c-0.1,0-0.2,0-0.3,0c2.4-2.6,4.3-5.2,3.7-7.7c-0.1-0.3-0.2-0.5-0.3-0.7c0.2,0,0.4,0,0.5,0
	c1.3,0.1,2.4,0,3.4-0.4c-0.5,0.6-1.1,1.2-1.5,1.9l-2.5,3.9l4.6-1c1.8-0.4,3.4-1.2,5-1.9c0.9-0.4,1.8-0.8,2.7-1.2
	c2.7-1,5.5-1.9,8.3-2.8l4.2-1.3c3.5-1.1,6.8-2.2,10.4-2.9l1.6-0.3c2.3-0.4,4.5-0.8,6.9-0.8c0.4,0,0.8,0,1.3,0.1c0.3,0,0.6,0,0.9,0
	c1.5,0.3,3,0.4,4.3,0.4c1.1,0,1.9-0.9,1.8-2c0-1-0.8-1.8-1.8-1.8c-0.5-0.6-1.3-0.8-2.1-0.5c-0.4,0.2-1.1,0.2-1.9,0.2
	c-2.2-0.5-4.3-1.3-5.6-2.3c-3.3-2.5-5.9-2.2-9.4-0.7l-2.9,1.2c-0.8,0.3-1.6,0.7-2.4,1c2.1-1.7,2.8-4.7,3.4-7.6
	c0.3-1.3,0.6-2.3,0.8-3.2c0.7,0.3,1.4,0.4,2.1,0.4c0.4,0,0.7,0,1.1-0.1c0.9-0.1,1.8-0.4,2.7-0.7c0.6-0.2,1.3-0.4,1.9-0.5
	c0.2,0,0.7,0,0.9,0c0.5,0,0.8,0,1.1-0.1c0.2-0.1,0.5-0.2,0.6-0.3c6.2,3.6,13.1,6.8,20.7,9.1c11.5,3.6,13.3,13.8,13.2,20.4
	C336,85.9,332.3,80.7,329.1,80.7z M291.4,77.3c0.9-0.4,1.8-0.8,2.7-1.2l2.9-1.2c1.3-0.6,2.2-0.8,3-0.8c0.7,0,1.4,0.3,2.1,0.8
	c-0.6,0.1-1.2,0.2-1.8,0.3l-1.6,0.3C296.3,75.9,293.8,76.6,291.4,77.3z"/>
<circle cx="266.4" cy="61.5" r="3.1"/>
</svg>
