<?xml version="1.0" encoding="utf-8"?>
<!-- Generator: Adobe Illustrator 21.0.2, SVG Export Plug-In . SVG Version: 6.00 Build 0)  -->
<svg version="1.1" id="Calque_2" xmlns="http://www.w3.org/2000/svg" xmlns:xlink="http://www.w3.org/1999/xlink" x="0px" y="0px"
	 viewBox="0 0 500 142.7" style="enable-background:new 0 0 500 142.7;" xml:space="preserve">
<style type="text/css">
	.st0{fill:#004488;}
	.st1{fill:#FDC400;}
	.st2{fill:#778EBC;}
</style>
<rect x="25" y="100.8" class="st0" width="35.4" height="11.8"/>
<rect x="102.4" y="100.8" class="st0" width="371" height="11.8"/>
<path class="st1" d="M98.1,69.4c9.8-9,9-10.1,8.1-11.4c-0.3-0.5-0.8-0.7-1.4-0.8c-0.8-0.1-2.1-0.3-11.7,6.5l9.4-8.5
	c0.7-0.6,0.8-1.6,0.2-2.3c-0.7-1-1.4-1-2.6-0.2l0,0l-0.1,0.1c-0.4,0.3-1,0.6-1.6,1.1l-4.7,3.4c-2.1,1.5-4.5,3.3-7.2,5.2
	c14.1-12.8,13.7-13.4,12.7-14.7c-0.3-0.4-0.8-0.7-1.3-0.7c-1.3-0.2-2.1,0.4-13.3,9.7c-3.8,3.2-9.3,7.7-14.1,11.5
	c1.9-1.6,3.9-3.3,5.8-4.8c18.5-15.4,21.2-18.3,19.5-20.8C95.5,42.3,95,42,94.5,42c-0.5-0.1-1.4-0.2-8.9,5.1c7.1-6.4,7.9-8,6.7-9.5
	c-0.3-0.4-0.7-0.6-1.1-0.7c-0.5-0.1-0.9,0-1.3,0.3l-13.4,9.7c1.6-1.6,3.2-3.1,4.5-4.4c9-8.7,9-8.7,7.9-10.1c-0.6-0.8-1.7-1-2.5-0.4
	l-6.2,4.5c0.1-0.2,0.2-0.3,0.4-0.5c5.7-7.4,5.8-7.5,4.9-8.8c-0.3-0.4-0.7-0.6-1.2-0.7c-0.5-0.1-0.9,0-1.3,0.3c0,0-1.5,1.1-1.7,1.3
	l0.4,0.7c-0.9,1.3-2.5,3.3-3.9,5.1c-7.1,9.2-7.5,9.8-6.4,11.2c0.3,0.4,0.7,0.7,1.2,0.7C60.6,57.7,60.9,58.1,62,59.6
	c0.3,0.4,0.7,0.6,1.1,0.7c0.5,0.1,0.9,0,1.3-0.3l6.4-4.7C58,66.4,56.7,68.1,58.1,70c0.3,0.4,0.7,0.6,1.2,0.7c0.5,0.1,1-0.1,1.3-0.4
	c7.3-5.7,15-11.6,21.3-16.3c-2.7,2.3-5.5,4.6-7.8,6.6c-16,13.4-17.5,15-16,17c0.4,0.5,1,0.9,1.6,0.9c1.4,0.2,3.8-1,7.7-3.7
	c-1.9,1.7-3.6,3.2-4.8,4.3l-3.1,2.8c-0.4,0.3-0.7,0.6-1,0.9l0,0l0,0c-0.8,0.8-1.1,1.5-0.4,2.4c0.3,0.4,0.7,0.6,1.1,0.7
	c0.5,0.1,0.9,0,1.3-0.3c4.5-3.3,10.3-7.5,16.1-11.7L58.3,90.5c-0.7,0.6-0.8,1.7-0.2,2.4c0.6,0.7,1.7,0.8,2.4,0.2
	c13.9-11.3,29.3-23.2,37.9-29c-8.5,8.1-26.5,23.2-40.1,34c-0.5,0.4-0.8,1.1-0.6,1.8c0.2,0.7,0.7,1.2,1.4,1.3
	c0.3,0.1,0.5,0.1,1.3-0.4l0,0c0,0,0.2-0.1,0.4-0.4c1.1-0.7,3.1-2.2,6.9-4.9c3.3-2.4,7.5-5.5,11.9-8.7c-7.3,6.4-15,13.2-21.5,18.9
	c-0.7,0.6-0.8,1.7-0.2,2.4s1.7,0.9,2.4,0.3c3.4-2.6,7.2-5.5,11.2-8.6c-13.1,10.7-15.3,13.6-13.7,15.9c0.3,0.4,0.7,0.6,1.2,0.7
	c0.6,0.1,0.8,0.1,7.5-4.8c-9,8.4-8.2,9.5-7.3,10.8c0.3,0.5,0.8,0.7,1.4,0.8c0.1,0,0.2,0,0.4,0c0.9,0,2.8-0.6,10.2-5.8
	c-2.2,2.7-2.1,3.9-1.4,4.9c0.3,0.4,0.7,0.6,1.2,0.7s1-0.1,1.3-0.4c10.8-9,22.7-18.3,29.2-22.7c-4.5,4.8-12.4,12-16,15.4
	c-1.5,1.4-2.7,2.5-3.6,3.3c-1.5,1.4-2.5,2.4-1.6,3.7c0.3,0.4,0.7,0.6,1.1,0.7c0.5,0.1,0.9,0,1.3-0.3l15.1-10.4
	c-2.1,2.6-4.5,5.5-6.8,8.3c-0.5,0.6-0.5,1.5-0.1,2.2c0.3,0.4,0.7,0.6,1.2,0.7c0.9,0.1,0.9,0.1,10.4-6.9v-4.4c-0.1,0-0.1,0.1-0.2,0.1
	c0.1-0.1,0.1-0.1,0.2-0.2v-7.6h-0.1c0,0,0,0,0.1-0.1v-8.7c-2.3,1.3-5.2,3.3-8.6,5.8c3-2.6,5.8-4.9,7.7-6.5c0.3-0.3,0.6-0.5,1-0.8
	v-4.8c-13.6,10.9-28,21.9-35.9,27.3c7-6.8,21.3-18.9,35.8-30.6v-4.8c-2.9,2-8.2,5.9-18.1,13.2c1-0.8,1.9-1.5,2.8-2.2
	c7.2-5.6,12-9.5,15.3-12.3v-6.7c-1.7,1.1-4.2,2.8-7.9,5.4c2.1-1.9,4-3.6,5.8-5.1c0.8-0.7,1.5-1.3,2.2-1.9v-3L98.1,69.4z"/>
<path class="st1" d="M102.5,116.6c-1.8,5-1.4,5.5-1,6.1c0.2,0.3,0.6,0.6,1,0.7V116.6z"/>
<path class="st0" d="M123.6,79.3l-5.5,7.6h-11.7l23-29.7h14.7l7.7,29.7h-12.1l-1.7-7.6H123.6z M137.6,74.3l-1.4-6.3
	c-0.3-1.8-0.6-4-0.9-5.7H135c-1.1,1.8-2.5,4-3.7,5.7l-4.7,6.3H137.6z"/>
<path class="st0" d="M175,57.2l-4.5,17.1c-1.4,5.2,1.3,7.8,7,7.8c5.9,0,9.8-2.5,11.2-7.8l4.5-17.1h11.2L200,73.9
	c-2.4,9.2-11.3,13.5-24.3,13.5c-12.6,0-18.8-4.2-16.3-13.6l4.4-16.6L175,57.2L175,57.2z"/>
<path class="st0" d="M222.4,62.8H209l1.5-5.6h38.3l-1.5,5.6h-13.6l-6.3,24.1h-11.2L222.4,62.8z"/>
<path class="st0" d="M265.7,87.4c-14.7,0-21.7-6.7-19.4-15.1c2.3-8.9,13.7-15.6,28.3-15.6c15.3,0,21.8,6.8,19.7,15
	C291.7,81.5,280.3,87.4,265.7,87.4L265.7,87.4z M267.6,82.1c7.6,0,13.1-4.3,14.6-10.1c1.4-5.3-1.6-9.9-9.4-9.9s-13.3,4.5-14.8,10
	C256.7,77.7,260,82.1,267.6,82.1L267.6,82.1L267.6,82.1z"/>
<path class="st0" d="M339.6,85.5c-3.7,0.7-10.5,1.7-17.1,1.7c-9.1,0-15.3-1.4-19.2-4c-3.8-2.6-5.3-6.5-4.2-10.8
	c2.7-9.9,16.2-15.5,32.5-15.5c6.4,0,11.2,0.8,13.4,1.4l-3.8,5.4c-2.5-0.8-5.7-1.3-11.2-1.3c-9.4,0-17.4,3.2-19.1,9.6
	c-1.6,6.2,3.9,9.7,13.2,9.7c2.5,0,4.6-0.2,5.6-0.4l1.6-6.3h-7.7l1.4-5.2h18.5L339.6,85.5z"/>
<path class="st0" d="M359.6,86.9l3.2-12.2l-11.1-17.5h12.9l3.1,7.1c1,2.2,1.7,3.7,2.4,5.7h0.1c1.6-1.9,3.2-3.6,5.3-5.7l6.9-7.1H395
	l-20.9,17.3l-3.3,12.4H359.6z"/>
<path class="st0" d="M400.3,57.7c3.7-0.4,9.1-0.7,15.2-0.7c7.4,0,12.4,0.7,15.5,2.4c2.7,1.4,3.7,3.5,3,6.2c-1,3.7-6.2,6.3-10.7,7.3
	V73c3.3,0.8,4.7,2.8,5.2,5.5c0.7,3.4,1.1,7.3,1.8,8.4h-11.5c-0.5-0.8-1.1-3.3-1.6-6.9c-0.4-3.7-2.3-4.7-6.9-4.8H407l-3.1,11.7h-11.1
	L400.3,57.7z M408.1,70.4h4.4c5.6,0,9.4-1.7,10.1-4.3c0.7-2.7-2-4.1-7.2-4.1c-2.7,0-4.3,0.1-5.1,0.2L408.1,70.4z"/>
<path class="st0" d="M469.4,74.4h-18.3l-1.9,7.1h20.4l-1.4,5.5h-31.7l7.8-29.7H475l-1.4,5.5h-19.4l-1.6,6.2h18.3L469.4,74.4z"/>
<path class="st2" d="M81.4,28.7v0.1V28.7C81.5,28.7,81.5,28.7,81.4,28.7z"/>
<path class="st2" d="M81.1,27.8c0,0.1,0,0.2-0.1,0.3c0.1-0.2,0.2-0.4,0.2-0.4h0l0,0c-0.2-0.1-0.5-0.1-0.6-0.4
	c0.1-0.2,0.4-0.6,0.5-0.8c0-0.3-0.2-0.1-0.3-0.2c0.1-0.2,0.3-0.4,0.2-0.4c-0.1-0.2-0.3-0.1-0.6,0.3C80.5,27.4,79.4,29.6,81.1,27.8z"
	/>
<path class="st2" d="M81.3,28.5c0-0.2-0.1-0.4-0.3-0.4c-0.3,0.6-0.4,1-0.4,1.4L81.3,28.5z"/>
<path class="st2" d="M58.4,118.4c0,0,0.1,0,0,0.2C58.4,118.5,58.4,118.5,58.4,118.4c0,0-0.1,0-0.1-0.1c0.1,0.8,0.1,1.8,0.2,2.7
	l0.2,0.3c0-2.3,0-4.5-0.4-6.4C58.3,116.2,58.4,117.1,58.4,118.4z"/>
<path class="st2" d="M59,121.5v0.2C59.1,121.5,59,121.5,59,121.5z"/>
<path class="st2" d="M53.1,15.6C53.1,15.6,53.1,15.6,53.1,15.6c-0.1,0-0.2,0-0.2,0c0,0-0.4,0.3,0,0.1c0.1,0,0.2-0.1,0.3-0.2
	c0,0,0.1,0,0.1-0.1c0,0,0,0,0,0c0,0,0,0,0,0C53.2,15.5,53.2,15.6,53.1,15.6z"/>
<path class="st2" d="M70.1,55.1c-0.1-0.1-0.2-0.2-0.3-0.4c0.1,0.2,0.2,0.3,0.2,0.4C70,55.1,70.3,55.3,70.1,55.1z"/>
<path class="st2" d="M68.5,54l0.3,0.4C68.7,54.3,68.6,54.2,68.5,54z"/>
<path class="st2" d="M132.7,35.9c0.1,0.5,0.2,1.1,0.3,1.5C132.9,36.9,132.8,36.4,132.7,35.9z"/>
<path class="st2" d="M132.7,43.7c-0.2,3.4-0.4,5.9-0.4,6.7c0-0.2,0-0.5,0.1-1c0-0.1,0-0.3,0-0.5c0.1-0.5,0.1-1.1,0.2-1.7
	c-0.1,0.6-0.1,1.1-0.2,1.7c0-0.6,0.1-1.5,0.2-2.4C132.7,45.7,132.7,44.7,132.7,43.7z"/>
<path class="st2" d="M121.9,31.8c0.1,0,0.1,0,0.2,0c-0.1,0-0.2,0-0.3,0l-1,0.2c-0.1,0-0.1,0-0.2,0c0.1,0,0.2,0,0.3,0L121.9,31.8z"/>
<path class="st2" d="M119.4,32.4c0.4-0.1,0.9-0.2,1.3-0.3C120.2,32.2,119.8,32.2,119.4,32.4z"/>
<path class="st2" d="M124.6,31.4l1.3-0.1c0,0-0.1,0-0.1,0L124.6,31.4c-0.4,0-0.6,0.1-0.9,0.1c-0.1,0-0.3,0-0.4,0.1
	c0.2,0,0.4,0,0.5-0.1C124.1,31.5,124.3,31.4,124.6,31.4z"/>
<path class="st2" d="M122.1,31.8c0.4-0.1,0.8-0.1,1.2-0.2C122.9,31.6,122.5,31.7,122.1,31.8z"/>
<path class="st2" d="M131.8,31.3C131.8,31.3,131.7,31.3,131.8,31.3c0,0.1,0,0.2,0.1,0.4C131.9,31.5,131.9,31.4,131.8,31.3z"/>
<path class="st2" d="M101.9,39.2c0,0,0.1,0,0.1-0.1C101.9,39.2,101.9,39.2,101.9,39.2z"/>
<path class="st2" d="M109.4,35.3c0.9-0.4,1.9-0.8,2.9-1.2C111.3,34.5,110.3,34.8,109.4,35.3z"/>
<path class="st2" d="M87.6,50.5c0.4-0.3,0.8-0.7,1.2-1.1C88.4,49.8,88,50.1,87.6,50.5z"/>
<path class="st2" d="M102,39.2c0.3-0.2,1.1-0.6,2.1-1.2C103,38.5,102.3,39,102,39.2z"/>
<path class="st2" d="M104.1,37.9c1-0.5,3-1.6,5.3-2.6C107.1,36.3,105.1,37.3,104.1,37.9z"/>
<path class="st2" d="M112.5,34c1.1-0.4,2-0.7,2.9-1C114.5,33.2,113.6,33.6,112.5,34z"/>
<path class="st2" d="M115.4,33c2-0.5,3.3-0.9,3.8-0.9C118.7,32.1,117.3,32.4,115.4,33z"/>
<path class="st2" d="M132,47.8c0-0.7,0-2-0.1-3.4C131.9,45.9,132,47.1,132,47.8z"/>
<path class="st2" d="M131.8,38.3c0-0.1,0-0.3-0.1-0.4C131.7,38,131.7,38.2,131.8,38.3z"/>
<path class="st2" d="M131.8,38.8c0,0.7,0,1.4,0.1,2C131.9,40.1,131.9,39.5,131.8,38.8z"/>
<path class="st2" d="M131,33.1c0,0.1,0.1,0.3,0.1,0.4C131.1,33.4,131.1,33.2,131,33.1z"/>
<path class="st2" d="M124.9,36.3c-0.9,0.1-1.6,0.2-2.4,0.4C123.3,36.5,124.1,36.4,124.9,36.3z"/>
<path class="st2" d="M129.4,38.2v0.3l0.1,0.4c0.3,2.3,0.5,3.9,0.6,4.4c0-0.5-0.3-2.1-0.5-4.4l-0.1-0.4L129.4,38.2
	c0.1-0.2,0.1-0.3,0.1-0.5l-0.1-1.6V36c0,0,0-0.1,0-0.2l-0.1,0c0,0,0,0.1,0,0.2v0.1l0.1,1.4v0.2C129.4,37.9,129.4,38,129.4,38.2z"/>
<path class="st2" d="M122.5,36.7c-0.5,0.1-1,0.2-1.4,0.3C121.6,36.9,122,36.8,122.5,36.7z"/>
<path class="st2" d="M115.9,38.4c0,0,1.3-0.4,3.2-0.9C117.1,38,115.9,38.4,115.9,38.4z"/>
<polygon class="st2" points="128.2,35.9 129.3,35.8 129.3,35.8 "/>
<path class="st2" d="M116,92.6c0.1,0,0.2-0.1,0.3-0.1c0,0,0,0,0,0c0.1,0,0.1,0,0.2,0c0,0,0.4-0.3,0-0.1c-0.1,0-0.2,0.1-0.3,0.1
	l0.1,0L116,92.6z"/>
<path class="st2" d="M132.9,40.1c0-0.3,0-0.7,0-1c0,0.6,0,1.1,0,1.6C132.9,40.5,132.9,40.3,132.9,40.1z"/>
<path class="st2" d="M132.9,40.7c0,0.6-0.1,1.1-0.1,1.7C132.8,41.9,132.8,41.3,132.9,40.7z"/>
<path class="st2" d="M132.3,50.4c0,0.1,0,0.1,0,0.1C132.3,50.5,132.3,50.5,132.3,50.4z"/>
<path class="st2" d="M131.3,45.5c0-0.2-0.1-0.6-0.2-1.4C131.2,44.8,131.2,45.4,131.3,45.5C131.2,45.5,131.3,46,131.3,45.5z"/>
<path class="st2" d="M132.5,36.5c0.1,0.3,0.1,0.6,0.2,0.9c0,0.1,0.1,0.2,0.1,0.4c-0.1-0.3-0.1-0.6-0.2-1
	C132.6,36.6,132.6,36.6,132.5,36.5z"/>
<path class="st2" d="M132.9,38.3c0,0,0-0.1,0-0.1c0-0.1,0-0.1,0-0.2C132.9,38.1,132.9,38.2,132.9,38.3z"/>
<path class="st2" d="M131.8,32.3v-0.2V32c0-0.1,0-0.1-0.1-0.1h0c0,0,0,0.1,0,0.1c0.1,0.5,0.2,1.1,0.3,1.6c0.2,0.9,0.4,1.9,0.5,2.8
	c-0.2-1-0.4-2.1-0.5-3.1L131.8,32.3z"/>
<path class="st2" d="M62.9,106.8c-0.1-1.1-0.2-2.2-0.3-3.3c-0.1-0.5-0.2-0.9-0.3-1.2c0,0.6,0,1.3,0,2c0.2,1,0.3,1.7,0.3,2
	c0.1,0.2,0.2,0.4,0.3,0.7V106.8z"/>
<path class="st2" d="M62.6,106.3C61.9,105,62.7,107.7,62.6,106.3L62.6,106.3z"/>
<path class="st2" d="M74.4,69.3c0,0,0.4-0.5-0.6,0C74.1,69.3,74.3,69.3,74.4,69.3z"/>
<path class="st2" d="M57.8,84.8C57.8,84.9,57.8,84.9,57.8,84.8c0-0.1,0-0.2,0-0.4C57.8,84.5,57.8,84.7,57.8,84.8z"/>
<path class="st2" d="M58.4,106.7c0.1-7.7,0.1-15.2-0.6-21.8c0,2.9,0.1,5.9,0.2,8.7c-0.3-2.1-0.4-4.2-0.5-6.4
	c-0.1-0.6-0.1-1.3-0.2-1.9c0.1,2.5,0.1,5,0.2,7.6c0.2,4.1,0.5,8.3,0.8,12.4C58.3,105.8,58.4,106.2,58.4,106.7z"/>
<path class="st2" d="M37.8,69.5c1.2,0,13.6-3,13.6-3L37.8,69.5z"/>
<path class="st2" d="M40.6,84.6c0.4,0.8,0.8,1.5,1.2,2.1c0.4,0.6,0.8,1,0.8,1.1l-3.3-6.3C39.3,81.5,39.8,83.1,40.6,84.6z"/>
<path class="st2" d="M131.1,31.7h-0.8c-1,0.1-2.1,0.1-3.1,0.1h-0.8H126h-0.3l-1,0.1l-2.1,0.2c-1.4,0.2-2.7,0.5-4,0.8
	c-1.3,0.3-2.5,0.7-3.7,1c-2.4,0.7-4.5,1.5-6.3,2.3c-1.8,0.8-3.2,1.5-4.2,2c-0.4,0.2-0.7,0.3-0.9,0.5c0.9-0.5,1.8-1.1,2.6-1.6l1-0.5
	l2.8-1.2c1-0.4,2.2-0.9,3.4-1.3c0.3-0.1,0.5-0.2,0.8-0.3c1.6-0.4,3.3-1,5.1-1.4c0.1,0,0.1,0,0.2,0c-0.1,0-0.2,0-0.3,0
	c-1.9,0.4-3.6,0.9-5.1,1.4c-0.3,0.1-0.5,0.2-0.8,0.3c-1.3,0.5-2.4,0.9-3.4,1.3l-2.8,1.2l-1,0.5c-1.3,0.7-2.6,1.5-3.9,2.3
	c-0.3,0.2-0.6,0.3-0.8,0.5c-0.2,0.1-0.3,0.2-0.5,0.3c-0.3,0.2-0.6,0.4-0.9,0.6c-0.5,0.4-1,0.7-1.5,1l0,0c-0.1-0.2-0.3-0.3-0.4-0.5
	c0,0,0,0,0,0c-0.1-0.1-0.3-0.3-0.4-0.4c0,0,0,0-0.1-0.1c-0.1-0.1-0.3-0.2-0.5-0.4c0,0-0.1-0.1-0.1-0.1c-0.2-0.1-0.4-0.3-0.7-0.4
	c-7.4-3.9-7-13.9-7.5-15.7l-1,0.2c-1.2,2.2,0.8,5.7,0.9,7.7c0.2,0.7,0.3,1.2,0.3,1.7c0,0.4-0.2-0.4-0.3-1.7
	c-0.2-0.5-0.4-1.1-0.6-1.8c-0.3,1.3-0.6,2.5-0.9,3.4c0.2,0.4,0.4,0.8,0.6,1.2c0.8,1.9,1.9,3.5,2.5,5.5c0.2,0.7,1,2.1,1,2.9l-4.3-7.7
	c0,0.1,0,0.2,0,0.3l1.7,4.4c0.1,0.2,0.2,0.5,0.3,0.8l-0.3-0.8c-0.4-0.6-0.9-1-1.4-1.6c-0.2-0.4-0.2-1.1-0.4-1.5
	c-0.1-0.4,0-0.9,0.1-1.3l-0.3-0.7c-0.1,0-0.1-0.1-0.2-0.1c-1.3,1.5-0.3,7.8,0.6,8.4c0.6,0.5,2.3,0.2,2.9,0.8c0.2,0.2,0,0.6,0.4,0.6
	c0.2-0.1,0.4-0.1,0.6-0.1c0.4,0.4,0,1.4,0.8,1.3c0,0,0,0,0,0.1c0,0,0,0,0,0c0,0,0,0.1,0,0.1c0,0,0,0,0,0.1c0,0.1-0.1,0.1-0.1,0.2
	c0,0,0,0,0,0c-0.1,0.1-0.1,0.2-0.2,0.3c0,0-0.1,0.1-0.1,0.1c0,0.1-0.1,0.1-0.1,0.2c0,0,0,0.1-0.1,0.1c-0.8,0.7-1.6,1.4-2.2,2
	c0.7-0.6,1.4-1.2,2.1-1.9c0,0,0,0,0,0c-0.2,0.2-0.3,0.4-0.4,0.5c-0.8,0.7-1.5,1.3-2.2,1.8c-0.3,0.3-0.6,0.5-0.8,0.7l0,0
	c0,0,0.1-0.1,0.1-0.1c-0.4,0.3-0.7,0.6-1,0.9c-2.5-1.9-4.9-1.1-4.9-1.1H81c0,0-2.1-0.7-3.9-0.4c-0.6-2.5-1.6-4.8-2.6-7
	c1.5-2.6,3-5,4.7-7.7c0.5-0.8,1-1.6,1.5-2.4c0.4-0.6-0.6,0.2,0-0.8l-0.1,0.1c-0.4,0.7-0.8,1.5-1,1.6c-0.4,0.1,0.4-1.4,0.8-2.4
	c0-0.1,0-0.1,0-0.2c0,0,0.1-0.1,0.2-0.3v-0.1c-0.1,0-0.2-0.1-0.2-0.2l-0.7,1c0-0.4,0.1-0.8,0.4-1.4c0.1-0.1,0.1-0.3,0.2-0.4
	c-1.9,2-0.7-0.3-0.7-1.5c-0.2,0.2-0.3,0.4-0.5,0.7c-0.1,0-0.2-0.1-0.2-0.1c-1.3,1.7-2.2,2.7-3.5,4.1c-0.3,0.3-0.5,0.2-0.9,0.8
	c-0.9,1.4-1.8,2.8-2.6,4.1c0,0,0,0,0,0c-0.8-1.4-1.5-2.7-2.3-3.9c-1.3-2.3-2.6-4.5-3.6-6.6c-0.4-0.7-0.7-1.4-1-2.1l0.3,0.3
	c0,0-0.4-1.1-1-2.8c-0.6-1.7-1.3-3.9-2-6.2l-0.2-0.9l-0.1-0.4l-0.2-0.6c-0.2-0.7-0.4-1.4-0.5-2.1c-0.1-0.3-0.1-0.8-0.3-1
	c-0.3,0.1-0.6,0.3-0.9,0.4c-0.6,0.3-1.2,0.5-1.8,0.7c-0.6,0.2-1.1,0.4-1.6,0.6c-0.2,0.1-0.5,0.2-0.7,0.3c-0.2,0.1-0.3,0.2-0.5,0.2
	c-0.6,0.3-1,0.5-1.2,0.6l0.4,0.4c-0.2,0.1-0.4,0.2-0.5,0.3c-0.4,0.2-0.7,0.4-1,0.5c0,0,0,0,0,0c0.3-0.1,0.8-0.3,1.2-0.5
	c0,0,0,0,0.1,0c0.1,0,0.2-0.1,0.3-0.1l0.1,0.1l-1.8,0.9l1.5-0.6c-0.4,0.2-1.4,0.7-2.3,1.1c-0.9,0.4-1.7,0.8-1.7,0.8
	c0.7-0.2,2.1-0.8,3.9-1.5c0.3-0.1,0.5-0.2,0.8-0.3l0.4,0.4c-0.1,0.1-0.3,0.1-0.4,0.2c-1.9,0.7-3.5,1.3-4.3,1.6l0.3,0.1
	c-0.3,0.1-0.5,0.2-0.8,0.3c0,0,0,0,0,0c0.2-0.1,0.5-0.1,0.8-0.2l0.2,0.1c-0.5,0.1-1,0.2-1.6,0.3c0,0,0,0,0,0c0.1,0,0.3-0.1,0.5-0.2
	c0,0,0,0,0,0c-0.1,0-0.2,0.1-0.3,0.1c0,0,0,0,0,0c-0.1,0-0.1,0-0.2,0.1c-0.8,0.2-1.5,0.3-2.2,0.4l21.2,23.8
	c-0.6,0.9-1.1,1.8-1.7,2.7c-0.2-0.4-0.4-0.7-0.7-1.1c-0.1-0.1-0.1-0.2-0.2-0.3c-0.3-0.5-0.6-0.9-0.9-1.4c-0.1-0.1-0.2-0.3-0.3-0.4
	c-0.5-0.9-1.9-2.8-3.4-4.5c-1.7-2-3.6-3.6-3.6-3.6c-1.4-1.4-4.1-3.2-6.4-4.6c-0.6-0.4-1.1-0.7-1.6-1s-1-0.6-1.3-0.9
	c-0.8-0.5-1.2-0.8-1.2-0.8l0,0l0,0l0.1,0.1H48l0.1,0.2v0.1c-0.1,0,0,0.2,0,0.2c0.3,1.3,0.9,2.4,1.4,3.5c0.6,1,1.2,1.9,1.9,2.7
	c1.3,1.7,2.8,3.1,4.1,4.5c2.7,2.7,5.1,5.2,6.8,7.3c1.3,1.5,2.2,2.8,3,3.9c-0.1,0.1-0.2,0.3-0.3,0.4l-4.8-6.5c0,0,1.9,2.8,3.9,5.5
	c0.3,0.4,0.6,0.8,0.8,1.1c-0.2,0.4-0.5,0.8-0.7,1.2c-0.5,0.7-0.7,1.4-1.2,2.2c-1.1,1.7-2.2,3.4-3.2,5c-1.2,1.9-2.4,3.8-3.6,5.7
	c0,0.4,0,0.8,0,1.1c0,0,0,0,0,0c-0.6,0.3-1.1,0.5-1.6,0.7c0,0-0.1,0-0.1,0.1c-1.1,0.5-2.1,0.9-3.1,1.3c0,0-0.1,0-0.1,0
	c-1,0.4-1.9,0.7-2.8,1c0,0,0,0,0,0c-1.3,0.4-2.5,0.8-3.5,1.1c0,0,0,0,0,0c-0.7,0.2-1.3,0.3-1.8,0.4c0,0,0,0,0,0
	c-0.5,0.1-1,0.2-1.3,0.3c0,0,0,0,0,0c-0.2,0-0.3,0.1-0.4,0.1c0,0,0,0,0,0c-0.1,0-0.2,0-0.3,0.1c0,0,0,0,0,0c-0.1,0-0.1,0-0.2,0
	c0,0,0,0,0,0c0,0-0.1,0-0.1,0c-0.3,0.1-0.5,0.2-0.8,0.3c-0.1,0-0.1,0-0.2,0.1c-0.2,0.1-0.3,0.1-0.5,0.2c-0.1,0-0.1,0-0.2,0.1
	c-0.2,0.1-0.4,0.1-0.5,0.2c0,0-0.1,0-0.1,0c-0.1,0-0.2,0.1-0.3,0.1c-0.1,0-0.1,0-0.2,0c-0.1,0-0.1,0-0.2,0.1c0,0-0.1,0-0.1,0
	c-0.1,0-0.2,0-0.2,0.1c0,0,0,0,0,0c0.2,0,0.5,0,0.8,0c0,0,0,0,0,0c0.9,0,1.9-0.1,1.9-0.1l-1.1,0.1l-1.8,0.5l1.2-0.1
	c-0.6,0.4-3,0.7-3,0.7c0.1,0,0.1,0,0.2,0l0.1,0.1l0.1,0.2c-0.1-0.1-0.1-0.1-0.1-0.1v0.1l-0.1,0.1c-0.1,0-0.1,0.1-0.1,0.1
	c-0.1,0.2-0.1,0.3-0.2,0.5c0,0.1,0,0.1,0,0.2c0,0.1,0,0.2,0,0.3c0,0.1,0,0.2,0,0.2c0,0.1,0,0.1,0,0.2c0,0.1,0,0.2,0,0.3
	c0,0-0.1,0-0.1,0c0,0,0,0,0.1,0c0,0.1,0,0.3,0,0.4c0,0.2,0.1,0.3,0.1,0.5c-0.3,0.1-0.4,0.1-0.4,0.1c0,0,0.1,0,0.2,0
	c0.1,0,0.2,0,0.3,0c0,0.2,0.1,0.3,0.1,0.5c0,0,0,0,0,0L34.4,76c0.2,0,0.4,0,0.7-0.1c0,0,0,0,0,0c0.2,0,0.5-0.1,0.7-0.1
	c0,0.1,0.1,0.2,0.1,0.3c0.5,1,1.1,1.8,1.7,2.6c1.2,1.5,2.2,2.8,2.9,4c0.7,1.2,1.2,2.1,1.5,2.8c0.3,0.6,0.5,1,0.5,1
	c0.2,0.2,0.4,0.4,0.5,0.6c0,0,0.1,0.1,0.1,0.1c0.1,0.1,0.2,0.3,0.3,0.4c0,0,0,0,0,0c0.1,0.1,0.1,0.1,0.2,0.2c0,0,0,0,0,0
	c0,0,0-0.1-0.1-0.1c0,0,0-0.1-0.1-0.1c0-0.1-0.1-0.2-0.1-0.3c0-0.1-0.1-0.2-0.1-0.2c0,0,0,0,0-0.1c0-0.1,0-0.1,0-0.2l0.1,0.1
	l0.1,0.2l0.5,0.8c0,0,0-0.2-0.1-0.3c0-0.1,0-0.1,0-0.2l0.1,0.1l0,0c0.1,0.2,0.2,0.4,0.4,0.6c0.2,0.3,0.4,0.6,0.4,0.6
	c0,0,0-0.1-0.1-0.1l0.5,0.7c1.3,2.2,0.7,0.8,0.7,0.8c0.5-0.5,1-1,1.4-1.5c0.1-0.2,0.3-0.3,0.4-0.4c0.3-0.4,0.7-0.7,1-1.1
	c0.2-0.2,0.3-0.3,0.4-0.5c0.4-0.4,0.7-0.7,1.1-1.1c0.1-0.1,0.2-0.2,0.3-0.3c0.5-0.5,0.9-0.9,1.4-1.3c0,0,0.1-0.1,0.1-0.1
	c0.4-0.4,0.8-0.8,1.3-1.1c0.1-0.1,0.2-0.2,0.3-0.3c0.4-0.3,0.7-0.6,1.1-1c0.1-0.1,0.2-0.1,0.2-0.2c0.7-0.6,1.3-1.1,1.9-1.6
	c0.1,2,0.3,3.8,0.4,5.7c0-1.7,0-3.4-0.1-5.2c0-0.3,0-0.5,0-0.8c0.1,0,0.1-0.1,0.2-0.1c0.1,1.9,0.2,3.8,0.4,5.2c0-1.1,0-2.3,0-3.5
	c0-0.6-0.1-1.2-0.2-1.8c0,0,0.1-0.1,0.1-0.1c0,0,0,0,0,0c0.1,2.4,0.2,4.9,0.5,6.6c0.5,4.2,0.7,8.9,0.7,13.8c0.1,0.6,0.1,1.3,0.2,1.9
	c0,2,0,4.1,0,6.1c0.1,2.9,0.1,5.8,0.2,8.8c0.1,0.7,0.1,1.4,0.2,1.9c0.2,0.3,0.3,0.6,0.4,0.9c0,0.2,0,0.5-0.1,0.7
	c0,0.3-0.1,0.6-0.1,0.9c0,0.4-0.1,0.7-0.1,1.1c0,0.1,0,0.3,0,0.4c0,0.4,0,0.9,0,1.3c0,0.5,0.8,0.7,1.1,1.7c0.1,0.3-0.1,1-0.2,1.7
	c0.4,0,0.4,0.8,0.3,1.4c0.1,0.1,0.2,0.1,0.2,0.1c0,0.2-0.1,1-0.1,1c1.1,0.9,2.3,2.6,3.3,1.7c0.2-0.1,0.6-0.7,0.8-1
	c0.1-0.2,0.4,0.2,0.5,0.3c0.2-0.7,0.1-1.4,0.2-2.2c0.8,0.7,2.4,2,2.4-0.6c0.6,0.1,0.7-1.1,1.4-1.2c0.9-0.2,1.9-0.4,3-0.5
	c0.6-0.2,1.2-0.1,1.7-0.1c0.2,0,0.4,0,0.6,0c4.3-0.2,7.4,1.8,11.6-0.2c8.4-4,17.6,2,19.7,2.6l0.6-1.1c-1.3-2.2-5.9-2.5-7.9-3.5
	c-0.8-0.2-1.3-0.4-1.8-0.7c-0.4-0.2,0.5,0,1.8,0.7c0.6,0.2,1.3,0.3,2.1,0.5c-1-1-2-1.9-2.7-2.7c-0.5-0.1-1-0.1-1.5-0.2
	c-2.3-0.4-4.5-0.4-6.8-1c-0.8-0.2-2.6-0.3-3.4-0.8l10,0.7l0,0l0.4,0.1c0.1,0,0.2-0.1,0.2-0.1c-0.6-1.9-7.2-4.6-8.3-4.2
	c-0.9,0.2-1.7,1.8-2.6,2c-0.3,0.1-0.6-0.4-0.8,0c0,0.2-0.1,0.4-0.3,0.6c-0.6,0.1-1.3-0.8-1.8-0.1c-0.3,0.3-1.3-3.6-1.4-2.9
	c-0.3,2.6-0.1,0.7-0.9,0.5c-0.1-0.1-0.4,1-0.6,0.9c-0.7-0.7-0.9,0.2-1.6,0.5c-1.1,0.8-1.4-0.8-2.4,0.8c-0.1,0.2-1.7,1.3-1.7,1.3
	c-1.2-0.2-2,1.1-3-0.8c-1.1,1.6-2.6-0.3-3.8,0c-1.2,0.3-1.7-1-2.7-2.2c-0.3-0.2-0.5-0.1-0.7-0.4c-0.2-0.4-0.6,0.7-0.9,0.5l0.1-0.7
	c-0.1-0.1-0.3-0.2-0.4-0.2c-0.1-0.1-0.1-0.3,0-0.5c0-0.5,0.1-1-0.1-1.3c-0.4-0.4-0.8-0.7-1.3-0.9c-0.3,0.3-0.6,0.5-0.9,0.8
	c0-2.3-0.1-4.5,0-6.8v-0.1c-0.4-1.9-0.2-4.9-0.5-7.2c-0.4-2.3-0.5-4.6-0.8-7c0,0.3,0,0.7,0,1c0,0,0-0.1,0-0.1
	c-0.2-1.3-0.2-3-0.4-4.6c0.3,0.7,0.3,2,0.3,3.2c0.1-0.2,0.1,0.5,0.2,0.5c0.3,1.5,0.5,2.9,0.7,4c0.3,1.8,0.1,3.7,0.5,5.3
	c0.1,0.5,0,1.4,0.1,2.1c0.1,0.3,0.1,0.6,0.2,0.9c0.1-0.3,0.1-0.7,0.1-1c0-0.2,0.4,5.9,0.6,5.7c0,0,0-0.1,0-0.2c0-0.1,0-0.3,0-0.6
	c0-0.5-0.1-1.2-0.1-2.1c-0.1-1.7-0.2-3.8-0.2-5.6c0.2-0.7,0.9,0.6,1,1.1c0-0.5,0-1,0-1.4l-0.2-2.5c-0.1-1.3-0.2-2.7-0.3-4.1
	c0.1,0.4,0.1,0.7,0.2,1.1c0,0.1,0.1,0.3,0.1,0.5c0.2,1.5,0.2,3.2,0.2,5l0.2,2.8v0.1c0.1-1.2,0.1-2.4,0.1-3.6
	c-0.1-2.2-0.3-4.5-0.4-6.7c0.1,0.4,0.1,0.7,0.2,1.1c0.3,1.5,0.3,3.5,0.3,5.5c0.1,2.1,0.3,4.1,0.5,6.1c0-1.3,0-2.9-0.1-4.2
	c-0.4-4.7-0.6-9.2-0.9-13.6c0-0.2,0-0.5,0-0.7l-0.1-0.2c0-0.3,0-0.5,0-0.8c0,0,0,0,0,0c0-2.4,0-4.7-0.4-7c0-0.2-0.1-0.5-0.1-0.8
	c0.1,2.4,0.3,4.8,0.4,7.1c-0.1-0.4-0.2-0.8-0.2-1.2c-0.1-1.4-0.1-3-0.2-4.4c-0.1,0.2-0.1-0.5-0.2-0.5c-0.2-1-0.2-2.1-0.2-3.3
	l0.2-0.1c0,0.5,0.1,1,0.1,1.5c0,0.2,0,0.5,0.1,0.8c0-0.8-0.1-1.6-0.2-2.4l12.1-6c-1,0.3-9.4,4.6-12.1,6c0-0.1,0-0.3,0-0.4
	c0.3-0.2,0.5-0.4,0.8-0.5c0.1-0.1,0.2-0.1,0.2-0.2c0.2-0.2,0.5-0.3,0.7-0.4c0.1-0.1,0.2-0.1,0.3-0.2c0.2-0.1,0.4-0.3,0.6-0.4
	c0.1-0.1,0.2-0.1,0.3-0.2c0.2-0.1,0.4-0.2,0.6-0.3c0.1-0.1,0.2-0.1,0.3-0.2c0.2-0.1,0.4-0.2,0.5-0.3c0.1,0,0.2-0.1,0.3-0.1
	c0.2-0.1,0.4-0.2,0.5-0.3c0.1,0,0.1-0.1,0.2-0.1c0.2-0.1,0.4-0.2,0.6-0.3c0,0,0.1,0,0.1-0.1c0.4-0.2,0.8-0.4,1.2-0.6
	c0,0,0.1,0,0.1-0.1c0.1-0.1,0.3-0.1,0.4-0.2c0,0,0.1,0,0.1-0.1c0.1,0,0.2-0.1,0.3-0.1c0,0,0.1,0,0.1-0.1c0.1,0,0.2-0.1,0.2-0.1
	c0,0,0.1,0,0.1,0c0.1,0,0.1,0,0.2-0.1c0,0,0.1,0,0.1,0c0.1,0,0.1,0,0.1,0c0,0,0,0,0.1,0c0,0,0.1,0,0.1,0c0,0,0,0,0,0c0,0,0,0,0.1,0
	c0.2-0.2,0.5-0.3,0.7-0.4c0.1,0,0.1-0.1,0.2-0.1c0.2-0.1,0.3-0.2,0.4-0.3c0,0,0.1-0.1,0.1-0.1c0.2-0.1,0.3-0.2,0.4-0.3
	c0.1,0,0.1-0.1,0.2-0.1c0.1,0,0.1-0.1,0.2-0.1c0.3-0.2,0.5-0.3,0.7-0.4c0,0,0,0,0,0c0,0,0,0,0,0c-0.1,0-0.2,0-0.4,0.1c0,0,0,0,0,0
	c-0.8,0.2-1.9,0.5-2.2,0.6c0,0,0,0,0,0c0,0-0.1,0-0.1,0l1-0.4l1.6-0.9L72.6,69c0.1,0,0.2-0.1,0.3-0.2c0,0,0.1,0,0.1,0
	c0.1-0.1,0.2-0.1,0.3-0.2c0,0,0.1,0,0.1,0c0.1-0.1,0.2-0.1,0.4-0.2c0,0,0.1,0,0.1,0c0.1-0.1,0.3-0.1,0.4-0.2c0,0,0.1,0,0.1,0
	c0.1-0.1,0.3-0.1,0.4-0.2c0,0,0,0,0,0c0.1-0.1,0.2-0.1,0.4-0.2c0,0,0,0,0.1,0c0.1,0,0.2-0.1,0.2-0.1c0,0,0.1,0,0.1,0c0,0,0,0,0,0
	c0.2,0.1,0.5,0.2,0.7,0.3c2.2,0.6,4.1,0.8,6.1,0.5c0.2,0.6,0.4,1.2,0.7,1.8c0.1,0.2,0.1,0.3,0.2,0.5c0.2,0.4,0.4,0.9,0.5,1.3
	c0.8,1.4,1.6,2.9,2.4,4.2c1.7,2.7,3.5,5.2,5.1,7.5c2.5,3.5,4.8,6.7,6.7,9.6l-0.2,0c0,0,0.6,1.1,1.6,2.8c0,0,0,0,0-0.1
	c0.4,0.8,0.7,1.6,1.2,2.5c0.2,0.5,0.4,1,0.7,1.5c0.1,0.2,0.2,0.5,0.4,0.7c0.2-0.1,0.5-0.2,0.8-0.3c1-0.4,2.1-0.9,3.2-1.4l0.8-0.5
	l0.7-0.3c0.4-0.2,0.9-0.5,1.3-0.7c3.4-1.8,6.2-3.5,6.8-3.8l-1.1,0c0.1-0.1,0.2-0.1,0.3-0.2c0.2-0.1,0.4-0.2,0.5-0.3
	c0.1,0,0.1-0.1,0.2-0.1c0.2-0.1,0.3-0.2,0.4-0.2c0,0,0,0,0,0l0.5-0.3c0,0-0.1,0-0.1,0c0,0,0,0,0,0c0,0,0,0,0,0
	c0.1-0.1,0.2-0.1,0.3-0.2l-1.6,0.7c0.4-0.3,1.5-0.8,2.5-1.3c0.9-0.5,1.8-0.9,1.8-0.9c-0.7,0.3-2.2,1-4.2,1.9c-0.6,0.3-1.3,0.6-2,0.8
	l-1.5,0c0.3-0.1,0.6-0.3,0.9-0.4c1.6-0.7,3.2-1.3,4.5-1.8c2-0.8,3.3-1.3,3.3-1.3c-0.3,0.1-1,0.4-2.1,0.7c0.2-0.1,0.4-0.2,0.6-0.2
	l-9.3,3l-0.3,0c0,0,0.1,0,0.1-0.1c5.8-2.1,11.6-3.9,11.6-3.9c-0.4,0.1-1.5,0.4-3.1,0.9c-1.6,0.5-3.7,1.2-6,2c-0.9,0.3-1.9,0.7-2.9,1
	l-1.8,0c2-0.8,3.5-1.2,4-1.4c0,0,1.7-0.6,4-1.3c2.3-0.7,5.1-1.4,7.3-1.9L84.6,67.8c0.4-0.1,0.8-0.3,1.1-0.5c3.2-1.7,6.2-8,3.2-13.2
	c-0.6-1-1.2-1.8-1.9-2.3c1-0.3,1.9-0.6,2.8-0.9c0,0,0.1,0,0.1,0c0.9-0.3,1.7-0.7,2.5-1c0.1,0,0.2,0,0.3,0.1c0,0,0.1,0,0.1,0
	c0.1,0,0.2,0.1,0.3,0.1c1.3,0.4,0,1.5,1.9,1.3c0.2,0,1.9,0.5,1.9,0.5c0,0.1,0.1,0.2,0.2,0.3c-0.1,0-0.1,0-0.2,0.1
	c-0.8,0.3-1.3,0.4-1.3,0.4l0.4-0.1c-0.2,0.1-0.3,0.1-0.4,0.2c0,0,0,0,0,0l1.5-0.4l0.1,0l0.1,0c0.1,0.1,0.1,0.1,0.2,0.2
	c-0.2,0.1-0.3,0.1-0.5,0.2c0,0,0,0,0,0c-0.1,0.1-0.2,0.1-0.3,0.1c0,0,0,0,0,0c-0.3,0.1-0.5,0.2-0.6,0.3c0,0,0,0,0,0c0,0-0.1,0-0.1,0
	c0,0,0,0,0,0c0,0,0,0,0,0c0,0,0,0,0,0c0,0,0,0,0,0l0.2,1.4l0.4,1.4l0.4,1.9c0.4,2.5,0.3,1,0.3,1c0.9-0.5,1.8-0.9,2.7-1.3
	c0.2,0.6-0.1,1.4-0.5,2.3c0,0,0,0,0,0.1c-0.1,0.2-0.1,0.3-0.2,0.5c0,0.3,0.2,0.4,0,0.7c-0.2,0.3,0.8,0.1,0.8,0.4l-0.6,0.3
	c0,0.1,0,0.3,0,0.4c0,0.1-0.2,0.2-0.4,0.3c-0.4,0.2-0.8,0.5-1.1,0.8c-0.1,0.5-0.2,1-0.2,1.5c0.5,0.1,1.1,0.2,1.6,0.2
	c0.3-0.2,0.6-0.3,0.8-0.4h0.6c0.6-0.3,1.3-0.8,1.7-1c1.7-1.1,3.6-1.9,5.1-3c0.4-0.3,0.2-1,0.9-1.7c0.2-0.2,0.8-0.5,1.5-0.8
	c-0.2-0.3,0.4-0.8,1.1-1c0-0.1,0-0.2,0-0.2c0.2-0.1,0.8-0.5,0.8-0.5c0.2-1.3,1-3-0.1-3.3c0,0,0,0,0,0c0,0,0,0,0,0
	c0.5-0.1,1-0.3,1.4-0.4c0,0,0.1,0,0.1,0c0.4-0.1,0.8-0.2,1.2-0.3c0.1,0,0.1,0,0.2,0c1.3-0.3,2.5-0.5,3.6-0.7c0,0,0.1,0,0.1,0
	c0.3-0.1,0.7-0.1,1-0.1c0,0,0,0,0,0c0.7-0.1,1.3-0.2,1.8-0.2c0,0,0.1,0,0.1,0c0.3,0,0.5,0,0.7-0.1c0,0,0,0,0,0
	c0.5,0,0.9-0.1,1.3-0.1c0,0,0.1,0,0.1,0c0.1,0,0.3,0,0.4,0c0,0,0,0,0.1,0c0.3,0,0.5,0,0.7,0c0,0,0,0,0.1,0c0.1,0,0.1,0,0.1,0
	c0,0,0,0,0,0c0,0,0.1,0,0.1,0c0.3-0.1,0.5-0.1,0.7-0.1c0.1,0,0.1,0,0.2,0c0.1,0,0.3,0,0.4-0.1c0.1,0,0.2,0,0.2,0c0.1,0,0.2,0,0.3,0
	c0.1,0,0.1,0,0.2,0c0.1,0,0.2,0,0.2,0c0.1,0,0.3,0,0.4,0c0,0,0.1,0,0.1,0c0.1,0,0.1,0,0.2,0c0,0,0,0,0,0c0.1,0,0.1,0,0.2,0
	c0,0,0,0,0,0c0,0,0,0,0,0c-0.1,0-0.2-0.1-0.3-0.1c0,0,0,0,0,0c-0.4-0.1-0.9-0.2-1.3-0.2l1.7-0.2l-1.1-0.1c0.6-0.2,2.9-0.2,2.9-0.2
	c-1.6-0.8-13.5,0.1-13.5,0.1c0.2-0.2,0.7-0.4,1.5-0.6l11.5-1c-1.8-0.1-8.4,0.6-11.3,0.9c3.7-0.9,12.2-1.5,12.2-1.5
	c0,0-0.1,0-0.2-0.1c0,0,0,0-0.1,0c0,0-0.1,0-0.2,0c0,0-0.1,0-0.1,0c-0.1,0-0.1,0-0.2,0c0,0-0.1,0-0.1,0c-0.1,0-0.2,0-0.2,0
	c-0.1,0-0.1,0-0.2,0c-0.1,0-0.2,0-0.3,0c-0.1,0-0.1,0-0.2,0c-0.1,0-0.2,0-0.4,0c0,0-0.1,0-0.1,0c-0.2,0-0.4,0-0.5,0c0,0-0.1,0-0.1,0
	c-0.2,0-0.3,0-0.5,0c-0.1,0-0.1,0-0.2,0c-0.1,0-0.3,0-0.4,0c-0.1,0-0.1,0-0.2,0c-0.2,0-0.3,0-0.5,0c-0.1,0-0.1,0-0.2,0
	c-0.2,0-0.3,0-0.5,0c-0.1,0-0.1,0-0.2,0c-0.2,0-0.4,0-0.6,0c0,0-0.1,0-0.1,0c-1,0.1-2,0.1-2.9,0.2c0,0,0,0,0,0l1.5-0.3l2.2-0.4
	c2.8-0.3,5.3-0.5,5.6-0.5c0,0,0,0,0,0c-0.1,0-0.1,0-0.2,0c0,0-0.1,0-0.1,0c-0.1,0-0.1,0-0.2,0c0,0-0.1,0-0.1,0c-0.1,0-0.2,0-0.2,0
	c-0.1,0-0.1,0-0.2,0c-0.1,0-0.2,0-0.3,0c-0.1,0-0.1,0-0.2,0c-0.2,0-0.3,0-0.5,0c-0.1,0-0.2,0-0.3,0c-0.1,0-0.2,0-0.3,0
	c-0.1,0-0.3,0-0.4,0c-0.1,0-0.1,0-0.2,0l4.1-0.7c-2.6-0.2-6.8,0.4-6.8,0.4c-0.1,0-0.2,0-0.4,0c-0.1,0-0.2,0-0.2,0c0,0-0.1,0-0.1,0
	c-0.1,0-0.2,0-0.3,0c0,0-0.1,0-0.1,0c-0.1,0-0.2,0-0.3,0c0,0-0.1,0-0.1,0c-0.1,0-0.2,0-0.2,0c-0.1,0-0.2,0-0.3,0c0,0-0.1,0-0.1,0
	c-0.1,0-0.3,0-0.4,0.1c-0.1,0-0.2,0-0.2,0c-0.1,0-0.2,0-0.3,0c-0.1,0-0.2,0-0.3,0c-0.1,0-0.2,0-0.3,0c-0.1,0-0.1,0-0.2,0
	c-0.1,0-0.3,0-0.4,0.1c0,0-0.1,0-0.1,0c-0.4,0.1-0.8,0.1-1.2,0.2c-0.2,0-0.3,0-0.5,0.1c-0.1,0-0.1,0-0.2,0c-0.4,0.1-0.8,0.1-1.2,0.2
	c-0.1,0-0.1,0-0.2,0c-0.1,0-0.2,0-0.3,0c-0.1,0-0.3,0-0.4,0.1c0,0,0,0,0,0c0,0,0,0,0,0c-0.4,0-1.2,0.1-2.2,0.3c-0.1,0-0.1,0-0.2,0
	c-0.1,0-0.3,0-0.5,0.1c-0.1,0-0.2,0-0.3,0.1c-0.1,0-0.3,0-0.4,0.1c-0.2,0-0.4,0.1-0.6,0.1c-0.1,0-0.1,0-0.2,0c0,0,0,0,0,0
	c0,0,0,0,0,0c-0.1,0-0.3,0-0.4,0.1c-0.1,0-0.3,0-0.4,0.1c-0.2,0-0.3,0-0.5,0.1c-0.2,0-0.4,0.1-0.6,0.1c0,0-0.1,0-0.1,0
	c-0.1,0-0.1,0-0.2,0c-0.1,0-0.2,0-0.2,0c0,0,0,0,0,0c-0.1,0-0.2,0-0.3,0c0,0,0,0,0,0c-0.1,0-0.1,0-0.2,0c0,0-0.1,0-0.1,0
	c-0.3,0.1-0.5,0.1-0.8,0.2c-0.6,0.1-1.1,0.2-1.3,0.2c-0.1,0-0.2,0-0.2,0c0,0-0.1,0-0.1,0c-0.2,0-0.5,0.1-0.7,0.1c0,0-0.1,0-0.1,0
	c-0.2,0-0.4,0.1-0.7,0.2c0,0-0.1,0-0.1,0c-0.2,0.1-0.5,0.1-0.8,0.2c0,0,0,0,0,0c-0.3,0.1-0.6,0.2-0.9,0.3c0,0,0,0,0,0
	c-0.4-0.3-0.7-0.8-0.9-1.2c-0.1-0.1-0.2-0.3-0.3-0.4c-0.1-0.2-0.3-0.4-0.4-0.6c0,0-0.1-0.1-0.1-0.1c-0.1-0.1-0.2-0.3-0.3-0.4
	c0,0,0-0.1-0.1-0.1c-0.1-0.2-0.2-0.3-0.3-0.5c0,0,0-0.1,0-0.1c-0.1-0.2-0.2-0.3-0.3-0.5c0,0,0,0,0,0c0.3-0.2,0.5-0.3,0.8-0.4
	c0.2-0.1,0.3-0.2,0.5-0.3c0.6-0.3,1.2-0.6,1.7-0.9c0.8-0.5,1.7-0.9,2.5-1.3c2.7-1.5,5.3-2.8,7.8-3.8c2.5-1.1,4.9-1.9,7-2.5
	c1.1-0.3,2.1-0.6,3.1-0.8c0.9-0.2,1.8-0.3,2.7-0.5c0.9-0.1,1.6-0.1,2.3-0.2c0.4-0.1,0.7-0.1,1-0.1h0.2c0.1,0,0.1,0.1,0.1,0.2
	c0,0.1,0,0.3,0,0.4c0,1.1,0.1,2,0.1,2.5s0,0.9,0,0.9c0,0.3,0.1,0.6,0.1,0.8c0,0.1,0,0.2,0,0.3c0,0.2,0,0.3,0.1,0.5
	c0,0.1,0,0.1,0,0.2c0,0.2,0,0.3,0.1,0.5c0,0.1,0,0.1,0,0.2c0,0.1,0,0.3,0.1,0.4c0,0.1,0,0.1,0,0.2c0,0.1,0,0.2,0.1,0.4
	c0,0.1,0,0.2,0,0.2c0,0.1,0,0.1,0,0.2c0.1,0.4,0.1,0.8,0.2,1.1c0,0,0,0,0,0c0-0.2,0-0.4,0-0.6c0,0,0-0.1,0-0.1c0-0.2,0-0.4,0-0.6
	c-0.1-1.3-0.1-2.5-0.1-2.5l0.1,1.8l0.4,3l-0.1-1.9c0.1,0.6,0.2,1.8,0.3,3c0.1,1.2,0.2,2.2,0.2,2.2c0-0.7-0.1-2.5-0.2-4.8
	c-0.1-2.4,0-4.9-0.6-8.8l-0.1-0.7c-0.1-0.3,0-0.6-0.3-0.5c-0.5,0-0.9,0-1.3,0c-0.9,0.1-1.7,0.1-2.5,0.1c-1.4,0.1-2.5,0.3-3.6,0.4
	c-2.1,0.3-3.4,0.6-3.4,0.6c0.2-0.2,0.8-0.4,1.6-0.7c0.4-0.1,0.9-0.3,1.4-0.4c0.6-0.1,1.2-0.2,1.8-0.3c0.6-0.1,1.2-0.2,2-0.3
	c1,0,2-0.1,3-0.1c0.5-0.1,1-0.1,1.5-0.1c0.1,0,0.2-0.1,0.2,0V33l0.1,0.4l0.1,0.8c0.2,1.1,0.4,2.2,0.6,3.3l0.1,0.8v0.6
	c0,0.4,0,0.7,0,1.1c0,0.8,0,1.5,0,2.2c0,1.4,0,2.7,0,3.8c0,2.2,0,3.7,0,3.7c0.1-0.5,0.1-2.3,0.2-4.8c0-1.3,0.1-2.7,0.1-4.2
	c0-0.8,0-1.5,0-2.3c-0.2-1.1-0.4-2.4-0.6-3.6c-0.1-0.7-0.2-1.3-0.3-1.9l-0.1-0.5c-0.1-0.1-0.1-0.2-0.1-0.2h-0.2h-0.9
	c-1.2,0-2.3,0-3.4,0c-0.3,0-0.5,0-0.8,0h-0.6c-0.4,0-0.8,0.1-1.1,0.1c-0.6,0.1-1.3,0.1-1.9,0.2c-0.3,0-0.5,0.1-0.8,0.1
	c-0.1,0-0.1,0-0.2,0c-0.2,0-0.3,0.1-0.5,0.1c-0.1,0-0.1,0-0.2,0c-0.2,0-0.4,0.1-0.6,0.1c0,0-0.1,0-0.1,0c-0.1,0-0.3,0.1-0.4,0.1
	c-0.1,0-0.1,0-0.2,0c-0.1,0-0.1,0-0.2,0c-0.1,0-0.1,0-0.2,0c-0.1,0-0.1,0-0.2,0c0,0-0.1,0-0.1,0c0,0,0,0,0,0c0.2,0,0.4-0.1,0.7-0.2
	c0,0,0.1,0,0.1,0c0.2,0,0.4-0.1,0.6-0.1c0.9-0.2,2-0.5,3.4-0.6c0.7,0,1.4-0.1,2.2-0.2c0.3-0.1,1-0.1,1.6-0.1c0.6,0,1.2,0,1.8,0
	c0.7,0,1.3,0,1.9,0h0.5l0,0C131.6,31.7,131.3,31.7,131.1,31.7z M59.6,21.6c0.1,0.5,0.3,1,0.4,1.4c0.2,0.6,0.3,0.9,0.3,0.9
	c-0.1-0.2-0.4-1.1-0.8-2.4L59.6,21.6z M59.5,23.4c-0.2-0.7-0.5-1.4-0.7-2.2l0.5,0.2c0.3,1.1,0.7,2.2,1,3.2L59.5,23.4z M60.8,21.2
	c0-0.2-0.1-0.3-0.1-0.5l0.6,0.6c0.1,0.3,0.2,0.5,0.2,0.7c0.1,0.5,0.2,0.8,0.2,0.8C61.5,22.7,61.1,22.1,60.8,21.2z M64.2,34.4
	c0,0-0.3-0.5-0.7-1.4c0.3,0.7,0.7,1.3,1,1.9C64.4,34.7,64.3,34.6,64.2,34.4z M36.9,72.9c-0.2-0.1-0.3-0.2-0.5-0.4
	c-0.3-0.2-0.5-0.4-0.6-0.5c2.4,0.2,13.8-2.3,13.8-2.3c0,0.1-0.1,0.1-0.2,0.2c0,0,0,0-0.1,0c-0.1,0.1-0.2,0.1-0.2,0.2c0,0,0,0,0,0
	c0,0-0.1,0-0.1,0.1L37.1,73C37,73,36.9,72.9,36.9,72.9z M37.1,73.1c3.1-0.6,10.1-2.4,11.8-2.8c-0.1,0-0.2,0.1-0.3,0.1
	c0,0-0.1,0-0.1,0.1c-0.1,0.1-0.3,0.1-0.4,0.2c0,0-0.1,0-0.1,0c-0.2,0.1-0.4,0.1-0.6,0.2c0,0-0.1,0-0.2,0.1C47.1,71,47,71,46.8,71.1
	c-0.1,0-0.1,0-0.2,0.1c-0.2,0.1-0.5,0.2-0.7,0.2c0,0-0.1,0-0.1,0c-0.2,0.1-0.4,0.1-0.6,0.2c-0.1,0-0.1,0-0.2,0.1
	c-0.5,0.2-1.1,0.3-1.6,0.5c-0.1,0-0.1,0-0.2,0.1c-0.2,0.1-0.5,0.1-0.8,0.2c0,0-0.1,0-0.1,0c-0.3,0.1-0.6,0.1-0.8,0.2
	c-0.1,0-0.1,0-0.2,0.1c-0.2,0.1-0.5,0.1-0.7,0.2c0,0-0.1,0-0.2,0c-0.3,0.1-0.5,0.1-0.8,0.2c-0.1,0-0.1,0-0.2,0
	c-0.2,0.1-0.4,0.1-0.6,0.2c0,0-0.1,0-0.1,0c-0.2,0.1-0.5,0.1-0.7,0.2C37.6,73.4,37.4,73.2,37.1,73.1z M38.3,73.8
	c0.5-0.1,1-0.2,1.5-0.3c0,0,0,0,0,0c1.6-0.3,3.4-0.7,5.1-1.1c0,0,0,0,0,0l-3.4,1.1c0,0,0,0,0,0c-0.9,0.2-1.8,0.4-2.6,0.6
	C38.8,74.1,38.5,74,38.3,73.8z M39.2,74.4C39.2,74.4,39.2,74.4,39.2,74.4c0.1,0,0.1-0.1,0.2-0.1L39.2,74.4z M55.6,74.3
	C55.6,74.3,55.5,74.4,55.6,74.3c-0.7,0.4-1.3,0.7-1.6,0.9c-0.1,0.1-0.2,0.1-0.2,0.1c0,0-0.1,0-0.1,0c-0.1,0.1-0.2,0.1-0.3,0.2
	c-0.8,0.5-1.4,0.9-1.8,1.1c-0.1,0.1-0.2,0.1-0.2,0.1c-0.1,0-0.1,0.1-0.1,0.1c-0.2,0.1-0.5,0.3-0.7,0.4c-0.1,0.1-0.2,0.1-0.3,0.2
	c-0.2,0.1-0.3,0.2-0.5,0.3c-0.1,0.1-0.2,0.1-0.3,0.2c-0.2,0.1-0.3,0.2-0.5,0.4c-0.1,0.1-0.2,0.2-0.3,0.2c-0.2,0.1-0.3,0.3-0.5,0.4
	c-0.1,0.1-0.2,0.2-0.3,0.2c-0.2,0.1-0.4,0.3-0.6,0.4c-0.1,0.1-0.2,0.1-0.3,0.2c-0.2,0.2-0.4,0.3-0.6,0.5c-0.1,0.1-0.1,0.1-0.2,0.2
	c-0.2,0.2-0.4,0.4-0.7,0.6c0,0-0.1,0.1-0.1,0.1c-0.3,0.2-0.5,0.4-0.8,0.7c0,0,0,0,0,0c-0.1-0.2-0.1-0.5-0.2-0.7c0,0,0-0.1,0-0.1
	c-0.1-0.3-0.2-0.5-0.3-0.8c0,0,0,0,0-0.1c-0.1-0.4-0.4-1-0.8-1.7c-0.5-1-1-1.6-1-1.6c-0.2-0.2-0.4-0.4-0.6-0.6
	c-0.2-0.2-0.3-0.3-0.3-0.3c-0.3-0.4-0.8-0.8-1.5-1.2c0,0,0,0,0,0c0.1,0,0.2-0.1,0.3-0.1c0,0,0.1,0,0.1,0c0.1,0,0.2,0,0.2-0.1
	c0,0,0.1,0,0.1,0c0.1,0,0.2-0.1,0.3-0.1c0,0,0,0,0,0c0.1,0,0.1,0,0.2-0.1c0,0,0,0,0.1,0c0.1,0,0.2,0,0.2,0c0.1,0,0.2,0,0.3-0.1
	c0,0,0.1,0,0.1,0c0.1,0,0.3-0.1,0.5-0.1c0,0,0.1,0,0.1,0c0.2,0,0.4-0.1,0.6-0.1c0,0,0.1,0,0.1,0c0.2-0.1,0.5-0.1,0.7-0.2
	c0.1,0,0.1,0,0.2-0.1c0.3-0.1,0.5-0.1,0.8-0.2c0,0,0,0,0,0c0.3-0.1,0.6-0.2,0.9-0.3c0.1,0,0.1,0,0.2-0.1c0.3-0.1,0.6-0.2,1-0.3
	c0.1,0,0.1,0,0.2,0c0.3-0.1,0.6-0.2,0.9-0.3c0.1,0,0.1,0,0.2-0.1c0.3-0.1,0.7-0.2,1-0.3c0.1,0,0.1,0,0.2,0c0.3-0.1,0.7-0.2,1-0.3
	c0,0,0.1,0,0.1,0c0.3-0.1,0.7-0.2,1-0.3c0,0,0,0,0.1,0c0.4-0.1,0.7-0.2,1.1-0.3c0,0,0,0,0,0c0.3-0.1,0.7-0.2,1-0.3c0,0,0.1,0,0.1,0
	c0.3-0.1,0.7-0.2,1-0.3c0,0,0,0,0,0c0.6-0.2,1.2-0.4,1.7-0.5c0,0.3,0,0.6,0,0.9c0,1,0,1.9,0,2.7C56.1,74,55.9,74.2,55.6,74.3z
	 M56.8,73.6c0-0.3-0.1-0.5-0.1-0.8C56.7,73.1,56.7,73.4,56.8,73.6c-0.2,0.1-0.2,0.1-0.3,0.2c0-0.8-0.1-1.6-0.1-2.4
	c0.1,0.4,0.2,1,0.3,1.4c0-0.4,0-0.8,0-1.2c0.1,0.6,0.2,1.2,0.3,1.8C57,73.5,56.9,73.6,56.8,73.6z M90.7,118.8c0.8,0,1.5-0.2,2.4-0.2
	c0.5,0.1,1.1,0.4,1.6,0.5c0.1,0,0.2,0.1,0.3,0.1c0,0,0.1,0,0.1,0.1c0.1,0,0.1,0.1,0.2,0.1c0,0,0,0,0.1,0c0.1,0.1,0.2,0.2,0.4,0.3
	L90.7,118.8c-0.3,0-0.6-0.1-0.9-0.2L90.7,118.8z M59.6,104L59.6,104c0,0.1,0,0.2,0,0.2V104z M59.6,113c0.2,0.7,0.3,1.6,0.3,2.5l0,0
	c-0.1,0.7,0,1.5-0.1,2c0,0.3,0,0.7-0.1,1c-0.1-0.7-0.1-1.5-0.1-2.1c0,0.1,0.1,0.1,0.1,0.1C59.7,115.2,59.6,114.3,59.6,113z
	 M59.5,100.7c0,0.1,0,0.3,0,0.4c-0.1-1.1-0.2-2.2-0.2-3.4C59.4,98.6,59.5,99.6,59.5,100.7z M103.2,93.5l-0.3,0
	c-0.3-0.4-0.5-0.9-0.8-1.3L103.2,93.5z M97.4,83.7c0,0,1.5,2.2,3.5,5.3c-0.7-1.1-1.4-2.2-2.2-3.3c-0.8-1.1-1.6-2.2-2.2-3.1
	C96.8,83,97.1,83.4,97.4,83.7z M76.2,50.2C76.2,50.2,76.2,50.2,76.2,50.2C76.2,50.2,76.2,50.1,76.2,50.2
	C76.2,50.1,76.2,50.2,76.2,50.2z M77.3,34.3L77.3,34.3c-0.1,0,0-0.2,0-0.3C77.3,34.1,77.3,34.2,77.3,34.3z M77.4,33.3
	c-1,1.8-2,3.6-3,4.9C75.4,36.5,76.5,34.7,77.4,33.3z M67.9,45.6L67.9,45.6c0.1,0,0.1,0.1,0,0.1C67.9,45.7,67.9,45.7,67.9,45.6
	C67.9,45.7,67.9,45.6,67.9,45.6z M65.7,49.6c0.1,0.1,0.1,0.1,0.1,0.2c-0.1,0.1-0.2,0.3-0.2,0.4L65.5,50
	C65.5,49.8,65.6,49.7,65.7,49.6z M59,88.2c0-0.2-0.1-0.5-0.1-0.6c-0.2-1.7-0.3-3.3-0.4-5.1L58.4,82c-0.1-0.4,0-1.1,0-1.6
	c0,0.7,0.1,1.4,0.1,2.1C58.7,84.5,59.1,86,59,88.2z M59.3,62c-0.1,0.3-0.3,0.6-0.5,0.9c-0.1,0.3-0.3,0.5-0.4,0.8
	c-0.2,0.1-0.4,0.2-0.7,0.3c0,0,0-0.1,0-0.1c0.3-0.5,0.6-1,0.9-1.5c0.2-0.4,0.4-0.7,0.6-1.1c0.3-0.6,0.6-1.3,0.9-1.9
	c1.5-2.8,3.1-5.7,4.9-8.7c0.1-0.2,0.2-0.4,0.4-0.6c0,0.1,0.1,0.1,0.1,0.2c-0.1,0.2-0.3,0.5-0.4,0.7c-0.4,0.9-1.1,1.8-1.7,2.8
	c-0.1,0.2-0.2,0.5-0.1,0.5c-1,1.3-1.2,2.3-2.1,3.6l0.5-0.5c-0.4,0.8-0.7,1.5-1.3,2.5C59.9,60.7,59.7,61.4,59.3,62z M62.7,61.2
	c0,0,0,0.1-0.1,0.1c-0.2,0.1-0.3,0.2-0.5,0.3c0,0,0-0.1,0.1-0.1c0.6-1,1-1.9,1-2.5C63.7,58.8,63.3,59.9,62.7,61.2z M60.9,94.8v0.1
	c-0.1,0.7-0.2,1.4-0.2,2.2l0.1,0.2h-0.2c-0.4-2.1-0.1-4.7-0.3-7c-0.2-3-0.3-6.3-0.7-9.3c0-0.4,0-0.8,0-1.3c0.2,1.5,0.5,2.8,0.6,4.3
	c0,0.1,0,0.3,0,0.4c0,0.1,0,0.2,0,0.3c0.1,0.1,0.1,0.3,0.1,0.5c0.1,0.4,0.1,0.9,0.1,1.3c0,0.9,0.1,1.8,0.1,2.8
	c0-0.8-0.1-1.7-0.1-2.5c0.1,1.3,0.2,2.7,0.2,4.1c0-0.5-0.1-1-0.1-1.5c0.1,1.6,0.2,3.2,0.3,4.6C60.9,94.3,60.9,94.5,60.9,94.8z
	 M60.6,71.4C60.6,71.4,60.6,71.4,60.6,71.4c-0.2-0.3-0.2-0.8-0.3-1.5c0-0.3-0.1-0.7-0.1-1c0.1,0,0.2-0.1,0.2-0.1
	c0.1,0,0.2-0.1,0.4-0.1c0.1,0.8,0.1,1.7,0.2,2.5C60.8,71.3,60.7,71.3,60.6,71.4z M61.2,71c-0.1,0-0.1,0.1-0.2,0.1c0-0.8,0-1.7,0-2.5
	c0,0,0,0,0.1,0C61.1,69.4,61.2,70.2,61.2,71C61.3,71,61.2,71,61.2,71z M61.6,76.5c-0.1,0-0.2,0.1-0.2,0.1c0-0.1,0-0.3,0-0.4
	c0,0,0,0,0,0c0.1,0,0.1-0.1,0.2-0.1C61.6,76.2,61.6,76.4,61.6,76.5z M61.3,71C61.3,71,61.3,71,61.3,71c-0.1-0.8-0.1-1.6-0.1-2.4
	c3.8-1.4,10-4.9,10-4.9L68,64.7c2.3-1.2,2.7-1.6,2.8-1.7c0,0,0,0,0,0c0,0,0,0,0,0l-0.4-1.4l-0.6-1.3l-0.7-1.9
	c-0.7-2.4-0.5-0.9-0.5-0.9c-0.8,0.6-1.6,1.1-2.4,1.6c-0.1,0-0.1,0.1-0.2,0.1c-0.8,0.5-1.6,1-2.4,1.5c0,0,0,0,0,0
	c1.6-2.5,2.9-5,4.3-7.4c0.2,0.3,0.4,0.5,0.5,0.6L68,53.3c0.1-0.1,0.2-0.3,0.2-0.4c0.8,0.9,1.3,1.5,1.6,1.8c-0.2-0.3-0.4-0.6-0.6-1
	c-0.4-0.6-0.7-1.2-0.8-1.3c0,0,0,0,0,0l0.6,0.9l1.2,1.3c0,0,0-0.1-0.1-0.1l1,1.3c0,0,0,0,0,0c-0.4,1-0.9,2.2-0.8,2.5
	c0.3,0.5,0,2.6,0,2.6s0.8,2.1,2.1,4c0,0,0,0,0,0c-0.2,0.1-0.4,0.2-0.7,0.3c0,0,0,0-0.1,0c-0.2,0.1-0.4,0.2-0.5,0.3
	c0,0-0.1,0-0.1,0.1c-0.2,0.1-0.3,0.2-0.5,0.2c0,0-0.1,0-0.1,0c-0.4,0.2-0.7,0.4-0.9,0.5c0,0,0,0,0,0c-0.1,0.1-0.2,0.1-0.3,0.2
	c0,0,0,0,0,0c-0.1,0-0.1,0.1-0.2,0.1c0,0,0,0,0,0c0,0-0.1,0-0.1,0c0,0-0.1,0.1-0.2,0.1c0,0,0,0-0.1,0c-0.1,0-0.1,0.1-0.2,0.1
	c0,0-0.1,0.1-0.1,0.1c-0.1,0-0.1,0.1-0.2,0.1c-0.1,0-0.1,0.1-0.2,0.1c-0.1,0-0.1,0.1-0.2,0.1c-0.1,0-0.1,0.1-0.2,0.1
	c-0.1,0-0.1,0.1-0.2,0.1c-0.1,0-0.2,0.1-0.3,0.1c-0.1,0-0.1,0.1-0.2,0.1c-0.1,0.1-0.2,0.1-0.3,0.2c-0.1,0-0.2,0.1-0.2,0.1
	c-0.1,0.1-0.2,0.1-0.3,0.2c-0.1,0-0.2,0.1-0.2,0.1c-0.1,0.1-0.2,0.1-0.3,0.2c-0.1,0-0.1,0.1-0.2,0.1c-0.1,0.1-0.3,0.1-0.4,0.2
	c-0.1,0-0.1,0.1-0.2,0.1c-0.1,0.1-0.3,0.2-0.4,0.3c0,0-0.1,0-0.1,0.1c-0.2,0.1-0.3,0.2-0.5,0.3c0,0-0.1,0-0.1,0.1
	c-0.2,0.1-0.3,0.2-0.5,0.3c-0.1,0-0.2,0.1-0.2,0.1c-0.2,0.1-0.3,0.2-0.5,0.3c0,0-0.1,0-0.1,0c-0.2,0.1-0.4,0.2-0.5,0.3
	c-0.1,0-0.1,0.1-0.2,0.1C61.6,70.8,61.5,70.9,61.3,71z M73.5,66c-0.4,0.2-0.9,0.4-1.5,0.6c0,0,0,0,0,0c-0.5,0.2-1.1,0.5-1.7,0.8
	c0,0,0,0,0,0c-0.6,0.3-1.2,0.6-1.8,0.9c0,0,0,0,0,0c-0.6,0.3-1.2,0.6-1.8,0.9c0,0-0.1,0-0.1,0c0,0-0.1,0-0.1,0l1.1-0.7l2.6-1.6
	c0.2-0.1,0.3-0.2,0.5-0.2c0.1,0,0.2-0.1,0.2-0.1c0.2-0.1,0.5-0.2,0.7-0.4c0.1,0,0.2-0.1,0.2-0.1c0.1-0.1,0.3-0.1,0.4-0.2
	c0.1,0,0.2-0.1,0.3-0.1c0.2-0.1,0.4-0.2,0.6-0.3c0,0,0,0,0,0C73.2,65.7,73.3,65.9,73.5,66C73.5,66,73.5,66,73.5,66z M73.7,66.3
	c0.1,0.1,0.3,0.3,0.4,0.4c-2.5,1.1-8.9,4.5-11.2,5.7c0.1-0.1,0.3-0.2,0.5-0.3c0,0,0.1-0.1,0.1-0.1c0.2-0.1,0.4-0.2,0.5-0.4
	c0,0,0.1,0,0.1-0.1c0.2-0.1,0.4-0.3,0.7-0.4c0.1,0,0.1-0.1,0.2-0.1c0.2-0.1,0.5-0.3,0.7-0.4c0,0,0,0,0.1,0c0.2-0.1,0.5-0.3,0.8-0.4
	c0.1,0,0.1-0.1,0.2-0.1c0.3-0.2,0.5-0.3,0.8-0.5c0,0,0.1-0.1,0.1-0.1c0.2-0.1,0.5-0.3,0.7-0.4c0.1,0,0.1-0.1,0.2-0.1
	c0.3-0.2,0.6-0.3,0.8-0.5c0.1,0,0.1-0.1,0.2-0.1c0.3-0.1,0.5-0.3,0.8-0.4c0,0,0,0,0.1,0c0.3-0.1,0.5-0.3,0.8-0.4
	c0.1,0,0.1-0.1,0.2-0.1c0.5-0.3,1-0.5,1.5-0.8c0,0,0.1,0,0.1-0.1C73.3,66.5,73.5,66.4,73.7,66.3z M72,65.8l0.7-0.4l0.2-0.1
	c0,0,0,0.1,0.1,0.1C72.6,65.5,72.3,65.7,72,65.8z M62.1,73.3c-0.1,0-0.1,0.1-0.1,0.1c0,0,0,0,0,0c0-0.1,0.1-0.2,0.1-0.2
	c0,0,0,0,0-0.1c0.1-0.1,0.2-0.2,0.3-0.3c0,0,0,0,0.1,0c0.1-0.1,0.2-0.2,0.4-0.3c0,0,0,0,0.1,0l11.3-5.8c0.4,0.4,0.9,0.7,1.3,1
	C73.6,67.7,63.5,72.6,62.1,73.3z M73.4,52.6v-0.9l-1.5,2.5c-0.1-0.3-0.2-0.6-0.3-0.8c-0.6-1.5-1.1-2.6-1.1-2.6
	c0-0.1-0.1-0.2-0.1-0.4c0,0,0,0,0,0c-0.1-0.2-0.2-0.4-0.3-0.6c0,0,0,0,0,0c0.2-0.4,0.5-0.7,0.7-1.1c0,0.2-0.1,0.3-0.1,0.4
	c0.7-1,1.3-1.9,1.9-2.9l3.6,4c-0.1,0-0.2,0.1-0.3,0.1C74,51.4,73.4,52.6,73.4,52.6z M83.4,61.1c0,0-1.3,1.3-3.4,1.6
	c-2.2,0.3-4.3,0.2-4.5-3.2c-0.2-3.5,5.2-4.3,5.2-4.3c2.4-0.1,1,1.4,1.1,2.1c0,0.6,1.7,0.5,1.7,0.5l1.1,1.9L83.4,61.1z"/>
<path class="st2" d="M37.2,70.8c-0.1,0-0.1,0-0.2-0.1c0,0,0,0,0,0c0,0,0,0,0,0c0,0,0,0,0,0c0,0,0,0,0,0c0,0,0,0,0,0c0,0,0,0,0,0
	c0,0,0,0.1,0,0.1c0,0,0,0,0,0c0,0,0,0,0.1,0c0,0,0,0,0,0c0,0,0.1,0,0.2,0c0,0,0,0,0,0c0.1,0,0.2,0,0.3,0
	C37.3,70.8,37.3,70.8,37.2,70.8C37.2,70.8,37.2,70.8,37.2,70.8z"/>
<path class="st2" d="M43.8,88c0,0-0.1-0.1-0.2-0.2C43.7,87.9,43.7,88,43.8,88C43.7,88,43.9,88.1,43.8,88z"/>
<path class="st2" d="M128.3,50.6c0.2,0.1,0.3,0.1,0.3,0.2C128.6,50.8,129,50.6,128.3,50.6z"/>
<path class="st2" d="M114.5,52.7l13-1C126.5,51.6,114.5,52.7,114.5,52.7z"/>
</svg>
