<?xml version="1.0" encoding="utf-8"?>
<!-- Generator: Adobe Illustrator 15.0.0, SVG Export Plug-In . SVG Version: 6.00 Build 0)  -->
<!DOCTYPE svg PUBLIC "-//W3C//DTD SVG 1.1//EN" "http://www.w3.org/Graphics/SVG/1.1/DTD/svg11.dtd">
<svg version="1.1" id="Calque_1" xmlns="http://www.w3.org/2000/svg" xmlns:xlink="http://www.w3.org/1999/xlink" x="0px" y="0px"
	 width="500px" height="500px" viewBox="0 0 500 500" enable-background="new 0 0 500 500" xml:space="preserve">
<polygon fill="#0059A2" points="33.596,201.738 51.519,201.738 78.391,228.071 105.534,201.738 124.271,201.738 85.726,238.927 
	72.69,238.927 "/>
<polygon fill="#0059A2" points="66.718,207.439 90.608,207.439 78.391,218.841 "/>
<polygon fill="#0059A2" points="28.037,295.528 28.037,277.612 54.366,250.736 28.037,223.59 28.037,204.859 65.226,243.406 
	65.226,256.438 "/>
<polygon fill="#0059A2" points="33.738,262.41 33.738,238.521 45.141,250.736 "/>
<polygon fill="#0059A2" points="127.667,204.859 127.667,222.777 101.332,249.652 127.667,276.799 127.667,295.528 90.477,256.983 
	90.477,243.951 "/>
<polygon fill="#0059A2" points="121.966,237.979 121.966,261.868 110.564,249.652 "/>
<polygon fill="#1A171B" points="124.537,298.383 106.619,298.383 79.748,272.049 52.598,298.383 33.868,298.383 72.413,261.193 
	85.442,261.193 "/>
<polygon fill="#1A171B" points="91.421,292.682 67.531,292.682 79.748,281.278 "/>
<path fill="#1A171B" d="M222.534,280.548c2.2,8.373,3.199,14.417,12.185,14.65v3.837h-35.058v-3.837
	c6.398-0.233,7.89-1.743,7.89-5.232c0-2.209-0.599-4.649-1.196-6.743l-3.6-13.719h-25.466l-2.194,7.325
	c-0.901,3.023-1.998,6.509-1.998,9.767c0,5.928,4.598,8.255,8.986,8.603v3.837H155.52v-3.837
	c9.288-3.022,11.285-8.837,14.386-18.369l19.476-60.462l14.576-5.464L222.534,280.548z M191.175,226.715l-11.89,37.322h21.88
	L191.175,226.715z"/>
<path fill="#1A171B" d="M254.403,242.993v3.605c-2.193,0-4.589,0.697-4.589,3.837c0,1.627,0.498,3.141,0.998,4.532l9.786,27.326
	l7.391-19.648c0.899-2.327,2.194-6.164,2.194-8.722c0-4.65-2.896-6.859-6.491-7.325v-3.605h21.376v3.605
	c-6.793,3.14-7.692,5.351-10.484,12.789l-15.088,40.462h-7.482l-16.381-43.95c-2.194-5.464-2.996-7.439-8.29-9.301v-3.605H254.403z"
	/>
<path fill="#1A171B" d="M321.214,233.109c0-6.625-1.491-10.811-7.691-11.275v-3.606l22.077-6.395v72.668
	c0,6.278,1.295,10.23,7.389,10.928v3.605c-9.288,0.466-15.679,0.697-21.774,2.093v-7.557c-3.691,4.534-8.586,6.859-13.979,6.859
	c-14.183,0-22.471-12.439-22.471-28.369c0-21.858,13.183-30.462,22.471-30.462c5.091,0,9.985,2.789,13.979,6.394V233.109z
	 M321.214,254.154c-2.489-2.672-7.187-5.581-10.583-5.581c-3.593,0-10.89,4.302-10.89,21.626c0,8.14,2.896,23.256,11.987,23.256
	c4.395,0,6.891-2.906,9.485-6.512V254.154z"/>
<path fill="#1A171B" d="M361.066,270.783c0,10.812,6.491,22.672,16.976,22.672c5.693,0,10.89-3.837,14.681-8.487l2.396,2.441
	c-6.188,8.486-12.881,13.021-22.669,13.021c-13.78,0-25.769-10.812-25.769-27.79c0-7.556,2.3-15.112,6.497-21.045
	c4.69-6.625,11.081-9.996,18.471-9.996c13.887,0,23.371,12.788,23.069,29.184H361.066z M381.936,265.781
	c0-11.394-1.899-19.184-9.788-19.184c-8.586,0-11.181,11.628-11.284,19.184H381.936z"/>
<path fill="#1A171B" d="M420.087,211.833v76.04c0,6.859,3.396,7.557,6.391,7.557v3.605h-27.463v-3.605
	c3.593,0,6.693-0.465,6.693-9.531v-52.206c-0.099-6.164-1.302-10.349-7.096-11.162v-3.606L420.087,211.833z"/>
<path fill="#1A171B" d="M474.829,226.065c0,9.543-7.643,16.964-16.875,16.964c-9.097,0-16.48-7.775-16.48-16.964
	c0-9.279,7.291-16.965,16.523-16.965C467.365,209.1,474.829,216.521,474.829,226.065z M444.611,226.022
	c0.136,7.818,5.788,13.87,13.651,13.87c7.113,0,13.431-6.095,13.431-13.87c0-8.262-6.849-13.785-13.695-13.785
	C451.414,212.237,444.482,218.157,444.611,226.022z M454.644,231.852c0,2.74,0.088,2.431,1.942,2.65v0.928h-6.848v-0.928
	c1.325,0,1.368-0.484,1.368-1.458V217.76c-0.086-1.106-0.616-1.017-1.146-1.192v-0.974h8.658c4.549,0,7.113,1.637,7.113,4.86
	c0,2.918-2.872,5.125-5.831,5.257v0.089c2.429,0.441,3.662,3.047,4.635,4.86c2.078,3.843,1.99,3.843,2.829,3.843v0.928h-1.547
	c-2.472,0-2.958-0.176-4.905-4.373c-1.325-2.962-1.498-4.728-5.345-4.728h-0.925V231.852z M455.39,224.783
	c3.138,0,6.103-0.175,6.103-4.151c0-3.137-1.727-3.846-4.513-3.846c-1.983,0-2.336,0-2.336,1.77v6.228H455.39z"/>
</svg>
