<?xml version="1.0" encoding="utf-8"?>
<!-- Generator: Adobe Illustrator 21.0.2, SVG Export Plug-In . SVG Version: 6.00 Build 0)  -->
<svg version="1.1" id="Calque_1" xmlns="http://www.w3.org/2000/svg" xmlns:xlink="http://www.w3.org/1999/xlink" x="0px" y="0px"
	 viewBox="0 0 500 130" style="enable-background:new 0 0 500 130;" xml:space="preserve">
<style type="text/css">
	.st0{fill:#0059A2;}
	.st1{fill:#1A171B;}
</style>
<polygon class="st0" points="33.6,16.7 51.5,16.7 78.4,43.1 105.5,16.7 124.3,16.7 85.7,53.9 72.7,53.9 "/>
<polygon class="st0" points="66.7,22.4 90.6,22.4 78.4,33.8 "/>
<polygon class="st0" points="28,110.5 28,92.6 54.4,65.7 28,38.6 28,19.8 65.2,58.4 65.2,71.4 "/>
<polygon class="st0" points="33.7,77.4 33.7,53.5 45.1,65.7 "/>
<polygon class="st0" points="127.7,19.8 127.7,37.8 101.3,64.6 127.7,91.8 127.7,110.5 90.5,72 90.5,58.9 "/>
<polygon class="st0" points="122,53 122,76.9 110.6,64.6 "/>
<polygon class="st1" points="124.5,113.4 106.6,113.4 79.7,87 52.6,113.4 33.9,113.4 72.4,76.2 85.4,76.2 "/>
<polygon class="st1" points="91.4,107.7 67.5,107.7 79.7,96.3 "/>
<path class="st1" d="M222.5,95.5c2.2,8.4,3.2,14.4,12.2,14.6v3.8h-35.1v-3.8c6.4-0.2,7.9-1.7,7.9-5.2c0-2.2-0.6-4.6-1.2-6.7
	l-3.6-13.7h-25.5l-2.2,7.3c-0.9,3-2,6.5-2,9.8c0,5.9,4.6,8.3,9,8.6v3.8h-26.6v-3.8c9.3-3,11.3-8.8,14.4-18.4l19.5-60.5l14.6-5.5
	L222.5,95.5z M191.2,41.7L179.3,79h21.9L191.2,41.7z"/>
<path class="st1" d="M254.4,58v3.6c-2.2,0-4.6,0.7-4.6,3.8c0,1.6,0.5,3.1,1,4.5l9.8,27.3l7.4-19.6c0.9-2.3,2.2-6.2,2.2-8.7
	c0-4.6-2.9-6.9-6.5-7.3V58h21.4v3.6c-6.8,3.1-7.7,5.4-10.5,12.8l-15.1,40.5H252l-16.4-44c-2.2-5.5-3-7.4-8.3-9.3V58L254.4,58
	L254.4,58z"/>
<path class="st1" d="M321.2,48.1c0-6.6-1.5-10.8-7.7-11.3v-3.6l22.1-6.4v72.7c0,6.3,1.3,10.2,7.4,10.9v3.6
	c-9.3,0.5-15.7,0.7-21.8,2.1v-7.6c-3.7,4.5-8.6,6.9-14,6.9c-14.2,0-22.5-12.4-22.5-28.4c0-21.9,13.2-30.5,22.5-30.5
	c5.1,0,10,2.8,14,6.4V48.1L321.2,48.1z M321.2,69.1c-2.5-2.7-7.2-5.6-10.6-5.6c-3.6,0-10.9,4.3-10.9,21.6c0,8.1,2.9,23.3,12,23.3
	c4.4,0,6.9-2.9,9.5-6.5V69.1L321.2,69.1z"/>
<path class="st1" d="M361.1,85.8c0,10.8,6.5,22.7,17,22.7c5.7,0,10.9-3.8,14.7-8.5l2.4,2.4c-6.2,8.5-12.9,13-22.7,13
	c-13.8,0-25.8-10.8-25.8-27.8c0-7.6,2.3-15.1,6.5-21c4.7-6.6,11.1-10,18.5-10c13.9,0,23.4,12.8,23.1,29.2L361.1,85.8L361.1,85.8z
	 M381.9,80.8c0-11.4-1.9-19.2-9.8-19.2c-8.6,0-11.2,11.6-11.3,19.2H381.9z"/>
<path class="st1" d="M420.1,26.8v76c0,6.9,3.4,7.6,6.4,7.6v3.6H399v-3.6c3.6,0,6.7-0.5,6.7-9.5V48.7c-0.1-6.2-1.3-10.3-7.1-11.2
	v-3.6L420.1,26.8z"/>
<path class="st1" d="M457.9,24.1c-9.2,0-16.5,7.7-16.5,17c0,9.2,7.4,17,16.5,17c9.3,0,16.9-7.5,16.9-17
	C474.8,31.5,467.4,24.1,457.9,24.1z M458.3,54.9c-7.9,0-13.6-6.1-13.7-13.9c-0.1-7.9,6.8-13.8,13.4-13.8c6.9,0,13.7,5.5,13.7,13.8
	C471.7,48.8,465.4,54.9,458.3,54.9z"/>
<path class="st1" d="M464.6,45.6c-0.9-1.9-2.2-4.5-4.6-4.9v-0.1c2.9-0.2,5.8-2.4,5.8-5.3c0-3.3-2.6-4.9-7.1-4.9H450v1
	c0.5,0.2,1,0.1,1.1,1.2v15.3c0,1-0.1,1.5-1.4,1.5v0.9h6.8v-0.9c-1.8-0.2-1.9,0.1-1.9-2.6l0.2-5.6h0.9c3.8,0,4,1.7,5.3,4.7
	c1.9,4.2,2.4,4.4,4.9,4.4h1.5v-0.9C466.6,49.4,466.7,49.4,464.6,45.6z M455.4,39.8h-0.7v-6.2c0-1.8,0.3-1.8,2.3-1.8
	c2.8,0,4.5,0.7,4.5,3.8C461.5,39.6,458.5,39.8,455.4,39.8z"/>
</svg>
