<?xml version="1.0" encoding="utf-8"?>
<!-- Generator: Adobe Illustrator 19.1.0, SVG Export Plug-In . SVG Version: 6.00 Build 0)  -->
<svg version="1.1" id="Calque_1" xmlns="http://www.w3.org/2000/svg" xmlns:xlink="http://www.w3.org/1999/xlink" x="0px" y="0px"
	 viewBox="0 0 500 500" style="enable-background:new 0 0 500 500;" xml:space="preserve">
<style type="text/css">
	.st0{fill:#0072BA;}
	.st1{fill:#FFED00;}
</style>
<g>
	<rect x="25" y="80.4" class="st0" width="450" height="196.5"/>
	<rect x="25" y="363.6" class="st0" width="450" height="56"/>
	<rect x="25" y="327.1" class="st0" width="450" height="20.5"/>
	<rect x="25" y="293.4" class="st0" width="450" height="20.4"/>
	<polygon class="st1" points="64.8,188.9 46.1,188.9 73.2,101.3 92.9,101.7 119.5,188.9 100.6,188.9 95.1,174.2 70.3,174.2 	"/>
	<polygon class="st0" points="76.7,155 83.4,131.2 90.1,155 	"/>
	<polygon class="st1" points="127.9,101.7 105.8,101.7 131.4,145.1 131.4,188.3 149.3,188.3 149.3,146.3 175.7,101.7 153.3,101.7 
		140.9,124.7 	"/>
	<path class="st1" d="M185.6,101.7v87.2H204v-31.6l18.1,31.6h21.4L223.1,153c0,0,14.7-2.2,14.7-26.6c0-24.4-15.6-24.7-15.6-24.7
		L185.6,101.7L185.6,101.7z"/>
	<path class="st0" d="M205,119v21.6c0,0,13.4,0.5,13.4-10.9C218.4,118.2,205,119,205,119z"/>
	<polygon class="st1" points="245.8,101.3 245.8,120 259.2,120 259.2,188.3 277.1,188.3 277.1,120.7 292.2,120.7 292.2,101.7 	"/>
	<path class="st1" d="M375.3,143.8c0,25.8-17.4,46.7-38.8,46.7c-21.4,0-38.8-20.9-38.8-46.7c0-25.8,17.4-46.7,38.8-46.7
		C357.9,97.1,375.3,118,375.3,143.8z"/>
	<path class="st0" d="M356.1,143.8c0,13.3-9.1,24.1-20.3,24.1c-11.2,0-20.3-10.8-20.3-24.1c0-13.3,9.1-24.1,20.3-24.1
		C347.1,119.7,356.1,130.5,356.1,143.8z"/>
	<polygon class="st1" points="402.4,188.3 384,188.3 384,101.7 402.6,101.7 436.7,153 436.7,101.7 454.8,101.7 454.8,188.9 
		437.7,188.9 403.1,135.9 	"/>
</g>
</svg>
