<?xml version="1.0" encoding="utf-8"?>
<!-- Generator: Adobe Illustrator 19.1.0, SVG Export Plug-In . SVG Version: 6.00 Build 0)  -->
<svg version="1.1" id="Calque_1" xmlns="http://www.w3.org/2000/svg" xmlns:xlink="http://www.w3.org/1999/xlink" x="0px" y="0px"
	 viewBox="0 0 500 500" style="enable-background:new 0 0 500 500;" xml:space="preserve">
<style type="text/css">
	.st0{fill:#626B71;}
</style>
<g>
	<path class="st0" d="M291.8,202.8C144.4,202.8,25,226.7,25,256.1c0,16.5,37.6,31.3,96.7,41.1l5.2-0.4
		c-53.9-9.5-87.7-23.2-87.7-38.5c0-8.6,10.6-16.6,29.5-23.8v19.1c0,8.3,5.7,15,17.2,20.2c6.6,3,15,5.4,25.2,7.2
		c10.2,1.8,20.6,2.6,31.3,2.6c21.3,0,39.3-2.7,53.9-8.1c14.6-5.4,21.9-12.1,21.9-20c0-9.5-27.2-23.8-75.5-23.8
		c-9.1,0-15.9,0.8-20,1.5l0-12.8c47.8-8.8,112.3-14.2,183.3-14.2c64.2,0,123,4.4,169.1,11.8l0-1.7
		C427.2,207.3,362.7,202.8,291.8,202.8z M143.1,251.5c9.9,0,17.9,2.6,17.9,5.8c0,3.2-8,5.8-17.9,5.8c-9.9,0-17.9-2.6-17.9-5.8
		C125.2,254.1,133.2,251.5,143.1,251.5z"/>
	<path class="st0" d="M122.6,208.7h-54v12.7c6.1-1.7,27.3-7.2,54-10.9L122.6,208.7z"/>
</g>
<g>
	<rect x="247.7" y="260" class="st0" width="12.2" height="2"/>
	<polygon class="st0" points="299.7,250.6 296.3,250.6 296.3,266.8 312.5,266.8 312.5,265 299.7,265 	"/>
	<rect x="346.8" y="250.6" class="st0" width="3.5" height="16.3"/>
	<polygon class="st0" points="411.4,263.4 392.8,250.6 388.1,250.6 388.1,266.8 392.5,266.8 392.5,254.1 411,266.8 415.8,266.8 
		415.8,250.6 411.4,250.6 	"/>
	<polygon class="st0" points="453.8,265 453.8,259.4 467.7,259.4 467.7,257.5 453.8,257.5 453.8,252.5 468.6,252.5 468.6,250.6 
		450.4,250.6 450.4,266.8 469.2,266.8 469.2,265 	"/>
</g>
</svg>
