<?xml version="1.0" encoding="utf-8"?>
<!-- Generator: Adobe Illustrator 16.0.0, SVG Export Plug-In . SVG Version: 6.00 Build 0)  -->
<!DOCTYPE svg PUBLIC "-//W3C//DTD SVG 1.1//EN" "http://www.w3.org/Graphics/SVG/1.1/DTD/svg11.dtd">
<svg version="1.1" id="Calque_4" xmlns="http://www.w3.org/2000/svg" xmlns:xlink="http://www.w3.org/1999/xlink" x="0px" y="0px"
	 width="500px" height="500px" viewBox="0 0 500 500" enable-background="new 0 0 500 500" xml:space="preserve">
<g>
	<g>
		<path fill="#E6571C" d="M437.036,350.451H59.675c-19.894,0-35.474-18.787-35.474-42.772V190.876
			c0-22.811,15.659-41.371,34.912-41.371h377.923c20.489,0,37.165,18.055,37.165,40.253v116.796
			C474.201,330.756,457.525,350.451,437.036,350.451z M59.113,155.317c-15.773,0-29.1,16.284-29.1,35.559v116.802
			c0,20.728,13.032,36.961,29.662,36.961h377.361c17.288,0,31.353-17.085,31.353-38.085V189.758
			c0-18.991-14.064-34.441-31.353-34.441H59.113z"/>
	</g>
	<path fill="#E6571C" d="M423.981,248.162h-354.3c-15.223,0-27.613,12.066-27.613,26.893V305c0,15.324,13.038,27.788,29.061,27.788
		h353.932c17.117,0,31.035-13.429,31.035-29.945v-24.894C456.096,261.523,441.69,248.162,423.981,248.162z"/>
	<g>
		<path fill="#FFFFFF" d="M445.437,267.176c0,1.737-0.432,3.35-1.294,4.848c-0.863,1.486-2.044,2.668-3.542,3.53
			c-1.499,0.862-3.11,1.294-4.836,1.294s-3.337-0.432-4.836-1.294c-1.487-0.862-2.667-2.044-3.53-3.53
			c-0.874-1.498-1.306-3.11-1.306-4.848c0-1.725,0.432-3.337,1.306-4.836c0.863-1.498,2.043-2.679,3.53-3.541
			c1.499-0.863,3.11-1.294,4.836-1.294s3.337,0.431,4.836,1.294c1.498,0.862,2.679,2.043,3.542,3.541
			C445.005,263.839,445.437,265.451,445.437,267.176z M443.529,267.176c0-2.156-0.761-3.995-2.281-5.522
			c-1.521-1.526-3.36-2.287-5.506-2.287s-3.984,0.761-5.506,2.287c-1.521,1.527-2.281,3.366-2.281,5.522
			c0,2.157,0.76,3.996,2.281,5.518c1.521,1.532,3.36,2.293,5.506,2.293s3.984-0.761,5.506-2.293
			C442.769,271.172,443.529,269.333,443.529,267.176z M431.36,262h4.632c1.305,0,2.259,0.261,2.849,0.795
			c0.579,0.521,0.874,1.226,0.874,2.111c0,0.691-0.227,1.294-0.67,1.805c-0.442,0.499-1.146,0.862-2.111,1.09
			c0.397,0.158,0.692,0.317,0.874,0.488c0.262,0.238,0.534,0.59,0.829,1.055c0.012,0.035,0.567,1.045,1.668,3.009h-3.042
			c-0.987-1.976-1.646-3.155-1.986-3.542c-0.341-0.386-0.67-0.578-1.011-0.578c-0.079,0-0.181,0.011-0.317,0.033v4.087h-2.588V262z
			 M433.948,266.359h1.112c0.738,0,1.26-0.114,1.566-0.353s0.454-0.545,0.454-0.919c0-0.375-0.147-0.682-0.431-0.92
			c-0.295-0.238-0.783-0.352-1.487-0.352h-1.215V266.359z"/>
	</g>
	<g>
		<path fill="#E6571C" d="M60.135,165.738h35.78c15.693,0,24.372,8.054,24.372,20.399c0,8.162-4.285,13.809-11.613,15.483
			c10.148,2.094,15.069,7.952,15.069,17.788c0,13.809-9.416,21.131-27.936,21.131H60.135V165.738z M85.347,193.987h3.559
			c4.393,0,6.691-1.884,6.691-5.233s-2.298-5.233-6.691-5.233h-3.559V193.987z M85.347,222.02h4.501c5.545,0,8.366-2.196,8.366-5.96
			c0-3.769-2.821-5.965-8.366-5.965h-4.501V222.02z"/>
		<path fill="#E6571C" d="M150.102,165.738h29.923l26.154,74.801h-28.873l-2.406-9.416h-20.297l-2.299,9.416h-28.878
			L150.102,165.738z M170.296,213.341l-2.304-8.474c-1.044-3.979-2.611-9.206-3.031-16.426h-0.522
			c-0.42,7.22-1.992,12.447-3.036,16.426l-2.299,8.474H170.296z"/>
		<path fill="#E6571C" d="M210.361,165.738h26.887v24.899h16.426v-24.899h26.892v74.801h-26.892v-26.364h-16.426v26.364h-26.887
			V165.738z"/>
		<path fill="#E6571C" d="M334.122,188.441c-8.684,0-14.644,5.755-14.644,14.854c0,8.582,5.336,14.439,14.122,14.439
			c5.539,0,10.67-2.515,16.63-6.907l-0.829,28.141c-5.971,2.406-11.726,3.559-17.583,3.559c-9.093,0-17.471-2.719-24.27-7.742
			c-10.047-7.424-15.484-18.412-15.484-31.489c0-22.703,16.846-39.333,40.071-39.333c6.073,0,11.817,1.254,17.572,3.763v27.727
			C344.793,190.74,339.775,188.441,334.122,188.441z"/>
		<path fill="#E6571C" d="M427.443,231.231c-7.321,7.214-17.47,11.295-28.561,11.295c-11.192,0-21.137-4.081-28.662-11.403
			c-7.333-7.22-11.307-16.738-11.307-27.829c0-11.09,3.974-20.711,11.307-27.931c7.525-7.321,17.47-11.3,28.662-11.3
			c11.193,0,21.126,3.979,28.663,11.3c7.322,7.22,11.295,16.948,11.295,27.931C438.841,214.386,434.868,223.904,427.443,231.231z
			 M411.438,203.295c0-8.684-5.233-14.229-12.556-14.229c-7.321,0-12.656,5.545-12.656,14.229c0,8.684,5.335,14.122,12.656,14.122
			C406.205,217.417,411.438,211.979,411.438,203.295z"/>
	</g>
	<g>
		<path fill="#FFFFFF" d="M287.706,326.874c-10.534,0-23.577-0.737-37.875-1.566c-11.136-0.636-22.646-1.294-34.021-1.646
			c-30.843-1.011-57.064,2.849-57.326,2.883c-0.97,0.091-1.839-0.522-1.981-1.465c-0.142-0.953,0.517-1.838,1.47-1.986
			c0.261-0.033,26.722-3.848,57.95-2.929c11.414,0.363,22.953,1.022,34.106,1.669c21.205,1.203,41.218,2.35,52.286,0.771
			c23.997-3.439,37.971-19.502,37.165-32.42c-0.625-10.023-9.729-16.164-24.36-16.414c-0.965-0.022-1.726-0.817-1.714-1.782
			c0.022-0.954,0.794-1.714,1.748-1.714c0.011,0,0.022,0,0.033,0c19.594,0.352,27.199,10.397,27.777,19.695
			c0.92,14.779-13.849,32.317-40.15,36.086C298.717,326.647,293.608,326.874,287.706,326.874z"/>
	</g>
	<g>
		<polygon fill="#FFFFFF" points="297.241,268.629 322.782,270.934 318.06,272.023 325.688,284.011 		"/>
	</g>
	<g>
		<path fill="#E6571C" d="M198.732,307.985c0,0,15.075,16.527,24.52,4.54C214.715,311.436,198.732,307.985,198.732,307.985z"/>
		<path fill="#FFFFFF" d="M214.908,318.633c0,0,0,0-0.006,0c-8.718,0-17.107-9.081-17.459-9.467
			c-0.511-0.568-0.602-1.396-0.221-2.055c0.375-0.647,1.113-0.977,1.878-0.829c0.159,0.034,16.006,3.451,24.372,4.519
			c0.625,0.079,1.152,0.487,1.391,1.066s0.147,1.249-0.244,1.737C221.991,316.941,218.728,318.633,214.908,318.633z
			 M204.839,311.039c2.81,2.065,6.493,4.109,10.069,4.109l0,0c1.686,0,3.201-0.466,4.58-1.408
			C214.777,313.002,209.119,311.901,204.839,311.039z"/>
	</g>
	<g>
		<path fill="#FFFFFF" d="M329.264,298.552c-0.113-0.216-0.329-0.341-0.533-0.454c0.012-0.113,0.079-0.204,0.079-0.329
			c0.091-2.531-1.181-4.96-3.723-7.14c-0.603-0.579-13.077-12.09-41.286-15.824c-0.068-0.33-0.137-0.67-0.363-0.908
			c-4.234-8.117-9.762-9.343-12.714-9.343c-2.554,0-5.074,0.92-6.566,2.418c-0.421,0.42-0.761,0.886-1.027,1.396
			c-2.975-2.475-6.981-2.85-9.325-0.488c-0.375,0.375-0.688,0.783-0.932,1.226c-1.708-1.476-3.439-1.781-4.563-1.781
			c-2.384,0-4.893,1.328-6.539,3.428c-1.215-1.021-2.713-1.566-4.398-1.566c-3.593,0-7.072,2.486-8.52,4.824
			c-0.937,1.51-1.169,2.759-1.181,3.758c-13.247,2.735-27.164,6.799-41.683,12.191c-3.695-2.055-20.246-10.966-30.184-10.966
			c-0.681,0-1.3,0.397-1.583,1.021c-0.284,0.613-0.182,1.34,0.255,1.862c9.292,10.874,10.33,12.339,11.965,15.369l-7.844,16.154
			c-0.238,0.477-0.233,1.044,0,1.532c0.238,0.477,0.681,0.828,1.209,0.931c0.499,0.136,9.479,1.521,25.404-7.526
			c0.125-0.034,0.262-0.034,0.386-0.103c0.08-0.045,0.085-0.136,0.153-0.192c0.471-0.272,0.879-0.466,1.362-0.749
			c14.286,3.155,49.374,10.08,81.783,10.08c0.011,0,0.011,0,0.011,0c26.302,0,45.327-4.541,56.485-13.43
			c0.103-0.079,1.828-1.385,2.793-3.563c0.193-0.091,0.386-0.159,0.579-0.262C329.332,299.823,329.559,299.119,329.264,298.552z
			 M243.911,312.685l-6.096-7.14l6.987-8.219l8.888,9.66l-5.272,6.027C246.914,312.9,245.404,312.82,243.911,312.685z
			 M222.968,310.222l-2.134-2.827l7.73-9.115l6.204,7.276l-4.773,5.608C227.61,310.868,225.261,310.551,222.968,310.222z
			 M206.332,307.543l-2.81-3.213l6.527-7.355l7.81,10.341l-1.601,1.896C212.751,308.654,209.454,308.099,206.332,307.543z
			 M188.754,304.08l6.011-6.243l5.664,6.481l-1.617,1.828C194.867,305.374,191.479,304.67,188.754,304.08z M185.819,293.5
			c0.017-0.011,0.017-0.033,0.028-0.033c0.205-0.012,0.409,0.113,0.602,0.045c1.192-0.442,2.316-0.749,3.502-1.169l3.281,3.746
			l-7.776,8.06C181.784,296.259,185.632,293.614,185.819,293.5z M216.503,284.158l0.885,1.033l-7.197,8.116l-4.671-6.187
			C209.255,285.986,212.865,285.101,216.503,284.158z M229.739,280.957l5.449,5.926l-6.635,7.821l-8.088-9.479l2.355-2.656
			C225.125,282.035,227.474,281.411,229.739,280.957z M201.979,302.57l-5.602-6.402l7.328-7.594l4.915,6.504L201.979,302.57z
			 M218.909,286.984l8.128,9.513l-7.634,9.002l-7.782-10.296L218.909,286.984z M236.697,285.101l-4.211-4.575
			c3.173-0.602,6.278-1.066,9.359-1.498L236.697,285.101z M236.771,288.597l6.447,7.015l-6.93,8.151l-6.21-7.276L236.771,288.597z
			 M238.281,286.814l7.083-8.354c0.5-0.058,1.033-0.182,1.527-0.239l5.665,6.402l-7.821,9.207L238.281,286.814z M249.774,277.972
			c3.03-0.296,5.931-0.375,8.865-0.5l-4.563,5.358L249.774,277.972z M254.105,286.383l8.854,10.013l-7.73,8.831l-8.911-9.683
			L254.105,286.383z M255.632,284.59l6.209-7.299c0.971-0.035,2.01-0.171,2.98-0.171l7.571,8.491l-7.89,9.013L255.632,284.59z
			 M267.954,277.154c3.984,0.057,7.833,0.216,11.352,0.557l-5.381,6.152L267.954,277.154z M194.844,294.42l-2.514-2.883
			c2.628-0.92,5.222-1.771,7.81-2.611L194.844,294.42z M201.973,306.078l0.704,0.806c-0.386-0.067-0.84-0.147-1.221-0.216
			L201.973,306.078z M219.29,309.211l0.414,0.545c-0.267-0.045-0.505-0.079-0.767-0.125L219.29,309.211z M236.294,307.338
			l4.268,4.995c-2.628-0.261-5.267-0.511-7.821-0.817L236.294,307.338z M255.269,308.7l4.563,4.961
			c-2.85-0.114-5.67-0.261-8.508-0.454L255.269,308.7z M256.807,306.94l7.696-8.797l5.642,6.38
			c-3.359,3.666-6.209,6.708-7.815,8.422L256.807,306.94z M266.059,296.373l7.889-9.014l5.801,6.516
			c-2.69,3.054-5.426,6.084-8.025,8.911L266.059,296.373z M275.48,285.6l6.572-7.503c3.314,0.408,6.561,0.851,9.444,1.452
			c-2.043,2.997-5.823,7.561-10.205,12.578L275.48,285.6z M266.626,269.446c0.692-0.704,2.236-1.407,4.098-1.407
			c1.873,0,5.199,0.737,8.265,5.188c-2.464-0.08-6.164-0.182-10.501-0.182c-0.669,0-1.339,0-1.998,0.012
			c-0.124-0.341-0.272-0.682-0.442-1.011C265.706,270.354,266.388,269.674,266.626,269.446z M256.268,270.354
			c0.426-0.431,0.931-0.636,1.544-0.636c1.635,0,3.655,1.431,4.836,3.383c-2.355,0.057-4.626,0.125-6.812,0.238
			C255.444,272.035,255.592,271.024,256.268,270.354z M244.303,273.192c0.817-1.181,2.367-2.384,4.007-2.384
			c1.708,0,2.952,1.385,3.747,2.747c-2.782,0.193-5.41,0.432-7.879,0.727c-0.045-0.113-0.091-0.228-0.142-0.341
			C244.059,273.658,244.149,273.42,244.303,273.192z M231.816,275.849c0.947-1.532,3.337-3.179,5.557-3.179
			c1.407,0,2.457,0.693,3.207,2.101c-3.497,0.533-6.578,1.181-9.212,1.94C231.476,276.45,231.617,276.166,231.816,275.849z
			 M169.967,297.973c0.244-0.499,0.199-1.157-0.063-1.646c-1.839-3.462-2.372-4.461-9.921-13.372
			c7.753,1.555,17.788,6.572,22.425,9.035c-1.726,2.01-3.564,6.301,0.023,13.838c-9.706,5.302-16.465,6.562-19.536,6.709
			L169.967,297.973z M268.896,313.888c-1.374,0-2.781-0.079-4.166-0.102c1.657-1.76,4.063-4.337,6.97-7.504l4.438,5.018
			c0.238,0.261,0.557,0.386,0.874,0.386c0.272,0,0.545-0.091,0.771-0.283c0.478-0.432,0.522-1.158,0.103-1.646l-4.609-5.21
			c2.589-2.815,5.324-5.857,8.037-8.923l14.451,16.222c-7.811,1.339-16.744,2.043-26.858,2.043
			C268.907,313.888,268.907,313.888,268.896,313.888z M298.41,311.334l-15.563-17.459c4.801-5.482,9.024-10.58,11.045-13.701
			c19.66,4.631,28.662,12.861,28.844,13.021c1.76,1.521,2.634,3.008,2.589,4.427c-0.022,0.67-0.272,1.249-0.567,1.76
			c-8.196,3.359-17.38,3.984-17.482,3.996c-0.646,0.033-1.135,0.59-1.09,1.226c0.035,0.624,0.545,1.09,1.158,1.09
			c0.023,0,0.046,0,0.068,0c0.341-0.012,6.017-0.421,12.51-2.226C314.359,306.986,307.162,309.598,298.41,311.334z"/>
		<path fill="#FFFFFF" d="M309.773,289.459c0-2.849-2.305-5.153-5.154-5.153c-2.849,0-5.153,2.305-5.153,5.153
			c0,2.85,2.305,5.154,5.153,5.154C307.469,294.613,309.773,292.309,309.773,289.459z M304.619,292.297
			c-1.566,0-2.838-1.271-2.838-2.838s1.271-2.838,2.838-2.838s2.838,1.271,2.838,2.838S306.186,292.297,304.619,292.297z"/>
	</g>
	<g>
		<path fill="#E6571C" d="M291.725,311.254c0,0-10.364,14.179-16.528,5.086c-3.451-5.086,10.897-9.444,10.897-9.444
			S293.359,304.171,291.725,311.254z"/>
		<path fill="#FFFFFF" d="M280.225,321.131c-1.781,0-4.336-0.659-6.47-3.814c-0.863-1.271-1.067-2.68-0.579-4.075
			c1.601-4.529,10.625-7.47,12.407-8.015c0.068-0.022,1.612-0.59,3.304-0.59c2.111,0,3.258,0.885,3.848,1.623
			c0.988,1.248,1.227,3.064,0.692,5.392c-0.057,0.228-0.159,0.443-0.295,0.636C292.474,313.184,286.491,321.131,280.225,321.131z
			 M288.887,308.121c-1.067,0-2.18,0.409-2.191,0.409c-3.848,1.181-9.479,3.746-10.228,5.88c-0.103,0.272-0.103,0.545,0.17,0.953
			c1.045,1.533,2.214,2.282,3.587,2.282c3.645,0,8.162-4.893,9.876-7.129c0.216-1.158,0.103-1.827-0.091-2.077
			C289.783,308.155,289.147,308.121,288.887,308.121z"/>
	</g>
</g>
</svg>
