<?xml version="1.0" encoding="utf-8"?>
<!-- Generator: Adobe Illustrator 21.0.2, SVG Export Plug-In . SVG Version: 6.00 Build 0)  -->
<svg version="1.1" id="Calque_2" xmlns="http://www.w3.org/2000/svg" xmlns:xlink="http://www.w3.org/1999/xlink" x="0px" y="0px"
	 viewBox="0 0 480 227" style="enable-background:new 0 0 480 227;" xml:space="preserve">
<style type="text/css">
	.st0{fill:#FFFFFF;}
	.st1{fill:#E6571C;}
</style>
<path class="st0" d="M427,18.9L49.1,18.8C33.3,18.8,20,35.1,20,54.4v116.8c0,20.7,13,37,29.7,37H427c17.3,0,31.4-17.1,31.4-38.1
	V53.3C458.4,34.3,444.3,18.9,427,18.9z"/>
<path class="st1" d="M427,13H49.1c-19.2,0-34.9,18.6-34.9,41.4v116.8c0,24,15.6,42.8,35.5,42.8H427c20.5,0,37.2-19.7,37.2-43.9V53.3
	C464.2,31.1,447.5,13,427,13z M458.4,170.1c0,21-14.1,38.1-31.4,38.1H49.7c-16.7,0-29.7-16.3-29.7-37V54.4
	c0-19.3,13.3-35.6,29.1-35.6L427,18.9c17.3,0,31.4,15.4,31.4,34.4V170.1z"/>
<path class="st1" d="M414,111.7H59.7c-15.2,0-27.6,12.1-27.6,26.9v29.9c0,15.3,13,27.8,29.1,27.8h353.9c17.1,0,31-13.4,31-29.9
	v-24.9C446.1,125,431.7,111.7,414,111.7z"/>
<path class="st1" d="M50.1,29.2h35.8c15.7,0,24.4,8.1,24.4,20.4c0,8.2-4.3,13.8-11.6,15.5c10.1,2.1,15.1,8,15.1,17.8
	c0,13.8-9.4,21.1-27.9,21.1H50.1V29.2z M75.3,57.5h3.6c4.4,0,6.7-1.9,6.7-5.2s-2.3-5.2-6.7-5.2h-3.6V57.5z M75.3,85.5h4.5
	c5.5,0,8.4-2.2,8.4-6s-2.8-6-8.4-6h-4.5V85.5z"/>
<path class="st1" d="M140.1,29.2H170l26.2,74.8h-28.9l-2.4-9.4h-20.3l-2.3,9.4h-28.9L140.1,29.2z M160.3,76.8l-2.3-8.5
	c-1-4-2.6-9.2-3-16.4h-0.5c-0.4,7.2-2,12.4-3,16.4l-2.3,8.5H160.3z"/>
<path class="st1" d="M200.4,29.2h26.9v24.9h16.4V29.2h26.9V104h-26.9V77.6h-16.4V104h-26.9V29.2z"/>
<path class="st1" d="M324.1,51.9c-8.7,0-14.6,5.8-14.6,14.9c0,8.6,5.3,14.4,14.1,14.4c5.5,0,10.7-2.5,16.6-6.9l-0.8,28.1
	c-6,2.4-11.7,3.6-17.6,3.6c-9.1,0-17.5-2.7-24.3-7.7c-10-7.4-15.5-18.4-15.5-31.5c0-22.7,16.8-39.3,40.1-39.3
	c6.1,0,11.8,1.3,17.6,3.8V59C334.8,54.2,329.8,51.9,324.1,51.9z"/>
<path class="st1" d="M417.4,94.7c-7.3,7.2-17.5,11.3-28.6,11.3c-11.2,0-21.1-4.1-28.7-11.4c-7.3-7.2-11.3-16.7-11.3-27.8
	s4-20.7,11.3-27.9c7.5-7.3,17.5-11.3,28.7-11.3s21.1,4,28.7,11.3c7.3,7.2,11.3,16.9,11.3,27.9C428.8,77.9,424.9,87.4,417.4,94.7z
	 M401.4,66.8c0-8.7-5.2-14.2-12.6-14.2c-7.3,0-12.7,5.5-12.7,14.2s5.3,14.1,12.7,14.1C396.2,80.9,401.4,75.5,401.4,66.8z"/>
<path class="st0" d="M332.9,153.6c-0.5-8.1-6.3-16.7-20.7-19.1l0.6-0.1l-25.6-2.3l28.5,15.4l-6.2-9.8c12.1,1.3,19.5,7.2,20,16.1
	c0.8,12.9-13.2,29-37.2,32.4c-11.1,1.6-31.1,0.4-52.3-0.8c-11.1-0.7-22.7-1.3-34.1-1.7c-31.2-0.9-57.6,2.9-57.9,2.9
	c-1,0.2-1.6,1-1.5,2c0.2,1,1,1.6,2,1.5c0.2-0.1,26.5-3.9,57.3-2.9c11.4,0.3,22.9,1,34,1.6c14.3,0.9,27.4,1.6,37.9,1.6
	c5.9,0,11-0.3,15.1-0.7C319.1,185.9,333.8,168.4,332.9,153.6z"/>
<path class="st0" d="M299.8,153c0-2.8-2.3-5.2-5.2-5.2s-5.2,2.3-5.2,5.2c0,2.9,2.3,5.2,5.2,5.2C297.5,158.1,299.8,155.8,299.8,153z
	 M294.6,155.8c-1.6,0-2.8-1.3-2.8-2.8s1.3-2.8,2.8-2.8s2.8,1.3,2.8,2.8S296.2,155.8,294.6,155.8z"/>
<path class="st0" d="M319.3,162.1c-0.1-0.2-0.3-0.3-0.5-0.5c0-0.1,0.1-0.2,0.1-0.3c0.1-2.5-1.2-5-3.7-7.1
	c-0.6-0.6-13.1-12.1-41.3-15.8c-0.1-0.3-0.1-0.7-0.4-0.9c-4.2-8.1-9.8-9.3-12.7-9.3c-2.6,0-5.1,0.9-6.6,2.4c-0.4,0.4-0.8,0.9-1,1.4
	c-3-2.5-7-2.9-9.3-0.5c-0.4,0.4-0.7,0.8-0.9,1.2c-1.7-1.5-3.4-1.8-4.6-1.8c-2.4,0-4.9,1.3-6.5,3.4c-1.2-1-2.7-1.6-4.4-1.6
	c-3.6,0-7.1,2.5-8.5,4.8c-0.9,1.5-1.2,2.8-1.2,3.8c-13.2,2.7-27.2,6.8-41.7,12.2c-3.7-2.1-20.2-11-30.2-11c-0.7,0-1.3,0.4-1.6,1
	c-0.3,0.6-0.2,1.3,0.3,1.9c9.3,10.9,10.3,12.3,12,15.4l-7.8,16.2c-0.2,0.5-0.2,1,0,1.5s0.7,0.8,1.2,0.9c0.5,0.1,9.5,1.5,25.4-7.5
	c0.1,0,0.3,0,0.4-0.1c0.1,0,0.1-0.1,0.2-0.2c0.5-0.3,0.9-0.5,1.4-0.7c2.8,0.6,6.3,1.4,10.5,2.2c2,2,9.4,9,17,9
	c3.6,0,6.7-1.5,9.3-4.6c14,1.9,29.8,3.5,45,3.5c1.6,0,3.1,0,4.6-0.1c2.2,3,4.6,3.7,6.4,3.7c3.4,0,6.8-2.4,9.2-4.7
	c16-1.8,28.2-5.9,36.3-12.3c0.1-0.1,1.8-1.4,2.8-3.6c0.2-0.1,0.4-0.2,0.6-0.3C319.3,163.3,319.6,162.6,319.3,162.1z M204.9,178.6
	c-3.6,0-7.3-2-10.1-4.1c4.3,0.9,10,2,14.7,2.7C208.1,178.1,206.6,178.6,204.9,178.6z M281.5,143.1c-2,3-5.8,7.6-10.2,12.6l-5.8-6.6
	l6.6-7.5C275.4,142,278.7,142.5,281.5,143.1z M271.3,159.2l8,8.9c-0.2,0-0.3,0-0.5,0c-1.7,0-3.2,0.6-3.3,0.6
	c-1.1,0.3-5.2,1.6-8.4,3.7l-3.8-4.3C265.9,165.3,268.6,162.2,271.3,159.2z M261.8,166.3l-5.7-6.4l7.9-9l5.8,6.5
	C267.1,160.5,264.4,163.5,261.8,166.3z M269.4,141.3l-5.4,6.2l-6-6.8C262,140.8,265.8,140.9,269.4,141.3z M256.6,132.9
	c0.7-0.7,2.2-1.4,4.1-1.4c1.9,0,5.2,0.7,8.3,5.2c-2.5-0.1-6.2-0.2-10.5-0.2c-0.7,0-1.3,0-2,0c-0.1-0.3-0.3-0.7-0.4-1
	C255.7,133.9,256.4,133.2,256.6,132.9z M254.8,140.6l7.6,8.5l-7.9,9l-8.9-10l6.2-7.3C252.8,140.8,253.8,140.6,254.8,140.6z
	 M253,159.9l-7.7,8.8l-8.9-9.7l7.7-9.1L253,159.9z M246.3,133.9c0.4-0.4,0.9-0.6,1.5-0.6c1.6,0,3.7,1.4,4.8,3.4
	c-2.4,0.1-4.6,0.1-6.8,0.2C245.4,135.5,245.6,134.5,246.3,133.9z M248.7,141l-4.6,5.4l-4.3-4.9C242.8,141.2,245.7,141.1,248.7,141z
	 M234.3,136.7c0.8-1.2,2.4-2.4,4-2.4c1.7,0,3,1.4,3.7,2.7c-2.8,0.2-5.4,0.4-7.9,0.7c0-0.1-0.1-0.2-0.1-0.3
	C234.1,137.2,234.1,136.9,234.3,136.7z M235.4,141.9c0.5-0.1,1-0.2,1.5-0.2l5.7,6.4l-7.8,9.2l-6.5-7L235.4,141.9z M233.2,159.1
	l-6.9,8.2l-6.2-7.3l6.7-7.9L233.2,159.1z M231.9,142.5l-5.2,6.1l-4.2-4.6C225.7,143.4,228.8,142.9,231.9,142.5z M221.8,139.3
	c0.9-1.5,3.3-3.2,5.6-3.2c1.4,0,2.5,0.7,3.2,2.1c-3.5,0.5-6.6,1.2-9.2,1.9C221.5,140,221.6,139.7,221.8,139.3z M212.8,146
	c2.3-0.5,4.7-1.1,6.9-1.5l5.4,5.9l-6.6,7.8l-8.1-9.5L212.8,146z M217,160l-7.6,9l-7.8-10.3l7.3-8.2L217,160z M191.5,170.2l0.5-0.6
	l0.7,0.8C192.3,170.3,192,170.3,191.5,170.2C191.6,170.2,191.5,170.2,191.5,170.2L191.5,170.2z M193.5,167.8l6.5-7.4l7.8,10.3
	l-1.6,1.9c-3.4-0.4-6.7-1-9.9-1.6L193.5,167.8z M208.9,173.1l0.4-0.4l0.4,0.5C209.4,173.2,209.2,173.1,208.9,173.1z M206.5,147.7
	l0.9,1l-7.2,8.1l-4.7-6.2C199.3,149.5,202.9,148.6,206.5,147.7z M198.6,158.6l-6.6,7.5l-5.6-6.4l7.3-7.6L198.6,158.6z M190.1,152.4
	l-5.3,5.5l-2.5-2.9C184.9,154.1,187.5,153.2,190.1,152.4z M172.4,169.3c-9.7,5.3-16.5,6.6-19.5,6.7l7.1-14.5
	c0.2-0.5,0.2-1.2-0.1-1.6c-1.8-3.5-2.4-4.5-9.9-13.4c7.8,1.6,17.8,6.6,22.4,9C170.7,157.5,168.8,161.8,172.4,169.3z M175.4,167.6
	c-3.6-7.8,0.2-10.5,0.4-10.6c0.2,0,0.4,0.1,0.6,0c1.2-0.4,2.3-0.7,3.5-1.2l3.3,3.7L175.4,167.6z M184.8,161.4l5.7,6.5l-1.6,1.8l0,0
	c0,0-0.1,0-0.1,0c-3.9-0.8-7.3-1.5-10-2.1L184.8,161.4z M213,173.7l-2.1-2.8l7.7-9.1l6.2,7.3l-4.8,5.6
	C217.6,174.4,215.3,174.1,213,173.7z M222.8,175l3.5-4.2l4.3,5C228,175.5,225.3,175.3,222.8,175z M233.9,176.2l-6.1-7.1l7-8.2
	l8.9,9.7l-5.3,6C236.9,176.4,235.4,176.3,233.9,176.2z M241.4,176.7l3.9-4.5l4.6,5C247,177.1,244.2,176.9,241.4,176.7z M246.8,170.4
	l7.7-8.8l5.6,6.4c-3.4,3.7-6.2,6.7-7.8,8.4L246.8,170.4z M263.1,176.7c-0.1,0.2-0.1,0.4-0.2,0.7c-1.3,0-2.7,0-4,0
	c-1.4,0-2.8-0.1-4.2-0.1c1.7-1.8,4.1-4.3,7-7.5l3.5,4C264.3,174.7,263.5,175.7,263.1,176.7z M280.2,174.1c-0.5,0.6-1.2,1.5-2,2.3
	c-1.5,1.5-3.4,3.2-5.4,4.1c-0.9,0.4-1.7,0.6-2.5,0.6c-0.6,0-1.1-0.1-1.6-0.4c-0.7-0.4-1.4-1-2-1.9c-0.3-0.5-0.3-0.7-0.2-1
	c0.1-0.2,0.2-0.4,0.4-0.7c1.5-2,6.4-4.2,9.8-5.2c0,0,1.1-0.4,2.2-0.4c0.2,0,0.9,0.1,1.2,0.4C280.3,172.3,280.4,172.9,280.2,174.1z
	 M282.9,175.8c0,0,0.1-0.1,0.1-0.1c0.1-0.2,0.2-0.4,0.3-0.6c0.2-0.8,0.3-1.5,0.3-2.2l2.2,2.5C284.9,175.6,283.9,175.7,282.9,175.8z
	 M314.6,162.8c-8.2,3.4-17.4,4-17.5,4c-0.6,0-1.1,0.6-1.1,1.2c0,0.6,0.5,1.1,1.2,1.1c0,0,0,0,0.1,0c0.3,0,6-0.4,12.5-2.2
	c-5.4,3.6-12.6,6.2-21.4,7.9l-15.6-17.5c4.8-5.5,9-10.6,11-13.7c19.7,4.6,28.7,12.9,28.8,13c1.8,1.5,2.6,3,2.6,4.4
	C315.2,161.7,314.9,162.2,314.6,162.8z"/>
<path class="st0" d="M430.6,122.4c-1.5-0.9-3.1-1.3-4.8-1.3c-1.7,0-3.3,0.4-4.8,1.3c-1.5,0.8-2.6,2-3.5,3.5
	c-0.9,1.5-1.3,3.1-1.3,4.8c0,1.7,0.4,3.3,1.3,4.8c0.8,1.5,2,2.6,3.5,3.5c1.5,0.9,3.1,1.3,4.8,1.3c1.7,0,3.3-0.4,4.8-1.3
	c1.5-0.8,2.6-2,3.5-3.5c0.9-1.4,1.3-3.1,1.3-4.8s-0.4-3.4-1.3-4.8C433.3,124.4,432.1,123.3,430.6,122.4z M431.2,136.2
	c-1.5,1.5-3.4,2.3-5.5,2.3c-2.1,0-4-0.8-5.5-2.3s-2.3-3.3-2.3-5.5c0-2.1,0.8-4,2.3-5.5s3.4-2.3,5.5-2.3c2.1,0,4,0.8,5.5,2.3
	s2.3,3.3,2.3,5.5C433.5,132.8,432.8,134.7,431.2,136.2z"/>
<path class="st0" d="M427.8,131.8c-0.2-0.2-0.5-0.3-0.9-0.5c1-0.2,1.7-0.6,2.1-1.1c0.5-0.5,0.7-1.1,0.7-1.8c0-0.9-0.3-1.6-0.9-2.1
	c-0.5-0.5-1.5-0.8-2.8-0.8h-4.6l0,10.4h2.6v-4.1c0.1,0,0.2,0,0.3,0c0.3,0,0.7,0.2,1,0.6c0.4,0.3,1,1.5,2,3.5h3c-1.1-2-1.7-3-1.7-3
	C428.3,132.4,428.1,132,427.8,131.8z M425,129.9h-1.1l0.1-2.6h1.2c0.7,0,1.2,0.2,1.5,0.4c0.3,0.2,0.4,0.5,0.4,0.9
	c0,0.4-0.2,0.6-0.5,0.9C426.3,129.8,425.7,129.9,425,129.9z"/>
</svg>
