<?xml version="1.0" encoding="utf-8"?>
<!-- Generator: Adobe Illustrator 19.1.0, SVG Export Plug-In . SVG Version: 6.00 Build 0)  -->
<svg version="1.1" id="Calque_4" xmlns="http://www.w3.org/2000/svg" xmlns:xlink="http://www.w3.org/1999/xlink" x="0px" y="0px"
	 viewBox="0 0 500 500" style="enable-background:new 0 0 500 500;" xml:space="preserve">
<style type="text/css">
	.st0{fill:#E6571C;}
	.st1{fill:#FFFFFF;}
</style>
<g>
	<g>
		<path class="st0" d="M437,350.5H59.7c-19.9,0-35.5-18.8-35.5-42.8V190.9c0-22.8,15.7-41.4,34.9-41.4H437
			c20.5,0,37.2,18.1,37.2,40.3v116.8C474.2,330.8,457.5,350.5,437,350.5z M59.1,155.3c-15.8,0-29.1,16.3-29.1,35.6v116.8
			c0,20.7,13,37,29.7,37H437c17.3,0,31.4-17.1,31.4-38.1V189.8c0-19-14.1-34.4-31.4-34.4L59.1,155.3L59.1,155.3z"/>
	</g>
	<path class="st0" d="M424,248.2H69.7c-15.2,0-27.6,12.1-27.6,26.9V305c0,15.3,13,27.8,29.1,27.8h353.9c17.1,0,31-13.4,31-29.9
		v-24.9C456.1,261.5,441.7,248.2,424,248.2z"/>
	<g>
		<path class="st1" d="M445.4,267.2c0,1.7-0.4,3.4-1.3,4.8c-0.9,1.5-2,2.7-3.5,3.5c-1.5,0.9-3.1,1.3-4.8,1.3s-3.3-0.4-4.8-1.3
			c-1.5-0.9-2.7-2-3.5-3.5c-0.9-1.5-1.3-3.1-1.3-4.8c0-1.7,0.4-3.3,1.3-4.8c0.9-1.5,2-2.7,3.5-3.5c1.5-0.9,3.1-1.3,4.8-1.3
			s3.3,0.4,4.8,1.3c1.5,0.9,2.7,2,3.5,3.5C445,263.8,445.4,265.5,445.4,267.2z M443.5,267.2c0-2.2-0.8-4-2.3-5.5
			c-1.5-1.5-3.4-2.3-5.5-2.3s-4,0.8-5.5,2.3c-1.5,1.5-2.3,3.4-2.3,5.5c0,2.2,0.8,4,2.3,5.5c1.5,1.5,3.4,2.3,5.5,2.3s4-0.8,5.5-2.3
			C442.8,271.2,443.5,269.3,443.5,267.2z M431.4,262h4.6c1.3,0,2.3,0.3,2.8,0.8c0.6,0.5,0.9,1.2,0.9,2.1c0,0.7-0.2,1.3-0.7,1.8
			c-0.4,0.5-1.1,0.9-2.1,1.1c0.4,0.2,0.7,0.3,0.9,0.5c0.3,0.2,0.5,0.6,0.8,1.1c0,0,0.6,1,1.7,3h-3c-1-2-1.6-3.2-2-3.5
			c-0.3-0.4-0.7-0.6-1-0.6c-0.1,0-0.2,0-0.3,0v4.1h-2.6L431.4,262L431.4,262z M433.9,266.4h1.1c0.7,0,1.3-0.1,1.6-0.4
			s0.5-0.5,0.5-0.9c0-0.4-0.1-0.7-0.4-0.9c-0.3-0.2-0.8-0.4-1.5-0.4h-1.2L433.9,266.4L433.9,266.4z"/>
	</g>
	<g>
		<path class="st0" d="M60.1,165.7h35.8c15.7,0,24.4,8.1,24.4,20.4c0,8.2-4.3,13.8-11.6,15.5c10.1,2.1,15.1,8,15.1,17.8
			c0,13.8-9.4,21.1-27.9,21.1H60.1V165.7z M85.3,194h3.6c4.4,0,6.7-1.9,6.7-5.2s-2.3-5.2-6.7-5.2h-3.6V194z M85.3,222h4.5
			c5.5,0,8.4-2.2,8.4-6c0-3.8-2.8-6-8.4-6h-4.5V222z"/>
		<path class="st0" d="M150.1,165.7H180l26.2,74.8h-28.9l-2.4-9.4h-20.3l-2.3,9.4h-28.9L150.1,165.7z M170.3,213.3l-2.3-8.5
			c-1-4-2.6-9.2-3-16.4h-0.5c-0.4,7.2-2,12.4-3,16.4l-2.3,8.5H170.3z"/>
		<path class="st0" d="M210.4,165.7h26.9v24.9h16.4v-24.9h26.9v74.8h-26.9v-26.4h-16.4v26.4h-26.9V165.7z"/>
		<path class="st0" d="M334.1,188.4c-8.7,0-14.6,5.8-14.6,14.9c0,8.6,5.3,14.4,14.1,14.4c5.5,0,10.7-2.5,16.6-6.9l-0.8,28.1
			c-6,2.4-11.7,3.6-17.6,3.6c-9.1,0-17.5-2.7-24.3-7.7c-10-7.4-15.5-18.4-15.5-31.5c0-22.7,16.8-39.3,40.1-39.3
			c6.1,0,11.8,1.3,17.6,3.8v27.7C344.8,190.7,339.8,188.4,334.1,188.4z"/>
		<path class="st0" d="M427.4,231.2c-7.3,7.2-17.5,11.3-28.6,11.3c-11.2,0-21.1-4.1-28.7-11.4c-7.3-7.2-11.3-16.7-11.3-27.8
			c0-11.1,4-20.7,11.3-27.9c7.5-7.3,17.5-11.3,28.7-11.3c11.2,0,21.1,4,28.7,11.3c7.3,7.2,11.3,16.9,11.3,27.9
			C438.8,214.4,434.9,223.9,427.4,231.2z M411.4,203.3c0-8.7-5.2-14.2-12.6-14.2c-7.3,0-12.7,5.5-12.7,14.2s5.3,14.1,12.7,14.1
			C406.2,217.4,411.4,212,411.4,203.3z"/>
	</g>
	<g>
		<path class="st1" d="M287.7,326.9c-10.5,0-23.6-0.7-37.9-1.6c-11.1-0.6-22.6-1.3-34-1.6c-30.8-1-57.1,2.8-57.3,2.9
			c-1,0.1-1.8-0.5-2-1.5c-0.1-1,0.5-1.8,1.5-2c0.3,0,26.7-3.8,57.9-2.9c11.4,0.4,23,1,34.1,1.7c21.2,1.2,41.2,2.4,52.3,0.8
			c24-3.4,38-19.5,37.2-32.4c-0.6-10-9.7-16.2-24.4-16.4c-1,0-1.7-0.8-1.7-1.8c0-1,0.8-1.7,1.7-1.7c0,0,0,0,0,0
			c19.6,0.4,27.2,10.4,27.8,19.7c0.9,14.8-13.8,32.3-40.1,36.1C298.7,326.6,293.6,326.9,287.7,326.9z"/>
	</g>
	<g>
		<polygon class="st1" points="297.2,268.6 322.8,270.9 318.1,272 325.7,284 		"/>
	</g>
	<g>
		<path class="st0" d="M198.7,308c0,0,15.1,16.5,24.5,4.5C214.7,311.4,198.7,308,198.7,308z"/>
		<path class="st1" d="M214.9,318.6C214.9,318.6,214.9,318.6,214.9,318.6c-8.7,0-17.1-9.1-17.5-9.5c-0.5-0.6-0.6-1.4-0.2-2.1
			c0.4-0.6,1.1-1,1.9-0.8c0.2,0,16,3.5,24.4,4.5c0.6,0.1,1.2,0.5,1.4,1.1s0.1,1.2-0.2,1.7C222,316.9,218.7,318.6,214.9,318.6z
			 M204.8,311c2.8,2.1,6.5,4.1,10.1,4.1l0,0c1.7,0,3.2-0.5,4.6-1.4C214.8,313,209.1,311.9,204.8,311z"/>
	</g>
	<g>
		<path class="st1" d="M329.3,298.6c-0.1-0.2-0.3-0.3-0.5-0.5c0-0.1,0.1-0.2,0.1-0.3c0.1-2.5-1.2-5-3.7-7.1
			c-0.6-0.6-13.1-12.1-41.3-15.8c-0.1-0.3-0.1-0.7-0.4-0.9c-4.2-8.1-9.8-9.3-12.7-9.3c-2.6,0-5.1,0.9-6.6,2.4
			c-0.4,0.4-0.8,0.9-1,1.4c-3-2.5-7-2.9-9.3-0.5c-0.4,0.4-0.7,0.8-0.9,1.2c-1.7-1.5-3.4-1.8-4.6-1.8c-2.4,0-4.9,1.3-6.5,3.4
			c-1.2-1-2.7-1.6-4.4-1.6c-3.6,0-7.1,2.5-8.5,4.8c-0.9,1.5-1.2,2.8-1.2,3.8c-13.2,2.7-27.2,6.8-41.7,12.2c-3.7-2.1-20.2-11-30.2-11
			c-0.7,0-1.3,0.4-1.6,1c-0.3,0.6-0.2,1.3,0.3,1.9c9.3,10.9,10.3,12.3,12,15.4l-7.8,16.2c-0.2,0.5-0.2,1,0,1.5
			c0.2,0.5,0.7,0.8,1.2,0.9c0.5,0.1,9.5,1.5,25.4-7.5c0.1,0,0.3,0,0.4-0.1c0.1,0,0.1-0.1,0.2-0.2c0.5-0.3,0.9-0.5,1.4-0.7
			c14.3,3.2,49.4,10.1,81.8,10.1c0,0,0,0,0,0c26.3,0,45.3-4.5,56.5-13.4c0.1-0.1,1.8-1.4,2.8-3.6c0.2-0.1,0.4-0.2,0.6-0.3
			C329.3,299.8,329.6,299.1,329.3,298.6z M243.9,312.7l-6.1-7.1l7-8.2l8.9,9.7l-5.3,6C246.9,312.9,245.4,312.8,243.9,312.7z
			 M223,310.2l-2.1-2.8l7.7-9.1l6.2,7.3l-4.8,5.6C227.6,310.9,225.3,310.6,223,310.2z M206.3,307.5l-2.8-3.2l6.5-7.4l7.8,10.3
			l-1.6,1.9C212.8,308.7,209.5,308.1,206.3,307.5z M188.8,304.1l6-6.2l5.7,6.5l-1.6,1.8C194.9,305.4,191.5,304.7,188.8,304.1z
			 M185.8,293.5C185.8,293.5,185.8,293.5,185.8,293.5c0.2,0,0.4,0.1,0.6,0c1.2-0.4,2.3-0.7,3.5-1.2l3.3,3.7l-7.8,8.1
			C181.8,296.3,185.6,293.6,185.8,293.5z M216.5,284.2l0.9,1l-7.2,8.1l-4.7-6.2C209.3,286,212.9,285.1,216.5,284.2z M229.7,281
			l5.4,5.9l-6.6,7.8l-8.1-9.5l2.4-2.7C225.1,282,227.5,281.4,229.7,281z M202,302.6l-5.6-6.4l7.3-7.6l4.9,6.5L202,302.6z M218.9,287
			l8.1,9.5l-7.6,9l-7.8-10.3L218.9,287z M236.7,285.1l-4.2-4.6c3.2-0.6,6.3-1.1,9.4-1.5L236.7,285.1z M236.8,288.6l6.4,7l-6.9,8.2
			l-6.2-7.3L236.8,288.6z M238.3,286.8l7.1-8.4c0.5-0.1,1-0.2,1.5-0.2l5.7,6.4l-7.8,9.2L238.3,286.8z M249.8,278
			c3-0.3,5.9-0.4,8.9-0.5l-4.6,5.4L249.8,278z M254.1,286.4l8.9,10l-7.7,8.8l-8.9-9.7L254.1,286.4z M255.6,284.6l6.2-7.3
			c1,0,2-0.2,3-0.2l7.6,8.5l-7.9,9L255.6,284.6z M268,277.2c4,0.1,7.8,0.2,11.4,0.6l-5.4,6.2L268,277.2z M194.8,294.4l-2.5-2.9
			c2.6-0.9,5.2-1.8,7.8-2.6L194.8,294.4z M202,306.1l0.7,0.8c-0.4-0.1-0.8-0.1-1.2-0.2L202,306.1z M219.3,309.2l0.4,0.5
			c-0.3,0-0.5-0.1-0.8-0.1L219.3,309.2z M236.3,307.3l4.3,5c-2.6-0.3-5.3-0.5-7.8-0.8L236.3,307.3z M255.3,308.7l4.6,5
			c-2.9-0.1-5.7-0.3-8.5-0.5L255.3,308.7z M256.8,306.9l7.7-8.8l5.6,6.4c-3.4,3.7-6.2,6.7-7.8,8.4L256.8,306.9z M266.1,296.4l7.9-9
			l5.8,6.5c-2.7,3.1-5.4,6.1-8,8.9L266.1,296.4z M275.5,285.6l6.6-7.5c3.3,0.4,6.6,0.9,9.4,1.5c-2,3-5.8,7.6-10.2,12.6L275.5,285.6z
			 M266.6,269.4c0.7-0.7,2.2-1.4,4.1-1.4c1.9,0,5.2,0.7,8.3,5.2c-2.5-0.1-6.2-0.2-10.5-0.2c-0.7,0-1.3,0-2,0c-0.1-0.3-0.3-0.7-0.4-1
			C265.7,270.4,266.4,269.7,266.6,269.4z M256.3,270.4c0.4-0.4,0.9-0.6,1.5-0.6c1.6,0,3.7,1.4,4.8,3.4c-2.4,0.1-4.6,0.1-6.8,0.2
			C255.4,272,255.6,271,256.3,270.4z M244.3,273.2c0.8-1.2,2.4-2.4,4-2.4c1.7,0,3,1.4,3.7,2.7c-2.8,0.2-5.4,0.4-7.9,0.7
			c0-0.1-0.1-0.2-0.1-0.3C244.1,273.7,244.1,273.4,244.3,273.2z M231.8,275.8c0.9-1.5,3.3-3.2,5.6-3.2c1.4,0,2.5,0.7,3.2,2.1
			c-3.5,0.5-6.6,1.2-9.2,1.9C231.5,276.5,231.6,276.2,231.8,275.8z M170,298c0.2-0.5,0.2-1.2-0.1-1.6c-1.8-3.5-2.4-4.5-9.9-13.4
			c7.8,1.6,17.8,6.6,22.4,9c-1.7,2-3.6,6.3,0,13.8c-9.7,5.3-16.5,6.6-19.5,6.7L170,298z M268.9,313.9c-1.4,0-2.8-0.1-4.2-0.1
			c1.7-1.8,4.1-4.3,7-7.5l4.4,5c0.2,0.3,0.6,0.4,0.9,0.4c0.3,0,0.5-0.1,0.8-0.3c0.5-0.4,0.5-1.2,0.1-1.6l-4.6-5.2
			c2.6-2.8,5.3-5.9,8-8.9l14.5,16.2C288,313.2,279,313.9,268.9,313.9C268.9,313.9,268.9,313.9,268.9,313.9z M298.4,311.3l-15.6-17.5
			c4.8-5.5,9-10.6,11-13.7c19.7,4.6,28.7,12.9,28.8,13c1.8,1.5,2.6,3,2.6,4.4c0,0.7-0.3,1.2-0.6,1.8c-8.2,3.4-17.4,4-17.5,4
			c-0.6,0-1.1,0.6-1.1,1.2c0,0.6,0.5,1.1,1.2,1.1c0,0,0,0,0.1,0c0.3,0,6-0.4,12.5-2.2C314.4,307,307.2,309.6,298.4,311.3z"/>
		<path class="st1" d="M309.8,289.5c0-2.8-2.3-5.2-5.2-5.2s-5.2,2.3-5.2,5.2c0,2.9,2.3,5.2,5.2,5.2
			C307.5,294.6,309.8,292.3,309.8,289.5z M304.6,292.3c-1.6,0-2.8-1.3-2.8-2.8s1.3-2.8,2.8-2.8s2.8,1.3,2.8,2.8
			S306.2,292.3,304.6,292.3z"/>
	</g>
	<g>
		<path class="st0" d="M291.7,311.3c0,0-10.4,14.2-16.5,5.1c-3.5-5.1,10.9-9.4,10.9-9.4S293.4,304.2,291.7,311.3z"/>
		<path class="st1" d="M280.2,321.1c-1.8,0-4.3-0.7-6.5-3.8c-0.9-1.3-1.1-2.7-0.6-4.1c1.6-4.5,10.6-7.5,12.4-8
			c0.1,0,1.6-0.6,3.3-0.6c2.1,0,3.3,0.9,3.8,1.6c1,1.2,1.2,3.1,0.7,5.4c-0.1,0.2-0.2,0.4-0.3,0.6
			C292.5,313.2,286.5,321.1,280.2,321.1z M288.9,308.1c-1.1,0-2.2,0.4-2.2,0.4c-3.8,1.2-9.5,3.7-10.2,5.9c-0.1,0.3-0.1,0.5,0.2,1
			c1,1.5,2.2,2.3,3.6,2.3c3.6,0,8.2-4.9,9.9-7.1c0.2-1.2,0.1-1.8-0.1-2.1C289.8,308.2,289.1,308.1,288.9,308.1z"/>
	</g>
</g>
</svg>
