<svg xmlns="http://www.w3.org/2000/svg" viewBox="0 0 300 188.7" enable-background="new 0 0 300 188.7"><path fill-rule="evenodd" clip-rule="evenodd" fill="#E63623" d="M0 0v188.7c97.2-43.4 208.2-39.8 300 0v-188.7c-97.1 39.9-196.9 42.5-300 0zm296.7 183.7c-92.9-38.9-200.7-39.9-293.5-.1v-178.8c98 39.2 195.7 39 293.5 0v178.9z"/><path fill="#E63623" d="M5.6 8.2v172c91.6-38.3 197.2-37.3 288.9.1v-172.1c-96.4 37.6-192.6 37.7-288.9 0z"/><path d="M62.5 57.8l-9 58.3h10.3l1.4-15.5h5.6l1.1 15.5h11.7l-6.6-58.3h-14.5zm3.6 34.2l1.8-17.9c.1-.4.1-1.3.2-2.6s.2-3.1.3-5.4h.4v2.6c.1 2.6.1 4.4.2 5.4l1.3 17.9h-4.2zM101.6 57.8h-11.3v58.3h21v-8.8h-9.7zM34.1 57.8h-13.1v58.3h12.4c5.1 0 8.6-1 10.7-2.9 2.1-1.9 3.1-5.2 3.1-9.7v-9c0-2.9-.7-5.2-2.1-6.7-1.4-1.5-3.6-2.4-6.5-2.7v-.3c3.2-.7 5.5-1.7 6.8-3.2 1.3-1.5 1.9-3.8 1.9-6.9v-6.9c0-3.3-1.1-5.8-3.2-7.5-2.3-1.7-5.6-2.5-10-2.5zm1.9 46.8c0 1.2-.2 2-.7 2.5-.5.5-1.3.7-2.4.7h-.6v-18.7h.6c1.1 0 2 .2 2.4.7.5.5.7 1.3.7 2.5v12.3zm0-26.8c0 1.3-.2 2.3-.7 2.7-.5.5-1.5.7-3 .7v-16c1.6 0 2.6.2 3.1.7.5.4.7 1.3.7 2.6v9.3zM130.1 57.8h-11.3v58.3h21v-8.8h-9.7zM275.7 57.8h-11.3v58.3h21v-8.8h-9.7zM198.3 66.1h7.2v50h11.1v-50h7.2v-8.3h-25.5zM243.4 56.5c-4.7 0-8.1 1.1-10.1 3.5-2 2.3-3.1 6.2-3.1 11.6v30.8c0 5.5 1 9.3 3 11.6 2 2.3 5.4 3.4 10.1 3.4 4.7 0 8.1-1.1 10.1-3.4s3-6.2 3-11.6v-30.8c0-5.5-1-9.4-3.1-11.6-1.8-2.3-5.2-3.5-9.9-3.5zm2 49.2c0 1-.1 1.7-.4 2.2-.3.4-.8.7-1.5.7s-1.1-.2-1.4-.6c-.3-.4-.4-1.2-.4-2.2v-38.1c0-1 .1-1.7.4-2.1.3-.4.8-.7 1.4-.7.7 0 1.2.2 1.5.6.3.4.4 1.1.4 2.2v38zM147.1 57.8h11.3v58.3h-11.3zM179.1 56.5c-4.1 0-7.4 1-9.7 3.1-2.3 2.1-3.5 4.9-3.5 8.7v6.1c0 2.1.2 3.7.7 4.9.4 1.2 1.2 2.4 2.2 3.7l10.2 11.9c.7.8 1.2 1.6 1.5 2.4.3.7.4 1.5.4 2.3v6.2c0 1-.1 1.8-.4 2.2-.3.4-.8.6-1.4.6-.7 0-1.2-.2-1.5-.7-.3-.4-.4-1.2-.4-2.2v-11.7h-11.2v10.9c0 4.1 1.1 7.2 3.3 9.3 2.2 2.1 5.5 3.2 9.8 3.2 4.2 0 7.5-1 9.7-3 2.3-2 3.4-4.9 3.4-8.6v-6.8c0-2.8-.2-4.8-.7-6-.4-1.3-1.2-2.5-2.2-3.6l-10.8-12.4c-.5-.6-.8-1.2-1.1-1.9-.2-.6-.3-1.4-.3-2.3v-5.2c0-1 .1-1.7.4-2.2.3-.4.8-.6 1.5-.6s1.2.2 1.5.6c.3.4.4 1.1.4 2.2v10.4h11.2v-9.5c0-3.8-1.1-6.8-3.4-8.9-2.2-2-5.4-3.1-9.6-3.1z"/><path fill="#E63623" d="M66.1 66v-2.6h-.4c-.1 2.2-.2 4-.3 5.4-.1 1.3-.1 2.2-.2 2.6l-1.8 17.9h4.2l-1.3-17.8c-.1-1.1-.2-2.9-.2-5.5zM29.4 62.4v16c1.5 0 2.5-.2 3-.7.5-.5.7-1.4.7-2.7v-9.3c0-1.3-.2-2.2-.7-2.6-.4-.4-1.4-.7-3-.7zM240.6 62.1c-.7 0-1.1.2-1.4.7-.3.4-.4 1.2-.4 2.1v38.1c0 1 .1 1.8.4 2.2.3.4.8.6 1.4.6.7 0 1.2-.2 1.5-.7.3-.4.4-1.2.4-2.2v-38c0-1-.1-1.8-.4-2.2-.2-.4-.8-.6-1.5-.6zM30.1 86.4h-.6v18.7h.6c1.1 0 2-.2 2.4-.7.5-.5.7-1.3.7-2.5v-12.3c0-1.2-.2-2-.7-2.5-.5-.5-1.3-.7-2.4-.7z"/><path fill="#fff" d="M98.8 55h-11.2v58.3h20.9v-8.8h-9.7zM59.8 55l-9 58.3h10.2l1.4-15.5h5.6l1.1 15.5h11.7l-6.6-58.3h-14.4zm3.6 34.2l1.8-17.9c.1-.4.1-1.3.2-2.6s.2-3.1.3-5.4h.3v2.6c.1 2.6.1 4.4.2 5.4l1.3 17.8h-4.1zM31.3 55h-13.1v58.3h12.4c5.1 0 8.6-1 10.7-2.9 2.1-1.9 3.1-5.2 3.1-9.7v-9c0-2.9-.7-5.2-2.1-6.7-1.4-1.5-3.6-2.4-6.5-2.7v-.3c3.2-.7 5.5-1.7 6.8-3.2 1.3-1.5 1.9-3.8 1.9-6.9v-6.9c0-3.3-1.1-5.8-3.2-7.5-2.3-1.6-5.6-2.5-10-2.5zm1.9 46.8c0 1.2-.2 2-.7 2.5-.5.5-1.3.7-2.4.7h-.6v-18.6h.6c1.1 0 2 .2 2.4.7.5.5.7 1.3.7 2.5v12.2zm0-26.8c0 1.3-.2 2.3-.7 2.7-.5.5-1.5.7-3 .7v-16c1.6 0 2.6.2 3.1.7.5.4.7 1.3.7 2.6v9.3zM272.9 55h-11.3v58.3h21v-8.8h-9.7zM195.5 63.3h7.2v50h11.2v-50h7.2v-8.3h-25.6zM240.6 53.8c-4.7 0-8.1 1.1-10.1 3.5-2 2.3-3.1 6.2-3.1 11.6v30.8c0 5.5 1 9.3 3 11.6 2 2.3 5.4 3.4 10.1 3.4 4.7 0 8.1-1.1 10.1-3.4s3-6.2 3-11.6v-30.9c0-5.5-1-9.4-3.1-11.6-1.8-2.3-5.2-3.4-9.9-3.4zm2 49.2c0 1-.1 1.7-.4 2.2-.3.4-.8.7-1.5.7s-1.1-.2-1.4-.6c-.3-.4-.4-1.2-.4-2.2v-38.2c0-1 .1-1.7.4-2.1.3-.4.8-.7 1.4-.7.7 0 1.2.2 1.5.6.3.4.4 1.1.4 2.2v38.1zM127.3 55h-11.3v58.3h21v-8.8h-9.7zM176.3 53.8c-4.2 0-7.4 1-9.7 3.1-2.3 2.1-3.5 5-3.5 8.7v6.1c0 2.1.2 3.7.7 4.9.4 1.2 1.2 2.4 2.2 3.7l10.2 11.9c.7.8 1.2 1.6 1.5 2.4.3.7.4 1.5.4 2.3v6.2c0 1-.1 1.8-.4 2.2-.3.4-.8.6-1.4.6-.7 0-1.2-.2-1.5-.7-.3-.4-.4-1.2-.4-2.2v-11.8h-11.2v10.9c0 4.1 1.1 7.2 3.3 9.3 2.2 2.1 5.5 3.2 9.8 3.2 4.2 0 7.5-1 9.7-3 2.3-2 3.4-4.9 3.4-8.6v-6.8c0-2.8-.2-4.8-.7-6-.4-1.3-1.2-2.5-2.2-3.6l-10.8-12.3c-.5-.6-.8-1.2-1.1-1.9-.2-.6-.3-1.4-.3-2.3v-5.2c0-1 .1-1.7.4-2.2.3-.4.8-.6 1.5-.6s1.2.2 1.5.6c.3.4.4 1.1.4 2.2v10.4h11.2v-9.5c0-3.8-1.1-6.8-3.4-8.9-2.2-2.1-5.4-3.1-9.6-3.1zM144.4 55h11.3v58.3h-11.3z"/><path fill="#070707" d="M29.4 61.9h-.5v17.1h.5c1.7 0 2.8-.3 3.4-.8.6-.6.9-1.6.9-3.1v-9.3c0-1.5-.3-2.5-.9-3-.5-.6-1.7-.9-3.4-.9zm3.3 13.1c0 1.5-.3 2.1-.6 2.3-.2.2-.8.5-2.1.5v-14.8c1.4.1 1.9.3 2.2.5.2.2.5.8.5 2.3v9.2zM66.6 66v-3.1h-1.5v.5c-.1 2.2-.2 4-.3 5.3-.1 1.4-.1 2.2-.2 2.6l-1.8 18.4h5.3l-1.3-18.3c-.1-1-.2-2.9-.2-5.4zm-2.7 22.7l1.7-17.3v-.4.4l1.4 17.3h-3.1zM30.1 85.8h-1.1v19.7h1.1c1.3 0 2.2-.3 2.8-.9.6-.6.9-1.5.9-2.9v-12.1c0-1.3-.3-2.3-.9-2.9-.6-.6-1.5-.9-2.8-.9zm2.6 16c0 1-.2 1.8-.6 2.1-.4.4-1.1.6-2.1.6v-17.6h.1c1 0 1.7.2 2.1.6.4.4.6 1.1.6 2.1v12.2zM31.3 54.5h-13.7v59.3h12.9c5.2 0 8.9-1 11.1-3 2.2-2 3.3-5.4 3.3-10.1v-9c0-3-.8-5.4-2.3-7.1-1.2-1.3-2.9-2.1-5-2.6 2.4-.7 4.2-1.7 5.2-2.9 1.3-1.6 2-4 2-7.2v-6.9c0-3.5-1.2-6.2-3.4-7.9-2.1-1.7-5.6-2.6-10.1-2.6zm12.6 17.4c0 3-.6 5.2-1.8 6.6-1.2 1.4-3.4 2.4-6.5 3l-.4.1v1.2h.5c2.8.3 4.9 1.1 6.2 2.5 1.3 1.4 2 3.6 2 6.4v9c0 4.4-1 7.6-3 9.4-2 1.8-5.5 2.7-10.4 2.7h-11.8v-57.2h12.6c4.3 0 7.5.8 9.5 2.4 2 1.6 3 3.9 3 7.1v6.8zM59.3 54.5l-9.1 58.7-.1.6h11.4l1.4-15.5h4.6l1.1 15.5h12.7l-6.8-59.3h-15.2zm10.4 58.3l-1.1-15.5h-6.6l-1.4 15.5h-9.2l8.9-57.2h13.5l6.5 57.2h-10.6zM195 63.8h7.2v50h12.2v-50h7.2v-9.3h-26.6v9.3zm1-8.2h24.5v7.2h-7.2v50h-10.1v-50h-7.2v-7.2zM240.6 61.6c-1.1 0-1.6.5-1.9.9-.4.5-.5 1.3-.5 2.4v38.1c0 1.1.2 2 .5 2.5.3.4.8.9 1.9.9 1.1 0 1.7-.5 1.9-.9.4-.5.5-1.3.5-2.5v-38.1c0-1.2-.2-2-.5-2.5-.2-.4-.7-.8-1.9-.8zm1.5 41.4c0 1.1-.2 1.6-.4 1.9-.1.1-.3.4-1.1.4-.7 0-.9-.3-1-.4-.2-.2-.4-.8-.4-1.9v-38.1c0-1.1.2-1.6.4-1.8.2-.3.5-.4 1-.4s.9.1 1.1.4c.2.2.3.7.3 1.9v38zM273.4 54.5h-12.3v59.3h22v-9.8h-9.7v-49.5zm8.7 50.5v7.8h-19.9v-57.2h10.2v49.4h9.7zM240.6 53.2c-4.8 0-8.4 1.2-10.5 3.6-2.1 2.4-3.2 6.4-3.2 11.9v30.8c0 5.6 1.1 9.6 3.2 12 2.1 2.4 5.7 3.6 10.5 3.6 4.9 0 8.4-1.2 10.5-3.6 2.1-2.4 3.2-6.4 3.2-12v-30.7c0-5.6-1.1-9.6-3.2-12-2.1-2.4-5.6-3.6-10.5-3.6zm12.7 46.4c0 5.3-1 9.1-2.9 11.3-1.9 2.2-5.2 3.3-9.7 3.3-4.5 0-7.8-1.1-9.7-3.3-1.9-2.2-2.9-6-2.9-11.3v-30.8c0-5.3 1-9.1 2.9-11.3 1.9-2.2 5.2-3.3 9.7-3.3 4.5 0 7.8 1.1 9.7 3.2 1.9 2.2 2.9 6 2.9 11.3v30.9zM127.8 54.5h-12.3v59.3h22v-9.8h-9.7v-49.5zm8.7 50.5v7.8h-19.9v-57.2h10.2v49.4h9.7zM176.3 53.2c-4.3 0-7.6 1.1-10 3.2-2.4 2.1-3.6 5.2-3.6 9.1v6.1c0 2.1.2 3.8.7 5.1.5 1.3 1.2 2.5 2.3 3.8l8.7 10.2h-11.7v11.4c0 4.2 1.2 7.5 3.5 9.7 2.3 2.2 5.7 3.3 10.1 3.3 4.3 0 7.7-1.1 10.1-3.1 2.4-2.1 3.6-5.1 3.6-9v-6.8c0-2.8-.2-4.9-.7-6.2-.5-1.3-1.2-2.6-2.3-3.8l-9.2-10.4h12.1v-10c0-4-1.2-7.1-3.6-9.3-2.3-2.2-5.7-3.3-10-3.3zm12.6 21.5h-10.2v-9.8c0-1.2-.2-2-.5-2.5-.4-.5-1-.8-1.9-.8-.9 0-1.6.3-1.9.9-.4.5-.5 1.3-.5 2.5v5.2c0 1 .1 1.8.4 2.5.2.7.6 1.4 1.2 2l10.8 12.3c1 1.1 1.7 2.2 2.1 3.4.4 1.2.6 3.2.6 5.9v6.8c0 3.6-1.1 6.3-3.2 8.2-2.2 1.9-5.3 2.9-9.4 2.9-4.2 0-7.3-1-9.4-3-2.1-2-3.1-5-3.1-8.9v-10.5h10.2v11.2c0 1.1.2 1.9.5 2.5.3.4.8.9 2 .9 1.1 0 1.6-.5 1.9-.9.4-.5.5-1.3.5-2.5v-6.2c0-.9-.2-1.8-.5-2.5-.3-.8-.8-1.6-1.6-2.5l-10.2-11.9c-1-1.2-1.7-2.3-2.2-3.5-.4-1.2-.6-2.8-.6-4.7v-6.1c0-3.5 1.1-6.3 3.3-8.3 2.2-2 5.4-2.9 9.4-2.9s7.2 1 9.3 3c2.1 1.9 3.2 4.8 3.2 8.5v8.8zm-11.2-9.8v10.7l-1.5-1.7c-.4-.6-.8-1.1-1-1.7-.2-.6-.3-1.3-.3-2.1v-5.2c0-.9.1-1.5.4-1.9.1-.1.3-.4 1.1-.4.7 0 .9.2 1 .4.1.2.3.7.3 1.9zm-2.8 38.1v-11.7l1 1.1c.7.8 1.2 1.6 1.4 2.2.3.6.4 1.4.4 2.1v6.2c0 .9-.1 1.6-.4 1.9-.1.1-.3.4-1 .4-.5 0-.9-.1-1.1-.4-.1-.2-.3-.7-.3-1.8zM99.4 54.5h-12.4v59.3h22v-9.8h-9.7v-49.5zm8.6 50.5v7.8h-19.9v-57.2h10.2v49.4h9.7zM143.8 113.8h12.3v-59.3h-12.3v59.3zm1.1-58.2h10.2v57.2h-10.2v-57.2z"/><path d="M141.2 128.5h1v6.9h-1zM131.6 131.8c-.3-.1-.8-.3-1.6-.4-.8-.2-1.3-.3-1.5-.5-.2-.2-.3-.4-.3-.6 0-.3.1-.5.4-.7.3-.2.7-.3 1.3-.3.6 0 1 .1 1.3.3.3.2.5.6.5 1l.9-.1c0-.4-.1-.8-.4-1.1-.2-.3-.5-.6-1-.7-.4-.2-.9-.2-1.4-.2-.5 0-.9.1-1.3.2-.4.2-.7.4-.9.7-.2.3-.3.6-.3 1 0 .3.1.6.3.9.2.3.4.5.8.6.3.1.7.3 1.4.4.7.2 1.1.3 1.3.3.3.1.5.2.7.4.1.2.2.4.2.6 0 .2-.1.4-.2.6-.1.2-.4.3-.6.4-.3.1-.6.2-1 .2s-.8-.1-1.1-.2c-.3-.1-.6-.3-.7-.5-.2-.2-.3-.5-.3-.9l-.9.1c0 .5.1.9.4 1.2.3.4.6.6 1.1.8.4.2 1 .3 1.7.3.5 0 1-.1 1.4-.3.4-.2.7-.4 1-.8.2-.3.3-.7.3-1 0-.4-.1-.7-.3-1-.5-.3-.8-.5-1.2-.7zM135.2 132.3h4v-.8h-4v-2.2h4.3v-.8h-5.3v6.9h5.5v-.8h-4.5zM143.3 129.3h2.4v6.1h1v-6.1h2.5v-.8h-5.9zM173.4 128.5h-.7l-3.4 4.5v.8h3.2v1.7h.9v-1.7h1v-.8h-1v-4.5zm-.9 4.5h-2.3l2.3-3.1v3.1zM168 129.4c-.2-.3-.4-.5-.7-.6-.3-.2-.6-.2-1-.2-.5 0-1 .1-1.3.4-.4.3-.6.7-.8 1.2-.2.5-.3 1.2-.3 2 0 1.3.2 2.2.7 2.8.4.5 1 .7 1.7.7.5 0 1-.1 1.3-.4.4-.3.6-.7.8-1.2.2-.5.3-1.2.3-2 0-.7-.1-1.2-.2-1.6-.1-.5-.3-.9-.5-1.1zm-.7 4.9c-.3.4-.6.6-1 .6s-.8-.2-1-.6c-.3-.4-.4-1.1-.4-2.3 0-1.1.2-1.9.5-2.3.2-.3.6-.5 1-.5s.8.2 1.1.6c.3.4.4 1.1.4 2.3-.2 1.1-.3 1.8-.6 2.2zM154.5 129.4c-.4.3-.8.6-1.3.8v.8c.3-.1.6-.2 1-.4s.6-.4.9-.6v5.4h.9v-7h-.6c-.3.4-.6.7-.9 1zM161.8 128.9c-.4-.2-.8-.4-1.3-.4-.7 0-1.2.2-1.7.6-.4.4-.7 1-.7 1.7s.2 1.2.6 1.6c.4.4.9.6 1.5.6.4 0 .7-.1 1-.3.3-.2.6-.4.7-.7v.2c0 .4 0 .7-.1 1-.1.3-.2.6-.3.8-.1.2-.3.4-.5.5-.2.1-.5.2-.7.2-.3 0-.6-.1-.8-.3-.2-.2-.3-.5-.4-.8l-.9.1c.1.5.3 1 .7 1.3.4.3.8.5 1.4.5.5 0 1-.1 1.4-.4.4-.3.7-.7.9-1.2.2-.5.3-1.2.3-2.1 0-.9-.1-1.5-.3-1.9-.1-.5-.4-.8-.8-1zm-.2 3c-.3.3-.6.4-1 .4s-.8-.1-1-.4-.4-.6-.4-1.1c0-.5.2-.9.4-1.2.3-.3.6-.5 1-.5s.7.1 1 .4c.3.3.4.7.4 1.2 0 .6-.1 1-.4 1.2z"/><path fill="#fff" d="M286 55c.2-.2.2-.4.2-.7 0-.4-.2-.7-.5-.9-.3-.2-.8-.3-1.4-.3h-1.7v4.2h1v-1.7h.5l.8 1.7h1.1l-.9-1.9c.5-.1.7-.2.9-.4zm-1-.2c-.1.1-.4.1-.7.1h-.5v-1.2h.5c.3 0 .5 0 .7.2.2.1.2.3.2.5 0 .1-.1.3-.2.4zM287.1 52.6c-.4-.4-.8-.7-1.2-.9-.5-.2-1-.3-1.5-.3-.7 0-1.3.2-1.9.5-.6.3-1 .8-1.4 1.4-.2.3-.3.6-.4 1-.1.3-.1.7-.1 1 0 .5.1 1 .3 1.4.2.5.5.9.8 1.2.4.4.8.7 1.2.9.5.2 1 .3 1.5.3s1-.1 1.4-.3c.5-.2.9-.5 1.2-.8.4-.4.6-.8.8-1.2.2-.5.3-1 .3-1.5s-.1-1-.3-1.5c-.1-.5-.4-.9-.7-1.2zm.2 3.9c-.2.4-.4.7-.7 1-.3.3-.7.5-1.1.7-.4.2-.8.2-1.2.2-.4 0-.8-.1-1.2-.2-.4-.2-.7-.4-1-.7-.3-.3-.5-.6-.7-1-.2-.4-.2-.8-.2-1.2 0-.4.1-.8.3-1.2.2-.4.4-.7.7-1.1.3-.3.6-.5 1-.7.4-.2.8-.2 1.2-.2.4 0 .8.1 1.2.2.4.2.7.4 1 .7.3.3.5.6.7 1 .2.4.2.8.2 1.3 0 .4 0 .8-.2 1.2z"/></svg>