<?xml version="1.0" encoding="utf-8"?>
<!-- Generator: Adobe Illustrator 19.1.0, SVG Export Plug-In . SVG Version: 6.00 Build 0)  -->
<svg version="1.1" id="Calque_1" xmlns="http://www.w3.org/2000/svg" xmlns:xlink="http://www.w3.org/1999/xlink" x="0px" y="0px"
	 viewBox="-99 156.3 300 188.7" style="enable-background:new -99 156.3 300 188.7;" xml:space="preserve">
<style type="text/css">
	.st0{fill:#E63623;}
	.st1{fill:#FFFFFF;}
	.st2{fill:#070707;}
</style>
<path class="st0" d="M-99,156.3V345c97.2-43.4,208.2-39.8,300,0V156.3C103.9,196.2,4.1,198.8-99,156.3z M197.7,340
	C104.8,301.1-3,300.1-95.8,339.9V161.1c98,39.2,195.7,39,293.5,0V340L197.7,340z"/>
<path class="st0" d="M-93.4,164.5v172c91.6-38.3,197.2-37.3,288.9,0.1V164.5C99.1,202.1,2.9,202.2-93.4,164.5z"/>
<path d="M-36.5,214.1l-9,58.3h10.3l1.4-15.5h5.6l1.1,15.5h11.7l-6.6-58.3C-22,214.1-36.5,214.1-36.5,214.1z M-32.9,248.3l1.8-17.9
	c0.1-0.4,0.1-1.3,0.2-2.6s0.2-3.1,0.3-5.4h0.4v2.6c0.1,2.6,0.1,4.4,0.2,5.4l1.3,17.9C-28.7,248.3-32.9,248.3-32.9,248.3z M2.6,214.1
	H-8.7v58.3h21v-8.8H2.6V214.1z M-64.9,214.1H-78v58.3h12.4c5.1,0,8.6-1,10.7-2.9s3.1-5.2,3.1-9.7v-9c0-2.9-0.7-5.2-2.1-6.7
	c-1.4-1.5-3.6-2.4-6.5-2.7v-0.3c3.2-0.7,5.5-1.7,6.8-3.2s1.9-3.8,1.9-6.9v-6.9c0-3.3-1.1-5.8-3.2-7.5
	C-57.2,214.9-60.5,214.1-64.9,214.1z M-63,260.9c0,1.2-0.2,2-0.7,2.5c-0.5,0.5-1.3,0.7-2.4,0.7h-0.6v-18.7h0.6c1.1,0,2,0.2,2.4,0.7
	c0.5,0.5,0.7,1.3,0.7,2.5C-63,248.6-63,260.9-63,260.9z M-63,234.1c0,1.3-0.2,2.3-0.7,2.7c-0.5,0.5-1.5,0.7-3,0.7v-16
	c1.6,0,2.6,0.2,3.1,0.7c0.5,0.4,0.7,1.3,0.7,2.6L-63,234.1L-63,234.1z M31.1,214.1H19.8v58.3h21v-8.8h-9.7V214.1z M176.7,214.1
	h-11.3v58.3h21v-8.8h-9.7V214.1z M99.3,222.4h7.2v50h11.1v-50h7.2v-8.3H99.3V222.4z M144.4,212.8c-4.7,0-8.1,1.1-10.1,3.5
	c-2,2.3-3.1,6.2-3.1,11.6v30.8c0,5.5,1,9.3,3,11.6c2,2.3,5.4,3.4,10.1,3.4c4.7,0,8.1-1.1,10.1-3.4c2-2.3,3-6.2,3-11.6v-30.8
	c0-5.5-1-9.4-3.1-11.6C152.5,214,149.1,212.8,144.4,212.8z M146.4,262c0,1-0.1,1.7-0.4,2.2c-0.3,0.4-0.8,0.7-1.5,0.7
	s-1.1-0.2-1.4-0.6c-0.3-0.4-0.4-1.2-0.4-2.2V224c0-1,0.1-1.7,0.4-2.1c0.3-0.4,0.8-0.7,1.4-0.7c0.7,0,1.2,0.2,1.5,0.6
	s0.4,1.1,0.4,2.2V262z M48.1,214.1h11.3v58.3H48.1V214.1z M80.1,212.8c-4.1,0-7.4,1-9.7,3.1c-2.3,2.1-3.5,4.9-3.5,8.7v6.1
	c0,2.1,0.2,3.7,0.7,4.9c0.4,1.2,1.2,2.4,2.2,3.7L80,251.2c0.7,0.8,1.2,1.6,1.5,2.4c0.3,0.7,0.4,1.5,0.4,2.3v6.2c0,1-0.1,1.8-0.4,2.2
	c-0.3,0.4-0.8,0.6-1.4,0.6c-0.7,0-1.2-0.2-1.5-0.7c-0.3-0.4-0.4-1.2-0.4-2.2v-11.7H67v10.9c0,4.1,1.1,7.2,3.3,9.3s5.5,3.2,9.8,3.2
	c4.2,0,7.5-1,9.7-3c2.3-2,3.4-4.9,3.4-8.6v-6.8c0-2.8-0.2-4.8-0.7-6c-0.4-1.3-1.2-2.5-2.2-3.6l-10.8-12.4c-0.5-0.6-0.8-1.2-1.1-1.9
	c-0.2-0.6-0.3-1.4-0.3-2.3v-5.2c0-1,0.1-1.7,0.4-2.2c0.3-0.4,0.8-0.6,1.5-0.6s1.2,0.2,1.5,0.6c0.3,0.4,0.4,1.1,0.4,2.2v10.4h11.2
	v-9.5c0-3.8-1.1-6.8-3.4-8.9C87.5,213.9,84.3,212.8,80.1,212.8L80.1,212.8z"/>
<path class="st0" d="M-32.9,222.3v-2.6h-0.4c-0.1,2.2-0.2,4-0.3,5.4c-0.1,1.3-0.1,2.2-0.2,2.6l-1.8,17.9h4.2l-1.3-17.8
	C-32.8,226.7-32.9,224.9-32.9,222.3z M-69.6,218.7v16c1.5,0,2.5-0.2,3-0.7s0.7-1.4,0.7-2.7V222c0-1.3-0.2-2.2-0.7-2.6
	C-67,219-68,218.7-69.6,218.7z M141.6,218.4c-0.7,0-1.1,0.2-1.4,0.7c-0.3,0.4-0.4,1.2-0.4,2.1v38.1c0,1,0.1,1.8,0.4,2.2
	c0.3,0.4,0.8,0.6,1.4,0.6c0.7,0,1.2-0.2,1.5-0.7c0.3-0.4,0.4-1.2,0.4-2.2v-38c0-1-0.1-1.8-0.4-2.2
	C142.9,218.6,142.3,218.4,141.6,218.4z M-68.9,242.7h-0.6v18.7h0.6c1.1,0,2-0.2,2.4-0.7c0.5-0.5,0.7-1.3,0.7-2.5v-12.3
	c0-1.2-0.2-2-0.7-2.5S-67.8,242.7-68.9,242.7z"/>
<path class="st1" d="M-0.2,211.3h-11.2v58.3H9.5v-8.8h-9.7L-0.2,211.3z M-39.2,211.3l-9,58.3H-38l1.4-15.5h5.6l1.1,15.5h11.7
	l-6.6-58.3C-24.8,211.3-39.2,211.3-39.2,211.3z M-35.6,245.5l1.8-17.9c0.1-0.4,0.1-1.3,0.2-2.6s0.2-3.1,0.3-5.4h0.3v2.6
	c0.1,2.6,0.1,4.4,0.2,5.4l1.3,17.8h-4.1L-35.6,245.5z M-67.7,211.3h-13.1v58.3h12.4c5.1,0,8.6-1,10.7-2.9c2.1-1.9,3.1-5.2,3.1-9.7
	v-9c0-2.9-0.7-5.2-2.1-6.7c-1.4-1.5-3.6-2.4-6.5-2.7v-0.3c3.2-0.7,5.5-1.7,6.8-3.2s1.9-3.8,1.9-6.9v-6.9c0-3.3-1.1-5.8-3.2-7.5
	C-60,212.2-63.3,211.3-67.7,211.3z M-65.8,258.1c0,1.2-0.2,2-0.7,2.5s-1.3,0.7-2.4,0.7h-0.6v-18.6h0.6c1.1,0,2,0.2,2.4,0.7
	c0.5,0.5,0.7,1.3,0.7,2.5C-65.8,245.9-65.8,258.1-65.8,258.1z M-65.8,231.3c0,1.3-0.2,2.3-0.7,2.7c-0.5,0.5-1.5,0.7-3,0.7v-16
	c1.6,0,2.6,0.2,3.1,0.7c0.5,0.4,0.7,1.3,0.7,2.6v9.3H-65.8z M173.9,211.3h-11.3v58.3h21v-8.8h-9.7V211.3z M96.5,219.6h7.2v50h11.2
	v-50h7.2v-8.3H96.5L96.5,219.6z M141.6,210.1c-4.7,0-8.1,1.1-10.1,3.5c-2,2.3-3.1,6.2-3.1,11.6V256c0,5.5,1,9.3,3,11.6
	c2,2.3,5.4,3.4,10.1,3.4c4.7,0,8.1-1.1,10.1-3.4c2-2.3,3-6.2,3-11.6v-30.9c0-5.5-1-9.4-3.1-11.6
	C149.7,211.2,146.3,210.1,141.6,210.1z M143.6,259.3c0,1-0.1,1.7-0.4,2.2c-0.3,0.4-0.8,0.7-1.5,0.7s-1.1-0.2-1.4-0.6
	c-0.3-0.4-0.4-1.2-0.4-2.2v-38.2c0-1,0.1-1.7,0.4-2.1c0.3-0.4,0.8-0.7,1.4-0.7c0.7,0,1.2,0.2,1.5,0.6s0.4,1.1,0.4,2.2
	C143.6,221.2,143.6,259.3,143.6,259.3z M28.3,211.3H17v58.3h21v-8.8h-9.7V211.3z M77.3,210.1c-4.2,0-7.4,1-9.7,3.1
	c-2.3,2.1-3.5,5-3.5,8.7v6.1c0,2.1,0.2,3.7,0.7,4.9c0.4,1.2,1.2,2.4,2.2,3.7l10.2,11.9c0.7,0.8,1.2,1.6,1.5,2.4
	c0.3,0.7,0.4,1.5,0.4,2.3v6.2c0,1-0.1,1.8-0.4,2.2c-0.3,0.4-0.8,0.6-1.4,0.6c-0.7,0-1.2-0.2-1.5-0.7c-0.3-0.4-0.4-1.2-0.4-2.2v-11.8
	H64.2v10.9c0,4.1,1.1,7.2,3.3,9.3c2.2,2.1,5.5,3.2,9.8,3.2c4.2,0,7.5-1,9.7-3c2.3-2,3.4-4.9,3.4-8.6v-6.8c0-2.8-0.2-4.8-0.7-6
	c-0.4-1.3-1.2-2.5-2.2-3.6l-10.8-12.3c-0.5-0.6-0.8-1.2-1.1-1.9c-0.2-0.6-0.3-1.4-0.3-2.3v-5.2c0-1,0.1-1.7,0.4-2.2
	c0.3-0.4,0.8-0.6,1.5-0.6s1.2,0.2,1.5,0.6s0.4,1.1,0.4,2.2v10.4h11.2v-9.5c0-3.8-1.1-6.8-3.4-8.9C84.7,211.1,81.5,210.1,77.3,210.1
	L77.3,210.1z M45.4,211.3h11.3v58.3H45.4V211.3z"/>
<path class="st2" d="M-69.6,218.2h-0.5v17.1h0.5c1.7,0,2.8-0.3,3.4-0.8c0.6-0.6,0.9-1.6,0.9-3.1v-9.3c0-1.5-0.3-2.5-0.9-3
	C-66.7,218.5-67.9,218.2-69.6,218.2z M-66.3,231.3c0,1.5-0.3,2.1-0.6,2.3c-0.2,0.2-0.8,0.5-2.1,0.5v-14.8c1.4,0.1,1.9,0.3,2.2,0.5
	c0.2,0.2,0.5,0.8,0.5,2.3V231.3z M-32.4,222.3v-3.1h-1.5v0.5c-0.1,2.2-0.2,4-0.3,5.3c-0.1,1.4-0.1,2.2-0.2,2.6l-1.8,18.4h5.3
	l-1.3-18.3C-32.3,226.7-32.4,224.8-32.4,222.3z M-35.1,245l1.7-17.3v-0.4v0.4L-32,245C-32,245-35.1,245-35.1,245z M-68.9,242.1H-70
	v19.7h1.1c1.3,0,2.2-0.3,2.8-0.9s0.9-1.5,0.9-2.9v-12.1c0-1.3-0.3-2.3-0.9-2.9S-67.6,242.1-68.9,242.1z M-66.3,258.1
	c0,1-0.2,1.8-0.6,2.1c-0.4,0.4-1.1,0.6-2.1,0.6v-17.6h0.1c1,0,1.7,0.2,2.1,0.6c0.4,0.4,0.6,1.1,0.6,2.1v12.2H-66.3z M-67.7,210.8
	h-13.7v59.3h12.9c5.2,0,8.9-1,11.1-3s3.3-5.4,3.3-10.1v-9c0-3-0.8-5.4-2.3-7.1c-1.2-1.3-2.9-2.1-5-2.6c2.4-0.7,4.2-1.7,5.2-2.9
	c1.3-1.6,2-4,2-7.2v-6.9c0-3.5-1.2-6.2-3.4-7.9C-59.7,211.7-63.2,210.8-67.7,210.8z M-55.1,228.2c0,3-0.6,5.2-1.8,6.6
	s-3.4,2.4-6.5,3l-0.4,0.1v1.2h0.5c2.8,0.3,4.9,1.1,6.2,2.5c1.3,1.4,2,3.6,2,6.4v9c0,4.4-1,7.6-3,9.4c-2,1.8-5.5,2.7-10.4,2.7h-11.8
	v-57.2h12.6c4.3,0,7.5,0.8,9.5,2.4c2,1.6,3,3.9,3,7.1L-55.1,228.2L-55.1,228.2z M-39.7,210.8l-9.1,58.7l-0.1,0.6h11.4l1.4-15.5h4.6
	l1.1,15.5h12.7l-6.8-59.3C-24.5,210.8-39.7,210.8-39.7,210.8z M-29.3,269.1l-1.1-15.5H-37l-1.4,15.5h-9.2l8.9-57.2h13.5l6.5,57.2
	H-29.3z M96,220.1h7.2v50h12.2v-50h7.2v-9.3H96L96,220.1L96,220.1z M97,211.9h24.5v7.2h-7.2v50h-10.1v-50H97
	C97,219.1,97,211.9,97,211.9z M141.6,217.9c-1.1,0-1.6,0.5-1.9,0.9c-0.4,0.5-0.5,1.3-0.5,2.4v38.1c0,1.1,0.2,2,0.5,2.5
	c0.3,0.4,0.8,0.9,1.9,0.9c1.1,0,1.7-0.5,1.9-0.9c0.4-0.5,0.5-1.3,0.5-2.5v-38.1c0-1.2-0.2-2-0.5-2.5
	C143.3,218.3,142.8,217.9,141.6,217.9z M143.1,259.3c0,1.1-0.2,1.6-0.4,1.9c-0.1,0.1-0.3,0.4-1.1,0.4c-0.7,0-0.9-0.3-1-0.4
	c-0.2-0.2-0.4-0.8-0.4-1.9v-38.1c0-1.1,0.2-1.6,0.4-1.8c0.2-0.3,0.5-0.4,1-0.4s0.9,0.1,1.1,0.4c0.2,0.2,0.3,0.7,0.3,1.9L143.1,259.3
	L143.1,259.3z M174.4,210.8h-12.3v59.3h22v-9.8h-9.7V210.8z M183.1,261.3v7.8h-19.9v-57.2h10.2v49.4H183.1L183.1,261.3z
	 M141.6,209.5c-4.8,0-8.4,1.2-10.5,3.6s-3.2,6.4-3.2,11.9v30.8c0,5.6,1.1,9.6,3.2,12c2.1,2.4,5.7,3.6,10.5,3.6
	c4.9,0,8.4-1.2,10.5-3.6c2.1-2.4,3.2-6.4,3.2-12v-30.7c0-5.6-1.1-9.6-3.2-12C150,210.7,146.5,209.5,141.6,209.5z M154.3,255.9
	c0,5.3-1,9.1-2.9,11.3s-5.2,3.3-9.7,3.3s-7.8-1.1-9.7-3.3s-2.9-6-2.9-11.3v-30.8c0-5.3,1-9.1,2.9-11.3s5.2-3.3,9.7-3.3
	s7.8,1.1,9.7,3.2c1.9,2.2,2.9,6,2.9,11.3V255.9z M28.8,210.8H16.5v59.3h22v-9.8h-9.7V210.8z M37.5,261.3v7.8H17.6v-57.2h10.2v49.4
	H37.5z M77.3,209.5c-4.3,0-7.6,1.1-10,3.2c-2.4,2.1-3.6,5.2-3.6,9.1v6.1c0,2.1,0.2,3.8,0.7,5.1c0.5,1.3,1.2,2.5,2.3,3.8l8.7,10.2
	H63.7v11.4c0,4.2,1.2,7.5,3.5,9.7c2.3,2.2,5.7,3.3,10.1,3.3c4.3,0,7.7-1.1,10.1-3.1c2.4-2.1,3.6-5.1,3.6-9v-6.8
	c0-2.8-0.2-4.9-0.7-6.2s-1.2-2.6-2.3-3.8l-9.2-10.4h12.1v-10c0-4-1.2-7.1-3.6-9.3C85,210.6,81.6,209.5,77.3,209.5L77.3,209.5z
	 M89.9,231H79.7v-9.8c0-1.2-0.2-2-0.5-2.5c-0.4-0.5-1-0.8-1.9-0.8s-1.6,0.3-1.9,0.9c-0.4,0.5-0.5,1.3-0.5,2.5v5.2
	c0,1,0.1,1.8,0.4,2.5c0.2,0.7,0.6,1.4,1.2,2l10.8,12.3c1,1.1,1.7,2.2,2.1,3.4c0.4,1.2,0.6,3.2,0.6,5.9v6.8c0,3.6-1.1,6.3-3.2,8.2
	c-2.2,1.9-5.3,2.9-9.4,2.9c-4.2,0-7.3-1-9.4-3c-2.1-2-3.1-5-3.1-8.9v-10.5h10.2v11.2c0,1.1,0.2,1.9,0.5,2.5c0.3,0.4,0.8,0.9,2,0.9
	c1.1,0,1.6-0.5,1.9-0.9c0.4-0.5,0.5-1.3,0.5-2.5v-6.2c0-0.9-0.2-1.8-0.5-2.5c-0.3-0.8-0.8-1.6-1.6-2.5l-10.2-11.9
	c-1-1.2-1.7-2.3-2.2-3.5c-0.4-1.2-0.6-2.8-0.6-4.7v-6.1c0-3.5,1.1-6.3,3.3-8.3s5.4-2.9,9.4-2.9s7.2,1,9.3,3c2.1,1.9,3.2,4.8,3.2,8.5
	v8.8L89.9,231z M78.7,221.2v10.7l-1.5-1.7c-0.4-0.6-0.8-1.1-1-1.7s-0.3-1.3-0.3-2.1v-5.2c0-0.9,0.1-1.5,0.4-1.9
	c0.1-0.1,0.3-0.4,1.1-0.4c0.7,0,0.9,0.2,1,0.4S78.7,220,78.7,221.2z M75.9,259.3v-11.7l1,1.1c0.7,0.8,1.2,1.6,1.4,2.2
	c0.3,0.6,0.4,1.4,0.4,2.1v6.2c0,0.9-0.1,1.6-0.4,1.9c-0.1,0.1-0.3,0.4-1,0.4c-0.5,0-0.9-0.1-1.1-0.4
	C76.1,260.9,75.9,260.4,75.9,259.3L75.9,259.3z M0.4,210.8H-12v59.3h22v-9.8H0.3L0.4,210.8L0.4,210.8z M9,261.3v7.8h-19.9v-57.2
	h10.2v49.4C-0.7,261.3,9,261.3,9,261.3z M44.8,270.1h12.3v-59.3H44.8V270.1z M45.9,211.9h10.2v57.2H45.9V211.9z"/>
<path d="M42.2,284.8h1v6.9h-1V284.8z M32.6,288.1c-0.3-0.1-0.8-0.3-1.6-0.4c-0.8-0.2-1.3-0.3-1.5-0.5s-0.3-0.4-0.3-0.6
	c0-0.3,0.1-0.5,0.4-0.7c0.3-0.2,0.7-0.3,1.3-0.3s1,0.1,1.3,0.3c0.3,0.2,0.5,0.6,0.5,1l0.9-0.1c0-0.4-0.1-0.8-0.4-1.1
	c-0.2-0.3-0.5-0.6-1-0.7c-0.4-0.2-0.9-0.2-1.4-0.2s-0.9,0.1-1.3,0.2c-0.4,0.2-0.7,0.4-0.9,0.7c-0.2,0.3-0.3,0.6-0.3,1
	c0,0.3,0.1,0.6,0.3,0.9c0.2,0.3,0.4,0.5,0.8,0.6c0.3,0.1,0.7,0.3,1.4,0.4c0.7,0.2,1.1,0.3,1.3,0.3c0.3,0.1,0.5,0.2,0.7,0.4
	c0.1,0.2,0.2,0.4,0.2,0.6c0,0.2-0.1,0.4-0.2,0.6c-0.1,0.2-0.4,0.3-0.6,0.4c-0.3,0.1-0.6,0.2-1,0.2s-0.8-0.1-1.1-0.2
	s-0.6-0.3-0.7-0.5c-0.2-0.2-0.3-0.5-0.3-0.9l-0.9,0.1c0,0.5,0.1,0.9,0.4,1.2c0.3,0.4,0.6,0.6,1.1,0.8c0.4,0.2,1,0.3,1.7,0.3
	c0.5,0,1-0.1,1.4-0.3s0.7-0.4,1-0.8c0.2-0.3,0.3-0.7,0.3-1c0-0.4-0.1-0.7-0.3-1C33.3,288.5,33,288.3,32.6,288.1L32.6,288.1z
	 M36.2,288.6h4v-0.8h-4v-2.2h4.3v-0.8h-5.3v6.9h5.5v-0.8h-4.5V288.6z M44.3,285.6h2.4v6.1h1v-6.1h2.5v-0.8h-5.9V285.6z M74.4,284.8
	h-0.7l-3.4,4.5v0.8h3.2v1.7h0.9v-1.7h1v-0.8h-1V284.8z M73.5,289.3h-2.3l2.3-3.1V289.3z M69,285.7c-0.2-0.3-0.4-0.5-0.7-0.6
	c-0.3-0.2-0.6-0.2-1-0.2c-0.5,0-1,0.1-1.3,0.4c-0.4,0.3-0.6,0.7-0.8,1.2s-0.3,1.2-0.3,2c0,1.3,0.2,2.2,0.7,2.8
	c0.4,0.5,1,0.7,1.7,0.7c0.5,0,1-0.1,1.3-0.4c0.4-0.3,0.6-0.7,0.8-1.2s0.3-1.2,0.3-2c0-0.7-0.1-1.2-0.2-1.6
	C69.4,286.3,69.2,285.9,69,285.7L69,285.7z M68.3,290.6c-0.3,0.4-0.6,0.6-1,0.6s-0.8-0.2-1-0.6c-0.3-0.4-0.4-1.1-0.4-2.3
	c0-1.1,0.2-1.9,0.5-2.3c0.2-0.3,0.6-0.5,1-0.5s0.8,0.2,1.1,0.6c0.3,0.4,0.4,1.1,0.4,2.3C68.7,289.5,68.6,290.2,68.3,290.6z
	 M55.5,285.7c-0.4,0.3-0.8,0.6-1.3,0.8v0.8c0.3-0.1,0.6-0.2,1-0.4c0.4-0.2,0.6-0.4,0.9-0.6v5.4H57v-7h-0.6
	C56.1,285.1,55.8,285.4,55.5,285.7L55.5,285.7z M62.8,285.2c-0.4-0.2-0.8-0.4-1.3-0.4c-0.7,0-1.2,0.2-1.7,0.6
	c-0.4,0.4-0.7,1-0.7,1.7s0.2,1.2,0.6,1.6c0.4,0.4,0.9,0.6,1.5,0.6c0.4,0,0.7-0.1,1-0.3c0.3-0.2,0.6-0.4,0.7-0.7v0.2
	c0,0.4,0,0.7-0.1,1c-0.1,0.3-0.2,0.6-0.3,0.8s-0.3,0.4-0.5,0.5s-0.5,0.2-0.7,0.2c-0.3,0-0.6-0.1-0.8-0.3s-0.3-0.5-0.4-0.8l-0.9,0.1
	c0.1,0.5,0.3,1,0.7,1.3s0.8,0.5,1.4,0.5c0.5,0,1-0.1,1.4-0.4s0.7-0.7,0.9-1.2s0.3-1.2,0.3-2.1c0-0.9-0.1-1.5-0.3-1.9
	C63.5,285.7,63.2,285.4,62.8,285.2L62.8,285.2z M62.6,288.2c-0.3,0.3-0.6,0.4-1,0.4s-0.8-0.1-1-0.4s-0.4-0.6-0.4-1.1
	s0.2-0.9,0.4-1.2c0.3-0.3,0.6-0.5,1-0.5s0.7,0.1,1,0.4s0.4,0.7,0.4,1.2C63,287.6,62.9,288,62.6,288.2L62.6,288.2z"/>
<path class="st1" d="M187,211.3c0.2-0.2,0.2-0.4,0.2-0.7c0-0.4-0.2-0.7-0.5-0.9s-0.8-0.3-1.4-0.3h-1.7v4.2h1v-1.7h0.5l0.8,1.7h1.1
	l-0.9-1.9C186.6,211.6,186.8,211.5,187,211.3z M186,211.1c-0.1,0.1-0.4,0.1-0.7,0.1h-0.5V210h0.5c0.3,0,0.5,0,0.7,0.2
	c0.2,0.1,0.2,0.3,0.2,0.5C186.2,210.8,186.1,211,186,211.1z M188.1,208.9c-0.4-0.4-0.8-0.7-1.2-0.9c-0.5-0.2-1-0.3-1.5-0.3
	c-0.7,0-1.3,0.2-1.9,0.5s-1,0.8-1.4,1.4c-0.2,0.3-0.3,0.6-0.4,1c-0.1,0.3-0.1,0.7-0.1,1c0,0.5,0.1,1,0.3,1.4
	c0.2,0.5,0.5,0.9,0.8,1.2c0.4,0.4,0.8,0.7,1.2,0.9c0.5,0.2,1,0.3,1.5,0.3s1-0.1,1.4-0.3c0.5-0.2,0.9-0.5,1.2-0.8
	c0.4-0.4,0.6-0.8,0.8-1.2c0.2-0.5,0.3-1,0.3-1.5s-0.1-1-0.3-1.5C188.7,209.6,188.4,209.2,188.1,208.9L188.1,208.9z M188.3,212.8
	c-0.2,0.4-0.4,0.7-0.7,1c-0.3,0.3-0.7,0.5-1.1,0.7c-0.4,0.2-0.8,0.2-1.2,0.2c-0.4,0-0.8-0.1-1.2-0.2c-0.4-0.2-0.7-0.4-1-0.7
	s-0.5-0.6-0.7-1s-0.2-0.8-0.2-1.2c0-0.4,0.1-0.8,0.3-1.2c0.2-0.4,0.4-0.7,0.7-1.1c0.3-0.3,0.6-0.5,1-0.7c0.4-0.2,0.8-0.2,1.2-0.2
	c0.4,0,0.8,0.1,1.2,0.2c0.4,0.2,0.7,0.4,1,0.7s0.5,0.6,0.7,1s0.2,0.8,0.2,1.3C188.5,212,188.5,212.4,188.3,212.8L188.3,212.8z"/>
</svg>
