<?xml version="1.0" encoding="utf-8"?>
<!-- Generator: Adobe Illustrator 21.0.2, SVG Export Plug-In . SVG Version: 6.00 Build 0)  -->
<svg version="1.1" id="Calque_1" xmlns="http://www.w3.org/2000/svg" xmlns:xlink="http://www.w3.org/1999/xlink" x="0px" y="0px"
	 viewBox="0 0 318 210.7" style="enable-background:new 0 0 318 210.7;" xml:space="preserve">
<style type="text/css">
	.st0{fill:#E63623;}
	.st1{fill:#FFFFFF;}
	.st2{fill:#070707;}
</style>
<path class="st0" d="M9,11v188.7c97.2-43.4,208.2-39.8,300,0V11C211.9,50.9,112.1,53.5,9,11z M305.7,194.7
	c-92.9-38.9-200.7-39.9-293.5-0.1V15.8c98,39.2,195.7,39,293.5,0V194.7L305.7,194.7z"/>
<path class="st0" d="M14.6,19.2v172c91.6-38.3,197.2-37.3,288.9,0.1V19.2C207.1,56.8,110.9,56.9,14.6,19.2z"/>
<path class="st1" d="M296.1,63.6c-0.4-0.4-0.8-0.7-1.2-0.9c-0.5-0.2-1-0.3-1.5-0.3c-0.7,0-1.3,0.2-1.9,0.5c-0.6,0.3-1,0.8-1.4,1.4
	c-0.2,0.3-0.3,0.6-0.4,1c-0.1,0.3-0.1,0.7-0.1,1c0,0.5,0.1,1,0.3,1.4c0.2,0.5,0.5,0.9,0.8,1.2c0.4,0.4,0.8,0.7,1.2,0.9
	c0.5,0.2,1,0.3,1.5,0.3s1-0.1,1.4-0.3c0.5-0.2,0.9-0.5,1.2-0.8c0.4-0.4,0.6-0.8,0.8-1.2c0.2-0.5,0.3-1,0.3-1.5s-0.1-1-0.3-1.5
	C296.7,64.3,296.4,63.9,296.1,63.6z M296.3,67.5c-0.2,0.4-0.4,0.7-0.7,1c-0.3,0.3-0.7,0.5-1.1,0.7c-0.4,0.2-0.8,0.2-1.2,0.2
	c-0.4,0-0.8-0.1-1.2-0.2c-0.4-0.2-0.7-0.4-1-0.7c-0.3-0.3-0.5-0.6-0.7-1c-0.2-0.4-0.2-0.8-0.2-1.2c0-0.4,0.1-0.8,0.3-1.2
	c0.2-0.4,0.4-0.7,0.7-1.1c0.3-0.3,0.6-0.5,1-0.7c0.4-0.2,0.8-0.2,1.2-0.2c0.4,0,0.8,0.1,1.2,0.2c0.4,0.2,0.7,0.4,1,0.7
	c0.3,0.3,0.5,0.6,0.7,1c0.2,0.4,0.2,0.8,0.2,1.3C296.5,66.7,296.5,67.1,296.3,67.5z"/>
<path class="st1" d="M294.7,64.4c-0.3-0.2-0.8-0.3-1.4-0.3h-1.7v4.2h1v-1.7h0.5l0.8,1.7h1.1l-0.9-1.9c0.5-0.1,0.7-0.2,0.9-0.4
	s0.2-0.4,0.2-0.7C295.2,64.9,295,64.6,294.7,64.4z M294,65.8c-0.1,0.1-0.4,0.1-0.7,0.1h-0.5v-1.2h0.5c0.3,0,0.5,0,0.7,0.2
	c0.2,0.1,0.2,0.3,0.2,0.5C294.2,65.5,294.1,65.7,294,65.8z"/>
<rect x="150.2" y="139.5" width="1" height="6.9"/>
<path d="M140.6,142.8c-0.3-0.1-0.8-0.3-1.6-0.4c-0.8-0.2-1.3-0.3-1.5-0.5s-0.3-0.4-0.3-0.6c0-0.3,0.1-0.5,0.4-0.7
	c0.3-0.2,0.7-0.3,1.3-0.3c0.6,0,1,0.1,1.3,0.3c0.3,0.2,0.5,0.6,0.5,1l0.9-0.1c0-0.4-0.1-0.8-0.4-1.1c-0.2-0.3-0.5-0.6-1-0.7
	c-0.4-0.2-0.9-0.2-1.4-0.2s-0.9,0.1-1.3,0.2c-0.4,0.2-0.7,0.4-0.9,0.7c-0.2,0.3-0.3,0.6-0.3,1c0,0.3,0.1,0.6,0.3,0.9
	c0.2,0.3,0.4,0.5,0.8,0.6c0.3,0.1,0.7,0.3,1.4,0.4c0.7,0.2,1.1,0.3,1.3,0.3c0.3,0.1,0.5,0.2,0.7,0.4c0.1,0.2,0.2,0.4,0.2,0.6
	s-0.1,0.4-0.2,0.6c-0.1,0.2-0.4,0.3-0.6,0.4c-0.3,0.1-0.6,0.2-1,0.2c-0.4,0-0.8-0.1-1.1-0.2c-0.3-0.1-0.6-0.3-0.7-0.5
	c-0.2-0.2-0.3-0.5-0.3-0.9l-0.9,0.1c0,0.5,0.1,0.9,0.4,1.2c0.3,0.4,0.6,0.6,1.1,0.8c0.4,0.2,1,0.3,1.7,0.3c0.5,0,1-0.1,1.4-0.3
	c0.4-0.2,0.7-0.4,1-0.8c0.2-0.3,0.3-0.7,0.3-1c0-0.4-0.1-0.7-0.3-1C141.3,143.2,141,143,140.6,142.8z"/>
<polygon points="152.3,140.3 154.7,140.3 154.7,146.4 155.7,146.4 155.7,140.3 158.2,140.3 158.2,139.5 152.3,139.5 "/>
<polygon points="144.2,143.3 148.2,143.3 148.2,142.5 144.2,142.5 144.2,140.3 148.5,140.3 148.5,139.5 143.2,139.5 143.2,146.4 
	148.7,146.4 148.7,145.6 144.2,145.6 "/>
<path d="M163.5,140.4c-0.4,0.3-0.8,0.6-1.3,0.8v0.8c0.3-0.1,0.6-0.2,1-0.4c0.4-0.2,0.6-0.4,0.9-0.6v5.4h0.9v-7h-0.6
	C164.1,139.8,163.8,140.1,163.5,140.4z"/>
<path d="M182.4,139.5h-0.7l-3.4,4.5v0.8h3.2v1.7h0.9v-1.7h1V144h-1V139.5z M181.5,144h-2.3l2.3-3.1V144z"/>
<path d="M170.8,139.9c-0.4-0.2-0.8-0.4-1.3-0.4c-0.7,0-1.2,0.2-1.7,0.6c-0.4,0.4-0.7,1-0.7,1.7s0.2,1.2,0.6,1.6
	c0.4,0.4,0.9,0.6,1.5,0.6c0.4,0,0.7-0.1,1-0.3c0.3-0.2,0.6-0.4,0.7-0.7v0.2c0,0.4,0,0.7-0.1,1c-0.1,0.3-0.2,0.6-0.3,0.8
	c-0.1,0.2-0.3,0.4-0.5,0.5c-0.2,0.1-0.5,0.2-0.7,0.2c-0.3,0-0.6-0.1-0.8-0.3c-0.2-0.2-0.3-0.5-0.4-0.8l-0.9,0.1
	c0.1,0.5,0.3,1,0.7,1.3c0.4,0.3,0.8,0.5,1.4,0.5c0.5,0,1-0.1,1.4-0.4c0.4-0.3,0.7-0.7,0.9-1.2c0.2-0.5,0.3-1.2,0.3-2.1
	c0-0.9-0.1-1.5-0.3-1.9C171.5,140.4,171.2,140.1,170.8,139.9z M170.6,142.9c-0.3,0.3-0.6,0.4-1,0.4c-0.4,0-0.8-0.1-1-0.4
	c-0.2-0.3-0.4-0.6-0.4-1.1s0.2-0.9,0.4-1.2c0.3-0.3,0.6-0.5,1-0.5c0.4,0,0.7,0.1,1,0.4c0.3,0.3,0.4,0.7,0.4,1.2
	C171,142.3,170.9,142.7,170.6,142.9z"/>
<path d="M177,140.4c-0.2-0.3-0.4-0.5-0.7-0.6c-0.3-0.2-0.6-0.2-1-0.2c-0.5,0-1,0.1-1.3,0.4c-0.4,0.3-0.6,0.7-0.8,1.2s-0.3,1.2-0.3,2
	c0,1.3,0.2,2.2,0.7,2.8c0.4,0.5,1,0.7,1.7,0.7c0.5,0,1-0.1,1.3-0.4c0.4-0.3,0.6-0.7,0.8-1.2c0.2-0.5,0.3-1.2,0.3-2
	c0-0.7-0.1-1.2-0.2-1.6C177.4,141,177.2,140.6,177,140.4z M176.3,145.3c-0.3,0.4-0.6,0.6-1,0.6c-0.4,0-0.8-0.2-1-0.6
	c-0.3-0.4-0.4-1.1-0.4-2.3c0-1.1,0.2-1.9,0.5-2.3c0.2-0.3,0.6-0.5,1-0.5c0.4,0,0.8,0.2,1.1,0.6c0.3,0.4,0.4,1.1,0.4,2.3
	C176.7,144.2,176.6,144.9,176.3,145.3z"/>
<path class="st2" d="M292.1,118.3V115h-7.4V68.8h-2.3v-3.3h-12.3v59.3h3.3v2.3h21v-8.8H292.1z M291.1,116v2.3h-6.4V116H291.1z
	 M271.2,123.8V66.6h10.2v2.2h-8v55H271.2z"/>
<path class="st2" d="M56.3,85.7v-6.9c0-3.3-1.1-5.8-3.2-7.5c-0.1-0.1-0.2-0.1-0.3-0.2c-0.6-1.2-1.4-2.2-2.4-3
	c-2.1-1.7-5.6-2.6-10.1-2.6H26.6v59.3H30v2.3h12.4c5.1,0,8.6-1,10.7-2.9c2.1-1.9,3.1-5.2,3.1-9.7v-9c0-2.9-0.7-5.2-2.1-6.7
	c-0.3-0.3-0.7-0.6-1.1-0.9c-0.4-0.9-0.8-1.6-1.4-2.3c-0.2-0.3-0.5-0.5-0.8-0.7c1.6-0.6,2.8-1.3,3.6-2.3
	C55.7,91.1,56.3,88.8,56.3,85.7z M41.8,100.6v12.2h-0.1v0c0,0.8-0.1,1.5-0.4,1.9v-14.6h0.5C41.8,100.3,41.8,100.4,41.8,100.6z
	 M45,115.6c0,1.2-0.2,2-0.7,2.5s-1.3,0.7-2.4,0.7h-0.6V116c0.2-0.1,0.4-0.3,0.6-0.4c0.6-0.6,0.9-1.5,0.9-2.9v-12.1
	c0-0.2,0-0.3,0-0.4c0.7,0.1,1.2,0.3,1.5,0.6c0.5,0.5,0.7,1.3,0.7,2.5V115.6z M45,88.8c0,1.3-0.2,2.3-0.7,2.7c-0.5,0.5-1.5,0.7-3,0.7
	v-2.7c0.2-0.1,0.4-0.2,0.5-0.3c0.6-0.6,0.9-1.6,0.9-3.1v-9.3c0-0.2,0-0.3,0-0.5c0.8,0.1,1.4,0.3,1.7,0.6c0.5,0.4,0.7,1.3,0.7,2.6
	L45,88.8z M41.3,88.1V76.2c0.1,0,0.3,0,0.4,0c0,0.2,0,0.4,0,0.6V86C41.7,87.2,41.5,87.8,41.3,88.1z M50.9,96.3
	c0.2,0.2,0.4,0.5,0.6,0.7c-1.1-0.5-2.4-0.8-3.9-0.9v-0.3c0.7-0.2,1.4-0.3,2-0.5C50.1,95.6,50.5,95.9,50.9,96.3z M43.1,68.8H30v55
	h-2.3V66.6h12.6c4.3,0,7.5,0.8,9.5,2.4c0.4,0.3,0.8,0.7,1.1,1.1C48.8,69.2,46.3,68.8,43.1,68.8z"/>
<path class="st2" d="M165.1,68.8v-3.3h-12.3v59.3h3.3v2.3h11.3V68.8H165.1z M153.9,123.8V66.6h10.2v2.2h-8v55H153.9z"/>
<path class="st2" d="M146.5,118.3V115h-7.4V68.8h-2.3v-3.3h-12.3v59.3h3.3v2.3h21v-8.8H146.5z M145.5,116v2.3h-6.4V116H145.5z
	 M125.6,123.8V66.6h10.2v2.2h-8v55H125.6z"/>
<path class="st2" d="M230.6,68.8v-3.3H204v9.3h3.3v2.3h3.9v47.7h3.3v2.3h11.1v-50h7.2v-8.3H230.6z M205,73.8v-7.2h24.5v2.2h-22.2v5
	H205z M212.2,123.8V77.1h2.3v46.7H212.2z"/>
<path class="st2" d="M200.5,104c-0.4-1.3-1.2-2.5-2.2-3.6l-0.6-0.6c-0.4-0.9-1-1.7-1.7-2.6l-9.2-10.4h3.1V89h11.2v-9.5
	c0-3.8-1.1-6.8-3.4-8.9c0,0-0.1-0.1-0.2-0.1c-0.6-1.1-1.3-2.1-2.2-3c-2.3-2.2-5.7-3.3-10-3.3s-7.6,1.1-10,3.2
	c-2.4,2.1-3.6,5.2-3.6,9.1v6.1c0,2.1,0.2,3.8,0.7,5.1s1.2,2.5,2.3,3.8l8.7,10.2h-11.7v11.4c0,4.2,1.2,7.5,3.5,9.7
	c0.7,0.7,1.5,1.2,2.5,1.7c0.2,0.2,0.4,0.5,0.6,0.7c2.2,2.1,5.5,3.2,9.8,3.2c4.2,0,7.5-1,9.7-3c2.3-2,3.4-4.9,3.4-8.6V110
	C201.2,107.2,201,105.2,200.5,104z M186.5,86.4c0-0.1-0.1-0.2-0.1-0.3c-0.2-0.6-0.3-1.4-0.3-2.3v-5.2c0-1,0.1-1.7,0.4-2.2
	c0.1-0.1,0.1-0.1,0.2-0.2v10.4L186.5,86.4z M188,105.9c0.7,0.8,1.2,1.6,1.5,2.4c0.3,0.7,0.4,1.5,0.4,2.3v6.2c0,1-0.1,1.8-0.4,2.2
	s-0.8,0.6-1.4,0.6c-0.7,0-1.2-0.2-1.5-0.7c-0.2-0.3-0.3-0.9-0.4-1.6c0.7-0.1,1-0.5,1.3-0.8c0.4-0.5,0.5-1.3,0.5-2.5v-6.2
	c0-0.9-0.2-1.8-0.5-2.5L188,105.9z M186.2,105.4c0,0.1,0.1,0.2,0.1,0.2c0.3,0.6,0.4,1.4,0.4,2.1v6.2c0,0.9-0.1,1.6-0.4,1.9
	c0,0-0.1,0.1-0.1,0.1V105.4z M184.9,103.4c0.5,0.6,0.9,1.1,1.1,1.6h-2.1v-2.7L184.9,103.4z M187.7,85.7v-9.8c0,0,0,0,0-0.1
	c0.1,0,0.2,0,0.3,0c0.7,0,1.2,0.2,1.5,0.6c0.3,0.4,0.4,1.1,0.4,2.2v7.1H187.7z M173.5,87.4c-0.4-1.2-0.6-2.8-0.6-4.7v-6.1
	c0-3.5,1.1-6.3,3.3-8.3s5.4-2.9,9.4-2.9s7.2,1,9.3,3c0.3,0.2,0.5,0.5,0.7,0.8c-2-1.1-4.5-1.7-7.5-1.7c-4.1,0-7.4,1-9.7,3.1
	c-2.3,2.1-3.5,4.9-3.5,8.7v6.1c0,2.1,0.2,3.7,0.7,4.9c0.1,0.3,0.2,0.6,0.4,0.9l-0.3-0.3C174.7,89.7,174,88.6,173.5,87.4z M176,122.2
	c-2.1-2-3.1-5-3.1-8.9v-10.5h10.2v2.2H175v10.9c0,2.6,0.4,4.8,1.3,6.6C176.2,122.4,176.1,122.3,176,122.2z"/>
<path class="st2" d="M92.6,127.1L86,68.8h-2.1l-0.4-3.3H68.3l-9.1,58.7l-0.1,0.6h3.8l-0.4,2.3h10.3l1.4-15.5h2.5l0.9,13.2h3.1
	l0.2,2.3H92.6z M60.4,123.8l8.9-57.2h13.5l0.2,2.2H71.5l-8.5,55H60.4z M76,99.7h-0.6l0.3-3.1L76,99.7z M75.1,103l0.2-2.3h1.8
	l-0.7-10.3l0.5-5.3c0.1-0.4,0.1-1.3,0.2-2.6c0.1-1.3,0.2-3.1,0.3-5.4h0.4v2.6c0.1,2.6,0.1,4.4,0.2,5.4l1.3,17.9H75.1z M78.7,123.8
	l-0.9-12.2h2l0.9,12.2H78.7z"/>
<path class="st2" d="M118,118.3V115h-7.4V68.8h-2.2l0-3.3H96v59.3h3.3v2.3h21v-8.8H118z M117,116v2.3h-6.4V116H117z M97.1,123.8
	V66.6h10.2v2.2h-8v55H97.1z"/>
<path class="st2" d="M262.3,71c-0.2-0.2-0.4-0.5-0.6-0.7c-0.4-1-1-1.8-1.6-2.5c-2.1-2.4-5.6-3.6-10.5-3.6c-4.8,0-8.4,1.2-10.5,3.6
	c-2.1,2.4-3.2,6.4-3.2,11.9v30.8c0,5.6,1.1,9.6,3.2,12c0.7,0.8,1.7,1.5,2.8,2.1c0.1,0.1,0.2,0.3,0.3,0.4c2,2.3,5.4,3.4,10.1,3.4
	s8.1-1.1,10.1-3.4s3-6.2,3-11.6V82.6C265.4,77.1,264.4,73.2,262.3,71z M254.4,116.7c0,1-0.1,1.7-0.4,2.2c-0.3,0.4-0.8,0.7-1.5,0.7
	s-1.1-0.2-1.4-0.6c-0.3-0.3-0.4-1-0.4-1.8c0.4-0.2,0.7-0.4,0.8-0.7c0.4-0.5,0.5-1.3,0.5-2.5V76c0.2,0,0.3-0.1,0.5-0.1
	c0.7,0,1.2,0.2,1.5,0.6s0.4,1.1,0.4,2.2V116.7z M251.1,114c0,1.1-0.2,1.6-0.4,1.9V78.7c0-0.9,0.1-1.5,0.3-1.9L251.1,114z M240,121.9
	c-1.9-2.2-2.9-6-2.9-11.3V79.8c0-5.3,1-9.1,2.9-11.3c1.9-2.2,5.2-3.3,9.7-3.3s7.8,1.1,9.7,3.2c0.2,0.2,0.3,0.4,0.5,0.6
	c-1.9-1-4.4-1.5-7.5-1.5c-4.7,0-8.1,1.1-10.1,3.5c-2,2.3-3.1,6.2-3.1,11.6v30.8c0,3.9,0.5,7,1.5,9.2
	C240.5,122.4,240.2,122.2,240,121.9z"/>
<g>
	<path class="st1" d="M68.8,66l-9,58.3H70l1.4-15.5H77l1.1,15.5h11.7L83.2,66H68.8z M72.4,100.2L72.4,100.2L72.4,100.2l1.8-17.9
		c0.1-0.4,0.1-1.3,0.2-2.6c0.1-1.3,0.2-3.1,0.3-5.4H75v2.6c0.1,2.6,0.1,4.4,0.2,5.4l1.3,17.8L72.4,100.2L72.4,100.2z"/>
	<path class="st1" d="M50.3,68.5c-2.3-1.6-5.6-2.5-10-2.5H27.2v58.3h12.4c5.1,0,8.6-1,10.7-2.9c2.1-1.9,3.1-5.2,3.1-9.7v-9
		c0-2.9-0.7-5.2-2.1-6.7c-1.4-1.5-3.6-2.4-6.5-2.7V93c3.2-0.7,5.5-1.7,6.8-3.2c1.3-1.5,1.9-3.8,1.9-6.9V76
		C53.5,72.7,52.4,70.2,50.3,68.5z M42.2,112.8c0,1.2-0.2,2-0.7,2.5s-1.3,0.7-2.4,0.7h-0.6V97.4h0.6c1.1,0,2,0.2,2.4,0.7
		c0.5,0.5,0.7,1.3,0.7,2.5C42.2,100.6,42.2,112.8,42.2,112.8z M42.3,86L42.3,86c-0.1,1.3-0.3,2.3-0.8,2.7c-0.5,0.5-1.5,0.7-3,0.7
		v-16c1.6,0,2.6,0.2,3.1,0.7c0.5,0.4,0.7,1.3,0.7,2.6V86z"/>
	<polygon class="st1" points="72.4,100.2 72.4,100.1 72.4,100.1 	"/>
	<polygon class="st1" points="204.5,74.3 211.7,74.3 211.7,124.3 222.9,124.3 222.9,74.3 230.1,74.3 230.1,66 204.5,66 	"/>
	<path class="st1" d="M249.6,64.8c-4.7,0-8.1,1.1-10.1,3.5c-2,2.3-3.1,6.2-3.1,11.6v30.8c0,5.5,1,9.3,3,11.6s5.4,3.4,10.1,3.4
		s8.1-1.1,10.1-3.4s3-6.2,3-11.6V79.8c0-5.5-1-9.4-3.1-11.6C257.7,65.9,254.3,64.8,249.6,64.8z M251.6,114c0,1-0.1,1.7-0.4,2.2
		c-0.3,0.4-0.8,0.7-1.5,0.7s-1.1-0.2-1.4-0.6c-0.3-0.4-0.4-1.2-0.4-2.2V75.9c0-1,0.1-1.7,0.4-2.1c0.3-0.4,0.8-0.7,1.4-0.7
		c0.7,0,1.2,0.2,1.5,0.6s0.4,1.1,0.4,2.2V114z"/>
	<polygon class="st1" points="107.8,66 96.6,66 96.6,124.3 117.5,124.3 117.5,115.5 107.8,115.5 	"/>
	<path class="st1" d="M195.5,97.6l-10.8-12.3c-0.5-0.6-0.8-1.2-1.1-1.9c-0.2-0.6-0.3-1.4-0.3-2.3v-5.2c0-1,0.1-1.7,0.4-2.2
		c0.3-0.4,0.8-0.6,1.5-0.6s1.2,0.2,1.5,0.6c0.3,0.4,0.4,1.1,0.4,2.2v10.4h11.2v-9.5c0-3.8-1.1-6.8-3.4-8.9c-2.2-2.1-5.4-3.1-9.6-3.1
		c-4.2,0-7.4,1-9.7,3.1c-2.3,2.1-3.5,5-3.5,8.7v6.1c0,2.1,0.2,3.7,0.7,4.9c0.4,1.2,1.2,2.4,2.2,3.7l10.2,11.9
		c0.7,0.8,1.2,1.6,1.5,2.4c0.3,0.7,0.4,1.5,0.4,2.3v6.2c0,1-0.1,1.8-0.4,2.2s-0.8,0.6-1.4,0.6c-0.7,0-1.2-0.2-1.5-0.7
		c-0.3-0.4-0.4-1.2-0.4-2.2v-11.8h-11.2v10.9c0,4.1,1.1,7.2,3.3,9.3c2.2,2.1,5.5,3.2,9.8,3.2c4.2,0,7.5-1,9.7-3
		c2.3-2,3.4-4.9,3.4-8.6v-6.8c0-2.8-0.2-4.8-0.7-6C197.3,99.9,196.5,98.7,195.5,97.6z"/>
	<polygon class="st1" points="281.9,66 270.6,66 270.6,124.3 291.6,124.3 291.6,115.5 281.9,115.5 	"/>
	<polygon class="st1" points="136.3,66 125,66 125,124.3 146,124.3 146,115.5 136.3,115.5 	"/>
	<rect x="153.4" y="66" class="st1" width="11.3" height="58.3"/>
</g>
</svg>
