<?xml version="1.0" encoding="utf-8"?>
<!-- Generator: Adobe Illustrator 19.1.0, SVG Export Plug-In . SVG Version: 6.00 Build 0)  -->
<svg version="1.1" id="Calque_2" xmlns="http://www.w3.org/2000/svg" xmlns:xlink="http://www.w3.org/1999/xlink" x="0px" y="0px"
	 viewBox="0 0 500 500" style="enable-background:new 0 0 500 500;" xml:space="preserve">
<style type="text/css">
	.st0{fill:#71787D;}
	.st1{fill:#FFFFFF;}
	.st2{fill:#FAE60F;}
</style>
<g>
	<path class="st0" d="M141.2,216.5c-4.6-6.8-8.5-13.9-10.6-21.5h0c-2.1,7.6-6,14.7-10.6,21.5H25V305h450v-88.5L141.2,216.5
		L141.2,216.5z"/>
	<path class="st1" d="M30.1,222h37.5c12.4,0.1,12.4,0.1,14.7,0.2c8.5,0.6,11.4,3.9,11.4,13.3c0,7.5-1.7,10.6-7,12.1
		c6.9,1.2,9,4.2,9,12.6c0,7.4-2,11.3-6.6,12.8c-3,1-3.8,1.1-21.4,1.2H30.1V222z M67.6,242.6c5.6,0,7.9-0.2,8.9-0.6
		c1.2-0.5,1.7-1.8,1.7-3.7c0-2.2-0.7-3.4-2.3-3.8c-0.9-0.2-1.1-0.2-8.3-0.2H45.2v8.3H67.6z M67.7,261.7c9.5-0.1,9.5-0.1,10.6-0.6
		c1.3-0.5,1.9-1.7,1.9-3.9c0-2.4-0.7-3.5-2.5-3.9c-0.8-0.2-0.8-0.2-10-0.2H45.2v8.7H67.7z"/>
	<polygon class="st1" points="193.3,222 220.6,260.9 222.3,260.9 221.9,222 238.1,222 238.1,274.2 210.5,274.2 183,235.3 
		181.3,235.3 181.6,274.2 165.4,274.2 165.4,222 	"/>
	<rect x="245.7" y="222" class="st1" width="16.7" height="52.2"/>
	<path class="st1" d="M270.1,222h37.7c13.3,0,15.1,0.1,19.6,1c5.2,1,8.6,4,10.2,8.9c1.2,3.7,1.5,7,1.5,15.4c0,13.7-1.2,19-5,22.6
		c-4,3.6-8.6,4.4-26.2,4.4h-37.7L270.1,222L270.1,222z M307.9,260.9c14.4,0,15.4-0.8,15.4-12.5c0-6.5-0.5-9.4-2.1-11.1
		c-1.6-1.9-3.8-2.2-13.5-2.2h-22v25.8H307.9z"/>
	<polygon class="st1" points="403.4,222 403.4,234.3 361.3,234.3 361.3,241.9 401.3,241.9 401.3,253.4 361.3,253.4 361.3,261.7 
		403.7,261.7 403.7,274.2 345.6,274.2 345.6,222 	"/>
	<path class="st1" d="M422.6,256.9c0,3.1,0.3,4.2,1.6,4.9c1.5,0.9,3.2,1.1,14.4,1.1c17.1,0,17.1,0,17.1-4.7c0-3.1-1.2-3.8-6.3-3.9
		L441,254l-4.2-0.2c-3.8-0.2-7.9-0.3-12.7-0.5c-12.9-0.4-16.5-3.7-16.5-15.2c0-9.9,2.8-14.4,10-16c3.1-0.6,10.2-0.9,23-0.9
		c14.9,0,20.4,0.7,24.1,3.2c3.1,2,4.4,5.4,4.4,11.4c0,0.5,0,1.6-0.1,2.7h-15.4c-0.2-2.9-0.4-3.6-1.6-4.3c-1.3-0.8-3.3-0.9-15-0.9
		c-12.9,0-14.1,0.3-14.1,4.1c0,2,0.7,3,2.4,3.4c1.4,0.4,5.7,0.6,16.8,0.9c17.2,0.5,20.6,0.9,24,3.1c3.5,2.3,4.9,5.9,4.9,12.8
		c0,9.5-2.1,13.9-7.6,15.9c-3.1,1.2-9.7,1.6-25.3,1.6c-16.2,0-22.6-0.8-26.2-3.1c-3.6-2.3-4.8-5.3-4.8-12.3v-2.7L422.6,256.9
		L422.6,256.9z"/>
	<path class="st1" d="M159.4,254.5c-5.5-16.5-23.8-30.4-28.8-48.5h0c-5,18.1-23.3,32-28.8,48.5c-4.3,13,3.7,19.7,3.7,19.7h17
		c-0.6-1.5-2-6.2-0.9-14.1c1.7-12.2,7.4-22.5,9-35.9h0c1.6,13.4,7.3,23.7,9,35.9c1.1,7.8-0.3,12.6-0.9,14.1h17
		C155.7,274.2,163.8,267.5,159.4,254.5"/>
	<path class="st2" d="M137.3,260.4c0,3.7-3,6.7-6.7,6.7c-3.7,0-6.7-3-6.7-6.7c0-3.7,3-6.7,6.7-6.7
		C134.3,253.7,137.3,256.7,137.3,260.4"/>
	<path class="st2" d="M310.2,296c-1,1.6-3.3,1.6-5.5,1.6c-4.3,0-6.9-0.3-6.9-4.6c0-2.2,0.4-3.8,3.2-4c-1.1-0.8-1.4-1.3-1.4-2.6
		c0-3.3,1.9-3.7,5.4-3.7c4.2,0,5.1,0.7,5.1,4.6h-2.7c0-2-0.1-2.3-2.4-2.3c-1.5,0-2.4,0-2.4,1.4c0,0.9,0.3,1.2,1,1.7l5.3,4.1v-2h2.7
		v1c0,0.9,0,1.9-0.3,2.8l2.4,1.8l-1.5,1.6L310.2,296z M302.7,290.4c-1.8,0.3-1.8,1-1.8,2.7c0,2.3,1.1,2.3,3.9,2.3
		c1.6,0,2.7,0,3.4-0.9L302.7,290.4z"/>
	<path class="st2" d="M323,282.8h7.9c4.6,0,6.5,1.5,6.5,5.5v3.5c0,3.1-1,5.8-6,5.8H323V282.8z M331.5,295.1c2.2,0,2.8-1.7,2.8-3.3
		v-3.5c0-2.4-0.9-3.1-3.4-3.1h-4.8v9.9L331.5,295.1L331.5,295.1z"/>
	<polygon class="st2" points="342.8,288.9 350.6,288.9 350.6,291.2 342.8,291.2 342.8,295.1 351.1,295.1 351.1,297.5 339.6,297.5 
		339.6,282.8 351.1,282.8 351.1,285.2 342.8,285.2 	"/>
	<path class="st2" d="M353.6,297.5v-14.7h8.3c3.3,0,4.9,0.6,4.9,3.8c0,1.7-0.4,2.8-2.4,3.2v0.1c2.3,0.2,2.8,1.6,2.8,3.4
		c0,3.3-1.5,4.1-5,4.1L353.6,297.5L353.6,297.5z M356.8,289h4.6c1.8,0,2.2-0.5,2.2-2.1c0-1.6-0.7-1.7-2.3-1.7h-4.5V289z
		 M356.8,295.1h4.4c1.9,0,2.8-0.1,2.8-1.9c0-1.6-0.4-2.1-2.3-2.1h-4.9V295.1z"/>
	<polygon class="st2" points="372.5,288.9 380.3,288.9 380.3,291.2 372.5,291.2 372.5,295.1 380.8,295.1 380.8,297.5 369.3,297.5 
		369.3,282.8 380.7,282.8 380.7,285.2 372.5,285.2 	"/>
	<path class="st2" d="M386.1,294.7l-1,2.8h-3.3l5.5-14.7h4.7l5.6,14.7h-3.2l-1.1-2.8H386.1z M389.7,285L389.7,285l-2.9,7.6h5.8
		L389.7,285z"/>
	<path class="st2" d="M412.8,282.8v10.4c0,4.1-2.9,4.4-7,4.4c-3.9,0-6.9-0.3-6.9-4.4v-10.4h3.2v10.4c0,1.5,0.6,2,3.7,2
		c3,0,3.8-0.4,3.8-2v-10.4H412.8z"/>
	<path class="st2" d="M418.8,292.6v4.9h-3.2v-14.7h8.5c3.6,0.1,5,1.1,5,4.4c0,2.2-0.1,3.8-3,4.1v0.1c2.3,0.2,2.8,1.3,2.8,3.3v2.7
		h-3.2v-2.7c0-1.2-0.6-2.1-2.1-2.1L418.8,292.6L418.8,292.6z M423.1,290.2c2.4,0,2.9-0.4,2.9-2.6c0-2.1-0.4-2.4-2.7-2.4h-4.4v5
		L423.1,290.2L423.1,290.2z"/>
	<path class="st2" d="M434.6,294.7l-1,2.8h-3.3l5.5-14.7h4.7l5.6,14.7h-3.2l-1.1-2.8H434.6z M438.2,285L438.2,285l-2.9,7.6h5.8
		L438.2,285z"/>
	<rect x="447.5" y="282.8" class="st2" width="3.2" height="14.7"/>
	<polygon class="st2" points="465.9,282.8 469.1,282.8 469.1,297.5 463.8,297.5 456.7,285.2 456.6,285.2 456.9,297.5 453.7,297.5 
		453.7,282.8 458.9,282.8 466.1,295.1 466.2,295.1 	"/>
	<rect x="25" y="294.3" class="st2" width="263.3" height="3.1"/>
</g>
</svg>
