<?xml version="1.0" encoding="utf-8"?>
<!-- Generator: Adobe Illustrator 21.0.2, SVG Export Plug-In . SVG Version: 6.00 Build 0)  -->
<svg version="1.1" id="Calque_2" xmlns="http://www.w3.org/2000/svg" xmlns:xlink="http://www.w3.org/1999/xlink" x="0px" y="0px"
	 viewBox="0 0 500 118" style="enable-background:new 0 0 500 118;" xml:space="preserve">
<style type="text/css">
	.st0{fill:#E33C4F;}
	.st1{fill:#87888A;}
	.st2{fill:#FFFFFF;}
</style>
<path class="st0" d="M25,34.7h348.8c0,0,42.4-0.6,76.4-24v68.2c0,0-31.8,24.2-76.4,24.2S25,103,25,103V34.7L25,34.7z"/>
<path class="st1" d="M454.8,34.6v47.8c0,0-18.2,13-50.8,20.9h71V34.6L454.8,34.6L454.8,34.6z"/>
<path class="st2" d="M41.4,89.1V50.5h29.5c11.6,0,17.5,1.5,17.5,10c0,4.4-1.3,7.4-8.5,8.5v0.2c8.3,0.6,9.9,4.2,9.9,9.1
	c0,8.5-5.4,10.8-17.9,10.8H41.4L41.4,89.1z M52.8,66.7h16.4c6.4,0,7.8-1.3,7.8-5.4s-2.5-4.4-8.2-4.4h-16V66.7z M52.8,82.8h15.6
	c6.8,0,10.1-0.3,10.1-5c0-4.2-1.4-5.5-8.2-5.5H52.8V82.8z"/>
<path class="st2" d="M108.4,81.8l-3.7,7.3H92.9l19.7-38.6h16.8l20.1,38.6h-11.6l-3.9-7.3H108.4z M121.3,56.2h-0.2l-10.1,20h20.5
	L121.3,56.2z"/>
<path class="st2" d="M165.5,76.3v12.8h-11.4V50.5h30.3c13,0.2,18,2.8,18,11.6c0,5.7-0.5,9.9-10.5,10.9v0.2
	c8.1,0.5,10.1,3.3,10.1,8.7v7.2h-11.4v-7.2c0-3.2-2.1-5.5-7.5-5.6H165.5L165.5,76.3z M180.6,70c8.4,0,10.5-1.1,10.5-6.7
	c0-5.5-1.5-6.4-9.7-6.4h-15.8V70H180.6z"/>
<path class="st2" d="M255.4,50.5h11.4v38.6h-18.9l-25.3-32.3h-0.4l0.9,32.3h-11.4V50.5h18.8l25.4,32.3h0.3L255.4,50.5z"/>
<path class="st2" d="M288.7,89.1h-11.4V50.5h11.4V89.1z"/>
<path class="st2" d="M309.9,66.5h27.8v6.1h-27.8v10.2h29.5v6.3h-40.9V50.5h40.7v6.3h-29.3L309.9,66.5L309.9,66.5z"/>
<path class="st2" d="M359.3,76.3v12.8h-11.4V50.5h30.3c13,0.2,18,2.8,18,11.6c0,5.7-0.5,9.9-10.5,10.9v0.2
	c8.1,0.5,10.1,3.3,10.1,8.7v7.2h-11.4v-7.2c0-3.2-2.1-5.5-7.5-5.6H359.3L359.3,76.3z M374.4,70c8.4,0,10.5-1.1,10.5-6.7
	c0-5.5-1.5-6.4-9.7-6.4h-15.8V70H374.4z"/>
<path class="st2" d="M415.5,49.1c-0.9-0.9-1.9-1.6-3-2.1c-1.1-0.5-2.3-0.7-3.6-0.7c-1.7,0-3.2,0.3-4.6,1.1c-1.4,0.8-2.5,1.9-3.3,3.3
	c-0.4,0.7-0.8,1.5-1,2.3s-0.3,1.7-0.3,2.5c0,1.2,0.2,2.4,0.7,3.5c0.5,1.1,1.1,2.1,2,3c0.9,0.9,1.9,1.6,3,2.1
	c1.1,0.5,2.3,0.7,3.5,0.7s2.4-0.2,3.5-0.7c1.1-0.5,2.1-1.1,3-2c0.9-0.9,1.5-1.9,2-3c0.5-1.2,0.7-2.3,0.7-3.6c0-1.2-0.3-2.4-0.7-3.5
	C417,50.9,416.4,50,415.5,49.1z M416.1,58.3c-0.4,0.9-1,1.7-1.7,2.4c-0.8,0.8-1.7,1.3-2.6,1.7c-0.9,0.4-1.9,0.6-2.9,0.6
	s-2-0.2-2.9-0.6c-0.9-0.4-1.8-1-2.5-1.7c-0.7-0.7-1.2-1.5-1.6-2.4c-0.4-0.9-0.6-1.9-0.6-2.9s0.2-2,0.6-2.9c0.4-0.9,1-1.8,1.7-2.5
	c0.7-0.7,1.5-1.2,2.4-1.6c0.9-0.4,1.9-0.6,2.9-0.6s2,0.2,3.1,0.4c0.9,0.4,1.8,0.9,2.5,1.7c0.7,0.8,1.2,1.6,1.6,2.5
	c0.4,0.9,0.6,1.9,0.6,3C416.7,56.4,416.5,57.4,416.1,58.3z"/>
<path class="st2" d="M412.9,54.8c0.4-0.4,0.6-1,0.6-1.7c0-1-0.4-1.7-1.1-2.2c-0.7-0.5-1.8-0.7-3.3-0.7h-4l0,10.2h2.5v-4.2h1.2l2,4.2
	h2.8l-2.3-4.6C412,55.6,412.5,55.3,412.9,54.8z M410.3,54.5c-0.3,0.2-0.9,0.3-1.6,0.3h-1.2v-3h1.1c0.8,0,1.3,0.2,1.7,0.4
	c0.3,0.3,0.5,0.7,0.5,1.2S410.6,54.3,410.3,54.5z"/>
</svg>
