<?xml version="1.0" encoding="utf-8"?>
<!-- Generator: Adobe Illustrator 19.1.0, SVG Export Plug-In . SVG Version: 6.00 Build 0)  -->
<svg version="1.1" id="Calque_2" xmlns="http://www.w3.org/2000/svg" xmlns:xlink="http://www.w3.org/1999/xlink" x="0px" y="0px"
	 viewBox="0 0 500 500" style="enable-background:new 0 0 500 500;" xml:space="preserve">
<style type="text/css">
	.st0{fill:#E33C4F;}
	.st1{fill:#87888A;}
	.st2{fill:#FFFFFF;}
</style>
<g>
	<path class="st0" d="M25,227.7h348.8c0,0,42.4-0.6,76.4-24v68.2c0,0-31.8,24.2-76.4,24.2S25,296,25,296L25,227.7L25,227.7z"/>
	<path class="st1" d="M454.8,227.6v47.8c0,0-18.2,13-50.8,20.9h71v-68.7L454.8,227.6L454.8,227.6z"/>
	<g>
		<path class="st2" d="M41.4,282.1v-38.6h29.5c11.6,0,17.5,1.5,17.5,10c0,4.4-1.3,7.4-8.5,8.5v0.2c8.3,0.6,9.9,4.2,9.9,9.1
			c0,8.5-5.4,10.8-17.9,10.8L41.4,282.1L41.4,282.1z M52.8,259.7h16.4c6.4,0,7.8-1.3,7.8-5.4c0-4.1-2.5-4.4-8.2-4.4H52.8V259.7z
			 M52.8,275.8h15.6c6.8,0,10.1-0.3,10.1-5c0-4.2-1.4-5.5-8.2-5.5H52.8V275.8z"/>
		<path class="st2" d="M108.4,274.8l-3.7,7.3H92.9l19.7-38.6h16.8l20.1,38.6h-11.6l-3.9-7.3H108.4z M121.3,249.2h-0.2l-10.1,20h20.5
			L121.3,249.2z"/>
		<path class="st2" d="M165.5,269.3v12.8h-11.4v-38.6h30.3c13,0.2,18,2.8,18,11.6c0,5.7-0.5,9.9-10.5,10.9v0.2
			c8.1,0.5,10.1,3.3,10.1,8.7v7.2h-11.4v-7.2c0-3.2-2.1-5.5-7.5-5.6L165.5,269.3L165.5,269.3z M180.6,263c8.4,0,10.5-1.1,10.5-6.7
			c0-5.5-1.5-6.4-9.7-6.4h-15.8V263H180.6z"/>
		<path class="st2" d="M255.4,243.5h11.4v38.6h-18.9l-25.3-32.3h-0.4l0.9,32.3h-11.4v-38.6h18.8l25.4,32.3h0.3L255.4,243.5z"/>
		<path class="st2" d="M288.7,282.1h-11.4v-38.6h11.4V282.1z"/>
		<path class="st2" d="M309.9,259.5h27.8v6.1h-27.8v10.2h29.5v6.3h-40.9v-38.6h40.7v6.3h-29.3L309.9,259.5L309.9,259.5z"/>
		<path class="st2" d="M359.3,269.3v12.8h-11.4v-38.6h30.3c13,0.2,18,2.8,18,11.6c0,5.7-0.5,9.9-10.5,10.9v0.2
			c8.1,0.5,10.1,3.3,10.1,8.7v7.2h-11.4v-7.2c0-3.2-2.1-5.5-7.5-5.6L359.3,269.3L359.3,269.3z M374.4,263c8.4,0,10.5-1.1,10.5-6.7
			c0-5.5-1.5-6.4-9.7-6.4h-15.8V263H374.4z"/>
	</g>
	<g>
		<path class="st2" d="M408.9,239.3c1.3,0,2.5,0.2,3.6,0.7c1.1,0.5,2.1,1.2,3,2.1c0.9,0.9,1.5,1.8,1.9,2.9c0.4,1.1,0.7,2.3,0.7,3.5
			c0,1.3-0.2,2.4-0.7,3.6c-0.5,1.1-1.1,2.1-2,3c-0.9,0.9-1.9,1.5-3,2c-1.1,0.5-2.3,0.7-3.5,0.7c-1.2,0-2.4-0.2-3.5-0.7
			c-1.1-0.5-2.1-1.2-3-2.1c-0.9-0.9-1.5-1.9-2-3c-0.5-1.1-0.7-2.3-0.7-3.5c0-0.8,0.1-1.7,0.3-2.5c0.2-0.8,0.6-1.6,1-2.3
			c0.8-1.4,1.9-2.5,3.3-3.3S407.2,239.3,408.9,239.3z M408.9,240.8c-1,0-2,0.2-2.9,0.6c-0.9,0.4-1.7,0.9-2.4,1.6
			c-0.7,0.7-1.3,1.6-1.7,2.5c-0.4,0.9-0.6,1.9-0.6,2.9c0,1,0.2,2,0.6,2.9c0.4,0.9,0.9,1.7,1.6,2.4c0.7,0.7,1.6,1.3,2.5,1.7
			c0.9,0.4,1.9,0.6,2.9,0.6c1,0,2-0.2,2.9-0.6c0.9-0.4,1.8-0.9,2.6-1.7c0.7-0.7,1.3-1.5,1.7-2.4c0.4-0.9,0.6-1.9,0.6-2.9
			c0-1.1-0.2-2.1-0.6-3c-0.4-0.9-0.9-1.7-1.6-2.5c-0.7-0.8-1.6-1.3-2.5-1.7C410.9,241,409.9,240.8,408.9,240.8z M405.1,243.2h4
			c1.5,0,2.6,0.2,3.3,0.7s1.1,1.2,1.1,2.2c0,0.7-0.2,1.3-0.6,1.7c-0.4,0.5-0.9,0.8-1.6,1l2.3,4.6h-2.8l-2-4.2h-1.2v4.2h-2.5
			L405.1,243.2L405.1,243.2z M407.5,244.8v3h1.2c0.7,0,1.3-0.1,1.6-0.3c0.3-0.2,0.5-0.6,0.5-1.1c0-0.5-0.2-0.9-0.5-1.2
			c-0.4-0.2-0.9-0.4-1.7-0.4H407.5z"/>
	</g>
</g>
</svg>
