<?xml version="1.0" encoding="utf-8"?>
<!-- Generator: Adobe Illustrator 15.0.0, SVG Export Plug-In . SVG Version: 6.00 Build 0)  -->
<!DOCTYPE svg PUBLIC "-//W3C//DTD SVG 1.1//EN" "http://www.w3.org/Graphics/SVG/1.1/DTD/svg11.dtd">
<svg version="1.1" id="Calque_1" xmlns="http://www.w3.org/2000/svg" xmlns:xlink="http://www.w3.org/1999/xlink" x="0px" y="0px"
	 width="500px" height="500px" viewBox="0 0 500 500" enable-background="new 0 0 500 500" xml:space="preserve">
<g>
	<path fill="#1A171B" d="M25.768,141.567h26.514v92.647h0.609c9.448-16.458,26.514-26.819,50.286-26.819
		c36.875,0,62.476,30.476,62.476,74.97c0,52.724-33.524,78.934-66.438,78.934c-21.333,0-38.4-8.228-49.677-27.429h-0.61
		l-1.524,24.076H24.549c0.609-10.057,1.219-24.989,1.219-38.095V141.567z M52.282,298.822c0,3.354,0.305,6.706,1.219,9.753
		c4.877,18.591,20.724,31.391,40.228,31.391c28.344,0,44.8-22.857,44.8-56.686c0-29.562-15.237-54.857-44.19-54.857
		c-17.98,0-35.048,12.8-40.532,32.915c-0.915,3.353-1.524,7.009-1.524,11.274V298.822z"/>
	<path fill="#1A171B" d="M199.167,141.567h26.514v92.647h0.609c9.448-16.458,26.514-26.819,50.286-26.819
		c36.876,0,62.477,30.476,62.477,74.97c0,52.724-33.525,78.934-66.438,78.934c-21.333,0-38.4-8.228-49.677-27.429h-0.609
		l-1.523,24.076h-22.857c0.609-10.057,1.219-24.989,1.219-38.095V141.567z M225.681,298.822c0,3.354,0.306,6.706,1.219,9.753
		c4.877,18.591,20.724,31.391,40.229,31.391c28.344,0,44.8-22.857,44.8-56.686c0-29.562-15.237-54.857-44.19-54.857
		c-17.98,0-35.047,12.8-40.532,32.915c-0.915,3.353-1.524,7.009-1.524,11.274V298.822z"/>
	<path fill="#1A171B" d="M476.184,322.595c0,12.8,0.609,25.295,2.134,35.352h-24.076l-2.134-18.59h-0.913
		c-8.229,11.581-24.076,21.942-45.105,21.942c-29.866,0-45.104-21.029-45.104-42.362c0-35.656,31.694-55.161,88.685-54.855v-3.049
		c0-11.885-3.353-34.133-33.523-33.828c-14.02,0-28.344,3.962-38.705,10.971l-6.095-17.98c12.19-7.62,30.171-12.8,48.762-12.8
		c45.104,0,56.075,30.78,56.075,60.037V322.595z M450.28,282.671c-29.257-0.609-62.477,4.571-62.477,33.219
		c0,17.677,11.582,25.601,24.991,25.601c19.505,0,32-12.191,36.267-24.686c0.915-3.049,1.219-6.096,1.219-8.533V282.671z"/>
</g>
</svg>
