<?xml version="1.0" encoding="utf-8"?>
<!-- Generator: Adobe Illustrator 21.0.2, SVG Export Plug-In . SVG Version: 6.00 Build 0)  -->
<svg version="1.1" id="Calque_1" xmlns="http://www.w3.org/2000/svg" xmlns:xlink="http://www.w3.org/1999/xlink" x="0px" y="0px"
	 viewBox="0 0 500 284" style="enable-background:new 0 0 500 284;" xml:space="preserve">
<style type="text/css">
	.st0{fill:#1A171B;}
</style>
<path class="st0" d="M25.8,33.6h26.5v92.6h0.6c9.4-16.5,26.5-26.8,50.3-26.8c36.9,0,62.5,30.5,62.5,75c0,52.7-33.5,78.9-66.4,78.9
	c-21.3,0-38.4-8.2-49.7-27.4H49L47.5,250H24.6c0.6-10.1,1.2-25,1.2-38.1V33.6z M52.3,190.8c0,3.4,0.3,6.7,1.2,9.8
	c4.9,18.6,20.7,31.4,40.2,31.4c28.3,0,44.8-22.9,44.8-56.7c0-29.6-15.2-54.9-44.2-54.9c-18,0-35,12.8-40.5,32.9
	c-0.9,3.4-1.5,7-1.5,11.3V190.8L52.3,190.8z"/>
<path class="st0" d="M199.2,33.6h26.5v92.6h0.6c9.4-16.5,26.5-26.8,50.3-26.8c36.9,0,62.5,30.5,62.5,75c0,52.7-33.5,78.9-66.4,78.9
	c-21.3,0-38.4-8.2-49.7-27.4h-0.6l-1.5,24.1H198c0.6-10.1,1.2-25,1.2-38.1L199.2,33.6L199.2,33.6z M225.7,190.8
	c0,3.4,0.3,6.7,1.2,9.8c4.9,18.6,20.7,31.4,40.2,31.4c28.3,0,44.8-22.9,44.8-56.7c0-29.6-15.2-54.9-44.2-54.9
	c-18,0-35,12.8-40.5,32.9c-0.9,3.4-1.5,7-1.5,11.3L225.7,190.8L225.7,190.8z"/>
<path class="st0" d="M476.2,214.6c0,12.8,0.6,25.3,2.1,35.4h-24.1l-2.1-18.6h-0.9c-8.2,11.6-24.1,21.9-45.1,21.9
	c-29.9,0-45.1-21-45.1-42.4c0-35.7,31.7-55.2,88.7-54.9v-3c0-11.9-3.4-34.1-33.5-33.8c-14,0-28.3,4-38.7,11l-6.1-18
	c12.2-7.6,30.2-12.8,48.8-12.8c45.1,0,56.1,30.8,56.1,60L476.2,214.6L476.2,214.6z M450.3,174.7c-29.3-0.6-62.5,4.6-62.5,33.2
	c0,17.7,11.6,25.6,25,25.6c19.5,0,32-12.2,36.3-24.7c0.9-3,1.2-6.1,1.2-8.5V174.7z"/>
</svg>
