<?xml version="1.0" encoding="utf-8"?>
<!-- Generator: Adobe Illustrator 19.1.0, SVG Export Plug-In . SVG Version: 6.00 Build 0)  -->
<svg version="1.1" id="Calque_1" xmlns="http://www.w3.org/2000/svg" xmlns:xlink="http://www.w3.org/1999/xlink" x="0px" y="0px"
	 viewBox="0 0 500 500" style="enable-background:new 0 0 500 500;" xml:space="preserve">
<style type="text/css">
	.st0{fill:#E42426;}
</style>
<g>
	<path class="st0" d="M94.1,379.5h-5.3V400h5.3c6.5,0,9.8-3.8,9.8-10.3C103.9,383.2,100.6,379.5,94.1,379.5z"/>
	<path class="st0" d="M100.8,342.7c0-5.8-2.7-9-7.8-9h-4.2v18H93C98.1,351.7,100.8,348.5,100.8,342.7z"/>
	<path class="st0" d="M25,25v450h450V25H25z M101.1,431.8H59.3V303.2h41.8c18.3,0,28.5,13.9,28.5,35.1c0,14-5,23.8-13.6,26.6
		c11.9,3.6,17.6,13.7,17.6,30.6C133.7,419.2,122.7,431.8,101.1,431.8z M160.4,434.5c-12.2,0-21.2-9.7-21.2-21.1
		c0-11.3,9.2-21.1,21.2-21.1c12.1,0,21.2,9.9,21.2,21.1S172.7,434.5,160.4,434.5z M246.5,431.8h-59.2V303.2h58.5v34.9h-27.6v12.4
		h25.1v32.9h-25.1v13.5h28.4L246.5,431.8L246.5,431.8z M277.2,434.5c-12.2,0-21.2-9.7-21.2-21.1c0-11.3,9.2-21.1,21.2-21.1
		c12.1,0,21.2,9.9,21.2,21.1S289.4,434.5,277.2,434.5z M387,409c-8.6,16.6-22.1,26.3-37.8,26.3c-13.3,0-24.8-6.7-33.5-19.3
		c-8.7-12.4-13.2-29.2-13.2-48.2c0-19.1,4.6-35.8,13.2-48.2c8.7-12.6,20.3-19.3,33.5-19.3c17.9,0,32.2,11.9,41,34l-28,15.3
		c-3.2-7.2-7.1-10.6-12.5-10.6c-8.9,0-15.3,10.8-15.3,28.8c0,18.2,6,28.6,16,28.6c6.1,0,10-4,10.8-10.6h-13.7v-30.2h48.3
		c0.2,3.2,0.2,6.5,0.2,9.5C396.1,382.7,393.2,397.1,387,409z M419.4,434.5c-12.2,0-21.2-9.7-21.2-21.1c0-11.3,9.2-21.1,21.2-21.1
		c12.1,0,21.2,9.9,21.2,21.1S431.6,434.5,419.4,434.5z"/>
</g>
</svg>
