<?xml version="1.0" encoding="utf-8"?>
<!-- Generator: Adobe Illustrator 21.0.2, SVG Export Plug-In . SVG Version: 6.00 Build 0)  -->
<svg version="1.1" id="Calque_1" xmlns="http://www.w3.org/2000/svg" xmlns:xlink="http://www.w3.org/1999/xlink" x="0px" y="0px"
	 viewBox="0 0 474 247" style="enable-background:new 0 0 474 247;" xml:space="preserve">
<style type="text/css">
	.st0{fill:#E2001A;}
	.st1{fill:#FFFFFF;}
</style>
<path class="st0" d="M122.5,208.3L122.5,208.3c0,0-110.1-16.2-110.4-16.2c0,0.3,0,41.9,0,42.1c0.2,0,220.6-0.1,220.8-0.1
	c0-0.2,0-41.7,0-42C232.6,192.1,122.5,208.3,122.5,208.3z"/>
<path class="st0" d="M351.4,208.5c-41.7,0-80.9-5.8-110.5-16.4c0,0.3,0,41.8,0,42c0.2,0,220.7,0.1,221,0.1c0-0.2,0-41.8,0-42.1
	C432.3,202.6,393.1,208.5,351.4,208.5z"/>
<path class="st0" d="M240.9,12.8c0,0.2,0,112.3,0,112.6c29.5-10.6,68.8-16.4,110.5-16.4s80.9,5.8,110.5,16.4c0-0.3,0-112.4,0-112.6
	C461.7,12.8,241.2,12.8,240.9,12.8z"/>
<path class="st0" d="M12.1,12.8c0,0.2,0,112.3,0,112.6c0.3,0,110.4-16.2,110.4-16.2s107.6,15.8,110.4,16.2c0-0.3,0-112.4,0-112.6
	C232.7,12.8,12.3,12.8,12.1,12.8z"/>
<rect x="232.8" y="12.7" class="st1" width="8.3" height="221.4"/>
<path class="st0" d="M240.8,12.7v112.9c28.3-10.2,67.4-16.5,110.6-16.5s82.3,6.3,110.6,16.5V12.7H240.8z"/>
<path class="st0" d="M240.8,191.9v42.3l221.2,0.1v-42.4c-28.3,10.2-67.4,16.5-110.6,16.5C308.2,208.3,269.1,202.1,240.8,191.9z"/>
<path d="M240.8,191.9c28.3,10.2,67.4,16.5,110.6,16.5s82.3-6.3,110.6-16.5v-66.3c-28.3-10.2-67.4-16.5-110.6-16.5
	s-82.3,6.3-110.6,16.5L240.8,191.9L240.8,191.9z"/>
<path class="st1" d="M462,123.2c-29.7-10.5-68.9-16.3-110.6-16.3s-80.9,5.8-110.6,16.3v4.9l0.8-0.3c29.3-10.5,68.3-16.3,109.8-16.3
	s80.5,5.8,109.8,16.3l0.8,0.3V123.2L462,123.2z"/>
<path class="st1" d="M240.8,194.3c29.7,10.5,68.9,16.3,110.6,16.3s80.9-5.8,110.6-16.3v-4.8l-0.8,0.3
	c-29.3,10.5-68.3,16.3-109.8,16.3s-80.5-5.8-109.8-16.3l-0.8-0.3L240.8,194.3L240.8,194.3z"/>
<path class="st1" d="M267,156.5c-6.3-2.4-9-4.9-9-12.9c0-13,10.2-18.5,29.3-18.5c11.6,0,20.5,2.5,24.4,7.7c2.8,3.8,2.6,9.6,2.6,13.6
	h-19.5c-0.2-2.6-2.3-6.4-7.2-6.4c-4.8,0-6.5,1.6-6.5,2.9c0,2.5,6.9,4.4,15.1,7.5c12.7,4.8,20.8,8.6,20.8,20.6
	c0,14.2-12.8,18.5-29.3,18.5c-8,0-16.8-1.4-22.2-5.5c-4.7-3.5-6.4-9-6.4-19h19.3c0.5,2.2,0.7,4.7,2.7,6.3c1.6,1.3,3.8,1.5,6,1.5
	c3.4,0,5.6-1.4,5.6-3.6c0-2.3-2.9-3.7-7.3-5.4L267,156.5z"/>
<path class="st1" d="M325.3,187.7v-60.4h52.8v16h-32.7v6.8h28v15.6h-28v6.5h33.2v15.5H325.3L325.3,187.7z"/>
<path class="st1" d="M444,187.8h-19c-0.5-0.5-1.5-2.9-2-8c-0.4-5.1-2.9-10-8.2-10h-8.1v18h-19.1v-60.4H423
	c14.2,0,21.4,9.7,21.4,19.9c0,7.1-2.1,12.6-9.8,16c4.7,2.1,5.4,7.7,5.4,12.7C440.2,180,442.2,185.9,444,187.8z M406.9,156.5h11.8
	c4.3,0,7.4-2.7,7.4-7.1c0-4.9-3.2-8-7.2-8h-12L406.9,156.5L406.9,156.5z"/>
<polygon class="st0" points="12,191.9 12,234.3 233,234.2 233,191.9 122.5,208.2 "/>
<polygon class="st0" points="12,12.7 12,125.6 122.5,109.3 233,125.6 233,12.7 "/>
<polygon points="233,191.9 122.5,208.2 12,191.9 12,125.6 122.5,109.3 233,125.6 "/>
<path class="st1" d="M24.5,184c0-16.4,0-32.7,0-49.1l19.7-2.4c4.2-0.7,6.1,0,7.6,1.9c2.8,3.3,2.4,16.8,0.4,20.1
	c-1.4,2.2-3.8,3.9-4.7,4.6c0.3,0.2-0.4-0.2,0,0c1.9,1.1,4.8,2.7,5.9,5.3c1.3,3.1,1.1,14.2-0.4,17.8c-0.6,1.5-2.9,5-6.7,4.5L24.5,184
	z M39,141.7c-0.1,0-3.4,0.2-4.1,0.3c0,4.3,0,8.8,0,13.1c1.2,0,2.7,0.3,3.8,0C42.8,154,43.4,142,39,141.7z M34.9,164.4
	c0,2.8,0,6.3,0,8.4c0,0.5-0.1,2.9,0,4.2c2.3,0.3,4.4,0.8,5.9-1.2c1.7-2.4,1.7-9.7-0.6-11C38.8,164.2,36.9,164.5,34.9,164.4z"/>
<path class="st1" d="M93,192.5c-2.8-0.5-4.9-3.3-4.9-6.5v-13.5l12,1v5.1c0,2.5,1.1,4.5,3,4.5s3-1.3,3-4.4v-10.2c0-2.2-1.1-3.8-4-3.8
	s-9.4-0.4-10.8-0.4c-1.8,0-3.3-1.8-3.3-3.3c0-1.4,0-27,0-28c0-3.5,1.5-6.5,6.9-7.1l16.5-2.1c2.5-0.1,7.1-0.1,7.1,4.6v14.3l-12.4,0.6
	v-4.5c0-3.4-5.9-3.3-5.9,0.1v11.9c0,1.8,0.6,3.4,2.8,3.4h10.3c3.6,0,5.5,1.6,5.5,5.1c0,5.4,0,23.7,0,26.5c0,5.9-3.4,9.5-8.2,8.9
	L93,192.5z"/>
<path class="st1" d="M158.4,184.1c0,5.9-4.4,7.9-7.3,8.3l-17.1,2.1c-3.8,0.6-6.4-3-6.4-5.6v-15.1l12.1-1.1v5.8
	c0,4.7,6.1,6.7,6.1,0.7v-11.6c0-2.2-1.3-3.4-4.2-3.4s-9.2,0-10.6,0c-1.8,0-3.3-1.8-3.3-3.3c0-1.4,0-30.7,0-31.8
	c0-3.5,2.8-6.6,7.8-5.9l18,2.2c3.5,0.6,4.7,2.2,4.7,4.9v12.9l-12.4-1.1V137c0-3.4-5.9-3.3-5.9,0.1v12.5c0,1.8,0.6,3.3,2.8,3.3
	l10.3,0.4c3.6,0,5.5,1.6,5.5,5.1v25.7H158.4z"/>
<polygon class="st1" points="166.3,127 166.3,190.4 188.1,187.4 188.1,178.8 178,179.2 178,163.4 188.1,162.9 188.1,154.6 
	178,153.6 178,137.7 188.1,138 188.1,129.8 "/>
<polygon class="st1" points="194.2,130.5 205.3,132 209.5,152.1 216,133.2 226,134.6 210.4,184.7 199.6,186 203.4,172.2 "/>
<polygon class="st1" points="60.8,130.6 80.7,127.9 80.7,136.8 71.7,138.1 71.7,155.2 80.5,155.1 80.5,164.6 71.7,164.7 71.7,180.1 
	80.7,181.3 80.7,190.8 60.4,188.3 "/>
<polygon class="st1" points="233,127.9 233,123.3 122.8,107 122.5,107 122.2,107 12,123.3 12,127.9 12.3,127.8 122.5,111.6 
	232.7,127.8 "/>
<polygon class="st1" points="233,189.6 232.7,189.6 122.5,205.9 12.3,189.6 12,189.6 12,194.2 122.2,210.4 122.5,210.5 122.8,210.4 
	233,194.2 "/>
<path d="M449.9,99c-4.5,0-8,3.5-8,7.9c0,4.4,3.5,7.9,8,8c4.4,0,7.9-3.6,7.9-8C457.8,102.6,454.3,99,449.9,99z M449.8,113.9
	c-3.9,0-7-3.1-7-7c0-3.9,3.1-7,7-7c3.9,0,7,3.2,7,7C456.8,110.7,453.7,113.9,449.8,113.9z"/>
<path d="M454,104.7c0-0.7-0.4-1.5-1-1.9c-0.7-0.4-1.5-0.4-2.2-0.4h-3.9v8.9h1.1v-4.1h2l2.5,4.1h1.3l-2.6-4.2
	C452.8,107.1,454,106.4,454,104.7z M449.6,106.4H448v-3.1h2.5c1.1,0,2.3,0.1,2.3,1.5C452.8,106.6,450.8,106.4,449.6,106.4z"/>
<path d="M221,99c-4.5,0-8,3.5-8,7.9c0,4.4,3.5,7.9,8,8c4.4,0,7.9-3.6,7.9-8C228.9,102.6,225.4,99,221,99z M220.9,113.9
	c-3.9,0-7-3.1-7-7c0-3.9,3.1-7,7-7c3.9,0,7,3.2,7,7C227.9,110.7,224.8,113.9,220.9,113.9z"/>
<path d="M225.1,104.7c0-0.7-0.3-1.5-1-1.9c-0.7-0.4-1.5-0.4-2.2-0.4H218v8.9h1.1v-4.1h2l2.5,4.1h1.3l-2.6-4.2
	C223.9,107.1,225.1,106.4,225.1,104.7z M220.7,106.4h-1.6v-3.1h2.5c1.1,0,2.3,0.1,2.3,1.5C223.9,106.6,222,106.4,220.7,106.4z"/>
</svg>
