<?xml version="1.0" encoding="utf-8"?>
<!-- Generator: Adobe Illustrator 19.1.0, SVG Export Plug-In . SVG Version: 6.00 Build 0)  -->
<svg version="1.1" id="Calque_1" xmlns="http://www.w3.org/2000/svg" xmlns:xlink="http://www.w3.org/1999/xlink" x="0px" y="0px"
	 viewBox="0 0 500 500" style="enable-background:new 0 0 500 500;" xml:space="preserve">
<style type="text/css">
	.st0{fill:#E2001A;}
	.st1{fill:#FFFFFF;}
</style>
<path class="st0" d="M135.5,334.8L135.5,334.8c0,0-110.1-16.2-110.4-16.2c0,0.3,0,41.9,0,42.1c0.2,0,220.6-0.1,220.8-0.1
	c0-0.2,0-41.7,0-42C245.6,318.6,135.5,334.8,135.5,334.8z"/>
<path class="st0" d="M364.4,335c-41.7,0-80.9-5.8-110.5-16.4c0,0.3,0,41.8,0,42c0.2,0,220.7,0.1,221,0.1c0-0.2,0-41.8,0-42.1
	C445.3,329.1,406.1,335,364.4,335z"/>
<path class="st0" d="M253.9,139.3c0,0.2,0,112.3,0,112.6c29.5-10.6,68.8-16.4,110.5-16.4c41.7,0,80.9,5.8,110.5,16.4
	c0-0.3,0-112.4,0-112.6C474.7,139.3,254.2,139.3,253.9,139.3z"/>
<path class="st0" d="M25.1,139.3c0,0.2,0,112.3,0,112.6c0.3,0,110.4-16.2,110.4-16.2c0,0,107.6,15.8,110.4,16.2
	c0-0.3,0-112.4,0-112.6C245.7,139.3,25.3,139.3,25.1,139.3z"/>
<rect x="245.8" y="139.2" class="st1" width="8.3" height="221.4"/>
<path class="st0" d="M253.8,139.2v112.9c28.3-10.2,67.4-16.5,110.6-16.5c43.2,0,82.3,6.3,110.6,16.5V139.2H253.8z"/>
<path class="st0" d="M253.8,318.4v42.3l221.2,0.1v-42.4c-28.3,10.2-67.4,16.5-110.6,16.5C321.2,334.8,282.1,328.6,253.8,318.4z"/>
<path d="M253.8,318.4c28.3,10.2,67.4,16.5,110.6,16.5c43.2,0,82.3-6.3,110.6-16.5v-66.3c-28.3-10.2-67.4-16.5-110.6-16.5
	c-43.2,0-82.3,6.3-110.6,16.5L253.8,318.4L253.8,318.4z"/>
<path class="st1" d="M475,249.7c-29.7-10.5-68.9-16.3-110.6-16.3c-41.7,0-80.9,5.8-110.6,16.3v4.9l0.8-0.3
	c29.3-10.5,68.3-16.3,109.8-16.3c41.5,0,80.5,5.8,109.8,16.3l0.8,0.3L475,249.7L475,249.7z"/>
<path class="st1" d="M253.8,320.8c29.7,10.5,68.9,16.3,110.6,16.3c41.7,0,80.9-5.8,110.6-16.3V316l-0.8,0.3
	c-29.3,10.5-68.3,16.3-109.8,16.3s-80.5-5.8-109.8-16.3l-0.8-0.3L253.8,320.8L253.8,320.8z"/>
<g>
	<path d="M454.9,233.4c0-4.4,3.5-7.9,8-7.9c4.4,0,7.9,3.6,7.9,7.9c0,4.4-3.5,8-7.9,8C458.4,241.3,454.9,237.8,454.9,233.4z
		 M469.8,233.4c0-3.8-3.1-7-7-7c-3.9,0-7,3.1-7,7c0,3.9,3.1,7,7,7C466.7,240.4,469.8,237.2,469.8,233.4z M466.8,237.8h-1.3l-2.5-4.1
		h-2v4.1h-1.1v-8.9h3.9c0.7,0,1.5,0,2.2,0.4c0.6,0.4,1,1.2,1,1.9c0,1.7-1.2,2.4-2.8,2.4L466.8,237.8z M462.6,232.9
		c1.2,0,3.2,0.2,3.2-1.6c0-1.4-1.2-1.5-2.3-1.5H461v3.1L462.6,232.9L462.6,232.9z"/>
	<path class="st1" d="M280,283c-6.3-2.4-9-4.9-9-12.9c0-13,10.2-18.5,29.3-18.5c11.6,0,20.5,2.5,24.4,7.7c2.8,3.8,2.6,9.6,2.6,13.6
		h-19.5c-0.2-2.6-2.3-6.4-7.2-6.4c-4.8,0-6.5,1.6-6.5,2.9c0,2.5,6.9,4.4,15.1,7.5c12.7,4.8,20.8,8.6,20.8,20.6
		c0,14.2-12.8,18.5-29.3,18.5c-8,0-16.8-1.4-22.2-5.5c-4.7-3.5-6.4-9-6.4-19h19.3c0.5,2.2,0.7,4.7,2.7,6.3c1.6,1.3,3.8,1.5,6,1.5
		c3.4,0,5.6-1.4,5.6-3.6c0-2.3-2.9-3.7-7.3-5.4L280,283z"/>
	<path class="st1" d="M338.3,314.2v-60.4h52.8v16h-32.7v6.8h28v15.6h-28v6.5h33.2v15.5L338.3,314.2L338.3,314.2z"/>
	<path class="st1" d="M457,314.3h-19c-0.5-0.5-1.5-2.9-2-8c-0.4-5.1-2.9-10-8.2-10h-8.1v18h-19.1v-60.4h35.4
		c14.2,0,21.4,9.7,21.4,19.9c0,7.1-2.1,12.6-9.8,16c4.7,2.1,5.4,7.7,5.4,12.7C453.2,306.5,455.2,312.4,457,314.3z M419.9,283h11.8
		c4.3,0,7.4-2.7,7.4-7.1c0-4.9-3.2-8-7.2-8h-12L419.9,283L419.9,283z"/>
</g>
<polygon class="st0" points="25,318.4 25,360.8 246,360.7 246,318.4 135.5,334.7 "/>
<polygon class="st0" points="25,139.2 25,252.1 135.5,235.8 246,252.1 246,139.2 "/>
<polygon points="246,318.4 135.5,334.7 25,318.4 25,252.1 135.5,235.8 246,252.1 "/>
<g>
	<path class="st1" d="M37.5,310.5c0-16.4,0-32.7,0-49.1l19.7-2.4c4.2-0.7,6.1,0,7.6,1.9c2.8,3.3,2.4,16.8,0.4,20.1
		c-1.4,2.2-3.8,3.9-4.7,4.6c0.3,0.2-0.4-0.2,0,0c1.9,1.1,4.8,2.7,5.9,5.3c1.3,3.1,1.1,14.2-0.4,17.8c-0.6,1.5-2.9,5-6.7,4.5
		L37.5,310.5z M52,268.2c-0.1,0-3.4,0.2-4.1,0.3c0,4.3,0,8.8,0,13.1c1.2,0,2.7,0.3,3.8,0C55.8,280.5,56.4,268.5,52,268.2z
		 M47.9,290.9c0,2.8,0,6.3,0,8.4c0,0.5-0.1,2.9,0,4.2c2.3,0.3,4.4,0.8,5.9-1.2c1.7-2.4,1.7-9.7-0.6-11
		C51.8,290.7,49.9,291,47.9,290.9z"/>
</g>
<path class="st1" d="M106,319c-2.8-0.5-4.9-3.3-4.9-6.5V299l12,1v5.1c0,2.5,1.1,4.5,3,4.5s3-1.3,3-4.4V295c0-2.2-1.1-3.8-4-3.8
	c-2.9,0-9.4-0.4-10.8-0.4c-1.8,0-3.3-1.8-3.3-3.3c0-1.4,0-27,0-28c0-3.5,1.5-6.5,6.9-7.1l16.5-2.1c2.5-0.1,7.1-0.1,7.1,4.6v14.3
	l-12.4,0.6v-4.5c0-3.4-5.9-3.3-5.9,0.1v11.9c0,1.8,0.6,3.4,2.8,3.4h10.3c3.6,0,5.5,1.6,5.5,5.1c0,5.4,0,23.7,0,26.5
	c0,5.9-3.4,9.5-8.2,8.9L106,319z"/>
<path class="st1" d="M171.4,310.6c0,5.9-4.4,7.9-7.3,8.3L147,321c-3.8,0.6-6.4-3-6.4-5.6v-15.1l12.1-1.1v5.8c0,4.7,6.1,6.7,6.1,0.7
	v-11.6c0-2.2-1.3-3.4-4.2-3.4c-2.9,0-9.2,0-10.6,0c-1.8,0-3.3-1.8-3.3-3.3c0-1.4,0-30.7,0-31.8c0-3.5,2.8-6.6,7.8-5.9l18,2.2
	c3.5,0.6,4.7,2.2,4.7,4.9v12.9l-12.4-1.1v-5.1c0-3.4-5.9-3.3-5.9,0.1v12.5c0,1.8,0.6,3.3,2.8,3.3l10.3,0.4c3.6,0,5.5,1.6,5.5,5.1
	V310.6z"/>
<polygon class="st1" points="179.3,253.5 179.3,316.9 201.1,313.9 201.1,305.3 191,305.7 191,289.9 201.1,289.4 201.1,281.1 
	191,280.1 191,264.2 201.1,264.5 201.1,256.3 "/>
<polygon class="st1" points="207.2,257 218.3,258.5 222.5,278.6 229,259.7 239,261.1 223.4,311.2 212.6,312.5 216.4,298.7 "/>
<polygon class="st1" points="73.8,257.1 93.7,254.4 93.7,263.3 84.7,264.6 84.7,281.7 93.5,281.6 93.5,291.1 84.7,291.2 84.7,306.6 
	93.7,307.8 93.7,317.3 73.4,314.8 "/>
<path d="M226,233.4c0-4.4,3.5-7.9,8-7.9c4.4,0,7.9,3.6,7.9,7.9c0,4.4-3.5,8-7.9,8C229.5,241.3,226,237.8,226,233.4z M240.9,233.4
	c0-3.8-3.1-7-7-7c-3.9,0-7,3.1-7,7c0,3.9,3.1,7,7,7C237.8,240.4,240.9,237.2,240.9,233.4z M237.9,237.8h-1.3l-2.5-4.1h-2v4.1H231
	v-8.9h3.9c0.7,0,1.5,0,2.2,0.4c0.7,0.4,1,1.2,1,1.9c0,1.7-1.2,2.4-2.8,2.4L237.9,237.8z M233.7,232.9c1.3,0,3.2,0.2,3.2-1.6
	c0-1.4-1.2-1.5-2.3-1.5h-2.5v3.1L233.7,232.9L233.7,232.9z"/>
<polygon class="st1" points="246,254.4 246,249.8 135.8,233.5 135.5,233.5 135.2,233.5 25,249.8 25,254.4 25.3,254.3 135.5,238.1 
	245.7,254.3 "/>
<polygon class="st1" points="246,316.1 245.7,316.1 135.5,332.4 25.3,316.1 25,316.1 25,320.7 135.2,336.9 135.5,337 135.8,336.9 
	246,320.7 "/>
</svg>
