<?xml version="1.0" encoding="utf-8"?>
<!-- Generator: Adobe Illustrator 21.0.2, SVG Export Plug-In . SVG Version: 6.00 Build 0)  -->
<svg version="1.1" id="Calque_1" xmlns="http://www.w3.org/2000/svg" xmlns:xlink="http://www.w3.org/1999/xlink" x="0px" y="0px"
	 viewBox="0 0 500 148" style="enable-background:new 0 0 500 148;" xml:space="preserve">
<style type="text/css">
	.st0{fill:#D75648;}
</style>
<path class="st0" d="M18.5,35H49c6,0,10.5,0.3,13.5,0.8s5.6,1.6,7.9,3.3c2.3,1.7,4.3,3.9,5.9,6.7c1.6,2.8,2.3,5.9,2.3,9.4
	c0,3.8-1,7.2-2.9,10.3c-1.9,3.1-4.5,5.5-7.8,7c4.6,1.4,8.2,3.8,10.6,7.1c2.5,3.4,3.7,7.3,3.7,11.9c0,3.6-0.8,7.1-2.4,10.5
	s-3.8,6.1-6.6,8.1c-2.8,2-6.2,3.3-10.3,3.7c-2.6,0.3-8.7,0.5-18.5,0.5H18.5L18.5,35L18.5,35z M34,48.5v18.3h10.1
	c6,0,9.7-0.1,11.1-0.3c2.6-0.3,4.7-1.3,6.2-2.8c1.5-1.6,2.3-3.6,2.3-6.2c0-2.4-0.7-4.4-1.9-6C60.5,50,58.6,49,56,48.7
	c-1.5-0.2-5.9-0.3-13.1-0.3L34,48.5L34,48.5z M34,80.3v20.6h14.2c5.5,0,9.1-0.2,10.5-0.5c2.3-0.4,4.1-1.4,5.6-3.1
	c1.4-1.6,2.1-3.8,2.1-6.5c0-2.3-0.5-4.3-1.7-5.9c-1.1-1.6-2.7-2.8-4.8-3.5c-2.1-0.7-6.6-1.1-13.6-1.1H34L34,80.3z"/>
<path class="st0" d="M93.1,114.4V35h56.5v13.5h-41.1v17.6h38.2v13.5h-38.2v21.3H151v13.5H93.1L93.1,114.4z"/>
<path class="st0" d="M158.5,114.4V100l40.2-51.5h-35.6V35h55.8v12.4l-41.7,53.5h43.1v13.5H158.5z"/>
<path class="st0" d="M300,114.4h-16.6l-6.6-18.1h-30.5l-6.3,18.1h-16.3L253.3,35h16.2L300,114.4z M271.7,82.8l-10.5-29.3L251,82.8
	H271.7z"/>
<path class="st0" d="M309.5,35H325v43.1c0,6.8,0.2,11.3,0.6,13.3c0.6,3.3,2.2,5.9,4.6,7.8c2.5,2,5.8,3,10.1,3c4.3,0,7.6-0.9,9.8-2.8
	c2.2-1.9,3.5-4.1,4-6.9c0.4-2.7,0.7-7.2,0.7-13.5V35h15.5v41.7c0,9.5-0.4,16.3-1.2,20.2c-0.8,3.9-2.4,7.3-4.6,10s-5.2,4.9-8.9,6.5
	c-3.7,1.6-8.6,2.4-14.6,2.4c-7.3,0-12.8-0.9-16.5-2.6s-6.7-4-8.9-6.8c-2.2-2.8-3.6-5.7-4.3-8.8c-1-4.6-1.5-11.3-1.5-20.2L309.5,35
	L309.5,35z"/>
<path class="st0" d="M383.3,114.4V35.7h15.5v65.2H437v13.5H383.3z"/>
<path class="st0" d="M446.5,114.4V48.5h-22.4V35h60.2v13.5h-22.4v65.9H446.5z"/>
</svg>
