<?xml version="1.0" encoding="utf-8"?>
<!-- Generator: Adobe Illustrator 19.1.0, SVG Export Plug-In . SVG Version: 6.00 Build 0)  -->
<svg version="1.1" id="Calque_1" xmlns="http://www.w3.org/2000/svg" xmlns:xlink="http://www.w3.org/1999/xlink" x="0px" y="0px"
	 viewBox="-345 170.9 500 500" style="enable-background:new -345 170.9 500 500;" xml:space="preserve">
<style type="text/css">
	.st0{fill:#D75648;}
</style>
<path class="st0" d="M-326.5,381.9h30.5c6,0,10.5,0.3,13.5,0.8c3,0.5,5.6,1.6,7.9,3.3c2.3,1.7,4.3,3.9,5.9,6.7
	c1.6,2.8,2.3,5.9,2.3,9.4c0,3.8-1,7.2-2.9,10.3c-1.9,3.1-4.5,5.5-7.8,7c4.6,1.4,8.2,3.8,10.6,7.1c2.5,3.4,3.7,7.3,3.7,11.9
	c0,3.6-0.8,7.1-2.4,10.5c-1.6,3.4-3.8,6.1-6.6,8.1c-2.8,2-6.2,3.3-10.3,3.7c-2.6,0.3-8.7,0.5-18.5,0.5h-25.9L-326.5,381.9
	L-326.5,381.9z M-311,395.4v18.3h10.1c6,0,9.7-0.1,11.1-0.3c2.6-0.3,4.7-1.3,6.2-2.8c1.5-1.6,2.3-3.6,2.3-6.2c0-2.4-0.7-4.4-1.9-6
	c-1.3-1.5-3.2-2.5-5.8-2.8c-1.5-0.2-5.9-0.3-13.1-0.3L-311,395.4L-311,395.4z M-311,427.2v20.6h14.2c5.5,0,9.1-0.2,10.5-0.5
	c2.3-0.4,4.1-1.4,5.6-3.1c1.4-1.6,2.1-3.8,2.1-6.5c0-2.3-0.5-4.3-1.7-5.9c-1.1-1.6-2.7-2.8-4.8-3.5c-2.1-0.7-6.6-1.1-13.6-1.1
	L-311,427.2L-311,427.2z"/>
<path class="st0" d="M-251.9,461.3v-79.4h56.5v13.5h-41.1V413h38.2v13.5h-38.2v21.3h42.5v13.5L-251.9,461.3L-251.9,461.3z"/>
<path class="st0" d="M-186.5,461.3v-14.4l40.2-51.5h-35.6v-13.5h55.8v12.4l-41.7,53.5h43.1v13.5H-186.5z"/>
<path class="st0" d="M-45,461.3h-16.6l-6.6-18.1h-30.5l-6.3,18.1h-16.3l29.6-79.4h16.2L-45,461.3z M-73.3,429.7l-10.5-29.3
	L-94,429.7H-73.3z"/>
<path class="st0" d="M-35.5,381.9h15.5V425c0,6.8,0.2,11.3,0.6,13.3c0.6,3.3,2.2,5.9,4.6,7.8c2.5,2,5.8,3,10.1,3
	c4.3,0,7.6-0.9,9.8-2.8c2.2-1.9,3.5-4.1,4-6.9c0.4-2.7,0.7-7.2,0.7-13.5v-44h15.5v41.7c0,9.5-0.4,16.3-1.2,20.2
	c-0.8,3.9-2.4,7.3-4.6,10c-2.2,2.7-5.2,4.9-8.9,6.5c-3.7,1.6-8.6,2.4-14.6,2.4c-7.3,0-12.8-0.9-16.5-2.6c-3.7-1.7-6.7-4-8.9-6.8
	c-2.2-2.8-3.6-5.7-4.3-8.8c-1-4.6-1.5-11.3-1.5-20.2L-35.5,381.9L-35.5,381.9z"/>
<path class="st0" d="M38.3,461.3v-78.7h15.5v65.2H92v13.5H38.3z"/>
<path class="st0" d="M101.5,461.3v-65.9H79.1v-13.5h60.2v13.5h-22.4v65.9H101.5z"/>
</svg>
