<?xml version="1.0" encoding="utf-8"?>
<!-- Generator: Adobe Illustrator 19.2.1, SVG Export Plug-In . SVG Version: 6.00 Build 0)  -->
<svg version="1.1" id="Calque_1" xmlns="http://www.w3.org/2000/svg" xmlns:xlink="http://www.w3.org/1999/xlink" x="0px" y="0px"
	 viewBox="0 0 500 285.1" style="enable-background:new 0 0 500 285.1;" xml:space="preserve">
<style type="text/css">
	.st0{fill:url(#SVGID_1_);}
	.st1{fill:url(#SVGID_2_);}
	.st2{fill:url(#SVGID_3_);}
	.st3{fill:url(#SVGID_4_);}
	.st4{fill:url(#SVGID_5_);}
	.st5{fill:#87888A;}
	.st6{fill:url(#SVGID_6_);}
</style>
<g>
	
		<linearGradient id="SVGID_1_" gradientUnits="userSpaceOnUse" x1="84.7905" y1="65.6631" x2="84.7904" y2="262.714" gradientTransform="matrix(1 0 0 -1 0 287.1429)">
		<stop  offset="0.3817" style="stop-color:#104B86"/>
		<stop  offset="0.871" style="stop-color:#1D98D0"/>
	</linearGradient>
	<path class="st0" d="M58.7,146.4c-14,13-24,28.4-30.3,46.7c-1-1.7-1.9-3.1-2.8-4.5c-4.5-7.8-7.3-16.2-8.5-25.2
		c-1.8-13.8,0.8-26.7,6.5-39.2c4.5-9.9,10.4-19.1,16.7-27.9c7.9-11,16.1-21.9,23.9-32.9c8.2-11.6,15.4-23.7,20.3-37.1
		c0-0.1,0.1-0.2,0.2-0.4c1.1,2.5,2.2,4.8,3.3,7.2c5,10.3,11,20,17.7,29.2c6.9,9.5,13.9,18.9,21,28.5c2.6-1.3,5-2.6,7.7-4
		c0,3.1,0.1,6.1,0,9c-0.3,9.8-1,19.5-2.6,29.2c-2.2,12.7-5.6,25-12.1,36.3c-5.2,9.1-12.1,16.6-21.6,21.3c-7.1,3.5-14.7,4.8-22.6,4.7
		c-8.6-0.1-16.9-2-25-4.7c-0.5-0.2-1-0.3-1.5-0.5c-0.2,0.5-0.3,0.9-0.4,1.2c-0.3,0.8,0,1.2,0.8,1.5c7.5,2.7,15.1,4.9,23,6
		c5.8,0.8,11.6,1,17.4,0.2c12.5-1.8,22.7-7.7,30.5-17.8c6.5-8.5,10.5-18.2,13.2-28.4c2-7.5,3.4-15.2,4-23c0.3-4.1,0.6-8.3,0.8-12.4
		c0-0.3,0.1-0.6,0.2-1.1c0.3,0.3,0.4,0.5,0.5,0.7c5.4,9,9.8,18.5,12.1,28.7c1.6,7,2.2,14.2,1.8,21.4c-0.9,14.1-5.7,26.6-14.4,37.7
		c-10,12.7-23,20.9-38.8,24.5c-6.3,1.5-12.8,1.9-19.2,1.5c-14.2-0.9-27-5.8-38.2-14.7c-1.8-1.4-3.5-3-5.2-4.6
		c-0.4-0.3-0.6-1.1-0.6-1.6c2.9-14.6,7.6-28.5,14.3-41.7C53.3,155.5,56,151,58.7,146.4z M98.7,115.4c-0.4,0-0.6,0-0.7,0
		c-8.1,3-16.2,5.7-24.2,9c-9,3.8-16.9,9.2-23.6,16.4c-6.7,7.2-11.6,15.6-16,24.3c-0.7,1.3-0.9,2.6-0.2,4.1c0.9-1.8,1.8-3.5,2.7-5.2
		c5.5-10.1,12.3-19,21.6-25.8c7.9-5.8,16.7-9.8,25.8-13.1c0.5-0.2,1-0.5,1.5-0.8c1.9-1.4,3.7-2.8,5.7-4.2
		C93.7,118.5,96.1,117.1,98.7,115.4z"/>
	
		<linearGradient id="SVGID_2_" gradientUnits="userSpaceOnUse" x1="248.1384" y1="202.8997" x2="248.1384" y2="61.1578" gradientTransform="matrix(1 0 0 -1 0 287.1429)">
		<stop  offset="0.4731" style="stop-color:#104B86"/>
		<stop  offset="1" style="stop-color:#1D98D0"/>
	</linearGradient>
	<path class="st1" d="M236.9,205.1c0-10.2,0-20.1,0-30.3c0.5,0,0.9,0,1.4,0c7.3-0.1,14.5-0.1,21.8-0.2c4.5,0,7.4-2.4,8.3-6.9
		c0.9-4.3-1.6-7.7-6-7.7c-8-0.1-15.9-0.1-23.9,0c-1.3,0-1.7-0.3-1.7-1.7c0.1-8.9,0.1-17.7,0-26.6c0-1.1,0.3-1.5,1.5-1.5
		c7.6,0.1,15.1,0,22.7,0c4,0,6.8-2.3,7.5-6.3c0.8-3.9-2.3-8.1-6.3-8.4c-1.2-0.1-2.5-0.2-3.7-0.2c-9.4,0-18.8,0-28.2,0
		c-0.5,0-1,0-1.7,0c0,29.9,0,59.7,0,89.5c-11,0-21.9,0-33,0c0-0.4-0.1-0.9-0.1-1.3c0-28.3,0-56.7-0.1-85c0-1,0.3-1.6,1-2.3
		c8.9-8.9,17.7-17.9,26.5-26.8c1.6-1.6,3.1-3.3,4.8-4.8c0.4-0.4,1.1-0.7,1.7-0.7c10.8,0,21.5-0.2,32.3,0c8.7,0.1,17,2,24.4,6.9
		c7.1,4.7,11.5,11.3,13.3,19.6c1.8,8.2,1.9,16.5-0.9,24.5c-1.1,3.1-2.7,6-4.2,9.2c3.1,4.2,4.9,9.3,5.7,14.8
		c1.9,13.4-0.5,25.5-10.4,35.4c-5.9,5.8-13,9.1-21.2,10.1c-3,0.4-6,0.5-9,0.5C252,205.2,244.5,205.1,236.9,205.1z"/>
	
		<linearGradient id="SVGID_3_" gradientUnits="userSpaceOnUse" x1="433.5466" y1="202.8997" x2="433.5466" y2="61.1571" gradientTransform="matrix(1 0 0 -1 0 287.1429)">
		<stop  offset="0.4731" style="stop-color:#104B86"/>
		<stop  offset="1" style="stop-color:#1D98D0"/>
	</linearGradient>
	<path class="st2" d="M485.2,84.2c-1.1,1.1-2,2-2.9,3c-9.1,9.1-18.3,18.1-27.4,27.2c-0.7,0.7-1.3,1-2.3,1c-3.7,0-7.4,0-11.1,0.2
		c-5.6,0.4-10.6,2.5-15,5.9c-6.2,4.6-10.5,10.5-12.1,18.2c-3.2,15.4,6.1,29.7,18.4,33.8c2.4,0.8,5,1.2,7.5,1.3
		c10.2,0.1,20.4,0.1,30.5,0.1c0.5,0,0.9,0,1.5,0c0,10.1,0,20.1,0,30.2c-0.3,0-0.5,0.1-0.7,0.1c-11.6,0-23.1,0.2-34.7-0.1
		c-18-0.4-32.2-8.5-43.1-22.7c-5.9-7.7-9.7-16.3-11.1-25.8c-2.9-19.4,1.5-36.7,15.1-51.3c9.3-10,20.4-16.8,33.8-19.6
		c4.4-0.9,8.9-1.5,13.4-1.5c13.1-0.2,26.2-0.1,39.3-0.1C484.4,84.2,484.7,84.2,485.2,84.2z"/>
	
		<linearGradient id="SVGID_4_" gradientUnits="userSpaceOnUse" x1="340.2032" y1="202.8997" x2="340.2032" y2="61.1569" gradientTransform="matrix(1 0 0 -1 0 287.1429)">
		<stop  offset="0.4731" style="stop-color:#104B86"/>
		<stop  offset="1" style="stop-color:#1D98D0"/>
	</linearGradient>
	<path class="st3" d="M356.8,84.4c0,40.1,0,80.4,0,120.6c-11,0-22,0-33.1,0c0-0.5,0-0.9,0-1.4c0-28.4,0-56.7,0-85.1
		c0-0.9,0.2-1.5,0.8-2.1c9-9,18-18,27-27.1C353.2,87.7,355,86.1,356.8,84.4z"/>
	
		<linearGradient id="SVGID_5_" gradientUnits="userSpaceOnUse" x1="317.4387" y1="202.6606" x2="350.0877" y2="236.9698" gradientTransform="matrix(1 0 0 -1 0 287.1429)">
		<stop  offset="0" style="stop-color:#EC6A13"/>
		<stop  offset="1" style="stop-color:#FAB911"/>
	</linearGradient>
	<path class="st4" d="M323.9,95.1c0-0.4,0-0.9,0-1.3c0-11.3,0.1-22.7,0.1-34c0-1.9,0.2-2.1,2.1-2.1c6.3,0.1,12.7,0.2,19,0.2
		c3.4,0,6.8-0.1,10.2-0.2c1.3-0.1,1.6,0.5,1.7,1.7c0.2,1.9-0.5,3.1-1.8,4.4c-10.2,10.2-20.3,20.4-30.4,30.6
		c-0.2,0.3-0.4,0.6-0.6,0.8C324.2,95.2,324.1,95.2,323.9,95.1z"/>
	<path class="st5" d="M270.7,253.2c0-0.6,0-1.1,0-1.6c0-1.8,0.7-2.3,2.4-1.8c0.3,0.1,0.6,0.5,0.6,0.8c0.1,0.5,0.1,1.1,0,1.6
		c-0.4,2,0.3,3.3,2.3,3.9c0.8,0.2,1.3,0.7,0.8,1.7c-0.7,1.4-0.8,1.5-2.3,0.7c-1-0.6-1.8-0.8-3,0c-0.9,0.6-2.3,0.7-3.6,0.8
		c-3.1,0.1-6.3,0-9.4,0c-5.2,0-7-2-6.6-7.2c0.2-2,0.9-3.5,3.1-3.9c-0.3-0.7-0.6-1.2-0.7-1.8c-0.3-3,0-5.5,4.4-5.6
		c3.1,0,6.1,0,9.2,0.1c3,0.1,4.6,2.5,3.9,5.4c-0.3,1.2-1.3,0.7-2,0.7c-0.3,0-0.9-0.5-0.9-0.9c-0.3-2.4-0.4-2.5-2.8-2.5
		c-2.3,0-4.7-0.1-7,0c-0.5,0-1.4,0.5-1.5,0.9c-0.3,0.8-0.3,1.7,0.7,2.3c4,2.1,7.9,4.2,11.8,6.2C270.3,253.1,270.4,253.1,270.7,253.2
		z M269.4,256.4c0-0.1,0-0.2,0.1-0.4c-3.7-1.9-7.4-3.9-11.1-5.8c-1-0.5-2.1-0.1-2.8,0.9c-1.6,2.5-0.1,5.4,2.8,5.5c3,0.1,6,0,9,0
		C268,256.6,268.7,256.4,269.4,256.4z"/>
	<path class="st5" d="M199.7,252.5c-2.3,0-4.7,0-7.1,0c-1.4,0-2.1-1.1-1.5-2.4c0.1-0.2,0.6-0.4,0.9-0.4c3.4,0,6.7,0,10.1,0
		c0.3,0,0.9,0.6,0.9,0.9c0,1.5,0,2.9-0.2,4.4c-0.4,2.7-2,4.1-4.8,4.2c-4,0.1-8.1,0.1-12.1,0c-3.1-0.1-5-1.8-5.2-4.9
		c-0.2-2.8-0.2-5.7,0-8.5c0.2-3.1,2-4.8,5.1-4.9c3.9-0.1,7.9-0.1,11.8,0c3.3,0.1,5.3,2.1,5.2,5c0,0.7-0.2,1.2-1,1.1
		c-0.8-0.1-1.9,0.6-2.1-0.9c-0.3-2-0.5-2.3-2.5-2.4c-3.6-0.2-7.2-0.2-10.7-0.1c-1.8,0-2.7,1-2.7,2.8c-0.1,2.4-0.1,4.8,0,7.2
		c0,1.8,0.8,2.7,2.7,2.8c3.6,0.1,7.3,0.2,10.9,0C199.5,256.4,200.1,255.2,199.7,252.5z"/>
	<path class="st5" d="M375.5,252.5c-2.4,0-4.8,0-7.2,0c-1,0-1.5-0.2-1.5-1.4c0-1.1,0.4-1.4,1.5-1.4c3.1,0.1,6.2,0,9.3,0
		c1,0,1.4,0.3,1.3,1.3c-0.1,1.3-0.1,2.6-0.2,3.8c-0.4,2.8-1.9,4.3-4.8,4.4c-4.1,0.1-8.1,0.1-12.2,0c-3-0.1-4.9-1.7-5.1-4.7
		c-0.2-3-0.2-6.1,0-9.1c0.2-2.7,2-4.3,4.7-4.4c4.1-0.1,8.2-0.2,12.3,0c3.2,0.1,5,2.2,5,4.9c0,0.7-0.2,1.2-1,1.1
		c-0.8-0.1-1.9,0.5-2.1-0.9c-0.3-1.9-0.4-2.2-2.4-2.3c-3.6-0.2-7.3-0.2-10.9-0.1c-1.7,0-2.6,1.1-2.7,2.9c-0.1,2.3-0.1,4.7,0,7
		c0,1.8,0.8,2.8,2.6,2.9c3.7,0.1,7.3,0.2,11,0C375.3,256.4,375.9,255.2,375.5,252.5z"/>
	<path class="st5" d="M50.3,259.4c-2.4-0.1-4.6,0-6.7-0.3c-2.9-0.4-4.1-2.1-4-5.1c0-1.1,0.7-1.1,1.4-1.1c0.8,0,1.6-0.2,1.7,1.1
		c0.1,2.1,0.4,2.5,2.5,2.6c3.2,0.1,6.4,0.1,9.5,0c2.6-0.1,2.7-1.6,2.3-3.7c-0.1-0.5-1.3-1.1-2-1.1c-2-0.2-4.1,0-6.1-0.1
		c-1.9-0.1-3.9-0.1-5.8-0.5c-2.6-0.5-3.5-1.9-3.5-4.8c0-2.9,1-4.6,3.5-5c4.4-0.7,8.8-0.7,13.2,0c2.5,0.4,3.6,2.1,3.6,4.5
		c0,0.7-0.3,1.2-1,1c-0.7-0.1-1.9,0.6-2-0.8c-0.1-1.6-0.9-2.2-2.4-2.2c-3.1,0-6.3-0.1-9.4,0c-2,0.1-2.5,0.9-2.4,2.7
		c0.1,1.5,0.6,1.9,2.5,2c3,0.1,5.9,0,8.9,0.1c1.2,0,2.4,0.2,3.5,0.6c1.6,0.4,2.4,1.6,2.6,3.2c0.1,1,0.1,2,0,2.9
		c-0.2,2-1.4,3.4-3.6,3.7C54.5,259.3,52.3,259.3,50.3,259.4z"/>
	<path class="st5" d="M78.2,259.4c-2.3-0.1-4.5-0.1-6.7-0.4c-2.7-0.4-4.1-2.7-3.6-5.4c0.3-1.3,1.3-0.5,2-0.7c0.7-0.1,1,0.2,1.1,1
		c0.1,2.1,0.4,2.6,2.4,2.6c3.3,0.1,6.5,0.1,9.8-0.1c2-0.1,2.8-1.7,2.2-3.6c-0.3-1.1-1.2-1.2-2.1-1.2c-2.9-0.1-5.8,0-8.8-0.1
		c-1.3-0.1-2.6-0.3-3.9-0.6c-1.5-0.4-2.4-1.5-2.6-3c-0.1-0.6-0.2-1.2-0.2-1.8c0.1-2.9,1.2-4.6,4.1-4.8c4.2-0.3,8.4-0.2,12.5,0.1
		c2.5,0.2,3.6,1.9,3.7,4.4c0,0.7-0.1,1.2-0.9,1.1c-0.8-0.1-2.1,0.6-2.1-0.8c-0.1-1.7-1-2.3-2.5-2.3c-3.2,0-6.4-0.1-9.7,0.1
		c-1.7,0.1-2.1,0.9-2.1,2.6c0.1,1.4,0.5,1.9,2.2,2c2.7,0.1,5.5,0.1,8.2,0.2c0.5,0,1.1,0,1.6,0c4.6,0.2,6.5,2.6,5.5,7.1
		c-0.4,1.8-1.7,3-3.5,3.2C82.8,259.3,80.5,259.3,78.2,259.4z"/>
	<path class="st5" d="M402,251.2c0,1.8,0,3.4,0,5.2c0.5,0,1,0,1.5,0c3.9,0,7.9,0,11.8,0c1.1,0,1.4,0.4,1.4,1.4c0,1-0.4,1.4-1.4,1.4
		c-5,0-10.1,0-15.1,0c-1,0-1.4-0.3-1.4-1.4c0-5.1,0-10.3,0-15.4c0-1,0.3-1.4,1.4-1.4c5,0,10.1,0,15.1,0c1.1,0,1.3,0.5,1.3,1.4
		c0,1-0.3,1.4-1.4,1.4c-3.9,0-7.8,0-11.7,0c-0.5,0-0.9,0-1.5,0c0,1.6,0,3,0,4.6c1.2,0,2.3,0,3.4,0c3.1,0,6.3,0,9.4,0
		c1.2,0,1.1,0.6,1.1,1.5c0,0.8-0.1,1.3-1.1,1.3c-3.6,0-7.3,0-10.9,0C403.3,251.2,402.7,251.2,402,251.2z"/>
	<path class="st5" d="M443.1,255.5c0-4.5,0-8.7,0-12.9c0-1.2,0.3-1.7,1.6-1.6c1.1,0,1.7,0.3,1.7,1.6c-0.1,5-0.1,10.1,0,15.1
		c0,1.2-0.4,1.4-1.5,1.5c-1.9,0.2-3.2-0.6-4.5-1.9c-3.9-3.9-8-7.7-12-11.6c-0.3-0.3-0.7-0.6-1.1-1c0,0.5-0.1,0.9-0.1,1.3
		c0,3.9,0,7.9,0,11.8c0,1.2-0.5,1.4-1.5,1.4c-1,0-1.7,0-1.7-1.4c0.1-5.1,0-10.3,0-15.4c0-1,0.3-1.4,1.4-1.5c1.9-0.2,3.3,0.4,4.7,1.8
		c4.1,4.2,8.5,8.2,12.7,12.2C442.6,255.2,442.8,255.3,443.1,255.5z"/>
	<path class="st5" d="M457.9,243.9c0,1.6,0,3,0,4.6c2.3,0,4.6,0,6.8,0c1.9,0,3.8,0,5.7,0c1.1,0,1.5,0.3,1.5,1.4
		c0,1.2-0.5,1.4-1.5,1.4c-3.8,0-7.5,0-11.3,0c-1,0-1.3,0.3-1.3,1.3c0.1,1.2,0,2.5,0,3.9c0.5,0,1,0.1,1.5,0.1c3.9,0,7.9,0,11.8,0
		c1.1,0,1.5,0.4,1.5,1.5c0,1.1-0.4,1.4-1.4,1.4c-5,0-10,0-15,0c-1.2,0-1.5-0.4-1.5-1.6c0.1-5,0.1-10.1,0-15.1c0-1.2,0.4-1.5,1.5-1.5
		c4.9,0,9.8,0,14.7,0c1.1,0,1.6,0.3,1.6,1.5c0,1.2-0.5,1.4-1.5,1.4c-3.9,0-7.7,0-11.6,0C458.9,243.9,458.4,243.9,457.9,243.9z"/>
	<path class="st5" d="M18,243.9c0,1.6,0,3,0,4.6c0.8,0,1.4,0,2.1,0c3.5,0,7.1,0,10.6,0c1.1,0,1.2,0.5,1.2,1.4c0,0.9-0.1,1.4-1.2,1.4
		c-3.7,0-7.4,0-11.2,0c-0.5,0-1,0-1.6,0c0,1.8,0,3.4,0,5.2c0.5,0,1,0,1.5,0c4,0,8,0,12,0c1.1,0,1.2,0.5,1.2,1.4
		c0,0.9-0.1,1.4-1.2,1.4c-5.1,0-10.3,0-15.4,0c-1,0-1.3-0.4-1.3-1.3c0-5.1,0-10.3,0-15.4c0-1,0.3-1.4,1.4-1.4c5,0,10.1,0,15.1,0
		c1.1,0,1.3,0.5,1.3,1.4c0,1-0.3,1.4-1.4,1.4c-3.9,0-7.8,0-11.7,0C19.1,243.9,18.6,243.9,18,243.9z"/>
	<path class="st5" d="M214.3,243.9c0,1.6,0,3,0,4.5c0.5,0,0.9,0.1,1.4,0.1c3.7,0,7.4,0,11.2,0c1.1,0,1.4,0.4,1.4,1.5
		c0,1.1-0.4,1.3-1.4,1.3c-3.7,0-7.3,0-11,0c-0.5,0-1,0-1.5,0c0,1.7,0,3.4,0,5.2c0.5,0,0.9,0,1.4,0c4,0,8,0,11.9,0
		c1,0,1.3,0.4,1.3,1.3c0,0.9-0.1,1.5-1.3,1.5c-5.1,0-10.3,0-15.4,0c-0.9,0-1.2-0.4-1.2-1.3c0-5.2,0-10.4,0-15.7
		c0-0.9,0.4-1.2,1.3-1.2c5.1,0,10.2,0,15.3,0c1.2,0,1.3,0.6,1.3,1.5c0,0.9-0.3,1.4-1.3,1.4c-3.9,0-7.8,0-11.7,0
		C215.4,243.9,214.9,243.9,214.3,243.9z"/>
	<path class="st5" d="M173.8,257.4c-3-5.1-6-10.2-9.1-15.3c-0.9-1.5-3.7-1.6-4.6,0c-1.8,3-3.6,6.1-5.4,9.1c-1.3,2.2-2.6,4.4-3.9,6.6
		c-0.3,0.6-0.7,1.2,0.3,1.4c1.6,0.4,2.5,0,3.4-1.5c0.2-0.4,0.5-0.7,0.7-1.1c0.3-0.8,0.9-1,1.8-1c3.2,0.1,6.4,0.2,9.5,0
		c2-0.1,3.3,0.4,4,2.3c0.4,1.1,1.1,1.7,2.4,1.6c0.5-0.2,1.2-0.3,1.4-0.6C174.4,258.5,174,257.8,173.8,257.4z M157.5,252.6
		c1.6-2.7,3.2-5.4,4.9-8.3c1.7,2.9,3.3,5.5,4.9,8.3C164,252.6,160.9,252.6,157.5,252.6z"/>
	<path class="st5" d="M317.5,251.3c-0.5,0-0.8-0.1-1.2-0.1c-4.1,0-8.2,0-12.3,0c-1,0-1.3,0.3-1.3,1.3c0.1,1.9,0,3.7,0,5.6
		c0,1.3-0.8,1.1-1.6,1.1c-0.8,0-1.6,0.1-1.6-1.2c0-5.3,0-10.5,0-15.8c0-1.3,0.9-1.2,1.7-1.2c0.9,0,1.5,0.1,1.5,1.3c-0.1,2,0,4,0,6.1
		c4.9,0,9.8,0,14.8,0c0-1.9,0.1-3.9,0-5.8c-0.1-1.3,0.4-1.6,1.6-1.6c1.2,0,1.7,0.3,1.6,1.6c-0.1,5-0.1,10.1,0,15.1
		c0,1.4-0.6,1.5-1.7,1.5c-1.1,0-1.6-0.3-1.5-1.5C317.6,255.6,317.5,253.5,317.5,251.3z"/>
	<path class="st5" d="M96.7,248.6c0-2.1,0-4.2,0-6.2c0-1.3,0.7-1.3,1.6-1.3c0.9,0,1.6,0.1,1.6,1.3c0,3.9,0,7.8,0,11.7
		c0,1.8,0.3,2.4,2.2,2.5c3.4,0.1,6.9,0.1,10.3,0c1.9-0.1,2.2-0.6,2.2-2.6c0-3.8,0.1-7.6,0-11.4c0-1.4,0.6-1.5,1.7-1.5
		c1.1,0,1.6,0.2,1.6,1.5c-0.1,3.8,0,7.7,0,11.5c0,3.7-1.5,5.2-5.3,5.3c-3.5,0.1-7.1,0.1-10.6,0c-3.7-0.1-5.2-1.6-5.2-5.3
		C96.7,252.2,96.7,250.4,96.7,248.6z"/>
	<path class="st5" d="M135.9,248.8c2.4-2.4,4.7-4.7,7-7c0.6-0.6,3.2-1.1,3.8-0.7c0.8,0.5,0.2,0.9-0.2,1.4c-2.6,2.6-5.2,5.3-7.9,7.9
		c-0.9,0.9-1.4,1.8-1.3,3.1c0.1,1.5,0,3,0,4.5c0.1,1.3-0.8,1.2-1.7,1.2c-0.9,0-1.6,0-1.5-1.2c0.1-1.8,0.1-3.5,0-5.3
		c0-0.6-0.3-1.3-0.7-1.7c-2.7-2.8-5.5-5.6-8.3-8.4c-0.3-0.3-0.4-0.7-0.6-1.1c0.4-0.1,0.8-0.3,1.3-0.4c1.5-0.3,2.6,0.3,3.7,1.5
		C131.6,244.7,133.7,246.6,135.9,248.8z"/>
	<path class="st5" d="M338.7,248.7c2.1-2,4.2-4,6.2-6.2c1.2-1.3,2.5-1.8,4.1-1.5c0.3,0,0.6,0.2,0.9,0.3c-0.1,0.3-0.2,0.8-0.4,1
		c-2.7,2.8-5.4,5.6-8.2,8.3c-0.7,0.7-1,1.4-0.9,2.3c0.1,1.7,0,3.4,0,5c0,1.3-0.8,1.2-1.6,1.2c-0.8,0-1.6,0.1-1.6-1.1
		c0.1-1.7,0.1-3.5,0-5.2c-0.1-0.7-0.4-1.5-0.9-2c-2.7-2.8-5.5-5.5-8.2-8.3c-0.3-0.3-0.4-0.7-0.5-1.1c0.4-0.1,0.8-0.3,1.1-0.4
		c1.6-0.3,2.8,0.3,3.9,1.6C334.5,244.7,336.6,246.7,338.7,248.7z"/>
	<path class="st5" d="M390.1,250.2c0,2.6-0.1,5.1,0,7.7c0,1.3-0.7,1.3-1.6,1.3c-0.9,0-1.6,0-1.6-1.3c0-5.2,0.1-10.3,0-15.5
		c0-1.3,0.7-1.3,1.7-1.4c1,0,1.6,0.2,1.5,1.4C390,245,390.1,247.6,390.1,250.2z"/>
	<path class="st5" d="M404.7,235.2c0.6,0.4,1.3,0.8,1.8,1.3c0.9,1,1.7,2,2.5,3.1c0.5,0.7,0.3,1.1-0.5,1.1c-0.7-0.1-1.5-0.3-2-0.7
		c-1.1-0.9-2.1-2-3.1-3.1c-0.3-0.3-0.4-0.7-0.6-1.1c0.4-0.1,0.8-0.3,1.2-0.4c0.1,0,0.3,0,0.4,0C404.6,235.4,404.7,235.3,404.7,235.2
		z"/>
	
		<linearGradient id="SVGID_6_" gradientUnits="userSpaceOnUse" x1="129.0871" y1="196.1448" x2="46.6344" y2="109.2651" gradientTransform="matrix(1 0 0 -1 0 287.1429)">
		<stop  offset="0.2312" style="stop-color:#79B52A"/>
		<stop  offset="0.7527" style="stop-color:#ACC710"/>
	</linearGradient>
	<path class="st6" d="M33.5,167c0,0-5.9-26,8.3-46.3C56,100.4,75.4,97.1,87.3,95.8c12-1.3,29.1,1.5,47-8.9c0,0,3.5,49.4-19.2,81.3
		c-22.7,31.9-66.4,13.8-66.4,13.8s10.3-44.3,50.2-66.6c0,0-26.3,7.2-39.8,17.5C44.4,144.3,33.5,167,33.5,167z"/>
</g>
</svg>
