<?xml version="1.0" encoding="utf-8"?>
<!-- Generator: Adobe Illustrator 16.0.0, SVG Export Plug-In . SVG Version: 6.00 Build 0)  -->
<!DOCTYPE svg PUBLIC "-//W3C//DTD SVG 1.1//EN" "http://www.w3.org/Graphics/SVG/1.1/DTD/svg11.dtd">
<svg version="1.1" id="Calque_1" xmlns="http://www.w3.org/2000/svg" xmlns:xlink="http://www.w3.org/1999/xlink" x="0px" y="0px"
	 width="500px" height="500px" viewBox="0 0 500 500" enable-background="new 0 0 500 500" xml:space="preserve">
<g>
	<g>
		<path d="M58.736,341.338c17.754,0,33.729,14.189,33.729,33.62c0,19.403-15.718,33.595-33.729,33.595
			c-11.121,0-22.242-6.139-27.218-14.191v-64.774H25v-12.894h19.424v27.971C48.385,342.623,51.191,341.338,58.736,341.338z
			 M44.424,389.393c3.191,3.313,7.274,6.254,14.312,6.254c11.628,0,20.695-10.094,20.695-20.688
			c0-10.736-9.066-20.701-20.695-20.701c-5.875,0-10.864,2.671-14.312,6.254V389.393z"/>
		<path d="M127.716,342.623v64.659h-12.9v-51.754h-6.517v-12.905H127.716z M127.716,316.694v12.894h-12.9v-12.894H127.716z"/>
		<path d="M167.59,316.694v90.588h-12.913v-77.694h-6.511v-12.894H167.59z"/>
		<path d="M220.736,408.553c-17.889,0-33.729-14.191-33.729-33.595c0-19.431,15.84-33.62,33.729-33.62
			c10.736,0,18.917,4.481,24.535,10.491c0,0-9.587,9.066-9.715,9.066c-3.455-3.454-7.281-6.639-14.82-6.639
			c-10.735,0-20.694,9.323-20.694,20.701c0,11.364,9.959,20.688,20.694,20.688c7.539,0,12.008-3.442,15.462-7.025l9.073,9.324
			C239.653,404.083,230.702,408.553,220.736,408.553z"/>
		<path d="M325.751,374.958c0,18.646-15.179,33.595-33.723,33.595c-18.518,0-33.723-14.948-33.723-33.595
			c0-18.531,15.205-33.62,33.723-33.62C310.572,341.338,325.751,356.427,325.751,374.958z M292.028,354.257
			c-11.378,0-20.572,9.323-20.572,20.701c0,11.364,9.194,20.688,20.572,20.688s20.701-9.324,20.701-20.688
			C312.729,363.581,303.406,354.257,292.028,354.257z"/>
		<path d="M375.86,408.553c-17.901,0-33.748-14.191-33.748-33.595c0-19.431,15.847-33.62,33.748-33.62
			c10.723,0,18.903,4.481,24.503,10.491c0,0-9.555,9.066-9.709,9.066c-3.441-3.454-7.269-6.639-14.794-6.639
			c-10.748,0-20.701,9.323-20.701,20.701c0,11.364,9.953,20.688,20.701,20.688c7.525,0,11.994-3.442,15.449-7.025l9.054,9.324
			C394.764,404.083,385.826,408.553,375.86,408.553z"/>
		<path d="M447.903,408.553c-18.158,0-33.723-14.191-33.723-33.595c0-19.431,15.564-33.62,33.723-33.62
			c11.121,0,22.089,6.139,27.097,14.189v77.682h-12.765v-27.854C458.383,407.282,453.015,408.553,447.903,408.553z M462.081,360.511
			c-3.185-3.454-8.296-6.254-14.178-6.254c-11.763,0-20.701,9.965-20.701,20.701c0,11.236,8.938,20.688,20.701,20.688
			c7.038,0,11.121-3.057,14.178-6.254V360.511z"/>
	</g>
	<polygon fill="#34B4E4" points="313.577,244.908 242.17,178.297 308.774,106.896 380.201,173.52 	"/>
	<g>
		<polygon fill="#E32119" points="230.188,247.065 160.315,177.18 230.188,107.294 249.772,126.891 269.324,105.933 240.314,76.923 
			230.188,66.791 220.063,76.923 129.932,167.047 119.806,177.18 129.932,187.299 220.063,277.437 230.188,287.569 240.314,277.437 
			271.636,246.128 250.684,226.583 		"/>
	</g>
</g>
</svg>
