<?xml version="1.0" encoding="utf-8"?>
<!-- Generator: Adobe Illustrator 21.0.2, SVG Export Plug-In . SVG Version: 6.00 Build 0)  -->
<svg version="1.1" id="Calque_1" xmlns="http://www.w3.org/2000/svg" xmlns:xlink="http://www.w3.org/1999/xlink" x="0px" y="0px"
	 viewBox="0 0 500 424" style="enable-background:new 0 0 500 424;" xml:space="preserve">
<style type="text/css">
	.st0{fill:#34B4E4;}
	.st1{fill:#E32119;}
</style>
<path d="M58.7,303.3c17.8,0,33.7,14.2,33.7,33.6s-15.7,33.6-33.7,33.6c-11.1,0-22.2-6.1-27.2-14.2v-64.8H25v-12.9h19.4v28
	C48.4,304.6,51.2,303.3,58.7,303.3z M44.4,351.4c3.2,3.3,7.3,6.3,14.3,6.3c11.6,0,20.7-10.1,20.7-20.7c0-10.7-9.1-20.7-20.7-20.7
	c-5.9,0-10.9,2.7-14.3,6.3V351.4z"/>
<path d="M127.7,304.6v64.7h-12.9v-51.8h-6.5v-12.9H127.7z M127.7,278.7v12.9h-12.9v-12.9H127.7z"/>
<path d="M167.6,278.7v90.6h-12.9v-77.7h-6.5v-12.9L167.6,278.7L167.6,278.7z"/>
<path d="M220.7,370.6c-17.9,0-33.7-14.2-33.7-33.6s15.8-33.6,33.7-33.6c10.7,0,18.9,4.5,24.5,10.5c0,0-9.6,9.1-9.7,9.1
	c-3.5-3.5-7.3-6.6-14.8-6.6c-10.7,0-20.7,9.3-20.7,20.7c0,11.4,10,20.7,20.7,20.7c7.5,0,12-3.4,15.5-7l9.1,9.3
	C239.7,366.1,230.7,370.6,220.7,370.6z"/>
<path d="M325.8,337c0,18.6-15.2,33.6-33.7,33.6s-33.7-14.9-33.7-33.6c0-18.5,15.2-33.6,33.7-33.6C310.6,303.3,325.8,318.4,325.8,337
	z M292,316.3c-11.4,0-20.6,9.3-20.6,20.7c0,11.4,9.2,20.7,20.6,20.7s20.7-9.3,20.7-20.7C312.7,325.6,303.4,316.3,292,316.3z"/>
<path d="M375.9,370.6c-17.9,0-33.7-14.2-33.7-33.6s15.8-33.6,33.7-33.6c10.7,0,18.9,4.5,24.5,10.5c0,0-9.6,9.1-9.7,9.1
	c-3.4-3.5-7.3-6.6-14.8-6.6c-10.7,0-20.7,9.3-20.7,20.7c0,11.4,10,20.7,20.7,20.7c7.5,0,12-3.4,15.4-7l9.1,9.3
	C394.8,366.1,385.8,370.6,375.9,370.6z"/>
<path d="M447.9,370.6c-18.2,0-33.7-14.2-33.7-33.6s15.6-33.6,33.7-33.6c11.1,0,22.1,6.1,27.1,14.2v77.7h-12.8v-27.9
	C458.4,369.3,453,370.6,447.9,370.6z M462.1,322.5c-3.2-3.5-8.3-6.3-14.2-6.3c-11.8,0-20.7,10-20.7,20.7c0,11.2,8.9,20.7,20.7,20.7
	c7,0,11.1-3.1,14.2-6.3V322.5z"/>
<polygon class="st0" points="313.6,206.9 242.2,140.3 308.8,68.9 380.2,135.5 "/>
<polygon class="st1" points="230.2,209.1 160.3,139.2 230.2,69.3 249.8,88.9 269.3,67.9 240.3,38.9 230.2,28.8 220.1,38.9 
	129.9,129 119.8,139.2 129.9,149.3 220.1,239.4 230.2,249.6 240.3,239.4 271.6,208.1 250.7,188.6 "/>
</svg>
