<?xml version="1.0" encoding="utf-8"?>
<!-- Generator: Adobe Illustrator 21.1.0, SVG Export Plug-In . SVG Version: 6.00 Build 0)  -->
<svg version="1.1" id="Calque_1" xmlns="http://www.w3.org/2000/svg" xmlns:xlink="http://www.w3.org/1999/xlink" x="0px" y="0px"
	 viewBox="0 0 500 174" style="enable-background:new 0 0 500 174;" xml:space="preserve">
<style type="text/css">
	.st0{fill:#FFE000;}
	.st1{fill:#002D5F;}
	.st2{fill:#C00B25;}
	.st3{fill:#FFFFFF;}
</style>
<polygon class="st0" points="458.5,123.8 28.1,123.8 47.3,18.4 477.6,18.4 "/>
<path class="st1" d="M140.9,89l-8,22.9h14.9l3.7-12.3h9.9l-0.6,12.3h14.8l0.3-22.9l0.5-47h-19L140.9,89z M162.1,86.8h-6.9l9.6-33.1
	L162.1,86.8z"/>
<polygon class="st1" points="302.6,25.4 293.4,25.4 291.5,35.9 300.7,35.9 "/>
<path class="st1" d="M90.4,89l0.3-1.9c1.3-6.9-0.8-10.9-6.9-11.8c7.3-2.3,10-7.6,10.9-12.9l1.1-6.1C97.6,46.9,94,42,82.9,42H62.1
	l-12.6,69.9h21.2c11.1,0,16.4-4.9,18.1-14.3L90.4,89 M76.1,89c-0.1,0.4-0.2,0.9-0.3,1.4c-1.6,7.7-2.4,8.7-6.5,8.7h-3.3L67.9,89
	l1.3-7.3h3.3C76.4,81.7,77.2,82.4,76.1,89 M80.6,61.9C79.5,68,78.3,69,75.1,69h-3.6l2.6-14.3h3.6C80.9,54.7,81.7,55.9,80.6,61.9"/>
<polygon class="st1" points="115.1,89 123.6,41.9 109.3,41.9 100.8,89 96.7,111.8 126.1,111.8 128.4,99.1 113.3,99.1 "/>
<path class="st1" d="M349.5,42h-17.6l-8.5,47l-4.1,22.9h17.6c12.5,0,19-3.3,21.4-16.4l1.2-6.4l5.5-30.6
	C367.3,45.3,362.1,42,349.5,42 M350.2,60.8L345.1,89l-0.7,4.1c-0.8,4.7-2.3,6.1-5.2,6.1h-3.3l1.8-10.1l6.2-34.3h3.3
	C350.2,54.7,351.1,56.1,350.2,60.8"/>
<polygon class="st1" points="406.4,54.7 408.7,42 379.3,42 370.8,89 366.7,111.9 396.1,111.9 398.4,99.2 383.3,99.2 385.1,89 
	386.4,81.7 400.8,81.7 403.1,69 388.7,69 391.3,54.7 "/>
<polygon class="st1" points="307.8,35.9 317,35.9 318.9,25.4 309.7,25.4 "/>
<path class="st1" d="M434.3,89l-3.6,20c-0.1,0.8,0,1.8,0.4,2.8h14.4c-0.8-1.1-0.6-2.3,0.4-7.6l2.7-15.2c0,0,0,0,0-0.1 M448.6,89
	c1.6-8.9-0.5-12.8-6.1-13.7c6.7-1.2,9.4-6.5,10.2-10.7l1.5-8.3c2-11.2-3-14.3-15.5-14.3h-18.3l-8.5,47l-4.1,22.9h14.3l4.1-22.9
	l1.3-7.3h3.6c2.9,0,4.4,1.2,4,3.5l-0.7,3.8 M438.8,61.9c-1.1,6.2-2.5,7.1-5.5,7.1h-3.6l2.6-14.3h3.6
	C439.3,54.7,439.8,56.1,438.8,61.9"/>
<path class="st1" d="M170.3,23.2c-4.4,0-8.8,3.5-9.6,8.1c-0.8,4.6,2.3,8.1,6.7,8.1s8.8-3.5,9.6-8.1
	C177.8,26.7,174.7,23.2,170.3,23.2 M172,31.3c-0.3,1.8-2,3.2-3.8,3.2c-1.8,0-3-1.5-2.6-3.2c0.3-1.8,2-3.2,3.8-3.2
	S172.4,29.6,172,31.3"/>
<polygon class="st1" points="219.8,76.3 238.1,42 223,42 206.1,75.1 211.9,42 197.6,42 189.1,89 185,111.9 199.3,111.9 203.4,89 
	205.5,77.4 207.2,89 210.7,111.9 225.8,111.9 221.9,89 "/>
<path class="st1" d="M277.2,89l-8,22.9h14.9l3.7-12.3h9.9l-0.6,12.3h14.8l0.3-22.9l0.5-47h-19L277.2,89z M298.4,86.8h-6.9l9.6-33.1
	L298.4,86.8z"/>
<polygon class="st1" points="252.3,89 260.8,42 246.5,42 238,89 233.9,111.9 263.3,111.9 265.6,99.2 250.5,99.2 "/>
<path class="st1" d="M460.6,28c-3,0-5.6,2.2-5.6,5.5c0,3.3,2.6,5.5,5.6,5.5c3,0,5.6-2.2,5.6-5.5C466.2,30.2,463.6,28,460.6,28z
	 M460.6,38c-2.4,0-4.3-1.9-4.3-4.4c0-2.6,1.9-4.4,4.3-4.4c2.4,0,4.3,1.9,4.3,4.4C464.9,36.1,463,38,460.6,38z"/>
<path class="st1" d="M463.2,32.1c0-1.3-0.8-1.8-2.3-1.8h-2.3v6.2h1.1v-2.7h0.9l1.6,2.7h1.2l-1.7-2.7
	C462.5,33.7,463.2,33.3,463.2,32.1z M459.6,33v-1.8h1.2c0.6,0,1.3,0.1,1.3,0.8c0,0.8-0.6,0.9-1.3,0.9H459.6z"/>
<polygon class="st1" points="452.4,155.6 173.3,155.6 179.1,123.8 458.2,123.8 "/>
<polygon class="st2" points="173.3,155.6 22.4,155.6 28.2,123.8 179.1,123.8 "/>
<polygon class="st3" points="235.6,141.9 235.6,141.9 239.3,130.5 242.9,130.5 236.7,146.8 232.4,146.8 233.7,135.3 233.6,135.3 
	230,146.8 225.8,146.8 226.5,130.5 230.1,130.5 228.9,142 228.9,141.9 232.9,130.5 236.5,130.5 "/>
<path class="st3" d="M258.9,141.9c-0.2,0.9-0.6,2.3-1.8,2.3c-1.2,0-1.1-1.4-0.9-2.3l1.4-6.7c0.2-1,0.6-2.2,1.8-2.2
	c1.3,0,1.1,1.2,0.9,2.2L258.9,141.9z M264.2,135c0.7-3.1-0.8-4.9-4.1-4.9c-3.3,0-5.6,1.7-6.2,4.9l-1.4,6.6c-0.8,3.7,0.2,5.6,4,5.6
	c3.9,0,5.5-1.9,6.3-5.6L264.2,135z"/>
<path class="st3" d="M280.9,133.5c1.9,0,2.7,0,2.2,2c-0.2,1-0.7,2-1.8,2h-1.3L280.9,133.5z M279.5,140.4h1.3c0.9,0.1,1,0.7,0.9,1.7
	c-0.1,1-0.5,2.3-0.7,3.8c0,0.3,0,0.6,0,0.9h4.2l0-0.2c-0.1-0.2-0.2-0.3-0.2-0.6c0-1,0.6-3.8,0.7-5.1c0.2-1.1-0.4-1.9-1.4-2.1l0,0
	c1.8-0.7,2.4-2,2.8-3.7c0.7-3.2-0.6-4.5-3.7-4.5h-5.6l-3.5,16.3h3.8L279.5,140.4z"/>
<polygon class="st3" points="297.2,146.8 300.7,130.5 304.5,130.5 303.1,137 303.1,137 307.3,130.5 311.2,130.5 306.3,137.7 
	308,146.8 304,146.8 303.1,141.1 301.9,142.8 301,146.8 "/>
<polygon class="st3" points="332,141.9 332,141.9 335.6,130.5 339.3,130.5 333.1,146.8 328.8,146.8 330.1,135.3 330,135.3 
	326.3,146.8 322.1,146.8 322.8,130.5 326.5,130.5 325.2,142 325.3,141.9 329.2,130.5 332.9,130.5 "/>
<polygon class="st3" points="347.9,146.8 351.3,130.5 360,130.5 359.4,133.8 354.4,133.8 353.8,136.8 358.6,136.8 357.9,140 
	353.1,140 352.4,143.5 357.5,143.5 356.8,146.8 "/>
<path class="st3" d="M376.9,140.8h-2.2l2.7-7.3h0L376.9,140.8z M372.6,146.8l1.1-3.2h3l-0.1,3.2h3.9l-0.1-16.3h-4.6l-7,16.3H372.6z"
	/>
<path class="st3" d="M399,133.5c1.9,0,2.7,0,2.2,2c-0.2,1-0.7,2-1.8,2h-1.3L399,133.5z M397.5,140.4h1.3c0.9,0.1,1,0.7,0.9,1.7
	c-0.1,1-0.5,2.3-0.7,3.8c0,0.3,0,0.6,0,0.9h4.2l0-0.2c-0.1-0.2-0.2-0.3-0.3-0.6c0-1,0.6-3.8,0.7-5.1c0.2-1.1-0.4-1.9-1.4-2.1l0,0
	c1.8-0.7,2.4-2,2.8-3.7c0.7-3.2-0.6-4.5-3.7-4.5h-5.6l-3.5,16.3h3.8L397.5,140.4z"/>
</svg>
