<?xml version="1.0" encoding="utf-8"?>
<!-- Generator: Adobe Illustrator 19.1.0, SVG Export Plug-In . SVG Version: 6.00 Build 0)  -->
<svg version="1.1" id="Calque_1" xmlns="http://www.w3.org/2000/svg" xmlns:xlink="http://www.w3.org/1999/xlink" x="0px" y="0px"
	 viewBox="0 0 500 500" style="enable-background:new 0 0 500 500;" xml:space="preserve">
<style type="text/css">
	.st0{fill:#ED7826;}
</style>
<g>
	<path d="M470.2,236.8c-2.8,0-4.8-2.1-4.8-4.9c0-2.9,2.2-4.9,4.8-4.9c2.5,0,4.8,1.9,4.8,4.9C475,234.8,472.8,236.8,470.2,236.8
		 M470.2,227.9c-2.1,0-3.7,1.7-3.7,4c0,2.2,1.4,4,3.7,4c2.1,0,3.7-1.6,3.7-4C474,229.5,472.3,227.9,470.2,227.9z M469.3,234.7h-0.9
		v-5.4h2c1.3,0,2,0.5,2,1.5c0,1-0.6,1.4-1.4,1.5l1.5,2.4h-1l-1.4-2.3h-0.8L469.3,234.7L469.3,234.7z M470.3,231.6
		c0.7,0,1.2-0.1,1.2-0.8c0-0.7-0.6-0.7-1.2-0.7h-1.1v1.6H470.3z"/>
	<polyline points="339.3,264.5 327.7,264.5 327.7,254 338.7,254 338.7,244.9 327.7,244.9 327.7,235.6 339.3,235.6 339.3,226 
		316,226 316,274.1 339.3,274.1 339.3,264.5 	"/>
	<polyline points="431.9,264.5 420.3,264.5 420.3,254 431.3,254 431.3,244.9 420.3,244.9 420.3,235.6 431.9,235.6 431.9,226 
		408.6,226 408.6,274.1 431.9,274.1 431.9,264.5 	"/>
	<path d="M157,234.4c0,0,0.1-0.2,0.2-0.2c0.2,0,0.3,0.2,0.3,0.2l2.8,22.4h-6L157,234.4 M153.2,265.5l8.2,0l1.1,8.5l11.4,0l-6.9-48
		h-19l-5.5,38.6h-7.7V226h-11.8v48h29.3L153.2,265.5z"/>
	<path d="M356.5,275.2c9.9,0,14.6-4.7,14.6-12.1v-9.7h-11.8v9.3c0,2.2-1.1,3.4-2.9,3.4c-1.8,0-2.9-0.9-2.9-2.9v-26.7
		c0-1.7,1.1-2.9,2.9-2.9c1.9,0,2.9,1.1,2.9,2.9v8.2h11.8v-8.2c0-8-4-11.6-14.4-11.6c-9.4,0-15,4.5-15,11.6v26.4
		C341.7,271.2,346.7,275.2,356.5,275.2"/>
	<path d="M189.6,275.2c9.9,0,14.6-4.7,14.6-12.1v-9.7h-11.8v9.3c0,2.2-1.1,3.4-2.9,3.4s-2.9-0.9-2.9-2.9v-26.7
		c0-1.7,1.1-2.9,2.9-2.9c1.9,0,2.9,1.1,2.9,2.9v8.2h11.8v-8.2c0-8-4-11.6-14.4-11.6c-9.4,0-15,4.5-15,11.6v26.4
		C174.7,271.2,179.7,275.2,189.6,275.2"/>
	<path d="M108.8,261.5c0,2.6-1.6,4.1-4.3,4.1c-1.7,0-3.4,0-3.4,0v-12.4c0,0,2.2,0,4,0c2.3,0,3.7,1.5,3.7,4.1
		C108.8,259.7,108.8,259.3,108.8,261.5 M101.1,234.4h3.4c2.4,0,3.6,1.4,3.6,4.1c0,2.2,0,0.8,0,2.6c0,2.6-1.6,3.9-4,3.9
		c-1.4,0-3,0-3,0L101.1,234.4L101.1,234.4z M120.5,261.8c0-1.7,0-1.5,0-4.6c0-4.2-2.3-6.4-4-7.3c-0.9-0.5-2-0.8-2-0.8
		s0.9-0.4,1.9-1.3c1.6-1.4,3.2-3.1,3.2-8.4c0-2.6,0-3.7,0-3.7c0-6-3.6-9.7-12-9.7c-5.3,0-18.3,0-18.3,0v48c0,0,13.1,0,18.6,0
		C115.1,274.1,120.5,270.8,120.5,261.8z"/>
	<path d="M445.7,234h3.4c1.5,0,3.1,0.9,3.1,3.5c0,2.6,0,3.2,0,4.7c0,2.1-1.3,3.6-3.3,3.6c-2,0-3.2,0-3.2,0L445.7,234 M445.7,253.8
		c0,0,1.6,0,3.3,0c1.7,0,3.6,0.8,3.6,4.3c0,3.5,0,15.9,0,15.9h11.7v-15.8c0-3-0.4-5.2-2.5-6.8c-1.2-0.9-2.7-1.5-2.7-1.5
		s0.8-0.3,1.6-1.1c1.4-1.3,2.8-3.3,2.8-6.8c0-3.9,0-5.8,0-5.8c0-6.1-4.2-10.2-11.8-10.2c-7.2,0-17.6,0-17.6,0V274h11.6L445.7,253.8
		L445.7,253.8z"/>
	<path d="M301,260.6c0,2.4-1.1,4.9-4.4,4.9h-3.1v-31h3.2c3.4,0,4.2,2.1,4.2,5.3C301,242.1,301,260.6,301,260.6 M312.8,260.4
		c0-7.5,0-14.6,0-22c0-8.3-4.8-12.5-13.6-12.5c-7.9,0-17.3,0-17.3,0v48.1c0,0,9.5,0,17,0C307.2,274,312.8,269.5,312.8,260.4z"/>
	<polyline points="219.1,251.1 227.5,274 240.9,274 230.8,249.8 240.5,226 227.5,226 219.1,248.9 219.1,226 207.2,226 207.2,274 
		219.1,274 219.1,251.1 	"/>
	<polyline points="385.6,251.1 393.9,274.1 407.1,274.1 397.2,249.8 406.9,226 393.9,226 385.6,248.9 385.6,226 373.9,226 
		373.9,274 385.6,274 385.6,251.1 	"/>
	<path d="M248.6,258.7c0-3.8,1.7-6.1,3.9-7l14.3,15.1c-0.7,2.5-3.5,4.1-6.9,4.1c-2.2,0-3.9,0-3.9,0c-5.2,0-7.4-2.4-7.4-6.6
		L248.6,258.7 M255.2,275.1c0,0,1.7,0,4.5,0c5.6,0,8.8-2.3,10.3-5.2l3.8,4.2h6.3l-8.2-8.6c0-0.4,0.1-0.7,0.1-1.1v-13.8h-4.5v10.3
		c0,0-13.4-14-15-15.8c-1.4-1.5-2.9-3.9-2.9-7.4V236c0-3.8,2.6-6.8,7.8-6.8c1.1,0,0.7,0,1.5,0c5.8,0,7.1,3.5,7.1,7.4v3.5h4.5v-4.4
		c0-6.6-2.7-10.7-11-10.7h-2.4c-7.5,0-12.1,3.9-12.1,10.7v2.9c0,4.4,1.8,7,3.2,8.5l1.6,1.7c-3.2,1.5-5.7,4.6-5.7,9.4v6
		C244,270.8,247.8,275.1,255.2,275.1z"/>
	<polyline class="st0" points="38.9,226 25,250.1 27.3,254.1 43.6,226 38.9,226 	"/>
	<polyline class="st0" points="57.5,226 34.3,266.2 36.6,270.2 62.1,226 57.5,226 	"/>
	<polyline class="st0" points="38.9,274.2 66.7,274.2 80.6,250.1 66.7,226 38.9,274.2 	"/>
	<polyline class="st0" points="48.2,226 29.6,258.2 32,262.2 52.8,226 48.2,226 	"/>
</g>
</svg>
