<?xml version="1.0" encoding="utf-8"?>
<!-- Generator: Adobe Illustrator 21.0.2, SVG Export Plug-In . SVG Version: 6.00 Build 0)  -->
<svg version="1.1" id="Calque_1" xmlns="http://www.w3.org/2000/svg" xmlns:xlink="http://www.w3.org/1999/xlink" x="0px" y="0px"
	 viewBox="0 0 500 98" style="enable-background:new 0 0 500 98;" xml:space="preserve">
<style type="text/css">
	.st0{fill:#ED7826;}
</style>
<polyline points="339.3,63.5 327.7,63.5 327.7,53 338.7,53 338.7,43.9 327.7,43.9 327.7,34.6 339.3,34.6 339.3,25 316,25 316,73.1 
	339.3,73.1 339.3,63.5 "/>
<polyline points="431.9,63.5 420.3,63.5 420.3,53 431.3,53 431.3,43.9 420.3,43.9 420.3,34.6 431.9,34.6 431.9,25 408.6,25 
	408.6,73.1 431.9,73.1 431.9,63.5 "/>
<path d="M157,33.4c0,0,0.1-0.2,0.2-0.2c0.2,0,0.3,0.2,0.3,0.2l2.8,22.4h-6L157,33.4 M153.2,64.5h8.2l1.1,8.5h11.4L167,25h-19
	l-5.5,38.6h-7.7V25H123v48h29.3L153.2,64.5z"/>
<path d="M356.5,74.2c9.9,0,14.6-4.7,14.6-12.1v-9.7h-11.8v9.3c0,2.2-1.1,3.4-2.9,3.4s-2.9-0.9-2.9-2.9V35.5c0-1.7,1.1-2.9,2.9-2.9
	c1.9,0,2.9,1.1,2.9,2.9v8.2h11.8v-8.2c0-8-4-11.6-14.4-11.6c-9.4,0-15,4.5-15,11.6v26.4C341.7,70.2,346.7,74.2,356.5,74.2"/>
<path d="M189.6,74.2c9.9,0,14.6-4.7,14.6-12.1v-9.7h-11.8v9.3c0,2.2-1.1,3.4-2.9,3.4s-2.9-0.9-2.9-2.9V35.5c0-1.7,1.1-2.9,2.9-2.9
	c1.9,0,2.9,1.1,2.9,2.9v8.2h11.8v-8.2c0-8-4-11.6-14.4-11.6c-9.4,0-15,4.5-15,11.6v26.4C174.7,70.2,179.7,74.2,189.6,74.2"/>
<path d="M108.8,60.5c0,2.6-1.6,4.1-4.3,4.1c-1.7,0-3.4,0-3.4,0V52.2c0,0,2.2,0,4,0c2.3,0,3.7,1.5,3.7,4.1
	C108.8,58.7,108.8,58.3,108.8,60.5 M101.1,33.4h3.4c2.4,0,3.6,1.4,3.6,4.1c0,2.2,0,0.8,0,2.6c0,2.6-1.6,3.9-4,3.9c-1.4,0-3,0-3,0
	V33.4L101.1,33.4z M120.5,60.8c0-1.7,0-1.5,0-4.6c0-4.2-2.3-6.4-4-7.3c-0.9-0.5-2-0.8-2-0.8s0.9-0.4,1.9-1.3
	c1.6-1.4,3.2-3.1,3.2-8.4c0-2.6,0-3.7,0-3.7c0-6-3.6-9.7-12-9.7c-5.3,0-18.3,0-18.3,0v48c0,0,13.1,0,18.6,0
	C115.1,73.1,120.5,69.8,120.5,60.8z"/>
<path d="M445.7,33h3.4c1.5,0,3.1,0.9,3.1,3.5s0,3.2,0,4.7c0,2.1-1.3,3.6-3.3,3.6s-3.2,0-3.2,0V33 M445.7,52.8c0,0,1.6,0,3.3,0
	c1.7,0,3.6,0.8,3.6,4.3s0,15.9,0,15.9h11.7V57.2c0-3-0.4-5.2-2.5-6.8c-1.2-0.9-2.7-1.5-2.7-1.5s0.8-0.3,1.6-1.1
	c1.4-1.3,2.8-3.3,2.8-6.8c0-3.9,0-5.8,0-5.8c0-6.1-4.2-10.2-11.8-10.2c-7.2,0-17.6,0-17.6,0v48h11.6V52.8L445.7,52.8z"/>
<path d="M301,59.6c0,2.4-1.1,4.9-4.4,4.9h-3.1v-31h3.2c3.4,0,4.2,2.1,4.2,5.3C301,41.1,301,59.6,301,59.6 M312.8,59.4
	c0-7.5,0-14.6,0-22c0-8.3-4.8-12.5-13.6-12.5c-7.9,0-17.3,0-17.3,0V73c0,0,9.5,0,17,0C307.2,73,312.8,68.5,312.8,59.4z"/>
<polyline points="219.1,50.1 227.5,73 240.9,73 230.8,48.8 240.5,25 227.5,25 219.1,47.9 219.1,25 207.2,25 207.2,73 219.1,73 
	219.1,50.1 "/>
<polyline points="385.6,50.1 393.9,73.1 407.1,73.1 397.2,48.8 406.9,25 393.9,25 385.6,47.9 385.6,25 373.9,25 373.9,73 385.6,73 
	385.6,50.1 "/>
<path d="M248.6,57.7c0-3.8,1.7-6.1,3.9-7l14.3,15.1c-0.7,2.5-3.5,4.1-6.9,4.1c-2.2,0-3.9,0-3.9,0c-5.2,0-7.4-2.4-7.4-6.6V57.7
	 M255.2,74.1c0,0,1.7,0,4.5,0c5.6,0,8.8-2.3,10.3-5.2l3.8,4.2h6.3l-8.2-8.6c0-0.4,0.1-0.7,0.1-1.1V49.6h-4.5v10.3
	c0,0-13.4-14-15-15.8c-1.4-1.5-2.9-3.9-2.9-7.4V35c0-3.8,2.6-6.8,7.8-6.8c1.1,0,0.7,0,1.5,0c5.8,0,7.1,3.5,7.1,7.4v3.5h4.5v-4.4
	c0-6.6-2.7-10.7-11-10.7h-2.4c-7.5,0-12.1,3.9-12.1,10.7v2.9c0,4.4,1.8,7,3.2,8.5l1.6,1.7c-3.2,1.5-5.7,4.6-5.7,9.4v6
	C244,69.8,247.8,74.1,255.2,74.1z"/>
<polyline class="st0" points="38.9,25 25,49.1 27.3,53.1 43.6,25 38.9,25 "/>
<polyline class="st0" points="57.5,25 34.3,65.2 36.6,69.2 62.1,25 57.5,25 "/>
<polyline class="st0" points="38.9,73.2 66.7,73.2 80.6,49.1 66.7,25 38.9,73.2 "/>
<polyline class="st0" points="48.2,25 29.6,57.2 32,61.2 52.8,25 48.2,25 "/>
<path d="M470.2,26c-2.6,0-4.8,2-4.8,4.9c0,2.8,2,4.9,4.8,4.9c2.6,0,4.8-2,4.8-4.9C475,27.9,472.7,26,470.2,26z M470.2,34.9
	c-2.3,0-3.7-1.8-3.7-4c0-2.3,1.6-4,3.7-4s3.8,1.6,3.7,4C473.9,33.3,472.3,34.9,470.2,34.9z"/>
<path d="M472.4,29.8c0-1-0.7-1.5-2-1.5h-2v5.4h0.9l0-2.3h0.8l1.4,2.3h1l-1.5-2.4C471.8,31.2,472.4,30.8,472.4,29.8z M470.3,30.7
	h-1.1v-1.6h1.1c0.6,0,1.2,0,1.2,0.7s-0.5,0.8-1.2,0.8V30.7z"/>
</svg>
