<?xml version="1.0" encoding="utf-8"?>
<!-- Generator: Adobe Illustrator 21.0.2, SVG Export Plug-In . SVG Version: 6.00 Build 0)  -->
<svg version="1.1" id="Calque_1" xmlns="http://www.w3.org/2000/svg" xmlns:xlink="http://www.w3.org/1999/xlink" x="0px" y="0px"
	 viewBox="0 0 500 176" style="enable-background:new 0 0 500 176;" xml:space="preserve">
<style type="text/css">
	.st0{fill:#005EA8;}
	.st1{fill:#97BF0D;}
</style>
<path class="st0" d="M367.8,79.1c-7.4,0-9.6,6.4-9.6,11.7s2.2,11.6,9.6,11.6s9.7-6.3,9.7-11.6C377.5,85.5,375.2,79.1,367.8,79.1z"/>
<path class="st0" d="M86.1,87.6H72.5v12.6h13.6c5.4,0,9.1-1.6,9.1-6.2C95.3,89.2,91.3,87.6,86.1,87.6z"/>
<path class="st0" d="M92.6,73.1c0-4-3.4-5.3-6.9-5.3H72.5v10.6h13.2C88.6,78.3,92.6,77,92.6,73.1z"/>
<path class="st0" d="M158.4,94.3c-3.5,0.7-6.5,2-6.5,5.3c0,3.4,3.1,4.8,6.6,4.8c7.6,0,10.1-3.7,9.7-12.3
	C166,93.3,161.9,93.5,158.4,94.3z"/>
<path class="st0" d="M474.9,94.1V19.4H25v137.1h328.8H396C481.3,156.5,474.9,94.1,474.9,94.1z M86.9,111.7H55.5v-55H86
	c11.2-0.2,23.6,2.3,23.6,13.8c0,4.9-3.5,8.9-8.6,11.1c6.9,1.7,11.2,6.8,11.2,13C112.3,107.7,100.9,111.7,86.9,111.7z M132.6,111.7
	h-15.1v-55h15.1V111.7z M169.4,111.6c-0.6-1.3-0.7-2.6-0.9-3.9c-4.1,3.7-10.2,5.2-16,5.2c-9.2,0-16.5-4-16.5-12.6
	c0-13.6,17.2-12.6,28.2-14.5c2.7-0.5,4.2-1.3,4.2-3.9c0-3.1-4.4-4.4-7.7-4.4c-4.4,0-7.2,1.7-7.9,5.2H138c0.3-5.5,3.3-9,7.6-11.2
	c4.3-2.1,9.9-2.9,15.4-2.9c11.5,0,22.6,2.2,22.6,14v18.3c0,3.5,0,7.4,1.9,10.7L169.4,111.6L169.4,111.6z M236.1,111.7H221V92
	c0-5.6,0.7-11.2-7.6-11.2c-5.7,0-8.2,4.2-8.2,8.7v22.3h-15.1V71h14.7v5.6h0.2c2.8-4.2,9-6.8,14.5-6.8c15.4,0,16.7,9.9,16.7,15.8
	L236.1,111.7L236.1,111.7z M264.9,112.9c-14.9,0-25.9-8.6-25.9-21.4c0-13.3,10-22.8,25.9-22.8c12.3,0,23.3,5.5,24.4,16.5h-15.7
	c-0.1-3.5-3.8-6-7.9-6c-9.1,0-10.5,6.5-10.5,12.3c0,5.4,2.8,11,9.6,11c5.6,0,8.5-2.7,9.2-7.2h15.7
	C288.3,106.4,278,112.9,264.9,112.9z M339.2,111.7h-15.1V92.3c0-5.5,0.7-11-7.6-11c-5.7,0-8.2,4.2-8.2,8.6v21.8h-15.1V56.6h15.1
	v20.5h0.2c2.3-4.1,8.6-6.6,14.1-6.6c15.4,0,16.7,9.7,16.7,15.5L339.2,111.7L339.2,111.7z M367.8,112.9c-15,0-25.4-9.5-25.4-22.1
	s10.4-22.2,25.4-22.2s25.5,9.6,25.5,22.2C393.3,103.3,382.8,112.9,367.8,112.9z M443.9,111.7h-15.1V91.5c0-5.7,0.7-11.5-7.6-11.5
	c-5.7,0-8.2,4.3-8.2,8.9v22.8h-15.1V69.9h14.7v5.7h0.2c2.8-4.3,9-6.9,14.5-6.9c15.4,0,16.7,10.1,16.7,16.2v26.8H443.9z"/>
<path class="st1" d="M362.5,156.5h33.6c51.6,0,69.6-22.8,75.8-40.9l0,0l0,0c0,0-31.5-5.9-61.5,5.3c-30,11.2-48.1,35.5-48.1,35.5
	L362.5,156.5L362.5,156.5z"/>
</svg>
