<?xml version="1.0" encoding="utf-8"?>
<!-- Generator: Adobe Illustrator 19.1.0, SVG Export Plug-In . SVG Version: 6.00 Build 0)  -->
<svg version="1.1" id="Calque_1" xmlns="http://www.w3.org/2000/svg" xmlns:xlink="http://www.w3.org/1999/xlink" x="0px" y="0px"
	 viewBox="-345 170.9 500 500" style="enable-background:new -345 170.9 500 500;" xml:space="preserve">
<style type="text/css">
	.st0{fill:#1A171B;}
</style>
<path class="st0" d="M-298.1,367.3h43.3c6.7,0,11.9,0.9,15.8,2.7c3.9,1.8,6.8,3.9,8.9,6.3c2,2.4,3.3,5,3.9,7.7
	c0.6,2.7,0.8,5,0.8,6.8c0,3-0.4,5.8-1.3,8.5c-0.9,2.7-2.2,5.1-3.9,7.2c-1.7,2.2-3.7,3.9-6.1,5.3c-2.4,1.4-5,2.3-8,2.8v0.3
	c10,3.2,15.1,10.2,15.1,21.1c0,2.6-0.5,5.7-1.5,9.4c-1,3.6-2.9,7.1-5.7,10.4c-2.8,3.3-6.6,6.1-11.5,8.4c-4.9,2.3-11.2,3.4-18.9,3.4
	H-319L-298.1,367.3z M-298.4,453.4h25.2c1.5,0,3.6,0,6.3-0.1c2.7-0.1,5.5-0.6,8.3-1.5c2.8-0.9,5.3-2.4,7.5-4.6
	c2.2-2.2,3.5-5.3,3.9-9.4c0.1-1.2,0.1-2.7-0.1-4.5c-0.1-1.8-0.8-3.5-2-5.2c-1.2-1.7-3-3.1-5.5-4.3c-2.5-1.2-6-1.8-10.5-1.8h-26.6
	L-298.4,453.4z M-289.3,409.3h26.3c4.3,0,7.8-0.6,10.4-1.7c2.6-1.1,4.6-2.5,6.1-4.2c1.4-1.6,2.3-3.4,2.8-5.2
	c0.5-1.8,0.7-3.4,0.7-4.7c0-1-0.1-2.2-0.4-3.6c-0.3-1.4-0.9-2.7-2-3.9c-1-1.3-2.6-2.3-4.6-3.2c-2.1-0.8-4.9-1.3-8.4-1.3h-25.1
	L-289.3,409.3z"/>
<path class="st0" d="M-215.7,426.2c0-10.5,1.6-19.6,4.7-27.4c3.1-7.7,7.3-14.1,12.4-19.1c5.1-5,10.9-8.7,17.3-11.2
	c6.4-2.4,12.9-3.7,19.5-3.7c6.6,0,12.6,1.1,18,3.2c5.4,2.2,10.1,5.2,13.9,9.1c3.8,3.9,6.8,8.5,8.9,13.9c2.1,5.3,3.2,11.3,3.2,17.7
	c0,10.6-1.5,19.8-4.5,27.4c-3,7.7-7,14.1-12,19.1c-5,5-10.6,8.8-17,11.2c-6.4,2.4-12.9,3.7-19.7,3.7c-7.2,0-13.6-1.1-19.1-3.4
	c-5.5-2.3-10.2-5.3-13.9-9.3c-3.8-3.9-6.6-8.6-8.6-13.9C-214.7,438.2-215.7,432.4-215.7,426.2z M-198.1,425.7
	c0,9.4,2.4,16.7,7.2,22.1c4.8,5.4,11.6,8,20.4,8c5.8,0,10.9-1.4,15.3-4.1c4.4-2.7,8-6.3,11-10.7c3-4.4,5.2-9.4,6.6-14.9
	c1.5-5.5,2.2-11.1,2.2-16.7c0-9.4-2.3-16.7-6.8-22.1c-4.6-5.3-11.2-8-20.1-8c-6,0-11.2,1.4-15.7,4.1c-4.5,2.7-8.2,6.3-11.1,10.7
	c-3,4.4-5.2,9.4-6.7,14.9C-197.3,414.5-198.1,420-198.1,425.7z"/>
<path class="st0" d="M-91.9,367.3h36.9c12.9,0,22.8,3.5,29.4,10.5c6.7,7,10,17.5,10,31.6c0,3-0.3,6.4-1,10.1
	c-0.7,3.7-1.6,7.5-3,11.3c-1.3,3.8-3,7.5-4.9,11c-2,3.5-4.3,6.6-7,9.2c-3,2.9-5.9,5.4-8.7,7.5c-2.8,2.1-6,3.9-9.4,5.3
	c-3.5,1.4-7.4,2.4-11.9,3.1c-4.5,0.7-9.8,1-16.1,1h-35.3L-91.9,367.3z M-92.4,453.4h22c5.1,0,9.5-0.9,13.3-2.6
	c3.8-1.7,7.1-3.9,9.8-6.6c2.7-2.7,5-5.7,6.8-9.1s3.3-6.7,4.4-9.9c1.1-3.2,1.8-6.3,2.3-9.1c0.4-2.9,0.6-5.1,0.6-6.8
	c0-8.8-1.9-15.6-5.8-20.4c-3.8-4.8-9.3-7.2-16.3-7.2h-22L-92.4,453.4z"/>
<path class="st0" d="M10,367.3h17.6l-21,100.5H-11L10,367.3z"/>
<path class="st0" d="M48.5,367.3h19.3l30.8,75h0.3l15.3-75h17.6L111,467.8H91.7l-31-74.6h-0.3l-15.2,74.6H27.7L48.5,367.3z"/>
</svg>
