<?xml version="1.0" encoding="utf-8"?>
<!-- Generator: Adobe Illustrator 15.0.0, SVG Export Plug-In . SVG Version: 6.00 Build 0)  -->
<!DOCTYPE svg PUBLIC "-//W3C//DTD SVG 1.1//EN" "http://www.w3.org/Graphics/SVG/1.1/DTD/svg11.dtd">
<svg version="1.1" id="Calque_1" xmlns="http://www.w3.org/2000/svg" xmlns:xlink="http://www.w3.org/1999/xlink" x="0px" y="0px"
	 width="500px" height="500px" viewBox="0 0 500 500" enable-background="new 0 0 500 500" xml:space="preserve">
<g>
	<path fill="#1A171B" d="M46.864,196.369h43.35c6.661,0,11.939,0.892,15.834,2.674c3.892,1.784,6.847,3.895,8.866,6.334
		c2.017,2.441,3.308,5.021,3.871,7.741c0.563,2.722,0.844,4.974,0.844,6.755c0,3.004-0.446,5.841-1.337,8.516
		c-0.893,2.674-2.181,5.091-3.87,7.248c-1.689,2.16-3.73,3.941-6.122,5.348c-2.393,1.408-5.045,2.346-7.953,2.815v0.282
		c10.039,3.19,15.06,10.229,15.06,21.111c0,2.629-0.517,5.749-1.548,9.36c-1.034,3.613-2.934,7.085-5.7,10.414
		c-2.769,3.333-6.615,6.147-11.542,8.445c-4.925,2.3-11.237,3.449-18.93,3.449H26.033L46.864,196.369z M46.582,282.504h25.194
		c1.5,0,3.611-0.045,6.333-0.14c2.721-0.092,5.49-0.585,8.305-1.478c2.815-0.891,5.324-2.416,7.53-4.575
		c2.203-2.156,3.494-5.299,3.87-9.43c0.092-1.219,0.07-2.721-0.071-4.504c-0.14-1.781-0.798-3.52-1.97-5.208
		c-1.174-1.689-3.004-3.118-5.489-4.292c-2.487-1.172-5.982-1.76-10.486-1.76H53.197L46.582,282.504z M55.731,238.451H82.05
		c4.315,0,7.787-0.563,10.416-1.689c2.625-1.126,4.644-2.509,6.051-4.152c1.408-1.641,2.345-3.378,2.815-5.208
		c0.469-1.829,0.704-3.4,0.704-4.715c0-1.031-0.141-2.228-0.422-3.589c-0.282-1.359-0.938-2.674-1.971-3.94
		c-1.033-1.268-2.581-2.323-4.644-3.167c-2.065-0.845-4.88-1.267-8.445-1.267H61.501L55.731,238.451z"/>
	<path fill="#1A171B" d="M129.339,255.342c0-10.509,1.57-19.635,4.715-27.376c3.143-7.741,7.271-14.121,12.386-19.141
		c5.112-5.019,10.883-8.749,17.312-11.189c6.425-2.438,12.924-3.659,19.493-3.659c6.566,0,12.572,1.08,18.015,3.237
		c5.442,2.16,10.064,5.186,13.864,9.078c3.8,3.895,6.756,8.515,8.867,13.864c2.111,5.348,3.167,11.26,3.167,17.734
		c0,10.604-1.502,19.752-4.504,27.446c-3.003,7.695-6.991,14.052-11.964,19.07c-4.975,5.021-10.649,8.751-17.03,11.189
		c-6.382,2.438-12.948,3.658-19.704,3.658c-7.226,0-13.606-1.125-19.142-3.376c-5.537-2.252-10.182-5.349-13.934-9.29
		c-3.753-3.94-6.615-8.586-8.585-13.934C130.324,267.304,129.339,261.534,129.339,255.342z M146.932,254.778
		c0,9.383,2.392,16.748,7.177,22.096c4.786,5.35,11.587,8.023,20.409,8.023c5.816,0,10.908-1.36,15.271-4.082
		c4.363-2.72,8.022-6.285,10.979-10.697c2.955-4.408,5.158-9.381,6.615-14.918c1.454-5.536,2.181-11.119,2.181-16.749
		c0-9.382-2.274-16.749-6.826-22.097c-4.552-5.348-11.238-8.023-20.056-8.023c-6.006,0-11.238,1.361-15.693,4.082
		c-4.458,2.723-8.164,6.287-11.119,10.697c-2.955,4.411-5.186,9.383-6.685,14.918C147.682,243.567,146.932,249.148,146.932,254.778z
		"/>
	<path fill="#1A171B" d="M253.052,196.369h36.876c12.947,0,22.751,3.497,29.415,10.485c6.661,6.991,9.992,17.523,9.992,31.598
		c0,3.004-0.329,6.357-0.985,10.063c-0.656,3.708-1.642,7.46-2.955,11.259c-1.314,3.802-2.955,7.46-4.926,10.979
		c-1.97,3.518-4.317,6.592-7.037,9.219c-3.005,2.909-5.912,5.419-8.727,7.529c-2.815,2.111-5.959,3.871-9.43,5.278
		c-3.472,1.408-7.438,2.441-11.893,3.097c-4.458,0.657-9.83,0.985-16.115,0.985h-35.327L253.052,196.369z M252.63,282.504h21.956
		c5.067,0,9.499-0.866,13.301-2.604c3.8-1.734,7.06-3.941,9.781-6.615c2.72-2.674,4.996-5.699,6.826-9.077s3.283-6.687,4.362-9.923
		c1.079-3.237,1.83-6.285,2.252-9.149c0.424-2.861,0.635-5.137,0.635-6.826c0-8.818-1.925-15.623-5.771-20.408
		c-3.848-4.785-9.288-7.178-16.326-7.178H267.69L252.63,282.504z"/>
	<path fill="#1A171B" d="M354.95,196.369h17.592l-20.97,100.493h-17.594L354.95,196.369z"/>
	<path fill="#1A171B" d="M393.514,196.369h19.28l30.823,75.017h0.282l15.342-75.017h17.592l-20.83,100.493h-19.281l-30.964-74.596
		h-0.282l-15.2,74.596h-17.593L393.514,196.369z"/>
</g>
</svg>
