<?xml version="1.0" encoding="utf-8"?>
<!-- Generator: Adobe Illustrator 19.1.0, SVG Export Plug-In . SVG Version: 6.00 Build 0)  -->
<svg version="1.1" id="Calque_1" xmlns="http://www.w3.org/2000/svg" xmlns:xlink="http://www.w3.org/1999/xlink" x="0px" y="0px"
	 viewBox="-345 170.9 500 500" style="enable-background:new -345 170.9 500 500;" xml:space="preserve">
<style type="text/css">
	.st0{fill:#939393;}
	.st1{fill:#233589;}
</style>
<path class="st0" d="M-277,440.7c-1.4,0-9,0-9,0c-0.4,0-0.3,0-0.7,0c-0.2,0-0.3,0-0.5-0.1c-0.1-0.2-0.2-0.4-0.2-0.7v-19.5
	c0,0,0,0,0,0v-9.2l-9.7,1v1.1c0,0,4.7-0.1,4.7,2.6c0,0.6,0,20.5,0,25.8l0,1.1h8.8c0,0,0,0,0,0h10.5V437h-1.1
	C-274.2,437-274.2,440.7-277,440.7z"/>
<path class="st1" d="M-33.3,424.3c-2.6-1-4.7-2-6-2.9c-1.4-1-2-2.2-2-3.7c0-0.7,0.2-1.3,0.5-1.9c0.3-0.6,0.8-1.1,1.3-1.5
	c0.5-0.4,1.2-0.7,1.9-0.9c0.7-0.2,1.5-0.3,2.3-0.3c1.6,0,7.2,1.1,8.5,1.6c0-0.7,0-1.5,0-2.3c-1.4-0.5-2.7-0.8-3.9-1
	c-1.5-0.3-3-0.4-4.6-0.4c-1.5,0-2.9,0.2-4.2,0.7c-1.2,0.4-2.3,1.1-3.2,1.8c-0.9,0.8-1.5,1.7-2,2.7c-0.5,1-0.7,2.1-0.7,3.3
	c0,1.3,0.2,2.5,0.7,3.5c0.5,1,1.1,1.8,2,2.6s1.9,1.4,3.1,1.9c1.2,0.6,2.5,1.1,4,1.6c2.3,0.8,4,1.6,5.2,2.6c1.2,1,1.8,2.3,1.8,3.9
	c0,0.7-0.1,1.4-0.4,2.1c-0.3,0.6-0.7,1.2-1.2,1.7c-0.5,0.5-1.2,0.9-2.1,1.2c-0.8,0.3-1.8,0.4-2.9,0.4c-4.5,0.1-7.9-1.9-9.5-2.8
	c0,0.1,0,2.2,0.1,3.5c0,0,1.8,0.4,3.5,0.8c1.7,0.4,3.7,0.6,5.8,0.6c2,0,3.8-0.2,5.2-0.7c1.4-0.5,2.6-1.1,3.5-2c0.9-0.8,1.6-1.8,2-3
	c0.4-1.1,0.6-2.4,0.6-3.7c0-2.2-0.8-4-2.3-5.5C-27.6,426.8-30,425.5-33.3,424.3z"/>
<path class="st1" d="M15.8,424.5c-2.6-1-4.7-1.9-6-2.9c-1.4-0.9-2-2.2-2-3.6c0-0.7,0.2-1.3,0.5-1.9c0.3-0.6,0.8-1,1.3-1.4
	c0.6-0.4,1.2-0.7,1.9-0.9c0.7-0.2,1.5-0.3,2.3-0.3c1.6,0,7.2,1.1,8.5,1.6c0-0.7,0-1.5,0-2.2c-1.4-0.5-2.7-0.8-3.9-1
	c-1.5-0.3-3-0.4-4.6-0.4c-1.5,0-2.9,0.2-4.2,0.7c-1.2,0.4-2.3,1-3.2,1.8c-0.9,0.8-1.5,1.6-2,2.7c-0.5,1-0.7,2.1-0.7,3.3
	c0,1.3,0.2,2.5,0.7,3.4c0.5,1,1.1,1.8,2,2.5c0.9,0.7,1.9,1.4,3.1,1.9c1.2,0.5,2.5,1.1,4,1.6c2.3,0.8,4,1.6,5.2,2.5s1.8,2.2,1.8,3.9
	c0,0.7-0.1,1.4-0.4,2c-0.3,0.6-0.7,1.2-1.2,1.7c-0.6,0.5-1.2,0.9-2.1,1.2c-0.8,0.3-1.8,0.4-2.9,0.4c-4.5,0.1-7.9-1.9-9.5-2.7
	c0,0.1,0,2.2,0.1,3.5c0,0,1.8,0.4,3.5,0.8c1.7,0.4,3.7,0.6,5.8,0.6c2,0,3.8-0.2,5.2-0.7c1.4-0.5,2.6-1.1,3.5-2
	c0.9-0.8,1.6-1.8,2-2.9c0.4-1.1,0.6-2.3,0.6-3.6c0-2.1-0.8-3.9-2.3-5.4C21.5,427.1,19.1,425.7,15.8,424.5z"/>
<path class="st0" d="M-308.1,411.1h-14.7c0,0,0,0,0,0.1c0,0.1,0,0.3,0,0.4c0,0.5,0.2,0.8,0.5,0.8c1.4,0.3,2.4,0.5,2.9,0.8
	c0.5,0.2,0.7,0.7,0.7,1.4l0,28.2h19v0h0.4V437h-1.1c0,0,0,3.7-2.8,3.7c-1.4,0-9,0-9,0c-0.4,0-0.3,0-0.7,0c-0.4,0-0.9-0.1-1-1.4
	v-11.4c1.1,0,6.6,0,7.9,0c2.8,0,2.8,3.7,2.8,3.7h1.1v-9c0,0,0,0-1.1,0c0,3.2-2.9,3.2-2.9,3.2h-7.7v-11.2c0-1.3,0.6-1.4,1-1.4
	c0.4,0,0.3,0,0.7,0c0,0,7.6,0,9,0c2.8,0,2.8,3.7,2.8,3.7h1.1v-5.7L-308.1,411.1C-308.1,411.1-308.1,411.1-308.1,411.1z"/>
<path class="st0" d="M-258.2,411.1h-14.7c0,0,0,0,0,0.1c0,0.1,0,0.3,0,0.4c0,0.5,0.2,0.8,0.5,0.8c1.4,0.3,2.4,0.5,2.9,0.8
	c0.5,0.2,0.7,0.7,0.7,1.4l0,28.2h19v0h0.4V437h-1.1c0,0,0,3.7-2.8,3.7c-1.4,0-9,0-9,0c-0.4,0-0.3,0-0.7,0c-0.4,0-0.9-0.1-1-1.4
	v-11.4c1.1,0,6.6,0,7.9,0c2.8,0,2.8,3.7,2.8,3.7h1.1v-9c0,0,0,0-1.1,0c0,3.2-2.9,3.2-2.9,3.2h-7.7v-11.2c0-1.3,0.6-1.4,1-1.4
	c0.4,0,0.3,0,0.7,0c0,0,7.6,0,9,0c2.8,0,2.8,3.7,2.8,3.7h1.1v-5.7L-258.2,411.1C-258.2,411.1-258.2,411.1-258.2,411.1z"/>
<path class="st0" d="M-190.6,411.1h-14.7c0,0,0,0,0,0.1c0,0.1,0,0.3,0,0.4c0,0.5,0.2,0.8,0.5,0.8c1.4,0.3,2.4,0.5,2.9,0.8
	c0.5,0.2,0.7,0.7,0.7,1.4l0,28.2h19v0h0.4V437h-1.1c0,0,0,3.7-2.8,3.7c-1.4,0-9,0-9,0c-0.4,0-0.3,0-0.7,0c-0.4,0-0.9-0.1-1-1.4
	v-11.4c1.1,0,6.6,0,7.9,0c2.8,0,2.8,3.7,2.8,3.7h1.1v-9c0,0,0,0-1.1,0c0,3.2-2.9,3.2-2.9,3.2h-7.7v-11.2c0-1.3,0.6-1.4,1-1.4
	c0.4,0,0.3,0,0.7,0c0,0,7.6,0,9,0c2.8,0,2.8,3.7,2.8,3.7h1.1v-5.7L-190.6,411.1C-190.6,411.1-190.6,411.1-190.6,411.1z"/>
<path class="st1" d="M68.2,411.1H53.5c0,0,0,0,0,0.1c0,0.1,0,0.3,0,0.4c0,0.5,0.2,0.8,0.5,0.8c1.4,0.3,2.4,0.5,2.9,0.8
	c0.5,0.2,0.7,0.7,0.7,1.4l0,28.2h19v0h0.4V437H76c0,0,0,3.7-2.8,3.7c-1.4,0-9,0-9,0c-0.4,0-0.3,0-0.7,0c-0.4,0-0.9-0.1-1-1.4v-11.4
	c1.1,0,6.6,0,7.9,0c2.8,0,2.8,3.7,2.8,3.7h1.1v-9c0,0,0,0-1.1,0c0,3.2-2.9,3.2-2.9,3.2h-7.7v-11.2c0-1.3,0.6-1.4,1-1.4
	c0.4,0,0.3,0,0.7,0c0,0,7.6,0,9,0c2.8,0,2.8,3.7,2.8,3.7h1.1v-5.7L68.2,411.1C68.2,411.1,68.2,411.1,68.2,411.1z"/>
<path class="st0" d="M-154.1,436l-13.6-22.9c-0.1-0.1-1-2-2.8-2h-7.9c0,0,0,0,0,1.1c2.1,0,4.2,1,4.5,1.8v28.8l2.9,0v-24.3l15.6,24.3
	l1.4,0c0,0,0,0,0,0h3.1v-31.7h-3.1L-154.1,436L-154.1,436z"/>
<path class="st0" d="M-216.7,411C-216.7,411-216.7,411-216.7,411c-0.3,0.1-0.6,0.1-0.8,0.2c-0.2,0.1-0.4,0.2-0.4,0.3
	c-0.1,0.1-0.2,0.3-0.2,0.4l-8.8,25.6l-9.5-25.6c-0.1-0.1-0.2-0.3-0.2-0.4c-0.1-0.1-0.3-0.3-0.5-0.4h-10c0,0,0,0,0,1.1
	c1.9,0,4.8,0.6,4.8,2.7v27.9h0.1h2.2h0.4v-26.5l10,26.4l3.6,0l9.8-25.4v25.5h0.4h4.3v-31V411L-216.7,411L-216.7,411z"/>
<path class="st1" d="M112.1,411C112.1,411,112.1,411,112.1,411c-0.3,0.1-0.6,0.1-0.8,0.2c-0.2,0.1-0.4,0.2-0.4,0.3
	c-0.1,0.1-0.2,0.3-0.2,0.4l-8.8,25.6l-9.5-25.6c-0.1-0.1-0.1-0.3-0.2-0.4c-0.1-0.1-0.3-0.3-0.5-0.4h-10c0,0,0,0,0,1.1
	c1.9,0,4.8,0.6,4.8,2.7v27.9h0.1h2.2h0.4v-26.5l10,26.4l3.6,0l9.8-25.4v25.5h0.4h4.3v-31V411L112.1,411L112.1,411z"/>
<path class="st0" d="M-127.1,410.8h-17.4h-3.4h-0.1v6.7h1.1c0,0,0-4.2,2.6-4.4h5.9v29.7h5.3v-29.7h5.9c2.6,0.3,2.6,4.4,2.6,4.4h1.1
	v-6.7h0L-127.1,410.8L-127.1,410.8z"/>
<path class="st1" d="M48,410.8H30.5h-3.4h-0.1v6.7h1.1c0,0,0-4.2,2.6-4.4h5.9v29.7h5.3v-29.7h5.9c2.6,0.3,2.6,4.4,2.6,4.4h1.1v-6.7
	h0L48,410.8L48,410.8z"/>
<path class="st1" d="M-7,424.3l-8-13.4l-3.5,0l0,0h-5.4c0,0,0,0,0,1.1c3.5,0,5,2.8,5,2.8l7.5,12.2v16.2h5.3v-15.5L4.2,411
	c-0.9,0-2,0-2.9,0L-7,424.3z"/>
<path class="st0" d="M-115.5,384.1v22.5c0,0,52.5-15.6,56-16.6c3.8-1.1,8.3-1.7,8.3-5.7C-64,384.3-115.5,384.1-115.5,384.1z"/>
<path class="st1" d="M-115.5,411.4v22.5c0,0,52.5-15.6,56-16.6c3.8-1.1,8.3-1.7,8.3-5.7C-64,411.5-115.5,411.4-115.5,411.4z"/>
<path class="st1" d="M-115.5,438v22.5c0,0,52.5-15.6,56-16.6c3.8-1.1,8.3-1.7,8.3-5.7C-64,438.1-115.5,438-115.5,438z"/>
<path class="st1" d="M131,417c-0.1-0.1-0.3-0.2-0.5-0.3c0.6-0.1,1-0.3,1.3-0.6c0.3-0.3,0.4-0.7,0.4-1.1c0-0.3-0.1-0.6-0.3-0.9
	c-0.2-0.3-0.4-0.5-0.7-0.6c-0.3-0.1-0.7-0.2-1.3-0.2h-2.7v6.2h0.8v-2.7h0.9c0.2,0,0.4,0,0.5,0c0.1,0,0.3,0.1,0.4,0.2
	c0.1,0.1,0.3,0.2,0.4,0.4s0.4,0.5,0.6,0.9l0.8,1.3h1l-1.1-1.7C131.5,417.5,131.2,417.2,131,417z M129.9,416.1h-1.8v-2h2
	c0.5,0,0.8,0.1,1,0.3c0.2,0.2,0.3,0.4,0.3,0.7c0,0.2-0.1,0.4-0.2,0.6c-0.1,0.2-0.3,0.3-0.5,0.4S130.2,416.1,129.9,416.1z"/>
<path class="st1" d="M129.4,410.1c-3.5,0-6.3,2.8-6.3,6.3s2.8,6.3,6.3,6.3c3.5,0,6.3-2.8,6.3-6.3
	C135.7,412.9,132.9,410.1,129.4,410.1z M129.4,422c-3.1,0-5.6-2.5-5.6-5.6c0-3.1,2.5-5.6,5.6-5.6c3.1,0,5.6,2.5,5.6,5.6
	C135,419.5,132.5,422,129.4,422z"/>
</svg>
