<?xml version="1.0" encoding="utf-8"?>
<!-- Generator: Adobe Illustrator 16.0.0, SVG Export Plug-In . SVG Version: 6.00 Build 0)  -->
<!DOCTYPE svg PUBLIC "-//W3C//DTD SVG 1.1//EN" "http://www.w3.org/Graphics/SVG/1.1/DTD/svg11.dtd">
<svg version="1.1" id="Calque_2" xmlns="http://www.w3.org/2000/svg" xmlns:xlink="http://www.w3.org/1999/xlink" x="0px" y="0px"
	 width="500px" height="500px" viewBox="0 0 500 500" enable-background="new 0 0 500 500" xml:space="preserve">
<g>
	<path fill="#9C9E9F" d="M28.716,245.837c0-4.606-0.14-4.606-4.42-5.304v-1.023h22.288l0.14,6.886H45.42
		c0-3.723-1.955-4.699-5.025-4.699h-3.629c-2.327,0-2.932,0.186-2.932,2.419v9.26h5.63c3.21,0,3.537-2.048,3.816-3.583h1.303v9.771
		H43.28c0-2.513-1.024-4.002-3.816-4.002h-5.63v10.376c0,2.605,0.605,2.698,2.932,2.698h5.165c2.652,0,3.908-0.93,4.188-4.559h1.303
		l-0.139,6.746H28.716V245.837z"/>
	<path fill="#9C9E9F" d="M54.031,245.651c0-3.909-0.14-3.955-4.653-4.56v-1.023l9.771-1.07v26.149c0,3.489,0,3.489,3.118,3.489
		h4.001c2.931,0,5.49-0.186,5.49-4.559h1.303l-0.14,6.746H54.031V245.651z"/>
	<path fill="#9C9E9F" d="M77.439,245.837c0-4.606-0.14-4.606-4.42-5.304v-1.023h22.288l0.14,6.886h-1.303
		c0-3.723-1.954-4.699-5.025-4.699h-3.629c-2.327,0-2.931,0.186-2.931,2.419v9.26h5.63c3.21,0,3.537-2.048,3.815-3.583h1.303v9.771
		h-1.303c0-2.513-1.023-4.002-3.815-4.002h-5.63v10.376c0,2.605,0.604,2.698,2.931,2.698h5.165c2.652,0,3.908-0.93,4.188-4.559
		h1.303l-0.14,6.746H77.439V245.837z"/>
	<path fill="#9C9E9F" d="M103.961,245.465c0-4.327-0.651-4.141-4.606-4.932v-1.023h10.562l9.213,25.684h0.093l9.027-25.684h6.281
		v31.314h-4.653v-27.685h-0.093l-9.771,27.685h-3.304l-9.725-27.406h-0.093v27.406h-2.932V245.465z"/>
	<path fill="#9C9E9F" d="M143.305,245.837c0-4.606-0.14-4.606-4.42-5.304v-1.023h22.288l0.14,6.886h-1.303
		c0-3.723-1.955-4.699-5.025-4.699h-3.629c-2.327,0-2.931,0.186-2.931,2.419v9.26h5.63c3.21,0,3.537-2.048,3.815-3.583h1.303v9.771
		h-1.303c0-2.513-1.023-4.002-3.815-4.002h-5.63v10.376c0,2.605,0.604,2.698,2.931,2.698h5.165c2.652,0,3.908-0.93,4.188-4.559
		h1.303l-0.14,6.746h-18.565V245.837z"/>
	<path fill="#9C9E9F" d="M170.547,245.465c0-4.327-0.651-4.141-4.653-4.932v-1.023h9.818l14.656,25.312h0.093v-25.312h2.932v31.314
		h-4.467l-15.355-26.475h-0.093v26.475h-2.931V245.465z"/>
	<path fill="#9C9E9F" d="M205.542,241.696h-3.21c-3.676,0-4.746,1.163-5.025,4.56h-1.303l0.186-6.747h23.823l0.186,6.886h-1.303
		c0-3.583-1.489-4.699-5.072-4.699h-3.164v29.127h-5.118V241.696z"/>
	<path fill="#172983" d="M315.217,243.278c-1.257-0.605-4.7-2.094-8.329-2.094c-2.467,0-4.468,1.442-4.468,4.513
		c0,7.166,15.122,6.514,15.122,16.472c0,6.653-5.258,9.166-11.679,9.166c-3.583,0-7.166-0.977-8.144-1.21v-3.769
		c1.443,0.838,5.165,2.792,8.889,2.792c2.931,0,5.816-1.21,5.816-5.443c0-7.538-15.123-6.841-15.123-16.658
		c0-5.118,3.908-8.05,10.47-8.05c3.211,0,6.235,0.605,7.445,0.838V243.278z"/>
	<path fill="#172983" d="M329.783,256.213l-7.491-12.563c-1.629-2.745-2.792-2.745-5.118-3.117v-1.023h8.654l7.91,13.726
		l8.143-13.726h2.978l-9.957,16.704v14.61h-5.118V256.213z"/>
	<path fill="#172983" d="M363.94,243.278c-1.257-0.605-4.699-2.094-8.328-2.094c-2.467,0-4.468,1.442-4.468,4.513
		c0,7.166,15.122,6.514,15.122,16.472c0,6.653-5.258,9.166-11.679,9.166c-3.583,0-7.166-0.977-8.143-1.21v-3.769
		c1.442,0.838,5.165,2.792,8.887,2.792c2.933,0,5.816-1.21,5.816-5.443c0-7.538-15.122-6.841-15.122-16.658
		c0-5.118,3.908-8.05,10.47-8.05c3.21,0,6.234,0.605,7.444,0.838V243.278z"/>
	<path fill="#172983" d="M376.343,241.696h-3.211c-3.676,0-4.746,1.163-5.024,4.56h-1.304l0.187-6.747h23.823l0.187,6.886h-1.304
		c0-3.583-1.488-4.699-5.071-4.699h-3.164v29.127h-5.118V241.696z"/>
	<path fill="#172983" d="M397.024,245.837c0-4.606-0.14-4.606-4.42-5.304v-1.023h22.287l0.14,6.886h-1.303
		c0-3.723-1.954-4.699-5.025-4.699h-3.629c-2.327,0-2.931,0.186-2.931,2.419v9.26h5.63c3.21,0,3.535-2.048,3.815-3.583h1.302v9.771
		h-1.302c0-2.513-1.023-4.002-3.815-4.002h-5.63v10.376c0,2.605,0.604,2.698,2.931,2.698h5.164c2.652,0,3.909-0.93,4.188-4.559
		h1.303l-0.14,6.746h-18.565V245.837z"/>
	<path fill="#172983" d="M424.893,245.465c0-4.327-0.65-4.141-4.606-4.932v-1.023h10.563l9.213,25.684h0.093l9.026-25.684h6.282
		v31.314h-4.653v-27.685h-0.093l-9.771,27.685h-3.304l-9.724-27.406h-0.094v27.406h-2.932V245.465z"/>
	<path fill="#9C9E9F" d="M227.581,213.002h63.093c0,0,0.674,3.031-3.368,4.378c-4.042,1.347-59.725,17.513-59.725,17.513V213.002z"
		/>
	<path fill="#172983" d="M227.581,239.319h63.093c0,0,0.674,3.031-3.368,4.378s-59.725,17.514-59.725,17.514V239.319z"/>
	<path fill="#172983" d="M227.581,265.637h63.093c0,0,0.674,3.031-3.368,4.378c-4.042,1.348-59.725,17.515-59.725,17.515V265.637z"
		/>
	<g>
		<path fill="#172983" d="M467.997,238.396c1.058,0,2.092,0.271,3.1,0.815c1.008,0.543,1.793,1.32,2.355,2.331
			c0.563,1.011,0.844,2.065,0.844,3.162c0,1.086-0.276,2.131-0.831,3.133c-0.554,1.002-1.331,1.781-2.33,2.335
			c-1,0.554-2.046,0.832-3.138,0.832s-2.138-0.277-3.138-0.832s-1.778-1.333-2.334-2.335c-0.559-1.002-0.837-2.047-0.837-3.133
			c0-1.097,0.283-2.151,0.849-3.162c0.564-1.011,1.353-1.788,2.36-2.331C465.905,238.667,466.938,238.396,467.997,238.396z
			 M467.997,239.441c-0.886,0-1.748,0.227-2.586,0.68c-0.839,0.455-1.494,1.104-1.968,1.947c-0.474,0.844-0.711,1.723-0.711,2.636
			c0,0.908,0.233,1.778,0.698,2.611c0.465,0.833,1.116,1.482,1.951,1.947c0.835,0.465,1.707,0.698,2.615,0.698
			c0.907,0,1.779-0.233,2.615-0.698c0.834-0.465,1.483-1.114,1.947-1.947c0.461-0.833,0.693-1.703,0.693-2.611
			c0-0.914-0.236-1.792-0.707-2.636c-0.471-0.843-1.127-1.492-1.968-1.947C469.737,239.667,468.876,239.441,467.997,239.441z
			 M465.231,248.188v-6.785h2.331c0.797,0,1.373,0.063,1.729,0.188s0.641,0.344,0.853,0.656c0.212,0.312,0.316,0.643,0.316,0.994
			c0,0.496-0.176,0.927-0.529,1.294c-0.354,0.368-0.824,0.574-1.409,0.619c0.24,0.1,0.433,0.22,0.577,0.359
			c0.272,0.267,0.607,0.715,1.003,1.346l0.826,1.328h-1.336l-0.603-1.07c-0.474-0.841-0.854-1.367-1.145-1.58
			c-0.2-0.156-0.492-0.233-0.876-0.233h-0.644v2.883H465.231z M466.326,244.37h1.328c0.636,0,1.067-0.094,1.3-0.284
			c0.23-0.189,0.347-0.44,0.347-0.752c0-0.2-0.057-0.379-0.167-0.539c-0.112-0.159-0.267-0.277-0.464-0.355
			c-0.198-0.078-0.564-0.117-1.099-0.117h-1.245V244.37z"/>
	</g>
</g>
</svg>
