<?xml version="1.0" encoding="utf-8"?>
<!-- Generator: Adobe Illustrator 21.0.2, SVG Export Plug-In . SVG Version: 6.00 Build 0)  -->
<svg version="1.1" id="Calque_1" xmlns="http://www.w3.org/2000/svg" xmlns:xlink="http://www.w3.org/1999/xlink" x="0px" y="0px"
	 viewBox="0 0 500 308" style="enable-background:new 0 0 500 308;" xml:space="preserve">
<style type="text/css">
	.st0{fill:#1A171B;}
	.st1{fill:#E32122;}
	.st2{fill:#FFFFFF;}
</style>
<rect x="18.4" y="25.7" class="st0" width="466.1" height="259.4"/>
<rect x="21.9" y="232.1" class="st1" width="459.3" height="49.5"/>
<path class="st2" d="M29.7,217V43h62.2c12.7,0,22.8,1.8,30.5,5.3s13.6,8.9,18,16.3c4.3,7.3,6.5,15,6.5,23c0,7.4-1.9,14.4-5.8,21
	c-3.8,6.6-9.6,11.9-17.4,15.9c10,3.1,17.7,8.3,23.1,15.8c5.4,7.4,8.1,16.2,8.1,26.3c0,8.2-1.6,15.7-4.9,22.7
	c-3.3,7-7.3,12.4-12.1,16.2c-4.8,3.8-10.9,6.7-18.1,8.6c-7.3,1.9-16.2,2.9-26.7,2.9L29.7,217L29.7,217z M51.6,116.1h35.8
	c9.7,0,16.7-0.7,20.9-2c5.6-1.7,9.8-4.6,12.6-8.7c2.8-4,4.2-9.1,4.2-15.2c0-5.8-1.3-10.9-4-15.3c-2.6-4.4-6.4-7.4-11.3-9
	c-4.9-1.6-13.3-2.4-25.2-2.4H51.5v52.6H51.6z M51.6,196.5h41.3c7.1,0,12.1-0.3,14.9-0.8c5.1-0.9,9.3-2.5,12.7-4.7s6.2-5.4,8.4-9.7
	s3.3-9.1,3.3-14.7c0-6.5-1.6-12.1-4.7-16.9c-3.2-4.8-7.6-8.1-13.2-10.1s-13.7-2.9-24.2-2.9H51.8v59.8H51.6z"/>
<path class="st2" d="M164.7,126.8c0-25.2,7.9-46.8,23.7-64.9C204.1,43.8,223,34.8,245,34.8c21.8,0,40.5,9.1,56.1,27.3
	c15.6,18.2,23.5,40.1,23.5,65.7c0,25.7-7.9,47.5-23.6,65.5c-15.8,18-34.8,27-57.1,27c-19.7,0-37.5-8-53.2-24
	C173.4,178.7,164.7,155.5,164.7,126.8z M188,127.2c0,19.8,5.7,36,17,48.8s24.3,19.1,39.1,19.1c16,0,29.6-6.5,40.6-19.5
	c11-13.1,16.5-29.1,16.5-48c0-19.1-5.4-35.1-16.3-48c-10.8-13-24.2-19.5-40.2-19.5c-15.9,0-29.3,6.5-40.3,19.5
	C193.5,92.5,188,108.3,188,127.2z"/>
<path class="st2" d="M362.3,42.3v153.6h110.1v21.2H340.7V42.3H362.3z"/>
<rect x="373.2" y="43.3" class="st1" width="99.6" height="142.1"/>
<path class="st0" d="M30.3,273.7v-33.2h41.6v5.6H42.5v7.9h25.3v5.6H42.5v14.1L30.3,273.7L30.3,273.7z"/>
<path class="st0" d="M81.6,273.7v-33.2h12.3v33.2H81.6z"/>
<path class="st0" d="M99.4,273.7l20.7-17.3l-18.8-15.9h14.3l12.2,10.7l11.9-10.7h14.2L135,256.6l20.7,17.1h-14.8l-13.5-11.5
	l-13.5,11.5L99.4,273.7L99.4,273.7z"/>
<path class="st0" d="M219.2,273.7h-13.3l-5.3-7.5h-24.3l-5,7.5h-13l23.6-33.2h13L219.2,273.7z M196.6,260.6l-8.4-12.3l-8.2,12.3
	H196.6z"/>
<path class="st0" d="M230.7,273.7v-27.6h-18v-5.6H261v5.6h-18v27.6H230.7z"/>
<path class="st0" d="M268.5,273.7v-33.2h12.3v33.2H268.5z"/>
<path class="st0" d="M291.9,257.3c0-3.4,0.9-6.2,2.8-8.5c1.4-1.7,3.3-3.2,5.6-4.5c2.4-1.3,5-2.3,7.9-3c3.8-0.9,8.1-1.3,13.1-1.3
	c8.9,0,16.1,1.5,21.5,4.6c5.4,3,8.1,7.3,8.1,12.7c0,5.4-2.7,9.6-8,12.6c-5.3,3-12.5,4.5-21.4,4.5c-9,0-16.2-1.5-21.5-4.5
	C294.6,266.8,291.9,262.6,291.9,257.3z M304.5,257.1c0,3.8,1.6,6.6,4.8,8.5c3.2,1.9,7.2,2.9,12.1,2.9s8.9-1,12-2.9s4.7-4.8,4.7-8.7
	c0-3.8-1.5-6.6-4.6-8.5s-7.1-2.8-12.2-2.8c-5.1,0-9.1,0.9-12.2,2.8C306.1,250.4,304.5,253.3,304.5,257.1z"/>
<path class="st0" d="M362.4,273.7v-33.2h11.9l24.8,22.2v-22.2h11.4v33.2h-12.2l-24.5-21.6v21.7h-11.4V273.7z"/>
<path class="st0" d="M422,262.9l11.9-0.6c0.7,2.2,2.2,3.8,4.4,4.8c2.2,1,5.2,1.5,8.9,1.5c3.9,0,6.9-0.5,8.9-1.4s3-2,3-3.2
	c0-0.8-0.4-1.5-1.3-2c-0.8-0.6-2.3-1-4.4-1.4c-1.4-0.3-4.7-0.8-9.8-1.4c-6.6-0.9-11.2-2-13.8-3.3c-3.7-1.8-5.6-4.1-5.6-6.7
	c0-1.7,0.9-3.3,2.6-4.7c1.8-1.5,4.3-2.6,7.6-3.4c3.3-0.8,7.3-1.2,11.9-1.2c7.6,0,13.4,0.9,17.2,2.7c3.9,1.8,5.9,4.3,6.1,7.3
	l-12.3,0.3c-0.5-1.7-1.6-2.9-3.4-3.7c-1.7-0.7-4.3-1.1-7.8-1.1c-3.6,0-6.4,0.4-8.4,1.2c-1.3,0.5-1.9,1.2-1.9,2.1
	c0,0.8,0.6,1.5,1.8,2c1.5,0.7,5.3,1.4,11.3,2.2s10.4,1.6,13.2,2.4c2.9,0.8,5.1,1.9,6.7,3.4c1.6,1.4,2.4,3.2,2.4,5.3
	c0,1.9-1,3.7-2.9,5.3c-1.9,1.7-4.7,2.9-8.2,3.7s-7.9,1.2-13.2,1.2c-7.7,0-13.6-1-17.7-2.9C425.3,269.5,422.8,266.6,422,262.9z"/>
</svg>
