<?xml version="1.0" encoding="utf-8"?>
<!-- Generator: Adobe Illustrator 19.1.0, SVG Export Plug-In . SVG Version: 6.00 Build 0)  -->
<svg version="1.1" id="Calque_1" xmlns="http://www.w3.org/2000/svg" xmlns:xlink="http://www.w3.org/1999/xlink" x="0px" y="0px"
	 viewBox="-345 170.9 500 500" style="enable-background:new -345 170.9 500 500;" xml:space="preserve">
<style type="text/css">
	.st0{fill:#1A171B;}
	.st1{fill:#E32122;}
	.st2{fill:#FFFFFF;}
</style>
<rect x="-326.6" y="292.6" class="st0" width="466.1" height="259.4"/>
<rect x="-323.1" y="499" class="st1" width="459.3" height="49.5"/>
<path class="st2" d="M-315.3,483.9v-174h62.2c12.7,0,22.8,1.8,30.5,5.3s13.6,8.9,18,16.3c4.3,7.3,6.5,15,6.5,23
	c0,7.4-1.9,14.4-5.8,21c-3.8,6.6-9.6,11.9-17.4,15.9c10,3.1,17.7,8.3,23.1,15.8c5.4,7.4,8.1,16.2,8.1,26.3c0,8.2-1.6,15.7-4.9,22.7
	c-3.3,7-7.3,12.4-12.1,16.2c-4.8,3.8-10.9,6.7-18.1,8.6c-7.3,1.9-16.2,2.9-26.7,2.9L-315.3,483.9L-315.3,483.9z M-293.4,383h35.8
	c9.7,0,16.7-0.7,20.9-2c5.6-1.7,9.8-4.6,12.6-8.7c2.8-4,4.2-9.1,4.2-15.2c0-5.8-1.3-10.9-4-15.3c-2.6-4.4-6.4-7.4-11.3-9
	c-4.9-1.6-13.3-2.4-25.2-2.4h-33.1V383z M-293.4,463.4h41.3c7.1,0,12.1-0.3,14.9-0.8c5.1-0.9,9.3-2.5,12.7-4.7
	c3.4-2.2,6.2-5.4,8.4-9.7s3.3-9.1,3.3-14.7c0-6.5-1.6-12.1-4.7-16.9c-3.2-4.8-7.6-8.1-13.2-10.1s-13.7-2.9-24.2-2.9h-38.3V463.4z"/>
<path class="st2" d="M-180.3,393.7c0-25.2,7.9-46.8,23.7-64.9c15.7-18.1,34.6-27.1,56.6-27.1c21.8,0,40.5,9.1,56.1,27.3
	c15.6,18.2,23.5,40.1,23.5,65.7c0,25.7-7.9,47.5-23.6,65.5c-15.8,18-34.8,27-57.1,27c-19.7,0-37.5-8-53.2-24
	C-171.6,445.6-180.3,422.4-180.3,393.7z M-157,394.1c0,19.8,5.7,36,17,48.8c11.3,12.8,24.3,19.1,39.1,19.1c16,0,29.6-6.5,40.6-19.5
	c11-13.1,16.5-29.1,16.5-48c0-19.1-5.4-35.1-16.3-48c-10.8-13-24.2-19.5-40.2-19.5c-15.9,0-29.3,6.5-40.3,19.5
	C-151.5,359.4-157,375.2-157,394.1z"/>
<path class="st2" d="M17.3,309.2v153.6h110.1v21.2H-4.3V309.2H17.3z"/>
<rect x="28.2" y="310.2" class="st1" width="99.6" height="142.1"/>
<path class="st0" d="M-314.7,540.6v-33.2h41.6v5.6h-29.4v7.9h25.3v5.6h-25.3v14.1L-314.7,540.6L-314.7,540.6z"/>
<path class="st0" d="M-263.4,540.6v-33.2h12.3v33.2H-263.4z"/>
<path class="st0" d="M-245.6,540.6l20.7-17.3l-18.8-15.9h14.3l12.2,10.7l11.9-10.7h14.2l-18.9,16.1l20.7,17.1h-14.8l-13.5-11.5
	l-13.5,11.5L-245.6,540.6L-245.6,540.6z"/>
<path class="st0" d="M-125.8,540.6h-13.3l-5.3-7.5h-24.3l-5,7.5h-13l23.6-33.2h13L-125.8,540.6z M-148.4,527.5l-8.4-12.3l-8.2,12.3
	H-148.4z"/>
<path class="st0" d="M-114.3,540.6V513h-18v-5.6H-84v5.6h-18v27.6H-114.3z"/>
<path class="st0" d="M-76.5,540.6v-33.2h12.3v33.2H-76.5z"/>
<path class="st0" d="M-53.1,524.2c0-3.4,0.9-6.2,2.8-8.5c1.4-1.7,3.3-3.2,5.6-4.5c2.4-1.3,5-2.3,7.9-3c3.8-0.9,8.1-1.3,13.1-1.3
	c8.9,0,16.1,1.5,21.5,4.6c5.4,3,8.1,7.3,8.1,12.7c0,5.4-2.7,9.6-8,12.6c-5.3,3-12.5,4.5-21.4,4.5c-9,0-16.2-1.5-21.5-4.5
	C-50.4,533.7-53.1,529.5-53.1,524.2z M-40.5,524c0,3.8,1.6,6.6,4.8,8.5c3.2,1.9,7.2,2.9,12.1,2.9c4.9,0,8.9-1,12-2.9
	c3.1-1.9,4.7-4.8,4.7-8.7c0-3.8-1.5-6.6-4.6-8.5c-3.1-1.9-7.1-2.8-12.2-2.8c-5.1,0-9.1,0.9-12.2,2.8
	C-38.9,517.3-40.5,520.2-40.5,524z"/>
<path class="st0" d="M17.4,540.6v-33.2h11.9l24.8,22.2v-22.2h11.4v33.2H53.3L28.8,519v21.7H17.4z"/>
<path class="st0" d="M77,529.8l11.9-0.6c0.7,2.2,2.2,3.8,4.4,4.8c2.2,1,5.2,1.5,8.9,1.5c3.9,0,6.9-0.5,8.9-1.4c2-0.9,3-2,3-3.2
	c0-0.8-0.4-1.5-1.3-2c-0.8-0.6-2.3-1-4.4-1.4c-1.4-0.3-4.7-0.8-9.8-1.4c-6.6-0.9-11.2-2-13.8-3.3c-3.7-1.8-5.6-4.1-5.6-6.7
	c0-1.7,0.9-3.3,2.6-4.7c1.8-1.5,4.3-2.6,7.6-3.4c3.3-0.8,7.3-1.2,11.9-1.2c7.6,0,13.4,0.9,17.2,2.7c3.9,1.8,5.9,4.3,6.1,7.3
	l-12.3,0.3c-0.5-1.7-1.6-2.9-3.4-3.7c-1.7-0.7-4.3-1.1-7.8-1.1c-3.6,0-6.4,0.4-8.4,1.2c-1.3,0.5-1.9,1.2-1.9,2.1
	c0,0.8,0.6,1.5,1.8,2c1.5,0.7,5.3,1.4,11.3,2.2c6,0.8,10.4,1.6,13.2,2.4c2.9,0.8,5.1,1.9,6.7,3.4c1.6,1.4,2.4,3.2,2.4,5.3
	c0,1.9-1,3.7-2.9,5.3c-1.9,1.7-4.7,2.9-8.2,3.7c-3.5,0.8-7.9,1.2-13.2,1.2c-7.7,0-13.6-1-17.7-2.9C80.3,536.4,77.8,533.5,77,529.8z"
	/>
</svg>
