<?xml version="1.0" encoding="utf-8"?>
<!-- Generator: Adobe Illustrator 21.0.2, SVG Export Plug-In . SVG Version: 6.00 Build 0)  -->
<svg version="1.1" id="Calque_1" xmlns="http://www.w3.org/2000/svg" xmlns:xlink="http://www.w3.org/1999/xlink" x="0px" y="0px"
	 viewBox="0 0 500 90" style="enable-background:new 0 0 500 90;" xml:space="preserve">
<style type="text/css">
	.st0{fill:#006AB3;}
</style>
<polygon class="st0" points="176.4,21.5 160.1,21.5 160.1,68.5 199.9,68.5 199.9,56.3 176.4,56.3 "/>
<path class="st0" d="M68.9,43.9v-0.5c5.4-1.5,8.6-5.4,8.5-10.7c-0.2-9.5-6.2-11-18.5-11H25v46.7h34.2c7.3,0,19.1,2,20.5-12.3
	C80.2,51.1,77,44.3,68.9,43.9z M40.1,33h16.5c4.8,0.1,5.4,1.2,5.4,3.9c0,3.6-2.4,2.7-6.7,2.9H40.1V33z M55.4,58.4h-15v-8h15
	c4.6,0,7.8,0.3,7.8,3.5C63.1,57.6,61,58.4,55.4,58.4z"/>
<polygon class="st0" points="288.8,37.7 270.5,37.7 270.5,21.4 253.8,21.4 253.8,68.3 270.5,68.3 270.5,49.3 288.6,49.3 288.6,68.3 
	305.2,68.3 305.2,21.4 288.8,21.4 "/>
<polygon class="st0" points="377.9,67.3 394.3,67.3 394.3,49.4 420.8,49.4 420.8,38.9 395.1,38.9 395.1,31.9 422.3,31.9 422.3,20.6 
	377.9,20.6 "/>
<path class="st0" d="M139,28.3c-5.1-4.4-12.5-6.9-21.4-6.9c-9,0-16.5,2.7-21.7,7.2v-6.4H82.3V32h10.5c-2.9,3.8-4.4,8.4-4.4,13.5
	c0,14,11.7,24.1,29.3,24.1s29.3-10,29.3-24.1c0-5.3-1.6-10-4.6-13.8h10.4v-9.8H139V28.3L139,28.3z M117.3,58.5
	c-4.7,0-12-2.6-12-13.8c0-11.3,7.2-13.9,12-13.9c4.7,0,11.9,2.6,11.9,13.9C129.2,55.9,122,58.5,117.3,58.5z"/>
<polygon class="st0" points="223.5,21.5 207.2,21.5 207.2,68.5 247,68.5 247,56.3 223.5,56.3 "/>
<path class="st0" d="M342,20.5c-17.6,0-29.3,10-29.3,24.1s11.7,24.1,29.3,24.1c17.6,0,29.3-10,29.3-24.1
	C371.3,30.6,359.6,20.5,342,20.5z M341.6,57.7c-4.7,0-11.9-2.6-11.9-13.9c0-11.3,7.2-13.9,11.9-13.9s11.9,2.6,11.9,13.9
	C353.6,55.1,346.3,57.7,341.6,57.7z"/>
<polygon class="st0" points="475,31.7 475,20.5 430.6,20.5 430.6,67.2 447,67.2 447,49.3 473.5,49.3 473.5,38.8 447.8,38.8 
	447.8,31.7 "/>
</svg>
