<?xml version="1.0" encoding="utf-8"?>
<!-- Generator: Adobe Illustrator 21.0.2, SVG Export Plug-In . SVG Version: 6.00 Build 0)  -->
<svg version="1.1" id="Calque_1" xmlns="http://www.w3.org/2000/svg" xmlns:xlink="http://www.w3.org/1999/xlink" x="0px" y="0px"
	 viewBox="0 0 500 236" style="enable-background:new 0 0 500 236;" xml:space="preserve">
<style type="text/css">
	.st0{fill:#003B60;}
</style>
<path class="st0" d="M92.2,71.8H58.3c-7.5,0-14.6,2.2-20.4,6V22.7c0,0-16.5,3.8-16.5,17.4c0,10.2,0,45.6,0,62.6
	c-0.3,1.9-0.5,3.8-0.5,5.8v0.6c0,20.3,16.7,36.7,37.4,36.7h33.9c20.6,0,37.4-16.4,37.4-36.7v-0.6C129.6,88.2,112.8,71.8,92.2,71.8z
	 M114.4,109.1c0,11.9-9.9,21.5-22.2,21.5H58.3c-12.2,0-22.2-9.7-22.2-21.5v-0.6C36.1,96.6,46,87,58.3,87h33.9
	c12.2,0,22.2,9.7,22.2,21.5L114.4,109.1L114.4,109.1z"/>
<path class="st0" d="M206.6,71.8h-33.9c-20.6,0-37.4,16.4-37.4,36.7v0.6c0,20.3,16.7,36.7,37.4,36.7h33.9
	c20.6,0,37.4-16.4,37.4-36.7v-0.6C244,88.2,227.2,71.8,206.6,71.8z M228.8,109.1c0,11.9-9.9,21.5-22.2,21.5h-33.9
	c-12.2,0-22.2-9.7-22.2-21.5v-0.6c0-11.9,9.9-21.5,22.2-21.5h33.9c12.2,0,22.2,9.7,22.2,21.5V109.1z"/>
<path class="st0" d="M310.8,129.1h-20.1c-11.9,0-21.7-9.2-22.1-20.6V22.7c0,0-16.5,3.8-16.5,17.4c0,8.6,0,34.7,0,53
	c-0.6,4.8-0.5,10-0.5,15.5v0.6c0,20.3,16.7,36.7,37.4,36.7h21.6v-1.6h0.2V129.1z"/>
<path class="st0" d="M372,129.1h-20c-11.9,0-21.7-9.2-22.1-20.6V22.7c0,0-16.5,3.8-16.5,17.4c0,8.6,0,34.7,0,53
	c-0.6,4.8-0.5,10-0.5,15.5v0.6c0,20.3,16.7,36.7,37.4,36.7h21.6v-1.6h0.1V129.1z"/>
<path class="st0" d="M445.3,71.8h-33.9c-20.6,0-37.4,16.4-37.4,36.7v0.6c0,20.3,16.7,36.7,37.4,36.7h33.9c0.1,0,0.2,0,0.2,0h30.4
	v-15.1h-0.4c0.1-0.1,0.1-0.1,0.2-0.2H448c-0.9,0.1-1.8,0.2-2.8,0.2h-33.8c-9.6,0-17.7-5.9-20.8-14.2h75.5v0.1h15.8
	c0.5-2.4,0.8-4.9,0.8-7.5v-0.6C482.7,88.2,465.9,71.8,445.3,71.8z M411.4,87h33.9c9,0,16.7,5.2,20.2,12.7h-74.2
	C394.7,92.2,402.5,87,411.4,87z"/>
<path class="st0" d="M444.7,40.8C431.9,45.5,434,62.2,434,62.2l38.3-14l-5.7-15.5C457.1,36.2,448.7,39.3,444.7,40.8z"/>
<path class="st0" d="M68.3,196.2H36c-8.9,0-13-2.3-13-7.2s4.1-7.2,13-7.2h44.3V179H36c-3.9,0-15.9,0-15.9,10S32,199,36,199h32.2
	c8.9,0,13,2.3,13,7.2c0,4.9-4.1,7.2-13,7.2H24v2.8h44.3c3.9,0,15.8,0,15.8-10C84.1,196.2,72.2,196.2,68.3,196.2z"/>
<path class="st0" d="M131.1,179.1h-28.2c-10.5,0-13.3,7.9-13.3,12.6v23.4h2.8v-16.3h49.3v16.3h2.8v-23.4
	C144.5,187,141.7,179.1,131.1,179.1z M141.7,195.9H92.4v-4.2c0-1.6,0.5-9.7,10.5-9.7h28.2c10,0,10.5,8.1,10.5,9.7L141.7,195.9
	L141.7,195.9z"/>
<path class="st0" d="M152.6,191.7v23.4h2.8v-16.3h53V196h-53v-4.2c0-1.6,0.5-9.7,10.5-9.7h42.7v-3H166
	C155.5,179.1,152.6,187,152.6,191.7z"/>
<path class="st0" d="M215.4,196.9v1.4c0,13.4,13.9,17.7,20.6,17.7h35.5v-2.8H236c-5.5,0-17.4-3.7-17.7-14.4h53.2V196h-53.2
	c0.7-10.4,12.3-14,17.7-14h35.5v-2.9H236C229.3,179.1,215.4,183.5,215.4,196.9z"/>
<polygon class="st0" points="279.1,182 304.9,182 304.9,215.2 307.8,215.2 307.8,182 333.6,182 333.6,179.1 279.1,179.1 "/>
<path class="st0" d="M395.4,179.8v16.5H353c-7.9,0-9.1-5.2-9.1-8.3v-8.6h-2.8v8.6c0,2.5,0.9,11.1,11.9,11.1h42.4v3.8
	c0,6.9-2.7,10.4-8.2,10.4h-37.3v2.8h37.4c7,0,11-4.8,11-13.2v-23.1L395.4,179.8L395.4,179.8z"/>
</svg>
