<?xml version="1.0" encoding="utf-8"?>
<!-- Generator: Adobe Illustrator 19.1.0, SVG Export Plug-In . SVG Version: 6.00 Build 0)  -->
<svg version="1.1" id="Calque_1" xmlns="http://www.w3.org/2000/svg" xmlns:xlink="http://www.w3.org/1999/xlink" x="0px" y="0px"
	 viewBox="-345 170.9 500 500" style="enable-background:new -345 170.9 500 500;" xml:space="preserve">
<style type="text/css">
	.st0{fill:#003B60;}
</style>
<path class="st0" d="M-252.8,374.7h-33.9c-7.5,0-14.6,2.2-20.4,6v-55.1c0,0-16.5,3.8-16.5,17.4c0,10.2,0,45.6,0,62.6
	c-0.3,1.9-0.5,3.8-0.5,5.8v0.6c0,20.3,16.7,36.7,37.4,36.7h33.9c20.6,0,37.4-16.4,37.4-36.7v-0.6
	C-215.4,391.1-232.2,374.7-252.8,374.7z M-230.6,412c0,11.9-9.9,21.5-22.2,21.5h-33.9c-12.2,0-22.2-9.7-22.2-21.5v-0.6
	c0-11.9,9.9-21.5,22.2-21.5h33.9c12.2,0,22.2,9.7,22.2,21.5V412z"/>
<path class="st0" d="M-138.4,374.7h-33.9c-20.6,0-37.4,16.4-37.4,36.7v0.6c0,20.3,16.7,36.7,37.4,36.7h33.9
	c20.6,0,37.4-16.4,37.4-36.7v-0.6C-101,391.1-117.8,374.7-138.4,374.7z M-116.2,412c0,11.9-9.9,21.5-22.2,21.5h-33.9
	c-12.2,0-22.2-9.7-22.2-21.5v-0.6c0-11.9,9.9-21.5,22.2-21.5h33.9c12.2,0,22.2,9.7,22.2,21.5V412z"/>
<path class="st0" d="M-34.2,432h-20.1c-11.9,0-21.7-9.2-22.1-20.6v-85.8c0,0-16.5,3.8-16.5,17.4c0,8.6,0,34.7,0,53
	c-0.6,4.8-0.5,10-0.5,15.5v0.6c0,20.3,16.7,36.7,37.4,36.7h21.6v-1.6h0.2V432z"/>
<path class="st0" d="M27,432H7c-11.9,0-21.7-9.2-22.1-20.6v-85.8c0,0-16.5,3.8-16.5,17.4c0,8.6,0,34.7,0,53
	c-0.6,4.8-0.5,10-0.5,15.5v0.6c0,20.3,16.7,36.7,37.4,36.7h21.6v-1.6H27V432z"/>
<path class="st0" d="M100.3,374.7H66.4c-20.6,0-37.4,16.4-37.4,36.7v0.6c0,20.3,16.7,36.7,37.4,36.7h33.9c0.1,0,0.2,0,0.2,0h30.4
	v-15.1h-0.4c0.1-0.1,0.1-0.1,0.2-0.2h-27.7c-0.9,0.1-1.8,0.2-2.8,0.2H66.4c-9.6,0-17.7-5.9-20.8-14.2h75.5c0,0,0,0.1,0,0.1h15.8
	c0.5-2.4,0.8-4.9,0.8-7.5v-0.6C137.7,391.1,120.9,374.7,100.3,374.7z M66.4,389.9h33.9c9,0,16.7,5.2,20.2,12.7H46.3
	C49.7,395.1,57.5,389.9,66.4,389.9z"/>
<path class="st0" d="M99.7,343.7c-12.8,4.7-10.7,21.4-10.7,21.4l38.3-14l-5.7-15.5C112.1,339.1,103.7,342.2,99.7,343.7z"/>
<path class="st0" d="M-276.7,499.1H-309c-8.9,0-13-2.3-13-7.2s4.1-7.2,13-7.2h44.3v-2.8H-309c-3.9,0-15.9,0-15.9,10
	c0,10,11.9,10,15.9,10h32.2c8.9,0,13,2.3,13,7.2c0,4.9-4.1,7.2-13,7.2H-321v2.8h44.3c3.9,0,15.8,0,15.8-10
	C-260.9,499.1-272.8,499.1-276.7,499.1z"/>
<path class="st0" d="M-213.9,482h-28.2c-10.5,0-13.3,7.9-13.3,12.6V518h2.8v-16.3h49.3V518h2.8v-23.4
	C-200.5,489.9-203.3,482-213.9,482z M-203.3,498.8h-49.3v-4.2c0-1.6,0.5-9.7,10.5-9.7h28.2c10,0,10.5,8.1,10.5,9.7L-203.3,498.8
	L-203.3,498.8z"/>
<path class="st0" d="M-192.4,494.6V518h2.8v-16.3h53v-2.8h-53v-4.2c0-1.6,0.5-9.7,10.5-9.7h42.7V482H-179
	C-189.5,482-192.4,489.9-192.4,494.6z"/>
<path class="st0" d="M-129.6,499.8v1.4c0,13.4,13.9,17.7,20.6,17.7h35.5v-2.8H-109c-5.5,0-17.4-3.7-17.7-14.4h53.2v-2.8h-53.2
	c0.7-10.4,12.3-14,17.7-14h35.5V482H-109C-115.7,482-129.6,486.4-129.6,499.8z"/>
<polygon class="st0" points="-65.9,484.9 -40.1,484.9 -40.1,518.1 -37.2,518.1 -37.2,484.9 -11.4,484.9 -11.4,482 -65.9,482 "/>
<path class="st0" d="M50.4,482.7v16.5H8c-7.9,0-9.1-5.2-9.1-8.3v-8.6h-2.8v8.6C-3.9,493.4-3,502,8,502h42.4v3.8
	c0,6.9-2.7,10.4-8.2,10.4H4.9v2.8h37.4c7,0,11-4.8,11-13.2v-23.1L50.4,482.7L50.4,482.7z"/>
</svg>
