<?xml version="1.0" encoding="utf-8"?>
<!-- Generator: Adobe Illustrator 19.1.0, SVG Export Plug-In . SVG Version: 6.00 Build 0)  -->
<svg version="1.1" id="Calque_2" xmlns="http://www.w3.org/2000/svg" xmlns:xlink="http://www.w3.org/1999/xlink" x="0px" y="0px"
	 viewBox="0 0 500 500" style="enable-background:new 0 0 500 500;" xml:space="preserve">
<style type="text/css">
	.st0{fill:#002F54;}
</style>
<polygon class="st0" points="445.9,221.5 416.9,221.5 427.6,212.2 468.6,212.2 "/>
<g>
	<path class="st0" d="M96.2,210.1H56.9v9.1c4.4-1.2,19.8-5.2,39.3-7.9L96.2,210.1z"/>
	<path class="st0" d="M324.4,213.7c-1.6-0.3-3.1-0.5-4.8-0.8v-0.7h-4.9c-30-4.3-66.8-6.4-106.6-6.4c-101.2,0-183.2,16.9-183.2,37.8
		c0,11.7,25.8,22.2,66.4,29.1l3.5-0.3c-37-6.7-60.2-16.5-60.2-27.3c0-6.4,8.1-12.4,22.3-17.6v14.9c0,6,4.2,10.8,12.5,14.5
		c4.8,2.2,10.9,3.9,18.3,5.2c7.4,1.3,15,1.9,22.8,1.9c15.5,0,28.5-1.9,39.2-5.8c10.6-3.9,15.9-8.7,15.9-14.4
		c0-6.8-19.8-17.1-54.9-17.1c-6.6,0-11.5,0.6-14.6,1.1l0-10.2c32.4-5.8,75-9.3,121.6-9.3c29.5,0,57.4,1.4,82.1,3.9h-19.6v51.7h39.2
		v-49.4c1.6,0.2,3.2,0.4,4.8,0.7v48.8h39.2v-51.7h-39.2V213.7z M111.1,240.8c7.2,0,13,1.9,13,4.2c0,2.3-5.8,4.2-13,4.2
		c-7.2,0-13-1.9-13-4.2C98.1,242.7,103.9,240.8,111.1,240.8z"/>
	<path class="st0" d="M223.4,226.5c-29.7,0-53.8,8.4-53.8,18.7c0,10.3,24.1,18.7,53.8,18.7c29.7,0,53.8-8.4,53.8-18.7
		C277.1,234.9,253.1,226.5,223.4,226.5z M223.4,249.9c-7.5,0-13.5-2.1-13.5-4.7s6-4.7,13.5-4.7c7.5,0,13.5,2.1,13.5,4.7
		S230.8,249.9,223.4,249.9z"/>
	<path class="st0" d="M427,251.5c-11.9,0-16.1-2.5-16.1-2.5l61.6-9.4c-6.5-7.5-27.1-13.1-51.6-13.1c-29.7,0-53.8,8.1-53.8,18.1
		c0,10,24.1,18.1,53.8,18.1c19.9,0,40.7-3.1,50-8.5l-19.8-7.4C451.1,246.9,438.9,251.5,427,251.5z M419.6,235
		c8.9,0,13.8,3.1,13.8,3.1l-26.4,3.7C402.8,238,410.8,235,419.6,235z"/>
</g>
<g>
	<path class="st0" d="M72.1,288.5c-0.7-0.3-1.5-0.5-2.4-0.7c-1-0.2-2-0.4-3.2-0.5c-1-0.1-1.7-0.3-2.1-0.3c-0.4-0.1-0.9-0.2-1.3-0.3
		c-0.5-0.2-0.8-0.3-1.1-0.6c-0.4-0.4-0.5-0.8-0.5-1c0-0.6,0.4-1.1,1.3-1.5c0.7-0.3,1.7-0.5,2.9-0.5c1.3,0,2.2,0.1,2.8,0.5
		c0.6,0.3,1.1,0.7,1.6,1.2c0.2,0.3,0.5,0.5,0.7,0.6c0.1,0.1,0.4,0.2,0.9,0.2c0.4,0,0.8-0.1,1.1-0.3c0.1-0.1,0.3-0.2,0.3-0.4
		c0-0.2-0.1-0.4-0.3-0.7c-0.2-0.3-0.7-0.6-1.2-0.9c-0.6-0.3-1.3-0.5-2.2-0.7c-0.9-0.2-2-0.3-3.3-0.3c-1.6,0-3,0.1-4.2,0.4
		c-1.1,0.3-2,0.6-2.6,1.1c-0.5,0.4-0.8,0.9-0.8,1.5c0,0.6,0.2,1,0.7,1.4c0.5,0.4,1.3,0.8,2.3,1.1c1,0.3,2.3,0.5,3.8,0.7
		c1.1,0.2,2.1,0.3,2.8,0.4c0.7,0.1,1.4,0.4,1.8,0.7c0.7,0.4,0.9,1,0.9,1.4c0,0.7-0.5,1.3-1.5,1.8c-0.9,0.4-2,0.6-3.3,0.6
		c-1,0-1.8-0.1-2.4-0.3c-0.6-0.2-1.1-0.4-1.5-0.8c-0.3-0.3-0.7-0.7-1-1.1c-0.2-0.3-0.4-0.5-0.6-0.6c-0.2-0.1-0.5-0.2-0.9-0.2
		c-0.5,0-0.8,0.1-1.1,0.3C58,290.8,58,291,58,291c0,0.4,0.3,0.8,0.7,1.3c0.6,0.5,1.3,0.9,2.2,1.2c1.3,0.4,3,0.7,5,0.7
		c1.7,0,3.2-0.2,4.4-0.5c1.2-0.3,2.1-0.8,2.7-1.3c0.6-0.5,0.8-1.1,0.8-1.7c0-0.5-0.1-0.9-0.4-1.3C73.1,289,72.7,288.7,72.1,288.5z"
		/>
	<path class="st0" d="M149.4,284.3c-0.3-0.4-0.5-0.7-0.6-1c-0.1-0.2-0.3-0.4-0.5-0.6c-0.2-0.2-0.5-0.3-0.8-0.4c-0.7-0.2-2-0.2-2.7,0
		c-0.3,0.1-0.6,0.3-0.8,0.4c-0.2,0.2-0.4,0.4-0.6,0.7l-6,9c-0.2,0.3-0.4,0.5-0.5,0.7c-0.1,0.1-0.1,0.2-0.1,0.3
		c0,0.1,0.1,0.2,0.4,0.4c0.3,0.2,0.7,0.3,1.2,0.3c0.7,0,1-0.1,1.1-0.2c0.2-0.1,0.4-0.4,0.9-1.1l1.2-1.8h9.2l1.2,1.8
		c0.1,0.2,0.3,0.4,0.5,0.6c0.2,0.3,0.3,0.4,0.4,0.5c0.1,0.1,0.3,0.2,0.5,0.2c0.2,0.1,0.4,0.1,0.7,0.1c0.5,0,0.9-0.1,1.2-0.3
		c0.3-0.2,0.4-0.3,0.4-0.4c0,0,0-0.3-0.6-1.1L149.4,284.3z M142,290.1l4-6.6l4.1,6.6H142z"/>
	<path class="st0" d="M232.9,282.6c-0.2-0.1-0.5-0.2-1.3-0.2h-10.2c-0.6,0-1,0-1.4,0.1c-0.3,0.1-0.5,0.2-0.6,0.3
		c-0.1,0.1-0.2,0.3-0.2,0.6v9.7c0,0.4,0.1,0.6,0.4,0.7c0.3,0.2,0.8,0.3,1.3,0.3c0.5,0,1-0.1,1.3-0.3c0.3-0.2,0.4-0.4,0.4-0.8v-4.6
		h7.6c0.7,0,1.1-0.1,1.2-0.2c0.2-0.1,0.2-0.2,0.2-0.3c0,0,0-0.1-0.2-0.3c-0.2-0.1-0.5-0.2-1.2-0.2h-7.6v-4.2h9
		c0.7,0,1.1-0.1,1.3-0.2c0.2-0.1,0.2-0.2,0.2-0.3C233.2,282.8,233.2,282.7,232.9,282.6z"/>
	<path class="st0" d="M312.2,293.2c-0.2-0.1-0.6-0.2-1.3-0.2h-10.5v-4.6h9.4c0.7,0,1.1-0.1,1.2-0.2c0.2-0.1,0.2-0.2,0.2-0.3
		c0,0,0-0.1-0.2-0.3c-0.2-0.1-0.5-0.2-1.2-0.2h-9.4v-4.1h10.2c0.7,0,1.1-0.1,1.3-0.2c0.2-0.1,0.2-0.2,0.2-0.3c0,0,0-0.1-0.2-0.3
		c-0.2-0.1-0.5-0.2-1.3-0.2h-11.4c-0.6,0-1,0-1.4,0.1c-0.3,0.1-0.5,0.2-0.6,0.3c-0.1,0.1-0.2,0.3-0.2,0.6v9.5c0,0.5,0.2,0.7,0.4,0.8
		c0.2,0.1,0.7,0.3,1.8,0.3h11.7c0.7,0,1.1-0.1,1.3-0.2c0.3-0.1,0.3-0.2,0.3-0.3C312.5,293.4,312.5,293.3,312.2,293.2z"/>
	<path class="st0" d="M391.4,282.6c-0.2-0.1-0.6-0.2-1.4-0.2h-13.7c-0.6,0-1.1,0.1-1.4,0.2c-0.3,0.1-0.3,0.3-0.3,0.3
		c0,0.1,0,0.2,0.3,0.3c0.2,0.1,0.6,0.2,1.4,0.2h5.2v9.6c0,0.4,0.1,0.6,0.4,0.7c0.3,0.2,0.8,0.3,1.3,0.3c0.5,0,1-0.1,1.3-0.3
		c0.3-0.2,0.4-0.4,0.4-0.8v-9.6h5.2c0.8,0,1.2-0.1,1.4-0.2c0.3-0.1,0.3-0.3,0.3-0.3S391.7,282.8,391.4,282.6z"/>
	<path class="st0" d="M469.2,282.4c-0.3-0.2-0.7-0.2-1.1-0.2c-0.3,0-0.5,0-0.7,0.1c-0.2,0.1-0.4,0.1-0.5,0.3
		c-0.2,0.1-0.3,0.3-0.5,0.4l-0.6,0.6l-4.4,4.1l-4.3-4.1c-0.6-0.6-1-0.9-1.3-1.1c-0.2-0.1-0.5-0.2-1.1-0.2c-0.5,0-0.9,0.1-1.2,0.3
		c-0.1,0.1-0.3,0.2-0.3,0.3c0,0,0,0.1,0.2,0.3c0.2,0.2,0.5,0.5,0.9,0.9l5.4,4.9v4.2c0,0.4,0.1,0.6,0.4,0.8c0.3,0.2,0.7,0.3,1.3,0.3
		c0.5,0,1-0.1,1.3-0.3c0.3-0.2,0.4-0.4,0.4-0.7v-4.2l5.5-5c0.5-0.5,0.8-0.7,0.9-0.9c0.1-0.1,0.2-0.2,0.2-0.4
		C469.5,282.6,469.4,282.5,469.2,282.4z"/>
</g>
<g>
	<g>
		<path class="st0" d="M471.3,259.4c0.5,0,1,0.1,1.5,0.3c0.5,0.2,0.9,0.5,1.2,0.8c0.3,0.4,0.6,0.8,0.8,1.2c0.2,0.5,0.3,0.9,0.3,1.5
			c0,0.7-0.2,1.3-0.5,1.9s-0.8,1-1.4,1.4c-0.6,0.3-1.2,0.5-1.9,0.5c-0.7,0-1.3-0.2-1.9-0.5c-0.6-0.3-1-0.8-1.4-1.4
			c-0.3-0.6-0.5-1.2-0.5-1.9s0.2-1.3,0.5-1.9c0.3-0.6,0.8-1,1.4-1.4S470.6,259.4,471.3,259.4z M471.3,260.1c-0.5,0-1.1,0.1-1.5,0.4
			c-0.5,0.3-0.8,0.6-1.1,1.1c-0.3,0.5-0.4,1-0.4,1.5s0.1,1.1,0.4,1.5s0.6,0.8,1.1,1.1c0.5,0.3,1,0.4,1.5,0.4c0.6,0,1.1-0.1,1.5-0.4
			c0.5-0.3,0.8-0.6,1.1-1.1s0.4-1,0.4-1.5c0-0.6-0.1-1.1-0.4-1.5s-0.6-0.8-1.1-1.1C472.4,260.2,471.9,260.1,471.3,260.1z
			 M470.4,265.1h-0.8v-4h1.9c0.3,0,0.5,0,0.7,0.1c0.2,0.1,0.4,0.2,0.5,0.4s0.2,0.4,0.2,0.6c0,0.3-0.1,0.5-0.3,0.7
			c-0.2,0.2-0.5,0.3-0.8,0.4c0.2,0.1,0.3,0.2,0.4,0.3s0.2,0.3,0.4,0.7l0.5,0.8h-1l-0.3-0.6c-0.2-0.3-0.3-0.5-0.4-0.6
			c-0.1-0.1-0.2-0.2-0.3-0.3s-0.2-0.1-0.4-0.1h-0.2L470.4,265.1L470.4,265.1z M470.4,261.8v1.1h0.7c0.3,0,0.5,0,0.7-0.1
			c0.2-0.1,0.2-0.2,0.2-0.5c0-0.2-0.1-0.3-0.2-0.4c-0.1-0.1-0.3-0.1-0.6-0.1H470.4z"/>
	</g>
</g>
</svg>
