<?xml version="1.0" encoding="utf-8"?>
<!-- Generator: Adobe Illustrator 19.1.0, SVG Export Plug-In . SVG Version: 6.00 Build 0)  -->
<svg version="1.1" id="Calque_1" xmlns="http://www.w3.org/2000/svg" xmlns:xlink="http://www.w3.org/1999/xlink" x="0px" y="0px"
	 viewBox="0 0 500 500" style="enable-background:new 0 0 500 500;" xml:space="preserve">
<style type="text/css">
	.st0{fill:#006AB3;}
</style>
<g>
	<polygon class="st0" points="176.4,226.5 160.1,226.5 160.1,273.5 199.9,273.5 199.9,261.3 176.4,261.3 	"/>
	<path class="st0" d="M68.9,248.9v-0.5c5.4-1.5,8.6-5.4,8.5-10.7c-0.2-9.5-6.2-11-18.5-11H25v46.7h34.2c7.3,0,19.1,2,20.5-12.3
		C80.2,256.1,77,249.3,68.9,248.9z M40.1,238h16.5c4.8,0.1,5.4,1.2,5.4,3.9c0,3.6-2.4,2.7-6.7,2.9H40.1V238z M55.4,263.4h-15v-8h15
		c4.6,0,7.8,0.3,7.8,3.5C63.1,262.6,61,263.4,55.4,263.4z"/>
	<polygon class="st0" points="288.8,242.7 270.5,242.7 270.5,226.4 253.8,226.4 253.8,273.3 270.5,273.3 270.5,254.3 288.6,254.3 
		288.6,273.3 305.2,273.3 305.2,226.4 288.8,226.4 	"/>
	<polygon class="st0" points="377.9,272.3 394.3,272.3 394.3,254.4 420.8,254.4 420.8,243.9 395.1,243.9 395.1,236.9 422.3,236.9 
		422.3,225.6 377.9,225.6 	"/>
	<path class="st0" d="M139,233.3c-5.1-4.4-12.5-6.9-21.4-6.9c-9,0-16.5,2.7-21.7,7.2v-6.4H82.3v9.8h10.5c-2.9,3.8-4.4,8.4-4.4,13.5
		c0,14,11.7,24.1,29.3,24.1s29.3-10,29.3-24.1c0-5.3-1.6-10-4.6-13.8h10.4v-9.8H139V233.3L139,233.3z M117.3,263.5
		c-4.7,0-12-2.6-12-13.8c0-11.3,7.2-13.9,12-13.9c4.7,0,11.9,2.6,11.9,13.9C129.2,260.9,122,263.5,117.3,263.5z"/>
	<polygon class="st0" points="223.5,226.5 207.2,226.5 207.2,273.5 247,273.5 247,261.3 223.5,261.3 	"/>
	<path class="st0" d="M342,225.5c-17.6,0-29.3,10-29.3,24.1s11.7,24.1,29.3,24.1c17.6,0,29.3-10,29.3-24.1
		C371.3,235.6,359.6,225.5,342,225.5z M341.6,262.7c-4.7,0-11.9-2.6-11.9-13.9c0-11.3,7.2-13.9,11.9-13.9s11.9,2.6,11.9,13.9
		C353.6,260.1,346.3,262.7,341.6,262.7z"/>
	<polygon class="st0" points="475,236.7 475,225.5 430.6,225.5 430.6,272.2 447,272.2 447,254.3 473.5,254.3 473.5,243.8 
		447.8,243.8 447.8,236.7 	"/>
</g>
</svg>
