<?xml version="1.0" encoding="utf-8"?>
<!-- Generator: Adobe Illustrator 21.1.0, SVG Export Plug-In . SVG Version: 6.00 Build 0)  -->
<svg version="1.1" id="Calque_1" xmlns="http://www.w3.org/2000/svg" xmlns:xlink="http://www.w3.org/1999/xlink" x="0px" y="0px"
	 viewBox="0 0 500 266" style="enable-background:new 0 0 500 266;" xml:space="preserve">
<style type="text/css">
	.st0{fill:#A7A9AC;}
	.st1{fill:#00A650;}
	.st2{fill:#FFFFFF;}
	.st3{fill:#808285;}
</style>
<g>
	<g>
		<path class="st0" d="M222.4,158.4c0,16.8,2.8,40.3,13.5,40.3c10.2,0,12.4-19.2,12.4-37.2c0-14.4-2.6-44.3-13.3-44.3
			C223.4,117.1,222.4,142.1,222.4,158.4 M235.2,109.9c15.9,0,26.4,18.6,26.4,46.7c0,27.2-11.6,49.3-26.4,49.3
			c-15.4,0-26.2-20.4-26.2-48.1C209,130.7,219.9,109.9,235.2,109.9"/>
		<path class="st0" d="M266.6,196.8h0.8c3.2,0,5.7,0,5.7-6v-56.7c0-3.2-0.2-4.4-2.6-5.6c-1.3-0.6-2.5-1.4-3.8-2v-4.8
			c3.4-1.6,7.1-4,10-5.8c2.5-1.6,5.1-4.2,7.6-6l1.2,1.8v12.8c4.8-6,10.4-14.6,17.1-14.6c7.9,0,13.6,7,13.6,25.8v55.5
			c0,5.6,2.7,5.6,5.4,5.6h1.3v6c-4.2-0.4-8.2-0.8-12.4-0.8c-4.4,0-8.7,0.4-13,0.8v-6h1.1c2.2,0,5.4,0,5.4-5.2v-50.1
			c0-12.2-3.4-16.8-8.3-16.8c-3.6,0-7.7,4-10.1,6.8V192c0,4.8,2.5,4.8,5.3,4.8h1.6v6c-4.2-0.4-8.3-0.8-12.5-0.8
			c-4.5,0-8.9,0.4-13.1,0.8V196.8"/>
		<path class="st0" d="M356.9,157.8c-6,3.6-16.1,7.4-16.1,21.4c0,8.6,2.4,13,6.7,13c5,0,8.2-7.6,9.4-10.6V157.8 M356.9,139.7
			c0-11.6-3.7-16.2-8.7-16.2c-6.4,0-8,3-8.4,14.2c-0.2,5.4-6.1,8-7.8,8c-1.2,0-2.1-1.6-2.1-4.6c0-7.8,2.6-13.6,6-16.8
			c3.6-3.4,7.7-7.2,11.8-11.6c2.4-2.6,4.4-2.8,6.6-2.8c9.6,0,14.8,9.2,14.8,26.6v40.9c0,8.6,0.3,14.8,3.4,14.8c1,0,2.4-1.4,3.1-2.6
			l1.4,3.6c-3.3,7.4-6.2,12.6-11.5,12.6c-5.3,0-7.9-6.6-8.3-15.8c-4.8,8.6-9.8,15.8-16.8,15.8c-6.6,0-11.9-7.4-11.9-20.6
			c0-15.6,7-20.4,14.8-25.6l13.6-8.6V139.7z"/>
		<path class="st0" d="M439.9,124.1h-13V179c0,8.4,2.7,10.8,5.8,10.8c2.7,0,4.4-1.2,6.5-3.6l1.4,3.4c-4.1,9.6-8.7,16.2-14.9,16.2
			c-8.3,0-11.1-9.6-11.1-20.6v-61.1H408v-4.8c5.9-5.8,12.6-17.2,17.5-28.6l1.3,1.2v21h13V124.1"/>
		<path class="st0" d="M398,192v-80.3l-1.2-1.8c-2.4,1.8-5,4.4-7.6,6c-2.9,1.8-6.6,4.2-10,5.8v4.8c1.3,0.6,2.5,1.4,3.8,2
			c2.4,1.2,2.6,2.4,2.6,5.6v56.7c0,6-2.5,6-5.7,6h-0.8v6c4.3-0.4,8.7-0.8,13.1-0.8c4.2,0,8.3,0.4,12.5,0.8v-6h-1.6
			C400.5,196.8,398,196.8,398,192z"/>
		<path class="st0" d="M391.8,81.9c3.7,0,6.7-5.4,6.7-12.2c0-6.6-3-12.2-6.7-12.2c-3.7,0-6.7,5.6-6.7,12.2
			C385.1,76.4,388.1,81.9,391.8,81.9z"/>
		<path class="st0" d="M457.6,81.9c3.7,0,6.7-5.4,6.7-12.2c0-6.6-3-12.2-6.7-12.2c-3.7,0-6.7,5.6-6.7,12.2
			C450.9,76.4,453.8,81.9,457.6,81.9z"/>
		<path class="st0" d="M468.9,196.8c-2.7,0-5.3,0-5.3-4.8v-80.3l-1.2-1.8c-2.4,1.8-5,4.4-7.6,6c-2.8,1.8-6.6,4.2-10,5.8v4.8
			c1.3,0.6,2.5,1.4,3.8,2c2.4,1.2,2.6,2.4,2.6,5.6v56.7c0,6-2.5,6-5.7,6H445v6c4.3-0.4,8.7-0.8,13.1-0.8c4.2,0,8.3,0.4,12.5,0.8v-6
			H468.9z"/>
	</g>
	<g>
		<path class="st1" d="M157.9,194.6c-15.2,0-15.2-9.9-15.2-22v-68.8h10.1c16.7,0,31.7,14.2,31.7,52.5
			C184.6,172.9,178,194.6,157.9,194.6 M142.8,25.3c2.5-0.3,4.9-0.5,7.1-0.5c13.5,0,24.9,4.6,24.9,35.4c0,33.8-12,40.2-25.6,40.2
			h-6.4V25.3z M164.2,102.7v-0.5c13-4.8,27.1-17.7,27.1-42.6c0-37.8-26.8-43.4-39.3-43.4h-23.7V16H28.2v186.3h99.1
			c1.9,0.1,3.7,0.3,5.6,0.3c7.9,0,15.8,0.5,23.8,0.5c29.8,0,45.3-21.7,45.3-50.4C202.1,115,176.8,101.6,164.2,102.7"/>
		<path class="st2" d="M85.6,116.1c11.2-42.3,15-85.2,42.8-100.1C50.6,57.6,78.3,175.1,28.2,202.3c34.1-18.2,47.9-51,56.9-84.4
			c28.2,21.2,5.5,61.2,71.8,85.2l0.6,0C115,185,131,138.5,85.6,116.1z"/>
	</g>
	<g>
		<path class="st3" d="M33.8,243.2c-0.2,4,8.2,5.2,18.6,5.2c6,0,15.1-1.1,15.1-3.9c0-2.2-6.5-3.1-11.7-3.5L43,240
			c-6.7-0.6-12.8-1.6-12.8-4.7c0-1.9,3.6-5.4,19.6-5.4c11.2,0,21.1,2.1,21,6h-5.4c-0.3-3-7.5-4.4-15.5-4.4c-7.4,0-14.3,1-14.3,3.8
			c0,1.8,4,2.6,8.6,2.9l13.9,1.2c8.1,0.7,14.8,1.9,14.8,5.1c0,1.3-1.6,5.5-21.8,5.5c-13.5,0-23.4-2.1-22.7-6.8H33.8"/>
		<polyline class="st3" points="81.5,230.3 120.8,230.3 120.8,231.8 86.9,231.8 86.9,238.8 118.6,238.8 118.6,240.4 86.9,240.4 
			86.9,248 121.2,248 121.2,249.6 81.5,249.6 81.5,230.3 		"/>
		<path class="st3" d="M134.2,239.5h20.3c6.6,0,12.3-1.4,12.3-3.8s-4.1-3.8-12.3-3.8h-20.3V239.5 M128.7,230.3h26.1
			c9.4,0,17.3,1.5,17.3,5c0,2.4-3.7,4.4-11.1,4.9v0.1c7.4,0.3,9.6,2.1,10,4.4c0.2,1.3,0.2,4,2.6,4.9h-6c-1.4-0.8-1.4-2.2-1.5-3
			c-0.5-2.7-1.1-5.7-11.4-5.6h-20.6v8.6h-5.4V230.3z"/>
		<path class="st3" d="M187.3,239.5h20.3c6.6,0,12.3-1.4,12.3-3.8s-4.1-3.8-12.3-3.8h-20.3V239.5 M181.9,230.3H208
			c9.4,0,17.3,1.5,17.3,5c0,2.4-3.7,4.4-11.1,4.9v0.1c7.4,0.3,9.6,2.1,10,4.4c0.2,1.3,0.2,4,2.6,4.9h-6c-1.4-0.8-1.4-2.2-1.5-3
			c-0.5-2.7-1.1-5.7-11.4-5.6h-20.6v8.6h-5.4V230.3z"/>
		<path class="st3" d="M243.2,242h22.4l-11-9.9L243.2,242 M251.8,230.3h6.1l22.3,19.3h-5.8l-6.9-6h-25.9l-6.9,6h-5.8L251.8,230.3z"
			/>
		<polyline class="st3" points="273.8,230.3 318.9,230.3 318.9,231.8 299.1,231.8 299.1,249.6 293.6,249.6 293.6,231.8 273.8,231.8 
			273.8,230.3 		"/>
		<path class="st3" d="M323.7,230.3h5.4v12c-0.1,4.5,6.2,6.2,16.7,6.2c10.5,0,16.8-1.7,16.7-6.2v-12h5.4v12.4c0,4-6.3,7.4-22.2,7.4
			c-15.8,0-22.1-3.4-22.1-7.4V230.3"/>
		<path class="st3" d="M384.3,239.5h20.3c6.6,0,12.3-1.4,12.3-3.8s-4.1-3.8-12.3-3.8h-20.3V239.5 M378.9,230.3H405
			c9.4,0,17.3,1.5,17.3,5c0,2.4-3.7,4.4-11.1,4.9v0.1c7.4,0.3,9.6,2.1,10,4.4c0.2,1.3,0.2,4,2.6,4.9h-6c-1.4-0.8-1.4-2.2-1.5-3
			c-0.5-2.7-1.1-5.7-11.4-5.6h-20.6v8.6h-5.4V230.3z"/>
		<polyline class="st3" points="432.1,230.3 471.4,230.3 471.4,231.8 437.5,231.8 437.5,238.8 469.2,238.8 469.2,240.4 437.5,240.4 
			437.5,248 471.8,248 471.8,249.6 432.1,249.6 432.1,230.3 		"/>
	</g>
</g>
</svg>
