<?xml version="1.0" encoding="utf-8"?>
<!-- Generator: Adobe Illustrator 19.1.0, SVG Export Plug-In . SVG Version: 6.00 Build 0)  -->
<svg version="1.1" id="Calque_1" xmlns="http://www.w3.org/2000/svg" xmlns:xlink="http://www.w3.org/1999/xlink" x="0px" y="0px"
	 viewBox="-345 170.9 500 500" style="enable-background:new -345 170.9 500 500;" xml:space="preserve">
<style type="text/css">
	.st0{fill:#1A171B;}
</style>
<path class="st0" d="M-298.3,335.2h59.3c9.1,0,16.3,1.2,21.7,3.7c5.3,2.4,9.4,5.3,12.1,8.7c2.8,3.3,4.5,6.9,5.3,10.6
	c0.8,3.7,1.2,6.8,1.2,9.2c0,4.1-0.6,8-1.8,11.6c-1.2,3.7-3,7-5.3,9.9c-2.3,3-5.1,5.4-8.4,7.3c-3.3,1.9-6.9,3.2-10.9,3.9v0.4
	c13.7,4.4,20.6,14,20.6,28.9c0,3.6-0.7,7.9-2.1,12.8c-1.4,4.9-4,9.7-7.8,14.2c-3.8,4.6-9,8.4-15.8,11.5c-6.7,3.1-15.4,4.7-25.9,4.7
	h-70.6L-298.3,335.2z M-298.7,453h34.4c2.1,0,4.9-0.1,8.7-0.2c3.7-0.1,7.5-0.8,11.4-2c3.9-1.2,7.3-3.3,10.3-6.3
	c3-2.9,4.8-7.2,5.3-12.9c0.1-1.7,0.1-3.7-0.1-6.2c-0.2-2.4-1.1-4.8-2.7-7.1c-1.6-2.3-4.1-4.3-7.5-5.9c-3.4-1.6-8.2-2.4-14.3-2.4
	h-36.4L-298.7,453z M-286.2,392.8h36c5.9,0,10.6-0.8,14.2-2.3c3.6-1.5,6.4-3.4,8.3-5.7c1.9-2.2,3.2-4.6,3.8-7.1c0.6-2.5,1-4.6,1-6.4
	c0-1.4-0.2-3-0.6-4.9c-0.4-1.9-1.3-3.7-2.7-5.4c-1.4-1.7-3.5-3.2-6.4-4.3c-2.8-1.2-6.7-1.7-11.5-1.7h-34.3L-286.2,392.8z"/>
<path class="st0" d="M-145.7,475.3c-13.9,0-24.6-3.8-32.1-11.3c-7.6-7.5-11.4-18.2-11.4-32.2c0-8.2,1.3-16,4-23.4
	c2.7-7.4,6.5-13.9,11.5-19.5c4.9-5.6,10.9-10.1,17.9-13.5c7-3.3,14.8-5,23.4-5c13.9,0,24.6,3.6,32.1,10.9
	c7.6,7.2,11.4,17.9,11.4,31.9c0,8.7-1.3,16.9-3.9,24.4c-2.6,7.6-6.3,14.1-11.3,19.7c-4.9,5.6-10.9,10-17.9,13.2
	C-128.9,473.7-136.9,475.3-145.7,475.3z M-133.8,387.8c-5.6,0-10.6,1.4-14.7,4.2c-4.2,2.8-7.7,6.4-10.5,10.7
	c-2.8,4.3-4.9,9.1-6.3,14.3c-1.3,5.3-2,10.4-2,15.4c0,7.3,1.8,13.4,5.5,18.3c3.7,4.9,9.5,7.3,17.4,7.3c5.6,0,10.6-1.4,14.7-4.1
	c4.2-2.8,7.7-6.3,10.5-10.6c2.8-4.3,4.9-9.1,6.3-14.4c1.3-5.3,2-10.5,2-15.5c0-7.3-1.8-13.4-5.5-18.3
	C-120,390.2-125.8,387.8-133.8,387.8z"/>
<path class="st0" d="M-58.7,373.1H-37l-2.9,12.7l0.4,0.4c3.5-5,8-8.9,13.7-11.6c5.6-2.8,11.5-4.1,17.7-4.1c6.2,0,11.6,1,16.4,3.1
	c4.7,2.1,8.7,4.9,11.8,8.6c3.1,3.7,5.5,8,7.1,13.1c1.6,5.1,2.4,10.6,2.4,16.5c0,7.6-1,15.2-3.1,22.8c-2.1,7.6-5.2,14.5-9.4,20.5
	c-4.2,6-9.6,10.9-16,14.7c-6.4,3.8-13.9,5.7-22.5,5.7c-7.3,0-13.8-1.3-19.4-3.8c-5.6-2.5-10-7.3-13.1-14.3h-0.4l-10.8,52.2H-87
	L-58.7,373.1z M-48.3,432.4c0,3.6,0.4,6.9,1.3,10c0.8,3.1,2.1,5.8,3.9,8.1c1.7,2.3,4,4.1,6.8,5.5c2.8,1.3,6.2,2,10,2
	c5.9,0,11-1.3,15.3-3.9c4.3-2.6,7.8-6.1,10.6-10.3c2.8-4.2,4.8-9,6.2-14.2c1.3-5.3,2-10.5,2-15.8c0-3.6-0.4-7-1.3-10.1
	c-0.8-3.1-2.2-5.9-3.9-8.3c-1.8-2.4-4.1-4.2-6.8-5.6c-2.8-1.3-6.1-2-9.9-2c-5.9,0-11,1.3-15.3,4c-4.3,2.7-7.8,6.2-10.6,10.5
	c-2.8,4.3-4.8,9.1-6.2,14.4C-47.7,422.1-48.3,427.3-48.3,432.4z"/>
<path class="st0" d="M133.5,441.9c-3.5,11.7-9.3,20.2-17.5,25.5c-8.2,5.3-18.4,8-30.4,8c-6.3,0-12.1-1-17.4-3
	c-5.3-2-9.9-4.9-13.8-8.7c-3.8-3.8-6.9-8.3-9-13.7c-2.2-5.3-3.3-11.4-3.3-18.2c0-7.7,1.2-15.2,3.7-22.5c2.4-7.3,6-13.9,10.7-19.6
	c4.7-5.8,10.5-10.4,17.3-14c6.9-3.5,14.7-5.3,23.6-5.3c8.9,0,16,1.5,21.6,4.4c5.5,3,9.8,6.7,12.9,11.2c3.1,4.5,5.2,9.4,6.3,14.8
	c1.1,5.4,1.6,10.5,1.6,15.4c0,2.4-0.1,4.7-0.4,6.7c-0.3,2.1-0.5,3.9-0.8,5.6H64.4c-0.1,0.6-0.2,1.2-0.3,1.7c-0.1,0.5-0.1,1-0.1,1.5
	v3.1c0,6.9,1.8,12.5,5.5,16.7s9.7,6.4,18.2,6.4c5.9,0,11-1.3,15.2-4c4.2-2.7,7.1-6.7,8.7-12.1L133.5,441.9L133.5,441.9z
	 M117.6,414.1c0.1-0.6,0.2-1.2,0.2-1.6c0-0.4,0-0.9,0-1.4V408c0-5.9-1.9-10.7-5.6-14.5c-3.7-3.8-8.9-5.7-15.4-5.7
	c-8.2,0-14.8,2.5-19.6,7.4c-4.9,4.9-8.4,11.3-10.6,19L117.6,414.1L117.6,414.1z"/>
</svg>
