<?xml version="1.0" encoding="utf-8"?>
<!-- Generator: Adobe Illustrator 21.0.2, SVG Export Plug-In . SVG Version: 6.00 Build 0)  -->
<svg version="1.1" id="Calque_1" xmlns="http://www.w3.org/2000/svg" xmlns:xlink="http://www.w3.org/1999/xlink" x="0px" y="0px"
	 viewBox="0 0 332 86.6" style="enable-background:new 0 0 332 86.6;" xml:space="preserve">
<style type="text/css">
	.st0{fill:#E63816;}
</style>
<polygon class="st0" points="304.5,37.7 291.2,37.7 291.2,21.6 279.8,21.6 279.8,65.3 291.2,65.3 291.2,48.1 304.5,48.1 304.5,65.3 
	316,65.3 316,21.6 304.5,21.6 "/>
<path class="st0" d="M258.3,55.9c-4.8,0-9.9-4-9.9-12.7c0-7.8,4.6-12.1,9.5-12.1c3.8,0,6.1,1.8,7.9,4.9l8.8-5.9
	c-4.4-6.7-9.6-9.5-16.8-9.5c-13.1,0-20.3,10.3-20.3,22.6c0,13,7.9,23.2,20.2,23.2c8.7,0,12.8-3,17.3-9.5l-8.8-6
	C264.4,53.8,262.5,55.9,258.3,55.9z"/>
<path class="st0" d="M219.8,38.9l-1.5-0.3c-3.8-0.8-6.7-1.8-6.7-4.4c0-2.9,2.8-4.1,5.3-4.1c3.7,0,6.9,1.8,9,4.1l6.8-6.7
	c-3-3.4-8.1-6.8-15.9-6.8c-9.2,0-16.2,5.1-16.2,13.7c0,7.8,5.6,11.8,12.5,13.2l1.5,0.3c5.7,1.2,7.8,2,7.8,4.8c0,2.6-2.4,4.3-5.9,4.3
	c-4.3,0-8.2-1.9-11.1-5.6l-7,6.8c3.9,4.6,8.7,8.2,18.2,8.2c8.2,0,16.9-4.7,16.9-14.3C233.5,42,225.9,40.1,219.8,38.9z"/>
<path class="st0" d="M175.8,20.6c-12.7,0-20.1,10.1-20.1,22.9c0,12.8,7.4,22.9,20.1,22.9s20.1-10.1,20.1-22.9S188.6,20.5,175.8,20.6
	z M175.9,56c-6.2,0-9.3-5.6-9.3-12.5c0-6.9,3.1-12.4,9.3-12.4c6.2,0,9.3,5.6,9.3,12.4C185.2,50.4,182.1,56,175.9,56z"/>
<path class="st0" d="M143.9,42.6c0,0,6-2.1,6-9c0-8.1-5.7-12-13.6-12h-20.5v43.7h22.3c6.8,0,13.6-4.8,13.6-12.2
	C151.7,44.5,143.8,42.7,143.9,42.6z M126.5,30.8h8c2.5,0,4.2,1.6,4.2,4.1c0,1.9-1.6,4-4.4,4h-7.8V30.8z M134.5,56.2h-8v-8.6h7.8
	c3.9,0,5.8,1.8,5.8,4.3C140.1,55.1,137.8,56.2,134.5,56.2z"/>
<path d="M65.3,24.4l-3.9-2.9L60.8,21v11.9H36.9V21.4c-0.1,0-0.2,0.1-0.2,0.1c-0.5,0.4-0.9,0.8-1.4,1.1c-1.2,0.9-2.3,1.8-3.3,2.8
	c-0.8,0.9-1.6,1.8-2.4,2.8c-1.2,1.5-2.2,3.1-3,4.8c-1.2,2.4-1.8,4.9-2.1,7.5c-0.2,1.8-0.2,3.6,0,5.4c0.2,1.3,0.4,2.6,0.7,3.9
	c0.5,1.9,1.2,3.8,2.3,5.5c1,1.5,2,3,3.2,4.3c1.1,1.2,2.1,2.4,3.4,3.4c0.9,0.8,1.9,1.5,2.9,2.3V55.1h23.9v10.6
	c0.2-0.1,0.4-0.2,0.3-0.2l1.1-0.9c1.5-1,2.9-2,4.2-3.3c2.9-2.8,5-6.1,6.3-10c0.6-1.7,0.9-3.4,1.1-5.1c0.2-1.5,0.3-3.1,0.1-4.6
	c-0.2-1.2-0.3-2.5-0.6-3.8c-0.6-2.3-1.3-4.5-2.5-6.5c-1-1.9-2.3-3.6-3.8-5.2C66.6,25.5,66,24.9,65.3,24.4z M32.7,55.5
	c-0.6-0.9-1.1-1.8-1.6-2.8c-0.8-1.2-1.1-2.6-1.5-4c-0.4-1.1-0.5-2.2-0.7-3.3c-0.1-0.3-0.1-0.6-0.1-0.9c-0.1-1.2-0.1-2.5,0.1-3.7
	c0.3-2,0.8-4,1.6-5.9c0.5-1.2,1.3-2.2,1.9-3.3c0.1-0.1,0.3-0.3,0.4-0.5L32.7,55.5z M60.5,50.8H37V37.2h23.5V50.8z M68.4,35.5
	c0.6,1.7,1.1,3.4,1.3,5.1c0,0.7,0.1,1.3,0.1,1.9c0,1.1,0,2.3-0.1,3.4c-0.2,1.5-0.5,3.1-1.1,4.5c-0.3,0.7-0.5,1.4-0.8,2
	c-0.2,0.5-0.4,0.9-0.7,1.3l-2,2.8l0.1-26.3c0.3,0.4,0.5,0.8,0.8,1.1c0.6,0.9,1.2,1.7,1.7,2.6C68,34.4,68.2,35,68.4,35.5z"/>
<path d="M82.1,36.7c-0.6-2.6-1.4-5.2-2.6-7.6l-1.8-3.2c-1.2-1.9-2.5-3.6-4-5.2c-1.2-1.1-2.3-2.3-3.6-3.3c-2.2-1.9-4.7-3.3-7.3-4.5
	c-2-1-4.1-1.6-6.2-2.1c-1.1-0.2-2.2-0.4-3.3-0.5c-1-0.2-2-0.3-3-0.3c-1.4,0-2.9,0-4.3,0.2c-1.3,0.2-2.6,0.3-3.8,0.6
	c-2.9,0.6-5.7,1.6-8.4,3.1c-1.5,0.9-3.1,1.8-4.5,2.9c-0.9,0.7-1.8,1.4-2.6,2.2c-0.8,0.7-1.5,1.4-2.2,2.2c-0.7,0.7-1.3,1.5-1.9,2.3
	c-1.5,2-2.8,4.2-3.8,6.5c-0.8,1.9-1.4,3.8-1.9,5.8c-0.3,1.5-0.6,3-0.7,4.5c-0.1,0.8-0.2,1.5-0.2,2.2c0,0.9,0,1.8,0.1,2.7
	c0,1.5,0.2,2.9,0.5,4.3c0.5,2.5,1.2,5,2.3,7.4c0.9,2.1,2.1,4,3.5,5.8c3.3,4.7,7.6,8.2,12.8,10.7c2.1,1,4.1,1.8,6.3,2.3
	c1.8,0.5,3.6,0.8,5.4,0.9c1.1,0.1,2.3,0.1,3.4,0.1c1.9,0,3.7-0.2,5.5-0.6c1.9-0.4,3.7-0.9,5.5-1.6c3.6-1.4,6.8-3.3,9.7-5.8
	c2.8-2.4,5.1-5.2,7-8.4c1.8-3.1,3.1-6.3,3.9-9.8c0.5-2.4,0.8-4.9,0.8-7.4c0-0.9-0.1-1.9-0.1-2.9C82.5,39,82.4,37.9,82.1,36.7z
	 M47.6,72.4c-6.5-0.3-13.3-3-18.8-8.5c-5.6-5.6-8.4-12.5-8.5-20.4c-0.1-7.8,2.7-14.6,8-20.2c5.4-5.6,12.1-8.7,19.9-9
	c8.3-0.3,15.5,2.6,21.6,8.3c5.6,5.9,8.5,12.8,8.6,20.9C78,59.9,65.2,72.5,47.6,72.4z"/>
</svg>
