<?xml version="1.0" encoding="utf-8"?>
<!-- Generator: Adobe Illustrator 21.0.2, SVG Export Plug-In . SVG Version: 6.00 Build 0)  -->
<svg version="1.1" id="Calque_2" xmlns="http://www.w3.org/2000/svg" xmlns:xlink="http://www.w3.org/1999/xlink" x="0px" y="0px"
	 viewBox="0 0 500 142" style="enable-background:new 0 0 500 142;" xml:space="preserve">
<style type="text/css">
	.st0{fill:#00304D;}
</style>
<rect x="349" y="45.7" class="st0" width="23.3" height="80.7"/>
<path class="st0" d="M365.2,14h-8.3c-5.5,0-9.9,4.5-9.9,9.9v3.2c0,5.5,4.5,9.9,9.9,9.9h8.3c5.5,0,9.9-4.5,9.9-9.9V24
	C375.1,18.5,370.6,14,365.2,14z"/>
<polygon class="st0" points="438.5,84.6 436.9,84.6 473.5,46.3 445.2,46.3 416.3,80.4 413.5,80.4 413.5,21.6 390.1,21.6 
	390.1,126.3 413.5,126.3 413.5,90.9 415.5,90.9 445.2,126.3 475,126.3 "/>
<path class="st0" d="M169.3,45.7h-16.9c-19.1,0-34.7,15.6-34.7,34.7v12.8c0,19.1,15.6,34.7,34.7,34.7h16.9
	c19.1,0,34.7-15.6,34.7-34.7V80.4C204,61.3,188.4,45.7,169.3,45.7z M181.1,91c0,9.4-7.7,17.1-17.1,17.1h-6.3
	c-9.4,0-17.1-7.7-17.1-17.1v-8.3c0-9.4,7.7-17.1,17.1-17.1h6.3c9.4,0,17.1,7.7,17.1,17.1V91z"/>
<path class="st0" d="M322.3,109.6c-12.5,0-11.7-8.5-11.7-8.5V63.9h24.1V46.3h-24.1V27.8h-16l-6.9,18.5h-36.6c0,0-37.6-3.8-37.6,24.9
	s41.6,21.9,41.6,33.5s-38.2,1.3-38.2,1.3l-4.4,16.6c0,0,9.6,5.2,29.5,5.2c19.8,0,35.9-7.1,35.9-25.8S263.5,81.3,253,78.7
	s-17.4-5.1-17.4-9.2c0-4.1,3.5-5.7,15.6-5.7h36.6c0,11.7,0,28.4,0,39.5c0,18.7,11.7,24.5,27.3,24.5c15.6,0,23.8-5.2,23.8-5.2
	l-4.1-15.2C334.7,107.5,334.8,109.6,322.3,109.6z"/>
<path class="st0" d="M86.3,71.2C97.4,66.9,105,58,105,47.8c0-14.5-15.1-26.2-33.8-26.2c-0.1,0-0.2,0-0.4,0l0,0H25v104.8h45.9v-0.1
	c0.6,0,1.2,0.1,1.8,0.1c20.6,0,37.3-12.8,37.3-28.6C110,85.7,100.1,75.3,86.3,71.2z M48.4,41.8h19.1l0,0c0.1,0,0.3,0,0.4,0
	c7.1,0,12.8,4.8,12.8,10.8S75,63.4,67.9,63.4c-0.1,0-0.3,0-0.4,0l0,0H48.4V41.8z M70.7,106.5c-0.2,0-0.3,0-0.4,0l0,0H48.4V83.2h21.8
	l0,0c0.2,0,0.3,0,0.4,0c8.1,0,14.6,5.2,14.6,11.7C85.3,101.3,78.8,106.5,70.7,106.5z"/>
</svg>
