<?xml version="1.0" encoding="utf-8"?>
<!-- Generator: Adobe Illustrator 15.0.0, SVG Export Plug-In . SVG Version: 6.00 Build 0)  -->
<!DOCTYPE svg PUBLIC "-//W3C//DTD SVG 1.1//EN" "http://www.w3.org/Graphics/SVG/1.1/DTD/svg11.dtd">
<svg version="1.1" id="Calque_1" xmlns="http://www.w3.org/2000/svg" xmlns:xlink="http://www.w3.org/1999/xlink" x="0px" y="0px"
	 width="500px" height="500px" viewBox="0 0 500 500" enable-background="new 0 0 500 500" xml:space="preserve">
<g>
	<path fill="#1A171B" d="M50.824,216.304h26.15c4.014,0,7.199,0.539,9.548,1.618c2.35,1.077,4.132,2.349,5.348,3.821
		c1.216,1.471,1.997,3.025,2.335,4.67c0.338,1.637,0.511,2.998,0.511,4.069c0,1.816-0.27,3.523-0.808,5.14
		c-0.539,1.61-1.313,3.067-2.335,4.374c-1.017,1.299-2.246,2.376-3.69,3.227c-1.443,0.849-3.046,1.416-4.801,1.692v0.173
		c6.059,1.928,9.085,6.169,9.085,12.732c0,1.59-0.311,3.469-0.933,5.645c-0.622,2.185-1.769,4.277-3.441,6.288
		c-1.666,2.01-3.987,3.703-6.958,5.092c-2.97,1.389-6.777,2.079-11.42,2.079H38.257L50.824,216.304z M50.651,268.266H65.85
		c0.905,0,2.177-0.027,3.821-0.089c1.638-0.055,3.31-0.353,5.009-0.892c1.7-0.531,3.213-1.457,4.54-2.757
		c1.333-1.299,2.107-3.199,2.335-5.686c0.055-0.739,0.042-1.645-0.041-2.723c-0.083-1.07-0.484-2.12-1.189-3.137
		c-0.711-1.022-1.81-1.879-3.31-2.59c-1.499-0.705-3.606-1.064-6.328-1.064H54.645L50.651,268.266z M56.171,241.688h15.877
		c2.604,0,4.698-0.338,6.28-1.015c1.582-0.678,2.806-1.513,3.655-2.501c0.843-0.996,1.409-2.038,1.693-3.144
		c0.283-1.105,0.428-2.051,0.428-2.846c0-0.623-0.083-1.34-0.255-2.163c-0.173-0.822-0.566-1.617-1.189-2.376
		c-0.622-0.767-1.554-1.402-2.805-1.914c-1.243-0.504-2.943-0.76-5.091-0.76H59.653L56.171,241.688z"/>
	<path fill="#1A171B" d="M100.575,251.878c0-6.334,0.946-11.841,2.84-16.512c1.9-4.67,4.387-8.519,7.476-11.545
		c3.081-3.025,6.562-5.278,10.439-6.75c3.876-1.471,7.793-2.21,11.758-2.21c3.959,0,7.587,0.656,10.869,1.955
		c3.282,1.306,6.066,3.13,8.359,5.479c2.294,2.35,4.077,5.134,5.348,8.36c1.277,3.226,1.913,6.792,1.913,10.695
		c0,6.397-0.905,11.918-2.715,16.554c-1.817,4.643-4.221,8.478-7.22,11.51c-2.998,3.026-6.425,5.271-10.273,6.743
		c-3.848,1.472-7.808,2.211-11.884,2.211c-4.359,0-8.208-0.677-11.544-2.038c-3.344-1.361-6.142-3.227-8.409-5.604
		c-2.266-2.376-3.986-5.182-5.175-8.407C101.169,259.099,100.575,255.616,100.575,251.878z M111.188,251.54
		c0,5.658,1.444,10.101,4.324,13.327c2.888,3.227,6.993,4.844,12.312,4.844c3.509,0,6.577-0.822,9.21-2.467
		c2.632-1.638,4.843-3.794,6.625-6.453c1.782-2.66,3.109-5.659,3.987-8.996c0.877-3.343,1.319-6.708,1.319-10.107
		c0-5.659-1.375-10.101-4.118-13.327c-2.75-3.227-6.778-4.836-12.097-4.836c-3.627,0-6.777,0.822-9.465,2.46
		c-2.694,1.644-4.926,3.792-6.709,6.453c-1.782,2.66-3.129,5.658-4.035,9.002C111.636,244.776,111.188,248.141,111.188,251.54z"/>
	<path fill="#1A171B" d="M173.665,256.887c-0.221,4.699,0.939,8.008,3.482,9.936c2.55,1.921,6.032,2.889,10.446,2.889
		c1.41,0,2.93-0.173,4.54-0.512c1.616-0.339,3.067-0.891,4.374-1.658c1.298-0.76,2.39-1.756,3.267-2.971
		c0.878-1.216,1.313-2.729,1.313-4.539c0-1.7-0.408-3.116-1.229-4.249c-0.822-1.126-1.893-2.08-3.227-2.84
		c-1.327-0.767-2.875-1.416-4.623-1.955c-1.755-0.539-3.564-1.064-5.437-1.568c-1.354-0.339-2.971-0.808-4.836-1.402
		c-1.873-0.594-3.683-1.472-5.437-2.633c-1.755-1.161-3.241-2.674-4.457-4.54c-1.216-1.872-1.824-4.249-1.824-7.137
		c0-2.715,0.511-5.23,1.527-7.551c1.023-2.321,2.494-4.318,4.415-5.99c1.928-1.665,4.29-2.971,7.089-3.903
		c2.805-0.933,5.99-1.402,9.555-1.402c3.165,0,6.135,0.346,8.913,1.022c2.771,0.677,5.175,1.783,7.213,3.309
		c2.038,1.527,3.627,3.524,4.753,5.983c1.133,2.467,1.645,5.479,1.534,9.044h-10.19c-0.056-3.792-1.105-6.522-3.144-8.194
		c-2.031-1.666-5.119-2.501-9.251-2.501c-0.731,0-1.755,0.083-3.053,0.255c-1.306,0.166-2.605,0.566-3.911,1.188
		c-1.298,0.622-2.431,1.513-3.392,2.674c-0.96,1.161-1.444,2.756-1.444,4.795c0,1.472,0.338,2.688,1.016,3.648
		c0.684,0.967,1.603,1.789,2.763,2.467c1.161,0.677,2.501,1.243,4.035,1.699c1.527,0.45,3.136,0.878,4.836,1.271
		c2.148,0.567,4.317,1.188,6.494,1.866c2.177,0.684,4.16,1.63,5.942,2.846c1.782,1.216,3.227,2.819,4.333,4.794
		c1.105,1.982,1.651,4.561,1.651,7.725c0,2.376-0.449,4.726-1.354,7.047c-0.906,2.322-2.363,4.415-4.374,6.287
		c-2.01,1.866-4.614,3.379-7.807,4.54c-3.198,1.16-7.096,1.74-11.676,1.74c-3.565,0-6.792-0.415-9.68-1.229
		c-2.888-0.822-5.334-2.094-7.344-3.821c-2.011-1.728-3.538-3.951-4.581-6.667c-1.051-2.715-1.521-5.969-1.402-9.763H173.665z"/>
	<path fill="#1A171B" d="M224.094,216.304h49.925l-1.955,9.169h-19.27l-10.702,51.45H231.48l10.702-51.45h-19.953L224.094,216.304z"
		/>
	<path fill="#1A171B" d="M280.72,216.304h10.612l-12.65,60.619h-10.611L280.72,216.304z"/>
	<path fill="#1A171B" d="M298.041,216.304h49.917l-1.948,9.169h-19.276l-10.694,51.45h-10.613l10.696-51.45h-19.947L298.041,216.304
		z"/>
	<path fill="#1A171B" d="M390.151,236.513c0-4.242-1.174-7.469-3.523-9.68c-2.349-2.204-5.726-3.309-10.142-3.309
		c-3.62,0-6.776,0.822-9.465,2.46c-2.688,1.644-4.927,3.792-6.709,6.453s-3.13,5.658-4.027,9.002
		c-0.913,3.337-1.362,6.702-1.362,10.101c0,5.658,1.444,10.101,4.333,13.327c2.881,3.227,6.985,4.844,12.304,4.844
		c2.723,0,5.009-0.525,6.882-1.575c1.866-1.044,3.406-2.321,4.622-3.821c1.216-1.499,2.156-3.04,2.805-4.622
		c0.65-1.589,1.119-2.888,1.403-3.91h10.611c-0.85,3.849-2.127,7.192-3.819,10.018c-1.7,2.833-3.725,5.182-6.073,7.047
		c-2.349,1.873-4.954,3.255-7.807,4.16c-2.861,0.904-5.845,1.36-8.961,1.36c-4.36,0-8.209-0.677-11.545-2.038
		c-3.338-1.361-6.143-3.227-8.402-5.604c-2.266-2.376-3.992-5.182-5.183-8.407c-1.188-3.22-1.781-6.702-1.781-10.44
		c0-6.334,0.945-11.841,2.846-16.512c1.894-4.67,4.382-8.519,7.47-11.545c3.082-3.025,6.563-5.278,10.439-6.75
		c3.876-1.471,7.8-2.21,11.759-2.21c3.564,0,6.847,0.484,9.852,1.443c2.998,0.967,5.562,2.35,7.683,4.16
		c2.122,1.817,3.745,4.076,4.878,6.798c1.134,2.715,1.645,5.797,1.527,9.251H390.151z"/>
	<path fill="#1A171B" d="M415.031,216.304h10.611l-5.01,24.113h28.356l5.009-24.113h10.611l-12.566,60.619H441.43l5.693-27.338
		h-28.362l-5.685,27.338h-10.613L415.031,216.304z"/>
</g>
</svg>
