<?xml version="1.0" encoding="utf-8"?>
<!-- Generator: Adobe Illustrator 16.0.0, SVG Export Plug-In . SVG Version: 6.00 Build 0)  -->
<!DOCTYPE svg PUBLIC "-//W3C//DTD SVG 1.1//EN" "http://www.w3.org/Graphics/SVG/1.1/DTD/svg11.dtd">
<svg version="1.1" id="Calque_2" xmlns="http://www.w3.org/2000/svg" xmlns:xlink="http://www.w3.org/1999/xlink" x="0px" y="0px"
	 width="500px" height="500px" viewBox="0 0 500 500" enable-background="new 0 0 500 500" xml:space="preserve">
<g>
	<rect x="348.991" y="224.695" fill="#00304D" width="23.333" height="80.652"/>
	<path fill="#00304D" d="M365.173,193.048h-8.303c-5.459,0-9.923,4.466-9.923,9.923v3.198c0,5.457,4.464,9.923,9.923,9.923h8.303
		c5.459,0,9.923-4.466,9.923-9.923v-3.198C375.096,197.514,370.632,193.048,365.173,193.048z"/>
	<polygon fill="#00304D" points="438.541,263.639 436.941,263.639 473.54,225.28 445.248,225.28 416.316,259.407 413.451,259.407 
		413.451,200.558 390.119,200.558 390.119,305.348 413.451,305.348 413.451,269.907 415.506,269.907 445.248,305.348 475,305.348 	
		"/>
	<path fill="#00304D" d="M169.295,224.695h-16.887c-19.099,0-34.726,15.628-34.726,34.727v12.804
		c0,19.101,15.627,34.727,34.726,34.727h16.887c19.1,0,34.727-15.626,34.727-34.727v-12.804
		C204.022,240.323,188.395,224.695,169.295,224.695z M181.125,269.995c0,9.419-7.705,17.123-17.124,17.123h-6.299
		c-9.418,0-17.124-7.704-17.124-17.123v-8.341c0-9.419,7.706-17.124,17.124-17.124h6.299c9.418,0,17.124,7.705,17.124,17.124
		V269.995z"/>
	<path fill="#00304D" d="M322.302,288.576c-12.545,0-11.666-8.458-11.666-8.458v-37.192H334.7V225.28h-24.064v-18.522h-16.045
		l-6.854,18.522h-36.605c0,0-37.629-3.792-37.629,24.939s41.567,21.877,41.567,33.545s-38.213,1.313-38.213,1.313l-4.375,16.626
		c0,0,9.627,5.25,29.461,5.25c19.833,0,35.879-7.146,35.879-25.814c0-18.668-14.438-20.711-24.939-23.336
		c-10.501-2.625-17.357-5.104-17.357-9.188c0-4.083,3.502-5.688,15.607-5.688h36.605c0,11.731,0,28.435,0,39.525
		c0,18.668,11.666,24.501,27.273,24.501c15.604,0,23.771-5.25,23.771-5.25l-4.081-15.168
		C334.7,286.534,334.844,288.576,322.302,288.576z"/>
	<path fill="#00304D" d="M86.303,250.173c11.072-4.299,18.692-13.157,18.692-23.418c0-14.467-15.116-26.197-33.763-26.197
		c-0.123,0-0.242,0.014-0.364,0.015v-0.015H25v104.79h45.868v-0.07c0.607,0.022,1.207,0.07,1.822,0.07
		c20.581,0,37.265-12.798,37.265-28.585C109.954,264.664,100.143,254.347,86.303,250.173z M48.408,220.759h19.069v0.017
		c0.131-0.003,0.26-0.017,0.392-0.017c7.053,0,12.771,4.832,12.771,10.792c0,5.961-5.717,10.793-12.771,10.793
		c-0.132,0-0.261-0.014-0.392-0.017v0.017H48.408V220.759z M70.687,285.512c-0.151,0-0.298-0.016-0.449-0.019v0.019h-21.83v-23.334
		h21.83v0.019c0.15-0.004,0.297-0.019,0.449-0.019c8.075,0,14.62,5.225,14.62,11.668C85.306,280.29,78.761,285.512,70.687,285.512z"
		/>
</g>
</svg>
