<?xml version="1.0" encoding="utf-8"?>
<!-- Generator: Adobe Illustrator 19.1.0, SVG Export Plug-In . SVG Version: 6.00 Build 0)  -->
<svg version="1.1" id="Calque_1" xmlns="http://www.w3.org/2000/svg" xmlns:xlink="http://www.w3.org/1999/xlink" x="0px" y="0px"
	 viewBox="-345 170.9 500 500" style="enable-background:new -345 170.9 500 500;" xml:space="preserve">
<style type="text/css">
	.st0{fill:#008F36;}
	.st1{fill:none;}
	.st2{fill:#FFFFFF;}
</style>
<rect x="-305.2" y="210.7" class="st0" width="423.3" height="423.3"/>
<path class="st1" d="M-96.6,288.2c-15.7,0-22.2,14.6-22.2,31.1c0,16.3,6.4,30.9,22.2,30.9s22.2-14.6,22.2-30.9
	C-74.4,302.8-80.8,288.2-96.6,288.2z"/>
<path class="st1" d="M-212.5,291.5c-12.9,0-21.4,12-21.4,28.2c0,15.7,9.7,27.5,21.4,27.5c13.3,0,21.2-11.8,21.2-29
	C-191.3,303.9-198.9,291.5-212.5,291.5z"/>
<path class="st1" d="M91.1,294.2v38.6c0,12.6,5.5,13,13.5,13c3.2,0,8.3-2,13.3-7.1v-44.5C117.9,294.2,91.1,294.2,91.1,294.2z"/>
<path class="st2" d="M-198.5,262.9c-14,0-25.9,4.4-34.9,16.4h-0.4v-41.2H-269v135.2h32.3V354h0.4c4.5,12,18.7,21.7,34.9,21.7
	c30.2,0,46.4-26.5,46.4-58.4C-155,291.3-170.4,262.9-198.5,262.9z M-212.5,347.2c-11.7,0-21.4-11.8-21.4-27.5
	c0-16.2,8.6-28.2,21.4-28.2c13.7,0,21.2,12.4,21.2,26.7C-191.3,335.4-199.3,347.2-212.5,347.2z"/>
<path class="st2" d="M-96.6,261.5c-32.6,0-57.4,21.2-57.4,57.7c0,36.4,24.8,57.5,57.4,57.5c32.6,0,57.4-21.1,57.4-57.5
	C-39.1,282.7-64,261.5-96.6,261.5z M-96.6,350.1c-15.7,0-22.2-14.6-22.2-30.9c0-16.5,6.4-31.1,22.2-31.1s22.2,14.6,22.2,31.1
	C-74.4,335.5-80.8,350.1-96.6,350.1z"/>
<path class="st2" d="M104.6,345.8c-8,0-13.5-0.4-13.5-13v-38.6h26.8v-30.1H91.1v-29.8l-16.4,0.8c0,0-9.7,17.4-16.7,23.4
	c-6.4,5.6-16.3,5.6-16.3,5.6H16.3v-29.8l-16.4,0.8c0,0-9.8,17.3-16.8,23.4c-7,6.2-23.7,15.4-23.7,15.4v20.3h20.7v42.6
	c0,24.9,7.8,39.2,40.2,39.2c9,0,17.5-4.6,24.5-14.1l0.1-25.2c-5.5,6.7-11.5,9.2-15.1,9.2c-8,0-13.5-0.4-13.5-13v-38.6h17.9h7.4H55
	v42.6c0,24.9,7.8,39.2,40.2,39.2c8.3,0,15.8-4,22.8-12v-25.3C113,343.8,107.9,345.8,104.6,345.8z"/>
</svg>
