<?xml version="1.0" encoding="utf-8"?>
<!-- Generator: Adobe Illustrator 15.0.0, SVG Export Plug-In . SVG Version: 6.00 Build 0)  -->
<!DOCTYPE svg PUBLIC "-//W3C//DTD SVG 1.1//EN" "http://www.w3.org/Graphics/SVG/1.1/DTD/svg11.dtd">
<svg version="1.1" id="Calque_1" xmlns="http://www.w3.org/2000/svg" xmlns:xlink="http://www.w3.org/1999/xlink" x="0px" y="0px"
	 width="500px" height="500px" viewBox="0 0 500 500" enable-background="new 0 0 500 500" xml:space="preserve">
<g>
	<rect x="39.785" y="39.786" fill="#008F36" width="423.296" height="423.294"/>
	<g>
		<path fill="none" d="M248.446,117.261c-15.718,0-22.155,14.603-22.155,31.086c0,16.29,6.438,30.88,22.155,30.88
			s22.17-14.59,22.17-30.88C270.615,131.864,264.163,117.261,248.446,117.261z"/>
		<path fill="none" d="M132.472,120.571c-12.876,0-21.442,12.007-21.442,28.167c0,15.73,9.734,27.529,21.442,27.529
			c13.252,0,21.234-11.799,21.234-28.984C153.706,132.993,146.127,120.571,132.472,120.571z"/>
		<path fill="none" d="M436.12,123.349v38.575c0,12.643,5.503,12.993,13.525,12.993c3.208,0,8.325-1.99,13.289-7.11v-44.458H436.12z
			"/>
		<path fill="#FFFFFF" d="M146.517,91.99c-14.045,0-25.935,4.361-34.891,16.367h-0.39V67.16H75.958v135.196h32.346v-19.249h0.39
			c4.491,11.993,18.716,21.729,34.889,21.729c30.217,0,46.39-26.505,46.39-58.383C189.972,120.364,174.578,91.99,146.517,91.99z
			 M132.472,176.267c-11.708,0-21.442-11.799-21.442-27.529c0-16.16,8.566-28.167,21.442-28.167
			c13.655,0,21.234,12.422,21.234,26.712C153.706,164.468,145.724,176.267,132.472,176.267z"/>
		<path fill="#FFFFFF" d="M248.446,90.614c-32.591,0-57.408,21.157-57.408,57.733c0,36.383,24.817,57.527,57.408,57.527
			c32.592,0,57.409-21.145,57.409-57.527C305.855,111.771,281.037,90.614,248.446,90.614z M248.446,179.227
			c-15.718,0-22.155-14.59-22.155-30.88c0-16.483,6.438-31.086,22.155-31.086s22.17,14.603,22.17,31.086
			C270.615,164.637,264.163,179.227,248.446,179.227z"/>
		<path fill="#FFFFFF" d="M449.646,174.917c-8.022,0-13.525-0.351-13.525-12.993v-38.575h26.814V93.288H436.12V63.473l-16.407,0.792
			c0,0-9.709,17.38-16.744,23.441c-6.438,5.556-16.303,5.581-16.303,5.581H361.33V63.473l-16.38,0.792
			c0,0-9.787,17.314-16.758,23.441c-6.969,6.152-23.713,15.354-23.713,15.354v20.288h20.689v42.586
			c0,24.908,7.84,39.173,40.186,39.173c9.033,0,17.523-4.634,24.531-14.135l0.104-25.22c-5.502,6.658-11.5,9.164-15.134,9.164
			c-8.021,0-13.525-0.351-13.525-12.993v-38.575h17.938h7.397h13.293v42.586c0,24.908,7.839,39.173,40.185,39.173
			c8.337,0,15.812-4.022,22.791-12.049v-25.252C457.971,172.927,452.854,174.917,449.646,174.917z"/>
	</g>
</g>
</svg>
