<?xml version="1.0" encoding="utf-8"?>
<!-- Generator: Adobe Illustrator 19.1.0, SVG Export Plug-In . SVG Version: 6.00 Build 0)  -->
<svg version="1.1" id="Calque_2" xmlns="http://www.w3.org/2000/svg" xmlns:xlink="http://www.w3.org/1999/xlink" x="0px" y="0px"
	 viewBox="0 0 500 500" style="enable-background:new 0 0 500 500;" xml:space="preserve">
<g>
	<g>
		<path d="M295.4,475L295.4,475c-2.2,0-4-1-4.2-1.1l-0.4-0.3l-223-224.5L291.6,26c0.2-0.1,1.8-1,4-1c1.9,0,4.8,0.7,7.1,4.3
			c4.1,6.2,1.8,21.7,1.5,23.4l-0.1,0.5l-0.4,0.4L108.5,249.1l194.9,196.1l0.1,0.6c0.1,0.7,1.7,17.5-1.2,24.2
			C300.9,473.2,298.5,475,295.4,475z M293,471.1c0.4,0.2,1.4,0.6,2.4,0.6l0,0c1.7,0,2.9-1,3.7-2.9c2-4.8,1.4-17,1-22L103.8,249.1
			l1.2-1.2L301,51.7c0.7-4.8,1.7-16.4-1.1-20.5c-1.2-1.9-2.7-2.8-4.4-2.8c-1,0-1.8,0.3-2.1,0.5L72.6,249.1L293,471.1z"/>
	</g>
	<path d="M396.2,249.1L199.8,52.5c0,0-2.6-16.4,1.2-22.2c3.9-5.8,8.8-2.8,8.8-2.8l222.3,221.7L210.3,472.5c0,0-6,3.3-8.7-3.1
		c-2.7-6.4-1-23.4-1-23.4L396.2,249.1z"/>
	<g>
		<path d="M181.7,229.9l0.7-2.9c4.7-0.3,9.9-1.1,15.3-2.4c-1.4,4-2.5,7.3-3.2,9.8l-3.4,13.1c7.3,0,12.9-1.7,16.6-5.2
			c3.7-3.5,5.6-7.6,5.6-12.4c0-3.3-1.3-6-4-8c-2.7-2-6.7-3.1-12-3.1c-7.5,0-14.7,1.7-21.5,5.1c-6.8,3.4-12.1,7.8-15.9,13.2
			c-3.8,5.4-5.7,10.9-5.7,16.3c0,1.5,0.2,2.9,0.7,4.1c0.4,1.3,1.1,2.4,1.9,3.5c0.5,0.6,1.6,1.5,3.3,2.6c1.9,1.3,3.1,2.2,3.6,2.8
			c0.5,0.6,0.7,1.3,0.7,2.1c0,0.8-0.3,1.5-1,2.1c-0.6,0.6-1.4,0.9-2.3,0.9c-2.4,0-4.8-1.6-7.2-4.9c-2.4-3.3-3.6-7.3-3.6-12
			c0-6.6,2.1-13,6.3-19.1c4.2-6.2,10.1-11.1,17.7-14.8c7.6-3.7,16.1-5.6,25.2-5.6c7.5,0,13.2,1.4,17,4.2c3.9,2.8,5.8,6.2,5.8,10.2
			c0,3.8-1.3,7.3-3.9,10.4c-2.6,3.1-6.6,5.5-11.9,7.2c3.7,0.5,6.5,1.5,8.7,2.8c2.1,1.3,3.8,3,4.9,5c1.1,2,1.7,4.3,1.7,6.9
			c0,4.2-1.3,8.2-4,12c-2.6,3.8-6.5,6.9-11.7,9.4c-5.1,2.5-10.5,3.7-16.1,3.7c-1.6,0-5.1-0.2-10.4-0.5c-2.5-0.1-5.2-0.2-8-0.2
			c-4.2,0-8,0.3-11.3,0.9l0.9-3.2c4.4-0.2,7.5-1.2,9.3-3c1.9-1.7,3.6-5.6,5.2-11.5l9.2-34.1c0.4-1.5,0.6-2.6,0.6-3.3
			c0-0.6-0.3-1.1-0.8-1.6c-0.5-0.5-1.2-0.7-2-0.7C182.6,229.8,182.2,229.8,181.7,229.9z M190.3,251.1l-3.2,11.8
			c-1.6,6.1-3.2,10.8-4.7,14.1c-0.9,2-2,3.6-3.4,5c3.7,0.9,7,1.3,9.7,1.3c7.3,0,12.8-2.1,16.5-6.3c3.7-4.2,5.6-8.9,5.6-14.2
			c0-2.6-0.7-4.8-2.1-6.7s-3.2-3.2-5.5-3.9C200.9,251.5,196.6,251.1,190.3,251.1z"/>
	</g>
	<g>
		<path d="M327,229h-3.4c0.7-3.3,1.1-5.4,1.1-6.3c0-1.3-0.5-2.3-1.4-2.9c-1-0.6-2.8-0.9-5.4-0.9l-4,0.1l-1.3-0.1h-12.4
			c-0.3,0.9-0.9,3.2-2,6.9c-2.2,7.6-4,13.8-5.1,18.7h12.1c2.9,0,4.9-0.3,5.7-0.8c0.9-0.5,1.6-1.9,2.2-4.2h3.4
			c-1.3,4.9-2.4,10.1-3.4,15.4h-3.4c0.3-2.2,0.4-3.5,0.4-3.9c0-0.9-0.5-1.6-1.5-2.1c-0.6-0.3-2.2-0.4-4.7-0.5h-11.9
			c-1.2,5.4-2.8,11.3-4.7,17.6c-2,6.3-3.6,11.2-5,14.6c3.3,0.5,6.3,0.8,8.9,0.8c1.7,0,3.4-0.1,5-0.4l-1.1,3.3
			c-1.2,0.1-2.3,0.2-3.4,0.2c-0.9,0-3.8-0.1-8.6-0.4c-2.9-0.2-5.3-0.3-7.3-0.3c-4,0-8.3,0.4-12.9,1.1l0.7-3.2
			c3.7-0.7,6.1-1.5,7.3-2.3c1.2-0.8,2.1-1.8,2.7-3c1.3-2.4,3.7-9.8,7.2-22.2l9.5-35.2c-5.6,0.2-10.4,1.3-14.6,3.5
			c-4.2,2.2-7.5,5.1-10,8.8c-2.5,3.7-3.7,7.4-3.7,11.2c0,1.5,0.2,3.1,0.6,4.7c0.2,0.9,0.8,2.2,1.7,3.9c1.2,2.1,1.8,3.5,1.8,4.3
			c0,0.8-0.4,1.5-1.1,2.1c-0.7,0.6-1.6,0.9-2.7,0.9c-1.7,0-3-0.8-4.1-2.5c-1.4-2.2-2.1-5.3-2.1-9.3c0-7.9,3.3-15.1,9.8-21.7
			c6.5-6.6,15.1-9.9,25.8-9.9h23.9c2.7,0,5.6-0.2,8.8-0.5c1-0.1,3-0.5,6.2-1.2C328.7,221.5,327.4,226.7,327,229z"/>
	</g>
</g>
</svg>
