<?xml version="1.0" encoding="utf-8"?>
<!-- Generator: Adobe Illustrator 16.0.0, SVG Export Plug-In . SVG Version: 6.00 Build 0)  -->
<!DOCTYPE svg PUBLIC "-//W3C//DTD SVG 1.1//EN" "http://www.w3.org/Graphics/SVG/1.1/DTD/svg11.dtd">
<svg version="1.1" id="Calque_2" xmlns="http://www.w3.org/2000/svg" xmlns:xlink="http://www.w3.org/1999/xlink" x="0px" y="0px"
	 width="500px" height="500px" viewBox="0 0 500 500" enable-background="new 0 0 500 500" xml:space="preserve">
<g>
	<g>
		<path d="M295.442,475L295.442,475c-2.242,0-4.031-0.952-4.229-1.063l-0.375-0.281L67.881,249.138L291.63,26.039
			c0.175-0.104,1.764-1.039,3.957-1.039c1.948,0,4.763,0.748,7.131,4.3c4.108,6.164,1.782,21.68,1.504,23.43l-0.087,0.531
			l-0.378,0.379L108.494,249.145l194.852,196.058l0.058,0.589c0.067,0.711,1.666,17.493-1.158,24.226
			C300.9,473.23,298.483,475,295.442,475z M292.993,471.124c0.388,0.178,1.365,0.563,2.449,0.563l0,0
			c1.692,0,2.918-0.963,3.749-2.949c1.997-4.76,1.418-16.992,0.968-22.039l-196.339-197.56l1.165-1.168L301.029,51.682
			c0.702-4.785,1.702-16.394-1.067-20.545c-1.248-1.873-2.721-2.824-4.374-2.824c-0.983,0-1.78,0.333-2.097,0.485L72.563,249.147
			L292.993,471.124z"/>
	</g>
	<path d="M396.187,249.141L199.757,52.468c0,0-2.624-16.445,1.245-22.249c3.87-5.808,8.846-2.767,8.846-2.767l222.271,221.689
		L210.33,472.49c0,0-6.012,3.315-8.707-3.113c-2.695-6.425-1.035-23.424-1.035-23.424L396.187,249.141z"/>
	<g>
		<path d="M181.727,229.939l0.747-2.876c4.74-0.311,9.855-1.094,15.342-2.35c-1.449,4.035-2.507,7.287-3.17,9.755l-3.362,13.103
			c7.348,0,12.88-1.73,16.594-5.199c3.714-3.465,5.571-7.586,5.571-12.365c0-3.33-1.34-6.011-4.019-8.046
			c-2.682-2.035-6.681-3.054-12-3.054c-7.522,0-14.688,1.682-21.502,5.054c-6.816,3.368-12.123,7.765-15.924,13.19
			c-3.805,5.422-5.704,10.857-5.704,16.303c0,1.492,0.217,2.869,0.654,4.145c0.437,1.271,1.07,2.437,1.902,3.494
			c0.499,0.628,1.599,1.488,3.304,2.585c1.909,1.256,3.093,2.185,3.552,2.792c0.457,0.608,0.686,1.323,0.686,2.146
			c0,0.821-0.324,1.536-0.968,2.146c-0.644,0.604-1.423,0.908-2.335,0.908c-2.368,0-4.77-1.624-7.199-4.876
			c-2.433-3.251-3.646-7.267-3.646-12.045c0-6.577,2.087-12.954,6.264-19.121c4.177-6.17,10.084-11.117,17.733-14.837
			c7.645-3.721,16.057-5.581,25.242-5.581c7.48,0,13.161,1.391,17.047,4.17c3.886,2.779,5.827,6.166,5.827,10.162
			c0,3.798-1.307,7.253-3.928,10.366c-2.617,3.112-6.584,5.51-11.903,7.195c3.656,0.547,6.545,1.476,8.665,2.786
			c2.119,1.311,3.75,2.963,4.892,4.957c1.142,1.992,1.715,4.28,1.715,6.861c0,4.223-1.32,8.222-3.96,11.997
			c-2.637,3.772-6.522,6.901-11.654,9.383c-5.131,2.484-10.482,3.724-16.05,3.724c-1.621,0-5.089-0.155-10.408-0.469
			c-2.537-0.117-5.196-0.175-7.978-0.175c-4.239,0-7.998,0.311-11.282,0.938l0.935-3.226c4.364-0.236,7.47-1.22,9.318-2.954
			c1.85-1.737,3.584-5.565,5.205-11.492l9.224-34.114c0.372-1.456,0.56-2.559,0.56-3.31c0-0.589-0.259-1.113-0.78-1.566
			c-0.518-0.453-1.171-0.679-1.961-0.679C182.639,229.765,182.221,229.823,181.727,229.939z M190.29,251.098l-3.174,11.81
			c-1.618,6.11-3.174,10.813-4.666,14.103c-0.883,1.958-2.019,3.62-3.407,4.989c3.74,0.86,6.959,1.29,9.661,1.29
			c7.27,0,12.767-2.115,16.488-6.345c3.717-4.228,5.577-8.948,5.577-14.157c0-2.585-0.695-4.808-2.086-6.668
			s-3.216-3.16-5.478-3.905C200.944,251.47,196.638,251.098,190.29,251.098z"/>
	</g>
	<g>
		<path d="M327.002,228.979h-3.365c0.706-3.287,1.059-5.4,1.059-6.338c0-1.291-0.479-2.251-1.433-2.876
			c-0.952-0.625-2.761-0.941-5.417-0.941l-3.982,0.062l-1.307-0.062h-12.446c-0.253,0.903-0.92,3.19-2,6.869
			c-2.245,7.59-3.953,13.812-5.118,18.665h12.142c2.948,0,4.856-0.275,5.728-0.822c0.87-0.546,1.595-1.938,2.178-4.167h3.363
			c-1.287,4.931-2.406,10.075-3.363,15.437h-3.427c0.287-2.233,0.437-3.543,0.437-3.935c0-0.938-0.498-1.643-1.494-2.112
			c-0.583-0.271-2.162-0.449-4.73-0.527h-11.894c-1.206,5.439-2.782,11.308-4.733,17.607c-1.95,6.302-3.633,11.171-5.04,14.613
			c3.316,0.509,6.279,0.764,8.894,0.764c1.695,0,3.378-0.116,5.034-0.353l-1.058,3.346c-1.207,0.117-2.326,0.178-3.364,0.178
			c-0.917,0-3.782-0.14-8.601-0.41c-2.869-0.198-5.299-0.295-7.292-0.295c-4.031,0-8.334,0.353-12.902,1.059l0.747-3.229
			c3.697-0.744,6.138-1.527,7.322-2.349c1.187-0.822,2.09-1.818,2.711-2.993c1.287-2.388,3.701-9.78,7.23-22.185l9.538-35.158
			c-5.568,0.159-10.44,1.333-14.617,3.523c-4.178,2.19-7.5,5.135-9.972,8.833c-2.472,3.698-3.708,7.444-3.708,11.24
			c0,1.527,0.208,3.093,0.622,4.694c0.207,0.903,0.789,2.194,1.743,3.876c1.207,2.075,1.809,3.52,1.809,4.342
			c0,0.821-0.353,1.536-1.058,2.141c-0.709,0.609-1.621,0.91-2.743,0.91c-1.663,0-3.013-0.822-4.052-2.465
			c-1.413-2.19-2.119-5.3-2.119-9.332c0-7.865,3.262-15.103,9.788-21.716c6.521-6.574,15.122-9.858,25.802-9.858h23.935
			c2.659,0,5.584-0.158,8.787-0.472c0.955-0.078,3.013-0.489,6.17-1.233C328.685,221.485,327.417,226.71,327.002,228.979z"/>
	</g>
</g>
</svg>
