<?xml version="1.0" encoding="utf-8"?>
<!-- Generator: Adobe Illustrator 19.1.0, SVG Export Plug-In . SVG Version: 6.00 Build 0)  -->
<svg version="1.1" id="Calque_1" xmlns="http://www.w3.org/2000/svg" xmlns:xlink="http://www.w3.org/1999/xlink" x="0px" y="0px"
	 viewBox="36 -110 572.6 720" style="enable-background:new 36 -110 572.6 720;" xml:space="preserve">
<style type="text/css">
	.st0{fill:#78B648;}
	.st1{fill:none;}
	.st2{fill:#FFFFFF;}
</style>
<g id="Calque_1_1_">
	<g>
		<path class="st0" d="M116.4,265.7H87.2v-0.4V265v-0.3l9.1-1.3c0.8-4.5,1.3-16.7,1.3-20.5l0,0v-11.3c0-6.2-0.4-12.7-0.9-15.8l0,0
			l-9.4-1.2v-0.4v-0.8h27c6.2,0,10.1,1.7,12.4,4.2l0,0c2.4,2.5,3.1,5.6,3.1,8.2l0,0c0,6.7-4.8,10.7-10.2,12l0,0
			c9.7,1.3,14.5,7.6,14.5,13.9l0,0c0,2.5-0.8,6-3.4,8.9l0,0C128.2,263.5,123.7,265.7,116.4,265.7L116.4,265.7
			C116.4,265.7,116.4,265.7,116.4,265.7L116.4,265.7z M110.3,216.2c-0.5,0-2.6,0-3.9,0.3l0,0c-0.6,3.7-0.8,8-0.8,13l0,0
			c0,1.8,0,5.3,0.2,6.9l0,0c1.2,0.5,2.6,0.5,3.9,0.5l0,0c6.8,0,12-3.5,12-10.9l0,0C121.6,220.8,118.6,216.2,110.3,216.2L110.3,216.2
			 M124.4,260.5L124.4,260.5 M113.3,262.9c7.4,0,12.3-3.6,12.3-11l0,0c0-7-5.2-12.2-15.3-12.3l0,0c-1.9,0-3.5,0.1-4.5,0.4l0,0
			c-0.2,2-0.3,5.9-0.3,8.1l0,0c0,4.4,0.3,10.2,0.5,13l0,0C108.6,262.4,110.4,262.9,113.3,262.9L113.3,262.9z"/>
	</g>
	<path class="st0" d="M177.4,262.5c-3.2-3.1-10.3-14.7-13.4-17.8l0,0c-1.9-1.8-2.8-2.4-6.3-2.4l0,0c-0.5,0-2,0-3.2,0.2l0,0
		c-0.1,1.2-0.2,2.5-0.2,3.9l0,0v6.5c0,3.5,0.4,7.1,0.9,10.5l0,0l8.9,1.2v0.4v0.8h-27.4v-0.4v-0.7l8.3-1.2c0.7-5.3,1.1-16.4,1.1-19
		l0,0v-10.9c0-5.3-0.4-13.4-1-17.7l0,0l-8.5-1.2v-0.3v-0.8h24c7.5,0,12,2.8,14.7,6l0,0c2.6,3.3,3.4,6.9,3.4,8.8l0,0
		c0,6.6-4.8,11-9.7,12.2l0,0c1.4,0.7,2.3,1.4,3,2.1l0,0c3.7,3.8,10.6,15.5,14.4,19.2l0,0c2,2,3.8,2.8,5.7,2.8l0,0h0.4v0.4v0.8H186
		c0,0,0,0,0,0l0,0C183,265.7,180,265.1,177.4,262.5L177.4,262.5z M158.2,239.6c9.4,0,12.2-5.3,12.2-10.6l0,0
		c0-7.7-6.8-12.8-12.4-12.8l0,0c-0.6,0-1.8,0-2.8,0.3l0,0c-0.4,2.7-0.8,8.9-0.8,11.9l0,0v5.8c0,1.7,0.1,4.2,0.2,5.3l0,0
		C155.8,239.6,157.1,239.6,158.2,239.6L158.2,239.6z"/>
	<g>
		<g>
			<path class="st0" d="M223.4,265.7v-0.4v-0.7l9.7-1.2c-0.8-4.5-2.8-10-5-13.9l0,0h-21.9c-1.6,3.9-4.1,10.1-4.9,13.9l0,0l9.3,1.2
				v0.4v0.8h-20.8v-0.4v-0.7l6.8-1.2c1.5-2.5,3.1-5.8,4.3-8.8l0,0l16.7-41.7h3.2v0.4v-0.4h0.3l15.5,36.5c2,4.8,4.3,9.2,6.9,13.9l0,0
				l6.1,1.3v0.3v0.8L223.4,265.7L223.4,265.7z M217.1,246.8c3.2,0,6.5-0.1,9.7-0.4l0,0c-1.9-5.4-6.1-15.2-10-22.3l0,0
				c-3.2,6.2-7.7,18.1-9.4,22.3l0,0C210.6,246.7,213.9,246.8,217.1,246.8L217.1,246.8z"/>
			<path class="st0" d="M249.6,265.8h-26.3v-1.3l0.1,0l9.6-1.2c-0.8-4.3-2.7-9.8-4.9-13.8h-21.8l-0.3,0.7c-1.5,3.8-3.8,9.5-4.5,13
				l9.3,1.2v1.3h-21v-1.3l0.1,0l6.7-1.2c1.5-2.5,3-5.7,4.3-8.7l16.7-41.7h3.6l0,0.1l15.5,36.5c2,4.7,4.2,9.1,6.9,13.9l6.1,1.3V265.8
				z M223.5,265.6h25.9v-0.9l-6-1.2l0,0c-2.7-4.8-4.9-9.2-6.9-13.9L220.9,213h-0.1v0.3h-0.2V213h-3l-16.7,41.6
				c-1.2,3.1-2.8,6.3-4.3,8.8l0,0l0,0l-6.7,1.2v0.9h20.6v-0.9l-9.3-1.2l0-0.1c0.7-3.6,3-9.4,4.6-13.2l0.3-0.8h22.1l0,0.1
				c2.2,4,4.2,9.6,5,14l0,0.1l-0.1,0l-9.6,1.2V265.6z M217.1,246.9c-3,0-6.5-0.1-9.7-0.4l-0.1,0l0-0.1c0.2-0.6,0.5-1.2,0.8-2
				c2.1-5.2,5.9-14.9,8.6-20.3l0.1-0.2l0.1,0.2c3.9,7.2,8.1,16.8,10,22.3l0,0.1l-0.1,0C223.5,246.8,220.2,246.9,217.1,246.9z
				 M207.6,246.2c3.2,0.4,6.6,0.4,9.6,0.4c3,0,6.3-0.1,9.6-0.4c-2-5.4-6-14.9-9.9-22c-2.7,5.4-6.5,14.9-8.5,20.1
				C208,245.1,207.8,245.7,207.6,246.2z"/>
		</g>
	</g>
	<g>
		<path class="st0" d="M250.8,265.7v-1.9l24.2-32.1c3.3-4.4,6.9-9.7,9.3-13.7l0,0c-1.9-0.6-7.2-1.6-12.2-1.6l0,0h-5.5
			c-1.9,0-7.7,0.5-9.8,0.9l0,0l-3.2,8.6h-0.3h-1l1.7-12.6l0.1-0.4l0.4,0c1.4,0.1,2.7,0.3,4,0.4l0,0c1.3,0.1,2.6,0.2,3.6,0.2l0,0
			h34.4v2l-23.3,30.9c-1.7,2.2-7.2,9.9-10.1,14.9l0,0c2.9,0.7,9.8,1.4,13.2,1.4l0,0h5.1c1.7,0,6.7-0.3,9.7-0.8l0,0l3.8-9h0.3h1
			l-2,13L250.8,265.7L250.8,265.7z"/>
	</g>
	<g>
		<path class="st0" d="M298.8,265.7v-0.4v-0.7l8.8-1.3c0.7-5.6,1.1-15.1,1.1-22.4l0,0V235c0-8.1-0.5-15.2-1.1-19.2l0,0l-8.9-1.2
			v-0.3v-0.8h27.9v0.4v0.7l-8.9,1.2c-0.6,5.6-1,13.2-1,19.9l0,0v7.8c0,6.3,0.5,15.7,1.1,20l0,0l8.8,1.2v0.3v0.4v0.4L298.8,265.7
			L298.8,265.7z"/>
	</g>
	<g>
		<path class="st0" d="M327,214.6l-0.3-0.1v-0.3v-0.8h18.7l0.1,0.2c2.3,3.1,6.4,8,9.7,11.5l0,0l16.1,17.6c2.9,3.1,5.6,6.1,8.9,9.2
			l0,0c0.2-2.4,0.4-5.6,0.4-7.6l0,0V229c0-4.4-0.3-9.3-0.8-13.2l0,0l-8.8-1.3v-0.3v-0.8H393v0.4v0.7l-8.8,1.3
			c-0.4,3.4-0.6,8.5-0.6,12.3l0,0v38.9h-0.4l0,0h-0.6l-0.1-0.2c-3.6-4.5-7.1-8.6-10.8-12.7l0,0l-21.9-24c-2.4-2.6-5.1-5.3-7.6-7.6
			l0,0c-0.3,2.5-0.5,5.5-0.5,8.1l0,0V253c0,3.5,0.3,7.3,0.7,10.3l0,0l9.1,1.3v0.3v0.8h-22.6v-0.4v-0.7l8.9-1.2
			c0.5-3.7,0.8-12.5,0.8-15.2l0,0V231c0-3.9-0.1-8.2-0.5-11.8l0,0l-4.6-3.3L327,214.6"/>
	</g>
	<g>
		<path class="st0" d="M425.3,266.1c-10.5,0-18-3.9-22.8-9.2l0,0c-4.8-5.3-7-11.9-7-17.2l0,0c0-7,2.9-13.7,7.9-18.7l0,0
			c5.1-5,12.3-8.2,21.2-8.2l0,0c10.7,0,18.2,4,22.9,9.4l0,0c4.7,5.4,6.8,12,6.8,17.3l0,0c0,6.3-2.6,12.9-7.5,18l0,0
			C441.9,262.5,434.7,266.1,425.3,266.1L425.3,266.1C425.3,266.1,425.3,266.1,425.3,266.1L425.3,266.1z M424.9,262.9
			c10.6,0,20.2-8.1,20.2-22.6l0,0c0-21.2-14.1-24.3-20.3-24.4l0,0c-10.8,0-20.1,8.5-20.1,23.4l0,0
			C404.7,255.8,415.5,262.9,424.9,262.9L424.9,262.9z"/>
	</g>
	<g>
		<g>
			<path class="st0" d="M488.5,265.7v-0.4v-0.7l11.1-1.2c-4.3-7-11.5-15.3-16.4-20.5l0,0c-6.7,6.8-13.9,15.5-17.3,20.6l0,0l10.6,1.2
				v0.4v0.8h-24.6v-0.4v-0.7l8.4-1.3c7.3-7.1,16.2-17.9,20.4-23.7l0,0c-5.3-6.8-15.7-19.7-20.4-24l0,0l-8.2-1.2v-0.3v-0.4v-0.4h30.8
				v0.4v0.7l-11.2,1.1c4.8,7.4,9.7,12.9,15.8,19.8l0,0c6.1-6.1,13.5-14.8,16.8-19.8l0,0l-10.6-1.1v-0.4v-0.8h24.8v0.4v0.7l-8.7,1.1
				c-5.7,5.2-17.3,19.2-19.7,22.9l0,0c6.7,8.6,16.1,20.3,21.4,24.9l0,0l6.9,1.2v0.3v0.8L488.5,265.7L488.5,265.7z"/>
			<path class="st0" d="M518.5,265.8h-30.1v-1.3l0.1,0l10.9-1.2c-4.2-6.8-11.1-14.8-16.2-20.3c-6.2,6.4-13.6,15-17.2,20.3l10.6,1.2
				v1.3h-24.8v-1.3l8.5-1.3c7.6-7.3,16.4-18.3,20.3-23.6c-5.4-7-15.6-19.6-20.4-23.9l-8.3-1.2v-1.3h31v1.3l-0.1,0l-11,1.1
				c4.6,7.1,9.3,12.4,15.2,19.1l0.4,0.5c6.3-6.4,13.4-14.7,16.6-19.6l-10.6-1.1v-1.3h25v1.3l-8.7,1.1c-5.6,5.2-17.2,19.1-19.6,22.8
				c4.5,5.8,15.5,19.7,21.3,24.8l7,1.2V265.8z M488.6,265.6h29.7v-0.9l-6.8-1.2l0,0c-5.7-4.9-15.9-17.7-21.4-24.9l0-0.1l0-0.1
				c2.4-3.7,13.9-17.7,19.7-22.9l0,0l0,0l8.6-1.1v-0.9h-24.6v0.9l10.7,1.1l-0.1,0.1c-3.2,4.9-10.4,13.4-16.8,19.8l-0.1,0.1L487,235
				c-6-6.7-10.7-12-15.3-19.3l-0.1-0.1l11.2-1.1v-0.9h-30.6v0.9l8.2,1.2l0,0c4.7,4.3,15.1,17,20.5,24l0,0.1l0,0.1
				c-3.8,5.3-12.8,16.3-20.4,23.7l0,0l0,0l-8.3,1.2v0.9h24.4v-0.9l-10.7-1.2l0.1-0.1c3.6-5.3,11-14.1,17.4-20.6l0.1-0.1l0.1,0.1
				c5.2,5.6,12.2,13.7,16.4,20.6l0.1,0.1l-0.2,0l-11,1.2V265.6z"/>
		</g>
	</g>
	<g>
		<g>
			<path class="st0" d="M464.5,282.8c0.6-0.3,1-0.9,1-1.6c0-0.4-0.1-0.9-0.5-1.3c-0.4-0.4-1-0.6-1.9-0.6l-4,0v0.3v0.2l1.4,0.2
				c0.1,0.5,0.1,1.3,0.1,2.1v1.6c0,0.5-0.1,2-0.2,2.7l-1.3,0.2v0.2v0v0.3h4.3c0,0,0,0,0,0c1.1,0,1.8-0.3,2.2-0.8
				c0.4-0.5,0.5-1,0.5-1.4C466.1,284,465.5,283.1,464.5,282.8z M462.4,282.5c-0.1,0-0.3,0-0.4,0c0-0.2,0-0.6,0-0.8
				c0-0.6,0-1.2,0.1-1.7c0.1,0,0.3,0,0.4,0c1.1,0,1.4,0.5,1.4,1.2C463.9,282.1,463.3,282.5,462.4,282.5z M462,284.3c0-0.3,0-0.7,0-1
				c0.1,0,0.3,0,0.5,0c1.4,0,2,0.7,2,1.5c0,0.9-0.6,1.3-1.6,1.4c-0.4,0-0.6,0-0.8-0.2C462,285.6,462,284.9,462,284.3z"/>
		</g>
	</g>
	<g>
		<path class="st0" d="M471,279.2v0.3v0.2l1.3,0.2c-0.5,0.7-1.3,2-1.9,2.7c-0.5-0.7-1.3-1.8-1.7-2.7l1.4-0.2v-0.3v-0.3h-4.5v0.3v0.2
			l1.1,0.2c0.8,1,1.9,2.6,2.5,3.7c0,0.5,0,0.8,0,1c0,0.4,0,1.2-0.1,1.6l-1.3,0.2v0.3v0.2h4.4v-0.3v-0.2l-1.3-0.2
			c-0.1-0.4-0.1-1-0.1-1.4c0-0.3,0-0.8,0-1.3c0.9-1.3,1.9-2.8,2.6-3.7l0.8-0.1l0.2,0v-0.3v-0.3L471,279.2L471,279.2z"/>
	</g>
	<g>
		<path class="st0" d="M481.4,283.2c-1.1-1-2.8-1.6-2.7-2.3c0-0.6,0.5-1,1.3-1c0.3,0,0.7,0.1,1,0.2l0.3,1.2h0.3h0.3l0-2.2l-0.3,0
			c-0.1,0-0.2,0-0.5,0c-0.1,0-0.3,0-0.5,0c-0.2,0-0.4,0-0.7,0c-1.7,0-2.4,1.2-2.4,2.1c0,0.6,0.3,1.1,0.7,1.5
			c1.2,1.1,2.7,1.5,2.6,2.4c0,0.5-0.4,1.1-1.4,1.1c0,0,0,0,0,0c-0.3,0-0.8-0.1-1.1-0.2l-0.4-1.3h-0.3h-0.3l0.1,2.2h0.2
			c0.1,0,0.2,0,0.4,0c0.3,0,0.7,0.1,1.4,0.1c2,0,2.7-1.4,2.7-2.3C482.1,284.5,482,283.8,481.4,283.2z"/>
	</g>
	<g>
		<path class="st0" d="M482,279.2v0.3v0.2l1.3,0.2c0.1,0.6,0.1,1.5,0.1,2.5v0.8c0,1-0.1,2.2-0.1,3l-1.3,0.2v0.3v0.2h4.3v-0.2v-0.1
			v-0.2l-1.3-0.2c-0.1-0.6-0.1-1.8-0.1-2.6v-1.1c0-0.9,0-1.9,0.1-2.6l1.3-0.2v-0.3v-0.2L482,279.2L482,279.2z"/>
	</g>
	<g>
		<g>
			<path class="st0" d="M494.1,286.4c-0.2,0-0.4-0.1-0.7-0.3c-0.5-0.5-1.5-2.1-2-2.7c0,0-0.1-0.1-0.1-0.1c0.6-0.3,1.1-0.9,1.1-1.8
				c0-0.6-0.5-2.3-2.8-2.3h-3.6v0.3v0.2l1.2,0.2c0.1,0.6,0.1,1.7,0.1,2.3v1.5c0,0.3-0.1,1.7-0.1,2.5l-1.2,0.2v0.3v0.2h4.3v-0.3v-0.2
				l-1.3-0.2c-0.1-0.4-0.1-0.9-0.1-1.3V284c0-0.1,0-0.3,0-0.4c0.1,0,0.2,0,0.3,0c0.5,0,0.5,0,0.8,0.3c0.4,0.4,1.4,2,1.9,2.5
				c0.4,0.4,0.9,0.5,1.3,0.5c0,0,0,0,0,0h0.9h0.2v-0.3v-0.2H494.1z M488.9,281.5c0-0.4,0-1.1,0.1-1.5c0.1,0,0.2,0,0.2,0
				c0.7,0,1.6,0.6,1.6,1.6c0,0.7-0.3,1.3-1.5,1.3c-0.1,0-0.2,0-0.3,0c0-0.2,0-0.4,0-0.6V281.5z"/>
		</g>
	</g>
	<g>
		<path class="st0" d="M500.9,285.1l-0.2-0.1l-0.1,0.1c-0.6,0.8-1.4,0.9-2.1,1c-1.7,0-3.2-1.2-3.2-3.1c0-1.9,1-3,3-3
			c0.7,0,1.4,0.1,1.9,0.2l0.4,1.1h0.2h0.3l-0.1-2.2l-0.3,0c-0.2,0-0.6,0-1,0c-0.4,0-0.7,0-1,0c-0.3,0-0.6,0-0.9,0
			c-2.3,0-4.1,1.6-4.1,4c0,1.8,1.4,3.9,4.4,3.9c0.5,0,0.9-0.1,1.4-0.1c0.2,0,0.6,0,0.7,0l0.2,0l0.1-0.1l0.9-1.6L500.9,285.1z"/>
	</g>
	<g>
		<g>
			<path class="st0" d="M505.7,279.1c-2.6,0-4.3,1.9-4.3,4c0,1.6,1.3,3.9,4.4,3.9c2.8,0,4.3-2.1,4.3-3.9h0
				C510.1,281.5,508.8,279.1,505.7,279.1z M503,283.1c0-2,1.2-3.1,2.7-3.1c0.8,0,2.7,0.4,2.7,3.2c0,2-1.3,3-2.7,3
				C504.5,286.2,503,285.3,503,283.1z"/>
		</g>
	</g>
	<g>
		<path class="st0" d="M518.8,279.2h-5.9v0.2v0.1v0.2l1.3,0.2c0.1,0.7,0.1,1.9,0.1,2.3v1.4c0,0.6-0.1,1.9-0.1,2.7l-1.3,0.2v0.3v0.2
			h4.3v-0.3v-0.2l-1.3-0.2c-0.1-0.6-0.1-1.6-0.1-2.1c0-0.2,0-0.5,0-0.8c0.3,0,0.6,0,0.9,0c0.3,0,0.6,0,0.9,0l0.2,0.7l0,0.2h0.3h0.2
			v-2.6H518h-0.2l-0.3,0.9c-0.3,0-0.6,0-0.9,0c-0.3,0-0.6,0-0.9,0c0-0.3,0-0.6,0-0.8c0-0.4,0-1.1,0.1-1.6c0.5-0.1,1-0.1,1.4-0.1
			c0.2,0,0.4,0,0.8,0l0.4,1.3h0.3h0.3L518.8,279.2z"/>
	</g>
	<g>
		<g>
			<path class="st0" d="M527,286.4c-0.2,0-0.4-0.1-0.7-0.3c-0.5-0.5-1.5-2.1-2-2.7c0,0-0.1-0.1-0.1-0.1c0.6-0.3,1.1-0.9,1.1-1.8
				c0-0.6-0.5-2.3-2.8-2.3h-3.6v0.3v0.2l1.2,0.2c0.1,0.6,0.1,1.7,0.1,2.3v1.5c0,0.3-0.1,1.7-0.1,2.5l-1.2,0.2v0.3v0.2h4.3v-0.3v-0.2
				l-1.3-0.2c-0.1-0.4-0.1-0.9-0.1-1.3V284c0-0.1,0-0.3,0-0.4c0.1,0,0.2,0,0.3,0c0.5,0,0.5,0,0.8,0.3c0.4,0.4,1.4,2,1.9,2.5
				c0.4,0.4,0.9,0.5,1.3,0.5c0,0,0,0,0,0h0.9h0.2v-0.3v-0.3H527z M521.8,281.5c0-0.4,0-1.1,0.1-1.5c0.1,0,0.2,0,0.2,0
				c0.7,0,1.6,0.6,1.6,1.6c0,0.7-0.3,1.3-1.5,1.3c-0.1,0-0.2,0-0.3,0c0-0.2,0-0.4,0-0.6V281.5z"/>
		</g>
	</g>
	<g>
		<g>
			<path class="st1" d="M529.4,283.9c0.4,0,0.7,0,1.1,0c0.4,0,0.7,0,1.1,0c-0.3-0.7-0.7-1.7-1.1-2.5
				C530.1,282.1,529.7,283.2,529.4,283.9z"/>
		</g>
		<g>
			<path class="st0" d="M534.4,286.3c-0.4-0.6-0.7-1.2-0.9-1.9l-2.3-5.3H531h-0.4h-0.2l-2.4,6c-0.2,0.4-0.4,0.8-0.5,1.1l-0.8,0.2
				l-0.2,0v0.3v0.2h3.3v-0.3v-0.2l-1.3-0.2c0.1-0.5,0.4-1.1,0.6-1.6h2.9c0.2,0.5,0.5,1.1,0.6,1.6l-1.3,0.2v0.3v0.2h4.1v-0.3v-0.2
				L534.4,286.3z M530.5,283.9c-0.4,0-0.7,0-1.1,0c0.2-0.6,0.7-1.8,1.1-2.6c0.4,0.8,0.9,1.9,1.1,2.5
				C531.3,283.9,530.9,283.9,530.5,283.9z"/>
		</g>
	</g>
	<g>
		<path class="st0" d="M540.9,279.2v0.3v0.2l1.3,0.2c0.1,0.5,0.1,1.1,0.1,1.7v2.1c0,0.2,0,0.4,0,0.6c-0.3-0.3-0.6-0.7-1-1l-2.3-2.5
			c-0.5-0.5-1-1.2-1.4-1.6l-0.1-0.1h-2.9v0.3v0.2l0.2,0l0.9,0.2l0.5,0.4c0,0.5,0.1,1,0.1,1.6v2.4c0,0.3,0,1.4-0.1,2l-1.3,0.2v0.3
			v0.2h3.6v-0.3v-0.2l-1.3-0.2c0-0.4-0.1-0.9-0.1-1.3v-3.1c0-0.2,0-0.5,0-0.7c0.3,0.3,0.5,0.5,0.8,0.8l3.1,3.4
			c0.5,0.6,1,1.1,1.5,1.8l0.1,0.1h0.2h0.2v-5.7c0-0.5,0-1.1,0.1-1.6l1.3-0.2v-0.3v-0.2L540.9,279.2L540.9,279.2z"/>
	</g>
	<g>
		<path class="st0" d="M552,285.1l-0.2-0.1l-0.1,0.1c-0.6,0.8-1.4,0.9-2.1,1c-1.7,0-3.2-1.2-3.2-3.1c0-1.9,1-3,3-3
			c0.7,0,1.4,0.1,1.9,0.2l0.4,1.1h0.2h0.3l-0.1-2.2l-0.3,0c-0.2,0-0.6,0-1,0c-0.4,0-0.7,0-1,0c-0.3,0-0.6,0-0.9,0
			c-2.3,0-4.1,1.6-4.1,4c0,1.8,1.4,3.9,4.4,3.9c0.5,0,0.9-0.1,1.4-0.1c0.2,0,0.6,0,0.7,0l0.2,0l0.1-0.1l0.9-1.6L552,285.1z"/>
	</g>
	<g>
		<path class="st0" d="M557.8,284.9h-0.2l-0.4,1.2c-0.3,0-0.6,0-0.8,0c-0.5,0-1,0-1.4-0.1c0-0.5-0.1-1.4-0.1-1.9c0-0.2,0-0.5,0-0.7
			c0.4,0,0.7,0,1,0c0.3,0,0.5,0,0.8,0l0.2,0.7l0,0.2h0.3h0.2v-2.6h-0.3H557l-0.2,0.9c-0.3,0-0.7,0-1,0c-0.3,0-0.5,0-0.8,0
			c0-0.3,0-0.6,0-0.8c0-0.7,0-1.3,0.1-1.6c0.3-0.1,0.8-0.1,1.4-0.1c0.3,0,0.5,0,0.8,0l0.4,1.2h0.3h0.3l-0.2-2h-5.9v0.2v0.1v0.2
			l1.3,0.2c0.1,0.9,0.1,1.9,0.1,2.3v1.2c0,0.6-0.1,2.2-0.1,2.8l-1.2,0.2v0.3v0.2h6l0.1-2.1L557.8,284.9L557.8,284.9z"/>
	</g>
	<g>
		<g>
			<path class="st0" d="M527.4,265.9c-1.9,0-3.4-1.5-3.4-3.4s1.5-3.4,3.4-3.4c1.9,0,3.4,1.5,3.4,3.4S529.2,265.9,527.4,265.9z
				 M527.4,259.6c-1.6,0-2.9,1.3-2.9,2.9s1.3,2.9,2.9,2.9c1.6,0,2.9-1.3,2.9-2.9S529,259.6,527.4,259.6z M528.4,264.6l-1.5-1.9
				l-0.2,0v1.4c0,0.1,0.1,0.2,0.5,0.2h0.1v0.4h-1.9v-0.4h0.1c0.2,0,0.3,0,0.3-0.1c0.1-0.1,0.1-0.1,0.1-0.5v-2.4c0-0.4,0-0.4-0.1-0.5
				c0,0-0.1-0.1-0.3-0.1l-0.1,0v-0.4h1.9c0.9,0,1.5,0.5,1.5,1.1c0,0.5-0.3,0.9-1,1.1l0.9,1.3c0.2,0.3,0.3,0.4,0.5,0.4l0.1,0v0.4
				L528.4,264.6L528.4,264.6z M526.8,262.3c0.7,0,1.1-0.3,1.1-0.8c0-0.5-0.4-0.8-0.8-0.8c-0.1,0-0.2,0-0.3,0L526.8,262.3
				L526.8,262.3z"/>
			<path class="st0" d="M527.4,259.2c1.8,0,3.3,1.5,3.3,3.3s-1.5,3.3-3.3,3.3c-1.8,0-3.3-1.5-3.3-3.3S525.5,259.2,527.4,259.2
				 M527.4,265.5c1.7,0,3-1.3,3-3s-1.4-3-3-3s-3,1.3-3,3S525.7,265.5,527.4,265.5 M527.3,260.5c0.8,0,1.4,0.4,1.4,1
				c0,0.5-0.3,0.9-1,1l1,1.4c0.2,0.3,0.3,0.4,0.6,0.4v0.2h-0.9l-1.4-1.9h-0.4v1.1v0.3c0,0.2,0.2,0.3,0.6,0.3v0.2h-1.7v-0.2
				c0.2,0,0.3,0,0.4-0.1c0.1-0.1,0.1-0.1,0.1-0.5v-2.4c0-0.4,0-0.4-0.1-0.5c-0.1-0.1-0.2-0.1-0.3-0.1v-0.2L527.3,260.5 M526.6,262.4
				h0.1c0.8,0,1.2-0.3,1.2-0.9c0-0.5-0.4-0.9-0.9-0.9c-0.1,0-0.2,0-0.4,0.1V262.4 M527.4,259c-1.9,0-3.5,1.6-3.5,3.5
				s1.6,3.5,3.5,3.5c1.9,0,3.5-1.6,3.5-3.5S529.3,259,527.4,259L527.4,259z M525.6,260.3c0.5-0.4,1.1-0.6,1.7-0.6
				c1.6,0,2.8,1.3,2.8,2.8c0,0.7-0.3,1.4-0.8,1.9v-0.1v-0.2l-0.2,0c-0.1,0-0.2,0-0.4-0.3l-0.8-1.2c0.6-0.2,0.9-0.6,0.9-1.1
				c0-0.7-0.6-1.2-1.6-1.2L525.6,260.3L525.6,260.3z M525.3,264.4c-0.5-0.5-0.7-1.2-0.7-1.9c0-0.8,0.3-1.5,0.8-2v0.1v0.2l0.2,0
				c0.2,0,0.2,0,0.2,0c0,0.1,0,0.3,0,0.4v2.4c0,0.3,0,0.3,0,0.4c0,0,0,0-0.2,0h-0.2V264.4L525.3,264.4L525.3,264.4z M526.8,260.9
				c0.1,0,0.1,0,0.2,0c0.4,0,0.7,0.3,0.7,0.7c0,0.5-0.6,0.6-0.9,0.6L526.8,260.9L526.8,260.9z M526.8,262.8L526.8,262.8l1.4,1.8
				l0.1,0.1h0.1h0.8c-0.5,0.4-1.1,0.6-1.8,0.6c-0.7,0-1.3-0.2-1.8-0.6h1.6h0.2v-0.2v-0.2v-0.2h-0.2c-0.3,0-0.3,0-0.4-0.1l0-0.3
				L526.8,262.8L526.8,262.8z"/>
		</g>
	</g>
</g>
<g id="Calque_2">
	<path class="st2" d="M124.4,260.5c-1.4,1.5-3.4,2.8-6,3.4l0,0c7.5-1.1,11-6.4,11-11.9l0,0c0-6.5-3.7-11.4-11-12.7l0,0
		c4.9,1.8,9.1,5.9,9.1,12.7l0,0C127.6,255,126.7,258.1,124.4,260.5"/>
	<g>
		<path class="st2" d="M123.7,226.3c0,5.3-2.6,8.5-5.6,10.2l0,0c4.8-1.7,7.3-5.9,7.3-10.4l0,0c0-6.5-4.4-10.5-10.5-11l0,0
			C120.7,216.4,123.7,220.7,123.7,226.3L123.7,226.3z"/>
	</g>
	<g>
		<polygon class="st2" points="99.4,263.5 101,263.5 101,215.5 99.4,215.5 		"/>
	</g>
	<g>
		<path class="st2" d="M172.4,229.2c0,3.8-1.4,6.9-4,9l0,0c3.3-1.8,5.7-5.3,5.7-9.7l0,0c0-7.4-5.7-12-11.8-13.1l0,0
			C169.6,217.5,172.4,224.3,172.4,229.2L172.4,229.2z"/>
	</g>
	<g>
		<path class="st2" d="M167.2,245.5l7.7,11.1c2.9,4.1,5.1,6.5,8.5,7l0,0c-2-1.1-3.9-3.5-6.3-6.7l0,0l-6.2-8.8
			c-2.2-3.1-3.8-5-6.7-5.9l0,0C165.4,243.1,166.3,244.3,167.2,245.5L167.2,245.5z"/>
	</g>
	<g>
		<polygon class="st2" points="148.1,263.5 149.8,263.5 149.8,215.6 148.1,215.6 		"/>
	</g>
	<polyline class="st2" points="236.3,263.5 236.3,263.5 237.8,263.5 218.6,218.3 217.9,220.2 236.3,263.5 	"/>
	<g>
		<polyline class="st2" points="253.3,263.5 253.3,263.5 255.1,263.5 291.2,215.7 289.4,215.7 253.3,263.5 		"/>
		<path class="st0" d="M255.1,263.6h-2l0.1-0.2l36.1-47.8h2l-0.1,0.2L255.1,263.6z M253.5,263.4h1.5l35.9-47.6h-1.5L253.5,263.4z"/>
	</g>
	<polyline class="st2" points="310.5,263.5 310.5,263.5 312.2,263.5 312.2,215.6 310.5,215.6 310.5,263.5 	"/>
	<polygon class="st2" points="380.6,261.3 380.6,259.2 340.6,215.5 338.7,215.5 	"/>
	<g>
		<path class="st2" d="M447.4,239.7c0,8.6-3.1,17.8-11.3,22.3l0,0c7.6-3.5,13.2-11.2,13.2-22.5l0,0c0-12.5-6.4-19.9-14-23.1l0,0
			C441.6,219.5,447.4,226.3,447.4,239.7L447.4,239.7z"/>
	</g>
	<g>
		<path class="st2" d="M397.8,239.5c0,9.9,7.1,19.8,17.6,23.3l0,0c-10.1-4-15.8-13.7-15.8-23.1l0,0c0-10.7,6.1-20,16-23.9l0,0
			C405.5,219.2,397.8,228.7,397.8,239.5L397.8,239.5z"/>
	</g>
	<polyline class="st2" points="503.1,263.5 503.1,263.5 505,263.5 465.2,215.5 463.2,215.5 503.1,263.5 	"/>
</g>
</svg>
