<?xml version="1.0" encoding="utf-8"?>
<!-- Generator: Adobe Illustrator 21.0.2, SVG Export Plug-In . SVG Version: 6.00 Build 0)  -->
<svg version="1.1" id="Calque_1" xmlns="http://www.w3.org/2000/svg" xmlns:xlink="http://www.w3.org/1999/xlink" x="0px" y="0px"
	 viewBox="0 0 505.4 126" style="enable-background:new 0 0 505.4 126;" xml:space="preserve">
<style type="text/css">
	.st0{fill:#78B648;}
	.st1{fill:none;}
	.st2{fill:#FFFFFF;}
</style>
<path class="st0" d="M46.8,78.7H17.6v-0.4V78v-0.3l9.1-1.3c0.8-4.5,1.3-16.7,1.3-20.5l0,0V44.6c0-6.2-0.4-12.7-0.9-15.8l0,0
	l-9.4-1.2v-0.4v-0.8h27c6.2,0,10.1,1.7,12.4,4.2l0,0c2.4,2.5,3.1,5.6,3.1,8.2l0,0c0,6.7-4.8,10.7-10.2,12l0,0
	c9.7,1.3,14.5,7.6,14.5,13.9l0,0c0,2.5-0.8,6-3.4,8.9l0,0C58.6,76.5,54.1,78.7,46.8,78.7L46.8,78.7L46.8,78.7L46.8,78.7z M40.7,29.2
	c-0.5,0-2.6,0-3.9,0.3l0,0c-0.6,3.7-0.8,8-0.8,13l0,0c0,1.8,0,5.3,0.2,6.9l0,0c1.2,0.5,2.6,0.5,3.9,0.5l0,0c6.8,0,12-3.5,12-10.9
	l0,0C52,33.8,49,29.2,40.7,29.2L40.7,29.2 M54.8,73.5L54.8,73.5 M43.7,75.9c7.4,0,12.3-3.6,12.3-11l0,0c0-7-5.2-12.2-15.3-12.3l0,0
	c-1.9,0-3.5,0.1-4.5,0.4l0,0c-0.2,2-0.3,5.9-0.3,8.1l0,0c0,4.4,0.3,10.2,0.5,13l0,0C39,75.4,40.8,75.9,43.7,75.9L43.7,75.9z"/>
<path class="st0" d="M107.8,75.5c-3.2-3.1-10.3-14.7-13.4-17.8l0,0c-1.9-1.8-2.8-2.4-6.3-2.4l0,0c-0.5,0-2,0-3.2,0.2l0,0
	c-0.1,1.2-0.2,2.5-0.2,3.9l0,0v6.5c0,3.5,0.4,7.1,0.9,10.5l0,0l8.9,1.2V78v0.8H67.1v-0.4v-0.7l8.3-1.2c0.7-5.3,1.1-16.4,1.1-19l0,0
	V46.6c0-5.3-0.4-13.4-1-17.7l0,0L67,27.7v-0.3v-0.8h24c7.5,0,12,2.8,14.7,6l0,0c2.6,3.3,3.4,6.9,3.4,8.8l0,0c0,6.6-4.8,11-9.7,12.2
	l0,0c1.4,0.7,2.3,1.4,3,2.1l0,0c3.7,3.8,10.6,15.5,14.4,19.2l0,0c2,2,3.8,2.8,5.7,2.8l0,0h0.4v0.4v0.8h-6.5l0,0l0,0
	C113.4,78.7,110.4,78.1,107.8,75.5L107.8,75.5z M88.6,52.6c9.4,0,12.2-5.3,12.2-10.6l0,0c0-7.7-6.8-12.8-12.4-12.8l0,0
	c-0.6,0-1.8,0-2.8,0.3l0,0c-0.4,2.7-0.8,8.9-0.8,11.9l0,0v5.8c0,1.7,0.1,4.2,0.2,5.3l0,0C86.2,52.6,87.5,52.6,88.6,52.6L88.6,52.6z"
	/>
<path class="st0" d="M153.8,78.7v-0.4v-0.7l9.7-1.2c-0.8-4.5-2.8-10-5-13.9l0,0h-21.9c-1.6,3.9-4.1,10.1-4.9,13.9l0,0l9.3,1.2V78
	v0.8h-20.8v-0.4v-0.7l6.8-1.2c1.5-2.5,3.1-5.8,4.3-8.8l0,0L148,26h3.2v0.4V26h0.3L167,62.5c2,4.8,4.3,9.2,6.9,13.9l0,0l6.1,1.3V78
	v0.8L153.8,78.7L153.8,78.7z M147.5,59.8c3.2,0,6.5-0.1,9.7-0.4l0,0c-1.9-5.4-6.1-15.2-10-22.3l0,0c-3.2,6.2-7.7,18.1-9.4,22.3l0,0
	C141,59.7,144.3,59.8,147.5,59.8L147.5,59.8z"/>
<path class="st0" d="M180,78.8h-26.3v-1.3h0.1l9.6-1.2c-0.8-4.3-2.7-9.8-4.9-13.8h-21.8l-0.3,0.7c-1.5,3.8-3.8,9.5-4.5,13l9.3,1.2
	v1.3h-21v-1.3h0.1l6.7-1.2c1.5-2.5,3-5.7,4.3-8.7L148,25.8h3.6v0.1l15.5,36.5c2,4.7,4.2,9.1,6.9,13.9l6.1,1.3v1.2H180z M153.9,78.6
	h25.9v-0.9l-6-1.2l0,0c-2.7-4.8-4.9-9.2-6.9-13.9L151.3,26h-0.1v0.3H151V26h-3l-16.7,41.6c-1.2,3.1-2.8,6.3-4.3,8.8l0,0l0,0
	l-6.7,1.2v0.9h20.6v-0.9l-9.3-1.2v-0.1c0.7-3.6,3-9.4,4.6-13.2l0.3-0.8h22.1v0.1c2.2,4,4.2,9.6,5,14v0.1h-0.1l-9.6,1.2V78.6z
	 M147.5,59.9c-3,0-6.5-0.1-9.7-0.4h-0.1v-0.1c0.2-0.6,0.5-1.2,0.8-2c2.1-5.2,5.9-14.9,8.6-20.3l0.1-0.2l0.1,0.2
	c3.9,7.2,8.1,16.8,10,22.3v0.1h-0.1C153.9,59.8,150.6,59.9,147.5,59.9z M138,59.2c3.2,0.4,6.6,0.4,9.6,0.4s6.3-0.1,9.6-0.4
	c-2-5.4-6-14.9-9.9-22c-2.7,5.4-6.5,14.9-8.5,20.1C138.4,58.1,138.2,58.7,138,59.2z"/>
<path class="st0" d="M181.2,78.7v-1.9l24.2-32.1c3.3-4.4,6.9-9.7,9.3-13.7l0,0c-1.9-0.6-7.2-1.6-12.2-1.6l0,0H197
	c-1.9,0-7.7,0.5-9.8,0.9l0,0l-3.2,8.6h-0.3h-1l1.7-12.6l0.1-0.4h0.4c1.4,0.1,2.7,0.3,4,0.4l0,0c1.3,0.1,2.6,0.2,3.6,0.2l0,0h34.4v2
	l-23.3,30.9c-1.7,2.2-7.2,9.9-10.1,14.9l0,0c2.9,0.7,9.8,1.4,13.2,1.4l0,0h5.1c1.7,0,6.7-0.3,9.7-0.8l0,0l3.8-9h0.3h1l-2,13
	L181.2,78.7L181.2,78.7z"/>
<path class="st0" d="M229.2,78.7v-0.4v-0.7l8.8-1.3c0.7-5.6,1.1-15.1,1.1-22.4l0,0V48c0-8.1-0.5-15.2-1.1-19.2l0,0l-8.9-1.2v-0.3
	v-0.8H257v0.4v0.7l-8.9,1.2c-0.6,5.6-1,13.2-1,19.9l0,0v7.8c0,6.3,0.5,15.7,1.1,20l0,0l8.8,1.2V78v0.4v0.4L229.2,78.7L229.2,78.7z"
	/>
<path class="st0" d="M257.4,27.6l-0.3-0.1v-0.3v-0.8h18.7l0.1,0.2c2.3,3.1,6.4,8,9.7,11.5l0,0l16.1,17.6c2.9,3.1,5.6,6.1,8.9,9.2
	l0,0c0.2-2.4,0.4-5.6,0.4-7.6l0,0V42c0-4.4-0.3-9.3-0.8-13.2l0,0l-8.8-1.3v-0.3v-0.8h22v0.4v0.7l-8.8,1.3c-0.4,3.4-0.6,8.5-0.6,12.3
	l0,0V80h-0.4l0,0H313l-0.1-0.2c-3.6-4.5-7.1-8.6-10.8-12.7l0,0l-21.9-24c-2.4-2.6-5.1-5.3-7.6-7.6l0,0c-0.3,2.5-0.5,5.5-0.5,8.1l0,0
	V66c0,3.5,0.3,7.3,0.7,10.3l0,0l9.1,1.3v0.3v0.8h-22.6v-0.4v-0.7l8.9-1.2c0.5-3.7,0.8-12.5,0.8-15.2l0,0V44c0-3.9-0.1-8.2-0.5-11.8
	l0,0l-4.6-3.3L257.4,27.6"/>
<path class="st0" d="M355.7,79.1c-10.5,0-18-3.9-22.8-9.2l0,0c-4.8-5.3-7-11.9-7-17.2l0,0c0-7,2.9-13.7,7.9-18.7l0,0
	c5.1-5,12.3-8.2,21.2-8.2l0,0c10.7,0,18.2,4,22.9,9.4l0,0c4.7,5.4,6.8,12,6.8,17.3l0,0c0,6.3-2.6,12.9-7.5,18l0,0
	C372.3,75.5,365.1,79.1,355.7,79.1L355.7,79.1L355.7,79.1L355.7,79.1z M355.3,75.9c10.6,0,20.2-8.1,20.2-22.6l0,0
	c0-21.2-14.1-24.3-20.3-24.4l0,0c-10.8,0-20.1,8.5-20.1,23.4l0,0C335.1,68.8,345.9,75.9,355.3,75.9L355.3,75.9z"/>
<path class="st0" d="M418.9,78.7v-0.4v-0.7l11.1-1.2c-4.3-7-11.5-15.3-16.4-20.5l0,0c-6.7,6.8-13.9,15.5-17.3,20.6l0,0l10.6,1.2v0.4
	v0.8h-24.6v-0.4v-0.7l8.4-1.3c7.3-7.1,16.2-17.9,20.4-23.7l0,0c-5.3-6.8-15.7-19.7-20.4-24l0,0l-8.2-1.2v-0.3v-0.4v-0.4h30.8v0.4
	v0.7l-11.2,1.1c4.8,7.4,9.7,12.9,15.8,19.8l0,0c6.1-6.1,13.5-14.8,16.8-19.8l0,0l-10.6-1.1v-0.4v-0.8h24.8v0.4v0.7l-8.7,1.1
	c-5.7,5.2-17.3,19.2-19.7,22.9l0,0c6.7,8.6,16.1,20.3,21.4,24.9l0,0l6.9,1.2v0.3v0.8L418.9,78.7L418.9,78.7z"/>
<path class="st0" d="M448.9,78.8h-30.1v-1.3h0.1l10.9-1.2c-4.2-6.8-11.1-14.8-16.2-20.3c-6.2,6.4-13.6,15-17.2,20.3l10.6,1.2v1.3
	h-24.8v-1.3l8.5-1.3c7.6-7.3,16.4-18.3,20.3-23.6c-5.4-7-15.6-19.6-20.4-23.9l-8.3-1.2v-1.3h31v1.3h-0.1l-11,1.1
	c4.6,7.1,9.3,12.4,15.2,19.1l0.4,0.5c6.3-6.4,13.4-14.7,16.6-19.6l-10.6-1.1v-1.3h25v1.3l-8.7,1.1c-5.6,5.2-17.2,19.1-19.6,22.8
	c4.5,5.8,15.5,19.7,21.3,24.8l7,1.2L448.9,78.8L448.9,78.8z M419,78.6h29.7v-0.9l-6.8-1.2l0,0c-5.7-4.9-15.9-17.7-21.4-24.9v-0.1
	v-0.1c2.4-3.7,13.9-17.7,19.7-22.9l0,0l0,0l8.6-1.1v-0.9h-24.6v0.9l10.7,1.1l-0.1,0.1c-3.2,4.9-10.4,13.4-16.8,19.8l-0.1,0.1
	l-0.5-0.5c-6-6.7-10.7-12-15.3-19.3l-0.1-0.1l11.2-1.1v-0.9h-30.6v0.9l8.2,1.2l0,0c4.7,4.3,15.1,17,20.5,24v0.1v0.1
	c-3.8,5.3-12.8,16.3-20.4,23.7l0,0l0,0l-8.3,1.2v0.9H407v-0.9l-10.7-1.2l0.1-0.1c3.6-5.3,11-14.1,17.4-20.6l0.1-0.1l0.1,0.1
	c5.2,5.6,12.2,13.7,16.4,20.6l0.1,0.1h-0.2l-11,1.2v0.8H419z"/>
<path class="st0" d="M394.9,95.8c0.6-0.3,1-0.9,1-1.6c0-0.4-0.1-0.9-0.5-1.3s-1-0.6-1.9-0.6h-4v0.3v0.2l1.4,0.2
	c0.1,0.5,0.1,1.3,0.1,2.1v1.6c0,0.5-0.1,2-0.2,2.7l-1.3,0.2v0.2l0,0v0.3h4.3l0,0c1.1,0,1.8-0.3,2.2-0.8c0.4-0.5,0.5-1,0.5-1.4
	C396.5,97,395.9,96.1,394.9,95.8z M392.8,95.5c-0.1,0-0.3,0-0.4,0c0-0.2,0-0.6,0-0.8c0-0.6,0-1.2,0.1-1.7c0.1,0,0.3,0,0.4,0
	c1.1,0,1.4,0.5,1.4,1.2C394.3,95.1,393.7,95.5,392.8,95.5z M392.4,97.3c0-0.3,0-0.7,0-1c0.1,0,0.3,0,0.5,0c1.4,0,2,0.7,2,1.5
	c0,0.9-0.6,1.3-1.6,1.4c-0.4,0-0.6,0-0.8-0.2C392.4,98.6,392.4,97.9,392.4,97.3z"/>
<path class="st0" d="M401.4,92.2v0.3v0.2l1.3,0.2c-0.5,0.7-1.3,2-1.9,2.7c-0.5-0.7-1.3-1.8-1.7-2.7l1.4-0.2v-0.3v-0.3H396v0.3v0.2
	l1.1,0.2c0.8,1,1.9,2.6,2.5,3.7c0,0.5,0,0.8,0,1c0,0.4,0,1.2-0.1,1.6l-1.3,0.2v0.3v0.2h4.4v-0.3v-0.2l-1.3-0.2
	c-0.1-0.4-0.1-1-0.1-1.4c0-0.3,0-0.8,0-1.3c0.9-1.3,1.9-2.8,2.6-3.7l0.8-0.1h0.2v-0.3V92L401.4,92.2L401.4,92.2z"/>
<path class="st0" d="M411.8,96.2c-1.1-1-2.8-1.6-2.7-2.3c0-0.6,0.5-1,1.3-1c0.3,0,0.7,0.1,1,0.2l0.3,1.2h0.3h0.3v-2.2H412
	c-0.1,0-0.2,0-0.5,0c-0.1,0-0.3,0-0.5,0s-0.4,0-0.7,0c-1.7,0-2.4,1.2-2.4,2.1c0,0.6,0.3,1.1,0.7,1.5c1.2,1.1,2.7,1.5,2.6,2.4
	c0,0.5-0.4,1.1-1.4,1.1l0,0c-0.3,0-0.8-0.1-1.1-0.2l-0.4-1.3H408h-0.3l0.1,2.2h0.2c0.1,0,0.2,0,0.4,0c0.3,0,0.7,0.1,1.4,0.1
	c2,0,2.7-1.4,2.7-2.3C412.5,97.5,412.4,96.8,411.8,96.2z"/>
<path class="st0" d="M412.4,92.2v0.3v0.2l1.3,0.2c0.1,0.6,0.1,1.5,0.1,2.5v0.8c0,1-0.1,2.2-0.1,3l-1.3,0.2v0.3v0.2h4.3v-0.2v-0.1
	v-0.2l-1.3-0.2c-0.1-0.6-0.1-1.8-0.1-2.6v-1.1c0-0.9,0-1.9,0.1-2.6l1.3-0.2v-0.3v-0.2L412.4,92.2L412.4,92.2z"/>
<path class="st0" d="M424.5,99.4c-0.2,0-0.4-0.1-0.7-0.3c-0.5-0.5-1.5-2.1-2-2.7l-0.1-0.1c0.6-0.3,1.1-0.9,1.1-1.8
	c0-0.6-0.5-2.3-2.8-2.3h-3.6v0.3v0.2l1.2,0.2c0.1,0.6,0.1,1.7,0.1,2.3v1.5c0,0.3-0.1,1.7-0.1,2.5l-1.2,0.2v0.3v0.2h4.3v-0.3v-0.2
	l-1.3-0.2c-0.1-0.4-0.1-0.9-0.1-1.3V97c0-0.1,0-0.3,0-0.4c0.1,0,0.2,0,0.3,0c0.5,0,0.5,0,0.8,0.3c0.4,0.4,1.4,2,1.9,2.5
	c0.4,0.4,0.9,0.5,1.3,0.5l0,0h0.9h0.2v-0.3v-0.2H424.5z M419.3,94.5c0-0.4,0-1.1,0.1-1.5c0.1,0,0.2,0,0.2,0c0.7,0,1.6,0.6,1.6,1.6
	c0,0.7-0.3,1.3-1.5,1.3c-0.1,0-0.2,0-0.3,0c0-0.2,0-0.4,0-0.6v-0.8H419.3z"/>
<path class="st0" d="M431.3,98.1l-0.2-0.1l-0.1,0.1c-0.6,0.8-1.4,0.9-2.1,1c-1.7,0-3.2-1.2-3.2-3.1s1-3,3-3c0.7,0,1.4,0.1,1.9,0.2
	l0.4,1.1h0.2h0.3l-0.1-2.2h-0.3c-0.2,0-0.6,0-1,0s-0.7,0-1,0s-0.6,0-0.9,0c-2.3,0-4.1,1.6-4.1,4c0,1.8,1.4,3.9,4.4,3.9
	c0.5,0,0.9-0.1,1.4-0.1c0.2,0,0.6,0,0.7,0h0.2l0.1-0.1l0.9-1.6L431.3,98.1z"/>
<path class="st0" d="M436.1,92.1c-2.6,0-4.3,1.9-4.3,4c0,1.6,1.3,3.9,4.4,3.9c2.8,0,4.3-2.1,4.3-3.9l0,0
	C440.5,94.5,439.2,92.1,436.1,92.1z M433.4,96.1c0-2,1.2-3.1,2.7-3.1c0.8,0,2.7,0.4,2.7,3.2c0,2-1.3,3-2.7,3
	C434.9,99.2,433.4,98.3,433.4,96.1z"/>
<path class="st0" d="M449.2,92.2h-5.9v0.2v0.1v0.2l1.3,0.2c0.1,0.7,0.1,1.9,0.1,2.3v1.4c0,0.6-0.1,1.9-0.1,2.7l-1.3,0.2v0.3v0.2h4.3
	v-0.3v-0.2l-1.3-0.2c-0.1-0.6-0.1-1.6-0.1-2.1c0-0.2,0-0.5,0-0.8c0.3,0,0.6,0,0.9,0c0.3,0,0.6,0,0.9,0l0.2,0.7v0.2h0.3h0.2v-2.6
	h-0.3h-0.2l-0.3,0.9c-0.3,0-0.6,0-0.9,0c-0.3,0-0.6,0-0.9,0c0-0.3,0-0.6,0-0.8c0-0.4,0-1.1,0.1-1.6c0.5-0.1,1-0.1,1.4-0.1
	c0.2,0,0.4,0,0.8,0l0.4,1.3h0.3h0.3L449.2,92.2z"/>
<path class="st0" d="M457.4,99.4c-0.2,0-0.4-0.1-0.7-0.3c-0.5-0.5-1.5-2.1-2-2.7l-0.1-0.1c0.6-0.3,1.1-0.9,1.1-1.8
	c0-0.6-0.5-2.3-2.8-2.3h-3.6v0.3v0.2l1.2,0.2c0.1,0.6,0.1,1.7,0.1,2.3v1.5c0,0.3-0.1,1.7-0.1,2.5l-1.2,0.2v0.3v0.2h4.3v-0.3v-0.2
	l-1.3-0.2c-0.1-0.4-0.1-0.9-0.1-1.3V97c0-0.1,0-0.3,0-0.4c0.1,0,0.2,0,0.3,0c0.5,0,0.5,0,0.8,0.3c0.4,0.4,1.4,2,1.9,2.5
	c0.4,0.4,0.9,0.5,1.3,0.5l0,0h0.9h0.2v-0.3v-0.3L457.4,99.4L457.4,99.4z M452.2,94.5c0-0.4,0-1.1,0.1-1.5c0.1,0,0.2,0,0.2,0
	c0.7,0,1.6,0.6,1.6,1.6c0,0.7-0.3,1.3-1.5,1.3c-0.1,0-0.2,0-0.3,0c0-0.2,0-0.4,0-0.6L452.2,94.5L452.2,94.5z"/>
<path class="st1" d="M459.8,96.9c0.4,0,0.7,0,1.1,0c0.4,0,0.7,0,1.1,0c-0.3-0.7-0.7-1.7-1.1-2.5C460.5,95.1,460.1,96.2,459.8,96.9z"
	/>
<path class="st0" d="M464.8,99.3c-0.4-0.6-0.7-1.2-0.9-1.9l-2.3-5.3h-0.2H461h-0.2l-2.4,6c-0.2,0.4-0.4,0.8-0.5,1.1l-0.8,0.2h-0.2
	v0.3v0.2h3.3v-0.3v-0.2l-1.3-0.2c0.1-0.5,0.4-1.1,0.6-1.6h2.9c0.2,0.5,0.5,1.1,0.6,1.6l-1.3,0.2v0.3v0.2h4.1v-0.3v-0.2L464.8,99.3z
	 M460.9,96.9c-0.4,0-0.7,0-1.1,0c0.2-0.6,0.7-1.8,1.1-2.6c0.4,0.8,0.9,1.9,1.1,2.5C461.7,96.9,461.3,96.9,460.9,96.9z"/>
<path class="st0" d="M471.3,92.2v0.3v0.2l1.3,0.2c0.1,0.5,0.1,1.1,0.1,1.7v2.1c0,0.2,0,0.4,0,0.6c-0.3-0.3-0.6-0.7-1-1l-2.3-2.5
	c-0.5-0.5-1-1.2-1.4-1.6l-0.1-0.1H465v0.3v0.2h0.2l0.9,0.2l0.5,0.4c0,0.5,0.1,1,0.1,1.6v2.4c0,0.3,0,1.4-0.1,2l-1.3,0.2v0.3v0.2h3.6
	v-0.3v-0.2l-1.3-0.2c0-0.4-0.1-0.9-0.1-1.3v-3.1c0-0.2,0-0.5,0-0.7c0.3,0.3,0.5,0.5,0.8,0.8l3.1,3.4c0.5,0.6,1,1.1,1.5,1.8l0.1,0.1
	h0.2h0.2v-5.7c0-0.5,0-1.1,0.1-1.6l1.3-0.2v-0.3v-0.2L471.3,92.2L471.3,92.2z"/>
<path class="st0" d="M482.4,98.1l-0.2-0.1l-0.1,0.1c-0.6,0.8-1.4,0.9-2.1,1c-1.7,0-3.2-1.2-3.2-3.1s1-3,3-3c0.7,0,1.4,0.1,1.9,0.2
	l0.4,1.1h0.2h0.3l-0.1-2.2h-0.3c-0.2,0-0.6,0-1,0s-0.7,0-1,0s-0.6,0-0.9,0c-2.3,0-4.1,1.6-4.1,4c0,1.8,1.4,3.9,4.4,3.9
	c0.5,0,0.9-0.1,1.4-0.1c0.2,0,0.6,0,0.7,0h0.2l0.1-0.1l0.9-1.6L482.4,98.1z"/>
<path class="st0" d="M488.2,97.9H488l-0.4,1.2c-0.3,0-0.6,0-0.8,0c-0.5,0-1,0-1.4-0.1c0-0.5-0.1-1.4-0.1-1.9c0-0.2,0-0.5,0-0.7
	c0.4,0,0.7,0,1,0s0.5,0,0.8,0l0.2,0.7v0.2h0.3h0.2v-2.6h-0.3h-0.1l-0.2,0.9c-0.3,0-0.7,0-1,0s-0.5,0-0.8,0c0-0.3,0-0.6,0-0.8
	c0-0.7,0-1.3,0.1-1.6c0.3-0.1,0.8-0.1,1.4-0.1c0.3,0,0.5,0,0.8,0l0.4,1.2h0.3h0.3l-0.2-2h-5.9v0.2v0.1v0.2l1.3,0.2
	c0.1,0.9,0.1,1.9,0.1,2.3v1.2c0,0.6-0.1,2.2-0.1,2.8l-1.2,0.2v0.3v0.2h6l0.1-2.1L488.2,97.9L488.2,97.9z"/>
<path class="st2" d="M54.8,73.5c-1.4,1.5-3.4,2.8-6,3.4l0,0c7.5-1.1,11-6.4,11-11.9l0,0c0-6.5-3.7-11.4-11-12.7l0,0
	c4.9,1.8,9.1,5.9,9.1,12.7l0,0C58,68,57.1,71.1,54.8,73.5"/>
<path class="st2" d="M54.1,39.3c0,5.3-2.6,8.5-5.6,10.2l0,0c4.8-1.7,7.3-5.9,7.3-10.4l0,0c0-6.5-4.4-10.5-10.5-11l0,0
	C51.1,29.4,54.1,33.7,54.1,39.3L54.1,39.3z"/>
<polygon class="st2" points="29.8,76.5 31.4,76.5 31.4,28.5 29.8,28.5 "/>
<path class="st2" d="M102.8,42.2c0,3.8-1.4,6.9-4,9l0,0c3.3-1.8,5.7-5.3,5.7-9.7l0,0c0-7.4-5.7-12-11.8-13.1l0,0
	C100,30.5,102.8,37.3,102.8,42.2L102.8,42.2z"/>
<path class="st2" d="M97.6,58.5l7.7,11.1c2.9,4.1,5.1,6.5,8.5,7l0,0c-2-1.1-3.9-3.5-6.3-6.7l0,0l-6.2-8.8c-2.2-3.1-3.8-5-6.7-5.9
	l0,0C95.8,56.1,96.7,57.3,97.6,58.5L97.6,58.5z"/>
<polygon class="st2" points="78.5,76.5 80.2,76.5 80.2,28.6 78.5,28.6 "/>
<polyline class="st2" points="166.7,76.5 166.7,76.5 168.2,76.5 149,31.3 148.3,33.2 166.7,76.5 "/>
<polyline class="st2" points="183.7,76.5 183.7,76.5 185.5,76.5 221.6,28.7 219.8,28.7 183.7,76.5 "/>
<path class="st0" d="M185.5,76.6h-2l0.1-0.2l36.1-47.8h2l-0.1,0.2L185.5,76.6z M183.9,76.4h1.5l35.9-47.6h-1.5L183.9,76.4z"/>
<polyline class="st2" points="240.9,76.5 240.9,76.5 242.6,76.5 242.6,28.6 240.9,28.6 240.9,76.5 "/>
<polygon class="st2" points="311,74.3 311,72.2 271,28.5 269.1,28.5 "/>
<path class="st2" d="M377.8,52.7c0,8.6-3.1,17.8-11.3,22.3l0,0c7.6-3.5,13.2-11.2,13.2-22.5l0,0c0-12.5-6.4-19.9-14-23.1l0,0
	C372,32.5,377.8,39.3,377.8,52.7L377.8,52.7z"/>
<path class="st2" d="M328.2,52.5c0,9.9,7.1,19.8,17.6,23.3l0,0c-10.1-4-15.8-13.7-15.8-23.1l0,0c0-10.7,6.1-20,16-23.9l0,0
	C335.9,32.2,328.2,41.7,328.2,52.5L328.2,52.5z"/>
<polyline class="st2" points="433.5,76.5 433.5,76.5 435.4,76.5 395.6,28.5 393.6,28.5 433.5,76.5 "/>
<path class="st0" d="M459.1,76.9l-1-1.4c0.1,0,0.2-0.1,0.3-0.1c0.1,0,0.1,0,0.2-0.1c0.1,0,0.1-0.1,0.2-0.1c0,0,0.1,0,0.1-0.1
	c0.2-0.2,0.2-0.4,0.2-0.6c0-0.6-0.6-1-1.4-1l-1.7,0v0.2c0.1,0,0.2,0,0.3,0.1c0.1,0.1,0.1,0.1,0.1,0.5v2.4c0,0.4,0,0.4-0.1,0.5
	c-0.1,0.1-0.2,0.1-0.4,0.1c0,0,0,0,0,0h0v0.2h1.7v-0.2c0,0,0,0,0,0c-0.1,0-0.2,0-0.2,0c-0.2,0-0.4-0.1-0.4-0.3v-0.3v-1.1h0.4
	l1.4,1.9h0.9v-0.1v-0.1C459.4,77.3,459.3,77.2,459.1,76.9z M457.1,75.4L457.1,75.4H457v-1.7c0.2-0.1,0.3-0.1,0.4-0.1
	c0.5,0,0.9,0.4,0.9,0.9C458.3,75.1,457.9,75.4,457.1,75.4z"/>
<path class="st0" d="M457.8,72c-1.9,0-3.5,1.6-3.5,3.5c0,1.9,1.6,3.5,3.5,3.5s3.5-1.6,3.5-3.5C461.3,73.6,459.7,72,457.8,72z
	 M457.8,78.4c-0.7,0-1.4-0.3-1.9-0.7c0,0-0.1-0.1-0.1-0.1c-0.6-0.5-0.9-1.3-0.9-2.1s0.3-1.6,0.9-2.1c0,0,0.1-0.1,0.1-0.1
	c0.5-0.4,1.2-0.7,1.9-0.7c1.6,0,2.9,1.3,2.9,2.9C460.7,77.1,459.4,78.4,457.8,78.4z"/>
</svg>
