<?xml version="1.0" encoding="utf-8"?>
<!-- Generator: Adobe Illustrator 16.0.0, SVG Export Plug-In . SVG Version: 6.00 Build 0)  -->
<!DOCTYPE svg PUBLIC "-//W3C//DTD SVG 1.1//EN" "http://www.w3.org/Graphics/SVG/1.1/DTD/svg11.dtd">
<svg version="1.1" xmlns="http://www.w3.org/2000/svg" xmlns:xlink="http://www.w3.org/1999/xlink" x="0px" y="0px"
	 width="572.599px" height="720px" viewBox="0 0 572.599 720" enable-background="new 0 0 572.599 720" xml:space="preserve">
<g id="Calque_1">
	<g>
		<path fill="#78B648" d="M80.415,375.712H51.181v-0.399v-0.36v-0.349l9.084-1.304c0.834-4.549,1.263-16.746,1.259-20.454l0,0
			v-11.305c0.002-6.184-0.413-12.73-0.899-15.772l0,0l-9.372-1.23v-0.353v-0.76h27.035c6.16-0.002,10.084,1.738,12.448,4.191l0,0
			c2.365,2.453,3.139,5.569,3.139,8.234l0,0c0,6.715-4.779,10.692-10.157,11.997l0,0c9.652,1.306,14.496,7.555,14.486,13.853l0,0
			c-0.002,2.488-0.754,5.987-3.378,8.884l0,0c-2.622,2.893-7.099,5.126-14.391,5.126l0,0
			C80.428,375.712,80.421,375.712,80.415,375.712L80.415,375.712z M74.324,326.17c-0.471-0.002-2.577,0.009-3.898,0.347l0,0
			c-0.557,3.732-0.837,8.024-0.837,13.008l0,0c-0.002,1.776,0.001,5.273,0.188,6.915l0,0c1.25,0.467,2.582,0.535,3.886,0.533l0,0
			c6.77-0.037,11.977-3.501,12.001-10.903l0,0C85.624,330.835,82.592,326.209,74.324,326.17L74.324,326.17 M88.447,370.495
			L88.447,370.495 M77.333,372.895c7.359-0.041,12.261-3.636,12.292-10.976l0,0c-0.023-7.042-5.236-12.24-15.301-12.273l0,0
			c-1.893-0.004-3.465,0.07-4.471,0.395l0,0c-0.196,1.993-0.266,5.864-0.264,8.062l0,0c0,4.402,0.278,10.188,0.496,13l0,0
			C72.592,372.439,74.366,372.891,77.333,372.895L77.333,372.895z"/>
	</g>
	<path fill="#78B648" d="M141.396,372.503c-3.229-3.11-10.342-14.699-13.429-17.789l0,0c-1.905-1.833-2.836-2.379-6.251-2.404l0,0
		c-0.466-0.001-1.988,0.001-3.157,0.163l0,0c-0.123,1.19-0.184,2.451-0.184,3.901l0,0v6.481c0,3.465,0.412,7.083,0.906,10.517l0,0
		l8.924,1.229v0.351v0.76h-27.36v-0.399v-0.707l8.336-1.23c0.705-5.335,1.129-16.361,1.129-19.017l0,0v-10.873
		c0-5.253-0.42-13.419-0.983-17.721l0,0l-8.482-1.232v-0.346v-0.76h23.953c7.47-0.004,12.034,2.774,14.679,6.026l0,0
		c2.647,3.252,3.398,6.914,3.403,8.776l0,0c-0.006,6.635-4.808,11.008-9.708,12.187l0,0c1.353,0.687,2.272,1.445,2.987,2.146l0,0
		c3.736,3.752,10.634,15.49,14.376,19.152l0,0c2.019,1.974,3.819,2.836,5.664,2.839l0,0h0.399v0.399v0.76h-6.636
		c-0.015,0-0.03,0-0.045,0l0,0C146.954,375.712,143.959,375.1,141.396,372.503L141.396,372.503z M122.157,349.565
		c9.435-0.043,12.17-5.289,12.22-10.618l0,0c-0.012-7.74-6.789-12.763-12.366-12.778l0,0c-0.604-0.002-1.822,0.007-2.8,0.273l0,0
		c-0.421,2.692-0.837,8.889-0.835,11.858l0,0v5.761c0,1.73,0.118,4.237,0.194,5.339l0,0
		C119.766,349.563,121.079,349.565,122.157,349.565L122.157,349.565z"/>
	<g>
		<path fill="#78B648" stroke="#78B648" stroke-width="0.2" d="M187.418,375.712v-0.399v-0.715l9.696-1.215
			c-0.765-4.477-2.771-10.021-4.98-13.944l0,0h-21.947c-1.57,3.908-4.122,10.109-4.865,13.946l0,0l9.324,1.215v0.353v0.76h-20.831
			v-0.399v-0.694l6.75-1.25c1.5-2.545,3.07-5.774,4.283-8.791l0,0l16.683-41.653h3.207v0.399v-0.399h0.264l15.511,36.533
			c2.024,4.756,4.265,9.23,6.934,13.915l0,0l6.085,1.252v0.328v0.76H187.418L187.418,375.712z M181.142,356.766
			c3.208,0,6.472-0.065,9.729-0.441l0,0c-1.926-5.395-6.133-15.154-10.012-22.287l0,0c-3.153,6.207-7.747,18.091-9.425,22.292l0,0
			C174.558,356.701,177.878,356.766,181.142,356.766L181.142,356.766z"/>
	</g>
	<g>
		<path fill="#78B648" d="M214.78,375.712v-1.905l24.219-32.148c3.317-4.362,6.914-9.739,9.329-13.721l0,0
			c-1.859-0.554-7.17-1.627-12.165-1.621l0,0h-5.501c-1.86-0.004-7.702,0.471-9.754,0.88l0,0l-3.174,8.623h-0.278h-0.972
			l1.674-12.621l0.051-0.383l0.385,0.039c1.396,0.145,2.71,0.287,4.016,0.358l0,0c1.337,0.072,2.581,0.216,3.648,0.214l0,0h34.443
			v1.975l-23.34,30.855c-1.698,2.22-7.215,9.896-10.064,14.918l0,0c2.857,0.725,9.794,1.437,13.195,1.431l0,0h5.135
			c1.688,0.003,6.707-0.274,9.694-0.817l0,0l3.835-9.046h0.266h0.977l-1.953,12.97H214.78L214.78,375.712z"/>
	</g>
	<g>
		<path fill="#78B648" d="M262.756,375.712v-0.399v-0.707l8.773-1.302c0.708-5.627,1.133-15.134,1.131-22.402l0,0v-5.905
			c0.002-8.06-0.488-15.237-1.051-19.231l0,0l-8.854-1.231v-0.348v-0.76h27.873v0.401v0.709l-8.915,1.229
			c-0.636,5.569-0.988,13.25-0.988,19.88l0,0v7.775c0,6.304,0.491,15.728,1.055,19.951l0,0l8.848,1.231v0.349v0.36v0.399H262.756
			L262.756,375.712z M274.49,373.541"/>
	</g>
	<g>
		<path fill="#78B648" d="M290.959,324.58l-0.323-0.064v-0.328v-0.761h18.722l0.122,0.162c2.332,3.149,6.365,7.973,9.658,11.489l0,0
			l16.063,17.566c2.913,3.128,5.613,6.116,8.916,9.212l0,0c0.196-2.439,0.371-5.599,0.371-7.642l0,0v-15.192
			c0-4.409-0.278-9.3-0.832-13.186l0,0l-8.778-1.304v-0.344v-0.761h22.15v0.4v0.705l-8.771,1.303
			c-0.413,3.426-0.622,8.49-0.622,12.319l0,0v38.923h-0.398l0,0h-0.562l-0.118-0.151c-3.592-4.528-7.108-8.625-10.843-12.723l0,0
			l-21.933-23.974c-2.448-2.604-5.149-5.33-7.628-7.599l0,0c-0.307,2.546-0.486,5.455-0.486,8.118l0,0v22.25
			c0,3.456,0.342,7.264,0.696,10.304l0,0l9.137,1.3v0.349v0.761H292.91v-0.4v-0.709l8.854-1.23
			c0.547-3.659,0.759-12.487,0.757-15.197l0,0v-17.21c0-3.886-0.143-8.191-0.494-11.807l0,0l-4.553-3.298L290.959,324.58"/>
	</g>
	<g>
		<path fill="#78B648" d="M389.271,376.071c-10.52,0.004-17.983-3.938-22.783-9.223l0,0c-4.805-5.284-6.963-11.883-6.965-17.243l0,0
			c0-6.95,2.85-13.678,7.913-18.664l0,0c5.063-4.99,12.345-8.236,21.175-8.234l0,0c10.738-0.004,18.188,4.048,22.915,9.425l0,0
			c4.73,5.376,6.757,12.044,6.759,17.329l0,0c-0.002,6.265-2.553,12.911-7.459,18l0,0c-4.903,5.089-12.169,8.61-21.547,8.61l0,0
			C389.277,376.071,389.273,376.071,389.271,376.071L389.271,376.071z M388.903,372.895c10.649-0.015,20.201-8.139,20.219-22.642
			l0,0c-0.032-21.231-14.088-24.321-20.292-24.369l0,0c-10.782,0.015-20.122,8.483-20.143,23.433l0,0
			C368.706,365.829,379.489,372.873,388.903,372.895L388.903,372.895z"/>
	</g>
	<g>
		<path fill="#78B648" stroke="#78B648" stroke-width="0.2" d="M452.477,375.712v-0.4v-0.72l11.106-1.195
			c-4.269-6.979-11.506-15.272-16.366-20.547l0,0c-6.693,6.813-13.937,15.517-17.34,20.553l0,0l10.635,1.189v0.36v0.76h-24.573v-0.4
			v-0.705l8.432-1.257c7.332-7.071,16.152-17.884,20.377-23.665l0,0c-5.297-6.845-15.737-19.666-20.442-23.966l0,0l-8.219-1.187
			v-0.345v-0.358v-0.4h30.807v0.4v0.72l-11.158,1.124c4.787,7.421,9.732,12.936,15.839,19.821l0,0
			c6.084-6.146,13.483-14.813,16.76-19.824l0,0l-10.648-1.123v-0.36v-0.758h24.795v0.4v0.709l-8.663,1.11
			c-5.653,5.156-17.287,19.176-19.717,22.926l0,0c6.693,8.636,16.138,20.285,21.407,24.85l0,0l6.898,1.189v0.339v0.76H452.477
			L452.477,375.712z M467.15,373.542"/>
	</g>
	<g>
		<g>
			<path fill="#78B648" d="M428.474,392.796c0.555-0.312,0.977-0.859,0.977-1.644c0.002-0.412-0.119-0.905-0.498-1.297
				c-0.38-0.393-0.997-0.65-1.905-0.65l-4.033,0.002v0.302v0.217l1.353,0.177c0.057,0.456,0.105,1.279,0.105,2.052v1.596
				c0.002,0.474-0.056,2.017-0.153,2.712l-1.315,0.188v0.218v0.05v0.251h4.345c0.004,0,0.007,0,0.011,0
				c1.069,0,1.765-0.334,2.178-0.786c0.414-0.456,0.529-0.996,0.529-1.383C430.072,393.96,429.514,393.146,428.474,392.796z
				 M426.39,392.527c-0.133,0-0.258-0.007-0.371-0.031c-0.014-0.24-0.016-0.619-0.016-0.827c0-0.635,0.033-1.186,0.099-1.669
				c0.15-0.019,0.336-0.022,0.383-0.021c1.092,0.027,1.389,0.548,1.416,1.204C427.886,392.113,427.29,392.504,426.39,392.527z
				 M426.003,394.29c0-0.258,0.007-0.692,0.025-0.979c0.113-0.015,0.271-0.022,0.456-0.021c1.363,0.021,1.964,0.658,1.979,1.537
				c-0.021,0.929-0.566,1.328-1.552,1.355c-0.363-0.004-0.562-0.045-0.847-0.184C426.036,395.582,426.003,394.852,426.003,394.29z"
				/>
		</g>
	</g>
	<g>
		<path fill="#78B648" d="M435.015,389.206v0.302v0.222l1.332,0.154c-0.453,0.749-1.312,1.981-1.926,2.706
			c-0.533-0.704-1.256-1.823-1.705-2.701l1.393-0.157v-0.274v-0.251h-4.458v0.302v0.211l1.146,0.192
			c0.816,1.014,1.87,2.647,2.45,3.668c0.019,0.473,0.028,0.789,0.028,1.046c0,0.428-0.043,1.161-0.134,1.645l-1.283,0.18v0.268
			v0.249h4.354v-0.299v-0.221l-1.294-0.177c-0.086-0.445-0.112-0.989-0.112-1.421c0-0.295,0.011-0.843,0.037-1.28
			c0.864-1.309,1.904-2.794,2.638-3.658l0.788-0.147l0.205-0.037v-0.269v-0.251H435.015z"/>
	</g>
	<g>
		<path fill="#78B648" d="M445.417,393.218c-1.099-0.998-2.771-1.562-2.687-2.339c0.002-0.552,0.488-0.979,1.273-0.989
			c0.298-0.002,0.666,0.097,1.021,0.232l0.339,1.22h0.254h0.254l-0.042-2.22l-0.267,0.025c-0.115,0.011-0.227,0.027-0.509,0.029
			c-0.147,0-0.323-0.021-0.53-0.031c-0.195-0.02-0.422-0.031-0.688-0.029c-1.679,0.002-2.446,1.165-2.448,2.076
			c-0.006,0.631,0.276,1.113,0.689,1.51c1.19,1.104,2.651,1.529,2.582,2.391c-0.004,0.484-0.439,1.139-1.397,1.141
			c-0.013-0.004-0.044,0-0.044,0c-0.307,0.002-0.781-0.098-1.106-0.222l-0.407-1.281h-0.254h-0.264l0.107,2.245h0.238
			c0.145-0.002,0.19-0.029,0.448-0.029c0.34-0.002,0.711,0.071,1.407,0.071c2.041-0.003,2.705-1.384,2.707-2.26
			C446.098,394.469,446.031,393.813,445.417,393.218z"/>
	</g>
	<g>
		<path fill="#78B648" d="M446.023,389.207v0.302v0.217l1.276,0.175c0.07,0.57,0.129,1.506,0.129,2.542v0.833
			c0,0.955-0.054,2.198-0.142,2.988l-1.264,0.187v0.267v0.249h4.343v-0.249v-0.051v-0.218l-1.275-0.178
			c-0.07-0.634-0.132-1.83-0.132-2.641v-1.097c0-0.871,0.045-1.873,0.126-2.633l1.281-0.175v-0.269v-0.25H446.023z"/>
	</g>
	<g>
		<g>
			<path fill="#78B648" d="M458.129,396.416c-0.2,0-0.403-0.086-0.67-0.345c-0.497-0.479-1.476-2.132-2.04-2.699
				c-0.038-0.037-0.08-0.075-0.127-0.114c0.616-0.29,1.133-0.907,1.137-1.771c-0.002-0.592-0.513-2.279-2.758-2.281h-3.596v0.302
				v0.217l1.224,0.176c0.068,0.619,0.121,1.654,0.121,2.328v1.534c0,0.338-0.055,1.737-0.143,2.511l-1.202,0.176v0.269v0.248h4.269
				v-0.3v-0.219l-1.288-0.176c-0.061-0.436-0.107-0.886-0.107-1.311v-0.915c0.002-0.135,0.006-0.257,0.014-0.372
				c0.113-0.007,0.227-0.008,0.27-0.008c0.466,0.017,0.485,0.044,0.752,0.286c0.407,0.396,1.414,2.029,1.908,2.51
				c0.398,0.403,0.886,0.504,1.324,0.504c0.009,0,0.018,0,0.027,0h0.886h0.249v-0.3v-0.25H458.129z M452.948,391.498
				c0-0.358,0.049-1.098,0.1-1.508c0.083-0.009,0.172-0.011,0.226-0.01c0.688,0.002,1.562,0.641,1.564,1.61
				c-0.032,0.678-0.288,1.273-1.543,1.301c-0.104,0.001-0.218,0.001-0.328-0.005c-0.01-0.173-0.019-0.406-0.019-0.576V391.498z"/>
		</g>
	</g>
	<g>
		<path fill="#78B648" d="M464.881,395.124l-0.178-0.073l-0.116,0.15c-0.632,0.797-1.398,0.945-2.136,0.95
			c-1.71-0.011-3.185-1.17-3.189-3.141c0.025-1.872,1-3.027,3.044-3.05c0.668,0,1.431,0.118,1.865,0.207l0.355,1.133h0.246h0.26
			l-0.084-2.199l-0.277,0.048c-0.216,0.036-0.575,0.038-1.022,0.038c-0.42-0.002-0.733-0.021-1.036-0.042
			c-0.292-0.009-0.569-0.029-0.911-0.029c-2.325,0.004-4.135,1.641-4.139,4.048c0.004,1.823,1.378,3.858,4.378,3.863
			c0.54-0.002,0.935-0.082,1.437-0.082c0.221,0,0.563,0.031,0.688,0.042l0.161,0.013l0.08-0.143l0.883-1.605L464.881,395.124z"/>
	</g>
	<g>
		<g>
			<path fill="#78B648" d="M469.668,389.104c-2.605,0.004-4.319,1.918-4.322,3.987c0.003,1.602,1.314,3.922,4.416,3.926
				c2.772-0.004,4.307-2.08,4.312-3.945h0.002C474.068,391.5,472.834,389.108,469.668,389.104z M467.032,393.052
				c0.013-2.023,1.243-3.102,2.667-3.112c0.833,0.029,2.668,0.361,2.688,3.244c-0.011,1.954-1.266,2.988-2.677,2.999
				C468.467,396.168,467.043,395.285,467.032,393.052z"/>
		</g>
	</g>
	<g>
		<path fill="#78B648" d="M482.785,389.207h-5.919v0.249v0.052v0.218l1.278,0.186c0.081,0.66,0.117,1.915,0.117,2.317v1.383
			c0,0.611-0.056,1.894-0.143,2.66l-1.253,0.178v0.269v0.249h4.343v-0.301v-0.22l-1.301-0.176c-0.074-0.606-0.118-1.582-0.118-2.07
			c0-0.189,0.008-0.53,0.021-0.832c0.28-0.018,0.582-0.037,0.867-0.037c0.293,0,0.637,0.013,0.919,0.034l0.203,0.736l0.05,0.186
			h0.255h0.248v-2.623h-0.312h-0.187l-0.254,0.87c-0.292,0.025-0.601,0.033-0.913,0.033c-0.291,0-0.573-0.006-0.869-0.029
			c-0.016-0.288-0.029-0.602-0.029-0.786c0-0.409,0.043-1.139,0.096-1.648c0.487-0.086,1.013-0.103,1.386-0.103
			c0.168,0,0.45,0.006,0.757,0.021l0.368,1.26h0.271h0.27L482.785,389.207z"/>
	</g>
	<g>
		<g>
			<path fill="#78B648" d="M490.991,396.416c-0.198-0.002-0.403-0.086-0.671-0.345c-0.497-0.479-1.477-2.133-2.039-2.699
				c-0.038-0.037-0.08-0.076-0.127-0.114c0.616-0.29,1.135-0.907,1.138-1.771c-0.002-0.592-0.514-2.279-2.76-2.281h-3.595v0.303
				v0.215l1.223,0.176c0.07,0.618,0.121,1.655,0.121,2.33v1.532c0,0.339-0.054,1.737-0.141,2.512l-1.203,0.177v0.268v0.249h4.271
				v-0.3v-0.221l-1.289-0.175c-0.06-0.437-0.107-0.885-0.107-1.312v-0.914c0-0.135,0.004-0.257,0.013-0.372
				c0.113-0.007,0.228-0.007,0.27-0.007c0.47,0.017,0.486,0.044,0.752,0.284c0.407,0.396,1.414,2.029,1.909,2.51
				c0.398,0.402,0.887,0.506,1.324,0.506c0.009,0,0.018,0,0.026,0h0.886h0.25v-0.3v-0.251H490.991z M485.812,391.498
				c0-0.358,0.049-1.097,0.099-1.507c0.083-0.01,0.172-0.012,0.226-0.012c0.689,0.002,1.562,0.64,1.563,1.609
				c-0.031,0.679-0.286,1.274-1.542,1.305c-0.104,0-0.218-0.001-0.328-0.008c-0.009-0.172-0.018-0.405-0.018-0.574V391.498z"/>
		</g>
	</g>
	<g>
		<g>
			<path fill="none" d="M493.428,393.873c0.357,0.028,0.731,0.035,1.105,0.035c0.369,0,0.74-0.007,1.109-0.037
				c-0.261-0.685-0.706-1.703-1.144-2.55C494.129,392.109,493.677,393.247,493.428,393.873z"/>
		</g>
		<g>
			<path fill="#78B648" d="M498.391,396.271c-0.357-0.628-0.657-1.229-0.93-1.866l-2.255-5.269h-0.164h-0.416h-0.171l-2.417,5.994
				c-0.157,0.386-0.356,0.801-0.55,1.137l-0.827,0.152l-0.203,0.038v0.26v0.248h3.344v-0.299v-0.222l-1.281-0.166
				c0.126-0.471,0.391-1.131,0.585-1.607h2.872c0.249,0.464,0.477,1.078,0.594,1.605l-1.342,0.168v0.272v0.248h4.094v-0.299v-0.205
				L498.391,396.271z M494.533,393.908c-0.374,0-0.748-0.007-1.105-0.035c0.249-0.626,0.701-1.764,1.071-2.552
				c0.438,0.847,0.883,1.865,1.144,2.55C495.273,393.901,494.902,393.908,494.533,393.908z"/>
		</g>
	</g>
	<g>
		<path fill="#78B648" d="M504.896,389.207v0.3v0.216l1.269,0.188c0.062,0.51,0.096,1.129,0.096,1.688v2.144
			c0,0.173-0.01,0.412-0.023,0.65c-0.336-0.331-0.638-0.661-0.961-1.005l-2.278-2.478c-0.464-0.489-1.034-1.17-1.359-1.604
			l-0.076-0.1h-2.947v0.3v0.207l0.2,0.04l0.887,0.169l0.538,0.39c0.043,0.481,0.062,1.048,0.062,1.562v2.427
			c0.002,0.339-0.026,1.416-0.087,1.971l-1.277,0.177v0.27v0.249h3.594v-0.3v-0.219l-1.315-0.185
			c-0.043-0.396-0.082-0.863-0.082-1.283v-3.138c0-0.238,0.011-0.492,0.03-0.737c0.264,0.254,0.536,0.531,0.789,0.799l3.114,3.378
			c0.526,0.574,1.022,1.148,1.529,1.782l0.075,0.095h0.174h0.249v-5.682c0-0.479,0.024-1.104,0.069-1.567l1.265-0.186v-0.268v-0.25
			H504.896z"/>
	</g>
	<g>
		<path fill="#78B648" d="M515.958,395.124l-0.175-0.071l-0.117,0.147c-0.632,0.799-1.396,0.947-2.137,0.951
			c-1.709-0.011-3.181-1.169-3.187-3.141c0.025-1.872,1-3.026,3.043-3.05c0.669,0,1.432,0.118,1.865,0.207l0.354,1.133h0.249h0.258
			l-0.084-2.199l-0.277,0.048c-0.214,0.036-0.577,0.038-1.022,0.038c-0.419-0.002-0.733-0.021-1.036-0.042
			c-0.292-0.009-0.568-0.029-0.911-0.029c-2.326,0.004-4.134,1.64-4.138,4.047c0.004,1.824,1.378,3.861,4.377,3.863
			c0.539,0,0.934-0.082,1.438-0.08c0.222,0,0.562,0.029,0.687,0.04l0.163,0.015l0.078-0.144l0.885-1.608L515.958,395.124z"/>
	</g>
	<g>
		<path fill="#78B648" d="M521.843,394.914h-0.18l-0.412,1.214c-0.306,0.023-0.553,0.023-0.794,0.023
			c-0.467,0-0.989-0.033-1.396-0.13c-0.048-0.515-0.073-1.419-0.073-1.944c0-0.196,0.013-0.471,0.032-0.717
			c0.355-0.032,0.658-0.039,1-0.039c0.264,0,0.501,0.006,0.771,0.031l0.195,0.737l0.048,0.186h0.277h0.247v-2.622h-0.332h-0.192
			l-0.233,0.87c-0.315,0.025-0.658,0.035-0.991,0.035c-0.252,0-0.518-0.007-0.799-0.02c-0.018-0.255-0.023-0.553-0.023-0.808
			c0-0.67,0.043-1.268,0.081-1.626c0.348-0.06,0.813-0.096,1.367-0.096c0.257,0,0.534,0.007,0.782,0.021l0.377,1.219h0.258h0.273
			l-0.169-2.043h-5.896v0.249v0.054v0.216l1.272,0.176c0.087,0.851,0.123,1.914,0.123,2.309v1.248
			c0.002,0.566-0.068,2.171-0.146,2.815l-1.24,0.177v0.27v0.249h5.976l0.137-2.054H521.843z"/>
	</g>
	<g>
		<g>
			<path fill="#78B648" d="M491.352,375.904c-1.877,0-3.404-1.527-3.404-3.404s1.527-3.404,3.404-3.404
				c1.883,0,3.414,1.527,3.414,3.404S493.234,375.904,491.352,375.904z M491.352,369.581c-1.608,0-2.918,1.31-2.918,2.919
				s1.31,2.919,2.918,2.919c1.614,0,2.928-1.31,2.928-2.919S492.966,369.581,491.352,369.581z M492.354,374.605l-1.456-1.932
				l-0.173,0.026v1.356c0.027,0.119,0.059,0.187,0.454,0.187h0.1v0.362h-1.909v-0.362h0.1c0.215,0,0.277-0.029,0.323-0.087
				c0.058-0.072,0.064-0.08,0.064-0.452v-2.445c0-0.381-0.008-0.389-0.062-0.451c-0.038-0.043-0.096-0.07-0.273-0.08l-0.095-0.005
				v-0.356h1.895c0.889,0,1.485,0.458,1.485,1.141c0,0.535-0.316,0.896-0.968,1.099l0.893,1.27c0.21,0.292,0.301,0.36,0.485,0.368
				l0.096,0.003v0.359H492.354z M490.769,372.314c0.695,0,1.095-0.274,1.095-0.751c0-0.456-0.355-0.788-0.846-0.788
				c-0.108,0-0.178,0.007-0.292,0.04v1.499H490.769z"/>
			<path fill="#78B648" d="M491.352,369.195c1.834,0,3.314,1.48,3.314,3.305s-1.48,3.305-3.314,3.305
				c-1.824,0-3.305-1.48-3.305-3.305S489.527,369.195,491.352,369.195 M491.352,375.519c1.672,0,3.027-1.348,3.027-3.019
				s-1.355-3.019-3.027-3.019s-3.018,1.348-3.018,3.019S489.68,375.519,491.352,375.519 M491.322,370.466
				c0.831,0,1.386,0.42,1.386,1.041c0,0.525-0.334,0.859-1.031,1.041l0.974,1.385c0.22,0.306,0.334,0.401,0.563,0.41v0.163h-0.859
				l-1.375-1.891h-0.354v1.098v0.344c0.048,0.229,0.172,0.286,0.554,0.286v0.163h-1.71v-0.163c0.22,0,0.325-0.028,0.401-0.124
				c0.076-0.095,0.086-0.114,0.086-0.515v-2.445c0-0.411-0.01-0.43-0.086-0.517c-0.067-0.076-0.162-0.104-0.344-0.114v-0.162
				H491.322 M490.626,372.414h0.143c0.755,0,1.194-0.315,1.194-0.851c0-0.516-0.401-0.888-0.945-0.888
				c-0.134,0-0.22,0.01-0.392,0.066V372.414 M491.352,368.995c-1.933,0-3.505,1.572-3.505,3.505s1.572,3.505,3.505,3.505
				c1.938,0,3.515-1.572,3.515-3.505S493.289,368.995,491.352,368.995L491.352,368.995z M489.636,370.266
				c0.476-0.366,1.07-0.584,1.716-0.584c1.559,0,2.827,1.265,2.827,2.818c0,0.744-0.291,1.422-0.765,1.926v-0.083v-0.192
				l-0.192-0.008c-0.133-0.005-0.197-0.033-0.409-0.327l-0.814-1.158c0.604-0.225,0.91-0.61,0.91-1.15
				c0-0.742-0.638-1.241-1.586-1.241H489.636L489.636,370.266z M489.27,374.397c-0.457-0.501-0.735-1.167-0.735-1.897
				c0-0.761,0.303-1.451,0.793-1.959v0.087v0.189l0.189,0.011c0.171,0.009,0.193,0.034,0.205,0.047
				c0.035,0.062,0.035,0.271,0.035,0.384v2.445c0,0.337-0.005,0.343-0.042,0.39c-0.017,0.021-0.039,0.049-0.245,0.049h-0.2v0.2
				V374.397L489.27,374.397z M490.826,370.894c0.069-0.016,0.121-0.018,0.191-0.018c0.438,0,0.745,0.282,0.745,0.688
				c0,0.538-0.563,0.641-0.937,0.649V370.894L490.826,370.894z M490.826,372.815h0.052l1.314,1.808l0.061,0.083h0.102h0.755
				c-0.482,0.383-1.094,0.612-1.758,0.612c-0.662,0-1.271-0.229-1.752-0.612h1.58h0.2v-0.2v-0.163v-0.2h-0.2
				c-0.331,0-0.339-0.034-0.357-0.127l0.004-0.303V372.815L490.826,372.815z"/>
		</g>
	</g>
</g>
<g id="Calque_2">
	<path fill="#FFFFFF" d="M88.447,370.495c-1.438,1.542-3.411,2.761-5.983,3.429l0,0c7.495-1.072,10.956-6.426,10.976-11.861l0,0
		c-0.027-6.524-3.659-11.353-10.981-12.706l0,0c4.95,1.831,9.147,5.921,9.142,12.706l0,0
		C91.601,365.008,90.667,368.116,88.447,370.495"/>
	<g>
		<path fill="#FFFFFF" d="M87.712,336.285c0.006,5.286-2.634,8.528-5.6,10.2l0,0c4.771-1.718,7.281-5.854,7.292-10.416l0,0
			c-0.017-6.508-4.358-10.456-10.505-11.045l0,0C84.722,326.382,87.741,330.702,87.712,336.285L87.712,336.285z"/>
	</g>
	<g>
		<polygon fill="#FFFFFF" points="63.353,373.543 65.048,373.543 65.048,325.523 63.353,325.521 63.353,373.543 		"/>
	</g>
	<g>
		<path fill="#FFFFFF" d="M136.424,339.164c0.01,3.812-1.444,6.865-4.024,8.968l0,0c3.347-1.767,5.717-5.284,5.719-9.687l0,0
			c-0.013-7.398-5.672-11.954-11.757-13.125l0,0C133.621,327.547,136.443,334.292,136.424,339.164L136.424,339.164z"/>
	</g>
	<g>
		<path fill="#FFFFFF" d="M131.217,355.497l7.705,11.091c2.864,4.138,5.092,6.456,8.497,6.984l0,0
			c-1.992-1.12-3.91-3.459-6.293-6.741l0,0l-6.236-8.786c-2.218-3.125-3.814-5.009-6.657-5.886l0,0
			C129.41,353.12,130.342,354.296,131.217,355.497L131.217,355.497z"/>
	</g>
	<g>
		<polygon fill="#FFFFFF" points="112.139,373.543 113.832,373.543 113.832,325.596 112.139,325.596 112.139,373.543 		"/>
	</g>
	<polyline fill="#FFFFFF" points="200.262,373.543 200.262,373.543 201.814,373.543 182.621,328.335 181.868,330.231 
		200.262,373.543 	"/>
	<polyline fill="#FFFFFF" stroke="#78B648" stroke-width="0.2" points="217.303,373.471 217.303,373.471 219.089,373.471 
		255.169,325.667 253.383,325.667 217.303,373.471 	"/>
	<polyline fill="#FFFFFF" points="274.49,373.541 274.49,373.541 276.183,373.541 276.183,325.596 274.49,325.596 274.49,373.541 	
		"/>
	<polygon fill="#FFFFFF" points="344.634,371.329 344.634,369.201 304.58,325.523 302.655,325.523 344.634,371.329 	"/>
	<g>
		<path fill="#FFFFFF" d="M411.388,349.677c0.021,8.572-3.116,17.794-11.329,22.287l0,0c7.577-3.55,13.161-11.231,13.172-22.502l0,0
			c-0.011-12.461-6.371-19.929-14.048-23.125l0,0C405.584,329.467,411.408,336.27,411.388,349.677L411.388,349.677z"/>
	</g>
	<g>
		<path fill="#FFFFFF" d="M361.79,349.461c-0.005,9.94,7.063,19.787,17.633,23.346l0,0c-10.097-4.037-15.796-13.749-15.793-23.131
			l0,0c-0.008-10.684,6.066-20.047,16.01-23.881l0,0C369.501,329.158,361.781,338.704,361.79,349.461L361.79,349.461z"/>
	</g>
	<polyline fill="#FFFFFF" points="467.15,373.542 467.15,373.542 469.047,373.542 429.21,325.451 427.244,325.451 467.15,373.542 	
		"/>
</g>
</svg>
