<?xml version="1.0" encoding="utf-8"?>
<!-- Generator: Adobe Illustrator 16.0.0, SVG Export Plug-In . SVG Version: 6.00 Build 0)  -->
<!DOCTYPE svg PUBLIC "-//W3C//DTD SVG 1.1//EN" "http://www.w3.org/Graphics/SVG/1.1/DTD/svg11.dtd">
<svg version="1.1" id="Calque_1" xmlns="http://www.w3.org/2000/svg" xmlns:xlink="http://www.w3.org/1999/xlink" x="0px" y="0px"
	 width="500px" height="500px" viewBox="0 0 500 500" enable-background="new 0 0 500 500" xml:space="preserve">
<g>
	<polygon fill="#E2001A" points="137.654,139.884 360.096,139.884 360.096,201.961 137.286,202.333 	"/>
	<polygon fill="#E2001A" points="138.022,297.667 360.45,297.667 360.45,359.744 137.654,360.116 	"/>
	<path d="M78.803,271.937h-9.838v-42.124h9.146v5.976c1.593-2.823,3.026-4.659,4.3-5.517c1.272-0.857,2.719-1.29,4.339-1.29
		c2.286,0,4.485,0.701,6.604,2.096l-3.118,9.7c-1.693-1.212-3.261-1.819-4.716-1.819c-1.402,0-2.598,0.429-3.572,1.286
		c-0.974,0.857-1.745,2.403-2.304,4.646s-0.84,6.933-0.84,14.073V271.937z"/>
	<path d="M119.091,258.772l9.838,1.802c-1.26,4.07-3.252,7.162-5.971,9.284c-2.724,2.121-6.128,3.187-10.211,3.187
		c-6.47,0-11.259-2.39-14.363-7.188c-2.455-3.837-3.681-8.678-3.681-14.523c0-6.989,1.619-12.462,4.858-16.42
		c3.239-3.954,7.331-5.933,12.285-5.933c5.56,0,9.95,2.07,13.163,6.205c3.218,4.135,4.755,10.475,4.612,19.014h-24.804
		c0.069,3.326,0.862,5.906,2.373,7.76c1.512,1.854,3.399,2.771,5.655,2.771c1.533,0,2.823-0.468,3.871-1.412
		C117.766,262.376,118.554,260.869,119.091,258.772z M119.783,247.411c-0.069-3.256-0.81-5.733-2.217-7.431
		c-1.407-1.697-3.122-2.546-5.14-2.546c-2.161,0-3.945,0.896-5.353,2.685c-1.411,1.792-2.104,4.222-2.078,7.292H119.783z"/>
	<path d="M171.572,271.937h-9.838v-21.469c0-4.542-0.212-7.482-0.632-8.816c-0.425-1.333-1.109-2.364-2.058-3.109
		c-0.948-0.736-2.091-1.109-3.425-1.109c-1.711,0-3.248,0.528-4.607,1.585s-2.291,2.46-2.793,4.2
		c-0.507,1.741-0.758,4.963-0.758,9.665v19.053h-9.838v-42.124h9.146v6.175c3.252-4.667,7.344-7.006,12.28-7.006
		c2.174,0,4.161,0.441,5.962,1.325c1.802,0.883,3.166,2.009,4.088,3.382c0.923,1.373,1.567,2.927,1.932,4.668
		c0.359,1.74,0.541,4.23,0.541,7.478V271.937z"/>
	<path d="M215.671,271.937h-9.838v-21.469c0-4.542-0.213-7.482-0.633-8.816c-0.424-1.333-1.108-2.364-2.057-3.109
		c-0.948-0.736-2.092-1.109-3.425-1.109c-1.711,0-3.248,0.528-4.607,1.585s-2.291,2.46-2.793,4.2
		c-0.507,1.741-0.758,4.963-0.758,9.665v19.053h-9.838v-42.124h9.145v6.175c3.252-4.667,7.345-7.006,12.281-7.006
		c2.173,0,4.161,0.441,5.962,1.325c1.802,0.883,3.166,2.009,4.088,3.382c0.923,1.373,1.567,2.927,1.932,4.668
		c0.359,1.74,0.541,4.23,0.541,7.478V271.937z"/>
	<path d="M247.437,258.772l9.839,1.802c-1.26,4.07-3.252,7.162-5.972,9.284c-2.724,2.121-6.127,3.187-10.21,3.187
		c-6.47,0-11.259-2.39-14.363-7.188c-2.455-3.837-3.681-8.678-3.681-14.523c0-6.989,1.619-12.462,4.858-16.42
		c3.238-3.954,7.331-5.933,12.284-5.933c5.561,0,9.951,2.07,13.164,6.205c3.218,4.135,4.755,10.475,4.616,19.014h-24.808
		c0.069,3.326,0.861,5.906,2.373,7.76c1.511,1.854,3.398,2.771,5.655,2.771c1.532,0,2.823-0.468,3.871-1.412
		C246.112,262.376,246.9,260.869,247.437,258.772z M248.13,247.411c-0.069-3.256-0.81-5.733-2.217-7.431
		c-1.407-1.697-3.122-2.546-5.141-2.546c-2.16,0-3.944,0.896-5.352,2.685c-1.412,1.792-2.104,4.222-2.078,7.292H248.13z"/>
	<path d="M299.923,271.937h-9.838v-21.469c0-4.542-0.217-7.482-0.632-8.816c-0.425-1.333-1.109-2.364-2.062-3.109
		c-0.944-0.736-2.087-1.109-3.421-1.109c-1.715,0-3.248,0.528-4.607,1.585s-2.295,2.46-2.797,4.2
		c-0.502,1.741-0.754,4.963-0.754,9.665v19.053h-9.838v-42.124h9.146v6.175c3.247-4.667,7.344-7.006,12.28-7.006
		c2.174,0,4.156,0.441,5.958,1.325c1.802,0.883,3.17,2.009,4.088,3.382c0.927,1.373,1.567,2.927,1.931,4.668
		c0.364,1.74,0.546,4.23,0.546,7.478V271.937z"/>
	<path d="M306.609,260.159l9.977-1.663c0.424,2.13,1.281,3.75,2.572,4.858c1.299,1.1,3.108,1.654,5.438,1.654
		c2.563,0,4.494-0.528,5.785-1.594c0.874-0.745,1.308-1.74,1.308-2.996c0-0.85-0.242-1.56-0.711-2.113
		c-0.502-0.537-1.61-1.022-3.342-1.473c-8.046-2-13.155-3.814-15.303-5.456c-2.988-2.269-4.479-5.43-4.479-9.475
		c0-3.646,1.291-6.711,3.871-9.197c2.581-2.481,6.582-3.724,12.004-3.724c5.161,0,8.989,0.936,11.501,2.802s4.235,4.629,5.188,8.283
		l-9.284,1.94c-0.416-1.654-1.187-2.923-2.329-3.802c-1.152-0.883-2.78-1.325-4.902-1.325c-2.676,0-4.59,0.416-5.75,1.238
		c-0.771,0.584-1.152,1.342-1.152,2.273c0,0.801,0.329,1.477,0.996,2.035c0.901,0.745,4.019,1.797,9.354,3.152
		s9.059,3.018,11.181,4.976c2.087,1.991,3.135,4.771,3.135,8.322c0,3.871-1.438,7.205-4.313,9.994
		c-2.876,2.78-7.128,4.174-12.757,4.174c-5.118,0-9.163-1.16-12.142-3.464C309.476,267.26,307.527,264.125,306.609,260.159z"/>
	<path d="M367.543,229.813v8.868h-6.789v17.062c0,3.464,0.061,5.473,0.189,6.045c0.131,0.571,0.425,1.039,0.884,1.42
		c0.459,0.364,1.014,0.554,1.672,0.554c0.909,0,2.234-0.354,3.975-1.064l0.763,8.678c-2.278,1.117-4.859,1.671-7.734,1.671
		c-1.767,0-3.359-0.337-4.78-1.013c-1.42-0.685-2.46-1.559-3.118-2.633c-0.666-1.083-1.117-2.537-1.377-4.365
		c-0.207-1.308-0.312-3.932-0.312-7.898v-18.455h-4.572v-8.868h4.572v-8.313l9.839-6.513v14.826H367.543z"/>
	<path d="M399.066,271.937v-6.296c-1.359,2.243-3.152,4.044-5.369,5.387s-4.556,2.018-7.015,2.018c-2.512,0-4.764-0.623-6.755-1.87
		c-1.992-1.247-3.438-2.996-4.33-5.257c-0.893-2.252-1.334-5.37-1.334-9.354v-26.752h9.838v19.464c0,5.955,0.182,9.609,0.546,10.951
		c0.363,1.343,1.03,2.408,2,3.188c0.962,0.788,2.183,1.178,3.673,1.178c1.697,0,3.213-0.52,4.555-1.576
		c1.343-1.048,2.261-2.355,2.754-3.906c0.494-1.559,0.745-5.369,0.745-11.431v-17.867h9.838v42.124H399.066z"/>
	<path d="M428.2,213.878v21.469c3.187-4.243,6.989-6.365,11.423-6.365c2.27,0,4.321,0.477,6.148,1.425
		c1.828,0.948,3.205,2.161,4.131,3.637c0.928,1.477,1.56,3.113,1.897,4.906c0.337,1.793,0.511,4.573,0.511,8.345v24.643h-9.838
		v-22.222c0-4.408-0.191-7.209-0.563-8.401c-0.381-1.187-1.039-2.13-1.991-2.832c-0.953-0.697-2.148-1.048-3.577-1.048
		c-1.646,0-3.118,0.451-4.408,1.347c-1.29,0.896-2.234,2.252-2.832,4.062c-0.606,1.81-0.9,4.482-0.9,8.02v21.074h-9.838v-58.059
		H428.2z"/>
	<path d="M462.712,271.937v-58.059H475v58.059H462.712z"/>
	<g>
		<g>
			<path d="M58.811,237.988c-0.139-1.524-4.019-9.007-11.224-8.868c-7.206,0.139-10.393,2.494-10.393,2.494v-17.736L25,213.739
				c0,0,0,47.251,0,48.914c0,1.662,4.435,10.53,17.737,10.392c13.302-0.138,15.935-10.946,16.073-12.609
				S58.949,239.513,58.811,237.988z M42.599,266.117c-6.513,0-7.898-29.931,0.139-30.208
				C51.743,236.187,49.249,266.256,42.599,266.117z"/>
		</g>
	</g>
</g>
</svg>
