<?xml version="1.0" encoding="utf-8"?>
<!-- Generator: Adobe Illustrator 16.0.0, SVG Export Plug-In . SVG Version: 6.00 Build 0)  -->
<!DOCTYPE svg PUBLIC "-//W3C//DTD SVG 1.1//EN" "http://www.w3.org/Graphics/SVG/1.1/DTD/svg11.dtd">
<svg version="1.1" id="Calque_2" xmlns="http://www.w3.org/2000/svg" xmlns:xlink="http://www.w3.org/1999/xlink" x="0px" y="0px"
	 width="500px" height="500px" viewBox="0 0 500 500" enable-background="new 0 0 500 500" xml:space="preserve">
<g>
	<g>
		<polygon points="255.041,252.193 263.365,252.193 259.096,243.015 		"/>
		<ellipse cx="373.722" cy="250.875" rx="12.381" ry="14.356"/>
		<path d="M179.05,249.134c-1.423,0-2.775,0-2.775,0v15.795h5.443c0,0,5.87-1.139,5.87-7.897
			C187.588,250.272,180.473,249.134,179.05,249.134z"/>
		<path d="M435.641,212.277H63.09c-21.298,0-38.725,17.275-38.725,38.388c0,21.114,17.426,38.388,38.725,38.388h372.551
			c21.299,0,38.725-17.274,38.725-38.388C474.366,229.552,456.94,212.277,435.641,212.277z M180.971,267.349h-11.313
			c0.747-0.747,0.996-3.344,0.996-3.344v-27.251c0-1.281-0.996-2.988-0.996-2.988s0.498,0,9.534,0
			c9.037,0,11.883,4.696,11.883,8.111c0,3.416-3.131,5.55-3.131,5.55s5.834,0.783,5.834,10.175
			C193.778,266.993,180.971,267.349,180.971,267.349z M222.524,267.349c-6.546-6.261-12.381-15.013-13.519-16.683
			c-1.139-1.67,2.917-0.758,2.917-0.758s5.977,0.365,5.977-6.466s-8.254-6.973-8.254-6.973h-1.85c0,0,0,23.48,0,26.042
			s1.138,4.838,1.138,4.838h-7.827c0.64-0.64,0.925-4.554,0.925-4.554v-24.618c0-2.419-0.925-4.412-0.925-4.412s2.917,0,9.321,0
			s13.59,2.704,13.59,9.819c0,7.115-9.179,8.325-9.179,8.325c4.411,6.475,16.436,15.439,16.436,15.439H222.524z M240.241,239.03
			c0,0,0,20.278,0,23.196c0,2.917,0.854,5.122,0.854,5.122h-7.613c0.854-0.854,1.139-4.909,1.139-4.909s0-21.844,0-24.405
			s-1.139-4.269-1.139-4.269h7.613C239.956,235.402,240.241,239.03,240.241,239.03z M269.982,267.349l-5.407-12.096h-10.46
			l-5.549,12.096h-3.344c0.996-0.854,2.063-3.344,2.063-3.344l12.736-30.24h1.707c0,0,10.673,25.543,12.31,28.817
			c1.637,3.272,3.629,4.767,3.629,4.767H269.982z M311.037,237.252v31.022h-1.423l-23.622-25.615c0,0-0.071,17.859-0.071,19.923
			s0.711,4.767,0.711,4.767h-3.771c0.711-1.138,0.782-3.842,0.782-3.842v-30.311h1.281l23.765,25.828c0,0,0-19.14,0-21.346
			c0-2.206-0.569-3.629-0.854-3.914c-0.284-0.285,4.198,0,4.198,0C311.322,234.548,311.037,237.252,311.037,237.252z
			 M340.636,273.396c0,2.277-2.562,3.629-4.768,3.629c-2.205,0-5.834-2.063-5.834-2.063l1.209-1.352
			c1.494,0.712,6.333,1.992,6.333,0s-5.052-1.992-5.052-1.992l2.063-4.27c-2.063,0-15.44-3.13-15.44-16.009
			c0-12.878,12.594-17.575,19.211-17.575s10.531,3.06,10.531,3.06l0.427,5.265c0,0-2.847-5.336-11.527-5.336
			c-8.68,0-12.594,7.115-12.594,13.981c0,6.867,7.115,14.337,13.306,14.337s10.53-4.839,10.53-4.839l0.925,2.918
			c-5.122,5.052-12.807,4.767-12.807,4.767l-0.925,1.851C337.861,269.769,340.636,271.12,340.636,273.396z M373.722,267.983
			c-10.258,0-18.571-7.659-18.571-17.109c0-9.449,8.313-17.109,18.571-17.109c10.257,0,18.57,7.661,18.57,17.109
			C392.292,260.324,383.979,267.983,373.722,267.983z M428.082,237.252v31.022h-1.423l-23.622-25.615c0,0-0.071,17.859-0.071,19.923
			s0.712,4.767,0.712,4.767h-3.771c0.712-1.138,0.782-3.842,0.782-3.842v-30.311h1.281l23.765,25.828c0,0,0-19.14,0-21.346
			c0-2.206-0.569-3.629-0.854-3.914c-0.285-0.285,4.197,0,4.197,0C428.367,234.548,428.082,237.252,428.082,237.252z"/>
		<path d="M185.311,241.876c0-4.056-5.052-5.407-5.692-5.407c-0.641,0-3.344,0-3.344,0v10.032h4.269
			C180.544,246.501,185.311,245.932,185.311,241.876z"/>
	</g>
	<path fill="#E2001A" d="M69.144,255.348c0,0,0.759,1.614,0.759,3.227c0,1.611-1.139,4.648-4.364,4.648
		c-3.226,0-6.925-4.461-6.925-8.444c0-3.984,2.656-15.179,16.127-15.179s32.635,23.054,50.281,23.054c0,0,3.984-0.38,5.502-1.139
		c0,0-1.233,0-6.166,0c-4.934,0-13.852-3.131-31.212-15.179c0,0-1.043-4.364-1.043-7.589c0-3.226,3.51-10.436,11.858-10.436
		s11.669,6.925,16.223,14.705c4.554,7.779,11.479,12.712,17.456,12.712c5.977,0,8.159-4.933,8.159-7.495s-3.225-5.598-6.735-5.598
		c-3.511,0-6.167,2.467-6.167,2.467s0.474-7.495,6.071-7.495s8.349,4.364,8.349,10.72c0,6.356-9.012,26.658-35.576,26.658
		c-26.563,0-21.82-19.543-17.456-22.769c0,0-15.028-10.245-21.63-10.245c-6.602,0-12.048,4.742-12.048,9.676
		C60.605,256.582,65.444,260.092,69.144,255.348z"/>
</g>
</svg>
