<?xml version="1.0" encoding="utf-8"?>
<!-- Generator: Adobe Illustrator 21.0.2, SVG Export Plug-In . SVG Version: 6.00 Build 0)  -->
<svg version="1.1" id="Calque_2" xmlns="http://www.w3.org/2000/svg" xmlns:xlink="http://www.w3.org/1999/xlink" x="0px" y="0px"
	 viewBox="0 0 500 130" style="enable-background:new 0 0 500 130;" xml:space="preserve">
<style type="text/css">
	.st0{fill:#E2001A;}
</style>
<polygon points="255,67.2 263.4,67.2 259.1,58 "/>
<ellipse cx="373.7" cy="65.9" rx="12.4" ry="14.4"/>
<path d="M179.1,64.1c-1.4,0-2.8,0-2.8,0v15.8h5.4c0,0,5.9-1.1,5.9-7.9C187.6,65.3,180.5,64.1,179.1,64.1z"/>
<path d="M435.6,27.3H63.1c-21.3,0-38.7,17.3-38.7,38.4s17.4,38.4,38.7,38.4h372.6c21.3,0,38.7-17.3,38.7-38.4
	C474.4,44.6,456.9,27.3,435.6,27.3z M181,82.3h-11.3c0.7-0.7,1-3.3,1-3.3V51.7c0-1.3-1-3-1-3s0.5,0,9.5,0s11.9,4.7,11.9,8.1
	c0,3.4-3.1,5.6-3.1,5.6s5.8,0.8,5.8,10.2C193.8,82,181,82.3,181,82.3z M222.5,82.3c-6.5-6.3-12.4-15-13.5-16.7s2.9-0.8,2.9-0.8
	s6,0.4,6-6.5s-8.3-7-8.3-7h-1.9c0,0,0,23.5,0,26s1.1,4.8,1.1,4.8H201c0.6-0.6,0.9-4.6,0.9-4.6V52.9c0-2.4-0.9-4.4-0.9-4.4
	s2.9,0,9.3,0s13.6,2.7,13.6,9.8s-9.2,8.3-9.2,8.3c4.4,6.5,16.4,15.4,16.4,15.4L222.5,82.3L222.5,82.3z M240.2,54c0,0,0,20.3,0,23.2
	c0,2.9,0.9,5.1,0.9,5.1h-7.6c0.9-0.9,1.1-4.9,1.1-4.9s0-21.8,0-24.4s-1.1-4.3-1.1-4.3h7.6C240,50.4,240.2,54,240.2,54z M270,82.3
	l-5.4-12.1h-10.5l-5.5,12.1h-3.3c1-0.9,2.1-3.3,2.1-3.3l12.7-30.2h1.7c0,0,10.7,25.5,12.3,28.8c1.6,3.3,3.6,4.8,3.6,4.8H270V82.3z
	 M311,52.3v31h-1.4L286,57.7c0,0-0.1,17.9-0.1,19.9s0.7,4.8,0.7,4.8h-3.8c0.7-1.1,0.8-3.8,0.8-3.8V48.3h1.3l23.8,25.8
	c0,0,0-19.1,0-21.3s-0.6-3.6-0.9-3.9c-0.3-0.3,4.2,0,4.2,0C311.3,49.5,311,52.3,311,52.3z M340.6,88.4c0,2.3-2.6,3.6-4.8,3.6
	c-2.2,0-5.8-2.1-5.8-2.1l1.2-1.4c1.5,0.7,6.3,2,6.3,0s-5.1-2-5.1-2l2.1-4.3c-2.1,0-15.4-3.1-15.4-16s12.6-17.6,19.2-17.6
	s10.5,3.1,10.5,3.1l0.4,5.3c0,0-2.8-5.3-11.5-5.3s-12.6,7.1-12.6,14S332.2,80,338.4,80s10.5-4.8,10.5-4.8l0.9,2.9
	c-5.1,5.1-12.8,4.8-12.8,4.8l-0.9,1.9C337.9,84.8,340.6,86.1,340.6,88.4z M373.7,83c-10.3,0-18.6-7.7-18.6-17.1s8.3-17.1,18.6-17.1
	c10.3,0,18.6,7.7,18.6,17.1C392.3,75.3,384,83,373.7,83z M428.1,52.3v31h-1.4L403,57.7c0,0-0.1,17.9-0.1,19.9s0.7,4.8,0.7,4.8h-3.8
	c0.7-1.1,0.8-3.8,0.8-3.8V48.3h1.3l23.8,25.8c0,0,0-19.1,0-21.3s-0.6-3.6-0.9-3.9s4.2,0,4.2,0C428.4,49.5,428.1,52.3,428.1,52.3z"/>
<path d="M185.3,56.9c0-4.1-5.1-5.4-5.7-5.4c-0.6,0-3.3,0-3.3,0v10h4.3C180.5,61.5,185.3,60.9,185.3,56.9z"/>
<path class="st0" d="M69.1,70.3c0,0,0.8,1.6,0.8,3.2s-1.1,4.6-4.4,4.6c-3.2,0-6.9-4.5-6.9-8.4c0-4,2.7-15.2,16.1-15.2
	s32.6,23.1,50.3,23.1c0,0,4-0.4,5.5-1.1c0,0-1.2,0-6.2,0c-4.9,0-13.9-3.1-31.2-15.2c0,0-1-4.4-1-7.6c0-3.2,3.5-10.4,11.9-10.4
	s11.7,6.9,16.2,14.7c4.6,7.8,11.5,12.7,17.5,12.7s8.2-4.9,8.2-7.5s-3.2-5.6-6.7-5.6s-6.2,2.5-6.2,2.5s0.5-7.5,6.1-7.5
	s8.3,4.4,8.3,10.7s-9,26.7-35.6,26.7S90,70.5,94.3,67.2c0,0-15-10.2-21.6-10.2s-12,4.7-12,9.7C60.6,71.6,65.4,75.1,69.1,70.3z"/>
</svg>
