<?xml version="1.0" encoding="utf-8"?>
<!-- Generator: Adobe Illustrator 15.0.0, SVG Export Plug-In . SVG Version: 6.00 Build 0)  -->
<!DOCTYPE svg PUBLIC "-//W3C//DTD SVG 1.1//EN" "http://www.w3.org/Graphics/SVG/1.1/DTD/svg11.dtd">
<svg version="1.1" id="Calque_1" xmlns="http://www.w3.org/2000/svg" xmlns:xlink="http://www.w3.org/1999/xlink" x="0px" y="0px"
	 width="500px" height="500px" viewBox="0 0 500 500" enable-background="new 0 0 500 500" xml:space="preserve">
<g>
	<path fill="#969C9A" stroke="#1A171B" stroke-width="2.4653" d="M68.926,365.616c5.141-0.687,8.078-1.144,8.078-8.053v-54.963
		c0-7.488-3.852-7.717-8.078-8.054v-2.841h28.337c5.128,0,23.834,0.458,23.834,18.178c0,12.59-10.352,15.54-14.204,17.021v0.228
		c7.704,1.59,17.322,7.259,17.322,20.212c0,9.534-6.416,20.655-25.76,21.113H68.926V365.616z M91.665,326.098
		c12.291,0,14.313-4.767,14.313-16.335c0-7.945-2.022-14.65-9.45-14.65c-4.683,0-4.767,2.949-4.863,5.562V326.098z M91.665,357.9
		c0,5.104,1.649,6.921,5.501,6.921c10.087,0,11.292-10.099,11.292-17.021c0-16.238-8.078-17.947-14.036-18.284h-2.757V357.9z"/>
	<path fill="#969C9A" stroke="#1A171B" stroke-width="2.4653" d="M177.805,368.457h-13.037L151.6,345.272h-1.709v14.518
		c0,5.923,1.396,6.151,5.585,6.825v1.842h-21.475v-1.842c4.31-0.602,5.585-0.831,5.585-6.825v-32.729
		c0-6.368-1.974-6.524-5.585-6.813v-1.854h20.464c4.454,0,17.936,0.602,17.936,13.024c0,9.125-6.548,11.411-9.979,12.676
		l12.772,21.113c0.902,1.324,1.853,1.408,2.611,1.408V368.457z M149.891,342.902c8.33-0.073,11.64-1.698,11.64-11.328
		c0-7.487-2.611-10.666-7.691-10.666c-3.49,0-3.636,0.82-3.948,3.106V342.902z"/>
	<path fill="#969C9A" stroke="#1A171B" stroke-width="2.4653" d="M205.047,368.457h-20.801v-1.842
		c3.201-0.373,5.525-0.662,5.525-5.236v-35.715c0-4.863-2.793-5.02-5.525-5.225v-1.854h20.801v1.854
		c-2.793,0.133-5.646,0.205-5.646,5.225v35.715c0,4.719,2.372,4.947,5.646,5.236V368.457z"/>
	<path fill="#969C9A" stroke="#1A171B" stroke-width="2.4653" d="M257.94,344.431c0,15.022-9.871,25.387-23.474,25.387
		c-13.602,0-23.473-10.364-23.473-25.387c0-15.576,10.677-25.375,23.473-25.375C247.262,319.056,257.94,328.854,257.94,344.431z
		 M222.729,344.431c0,6.224,0.397,23.027,11.736,23.027c11.34,0,11.737-16.804,11.737-23.027c0-10.437-2.456-23.016-11.737-23.016
		C225.185,321.415,222.729,333.994,222.729,344.431z"/>
	<path fill="#969C9A" stroke="#1A171B" stroke-width="2.4653" d="M263.971,366.567c3.682-0.518,5.368-1.047,5.368-5.934v-35.065
		c-3.406-5.104-4.394-5.321-5.189-5.321v-1.854h12.894l21.197,31.598h0.121v-22.413c0-4.455-0.735-6.898-5.682-7.331v-1.854h14.673
		v1.854c-4.394,0.661-4.779,2.371-4.779,5.922v43.576h-3.238l-27.179-40.097h-0.121v29.6c0,5.309,1.288,6.718,5.813,7.319v1.842
		h-13.878V366.567z"/>
	<path fill="#969C9A" stroke="#1A171B" stroke-width="2.4653" d="M311.554,366.567c3.877-0.518,5.693-1.047,5.693-5.934v-35.065
		c-3.624-5.104-4.658-5.321-5.512-5.321v-1.854h13.675l21.689,31.598h0.133v-22.413c0-4.455-0.793-6.898-6.029-7.331v-1.854h14.685
		v1.854c-4.646,0.661-5.043,2.371-5.043,5.922v42.613h-2.589l-28.023-39.134H320.1v29.6c0,5.309,1.349,6.718,6.152,7.319v1.842
		h-14.698V366.567z"/>
	<path fill="#969C9A" stroke="#1A171B" stroke-width="2.4653" d="M361.751,291.128h53.337v15.481h-2.43
		c-2.229-16.239-9.68-11.593-22.728-11.593c-5.334,0-7.079,0.458-7.079,5.38v26.543c9.294,0.108,22.317,2.914,23.762-11.267h2.518
		v26.53h-2.518c-1.155-14.301-14.167-11.376-23.762-11.376v27.676c0,5.03,1.841,6.403,8.125,6.403
		c9.487,0,21.668,0.301,27.784-16.974h2.696l-3.877,20.524h-55.829v-2.865c5.512-0.686,8.521-1.022,8.521-8.112v-55.373
		c0-7.547-4.069-7.776-8.521-8.112V291.128z"/>
</g>
<g>
	<line fill="none" stroke="#1A171B" stroke-width="2.4579" x1="125.286" y1="293.452" x2="198.474" y2="293.452"/>
	<line fill="none" stroke="#1A171B" stroke-width="2.4653" x1="353.024" y1="293.452" x2="284.94" y2="293.452"/>
	<path fill="#1A171B" d="M198.281,292.513l-12.134-10.4l15.022-15.023l-21.186-19.066l18.297-12.519l-15.793-19.453l7.512-5.393
		c0,0,21.692,8.258,30.816,10.882c14.998,4.31,30.623,6.067,30.623,6.067s-1.396-9.63-10.172-11.977
		c-8.774-2.347-48.956-4.394-72.838-23.654c12.519,14.638,12.519,14.638,12.519,14.638l-7.126,6.741l14.445,16.563l-16.564,15.023
		l19.646,20.03l-14.83,12.326l13.097,16.155L198.281,292.513z"/>
	<path fill="#1A171B" d="M299.456,294.415c0,0-29.528-34.837-37.232-51.905c4.237,1.468,7.065,2.046,13.482,1.275
		c6.416-0.771,11.688-6.427,11.688-6.427l22.98,0.264l13.734-14.902v-2.745h6.934l17.72,14.565l29.792-0.264l-4.104-3.852
		l-25.17-0.121l-22.534-17.527l-7.259-0.071l-3.527-3.142h-30.623l-3.853-7.126h76.523l22.28-16.624h20.224l8.089-8.089h-24.46
		l-23.112,16.949h-23.497l-0.061-17.659l-6.428-8.992l-40.121,0.072c0,0-1.926-15.215-15.215-20.03c-26.193,0-26.193,0-26.193,0
		s-10.4-16.563-26.001-21.186c-4.43,2.119-12.952,14.374-15.408,23.882c11.364,11.749,11.364,11.749,11.364,11.749l0.578-27.156
		c0,0,2.311-2.889,3.852-3.66c1.926,0.771,10.786,3.66,24.075,25.809c30.43,0.192,30.43,0.192,30.43,0.192
		s8.475,1.926,10.785,12.134c0.566,3.54,2.312,9.245,2.312,9.245l41.409,0.192v15.986h-56.239l12.591,24.726h31.515v3.972
		l-6.741,6.164l-24.846,0.192c0,0-3.852,5.971-6.934,7.704c-3.081,1.733-15.793,4.43-24.268-1.348c0,0,10.979,24.845,12.134,27.926
		c1.156,3.082,14.83,29.83,14.83,29.83H299.456z"/>
	<path fill="none" d="M211.763,293.452c-8.475-27.734-7.511-59.49-3.852-79.135c2.311,68.372,17.719,79.135,17.719,79.135H211.763z"
		/>
	<path fill="#1A171B" d="M224.908,169.081c0,0-26.351-29.552-41.12-65.906c-26.435,13.832-10.22,28.18-10.22,28.18
		s0-6.812,4.081-11.363c4.094-4.55,5.995-2.889,5.995-2.889S205.347,153.793,224.908,169.081z"/>
	<path fill="#1A171B" d="M233.479,186.511c0,0-6.429-10.088-15.289-14.686c-11.556-5.971-46.055-33.898-55.528-48.885
		c-6.176,2.396-9.582,9.45-10.028,12.411c-1.373,9.186,6.837,14.396,6.837,14.396s-2.035-13.626,6.127-15.829
		C169.873,137.591,205.648,179.794,233.479,186.511z"/>
	<path fill="#1A171B" d="M242.651,207.3c0,0-0.602-8.872-17.117-15.287c-16.516-6.416-48.619-18.659-77.979-47.706
		c-3.01,3.371-4.936,7.223-5.899,10.304c-1.059,3.395-6.019,16.299,10.497,30.372c0,0-9.534-12.845,0.867-28.445
		C163.035,163.664,216.518,203.364,242.651,207.3z"/>
	<path fill="#1A171B" d="M211.257,294.463h14.542c0,0-19.765-32.49-17.936-78.833C208.297,204.423,196.271,255.389,211.257,294.463z
		"/>
	<polygon fill="#E64A18" points="345.042,212.488 392.999,212.488 398.392,206.613 405.904,206.613 393.77,220.095 351.59,220.095 	
		"/>
	<polygon fill="#FBC200" points="381.925,204.88 392.615,194.961 411.682,194.961 413.608,192.361 416.882,192.361 411.682,199.294 
		392.615,199.294 381.925,208.925 	"/>
	<rect x="252.594" y="167.708" fill="#1A171B" width="23.497" height="5.585"/>
	<rect x="264.343" y="172.908" fill="#1A171B" width="5.777" height="6.356"/>
	<rect x="320.582" y="182.346" fill="#1A171B" width="5.97" height="8.86"/>
	<rect x="326.552" y="188.316" fill="#1A171B" width="2.697" height="2.889"/>
</g>
<rect x="22.366" y="82.267" fill="none" width="458.134" height="328.694"/>
</svg>
