<?xml version="1.0" encoding="utf-8"?>
<!-- Generator: Adobe Illustrator 19.1.0, SVG Export Plug-In . SVG Version: 6.00 Build 0)  -->
<svg version="1.1" id="Calque_2" xmlns="http://www.w3.org/2000/svg" xmlns:xlink="http://www.w3.org/1999/xlink" x="0px" y="0px"
	 viewBox="0 0 500 500" style="enable-background:new 0 0 500 500;" xml:space="preserve">
<g>
	<path d="M460.6,138.9h-56.9l-52.6,63.2h-2.7v-63.2h-50.3v146.9L255.3,240c24.1-3.3,42.8-24.5,42.8-50.3c0-26.8-20.1-48.7-45.7-50.6
		v-0.2H205h-2.9h-47.4v91.4c-4.5-7.8-11.9-14.6-21.2-19.5c10-7.2,16.5-18.9,16.5-32.1c0-22-18-39.8-40.3-39.8
		c-0.9,0-1.8,0.1-2.7,0.1v-0.1h-18H54H26.6v155.1H54h35.1h18h1.1c21.3-2.5,38.5-13.2,46.5-27.5v27.5H205v-47.9l37.6,47.9h55.6h7.7
		h42.6v-61.7l51.3,61.7h56.9l-62.9-75.2L460.6,138.9z M76.4,176.8h15.3c7.8,0,14.1,4.6,14.1,10.2s-6.3,10.2-14.1,10.2H76.4V176.8z
		 M94.4,256.4h-18v-25.3h18c9.1,0,16.5,5.7,16.5,12.6S103.5,256.4,94.4,256.4z M229.9,212.8h-22.6v-34.6h22.6
		c11.4,0,20.7,7.8,20.7,17.3C250.6,205.1,241.3,212.8,229.9,212.8z"/>
	<polygon points="54.1,321.5 54.1,309.3 38.3,309.3 35.4,309.3 25,309.3 25,360.1 35.4,360.1 38.3,360.1 54.1,360.1 54.1,347.9 
		38.3,347.9 38.3,340.8 54.1,340.8 54.1,328.6 38.3,328.6 38.3,321.5 	"/>
	<polygon points="118.2,321.5 118.2,309.3 102.5,309.3 99.6,309.3 89.1,309.3 89.1,360.1 99.6,360.1 102.5,360.1 118.2,360.1 
		118.2,347.9 102.5,347.9 102.5,340.8 118.2,340.8 118.2,328.6 102.5,328.6 102.5,321.5 	"/>
	<rect x="346.8" y="309.3" width="13.3" height="50.8"/>
	<polygon points="329.7,309.3 329.7,337.2 313.6,309.3 312.6,309.3 300.3,309.3 299.3,309.3 299.3,360.1 312.6,360.1 312.6,330.6 
		329.6,360.1 329.7,360.1 342.9,360.1 343,360.1 343,309.3 	"/>
	<polygon points="203.4,309.3 193.4,309.3 180.1,309.3 170.4,309.3 170.4,321.5 180.1,321.5 180.1,360.1 193.4,360.1 193.4,321.5 
		203.4,321.5 	"/>
	<polygon points="71.2,347.9 71.2,309.3 57.8,309.3 57.8,360.1 68.3,360.1 71.2,360.1 86.9,360.1 86.9,347.9 	"/>
	<g>
		<path d="M270.8,308.3c-14.6,0-26.4,11.8-26.4,26.4s11.8,26.4,26.4,26.4s26.4-11.8,26.4-26.4S285.4,308.3,270.8,308.3z
			 M270.8,347.5c-7.1,0-12.9-5.8-12.9-12.9s5.8-12.9,12.9-12.9s12.9,5.8,12.9,12.9S278,347.5,270.8,347.5z"/>
	</g>
	<g>
		<path d="M400.7,341.9c-2.3,3.4-6.2,5.7-10.7,5.7c-7.1,0-12.9-5.8-12.9-12.9s5.8-12.9,12.9-12.9c4.9,0,9.1,2.8,11.3,6.8h14.4
			c-2.8-11.6-13.2-20.3-25.6-20.3c-14.6,0-26.4,11.8-26.4,26.4s11.8,26.4,26.4,26.4c12.1,0,22.1-8.1,25.3-19.2L400.7,341.9
			L400.7,341.9z"/>
	</g>
	<g>
		<path d="M157.4,341.9c-2.3,3.4-6.2,5.7-10.7,5.7c-7.1,0-12.9-5.8-12.9-12.9s5.8-12.9,12.9-12.9c4.9,0,9.1,2.8,11.3,6.8h14.4
			c-2.8-11.6-13.2-20.3-25.6-20.3c-14.6,0-26.4,11.8-26.4,26.4s11.8,26.4,26.4,26.4c12.1,0,22.1-8.1,25.3-19.2L157.4,341.9
			L157.4,341.9z"/>
	</g>
	<path d="M436.6,328.1c-2.3-0.9-4.5-2-4.5-4.4c0-2.4,2-4.4,4.5-4.4c2.5,0,4.5,2,4.5,4.4v0.5H453c0-8.8-7.6-16-17-16
		c-9.4,0-17,7.2-17,16s8.6,11.7,17,16c4.4,2.2,3.9,5.3,3.9,5.3c0,2.9-2.4,5.2-5.3,5.2s-5.3-2.4-5.3-5.2v-3.3h-11.4v2.9
		c0,8.8,7.9,16,17.6,16c9.7,0,17.6-7.2,17.6-16C453,345.1,454,335.2,436.6,328.1z"/>
	<g>
		<path d="M466.4,303.5c1.4,0,2.8,0.4,4.2,1.1c1.4,0.7,2.4,1.8,3.2,3.2c0.8,1.4,1.1,2.8,1.1,4.3c0,1.5-0.4,2.9-1.1,4.3
			c-0.8,1.4-1.8,2.4-3.2,3.2c-1.4,0.8-2.8,1.1-4.3,1.1s-2.9-0.4-4.3-1.1c-1.4-0.7-2.4-1.8-3.2-3.2c-0.8-1.4-1.1-2.8-1.1-4.3
			c0-1.5,0.4-2.9,1.1-4.3c0.8-1.4,1.8-2.4,3.2-3.2C463.6,303.9,465,303.5,466.4,303.5z M466.4,305c-1.2,0-2.4,0.3-3.5,0.9
			c-1.1,0.6-2,1.5-2.7,2.6c-0.6,1.1-1,2.3-1,3.6c0,1.2,0.3,2.4,0.9,3.6c0.6,1.1,1.5,2,2.6,2.6c1.1,0.6,2.3,0.9,3.6,0.9
			c1.2,0,2.4-0.3,3.6-0.9c1.1-0.6,2-1.5,2.6-2.6c0.6-1.1,0.9-2.3,0.9-3.6c0-1.2-0.3-2.4-1-3.6c-0.6-1.1-1.5-2-2.7-2.6
			C468.8,305.3,467.6,305,466.4,305z M462.7,316.8v-9.2h3.2c1.1,0,1.9,0.1,2.3,0.3c0.5,0.2,0.9,0.5,1.2,0.9c0.3,0.4,0.4,0.9,0.4,1.3
			c0,0.7-0.2,1.3-0.7,1.8c-0.5,0.5-1.1,0.8-1.9,0.8c0.3,0.1,0.6,0.3,0.8,0.5c0.4,0.4,0.8,1,1.4,1.8l1.1,1.8h-1.8l-0.8-1.5
			c-0.6-1.1-1.2-1.9-1.5-2.1c-0.3-0.2-0.7-0.3-1.2-0.3h-0.9v3.9L462.7,316.8L462.7,316.8z M464.2,311.6h1.8c0.9,0,1.5-0.1,1.8-0.4
			c0.3-0.3,0.5-0.6,0.5-1c0-0.3-0.1-0.5-0.2-0.7c-0.2-0.2-0.4-0.4-0.6-0.5c-0.3-0.1-0.8-0.2-1.5-0.2h-1.7L464.2,311.6L464.2,311.6z"
			/>
	</g>
	<path d="M231.7,343.3c6.9-2.1,11.9-8.7,11.9-16.7c0-9.6-7.4-17.4-16.5-17.4c-0.1,0-0.3,0-0.4,0v0h-8.3h-5.1H205v50.8h13.3v-13.4
		l10.6,13.4h15.6L231.7,343.3z M225.2,333.3h-7v-12.8h7c3.5,0,6.4,2.9,6.4,6.4S228.7,333.3,225.2,333.3z"/>
</g>
</svg>
