<?xml version="1.0" encoding="utf-8"?>
<!-- Generator: Adobe Illustrator 16.0.0, SVG Export Plug-In . SVG Version: 6.00 Build 0)  -->
<!DOCTYPE svg PUBLIC "-//W3C//DTD SVG 1.1//EN" "http://www.w3.org/Graphics/SVG/1.1/DTD/svg11.dtd">
<svg version="1.1" id="Calque_2" xmlns="http://www.w3.org/2000/svg" xmlns:xlink="http://www.w3.org/1999/xlink" x="0px" y="0px"
	 width="500px" height="500px" viewBox="0 0 500 500" enable-background="new 0 0 500 500" xml:space="preserve">
<g>
	<path d="M460.65,138.922h-56.925l-52.593,63.25h-2.669v-63.25h-50.267v146.938l-42.905-45.896
		c24.133-3.285,42.77-24.515,42.77-50.275c0-26.785-20.15-48.675-45.672-50.579v-0.188h-47.403h-2.864h-47.403v91.359
		c-4.525-7.849-11.856-14.611-21.168-19.516c9.992-7.238,16.507-18.884,16.507-32.062c0-21.971-18.033-39.781-40.28-39.781
		c-0.899,0-1.778,0.076-2.663,0.133v-0.133H89.137H54.02H26.553v155.13H54.02h35.117h17.977h1.11
		c21.329-2.486,38.455-13.238,46.494-27.542v27.542h50.268v-47.877l37.617,47.877h55.594h7.656h42.61v-61.653l51.267,61.653h56.925
		l-62.922-75.178L460.65,138.922z M76.378,176.763h15.337c7.769,0,14.067,4.575,14.067,10.219S99.484,197.2,91.715,197.2H76.378
		V176.763z M94.378,256.435h-18v-25.3h18c9.115,0,16.51,5.665,16.51,12.65S103.494,256.435,94.378,256.435z M229.885,212.825
		h-22.569v-34.622h22.569c11.438,0,20.707,7.75,20.707,17.311C250.592,205.075,241.323,212.825,229.885,212.825z"/>
	<polygon points="54.072,321.464 54.072,309.256 38.316,309.256 35.429,309.256 25,309.256 25,360.079 35.429,360.079 
		38.316,360.079 54.072,360.079 54.072,347.871 38.316,347.871 38.316,340.771 54.072,340.771 54.072,328.563 38.316,328.563 
		38.316,321.464 	"/>
	<polygon points="118.208,321.464 118.208,309.256 102.454,309.256 99.567,309.256 89.137,309.256 89.137,360.079 99.567,360.079 
		102.454,360.079 118.208,360.079 118.208,347.871 102.454,347.871 102.454,340.771 118.208,340.771 118.208,328.563 
		102.454,328.563 102.454,321.464 	"/>
	<rect x="346.799" y="309.256" width="13.316" height="50.823"/>
	<polygon points="329.712,309.256 329.712,337.161 313.598,309.256 312.621,309.256 300.283,309.256 299.304,309.256 
		299.304,360.079 312.621,360.079 312.621,330.623 329.629,360.079 329.712,360.079 342.945,360.079 343.028,360.079 
		343.028,309.256 	"/>
	<polygon points="203.433,309.256 193.446,309.256 180.13,309.256 170.365,309.256 170.365,321.464 180.13,321.464 180.13,360.079 
		193.446,360.079 193.446,321.464 203.433,321.464 	"/>
	<polygon points="71.162,347.871 71.162,309.256 57.845,309.256 57.845,360.079 68.275,360.079 71.162,360.079 86.917,360.079 
		86.917,347.871 	"/>
	<g>
		<path d="M270.847,308.262c-14.585,0-26.408,11.823-26.408,26.408s11.823,26.408,26.408,26.408s26.408-11.823,26.408-26.408
			S285.432,308.262,270.847,308.262z M270.847,347.538c-7.105,0-12.868-5.763-12.868-12.868s5.763-12.868,12.868-12.868
			s12.868,5.763,12.868,12.868S277.953,347.538,270.847,347.538z"/>
	</g>
	<g>
		<path d="M400.682,341.88c-2.315,3.412-6.227,5.658-10.658,5.658c-7.105,0-12.869-5.763-12.869-12.868s5.764-12.868,12.869-12.868
			c4.884,0,9.082,2.751,11.261,6.762h14.367c-2.768-11.625-13.155-20.302-25.628-20.302c-14.585,0-26.408,11.823-26.408,26.408
			s11.823,26.408,26.408,26.408c12.067,0,22.133-8.146,25.284-19.198H400.682z"/>
	</g>
	<g>
		<path d="M157.447,341.88c-2.315,3.412-6.227,5.658-10.658,5.658c-7.105,0-12.868-5.763-12.868-12.868s5.763-12.868,12.868-12.868
			c4.884,0,9.082,2.751,11.261,6.762h14.367c-2.768-11.625-13.155-20.302-25.628-20.302c-14.585,0-26.408,11.823-26.408,26.408
			s11.823,26.408,26.408,26.408c12.067,0,22.132-8.146,25.284-19.198H157.447z"/>
	</g>
	<path d="M436.629,328.116c-2.294-0.941-4.494-1.95-4.494-4.359c0-2.408,2.013-4.358,4.494-4.358c2.486,0,4.499,1.95,4.499,4.358
		v0.484h11.87c0-8.827-7.62-15.979-17.035-15.979c-9.409,0-17.029,7.152-17.029,15.979s8.649,11.698,17.029,15.979
		c4.359,2.227,3.881,5.254,3.881,5.254c0,2.897-2.378,5.248-5.312,5.248s-5.311-2.351-5.311-5.248v-3.318h-11.401v2.943
		c0,8.827,7.87,15.979,17.586,15.979c9.722,0,17.592-7.152,17.592-15.979C452.999,345.099,453.971,335.242,436.629,328.116z"/>
	<g>
		<path d="M466.439,303.534c1.44,0,2.846,0.363,4.213,1.103c1.368,0.738,2.44,1.794,3.204,3.173
			c0.765,1.373,1.145,2.804,1.145,4.291c0,1.478-0.38,2.897-1.129,4.255c-0.754,1.368-1.81,2.424-3.167,3.173
			c-1.358,0.754-2.783,1.134-4.266,1.134s-2.902-0.38-4.26-1.134c-1.353-0.749-2.419-1.805-3.168-3.173
			c-0.759-1.357-1.139-2.777-1.139-4.255c0-1.487,0.385-2.918,1.149-4.291c0.77-1.379,1.836-2.435,3.209-3.173
			C463.599,303.897,465.003,303.534,466.439,303.534z M466.439,304.954c-1.201,0-2.372,0.307-3.511,0.926
			c-1.14,0.613-2.029,1.498-2.669,2.643c-0.649,1.145-0.967,2.335-0.967,3.578c0,1.238,0.312,2.424,0.946,3.553
			c0.635,1.134,1.519,2.008,2.647,2.643c1.14,0.635,2.32,0.946,3.553,0.946c1.238,0,2.424-0.312,3.553-0.946
			c1.14-0.635,2.023-1.509,2.647-2.643c0.63-1.129,0.941-2.314,0.941-3.553c0-1.243-0.317-2.434-0.962-3.578
			c-0.635-1.145-1.529-2.029-2.669-2.643C468.806,305.261,467.641,304.954,466.439,304.954z M462.689,316.834v-9.217h3.162
			c1.087,0,1.862,0.088,2.346,0.255c0.494,0.172,0.869,0.468,1.16,0.899c0.292,0.416,0.438,0.869,0.438,1.343
			c0,0.676-0.245,1.264-0.729,1.758c-0.474,0.504-1.113,0.78-1.909,0.843c0.322,0.14,0.588,0.296,0.78,0.488
			c0.375,0.37,0.827,0.973,1.368,1.831l1.123,1.8h-1.814l-0.822-1.451c-0.64-1.145-1.16-1.852-1.55-2.143
			c-0.276-0.214-0.671-0.317-1.196-0.317h-0.874v3.911H462.689z M464.171,311.648h1.805c0.863,0,1.451-0.125,1.769-0.38
			c0.313-0.266,0.468-0.604,0.468-1.03c0-0.271-0.077-0.51-0.229-0.728c-0.151-0.219-0.358-0.375-0.624-0.484
			c-0.271-0.104-0.77-0.161-1.498-0.161h-1.69V311.648z"/>
	</g>
	<path d="M231.656,343.331c6.882-2.107,11.945-8.724,11.945-16.661c0-9.617-7.404-17.414-16.535-17.414
		c-0.146,0-0.281,0.041-0.424,0.047v-0.047h-8.344h-5.103h-8.213v50.823h13.315v-13.42l10.572,13.42h15.565L231.656,343.331z
		 M225.167,333.333h-6.991v-12.816h6.991c3.539,0,6.408,2.871,6.408,6.408S228.707,333.333,225.167,333.333z"/>
</g>
</svg>
