<?xml version="1.0" encoding="utf-8"?>
<!-- Generator: Adobe Illustrator 21.0.2, SVG Export Plug-In . SVG Version: 6.00 Build 0)  -->
<svg version="1.1" id="Calque_2" xmlns="http://www.w3.org/2000/svg" xmlns:xlink="http://www.w3.org/1999/xlink" x="0px" y="0px"
	 viewBox="0 0 500 226" style="enable-background:new 0 0 500 226;" xml:space="preserve">
<style type="text/css">
	.st0{fill:#DF7C09;}
	.st1{fill:url(#SVGID_1_);}
	.st2{fill:url(#SVGID_2_);}
	.st3{fill:url(#SVGID_3_);}
	.st4{fill:url(#SVGID_4_);}
	.st5{fill:url(#SVGID_5_);}
	.st6{fill:url(#SVGID_6_);}
</style>
<polygon class="st0" points="216.3,172.4 226.2,178.4 215.3,178.4 204.3,178.4 214,172.5 214.1,169.4 205.4,169.4 205.4,166.1 
	215.3,166.1 225.1,166.1 225.1,169.4 216.3,169.4 "/>
<rect x="213.8" y="187.6" class="st0" width="2.9" height="14.7"/>
<radialGradient id="SVGID_1_" cx="213.2148" cy="-387.6616" r="3.5748" gradientTransform="matrix(1 0 0 1 0 429)" gradientUnits="userSpaceOnUse">
	<stop  offset="0" style="stop-color:#FCFCFC"/>
	<stop  offset="4.320000e-02" style="stop-color:#F8E9D8"/>
	<stop  offset="9.940000e-02" style="stop-color:#F4D3B0"/>
	<stop  offset="0.1613" style="stop-color:#EFBF8A"/>
	<stop  offset="0.2275" style="stop-color:#EBAD69"/>
	<stop  offset="0.2991" style="stop-color:#E79D4E"/>
	<stop  offset="0.3781" style="stop-color:#E49138"/>
	<stop  offset="0.4673" style="stop-color:#E28727"/>
	<stop  offset="0.5729" style="stop-color:#E08119"/>
	<stop  offset="0.7105" style="stop-color:#DF7D0E"/>
	<stop  offset="1" style="stop-color:#DF7C09"/>
</radialGradient>
<circle class="st1" cx="215.3" cy="43.7" r="6.5"/>
<radialGradient id="SVGID_2_" cx="213.2148" cy="-365.8481" r="3.5748" gradientTransform="matrix(1 0 0 1 0 429)" gradientUnits="userSpaceOnUse">
	<stop  offset="0" style="stop-color:#FCFCFC"/>
	<stop  offset="4.320000e-02" style="stop-color:#F8E9D8"/>
	<stop  offset="9.940000e-02" style="stop-color:#F4D3B0"/>
	<stop  offset="0.1613" style="stop-color:#EFBF8A"/>
	<stop  offset="0.2275" style="stop-color:#EBAD69"/>
	<stop  offset="0.2991" style="stop-color:#E79D4E"/>
	<stop  offset="0.3781" style="stop-color:#E49138"/>
	<stop  offset="0.4673" style="stop-color:#E28727"/>
	<stop  offset="0.5729" style="stop-color:#E08119"/>
	<stop  offset="0.7105" style="stop-color:#DF7D0E"/>
	<stop  offset="1" style="stop-color:#DF7C09"/>
</radialGradient>
<circle class="st2" cx="215.3" cy="65.5" r="6.5"/>
<radialGradient id="SVGID_3_" cx="213.2148" cy="-271.792" r="3.5749" gradientTransform="matrix(1 0 0 1 0 429)" gradientUnits="userSpaceOnUse">
	<stop  offset="0" style="stop-color:#FCFCFC"/>
	<stop  offset="4.320000e-02" style="stop-color:#F8E9D8"/>
	<stop  offset="9.940000e-02" style="stop-color:#F4D3B0"/>
	<stop  offset="0.1613" style="stop-color:#EFBF8A"/>
	<stop  offset="0.2275" style="stop-color:#EBAD69"/>
	<stop  offset="0.2991" style="stop-color:#E79D4E"/>
	<stop  offset="0.3781" style="stop-color:#E49138"/>
	<stop  offset="0.4673" style="stop-color:#E28727"/>
	<stop  offset="0.5729" style="stop-color:#E08119"/>
	<stop  offset="0.7105" style="stop-color:#DF7D0E"/>
	<stop  offset="1" style="stop-color:#DF7C09"/>
</radialGradient>
<circle class="st3" cx="215.3" cy="159.6" r="6.5"/>
<radialGradient id="SVGID_4_" cx="213.2148" cy="-247.6777" r="3.5749" gradientTransform="matrix(1 0 0 1 0 429)" gradientUnits="userSpaceOnUse">
	<stop  offset="0" style="stop-color:#FCFCFC"/>
	<stop  offset="4.320000e-02" style="stop-color:#F8E9D8"/>
	<stop  offset="9.940000e-02" style="stop-color:#F4D3B0"/>
	<stop  offset="0.1613" style="stop-color:#EFBF8A"/>
	<stop  offset="0.2275" style="stop-color:#EBAD69"/>
	<stop  offset="0.2991" style="stop-color:#E79D4E"/>
	<stop  offset="0.3781" style="stop-color:#E49138"/>
	<stop  offset="0.4673" style="stop-color:#E28727"/>
	<stop  offset="0.5729" style="stop-color:#E08119"/>
	<stop  offset="0.7105" style="stop-color:#DF7D0E"/>
	<stop  offset="1" style="stop-color:#DF7C09"/>
</radialGradient>
<circle class="st4" cx="215.3" cy="183.7" r="6.5"/>
<polygon class="st0" points="216.3,56.2 226.2,50.3 215.3,50.3 204.3,50.3 214,56.1 214.1,56.8 205.4,56.8 205.4,60 215.3,60 
	225.1,60 225.1,56.8 216.3,56.8 "/>
<rect x="213.8" y="23.7" class="st0" width="2.9" height="14.7"/>
<rect x="211.7" y="111.2" class="st0" width="7.2" height="3.5"/>
<path class="st0" d="M387.3,100.8h-2.8c-16.2,0-29.4,13.2-29.4,29.4v6.3c0,16.2,13.2,29.4,29.4,29.4h2.8c16.2,0,29.4-13.2,29.4-29.4
	v-6.3C416.8,114,403.5,100.8,387.3,100.8z M400.1,138.3c0,8.6-6.3,15.6-14.1,15.6s-14.1-7-14.1-15.6v-8.7c0-8.6,6.3-15.6,14.1-15.6
	s14.1,7,14.1,15.6V138.3z"/>
<path class="st0" d="M331.6,102c-8,0-15,4.9-18.3,12v-9.1H299v60.2h14.3V125c2.4-5.7,6.4-9.5,11.1-9.5c5.2,0,9.7,4.6,11.8,11.3h15.6
	c0.1-1.1,0.2-2.1,0.2-3.2C352.1,111.7,342.9,102,331.6,102z"/>
<path class="st0" d="M465.8,131.3l-0.1-0.1c-1.1-0.8-2.6-1.5-4.2-2.1c-2.1-0.8-4.3-1.3-6.7-1.6c-1.9-0.3-3.7-0.5-5.4-0.6h-4
	c-0.8,0-1.6-0.1-2.4-0.3h-0.1l0,0c-3.9-0.8-6.7-3.4-6.7-6.6c0-3.8,4.1-6.9,9.1-6.9h5.5c5,0,9.1,3.1,9.1,6.9c0,1-0.3,1.9-0.8,2.8
	h14.4c0-0.5,0.1-0.9,0.1-1.4c0-10.6-10.2-19.3-22.6-19.3h-6.4c-12.4,0-22.6,8.7-22.6,19.3c0,9.4,8.1,17.4,18.6,19
	c1.3,0.2,2.5,0.3,3.4,0.4c0.1,0,0.3,0,0.4,0h0.2h5.7c5.6,0,10.3,3.5,10.3,7.7s-4.6,7.7-10.3,7.7h-6c-5.6,0-10.3-3.5-10.3-7.7
	c0-0.6,0.1-1.2,0.3-1.8h-13.8c0,10.6,10.4,19.3,23.2,19.3h8c12.8,0,23.2-8.7,23.2-19.3C475,140.4,471.4,134.8,465.8,131.3z"/>
<path class="st0" d="M117.9,111.2C117.9,111.2,117.9,111.1,117.9,111.2c-0.4-0.4-0.9-0.7-1.5-0.9c-0.7-0.3-1.5-0.6-2.3-0.7
	c-0.6-0.1-1.3-0.2-1.9-0.3h-1.4c-0.3,0-0.5,0-0.8-0.1l0,0l0,0c-1.3-0.3-2.3-1.4-2.3-2.7c0-1.6,1.4-2.8,3.1-2.8h1.9
	c1.7,0,3.1,1.3,3.1,2.8c0,0.4-0.1,0.8-0.3,1.1h4.9c0-0.2,0-0.4,0-0.6c0-4.4-3.5-8-7.8-8h-2.2c-4.3,0-7.8,3.6-7.8,8
	c0,3.9,2.8,7.2,6.4,7.8c0.5,0.1,0.8,0.1,1.2,0.1h0.1h0.1h2c1.9,0,3.5,1.4,3.5,3.2c0,1.8-1.6,3.2-3.5,3.2h-2.1
	c-1.9,0-3.5-1.4-3.5-3.2c0-0.3,0-0.5,0.1-0.7h-4.7c0,4.4,3.6,8,8,8h2.7c4.4,0,8-3.6,8-8C121,114.9,119.8,112.6,117.9,111.2z"/>
<path class="st0" d="M55.2,153.8c-4.4,0-8.3-2.2-11-5.7l30.3-20.8v-0.2l9.8-6.7c-3.7-12.3-15.1-21.3-28.6-21.3h-0.8
	C38.4,99.1,25,112.5,25,129v6.4c0,16.4,13.4,29.8,29.8,29.8h0.8c10.1,0,19.1-5.1,24.5-12.9L68.5,144
	C66.3,149.8,61.1,153.8,55.2,153.8z M40.6,129.1c0-9,6.6-16.3,14.6-16.3c5.9,0,10.9,3.9,13.2,9.5L41,141.1c-0.2-1.2-0.4-2.4-0.4-3.6
	V129.1z"/>
<path class="st0" d="M100.3,106v-4h-4.4v-7.8l-5.3,7.8h-5.2v4h5.2v13.6c0,0,0.5,5.8,5.2,5.8s4.4-1.8,4.4-1.8V119
	c0,0-3.7,3.8-4.4,0.2V106H100.3"/>
<path class="st0" d="M241.3,133.7c-2.3,0-4.2-1.9-4.2-4.2c0-2.3,1.9-4.2,4.2-4.2s4.2,1.9,4.2,4.2
	C245.5,131.8,243.6,133.7,241.3,133.7z M241.3,126.7c-1.5,0-2.8,1.2-2.8,2.8c0,1.5,1.2,2.8,2.8,2.8c1.5,0,2.8-1.2,2.8-2.8
	C244,127.9,242.8,126.7,241.3,126.7z"/>
<path class="st0" d="M241.3,157.3c-2.3,0-4.2-1.9-4.2-4.2s1.9-4.2,4.2-4.2s4.2,1.9,4.2,4.2S243.6,157.3,241.3,157.3z M241.3,150.3
	c-1.5,0-2.8,1.2-2.8,2.8c0,1.5,1.2,2.8,2.8,2.8c1.5,0,2.8-1.2,2.8-2.8C244,151.5,242.8,150.3,241.3,150.3z"/>
<path class="st0" d="M216.1,85.2v-2.8h-9.8h-8.9H197V60h-18.2v89.5c0,6.7-5.5,12.3-12.3,12.3h-0.8c-6.7,0-12.3-5.5-12.3-12.3v-15.9
	h-18.2v1.8c0,17.5,13.9,31.9,30.9,31.9S197,153,197,135.4v-22.8h0.4h8.9h9.8v-2.8h-9.8V85.1h9.8V85.2z M188.5,103.6
	c-3.2,0-5.8-2.6-5.8-5.8s2.6-5.8,5.8-5.8s5.8,2.6,5.8,5.8C194.4,100.9,191.8,103.6,188.5,103.6z M188.5,80c-3.2,0-5.8-2.6-5.8-5.8
	s2.6-5.8,5.8-5.8s5.8,2.6,5.8,5.8C194.4,77.3,191.8,80,188.5,80z"/>
<path class="st0" d="M188.5,78.4c-2.3,0-4.2-1.9-4.2-4.2s1.9-4.2,4.2-4.2s4.2,1.9,4.2,4.2C192.8,76.5,190.9,78.4,188.5,78.4z
	 M188.5,71.4c-1.5,0-2.8,1.2-2.8,2.8s1.2,2.8,2.8,2.8c1.5,0,2.8-1.2,2.8-2.8C191.3,72.6,190.1,71.4,188.5,71.4z"/>
<path class="st0" d="M188.5,102c-2.3,0-4.2-1.9-4.2-4.2s1.9-4.2,4.2-4.2s4.2,1.9,4.2,4.2C192.8,100.1,190.9,102,188.5,102z
	 M188.5,95c-1.5,0-2.8,1.2-2.8,2.8c0,1.5,1.2,2.8,2.8,2.8c1.5,0,2.8-1.2,2.8-2.8S190.1,95,188.5,95z"/>
<path class="st0" d="M241.3,77.6c-2.3,0-4.2-1.9-4.2-4.2s1.9-4.2,4.2-4.2s4.2,1.9,4.2,4.2C245.5,75.7,243.6,77.6,241.3,77.6z
	 M241.3,70.6c-1.5,0-2.8,1.2-2.8,2.8c0,1.5,1.2,2.8,2.8,2.8c1.5,0,2.8-1.2,2.8-2.8C244,71.8,242.8,70.6,241.3,70.6z"/>
<path class="st0" d="M273.4,107.8c8.1-2.2,14.1-12,14.1-23.7c0-13.3-7.9-24.1-17.6-24.1H230v57.3h-6.9H219v2.8h4.1v20.5H219v2.8h4.1
	h6.9v21.8h39.9v-0.5c12.3-2.4,21.6-14.4,21.6-28.9C291.5,122.7,283.9,111.6,273.4,107.8z M249.7,65.5h17.8l0,0
	c3.5,0.5,6.3,9.1,6.3,19.6s-2.8,19.2-6.3,19.6l0,0h-17.8V65.5z M241.3,67.6c3.1,0,5.7,2.6,5.7,5.7s-2.5,5.7-5.7,5.7
	c-3.1,0-5.7-2.6-5.7-5.7S238.1,67.6,241.3,67.6z M241.3,158.9c-3.2,0-5.8-2.6-5.8-5.8s2.6-5.8,5.8-5.8s5.8,2.6,5.8,5.8
	S244.5,158.9,241.3,158.9z M241.3,135.3c-3.2,0-5.8-2.6-5.8-5.8c0-3.2,2.6-5.8,5.8-5.8s5.8,2.6,5.8,5.8
	C247.1,132.7,244.5,135.3,241.3,135.3z M268.9,159.5L268.9,159.5l-19.3,0.1v-51.1h19.3v0.1c3.8,0.6,6.8,11.8,6.8,25.5
	C275.7,147.8,272.7,158.9,268.9,159.5z"/>
<linearGradient id="SVGID_5_" gradientUnits="userSpaceOnUse" x1="209.742" y1="-336.95" x2="220.777" y2="-336.95" gradientTransform="matrix(1 0 0 1 0 429)">
	<stop  offset="0" style="stop-color:#DF7C09"/>
	<stop  offset="7.300000e-02" style="stop-color:#DF7D0F"/>
	<stop  offset="0.1272" style="stop-color:#E1831C"/>
	<stop  offset="0.1754" style="stop-color:#E48C2C"/>
	<stop  offset="0.22" style="stop-color:#E89841"/>
	<stop  offset="0.2622" style="stop-color:#EDA85C"/>
	<stop  offset="0.302" style="stop-color:#F3BC7D"/>
	<stop  offset="0.3319" style="stop-color:#F8CE9C"/>
	<stop  offset="0.3615" style="stop-color:#F3BD7F"/>
	<stop  offset="0.4" style="stop-color:#EEAC62"/>
	<stop  offset="0.4438" style="stop-color:#E99D49"/>
	<stop  offset="0.4932" style="stop-color:#E59135"/>
	<stop  offset="0.5509" style="stop-color:#E28725"/>
	<stop  offset="0.6222" style="stop-color:#E08117"/>
	<stop  offset="0.7222" style="stop-color:#DF7D0D"/>
	<stop  offset="1" style="stop-color:#DF7C09"/>
</linearGradient>
<path class="st5" d="M209.7,109.5c0,1.3,1.1,2.5,2.5,2.5h6.1c1.3,0,2.5-1.1,2.5-2.5V74.6c0-1.3-1.1-2.5-2.5-2.5h-6.1
	c-1.3,0-2.5,1.1-2.5,2.5V109.5z"/>
<linearGradient id="SVGID_6_" gradientUnits="userSpaceOnUse" x1="209.742" y1="-295.05" x2="220.777" y2="-295.05" gradientTransform="matrix(1 0 0 1 0 429)">
	<stop  offset="0" style="stop-color:#DF7C09"/>
	<stop  offset="7.300000e-02" style="stop-color:#DF7D0F"/>
	<stop  offset="0.1272" style="stop-color:#E1831C"/>
	<stop  offset="0.1754" style="stop-color:#E48C2C"/>
	<stop  offset="0.22" style="stop-color:#E89841"/>
	<stop  offset="0.2622" style="stop-color:#EDA85C"/>
	<stop  offset="0.302" style="stop-color:#F3BC7D"/>
	<stop  offset="0.3319" style="stop-color:#F8CE9C"/>
	<stop  offset="0.3615" style="stop-color:#F3BD7F"/>
	<stop  offset="0.4" style="stop-color:#EEAC62"/>
	<stop  offset="0.4438" style="stop-color:#E99D49"/>
	<stop  offset="0.4932" style="stop-color:#E59135"/>
	<stop  offset="0.5509" style="stop-color:#E28725"/>
	<stop  offset="0.6222" style="stop-color:#E08117"/>
	<stop  offset="0.7222" style="stop-color:#DF7D0D"/>
	<stop  offset="1" style="stop-color:#DF7C09"/>
</linearGradient>
<path class="st6" d="M209.7,151.4c0,1.3,1.1,2.5,2.5,2.5h6.1c1.3,0,2.5-1.1,2.5-2.5v-34.9c0-1.3-1.1-2.5-2.5-2.5h-6.1
	c-1.3,0-2.5,1.1-2.5,2.5V151.4z"/>
<rect x="29.9" y="177.2" class="st0" width="167.4" height="10.5"/>
<rect x="237" y="177.2" class="st0" width="234.3" height="10.5"/>
</svg>
