<?xml version="1.0" encoding="utf-8"?>
<!-- Generator: Adobe Illustrator 21.0.2, SVG Export Plug-In . SVG Version: 6.00 Build 0)  -->
<svg version="1.1" id="Calque_1" xmlns="http://www.w3.org/2000/svg" xmlns:xlink="http://www.w3.org/1999/xlink" x="0px" y="0px"
	 viewBox="0 0 500 278" style="enable-background:new 0 0 500 278;" xml:space="preserve">
<style type="text/css">
	.st0{fill:url(#SVGID_1_);}
	.st1{fill:#C43625;}
	.st2{fill:#820E12;}
	.st3{fill:#BF0418;}
	.st4{fill:url(#SVGID_2_);}
	.st5{fill:#690D0E;}
	.st6{fill:#570C0B;}
	.st7{fill:url(#SVGID_3_);}
	.st8{fill:url(#SVGID_4_);}
</style>
<linearGradient id="SVGID_1_" gradientUnits="userSpaceOnUse" x1="124.3875" y1="11.6094" x2="375.5906" y2="262.8125" gradientTransform="matrix(1 0 0 -1 0 277)">
	<stop  offset="8.700000e-03" style="stop-color:#F29400"/>
	<stop  offset="6.350000e-02" style="stop-color:#F49C00"/>
	<stop  offset="0.154" style="stop-color:#F8AF00"/>
	<stop  offset="0.2682" style="stop-color:#FECB00"/>
	<stop  offset="0.33" style="stop-color:#FFDB00"/>
	<stop  offset="0.3892" style="stop-color:#FFE775"/>
	<stop  offset="0.4659" style="stop-color:#FFF8DC"/>
	<stop  offset="0.5" style="stop-color:#FEFEFE"/>
	<stop  offset="0.5016" style="stop-color:#FEFEFD"/>
	<stop  offset="0.559" style="stop-color:#FFF1B8"/>
	<stop  offset="0.6094" style="stop-color:#FFE776"/>
	<stop  offset="0.6511" style="stop-color:#FFE038"/>
	<stop  offset="0.6825" style="stop-color:#FFDC00"/>
	<stop  offset="0.7" style="stop-color:#FFDA00"/>
	<stop  offset="0.7494" style="stop-color:#FCC800"/>
	<stop  offset="0.8167" style="stop-color:#F7B200"/>
	<stop  offset="0.8822" style="stop-color:#F3A100"/>
	<stop  offset="0.9445" style="stop-color:#F19700"/>
	<stop  offset="1" style="stop-color:#F09300"/>
</linearGradient>
<path class="st0" d="M25,139.8C25,78.1,125.7,28.2,250,28.2s225,50,225,111.6S374.3,251.4,250,251.4S25,201.4,25,139.8z"/>
<path class="st1" d="M250,263.9c-62,0-120.5-12.1-164.7-34c-47-23.3-72.8-55.3-72.8-90.1C12.5,70.2,116.8,15.7,250,15.7
	c62,0,120.5,12.1,164.7,34c47,23.3,72.8,55.3,72.8,90.1s-25.9,66.8-72.8,90.1C370.5,251.8,312,263.9,250,263.9z M250,40.7
	c-58.2,0-112.8,11.1-153.6,31.4c-37.5,18.6-58.9,43.3-58.9,67.7s21.5,49.1,58.9,67.7c40.8,20.2,95.3,31.4,153.6,31.4
	c58.2,0,112.8-11.2,153.6-31.4c37.5-18.6,58.9-43.3,58.9-67.7S441,90.7,403.6,72.1C362.7,51.9,308.2,40.7,250,40.7z"/>
<path class="st2" d="M201.6,96.7c0,0,58.8,2.3,77.1-47.8h8.4l2.8,3.4l-16.5,41.9h63.4l2.8,3.4l-7.4,8h-63l-29,84.4
	c0,0-5.3,12.2,5.7,12.2c11,0,23.4-7.8,23.4-7.8l2.8,3.4l-10.6,10.3c0,0-18.3,5.9-29.5,5.9s-21.5-8.6-11.6-34.6l25.5-74h-46.8
	L201.6,96.7z"/>
<path class="st2" d="M201.4,146.6c0,0,19.2-3.4,19.2-19.2s-14.9-16.9-14.9-16.9h-125v4l4.1,4.2l14,10.2v37.3l-20.9,13.1v4.4l4.2,4.2
	c0,0,106.5-4.2,113.9-4.2c8,0,23.3-3.6,23.3-19.2S201.4,146.6,201.4,146.6z M173.6,171.8h-47.2v-17.3c0.4,0,46.9,0,46.9,0
	s6.8,1,6.8,9.2S173.6,171.8,173.6,171.8z M174.5,141.7h-46.9v-18.8c0.4,0,46.6,0,46.6,0s6.8,1.1,6.8,10S174.5,141.7,174.5,141.7z"/>
<path class="st3" d="M202.7,150.8c0,0,18.8-3.4,18.8-19.2S207,114.7,207,114.7H85v4l17.7,12.9v38.8l-20.4,13.1v4.4
	c0,0,107.5,0,115.3,0s22.8-3.6,22.8-19.2S202.7,150.8,202.7,150.8z M175.6,176h-46.1v-17.3c0.4,0,49,0,49,0s6.6,1,6.6,9.2
	S175.6,176,175.6,176z M176.4,145.9h-45.8v-18.8c0.4,0,48.8,0,48.8,0s6.6,1.1,6.6,10C186,146,176.4,145.9,176.4,145.9z"/>
<linearGradient id="SVGID_2_" gradientUnits="userSpaceOnUse" x1="151.9" y1="89.08" x2="151.9" y2="162.28" gradientTransform="matrix(1 0 0 -1 0 277)">
	<stop  offset="6.090000e-02" style="stop-color:#C43525"/>
	<stop  offset="0.1652" style="stop-color:#E78463"/>
	<stop  offset="0.3435" style="stop-color:#AD0917"/>
	<stop  offset="0.5609" style="stop-color:#E26D4C"/>
	<stop  offset="1" style="stop-color:#AD0917"/>
</linearGradient>
<path class="st4" d="M206.8,117.3c0.5,0.1,3.4,0.4,6.2,2.2c3.9,2.5,5.9,6.6,5.9,12.1c0,13.5-16,16.6-16.7,16.7l-15.9,2.9l16.1,2.1
	c0.6,0.1,15.3,2.2,15.3,15.4c0,16.2-18.2,16.6-20.2,16.6H84.7v-0.5l19.3-12.3l1.2-0.7v-1.4v-38.8v-1.3l-1-0.8l-16.7-12.1v-0.2
	L206.8,117.3 M128.1,148.4h2.5h45.8l0,0l0,0c4.2,0,12.1-2.4,12.1-11.3c0-8.8-5.7-12-8.7-12.5h-0.2h-0.2h-48.8h-2.5v2.5v18.8
	L128.1,148.4 M127,178.5h2.5h46l0,0l0,0c4.2,0,12.1-2.2,12.1-10.6c0-8.2-5.8-11.2-8.8-11.7h-0.2h-0.2h-49H127v2.5V176V178.5
	 M206.9,114.8h-122v4l17.7,12.9v38.8l-20.4,13.1v4.4c0,0,107.5,0,115.3,0s22.8-3.6,22.8-19.2s-17.5-17.9-17.5-17.9
	s18.8-3.4,18.8-19.2S206.9,114.8,206.9,114.8L206.9,114.8z M130.6,145.9v-18.8c0.4,0,48.8,0,48.8,0s6.6,1.1,6.6,10
	c0,8.7-9,8.8-9.5,8.8l0,0H130.6L130.6,145.9z M129.5,176v-17.3c0.4,0,49,0,49,0s6.6,1,6.6,9.2c0,8-9,8.1-9.6,8.1l0,0L129.5,176
	L129.5,176z"/>
<path class="st5" d="M80.8,183.7"/>
<polygon class="st6" points="80.7,110.6 84.9,114.8 84.9,118.8 80.7,114.6 "/>
<polygon class="st6" points="78,179.6 82.1,183.8 82.1,187.8 77.9,183.6 "/>
<polygon class="st6" points="98.9,129.1 98.9,166.2 102.6,170.4 102.6,131.6 "/>
<path class="st2" d="M397.8,146.6c0,0,19.2-3.4,19.2-19.2s-14.9-16.9-14.9-16.9h-125v4l4.1,4.2l14,10.2v37.3l-20.9,13.1v4.4l4.2,4.2
	c0,0,106.5-4.2,113.9-4.2c8,0,23.3-3.6,23.3-19.2S397.8,146.6,397.8,146.6z M370,171.8h-47.2v-17.3c0.4,0,46.9,0,46.9,0
	s6.8,1,6.8,9.2S370,171.8,370,171.8z M370.9,141.7H324v-18.8c0.4,0,46.6,0,46.6,0s6.8,1.1,6.8,10S370.9,141.7,370.9,141.7z"/>
<path class="st3" d="M399.1,150.8c0,0,18.8-3.4,18.8-19.2s-14.5-16.9-14.5-16.9h-122v4l17.7,12.9v38.8l-20.4,13.1v4.4
	c0,0,107.5,0,115.3,0s22.8-3.6,22.8-19.2S399.1,150.8,399.1,150.8z M372,176h-46.1v-17.3c0.4,0,49,0,49,0s6.6,1,6.6,9.2
	S372,176,372,176z M372.9,145.9h-45.8v-18.8c0.4,0,48.8,0,48.8,0s6.6,1.1,6.6,10C382.4,146,372.9,145.9,372.9,145.9z"/>
<linearGradient id="SVGID_3_" gradientUnits="userSpaceOnUse" x1="348.3" y1="89.08" x2="348.3" y2="162.28" gradientTransform="matrix(1 0 0 -1 0 277)">
	<stop  offset="6.090000e-02" style="stop-color:#C43525"/>
	<stop  offset="0.1652" style="stop-color:#E78463"/>
	<stop  offset="0.3435" style="stop-color:#AD0917"/>
	<stop  offset="0.5609" style="stop-color:#E26D4C"/>
	<stop  offset="1" style="stop-color:#AD0917"/>
</linearGradient>
<path class="st7" d="M403.2,117.3c0.5,0.1,3.4,0.4,6.2,2.2c3.9,2.5,5.9,6.6,5.9,12.1c0,13.5-16,16.6-16.7,16.7l-15.9,2.9l16.1,2.1
	c0.6,0.1,15.3,2.2,15.3,15.4c0,16.2-18.2,16.6-20.2,16.6H281.1v-0.5l19.3-12.3l1.2-0.7v-1.4v-38.8v-1.3l-1-0.8l-16.7-12.1v-0.2
	L403.2,117.3 M324.5,148.4h2.5h45.8l0,0l0,0c4.2,0,12.1-2.4,12.1-11.3c0-8.8-5.7-12-8.7-12.5H376h-0.2H327h-2.5v2.5v18.8V148.4
	 M323.4,178.5h2.5h46l0,0l0,0c4.2,0,12.1-2.2,12.1-10.6c0-8.2-5.8-11.2-8.8-11.7H375l0,0h-49h-2.5v2.5V176L323.4,178.5 M403.3,114.8
	h-122v4l17.7,12.9v38.8l-20.4,13.1v4.4c0,0,107.5,0,115.3,0s22.8-3.6,22.8-19.2s-17.5-17.9-17.5-17.9s18.8-3.4,18.8-19.2
	S403.3,114.8,403.3,114.8L403.3,114.8z M327.1,145.9v-18.8c0.4,0,48.8,0,48.8,0s6.6,1.1,6.6,10c0,8.7-9,8.8-9.5,8.8l0,0H327.1
	L327.1,145.9z M325.9,176v-17.3c0.4,0,49,0,49,0s6.6,1,6.6,9.2c0,8-9,8.1-9.6,8.1l0,0L325.9,176L325.9,176z"/>
<path class="st5" d="M277.2,183.7"/>
<polygon class="st6" points="277.2,110.6 281.3,114.8 281.3,118.8 277.1,114.6 "/>
<polygon class="st6" points="274.4,179.6 278.5,183.8 278.5,187.8 274.4,183.6 "/>
<polygon class="st6" points="295.3,129.1 295.3,166.2 299,170.4 299,131.6 "/>
<polygon class="st6" points="201.6,96.7 204.4,100 201.9,108.9 199.1,105.5 "/>
<path class="st6" d="M269.2,105.5l-29,84.5l-8.2,24c-11.2,0-21.5-8.6-11.6-34.6l25.5-74"/>
<path class="st6" d="M273.5,94.1"/>
<path class="st3" d="M204.4,100c0,0,58.8,2.3,77.1-47.8h8.4l-13.7,45.3h63.4l-4.6,11.4h-63l-29,84.5c0,0-5.3,12.2,5.7,12.2
	c11,0,23.4-7.8,23.4-7.8l-7.8,13.7c0,0-18.3,5.9-29.5,5.9s-21.5-8.6-11.6-34.6l25.5-74h-46.8L204.4,100z"/>
<linearGradient id="SVGID_4_" gradientUnits="userSpaceOnUse" x1="201.862" y1="142.1" x2="339.662" y2="142.1" gradientTransform="matrix(1 0 0 -1 0 277)">
	<stop  offset="6.090000e-02" style="stop-color:#C43525"/>
	<stop  offset="0.1652" style="stop-color:#E78463"/>
	<stop  offset="0.3435" style="stop-color:#AD0917"/>
	<stop  offset="0.5609" style="stop-color:#E26D4C"/>
	<stop  offset="1" style="stop-color:#AD0917"/>
</linearGradient>
<path class="st8" d="M287.7,53.9l-13,43.1l-0.7,2.2h2.3h60.9l-3.3,8H272h-1.2l-0.4,1.1l-29.1,84.5c-0.4,1-2.9,7.1-0.2,11.2
	c1.4,2.2,3.9,3.3,7.4,3.3c6.9,0,14.3-2.9,19-5.2l-4.6,8c-3.3,1-18.7,5.6-28.4,5.6c-2.9,0-8.2-0.7-11.4-5.2c-3.8-5.5-3.3-14.8,1.4-27
	l0,0l0,0l25.5-74l0.8-2.2h-2.4h-44.5l1.6-5.5c10,0,59.6-2.4,77-47.9L287.7,53.9 M290,52.2h-8.4c-16.8,45.9-67.5,47.9-75.9,47.9
	c-0.8,0-1.2,0-1.2,0L202,109h46.8l-25.5,74c-9.9,25.9,0.4,34.6,11.6,34.6s29.5-5.9,29.5-5.9l7.8-13.7c0,0-12.4,7.8-23.4,7.8
	s-5.7-12.2-5.7-12.2l29.1-84.5h63l4.6-11.4h-63.4L290,52.2L290,52.2z"/>
</svg>
