<?xml version="1.0" encoding="utf-8"?>
<!-- Generator: Adobe Illustrator 19.1.0, SVG Export Plug-In . SVG Version: 6.00 Build 0)  -->
<svg version="1.1" id="Calque_1" xmlns="http://www.w3.org/2000/svg" xmlns:xlink="http://www.w3.org/1999/xlink" x="0px" y="0px"
	 viewBox="0 0 500 500" style="enable-background:new 0 0 500 500;" xml:space="preserve">
<style type="text/css">
	.st0{fill:url(#SVGID_1_);}
	.st1{fill:#C43625;}
	.st2{fill:#820E12;}
	.st3{fill:#BF0418;}
	.st4{fill:url(#SVGID_2_);}
	.st5{fill:#690D0E;}
	.st6{fill:#570C0B;}
	.st7{fill:url(#SVGID_3_);}
	.st8{fill:url(#SVGID_4_);}
</style>
<g>
	<linearGradient id="SVGID_1_" gradientUnits="userSpaceOnUse" x1="124.3875" y1="376.3906" x2="375.5906" y2="125.1875">
		<stop  offset="8.700000e-03" style="stop-color:#F29400"/>
		<stop  offset="6.350000e-02" style="stop-color:#F49C00"/>
		<stop  offset="0.154" style="stop-color:#F8AF00"/>
		<stop  offset="0.2682" style="stop-color:#FECB00"/>
		<stop  offset="0.33" style="stop-color:#FFDB00"/>
		<stop  offset="0.3892" style="stop-color:#FFE775"/>
		<stop  offset="0.4659" style="stop-color:#FFF8DC"/>
		<stop  offset="0.5" style="stop-color:#FEFEFE"/>
		<stop  offset="0.5016" style="stop-color:#FEFEFD"/>
		<stop  offset="0.559" style="stop-color:#FFF1B8"/>
		<stop  offset="0.6094" style="stop-color:#FFE776"/>
		<stop  offset="0.6511" style="stop-color:#FFE038"/>
		<stop  offset="0.6825" style="stop-color:#FFDC00"/>
		<stop  offset="0.7" style="stop-color:#FFDA00"/>
		<stop  offset="0.7494" style="stop-color:#FCC800"/>
		<stop  offset="0.8167" style="stop-color:#F7B200"/>
		<stop  offset="0.8822" style="stop-color:#F3A100"/>
		<stop  offset="0.9445" style="stop-color:#F19700"/>
		<stop  offset="1" style="stop-color:#F09300"/>
	</linearGradient>
	<path class="st0" d="M25,250.8c0-61.7,100.7-111.6,225-111.6s225,50,225,111.6S374.3,362.4,250,362.4
		C125.7,362.4,25,312.4,25,250.8z"/>
	<path class="st1" d="M250,374.9c-62,0-120.5-12.1-164.7-34c-47-23.3-72.8-55.3-72.8-90.1c0-69.6,104.3-124.1,237.5-124.1
		c62,0,120.5,12.1,164.7,34c47,23.3,72.8,55.3,72.8,90.1c0,34.8-25.9,66.8-72.8,90.1C370.5,362.8,312,374.9,250,374.9z M250,151.7
		c-58.2,0-112.8,11.1-153.6,31.4c-37.5,18.6-58.9,43.3-58.9,67.7c0,24.4,21.5,49.1,58.9,67.7c40.8,20.2,95.3,31.4,153.6,31.4
		c58.2,0,112.8-11.2,153.6-31.4c37.5-18.6,58.9-43.3,58.9-67.7c0-24.4-21.5-49.1-58.9-67.7C362.7,162.9,308.2,151.7,250,151.7z"/>
</g>
<path class="st2" d="M201.6,207.7c0,0,58.8,2.3,77.1-47.8h8.4l2.8,3.4l-16.5,41.9h63.4l2.8,3.4l-7.4,8h-63l-29,84.4
	c0,0-5.3,12.2,5.7,12.2s23.4-7.8,23.4-7.8l2.8,3.4l-10.6,10.3c0,0-18.3,5.9-29.5,5.9s-21.5-8.6-11.6-34.6l25.5-74h-46.8L201.6,207.7
	z"/>
<path class="st2" d="M201.4,257.6c0,0,19.2-3.4,19.2-19.2s-14.9-16.9-14.9-16.9h-125v4l4.1,4.2l14,10.2v37.3l-20.9,13.1v4.4l4.2,4.2
	c0,0,106.5-4.2,113.9-4.2c8,0,23.3-3.6,23.3-19.2S201.4,257.6,201.4,257.6z M173.6,282.8h-47.2v-17.3c0.4,0,46.9,0,46.9,0
	s6.8,1,6.8,9.2S173.6,282.8,173.6,282.8z M174.5,252.7h-46.9v-18.8c0.4,0,46.6,0,46.6,0s6.8,1.1,6.8,10S174.5,252.7,174.5,252.7z"/>
<path class="st3" d="M202.7,261.8c0,0,18.8-3.4,18.8-19.2S207,225.7,207,225.7H85v4l17.7,12.9v38.8l-20.4,13.1v4.4
	c0,0,107.5,0,115.3,0s22.8-3.6,22.8-19.2S202.7,261.8,202.7,261.8z M175.6,287h-46.1v-17.3c0.4,0,49,0,49,0s6.6,1,6.6,9.2
	S175.6,287,175.6,287z M176.4,256.9h-45.8v-18.8c0.4,0,48.8,0,48.8,0s6.6,1.1,6.6,10C186,257,176.4,256.9,176.4,256.9z"/>
<linearGradient id="SVGID_2_" gradientUnits="userSpaceOnUse" x1="151.9" y1="298.92" x2="151.9" y2="225.72">
	<stop  offset="6.090000e-02" style="stop-color:#C43525"/>
	<stop  offset="0.1652" style="stop-color:#E78463"/>
	<stop  offset="0.3435" style="stop-color:#AD0917"/>
	<stop  offset="0.5609" style="stop-color:#E26D4C"/>
	<stop  offset="1" style="stop-color:#AD0917"/>
</linearGradient>
<path class="st4" d="M206.8,228.3c0.5,0.1,3.4,0.4,6.2,2.2c3.9,2.5,5.9,6.6,5.9,12.1c0,13.5-16,16.6-16.7,16.7l-15.9,2.9l16.1,2.1
	c0.6,0.1,15.3,2.2,15.3,15.4c0,16.2-18.2,16.6-20.2,16.6H84.7v-0.5l19.3-12.3l1.2-0.7v-1.4v-38.8v-1.3l-1-0.8l-16.7-12.1v-0.2
	L206.8,228.3 M128.1,259.4h2.5h45.8l0,0l0,0c4.2,0,12.1-2.4,12.1-11.3c0-8.8-5.7-12-8.7-12.5h-0.2h-0.2h-48.8h-2.5v2.5v18.8
	L128.1,259.4 M127,289.5h2.5h46l0,0l0,0c4.2,0,12.1-2.2,12.1-10.6c0-8.2-5.8-11.2-8.8-11.7h-0.2h-0.2h-49H127v2.5V287V289.5
	 M206.9,225.8h-122v4l17.7,12.9v38.8l-20.4,13.1v4.4c0,0,107.5,0,115.3,0s22.8-3.6,22.8-19.2s-17.5-17.9-17.5-17.9
	s18.8-3.4,18.8-19.2S206.9,225.8,206.9,225.8L206.9,225.8z M130.6,256.9v-18.8c0.4,0,48.8,0,48.8,0s6.6,1.1,6.6,10
	c0,8.7-9,8.8-9.5,8.8l0,0H130.6L130.6,256.9z M129.5,287v-17.3c0.4,0,49,0,49,0s6.6,1,6.6,9.2c0,8-9,8.1-9.6,8.1l0,0L129.5,287
	L129.5,287z"/>
<path class="st5" d="M80.8,294.7"/>
<polygon class="st6" points="80.7,221.6 84.9,225.8 84.9,229.8 80.7,225.6 "/>
<polygon class="st6" points="78,290.6 82.1,294.8 82.1,298.8 77.9,294.6 "/>
<polygon class="st6" points="98.9,240.1 98.9,277.2 102.6,281.4 102.6,242.6 "/>
<path class="st2" d="M397.8,257.6c0,0,19.2-3.4,19.2-19.2s-14.9-16.9-14.9-16.9h-125v4l4.1,4.2l14,10.2v37.3l-20.9,13.1v4.4l4.2,4.2
	c0,0,106.5-4.2,113.9-4.2c8,0,23.3-3.6,23.3-19.2S397.8,257.6,397.8,257.6z M370,282.8h-47.2v-17.3c0.4,0,46.9,0,46.9,0
	s6.8,1,6.8,9.2S370,282.8,370,282.8z M370.9,252.7H324v-18.8c0.4,0,46.6,0,46.6,0s6.8,1.1,6.8,10S370.9,252.7,370.9,252.7z"/>
<path class="st3" d="M399.1,261.8c0,0,18.8-3.4,18.8-19.2s-14.5-16.9-14.5-16.9h-122v4l17.7,12.9v38.8l-20.4,13.1v4.4
	c0,0,107.5,0,115.3,0s22.8-3.6,22.8-19.2S399.1,261.8,399.1,261.8z M372,287h-46.1v-17.3c0.4,0,49,0,49,0s6.6,1,6.6,9.2
	S372,287,372,287z M372.9,256.9h-45.8v-18.8c0.4,0,48.8,0,48.8,0s6.6,1.1,6.6,10C382.4,257,372.9,256.9,372.9,256.9z"/>
<linearGradient id="SVGID_3_" gradientUnits="userSpaceOnUse" x1="348.3" y1="298.92" x2="348.3" y2="225.72">
	<stop  offset="6.090000e-02" style="stop-color:#C43525"/>
	<stop  offset="0.1652" style="stop-color:#E78463"/>
	<stop  offset="0.3435" style="stop-color:#AD0917"/>
	<stop  offset="0.5609" style="stop-color:#E26D4C"/>
	<stop  offset="1" style="stop-color:#AD0917"/>
</linearGradient>
<path class="st7" d="M403.2,228.3c0.5,0.1,3.4,0.4,6.2,2.2c3.9,2.5,5.9,6.6,5.9,12.1c0,13.5-16,16.6-16.7,16.7l-15.9,2.9l16.1,2.1
	c0.6,0.1,15.3,2.2,15.3,15.4c0,16.2-18.2,16.6-20.2,16.6H281.1v-0.5l19.3-12.3l1.2-0.7v-1.4v-38.8v-1.3l-1-0.8l-16.7-12.1v-0.2
	L403.2,228.3 M324.5,259.4h2.5h45.8l0,0l0,0c4.2,0,12.1-2.4,12.1-11.3c0-8.8-5.7-12-8.7-12.5H376h-0.2H327h-2.5v2.5v18.8
	L324.5,259.4 M323.4,289.5h2.5h46l0,0l0,0c4.2,0,12.1-2.2,12.1-10.6c0-8.2-5.8-11.2-8.8-11.7H375l0,0h-49h-2.5v2.5V287L323.4,289.5
	 M403.3,225.8h-122v4l17.7,12.9v38.8l-20.4,13.1v4.4c0,0,107.5,0,115.3,0s22.8-3.6,22.8-19.2s-17.5-17.9-17.5-17.9
	s18.8-3.4,18.8-19.2S403.3,225.8,403.3,225.8L403.3,225.8z M327.1,256.9v-18.8c0.4,0,48.8,0,48.8,0s6.6,1.1,6.6,10
	c0,8.7-9,8.8-9.5,8.8l0,0H327.1L327.1,256.9z M325.9,287v-17.3c0.4,0,49,0,49,0s6.6,1,6.6,9.2c0,8-9,8.1-9.6,8.1l0,0L325.9,287
	L325.9,287z"/>
<path class="st5" d="M277.2,294.7"/>
<polygon class="st6" points="277.2,221.6 281.3,225.8 281.3,229.8 277.1,225.6 "/>
<polygon class="st6" points="274.4,290.6 278.5,294.8 278.5,298.8 274.4,294.6 "/>
<polygon class="st6" points="295.3,240.1 295.3,277.2 299,281.4 299,242.6 "/>
<polygon class="st6" points="201.6,207.7 204.4,211 201.9,219.9 199.1,216.5 "/>
<path class="st6" d="M269.2,216.5l-29,84.5l-8.2,24c-11.2,0-21.5-8.6-11.6-34.6l25.5-74"/>
<path class="st6" d="M273.5,205.1"/>
<path class="st3" d="M204.4,211c0,0,58.8,2.3,77.1-47.8h8.4l-13.7,45.3h63.4l-4.6,11.4h-63l-29,84.5c0,0-5.3,12.2,5.7,12.2
	c11,0,23.4-7.8,23.4-7.8l-7.8,13.7c0,0-18.3,5.9-29.5,5.9s-21.5-8.6-11.6-34.6l25.5-74h-46.8L204.4,211z"/>
<linearGradient id="SVGID_4_" gradientUnits="userSpaceOnUse" x1="201.862" y1="245.9" x2="339.662" y2="245.9">
	<stop  offset="6.090000e-02" style="stop-color:#C43525"/>
	<stop  offset="0.1652" style="stop-color:#E78463"/>
	<stop  offset="0.3435" style="stop-color:#AD0917"/>
	<stop  offset="0.5609" style="stop-color:#E26D4C"/>
	<stop  offset="1" style="stop-color:#AD0917"/>
</linearGradient>
<path class="st8" d="M287.7,164.9l-13,43.1l-0.7,2.2h2.3h60.9l-3.3,8H272h-1.2l-0.4,1.1l-29.1,84.5c-0.4,1-2.9,7.1-0.2,11.2
	c1.4,2.2,3.9,3.3,7.4,3.3c6.9,0,14.3-2.9,19-5.2l-4.6,8c-3.3,1-18.7,5.6-28.4,5.6c-2.9,0-8.2-0.7-11.4-5.2c-3.8-5.5-3.3-14.8,1.4-27
	l0,0l0,0l25.5-74l0.8-2.2h-2.4h-44.5l1.6-5.5c10,0,59.6-2.4,77-47.9L287.7,164.9 M290,163.2h-8.4c-16.8,45.9-67.5,47.9-75.9,47.9
	c-0.8,0-1.2,0-1.2,0L202,220h46.8l-25.5,74c-9.9,25.9,0.4,34.6,11.6,34.6s29.5-5.9,29.5-5.9l7.8-13.7c0,0-12.4,7.8-23.4,7.8
	s-5.7-12.2-5.7-12.2l29.1-84.5h63l4.6-11.4h-63.4L290,163.2L290,163.2z"/>
</svg>
