<?xml version="1.0" encoding="utf-8"?>
<!-- Generator: Adobe Illustrator 19.1.0, SVG Export Plug-In . SVG Version: 6.00 Build 0)  -->
<svg version="1.1" id="Calque_2" xmlns="http://www.w3.org/2000/svg" xmlns:xlink="http://www.w3.org/1999/xlink" x="0px" y="0px"
	 viewBox="0 0 500 500" style="enable-background:new 0 0 500 500;" xml:space="preserve">
<style type="text/css">
	.st0{fill:#E2001A;}
	.st1{fill:#FFFFFF;}
</style>
<g>
	<path class="st0" d="M150.6,349.1h194.1c26.1,0,47.4-21.3,47.4-47.4V107.6V60.2h-47.4H150.6c-26.1,0-47.4,21.3-47.4,47.4v194.1
		v47.4H150.6z"/>
	<polygon points="280,262 291.3,250.6 291.3,219.4 283,211 291.3,202.7 291.3,171.5 280,160.1 208.2,160.1 208.2,262 280,262 	"/>
	<polygon class="st1" points="274.6,185.9 266.2,177.5 224.9,177.5 224.9,203.3 266.2,203.3 274.6,194.9 	"/>
	<polygon class="st1" points="274.6,227.8 266.2,219.4 224.9,219.4 224.9,245.2 266.2,245.2 274.6,236.8 	"/>
	<path d="M25,438.4v-51.2h24.5c5.2,0,9.3,1.2,12.3,3.7c2.9,2.5,4.4,5.9,4.4,10.3c0,2.8-0.7,5.1-2.1,7c-1.4,1.9-3.4,3.1-5.9,3.6
		c3.5,0.7,6.1,2.1,7.8,4.1s2.6,4.7,2.6,8.1c0,4.8-1.6,8.4-4.8,10.8c-3.2,2.4-8,3.7-14.3,3.7L25,438.4L25,438.4z M42.3,399.4v7.2h2.4
		c1.5,0,2.6-0.3,3.4-0.9c0.8-0.6,1.2-1.5,1.2-2.7c0-1.2-0.4-2.1-1.2-2.7c-0.8-0.6-1.9-0.9-3.4-0.9H42.3z M42.3,417.6v8.2h3.1
		c1.8,0,3.3-0.3,4.3-1.1c1-0.7,1.5-1.7,1.5-3c0-1.3-0.5-2.3-1.5-3c-1-0.7-2.4-1.1-4.3-1.1L42.3,417.6L42.3,417.6z"/>
	<path d="M85.8,415v-27.8h18.4v27.9c0,3.2,0.4,5.5,1.2,6.7c0.8,1.2,2.1,1.8,4,1.8c1.8,0,3.2-0.6,4-1.9c0.8-1.3,1.2-3.5,1.2-6.7
		v-27.9h18.4V415c0,3.6-0.2,6.6-0.7,9c-0.5,2.4-1.2,4.3-2.3,5.9c-2.1,3.2-4.8,5.6-8.4,7.3c-3.5,1.7-7.6,2.6-12.1,2.6
		c-4.6,0-8.6-0.9-12.2-2.6c-3.5-1.7-6.3-4.1-8.4-7.3c-1-1.6-1.8-3.5-2.2-5.8C86,421.7,85.8,418.7,85.8,415z"/>
	<path d="M153.5,438.4v-51.2h23.2c6.7,0,11.9,1.5,15.4,4.4c3.5,3,5.3,7.2,5.3,12.8c0,3.6-0.9,6.6-2.7,9c-1.8,2.4-4.2,3.7-7.2,4.1
		l13.7,20.9h-20.6l-9-16.9v16.9L153.5,438.4L153.5,438.4z M171.6,400.4v10h2.9c1.7,0,3.1-0.4,4-1.3c0.9-0.8,1.4-2.1,1.4-3.7
		c0-1.6-0.5-2.9-1.4-3.8c-0.9-0.9-2.3-1.3-4-1.3L171.6,400.4L171.6,400.4z"/>
	<path d="M251,420.1h-8v-12h28.3c0,1.1,0.1,1.8,0.1,2.3c0,0.5,0,1,0,1.4c0,2.9-0.3,5.6-0.8,8c-0.6,2.4-1.4,4.6-2.5,6.4
		c-2.6,4.4-6,7.7-10.1,10.1s-8.8,3.5-14.1,3.5c-3.9,0-7.5-0.7-10.8-1.9c-3.3-1.3-6.3-3.2-8.8-5.7c-2.5-2.5-4.5-5.4-5.8-8.6
		c-1.3-3.2-2-6.8-2-10.6c0-3.8,0.7-7.4,2-10.6c1.3-3.2,3.2-6.1,5.8-8.6c2.5-2.5,5.5-4.4,8.8-5.7c3.3-1.3,6.9-2,10.8-2
		c5.2,0,9.9,1.1,14,3.4s7.4,5.7,10,10.1l-16.4,6.1c-0.9-1.4-1.9-2.5-3.1-3.2c-1.2-0.7-2.6-1-4.2-1c-2.7,0-4.9,1-6.5,3.1
		c-1.6,2.1-2.4,4.9-2.4,8.4c0,3.6,0.8,6.4,2.4,8.4c1.6,2,3.9,3,6.9,3c1.8,0,3.2-0.4,4.3-1.1C250.1,422.5,250.8,421.4,251,420.1z"/>
	<path d="M286.3,438.4l18.3-51.2h20.5l17.9,51.2h-19.8l-1.6-6.4h-13.9l-1.6,6.4H286.3z M310.8,419.8h7.7l-1.6-5.8
		c-0.8-2.9-1.3-5.2-1.6-6.8c-0.3-1.6-0.5-3.1-0.5-4.5h-0.3c-0.1,1.4-0.2,2.9-0.5,4.5c-0.3,1.6-0.8,3.9-1.6,6.8L310.8,419.8z"/>
	<path d="M358.3,415v-27.8h18.4v27.9c0,3.2,0.4,5.5,1.2,6.7c0.8,1.2,2.1,1.8,4,1.8c1.8,0,3.2-0.6,4-1.9c0.8-1.3,1.2-3.5,1.2-6.7
		v-27.9h18.4V415c0,3.6-0.2,6.6-0.7,9c-0.5,2.4-1.2,4.3-2.3,5.9c-2.1,3.2-4.9,5.6-8.4,7.3c-3.5,1.7-7.6,2.6-12.1,2.6
		c-4.6,0-8.6-0.9-12.2-2.6c-3.5-1.7-6.3-4.1-8.4-7.3c-1-1.6-1.8-3.5-2.2-5.8C358.5,421.7,358.3,418.7,358.3,415z"/>
	<path d="M426.1,438.4v-51.2H441c4.7,0,8.8,0.3,12.1,0.8c3.3,0.5,6.1,1.3,8.2,2.4c4.4,2.3,7.8,5.4,10.2,9.3
		c2.4,3.9,3.5,8.2,3.5,13.2c0,4.9-1.2,9.3-3.5,13.1c-2.4,3.8-5.8,6.9-10.2,9.3c-2.2,1.1-4.9,1.9-8.3,2.5c-3.3,0.5-7.8,0.8-13.4,0.8
		L426.1,438.4L426.1,438.4z M444.3,422.8c4.2,0,7.2-0.8,9.1-2.4c1.9-1.6,2.9-4.1,2.9-7.5c0-3.3-0.9-5.8-2.7-7.4
		c-1.8-1.6-4.6-2.4-8.4-2.4h-0.8V422.8z"/>
</g>
</svg>
