<?xml version="1.0" encoding="utf-8"?>
<!-- Generator: Adobe Illustrator 21.0.2, SVG Export Plug-In . SVG Version: 6.00 Build 0)  -->
<svg version="1.1" id="Calque_2" xmlns="http://www.w3.org/2000/svg" xmlns:xlink="http://www.w3.org/1999/xlink" x="0px" y="0px"
	 viewBox="0 0 500 142" style="enable-background:new 0 0 500 142;" xml:space="preserve">
<style type="text/css">
	.st0{fill:#E2001A;}
</style>
<path class="st0" d="M202.5,51.3h-37.6c-9,0-16.5,7-17.3,15.8h19.8v-1.4c0-3.5,2.9-6.4,6.4-6.4h19.9c3.5,0,6.4,2.9,6.4,6.4V77
	c-3.5-2.5-8.1-4-13-4h-22.6c-11,0-20,7.3-20,16.3s9,16.3,20,16.3H187c5,0,9.5-1.5,13-4v3.4h19.9V68.6
	C219.9,59.2,212,51.3,202.5,51.3z M189.7,98.1h-14.4c-6.2,0-11.2-3.9-11.2-8.7s5.1-8.7,11.2-8.7h14.4c4.6,0,8.6,2.2,10.3,5.2v6.9
	C198.3,95.9,194.3,98.1,189.7,98.1z"/>
<path class="st0" d="M369.3,51.3h-37.6c-9,0-16.5,7-17.3,15.8h19.8v-1.4c0-3.5,2.9-6.4,6.4-6.4h19.9c3.5,0,6.4,2.9,6.4,6.4V77
	c-3.5-2.5-8.1-4-13-4h-22.6c-11,0-20,7.3-20,16.3s9,16.3,20,16.3h22.6c5,0,9.5-1.5,13-4v3.4h19.9V68.6
	C386.7,59.2,378.8,51.3,369.3,51.3z M356.5,98.1h-14.4c-6.2,0-11.2-3.9-11.2-8.7s5.1-8.7,11.2-8.7h14.4c4.6,0,8.5,2.2,10.3,5.2v6.9
	C365.1,95.9,361.1,98.1,356.5,98.1z"/>
<path class="st0" d="M285.1,29.2V59c-3.6-4.8-9.3-7.9-15.7-7.9h-21.2c-10.8,0-19.7,8.9-19.7,19.7V86c0,10.8,8.9,19.7,19.7,19.7h21.2
	c6.4,0,12.1-3.1,15.7-7.9v7.4h18.3V29.3h-18.3V29.2z M272.2,96.8h-13.1c-7.1,0-12.9-5.8-12.9-13V73c0-7.1,5.8-12.9,12.9-12.9h13.1
	c7.1,0,13,5.8,13,12.9v10.8C285.1,90.9,279.3,96.8,272.2,96.8z"/>
<path class="st0" d="M416.7,127.7V97.9c3.7,4.8,9.5,7.9,16,7.9h21.5c11,0,20-8.9,20-19.7V70.9c0-10.8-9-19.7-20-19.7h-21.5
	c-6.5,0-12.3,3.1-16,7.9v-7.4H398v75.9h18.7V127.7z M429.8,60.2h13.3c7.2,0,13.2,5.8,13.2,12.9v10.8c0,7.1-5.9,12.9-13.2,12.9h-13.3
	c-7.2,0-13.2-5.8-13.2-12.9V73.1C416.7,66,422.6,60.2,429.8,60.2z"/>
<path class="st0" d="M115.9,80.8v0.8c0,3.5-2.9,6.4-6.4,6.4H52.7c-3.5,0-6.4-2.9-6.4-6.4V44.2c0-3.5,2.9-6.4,6.4-6.4h56.7
	c3.5,0,6.4,2.9,6.4,6.4v1.5H138v-7.9c0-10.6-8.7-19.3-19.3-19.3H43.5c-10.6,0-19.3,8.7-19.3,19.3V88c0,10.6,8.7,19.3,19.3,19.3h75.2
	c10.6,0,19.3-8.7,19.3-19.3v-7.2H115.9L115.9,80.8z"/>
</svg>
