<?xml version="1.0" encoding="utf-8"?>
<!-- Generator: Adobe Illustrator 21.0.2, SVG Export Plug-In . SVG Version: 6.00 Build 0)  -->
<svg version="1.1" id="Calque_1" xmlns="http://www.w3.org/2000/svg" xmlns:xlink="http://www.w3.org/1999/xlink" x="0px" y="0px"
	 viewBox="0 0 500 232" style="enable-background:new 0 0 500 232;" xml:space="preserve">
<style type="text/css">
	.st0{fill:#010101;}
	.st1{fill:#E32122;}
	.st2{fill:#B7B6B7;}
	.st3{fill:url(#SVGID_1_);}
</style>
<path class="st0" d="M120.5,130.6v4.3c-5.5,3.9-12.3,6.2-19.5,6.2c-16.3,0-30.5-11.5-30.5-25.3c0-14.1,14-25.5,30.6-25.5
	c7.1,0,14.2,2.4,19.4,6.4v4.3v2.3c-4.1-4.3-12.3-7.5-18.9-7.5c-13.3,0-24.2,9.8-24.2,21c0,5.3,2.7,10.3,7.1,14.1
	c4.5,3.6,10.8,6.3,17.1,6.3c6.2,0,15-3.8,18.9-7.9V130.6z"/>
<path class="st0" d="M192.3,91.8h11.4c9.2,0,16.4,1.2,23.4,6.2c6.6,4.8,10,11.4,10,18.4c0,6.7-3.3,13.2-9.7,17.9
	c-6.9,5.2-14.4,6.5-23.7,6.5h-11.4V91.8L192.3,91.8z M205.1,135.9c7.2,0,13.1-1.2,18.3-5.4c4.6-3.8,7.2-8.9,7.2-14.2
	c0-5.7-2.8-11-7.9-14.8c-5.2-3.8-10.9-4.8-17.7-4.8h-6.3v39.2L205.1,135.9L205.1,135.9z"/>
<path class="st0" d="M281,140.6h-9.1l-19.1-23.2h1.1v23.2h-6.7V91.7H263c11.7,0,15,8.8,15,13c0,8.5-6,13.8-15.7,13.7L281,140.6z
	 M258,114.5c3.4,0,6.7-0.1,9.4-2c2.6-1.7,3.8-4.2,3.8-6.8c0-3.2-1.9-6.4-5.7-7.8c-2.9-1.1-6.5-1-9.7-1h-2.2v17.6L258,114.5
	L258,114.5z"/>
<path class="st0" d="M362.3,135.8h16.5v4.7h-22.7V91h6.3L362.3,135.8L362.3,135.8z"/>
<path class="st0" d="M392.1,91.8v28.4c0,4.2,0,8.7,2.8,11.8c2.7,3,8,4.6,12.1,4.6c4.2,0,9.5-1.6,12.1-4.6c2.8-3.1,2.8-7.6,2.8-11.8
	V91.8h6.5v30.9c0,5.1,0,9.4-4.3,13.5c-4.3,3.8-10.8,5.8-17.1,5.8c-6.4,0-12.9-2-17.1-5.8c-4.3-4.1-4.3-8.5-4.3-13.5V91.8H392.1z"/>
<path class="st0" d="M175.7,140.6h7.8l-5.8-10.7L157,89.2l-28.3,51.2h0.2l-0.2,0.4h7.2l7.5-13.9h25.3L175.7,140.6z M156.4,102.9
	l9.1,17.7h-18.7L156.4,102.9z"/>
<polygon class="st1" points="346,140.3 321.8,90.1 313.7,90.1 287.9,140.3 302.1,140.3 317.8,109.6 331.8,140.3 "/>
<polygon class="st2" points="330.8,22.6 18.4,22.6 18.4,22.6 17.9,22.6 17.9,149.9 51.7,149.9 51.7,67.3 330.8,67.3 "/>
<linearGradient id="SVGID_1_" gradientUnits="userSpaceOnUse" x1="169.3" y1="85.13" x2="482.1" y2="85.13" gradientTransform="matrix(1 0 0 -1 0 230.78)">
	<stop  offset="0" style="stop-color:#000000"/>
	<stop  offset="0.4233" style="stop-color:#F1F1F1"/>
	<stop  offset="1" style="stop-color:#121212"/>
</linearGradient>
<polygon class="st3" points="169.3,209.3 481.7,209.3 481.7,209.3 482.1,209.3 482.1,82 448.4,82 448.4,164.5 169.3,164.5 "/>
</svg>
