<?xml version="1.0" encoding="utf-8"?>
<!-- Generator: Adobe Illustrator 15.0.0, SVG Export Plug-In . SVG Version: 6.00 Build 0)  -->
<!DOCTYPE svg PUBLIC "-//W3C//DTD SVG 1.1//EN" "http://www.w3.org/Graphics/SVG/1.1/DTD/svg11.dtd">
<svg version="1.1" id="Calque_1" xmlns="http://www.w3.org/2000/svg" xmlns:xlink="http://www.w3.org/1999/xlink" x="0px" y="0px"
	 width="500px" height="500px" viewBox="0 0 500 500" enable-background="new 0 0 500 500" xml:space="preserve">
<g>
	<g>
		<path fill="#010101" d="M121.883,266.084v4.334c-5.511,3.875-12.266,6.175-19.488,6.175c-16.309,0-30.52-11.493-30.52-25.349
			c0-14.051,13.978-25.478,30.595-25.478c7.066,0,14.212,2.365,19.413,6.436v4.334l-0.028,2.335
			c-4.101-4.291-12.294-7.538-18.87-7.538c-13.286,0-24.241,9.788-24.241,20.959c0,5.315,2.685,10.331,7.14,14.076
			c4.453,3.623,10.814,6.28,17.102,6.28c6.15,0,14.958-3.818,18.914-7.929L121.883,266.084z"/>
		<path fill="#010101" d="M193.726,227.34h11.351c9.181,0,16.446,1.165,23.373,6.158c6.594,4.802,10.016,11.351,10.016,18.356
			c0,6.743-3.337,13.167-9.682,17.898c-6.93,5.187-14.359,6.486-23.708,6.486h-11.351V227.34z M206.478,271.409
			c7.172,0,13.115-1.182,18.335-5.378c4.639-3.782,7.247-8.864,7.247-14.182c0-5.675-2.756-10.995-7.9-14.837
			c-5.217-3.842-10.872-4.846-17.682-4.846h-6.307v39.243H206.478z"/>
		<path fill="#010101" d="M282.401,276.087h-9.129l-19.104-23.152h1.078v23.152h-6.669v-48.899h15.821
			c11.748,0,14.951,8.819,14.951,12.972c0,8.492-6.004,13.845-15.713,13.714L282.401,276.087z M259.412,250.018
			c3.359,0,6.721-0.119,9.435-2.012c2.574-1.664,3.791-4.247,3.791-6.83c0-3.214-1.855-6.428-5.716-7.809
			c-2.861-1.089-6.506-0.975-9.655-0.975h-2.217v17.625H259.412z"/>
		<path fill="#010101" d="M363.711,271.265h16.475v4.67h-22.729v-49.51h6.255V271.265z"/>
		<path fill="#010101" d="M393.542,227.34v28.438c0,4.239,0,8.731,2.801,11.849c2.663,2.993,7.979,4.552,12.148,4.552
			c4.17,0,9.487-1.559,12.149-4.552c2.802-3.117,2.802-7.609,2.802-11.849V227.34h6.454v30.861c0,5.054,0,9.391-4.267,13.527
			c-4.26,3.807-10.783,5.778-17.139,5.778c-6.354,0-12.873-1.972-17.138-5.778c-4.267-4.137-4.267-8.474-4.267-13.527V227.34
			H393.542z"/>
		<path fill="#010101" d="M177.14,276.146h7.78l-5.835-10.675l-20.671-40.689l-28.26,51.152h0.214l-0.214,0.364h7.169l7.519-13.882
			h25.27L177.14,276.146z M157.833,238.428l9.078,17.733h-18.684L157.833,238.428z"/>
	</g>
	<polygon fill="#E32122" points="347.441,275.841 323.236,225.602 315.099,225.602 289.265,275.841 303.505,275.841 
		319.233,245.093 333.199,275.841 	"/>
	<polygon fill="#B7B6B7" points="332.185,158.071 19.757,158.071 19.757,158.071 19.349,158.071 19.349,285.401 53.115,285.401 
		53.115,202.819 332.185,202.819 	"/>
	<linearGradient id="SVGID_1_" gradientUnits="userSpaceOnUse" x1="170.6804" y1="281.1299" x2="483.5168" y2="281.1299">
		<stop  offset="0" style="stop-color:#000000"/>
		<stop  offset="0.4233" style="stop-color:#F1F1F1"/>
		<stop  offset="1" style="stop-color:#121212"/>
	</linearGradient>
	<polygon fill="url(#SVGID_1_)" points="170.68,344.795 483.11,344.795 483.11,344.795 483.517,344.795 483.517,217.464 
		449.75,217.464 449.75,300.047 170.68,300.047 	"/>
</g>
</svg>
