<?xml version="1.0" encoding="utf-8"?>
<!-- Generator: Adobe Illustrator 21.0.2, SVG Export Plug-In . SVG Version: 6.00 Build 0)  -->
<svg version="1.1" id="Calque_1" xmlns="http://www.w3.org/2000/svg" xmlns:xlink="http://www.w3.org/1999/xlink" x="0px" y="0px"
	 viewBox="0 0 346.8 97.8" style="enable-background:new 0 0 346.8 97.8;" xml:space="preserve">
<style type="text/css">
	.st0{fill:#1C5D3D;}
</style>
<path class="st0" d="M287.1,37.6c1-0.1,1.6-0.6,1.7-1.5c0-1-0.7-1.7-1.6-1.5c-0.6,0.1-1.4,0.8-1.5,1.4
	C285.4,37,286.2,37.5,287.1,37.6z"/>
<path class="st0" d="M204.4,47.9c-1.8,1.1-3.8,1.9-5.5,3.1c-1.4,1-1.5,2.7-0.8,4.3c0.7,1.4,2,2.1,3.4,1.8c1.5-0.2,2.9-0.9,4.5-1.5
	c0.7,1.5,1.2,1.8,2.7,1.3c1.3-0.2,2.6-1.6,2.7-2.9c-0.6,0.4-1.2,0.7-2.1,1.2c-0.1-1.2-0.3-2.1-0.3-3c-0.1-2.3,0.1-4.6-0.1-6.9
	c0-0.8-0.5-1.9-1.1-2.4c-1.8-1.6-6.6-1.2-8.3,0.5c-0.5,0.4-0.9,1.1-1.1,1.7c-0.3,1.1,0.5,2,1.6,1.9c1.3-0.1,1.2-1,1.4-2
	c0.1-0.6,0.6-1.6,1.1-1.8c0.6-0.2,1.7-0.2,2.3,0.2c1.2,0.7,1.3,2.1,1.1,3.3C205.8,47.2,205,47.6,204.4,47.9z M206,48.7
	c0,1.5,0.3,3.1-0.1,4.5c-0.2,0.8-1.4,1.7-2.3,2c-0.6,0.2-2-0.3-2.2-0.8c-0.3-0.9-0.5-2.5,0-3.1c1.1-1.2,2.7-2,4.1-3L206,48.7z"/>
<path class="st0" d="M228.4,37v15.5c0.1,2,0.2,4-2.6,4.2h8.8c-2.9-0.9-3.1-0.9-3.1-3.1V37.2c0-0.1,0.1-0.2,0.3-0.6
	c1.4,0.1,3.1-0.1,4.4,0.5c1.3,0.6,2.1,2,3,3c0-1.3-0.1-2.9-0.2-4.5h-17.8v4.8C222.9,36.9,224.7,36.1,228.4,37z"/>
<path class="st0" d="M242.9,46c0.1,2.4,0.1,4.7,0.1,7.1c0,1.6,0.1,3.2-2,3.6h6.7c-1.9-0.5-2.2-1.8-2.2-3.4c0.1-2-0.2-4,0.1-5.9
	c0.1-1,0.9-2.1,1.6-2.9c0.2-0.2,1.3,0.5,2,0.5c0.6,0,1.6-0.1,1.8-0.5c0.2-0.5-0.1-1.8-0.4-1.9c-0.8-0.3-1.9-0.3-2.7,0
	c-0.9,0.4-1.6,1.3-2.4,2c0-0.7-0.1-1.6,0-2.8c-1.8,0.7-3.3,1.3-4.9,1.9C242.6,44,242.8,44,242.9,46z"/>
<path class="st0" d="M285.8,46.1v7.1c0.1,1.5,0.1,3-1.7,3.6h6.2c-1.4-0.5-2-1.4-1.9-2.8V41.8c-1.9,0.8-3.4,1.4-5,2l0.2,0.4
	C285.3,43.9,285.8,44.3,285.8,46.1z"/>
<path class="st0" d="M276.8,55.8c0.1-0.1,0.2-0.1,0.4-0.1c0,0.6,0.1,1.1,0.2,1.9c1.7-0.7,3.2-1.4,4.8-2c-1.9-0.2-2.2-0.4-2.3-2.3
	V35.8c0-0.4-0.1-0.8-0.1-1.5c-1.7,0.7-3.3,1.3-5.2,2.1c2.7,0.3,2.7,0.3,2.7,2.9v3.8c-2.8-1.6-5.4-1.4-7.6,0.6
	c-2.2,2.1-3.1,4.8-2.7,7.8C267.7,56.6,273,59.2,276.8,55.8z M270.8,45.2c0.8-1.6,2.3-2.4,3.7-2.1c1.5,0.3,2.7,1.7,2.8,3.5v3.5
	c0,0.9,0,1.8,0.1,2.7c0,2.2-2,3.6-4,2.7c-0.9-0.4-1.9-1.1-2.4-2C269.4,50.8,269.4,48,270.8,45.2z"/>
<path class="st0" d="M258.9,47.9c-1.5,0.8-3.2,1.5-4.7,2.4c-1.9,1.2-2.4,3.7-1.2,5.4c1.1,1.7,3.5,2,5.4,0.7c0.7-0.4,1.3-0.9,2-1.4
	l-0.1,0.5c0.6,0.6,1.2,1.4,2,1.6c1.2,0.3,2.7-0.9,3.4-2.6c-0.7,0.2-1.3,0.5-2,0.6c-0.2-0.7-0.5-1.5-0.5-2.2c-0.1-2.6,0-5.2-0.2-7.8
	c-0.1-0.8-0.6-1.7-1.2-2.2c-1.9-1.5-6.1-1.1-7.8,0.6c-0.4,0.4-0.8,0.8-0.9,1.3c0,0.6,0.1,1.3,0.4,1.9c0.2,0.2,1.1,0.4,1.3,0.2
	c0.4-0.4,0.8-1.1,0.8-1.7c0-1,0.2-2,1.2-2.1c0.9-0.1,2.3-0.1,2.8,0.5c0.6,0.7,0.8,2,0.9,3.1C260.5,47.1,259.5,47.6,258.9,47.9z
	 M260.6,48.6c0,1.6,0.4,3.4-0.2,4.9c-0.3,0.8-1.8,1.5-2.9,1.8c-0.6,0.1-1.6-0.5-2.1-1.1c-0.8-0.9-0.7-2.3,0.2-3.1
	c1.4-1.1,3-1.9,4.5-2.9L260.6,48.6z"/>
<path class="st0" d="M291.9,56.6h6.8c-1.6-0.3-2-1.4-2-2.8V47c0-1.6,1.9-3.1,3.8-3.2c1.5,0,2.3,0.9,2.4,2.9v6.1
	c0,1.6,0.5,3.4-1.9,3.8h6.3c-1.6-0.4-1.8-1.6-1.8-2.9c0-2.5,0.1-4.9,0-7.4c0-1.7-0.5-3.2-2.2-4c-1.7-0.7-3.2-0.1-4.6,1
	c-0.5,0.5-1.1,1-1.8,1.6c-0.1-1.1-0.1-1.9-0.2-3.1c-1.7,0.7-3.3,1.3-4.8,1.9c2.1,0.4,2.2,0.4,2.3,2.7V53
	C294.2,54.5,294.4,56.1,291.9,56.6z"/>
<path class="st0" d="M310,62.2c3.2,2.8,10.3,2,12.9-1.4c0.9-1.2,1.2-2.5,0.6-3.9c-0.6-1.3-1.8-1.8-3.2-1.9l-5.9-0.3
	c-0.7,0-1.8-0.1-1.6-1.2c0.2-0.9,0.8-1.7,2-1.4l1,0.1c4.5,0.2,6.9-2.9,5.6-7.2v-0.5c0.5,0,0.9,0,1.4-0.2c0.5-0.1,0.9-0.4,1.3-0.6
	c-0.5-0.2-0.9-0.6-1.4-0.7c-1.4-0.3-2.9-0.3-4.3-0.7c-4.4-1.2-8.4,1.4-7.8,5.5c0.2,1.4,1.3,2.7,2.1,4.2c-2.5,3-2.5,3-0.7,4.9
	c-0.8,0.9-1.6,1.8-2.3,2.8C309.1,60.6,309.1,61.5,310,62.2z M313.4,44.8c0.4-0.8,1.3-1.6,2.2-1.9c1.1-0.4,2.2,0.2,2.7,1.3
	c0.5,1.1,1,3.5,0.9,3.5c-0.1,0.5-0.1,1-0.2,1.6c-0.2,1.2-0.9,2-2.1,2.3c-1.2,0.2-2.3-0.2-2.9-1.3C313,48.6,312.6,46.6,313.4,44.8z
	 M311.5,59.3c0.4-1,0.7-2.3,2.2-2.2c2.3,0.1,4.6,0.1,6.9,0.4c0.7,0,1.8,0.6,1.9,1.1c0.1,0.7-0.4,1.9-1,2.2c-0.8,0.9-2.7,1.4-4.3,1.6
	c-3-0.3-3.8-0.5-4.6-1.1C311.9,60.8,311.1,60.3,311.5,59.3z"/>
<path class="st0" d="M128,37.6c1.1,0,1.7-0.5,1.8-1.4c0.1-1.1-0.7-1.6-1.7-1.6s-1.8,0.4-1.8,1.5C126.3,37.1,126.9,37.6,128,37.6z"/>
<path class="st0" d="M147,37.2c-0.3-0.7-0.8-1.5-1.4-1.9c-3.2-2-7.9-0.1-8.8,3.6c-0.3,1.1-0.3,2.3-0.5,3.6c-0.6,0-1.3-0.1-1.9,0
	c-0.3,0.1-0.5,0.4-0.8,0.6c0.3,0.2,0.5,0.4,0.8,0.5c0.2,0.1,0.5,0,0.7,0c1.1-0.2,1.4,0.3,1.4,1.4c-0.1,2.7-0.1,5.4,0,8.1
	c0,1.7-0.2,3.2-2.3,3.7h8.6c-3.3-0.8-3.4-0.9-3.4-4.2v-6.5c0-2.5,0-2.5,2.6-2.6c0.4,0,0.8-0.3,1.2-0.5c-0.3-0.1-0.7-0.5-1.1-0.5
	c-2.6-0.1-2.6-0.1-2.6-2.7v-0.9c0.2-1.2,0-2.7,1.6-3.2c1.4-0.4,1.9,1,2.8,1.7c0.5,0.5,1.4,0.8,2.1,0.9
	C146.3,38.3,147.1,37.4,147,37.2z"/>
<path class="st0" d="M151.7,42.1c-4.2,0-7.3,3.3-7.3,7.7c0,4.3,3,7.5,7,7.5c4.5,0,7.6-3.2,7.6-7.8C159,45.3,155.9,42.1,151.7,42.1z
	 M155.1,54.2c-0.9,2.5-3.6,2.9-5.4,0.9c-2-2.3-2.7-7.4-1.3-10.1c1.1-2.1,3.4-2.5,5.1-0.8c1.8,1.8,2.1,4.1,2.2,7.1
	C155.6,51.9,155.5,53.1,155.1,54.2z"/>
<path class="st0" d="M129.4,53.6V41.7c-2.1,0.8-3.7,1.4-5.4,2.1v0.4c1.2-0.1,2.3-0.2,2.3,1.4c0.1,2.7,0.2,5.3,0.2,8
	c0,1.4-0.1,2.8-1.9,3.2h6.6C129.6,56.3,129.5,55,129.4,53.6z"/>
<path class="st0" d="M322.9,71.6l-142,0.1c-0.6,0-1.3,0.1-2,0.1c0.2,1.7,1.4,1.4,2.3,1.4l141.3,0.1l2.1,0.1c0-0.6,0-1.2-0.1-1.8
	H322.9z"/>
<path class="st0" d="M120.4,53.3V34.2c-1.9,0.8-3.6,1.4-5.3,2c2.3,0.6,2.3,0.6,2.3,3v13.9c0,1.4,0.4,3.2-1.8,3.7h7
	C120.3,55.7,120.3,55.7,120.4,53.3z"/>
<path class="st0" d="M167.4,56.8C167.5,56.8,167.6,56.7,167.4,56.8L167.4,56.8z"/>
<path class="st0" d="M176.6,53.6v-6.2c0-1.6,1.8-3.2,3.5-3.2c1.4-0.1,2.3,1,2.3,3c0,2.2-0.1,4.3,0,6.4c0.1,1.6-0.1,2.9-2,3.3h7.2
	c-2-0.8-2.3-1.1-2.3-3l-0.1-7.5c-0.2-3.7-3.3-5.4-6.5-3.4c-0.7,0.4-1.3,0.9-2.1,1.5c-0.1-0.8-0.2-1.5-0.3-2.5
	c-1.7,0.5-3.3,1.1-4.8,1.6l0.1-0.5c-1.1-0.4-2.2-1.1-3.1-0.9c-1.1,0.2-2,1.2-3,1.8c0-0.6-0.1-1.2-0.2-2.2c-1.9,0.7-3.6,1.3-5.3,2
	c2.3,0.4,2.4,0.5,2.4,2.7v6.2c0,1.7,0.6,3.6-2.1,4c2.5,0.1,4.8,0.1,7.1,0.1c-0.6-0.7-1.6-1.4-1.5-2c-0.2-2.7-0.2-5.4,0-8
	c0-0.8,0.8-1.6,1.5-2.2l1.6,0.5c0.7,0.1,1.5-0.1,2.2-0.2c0.6-0.2,1.3-0.7,1.7-0.5c0.4,0.2,0.7,1,0.7,1.6c0.1,2.5,0.1,5,0.1,7.5
	c0,1.5,0.1,2.9-1.8,3.4h6.8C176.7,56.6,176.6,55.1,176.6,53.6z"/>
<path class="st0" d="M47.5,49.8c1.6-3.3,1.9-3.6,5.6-3.6h0.7c0.9-0.1,1.2,0.4,1.2,1.3V58c0,2-0.1,3.9-0.2,5.9
	c-0.1,1.2-0.8,1.8-2,1.9l-0.9,0.1c0,0.1,0,0.1,0.1,0.3h8.8c-2.5-0.7-2.8-0.9-2.8-2.7V46.8c0-0.2,0.1-0.3,0.2-0.5
	c3-0.1,6.2-0.8,7.1,3.8c0.2-0.1,0.3-0.3,0.4-0.4l-0.3-4.5H47.7C47.6,46.8,47.6,48.3,47.5,49.8z"/>
<path class="st0" d="M111.5,53v-6.8c0-2.9-1.2-4-4-4.2c-0.6,0-1.3-0.1-1.9,0c-2,0.2-3.8,0.8-4.5,2.8c-0.2,0.5,0,1.4,0.4,1.9
	c0.3,0.3,1.3,0.3,1.7,0c0.5-0.4,0.7-1.2,0.7-1.8c0-1.1,0.5-1.7,1.5-2c1.3-0.3,2.5,0.4,2.9,1.7c0.6,1.9,0.4,2.5-1.1,3.2
	c-1.9,0.9-3.8,1.7-5.5,2.8c-1.4,1-1.7,2.7-1.1,4.4c0.6,1.5,1.7,2.4,3.5,2.1c1.5-0.2,2.9-1,4.4-1.5c0.8,1.5,1.3,1.8,2.8,1.5
	c1.3-0.3,2.6-1.6,2.7-3c-0.7,0.5-1.2,0.8-2.1,1.4C111.7,54.5,111.6,53.8,111.5,53z M108.3,53.2c-0.2,0.8-1.4,1.5-2.3,2
	s-1.8-0.1-2.3-1c-0.6-1-0.7-2.3,0.2-3.1c1.3-1.1,2.8-1.9,4.2-2.8c0.2,0.2,0.3,0.3,0.5,0.4C108.6,50.2,108.9,51.8,108.3,53.2z"/>
<path class="st0" d="M192.4,37.6c1.1,0,1.7-0.5,1.7-1.6c0-1.1-0.9-1.5-1.8-1.5c-1,0-1.8,0.5-1.7,1.6
	C190.7,37.3,191.4,37.6,192.4,37.6z"/>
<path class="st0" d="M190.9,46.8v6.5c0.1,1.6,0,3-1.9,3.4h6.8c-1.8-0.3-2-1.5-2-2.9V41.7c-2,0.8-3.6,1.4-5.3,2
	C190.7,44.3,190.9,44.5,190.9,46.8z"/>
<path class="st0" d="M42.6,55.1c4.1,0.2,7.8-2,9-5.6l-2.1,2.3c-3.8,3.7-10.6,2.5-12.6-2.5c-1.6-3.9-1.4-7.9,0.5-11.7
	c1.3-2.6,3.5-3.7,6.3-3.7s5,1.2,6.3,3.7c0.4,0.7,0.7,1.5,1.1,2.3c0.1-0.1,0.2-0.1,0.3-0.1L50.9,33l-0.3-0.1
	c-0.7,1.5-1.6,1.5-2.9,0.9c-4-1.9-8.8-1.1-11.8,1.9c-3.6,3.6-4.4,8-2.8,12.8C34.4,52.6,37.9,54.9,42.6,55.1z"/>
<path class="st0" d="M24.6,73.3h47.6V25.9H24.6V73.3z M26.2,29.2c0-1.1,0.1-1.7,1.5-1.7h41.4c0.4,0,0.8,0.1,1.3,0.1
	c0.1,0.6,0.1,1.1,0.1,1.5c0,13.6-0.1,27.1,0,40.7c0,1.4-0.4,1.8-1.8,1.8H28c-1.3,0-1.8-0.3-1.8-1.7V29.2z"/>
<path class="st0" d="M95.8,53.5c-2,2.3-4.6,3-7.5,2.4c-2.9-0.6-4.8-2.5-5.6-5.3c-0.9-3.3-0.8-6.5,0.4-9.7c0.6-1.7,1.6-3.1,3.2-3.9
	c4-2.1,8.1-0.5,10,3.8l0.9,1.5c0.2,0,0.3-0.1,0.5-0.2c-0.2-2.4-0.4-4.8-0.6-7.5c-0.5,0.4-0.8,0.6-0.9,0.8c-0.4,1.1-1.1,1-2.1,0.6
	c-4.2-1.9-8.3-1.5-11.9,1.5c-3.6,3.1-4.6,7.2-3.6,11.7c1.3,6.1,6.4,9,12.8,8c3.2-0.5,5.3-2.5,6.8-5.1c-0.1-0.1-0.3-0.3-0.6-0.5
	L95.8,53.5z"/>
</svg>
