<?xml version="1.0" encoding="utf-8"?>
<!-- Generator: Adobe Illustrator 16.0.0, SVG Export Plug-In . SVG Version: 6.00 Build 0)  -->
<!DOCTYPE svg PUBLIC "-//W3C//DTD SVG 1.1//EN" "http://www.w3.org/Graphics/SVG/1.1/DTD/svg11.dtd">
<svg version="1.1" id="Calque_1" xmlns="http://www.w3.org/2000/svg" xmlns:xlink="http://www.w3.org/1999/xlink" x="0px" y="0px"
	 width="500px" height="500px" viewBox="0 0 500 500" enable-background="new 0 0 500 500" xml:space="preserve">
<g>
	<path fill="#DA002F" d="M90.652,256.033c0.011-0.011,0.017-0.022,0.017-0.027H79.341c-2.621,9.27-11.122,16.07-21.231,16.07
		c-12.193,0-22.081-9.882-22.081-22.075c0-12.194,9.887-22.075,22.081-22.075c9.389,0,17.392,5.869,20.581,14.132h11.561
		C86.7,227.605,73.656,216.89,58.11,216.89C39.82,216.89,25,231.71,25,250c0,2.328,0.244,4.597,0.698,6.795v25.151h11.23v-6.497
		c5.745,4.781,13.125,7.661,21.182,7.661c8.739,0,16.667-3.411,22.579-8.939v7.775h11.235v-25.914H90.652z"/>
	<path fill="#DA002F" d="M147.198,249.768h20.576c0,0-0.547-9.188-8.777-14.814c-8.23-5.62-21.945-5.073-24.279-5.073
		c-2.328,0-21.675-0.958-29.353,8.917c-7.684,9.876-6.855,29.354,2.198,36.072c9.048,6.72,19.883,6.86,27.425,6.86
		c7.548,0,20.299-0.964,26.748-7.683c6.449-6.726,6.173-11.658,6.173-11.658h-20.711c0,0-3.98,8.365-12.616,8.365
		c-8.642,0-14.539-6.995-14.539-15.22c0-8.236,6.996-14.544,13.851-14.544C145.135,240.991,147.198,249.768,147.198,249.768z"/>
	<path fill="#DA002F" d="M209.336,229.88h-18.106l-22.769,51.575h19.2l2.334-5.215h20.987l1.922,5.215h18.924L209.336,229.88z
		 M193.834,265l6.173-15.367L206.314,265H193.834z"/>
	<path fill="#DA002F" d="M361.189,229.88h-18.106l-22.769,51.575h19.2l2.334-5.215h20.987l1.922,5.215h18.925L361.189,229.88z
		 M345.688,265l6.167-15.367L358.174,265H345.688z"/>
	<polygon fill="#DA002F" points="255.284,281.866 238.413,281.866 238.413,229.745 265.161,229.745 275.866,255.805 286.56,229.88 
		313.584,229.88 313.584,282.001 296.437,282.001 296.437,250.867 283.544,281.589 268.036,281.589 255.149,250.731 	"/>
	<path fill="#DA002F" d="M440.617,260.055c0,0,10.099-3.292,10.099-14.414c0-14.181-13.613-15.654-13.613-15.654h-46.869v51.521
		h15.887l-0.113-20.088h13.953l12.941,19.969h20.656L440.617,260.055z M434.606,249.275h-28.6v-7.602h28.259
		c0,0,3.628,0.341,3.628,3.747S434.606,249.275,434.606,249.275z"/>
	<g>
		<path d="M45.549,248.262h3.167c0,0-0.082-1.418-1.354-2.285c-1.267-0.867-3.378-0.78-3.736-0.78c-0.363,0-3.335-0.151-4.521,1.375
			c-1.181,1.516-1.056,4.515,0.335,5.555c1.397,1.034,3.065,1.056,4.223,1.056c1.165,0,3.13-0.151,4.121-1.186
			c0.997-1.034,0.953-1.798,0.953-1.798h-3.189c0,0-0.618,1.289-1.944,1.289c-1.332,0-2.241-1.078-2.241-2.345
			s1.077-2.236,2.139-2.236C45.229,246.909,45.549,248.262,45.549,248.262z"/>
		<path d="M55.116,245.198h-2.789l-3.508,7.943h2.961l0.357-0.807h3.232l0.298,0.807h2.913L55.116,245.198z M52.734,250.602
			l0.948-2.361l0.969,2.361H52.734z"/>
		<path d="M78.508,245.198h-2.789l-3.503,7.943h2.951l0.363-0.807h3.238l0.287,0.807h2.918L78.508,245.198z M76.125,250.602
			l0.953-2.361l0.964,2.361H76.125z"/>
		<polygon points="62.199,253.206 59.6,253.206 59.6,245.17 63.72,245.17 65.366,249.188 67.012,245.198 71.176,245.198 
			71.176,253.222 68.534,253.222 68.534,248.43 66.552,253.163 64.159,253.163 62.177,248.409 		"/>
		<path d="M90.745,249.838c0,0,1.554-0.504,1.554-2.215c0-2.188-2.096-2.415-2.096-2.415H82.98v7.938h2.453l-0.021-3.092h2.149
			l1.998,3.076h3.173L90.745,249.838z M89.819,248.181h-4.408v-1.169h4.354c0,0,0.563,0.054,0.563,0.58
			C90.328,248.111,89.819,248.181,89.819,248.181z"/>
	</g>
	<g>
		<path d="M461.29,231.796h3.292c1.744,0,2.589,0.211,3.189,0.487c1.468,0.683,2.312,2.106,2.312,3.704
			c0,1.868-1.348,3.78-3.85,3.937l3.666,4.841h-1.641l-4.396-5.875c1.651,0,2.215-0.016,2.788-0.189
			c1.43-0.401,2.139-1.597,2.139-2.75c0-1.018-0.573-2.074-1.418-2.491c-0.77-0.401-1.436-0.493-2.519-0.493h-2.269v11.798h-1.294
			V231.796z"/>
	</g>
	<path fill="none" stroke="#000000" stroke-width="1.5126" d="M475,238.045c0,5.198-4.213,9.416-9.416,9.416
		s-9.416-4.218-9.416-9.416c0-5.204,4.213-9.421,9.416-9.421S475,232.841,475,238.045z"/>
</g>
</svg>
