<?xml version="1.0" encoding="utf-8"?>
<!-- Generator: Adobe Illustrator 19.1.0, SVG Export Plug-In . SVG Version: 6.00 Build 0)  -->
<svg version="1.1" id="Calque_1" xmlns="http://www.w3.org/2000/svg" xmlns:xlink="http://www.w3.org/1999/xlink" x="0px" y="0px"
	 viewBox="0 0 500 500" style="enable-background:new 0 0 500 500;" xml:space="preserve">
<style type="text/css">
	.st0{fill:#FABB00;}
</style>
<path class="st0" d="M382.4,189.7c-33.5-10.1-51.9-47-41.2-82.4c3.7-12.3,10.4-22.7,19-30.7c0,0,22.4-21.9,57.6-9.7
	c-0.4,0-0.8,0-1.2,0c-21.3,0-38.6,19.1-38.6,42.6c0,23.5,17.3,42.6,38.6,42.6c16.8,0,31.1-11.9,36.4-28.5l0,0c0,0,1.3-3.6,2-9.4
	c0.1-1,0.2-2.2,0.2-2.2c1.4-14.8-1.3-41.1-30.2-62c-39.3-27.7-94.6-24.9-94.6-24.9c-98.3,0-177.9,81.4-177.9,181.7
	c0,100.4,79.7,181.7,177.9,181.7h132V144.1C451.6,179.4,415.8,199.9,382.4,189.7"/>
<g>
	<path d="M60.8,429.6c-14.5,0-23.5,9.3-23.5,22.3c0,13,9.7,22.2,24.2,22.1h26.8v-9.7H58.4c-4.3,0-10-5.4-10-12.4
		c0-7,5.6-12.4,10.3-12.4h29.5v-9.8C88.2,429.6,64,429.6,60.8,429.6z"/>
	<rect x="212.1" y="418.5" width="10.9" height="55.5"/>
	<path d="M227.7,430.6c-2.8,1.8-1.3,10.1,0.5,9.5c1.8-0.6,7-3.4,14.8-1.9c7.9,1.5,13.2,10.5,2.9,33.3c-1.7,3.1,3,3.5,3,3.5l7.5-0.9
		c0,0,12.6-26.5,2.7-37.7C249.2,425.3,229,429.7,227.7,430.6z"/>
	<polygon points="404.4,421.3 393.3,421.3 393.3,429.6 383.7,429.6 383.7,439.8 393.3,439.8 393.3,474.1 404.4,474.1 404.4,439.8 
		419.7,439.8 419.7,429.6 404.4,429.6 	"/>
	<polygon points="447.4,429.6 447.4,421.3 436.3,421.3 436.3,429.6 426.7,429.6 426.7,439.8 436.3,439.8 436.3,474.1 447.4,474.1 
		447.4,439.8 462.7,439.8 462.7,429.6 	"/>
	<path d="M135.9,429.6h-35.7v9.8h35.6c3.5,0,5.5,1.9,5.5,4.4v20.5h-31.6c-3.3,0-5.5-2.1-5.5-4.5c0-2.5,2-4.4,5.5-4.4h27.7l0-9.4
		c0,0-20.3,0-27.8,0c-10.9,0-16.5,7.8-16.5,14.3c0,8.2,7.6,13.8,16.7,13.8h42.6v-30v-0.1C152.4,437.4,146.8,429.6,135.9,429.6z"/>
	<path d="M309.6,429.6h-35.7v9.8h35.6c3.5,0,5.5,1.9,5.5,4.4v20.5h-31.6c-3.3,0-5.4-2.1-5.4-4.5c0-2.5,2-4.4,5.4-4.4h27.7l0-9.4
		c0,0-20.3,0-27.7,0c-10.9,0-16.5,7.8-16.5,14.3c0,8.2,7.6,13.8,16.7,13.8h42.6v-30v-0.1C326.1,437.4,320.5,429.6,309.6,429.6z"/>
	<rect x="159.3" y="429.6" width="11" height="44.4"/>
	<path d="M200.7,433.5c-7.5-6.9-24.5-3.6-25.8-2.8c-2.8,1.8-1.3,10.1,0.5,9.5c1.8-0.6,4.5-3.5,12.3-1.9c5,1,8.1,4.5,7.7,13.2
		c-0.1,2.4,10.5,1.5,10.5-0.3C205.9,444.2,206.8,439.1,200.7,433.5z"/>
	<rect x="333" y="429.6" width="11" height="44.4"/>
	<path d="M374.4,433.5c-7.5-6.9-24.5-3.6-25.8-2.8c-2.8,1.8-1.3,10.1,0.5,9.5c1.8-0.6,4.5-3.5,12.3-1.9c5,1,8.1,4.5,7.7,13.2
		c-0.1,2.4,10.5,1.5,10.5-0.3C379.6,444.2,380.5,439.1,374.4,433.5z"/>
</g>
<path d="M456.6,467.3h1.3c0.6,0,1,0.2,1,0.8c0,0.6-0.4,0.9-1.3,0.9h-1L456.6,467.3L456.6,467.3z M455.7,472.2h0.9v-2.5h0.7l1.6,2.5
	h1.1l-1.6-2.5c0.8-0.1,1.5-0.5,1.5-1.6c0-1.1-0.7-1.6-2-1.6h-2.2L455.7,472.2L455.7,472.2z M461.5,469.3c0,2.2-1.8,4-3.9,4
	s-3.9-1.8-3.9-4c0-2.2,1.8-4,3.9-4S461.5,467.1,461.5,469.3 M452.7,469.3c0,2.7,2.2,4.9,4.9,4.9c2.7,0,4.9-2.2,4.9-4.9
	s-2.2-4.9-4.9-4.9C454.9,464.4,452.7,466.6,452.7,469.3"/>
</svg>
