<?xml version="1.0" encoding="utf-8"?>
<!-- Generator: Adobe Illustrator 21.0.2, SVG Export Plug-In . SVG Version: 6.00 Build 0)  -->
<svg version="1.1" id="Calque_2" xmlns="http://www.w3.org/2000/svg" xmlns:xlink="http://www.w3.org/1999/xlink" x="0px" y="0px"
	 viewBox="0 0 500 194" style="enable-background:new 0 0 500 194;" xml:space="preserve">
<style type="text/css">
	.st0{fill:#E2001A;}
</style>
<path class="st0" d="M118.5,122.9H137v-6.6l-0.1-0.8l-0.2-0.9l-0.4-0.8l-0.5-0.8l-0.7-0.6l-0.8-0.6l-0.9-0.3l-1-0.1H112l-0.9,0.1
	l-0.9,0.2l-0.9,0.4l-0.7,0.5l-0.6,0.8l-0.6,0.8l-0.2,1l-0.1,1.1v12.9l0.1,1l0.3,0.9l0.4,0.9l0.7,0.8l0.7,0.7l0.9,0.5l0.9,0.3
	l0.9,0.1h19.3l1.1-0.1l1.1-0.2l0.9-0.4l0.9-0.6l0.7-0.7l0.5-0.8l0.3-0.9l0.1-0.9v-4.2h-11.3v2.6l-0.3,1.4l-0.8,1l-1.2,0.7l-1.2,0.2
	l-1.3-0.2l-1.2-0.5l-0.8-1l-0.3-1.5V122.9L118.5,122.9z M125.8,120h-7.1v-1.8l0.3-1.6l0.8-1.1l1.1-0.6l1.3-0.2l1.3,0.2l1.1,0.6
	l0.8,1.1l0.3,1.5L125.8,120L125.8,120z"/>
<path class="st0" d="M321.8,100v-5.7h-75.4V53.9l1.6-0.1h1.4l1.5-0.1l1.3-0.2l1.5-0.1l1.4-0.2l1.3-0.1l1.3-0.3l1.2-0.2l1.3-0.2
	l1.3-0.3l1.3-0.3l1.3-0.3l1.3-0.4l1.5-0.5l1.4-0.4l0.4,0.8l0.3,0.8l0.3,0.7l0.3,0.6l0.3,0.6l0.2,0.7l0.3,0.7l0.3,0.7h5.3l-0.4-1
	l-0.4-0.9l-0.3-0.9l-0.3-0.8l-0.4-0.8l-0.5-0.8l-0.5-1l-0.6-1l2.1-0.9l2.2-0.9l2.2-1.1l2.1-1.2l2.1-1.2l1.9-1.1l1.8-1.1l1.5-1.1
	l2.1,1.6l2,1.8l2,1.8l1.9,2l1.9,2l1.8,2.1l1.7,2.2l1.7,2.3h5.7l-2.9-4.2l-3.1-3.9l-3.3-3.8l-3.5-3.4l-3.7-3.2l-3.9-3l-4-2.7
	l-4.1-2.5l-4.3-2.2L272,25l-4.6-1.7l-4.7-1.3l-4.8-1.1l-4.8-0.7l-4.9-0.6l-5-0.1l-5,0.1l-4.9,0.6l-4.8,0.8l-4.8,1l-4.7,1.3l-4.6,1.7
	l-4.5,1.9l-4.3,2.2l-4.2,2.5l-4,2.8l-3.9,3l-3.7,3.2l-3.4,3.4l-3.2,3.7l-3.1,4l-2.8,4.1h5.6l1.7-2.4l1.8-2.3l1.8-2.2l1.9-2l2-1.9
	l1.9-1.8l2-1.7l1.9-1.6l1.7,1.2l1.8,1.1l1.9,1.2l2,1.1l2,1.1l2.2,1.1l2.1,1l2.2,1l-0.4,1l-0.5,0.9l-0.4,0.9l-0.4,0.9l-0.3,0.8
	l-0.4,0.8l-0.3,0.9l-0.5,0.9h5.3l0.3-0.8l0.5-0.7l0.2-0.6l0.3-0.7l0.3-0.6l0.3-0.6l0.3-0.7l0.4-0.8l1.2,0.3l1.2,0.5l1.2,0.3l1.2,0.3
	l1.2,0.3l1.2,0.2l1.2,0.3l1.3,0.2l1.2,0.2l1.3,0.2l1.4,0.2l1.5,0.2l1.4,0.1l1.6,0.1l1.7,0.1l1.8,0.1v40.4h-75.3v5.8l75.3-0.1v40.3
	l-1.6,0.1l-1.6,0.1l-1.4,0.1l-1.3,0.1l-1.5,0.1L232,141l-1.2,0.2l-1.3,0.2l-1.2,0.2l-1.3,0.2l-1.2,0.3l-1.3,0.3l-1.3,0.3l-1.3,0.5
	l-1.3,0.3l-1.4,0.4l-0.3-0.7l-0.3-0.7l-0.3-0.6l-0.3-0.7l-0.5-0.7l-0.3-0.7l-0.3-0.7l-0.3-0.7h-5.3l0.5,1l0.3,0.9l0.4,0.9l0.5,0.8
	l0.4,0.9l0.4,0.8l0.5,0.9l0.4,1l-2.1,0.8l-2.1,1l-2,1l-2.1,1.1l-2,1.1l-1.9,1.2l-2,1.2l-1.8,1.3l-2-1.7l-2-1.7l-1.9-1.8l-1.9-1.9
	l-1.9-2l-1.8-2.1l-1.8-2.3l-1.7-2.4h-5.6l2.9,4.1l3,3.9l3.2,3.7l3.4,3.4l3.7,3.2l3.8,3l3.9,2.7l4.1,2.5l4.4,2.1l4.3,2l4.6,1.7
	l4.7,1.3l4.8,1l4.9,0.8l5,0.6l5.1,0.1l5-0.1l4.9-0.4l4.8-0.8l4.8-1l4.7-1.3l4.6-1.7l4.5-1.9l4.3-2.2l4.1-2.5l4-2.7l3.9-3l3.7-3.2
	l3.6-3.5l3.2-3.8l3.1-3.9l2.9-4.2h-5.7l-1.3,2.1l-1.5,2l-1.7,2.1l-1.9,2l-1.9,2l-2.1,1.9l-2.1,1.9l-2.2,1.9l-1.7-1.1l-1.9-1.2
	l-2-1.2l-2-1.2l-2.1-1.2l-2.2-1.1l-2.1-1l-2-0.8l0.6-0.9l0.5-0.9l0.5-0.8l0.4-0.9l0.3-0.8l0.4-0.9l0.3-0.9l0.4-1h-5.3l-0.3,0.8
	l-0.3,0.7l-0.3,0.6l-0.2,0.6l-0.3,0.6l-0.3,0.7l-0.3,0.7l-0.4,0.9l-1.2-0.3l-1.2-0.4l-1.4-0.3l-1.2-0.3l-1.2-0.3l-1.2-0.3l-1.3-0.2
	l-1.3-0.3l-1.3-0.2l-1.3-0.2l-1.5-0.2l-1.4-0.2l-1.5-0.1l-1.6-0.1l-1.7-0.1l-1.7-0.1V100H321.8L321.8,100z M257.3,24.8l2.3,0.5
	l2.1,0.4l2.2,0.7l2,0.7l2.1,0.7l2,0.7l1.9,0.8l1.9,0.9l1.8,0.9l1.8,0.8l1.7,1l1.7,0.9l1.6,0.9l1.4,1l1.3,0.9l-1.5,1l-1.8,1.1
	l-1.9,1.1l-1.9,1.1l-2,1l-2,1l-1.8,0.8l-1.7,0.5l-0.8-1.3l-0.9-1.2l-0.9-1.3l-0.9-1.3l-1-1.4l-1-1.3l-1-1.3l-1-1.3l-1.1-1.2l-1-1.3
	l-1.1-1.2l-1-1.1l-1-1.1l-1-1.1l-1-1l-0.9-0.9L257.3,24.8z M246.4,23.3l1.3,1.1l1.2,1.1l1.3,1.2l1.5,1.3l1.3,1.3l1.3,1.5l1.3,1.4
	l1.3,1.5l1.2,1.6l1.3,1.6l1.1,1.5l1.2,1.6l1.1,1.4l1,1.5l0.9,1.5l0.9,1.4l-1.1,0.3l-1.1,0.3l-1.1,0.3l-1.1,0.3l-1.1,0.2l-1.2,0.3
	l-1.2,0.2l-1.2,0.2l-1.2,0.2l-1.2,0.2l-1.3,0.1l-1.2,0.2l-1.3,0.1l-1.2,0.1l-1.3,0.1h-1.3L246.4,23.3L246.4,23.3z M229.9,169.3
	l-2.3-0.4l-2.2-0.6l-2.2-0.6l-2.1-0.7l-2.1-0.7l-2-0.8l-1.9-0.8l-1.9-0.9l-1.8-0.8l-1.8-0.9l-1.7-0.9l-1.6-0.9l-1.6-0.9l-1.4-1
	l-1.3-0.9l1.9-1.2l1.9-1.2l1.9-1.1l1.9-1l1.9-0.9l1.8-0.9l1.8-0.8l1.7-0.7l0.8,1.3l0.8,1.2l0.9,1.3l0.8,1.2l0.9,1.2l0.9,1.2l0.9,1.2
	l1,1.2l0.9,1.2l1,1.1l1,1.2l1.1,1.2l1.1,1.2l1.2,1.2l1.2,1.3l1.2,1.2L229.9,169.3z M240.7,170.8l-1.3-1.2l-1.5-1.2l-1.3-1.2
	l-1.5-1.4l-1.3-1.3l-1.3-1.5l-1.3-1.4l-1.2-1.4l-1.3-1.5l-1.2-1.5l-1.1-1.4l-1.1-1.6l-1-1.5l-1-1.5l-1-1.4l-0.8-1.3l1-0.3l1-0.2
	l1.1-0.3l1.1-0.3l1.1-0.2l1.1-0.3l1.2-0.2l1.2-0.2l1.1-0.2l1.3-0.2l1.2-0.2l1.3-0.1l1.3-0.1l1.3-0.1l1.3-0.1h1.5L240.7,170.8
	L240.7,170.8z M220.9,37.6l-0.9,1.3l-1,1.3l-0.8,1.3l-0.9,1.2l-0.8,1.3l-1.8-0.8l-2-0.8l-1.9-1l-2-1l-1.9-1.1l-1.9-1.1l-1.7-1
	l-1.5-1l1.5-1l1.4-0.9l1.6-1l1.6-0.9l1.8-0.9l1.8-0.9l1.8-0.9l1.9-0.8l2-0.8l2-0.7l2.1-0.8l2.1-0.6l2.1-0.7l2.2-0.4l2.2-0.5l2.3-0.4
	l-1,1l-1,1l-1,1.1l-1.1,1.1l-1.1,1.1l-1,1.3l-1.1,1.2l-1,1.3l-1,1.2l-1.1,1.4L220.9,37.6z M240.7,49.2h-1.5l-1.4-0.1l-1.3-0.1
	l-1.5-0.1l-1.3-0.2l-1.5-0.1l-1.3-0.2l-1.2-0.3l-1.2-0.2l-1.2-0.2l-1.2-0.3l-1-0.3l-1-0.2l-1-0.3l-0.8-0.3l-0.8-0.2l0.9-1.4l0.9-1.5
	l1-1.5l1.1-1.6l1.1-1.6l1.2-1.6l1.2-1.5l1.3-1.6l1.2-1.4l1.3-1.4l1.3-1.4l1.3-1.3l1.3-1.2l1.3-1.2l1.3-1.1l1.2-1L240.7,49.2
	L240.7,49.2z M266.2,156.6l1-1.4l0.9-1.3l0.9-1.4l0.9-1.2l0.8-1.4l1.8,0.7l1.8,0.8l1.8,0.9l1.9,0.9l1.9,1l1.8,1.1l1.8,1.1l1.8,1.2
	l-1.7,1l-1.6,1l-1.7,1l-1.7,1l-1.7,0.9l-1.7,0.8l-1.8,0.9l-1.8,0.8l-1.9,0.7l-1.9,0.7l-2,0.7l-2,0.7l-2.1,0.6l-2.2,0.6l-2.3,0.4
	l-2.4,0.5l1-1l1.1-1.1l1.1-1l1-1.2l1.1-1.1l1-1.2l1.1-1.2l1-1.4l1-1.2l1-1.3L266.2,156.6z M247.7,144.9l1.5,0.1l1.3,0.1l1.3,0.1
	l1.2,0.2l1.3,0.1l1.2,0.2l1.2,0.2l1.2,0.2l1.1,0.2l1.2,0.3l1.1,0.2l1.1,0.3l1.1,0.3l1.1,0.3l1,0.3l-0.9,1.3l-0.9,1.5l-1,1.4
	l-1.1,1.6l-1.1,1.6l-1.2,1.5l-1.2,1.6L257,160l-1.3,1.4l-1.3,1.5l-1.3,1.5l-1.5,1.3l-1.3,1.3l-1.3,1.3l-1.3,1.1l-1.3,1.1v-26
	L247.7,144.9L247.7,144.9z"/>
<polygon class="st0" points="59.6,66.8 59.6,71.4 45.6,71.4 45.6,67.2 45.3,65.7 44.5,64.7 43.5,64 42.3,63.8 41,64 40,64.7 
	39.2,65.7 38.9,67.3 38.9,83.6 39.2,84.9 40,85.9 41,86.6 42.3,86.8 43.5,86.7 44.5,86.1 45.3,85.1 45.6,83.6 45.6,78 59.6,78 
	59.6,84.6 59.5,85.7 58.9,86.7 58.2,87.7 57.3,88.5 56.3,89.2 55.3,89.7 54.2,90 53.1,90.1 31.3,90.1 30.1,90 28.9,89.4 27.9,88.7 
	26.9,87.8 26.1,86.8 25.5,85.6 25.1,84.5 25,83.3 25,66.8 25.1,65.5 25.4,64.3 26,63.2 26.8,62.3 27.7,61.5 28.7,60.9 29.8,60.6 
	31,60.5 53.2,60.5 54.5,60.7 55.7,61.2 56.8,62 57.8,62.9 58.6,63.9 59.2,65 59.5,66 "/>
<polygon class="st0" points="40.4,116 55.4,116 55.4,119.9 40.4,119.9 40.4,130.5 55.4,130.5 55.4,134.5 25,134.5 25,103.4 
	55.4,103.4 55.4,107.4 40.4,107.4 "/>
<polygon class="st0" points="76.3,111.5 88,111.5 88,134.4 76.8,134.4 76.8,132.5 76.2,133.3 75.6,133.9 74.8,134.4 74,134.5 
	62.6,134.5 61.3,134.4 60.3,134.1 59.4,133.5 58.7,132.8 58.1,132 57.8,131.1 57.7,130.2 57.6,129.3 57.6,111.5 69.2,111.5 
	69.2,128.3 69.5,129.9 70.3,131.1 71.4,131.9 72.7,132.2 74,132.1 75.1,131.4 75.9,130.2 76.2,128.4 76.2,111.5 "/>
<polygon class="st0" points="103.8,130.7 104,131.5 104.4,131.9 105.1,132.1 105.9,132.1 105.9,134.4 96,134.4 95,134.3 94.1,134 
	93.3,133.5 92.7,133 92.1,132.3 91.8,131.6 91.7,130.9 91.6,130.1 91.6,115 89.6,115 89.6,111.4 91.6,111.4 91.6,106.2 103.7,103.2 
	103.7,111.4 105.4,111.4 105.4,115 103.7,115 103.8,130.7 "/>
<polygon class="st0" points="169.3,125.7 169.3,129.9 169.2,130.8 168.9,131.7 168.4,132.5 167.7,133.2 166.9,133.8 165.9,134.2 
	164.8,134.4 163.7,134.5 144.9,134.5 143.9,134.4 143,134.1 142.2,133.6 141.4,132.9 140.8,132.1 140.3,131.2 140,130.3 
	139.9,129.4 139.9,116.4 140,115.3 140.2,114.4 140.6,113.5 141.2,112.8 141.9,112.2 142.7,111.8 143.6,111.6 144.5,111.5 
	164.8,111.5 165.7,111.6 166.6,111.9 167.4,112.5 168.1,113.1 168.5,113.9 168.9,114.8 169.1,115.6 169.2,116.5 169.2,120.2 
	158.1,120.2 158.1,117.6 157.8,116.3 157,115.3 155.9,114.7 154.7,114.5 153.4,114.7 152.3,115.3 151.5,116.3 151.2,117.6 
	151.2,128.5 151.5,129.8 152.3,130.8 153.4,131.3 154.7,131.4 155.9,131.2 157,130.6 157.8,129.6 158.1,128.3 158.1,125.6 
	169.3,125.7 "/>
<polygon class="st0" points="184.4,130.7 184.6,131.5 185.2,131.9 186,132.1 186.7,132.1 186.7,134.4 176.8,134.4 175.8,134.3 
	175,134 174.2,133.5 173.6,133 173,132.3 172.7,131.6 172.6,130.9 172.5,130.1 172.5,115 170.5,115 170.5,111.4 172.5,111.4 
	172.5,106.2 184.4,103.2 184.4,111.4 186.3,111.4 186.3,115 184.4,115 184.4,130.7 "/>
<rect x="188.1" y="111.6" class="st0" width="12" height="22.9"/>
<polygon class="st0" points="196.9,109.8 191.3,109.8 189.9,109.6 188.8,108.8 188.1,107.8 187.8,106.6 187.9,105.4 188.6,104.4 
	189.6,103.6 191,103.4 196.7,103.4 198.1,103.6 199.2,104.4 199.9,105.4 200.1,106.6 200,107.8 199.4,108.8 198.3,109.6 "/>
<polygon class="st0" points="231.6,125.7 231.6,129.9 231.5,130.8 231.2,131.7 230.8,132.5 230.1,133.2 229.2,133.8 228.3,134.2 
	227.2,134.4 226.1,134.5 207.1,134.5 206.2,134.4 205.3,134.1 204.5,133.6 203.7,132.9 203.1,132.1 202.7,131.2 202.4,130.3 
	202.3,129.4 202.3,116.4 202.4,115.3 202.6,114.4 203,113.5 203.6,112.8 204.4,112.2 205.2,111.8 206.1,111.6 207,111.5 
	227.3,111.5 228.2,111.6 229.1,111.9 229.9,112.5 230.6,113.1 231.1,113.9 231.5,114.8 231.7,115.6 231.8,116.5 231.8,120.2 
	220.7,120.2 220.7,117.6 220.4,116.3 219.6,115.3 218.5,114.7 217.3,114.5 216,114.7 214.9,115.3 214.1,116.3 213.8,117.6 
	213.8,128.5 214.1,129.8 214.9,130.8 216,131.3 217.3,131.4 218.5,131.2 219.6,130.6 220.4,129.6 220.7,128.3 220.7,125.6 
	231.6,125.7 "/>
<polygon class="st0" points="290.5,111.2 290.5,115.7 276.5,115.7 276.5,111.5 276.2,110 275.4,109 274.4,108.4 273.2,108.2 
	271.9,108.4 270.9,109 270.1,110.1 269.8,111.6 269.8,127.9 270.1,129.2 270.9,130.2 271.9,130.9 273.2,131.1 274.4,131 
	275.4,130.3 276.2,129.3 276.5,127.8 276.5,122.3 290.5,122.3 290.5,128.8 290.4,130 289.8,131 289.1,132 288.2,132.8 287.2,133.6 
	286.2,134.1 285.1,134.4 284,134.5 262.2,134.5 261,134.4 259.8,133.8 258.8,133.1 257.8,132.2 257,131.1 256.4,130 255.9,128.8 
	255.8,127.6 255.8,111.2 255.9,109.7 256.4,108.5 257,107.4 257.8,106.5 258.7,105.7 259.7,105.1 260.8,104.8 261.9,104.7 
	284.1,104.7 285.4,104.9 286.6,105.4 287.7,106.2 288.7,107.1 289.5,108.1 290.1,109.2 290.4,110.2 "/>
<polygon class="st0" points="351.2,123.5 353,124.8 354.2,126.4 354.9,128.3 354.9,130.1 354.3,131.9 353.2,133.3 351.4,134.3 
	349,134.6 330.4,134.6 329.5,134.5 328.7,134.3 327.9,133.9 327.2,133.3 326.6,132.6 326.2,131.9 326,131 325.9,130.1 325.9,128.3 
	332.5,128.3 332.5,129.2 332.7,129.9 333.4,130.7 334.3,131.3 335.2,131.5 340.1,131.5 340.8,131.3 341.1,130.9 341,130.4 
	340.7,130 328.4,123.3 327.1,122.2 326.2,120.7 325.8,119 325.8,117.3 326.2,115.6 327.2,114.3 328.6,113.4 330.6,113.1 
	349.9,113.1 350.8,113.2 351.6,113.5 352.5,114 353.2,114.6 353.8,115.3 354.2,116 354.5,116.8 354.6,117.5 354.6,119.1 
	347.7,119.1 347.7,118.3 347.6,117.5 347.2,116.7 346.6,116 345.8,115.8 340,115.8 339.4,116 339.2,116.4 339.2,117 339.6,117.4 "/>
<polygon class="st0" points="369.1,130.9 369.3,131.6 369.7,132 370.4,132.2 371.1,132.2 371.1,134.4 361.8,134.4 360.9,134.3 
	360,134 359.3,133.7 358.7,133.1 358.3,132.4 358,131.7 357.9,131 357.8,130.3 357.8,116.2 355.8,116.2 355.8,112.7 357.8,112.7 
	357.8,107.5 369.2,104.6 369.2,112.7 371,112.7 371,116.2 369.2,116.2 369.1,130.9 "/>
<rect x="404.8" y="104.8" class="st0" width="11.2" height="29.7"/>
<polygon class="st0" points="430.5,134.5 419.4,134.5 419.4,112.9 430.5,112.9 430.5,134.5 "/>
<polygon class="st0" points="427.8,111.1 422.2,111.1 420.9,110.9 419.9,110.1 419.3,109.1 419.1,107.9 419.3,106.8 419.9,105.8 
	420.9,105 422.2,104.8 427.7,104.8 429,105 429.9,105.8 430.6,106.8 430.8,107.9 430.6,109.1 430,110.1 429.1,110.9 "/>
<polygon class="st0" points="444.7,134.5 433.7,134.5 433.7,112.9 444.4,112.9 444.4,114.6 444.8,113.8 445.4,113.3 446.1,113 
	446.8,112.9 457.7,112.9 458.8,113 459.8,113.2 460.7,113.5 461.4,114.1 461.8,114.9 462.3,115.7 462.4,116.6 462.5,117.7 
	462.5,134.5 451.4,134.5 451.4,118.9 451.1,117.8 450.4,116.9 449.3,116.5 448.2,116.3 447,116.5 445.9,116.9 445.2,117.8 
	444.9,119 444.7,134.5 "/>
<polygon class="st0" points="462.4,81.4 462.4,85.6 462.3,86.5 461.9,87.4 461.5,88.1 460.8,88.8 459.9,89.4 459,89.8 457.9,90 
	456.8,90.1 438,90.1 437.1,90 436.1,89.7 435.3,89.2 434.5,88.5 433.9,87.8 433.5,86.9 433.2,86 433.1,85.1 433.1,72.1 433.2,71 
	433.4,70.1 433.8,69.2 434.4,68.5 435.2,67.9 436,67.4 436.9,67.2 437.8,67.1 458,67.1 458.9,67.2 459.8,67.5 460.6,68.1 
	461.3,68.7 461.7,69.5 462.1,70.3 462.3,71.2 462.4,72 462.4,75.8 451.2,75.8 451.2,73.2 450.8,71.9 450,70.9 448.9,70.3 
	447.7,70.1 446.4,70.3 445.3,70.9 444.5,71.9 444.2,73.2 444.2,84 444.5,85.3 445.3,86.3 446.4,87 447.7,87.1 449,87 450.1,86.3 
	450.9,85.3 451.2,84 451.2,81.3 462.4,81.4 "/>
<rect x="418.9" y="67.2" class="st0" width="11.9" height="22.8"/>
<polygon class="st0" points="427.8,65.4 422.2,65.4 420.8,65.2 419.7,64.4 419,63.4 418.7,62.2 418.8,61 419.5,60 420.5,59.2 
	421.9,59 427.6,59 429.1,59.2 430.1,60 430.8,61 431.1,62.2 430.9,63.4 430.3,64.4 429.2,65.2 "/>
<path class="st0" d="M322.3,115.2l-0.7-0.8l-0.9-0.6l-1-0.5l-1.3-0.3l-1.5-0.1H299l-0.7,0.1l-0.8,0.2l-0.7,0.4l-0.8,0.6l-0.6,0.7
	l-0.6,0.8l-0.3,0.9l-0.1,1v1.8h7v-1.6l0.1-0.8l0.4-0.6l0.7-0.5l1-0.1h5.9l1,0.2l0.7,0.3l0.4,0.6l0.1,0.8l-0.1,0.7l-0.2,0.7l-0.4,0.6
	l-0.7,0.2l-11,1.8l-2.7,1l-1.9,1.6l-1,2.1l-0.2,2.2l0.4,2.2l1,1.9l1.7,1.3l2.2,0.4H310l0.6-0.1l0.6-0.2l0.3-0.2l0.3-0.3v0.9h11.1
	v-16.9l0.2-0.8l-0.2-0.8L322.3,115.2z M312,128.8l-0.3,1.4l-0.8,1l-1.1,0.7l-1.3,0.1l-1.3-0.1l-1.1-0.7l-0.8-0.9L305,129v-3.7
	l0.1-0.7l0.3-0.6l0.6-0.4l1-0.2l3.3-0.7h0.6l0.4-0.2l0.4-0.1l0.3-0.3V128.8z"/>
<path class="st0" d="M401.4,115.8L401,115l-0.6-0.7l-0.7-0.6l-0.8-0.5l-0.8-0.3l-0.9-0.1h-19.7l-0.9,0.1l-0.9,0.2l-0.8,0.4l-0.8,0.6
	l-0.6,0.7l-0.4,0.8l-0.2,0.9l-0.1,0.9v12.2l0.1,0.9l0.3,0.9l0.5,0.8l0.7,0.7l0.7,0.7l0.8,0.5l0.9,0.3l0.9,0.1h18.5l1.1-0.1l1.1-0.2
	l0.9-0.4l0.9-0.6l0.7-0.6l0.4-0.8l0.3-0.8l0.1-0.9v-12.8l-0.1-0.7L401.4,115.8z M390.6,128.7l-0.3,1.3l-0.8,0.9l-1,0.7l-1.2,0.1
	l-1.3-0.1l-1-0.6l-0.8-1l-0.3-1.3v-10.5l0.3-1.5l0.8-1l1-0.7l1.3-0.2l1.2,0.2l1,0.7l0.8,1l0.3,1.5V128.7z"/>
<polygon class="st0" points="307.1,84.1 306.8,85.9 306,87.1 304.9,87.8 303.6,87.9 302.3,87.6 301.2,86.8 300.4,85.6 300.1,84 
	300.1,67.1 288.4,67.1 288.4,84.8 288.5,85.8 288.6,86.7 288.9,87.6 289.5,88.4 290.2,89.1 291.1,89.6 292.2,89.9 293.5,90 305,90 
	305.8,89.9 306.5,89.6 307.2,89 307.6,88.2 307.6,90 319,90 319,67.2 307.3,67.2 "/>
<polygon class="st0" points="256,90.1 286.3,90.1 286.3,86.2 271.4,86.2 271.4,75.7 286.3,75.7 286.3,71.7 271.4,71.7 271.4,63.1 
	286.3,63.1 286.3,59 256,59 "/>
<polygon class="st0" points="335.4,87.6 334.9,87.2 334.7,86.4 334.6,70.9 336.5,70.9 336.5,67.2 334.6,67.2 334.6,59 322.6,62 
	322.6,67.1 320.5,67.1 320.5,70.8 322.6,70.8 322.6,85.8 322.7,86.5 322.8,87.3 323.1,88 323.7,88.7 324.3,89.3 325.1,89.7 
	325.9,89.9 326.9,90 336.9,90 336.9,87.8 336.1,87.8 "/>
<path class="st0" d="M356.7,84.1l-0.3,1.3l-0.8,1l-1.1,0.7l-1.3,0.1l-1.3-0.1l-1.1-0.7l-0.8-1l-0.3-1.3l-0.2-5.5h18.4V72l-0.1-0.8
	l-0.2-0.9l-0.5-0.8l-0.4-0.8l-0.7-0.6l-0.8-0.6l-0.9-0.3l-0.9-0.1H343l-0.9,0.1l-1,0.2l-0.8,0.5l-0.8,0.6l-0.6,0.7l-0.4,0.8l-0.3,1
	l-0.1,1v13.1l0.1,0.9l0.3,0.9l0.4,0.8l0.7,0.8l0.8,0.7l0.8,0.5l0.9,0.3l0.9,0.1h19.3l1.2-0.1l1-0.2l1-0.4l0.8-0.5l0.8-0.7l0.5-0.8
	l0.3-0.9l0.1-0.9v-4.2h-11.3V84.1z M349.7,73.9l0.3-1.6l0.8-1.1l1.1-0.6l1.4-0.2l1.3,0.2l1.1,0.6l0.8,1.1l0.3,1.5l0,2h-7.1V73.9z"/>
<polygon class="st0" points="416.1,87.6 415.5,87.2 415.3,86.4 415.3,70.9 417.1,70.9 417.1,67.2 415.3,67.2 415.3,59 403.3,62 
	403.3,67.1 401.2,67.1 401.2,70.8 403.3,70.8 403.3,85.8 403.4,86.5 403.5,87.3 403.8,88 404.3,88.7 405,89.3 405.7,89.7 
	406.6,89.9 407.6,90 417.6,90 417.6,87.8 416.8,87.8 "/>
<polygon class="st0" points="400,70.3 399.7,69.5 399.1,68.7 398.4,68.1 397.6,67.5 396.8,67.2 395.8,67.1 375.6,67.1 374.7,67.2 
	373.8,67.4 373,67.9 372.2,68.5 371.6,69.2 371.2,70.1 371,71 370.9,72.1 370.9,85.1 371,86 371.2,86.9 371.8,87.8 372.4,88.5 
	373.1,89.2 374,89.7 374.9,90 375.8,90.1 394.7,90.1 395.8,90 396.9,89.8 397.9,89.4 398.7,88.8 399.4,88.1 399.8,87.4 400.1,86.5 
	400.2,85.6 400.2,81.4 389.2,81.3 389.2,84 388.9,85.3 388.1,86.3 387,87 385.8,87.1 384.5,87 383.4,86.3 382.6,85.3 382.3,84 
	382.3,73.2 382.6,71.9 383.4,70.9 384.5,70.3 385.8,70.1 387,70.3 388.1,70.9 388.9,71.9 389.2,73.2 389.2,75.8 400.3,75.8 
	400.3,72 400.2,71.2 "/>
<path class="st0" d="M91.2,70.5l-0.7-0.7l-0.9-0.6l-1-0.4l-1.3-0.3l-1.4-0.1H68l-0.7,0.1l-0.8,0.2l-0.8,0.5L65,69.8l-0.7,0.7
	l-0.5,0.8l-0.3,0.9l-0.1,0.9v1.8h7v-1.3l0.1-0.9L71,72l0.5-0.7l0.9-0.1h5.9l1,0.2l0.7,0.3l0.5,0.7l0.1,0.8l-0.1,0.7l-0.2,0.7
	l-0.4,0.6l-0.7,0.2l-11,1.8l-2.7,0.9l-1.8,1.7l-1,2L62.5,84l0.5,2.3l1,1.9l1.7,1.3l2.2,0.4h11.4h0.5l0.4-0.2l0.3-0.1l0.4-0.3V90h11
	V73.1v-1l-0.2-0.8L91.2,70.5z M80.9,84.7l-0.3,1.4l-0.8,1l-1.1,0.5l-1.3,0.2l-1.3-0.2L75,87.1l-0.8-1l-0.3-1.3v-3.7l0.1-0.6l0.3-0.7
	l0.6-0.5l1-0.2l3.5-0.6l0.6-0.1l0.4-0.1l0.3-0.2l0.2-0.2v-0.1H81l-0.1,0.1V84.7z"/>
<polygon class="st0" points="122.1,80.5 120.3,79.1 108.8,72.9 108.4,72.4 108.3,71.8 108.6,71.4 109,71.2 114.7,71.2 115.5,71.4 
	116.1,72.1 116.5,72.9 116.6,73.8 116.6,74.5 123.4,74.5 123.4,72.9 123.3,72.2 123.1,71.4 122.7,70.7 122,70 121.3,69.4 120.5,69 
	119.7,68.7 118.8,68.6 99.4,68.6 97.4,68.9 96,69.8 95,71.1 94.5,72.8 94.4,74.5 95,76.2 95.9,77.7 97.2,78.8 109.7,85.7 110,86 
	110.1,86.5 109.8,86.9 109.1,87.1 104.2,87.1 103.2,86.9 102.3,86.3 101.7,85.5 101.5,84.8 101.5,84 94.8,84 94.8,85.7 94.9,86.5 
	95.1,87.3 95.6,88.1 96.3,88.7 97,89.3 97.8,89.7 98.6,89.9 99.5,90 118,90 120.5,89.7 122.3,88.7 123.4,87.4 124,85.7 124,83.8 
	123.3,82 "/>
<polygon class="st0" points="138.7,87.7 138.3,87.3 138.1,86.6 138.1,72 140,72 140,68.5 138.1,68.5 138.1,60.5 126.9,63.3 
	126.9,68.5 124.9,68.5 124.9,72 126.9,72 126.9,86 127,86.7 127.1,87.4 127.4,88.1 127.8,88.7 128.2,89.3 128.9,89.7 129.8,89.9 
	130.7,90 140.2,90 140.2,88 139.4,87.9 "/>
<polygon class="st0" points="80.9,77.8 80.9,77.9 81,77.8 "/>
<polygon class="st0" points="199,61.5 198,60.7 196.7,60.5 191.3,60.5 189.9,60.7 188.9,61.5 188.3,62.5 188.2,63.6 188.3,64.8 
	189,65.8 190,66.6 191.3,66.8 196.8,66.8 198.1,66.6 199.1,65.8 199.7,64.8 199.8,63.6 199.6,62.5 "/>
<path class="st0" d="M170.3,71.3l-0.3-0.8l-0.5-0.7l-0.7-0.6l-0.7-0.4l-0.8-0.3l-0.9-0.1h-19.8l-0.9,0.1l-0.9,0.2l-0.8,0.5l-0.7,0.6
	l-0.6,0.7l-0.4,0.8l-0.2,0.9l-0.1,0.9v12.1l0.1,0.9l0.3,0.9l0.4,0.9l0.7,0.7l0.7,0.6l0.8,0.6l0.9,0.2l0.9,0.1h18.5l1.1-0.1l1-0.2
	l0.9-0.4l0.9-0.6l0.6-0.6l0.4-0.8l0.3-0.8l0.1-0.8V73.1l-0.1-1L170.3,71.3z M159.8,84.4l-0.3,1.3l-0.8,0.9l-1.1,0.7l-1.2,0.1
	l-1.2-0.1l-1.1-0.6l-0.8-1l-0.3-1.3V73.9l0.3-1.5l0.8-1.1l1.1-0.6l1.2-0.2l1.2,0.2l1.1,0.6l0.8,1.1l0.3,1.5V84.4z"/>
<rect x="188.5" y="68.5" class="st0" width="11.1" height="21.5"/>
<polygon class="st0" points="231.5,71.2 231.2,70.4 230.6,69.7 229.9,69.1 229.1,68.8 228.1,68.6 227,68.5 216.1,68.5 215.4,68.6 
	214.7,68.9 214,69.5 213.5,70.2 213.5,68.5 202.9,68.5 202.9,90 213.8,90 214.1,74.7 214.4,73.5 215.1,72.6 216.2,72 217.4,71.8 
	218.6,72 219.7,72.5 220.4,73.4 220.7,74.5 220.7,90 231.7,90 231.7,73.2 231.6,72.2 "/>
<rect x="173.9" y="60.4" class="st0" width="11.2" height="29.6"/>
<path class="st0" d="M473.6,69.1l-0.9-0.6l-1.8-0.6h-2.1l-0.9,0.3l-1.2,0.3l-0.6,0.6l-1.2,1.8l-0.3,0.9l-0.3,1.2l0.3,1.2l0.3,0.9
	l1.2,1.8l0.6,0.6l1.2,0.6l0.9,0.3l0.9,0h1.2l0.9-0.3l1.8-1.2l1.2-1.8l0.3-0.9v-2.4l-0.3-0.9L473.6,69.1z M473.9,74v0.9l-0.6,0.6
	l-0.6,0.9l-0.3,0.6l-0.9,0.3h-0.9l-0.9,0.3l-0.6-0.3h-0.9l-0.9-0.3l-0.6-0.6l-0.3-0.9l-0.6-0.6V74l-0.3-0.9l0.3-0.9v-0.9l0.6-0.6
	l0.3-0.6l0.6-0.6l0.9-0.6h0.9l0.6-0.3l0.9,0.3h0.9l0.9,0.6l0.3,0.6l1.2,1.2v0.9l0.3,0.9L473.9,74z"/>
<path class="st0" d="M471.8,73.1l0.6-1.2L472,71l-0.3-0.3l-0.6-0.3l-1.2-0.3h-2.1V76h0.9l0.1-2.6h0.9l1.8,2.7h0.9l-1.8-2.7h0.6
	L471.8,73.1z M470.3,72.8h-1.5V71h2.1l0.3,0.3v0.9l-0.3,0.3L470.3,72.8z"/>
</svg>
