<?xml version="1.0" encoding="utf-8"?>
<!-- Generator: Adobe Illustrator 19.1.0, SVG Export Plug-In . SVG Version: 6.00 Build 0)  -->
<svg version="1.1" id="Calque_1" xmlns="http://www.w3.org/2000/svg" xmlns:xlink="http://www.w3.org/1999/xlink" x="0px" y="0px"
	 viewBox="0 0 500 500" style="enable-background:new 0 0 500 500;" xml:space="preserve">
<style type="text/css">
	.st0{fill:#FAB815;}
</style>
<rect x="25.4" y="90.3" class="st0" width="450" height="319.5"/>
<g>
	<path d="M191.8,263.3h-35.1v38.3c0,2.6-3.3,3.9-6.8,3.9c-3.7,0-6.9-1.3-6.9-3.9V197c0-2.6,3.7-3.9,7.5-3.9c3.6,0,6.3,1.3,6.3,3.9
		v40.4h35.1v-40.5c0-19-13.3-28.5-40-28.5c-29.8,0-44.7,10.4-44.7,31.3v103.6c0,19,14.5,28.7,43.4,28.9l41.3-32.6L191.8,263.3
		L191.8,263.3z"/>
	<path d="M303.1,296.7l-29.1-126.4h-48.4l-26.2,123.3l51.3-40.5L303.1,296.7z M251.1,200.3l9,44.4h-18.4L251.1,200.3z"/>
	<polygon points="358.2,202.1 378.9,202.1 378.9,169.8 295,169.8 295,202.1 315.6,202.1 315.6,307.1 344.1,330.8 358.2,330.8 	"/>
</g>
<polygon points="250.9,263.7 165.4,331.6 332.7,331.6 "/>
<g>
	<path d="M406.1,171c4.7,0,8.5,1.5,11.5,4.5c3,3,4.5,6.5,4.5,10.6c0,4.2-1.5,7.7-4.6,10.7s-6.7,4.4-11,4.4c-4.3,0-8-1.5-11-4.4
		c-3-3-4.6-6.5-4.6-10.7c0-2.9,0.8-5.6,2.4-8.1c1.6-2.5,3.6-4.2,6-5.4C401.8,171.5,404,171,406.1,171z M406.9,173.9
		c-3.8,0-6.9,1.2-9.3,3.7c-2.4,2.4-3.6,5.3-3.6,8.5c0,3.3,1.2,6.2,3.7,8.6c2.5,2.4,5.4,3.6,8.9,3.6c3.4,0,6.4-1.2,8.8-3.6
		c2.5-2.4,3.7-5.2,3.7-8.6c0-2.3-0.6-4.4-1.9-6.4c-1.2-1.9-2.8-3.4-4.8-4.4C410.5,174.4,408.6,173.9,406.9,173.9z M399.6,194.2
		v-16.1h7.8c1.9,0,3.4,0.4,4.2,1.3c0.9,0.9,1.3,2,1.3,3.2c0,1.2-0.4,2.2-1.1,3c-0.7,0.8-1.9,1.3-3.4,1.5c0.7,0.3,1.2,0.6,1.6,1
		s1,1.4,1.9,2.8l1.9,3.2h-4.1l-1.4-2.6c-0.8-1.5-1.6-2.6-2.2-3.2c-0.6-0.6-1.5-0.8-2.5-0.8H403v6.6H399.6z M403,185.1h2.7
		c1.4,0,2.3-0.2,2.9-0.5c0.6-0.4,0.9-0.9,0.9-1.7c0-0.7-0.3-1.2-0.9-1.6c-0.6-0.4-1.4-0.5-2.6-0.5H403L403,185.1L403,185.1z"/>
</g>
</svg>
