<?xml version="1.0" encoding="utf-8"?>
<!-- Generator: Adobe Illustrator 21.0.2, SVG Export Plug-In . SVG Version: 6.00 Build 0)  -->
<svg version="1.1" id="Calque_1" xmlns="http://www.w3.org/2000/svg" xmlns:xlink="http://www.w3.org/1999/xlink" x="0px" y="0px"
	 viewBox="0 0 500 500" style="enable-background:new 0 0 500 500;" xml:space="preserve">
<style type="text/css">
	.st0{fill:#E60008;}
</style>
<path class="st0" d="M82,315.8c0,5.4-4.4,9.8-9.8,9.8s-9.8-4.4-9.8-9.8V187c0-5.4,4.4-9.8,9.8-9.8s9.8,4.4,9.8,9.8v35h39.2v-23.8
	c0-25.4-20.8-46.2-46.2-46.2h-2.8C46.8,152,26,172.8,26,198.2v103.6c0,25.4,20.8,46.2,46.2,46.2H75c25.4,0,46.2-20.8,46.2-46.2V278
	H82V315.8z"/>
<path class="st0" d="M385,154.7l-0.4,161.1c0,5.4-4.4,9.8-9.8,9.8s-9.8-4.4-9.8-9.8V154.7l-36.4,0.1v147.1
	c0,25.4,20.8,46.2,46.2,46.2h2.8c25.4,0,46.2-20.8,46.2-46.2V154.8L385,154.7z"/>
<polygon class="st0" points="233.3,154.8 233.3,180 261.3,180 261.3,342.4 300.5,342.4 300.5,180 322.9,180 322.9,154.8 "/>
<path class="st0" d="M184.3,152h-2.8c-25.4,0-46.2,20.8-46.2,46.2v35v14h-14l14-14H98.8L82,250h30.4l-19.2,16.8h42V292v50.4h39.2
	v-78.1l19.6-17.2h-19.6V187c0-5.4,4.4-9.8,9.8-9.8s9.8,4.4,9.8,9.8v60.2v95.2h36.4v-40.6V292v-93.8C230.5,172.8,209.7,152,184.3,152
	z"/>
<path class="st0" d="M436.7,160.6h-5.6v-5.1h17.4v5.1h-5.6v14.9h-6.2V160.6z"/>
<path class="st0" d="M450.7,155.5h8.8l2.9,11.8h0.1l2.9-11.8h8.8v20h-5.8v-12.8h-0.1l-3.5,12.8h-4.6l-3.5-12.8h-0.1v12.8h-5.8V155.5
	z"/>
<rect x="26" y="104.3" class="st0" width="397.8" height="33.6"/>
<rect x="26" y="362" class="st0" width="397.8" height="33.6"/>
</svg>
