<?xml version="1.0" encoding="utf-8"?>
<!-- Generator: Adobe Illustrator 21.0.2, SVG Export Plug-In . SVG Version: 6.00 Build 0)  -->
<svg version="1.1" id="Calque_1" xmlns="http://www.w3.org/2000/svg" xmlns:xlink="http://www.w3.org/1999/xlink" x="0px" y="0px"
	 viewBox="0 0 500 154" style="enable-background:new 0 0 500 154;" xml:space="preserve">
<style type="text/css">
	.st0{fill:#1A171B;}
</style>
<path class="st0" d="M90,60c0-5.7-1.6-10.1-4.8-13.1c-3.2-3-7.7-4.5-13.7-4.5c-4.9,0-9.2,1.1-12.8,3.3c-3.6,2.2-6.7,5.1-9.1,8.7
	s-4.2,7.6-5.4,12.2c-1.2,4.5-1.8,9.1-1.8,13.6c0,7.6,2,13.6,5.9,18s9.4,6.5,16.6,6.5c3.7,0,6.8-0.7,9.3-2.1s4.6-3.1,6.2-5.2
	c1.6-2,2.9-4.1,3.8-6.2s1.5-3.9,1.9-5.3h14.3c-1.1,5.2-2.9,9.7-5.2,13.5s-5,7-8.2,9.5s-6.7,4.4-10.5,5.6c-3.9,1.2-7.9,1.8-12.1,1.8
	c-5.9,0-11.1-0.9-15.6-2.8c-4.5-1.8-8.3-4.4-11.4-7.6s-5.4-7-7-11.4S28,85.4,28,80.4c0-8.6,1.3-16,3.8-22.3
	c2.6-6.3,5.9-11.5,10.1-15.6s8.9-7.1,14.1-9.1s10.5-3,15.9-3c4.8,0,9.3,0.7,13.3,2c4.1,1.3,7.5,3.2,10.4,5.6
	c2.9,2.5,5.1,5.5,6.6,9.2s2.2,7.8,2.1,12.5L90,60L90,60z"/>
<path class="st0" d="M149.6,32.6h15.1l14.2,81.9h-14.6L161,92.8h-32.6l-12.6,21.7h-15.4L149.6,32.6z M154.5,47.1h-0.2L134.6,82h25
	L154.5,47.1z"/>
<path class="st0" d="M188.2,32.6h14.6l7.7,64.7h0.2l34.2-64.7h15.3l-45,81.9h-16.3L188.2,32.6z"/>
<path class="st0" d="M267.7,32.6h59.7L324.9,45h-45.5l-4.5,21.5H317l-2.4,11.7h-42.3l-4.9,24h45.9l-2.5,12.4h-60L267.7,32.6z"/>
<path class="st0" d="M340,32.6h35.4c1.8,0,4.1,0.2,7,0.5s5.8,1.1,8.6,2.5s5.2,3.5,7.2,6.3s3,6.7,3,11.6c0,6.5-1.6,11.6-4.9,15.2
	c-3.3,3.6-7.8,6-13.6,7.1V76c3.4,1.3,5.8,3.2,6.9,5.8c1.2,2.6,1.8,5.6,1.8,9c0,2.8-0.2,5.7-0.7,8.5s-0.7,5.7-0.6,8.5
	c0,1.1,0.1,2.3,0.3,3.4c0.2,1.1,0.6,2.2,1.2,3.3h-15c-0.4-1.1-0.6-2.1-0.7-3.1s-0.2-2.1-0.2-3.2c0-3.1,0.2-6.1,0.7-9
	c0.5-3,0.7-5.9,0.7-8.9c0-2.4-0.4-4.2-1.3-5.5c-0.9-1.3-2-2.2-3.5-2.8c-1.5-0.6-3.1-0.9-4.9-1c-1.8-0.1-3.7-0.2-5.6-0.2h-17.2
	l-7,33.7H323L340,32.6z M346.9,69.9h21c6.2,0,10.9-1.3,14.2-3.8c3.2-2.6,4.9-6.2,4.9-11.1c0-2.2-0.4-4-1.2-5.5
	c-0.8-1.4-1.9-2.5-3.3-3.3s-2.9-1.3-4.7-1.6c-1.8-0.3-3.6-0.4-5.5-0.4h-20.2L346.9,69.9z"/>
<path class="st0" d="M418.9,87.5c-0.3,6.3,1.3,10.8,4.7,13.4s8.1,3.9,14.1,3.9c1.9,0,4-0.2,6.1-0.7c2.2-0.5,4.2-1.2,5.9-2.2
	c1.8-1,3.2-2.4,4.4-4c1.2-1.6,1.8-3.7,1.8-6.1c0-2.3-0.6-4.2-1.7-5.7c-1.1-1.5-2.6-2.8-4.4-3.8c-1.8-1-3.9-1.9-6.3-2.6
	s-4.8-1.4-7.3-2.1c-1.8-0.5-4-1.1-6.5-1.9s-5-2-7.3-3.6c-2.4-1.6-4.4-3.6-6-6.1s-2.5-5.7-2.5-9.6c0-3.7,0.7-7.1,2.1-10.2
	c1.4-3.1,3.4-5.8,6-8.1c2.6-2.2,5.8-4,9.6-5.3c3.8-1.3,8.1-1.9,12.9-1.9c4.3,0,8.3,0.5,12,1.4c3.7,0.9,7,2.4,9.8,4.5
	c2.8,2.1,4.9,4.8,6.4,8.1c1.5,3.3,2.2,7.4,2.1,12.2H461c-0.1-5.1-1.5-8.8-4.2-11.1c-2.8-2.2-6.9-3.4-12.5-3.4c-1,0-2.4,0.1-4.1,0.3
	c-1.8,0.2-3.5,0.8-5.3,1.6c-1.8,0.8-3.3,2-4.6,3.6c-1.3,1.6-2,3.7-2,6.5c0,2,0.5,3.6,1.4,4.9c0.9,1.3,2.2,2.4,3.7,3.3
	c1.6,0.9,3.4,1.7,5.5,2.3c2.1,0.6,4.2,1.2,6.5,1.7c2.9,0.8,5.8,1.6,8.8,2.5s5.6,2.2,8,3.8c2.4,1.6,4.4,3.8,5.9,6.5s2.2,6.2,2.2,10.4
	c0,3.2-0.6,6.4-1.8,9.5s-3.2,6-5.9,8.5c-2.7,2.5-6.2,4.6-10.5,6.1c-4.3,1.6-9.6,2.4-15.8,2.4c-4.8,0-9.2-0.6-13.1-1.7
	c-3.9-1.1-7.2-2.8-9.9-5.2c-2.7-2.3-4.8-5.3-6.2-9c-1.4-3.7-2-8.1-1.9-13.2L418.9,87.5L418.9,87.5z"/>
</svg>
