<?xml version="1.0" encoding="utf-8"?>
<!-- Generator: Adobe Illustrator 19.1.0, SVG Export Plug-In . SVG Version: 6.00 Build 0)  -->
<svg version="1.1" id="Calque_2" xmlns="http://www.w3.org/2000/svg" xmlns:xlink="http://www.w3.org/1999/xlink" x="0px" y="0px"
	 viewBox="0 0 500 500" style="enable-background:new 0 0 500 500;" xml:space="preserve">
<style type="text/css">
	.st0{fill:#E2001A;}
	.st1{fill:#009EE0;}
	.st2{fill:#F29400;}
	.st3{fill:#FFFFFF;}
</style>
<g>
	<g>
		<path class="st0" d="M475,240.2c0,42.2-89.5,76.7-198.8,76.7h-52.3C114.5,316.9,25,282.4,25,240.2s89.5-76.7,198.8-76.7h52.3
			C385.5,163.4,475,198,475,240.2z"/>
	</g>
	<path class="st1" d="M458.1,239.4c0-23.7-33.8-43-75.2-43c-41.3,0-75.2,19.4-75.2,43c0,1.4,0.1,2.8,0.4,4.2
		c-4.9,27.8-42.2,51.8-134.2,53.4c-95.8,1.7-147.4-6.2-147.4-6.2s43.8,12.4,128.9,12.4c152.7,0,233.4-18,256.1-24
		C438.7,272.8,458.1,257.3,458.1,239.4z"/>
	<path class="st2" d="M42.6,239.6c0,23.7,33.8,43,75.2,43s75.2-19.4,75.2-43c0-1.4-0.1-2.8-0.4-4.2c4.9-27.8,42.2-51.8,134.2-53.4
		c95.8-1.7,147.4,6.2,147.4,6.2s-43.8-12.4-128.9-12.4c-152.7,0-233.4,18-256.1,24C61.9,206.3,42.6,221.7,42.6,239.6z"/>
	<g>
		<path class="st3" d="M285.7,236.6v-13.1c0-4.2-4.3-10.6-16.2-10.6h-57.3v1.3v1.3v47.3v1.3v1.3H277c11.2,0,16.2-5.3,16.2-10.5v-9.3
			C293.3,240.1,288.8,237.5,285.7,236.6z M269,242.8c0.6,0,1.6,0.3,1.6,1.8c0,0.7,0,1.5,0.1,2.2c0,0.7,0.1,1.3,0.1,1.8
			c0,0.6-0.1,1-0.4,1.2c-0.3,0.3-0.9,0.4-1.2,0.4h-35.7V228h28.3c0.1,0,1.5,0,1.5,0.9v6.6h-22.5v7.3H269z"/>
		<path class="st3" d="M404.2,212.6h-49.6c-10.1,0-16.5,6-16.5,10.1v42.7h22.4v-37.7h6.7c0.5,0,0.7,0.1,0.7,0.1c0,0,0.1,0.2,0.1,0.9
			v36.6h22.3v-37.5h6.2c0.9,0,1.2,0.5,1.3,0.9v36.5l4.2,0c7.5,0,17.7,0,17.7-12.7c0-3.4,0.1-7.5,0.3-11.9c0.2-5.3,0.3-11.4,0.3-17.4
			C420.3,216.9,412,212.6,404.2,212.6z"/>
		<path class="st3" d="M80.9,223.4c0,1.9,0,9.2-0.1,16.4c0,6.8,0,13.3,0,15c0,4,3.4,10.9,16.2,10.9l52.2,0l0.2,0c0,0,0,0,0,0
			c0.9,0,4.2-0.1,7.3-1.9c2.8-1.6,6.2-4.9,6.2-11.9v-1.3h-58.5l-0.2,0c-0.3,0-0.7-0.1-0.9-0.2c-0.2-0.1-0.2-0.1-0.2-0.3l0-22
			c0.1-0.1,0.6-0.3,1.2-0.3c0,0,0,0,0,0l58.7-0.1v-15H97.2C84.4,212.9,80.9,219.8,80.9,223.4z"/>
	</g>
	<g>
		<polygon points="54.1,320.4 44.9,320.4 44.9,321.7 48.7,321.7 48.7,332.7 50.3,332.7 50.3,321.7 54.1,321.7 		"/>
		<path d="M57.6,323.7c-2.6,0-4.2,2.1-4.2,4.8c0,2.7,1.6,4.5,4.4,4.5c1.4,0,2.4-0.3,2.9-0.6l-0.3-1.2c-0.6,0.3-1.3,0.5-2.5,0.5
			c-1.6,0-3-0.9-3-3.1h6.2c0-0.2,0.1-0.4,0.1-0.7C61.3,326.2,60.5,323.7,57.6,323.7z M55,327.4c0.1-1.1,0.8-2.6,2.5-2.6
			c1.8,0,2.3,1.6,2.2,2.6H55z"/>
		<path d="M67.4,325c0.9,0,1.5,0.2,1.9,0.4l0.4-1.2c-0.4-0.2-1.3-0.5-2.2-0.5c-2.9,0-4.8,2-4.8,4.7c0,2.7,1.7,4.5,4.4,4.5
			c1.2,0,2.1-0.3,2.5-0.5l-0.3-1.2c-0.5,0.2-1.1,0.4-2,0.4c-1.8,0-3.1-1.3-3.1-3.3C64.3,326.5,65.4,325,67.4,325z"/>
		<path d="M75.9,323.7c-0.6,0-1.2,0.2-1.7,0.5c-0.5,0.3-0.9,0.7-1.1,1.1h0v-5.5h-1.6v13h1.6v-5.3c0-0.3,0-0.5,0.1-0.8
			c0.3-0.9,1.1-1.6,2.2-1.6c1.5,0,2,1.2,2,2.6v5.1H79v-5.3C79,324.4,77.1,323.7,75.9,323.7z"/>
		<path d="M86.1,323.7c-1.5,0-2.5,0.8-2.9,1.7h0l-0.1-1.5h-1.4c0.1,0.7,0.1,1.5,0.1,2.4v6.5h1.6v-5.3c0-0.3,0-0.5,0.1-0.8
			c0.3-0.9,1.1-1.6,2.2-1.6c1.5,0,2.1,1.2,2.1,2.6v5.1h1.6v-5.3C89.2,324.4,87.3,323.7,86.1,323.7z"/>
		<path d="M95.5,323.7c-2.5,0-4.4,1.7-4.4,4.7c0,2.8,1.8,4.6,4.2,4.6c2.1,0,4.4-1.4,4.4-4.7C99.8,325.5,98.1,323.7,95.5,323.7z
			 M95.5,331.7c-1.6,0-2.7-1.5-2.7-3.4c0-1.7,0.8-3.4,2.7-3.4c1.9,0,2.7,1.9,2.7,3.4C98.2,330.3,97,331.7,95.5,331.7z"/>
		<rect x="101.8" y="319.7" width="1.6" height="13"/>
		<path d="M109.9,323.7c-2.5,0-4.4,1.7-4.4,4.7c0,2.8,1.8,4.6,4.2,4.6c2.1,0,4.4-1.4,4.4-4.7C114.2,325.5,112.5,323.7,109.9,323.7z
			 M109.8,331.7c-1.6,0-2.7-1.5-2.7-3.4c0-1.7,0.8-3.4,2.7-3.4c1.9,0,2.7,1.9,2.7,3.4C112.5,330.3,111.4,331.7,109.8,331.7z"/>
		<path d="M122.4,325.2L122.4,325.2c-0.4-0.7-1.3-1.5-2.8-1.5c-2,0-4,1.7-4,4.7c0,2.5,1.6,4.3,3.8,4.3c1.4,0,2.3-0.7,2.8-1.5h0v1
			c0,2.2-1.2,3.1-2.9,3.1c-1.1,0-2-0.3-2.6-0.7l-0.4,1.2c0.7,0.5,1.9,0.7,2.9,0.7c1.1,0,2.4-0.3,3.2-1.1c0.9-0.8,1.3-2,1.3-4v-5.1
			c0-1.1,0-1.8,0.1-2.4h-1.4L122.4,325.2z M122.2,329c0,0.3,0,0.6-0.1,0.9c-0.4,1-1.2,1.6-2.2,1.6c-1.7,0-2.6-1.4-2.6-3.2
			c0-2,1.1-3.3,2.6-3.3c1.2,0,1.9,0.8,2.2,1.7c0.1,0.2,0.1,0.5,0.1,0.7L122.2,329L122.2,329z"/>
		<rect x="126.3" y="323.9" width="1.6" height="8.9"/>
		<path d="M127.2,320.4c-0.6,0-1,0.4-1,1c0,0.6,0.4,1,1,1c0.7,0,1.1-0.4,1-1C128.1,320.8,127.8,320.4,127.2,320.4z"/>
		<path d="M134.2,323.7c-2.6,0-4.2,2.1-4.2,4.8c0,2.7,1.6,4.5,4.4,4.5c1.4,0,2.4-0.3,2.9-0.6l-0.3-1.2c-0.6,0.3-1.3,0.5-2.5,0.5
			c-1.6,0-3-0.9-3-3.1h6.2c0-0.2,0.1-0.4,0.1-0.7C137.8,326.2,137,323.7,134.2,323.7z M131.5,327.4c0.1-1.1,0.8-2.6,2.5-2.6
			c1.8,0,2.2,1.6,2.2,2.6H131.5z"/>
		<path d="M142.7,327.6c-1.2-0.4-1.7-0.8-1.7-1.5c0-0.7,0.5-1.2,1.5-1.2c0.8,0,1.5,0.3,1.8,0.5l0.4-1.2c-0.5-0.3-1.3-0.6-2.2-0.6
			c-1.9,0-3.1,1.2-3.1,2.6c0,1.1,0.8,1.9,2.3,2.5c1.2,0.4,1.6,0.9,1.6,1.6c0,0.7-0.5,1.3-1.7,1.3c-0.8,0-1.6-0.3-2.1-0.6l-0.4,1.2
			c0.6,0.4,1.5,0.6,2.5,0.6c2.1,0,3.3-1.1,3.3-2.7C145,328.9,144.2,328.2,142.7,327.6z"/>
		<path d="M154.5,323.7c-2.6,0-4.2,2.1-4.2,4.8c0,2.7,1.6,4.5,4.4,4.5c1.4,0,2.4-0.3,2.9-0.6l-0.3-1.2c-0.6,0.3-1.3,0.5-2.5,0.5
			c-1.6,0-3-0.9-3-3.1h6.2c0-0.2,0.1-0.4,0.1-0.7C158.1,326.2,157.3,323.7,154.5,323.7z M151.8,327.4c0.1-1.1,0.8-2.6,2.5-2.6
			c1.8,0,2.2,1.6,2.2,2.6H151.8z"/>
		<path d="M162.1,321.7l-1.6,0.5v1.6h-1.4v1.2h1.4v4.8c0,1,0.2,1.8,0.6,2.3c0.4,0.4,1,0.7,1.7,0.7c0.6,0,1.1-0.1,1.4-0.2l-0.1-1.2
			c-0.2,0.1-0.5,0.1-0.9,0.1c-0.9,0-1.2-0.6-1.2-1.7v-4.8h2.3v-1.2h-2.3L162.1,321.7L162.1,321.7z"/>
		<path d="M174.2,325c0.9,0,1.5,0.2,1.9,0.4l0.4-1.2c-0.4-0.2-1.3-0.5-2.2-0.5c-2.9,0-4.8,2-4.8,4.7c0,2.7,1.7,4.5,4.4,4.5
			c1.2,0,2.1-0.3,2.5-0.5l-0.3-1.2c-0.5,0.2-1.1,0.4-2,0.4c-1.8,0-3.1-1.3-3.1-3.3C171,326.5,172.1,325,174.2,325z"/>
		<path d="M181.9,323.7c-2.4,0-4.4,1.7-4.4,4.7c0,2.8,1.9,4.6,4.2,4.6c2.1,0,4.4-1.4,4.4-4.7C186.2,325.5,184.4,323.7,181.9,323.7z
			 M181.8,331.7c-1.6,0-2.7-1.5-2.7-3.4c0-1.7,0.8-3.4,2.7-3.4c1.9,0,2.6,1.9,2.6,3.4C184.5,330.3,183.4,331.7,181.8,331.7z"/>
		<path d="M197.9,323.7c-0.8,0-1.4,0.2-2,0.6c-0.4,0.3-0.7,0.7-1,1.2h0c-0.4-1-1.3-1.8-2.5-1.8c-1.5,0-2.3,0.8-2.8,1.6h-0.1
			l-0.1-1.4h-1.4c0.1,0.7,0.1,1.5,0.1,2.4v6.5h1.6v-5.3c0-0.3,0-0.5,0.1-0.8c0.2-0.8,1-1.6,2-1.6c1.2,0,1.8,1,1.8,2.4v5.3h1.6v-5.5
			c0-0.3,0.1-0.6,0.1-0.8c0.3-0.8,1-1.5,1.9-1.5c1.3,0,1.9,1,1.9,2.7v5h1.6v-5.2C200.8,324.4,199.1,323.7,197.9,323.7z"/>
		<path d="M208.1,323.7c-1.5,0-2.5,0.6-3.2,1.7h0l-0.1-1.5h-1.5c0,0.8,0.1,1.8,0.1,2.9v9.6h1.6v-4.8h0c0.5,0.9,1.6,1.4,2.7,1.4
			c2.1,0,4-1.6,4-4.8C211.8,325.5,210.2,323.7,208.1,323.7z M207.5,331.7c-1.2,0-2.1-0.8-2.4-1.9c0-0.2-0.1-0.4-0.1-0.7v-1.5
			c0-0.2,0.1-0.5,0.1-0.7c0.3-1.2,1.3-2,2.4-2c1.7,0,2.6,1.5,2.6,3.3C210.2,330.3,209.2,331.7,207.5,331.7z"/>
		<path d="M217.6,323.7c-2.5,0-4.4,1.7-4.4,4.7c0,2.8,1.8,4.6,4.2,4.6c2.1,0,4.4-1.4,4.4-4.7C221.9,325.5,220.2,323.7,217.6,323.7z
			 M217.6,331.7c-1.6,0-2.7-1.5-2.7-3.4c0-1.7,0.8-3.4,2.7-3.4c1.9,0,2.6,1.9,2.6,3.4C220.3,330.3,219.1,331.7,217.6,331.7z"/>
		<path d="M226.8,327.6c-1.2-0.4-1.7-0.8-1.7-1.5c0-0.7,0.5-1.2,1.5-1.2c0.8,0,1.5,0.3,1.8,0.5l0.4-1.2c-0.5-0.3-1.3-0.6-2.2-0.6
			c-1.9,0-3.1,1.2-3.1,2.6c0,1.1,0.7,1.9,2.3,2.5c1.2,0.4,1.6,0.9,1.6,1.6c0,0.7-0.6,1.3-1.7,1.3c-0.8,0-1.6-0.3-2.1-0.6l-0.4,1.2
			c0.6,0.4,1.5,0.6,2.5,0.6c2.1,0,3.3-1.1,3.3-2.7C229.1,328.9,228.3,328.2,226.8,327.6z"/>
		<path d="M237.4,327.3c0-1.8-0.7-3.6-3.4-3.6c-1.1,0-2.2,0.3-2.9,0.8l0.4,1.1c0.6-0.4,1.5-0.7,2.3-0.7c1.8,0,2,1.3,2,2v0.2
			c-3.4,0-5.3,1.1-5.3,3.3c0,1.3,0.9,2.5,2.7,2.5c1.3,0,2.2-0.6,2.7-1.3h0.1l0.1,1.1h1.5c-0.1-0.6-0.1-1.4-0.1-2.1V327.3z
			 M235.9,329.7c0,0.2,0,0.3-0.1,0.5c-0.2,0.8-1,1.5-2.1,1.5c-0.8,0-1.5-0.5-1.5-1.5c0-1.7,2-2,3.8-2V329.7z"/>
		<path d="M244.4,323.7c-1.5,0-2.5,0.8-2.9,1.7h0l-0.1-1.5h-1.4c0.1,0.7,0.1,1.5,0.1,2.4v6.5h1.6v-5.3c0-0.3,0-0.5,0.1-0.8
			c0.3-0.9,1.1-1.6,2.2-1.6c1.5,0,2.1,1.2,2.1,2.6v5.1h1.6v-5.3C247.6,324.4,245.6,323.7,244.4,323.7z"/>
		<path d="M252,321.7l-1.6,0.5v1.6h-1.4v1.2h1.4v4.8c0,1,0.2,1.8,0.6,2.3c0.4,0.4,1,0.7,1.7,0.7c0.6,0,1.1-0.1,1.4-0.2l-0.1-1.2
			c-0.2,0.1-0.5,0.1-0.9,0.1c-0.9,0-1.2-0.6-1.2-1.7v-4.8h2.3v-1.2H252V321.7z"/>
		<path d="M259,327.6c-1.1-0.4-1.7-0.8-1.7-1.5c0-0.7,0.5-1.2,1.5-1.2c0.8,0,1.5,0.3,1.8,0.5l0.4-1.2c-0.5-0.3-1.3-0.6-2.2-0.6
			c-1.9,0-3.1,1.2-3.1,2.6c0,1.1,0.8,1.9,2.4,2.5c1.2,0.4,1.6,0.9,1.6,1.6c0,0.7-0.6,1.3-1.7,1.3c-0.8,0-1.6-0.3-2.1-0.6l-0.4,1.2
			c0.6,0.4,1.5,0.6,2.5,0.6c2.1,0,3.3-1.1,3.3-2.7C261.3,328.9,260.6,328.2,259,327.6z"/>
		<path d="M271.9,323.7c-1.4,0-2.5,0.6-3.1,1.7h0l-0.1-1.5h-1.4c0,0.8,0.1,1.8,0.1,2.9v9.6h1.6v-4.8h0c0.5,0.9,1.6,1.4,2.7,1.4
			c2.1,0,4-1.6,4-4.8C275.7,325.5,274.1,323.7,271.9,323.7z M271.4,331.7c-1.2,0-2.1-0.8-2.4-1.9c0-0.2-0.1-0.4-0.1-0.7v-1.5
			c0-0.2,0.1-0.5,0.1-0.7c0.3-1.2,1.3-2,2.4-2c1.7,0,2.6,1.5,2.6,3.3C274.1,330.3,273.1,331.7,271.4,331.7z"/>
		<path d="M281.5,323.7c-2.4,0-4.4,1.7-4.4,4.7c0,2.8,1.8,4.6,4.2,4.6c2.1,0,4.4-1.4,4.4-4.7C285.7,325.5,284,323.7,281.5,323.7z
			 M281.4,331.7c-1.6,0-2.7-1.5-2.7-3.4c0-1.7,0.8-3.4,2.7-3.4c1.9,0,2.6,1.9,2.6,3.4C284.1,330.3,282.9,331.7,281.4,331.7z"/>
		<path d="M295.2,323.9h-1.6v5.4c0,0.3-0.1,0.6-0.1,0.8c-0.3,0.7-1,1.5-2.1,1.5c-1.5,0-2-1.1-2-2.8v-4.9h-1.6v5.2
			c0,3.1,1.7,3.9,3.1,3.9c1.6,0,2.5-0.9,2.9-1.6h0l0.1,1.4h1.4c-0.1-0.7-0.1-1.5-0.1-2.4L295.2,323.9L295.2,323.9z"/>
		<path d="M299.3,325.6L299.3,325.6l-0.1-1.7h-1.4c0.1,0.8,0.1,1.7,0.1,2.8v6.1h1.6V328c0-0.3,0-0.5,0.1-0.8c0.2-1.2,1-2.1,2.2-2.1
			c0.2,0,0.4,0,0.6,0.1v-1.5c-0.2,0-0.3-0.1-0.5-0.1C300.7,323.7,299.7,324.4,299.3,325.6z"/>
		<rect x="307.7" y="319.7" width="1.6" height="13"/>
		<path d="M315.6,323.7c-2.6,0-4.2,2.1-4.2,4.8c0,2.7,1.6,4.5,4.4,4.5c1.4,0,2.4-0.3,2.9-0.6l-0.3-1.2c-0.6,0.3-1.3,0.5-2.5,0.5
			c-1.6,0-3-0.9-3-3.1h6.2c0-0.2,0.1-0.4,0.1-0.7C319.2,326.2,318.4,323.7,315.6,323.7z M313,327.4c0.1-1.1,0.8-2.6,2.5-2.6
			c1.8,0,2.2,1.6,2.2,2.6H313z"/>
		<path d="M331.3,325.2L331.3,325.2c-0.4-0.7-1.3-1.5-2.8-1.5c-2,0-4,1.7-4,4.7c0,2.5,1.6,4.3,3.8,4.3c1.4,0,2.3-0.7,2.8-1.5h0v1
			c0,2.2-1.2,3.1-2.9,3.1c-1.1,0-2-0.3-2.6-0.7l-0.4,1.2c0.7,0.5,1.9,0.7,2.9,0.7c1.1,0,2.4-0.3,3.2-1.1c0.9-0.8,1.3-2,1.3-4v-5.1
			c0-1.1,0-1.8,0.1-2.4h-1.4L331.3,325.2z M331.1,329c0,0.3,0,0.6-0.1,0.9c-0.4,1-1.2,1.6-2.2,1.6c-1.7,0-2.6-1.4-2.6-3.2
			c0-2,1.1-3.3,2.6-3.3c1.2,0,2,0.8,2.3,1.7c0.1,0.2,0.1,0.5,0.1,0.7L331.1,329L331.1,329z"/>
		<polygon points="341.3,320 339.6,320 338,322.7 339.1,322.7 		"/>
		<path d="M338.9,323.7c-2.6,0-4.2,2.1-4.2,4.8c0,2.7,1.6,4.5,4.4,4.5c1.4,0,2.4-0.3,2.9-0.6l-0.3-1.2c-0.6,0.3-1.3,0.5-2.5,0.5
			c-1.6,0-3-0.9-3-3.1h6.2c0-0.2,0.1-0.4,0.1-0.7C342.5,326.2,341.7,323.7,338.9,323.7z M336.3,327.4c0.1-1.1,0.8-2.6,2.5-2.6
			c1.8,0,2.2,1.6,2.2,2.6H336.3z"/>
		<path d="M348.9,323.7c-1.5,0-2.5,0.8-2.9,1.7h0l-0.1-1.5h-1.4c0.1,0.7,0.1,1.5,0.1,2.4v6.5h1.6v-5.3c0-0.3,0-0.5,0.1-0.8
			c0.3-0.9,1.1-1.6,2.2-1.6c1.5,0,2.1,1.2,2.1,2.6v5.1h1.6v-5.3C352.1,324.4,350.1,323.7,348.9,323.7z"/>
		<rect x="354.7" y="323.9" width="1.6" height="8.9"/>
		<path d="M355.5,320.4c-0.6,0-1,0.4-1,1c0,0.6,0.4,1,1,1c0.6,0,1-0.4,1-1C356.5,320.8,356.1,320.4,355.5,320.4z"/>
		<path d="M362.5,323.7c-2.6,0-4.2,2.1-4.2,4.8c0,2.7,1.6,4.5,4.4,4.5c1.4,0,2.4-0.3,2.9-0.6l-0.3-1.2c-0.6,0.3-1.3,0.5-2.5,0.5
			c-1.6,0-3-0.9-3-3.1h6.2c0-0.2,0.1-0.4,0.1-0.7C366.1,326.2,365.4,323.7,362.5,323.7z M359.9,327.4c0.1-1.1,0.8-2.6,2.5-2.6
			c1.8,0,2.2,1.6,2.2,2.6H359.9z"/>
		<path d="M376.1,325c0.9,0,1.5,0.2,1.9,0.4l0.4-1.2c-0.4-0.2-1.3-0.5-2.2-0.5c-2.9,0-4.8,2-4.8,4.7c0,2.7,1.7,4.5,4.4,4.5
			c1.2,0,2.1-0.3,2.5-0.5l-0.3-1.2c-0.5,0.2-1.1,0.4-2,0.4c-1.8,0-3.1-1.3-3.1-3.3C373,326.5,374.1,325,376.1,325z"/>
		<rect x="380.2" y="319.7" width="1.6" height="13"/>
		<path d="M385.3,320.4c-0.6,0-1,0.4-1,1c0,0.6,0.4,1,1,1c0.6,0,1-0.4,1-1C386.3,320.8,385.9,320.4,385.3,320.4z"/>
		<rect x="384.5" y="323.9" width="1.6" height="8.9"/>
		<path d="M398.6,323.7c-0.8,0-1.4,0.2-2,0.6c-0.4,0.3-0.7,0.7-1,1.2h0c-0.4-1-1.3-1.8-2.5-1.8c-1.5,0-2.3,0.8-2.8,1.6h-0.1
			l-0.1-1.4h-1.4c0.1,0.7,0.1,1.5,0.1,2.4v6.5h1.6v-5.3c0-0.3,0-0.5,0.1-0.8c0.3-0.8,1-1.6,2-1.6c1.2,0,1.8,1,1.8,2.4v5.3h1.6v-5.5
			c0-0.3,0.1-0.6,0.1-0.8c0.3-0.8,1-1.5,1.9-1.5c1.3,0,1.9,1,1.9,2.7v5h1.6v-5.2C401.5,324.4,399.7,323.7,398.6,323.7z"/>
		<path d="M410.3,327.3c0-1.8-0.7-3.6-3.4-3.6c-1.1,0-2.2,0.3-2.9,0.8l0.4,1.1c0.6-0.4,1.5-0.7,2.3-0.7c1.8,0,2,1.3,2,2v0.2
			c-3.4,0-5.3,1.1-5.3,3.3c0,1.3,0.9,2.5,2.7,2.5c1.3,0,2.2-0.6,2.7-1.3h0.1l0.1,1.1h1.5c-0.1-0.6-0.1-1.4-0.1-2.1L410.3,327.3
			L410.3,327.3z M408.8,329.7c0,0.2,0,0.3-0.1,0.5c-0.3,0.8-1,1.5-2.1,1.5c-0.8,0-1.5-0.5-1.5-1.5c0-1.7,2-2,3.8-2L408.8,329.7
			L408.8,329.7z"/>
		<path d="M414.8,321.7l-1.6,0.5v1.6h-1.4v1.2h1.4v4.8c0,1,0.2,1.8,0.6,2.3c0.4,0.4,1,0.7,1.7,0.7c0.6,0,1.1-0.1,1.4-0.2l-0.1-1.2
			c-0.2,0.1-0.5,0.1-0.9,0.1c-0.9,0-1.2-0.6-1.2-1.7v-4.8h2.3v-1.2h-2.3L414.8,321.7L414.8,321.7z"/>
		<rect x="418.9" y="323.9" width="1.6" height="8.9"/>
		<path d="M419.7,320.4c-0.6,0-1,0.4-1,1c0,0.6,0.4,1,1,1c0.6,0,1.1-0.4,1-1C420.7,320.8,420.3,320.4,419.7,320.4z"/>
		<path d="M429.3,325.2L429.3,325.2c-0.5-0.9-1.4-1.5-2.8-1.5c-1.9,0-4,1.5-4,4.8c0,2.7,1.7,4.5,3.7,4.5c1.4,0,2.4-0.7,2.9-1.6h0v5
			h1.6v-10c0-0.9,0-1.7,0.1-2.4h-1.5L429.3,325.2z M429.2,329.1c0,0.2-0.1,0.5-0.1,0.8c-0.4,1.1-1.3,1.8-2.3,1.8
			c-1.8,0-2.6-1.5-2.6-3.3c0-2,1-3.4,2.7-3.4c1.2,0,2.1,0.8,2.3,1.8c0.1,0.2,0.1,0.5,0.1,0.7V329.1z"/>
		<path d="M440.9,323.9h-1.6v5.4c0,0.3-0.1,0.6-0.1,0.8c-0.3,0.7-1,1.5-2.1,1.5c-1.5,0-2-1.1-2-2.8v-4.9h-1.6v5.2
			c0,3.1,1.7,3.9,3.1,3.9c1.6,0,2.5-0.9,2.9-1.6h0l0.1,1.4h1.4c-0.1-0.7-0.1-1.5-0.1-2.4L440.9,323.9L440.9,323.9z"/>
		<path d="M450.8,327.8c0-1.6-0.8-4.2-3.6-4.2c-2.6,0-4.2,2.1-4.2,4.8c0,2.7,1.6,4.5,4.4,4.5c1.4,0,2.4-0.3,2.9-0.6l-0.3-1.2
			c-0.6,0.3-1.3,0.5-2.5,0.5c-1.6,0-3-0.9-3-3.1h6.2C450.7,328.4,450.8,328.2,450.8,327.8z M444.5,327.4c0.1-1.1,0.8-2.6,2.5-2.6
			c1.8,0,2.2,1.6,2.2,2.6H444.5z"/>
	</g>
</g>
</svg>
