<?xml version="1.0" encoding="utf-8"?>
<!-- Generator: Adobe Illustrator 21.1.0, SVG Export Plug-In . SVG Version: 6.00 Build 0)  -->
<svg version="1.1" id="Calque_1" xmlns="http://www.w3.org/2000/svg" xmlns:xlink="http://www.w3.org/1999/xlink" x="0px" y="0px"
	 viewBox="0 0 500 182" style="enable-background:new 0 0 500 182;" xml:space="preserve">
<style type="text/css">
	.st0{fill:#E20007;}
	.st1{fill:#FFFFFF;}
	.st2{fill:url(#SVGID_1_);}
	.st3{fill:url(#SVGID_2_);}
	.st4{fill:url(#SVGID_3_);}
	.st5{fill:url(#SVGID_4_);}
</style>
<g>
	<rect x="11" y="37.7" class="st0" width="478" height="105.8"/>
	<path d="M308.6,90.9c-1-5.7-2.9-10.1-5.6-13.5c-2.3-2.8-5.4-5.2-9.2-7.1c2.6-2,4.6-4.4,5.8-7.1c1.4-3.3,1.7-7.2,0.8-11.7l-2.8-15.7
		c-1.2-6.8-4.9-12.2-10.8-16.1c-5.5-3.6-12.6-5.4-21.1-5.4c0,0,0,0-0.1,0l-27.2,0l0,0l-3,0l-1.5,0l0,0l-48.6,0l-1.7,9.7
		c-0.7-1.5-1.7-2.8-2.9-4.1c-4.2-4.3-10.9-6.3-20.5-6.3c0,0,0,0-0.1,0c-10.5,0-18.6,1.9-25,5.7c-5.8,3.5-10.2,9.1-13,16.7
		l-33.8,90.3c-4.7,12.5-3.9,22.8,2.3,30.6c5.9,7.3,15.5,11.1,28.6,11.2c0.1,0,0.3,0,0.4,0c11.9,0,22.6-4.1,31.9-12.1
		c4.8-4.1,8.4-8.6,10.9-13.3l-4.1,23.2l77.8,0.6v0l45.9,0.3c0.1,0,0.2,0,0.3,0c12.7,0,22.4-5.1,28-14.6c4.7-7.9,6.1-17.8,4-29.3
		L308.6,90.9z M275.2,127.2c0.3,3.1-0.1,4.5-0.4,4.9c0,0-0.1,0-0.1,0l-3.3-42L275.2,127.2z M210.2,82.9l23.6,0.1l-0.2,49.2
		l-28.1-0.2L210.2,82.9z M233.9,58l-21.3,0l2.1-22.5l19.2,0L233.9,58z M128.7,130.2c-0.2,0.6-0.4,1-0.6,1.2c0,0-0.1,0.1-0.3,0.1
		L135,107L128.7,130.2z M141.2,85.7l7.3-25l28.7,0l-4.4,25L141.2,85.7z"/>
	<polygon points="383.4,167.7 428.6,168 344.4,14.2 307.3,14.3 318.6,167.2 362.5,167.5 353.6,115.9 360.2,115.9 	"/>
	<path class="st1" d="M173.2,87.5L142,87.4l-11.6,43.2c-0.2,0.9-0.6,1.6-1.2,2.1c-0.5,0.4-1.2,0.6-2.2,0.6c-0.9,0-1.1-0.3-1.2-0.4
		c0,0-0.1-0.4,0.1-0.9l28.5-97.4c0.1-0.3,0.2-0.4,0.3-0.4c0.2-0.1,0.6-0.3,1.6-0.3c0,0,0.1,0,0.1,0l-6.8,25.2l29.1,0l4.4-22.8
		c1.2-6.3,0-11.3-3.6-15c-3.9-3.9-10.2-5.8-19.3-5.8c0,0,0,0-0.1,0c-10.2,0-18,1.8-24.1,5.5c-5.5,3.3-9.6,8.6-12.3,15.8L90.2,127
		c-4.4,11.9-3.8,21.6,2,29c5.5,6.9,14.7,10.5,27.3,10.6c0.1,0,0.2,0,0.4,0c11.5,0,21.8-3.9,30.8-11.6c7.5-6.5,12.1-13.8,13.7-21.9
		L173.2,87.5z"/>
	<path class="st1" d="M306.9,91.2c-1-5.4-2.7-9.6-5.2-12.7c-2.7-3.3-6.5-5.9-11.3-7.9c3.7-2.2,6.3-4.9,7.7-8.1
		c1.2-3,1.5-6.6,0.7-10.8L296,36.1c-1.1-6.3-4.5-11.3-10.1-15c-5.3-3.4-11.9-5.1-20.2-5.1l-30,0v0l-48.8,0l-26.3,148.3l74.1,0.5
		l0.5-31l-31.5-0.2l5-52.5l24.4,0.1l0.5-21.5l-22.9,0l2.5-25.9l22.4,0l-0.4,131.1l47,0.3c0.1,0,0.2,0,0.3,0
		c12.2,0,21.2-4.6,26.5-13.8c4.5-7.5,5.8-17,3.8-28.1L306.9,91.2z M265.3,34c0.8,0.1,1.3,0.3,1.6,0.4c0,0,0.6,0.4,0.8,2.7l2,19.6
		c0.1,1.3,0.1,3.1-0.7,3.5c-0.1,0-0.4,0.1-1.6,0.2L265.3,34z M271.3,81.2c0,0,1,0.5,1.4,4.4l4.3,41.4c0.4,3.5-0.1,5.9-1.2,6.6
		c-0.1,0-0.6,0.3-2.5,0.4l-4.2-53.5C270.1,80.7,270.8,80.9,271.3,81.2z"/>
	<path class="st1" d="M343.3,16l-34.2,0l11,149.5l40.3,0.3l-8.9-51.6l9.7,0l23.2,51.8l41.2,0.3L343.3,16z M349.4,87.2l-2.5,0
		l-2.5-11.9L349.4,87.2z"/>
	<path d="M342.3,17.7l-31.3,0L321.7,163l0.1,0.8l36.7,0.3l-8.9-51.6l12.8,0.1l23.2,51.8l37.2,0.3L342.3,17.7z M356.4,162.3
		l-33.1-0.2L312.8,19.4l28.5,0l78.6,143.4l-33.2-0.2l-23.2-51.8l-16-0.1L356.4,162.3z"/>
	<path d="M335.7,50l8.4,40.6l10.4,0l-17.2-41.1L335.7,50z M345.4,88.9l-6.3-30.6l12.8,30.6L345.4,88.9z"/>
	<path d="M305.2,91.6c-0.9-5.1-2.6-9.1-4.9-11.9c-3.1-3.8-7.9-6.7-14.2-8.7c5.2-2.3,8.7-5.4,10.4-9c1.1-2.6,1.3-5.9,0.6-9.8
		l-2.8-15.7c-1.1-5.8-4.2-10.5-9.4-13.8c-5-3.3-11.3-4.8-19.2-4.8c0,0,0,0-0.1,0l-28.3,0l-0.5,145.4l45.3,0.3c0.1,0,0.2,0,0.3,0
		c11.6,0,20-4.4,25-12.9c4.3-7.2,5.5-16.2,3.5-26.9L305.2,91.6z M282.3,161.8l-43.6-0.3l0.4-142l26.6,0c0,0,0,0,0.1,0
		c7.6,0,13.5,1.5,18.3,4.6c4.8,3.1,7.6,7.3,8.6,12.7l2.8,15.7c0.6,3.5,0.5,6.5-0.5,8.8c-1.7,3.7-5.6,6.7-11.7,9l-2.5,0.9l2.6,0.7
		c7.2,1.9,12.4,4.9,15.7,8.8c2.1,2.6,3.6,6.4,4.5,11.1l5.9,32.1c1.9,10.3,0.8,18.9-3.3,25.8C301.4,157.8,293.3,161.9,282.3,161.8z"
		/>
	<path d="M276,85.3c-0.4-3.9-1.5-6.3-3.3-7.1c-1.6-0.8-3.8-1.2-6.6-1.2l-0.9,0l4.8,60.6l0.8,0c0.1,0,0.2,0,0.3,0
		c4.4,0,5.8-0.5,6.4-0.9c2.4-1.6,3.3-4.9,2.8-9.9L276,85.3z M271.6,135.8l-4.5-57.2c2.1,0.1,3.8,0.4,5,1c1.2,0.6,2,2.6,2.3,5.8
		l4.3,41.4c0.4,4.3-0.3,7.1-2.1,8.3C276.2,135.4,275.1,135.8,271.6,135.8z"/>
	<path d="M273.1,56.4l-2-19.6c-0.3-3-1.2-4.8-2.8-5.5c-1.4-0.6-3.3-0.9-5.7-0.9c0,0,0,0,0,0h-0.9l2.6,33.5l0.8,0c0,0,0.1,0,0.1,0
		c3.7,0,4.9-0.4,5.4-0.6C272.6,62.1,273.4,59.8,273.1,56.4z M265.8,62.2l-2.4-30.1c1.8,0.1,3.1,0.3,4.1,0.7c1.2,0.5,1.7,2.5,1.8,4.1
		l2,19.6c0.3,2.7-0.3,4.4-1.7,5.2C269.4,61.9,268.6,62.2,265.8,62.2z"/>
	<path d="M171.1,89.2l-27.9-0.1L132,131.1c-0.3,1.3-0.9,2.2-1.7,2.9c-0.8,0.7-2,1-3.3,1c-1.1,0-1.9-0.3-2.5-1
		c-0.5-0.6-0.6-1.4-0.3-2.6l28.5-97.4c0.2-0.7,0.5-1.2,1.1-1.4c0.6-0.3,1.4-0.5,2.5-0.5c0,0,0,0,0,0c1.3,0,1.8,0.3,1.9,0.4
		c0.2,0.2,0.1,0.8,0,1.1l-6.4,23.7l25.5,0l4.2-21.4c1.1-5.7,0.1-10.2-3.1-13.5c-3.6-3.6-9.5-5.3-18.1-5.3c0,0,0,0-0.1,0
		c-9.8,0-17.4,1.7-23.2,5.2c-5.2,3.2-9,8.1-11.6,15l-33.8,90.3c-4.2,11.3-3.6,20.5,1.8,27.3c5.2,6.5,13.9,9.8,25.9,9.9
		c0.1,0,0.2,0,0.4,0c11.1,0,21.1-3.8,29.7-11.2c7.2-6.2,11.7-13.3,13.1-20.9L171.1,89.2z M119.9,163.1c-0.1,0-0.2,0-0.3,0
		c-11.5-0.1-19.7-3.2-24.6-9.3c-5-6.3-5.5-14.9-1.5-25.6l33.8-90.3c2.4-6.5,6-11.1,10.9-14.1c5.5-3.3,12.8-5,22.3-5c0,0,0,0,0.1,0
		c8,0,13.7,1.6,16.8,4.8c2.8,2.8,3.7,6.8,2.6,12l-3.9,20l-21.9,0l5.8-21.6c0.4-1.5-0.1-2.4-0.5-2.8c-0.6-0.5-1.6-0.8-3-0.8
		c-1.4,0-2.5,0.2-3.3,0.7c-0.9,0.5-1.6,1.3-1.9,2.5L122.6,131c-0.5,1.7-0.3,3.1,0.6,4.2c0.9,1,2.1,1.5,3.7,1.5
		c1.8,0,3.3-0.5,4.4-1.4c1.1-0.9,1.9-2.2,2.3-3.8l10.9-40.7l24.5,0.1l-8.1,41.4c-1.4,7.3-5.7,14-12.6,20
		C140.1,159.5,130.5,163.1,119.9,163.1z"/>
	<path d="M162.6,162.7l70.3,0.5l0.5-27.6l-31.6-0.2l5.4-55.9l24.3,0.1l0.5-18.1l-23,0l2.8-29.3l23.1,0l0.3-14.4l-46.7,0L162.6,162.7
		z M233.3,19.5l-0.2,10.9l-23,0L207,63.1l23.1,0l-0.4,14.7l-24.1-0.1l-5.7,59.3l31.8,0.2l-0.4,24.2l-66.6-0.5l25.1-141.5L233.3,19.5
		z"/>
	<linearGradient id="SVGID_1_" gradientUnits="userSpaceOnUse" x1="366.3758" y1="18.5153" x2="366.3758" y2="163.6608">
		<stop  offset="0" style="stop-color:#7E7E7F"/>
		<stop  offset="0.492" style="stop-color:#FFFFFF"/>
		<stop  offset="1" style="stop-color:#414143"/>
	</linearGradient>
	<path class="st2" d="M341.3,19.4l-28.5,0l10.5,142.7l33.1,0.2l-8.9-51.6l16,0.1l23.2,51.8l33.2,0.2L341.3,19.4z M344.1,90.6
		L335.7,50l1.6-0.5l17.2,41.1L344.1,90.6z"/>
	<linearGradient id="SVGID_2_" gradientUnits="userSpaceOnUse" x1="274.4991" y1="18.585" x2="274.4991" y2="162.6743">
		<stop  offset="0" style="stop-color:#7E7E7F"/>
		<stop  offset="0.492" style="stop-color:#FFFFFF"/>
		<stop  offset="1" style="stop-color:#414143"/>
	</linearGradient>
	<path class="st3" d="M303.6,91.9c-0.9-4.8-2.4-8.5-4.5-11.1c-3.2-4-8.5-6.9-15.7-8.8l-2.6-0.7l2.5-0.9c6.1-2.3,10-5.3,11.7-9
		c1-2.3,1.2-5.3,0.5-8.8l-2.8-15.7c-1-5.4-3.8-9.6-8.6-12.7c-4.7-3.1-10.7-4.6-18.3-4.6c0,0,0,0-0.1,0l-26.6,0l-0.4,142l43.6,0.3
		c11,0.1,19.1-4,23.9-12.1c4.1-6.8,5.2-15.5,3.3-25.8L303.6,91.9z M265,63.9l-0.8,0l-2.6-33.5h0.9c0,0,0,0,0,0
		c2.5,0,4.3,0.3,5.7,0.9c1.6,0.7,2.5,2.5,2.8,5.5l2,19.6c0.4,3.4-0.5,5.8-2.6,6.9C269.9,63.6,268.8,63.9,265,63.9
		C265,63.9,265,63.9,265,63.9z M277.5,136.6c-0.6,0.4-2,0.9-6.4,0.9c-0.1,0-0.2,0-0.3,0l-0.8,0l-4.8-60.6l0.9,0c2.9,0,5,0.4,6.6,1.2
		c1.8,0.9,2.9,3.2,3.3,7.1l4.3,41.4C280.8,131.6,279.9,134.9,277.5,136.6z"/>
	<linearGradient id="SVGID_3_" gradientUnits="userSpaceOnUse" x1="198.962" y1="18.6139" x2="198.962" y2="162.317">
		<stop  offset="0" style="stop-color:#7E7E7F"/>
		<stop  offset="0.492" style="stop-color:#FFFFFF"/>
		<stop  offset="1" style="stop-color:#414143"/>
	</linearGradient>
	<polygon class="st4" points="231.3,161.5 231.7,137.3 199.9,137.1 205.6,77.8 229.7,77.8 230.1,63.1 207,63.1 210.1,30.4 
		233.1,30.4 233.3,19.5 189.7,19.5 164.6,161 	"/>
	<linearGradient id="SVGID_4_" gradientUnits="userSpaceOnUse" x1="135.4981" y1="18.0055" x2="135.4981" y2="163.9945">
		<stop  offset="0" style="stop-color:#7E7E7F"/>
		<stop  offset="0.492" style="stop-color:#FFFFFF"/>
		<stop  offset="1" style="stop-color:#414143"/>
	</linearGradient>
	<path class="st5" d="M144.6,90.8l-10.9,40.7c-0.4,1.6-1.2,2.9-2.3,3.8c-1.1,0.9-2.6,1.4-4.4,1.4c-1.6,0-2.8-0.5-3.7-1.5
		c-0.9-1-1.1-2.4-0.6-4.2l28.5-97.4c0.3-1.1,1-1.9,1.9-2.5c0.8-0.5,1.9-0.7,3.3-0.7c1.4,0,2.4,0.3,3,0.8c0.5,0.4,1,1.3,0.5,2.8
		l-5.8,21.6l21.9,0l3.9-20c1-5.2,0.1-9.1-2.6-12c-3.2-3.2-8.9-4.8-16.8-4.8c0,0,0,0-0.1,0c-9.5,0-16.8,1.6-22.3,5
		c-4.9,3-8.4,7.6-10.9,14.1l-33.8,90.3c-4,10.7-3.5,19.3,1.5,25.6c4.9,6.1,13.2,9.2,24.6,9.3c0.1,0,0.2,0,0.3,0
		c10.7,0,20.3-3.6,28.6-10.8c6.9-6,11.2-12.7,12.6-20l8.1-41.4L144.6,90.8z"/>
</g>
</svg>
