<?xml version="1.0" encoding="utf-8"?>
<!-- Generator: Adobe Illustrator 19.1.0, SVG Export Plug-In . SVG Version: 6.00 Build 0)  -->
<svg version="1.1" id="Calque_1" xmlns="http://www.w3.org/2000/svg" xmlns:xlink="http://www.w3.org/1999/xlink" x="0px" y="0px"
	 viewBox="0 0 500 500" style="enable-background:new 0 0 500 500;" xml:space="preserve">
<style type="text/css">
	.st0{fill:#E21B25;}
</style>
<g>
	<g>
		<polygon class="st0" points="135.3,123.5 412.3,123.5 397.3,199 301,199 276.4,319.9 200.9,319.9 225.5,199 119.6,199.2 		"/>
		<path d="M279.8,324h-83.9l24.5-120.8l-105.9,0.2l17.4-83.9h285.4l-16.7,83.7h-96.3L279.8,324z M205.9,315.8h67.1l24.6-120.8h96.3
			l13.4-67.3H138.6l-14,67.5l105.9-0.2L205.9,315.8z"/>
	</g>
	<g>
		<path d="M117.5,214.9h83.3l-21.4,104.1c0,0-5.2,13.9,13.9,12.1H278c0,0,14-1.7,15.7-17.4l19.4-95.4h81l-28,138.8
			c0,0-9.6,36.4-39.1,38.2H123c0,0-36.2-4.2-31.6-46.4L117.5,214.9z"/>
	</g>
	<g>
		<path d="M250,479.1c-61.2,0-118.7-23.8-162-67.1c-43.3-43.3-67.1-100.8-67.1-162c0-61.2,23.8-118.7,67.1-162
			c43.3-43.3,100.8-67.1,162-67.1c61.2,0,118.7,23.8,162,67.1c43.3,43.3,67.1,100.8,67.1,162S455.3,368.7,412,412
			C368.7,455.3,311.2,479.1,250,479.1z M250,29.1C128.2,29.1,29.1,128.2,29.1,250c0,121.8,99.1,220.9,220.9,220.9
			c121.8,0,220.9-99.1,220.9-220.9C470.9,128.2,371.8,29.1,250,29.1z"/>
	</g>
</g>
</svg>
