<?xml version="1.0" encoding="utf-8"?>
<!-- Generator: Adobe Illustrator 15.0.0, SVG Export Plug-In . SVG Version: 6.00 Build 0)  -->
<!DOCTYPE svg PUBLIC "-//W3C//DTD SVG 1.1//EN" "http://www.w3.org/Graphics/SVG/1.1/DTD/svg11.dtd">
<svg version="1.1" id="Calque_1" xmlns="http://www.w3.org/2000/svg" xmlns:xlink="http://www.w3.org/1999/xlink" x="0px" y="0px"
	 width="500px" height="500px" viewBox="0 0 500 500" enable-background="new 0 0 500 500" xml:space="preserve">
<g>
	<path fill="#1A171B" d="M85.985,238.595c0-5.394-1.494-9.495-4.478-12.299c-2.986-2.805-7.282-4.208-12.892-4.208
		c-4.604,0-8.614,1.044-12.03,3.129c-3.417,2.087-6.257,4.82-8.523,8.199c-2.265,3.382-3.974,7.193-5.124,11.437
		c-1.151,4.245-1.727,8.523-1.727,12.838c0,7.193,1.835,12.838,5.502,16.938c3.669,4.1,8.882,6.149,15.644,6.149
		c3.452,0,6.365-0.665,8.738-1.997c2.374-1.329,4.332-2.947,5.88-4.854c1.545-1.905,2.732-3.865,3.56-5.88
		c0.826-2.013,1.42-3.669,1.78-4.964h13.485c-1.079,4.893-2.697,9.136-4.854,12.731c-2.158,3.598-4.73,6.581-7.714,8.954
		c-2.985,2.373-6.294,4.137-9.925,5.287c-3.633,1.148-7.428,1.726-11.382,1.726c-5.54,0-10.429-0.863-14.672-2.589
		c-4.244-1.727-7.805-4.1-10.681-7.121c-2.877-3.021-5.07-6.581-6.581-10.681c-1.51-4.099-2.266-8.522-2.266-13.27
		c0-8.055,1.204-15.05,3.615-20.984c2.408-5.934,5.573-10.824,9.493-14.672c3.92-3.847,8.342-6.706,13.271-8.576
		c4.925-1.87,9.906-2.806,14.942-2.806c4.531,0,8.701,0.611,12.514,1.834c3.812,1.224,7.066,2.986,9.763,5.286
		c2.697,2.303,4.764,5.179,6.204,8.631c1.438,3.453,2.085,7.373,1.942,11.76H85.985z"/>
	<path fill="#1A171B" d="M118.348,212.918h56.101l-2.373,11.652h-42.832l-4.207,20.175h39.702l-2.267,11.003h-39.81l-4.639,22.549
		h43.155l-2.374,11.651h-56.424L118.348,212.918z"/>
	<path fill="#1A171B" d="M186.424,212.918h52.54l-2.374,11.652h-39.161l-4.208,20.175h33.984l-2.374,11.003h-33.876l-7.12,34.2
		h-13.485L186.424,212.918z"/>
	<path fill="#1A171B" d="M250.721,212.918h13.485l-16.074,77.03h-13.485L250.721,212.918z"/>
	<path fill="#1A171B" d="M280.605,212.918h13.485l-13.594,65.379h38.839l-2.373,11.651h-52.324L280.605,212.918z"/>
	<path fill="#1A171B" d="M365.832,212.918h14.242l13.377,77.03h-13.702l-3.129-20.39h-30.638l-11.868,20.39h-14.456L365.832,212.918
		z M370.472,226.512h-0.216L351.7,259.309h23.519L370.472,226.512z"/>
	<path fill="#1A171B" d="M461.635,238.595c0-5.394-1.493-9.495-4.477-12.299c-2.986-2.805-7.283-4.208-12.893-4.208
		c-4.604,0-8.614,1.044-12.03,3.129c-3.416,2.087-6.257,4.82-8.522,8.199c-2.266,3.382-3.975,7.193-5.124,11.437
		c-1.151,4.245-1.728,8.523-1.728,12.838c0,7.193,1.835,12.838,5.503,16.938c3.669,4.1,8.882,6.149,15.644,6.149
		c3.452,0,6.365-0.665,8.738-1.997c2.374-1.329,4.332-2.947,5.881-4.854c1.545-1.905,2.731-3.865,3.56-5.88
		c0.826-2.013,1.42-3.669,1.78-4.964h13.485c-1.079,4.893-2.697,9.136-4.854,12.731c-2.158,3.598-4.73,6.581-7.715,8.954
		s-6.294,4.137-9.925,5.287c-3.633,1.148-7.428,1.726-11.382,1.726c-5.539,0-10.429-0.863-14.672-2.589
		c-4.244-1.727-7.805-4.1-10.682-7.121c-2.877-3.021-5.069-6.581-6.581-10.681c-1.51-4.099-2.266-8.522-2.266-13.27
		c0-8.055,1.204-15.05,3.615-20.984c2.408-5.934,5.573-10.824,9.493-14.672c3.92-3.847,8.343-6.706,13.271-8.576
		c4.926-1.87,9.906-2.806,14.942-2.806c4.531,0,8.701,0.611,12.514,1.834c3.812,1.224,7.066,2.986,9.764,5.286
		c2.697,2.303,4.764,5.179,6.204,8.631c1.438,3.453,2.085,7.373,1.941,11.76H461.635z"/>
</g>
</svg>
