<?xml version="1.0" encoding="utf-8"?>
<!-- Generator: Adobe Illustrator 21.0.2, SVG Export Plug-In . SVG Version: 6.00 Build 0)  -->
<svg version="1.1" id="Calque_1" xmlns="http://www.w3.org/2000/svg" xmlns:xlink="http://www.w3.org/1999/xlink" x="0px" y="0px"
	 viewBox="0 0 500 136" style="enable-background:new 0 0 500 136;" xml:space="preserve">
<style type="text/css">
	.st0{fill:#1A171B;}
</style>
<path class="st0" d="M86,56.6c0-5.4-1.5-9.5-4.5-12.3s-7.3-4.2-12.9-4.2c-4.6,0-8.6,1-12,3.1s-6.3,4.8-8.5,8.2
	c-2.3,3.4-4,7.2-5.1,11.4c-1.2,4.2-1.7,8.5-1.7,12.8c0,7.2,1.8,12.8,5.5,16.9s8.9,6.1,15.6,6.1c3.5,0,6.4-0.7,8.7-2
	c2.4-1.3,4.3-2.9,5.9-4.9c1.5-1.9,2.7-3.9,3.6-5.9c0.8-2,1.4-3.7,1.8-5h13.5c-1.1,4.9-2.7,9.1-4.9,12.7c-2.2,3.6-4.7,6.6-7.7,9
	s-6.3,4.1-9.9,5.3c-3.6,1.1-7.4,1.7-11.4,1.7c-5.5,0-10.4-0.9-14.7-2.6c-4.2-1.7-7.8-4.1-10.7-7.1c-2.9-3-5.1-6.6-6.6-10.7
	s-2.3-8.5-2.3-13.3c0-8.1,1.2-15.1,3.6-21s5.6-10.8,9.5-14.7c3.9-3.8,8.3-6.7,13.3-8.6C59,29.6,64,28.7,69,28.7
	c4.5,0,8.7,0.6,12.5,1.8c3.8,1.2,7.1,3,9.8,5.3s4.8,5.2,6.2,8.6c1.4,3.5,2.1,7.4,1.9,11.8L86,56.6L86,56.6z"/>
<path class="st0" d="M118.3,30.9h56.1L172,42.6h-42.8L125,62.8h39.7l-2.3,11h-39.8L118,96.3h43.2l-2.4,11.7h-56.4L118.3,30.9z"/>
<path class="st0" d="M186.4,30.9h52.5l-2.4,11.7h-39.2l-4.2,20.2h34l-2.4,11H191l-7.1,34.2h-13.5L186.4,30.9z"/>
<path class="st0" d="M250.7,30.9h13.5l-16.1,77h-13.5L250.7,30.9z"/>
<path class="st0" d="M280.6,30.9h13.5l-13.6,65.4h38.8l-2.4,11.7h-52.3L280.6,30.9z"/>
<path class="st0" d="M365.8,30.9H380l13.4,77h-13.7l-3.1-20.4H346l-11.9,20.4h-14.5L365.8,30.9z M370.5,44.5h-0.2l-18.6,32.8h23.5
	L370.5,44.5z"/>
<path class="st0" d="M461.6,56.6c0-5.4-1.5-9.5-4.5-12.3s-7.3-4.2-12.9-4.2c-4.6,0-8.6,1-12,3.1c-3.4,2.1-6.3,4.8-8.5,8.2
	c-2.3,3.4-4,7.2-5.1,11.4c-1.2,4.2-1.7,8.5-1.7,12.8c0,7.2,1.8,12.8,5.5,16.9c3.7,4.1,8.9,6.1,15.6,6.1c3.5,0,6.4-0.7,8.7-2
	c2.4-1.3,4.3-2.9,5.9-4.9c1.5-1.9,2.7-3.9,3.6-5.9c0.8-2,1.4-3.7,1.8-5h13.5c-1.1,4.9-2.7,9.1-4.9,12.7c-2.2,3.6-4.7,6.6-7.7,9
	s-6.3,4.1-9.9,5.3c-3.6,1.1-7.4,1.7-11.4,1.7c-5.5,0-10.4-0.9-14.7-2.6c-4.2-1.7-7.8-4.1-10.7-7.1s-5.1-6.6-6.6-10.7
	s-2.3-8.5-2.3-13.3c0-8.1,1.2-15.1,3.6-21s5.6-10.8,9.5-14.7c3.9-3.8,8.3-6.7,13.3-8.6c4.9-1.9,9.9-2.8,14.9-2.8
	c4.5,0,8.7,0.6,12.5,1.8c3.8,1.2,7.1,3,9.8,5.3c2.7,2.3,4.8,5.2,6.2,8.6c1.4,3.5,2.1,7.4,1.9,11.8L461.6,56.6L461.6,56.6z"/>
</svg>
