<?xml version="1.0" encoding="utf-8"?>
<!-- Generator: Adobe Illustrator 21.1.0, SVG Export Plug-In . SVG Version: 6.00 Build 0)  -->
<svg version="1.1" id="Calque_1" xmlns="http://www.w3.org/2000/svg" xmlns:xlink="http://www.w3.org/1999/xlink" x="0px" y="0px"
	 viewBox="0 0 482 134" style="enable-background:new 0 0 482 134;" xml:space="preserve">
<style type="text/css">
	.st0{fill:#E52338;}
	.st1{fill:#FFFFFF;}
</style>
<polygon points="199.2,100.4 191.5,100.4 191.5,106.7 199.1,106.7 199.1,109.8 191.5,109.8 191.5,117.3 200.6,117.3 200.6,120.4 
	186.9,120.4 186.9,97.3 199.2,97.3 "/>
<rect x="203.9" y="96.2" width="4.4" height="24.2"/>
<path d="M216.1,112.5c-0.1,3.1,2.1,5.4,4.8,5.4c1.6,0,3.3-0.6,4.4-1.3l1.3,2.3c-2.2,1.3-4.6,1.8-6.5,1.8c-5,0-8.7-3.5-8.7-9
	c0-5.1,3.7-8.3,8.4-8.3c5.1,0,7.3,4.1,6.9,9H216.1z M222.7,110.2c0.2-2.5-0.7-4.2-2.9-4.2c-2.5,0-3.6,2-3.6,4.2H222.7z"/>
<path d="M242.9,119.5c-1.4,0.8-3.2,1.3-4.7,1.3c-6.8,0-9.1-5.2-9.1-8.6c0-4.6,3.5-8.7,9.3-8.7c1.3,0,2.9,0.3,4.3,1.1l-1.1,2.5
	c-1-0.4-1.9-0.7-2.9-0.7c-2.5,0-5,1.7-5,5.5c0,3.3,1.9,5.8,5,5.8c1,0,2.1-0.2,3.2-0.8L242.9,119.5z"/>
<path d="M250.6,103.9h4.3v2.2h-4.3v8.1c0,2.7,0.8,3.8,2.3,3.8c1,0,1.5-0.3,2.1-0.6l0.8,2.2c-1.3,0.7-2.9,1.1-4.3,1.1
	c-3.6,0-5.2-1.9-5.2-5.3v-9.3H244v-2.2h2.3V100l4.4-1V103.9z"/>
<path d="M262.3,106.8L262.3,106.8l1-1.3c0.5-0.7,1.5-2,2.8-2c1,0,2,0.5,3,1.5l-1.6,3c-0.7-0.4-1.2-0.6-2.1-0.6c-1.5,0-3,1.2-3,4.8
	v8.1h-4.4v-16.5h4.3V106.8z"/>
<path d="M270.4,99c0-1.2,1.1-2.5,2.5-2.5c1.5,0,2.7,1.3,2.7,2.5c0,1.4-1,2.8-2.6,2.8C271.4,101.7,270.4,100.4,270.4,99 M275.2,120.4
	h-4.4v-16.5h4.4V120.4z"/>
<path d="M292.2,119.5c-1.4,0.8-3.2,1.3-4.7,1.3c-6.8,0-9.1-5.2-9.1-8.6c0-4.6,3.5-8.7,9.3-8.7c1.3,0,2.9,0.3,4.3,1.1l-1.1,2.5
	c-1-0.4-1.9-0.7-2.9-0.7c-2.5,0-5,1.7-5,5.5c0,3.3,1.9,5.8,5,5.8c1,0,2.1-0.2,3.2-0.8L292.2,119.5z"/>
<path d="M302.8,118.8c-1.2,1-2.7,2-4.2,2c-2.6,0-4.7-2-4.7-5c0-3.1,2.3-4.9,6.1-6l3.9-1.2c-0.2-1.5-1.6-2.5-3-2.5
	c-1.9,0-3.2,0.7-4.3,1.7l-1.4-2.1c2-1.7,4.1-2.2,6.3-2.2c3,0,6.7,1,6.7,6.1v6.7c0,1.3,0.2,2.9,0.7,4h-4.6c-0.3-0.6-0.4-1.5-0.4-2.4
	L302.8,118.8z M301.4,111.6c-2.1,0.7-3.2,1.9-3.2,3.8c0,1.4,0.9,2.4,2,2.4c1.7,0,4-2.2,3.7-7L301.4,111.6z"/>
<rect x="312.1" y="96.2" width="4.4" height="24.2"/>
<path d="M333.1,120.4h-4.6v-23h7.2c5.2,0,8.4,2.2,8.4,6.6c0,3.9-3.4,7.7-8.9,7.7h-1.1v-2.9l1-0.1c2.2-0.1,4.3-1.5,4.3-4.6
	c0-2.4-1.5-3.7-4.3-3.7h-2.1V120.4z"/>
<path d="M351.5,106.8L351.5,106.8l1-1.3c0.5-0.7,1.5-2,2.8-2c1,0,2,0.5,3,1.5l-1.6,3c-0.7-0.4-1.2-0.6-2.1-0.6c-1.5,0-3,1.2-3,4.8
	v8.1h-4.4v-16.5h4.3V106.8z"/>
<path d="M359.1,111.9c0-5.3,4.2-8.4,8.6-8.4c4.4,0,8.7,3.1,8.7,8.4c0,5.1-3.5,8.8-8.7,8.8C362.6,120.8,359.1,117,359.1,111.9
	 M371.7,111.9c0-2.7-1-6-4-6c-3,0-4,3.3-4,6c0,2.9,0.9,6.4,4,6.4C370.9,118.3,371.7,114.8,371.7,111.9"/>
<path d="M391.3,118L391.3,118c-1.2,1.4-2.9,2.8-5.4,2.8c-4.3,0-7.2-3.6-7.2-8.8c0-4.3,3.1-8.4,7.5-8.4c2.1,0,4,0.9,5,2.3h0.1v-9.6
	h4.4v24.2h-4.4V118z M383.3,111.8c0,3.2,1.3,6.3,3.8,6.3c2.9,0,4.2-3.2,4.2-6.5c0-2.9-1.3-5.5-4-5.5
	C384.5,106.1,383.3,108.6,383.3,111.8"/>
<path d="M410.4,118.3c-1.5,1.5-3.2,2.4-5.2,2.4c-3.5,0-5.6-2.1-5.6-6.3v-10.6h4.4v10c0,2.3,1,3.8,3.1,3.8c1.5,0,3.3-1.3,3.3-4.3
	v-9.5h4.4v16.5h-4.3V118.3z"/>
<path d="M431.8,119.5c-1.4,0.8-3.2,1.3-4.7,1.3c-6.8,0-9.1-5.2-9.1-8.6c0-4.6,3.5-8.7,9.3-8.7c1.3,0,2.9,0.3,4.3,1.1l-1.1,2.5
	c-1-0.4-1.9-0.7-2.9-0.7c-2.5,0-5,1.7-5,5.5c0,3.3,1.9,5.8,5,5.8c1,0,2.1-0.2,3.2-0.8L431.8,119.5z"/>
<path d="M439.5,103.9h4.3v2.2h-4.3v8.1c0,2.7,0.8,3.8,2.3,3.8c1,0,1.5-0.3,2.1-0.6l0.8,2.2c-1.3,0.7-2.9,1.1-4.3,1.1
	c-3.6,0-5.2-1.9-5.2-5.3v-9.3h-2.3v-2.2h2.3V100l4.4-1V103.9z"/>
<path d="M455.7,107c-1-0.7-2-1.1-2.8-1.1c-1,0-2,0.6-2,1.7c0,1.3,1.6,2.1,3.4,3.4c2.3,1.7,3,3.5,3,5c0,2.3-2.5,4.7-6.2,4.7
	c-2.3,0-4-0.8-5.5-1.9l1.4-2.3c1,0.8,2.4,1.6,3.6,1.6c1.3,0,2.4-0.7,2.4-2c0-1.5-1.7-2.4-3.3-3.5c-1.9-1.3-3.2-2.5-3.2-4.6
	c0-2.6,2.5-4.5,5.7-4.5c1.8,0,3.6,0.5,4.8,1.5L455.7,107z"/>
<path class="st0" d="M296.4,22.8h19.7l24.5,53.6h-18.6l-3.5-8.7h-24.2l-3.5,8.7H272L296.4,22.8z M314.4,58l-8.2-21.2L298,58H314.4z"
	/>
<path class="st0" d="M390.2,72.4c-5.6,3.1-12.6,4.7-20,4.7c-22.4,0-30.1-15-30.1-27.3c0-15.6,11.4-27.8,31.1-27.8
	c7.1,0,13.4,1.3,18.6,3.6v15.6c-5.4-3.5-10.1-5-15.6-5c-9.4,0-15.3,5-15.3,13.2c0,8,6,13.2,15.4,13.2c5.4,0,9.8-1.3,15.9-4.7V72.4z"
	/>
<polygon class="st0" points="93,22.8 133.2,22.8 133.2,34.1 111.8,34.1 111.8,43.6 131.4,43.6 131.4,54.9 111.8,54.9 111.8,65.1 
	133.5,65.1 133.5,76.4 93,76.4 "/>
<polygon class="st0" points="139.1,22.8 157.9,22.8 157.9,63 178.9,63 178.9,76.4 139.1,76.4 "/>
<polygon class="st0" points="185,22.8 203.8,22.8 203.8,63 224.9,63 224.9,76.4 185,76.4 "/>
<path class="st0" d="M230.8,22.8h27.7c15.6,0,21.3,8.3,21.3,16.9c0,8.3-5.3,17.6-22.3,17.6h-7.9v19.1h-18.8V22.8z M254.3,47.3
	c5.9,0,8.3-2.8,8.3-7.4c0-4.6-2.3-7.2-8.3-7.2h-4.6v14.5H254.3z"/>
<polygon class="st0" points="398.2,22.8 417,22.8 417,47.1 438.5,22.8 458.2,22.8 436.4,47.7 459,76.4 436.6,76.4 417.2,51.3 
	417,51.3 417,76.4 398.2,76.4 "/>
<path class="st1" d="M64.5,62.6c-1.9,0-3.7-0.2-5.4-0.5l0,0c-2.7-0.6-5.1-1.5-7.1-2.9l0,0c-0.6-0.4-1.2-0.9-1.8-1.5l0,0
	c-1-1-1.8-2-2.5-3.2l0,0c-0.6-1.1-1.1-2.3-1.4-3.6l0,0c-0.2-0.9-0.4-1.9-0.5-3l0,0c0-0.4-0.1-0.8-0.1-1.3c0-9.9,7.1-16,18.5-16
	c6.6,0,12.3,1.8,18.9,6v-19c-6.3-2.9-13.9-4.4-22.5-4.4C36.8,13.2,23,27.9,23,46.9c0,6.1,1.6,12.8,5.3,18.5l0,0
	c0.4,0.7,0.9,1.3,1.4,2l0,0c0.7,0.9,1.5,1.8,2.3,2.7l0,0c0.9,0.9,2,1.8,3.1,2.7l0,0c0.6,0.5,1.2,0.9,1.9,1.3l0,0
	c2,1.3,4.2,2.4,6.7,3.3l0,0c4.4,1.6,9.6,2.5,15.8,2.5c9,0,17.4-1.9,24.2-5.7V56.9C76.4,61,71,62.6,64.5,62.6z"/>
<path class="st0" d="M50.2,57.7L35.2,72.8c0.6,0.5,1.2,0.9,1.9,1.3L52,59.2C51.4,58.7,50.8,58.2,50.2,57.7"/>
<path class="st0" d="M46.3,50.8L29.7,67.4c0.7,0.9,1.5,1.8,2.3,2.7l15.6-15.6C47.1,53.3,46.6,52.1,46.3,50.8"/>
<path class="st0" d="M64.5,62.6c-1.9,0-3.7-0.2-5.4-0.5L43.7,77.4c4.4,1.6,9.6,2.5,15.8,2.5c9,0,17.4-1.9,24.2-5.7V56.9
	C76.4,61,71,62.6,64.5,62.6"/>
<path class="st0" d="M45.8,46.6c0-9.9,7.1-16,18.5-16c6.6,0,12.3,1.8,18.9,6v-19c-6.3-2.9-13.9-4.4-22.5-4.4
	C36.8,13.2,23,27.9,23,46.9c0,6.1,1.6,12.8,5.3,18.5l17.5-17.5C45.8,47.5,45.8,47,45.8,46.6"/>
</svg>
