<?xml version="1.0" encoding="utf-8"?>
<!-- Generator: Adobe Illustrator 21.0.2, SVG Export Plug-In . SVG Version: 6.00 Build 0)  -->
<svg version="1.1" id="Calque_1" xmlns="http://www.w3.org/2000/svg" xmlns:xlink="http://www.w3.org/1999/xlink" x="0px" y="0px"
	 viewBox="0 0 500 500" style="enable-background:new 0 0 500 500;" xml:space="preserve">
<style type="text/css">
	.st0{fill:#005EA1;}
</style>
<path class="st0" d="M250,449.6c109.6,0,199-89.1,199.6-197.8c0.5-110.5-88-200.2-197.8-201.1c-111.1-1-201.1,88.6-201.3,198.6
	C50.4,360.4,139.3,449.6,250,449.6 M267.7,475h-35.2c-0.6-0.3-1.2-0.6-1.9-0.8c-6-0.8-11.9-1.4-17.8-2.2
	c-94.5-14.2-173.2-95.1-185.4-189.6c-0.6-4.9-1.5-9.7-2.2-14.5v-35.2c0.3-0.8,0.6-1.5,0.8-2.2c1-7.5,1.8-15.1,3.1-22.6
	C52,86.1,170.5,5.8,292.1,29.1c118.5,22.6,198,134.8,180.4,254.4C458,381.8,379.9,459.2,281.2,473
	C276.5,473.6,272.2,474.4,267.7,475"/>
<polygon class="st0" points="313.1,93.1 313.1,128.8 233.8,128.8 233.8,213.2 303.2,213.2 303.2,248.7 233.8,248.7 233.8,368 
	313,368 313,405.6 194.1,405.6 194.1,93.1 "/>
<path class="st0" d="M317.5,317.6c2.5,1.1,4.6,2.1,7,3c9.3,3.9,19,6,29.2,4.9c12.8-1.4,20.4-8.8,22.2-21.6
	c1.9-14.4-2.9-25.5-15.6-32.8c-6-3.5-12.1-6.9-18.3-10.4c-19.9-10.9-29.4-28-30.6-50.4c-0.8-13.3,0.6-26.5,6.4-38.8
	c12.1-26.1,40.6-38.8,70.2-31.3c4,1.1,7.9,2.2,11.8,3.4V181c-2.2-1.1-4.4-1.8-6.3-2.7c-9.8-4.5-19.8-6.8-30.6-3.9
	c-8.5,2.2-13.9,7.6-15.7,16.4c-2.7,12.6,0.1,23.2,10.9,30.7c5.7,4.1,12,7.2,17.8,10.9c5.4,3.3,10.8,6.3,15.7,10.1
	c17.7,13.3,22.9,32.1,22,53.1c-0.7,16.5-5.1,31.8-15.6,44.8c-11.1,13.6-25.6,20.9-43.2,21.9c-12,0.8-23.7-0.3-35.2-4.2
	c-1.6-0.6-2.7-1.2-2.7-3.3l0.1-35.2C317.2,319,317.3,318.5,317.5,317.6"/>
<path class="st0" d="M180.6,313.9c0.4,12.8,0.9,24.9,1.2,37c0,1-1.2,2.7-2.2,3.3c-33.4,18.7-70.2,6.8-86.2-27.9
	c-6.8-14.5-10.1-30.1-11.5-46c-2.6-28.3-1.3-56.5,6.4-84.1c4.1-14.4,10.2-27.7,20.4-38.8c17.7-19.2,39.4-22.5,63.6-16.2
	c8.5,2.2,8.5,2.4,8.2,11.1c-0.3,10.4-0.4,20.7-0.8,31.5c-1.6-0.8-2.7-1.5-4.1-1.9c-5.6-1.8-10.9-4.4-16.6-5.2
	c-13-2.1-23.2,2.8-30.1,14.2c-5.7,9.3-8.2,19.6-9.4,30.1c-3,24.3-3,48.4,2.5,72.4c0.9,3.9,2.4,7.6,4.1,11.2
	c8.6,18.3,28.6,24.7,46.3,14.7C175,317.9,177.4,316,180.6,313.9"/>
</svg>
