<?xml version="1.0" encoding="utf-8"?>
<!-- Generator: Adobe Illustrator 19.1.0, SVG Export Plug-In . SVG Version: 6.00 Build 0)  -->
<svg version="1.1" id="Calque_2" xmlns="http://www.w3.org/2000/svg" xmlns:xlink="http://www.w3.org/1999/xlink" x="0px" y="0px"
	 viewBox="0 0 500 500" style="enable-background:new 0 0 500 500;" xml:space="preserve">
<style type="text/css">
	.st0{fill:#E2001A;}
	.st1{fill:#FFFFFF;}
</style>
<g>
	<rect x="25" y="127.7" class="st0" width="450" height="189.5"/>
	<path class="st1" d="M406.4,158.7h-0.2H372H175.5v19.5v10.1v20.4v28v21.2v29.6v0.2h34.2v-0.2h61.6v-29.6h-61.6v-21.2H244v-28h-34.2
		v-20.4h77.4v99.3H320v-99.3h40.1L320,287.6h35.8l7.6-24.1h46.7l10.8,24.1h32.8L406.4,158.7z M388.3,239.1h-12.7l12.7-36.8
		l12.7,36.8H388.3z"/>
	<path class="st1" d="M132.5,222.9c0,13.6-11,24.6-24.6,24.6c-13.6,0-24.6-11-24.6-24.6c0-13.6,11-24.6,24.6-24.6
		C121.5,198.3,132.5,209.3,132.5,222.9z"/>
	<path class="st1" d="M140.1,236.4c-5.3,12.6-17.7,21.4-32.2,21.4c-19.3,0-34.9-15.6-34.9-34.9c0-19.3,15.6-34.9,34.9-34.9
		c14.1,0,26.2,8.4,31.7,20.4h36c-6.7-31.3-34.4-54.8-67.7-54.8c-38.2,0-69.2,31-69.2,69.2c0,38.2,31,69.2,69.2,69.2
		c33.6,0,61.6-24,67.9-55.7L140.1,236.4L140.1,236.4z"/>
	<g>
		<path class="st0" d="M175.3,336.7h3.5l-6.8,31.8h14.3l-0.7,3.1h-17.9L175.3,336.7z"/>
		<path class="st0" d="M199,360.8l-5.2,11.5l-3.2-0.9l16.2-34.7h4.2l1.5,34.7l-3.7,0.9l-0.3-11.5H199z M207.9,341.4h-0.1l-7.3,16.3
			h7.9L207.9,341.4z"/>
	</g>
	<g>
		<path class="st0" d="M246.3,354.3c-3.8-2.4-6.3-4-5.1-9.2c1.1-4.7,5.5-8.9,10.9-8.9c5.4,0,7.1,3.5,7.1,7.9l-3.9,0.5
			c0-2.6-0.8-5.1-4.1-5.1c-3.6,0-5.6,2.7-6.3,5.6c-0.6,2.8-0.3,3.7,5,7c4.1,2.6,6.8,4.7,5.5,10.1c-1.3,5.5-5.5,9.8-11.9,9.8
			c-6.7,0-8.2-4.1-7.5-9.6l3.9-0.5c-0.4,3.9-0.2,6.8,4.5,6.8c3.3,0,6.2-2,7.1-6.2C252.6,357.9,249.8,356.4,246.3,354.3z"/>
		<path class="st0" d="M286.8,354.1c-1,4.4-4,18-14.7,18c-10.8,0-7.4-13.5-6.4-18c1.3-5.8,4.6-17.9,14.7-17.9
			C291.1,336.2,287.9,349.5,286.8,354.1z M269.7,354.1c-2.2,9.4-2.2,14.7,3.1,14.7c6.6,0,8.6-8.6,10-14.7c1.5-6.6,3.5-14.6-3.2-14.6
			C272.9,339.5,270.9,349,269.7,354.1z"/>
		<path class="st0" d="M301.4,336.7h3.8l-7.4,31.8h15.6l-0.7,3.1h-19.5L301.4,336.7z"/>
		<path class="st0" d="M332,336.7l-5.9,25.4c-0.8,3.5-0.9,6.7,3.9,6.7c4.7,0,6.3-3.3,7.1-6.7l5.9-25.4h3.8l-6.2,26.4
			c-1.3,5.4-5.8,9-11.4,9c-5.8,0-8.4-3.6-7.3-8.8l6.2-26.6L332,336.7L332,336.7z"/>
		<path class="st0" d="M363.5,339.8h-8.2l0.7-3.1h20.1l-0.7,3.1h-8l-7.4,31.8h-3.8L363.5,339.8z"/>
		<path class="st0" d="M391.9,339.8h-5.1l0.7-3.1h14.2l-0.7,3.1h-5.2l-6.6,28.6h5.2l-0.7,3.1h-14.2l0.7-3.1h5.1L391.9,339.8z"/>
		<path class="st0" d="M429.7,354.1c-1,4.4-4,18-14.7,18c-10.8,0-7.4-13.5-6.4-18c1.3-5.8,4.6-17.9,14.7-17.9
			C434,336.2,430.8,349.5,429.7,354.1z M412.6,354.1c-2.2,9.4-2.2,14.7,3.1,14.7c6.6,0,8.6-8.6,10-14.7c1.5-6.6,3.5-14.6-3.2-14.6
			C415.8,339.5,413.8,349,412.6,354.1z"/>
		<path class="st0" d="M441.8,336.7h4.8l4.5,29.4l0.1-0.1l1.7-7.8l5-21.5h3.8l-8.1,34.9h-4.8l-4.5-29.4l-0.1,0.1l-1.7,7.9l-5,21.4
			h-3.8L441.8,336.7z"/>
	</g>
</g>
</svg>
