<?xml version="1.0" encoding="utf-8"?>
<!-- Generator: Adobe Illustrator 19.1.0, SVG Export Plug-In . SVG Version: 6.00 Build 0)  -->
<svg version="1.1" id="Calque_1" xmlns="http://www.w3.org/2000/svg" xmlns:xlink="http://www.w3.org/1999/xlink" x="0px" y="0px"
	 viewBox="-345 170.9 500 500" style="enable-background:new -345 170.9 500 500;" xml:space="preserve">
<style type="text/css">
	.st0{fill:#1A171B;}
	.st1{fill:#FFFFFF;}
	.st2{fill:#00A3D1;}
</style>
<g id="Nouveau_symbole">
</g>
<g>
	<rect x="-335.6" y="370.1" class="st0" width="484.1" height="104.5"/>
	<path class="st1" d="M-124.3,424.1l3.6,1.9c-0.6,3.4-1.5,5.9-2.8,7.6c-1.3,1.7-2.9,2.5-4.9,2.5c-2.5,0-4.5-1.4-6.1-4.2
		c-1.6-2.8-2.4-6.7-2.4-11.5c0-5.2,0.8-9.2,2.4-12c1.6-2.9,3.7-4.3,6.3-4.3c2.3,0,4.1,1.1,5.5,3.4c0.8,1.3,1.5,3.2,1.9,5.7l-3.7,1.5
		c-0.2-1.6-0.7-2.9-1.4-3.8c-0.7-0.9-1.5-1.4-2.5-1.4c-1.4,0-2.5,0.8-3.3,2.5s-1.3,4.3-1.3,8c0,3.9,0.4,6.7,1.3,8.4
		c0.8,1.7,1.9,2.5,3.3,2.5c1,0,1.8-0.5,2.6-1.6S-124.6,426.4-124.3,424.1z"/>
	<path class="st1" d="M-114,404.5V416c1.1-2.3,2.5-3.4,4.1-3.4c0.8,0,1.5,0.3,2.2,0.8c0.7,0.5,1.1,1.2,1.5,1.9
		c0.3,0.8,0.6,1.7,0.7,2.6c0.1,1,0.2,2.4,0.2,4.5v13.2h-3.5v-11.9c0-2.4-0.1-3.9-0.2-4.5c-0.1-0.6-0.4-1.1-0.7-1.5
		c-0.3-0.4-0.8-0.6-1.3-0.6c-0.6,0-1.1,0.2-1.6,0.7c-0.5,0.5-0.8,1.2-1,2.2c-0.2,1-0.3,2.4-0.3,4.3v11.2h-3.5v-31.1H-114z"/>
	<path class="st1" d="M-99.1,420l-3.2-1c0.4-2.2,1-3.8,1.9-4.9c0.9-1,2.2-1.6,3.9-1.6c1.6,0,2.8,0.3,3.5,0.9
		c0.8,0.6,1.3,1.4,1.6,2.4s0.5,2.7,0.5,5.3l-0.1,6.9c0,2,0.1,3.4,0.2,4.4c0.1,0.9,0.3,1.9,0.6,3h-3.5c-0.1-0.4-0.2-1-0.3-1.8
		c-0.1-0.4-0.1-0.6-0.1-0.7c-0.6,1-1.3,1.7-2,2.2c-0.7,0.5-1.4,0.7-2.2,0.7c-1.4,0-2.5-0.6-3.3-1.9c-0.8-1.2-1.2-2.8-1.2-4.7
		c0-1.3,0.2-2.4,0.5-3.4c0.4-1,0.9-1.8,1.5-2.3c0.7-0.5,1.6-1,2.8-1.4c1.7-0.5,2.8-1,3.5-1.5v-0.6c0-1.2-0.2-2-0.5-2.5
		c-0.3-0.5-1-0.7-1.9-0.7c-0.6,0-1.1,0.2-1.5,0.6C-98.6,418.2-98.9,418.9-99.1,420z M-94.3,424.8c-0.5,0.3-1.2,0.6-2.2,0.9
		s-1.6,0.7-2,1c-0.5,0.5-0.7,1.2-0.7,2.1c0,0.8,0.2,1.5,0.6,2.1c0.4,0.6,0.9,0.9,1.4,0.9c0.6,0,1.3-0.4,1.9-1
		c0.4-0.5,0.7-1.2,0.9-1.9c0.1-0.5,0.1-1.5,0.1-2.9L-94.3,424.8L-94.3,424.8z"/>
	<path class="st1" d="M-89.7,410.1l2.6-6.3h3.3l2.6,6.3H-84l-1.5-3.2l-1.4,3.2H-89.7z M-87.4,435.5V413h3.5v22.5H-87.4z"/>
	<path class="st1" d="M-68,435.5h-3.5v-11.4c0-2.4-0.1-4-0.2-4.7c-0.2-0.7-0.4-1.3-0.7-1.7c-0.3-0.4-0.7-0.6-1.2-0.6
		c-0.6,0-1.2,0.3-1.6,0.8c-0.5,0.6-0.8,1.3-1,2.2c-0.2,0.9-0.3,2.6-0.3,5.2v10.2h-3.5V413h3.3v3.3c1.2-2.5,2.6-3.7,4.4-3.7
		c0.8,0,1.5,0.2,2.1,0.7s1.1,1.1,1.5,1.8c0.3,0.7,0.6,1.6,0.7,2.5c0.1,0.9,0.2,2.3,0.2,4L-68,435.5L-68,435.5z"/>
	<path class="st1" d="M-56.6,428.3l3.5,1c-0.5,2.2-1.2,3.8-2.1,5c-1,1.1-2.2,1.7-3.7,1.7c-2.3,0-4.1-1.3-5.2-3.8
		c-0.9-2-1.3-4.6-1.3-7.7c0-3.7,0.6-6.6,1.8-8.7c1.2-2.1,2.6-3.2,4.4-3.2c2,0,3.6,1.1,4.7,3.3c1.2,2.2,1.7,5.6,1.7,10.1h-9
		c0,1.8,0.3,3.1,0.9,4.1c0.5,1,1.2,1.5,2,1.5c0.6,0,1-0.3,1.4-0.8C-57.1,430.3-56.8,429.5-56.6,428.3z M-56.4,422.3
		c0-1.7-0.3-3-0.8-3.9c-0.5-0.9-1.1-1.3-1.9-1.3c-0.8,0-1.4,0.5-1.9,1.4c-0.5,0.9-0.8,2.2-0.8,3.8L-56.4,422.3L-56.4,422.3z"/>
	<path class="st1" d="M-46.6,435.5h-3.5V413h3.3v3.2c0.6-1.5,1.1-2.5,1.5-2.9c0.4-0.5,1-0.7,1.5-0.7c0.8,0,1.6,0.4,2.3,1.1l-1.1,5.2
		c-0.6-0.6-1.1-1-1.6-1c-0.5,0-0.9,0.2-1.2,0.7c-0.3,0.5-0.6,1.3-0.8,2.5c-0.2,1.2-0.3,3.7-0.3,7.5L-46.6,435.5L-46.6,435.5z"/>
	<path class="st1" d="M-40,410v-5.5h3.5v5.5H-40z M-40,435.5V413h3.5v22.5H-40z"/>
	<path class="st1" d="M-25,428.3l3.5,1c-0.5,2.2-1.2,3.8-2.2,5c-1,1.1-2.2,1.7-3.7,1.7c-2.3,0-4.1-1.3-5.2-3.8
		c-0.9-2-1.3-4.6-1.3-7.7c0-3.7,0.6-6.6,1.8-8.7c1.2-2.1,2.6-3.2,4.4-3.2c2,0,3.6,1.1,4.8,3.3c1.2,2.2,1.7,5.6,1.7,10.1h-9
		c0,1.8,0.3,3.1,0.9,4.1c0.5,1,1.2,1.5,2,1.5c0.5,0,1-0.3,1.4-0.8C-25.5,430.3-25.2,429.5-25,428.3z M-24.8,422.3
		c0-1.7-0.3-3-0.8-3.9c-0.5-0.9-1.1-1.3-1.9-1.3c-0.8,0-1.4,0.5-1.9,1.4c-0.5,0.9-0.8,2.2-0.8,3.8L-24.8,422.3L-24.8,422.3z"/>
	<path class="st1" d="M-19.7,429.1l3.5-0.9c0.2,1.1,0.5,2,0.9,2.6c0.5,0.6,1.1,0.9,2,0.9c0.9,0,1.6-0.3,2.1-0.8
		c0.3-0.4,0.5-0.9,0.5-1.6c0-0.5-0.1-0.8-0.3-1.1c-0.2-0.3-0.6-0.5-1.2-0.8c-2.9-1.1-4.7-2-5.5-2.9c-1.1-1.2-1.6-2.9-1.6-5
		c0-1.9,0.5-3.6,1.4-4.9c0.9-1.3,2.4-2,4.3-2c1.9,0,3.2,0.5,4.1,1.5s1.5,2.5,1.9,4.5l-3.3,1c-0.1-0.9-0.4-1.6-0.8-2
		c-0.4-0.5-1-0.7-1.8-0.7c-1,0-1.7,0.2-2.1,0.7c-0.3,0.3-0.4,0.7-0.4,1.2c0,0.4,0.1,0.8,0.4,1.1c0.3,0.4,1.4,1,3.4,1.7
		c1.9,0.7,3.3,1.6,4,2.6c0.8,1.1,1.1,2.5,1.1,4.4c0,2.1-0.5,3.8-1.5,5.3c-1,1.5-2.6,2.2-4.6,2.2c-1.8,0-3.3-0.6-4.3-1.8
		C-18.7,432.9-19.4,431.2-19.7,429.1z"/>
	<path class="st1" d="M3.2,435.5v-30.8H7v25.5h9.2v5.3H3.2z"/>
	<path class="st1" d="M18.9,410v-5.5h3.5v5.5H18.9z M18.9,435.5V413h3.5v22.5H18.9z"/>
	<path class="st1" d="M25.8,413h3.3v3.1c1.2-2.3,2.6-3.5,4.2-3.5c0.9,0,1.6,0.3,2.2,0.9c0.6,0.6,1.1,1.5,1.5,2.7
		c0.6-1.2,1.2-2.1,1.9-2.7c0.7-0.6,1.4-0.9,2.2-0.9c1,0,1.8,0.3,2.5,1c0.7,0.7,1.2,1.6,1.5,2.9c0.2,1,0.4,2.5,0.4,4.6v14.4H42v-12.8
		c0-2.2-0.1-3.7-0.4-4.3c-0.3-0.8-0.8-1.3-1.5-1.3c-0.5,0-1,0.3-1.4,0.8c-0.4,0.5-0.8,1.2-0.9,2.2s-0.3,2.5-0.3,4.6v10.8h-3.5v-12.3
		c0-2.2-0.1-3.6-0.2-4.2c-0.1-0.6-0.3-1.1-0.6-1.4c-0.3-0.3-0.6-0.5-1.1-0.5c-0.5,0-1,0.2-1.5,0.7c-0.4,0.5-0.8,1.2-0.9,2.1
		c-0.2,0.9-0.3,2.5-0.3,4.6v10.9h-3.5L25.8,413L25.8,413z"/>
	<path class="st1" d="M48.2,424c0-2,0.3-3.9,0.9-5.7c0.6-1.8,1.4-3.2,2.5-4.2c1.1-1,2.2-1.5,3.6-1.5c2,0,3.7,1.1,5,3.3
		c1.3,2.2,1.9,5,1.9,8.4c0,3.4-0.6,6.2-2,8.4c-1.3,2.2-2.9,3.3-4.9,3.3c-1.2,0-2.4-0.5-3.5-1.4c-1.1-0.9-2-2.3-2.5-4.1
		C48.5,428.7,48.2,426.5,48.2,424z M51.9,424.3c0,2.2,0.3,3.9,0.9,5.1c0.6,1.2,1.4,1.8,2.3,1.8s1.7-0.6,2.3-1.8
		c0.6-1.2,0.9-2.9,0.9-5.2c0-2.2-0.3-3.9-0.9-5.1c-0.6-1.2-1.4-1.8-2.3-1.8s-1.7,0.6-2.3,1.8C52.2,420.3,51.9,422.1,51.9,424.3z"/>
	<path class="st1" d="M73.7,435.5v-3.4c-0.5,1.2-1.1,2.1-1.9,2.8c-0.8,0.7-1.6,1-2.5,1c-0.9,0-1.7-0.3-2.4-1
		c-0.7-0.7-1.2-1.6-1.6-2.8c-0.3-1.2-0.5-2.9-0.5-5V413h3.5v10.3c0,3.2,0.1,5.1,0.2,5.8c0.1,0.7,0.4,1.3,0.7,1.7
		c0.4,0.4,0.8,0.6,1.3,0.6c0.6,0,1.1-0.3,1.6-0.8c0.5-0.6,0.8-1.3,1-2.1c0.2-0.8,0.3-2.8,0.3-6.1V413H77v22.5H73.7z"/>
	<path class="st1" d="M79.3,429.1l3.5-0.9c0.2,1.1,0.5,2,0.9,2.6c0.5,0.6,1.1,0.9,2,0.9c0.9,0,1.6-0.3,2.1-0.8
		c0.3-0.4,0.5-0.9,0.5-1.6c0-0.5-0.1-0.8-0.3-1.1c-0.2-0.3-0.6-0.5-1.2-0.8c-2.9-1.1-4.7-2-5.5-2.9c-1.1-1.2-1.6-2.9-1.6-5
		c0-1.9,0.5-3.6,1.4-4.9c0.9-1.3,2.4-2,4.3-2c1.9,0,3.2,0.5,4.1,1.5c0.9,1,1.5,2.5,1.9,4.5l-3.3,1c-0.1-0.9-0.4-1.6-0.8-2
		c-0.4-0.5-1-0.7-1.8-0.7c-1,0-1.7,0.2-2.1,0.7c-0.3,0.3-0.4,0.7-0.4,1.2c0,0.4,0.1,0.8,0.4,1.1c0.3,0.4,1.4,1,3.4,1.7
		c1.9,0.7,3.3,1.6,4,2.6c0.8,1.1,1.1,2.5,1.1,4.4c0,2.1-0.5,3.8-1.5,5.3c-1,1.5-2.6,2.2-4.6,2.2c-1.8,0-3.3-0.6-4.4-1.8
		C80.4,432.9,79.7,431.2,79.3,429.1z"/>
	<path class="st1" d="M94.9,410v-5.5h3.5v5.5H94.9z M94.9,435.5V413h3.5v22.5H94.9z"/>
	<path class="st1" d="M114.3,435.5h-3.5v-11.4c0-2.4-0.1-4-0.2-4.7c-0.1-0.7-0.4-1.3-0.7-1.7c-0.3-0.4-0.8-0.6-1.2-0.6
		c-0.6,0-1.2,0.3-1.6,0.8c-0.5,0.6-0.8,1.3-1,2.2c-0.2,0.9-0.3,2.6-0.3,5.2v10.2h-3.5V413h3.3v3.3c1.2-2.5,2.6-3.7,4.4-3.7
		c0.8,0,1.5,0.2,2.1,0.7c0.6,0.5,1.1,1.1,1.5,1.8c0.3,0.7,0.6,1.6,0.7,2.5c0.1,0.9,0.2,2.3,0.2,4L114.3,435.5L114.3,435.5z"/>
	<path class="st1" d="M125.7,428.3l3.5,1c-0.5,2.2-1.2,3.8-2.2,5c-1,1.1-2.2,1.7-3.7,1.7c-2.3,0-4.1-1.3-5.2-3.8
		c-0.9-2-1.3-4.6-1.3-7.7c0-3.7,0.6-6.6,1.8-8.7c1.2-2.1,2.6-3.2,4.4-3.2c2,0,3.6,1.1,4.8,3.3c1.2,2.2,1.7,5.6,1.7,10.1h-9
		c0,1.8,0.3,3.1,0.9,4.1c0.5,1,1.2,1.5,2,1.5c0.5,0,1-0.3,1.4-0.8C125.2,430.3,125.5,429.5,125.7,428.3z M125.9,422.3
		c0-1.7-0.3-3-0.8-3.9c-0.5-0.9-1.1-1.3-1.9-1.3c-0.8,0-1.4,0.5-1.9,1.4c-0.5,0.9-0.8,2.2-0.8,3.8L125.9,422.3L125.9,422.3z"/>
	<path class="st1" d="M131,429.1l3.5-0.9c0.2,1.1,0.5,2,0.9,2.6c0.5,0.6,1.1,0.9,2,0.9c0.9,0,1.6-0.3,2.1-0.8
		c0.3-0.4,0.5-0.9,0.5-1.6c0-0.5-0.1-0.8-0.3-1.1c-0.2-0.3-0.6-0.5-1.2-0.8c-2.9-1.1-4.7-2-5.5-2.9c-1.1-1.2-1.6-2.9-1.6-5
		c0-1.9,0.5-3.6,1.4-4.9c0.9-1.3,2.4-2,4.3-2c1.9,0,3.2,0.5,4.1,1.5c0.9,1,1.5,2.5,1.9,4.5l-3.3,1c-0.1-0.9-0.4-1.6-0.8-2
		c-0.4-0.5-1-0.7-1.8-0.7c-1,0-1.7,0.2-2.1,0.7c-0.3,0.3-0.4,0.7-0.4,1.2c0,0.4,0.1,0.8,0.4,1.1c0.3,0.4,1.4,1,3.4,1.7
		c1.9,0.7,3.3,1.6,4,2.6c0.8,1.1,1.1,2.5,1.1,4.4c0,2.1-0.5,3.8-1.5,5.3c-1,1.5-2.6,2.2-4.6,2.2c-1.8,0-3.3-0.6-4.3-1.8
		C132,432.9,131.3,431.2,131,429.1z"/>
	<path class="st1" d="M-187,468.2h-99.2c-24.7,0-44.9-21-44.9-46.8c0-25.8,20.1-46.8,44.9-46.8h99.2c24.7,0,44.8,21,44.8,46.8
		C-142.2,447.2-162.3,468.2-187,468.2z M-286.2,378.3c-22.7,0-41.2,19.4-41.2,43.1c0,23.8,18.5,43.1,41.2,43.1h99.2
		c22.7,0,41.2-19.4,41.2-43.1c0-23.8-18.5-43.1-41.2-43.1H-286.2z"/>
	<path class="st1" d="M-168.5,421.4c0,11.3-8.8,20.4-20.4,20.6H-285c-10.1-0.1-18.8-9.3-18.8-20.6l0,0c0-11.3,8.8-20.4,19.6-20.4
		h96.1C-177.3,401-168.5,410.1-168.5,421.4L-168.5,421.4z"/>
	<path class="st2" d="M-142,420.6c0,3.5-0.8,6.9-0.8,6.9l-27.7,0.1l-0.9-13.5l28.7-0.1C-142.7,414-142,417.1-142,420.6z"/>
	<path class="st2" d="M-199.4,438.4l-0.3-36.2h12.1v27.7l17.5-0.1c1.3-2.8,2-5.8,2-9.1c0-11.9-9.7-21.6-21.6-21.6
		c-11.9,0-21.6,9.7-21.6,21.6c0,11.9,9.7,21.6,21.6,21.6c4.7,0,9.1-1.5,12.6-4.1C-182.2,438.2-199.4,438.4-199.4,438.4z"/>
</g>
</svg>
