<?xml version="1.0" encoding="utf-8"?>
<!-- Generator: Adobe Illustrator 19.1.0, SVG Export Plug-In . SVG Version: 6.00 Build 0)  -->
<svg version="1.1" id="Calque_2" xmlns="http://www.w3.org/2000/svg" xmlns:xlink="http://www.w3.org/1999/xlink" x="0px" y="0px"
	 viewBox="0 0 500 500" style="enable-background:new 0 0 500 500;" xml:space="preserve">
<style type="text/css">
	.st0{fill:#FFE108;}
	.st1{fill:#1A171C;}
</style>
<g>
	<rect x="140.9" y="298.1" class="st0" width="297.6" height="15.9"/>
	<rect x="25" y="186.8" class="st1" width="99.4" height="99.4"/>
	<rect x="73.5" y="228.4" class="st0" width="34" height="9.9"/>
	<path class="st0" d="M79.6,272.8v4.1h-9.9v-4.1c1.6,0.2,3.3,0.3,5,0.3C76.3,273.1,78,273,79.6,272.8"/>
	<path class="st0" d="M88.8,254.9l5.5,8.5c-5.7,3.6-12.4,5.8-19.6,5.8c-20.1,0-36.4-16.3-36.4-36.4c0-12.4,6.2-23.4,15.7-30l5.8,8.3
		c-6.9,4.7-11.4,12.7-11.4,21.7c0,14.5,11.8,26.2,26.3,26.2C79.8,259,84.7,257.5,88.8,254.9"/>
	<path class="st0" d="M93.6,250.9l7.2,7.1c6.3-6.5,10.2-15.5,10.2-25.3c0-20.1-16.3-36.4-36.4-36.4h-5v58.8h9.9V207
		c12.2,2.3,21.3,12.9,21.3,25.8C100.9,239.8,98.1,246.2,93.6,250.9"/>
	<path class="st1" d="M176.2,195.8c-3-3.9-6.4-7.5-11.9-7.5c-10.1,0-15.1,7.4-15.1,19.3c0,9.3,4.7,18.3,14.2,18.3
		c6.1,0,11.3-3.6,13.7-9l2.7,1.3c-3.8,7.8-10.1,10.9-17.9,10.9c-11.6,0-21-9.7-21-21.2c0-13.2,9.7-22.3,21.8-22.3
		c6.5,0,12.3,3.4,15.9,8.5L176.2,195.8"/>
	<polyline class="st1" points="193.7,228 193.7,186.8 201.5,186.8 201.5,204.9 218.4,204.9 218.4,186.8 226.2,186.8 226.2,228 
		218.4,228 218.4,208.2 201.5,208.2 201.5,228 193.7,228 	"/>
	<path class="st1" d="M254.9,199.5l-6,15.1h12L254.9,199.5 M274.4,228h-7.9l-4.4-10.8h-14.2l-4.1,10.8h-3.6l16.8-42.4h0.1L274.4,228
		z"/>
	<path class="st1" d="M296.3,186.8v29.5c0,6.4,5.6,8.7,8.8,8.7c3.6,0,9.9-1.3,9.9-8.3v-29.8h3.3v30.8c0,5.3-4,11.6-14.4,11.6
		c-6.8,0-15.3-2.6-15.3-13.1v-29.3L296.3,186.8"/>
	<polyline class="st1" points="362.2,186.8 365.9,186.8 349.6,229.2 349.5,229.2 332.1,186.8 340.2,186.8 351.6,214.1 362.2,186.8 	
		"/>
	<rect x="380.1" y="186.8" class="st1" width="7.8" height="41.2"/>
	<polyline class="st1" points="406.5,228 406.5,186.8 413.4,186.8 435,215.2 435.1,215.2 435.1,186.8 438.4,186.8 438.4,228 
		435,228 409.9,195.1 409.8,195.1 409.8,228 406.5,228 	"/>
	<path class="st1" d="M155.6,257.7l-6,15.1h12L155.6,257.7 M175.1,286.2h-8l-4.4-10.8h-14.2l-4.1,10.8h-3.6l16.8-42.4h0.1
		L175.1,286.2z"/>
	<path class="st1" d="M193.5,286.2V245h17.8c7.5,0,11.7,5.5,11.7,12.2c0,6.3-4.6,9-10.8,9.8l10.9,19.3h-8.5l-11.3-21.1h0.5
		c6.9,0,11.3-2.7,11.3-8.8c0-4.6-2.2-9.2-9.8-9.2h-4.2v39.2L193.5,286.2"/>
	<polyline class="st1" points="242.6,286.2 242.6,245 249.6,245 271.1,273.4 271.3,273.4 271.3,245 274.6,245 274.6,286.2 
		271.1,286.2 246.1,253.3 245.9,253.3 245.9,286.2 242.6,286.2 	"/>
	<path class="st1" d="M314.4,284.7c9.9,0,12.2-11.1,12.2-19.1s-2.2-19.1-12.2-19.1c-9.9,0-12.1,11.1-12.1,19.1
		S304.5,284.7,314.4,284.7 M314.4,243.9c12,0,20.5,9.6,20.5,21.8c0,12.2-8.5,21.8-20.5,21.8c-11.9,0-20.4-9.6-20.4-21.8
		C294,253.5,302.6,243.9,314.4,243.9z"/>
	<path class="st1" d="M362,245v29.5c0,6.4,5.6,8.7,8.8,8.7c3.6,0,9.9-1.3,9.9-8.3V245h3.3v30.8c0,5.3-4,11.6-14.4,11.6
		c-6.8,0-15.3-2.6-15.3-13.1V245L362,245"/>
	<polyline class="st1" points="402.2,245 411.5,245 421.2,259.8 431.7,245 436.1,245 423.3,263 438.4,286.2 428.8,286.2 418.3,270 
		406.6,286.2 402.4,286.2 416.2,266.7 402.2,245 	"/>
	<path class="st1" d="M42.1,306.2v5.7c-2.2,1.6-4.9,2.4-7.8,2.4c-5,0-9-3.7-9-8.1c0-5,4.1-8.5,9.3-8.5c2.8,0,5.3,1.3,6.8,3.2l-1,0.6
		c-1.3-1.5-2.8-2.9-5.1-2.9c-4.3,0-6.5,2.8-6.5,7.3c0,3.9,2,7.2,6.2,7.2c1.6,0,3.1-0.5,3.7-1.2v-5.9L42.1,306.2"/>
	<path class="st1" d="M47.9,313.9v-15.7h7.6c3.2,0,5,2.1,5,4.6c0,2.4-2,3.4-4.6,3.7l4.7,7.3H57l-4.8-8h0.2c2.9,0,4.9-1,4.9-3.4
		c0-1.7-1-3.5-4.2-3.5h-1.8v14.9H47.9"/>
	<path class="st1" d="M75,313.3c4.3,0,5.2-4.2,5.2-7.3c0-3.1-1-7.3-5.2-7.3s-5.2,4.2-5.2,7.3C69.8,309.1,70.8,313.3,75,313.3
		 M75,297.8c5.1,0,8.8,3.7,8.8,8.3c0,4.6-3.7,8.3-8.8,8.3c-5.1,0-8.8-3.7-8.8-8.3C66.3,301.4,69.9,297.8,75,297.8z"/>
	<path class="st1" d="M93.7,298.2v11.2c0,2.4,2.4,3.3,3.8,3.3c1.6,0,4.3-0.5,4.3-3.2v-11.4h1.4v11.7c0,2-1.7,4.4-6.2,4.4
		c-2.9,0-6.6-1-6.6-5v-11.1L93.7,298.2"/>
	<path class="st1" d="M113.6,306.4h1.6c2.9,0,4.3-1.3,4.3-4c0-1.6-0.9-3.4-4.4-3.4h-1.6V306.4 M110.2,298.2h7.2
		c2.6,0,5.3,1.6,5.3,4.7c0,3.4-2.3,4.5-6.8,4.5h-2.4v6.5h-3.3V298.2z"/>
	<path class="st1" d="M463,198.4c1.1,0,2-0.5,2-1.7c0-1.2-0.8-1.8-2.2-1.8h-2.7v3.5H463 M467.7,205.9H465l-2.1-5.3h-2.8v5.3h-2.4
		v-13.2h4.4c2.5,0,5.4,0.4,5.4,4.3c0,2.3-1.4,2.8-2.3,3.2L467.7,205.9z M473.1,199.6c0-5.9-4.8-10.7-10.7-10.7
		c-5.9,0-10.7,4.8-10.7,10.7c0,5.9,4.8,10.7,10.7,10.7C468.3,210.2,473.1,205.4,473.1,199.6z M462.5,212.1
		c-6.9,0-12.5-5.6-12.5-12.5c0-6.9,5.7-12.5,12.5-12.5s12.5,5.6,12.5,12.5C475,206.5,469.3,212.1,462.5,212.1z"/>
</g>
</svg>
