<?xml version="1.0" encoding="utf-8"?>
<!-- Generator: Adobe Illustrator 21.0.2, SVG Export Plug-In . SVG Version: 6.00 Build 0)  -->
<svg version="1.1" id="Calque_2" xmlns="http://www.w3.org/2000/svg" xmlns:xlink="http://www.w3.org/1999/xlink" x="0px" y="0px"
	 viewBox="0 0 500 168" style="enable-background:new 0 0 500 168;" xml:space="preserve">
<style type="text/css">
	.st0{fill:#FFE108;}
	.st1{fill:#1A171C;}
</style>
<rect x="140.9" y="132.1" class="st0" width="297.6" height="15.9"/>
<rect x="25" y="20.8" class="st1" width="99.4" height="99.4"/>
<path class="st0" d="M79.6,106.8v4.1h-9.9v-4.1c1.6,0.2,3.3,0.3,5,0.3C76.3,107.1,78,107,79.6,106.8"/>
<path class="st0" d="M88.8,88.9l5.5,8.5c-5.7,3.6-12.4,5.8-19.6,5.8c-20.1,0-36.4-16.3-36.4-36.4c0-12.4,6.2-23.4,15.7-30l5.8,8.3
	c-6.9,4.7-11.4,12.7-11.4,21.7C48.4,81.3,60.2,93,74.7,93C79.8,93,84.7,91.5,88.8,88.9"/>
<path class="st0" d="M74.6,30.3h-5v58.8h9.9V72.3h20.8c-1,4.8-3.4,9.2-6.7,12.6l7.2,7.1c6.3-6.5,10.2-15.5,10.2-25.3
	C111,46.6,94.7,30.3,74.6,30.3z M79.5,41c10.8,2,19.1,10.5,20.9,21.4H79.5V41z"/>
<path class="st1" d="M176.2,29.8c-3-3.9-6.4-7.5-11.9-7.5c-10.1,0-15.1,7.4-15.1,19.3c0,9.3,4.7,18.3,14.2,18.3
	c6.1,0,11.3-3.6,13.7-9l2.7,1.3c-3.8,7.8-10.1,10.9-17.9,10.9c-11.6,0-21-9.7-21-21.2c0-13.2,9.7-22.3,21.8-22.3
	c6.5,0,12.3,3.4,15.9,8.5L176.2,29.8"/>
<polyline class="st1" points="193.7,62 193.7,20.8 201.5,20.8 201.5,38.9 218.4,38.9 218.4,20.8 226.2,20.8 226.2,62 218.4,62 
	218.4,42.2 201.5,42.2 201.5,62 193.7,62 "/>
<path class="st1" d="M254.9,33.5l-6,15.1h12L254.9,33.5 M274.4,62h-7.9l-4.4-10.8h-14.2L243.8,62h-3.6L257,19.6h0.1L274.4,62z"/>
<path class="st1" d="M296.3,20.8v29.5c0,6.4,5.6,8.7,8.8,8.7c3.6,0,9.9-1.3,9.9-8.3V20.9h3.3v30.8c0,5.3-4,11.6-14.4,11.6
	c-6.8,0-15.3-2.6-15.3-13.1V20.9L296.3,20.8"/>
<polyline class="st1" points="362.2,20.8 365.9,20.8 349.6,63.2 349.5,63.2 332.1,20.8 340.2,20.8 351.6,48.1 362.2,20.8 "/>
<rect x="380.1" y="20.8" class="st1" width="7.8" height="41.2"/>
<polyline class="st1" points="406.5,62 406.5,20.8 413.4,20.8 435,49.2 435.1,49.2 435.1,20.8 438.4,20.8 438.4,62 435,62 
	409.9,29.1 409.8,29.1 409.8,62 406.5,62 "/>
<path class="st1" d="M155.6,91.7l-6,15.1h12L155.6,91.7 M175.1,120.2h-8l-4.4-10.8h-14.2l-4.1,10.8h-3.6l16.8-42.4h0.1L175.1,120.2z
	"/>
<path class="st1" d="M193.5,120.2V79h17.8c7.5,0,11.7,5.5,11.7,12.2c0,6.3-4.6,9-10.8,9.8l10.9,19.3h-8.5l-11.3-21.1h0.5
	c6.9,0,11.3-2.7,11.3-8.8c0-4.6-2.2-9.2-9.8-9.2h-4.2v39.2L193.5,120.2"/>
<polyline class="st1" points="242.6,120.2 242.6,79 249.6,79 271.1,107.4 271.3,107.4 271.3,79 274.6,79 274.6,120.2 271.1,120.2 
	246.1,87.3 245.9,87.3 245.9,120.2 242.6,120.2 "/>
<path class="st1" d="M314.4,118.7c9.9,0,12.2-11.1,12.2-19.1s-2.2-19.1-12.2-19.1c-9.9,0-12.1,11.1-12.1,19.1
	S304.5,118.7,314.4,118.7 M314.4,77.9c12,0,20.5,9.6,20.5,21.8c0,12.2-8.5,21.8-20.5,21.8c-11.9,0-20.4-9.6-20.4-21.8
	S302.6,77.9,314.4,77.9z"/>
<path class="st1" d="M362,79v29.5c0,6.4,5.6,8.7,8.8,8.7c3.6,0,9.9-1.3,9.9-8.3V79h3.3v30.8c0,5.3-4,11.6-14.4,11.6
	c-6.8,0-15.3-2.6-15.3-13.1V79H362"/>
<polyline class="st1" points="402.2,79 411.5,79 421.2,93.8 431.7,79 436.1,79 423.3,97 438.4,120.2 428.8,120.2 418.3,104 
	406.6,120.2 402.4,120.2 416.2,100.7 402.2,79 "/>
<path class="st1" d="M42.1,140.2v5.7c-2.2,1.6-4.9,2.4-7.8,2.4c-5,0-9-3.7-9-8.1c0-5,4.1-8.5,9.3-8.5c2.8,0,5.3,1.3,6.8,3.2l-1,0.6
	c-1.3-1.5-2.8-2.9-5.1-2.9c-4.3,0-6.5,2.8-6.5,7.3c0,3.9,2,7.2,6.2,7.2c1.6,0,3.1-0.5,3.7-1.2V140L42.1,140.2"/>
<path class="st1" d="M47.9,147.9v-15.7h7.6c3.2,0,5,2.1,5,4.6c0,2.4-2,3.4-4.6,3.7l4.7,7.3H57l-4.8-8h0.2c2.9,0,4.9-1,4.9-3.4
	c0-1.7-1-3.5-4.2-3.5h-1.8v14.9h-3.4"/>
<path class="st1" d="M75,147.3c4.3,0,5.2-4.2,5.2-7.3c0-3.1-1-7.3-5.2-7.3s-5.2,4.2-5.2,7.3C69.8,143.1,70.8,147.3,75,147.3
	 M75,131.8c5.1,0,8.8,3.7,8.8,8.3c0,4.6-3.7,8.3-8.8,8.3c-5.1,0-8.8-3.7-8.8-8.3C66.3,135.4,69.9,131.8,75,131.8z"/>
<path class="st1" d="M93.7,132.2v11.2c0,2.4,2.4,3.3,3.8,3.3c1.6,0,4.3-0.5,4.3-3.2v-11.4h1.4v11.7c0,2-1.7,4.4-6.2,4.4
	c-2.9,0-6.6-1-6.6-5v-11.1L93.7,132.2"/>
<path class="st1" d="M113.6,140.4h1.6c2.9,0,4.3-1.3,4.3-4c0-1.6-0.9-3.4-4.4-3.4h-1.6L113.6,140.4 M110.2,132.2h7.2
	c2.6,0,5.3,1.6,5.3,4.7c0,3.4-2.3,4.5-6.8,4.5h-2.4v6.5h-3.3C110.2,147.9,110.2,132.2,110.2,132.2z"/>
<path class="st1" d="M462.5,21.1c-6.8,0-12.5,5.6-12.5,12.5c0,6.9,5.6,12.5,12.5,12.5c6.8,0,12.5-5.6,12.5-12.5
	C475,26.7,469.3,21.1,462.5,21.1z M462.4,44.3c-5.9,0-10.7-4.8-10.7-10.7c0-5.9,4.8-10.7,10.7-10.7s10.7,4.8,10.7,10.7
	C473.1,39.4,468.3,44.2,462.4,44.3z"/>
<path class="st1" d="M467.5,31c0-3.9-2.9-4.3-5.4-4.3h-4.4v13.2h2.4v-5.3h2.8l2.1,5.3h2.7l-2.5-5.7C466.1,33.8,467.5,33.3,467.5,31z
	 M463,32.4h-2.9v-3.5h2.7c1.4,0,2.2,0.6,2.2,1.8C465,31.9,464.1,32.4,463,32.4z"/>
</svg>
