<?xml version="1.0" encoding="utf-8"?>
<!-- Generator: Adobe Illustrator 19.1.0, SVG Export Plug-In . SVG Version: 6.00 Build 0)  -->
<svg version="1.1" id="Calque_1" xmlns="http://www.w3.org/2000/svg" xmlns:xlink="http://www.w3.org/1999/xlink" x="0px" y="0px"
	 viewBox="0 0 500 500" style="enable-background:new 0 0 500 500;" xml:space="preserve">
<style type="text/css">
	.st0{fill:#004494;}
	.st1{fill:#FFFFFF;}
</style>
<g>
	<g>
		<g>
			<path class="st0" d="M49.4,295.6c-14.2,0-24.4-17.7-24.4-44.8c0-28.4,10-46.4,23.9-46.4c2.5,0,4.8,0.6,7.1,2.1v16.6
				c-2.2-1.4-4.2-2-6.2-2c-7.2,0-12.7,10.7-12.7,28.7c0,17.5,5.7,27.9,13,27.9c2,0,4-0.8,6-2.1v17.8C53.7,295,51.5,295.6,49.4,295.6
				z"/>
			<path class="st0" d="M65.3,205.5h11.2v32.9h12.6v-32.9h11.3v88.9H89.1v-38.7H76.5v38.7H65.3V205.5z"/>
			<path class="st0" d="M120,205.5h11.8l12.6,88.9h-11.3l-1.9-15.6h-11.4l-1.8,15.6h-11.3L120,205.5z M129.4,265
				c-1.7-13.2-2.9-26.9-3.7-41c-1.1,13.1-2.4,26.8-3.8,41H129.4z"/>
			<path class="st0" d="M185.9,258.8c0,0.9,0,1.7,0,2.6c0,9.6-0.1,16.7-1.7,21.6c-2.8,8.7-8,12.6-16,12.6s-13.3-3.9-16.1-12.6
				c-1.6-5-1.7-12.1-1.7-21.6c0-0.9,0-1.7,0-2.6v-53.3h11.3v57.3c0,11.5,0.5,17.2,6.4,17.2c5.8,0,6.4-5.2,6.4-17.2v-57.3h11.2
				L185.9,258.8L185.9,258.8z"/>
			<path class="st0" d="M196.8,205.5h11c14.1,0,20.3,5.7,20.3,23.7c0,9.6-2.2,15.7-7.1,19.5c5.4,3,8,9.4,8,20.3
				c0,8.2-1.8,14.8-5,19.2c-4.1,5.7-9.4,6.2-16.7,6.2h-10.5L196.8,205.5L196.8,205.5z M208.9,242.5c5.7,0,8.4-3.4,8.4-11
				c0-7.9-2.7-11.5-8.5-11.5c-0.3,0-0.7,0-1.1,0v22.5C208.1,242.5,208.5,242.5,208.9,242.5z M209.3,278.8c5.8,0,8.3-3.5,8.3-11.5
				c0-8.5-2.5-11.8-8.5-11.8c-0.5,0-0.9,0-1.4,0v23.2C208.3,278.6,208.8,278.8,209.3,278.8z"/>
			<path class="st0" d="M237.8,205.5h23.9V222h-12.9v18h11.7v16.3h-11.7v20.8h12.9v17.3h-23.9L237.8,205.5L237.8,205.5z"/>
			<path class="st0" d="M277,252.7l-13.1-47.1h11.9l3.7,16.1c1.4,6.1,2.5,11.7,3.5,17.3c1.1-7.5,2.2-13,3.2-16.8l4.1-16.6h11
				l-13.2,47.1v41.8H277V252.7z"/>
			<path class="st0" d="M305,205.5h11.8c12.5,0,18.4,7.1,18.4,25.1c0,12.5-2.9,20.2-9,23.3l10.9,40.5h-11.9l-9.2-36.9v36.9h-11
				L305,205.5L305,205.5z M317.2,244.2c4.8,0,7.4-4.2,7.4-12.7c0-8.5-2.2-12.2-7.1-12.2c-0.5,0-1,0-1.5,0.1v24.7
				C316.4,244.1,316.8,244.2,317.2,244.2z"/>
			<path class="st0" d="M343.8,205.5h23.8V222h-12.9v18h11.7v16.3h-11.7v20.8h12.9v17.3h-23.8L343.8,205.5L343.8,205.5z"/>
		</g>
	</g>
	<rect x="386.9" y="207.1" class="st0" width="88.1" height="88.1"/>
	<path class="st1" d="M410.2,256.5l-13.4,13.4c-5.1,5.1-5.1,13.4,0,18.5c5.1,5.1,13.4,5.1,18.5,0l13.4-13.4c5.1-5.1,5.1-13.4,0-18.5
		C423.6,251.4,415.3,251.4,410.2,256.5z M425.8,273.1l-12.4,12.4c-3.8,3.8-9.9,3.8-13.6,0c-3.8-3.8-3.8-9.9,0-13.6l12.4-12.4
		c3.8-3.8,9.9-3.8,13.6,0C429.5,263.2,429.5,269.3,425.8,273.1z"/>
	<path class="st1" d="M451.6,215.2l-13.4,13.4c-5.1,5.1-5.1,13.4,0,18.5c5.1,5.1,13.4,5.1,18.5,0l13.4-13.4c5.1-5.1,5.1-13.4,0-18.5
		C465,210.1,456.7,210.1,451.6,215.2z M467.2,231.7l-12.4,12.4c-3.8,3.8-9.9,3.8-13.6,0c-3.8-3.8-3.8-9.9,0-13.6l12.4-12.4
		c3.8-3.8,9.9-3.8,13.6,0C470.9,221.9,470.9,228,467.2,231.7z"/>
	<polygon class="st0" points="475,207.1 475,215.9 395.7,295.2 386.9,295.2 386.9,294.5 474.2,207.2 	"/>
	<path class="st1" d="M387.6,295.2l15.4-15.4c0.9-0.9,2.3-0.9,3.1,0l0,0c0.9,0.9,0.9,2.3,0,3.2L394,295.1L387.6,295.2z"/>
	<path class="st1" d="M475,207.8l-15.9,15.9c-0.9,0.9-0.9,2.3,0,3.2l0,0c0.9,0.9,2.3,0.9,3.2,0l12.7-12.7L475,207.8L475,207.8z"/>
	<path class="st1" d="M446.5,239.5c0.9,0.9,0.9,2.3,0,3.2L421,268.1c-0.9,0.9-2.3,0.9-3.2,0l0,0c-0.9-0.9-0.9-2.3,0-3.2l25.5-25.5
		C444.2,238.6,445.6,238.6,446.5,239.5L446.5,239.5z"/>
</g>
</svg>
