<?xml version="1.0" encoding="utf-8"?>
<!-- Generator: Adobe Illustrator 21.0.2, SVG Export Plug-In . SVG Version: 6.00 Build 0)  -->
<svg version="1.1" id="Calque_1" xmlns="http://www.w3.org/2000/svg" xmlns:xlink="http://www.w3.org/1999/xlink" x="0px" y="0px"
	 viewBox="0 0 500 124" style="enable-background:new 0 0 500 124;" xml:space="preserve">
<style type="text/css">
	.st0{fill:#3B81BE;}
	.st1{fill:#2868AB;}
	.st2{fill:#FFFFFF;}
</style>
<g id="Nouveau_symbole">
</g>
<rect x="24.9" y="20.7" class="st0" width="453" height="85.4"/>
<rect x="28.2" y="23.5" class="st1" width="446.7" height="80.2"/>
<path class="st2" d="M95.8,92c-2.4,1.1-7.7,2.3-14.3,2.3c-18.2,0-28.1-11.2-25.3-28.5C59.3,47.1,75,37.4,92.3,39.5
	c6.4,0.8,10.6,2.6,12.4,3.9l-3.3,7.4c-2.3-1.3-5.7-2.6-10-3.1c-11.3-1.2-21,5.1-23.3,18.4c-2.1,12.2,4.1,20,16.6,20.2
	c3.9,0.1,8.2-0.6,10.9-1.6L95.8,92z"/>
<path class="st2" d="M110.9,37.6H121l-4.6,22.7h0.2c1.6-1.8,3.6-3.3,5.9-4.3c2.3-1.1,4.8-1.7,7.3-1.7c6.8,0,13,4.3,10.6,16.6
	l-4.5,22.6h-10.1l4.3-21.6c1.1-5.5-0.2-9.8-5.7-9.8c-3.9,0-7.2,2.5-8.9,5.4c-0.5,0.9-0.8,1.9-1,2.9l-4.6,23H99.8L110.9,37.6z"/>
<path class="st2" d="M181.8,84.2c-0.7,3.5-1.2,6.8-1.2,9.2h-9.1l0.1-4.2h-0.2c-3,3-7.6,5.1-12.8,5.1c-8,0-11.4-5.6-10.2-11.4
	c1.9-9.6,11.8-14.6,26.6-14.5l0.1-0.6c0.5-2.5,0.3-6.7-6.8-6.7c-3.9,0-8.3,1.2-11.3,2.8l-0.7-6.3c3.3-1.7,8.8-3.4,15.1-3.4
	c12.8,0,14.9,7.8,13.2,16.2L181.8,84.2z M173.9,74.7c-7.1-0.1-14.2,1.3-15.4,7.2c-0.8,3.8,1.4,5.5,4.6,5.5c4.1,0,7.5-2.5,9-5.3
	c0.4-0.7,0.5-1.4,0.7-2.1L173.9,74.7z"/>
<path class="st2" d="M206.2,55.1l2.6,19.4c0.5,3.4,0.7,6.4,0.8,9.6h0.2c1.4-3.1,2.9-6.1,4.6-9.6l10.3-19.4h10.6l-22.9,38.3h-9.9
	l-7.1-38.3H206.2L206.2,55.1z"/>
<path class="st2" d="M276.6,73.9C273.8,88,262.2,94.3,252,94.3c-11.2,0-18.5-7.4-16-19.7c2.5-12.6,12.7-20.3,24.7-20.3
	C272.6,54.2,278.9,62.3,276.6,73.9z M246.4,74.3c-1.5,7.4,1.2,13,7.3,13c5.7,0,10.8-5.3,12.4-13.1c1.2-6-0.2-12.9-7.1-12.9
	C251.9,61.2,247.7,67.9,246.4,74.3z"/>
<path class="st2" d="M287.9,66.5c0.9-4.4,1.5-8.1,2-11.4h8.8l-0.7,5.7h0.2c2.4-3,7.5-6.6,14.1-6.6c7,0,13.3,4.3,10.9,16.4l-4.6,22.7
	h-10.1l4.3-21.6c1.1-5.5-0.2-9.7-5.7-9.7c-4,0-7.3,2.8-9,5.7c-0.5,0.8-0.9,2-1.1,3.1l-4.5,22.6h-10.1L287.9,66.5z"/>
<path class="st2" d="M334.5,66.5c0.9-4.4,1.5-8.1,2-11.4h8.8l-0.7,5.7h0.2c2.4-3,7.5-6.6,14.1-6.6c7,0,13.3,4.3,10.9,16.4l-4.6,22.7
	h-10l4.3-21.6c1.1-5.5-0.2-9.7-5.7-9.7c-4,0-7.3,2.8-9,5.7c-0.5,0.8-0.9,2-1.1,3.1l-4.5,22.6h-10.1L334.5,66.5z"/>
<path class="st2" d="M387.3,77c-1.1,6.9,3.8,9.9,10.3,9.9c4.7,0,8.1-0.7,11.4-1.7l0.1,6.6c-3.7,1.4-8.7,2.4-14.4,2.4
	c-12.9,0-19-7.6-16.7-19.4c2.1-10.6,10.8-20.6,23.6-20.6c12.9,0,15.1,10.2,13.5,18.6c-0.4,1.8-0.8,3.2-1.1,4.1L387.3,77L387.3,77z
	 M406.2,70.2c0.8-3.5,0.3-9.4-6.4-9.4c-6.2,0-9.9,5.4-11.1,9.4H406.2z"/>
<path class="st2" d="M444.7,45.3l-2,9.8h9.6l-1.4,7.2h-9.6l-3.4,16.9c-0.9,4.7-0.1,7.1,3.7,7.1c1.8,0,2.8-0.1,4-0.4l-1.3,7.3
	c-1.6,0.6-4.4,1-7.5,1c-3.8,0-6.6-1.2-8-3.1c-1.8-2.2-2-5.7-1-10.8l3.6-18h-5.6l1.4-7.2h5.6l1.4-7.2L444.7,45.3z"/>
</svg>
