<?xml version="1.0" encoding="utf-8"?>
<!-- Generator: Adobe Illustrator 15.0.0, SVG Export Plug-In . SVG Version: 6.00 Build 0)  -->
<!DOCTYPE svg PUBLIC "-//W3C//DTD SVG 1.1//EN" "http://www.w3.org/Graphics/SVG/1.1/DTD/svg11.dtd">
<svg version="1.1" id="Calque_1" xmlns="http://www.w3.org/2000/svg" xmlns:xlink="http://www.w3.org/1999/xlink" x="0px" y="0px"
	 width="500px" height="500px" viewBox="0 0 500 500" enable-background="new 0 0 500 500" xml:space="preserve">
<g id="Nouveau_symbole">
</g>
<g>
	<rect x="24.913" y="208.731" fill="#3B81BE" width="453.04" height="85.403"/>
	<rect x="28.157" y="211.512" fill="#2868AB" width="446.666" height="80.157"/>
	<g>
		<path fill="#FFFFFF" d="M95.838,280.015c-2.428,1.056-7.676,2.277-14.298,2.277c-18.217,0-28.145-11.18-25.277-28.461
			c3.111-18.726,18.84-28.412,36.055-26.326c6.426,0.778,10.614,2.63,12.35,3.858l-3.298,7.354
			c-2.288-1.332-5.652-2.628-10.037-3.08c-11.302-1.163-21.02,5.059-23.259,18.384c-2.051,12.206,4.136,20.015,16.559,20.231
			c3.942,0.07,8.189-0.627,10.943-1.647L95.838,280.015z"/>
		<path fill="#FFFFFF" d="M110.87,225.578h10.069l-4.557,22.732h0.165c1.589-1.808,3.609-3.303,5.86-4.326
			c2.269-1.101,4.771-1.731,7.307-1.731c6.796,0,13.049,4.328,10.59,16.599l-4.526,22.574h-10.07l4.321-21.554
			c1.104-5.506-0.173-9.751-5.74-9.751c-3.93,0-7.219,2.516-8.949,5.426c-0.501,0.866-0.787,1.89-0.992,2.911l-4.604,22.968H99.674
			L110.87,225.578z"/>
		<path fill="#FFFFFF" d="M181.839,272.223c-0.695,3.461-1.209,6.844-1.19,9.203h-9.087l0.114-4.246h-0.246
			c-2.973,2.989-7.575,5.112-12.814,5.112c-8.024,0-11.408-5.585-10.239-11.405c1.923-9.598,11.84-14.555,26.561-14.474l0.126-0.63
			c0.503-2.517,0.277-6.687-6.764-6.687c-3.93,0-8.26,1.18-11.294,2.832l-0.703-6.292c3.294-1.73,8.785-3.384,15.089-3.384
			c12.772,0,14.896,7.788,13.207,16.206L181.839,272.223z M173.921,262.707c-7.106-0.079-14.184,1.333-15.353,7.156
			c-0.756,3.776,1.435,5.506,4.627,5.506c4.094,0,7.464-2.517,8.999-5.27c0.388-0.709,0.528-1.415,0.672-2.126L173.921,262.707z"/>
		<path fill="#FFFFFF" d="M206.195,243.119l2.573,19.43c0.468,3.38,0.672,6.448,0.778,9.598h0.246
			c1.368-3.149,2.868-6.139,4.625-9.598l10.283-19.43h10.561l-22.907,38.307h-9.907l-7.14-38.307H206.195z"/>
		<path fill="#FFFFFF" d="M276.559,261.917c-2.824,14.082-14.4,20.375-24.554,20.375c-11.218,0-18.494-7.396-16.021-19.743
			c2.525-12.586,12.67-20.296,24.703-20.296C272.557,242.252,278.893,250.276,276.559,261.917z M246.428,262.312
			c-1.481,7.394,1.249,12.978,7.309,12.978c5.729,0,10.812-5.349,12.375-13.138c1.2-5.976-0.201-12.898-7.075-12.898
			C251.918,249.254,247.71,255.938,246.428,262.312z"/>
		<path fill="#FFFFFF" d="M287.92,254.526c0.883-4.406,1.464-8.104,1.96-11.408h8.759l-0.654,5.744h0.244
			c2.4-2.989,7.464-6.61,14.094-6.61c6.961,0,13.3,4.328,10.87,16.442l-4.556,22.731h-10.072l4.336-21.633
			c1.104-5.505-0.19-9.672-5.675-9.672c-4.013,0-7.344,2.752-8.994,5.663c-0.486,0.788-0.885,1.966-1.105,3.068l-4.525,22.574
			h-10.072L287.92,254.526z"/>
		<path fill="#FFFFFF" d="M334.514,254.526c0.882-4.406,1.463-8.104,1.96-11.408h8.759l-0.654,5.744h0.244
			c2.399-2.989,7.463-6.61,14.093-6.61c6.961,0,13.301,4.328,10.87,16.442l-4.555,22.731h-10.073l4.336-21.633
			c1.105-5.505-0.189-9.672-5.674-9.672c-4.013,0-7.344,2.752-8.995,5.663c-0.485,0.788-0.885,1.966-1.104,3.068l-4.525,22.574
			h-10.072L334.514,254.526z"/>
		<path fill="#FFFFFF" d="M387.297,264.984c-1.144,6.923,3.822,9.912,10.289,9.912c4.67,0,8.088-0.706,11.403-1.729l0.146,6.608
			c-3.723,1.417-8.672,2.438-14.405,2.438c-12.935,0-19.023-7.632-16.673-19.353c2.129-10.618,10.847-20.609,23.617-20.609
			c12.934,0,15.144,10.227,13.455,18.643c-0.363,1.812-0.809,3.223-1.146,4.089H387.297z M406.171,258.222
			c0.796-3.54,0.323-9.359-6.389-9.359c-6.222,0-9.934,5.426-11.128,9.359H406.171z"/>
		<path fill="#FFFFFF" d="M444.712,233.287l-1.974,9.832h9.583l-1.446,7.238h-9.584l-3.394,16.911
			c-0.945,4.719-0.104,7.078,3.741,7.078c1.803,0,2.799-0.076,4.007-0.394l-1.303,7.316c-1.58,0.551-4.38,1.023-7.49,1.023
			c-3.764,0-6.557-1.181-8.048-3.149c-1.767-2.202-2.041-5.739-1.028-10.775l3.61-18.011h-5.646l1.446-7.238h5.647l1.437-7.158
			L444.712,233.287z"/>
	</g>
</g>
</svg>
