<?xml version="1.0" encoding="utf-8"?>
<!-- Generator: Adobe Illustrator 21.0.2, SVG Export Plug-In . SVG Version: 6.00 Build 0)  -->
<svg version="1.1" id="Calque_1" xmlns="http://www.w3.org/2000/svg" xmlns:xlink="http://www.w3.org/1999/xlink" x="0px" y="0px"
	 viewBox="0 0 500 452" style="enable-background:new 0 0 500 452;" xml:space="preserve">
<style type="text/css">
	.st0{fill:#0D0909;}
	.st1{fill:#FFFFFF;}
	.st2{fill:#FF8B00;}
</style>
<g id="Nouveau_symbole">
</g>
<path class="st0" d="M21.4,111.5V424c115.5-60.7,460-58.1,460-58.1V111.5H21.4z"/>
<path class="st1" d="M115.1,254.3c13.3,0,20.2-7.2,21-21.9l0.4-5.6h-16.7l-0.1,1.7c0,0.6-0.1,1.2-0.1,2c-0.2,6.6-1,10.6-4.6,10.6
	c-5.3,0-7.4-3.4-7.4-11.7V212v-1.1c0-3.4-0.1-8.5,2.5-11.1c1.2-1.2,2.8-1.7,4.9-1.7c3.2,0,3.9,2.4,4.4,7.8c0.1,0.8,0.1,1.5,0.2,2.1
	l0.2,1.6h16l0.1-1.7c0.1-1.8-0.1-3.4-0.3-5c-1-11.5-8.1-17.7-20.7-17.9c-23.3,0-23.9,15.7-24.3,29.6v8.9
	C90.8,241,92.6,254.3,115.1,254.3z"/>
<polygon class="st1" points="159.6,224.1 173.9,224.1 173.9,252.8 190.4,252.8 190.4,186.5 173.9,186.5 173.9,211.3 159.6,211.3 
	159.6,186.5 143,186.5 143,252.8 159.6,252.8 "/>
<path class="st1" d="M222.9,254.3c16.8,0,23.6-6.5,23.6-22.3v-45.5H230V231c0,7-1,10.2-7,10.2c-6.3,0-7.3-3.1-7.3-10.2v-44.5h-16.6
	V232C199.1,247.8,206,254.3,222.9,254.3z"/>
<path class="st1" d="M278.4,254.3c13.3,0,20.2-7.2,21-21.9l0.4-5.6h-16.7l-0.1,1.7c0,0.6-0.1,1.2-0.1,2c-0.2,6.6-1,10.6-4.6,10.6
	c-5.3,0-7.4-3.4-7.4-11.7V212v-1.1c0-3.4-0.1-8.5,2.5-11.1c1.2-1.2,2.8-1.7,4.9-1.7c3.2,0,3.9,2.4,4.4,7.8c0.1,0.8,0.1,1.5,0.2,2.1
	l0.2,1.6h16l0.1-1.7c0.1-1.8-0.1-3.4-0.3-5c-1-11.5-8.1-17.7-20.7-17.9c-23.3,0-23.9,15.7-24.3,29.6v8.9
	C254,241,255.8,254.3,278.4,254.3z"/>
<polygon class="st1" points="322.8,224.1 337.1,224.1 337.1,252.8 353.7,252.8 353.7,186.5 337.1,186.5 337.1,211.3 322.8,211.3 
	322.8,186.5 306.3,186.5 306.3,252.8 322.8,252.8 "/>
<path class="st1" d="M386.1,254.3c16.8,0,23.6-6.5,23.6-22.3v-45.5h-16.5V231c0,7-1,10.2-7,10.2c-6.3,0-7.3-3.1-7.3-10.2v-44.5
	h-16.5V232C362.4,247.8,369.2,254.3,386.1,254.3z"/>
<path class="st1" d="M73.4,275.4H44.7v66.3h25.6c3.6,0,7.3-0.2,10.4-1.9c11.5-6.1,11.5-21.5,11.5-33.9c0-10-0.7-17.7-4.1-22.7
	C84.3,277.5,78,275.4,73.4,275.4z M61.3,288.3h6.6c5.3,0,7.5,2.6,7.5,18.8c0,19.1-1.3,21.8-10.4,21.8h-3.7V288.3z"/>
<polygon class="st1" points="102.4,341.7 142.3,341.7 142.3,328.8 119,328.8 119,313.2 140.4,313.2 140.4,300.3 119,300.3 
	119,288.3 142.3,288.3 142.3,275.4 102.4,275.4 "/>
<path class="st1" d="M177.9,317.4c0,0.6-0.1,1.2-0.1,2c-0.2,6.6-1,10.6-4.6,10.6c-5.3,0-7.4-3.4-7.4-11.7v-17.4v-1.1
	c0-3.4-0.1-8.5,2.5-11.1c1.2-1.2,2.8-1.7,4.9-1.7c3.2,0,3.9,2.4,4.4,7.8c0.1,0.8,0.1,1.5,0.2,2.1l0.2,1.6h16l0.1-1.7
	c0.1-1.8-0.1-3.4-0.3-5c-1-11.5-8.1-17.7-20.7-17.9c-23.3,0-23.9,15.7-24.3,29.6v8.9c0,17.4,1.8,30.7,24.3,30.7
	c13.3,0,20.2-7.2,21-21.9l0.4-5.6H178L177.9,317.4z"/>
<path class="st1" d="M215.8,275.4l-17.4,66.3h17.7l3.4-15.9h12.1l3.4,15.9h17.6l-16.5-66.3H215.8z M225.7,297.4v-0.1
	C225.7,297.3,225.7,297.4,225.7,297.4l3.1,15.5h-6.5L225.7,297.4z"/>
<path class="st1" d="M276.4,290.7l-0.5,1.2c-0.7,1.5-1.4,3.1-2,4.8c-0.4-1.2-0.9-2.4-1.5-3.7l-7.7-17.5h-18.2l19,38.3v28H282v-28
	l19.3-38.3H283L276.4,290.7z"/>
<polygon class="st1" points="303.4,341.7 343.2,341.7 343.2,328.8 319.9,328.8 319.9,313.2 341.4,313.2 341.4,300.3 319.9,300.3 
	319.9,288.3 343.2,288.3 343.2,275.4 303.4,275.4 "/>
<path class="st1" d="M382.8,319.9c0,7-1,10.2-7,10.2c-6.3,0-7.3-3.1-7.3-10.2v-44.5H352v45.5c0,15.8,6.9,22.3,23.8,22.3
	c16.8,0,23.6-6.5,23.6-22.3v-45.5h-16.6V319.9L382.8,319.9z"/>
<path class="st1" d="M441.5,308.1l17.5-32.7h-18.8l-5.5,11.7c-0.3,0.6-0.6,1.2-0.8,1.7c-0.6,1.3-1.3,2.6-1.8,3.9
	c-0.2-0.6-0.5-1.1-0.7-1.6l-7.7-15.7H405l17.3,32.7l-17.9,33.6h18.3l6.8-13.7c0.8-1.6,1.6-3.3,2.3-5c0.3,0.8,0.7,1.6,1,2.4l7.9,16.3
	h19L441.5,308.1z"/>
<polygon class="st2" points="251.4,139.3 268.1,95.7 314.5,78.1 268.1,60.5 251.4,16.9 234.7,60.5 188.4,78.1 234.7,95.7 "/>
<path class="st2" d="M21.4,437.9h460v-58.1C481.4,379.8,136.9,377.2,21.4,437.9z"/>
</svg>
