<?xml version="1.0" encoding="utf-8"?>
<!-- Generator: Adobe Illustrator 21.0.2, SVG Export Plug-In . SVG Version: 6.00 Build 0)  -->
<svg version="1.1" id="Calque_1" xmlns="http://www.w3.org/2000/svg" xmlns:xlink="http://www.w3.org/1999/xlink" x="0px" y="0px"
	 viewBox="0 0 500 196" style="enable-background:new 0 0 500 196;" xml:space="preserve">
<style type="text/css">
	.st0{fill:url(#SVGID_1_);}
	.st1{fill:#4DA329;}
	.st2{fill:#FFFFFF;}
</style>
<linearGradient id="SVGID_1_" gradientUnits="userSpaceOnUse" x1="246.4346" y1="-782.2877" x2="255.3729" y2="-597.8359" gradientTransform="matrix(1 0 0 1 0 770.67)">
	<stop  offset="0.1718" style="stop-color:#29A264"/>
	<stop  offset="1" style="stop-color:#6CB064"/>
</linearGradient>
<path class="st0" d="M485,160.3c0,9-7.3,16.3-16.3,16.3H34.8c-9,0-16.2-7.3-16.2-16.3V37.9c0-9,7.3-16.3,16.2-16.3h433.9
	c9,0,16.3,7.3,16.3,16.3V160.3L485,160.3z"/>
<path class="st1" d="M462.6,38.8L462.6,38.8c1.8,2.6,5.5,3.3,8.1,1.4c2.6-1.8,3.2-5.4,1.4-8H472c-1.7-2.6-5.3-3.3-8-1.4l0,0.1
	C461.5,32.6,460.8,36.2,462.6,38.8z"/>
<path class="st1" d="M472.9,53.5c1.8,2.6,5.5,3.3,8.1,1.4c2.6-1.8,3.3-5.5,1.4-8.1l-0.1,0.1c-1.8-2.6-5.3-3.2-7.9-1.5l0,0
	C471.7,47.2,471,50.9,472.9,53.5z"/>
<path class="st1" d="M483.1,68.2L483.1,68.2c0.5,0.6,1.2,1.2,1.9,1.6v-3v-0.1v-5.9v-1c-0.2,0.1-0.3,0.2-0.5,0.3
	C481.9,61.9,481.2,65.6,483.1,68.2z"/>
<path class="st1" d="M434.8,21.6h-5.2C431.2,22.4,433.1,22.5,434.8,21.6z"/>
<path class="st1" d="M445.8,35.9l-0.1-0.1c2.7-1.8,3.3-5.4,1.5-8c-1.8-2.6-5.5-3.3-8.1-1.4l0.1,0.1c-2.6,1.8-3.3,5.5-1.4,8.1
	C439.5,37.1,443.2,37.7,445.8,35.9z"/>
<path class="st1" d="M448,49.1c1.8,2.6,5.5,3.3,8.1,1.4l0-0.1c2.6-1.7,3.2-5.3,1.4-8l-0.1,0.1c-1.8-2.7-5.4-3.3-8-1.5l0,0.1
	C446.8,43,446.1,46.5,448,49.1z"/>
<path class="st1" d="M458.2,63.7c1.8,2.6,5.5,3.3,8.1,1.4l0,0c2.6-1.8,3.3-5.4,1.4-8c-1.8-2.6-5.5-3.3-8.1-1.4l0,0.1
	C457,57.6,456.4,61.1,458.2,63.7z"/>
<path class="st1" d="M477.9,71.6l-0.1,0.1c-1.8-2.6-5.3-3.1-7.9-1.4c-2.6,1.8-3.3,5.5-1.4,8.1h0c1.8,2.6,5.5,3.3,8.1,1.4l-0.1-0.1
	C479.1,77.9,479.8,74.2,477.9,71.6z"/>
<path class="st1" d="M398.1,40.4l0.1-0.1c1.8,2.6,5.5,3.3,8.1,1.4c2.6-1.8,3.3-5.5,1.4-8.1l-0.1,0.1c-1.8-2.6-5.5-3.3-8.1-1.4
	C396.9,34.2,396.2,37.8,398.1,40.4z"/>
<path class="st1" d="M420.9,31.5v-0.1c2.6-1.8,3.3-5.4,1.4-8c-0.5-0.8-1.3-1.4-2.1-1.8h-5.4c-0.2,0.1-0.4,0.2-0.6,0.4l0.1,0.1
	c-2.7,1.7-3.3,5.3-1.5,8C414.6,32.7,418.3,33.4,420.9,31.5z"/>
<path class="st1" d="M408.4,55c1.8,2.6,5.5,3.3,8.1,1.4c2.6-1.8,3.3-5.5,1.4-8.1c-1.8-2.6-5.5-3.3-8.1-1.4
	C407.2,48.7,406.6,52.3,408.4,55z"/>
<path class="st1" d="M443.6,74c1.8,2.6,5.5,3.3,8.1,1.4l-0.1-0.1c2.7-1.7,3.3-5.3,1.5-8c-1.8-2.6-5.5-3.3-8.1-1.4l0.1,0.1
	C442.4,67.7,441.7,71.4,443.6,74z"/>
<path class="st1" d="M455.2,80.6c-2.6,1.8-3.2,5.4-1.4,8c1.8,2.6,5.5,3.3,8.1,1.4c2.6-1.8,3.3-5.4,1.4-8l-0.1-0.1
	C461.5,79.3,457.9,78.7,455.2,80.6L455.2,80.6z"/>
<path class="st1" d="M473.6,96.6L473.6,96.6c-1.9-2.6-5.5-3.2-8.1-1.4l0,0c-2.6,1.8-3.3,5.4-1.4,8.1c1.8,2.6,5.5,3.3,8.1,1.4
	C474.8,102.9,475.5,99.2,473.6,96.6z"/>
<path class="st1" d="M458.9,106.9c-1.8-2.6-5.5-3.3-8.1-1.4l0,0.1c-2.6,1.8-3.2,5.4-1.4,7.9c1.8,2.6,5.5,3.3,8.1,1.4l0,0
	C460.1,113,460.8,109.5,458.9,106.9z"/>
<path class="st1" d="M482.4,119.3c2.6-1.8,3.3-5.5,1.4-8.1c-1.8-2.6-5.5-3.3-8.1-1.4c-2.6,1.8-3.3,5.5-1.4,8.1
	C476.1,120.5,479.8,121.2,482.4,119.3z"/>
<path class="st1" d="M484.6,132.5L484.6,132.5c0.1,0.2,0.3,0.4,0.4,0.6v-0.8l0.1-0.1v-6.9C483.3,127.3,483,130.3,484.6,132.5z"/>
<path class="st1" d="M396,27.1c1.8-1.3,2.7-3.4,2.4-5.5h-4.7h-6.8c-0.1,1.4,0.2,2.8,1,4.1C389.7,28.3,393.4,29,396,27.1z"/>
<path class="st1" d="M420.1,61.5c-2.6,1.9-3.3,5.5-1.4,8.1c1.8,2.6,5.5,3.3,8.1,1.4c2.6-1.8,3.3-5.5,1.4-8.1
	C426.4,60.3,422.7,59.6,420.1,61.5z"/>
<path class="st1" d="M430.4,76.1c-2.7,1.9-3.3,5.5-1.5,8.1c1.8,2.6,5.4,3.3,8,1.5l0,0c2.7-1.9,3.4-5.5,1.5-8.1
	C436.6,75,433,74.3,430.4,76.1L430.4,76.1z"/>
<path class="st1" d="M414.3,94.5c1.8,2.6,5.4,3.2,8.1,1.4c2.6-1.8,3.3-5.5,1.4-8.1c-1.8-2.6-5.5-3.3-8.1-1.4
	C413.1,88.2,412.4,91.9,414.3,94.5z"/>
<path class="st1" d="M434,102.5c-1.8-2.6-5.5-3.3-8.1-1.4c-2.6,1.8-3.3,5.5-1.4,8.1l-0.1,0c2,2.6,5.6,3.2,8.2,1.4
	C435.2,108.8,435.9,105.1,434,102.5z"/>
<path class="st1" d="M448.7,92.2l-0.3,0.1l0.2-0.1c-1.8-2.6-5.4-3.2-8-1.4l0.1,0.1c-2.7,1.7-3.4,5.4-1.5,8c1.8,2.6,5.5,3.3,8.1,1.4
	l-0.2-0.3l0.2,0.2C449.9,98.5,450.5,94.8,448.7,92.2z"/>
<path class="st1" d="M442.9,125.2c2.6-1.8,3.3-5.5,1.4-8.1c-1.8-2.6-5.5-3.3-8.1-1.4c-2.6,1.8-3.3,5.5-1.4,8.1
	C436.6,126.4,440.2,127,442.9,125.2z"/>
<path class="st1" d="M453.1,139.9c2.6-1.9,3.3-5.5,1.4-8.1c-1.8-2.6-5.5-3.3-8.1-1.4c-2.6,1.8-3.3,5.5-1.4,8.1
	C446.8,141.1,450.5,141.8,453.1,139.9z"/>
<path class="st1" d="M464.8,146.4c-1.8-2.6-5.5-3.3-8.1-1.4c-2.6,1.8-3.3,5.5-1.4,8.1c1.8,2.6,5.5,3.3,8.1,1.4
	C466,152.6,466.6,149,464.8,146.4z"/>
<path class="st1" d="M479.4,136.1L479.4,136.1c-1.8-2.6-5.4-3.2-8-1.4c-2.6,1.8-3.3,5.5-1.4,8.1l-0.1,0c1.8,2.6,5.5,3.3,8.1,1.4
	C480.6,142.4,481.3,138.7,479.4,136.1z"/>
<path class="st1" d="M467,159.6c-2.6,1.8-3.3,5.5-1.4,8.1c1.8,2.6,5.5,3.3,8.1,1.4c2.6-1.8,3.3-5.5,1.4-8.1
	C473.2,158.4,469.6,157.8,467,159.6z"/>
<path class="st1" d="M371.1,22.7c0.4-0.3,0.8-0.7,1.1-1.1h-1.9h-7C365.2,23.9,368.6,24.4,371.1,22.7z"/>
<path class="st1" d="M373.3,36c1.8,2.5,5.5,3.2,8.1,1.3c2.6-1.8,3.2-5.4,1.4-8l-0.1-0.1c-1.8-2.6-5.4-3.2-8-1.4v0.1
	C372.1,29.7,371.4,33.4,373.3,36L373.3,36z"/>
<path class="st1" d="M383.5,50.6c1.8,2.6,5.5,3.3,8.1,1.4l-0.2-0.4l0.2,0.3c2.6-1.8,3.3-5.4,1.4-8l-0.1,0c-1.8-2.6-5.4-3.2-7.9-1.4
	h-0.1C382.3,44.3,381.7,47.9,383.5,50.6z"/>
<path class="st1" d="M393.8,65.2c1.8,2.6,5.5,3.3,8.1,1.4l0-0.1c2.6-1.8,3.2-5.4,1.4-7.9c-1.8-2.6-5.5-3.3-8.1-1.4l0,0
	C392.6,59.1,391.9,62.6,393.8,65.2z"/>
<path class="st1" d="M405.4,71.7c-2.6,1.9-3.2,5.5-1.4,8.1c1.8,2.6,5.5,3.3,8.1,1.4c2.6-1.8,3.3-5.5,1.4-8.1
	C411.7,70.5,408,69.8,405.4,71.7z"/>
<path class="st1" d="M409.1,98.1c-1.8-2.6-5.5-3.3-8.1-1.4l0,0c-2.5,1.8-3.2,5.5-1.3,8c1.8,2.6,5.5,3.3,8.1,1.4l-0.1-0.2
	C410.3,104.2,411,100.7,409.1,98.1z"/>
<path class="st1" d="M452.3,169.8l0.1,0.1c-2.2,1.5-3,4.3-2.1,6.7h2.7l0.1-0.1h8c0.6-1.7,0.4-3.7-0.7-5.3
	C458.6,168.6,454.9,167.9,452.3,169.8z"/>
<path class="st1" d="M356.5,33l-0.1-0.1c2.7-1.8,3.3-5.4,1.5-8c-1.8-2.6-5.5-3.3-8.1-1.4l0.1,0.1c-2.6,1.8-3.3,5.5-1.4,8.1
	C350.2,34.2,353.8,34.8,356.5,33z"/>
<path class="st1" d="M368.9,60.8c1.8,2.6,5.5,3.3,8.1,1.4c2.6-1.8,3.3-5.5,1.4-8.1l-0.1,0c-1.7-2.6-5.4-3.2-8-1.4l0,0.1
	C367.7,54.7,367.1,58.2,368.9,60.8z"/>
<path class="st1" d="M380.4,67.4c-2.5,1.8-3.1,5.4-1.3,8.1c1.8,2.6,5.5,3.3,8.1,1.4l0-0.1c2.5-1.8,3.2-5.5,1.3-8
	C386.7,66.2,383,65.5,380.4,67.4z"/>
<path class="st1" d="M374.9,100.4c1.8,2.6,5.5,3.3,8.1,1.4c2.5-1.9,3.1-5.5,1.3-8.1h-0.1c-1.8-2.6-5.4-3.3-8-1.4l0,0.1
	C373.7,94.2,373,97.8,374.9,100.4z"/>
<path class="st1" d="M389.4,90.1c1.8,2.6,5.5,3.3,8.1,1.4l-0.2-0.3l0.2,0.2c2.6-1.7,3.2-5.3,1.4-8l-0.3,0.2l0.2-0.2
	c-1.7-2.6-5.4-3.2-8-1.4l0.1,0.1C388.2,83.9,387.6,87.5,389.4,90.1z"/>
<path class="st1" d="M419.4,112.7l-0.3,0.1l0.2-0.1c-1.7-2.6-5.4-3.2-8-1.4l0.1,0.1c-2.5,1.8-3.2,5.4-1.5,8l0,0
	c1.8,2.6,5.5,3.3,8.1,1.4l-0.2-0.2l0.2,0.1C420.6,119,421.2,115.4,419.4,112.7z"/>
<path class="st1" d="M428.2,135.4L428.2,135.4c2.7-1.8,3.3-5.4,1.5-8c-1.8-2.6-5.5-3.3-8.1-1.4v0c-2.6,1.8-3.3,5.5-1.4,8.1
	C422,136.6,425.6,137.3,428.2,135.4z"/>
<path class="st1" d="M450.2,156.7c-1.8-2.6-5.5-3.3-8.1-1.4l0-0.1c-2.6,1.8-3.3,5.5-1.4,8.1c1.8,2.6,5.5,3.3,8.1,1.4l0-0.1
	C451.4,162.8,452,159.3,450.2,156.7z"/>
<path class="st1" d="M331.6,28.5L331.6,28.5c2.3-1.5,3-4.4,2-6.8h-2.2v-0.1h-4.6h-0.1H323c-0.8,1.8-0.7,3.9,0.5,5.5
	C325.3,29.7,329,30.4,331.6,28.5z"/>
<path class="st1" d="M319.1,52c1.8,2.6,5.5,3.3,8.1,1.4c2.6-1.8,3.3-5.5,1.4-8.1c-1.8-2.6-5.5-3.3-8.1-1.4
	C317.9,45.8,317.3,49.4,319.1,52z"/>
<path class="st1" d="M333.8,41.9c1.8,2.5,5.4,3.1,8,1.3l-0.1-0.1c2.7-1.7,3.4-5.3,1.5-8c-1.8-2.6-5.5-3.3-8.1-1.4l0.1,0.1
	C332.6,35.6,331.9,39.3,333.8,41.9z"/>
<path class="st1" d="M354.2,71.1c1.8,2.6,5.5,3.3,8.1,1.4l-0.1-0.1c2.7-1.7,3.4-5.4,1.5-8c-1.8-2.6-5.5-3.3-8.1-1.4l0.1,0.1
	C353.1,64.8,352.4,68.4,354.2,71.1z"/>
<path class="st1" d="M341.1,73.2L341.1,73.2c-2.7,1.9-3.3,5.5-1.5,8.1c1.8,2.6,5.4,3.3,8,1.5l0,0c2.7-1.9,3.3-5.5,1.5-8.1
	C347.3,72.1,343.7,71.4,341.1,73.2z"/>
<path class="st1" d="M365.9,77.7c-2.6,1.8-3.2,5.4-1.4,8c1.8,2.6,5.5,3.3,8.1,1.4c2.6-1.8,3.2-5.4,1.4-8c-1.8-2.7-5.5-3.3-8.1-1.5
	V77.7z"/>
<path class="st1" d="M369.6,104c-1.8-2.6-5.5-3.3-8.1-1.4l0,0.1c-2.5,1.8-3.2,5.5-1.3,8c1.8,2.5,5.4,3.2,8,1.3l0-0.1
	C370.8,110.1,371.4,106.6,369.6,104z"/>
<path class="st1" d="M393.1,116.4c2.6-1.8,3.3-5.5,1.4-8.1c-1.8-2.6-5.5-3.3-8.1-1.4c-2.6,1.8-3.3,5.5-1.4,8.1
	C386.8,117.6,390.5,118.3,393.1,116.4L393.1,116.4z"/>
<path class="st1" d="M404.8,123L404.8,123c-1.9-2.6-5.5-3.3-8.1-1.4c-2.6,1.8-3.3,5.5-1.4,8.1l0,0c1.8,2.5,5.5,3.2,8.1,1.3
	C406,129.2,406.6,125.6,404.8,123z"/>
<path class="st1" d="M415,137.6c-1.8-2.6-5.5-3.3-8.1-1.4c-2.6,1.8-3.3,5.5-1.4,8.1c1.8,2.6,5.5,3.3,8.1,1.4l-0.1-0.1
	C416.2,143.9,416.8,140.2,415,137.6z"/>
<path class="st1" d="M400.4,147.9c-1.8-2.6-5.5-3.3-8.1-1.4c-2.6,1.8-3.3,5.5-1.4,8.1c1.8,2.6,5.5,3.3,8.1,1.4l-0.1-0.1
	C401.6,154.1,402.2,150.5,400.4,147.9z"/>
<path class="st1" d="M410.5,162.5c-1.7-2.6-5.3-3.2-8-1.4c-2.6,1.8-3.3,5.5-1.4,8.1c1.8,2.6,5.5,3.3,8.1,1.4v-0.1
	c2.6-1.8,3.3-5.5,1.4-8.1L410.5,162.5z"/>
<path class="st1" d="M412.8,175.7c-0.3,0.2-0.7,0.5-0.9,0.8h1.5h7C418.4,174.5,415.2,174.1,412.8,175.7z"/>
<path class="st1" d="M427.4,165.5c-2.6,1.8-3.3,5.5-1.4,8.1c1.8,2.6,5.5,3.3,8.1,1.4l-0.1-0.1c2.6-1.8,3.3-5.5,1.4-8.1
	C433.7,164.3,430.1,163.6,427.4,165.5z"/>
<path class="st1" d="M300.2,21.6H298c0.2,0.4,0.4,0.8,0.6,1.1L300.2,21.6z"/>
<path class="st1" d="M298.6,22.8c1.8,2.6,5.5,3.3,8.1,1.4c0.9-0.7,1.6-1.6,2-2.5h-8.5L298.6,22.8z"/>
<path class="st1" d="M308.8,37.5l0.1-0.1c1.8,2.6,5.5,3.3,8.1,1.4c2.6-1.8,3.3-5.5,1.4-8.1l-0.1,0.1c-1.8-2.6-5.5-3.3-8.1-1.4
	C307.6,31.2,306.9,34.9,308.8,37.5z"/>
<path class="st1" d="M324.9,91.6c1.9,2.6,5.5,3.2,8.1,1.4s3.3-5.5,1.4-8.1c-1.8-2.6-5.5-3.3-8.1-1.4C323.7,85.3,323,89,324.9,91.6z"
	/>
<path class="st1" d="M344.7,99.5c-1.8-2.6-5.5-3.3-8.1-1.4c-2.6,1.8-3.3,5.5-1.4,8.1l-0.1,0c2,2.6,5.6,3.3,8.2,1.4
	C345.9,105.8,346.6,102.1,344.7,99.5z"/>
<path class="st1" d="M353.5,122.3c2.6-1.8,3.3-5.5,1.4-8.1c-1.8-2.6-5.5-3.3-8.1-1.4c-2.6,1.8-3.3,5.5-1.4,8.1
	C347.3,123.5,350.9,124.1,353.5,122.3z"/>
<path class="st1" d="M363.8,136.9c2.6-1.8,3.3-5.4,1.4-8.1c-1.8-2.6-5.5-3.3-8.1-1.4c-2.6,1.8-3.3,5.5-1.4,8.1
	C357.5,138.1,361.2,138.8,363.8,136.9z"/>
<path class="st1" d="M379.9,118.6l-0.1,0c-1.8-2.6-5.4-3.3-8-1.4v0c-2.6,1.8-3.3,5.5-1.4,8.1l0,0c1.8,2.5,5.5,3.2,8.1,1.3
	C381.1,124.8,381.7,121.2,379.9,118.6z"/>
<path class="st1" d="M390.1,133.2l-0.3,0.1L390.1,133.2c-1.8-2.6-5.4-3.2-8.1-1.4c-2.6,1.8-3.3,5.5-1.4,8.1h0
	c1.8,2.6,5.5,3.3,8.1,1.4l-0.2-0.2l0.2,0.1C391.3,139.5,392,135.9,390.1,133.2z"/>
<path class="st1" d="M294.2,47.6c1.8,2.6,5.5,3.3,8.1,1.4c2.6-1.8,3.3-5.5,1.4-8.1l-0.2,0.1c-1.7-2.6-5.1-3.3-7.8-1.5l-0.1-0.1
	C293,41.4,292.4,45,294.2,47.6z"/>
<path class="st1" d="M305.9,54.2c-2.6,1.8-3.3,5.5-1.4,8.1c1.8,2.6,5.5,3.3,8.1,1.4c2.6-1.8,3.3-5.5,1.4-8.1
	C312.2,53,308.5,52.3,305.9,54.2z"/>
<path class="st1" d="M299.2,66c-1.7-2.7-5.3-3.4-7.9-1.5l0-0.1c-2.6,1.9-3.2,5.5-1.4,8.1l0,0c1.8,2.6,5.5,3.3,8.1,1.4
	c2.6-1.8,3.3-5.4,1.4-8L299.2,66z"/>
<path class="st1" d="M316.1,68.9c-2.6,1.8-3.3,5.5-1.4,8.1l-0.1,0c1.8,2.6,5.5,3.3,8.1,1.4c2.6-1.8,3.3-5.5,1.4-8.1
	C322.4,67.7,318.8,67,316.1,68.9z"/>
<path class="st1" d="M319.8,95.2c-1.8-2.6-5.5-3.3-8.1-1.4l0,0.1c-2.5,1.8-3.2,5.5-1.3,8c1.8,2.6,5.5,3.3,8.1,1.4l-0.1-0.2
	C321,101.3,321.7,97.8,319.8,95.2z"/>
<path class="st1" d="M340.3,124.5c-1.8-2.6-5.5-3.3-8.1-1.4l0,0.1c-2.5,1.8-3.2,5.5-1.3,8c1.8,2.5,5.4,3.2,8,1.3l0,0
	C341.5,130.6,342.2,127.1,340.3,124.5z"/>
<path class="st1" d="M350.6,139.1L350.6,139.1c-1.9-2.6-5.5-3.3-8.1-1.4c-2.6,1.8-3.3,5.5-1.4,8.1l0.1,0c1.8,2.5,5.5,3.2,8,1.3
	C351.8,145.3,352.4,141.7,350.6,139.1z"/>
<path class="st1" d="M360.8,153.7c-1.8-2.6-5.5-3.3-8.1-1.4c-2.6,1.8-3.3,5.5-1.4,8.1c1.8,2.6,5.5,3.3,8.1,1.4
	C362,160,362.7,156.4,360.8,153.7z"/>
<path class="st1" d="M375.5,143.5c-1.8-2.6-5.5-3.3-8.1-1.4c-2.6,1.8-3.3,5.4-1.4,8.1c1.8,2.6,5.5,3.3,8.1,1.4
	C376.7,149.7,377.3,146.1,375.5,143.5z"/>
<path class="st1" d="M385.8,158.1c-1.9-2.6-5.5-3.2-8.1-1.4c-2.6,1.8-3.3,5.5-1.4,8.1l-0.1,0c1.8,2.6,5.5,3.3,8.1,1.4h0.1
	C387,164.4,387.7,160.7,385.8,158.1z"/>
<path class="st1" d="M363,167c-2.6,1.8-3.3,5.5-1.4,8.1l-0.1,0c0.4,0.6,1,1.1,1.6,1.5h6.3c0.1-0.1,0.2-0.1,0.3-0.1
	c2.6-1.8,3.3-5.4,1.4-8.1C369.3,165.8,365.6,165.1,363,167z"/>
<path class="st1" d="M267.2,30L267.2,30c2.5-1.9,3.2-5.5,1.3-8.1c-0.1-0.1-0.2-0.2-0.3-0.3h-6.9h-0.1h-1.8c-1.7,2-1.9,4.8-0.3,7
	C260.9,31.2,264.6,31.9,267.2,30z"/>
<path class="st1" d="M254.7,53.5c1.8,2.6,5.5,3.3,8.1,1.4c2.6-1.8,3.2-5.4,1.4-8c-1.8-2.6-5.5-3.3-8.1-1.4
	C253.5,47.3,252.8,50.9,254.7,53.5z"/>
<path class="st1" d="M279.6,57.9c1.8,2.6,5.5,3.3,8.1,1.4l-0.1-0.1c2.7-1.7,3.3-5.3,1.5-8c-1.8-2.6-5.5-3.3-8.1-1.4l0.1,0.1
	C278.4,51.7,277.7,55.3,279.6,57.9z"/>
<path class="st1" d="M300.1,87.2c1.8,2.6,5.5,3.3,8.1,1.4l-0.2-0.3l0.2,0.2c2.6-1.7,3.2-5.3,1.4-8l-0.5,0.3l0.4-0.3
	c-1.8-2.6-5.4-3.2-8-1.4l0.1,0.1C298.9,80.9,298.2,84.6,300.1,87.2z"/>
<path class="st1" d="M325.7,134.7c-1.8-2.6-5.5-3.3-8.1-1.4c-2.6,1.8-3.3,5.5-1.4,8.1c1.8,2.6,5.5,3.3,8.1,1.4l-0.1-0.1
	C326.9,140.9,327.5,137.3,325.7,134.7z"/>
<path class="st1" d="M335.9,149.3c-1.8-2.6-5.4-3.2-8-1.4c-2.6,1.8-3.3,5.5-1.4,8.1l-0.1,0c1.8,2.6,5.5,3.3,8.1,1.4v-0.1
	C337.1,155.6,337.8,152,335.9,149.3z"/>
<path class="st1" d="M338.1,162.6c-2.6,1.8-3.3,5.5-1.4,8.1c1.8,2.6,5.5,3.3,8.1,1.4l-0.1-0.1c2.6-1.8,3.3-5.5,1.4-8.1
	C344.4,161.4,340.7,160.7,338.1,162.6z"/>
<path class="st1" d="M242.3,25.6c1.4-1,2.2-2.5,2.4-4h-6.8h-4.7c0.1,0.9,0.4,1.8,1,2.6C236,26.8,239.7,27.5,242.3,25.6z"/>
<path class="st1" d="M229.8,49.1c1.8,2.6,5.5,3.3,8.1,1.4c2.6-1.8,3.3-5.5,1.4-8.1c-1.8-2.6-5.5-3.3-8.1-1.4
	C228.6,42.9,227.9,46.5,229.8,49.1z"/>
<path class="st1" d="M244.4,38.9c1.8,2.6,5.5,3.3,8.1,1.4c2.6-1.8,3.3-5.5,1.4-8.1c-1.8-2.6-5.4-3.3-8.1-1.4
	C243.2,32.6,242.6,36.2,244.4,38.9z"/>
<path class="st1" d="M241.4,55.7c-2.6,1.8-3.2,5.4-1.4,8.1c1.8,2.6,5.5,3.3,8.1,1.4c2.6-1.8,3.3-5.5,1.4-8.1
	C247.7,54.5,244,53.8,241.4,55.7z"/>
<path class="st1" d="M264.9,68.2c1.8,2.6,5.5,3.3,8.1,1.4l-0.1-0.1c2.7-1.8,3.4-5.4,1.5-8c-1.8-2.6-5.5-3.3-8.1-1.4l0.1,0.1
	C263.7,61.9,263.1,65.5,264.9,68.2z"/>
<path class="st1" d="M285.5,97.5L285.5,97.5c1.9,2.5,5.5,3.2,8.1,1.3l0,0c2.5-1.8,3.2-5.4,1.3-8c-1.8-2.6-5.4-3.3-8-1.4
	C284.3,91.2,283.6,94.9,285.5,97.5z"/>
<path class="st1" d="M305.2,105.4c-1.8-2.6-5.5-3.3-8.1-1.4l0.1,0.1c-2.6,1.8-3.3,5.5-1.4,8.1c1.7,2.5,5.3,3.1,8,1.3l-0.1-0.1
	C306.4,111.7,307,108,305.2,105.4z"/>
<path class="st1" d="M311,145c-1.8-2.6-5.4-3.3-8-1.5l0,0c-2.6,1.8-3.3,5.5-1.4,8.1c1.8,2.6,5.5,3.3,8.1,1.4l-0.1-0.1
	C312.2,151.1,312.9,147.6,311,145z"/>
<path class="st1" d="M323.5,172.8c-1.3,0.9-2.1,2.3-2.4,3.7h5h6.4c-0.1-0.8-0.4-1.6-0.9-2.3C329.7,171.6,326.1,171,323.5,172.8z"/>
<path class="st1" d="M216.7,21.6h-5.3C213,22.5,215,22.5,216.7,21.6z"/>
<path class="st1" d="M219.6,34.6c1.8,2.5,5.5,3.2,8.1,1.3l-0.1-0.1c2.5-1.8,3.2-5.3,1.4-7.9l0,0c-1.8-2.6-5.5-3.3-8.1-1.4
	C218.4,28.3,217.7,32,219.6,34.6L219.6,34.6z"/>
<path class="st1" d="M251.7,70.3c-2.6,1.8-3.3,5.5-1.4,8.1c1.8,2.6,5.5,3.3,8.1,1.4c2.6-1.8,3.3-5.5,1.4-8.1
	C257.9,69.1,254.3,68.5,251.7,70.3z"/>
<path class="st1" d="M235.6,88.7c1.9,2.6,5.5,3.2,8.1,1.4c2.6-1.8,3.3-5.5,1.4-8.1c-1.8-2.6-5.5-3.3-8.1-1.4
	C234.4,82.4,233.7,86.1,235.6,88.7z"/>
<path class="st1" d="M247.3,95.2c-2.6,1.8-3.3,5.5-1.4,8.1c1.8,2.6,5.5,3.3,8.1,1.4c2.6-1.8,3.3-5.5,1.4-8.1
	C253.6,94,249.9,93.3,247.3,95.2z"/>
<path class="st1" d="M260.6,93.1c1.8,2.6,5.5,3.3,8.1,1.4l-0.1-0.1c2.5-1.8,3.2-5.3,1.5-7.9l0,0c-1.9-2.7-5.5-3.4-8.1-1.5
	C259.4,86.8,258.7,90.5,260.6,93.1z"/>
<path class="st1" d="M280.3,101L280.3,101c-1.8-2.6-5.5-3.2-8.1-1.4l0,0.1c-2.5,1.8-3.2,5.5-1.3,8c1.8,2.6,5.5,3.3,8.1,1.4
	C281.5,107.3,282.1,103.7,280.3,101z"/>
<path class="st1" d="M265.6,111.3c-1.8-2.6-5.5-3.3-8.1-1.4c-2.6,1.8-3.3,5.5-1.4,8.1c1.9,2.6,5.5,3.2,8.1,1.4
	C266.8,117.6,267.5,113.9,265.6,111.3z"/>
<path class="st1" d="M266.5,132.6c1.8,2.6,5.5,3.3,8.1,1.4c2.6-1.8,3.3-5.5,1.4-8.1l-0.1,0.1c-1.8-2.6-5.5-3.3-8.1-1.4
	c-2.6,1.8-3.3,5.5-1.4,8.1L266.5,132.6z"/>
<path class="st1" d="M289.1,123.7c2.6-1.8,3.3-5.5,1.4-8.1c-1.8-2.6-5.5-3.3-8.1-1.4c-2.6,1.8-3.3,5.5-1.4,8.1
	C282.8,124.9,286.5,125.6,289.1,123.7z"/>
<path class="st1" d="M194.6,30.1c1.8,2.6,5.5,3.3,8.1,1.4c2.6-1.8,3.3-5.5,1.4-8.1c-0.6-0.8-1.3-1.4-2.1-1.8h-5.3
	c-0.2,0.1-0.4,0.3-0.6,0.4C193.5,23.8,192.8,27.5,194.6,30.1L194.6,30.1z"/>
<path class="st1" d="M190.2,55c1.8,2.6,5.5,3.3,8.1,1.4c2.6-1.8,3.3-5.5,1.4-8.1c-1.8-2.6-5.5-3.3-8.1-1.4
	C189.1,48.7,188.4,52.4,190.2,55z"/>
<path class="st1" d="M204.9,44.8L204.9,44.8c1.8,2.6,5.4,3.2,8.1,1.4l-0.1-0.1c2.5-1.8,3.2-5.4,1.5-8l0,0c-1.8-2.6-5.5-3.3-8.1-1.4
	C203.7,38.5,203,42.2,204.9,44.8z"/>
<path class="st1" d="M216.5,51.3c-2.6,1.8-3.2,5.4-1.4,8.1c1.8,2.6,5.5,3.3,8.1,1.4c2.6-1.8,3.3-5.5,1.4-8.1
	C222.8,50.1,219.1,49.4,216.5,51.3z"/>
<path class="st1" d="M222.4,90.9c-2.6,1.8-3.3,5.5-1.4,8.1c1.8,2.6,5.5,3.3,8.1,1.4c2.6-1.9,3.2-5.5,1.4-8.1S225,89,222.4,90.9z"/>
<path class="st1" d="M249.6,129.6c2.6-1.8,3.3-5.5,1.4-8.1c-1.8-2.6-5.5-3.3-8.1-1.4c-2.6,1.8-3.3,5.4-1.4,8.1
	C243.3,130.8,247,131.4,249.6,129.6z"/>
<path class="st1" d="M271.5,150.8c-1.8-2.6-5.4-3.3-8.1-1.4l0.1,0.1c-2.6,1.8-3.3,5.5-1.4,8.1c1.8,2.6,5.5,3.3,8.1,1.4
	C272.7,157.1,273.3,153.4,271.5,150.8z"/>
<path class="st1" d="M286.2,140.6c-1.8-2.6-5.5-3.3-8.1-1.4c-2.6,1.8-3.3,5.4-1.4,8.1c1.8,2.6,5.5,3.3,8.1,1.4
	C287.4,146.8,288,143.2,286.2,140.6z"/>
<path class="st1" d="M296.4,155.2c-1.8-2.6-5.4-3.2-8.1-1.4c-2.6,1.8-3.3,5.5-1.4,8.1h0c1.8,2.6,5.5,3.3,8.1,1.4v0
	C297.6,161.5,298.3,157.8,296.4,155.2z"/>
<path class="st1" d="M281.7,165.4c-1.8-2.5-5.5-3.2-8.1-1.3c-2.6,1.8-3.3,5.5-1.4,8.1l0,0c1.8,2.5,5.5,3.2,8.1,1.3
	C282.9,171.7,283.6,168,281.7,165.4L281.7,165.4z"/>
<path class="st1" d="M177.8,27.1c1.8-1.3,2.7-3.4,2.4-5.5h-11.5c-0.1,1.4,0.2,2.9,1,4.1C171.5,28.3,175.2,29,177.8,27.1z"/>
<path class="st1" d="M165.4,50.6L165.4,50.6c1.8,2.6,5.5,3.3,8.1,1.4l-0.1-0.1c2.7-1.7,3.3-5.3,1.5-8l-0.1,0c-1.8-2.5-5.5-3.2-8-1.3
	C164.2,44.4,163.5,48,165.4,50.6z"/>
<path class="st1" d="M201.9,61.5c-2.6,1.9-3.2,5.5-1.4,8.1c1.8,2.6,5.5,3.3,8.1,1.4c2.6-1.8,3.3-5.5,1.4-8.1
	C208.2,60.3,204.5,59.6,201.9,61.5z"/>
<path class="st1" d="M195.3,73.2c-1.8-2.5-5.5-3.2-8-1.3c-2.6,1.7-3.3,5.4-1.4,8c1.8,2.6,5.5,3.3,8.1,1.4v-0.1
	C196.6,79.5,197.2,75.8,195.3,73.2L195.3,73.2z"/>
<path class="st1" d="M196.1,94.5c1.8,2.6,5.5,3.3,8.1,1.4l0-0.1c2.6-1.8,3.2-5.3,1.5-7.9l0.1,0c-1.9-2.7-5.5-3.3-8.2-1.5
	C194.9,88.2,194.2,91.9,196.1,94.5z"/>
<path class="st1" d="M210.8,84.3L210.8,84.3c1.7,2.6,5.4,3.3,8,1.4c2.6-1.8,3.3-5.5,1.4-8.1c-1.8-2.6-5.4-3.2-8-1.4
	C209.6,78,208.9,81.7,210.8,84.3z"/>
<path class="st1" d="M214.5,110.6c2.6-1.9,3.2-5.5,1.4-8.1c-1.8-2.6-5.5-3.3-8.1-1.4c-2.6,1.8-3.3,5.5-1.4,8.1l-0.1,0
	C208.2,111.8,211.8,112.4,214.5,110.6L214.5,110.6z"/>
<path class="st1" d="M240.7,106.9c-1.8-2.6-5.5-3.3-8.1-1.4c-2.6,1.8-3.3,5.5-1.4,8.1c1.9,2.6,5.5,3.2,8.1,1.4
	C241.9,113.2,242.6,109.5,240.7,106.9z"/>
<path class="st1" d="M235,139.9c2.6-1.9,3.2-5.5,1.4-8.1c-1.8-2.6-5.5-3.3-8.1-1.4c-2.6,1.8-3.3,5.5-1.4,8.1
	C228.7,141.1,232.4,141.8,235,139.9z"/>
<path class="st1" d="M256.9,161.1c-1.9-2.6-5.5-3.3-8.1-1.4c-2.6,1.8-3.3,5.5-1.4,8.1c1.8,2.6,5.5,3.3,8.1,1.4
	C258.1,167.4,258.8,163.7,256.9,161.1z"/>
<path class="st1" d="M259,174.3c-0.9,0.6-1.5,1.4-1.9,2.3h3.5h5.3l1.2-0.9C265.3,173.1,261.6,172.4,259,174.3z"/>
<path class="st1" d="M265.9,176.6h1.7c-0.1-0.3-0.3-0.6-0.5-0.8L265.9,176.6z"/>
<path class="st1" d="M152.9,22.7c0.5-0.3,0.8-0.7,1.2-1.1h-9C147,24,150.4,24.5,152.9,22.7z"/>
<path class="st1" d="M140.5,46.2c1.8,2.6,5.5,3.3,8.1,1.4c2.6-1.8,3.3-5.5,1.4-8.1c-1.8-2.6-5.5-3.3-8.1-1.4
	C139.3,40,138.6,43.6,140.5,46.2z"/>
<path class="st1" d="M155.1,36c1.8,2.6,5.5,3.3,8.1,1.4c2.6-1.8,3.3-5.5,1.4-8.1c-1.8-2.6-5.5-3.3-8.1-1.4
	C153.9,29.7,153.3,33.3,155.1,36z"/>
<path class="st1" d="M177,57.1c-2.6,1.9-3.2,5.5-1.4,8.1c1.8,2.6,5.5,3.3,8.1,1.4c2.6-1.8,3.3-5.5,1.4-8.1
	C183.3,55.9,179.6,55.2,177,57.1z"/>
<path class="st1" d="M171.2,90.2c1.8,2.6,5.5,3.3,8.1,1.4c2.6-1.8,3.3-5.5,1.4-8.1c-1.8-2.6-5.4-3.3-8.1-1.4
	C170,83.9,169.3,87.6,171.2,90.2z"/>
<path class="st1" d="M224.7,125.2c2.6-1.8,3.2-5.4,1.4-8l0,0c-1.8-2.7-5.4-3.3-8.1-1.5c-2.6,1.8-3.3,5.5-1.4,8.1
	C218.4,126.4,222.1,127.1,224.7,125.2z"/>
<path class="st1" d="M221.7,142c-1.8-2.6-5.5-3.3-8.1-1.4c-2.6,1.8-3.3,5.5-1.4,8.1c1.8,2.6,5.5,3.3,8.1,1.4
	C222.9,148.3,223.6,144.7,221.7,142z"/>
<path class="st1" d="M231.9,156.6L231.9,156.6c-2-2.5-5.5-3.2-8-1.3c-2.6,1.8-3.3,5.5-1.4,8.1l0.1,0c1.8,2.5,5.5,3.2,8,1.3l0-0.1
	C233.1,162.8,233.8,159.2,231.9,156.6z"/>
<path class="st1" d="M246.6,146.4c-1.8-2.6-5.5-3.3-8.1-1.4c-2.6,1.8-3.3,5.5-1.4,8.1l-0.1,0c1.8,2.6,5.5,3.3,8.1,1.4
	C247.8,152.7,248.5,149.1,246.6,146.4z"/>
<path class="st1" d="M234.1,169.9c-2.2,1.5-3,4.3-2.1,6.7h6.8h4.1c0.6-1.7,0.4-3.7-0.7-5.3C240.4,168.7,236.7,168,234.1,169.9z"/>
<path class="st1" d="M130.2,31.6c1.8,2.5,5.4,3.2,8,1.4l0,0.1c2.6-1.9,3.2-5.5,1.4-8.1h0c-1.8-2.6-5.5-3.3-8.1-1.4
	C129,25.4,128.3,29,130.2,31.6L130.2,31.6z"/>
<path class="st1" d="M152.1,52.7c-2.6,1.9-3.2,5.5-1.4,8.1c1.8,2.6,5.5,3.3,8.1,1.4c2.6-1.8,3.3-5.5,1.4-8.1
	C158.4,51.5,154.7,50.8,152.1,52.7z"/>
<path class="st1" d="M145.5,64.4c-1.8-2.5-5.5-3.2-8-1.3c-2.6,1.8-3.3,5.4-1.4,8c1.8,2.6,5.5,3.3,8.1,1.4v-0.1
	C146.8,70.7,147.4,67.1,145.5,64.4L145.5,64.4z"/>
<path class="st1" d="M162.4,67.4c-2.6,1.8-3.3,5.5-1.4,8.1c1.8,2.6,5.5,3.3,8.1,1.4c2.6-1.8,3.3-5.5,1.4-8.1
	C168.6,66.2,165,65.6,162.4,67.4z"/>
<path class="st1" d="M146.3,85.8c1.9,2.6,5.5,3.2,8.1,1.4c2.6-1.8,3.3-5.5,1.4-8.1c-1.8-2.6-5.5-3.3-8.1-1.4
	C145.1,79.5,144.4,83.2,146.3,85.8z"/>
<path class="st1" d="M164.7,101.7c2.6-1.7,3.2-5.3,1.4-8l-0.1,0c-1.9-2.6-5.5-3.2-8-1.4c-2.6,1.8-3.3,5.5-1.4,8.1l-0.1,0
	C158.3,103,162,103.7,164.7,101.7L164.7,101.7z"/>
<path class="st1" d="M182.9,96.7c-2.6,1.8-3.3,5.5-1.4,8.1c1.8,2.6,5.5,3.3,8.1,1.4c2.6-1.8,3.2-5.5,1.4-8.1
	C189.2,95.5,185.5,94.8,182.9,96.7z"/>
<path class="st1" d="M176.3,108.3c-1.8-2.6-5.5-3.3-8.1-1.4c-2.6,1.8-3.3,5.5-1.4,8.1c1.9,2.6,5.5,3.3,8.1,1.4
	C177.5,114.6,178.2,110.9,176.3,108.3z"/>
<path class="st1" d="M185.2,131c2.6-1.7,3.2-5.4,1.4-8l-0.1,0c-1.9-2.6-5.5-3.2-8-1.4c-2.6,1.8-3.3,5.5-1.4,8.1
	C178.9,132.3,182.6,133,185.2,131L185.2,131z"/>
<path class="st1" d="M201.2,112.7c-1.8-2.6-5.5-3.3-8.1-1.4c-2.6,1.8-3.3,5.4-1.4,8.1l-0.1,0c2,2.6,5.6,3.3,8.2,1.4
	C202.4,119,203.1,115.3,201.2,112.7z"/>
<path class="st1" d="M210,135.5c2.6-1.8,3.3-5.5,1.4-8.1c-1.8-2.6-5.5-3.3-8.1-1.4c-2.6,1.8-3.3,5.5-1.4,8.1
	C203.8,136.7,207.4,137.3,210,135.5z"/>
<path class="st1" d="M217.3,167c-1.8-2.6-5.5-3.3-8.1-1.4c-2.6,1.8-3.3,5.5-1.4,8.1l0.1-0.1c1.8,2.6,5.5,3.3,8.1,1.4
	c2.6-1.9,3.3-5.5,1.4-8.1L217.3,167z"/>
<path class="st1" d="M113.4,28.6c2.3-1.6,3-4.5,2-7h-2.2h-8.5c-0.7,1.8-0.6,3.9,0.6,5.6C107.1,29.8,110.8,30.5,113.4,28.6z"/>
<path class="st1" d="M100.9,52.1c1.8,2.6,5.5,3.3,8.1,1.4c2.6-1.8,3.3-5.4,1.4-8.1c-1.8-2.6-5.4-3.3-8.1-1.4
	C99.7,45.8,99.1,49.4,100.9,52.1z"/>
<path class="st1" d="M115.5,41.8c1.9,2.6,5.5,3.3,8.1,1.4c2.6-1.8,3.3-5.5,1.4-8.1c-1.8-2.6-5.5-3.3-8.1-1.4
	C114.3,35.5,113.6,39.2,115.5,41.8z"/>
<path class="st1" d="M125.8,56.5L125.8,56.5c1.9,2.6,5.5,3.2,8.1,1.4l0-0.1c2.5-1.8,3.2-5.5,1.3-8c-1.8-2.6-5.5-3.3-8.1-1.4
	C124.6,50.2,124,53.8,125.8,56.5z M125.8,56.5"/>
<path class="st1" d="M131.7,96c1.8,2.6,5.4,3.3,8.1,1.4c2.6-1.8,3.2-5.4,1.4-8.1c-1.8-2.6-5.5-3.3-8.1-1.4
	C130.5,89.7,129.8,93.3,131.7,96z"/>
<path class="st1" d="M160.3,126.7c2.6-1.8,3.3-5.5,1.4-8.1c-1.9-2.6-5.5-3.3-8.1-1.4c-2.6,1.8-3.3,5.5-1.4,8.1
	C154,127.9,157.6,128.5,160.3,126.7z"/>
<path class="st1" d="M195.4,145.8c2.6-1.9,3.3-5.5,1.4-8.1c-1.8-2.6-5.5-3.3-8.1-1.4c-2.6,1.8-3.3,5.5-1.4,8.1
	C189.1,147,192.8,147.7,195.4,145.8z"/>
<path class="st1" d="M182.2,147.9c-1.8-2.6-5.5-3.3-8.1-1.4c-2.6,1.8-3.3,5.5-1.4,8.1c1.8,2.6,5.5,3.3,8.1,1.4
	C183.4,154.1,184,150.5,182.2,147.9z"/>
<path class="st1" d="M192.5,162.6c-1.9-2.7-5.5-3.3-8.1-1.5c-2.6,1.8-3.3,5.5-1.4,8.1l-0.1,0c1.8,2.6,5.5,3.3,8.1,1.4
	C193.6,168.8,194.3,165.2,192.5,162.6L192.5,162.6z"/>
<path class="st1" d="M207.1,152.3c-1.8-2.6-5.5-3.3-8.1-1.4c-2.6,1.8-3.3,5.5-1.4,8.1c1.8,2.6,5.5,3.3,8.1,1.4
	C208.3,158.5,208.9,154.9,207.1,152.3z"/>
<path class="st1" d="M194.6,175.8c-0.3,0.2-0.6,0.5-0.9,0.8h8.4C200.2,174.5,197,174.1,194.6,175.8z"/>
<path class="st1" d="M88.5,24.2c1-0.7,1.6-1.6,2-2.6h-3.8h-6.9c0.2,0.4,0.4,0.8,0.6,1.2C82.2,25.4,85.8,26.1,88.5,24.2z"/>
<path class="st1" d="M90.6,37.5l0.1-0.1c1.8,2.6,5.5,3.3,8.1,1.4c2.6-1.8,3.2-5.4,1.4-8l-0.1,0.1l0-0.1c-1.8-2.6-5.5-3.3-8.1-1.4
	C89.4,31.2,88.7,34.9,90.6,37.5z"/>
<path class="st1" d="M112.6,58.6c-2.6,1.9-3.3,5.5-1.4,8.1c1.8,2.6,5.5,3.3,8.1,1.4c2.6-1.8,3.3-5.5,1.4-8.1
	C118.9,57.4,115.2,56.7,112.6,58.6z"/>
<path class="st1" d="M122.9,73.3c-2.6,1.8-3.3,5.5-1.4,8.1h0.1c1.8,2.6,5.4,3.3,8.1,1.4c2.6-1.8,3.3-5.5,1.4-8.1
	C129.1,72.1,125.5,71.4,122.9,73.3z"/>
<path class="st1" d="M126.5,99.6c-1.8-2.6-5.5-3.3-8.1-1.4c-2.6,1.8-3.3,5.5-1.4,8.1c1.8,2.6,5.5,3.3,8.1,1.4
	C127.7,105.8,128.4,102.2,126.5,99.6z"/>
<path class="st1" d="M151.4,104c-1.8-2.6-5.5-3.3-8.1-1.4c-2.6,1.8-3.3,5.5-1.4,8.1c1.9,2.6,5.5,3.2,8.1,1.4
	C152.6,110.3,153.3,106.6,151.4,104z"/>
<path class="st1" d="M145.6,137c2.6-1.9,3.3-5.5,1.4-8.1c-1.8-2.6-5.4-3.3-8.1-1.4c-2.6,1.8-3.3,5.5-1.4,8.1
	C139.3,138.2,142.9,138.9,145.6,137z"/>
<path class="st1" d="M170.5,141.3c2.6-1.8,3.3-5.4,1.4-8l0.1,0c-1.9-2.7-5.5-3.3-8.1-1.5c-2.6,1.8-3.3,5.5-1.4,8.1l-0.1,0
	C164.2,142.5,167.9,143.2,170.5,141.3z"/>
<path class="st1" d="M169.7,171.4c-1.7,1.2-2.6,3.2-2.4,5.2h5.1h6.4c0.1-1.3-0.2-2.7-1-3.8C176,170.2,172.3,169.5,169.7,171.4z"/>
<path class="st1" d="M51.1,43.3c1.8,2.6,5.5,3.3,8.1,1.4c2.6-1.8,3.3-5.4,1.4-8.1c-1.8-2.6-5.5-3.3-8.1-1.4
	C49.9,37,49.3,40.7,51.1,43.3z"/>
<path class="st1" d="M73.9,34.4c2.6-1.8,3.3-5.5,1.4-8.1c-1.8-2.6-5.4-3.3-8.1-1.4c-2.6,1.9-3.3,5.5-1.4,8.1
	C67.6,35.6,71.3,36.3,73.9,34.4z"/>
<path class="st1" d="M76,47.7c1.8,2.6,5.4,3.3,8.1,1.4L84,48.8l0.1,0.2c2.6-1.7,3.3-5.4,1.4-8l-0.1,0.1c-1.8-2.6-5.5-3.3-8.1-1.4
	C74.8,41.4,74.2,45.1,76,47.7z"/>
<path class="st1" d="M87.7,54.2c-2.6,1.9-3.3,5.5-1.4,8.1c1.8,2.6,5.5,3.3,8.1,1.4c2.6-1.8,3.3-5.5,1.4-8.1
	C94,53,90.3,52.3,87.7,54.2z"/>
<path class="st1" d="M81.9,87.2c1.8,2.6,5.5,3.3,8.1,1.4c2.6-1.8,3.3-5.5,1.4-8.1h0c-1.8-2.6-5.5-3.2-8.1-1.4
	C80.7,80.9,80,84.6,81.9,87.2z"/>
<path class="st1" d="M106,70.3c-1.8-2.5-5.4-3.2-8-1.3c-2.6,1.7-3.2,5.3-1.4,8c1.8,2.6,5.4,3.3,8.1,1.4v-0.1
	C107.2,76.5,107.9,72.9,106,70.3L106,70.3z"/>
<path class="st1" d="M106.8,91.6c1.8,2.6,5.4,3.3,8.1,1.4c2.6-1.8,3.2-5.4,1.4-8l-0.3,0.1l0.2-0.1c-1.7-2.7-5.4-3.3-8-1.5
	C105.6,85.3,104.9,89,106.8,91.6z"/>
<path class="st1" d="M127.3,120.9c1.8,2.6,5.4,3.3,8.1,1.4v-0.1c2.6-1.7,3.2-5.3,1.4-8l-0.1,0c-1.8-2.6-5.5-3.2-8-1.4
	C126.1,114.6,125.4,118.3,127.3,120.9L127.3,120.9z"/>
<path class="st1" d="M132.4,139.1c-1.8-2.6-5.4-3.3-8.1-1.4c-2.6,1.8-3.3,5.5-1.4,8.1c1.8,2.6,5.4,3.3,8.1,1.4
	C133.6,145.4,134.2,141.7,132.4,139.1z"/>
<path class="st1" d="M142.6,153.7L142.6,153.7c-1.9-2.6-5.4-3.2-8-1.4c-2.6,1.8-3.3,5.5-1.4,8.1h0c1.8,2.6,5.5,3.3,8.1,1.4l0-0.1
	C143.8,159.9,144.5,156.3,142.6,153.7z M133.2,160.4"/>
<path class="st1" d="M157.3,143.5c-1.8-2.6-5.5-3.3-8.1-1.4c-2.6,1.8-3.3,5.4-1.4,8.1h0.1c1.8,2.6,5.4,3.3,8.1,1.4
	C158.5,149.8,159.1,146.1,157.3,143.5z"/>
<path class="st1" d="M167.6,158.1c-1.9-2.6-5.5-3.2-8.1-1.4c-2.6,1.8-3.3,5.5-1.4,8.1c1.8,2.6,5.4,3.3,8.1,1.4
	C168.8,164.4,169.5,160.7,167.6,158.1z"/>
<path class="st1" d="M144.8,166.9c-2.6,1.8-3.3,5.5-1.4,8.1c0.4,0.6,1,1.1,1.5,1.5h6.4c0,0,0.1,0,0.1-0.1h0.1
	c2.6-1.8,3.3-5.5,1.4-8.1C151.1,165.7,147.4,165,144.8,166.9z"/>
<path class="st1" d="M41,28.7c1.7,2.6,5.3,3.2,8,1.4L48.9,30c2.7-1.8,3.3-5.4,1.5-8c-0.1-0.1-0.2-0.2-0.3-0.4h-8.9
	C39.6,23.6,39.4,26.5,41,28.7L41,28.7z"/>
<path class="st1" d="M61.4,57.9c1.8,2.6,5.5,3.3,8.1,1.4c2.6-1.8,3.3-5.5,1.4-8.1c-1.8-2.6-5.4-3.3-8.1-1.4
	C60.2,51.7,59.6,55.3,61.4,57.9z"/>
<path class="st1" d="M73,64.5c-2.6,1.8-3.2,5.4-1.4,8.1c1.8,2.6,5.5,3.3,8.1,1.4c2.6-1.8,3.3-5.5,1.4-8.1
	C79.3,63.3,75.6,62.6,73,64.5z"/>
<path class="st1" d="M58.4,74.7c-2.6,1.8-3.3,5.5-1.4,8.1c1.8,2.6,5.5,3.3,8.1,1.4c2.6-1.8,3.3-5.5,1.4-8.1
	C64.7,73.5,61,72.8,58.4,74.7z"/>
<path class="st1" d="M93.5,93.8c-2.6,1.8-3.3,5.5-1.4,8.1c1.9,2.6,5.5,3.2,8.1,1.4s3.3-5.5,1.4-8.1C99.8,92.6,96.2,91.9,93.5,93.8z"
	/>
<path class="st1" d="M87,105.4c-1.8-2.6-5.5-3.3-8.1-1.4c-2.6,1.8-3.3,5.5-1.4,8.1c1.8,2.6,5.5,3.3,8.1,1.4
	C88.2,111.7,88.9,108,87,105.4z"/>
<path class="st1" d="M111.9,109.8c-1.8-2.6-5.4-3.3-8.1-1.4c-2.6,1.8-3.3,5.5-1.4,8.1c1.8,2.6,5.5,3.3,8.1,1.4
	C113.1,116.1,113.8,112.4,111.9,109.8z"/>
<path class="st1" d="M112.7,131.2c1.8,2.6,5.4,3.2,8,1.4l0,0c2.7-1.9,3.3-5.5,1.5-8.1c-1.8-2.6-5.5-3.3-8.1-1.4
	C111.5,124.9,110.8,128.6,112.7,131.2L112.7,131.2z"/>
<path class="st1" d="M128,164c-1.8-2.6-5.4-3.3-8.1-1.4c-2.6,1.8-3.3,5.5-1.4,8.1l0.1-0.1c1.8,2.6,5.5,3.3,8.1,1.4
	c2.6-1.8,3.3-5.5,1.4-8.1L128,164z"/>
<path class="st1" d="M131.6,176.6h4C134.3,176.1,132.9,176.1,131.6,176.6z"/>
<path class="st1" d="M26.3,38.9c1.8,2.6,5.5,3.3,8.1,1.4l-0.1-0.1c2.6-1.7,3.3-5.3,1.4-8l-0.1,0c-1.8-2.5-5.5-3.2-8-1.3
	c-2.6,1.8-3.3,5.5-1.4,8.1L26.3,38.9z"/>
<path class="st1" d="M36.5,53.5c1.8,2.6,5.5,3.3,8.1,1.4c2.6-1.8,3.3-5.5,1.4-8.1c-1.8-2.6-5.5-3.3-8.1-1.4
	C35.3,47.3,34.7,50.9,36.5,53.5z"/>
<path class="st1" d="M33.5,70.4c-2.6,1.8-3.3,5.5-1.4,8.1l-0.1,0c1.9,2.6,5.6,3.2,8.2,1.4c2.6-1.8,3.3-5.5,1.4-8.1
	C39.8,69.2,36.1,68.5,33.5,70.4z"/>
<path class="st1" d="M56.1,61.5c-1.8-2.5-5.5-3.2-8-1.3c-2.5,1.7-3.2,5.4-1.3,8h0c1.8,2.6,5.4,3.2,8,1.4v-0.1
	C57.4,67.8,58.1,64.2,56.1,61.5L56.1,61.5z"/>
<path class="st1" d="M42.4,93.1c1.8,2.6,5.5,3.3,8.1,1.4c2.6-1.8,3.3-5.5,1.4-8.1c-1.8-2.6-5.5-3.3-8.1-1.4
	C41.2,86.8,40.5,90.5,42.4,93.1z"/>
<path class="st1" d="M67.3,97.5L67.3,97.5c1.8,2.5,5.4,3.2,8,1.4l0,0c2.7-1.8,3.3-5.5,1.5-8.1l-0.1,0c-1.9-2.6-5.5-3.2-8-1.4
	C66.1,91.2,65.4,94.9,67.3,97.5z"/>
<path class="st1" d="M70.9,123.8c2.6-1.8,3.3-5.5,1.4-8.1c-1.9-2.6-5.5-3.3-8.1-1.4c-2.6,1.8-3.3,5.5-1.4,8.1
	C64.7,125,68.3,125.6,70.9,123.8z"/>
<path class="st1" d="M87.9,126.8c1.8,2.5,5.5,3.2,8,1.3c2.6-1.8,3.2-5.4,1.4-8l-0.1,0.1c-1.8-2.7-5.4-3.4-8-1.5
	C86.6,120.5,85.9,124.2,87.9,126.8L87.9,126.8z"/>
<path class="st1" d="M106.1,142.8c2.6-1.8,3.2-5.4,1.4-8.1c-1.8-2.6-5.4-3.3-8.1-1.4c-2.6,1.8-3.3,5.5-1.4,8.1
	C99.8,144,103.5,144.7,106.1,142.8z"/>
<path class="st1" d="M92.9,145c-1.8-2.6-5.5-3.3-8.1-1.4c-2.6,1.8-3.3,5.5-1.4,8.1c1.8,2.6,5.5,3.3,8.1,1.4
	C94.1,151.2,94.7,147.6,92.9,145z"/>
<path class="st1" d="M103.1,159.6L103.1,159.6c-1.9-2.6-5.4-3.2-8.1-1.4c-2.6,1.8-3.3,5.5-1.4,8.1l0,0c1.8,2.6,5.5,3.3,8.1,1.4
	C104.3,165.9,105,162.2,103.1,159.6z"/>
<path class="st1" d="M117.8,149.4c-1.8-2.6-5.5-3.3-8.1-1.4c-2.6,1.8-3.3,5.5-1.4,8.1c1.8,2.6,5.5,3.3,8.1,1.4
	C119,155.6,119.6,152,117.8,149.4z"/>
<path class="st1" d="M105.3,172.9c-1.3,0.9-2.1,2.3-2.4,3.7h7.2l0,0h4.2c-0.1-0.8-0.4-1.6-0.9-2.3
	C111.6,171.7,107.9,171,105.3,172.9z"/>
<path class="st1" d="M21.1,42.5c-0.6-0.9-1.5-1.6-2.5-2v3.7v6.9c0.4-0.1,0.7-0.3,1.1-0.5C22.3,48.8,23,45.1,21.1,42.5z"/>
<path class="st1" d="M21.9,63.8c1.8,2.6,5.5,3.3,8.1,1.4c2.6-1.8,3.2-5.4,1.4-8.1c-1.8-2.6-5.5-3.3-8.1-1.4
	C20.7,57.5,20,61.2,21.9,63.8z"/>
<path class="st1" d="M25.5,90.1L25.5,90.1c2.7-1.8,3.3-5.4,1.5-8.1l-0.1,0c-1.8-2.5-5.5-3.2-8-1.3c-0.1,0.1-0.2,0.2-0.3,0.2v9
	C20.6,91.4,23.4,91.6,25.5,90.1z"/>
<path class="st1" d="M62.1,101.1c-1.8-2.6-5.5-3.3-8.1-1.4c-2.6,1.8-3.3,5.5-1.4,8.1c1.8,2.6,5.5,3.3,8.1,1.4
	C63.3,107.3,63.9,103.7,62.1,101.1z"/>
<path class="st1" d="M56.3,134c2.6-1.8,3.3-5.5,1.4-8.1c-1.8-2.6-5.5-3.3-8.1-1.4c-2.6,1.9-3.2,5.5-1.4,8.1
	C50,135.2,53.7,135.9,56.3,134z"/>
<path class="st1" d="M82.6,130.3l-0.1,0.1c-1.7-2.7-5.3-3.3-8-1.5c-2.6,1.8-3.3,5.5-1.4,8.1c1.8,2.6,5.5,3.3,8.1,1.4l-0.1-0.3
	l0.1,0.2C83.8,136.6,84.5,133,82.6,130.3z"/>
<path class="st1" d="M80.4,168.5c-2.6,1.8-3.3,5.4-1.4,8.1h9.4c1.4-2,1.5-4.7,0.1-6.7C86.7,167.3,83,166.6,80.4,168.5z"/>
<path class="st1" d="M27.7,103.3l0.3-0.2L27.7,103.3c1.9,2.6,5.5,3.3,8.1,1.5l-0.2-0.3l0.2,0.2c2.6-1.8,3.3-5.5,1.4-8.1
	c-1.8-2.6-5.5-3.3-8.1-1.4C26.5,97,25.8,100.7,27.7,103.3z"/>
<path class="st1" d="M47.5,111.3L47.5,111.3c-2-2.6-5.5-3.2-8.1-1.4c-2.6,1.8-3.3,5.5-1.4,8.1c1.8,2.6,5.5,3.3,8.1,1.4l0-0.1
	C48.7,117.6,49.3,113.9,47.5,111.3z"/>
<path class="st1" d="M41.7,144.3c2.6-1.8,3.2-5.5,1.4-8.1c-1.8-2.6-5.5-3.3-8.1-1.4c-2.6,1.8-3.3,5.5-1.4,8.1
	C35.4,145.5,39.1,146.2,41.7,144.3z"/>
<path class="st1" d="M68,140.6c-1.8-2.6-5.5-3.3-8.1-1.4c-2.6,1.8-3.3,5.5-1.4,8.1l-0.1,0c1.8,2.6,5.5,3.3,8.1,1.4
	C69.2,146.8,69.8,143.2,68,140.6z"/>
<path class="st1" d="M78.3,155.2c-1.9-2.6-5.5-3.2-8.1-1.4s-3.3,5.5-1.4,8.1c1.8,2.6,5.5,3.3,8.1,1.4
	C79.5,161.5,80.2,157.8,78.3,155.2z"/>
<path class="st1" d="M55.5,164.1c-2.6,1.8-3.3,5.5-1.4,8.1c1.8,2.6,5.5,3.3,8.1,1.4c2.6-1.8,3.3-5.5,1.4-8.1
	C61.7,162.9,58.1,162.2,55.5,164.1z"/>
<path class="st1" d="M21.2,115c2.6-1.8,3.2-5.4,1.4-8.1c-1-1.4-2.4-2.2-3.9-2.4v5.2v0v0.9l-0.1-0.2v5.6
	C19.5,115.9,20.3,115.6,21.2,115L21.2,115z"/>
<path class="st1" d="M18.6,132.6v5C19.4,136.1,19.4,134.2,18.6,132.6z"/>
<path class="st1" d="M23.3,128.3L23.3,128.3c1.9,2.5,5.5,3.2,8.1,1.3c2.6-1.8,3.3-5.4,1.4-8c-1.8-2.6-5.5-3.3-8.1-1.4
	C22.1,122,21.4,125.7,23.3,128.3z"/>
<path class="st1" d="M38.7,161l-0.1,0.1c-1.8-2.6-5.5-3.3-8.1-1.4c-2.6,1.8-3.3,5.5-1.4,8.1l0.1-0.1c1.8,2.6,5.5,3.3,8.1,1.4
	C39.9,167.3,40.6,163.6,38.7,161z"/>
<path class="st1" d="M53.3,150.9L53.3,150.9c-1.8-2.7-5.4-3.3-8-1.5c-2.6,1.8-3.3,5.5-1.4,8.1l-0.1,0c1.8,2.6,5.5,3.3,8.1,1.4l0,0
	C54.5,157,55.2,153.5,53.3,150.9z"/>
<path class="st1" d="M40.9,174.3c-0.8,0.6-1.5,1.4-1.9,2.2h10.4c-0.1-0.3-0.3-0.6-0.5-0.8C47.1,173.1,43.5,172.5,40.9,174.3z"/>
<path class="st1" d="M28.5,146.4c-1.8-2.6-5.5-3.3-8.1-1.4c-0.8,0.5-1.3,1.2-1.7,2v5.6c0.1,0.2,0.2,0.4,0.3,0.5
	c1.8,2.6,5.5,3.3,8.1,1.4C29.7,152.7,30.4,149,28.5,146.4z"/>
<path class="st1" d="M24,171.4c-0.7-1-1.7-1.7-2.7-2.1c0.6,0.9,1.3,1.7,2.1,2.5c0.4,0.5,0.9,0.9,1.4,1.3
	C24.6,172.5,24.4,171.9,24,171.4L24,171.4z"/>
<path class="st1" d="M425.3,152.3L425.3,152.3c-1.9-2.7-5.5-3.3-8.1-1.5c-2.6,1.8-3.3,5.5-1.4,8.1h0c1.8,2.6,5.5,3.3,8.1,1.4
	C426.5,158.5,427.1,154.9,425.3,152.3z M420.6,155.4v0.2V155.4L420.6,155.4z"/>
<path class="st1" d="M439.9,142h-0.1c-1.7-2.6-5.3-3.2-8-1.4c-2.6,1.8-3.3,5.5-1.4,8.1c1.8,2.6,5.5,3.3,8.1,1.4V150
	C441.1,148.3,441.7,144.6,439.9,142z"/>
<path class="st1" d="M481.6,149.4c-2.6,1.8-3.3,5.5-1.4,8.1c1.1,1.6,3,2.5,4.8,2.5v-5.7l-0.1-0.2l0.1,0.1v-5.9
	C483.9,148.3,482.7,148.6,481.6,149.4L481.6,149.4z"/>
<path class="st1" d="M284.7,76.1l-0.1,0c-1.8-2.6-5.4-3.2-8-1.4l0.1,0.1c-2.7,1.8-3.4,5.4-1.5,8c1.8,2.6,5.5,3.3,8.1,1.4v-0.1
	C285.9,82.4,286.5,78.8,284.7,76.1z"/>
<path class="st1" d="M338.9,60h-0.1c-1.8-2.6-5.4-3.2-8-1.4v0.1c-2.6,1.7-3.3,5.4-1.4,8l0,0c1.8,2.6,5.5,3.3,8.1,1.4V68
	C340.1,66.3,340.7,62.6,338.9,60z"/>
<path class="st1" d="M353.5,49.8L353.5,49.8c-1.8-2.6-5.5-3.3-8.1-1.5v0.1c-2.6,1.8-3.2,5.4-1.4,8c1.8,2.6,5.5,3.3,8.1,1.4l0-0.1
	C354.7,55.9,355.3,52.4,353.5,49.8z"/>
<path class="st1" d="M368.1,39.5L368.1,39.5c-1.9-2.6-5.4-3.2-8-1.4v0c-2.7,1.8-3.3,5.5-1.5,8.1c1.8,2.6,5.5,3.3,8.1,1.4v-0.1
	C369.3,45.8,370,42.1,368.1,39.5z"/>
<path class="st1" d="M359.4,89.3h-0.1c-1.8-2.6-5.4-3.3-8-1.4c-2.6,1.8-3.3,5.4-1.5,8l0,0c1.8,2.6,5.5,3.3,8.1,1.4h0.1
	C360.6,95.5,361.2,91.9,359.4,89.3z"/>
<path class="st1" d="M261.3,136.2L261.3,136.2c-1.9-2.6-5.6-3.3-8.2-1.4c-2.6,1.8-3.3,5.5-1.4,8.1c1.8,2.6,5.5,3.3,8.1,1.4l0.1-0.1
	C262.5,142.4,263.1,138.8,261.3,136.2z"/>
<path class="st1" d="M300.8,130.3L300.8,130.3c-1.8-2.6-5.5-3.2-8.1-1.4c-2.6,1.8-3.3,5.5-1.4,8.1c1.8,2.6,5.5,3.3,8.1,1.4v-0.1
	C302,136.6,302.6,132.9,300.8,130.3z"/>
<path class="st1" d="M315.4,120.1L315.4,120.1c-1.8-2.7-5.4-3.3-8-1.5v0.1c-2.6,1.8-3.3,5.4-1.5,8l0,0c1.8,2.6,5.5,3.3,8.1,1.4
	C316.6,126.3,317.3,122.7,315.4,120.1z"/>
<path class="st1" d="M330.1,109.8L330.1,109.8c-1.9-2.6-5.5-3.2-8.1-1.4s-3.3,5.5-1.4,8.1l0,0c1.8,2.6,5.5,3.3,8.1,1.4v-0.1
	C331.3,116.1,331.9,112.4,330.1,109.8z"/>
<path class="st1" d="M321.2,159.5L321.2,159.5c-1.8-2.5-5.4-3.2-8-1.3l0,0c-2.6,1.8-3.3,5.5-1.4,8.1l0,0c1.8,2.6,5.5,3.3,8.1,1.4
	l-0.1-0.1C322.4,165.8,323.1,162.1,321.2,159.5z"/>
<path class="st1" d="M234.9,67.4l-0.1,0c-1.8-2.6-5.5-3.3-8.1-1.4c-2.5,1.8-3.1,5.4-1.3,8l0,0c1.8,2.6,5.5,3.3,8.1,1.4
	C236.1,73.6,236.7,70,234.9,67.4z"/>
<path class="st1" d="M442.8,52.7L442.8,52.7c-1.8-2.6-5.4-3.3-8.1-1.4l0,0.1c-2.6,1.8-3.2,5.4-1.4,7.9c1.8,2.6,5.5,3.3,8.1,1.4l0,0
	C444,58.9,444.7,55.3,442.8,52.7z"/>
<path class="st1" d="M432.6,38c-1.8-2.6-5.5-3.3-8.1-1.4v0.1c-2.6,1.8-3.3,5.5-1.4,8.1c1.8,2.5,5.4,3.2,8,1.3l0-0.1
	C433.8,44.3,434.4,40.7,432.6,38z"/>
<path class="st1" d="M457.6,21.6L457.6,21.6h-6.3c0.1,0.9,0.4,1.8,1,2.6c1.9,2.6,5.5,3.3,8.1,1.4l0,0c1.4-1,2.2-2.4,2.4-4H457.6z"/>
<path class="st1" d="M480.3,26.5v-0.1c-1.1-1.1-2.4-2.1-3.8-2.9c-0.5,1.7-0.3,3.6,0.7,5.1l0,0c1.4,2,3.9,2.9,6.2,2.3
	C482.6,29.3,481.6,27.8,480.3,26.5z"/>
<path class="st1" d="M485,88.5v-4.4c-1.6-0.4-3.4-0.2-4.9,0.8c-2.6,1.8-3.3,5.5-1.4,8.1c1.5,2.1,4,2.9,6.3,2.2v-3.3v0V88.5L485,88.5
	z"/>
<path class="st1" d="M469.2,121.5h-0.1c-1.7-2.6-5.4-3.3-8-1.4c-2.6,1.8-3.3,5.5-1.4,8.1l0,0c1.8,2.6,5.5,3.3,8.1,1.4v-0.1
	C470.4,127.7,471,124.1,469.2,121.5z"/>
<path class="st1" d="M396,172.8L396,172.8c-1.9-2.7-5.5-3.3-8.1-1.5v0.1c-1.7,1.2-2.6,3.2-2.4,5.2h5.1h1l0,0h5.4
	C397.1,175.3,396.8,173.9,396,172.8z"/>
<path class="st1" d="M306.7,169.9l-0.1-0.1c-1.8-2.6-5.4-3.2-8-1.4l0,0c-2.6,1.8-3.3,5.5-1.4,8.1c0,0,0,0,0,0.1h7.1h0.1h2.3
	C308,174.6,308.1,171.9,306.7,169.9z"/>
<path class="st1" d="M189.5,33.7L189.5,33.7c-1.9-2.6-5.6-3.3-8.2-1.4c-2.6,1.8-3.3,5.5-1.4,8.1l0,0c1.8,2.5,5.5,3.2,8.1,1.3l0.1,0
	C190.7,39.9,191.3,36.3,189.5,33.7z"/>
<path class="st1" d="M278.8,36.6l-0.1,0.1c-1.7-2.6-5.2-3.3-7.9-1.6l0,0c-2.6,1.8-3.3,5.5-1.4,8.1l-0.1,0.1c1.8,2.6,5.5,3.3,8.1,1.4
	v-0.1C280,42.8,280.7,39.2,278.8,36.6z"/>
<path class="st1" d="M293.5,26.4L293.5,26.4c-1.9-2.7-5.5-3.3-8.1-1.5V25c-2.6,1.8-3.3,5.5-1.4,8.1l0,0c1.8,2.5,5.5,3.2,8.1,1.3
	C294.7,32.6,295.3,29,293.5,26.4z"/>
<path class="st2" d="M117.6,127.7h-14.3c-5.2,14.6-16.2,17.8-25,17.8c-8.1,0-14.7-2.8-19.5-8.3c-3.8-4.5-6.2-11-7.1-20.1
	c-0.3-2.7-0.4-8.7-0.4-18.9c0-25.7,3.3-33.3,5.7-36.8c5-7,12.2-10.5,21.3-10.5c8.7,0,19.8,3.2,25,17.8h14.3
	c-2.3-8.6-6.4-15.2-12.4-20.1c-7.3-6.1-16.2-9-27.1-9c-12,0-21.8,4-30,12.2c-4.9,4.9-8,11.1-9.4,19c-0.9,4.8-1.3,14.1-1.3,27.5
	s0.4,22.7,1.3,27.5c1.4,7.8,4.5,14,9.4,18.9c8.2,8.2,18,12.2,30,12.2c10.8,0,19.5-2.9,26.7-8.9C111.1,143,115.3,136.3,117.6,127.7z"
	/>
<rect x="144.4" y="40.7" class="st2" width="13.1" height="115.2"/>
<path class="st2" d="M257.8,50.8c-6.4-6.8-14.6-10.1-25.2-10.1h-40.8v115.2h13.1v-42v-5.3h5h22.7c10.6,0,18.8-3.3,25.2-10.1
	c5.9-6.3,8.8-14.1,8.8-23.8C266.6,64.9,263.7,57.1,257.8,50.8z M247.3,90.9c-4,4.1-9.4,6.1-15.9,6.1h-21.6h-5v-5.3V57.3V52h5h21.6
	c6.5,0,11.9,2.1,15.9,6.3c4.1,4.2,6.2,9.7,6.2,16.3C253.5,81.3,251.4,86.8,247.3,90.9z"/>
<path class="st2" d="M361.5,124.1c0-10.2-2.5-17.7-7.6-22.8c-4.2-4.1-10.9-7-19.9-8.3l-13.9-2.1c-5.6-0.9-10.2-2.9-13.4-6.1
	c-3.5-3.5-5.3-8-5.3-13.1c0-6.1,2.2-11.4,6.4-15.3c4.1-3.9,9.7-5.9,16.8-5.9c9.7,0,17.7,2.3,23.9,6.9l7.6-8
	c-8.1-6.5-18.2-9.6-30.9-9.6c-11.3,0-20.3,3.1-26.7,9.2c-6.4,6-9.5,13.8-9.5,23.7c0,17.7,8.6,27.2,27.1,29.9l14.3,2.1
	c5.8,0.9,10.2,2.8,13.3,5.9c3.4,3.3,5.1,8.2,5.1,14.4c0,7.8-3.4,20.8-25.9,20.8c-11.6,0-21.1-2.9-28.3-8.7l-8,8.5
	c9,7.6,21.1,11.5,36,11.5c11.5,0,21.1-3,28.4-9.1C358.1,142.1,361.5,134.3,361.5,124.1z"/>
<path class="st2" d="M460.7,125.7L460.7,125.7c0.9-5,1.4-14.2,1.4-27.5c0-13.2-0.5-22.5-1.4-27.4v-0.1v-0.1
	c-1.3-7.7-4.2-13.9-8.9-18.9c-7.7-8.2-17-12.2-28.4-12.2c-11.5,0-20.8,4-28.5,12.2c-4.6,4.9-7.5,11.1-8.9,19
	c-0.8,4.8-1.2,14.1-1.2,27.5s0.4,22.6,1.2,27.5c1.4,7.8,4.3,14,8.9,18.9c7.7,8.2,17.1,12.2,28.5,12.2c11.3,0,20.6-4,28.4-12.2
	C456.5,139.7,459.4,133.5,460.7,125.7L460.7,125.7z M443.5,134.9c-4.8,7.1-11.6,10.6-20.1,10.6c-7.6,0-13.9-2.8-18.6-8.5
	c-3.7-4.5-5.8-11-6.6-19.9c-0.2-1.5-0.4-5.2-0.4-18.9c0-13.7,0.2-17.4,0.4-18.9c0.8-9,2.9-15.5,6.5-19.9c4.8-5.7,11.1-8.5,18.7-8.5
	c7.5,0,13.7,2.9,18.5,8.5c3.8,4.4,6,11,6.7,20c0.2,2.8,0.4,9,0.4,18.8C448.9,123.8,446,131.3,443.5,134.9z"/>
</svg>
