<?xml version="1.0" encoding="utf-8"?>
<!-- Generator: Adobe Illustrator 19.1.0, SVG Export Plug-In . SVG Version: 6.00 Build 0)  -->
<svg version="1.1" id="Calque_1" xmlns="http://www.w3.org/2000/svg" xmlns:xlink="http://www.w3.org/1999/xlink" x="0px" y="0px"
	 viewBox="-345 170.9 500 500" style="enable-background:new -345 170.9 500 500;" xml:space="preserve">
<style type="text/css">
	.st0{fill:#F4A22B;}
	.st1{fill:#AFB0B2;}
	.st2{fill:none;}
	.st3{fill:#FFFFFF;}
</style>
<rect x="-296.9" y="188.9" class="st0" width="403.8" height="408.9"/>
<path class="st1" d="M-263.4,621.2c-2.6-3-5.7-4.1-9.7-4.1c-3.3,0-5.6,1.2-5.6,3.3c0,7.5,25.5,0.9,25.5,19.8
	c0,7.7-6.2,15.5-19.8,15.5c-8.3,0-15.6-2-20.6-9.1l8-6.2c2.9,3.6,7,5.7,11.7,5.7c5.2,0,7.3-2,7.3-4.1c0-7.1-25.2-1.7-25.2-19.3
	c0-9.1,7.6-15.3,18.7-15.3c6.5,0,13.2,2,17.3,7.3L-263.4,621.2z"/>
<path class="st1" d="M-245.5,608.4h13.3v46.5h-13.3V608.4z"/>
<path class="st1" d="M-222.6,608.4h12.4l16.6,24.7h0.1v-24.7h10.2v46.5h-10l-19-26.3h-0.1v26.3h-10.2V608.4z"/>
<path class="st1" d="M-148.4,624.8c-0.4-4.2-2.7-8.1-7.1-8.1c-5.2,0-7.8,4.4-7.8,14.4c0,10.4,2.4,15.4,9,15.4c4.8,0,7.8-4.3,8.8-8.7
	l10,2.2c-3.1,11-10,15.8-21.3,15.8c-9,0-20.4-7-20.4-23.8c0-17.1,11.1-24.5,22.3-24.5c11.6,0,18,7.9,19,16.4L-148.4,624.8z"/>
<path class="st1" d="M-130.9,608.4h35v9.6h-21.7v8.4h13.9v9.6h-13.9v8.9h22.4v10h-35.7L-130.9,608.4L-130.9,608.4z"/>
<path class="st1" d="M-62.7,645.3h7.8v-22.7c-2.5,0.7-5.2,1-7.8,1.4v-8c5.5-0.8,9.6-2.8,13.9-7.6h7.1v36.9h7.5v9.6h-28.6
	L-62.7,645.3L-62.7,645.3z"/>
<path class="st1" d="M-12.3,640.9c1.1,3.5,2.8,6.4,6.8,6.4c6.1,0,7.5-8.1,7.6-12.8c-3.5,1.9-7.4,2.5-11.3,2.5
	c-9.7,0-15.4-6-15.4-12.9c0-10.7,8.6-16.2,18.6-16.2c13.6,0,21.4,8.7,21.4,23.2c0,16.1-10.9,24.7-20.9,24.7
	c-8.7,0-14.4-3.3-17.5-11.5L-12.3,640.9z M1.8,623.8c-0.4-3.1-2.7-7.8-6.7-7.8c-3.9,0-6.4,3.1-6.4,6.8c0,3.4,2.2,5.7,5.8,5.7
	c1.8,0,3.9-0.5,5.5-1.2l2-0.9L1.8,623.8z"/>
<path class="st1" d="M39.5,644.9H18.7v-8.9l21.8-27.7h11.8v27.7h7.7v8.9h-7.7v10H39.5L39.5,644.9L39.5,644.9z M28.3,636.1h11.1
	v-15.1h-0.1L28.3,636.1z"/>
<path class="st1" d="M68.6,608.7h31.6l-1,11.1H77.4l-0.8,7.4c2.4-1,5.9-1.9,8.6-1.9c14.3,0,18.3,8.7,18.3,14.8
	c0,4.7-2.9,15.6-20.8,15.6c-7.3,0-14.7-3.1-19.2-9l8.3-6.6c2.5,3.9,5.7,6.7,10.7,6.7c3.7,0,7.7-2.2,7.7-6.3c0-5.4-5.3-6.4-7.2-6.4
	c-3,0-5.2,0.9-7.7,2.3l-9-5L68.6,608.7z"/>
<rect x="-123.2" y="342.4" class="st2" width="70.2" height="27.4"/>
<rect x="-296.9" y="467.5" class="st2" width="403.8" height="130.2"/>
<path class="st2" d="M-34.4,434c-19.5,1.7-18.6-17.9-18.6-17.9v-28.5h-70.2v47.5h-24v-92.7h-149.7v107.2h403.8V434H-34.4z
	 M-159.5,373.7h-90.9v42.4h90.9V434h-96.1c-11.2,0.7-14.2-14.9-14.2-14.9v-43.9c-0.7-17.1,14.2-19.4,14.2-19.4h96.1L-159.5,373.7
	L-159.5,373.7z"/>
<rect x="-296.9" y="188.9" class="st2" width="403.8" height="101"/>
<path class="st2" d="M-33.8,340.2l-0.5,76h141.2V307.8h-403.8v16.8h240.2C-56.7,324.5-32.8,321.4-33.8,340.2z M-23.6,382.1v-41.9
	C-23.7,324.5-7,323.4-7,323.4h83.2c0,0,14.6,6.2,11.2,19.5H-4.2v39.7h71.5l0.6-12.3H6.4v-19h80.4v35.7c0,0-0.6,14.5-17.9,14h-83.2
	C-26,399.4-23.6,382.1-23.6,382.1z"/>
<rect x="-296.9" y="289.9" class="st3" width="403.8" height="17.9"/>
<rect x="-296.9" y="449.7" class="st3" width="403.8" height="17.9"/>
<path class="st3" d="M-147.2,435.1h24v-47.5H-53v28.5c0,0-0.9,19.5,18.6,17.9h141.3v-17.9H-34.3l0.5-76c1-18.7-22.9-15.6-22.9-15.6
	h-240.2v17.9h149.7V435.1z M-123.2,342.4H-53v27.4h-70.2V342.4z"/>
<path class="st3" d="M-269.7,375.2v43.9c0,0,3,15.6,14.2,14.9h96.1v-17.9h-90.9v-42.4h90.9v-17.9h-96.1
	C-255.5,355.8-270.4,358-269.7,375.2z"/>
<path class="st3" d="M-14.3,401.1H69c17.3,0.6,17.9-14,17.9-14v-35.7H6.4v19h61.5l-0.6,12.3H-4.2V343h91.6
	c3.4-13.3-11.2-19.5-11.2-19.5H-7c0,0-16.7,1.1-16.6,16.8v41.9C-23.6,382.1-26,399.4-14.3,401.1z"/>
</svg>
