<?xml version="1.0" encoding="utf-8"?>
<!-- Generator: Adobe Illustrator 15.0.0, SVG Export Plug-In . SVG Version: 6.00 Build 0)  -->
<!DOCTYPE svg PUBLIC "-//W3C//DTD SVG 1.1//EN" "http://www.w3.org/Graphics/SVG/1.1/DTD/svg11.dtd">
<svg version="1.1" id="Calque_1" xmlns="http://www.w3.org/2000/svg" xmlns:xlink="http://www.w3.org/1999/xlink" x="0px" y="0px"
	 width="500px" height="500px" viewBox="0 0 500 500" enable-background="new 0 0 500 500" xml:space="preserve">
<g>
	<rect x="48.128" y="17.986" fill="#F4A22B" width="403.813" height="408.851"/>
	<g>
		<path fill="#AFB0B2" d="M81.567,450.344c-2.587-2.953-5.671-4.129-9.722-4.129c-3.319,0-5.606,1.176-5.606,3.332
			c0,7.5,25.546,0.862,25.546,19.81c0,7.696-6.155,15.523-19.757,15.523c-8.311,0-15.641-1.986-20.567-9.056l8.01-6.22
			c2.888,3.567,6.952,5.658,11.695,5.658c5.227,0,7.317-2.025,7.317-4.051c0-7.082-25.167-1.673-25.167-19.273
			c0-9.108,7.579-15.327,18.712-15.327c6.521,0,13.172,1.973,17.301,7.33L81.567,450.344z"/>
		<path fill="#AFB0B2" d="M99.547,437.473h13.289v46.545H99.547V437.473z"/>
		<path fill="#AFB0B2" d="M122.44,437.473h12.361l16.569,24.697h0.118v-24.697h10.218v46.545h-9.97l-18.96-26.343h-0.117v26.343
			H122.44V437.473z"/>
		<path fill="#AFB0B2" d="M196.608,453.911c-0.431-4.181-2.652-8.062-7.082-8.062c-5.175,0-7.762,4.377-7.762,14.399
			c0,10.414,2.352,15.393,8.99,15.393c4.809,0,7.814-4.312,8.755-8.689l9.957,2.169c-3.136,11.002-9.957,15.759-21.299,15.759
			c-8.99,0-20.437-7.03-20.437-23.769c0-17.104,11.081-24.5,22.345-24.5c11.629,0,18.032,7.879,18.96,16.385L196.608,453.911z"/>
		<path fill="#AFB0B2" d="M214.143,437.473h35.013v9.604h-21.71v8.429h13.896v9.617h-13.896v8.911h22.39v9.983h-35.692V437.473z"/>
		<path fill="#AFB0B2" d="M282.346,474.4h7.814v-22.711c-2.535,0.68-5.175,1.046-7.762,1.359v-7.997
			c5.54-0.81,9.604-2.771,13.916-7.579h7.135V474.4h7.514v9.617h-28.617V474.4z"/>
		<path fill="#AFB0B2" d="M332.68,470.036c1.123,3.502,2.77,6.351,6.847,6.351c6.142,0,7.501-8.076,7.632-12.754
			c-3.45,1.855-7.449,2.457-11.33,2.457c-9.656,0-15.393-5.959-15.393-12.91c0-10.715,8.625-16.203,18.646-16.203
			c13.551,0,21.352,8.689,21.352,23.154c0,16.072-10.885,24.749-20.854,24.749c-8.742,0-14.399-3.332-17.536-11.46L332.68,470.036z
			 M346.792,452.918c-0.379-3.07-2.718-7.813-6.717-7.813c-3.946,0-6.351,3.136-6.351,6.769c0,3.449,2.222,5.723,5.802,5.723
			c1.843,0,3.934-0.482,5.54-1.228l2.025-0.862L346.792,452.918z"/>
		<path fill="#AFB0B2" d="M384.451,474.034H363.7v-8.859l21.849-27.702h11.838v27.702h7.684v8.859h-7.684v9.983h-12.936V474.034z
			 M373.305,465.175h11.146V450.03h-0.118L373.305,465.175z"/>
		<path fill="#AFB0B2" d="M413.564,437.839h31.648l-0.993,11.081h-21.848l-0.811,7.396c2.404-1.045,5.92-1.855,8.559-1.855
			c14.282,0,18.281,8.742,18.281,14.778c0,4.679-2.901,15.642-20.803,15.642c-7.317,0-14.713-3.084-19.209-8.99l8.311-6.585
			c2.535,3.867,5.724,6.703,10.663,6.703c3.737,0,7.735-2.156,7.735-6.285c0-5.41-5.344-6.391-7.187-6.391
			c-2.953,0-5.175,0.85-7.696,2.34l-8.977-4.992L413.564,437.839z"/>
	</g>
	<g>
		<rect x="221.827" y="171.516" fill="none" width="70.189" height="27.369"/>
		<rect x="48.128" y="296.639" fill="none" width="403.813" height="130.198"/>
		<path fill="none" d="M310.623,263.121c-19.549,1.673-18.607-17.875-18.607-17.875V216.76h-70.189v47.485H197.81v-92.729H48.128
			v107.247h403.813v-15.642H310.623z M185.527,202.798H94.659v42.448h90.867v17.875H89.459
			c-11.186,0.745-14.165-14.896-14.165-14.896v-43.944c-0.731-17.124,14.165-19.358,14.165-19.358h96.067V202.798z"/>
		<rect x="48.128" y="17.986" fill="none" width="403.813" height="101.021"/>
		<path fill="none" d="M311.198,169.281l-0.47,75.965h141.214V136.882H48.128v16.759h240.163
			C288.291,153.641,312.217,150.557,311.198,169.281z M321.377,211.174v-41.893c-0.118-15.641,16.621-16.758,16.621-16.758h83.223
			c0,0,14.622,6.226,11.186,19.548h-91.612v39.658h71.489l0.575-12.29h-61.454v-18.986h80.439v35.745
			c0,0-0.562,14.524-17.875,13.962h-83.223C319.012,228.487,321.377,211.174,321.377,211.174z"/>
		<rect x="48.128" y="119.007" fill="#FFFFFF" width="403.813" height="17.875"/>
		<rect x="48.128" y="278.763" fill="#FFFFFF" width="403.813" height="17.876"/>
		<path fill="#FFFFFF" d="M197.81,264.245h24.017V216.76h70.189v28.486c0,0-0.941,19.548,18.607,17.875h141.318v-17.875H310.728
			l0.47-75.965c1.02-18.725-22.906-15.641-22.906-15.641H48.128v17.875H197.81V264.245z M221.827,171.516h70.189v27.369h-70.189
			V171.516z"/>
		<path fill="#FFFFFF" d="M75.294,204.281v43.944c0,0,2.979,15.641,14.165,14.896h96.067v-17.875H94.659v-42.448h90.867v-17.875
			H89.459C89.459,184.923,74.563,187.157,75.294,204.281z"/>
		<path fill="#FFFFFF" d="M330.746,230.16h83.223c17.313,0.562,17.875-13.962,17.875-13.962v-35.745h-80.439v18.986h61.454
			l-0.575,12.29h-71.489v-39.658h91.612c3.437-13.322-11.186-19.548-11.186-19.548h-83.223c0,0-16.739,1.117-16.621,16.758v41.893
			C321.377,211.174,319.012,228.487,330.746,230.16z"/>
	</g>
</g>
</svg>
