<?xml version="1.0" encoding="utf-8"?>
<!-- Generator: Adobe Illustrator 15.0.0, SVG Export Plug-In . SVG Version: 6.00 Build 0)  -->
<!DOCTYPE svg PUBLIC "-//W3C//DTD SVG 1.1//EN" "http://www.w3.org/Graphics/SVG/1.1/DTD/svg11.dtd">
<svg version="1.1" id="Calque_1" xmlns="http://www.w3.org/2000/svg" xmlns:xlink="http://www.w3.org/1999/xlink" x="0px" y="0px"
	 width="500px" height="500px" viewBox="0 0 500 500" enable-background="new 0 0 500 500" xml:space="preserve">
<g>
	<path fill="#1A171B" d="M77.334,242.017c0-3.955-1.097-6.962-3.284-9.019c-2.19-2.057-5.34-3.085-9.455-3.085
		c-3.375,0-6.316,0.765-8.82,2.294c-2.506,1.531-4.589,3.535-6.251,6.013c-1.661,2.479-2.914,5.274-3.758,8.386
		c-0.844,3.113-1.266,6.251-1.266,9.414c0,5.276,1.344,9.416,4.035,12.423c2.691,3.008,6.515,4.509,11.471,4.509
		c2.534,0,4.67-0.486,6.409-1.462c1.741-0.977,3.179-2.163,4.312-3.562c1.133-1.396,2.004-2.835,2.612-4.312
		c0.606-1.477,1.04-2.691,1.305-3.64h9.89c-0.792,3.588-1.977,6.7-3.562,9.337c-1.582,2.637-3.468,4.824-5.656,6.566
		c-2.188,1.741-4.616,3.033-7.28,3.877c-2.664,0.842-5.445,1.266-8.347,1.266c-4.062,0-7.647-0.633-10.76-1.9
		c-3.112-1.266-5.722-3.005-7.832-5.222c-2.109-2.215-3.718-4.825-4.827-7.832c-1.106-3.007-1.661-6.249-1.661-9.732
		c0-5.906,0.883-11.036,2.651-15.387c1.766-4.352,4.086-7.938,6.961-10.76s6.119-4.918,9.732-6.29
		c3.61-1.371,7.265-2.058,10.957-2.058c3.323,0,6.382,0.449,9.178,1.345c2.796,0.897,5.183,2.189,7.16,3.876
		c1.979,1.688,3.495,3.798,4.55,6.329c1.054,2.532,1.53,5.408,1.425,8.624H77.334z"/>
	<path fill="#1A171B" d="M101.382,223.188h9.89l-11.788,56.489h-9.889L101.382,223.188z"/>
	<path fill="#1A171B" d="M117.521,223.188h46.52l-1.82,8.545h-17.958l-9.968,47.944h-9.89l9.968-47.944h-18.591L117.521,223.188z"/>
	<path fill="#1A171B" d="M176.226,257.289L162.3,223.188h10.365l9.732,25.634l19.779-25.634h11.709l-27.929,34.891l-4.43,21.598
		h-9.889L176.226,257.289z"/>
	<path fill="#1A171B" d="M241.811,223.188h24.369c3.743,0,6.711,0.501,8.898,1.503s3.851,2.189,4.984,3.56
		c1.138,1.373,1.858,2.822,2.178,4.351c0.318,1.53,0.476,2.796,0.476,3.798c0,1.689-0.25,3.283-0.75,4.787
		c-0.506,1.503-1.227,2.862-2.179,4.075c-0.951,1.213-2.095,2.215-3.443,3.006c-1.344,0.791-2.835,1.319-4.469,1.582v0.159
		c5.646,1.793,8.467,5.75,8.467,11.866c0,1.479-0.289,3.233-0.868,5.264c-0.584,2.031-1.653,3.981-3.208,5.854
		c-1.556,1.872-3.719,3.454-6.485,4.746c-2.771,1.293-6.318,1.938-10.64,1.938h-29.039L241.811,223.188z M241.655,271.607h14.16
		c0.844,0,2.031-0.026,3.562-0.078s3.086-0.329,4.665-0.831c1.585-0.501,2.997-1.356,4.233-2.571c1.241-1.214,1.967-2.979,2.178-5.3
		c0.05-0.687,0.04-1.53-0.039-2.533c-0.078-1.001-0.451-1.978-1.108-2.927c-0.662-0.949-1.688-1.754-3.086-2.413
		c-1.397-0.66-3.359-0.988-5.896-0.988h-14.951L241.655,271.607z M246.795,246.844h14.794c2.428,0,4.38-0.316,5.856-0.949
		s2.609-1.412,3.404-2.335c0.79-0.921,1.314-1.898,1.58-2.927c0.265-1.028,0.396-1.911,0.396-2.65c0-0.579-0.078-1.252-0.24-2.017
		c-0.156-0.764-0.524-1.503-1.104-2.215c-0.584-0.712-1.452-1.306-2.614-1.781c-1.158-0.475-2.742-0.711-4.744-0.711h-14.083
		L246.795,246.844z"/>
	<path fill="#1A171B" d="M314.836,223.188h10.444l9.811,56.489h-10.046l-2.296-14.951h-22.472l-8.702,14.951h-10.601
		L314.836,223.188z M318.241,233.157h-0.162l-13.607,24.051h17.247L318.241,233.157z"/>
	<path fill="#1A171B" d="M350.44,261.007c-0.211,4.379,0.868,7.464,3.243,9.257c2.374,1.793,5.616,2.688,9.731,2.688
		c1.32,0,2.728-0.157,4.233-0.474c1.501-0.316,2.86-0.831,4.072-1.543c1.216-0.711,2.227-1.633,3.046-2.769
		c0.819-1.134,1.227-2.544,1.227-4.233c0-1.582-0.383-2.899-1.148-3.956c-0.765-1.055-1.766-1.938-3.002-2.649
		c-1.241-0.714-2.678-1.319-4.312-1.82c-1.639-0.5-3.326-0.988-5.067-1.464c-1.266-0.316-2.767-0.75-4.508-1.305
		c-1.742-0.555-3.429-1.371-5.062-2.453c-1.639-1.082-3.021-2.493-4.155-4.233c-1.133-1.742-1.702-3.957-1.702-6.646
		c0-2.533,0.477-4.878,1.428-7.042c0.946-2.162,2.32-4.021,4.11-5.577c1.796-1.556,3.998-2.769,6.608-3.64
		c2.609-0.871,5.577-1.306,8.897-1.306c2.958,0,5.725,0.317,8.311,0.95c2.585,0.633,4.826,1.661,6.725,3.085
		c1.898,1.424,3.375,3.283,4.43,5.578s1.53,5.103,1.423,8.426h-9.492c-0.054-3.533-1.03-6.079-2.929-7.635
		c-1.898-1.555-4.772-2.334-8.623-2.334c-0.688,0-1.634,0.079-2.846,0.237c-1.216,0.158-2.428,0.528-3.64,1.108
		c-1.217,0.58-2.271,1.412-3.164,2.492c-0.897,1.082-1.349,2.57-1.349,4.47c0,1.372,0.318,2.505,0.951,3.402
		c0.633,0.897,1.491,1.662,2.57,2.294c1.08,0.633,2.335,1.16,3.758,1.582c1.423,0.423,2.929,0.818,4.508,1.187
		c2.007,0.527,4.022,1.107,6.054,1.74s3.88,1.517,5.538,2.65c1.663,1.136,3.007,2.624,4.037,4.472c1.03,1.847,1.54,4.245,1.54,7.198
		c0,2.215-0.422,4.405-1.266,6.568s-2.202,4.113-4.071,5.854c-1.874,1.739-4.302,3.151-7.279,4.231
		c-2.982,1.081-6.607,1.623-10.88,1.623c-3.321,0-6.328-0.385-9.017-1.147c-2.693-0.766-4.974-1.95-6.848-3.562
		c-1.869-1.606-3.297-3.679-4.268-6.21c-0.981-2.531-1.413-5.562-1.31-9.098H350.44z"/>
	<path fill="#1A171B" d="M403.285,223.188h9.89l-11.788,56.489h-9.889L403.285,223.188z"/>
	<path fill="#1A171B" d="M458.354,242.017c0-3.955-1.099-6.962-3.287-9.019c-2.188-2.057-5.337-3.085-9.452-3.085
		c-3.375,0-6.318,0.765-8.82,2.294c-2.507,1.531-4.591,3.535-6.254,6.013c-1.658,2.479-2.914,5.274-3.758,8.386
		c-0.844,3.113-1.266,6.251-1.266,9.414c0,5.276,1.344,9.416,4.037,12.423c2.688,3.008,6.515,4.509,11.469,4.509
		c2.536,0,4.67-0.486,6.411-1.462c1.742-0.977,3.179-2.163,4.312-3.562c1.133-1.396,2.001-2.835,2.609-4.312s1.04-2.691,1.305-3.64
		h9.89c-0.79,3.588-1.977,6.7-3.562,9.337c-1.579,2.637-3.468,4.824-5.656,6.566c-2.188,1.741-4.615,3.033-7.279,3.877
		c-2.663,0.842-5.445,1.266-8.344,1.266c-4.062,0-7.647-0.633-10.763-1.9c-3.11-1.266-5.72-3.005-7.829-5.222
		c-2.109-2.215-3.718-4.825-4.827-7.832c-1.108-3.007-1.662-6.249-1.662-9.732c0-5.906,0.883-11.036,2.653-15.387
		c1.766-4.352,4.086-7.938,6.961-10.76c2.874-2.822,6.117-4.918,9.732-6.29c3.61-1.371,7.265-2.058,10.953-2.058
		c3.326,0,6.382,0.449,9.179,1.345c2.796,0.897,5.185,2.189,7.161,3.876c1.978,1.688,3.493,3.798,4.548,6.329
		c1.055,2.532,1.53,5.408,1.428,8.624H458.354z"/>
</g>
</svg>
