<?xml version="1.0" encoding="utf-8"?>
<!-- Generator: Adobe Illustrator 21.0.2, SVG Export Plug-In . SVG Version: 6.00 Build 0)  -->
<svg version="1.1" id="Calque_1" xmlns="http://www.w3.org/2000/svg" xmlns:xlink="http://www.w3.org/1999/xlink" x="0px" y="0px"
	 viewBox="0 0 500 194" style="enable-background:new 0 0 500 194;" xml:space="preserve">
<style type="text/css">
	.st0{fill:#E12321;}
</style>
<path d="M97.3,116.7l36,0.4c0,13.7-4.8,22.6-10.9,34.2c-4.1,7.8-10.6,13-17.6,16.8s-16,5.7-26.8,5.7c-13.2,0-23.9-2.3-32.3-6.9
	c-8.3-4.6-15.5-12.7-21.6-24.3C18,131,15,116.2,15,98.1c0-24.1,5.3-42.6,16-55.6s25.7-19.4,45.2-19.4c15.3,0,27.4,3.5,36,11.1
	c14.4,12.8,20,27.3,20,42.9l-33.6,0.2c-1.1-4.4-2.4-7.7-3.6-9.7c-2.1-3.5-4.6-6.1-7.7-8c-3-1.9-6.4-2.8-10.2-2.8
	c-8.5,0-15,4.1-19.5,12.3c-3.4,6.1-5.1,15.7-5.1,28.7c0,16.2,2,27.2,6.1,33.2s9.8,9,17.2,9c7.2,0,12.6-2.4,16.2-7.3
	C95.6,127.9,95.6,125.9,97.3,116.7z"/>
<path d="M144.1,28.7h48.3v139.5h-48.3V28.7z"/>
<path d="M196.6,28.3h98.6v34.6h-25.3v105.5h-43.3V62.9h-30V28.3L196.6,28.3z"/>
<path d="M299.7,28.3h43.9l25.8,47.3l25.8-47.3h43.7l-49.7,81.4v58.7h-39.7v-58.7L299.7,28.3z"/>
<path class="st0" d="M440.2,124.8h46.2v43.4h-46.2V124.8z"/>
<path d="M479.6,41.3c-0.2-0.3-0.4-0.5-0.5-0.6c-0.2-0.1-0.5-0.3-0.9-0.4c0.5-0.1,0.9-0.3,1.2-0.4c0.4-0.3,0.8-0.6,1.1-1.1
	c0.3-0.4,0.4-1,0.4-1.6c0-0.7-0.2-1.3-0.5-1.8c-0.3-0.5-0.8-0.8-1.3-1s-1.3-0.3-2.4-0.3H471V45h3.4v-4.4h0.3c0.3,0,0.6,0.1,0.8,0.2
	s0.4,0.4,0.6,0.8l1.8,3.3h3.8l-1.6-3.1C480,41.9,479.8,41.6,479.6,41.3z M477.2,38.2c-0.1,0.2-0.3,0.3-0.5,0.3
	c-0.4,0.1-0.7,0.1-0.9,0.1h-1.4v-2.2h1.5c0.6,0,1,0.1,1.3,0.3c0.2,0.2,0.3,0.5,0.3,0.8C477.5,37.8,477.4,38,477.2,38.2z"/>
<path d="M476.3,28c-6.4,0-11.7,5.2-11.7,11.7c0,6.4,5.2,11.7,11.7,11.7c6.4,0,11.7-5.2,11.7-11.7C487.9,33.2,482.7,28,476.3,28z
	 M476.3,49.3c-5.3,0-9.6-4.3-9.6-9.6c0-5.3,4.3-9.6,9.6-9.6c5.3,0,9.6,4.3,9.6,9.6C485.9,44.9,481.6,49.3,476.3,49.3z"/>
</svg>
