<?xml version="1.0" encoding="utf-8"?>
<!-- Generator: Adobe Illustrator 19.1.0, SVG Export Plug-In . SVG Version: 6.00 Build 0)  -->
<svg version="1.1" id="Calque_1" xmlns="http://www.w3.org/2000/svg" xmlns:xlink="http://www.w3.org/1999/xlink" x="0px" y="0px"
	 viewBox="-345 170.9 500 500" style="enable-background:new -345 170.9 500 500;" xml:space="preserve">
<style type="text/css">
	.st0{fill:#E12321;}
</style>
<path d="M-247.7,440.6l36,0.4c0,13.7-4.8,22.6-10.9,34.2c-4.1,7.8-10.6,13-17.6,16.8c-7,3.8-16,5.7-26.8,5.7
	c-13.2,0-23.9-2.3-32.3-6.9c-8.3-4.6-15.5-12.7-21.6-24.3c-6.1-11.6-9.1-26.4-9.1-44.5c0-24.1,5.3-42.6,16-55.6
	c10.7-13,25.7-19.4,45.2-19.4c15.3,0,27.4,3.5,36,11.1c14.4,12.8,20,27.3,20,42.9l-33.6,0.2c-1.1-4.4-2.4-7.7-3.6-9.7
	c-2.1-3.5-4.6-6.1-7.7-8c-3-1.9-6.4-2.8-10.2-2.8c-8.5,0-15,4.1-19.5,12.3c-3.4,6.1-5.1,15.7-5.1,28.7c0,16.2,2,27.2,6.1,33.2
	c4.1,6,9.8,9,17.2,9c7.2,0,12.6-2.4,16.2-7.3C-249.4,451.8-249.4,449.8-247.7,440.6z"/>
<path d="M-200.9,352.6h48.3v139.5h-48.3V352.6z"/>
<path d="M-148.4,352.2h98.6v34.6h-25.3v105.5h-43.3V386.8h-30L-148.4,352.2L-148.4,352.2z"/>
<path d="M-45.3,352.2h43.9l25.8,47.3l25.8-47.3h43.7l-49.7,81.4v58.7H4.5v-58.7L-45.3,352.2z"/>
<path class="st0" d="M95.2,448.7h46.2v43.4H95.2V448.7z"/>
<path d="M134.6,365.2c-0.2-0.3-0.4-0.5-0.5-0.6c-0.2-0.1-0.5-0.3-0.9-0.4c0.5-0.1,0.9-0.3,1.2-0.4c0.4-0.3,0.8-0.6,1.1-1.1
	c0.3-0.4,0.4-1,0.4-1.6c0-0.7-0.2-1.3-0.5-1.8c-0.3-0.5-0.8-0.8-1.3-1c-0.5-0.2-1.3-0.3-2.4-0.3H126v10.9h3.4v-4.4h0.3
	c0.3,0,0.6,0.1,0.8,0.2c0.2,0.1,0.4,0.4,0.6,0.8l1.8,3.3h3.8l-1.6-3.1C135,365.8,134.8,365.5,134.6,365.2z M132.2,362.1
	c-0.1,0.2-0.3,0.3-0.5,0.3c-0.4,0.1-0.7,0.1-0.9,0.1h-1.4v-2.2h1.5c0.6,0,1,0.1,1.3,0.3c0.2,0.2,0.3,0.5,0.3,0.8
	C132.5,361.7,132.4,361.9,132.2,362.1z"/>
<path d="M131.3,351.9c-6.4,0-11.7,5.2-11.7,11.7c0,6.4,5.2,11.7,11.7,11.7c6.4,0,11.7-5.2,11.7-11.7
	C142.9,357.1,137.7,351.9,131.3,351.9z M131.3,373.2c-5.3,0-9.6-4.3-9.6-9.6c0-5.3,4.3-9.6,9.6-9.6s9.6,4.3,9.6,9.6
	C140.9,368.8,136.6,373.2,131.3,373.2z"/>
</svg>
