<?xml version="1.0" encoding="utf-8"?>
<!-- Generator: Adobe Illustrator 21.0.2, SVG Export Plug-In . SVG Version: 6.00 Build 0)  -->
<svg version="1.1" id="Calque_2" xmlns="http://www.w3.org/2000/svg" xmlns:xlink="http://www.w3.org/1999/xlink" x="0px" y="0px"
	 viewBox="0 0 500 320" style="enable-background:new 0 0 500 320;" xml:space="preserve">
<style type="text/css">
	.st0{fill:#E2001A;}
</style>
<path d="M119.8,56h16.6v63.5h-16.6C119.8,119.5,119.8,56,119.8,56z"/>
<path d="M139.9,56h47v15.7h-15.8v47.9h-15.5V71.7h-15.8L139.9,56L139.9,56z"/>
<path d="M192.3,56h18.4l10.8,21.4L232.3,56h18.3l-20.8,36.9v26.6h-16.6V92.9L192.3,56z"/>
<path d="M215.8,202.5h19.7V266h-19.7V202.5z"/>
<path class="st0" d="M243.2,245l18.7-1.2c0.4,3,1.2,5.3,2.5,6.9c2,2.6,4.9,3.9,8.7,3.9c2.8,0,5-0.7,6.5-2s2.3-2.8,2.3-4.6
	c0-1.6-0.7-3.1-2.2-4.4c-1.4-1.3-4.8-2.5-10.1-3.7c-8.6-1.9-14.8-4.5-18.4-7.7c-3.7-3.2-5.5-7.3-5.5-12.3c0-3.3,0.9-6.3,2.8-9.2
	c1.9-2.9,4.7-5.2,8.5-6.8c3.8-1.7,9-2.5,15.6-2.5c8.1,0,14.3,1.5,18.6,4.5c4.3,3,6.8,7.8,7.6,14.4l-18.5,1.1
	c-0.5-2.9-1.5-4.9-3.1-6.2c-1.6-1.3-3.7-2-6.5-2c-2.3,0-4,0.5-5.2,1.5s-1.7,2.1-1.7,3.5c0,1,0.5,1.9,1.4,2.7
	c0.9,0.8,3.1,1.6,6.6,2.3c8.6,1.8,14.7,3.7,18.4,5.6c3.7,1.9,6.4,4.2,8.1,7s2.5,5.9,2.5,9.4c0,4.1-1.1,7.8-3.4,11.3
	c-2.3,3.4-5.4,6.1-9.4,7.8c-4,1.8-9.1,2.7-15.3,2.7c-10.8,0-18.3-2.1-22.5-6.2C246.1,256.7,243.8,251.5,243.2,245z"/>
<path d="M313.7,202.5h46.4v13.6h-29v10.1H358v13h-27v12.5h29.9v14.4h-47.3L313.7,202.5L313.7,202.5z"/>
<path d="M370.4,234.3c0-11,2.8-19.5,8.4-25.7c5.6-6.1,13.3-9.2,23.3-9.2c10.2,0,18,3,23.6,9c5.5,6,8.3,14.4,8.3,25.3
	c0,7.9-1.2,14.3-3.6,19.4c-2.4,5-5.9,9-10.4,11.8s-10.2,4.2-17,4.2c-6.9,0-12.6-1.2-17.1-3.6s-8.2-6.2-11-11.5
	C371.8,248.8,370.4,242.2,370.4,234.3z M389.3,234.4c0,6.8,1.1,11.7,3.4,14.7s5.4,4.5,9.4,4.5c4.1,0,7.2-1.5,9.4-4.4
	c2.2-2.9,3.3-8.1,3.3-15.7c0-6.3-1.2-11-3.5-13.9s-5.5-4.4-9.5-4.4c-3.8,0-6.9,1.5-9.2,4.5S389.3,227.6,389.3,234.4z"/>
<path d="M93.8,95.9c-0.4,2.9-1.1,5.2-2,6.8c-1.7,2.9-4.1,4.4-7.2,4.4c-3,0-5.4-1.5-7.2-4.5c-1.8-3-2.6-7.9-2.6-14.7
	c0-6.9,0.9-11.8,2.6-14.7c1.8-3,4.1-4.5,7-4.5c3,0,5.4,1.5,7.2,4.4c1.1,1.9,1.9,4.5,2.3,7.7h18.4c-0.8-7.8-3.2-14.1-7.1-18.8
	c-5-6-12.1-9-21.3-9c-9,0-16,3.1-21.1,9.2c-5,6.1-7.6,14.7-7.6,25.7c0,7.9,1.3,14.4,3.8,19.7c2.5,5.2,5.9,9.1,10,11.5
	c4.1,2.4,9.3,3.6,15.5,3.6s11.3-1.4,15.4-4.2s7.3-6.7,9.5-11.8c1.3-3,2.2-6.7,2.7-10.8L93.8,95.9L93.8,95.9z"/>
<rect x="254.2" y="98.8" class="st0" width="20.7" height="20.7"/>
<rect x="214.8" y="180.9" class="st0" width="86" height="14.9"/>
<path d="M438.1,199.5c1,0,1.9,0.2,2.8,0.7s1.6,1.2,2.2,2.1c0.5,0.9,0.8,1.9,0.8,2.9s-0.2,1.9-0.8,2.9c-0.5,0.9-1.2,1.6-2.1,2.1
	s-1.9,0.8-2.9,0.8s-2-0.3-2.9-0.8s-1.6-1.2-2.1-2.1s-0.8-1.9-0.8-2.9s0.3-2,0.8-2.9s1.2-1.6,2.2-2.1
	C436.2,199.7,437.1,199.5,438.1,199.5z M438.1,200.4c-0.8,0-1.6,0.2-2.4,0.6s-1.4,1-1.8,1.8s-0.7,1.6-0.7,2.4s0.2,1.6,0.6,2.4
	s1,1.4,1.8,1.8s1.6,0.6,2.4,0.6s1.6-0.2,2.4-0.6s1.4-1,1.8-1.8s0.6-1.6,0.6-2.4s-0.2-1.6-0.6-2.4s-1-1.4-1.8-1.8
	C439.7,200.6,438.9,200.4,438.1,200.4z M435.6,208.4v-6.2h2.1c0.7,0,1.3,0.1,1.6,0.2c0.3,0.1,0.6,0.3,0.8,0.6
	c0.2,0.3,0.3,0.6,0.3,0.9c0,0.5-0.2,0.8-0.5,1.2c-0.3,0.3-0.7,0.5-1.3,0.6c0.2,0.1,0.4,0.2,0.5,0.3c0.2,0.2,0.6,0.7,0.9,1.2l0.8,1.2
	h-1.2l-0.5-1c-0.4-0.8-0.8-1.3-1-1.4s-0.5-0.2-0.8-0.2h-0.6v2.6L435.6,208.4L435.6,208.4z M436.6,204.9h1.2c0.6,0,1-0.1,1.2-0.3
	c0.2-0.2,0.3-0.4,0.3-0.7c0-0.2-0.1-0.4-0.2-0.5s-0.2-0.2-0.4-0.3c-0.2-0.1-0.5-0.1-1-0.1h-1.1V204.9z"/>
<path d="M469.7,28.6v262.7H30.3V28.6H469.7 M475,23.4H25v273.3h450V23.4L475,23.4z"/>
</svg>
