<?xml version="1.0" encoding="utf-8"?>
<!-- Generator: Adobe Illustrator 19.1.0, SVG Export Plug-In . SVG Version: 6.00 Build 0)  -->
<svg version="1.1" id="Calque_1" xmlns="http://www.w3.org/2000/svg" xmlns:xlink="http://www.w3.org/1999/xlink" x="0px" y="0px"
	 viewBox="-345 170.9 500 500" style="enable-background:new -345 170.9 500 500;" xml:space="preserve">
<style type="text/css">
	.st0{fill:#1A171B;}
</style>
<path class="st0" d="M-265.8,420.4c0-4.4-1.2-7.8-3.7-10.1c-2.5-2.3-6-3.5-10.6-3.5c-3.8,0-7.1,0.9-9.9,2.6c-2.8,1.7-5.1,4-7,6.7
	c-1.9,2.8-3.3,5.9-4.2,9.4c-0.9,3.5-1.4,7-1.4,10.6c0,5.9,1.5,10.6,4.5,13.9c3,3.4,7.3,5.1,12.9,5.1c2.8,0,5.2-0.5,7.2-1.6
	c2-1.1,3.6-2.4,4.8-4c1.3-1.6,2.2-3.2,2.9-4.8c0.7-1.7,1.2-3,1.5-4.1h11.1c-0.9,4-2.2,7.5-4,10.5c-1.8,3-3.9,5.4-6.3,7.4
	c-2.5,2-5.2,3.4-8.2,4.3c-3,0.9-6.1,1.4-9.4,1.4c-4.6,0-8.6-0.7-12.1-2.1c-3.5-1.4-6.4-3.4-8.8-5.9c-2.4-2.5-4.2-5.4-5.4-8.8
	s-1.9-7-1.9-10.9c0-6.6,1-12.4,3-17.3c2-4.9,4.6-8.9,7.8-12.1c3.2-3.2,6.9-5.5,10.9-7.1c4.1-1.5,8.1-2.3,12.3-2.3
	c3.7,0,7.2,0.5,10.3,1.5c3.1,1,5.8,2.5,8,4.3c2.2,1.9,3.9,4.3,5.1,7.1c1.2,2.8,1.7,6.1,1.6,9.7L-265.8,420.4L-265.8,420.4z"/>
<path class="st0" d="M-238.9,399.3h11.1L-239,453h31.9l-2,9.6h-43L-238.9,399.3z"/>
<path class="st0" d="M-188.2,399.3h46.1l-2,9.6h-35.2l-3.5,16.6h32.7l-1.9,9.1h-32.7l-3.8,18.5h35.5l-2,9.6h-46.4L-188.2,399.3z
	 M-151.1,380.5l-10.5,12.7h-7.5l6.8-12.7H-151.1z"/>
<path class="st0" d="M-132.1,399.3h15.3l6.9,48.3h0.2l27.5-48.3h15.7l-13,63.4h-10.6l11-50.8h-0.2l-28.7,50.8h-8.7l-8-50.8h-0.2
	l-9.7,50.8h-10.6L-132.1,399.3z"/>
<path class="st0" d="M-34,399.3h11.7l11,63.4h-11.3l-2.6-16.8h-25.2l-9.8,16.8H-72L-34,399.3z M-30.2,410.4h-0.2l-15.3,27h19.3
	L-30.2,410.4z"/>
<path class="st0" d="M-5.5,399.3h52.2l-2,9.6H24.5l-11.2,53.8H2.3l11.2-53.8H-7.4L-5.5,399.3z"/>
<path class="st0" d="M53.7,399.3h11.1l-13.2,63.4H40.5L53.7,399.3z"/>
<path class="st0" d="M115.5,420.4c0-4.4-1.2-7.8-3.7-10.1c-2.5-2.3-6-3.5-10.6-3.5c-3.8,0-7.1,0.9-9.9,2.6c-2.8,1.7-5.1,4-7,6.7
	s-3.3,5.9-4.2,9.4c-0.9,3.5-1.4,7-1.4,10.6c0,5.9,1.5,10.6,4.5,13.9s7.3,5.1,12.9,5.1c2.8,0,5.2-0.5,7.2-1.6c2-1.1,3.6-2.4,4.8-4
	c1.3-1.6,2.2-3.2,2.9-4.8c0.7-1.7,1.2-3,1.5-4.1h11.1c-0.9,4-2.2,7.5-4,10.5c-1.8,3-3.9,5.4-6.3,7.4c-2.5,2-5.2,3.4-8.2,4.3
	c-3,0.9-6.1,1.4-9.4,1.4c-4.6,0-8.6-0.7-12.1-2.1c-3.5-1.4-6.4-3.4-8.8-5.9c-2.4-2.5-4.2-5.4-5.4-8.8c-1.2-3.4-1.9-7-1.9-10.9
	c0-6.6,1-12.4,3-17.3c2-4.9,4.6-8.9,7.8-12.1c3.2-3.2,6.9-5.5,10.9-7.1c4.1-1.5,8.1-2.3,12.3-2.3c3.7,0,7.2,0.5,10.3,1.5
	c3.1,1,5.8,2.5,8,4.3c2.2,1.9,3.9,4.3,5.1,7.1c1.2,2.8,1.7,6.1,1.6,9.7L115.5,420.4L115.5,420.4z"/>
</svg>
