<?xml version="1.0" encoding="utf-8"?>
<!-- Generator: Adobe Illustrator 16.0.0, SVG Export Plug-In . SVG Version: 6.00 Build 0)  -->
<!DOCTYPE svg PUBLIC "-//W3C//DTD SVG 1.1//EN" "http://www.w3.org/Graphics/SVG/1.1/DTD/svg11.dtd">
<svg version="1.1" xmlns="http://www.w3.org/2000/svg" xmlns:xlink="http://www.w3.org/1999/xlink" x="0px" y="0px" width="500px"
	 height="500px" viewBox="0 0 500 500" enable-background="new 0 0 500 500" xml:space="preserve">
<g id="Calque_1">
</g>
<g id="Calque_2">
	<g>
		<path fill="#E2001A" d="M99.395,165.815c-33.809,0-62.695,11.521-74.395,27.795c12.29-14.101,40.521-23.968,73.397-23.968
			c44.166,0,79.97,17.802,79.97,39.762c0,21.889-35.575,39.642-79.545,39.756v4.432c0.191,0.002,0.381,0.007,0.572,0.007
			c44.167,0,79.97-19.651,79.97-43.892C179.365,185.466,143.562,165.815,99.395,165.815z"/>
		<polygon fill="#172983" points="96.458,208.155 54.339,193.081 54.339,159.608 96.458,174.682 		"/>
		<polygon fill="#172983" points="157.53,262.577 113.083,246.671 113.083,213.198 157.53,229.104 		"/>
		<g>
			<path d="M113.083,210.998v-45.991c0-5.53-4.339-10.054-9.643-10.054s-9.643,4.524-9.643,10.054v45.99
				C100.903,214.381,105.979,214.381,113.083,210.998z"/>
			<path d="M93.798,214.563v42.948c0,5.53,4.339,10.054,9.643,10.054s9.643-4.523,9.643-10.054v-42.947
				C105.979,217.946,100.903,217.943,93.798,214.563z"/>
		</g>
		<rect x="102.96" y="135.3" fill="#E2001A" width="1.183" height="158.497"/>
		<g>
			<path d="M138.811,351.727c-0.625-0.741-1.624-1.319-2.998-1.733l1.104-3.236c-0.965-0.165-2.06-0.246-3.286-0.246
				c-3.817,0-7.168,0.889-10.054,2.667c-1.61,0.992-2.843,2.197-3.696,3.618c-0.854,1.42-1.281,2.972-1.281,4.653
				c0,2.219,0.803,3.981,2.409,5.289c1.605,1.308,3.774,1.962,6.504,1.962c1.807,0,3.533-0.329,5.181-0.985
				c1.646-0.654,3.055-1.574,4.224-2.757c1.888-1.907,2.832-4.013,2.832-6.318C139.75,353.441,139.436,352.47,138.811,351.727z
				 M135.305,361.444c-1.868,1.773-4.184,2.66-6.945,2.66c-2.535,0-4.562-0.668-6.082-2.007c-1.323-1.175-1.986-2.806-1.986-4.895
				c0-1.311,0.258-2.586,0.772-3.825c0.516-1.238,1.227-2.299,2.134-3.179c1.847-1.776,4.699-2.667,8.558-2.667
				c1.12,0,2.428,0.113,3.923,0.338l-0.563,1.928l-0.257-0.038c-0.77-0.104-1.431-0.156-1.987-0.156
				c-2.06,0-3.775,0.428-5.149,1.282c-1.372,0.855-2.059,1.926-2.059,3.211c0,0.354,0.093,0.686,0.281,0.997
				c0.384-1.57,1.171-2.795,2.36-3.67c1.188-0.876,2.663-1.314,4.42-1.314c0.662,0,1.39,0.096,2.182,0.284
				c-0.686,1.986-1.501,3.473-2.445,4.461c-0.943,0.987-2.115,1.581-3.513,1.779c-0.588,0.086-1.193,0.13-1.814,0.13h-1.521
				c-0.678,0-1.16,0.306-1.447,0.919l-0.318,0.7c-0.024,0.034-0.069,0.119-0.134,0.258c0.245-0.121,0.444-0.203,0.6-0.246
				c0.181-0.043,0.372-0.063,0.577-0.063l1.054,0.012c2.117,0,4.015-0.676,5.695-2.026c1.68-1.351,2.997-3.265,3.953-5.741
				c0.753,0.199,1.359,0.691,1.821,1.476c0.462,0.786,0.692,1.718,0.692,2.797C138.106,357.472,137.172,359.669,135.305,361.444z"/>
			<path d="M153.235,354.148c0-0.362-0.171-0.544-0.515-0.544c-0.589,0-1.433,0.471-2.531,1.411c-1.1,0.94-2.119,2.063-3.06,3.367
				c0.826-2.141,1.238-3.522,1.238-4.145c0-0.414-0.184-0.62-0.552-0.62c-1.25,0-3.012,1.531-5.284,4.595
				c0.85-2.183,1.275-3.643,1.275-4.375c0-0.139-0.013-0.307-0.037-0.506l-0.27,0.183c-1.12,0.732-2.035,1.247-2.746,1.539
				l0.147,0.416c0.326-0.156,0.571-0.234,0.735-0.234c0.253,0,0.372,0.156,0.355,0.466c-0.024,0.458-0.396,1.611-1.116,3.457
				l-0.956,2.434c-0.572,1.46-0.956,2.409-1.152,2.849c0.278-0.121,0.547-0.229,0.81-0.324l0.649-0.245
				c0.017-0.009,0.078-0.029,0.184-0.064c0.712-1.908,1.549-3.647,2.514-5.218c0.556-0.897,1.156-1.694,1.802-2.389
				c0.646-0.694,1.107-1.042,1.386-1.042c0.221,0,0.331,0.126,0.331,0.375c0,0.293-0.22,1.126-0.662,2.499
				c-0.441,1.372-0.932,2.763-1.471,4.169l-0.736,1.903l-0.134,0.362c0.669-0.354,1.246-0.596,1.729-0.726
				c0.416-1.337,0.958-2.624,1.624-3.857c0.666-1.234,1.375-2.248,2.128-3.043c1.037-1.104,1.732-1.657,2.084-1.657
				c0.172,0,0.257,0.104,0.257,0.312c0,0.085-0.032,0.194-0.098,0.322l-0.355,0.804c-1.545,3.35-2.384,5.965-2.514,7.846
				c1.192-0.414,2.224-0.949,3.089-1.605l-0.195-0.336c-0.385,0.231-0.654,0.35-0.81,0.35c-0.212,0-0.318-0.118-0.318-0.35
				c0-0.544,0.748-2.514,2.243-5.904C152.925,355.224,153.235,354.399,153.235,354.148z"/>
			<path d="M163.069,354.29c0-0.431-0.2-0.646-0.601-0.646c-0.638,0-1.523,0.464-2.655,1.391c-1.132,0.928-2.368,2.199-3.708,3.813
				l-0.208,0.246l0.171-0.39c1.07-2.503,1.606-4.138,1.606-4.907c0-0.043-0.009-0.119-0.024-0.231l-0.16,0.078
				c-0.924,0.431-1.957,0.818-3.102,1.163l0.074,0.416c0.057-0.018,0.102-0.031,0.135-0.04c0.408-0.13,0.674-0.193,0.797-0.193
				c0.237,0,0.355,0.155,0.355,0.466c0,0.37-0.383,1.568-1.146,3.593c-0.765,2.023-1.522,3.847-2.274,5.47
				c0.703-0.318,1.247-0.526,1.63-0.622c0.94-2.296,2.105-4.264,3.495-5.903c0.67-0.794,1.358-1.493,2.065-2.098
				c0.707-0.603,1.188-0.905,1.44-0.905c0.181,0,0.271,0.115,0.271,0.35c0,0.155-0.135,0.509-0.405,1.062l-0.797,1.605
				c-1.414,2.899-2.207,5.063-2.378,6.485c1.34-0.292,2.501-0.811,3.481-1.553l-0.195-0.351l-0.062,0.053
				c-0.426,0.283-0.761,0.428-1.006,0.428c-0.221,0-0.331-0.127-0.331-0.376c0-0.327,0.642-1.805,1.926-4.429
				C162.534,356.063,163.069,354.74,163.069,354.29z"/>
			<path d="M165.913,358.356c1.014-2.4,1.521-4.006,1.521-4.816v-0.142l-0.367,0.18c-0.94,0.44-1.864,0.839-2.771,1.191
				l-0.258,0.091l0.123,0.413c0.123-0.05,0.2-0.081,0.232-0.09l0.516-0.193c0.171-0.061,0.31-0.091,0.416-0.091
				c0.229,0,0.336,0.134,0.319,0.4c-0.017,0.347-0.466,1.538-1.349,3.574c-0.695,1.589-1.146,2.725-1.355,3.41
				c-0.208,0.688-0.333,1.436-0.374,2.246c0.769-0.275,1.795-0.737,3.078-1.384l-0.159-0.375c-0.376,0.171-0.646,0.263-0.81,0.271
				c-0.286,0.018-0.425-0.109-0.417-0.376c0.017-0.26,0.266-0.972,0.748-2.137L165.913,358.356z"/>
			<path d="M167.886,351.559c0.213,0,0.403-0.09,0.571-0.271c0.167-0.182,0.251-0.385,0.251-0.607c0-0.397-0.188-0.596-0.564-0.596
				c-0.221,0-0.415,0.09-0.582,0.271c-0.168,0.182-0.251,0.385-0.251,0.607C167.311,351.36,167.501,351.559,167.886,351.559z"/>
			<path d="M177.94,353.696c-1.863,0-3.735,0.556-5.615,1.669c-1.667,0.976-3.053,2.221-4.156,3.734
				c-1.103,1.516-1.654,2.925-1.654,4.228c0,0.769,0.285,1.151,0.857,1.151c0.654,0,1.539-0.431,2.654-1.294
				c1.115-0.862,2.2-1.949,3.255-3.263c-0.932,2.132-1.418,3.634-1.459,4.507c1.488-0.39,2.661-0.925,3.52-1.605l-0.221-0.338
				c-0.523,0.329-0.887,0.5-1.092,0.518c-0.221,0.018-0.33-0.099-0.33-0.35c0-0.31,0.388-1.384,1.164-3.223l0.099-0.221
				c-0.581,0.208-1.067,0.328-1.46,0.362c0.802-1.088,1.202-2.049,1.202-2.887c0-0.603-0.177-1.019-0.527-1.242
				c-0.303,1.467-0.871,2.882-1.704,4.247c-0.605,0.983-1.292,1.848-2.06,2.594c-0.769,0.748-1.357,1.121-1.766,1.121
				c-0.482,0-0.724-0.345-0.724-1.036c0-1.476,0.662-2.965,1.986-4.467c1.798-2.045,3.943-3.068,6.437-3.068
				c0.523,0,1.063,0.052,1.619,0.156c0.244-0.483,0.367-0.811,0.367-0.984C178.333,353.798,178.202,353.696,177.94,353.696z"/>
			<path d="M188.508,354.032c-0.27,0.819-0.658,1.718-1.165,2.693h0.442l0.098-0.208c0.237-0.501,0.484-0.817,0.742-0.951
				c0.257-0.135,0.741-0.201,1.452-0.201h1.042c-0.563,3.107-2.664,5.58-6.302,7.418l0.123-0.35l0.661-1.8
				c0.802-2.277,1.202-4.021,1.202-5.23c0-1.104-0.273-1.657-0.821-1.657c-0.417,0-1.169,0.367-2.256,1.102l-0.184,0.116
				l0.208,0.401c0.507-0.361,0.858-0.543,1.055-0.543c0.344,0,0.515,0.419,0.515,1.255c0,0.776-0.241,2.024-0.724,3.741
				c-0.482,1.718-1.034,3.294-1.655,4.727c0.106-0.062,0.184-0.104,0.233-0.13l0.882-0.519l1.252-0.726
				c3.596-2.097,6.003-5.144,7.221-9.139H188.508z"/>
			<path d="M196.11,351.559c0.214,0,0.403-0.09,0.571-0.271c0.167-0.182,0.251-0.385,0.251-0.607c0-0.397-0.188-0.596-0.563-0.596
				c-0.221,0-0.416,0.09-0.583,0.271c-0.168,0.182-0.251,0.385-0.251,0.607C195.535,351.36,195.726,351.559,196.11,351.559z"/>
			<path d="M194.137,358.356c1.013-2.4,1.52-4.006,1.52-4.816v-0.142l-0.367,0.18c-0.94,0.44-1.864,0.839-2.771,1.191l-0.258,0.091
				l0.123,0.413c0.123-0.05,0.2-0.081,0.233-0.09l0.515-0.193c0.172-0.061,0.311-0.091,0.417-0.091c0.229,0,0.335,0.134,0.318,0.4
				c-0.017,0.347-0.466,1.538-1.349,3.574c-0.695,1.589-1.146,2.725-1.354,3.41c-0.209,0.688-0.334,1.436-0.374,2.246
				c0.768-0.275,1.794-0.737,3.077-1.384l-0.159-0.375c-0.376,0.171-0.646,0.263-0.809,0.271c-0.287,0.018-0.426-0.109-0.418-0.376
				c0.017-0.26,0.267-0.972,0.748-2.137L194.137,358.356z"/>
			<path d="M205.539,354.29c0-0.431-0.2-0.646-0.601-0.646c-0.638,0-1.522,0.464-2.654,1.391c-1.132,0.928-2.368,2.199-3.709,3.813
				l-0.208,0.246l0.172-0.39c1.07-2.503,1.606-4.138,1.606-4.907c0-0.043-0.009-0.119-0.025-0.231l-0.159,0.078
				c-0.924,0.431-1.958,0.818-3.102,1.163l0.073,0.416c0.057-0.018,0.103-0.031,0.135-0.04c0.409-0.13,0.674-0.193,0.797-0.193
				c0.237,0,0.356,0.155,0.356,0.466c0,0.37-0.383,1.568-1.146,3.593c-0.765,2.023-1.522,3.847-2.275,5.47
				c0.703-0.318,1.247-0.526,1.631-0.622c0.94-2.296,2.104-4.264,3.495-5.903c0.67-0.794,1.358-1.493,2.064-2.098
				c0.708-0.603,1.188-0.905,1.441-0.905c0.18,0,0.27,0.115,0.27,0.35c0,0.155-0.135,0.509-0.405,1.062l-0.796,1.605
				c-1.414,2.899-2.207,5.063-2.379,6.485c1.341-0.292,2.502-0.811,3.481-1.553l-0.195-0.351l-0.062,0.053
				c-0.425,0.283-0.76,0.428-1.005,0.428c-0.222,0-0.331-0.127-0.331-0.376c0-0.327,0.642-1.805,1.925-4.429
				C205.003,356.063,205.539,354.74,205.539,354.29z"/>
			<path d="M211.962,359.263l-0.318,0.647c-0.507,1.044-1.133,1.886-1.875,2.523c-0.744,0.639-1.468,0.959-2.171,0.959
				c-0.825,0-1.238-0.475-1.238-1.425c0-0.768,0.235-1.715,0.705-2.842c0.47-1.126,1.036-2.095,1.698-2.906
				c0.694-0.854,1.52-1.282,2.477-1.282c0.621,0,0.932,0.156,0.932,0.466c0,0.252-0.144,0.703-0.43,1.36l-0.098,0.22h0.429
				l1.729-3.405c-0.237-0.017-0.404-0.025-0.503-0.025c-1.505,0-3.045,0.686-4.623,2.059c-1.177,1.027-2.12,2.185-2.831,3.469
				c-0.711,1.287-1.067,2.487-1.067,3.6c0,1.295,0.544,1.942,1.631,1.942c1.275,0,2.686-0.786,4.23-2.356
				c1.046-1.07,1.568-1.977,1.568-2.72c0-0.171-0.045-0.339-0.135-0.504C212.016,359.155,211.979,359.228,211.962,359.263z"/>
			<path d="M217.787,351.559c0.213,0,0.402-0.09,0.57-0.271c0.167-0.182,0.251-0.385,0.251-0.607c0-0.397-0.188-0.596-0.563-0.596
				c-0.221,0-0.416,0.09-0.583,0.271c-0.168,0.182-0.251,0.385-0.251,0.607C217.21,351.36,217.402,351.559,217.787,351.559z"/>
			<path d="M215.813,358.356c1.013-2.4,1.52-4.006,1.52-4.816v-0.142l-0.367,0.18c-0.94,0.44-1.864,0.839-2.771,1.191l-0.258,0.091
				l0.123,0.413c0.123-0.05,0.2-0.081,0.233-0.09l0.515-0.193c0.172-0.061,0.311-0.091,0.417-0.091c0.229,0,0.335,0.134,0.318,0.4
				c-0.017,0.347-0.466,1.538-1.349,3.574c-0.695,1.589-1.146,2.725-1.354,3.41c-0.209,0.688-0.334,1.436-0.374,2.246
				c0.768-0.275,1.794-0.737,3.077-1.384l-0.159-0.375c-0.376,0.171-0.646,0.263-0.809,0.271c-0.287,0.018-0.426-0.109-0.418-0.376
				c0.017-0.26,0.267-0.972,0.748-2.137L215.813,358.356z"/>
			<path d="M222.041,353.398l0.368-0.934c0.229-0.569,0.388-0.979,0.478-1.229c-0.384,0.104-0.772,0.155-1.164,0.155
				c-0.041,0-0.122-0.005-0.245-0.014c-0.417,1.079-0.746,1.735-0.987,1.97c-0.241,0.231-0.713,0.35-1.416,0.35h-0.159l-0.172,0.388
				h1.605l-0.122,0.298c-0.114,0.302-0.527,1.319-1.238,3.055l-1.275,3.069c-0.687,1.673-1.029,2.691-1.029,3.055
				c0,0.51,0.307,0.764,0.92,0.764c0.408,0,0.927-0.139,1.557-0.414c0.629-0.276,1.188-0.612,1.68-1.011l-0.196-0.336
				c-0.752,0.535-1.345,0.804-1.778,0.804c-0.359,0-0.539-0.188-0.539-0.558c0-0.371,0.299-1.256,0.896-2.653
				c0.507-1.2,0.898-2.141,1.177-2.823c0.687-1.675,1.107-2.685,1.263-3.029l0.099-0.22h1.729l0.159-0.388h-1.729L222.041,353.398z"
				/>
			<path d="M247.199,362.279c-0.392,0-0.936-1.14-1.63-3.419c-1.243-4.107-1.864-7.629-1.864-10.564c0-0.715,0.054-1.246,0.16-1.591
				s0.331-0.721,0.674-1.128l-0.343-0.336c-0.752,0.761-1.934,2.196-3.543,4.311c-3.353,4.411-5.946,7.492-7.786,9.245
				c-1.839,1.752-3.837,3.042-5.995,3.87l-0.772,1.308h0.232l2.575-0.064c1.382,0,3.286,0.134,5.714,0.4
				c0.997,0.112,1.781,0.168,2.354,0.168c1.716,0,3.306-0.741,4.77-2.226c0.939-0.957,1.41-1.808,1.41-2.551
				c0-0.302-0.152-0.547-0.454-0.737c-0.18,1.328-0.647,2.339-1.403,3.028c-0.756,0.691-1.768,1.036-3.034,1.036
				c-0.491,0-1.043-0.038-1.656-0.116l-2.305-0.271c-0.817-0.104-1.998-0.156-3.543-0.156c-0.671,0-1.296,0.026-1.876,0.078
				l0.344-0.246c1.201-0.837,2.108-1.531,2.722-2.084c0.613-0.552,1.802-1.734,3.567-3.548l0.318-0.336l0.245-0.014l1.999-0.038
				h1.777c0.662,0,1.1,0.052,1.312,0.155c0.214,0.104,0.319,0.318,0.319,0.647c0,0.259-0.058,0.62-0.172,1.086h0.466
				c0.278-1.276,0.564-2.347,0.858-3.209l-0.502-0.025l-3.568-0.066c-0.556,0-1.059,0.018-1.508,0.052l0.282-0.336
				c0.678-0.812,1.438-1.773,2.28-2.887c1.349-1.787,2.35-3.037,3.004-3.755l-0.037,0.351c-0.099,0.914-0.146,1.727-0.146,2.433
				c0,1.684,0.349,3.862,1.048,6.538c0.698,2.676,1.566,5.148,2.605,7.419l0.245-0.324c0.58-0.742,1.222-1.51,1.925-2.305
				l0.146-0.168l-0.306-0.312C247.69,362.051,247.387,362.279,247.199,362.279z"/>
			<path d="M262.892,354.148c0-0.362-0.169-0.544-0.516-0.544c-0.586,0-1.431,0.471-2.532,1.411
				c-1.098,0.94-2.116,2.063-3.059,3.367c0.828-2.141,1.24-3.522,1.24-4.145c0-0.414-0.184-0.62-0.551-0.62
				c-1.25,0-3.014,1.531-5.285,4.595c0.849-2.183,1.274-3.643,1.274-4.375c0-0.139-0.011-0.307-0.038-0.506l-0.267,0.183
				c-1.122,0.732-2.037,1.247-2.747,1.539l0.146,0.416c0.329-0.156,0.571-0.234,0.738-0.234c0.252,0,0.37,0.156,0.353,0.466
				c-0.024,0.458-0.395,1.611-1.115,3.457l-0.956,2.434c-0.571,1.46-0.956,2.409-1.152,2.849c0.277-0.121,0.546-0.229,0.81-0.324
				l0.649-0.245c0.016-0.009,0.078-0.029,0.184-0.064c0.712-1.908,1.55-3.647,2.513-5.218c0.558-0.897,1.157-1.694,1.805-2.389
				c0.645-0.694,1.105-1.042,1.386-1.042c0.218,0,0.329,0.126,0.329,0.375c0,0.293-0.222,1.126-0.661,2.499
				c-0.44,1.372-0.933,2.763-1.473,4.169l-0.734,1.903l-0.135,0.362c0.668-0.354,1.247-0.596,1.729-0.726
				c0.415-1.337,0.959-2.624,1.624-3.857c0.665-1.234,1.375-2.248,2.127-3.043c1.039-1.104,1.731-1.657,2.085-1.657
				c0.17,0,0.257,0.104,0.257,0.312c0,0.085-0.031,0.194-0.098,0.322l-0.356,0.804c-1.545,3.35-2.383,5.965-2.511,7.846
				c1.191-0.414,2.22-0.949,3.089-1.605l-0.197-0.336c-0.385,0.231-0.654,0.35-0.811,0.35c-0.211,0-0.318-0.118-0.318-0.35
				c0-0.544,0.748-2.514,2.244-5.904C262.581,355.224,262.892,354.399,262.892,354.148z"/>
			<path d="M270.348,355.992c-0.262-0.323-0.58-0.484-0.956-0.484c-0.564,0-1.162,0.294-1.791,0.88
				c-0.629,0.587-0.943,1.148-0.943,1.684c0,0.13,0.021,0.28,0.061,0.453c0.598-1.38,1.223-2.071,1.875-2.071
				c0.189,0,0.351,0.092,0.485,0.277c0.135,0.187,0.202,0.414,0.202,0.681c0,1.2-0.514,2.52-1.544,3.961
				c-1.031,1.442-1.972,2.163-2.82,2.163c-0.359,0-0.656-0.137-0.89-0.409c-0.232-0.271-0.349-0.618-0.349-1.041
				c0-0.604,0.154-1.354,0.466-2.246c0.311-0.894,0.689-1.685,1.14-2.376c1.146-1.744,2.792-2.615,4.941-2.615
				c0.286,0,0.646,0.021,1.079,0.064c0.105-0.293,0.159-0.504,0.159-0.634c0-0.336-0.181-0.506-0.539-0.506
				c-0.582,0-1.286,0.164-2.116,0.492c-0.829,0.328-1.595,0.748-2.298,1.257c-1.274,0.932-2.304,2.042-3.084,3.332
				c-0.78,1.292-1.171,2.526-1.171,3.71c0,0.535,0.153,0.979,0.46,1.333s0.693,0.532,1.159,0.532c1.07,0,2.416-0.761,4.033-2.279
				c1.888-1.753,2.832-3.41,2.832-4.973C270.74,356.711,270.61,356.316,270.348,355.992z"/>
			<path d="M278.55,353.592c-0.794,0-2.143,1.105-4.046,3.313l-0.294,0.363c0.564-1.553,0.845-2.663,0.845-3.326
				c0-0.13-0.016-0.272-0.049-0.428c-0.907,0.717-1.933,1.368-3.077,1.955l0.159,0.399c0.426-0.231,0.7-0.348,0.821-0.348
				c0.222,0,0.332,0.134,0.332,0.4c0,0.518-0.511,2.235-1.532,5.152l-1.079,3.03l-0.135,0.388c0.481-0.173,0.988-0.318,1.521-0.439
				l0.135-0.44c0.539-1.77,0.99-3.086,1.354-3.948c0.363-0.864,0.798-1.662,1.306-2.396c1.079-1.536,2.092-2.305,3.039-2.305
				c0.237,0,0.511,0.034,0.823,0.104l0.441-1.308C278.911,353.647,278.721,353.592,278.55,353.592z"/>
		</g>
		<g>
			<path d="M139.833,305.284c-8.416,0-12.658-4.48-12.658-11.141c0-5.851,2.546-10.643,6.576-13.506
				c2.899-2.116,6.789-3.236,10.891-3.236s7.213,0.746,8.628,1.37l2.759-7.283c-1.345-0.746-5.235-1.804-10.396-1.804
				c-6.718,0-12.588,1.43-17.539,4.479c-7.212,4.233-12.021,11.578-12.021,20.975c0,11.079,8.485,17.8,21.074,17.8
				c5.729,0,10.041-0.809,12.587-1.805l-0.848-7.22C146.481,304.787,143.158,305.284,139.833,305.284z"/>
			<path d="M371.956,276.802c3.668-0.065,6.812,1.164,8.252,1.943l2.946-7.772c-1.898-1.039-5.042-2.203-10.412-2.203
				c-9.626,0-17.421,5.376-17.421,14.186c0,5.7,4.455,9.068,9.169,11.595c4.061,2.073,5.959,3.69,5.959,6.153
				c0,3.437-3.339,5.119-7.005,5.119c-4.062,0-7.795-1.232-10.414-2.786l-3.144,7.643c2.096,1.557,6.484,3.112,12.64,3.112
				c9.822,0,17.943-4.989,17.943-14.705c0-5.182-3.404-8.748-8.775-11.531c-3.733-2.072-6.416-3.63-6.416-6.152
				C365.278,279.005,367.569,276.802,371.956,276.802z"/>
			<path d="M410.2,268.77c-6.353,0-11.984,2.333-16.109,6.22c-5.175,4.92-8.121,12.762-8.121,20.664
				c0,10.169,6.417,18.202,17.878,18.202c6.614,0,12.181-2.333,16.306-6.283c5.043-4.926,7.857-12.633,7.857-20.601
				C428.01,276.542,421.855,268.77,410.2,268.77z M412.623,302.906c-2.029,1.943-4.649,3.176-7.401,3.176
				c-6.417,0-9.232-4.6-9.232-10.754c0-5.248,1.964-12.047,5.5-15.483c2.029-2.073,4.65-3.303,7.596-3.303
				c6.943,0,8.907,5.246,8.907,10.689C417.992,292.281,416.093,299.474,412.623,302.906z"/>
			<polygon points="168.016,270.848 159.675,270.848 151.756,313.373 178.311,313.373 179.791,305.511 161.576,305.511 			"/>
			<polygon points="196.839,278.711 217.324,278.711 218.75,270.848 189.976,270.848 182.057,313.373 211.147,313.373 
				212.625,305.511 191.824,305.511 193.778,295.089 212.731,295.089 214.103,287.822 195.15,287.822 			"/>
			<polygon points="214.209,258.58 206.184,258.58 201.539,267.036 206.818,267.036 			"/>
			<polygon points="259.659,270.848 242.311,301.641 242.185,301.641 238.714,270.848 225.024,270.848 215.499,313.373 
				224.898,313.373 231.648,279.544 231.775,279.544 236.127,313.373 243.698,313.373 262.749,279.544 262.876,279.544 
				254.674,313.373 263.949,313.373 273.476,270.848 			"/>
			<polygon points="288.258,278.711 308.743,278.711 310.168,270.848 281.395,270.848 273.476,313.373 302.566,313.373 
				304.044,305.511 283.244,305.511 285.197,295.089 304.149,295.089 305.522,287.822 286.569,287.822 			"/>
			<polygon points="344.213,270.848 337.83,301.105 337.705,301.105 325.565,270.848 315.424,270.848 305.975,313.373 
				315.175,313.373 321.559,283.534 321.683,283.534 333.95,313.373 343.777,313.373 353.225,270.848 			"/>
			<polygon points="465.988,270.848 459.604,301.105 459.48,301.105 447.339,270.848 437.2,270.848 427.75,313.373 436.95,313.373 
				443.333,283.534 443.458,283.534 455.725,313.373 465.551,313.373 475,270.848 			"/>
		</g>
		<g>
			<polygon fill="#172983" points="118.672,338.217 123.359,338.217 127.836,317.042 123.151,317.042 			"/>
			<polygon fill="#172983" points="152.924,332.107 152.865,332.107 147.111,317.042 142.307,317.042 137.829,338.217 
				142.188,338.217 145.213,323.357 145.273,323.357 151.085,338.217 155.742,338.217 160.22,317.042 155.95,317.042 			"/>
			<path fill="#172983" d="M182.311,317.042h-7.651l-4.479,21.175h8.868c8.156,0,12.248-5.545,12.248-12.93
				C191.297,320.097,188.213,317.042,182.311,317.042z M179.256,334.303h-3.589l2.848-13.348h3.5c3.321,0,4.626,2.077,4.626,5.132
				C186.641,330.565,184.001,334.303,179.256,334.303z"/>
			<path fill="#172983" d="M217.6,329.587c-0.683,3.202-1.395,5.22-5.19,5.22c-3.203,0-3.974-1.78-3.974-2.847
				c0-0.683,0.296-1.988,0.445-2.671l2.579-12.247h-4.656l-2.58,12.247c-0.208,1.039-0.445,2.076-0.445,3.146
				c0,4.625,4.212,6.286,8.335,6.286c6.583,0,8.927-3.292,10.202-9.371l2.579-12.308h-4.655L217.6,329.587z"/>
			<path fill="#172983" d="M245.592,320.155c2.165,0,3.885,0.83,3.797,3.202h4.418c0-4.893-3.618-6.819-7.947-6.819
				c-4.094,0-8.394,1.866-8.394,6.582c0,3.649,2.669,4.865,5.338,5.694c2.64,0.802,5.368,1.218,5.368,3.293
				c0,2.105-2.165,2.996-4.033,2.996c-2.67,0-4.716-0.92-4.568-3.916h-4.419c0,5.102,2.966,7.533,8.81,7.533
				c4.033,0,8.63-1.928,8.63-6.998c0-3.797-2.343-5.073-5.665-5.932c-1.453-0.356-5.041-0.891-5.041-2.996
				C241.885,320.838,243.812,320.155,245.592,320.155z"/>
			<polygon fill="#172983" points="266.202,320.955 272.845,320.955 269.227,338.217 273.913,338.217 277.53,320.955 
				283.877,320.955 284.708,317.042 267.032,317.042 			"/>
			<path fill="#172983" d="M307.54,317.042h-10.114l-4.447,21.175h4.655l1.749-8.274h4.391c1.839,0,3.055,0.504,3.055,2.551
				c0,1.424-0.237,2.877-0.237,4.3c0,0.475,0.088,0.92,0.208,1.424h4.537c-0.237-0.623-0.296-1.512-0.296-2.461
				c0-1.306,0.147-2.729,0.147-3.679c0-1.66-0.445-3.202-2.194-3.737v-0.059c2.847-0.416,4.864-2.817,4.864-5.694
				C313.857,318.494,311.365,316.981,307.54,317.042z M304.396,326.62h-4.3l1.245-5.961h4.418c1.839,0,3.441,0.326,3.441,2.61
				C309.201,325.642,306.857,326.591,304.396,326.62z"/>
			<polygon fill="#172983" points="324.768,338.217 329.453,338.217 333.931,317.042 329.245,317.042 			"/>
			<polygon fill="#172983" points="363.735,320.955 364.535,317.042 348.372,317.042 343.922,338.217 360.264,338.217 
				361.095,334.303 349.411,334.303 350.506,329.112 361.154,329.112 361.924,325.493 351.279,325.493 352.228,320.955 			"/>
		</g>
	</g>
</g>
</svg>
