<?xml version="1.0" encoding="utf-8"?>
<!-- Generator: Adobe Illustrator 15.0.0, SVG Export Plug-In . SVG Version: 6.00 Build 0)  -->
<!DOCTYPE svg PUBLIC "-//W3C//DTD SVG 1.1//EN" "http://www.w3.org/Graphics/SVG/1.1/DTD/svg11.dtd">
<svg version="1.1" id="Calque_1" xmlns="http://www.w3.org/2000/svg" xmlns:xlink="http://www.w3.org/1999/xlink" x="0px" y="0px"
	 width="500px" height="500px" viewBox="0 0 500 500" enable-background="new 0 0 500 500" xml:space="preserve">
<g>
	<path fill="#1A171B" d="M79.204,249.48c0-4.437-1.229-7.808-3.683-10.115c-2.455-2.307-5.989-3.46-10.603-3.46
		c-3.786,0-7.084,0.858-9.893,2.573c-2.811,1.717-5.146,3.964-7.01,6.744s-3.269,5.916-4.214,9.405
		c-0.947,3.491-1.42,7.01-1.42,10.56c0,5.916,1.508,10.558,4.525,13.93c3.017,3.372,7.305,5.058,12.866,5.058
		c2.839,0,5.234-0.546,7.187-1.641c1.952-1.094,3.563-2.426,4.835-3.994c1.271-1.566,2.248-3.179,2.928-4.836
		c0.679-1.654,1.167-3.016,1.464-4.081h11.091c-0.887,4.024-2.218,7.514-3.993,10.471c-1.774,2.959-3.89,5.412-6.344,7.364
		c-2.455,1.952-5.176,3.402-8.163,4.348c-2.988,0.945-6.109,1.42-9.361,1.42c-4.555,0-8.577-0.711-12.067-2.129
		c-3.49-1.421-6.418-3.372-8.784-5.857c-2.367-2.484-4.17-5.411-5.413-8.783s-1.863-7.01-1.863-10.914
		c0-6.624,0.99-12.378,2.972-17.258c1.981-4.88,4.583-8.902,7.809-12.067c3.223-3.164,6.861-5.515,10.913-7.054
		c4.051-1.538,8.148-2.307,12.29-2.307c3.727,0,7.157,0.503,10.292,1.508c3.135,1.007,5.812,2.456,8.03,4.348
		c2.218,1.894,3.918,4.259,5.102,7.099c1.183,2.839,1.715,6.063,1.597,9.671H79.204z"/>
	<path fill="#1A171B" d="M106.088,228.363h11.091l-11.18,53.771h31.942l-1.952,9.582H92.955L106.088,228.363z"/>
	<path fill="#1A171B" d="M156.751,228.363h46.139l-1.952,9.583h-35.226l-3.46,16.592h32.653l-1.864,9.051H160.3l-3.815,18.545
		h35.492l-1.952,9.582h-46.405L156.751,228.363z M193.929,209.641l-10.471,12.688h-7.453l6.833-12.688H193.929z"/>
	<path fill="#1A171B" d="M212.916,228.363h15.261l6.921,48.269h0.177l27.506-48.269h15.705l-13.043,63.353h-10.647l11.002-50.753
		h-0.177l-28.66,50.753h-8.696l-7.985-50.753h-0.178l-9.671,50.753h-10.648L212.916,228.363z"/>
	<path fill="#1A171B" d="M310.961,228.363h11.712l11.002,63.353h-11.268l-2.574-16.77h-25.198l-9.76,16.77h-11.891L310.961,228.363z
		 M314.777,239.543h-0.178l-15.262,26.974h19.343L314.777,239.543z"/>
	<path fill="#1A171B" d="M339.532,228.363h52.173l-2.041,9.583h-20.142l-11.18,53.77h-11.091l11.18-53.77H337.58L339.532,228.363z"
		/>
	<path fill="#1A171B" d="M398.714,228.363h11.091l-13.221,63.353h-11.091L398.714,228.363z"/>
	<path fill="#1A171B" d="M460.469,249.48c0-4.437-1.228-7.808-3.682-10.115c-2.455-2.307-5.989-3.46-10.603-3.46
		c-3.787,0-7.085,0.858-9.894,2.573c-2.811,1.717-5.146,3.964-7.01,6.744s-3.27,5.916-4.215,9.405
		c-0.947,3.491-1.42,7.01-1.42,10.56c0,5.916,1.508,10.558,4.525,13.93s7.305,5.058,12.866,5.058c2.838,0,5.235-0.546,7.187-1.641
		c1.952-1.094,3.563-2.426,4.836-3.994c1.271-1.566,2.247-3.179,2.929-4.836c0.678-1.654,1.166-3.016,1.464-4.081h11.091
		c-0.888,4.024-2.218,7.514-3.992,10.471c-1.775,2.959-3.891,5.412-6.345,7.364c-2.455,1.952-5.178,3.402-8.164,4.348
		c-2.987,0.945-6.107,1.42-9.36,1.42c-4.556,0-8.578-0.711-12.067-2.129c-3.49-1.421-6.419-3.372-8.784-5.857
		c-2.367-2.484-4.17-5.411-5.413-8.783c-1.241-3.372-1.863-7.01-1.863-10.914c0-6.624,0.99-12.378,2.974-17.258
		c1.98-4.88,4.583-8.902,7.808-12.067c3.224-3.164,6.861-5.515,10.914-7.054c4.052-1.538,8.147-2.307,12.289-2.307
		c3.727,0,7.156,0.503,10.292,1.508c3.135,1.007,5.812,2.456,8.03,4.348c2.219,1.894,3.919,4.259,5.103,7.099
		c1.183,2.839,1.715,6.063,1.596,9.671H460.469z"/>
</g>
</svg>
