<?xml version="1.0" encoding="utf-8"?>
<!-- Generator: Adobe Illustrator 21.0.2, SVG Export Plug-In . SVG Version: 6.00 Build 0)  -->
<svg version="1.1" id="Calque_2" xmlns="http://www.w3.org/2000/svg" xmlns:xlink="http://www.w3.org/1999/xlink" x="0px" y="0px"
	 viewBox="0 0 500 166" style="enable-background:new 0 0 500 166;" xml:space="preserve">
<style type="text/css">
	.st0{fill:#008633;}
	.st1{fill:#009036;}
	.st2{fill:#FFCC00;}
</style>
<rect x="336.1" y="41.8" class="st0" width="14.3" height="58.8"/>
<rect x="336.1" y="33.1" class="st0" width="14.3" height="6.7"/>
<rect x="459.3" y="30.5" class="st0" width="14.3" height="70.2"/>
<path class="st0" d="M256.6,41.8H243c-9.1,0-16.5,7.4-16.5,16.5v25.8c0,9.1,7.4,16.5,16.5,16.5h13.6c9.1,0,16.5-7.4,16.5-16.5V58.3
	C273.1,49.3,265.6,41.8,256.6,41.8z M260.2,79.7c0,4.5-3.7,8.2-8.2,8.2h-4.5c-4.5,0-8.2-3.7-8.2-8.2V62.9c0-4.5,3.7-8.2,8.2-8.2h4.5
	c4.5,0,8.2,3.7,8.2,8.2V79.7z"/>
<path class="st0" d="M315,30.6v14.5c-0.7-0.1-1.4-0.2-2.2-0.2h-14.5c-9.1,0-16.5,7.4-16.5,16.5V84c0,9.1,7.4,16.5,16.5,16.5h14.5
	c0.7,0,1.5-0.1,2.2-0.2v0.2h14.3V84V61.5V30.6H315L315,30.6z M306.8,87.7h-4.5c-4.5,0-8.2-3.5-8.2-7.8V64c0-4.3,3.7-7.8,8.2-7.8h4.5
	c4.5,0,8.2,3.5,8.2,7.8v15.9C315,84.2,311.3,87.7,306.8,87.7z"/>
<path class="st0" d="M206.2,80.3c-0.3,4.2-3.8,7.5-8.1,7.5h-4.5c-4.5,0-8.2-3.7-8.2-8.2V62.8c0-4.5,3.7-8.2,8.2-8.2h4.5
	c4.4,0,8.1,3.6,8.2,8h12.5v-4.4c0-9.1-7.4-16.5-16.5-16.5h-14.8c-9.1,0-16.5,7.4-16.5,16.5V84c0,9.1,7.4,16.5,16.5,16.5h14.8
	c9.1,0,16.5-7.4,16.5-16.5v-3.9L206.2,80.3L206.2,80.3z"/>
<path class="st0" d="M434.5,41.8h-15.1c-9,0-16.3,7.3-16.3,16.3V63h12.5c1.3-4.4,5.3-7.6,10.1-7.6h2.5c5.8,0,10.6,4.8,10.6,10.6v1.3
	c-0.1,0-0.2,0-0.2,0h-26.7c-4.5,0-8.2,3.7-8.2,8.2v17c0,4.5,3.7,8.2,8.2,8.2h26.7c0.1,0,0.2,0,0.2,0l0,0h12.1V58.2
	C450.8,49.2,443.4,41.8,434.5,41.8z M435.1,90h-13.3c-2,0-3.7-1.6-3.7-3.7v-6.5c0-2,1.6-3.7,3.7-3.7h13.3c2,0,3.7,1.6,3.7,3.7v6.5
	C438.7,88.3,437.1,90,435.1,90z"/>
<path class="st0" d="M383.1,56.2h4.5h7.7V45.1c-0.6-0.1-1.1-0.1-1.7-0.1h-18.3V30.8l-19.5,17.3v8.5h6.8V84c0,9.1,7.4,16.5,16.5,16.5
	h13.5V86c-1.4,1-3.1,1.6-5,1.6h-4.5c-4.5,0-8.2-3.5-8.2-7.8V64C374.9,59.7,378.6,56.2,383.1,56.2z"/>
<path class="st1" d="M115.6,91.2c-3.1,14.4-16,25.3-31.4,25.3c-17.7,0-32.1-14.4-32.1-32.1s14.4-32.1,32.1-32.1
	c15.4,0,28.3,10.9,31.4,25.5h28.9c-3.3-30.4-29-54-60.3-54c-33.5,0-60.6,27.2-60.6,60.6S50.8,145,84.2,145
	c31.2,0,56.8-23.5,60.2-53.8H115.6L115.6,91.2z"/>
<polygon class="st2" points="118.1,66.5 118.1,56.5 77.8,56.5 72,56.5 66.3,56.5 66.3,117.4 77.8,117.4 77.8,89.4 112,89.4 
	112,79.4 77.8,79.4 77.8,66.5 "/>
<path class="st2" d="M174.5,105.7H207v2.5h-24.7v7.8h22.8v2.5h-22.8v10.6h-7.8V105.7L174.5,105.7z"/>
<path class="st2" d="M218.1,106c3.9-0.3,9.6-0.5,14.9-0.5c8.3,0,13.7,0.6,17.4,1.9c3,1,4.7,2.7,4.7,4.5c0,3.1-5,5.2-11.4,6v0.1
	c4.7,0.6,7.4,2.3,8.9,4.7c2,3.3,3.4,5.5,4.7,6.5h-8c-1-0.7-2.3-2.7-4-5.6c-1.8-3.2-5-4.5-12.1-4.6h-7.3v10.2h-7.8L218.1,106
	L218.1,106z M225.8,116.7h8c8.3,0,13.6-1.8,13.6-4.5c0-3-5.6-4.4-13.9-4.4c-3.8,0-6.4,0.1-7.7,0.3L225.8,116.7L225.8,116.7z"/>
<path class="st2" d="M276.4,121.8l-6.3,7.4h-8l20.5-23.5h9.4l20.6,23.5h-8.3l-6.4-7.4H276.4z M296.2,119.4l-5.9-6.8
	c-1.4-1.5-2.2-2.9-3.1-4.3H287c-0.9,1.4-1.9,2.8-3,4.3l-5.9,6.8H296.2z"/>
<path class="st2" d="M321.4,129.2v-23.5h8.5l19.3,11.9c4.5,2.8,8,5.2,10.8,7.6h0.2c-0.7-3.1-0.9-6-0.9-9.7v-9.8h7.3v23.5h-7.9
	l-19.1-11.9c-4.2-2.6-8.2-5.3-11.3-7.9H328c0.5,3,0.6,5.8,0.6,9.7v10L321.4,129.2L321.4,129.2z"/>
<path class="st2" d="M422.4,128.4c-2.9,0.6-8.6,1.1-15.9,1.1c-17,0-29.8-4.2-29.8-11.9c0-7.4,12.8-12.4,31.5-12.4
	c7.5,0,12.3,0.6,14.3,1l-1.9,2.5c-2.9-0.6-7.1-1-12.2-1c-14.1,0-23.5,3.5-23.5,9.7c0,5.8,8.5,9.5,23.2,9.5c4.7,0,9.6-0.4,12.7-1
	L422.4,128.4z"/>
<path class="st2" d="M463.4,118.2H440v8.5h26.1v2.5h-33.9v-23.5h32.6v2.5H440v7.4h23.4V118.2z"/>
</svg>
