<?xml version="1.0" encoding="utf-8"?>
<!-- Generator: Adobe Illustrator 19.1.0, SVG Export Plug-In . SVG Version: 6.00 Build 0)  -->
<svg version="1.1" id="Calque_2" xmlns="http://www.w3.org/2000/svg" xmlns:xlink="http://www.w3.org/1999/xlink" x="0px" y="0px"
	 viewBox="0 0 500 500" style="enable-background:new 0 0 500 500;" xml:space="preserve">
<style type="text/css">
	.st0{fill:#008633;}
	.st1{fill:#009036;}
	.st2{fill:#FFCC00;}
</style>
<g>
	<rect x="336.1" y="208.8" class="st0" width="14.3" height="58.8"/>
	<rect x="336.1" y="200.1" class="st0" width="14.3" height="6.7"/>
	<rect x="459.3" y="197.5" class="st0" width="14.3" height="70.2"/>
	<path class="st0" d="M256.6,208.8H243c-9.1,0-16.5,7.4-16.5,16.5v25.8c0,9.1,7.4,16.5,16.5,16.5h13.6c9.1,0,16.5-7.4,16.5-16.5
		v-25.8C273.1,216.3,265.6,208.8,256.6,208.8z M260.2,246.7c0,4.5-3.7,8.2-8.2,8.2h-4.5c-4.5,0-8.2-3.7-8.2-8.2v-16.8
		c0-4.5,3.7-8.2,8.2-8.2h4.5c4.5,0,8.2,3.7,8.2,8.2V246.7z"/>
	<path class="st0" d="M315,197.6v14.5c-0.7-0.1-1.4-0.2-2.2-0.2h-14.5c-9.1,0-16.5,7.4-16.5,16.5V251c0,9.1,7.4,16.5,16.5,16.5h14.5
		c0.7,0,1.5-0.1,2.2-0.2v0.2h14.3V251v-22.5v-30.9L315,197.6L315,197.6z M306.8,254.7h-4.5c-4.5,0-8.2-3.5-8.2-7.8V231
		c0-4.3,3.7-7.8,8.2-7.8h4.5c4.5,0,8.2,3.5,8.2,7.8v15.9C315,251.2,311.3,254.7,306.8,254.7z"/>
	<path class="st0" d="M206.2,247.3c-0.3,4.2-3.8,7.5-8.1,7.5h-4.5c-4.5,0-8.2-3.7-8.2-8.2v-16.8c0-4.5,3.7-8.2,8.2-8.2h4.5
		c4.4,0,8.1,3.6,8.2,8h12.5v-4.4c0-9.1-7.4-16.5-16.5-16.5h-14.8c-9.1,0-16.5,7.4-16.5,16.5v25.8c0,9.1,7.4,16.5,16.5,16.5h14.8
		c9.1,0,16.5-7.4,16.5-16.5v-3.9L206.2,247.3L206.2,247.3z"/>
	<path class="st0" d="M434.5,208.8h-15.1c-9,0-16.3,7.3-16.3,16.3v4.9h12.5c1.3-4.4,5.3-7.6,10.1-7.6h2.5c5.8,0,10.6,4.8,10.6,10.6
		v1.3c-0.1,0-0.2,0-0.2,0h-26.7c-4.5,0-8.2,3.7-8.2,8.2v17c0,4.5,3.7,8.2,8.2,8.2h26.7c0.1,0,0.2,0,0.2,0v0h12.1v-42.5
		C450.8,216.2,443.4,208.8,434.5,208.8z M435.1,257h-13.3c-2,0-3.7-1.6-3.7-3.7v-6.5c0-2,1.6-3.7,3.7-3.7h13.3c2,0,3.7,1.6,3.7,3.7
		v6.5C438.7,255.3,437.1,257,435.1,257z"/>
	<path class="st0" d="M383.1,223.2h4.5h7.7v-11.1c-0.6-0.1-1.1-0.1-1.7-0.1h-18.3v-14.2l-19.5,17.3v8.5h6.8V251
		c0,9.1,7.4,16.5,16.5,16.5h13.5V253c-1.4,1-3.1,1.6-5,1.6h-4.5c-4.5,0-8.2-3.5-8.2-7.8V231C374.9,226.7,378.6,223.2,383.1,223.2z"
		/>
	<path class="st1" d="M115.6,258.2c-3.1,14.4-16,25.3-31.4,25.3c-17.7,0-32.1-14.4-32.1-32.1c0-17.7,14.4-32.1,32.1-32.1
		c15.4,0,28.3,10.9,31.4,25.5h28.9c-3.3-30.4-29-54-60.3-54c-33.5,0-60.6,27.2-60.6,60.6s27.2,60.6,60.6,60.6
		c31.2,0,56.8-23.5,60.2-53.8L115.6,258.2L115.6,258.2z"/>
	<polygon class="st2" points="118.1,233.5 118.1,223.5 77.8,223.5 72,223.5 66.3,223.5 66.3,284.4 77.8,284.4 77.8,256.4 112,256.4 
		112,246.4 77.8,246.4 77.8,233.5 	"/>
	<g>
		<path class="st2" d="M174.5,272.7H207v2.5h-24.7v7.8h22.8v2.5h-22.8v10.6h-7.8L174.5,272.7L174.5,272.7z"/>
		<path class="st2" d="M218.1,273c3.9-0.3,9.6-0.5,14.9-0.5c8.3,0,13.7,0.6,17.4,1.9c3,1,4.7,2.7,4.7,4.5c0,3.1-5,5.2-11.4,6v0.1
			c4.7,0.6,7.4,2.3,8.9,4.7c2,3.3,3.4,5.5,4.7,6.5h-8c-1-0.7-2.3-2.7-4-5.6c-1.8-3.2-5-4.5-12.1-4.6h-7.3v10.2h-7.8V273z
			 M225.8,283.7h8c8.3,0,13.6-1.8,13.6-4.5c0-3-5.6-4.4-13.9-4.4c-3.8,0-6.4,0.1-7.7,0.3L225.8,283.7L225.8,283.7z"/>
		<path class="st2" d="M276.4,288.8l-6.3,7.4h-8l20.5-23.5h9.4l20.6,23.5h-8.3l-6.4-7.4H276.4z M296.2,286.4l-5.9-6.8
			c-1.4-1.5-2.2-2.9-3.1-4.3h-0.2c-0.9,1.4-1.9,2.8-3,4.3l-5.9,6.8H296.2z"/>
		<path class="st2" d="M321.4,296.2v-23.5h8.5l19.3,11.9c4.5,2.8,8,5.2,10.8,7.6l0.2,0c-0.7-3.1-0.9-6-0.9-9.7v-9.8h7.3v23.5h-7.9
			l-19.1-11.9c-4.2-2.6-8.2-5.3-11.3-7.9l-0.3,0c0.5,3,0.6,5.8,0.6,9.7v10L321.4,296.2L321.4,296.2z"/>
		<path class="st2" d="M422.4,295.4c-2.9,0.6-8.6,1.1-15.9,1.1c-17,0-29.8-4.2-29.8-11.9c0-7.4,12.8-12.4,31.5-12.4
			c7.5,0,12.3,0.6,14.3,1l-1.9,2.5c-2.9-0.6-7.1-1-12.2-1c-14.1,0-23.5,3.5-23.5,9.7c0,5.8,8.5,9.5,23.2,9.5c4.7,0,9.6-0.4,12.7-1
			L422.4,295.4z"/>
		<path class="st2" d="M463.4,285.2H440v8.5h26.1v2.5h-33.9v-23.5h32.6v2.5H440v7.4h23.4V285.2z"/>
	</g>
</g>
</svg>
