<?xml version="1.0" encoding="utf-8"?>
<!-- Generator: Adobe Illustrator 21.0.2, SVG Export Plug-In . SVG Version: 6.00 Build 0)  -->
<svg version="1.1" id="Calque_1" xmlns="http://www.w3.org/2000/svg" xmlns:xlink="http://www.w3.org/1999/xlink" x="0px" y="0px"
	 viewBox="0 0 500 174" style="enable-background:new 0 0 500 174;" xml:space="preserve">
<style type="text/css">
	.st0{fill:#193692;}
	.st1{fill:#F8B20D;}
	.st2{fill:#F8B411;}
	.st3{fill:#E10702;}
</style>
<g>
	<rect x="26" y="59.2" class="st0" width="91" height="90.8"/>
	<path class="st0" d="M148,129.7c0,0-0.7-12.5,0.4-15.3c4.6-11.8,17.1-7.1,18.4-6.5l2.7-11.8c-3.9-1.3-9.1-2-16.1-2
		c-15.3,0-27.8,7.7-27.8,28.6c0,20,12.4,28.6,27.8,28.6c7.5,0,13-0.8,17.1-2.4l-1.9-12.1C150.3,143.1,148,129.7,148,129.7z"/>
	<path class="st0" d="M207.5,94.2c-15.3,0-27.8,7.7-27.8,28.6c0,20,12.4,28.6,27.8,28.6s27.8-8.7,27.8-28.6
		C235.3,107,227.5,94.2,207.5,94.2z M207.6,138.4c-3,0-5.4-3.9-5.4-15.6c0-12.4,2.4-15.6,5.4-15.6c3,0,5.4,2.9,5.4,15.6
		C213,134,210.6,138.4,207.6,138.4z"/>
	<polygon class="st0" points="312.8,94.9 287.4,94.9 281.5,127 275.8,94.9 250.5,94.9 243.9,150.2 265.4,150.2 267.9,111.6 
		274.6,150.2 288.8,150.2 295.5,111.6 298,150.2 319,150.2 	"/>
	<path class="st0" d="M367.1,94.8h-27.7L323.5,150h21.4l3.3-11.8h10.2l2.8,11.8H383L367.1,94.8z M349.8,125.8l3.8-18.9l3,18.9H349.8
		z"/>
	<path class="st0" d="M424.3,120.8v-0.3c14.1-1.3,13.7-6.1,13.9-12.2c-0.7-7.1,0.7-12.6-13.3-13.8l-35.1,0V150h0.9v0.5h17.3
		c5.4,0,5.8,0,8.7,0c19.8,0,23.3-6.2,23.5-14.6C439.3,127.5,439.1,122,424.3,120.8z M411.2,106.2h3.6c0,0,0.3,0,0.4,0
		c3.5,0,3.5,1.2,3.5,5.7c0,3.8,0.1,5.4-3.6,5.4c-0.4,0-0.5,0-1.3,0h-2.6V106.2z M411.3,127.6h3.8c0,0,0.3,0,0.4,0
		c3.7,0,3.6,1.3,3.6,5.9c0,3.9,0.1,5.6-3.7,5.6c-0.5,0-0.5,0-1.4,0h-2.7V127.6z"/>
	<rect x="451.7" y="94.6" class="st0" width="22.3" height="55.1"/>
	<path class="st1" d="M98.2,148.2c-0.2-0.5-0.4-1-0.6-1.4c-1.6-3.4-1.6-7-2.4-10.6c0.2-1.2-0.1-2.2-0.7-3.2
		c-0.1-0.4-0.2-0.9-0.3-1.3c0.4-1.4-0.3-2.4-1.1-3.3c-0.9-2.1-1.2-4.3-1.4-6.6c0.9-1.3-0.3-2.6-0.1-4c-0.7-1.7-0.5-3.7-1.9-5.2
		c-1.3-5.6-2.7-11.3-4-16.9l0,0C84,92.7,83.7,89.3,83,86c-0.9-1.5-2.6-1.5-3.9-2.1c-1.6-0.3-3.2-1.1-4.9-0.5c-0.6,0.3-1,0.8-1.4,1.2
		c-0.7,0.7-1.5,1.5-1.9,2.5c-0.3,0.8-0.4,1.7-1,2.4c-0.9,1.6-0.8,3.5-1.6,5.1c-0.1,0.3-0.2,0.6-0.3,0.8c-1.3,3.1-2,6.3-3.7,9.2
		c-0.3,0.5-0.6,1.1-0.8,1.6c-1.1,2-2,4.1-2.9,6.2c-1.9,4.5-4.8,8.4-6.8,12.9c0,0.3,0,0.6-0.1,0.9c-0.1,0.3-0.3,0.6-0.4,1
		c-0.1,0.1-0.2,0.2-0.4,0.3c-0.2,0.1-0.5,0.3-0.7,0.5c-0.2,0.2-0.4,0.4-0.6,0.6c-0.4,0.4-0.8,0.9-1.1,1.4c-3.8,6-9.2,10.7-13.1,16.6
		c-0.1,0.2-0.1,0.4-0.2,0.6c-0.6,0.5-0.8,1.7-1.9,1.6c-0.7-0.2-0.8,0.2-0.8,0.7c0,0,0,0,0.1,0c-0.1,0.2-0.2,0.4-0.2,0.7
		c0.1,0.1,0.1,0.3,0.2,0.5c-0.6,0.1-1.1,0.2-1.7,0.3c-0.5,2.2-3.1,2.9-3.6,5.2c-0.3,1-0.5,2-0.8,3c-0.3,1-0.3,2.3,1.5,1.6l0.2-0.1
		l0.2,0.1c1.1-0.5,2.6,0,3.5-1.2c0.4-0.2,0.9-0.5,1.3-0.7c1-0.6,2.5-0.2,3.2-1.5c2.3-0.8,4.2-2.2,6-3.9c0-0.2,0.1-0.4,0.1-0.6
		c1.1-0.7,2.1-1.4,3.2-2.2c0.7-0.3,1.4-0.5,2-0.8c1.6-1.1,2.5-2.9,4.2-3.9c0.3-0.3,0.6-0.7,0.7-1.1c0.1-0.4,0-0.8-0.2-1.1
		c0,0,0.1,0,0.1,0l0,0c0,0,0,0,0-0.1c1,0.2,1.6-0.6,2.3-1.1c5.8-5.7,9.8-12.5,13.1-19.9c0.5-1.5,1.1-2.9,1.2-4.5
		c0-0.2,0-0.5,0.1-0.7c0.7-1.5,1.5-3.1,2.2-4.6c0.8-0.9,1.5-1.8,0.8-3c0.2,0,0.4-0.1,0.5-0.2c1,0,0.2,0.7,0.4,1.1
		c0,0.7,0,1.5,0.1,2.2c0.1,0.6,0.3,1.2,0.6,1.7c0.6,0.9,0.6,2,0.9,3c0.4,1.1,0.3,2.2,0.3,3.3c0,1,0,2,0.3,3
		c1.6,7.9,4.2,15.5,8.3,22.5c0.9,1.5,1.6,3.1,3.2,4c0.9,0.4,2,0.1,2.9,0.3c2,0.4,4,0.3,6,0.1C98.2,149.9,98.3,149.1,98.2,148.2z
		 M36.5,149.4C36.5,149.4,36.5,149.4,36.5,149.4C36.5,149.4,36.5,149.4,36.5,149.4L36.5,149.4C36.5,149.4,36.5,149.4,36.5,149.4z"/>
	<path class="st2" d="M87.6,52.4L87.6,52.4c-1-2.1-0.3-4.9-2.7-6.4c-0.4-0.2-0.8-0.3-1.2-0.5c-0.6-0.5-1.3-0.8-2-1.1
		c-0.3-0.3-0.5-0.6-0.7-1c-0.2-0.2-0.4-0.5-0.6-0.7c-0.6-0.3-1.2-0.7-1.9-0.4c0,0,0,0,0,0c-0.1-0.3-0.2-0.5-0.5-0.5
		c-0.1-0.1-0.2-0.3-0.4-0.4c-1.5-0.2-3-0.6-4.5-0.7c-0.2,0-0.4,0.2-0.5,0.4c-0.5-0.1-0.9,0.2-1.3,0.5c-0.1,0-0.2,0.1-0.3,0.1
		c-1.2,0.1-1.7,0.9-2.3,1.7c-0.2,0.1-0.3,0.2-0.5,0.3c-1.5,0.8-1.9,2.8-3.4,3.5c-0.3,0.6-0.5,1.2-0.8,1.7c-0.2,1-1,1.8-0.8,2.9
		c-0.2,0.1-0.3,0.3-0.4,0.5l0,0c-1.7,1.9-1.7,4.2-1.4,6.6c0.2,0.6,0.3,1.2,0.5,1.7c0,0.5,0.1,1,0.1,1.4c0.2,0.3,0.3,0.7,0.5,1
		c-0.1,0.2-0.2,0.3-0.3,0.5c-0.2,1.8,0.3,3.3,1.6,4.6c1.4,1,2.9,1.7,4.4,2.3c1.3,0.3,2.6,0.4,3.8,0c0.3-0.1,0.5-0.3,0.7-0.6
		c0.6-0.4,1.2-0.5,1.8-0.6c0.9,0,1.8,0.1,2.6,0c0.7,0,1.5,0.1,2.2-0.1c0.6,0.1,1.3,0,1.9-0.2c1.2-0.5,2.2-1.3,2.5-2.6
		c0.2-1.3,0.8-2.5,1.7-3.5c0.6-0.9,1.3-1.7,0.9-2.9c-0.1-1.3,0.6-2.3,1.2-3.3C88.2,55.4,88.8,53.9,87.6,52.4z"/>
	<path class="st3" d="M150.3,14c-1.1-0.6-2-1.1-2.9-1.7c-0.6-0.7-1.3-0.6-1.9,0c-1.6,0.1-2.6,1.3-4,1.9c-3,2.4-6,4.7-8.5,7.5l0,0
		c-0.4,0.1-0.8,0.2-1.2,0.4c0.1,1.6-1.8,1.8-2.1,3.2c0,0,0,0,0,0c0,0,0,0,0,0c0,0,0,0.1,0,0.1c-0.3,0.3-0.6,0.6-0.9,0.9
		c-0.1,0-0.2,0-0.4,0c-0.7,0.1-1.1,0.5-1.3,1.1c-2.4,1.3-4.3,3.2-5.9,5.4c-0.2,0.3-0.4,0.6-0.6,0.9c4.2,1.5,7.4-1.3,11-2.5
		c0.6-0.2,1.3-0.5,1.9-0.7c0.3-0.4,0.6-0.7,0.8-1.1c0.6-0.3,1.2-0.6,1.7-0.9c0.8,0.2,0.6,1,0.8,1.5c-0.2,3-0.5,6.1-0.7,9.1
		c0.5,1.1,1,1.8,2.2,0.6c1.6-1.6,3.2-3.1,4.9-4.6l0,0c2.4-0.4,1.8-1.9,1.4-3.4l0,0c0,0,0,0,0,0c0.5-1.2,1-2.5,1.4-3.7h0
		c0.7-2,1.5-4.1,1.2-6.2C147,18.7,147.7,16.1,150.3,14z"/>
	<path class="st3" d="M133.5,32.7c-0.9,0.1-0.6,0.7-0.6,1.2c-1.3-0.7-2.3,0-3.2,0.7c-1.3,1-2.5,2.1-3.7,3.3
		c-0.3,0.3-0.5,0.7-0.7,1.1c-0.5,0.3-0.9,0.7-1.4,1c0,0.1,0,0.1,0,0.2c-0.1,0-0.3,0.1-0.4,0c-1.7,0.4-2.6,1.8-3.6,3
		c-3.1,2.6-6.2,5.1-9.2,7.7c-4.6,2.9-8.4,6.9-13.4,9.3c-3,0.9-5,3.1-7.2,5.1c-0.1,0-0.3,0-0.4,0c-1,1.2-2.6,1.8-3.9,2.5
		c-0.6,0.4-1.2,0.8-1.8,1.2c0,0,0,0,0,0c-1-0.4-1.2,1.1-2.1,0.8c-0.8-0.2-1.4,0.1-1.9,0.8c-0.9,1-2.1,1.6-3.4,1.9
		c-1.7,0.3-3.3,0.5-4.6,1.8c-0.4,0.3-1.1,0.1-1.3,0.8c-2.2,0.2-4.1,1.6-6.3,1.5c-1.1,0.6-2.5-0.5-3.5,0.6c-0.1,0.1-0.3,0.1-0.4,0
		c-3.2,0.4-6.4,0.5-9.6,0c-0.9,0.2-1.8-0.1-2.5-0.7c-0.4-0.5-0.8-1-1.5-1.2c-0.8-0.2-1.6-0.3-2.3-0.1c0,0-0.1,0-0.1,0.1
		c0,0,0-0.1-0.1-0.1c0.1,0,0.2-0.1,0.3-0.1c0.2-0.5,0.2-0.9-0.4-1.2c-1.2,0.4-1.8-1.1-2.9-0.8h0c0,0,0,0,0,0
		c-0.5-0.9-1.1-1.4-2.2-1.4c-1.9-1.4-3.8-1.2-5.2,0.5c-1.3,1.5-0.8,3,0.6,4.3c0.5,0.6,1,1.3,1.5,1.9c-0.1,0.5,0.1,0.8,0.5,1.2
		c0.4,0.3,0.9,0.5,1.4,0.3c0.2,0.6,0.6,0.8,1.2,0.7c2.3,0.4,4.1,2.4,6.5,2.5c0.5,2.2,2.3,2.1,3.9,2.2c0.2-0.1,0.5-0.2,0.7-0.3
		c0.2,0,0.5,0.1,0.7,0.1c0.6,0.5,1.3,0.7,2.1,0.6c0.8-0.1,1.8,0.1,2.5-0.3c0.3,0.1,0.7,0.2,1,0.3c1.5,0.3,3.1,0.2,4.7,0.2
		c0.9,0,1.7-0.1,2.6-0.3c1.3-0.5,2.6-0.4,3.9-0.5c0.3,0,0.6-0.1,0.9-0.2c0.3-0.1,0.6-0.2,0.8-0.4c0.1-0.1,0.2-0.2,0.4-0.3
		c0.2,0,0.5,0,0.7,0.1c0.8-1.1,2.4-0.3,3.3-1.2c0.7-0.2,1.4-0.3,2.1-0.5c0.3,0,0.6,0,0.9,0c1.9-0.2,3.6-1,5.4-1.5
		c1-0.5,2.3-0.6,2.7-1.9c2.6-1.4,5.5-2.3,7.9-4.1c1-0.4,2-0.8,2.6-1.7c1.3-0.7,2.6-1.3,3.9-2l0,0c0.2-0.5,0.7-0.7,1.2-0.7
		c1-0.5,2.4-0.6,2.7-1.8c1.9-0.7,3.2-2.2,4.7-3.5c1-1.1,2.3-1.7,3.3-2.8c0.7-0.7,1.5-1.3,2.1-2.1c0-0.1,0.1-0.3,0.2-0.4
		c1.5-1.7,3.1-3.4,4.6-5.2c0.2-0.1,0.4-0.2,0.6-0.2c1.8-0.1,2.4-1.8,3.5-2.8c0.4-0.8,1.1-1.3,1.6-1.9c0.7-0.7,1.4-1.4,2-2.2
		c0.8-1.1,1.4-2.3,2-3.5c1.2-2.4,2.9-4.5,4.3-6.8c0.6-1.1,1.5-2.1,0.6-3.5C133.6,33.8,133.6,33.2,133.5,32.7z M97.5,68.4
		C97.5,68.4,97.5,68.4,97.5,68.4C97.5,68.4,97.5,68.4,97.5,68.4C97.6,68.4,97.6,68.4,97.5,68.4z"/>
</g>
</svg>
