<?xml version="1.0" encoding="utf-8"?>
<!-- Generator: Adobe Illustrator 21.0.2, SVG Export Plug-In . SVG Version: 6.00 Build 0)  -->
<svg version="1.1" id="Calque_1" xmlns="http://www.w3.org/2000/svg" xmlns:xlink="http://www.w3.org/1999/xlink" x="0px" y="0px"
	 viewBox="0 0 500 148" style="enable-background:new 0 0 500 148;" xml:space="preserve">
<style type="text/css">
	.st0{fill:#E2001A;}
	.st1{fill:#3E3D40;}
	.st2{fill:url(#SVGID_1_);}
	.st3{fill:url(#SVGID_2_);}
</style>
<path class="st0" d="M32.4,120.5c0.1,0.8,0.3,1.3,0.7,1.7c0.6,0.7,1.6,1,3.1,1c0.9,0,1.6-0.1,2.1-0.3c1-0.3,1.6-1,1.6-1.9
	c0-0.5-0.3-1-0.8-1.3s-1.3-0.5-2.4-0.8l-1.9-0.4c-1.9-0.4-3.1-0.8-3.8-1.3c-1.2-0.8-1.8-1.9-1.8-3.5c0-1.5,0.6-2.7,1.7-3.7
	c1.2-1,2.8-1.5,5.1-1.5c1.9,0,3.5,0.5,4.8,1.4s2,2.2,2.1,4h-3.5c-0.1-1-0.5-1.7-1.4-2.1c-0.6-0.3-1.3-0.4-2.2-0.4
	c-1,0-1.7,0.2-2.3,0.5c-0.6,0.4-0.9,0.9-0.9,1.5s0.3,1,0.8,1.3c0.4,0.2,1.1,0.4,2.3,0.7l3.1,0.7c1.3,0.3,2.4,0.7,3,1.2
	c1,0.8,1.6,1.9,1.6,3.3c0,1.5-0.6,2.7-1.9,3.7c-1.2,1-3,1.5-5.2,1.5c-2.3,0-4.1-0.5-5.4-1.5c-1.3-1-2-2.3-2-4L32.4,120.5L32.4,120.5
	z"/>
<path class="st0" d="M63.2,124.1c-1.3,1.3-3.2,1.9-5.7,1.9s-4.4-0.6-5.7-1.9c-1.8-1.6-2.7-3.8-2.7-6.8s0.9-5.3,2.7-6.8
	c1.3-1.3,3.2-1.9,5.7-1.9s4.4,0.6,5.7,1.9c1.8,1.5,2.6,3.8,2.6,6.8C65.9,120.3,65,122.6,63.2,124.1z M61,121.6
	c0.9-1,1.3-2.4,1.3-4.3c0-1.8-0.4-3.3-1.3-4.3c-0.8-1-2-1.5-3.4-1.5S55,112,54.1,113s-1.3,2.4-1.3,4.3c0,1.8,0.4,3.3,1.3,4.3
	c0.9,1,2,1.5,3.5,1.5C59,123.1,60.1,122.6,61,121.6z"/>
<path class="st0" d="M72.5,109.2h3.7v13.4h8.7v2.9H72.5V109.2z"/>
<path class="st0" d="M91.1,109.2h3.7v10.1c0,1.1,0.1,2,0.4,2.5c0.4,0.9,1.4,1.4,2.9,1.4s2.4-0.5,2.9-1.4c0.3-0.5,0.4-1.3,0.4-2.5
	v-10.1h3.7v10.1c0,1.7-0.3,3.1-0.9,4.1c-1.1,1.8-3.1,2.7-6.1,2.7s-5.1-0.9-6.2-2.7c-0.6-1-0.9-2.3-0.9-4.1L91.1,109.2L91.1,109.2z"
	/>
<path class="st0" d="M125.2,109.2v2.9H120v13.5h-3.7v-13.5H111v-2.9H125.2z"/>
<path class="st0" d="M134.5,125.6h-3.6v-16.4h3.6V125.6z"/>
<path class="st0" d="M155.1,124.1c-1.3,1.3-3.2,1.9-5.7,1.9s-4.4-0.6-5.7-1.9c-1.8-1.6-2.7-3.8-2.7-6.8s0.9-5.3,2.7-6.8
	c1.3-1.3,3.2-1.9,5.7-1.9s4.4,0.6,5.7,1.9c1.8,1.5,2.6,3.8,2.6,6.8C157.8,120.3,156.9,122.6,155.1,124.1z M152.9,121.6
	c0.8-1,1.3-2.4,1.3-4.3c0-1.8-0.4-3.3-1.3-4.3c-0.9-1-2-1.5-3.4-1.5s-2.6,0.5-3.5,1.5s-1.3,2.4-1.3,4.3c0,1.8,0.4,3.3,1.3,4.3
	c0.9,1,2,1.5,3.5,1.5C150.9,123.1,152,122.6,152.9,121.6z"/>
<path class="st0" d="M164.3,109.2h3.8l6.9,11.4v-11.4h3.4v16.4h-3.7l-7.1-11.6v11.6h-3.4L164.3,109.2L164.3,109.2z"/>
<path class="st0" d="M188.4,120.5c0.1,0.8,0.3,1.3,0.7,1.7c0.6,0.7,1.6,1,3.1,1c0.9,0,1.6-0.1,2.1-0.3c1-0.3,1.6-1,1.6-1.9
	c0-0.5-0.3-1-0.8-1.3s-1.3-0.5-2.4-0.8l-1.9-0.4c-1.9-0.4-3.1-0.8-3.8-1.3c-1.2-0.8-1.8-1.9-1.8-3.5c0-1.5,0.6-2.7,1.7-3.7
	c1.2-1,2.8-1.5,5.1-1.5c1.9,0,3.5,0.5,4.8,1.4s2,2.2,2.1,4h-3.5c-0.1-1-0.5-1.7-1.4-2.1c-0.6-0.3-1.3-0.4-2.2-0.4
	c-1,0-1.7,0.2-2.3,0.5c-0.6,0.4-0.9,0.9-0.9,1.5s0.3,1,0.9,1.3c0.4,0.2,1.1,0.4,2.3,0.7l3.1,0.7c1.3,0.3,2.4,0.7,3,1.2
	c1,0.8,1.6,1.9,1.6,3.3c0,1.5-0.6,2.7-1.9,3.7c-1.2,1-3,1.5-5.2,1.5c-2.3,0-4.1-0.5-5.4-1.5c-1.3-1-2-2.3-2-4L188.4,120.5
	L188.4,120.5z"/>
<path class="st0" d="M216.3,109.2h12.5v2.9H220v3.8h7.7v2.8H220v6.9h-3.6L216.3,109.2L216.3,109.2z"/>
<path class="st0" d="M248.4,124.1c-1.3,1.3-3.2,1.9-5.7,1.9s-4.4-0.6-5.7-1.9c-1.8-1.6-2.7-3.8-2.7-6.8s0.9-5.3,2.7-6.8
	c1.3-1.3,3.2-1.9,5.7-1.9s4.4,0.6,5.7,1.9c1.8,1.5,2.6,3.8,2.6,6.8C251,120.3,250.2,122.6,248.4,124.1z M246.1,121.6
	c0.9-1,1.3-2.4,1.3-4.3c0-1.8-0.4-3.3-1.3-4.3s-2-1.5-3.4-1.5s-2.6,0.5-3.5,1.5s-1.3,2.4-1.3,4.3c0,1.8,0.4,3.3,1.3,4.3
	c0.9,1,2,1.5,3.5,1.5C244.1,123.1,245.3,122.6,246.1,121.6z"/>
<path class="st0" d="M268.8,109.6c0.6,0.3,1.2,0.6,1.6,1.1c0.4,0.4,0.7,0.9,0.9,1.4c0.2,0.5,0.3,1.1,0.3,1.7c0,0.8-0.2,1.5-0.6,2.3
	s-1.1,1.3-2.1,1.6c0.8,0.3,1.4,0.7,1.7,1.3c0.3,0.6,0.5,1.4,0.5,2.6v1.1c0,0.7,0,1.3,0.1,1.5c0.1,0.4,0.3,0.7,0.7,0.9v0.4h-4
	c-0.1-0.4-0.2-0.7-0.2-0.9c-0.1-0.5-0.1-0.9-0.1-1.4v-1.5c0-1-0.2-1.7-0.6-2.1c-0.4-0.3-1.1-0.5-2.1-0.5h-3.6v6.4h-3.6v-16.4h8.4
	C267.3,109.2,268.2,109.4,268.8,109.6z M261.3,112v4.4h3.9c0.8,0,1.4-0.1,1.8-0.3c0.7-0.3,1-0.9,1-1.8c0-1-0.3-1.7-1-2
	c-0.4-0.2-0.9-0.3-1.7-0.3L261.3,112L261.3,112z"/>
<path class="st0" d="M302.5,112.1h-9.2v3.5h8.5v2.8h-8.5v4.2h9.7v2.9h-13.2v-16.4h12.8L302.5,112.1L302.5,112.1z"/>
<path class="st0" d="M309.6,109.2H322v2.9h-8.8v3.8h7.7v2.8h-7.7v6.9h-3.6V109.2z"/>
<path class="st0" d="M328.2,109.2h12.5v2.9h-8.8v3.8h7.7v2.8h-7.7v6.9h-3.6v-16.4H328.2z"/>
<path class="st0" d="M350.2,125.6h-3.6v-16.4h3.6V125.6z"/>
<path class="st0" d="M359.1,110.9c1.4-1.3,3.2-2,5.4-2c2.9,0,5,0.9,6.4,2.7c0.7,1,1.1,2,1.2,3.1h-3.7c-0.2-0.8-0.5-1.4-0.9-1.8
	c-0.7-0.7-1.6-1.1-2.9-1.1s-2.3,0.5-3.1,1.5c-0.8,1-1.1,2.4-1.1,4.3c0,1.8,0.4,3.2,1.2,4.1c0.8,0.9,1.8,1.4,3,1.4
	c1.3,0,2.2-0.4,2.9-1.2c0.4-0.4,0.7-1.1,0.9-1.9h3.6c-0.3,1.8-1.1,3.2-2.4,4.4c-1.3,1.1-2.9,1.7-4.9,1.7c-2.5,0-4.4-0.8-5.9-2.3
	c-1.4-1.5-2.1-3.6-2.1-6.3C356.7,114.7,357.5,112.5,359.1,110.9z"/>
<path class="st0" d="M382.1,125.6h-3.6v-16.4h3.6V125.6z"/>
<path class="st0" d="M402.2,112.1H393v3.5h8.5v2.8H393v4.2h9.7v2.9h-13.2v-16.4h12.8L402.2,112.1L402.2,112.1z"/>
<path class="st0" d="M409.3,109.2h3.8l6.9,11.4v-11.4h3.4v16.4h-3.7l-7.1-11.6v11.6h-3.4L409.3,109.2L409.3,109.2z"/>
<path class="st0" d="M432.3,110.9c1.4-1.3,3.2-2,5.4-2c2.9,0,5,0.9,6.4,2.7c0.7,1,1.1,2,1.2,3.1h-3.7c-0.2-0.8-0.5-1.4-0.9-1.8
	c-0.7-0.7-1.6-1.1-2.9-1.1s-2.3,0.5-3.1,1.5c-0.8,1-1.1,2.4-1.1,4.3c0,1.8,0.4,3.2,1.2,4.1c0.8,0.9,1.8,1.4,3,1.4
	c1.3,0,2.2-0.4,2.9-1.2c0.4-0.4,0.7-1.1,0.9-1.9h3.6c-0.3,1.8-1.1,3.2-2.4,4.4c-1.3,1.1-2.9,1.7-4.9,1.7c-2.5,0-4.4-0.8-5.9-2.3
	c-1.4-1.5-2.1-3.6-2.1-6.3C429.9,114.7,430.7,112.5,432.3,110.9z"/>
<path class="st0" d="M462,109.2h4.1l-5.8,10.2v6.1h-3.6v-6.1l-6-10.2h4.3l3.6,7.1L462,109.2z"/>
<path class="st1" d="M87,70.7c0,6.2-0.3,6.2-4.6,6.8c-2,0.3-11.9,0.8-18.2,0.8c-7.6,0-15.4-0.3-19.1-0.7c-3.7-0.3-4.4-1.2-4.9-4.2
	c-0.3-2.9-0.9-12.4-0.9-17.1c0-12.7,1.7-15.2,2.1-15.6c1.2-0.9,6.3-2,23.5-2c14,0,18.3,1.1,19.2,1.5c1.7,0.7,2.3,0.9,2.4,6.1v5.2
	h13.8l-0.1-3.2c-0.2-10.7-0.6-13.5-4.1-17c-4.6-4.7-11.5-6.1-30.9-6.1c-5,0-12.8,0.2-16.6,0.5c-9.7,0.6-13.5,1.5-17,4.3
	c-5,4.1-6.7,11.5-6.7,29.5c0,15.6,1.5,22.6,5.6,26.7c4.8,4.6,11.2,5.7,36,5.7c19.4,0,25.6-1,29.8-5.1c3.7-3.6,4.2-6.7,4.6-18.6
	l0.1-3.3H87V70.7z"/>
<path class="st1" d="M185,31.1c-4.6-4.6-11.4-5.8-33-5.8c-5.1,0-15.5,0.3-19.3,0.5c-8.7,0.6-12.3,1.5-16,4.2
	c-5.3,4.1-7.1,11-7.1,28.3c0,10.2,0.4,15.8,1.4,19.9c1.3,6,6.1,10.7,12.2,12.1c4.7,1,14.6,1.5,31.4,1.5c19.3,0,26.5-1.4,30.8-5.9
	c4-4.3,5.4-11.4,5.4-27.2c0-4.7-0.3-10.9-0.6-13.9C189.5,37.7,188.1,34.1,185,31.1z M175.4,73.6c-0.5,2.3-1.3,3.2-3.6,3.6
	c-3.8,0.7-11.9,1.1-20.5,1.1c-3.7,0-13.6-0.3-16.9-0.4c-6.2-0.4-7.8-1-8.6-1.8c-1.7-1.8-1.7-13.5-1.7-18.4c0-13.5,1.4-16.2,2-16.8
	c2.3-2.1,16-2.1,21.2-2.1c14.9,0,19.6,0.2,24,0.9c3.4,0.5,3.9,1.8,4.1,3.3c0.5,2.4,0.8,9.2,0.8,16C176.3,64.2,175.9,70.5,175.4,73.6
	z"/>
<path class="st1" d="M257.9,62.3c-0.9,1.3-1.7,2.5-2.4,3.8c-1.7,2.7-3.6,5.8-4.9,5.8c-1.3,0-3.1-3.2-4.7-5.9c-0.6-1.1-1.3-2.3-2-3.3
	l-22.7-37.1h-20.9v66.1h14.3V41.6C220.5,51,239.7,81.7,241,84c1.6,2.9,5.2,5.7,9.6,5.7c3.9,0,7.9-2.3,10.1-5.8
	c1.6-2.5,20.1-32.7,25.9-42.1v44l14.3-15.5V25.5h-21L257.9,62.3z"/>
<path class="st1" d="M468.9,29.4c-4.5-3.4-4.9-3.4-25.7-3.9l0,0l0,0H403h-0.9v0.9v64.3v0.9h0.9h12.5h0.9v-0.9V69.1h26.7
	c6.1,0,9.4,0,10.7-0.1c7.6-0.2,11.4-0.8,15.6-4.4c4-3.3,5.6-8.4,5.6-17.5C475,38,473.2,32.6,468.9,29.4z M416.4,38.8h26.7
	c14.6,0.3,14.9,0.5,16.4,1.6c0.4,0.3,1,0.7,1,7c0,5.4-0.6,6.4-1.3,7c-1.5,1.2-2.2,1.4-16.1,1.4h-26.7V38.8L416.4,38.8z"/>
<linearGradient id="SVGID_1_" gradientUnits="userSpaceOnUse" x1="288.4" y1="-372.1503" x2="400.5" y2="-372.1503" gradientTransform="matrix(1 0 0 1 0 429)">
	<stop  offset="0" style="stop-color:#E2001A"/>
	<stop  offset="1" style="stop-color:#A8161F"/>
</linearGradient>
<path class="st2" d="M358.3,22c-3.8,0-6.1,1.3-10.3,4.7c-4.9,4-39,42.2-59.6,65h20.9c8.6-11.4,28-34.7,42-48.6
	c3.6-3.5,7.4-2.1,9.1,0.4c12.6,18.6,22.9,46.2,23.8,48.2h16.3C394.3,71.2,368.8,21.8,358.3,22z"/>
<linearGradient id="SVGID_2_" gradientUnits="userSpaceOnUse" x1="323.0287" y1="-351.0264" x2="372.494" y2="-351.0264" gradientTransform="matrix(1 0 0 1 0 429)">
	<stop  offset="0" style="stop-color:#E2001A"/>
	<stop  offset="1" style="stop-color:#A8161F"/>
</linearGradient>
<path class="st3" d="M372.5,70.8c-0.8-0.1-1.7-0.2-2.8-0.2c-13.2,0-46.8,6.8-46.6,7.4c0.1,0.7,28.2,8,34.3,7.3
	C362.6,84.9,373.5,71.7,372.5,70.8z"/>
</svg>
