<?xml version="1.0" encoding="utf-8"?>
<!-- Generator: Adobe Illustrator 21.0.2, SVG Export Plug-In . SVG Version: 6.00 Build 0)  -->
<svg version="1.1" id="Calque_1" xmlns="http://www.w3.org/2000/svg" xmlns:xlink="http://www.w3.org/1999/xlink" x="0px" y="0px"
	 viewBox="0 0 500 98" style="enable-background:new 0 0 500 98;" xml:space="preserve">
<style type="text/css">
	.st0{fill:#1A171B;}
</style>
<path class="st0" d="M56.3,43.3c0-3-0.8-5.3-2.5-6.9s-4.1-2.3-7.2-2.3c-2.6,0-4.8,0.6-6.7,1.7c-1.9,1.2-3.5,2.7-4.8,4.6
	s-2.2,4-2.9,6.4c-0.6,2.4-1,4.8-1,7.2c0,4,1,7.2,3.1,9.5c2,2.3,5,3.4,8.7,3.4c1.9,0,3.6-0.4,4.9-1.1s2.4-1.6,3.3-2.7s1.5-2.2,2-3.3
	c0.5-1.1,0.8-2,1-2.8h7.5c-0.6,2.7-1.5,5.1-2.7,7.1s-2.6,3.7-4.3,5c-1.7,1.3-3.5,2.3-5.5,3c-2,0.6-4.1,1-6.4,1
	c-3.1,0-5.8-0.5-8.2-1.4c-2.4-1-4.4-2.3-6-4s-2.8-3.7-3.7-6c-0.8-2.3-1.3-4.8-1.3-7.4c0-4.5,0.7-8.4,2-11.7c1.3-3.3,3.1-6,5.3-8.2
	c2.2-2.1,4.7-3.7,7.4-4.8c2.7-1,5.5-1.6,8.3-1.6c2.5,0,4.9,0.3,7,1s3.9,1.7,5.4,2.9c1.5,1.3,2.7,2.9,3.5,4.8s1.2,4.1,1.1,6.6
	L56.3,43.3L56.3,43.3z"/>
<path class="st0" d="M67.3,54.2c0-4.5,0.7-8.4,2-11.7c1.3-3.3,3.1-6,5.3-8.2c2.2-2.1,4.7-3.7,7.4-4.8c2.7-1,5.5-1.6,8.3-1.6
	s5.4,0.5,7.7,1.4s4.3,2.2,5.9,3.9c1.6,1.7,2.9,3.6,3.8,5.9c0.9,2.3,1.4,4.8,1.4,7.6c0,4.5-0.6,8.4-1.9,11.7c-1.3,3.3-3,6-5.1,8.2
	c-2.1,2.1-4.6,3.7-7.3,4.8c-2.7,1-5.5,1.6-8.4,1.6c-3.1,0-5.8-0.5-8.2-1.4c-2.4-1-4.4-2.3-6-4s-2.8-3.7-3.7-6
	C67.7,59.3,67.3,56.8,67.3,54.2z M74.8,53.9c0,4,1,7.2,3.1,9.5c2,2.3,5,3.4,8.7,3.4c2.5,0,4.7-0.6,6.5-1.7c1.9-1.2,3.4-2.7,4.7-4.6
	s2.2-4,2.8-6.4s0.9-4.8,0.9-7.2c0-4-1-7.2-2.9-9.5S93.8,34,90,34c-2.6,0-4.8,0.6-6.7,1.7c-1.9,1.2-3.5,2.7-4.8,4.6s-2.2,4-2.9,6.4
	C75.1,49.1,74.8,51.5,74.8,53.9z"/>
<path class="st0" d="M120.3,28.9h10.4l4.7,32.8h0.1l18.7-32.8h10.7l-8.9,43h-7.2l7.5-34.4h-0.1l-19.4,34.4h-5.9l-5.4-34.4h-0.1
	l-6.6,34.4h-7.2L120.3,28.9z"/>
<path class="st0" d="M173.8,28.9h17.3c2.2,0,4.1,0.2,5.7,0.7c1.5,0.5,2.8,1.1,3.8,1.8c1,0.7,1.8,1.6,2.3,2.5s0.9,1.9,1.2,2.9
	c0.2,1,0.4,1.9,0.4,2.8s0.1,1.7,0.1,2.4c0,0,0,0.4-0.1,1.1s-0.2,1.5-0.5,2.5s-0.8,2-1.4,3.2c-0.6,1.1-1.5,2.2-2.7,3.2
	s-2.6,1.8-4.4,2.4c-1.8,0.6-4,1-6.6,1H176l-3.4,16.5h-7.5L173.8,28.9z M177.1,49.3h11.4c1.7,0,3.1-0.2,4.2-0.8c1.1-0.5,2-1.2,2.6-2
	s1.1-1.7,1.3-2.7c0.3-1,0.4-2,0.4-2.9c0-0.6-0.1-1.2-0.3-1.9c-0.2-0.7-0.5-1.3-1-1.9s-1.2-1.1-2.2-1.5c-0.9-0.4-2.2-0.6-3.7-0.6H180
	L177.1,49.3z"/>
<path class="st0" d="M222.5,28.9h7.9l7.5,43h-7.6l-1.7-11.4h-17.1l-6.6,11.4h-8.1L222.5,28.9z M225.1,36.5H225l-10.4,18.3h13.1
	L225.1,36.5z"/>
<path class="st0" d="M278.9,71.9h-4.8v-4.5H274c-0.8,1-1.6,1.8-2.6,2.5c-0.9,0.7-1.9,1.3-3,1.7c-1,0.5-2,0.8-3.1,1
	c-1.1,0.2-2,0.3-2.9,0.3c-3.1,0-5.8-0.5-8.2-1.4c-2.4-1-4.4-2.3-6-4c-1.6-1.7-2.8-3.7-3.7-6c-0.8-2.3-1.3-4.8-1.3-7.4
	c0-4.5,0.7-8.4,2-11.7c1.3-3.3,3.1-6,5.3-8.2c2.2-2.1,4.7-3.7,7.4-4.8c2.7-1,5.5-1.6,8.3-1.6c2.5,0,4.9,0.3,7.1,0.9
	c2.2,0.6,4.1,1.5,5.7,2.7c1.6,1.2,2.9,2.7,3.8,4.6c0.9,1.8,1.4,4,1.4,6.6h-7.5c-0.2-2.9-1.2-5.1-3.1-6.5S269.2,34,266,34
	c-2.6,0-4.8,0.6-6.7,1.7c-1.9,1.2-3.5,2.7-4.8,4.6s-2.2,4-2.9,6.4c-0.6,2.4-1,4.8-1,7.2c0,4,1,7.2,3.1,9.5c2,2.3,5,3.4,8.7,3.4
	c1.8,0,3.5-0.3,4.9-0.9s2.7-1.4,3.8-2.4s2-2.3,2.7-3.7c0.7-1.4,1.3-3,1.7-4.8H264l1.2-5.7h18.5L278.9,71.9z"/>
<path class="st0" d="M296.3,28.9h8.2L317.7,61h0.1l6.6-32.1h7.5l-8.9,43h-8.2L301.6,40h-0.1L295,71.9h-7.5L296.3,28.9z"/>
<path class="st0" d="M339.8,28.9h7.5l-5.5,26.3c-0.1,0.6-0.2,1.1-0.3,1.7s-0.1,1.2-0.2,1.8c0,1.4,0.2,2.7,0.6,3.6
	c0.5,1,1.1,1.8,2,2.4c0.8,0.6,1.8,1,3,1.3c1.1,0.3,2.3,0.4,3.7,0.4s2.8-0.2,4-0.5c1.2-0.3,2.3-0.9,3.3-1.7c1-0.8,1.9-1.9,2.6-3.4
	c0.8-1.4,1.4-3.2,1.9-5.4l5.7-26.5h7.5l-5.7,27c-0.4,1.8-0.9,3.7-1.6,5.7c-0.7,2-1.8,3.9-3.2,5.5c-1.5,1.7-3.4,3.1-5.9,4.2
	c-2.4,1.1-5.6,1.7-9.5,1.7c-2.1,0-4.2-0.3-6.1-0.8s-3.6-1.4-5.1-2.4c-1.4-1.1-2.6-2.5-3.5-4.1c-0.9-1.7-1.3-3.6-1.3-5.9
	c0-1,0.1-2,0.2-2.9s0.3-1.9,0.5-2.9L339.8,28.9z"/>
<path class="st0" d="M409.8,43.3c0-3-0.8-5.3-2.5-6.9c-1.7-1.6-4.1-2.3-7.2-2.3c-2.6,0-4.8,0.6-6.7,1.7c-1.9,1.2-3.5,2.7-4.8,4.6
	c-1.3,1.9-2.2,4-2.9,6.4c-0.6,2.4-1,4.8-1,7.2c0,4,1,7.2,3.1,9.5c2,2.3,5,3.4,8.7,3.4c1.9,0,3.6-0.4,4.9-1.1
	c1.3-0.7,2.4-1.6,3.3-2.7c0.9-1.1,1.5-2.2,2-3.3c0.5-1.1,0.8-2,1-2.8h7.5c-0.6,2.7-1.5,5.1-2.7,7.1s-2.6,3.7-4.3,5
	c-1.7,1.3-3.5,2.3-5.5,3c-2,0.6-4.1,1-6.4,1c-3.1,0-5.8-0.5-8.2-1.4c-2.4-1-4.4-2.3-6-4s-2.8-3.7-3.7-6c-0.8-2.3-1.3-4.8-1.3-7.4
	c0-4.5,0.7-8.4,2-11.7c1.3-3.3,3.1-6,5.3-8.2c2.2-2.1,4.7-3.7,7.4-4.8c2.7-1,5.5-1.6,8.3-1.6c2.5,0,4.9,0.3,7,1s3.9,1.7,5.4,2.9
	c1.5,1.3,2.7,2.9,3.5,4.8s1.2,4.1,1.1,6.6L409.8,43.3L409.8,43.3z"/>
<path class="st0" d="M453.2,43.3c0-3-0.8-5.3-2.5-6.9c-1.7-1.6-4.1-2.3-7.2-2.3c-2.6,0-4.8,0.6-6.7,1.7c-1.9,1.2-3.5,2.7-4.8,4.6
	s-2.2,4-2.9,6.4c-0.6,2.4-1,4.8-1,7.2c0,4,1,7.2,3.1,9.5c2,2.3,5,3.4,8.7,3.4c1.9,0,3.6-0.4,4.9-1.1c1.3-0.7,2.4-1.6,3.3-2.7
	s1.5-2.2,2-3.3c0.5-1.1,0.8-2,1-2.8h7.5c-0.6,2.7-1.5,5.1-2.7,7.1c-1.2,2-2.6,3.7-4.3,5c-1.7,1.3-3.5,2.3-5.5,3c-2,0.6-4.1,1-6.4,1
	c-3.1,0-5.8-0.5-8.2-1.4c-2.4-1-4.4-2.3-6-4s-2.8-3.7-3.7-6c-0.8-2.3-1.3-4.8-1.3-7.4c0-4.5,0.7-8.4,2-11.7c1.3-3.3,3.1-6,5.3-8.2
	c2.2-2.1,4.7-3.7,7.4-4.8c2.7-1,5.5-1.6,8.3-1.6c2.5,0,4.9,0.3,7,1c2.1,0.7,3.9,1.7,5.4,2.9c1.5,1.3,2.7,2.9,3.5,4.8
	c0.8,1.9,1.2,4.1,1.1,6.6L453.2,43.3L453.2,43.3z"/>
<path class="st0" d="M471.5,28.9h7.5l-9,43h-7.5L471.5,28.9z"/>
</svg>
