<?xml version="1.0" encoding="utf-8"?>
<!-- Generator: Adobe Illustrator 19.1.0, SVG Export Plug-In . SVG Version: 6.00 Build 0)  -->
<svg version="1.1" id="Calque_1" xmlns="http://www.w3.org/2000/svg" xmlns:xlink="http://www.w3.org/1999/xlink" x="0px" y="0px"
	 viewBox="0 0 500 500" style="enable-background:new 0 0 500 500;" xml:space="preserve">
<style type="text/css">
	.st0{fill:#E5312B;}
	.st1{fill:#FFFFFF;}
	.st2{fill:#707173;}
	.st3{fill:#4D4D4D;}
</style>
<g>
	<g>
		<g>
			<path class="st0" d="M90.5,232.1c-8,3.8-19.4,6.7-31.1,7.4v68.6h83.8v-78.9C126.6,220.8,104.9,225.2,90.5,232.1z M122.5,270.2
				c-1,18-13.7,16.1-15.3,37.1l-0.2-0.1c-3.6-4.8,6.8-11.9-4.8-24.5c4.2,4.7-8.9,17.3,4.3,24.4c-21.3-5.8-22.7-20-22.5-25.2
				c0.6-14.1,12.5-15.5,5.6-29.2c0,0,5.9,2,8.8,9.1c0,0,6.9-6.6-0.3-27.4c12.9,9.6,16.3,16.8,17.2,29.7c0,0,4.2-5.1,3.8-8.2
				C119.2,255.9,123.1,259.7,122.5,270.2z"/>
		</g>
		<path class="st1" d="M106.5,306.3c0.2,0.1,0.4,0.2,0.6,0.3c-0.1-0.1-0.1-0.1-0.2-0.2l-0.1,0C106.8,306.4,106.6,306.3,106.5,306.3z
			"/>
	</g>
	<g>
		<rect x="156.6" y="223.7" class="st1" width="317.9" height="86.4"/>
		<path class="st2" d="M479.2,314.8H151.9V219h327.3L479.2,314.8L479.2,314.8z M161.3,305.4h308.5v-77H161.3V305.4z"/>
	</g>
	<polyline class="st3" points="475,287.4 156.1,287.4 156.1,310.8 475,310.8 	"/>
	<g>
		<path class="st1" d="M182.5,307.4l-9.2-17.2l-9.3,17.4h4l1.9-3.6h6.6l1.9,3.6h3.9h0.1H193v-3.2h-6.8v-3.8h6.6v-3.2h-6.6v-2.4h6.8
			v-3.2h-10.5L182.5,307.4L182.5,307.4z M173.3,297.5l1.6,3.2h-3.3L173.3,297.5z"/>
		<path class="st1" d="M205.9,305.7L202,301c2-0.7,3.3-2.4,3.3-4.5c0-1.7-1-3.3-2.6-4.1c-1.5-0.7-3.3-0.7-4.7-0.7h-3.3v15.9h3.7
			v-5.6l4.6,5.6h2.1h2.5h1.5l1.9-3.6h6.6l1.9,3.6h4l-9.3-17.4L205.9,305.7z M214.2,297.5l1.6,3.2h-3.3L214.2,297.5z M201.7,296.6
			c0,0.9-0.4,1.8-3.5,1.8v-3.6C201.3,294.9,201.7,295.8,201.7,296.6z"/>
		<polygon class="st1" points="221.8,294.9 225.7,294.9 225.7,307.5 229.4,307.5 229.4,294.9 233.3,294.9 233.3,291.7 221.8,291.7 
					"/>
		<rect x="234" y="291.7" class="st1" width="3.7" height="15.9"/>
		<path class="st1" d="M248.1,291.3c-5.2,0-9.5,3.7-9.5,8.2c0,4.6,4.2,8.2,9.5,8.2c5.3,0,9.5-3.6,9.5-8.2
			C257.6,295.1,253.3,291.3,248.1,291.3z M248.1,304.6c-3.2,0-5.8-2.2-5.8-5c0-2.8,2.5-5,5.8-5s5.8,2.1,5.8,5
			C253.9,302.3,251.3,304.6,248.1,304.6z"/>
		<polygon class="st1" points="270.9,301.2 258.5,290 258.5,307.5 262.1,307.5 262.1,297.9 274.6,309.1 274.6,291.7 270.9,291.7 		
			"/>
		<path class="st1" d="M298.6,301.5l-2.5-2.2l-1.9,1.9l-2.2-2.3c1.2-0.8,2.6-2,2.6-3.7c0-2.2-1.9-3.8-4.6-3.8
			c-2.7,0-4.6,1.6-4.6,3.9c0,1,0.4,2,1.3,3l-0.2,0.1c-1.7,1-3.3,2.2-3.3,4.5c0,2.8,2.6,5,5.9,5c1.7,0,3.5-0.7,4.9-1.9l1.5,1.6h4.8
			l-3.7-4L298.6,301.5z M289.7,296.4L289.7,296.4l-0.2-0.2c-0.4-0.4-0.7-0.8-0.7-1.2c0-0.5,0.5-0.7,1-0.7c0.3,0,1.1,0.1,1.1,0.7
			C291,295.5,290.5,295.9,289.7,296.4z M286.7,302.8c0-0.8,1.4-1.6,2.3-2.1l2.6,2.8c-0.8,0.7-1.7,1.2-2.6,1.2
			C287.9,304.6,286.7,303.7,286.7,302.8z"/>
		<path class="st1" d="M310.5,291.7h-4.2v15.9h4.2c6.3,0,10.2-3.1,10.2-8C320.6,294.7,316.7,291.7,310.5,291.7z M317,299.6
			c0,3.9-3.8,4.7-7,4.7v-9.4C314.6,294.9,317,296.5,317,299.6z"/>
		<polygon class="st1" points="321.8,307.5 332.3,307.5 332.3,304.3 325.4,304.3 325.4,300.5 332.1,300.5 332.1,297.3 325.4,297.3 
			325.4,294.9 332.3,294.9 332.3,291.7 321.8,291.7 		"/>
		<path class="st1" d="M340.4,297.5l-1.2-0.4c-1.2-0.4-1.7-0.8-1.7-1.3c0-0.7,1-1.2,2-1.2c0.9,0,1.5,0.3,2,1l0.4,0.6l3.1-1.6
			l-0.5-0.7c-1.1-1.6-2.8-2.5-4.9-2.5c-2.8,0-5.7,1.6-5.7,4.5c0,2.5,2.1,3.6,4.1,4.4l1.2,0.4c1.7,0.6,2.3,1.1,2.3,2c0,1.1-1,2-2.3,2
			c-0.8,0-1.5-0.3-1.9-0.7c-0.2-0.2-0.5-0.6-0.5-1.2l0-1l-3.8,0.7l0.1,0.8c0.4,2.7,2.9,4.7,5.9,4.7c3.5,0,6.1-2.3,6.1-5.3
			C345,299.5,342.5,298.3,340.4,297.5z"/>
		<polygon class="st1" points="346.4,307.5 356.9,307.5 356.9,304.3 350,304.3 350,300.5 356.7,300.5 356.7,297.3 350,297.3 
			350,294.9 356.9,294.9 356.9,291.7 346.4,291.7 		"/>
		<polygon class="st1" points="370.7,301.2 358.3,290 358.3,307.5 361.9,307.5 361.9,297.9 374.4,309.1 374.4,291.7 370.7,291.7 		
			"/>
		<polygon class="st1" points="376.4,307.5 380,307.5 380,300.5 385.8,300.5 385.8,297.3 380,297.3 380,294.9 386,294.9 386,291.7 
			376.4,291.7 		"/>
		<path class="st1" d="M397.2,300.9c0,2.5-1,3.7-3.2,3.7c-2.2,0-3.2-1.1-3.2-3.7v-9.2h-3.7v9.8c0,3.7,2.8,6.4,6.9,6.4
			c4,0,6.9-2.6,6.9-6.4v-9.8h-3.7L397.2,300.9L397.2,300.9z"/>
		<path class="st1" d="M421,305.4l-3.6-15.9l-6,11.8l-6-11.8l-4.1,18h3.8l1.6-7.9l4.7,9.2l4.7-9.2l1.6,7.9h2.2h1.6h2.5l1.9-3.6h6.6
			l1.9,3.6h4l-9.2-17.4L421,305.4z M429.2,297.5l1.6,3.2h-3.3L429.2,297.5z"/>
		<path class="st1" d="M446.9,302h4.1c-0.6,1.4-2.5,2.6-4.4,2.6c-3,0-5.6-2.4-5.6-5c0-2.8,2.6-5,5.8-5c1.7,0,3.5,0.8,4.6,2l0.5,0.6
			l2.7-2.2l-0.6-0.6c-1.7-1.9-4.5-3-7.3-3c-5.2,0-9.4,3.7-9.4,8.3c0,4.5,4.2,8.2,9.2,8.2c5,0,8.7-3.3,8.7-7.7v-1.4h-8.2L446.9,302
			L446.9,302z"/>
		<polygon class="st1" points="466.7,294.9 466.7,291.7 456.2,291.7 456.2,307.5 466.7,307.5 466.7,304.3 459.8,304.3 459.8,300.5 
			466.5,300.5 466.5,297.3 459.8,297.3 459.8,294.9 		"/>
	</g>
	<g>
		<path d="M219.8,268.4c-6.6,0-11.1-4.6-11.1-11.3c0-6.6,4.6-11.4,10.9-11.4c3.4,0,6.4,1,10.1,3.4l3.3,2.1v-10.7l-1.2-0.6
			c-4.7-2.1-8.4-3.1-12.1-3.1c-11.6,0-20,8.8-20,20.8c0,8.2,6.1,19.8,19.7,19.8c6,0,9.9-1.7,12.8-3.4l1.1-0.6v-10.9l-3.3,2.4
			C226.6,267.1,223,268.4,219.8,268.4z"/>
		<path d="M259.6,236.7c-11.2,0-19.6,8.7-19.6,20.3c0,11.6,8.4,20.3,19.5,20.3c12.8,0,19.7-10.5,19.7-20.3
			C279.3,245.2,271,236.7,259.6,236.7z M259.6,268.4c-6.1,0-10.5-4.8-10.5-11.4c0-6.6,4.4-11.4,10.5-11.4c6.1,0,10.6,4.8,10.6,11.4
			C270.2,263.6,265.8,268.4,259.6,268.4z"/>
		<polygon points="304.6,250.3 294.9,237.2 287.3,237.2 287.3,276.8 296.2,276.8 296.2,253.5 303.2,263 306.1,263 313,253.5 
			313,276.8 321.9,276.8 321.9,237.2 314.4,237.2 		"/>
		<polygon points="328.6,246 339.9,246 339.9,276.8 348.8,276.8 348.8,246 360.1,246 360.1,237.2 328.6,237.2 		"/>
		<path d="M419.7,237h-6.2L398,276.5l-2.5-3.7c-1.8-2.8-2.6-3.9-4-6.4c-1.8-3.3-3.4-6-5.4-8.2c2.6-2.1,4-5.2,4-9c0-7.3-5-12-12.8-12
			H367v39.7h8.9v-15.4c1.2,0,2.7,0.3,6.7,7.1l4.9,8.3h10.4h0.4h8.9l4.1-10.5h11l4.3,10.5h9.3L419.7,237z M375.9,245.8h0.9
			c3.9,0,4.3,1.6,4.3,3.3c0,1.2-0.3,2-0.8,2.6c-0.7,0.7-1.8,1-3.5,1h-0.9L375.9,245.8L375.9,245.8z M418.6,257.6h-3.9l1.9-4.9
			L418.6,257.6z"/>
	</g>
	<path d="M148.1,202.1c-16.8-11.9-41.3-7.4-57.1,0.1c-16.8,8-48.5,11.9-66-0.5l0.9-3.6c16.8,11.9,48.4,6.1,64.2-1.5v0
		c16.8-8,41.4-12.9,58.9-0.4"/>
	<path d="M148.1,214.3c-16.8-11.9-41.3-7.4-57.1,0.1c-16.8,8-48.5,11.9-66-0.5l0.9-3.6c16.8,11.9,48.4,6.1,64.2-1.5v0
		c16.8-8,41.4-12.9,58.9-0.4"/>
	<path d="M148.1,226.4c-16.8-11.9-41.3-7.4-57.1,0.1c-16.8,8-48.5,11.9-66-0.5l0.9-3.6c16.8,11.9,48.4,6.1,64.2-1.5v0
		c16.8-8,41.4-12.9,58.9-0.4"/>
	<path d="M142.9,229.1v78.5H59.6l0-68.2c-1.2,0.1-2.5,0.1-3.7,0.1v69.9v1.8h1.8h87h1.8v-1.8v-78.2
		C145.4,230.4,144.2,229.7,142.9,229.1z"/>
	<path class="st1" d="M122,270.3c-1,18-13.7,16.1-15.3,37.1l-0.2-0.1c-3.6-4.8,6.8-11.9-4.8-24.5c4.2,4.7-8.9,17.3,4.3,24.4
		c-21.3-5.8-22.7-20-22.5-25.2c0.6-14.1,12.5-15.5,5.6-29.2c0,0,5.9,2,8.8,9.1c0,0,6.9-6.6-0.3-27.4c12.9,9.6,16.3,16.8,17.2,29.7
		c0,0,4.2-5.2,3.7-8.2C118.8,256,122.6,259.8,122,270.3z"/>
</g>
</svg>
