<?xml version="1.0" encoding="utf-8"?>
<!-- Generator: Adobe Illustrator 21.0.2, SVG Export Plug-In . SVG Version: 6.00 Build 0)  -->
<svg version="1.1" id="Calque_1" xmlns="http://www.w3.org/2000/svg" xmlns:xlink="http://www.w3.org/1999/xlink" x="0px" y="0px"
	 viewBox="0 0 500 153.3" style="enable-background:new 0 0 500 153.3;" xml:space="preserve">
<style type="text/css">
	.st0{fill:#E5312B;}
	.st1{fill:#FFFFFF;}
	.st2{fill:#707173;}
	.st3{fill:#4D4D4D;}
</style>
<path class="st0" d="M90.5,58.8c-8,3.8-19.4,6.7-31.1,7.4v68.6h83.8V55.9C126.6,47.5,104.9,51.9,90.5,58.8z M122.5,96.9
	c-1,18-13.7,16.1-15.3,37.1l-0.2-0.1c-3.6-4.8,6.8-11.9-4.8-24.5c4.2,4.7-8.9,17.3,4.3,24.4c-21.3-5.8-22.7-20-22.5-25.2
	c0.6-14.1,12.5-15.5,5.6-29.2c0,0,5.9,2,8.8,9.1c0,0,6.9-6.6-0.3-27.4c12.9,9.6,16.3,16.8,17.2,29.7c0,0,4.2-5.1,3.8-8.2
	C119.2,82.6,123.1,86.4,122.5,96.9z"/>
<path class="st1" d="M106.5,133c0.2,0.1,0.4,0.2,0.6,0.3c-0.1-0.1-0.1-0.1-0.2-0.2h-0.1C106.8,133.1,106.6,133,106.5,133z"/>
<rect x="156.6" y="50.4" class="st1" width="317.9" height="86.4"/>
<path class="st2" d="M479.2,141.5H151.9V45.7h327.3L479.2,141.5L479.2,141.5z M161.3,132.1h308.5v-77H161.3V132.1z"/>
<polyline class="st3" points="475,114.1 156.1,114.1 156.1,137.5 475,137.5 "/>
<path class="st1" d="M182.5,134.1l-9.2-17.2l-9.3,17.4h4l1.9-3.6h6.6l1.9,3.6h3.9h0.1H193v-3.2h-6.8v-3.8h6.6v-3.2h-6.6v-2.4h6.8
	v-3.2h-10.5V134.1L182.5,134.1z M173.3,124.2l1.6,3.2h-3.3L173.3,124.2z"/>
<path class="st1" d="M205.9,132.4l-3.9-4.7c2-0.7,3.3-2.4,3.3-4.5c0-1.7-1-3.3-2.6-4.1c-1.5-0.7-3.3-0.7-4.7-0.7h-3.3v15.9h3.7v-5.6
	l4.6,5.6h2.1h2.5h1.5l1.9-3.6h6.6l1.9,3.6h4l-9.3-17.4L205.9,132.4z M214.2,124.2l1.6,3.2h-3.3L214.2,124.2z M201.7,123.3
	c0,0.9-0.4,1.8-3.5,1.8v-3.6C201.3,121.6,201.7,122.5,201.7,123.3z"/>
<polygon class="st1" points="221.8,121.6 225.7,121.6 225.7,134.2 229.4,134.2 229.4,121.6 233.3,121.6 233.3,118.4 221.8,118.4 "/>
<rect x="234" y="118.4" class="st1" width="3.7" height="15.9"/>
<path class="st1" d="M248.1,118c-5.2,0-9.5,3.7-9.5,8.2c0,4.6,4.2,8.2,9.5,8.2s9.5-3.6,9.5-8.2C257.6,121.8,253.3,118,248.1,118z
	 M248.1,131.3c-3.2,0-5.8-2.2-5.8-5c0-2.8,2.5-5,5.8-5s5.8,2.1,5.8,5C253.9,129,251.3,131.3,248.1,131.3z"/>
<polygon class="st1" points="270.9,127.9 258.5,116.7 258.5,134.2 262.1,134.2 262.1,124.6 274.6,135.8 274.6,118.4 270.9,118.4 "/>
<path class="st1" d="M298.6,128.2l-2.5-2.2l-1.9,1.9l-2.2-2.3c1.2-0.8,2.6-2,2.6-3.7c0-2.2-1.9-3.8-4.6-3.8s-4.6,1.6-4.6,3.9
	c0,1,0.4,2,1.3,3l-0.2,0.1c-1.7,1-3.3,2.2-3.3,4.5c0,2.8,2.6,5,5.9,5c1.7,0,3.5-0.7,4.9-1.9l1.5,1.6h4.8l-3.7-4L298.6,128.2z
	 M289.7,123.1L289.7,123.1l-0.2-0.2c-0.4-0.4-0.7-0.8-0.7-1.2c0-0.5,0.5-0.7,1-0.7c0.3,0,1.1,0.1,1.1,0.7
	C291,122.2,290.5,122.6,289.7,123.1z M286.7,129.5c0-0.8,1.4-1.6,2.3-2.1l2.6,2.8c-0.8,0.7-1.7,1.2-2.6,1.2
	C287.9,131.3,286.7,130.4,286.7,129.5z"/>
<path class="st1" d="M310.5,118.4h-4.2v15.9h4.2c6.3,0,10.2-3.1,10.2-8C320.6,121.4,316.7,118.4,310.5,118.4z M317,126.3
	c0,3.9-3.8,4.7-7,4.7v-9.4C314.6,121.6,317,123.2,317,126.3z"/>
<polygon class="st1" points="321.8,134.2 332.3,134.2 332.3,131 325.4,131 325.4,127.2 332.1,127.2 332.1,124 325.4,124 
	325.4,121.6 332.3,121.6 332.3,118.4 321.8,118.4 "/>
<path class="st1" d="M340.4,124.2l-1.2-0.4c-1.2-0.4-1.7-0.8-1.7-1.3c0-0.7,1-1.2,2-1.2c0.9,0,1.5,0.3,2,1l0.4,0.6l3.1-1.6l-0.5-0.7
	c-1.1-1.6-2.8-2.5-4.9-2.5c-2.8,0-5.7,1.6-5.7,4.5c0,2.5,2.1,3.6,4.1,4.4l1.2,0.4c1.7,0.6,2.3,1.1,2.3,2c0,1.1-1,2-2.3,2
	c-0.8,0-1.5-0.3-1.9-0.7c-0.2-0.2-0.5-0.6-0.5-1.2v-1l-3.8,0.7l0.1,0.8c0.4,2.7,2.9,4.7,5.9,4.7c3.5,0,6.1-2.3,6.1-5.3
	C345,126.2,342.5,125,340.4,124.2z"/>
<polygon class="st1" points="346.4,134.2 356.9,134.2 356.9,131 350,131 350,127.2 356.7,127.2 356.7,124 350,124 350,121.6 
	356.9,121.6 356.9,118.4 346.4,118.4 "/>
<polygon class="st1" points="370.7,127.9 358.3,116.7 358.3,134.2 361.9,134.2 361.9,124.6 374.4,135.8 374.4,118.4 370.7,118.4 "/>
<polygon class="st1" points="376.4,134.2 380,134.2 380,127.2 385.8,127.2 385.8,124 380,124 380,121.6 386,121.6 386,118.4 
	376.4,118.4 "/>
<path class="st1" d="M397.2,127.6c0,2.5-1,3.7-3.2,3.7s-3.2-1.1-3.2-3.7v-9.2h-3.7v9.8c0,3.7,2.8,6.4,6.9,6.4c4,0,6.9-2.6,6.9-6.4
	v-9.8h-3.7L397.2,127.6L397.2,127.6z"/>
<path class="st1" d="M421,132.1l-3.6-15.9l-6,11.8l-6-11.8l-4.1,18h3.8l1.6-7.9l4.7,9.2l4.7-9.2l1.6,7.9h2.2h1.6h2.5l1.9-3.6h6.6
	l1.9,3.6h4l-9.2-17.4L421,132.1z M429.2,124.2l1.6,3.2h-3.3L429.2,124.2z"/>
<path class="st1" d="M446.9,128.7h4.1c-0.6,1.4-2.5,2.6-4.4,2.6c-3,0-5.6-2.4-5.6-5c0-2.8,2.6-5,5.8-5c1.7,0,3.5,0.8,4.6,2l0.5,0.6
	l2.7-2.2l-0.6-0.6c-1.7-1.9-4.5-3-7.3-3c-5.2,0-9.4,3.7-9.4,8.3c0,4.5,4.2,8.2,9.2,8.2s8.7-3.3,8.7-7.7v-1.4H447L446.9,128.7
	L446.9,128.7z"/>
<polygon class="st1" points="466.7,121.6 466.7,118.4 456.2,118.4 456.2,134.2 466.7,134.2 466.7,131 459.8,131 459.8,127.2 
	466.5,127.2 466.5,124 459.8,124 459.8,121.6 "/>
<path d="M219.8,95.1c-6.6,0-11.1-4.6-11.1-11.3c0-6.6,4.6-11.4,10.9-11.4c3.4,0,6.4,1,10.1,3.4l3.3,2.1V67.2l-1.2-0.6
	c-4.7-2.1-8.4-3.1-12.1-3.1c-11.6,0-20,8.8-20,20.8c0,8.2,6.1,19.8,19.7,19.8c6,0,9.9-1.7,12.8-3.4l1.1-0.6V89.2l-3.3,2.4
	C226.6,93.8,223,95.1,219.8,95.1z"/>
<path d="M259.6,63.4c-11.2,0-19.6,8.7-19.6,20.3s8.4,20.3,19.5,20.3c12.8,0,19.7-10.5,19.7-20.3C279.3,71.9,271,63.4,259.6,63.4z
	 M259.6,95.1c-6.1,0-10.5-4.8-10.5-11.4s4.4-11.4,10.5-11.4s10.6,4.8,10.6,11.4C270.2,90.3,265.8,95.1,259.6,95.1z"/>
<polygon points="304.6,77 294.9,63.9 287.3,63.9 287.3,103.5 296.2,103.5 296.2,80.2 303.2,89.7 306.1,89.7 313,80.2 313,103.5 
	321.9,103.5 321.9,63.9 314.4,63.9 "/>
<polygon points="328.6,72.7 339.9,72.7 339.9,103.5 348.8,103.5 348.8,72.7 360.1,72.7 360.1,63.9 328.6,63.9 "/>
<path d="M419.7,63.7h-6.2L398,103.2l-2.5-3.7c-1.8-2.8-2.6-3.9-4-6.4c-1.8-3.3-3.4-6-5.4-8.2c2.6-2.1,4-5.2,4-9c0-7.3-5-12-12.8-12
	H367v39.7h8.9V88.2c1.2,0,2.7,0.3,6.7,7.1l4.9,8.3h10.4h0.4h8.9l4.1-10.5h11l4.3,10.5h9.3L419.7,63.7z M375.9,72.5h0.9
	c3.9,0,4.3,1.6,4.3,3.3c0,1.2-0.3,2-0.8,2.6c-0.7,0.7-1.8,1-3.5,1h-0.9V72.5L375.9,72.5z M418.6,84.3h-3.9l1.9-4.9L418.6,84.3z"/>
<path d="M148.1,28.8c-16.8-11.9-41.3-7.4-57.1,0.1c-16.8,8-48.5,11.9-66-0.5l0.9-3.6c16.8,11.9,48.4,6.1,64.2-1.5l0,0
	c16.8-8,41.4-12.9,58.9-0.4"/>
<path d="M148.1,41c-16.8-11.9-41.3-7.4-57.1,0.1c-16.8,8-48.5,11.9-66-0.5l0.9-3.6c16.8,11.9,48.4,6.1,64.2-1.5l0,0
	c16.8-8,41.4-12.9,58.9-0.4"/>
<path d="M148.1,53.1c-16.8-11.9-41.3-7.4-57.1,0.1c-16.8,8-48.5,11.9-66-0.5l0.9-3.6c16.8,11.9,48.4,6.1,64.2-1.5l0,0
	c16.8-8,41.4-12.9,58.9-0.4"/>
<path d="M142.9,55.8v78.5H59.6V66.1c-1.2,0.1-2.5,0.1-3.7,0.1v69.9v1.8h1.8h87h1.8v-1.8V57.9C145.4,57.1,144.2,56.4,142.9,55.8z"/>
<path class="st1" d="M122,97c-1,18-13.7,16.1-15.3,37.1l-0.2-0.1c-3.6-4.8,6.8-11.9-4.8-24.5c4.2,4.7-8.9,17.3,4.3,24.4
	c-21.3-5.8-22.7-20-22.5-25.2c0.6-14.1,12.5-15.5,5.6-29.2c0,0,5.9,2,8.8,9.1c0,0,6.9-6.6-0.3-27.4c12.9,9.6,16.3,16.8,17.2,29.7
	c0,0,4.2-5.2,3.7-8.2C118.8,82.7,122.6,86.5,122,97z"/>
</svg>
