<?xml version="1.0" encoding="utf-8"?>
<!-- Generator: Adobe Illustrator 16.0.0, SVG Export Plug-In . SVG Version: 6.00 Build 0)  -->
<!DOCTYPE svg PUBLIC "-//W3C//DTD SVG 1.1//EN" "http://www.w3.org/Graphics/SVG/1.1/DTD/svg11.dtd">
<svg version="1.1" id="Calque_2" xmlns="http://www.w3.org/2000/svg" xmlns:xlink="http://www.w3.org/1999/xlink" x="0px" y="0px"
	 width="500px" height="500px" viewBox="0 0 500 500" enable-background="new 0 0 500 500" xml:space="preserve">
<g>
	<polygon points="167.265,283.083 167.265,229.959 157.992,229.959 157.992,266.391 137.755,229.959 135.364,229.959 
		126.092,229.959 126.048,229.959 126.092,230.033 126.092,283.129 135.364,283.129 135.364,245.954 157.018,283.129 
		157.992,283.129 167.265,283.129 167.292,283.129 	"/>
	<rect x="350.195" y="229.959" width="10.631" height="53.17"/>
	<rect x="450.465" y="229.959" width="10.632" height="53.17"/>
	<polygon points="336.705,229.959 336.705,266.812 315.162,229.959 312.385,229.959 302.845,229.959 302.845,274.014 
		251.374,274.014 251.374,229.959 242.476,229.959 242.476,283.129 248.329,283.129 251.374,283.129 302.845,283.129 
		310.889,283.129 312.385,283.129 312.385,245.522 335.434,283.129 336.705,283.129 346.245,283.129 346.245,229.959 	"/>
	<path d="M99.089,228.354c-14.244,0-25.787,12.438-25.787,27.774c0,15.35,11.543,27.783,25.787,27.783
		c14.241,0,25.787-12.434,25.787-27.783C124.876,240.792,113.33,228.354,99.089,228.354z M99.089,274.936
		c-8.775,0-15.884-8.418-15.884-18.809c0-10.377,7.109-18.799,15.884-18.799c8.771,0,15.883,8.421,15.883,18.799
		C114.973,266.518,107.861,274.936,99.089,274.936z"/>
	<path d="M277.568,227.679c-12.211,0-22.107,9.556-22.107,21.339c0,11.793,9.896,21.346,22.107,21.346
		c12.208,0,22.107-9.553,22.107-21.346C299.676,237.235,289.776,227.679,277.568,227.679z M277.568,262.307
		c-7.522,0-13.616-5.945-13.616-13.289c0-7.333,6.094-13.286,13.616-13.286c7.52,0,13.617,5.953,13.617,13.286
		C291.186,256.362,285.088,262.307,277.568,262.307z"/>
	<rect x="242.476" y="215.982" width="6.989" height="6.989"/>
	<rect x="255.233" y="215.982" width="6.989" height="6.989"/>
	<rect x="267.992" y="215.982" width="6.988" height="6.989"/>
	<rect x="280.751" y="215.982" width="6.988" height="6.989"/>
	<rect x="293.509" y="215.982" width="6.989" height="6.989"/>
	<rect x="306.268" y="215.982" width="6.988" height="6.989"/>
	<path d="M62.207,266.178c-2.507,6.267-7.382,10.574-13.055,10.574c-8.218,0-14.875-8.926-14.875-19.943
		c0-11.006,6.658-19.935,14.875-19.935c5.522,0,10.287,4.081,12.852,10.071h9.813C68.48,236.2,59.639,228.46,49.151,228.46
		C35.812,228.46,25,240.898,25,256.235c0,15.349,10.812,27.783,24.151,27.783c10.28,0,19.005-7.423,22.488-17.84H62.207z"/>
	<path d="M229.758,283.129h10.397l-19.089-53.17h-0.424h-4.224h-5.609h-0.424h-27.286h-4.504h-5.399v53.17h9.904v-22.181h16.161
		l-7.963,22.181h10.397l4.177-11.717h19.714L229.758,283.129z M183.099,250.161v-11.867h24.294l-4.261,11.867H183.099z
		 M208.839,263.079l6.888-19.322l6.885,19.322H208.839z"/>
	<path d="M441.877,258.875c3.934-2.879,6.524-7.604,6.524-12.962c0-8.451-6.417-15.356-14.424-15.856v-0.097h-18.465h-4.614h-3.206
		h-2.812h-27.646h-7.633h-2.999v53.17h2.999v0.004h41.297v-0.004h4.614v-21.262h15.907c3.452,0.791,6.097,3.749,6.097,7.429v13.833
		h8.868v-17.266C446.385,262.765,444.516,260.121,441.877,258.875z M404.881,274.512h-27.646v-13.867h23.847v-9.102h-23.847v-12.962
		h27.646V274.512z M429.917,252.678v0.043h-14.404v-14.391h14.404v0.046c4.388,0.224,7.907,3.339,7.907,7.149
		C437.824,249.339,434.305,252.452,429.917,252.678z"/>
	<g>
		<path d="M475,235.773c0,1.195-0.301,2.304-0.895,3.335c-0.595,1.028-1.409,1.843-2.438,2.434
			c-1.028,0.594-2.144,0.888-3.332,0.888c-1.189,0-2.298-0.294-3.326-0.888c-1.028-0.591-1.843-1.406-2.438-2.434
			c-0.594-1.032-0.895-2.14-0.895-3.335c0-1.186,0.301-2.294,0.895-3.326c0.595-1.032,1.409-1.847,2.438-2.438
			c1.028-0.594,2.137-0.892,3.326-0.892c1.188,0,2.304,0.297,3.332,0.892c1.028,0.591,1.843,1.406,2.438,2.438
			C474.699,233.479,475,234.587,475,235.773z M473.705,235.773c0-1.483-0.521-2.748-1.569-3.796c-1.056-1.049-2.317-1.576-3.8-1.576
			s-2.752,0.527-3.8,1.576c-1.049,1.048-1.576,2.313-1.576,3.796c0,1.486,0.527,2.751,1.576,3.803
			c1.048,1.048,2.317,1.572,3.8,1.572s2.744-0.524,3.8-1.572C473.184,238.524,473.705,237.259,473.705,235.773z M465.317,232.213
			h3.179c0.901,0,1.563,0.184,1.963,0.548c0.4,0.364,0.607,0.851,0.607,1.459c0,0.478-0.16,0.892-0.467,1.242
			c-0.308,0.347-0.788,0.601-1.456,0.758c0.273,0.104,0.48,0.214,0.601,0.331c0.181,0.164,0.374,0.404,0.575,0.725
			c0.006,0.023,0.394,0.711,1.148,2.06h-2.097c-0.682-1.355-1.136-2.167-1.369-2.431c-0.234-0.264-0.461-0.397-0.694-0.397
			c-0.054,0-0.127,0.01-0.221,0.027v2.801h-1.77V232.213z M467.087,235.235h0.768c0.515,0,0.875-0.083,1.082-0.25
			s0.313-0.377,0.313-0.641c0-0.261-0.1-0.474-0.3-0.641s-0.541-0.247-1.028-0.247h-0.835V235.235z"/>
	</g>
</g>
</svg>
