<?xml version="1.0" encoding="utf-8"?>
<!-- Generator: Adobe Illustrator 21.0.2, SVG Export Plug-In . SVG Version: 6.00 Build 0)  -->
<svg version="1.1" id="Calque_2" xmlns="http://www.w3.org/2000/svg" xmlns:xlink="http://www.w3.org/1999/xlink" x="0px" y="0px"
	 viewBox="0 0 500 110" style="enable-background:new 0 0 500 110;" xml:space="preserve">
<polygon points="167.3,88.1 167.3,35 158,35 158,71.4 137.8,35 135.4,35 126.1,35 126,35 126.1,35 126.1,88.1 135.4,88.1 135.4,51 
	157,88.1 158,88.1 167.3,88.1 "/>
<rect x="350.2" y="35" width="10.6" height="53.2"/>
<rect x="450.5" y="35" width="10.6" height="53.2"/>
<polygon points="336.7,35 336.7,71.8 315.2,35 312.4,35 302.8,35 302.8,79 251.4,79 251.4,35 242.5,35 242.5,88.1 248.3,88.1 
	251.4,88.1 302.8,88.1 310.9,88.1 312.4,88.1 312.4,50.5 335.4,88.1 336.7,88.1 346.2,88.1 346.2,35 "/>
<path d="M99.1,33.4c-14.2,0-25.8,12.4-25.8,27.8S84.8,89,99.1,89c14.2,0,25.8-12.4,25.8-27.8C124.9,45.8,113.3,33.4,99.1,33.4z
	 M99.1,79.9c-8.8,0-15.9-8.4-15.9-18.8s7.1-18.8,15.9-18.8S115,50.7,115,61.1C115,71.5,107.9,79.9,99.1,79.9z"/>
<path d="M277.6,32.7c-12.2,0-22.1,9.6-22.1,21.3c0,11.8,9.9,21.3,22.1,21.3s22.1-9.6,22.1-21.3C299.7,42.2,289.8,32.7,277.6,32.7z
	 M277.6,67.3c-7.5,0-13.6-5.9-13.6-13.3c0-7.3,6.1-13.3,13.6-13.3s13.6,6,13.6,13.3C291.2,61.4,285.1,67.3,277.6,67.3z"/>
<rect x="242.5" y="21" width="7" height="7"/>
<rect x="255.2" y="21" width="7" height="7"/>
<rect x="268" y="21" width="7" height="7"/>
<rect x="280.8" y="21" width="7" height="7"/>
<rect x="293.5" y="21" width="7" height="7"/>
<rect x="306.3" y="21" width="7" height="7"/>
<path d="M62.2,71.2c-2.5,6.3-7.4,10.6-13.1,10.6c-8.2,0-14.9-8.9-14.9-19.9S40.9,42,49.1,42c5.5,0,10.3,4.1,12.9,10.1h9.8
	c-3.3-10.7-12.2-18.5-22.7-18.5c-13.3,0-24.2,12.4-24.2,27.8c0,15.3,10.8,27.8,24.2,27.8c10.3,0,19-7.4,22.5-17.8L62.2,71.2
	L62.2,71.2z"/>
<path d="M229.8,88.1h10.4L221.1,35h-0.4h-4.2h-5.6h-0.4h-27.3h-4.5h-5.4v53.2h9.9V66h16.2l-8,22.2h10.4l4.2-11.7h19.7L229.8,88.1z
	 M183.1,55.2V43.3h24.3l-4.3,11.9H183.1z M208.8,68.1l6.9-19.3l6.9,19.3H208.8z"/>
<path d="M441.9,63.9c3.9-2.9,6.5-7.6,6.5-13c0-8.5-6.4-15.4-14.4-15.9l0,0h-18.5h-4.6h-3.2h-2.8h-27.6h-7.6h-3v53.2h3l0,0H411l0,0
	h4.6V66.9h15.9c3.5,0.8,6.1,3.7,6.1,7.4v13.8h8.9V70.8C446.4,67.8,444.5,65.1,441.9,63.9z M404.9,79.5h-27.6V65.6h23.8v-9.1h-23.8
	v-13h27.6V79.5L404.9,79.5z M429.9,57.7L429.9,57.7h-14.4V43.3h14.4l0,0c4.4,0.2,7.9,3.3,7.9,7.1C437.8,54.3,434.3,57.5,429.9,57.7z
	"/>
<path d="M471.7,35.1c-1-0.6-2.1-0.9-3.3-0.9c-1.2,0-2.3,0.3-3.3,0.9c-1,0.6-1.8,1.4-2.4,2.4c-0.6,1-0.9,2.1-0.9,3.3s0.3,2.3,0.9,3.3
	c0.6,1,1.4,1.8,2.4,2.4c1,0.6,2.1,0.9,3.3,0.9s2.3-0.3,3.3-0.9s1.8-1.4,2.4-2.4c0.6-1,0.9-2.1,0.9-3.3s-0.3-2.3-0.9-3.3
	C473.5,36.5,472.7,35.7,471.7,35.1z M472.1,44.6c-1.1,1.1-2.3,1.6-3.8,1.6s-2.8-0.6-3.8-1.6c-1.1-1-1.6-2.3-1.6-3.8s0.6-2.8,1.6-3.8
	c1-1.1,2.3-1.6,3.8-1.6s2.7,0.6,3.8,1.6c1.1,1.1,1.6,2.3,1.6,3.8S473.2,43.5,472.1,44.6z"/>
<path d="M469.7,41.5c-0.1-0.1-0.3-0.2-0.6-0.3c0.7-0.2,1.2-0.5,1.5-0.8c0.3-0.3,0.5-0.7,0.5-1.2c0-0.6-0.2-1.1-0.6-1.5
	c-0.4-0.3-1.1-0.5-2-0.5h-3.2l-0.1,7.1h1.8v-2.8c0.1,0,0.1,0,0.2,0c0.2,0,0.5,0.1,0.7,0.4c0.3,0.2,0.7,1,1.4,2.4h2.1
	c-0.7-1.4-1.1-2.1-1.1-2.1C470.1,41.9,469.9,41.7,469.7,41.5z M467.9,40.2h-0.7h-0.1h0.1v-1.6h0.8c0.5,0,0.8,0.1,1,0.2
	c0.2,0.1,0.3,0.3,0.3,0.6c0,0.2-0.1,0.5-0.3,0.6S468.4,40.2,467.9,40.2z"/>
</svg>
