<?xml version="1.0" encoding="utf-8"?>
<!-- Generator: Adobe Illustrator 19.1.0, SVG Export Plug-In . SVG Version: 6.00 Build 0)  -->
<svg version="1.1" id="Calque_2" xmlns="http://www.w3.org/2000/svg" xmlns:xlink="http://www.w3.org/1999/xlink" x="0px" y="0px"
	 viewBox="0 0 500 500" style="enable-background:new 0 0 500 500;" xml:space="preserve">
<g>
	<polygon points="167.3,283.1 167.3,230 158,230 158,266.4 137.8,230 135.4,230 126.1,230 126,230 126.1,230 126.1,283.1 
		135.4,283.1 135.4,246 157,283.1 158,283.1 167.3,283.1 167.3,283.1 	"/>
	<rect x="350.2" y="230" width="10.6" height="53.2"/>
	<rect x="450.5" y="230" width="10.6" height="53.2"/>
	<polygon points="336.7,230 336.7,266.8 315.2,230 312.4,230 302.8,230 302.8,274 251.4,274 251.4,230 242.5,230 242.5,283.1 
		248.3,283.1 251.4,283.1 302.8,283.1 310.9,283.1 312.4,283.1 312.4,245.5 335.4,283.1 336.7,283.1 346.2,283.1 346.2,230 	"/>
	<path d="M99.1,228.4c-14.2,0-25.8,12.4-25.8,27.8c0,15.4,11.5,27.8,25.8,27.8c14.2,0,25.8-12.4,25.8-27.8
		C124.9,240.8,113.3,228.4,99.1,228.4z M99.1,274.9c-8.8,0-15.9-8.4-15.9-18.8c0-10.4,7.1-18.8,15.9-18.8c8.8,0,15.9,8.4,15.9,18.8
		C115,266.5,107.9,274.9,99.1,274.9z"/>
	<path d="M277.6,227.7c-12.2,0-22.1,9.6-22.1,21.3c0,11.8,9.9,21.3,22.1,21.3c12.2,0,22.1-9.6,22.1-21.3
		C299.7,237.2,289.8,227.7,277.6,227.7z M277.6,262.3c-7.5,0-13.6-5.9-13.6-13.3c0-7.3,6.1-13.3,13.6-13.3c7.5,0,13.6,6,13.6,13.3
		C291.2,256.4,285.1,262.3,277.6,262.3z"/>
	<rect x="242.5" y="216" width="7" height="7"/>
	<rect x="255.2" y="216" width="7" height="7"/>
	<rect x="268" y="216" width="7" height="7"/>
	<rect x="280.8" y="216" width="7" height="7"/>
	<rect x="293.5" y="216" width="7" height="7"/>
	<rect x="306.3" y="216" width="7" height="7"/>
	<path d="M62.2,266.2c-2.5,6.3-7.4,10.6-13.1,10.6c-8.2,0-14.9-8.9-14.9-19.9c0-11,6.7-19.9,14.9-19.9c5.5,0,10.3,4.1,12.9,10.1h9.8
		c-3.3-10.7-12.2-18.5-22.7-18.5c-13.3,0-24.2,12.4-24.2,27.8c0,15.3,10.8,27.8,24.2,27.8c10.3,0,19-7.4,22.5-17.8L62.2,266.2
		L62.2,266.2z"/>
	<path d="M229.8,283.1h10.4L221.1,230h-0.4h-4.2h-5.6h-0.4h-27.3h-4.5h-5.4v53.2h9.9v-22.2h16.2l-8,22.2h10.4l4.2-11.7h19.7
		L229.8,283.1z M183.1,250.2v-11.9h24.3l-4.3,11.9H183.1z M208.8,263.1l6.9-19.3l6.9,19.3H208.8z"/>
	<path d="M441.9,258.9c3.9-2.9,6.5-7.6,6.5-13c0-8.5-6.4-15.4-14.4-15.9V230h-18.5h-4.6h-3.2h-2.8h-27.6h-7.6h-3v53.2h3v0h41.3v0
		h4.6v-21.3h15.9c3.5,0.8,6.1,3.7,6.1,7.4v13.8h8.9v-17.3C446.4,262.8,444.5,260.1,441.9,258.9z M404.9,274.5h-27.6v-13.9h23.8v-9.1
		h-23.8v-13h27.6L404.9,274.5L404.9,274.5z M429.9,252.7L429.9,252.7l-14.4,0v-14.4h14.4v0c4.4,0.2,7.9,3.3,7.9,7.1
		C437.8,249.3,434.3,252.5,429.9,252.7z"/>
	<g>
		<path d="M475,235.8c0,1.2-0.3,2.3-0.9,3.3c-0.6,1-1.4,1.8-2.4,2.4c-1,0.6-2.1,0.9-3.3,0.9c-1.2,0-2.3-0.3-3.3-0.9
			c-1-0.6-1.8-1.4-2.4-2.4c-0.6-1-0.9-2.1-0.9-3.3c0-1.2,0.3-2.3,0.9-3.3c0.6-1,1.4-1.8,2.4-2.4c1-0.6,2.1-0.9,3.3-0.9
			c1.2,0,2.3,0.3,3.3,0.9c1,0.6,1.8,1.4,2.4,2.4C474.7,233.5,475,234.6,475,235.8z M473.7,235.8c0-1.5-0.5-2.7-1.6-3.8
			c-1.1-1-2.3-1.6-3.8-1.6s-2.8,0.5-3.8,1.6c-1,1-1.6,2.3-1.6,3.8c0,1.5,0.5,2.8,1.6,3.8c1,1,2.3,1.6,3.8,1.6s2.7-0.5,3.8-1.6
			C473.2,238.5,473.7,237.3,473.7,235.8z M465.3,232.2h3.2c0.9,0,1.6,0.2,2,0.5c0.4,0.4,0.6,0.9,0.6,1.5c0,0.5-0.2,0.9-0.5,1.2
			c-0.3,0.3-0.8,0.6-1.5,0.8c0.3,0.1,0.5,0.2,0.6,0.3c0.2,0.2,0.4,0.4,0.6,0.7c0,0,0.4,0.7,1.1,2.1h-2.1c-0.7-1.4-1.1-2.2-1.4-2.4
			c-0.2-0.3-0.5-0.4-0.7-0.4c-0.1,0-0.1,0-0.2,0v2.8h-1.8L465.3,232.2L465.3,232.2z M467.1,235.2h0.8c0.5,0,0.9-0.1,1.1-0.2
			s0.3-0.4,0.3-0.6c0-0.3-0.1-0.5-0.3-0.6s-0.5-0.2-1-0.2h-0.8V235.2z"/>
	</g>
</g>
</svg>
