<?xml version="1.0" encoding="utf-8"?>
<!-- Generator: Adobe Illustrator 21.0.2, SVG Export Plug-In . SVG Version: 6.00 Build 0)  -->
<svg version="1.1" id="Calque_2" xmlns="http://www.w3.org/2000/svg" xmlns:xlink="http://www.w3.org/1999/xlink" x="0px" y="0px"
	 viewBox="0 0 500 298" style="enable-background:new 0 0 500 298;" xml:space="preserve">
<style type="text/css">
	.st0{fill:#FABB00;}
	.st1{fill:#C00418;}
</style>
<path class="st0" d="M472.4,134.2l-44-103.5c-3.5-8.1-13.5-14.8-22.3-14.8H359H160.8H25v266h135.8h198.1H406
	c8.8,0,18.9-6.6,22.3-14.8l44-103.5C475.9,155.6,475.9,142.4,472.4,134.2z"/>
<rect x="394.6" y="86.3" class="st1" width="18.5" height="130.8"/>
<path class="st1" d="M209.7,86.3c-36.1,0-65.4,29.3-65.4,65.4s29.3,65.4,65.4,65.4s65.4-29.3,65.4-65.4
	C275.1,115.6,245.8,86.3,209.7,86.3z M209.7,200c-26.7,0-48.3-21.6-48.3-48.3s21.6-48.3,48.3-48.3S258,125,258,151.7
	C258.1,178.4,236.4,200,209.7,200z"/>
<path class="st1" d="M112.5,199.2c-26.2,0-47.5-21.3-47.5-47.5s21.3-47.5,47.5-47.5c13.4,0,25.5,5.6,34.1,14.5
	c2.8-5.4,6.3-10.4,10.4-14.9c-11.7-10.9-27.3-17.5-44.5-17.5c-36.1,0-65.4,29.3-65.4,65.4s29.3,65.4,65.4,65.4
	c17.2,0,32.8-6.6,44.5-17.5c-4.1-4.5-7.6-9.5-10.4-14.9C138,193.6,125.9,199.2,112.5,199.2z"/>
<path class="st1" d="M252.2,208.9v8.2h18.5v-28.6C265.9,196.4,259.6,203.4,252.2,208.9z"/>
<path class="st1" d="M350.9,86.3h-80.2h-18.5H238c9,3.9,17,9.6,23.6,16.6h9.1h14.2h60.5c16,0,29.1,11.8,29.1,26.2
	s-13.1,26.2-29.1,26.2h-64.5c-0.3,5.8-1.3,11.4-2.9,16.8h38.4l42.9,45.1h24.5L340.9,172h10c21.3,0,38.7-17.4,38.7-38.7V125
	C389.6,103.7,372.2,86.3,350.9,86.3z"/>
</svg>
