<?xml version="1.0" encoding="utf-8"?>
<!-- Generator: Adobe Illustrator 19.1.0, SVG Export Plug-In . SVG Version: 6.00 Build 0)  -->
<svg version="1.1" id="Calque_2" xmlns="http://www.w3.org/2000/svg" xmlns:xlink="http://www.w3.org/1999/xlink" x="0px" y="0px"
	 viewBox="0 0 500 500" style="enable-background:new 0 0 500 500;" xml:space="preserve">
<style type="text/css">
	.st0{fill:#00855B;}
	.st1{fill:#FFFFFF;}
	.st2{fill:#9C9E9F;}
</style>
<g>
	<path class="st0" d="M25,248.2c0-37.1,30.1-67.2,67.2-67.2c3.9,0,7.8,0.3,11.5,1v132.5c-3.8,0.6-7.6,1-11.5,1
		C55.1,315.4,25,285.3,25,248.2"/>
	<path d="M55,248C55,227.6,71.6,211,92,211c20.5,0,37.1,16.6,37.1,37.1s-16.6,37.1-37.1,37.1C71.6,285.1,55,268.5,55,248"/>
	<rect x="67.1" y="233.7" class="st1" width="33.6" height="33.6"/>
	<polygon class="st2" points="117.2,254.7 78.1,254.9 97.5,220.9 	"/>
	<path d="M199.2,208.7H188c-20.1,0-34.6,16.9-34.6,37.4c0,20.5,14.5,37.4,34.6,37.4h11.2v-18h-7.8c-10.5,0-18.6-6.3-18.6-19.5
		c0-13.1,8.1-19.5,18.6-19.5h7.8V208.7z"/>
	<path d="M219.4,257.5c0-6,4.4-11,10.4-11c6,0,10.4,5,10.4,11c0,6-4.4,11-10.4,11C223.8,268.5,219.4,263.5,219.4,257.5 M202.9,257.5
		c0,15,12.5,27.3,26.8,27.3s26.8-12.3,26.8-27.3s-12.5-27.3-26.8-27.3S202.9,242.6,202.9,257.5"/>
	<path d="M277.1,231.6h-16.5v29.7c0,13.5,7.8,23.5,22.3,23.5c14.5,0,22.3-10,22.3-23.5v-29.7h-16.5v29.7c0,4.5-2.2,7.3-5.9,7.3
		c-3.6,0-5.9-2.8-5.9-7.3V231.6z"/>
	<path d="M329.8,231.6h-17.1v51.9h17.1V231.6z M311.5,217.1c0,5.6,4.3,9.7,9.7,9.7c5.5,0,9.7-4.2,9.7-9.7c0-5.6-4.3-9.7-9.7-9.7
		C315.8,207.4,311.5,211.6,311.5,217.1"/>
	<rect x="339.2" y="208.7" width="17.1" height="74.8"/>
	<rect x="365.6" y="208.7" width="17.1" height="74.8"/>
	<path d="M462.5,231.1v-12.4H446v46.2c0,9.8,6.2,18.6,19.2,18.6h9.6v-15.8c-1.2,0.1-2.5,0.2-3.6,0.2c-6.6-0.2-8.8-1.3-8.8-7.3v-13.9
		h12.2v-15.6H462.5z"/>
	<path class="st0" d="M443.3,260.4h-29.6c-0.5-1.5-0.7-2.9-0.7-4.1c0-1.7,0.3-3.4,0.9-5.1h9.9c-0.7-3.9-2.9-5.8-6.5-5.8
		c-2.4,0-4.4,1-5.9,3.1c-1.5,2.1-2.3,4.7-2.3,7.9c0,3.4,0.7,6.1,2.2,8.2c1.5,2.1,3.4,3.1,5.8,3.1c1.9,0,3.8-1,5.6-2.9l11.1,13.4
		c-5.2,4.1-10.9,6.1-17.3,6.1c-7.7,0-14.2-2.6-19.5-7.8c-5.3-5.2-7.9-11.6-7.9-19.3c0-7.6,2.6-14.1,7.9-19.3
		c5.3-5.3,11.8-7.9,19.6-7.9c7.5,0,13.9,2.6,19,7.7c5.1,5.1,7.7,11.4,7.7,18.9C443.5,257.5,443.5,258.7,443.3,260.4"/>
	<g>
		<path class="st0" d="M127.2,312.7l0.1-2.2h-5.6l0.1-3.9h3.9c0.5,0,1,0,1.5,0.1l0.9,0.1l0.1-2.3h-8.9v0.4c0,4-0.3,11.7-0.5,13.4
			l0,0.4h2.8v-0.4c0-0.9,0.1-3.9,0.1-5.8h1.9c1.1,0,2.2,0,3.3,0.1L127.2,312.7z"/>
		<path class="st0" d="M148.6,311.4c1.1-0.7,1.8-1.9,1.8-3.3c0-2.3-1.4-3.5-4-3.5h-5.8v0.4c0,1.3-0.1,9.3-0.5,13.4l-1-2.9
			c-1.3-3.5-2.6-7.1-3.7-10.7l-0.1-0.3h-2.8l-0.1,0.2c-2,4.2-4.2,8.6-6.7,13.5l-0.3,0.6h2.9l2.6-5.7h4.6c0.7,2,1.3,3.6,1.8,5.4
			l0.1,0.3h2.6h0.2h4.9c4.4,0,5.4-2.2,5.4-4.1C150.6,313.1,149.9,312,148.6,311.4z M131.9,311l1.8-3.7l1.3,3.7H131.9z M145.7,306.6
			c1.5,0,2.1,0.5,2.1,1.6c0,1.5-0.9,2.2-2.8,2.2h-2l0.1-3.8H145.7z M142.9,312.5h2.8c1.5,0,2.3,0.7,2.3,2c0,2-1.9,2.3-2.7,2.3h-2.5
			L142.9,312.5z"/>
		<path class="st0" d="M161.9,308.2c0-2.3-1.5-3.7-4.1-3.7h-5.4l0,0.4c0,5.3-0.2,9.2-0.5,13.5l0,0.4h2.7l0-0.4
			c0-2.3,0.1-4.6,0.2-7.3l0.1,0.1c0.4,0.8,0.9,1.5,1.4,2.3c1,1.6,2,3.3,2.8,5l0.1,0.2h3l-4-6.4C160.3,312.1,161.9,310.5,161.9,308.2
			z M154.7,310.6c0-1.2,0.1-2.5,0.2-3.9h2.4c1.4,0,2,0.5,2,1.7c0,1.8-1.5,2.4-2.9,2.4c-0.3,0-0.7,0-1.2-0.1L154.7,310.6z"/>
		<path class="st0" d="M163.3,304.9c0,4.6-0.2,8.7-0.4,12.7l-0.1,1.2h2.8l0-1.5c0.1-4.1,0.2-8.3,0.4-12.4l0-0.4h-2.7L163.3,304.9
			L163.3,304.9z"/>
		<path class="st0" d="M202.6,305c0,1.5-0.1,4.4-0.2,7.1c0,1-0.1,2.1-0.1,3.1c-0.6-1-1.3-2-1.9-3c-1.6-2.4-3.2-4.9-4.7-7.5l-0.1-0.2
			h-2.9l0,0.4c-0.1,5.2-0.3,9.4-0.6,13.4l-1-2.9c-1.3-3.5-2.5-7.1-3.7-10.6l-0.1-0.3h-2.8l-0.1,0.2c-1.7,3.6-3.6,7.3-5.6,11.4
			l-0.5,0.2c-1.3,0.4-2.4,0.6-3.4,0.6c-2.9,0-4.7-1.9-4.7-5c0-3.3,2.1-5.4,5.3-5.4c0.9,0,1.9,0.2,3.1,0.5l0.6,0.2l-0.2-2.5l-0.3-0.1
			c-1.2-0.3-2.3-0.4-3.3-0.4c-4.8,0-7.8,3-7.8,7.7c0,4.3,2.9,7,7.3,7c0.9,0,1.8-0.1,2.6-0.3l0,0.1h2.9l2.6-5.7h4.6
			c0.7,2,1.3,3.6,1.8,5.4l0.1,0.3h2.6h0.2h2.4l0-0.4c0.1-3.3,0.2-6.7,0.3-9.9l0-0.2c0.7,1.1,1.5,2.3,2.2,3.4c1.5,2.2,3,4.5,4.4,6.9
			l0.1,0.2h2.9l0-0.4c0.1-4,0.3-8.7,0.6-13.5l0-0.4h-2.6L202.6,305z M183.7,311l1.8-3.7l1.3,3.7H183.7z"/>
		<path class="st0" d="M205.7,306.8l1-0.1c0.5,0,1-0.1,1.5-0.1h1.6l0,0.7c-0.1,3.6-0.2,7.3-0.5,11l0,0.4h2.8v-0.4
			c0-3.2,0.1-6.4,0.3-9.6l0.1-2.2h1.3c0.5,0,1.6,0,2.4,0.1l0.4,0l0.1-2.3h-10.8L205.7,306.8z"/>
		<path class="st0" d="M228.9,304.5h-6.1l0,0.4c0,4.6-0.2,9.2-0.6,13.5l0,0.4h5.3c5,0,8-2.9,8-7.7
			C235.5,306.9,233.1,304.5,228.9,304.5z M232.8,310.9c0,3.9-1.8,5.8-5.5,5.8h-2.4l0.4-10h3.8C230,306.7,232.8,307,232.8,310.9z"/>
		<path class="st0" d="M237.1,304.9c-0.1,4.6-0.2,9.1-0.5,13.5l0,0.4h9.3l0.1-2.3l-0.5,0c-1.6,0.1-3.2,0.1-4.6,0.1h-1.6l0.2-4.1h5.9
			l0.1-2.1h-6l0.1-3.9h2.5c1.2,0,2.5,0,3.7,0.1l0.4,0l0.1-2.2h-9.3L237.1,304.9z"/>
		<path class="st0" d="M258.2,310.8c-1.2-1-2.3-1.9-2.3-2.9c0-0.7,0.7-1.4,2.1-1.4c0.8,0,1.6,0.2,2.5,0.5l0.6,0.2l-0.2-2.5l-0.3-0.1
			c-0.8-0.1-1.8-0.3-2.8-0.3c-2.8,0-4.5,1.4-4.5,3.8c0,1.7,1.6,3,3.2,4.3c1.1,1,2.3,1.9,2.3,2.8c0,1.4-1.2,1.7-2.3,1.7
			c-1.2,0-2.3-0.5-3.1-0.8l-0.6-0.3l0.2,2.7l0.3,0.1c1.1,0.3,2.3,0.6,3.5,0.6c2.3,0,4.7-1,4.7-3.8
			C261.3,313.4,259.7,312,258.2,310.8z"/>
		<path class="st0" d="M263.2,304.9c-0.1,4.5-0.2,9.1-0.5,13.5l0,0.4h9.3l0.1-2.3l-0.5,0c-1.6,0.1-3.2,0.1-4.6,0.1h-1.6l0.2-4.1h6
			l0.1-2.1h-6l0.1-3.9h2.5c1.2,0,2.5,0,3.7,0.1l0.4,0l0.1-2.2h-9.3L263.2,304.9z"/>
		<path class="st0" d="M283.8,308.2c0-2.3-1.5-3.7-4.1-3.7h-5.4l0,0.4c0,5.3-0.2,9.2-0.5,13.5l0,0.4h2.7l0-0.4
			c0-2.2,0.1-4.6,0.2-7.3l0.1,0.1c0.4,0.8,0.9,1.5,1.3,2.3c1,1.6,2,3.3,2.8,5l0.1,0.2h3l-4-6.4C282.3,312.1,283.8,310.5,283.8,308.2
			z M276.6,310.6c0-1.2,0.1-2.5,0.2-3.9h2.4c1.4,0,2,0.5,2,1.7c0,1.8-1.5,2.4-2.9,2.4c-0.3,0-0.7,0-1.2-0.1L276.6,310.6z"/>
		<path class="st0" d="M294.8,308.2c0-2.3-1.5-3.7-4.1-3.7h-5.4v0.4c0,5.3-0.2,9.2-0.5,13.5l0,0.4h2.7l0-0.4c0-2.3,0.1-4.6,0.2-7.3
			l0.1,0.1c0.4,0.8,0.9,1.5,1.4,2.3c1,1.6,2,3.3,2.8,5l0.1,0.2h3l-4-6.4C293.2,312.1,294.8,310.5,294.8,308.2z M287.6,310.6
			c0-1.2,0.1-2.5,0.2-3.9h2.4c1.4,0,2,0.5,2,1.7c0,1.8-1.5,2.4-2.9,2.4c-0.3,0-0.7,0-1.2-0.1L287.6,310.6z"/>
		<path class="st0" d="M305.7,304.9c0,2-0.3,8.5-0.5,9.7c-0.4,2-2.3,2.3-3.4,2.3c-2.4,0-3.4-1-3.4-3.3c0-1.8,0.2-5.3,0.4-8.1l0.1-1
			h-2.7l0,0.4c0,1.5-0.1,3.6-0.2,5.4c-0.1,1.9-0.2,3.5-0.2,4.2c0,2.9,2.2,4.6,5.8,4.6c4.1,0,6.2-1.8,6.3-5.4
			c0.1-2.4,0.2-4.4,0.3-6.3c0.1-0.8,0.1-1.7,0.1-2.5l0-0.4h-2.7L305.7,304.9z"/>
		<path class="st0" d="M319.7,308.2c0-2.3-1.5-3.7-4.1-3.7h-5.4l0,0.4c0,5.3-0.2,9.2-0.5,13.5l0,0.4h2.7l0-0.4
			c0-2.3,0.1-4.6,0.2-7.3l0.1,0.1c0.4,0.8,0.9,1.5,1.4,2.3c1,1.6,2,3.3,2.8,5l0.1,0.2h3l-4-6.4C318.2,312.1,319.7,310.5,319.7,308.2
			z M312.5,310.6c0-1.2,0.1-2.5,0.2-3.9h2.4c1.4,0,2,0.5,2,1.7c0,1.8-1.5,2.4-2.9,2.4c-0.3,0-0.7,0-1.2-0.1L312.5,310.6z"/>
		<path class="st0" d="M321.2,304.9c-0.1,4.6-0.2,9.1-0.5,13.5l0,0.4h9.3l0.1-2.3l-0.5,0c-1.6,0.1-3.2,0.1-4.6,0.1h-1.6l0.2-4.1h6
			l0.1-2.1h-6l0.1-3.9h2.5c1.2,0,2.5,0,3.7,0.1l0.4,0l0.1-2.2h-9.3L321.2,304.9z"/>
		<path class="st0" d="M341.7,308.2c0-2.3-1.5-3.7-4.1-3.7h-5.4v0.4c0,5.3-0.2,9.2-0.5,13.5l0,0.4h2.7l0-0.4c0-2.2,0.1-4.6,0.2-7.3
			l0.1,0.1c0.4,0.8,0.9,1.5,1.4,2.3c1,1.6,2,3.3,2.8,5l0.1,0.2h3l-4-6.4C340.2,312.1,341.7,310.5,341.7,308.2z M334.5,310.6
			c0-1.2,0.1-2.5,0.2-3.9h2.4c1.4,0,2,0.5,2,1.7c0,1.8-1.5,2.4-2.9,2.4c-0.3,0-0.7,0-1.2-0.1L334.5,310.6z"/>
		<path class="st0" d="M343.1,304.9c0,4.7-0.2,8.9-0.5,12.9l-0.1,1h2.8l0-1.5c0.1-4.1,0.2-8.3,0.4-12.4l0-0.4h-2.7L343.1,304.9
			L343.1,304.9z"/>
		<path class="st0" d="M348,304.9c-0.1,4.6-0.2,9.1-0.5,13.5l0,0.4h9.3l0.1-2.3l-0.5,0c-1.6,0.1-3.2,0.1-4.6,0.1h-1.6l0.2-4.1h5.9
			l0.1-2.1h-6l0.1-3.9h2.5c1.2,0,2.5,0,3.7,0.1l0.4,0l0.1-2.2H348L348,304.9z"/>
		<path class="st0" d="M370.8,304.5h-6.1l0,0.4c0,4.7-0.2,9.2-0.6,13.5l0,0.4h5.3c5,0,8-2.9,8-7.7
			C377.4,306.9,375,304.5,370.8,304.5z M374.7,310.9c0,3.9-1.8,5.8-5.5,5.8h-2.4l0.4-10h3.8C371.9,306.7,374.7,307,374.7,310.9z"/>
		<path class="st0" d="M379,304.9c-0.1,4.6-0.2,9.1-0.5,13.5l0,0.4h9.3l0.1-2.3l-0.5,0c-1.6,0.1-3.2,0.1-4.6,0.1h-1.6l0.2-4.1h6
			l0.1-2.1h-6l0.1-3.9h2.5c1.2,0,2.5,0,3.7,0.1l0.4,0l0.1-2.2H379L379,304.9z"/>
		<path class="st0" d="M395.6,304.5H390v0.4c0,1.6-0.1,8.9-0.5,13.5l0,0.4h2.7v-0.4c0-2.4,0-4.5,0.1-6.5l0.2,0.7l0.3,0
			c0.5,0.1,1,0.1,1.6,0.1c2.5,0,5.1-1.4,5.1-4.6C399.3,306.5,398.4,304.5,395.6,304.5z M392.4,307.9l0.1-1.2h2.6
			c0.8,0,1.6,0.3,1.6,1.6c0,2.2-2,2.4-2.8,2.4c-0.5,0-1-0.1-1.4-0.1l-0.2,0C392.3,309.7,392.4,308.8,392.4,307.9z"/>
		<path class="st0" d="M410,304.9c0,2-0.3,8.5-0.5,9.7c-0.4,2-2.3,2.3-3.4,2.3c-2.4,0-3.4-1-3.4-3.3c0-1.9,0.2-5.4,0.4-8.3l0.1-0.8
			h-2.7l0,0.4c0,1.5-0.1,3.6-0.2,5.4c-0.1,1.8-0.2,3.4-0.2,4.1c0,2.9,2.2,4.6,5.8,4.6c4.1,0,6.2-1.8,6.3-5.4
			c0.1-2.4,0.2-4.3,0.3-6.2c0.1-0.9,0.1-1.7,0.1-2.5l0-0.4H410L410,304.9z"/>
		<path class="st0" d="M414.5,304.9c0,4.7-0.2,8.8-0.4,12.7l-0.1,1.2h2.8l0-1.4c0.1-4.1,0.2-8.3,0.4-12.4l0-0.4h-2.7V304.9z"/>
		<path class="st0" d="M423.6,310.8c-1.2-1-2.3-1.9-2.3-2.9c0-0.7,0.7-1.4,2.1-1.4c0.8,0,1.6,0.2,2.5,0.5l0.6,0.2l-0.2-2.5l-0.3-0.1
			c-0.8-0.1-1.8-0.3-2.8-0.3c-2.8,0-4.5,1.4-4.5,3.8c0,1.7,1.6,3,3.2,4.3c1.1,1,2.3,1.9,2.3,2.8c0,1.4-1.2,1.7-2.3,1.7
			c-1.2,0-2.3-0.5-3.1-0.8l-0.6-0.3l0.2,2.7l0.3,0.1c1.1,0.3,2.3,0.6,3.5,0.6c2.3,0,4.7-1,4.7-3.8
			C426.8,313.4,425.1,312,423.6,310.8z"/>
		<path class="st0" d="M438.1,304.6c-0.4,0.3-0.8,0.6-1.2,0.8l-0.5,0.3l-0.1,2.7l1.4-1c-0.1,3.6-0.2,7.4-0.5,11l0,0.4h2.7v-0.4
			c0-3.4,0.2-8.5,0.5-13.5l0-0.4h-2.3L438.1,304.6z"/>
		<path class="st0" d="M453.3,311.4c1.1-0.7,1.7-1.9,1.7-3.3c0-2.3-1.7-3.8-4.4-3.8c-2.4,0-4.9,1.3-4.9,4.2c0,1.2,0.5,2.3,1.5,2.9
			c-1.4,0.7-2.2,1.9-2.2,3.5c0,3,2.5,4.1,4.9,4.1c2.6,0,5.3-1.2,5.3-4.6C455.2,313.1,454.5,312,453.3,311.4z M450.5,306.4
			c1.3,0,2.1,0.7,2.1,1.9c0,1.3-1,2.3-2.3,2.3c-0.5,0-2.1-0.1-2.1-1.9C448.2,307.3,449.1,306.4,450.5,306.4z M450.2,317
			c-1,0-2.6-0.3-2.6-2.2c0-2,1.9-2.2,2.7-2.2c0.9,0,2.4,0.2,2.4,1.9C452.7,316,451.7,317,450.2,317z"/>
		<path class="st0" d="M461.1,304.6c-0.4,0.3-0.8,0.6-1.2,0.8l-0.5,0.3l-0.1,2.7l1.4-1c-0.1,3.6-0.2,7.4-0.5,11l0,0.4h2.7v-0.4
			c0-3.4,0.2-8.5,0.5-13.5l0-0.4h-2.3L461.1,304.6z"/>
		<path class="st0" d="M472.7,304.5l-0.1,0.1c-0.4,0.3-0.8,0.6-1.2,0.8l-0.5,0.3l-0.1,2.7l1.4-1c-0.1,3.6-0.2,7.4-0.5,11l0,0.4h2.7
			v-0.4c0-3.4,0.2-8.5,0.5-13.5l0-0.4L472.7,304.5L472.7,304.5z"/>
	</g>
</g>
</svg>
