<?xml version="1.0" encoding="utf-8"?>
<!-- Generator: Adobe Illustrator 19.1.0, SVG Export Plug-In . SVG Version: 6.00 Build 0)  -->
<svg version="1.1" id="Calque_1" xmlns="http://www.w3.org/2000/svg" xmlns:xlink="http://www.w3.org/1999/xlink" x="0px" y="0px"
	 viewBox="0 0 500 500" style="enable-background:new 0 0 500 500;" xml:space="preserve">
<style type="text/css">
	.st0{fill:#FFFFFF;}
	.st1{fill:#CEC2B1;}
</style>
<g>
	<path d="M475,380.1c0,16.6-14.1,30-31.4,30H56.4c-17.3,0-31.4-13.4-31.4-30V261.9c0-16.6,14.1-30,31.4-30h387.2
		c17.3,0,31.4,13.4,31.4,30V380.1z"/>
	<g>
		<g>
			<g>
				<path class="st0" d="M343.2,128.5c0,0-0.7,34.3-9,44.1c-8.3,9.9-30.7,19.4-36.8,17.7c-6.1-1.7-7.7-3.7-11.6-7
					c-3.9-3.3-3.1-13.3-2.1-20.5c1-7.2,7.7-19.1,14.1-23.1c6.4-4,18.8-7.8,26.2-8.4C331.5,130.8,343.2,128.5,343.2,128.5z"/>
				<path class="st0" d="M299.1,204c-1.9,0-3.6-0.2-5.2-0.7c-8.1-2.3-11.8-5.5-15.2-8.4c-0.5-0.4-0.9-0.8-1.5-1.2
					c-9-7.5-8.5-20.7-6.8-32.7c1.5-10.6,10-26.2,20.3-32.6c8.9-5.6,23.7-9.7,32.4-10.4c5.4-0.4,14.5-2,17.6-2.6l16.4-3.2l-0.4,16.7
					c0,0.4-0.2,9.4-1.5,19.7c-2.6,21.1-7.3,28.8-10.6,32.8c-6.9,8.2-17.9,14-23.9,16.8C312.1,202,304.9,204,299.1,204z M296.4,174.8
					c1.7,1.5,2.3,1.9,3.4,2.3c5.2-0.8,19.4-7.3,24.1-13c1.8-2.4,3.5-10.3,4.7-19.6c-1.2,0.1-2.4,0.3-3.5,0.3
					c-5.6,0.4-15.7,3.6-20.1,6.3c-2.5,1.6-7.4,9.6-8,13.7C296.3,170.3,296.3,173.3,296.4,174.8z"/>
			</g>
			<g>
				<path class="st0" d="M297.5,89.9c0,0,0.8,24.2,0.5,29.9c-0.4,5.7-11.2,22.2-18.3,27c-7.1,4.8-14.5,16.8-23.2,9.6
					c-8.7-7.2-11.5-16.9-9.4-29.9c2.1-13,1.5-22.9,14.6-27.5C274.8,94.5,285,90.9,297.5,89.9z"/>
				<path class="st0" d="M262.1,172.1c-5,0-9.9-1.8-14.2-5.3c-12.3-10.2-17-24.5-14.1-42.4c0.3-1.7,0.5-3.3,0.7-4.9
					c1.5-11.2,3.6-26.5,22.7-33.1l1-0.3c13-4.5,24.3-8.4,38.3-9.5l13.9-1l0.5,14c0.1,4.1,0.8,25.1,0.5,31.2
					c-0.7,10.9-14.6,30.9-24.2,37.3c-1,0.7-2.5,2-3.9,3.4c-3.4,3.1-7.2,6.6-12.2,8.8C268.2,171.4,265.1,172.1,262.1,172.1z
					 M284.5,105.7c-5.4,1.4-10.9,3.4-17.5,5.6l-1,0.3c-3.1,1.1-3.5,1.2-4.9,11.3c-0.2,1.8-0.5,3.6-0.8,5.6
					c-1.3,7.9,0.1,12.2,2.4,15.1c0.8-0.7,1.7-1.5,2.4-2.1c2.1-1.9,4.4-4.1,7.1-5.9c3.6-2.4,11-13.2,12.4-17.4
					C284.7,116,284.7,111.2,284.5,105.7z"/>
			</g>
			<g>
				<path class="st0" d="M333.4,204.1c0,0-4.4,23.8-11.4,30.8c-7,6.9-12.7,10.9-21.6,10.9c-8.9-0.1-16.2,2.6-19.8-6.4
					c-3.6-9-1-15.6,6.5-25.4c7.5-9.8,14.1-12.5,23-12.4C319.1,201.6,333.4,204.1,333.4,204.1z"/>
				<path class="st0" d="M291.7,259.5c-7.5,0-18.3-1.8-23.6-15.2c-6.4-16,0.2-28,8.3-38.6c9.5-12.4,19.5-17.7,33.4-17.7
					c0.1,0,0.2,0,0.3,0c9.8,0,23.9,2.5,25.5,2.7l13.4,2.3l-2.4,13.3c-1.5,8.4-6.1,29-15.1,37.9c-7.2,7.2-16.1,14.8-30.9,14.8
					c-0.1,0-0.3,0-0.4,0c-1.3,0-2.7,0.1-4.1,0.2C294.8,259.4,293.4,259.5,291.7,259.5z M309.7,215c-4.1,0-6.8,0.5-11.9,7.1
					c-4.7,6.2-5.5,8.6-5.2,10.5c0.7,0,1.4-0.1,2-0.1c1.8-0.1,3.7-0.2,5.9-0.2c3.5,0,6-0.9,12-6.9c1.2-1.4,2.7-5.2,4.2-10
					c-2.4-0.2-4.7-0.4-6.6-0.4C309.9,215,309.8,215,309.7,215z"/>
			</g>
			<g>
				<path class="st0" d="M231.2,111.3c0,0,3.5,19.7,0.5,30.6c-3,10.9-12,20.9-20.9,22.2c-8.8,1.4-10.3,1.5-14.5-5.3
					c-4.2-6.8-9.7-23.5-4.9-29.6c4.8-6.1,13.3-13.1,21.4-13.7C221.1,114.9,231.2,111.3,231.2,111.3z"/>
				<path class="st0" d="M204.4,178.2c-7.2,0-13.4-2.6-19.4-12.4c-4.5-7.3-14.8-31.3-4-44.9c6.7-8.5,18.3-17.8,30.9-18.8
					c5.1-0.4,12.5-2.6,14.8-3.5l14.9-5.3l2.8,15.6c3.9,21.6,0.9,34.2,0.3,36.5c-4.5,16.3-17.8,29.8-31.7,31.9
					C210,177.8,207.1,178.2,204.4,178.2z M203.1,136.3c0,3.2,2,10.3,4.4,14.7c0.5-0.1,1-0.1,1.4-0.2c2.4-0.4,8-5.4,10-12.5
					c0.7-2.4,0.8-6.1,0.7-10.1c-1.9,0.3-3.7,0.6-5.6,0.7C211.6,129.1,206.9,132,203.1,136.3z"/>
			</g>
			<g>
				<path class="st0" d="M275.7,198.4c-0.5,7.7-2.3,10.1-6.2,19c-3.9,8.8-1.2,15.8-0.6,24.3c0.6,8.5-0.4,27.1-12.1,30.8
					c-11.7,3.7-22.4-1.9-28.1-9.3c-5.7-7.4-11.1-9.9-17.2-13c-6.2-3.1-13.2-9-17.6-18.6c-4.4-9.6-9.6-10-18.7-13.6
					c-9.2-3.6-10.7-14.9-5.3-23.8c5.4-9,17.2-9.8,26.8-10.6c9.6-0.7,15.5-2.6,23.1-10.3c7.7-7.7,19.5-8.6,27.9-4.9
					c8.4,3.6,7.5,9.8,10.3,15.2c1.8,3.5,3.4,3.6,6.6,3.5C267.7,187,276.4,187.3,275.7,198.4z"/>
				<path class="st0" d="M249.4,287.2c-13.2,0-24.8-7.1-31.4-15.7c-3.5-4.6-6.4-6-11.6-8.7l-1-0.5c-10.4-5.2-18.9-14.2-23.8-25.1
					c-1.3-2.9-1.3-2.9-6.9-4.9c-1.3-0.5-2.8-1-4.5-1.7c-7.4-2.9-12.8-8.6-15.4-16.1c-2.9-8.5-1.6-18.7,3.5-27.2
					c8.9-14.9,26-16.2,37.3-17.1c7.1-0.5,9.7-1.4,14.7-6.4c10.8-10.8,28.4-14,42.8-7.8c10.8,4.7,14,12.7,15.7,17.7
					c5.6,0.6,10.5,2.9,14.1,6.5c3.2,3.3,7,9.2,6.4,18.9v0c-0.5,8.7-2.7,13.4-5.4,19.4c-0.6,1.2-1.2,2.6-1.9,4.2
					c-1.3,3-1,5.5-0.3,10.8c0.3,2.1,0.6,4.6,0.8,7.2c1.2,17.8-3.8,38.9-21.4,44.5C256.9,286.6,253.1,287.2,249.4,287.2z
					 M180.2,205.6c1.3,0.5,2.5,0.9,3.6,1.3c7.7,2.7,16.3,5.9,22.3,19.2c3.3,7.2,8.5,10.7,11.4,12.2l0.9,0.5
					c6.4,3.2,13.6,6.8,20.9,16.3c2,2.6,7.1,6.6,13.2,4.7c1.6-1.5,3.5-8.8,2.9-17.2c-0.1-1.7-0.4-3.5-0.6-5.3
					c-0.9-6.8-2.1-15.2,2.3-25.2c0.8-1.7,1.4-3.2,2-4.5c1.6-3.5,2.3-5.1,2.7-6.9c-4.5-0.2-11.4-1.9-15.9-10.8
					c-1.3-2.5-2-4.9-2.6-6.8c-0.2-0.7-0.5-1.5-0.7-2c-0.1,0-0.2-0.1-0.4-0.2c-3.7-1.6-9.6-1.4-13.1,2.1
					c-10.6,10.6-20,13.3-31.6,14.2c-5.8,0.4-14.5,1.1-16.3,4.1C180.1,203.2,180,205,180.2,205.6z"/>
			</g>
		</g>
	</g>
	<g>
		<g>
			<path class="st1" d="M88,311.1c-2.9,8.1-10.2,13.2-19,13.2c-11.2,0-19.8-8.5-19.8-19.6c0-10.8,8.8-19.4,19.8-19.4
				c8.9,0,17.1,5.7,19,13.3h-8c-2.9-5-6-7-10.9-7c-7.3,0-12.7,5.6-12.7,13.1c0,7.3,5.7,13.3,12.6,13.3c4.6,0,9-2.7,11.1-6.9H88z"/>
			<path class="st1" d="M134.4,304.8c0,10.8-9.4,19.6-20.9,19.6c-11.5,0-20.9-8.8-20.9-19.6c0-10.7,9.3-19.4,20.9-19.4
				C125.1,285.3,134.4,293.9,134.4,304.8z M99.8,304.7c0,7.4,6.1,13.3,13.7,13.3c7.5,0,13.6-5.9,13.6-13.3c0-7.2-6.1-13-13.7-13
				C105.9,291.6,99.8,297.6,99.8,304.7z"/>
			<path class="st1" d="M155.9,323.4h-5.1l-15.4-37.1h7.8l10.2,26.5l10-26.5h7.8L155.9,323.4z"/>
			<path class="st1" d="M210.8,311.7c-2.9,7.7-10.2,12.6-18.6,12.6c-10.8,0-19.7-8.9-19.7-19.6c0-11,8.8-19.7,20.1-19.7
				c10.6,0,19.5,8.8,19.5,19.3c0,0.7-0.1,2.2-0.2,3.6h-32c1.6,6.2,6.6,10.2,12.8,10.2c4.6,0,8.5-2.2,10.9-6.3H210.8z M204.8,302.5
				c-0.3-6.2-6-11.2-12.7-11.2c-3.3,0-7,1.6-9.3,4.1c-1.8,1.9-2.5,3.6-3,7.1L204.8,302.5L204.8,302.5z"/>
			<path class="st1" d="M219.3,323.4v-37.1h6.7v3.3c2.2-2.8,5.4-4.2,10-4.3v7.1c-6.6,0.4-9.5,3.7-9.5,10.7v20.2H219.3z"/>
			<path class="st1" d="M279.4,319.2c0,10.8-8.8,18.7-20.9,18.7c-8.9,0-15.7-4.2-19.2-11.6h8.1c2.8,3.6,6.4,5.3,10.9,5.3
				c8.3,0,13.8-5,13.8-12.5v-0.8c-3.9,4.2-8.1,6-13.8,6c-10.9,0-20.4-9.1-20.4-19.6c0-10.8,9.2-19.4,20.9-19.4
				c5.9,0,10.4,1.8,13.9,5.5v-4.5h6.7L279.4,319.2L279.4,319.2z M245.2,304.9c0,7.2,6.1,13.1,13.4,13.1c7.7,0,13.6-6,13.6-13.7
				c0-7-6-12.7-13.4-12.7C251.1,291.6,245.2,297.4,245.2,304.9z"/>
			<path class="st1" d="M295.9,286.3v20.2c0,7.8,3.2,11.6,9.7,11.6c6.4,0,10.2-4.3,10.2-11.6v-20.2h7.2v37.1h-6.7v-3.9
				c-1.9,3-6.4,4.9-11.4,4.9c-9.7,0-16.1-6.2-16.1-15.3v-22.8L295.9,286.3L295.9,286.3z"/>
			<path class="st1" d="M364.5,323.4v-5.8c-2.9,4.5-7.9,6.8-14.5,6.8c-11.2,0-19.8-8.4-19.8-19.4c0-11.2,8.7-19.6,20.2-19.6
				c6,0,11.7,2.5,14.2,6.3v-5.3h6.7v37.1L364.5,323.4L364.5,323.4z M337.4,305.1c0,7,6,13,13.1,13c7.4,0,13.5-5.8,13.5-13
				c0-7.6-5.9-13.4-13.6-13.4C343.2,291.6,337.4,297.6,337.4,305.1z"/>
			<path class="st1" d="M380.7,323.4v-37.1h6.7v3.3c2.2-2.8,5.4-4.2,10-4.3v7.1c-6.6,0.4-9.5,3.7-9.5,10.7v20.2H380.7z"/>
			<path class="st1" d="M433.2,323.4v-5.3c-3.4,4.1-7.9,6.2-13.9,6.2c-11.4,0-20-8.5-20-19.7c0-4.8,1.9-9.6,5.4-13.3
				c3.8-4.2,8.1-5.9,14.2-5.9c5.2,0,11.1,2.5,13.8,5.9v-17.3h7.2v49.5L433.2,323.4L433.2,323.4z M406.5,304.7
				c0,7.5,5.8,13.3,13.2,13.3c7.6,0,13.5-5.9,13.5-13.4c0-7.5-5.7-13-13.6-13C412.2,291.6,406.5,297.3,406.5,304.7z"/>
		</g>
		<g>
			<path class="st1" d="M453.9,272.7c2.3,0,4.2,1.8,4.2,4.1c0,2.3-1.9,4.1-4.2,4.1c-2.3,0-4.2-1.8-4.2-4.1
				C449.6,274.5,451.5,272.7,453.9,272.7L453.9,272.7z M453.9,273.3c-1.9,0-3.4,1.5-3.4,3.4c0,1.9,1.5,3.5,3.4,3.5
				c1.9,0,3.4-1.5,3.4-3.4S455.8,273.3,453.9,273.3L453.9,273.3L453.9,273.3z M453.1,279.2h-0.8v-4.6c0.4-0.1,0.8-0.1,1.3-0.1
				c0.7,0,1.2,0.1,1.5,0.3c0.3,0.2,0.4,0.5,0.4,0.9c0,0.6-0.4,1-0.9,1.1v0c0.4,0.1,0.7,0.4,0.8,1.1c0.1,0.7,0.2,1,0.3,1.1H455
				c-0.1-0.1-0.2-0.6-0.3-1.2c-0.1-0.6-0.4-0.8-1-0.8h-0.5V279.2z M453.1,276.6h0.6c0.6,0,1.2-0.2,1.2-0.8c0-0.4-0.3-0.8-1.2-0.8
				c-0.2,0-0.4,0-0.6,0V276.6z"/>
		</g>
	</g>
	<path class="st1" d="M449.4,368c0,11.7-9.9,21.1-22.1,21.1H75.6c-12.2,0-22.1-9.5-22.1-21.1l0,0c0-11.7,9.9-21.1,22.1-21.1h351.7
		C439.5,346.9,449.4,356.4,449.4,368L449.4,368z"/>
	<g>
		<g>
			<path d="M345.1,130.4c0,0-0.7,34.3-9,44.1c-8.3,9.9-30.7,19.4-36.8,17.7c-6.1-1.7-7.7-3.7-11.6-7c-3.9-3.3-3.1-13.3-2.1-20.5
				c1-7.2,7.7-19.1,14.1-23.1s18.8-7.8,26.2-8.4C333.3,132.7,345.1,130.4,345.1,130.4z"/>
			<path d="M299.4,91.8c0,0,0.8,24.2,0.5,29.9c-0.4,5.7-11.2,22.2-18.3,27c-7.1,4.8-14.5,16.8-23.2,9.6c-8.7-7.2-11.5-16.9-9.4-29.9
				c2.1-13,1.5-22.9,14.6-27.5C276.6,96.3,286.8,92.7,299.4,91.8z"/>
			<path d="M335.2,206c0,0-4.4,23.9-11.4,30.8c-7,6.9-12.7,10.9-21.6,10.9c-8.9-0.1-16.2,2.6-19.8-6.4c-3.6-9-1-15.6,6.5-25.4
				c7.5-9.8,14.1-12.5,23-12.4C320.9,203.5,335.2,206,335.2,206z"/>
			<path d="M233.1,113.1c0,0,3.5,19.7,0.5,30.6c-3,10.9-12,20.9-20.9,22.2c-8.8,1.4-10.3,1.5-14.5-5.3c-4.2-6.8-9.7-23.5-4.9-29.6
				c4.8-6.1,13.3-13.1,21.4-13.7C222.9,116.7,233.1,113.1,233.1,113.1z"/>
			<path d="M277.5,200.3c-0.5,7.7-2.3,10.1-6.2,19c-3.9,8.8-1.2,15.8-0.6,24.3c0.6,8.5-0.4,27.1-12.1,30.8
				c-11.7,3.7-22.4-1.9-28.1-9.3c-5.7-7.4-11.1-9.9-17.2-13c-6.2-3.1-13.2-9-17.6-18.6c-4.4-9.7-9.6-10-18.7-13.6
				c-9.2-3.6-10.7-14.9-5.3-23.8c5.4-9,17.2-9.8,26.8-10.6c9.6-0.7,15.5-2.6,23.1-10.3c7.7-7.7,19.5-8.6,27.9-4.9
				c8.4,3.6,7.5,9.8,10.3,15.2c1.8,3.5,3.4,3.6,6.6,3.5C269.6,188.8,278.2,189.2,277.5,200.3z"/>
		</g>
	</g>
	<g>
		<path d="M86.4,382.6h-4v-14.5h-2.2v-3.7h2.2v-4.1c0-1.9,0-4.4,1-6.1c1.3-2.1,3.6-2.9,6-2.9c0.9,0,1.9,0.2,2.8,0.5v4
			c-0.9-0.3-1.7-0.5-2.7-0.5c-3.2,0-3.2,2.3-3.2,6.4v2.7h5.9v3.7h-5.9V382.6z"/>
		<path d="M116,370.9c0-6.9,5.4-12.4,12.3-12.4c6.9,0,12.3,5.5,12.3,12.4c0,6.9-5.5,12.3-12.3,12.3C121.5,383.2,116,377.8,116,370.9
			z M120,370.8c0,4.8,3.4,8.7,8.3,8.7c4.9,0,8.3-3.9,8.3-8.7c0-4.7-3.4-8.7-8.3-8.7C123.4,362.2,120,366.1,120,370.8z"/>
		<path d="M166.4,370.9c0-6.9,5.4-12.4,12.3-12.4c6.9,0,12.3,5.5,12.3,12.4c0,6.9-5.5,12.3-12.3,12.3
			C171.9,383.2,166.4,377.8,166.4,370.9z M170.4,370.8c0,4.8,3.4,8.7,8.3,8.7c4.9,0,8.3-3.9,8.3-8.7c0-4.7-3.4-8.7-8.3-8.7
			C173.8,362.2,170.4,366.1,170.4,370.8z"/>
		<path d="M223.2,382.6h-4v-19.7h-2.4v-3.7h2.4v-8.4h4v8.4h4.2v3.7h-4.2V382.6z"/>
		<path d="M261.2,375l7.3-17.6l7.3,17.6l7-15.8h4.5l-11.6,25.1l-7.2-17.4l-7.2,17.4l-11.5-25.1h4.5L261.2,375z"/>
		<path d="M315.7,371.7c0,4.3,3.1,7.8,7.7,7.8c3.4,0,5.6-2,7.1-4.8l3.4,1.9c-2.2,4.2-6,6.6-10.8,6.6c-7,0-11.5-5.3-11.5-12.1
			c0-6.9,4-12.7,11.4-12.7c7.5,0,11.5,6.2,11.1,13.2L315.7,371.7L315.7,371.7z M329.9,368.3c-0.5-3.4-3.4-6.1-6.9-6.1
			c-3.4,0-6.6,2.7-7.1,6.1H329.9z"/>
		<path d="M383.3,382.6h-4v-3.2h-0.1c-2,2.6-4.8,3.9-8.1,3.9c-6.9,0-11.2-5.8-11.2-12.3c0-6.7,4.2-12.4,11.3-12.4c3.2,0,6.1,1.5,8,4
			h0.1v-3.3h4L383.3,382.6L383.3,382.6z M364.1,370.6c0,4.6,2.7,8.9,7.7,8.9c5.1,0,7.8-4.1,7.8-8.9c0-4.7-2.9-8.5-7.9-8.5
			C367,362.2,364.1,366.2,364.1,370.6z"/>
		<path d="M416.9,361.7h0.1c1.4-1.8,2.6-3.2,5.2-3.2c1.3,0,2.4,0.5,3.6,1.1l-1.9,3.6c-0.8-0.5-1.3-1-2.4-1c-4.4,0-4.6,5.6-4.6,8.7
			v11.7h-4v-23.4h4L416.9,361.7L416.9,361.7z"/>
	</g>
</g>
</svg>
