<?xml version="1.0" encoding="utf-8"?>
<!-- Generator: Adobe Illustrator 19.1.0, SVG Export Plug-In . SVG Version: 6.00 Build 0)  -->
<svg version="1.1" id="Calque_2" xmlns="http://www.w3.org/2000/svg" xmlns:xlink="http://www.w3.org/1999/xlink" x="0px" y="0px"
	 viewBox="0 0 500 500" style="enable-background:new 0 0 500 500;" xml:space="preserve">
<style type="text/css">
	.st0{fill:#E2001A;}
	.st1{fill:#FFFFFF;}
</style>
<g>
	<path class="st0" d="M475,170.6c-59.6-17.6-138.8-28.5-225.5-28.5c-86.2,0-165.1,10.7-224.5,28.1v159.5
		c59.4,17.5,138.3,28.1,224.5,28.1c86.7,0,165.9-10.8,225.5-28.5V170.6z"/>
	<path class="st1" d="M164.1,267c-4.7,18.3-17.3,31.4-39.2,31.4c-22.8,0-41.4-22.1-41.4-49.3c0-27.2,18.5-47.8,41.4-47.8
		c28.3,0,34.7,20.3,34.5,36.1h13.1h0.5v-49.9h-13.6v7.3c-0.9,0.9-2.1,1.5-4,1.5c-2.5,0-4.4-0.8-5.8-1.5c-0.8-0.6-1.6-1.2-2.4-1.8
		c0,0,0,0,0,0l0,0c-7.7-5.1-17.3-8-28.8-8c-36,0-65.2,28.1-65.2,62.7s29.2,62.7,65.2,62.7c36.2,0,56.4-18.3,62.9-43.5L164.1,267
		L164.1,267z"/>
	<path class="st1" d="M436.5,267c-4.7,18.3-17.3,31.4-39.2,31.4c-22.8,0-41.4-22.1-41.4-49.3c0-27.2,18.5-47.8,41.4-47.8
		c28.3,0,34.7,20.3,34.5,36.1h13.1h0.5v-49.9h-13.6v7.3c-0.9,0.9-2.1,1.5-4,1.5c-2.5,0-4.4-0.8-5.8-1.5c-0.8-0.6-1.6-1.2-2.4-1.8
		c0,0,0,0,0,0l0,0c-7.7-5.1-17.3-8-28.8-8c-36,0-65.2,28.1-65.2,62.7s29.2,62.7,65.2,62.7c36.2,0,56.4-18.3,62.9-43.5L436.5,267
		L436.5,267z"/>
	<path class="st1" d="M340.1,298.1c-3.6,0-8.9,0-14.6,0c-10.2,0-16.2-4.9-16.2-4.9l-33.6-34.1l5.6,0.1l-0.1-0.1h5.6v0.3
		c17.7-0.9,31.9-15.5,31.9-33.4v-3.2c0-18.5-15.1-33.6-33.6-33.6h-11.8h-15h-74.4v9.1h6.6c6.2,0,11.2,5,11.2,11.2v77.1
		c0,6.2-5,11.2-11.2,11.2H176v10.4h80.7v-9.6h-16.5c-6.2,0-11.2-5-11.2-11.2v-28.3h21.6l34.5,49.1h55.8v-9.6L340.1,298.1z
		 M229,203.8h41.2v0.2c10.3,1.2,18.3,10.5,18.3,21.7c0,11.2-8.1,20.5-18.3,21.7v0.2H229L229,203.8L229,203.8z"/>
	<g>
		<path class="st1" d="M459.3,293.5c0-0.2-0.1-0.5-0.1-1l-0.1-0.7c0-0.4-0.2-0.8-0.4-1.1c-0.2-0.3-0.5-0.4-0.8-0.4l-0.1-0.5
			c0.4-0.1,0.7-0.2,0.9-0.4c0.4-0.3,0.6-0.8,0.6-1.5c0-0.6-0.2-1.1-0.6-1.4c-0.4-0.3-1.1-0.5-2-0.5h-3.2v7.7h1.1v-3.3h1.5
			c0.6,0,1,0.1,1.4,0.3c0.4,0.2,0.6,0.6,0.6,1l0,0.5c0,0.6,0.1,1,0.1,1.3c0,0.1,0,0.2,0,0.2h1.1
			C459.3,293.7,459.3,293.6,459.3,293.5z M456.6,289.6h-2.1v-2.9h2.1c0.5,0,0.8,0.1,1.1,0.4s0.4,0.6,0.4,1.1c0,0.5-0.1,0.8-0.4,1.1
			C457.5,289.5,457.1,289.6,456.6,289.6z"/>
		<path class="st1" d="M461.2,284.9c-1.4-1.4-3-2-4.9-2c-2,0-3.6,0.7-4.9,2c-1.3,1.3-2,3-2,4.9c0,1.9,0.7,3.6,2,4.9
			c1.3,1.3,3,2,4.9,2c1.9,0,3.6-0.7,4.9-2c1.3-1.3,2-3,2-4.9C463.2,287.9,462.5,286.2,461.2,284.9z M460.4,294
			c-0.1,0.1-0.2,0.2-0.2,0.2l0,0h0c-1.1,1-2.4,1.5-3.9,1.5c-1.6,0-3-0.6-4.1-1.7c-1.1-1.1-1.7-2.5-1.7-4.2c0-1.6,0.6-3,1.7-4.2
			c1.1-1.1,2.5-1.7,4.1-1.7c1.6,0,3,0.6,4.1,1.7c1.1,1.1,1.7,2.5,1.7,4.2C462.1,291.5,461.5,292.9,460.4,294z"/>
	</g>
	<path class="st1" d="M428.9,252.5c0-7.4-2.6-14.2-6.8-19.6l0,0l-0.5-0.6c0,0-0.1-0.1-0.1-0.1c-1.4-1.7-3-3.3-4.8-4.7
		c-0.1-0.1-0.2-0.2-0.3-0.3l0,0l-1-0.7c0,0-0.1,0-0.1,0c-1-0.7-2-1.3-3.1-1.9c-0.6-0.3-1.1-0.7-1.7-1c-0.2-0.1-0.4-0.2-0.6-0.3
		c-0.8-0.4-1.6-0.7-2.4-1c-1-0.4-2-0.7-3.1-1c-0.4-0.1-0.7-0.3-1.1-0.3c-0.4-0.1-0.7-0.1-1.1-0.2c-1.9-0.4-3.8-0.6-5.8-0.6
		c-2,0-3.9,0.2-5.8,0.6c-0.4,0.1-0.7,0.1-1.1,0.2c-0.4,0.1-0.7,0.2-1.1,0.3c-1,0.3-2.1,0.6-3.1,1c-0.8,0.3-1.6,0.6-2.4,1
		c-0.2,0.1-0.4,0.2-0.6,0.3c-0.6,0.3-1.2,0.7-1.8,1c-1,0.6-2,1.1-3,1.8c0,0-0.1,0-0.1,0.1l-1,0.7l0,0c-0.1,0.1-0.2,0.2-0.3,0.3
		c-1.7,1.4-3.3,3-4.7,4.7c0,0.1-0.1,0.1-0.1,0.1l-0.5,0.6l0,0c-4.2,5.5-6.8,12.2-6.8,19.6c0,7.4,2.6,14.2,6.8,19.6l0,0l0.5,0.6
		c0,0,0.1,0.1,0.1,0.1c1.4,1.7,3,3.3,4.8,4.7c0.1,0.1,0.2,0.2,0.2,0.2l0,0l1,0.7c0,0,0.1,0,0.1,0.1c1,0.7,2,1.3,3,1.9
		c0.6,0.3,1.1,0.7,1.7,1c0.2,0.1,0.4,0.2,0.5,0.3c0.8,0.4,1.6,0.7,2.4,1c1,0.4,2,0.7,3,0.9c0,0,0,0,0,0c0.4,0.1,0.7,0.2,1.1,0.3
		c0.4,0.1,0.8,0.1,1.1,0.2c1.8,0.3,3.7,0.6,5.6,0.6c0.1,0,0.1,0,0.2,0c0.1,0,0.1,0,0.2,0c1.9,0,3.7-0.2,5.6-0.6
		c0.4-0.1,0.8-0.1,1.2-0.2c0.4-0.1,0.7-0.2,1-0.3c0,0,0.1,0,0.1,0c1-0.3,2-0.6,3-0.9c0.8-0.3,1.7-0.6,2.5-1c0.2-0.1,0.4-0.2,0.5-0.3
		c0.6-0.3,1.1-0.6,1.7-0.9c1.1-0.6,2.1-1.2,3.1-1.9c0,0,0,0,0.1,0l1-0.7l0,0c0.1-0.1,0.1-0.2,0.2-0.2c1.8-1.4,3.4-3,4.8-4.8
		c0,0,0.1-0.1,0.1-0.1l0.5-0.6l0,0C426.3,266.7,428.9,259.9,428.9,252.5z M373.7,232.9c1.4-1.6,2.9-3.1,4.6-4.3c1.3,1.1,2.6,2.1,4,3
		c-1.3,2.1-2.4,4.2-3.3,6.3C377,236.3,375.2,234.8,373.7,232.9C373.7,232.9,373.7,232.9,373.7,232.9z M417.5,251.5
		c-0.1-4-0.9-8-2.5-12c2.1-1.5,4-3.2,5.7-5.2c3.6,4.8,5.9,10.7,6.1,17.2H417.5z M400.9,282.4c1.4-3.4,2.5-6.6,3.4-9.6
		c1.3,0.4,2.5,0.9,3.7,1.6c-1.8,2.7-3.9,5.3-6.4,8C401.5,282.3,401.2,282.3,400.9,282.4z M398.7,282.6c-0.4,0-0.8,0.1-1.1,0.1v-11.2
		c1.6,0.1,3.3,0.3,4.8,0.7C401.4,275.5,400.2,278.9,398.7,282.6z M394.5,282.6c-1.5-3.7-2.7-7.1-3.7-10.4c1.6-0.4,3.2-0.6,4.8-0.7
		v11.2C395.2,282.7,394.8,282.6,394.5,282.6z M402.4,232.8c-1.6,0.4-3.2,0.6-4.8,0.7v-11.2c0.4,0,0.8,0.1,1.1,0.1
		C400.2,226.1,401.4,229.5,402.4,232.8z M400.9,222.7c0.3,0,0.5,0,0.8,0.1c2.5,2.7,4.6,5.3,6.4,8c-1.2,0.6-2.5,1.1-3.7,1.6
		C403.4,229.2,402.3,226,400.9,222.7z M395.6,233.5c-1.7-0.1-3.3-0.3-4.8-0.7c1-3.3,2.2-6.7,3.7-10.4c0.4,0,0.8-0.1,1.1-0.1V233.5z
		 M395.6,235.5v8c-2.5-0.1-4.8-0.5-7.2-1.2c0.4-2.5,1-5,1.8-7.6C392,235.1,393.8,235.4,395.6,235.5z M395.6,245.5v6.1h-8.1
		c0-2.4,0.2-4.8,0.6-7.3C390.5,245,393,245.4,395.6,245.5z M395.6,253.5v6.1c-2.6,0.1-5.1,0.5-7.5,1.2c-0.4-2.4-0.5-4.9-0.6-7.3
		L395.6,253.5L395.6,253.5z M395.6,261.5v8c-1.8,0.1-3.6,0.3-5.4,0.7c-0.7-2.6-1.3-5.1-1.8-7.6C390.8,262,393.1,261.6,395.6,261.5z
		 M397.6,269.6v-8c2.5,0.1,4.8,0.5,7.2,1.2c-0.4,2.5-1,5-1.8,7.6C401.2,269.9,399.4,269.6,397.6,269.6z M397.6,259.6v-6.1h8.1
		c0,2.4-0.2,4.8-0.6,7.3C402.7,260.1,400.2,259.6,397.6,259.6z M397.6,251.5v-6.1c2.6-0.1,5.1-0.5,7.5-1.2c0.3,2.4,0.5,4.9,0.6,7.3
		H397.6z M397.6,243.5v-8c1.8-0.1,3.6-0.3,5.4-0.8c0.7,2.6,1.3,5.1,1.8,7.6C402.4,243,400,243.4,397.6,243.5z M404.9,234.2
		c1.4-0.5,2.8-1,4.2-1.7c1.3,2.1,2.5,4.2,3.4,6.4c-1.9,1.2-3.8,2.1-5.8,2.9C406.2,239.2,405.6,236.7,404.9,234.2z M410.9,231.5
		c1.4-0.9,2.7-1.9,4-3c1.7,1.3,3.2,2.7,4.6,4.4c-1.6,1.8-3.4,3.4-5.3,4.8C413.3,235.7,412.2,233.6,410.9,231.5z M405,223.6
		c1.3,0.4,2.6,0.7,3.8,1.3c0.1,0.1,0.3,0.1,0.4,0.2c0.1,0.1,0.2,0.1,0.3,0.2c1.3,0.6,2.5,1.4,3.7,2.2c-1.1,0.9-2.2,1.7-3.4,2.4
		C408.4,227.8,406.8,225.7,405,223.6z M391.5,222.8c0.3,0,0.5-0.1,0.8-0.1c-1.4,3.4-2.5,6.6-3.4,9.6c-1.3-0.4-2.5-0.9-3.7-1.6
		C386.9,228.1,389,225.4,391.5,222.8z M383.3,229.9c-1.2-0.7-2.3-1.5-3.4-2.4c1.2-0.8,2.4-1.6,3.7-2.2c0.1-0.1,0.2-0.1,0.3-0.2
		c0.1-0.1,0.2-0.1,0.4-0.1c1.2-0.5,2.5-0.9,3.8-1.3C386.4,225.7,384.8,227.8,383.3,229.9z M388.3,234.2c-0.7,2.6-1.3,5.1-1.8,7.5
		c-2-0.7-4-1.7-5.8-2.9c0.9-2.1,2.1-4.3,3.4-6.4C385.5,233.1,386.9,233.7,388.3,234.2z M386.2,243.6c-0.4,2.7-0.7,5.3-0.7,7.9h-7.7
		c0.1-3.6,0.9-7.2,2.3-10.8C382,241.9,384,242.9,386.2,243.6z M385.5,253.5c0,2.6,0.3,5.2,0.7,7.9c-2.1,0.8-4.2,1.7-6.1,2.9
		c-1.3-3.6-2.2-7.2-2.3-10.8L385.5,253.5L385.5,253.5z M386.5,263.4c0.4,2.4,1,4.9,1.8,7.5c-1.4,0.5-2.8,1-4.2,1.7
		c-1.3-2.1-2.5-4.3-3.4-6.4C382.5,265.1,384.5,264.1,386.5,263.4z M388.8,272.7c0.9,3.1,2.1,6.3,3.4,9.6c-0.3,0-0.5,0-0.8-0.1
		c-2.5-2.7-4.6-5.3-6.4-8C386.3,273.7,387.6,273.1,388.8,272.7z M388.2,281.5c-1.3-0.4-2.6-0.7-3.8-1.3c-0.1-0.1-0.3-0.1-0.4-0.1
		c-0.1,0-0.2-0.1-0.3-0.1c-1.3-0.6-2.5-1.5-3.8-2.3c1.1-0.9,2.2-1.7,3.4-2.4C384.8,277.3,386.4,279.4,388.2,281.5z M409.8,275.2
		c1.2,0.7,2.3,1.5,3.4,2.4c-1.2,0.8-2.4,1.6-3.8,2.3c-0.1,0-0.2,0.1-0.3,0.1c-0.1,0.1-0.3,0.1-0.4,0.2c-1.2,0.5-2.5,0.9-3.8,1.3
		C406.8,279.4,408.4,277.3,409.8,275.2z M409.1,272.6c-1.4-0.7-2.7-1.3-4.2-1.7c0.7-2.6,1.3-5.1,1.8-7.5c2,0.7,4,1.7,5.8,2.9
		C411.6,268.4,410.4,270.5,409.1,272.6z M414.2,267.3c1.9,1.4,3.7,3,5.3,4.8c-1.4,1.6-3,3.1-4.6,4.4c-1.3-1.1-2.6-2.1-4-3
		C412.2,271.5,413.3,269.4,414.2,267.3z M407,261.4c0.4-2.7,0.7-5.3,0.7-7.9h7.7c-0.1,3.6-0.9,7.2-2.3,10.8
		C411.2,263.2,409.2,262.2,407,261.4z M407.7,251.5c0-2.6-0.3-5.3-0.7-7.9c2.1-0.8,4.2-1.7,6.1-2.9c1.3,3.6,2.2,7.2,2.3,10.8H407.7z
		 M378.2,239.5c-1.5,4-2.4,8-2.5,12h-9.4c0.2-6.4,2.4-12.3,6.1-17.2C374.2,236.3,376.1,238.1,378.2,239.5z M375.7,253.5
		c0.1,4,0.9,8,2.5,12c-2.1,1.5-4,3.2-5.8,5.2c-3.6-4.8-5.9-10.7-6.1-17.2L375.7,253.5L375.7,253.5z M373.7,272.1
		c1.6-1.9,3.4-3.4,5.3-4.8c0.9,2.1,2,4.2,3.3,6.3c-1.4,0.9-2.7,1.9-4,3C376.6,275.2,375.1,273.8,373.7,272.1
		C373.7,272.2,373.7,272.1,373.7,272.1z M415,265.5c1.5-4,2.4-8,2.5-12h9.3c-0.2,6.4-2.4,12.3-6.1,17.2
		C419,268.7,417.1,267,415,265.5z"/>
</g>
</svg>
