<?xml version="1.0" encoding="utf-8"?>
<!-- Generator: Adobe Illustrator 21.0.2, SVG Export Plug-In . SVG Version: 6.00 Build 0)  -->
<svg version="1.1" id="Calque_1" xmlns="http://www.w3.org/2000/svg" xmlns:xlink="http://www.w3.org/1999/xlink" x="0px" y="0px"
	 viewBox="0 0 478 148" style="enable-background:new 0 0 478 148;" xml:space="preserve">
<style type="text/css">
	.st0{fill:#9B9B9B;}
</style>
<path class="st0" d="M454,93.5c-5.2,0-9.4,4.1-9.7,9.2H36.6c-0.3-5.1-4.5-9.2-9.7-9.2c-5.4,0-9.7,4.4-9.7,9.7c0,5.4,4.4,9.7,9.7,9.7
	c4.8,0,8.7-3.4,9.6-8h408c0.8,4.5,4.8,8,9.6,8c5.4,0,9.7-4.4,9.7-9.7C463.7,97.8,459.4,93.5,454,93.5z"/>
<rect x="250.3" y="18.4" class="st0" width="7.8" height="52.8"/>
<path d="M178.5,77.9c-15.1,0-27.9,12.4-27.9,27c0,15.2,12.5,27.6,27.9,27.6c15.3,0,27.8-12.2,27.8-27.3
	C206.3,90.1,193.8,77.9,178.5,77.9z M178.5,125c-11,0-20-9-20-20c0-10.7,9.1-19.7,20-19.7c10.8,0,19.9,9.1,19.9,20
	C198.4,116,189.3,125,178.5,125z"/>
<rect x="250.3" y="78.8" width="7.8" height="52.8"/>
<polygon points="310.7,117.1 280.8,78.8 270.5,78.8 270.5,131.6 279.5,131.6 279.5,90.8 311.5,131.6 319.8,131.6 319.8,78.8 
	310.7,78.8 "/>
<path d="M357.4,77.9c-15.1,0-27.9,12.4-27.9,27c0,15.2,12.5,27.6,27.9,27.6c15.3,0,27.8-12.2,27.8-27.3
	C385.2,90.1,372.7,77.9,357.4,77.9z M357.4,125c-11,0-20-9-20-20c0-10.7,9.1-19.7,20-19.7c10.8,0,19.9,9.1,19.9,20
	C377.3,116,368.2,125,357.4,125z"/>
<polygon points="416.6,104.6 436.9,78.8 425.9,78.8 411,97.6 396.1,78.8 385,78.8 405.3,104.6 383.8,131.6 394.9,131.6 411,111.3 
	427.1,131.6 438.2,131.6 "/>
<path d="M50.5,105.3c0,15.5,13.1,27.1,30.4,27.1c6.4,0,11.9-1.5,16.6-4.4v-10.6c-5.1,5.5-9.8,7.6-16.7,7.6
	c-11.9,0-21.7-8.9-21.7-19.9c0-11.3,9.3-19.8,21.6-19.8c7.4,0,12.7,2.5,16.7,7.7V82.4c-4.8-2.8-10.6-4.5-17-4.5
	C63.4,77.9,50.5,89.7,50.5,105.3z"/>
<path d="M139.5,93.2L139.5,93.2c0.1-0.1,0.1-0.2,0-0.4l0,0l0,0c-0.3-10.9-11.9-14.7-17.3-14.7H116v0.1h-8.2v53h8.7v-23.4h5.6h0.1
	l17.4,23.4H151l-19.3-26C135.8,103,139.3,99.2,139.5,93.2z M122.2,100.7h-5.6V85.3h5.7c0.1,0,9.7,0.7,10.1,7.6
	C132.3,100,122.3,100.7,122.2,100.7z"/>
<path d="M237.9,104.4c-2.2-1.7-4.5-2.6-9.7-4.2c-4.5-1.3-5.8-1.9-6.9-2.8c-1.1-1-1.9-2.9-1.9-4.7c0-4.2,3-7.3,7.2-7.3
	c11.8,0,14,6.9,14,6.9V81c-2.6-1.9-10.1-3-13.9-3c-8.9,0-15.3,6.3-15.3,14.9c0,3.9,1.5,7.6,3.9,9.9c2.2,2.1,3.9,2.9,9.9,4.7
	c8.8,2.7,10.2,4.9,10.2,9.1c0,4.9-3.6,8.5-8.5,8.5c-9.8,0-14.1-7.3-14.1-7.3l0.3,10.6c2.5,1.5,10.3,4.1,13.7,4.1
	c9.4,0,16.5-7,16.5-16.2C243.5,111.4,241.5,107.1,237.9,104.4z"/>
<path d="M432.1,72.8l1.4,1.9h-0.6l-1.7-2.3c1.4,0,1.9-0.3,1.9-1.2c0-0.9-0.5-1.2-1.7-1.2h-0.7v4.7h-0.5v-5.1h1.3
	c1.6,0,2.2,0.6,2.2,1.7C433.6,72.1,433.1,72.7,432.1,72.8z"/>
<path d="M431.4,76.7c-2.5,0-4.6-2.1-4.6-4.6s2.1-4.6,4.6-4.6s4.6,2.1,4.6,4.6S433.9,76.7,431.4,76.7z M431.4,68.5
	c-2,0-3.6,1.6-3.6,3.5c0,2,1.6,3.6,3.6,3.6S435,74,435,72C434.9,70.1,433.4,68.5,431.4,68.5z"/>
</svg>
