<?xml version="1.0" encoding="utf-8"?>
<!-- Generator: Adobe Illustrator 16.0.0, SVG Export Plug-In . SVG Version: 6.00 Build 0)  -->
<!DOCTYPE svg PUBLIC "-//W3C//DTD SVG 1.1//EN" "http://www.w3.org/Graphics/SVG/1.1/DTD/svg11.dtd">
<svg version="1.1" id="Calque_1" xmlns="http://www.w3.org/2000/svg" xmlns:xlink="http://www.w3.org/1999/xlink" x="0px" y="0px"
	 width="500px" height="500px" viewBox="0 0 500 500" enable-background="new 0 0 500 500" xml:space="preserve">
<g>
	<rect x="32.909" y="31.025" fill="#BBBDBE" width="442.091" height="343.694"/>
	<rect x="32.909" y="389.301" fill="#BBBDBE" width="442.091" height="86.255"/>
	<rect x="25" y="24.444" fill="#EFBC40" width="442.091" height="343.695"/>
	<rect x="25" y="382.72" fill="#EFBC40" width="442.091" height="86.256"/>
	<g>
		<path d="M80.377,412.286c-2.579-2.193-5.313-3.861-8.187-4.974s-5.9-1.668-9.067-1.668c-6.132,0-11.122,1.977-14.968,5.962
			c-3.847,3.955-5.762,9.083-5.762,15.386c0,6.086,1.869,11.121,5.607,15.076c3.738,3.954,8.465,5.932,14.165,5.932
			c3.321,0,6.488-0.587,9.485-1.762c3.012-1.204,5.885-2.965,8.65-5.375v10.38c-2.456,1.762-5.128,3.09-8.017,3.955
			c-2.889,0.896-6.009,1.328-9.392,1.328c-4.294,0-8.265-0.711-11.895-2.132c-3.646-1.39-6.843-3.491-9.608-6.24
			c-2.734-2.688-4.834-5.87-6.302-9.546c-1.468-3.677-2.209-7.569-2.209-11.709s0.741-8.032,2.209-11.647
			c1.468-3.646,3.599-6.858,6.38-9.607c2.78-2.78,5.978-4.882,9.577-6.303c3.614-1.421,7.507-2.132,11.693-2.132
			c3.306,0,6.441,0.494,9.438,1.452c2.981,0.958,5.886,2.41,8.697,4.356L80.377,412.286z"/>
		<path d="M91.453,398.569h9.005v34.262c0,5.098,1.174,8.928,3.507,11.492c2.348,2.564,5.839,3.831,10.488,3.831
			c4.619,0,8.11-1.267,10.442-3.831c2.348-2.564,3.506-6.395,3.506-11.492v-34.262h9.129v35.127c0,7.63-1.916,13.346-5.747,17.146
			s-9.608,5.685-17.332,5.685s-13.485-1.885-17.285-5.685c-3.815-3.769-5.715-9.484-5.715-17.146V398.569z"/>
		<path d="M150.259,455.012v-56.443h9.114v56.443H150.259z"/>
		<path d="M190.313,457.206l-25.04-58.637h9.469l12.574,30.06c0.741,1.762,1.359,3.368,1.838,4.851
			c0.495,1.483,0.881,2.873,1.159,4.232c0.324-1.421,0.757-2.873,1.267-4.418c0.51-1.514,1.112-3.059,1.792-4.665l12.543-30.06
			h9.422L190.313,457.206z"/>
		<path d="M229.563,429.772v25.24h-8.542v-56.443h12.729c3.723,0,6.627,0.247,8.681,0.711c2.054,0.494,3.815,1.297,5.267,2.44
			c1.746,1.359,3.09,3.12,4.032,5.283c0.942,2.162,1.421,4.541,1.421,7.105c0,4.511-1.097,8.063-3.26,10.627
			c-2.178,2.533-5.391,4.078-9.623,4.604l19.309,25.673h-10.303l-18.676-25.24H229.563z M230.15,422.635h1.638
			c4.835,0,8.048-0.587,9.624-1.699c1.591-1.143,2.378-3.151,2.378-6.024c0-3.12-0.849-5.313-2.548-6.58s-4.85-1.915-9.454-1.915
			h-1.638V422.635z"/>
		<path d="M265.138,455.012v-56.443h9.114v56.443H265.138z"/>
		<path d="M287.382,455.012v-58.698l35.651,34.539c0.958,0.958,1.946,2.008,2.935,3.12c1.02,1.082,2.039,2.349,3.151,3.738v-39.143
			h8.435v58.637L301.16,422.08c-0.958-0.958-1.884-1.946-2.812-2.997c-0.896-1.051-1.761-2.162-2.595-3.337v39.267H287.382z"/>
		<path d="M407.96,426.899c0,4.016-0.741,7.816-2.224,11.369c-1.514,3.583-3.677,6.766-6.55,9.577
			c-2.873,2.811-6.147,4.942-9.763,6.456c-3.646,1.483-7.445,2.225-11.431,2.225c-4.047,0-7.908-0.741-11.555-2.255
			c-3.676-1.514-6.92-3.646-9.73-6.426c-2.843-2.812-5.036-5.963-6.52-9.516c-1.482-3.553-2.224-7.353-2.224-11.431
			c0-4.017,0.741-7.848,2.224-11.4c1.483-3.583,3.677-6.796,6.52-9.607c2.873-2.812,6.116-4.943,9.73-6.396
			c3.646-1.482,7.477-2.224,11.555-2.224c4.047,0,7.848,0.741,11.492,2.224c3.615,1.452,6.828,3.584,9.701,6.396
			c2.873,2.842,5.036,6.055,6.55,9.67C407.219,419.144,407.96,422.914,407.96,426.899z M398.445,426.899
			c0-2.843-0.494-5.562-1.545-8.125c-1.02-2.564-2.502-4.851-4.449-6.858c-1.915-1.978-4.077-3.522-6.58-4.572
			c-2.502-1.082-5.128-1.606-7.878-1.606c-2.749,0-5.375,0.524-7.878,1.575c-2.502,1.051-4.727,2.595-6.642,4.604
			c-1.947,1.977-3.43,4.232-4.449,6.827c-1.02,2.564-1.545,5.283-1.545,8.156s0.525,5.561,1.545,8.094
			c1.02,2.564,2.502,4.819,4.449,6.828c1.915,2.008,4.14,3.553,6.611,4.603c2.471,1.051,5.128,1.576,7.908,1.576
			c2.719,0,5.345-0.525,7.785-1.576c2.472-1.05,4.696-2.595,6.673-4.603c1.947-2.009,3.43-4.264,4.449-6.828
			C397.951,432.429,398.445,429.741,398.445,426.899z"/>
		<path d="M410.617,455.012l18.228-29.534l-16.127-26.909h9.608l8.094,13.81c0.433,0.711,1.236,2.193,2.41,4.449
			c0.247,0.524,0.433,0.896,0.556,1.143c0.433-0.803,0.865-1.668,1.359-2.564c0.494-0.896,1.081-1.884,1.73-2.966l8.526-13.871
			h9.361l-16.405,26.754l17.672,29.689h-10.071l-9.393-16.003c-0.03-0.031-0.092-0.124-0.154-0.278
			c-1.02-1.915-1.977-3.738-2.842-5.438c-0.433,0.896-0.927,1.792-1.421,2.719c-0.525,0.958-1.051,1.916-1.638,2.873l-9.824,16.127
			H410.617z"/>
	</g>
</g>
</svg>
