<?xml version="1.0" encoding="utf-8"?>
<!-- Generator: Adobe Illustrator 21.0.2, SVG Export Plug-In . SVG Version: 6.00 Build 0)  -->
<svg version="1.1" id="Calque_1" xmlns="http://www.w3.org/2000/svg" xmlns:xlink="http://www.w3.org/1999/xlink" x="0px" y="0px"
	 viewBox="0 0 500 500" style="enable-background:new 0 0 500 500;" xml:space="preserve">
<style type="text/css">
	.st0{fill:#BBBDBE;}
	.st1{fill:#EFBC40;}
</style>
<rect x="32.9" y="31" class="st0" width="442.1" height="343.7"/>
<rect x="32.9" y="389.3" class="st0" width="442.1" height="86.3"/>
<rect x="25" y="24.4" class="st1" width="442.1" height="343.7"/>
<rect x="25" y="382.7" class="st1" width="442.1" height="86.3"/>
<path d="M80.4,412.3c-2.6-2.2-5.3-3.9-8.2-5s-5.9-1.7-9.1-1.7c-6.1,0-11.1,2-15,6c-3.8,4-5.8,9.1-5.8,15.4c0,6.1,1.9,11.1,5.6,15.1
	c3.7,4,8.5,5.9,14.2,5.9c3.3,0,6.5-0.6,9.5-1.8c3-1.2,5.9-3,8.7-5.4v10.4c-2.5,1.8-5.1,3.1-8,4s-6,1.3-9.4,1.3
	c-4.3,0-8.3-0.7-11.9-2.1c-3.6-1.4-6.8-3.5-9.6-6.2c-2.7-2.7-4.8-5.9-6.3-9.5c-1.5-3.7-2.2-7.6-2.2-11.7s0.7-8,2.2-11.6
	s3.6-6.9,6.4-9.6c2.8-2.8,6-4.9,9.6-6.3c3.6-1.4,7.5-2.1,11.7-2.1c3.3,0,6.4,0.5,9.4,1.5s5.9,2.4,8.7,4.4L80.4,412.3z"/>
<path d="M91.5,398.6h9v34.3c0,5.1,1.2,8.9,3.5,11.5s5.8,3.8,10.5,3.8c4.6,0,8.1-1.3,10.4-3.8c2.3-2.6,3.5-6.4,3.5-11.5v-34.3h9.1
	v35.1c0,7.6-1.9,13.3-5.7,17.1s-9.6,5.7-17.3,5.7s-13.5-1.9-17.3-5.7c-3.8-3.8-5.7-9.5-5.7-17.1V398.6L91.5,398.6z"/>
<path d="M150.3,455v-56.4h9.1V455H150.3z"/>
<path d="M190.3,457.2l-25-58.6h9.5l12.6,30.1c0.7,1.8,1.4,3.4,1.8,4.9c0.5,1.5,0.9,2.9,1.2,4.2c0.3-1.4,0.8-2.9,1.3-4.4
	s1.1-3.1,1.8-4.7l12.5-30.1h9.4L190.3,457.2z"/>
<path d="M229.6,429.8V455H221v-56.4h12.7c3.7,0,6.6,0.2,8.7,0.7c2.1,0.5,3.8,1.3,5.3,2.4c1.7,1.4,3.1,3.1,4,5.3
	c0.9,2.2,1.4,4.5,1.4,7.1c0,4.5-1.1,8.1-3.3,10.6s-5.4,4.1-9.6,4.6l19.3,25.7h-10.3l-18.7-25.2L229.6,429.8L229.6,429.8z
	 M230.1,422.6h1.6c4.8,0,8-0.6,9.6-1.7s2.4-3.2,2.4-6c0-3.1-0.8-5.3-2.5-6.6s-4.9-1.9-9.5-1.9h-1.6V422.6z"/>
<path d="M265.1,455v-56.4h9.1V455H265.1z"/>
<path d="M287.4,455v-58.7l35.7,34.5c1,1,1.9,2,2.9,3.1s2,2.3,3.2,3.7v-39.1h8.4v58.6L301.2,422c-1-1-1.9-1.9-2.8-3s-1.8-2.2-2.6-3.3
	V455H287.4L287.4,455z"/>
<path d="M408,426.9c0,4-0.7,7.8-2.2,11.4s-3.7,6.8-6.5,9.6s-6.1,4.9-9.8,6.5c-3.6,1.5-7.4,2.2-11.4,2.2s-7.9-0.7-11.6-2.3
	c-3.7-1.5-6.9-3.6-9.7-6.4c-2.8-2.8-5-6-6.5-9.5c-1.5-3.6-2.2-7.4-2.2-11.4s0.7-7.8,2.2-11.4s3.7-6.8,6.5-9.6
	c2.9-2.8,6.1-4.9,9.7-6.4s7.5-2.2,11.6-2.2c4,0,7.8,0.7,11.5,2.2c3.6,1.5,6.8,3.6,9.7,6.4c2.9,2.8,5,6.1,6.5,9.7
	C407.2,419.1,408,422.9,408,426.9z M398.4,426.9c0-2.8-0.5-5.6-1.5-8.1c-1-2.6-2.5-4.9-4.4-6.9s-4.1-3.5-6.6-4.6s-5.1-1.6-7.9-1.6
	c-2.7,0-5.4,0.5-7.9,1.6s-4.7,2.6-6.6,4.6s-3.4,4.2-4.4,6.8c-1,2.6-1.5,5.3-1.5,8.2s0.5,5.6,1.5,8.1c1,2.6,2.5,4.8,4.4,6.8
	s4.1,3.6,6.6,4.6c2.5,1.1,5.1,1.6,7.9,1.6c2.7,0,5.3-0.5,7.8-1.6c2.5-1,4.7-2.6,6.7-4.6c1.9-2,3.4-4.3,4.4-6.8
	C398,432.4,398.4,429.7,398.4,426.9z"/>
<path d="M410.6,455l18.2-29.5l-16.1-26.9h9.6l8.1,13.8c0.4,0.7,1.2,2.2,2.4,4.4c0.2,0.5,0.4,0.9,0.6,1.1c0.4-0.8,0.9-1.7,1.4-2.6
	s1.1-1.9,1.7-3l8.5-13.9h9.4L438,425.3l17.7,29.7h-10.1l-9.4-16c0,0-0.1-0.1-0.2-0.3c-1-1.9-2-3.7-2.8-5.4c-0.4,0.9-0.9,1.8-1.4,2.7
	c-0.5,1-1.1,1.9-1.6,2.9l-9.8,16.1L410.6,455L410.6,455z"/>
</svg>
