<svg xmlns="http://www.w3.org/2000/svg" viewBox="0 0 338 334" enable-background="new 0 0 338 334"><path fill="#84AAD1" d="M55.6 188.2c-8.7-6.9-16.1-14.5-21.9-22.8 21.8-6 45.1-17.9 61.7-31.7 2.6 7.4 7.1 13.9 12.9 19.2-12.3 14.4-29.9 26.2-52.7 35.3zM140.7 184.5h-2.7v11.5h2.3c3.8 0 6.9-1.6 6.9-5.8-.1-4.1-2.8-5.7-6.5-5.7zM125.1 192.2h5.2l-2.6-6.9-2.6 6.9zM112.9 184.5h-2.8v11.5h2.3c3.8 0 6.9-1.6 6.9-5.8 0-4.1-2.7-5.7-6.4-5.7z"/><path fill="#227BAD" d="M198.9 57c-10.8-8.4-24.1-12.9-38.5-13.1 12.8 6.6 22.9 16.9 29.4 29.8 4.2.8 14.3 3.2 28 8.6-4-10-10.5-18.8-18.9-25.3zM168.4 15.1c-82.8 0-150 46.7-150 104.3 0 15.2 4.7 29.7 13.1 42.7 26.3-10.5 47-22.9 61.7-36.8-.4-2.5-.6-5-.6-7.5 0-21.2 17.3-38.5 38.5-38.5 8.4 0 16.4 3.3 22.3 9.3 6 6 9.3 13.9 9.3 22.4 0 14.4-11.7 26.1-26.1 26.1-12 0-21.7-9.7-21.7-21.7 0-10 8.1-18.2 18.2-18.2 3.8 0 7 1.4 9.3 4 2.7 3.1 3.9 7.6 3.3 12.6-.1.4-.4.7-.8.8-.4 0-.8-.2-.9-.7-2.8-10.4-10.4-9.5-10.7-9.5h-.1c-5.3 0-10 5.1-10 10.9 0 7.5 6.1 13.6 13.6 13.6 9.9 0 18-8.1 18-18 0-6.3-2.4-12.2-6.9-16.6-4.4-4.4-10.3-6.9-16.6-6.9-16.7 0-30.4 13.6-30.4 30.4 0 21.5 17.5 39 39 39 27.4 0 49.7-22.3 49.7-49.7 0-36-27.1-63.2-63.1-63.2-.3 0-29.8.7-47.4 19.8-.2.2-18.7 20.7-18.7 52.8 0 .8-.5 1.4-1.2 1.4-.3 0-.6-.1-.9-.4-.4-.4-.4-.9-.4-1-1-24.6 5.2-44.2 18.3-58.4 20.1-21.7 49-22.3 50.2-22.4 6.3 0 12.4.7 18.4 2.2 8.5-2.1 14.6-2.2 14.8-2.2 16.7 0 32.1 5.1 44.5 14.8 11.6 9 19.9 21.5 24 35.9 18.6 8.4 37.6 17.4 64.6 44.5l1.2 1.2c.2.2.3.5.2.8l-.3 1.6c-.1.4-2.1 10.8-10 16.2-4.3 2.9-9.5 4.6-15.3 3.4-17.5-3.6-22.9 2.5-31.8 6.5l-1.9.8c-14.7 6.7-28.1 8.3-40.7 4.7-.4 1.3-.7 2.7-1.1 4.3-2.6 10.9-6.9 28.8-27.2 53.2h2.7c82.8 0 150-46.7 150-104.3-.1-57.5-67.3-104.2-150.1-104.2z"/><path fill="#84AAD1" d="M205 103.4c9.5-5.4 27.4.1 29.2 14.5-10.2-14.9-29.2-14.5-29.2-14.5zm-63.7 95.3h-8.3l-1.6-3.9h-7.4l-1.5 3.9h-3.4l1.3-2.9c-1.8 2-4.5 2.9-6.9 2.9h-6.3v-17h6.7c4.5 0 8.6 2.7 8.6 8.5 0 .3 0 .6-.1.9l4.1-9.4h2.6l5.8 13.6v-13.6h6.7c4.5 0 8.6 2.7 8.6 8.5.1 5.8-4.8 8.5-8.9 8.5zm52.3-115.7c2.6 7.6 3.9 15.7 3.9 24.1 0 26.8-18.9 50.4-44.9 56.4-1.3 4.1-3.1 8.3-5.4 12.4h-12c2.5-3.9 4.4-7.6 5.9-11h-1.4c-8 0-16-2.1-23-6-12.7 15.1-33.5 27.6-55 33.9 11.1 7.8 23.9 14.4 38 19.5 3.5-2.5 6.7-5.1 9.7-7.6h13.1c-4.5 3.7-9.3 7.2-14.3 10.4 15.4 4.7 32.2 7.7 49.8 8.5 22.1-25 26.2-46 28.4-57.5.5-2.4.9-4.5 1.4-6.2l1.1-3.1c.1-.2.2-.4.5-.5.2-.1.5-.1.7 0l3.1 1.2c14.4 5.6 28 .9 38.3-3.8l1.9-.9c10.5-4.7 16.2-10 36.8-5.8 3.6.7 7.2-.7 9.8-3 3.1-2.7 5.2-6.4 6-9-40.8-39.9-74.7-47.5-92.4-52z"/><path fill="#227BAD" d="M217.1 319.9v-71h30.4c6.9 0 12.1.3 15.7 1 5 .9 9.4 2.6 12.9 5.1 4.7 3.2 8.1 7.2 10.4 12.1 2.3 4.9 3.5 10.6 3.5 16.9 0 5.4-.8 10.2-2.3 14.3-1.6 4.2-3.6 7.6-6 10.3-2.5 2.7-5.1 4.9-8 6.4-2.9 1.6-6.4 2.8-10.5 3.6-4.1.8-8.8 1.2-14.2 1.2h-31.9v.1zm11.7-8.3h19.5c6 0 10.7-.4 14.1-1.3 3.4-.9 6.1-2.1 8.2-3.7 2.8-2.2 5.1-5.2 6.7-9 1.6-3.8 2.4-8.3 2.4-13.7 0-7.4-1.6-13.2-4.7-17.2s-6.9-6.7-11.4-8c-3.2-1-8.4-1.5-15.6-1.5h-19.1v54.4h-.1zM127.3 319.9l33.8-71h12.9l35.9 71h-11.4l-9.6-17.5h-42.6l-9.1 17.5h-9.9zm23.7-25.5h33.9l-11.4-23.4c-2.9-5.9-4.9-10.9-6.3-14.8-1.2 4.6-2.8 9.2-4.9 13.7l-11.3 24.5zM50.1 319.9v-71h30.4c6.9 0 12.1.3 15.7 1 5 .9 9.4 2.6 12.9 5.1 4.7 3.2 8.1 7.2 10.4 12.1 2.3 4.9 3.5 10.6 3.5 16.9 0 5.4-.8 10.2-2.3 14.3-1.6 4.2-3.6 7.6-6 10.3-2.5 2.7-5.1 4.9-8 6.4-2.9 1.6-6.4 2.8-10.5 3.6-4.1.8-8.8 1.2-14.2 1.2h-31.9v.1zm9.5-8.3h19.6c6.1 0 10.8-.4 14.3-1.3s6.2-2.1 8.2-3.7c2.9-2.2 5.1-5.2 6.7-9 1.6-3.8 2.4-8.3 2.4-13.7 0-7.4-1.6-13.2-4.7-17.2-3.2-4-7-6.7-11.5-8-3.3-1-8.5-1.5-15.7-1.5h-19.3v54.4z"/></svg>