<?xml version="1.0" encoding="utf-8"?>
<!-- Generator: Adobe Illustrator 19.1.0, SVG Export Plug-In . SVG Version: 6.00 Build 0)  -->
<svg version="1.1" id="Calque_1" xmlns="http://www.w3.org/2000/svg" xmlns:xlink="http://www.w3.org/1999/xlink" x="0px" y="0px"
	 viewBox="-80 84 338 334" style="enable-background:new -80 84 338 334;" xml:space="preserve">
<style type="text/css">
	.st0{fill:#84AAD1;}
	.st1{fill:#227BAD;}
</style>
<path class="st0" d="M-24.4,272.2c-8.7-6.9-16.1-14.5-21.9-22.8c21.8-6,45.1-17.9,61.7-31.7c2.6,7.4,7.1,13.9,12.9,19.2
	C16,251.3-1.6,263.1-24.4,272.2z M60.7,268.5H58V280h2.3c3.8,0,6.9-1.6,6.9-5.8C67.1,270.1,64.4,268.5,60.7,268.5z M45.1,276.2h5.2
	l-2.6-6.9C47.7,269.3,45.1,276.2,45.1,276.2z M32.9,268.5h-2.8V280h2.3c3.8,0,6.9-1.6,6.9-5.8C39.3,270.1,36.6,268.5,32.9,268.5z"/>
<path class="st1" d="M118.9,141c-10.8-8.4-24.1-12.9-38.5-13.1c12.8,6.6,22.9,16.9,29.4,29.8c4.2,0.8,14.3,3.2,28,8.6
	C133.8,156.3,127.3,147.5,118.9,141z M88.4,99.1c-82.8,0-150,46.7-150,104.3c0,15.2,4.7,29.7,13.1,42.7c26.3-10.5,47-22.9,61.7-36.8
	c-0.4-2.5-0.6-5-0.6-7.5c0-21.2,17.3-38.5,38.5-38.5c8.4,0,16.4,3.3,22.3,9.3c6,6,9.3,13.9,9.3,22.4c0,14.4-11.7,26.1-26.1,26.1
	c-12,0-21.7-9.7-21.7-21.7c0-10,8.1-18.2,18.2-18.2c3.8,0,7,1.4,9.3,4c2.7,3.1,3.9,7.6,3.3,12.6c-0.1,0.4-0.4,0.7-0.8,0.8
	c-0.4,0-0.8-0.2-0.9-0.7c-2.8-10.4-10.4-9.5-10.7-9.5h-0.1c-5.3,0-10,5.1-10,10.9c0,7.5,6.1,13.6,13.6,13.6c9.9,0,18-8.1,18-18
	c0-6.3-2.4-12.2-6.9-16.6c-4.4-4.4-10.3-6.9-16.6-6.9c-16.7,0-30.4,13.6-30.4,30.4c0,21.5,17.5,39,39,39c27.4,0,49.7-22.3,49.7-49.7
	c0-36-27.1-63.2-63.1-63.2c-0.3,0-29.8,0.7-47.4,19.8c-0.2,0.2-18.7,20.7-18.7,52.8c0,0.8-0.5,1.4-1.2,1.4c-0.3,0-0.6-0.1-0.9-0.4
	c-0.4-0.4-0.4-0.9-0.4-1c-1-24.6,5.2-44.2,18.3-58.4c20.1-21.7,49-22.3,50.2-22.4c6.3,0,12.4,0.7,18.4,2.2
	c8.5-2.1,14.6-2.2,14.8-2.2c16.7,0,32.1,5.1,44.5,14.8c11.6,9,19.9,21.5,24,35.9c18.6,8.4,37.6,17.4,64.6,44.5l1.2,1.2
	c0.2,0.2,0.3,0.5,0.2,0.8l-0.3,1.6c-0.1,0.4-2.1,10.8-10,16.2c-4.3,2.9-9.5,4.6-15.3,3.4c-17.5-3.6-22.9,2.5-31.8,6.5l-1.9,0.8
	c-14.7,6.7-28.1,8.3-40.7,4.7c-0.4,1.3-0.7,2.7-1.1,4.3c-2.6,10.9-6.9,28.8-27.2,53.2h2.7c82.8,0,150-46.7,150-104.3
	C238.4,145.8,171.2,99.1,88.4,99.1L88.4,99.1z"/>
<path class="st0" d="M125,187.4c9.5-5.4,27.4,0.1,29.2,14.5C144,187,125,187.4,125,187.4z M61.3,282.7H53l-1.6-3.9H44l-1.5,3.9h-3.4
	l1.3-2.9c-1.8,2-4.5,2.9-6.9,2.9h-6.3v-17h6.7c4.5,0,8.6,2.7,8.6,8.5c0,0.3,0,0.6-0.1,0.9l4.1-9.4h2.6l5.8,13.6v-13.6h6.7
	c4.5,0,8.6,2.7,8.6,8.5C70.3,280,65.4,282.7,61.3,282.7z M113.6,167c2.6,7.6,3.9,15.7,3.9,24.1c0,26.8-18.9,50.4-44.9,56.4
	c-1.3,4.1-3.1,8.3-5.4,12.4h-12c2.5-3.9,4.4-7.6,5.9-11h-1.4c-8,0-16-2.1-23-6C24,258,3.2,270.5-18.3,276.8
	c11.1,7.8,23.9,14.4,38,19.5c3.5-2.5,6.7-5.1,9.7-7.6h13.1c-4.5,3.7-9.3,7.2-14.3,10.4c15.4,4.7,32.2,7.7,49.8,8.5
	c22.1-25,26.2-46,28.4-57.5c0.5-2.4,0.9-4.5,1.4-6.2l1.1-3.1c0.1-0.2,0.2-0.4,0.5-0.5c0.2-0.1,0.5-0.1,0.7,0l3.1,1.2
	c14.4,5.6,28,0.9,38.3-3.8l1.9-0.9c10.5-4.7,16.2-10,36.8-5.8c3.6,0.7,7.2-0.7,9.8-3c3.1-2.7,5.2-6.4,6-9
	C165.2,179.1,131.3,171.5,113.6,167L113.6,167z"/>
<path class="st1" d="M137.1,403.9v-71h30.4c6.9,0,12.1,0.3,15.7,1c5,0.9,9.4,2.6,12.9,5.1c4.7,3.2,8.1,7.2,10.4,12.1
	s3.5,10.6,3.5,16.9c0,5.4-0.8,10.2-2.3,14.3c-1.6,4.2-3.6,7.6-6,10.3c-2.5,2.7-5.1,4.9-8,6.4c-2.9,1.6-6.4,2.8-10.5,3.6
	c-4.1,0.8-8.8,1.2-14.2,1.2h-31.9L137.1,403.9L137.1,403.9z M148.8,395.6h19.5c6,0,10.7-0.4,14.1-1.3s6.1-2.1,8.2-3.7
	c2.8-2.2,5.1-5.2,6.7-9s2.4-8.3,2.4-13.7c0-7.4-1.6-13.2-4.7-17.2s-6.9-6.7-11.4-8c-3.2-1-8.4-1.5-15.6-1.5h-19.1L148.8,395.6
	L148.8,395.6L148.8,395.6z M47.3,403.9l33.8-71H94l35.9,71h-11.4l-9.6-17.5H66.3l-9.1,17.5H47.3L47.3,403.9z M71,378.4h33.9
	L93.5,355c-2.9-5.9-4.9-10.9-6.3-14.8c-1.2,4.6-2.8,9.2-4.9,13.7L71,378.4L71,378.4z M-29.9,403.9v-71H0.5c6.9,0,12.1,0.3,15.7,1
	c5,0.9,9.4,2.6,12.9,5.1c4.7,3.2,8.1,7.2,10.4,12.1S43,361.7,43,368c0,5.4-0.8,10.2-2.3,14.3c-1.6,4.2-3.6,7.6-6,10.3
	c-2.5,2.7-5.1,4.9-8,6.4c-2.9,1.6-6.4,2.8-10.5,3.6c-4.1,0.8-8.8,1.2-14.2,1.2h-31.9V403.9z M-20.4,395.6h19.6
	c6.1,0,10.8-0.4,14.3-1.3s6.2-2.1,8.2-3.7c2.9-2.2,5.1-5.2,6.7-9s2.4-8.3,2.4-13.7c0-7.4-1.6-13.2-4.7-17.2c-3.2-4-7-6.7-11.5-8
	c-3.3-1-8.5-1.5-15.7-1.5h-19.3L-20.4,395.6L-20.4,395.6z"/>
</svg>
