<?xml version="1.0" encoding="utf-8"?>
<!-- Generator: Adobe Illustrator 21.0.2, SVG Export Plug-In . SVG Version: 6.00 Build 0)  -->
<svg version="1.1" id="Calque_2" xmlns="http://www.w3.org/2000/svg" xmlns:xlink="http://www.w3.org/1999/xlink" x="0px" y="0px"
	 viewBox="0 0 500 174" style="enable-background:new 0 0 500 174;" xml:space="preserve">
<style type="text/css">
	.st0{fill:#9C9E9F;}
	.st1{fill:#298364;}
	.st2{fill:#BFB1AA;}
	.st3{fill:#729439;}
</style>
<path class="st0" d="M98.6,15.4c39.5,0,71.6,32.1,71.6,71.6s-32.1,71.6-71.6,71.6S27,126.5,27,87S59.1,15.4,98.6,15.4 M98.6,13.4
	C57.9,13.4,25,46.4,25,87s32.9,73.6,73.6,73.6s73.6-32.9,73.6-73.6S139.2,13.4,98.6,13.4L98.6,13.4z"/>
<path class="st1" d="M126.1,85.1h38.7c-1.2-35.3-30.2-63.5-65.7-63.5S34.6,49.8,33.4,85.1H72V59.7h-4.5l31.6-24.2l11,8.5v-8h9.1v15
	l11.4,8.7h-4.5L126.1,85.1L126.1,85.1z"/>
<polygon class="st2" points="76.7,112 83.7,112 80.2,102.4 "/>
<path class="st2" d="M59.9,102.1c-1-0.3-2.2-0.5-3.7-0.5h-3.1v15.7h3.6c0.8,0,1.4,0,1.8-0.1c0.4,0,0.9-0.1,1.4-0.3
	c0.5-0.2,0.9-0.4,1.2-0.7c1.6-1.3,2.4-3.6,2.4-6.9c0-2.3-0.3-4-1-5.1S60.9,102.4,59.9,102.1z"/>
<path class="st2" d="M143.7,101.4h-3.2v7.1h3.2c1.1,0,2-0.1,2.8-0.3c0.7-0.2,1.3-0.6,1.7-1.1s0.6-1.2,0.6-2.1c0-1-0.3-1.9-0.9-2.5
	C147.2,101.7,145.8,101.4,143.7,101.4z"/>
<path class="st2" d="M33.3,90c1.4,35.1,30.3,63.2,65.7,63.2s64.4-28.1,65.7-63.2L33.3,90L33.3,90z M67.9,113.2
	c-0.2,1.1-0.6,2.2-1.1,3.1s-1.2,1.7-2,2.5c-0.6,0.6-1.3,1-2,1.3s-1.5,0.6-2.4,0.7s-1.8,0.2-2.9,0.2h-6.1c-0.9,0-1.5-0.1-1.9-0.4
	s-0.7-0.6-0.8-1.1s-0.2-1.1-0.2-1.8v-17c0-1,0.2-1.7,0.7-2.2s1.2-0.7,2.2-0.7h6.1c1.6,0,3,0.1,4.1,0.4s2.2,0.9,3.1,1.7
	c2.4,2.1,3.6,5.2,3.6,9.4C68.3,110.8,68.2,112.1,67.9,113.2z M90.4,120.8c-0.4,0.4-1,0.7-1.6,0.7c-0.4,0-0.7-0.1-1-0.2
	s-0.5-0.3-0.7-0.5s-0.4-0.6-0.6-1c-0.2-0.5-0.4-0.9-0.5-1.2l-1.1-2.9h-9.5l-1.1,3c-0.4,1.2-0.8,1.9-1.1,2.3
	c-0.3,0.4-0.8,0.6-1.5,0.6c-0.6,0-1.1-0.2-1.6-0.6s-0.7-0.9-0.7-1.5c0-0.3,0.1-0.6,0.2-1c0.1-0.3,0.3-0.8,0.5-1.4l5.9-15
	c0.2-0.4,0.4-1,0.6-1.6s0.5-1.1,0.8-1.5s0.6-0.7,1.1-1c0.4-0.2,1-0.4,1.6-0.4c0.7,0,1.2,0.1,1.6,0.4c0.4,0.2,0.8,0.6,1.1,1
	c0.3,0.4,0.5,0.8,0.7,1.3c0.2,0.4,0.4,1,0.7,1.8l6.1,14.9c0.5,1.1,0.7,2,0.7,2.5C91.1,119.8,90.9,120.3,90.4,120.8z M110.5,120.5
	c-0.4,0.4-1,0.5-1.8,0.5H97.3c-1,0-1.8-0.2-2.2-0.7c-0.4-0.5-0.7-1.2-0.7-2.2v-17.8c0-0.9,0.2-1.7,0.6-2.1c0.4-0.5,1-0.7,1.7-0.7
	s1.3,0.2,1.7,0.7c0.4,0.5,0.7,1.2,0.7,2.1v16.9h9.5c0.8,0,1.3,0.2,1.8,0.6c0.4,0.4,0.6,0.8,0.6,1.4
	C111.1,119.7,110.9,120.2,110.5,120.5z M131.5,120.5c-0.4,0.3-0.9,0.5-1.7,0.5H117c-1,0-1.8-0.2-2.2-0.7s-0.7-1.2-0.7-2.2v-17.4
	c0-0.7,0.1-1.2,0.3-1.7c0.2-0.4,0.5-0.7,0.9-0.9c0.4-0.2,1-0.3,1.6-0.3h12.4c0.8,0,1.3,0.2,1.7,0.5s0.5,0.8,0.5,1.3s-0.2,1-0.5,1.3
	c-0.4,0.3-0.9,0.5-1.7,0.5h-10.6v5.7h9.8c0.7,0,1.3,0.2,1.6,0.5c0.4,0.3,0.5,0.7,0.5,1.3c0,0.5-0.2,1-0.5,1.3s-0.9,0.5-1.6,0.5h-9.8
	v6.6h11c0.7,0,1.3,0.2,1.7,0.5s0.6,0.8,0.6,1.4C132.1,119.7,131.9,120.2,131.5,120.5z M151.4,110.2c-1.5,1.2-3.6,1.8-6.5,1.8h-4.3
	v6.6c0,0.9-0.2,1.7-0.7,2.1s-1,0.7-1.7,0.7s-1.3-0.2-1.7-0.7s-0.7-1.2-0.7-2.1v-17.9c0-1,0.2-1.8,0.7-2.2c0.5-0.4,1.2-0.7,2.3-0.7h6
	c1.8,0,3.2,0.1,4.1,0.4c1,0.3,1.8,0.7,2.5,1.3c0.7,0.6,1.2,1.4,1.6,2.2c0.4,0.9,0.5,1.9,0.5,3C153.6,107.2,152.8,109,151.4,110.2z"
	/>
<path class="st3" d="M125.6,84.7h38.7c-1.2-35.3-30.2-63.5-65.7-63.5S34,49.4,32.8,84.7h38.6V59.3h-4.5l31.6-24.2l11,8.5v-8h9.1v15
	l11.4,8.7h-4.5v25.4H125.6z"/>
<path d="M205.6,49h15.3c4,0,7.4,0.4,10.3,1.1c2.8,0.7,5.4,2.1,7.8,4.1c6,5.2,9.1,13,9.1,23.5c0,3.5-0.3,6.6-0.9,9.5
	c-0.6,2.9-1.5,5.4-2.8,7.7c-1.3,2.3-2.9,4.4-4.9,6.2c-1.6,1.4-3.3,2.5-5.1,3.4c-1.8,0.8-3.8,1.4-6,1.8c-2.1,0.3-4.5,0.5-7.2,0.5
	h-15.3c-2.1,0-3.7-0.3-4.8-1c-1.1-0.6-1.8-1.6-2.1-2.7c-0.3-1.2-0.5-2.7-0.5-4.6V56.1c0-2.5,0.6-4.4,1.7-5.5
	C201.2,49.6,203,49,205.6,49z M210.1,58.3v39.2h8.9c2,0,3.5-0.1,4.6-0.2s2.3-0.4,3.4-0.8c1.2-0.4,2.2-1,3.1-1.8
	c3.9-3.3,5.9-9,5.9-17.1c0-5.7-0.9-10-2.6-12.8c-1.7-2.8-3.9-4.6-6.4-5.4c-2.5-0.8-5.6-1.2-9.2-1.2L210.1,58.3L210.1,58.3z"/>
<path d="M292.3,100.3l-2.8-7.3h-23.6l-2.8,7.4c-1.1,2.9-2,4.8-2.8,5.9s-2,1.5-3.8,1.5c-1.5,0-2.8-0.5-3.9-1.6
	c-1.1-1.1-1.7-2.3-1.7-3.7c0-0.8,0.1-1.6,0.4-2.4c0.3-0.8,0.7-2,1.3-3.5l14.8-37.5c0.4-1.1,0.9-2.4,1.5-3.9s1.2-2.8,1.9-3.8
	c0.7-1,1.6-1.8,2.7-2.4c1.1-0.6,2.4-0.9,4.1-0.9c1.6,0,3,0.3,4.1,0.9s2,1.4,2.7,2.4s1.2,2,1.7,3.1s1,2.6,1.8,4.5l15.2,37.3
	c1.2,2.8,1.8,4.9,1.8,6.2c0,1.3-0.6,2.6-1.7,3.7s-2.5,1.7-4.1,1.7c-0.9,0-1.7-0.2-2.4-0.5c-0.7-0.3-1.2-0.8-1.7-1.3
	c-0.4-0.6-0.9-1.4-1.4-2.6C293.1,102.2,292.7,101.2,292.3,100.3z M269,84.2h17.3l-8.7-23.9L269,84.2z"/>
<path d="M325,55.1v42.1h23.8c1.9,0,3.4,0.5,4.4,1.4s1.5,2.1,1.5,3.5s-0.5,2.6-1.5,3.5s-2.5,1.3-4.4,1.3h-28.4
	c-2.6,0-4.4-0.6-5.5-1.7s-1.7-3-1.7-5.5V55.2c0-2.4,0.5-4.1,1.6-5.3s2.5-1.8,4.2-1.8c1.8,0,3.2,0.6,4.3,1.8
	C324.4,51,325,52.8,325,55.1z"/>
<path d="M400.7,58.1h-26.5v14.2h24.4c1.8,0,3.1,0.4,4,1.2s1.3,1.9,1.3,3.2s-0.4,2.4-1.3,3.2s-2.2,1.2-4,1.2h-24.4v16.4h27.4
	c1.8,0,3.2,0.4,4.2,1.3c0.9,0.9,1.4,2,1.4,3.4s-0.5,2.5-1.4,3.3c-0.9,0.9-2.3,1.3-4.2,1.3h-31.9c-2.6,0-4.4-0.6-5.5-1.7
	s-1.7-3-1.7-5.5V56.1c0-1.7,0.2-3.1,0.8-4.1c0.5-1.1,1.3-1.8,2.4-2.3s2.4-0.7,4.1-0.7h31c1.9,0,3.3,0.4,4.2,1.2
	c0.9,0.8,1.4,1.9,1.4,3.3c0,1.4-0.5,2.5-1.4,3.3C403.9,57.7,402.5,58.1,400.7,58.1z"/>
<path d="M439,84.3h-10.8v16.4c0,2.3-0.6,4.1-1.7,5.3c-1.1,1.2-2.5,1.8-4.2,1.8c-1.8,0-3.2-0.6-4.3-1.8c-1.1-1.2-1.6-3-1.6-5.3V56.1
	c0-2.6,0.6-4.4,1.8-5.5c1.2-1.1,3.1-1.7,5.7-1.7H439c4.5,0,7.9,0.3,10.3,1s4.4,1.7,6.2,3.3c1.7,1.5,3,3.4,3.9,5.6
	c0.9,2.2,1.3,4.7,1.3,7.5c0,5.9-1.8,10.4-5.5,13.4C451.6,82.8,446.2,84.3,439,84.3z M436.2,57.8h-7.9v17.7h7.9
	c2.8,0,5.1-0.3,6.9-0.9c1.9-0.6,3.3-1.5,4.3-2.8s1.5-3,1.5-5.2c0-2.6-0.8-4.6-2.3-6.2C444.9,58.7,441.4,57.8,436.2,57.8z"/>
<polygon points="76.2,111.6 83.2,111.6 79.7,102 "/>
<path d="M59.4,101.6c-1-0.3-2.2-0.5-3.7-0.5h-3.1v15.7h3.6c0.8,0,1.4,0,1.8-0.1c0.4,0,0.9-0.1,1.4-0.3c0.5-0.2,0.9-0.4,1.2-0.7
	c1.6-1.3,2.4-3.6,2.4-6.9c0-2.3-0.3-4-1-5.1C61.3,102.7,60.4,102,59.4,101.6z"/>
<path d="M143.2,101H140v7.1h3.2c1.1,0,2-0.1,2.8-0.3c0.7-0.2,1.3-0.6,1.7-1.1s0.6-1.2,0.6-2.1c0-1-0.3-1.9-0.9-2.5
	C146.7,101.3,145.3,101,143.2,101z"/>
<path d="M32.8,89.6c1.4,35.1,30.3,63.2,65.7,63.2s64.4-28.1,65.7-63.2L32.8,89.6L32.8,89.6z M67.4,112.8c-0.2,1.1-0.6,2.2-1.1,3.1
	s-1.2,1.7-2,2.5c-0.6,0.6-1.3,1-2,1.3s-1.5,0.6-2.4,0.7s-1.8,0.2-2.9,0.2h-6.1c-0.9,0-1.5-0.1-1.9-0.4s-0.7-0.6-0.8-1.1
	S48,118,48,117.3v-17c0-1,0.2-1.7,0.7-2.2s1.2-0.7,2.2-0.7H57c1.6,0,3,0.1,4.1,0.4s2.2,0.9,3.1,1.7c2.4,2.1,3.6,5.2,3.6,9.4
	C67.8,110.4,67.7,111.6,67.4,112.8z M89.9,120.4c-0.4,0.4-1,0.7-1.6,0.7c-0.4,0-0.7-0.1-1-0.2s-0.5-0.3-0.7-0.5s-0.4-0.6-0.6-1
	s-0.4-0.9-0.5-1.2l-1.1-2.9H75l-1.1,3c-0.4,1.2-0.8,1.9-1.1,2.3c-0.3,0.4-0.8,0.6-1.5,0.6c-0.6,0-1.1-0.2-1.6-0.6s-0.7-0.9-0.7-1.5
	c0-0.3,0.1-0.6,0.2-1c0.1-0.3,0.3-0.8,0.5-1.4l5.9-15c0.2-0.4,0.4-1,0.6-1.6s0.5-1.1,0.8-1.5s0.6-0.7,1.1-1c0.4-0.2,1-0.4,1.6-0.4
	c0.7,0,1.2,0.1,1.6,0.4c0.4,0.2,0.8,0.6,1.1,1c0.3,0.4,0.5,0.8,0.7,1.3c0.2,0.4,0.4,1,0.7,1.8l6.1,14.9c0.5,1.1,0.7,2,0.7,2.5
	C90.6,119.4,90.4,119.9,89.9,120.4z M110,120.1c-0.4,0.4-1,0.5-1.8,0.5H96.8c-1,0-1.8-0.2-2.2-0.7c-0.4-0.5-0.7-1.2-0.7-2.2V99.9
	c0-0.9,0.2-1.7,0.6-2.1c0.4-0.5,1-0.7,1.7-0.7s1.3,0.2,1.7,0.7c0.4,0.5,0.7,1.2,0.7,2.1v16.9h9.5c0.8,0,1.3,0.2,1.8,0.6
	c0.4,0.4,0.6,0.8,0.6,1.4C110.6,119.3,110.4,119.7,110,120.1z M131,120.1c-0.4,0.3-0.9,0.5-1.7,0.5h-12.8c-1,0-1.8-0.2-2.2-0.7
	c-0.4-0.5-0.7-1.2-0.7-2.2v-17.4c0-0.7,0.1-1.2,0.3-1.7c0.2-0.4,0.5-0.7,0.9-0.9c0.4-0.2,1-0.3,1.6-0.3H129c0.8,0,1.3,0.2,1.7,0.5
	s0.5,0.8,0.5,1.3s-0.2,1-0.5,1.3c-0.4,0.3-0.9,0.5-1.7,0.5h-10.6v5.7h9.8c0.7,0,1.3,0.2,1.6,0.5c0.4,0.3,0.5,0.7,0.5,1.3
	c0,0.5-0.2,1-0.5,1.3s-0.9,0.5-1.6,0.5h-9.8v6.6h11c0.7,0,1.3,0.2,1.7,0.5s0.6,0.8,0.6,1.4C131.6,119.3,131.4,119.8,131,120.1z
	 M150.9,109.8c-1.5,1.2-3.6,1.8-6.5,1.8H140v6.6c0,0.9-0.2,1.6-0.7,2.1c-0.4,0.5-1,0.7-1.7,0.7s-1.3-0.2-1.7-0.7s-0.6-1.2-0.6-2.1
	v-17.9c0-1,0.2-1.8,0.7-2.2s1.2-0.7,2.3-0.7h6c1.8,0,3.2,0.1,4.1,0.4c1,0.3,1.8,0.7,2.5,1.3c0.7,0.6,1.2,1.4,1.6,2.2
	c0.4,0.9,0.5,1.9,0.5,3C153.1,106.8,152.3,108.6,150.9,109.8z"/>
<path d="M206.2,120H204l-1.3,7.3c-0.1,0.4-0.2,0.7-0.4,0.9c-0.2,0.2-0.5,0.3-0.8,0.3s-0.5-0.1-0.7-0.3c-0.2-0.2-0.2-0.5-0.1-0.9
	l1.3-7.3h-2.2c-0.3,0-0.6-0.1-0.7-0.2s-0.2-0.4-0.1-0.6c0-0.3,0.2-0.5,0.4-0.6s0.5-0.2,0.8-0.2h6.5c0.4,0,0.6,0.1,0.7,0.2
	c0.1,0.2,0.2,0.4,0.1,0.6c0,0.3-0.2,0.5-0.4,0.6C206.8,120,206.5,120,206.2,120z"/>
<path d="M211.2,124.1h-0.7l-0.6,3.2c-0.1,0.4-0.2,0.7-0.4,0.9s-0.5,0.3-0.8,0.3s-0.6-0.1-0.7-0.3c-0.1-0.2-0.2-0.5-0.1-0.9l1.4-7.7
	c0.1-0.4,0.2-0.8,0.5-1c0.2-0.2,0.6-0.3,1-0.3h3.3c0.5,0,0.8,0,1.2,0.1c0.3,0,0.6,0.1,0.8,0.2c0.3,0.1,0.5,0.3,0.7,0.6
	c0.2,0.2,0.3,0.5,0.4,0.9c0.1,0.3,0.1,0.7,0,1c-0.1,0.7-0.4,1.3-1,1.8c-0.5,0.4-1.2,0.8-2.1,1c0.3,0.2,0.6,0.5,0.9,0.9
	c0.3,0.4,0.5,0.8,0.7,1.2c0.2,0.4,0.3,0.8,0.4,1.1c0.1,0.3,0.1,0.6,0.1,0.7s-0.1,0.3-0.2,0.4c-0.1,0.1-0.2,0.2-0.4,0.3
	c-0.2,0.1-0.3,0.1-0.5,0.1s-0.4-0.1-0.5-0.2s-0.2-0.2-0.3-0.4c-0.1-0.2-0.2-0.4-0.3-0.7l-0.6-1.4c-0.2-0.5-0.4-0.9-0.6-1.1
	c-0.2-0.3-0.4-0.4-0.6-0.5C211.8,124.2,211.5,124.1,211.2,124.1z M213.1,119.9h-1.9l-0.5,2.8h1.8c0.5,0,0.9,0,1.3-0.1
	c0.3-0.1,0.6-0.2,0.8-0.4c0.2-0.2,0.3-0.5,0.4-0.8c0-0.3,0-0.5-0.1-0.7s-0.3-0.4-0.5-0.5C214.2,119.9,213.8,119.9,213.1,119.9z"/>
<path d="M225.1,127.3l-0.3-1.3h-4.1l-0.7,1.3c-0.3,0.5-0.5,0.8-0.7,1s-0.4,0.3-0.7,0.3s-0.5-0.1-0.6-0.3c-0.2-0.2-0.2-0.4-0.2-0.6
	c0-0.1,0.1-0.3,0.1-0.4c0.1-0.1,0.2-0.4,0.3-0.6l3.7-6.5c0.1-0.2,0.2-0.4,0.4-0.7c0.1-0.3,0.3-0.5,0.4-0.7c0.1-0.2,0.3-0.3,0.5-0.4
	s0.5-0.2,0.7-0.2c0.3,0,0.5,0.1,0.7,0.2s0.3,0.2,0.4,0.4c0.1,0.2,0.2,0.4,0.2,0.5c0,0.2,0.1,0.5,0.2,0.8l1.5,6.5
	c0.1,0.5,0.2,0.9,0.1,1.1c0,0.2-0.2,0.4-0.4,0.6s-0.5,0.3-0.8,0.3c-0.2,0-0.3,0-0.4-0.1c-0.1-0.1-0.2-0.1-0.2-0.2
	c-0.1-0.1-0.1-0.2-0.2-0.5C225.2,127.6,225.1,127.4,225.1,127.3z M221.6,124.5h3l-0.8-4.1L221.6,124.5z"/>
<path d="M229.5,127.3l1.4-7.9c0.1-0.4,0.2-0.7,0.4-0.9c0.2-0.2,0.5-0.3,0.8-0.3s0.5,0.1,0.7,0.3c0.2,0.2,0.2,0.5,0.1,0.9l-1.4,7.9
	c-0.1,0.4-0.2,0.7-0.4,0.9c-0.2,0.2-0.5,0.3-0.8,0.3s-0.5-0.1-0.7-0.3C229.5,128.1,229.5,127.7,229.5,127.3z"/>
<path d="M242.4,120h-2.2l-1.3,7.3c-0.1,0.4-0.2,0.7-0.4,0.9c-0.2,0.2-0.5,0.3-0.8,0.3s-0.5-0.1-0.7-0.3c-0.2-0.2-0.2-0.5-0.1-0.9
	l1.3-7.3H236c-0.3,0-0.6-0.1-0.7-0.2s-0.2-0.4-0.1-0.6c0-0.3,0.2-0.5,0.4-0.6s0.5-0.2,0.8-0.2h6.5c0.4,0,0.6,0.1,0.7,0.2
	c0.1,0.2,0.2,0.4,0.1,0.6c0,0.3-0.2,0.5-0.4,0.6C243,120,242.7,120,242.4,120z"/>
<path d="M251.9,119.9h-4.6l-0.4,2.5h4.2c0.3,0,0.5,0.1,0.7,0.2c0.1,0.1,0.2,0.3,0.1,0.6c0,0.2-0.1,0.4-0.3,0.6
	c-0.2,0.1-0.4,0.2-0.7,0.2h-4.2l-0.5,2.9h4.7c0.3,0,0.5,0.1,0.7,0.2c0.1,0.1,0.2,0.3,0.1,0.6c0,0.2-0.2,0.4-0.3,0.6
	c-0.2,0.1-0.4,0.2-0.8,0.2h-5.5c-0.4,0-0.7-0.1-0.9-0.3c-0.2-0.2-0.2-0.5-0.1-1l1.3-7.6c0.1-0.3,0.1-0.5,0.3-0.7
	c0.1-0.2,0.3-0.3,0.5-0.4s0.4-0.1,0.7-0.1h5.4c0.3,0,0.6,0.1,0.7,0.2c0.1,0.1,0.2,0.3,0.1,0.6c0,0.2-0.2,0.4-0.3,0.6
	C252.5,119.9,252.3,119.9,251.9,119.9z"/>
<path d="M257.6,126.9l-0.5-6.4l-1.2,6.9c-0.1,0.4-0.2,0.7-0.4,0.9c-0.2,0.2-0.5,0.3-0.7,0.3c-0.3,0-0.5-0.1-0.6-0.3
	c-0.1-0.2-0.2-0.5-0.1-0.9l1.4-8c0.1-0.4,0.2-0.7,0.5-0.9c0.3-0.2,0.6-0.2,1-0.2h0.6c0.4,0,0.6,0,0.8,0.1c0.2,0.1,0.3,0.2,0.3,0.4
	c0.1,0.2,0.1,0.5,0.1,0.9l0.5,5.5l2.4-5.5c0.2-0.4,0.3-0.7,0.4-0.9c0.1-0.2,0.3-0.3,0.4-0.4c0.2-0.1,0.5-0.1,0.8-0.1h0.6
	c0.4,0,0.7,0.1,0.9,0.2c0.2,0.2,0.3,0.4,0.2,0.9l-1.4,8c-0.1,0.4-0.2,0.7-0.4,0.9c-0.2,0.2-0.5,0.3-0.7,0.3c-0.3,0-0.5-0.1-0.6-0.3
	c-0.1-0.2-0.2-0.5-0.1-0.9l1.2-6.9l-2.7,6.4c-0.2,0.4-0.3,0.7-0.4,0.9c-0.1,0.2-0.3,0.4-0.5,0.5c-0.2,0.2-0.5,0.2-0.8,0.2
	c-0.2,0-0.4-0.1-0.6-0.2c-0.1-0.1-0.3-0.2-0.3-0.4c-0.1-0.2-0.1-0.3-0.1-0.5C257.6,127.3,257.6,127.1,257.6,126.9z"/>
<path d="M274.4,119.9h-4.6l-0.4,2.5h4.2c0.3,0,0.5,0.1,0.7,0.2c0.1,0.1,0.2,0.3,0.1,0.6c0,0.2-0.1,0.4-0.3,0.6
	c-0.2,0.1-0.4,0.2-0.7,0.2h-4.2l-0.5,2.9h4.7c0.3,0,0.5,0.1,0.7,0.2c0.1,0.1,0.2,0.3,0.1,0.6c0,0.2-0.2,0.4-0.3,0.6
	c-0.2,0.1-0.4,0.2-0.8,0.2h-5.5c-0.4,0-0.7-0.1-0.9-0.3c-0.2-0.2-0.2-0.5-0.1-1l1.3-7.6c0.1-0.3,0.1-0.5,0.3-0.7
	c0.1-0.2,0.3-0.3,0.5-0.4s0.4-0.1,0.7-0.1h5.4c0.3,0,0.6,0.1,0.7,0.2s0.2,0.3,0.1,0.6c0,0.2-0.2,0.4-0.3,0.6
	C275,119.9,274.7,119.9,274.4,119.9z"/>
<path d="M280.6,119.4l2.9,5.9l1.1-6c0.1-0.4,0.2-0.7,0.4-0.9c0.2-0.2,0.4-0.3,0.7-0.3c0.3,0,0.5,0.1,0.6,0.3
	c0.1,0.2,0.2,0.5,0.1,0.9l-1.4,7.9c-0.2,0.9-0.6,1.3-1.3,1.3c-0.2,0-0.3,0-0.5-0.1c-0.1-0.1-0.3-0.1-0.4-0.2s-0.2-0.2-0.3-0.4
	s-0.2-0.3-0.2-0.5l-2.8-5.9l-1,5.9c-0.1,0.4-0.2,0.7-0.4,0.9c-0.2,0.2-0.5,0.3-0.7,0.3c-0.3,0-0.5-0.1-0.6-0.3
	c-0.1-0.2-0.2-0.5-0.1-0.9l1.4-7.8c0.1-0.3,0.1-0.6,0.2-0.8c0.1-0.2,0.3-0.4,0.5-0.5s0.5-0.2,0.7-0.2s0.3,0,0.5,0.1
	c0.1,0.1,0.2,0.1,0.3,0.2c0.1,0.1,0.2,0.2,0.2,0.4C280.4,119.1,280.5,119.2,280.6,119.4z"/>
<path d="M295.7,120h-2.2l-1.3,7.3c-0.1,0.4-0.2,0.7-0.4,0.9c-0.2,0.2-0.5,0.3-0.8,0.3s-0.5-0.1-0.7-0.3c-0.2-0.2-0.2-0.5-0.1-0.9
	l1.3-7.3h-2.2c-0.3,0-0.6-0.1-0.7-0.2c-0.1-0.2-0.2-0.4-0.1-0.6c0-0.3,0.2-0.5,0.4-0.6c0.2-0.1,0.5-0.2,0.8-0.2h6.5
	c0.4,0,0.6,0.1,0.7,0.2c0.1,0.2,0.2,0.4,0.1,0.6c0,0.3-0.2,0.5-0.4,0.6C296.3,120,296.1,120,295.7,120z"/>
<path d="M305.4,125.4c-0.1,0.6-0.4,1.2-0.8,1.6c-0.4,0.5-0.9,0.9-1.6,1.1s-1.4,0.4-2.2,0.4c-1,0-1.8-0.2-2.4-0.6
	c-0.4-0.3-0.7-0.6-0.9-1.1c-0.2-0.4-0.3-0.9-0.2-1.3c0-0.2,0.2-0.5,0.4-0.6c0.2-0.2,0.4-0.3,0.7-0.3c0.2,0,0.4,0.1,0.5,0.2
	s0.2,0.3,0.3,0.6c0.1,0.3,0.2,0.6,0.3,0.8c0.1,0.2,0.3,0.4,0.5,0.5s0.6,0.2,1,0.2c0.6,0,1.1-0.1,1.5-0.4s0.7-0.6,0.8-1.1
	c0.1-0.3,0-0.6-0.2-0.8c-0.2-0.2-0.4-0.4-0.7-0.5c-0.3-0.1-0.7-0.2-1.2-0.4c-0.7-0.2-1.3-0.4-1.7-0.6c-0.4-0.2-0.8-0.5-1-0.9
	s-0.3-0.9-0.2-1.5c0.1-0.6,0.3-1,0.7-1.5c0.4-0.4,0.9-0.8,1.5-1s1.3-0.3,2.1-0.3c0.6,0,1.1,0.1,1.6,0.2c0.4,0.2,0.8,0.4,1,0.6
	c0.3,0.3,0.4,0.5,0.5,0.8s0.1,0.5,0.1,0.8c0,0.2-0.2,0.5-0.4,0.7c-0.2,0.2-0.4,0.3-0.7,0.3c-0.2,0-0.4-0.1-0.5-0.2s-0.2-0.3-0.3-0.6
	c-0.1-0.4-0.3-0.7-0.5-0.9c-0.2-0.2-0.6-0.3-1.2-0.3c-0.5,0-1,0.1-1.3,0.3c-0.4,0.2-0.6,0.5-0.6,0.8c0,0.2,0,0.4,0.1,0.5
	s0.2,0.3,0.4,0.4c0.2,0.1,0.4,0.2,0.5,0.2c0.2,0.1,0.5,0.1,0.9,0.3c0.5,0.1,1,0.3,1.5,0.4c0.4,0.2,0.8,0.4,1.1,0.6
	c0.3,0.2,0.5,0.5,0.6,0.9C305.4,124.4,305.4,124.9,305.4,125.4z"/>
<path d="M316.1,124.5h-1.9l-0.5,2.8c-0.1,0.4-0.2,0.7-0.5,0.9c-0.2,0.2-0.5,0.3-0.8,0.3s-0.5-0.1-0.7-0.3c-0.1-0.2-0.2-0.5-0.1-0.9
	l1.4-7.7c0.1-0.4,0.2-0.8,0.5-1c0.2-0.2,0.6-0.3,1-0.3h2.6c0.8,0,1.4,0.1,1.8,0.2s0.7,0.3,1,0.6c0.3,0.3,0.4,0.6,0.5,1
	s0.1,0.8,0,1.3c-0.2,1-0.6,1.8-1.4,2.3C318.3,124.2,317.3,124.5,316.1,124.5z M316.4,119.9H315l-0.5,3.1h1.4c0.5,0,0.9-0.1,1.2-0.1
	c0.3-0.1,0.6-0.3,0.8-0.5c0.2-0.2,0.3-0.5,0.4-0.9s0-0.8-0.2-1.1C317.9,120,317.3,119.9,316.4,119.9z"/>
<path d="M327.8,118.2c1,0,1.9,0.2,2.6,0.6s1.1,1,1.4,1.8c0.2,0.8,0.3,1.7,0.1,2.7c-0.1,0.8-0.4,1.5-0.7,2.1s-0.7,1.2-1.2,1.7
	s-1.1,0.8-1.7,1.1c-0.7,0.2-1.4,0.4-2.2,0.4c-0.8,0-1.5-0.1-2-0.4c-0.6-0.3-1-0.6-1.4-1.1c-0.3-0.5-0.6-1-0.6-1.7
	c-0.1-0.6-0.1-1.4,0.1-2.1c0.1-0.8,0.4-1.5,0.7-2.1c0.3-0.6,0.8-1.2,1.3-1.6c0.5-0.5,1.1-0.8,1.7-1
	C326.3,118.3,327,118.2,327.8,118.2z M329.7,123.3c0.1-0.7,0.1-1.4,0-1.9s-0.4-0.9-0.8-1.2c-0.4-0.3-0.9-0.4-1.4-0.4
	c-0.4,0-0.8,0.1-1.2,0.2c-0.4,0.2-0.7,0.4-1,0.7c-0.3,0.3-0.6,0.7-0.8,1.1c-0.2,0.5-0.4,1-0.5,1.5c-0.1,0.6-0.1,1.1-0.1,1.5
	s0.2,0.8,0.4,1.1c0.2,0.3,0.5,0.5,0.8,0.7s0.7,0.2,1.1,0.2c0.5,0,1-0.1,1.5-0.4s0.9-0.7,1.3-1.2
	C329.3,124.8,329.6,124.1,329.7,123.3z"/>
<path d="M334.1,124.2l0.9-4.8c0.1-0.4,0.2-0.7,0.4-0.9c0.2-0.2,0.5-0.3,0.8-0.3s0.5,0.1,0.7,0.3c0.1,0.2,0.2,0.5,0.1,0.9l-0.9,4.9
	c-0.1,0.6-0.1,1-0.1,1.4c0.1,0.4,0.2,0.7,0.5,0.9c0.3,0.2,0.7,0.3,1.3,0.3c0.8,0,1.4-0.2,1.8-0.6s0.7-1.1,0.8-1.9l0.9-5
	c0.1-0.4,0.2-0.7,0.4-0.9c0.2-0.2,0.5-0.3,0.8-0.3s0.5,0.1,0.7,0.3c0.2,0.2,0.2,0.5,0.1,0.9l-0.9,4.8c-0.1,0.8-0.3,1.4-0.6,2
	c-0.2,0.5-0.6,1-1.1,1.4c-0.4,0.3-0.9,0.6-1.4,0.7c-0.5,0.2-1.1,0.2-1.7,0.2c-0.8,0-1.4-0.1-2-0.2c-0.5-0.2-0.9-0.4-1.2-0.8
	c-0.3-0.3-0.5-0.8-0.5-1.3C333.9,125.7,334,125,334.1,124.2z"/>
<path d="M348.2,124.1h-0.7l-0.6,3.2c-0.1,0.4-0.2,0.7-0.4,0.9c-0.2,0.2-0.5,0.3-0.8,0.3s-0.6-0.1-0.7-0.3c-0.1-0.2-0.2-0.5-0.1-0.9
	l1.4-7.7c0.1-0.4,0.2-0.8,0.5-1c0.2-0.2,0.6-0.3,1-0.3h3.3c0.5,0,0.8,0,1.2,0.1c0.3,0,0.6,0.1,0.8,0.2c0.3,0.1,0.5,0.3,0.7,0.6
	c0.2,0.2,0.3,0.5,0.4,0.9c0.1,0.3,0.1,0.7,0,1c-0.1,0.7-0.4,1.3-1,1.8c-0.5,0.4-1.2,0.8-2.1,1c0.3,0.2,0.6,0.5,0.9,0.9
	s0.5,0.8,0.7,1.2c0.2,0.4,0.3,0.8,0.4,1.1c0.1,0.3,0.1,0.6,0.1,0.7s-0.1,0.3-0.2,0.4s-0.2,0.2-0.4,0.3c-0.2,0.1-0.3,0.1-0.5,0.1
	s-0.4-0.1-0.5-0.2s-0.2-0.2-0.3-0.4c-0.1-0.2-0.2-0.4-0.3-0.7l-0.6-1.4c-0.2-0.5-0.4-0.9-0.6-1.1c-0.2-0.3-0.4-0.4-0.6-0.5
	C348.9,124.2,348.6,124.1,348.2,124.1z M350.1,119.9h-1.9l-0.5,2.8h1.8c0.5,0,0.9,0,1.3-0.1s0.6-0.2,0.8-0.4
	c0.2-0.2,0.3-0.5,0.4-0.8c0-0.3,0-0.5-0.1-0.7s-0.3-0.4-0.5-0.5C351.3,119.9,350.8,119.9,350.1,119.9z"/>
<path d="M363.3,119.4l-1.3,7.3h4.1c0.3,0,0.6,0.1,0.7,0.2c0.1,0.2,0.2,0.4,0.2,0.6s-0.2,0.4-0.4,0.6c-0.2,0.2-0.5,0.2-0.8,0.2h-4.9
	c-0.4,0-0.7-0.1-0.9-0.3c-0.2-0.2-0.2-0.5-0.1-1l1.4-7.7c0.1-0.4,0.2-0.7,0.4-0.9c0.2-0.2,0.5-0.3,0.8-0.3s0.5,0.1,0.7,0.3
	C363.3,118.7,363.4,119,363.3,119.4z"/>
<path d="M377,119.9h-4.6l-0.4,2.5h4.2c0.3,0,0.5,0.1,0.7,0.2c0.1,0.1,0.2,0.3,0.1,0.6c0,0.2-0.1,0.4-0.3,0.6
	c-0.2,0.1-0.4,0.2-0.7,0.2h-4.2l-0.5,2.9h4.7c0.3,0,0.5,0.1,0.7,0.2c0.1,0.1,0.2,0.3,0.1,0.6c0,0.2-0.2,0.4-0.3,0.6
	c-0.2,0.1-0.4,0.2-0.8,0.2h-5.5c-0.4,0-0.7-0.1-0.9-0.3c-0.2-0.2-0.2-0.5-0.1-1l1.3-7.6c0.1-0.3,0.1-0.5,0.3-0.7
	c0.1-0.2,0.3-0.3,0.5-0.4s0.4-0.1,0.7-0.1h5.4c0.3,0,0.6,0.1,0.7,0.2s0.2,0.3,0.1,0.6c0,0.2-0.2,0.4-0.3,0.6
	C377.6,119.9,377.3,119.9,377,119.9z"/>
<path d="M387.5,128.4h-3.1c-0.4,0-0.7-0.1-0.9-0.3c-0.2-0.2-0.2-0.5-0.1-1l1.3-7.6c0.1-0.4,0.2-0.8,0.5-1c0.2-0.2,0.6-0.3,1-0.3h3.3
	c0.5,0,0.9,0,1.2,0.1c0.3,0.1,0.6,0.2,0.9,0.3c0.2,0.1,0.4,0.3,0.5,0.5s0.2,0.5,0.3,0.7c0,0.3,0,0.5,0,0.8c-0.2,1-0.8,1.7-1.9,2.2
	c1.2,0.4,1.8,1.2,1.5,2.5c-0.1,0.6-0.3,1.1-0.7,1.5c-0.4,0.5-0.8,0.8-1.3,1c-0.3,0.1-0.7,0.2-1.1,0.3
	C388.5,128.4,388,128.4,387.5,128.4z M388.1,123.9H386l-0.5,2.9h2.2c1.4,0,2.1-0.5,2.3-1.5c0.1-0.5,0-0.9-0.3-1.1
	C389.3,124.1,388.8,123.9,388.1,123.9z M386.7,119.9l-0.5,2.6h1.9c0.5,0,0.9,0,1.2-0.1c0.3-0.1,0.5-0.3,0.7-0.5
	c0.1-0.2,0.2-0.4,0.3-0.6c0.1-0.5,0-0.8-0.4-1c-0.3-0.2-0.9-0.2-1.6-0.2L386.7,119.9L386.7,119.9z"/>
<path d="M400.6,127.3l-0.3-1.3h-4.1l-0.7,1.3c-0.3,0.5-0.5,0.8-0.7,1s-0.4,0.3-0.7,0.3c-0.3,0-0.5-0.1-0.6-0.3
	c-0.2-0.2-0.2-0.4-0.2-0.6c0-0.1,0.1-0.3,0.1-0.4c0.1-0.1,0.2-0.4,0.3-0.6l3.7-6.5c0.1-0.2,0.2-0.4,0.4-0.7c0.1-0.3,0.3-0.5,0.4-0.7
	s0.3-0.3,0.5-0.4s0.5-0.2,0.7-0.2c0.3,0,0.5,0.1,0.7,0.2s0.3,0.2,0.4,0.4c0.1,0.2,0.2,0.4,0.2,0.5c0,0.2,0.1,0.5,0.2,0.8l1.5,6.5
	c0.1,0.5,0.2,0.9,0.1,1.1c0,0.2-0.2,0.4-0.4,0.6c-0.2,0.2-0.5,0.3-0.8,0.3c-0.2,0-0.3,0-0.4-0.1s-0.2-0.1-0.2-0.2
	c-0.1-0.1-0.1-0.2-0.2-0.5C400.7,127.6,400.6,127.4,400.6,127.3z M397.1,124.5h3l-0.8-4.1L397.1,124.5z"/>
<path d="M412.8,120h-2.2l-1.3,7.3c-0.1,0.4-0.2,0.7-0.4,0.9c-0.2,0.2-0.5,0.3-0.8,0.3s-0.5-0.1-0.7-0.3c-0.2-0.2-0.2-0.5-0.1-0.9
	l1.3-7.3h-2.2c-0.3,0-0.6-0.1-0.7-0.2s-0.2-0.4-0.1-0.6c0-0.3,0.2-0.5,0.4-0.6c0.2-0.1,0.5-0.2,0.8-0.2h6.5c0.4,0,0.6,0.1,0.7,0.2
	c0.1,0.2,0.2,0.4,0.1,0.6c0,0.3-0.2,0.5-0.4,0.6C413.4,120,413.1,120,412.8,120z"/>
<path d="M414.5,127.3l1.4-7.9c0.1-0.4,0.2-0.7,0.4-0.9c0.2-0.2,0.5-0.3,0.8-0.3s0.5,0.1,0.7,0.3c0.2,0.2,0.2,0.5,0.1,0.9l-1.4,7.9
	c-0.1,0.4-0.2,0.7-0.5,0.9c-0.2,0.2-0.5,0.3-0.8,0.3s-0.5-0.1-0.7-0.3C414.5,128.1,414.4,127.7,414.5,127.3z"/>
<path d="M423,126.9l-0.5-6.4l-1.2,6.9c-0.1,0.4-0.2,0.7-0.4,0.9c-0.2,0.2-0.5,0.3-0.7,0.3c-0.3,0-0.5-0.1-0.6-0.3
	c-0.1-0.2-0.2-0.5-0.1-0.9l1.4-8c0.1-0.4,0.2-0.7,0.5-0.9c0.3-0.2,0.6-0.2,1-0.2h0.6c0.4,0,0.6,0,0.8,0.1c0.2,0.1,0.3,0.2,0.3,0.4
	c0.1,0.2,0.1,0.5,0.1,0.9l0.5,5.5l2.4-5.5c0.2-0.4,0.3-0.7,0.4-0.9c0.1-0.2,0.3-0.3,0.4-0.4c0.2-0.1,0.5-0.1,0.8-0.1h0.6
	c0.4,0,0.7,0.1,0.9,0.2c0.2,0.2,0.3,0.4,0.2,0.9l-1.4,8c-0.1,0.4-0.2,0.7-0.4,0.9c-0.2,0.2-0.5,0.3-0.7,0.3c-0.3,0-0.5-0.1-0.6-0.3
	c-0.1-0.2-0.2-0.5-0.1-0.9l1.2-6.9l-2.7,6.4c-0.2,0.4-0.3,0.7-0.4,0.9c-0.1,0.2-0.3,0.4-0.5,0.5c-0.2,0.2-0.5,0.2-0.8,0.2
	c-0.2,0-0.4-0.1-0.6-0.2c-0.1-0.1-0.3-0.2-0.3-0.4c-0.1-0.2-0.1-0.3-0.1-0.5C423,127.3,423,127.1,423,126.9z"/>
<path d="M439.9,119.9h-4.6l-0.4,2.5h4.2c0.3,0,0.5,0.1,0.7,0.2c0.1,0.1,0.2,0.3,0.1,0.6c0,0.2-0.1,0.4-0.3,0.6
	c-0.2,0.1-0.4,0.2-0.7,0.2h-4.2l-0.5,2.9h4.7c0.3,0,0.5,0.1,0.7,0.2c0.1,0.1,0.2,0.3,0.1,0.6c0,0.2-0.2,0.4-0.3,0.6
	c-0.2,0.1-0.4,0.2-0.8,0.2H433c-0.4,0-0.7-0.1-0.9-0.3c-0.2-0.2-0.2-0.5-0.1-1l1.3-7.6c0.1-0.3,0.1-0.5,0.3-0.7s0.3-0.3,0.5-0.4
	s0.4-0.1,0.7-0.1h5.4c0.3,0,0.6,0.1,0.7,0.2s0.2,0.3,0.1,0.6c0,0.2-0.2,0.4-0.3,0.6C440.4,119.9,440.2,119.9,439.9,119.9z"/>
<path d="M446,119.4l2.9,5.9l1.1-6c0.1-0.4,0.2-0.7,0.4-0.9c0.2-0.2,0.4-0.3,0.7-0.3c0.3,0,0.5,0.1,0.6,0.3c0.1,0.2,0.2,0.5,0.1,0.9
	l-1.4,7.9c-0.2,0.9-0.6,1.3-1.3,1.3c-0.2,0-0.3,0-0.5-0.1c-0.1-0.1-0.3-0.1-0.4-0.2s-0.2-0.2-0.3-0.4c-0.1-0.2-0.2-0.3-0.2-0.5
	l-2.8-5.9l-1,5.9c-0.1,0.4-0.2,0.7-0.4,0.9c-0.2,0.2-0.5,0.3-0.7,0.3c-0.3,0-0.5-0.1-0.6-0.3c-0.1-0.2-0.2-0.5-0.1-0.9l1.4-7.8
	c0.1-0.3,0.1-0.6,0.2-0.8c0.1-0.2,0.3-0.4,0.5-0.5s0.5-0.2,0.7-0.2s0.3,0,0.5,0.1c0.1,0.1,0.2,0.1,0.3,0.2c0.1,0.1,0.2,0.2,0.2,0.4
	C445.9,119.1,446,119.2,446,119.4z"/>
<path d="M461.2,120H459l-1.3,7.3c-0.1,0.4-0.2,0.7-0.4,0.9c-0.2,0.2-0.5,0.3-0.8,0.3s-0.5-0.1-0.7-0.3c-0.2-0.2-0.2-0.5-0.1-0.9
	l1.3-7.3h-2.2c-0.3,0-0.6-0.1-0.7-0.2s-0.2-0.4-0.1-0.6c0-0.3,0.2-0.5,0.4-0.6c0.2-0.1,0.5-0.2,0.8-0.2h6.5c0.4,0,0.6,0.1,0.7,0.2
	c0.1,0.2,0.2,0.4,0.1,0.6c0,0.3-0.2,0.5-0.4,0.6S461.5,120,461.2,120z"/>
<path d="M474.6,41.9c-0.4-0.7-0.8-1.4-1.4-2c-0.6-0.6-1.2-1.1-2-1.4s-1.6-0.5-2.5-0.5c-1.2,0-2.2,0.2-3.1,0.9
	c-1,0.6-1.7,1.3-2.3,2.3c-0.5,1-0.8,2-0.8,3.2c0,1.2,0.2,2.2,0.8,3.2c0.6,1,1.3,1.7,2.3,2.3c1,0.5,2,0.8,3.2,0.8s2.2-0.2,3.2-0.8
	c1-0.6,1.7-1.3,2.3-2.3c0.5-1,0.8-2.1,0.8-3.2C475.1,43.5,474.9,42.7,474.6,41.9z M473,47c-0.4,0.8-1,1.4-1.8,1.9s-1.7,0.7-2.6,0.7
	c-0.9,0-1.7-0.2-2.5-0.7s-1.4-1.1-1.9-1.9s-0.7-1.6-0.7-2.6s0.2-1.8,0.7-2.6s1.1-1.4,1.9-1.9s1.7-0.7,2.6-0.7c0.9,0,1.8,0.2,2.5,0.7
	c0.7,0.5,1.3,1.1,1.8,1.9s0.7,1.7,0.7,2.6C473.7,45.4,473.5,46.2,473,47z"/>
<path d="M470.3,45.2c-0.2-0.2-0.4-0.4-0.7-0.5c0.5,0,1-0.3,1.3-0.6s0.5-0.7,0.5-1.2c0-0.4-0.1-0.7-0.3-1c-0.2-0.3-0.5-0.5-0.8-0.7
	c-0.4-0.1-0.8-0.2-1.3-0.2h-3.2v6.7h1.4l-0.1-2.8h0.4c0.3,0,0.5,0,0.7,0.1c0.1,0.1,0.3,0.3,0.5,0.5c0.2,0.3,0.4,0.6,0.7,1.1l0.6,1.1
	h1.8l-0.8-1.4C470.7,45.8,470.5,45.4,470.3,45.2z M469.4,43.6c-0.2,0.1-0.6,0.2-1.1,0.2h-1.1V42h1.3c0.4,0,0.8,0,1,0.2
	c0.2,0.1,0.3,0.3,0.3,0.6C469.8,43.2,469.7,43.5,469.4,43.6z"/>
<path d="M400.2,117.1l-0.5-0.8l-0.8,0.8c-0.2,0.2-0.4,0.4-0.5,0.4s-0.2,0.1-0.4,0.1h-0.5c-0.2,0-0.3,0-0.3-0.1c0,0,0.1-0.2,0.3-0.3
	l0.9-0.9c0.1-0.1,0.2-0.2,0.3-0.3c0.1-0.1,0.2-0.2,0.3-0.2c0.1,0,0.2-0.1,0.3-0.1s0.3,0,0.4,0h0.4c0.3,0,0.5,0,0.6,0.1
	s0.2,0.2,0.4,0.5l0.6,0.9c0.1,0.2,0.1,0.3,0.1,0.3c0,0.1-0.1,0.1-0.3,0.1H401c-0.1,0-0.2,0-0.3-0.1c-0.1,0-0.1-0.1-0.2-0.2
	C400.4,117.3,400.3,117.2,400.2,117.1z"/>
</svg>
