<?xml version="1.0" encoding="utf-8"?>
<!-- Generator: Adobe Illustrator 16.0.0, SVG Export Plug-In . SVG Version: 6.00 Build 0)  -->
<!DOCTYPE svg PUBLIC "-//W3C//DTD SVG 1.1//EN" "http://www.w3.org/Graphics/SVG/1.1/DTD/svg11.dtd">
<svg version="1.1" id="Calque_2" xmlns="http://www.w3.org/2000/svg" xmlns:xlink="http://www.w3.org/1999/xlink" x="0px" y="0px"
	 width="500px" height="500px" viewBox="0 0 500 500" enable-background="new 0 0 500 500" xml:space="preserve">
<g>
	<path fill="#9C9E9F" d="M98.567,178.438c39.459,0,71.562,32.103,71.562,71.562c0,39.46-32.103,71.562-71.562,71.562
		S27.005,289.46,27.005,250C27.005,210.541,59.107,178.438,98.567,178.438 M98.567,176.433C57.937,176.433,25,209.37,25,250
		c0,40.631,32.937,73.567,73.567,73.567s73.567-32.937,73.567-73.567C172.134,209.37,139.197,176.433,98.567,176.433L98.567,176.433
		z"/>
	<g>
		<path fill="#298364" d="M126.097,248.144h38.71c-1.2-35.284-30.163-63.523-65.739-63.523c-35.576,0-64.539,28.239-65.739,63.523
			h38.626v-25.4h-4.512l31.625-24.229l11.029,8.472v-8.013h9.149v15.042l11.362,8.729h-4.512V248.144z"/>
	</g>
	<g>
		<g>
			<polygon fill="#BFB1AA" points="76.741,274.993 83.688,274.993 80.183,265.431 			"/>
		</g>
		<g>
			<path fill="#BFB1AA" d="M59.914,265.061c-1.015-0.312-2.242-0.466-3.68-0.466h-3.108v15.723h3.568
				c0.783,0,1.396-0.021,1.84-0.063c0.444-0.043,0.904-0.148,1.38-0.317c0.476-0.168,0.888-0.405,1.237-0.711
				c1.576-1.327,2.363-3.613,2.363-6.857c0-2.287-0.346-3.999-1.039-5.137S60.929,265.37,59.914,265.061z"/>
		</g>
		<g>
			<path fill="#BFB1AA" d="M143.719,264.405h-3.172v7.078h3.172c1.109,0,2.037-0.115,2.783-0.346
				c0.745-0.233,1.313-0.613,1.705-1.138c0.391-0.527,0.587-1.219,0.587-2.072c0-1.022-0.301-1.853-0.904-2.497
				C147.213,264.747,145.823,264.405,143.719,264.405z"/>
		</g>
		<g>
			<path fill="#BFB1AA" d="M33.336,252.99c1.353,35.145,30.256,63.224,65.732,63.224c35.476,0,64.378-28.079,65.731-63.224H33.336z
				 M67.923,276.209c-0.243,1.147-0.618,2.184-1.126,3.104c-0.508,0.925-1.158,1.747-1.951,2.474
				c-0.625,0.558-1.306,1.007-2.046,1.344c-0.74,0.339-1.536,0.573-2.387,0.71c-0.852,0.14-1.811,0.206-2.878,0.206h-6.138
				c-0.856,0-1.502-0.129-1.936-0.386c-0.433-0.259-0.716-0.623-0.849-1.093c-0.132-0.468-0.198-1.075-0.198-1.825v-16.985
				c0-1.011,0.227-1.745,0.682-2.197s1.19-0.68,2.205-0.68h6.138c1.597,0,2.966,0.149,4.108,0.442
				c1.141,0.296,2.178,0.851,3.108,1.661c2.421,2.063,3.632,5.203,3.632,9.417C68.288,273.791,68.166,275.062,67.923,276.209z
				 M90.42,283.77c-0.449,0.449-0.991,0.672-1.625,0.672c-0.37,0-0.688-0.066-0.952-0.197c-0.264-0.134-0.487-0.312-0.666-0.537
				c-0.18-0.227-0.373-0.573-0.579-1.044c-0.206-0.468-0.383-0.883-0.531-1.239l-1.11-2.908h-9.452l-1.11,2.971
				c-0.434,1.159-0.805,1.94-1.11,2.346c-0.307,0.406-0.809,0.609-1.506,0.609c-0.592,0-1.116-0.217-1.571-0.648
				c-0.455-0.431-0.682-0.922-0.682-1.469c0-0.316,0.053-0.642,0.158-0.98c0.105-0.337,0.28-0.805,0.523-1.406l5.947-15.043
				c0.169-0.431,0.373-0.95,0.611-1.557c0.238-0.605,0.492-1.108,0.761-1.508c0.271-0.401,0.625-0.725,1.063-0.972
				c0.439-0.249,0.98-0.372,1.626-0.372c0.655,0,1.203,0.123,1.642,0.372c0.439,0.247,0.793,0.566,1.063,0.956
				c0.27,0.39,0.497,0.807,0.682,1.255c0.186,0.448,0.42,1.046,0.706,1.794l6.075,14.949c0.476,1.138,0.714,1.964,0.714,2.479
				C91.095,282.828,90.87,283.321,90.42,283.77z M110.476,283.518c-0.402,0.353-0.989,0.528-1.761,0.528H97.344
				c-1.026,0-1.764-0.228-2.212-0.68c-0.45-0.452-0.674-1.185-0.674-2.197V263.33c0-0.948,0.214-1.659,0.642-2.133
				c0.429-0.474,0.992-0.711,1.689-0.711c0.708,0,1.281,0.235,1.721,0.703c0.438,0.468,0.658,1.183,0.658,2.141v16.86h9.547
				c0.762,0,1.346,0.186,1.753,0.552c0.406,0.37,0.61,0.834,0.61,1.393C111.079,282.704,110.878,283.165,110.476,283.518z
				 M131.53,283.533c-0.375,0.341-0.933,0.513-1.674,0.513h-12.799c-1.025,0-1.763-0.228-2.212-0.68
				c-0.449-0.452-0.674-1.185-0.674-2.197v-17.412c0-0.674,0.101-1.226,0.302-1.651c0.201-0.427,0.515-0.736,0.944-0.932
				c0.428-0.196,0.975-0.294,1.641-0.294h12.435c0.75,0,1.308,0.167,1.673,0.499c0.365,0.331,0.547,0.766,0.547,1.303
				c0,0.548-0.182,0.987-0.547,1.319c-0.365,0.333-0.923,0.5-1.673,0.5h-10.61v5.688h9.77c0.719,0,1.256,0.158,1.61,0.479
				c0.353,0.323,0.53,0.746,0.53,1.273c0,0.526-0.174,0.955-0.523,1.288c-0.349,0.331-0.888,0.497-1.618,0.497h-9.77v6.59h10.975
				c0.741,0,1.298,0.171,1.674,0.513c0.375,0.343,0.563,0.798,0.563,1.367C132.093,282.746,131.905,283.19,131.53,283.533z
				 M151.38,273.199c-1.459,1.216-3.633,1.825-6.519,1.825h-4.314v6.556c0,0.938-0.223,1.651-0.667,2.135s-1.004,0.727-1.681,0.727
				c-0.708,0-1.28-0.241-1.713-0.721c-0.434-0.478-0.651-1.181-0.651-2.106v-17.857c0-1.032,0.239-1.771,0.714-2.213
				c0.476-0.442,1.232-0.664,2.269-0.664h6.043c1.786,0,3.161,0.137,4.124,0.411c0.952,0.265,1.773,0.701,2.466,1.313
				c0.692,0.61,1.218,1.358,1.577,2.244c0.359,0.885,0.54,1.88,0.54,2.986C153.568,270.193,152.838,271.983,151.38,273.199z"/>
		</g>
	</g>
	<g>
		<path fill="#729439" d="M125.596,247.726h38.71c-1.201-35.284-30.164-63.523-65.739-63.523s-64.539,28.239-65.739,63.523h38.626
			v-25.4h-4.512l31.625-24.23l11.029,8.473v-8.013h9.149v15.041l11.363,8.729h-4.512V247.726z"/>
	</g>
	<g>
		<path d="M205.55,212.037h15.316c3.984,0,7.401,0.369,10.251,1.104c2.849,0.736,5.435,2.116,7.757,4.14
			c6.042,5.153,9.063,12.986,9.063,23.501c0,3.47-0.304,6.638-0.91,9.503c-0.607,2.864-1.543,5.447-2.81,7.747
			c-1.267,2.302-2.889,4.357-4.868,6.172c-1.557,1.394-3.259,2.511-5.105,3.352c-1.847,0.842-3.833,1.434-5.957,1.774
			c-2.125,0.343-4.519,0.513-7.184,0.513h-15.316c-2.137,0-3.747-0.321-4.829-0.967c-1.082-0.643-1.788-1.551-2.118-2.721
			c-0.33-1.169-0.494-2.687-0.494-4.554v-42.389c0-2.523,0.567-4.351,1.702-5.481C201.184,212.603,203.018,212.037,205.55,212.037z
			 M210.102,221.304v39.234h8.905c1.953,0,3.483-0.053,4.591-0.157c1.108-0.105,2.256-0.368,3.443-0.789
			c1.188-0.42,2.216-1.012,3.087-1.774c3.931-3.313,5.896-9.017,5.896-17.114c0-5.704-0.864-9.976-2.592-12.815
			c-1.729-2.839-3.858-4.646-6.392-5.422c-2.533-0.775-5.594-1.163-9.182-1.163H210.102z"/>
		<path d="M292.304,263.299l-2.771-7.256h-23.587l-2.771,7.413c-1.083,2.893-2.005,4.844-2.771,5.855s-2.018,1.519-3.76,1.519
			c-1.477,0-2.783-0.54-3.919-1.617c-1.134-1.078-1.701-2.3-1.701-3.667c0-0.789,0.133-1.604,0.396-2.445
			c0.265-0.841,0.699-2.011,1.306-3.509l14.842-37.539c0.423-1.078,0.93-2.372,1.525-3.884c0.594-1.511,1.226-2.767,1.899-3.766
			c0.672-0.999,1.557-1.807,2.651-2.425c1.095-0.618,2.446-0.927,4.056-0.927c1.637,0,3.002,0.309,4.097,0.927
			c1.095,0.618,1.979,1.413,2.651,2.385c0.674,0.974,1.241,2.018,1.702,3.135c0.462,1.118,1.05,2.609,1.762,4.476l15.159,37.303
			c1.187,2.839,1.78,4.903,1.78,6.19c0,1.341-0.561,2.569-1.683,3.687s-2.473,1.677-4.058,1.677c-0.922,0-1.715-0.165-2.373-0.494
			c-0.66-0.328-1.214-0.774-1.662-1.34c-0.449-0.565-0.931-1.433-1.445-2.603C293.116,265.225,292.674,264.192,292.304,263.299z
			 M269.032,247.249h17.336l-8.747-23.856L269.032,247.249z"/>
		<path d="M324.995,218.149v42.073h23.825c1.899,0,3.358,0.462,4.375,1.381c1.015,0.921,1.523,2.077,1.523,3.47
			c0,1.42-0.501,2.57-1.504,3.451c-1.005,0.881-2.468,1.32-4.395,1.32h-28.377c-2.559,0-4.399-0.564-5.52-1.695
			c-1.122-1.13-1.683-2.957-1.683-5.481v-44.518c0-2.366,0.535-4.14,1.602-5.324c1.069-1.183,2.474-1.774,4.217-1.774
			c1.766,0,3.197,0.585,4.294,1.754C324.448,213.976,324.995,215.757,324.995,218.149z"/>
		<path d="M400.669,221.066h-26.478v14.196h24.378c1.796,0,3.134,0.401,4.019,1.203c0.883,0.802,1.326,1.86,1.326,3.174
			c0,1.315-0.436,2.385-1.307,3.214c-0.871,0.828-2.217,1.242-4.038,1.242h-24.378v16.443h27.386c1.847,0,3.239,0.427,4.178,1.281
			c0.936,0.854,1.403,1.991,1.403,3.411c0,1.366-0.468,2.478-1.403,3.332c-0.938,0.854-2.331,1.281-4.178,1.281h-31.938
			c-2.56,0-4.4-0.564-5.521-1.695c-1.122-1.13-1.682-2.957-1.682-5.481v-43.454c0-1.682,0.25-3.056,0.752-4.121
			c0.501-1.064,1.286-1.84,2.355-2.327c1.067-0.486,2.433-0.729,4.095-0.729h31.03c1.872,0,3.265,0.414,4.175,1.243
			c0.911,0.828,1.365,1.912,1.365,3.252c0,1.367-0.454,2.465-1.365,3.293C403.934,220.653,402.541,221.066,400.669,221.066z"/>
		<path d="M439.02,247.329h-10.765v16.364c0,2.34-0.555,4.115-1.663,5.323c-1.108,1.209-2.506,1.814-4.196,1.814
			c-1.767,0-3.191-0.599-4.272-1.795c-1.083-1.195-1.624-2.95-1.624-5.264v-44.558c0-2.576,0.594-4.417,1.78-5.521
			c1.188-1.104,3.074-1.656,5.661-1.656h15.079c4.458,0,7.888,0.342,10.29,1.025c2.373,0.658,4.426,1.749,6.153,3.273
			c1.729,1.525,3.041,3.391,3.938,5.599c0.896,2.208,1.348,4.692,1.348,7.453c0,5.889-1.821,10.351-5.462,13.387
			C451.644,245.811,446.222,247.329,439.02,247.329z M436.17,220.83h-7.915v17.665h7.915c2.769,0,5.086-0.289,6.945-0.867
			c1.86-0.578,3.278-1.524,4.254-2.839c0.977-1.314,1.465-3.037,1.465-5.166c0-2.55-0.752-4.627-2.256-6.23
			C444.89,221.685,441.42,220.83,436.17,220.83z"/>
	</g>
	<g>
		<g>
			<polygon points="76.24,274.575 83.187,274.575 79.681,265.014 			"/>
		</g>
		<g>
			<path d="M59.413,264.644c-1.016-0.313-2.242-0.467-3.68-0.467h-3.108v15.723h3.568c0.783,0,1.396-0.021,1.84-0.063
				c0.445-0.042,0.904-0.148,1.38-0.317c0.475-0.168,0.888-0.404,1.236-0.711c1.576-1.326,2.363-3.613,2.363-6.857
				c0-2.286-0.346-3.998-1.039-5.136C61.281,265.677,60.427,264.953,59.413,264.644z"/>
		</g>
		<g>
			<path d="M143.218,263.987h-3.172v7.078h3.172c1.11,0,2.038-0.114,2.784-0.347c0.745-0.231,1.313-0.611,1.705-1.138
				c0.391-0.526,0.587-1.218,0.587-2.07c0-1.022-0.301-1.854-0.904-2.497C146.712,264.329,145.322,263.987,143.218,263.987z"/>
		</g>
		<g>
			<path d="M32.835,252.572c1.354,35.145,30.256,63.225,65.732,63.225s64.378-28.08,65.732-63.225H32.835z M67.421,275.791
				c-0.243,1.148-0.618,2.184-1.126,3.104c-0.507,0.924-1.158,1.746-1.951,2.474c-0.624,0.558-1.306,1.007-2.046,1.344
				c-0.74,0.337-1.536,0.573-2.387,0.71c-0.851,0.139-1.811,0.205-2.878,0.205h-6.138c-0.856,0-1.502-0.128-1.935-0.386
				c-0.434-0.259-0.716-0.622-0.849-1.092c-0.132-0.468-0.198-1.076-0.198-1.825V263.34c0-1.012,0.227-1.745,0.682-2.197
				c0.454-0.452,1.189-0.68,2.205-0.68h6.138c1.597,0,2.966,0.147,4.108,0.442c1.141,0.296,2.178,0.85,3.108,1.66
				c2.421,2.063,3.632,5.204,3.632,9.417C67.786,273.373,67.665,274.644,67.421,275.791z M89.919,283.352
				c-0.45,0.448-0.991,0.672-1.625,0.672c-0.37,0-0.688-0.065-0.952-0.198c-0.264-0.132-0.487-0.31-0.666-0.536
				c-0.18-0.227-0.373-0.574-0.579-1.043s-0.383-0.883-0.531-1.24l-1.11-2.908h-9.453l-1.11,2.972
				c-0.434,1.159-0.804,1.94-1.11,2.346c-0.307,0.405-0.809,0.608-1.506,0.608c-0.592,0-1.116-0.217-1.57-0.647
				c-0.456-0.432-0.682-0.922-0.682-1.47c0-0.316,0.053-0.642,0.158-0.979c0.105-0.337,0.28-0.806,0.524-1.407l5.947-15.042
				c0.169-0.432,0.373-0.951,0.611-1.557c0.238-0.606,0.492-1.108,0.761-1.509c0.27-0.401,0.625-0.725,1.063-0.972
				c0.439-0.248,0.981-0.372,1.626-0.372c0.656,0,1.203,0.124,1.642,0.372c0.439,0.247,0.793,0.565,1.063,0.955
				c0.269,0.391,0.497,0.809,0.682,1.257c0.186,0.447,0.421,1.046,0.706,1.793l6.075,14.949c0.476,1.138,0.713,1.964,0.713,2.479
				C90.593,282.411,90.369,282.904,89.919,283.352z M109.975,283.1c-0.402,0.353-0.989,0.528-1.761,0.528H96.843
				c-1.026,0-1.764-0.227-2.213-0.679c-0.45-0.453-0.674-1.185-0.674-2.197v-17.839c0-0.948,0.215-1.66,0.643-2.133
				c0.428-0.475,0.991-0.712,1.689-0.712c0.708,0,1.282,0.235,1.721,0.704c0.438,0.468,0.658,1.182,0.658,2.141v16.86h9.547
				c0.762,0,1.346,0.185,1.753,0.552c0.406,0.37,0.61,0.833,0.61,1.393C110.577,282.286,110.376,282.747,109.975,283.1z
				 M131.029,283.115c-0.375,0.341-0.933,0.513-1.674,0.513h-12.799c-1.025,0-1.763-0.227-2.212-0.679
				c-0.449-0.453-0.674-1.185-0.674-2.197V263.34c0-0.674,0.101-1.227,0.301-1.652c0.201-0.427,0.515-0.736,0.944-0.931
				c0.428-0.196,0.975-0.294,1.641-0.294h12.435c0.75,0,1.308,0.166,1.673,0.498c0.365,0.332,0.547,0.766,0.547,1.304
				c0,0.548-0.182,0.986-0.547,1.318c-0.365,0.333-0.923,0.5-1.673,0.5H118.38v5.688h9.77c0.719,0,1.256,0.159,1.61,0.48
				c0.354,0.322,0.531,0.746,0.531,1.273c0,0.526-0.174,0.955-0.523,1.287c-0.349,0.332-0.888,0.497-1.618,0.497h-9.77v6.59h10.975
				c0.741,0,1.298,0.171,1.674,0.513c0.375,0.343,0.563,0.798,0.563,1.368C131.592,282.327,131.404,282.773,131.029,283.115z
				 M150.878,272.781c-1.459,1.216-3.633,1.825-6.519,1.825h-4.314v6.557c0,0.938-0.222,1.65-0.667,2.134
				c-0.444,0.483-1.004,0.727-1.681,0.727c-0.708,0-1.279-0.24-1.713-0.72c-0.434-0.479-0.65-1.182-0.65-2.108V263.34
				c0-1.033,0.238-1.771,0.714-2.213s1.231-0.664,2.269-0.664h6.042c1.787,0,3.161,0.137,4.124,0.411
				c0.952,0.264,1.773,0.701,2.466,1.313c0.692,0.61,1.219,1.357,1.578,2.243c0.359,0.885,0.54,1.881,0.54,2.986
				C153.067,269.775,152.337,271.565,150.878,272.781z"/>
		</g>
	</g>
	<g>
		<path d="M206.187,283.032h-2.221l-1.288,7.3c-0.074,0.42-0.223,0.732-0.445,0.935c-0.224,0.204-0.484,0.306-0.781,0.306
			c-0.301,0-0.529-0.103-0.683-0.309c-0.153-0.205-0.193-0.517-0.12-0.932l1.288-7.3h-2.221c-0.348,0-0.592-0.076-0.734-0.229
			c-0.142-0.153-0.191-0.354-0.147-0.606c0.046-0.261,0.17-0.466,0.374-0.617c0.202-0.15,0.47-0.226,0.804-0.226h6.47
			c0.352,0,0.599,0.077,0.744,0.231c0.143,0.157,0.193,0.359,0.149,0.611c-0.044,0.252-0.167,0.453-0.367,0.606
			C206.808,282.956,206.535,283.032,206.187,283.032z"/>
		<path d="M211.153,287.104h-0.713l-0.569,3.229c-0.075,0.425-0.224,0.737-0.446,0.938c-0.222,0.201-0.485,0.302-0.786,0.302
			c-0.324,0-0.558-0.104-0.699-0.315c-0.141-0.21-0.176-0.519-0.104-0.925l1.364-7.732c0.077-0.438,0.231-0.756,0.462-0.951
			c0.232-0.196,0.566-0.295,1.005-0.295h3.31c0.458,0,0.845,0.02,1.162,0.058c0.317,0.039,0.596,0.117,0.835,0.237
			c0.292,0.132,0.538,0.32,0.736,0.568c0.198,0.247,0.332,0.534,0.401,0.859c0.067,0.327,0.069,0.673,0.005,1.039
			c-0.132,0.749-0.449,1.348-0.952,1.796c-0.501,0.447-1.198,0.765-2.09,0.953c0.328,0.191,0.622,0.475,0.886,0.85
			c0.262,0.375,0.486,0.773,0.67,1.195c0.183,0.423,0.316,0.804,0.401,1.145c0.083,0.341,0.115,0.575,0.092,0.703
			c-0.023,0.132-0.089,0.265-0.197,0.395c-0.107,0.13-0.241,0.232-0.4,0.308c-0.159,0.076-0.335,0.113-0.527,0.113
			c-0.228,0-0.411-0.054-0.547-0.16c-0.137-0.109-0.246-0.244-0.329-0.408c-0.083-0.165-0.192-0.406-0.328-0.727l-0.576-1.357
			c-0.205-0.498-0.399-0.877-0.583-1.138c-0.186-0.261-0.388-0.438-0.609-0.534C211.805,287.151,211.515,287.104,211.153,287.104z
			 M213.063,282.882h-1.878l-0.487,2.762h1.823c0.488,0,0.907-0.042,1.255-0.126c0.349-0.085,0.629-0.229,0.841-0.433
			c0.211-0.203,0.349-0.482,0.411-0.839c0.049-0.279,0.022-0.524-0.082-0.737c-0.105-0.212-0.272-0.371-0.505-0.477
			C214.222,282.932,213.762,282.882,213.063,282.882z"/>
		<path d="M225.088,290.264l-0.257-1.262h-4.084l-0.708,1.289c-0.276,0.502-0.496,0.842-0.659,1.017
			c-0.163,0.177-0.396,0.265-0.697,0.265c-0.256,0-0.466-0.093-0.629-0.281c-0.164-0.187-0.224-0.399-0.183-0.637
			c0.024-0.138,0.072-0.279,0.144-0.425c0.072-0.146,0.183-0.35,0.334-0.61l3.721-6.525c0.106-0.187,0.234-0.412,0.382-0.675
			c0.15-0.263,0.298-0.481,0.444-0.654c0.148-0.175,0.326-0.314,0.535-0.422c0.208-0.106,0.451-0.161,0.73-0.161
			c0.283,0,0.51,0.055,0.681,0.161c0.17,0.107,0.3,0.245,0.386,0.415c0.087,0.168,0.153,0.351,0.199,0.544
			c0.045,0.195,0.101,0.454,0.167,0.778l1.482,6.484c0.119,0.493,0.158,0.852,0.119,1.076c-0.041,0.232-0.176,0.446-0.404,0.641
			c-0.229,0.194-0.48,0.291-0.754,0.291c-0.16,0-0.292-0.028-0.396-0.086c-0.104-0.057-0.187-0.134-0.247-0.233
			c-0.06-0.098-0.116-0.248-0.171-0.452C225.17,290.598,225.125,290.418,225.088,290.264z M221.55,287.474h3.002l-0.784-4.146
			L221.55,287.474z"/>
		<path d="M229.526,290.332l1.396-7.917c0.072-0.41,0.221-0.719,0.444-0.925c0.224-0.205,0.484-0.309,0.781-0.309
			c0.306,0,0.536,0.103,0.689,0.305c0.154,0.204,0.195,0.514,0.122,0.929l-1.396,7.917c-0.073,0.415-0.223,0.727-0.449,0.932
			c-0.225,0.206-0.491,0.309-0.797,0.309c-0.293,0-0.516-0.104-0.669-0.313C229.494,291.053,229.454,290.743,229.526,290.332z"/>
		<path d="M242.352,283.032h-2.221l-1.288,7.3c-0.074,0.42-0.223,0.732-0.445,0.935c-0.223,0.204-0.484,0.306-0.78,0.306
			c-0.302,0-0.529-0.103-0.683-0.309c-0.153-0.205-0.193-0.517-0.12-0.932l1.288-7.3h-2.22c-0.348,0-0.592-0.076-0.734-0.229
			s-0.191-0.354-0.147-0.606c0.046-0.261,0.17-0.466,0.374-0.617c0.202-0.15,0.469-0.226,0.803-0.226h6.47
			c0.352,0,0.599,0.077,0.744,0.231c0.143,0.157,0.193,0.359,0.148,0.611c-0.044,0.252-0.166,0.453-0.367,0.606
			C242.973,282.956,242.699,283.032,242.352,283.032z"/>
		<path d="M251.942,282.922h-4.586l-0.435,2.469h4.222c0.31,0,0.53,0.069,0.66,0.208c0.127,0.141,0.17,0.323,0.131,0.553
			c-0.041,0.228-0.148,0.414-0.325,0.559c-0.176,0.144-0.421,0.215-0.736,0.215h-4.222l-0.504,2.858h4.742
			c0.321,0,0.549,0.075,0.686,0.224c0.136,0.147,0.183,0.345,0.138,0.592c-0.042,0.238-0.157,0.432-0.345,0.579
			c-0.188,0.149-0.443,0.224-0.762,0.224h-5.532c-0.444,0-0.744-0.1-0.903-0.296c-0.161-0.195-0.201-0.513-0.124-0.953l1.332-7.553
			c0.052-0.292,0.137-0.53,0.257-0.715c0.12-0.185,0.278-0.32,0.479-0.405c0.199-0.084,0.443-0.126,0.731-0.126h5.374
			c0.323,0,0.552,0.071,0.684,0.216c0.133,0.144,0.18,0.332,0.137,0.565c-0.041,0.237-0.152,0.428-0.337,0.572
			C252.521,282.852,252.266,282.922,251.942,282.922z"/>
		<path d="M257.551,289.887l-0.483-6.401l-1.222,6.936c-0.069,0.384-0.206,0.672-0.409,0.863c-0.206,0.192-0.451,0.288-0.732,0.288
			c-0.274,0-0.482-0.095-0.623-0.284c-0.139-0.189-0.177-0.479-0.107-0.867l1.401-7.95c0.079-0.439,0.245-0.734,0.5-0.888
			c0.254-0.153,0.577-0.229,0.965-0.229h0.631c0.38,0,0.648,0.034,0.809,0.103c0.159,0.067,0.265,0.192,0.315,0.37
			c0.051,0.179,0.094,0.468,0.127,0.87l0.49,5.504l2.43-5.504c0.177-0.402,0.321-0.691,0.435-0.87
			c0.114-0.178,0.263-0.303,0.445-0.37c0.184-0.068,0.466-0.103,0.844-0.103h0.63c0.39,0,0.684,0.076,0.886,0.229
			c0.201,0.153,0.264,0.448,0.186,0.888l-1.401,7.95c-0.067,0.384-0.204,0.672-0.41,0.863c-0.203,0.192-0.45,0.288-0.738,0.288
			c-0.27,0-0.476-0.096-0.614-0.288c-0.14-0.191-0.177-0.479-0.107-0.863l1.222-6.936l-2.737,6.401
			c-0.179,0.415-0.319,0.721-0.42,0.914c-0.1,0.195-0.254,0.371-0.46,0.532c-0.207,0.159-0.468,0.239-0.783,0.239
			c-0.237,0-0.429-0.052-0.575-0.153c-0.147-0.104-0.251-0.235-0.313-0.395c-0.065-0.161-0.106-0.337-0.124-0.532
			C257.586,290.299,257.568,290.096,257.551,289.887z"/>
		<path d="M274.401,282.922h-4.586l-0.435,2.469h4.222c0.31,0,0.531,0.069,0.66,0.208c0.127,0.141,0.17,0.323,0.131,0.553
			c-0.041,0.228-0.148,0.414-0.325,0.559c-0.176,0.144-0.421,0.215-0.736,0.215h-4.222l-0.505,2.858h4.742
			c0.321,0,0.549,0.075,0.686,0.224c0.136,0.147,0.183,0.345,0.138,0.592c-0.041,0.238-0.157,0.432-0.345,0.579
			c-0.188,0.149-0.442,0.224-0.762,0.224h-5.532c-0.442,0-0.744-0.1-0.903-0.296c-0.16-0.195-0.201-0.513-0.125-0.953l1.334-7.553
			c0.051-0.292,0.135-0.53,0.254-0.715c0.122-0.185,0.28-0.32,0.48-0.405c0.199-0.084,0.444-0.126,0.732-0.126h5.373
			c0.323,0,0.552,0.071,0.684,0.216c0.133,0.144,0.18,0.332,0.137,0.565c-0.041,0.237-0.152,0.428-0.337,0.572
			C274.979,282.852,274.725,282.922,274.401,282.922z"/>
		<path d="M280.588,282.402l2.868,5.922l1.054-5.979c0.068-0.387,0.204-0.678,0.405-0.873c0.202-0.193,0.443-0.291,0.727-0.291
			c0.292,0,0.506,0.098,0.641,0.291c0.135,0.195,0.169,0.486,0.1,0.873l-1.394,7.904c-0.155,0.881-0.598,1.322-1.33,1.322
			c-0.182,0-0.343-0.026-0.479-0.079c-0.136-0.053-0.259-0.135-0.366-0.25c-0.108-0.114-0.204-0.247-0.286-0.4
			s-0.164-0.31-0.247-0.47l-2.784-5.854l-1.038,5.887c-0.068,0.384-0.209,0.675-0.421,0.871c-0.214,0.197-0.458,0.295-0.738,0.295
			c-0.288,0-0.501-0.099-0.641-0.298c-0.137-0.199-0.174-0.487-0.105-0.868l1.367-7.751c0.057-0.329,0.139-0.587,0.244-0.774
			c0.124-0.205,0.298-0.373,0.521-0.503c0.223-0.13,0.452-0.196,0.686-0.196c0.184,0,0.334,0.029,0.454,0.089
			c0.119,0.061,0.219,0.14,0.302,0.24c0.08,0.101,0.156,0.231,0.232,0.391C280.431,282.062,280.51,282.228,280.588,282.402z"/>
		<path d="M295.715,283.032h-2.221l-1.286,7.3c-0.074,0.42-0.224,0.732-0.446,0.935c-0.224,0.204-0.484,0.306-0.779,0.306
			c-0.302,0-0.531-0.103-0.684-0.309c-0.153-0.205-0.194-0.517-0.12-0.932l1.287-7.3h-2.221c-0.347,0-0.592-0.076-0.734-0.229
			c-0.141-0.153-0.19-0.354-0.146-0.606c0.047-0.261,0.17-0.466,0.374-0.617c0.201-0.15,0.47-0.226,0.803-0.226h6.47
			c0.353,0,0.6,0.077,0.744,0.231c0.143,0.157,0.194,0.359,0.148,0.611c-0.043,0.252-0.166,0.453-0.366,0.606
			C296.338,282.956,296.063,283.032,295.715,283.032z"/>
		<path d="M305.357,288.385c-0.107,0.608-0.36,1.154-0.76,1.639c-0.397,0.484-0.922,0.863-1.574,1.138s-1.391,0.411-2.217,0.411
			c-0.993,0-1.776-0.188-2.355-0.562c-0.41-0.271-0.717-0.63-0.923-1.08c-0.207-0.449-0.272-0.888-0.197-1.313
			c0.043-0.246,0.166-0.458,0.37-0.633c0.201-0.178,0.435-0.265,0.7-0.265c0.214,0,0.384,0.068,0.508,0.205
			c0.125,0.137,0.215,0.34,0.274,0.61c0.07,0.32,0.162,0.588,0.271,0.801c0.112,0.216,0.29,0.393,0.535,0.532
			c0.242,0.14,0.585,0.209,1.023,0.209c0.604,0,1.118-0.141,1.546-0.422c0.425-0.28,0.677-0.632,0.75-1.052
			c0.059-0.334,0.006-0.604-0.161-0.812c-0.166-0.208-0.401-0.368-0.705-0.477c-0.302-0.109-0.713-0.227-1.229-0.35
			c-0.691-0.17-1.263-0.367-1.708-0.594c-0.448-0.225-0.779-0.534-0.996-0.924c-0.216-0.391-0.272-0.878-0.171-1.457
			c0.099-0.554,0.335-1.044,0.711-1.474c0.378-0.429,0.874-0.76,1.484-0.991c0.611-0.229,1.305-0.346,2.076-0.346
			c0.616,0,1.138,0.077,1.561,0.229c0.423,0.153,0.76,0.357,1.013,0.611c0.252,0.253,0.423,0.519,0.511,0.798
			s0.107,0.55,0.061,0.815c-0.041,0.242-0.166,0.46-0.372,0.654c-0.205,0.194-0.437,0.292-0.691,0.292
			c-0.232,0-0.401-0.06-0.501-0.176s-0.198-0.307-0.294-0.572c-0.115-0.379-0.282-0.674-0.501-0.888
			c-0.218-0.212-0.609-0.318-1.177-0.318c-0.525,0-0.97,0.116-1.332,0.347c-0.364,0.23-0.573,0.509-0.631,0.831
			c-0.035,0.202-0.012,0.376,0.073,0.522c0.084,0.146,0.211,0.272,0.386,0.376c0.174,0.106,0.353,0.188,0.538,0.246
			c0.187,0.062,0.495,0.147,0.929,0.261c0.542,0.134,1.029,0.28,1.46,0.438c0.434,0.161,0.788,0.355,1.069,0.584
			c0.282,0.229,0.482,0.517,0.602,0.867C305.432,287.449,305.445,287.877,305.357,288.385z"/>
		<path d="M316.056,287.487h-1.864l-0.502,2.845c-0.072,0.406-0.223,0.715-0.45,0.925c-0.229,0.211-0.489,0.315-0.783,0.315
			c-0.306,0-0.534-0.104-0.686-0.313c-0.15-0.207-0.189-0.513-0.119-0.915l1.367-7.745c0.078-0.446,0.236-0.767,0.476-0.958
			c0.24-0.192,0.583-0.288,1.032-0.288h2.61c0.773,0,1.356,0.059,1.75,0.177c0.392,0.116,0.713,0.306,0.968,0.569
			c0.251,0.266,0.421,0.59,0.509,0.974s0.088,0.816,0.004,1.296c-0.18,1.023-0.633,1.799-1.354,2.326
			C318.288,287.225,317.303,287.487,316.056,287.487z M316.375,282.882h-1.371l-0.543,3.07h1.371c0.479,0,0.889-0.051,1.229-0.15
			c0.339-0.101,0.615-0.266,0.825-0.494c0.209-0.229,0.346-0.527,0.411-0.897c0.078-0.443,0.012-0.804-0.2-1.083
			C317.856,283.03,317.283,282.882,316.375,282.882z"/>
		<path d="M327.752,281.182c1.042,0,1.897,0.212,2.571,0.634c0.672,0.423,1.132,1.024,1.378,1.803
			c0.247,0.779,0.276,1.694,0.093,2.745c-0.138,0.776-0.366,1.482-0.689,2.118s-0.734,1.186-1.237,1.651
			c-0.502,0.466-1.081,0.823-1.737,1.069c-0.656,0.247-1.379,0.37-2.17,0.37c-0.785,0-1.467-0.127-2.044-0.381
			c-0.576-0.254-1.032-0.61-1.365-1.072c-0.335-0.462-0.552-1.017-0.65-1.665c-0.098-0.649-0.08-1.351,0.053-2.105
			c0.136-0.771,0.372-1.479,0.707-2.123c0.335-0.645,0.754-1.193,1.254-1.646c0.499-0.452,1.073-0.799,1.717-1.039
			C326.277,281.302,326.984,281.182,327.752,281.182z M329.731,286.349c0.132-0.734,0.126-1.372-0.018-1.911
			c-0.143-0.539-0.411-0.947-0.803-1.223c-0.392-0.277-0.873-0.416-1.445-0.416c-0.405,0-0.795,0.077-1.167,0.23
			c-0.372,0.152-0.709,0.375-1.009,0.668c-0.301,0.293-0.563,0.666-0.787,1.121c-0.225,0.453-0.388,0.965-0.487,1.53
			c-0.1,0.572-0.119,1.088-0.057,1.55s0.197,0.845,0.407,1.147c0.209,0.305,0.472,0.532,0.785,0.683
			c0.313,0.151,0.674,0.227,1.081,0.227c0.521,0,1.022-0.131,1.506-0.391c0.479-0.261,0.898-0.663,1.253-1.206
			C329.346,287.813,329.593,287.145,329.731,286.349z"/>
		<path d="M334.095,287.248l0.852-4.833c0.072-0.41,0.218-0.719,0.44-0.925c0.22-0.205,0.482-0.309,0.783-0.309
			c0.315,0,0.547,0.104,0.697,0.309c0.147,0.206,0.187,0.515,0.114,0.925l-0.872,4.942c-0.098,0.562-0.119,1.031-0.059,1.408
			c0.059,0.377,0.229,0.669,0.514,0.878c0.283,0.207,0.712,0.312,1.288,0.312c0.795,0,1.395-0.212,1.798-0.634
			c0.403-0.424,0.682-1.064,0.832-1.923l0.879-4.983c0.073-0.415,0.22-0.725,0.438-0.929c0.219-0.202,0.481-0.305,0.787-0.305
			c0.307,0,0.536,0.103,0.688,0.305c0.155,0.204,0.196,0.514,0.122,0.929l-0.852,4.833c-0.14,0.786-0.331,1.441-0.578,1.967
			c-0.245,0.525-0.615,0.987-1.11,1.384c-0.425,0.339-0.893,0.585-1.404,0.741c-0.513,0.154-1.093,0.232-1.74,0.232
			c-0.774,0-1.424-0.084-1.951-0.25c-0.528-0.167-0.938-0.425-1.228-0.775c-0.29-0.348-0.47-0.797-0.538-1.343
			C333.928,288.658,333.96,288.006,334.095,287.248z"/>
		<path d="M348.208,287.104h-0.713l-0.57,3.229c-0.074,0.425-0.225,0.737-0.446,0.938c-0.224,0.201-0.485,0.302-0.787,0.302
			c-0.323,0-0.557-0.104-0.697-0.315c-0.143-0.21-0.176-0.519-0.105-0.925l1.364-7.732c0.077-0.438,0.231-0.756,0.463-0.951
			c0.23-0.196,0.565-0.295,1.004-0.295h3.31c0.458,0,0.846,0.02,1.163,0.058c0.317,0.039,0.596,0.117,0.835,0.237
			c0.291,0.132,0.538,0.32,0.736,0.568c0.197,0.247,0.332,0.534,0.401,0.859c0.066,0.327,0.068,0.673,0.004,1.039
			c-0.132,0.749-0.449,1.348-0.952,1.796c-0.499,0.447-1.196,0.765-2.09,0.953c0.327,0.191,0.623,0.475,0.886,0.85
			s0.485,0.773,0.67,1.195c0.184,0.423,0.316,0.804,0.401,1.145c0.084,0.341,0.115,0.575,0.092,0.703
			c-0.023,0.132-0.088,0.265-0.196,0.395c-0.107,0.13-0.24,0.232-0.401,0.308c-0.158,0.076-0.335,0.113-0.526,0.113
			c-0.228,0-0.409-0.054-0.547-0.16c-0.137-0.109-0.246-0.244-0.328-0.408c-0.085-0.165-0.192-0.406-0.329-0.727l-0.576-1.357
			c-0.205-0.498-0.399-0.877-0.583-1.138c-0.187-0.261-0.388-0.438-0.609-0.534C348.857,287.151,348.568,287.104,348.208,287.104z
			 M350.117,282.882h-1.878l-0.488,2.762h1.823c0.49,0,0.907-0.042,1.256-0.126c0.351-0.085,0.628-0.229,0.842-0.433
			c0.211-0.203,0.349-0.482,0.411-0.839c0.049-0.279,0.021-0.524-0.082-0.737c-0.106-0.212-0.272-0.371-0.506-0.477
			C351.274,282.932,350.816,282.882,350.117,282.882z"/>
		<path d="M363.302,282.415l-1.288,7.313h4.126c0.329,0,0.565,0.08,0.715,0.239c0.146,0.16,0.199,0.362,0.156,0.604
			c-0.043,0.246-0.165,0.446-0.366,0.599c-0.2,0.154-0.466,0.23-0.801,0.23h-4.913c-0.444,0-0.746-0.1-0.905-0.296
			c-0.16-0.195-0.201-0.513-0.123-0.953l1.365-7.737c0.072-0.41,0.217-0.719,0.44-0.925c0.219-0.205,0.481-0.309,0.783-0.309
			c0.308,0,0.536,0.103,0.689,0.305C363.335,281.69,363.376,282,363.302,282.415z"/>
		<path d="M377.02,282.922h-4.587l-0.435,2.469h4.223c0.309,0,0.53,0.069,0.659,0.208c0.128,0.141,0.171,0.323,0.132,0.553
			c-0.041,0.228-0.149,0.414-0.325,0.559c-0.177,0.144-0.421,0.215-0.736,0.215h-4.222l-0.506,2.858h4.743
			c0.321,0,0.548,0.075,0.686,0.224c0.135,0.147,0.182,0.345,0.137,0.592c-0.041,0.238-0.156,0.432-0.345,0.579
			c-0.188,0.149-0.442,0.224-0.762,0.224h-5.532c-0.442,0-0.744-0.1-0.902-0.296c-0.161-0.195-0.202-0.513-0.125-0.953l1.333-7.553
			c0.051-0.292,0.135-0.53,0.255-0.715c0.121-0.185,0.28-0.32,0.479-0.405c0.2-0.084,0.444-0.126,0.732-0.126h5.373
			c0.323,0,0.553,0.071,0.684,0.216c0.134,0.144,0.181,0.332,0.138,0.565c-0.041,0.237-0.153,0.428-0.337,0.572
			C377.597,282.852,377.343,282.922,377.02,282.922z"/>
		<path d="M387.469,291.401h-3.071c-0.442,0-0.742-0.101-0.896-0.298c-0.154-0.199-0.193-0.515-0.117-0.951l1.333-7.553
			c0.076-0.442,0.231-0.762,0.461-0.954c0.227-0.195,0.558-0.292,0.992-0.292h3.255c0.479,0,0.891,0.03,1.231,0.089
			c0.341,0.06,0.637,0.174,0.888,0.342c0.211,0.142,0.39,0.321,0.534,0.538c0.145,0.218,0.241,0.458,0.292,0.721
			c0.049,0.262,0.049,0.54-0.004,0.832c-0.177,1.006-0.809,1.741-1.896,2.207c1.245,0.421,1.762,1.238,1.547,2.454
			c-0.1,0.563-0.333,1.068-0.699,1.518c-0.368,0.45-0.814,0.783-1.342,0.997c-0.329,0.128-0.697,0.219-1.103,0.271
			C388.467,291.375,387.999,291.401,387.469,291.401z M388.104,286.939h-2.118l-0.518,2.934h2.188c1.375,0,2.15-0.496,2.324-1.488
			c0.091-0.508-0.023-0.875-0.339-1.103C389.325,287.053,388.812,286.939,388.104,286.939z M386.703,282.882l-0.459,2.598h1.864
			c0.508,0,0.907-0.048,1.201-0.146c0.293-0.095,0.536-0.277,0.73-0.547c0.148-0.191,0.242-0.407,0.285-0.645
			c0.089-0.507-0.031-0.845-0.364-1.011c-0.331-0.167-0.867-0.25-1.607-0.25H386.703z"/>
		<path d="M400.606,290.264l-0.259-1.262h-4.085l-0.707,1.289c-0.275,0.502-0.495,0.842-0.659,1.017
			c-0.163,0.177-0.396,0.265-0.697,0.265c-0.255,0-0.465-0.093-0.629-0.281c-0.164-0.187-0.226-0.399-0.183-0.637
			c0.024-0.138,0.071-0.279,0.144-0.425c0.072-0.146,0.184-0.35,0.335-0.61l3.721-6.525c0.105-0.187,0.232-0.412,0.382-0.675
			c0.148-0.263,0.298-0.481,0.444-0.654c0.146-0.175,0.325-0.314,0.534-0.422c0.208-0.106,0.451-0.161,0.73-0.161
			c0.282,0,0.51,0.055,0.682,0.161c0.171,0.107,0.3,0.245,0.384,0.415c0.088,0.168,0.155,0.351,0.2,0.544
			c0.045,0.195,0.102,0.454,0.168,0.778l1.482,6.484c0.117,0.493,0.157,0.852,0.117,1.076c-0.041,0.232-0.176,0.446-0.403,0.641
			c-0.229,0.194-0.479,0.291-0.754,0.291c-0.16,0-0.291-0.028-0.397-0.086c-0.104-0.057-0.186-0.134-0.246-0.233
			c-0.06-0.098-0.116-0.248-0.171-0.452C400.687,290.598,400.642,290.418,400.606,290.264z M397.067,287.474h3.002l-0.783-4.146
			L397.067,287.474z M400.238,280.141l-0.545-0.803l-0.826,0.803c-0.232,0.229-0.388,0.367-0.464,0.418
			c-0.078,0.05-0.21,0.074-0.397,0.074h-0.549c-0.186,0-0.273-0.031-0.264-0.095c0.01-0.05,0.1-0.165,0.273-0.344l0.921-0.911
			c0.078-0.077,0.166-0.168,0.269-0.271c0.1-0.103,0.184-0.176,0.252-0.22c0.07-0.043,0.167-0.077,0.29-0.103
			s0.263-0.037,0.419-0.037h0.384c0.302,0,0.501,0.036,0.6,0.109c0.1,0.073,0.234,0.247,0.405,0.521l0.625,0.926
			c0.102,0.173,0.15,0.276,0.145,0.309c-0.014,0.077-0.123,0.115-0.329,0.115h-0.521c-0.138,0-0.243-0.019-0.315-0.058
			c-0.072-0.038-0.14-0.099-0.198-0.182C400.354,280.312,400.297,280.228,400.238,280.141z"/>
		<path d="M412.774,283.032h-2.221l-1.288,7.3c-0.072,0.42-0.224,0.732-0.444,0.935c-0.224,0.204-0.484,0.306-0.781,0.306
			c-0.302,0-0.529-0.103-0.684-0.309c-0.153-0.205-0.192-0.517-0.119-0.932l1.288-7.3h-2.221c-0.349,0-0.592-0.076-0.734-0.229
			s-0.191-0.354-0.146-0.606c0.045-0.261,0.17-0.466,0.374-0.617c0.201-0.15,0.468-0.226,0.803-0.226h6.47
			c0.351,0,0.6,0.077,0.744,0.231c0.143,0.157,0.194,0.359,0.148,0.611c-0.045,0.252-0.166,0.453-0.367,0.606
			C413.396,282.956,413.121,283.032,412.774,283.032z"/>
		<path d="M414.518,290.332l1.396-7.917c0.072-0.41,0.221-0.719,0.444-0.925c0.224-0.205,0.483-0.309,0.781-0.309
			c0.306,0,0.536,0.103,0.689,0.305c0.154,0.204,0.193,0.514,0.121,0.929l-1.396,7.917c-0.074,0.415-0.223,0.727-0.45,0.932
			c-0.225,0.206-0.489,0.309-0.797,0.309c-0.292,0-0.515-0.104-0.668-0.313C414.486,291.053,414.445,290.743,414.518,290.332z"/>
		<path d="M423.003,289.887l-0.482-6.401l-1.224,6.936c-0.066,0.384-0.203,0.672-0.407,0.863c-0.208,0.192-0.45,0.288-0.734,0.288
			c-0.274,0-0.481-0.095-0.621-0.284c-0.141-0.189-0.176-0.479-0.107-0.867l1.402-7.95c0.076-0.439,0.243-0.734,0.499-0.888
			c0.255-0.153,0.576-0.229,0.966-0.229h0.63c0.378,0,0.648,0.034,0.81,0.103c0.156,0.067,0.262,0.192,0.313,0.37
			c0.052,0.179,0.095,0.468,0.128,0.87l0.489,5.504l2.431-5.504c0.176-0.402,0.32-0.691,0.435-0.87
			c0.113-0.178,0.263-0.303,0.446-0.37c0.184-0.068,0.464-0.103,0.844-0.103h0.631c0.388,0,0.684,0.076,0.885,0.229
			c0.2,0.153,0.263,0.448,0.187,0.888l-1.402,7.95c-0.068,0.384-0.204,0.672-0.409,0.863c-0.206,0.192-0.452,0.288-0.74,0.288
			c-0.269,0-0.474-0.096-0.613-0.288c-0.141-0.191-0.176-0.479-0.109-0.863l1.224-6.936l-2.739,6.401
			c-0.178,0.415-0.317,0.721-0.419,0.914c-0.1,0.195-0.253,0.371-0.46,0.532c-0.206,0.159-0.467,0.239-0.781,0.239
			c-0.239,0-0.432-0.052-0.576-0.153c-0.146-0.104-0.253-0.235-0.315-0.395c-0.063-0.161-0.104-0.337-0.121-0.532
			C423.038,290.299,423.021,290.096,423.003,289.887z"/>
		<path d="M439.854,282.922h-4.584l-0.438,2.469h4.223c0.311,0,0.53,0.069,0.659,0.208c0.128,0.141,0.173,0.323,0.132,0.553
			c-0.039,0.228-0.147,0.414-0.323,0.559c-0.177,0.144-0.423,0.215-0.738,0.215h-4.222l-0.504,2.858h4.743
			c0.319,0,0.548,0.075,0.684,0.224c0.135,0.147,0.182,0.345,0.139,0.592c-0.043,0.238-0.156,0.432-0.345,0.579
			c-0.189,0.149-0.442,0.224-0.764,0.224h-5.53c-0.444,0-0.746-0.1-0.904-0.296c-0.16-0.195-0.202-0.513-0.123-0.953l1.331-7.553
			c0.051-0.292,0.138-0.53,0.257-0.715s0.278-0.32,0.479-0.405c0.198-0.084,0.442-0.126,0.73-0.126h5.373
			c0.325,0,0.555,0.071,0.686,0.216c0.134,0.144,0.179,0.332,0.138,0.565c-0.041,0.237-0.155,0.428-0.339,0.572
			C440.431,282.852,440.179,282.922,439.854,282.922z"/>
		<path d="M446.041,282.402l2.869,5.922l1.054-5.979c0.068-0.387,0.203-0.678,0.405-0.873c0.201-0.193,0.442-0.291,0.727-0.291
			c0.292,0,0.505,0.098,0.641,0.291c0.135,0.195,0.168,0.486,0.1,0.873l-1.395,7.904c-0.154,0.881-0.598,1.322-1.33,1.322
			c-0.182,0-0.342-0.026-0.479-0.079c-0.135-0.053-0.258-0.135-0.366-0.25c-0.107-0.114-0.203-0.247-0.286-0.4
			c-0.082-0.153-0.164-0.31-0.246-0.47l-2.785-5.854l-1.037,5.887c-0.069,0.384-0.21,0.675-0.422,0.871
			c-0.213,0.197-0.458,0.295-0.737,0.295c-0.288,0-0.502-0.099-0.641-0.298c-0.138-0.199-0.175-0.487-0.105-0.868l1.366-7.751
			c0.057-0.329,0.14-0.587,0.245-0.774c0.123-0.205,0.298-0.373,0.521-0.503c0.224-0.13,0.452-0.196,0.686-0.196
			c0.185,0,0.335,0.029,0.454,0.089c0.12,0.061,0.22,0.14,0.302,0.24c0.08,0.101,0.156,0.231,0.233,0.391
			C445.885,282.062,445.963,282.228,446.041,282.402z"/>
		<path d="M461.169,283.032h-2.221l-1.287,7.3c-0.074,0.42-0.223,0.732-0.446,0.935c-0.223,0.204-0.483,0.306-0.779,0.306
			c-0.302,0-0.53-0.103-0.684-0.309c-0.152-0.205-0.193-0.517-0.119-0.932l1.286-7.3h-2.221c-0.346,0-0.591-0.076-0.733-0.229
			c-0.142-0.153-0.19-0.354-0.147-0.606c0.047-0.261,0.171-0.466,0.374-0.617c0.202-0.15,0.47-0.226,0.803-0.226h6.471
			c0.352,0,0.599,0.077,0.744,0.231c0.143,0.157,0.193,0.359,0.148,0.611c-0.043,0.252-0.166,0.453-0.366,0.606
			S461.518,283.032,461.169,283.032z"/>
	</g>
	<g>
		<path d="M468.661,200.961c0.865,0,1.684,0.161,2.453,0.484s1.449,0.778,2.037,1.366c0.587,0.588,1.042,1.266,1.364,2.036
			c0.323,0.77,0.484,1.588,0.484,2.454c0,1.148-0.282,2.208-0.849,3.183c-0.565,0.974-1.335,1.744-2.309,2.309
			c-0.975,0.565-2.034,0.849-3.182,0.849s-2.209-0.283-3.185-0.849c-0.973-0.565-1.742-1.335-2.309-2.309
			c-0.565-0.974-0.848-2.035-0.848-3.183s0.282-2.208,0.848-3.182c0.566-0.975,1.336-1.744,2.309-2.31
			C466.452,201.243,467.514,200.961,468.661,200.961z M468.677,202.202c-0.923,0-1.774,0.228-2.558,0.683
			c-0.783,0.455-1.404,1.075-1.862,1.858c-0.458,0.784-0.688,1.636-0.688,2.558c0,0.922,0.231,1.775,0.691,2.562
			c0.46,0.787,1.083,1.406,1.866,1.858c0.783,0.453,1.633,0.679,2.55,0.679c0.932,0,1.786-0.228,2.562-0.683
			c0.775-0.455,1.39-1.075,1.843-1.858c0.452-0.784,0.677-1.636,0.677-2.558c0-0.927-0.225-1.782-0.677-2.566
			c-0.453-0.783-1.069-1.402-1.847-1.854S469.603,202.202,468.677,202.202z M467.171,210.694h-1.375v-6.729h3.187
			c0.497,0,0.914,0.078,1.251,0.236c0.337,0.157,0.59,0.38,0.762,0.67c0.171,0.29,0.257,0.625,0.257,1.005
			c0,0.475-0.161,0.885-0.482,1.229c-0.318,0.345-0.764,0.556-1.331,0.633c0.292,0.111,0.528,0.274,0.707,0.493
			c0.18,0.218,0.419,0.586,0.717,1.105l0.795,1.357h-1.698l-0.554-1.084c-0.259-0.485-0.479-0.846-0.662-1.08
			c-0.182-0.234-0.364-0.393-0.546-0.476c-0.183-0.083-0.406-0.125-0.67-0.125h-0.356V210.694z M467.171,205.033v1.829h1.101
			c0.497,0,0.875-0.064,1.134-0.194c0.258-0.129,0.39-0.388,0.39-0.774c0-0.265-0.113-0.474-0.341-0.629
			c-0.226-0.154-0.576-0.231-1.05-0.231H467.171z"/>
	</g>
</g>
</svg>
