<?xml version="1.0" encoding="utf-8"?>
<!-- Generator: Adobe Illustrator 19.1.0, SVG Export Plug-In . SVG Version: 6.00 Build 0)  -->
<svg version="1.1" id="Calque_2" xmlns="http://www.w3.org/2000/svg" xmlns:xlink="http://www.w3.org/1999/xlink" x="0px" y="0px"
	 viewBox="0 0 500 500" style="enable-background:new 0 0 500 500;" xml:space="preserve">
<style type="text/css">
	.st0{fill:#9C9E9F;}
	.st1{fill:#298364;}
	.st2{fill:#BFB1AA;}
	.st3{fill:#729439;}
</style>
<g>
	<path class="st0" d="M98.6,178.4c39.5,0,71.6,32.1,71.6,71.6c0,39.5-32.1,71.6-71.6,71.6S27,289.5,27,250
		C27,210.5,59.1,178.4,98.6,178.4 M98.6,176.4C57.9,176.4,25,209.4,25,250c0,40.6,32.9,73.6,73.6,73.6s73.6-32.9,73.6-73.6
		S139.2,176.4,98.6,176.4L98.6,176.4z"/>
	<g>
		<path class="st1" d="M126.1,248.1h38.7c-1.2-35.3-30.2-63.5-65.7-63.5s-64.5,28.2-65.7,63.5H72v-25.4h-4.5l31.6-24.2l11,8.5v-8
			h9.1v15l11.4,8.7h-4.5L126.1,248.1L126.1,248.1z"/>
	</g>
	<g>
		<g>
			<polygon class="st2" points="76.7,275 83.7,275 80.2,265.4 			"/>
		</g>
		<g>
			<path class="st2" d="M59.9,265.1c-1-0.3-2.2-0.5-3.7-0.5h-3.1v15.7h3.6c0.8,0,1.4,0,1.8-0.1c0.4,0,0.9-0.1,1.4-0.3
				c0.5-0.2,0.9-0.4,1.2-0.7c1.6-1.3,2.4-3.6,2.4-6.9c0-2.3-0.3-4-1-5.1S60.9,265.4,59.9,265.1z"/>
		</g>
		<g>
			<path class="st2" d="M143.7,264.4h-3.2v7.1h3.2c1.1,0,2-0.1,2.8-0.3c0.7-0.2,1.3-0.6,1.7-1.1c0.4-0.5,0.6-1.2,0.6-2.1
				c0-1-0.3-1.9-0.9-2.5C147.2,264.7,145.8,264.4,143.7,264.4z"/>
		</g>
		<g>
			<path class="st2" d="M33.3,253c1.4,35.1,30.3,63.2,65.7,63.2s64.4-28.1,65.7-63.2L33.3,253L33.3,253z M67.9,276.2
				c-0.2,1.1-0.6,2.2-1.1,3.1c-0.5,0.9-1.2,1.7-2,2.5c-0.6,0.6-1.3,1-2,1.3c-0.7,0.3-1.5,0.6-2.4,0.7c-0.9,0.1-1.8,0.2-2.9,0.2h-6.1
				c-0.9,0-1.5-0.1-1.9-0.4c-0.4-0.3-0.7-0.6-0.8-1.1c-0.1-0.5-0.2-1.1-0.2-1.8v-17c0-1,0.2-1.7,0.7-2.2s1.2-0.7,2.2-0.7h6.1
				c1.6,0,3,0.1,4.1,0.4c1.1,0.3,2.2,0.9,3.1,1.7c2.4,2.1,3.6,5.2,3.6,9.4C68.3,273.8,68.2,275.1,67.9,276.2z M90.4,283.8
				c-0.4,0.4-1,0.7-1.6,0.7c-0.4,0-0.7-0.1-1-0.2c-0.3-0.1-0.5-0.3-0.7-0.5c-0.2-0.2-0.4-0.6-0.6-1c-0.2-0.5-0.4-0.9-0.5-1.2
				l-1.1-2.9h-9.5l-1.1,3c-0.4,1.2-0.8,1.9-1.1,2.3c-0.3,0.4-0.8,0.6-1.5,0.6c-0.6,0-1.1-0.2-1.6-0.6s-0.7-0.9-0.7-1.5
				c0-0.3,0.1-0.6,0.2-1c0.1-0.3,0.3-0.8,0.5-1.4l5.9-15c0.2-0.4,0.4-1,0.6-1.6c0.2-0.6,0.5-1.1,0.8-1.5c0.3-0.4,0.6-0.7,1.1-1
				c0.4-0.2,1-0.4,1.6-0.4c0.7,0,1.2,0.1,1.6,0.4c0.4,0.2,0.8,0.6,1.1,1c0.3,0.4,0.5,0.8,0.7,1.3c0.2,0.4,0.4,1,0.7,1.8l6.1,14.9
				c0.5,1.1,0.7,2,0.7,2.5C91.1,282.8,90.9,283.3,90.4,283.8z M110.5,283.5c-0.4,0.4-1,0.5-1.8,0.5H97.3c-1,0-1.8-0.2-2.2-0.7
				c-0.4-0.5-0.7-1.2-0.7-2.2v-17.8c0-0.9,0.2-1.7,0.6-2.1c0.4-0.5,1-0.7,1.7-0.7c0.7,0,1.3,0.2,1.7,0.7c0.4,0.5,0.7,1.2,0.7,2.1
				v16.9h9.5c0.8,0,1.3,0.2,1.8,0.6c0.4,0.4,0.6,0.8,0.6,1.4C111.1,282.7,110.9,283.2,110.5,283.5z M131.5,283.5
				c-0.4,0.3-0.9,0.5-1.7,0.5h-12.8c-1,0-1.8-0.2-2.2-0.7s-0.7-1.2-0.7-2.2v-17.4c0-0.7,0.1-1.2,0.3-1.7c0.2-0.4,0.5-0.7,0.9-0.9
				c0.4-0.2,1-0.3,1.6-0.3h12.4c0.8,0,1.3,0.2,1.7,0.5c0.4,0.3,0.5,0.8,0.5,1.3c0,0.5-0.2,1-0.5,1.3c-0.4,0.3-0.9,0.5-1.7,0.5h-10.6
				v5.7h9.8c0.7,0,1.3,0.2,1.6,0.5c0.4,0.3,0.5,0.7,0.5,1.3c0,0.5-0.2,1-0.5,1.3c-0.3,0.3-0.9,0.5-1.6,0.5h-9.8v6.6h11
				c0.7,0,1.3,0.2,1.7,0.5c0.4,0.3,0.6,0.8,0.6,1.4C132.1,282.7,131.9,283.2,131.5,283.5z M151.4,273.2c-1.5,1.2-3.6,1.8-6.5,1.8
				h-4.3v6.6c0,0.9-0.2,1.7-0.7,2.1s-1,0.7-1.7,0.7c-0.7,0-1.3-0.2-1.7-0.7c-0.4-0.5-0.7-1.2-0.7-2.1v-17.9c0-1,0.2-1.8,0.7-2.2
				c0.5-0.4,1.2-0.7,2.3-0.7h6c1.8,0,3.2,0.1,4.1,0.4c1,0.3,1.8,0.7,2.5,1.3c0.7,0.6,1.2,1.4,1.6,2.2c0.4,0.9,0.5,1.9,0.5,3
				C153.6,270.2,152.8,272,151.4,273.2z"/>
		</g>
	</g>
	<g>
		<path class="st3" d="M125.6,247.7h38.7c-1.2-35.3-30.2-63.5-65.7-63.5S34,212.4,32.8,247.7h38.6v-25.4h-4.5l31.6-24.2l11,8.5v-8
			h9.1v15l11.4,8.7h-4.5V247.7z"/>
	</g>
	<g>
		<path d="M205.6,212h15.3c4,0,7.4,0.4,10.3,1.1c2.8,0.7,5.4,2.1,7.8,4.1c6,5.2,9.1,13,9.1,23.5c0,3.5-0.3,6.6-0.9,9.5
			c-0.6,2.9-1.5,5.4-2.8,7.7c-1.3,2.3-2.9,4.4-4.9,6.2c-1.6,1.4-3.3,2.5-5.1,3.4c-1.8,0.8-3.8,1.4-6,1.8c-2.1,0.3-4.5,0.5-7.2,0.5
			h-15.3c-2.1,0-3.7-0.3-4.8-1c-1.1-0.6-1.8-1.6-2.1-2.7c-0.3-1.2-0.5-2.7-0.5-4.6v-42.4c0-2.5,0.6-4.4,1.7-5.5
			C201.2,212.6,203,212,205.6,212z M210.1,221.3v39.2h8.9c2,0,3.5-0.1,4.6-0.2c1.1-0.1,2.3-0.4,3.4-0.8c1.2-0.4,2.2-1,3.1-1.8
			c3.9-3.3,5.9-9,5.9-17.1c0-5.7-0.9-10-2.6-12.8c-1.7-2.8-3.9-4.6-6.4-5.4c-2.5-0.8-5.6-1.2-9.2-1.2H210.1z"/>
		<path d="M292.3,263.3l-2.8-7.3h-23.6l-2.8,7.4c-1.1,2.9-2,4.8-2.8,5.9s-2,1.5-3.8,1.5c-1.5,0-2.8-0.5-3.9-1.6
			c-1.1-1.1-1.7-2.3-1.7-3.7c0-0.8,0.1-1.6,0.4-2.4c0.3-0.8,0.7-2,1.3-3.5l14.8-37.5c0.4-1.1,0.9-2.4,1.5-3.9
			c0.6-1.5,1.2-2.8,1.9-3.8c0.7-1,1.6-1.8,2.7-2.4c1.1-0.6,2.4-0.9,4.1-0.9c1.6,0,3,0.3,4.1,0.9s2,1.4,2.7,2.4c0.7,1,1.2,2,1.7,3.1
			c0.5,1.1,1,2.6,1.8,4.5l15.2,37.3c1.2,2.8,1.8,4.9,1.8,6.2c0,1.3-0.6,2.6-1.7,3.7s-2.5,1.7-4.1,1.7c-0.9,0-1.7-0.2-2.4-0.5
			c-0.7-0.3-1.2-0.8-1.7-1.3c-0.4-0.6-0.9-1.4-1.4-2.6C293.1,265.2,292.7,264.2,292.3,263.3z M269,247.2h17.3l-8.7-23.9L269,247.2z"
			/>
		<path d="M325,218.1v42.1h23.8c1.9,0,3.4,0.5,4.4,1.4c1,0.9,1.5,2.1,1.5,3.5c0,1.4-0.5,2.6-1.5,3.5c-1,0.9-2.5,1.3-4.4,1.3h-28.4
			c-2.6,0-4.4-0.6-5.5-1.7c-1.1-1.1-1.7-3-1.7-5.5v-44.5c0-2.4,0.5-4.1,1.6-5.3c1.1-1.2,2.5-1.8,4.2-1.8c1.8,0,3.2,0.6,4.3,1.8
			C324.4,214,325,215.8,325,218.1z"/>
		<path d="M400.7,221.1h-26.5v14.2h24.4c1.8,0,3.1,0.4,4,1.2c0.9,0.8,1.3,1.9,1.3,3.2c0,1.3-0.4,2.4-1.3,3.2c-0.9,0.8-2.2,1.2-4,1.2
			h-24.4v16.4h27.4c1.8,0,3.2,0.4,4.2,1.3c0.9,0.9,1.4,2,1.4,3.4c0,1.4-0.5,2.5-1.4,3.3c-0.9,0.9-2.3,1.3-4.2,1.3h-31.9
			c-2.6,0-4.4-0.6-5.5-1.7c-1.1-1.1-1.7-3-1.7-5.5v-43.5c0-1.7,0.2-3.1,0.8-4.1c0.5-1.1,1.3-1.8,2.4-2.3c1.1-0.5,2.4-0.7,4.1-0.7h31
			c1.9,0,3.3,0.4,4.2,1.2c0.9,0.8,1.4,1.9,1.4,3.3c0,1.4-0.5,2.5-1.4,3.3C403.9,220.7,402.5,221.1,400.7,221.1z"/>
		<path d="M439,247.3h-10.8v16.4c0,2.3-0.6,4.1-1.7,5.3c-1.1,1.2-2.5,1.8-4.2,1.8c-1.8,0-3.2-0.6-4.3-1.8c-1.1-1.2-1.6-3-1.6-5.3
			v-44.6c0-2.6,0.6-4.4,1.8-5.5c1.2-1.1,3.1-1.7,5.7-1.7H439c4.5,0,7.9,0.3,10.3,1c2.4,0.7,4.4,1.7,6.2,3.3c1.7,1.5,3,3.4,3.9,5.6
			c0.9,2.2,1.3,4.7,1.3,7.5c0,5.9-1.8,10.4-5.5,13.4C451.6,245.8,446.2,247.3,439,247.3z M436.2,220.8h-7.9v17.7h7.9
			c2.8,0,5.1-0.3,6.9-0.9c1.9-0.6,3.3-1.5,4.3-2.8c1-1.3,1.5-3,1.5-5.2c0-2.6-0.8-4.6-2.3-6.2C444.9,221.7,441.4,220.8,436.2,220.8z
			"/>
	</g>
	<g>
		<g>
			<polygon points="76.2,274.6 83.2,274.6 79.7,265 			"/>
		</g>
		<g>
			<path d="M59.4,264.6c-1-0.3-2.2-0.5-3.7-0.5h-3.1v15.7h3.6c0.8,0,1.4,0,1.8-0.1c0.4,0,0.9-0.1,1.4-0.3c0.5-0.2,0.9-0.4,1.2-0.7
				c1.6-1.3,2.4-3.6,2.4-6.9c0-2.3-0.3-4-1-5.1C61.3,265.7,60.4,265,59.4,264.6z"/>
		</g>
		<g>
			<path d="M143.2,264H140v7.1h3.2c1.1,0,2-0.1,2.8-0.3c0.7-0.2,1.3-0.6,1.7-1.1c0.4-0.5,0.6-1.2,0.6-2.1c0-1-0.3-1.9-0.9-2.5
				C146.7,264.3,145.3,264,143.2,264z"/>
		</g>
		<g>
			<path d="M32.8,252.6c1.4,35.1,30.3,63.2,65.7,63.2s64.4-28.1,65.7-63.2L32.8,252.6L32.8,252.6z M67.4,275.8
				c-0.2,1.1-0.6,2.2-1.1,3.1c-0.5,0.9-1.2,1.7-2,2.5c-0.6,0.6-1.3,1-2,1.3s-1.5,0.6-2.4,0.7c-0.9,0.1-1.8,0.2-2.9,0.2h-6.1
				c-0.9,0-1.5-0.1-1.9-0.4c-0.4-0.3-0.7-0.6-0.8-1.1c-0.1-0.5-0.2-1.1-0.2-1.8v-17c0-1,0.2-1.7,0.7-2.2c0.5-0.5,1.2-0.7,2.2-0.7
				h6.1c1.6,0,3,0.1,4.1,0.4c1.1,0.3,2.2,0.9,3.1,1.7c2.4,2.1,3.6,5.2,3.6,9.4C67.8,273.4,67.7,274.6,67.4,275.8z M89.9,283.4
				c-0.4,0.4-1,0.7-1.6,0.7c-0.4,0-0.7-0.1-1-0.2c-0.3-0.1-0.5-0.3-0.7-0.5c-0.2-0.2-0.4-0.6-0.6-1s-0.4-0.9-0.5-1.2l-1.1-2.9H75
				l-1.1,3c-0.4,1.2-0.8,1.9-1.1,2.3c-0.3,0.4-0.8,0.6-1.5,0.6c-0.6,0-1.1-0.2-1.6-0.6c-0.5-0.4-0.7-0.9-0.7-1.5
				c0-0.3,0.1-0.6,0.2-1c0.1-0.3,0.3-0.8,0.5-1.4l5.9-15c0.2-0.4,0.4-1,0.6-1.6c0.2-0.6,0.5-1.1,0.8-1.5c0.3-0.4,0.6-0.7,1.1-1
				c0.4-0.2,1-0.4,1.6-0.4c0.7,0,1.2,0.1,1.6,0.4c0.4,0.2,0.8,0.6,1.1,1c0.3,0.4,0.5,0.8,0.7,1.3c0.2,0.4,0.4,1,0.7,1.8l6.1,14.9
				c0.5,1.1,0.7,2,0.7,2.5C90.6,282.4,90.4,282.9,89.9,283.4z M110,283.1c-0.4,0.4-1,0.5-1.8,0.5H96.8c-1,0-1.8-0.2-2.2-0.7
				c-0.4-0.5-0.7-1.2-0.7-2.2v-17.8c0-0.9,0.2-1.7,0.6-2.1c0.4-0.5,1-0.7,1.7-0.7c0.7,0,1.3,0.2,1.7,0.7c0.4,0.5,0.7,1.2,0.7,2.1
				v16.9h9.5c0.8,0,1.3,0.2,1.8,0.6c0.4,0.4,0.6,0.8,0.6,1.4C110.6,282.3,110.4,282.7,110,283.1z M131,283.1
				c-0.4,0.3-0.9,0.5-1.7,0.5h-12.8c-1,0-1.8-0.2-2.2-0.7c-0.4-0.5-0.7-1.2-0.7-2.2v-17.4c0-0.7,0.1-1.2,0.3-1.7
				c0.2-0.4,0.5-0.7,0.9-0.9c0.4-0.2,1-0.3,1.6-0.3H129c0.8,0,1.3,0.2,1.7,0.5s0.5,0.8,0.5,1.3c0,0.5-0.2,1-0.5,1.3
				c-0.4,0.3-0.9,0.5-1.7,0.5h-10.6v5.7h9.8c0.7,0,1.3,0.2,1.6,0.5c0.4,0.3,0.5,0.7,0.5,1.3c0,0.5-0.2,1-0.5,1.3s-0.9,0.5-1.6,0.5
				h-9.8v6.6h11c0.7,0,1.3,0.2,1.7,0.5c0.4,0.3,0.6,0.8,0.6,1.4C131.6,282.3,131.4,282.8,131,283.1z M150.9,272.8
				c-1.5,1.2-3.6,1.8-6.5,1.8H140v6.6c0,0.9-0.2,1.6-0.7,2.1c-0.4,0.5-1,0.7-1.7,0.7c-0.7,0-1.3-0.2-1.7-0.7
				c-0.4-0.5-0.6-1.2-0.6-2.1v-17.9c0-1,0.2-1.8,0.7-2.2s1.2-0.7,2.3-0.7h6c1.8,0,3.2,0.1,4.1,0.4c1,0.3,1.8,0.7,2.5,1.3
				c0.7,0.6,1.2,1.4,1.6,2.2c0.4,0.9,0.5,1.9,0.5,3C153.1,269.8,152.3,271.6,150.9,272.8z"/>
		</g>
	</g>
	<g>
		<path d="M206.2,283H204l-1.3,7.3c-0.1,0.4-0.2,0.7-0.4,0.9c-0.2,0.2-0.5,0.3-0.8,0.3c-0.3,0-0.5-0.1-0.7-0.3
			c-0.2-0.2-0.2-0.5-0.1-0.9l1.3-7.3h-2.2c-0.3,0-0.6-0.1-0.7-0.2s-0.2-0.4-0.1-0.6c0-0.3,0.2-0.5,0.4-0.6c0.2-0.1,0.5-0.2,0.8-0.2
			h6.5c0.4,0,0.6,0.1,0.7,0.2c0.1,0.2,0.2,0.4,0.1,0.6c0,0.3-0.2,0.5-0.4,0.6C206.8,283,206.5,283,206.2,283z"/>
		<path d="M211.2,287.1h-0.7l-0.6,3.2c-0.1,0.4-0.2,0.7-0.4,0.9s-0.5,0.3-0.8,0.3c-0.3,0-0.6-0.1-0.7-0.3c-0.1-0.2-0.2-0.5-0.1-0.9
			l1.4-7.7c0.1-0.4,0.2-0.8,0.5-1c0.2-0.2,0.6-0.3,1-0.3h3.3c0.5,0,0.8,0,1.2,0.1c0.3,0,0.6,0.1,0.8,0.2c0.3,0.1,0.5,0.3,0.7,0.6
			c0.2,0.2,0.3,0.5,0.4,0.9c0.1,0.3,0.1,0.7,0,1c-0.1,0.7-0.4,1.3-1,1.8c-0.5,0.4-1.2,0.8-2.1,1c0.3,0.2,0.6,0.5,0.9,0.9
			c0.3,0.4,0.5,0.8,0.7,1.2c0.2,0.4,0.3,0.8,0.4,1.1c0.1,0.3,0.1,0.6,0.1,0.7c0,0.1-0.1,0.3-0.2,0.4c-0.1,0.1-0.2,0.2-0.4,0.3
			c-0.2,0.1-0.3,0.1-0.5,0.1c-0.2,0-0.4-0.1-0.5-0.2c-0.1-0.1-0.2-0.2-0.3-0.4c-0.1-0.2-0.2-0.4-0.3-0.7l-0.6-1.4
			c-0.2-0.5-0.4-0.9-0.6-1.1c-0.2-0.3-0.4-0.4-0.6-0.5C211.8,287.2,211.5,287.1,211.2,287.1z M213.1,282.9h-1.9l-0.5,2.8h1.8
			c0.5,0,0.9,0,1.3-0.1c0.3-0.1,0.6-0.2,0.8-0.4c0.2-0.2,0.3-0.5,0.4-0.8c0-0.3,0-0.5-0.1-0.7c-0.1-0.2-0.3-0.4-0.5-0.5
			C214.2,282.9,213.8,282.9,213.1,282.9z"/>
		<path d="M225.1,290.3l-0.3-1.3h-4.1l-0.7,1.3c-0.3,0.5-0.5,0.8-0.7,1c-0.2,0.2-0.4,0.3-0.7,0.3c-0.3,0-0.5-0.1-0.6-0.3
			c-0.2-0.2-0.2-0.4-0.2-0.6c0-0.1,0.1-0.3,0.1-0.4c0.1-0.1,0.2-0.4,0.3-0.6l3.7-6.5c0.1-0.2,0.2-0.4,0.4-0.7
			c0.1-0.3,0.3-0.5,0.4-0.7c0.1-0.2,0.3-0.3,0.5-0.4c0.2-0.1,0.5-0.2,0.7-0.2c0.3,0,0.5,0.1,0.7,0.2c0.2,0.1,0.3,0.2,0.4,0.4
			c0.1,0.2,0.2,0.4,0.2,0.5c0,0.2,0.1,0.5,0.2,0.8l1.5,6.5c0.1,0.5,0.2,0.9,0.1,1.1c0,0.2-0.2,0.4-0.4,0.6c-0.2,0.2-0.5,0.3-0.8,0.3
			c-0.2,0-0.3,0-0.4-0.1c-0.1-0.1-0.2-0.1-0.2-0.2c-0.1-0.1-0.1-0.2-0.2-0.5C225.2,290.6,225.1,290.4,225.1,290.3z M221.6,287.5h3
			l-0.8-4.1L221.6,287.5z"/>
		<path d="M229.5,290.3l1.4-7.9c0.1-0.4,0.2-0.7,0.4-0.9c0.2-0.2,0.5-0.3,0.8-0.3c0.3,0,0.5,0.1,0.7,0.3c0.2,0.2,0.2,0.5,0.1,0.9
			l-1.4,7.9c-0.1,0.4-0.2,0.7-0.4,0.9c-0.2,0.2-0.5,0.3-0.8,0.3c-0.3,0-0.5-0.1-0.7-0.3C229.5,291.1,229.5,290.7,229.5,290.3z"/>
		<path d="M242.4,283h-2.2l-1.3,7.3c-0.1,0.4-0.2,0.7-0.4,0.9c-0.2,0.2-0.5,0.3-0.8,0.3c-0.3,0-0.5-0.1-0.7-0.3
			c-0.2-0.2-0.2-0.5-0.1-0.9l1.3-7.3h-2.2c-0.3,0-0.6-0.1-0.7-0.2s-0.2-0.4-0.1-0.6c0-0.3,0.2-0.5,0.4-0.6c0.2-0.1,0.5-0.2,0.8-0.2
			h6.5c0.4,0,0.6,0.1,0.7,0.2c0.1,0.2,0.2,0.4,0.1,0.6c0,0.3-0.2,0.5-0.4,0.6C243,283,242.7,283,242.4,283z"/>
		<path d="M251.9,282.9h-4.6l-0.4,2.5h4.2c0.3,0,0.5,0.1,0.7,0.2c0.1,0.1,0.2,0.3,0.1,0.6c0,0.2-0.1,0.4-0.3,0.6
			c-0.2,0.1-0.4,0.2-0.7,0.2h-4.2l-0.5,2.9h4.7c0.3,0,0.5,0.1,0.7,0.2c0.1,0.1,0.2,0.3,0.1,0.6c0,0.2-0.2,0.4-0.3,0.6
			c-0.2,0.1-0.4,0.2-0.8,0.2h-5.5c-0.4,0-0.7-0.1-0.9-0.3c-0.2-0.2-0.2-0.5-0.1-1l1.3-7.6c0.1-0.3,0.1-0.5,0.3-0.7
			c0.1-0.2,0.3-0.3,0.5-0.4c0.2-0.1,0.4-0.1,0.7-0.1h5.4c0.3,0,0.6,0.1,0.7,0.2c0.1,0.1,0.2,0.3,0.1,0.6c0,0.2-0.2,0.4-0.3,0.6
			C252.5,282.9,252.3,282.9,251.9,282.9z"/>
		<path d="M257.6,289.9l-0.5-6.4l-1.2,6.9c-0.1,0.4-0.2,0.7-0.4,0.9c-0.2,0.2-0.5,0.3-0.7,0.3c-0.3,0-0.5-0.1-0.6-0.3
			c-0.1-0.2-0.2-0.5-0.1-0.9l1.4-8c0.1-0.4,0.2-0.7,0.5-0.9c0.3-0.2,0.6-0.2,1-0.2h0.6c0.4,0,0.6,0,0.8,0.1c0.2,0.1,0.3,0.2,0.3,0.4
			c0.1,0.2,0.1,0.5,0.1,0.9l0.5,5.5l2.4-5.5c0.2-0.4,0.3-0.7,0.4-0.9c0.1-0.2,0.3-0.3,0.4-0.4c0.2-0.1,0.5-0.1,0.8-0.1h0.6
			c0.4,0,0.7,0.1,0.9,0.2c0.2,0.2,0.3,0.4,0.2,0.9l-1.4,8c-0.1,0.4-0.2,0.7-0.4,0.9c-0.2,0.2-0.5,0.3-0.7,0.3
			c-0.3,0-0.5-0.1-0.6-0.3c-0.1-0.2-0.2-0.5-0.1-0.9l1.2-6.9l-2.7,6.4c-0.2,0.4-0.3,0.7-0.4,0.9c-0.1,0.2-0.3,0.4-0.5,0.5
			c-0.2,0.2-0.5,0.2-0.8,0.2c-0.2,0-0.4-0.1-0.6-0.2c-0.1-0.1-0.3-0.2-0.3-0.4c-0.1-0.2-0.1-0.3-0.1-0.5
			C257.6,290.3,257.6,290.1,257.6,289.9z"/>
		<path d="M274.4,282.9h-4.6l-0.4,2.5h4.2c0.3,0,0.5,0.1,0.7,0.2c0.1,0.1,0.2,0.3,0.1,0.6c0,0.2-0.1,0.4-0.3,0.6
			c-0.2,0.1-0.4,0.2-0.7,0.2h-4.2l-0.5,2.9h4.7c0.3,0,0.5,0.1,0.7,0.2c0.1,0.1,0.2,0.3,0.1,0.6c0,0.2-0.2,0.4-0.3,0.6
			c-0.2,0.1-0.4,0.2-0.8,0.2h-5.5c-0.4,0-0.7-0.1-0.9-0.3c-0.2-0.2-0.2-0.5-0.1-1l1.3-7.6c0.1-0.3,0.1-0.5,0.3-0.7
			c0.1-0.2,0.3-0.3,0.5-0.4c0.2-0.1,0.4-0.1,0.7-0.1h5.4c0.3,0,0.6,0.1,0.7,0.2c0.1,0.1,0.2,0.3,0.1,0.6c0,0.2-0.2,0.4-0.3,0.6
			C275,282.9,274.7,282.9,274.4,282.9z"/>
		<path d="M280.6,282.4l2.9,5.9l1.1-6c0.1-0.4,0.2-0.7,0.4-0.9c0.2-0.2,0.4-0.3,0.7-0.3c0.3,0,0.5,0.1,0.6,0.3
			c0.1,0.2,0.2,0.5,0.1,0.9l-1.4,7.9c-0.2,0.9-0.6,1.3-1.3,1.3c-0.2,0-0.3,0-0.5-0.1c-0.1-0.1-0.3-0.1-0.4-0.2
			c-0.1-0.1-0.2-0.2-0.3-0.4s-0.2-0.3-0.2-0.5l-2.8-5.9l-1,5.9c-0.1,0.4-0.2,0.7-0.4,0.9c-0.2,0.2-0.5,0.3-0.7,0.3
			c-0.3,0-0.5-0.1-0.6-0.3c-0.1-0.2-0.2-0.5-0.1-0.9l1.4-7.8c0.1-0.3,0.1-0.6,0.2-0.8c0.1-0.2,0.3-0.4,0.5-0.5s0.5-0.2,0.7-0.2
			c0.2,0,0.3,0,0.5,0.1c0.1,0.1,0.2,0.1,0.3,0.2c0.1,0.1,0.2,0.2,0.2,0.4C280.4,282.1,280.5,282.2,280.6,282.4z"/>
		<path d="M295.7,283h-2.2l-1.3,7.3c-0.1,0.4-0.2,0.7-0.4,0.9c-0.2,0.2-0.5,0.3-0.8,0.3c-0.3,0-0.5-0.1-0.7-0.3
			c-0.2-0.2-0.2-0.5-0.1-0.9l1.3-7.3h-2.2c-0.3,0-0.6-0.1-0.7-0.2c-0.1-0.2-0.2-0.4-0.1-0.6c0-0.3,0.2-0.5,0.4-0.6
			c0.2-0.1,0.5-0.2,0.8-0.2h6.5c0.4,0,0.6,0.1,0.7,0.2c0.1,0.2,0.2,0.4,0.1,0.6c0,0.3-0.2,0.5-0.4,0.6
			C296.3,283,296.1,283,295.7,283z"/>
		<path d="M305.4,288.4c-0.1,0.6-0.4,1.2-0.8,1.6c-0.4,0.5-0.9,0.9-1.6,1.1s-1.4,0.4-2.2,0.4c-1,0-1.8-0.2-2.4-0.6
			c-0.4-0.3-0.7-0.6-0.9-1.1c-0.2-0.4-0.3-0.9-0.2-1.3c0-0.2,0.2-0.5,0.4-0.6c0.2-0.2,0.4-0.3,0.7-0.3c0.2,0,0.4,0.1,0.5,0.2
			c0.1,0.1,0.2,0.3,0.3,0.6c0.1,0.3,0.2,0.6,0.3,0.8c0.1,0.2,0.3,0.4,0.5,0.5c0.2,0.1,0.6,0.2,1,0.2c0.6,0,1.1-0.1,1.5-0.4
			c0.4-0.3,0.7-0.6,0.8-1.1c0.1-0.3,0-0.6-0.2-0.8c-0.2-0.2-0.4-0.4-0.7-0.5c-0.3-0.1-0.7-0.2-1.2-0.4c-0.7-0.2-1.3-0.4-1.7-0.6
			c-0.4-0.2-0.8-0.5-1-0.9c-0.2-0.4-0.3-0.9-0.2-1.5c0.1-0.6,0.3-1,0.7-1.5c0.4-0.4,0.9-0.8,1.5-1c0.6-0.2,1.3-0.3,2.1-0.3
			c0.6,0,1.1,0.1,1.6,0.2c0.4,0.2,0.8,0.4,1,0.6c0.3,0.3,0.4,0.5,0.5,0.8s0.1,0.5,0.1,0.8c0,0.2-0.2,0.5-0.4,0.7
			c-0.2,0.2-0.4,0.3-0.7,0.3c-0.2,0-0.4-0.1-0.5-0.2s-0.2-0.3-0.3-0.6c-0.1-0.4-0.3-0.7-0.5-0.9c-0.2-0.2-0.6-0.3-1.2-0.3
			c-0.5,0-1,0.1-1.3,0.3c-0.4,0.2-0.6,0.5-0.6,0.8c0,0.2,0,0.4,0.1,0.5c0.1,0.1,0.2,0.3,0.4,0.4c0.2,0.1,0.4,0.2,0.5,0.2
			c0.2,0.1,0.5,0.1,0.9,0.3c0.5,0.1,1,0.3,1.5,0.4c0.4,0.2,0.8,0.4,1.1,0.6c0.3,0.2,0.5,0.5,0.6,0.9
			C305.4,287.4,305.4,287.9,305.4,288.4z"/>
		<path d="M316.1,287.5h-1.9l-0.5,2.8c-0.1,0.4-0.2,0.7-0.5,0.9c-0.2,0.2-0.5,0.3-0.8,0.3c-0.3,0-0.5-0.1-0.7-0.3
			c-0.1-0.2-0.2-0.5-0.1-0.9l1.4-7.7c0.1-0.4,0.2-0.8,0.5-1c0.2-0.2,0.6-0.3,1-0.3h2.6c0.8,0,1.4,0.1,1.8,0.2c0.4,0.1,0.7,0.3,1,0.6
			c0.3,0.3,0.4,0.6,0.5,1s0.1,0.8,0,1.3c-0.2,1-0.6,1.8-1.4,2.3C318.3,287.2,317.3,287.5,316.1,287.5z M316.4,282.9H315l-0.5,3.1
			h1.4c0.5,0,0.9-0.1,1.2-0.1c0.3-0.1,0.6-0.3,0.8-0.5c0.2-0.2,0.3-0.5,0.4-0.9c0.1-0.4,0-0.8-0.2-1.1
			C317.9,283,317.3,282.9,316.4,282.9z"/>
		<path d="M327.8,281.2c1,0,1.9,0.2,2.6,0.6c0.7,0.4,1.1,1,1.4,1.8c0.2,0.8,0.3,1.7,0.1,2.7c-0.1,0.8-0.4,1.5-0.7,2.1
			s-0.7,1.2-1.2,1.7c-0.5,0.5-1.1,0.8-1.7,1.1c-0.7,0.2-1.4,0.4-2.2,0.4c-0.8,0-1.5-0.1-2-0.4c-0.6-0.3-1-0.6-1.4-1.1
			c-0.3-0.5-0.6-1-0.6-1.7c-0.1-0.6-0.1-1.4,0.1-2.1c0.1-0.8,0.4-1.5,0.7-2.1c0.3-0.6,0.8-1.2,1.3-1.6c0.5-0.5,1.1-0.8,1.7-1
			C326.3,281.3,327,281.2,327.8,281.2z M329.7,286.3c0.1-0.7,0.1-1.4,0-1.9c-0.1-0.5-0.4-0.9-0.8-1.2c-0.4-0.3-0.9-0.4-1.4-0.4
			c-0.4,0-0.8,0.1-1.2,0.2c-0.4,0.2-0.7,0.4-1,0.7c-0.3,0.3-0.6,0.7-0.8,1.1c-0.2,0.5-0.4,1-0.5,1.5c-0.1,0.6-0.1,1.1-0.1,1.5
			s0.2,0.8,0.4,1.1c0.2,0.3,0.5,0.5,0.8,0.7c0.3,0.2,0.7,0.2,1.1,0.2c0.5,0,1-0.1,1.5-0.4c0.5-0.3,0.9-0.7,1.3-1.2
			C329.3,287.8,329.6,287.1,329.7,286.3z"/>
		<path d="M334.1,287.2l0.9-4.8c0.1-0.4,0.2-0.7,0.4-0.9c0.2-0.2,0.5-0.3,0.8-0.3c0.3,0,0.5,0.1,0.7,0.3c0.1,0.2,0.2,0.5,0.1,0.9
			l-0.9,4.9c-0.1,0.6-0.1,1-0.1,1.4c0.1,0.4,0.2,0.7,0.5,0.9c0.3,0.2,0.7,0.3,1.3,0.3c0.8,0,1.4-0.2,1.8-0.6
			c0.4-0.4,0.7-1.1,0.8-1.9l0.9-5c0.1-0.4,0.2-0.7,0.4-0.9c0.2-0.2,0.5-0.3,0.8-0.3c0.3,0,0.5,0.1,0.7,0.3c0.2,0.2,0.2,0.5,0.1,0.9
			l-0.9,4.8c-0.1,0.8-0.3,1.4-0.6,2c-0.2,0.5-0.6,1-1.1,1.4c-0.4,0.3-0.9,0.6-1.4,0.7c-0.5,0.2-1.1,0.2-1.7,0.2
			c-0.8,0-1.4-0.1-2-0.2c-0.5-0.2-0.9-0.4-1.2-0.8c-0.3-0.3-0.5-0.8-0.5-1.3C333.9,288.7,334,288,334.1,287.2z"/>
		<path d="M348.2,287.1h-0.7l-0.6,3.2c-0.1,0.4-0.2,0.7-0.4,0.9c-0.2,0.2-0.5,0.3-0.8,0.3c-0.3,0-0.6-0.1-0.7-0.3
			c-0.1-0.2-0.2-0.5-0.1-0.9l1.4-7.7c0.1-0.4,0.2-0.8,0.5-1c0.2-0.2,0.6-0.3,1-0.3h3.3c0.5,0,0.8,0,1.2,0.1c0.3,0,0.6,0.1,0.8,0.2
			c0.3,0.1,0.5,0.3,0.7,0.6c0.2,0.2,0.3,0.5,0.4,0.9c0.1,0.3,0.1,0.7,0,1c-0.1,0.7-0.4,1.3-1,1.8c-0.5,0.4-1.2,0.8-2.1,1
			c0.3,0.2,0.6,0.5,0.9,0.9s0.5,0.8,0.7,1.2c0.2,0.4,0.3,0.8,0.4,1.1c0.1,0.3,0.1,0.6,0.1,0.7c0,0.1-0.1,0.3-0.2,0.4
			c-0.1,0.1-0.2,0.2-0.4,0.3c-0.2,0.1-0.3,0.1-0.5,0.1c-0.2,0-0.4-0.1-0.5-0.2c-0.1-0.1-0.2-0.2-0.3-0.4c-0.1-0.2-0.2-0.4-0.3-0.7
			l-0.6-1.4c-0.2-0.5-0.4-0.9-0.6-1.1c-0.2-0.3-0.4-0.4-0.6-0.5C348.9,287.2,348.6,287.1,348.2,287.1z M350.1,282.9h-1.9l-0.5,2.8
			h1.8c0.5,0,0.9,0,1.3-0.1c0.4-0.1,0.6-0.2,0.8-0.4c0.2-0.2,0.3-0.5,0.4-0.8c0-0.3,0-0.5-0.1-0.7c-0.1-0.2-0.3-0.4-0.5-0.5
			C351.3,282.9,350.8,282.9,350.1,282.9z"/>
		<path d="M363.3,282.4l-1.3,7.3h4.1c0.3,0,0.6,0.1,0.7,0.2c0.1,0.2,0.2,0.4,0.2,0.6c0,0.2-0.2,0.4-0.4,0.6
			c-0.2,0.2-0.5,0.2-0.8,0.2h-4.9c-0.4,0-0.7-0.1-0.9-0.3c-0.2-0.2-0.2-0.5-0.1-1l1.4-7.7c0.1-0.4,0.2-0.7,0.4-0.9
			c0.2-0.2,0.5-0.3,0.8-0.3c0.3,0,0.5,0.1,0.7,0.3C363.3,281.7,363.4,282,363.3,282.4z"/>
		<path d="M377,282.9h-4.6l-0.4,2.5h4.2c0.3,0,0.5,0.1,0.7,0.2c0.1,0.1,0.2,0.3,0.1,0.6c0,0.2-0.1,0.4-0.3,0.6
			c-0.2,0.1-0.4,0.2-0.7,0.2h-4.2l-0.5,2.9h4.7c0.3,0,0.5,0.1,0.7,0.2c0.1,0.1,0.2,0.3,0.1,0.6c0,0.2-0.2,0.4-0.3,0.6
			c-0.2,0.1-0.4,0.2-0.8,0.2h-5.5c-0.4,0-0.7-0.1-0.9-0.3c-0.2-0.2-0.2-0.5-0.1-1l1.3-7.6c0.1-0.3,0.1-0.5,0.3-0.7
			c0.1-0.2,0.3-0.3,0.5-0.4c0.2-0.1,0.4-0.1,0.7-0.1h5.4c0.3,0,0.6,0.1,0.7,0.2c0.1,0.1,0.2,0.3,0.1,0.6c0,0.2-0.2,0.4-0.3,0.6
			C377.6,282.9,377.3,282.9,377,282.9z"/>
		<path d="M387.5,291.4h-3.1c-0.4,0-0.7-0.1-0.9-0.3c-0.2-0.2-0.2-0.5-0.1-1l1.3-7.6c0.1-0.4,0.2-0.8,0.5-1c0.2-0.2,0.6-0.3,1-0.3
			h3.3c0.5,0,0.9,0,1.2,0.1c0.3,0.1,0.6,0.2,0.9,0.3c0.2,0.1,0.4,0.3,0.5,0.5c0.1,0.2,0.2,0.5,0.3,0.7c0,0.3,0,0.5,0,0.8
			c-0.2,1-0.8,1.7-1.9,2.2c1.2,0.4,1.8,1.2,1.5,2.5c-0.1,0.6-0.3,1.1-0.7,1.5c-0.4,0.5-0.8,0.8-1.3,1c-0.3,0.1-0.7,0.2-1.1,0.3
			C388.5,291.4,388,291.4,387.5,291.4z M388.1,286.9H386l-0.5,2.9h2.2c1.4,0,2.1-0.5,2.3-1.5c0.1-0.5,0-0.9-0.3-1.1
			C389.3,287.1,388.8,286.9,388.1,286.9z M386.7,282.9l-0.5,2.6h1.9c0.5,0,0.9,0,1.2-0.1c0.3-0.1,0.5-0.3,0.7-0.5
			c0.1-0.2,0.2-0.4,0.3-0.6c0.1-0.5,0-0.8-0.4-1c-0.3-0.2-0.9-0.2-1.6-0.2L386.7,282.9L386.7,282.9z"/>
		<path d="M400.6,290.3l-0.3-1.3h-4.1l-0.7,1.3c-0.3,0.5-0.5,0.8-0.7,1c-0.2,0.2-0.4,0.3-0.7,0.3c-0.3,0-0.5-0.1-0.6-0.3
			c-0.2-0.2-0.2-0.4-0.2-0.6c0-0.1,0.1-0.3,0.1-0.4c0.1-0.1,0.2-0.4,0.3-0.6l3.7-6.5c0.1-0.2,0.2-0.4,0.4-0.7
			c0.1-0.3,0.3-0.5,0.4-0.7c0.1-0.2,0.3-0.3,0.5-0.4c0.2-0.1,0.5-0.2,0.7-0.2c0.3,0,0.5,0.1,0.7,0.2c0.2,0.1,0.3,0.2,0.4,0.4
			c0.1,0.2,0.2,0.4,0.2,0.5c0,0.2,0.1,0.5,0.2,0.8l1.5,6.5c0.1,0.5,0.2,0.9,0.1,1.1c0,0.2-0.2,0.4-0.4,0.6c-0.2,0.2-0.5,0.3-0.8,0.3
			c-0.2,0-0.3,0-0.4-0.1c-0.1-0.1-0.2-0.1-0.2-0.2c-0.1-0.1-0.1-0.2-0.2-0.5C400.7,290.6,400.6,290.4,400.6,290.3z M397.1,287.5h3
			l-0.8-4.1L397.1,287.5z M400.2,280.1l-0.5-0.8l-0.8,0.8c-0.2,0.2-0.4,0.4-0.5,0.4c-0.1,0-0.2,0.1-0.4,0.1h-0.5
			c-0.2,0-0.3,0-0.3-0.1c0,0,0.1-0.2,0.3-0.3l0.9-0.9c0.1-0.1,0.2-0.2,0.3-0.3c0.1-0.1,0.2-0.2,0.3-0.2c0.1,0,0.2-0.1,0.3-0.1
			s0.3,0,0.4,0h0.4c0.3,0,0.5,0,0.6,0.1c0.1,0.1,0.2,0.2,0.4,0.5l0.6,0.9c0.1,0.2,0.1,0.3,0.1,0.3c0,0.1-0.1,0.1-0.3,0.1h-0.5
			c-0.1,0-0.2,0-0.3-0.1c-0.1,0-0.1-0.1-0.2-0.2C400.4,280.3,400.3,280.2,400.2,280.1z"/>
		<path d="M412.8,283h-2.2l-1.3,7.3c-0.1,0.4-0.2,0.7-0.4,0.9c-0.2,0.2-0.5,0.3-0.8,0.3c-0.3,0-0.5-0.1-0.7-0.3
			c-0.2-0.2-0.2-0.5-0.1-0.9l1.3-7.3h-2.2c-0.3,0-0.6-0.1-0.7-0.2s-0.2-0.4-0.1-0.6c0-0.3,0.2-0.5,0.4-0.6c0.2-0.1,0.5-0.2,0.8-0.2
			h6.5c0.4,0,0.6,0.1,0.7,0.2c0.1,0.2,0.2,0.4,0.1,0.6c0,0.3-0.2,0.5-0.4,0.6C413.4,283,413.1,283,412.8,283z"/>
		<path d="M414.5,290.3l1.4-7.9c0.1-0.4,0.2-0.7,0.4-0.9c0.2-0.2,0.5-0.3,0.8-0.3c0.3,0,0.5,0.1,0.7,0.3c0.2,0.2,0.2,0.5,0.1,0.9
			l-1.4,7.9c-0.1,0.4-0.2,0.7-0.5,0.9c-0.2,0.2-0.5,0.3-0.8,0.3c-0.3,0-0.5-0.1-0.7-0.3C414.5,291.1,414.4,290.7,414.5,290.3z"/>
		<path d="M423,289.9l-0.5-6.4l-1.2,6.9c-0.1,0.4-0.2,0.7-0.4,0.9c-0.2,0.2-0.5,0.3-0.7,0.3c-0.3,0-0.5-0.1-0.6-0.3
			c-0.1-0.2-0.2-0.5-0.1-0.9l1.4-8c0.1-0.4,0.2-0.7,0.5-0.9c0.3-0.2,0.6-0.2,1-0.2h0.6c0.4,0,0.6,0,0.8,0.1c0.2,0.1,0.3,0.2,0.3,0.4
			c0.1,0.2,0.1,0.5,0.1,0.9l0.5,5.5l2.4-5.5c0.2-0.4,0.3-0.7,0.4-0.9c0.1-0.2,0.3-0.3,0.4-0.4c0.2-0.1,0.5-0.1,0.8-0.1h0.6
			c0.4,0,0.7,0.1,0.9,0.2c0.2,0.2,0.3,0.4,0.2,0.9l-1.4,8c-0.1,0.4-0.2,0.7-0.4,0.9c-0.2,0.2-0.5,0.3-0.7,0.3
			c-0.3,0-0.5-0.1-0.6-0.3c-0.1-0.2-0.2-0.5-0.1-0.9l1.2-6.9l-2.7,6.4c-0.2,0.4-0.3,0.7-0.4,0.9c-0.1,0.2-0.3,0.4-0.5,0.5
			c-0.2,0.2-0.5,0.2-0.8,0.2c-0.2,0-0.4-0.1-0.6-0.2c-0.1-0.1-0.3-0.2-0.3-0.4c-0.1-0.2-0.1-0.3-0.1-0.5
			C423,290.3,423,290.1,423,289.9z"/>
		<path d="M439.9,282.9h-4.6l-0.4,2.5h4.2c0.3,0,0.5,0.1,0.7,0.2c0.1,0.1,0.2,0.3,0.1,0.6c0,0.2-0.1,0.4-0.3,0.6
			c-0.2,0.1-0.4,0.2-0.7,0.2h-4.2l-0.5,2.9h4.7c0.3,0,0.5,0.1,0.7,0.2c0.1,0.1,0.2,0.3,0.1,0.6c0,0.2-0.2,0.4-0.3,0.6
			c-0.2,0.1-0.4,0.2-0.8,0.2H433c-0.4,0-0.7-0.1-0.9-0.3c-0.2-0.2-0.2-0.5-0.1-1l1.3-7.6c0.1-0.3,0.1-0.5,0.3-0.7s0.3-0.3,0.5-0.4
			c0.2-0.1,0.4-0.1,0.7-0.1h5.4c0.3,0,0.6,0.1,0.7,0.2c0.1,0.1,0.2,0.3,0.1,0.6c0,0.2-0.2,0.4-0.3,0.6
			C440.4,282.9,440.2,282.9,439.9,282.9z"/>
		<path d="M446,282.4l2.9,5.9l1.1-6c0.1-0.4,0.2-0.7,0.4-0.9c0.2-0.2,0.4-0.3,0.7-0.3c0.3,0,0.5,0.1,0.6,0.3
			c0.1,0.2,0.2,0.5,0.1,0.9l-1.4,7.9c-0.2,0.9-0.6,1.3-1.3,1.3c-0.2,0-0.3,0-0.5-0.1c-0.1-0.1-0.3-0.1-0.4-0.2
			c-0.1-0.1-0.2-0.2-0.3-0.4c-0.1-0.2-0.2-0.3-0.2-0.5l-2.8-5.9l-1,5.9c-0.1,0.4-0.2,0.7-0.4,0.9c-0.2,0.2-0.5,0.3-0.7,0.3
			c-0.3,0-0.5-0.1-0.6-0.3c-0.1-0.2-0.2-0.5-0.1-0.9l1.4-7.8c0.1-0.3,0.1-0.6,0.2-0.8c0.1-0.2,0.3-0.4,0.5-0.5
			c0.2-0.1,0.5-0.2,0.7-0.2c0.2,0,0.3,0,0.5,0.1c0.1,0.1,0.2,0.1,0.3,0.2c0.1,0.1,0.2,0.2,0.2,0.4C445.9,282.1,446,282.2,446,282.4z
			"/>
		<path d="M461.2,283h-2.2l-1.3,7.3c-0.1,0.4-0.2,0.7-0.4,0.9c-0.2,0.2-0.5,0.3-0.8,0.3c-0.3,0-0.5-0.1-0.7-0.3
			c-0.2-0.2-0.2-0.5-0.1-0.9l1.3-7.3h-2.2c-0.3,0-0.6-0.1-0.7-0.2s-0.2-0.4-0.1-0.6c0-0.3,0.2-0.5,0.4-0.6c0.2-0.1,0.5-0.2,0.8-0.2
			h6.5c0.4,0,0.6,0.1,0.7,0.2c0.1,0.2,0.2,0.4,0.1,0.6c0,0.3-0.2,0.5-0.4,0.6S461.5,283,461.2,283z"/>
	</g>
	<g>
		<path d="M468.7,201c0.9,0,1.7,0.2,2.5,0.5s1.4,0.8,2,1.4c0.6,0.6,1,1.3,1.4,2c0.3,0.8,0.5,1.6,0.5,2.5c0,1.1-0.3,2.2-0.8,3.2
			c-0.6,1-1.3,1.7-2.3,2.3c-1,0.6-2,0.8-3.2,0.8s-2.2-0.3-3.2-0.8c-1-0.6-1.7-1.3-2.3-2.3c-0.6-1-0.8-2-0.8-3.2s0.3-2.2,0.8-3.2
			c0.6-1,1.3-1.7,2.3-2.3C466.5,201.2,467.5,201,468.7,201z M468.7,202.2c-0.9,0-1.8,0.2-2.6,0.7c-0.8,0.5-1.4,1.1-1.9,1.9
			c-0.5,0.8-0.7,1.6-0.7,2.6s0.2,1.8,0.7,2.6c0.5,0.8,1.1,1.4,1.9,1.9c0.8,0.5,1.6,0.7,2.5,0.7c0.9,0,1.8-0.2,2.6-0.7
			c0.8-0.5,1.4-1.1,1.8-1.9c0.5-0.8,0.7-1.6,0.7-2.6c0-0.9-0.2-1.8-0.7-2.6c-0.5-0.8-1.1-1.4-1.8-1.9S469.6,202.2,468.7,202.2z
			 M467.2,210.7h-1.4V204h3.2c0.5,0,0.9,0.1,1.3,0.2c0.3,0.2,0.6,0.4,0.8,0.7c0.2,0.3,0.3,0.6,0.3,1c0,0.5-0.2,0.9-0.5,1.2
			c-0.3,0.3-0.8,0.6-1.3,0.6c0.3,0.1,0.5,0.3,0.7,0.5c0.2,0.2,0.4,0.6,0.7,1.1l0.8,1.4H470l-0.6-1.1c-0.3-0.5-0.5-0.8-0.7-1.1
			c-0.2-0.2-0.4-0.4-0.5-0.5c-0.2-0.1-0.4-0.1-0.7-0.1h-0.4L467.2,210.7L467.2,210.7z M467.2,205v1.8h1.1c0.5,0,0.9-0.1,1.1-0.2
			c0.3-0.1,0.4-0.4,0.4-0.8c0-0.3-0.1-0.5-0.3-0.6c-0.2-0.2-0.6-0.2-1-0.2L467.2,205L467.2,205z"/>
	</g>
</g>
</svg>
