<?xml version="1.0" encoding="utf-8"?>
<!-- Generator: Adobe Illustrator 21.0.2, SVG Export Plug-In . SVG Version: 6.00 Build 0)  -->
<svg version="1.1" id="Calque_1" xmlns="http://www.w3.org/2000/svg" xmlns:xlink="http://www.w3.org/1999/xlink" x="0px" y="0px"
	 viewBox="0 0 334 228" style="enable-background:new 0 0 334 228;" xml:space="preserve">
<style type="text/css">
	.st0{fill:#056854;}
</style>
<path class="st0" d="M194.7,38.2c-0.3,0-0.4,0.1-0.6,0.1l-43.7,11.3l-70,18.1l-37.5,9.7L17.3,84v0.2l1.2,4.2
	c59.1-15.3,118.2-30.6,177.3-45.8C195.4,41,195.1,39.6,194.7,38.2z"/>
<path class="st0" d="M142.6,141.9c-0.2,0.6-0.3,1.2-0.5,1.9c1.7-0.5,3.3-1,4.9-1.4c0.5-0.1,0.7-0.4,0.9-0.9l4.2-14.4
	c1-3.5,0.9-3.5,4.1-5.3c1.8-1,3.6-1.8,5.5-2.6c1.3-0.5,1.9,0,1.7,1.4c-0.1,0.7-0.3,1.5-0.5,2.3c-1.9,6.8-3.8,13.5-5.7,20.2
	c-0.1,0.2-0.1,0.5-0.2,0.8c1.5-0.5,3-1,4.5-1.3c0.9-0.2,1.3-0.6,1.5-1.5l4.8-16.8c0.1-0.4,0.3-0.9,0.6-1.1c2.6-1.5,5.3-2.9,8-4.3
	c0.3-0.2,0.7-0.3,1-0.3c0.6-0.1,1.1,0.2,1,0.9c-0.1,1.2-0.1,2.4-0.4,3.5l-4.3,15.6c-0.4,1.5-0.3,2.9,0.4,4.3
	c0.2,0.3,0.5,0.5,0.8,0.7c0.9,0.4,1.7-0.1,2.4-0.5l10.4-6c0.2-0.1,0.5-0.3,0.9-0.5c0.1,0.5,0.2,1,0.2,1.4c0.2,3.1,2,5.3,5.1,5.6
	c1.5,0.2,3,0,4.4-0.3c4.2-1,8-3.1,11.7-5.2c1.2-0.7,1.5-1.5,1.2-2.7h-0.3l-0.7,0.3c-3.3,1.5-6.5,3.1-10.1,3.7
	c-3.6,0.6-5.9-0.4-6.2-3.9v-1.1c-0.1-1.5,0.4-2.4,1.8-3.2c4.2-2.3,8.1-4.9,11.6-8.1c1.4-1.3,2.7-2.8,3.5-4.6
	c1.1-2.9-0.3-5.7-3.2-6.1c-1-0.2-2.1-0.1-3,0.2c-5.9,1.8-10.3,5.5-13,11.1c-1.5,3-2.4,6.2-2.8,9.5c0,0.4-0.3,1-0.6,1.2
	c-1.8,0.9-3.7,1.7-5.5,2.5c-0.6,0.2-1.3,0.4-1.9,0.4c-1,0-1.4-0.6-1.3-1.5c0.1-1,0.2-2,0.5-3c1.5-5.3,3-10.5,4.4-15.7
	c0.3-1.3,0.4-2.6,0.6-3.9c0.1-0.7-0.3-1.1-1-1c-0.7,0-1.3,0.1-1.9,0.4c-2.2,1.1-4.4,2.2-6.6,3.4c-2.3,1.2-4.4,2.5-6.9,3.9
	c0.1-0.6,0.2-1,0.6-1.3c0.4-1.6,0.9-3.2,1.2-4.8c0.2-1.2-0.5-1.7-1.7-1.4c-0.9,0.2-1.7,0.6-2.5,1l-10.6,5.7l-1.7,0.9
	c0-0.4,0-0.6,0.1-0.8c0.4-1.4,0.9-2.9,1.2-4.4c0.2-0.8,0.8-1.7,0-2.4c-0.8-0.7-1.7-0.1-2.5,0.3c-3,1.5-6.1,3.1-9.1,4.7
	c-1.3,0.7-1.3,0.8-1.1,2.4c0.2,0,0.3,0,0.5-0.1c1.3-0.4,2.7-0.9,4.1-1.3c1.2-0.3,1.7,0.1,1.7,1.3c0,0.7-0.1,1.4-0.3,2.1L142.6,141.9
	z M195,126.5c0.8-2.7,1.8-5.4,3.5-7.7c0.7-0.9,1.5-1.8,2.4-2.5c0.9-0.7,2-0.8,3-0.2c1.1,0.6,1.2,1.6,1.1,2.7c-0.1,1.6-0.9,3-2,4.2
	c-2.3,2.4-5,4.1-7.9,5.6c-0.2,0-0.3,0-0.6,0.1C194.7,127.9,194.9,127.2,195,126.5z"/>
<path class="st0" d="M243,141.2c1.4-4.9,2.9-9.8,4.2-14.7c0.3-1.2,0.8-2,1.9-2.6c2.9-1.7,5.8-3.5,8.8-5.2c0.4-0.2,1.3-0.3,1.6,0
	c0.3,0.3,0.4,1.1,0.3,1.6l-3,11c-0.9,3.3-2,6.5-2.2,10c-0.1,1.6,0.7,2.4,2.2,1.7c4.3-1.9,8.6-3.9,12.8-5.9c1.3-0.6,1.5-1.3,1-2.8
	c-0.5,0.2-0.9,0.4-1.3,0.6c-2.1,0.9-4.2,1.9-6.4,2.8c-1.3,0.5-1.9,0.1-2-1.3c-0.1-0.5,0-1,0.1-1.5l3.7-13.5l1.8-6.5
	c0.2-0.7,0.3-1.4-0.3-1.9c-0.5-0.5-1.1-0.8-1.8-0.4c-3.2,1.7-6.5,3.3-9.8,5c-1.8,1-3.6,2.1-5.6,3.3c0.1-0.5,0.1-0.7,0.1-0.8
	c0.8-3.1,1.7-6.2,2.6-9.2c1.1-3.7,2.4-7.4,4.5-10.8c1.7-2.6,3.8-3.6,6.8-2.9c2.9,0.7,2.9,0.6,4.6-1.8c0.5-0.7,1-1.5,1.6-2.4h-4
	c-2.4,0.1-4.9,0.3-6.9,1.7c-2.3,1.5-4.4,3.2-6.5,4.9c-2.4,2-3.5,5-4.3,7.9l-8.7,31.2c-0.5,1.6-0.9,3.3-1.4,5c1.6-0.5,3-1,4.5-1.4
	C242.6,142.1,242.8,141.8,243,141.2z"/>
<path class="st0" d="M220.6,143.6c0.6-0.1,1.1-0.2,1.6-0.3c4.5-1.2,8.6-3.2,12.6-5.4c1.6-0.9,1.6-0.9,1.4-2.8
	c-0.4,0.1-0.8,0.3-1.1,0.5l-8.4,3.1c-1.2,0.4-2.4,0.7-3.6,0.6c-3.1-0.1-4.5-2-4.3-5.2c0.2-3.5,1.1-6.9,2.3-10.2
	c0.8-2,1.8-3.9,2.8-5.8c0.4-0.7,1.1-1.2,1.8-1.6c2.1-1.2,4-0.3,4.6,2c0.2,0.7,0.3,1.5,0.4,2.3c1.1-0.1,4.1-1.6,4.9-2.4
	c0.1-0.1,0.2-0.4,0.2-0.6c-0.4-1.2-0.6-2.4-1.1-3.5c-0.8-1.9-2.4-2.6-4.5-2.1c-3.7,1-7,3-9.8,5.6c-2.7,2.4-4.2,5.6-5.4,9
	c-1.2,3.5-2.2,6.9-1.8,10.6C213.5,140.6,215.5,144.3,220.6,143.6z"/>
<path class="st0" d="M69.1,122c0.2-0.1,0.4-0.5,0.4-0.8c0-0.9-0.1-1.9-0.2-2.8c-0.4-6.4,2.6-11.2,8.5-13.5c2-0.8,3.9-1.2,6.2-1.4
	c-0.4,2-0.8,3.9-1.3,5.8c-1.3,5.1-2.4,10.1-3.9,15.1c-1.1,3.6-2.5,7.2-3.9,10.7c-0.8,2.1-2.6,3.3-4.9,3.8c-1.2,0.3-2.3,0.4-3.5,0.6
	c-0.4,0-0.8,0.2-1,0.4l-2.2,2.7h0.3c6.5,0,13,0.1,19.5,0c1.6-0.1,3.2-0.2,4.8-0.5c3.6-0.7,6.8-2.4,10-4.2c3.5-2,6.6-4.5,8.8-8
	c3.2-5.2,4.8-10.8,4.5-16.9c-0.2-4.5-2.3-7.8-6.5-9.7c-4.1-1.9-8.6-2.3-13.1-2.5c-1.2-0.1-1.2,0-1.1-1.2c0.1-0.2,0-0.3,0-0.6
	l-0.6,0.2c-2.7,1.3-5.6,2.1-8.5,2.7c-4.8,1-9.3,3-13,6.4c-4.8,4.3-6.3,9.7-4.8,16C65.5,123.5,67.3,122.8,69.1,122z M89,106.2
	l0.1-0.4c1.1-3.2,0.2-2.5,3.5-2.5c2.4,0,4.7,0.5,6.9,1.5c3,1.4,4.7,3.9,5.1,7.1c1.1,8.2-0.9,15.6-6.1,22.1c-2.5,2.9-5.8,4.5-9.6,4.8
	c-4.7,0.3-9.5,0.3-14.2,0.4l-0.1-0.1c1.6-1.6,3.2-3.1,4.7-4.5c2.8-3.1,4.3-6.9,5.3-10.9L89,106.2z"/>
<path class="st0" d="M25.6,162.9l17.1,31.9c2.2,4.3,4.5,8.5,6.7,12.7h233.7l0.3-0.6l9.3-18.1l11.3-22l2.4-4.8H25.2L25.6,162.9z
	 M298.9,166.5c-1.2,2.4-2.4,4.7-3.5,6.8l-14.5,28.5c-0.5,0.8-0.9,1.1-1.9,1.1H53.4c-1,0-1.5-0.3-1.9-1.1l-18.4-34.4
	c-0.1-0.3-0.2-0.5-0.4-0.9H298.9z"/>
<path class="st0" d="M114.2,142.9c0.2,0.2,0.6,0.4,0.8,0.4c0.8-0.2,1.7-0.3,2.4-0.7c3-1.9,5.9-3.9,8.9-5.9c0.2-0.2,0.5-0.4,0.9-0.6
	c-0.1,0.4-0.1,0.5-0.1,0.7c-0.1,1.8-0.4,3.6-0.4,5.4c0,1.3,1.1,1.8,2.1,1.2l12.6-7.6c0.3-0.1,0.5-0.5,0.5-0.8c0.1-0.5,0-1.1,0-1.8
	c-1.1,0.6-2,1.1-2.7,1.4c-1.5,0.7-3,1.5-4.5,2.1c-1.4,0.5-2.1-0.1-1.9-1.6c0.1-0.6,0.2-1.2,0.4-1.8c1.4-5.4,2.9-10.7,4.4-16.1
	c0.1-0.5,0.4-1,0.7-1.4c0.5-0.8,1.1-1.5,1.8-2.3c-3-1.3-6.1-1.6-9.2-1.8c-1,0-1.9,0.1-2.8,0.6c-1.3,0.7-2.7,1.3-4,2.1
	c-3.4,2-6.2,4.4-7.7,8.1c-2.1,5.1-3.5,10.2-3.7,15.7C112.6,139.9,112.7,141.7,114.2,142.9z M119.2,127.5c0.7-3,1.8-5.9,3.3-8.7
	c1.1-2.1,2.8-3.1,5.2-2.8c1.6,0.2,3.1,0.5,4.8,0.8c-0.8,2.8-1.6,5.4-2.4,8c-0.7,2.3-1.4,4.7-2.1,7.1c0,0.3-0.2,0.6-0.4,0.8
	c-2,1.4-4.1,2.9-6.2,4.2c-0.4,0.3-1.1,0.4-1.7,0.4c-1,0-1.6-1-1.6-2.2C118,132.5,118.6,130,119.2,127.5z"/>
<path class="st0" d="M316.2,95.1l-46.8-31.6l-60.6-40.8l-2-1.5h-0.4l-0.6,0.3l-48.1,13.2c-1.3,0.3-2.6,0.7-4,1.1
	c0.4,1.5,0.8,2.9,1.2,4.3l0.9-0.2c16.5-4.5,32.9-9.1,49.3-13.6c0.6-0.1,1,0,1.5,0.3L219,35c18.7,12.6,37.4,25.2,56.1,37.9l33.2,22.4
	l6.3,4.2l2.6-3.6v-0.2L316.2,95.1z"/>
<path class="st0" d="M42.1,88.2c-12.9,8.9-19.1,25.2-15.5,40.5c4.1,17.4,19.9,29.9,37.8,29.9h101.3h101.6c1.8,0,3.6-0.1,5.4-0.4
	c8.3-1.3,15.6-4.8,21.5-10.8c9.6-9.6,13.5-21.2,11-34.6C301.8,94.3,285.6,81,266.8,81H64.9c-1.4,0-2.8,0.1-4.1,0.2
	C54,82,47.8,84.3,42.1,88.2z M266.4,86.6c14.5,0,25,7.1,31.1,20.3c5.5,11.9,2.5,26.6-6.7,35.9c-5.1,5.2-11.1,8.5-18.2,9.7
	c-2,0.4-4.2,0.5-6.3,0.5H165.7c-33.7,0-67.5,0-101.3-0.1c-16,0-30-11.6-32.9-27.3c-2.7-14,4.5-28.6,17.2-35.2
	c5.1-2.6,10.4-3.9,16.1-3.9C132,86.5,199.2,86.5,266.4,86.6z"/>
</svg>
