<?xml version="1.0" encoding="utf-8"?>
<!-- Generator: Adobe Illustrator 19.1.0, SVG Export Plug-In . SVG Version: 6.00 Build 0)  -->
<svg version="1.1" id="Calque_1" xmlns="http://www.w3.org/2000/svg" xmlns:xlink="http://www.w3.org/1999/xlink" x="0px" y="0px"
	 viewBox="-82 137 334 228" style="enable-background:new -82 137 334 228;" xml:space="preserve">
<style type="text/css">
	.st0{fill:#056854;}
</style>
<path class="st0" d="M-32.6,344.5c-2.2-4.2-4.5-8.4-6.7-12.7l-17.1-31.9l-0.4-0.9h281.2l-2.4,4.8l-11.3,22l-9.3,18.1l-0.3,0.6
	L-32.6,344.5L-32.6,344.5z M216.9,303.5H-49.3c0.2,0.4,0.3,0.6,0.4,0.9l18.4,34.4c0.4,0.8,0.9,1.1,1.9,1.1H197c1,0,1.4-0.3,1.9-1.1
	l14.5-28.5C214.5,308.2,215.7,305.9,216.9,303.5L216.9,303.5z M124.8,158.2l2,1.5l60.6,40.8l46.8,31.6l1,0.6v0.2l-2.6,3.6l-6.3-4.2
	l-33.2-22.4c-18.7-12.7-37.4-25.3-56.1-37.9l-12.4-8.4c-0.5-0.3-0.9-0.4-1.5-0.3c-16.4,4.5-32.8,9.1-49.3,13.6l-0.9,0.2
	c-0.4-1.4-0.8-2.8-1.2-4.3c1.4-0.4,2.7-0.8,4-1.1l48.1-13.2l0.6-0.3H124.8L124.8,158.2z M-64.7,221l25.6-6.6l37.5-9.7l70-18.1
	l43.7-11.3c0.2,0,0.3-0.1,0.6-0.1c0.4,1.4,0.7,2.8,1.1,4.4C54.7,194.8-4.4,210.1-63.5,225.4l-1.2-4.2V221L-64.7,221z M83.7,295.6
	H-17.6c-17.9,0-33.7-12.5-37.8-29.9c-3.6-15.3,2.6-31.6,15.5-40.5c5.7-3.9,11.9-6.2,18.7-7c1.3-0.1,2.7-0.2,4.1-0.2h201.9
	c18.8,0,35,13.3,38.4,31.8c2.5,13.4-1.4,25-11,34.6c-5.9,6-13.2,9.5-21.5,10.8c-1.8,0.3-3.6,0.4-5.4,0.4L83.7,295.6L83.7,295.6z
	 M83.7,290h100.6c2.1,0,4.3-0.1,6.3-0.5c7.1-1.2,13.1-4.5,18.2-9.7c9.2-9.3,12.2-24,6.7-35.9c-6.1-13.2-16.6-20.3-31.1-20.3
	c-67.2-0.1-134.4-0.1-201.6-0.1c-5.7,0-11,1.3-16.1,3.9c-12.7,6.6-19.9,21.2-17.2,35.2c2.9,15.7,16.9,27.3,32.9,27.3
	C16.2,290,50,290,83.7,290L83.7,290z M86.6,256.9c2.5-1.4,4.6-2.7,6.9-3.9c2.2-1.2,4.4-2.3,6.6-3.4c0.6-0.3,1.2-0.4,1.9-0.4
	c0.7-0.1,1.1,0.3,1,1c-0.2,1.3-0.3,2.6-0.6,3.9c-1.4,5.2-2.9,10.4-4.4,15.7c-0.3,1-0.4,2-0.5,3c-0.1,0.9,0.3,1.5,1.3,1.5
	c0.6,0,1.3-0.2,1.9-0.4c1.8-0.8,3.7-1.6,5.5-2.5c0.3-0.2,0.6-0.8,0.6-1.2c0.4-3.3,1.3-6.5,2.8-9.5c2.7-5.6,7.1-9.3,13-11.1
	c0.9-0.3,2-0.4,3-0.2c2.9,0.4,4.3,3.2,3.2,6.1c-0.8,1.8-2.1,3.3-3.5,4.6c-3.5,3.2-7.4,5.8-11.6,8.1c-1.4,0.8-1.9,1.7-1.8,3.2v1.1
	c0.3,3.5,2.6,4.5,6.2,3.9c3.6-0.6,6.8-2.2,10.1-3.7l0.7-0.3h0.3c0.3,1.2,0,2-1.2,2.7c-3.7,2.1-7.5,4.2-11.7,5.2
	c-1.4,0.3-2.9,0.5-4.4,0.3c-3.1-0.3-4.9-2.5-5.1-5.6c0-0.4-0.1-0.9-0.2-1.4c-0.4,0.2-0.7,0.4-0.9,0.5l-10.4,6
	c-0.7,0.4-1.5,0.9-2.4,0.5c-0.3-0.2-0.6-0.4-0.8-0.7c-0.7-1.4-0.8-2.8-0.4-4.3L96,260c0.3-1.1,0.3-2.3,0.4-3.5c0.1-0.7-0.4-1-1-0.9
	c-0.3,0-0.7,0.1-1,0.3c-2.7,1.4-5.4,2.8-8,4.3c-0.3,0.2-0.5,0.7-0.6,1.1L81,278.1c-0.2,0.9-0.6,1.3-1.5,1.5c-1.5,0.3-3,0.8-4.5,1.3
	c0.1-0.3,0.1-0.6,0.2-0.8c1.9-6.7,3.8-13.4,5.7-20.2c0.2-0.8,0.4-1.6,0.5-2.3c0.2-1.4-0.4-1.9-1.7-1.4c-1.9,0.8-3.7,1.6-5.5,2.6
	c-3.2,1.8-3.1,1.8-4.1,5.3l-4.2,14.4c-0.2,0.5-0.4,0.8-0.9,0.9c-1.6,0.4-3.2,0.9-4.9,1.4c0.2-0.7,0.3-1.3,0.5-1.9l5.9-20.1
	c0.2-0.7,0.3-1.4,0.3-2.1c0-1.2-0.5-1.6-1.7-1.3c-1.4,0.4-2.8,0.9-4.1,1.3c-0.2,0.1-0.3,0.1-0.5,0.1c-0.2-1.6-0.2-1.7,1.1-2.4
	c3-1.6,6.1-3.2,9.1-4.7c0.8-0.4,1.7-1,2.5-0.3s0.2,1.6,0,2.4c-0.3,1.5-0.8,3-1.2,4.4c-0.1,0.2-0.1,0.4-0.1,0.8l1.7-0.9l10.6-5.7
	c0.8-0.4,1.6-0.8,2.5-1c1.2-0.3,1.9,0.2,1.7,1.4c-0.3,1.6-0.8,3.2-1.2,4.8C86.8,255.9,86.7,256.3,86.6,256.9L86.6,256.9z
	 M112.5,265.7c0.3-0.1,0.4-0.1,0.6-0.1c2.9-1.5,5.6-3.2,7.9-5.6c1.1-1.2,1.9-2.6,2-4.2c0.1-1.1,0-2.1-1.1-2.7c-1-0.6-2.1-0.5-3,0.2
	c-0.9,0.7-1.7,1.6-2.4,2.5c-1.7,2.3-2.7,5-3.5,7.7C112.9,264.2,112.7,264.9,112.5,265.7z M-18.7,279.6l2.2-2.7
	c0.2-0.2,0.6-0.4,1-0.4c1.2-0.2,2.3-0.3,3.5-0.6c2.3-0.5,4.1-1.7,4.9-3.8c1.4-3.5,2.8-7.1,3.9-10.7c1.5-5,2.6-10,3.9-15.1
	c0.5-1.9,0.9-3.8,1.3-5.8c-2.3,0.2-4.2,0.6-6.2,1.4c-5.9,2.3-8.9,7.1-8.5,13.5c0.1,0.9,0.2,1.9,0.2,2.8c0,0.3-0.2,0.7-0.4,0.8
	c-1.8,0.8-3.6,1.5-5.5,2.3c-1.5-6.3,0-11.7,4.8-16c3.7-3.4,8.2-5.4,13-6.4c2.9-0.6,5.8-1.4,8.5-2.7l0.6-0.2c0,0.3,0.1,0.4,0,0.6
	c-0.1,1.2-0.1,1.1,1.1,1.2c4.5,0.2,9,0.6,13.1,2.5c4.2,1.9,6.3,5.2,6.5,9.7c0.3,6.1-1.3,11.7-4.5,16.9c-2.2,3.5-5.3,6-8.8,8
	c-3.2,1.8-6.4,3.5-10,4.2c-1.6,0.3-3.2,0.4-4.8,0.5c-6.5,0.1-13,0-19.5,0H-18.7z M-7.4,276.1l0.1,0.1c4.7-0.1,9.5-0.1,14.2-0.4
	c3.8-0.3,7.1-1.9,9.6-4.8c5.2-6.5,7.2-13.9,6.1-22.1c-0.4-3.2-2.1-5.7-5.1-7.1c-2.2-1-4.5-1.5-6.9-1.5c-3.3,0-2.4-0.7-3.5,2.5
	L7,243.2l-4.4,17.5c-1,4-2.5,7.8-5.3,10.9C-4.2,273-5.8,274.5-7.4,276.1L-7.4,276.1z M167,257.9c2-1.2,3.8-2.3,5.6-3.3
	c3.3-1.7,6.6-3.3,9.8-5c0.7-0.4,1.3-0.1,1.8,0.4c0.6,0.5,0.5,1.2,0.3,1.9l-1.8,6.5l-3.7,13.5c-0.1,0.5-0.2,1-0.1,1.5
	c0.1,1.4,0.7,1.8,2,1.3c2.2-0.9,4.3-1.9,6.4-2.8c0.4-0.2,0.8-0.4,1.3-0.6c0.5,1.5,0.3,2.2-1,2.8c-4.2,2-8.5,4-12.8,5.9
	c-1.5,0.7-2.3-0.1-2.2-1.7c0.2-3.5,1.3-6.7,2.2-10l3-11c0.1-0.5,0-1.3-0.3-1.6c-0.3-0.3-1.2-0.2-1.6,0c-3,1.7-5.9,3.5-8.8,5.2
	c-1.1,0.6-1.6,1.4-1.9,2.6c-1.3,4.9-2.8,9.8-4.2,14.7c-0.2,0.6-0.4,0.9-1.1,1.1c-1.5,0.4-2.9,0.9-4.5,1.4c0.5-1.7,0.9-3.4,1.4-5
	l8.7-31.2c0.8-2.9,1.9-5.9,4.3-7.9c2.1-1.7,4.2-3.4,6.5-4.9c2-1.4,4.5-1.6,6.9-1.7h4c-0.6,0.9-1.1,1.7-1.6,2.4
	c-1.7,2.4-1.7,2.5-4.6,1.8c-3-0.7-5.1,0.3-6.8,2.9c-2.1,3.4-3.4,7.1-4.5,10.8c-0.9,3-1.8,6.1-2.6,9.2
	C167.1,257.2,167.1,257.4,167,257.9L167,257.9z M59.9,270.2c0,0.7,0.1,1.3,0,1.8c0,0.3-0.2,0.7-0.5,0.8l-12.6,7.6
	c-1,0.6-2.1,0.1-2.1-1.2c0-1.8,0.3-3.6,0.4-5.4c0-0.2,0-0.3,0.1-0.7c-0.4,0.2-0.7,0.4-0.9,0.6c-3,2-5.9,4-8.9,5.9
	c-0.7,0.4-1.6,0.5-2.4,0.7c-0.2,0-0.6-0.2-0.8-0.4c-1.5-1.2-1.6-3-1.5-4.7c0.2-5.5,1.6-10.6,3.7-15.7c1.5-3.7,4.3-6.1,7.7-8.1
	c1.3-0.8,2.7-1.4,4-2.1c0.9-0.5,1.8-0.6,2.8-0.6c3.1,0.2,6.2,0.5,9.2,1.8c-0.7,0.8-1.3,1.5-1.8,2.3c-0.3,0.4-0.6,0.9-0.7,1.4
	c-1.5,5.4-3,10.7-4.4,16.1c-0.2,0.6-0.3,1.2-0.4,1.8c-0.2,1.5,0.5,2.1,1.9,1.6c1.5-0.6,3-1.4,4.5-2.1
	C57.9,271.3,58.8,270.8,59.9,270.2L59.9,270.2z M50.5,253.8c-1.7-0.3-3.2-0.6-4.8-0.8c-2.4-0.3-4.1,0.7-5.2,2.8
	c-1.5,2.8-2.6,5.7-3.3,8.7c-0.6,2.5-1.2,5-1.1,7.6c0,1.2,0.6,2.2,1.6,2.2c0.6,0,1.3-0.1,1.7-0.4c2.1-1.3,4.2-2.8,6.2-4.2
	c0.2-0.2,0.4-0.5,0.4-0.8c0.7-2.4,1.4-4.8,2.1-7.1C48.9,259.2,49.7,256.6,50.5,253.8L50.5,253.8z M154.2,272.1
	c0.2,1.9,0.2,1.9-1.4,2.8c-4,2.2-8.1,4.2-12.6,5.4c-0.5,0.1-1,0.2-1.6,0.3c-5.1,0.7-7.1-3-7.4-6.2c-0.4-3.7,0.6-7.1,1.8-10.6
	c1.2-3.4,2.7-6.6,5.4-9c2.8-2.6,6.1-4.6,9.8-5.6c2.1-0.5,3.7,0.2,4.5,2.1c0.5,1.1,0.7,2.3,1.1,3.5c0,0.2-0.1,0.5-0.2,0.6
	c-0.8,0.8-3.8,2.3-4.9,2.4c-0.1-0.8-0.2-1.6-0.4-2.3c-0.6-2.3-2.5-3.2-4.6-2c-0.7,0.4-1.4,0.9-1.8,1.6c-1,1.9-2,3.8-2.8,5.8
	c-1.2,3.3-2.1,6.7-2.3,10.2c-0.2,3.2,1.2,5.1,4.3,5.2c1.2,0.1,2.4-0.2,3.6-0.6l8.4-3.1C153.4,272.4,153.8,272.2,154.2,272.1
	L154.2,272.1z"/>
</svg>
