<svg xmlns="http://www.w3.org/2000/svg" viewBox="0 0 334 228" enable-background="new 0 0 334 228"><path fill="#056854" d="M49.4 207.5c-2.2-4.2-4.5-8.4-6.7-12.7l-17.1-31.9-.4-.9h281.2l-2.4 4.8-11.3 22-9.3 18.1-.3.6h-233.7zm249.5-41h-266.2c.2.4.3.6.4.9l18.4 34.4c.4.8.9 1.1 1.9 1.1h225.6c1 0 1.4-.3 1.9-1.1l14.5-28.5c1.1-2.1 2.3-4.4 3.5-6.8zM206.8 21.2l2 1.5 60.6 40.8 46.8 31.6 1 .6v.2l-2.6 3.6-6.3-4.2-33.2-22.4c-18.7-12.7-37.4-25.3-56.1-37.9l-12.4-8.4c-.5-.3-.9-.4-1.5-.3-16.4 4.5-32.8 9.1-49.3 13.6l-.9.2c-.4-1.4-.8-2.8-1.2-4.3 1.4-.4 2.7-.8 4-1.1l48.1-13.2.6-.3h.4zM17.3 84l25.6-6.6 37.5-9.7 70-18.1 43.7-11.3c.2 0 .3-.1.6-.1.4 1.4.7 2.8 1.1 4.4-59.1 15.2-118.2 30.5-177.3 45.8l-1.2-4.2v-.2zM165.7 158.6h-101.3c-17.9 0-33.7-12.5-37.8-29.9-3.6-15.3 2.6-31.6 15.5-40.5 5.7-3.9 11.9-6.2 18.7-7 1.3-.1 2.7-.2 4.1-.2h201.9c18.8 0 35 13.3 38.4 31.8 2.5 13.4-1.4 25-11 34.6-5.9 6-13.2 9.5-21.5 10.8-1.8.3-3.6.4-5.4.4h-101.6zm0-5.6h100.6c2.1 0 4.3-.1 6.3-.5 7.1-1.2 13.1-4.5 18.2-9.7 9.2-9.3 12.2-24 6.7-35.9-6.1-13.2-16.6-20.3-31.1-20.3-67.2-.1-134.4-.1-201.6-.1-5.7 0-11 1.3-16.1 3.9-12.7 6.6-19.9 21.2-17.2 35.2 2.9 15.7 16.9 27.3 32.9 27.3 33.8.1 67.6.1 101.3.1zM168.6 119.9c2.5-1.4 4.6-2.7 6.9-3.9 2.2-1.2 4.4-2.3 6.6-3.4.6-.3 1.2-.4 1.9-.4.7-.1 1.1.3 1 1-.2 1.3-.3 2.6-.6 3.9-1.4 5.2-2.9 10.4-4.4 15.7-.3 1-.4 2-.5 3-.1.9.3 1.5 1.3 1.5.6 0 1.3-.2 1.9-.4 1.8-.8 3.7-1.6 5.5-2.5.3-.2.6-.8.6-1.2.4-3.3 1.3-6.5 2.8-9.5 2.7-5.6 7.1-9.3 13-11.1.9-.3 2-.4 3-.2 2.9.4 4.3 3.2 3.2 6.1-.8 1.8-2.1 3.3-3.5 4.6-3.5 3.2-7.4 5.8-11.6 8.1-1.4.8-1.9 1.7-1.8 3.2v1.1c.3 3.5 2.6 4.5 6.2 3.9 3.6-.6 6.8-2.2 10.1-3.7l.7-.3h.3c.3 1.2 0 2-1.2 2.7-3.7 2.1-7.5 4.2-11.7 5.2-1.4.3-2.9.5-4.4.3-3.1-.3-4.9-2.5-5.1-5.6 0-.4-.1-.9-.2-1.4-.4.2-.7.4-.9.5l-10.4 6c-.7.4-1.5.9-2.4.5-.3-.2-.6-.4-.8-.7-.7-1.4-.8-2.8-.4-4.3l4.3-15.6c.3-1.1.3-2.3.4-3.5.1-.7-.4-1-1-.9-.3 0-.7.1-1 .3-2.7 1.4-5.4 2.8-8 4.3-.3.2-.5.7-.6 1.1l-4.8 16.8c-.2.9-.6 1.3-1.5 1.5-1.5.3-3 .8-4.5 1.3.1-.3.1-.6.2-.8 1.9-6.7 3.8-13.4 5.7-20.2.2-.8.4-1.6.5-2.3.2-1.4-.4-1.9-1.7-1.4-1.9.8-3.7 1.6-5.5 2.6-3.2 1.8-3.1 1.8-4.1 5.3l-4.2 14.4c-.2.5-.4.8-.9.9-1.6.4-3.2.9-4.9 1.4.2-.7.3-1.3.5-1.9l5.9-20.1c.2-.7.3-1.4.3-2.1 0-1.2-.5-1.6-1.7-1.3-1.4.4-2.8.9-4.1 1.3-.2.1-.3.1-.5.1-.2-1.6-.2-1.7 1.1-2.4 3-1.6 6.1-3.2 9.1-4.7.8-.4 1.7-1 2.5-.3s.2 1.6 0 2.4c-.3 1.5-.8 3-1.2 4.4-.1.2-.1.4-.1.8l1.7-.9 10.6-5.7c.8-.4 1.6-.8 2.5-1 1.2-.3 1.9.2 1.7 1.4-.3 1.6-.8 3.2-1.2 4.8-.4.3-.5.7-.6 1.3zm25.9 8.8c.3-.1.4-.1.6-.1 2.9-1.5 5.6-3.2 7.9-5.6 1.1-1.2 1.9-2.6 2-4.2.1-1.1 0-2.1-1.1-2.7-1-.6-2.1-.5-3 .2-.9.7-1.7 1.6-2.4 2.5-1.7 2.3-2.7 5-3.5 7.7-.1.7-.3 1.4-.5 2.2zM63.3 142.6l2.2-2.7c.2-.2.6-.4 1-.4 1.2-.2 2.3-.3 3.5-.6 2.3-.5 4.1-1.7 4.9-3.8 1.4-3.5 2.8-7.1 3.9-10.7 1.5-5 2.6-10 3.9-15.1.5-1.9.9-3.8 1.3-5.8-2.3.2-4.2.6-6.2 1.4-5.9 2.3-8.9 7.1-8.5 13.5.1.9.2 1.9.2 2.8 0 .3-.2.7-.4.8-1.8.8-3.6 1.5-5.5 2.3-1.5-6.3 0-11.7 4.8-16 3.7-3.4 8.2-5.4 13-6.4 2.9-.6 5.8-1.4 8.5-2.7l.6-.2c0 .3.1.4 0 .6-.1 1.2-.1 1.1 1.1 1.2 4.5.2 9 .6 13.1 2.5 4.2 1.9 6.3 5.2 6.5 9.7.3 6.1-1.3 11.7-4.5 16.9-2.2 3.5-5.3 6-8.8 8-3.2 1.8-6.4 3.5-10 4.2-1.6.3-3.2.4-4.8.5-6.5.1-13 0-19.5 0h-.3zm11.3-3.5l.1.1c4.7-.1 9.5-.1 14.2-.4 3.8-.3 7.1-1.9 9.6-4.8 5.2-6.5 7.2-13.9 6.1-22.1-.4-3.2-2.1-5.7-5.1-7.1-2.2-1-4.5-1.5-6.9-1.5-3.3 0-2.4-.7-3.5 2.5l-.1.4-4.4 17.5c-1 4-2.5 7.8-5.3 10.9-1.5 1.4-3.1 2.9-4.7 4.5zM249 120.9c2-1.2 3.8-2.3 5.6-3.3 3.3-1.7 6.6-3.3 9.8-5 .7-.4 1.3-.1 1.8.4.6.5.5 1.2.3 1.9l-1.8 6.5-3.7 13.5c-.1.5-.2 1-.1 1.5.1 1.4.7 1.8 2 1.3 2.2-.9 4.3-1.9 6.4-2.8.4-.2.8-.4 1.3-.6.5 1.5.3 2.2-1 2.8-4.2 2-8.5 4-12.8 5.9-1.5.7-2.3-.1-2.2-1.7.2-3.5 1.3-6.7 2.2-10l3-11c.1-.5 0-1.3-.3-1.6-.3-.3-1.2-.2-1.6 0-3 1.7-5.9 3.5-8.8 5.2-1.1.6-1.6 1.4-1.9 2.6-1.3 4.9-2.8 9.8-4.2 14.7-.2.6-.4.9-1.1 1.1-1.5.4-2.9.9-4.5 1.4.5-1.7.9-3.4 1.4-5l8.7-31.2c.8-2.9 1.9-5.9 4.3-7.9 2.1-1.7 4.2-3.4 6.5-4.9 2-1.4 4.5-1.6 6.9-1.7h4c-.6.9-1.1 1.7-1.6 2.4-1.7 2.4-1.7 2.5-4.6 1.8-3-.7-5.1.3-6.8 2.9-2.1 3.4-3.4 7.1-4.5 10.8-.9 3-1.8 6.1-2.6 9.2 0 .1 0 .3-.1.8zM141.9 133.2c0 .7.1 1.3 0 1.8 0 .3-.2.7-.5.8l-12.6 7.6c-1 .6-2.1.1-2.1-1.2 0-1.8.3-3.6.4-5.4 0-.2 0-.3.1-.7-.4.2-.7.4-.9.6-3 2-5.9 4-8.9 5.9-.7.4-1.6.5-2.4.7-.2 0-.6-.2-.8-.4-1.5-1.2-1.6-3-1.5-4.7.2-5.5 1.6-10.6 3.7-15.7 1.5-3.7 4.3-6.1 7.7-8.1 1.3-.8 2.7-1.4 4-2.1.9-.5 1.8-.6 2.8-.6 3.1.2 6.2.5 9.2 1.8-.7.8-1.3 1.5-1.8 2.3-.3.4-.6.9-.7 1.4-1.5 5.4-3 10.7-4.4 16.1-.2.6-.3 1.2-.4 1.8-.2 1.5.5 2.1 1.9 1.6 1.5-.6 3-1.4 4.5-2.1.7-.3 1.6-.8 2.7-1.4zm-9.4-16.4c-1.7-.3-3.2-.6-4.8-.8-2.4-.3-4.1.7-5.2 2.8-1.5 2.8-2.6 5.7-3.3 8.7-.6 2.5-1.2 5-1.1 7.6 0 1.2.6 2.2 1.6 2.2.6 0 1.3-.1 1.7-.4 2.1-1.3 4.2-2.8 6.2-4.2.2-.2.4-.5.4-.8.7-2.4 1.4-4.8 2.1-7.1.8-2.6 1.6-5.2 2.4-8zM236.2 135.1c.2 1.9.2 1.9-1.4 2.8-4 2.2-8.1 4.2-12.6 5.4-.5.1-1 .2-1.6.3-5.1.7-7.1-3-7.4-6.2-.4-3.7.6-7.1 1.8-10.6 1.2-3.4 2.7-6.6 5.4-9 2.8-2.6 6.1-4.6 9.8-5.6 2.1-.5 3.7.2 4.5 2.1.5 1.1.7 2.3 1.1 3.5 0 .2-.1.5-.2.6-.8.8-3.8 2.3-4.9 2.4-.1-.8-.2-1.6-.4-2.3-.6-2.3-2.5-3.2-4.6-2-.7.4-1.4.9-1.8 1.6-1 1.9-2 3.8-2.8 5.8-1.2 3.3-2.1 6.7-2.3 10.2-.2 3.2 1.2 5.1 4.3 5.2 1.2.1 2.4-.2 3.6-.6l8.4-3.1c.3-.2.7-.4 1.1-.5z"/></svg>