<?xml version="1.0" encoding="utf-8"?>
<!-- Generator: Adobe Illustrator 21.0.2, SVG Export Plug-In . SVG Version: 6.00 Build 0)  -->
<svg version="1.1" id="Calque_2" xmlns="http://www.w3.org/2000/svg" xmlns:xlink="http://www.w3.org/1999/xlink" x="0px" y="0px"
	 viewBox="0 0 500 214" style="enable-background:new 0 0 500 214;" xml:space="preserve">
<style type="text/css">
	.st0{fill:#E42729;}
</style>
<path class="st0" d="M44.8,64c34.6-13,73.8-21.4,113.8-15.5l4.1-7.5c8.2-1.3,16.6-2.4,24.8-3.3l-11.1,17
	c10.8,4.7,19.9,16.1,20.7,28.1c0.1,16.2-7.2,29.7-15.6,42.3l12-1.4c8.2-13.2,31-29.2,40.3-17.1l3.3-4.5c0,0,14.9-2.2,15.2-2.3
	c-13.3,24.6-20.4,31.3-18.6,33.6c2,2.7,26.2-18.8,35.4-36.3l14.4-1.6l-8.1,14.3c14.5-11.9,19.8-19.6,27.8-16.3
	c11.3,4.7-13.4,30.9-10.7,32.7c2.2,1.4,22.1-13.1,31.6-27.8l-13.5,2.2l4.7-8.8l13.4-1.7c14.5-26.7,52.7-78,64.4-70.4
	c10.8,7-15.2,40.9-49.4,65.3l-2.1,3.8l29.6-3.3c0.6,0.3,0.8,1.2,0.2,1.9c-9.6,8.1-28.3,27.9-18.5,34c8.7,3.1,22.2-17,23.4-21
	c-7.6-2.4-1.5-23.9,9.4-21.1c7.4,2.5,1.8,13.1,0,17.2c14.1-1.7,26.8-16.1,26.8-16.1c-0.1-11.4,7.1-23.6,15.5-20.6
	c5.5,2.8,0.9,11-7.9,20.4c-1.1,1.2-0.6,5.6-0.8,10.8c9.6-3.3,20.4-7.8,29.4-12.3c0.1-10.9,5.6-24.2,14.8-21.4
	c6.7,2,0.1,15.5-8.4,22.3c-0.2,14.7,2.2,24.4-1.5,32.1c-4.2,8.9-19.1,16.2-27.9,11.1c-9.2-5.3-1-17.1,4.6-21.6
	c4.9-4.1,17.7-10,17.7-10s0.7-5,0.4-7.4c-5,3-28.8,11.9-28.8,11.9c-1,8.7-0.8,12.3-5,20.2c-5.2,9.8-22.1,13.8-27.8,8.2
	c-3.9-3.8-2.8-13.1,5.4-19.7c6.2-5,19.2-10.4,19.2-10.4s1.1-5,0.7-7c-8.3,7.2-18,14.6-30.3,14.9c-7.5,14.8-27.2,35.3-41.3,26.1
	c-13.6-8.9,8.3-32.2,10.6-33.9c-4.6,0.3-13.7,2.3-13.7,2.3l-24,44.5l0.3-0.1c0,0,82.2-9.4,156.7-9.6l-8.9,8.4c4.2,3,8.7,6,13.3,8.5
	c0,0-77.8-3.5-167.4,3.9l-12.9,24l-16.2,1.2l14-24.4c0,0-40.7,1.3-130.1,13.4c1.1-1.8,1.3-2.2,2.7-4.7
	c79.6-15.3,133.5-19.3,133.5-19.3s12.5-21.5,12-21.1c-7.9,6.5-25.1,20.5-32.4,13.7c-5.3-6.6,13-27.5,11-29.2
	c-1.7-1.4-23.4,21-31.4,33.2c-4.4,0.2-12.7,1.3-12.7,1.3l6.3-12.3c-7.1,5.5-14.6,11.6-22.7,14.7c-2.2,0.9-7.3,1.2-9.5-4.8
	c0,0-16.1,14.6-26.9,8.9c-5.8-3-3.2-13.9-2.1-16.4l-12.8,1.4c-55.6,64.4-128,71.7-136.7,57.5c-9.2-15.1,23.6-35.3,68.7-49.5
	c0,0,40-72.1,39.2-72.6C93.2,58.5,25,101.1,25,101.1L44.8,64 M65.8,180c6.5,8.2,60.8-0.4,97.6-46c-25.4,4-40.5,9.4-46,11.4
	c-12,19.5-16.9,26.6-21.5,25.9c-5.5-0.8,3.2-11.2,8-21.4C83.8,156.4,59.8,172.3,65.8,180z M124.4,135c14.2-3.8,36.4-7.4,44-8.2
	c6.5-10.4,27.2-45-2.5-55.8L124.4,135z M210.3,120.5c-4.2,5.7-8.9,15.2-5.4,18s13.2-5.7,16.5-9.9c5.6-7.3,10.1-17.2,6.7-19.1
	C222.7,106.6,213.3,116.4,210.3,120.5z M350.1,72.7c10.9-6.6,38.5-34.1,31.6-40.6C374.7,29.1,355.7,59.6,350.1,72.7z M399.5,105.4
	c-4.5,3.3-6.8,7.4-4.6,9.2c2.1,1.7,7.8-1.6,10.3-5.1c3.9-5.4,4.9-10.1,4.9-10.1S406.4,100.2,399.5,105.4z M435.4,103.6
	c-1.6,1.4-7.3,6.7-4.8,9.3c2.2,2.3,8.6-1.6,11.2-4.6c3.5-4.1,5.1-10.6,5.1-10.6S439.9,99.6,435.4,103.6z"/>
</svg>
