<?xml version="1.0" encoding="utf-8"?>
<!-- Generator: Adobe Illustrator 16.0.0, SVG Export Plug-In . SVG Version: 6.00 Build 0)  -->
<!DOCTYPE svg PUBLIC "-//W3C//DTD SVG 1.1//EN" "http://www.w3.org/Graphics/SVG/1.1/DTD/svg11.dtd">
<svg version="1.1" id="Calque_2" xmlns="http://www.w3.org/2000/svg" xmlns:xlink="http://www.w3.org/1999/xlink" x="0px" y="0px"
	 width="500px" height="500px" viewBox="0 0 500 500" enable-background="new 0 0 500 500" xml:space="preserve">
<g>
	<path fill="#E42729" d="M44.798,206.958c34.646-12.963,73.802-21.406,113.755-15.504l4.066-7.507
		c8.22-1.314,16.638-2.429,24.845-3.28l-11.092,17.004c10.782,4.716,19.87,16.093,20.737,28.119
		c0.063,16.179-7.193,29.735-15.573,42.336l12.043-1.442c8.158-13.179,30.961-29.208,40.293-17.103l3.253-4.527
		c0,0,14.885-2.247,15.183-2.289c-13.296,24.624-20.381,31.272-18.629,33.611c2.042,2.725,26.233-18.78,35.376-36.348l14.407-1.586
		l-8.069,14.325c14.546-11.902,19.849-19.611,27.847-16.283c11.255,4.674-13.443,30.905-10.668,32.657
		c2.213,1.4,22.112-13.096,31.573-27.815l-13.527,2.169l4.741-8.801l13.409-1.727c14.487-26.734,52.705-77.961,64.4-70.393
		c10.803,6.988-15.188,40.881-49.352,65.293l-2.146,3.787l29.578-3.332c0.582,0.266,0.817,1.249,0.176,1.851
		c-9.579,8.101-28.308,27.851-18.47,34.038c8.678,3.077,22.246-16.985,23.441-21.006c-7.63-2.412-1.543-23.862,9.436-21.098
		c7.428,2.523,1.815,13.135,0.046,17.239c14.052-1.748,26.766-16.133,26.766-16.133c-0.075-11.379,7.067-23.581,15.544-20.611
		c5.475,2.781,0.935,11.014-7.898,20.436c-1.085,1.159-0.615,5.603-0.771,10.784c9.6-3.337,20.364-7.766,29.394-12.308
		c0.146-10.941,5.57-24.223,14.784-21.45c6.741,2.031,0.071,15.51-8.408,22.322c-0.168,14.701,2.209,24.37-1.459,32.066
		c-4.222,8.854-19.132,16.197-27.889,11.121c-9.172-5.323-1.04-17.124,4.603-21.559c4.921-4.119,17.724-10.033,17.724-10.033
		s0.653-4.988,0.373-7.437c-4.972,3.006-28.786,11.857-28.786,11.857c-1.027,8.728-0.805,12.312-4.967,20.201
		c-5.173,9.8-22.054,13.824-27.776,8.236c-3.928-3.827-2.791-13.07,5.379-19.672c6.187-5,19.178-10.436,19.178-10.436
		s1.094-5.043,0.721-7.026c-8.329,7.189-17.966,14.565-30.253,14.854c-7.466,14.848-27.188,35.329-41.328,26.082
		c-13.603-8.896,8.33-32.184,10.56-33.915c-4.628,0.293-13.732,2.272-13.732,2.272l-24.007,44.528l0.331-0.109
		c0,0,82.183-9.402,156.718-9.604l-8.933,8.354c4.213,3.01,8.72,5.957,13.255,8.51c0,0-77.776-3.454-167.374,3.919l-13.129,24.376
		l-16.231,1.174l14.047-24.396c0,0-40.749,1.312-130.091,13.355c1.065-1.824,1.27-2.234,2.691-4.679
		c79.633-15.317,133.47-19.299,133.47-19.299s12.479-21.455,12.002-21.061c-7.877,6.544-25.135,20.503-32.404,13.678
		c-5.319-6.589,13.041-27.486,10.979-29.184c-1.723-1.413-23.44,20.977-31.363,33.195c-4.381,0.248-12.739,1.309-12.739,1.309
		l6.321-12.3c-7.147,5.483-14.608,11.57-22.653,14.73c-2.222,0.905-7.336,1.166-9.474-4.812c0,0-16.093,14.579-26.878,8.945
		c-5.806-3.035-3.157-13.935-2.092-16.433l-12.785,1.4c-55.602,64.354-128.025,71.677-136.652,57.5
		c-9.209-15.137,23.63-35.309,68.655-49.498c0,0,39.966-72.113,39.236-72.625C93.215,201.538,25,244.082,25,244.082L44.798,206.958
		 M65.808,323.002c6.501,8.229,60.85-0.432,97.591-45.96c-25.353,4.021-40.46,9.402-45.972,11.39
		c-11.951,19.525-16.923,26.576-21.53,25.931c-5.538-0.779,3.236-11.213,7.986-21.354C83.846,299.427,59.751,315.331,65.808,323.002
		z M124.373,277.994c14.231-3.84,36.386-7.407,44.027-8.199c6.46-10.396,27.197-45.049-2.519-55.763L124.373,277.994z
		 M210.286,263.498c-4.209,5.734-8.891,15.208-5.374,17.958c3.496,2.75,13.213-5.663,16.482-9.884
		c5.613-7.252,10.086-17.204,6.665-19.065C222.677,249.581,213.292,259.407,210.286,263.498z M350.148,215.686
		c10.857-6.64,38.498-34.12,31.645-40.59C374.663,172.061,355.724,202.628,350.148,215.686z M399.471,248.374
		c-4.49,3.345-6.842,7.353-4.599,9.214c2.096,1.719,7.822-1.635,10.316-5.081c3.936-5.433,4.854-10.077,4.854-10.077
		S406.408,243.214,399.471,248.374z M435.378,246.555c-1.589,1.392-7.349,6.669-4.829,9.322c2.168,2.289,8.59-1.588,11.163-4.623
		c3.463-4.091,5.11-10.625,5.11-10.625S439.922,242.564,435.378,246.555z"/>
</g>
</svg>
