<?xml version="1.0" encoding="utf-8"?>
<!-- Generator: Adobe Illustrator 19.1.0, SVG Export Plug-In . SVG Version: 6.00 Build 0)  -->
<svg version="1.1" id="Calque_2" xmlns="http://www.w3.org/2000/svg" xmlns:xlink="http://www.w3.org/1999/xlink" x="0px" y="0px"
	 viewBox="0 0 500 500" style="enable-background:new 0 0 500 500;" xml:space="preserve">
<style type="text/css">
	.st0{fill:#172983;}
	.st1{fill:#D2CEE5;}
	.st2{fill:#A5AED5;}
	.st3{fill:#8E97C7;}
	.st4{fill:#FFFFFF;}
</style>
<g>
	<path class="st0" d="M469.5,143.9L432,356.1H30.5L68,143.9H469.5 M475,139.3H64.1L25,360.7h410.9L475,139.3L475,139.3z"/>
	<g>
		<polygon class="st0" points="347.3,152.5 72.2,152.5 37.8,347.5 312.9,347.5 		"/>
	</g>
	<g>
		<polygon class="st1" points="374.7,152.5 356.6,152.5 322.2,347.5 340.3,347.5 		"/>
	</g>
	<g>
		<polygon class="st2" points="401.8,152.5 383.7,152.5 349.3,347.5 367.4,347.5 		"/>
	</g>
	<g>
		<polygon class="st3" points="430.3,152.5 412.2,152.5 377.8,347.5 395.9,347.5 		"/>
	</g>
	<g>
		<polygon class="st0" points="458.1,152.5 440,152.5 405.6,347.5 423.7,347.5 		"/>
	</g>
	<g>
		<path class="st4" d="M151.7,183.1l-11.5,60.2c-5.1-9.2-14.2-15-25.6-15c-20.6,0-41,18.9-45.6,42.2c-4.5,23.3,8.5,42.2,29.1,42.2
			c11.5,0,23-5.9,31.7-15.2l-2.4,12.4h15.8l24.3-126.8L151.7,183.1L151.7,183.1z M135.1,270.5c-3.1,16-17.1,29-31.3,29
			s-23.1-13-20-29s17.1-29,31.3-29S138.2,254.5,135.1,270.5z"/>
		<path class="st4" d="M216.3,283.9c0,0-10.1,16-27.6,16s-20.2-21.5-17.9-26.7h60.6l0.9-4.3c4.6-23.9-9.5-42.3-30.4-42.3
			s-41.5,19.4-46.1,43.3s8.6,43.3,29.5,43.3c22.2,0,38.5-10.9,46.1-29.2L216.3,283.9L216.3,283.9z M200.9,241.1
			c20.2,0,17.1,20,17.1,20h-44.2C173.7,261.1,180.7,241.1,200.9,241.1z"/>
		<path class="st4" d="M318.9,239.5l7.4-11.5l-12,4.5l-2.5-29.1l-5.4,26l-16.4-11l6,10.7c-1.7-0.3-3.4-0.4-5.2-0.4
			c-11.5,0-22.8,5.8-31.5,15l10.8-60.2h-15.8l-22.8,126.8h15.8l2-11.1c5.2,8.5,14,13.9,25,13.9c20.6,0,41-18.9,45.6-42.2
			c1.2-6.2,1.2-12,0.1-17.3l4.2,1.6l-4.5-12.3l4.9-3.4L318.9,239.5L318.9,239.5z M305.9,270.5c-3.1,16-17.1,29-31.3,29
			s-23.1-13-20-29s17.1-29,31.3-29S309,254.5,305.9,270.5z"/>
	</g>
</g>
</svg>
