<?xml version="1.0" encoding="utf-8"?>
<!-- Generator: Adobe Illustrator 19.1.0, SVG Export Plug-In . SVG Version: 6.00 Build 0)  -->
<svg version="1.1" id="Calque_1" xmlns="http://www.w3.org/2000/svg" xmlns:xlink="http://www.w3.org/1999/xlink" x="0px" y="0px"
	 viewBox="0 0 500 500" style="enable-background:new 0 0 500 500;" xml:space="preserve">
<style type="text/css">
	.st0{fill:#95C154;}
</style>
<g>
	<g>
		<path d="M25,70.7h25.2c5,0,9,0.6,12,1.8c3.1,1.2,5.6,3,7.6,5.3c2,2.3,3.4,5,4.3,8c0.9,3.1,1.4,6.3,1.4,9.7c0,5.4-0.7,9.5-2,12.5
			s-3.2,5.4-5.6,7.4s-4.9,3.3-7.6,4c-3.7,0.9-7.1,1.4-10.1,1.4H25V70.7z M42,82.1v27.4h4.1c3.5,0,6.1-0.4,7.6-1.1
			c1.5-0.7,2.7-2,3.5-3.8s1.3-4.7,1.3-8.7c0-5.3-0.9-8.9-2.8-10.9c-1.9-2-5-2.9-9.4-2.9L42,82.1L42,82.1z"/>
		<path d="M84.4,70.7h45.4v10.7h-28.4v8h26.4v10.2h-26.4v9.9h29.3v11.4H84.4V70.7z"/>
		<path d="M176.3,100.3l14.9,4.1c-1,3.8-2.6,7-4.7,9.5c-2.1,2.6-4.8,4.5-8,5.8c-3.2,1.3-7.2,1.9-12.1,1.9c-6,0-10.8-0.8-14.6-2.4
			s-7-4.4-9.8-8.4c-2.7-4-4.1-9.1-4.1-15.3c0-8.3,2.4-14.7,7.2-19.1c4.8-4.5,11.7-6.7,20.5-6.7c6.9,0,12.3,1.3,16.3,3.8
			c3.9,2.6,6.9,6.5,8.8,11.8l-15,3c-0.5-1.5-1.1-2.6-1.6-3.4c-1-1.2-2.1-2.1-3.5-2.7c-1.4-0.6-2.9-1-4.6-1c-3.8,0-6.8,1.4-8.8,4.2
			c-1.6,2.1-2.3,5.4-2.3,9.9c0,5.6,0.9,9.4,2.8,11.4c1.8,2.1,4.4,3.1,7.8,3.1c3.2,0,5.7-0.8,7.4-2.5
			C174.3,105.9,175.5,103.5,176.3,100.3z"/>
		<path d="M197.2,95.8c0-8.2,2.5-14.6,7.5-19.1c5-4.6,11.9-6.8,20.8-6.8c9.1,0,16.2,2.2,21.1,6.7c4.9,4.5,7.4,10.8,7.4,18.8
			c0,5.9-1.1,10.7-3.2,14.4s-5.3,6.7-9.4,8.8c-4.1,2.1-9.2,3.1-15.3,3.1c-6.2,0-11.3-0.9-15.4-2.7c-4.1-1.8-7.3-4.7-9.9-8.6
			C198.5,106.6,197.2,101.7,197.2,95.8z M214.2,95.9c0,5.1,1,8.7,3.1,10.9c2.1,2.2,4.9,3.3,8.4,3.3c3.6,0,6.5-1.1,8.5-3.2
			c2-2.2,3-6.1,3-11.7c0-4.7-1-8.2-3.1-10.3c-2.1-2.2-4.9-3.3-8.5-3.3c-3.4,0-6.2,1.1-8.2,3.3C215.2,87.1,214.2,90.8,214.2,95.9z"/>
		<path d="M263.3,70.7h41.9v10.8h-24.9v8.8h21.3v10.1h-21.3v20.5h-17V70.7z"/>
		<path d="M314.3,70.7h17v37.8h26.5v12.3h-43.4V70.7z"/>
		<path d="M365.4,70.7h45.4v10.7h-28.4v8h26.4v10.2h-26.4v9.9h29.3v11.4h-46.3V70.7z"/>
		<path d="M417.1,70.7h18.7l9.7,15.4l9.5-15.4h18.5L456.3,95l18.7,25.9h-19l-10.8-16.1l-10.8,16.1h-18.9l18.9-26.1L417.1,70.7z"/>
	</g>
	<g>
		<g>
			<path class="st0" d="M250,152.8c-68.3,0-124.4,53.1-129.4,120.1H166v-68h168v68h45.4C374.4,205.9,318.3,152.8,250,152.8z"/>
			<path class="st0" d="M101.7,142.7v130.3h15.1c5-69.2,62.8-124,133.2-124c70.4,0,128.3,54.8,133.2,124h15.1V142.7H101.7z"/>
		</g>
		<g>
			<path class="st0" d="M250,412.3c65.7,0,120.1-49.1,128.6-112.5H334v68H166v-68h-44.6C129.9,363.2,184.3,412.3,250,412.3z"/>
			<path class="st0" d="M382.4,299.8c-8.5,65.5-64.6,116.3-132.4,116.3c-67.8,0-123.9-50.8-132.4-116.3h-15.9v130.3h296.6V299.8
				H382.4z"/>
		</g>
	</g>
</g>
</svg>
