<?xml version="1.0" encoding="utf-8"?>
<!-- Generator: Adobe Illustrator 19.1.0, SVG Export Plug-In . SVG Version: 6.00 Build 0)  -->
<svg version="1.1" id="Calque_1" xmlns="http://www.w3.org/2000/svg" xmlns:xlink="http://www.w3.org/1999/xlink" x="0px" y="0px"
	 viewBox="0 0 500 500" style="enable-background:new 0 0 500 500;" xml:space="preserve">
<style type="text/css">
	.st0{fill:#FFDD00;}
	.st1{fill:#FFE7AB;}
</style>
<g id="Calque_1_1_">
</g>
<g id="Calque_2">
	<g>
		<polygon points="451.5,259.6 451.5,234.4 440.8,234.4 440.8,268.8 474.9,268.8 474.9,259.6 		"/>
		<polygon points="137.8,260.5 137.8,254.6 162.6,254.6 162.6,248 137.8,248 137.8,242.1 164.9,242.1 164.9,234.4 127.2,234.4 
			127.2,268.8 164.9,268.8 164.9,260.5 		"/>
		<polygon points="334.2,260.5 334.2,254.6 359,254.6 359,248 334.2,248 334.2,242.1 361.2,242.1 361.2,234.4 323.6,234.4 
			323.6,268.8 361.2,268.8 361.2,260.5 		"/>
		<path d="M249.9,233.8h-23.4c-6.5,0-11.9,5.4-11.9,11.9v12c0,6.5,5.4,11.9,11.9,11.9h23.4c6.5,0,11.9-5.4,11.9-11.9v-12
			C261.8,239.2,256.4,233.8,249.9,233.8z M251.2,254.5c0,3.4-2.8,6.3-6.3,6.3h-13.5c-3.5,0-6.3-2.8-6.3-6.3V249
			c0-3.5,2.8-6.3,6.3-6.3h13.5c3.5,0,6.3,2.8,6.3,6.3V254.5z"/>
		<polygon class="st0" points="86,233.8 77.4,233.8 77.4,268.8 86,268.8 95.1,251.6 		"/>
		<g>
			<path d="M112.7,233.8H89.3c-0.5,0-0.9,0-1.4,0.1l4.5,8.9c0.6-0.2,1.2-0.3,1.8-0.3h13.5c3.5,0,6.3,2.8,6.3,6.1v5.4
				c0,3.4-2.8,6.1-6.3,6.1H94.3c-0.6,0-1.2-0.1-1.7-0.2l-4.7,8.8c0.5,0.1,0.9,0.1,1.4,0.1h23.4c6.5,0,11.9-5.2,11.9-11.6v-11.7
				C124.6,239.1,119.2,233.8,112.7,233.8z"/>
		</g>
		<path d="M183.4,241.8H196c2.7,0,5,2,5.5,4.5h10.2v-2.2c0-5.7-4.7-10.4-10.4-10.4h-23.7c-5.7,0-10.4,4.7-10.4,10.4v15
			c0,5.7,4.7,10.4,10.4,10.4h23.7c5.7,0,10.4-4.7,10.4-10.4v-9.9h-7h-3.1h-13.3v7h13.2c-0.2,2.9-2.6,5.2-5.6,5.2h-12.6
			c-3.1,0-5.6-2.5-5.6-5.6v-8.4C177.8,244.3,180.3,241.8,183.4,241.8z"/>
		<polygon points="304.6,234.4 292.4,255.9 280.2,234.4 264.3,234.4 264.3,268.8 274.5,268.8 274.5,244.4 288.3,268.8 296.4,268.8 
			310.3,244.4 310.3,268.8 320.5,268.8 320.5,234.4 		"/>
		<path d="M422.5,234.4h-13.6L390.3,268v0.8h11.8l2.9-6.3h21.2l2.9,6.3h11.8v-1.5L422.5,234.4z M409.2,255.3l6.3-12.4h0.1l6.3,12.4
			H409.2z"/>
		<polygon points="406.1,234.4 406.1,234.4 362.3,234.4 362.3,242.1 377.2,242.1 377.2,268.8 387.3,268.8 387.3,242.1 401.8,242.1 
					"/>
		<polygon class="st1" points="474.9,290.6 315.3,290.6 320.1,283 315.3,275.4 474.9,275.4 		"/>
		<polygon class="st0" points="311.1,290.6 56.4,290.6 73.2,275.4 311.1,275.4 315.6,283 		"/>
		<path d="M63.1,240.9v-1.9l0,0v-2.2h-2.9V225l-18.7-16.6v7.6l-8.5-7.6v7.2l-8.1-7.2v82.3l8.1-6.6v6.6l8.5-6.9v6.9l18.7-15.2v-9.9
			h2.9v-2l0,0v-4c0,0,3.5-4.4,3.5-9C66.7,245.8,63.1,240.9,63.1,240.9z M27.4,284.9v-70.7l14,12.2v11.9c0,0-4.3,6.3-4.3,12.2
			c0,5.9,4.3,11.6,4.3,11.6v11.9L27.4,284.9z M61.4,257.3v5.9h-1.1v-4h-2.2v14.7l-14,11v-3.2l7.7-6.2v-16.3h-2.2v14.7l-14,11V282
			l8.1-6.6v-16.3c0,0-3.5-1.7-3.5-8.6c0-6.9,3.5-9.4,3.5-9.4V225l-8.1-7.2v-3.7l14,12.2V241l2.2,0.2V225l-7.7-6.8v-4.1l14,12.2V241
			l2.2,0.2v-2.1h1.1v4.2c0,0,2.9,1.9,2.9,7.3C64.2,256,61.4,257.3,61.4,257.3z"/>
		<rect x="42.8" y="243" width="17" height="1.2"/>
		<rect x="42.8" y="255.6" width="17" height="1.2"/>
		<g>
			<path d="M79.2,277.8h1.7v9.2h-1.7V277.8z"/>
			<path d="M83.2,284.7c0-1.2,1-1.8,2.7-1.8h3.1v-1.1c0-0.3-0.1-0.6-0.6-0.6h-4.3v-1h3.7c1.7,0,2.8,0.6,2.8,1.8v4.9h-1.7v-0.8
				c-0.4,0.7-1.3,0.8-2.6,0.8h-0.5c-1.7,0-2.7-0.6-2.7-1.8V284.7z M85.7,286h2.7c0.5,0,0.6-0.1,0.7-0.4v-1.7h-3.5
				c-0.5,0-0.7,0.2-0.7,0.7v0.7C84.9,285.8,85.1,286,85.7,286z"/>
			<path d="M98.7,280.3h1.7v0.8c0.4-0.7,1.3-0.8,2.6-0.8h0.5c1.7,0,2.7,0.6,2.7,1.8v3.1c0,1.2-1,1.8-2.7,1.8H103
				c-1.3,0-2.2,0-2.6-0.8v3h-1.7V280.3z M100.4,285.5c0.1,0.3,0.2,0.4,0.7,0.4h2.7c0.6,0,0.7-0.2,0.7-0.7v-3.4
				c0-0.5-0.2-0.7-0.7-0.7h-2.8c-0.5,0-0.7,0.2-0.7,0.7V285.5z"/>
			<path d="M109.9,284.1v1.3c0,0.3,0.2,0.6,0.6,0.6h5.5v1h-4.9c-1.7,0-2.8-0.6-2.8-1.8v-3.1c0-1.2,1.2-1.8,2.8-1.8h2
				c1.7,0,2.8,0.6,2.8,1.8v2H109.9z M114.3,281.8c0-0.3-0.1-0.6-0.6-0.6h-3.2c-0.4,0-0.6,0.3-0.6,0.6v1.3h4.4V281.8z"/>
			<path d="M119.9,287h-1.7v-6.7h1.7v0.8c0.4-0.7,1.3-0.8,2.6-0.8h0.6v1h-2.6c-0.5,0-0.7,0.2-0.7,0.7L119.9,287L119.9,287z"/>
			<path d="M125.5,280.3v-0.7c0-1.1,0.8-1.8,2.8-1.8h0.7v1h-1c-0.6,0-0.7,0.3-0.7,0.7v0.8h1.6v1h-1.6v5.7h-1.7v-5.7h-1.3v-1
				L125.5,280.3L125.5,280.3z"/>
			<path d="M138.4,285.1c0,1.2-1,1.8-2.7,1.8h-2.5c-1.6,0-2.7-0.6-2.7-1.8v-3.1c0-1.2,1-1.8,2.7-1.8h2.5c1.6,0,2.7,0.6,2.7,1.8
				V285.1z M133,286h2.9c0.6,0,0.7-0.2,0.7-0.7v-3.4c0-0.5-0.2-0.7-0.7-0.7H133c-0.6,0-0.7,0.2-0.7,0.7v3.4
				C132.3,285.8,132.5,286,133,286z"/>
			<path d="M142.4,287h-1.7v-6.7h1.7v0.8c0.4-0.7,1.3-0.8,2.6-0.8h0.6v1h-2.6c-0.5,0-0.7,0.2-0.7,0.7L142.4,287L142.4,287z"/>
			<path d="M147.3,280.3h1.7v0.8c0.4-0.7,1.3-0.8,2.6-0.8h0.1c1.2,0,2.1,0.3,2.5,1c0.4-0.9,1.5-1,2.8-1h0.1c1.7,0,2.7,0.6,2.7,1.8
				v4.9h-1.7v-5c0-0.5-0.2-0.7-0.7-0.7H155c-0.5,0-0.7,0.2-0.7,0.7v5h-1.7v-5c0-0.5-0.2-0.7-0.7-0.7h-2.4c-0.5,0-0.7,0.2-0.7,0.7v5
				h-1.7L147.3,280.3L147.3,280.3z"/>
			<path d="M161.8,284.7c0-1.2,1-1.8,2.7-1.8h3.1v-1.1c0-0.3-0.1-0.6-0.6-0.6h-4.3v-1h3.7c1.7,0,2.8,0.6,2.8,1.8v4.9h-1.7v-0.8
				c-0.4,0.7-1.3,0.8-2.6,0.8h-0.5c-1.7,0-2.7-0.6-2.7-1.8L161.8,284.7L161.8,284.7z M164.2,286h2.7c0.5,0,0.6-0.1,0.7-0.4v-1.7
				h-3.5c-0.5,0-0.7,0.2-0.7,0.7v0.7C163.5,285.8,163.7,286,164.2,286z"/>
			<path d="M171.9,280.3h1.7v0.8c0.4-0.7,1.3-0.8,2.6-0.8h0.5c1.7,0,2.7,0.6,2.7,1.8v4.9h-1.7v-5c0-0.5-0.2-0.7-0.7-0.7h-2.8
				c-0.5,0-0.7,0.2-0.7,0.7v5h-1.7L171.9,280.3L171.9,280.3z"/>
			<path d="M183.8,286h4.2v1h-4c-1.7,0-2.7-0.6-2.7-1.8v-3.1c0-1.2,1-1.8,2.7-1.8h4v1h-4.2c-0.6,0-0.7,0.2-0.7,0.7v3.4
				C183.1,285.8,183.3,286,183.8,286z"/>
			<path d="M191.4,284.1v1.3c0,0.3,0.1,0.6,0.6,0.6h5.5v1h-4.9c-1.7,0-2.8-0.6-2.8-1.8v-3.1c0-1.2,1.2-1.8,2.8-1.8h2
				c1.7,0,2.8,0.6,2.8,1.8v2H191.4z M195.8,281.8c0-0.3-0.1-0.6-0.6-0.6H192c-0.4,0-0.6,0.3-0.6,0.6v1.3h4.4L195.8,281.8
				L195.8,281.8z"/>
			<path d="M206.5,284.1v1.3c0,0.3,0.1,0.6,0.6,0.6h5.5v1h-4.9c-1.7,0-2.8-0.6-2.8-1.8v-3.1c0-1.2,1.2-1.8,2.8-1.8h2
				c1.7,0,2.8,0.6,2.8,1.8v2H206.5z M210.9,281.8c0-0.3-0.1-0.6-0.6-0.6h-3.2c-0.4,0-0.6,0.3-0.6,0.6v1.3h4.4V281.8z"/>
			<path d="M214.9,280.3h1.7v0.8c0.4-0.7,1.3-0.8,2.6-0.8h0.5c1.7,0,2.7,0.6,2.7,1.8v4.9h-1.7v-5c0-0.5-0.2-0.7-0.7-0.7h-2.8
				c-0.5,0-0.7,0.2-0.7,0.7v5h-1.7L214.9,280.3L214.9,280.3z"/>
			<path d="M230.7,280.3v-0.7c0-1.1,0.8-1.8,2.8-1.8h0.7v1h-1c-0.6,0-0.7,0.3-0.7,0.7v0.8h1.6v1h-1.6v5.7h-1.7v-5.7h-1.3v-1
				L230.7,280.3L230.7,280.3z"/>
			<path d="M236.2,277.8h2v1.4h-2V277.8z M236.3,280.3h1.7v6.7h-1.7V280.3z"/>
			<path d="M248.2,287h-2l-2.2-2.8l-2.4,2.8h-1.8l2.9-3.3l-2.7-3.3h1.8l2.2,2.8l2.3-2.8h1.8l-2.7,3.3L248.2,287z"/>
			<path d="M249.6,284.7c0-1.2,1-1.8,2.7-1.8h3.1v-1.1c0-0.3-0.1-0.6-0.6-0.6h-4.3v-1h3.7c1.7,0,2.8,0.6,2.8,1.8v4.9h-1.7v-0.8
				c-0.4,0.7-1.3,0.8-2.6,0.8h-0.5c-1.7,0-2.7-0.6-2.7-1.8V284.7z M252,286h2.7c0.5,0,0.6-0.1,0.7-0.4v-1.7h-3.5
				c-0.5,0-0.7,0.2-0.7,0.7v0.7C251.2,285.8,251.4,286,252,286z"/>
			<path d="M262,281.2v4c0,0.5,0.1,0.7,0.7,0.7h1.9v1h-1.5c-1.9,0-2.8-0.7-2.8-1.8v-3.9H259v-1h1.3l0.5-1.6h1.2v1.6h2.6v1H262z"/>
			<path d="M266.7,277.8h2v1.4h-2V277.8z M266.8,280.3h1.7v6.7h-1.7V280.3z"/>
			<path d="M278.8,285.1c0,1.2-1,1.8-2.7,1.8h-2.5c-1.6,0-2.7-0.6-2.7-1.8v-3.1c0-1.2,1-1.8,2.7-1.8h2.5c1.6,0,2.7,0.6,2.7,1.8
				V285.1z M273.4,286h2.9c0.6,0,0.7-0.2,0.7-0.7v-3.4c0-0.5-0.2-0.7-0.7-0.7h-2.9c-0.6,0-0.7,0.2-0.7,0.7v3.4
				C272.7,285.8,272.9,286,273.4,286z"/>
			<path d="M281.1,280.3h1.7v0.8c0.4-0.7,1.3-0.8,2.6-0.8h0.5c1.7,0,2.7,0.6,2.7,1.8v4.9h-1.7v-5c0-0.5-0.2-0.7-0.7-0.7h-2.8
				c-0.5,0-0.7,0.2-0.7,0.7v5h-1.7L281.1,280.3L281.1,280.3z"/>
		</g>
	</g>
</g>
</svg>
