<?xml version="1.0" encoding="utf-8"?>
<!-- Generator: Adobe Illustrator 19.1.0, SVG Export Plug-In . SVG Version: 6.00 Build 0)  -->
<svg version="1.1" id="Calque_2" xmlns="http://www.w3.org/2000/svg" xmlns:xlink="http://www.w3.org/1999/xlink" x="0px" y="0px"
	 viewBox="0 0 500 500" style="enable-background:new 0 0 500 500;" xml:space="preserve">
<style type="text/css">
	.st0{fill:#7B7C7E;}
	.st1{fill:#FFEC00;}
	.st2{fill:#D2BF00;}
	.st3{fill:#1A171B;}
	.st4{fill:#B0B2B3;}
</style>
<g>
	<path class="st0" d="M266,245.5c-4.4-2.6-10.2-4.5-15.9-4.5c-5.6,0-11.3,1.9-15.5,4.4l-59.2,34.3h149.3L266,245.5z"/>
	<path class="st1" d="M229.6,238.5c4.4-2.5,9-6.5,11.9-11.5c2.8-4.9,4-10.7,4-15.6l0.1-68.4L171,272.5L229.6,238.5z"/>
	<path class="st2" d="M270.2,238.5c-4.4-2.5-9-6.5-11.9-11.5c-2.8-4.9-4-10.7-4-15.6l-0.1-68.4l74.5,129.6L270.2,238.5z"/>
	<path class="st3" d="M54.4,325.6c11.2,0,12-0.5,12-8.4c0-4.3-0.4-6.3-1.6-7.4c-1.3-1.3-2.9-1.5-10.5-1.5H37.2v17.3L54.4,325.6
		L54.4,325.6z M25,299.6h29.3c10.4,0,11.8,0.1,15.2,0.7c4,0.7,6.7,2.7,7.9,5.9c0.9,2.5,1.2,4.7,1.2,10.3c0,9.2-0.9,12.7-3.9,15.1
		c-3.1,2.4-6.7,2.9-20.4,2.9H25V299.6z"/>
	<polygon class="st3" points="129.1,299.6 129.1,307.8 96.4,307.8 96.4,312.9 127.5,312.9 127.5,320.6 96.4,320.6 96.4,326.1 
		129.4,326.1 129.4,334.5 84.2,334.5 84.2,299.6 	"/>
	<polygon class="st3" points="148.2,299.6 148.2,325.6 177,325.6 177,334.5 135.2,334.5 135.2,299.6 	"/>
	<polygon class="st3" points="215.1,299.6 215.1,308.5 197.1,308.5 197.1,334.5 184.1,334.5 184.1,308.5 166,308.5 166,299.6 	"/>
	<path class="st3" d="M236.8,307.7h-2.4l-7.9,13.3h18.1L236.8,307.7z M249,328.6h-26.9l-3.5,5.9h-14.1l21.5-34.9h19.2l21.3,34.9
		h-14.1L249,328.6z"/>
	<path class="st4" d="M296.9,317.2c5.7-0.1,6-0.1,7-0.6c1.2-0.6,1.5-1.6,1.5-4c0-2.5-0.6-3.6-2.1-4c-0.9-0.3-1-0.3-6.4-0.3h-15.5
		v8.9L296.9,317.2L296.9,317.2z M269.1,299.6h27.8c7.7,0,8.8,0.1,11,0.3c7.7,1,9.9,3.8,9.9,12.8c0,7.8-1.6,10.8-6.5,12.3
		c-2.7,0.8-5.5,1-14.2,1h-15.6v8.5h-12.4V299.6z"/>
	<polygon class="st4" points="335.6,299.6 335.6,325.6 364.4,325.6 364.4,334.5 322.6,334.5 322.6,299.6 	"/>
	<path class="st4" d="M380.1,299.6v16.1c0.1,5.5,0.1,5.5,0.4,7c0.7,2.8,3,3.4,13.6,3.4c8.5,0,11-0.3,12.4-1.6c1-0.9,1.3-1.8,1.5-5.1
		c0.1-1.2,0.1-2.9,0.1-3.6v-16.1h12.4v16.1c-0.2,7.9-0.2,8.5-0.6,11c-0.7,4-3.8,6.8-8.4,7.6c-3.7,0.6-7.7,0.8-17.2,0.8
		c-15.5,0-20.4-0.7-23.4-3.5c-2-1.8-2.7-3.9-3-9.1c-0.1-1.1-0.1-1.1-0.1-6.8v-16.1H380.1z"/>
	<path class="st4" d="M437.3,322.9c0,2.1,0.2,2.8,1.2,3.3c1.2,0.6,2.5,0.7,11.2,0.7c13.3,0,13.3,0,13.3-3.1c0-2-0.9-2.6-4.9-2.6
		l-6.5-0.2l-3.2-0.1c-2.9-0.1-6.1-0.2-9.9-0.4c-10.1-0.3-12.8-2.5-12.8-10.2c0-6.7,2.2-9.6,7.8-10.7c2.4-0.4,7.9-0.6,17.9-0.6
		c11.6,0,15.9,0.5,18.8,2.2c2.4,1.4,3.4,3.6,3.4,7.6c0,0.3,0,1-0.1,1.8h-11.9c-0.1-1.9-0.3-2.4-1.2-2.9c-1-0.5-2.6-0.6-11.7-0.6
		c-10,0-11,0.2-11,2.8c0,1.3,0.6,2,1.8,2.2c1.1,0.3,4.4,0.4,13,0.6c13.4,0.4,16,0.6,18.6,2c2.7,1.5,3.8,3.9,3.8,8.6
		c0,6.3-1.6,9.3-5.9,10.6c-2.4,0.8-7.6,1-19.7,1c-12.6,0-17.5-0.5-20.4-2c-2.8-1.5-3.7-3.6-3.7-8.2v-1.8L437.3,322.9L437.3,322.9z"
		/>
	<polygon class="st3" points="103.6,344.4 110.2,350.4 116.4,344.4 119,344.4 111,351.8 111,356.9 109.2,356.9 109.2,351.8 
		101.2,344.4 	"/>
	<path class="st3" d="M121.4,346.5c-0.5,0.4-0.7,1.6-0.7,4c0,2.8,0.1,3.9,0.6,4.3c0.4,0.4,0.9,0.5,2.4,0.6c0.7,0,3,0.1,3.9,0.1
		c2,0,3.8-0.1,4.8-0.2c0.8-0.1,1.2-0.5,1.4-1.3c0.1-0.7,0.2-2,0.2-3.2c0-1.4-0.1-2.9-0.2-3.5c-0.1-0.7-0.6-1.1-1.5-1.2
		c-1-0.1-2.1-0.2-5.5-0.2C123.3,345.8,121.9,346,121.4,346.5 M134.6,345.4c0.6,0.5,0.8,1.1,0.9,2.5c0.1,0.6,0.1,1.9,0.1,2.8
		c0,3.1-0.3,4.5-1,5.2c-0.8,0.8-2.3,1-6.4,1c-3.6,0-5.9-0.1-6.9-0.3c-1.1-0.2-2-1-2.2-2c-0.2-0.8-0.3-2-0.3-4c0-3.4,0.3-4.7,1.3-5.4
		c0.7-0.5,1.4-0.6,3.2-0.7c0.8,0,3.1-0.1,4.3-0.1C132.3,344.3,133.8,344.5,134.6,345.4"/>
	<path class="st3" d="M138.9,344.4v6.2v1.6c0,2.4,0.2,2.8,1.3,3c0.7,0.1,2.2,0.2,4.5,0.2c4.3,0,5.6-0.1,6.1-0.7
		c0.4-0.4,0.4-0.6,0.4-4.2v-6.2h1.8v6.2c0,2.6,0,2.7-0.1,3.5c-0.1,1.5-1,2.4-2.4,2.7c-0.9,0.1-3.2,0.3-5.4,0.3
		c-2.8,0-4.6-0.1-5.5-0.3c-1.3-0.2-2.1-1.2-2.3-2.5c-0.1-0.8-0.1-1-0.1-3.7v-6.2L138.9,344.4L138.9,344.4z"/>
	<path class="st3" d="M163.2,350.6h1.6c2.2,0,3-0.2,3.4-0.8c0.2-0.3,0.3-1,0.3-1.6c0-0.9-0.2-1.6-0.6-1.8c-0.6-0.4-1.4-0.5-4.6-0.5
		h-6.6v4.8L163.2,350.6L163.2,350.6z M154.8,344.4h8.4c3.4,0,3.4,0,4.3,0.2c1.1,0.1,1.9,0.6,2.3,1.4c0.3,0.6,0.4,1.2,0.4,2.2
		c0,2.3-0.4,3-2.2,3.3c0.6,0.1,1,0.3,1.4,0.6c0.5,0.5,0.6,0.9,0.6,3v1.8h-1.8v-1.2c0-1.6,0-1.6-0.1-2.1c-0.1-0.8-0.6-1.3-1.4-1.4
		c-0.6-0.1-0.6-0.1-3.5-0.1h-6.6v4.8h-1.8L154.8,344.4L154.8,344.4z"/>
	<path class="st3" d="M180.1,352.8c0,0.8,0.1,1,0.4,1.2c0.4,0.2,0.8,0.3,3.7,0.3c4.4,0,4.4,0,4.4-1.1c0-0.7-0.3-0.9-1.6-0.9
		l-2.2-0.1l-1.1,0c-1,0-2-0.1-3.3-0.1c-3.3-0.1-4.3-0.9-4.3-3.6c0-2.4,0.7-3.5,2.6-3.8c0.8-0.2,2.6-0.2,5.9-0.2
		c3.9,0,5.3,0.2,6.2,0.8c0.8,0.5,1.1,1.3,1.1,2.7c0,0.1,0,0.4,0,0.6h-4c0-0.7-0.1-0.9-0.4-1c-0.3-0.2-0.8-0.2-3.9-0.2
		c-3.3,0-3.6,0.1-3.6,1c0,0.5,0.2,0.7,0.6,0.8c0.4,0.1,1.5,0.1,4.3,0.2c4.4,0.1,5.3,0.2,6.2,0.7c0.9,0.5,1.3,1.4,1.3,3.1
		c0,2.3-0.6,3.3-2,3.8c-0.8,0.3-2.5,0.4-6.5,0.4c-4.2,0-5.8-0.2-6.8-0.7c-0.9-0.5-1.2-1.3-1.2-2.9v-0.7L180.1,352.8L180.1,352.8z"/>
	<path class="st3" d="M203.2,347.3h-0.8l-2.6,4.8h6L203.2,347.3z M207.3,354.8h-8.9l-1.2,2.1h-4.7l7.1-12.5h6.4l7.1,12.5h-4.7
		L207.3,354.8z"/>
	<polygon class="st3" points="227.8,344.4 227.8,347.3 217.6,347.3 217.6,349.7 227.3,349.7 227.3,352.6 217.6,352.6 217.6,356.9 
		213.5,356.9 213.5,344.4 	"/>
	<polygon class="st3" points="243.5,344.4 243.5,347.3 232.6,347.3 232.6,349.1 242.9,349.1 242.9,351.9 232.6,351.9 232.6,353.9 
		243.5,353.9 243.5,356.9 228.5,356.9 228.5,344.4 	"/>
	<polygon class="st3" points="260,344.4 260,347.6 254,347.6 254,356.9 249.7,356.9 249.7,347.6 243.7,347.6 243.7,344.4 	"/>
	<polygon class="st3" points="265.6,344.4 270,349.4 274.2,344.4 279.6,344.4 272.2,352.5 272.2,356.9 267.9,356.9 267.9,352.5 
		260.2,344.4 	"/>
	<path class="st3" d="M290.3,345.8h-0.7l-4.3,6.9h9.2L290.3,345.8z M295.3,354.3h-10.9l-1.6,2.6h-2l7.6-12.5h2.9l7.6,12.5h-2
		L295.3,354.3z"/>
	<polygon class="st3" points="311.4,344.4 311.4,345.8 304.6,345.8 304.6,356.9 302.8,356.9 302.8,345.8 296.1,345.8 296.1,344.4 	
		"/>
	<polygon class="st3" points="317.5,344.4 321.1,353.7 321.9,353.7 324.9,344.4 329.9,344.4 333,353.7 333.8,353.7 337.4,344.4 
		341.8,344.4 336.5,356.9 330.2,356.9 327.5,347.7 324.8,356.9 318.4,356.9 313.3,344.4 	"/>
	<path class="st3" d="M346.3,348.2c-0.3,0.4-0.3,1.1-0.3,2.7c0,1.6,0.1,2.1,0.6,2.4c0.5,0.4,1.2,0.4,4.6,0.4c3.4,0,4,0,4.6-0.4
		c0.5-0.3,0.6-0.9,0.6-2.4c0-1.9-0.1-2.6-0.5-3c-0.5-0.5-0.9-0.6-4.8-0.6C347.1,347.4,346.7,347.5,346.3,348.2 M359,345.1
		c1,0.7,1.3,2,1.3,5.6c0,3.6-0.3,4.8-1.3,5.6c-1,0.7-2.3,0.9-7.9,0.9c-5.6,0-6.9-0.1-7.9-0.9c-1-0.7-1.3-2-1.3-5.6
		c0-3.6,0.3-4.8,1.3-5.6c1-0.7,2.3-0.9,8.1-0.9C356.7,344.2,358,344.3,359,345.1"/>
	<path class="st3" d="M371.7,350.6c2.1,0,2.1,0,2.3-0.2c0.3-0.2,0.5-0.6,0.5-1.4c0-0.8-0.2-1.2-0.6-1.4c-0.3-0.1-0.3-0.1-2.2-0.1
		h-5.8v3.1L371.7,350.6L371.7,350.6z M361.8,344.4h9.9c4.7,0,4.7,0,5.5,0.5c1,0.6,1.3,1.4,1.3,3.6c0,1.9-0.2,2.6-0.9,3.1
		c-0.4,0.3-0.8,0.4-1.6,0.5c2.1,0.2,2.4,0.8,2.4,3.7v1.2h-4v-0.7c0-1.4-0.1-1.9-0.4-2.2c-0.3-0.3-0.6-0.3-2.3-0.3h-5.8v3.2h-4.1
		L361.8,344.4L361.8,344.4z"/>
	<polygon class="st3" points="383.9,344.4 383.9,348.9 386.2,348.9 391.5,344.3 397.8,344.3 390,350.5 398.4,356.9 392.2,356.9 
		386.2,352.1 383.9,352.1 383.9,356.9 379.8,356.9 379.8,344.4 	"/>
</g>
</svg>
