<?xml version="1.0" encoding="utf-8"?>
<!-- Generator: Adobe Illustrator 16.0.0, SVG Export Plug-In . SVG Version: 6.00 Build 0)  -->
<!DOCTYPE svg PUBLIC "-//W3C//DTD SVG 1.1//EN" "http://www.w3.org/Graphics/SVG/1.1/DTD/svg11.dtd">
<svg version="1.1" id="Calque_1" xmlns="http://www.w3.org/2000/svg" xmlns:xlink="http://www.w3.org/1999/xlink" x="0px" y="0px"
	 width="500px" height="500px" viewBox="0 0 500 500" enable-background="new 0 0 500 500" xml:space="preserve">
<g>
	<path d="M248.382,221.254c-4.313,3.625-9.703,3.908-16.813,3.908h-6.74v-43.724h5.375c8.133,0,13.786,0.266,18.196,3.915
		c4.562,3.897,6.876,9.942,6.876,17.944C255.276,211.312,252.961,217.354,248.382,221.254 M259.327,233.903
		c8.745-6.724,13.375-17.269,13.375-30.511c0-13.301-4.63-23.89-13.375-30.626c-9.246-7.1-19.863-7.1-33.332-7.1h-18.105v75.36
		h21.151C241.357,241.026,250.758,240.517,259.327,233.903"/>
	<polygon points="323.787,225.263 296.183,225.263 296.183,208.357 323.787,208.357 323.787,192.786 296.183,192.786 
		296.183,180.944 323.787,180.944 323.787,165.667 279.254,165.667 279.254,241.026 323.787,241.026 	"/>
	<polygon points="375.038,225.263 349.684,225.263 349.684,165.667 332.755,165.667 332.755,241.026 375.038,241.026 	"/>
	<polygon points="383.375,241.14 400.319,241.14 400.319,180.944 418.731,180.944 418.731,165.667 364.848,165.667 364.848,180.944 
		383.375,180.944 	"/>
	<path d="M434.176,208.79c1.465-3.975,6.135-16.52,6.135-16.52c0.227-0.711,0.442-1.523,0.681-2.304
		c0.233,0.759,0.461,1.607,0.702,2.245c0,0,4.637,12.604,6.116,16.58H434.176 M422.558,240.355c0,0,5.102-13.881,5.93-16.081h24.77
		c0.771,2.281,5.379,16.081,5.379,16.081H475l-28.271-74.251h-11.862l-28.529,74.251H422.558z"/>
	<path d="M248.774,313.081c-4.295,3.635-9.685,3.902-16.806,3.902h-6.761V273.26h5.393c8.129,0,13.793,0.266,18.192,3.924
		c4.565,3.902,6.902,9.93,6.902,17.93C255.694,303.129,253.357,309.176,248.774,313.081 M259.73,264.606
		c-9.242-7.115-19.867-7.115-33.332-7.115h-18.102v75.348h21.13c12.32,0,21.735-0.496,30.304-7.1
		c8.745-6.74,13.375-17.293,13.375-30.523C273.105,281.918,268.475,271.327,259.73,264.606"/>
	<path d="M320.619,318.545c-6.149,0-11.701-2.348-16.032-6.775c-4.335-4.389-6.617-10.111-6.617-16.455
		c0-6.422,2.282-12.158,6.617-16.561c4.27-4.359,9.983-6.746,16.032-6.746c6.084,0,11.74,2.371,15.917,6.725l0.028,0.021
		c4.31,4.402,6.689,10.289,6.689,16.561c0,6.287-2.312,12.004-6.689,16.455C332.215,316.198,326.713,318.545,320.619,318.545
		 M320.619,255.932c-10.719,0-20.799,4.057-28.389,11.424c-7.64,7.531-11.672,17.209-11.672,27.959
		c0,10.803,4.039,20.43,11.672,27.859c7.518,7.422,17.631,11.514,28.389,11.514c10.603,0,20.641-4.078,28.295-11.514
		c7.712-7.492,11.77-17.127,11.77-27.859c0-10.678-4.058-20.363-11.755-27.945C341.215,259.881,331.445,255.932,320.619,255.932"/>
	<path d="M383.732,272.079h0.047c10.131,0,12.896,1.801,12.896,8.414c0,6.143-2.397,7.564-12.896,7.564h-0.047V272.079
		 M412.308,279.518c0-6.963-2.715-13.131-7.475-16.887c-4.691-3.629-10.6-4.326-18.613-4.326h-17.818v73.748h14.636v-28.867
		c3.798,5.094,21.486,28.867,21.486,28.867h17.821c0,0-21.206-28.021-24.507-32.363
		C407.289,297.383,412.308,290.512,412.308,279.518"/>
	<polygon points="430.381,257.491 430.381,332.838 474.924,332.838 474.924,317.086 447.306,317.086 447.306,300.176 
		474.924,300.176 474.924,284.616 447.306,284.616 447.306,272.764 474.924,272.764 474.924,257.491 	"/>
	<rect x="25" y="165.312" fill="#97BF0D" width="167.908" height="167.923"/>
	<path fill="#FFFFFF" d="M85.147,280.514c-9.001,1.17-21.782,1.912-29.93,1.527c-0.346,0.658-1.678,2.924-1.678,2.924h27.345
		L85.147,280.514 M151.551,259.118c-8.364,5.818-20.842,10.338-31.831,13.836l-17.011,11.838h63.689L151.551,259.118z
		 M135.721,231.943c0,0-17.012,16.338-24.342,25.172l9.667,10.676c10.002-2.848,21.563-7.715,28.346-12.896L135.721,231.943z
		 M142.561,228.127l13.156,22.495C171.439,240.931,169.754,222.795,142.561,228.127 M110.396,187.277l-52.367,89.846
		c11.507,0.666,22.675-0.658,33.346-2.826l17.166-17.182c-3.33-4.334-7.654-8.156-10.999-12.993
		c10.509-7.834,32.014-23.337,32.014-23.337L110.396,187.277z M135.882,216.62l44.007-30.696l-35.337,37.025
		c26.991-2.885,35.308,15.766,13.181,32.184l20.99,36.992H91.044l-50.347,35.023l32.835-35.023H41.029l6.063-10.887
		c-3.485-0.709-8.396-3.104-10.052-7.623c-1.674-8.326,5.141-15.352,11.488-20.01c-0.327-2.322,0.169-4.473,2.017-5.822
		c1.501-1.498,3.816-1.998,5.987-1.498c1.498,0.509,3.161,2.173,3.845,3.666c0.659,2.181,0.332,4.832-1.343,6.66
		c-1.825,1.686-5.487,2.527-7.917,0.469c0,0-1.696,1.404-3.413,3.053c-3.003,2.65-5.339,5.648-5.991,9.148
		c-0.177,3.346,1.631,6.723,7.982,7.51l60.701-103.843L135.882,216.62z"/>
	<path fill="#FFFFFF" d="M54.49,258.52c3.525,0,6.401-2.865,6.401-6.387c0-3.557-2.876-6.392-6.401-6.392
		c-3.539,0-6.394,2.835-6.394,6.392C48.096,255.655,50.951,258.52,54.49,258.52"/>
</g>
</svg>
