<?xml version="1.0" encoding="utf-8"?>
<!-- Generator: Adobe Illustrator 19.1.0, SVG Export Plug-In . SVG Version: 6.00 Build 0)  -->
<svg version="1.1" id="Calque_1" xmlns="http://www.w3.org/2000/svg" xmlns:xlink="http://www.w3.org/1999/xlink" x="0px" y="0px"
	 viewBox="-99 146.4 300 208.6" style="enable-background:new -99 146.4 300 208.6;" xml:space="preserve">
<style type="text/css">
	.st0{fill:#E30613;}
	.st1{fill:#FFFFFF;}
</style>
<path d="M-28.4,287.8c0-9.9,1.2-18-9.9-25.4c-6.5-4.3-15.7-6.2-25.6-6.2h-35v63.2h35.1c9.9,0,19-1.9,25.6-6.2
	C-27.2,305.8-28.4,297.7-28.4,287.8 M-51.7,287.8c0,10.7-0.7,12.4-2.5,14.2c-2.1,2.1-5.3,3.5-11.2,3.5h-10.2V270h10.3
	c5.8,0,9,1.4,11.2,3.6C-52.3,275.4-51.7,277.1-51.7,287.8"/>
<path d="M47.4,319.4v-13.9H6.3v-11.1h35.1v-13.8H6.3V270h41.1v-13.8H-17v63.2H47.4z M134.4,319.4v-63.2h-23.3V288l-30.3-31.8H60.4
	v63.2h23.3v-31.8l30.4,31.8H134.4z M148.8,256.2h23.3v63.2h-23.3V256.2z"/>
<path class="st0" d="M-1.4,204.6l-8.1-8.2c-1.3-1.3-1.3-3.4,0-4.7l43.8-44.3c1.3-1.3,3.4-1.3,4.6,0l8.2,8.2
	C47.1,155.6-1.4,204.6-1.4,204.6z M11.3,217.4L0.7,206.7l48.5-49l10.6,10.7C59.8,168.4,11.3,217.4,11.3,217.4z M24,230.2l-10.6-10.7
	l48.5-49l10.6,10.7C72.5,181.2,24,230.2,24,230.2z M34.3,240.6l-8.2-8.3l48.5-49l8.2,8.3c1.3,1.3,1.3,3.4,0,4.7L39,240.6
	C37.7,241.9,35.6,241.9,34.3,240.6"/>
<path d="M186.7,246.7h2.2c1.6,0,3.2,0.4,3.2,2c0,1.8-1.8,2-3.7,2h-1.7V246.7z M184.3,258.6h2.4v-5.7h1.4l4,5.7h2.8l-4.1-5.8
	c2-0.2,3.6-1.3,3.6-4.1c0-2.9-1.6-4.2-4.9-4.2h-5.4v14.1H184.3z M176.8,251.9c0,6.7,5.4,12.1,12.1,12.1s12.1-5.4,12.1-12.1
	c0-6.7-5.4-12.1-12.1-12.1S176.8,245.2,176.8,251.9 M179.4,251.9c0-5.7,4-9.7,9.5-9.7s9.5,4.1,9.5,9.7c0,5.7-4,9.7-9.5,9.7
	S179.4,257.6,179.4,251.9"/>
<path class="st0" d="M-99,351.7V327l272.4-0.3v24.7c0,1.8-1.5,3.3-3.3,3.3L-95.7,355C-97.5,355-99,353.5-99,351.7"/>
<path class="st1" d="M-77.3,349.1l-1.6-1.6c1.1-1.5,1-3.1,1-5.9c0-3.1,0-4.9-1.6-6.5c-1.1-1.1-2.5-1.7-4.3-1.7
	c-1.7,0-3.1,0.6-4.3,1.7c-1.6,1.6-1.6,3.4-1.6,6.5c0,3.1,0,4.9,1.6,6.5c1.1,1.1,2.5,1.7,4.3,1.7c1.3,0,2.5-0.4,3.4-1l1.6,1.6
	L-77.3,349.1z M-80.3,341.7c0,2.1-0.1,3.2-0.5,4l-1.6-1.6l-1.4,1.4l1.7,1.7c-0.5,0.4-1,0.5-1.7,0.5c-0.9,0-1.8-0.4-2.4-1
	c-0.8-0.9-0.9-1.8-0.9-5c0-3.3,0.2-4.2,0.9-5c0.6-0.6,1.5-1,2.4-1c1,0,1.9,0.4,2.4,1C-80.5,337.5-80.3,338.4-80.3,341.7
	 M-61.8,344.3v-10.8h-2.5v10.6c0,2.2-1.3,3.5-3.4,3.5c-2,0-3.4-1.3-3.4-3.5v-10.6h-2.5v10.8c0,3.4,2.5,5.6,5.8,5.6
	C-64.3,349.9-61.8,347.7-61.8,344.3"/>
<path class="st1" d="M-44.8,349.8l-5.9-16.2h-2l-5.9,16.2h2.6l1.1-3.3h6.4l1.1,3.3C-47.4,349.8-44.8,349.8-44.8,349.8z M-49.2,344.4
	h-5l2.5-7.2L-49.2,344.4z M-41.5,333.6v16.2h10.3v-2.2H-39v-14H-41.5z M-27.4,333.6h2.5v16.2h-2.5V333.6z M-9.7,335.8v-2.2h-11.4
	v2.2h4.5v14h2.4v-14H-9.7z M-0.9,331.9h2.1v-2.5h-2.1V331.9z M-5.8,331.9h2.1v-2.5h-2.1V331.9z M4.7,349.8l-5.9-16.2h-2l-5.9,16.2
	h2.6l1.1-3.3H1l1.1,3.3C2.1,349.8,4.7,349.8,4.7,349.8z M0.3,344.4h-5l2.5-7.2L0.3,344.4z M16.6,335.8v-2.2H5.2v2.2h4.5v14h2.4v-14
	H16.6z M40.4,349.8l-2.7-3.2c1.1-1.3,1.6-2.9,1.6-5h-2.2c0,1.5-0.3,2.4-0.9,3.3l-3.4-4.1c0.4-0.3,1.2-0.8,1.2-0.8
	c1-0.7,1.7-1.6,1.7-2.9c0-2.1-1.6-3.6-3.9-3.6c-2.4,0-4,1.5-4,3.6c0,1.5,0.9,2.6,1.7,3.5c-1.6,1-3.2,2.3-3.2,4.6
	c0,2.9,1.9,4.8,5.2,4.8c2.5,0,3.8-1.1,4.5-1.7l1.3,1.6h3.1L40.4,349.8z M33.5,337.1c0,0.8-0.5,1.3-1.2,1.7l-0.8,0.5
	c-0.8-0.9-1.3-1.6-1.3-2.2c0-0.9,0.6-1.6,1.6-1.6C32.8,335.4,33.5,336.1,33.5,337.1 M34.7,346.5c-1.1,1-2,1.2-3.1,1.2
	c-1.7,0-2.9-1.1-2.9-2.7c0-1.5,1-2.3,2.2-3.1L34.7,346.5z M51.1,333.6v16.2h2.4v-6.9h6.8v-2.2h-6.8v-4.9h7.9v-2.2L51.1,333.6z
	 M76.8,344.3v-10.8h-2.5v10.6c0,2.2-1.3,3.5-3.4,3.5c-2,0-3.3-1.3-3.3-3.5v-10.6h-2.5v10.8c0,3.4,2.5,5.6,5.8,5.6
	C74.3,349.9,76.8,347.7,76.8,344.3"/>
<path class="st1" d="M94,349.8v-16.2h-2.4v11.3l-7.5-11.3h-2.3v16.2h2.5v-11.4l7.5,11.4H94z M111.9,349.8l-5.8-9.9l5.3-6.3h-3
	l-6.6,8.1v-8.1h-2.5v16.2h2.5v-4.7l2.7-3.3l4.6,8H111.9z M125.3,335.8v-2.2h-11.4v2.2h4.4v14h2.5v-14H125.3z M129.1,333.6h2.5v16.2
	h-2.5V333.6z M147.9,341.7c0-3.1,0-4.9-1.5-6.5c-1.1-1.1-2.6-1.7-4.3-1.7s-3.2,0.6-4.3,1.7c-1.6,1.6-1.6,3.4-1.6,6.5
	c0,3.1,0,4.9,1.6,6.5c1.1,1.1,2.5,1.7,4.3,1.7c1.7,0,3.2-0.6,4.3-1.7C147.9,346.6,147.9,344.8,147.9,341.7 M145.4,341.7
	c0,3.3-0.2,4.2-1,5c-0.6,0.6-1.5,1-2.4,1c-1,0-1.9-0.4-2.4-1c-0.8-0.9-1-1.8-1-5c0-3.3,0.2-4.2,1-5c0.6-0.6,1.5-1,2.4-1
	s1.8,0.4,2.4,1C145.3,337.5,145.4,338.4,145.4,341.7"/>
<path class="st1" d="M164.8,349.8v-16.2h-2.5v11.3l-7.5-11.3h-2.2v16.2h2.4v-11.4l7.5,11.4H164.8z"/>
</svg>
