<?xml version="1.0" encoding="utf-8"?>
<!-- Generator: Adobe Illustrator 19.1.0, SVG Export Plug-In . SVG Version: 6.00 Build 0)  -->
<svg version="1.1" id="Calque_2" xmlns="http://www.w3.org/2000/svg" xmlns:xlink="http://www.w3.org/1999/xlink" x="0px" y="0px"
	 viewBox="0 0 500 500" style="enable-background:new 0 0 500 500;" xml:space="preserve">
<style type="text/css">
	.st0{fill:#189FD6;}
</style>
<g>
	<path d="M25,25v450h450V25H25z M250,453.3c-112.3,0-203.3-91-203.3-203.3c0-112.3,91-203.3,203.3-203.3
		c112.3,0,203.3,91,203.3,203.3C453.3,362.3,362.3,453.3,250,453.3z"/>
	<path class="st0" d="M250,61.5C145.9,61.5,61.5,145.9,61.5,250c0,104.1,84.4,188.5,188.5,188.5c104.1,0,188.5-84.4,188.5-188.5
		C438.5,145.9,354.1,61.5,250,61.5z M96.1,326.5v-153h307.8v153L96.1,326.5L96.1,326.5z"/>
	<g>
		<polygon points="186,252.8 206.2,252.8 206.2,237.5 186,237.5 186,206.5 208.2,206.5 208.2,188.6 186,188.6 178.6,188.6 
			167.2,188.6 167.2,313.4 178.6,313.4 186,313.4 209.3,313.4 209.3,295.5 186,295.5 		"/>
		<polygon points="256.5,281.7 244.4,188.6 230.6,188.6 228.2,188.6 214.4,188.6 214.4,313.4 230.6,313.4 230.6,207.2 244.4,313.4 
			256.5,313.4 260.7,313.4 272.7,313.4 272.7,188.6 256.5,188.6 		"/>
		<path d="M367.7,186h-4.8c-12.1,0-21.9,9.9-21.9,21.9V294c0,12.1,9.9,21.9,21.9,21.9h4.8c12.1,0,21.9-9.9,21.9-21.9v-86.1
			C389.6,195.9,379.8,186,367.7,186z M371.2,291c0,5.1-2.6,9.4-5.8,9.4s-5.8-4.2-5.8-9.4v-80c0-5.1,2.6-9.4,5.8-9.4s5.8,4.2,5.8,9.4
			V291z"/>
		<path d="M135.9,188.6H130h-2.6h-6.9h-11.9v21.6v81.7v21.6h11.9h6.9h2.6h5.8c11.8,0,21.4-9.7,21.4-21.6v-81.7
			C157.3,198.3,147.6,188.6,135.9,188.6z M138.8,291.9c0,3.5-2.9,6.4-6.5,6.4h-4.7c-0.1,0-0.1,0-0.2,0v-94.7c0.1,0,0.1,0,0.2,0h4.7
			c3.5,0,6.5,2.9,6.5,6.5V291.9z"/>
		<path d="M309.9,186h-4.8c-12.2,0-22.3,9.9-22.3,21.9v18.3h0.2c1.4,12.2,12.1,24.7,19.7,33.6c8.2,9.5,10.7,21.5,10.7,21.5v9.7
			c0,5.1-2.7,9.4-5.9,9.4s-5.9-4.2-5.9-9.4v-25.9h-18.8v29c0,12.1,10,21.9,22.3,21.9h4.8c12.2,0,22.3-9.9,22.3-21.9v-23.4l0,0
			c-0.4-7.3-16.4-24.1-22-31.1c-5.7-7.1-8.5-12.9-8.5-12.9v-0.3v-2.7V211c0-5.1,2.7-9.4,5.9-9.4s5.9,4.2,5.9,9.4v22.8h18.8v-25.9
			C332.2,195.9,322.2,186,309.9,186z"/>
	</g>
</g>
</svg>
