<?xml version="1.0" encoding="utf-8"?>
<!-- Generator: Adobe Illustrator 16.0.0, SVG Export Plug-In . SVG Version: 6.00 Build 0)  -->
<!DOCTYPE svg PUBLIC "-//W3C//DTD SVG 1.1//EN" "http://www.w3.org/Graphics/SVG/1.1/DTD/svg11.dtd">
<svg version="1.1" id="Calque_2" xmlns="http://www.w3.org/2000/svg" xmlns:xlink="http://www.w3.org/1999/xlink" x="0px" y="0px"
	 width="500px" height="500px" viewBox="0 0 500 500" enable-background="new 0 0 500 500" xml:space="preserve">
<g>
	<path d="M25,25v450h450V25H25z M250.003,453.276c-112.269,0-203.279-91.011-203.279-203.274
		c0-112.268,91.011-203.278,203.279-203.278c112.263,0,203.273,91.011,203.273,203.278
		C453.276,362.266,362.266,453.276,250.003,453.276z"/>
	<path fill="#189FD6" d="M250.003,61.515c-104.1,0-188.488,84.388-188.488,188.487c0,104.095,84.389,188.483,188.488,188.483
		c104.095,0,188.483-84.389,188.483-188.483C438.486,145.903,354.098,61.515,250.003,61.515z M96.109,326.524V173.476h307.782
		v153.049H96.109z"/>
	<g>
		<polygon points="185.991,252.833 206.186,252.833 206.186,237.474 185.991,237.474 185.991,206.47 208.177,206.47 
			208.177,188.551 185.991,188.551 178.596,188.551 167.218,188.551 167.218,313.418 178.596,313.418 185.991,313.418 
			209.314,313.418 209.314,295.498 185.991,295.498 		"/>
		<polygon points="256.531,281.652 244.442,188.551 230.647,188.551 228.229,188.551 214.435,188.551 214.435,313.418 
			230.647,313.418 230.647,207.17 244.442,313.418 256.531,313.418 260.655,313.418 272.744,313.418 272.744,188.551 
			256.531,188.551 		"/>
		<path d="M367.715,185.991h-4.773c-12.062,0-21.933,9.869-21.933,21.931v86.124c0,12.063,9.871,21.934,21.933,21.934h4.773
			c12.062,0,21.933-9.871,21.933-21.934v-86.124C389.647,195.859,379.776,185.991,367.715,185.991z M371.159,290.979
			c0,5.146-2.622,9.355-5.831,9.355s-5.831-4.209-5.831-9.355v-79.986c0-5.146,2.622-9.357,5.831-9.357s5.831,4.211,5.831,9.357
			V290.979z"/>
		<path d="M135.866,188.551h-5.845h-2.624h-6.922h-11.852v21.595v81.683v21.59h11.852h6.922h2.624h5.845
			c11.769,0,21.396-9.715,21.396-21.59v-81.683C157.263,198.268,147.635,188.551,135.866,188.551z M138.774,291.895
			c0,3.547-2.902,6.448-6.451,6.448h-4.732c-0.067,0-0.127-0.018-0.193-0.018v-94.679c0.066-0.002,0.126-0.02,0.193-0.02h4.732
			c3.549,0,6.451,2.902,6.451,6.451V291.895z"/>
		<path d="M309.938,185.991h-4.844c-12.24,0-22.253,9.869-22.253,21.931v18.317h0.169c1.427,12.238,12.058,24.688,19.741,33.563
			c8.249,9.528,10.68,21.476,10.68,21.476v9.701c0,5.146-2.657,9.355-5.915,9.355s-5.915-4.209-5.915-9.355v-25.914h-18.76v28.98
			c0,12.063,10.013,21.934,22.253,21.934h4.844c12.24,0,22.253-9.871,22.253-21.934V270.61l-0.035-0.005
			c-0.4-7.266-16.391-24.119-22.009-31.141c-5.688-7.111-8.546-12.942-8.546-12.942v-0.285v-2.702v-12.544
			c0-5.146,2.657-9.357,5.915-9.357s5.915,4.211,5.915,9.357v22.784h18.76v-25.854C332.191,195.859,322.179,185.991,309.938,185.991
			z"/>
	</g>
</g>
</svg>
