<?xml version="1.0" encoding="utf-8"?>
<!-- Generator: Adobe Illustrator 21.0.2, SVG Export Plug-In . SVG Version: 6.00 Build 0)  -->
<svg version="1.1" id="Calque_2" xmlns="http://www.w3.org/2000/svg" xmlns:xlink="http://www.w3.org/1999/xlink" x="0px" y="0px"
	 viewBox="0 0 500 112" style="enable-background:new 0 0 500 112;" xml:space="preserve">
<style type="text/css">
	.st0{fill:#D9DADB;}
	.st1{fill:#009EE0;}
	.st2{fill:#009EE1;}
</style>
<polygon class="st0" points="121.6,76.8 92.2,76.8 92.2,62.6 118.2,62.6 118.2,51 92.2,51 92.2,39.8 120.4,39.8 120.4,27.6 
	92.2,27.6 82.8,27.6 80.1,27.6 80.1,89 92.2,89 92.2,89 121.6,89 "/>
<polygon class="st0" points="426.7,76.8 397.4,76.8 397.4,62.6 423.4,62.6 423.4,51 397.4,51 397.4,39.8 425.5,39.8 425.5,27.6 
	397.4,27.6 387.9,27.6 385.2,27.6 385.2,89 397.4,89 397.4,89 426.7,89 "/>
<path class="st0" d="M37.5,27.6L37.5,27.6H25v62.1h12.5l0,0c19.8-0.4,35.6-10,35.6-30.8C73.1,36.4,57.2,28,37.5,27.6z M36.3,79.2
	V39.3c13.1,0,23.8,5.3,23.8,20.1C60.1,73,49.5,79.2,36.3,79.2z"/>
<path class="st0" d="M343,27.6L343,27.6h-12.4v62.1H343l0,0c19.7-0.4,35.5-10,35.5-30.8C378.6,36.4,362.7,28,343,27.6z M341.9,79.2
	V39.3c13.1,0,23.7,5.3,23.7,20.1C365.6,73,355,79.2,341.9,79.2z"/>
<path class="st0" d="M201,58.3c5.2-2.8,8.7-8.2,8.7-14.3c0-9-7.5-16.3-16.6-16.3h-10.9h-3.5h-13.1V89h13.1h3.5h10.9
	c9.1,0,16.6-7.4,16.6-16.3C209.7,66.5,206.2,61.1,201,58.3z M187.6,80.1h-0.9h-5.8h-2.8v-0.4V62v-0.4h2.8h5.8h0.9
	c5.2,0,9.5,4.2,9.5,9.2C197.2,75.9,192.9,80.1,187.6,80.1z M187.6,55.6h-0.9h-5.8h-2.8v-0.4V37.6v-0.4h2.8h5.8h0.9
	c5.2,0,9.5,4.2,9.5,9.2S192.9,55.6,187.6,55.6z"/>
<path class="st0" d="M317.5,89h14.7l-22.7-28.2c9.5,0,17.2-7.4,17.2-16.6c0-9.1-7.7-16.6-17.2-16.6h-11.7h-3.6h-13.6V89h12.9V60.4
	V55V36.6v-0.2h2.2h6h1c5.7,0,10.3,4.2,10.3,9.3s-4.7,9.3-10.3,9.3h-1h-7L317.5,89z"/>
<path class="st0" d="M161.1,30.4c0,0-6.7-3.3-14.9-3.3s-20.8,3.5-20.8,16.4s10,16.2,13.3,17.9s11.7,4.9,11.7,10.5
	c0,5.6-7.1,6.7-9.7,6.7s-11.1-2.2-15.9-7.2v15.2c0,0,7.7,2.7,18.6,2.7s20.5-7.1,20.5-19.6c0-12.4-15.1-18.3-17.3-19.4
	c-2.2-1.1-7.5-3.2-7.5-6.6c0-3.4,3.6-5.9,9-5.9s13.4,6.6,13.4,6.6L161.1,30.4z"/>
<path class="st0" d="M466.5,30.4c0,0-6.7-3.3-14.9-3.3c-8.2,0-20.8,3.5-20.8,16.4s10,16.2,13.3,17.9s11.7,4.9,11.7,10.5
	c0,5.6-7.1,6.7-9.7,6.7s-11.1-2.2-15.9-7.2v15.2c0,0,7.7,2.7,18.6,2.7s20.5-7.1,20.5-19.6c0-12.4-15.1-18.3-17.3-19.4
	c-2.2-1.1-7.5-3.2-7.5-6.6c0-3.4,3.6-5.9,9-5.9s13.4,6.6,13.4,6.6L466.5,30.4z"/>
<path class="st0" d="M235.2,48.5c-5.5,0-6.6,2.9-12.3,2.9c-2.5,0-5.6-1.6-8.3-3.4c-0.6,1.6-1,3.3-1.3,5c2.2,2.3,5.4,4.1,10.1,4.1
	c13.1,0,9.4-5.3,19.1-4.5C242.6,52.6,240.8,48.5,235.2,48.5z"/>
<path class="st0" d="M245.1,27.2c-13.4,0-24.8,7.9-29.7,19c2.5,1.6,5.3,2.9,7.6,2.9c3.7,0,5.5-1.3,7.9-2.2c3.2-4.8,8.4-8,14.2-8
	c9.7,0,17.6,8.6,17.6,19.2c0,4.3-1.3,8.2-3.4,11.4c-0.9-2.9-3.7-8.3-11.4-8.3c-8.6,0-11.4,3.4-18.9,4.6c-1.7,0.3-3.6,0.5-5.9,0.5
	c-4,0-7-0.4-9.3-1c0.5,1.9,1.1,3.8,2,5.6c5,10.8,16.3,18.3,29.4,18.3c17.8,0,32.2-13.9,32.2-31C277.3,41.1,262.9,27.2,245.1,27.2z
	 M245.1,77.4c-4.9,0-9.4-2.2-12.6-5.8c6.2-1.6,9.7-4.4,15.9-4.4c5.8,0,8.9,1.9,10.3,3.1C255.5,74.7,250.6,77.4,245.1,77.4z"/>
<path class="st0" d="M242.1,54.4c-5.7,0-9.4,4.7-18.6,4.7c-4.1,0-7.7-1.1-10.5-2.4c0,0.5-0.1,1-0.1,1.5c0,1.3,0.1,2.6,0.3,3.9
	c2.5,1.5,6.1,2.6,11,2.6c15.7,0,13.5-7.6,26.9-4.9C251,59.9,247.8,54.4,242.1,54.4z"/>
<polygon class="st1" points="127.3,71.9 98,71.9 98,57.7 123.9,57.7 123.9,46.1 98,46.1 98,34.9 126.1,34.9 126.1,22.7 98,22.7 
	88.5,22.7 85.8,22.7 85.8,84.1 98,84.1 98,84.1 127.3,84.1 "/>
<polygon class="st1" points="432.5,71.9 403.2,71.9 403.2,57.7 429.1,57.7 429.1,46.1 403.2,46.1 403.2,34.9 431.3,34.9 431.3,22.7 
	403.2,22.7 393.7,22.7 391,22.7 391,84.1 403.2,84.1 403.2,84.1 432.5,84.1 "/>
<path class="st1" d="M45.7,22.8L45.7,22.8H32.3v62.1h13.4l0,0c21.3-0.4,38.4-10,38.4-30.8C84.1,31.5,67,23.1,45.7,22.8z M44.5,74.3
	V34.4c14.1,0,25.6,5.3,25.6,20.1C70.1,68.1,58.6,74.3,44.5,74.3z"/>
<path class="st1" d="M351.4,22.8L351.4,22.8H338v62.1h13.4l0,0c21.3-0.4,38.4-10,38.4-30.8C389.8,31.5,372.7,23.1,351.4,22.8z
	 M350.2,74.3V34.4c14.1,0,25.6,5.3,25.6,20.1C375.8,68.1,364.3,74.3,350.2,74.3z"/>
<path class="st1" d="M209.7,53.4c5.4-2.8,9-8.2,9-14.3c0-9-7.8-16.3-17.3-16.3h-11.3h-3.6h-13.6v61.3h13.6h3.6h11.3
	c9.5,0,17.3-7.4,17.3-16.3C218.8,61.6,215.1,56.2,209.7,53.4z M195.8,75.2h-1h-6.1h-2.9v-0.4V57.2v-0.4h2.9h6.1h1
	c5.5,0,9.9,4.2,9.9,9.2C205.8,71.1,201.3,75.2,195.8,75.2z M195.8,50.7h-1h-6.1h-2.9v-0.4V32.7v-0.4h2.9h6.1h1
	c5.5,0,9.9,4.2,9.9,9.2S201.3,50.7,195.8,50.7z"/>
<path class="st1" d="M323.3,84.1H338l-22.7-28.2c9.5,0,17.2-7.4,17.2-16.6c0-9.1-7.7-16.6-17.2-16.6h-11.7H300h-13.6V84h12.9V55.4
	V50V31.6v-0.2h2.2h6h1c5.7,0,10.3,4.2,10.3,9.3s-4.7,9.3-10.3,9.3h-1h-7L323.3,84.1z"/>
<path class="st1" d="M166.9,25.5c0,0-6.7-3.3-14.9-3.3s-20.8,3.5-20.8,16.4s10,16.2,13.3,17.9s11.7,4.9,11.7,10.5
	c0,5.6-7.1,6.7-9.7,6.7c-2.6,0-11.1-2.2-15.9-7.2v15.2c0,0,7.7,2.7,18.6,2.7c10.9,0,20.5-7.1,20.5-19.6c0-12.4-15.1-18.3-17.3-19.4
	s-7.5-3.2-7.5-6.6c0-3.4,3.6-5.9,9-5.9s13.4,6.6,13.4,6.6L166.9,25.5z"/>
<path class="st1" d="M472.2,25.5c0,0-6.7-3.3-14.9-3.3c-8.2,0-20.8,3.5-20.8,16.4s10,16.2,13.3,17.9s11.7,4.9,11.7,10.5
	c0,5.6-7.1,6.7-9.7,6.7s-11.1-2.2-15.9-7.2v15.2c0,0,7.7,2.7,18.6,2.7S475,77.3,475,64.8c0-12.4-15.1-18.3-17.3-19.4
	s-7.5-3.2-7.5-6.6c0-3.4,3.6-5.9,9-5.9s13.4,6.6,13.4,6.6L472.2,25.5z"/>
<path class="st1" d="M250.8,22.3c-13.4,0-24.8,7.9-29.7,19c2.5,1.6,5.3,2.9,7.6,2.9c3.7,0,5.5-1.3,7.9-2.2c3.2-4.8,8.4-8,14.2-8
	c9.7,0,17.6,8.6,17.6,19.2c0,4.3-1.3,8.2-3.4,11.4c-0.9-2.9-3.7-8.3-11.4-8.3c-8.6,0-11.4,3.4-18.9,4.6c-1.7,0.3-3.6,0.5-5.9,0.5
	c-4,0-7-0.4-9.3-1c0.5,1.9,1.1,3.8,2,5.6c5,10.8,16.3,18.3,29.4,18.3c17.8,0,32.2-13.9,32.2-31S268.6,22.3,250.8,22.3z M250.8,72.5
	c-4.9,0-9.4-2.2-12.6-5.8c6.2-1.6,9.7-4.4,15.9-4.4c5.8,0,8.9,1.9,10.3,3.1C261.2,69.8,256.3,72.5,250.8,72.5z"/>
<path class="st2" d="M241,43.6c-5.5,0-6.6,2.9-12.3,2.9c-2.5,0-5.6-1.6-8.3-3.4c-0.6,1.6-1,3.3-1.3,5c2.2,2.3,5.4,4.1,10.1,4.1
	c13.1,0,9.4-5.3,19.1-4.5C248.4,47.7,246.5,43.6,241,43.6z"/>
<path class="st2" d="M247.9,49.6c-5.7,0-9.4,4.7-18.6,4.7c-4.1,0-7.7-1.1-10.5-2.4c0,0.5-0.1,1-0.1,1.5c0,1.3,0.1,2.6,0.3,3.9
	c2.5,1.5,6.1,2.6,11,2.6c15.7,0,13.5-7.6,26.9-4.9C256.7,55,253.6,49.6,247.9,49.6z"/>
</svg>
