<?xml version="1.0" encoding="utf-8"?>
<!-- Generator: Adobe Illustrator 19.1.0, SVG Export Plug-In . SVG Version: 6.00 Build 0)  -->
<svg version="1.1" id="Calque_1" xmlns="http://www.w3.org/2000/svg" xmlns:xlink="http://www.w3.org/1999/xlink" x="0px" y="0px"
	 viewBox="0 0 500 500" style="enable-background:new 0 0 500 500;" xml:space="preserve">
<style type="text/css">
	.st0{fill:#040204;}
	.st1{fill:#FFE512;}
	.st2{fill:none;stroke:#040204;stroke-width:0.336;}
</style>
<g id="Calque_2">
	<path class="st0" d="M250,131.2c124,0,225,53.5,225,118.7c0,65.4-101,118.9-225,118.9c-123.8,0-225-53.5-225-118.9
		C25,184.6,126.2,131.2,250,131.2"/>
	<path class="st1" d="M88.3,328.9c1.3,0.7,2.6,1.4,3.9,2c6.3,3.4,13,6.5,19.9,9.4c0.7,0.3,1.5,0.6,2.2,0.9c0.3,0.1,0.6,0.3,0.9,0.4
		c38.6,15.4,85.6,23.8,134.9,23.8c49.4,0,96.5-8.4,135-23.8c0.3-0.1,0.5-0.2,0.8-0.3c0.8-0.3,1.6-0.7,2.4-1c6.9-2.9,13.5-6,19.8-9.3
		c1-0.5,2-1.1,3.1-1.6c21.5-11.8,37.6-25.4,47.9-40.3l-210.8-6.7l-207,6.7C51.5,303.7,67.3,317.3,88.3,328.9"/>
	<path class="st2" d="M88.3,328.9c1.3,0.7,2.6,1.4,3.9,2c6.3,3.4,13,6.5,19.9,9.4c0.7,0.3,1.5,0.6,2.2,0.9c0.3,0.1,0.6,0.3,0.9,0.4
		c38.6,15.4,85.6,23.8,134.9,23.8c49.4,0,96.5-8.4,135-23.8c0.3-0.1,0.5-0.2,0.8-0.3c0.8-0.3,1.6-0.7,2.4-1c6.9-2.9,13.5-6,19.8-9.3
		c1-0.5,2-1.1,3.1-1.6c21.5-11.8,37.6-25.4,47.9-40.3l-210.8-6.7l-207,6.7C51.5,303.7,67.3,317.3,88.3,328.9z"/>
	<path class="st1" d="M455.7,206.2V206h-0.1c-9.7-12.3-23.5-23.7-41.1-33.7c-2.2-1.1-4.3-2.2-6.3-3.2c-18.3-9.7-39.1-17.5-61.7-23.2
		c-0.5-0.1-1-0.3-1.5-0.4c-0.5-0.1-1-0.2-1.4-0.4c-28.9-7-60.6-10.6-93.3-10.6c-41.9,0-81.2,6.1-114.7,16.6
		c-15.6,4.9-30.1,11-43.3,17.9c-2.1,1.1-4.2,2.2-6.3,3.3c-19.3,11.1-34.6,24.2-44.6,38.6l207,4.7l210.9-4.7
		C458.1,209.3,456.9,207.8,455.7,206.2"/>
	<path class="st2" d="M455.7,206.2V206h-0.1c-9.7-12.3-23.5-23.7-41.1-33.7c-2.2-1.1-4.3-2.2-6.3-3.2c-18.3-9.7-39.1-17.5-61.7-23.2
		c-0.5-0.1-1-0.3-1.5-0.4c-0.5-0.1-1-0.2-1.4-0.4c-28.9-7-60.6-10.6-93.3-10.6c-41.9,0-81.2,6.1-114.7,16.6
		c-15.6,4.9-30.1,11-43.3,17.9c-2.1,1.1-4.2,2.2-6.3,3.3c-19.3,11.1-34.6,24.2-44.6,38.6l207,4.7l210.9-4.7
		C458.1,209.3,456.9,207.8,455.7,206.2z"/>
	<path class="st2" d="M459.2,210.9l-211.5,4.7l-206.5-4.7c-8.4,12.2-13.1,25.2-13.1,38.9c0,13.6,4.5,26.8,13.1,39.2l205.5-6.8
		l212.3,6.8c8.5-12.4,12.9-25.6,12.9-39.2C472,236.4,467.6,223.2,459.2,210.9z"/>
	<g>
		<path class="st0" d="M250.2,356.7c-109.9,0-199.3-47.9-199.3-106.8c0-58.8,89.4-106.6,199.3-106.6c109.9,0,199.3,47.8,199.3,106.6
			C449.4,308.7,360,356.7,250.2,356.7z M250.2,148.9c-51.8,0-100.6,10.7-137.5,30.2c-36.2,19.1-56.2,44.3-56.2,70.8
			c0,26.6,20,51.8,56.2,70.9c36.8,19.5,85.6,30.2,137.4,30.2c51.9,0,100.7-10.7,137.5-30.2c36.2-19.2,56.1-44.4,56.1-70.9
			c0-26.5-19.9-51.7-56.1-70.8C350.9,159.6,302,148.9,250.2,148.9z"/>
	</g>
	<path class="st1" d="M84.9,274.6c-1.1,0-2.6,0.2-3.8,0.2h-3c-7.9,0-13.8-1.1-17.7-3.4c-3.8-2.3-5.8-5.9-5.8-10.6v-28.2
		c0-0.9-4.9-4.4-4.5-5.4c0.2-0.8,1.9-0.8,3.4-0.8h-0.3h26.2c1.5,0,3.3,0,3.4,0.8c0.4,1-4.5,4.4-4.5,5.4v28.2l0.1,2.7
		c0.1,2.3,0.3,3.9,1.3,4.7c0.9,0.8,2.9,1.2,4.9,1.3c2,0.1,3,0,3,0c4.5-0.2,7.7-1.3,9.6-2.9c1.9-1.8,2.8-4.5,2.8-8.1l0-3.3v-22.6
		c0-0.9-4.9-4.4-4.5-5.4c0.1-0.8,1.9-0.8,3.4-0.8h-0.3h9.2c1.5,0,3.3,0,3.4,0.8c0.4,1-4.5,4.4-4.5,5.4V257c0,5.6-1.7,9.9-4.5,12.4
		c-3,2.7-7.7,4.3-14.7,5L84.9,274.6"/>
	<path class="st1" d="M215.2,267.7v-35.1c0-0.9,4.9-4.4,4.5-5.4c-0.1-0.8-1.9-0.8-3.4-0.8h-25.8c-1.5,0-3.3,0-3.4,0.8
		c-0.4,1,4.5,4.4,4.5,5.4l0.1,0.8v33.5l-0.1,0.8c0,0.9-4.9,4.4-4.5,5.4c0.1,0.8,1.9,0.8,3.4,0.8h25.8c1.5,0,3.3,0,3.4-0.8
		C220.1,272.1,215.2,268.7,215.2,267.7"/>
	<path class="st1" d="M321.9,267.7v-35.1c0-0.9,4.9-4.4,4.5-5.4c-0.1-0.8-1.9-0.8-3.4-0.8h-25.8c-1.5,0-3.3,0-3.4,0.8
		c-0.4,1,4.5,4.4,4.5,5.4l0.1,0.8v33.5l-0.1,0.8c0,0.9-4.9,4.4-4.5,5.4c0.1,0.8,1.9,0.8,3.4,0.8H323c1.5,0,3.3,0,3.4-0.8
		C326.8,272.1,321.9,268.7,321.9,267.7"/>
	<path class="st1" d="M452.2,226.5h-8.6c-1.5,0-3.3,0-3.4,0.8c-0.4,1,4.3,3.5,3.9,4.6c0,0-7,11.1-9.4,15c-3.1-4.8-8.3-12.8-8.7-13.4
		c-0.6-0.9-0.6-1.6-0.6-1.6c-0.5-1.1,4.3-3.6,3.9-4.6c-0.2-0.8-1.9-0.8-3.4-0.8h-28.3c-1.5,0-3.3,0-3.4,0.8
		c-0.2,1.8,4.5,3.3,5.9,5.4l13.9,22.3v12l-0.1,0.8c0,0.9-4.9,4.4-4.5,5.4c0.1,0.8,1.9,0.8,3.4,0.8h26c1.5,0,3.3,0,3.4-0.8
		c0.4-1-4.5-4.4-4.5-5.4v-0.4l0-15.1c0-0.2,0-0.4-0.1-0.6l12.2-19c1.4-2.1,6.1-3.6,5.9-5.4C455.5,226.5,453.7,226.5,452.2,226.5"/>
	<path class="st1" d="M264.4,273.9h-25.8c-1.5,0-3.3,0-3.4-0.8c-0.4-1,4.5-4.4,4.5-5.4l0.1-0.8v-33.5l-0.1-0.8
		c0-0.9-4.9-4.4-4.5-5.4c0.2-0.8,1.9-0.8,3.4-0.8h25.8c1.5,0,3.3,0,3.4,0.8c0.4,1-4.5,4.4-4.5,5.4v33.9c0,0-0.1,1.5,2,2.2
		c3.1,1.2,5.8-0.2,9.4-3.5c2.7-2.4,4.1-5.8,6.3-7.8c1-0.8,3.5-1,3.5,2.2v14.2h-11.1L264.4,273.9"/>
	<path class="st1" d="M159.9,226.4h-36.9v11.9c0,3.3,2.5,3.1,3.5,2.2c2.2-1.9,3.7-6.1,6.3-8.6c1-1,2.1-1.3,3.5-1.5v36.4l-0.1,0.8
		c0,0.9-4.9,4.4-4.5,5.4c0.1,0.8,1.9,0.8,3.4,0.8h25.8c1.5,0,3.3,0,3.4-0.8c0.4-1-4.5-4.4-4.5-5.4v-37.2c1.4,0.2,2.5,0.5,3.5,1.5
		c2.7,2.4,4.1,6.6,6.3,8.6c1,0.8,3.5,1,3.5-2.2v-11.9L159.9,226.4"/>
	<path class="st1" d="M374.2,226.4h-36.9v11.9c0,3.3,2.5,3.1,3.5,2.2c2.2-1.9,3.7-6.1,6.3-8.6c1-1,2.2-1.3,3.5-1.5v36.4l-0.1,0.8
		c0,0.9-4.9,4.4-4.5,5.4c0.1,0.8,1.9,0.8,3.4,0.8h25.8c1.5,0,3.3,0,3.4-0.8c0.4-1-4.5-4.4-4.5-5.4v-37.2c1.4,0.2,2.5,0.5,3.5,1.5
		c2.7,2.4,4.1,6.6,6.3,8.6c1,0.8,3.5,1,3.5-2.2v-11.9L374.2,226.4"/>
	<path class="st0" d="M334.5,309.7h8.9l-3.8-9.1h-1.2L334.5,309.7 M322.2,321l11.5-27.1l10.7-0.2l11.5,27.1h-7.7l-1.8-4.3l-14.8,0.2
		l-1.8,4.1L322.2,321z M202.6,309.9h8.9l-3.8-9.1h-1.4L202.6,309.9z M190.4,321.2l11.5-27.1h10.7l11.5,27.1h-7.7l-1.8-4.3h-14.9
		l-1.8,4.3H190.4z M299.4,307.3h11.3c1,0,1.8-1,1.8-2V303c0-1.2-0.8-2-1.8-2h-11.3V307.3z M154.6,314h11.1c2.2,0,3.9-1.8,3.9-4.1
		v-4.8c0-2.2-1.8-3.9-3.9-3.9h-11.1V314z M147.6,294.1h19.6c5.1,0,9.3,4,9.3,9.1v8.9c0,4.9-4.2,9.1-9.1,9.1h-19.8L147.6,294.1
		L147.6,294.1z M233.1,313.9h11.1c2.2,0,4.2-1.8,4.2-4v-4.8c-0.2-2.2-2-3.9-4.2-3.9h-11.1V313.9z M282,305c0-2.2-1.8-3.9-4-3.9h-8.1
		c-2.4,0-4.2,2-4.2,4.1v4.8c0,2.2,1.8,4,4.2,4h8.1c2.2,0,4-1.8,4-4V305z M226.2,294.1H246c5-0.2,9.1,3.7,9.1,8.9v9.1
		c0,4.9-4,9.1-8.9,9.1h-20L226.2,294.1L226.2,294.1z M310.5,293.9c5.1,0,9.1,3.9,9.1,9.1v4.4c0,1.4-1,2.8-2.2,3.2v0.2
		c1.4,0.4,2.2,1.8,2.2,3.3v6.9h-7.1v-4.3c0,0,0.2-2.7-2.2-2.7h-10.9v7.1h-6.9v-27.1L310.5,293.9L310.5,293.9z M289.1,311.9
		c0,4.9-4.2,9.1-9.1,9.1l-12.1,0.2c-5.1,0-9.1-4.2-9.1-9.1l-0.2-9.1c0-5.2,4.2-8.9,9.1-8.9l12.3-0.2c4.9,0,9.1,3.9,9.1,9.1
		L289.1,311.9L289.1,311.9z M180.5,294.1h7.5v27.1h-7.5V294.1z"/>
</g>
</svg>
