<?xml version="1.0" encoding="utf-8"?>
<!-- Generator: Adobe Illustrator 19.1.0, SVG Export Plug-In . SVG Version: 6.00 Build 0)  -->
<svg version="1.1" id="Calque_1" xmlns="http://www.w3.org/2000/svg" xmlns:xlink="http://www.w3.org/1999/xlink" x="0px" y="0px"
	 viewBox="0 0 500 500" style="enable-background:new 0 0 500 500;" xml:space="preserve">
<g>
	<path d="M352.8,300.8c-0.4,0.4-0.6,0.9-0.6,1.5v0c0,0.6,0.2,1.1,0.6,1.5c0.4,0.4,0.9,0.6,1.5,0.6c0.6,0,1.1-0.2,1.5-0.6
		c0.4-0.4,0.6-0.9,0.6-1.5v-2.1h-2.2C353.7,300.2,353.2,300.4,352.8,300.8z"/>
	<path d="M188.5,293.8c-0.6,0-1.1,0.2-1.5,0.6c-0.4,0.4-0.6,0.9-0.6,1.5v2.1h4.3v-2.1c0-0.6-0.2-1.1-0.6-1.5
		C189.6,294,189.1,293.8,188.5,293.8z"/>
	<path d="M384,293.8c-0.6,0-1.1,0.2-1.5,0.6c-0.4,0.4-0.6,0.9-0.6,1.5v2.1h4.3v-2.1c0-0.6-0.2-1.1-0.6-1.5
		C385.1,294,384.6,293.8,384,293.8z"/>
	<path d="M100.1,245.6H83.5v26.2h16.6c7,0,9.6-3.2,9.6-8.3v-10.3C109.6,246.9,106.7,245.6,100.1,245.6z"/>
	<path d="M137.6,293.8c-0.6,0-1.1,0.2-1.5,0.6s-0.6,0.9-0.6,1.5v6.4c0,0.6,0.2,1.1,0.6,1.5c0.4,0.4,0.9,0.6,1.5,0.6s1.1-0.2,1.5-0.6
		c0.4-0.4,0.6-0.9,0.6-1.5v-6.4c0-0.6-0.2-1.1-0.6-1.5C138.6,294,138.1,293.8,137.6,293.8z"/>
	<path d="M265,293.8c-0.6,0-1.1,0.2-1.5,0.6c-0.4,0.4-0.6,0.9-0.6,1.5v2.1h4.3v-2.1c0-0.6-0.2-1.1-0.6-1.5
		C266.1,294,265.6,293.8,265,293.8z"/>
	<path d="M299,293.8c-0.6,0-1.1,0.2-1.5,0.6c-0.4,0.4-0.6,0.9-0.6,1.5v8.5h2.2c0.6,0,1.1-0.2,1.5-0.6c0.4-0.4,0.6-0.9,0.6-1.5v-6.4
		c0-0.6-0.2-1.1-0.6-1.5C300.1,294,299.6,293.8,299,293.8z"/>
	<path d="M204,300.8c-0.4,0.4-0.6,0.9-0.6,1.5v0c0,0.6,0.2,1.1,0.6,1.5c0.4,0.4,0.9,0.6,1.5,0.6s1.1-0.2,1.5-0.6
		c0.4-0.4,0.6-0.9,0.6-1.5v-2.1h-2.2C204.9,300.2,204.4,300.4,204,300.8z"/>
	<path d="M324.5,293.8c-0.6,0-1.1,0.2-1.5,0.6c-0.4,0.4-0.6,0.9-0.6,1.5v6.4c0,0.6,0.2,1.1,0.6,1.5c0.4,0.4,0.9,0.6,1.5,0.6
		c0.6,0,1.1-0.2,1.5-0.6c0.4-0.4,0.6-0.9,0.6-1.5v-6.4c0-0.6-0.2-1.1-0.6-1.5C325.6,294,325.1,293.8,324.5,293.8z"/>
	<polygon points="198.5,244 189.9,265.2 207.5,265.2 198.7,244 	"/>
	<path d="M446.9,235.1c-0.6,0-1,0-1.3,0.1v3.6h1.3c1.4,0,2.6-0.5,2.6-1.8C449.5,236.1,448.8,235.1,446.9,235.1z"/>
	<path d="M447.4,231L447.4,231c-4.3,0-7.8,3.6-7.8,8.2c0,4.6,3.5,8.2,7.8,8.2c4.3,0,7.8-3.6,7.8-8.2
		C455.3,234.7,451.8,231,447.4,231z M449.9,244.8c-0.3-0.3-0.5-1.3-0.7-2.7c-0.3-1.4-1-1.9-2.3-1.9h-1.2v4.6h-1.7V234
		c0.9-0.1,1.8-0.2,3.1-0.2c1.6,0,2.7,0.3,3.4,0.8c0.7,0.5,1,1.2,1,2.2c0,1.4-0.9,2.3-2.1,2.6v0.1c1,0.2,1.6,1,1.8,2.6
		c0.3,1.7,0.5,2.3,0.7,2.7L449.9,244.8L449.9,244.8z"/>
	<path d="M408.2,245.6h-14.7v13.2h14.7c8.1,0,7.9-2.1,7.9-7.6C416.1,246.8,414.4,245.6,408.2,245.6z"/>
	<path d="M474.7,171.5c-159.4,9.1-314,28.6-449.7,51.2v105.9h450L474.7,171.5z M236.2,252.4c0-16.2,12.9-18.6,33.7-18.6
		c18.4,0,31.4,0.1,31.4,15.6h-19.2c-0.4-5-6.5-4.9-12.2-4.9c-13.6,0-14,2.9-14.2,10.8v8c0,8.7,4.4,9.6,14.2,9.6
		c9.7,0,12.2-1.5,12.2-8.3H269v-9.1h32.3v8.6c0,16.5-6.1,19.5-31.4,19.5c-22.4,0-33.7-2.6-33.7-18.5L236.2,252.4L236.2,252.4z
		 M138.9,234.2h18.9v48.9h-18.9V234.2z M69.5,306.5h-4.2v-19.1h4.2V306.5z M86.6,300.1H78v2.1c0,0.6,0.2,1.1,0.6,1.5
		c0.4,0.4,0.9,0.6,1.5,0.6h2.1c1.4,0,2.1-0.7,2.1-2.1h2.1c-0.3,2.8-1.8,4.3-4.3,4.3H78c-1.2,0-2.2-0.4-3-1.2c-0.8-0.8-1.3-1.8-1.3-3
		v-6.4c0-1.2,0.4-2.2,1.3-3c0.8-0.8,1.8-1.2,3-1.2h4.3c1.2,0,2.2,0.4,3,1.3c0.8,0.8,1.3,1.8,1.3,3L86.6,300.1L86.6,300.1z
		 M98.1,298.1c1.7,0.9,2.7,1.7,2.9,2.2c0.3,0.6,0.4,1.2,0.4,1.9c0,1.2-0.4,2.2-1.3,3c-0.8,0.8-1.8,1.2-3,1.2H95
		c-2.8,0-4.3-1.4-4.3-4.3h2.1c0.2,1.4,0.8,2.1,2,2.1c0.8,0,1.3-0.2,1.7-0.5c0.4-0.3,0.6-0.7,0.6-1.3c0-0.6-1-1.4-3.1-2.6
		c-1.7-0.9-2.7-1.6-2.9-2.2c-0.3-0.6-0.4-1.2-0.4-1.9c0-1.2,0.4-2.2,1.3-3c0.8-0.8,1.8-1.2,3-1.2h2.1c2.7,0,4.1,1.4,4.3,4.3h-2.1
		c-0.2-1.4-0.9-2.1-2-2.1c-0.8,0-1.3,0.1-1.7,0.4c-0.4,0.3-0.6,0.7-0.6,1.3C95,296.1,96.1,297,98.1,298.1z M127,306.5h-4.3v-10.6
		c0-0.6-0.2-1.1-0.6-1.5c-0.4-0.4-0.9-0.6-1.5-0.6c-0.6,0-1.1,0.2-1.5,0.6c-0.4,0.4-0.6,0.9-0.6,1.5v10.6h-4.2v-14.9h4.2v2.1
		c0.1-0.7,0.3-1.2,0.7-1.6c0.4-0.4,0.8-0.5,1.5-0.5h2.1c1.2,0,2.2,0.4,3,1.3c0.8,0.8,1.3,1.8,1.3,3L127,306.5L127,306.5z
		 M129.1,263.5c0,13.4-6.2,19.7-26,19.7H64.5v-48.9h36c19.8,0,28.6,5.1,28.6,19L129.1,263.5L129.1,263.5z M143.9,302.3
		c0,1.1-0.4,2.1-1.3,3c-0.8,0.8-1.8,1.3-3,1.3h-4.3c-1.2,0-2.2-0.4-3-1.2c-0.8-0.8-1.2-1.8-1.2-3v-6.4c0-1.2,0.4-2.2,1.3-3
		c0.8-0.8,1.8-1.2,3-1.2h4.3c1.2,0,2.2,0.4,3,1.3c0.8,0.8,1.3,1.8,1.3,3V302.3z M160.9,306.5h-4.2v-2.1c-0.2,1.4-0.9,2.1-2.1,2.1
		h-2.1c-1.2,0-2.2-0.4-3-1.2c-0.8-0.8-1.3-1.8-1.3-3v-10.6h4.2v10.6c0,0.6,0.2,1.1,0.6,1.5c0.4,0.4,0.9,0.6,1.5,0.6
		c0.6,0,1.1-0.2,1.5-0.6c0.4-0.4,0.6-0.9,0.6-1.5v-10.6h4.2L160.9,306.5L160.9,306.5z M177.9,299.2c0,2-0.7,3.7-2.1,5.1
		c-1.4,1.4-3.1,2.1-5.1,2.1h-5.5v-14.9h4.2v12.7h2.2c0.6,0,1.1-0.2,1.5-0.6c0.4-0.4,0.6-0.9,0.6-1.5v-10.6h4.2L177.9,299.2
		L177.9,299.2z M194.9,300.1h-8.6v2.1c0,0.6,0.2,1.1,0.6,1.5c0.4,0.4,0.9,0.6,1.5,0.6h2.1c1.4,0,2.1-0.7,2.1-2.1h2.1
		c-0.3,2.8-1.8,4.3-4.3,4.3h-4.3c-1.2,0-2.2-0.4-3-1.2c-0.8-0.8-1.3-1.8-1.3-3v-6.4c0-1.2,0.4-2.2,1.3-3c0.8-0.8,1.8-1.2,3-1.2h4.3
		c1.2,0,2.2,0.4,3,1.3c0.8,0.8,1.3,1.8,1.3,3L194.9,300.1L194.9,300.1z M211.9,306.5h-4.2v-2.1c-0.2,1.4-0.9,2.1-2.1,2.1h-2.1
		c-1.2,0-2.2-0.4-3-1.2c-0.8-0.8-1.3-1.8-1.3-3v0c0-1.2,0.4-2.2,1.3-3c0.8-0.8,1.8-1.2,3-1.2h4.3v-2.1c0-0.6-0.2-1.1-0.6-1.5
		c-0.4-0.4-0.9-0.6-1.5-0.6h-2.1c-1.3,0-2,0.7-2.1,2.1h-2.1c0.3-2.9,1.7-4.3,4.3-4.3h4.3c1.2,0,2.2,0.4,3,1.3c0.8,0.8,1.3,1.8,1.3,3
		L211.9,306.5L211.9,306.5z M211.3,274.8h-25.5l-3.5,8.4h-19.7l21.3-48.9h28.8l21.6,48.9H215L211.3,274.8z M228.9,306.5h-4.3v-2.1
		c-0.2,1.4-0.9,2.1-2.1,2.1h-2.1c-1.2,0-2.2-0.4-3-1.2c-0.8-0.8-1.3-1.8-1.3-3v-10.6h4.2v10.6c0,0.6,0.2,1.1,0.6,1.5
		c0.4,0.4,0.9,0.6,1.5,0.6c0.6,0,1.1-0.2,1.5-0.6c0.4-0.4,0.6-0.9,0.6-1.5v-10.6h4.3L228.9,306.5L228.9,306.5z M245.9,294.8
		c0,1.2-0.3,2.2-1.1,2.9c-0.7,0.7-1.8,1.1-3.2,1.3c1.4,0.2,2.5,0.6,3.2,1.3c0.7,0.7,1.1,1.7,1.1,2.9v3.2h-4.2v-4.3
		c0-0.6-0.2-1.1-0.6-1.5c-0.4-0.4-0.9-0.6-1.5-0.6c-0.6,0-1.1,0.2-1.5,0.6c-0.4,0.4-0.6,0.9-0.6,1.5v4.3h-4.2v-3.2
		c0-1.2,0.4-2.2,1.1-2.9c0.7-0.7,1.8-1.1,3.2-1.3c-1.4-0.2-2.5-0.6-3.2-1.3c-0.7-0.7-1.1-1.7-1.1-2.9v-3.2h4.2v4.2
		c0,0.6,0.2,1.1,0.6,1.5c0.4,0.4,0.9,0.6,1.5,0.6c0.6,0,1.1-0.2,1.5-0.6c0.4-0.4,0.6-0.9,0.6-1.5v-4.2h4.2V294.8z M271.4,300.1h-8.5
		v2.1c0,0.6,0.2,1.1,0.6,1.5c0.4,0.4,0.9,0.6,1.5,0.6h2.1c1.4,0,2.1-0.7,2.1-2.1h2.1c-0.3,2.8-1.7,4.3-4.3,4.3h-4.3
		c-1.2,0-2.2-0.4-3-1.2c-0.8-0.8-1.3-1.8-1.3-3v-6.4c0-1.2,0.4-2.2,1.3-3c0.8-0.8,1.8-1.2,3-1.2h4.3c1.2,0,2.2,0.4,3,1.3
		c0.8,0.8,1.3,1.8,1.3,3L271.4,300.1L271.4,300.1z M288.4,294.8c0,1.2-0.4,2.2-1.1,2.9c-0.7,0.7-1.8,1.1-3.2,1.3
		c1.4,0.2,2.5,0.6,3.2,1.3c0.7,0.7,1.1,1.7,1.1,2.9v3.2h-4.2v-4.3c0-0.6-0.2-1.1-0.6-1.5c-0.4-0.4-0.9-0.6-1.5-0.6
		c-0.6,0-1.1,0.2-1.5,0.6c-0.4,0.4-0.6,0.9-0.6,1.5v4.3h-4.2v-3.2c0-1.2,0.4-2.2,1.1-2.9s1.8-1.1,3.2-1.3c-1.4-0.2-2.5-0.6-3.2-1.3
		c-0.7-0.7-1.1-1.7-1.1-2.9v-3.2h4.2v4.2c0,0.6,0.2,1.1,0.6,1.5c0.4,0.4,0.9,0.6,1.5,0.6c0.6,0,1.1-0.2,1.5-0.6
		c0.4-0.4,0.6-0.9,0.6-1.5v-4.2h4.2V294.8z M305.4,302.3c0,1.2-0.4,2.2-1.3,3c-0.8,0.8-1.8,1.2-3,1.2h-4.3v4.2h-4.2v-19.1h4.2v2.1
		c0-0.7,0.2-1.2,0.5-1.6c0.4-0.4,0.9-0.5,1.6-0.5h2.1c1.2,0,2.2,0.4,3,1.3c0.8,0.8,1.3,1.8,1.3,3L305.4,302.3L305.4,302.3z
		 M313.9,306.5h-4.2v-19.1h4.2V306.5z M330.9,302.3c0,1.1-0.4,2.1-1.3,3c-0.8,0.8-1.8,1.3-3,1.3h-4.3c-1.2,0-2.2-0.4-3-1.2
		c-0.8-0.8-1.3-1.8-1.3-3v-6.4c0-1.2,0.4-2.2,1.3-3c0.8-0.8,1.8-1.2,3-1.2h4.3c1.2,0,2.2,0.4,3,1.3c0.8,0.8,1.3,1.8,1.3,3V302.3z
		 M345.8,295.9h-4.3c-0.6,0-1.1,0.2-1.5,0.6c-0.4,0.4-0.6,0.9-0.6,1.5v8.5h-4.2v-14.9h4.2v4.2c0.2-1.4,0.6-2.5,1.3-3.2
		c0.7-0.7,1.7-1.1,3-1.1h2.1L345.8,295.9L345.8,295.9z M360.7,306.5h-4.2v-2.1c-0.2,1.4-0.9,2.1-2.1,2.1h-2.1c-1.2,0-2.2-0.4-3-1.2
		c-0.9-0.8-1.3-1.8-1.3-3v0c0-1.2,0.4-2.2,1.3-3c0.8-0.8,1.8-1.2,3-1.2h4.3v-2.1c0-0.6-0.2-1.1-0.6-1.5c-0.4-0.4-0.9-0.6-1.5-0.6
		h-2.1c-1.3,0-2,0.7-2.1,2.1h-2.1c0.3-2.9,1.8-4.3,4.3-4.3h4.3c1.2,0,2.2,0.4,3,1.3c0.8,0.8,1.3,1.8,1.3,3L360.7,306.5L360.7,306.5z
		 M362.9,283.2H311v-48.9h51.3v10.7h-32.3v8.9h30.3v9.1h-30.3v9.5h33V283.2z M373.4,293.8h-2.1v8.5c0,0.7,0.2,1.2,0.7,1.6
		c0.5,0.4,0.9,0.5,1.3,0.5h0.2v2.1h-2.1c-1.2,0-2.2-0.4-3-1.2c-0.8-0.8-1.2-1.8-1.2-3v-8.5h-2.1v-2.1h2.1v-4.2h4.2v4.2h2.1
		L373.4,293.8L373.4,293.8z M390.4,300.1h-8.5v2.1c0,0.6,0.2,1.1,0.6,1.5c0.4,0.4,0.9,0.6,1.5,0.6h2.1c1.4,0,2.1-0.7,2.1-2.1h2.1
		c-0.3,2.8-1.8,4.3-4.3,4.3h-4.3c-1.2,0-2.2-0.4-3-1.2c-0.8-0.8-1.2-1.8-1.2-3v-6.4c0-1.2,0.4-2.2,1.2-3c0.9-0.8,1.9-1.2,3-1.2h4.3
		c1.2,0,2.2,0.4,3,1.3c0.8,0.8,1.3,1.8,1.3,3L390.4,300.1L390.4,300.1z M407.4,306.5h-4.2v-2.1c-0.2,1.4-0.9,2.1-2.1,2.1h-2.1
		c-1.2,0-2.2-0.4-3-1.2c-0.8-0.8-1.2-1.8-1.2-3v-10.6h4.2v10.6c0,0.6,0.2,1.1,0.6,1.5c0.4,0.4,0.9,0.6,1.5,0.6
		c0.6,0,1.1-0.2,1.5-0.6c0.4-0.4,0.6-0.9,0.6-1.5v-10.6h4.2L407.4,306.5L407.4,306.5z M422.2,295.9H418c-0.6,0-1.1,0.2-1.5,0.6
		c-0.4,0.4-0.6,0.9-0.6,1.5v8.5h-4.3v-14.9h4.3v4.2c0.2-1.4,0.6-2.5,1.3-3.2c0.7-0.7,1.7-1.1,3-1.1h2.1V295.9z M431.7,298.1
		c1.7,0.9,2.7,1.7,2.9,2.2c0.3,0.6,0.4,1.2,0.4,1.9c0,1.2-0.4,2.2-1.3,3c-0.8,0.8-1.8,1.2-3,1.2h-2.1c-2.8,0-4.3-1.4-4.3-4.3h2.1
		c0.2,1.4,0.8,2.1,2,2.1c0.8,0,1.3-0.2,1.7-0.5c0.4-0.3,0.6-0.7,0.6-1.3c0-0.6-1-1.4-3.1-2.6c-1.7-0.9-2.7-1.6-2.9-2.2
		c-0.3-0.6-0.4-1.2-0.4-1.9c0-1.2,0.4-2.2,1.3-3c0.8-0.8,1.8-1.2,3-1.2h2.1c2.7,0,4.1,1.4,4.3,4.3h-2.1c-0.2-1.4-0.8-2.1-2-2.1
		c-0.7,0-1.3,0.1-1.7,0.4c-0.4,0.3-0.6,0.7-0.6,1.3C428.6,296.1,429.7,297,431.7,298.1z M422.1,264.1v0.5c7.8,0.2,12.8,3.1,12.8,8.7
		v9.9h-18.9v-6.9c0.2-3.7-2.1-6.1-7.8-6.1h-14.7v13h-18.9v-48.9h36.6c16.4,0.2,24.4,2.6,24.4,14.8
		C435.6,257.2,435.6,262,422.1,264.1z M447.4,248.9c-5.3,0-9.7-4.3-9.7-9.7c0-5.4,4.4-9.7,9.7-9.7h0c5.3,0,9.6,4.3,9.6,9.7
		C457,244.6,452.8,248.9,447.4,248.9z"/>
	<path d="M80.2,293.8c-0.6,0-1.1,0.2-1.5,0.6c-0.4,0.4-0.6,0.9-0.6,1.5v2.1h4.3v-2.1c0-0.6-0.2-1.1-0.6-1.5
		C81.3,294,80.8,293.8,80.2,293.8z"/>
</g>
</svg>
