<?xml version="1.0" encoding="utf-8"?>
<!-- Generator: Adobe Illustrator 21.0.2, SVG Export Plug-In . SVG Version: 6.00 Build 0)  -->
<svg version="1.1" id="Calque_1" xmlns="http://www.w3.org/2000/svg" xmlns:xlink="http://www.w3.org/1999/xlink" x="0px" y="0px"
	 viewBox="0 0 500 188" style="enable-background:new 0 0 500 188;" xml:space="preserve">
<path d="M352.8,144.8c-0.4,0.4-0.6,0.9-0.6,1.5c0,0.6,0.2,1.1,0.6,1.5c0.4,0.4,0.9,0.6,1.5,0.6c0.6,0,1.1-0.2,1.5-0.6
	c0.4-0.4,0.6-0.9,0.6-1.5v-2.1h-2.2C353.7,144.2,353.2,144.4,352.8,144.8z"/>
<path d="M190.7,139.9c0-0.6-0.2-1.1-0.6-1.5c-0.5-0.4-1-0.6-1.6-0.6c-0.6,0-1.1,0.2-1.5,0.6c-0.4,0.4-0.6,0.9-0.6,1.5v2.1h4.3V139.9
	z"/>
<path d="M386.2,139.9c0-0.6-0.2-1.1-0.6-1.5c-0.5-0.4-1-0.6-1.6-0.6c-0.6,0-1.1,0.2-1.5,0.6c-0.4,0.4-0.6,0.9-0.6,1.5v2.1h4.3V139.9
	z"/>
<path d="M100.1,89.6H83.5v26.2h16.6c7,0,9.6-3.2,9.6-8.3V97.2C109.6,90.9,106.7,89.6,100.1,89.6z"/>
<path d="M137.6,137.8c-0.6,0-1.1,0.2-1.5,0.6c-0.4,0.4-0.6,0.9-0.6,1.5v6.4c0,0.6,0.2,1.1,0.6,1.5c0.4,0.4,0.9,0.6,1.5,0.6
	c0.6,0,1.1-0.2,1.5-0.6c0.4-0.4,0.6-0.9,0.6-1.5v-6.4c0-0.6-0.2-1.1-0.6-1.5C138.6,138,138.1,137.8,137.6,137.8z"/>
<path d="M267.2,139.9c0-0.6-0.2-1.1-0.6-1.5c-0.5-0.4-1-0.6-1.6-0.6c-0.6,0-1.1,0.2-1.5,0.6c-0.4,0.4-0.6,0.9-0.6,1.5v2.1h4.3V139.9
	z"/>
<path d="M299,137.8c-0.6,0-1.1,0.2-1.5,0.6c-0.4,0.4-0.6,0.9-0.6,1.5v8.5h2.2c0.6,0,1.1-0.2,1.5-0.6c0.4-0.4,0.6-0.9,0.6-1.5v-6.4
	c0-0.6-0.2-1.1-0.6-1.5C300.1,138,299.6,137.8,299,137.8z"/>
<path d="M204,144.8c-0.4,0.4-0.6,0.9-0.6,1.5c0,0.6,0.2,1.1,0.6,1.5c0.4,0.4,0.9,0.6,1.5,0.6c0.6,0,1.1-0.2,1.5-0.6
	c0.4-0.4,0.6-0.9,0.6-1.5v-2.1h-2.2C204.9,144.2,204.4,144.4,204,144.8z"/>
<path d="M324.5,137.8c-0.6,0-1.1,0.2-1.5,0.6c-0.4,0.4-0.6,0.9-0.6,1.5v6.4c0,0.6,0.2,1.1,0.6,1.5c0.4,0.4,0.9,0.6,1.5,0.6
	c0.6,0,1.1-0.2,1.5-0.6c0.4-0.4,0.6-0.9,0.6-1.5v-6.4c0-0.6-0.2-1.1-0.6-1.5C325.6,138,325.1,137.8,324.5,137.8z"/>
<polygon points="198.5,88 189.9,109.2 207.5,109.2 198.7,88 "/>
<path d="M446.9,79.1c-0.6,0-1,0-1.3,0.1v3.6h1.3c1.4,0,2.6-0.5,2.6-1.8C449.5,80.1,448.8,79.1,446.9,79.1z"/>
<path d="M447.4,75c-4.3,0-7.8,3.6-7.8,8.2c0,4.6,3.5,8.2,7.8,8.2s7.8-3.6,7.8-8.2C455.3,78.7,451.8,75,447.4,75z M449.9,88.8
	c-0.3-0.3-0.5-1.3-0.7-2.7c-0.3-1.4-1-1.9-2.3-1.9h-1.2v4.6H444V78c0.9-0.1,1.8-0.2,3.1-0.2c1.6,0,2.7,0.3,3.4,0.8s1,1.2,1,2.2
	c0,1.4-0.9,2.3-2.1,2.6v0.1c1,0.2,1.6,1,1.8,2.6c0.3,1.7,0.5,2.3,0.7,2.7H449.9z"/>
<path d="M408.2,89.6h-14.7v13.2h14.7c8.1,0,7.9-2.1,7.9-7.6C416.1,90.8,414.4,89.6,408.2,89.6z"/>
<path d="M474.7,15.5C315.3,24.6,160.7,44.1,25,66.7v105.9h450L474.7,15.5z M236.2,96.4c0-16.2,12.9-18.6,33.7-18.6
	c18.4,0,31.4,0.1,31.4,15.6h-19.2c-0.4-5-6.5-4.9-12.2-4.9c-13.6,0-14,2.9-14.2,10.8v8c0,8.7,4.4,9.6,14.2,9.6
	c9.7,0,12.2-1.5,12.2-8.3H269v-9.1h32.3v8.6c0,16.5-6.1,19.5-31.4,19.5c-22.4,0-33.7-2.6-33.7-18.5V96.4z M138.9,78.2h18.9v48.9
	h-18.9V78.2z M69.5,150.5h-4.2v-19.1h4.2V150.5z M86.6,144.1H78v2.1c0,0.6,0.2,1.1,0.6,1.5c0.4,0.4,0.9,0.6,1.5,0.6h2.1
	c1.4,0,2.1-0.7,2.1-2.1h2.1c-0.3,2.8-1.8,4.3-4.3,4.3H78c-1.2,0-2.2-0.4-3-1.2s-1.3-1.8-1.3-3v-6.4c0-1.2,0.4-2.2,1.3-3
	c0.8-0.8,1.8-1.2,3-1.2h4.3c1.2,0,2.2,0.4,3,1.3c0.8,0.8,1.3,1.8,1.3,3L86.6,144.1z M98.1,142.1c1.7,0.9,2.7,1.7,2.9,2.2
	c0.3,0.6,0.4,1.2,0.4,1.9c0,1.2-0.4,2.2-1.3,3c-0.8,0.8-1.8,1.2-3,1.2H95c-2.8,0-4.3-1.4-4.3-4.3h2.1c0.2,1.4,0.8,2.1,2,2.1
	c0.8,0,1.3-0.2,1.7-0.5s0.6-0.7,0.6-1.3s-1-1.4-3.1-2.6c-1.7-0.9-2.7-1.6-2.9-2.2c-0.3-0.6-0.4-1.2-0.4-1.9c0-1.2,0.4-2.2,1.3-3
	c0.8-0.8,1.8-1.2,3-1.2h2.1c2.7,0,4.1,1.4,4.3,4.3h-2.1c-0.2-1.4-0.9-2.1-2-2.1c-0.8,0-1.3,0.1-1.7,0.4c-0.4,0.3-0.6,0.7-0.6,1.3
	C95,140.1,96.1,141,98.1,142.1z M127,150.5h-4.3v-10.6c0-0.6-0.2-1.1-0.6-1.5c-0.4-0.4-0.9-0.6-1.5-0.6c-0.6,0-1.1,0.2-1.5,0.6
	c-0.4,0.4-0.6,0.9-0.6,1.5v10.6h-4.2v-14.9h4.2v2.1c0.1-0.7,0.3-1.2,0.7-1.6c0.4-0.4,0.8-0.5,1.5-0.5h2.1c1.2,0,2.2,0.4,3,1.3
	c0.8,0.8,1.3,1.8,1.3,3L127,150.5z M129.1,107.5c0,13.4-6.2,19.7-26,19.7H64.5V78.3h36c19.8,0,28.6,5.1,28.6,19V107.5z M144,146.3
	L144,146.3c-0.1,1.1-0.5,2.1-1.4,3c-0.8,0.8-1.8,1.3-3,1.3h-4.3c-1.2,0-2.2-0.4-3-1.2s-1.2-1.8-1.2-3V140c0-1.2,0.4-2.2,1.3-3
	c0.8-0.8,1.8-1.2,3-1.2h4.3c1.2,0,2.2,0.4,3,1.3c0.8,0.8,1.3,1.8,1.3,3V146.3z M156.7,150.5v-2.1c-0.2,1.4-0.9,2.1-2.1,2.1h-2.1
	c-1.2,0-2.2-0.4-3-1.2s-1.3-1.8-1.3-3v-10.6h4.2v10.6c0,0.6,0.2,1.1,0.6,1.5c0.4,0.4,0.9,0.6,1.5,0.6c0.6,0,1.1-0.2,1.5-0.6
	c0.4-0.4,0.6-0.9,0.6-1.5v-10.6h4.2l0.1,14.8H156.7z M175.8,148.3c-1.4,1.4-3.1,2.1-5.1,2.1h-5.5v-14.9h4.2v12.7h2.2
	c0.6,0,1.1-0.2,1.5-0.6c0.4-0.4,0.6-0.9,0.6-1.5v-10.6h4.2l0,7.7C177.9,145.2,177.2,146.9,175.8,148.3z M186.9,147.7
	c0.4,0.4,0.9,0.6,1.5,0.6h2.1c1.4,0,2.1-0.7,2.1-2.1h2.1c-0.3,2.8-1.8,4.3-4.3,4.3h-4.3c-1.2,0-2.2-0.4-3-1.2
	c-0.8-0.8-1.3-1.8-1.3-3v-6.4c0-1.2,0.4-2.2,1.3-3c0.8-0.8,1.8-1.2,3-1.2h4.3c1.2,0,2.2,0.4,3,1.3c0.8,0.8,1.3,1.8,1.3,3l0.2,4.1
	h-8.6v2.1C186.3,146.8,186.5,147.3,186.9,147.7z M211.9,150.5h-4.2v-2.1c-0.2,1.4-0.9,2.1-2.1,2.1h-2.1c-1.2,0-2.2-0.4-3-1.2
	s-1.3-1.8-1.3-3s0.4-2.2,1.3-3c0.8-0.8,1.8-1.2,3-1.2h4.3V140c0-0.6-0.2-1.1-0.6-1.5c-0.4-0.4-0.9-0.6-1.5-0.6h-2.1
	c-1.3,0-2,0.7-2.1,2.1h-2.1c0.3-2.9,1.7-4.3,4.3-4.3h4.3c1.2,0,2.2,0.4,3,1.3c0.8,0.8,1.3,1.8,1.3,3L211.9,150.5z M211.3,118.8
	h-25.5l-3.5,8.4h-19.7l21.3-48.9h28.8l21.6,48.9H215L211.3,118.8z M224.6,150.5v-2.1c-0.2,1.4-0.9,2.1-2.1,2.1h-2.1
	c-1.2,0-2.2-0.4-3-1.2c-0.8-0.8-1.3-1.8-1.3-3v-10.6h4.2v10.6c0,0.6,0.2,1.1,0.6,1.5c0.4,0.4,0.9,0.6,1.5,0.6c0.6,0,1.1-0.2,1.5-0.6
	c0.4-0.4,0.6-0.9,0.6-1.5v-10.6h4.3l0.1,14.8H224.6z M245.9,138.8c0,1.2-0.3,2.2-1.1,2.9c-0.7,0.7-1.8,1.1-3.2,1.3
	c1.4,0.2,2.5,0.6,3.2,1.3c0.7,0.7,1.1,1.7,1.1,2.9v3.2h-4.2v-4.3c0-0.6-0.2-1.1-0.6-1.5c-0.4-0.4-0.9-0.6-1.5-0.6
	c-0.6,0-1.1,0.2-1.5,0.6c-0.4,0.4-0.6,0.9-0.6,1.5v4.3h-4.2v-3.2c0-1.2,0.4-2.2,1.1-2.9c0.7-0.7,1.8-1.1,3.2-1.3
	c-1.4-0.2-2.5-0.6-3.2-1.3c-0.7-0.7-1.1-1.7-1.1-2.9v-3.2h4.2v4.2c0,0.6,0.2,1.1,0.6,1.5c0.4,0.4,0.9,0.6,1.5,0.6
	c0.6,0,1.1-0.2,1.5-0.6c0.4-0.4,0.6-0.9,0.6-1.5v-4.2h4.2V138.8z M263.5,147.7c0.4,0.4,0.9,0.6,1.5,0.6h2.1c1.4,0,2.1-0.7,2.1-2.1
	h2.1c-0.3,2.8-1.7,4.3-4.3,4.3h-4.3c-1.2,0-2.2-0.4-3-1.2s-1.3-1.8-1.3-3v-6.4c0-1.2,0.4-2.2,1.3-3c0.8-0.8,1.8-1.2,3-1.2h4.3
	c1.2,0,2.2,0.4,3,1.3c0.8,0.8,1.3,1.8,1.3,3l0.1,4.1h-8.5v2.1C262.9,146.8,263.1,147.3,263.5,147.7z M288.4,138.8
	c0,1.2-0.4,2.2-1.1,2.9c-0.7,0.7-1.8,1.1-3.2,1.3c1.4,0.2,2.5,0.6,3.2,1.3c0.7,0.7,1.1,1.7,1.1,2.9v3.2h-4.2v-4.3
	c0-0.6-0.2-1.1-0.6-1.5c-0.4-0.4-0.9-0.6-1.5-0.6c-0.6,0-1.1,0.2-1.5,0.6c-0.4,0.4-0.6,0.9-0.6,1.5v4.3h-4.2v-3.2
	c0-1.2,0.4-2.2,1.1-2.9c0.7-0.7,1.8-1.1,3.2-1.3c-1.4-0.2-2.5-0.6-3.2-1.3s-1.1-1.7-1.1-2.9v-3.2h4.2v4.2c0,0.6,0.2,1.1,0.6,1.5
	c0.4,0.4,0.9,0.6,1.5,0.6c0.6,0,1.1-0.2,1.5-0.6c0.4-0.4,0.6-0.9,0.6-1.5v-4.2h4.2V138.8z M304.1,149.3c-0.8,0.8-1.8,1.2-3,1.2h-4.3
	v4.2h-4.2v-19.1h4.2v2.1c0-0.7,0.2-1.2,0.5-1.6c0.4-0.4,0.9-0.5,1.6-0.5h2.1c1.2,0,2.2,0.4,3,1.3c0.8,0.8,1.3,1.8,1.3,3l0.1,6.4
	C305.4,147.5,305,148.5,304.1,149.3z M313.9,150.5h-4.2v-19.1h4.2V150.5z M330.9,146.3c0,1.1-0.4,2.1-1.3,3c-0.8,0.8-1.8,1.3-3,1.3
	h-4.3c-1.2,0-2.2-0.4-3-1.2s-1.3-1.8-1.3-3V140c0-1.2,0.4-2.2,1.3-3c0.8-0.8,1.8-1.2,3-1.2h4.3c1.2,0,2.2,0.4,3,1.3
	c0.8,0.8,1.3,1.8,1.3,3V146.3z M345.8,139.9h-4.3c-0.6,0-1.1,0.2-1.5,0.6c-0.4,0.4-0.6,0.9-0.6,1.5v8.5h-4.2v-14.9h4.2v4.2
	c0.2-1.4,0.6-2.5,1.3-3.2s1.7-1.1,3-1.1h2.1V139.9z M360.7,150.5h-4.2v-2.1c-0.2,1.4-0.9,2.1-2.1,2.1h-2.1c-1.2,0-2.2-0.4-3-1.2
	c-0.9-0.8-1.3-1.8-1.3-3s0.4-2.2,1.3-3c0.8-0.8,1.8-1.2,3-1.2h4.3V140c0-0.6-0.2-1.1-0.6-1.5c-0.4-0.4-0.9-0.6-1.5-0.6h-2.1
	c-1.3,0-2,0.7-2.1,2.1h-2.1c0.3-2.9,1.8-4.3,4.3-4.3h4.3c1.2,0,2.2,0.4,3,1.3c0.8,0.8,1.3,1.8,1.3,3L360.7,150.5z M363,127.2
	L363,127.2h-52V78.3h51.3V89H330v8.9h30.3v9.1H330v9.5h33V127.2z M372,147.9c0.5,0.4,0.9,0.5,1.3,0.5h0.2v2.1h-2.1
	c-1.2,0-2.2-0.4-3-1.2s-1.2-1.8-1.2-3v-8.5h-2.1v-2.1h2.1v-4.2h4.2v4.2h2.1l-0.1,2.1h-2.1v8.5C371.3,147,371.5,147.5,372,147.9z
	 M382.5,147.7c0.4,0.4,0.9,0.6,1.5,0.6h2.1c1.4,0,2.1-0.7,2.1-2.1h2.1c-0.3,2.8-1.8,4.3-4.3,4.3h-4.3c-1.2,0-2.2-0.4-3-1.2
	s-1.2-1.8-1.2-3v-6.4c0-1.2,0.4-2.2,1.2-3c0.9-0.8,1.9-1.2,3-1.2h4.3c1.2,0,2.2,0.4,3,1.3c0.8,0.8,1.3,1.8,1.3,3l0.1,4.1h-8.5v2.1
	C381.9,146.8,382.1,147.3,382.5,147.7z M407.4,150.5h-4.2v-2.1c-0.2,1.4-0.9,2.1-2.1,2.1H399c-1.2,0-2.2-0.4-3-1.2s-1.2-1.8-1.2-3
	v-10.6h4.2v10.6c0,0.6,0.2,1.1,0.6,1.5c0.4,0.4,0.9,0.6,1.5,0.6c0.6,0,1.1-0.2,1.5-0.6c0.4-0.4,0.6-0.9,0.6-1.5v-10.6h4.2V150.5z
	 M422.3,139.9L422.3,139.9H418c-0.6,0-1.1,0.2-1.5,0.6c-0.4,0.4-0.6,0.9-0.6,1.5v8.5h-4.3v-14.9h4.3v4.2c0.2-1.4,0.6-2.5,1.3-3.2
	s1.7-1.1,3-1.1h2.1V139.9z M431.7,142.1c1.7,0.9,2.7,1.7,2.9,2.2c0.3,0.6,0.4,1.2,0.4,1.9c0,1.2-0.4,2.2-1.3,3
	c-0.8,0.8-1.8,1.2-3,1.2h-2.1c-2.8,0-4.3-1.4-4.3-4.3h2.1c0.2,1.4,0.8,2.1,2,2.1c0.8,0,1.3-0.2,1.7-0.5s0.6-0.7,0.6-1.3
	s-1-1.4-3.1-2.6c-1.7-0.9-2.7-1.6-2.9-2.2c-0.3-0.6-0.4-1.2-0.4-1.9c0-1.2,0.4-2.2,1.3-3c0.8-0.8,1.8-1.2,3-1.2h2.1
	c2.7,0,4.1,1.4,4.3,4.3h-2.1c-0.2-1.4-0.8-2.1-2-2.1c-0.7,0-1.3,0.1-1.7,0.4c-0.4,0.3-0.6,0.7-0.6,1.3
	C428.6,140.1,429.7,141,431.7,142.1z M422.1,108.1v0.5c7.8,0.2,12.8,3.1,12.8,8.7v9.9H416v-6.9c0.2-3.7-2.1-6.1-7.8-6.1h-14.7v13
	h-18.9V78.3h36.6c16.4,0.2,24.4,2.6,24.4,14.8C435.6,101.2,435.6,106,422.1,108.1z M447.4,92.9c-5.3,0-9.7-4.3-9.7-9.7
	c0-5.4,4.4-9.7,9.7-9.7c5.3,0,9.6,4.3,9.6,9.7C457,88.6,452.8,92.9,447.4,92.9z"/>
<path d="M80.2,137.8c-0.6,0-1.1,0.2-1.5,0.6c-0.4,0.4-0.6,0.9-0.6,1.5v2.1h4.3v-2.1c0-0.6-0.2-1.1-0.6-1.5
	C81.3,138,80.8,137.8,80.2,137.8z"/>
</svg>
