<?xml version="1.0" encoding="utf-8"?>
<!-- Generator: Adobe Illustrator 19.1.0, SVG Export Plug-In . SVG Version: 6.00 Build 0)  -->
<svg version="1.1" id="Calque_2" xmlns="http://www.w3.org/2000/svg" xmlns:xlink="http://www.w3.org/1999/xlink" x="0px" y="0px"
	 viewBox="0 0 500 500" style="enable-background:new 0 0 500 500;" xml:space="preserve">
<style type="text/css">
	.st0{fill:#E3291B;}
	.st1{fill:#043982;}
	.st2{fill:none;}
	.st3{fill:#FFFFFF;}
	.st4{fill:#FFDC06;}
</style>
<g>
	<path class="st0" d="M366.3,158.6c0.5,0.1,0.8,0.4,1.1,0.8c0.3,0.5,0.3,1,0.2,1.4c-0.2,0.4-0.5,0.8-1.2,1.2l-1.1,0.6l-1.7-3
		l1.1-0.6C365.3,158.6,365.9,158.5,366.3,158.6 M370.2,161.5c0.3-1,0.1-2.1-0.6-3.4c-0.7-1.2-1.5-1.9-2.5-2.1c-1-0.2-2.1,0-3.4,0.7
		l-3.2,1.8c-0.3,0.2-0.5,0.4-0.6,0.7c-0.1,0.3,0,0.6,0.2,0.9c0.2,0.3,0.4,0.6,0.6,0.7c0.2,0.1,0.5,0.1,0.8-0.1l0.1-0.1l4,7.2
		l-0.1,0.1c-0.3,0.1-0.4,0.4-0.5,0.6c0,0.3,0,0.6,0.2,0.9c0.2,0.4,0.4,0.6,0.7,0.7c0.2,0.1,0.5,0,0.9-0.2l2.7-1.5
		c0.3-0.2,0.5-0.4,0.6-0.6c0-0.2,0-0.6-0.2-0.9c-0.2-0.4-0.4-0.6-0.7-0.7c-0.2-0.1-0.5,0-0.8,0.2l-0.8,0.4l-1.1-2l1.3-0.7
		C369.1,163.3,369.9,162.5,370.2,161.5"/>
	<path class="st0" d="M377.1,154c0.3,0.1,0.6,0.5,0.8,1c0.2,0.5,0.2,1,0,1.3c-0.2,0.3-0.7,0.6-1.4,0.8l-1.1,0.4l-1-3l1.4-0.5
		C376.3,153.9,376.8,153.8,377.1,154 M380.3,156.1c0.2-0.7,0.1-1.4-0.2-2.2c-0.4-1.1-1-1.9-1.8-2.3c-0.8-0.4-1.8-0.4-3,0l-3.9,1.3
		c-0.4,0.1-0.6,0.3-0.7,0.5c-0.1,0.2-0.1,0.6,0,1c0.1,0.4,0.3,0.6,0.5,0.8c0.2,0.2,0.5,0.2,0.8,0.1l0.1-0.1l2.6,7.8l-0.1,0
		c-0.3,0.1-0.5,0.3-0.6,0.5c-0.1,0.2-0.1,0.5,0.1,0.9c0.1,0.4,0.3,0.7,0.5,0.8c0.2,0.1,0.5,0.1,0.9,0l2.2-0.7
		c0.4-0.1,0.6-0.3,0.7-0.5c0.1-0.2,0.1-0.6-0.1-1c-0.1-0.4-0.3-0.6-0.5-0.8c-0.2-0.1-0.5-0.2-0.8-0.1l-0.1,0l-0.9-2.8l0.8-0.3
		c0.1,0,0.2,0,0.4,0s0.3,0.1,0.4,0.3l3.4,3.3l0,0c0.3,0.3,0.7,0.4,1.1,0.3l1-0.3c0.4-0.1,0.6-0.3,0.7-0.5c0.1-0.2,0.1-0.6,0-1
		c-0.1-0.4-0.3-0.6-0.5-0.8c-0.2-0.1-0.5-0.1-0.8,0l-0.2,0.1l-0.1,0l-2.3-2.3c0,0-0.1,0-0.1-0.1c-0.2-0.2-0.4-0.4-0.6-0.5
		C379.8,157.3,380.1,156.8,380.3,156.1"/>
	<path class="st0" d="M389.3,152.1c0.5,0.7,0.9,1.7,1.1,3.1c0.2,1.4,0.1,2.4-0.2,3.3c-0.3,0.8-0.9,1.3-1.6,1.4
		c-0.7,0.1-1.4-0.2-1.9-0.9c-0.5-0.7-0.9-1.7-1.1-3.1c-0.2-1.3-0.1-2.4,0.2-3.2c0.3-0.8,0.9-1.3,1.6-1.4
		C388.2,151.1,388.8,151.4,389.3,152.1 M383.8,151.1c-0.8,1.4-1,3.1-0.7,5.1c0.3,2,0.9,3.6,2,4.7c1.1,1.2,2.4,1.7,3.8,1.5
		c1.4-0.2,2.5-1,3.3-2.4s1-3.1,0.7-5.1c-0.3-2-0.9-3.6-2-4.7c-1.1-1.2-2.4-1.6-3.8-1.5C385.6,148.9,384.5,149.6,383.8,151.1"/>
	<path class="st0" d="M402.5,153.2l0-2.2l-1.8-0.1l-0.3,8.2l1.5,0.1c0.4,0,0.7,0.1,0.8,0.3c0.2,0.2,0.2,0.5,0.2,0.9
		c0,0.4-0.1,0.7-0.3,0.9c-0.2,0.2-0.5,0.3-0.9,0.3l-5.2-0.2c-0.4,0-0.7-0.1-0.8-0.3c-0.2-0.2-0.2-0.5-0.2-0.9c0-0.4,0.1-0.7,0.3-0.9
		c0.2-0.2,0.5-0.3,0.8-0.2l1.5,0.1l0.3-8.2l-1.8-0.1l-0.1,2.2l0,0.3c0,0.4-0.1,0.6-0.3,0.8c-0.2,0.2-0.4,0.3-0.7,0.3
		c-0.3,0-0.6-0.1-0.7-0.3c-0.1-0.2-0.2-0.5-0.2-1l0-0.1l0.2-3.3c0-0.7,0.1-1,0.3-1.2c0.1-0.1,0.4-0.2,0.8-0.2l7.6,0.3
		c0.4,0,0.6,0.1,0.8,0.2c0.1,0.1,0.2,0.5,0.2,1.2l0,3.3v0.1c0,0.5-0.1,0.8-0.3,1c-0.2,0.2-0.4,0.3-0.7,0.3c-0.3,0-0.5-0.1-0.7-0.3
		C402.5,154.1,402.5,153.8,402.5,153.2"/>
	<path class="st0" d="M413.5,153.7l0.2-1.1l-4-0.7l-0.5,2.8l1.5,0.3l0-0.1c0.1-0.4,0.2-0.7,0.4-0.9c0.2-0.2,0.4-0.2,0.7-0.2
		c0.3,0.1,0.5,0.2,0.6,0.4c0.1,0.2,0.2,0.5,0.1,0.7c0,0,0,0.1,0,0.1c0,0.1,0,0.2,0,0.2l-0.4,2.3c-0.1,0.5-0.2,0.8-0.4,1
		c-0.2,0.2-0.4,0.2-0.7,0.2c-0.3-0.1-0.5-0.2-0.6-0.4c-0.1-0.2-0.1-0.5-0.1-0.9l0-0.2l-1.5-0.3l-0.6,3.2l4,0.7l0.2-1.3
		c0.1-0.5,0.2-0.8,0.4-1c0.2-0.2,0.4-0.2,0.8-0.2c0.3,0.1,0.5,0.2,0.7,0.4c0.1,0.2,0.1,0.6,0,1.1l-0.5,2.6c-0.1,0.4-0.2,0.6-0.3,0.7
		c-0.1,0.1-0.4,0.1-0.8,0.1l-7.1-1.3c-0.4-0.1-0.6-0.2-0.8-0.4c-0.1-0.2-0.2-0.5-0.1-1c0.1-0.4,0.2-0.7,0.4-0.8
		c0.2-0.2,0.4-0.2,0.7-0.2l0.1,0l1.5-8.1l-0.1,0c-0.3-0.1-0.5-0.2-0.6-0.4c-0.1-0.2-0.1-0.5-0.1-0.9c0.1-0.4,0.2-0.7,0.4-0.9
		c0.2-0.2,0.5-0.2,0.9-0.1l7.1,1.3c0.4,0.1,0.6,0.2,0.7,0.3c0.1,0.2,0.1,0.4,0,0.8l-0.4,2.4c-0.1,0.5-0.2,0.8-0.4,1
		c-0.2,0.2-0.4,0.3-0.8,0.2c-0.3-0.1-0.6-0.2-0.7-0.5C413.4,154.5,413.4,154.1,413.5,153.7"/>
	<path class="st0" d="M426,154.3c0.2-0.2,0.4-0.3,0.5-0.4c0.2-0.1,0.3-0.1,0.5,0c0.3,0.1,0.4,0.3,0.5,0.5c0,0.2,0,0.5-0.2,1l-1,2.7
		c-0.2,0.5-0.4,0.8-0.5,0.9c-0.2,0.1-0.4,0.1-0.8,0c-0.2-0.1-0.4-0.2-0.5-0.4c-0.1-0.2-0.1-0.5,0-0.9c0.1-0.7,0-1.3-0.2-1.7
		c-0.2-0.4-0.6-0.7-1.2-0.9c-0.9-0.3-1.6-0.2-2.3,0.4c-0.7,0.6-1.3,1.5-1.8,2.9c-0.5,1.4-0.6,2.5-0.4,3.4c0.2,0.9,0.7,1.5,1.6,1.8
		c0.6,0.2,1.3,0.2,2.2,0c0.9-0.2,1.4-0.3,1.6-0.2c0.2,0.1,0.4,0.3,0.4,0.5c0.1,0.3,0,0.6-0.1,0.9c-0.2,0.6-0.9,1-1.9,1.3
		s-2.1,0.1-3.2-0.2c-1.4-0.5-2.4-1.5-2.9-3.1c-0.5-1.5-0.4-3.2,0.4-5.2c0.7-1.9,1.7-3.2,3-4.1c1.4-0.9,2.7-1.1,4.1-0.6
		c0.4,0.1,0.8,0.3,1.1,0.6C425.3,153.5,425.7,153.9,426,154.3"/>
	<path class="st0" d="M435.1,163.9l1.1-1.9l-1.6-0.9l-4.2,7.1l1.3,0.8c0.3,0.2,0.5,0.4,0.6,0.7c0,0.2,0,0.6-0.3,0.9
		c-0.2,0.4-0.5,0.6-0.7,0.7c-0.2,0.1-0.5,0-0.9-0.2l-4.5-2.7c-0.3-0.2-0.5-0.4-0.6-0.7c-0.1-0.3,0-0.6,0.3-0.9
		c0.2-0.4,0.5-0.6,0.7-0.7c0.2-0.1,0.5,0,0.9,0.2l1.3,0.8l4.2-7.1l-1.6-0.9l-1.2,1.9l-0.1,0.2c-0.2,0.3-0.4,0.5-0.6,0.6
		c-0.2,0.1-0.5,0.1-0.7-0.1c-0.3-0.2-0.4-0.4-0.5-0.6c0-0.3,0.1-0.6,0.3-1l0-0.1l1.8-2.8c0.4-0.5,0.6-0.9,0.8-0.9
		c0.2-0.1,0.4,0,0.8,0.2l6.5,3.9c0.3,0.2,0.5,0.4,0.6,0.6s-0.1,0.6-0.4,1.1l-1.6,2.9l0,0.1c-0.2,0.4-0.5,0.6-0.7,0.7
		c-0.2,0.1-0.5,0.1-0.8-0.1c-0.3-0.2-0.4-0.4-0.4-0.6C434.7,164.7,434.8,164.3,435.1,163.9"/>
	<path class="st0" d="M445.3,169.5l-1.1-1l-5.6,6l1.1,1c0.3,0.3,0.4,0.5,0.4,0.8c0,0.3-0.1,0.5-0.4,0.8c-0.3,0.3-0.6,0.5-0.8,0.5
		c-0.3,0-0.5-0.1-0.8-0.4l-3.8-3.6c-0.3-0.3-0.4-0.5-0.4-0.8c0-0.3,0.2-0.5,0.5-0.9c0.3-0.3,0.6-0.5,0.8-0.5c0.3,0,0.5,0.1,0.8,0.4
		l1.1,1l5.6-6l-1.1-1c-0.3-0.3-0.4-0.5-0.4-0.8c0-0.3,0.2-0.5,0.4-0.9c0.3-0.3,0.6-0.5,0.8-0.5c0.3,0,0.5,0.1,0.8,0.4l3.8,3.6
		c0.3,0.3,0.5,0.6,0.4,0.8c0,0.2-0.2,0.5-0.5,0.8c-0.3,0.3-0.6,0.5-0.8,0.5C445.8,169.9,445.6,169.8,445.3,169.5"/>
	<path class="st0" d="M451.6,178.8c-0.4,0.8-1.1,1.6-2.2,2.4c-1.1,0.8-2.1,1.3-3,1.4c-0.9,0.1-1.5-0.2-2-0.8
		c-0.4-0.6-0.5-1.3-0.1-2.1c0.4-0.8,1.1-1.6,2.2-2.4c1.1-0.8,2.1-1.3,3-1.4c0.9-0.1,1.5,0.2,2,0.8C451.9,177.2,452,178,451.6,178.8
		 M449.9,173.4c-1.6,0-3.2,0.6-4.8,1.8c-1.6,1.2-2.7,2.5-3.2,4.1c-0.5,1.5-0.3,2.9,0.5,4c0.9,1.2,2.1,1.8,3.7,1.8
		c1.6,0,3.2-0.6,4.8-1.8c1.6-1.2,2.7-2.5,3.2-4.1c0.5-1.5,0.3-2.9-0.5-4C452.7,173.9,451.5,173.4,449.9,173.4"/>
	<path class="st0" d="M346,175.8l-0.9-0.7l-2.6,3.2l2.2,1.8l1-1.2l-0.1-0.1c-0.3-0.3-0.5-0.5-0.6-0.8c-0.1-0.2,0-0.5,0.2-0.7
		c0.2-0.2,0.4-0.3,0.6-0.3c0.3,0,0.5,0.1,0.7,0.3c0,0,0.1,0,0.1,0.1c0.1,0,0.1,0.1,0.2,0.1l1.8,1.5c0.4,0.3,0.6,0.6,0.7,0.8
		c0.1,0.2,0,0.5-0.2,0.7c-0.2,0.2-0.4,0.3-0.7,0.3c-0.2,0-0.5-0.1-0.8-0.4l-0.2-0.1l-1,1.2l2.5,2.1l2.6-3.2l-1-0.8
		c-0.4-0.3-0.6-0.6-0.7-0.8c-0.1-0.3,0-0.5,0.2-0.8c0.2-0.3,0.5-0.4,0.7-0.4c0.3,0,0.6,0.2,1,0.5l2.1,1.7c0.3,0.2,0.5,0.5,0.5,0.6
		c0,0.2-0.1,0.4-0.3,0.7l-4.6,5.6c-0.2,0.3-0.5,0.5-0.8,0.5c-0.3,0-0.6-0.1-0.9-0.4c-0.3-0.3-0.5-0.5-0.5-0.8
		c-0.1-0.2,0-0.5,0.2-0.7l0.1-0.1l-6.3-5.2l-0.1,0.1c-0.2,0.2-0.4,0.3-0.7,0.3c-0.3,0-0.5-0.1-0.8-0.4c-0.3-0.3-0.5-0.5-0.6-0.8
		c0-0.3,0.1-0.5,0.3-0.8l4.6-5.6c0.2-0.3,0.4-0.4,0.6-0.4c0.2,0,0.4,0.1,0.8,0.4l1.9,1.6c0.4,0.3,0.6,0.6,0.7,0.9
		c0.1,0.3,0,0.5-0.2,0.8c-0.2,0.3-0.5,0.4-0.7,0.4C346.7,176.2,346.4,176.1,346,175.8"/>
	<rect x="29" y="216.5" class="st1" width="323.9" height="139.2"/>
	<g>
		<path d="M357,359.7H25V212.4h332V359.7z M33.1,351.6h315.8V220.5H33.1V351.6z"/>
	</g>
	<rect x="25" y="140.3" class="st2" width="448.4" height="219.4"/>
	<path class="st3" d="M189.9,258.2c0-3.8-0.8-4.7-3.9-5.3c-4.5-0.8-5.6-0.5-5.6-2.1c0-1,0.9-1.3,2.2-1.3c2.8,0,5.3,0.5,14.2,0.5
		c4.1,0,9.5-0.5,12.1-0.5c1.3,0,1.9,0.1,1.9,1.1c0,1.8-1,1.5-6.3,2.3c-1.6,0.2-2.8,1.8-2.8,4.6v60.2c0,3.9,0.5,4,5.7,5.3
		c2.8,0.7,3.8,0.5,3.8,1.9c0,0.7-0.4,1.5-2.3,1.5c-2.1,0-5.2-0.5-12.5-0.5c-10.1,0-12.1,0.5-14.3,0.5c-1.2,0-1.7-0.5-1.7-1.6
		c0-1.1,1.2-1.6,3.3-1.8c5.2-0.6,6.2-1.7,6.2-6.8L189.9,258.2L189.9,258.2z"/>
	<path class="st3" d="M229.5,295.6c-1.1,0-1.3-0.1-1.3-0.4c0-0.4,0.5-1.3,3-10.8c4-14.3,4-15.1,4.6-15.1c0.5,0,0.5,0.5,2.3,6.8
		c4.6,16,5.3,18.2,5.3,19.1c0,0.4-0.2,0.4-1.1,0.4H229.5z M243.4,299c1.6,0,1.6,1,4,9.8c2.4,8.7,3,10.3,3,11.4c0,1-0.5,2.4-2.1,2.8
		c-4.1,1-5.3,0.9-5.3,1.9c0,0.9,0.2,1.5,1.6,1.5c1.3,0,5.7-0.5,12.3-0.5c4.5,0,8.4,0.5,10.3,0.5c2.2,0,2.6-0.5,2.6-1.3
		c0-1.5-1.5-1.1-4.3-2.1c-2.4-0.8-3.2-5.3-9.2-25c-14.9-48.6-14-50-16.5-50c-2.2,0-1.3,0.5-12,35.7c-9.8,32.4-11,38.1-13.8,39.4
		c-2.6,1.1-4.1,0.4-4.1,2.2c0,0.9,0.4,1.2,1.2,1.2c1.2,0,3.3-0.5,9.1-0.5c2.9,0,7.6,0.5,8.7,0.5c1.8,0,2.2-0.8,2.2-1.6
		c0-1.6-3.4-1.1-5.7-1.8c-2.7-0.8-3.6-2.1-3.6-3.6c0-0.9,0.6-2.4,3-12.6c1.7-7.1,1.7-7.8,3.5-7.8L243.4,299L243.4,299z"/>
	<path class="st3" d="M273.8,258.4c-2.1-3.9-2.3-5.1-4.7-5.6c-2.2-0.5-3.3-0.5-3.3-1.8c0-1,0.6-1.6,1.8-1.6c2.2,0,5.1,0.5,10.6,0.5
		c8.1,0,10.6-0.5,12.4-0.5c1,0,1.7,0.5,1.7,1.2c0,1.2-0.5,1.8-4.3,2.2c-1.3,0.1-2.5,0.9-2.5,2.2c0,1.7,1,3.3,10.4,22.2
		c8.5-17.3,10.3-19.4,10.3-21.5c0-1.9-1.8-2.9-5.1-2.9c-1.1,0-2.4-0.4-2.4-1.6c0-1.6,1.3-1.8,2.6-1.8c1.2,0,4,0.5,9.7,0.5
		c3.9,0,6-0.5,7.8-0.5c1.8,0,2.4,0.5,2.4,1.6c0,1-0.2,1.7-1.8,1.8c-5.2,0.4-7.5,2.4-9.6,6.4L298,281.7l9.8,20
		c9.4,19.1,9.7,19.9,12.5,21.3c1.7,0.9,2.7,1.1,2.7,1.9c0,0.9-0.2,1.5-1.9,1.5c-2.2,0-6.2-0.5-9.2-0.5c-9.2,0-11.3,0.5-12.4,0.5
		c-1.5,0-1.9-0.5-1.9-1.3c0-1.5,1.8-1.5,3.6-2.1c1.9-0.6,3.2-1.5,3.2-2.8c0-1.2-1.6-4-8.9-19.4c-2.8-6.1-3.4-6.9-3.6-6.9
		c-0.6,0-1.1,1.6-5.9,10.6c-5,9.2-6.1,12.3-6.1,14.2c0,2.2,1.3,3.6,4.9,4.4c2.3,0.5,3.3,0.7,3.3,1.8c0,1.2-0.7,1.6-1.6,1.6
		c-1.8,0-3.9-0.5-9.8-0.5c-6.3,0-8.5,0.5-9.8,0.5c-2.1,0-2.4-0.4-2.4-1.6c0-1.6,0.9-1.6,3.2-2.1c4-1,4.2-1.3,8.4-8.6l14-24.7
		L273.8,258.4z"/>
	<path class="st4" d="M100.3,208.4c1.8-9.7,7.5-12.7,15.5-12.7c23.3,0,33.5,26.7,26.2,65.6c-6.2,33-24.3,59.2-46.1,59.2
		c-11,0-15.8-4.9-13.5-16.9L100.3,208.4z M61.4,305.3c-2.2,11.4-5.2,15-12,15.2c-6.4,0.4-7.6,0.8-8,3.2c-0.3,1.5,0.3,2.7,1.6,2.7
		c4.4,0,10.5-0.8,27.7-0.8c8,0,16.1,0.8,25.2,0.8c40.2,0,63.9-38.1,69.5-67.9c8-42.5-11.6-68.8-51-68.8c-16.9,0-48.6,4.2-49.4,8.7
		c-0.4,2.1-0.1,2.7,2.7,2.7c1.7,0,4.1-0.4,6.6-0.4c5.3,0,6.5,1.3,5.5,7L61.4,305.3z"/>
	<path class="st0" d="M458.3,185.1l-5.4,6.4l5.5-2.7l-0.2-0.4c-0.2-0.4-0.2-0.6-0.1-0.9c0.1-0.2,0.3-0.4,0.7-0.6
		c0.4-0.2,0.7-0.3,0.9-0.2c0.2,0.1,0.5,0.3,0.6,0.6l1.1,2.2c0.2,0.3,0.2,0.6,0.1,0.9c-0.1,0.2-0.3,0.5-0.7,0.6
		c-0.4,0.2-0.7,0.2-0.9,0.2c-0.3,0-0.5-0.2-0.6-0.5l-0.1-0.1l-9,4.4c-0.3,0.2-0.5,0.2-0.6,0.2c-0.1,0-0.2-0.1-0.3-0.3l-0.4-0.8
		c-0.1-0.3-0.2-0.4-0.2-0.6c0-0.1,0.1-0.3,0.2-0.4l5.6-6.9l-5.4,2.6l0.2,0.5c0.2,0.3,0.2,0.6,0.1,0.9c-0.1,0.2-0.3,0.4-0.7,0.6
		s-0.7,0.3-0.9,0.2c-0.2-0.1-0.5-0.3-0.6-0.6l-1.1-2.3c-0.2-0.3-0.2-0.6-0.1-0.9c0.1-0.2,0.3-0.4,0.7-0.6c0.4-0.2,0.7-0.2,0.9-0.2
		c0.2,0.1,0.4,0.2,0.6,0.5l0.1,0.1l7.4-3.6l-0.1-0.1c-0.1-0.3-0.1-0.5,0-0.8c0.1-0.2,0.3-0.4,0.7-0.6c0.4-0.2,0.7-0.2,0.9-0.2
		c0.2,0.1,0.5,0.3,0.6,0.6l0.6,1.3c0.1,0.3,0.2,0.5,0.2,0.7S458.5,184.8,458.3,185.1"/>
	<path class="st0" d="M463.4,212.4l1.2-0.1l-0.5-4.1l-2.8,0.3l0.2,1.5l0.1,0c0.4,0,0.7,0,1,0.1c0.2,0.1,0.3,0.3,0.4,0.6
		c0,0.3,0,0.5-0.2,0.7c-0.2,0.2-0.4,0.3-0.7,0.3c0,0-0.1,0-0.1,0c-0.1,0-0.2,0-0.2,0l-2.3,0.3c-0.5,0.1-0.8,0-1.1-0.1
		c-0.2-0.1-0.4-0.3-0.4-0.6c0-0.3,0-0.5,0.2-0.7c0.2-0.2,0.5-0.3,0.9-0.3l0.2,0l-0.2-1.5l-3.3,0.4l0.5,4.1l1.3-0.1
		c0.5,0,0.9,0,1.1,0.1c0.2,0.1,0.4,0.4,0.4,0.7c0,0.3,0,0.6-0.2,0.7c-0.2,0.2-0.5,0.3-1,0.3l-2.7,0.3c-0.4,0-0.7,0-0.8-0.1
		c-0.1-0.1-0.2-0.3-0.3-0.7l-0.8-7.2c0-0.4,0-0.7,0.2-0.9c0.2-0.2,0.5-0.3,0.9-0.4c0.4,0,0.7,0,0.9,0.1c0.2,0.1,0.3,0.4,0.4,0.7
		l0,0.2l8.2-0.9l0-0.2c0-0.3,0-0.5,0.2-0.7c0.2-0.2,0.5-0.3,0.9-0.3c0.4,0,0.7,0,1,0.1c0.2,0.1,0.3,0.4,0.4,0.8l0.8,7.2
		c0,0.4,0,0.6-0.1,0.7c-0.1,0.1-0.4,0.2-0.8,0.3l-2.5,0.3c-0.5,0.1-0.9,0-1.1-0.1c-0.2-0.1-0.4-0.3-0.4-0.7c0-0.3,0-0.6,0.2-0.8
		C462.6,212.6,462.9,212.5,463.4,212.4"/>
	<path class="st0" d="M464.4,222l0.1-0.8l-8.2-0.6l-0.3,4l2,0.1c0.5,0,0.9,0.1,1.1,0.3c0.2,0.2,0.3,0.4,0.3,0.7
		c0,0.3-0.1,0.6-0.4,0.7c-0.2,0.1-0.6,0.2-1.1,0.1l-3.4-0.3c-0.4,0-0.7-0.1-0.8-0.3c-0.1-0.1-0.2-0.4-0.1-0.8l0.6-8
		c0-0.4,0.2-0.6,0.4-0.8c0.2-0.1,0.5-0.2,1-0.2c0.4,0,0.7,0.1,0.9,0.3c0.2,0.2,0.2,0.5,0.2,0.8l-0.1,0.8l8.2,0.6l0.1-0.8
		c0-0.4,0.1-0.6,0.4-0.8c0.2-0.1,0.5-0.2,0.9-0.2c0.4,0,0.7,0.1,0.9,0.3c0.2,0.2,0.3,0.5,0.2,0.8l-0.3,3.8c0,0.4-0.1,0.6-0.4,0.8
		c-0.2,0.2-0.5,0.2-0.9,0.2c-0.4,0-0.7-0.1-0.9-0.3C464.5,222.6,464.4,222.4,464.4,222"/>
	<path class="st0" d="M460.7,236.2l1.1,0.3l1.1-4l-2.7-0.7l-0.4,1.5l0.1,0c0.4,0.1,0.7,0.3,0.9,0.5s0.2,0.4,0.1,0.7
		c-0.1,0.3-0.2,0.4-0.4,0.6c-0.2,0.1-0.5,0.1-0.8,0.1c0,0-0.1,0-0.1,0c-0.1,0-0.2,0-0.2-0.1l-2.2-0.6c-0.5-0.1-0.8-0.3-1-0.5
		c-0.2-0.2-0.2-0.4-0.1-0.7c0.1-0.3,0.2-0.5,0.5-0.6c0.2-0.1,0.5-0.1,0.9,0l0.2,0.1l0.4-1.5l-3.2-0.9l-1.1,4l1.3,0.3
		c0.5,0.1,0.8,0.3,1,0.5c0.2,0.2,0.2,0.5,0.1,0.8c-0.1,0.3-0.3,0.5-0.5,0.6c-0.2,0.1-0.6,0.1-1.1-0.1l-2.6-0.7
		c-0.4-0.1-0.6-0.2-0.7-0.4c-0.1-0.2-0.1-0.4,0-0.8l1.9-7c0.1-0.4,0.3-0.6,0.5-0.7c0.2-0.1,0.6-0.1,1,0c0.4,0.1,0.6,0.3,0.8,0.5
		c0.2,0.2,0.2,0.5,0.1,0.8l0,0.2l7.9,2.1l0-0.1c0.1-0.3,0.2-0.5,0.5-0.6c0.2-0.1,0.6-0.1,0.9,0c0.4,0.1,0.7,0.3,0.8,0.5
		c0.1,0.2,0.2,0.5,0.1,0.9l-1.9,7c-0.1,0.3-0.2,0.6-0.4,0.6c-0.2,0.1-0.4,0.1-0.8,0l-2.4-0.6c-0.5-0.1-0.8-0.3-1-0.5
		c-0.2-0.2-0.2-0.5-0.1-0.8c0.1-0.3,0.3-0.5,0.5-0.6C459.9,236,460.2,236.1,460.7,236.2"/>
	<path class="st0" d="M458.9,248.6c0.2,0.2,0.3,0.4,0.4,0.6c0.1,0.2,0,0.3,0,0.5c-0.1,0.3-0.3,0.4-0.5,0.4c-0.2,0-0.5-0.1-1-0.3
		l-2.6-1.2c-0.5-0.2-0.7-0.4-0.8-0.6c-0.1-0.2-0.1-0.4,0.1-0.8c0.1-0.2,0.3-0.4,0.4-0.4c0.2-0.1,0.5,0,0.9,0c0.7,0.2,1.3,0.1,1.7,0
		c0.4-0.2,0.8-0.5,1-1.1c0.4-0.8,0.3-1.6-0.2-2.4c-0.5-0.8-1.4-1.4-2.7-2.1c-1.3-0.6-2.4-0.9-3.3-0.7c-0.9,0.1-1.6,0.6-1.9,1.4
		c-0.3,0.6-0.3,1.3-0.2,2.2c0.2,0.9,0.2,1.4,0.1,1.6c-0.1,0.2-0.3,0.3-0.6,0.4c-0.3,0-0.6,0-0.9-0.2c-0.6-0.3-0.9-0.9-1.1-2
		c-0.1-1.1,0-2.1,0.5-3.1c0.7-1.4,1.8-2.3,3.3-2.6c1.6-0.3,3.3,0,5.1,0.8c1.8,0.8,3.1,2,3.8,3.4c0.8,1.4,0.9,2.8,0.2,4.2
		c-0.2,0.4-0.4,0.7-0.7,1C459.7,248,459.4,248.3,458.9,248.6"/>
	<path class="st0" d="M448.7,256.8l1.9,1.2l1.1-1.5l-6.7-4.7L444,253c-0.2,0.3-0.5,0.5-0.7,0.5c-0.3,0-0.6-0.1-0.9-0.3
		c-0.4-0.2-0.6-0.5-0.6-0.7c-0.1-0.2,0-0.5,0.2-0.9l3-4.3c0.2-0.3,0.5-0.5,0.7-0.5c0.3,0,0.6,0.1,0.9,0.3c0.4,0.2,0.6,0.5,0.6,0.7
		c0.1,0.2,0,0.5-0.3,0.9l-0.9,1.2l6.8,4.7l1.1-1.5l-1.8-1.3l-0.2-0.2c-0.3-0.2-0.5-0.4-0.5-0.7c-0.1-0.2,0-0.5,0.1-0.7
		c0.2-0.3,0.4-0.4,0.7-0.4c0.3,0,0.6,0.1,1,0.4l0.1,0l2.6,2c0.5,0.4,0.8,0.7,0.8,0.9c0,0.2-0.1,0.4-0.3,0.7l-4.3,6.2
		c-0.2,0.3-0.4,0.5-0.6,0.5c-0.2,0-0.5-0.1-1.1-0.5l-2.8-1.8l-0.1-0.1c-0.4-0.3-0.6-0.5-0.7-0.8c-0.1-0.2,0-0.5,0.2-0.8
		c0.2-0.3,0.4-0.4,0.6-0.4S448.3,256.5,448.7,256.8"/>
	<path class="st0" d="M443.5,265.5c-0.4,0-0.7-0.2-1.1-0.5c-0.4-0.4-0.6-0.8-0.5-1.2c0-0.4,0.3-0.8,0.8-1.4l0.8-0.9l2.2,2.2l-1,1.1
		C444.2,265.3,443.9,265.5,443.5,265.5 M439.7,265.1c0.2,0.7,0.6,1.3,1.2,1.9c0.8,0.8,1.7,1.2,2.6,1.2c0.9,0,1.8-0.5,2.6-1.4
		l2.9-2.9c0.3-0.3,0.4-0.5,0.4-0.8c0-0.3-0.2-0.5-0.5-0.8c-0.3-0.3-0.6-0.4-0.8-0.5c-0.3,0-0.5,0.1-0.7,0.3l-0.1,0.1l-5.9-5.8
		l0.1-0.1c0.2-0.2,0.3-0.5,0.3-0.7c0-0.3-0.2-0.5-0.5-0.8c-0.3-0.3-0.6-0.5-0.9-0.5c-0.3,0-0.5,0.1-0.8,0.4l-1.6,1.6
		c-0.3,0.3-0.4,0.6-0.4,0.8c0,0.3,0.2,0.5,0.5,0.8c0.3,0.3,0.5,0.4,0.8,0.4c0.3,0,0.5-0.1,0.7-0.3l0.1-0.1l2.1,2l-0.6,0.6
		c-0.1,0.1-0.2,0.1-0.3,0.1c-0.1,0-0.3,0-0.5-0.1l-4.5-1.4l0,0c-0.5-0.1-0.8-0.1-1.1,0.2l-0.8,0.8c-0.3,0.3-0.4,0.6-0.4,0.8
		c0,0.3,0.2,0.5,0.5,0.8c0.3,0.3,0.6,0.4,0.8,0.4c0.3,0,0.5-0.1,0.8-0.3l0.1-0.1l0.1-0.1l3,1c0,0,0.1,0,0.1,0
		c0.3,0.1,0.6,0.1,0.8,0.1C439.5,263.8,439.5,264.4,439.7,265.1"/>
	<path class="st0" d="M433.4,272.8c-0.8-0.4-1.6-1.1-2.3-2.3c-0.8-1.1-1.2-2.1-1.3-3c-0.1-0.9,0.2-1.5,0.8-2
		c0.6-0.4,1.3-0.4,2.1-0.1c0.8,0.4,1.6,1.1,2.4,2.3c0.8,1.1,1.2,2.1,1.3,3c0.1,0.9-0.2,1.5-0.8,2C435,273.2,434.2,273.2,433.4,272.8
		 M438.9,271.2c0-1.6-0.5-3.2-1.7-4.9c-1.1-1.6-2.5-2.7-4-3.3c-1.5-0.5-2.9-0.4-4,0.4c-1.2,0.8-1.8,2-1.8,3.6c0,1.6,0.5,3.2,1.7,4.9
		c1.1,1.7,2.5,2.7,4,3.3c1.5,0.5,2.9,0.4,4-0.4C438.2,274,438.9,272.8,438.9,271.2"/>
	<path class="st0" d="M426.8,279.3l-6.2-5.6l2.5,5.5l0.4-0.2c0.4-0.2,0.6-0.2,0.9-0.1c0.2,0.1,0.4,0.4,0.6,0.7
		c0.2,0.4,0.2,0.7,0.2,1c-0.1,0.2-0.3,0.4-0.6,0.6l-2.3,1c-0.3,0.2-0.6,0.2-0.9,0.1c-0.2-0.1-0.4-0.4-0.6-0.7
		c-0.2-0.4-0.2-0.7-0.1-0.9c0.1-0.3,0.2-0.5,0.5-0.6l0.1-0.1l-4.1-9.1c-0.1-0.3-0.2-0.5-0.2-0.6c0-0.1,0.1-0.2,0.3-0.3l0.8-0.4
		c0.3-0.1,0.5-0.2,0.6-0.1c0.1,0,0.3,0.1,0.4,0.2l6.7,5.9l-2.5-5.5l-0.5,0.2c-0.4,0.2-0.6,0.2-0.9,0.1c-0.2-0.1-0.4-0.3-0.6-0.7
		c-0.2-0.4-0.2-0.7-0.2-1c0.1-0.2,0.3-0.4,0.6-0.6l2.3-1c0.4-0.2,0.6-0.2,0.9-0.1c0.2,0.1,0.4,0.4,0.6,0.8c0.2,0.4,0.2,0.7,0.1,0.9
		c-0.1,0.2-0.2,0.4-0.5,0.6l-0.1,0.1l3.4,7.5l0.1-0.1c0.3-0.1,0.5-0.1,0.8,0c0.2,0.1,0.4,0.4,0.6,0.7c0.2,0.4,0.2,0.7,0.1,1
		c-0.1,0.3-0.3,0.5-0.6,0.6l-1.3,0.6c-0.3,0.1-0.6,0.2-0.7,0.1C427.3,279.7,427.1,279.6,426.8,279.3"/>
	<path class="st0" d="M411.2,283l1.4-0.4l-2-8l-1.4,0.4c-0.4,0.1-0.7,0.1-0.9-0.1c-0.2-0.1-0.4-0.4-0.5-0.8c-0.1-0.4-0.1-0.7,0-1
		c0.1-0.2,0.4-0.4,0.8-0.5l5.1-1.3c0.4-0.1,0.7-0.1,0.9,0.1c0.2,0.1,0.4,0.4,0.5,0.8c0.1,0.4,0.1,0.7,0,0.9
		c-0.1,0.2-0.4,0.4-0.8,0.5l-1.4,0.4l2,8l1.4-0.4c0.4-0.1,0.7-0.1,0.9,0.1c0.2,0.1,0.4,0.4,0.5,0.8s0.1,0.7,0,1
		c-0.1,0.2-0.4,0.4-0.8,0.5l-5.1,1.3c-0.4,0.1-0.7,0.1-0.9-0.1c-0.2-0.1-0.4-0.4-0.5-0.8c-0.1-0.4-0.1-0.7,0-1
		C410.5,283.2,410.8,283.1,411.2,283"/>
	<path class="st0" d="M400.1,283.5c-0.5-0.7-0.8-1.8-0.9-3.1c-0.1-1.4,0-2.4,0.4-3.2c0.4-0.8,0.9-1.2,1.7-1.3c0.8-0.1,1.4,0.3,1.9,1
		c0.5,0.7,0.8,1.8,0.9,3.1c0.1,1.4,0,2.4-0.4,3.2c-0.4,0.8-0.9,1.2-1.7,1.3C401.2,284.5,400.6,284.2,400.1,283.5 M401.3,273.4
		c-0.1,0-0.2,0-0.3,0c-1.4,0.1-2.5,0.8-3.4,2.2c-0.8,1.4-1.2,3-1,5c0.2,2,0.7,3.6,1.8,4.8c1,1.2,2.3,1.7,3.7,1.6
		c1.5-0.1,2.6-0.8,3.4-2.2c0.8-1.3,1.2-3,1-5c-0.1-1.5-0.5-2.8-1.2-3.9c-0.7-1.1-1.5-1.9-2.5-2.2l0.8-1.2c0.3-0.4,0.4-0.7,0.5-0.9
		c0.1-0.2,0.1-0.5,0.1-0.7c0-0.3-0.1-0.5-0.3-0.7c-0.2-0.2-0.4-0.3-0.7-0.3c-0.1,0-0.4,0.2-0.9,0.5c-0.5,0.3-1,0.5-1.4,0.5
		c-0.3,0-0.7-0.1-1.4-0.2c-0.6-0.2-1.1-0.3-1.5-0.2c-0.6,0-1,0.2-1.4,0.6c-0.4,0.3-0.5,0.7-0.5,1.1c0,0.3,0.1,0.6,0.3,0.8
		c0.2,0.2,0.4,0.3,0.6,0.3c0.1,0,0.3-0.1,0.6-0.3c0.3-0.2,0.5-0.3,0.7-0.3c0.1,0,0.4,0.1,1,0.2c0.5,0.1,1,0.2,1.5,0.1
		c0.2,0,0.5-0.1,0.7-0.1c0.2-0.1,0.5-0.2,0.7-0.3l-0.6,0.9C401.5,273.4,401.4,273.4,401.3,273.4"/>
	<path class="st0" d="M391.4,284.3l0.1,0l0.5-5.7c0.1-1,0-1.8-0.2-2.2c-0.2-0.5-0.7-0.7-1.4-0.8c-0.7-0.1-1.2,0.1-1.5,0.5
		c-0.3,0.4-0.5,1.1-0.6,2.1l-0.5,5.7l0.1,0c0.3,0,0.5,0.1,0.7,0.4c0.1,0.2,0.2,0.5,0.2,0.9c0,0.4-0.1,0.7-0.3,0.9
		c-0.2,0.2-0.5,0.2-0.9,0.2l-2.2-0.2c-0.4,0-0.7-0.1-0.8-0.4c-0.1-0.2-0.2-0.5-0.2-1c0-0.4,0.1-0.7,0.3-0.9c0.2-0.2,0.4-0.3,0.7-0.2
		l0.1,0l0.5-5.7c0.2-1.8,0.6-3.2,1.3-3.9c0.7-0.8,1.8-1.1,3.2-1c1.5,0.1,2.5,0.6,3.1,1.5c0.6,0.9,0.8,2.2,0.6,4.1l-0.5,5.7l0.1,0
		c0.3,0,0.5,0.1,0.7,0.4s0.2,0.5,0.2,0.9c0,0.4-0.2,0.7-0.3,0.9c-0.2,0.2-0.5,0.2-0.9,0.2l-2.3-0.2c-0.4,0-0.7-0.2-0.8-0.4
		c-0.2-0.2-0.2-0.5-0.2-1c0-0.4,0.1-0.7,0.3-0.9C390.8,284.4,391.1,284.3,391.4,284.3"/>
	<path class="st0" d="M375.8,280.5l-0.3,1.1l4,1l0.7-2.7l-1.5-0.4l0,0.1c-0.1,0.4-0.3,0.7-0.4,0.9c-0.2,0.2-0.4,0.2-0.7,0.1
		c-0.3-0.1-0.4-0.2-0.6-0.4c-0.1-0.2-0.1-0.5-0.1-0.8c0,0,0-0.1,0-0.1c0-0.1,0-0.2,0-0.2l0.6-2.2c0.1-0.5,0.3-0.8,0.5-1
		c0.2-0.2,0.4-0.2,0.7-0.1c0.3,0.1,0.5,0.2,0.6,0.5c0.1,0.2,0.1,0.5,0,0.9l-0.1,0.2l1.5,0.4l0.8-3.2l-4-1l-0.3,1.3
		c-0.1,0.5-0.3,0.8-0.5,1c-0.2,0.2-0.5,0.2-0.8,0.1c-0.3-0.1-0.5-0.2-0.6-0.5c-0.1-0.2-0.1-0.6,0.1-1.1l0.7-2.6
		c0.1-0.4,0.2-0.6,0.4-0.7c0.2-0.1,0.4-0.1,0.8,0l7,1.8c0.4,0.1,0.6,0.3,0.7,0.5c0.1,0.2,0.1,0.6,0,1c-0.1,0.4-0.2,0.6-0.5,0.8
		c-0.2,0.2-0.5,0.2-0.7,0.1l-0.1,0l-2,8l0.1,0c0.3,0.1,0.5,0.2,0.6,0.5s0.1,0.6,0,0.9c-0.1,0.4-0.3,0.7-0.5,0.8
		c-0.2,0.1-0.5,0.2-0.9,0.1l-7-1.8c-0.3-0.1-0.6-0.2-0.7-0.4c-0.1-0.2-0.1-0.4,0-0.8l0.6-2.4c0.1-0.5,0.3-0.8,0.5-1
		c0.2-0.2,0.5-0.2,0.8-0.1c0.3,0.1,0.5,0.2,0.6,0.5C375.9,279.7,375.9,280.1,375.8,280.5"/>
	<path class="st0" d="M354.1,270.8l1.2,0.9l4.7-6.7l-1.2-0.9c-0.3-0.2-0.5-0.5-0.5-0.7c0-0.3,0.1-0.5,0.3-0.9
		c0.2-0.3,0.5-0.6,0.8-0.6c0.3-0.1,0.5,0,0.9,0.3l4.3,3c0.3,0.2,0.5,0.5,0.5,0.7c0,0.3-0.1,0.6-0.3,0.9c-0.2,0.4-0.5,0.5-0.7,0.6
		c-0.2,0.1-0.5,0-0.9-0.3l-1.2-0.9l-4.7,6.7l1.2,0.9c0.3,0.2,0.5,0.5,0.5,0.7c0,0.3-0.1,0.6-0.3,0.9c-0.2,0.4-0.5,0.6-0.7,0.6
		c-0.2,0.1-0.5,0-0.9-0.3l-4.3-3c-0.3-0.2-0.5-0.5-0.6-0.7c0-0.2,0.1-0.5,0.3-0.9c0.2-0.4,0.5-0.6,0.7-0.6
		C353.5,270.5,353.8,270.5,354.1,270.8"/>
	<path class="st0" d="M346.7,266.3l3.2-7.7l-4.4,4.2l0.3,0.4c0.3,0.3,0.4,0.5,0.4,0.8c0,0.3-0.2,0.5-0.5,0.8
		c-0.3,0.3-0.6,0.4-0.8,0.5c-0.3,0-0.5-0.1-0.8-0.4l-1.7-1.8c-0.3-0.3-0.4-0.5-0.4-0.8c0-0.3,0.2-0.5,0.5-0.8
		c0.3-0.3,0.6-0.4,0.8-0.4s0.5,0.1,0.7,0.3l0.1,0.1l7.2-6.9c0.3-0.2,0.4-0.4,0.5-0.4c0.1,0,0.2,0,0.4,0.2l0.6,0.6
		c0.2,0.2,0.3,0.4,0.3,0.5c0,0.1,0,0.3-0.1,0.5l-3.3,8.2l4.3-4.1l-0.3-0.4c-0.3-0.3-0.4-0.5-0.4-0.8c0-0.2,0.2-0.5,0.5-0.8
		c0.3-0.3,0.6-0.5,0.9-0.5c0.3,0,0.5,0.1,0.8,0.4l1.7,1.8c0.3,0.3,0.4,0.5,0.4,0.8c0,0.3-0.2,0.5-0.5,0.8c-0.3,0.3-0.6,0.4-0.8,0.4
		c-0.3,0-0.5-0.1-0.7-0.3l-0.1-0.1l-6,5.7l0.1,0.1c0.2,0.2,0.3,0.5,0.3,0.7c0,0.3-0.2,0.5-0.5,0.8c-0.3,0.3-0.6,0.4-0.9,0.5
		c-0.3,0-0.5-0.1-0.8-0.4l-1-1c-0.2-0.2-0.4-0.5-0.4-0.6C346.5,266.9,346.6,266.7,346.7,266.3"/>
	<path class="st0" d="M336.2,253.8c-0.3,0-0.5,0.1-0.7,0c-0.2,0-0.3-0.1-0.4-0.3c-0.2-0.2-0.2-0.5-0.1-0.7c0.1-0.2,0.3-0.4,0.7-0.7
		l2.4-1.6c0.4-0.3,0.7-0.4,1-0.4c0.2,0,0.4,0.2,0.6,0.5c0.1,0.2,0.2,0.4,0.1,0.6c0,0.2-0.2,0.4-0.5,0.7c-0.5,0.5-0.8,1-0.8,1.4
		c-0.1,0.5,0.1,0.9,0.4,1.4c0.5,0.8,1.2,1.1,2.1,1.1c0.9,0,2-0.4,3.2-1.2c1.2-0.8,2-1.6,2.4-2.5s0.3-1.6-0.2-2.4
		c-0.3-0.5-0.9-0.9-1.8-1.3c-0.8-0.3-1.3-0.6-1.4-0.7c-0.1-0.2-0.1-0.4,0-0.7c0.1-0.3,0.3-0.5,0.6-0.7c0.5-0.4,1.3-0.3,2.3,0.1
		c1,0.4,1.8,1.1,2.4,2.1c0.9,1.3,1,2.7,0.5,4.2c-0.5,1.5-1.6,2.8-3.3,4c-1.6,1.1-3.3,1.6-4.9,1.5c-1.6-0.1-2.9-0.7-3.7-2
		c-0.2-0.3-0.4-0.7-0.5-1.1C336.4,254.8,336.3,254.4,336.2,253.8"/>
	<path class="st0" d="M333.8,242.5c0.5-0.7,1.4-1.3,2.6-1.9c1.2-0.6,2.3-0.8,3.2-0.7c0.9,0.1,1.5,0.5,1.8,1.2
		c0.3,0.7,0.2,1.4-0.3,2.1c-0.5,0.7-1.4,1.3-2.7,1.9c-1.2,0.6-2.3,0.8-3.2,0.7c-0.9-0.1-1.5-0.5-1.8-1.2
		C333.2,244,333.3,243.3,333.8,242.5 M334.4,248.2c1.6,0.3,3.3,0.1,5.1-0.7c1.8-0.8,3.1-1.9,3.9-3.3c0.8-1.4,0.9-2.7,0.3-4.1
		c-0.6-1.3-1.7-2.2-3.2-2.5c-1.6-0.3-3.3-0.1-5.1,0.8c-1.8,0.8-3.1,1.9-3.9,3.3c-0.8,1.4-0.9,2.7-0.3,4.1
		C331.8,247,332.8,247.9,334.4,248.2"/>
	<path class="st0" d="M329.8,231.9c0.2-0.3,0.5-0.5,1.1-0.7c0.5-0.1,1-0.1,1.3,0.1c0.3,0.2,0.5,0.7,0.7,1.4l0.3,1.2l-3,0.8l-0.4-1.4
		C329.6,232.7,329.6,232.2,329.8,231.9 M332.1,228.8c-0.7-0.2-1.4-0.2-2.2,0c-1.2,0.3-1.9,0.8-2.4,1.6c-0.4,0.8-0.5,1.8-0.2,3l1,3.9
		c0.1,0.4,0.3,0.6,0.5,0.7c0.2,0.1,0.6,0.1,1,0c0.4-0.1,0.6-0.2,0.8-0.5c0.2-0.2,0.2-0.5,0.1-0.8l0-0.1l8-2l0,0.1
		c0.1,0.3,0.2,0.5,0.5,0.6c0.2,0.1,0.5,0.1,0.9,0c0.4-0.1,0.7-0.3,0.8-0.5c0.1-0.2,0.2-0.5,0.1-0.9l-0.6-2.2
		c-0.1-0.4-0.3-0.6-0.5-0.8c-0.2-0.1-0.6-0.1-1,0c-0.4,0.1-0.6,0.2-0.8,0.5c-0.2,0.2-0.2,0.5-0.1,0.8l0,0.1l-2.8,0.7l-0.2-0.8
		c0-0.1,0-0.2,0-0.4c0.1-0.1,0.2-0.2,0.3-0.4l3.5-3.1l0,0c0.4-0.3,0.5-0.7,0.4-1.1l-0.3-1.1c-0.1-0.4-0.3-0.6-0.5-0.8
		c-0.2-0.1-0.6-0.1-1,0c-0.4,0.1-0.7,0.3-0.8,0.5c-0.1,0.2-0.2,0.5-0.1,0.8l0,0.2l0,0.1l-2.4,2.1c0,0-0.1,0.1-0.1,0.1
		c-0.3,0.2-0.4,0.4-0.5,0.6C333.3,229.4,332.8,229,332.1,228.8"/>
	<path class="st0" d="M328.3,219.8c0.3-0.4,0.7-0.6,1.2-0.6c0.6,0,1,0.1,1.4,0.4c0.3,0.3,0.5,0.8,0.5,1.5l0.1,1.3l-3.5,0.2l-0.1-1.2
		C327.9,220.7,328,220.2,328.3,219.8 M332.6,217.5c-0.8-0.7-1.9-1-3.3-0.9c-1.3,0.1-2.3,0.5-3,1.3c-0.6,0.8-0.9,1.9-0.8,3.3l0.2,3.6
		c0,0.4,0.1,0.7,0.3,0.8c0.2,0.2,0.5,0.2,0.9,0.2c0.4,0,0.7-0.1,0.9-0.3c0.2-0.2,0.3-0.4,0.3-0.7l0-0.1l8.2-0.5l0,0.1
		c0,0.3,0.1,0.5,0.4,0.7c0.2,0.1,0.5,0.2,0.9,0.2c0.4,0,0.7-0.1,0.9-0.3c0.2-0.2,0.3-0.5,0.2-0.9l-0.2-3c0-0.4-0.1-0.6-0.3-0.8
		c-0.2-0.1-0.5-0.2-1-0.2c-0.4,0-0.7,0.1-0.9,0.3c-0.2,0.2-0.2,0.5-0.2,0.8l0.1,0.9l-2.3,0.1l-0.1-1.5
		C333.8,219.3,333.4,218.2,332.6,217.5"/>
	<path class="st0" d="M329.6,207.6c0.8-0.3,1.9-0.4,3.3-0.2c1.4,0.2,2.4,0.6,3.1,1.1c0.7,0.5,1,1.2,0.9,1.9
		c-0.1,0.7-0.6,1.3-1.4,1.6c-0.8,0.3-1.9,0.4-3.3,0.2c-1.3-0.2-2.4-0.6-3.1-1.1c-0.7-0.5-1-1.2-0.9-1.9
		C328.3,208.4,328.7,207.9,329.6,207.6 M327,212.7c1.1,1.1,2.7,1.8,4.7,2.1c2,0.3,3.7,0.1,5.1-0.7c1.4-0.7,2.2-1.8,2.4-3.3
		c0.2-1.4-0.3-2.7-1.4-3.8c-1.1-1.1-2.7-1.8-4.7-2.1c-2-0.3-3.7-0.1-5.1,0.7s-2.2,1.8-2.4,3.3C325.4,210.3,325.9,211.6,327,212.7"/>
	<path class="st0" d="M332.2,196.3c0.3-0.2,0.7-0.1,1.3,0c0.5,0.2,0.8,0.5,1,0.8c0.1,0.4,0.1,0.9-0.2,1.6l-0.4,1.1l-2.9-1.1l0.5-1.4
		C331.6,196.8,331.9,196.5,332.2,196.3 M335.9,195.1c-0.4-0.5-1-1-1.8-1.3c-1.1-0.4-2.1-0.4-2.9,0c-0.8,0.4-1.4,1.2-1.9,2.3
		l-1.4,3.8c-0.1,0.4-0.1,0.7,0,0.9c0.1,0.2,0.4,0.4,0.8,0.6c0.4,0.1,0.7,0.2,0.9,0.1c0.3-0.1,0.4-0.3,0.5-0.6l0.1-0.1l7.7,2.9
		l-0.1,0.1c-0.1,0.3-0.1,0.5,0,0.8c0.1,0.2,0.4,0.4,0.7,0.5c0.4,0.2,0.7,0.2,1,0.1c0.2-0.1,0.4-0.3,0.6-0.7l0.8-2.1
		c0.1-0.4,0.2-0.7,0-0.9c-0.1-0.2-0.4-0.4-0.8-0.6c-0.4-0.1-0.7-0.2-0.9-0.1c-0.2,0.1-0.4,0.3-0.5,0.6l-0.1,0.1l-2.7-1l0.3-0.8
		c0-0.1,0.1-0.2,0.2-0.3c0.1-0.1,0.3-0.1,0.4-0.1l4.7-0.6l0,0c0.5-0.1,0.8-0.3,0.9-0.6l0.4-1c0.1-0.4,0.2-0.7,0-0.9
		c-0.1-0.2-0.4-0.4-0.8-0.6c-0.4-0.1-0.7-0.2-0.9-0.1c-0.2,0.1-0.4,0.3-0.6,0.6l-0.1,0.2l0,0.1l-3.2,0.3c0,0-0.1,0-0.1,0
		c-0.3,0-0.6,0.1-0.8,0.2C336.5,196.3,336.3,195.7,335.9,195.1"/>
	<path class="st0" d="M338.9,185l-1-0.6l-2.1,3.5l2.4,1.5l0.8-1.3l-0.1-0.1c-0.4-0.2-0.6-0.4-0.7-0.7c-0.1-0.2-0.1-0.5,0.1-0.7
		c0.1-0.2,0.3-0.4,0.6-0.4c0.2,0,0.5,0,0.7,0.2c0,0,0.1,0,0.1,0.1s0.1,0.1,0.2,0.1l2,1.2c0.4,0.3,0.7,0.5,0.8,0.7
		c0.1,0.2,0.1,0.5-0.1,0.8c-0.2,0.3-0.4,0.4-0.6,0.4c-0.2,0-0.5-0.1-0.9-0.3l-0.2-0.1l-0.8,1.3l2.8,1.7l2.1-3.5l-1.1-0.7
		c-0.4-0.3-0.7-0.5-0.8-0.7c-0.1-0.2-0.1-0.5,0.1-0.8c0.2-0.3,0.4-0.4,0.6-0.5c0.3,0,0.6,0.1,1,0.4l2.3,1.4c0.3,0.2,0.5,0.4,0.6,0.6
		c0,0.2,0,0.4-0.2,0.7l-3.7,6.2c-0.2,0.3-0.4,0.5-0.7,0.6c-0.3,0-0.6,0-0.9-0.3c-0.3-0.2-0.5-0.4-0.6-0.7c-0.1-0.2-0.1-0.5,0.1-0.8
		l0.1-0.1l-7.1-4.2l-0.1,0.1c-0.1,0.3-0.4,0.4-0.6,0.4c-0.3,0-0.6-0.1-0.9-0.3c-0.4-0.2-0.6-0.5-0.7-0.7c-0.1-0.2,0-0.5,0.2-0.9
		l3.7-6.2c0.2-0.3,0.4-0.5,0.6-0.5c0.2,0,0.4,0.1,0.8,0.3l2.1,1.3c0.4,0.3,0.7,0.5,0.8,0.7c0.1,0.2,0.1,0.5-0.1,0.8
		c-0.2,0.3-0.4,0.4-0.7,0.5C339.7,185.4,339.3,185.3,338.9,185 M333.7,181l-0.6,5l-0.9-0.2l-0.5-5.2c0,0,0,0,0-0.1c0,0,0,0,0-0.1
		c0-0.1,0.1-0.1,0.2-0.1s0.2,0,0.3,0l1,0.2c0,0,0,0,0,0c0,0,0.1,0,0.1,0c0.1,0.1,0.2,0.1,0.2,0.2C333.7,180.8,333.7,180.9,333.7,181
		"/>
	<rect x="25" y="140.3" class="st2" width="450" height="219.4"/>
	<g>
		<path class="st0" d="M394.9,266.6c-14,0-27.1-5.1-36.1-14.1c-9.7-9.7-15.3-22.9-15.3-36.2c0-12.1,5.5-23.8,16.5-34.8
			c9.6-9.6,21.7-14.7,34.9-14.7c14.8,0,27.6,4.7,36.2,13.2c9.6,9.5,15.1,22.8,15.1,36.3c0,13.1-5.6,26.2-15.2,35.9
			C421.7,261.5,408.9,266.6,394.9,266.6z M394.9,167.8c-13,0-24.8,5-34.2,14.4c-10.7,10.8-16.2,22.2-16.2,34.1
			c0,13.1,5.5,26,15,35.5c8.8,8.8,21.7,13.8,35.4,13.8c13.7,0,26.2-5,35.3-14.1c9.5-9.5,14.9-22.3,14.9-35.2
			c0-13.3-5.4-26.2-14.8-35.6C422,172.4,409.4,167.8,394.9,167.8z"/>
	</g>
	<g>
		<path class="st0" d="M395,293.1c-21.7,0-41.3-7.7-55.2-21.5c-14.9-14.8-23.4-35-23.4-55.4c0-18.6,8.5-36.6,25.2-53.3
			c15.2-15.2,32.7-22.6,53.5-22.6c22.6,0,42.2,7.2,55.3,20.3c14.6,14.6,23,34.8,23,55.5c0,20-8.5,40-23.3,54.9
			C435.9,285.2,416.3,293.1,395,293.1z M395,143.3c-19.9,0-36.7,7.1-51.3,21.7c-16.1,16.1-24.3,33.3-24.3,51.1
			c0,19.6,8.2,39,22.5,53.3c13.2,13.1,32.5,20.7,53.1,20.7c20.5,0,39.3-7.5,52.9-21.2c14.3-14.3,22.4-33.5,22.4-52.7
			c0-19.9-8.1-39.4-22.1-53.4C435.6,150.2,416.7,143.3,395,143.3z"/>
	</g>
	<rect x="25" y="140.3" class="st2" width="448.4" height="219.4"/>
	<g>
		<path class="st0" d="M372.9,222.9c2.1-2.9,3.1-6.5,3.1-10.9c0-4.4-1.1-8-3.1-10.9c-2.2-2.9-5-4.4-8.4-4.4c-3.4,0-6.3,1.5-8.4,4.4
			c-2.1,2.8-3.1,6.5-3.1,10.9c0,3.3,0.7,6.3,2,8.9c1.1,2.2,2.6,3.8,4.3,4.9l-1.1,1.4c-0.6,0.8-1.1,1.5-1.4,2.1
			c-0.3,0.6-0.5,1.2-0.5,1.8c0,0.9,0.3,1.6,0.8,2.2c0.6,0.7,1.3,1,2.1,1c0.4,0,1-0.2,2.5-1c0.9-0.5,1.8-0.8,2.5-0.8
			c0.3,0,0.9,0.1,2.5,0.7c1.4,0.5,2.6,0.8,3.6,0.8c1.4,0,2.7-0.4,3.7-1.1c1.4-1,1.7-2.2,1.7-3.1c0-0.9-0.2-1.6-0.6-2.2
			c-0.6-0.9-1.4-1.1-2-1.1c-0.3,0-0.7,0.1-1.8,0.6c-0.7,0.3-1,0.4-1.1,0.4c-0.1,0-0.4-0.1-1.7-0.5c-0.2-0.1-0.4-0.1-0.6-0.2
			C369.8,226.1,371.5,224.8,372.9,222.9z M367.4,218.4c-0.7,1.3-1.7,1.9-2.9,1.9c-1.2,0-2.1-0.6-2.9-1.9c-0.8-1.5-1.2-3.5-1.2-6.2
			s0.4-4.7,1.2-6.2c0.7-1.3,1.7-1.9,2.9-1.9c1.3,0,2.2,0.6,2.9,1.9c0.8,1.4,1.2,3.5,1.2,6.2C368.7,214.8,368.3,216.9,367.4,218.4z"
			/>
		<path class="st0" d="M421.7,218.5c-0.7-1-1.5-1.2-2.1-1.2c-0.4,0-1.1,0.1-3.6,1.8c-3.4,2.3-5.9,1.7-7.3-0.5
			c-0.9-1.4-1.4-3.6-1.4-6.4c0-2.8,0.5-5,1.4-6.4c0.8-1.3,2-1.9,3.6-1.9c1,0,1.8,0.2,2.3,0.7c0.5,0.5,1,1.4,1.2,2.6
			c0.2,1,0.5,1.7,1,2.2c0.3,0.4,0.9,0.8,2,0.8c1.1,0,1.9-0.3,2.3-1c0.4-0.6,0.6-1.4,0.6-2.8l0-6c0-1.2-0.2-2-0.5-2.6
			c-0.3-0.5-0.9-1.1-2.2-1.1c-0.6,0-1.2,0.2-1.7,0.6c-0.2,0.2-0.3,0.4-0.5,0.6c-0.7-0.3-1.4-0.6-2.1-0.8c-0.9-0.3-1.9-0.4-2.9-0.4
			c-3.5,0-6.3,1.5-8.6,4.5c-2.2,2.9-3.3,6.6-3.3,10.9c0,4.5,1.1,8.2,3.2,11.1c2.2,2.9,5.1,4.4,8.7,4.4c2.6,0,5-0.7,7-2
			c2.2-1.4,3.4-3,3.4-4.7C422.4,220,422.1,219.2,421.7,218.5z"/>
	</g>
	<g>
		<path class="st0" d="M387.9,216.5c-1.4,0-2.6,0.5-3.6,1.6c-0.9,1-1.3,2.3-1.3,3.8c0,1.5,0.4,2.8,1.3,3.8c0.9,1,2.1,1.6,3.6,1.6
			c1.5,0,2.7-0.5,3.6-1.6c0.9-1,1.3-2.3,1.3-3.8c0-1.5-0.4-2.8-1.3-3.8C390.6,217,389.4,216.5,387.9,216.5z"/>
		<path class="st0" d="M438.3,218c-0.9-1-2.1-1.5-3.6-1.5c-1.4,0-2.6,0.5-3.6,1.6c-0.9,1-1.3,2.3-1.3,3.8c0,1.5,0.4,2.8,1.3,3.8
			c0.9,1,2.1,1.5,3.6,1.5c1.5,0,2.7-0.5,3.6-1.6c0.9-1,1.3-2.3,1.3-3.8C439.6,220.3,439.2,219,438.3,218z"/>
	</g>
	<rect x="25" y="140.3" class="st2" width="450" height="219.4"/>
</g>
</svg>
