<?xml version="1.0" encoding="utf-8"?>
<!-- Generator: Adobe Illustrator 16.0.0, SVG Export Plug-In . SVG Version: 6.00 Build 0)  -->
<!DOCTYPE svg PUBLIC "-//W3C//DTD SVG 1.1//EN" "http://www.w3.org/Graphics/SVG/1.1/DTD/svg11.dtd">
<svg version="1.1" id="Calque_2" xmlns="http://www.w3.org/2000/svg" xmlns:xlink="http://www.w3.org/1999/xlink" x="0px" y="0px"
	 width="500px" height="500px" viewBox="0 0 500 500" enable-background="new 0 0 500 500" xml:space="preserve">
<g>
	<path fill="#E3291B" d="M366.327,158.572c0.462,0.086,0.825,0.366,1.096,0.847c0.284,0.521,0.347,0.986,0.182,1.411
		c-0.161,0.432-0.545,0.812-1.154,1.151l-1.093,0.609l-1.699-3.042l1.1-0.61C365.344,158.61,365.864,158.486,366.327,158.572
		 M370.205,161.48c0.288-0.993,0.089-2.11-0.606-3.351c-0.654-1.175-1.47-1.884-2.453-2.131c-0.983-0.239-2.101-0.014-3.361,0.688
		l-3.186,1.771c-0.329,0.186-0.524,0.408-0.583,0.658c-0.051,0.26,0.027,0.568,0.233,0.942c0.188,0.339,0.407,0.562,0.647,0.668
		c0.243,0.103,0.5,0.082,0.764-0.062l0.131-0.076l4.005,7.188l-0.131,0.075c-0.271,0.15-0.421,0.35-0.462,0.603
		c-0.041,0.254,0.034,0.556,0.223,0.891c0.212,0.384,0.435,0.613,0.675,0.699c0.243,0.082,0.531,0.034,0.87-0.157l2.666-1.487
		c0.328-0.182,0.521-0.397,0.571-0.644c0.049-0.247-0.03-0.563-0.243-0.939c-0.205-0.373-0.425-0.603-0.657-0.685
		c-0.229-0.083-0.515-0.027-0.847,0.157l-0.791,0.445l-1.104-1.974l1.309-0.732C369.14,163.324,369.917,162.474,370.205,161.48"/>
	<path fill="#E3291B" d="M377.098,153.984c0.333,0.147,0.583,0.487,0.758,1.011c0.175,0.531,0.161,0.956-0.045,1.271
		c-0.202,0.322-0.654,0.596-1.354,0.829l-1.134,0.373l-0.977-2.963l1.405-0.466C376.313,153.854,376.763,153.833,377.098,153.984
		 M380.298,156.081c0.151-0.685,0.096-1.418-0.164-2.199c-0.374-1.124-0.956-1.877-1.758-2.251
		c-0.798-0.373-1.792-0.366-2.974,0.024l-3.868,1.281c-0.366,0.116-0.603,0.302-0.702,0.541c-0.103,0.24-0.089,0.563,0.045,0.967
		c0.123,0.369,0.294,0.63,0.517,0.773c0.223,0.151,0.479,0.172,0.771,0.079l0.14-0.052l2.584,7.818l-0.141,0.048
		c-0.298,0.097-0.49,0.268-0.583,0.511c-0.089,0.243-0.071,0.548,0.052,0.922c0.137,0.407,0.315,0.678,0.538,0.805
		c0.219,0.127,0.521,0.127,0.895,0.007l2.158-0.716c0.384-0.123,0.623-0.305,0.719-0.534c0.1-0.24,0.083-0.563-0.055-0.974
		c-0.123-0.369-0.291-0.623-0.51-0.767c-0.216-0.145-0.477-0.165-0.778-0.063l-0.134,0.042l-0.914-2.762l0.788-0.261
		c0.112-0.034,0.232-0.034,0.359,0.014s0.254,0.138,0.38,0.261l3.361,3.271l0.034,0.014c0.346,0.34,0.713,0.449,1.09,0.322
		l1.031-0.339c0.38-0.127,0.623-0.305,0.726-0.545c0.106-0.236,0.093-0.559-0.044-0.97c-0.127-0.377-0.302-0.634-0.531-0.768
		c-0.227-0.137-0.5-0.144-0.825-0.041l-0.168,0.055l-0.09,0.034l-2.261-2.254c-0.027-0.021-0.059-0.048-0.093-0.082
		c-0.236-0.247-0.445-0.404-0.63-0.466C379.805,157.345,380.147,156.763,380.298,156.081"/>
	<path fill="#E3291B" d="M389.329,152.1c0.527,0.702,0.884,1.73,1.063,3.076c0.178,1.357,0.099,2.443-0.23,3.262
		c-0.328,0.819-0.87,1.281-1.623,1.377c-0.744,0.097-1.385-0.205-1.919-0.911c-0.534-0.709-0.888-1.736-1.065-3.09
		c-0.182-1.343-0.106-2.426,0.223-3.241c0.325-0.815,0.866-1.274,1.62-1.374C388.154,151.099,388.798,151.401,389.329,152.1
		 M383.759,151.051c-0.754,1.405-1.001,3.101-0.737,5.102c0.264,1.983,0.946,3.553,2.049,4.718c1.104,1.161,2.374,1.651,3.8,1.46
		c1.445-0.188,2.545-0.987,3.299-2.382s1.001-3.101,0.73-5.104c-0.265-1.99-0.942-3.566-2.039-4.725
		c-1.1-1.165-2.364-1.645-3.8-1.459C385.615,148.856,384.512,149.647,383.759,151.051"/>
	<path fill="#E3291B" d="M402.458,153.245l0.027-2.237l-1.844-0.065l-0.298,8.223l1.48,0.055c0.394,0.014,0.671,0.116,0.836,0.315
		c0.164,0.198,0.239,0.511,0.223,0.936c-0.018,0.435-0.113,0.743-0.292,0.928c-0.178,0.186-0.466,0.271-0.856,0.254l-5.234-0.192
		c-0.391-0.014-0.668-0.116-0.829-0.314c-0.165-0.195-0.236-0.511-0.223-0.946c0.014-0.432,0.109-0.739,0.287-0.925
		c0.172-0.178,0.456-0.26,0.847-0.246l1.483,0.055l0.302-8.227l-1.844-0.071l-0.137,2.24l-0.007,0.277
		c-0.014,0.354-0.103,0.624-0.264,0.819c-0.165,0.191-0.381,0.28-0.661,0.273c-0.329-0.014-0.565-0.13-0.717-0.342
		c-0.146-0.213-0.216-0.549-0.198-1.008l0.004-0.089l0.219-3.292c0.041-0.655,0.127-1.042,0.257-1.169
		c0.134-0.13,0.391-0.185,0.781-0.171l7.582,0.273c0.391,0.018,0.644,0.09,0.764,0.227c0.123,0.137,0.182,0.534,0.182,1.192
		l-0.031,3.296v0.089c-0.021,0.459-0.105,0.795-0.26,0.993c-0.154,0.199-0.395,0.295-0.723,0.288
		c-0.319-0.017-0.542-0.123-0.675-0.332C402.513,154.142,402.451,153.775,402.458,153.245"/>
	<path fill="#E3291B" d="M413.517,153.663l0.209-1.142l-4.036-0.736l-0.507,2.778l1.528,0.281l0.024-0.134
		c0.075-0.411,0.205-0.706,0.387-0.88c0.182-0.175,0.418-0.237,0.713-0.188c0.264,0.051,0.455,0.185,0.589,0.397
		c0.13,0.212,0.171,0.466,0.12,0.746c-0.004,0.014-0.007,0.062-0.018,0.145c-0.01,0.078-0.023,0.157-0.037,0.236l-0.404,2.251
		c-0.093,0.479-0.227,0.815-0.401,1c-0.178,0.186-0.421,0.247-0.732,0.192c-0.299-0.056-0.504-0.192-0.613-0.418
		c-0.12-0.223-0.141-0.524-0.072-0.905l0.037-0.198l-1.527-0.274l-0.593,3.241l4.036,0.733l0.236-1.288
		c0.089-0.486,0.226-0.819,0.411-1.001c0.185-0.185,0.445-0.246,0.781-0.185c0.335,0.062,0.548,0.205,0.654,0.438
		c0.099,0.232,0.105,0.596,0.021,1.086l-0.48,2.628c-0.071,0.391-0.178,0.637-0.325,0.747c-0.147,0.109-0.397,0.13-0.757,0.062
		l-7.109-1.295c-0.38-0.068-0.637-0.213-0.768-0.432c-0.133-0.216-0.157-0.542-0.078-0.967c0.068-0.384,0.198-0.657,0.391-0.829
		c0.195-0.171,0.438-0.229,0.743-0.175l0.144,0.024l1.48-8.093l-0.147-0.027c-0.295-0.055-0.507-0.198-0.627-0.432
		c-0.123-0.239-0.147-0.548-0.079-0.932c0.075-0.418,0.216-0.706,0.422-0.87c0.202-0.157,0.49-0.205,0.866-0.137l7.113,1.295
		c0.353,0.064,0.578,0.178,0.678,0.329c0.103,0.16,0.116,0.438,0.041,0.836l-0.441,2.429c-0.09,0.49-0.227,0.832-0.415,1.018
		c-0.182,0.191-0.435,0.254-0.761,0.191c-0.332-0.058-0.555-0.212-0.661-0.455C413.441,154.512,413.431,154.145,413.517,153.663"/>
	<path fill="#E3291B" d="M426.039,154.251c0.198-0.212,0.373-0.343,0.527-0.407c0.154-0.059,0.318-0.059,0.5,0.003
		c0.271,0.1,0.429,0.261,0.477,0.479c0.048,0.223-0.007,0.549-0.161,0.983l-0.963,2.703c-0.175,0.479-0.35,0.777-0.531,0.901
		c-0.188,0.12-0.441,0.12-0.767,0.003c-0.233-0.082-0.388-0.219-0.463-0.4c-0.072-0.186-0.086-0.479-0.041-0.884
		c0.096-0.71,0.034-1.265-0.175-1.669c-0.216-0.397-0.6-0.698-1.158-0.904c-0.85-0.309-1.634-0.178-2.347,0.373
		c-0.713,0.556-1.319,1.512-1.813,2.875c-0.489,1.356-0.637,2.48-0.438,3.374c0.199,0.892,0.716,1.491,1.569,1.799
		c0.582,0.213,1.313,0.199,2.186-0.03c0.874-0.229,1.408-0.313,1.59-0.25c0.213,0.082,0.353,0.26,0.418,0.541
		c0.062,0.281,0.034,0.593-0.089,0.932c-0.22,0.61-0.856,1.028-1.908,1.258s-2.114,0.147-3.189-0.236
		c-1.449-0.528-2.402-1.549-2.868-3.07c-0.466-1.521-0.35-3.248,0.35-5.177c0.675-1.86,1.686-3.244,3.039-4.142
		c1.35-0.904,2.724-1.104,4.118-0.604c0.394,0.145,0.761,0.343,1.1,0.59C425.347,153.539,425.689,153.861,426.039,154.251"/>
	<path fill="#E3291B" d="M435.101,163.875l1.104-1.949l-1.583-0.949l-4.231,7.061l1.274,0.761c0.34,0.206,0.531,0.432,0.579,0.686
		c0.048,0.25-0.037,0.559-0.26,0.925c-0.216,0.37-0.452,0.596-0.699,0.672c-0.24,0.075-0.534,0.014-0.874-0.188l-4.494-2.696
		c-0.336-0.199-0.528-0.425-0.572-0.675c-0.052-0.251,0.041-0.563,0.264-0.936c0.223-0.374,0.452-0.597,0.691-0.672
		c0.24-0.075,0.531-0.014,0.867,0.192l1.271,0.76l4.23-7.058l-1.582-0.945l-1.196,1.892l-0.141,0.236
		c-0.182,0.305-0.394,0.496-0.627,0.589c-0.236,0.093-0.476,0.065-0.709-0.078c-0.281-0.165-0.438-0.384-0.463-0.638
		c-0.027-0.268,0.076-0.589,0.313-0.979l0.044-0.079l1.778-2.778c0.356-0.549,0.617-0.85,0.792-0.901
		c0.178-0.052,0.435,0.027,0.764,0.229l6.51,3.899c0.335,0.198,0.523,0.383,0.564,0.564s-0.099,0.556-0.418,1.128l-1.617,2.878
		l-0.044,0.075c-0.24,0.397-0.473,0.644-0.706,0.747c-0.229,0.103-0.486,0.068-0.771-0.104c-0.274-0.164-0.418-0.366-0.432-0.613
		C434.714,164.687,434.837,164.334,435.101,163.875"/>
	<path fill="#E3291B" d="M445.27,169.539l-1.079-1.015l-5.64,5.992l1.083,1.018c0.291,0.274,0.435,0.538,0.432,0.795
		c0,0.254-0.145,0.535-0.432,0.843c-0.295,0.309-0.569,0.473-0.833,0.493c-0.264,0.024-0.538-0.103-0.825-0.369l-3.82-3.591
		c-0.291-0.274-0.436-0.541-0.429-0.802c0.004-0.254,0.154-0.541,0.456-0.856c0.288-0.315,0.559-0.477,0.812-0.493
		c0.251-0.018,0.524,0.109,0.819,0.391l1.079,1.014l5.64-5.995l-1.083-1.015c-0.291-0.273-0.436-0.538-0.432-0.798
		c0.007-0.257,0.154-0.545,0.449-0.854c0.294-0.315,0.568-0.482,0.818-0.5c0.254-0.021,0.524,0.116,0.822,0.391l3.816,3.591
		c0.305,0.287,0.456,0.555,0.449,0.802c-0.007,0.246-0.158,0.527-0.456,0.843c-0.288,0.314-0.565,0.479-0.822,0.5
		C445.842,169.946,445.563,169.816,445.27,169.539"/>
	<path fill="#E3291B" d="M451.617,178.754c-0.359,0.802-1.093,1.6-2.188,2.405c-1.104,0.805-2.097,1.261-2.974,1.363
		c-0.878,0.103-1.542-0.157-1.991-0.768c-0.445-0.609-0.479-1.315-0.113-2.124c0.367-0.809,1.101-1.61,2.196-2.412
		c1.1-0.805,2.087-1.261,2.96-1.359c0.87-0.1,1.528,0.153,1.978,0.764C451.939,177.247,451.98,177.953,451.617,178.754
		 M449.87,173.362c-1.593,0.011-3.196,0.606-4.827,1.795c-1.613,1.179-2.669,2.536-3.158,4.061c-0.497,1.524-0.315,2.867,0.53,4.032
		c0.86,1.179,2.09,1.768,3.677,1.754c1.586-0.007,3.196-0.609,4.83-1.802c1.624-1.186,2.676-2.535,3.169-4.057
		c0.497-1.518,0.315-2.86-0.537-4.029C452.693,173.937,451.464,173.352,449.87,173.362"/>
	<path fill="#E3291B" d="M345.993,175.76l-0.891-0.74l-2.617,3.166l2.175,1.799l0.99-1.196l-0.099-0.082
		c-0.326-0.268-0.518-0.527-0.586-0.771c-0.063-0.243,0-0.483,0.195-0.717c0.167-0.202,0.376-0.308,0.627-0.318
		c0.253-0.01,0.486,0.079,0.709,0.261c0.014,0.01,0.051,0.037,0.116,0.085c0.065,0.049,0.13,0.097,0.192,0.145l1.761,1.459
		c0.377,0.315,0.606,0.597,0.678,0.836c0.076,0.247,0.014,0.494-0.191,0.737c-0.192,0.229-0.415,0.339-0.661,0.332
		c-0.25-0.007-0.527-0.137-0.826-0.384l-0.154-0.127l-0.989,1.196l2.542,2.104l2.617-3.163l-1.011-0.836
		c-0.384-0.314-0.609-0.599-0.675-0.846c-0.068-0.254,0.003-0.511,0.22-0.774c0.216-0.261,0.452-0.377,0.702-0.356
		c0.257,0.024,0.572,0.195,0.959,0.514l2.056,1.703c0.309,0.25,0.47,0.47,0.493,0.647c0.024,0.179-0.079,0.411-0.312,0.692
		l-4.608,5.567c-0.25,0.298-0.5,0.452-0.75,0.459c-0.257,0.01-0.552-0.127-0.888-0.401c-0.298-0.253-0.476-0.5-0.53-0.753
		c-0.056-0.247,0.017-0.494,0.209-0.727l0.096-0.117l-6.335-5.248l-0.1,0.116c-0.188,0.229-0.418,0.343-0.685,0.329
		c-0.264-0.007-0.549-0.137-0.847-0.384c-0.329-0.271-0.514-0.534-0.552-0.788c-0.044-0.257,0.059-0.531,0.302-0.825l4.604-5.567
		c0.233-0.277,0.438-0.422,0.624-0.432c0.188-0.011,0.435,0.109,0.75,0.37l1.901,1.575c0.384,0.315,0.613,0.604,0.686,0.854
		c0.075,0.254,0.003,0.504-0.206,0.757c-0.216,0.264-0.455,0.384-0.723,0.356C346.695,176.247,346.373,176.076,345.993,175.76"/>
	<rect x="29.048" y="216.489" fill="#043982" width="323.924" height="139.186"/>
	<g>
		<path d="M357.021,359.724H25V212.439h332.021V359.724z M33.096,351.625h315.827V220.535H33.096V351.625z"/>
	</g>
	<rect x="25.005" y="140.28" fill="none" width="448.368" height="219.39"/>
	<path fill="#FFFFFF" d="M189.899,258.157c0-3.766-0.846-4.735-3.885-5.349c-4.498-0.846-5.591-0.479-5.591-2.063
		c0-0.97,0.856-1.336,2.192-1.336c2.792,0,5.345,0.479,14.211,0.479c4.125,0,9.473-0.479,12.146-0.479
		c1.336,0,1.946,0.127,1.946,1.093c0,1.826-0.974,1.46-6.318,2.306c-1.582,0.243-2.792,1.826-2.792,4.622v60.25
		c0,3.885,0.479,4.002,5.708,5.338c2.792,0.732,3.765,0.479,3.765,1.945c0,0.727-0.362,1.453-2.309,1.453
		c-2.063,0-5.222-0.479-12.509-0.479c-10.083,0-12.148,0.479-14.341,0.479c-1.21,0-1.699-0.479-1.699-1.569
		c0-1.097,1.22-1.583,3.282-1.829c5.221-0.61,6.193-1.699,6.193-6.801V258.157z"/>
	<path fill="#FFFFFF" d="M229.505,295.569c-1.093,0-1.336-0.124-1.336-0.363c0-0.363,0.479-1.336,3.038-10.813
		c4.006-14.335,4.006-15.064,4.615-15.064c0.479,0,0.479,0.49,2.31,6.801c4.607,16.04,5.334,18.223,5.334,19.076
		c0,0.363-0.232,0.363-1.089,0.363H229.505z M243.353,298.967c1.58,0,1.58,0.973,4.009,9.84c2.429,8.746,3.035,10.325,3.035,11.418
		c0,0.974-0.479,2.43-2.063,2.793c-4.132,0.973-5.348,0.853-5.348,1.945c0,0.85,0.247,1.453,1.576,1.453
		c1.343,0,5.708-0.479,12.271-0.479c4.492,0,8.381,0.479,10.319,0.479c2.189,0,2.556-0.479,2.556-1.336
		c0-1.453-1.456-1.09-4.255-2.063c-2.429-0.843-3.155-5.338-9.227-25.021c-14.944-48.591-13.975-50.044-16.52-50.044
		c-2.183,0-1.337,0.483-12.033,35.706c-9.829,32.44-11.045,38.148-13.837,39.358c-2.557,1.089-4.139,0.373-4.139,2.192
		c0,0.853,0.366,1.206,1.22,1.206c1.209,0,3.274-0.479,9.109-0.479c2.919,0,7.646,0.479,8.747,0.479
		c1.818,0,2.182-0.843,2.182-1.569c0-1.583-3.398-1.089-5.707-1.829c-2.673-0.843-3.646-2.063-3.646-3.639
		c0-0.85,0.606-2.433,3.046-12.635c1.695-7.051,1.695-7.777,3.519-7.777H243.353z"/>
	<path fill="#FFFFFF" d="M273.838,258.4c-2.063-3.889-2.31-5.108-4.738-5.592c-2.183-0.483-3.282-0.483-3.282-1.826
		c0-0.963,0.609-1.575,1.819-1.575c2.189,0,5.108,0.482,10.572,0.482c8.137,0,10.576-0.482,12.393-0.482
		c0.973,0,1.699,0.482,1.699,1.219c0,1.22-0.486,1.823-4.252,2.183c-1.336,0.127-2.549,0.856-2.549,2.192
		c0,1.696,0.973,3.272,10.449,22.229c8.5-17.254,10.329-19.439,10.329-21.502c0-1.942-1.829-2.919-5.111-2.919
		c-1.093,0-2.426-0.359-2.426-1.572c0-1.583,1.333-1.829,2.556-1.829c1.206,0,3.999,0.482,9.71,0.482
		c3.892,0,5.954-0.482,7.771-0.482c1.832,0,2.432,0.482,2.432,1.575c0,0.98-0.239,1.706-1.822,1.826
		c-5.218,0.366-7.527,2.437-9.597,6.444l-11.785,22.468l9.843,20.042c9.35,19.076,9.724,19.92,12.516,21.256
		c1.699,0.853,2.669,1.089,2.669,1.945c0,0.85-0.24,1.453-1.942,1.453c-2.193,0-6.191-0.479-9.23-0.479
		c-9.236,0-11.302,0.479-12.392,0.479c-1.463,0-1.946-0.479-1.946-1.336c0-1.453,1.826-1.453,3.646-2.063
		c1.946-0.61,3.155-1.453,3.155-2.793c0-1.216-1.576-4.012-8.863-19.429c-2.795-6.085-3.401-6.927-3.645-6.927
		c-0.613,0-1.094,1.575-5.948,10.565c-4.981,9.236-6.074,12.265-6.074,14.211c0,2.192,1.34,3.646,4.858,4.372
		c2.306,0.479,3.278,0.74,3.278,1.829c0,1.216-0.726,1.569-1.583,1.569c-1.815,0-3.881-0.479-9.836-0.479
		c-6.317,0-8.5,0.479-9.836,0.479c-2.063,0-2.436-0.354-2.436-1.569c0-1.583,0.853-1.583,3.162-2.069
		c4.008-0.97,4.248-1.336,8.383-8.627l13.969-24.656L273.838,258.4z"/>
	<path fill="#FFDC06" d="M100.323,208.37c1.836-9.734,7.476-12.697,15.52-12.697c23.263,0,33.482,26.654,26.151,65.595
		c-6.212,33.003-24.264,59.229-46.053,59.229c-11.005,0-15.808-4.861-13.533-16.932L100.323,208.37z M61.355,305.278
		c-2.151,11.416-5.156,15.013-11.957,15.219c-6.431,0.425-7.571,0.839-8.01,3.179c-0.277,1.48,0.322,2.744,1.604,2.744
		c4.437,0,10.518-0.839,27.665-0.839c8.03,0,16.126,0.839,25.229,0.839c40.193,0,63.864-38.073,69.479-67.907
		c8.003-42.523-11.604-68.764-50.955-68.764c-16.929,0-48.608,4.228-49.448,8.678c-0.394,2.107-0.086,2.741,2.669,2.741
		c1.679,0,4.084-0.411,6.619-0.411c5.304,0,6.54,1.265,5.465,6.969L61.355,305.278z"/>
	<path fill="#E3291B" d="M458.306,185.106l-5.379,6.4l5.45-2.689l-0.212-0.436c-0.175-0.35-0.213-0.637-0.113-0.873
		c0.093-0.236,0.336-0.445,0.72-0.634c0.38-0.192,0.698-0.254,0.945-0.186c0.25,0.062,0.456,0.268,0.634,0.617l1.104,2.247
		c0.171,0.343,0.209,0.638,0.109,0.874c-0.103,0.236-0.339,0.455-0.727,0.641c-0.35,0.171-0.654,0.232-0.911,0.178
		c-0.261-0.048-0.456-0.212-0.589-0.479l-0.069-0.137l-8.982,4.43c-0.309,0.154-0.518,0.223-0.624,0.209
		c-0.103-0.014-0.202-0.109-0.294-0.298l-0.391-0.788c-0.124-0.257-0.175-0.449-0.161-0.586c0.014-0.134,0.085-0.281,0.212-0.436
		l5.615-6.858l-5.375,2.648l0.226,0.459c0.165,0.343,0.206,0.63,0.113,0.856c-0.089,0.232-0.329,0.438-0.713,0.63
		c-0.384,0.192-0.705,0.254-0.948,0.186c-0.247-0.065-0.452-0.264-0.62-0.604l-1.117-2.271c-0.168-0.346-0.209-0.634-0.109-0.873
		c0.092-0.233,0.335-0.449,0.723-0.645c0.35-0.171,0.654-0.229,0.904-0.178c0.25,0.055,0.445,0.223,0.586,0.5l0.062,0.13l7.38-3.646
		l-0.062-0.123c-0.131-0.271-0.141-0.521-0.024-0.768c0.109-0.236,0.347-0.445,0.695-0.616c0.384-0.188,0.699-0.247,0.949-0.179
		c0.25,0.069,0.463,0.274,0.631,0.61l0.641,1.302c0.15,0.309,0.205,0.545,0.157,0.706S458.545,184.812,458.306,185.106"/>
	<path fill="#E3291B" d="M463.41,212.446l1.151-0.13l-0.452-4.077l-2.813,0.309l0.175,1.545l0.134-0.014
		c0.411-0.044,0.736-0.007,0.956,0.117c0.219,0.119,0.346,0.332,0.38,0.63c0.031,0.264-0.041,0.49-0.209,0.679
		c-0.168,0.185-0.391,0.298-0.678,0.328c-0.018,0-0.065,0.007-0.141,0.024c-0.082,0.014-0.161,0.027-0.243,0.034l-2.271,0.254
		c-0.486,0.055-0.843,0.027-1.076-0.096c-0.223-0.113-0.356-0.329-0.391-0.645c-0.034-0.302,0.041-0.534,0.22-0.713
		c0.182-0.171,0.466-0.281,0.853-0.322l0.199-0.023l-0.175-1.545l-3.275,0.366l0.452,4.08l1.306-0.15
		c0.489-0.048,0.85-0.014,1.079,0.109c0.226,0.131,0.359,0.36,0.4,0.699c0.034,0.329-0.044,0.582-0.236,0.747
		c-0.191,0.164-0.538,0.28-1.034,0.336l-2.652,0.294c-0.397,0.045-0.664,0.014-0.812-0.096c-0.145-0.109-0.236-0.343-0.277-0.709
		l-0.799-7.181c-0.044-0.388,0.021-0.676,0.188-0.86c0.175-0.188,0.473-0.305,0.904-0.356c0.391-0.041,0.689,0.007,0.912,0.137
		c0.219,0.138,0.342,0.356,0.376,0.662l0.018,0.153l8.178-0.914l-0.014-0.151c-0.034-0.294,0.041-0.537,0.236-0.723
		c0.188-0.182,0.477-0.295,0.867-0.336c0.425-0.048,0.74,0,0.952,0.145c0.216,0.15,0.343,0.418,0.384,0.795l0.798,7.188
		c0.045,0.35,0,0.603-0.119,0.74c-0.12,0.144-0.384,0.236-0.788,0.28l-2.457,0.274c-0.496,0.055-0.859,0.021-1.093-0.103
		c-0.232-0.124-0.363-0.347-0.4-0.672c-0.034-0.343,0.044-0.596,0.246-0.768C462.57,212.611,462.92,212.501,463.41,212.446"/>
	<path fill="#E3291B" d="M464.407,221.977l0.058-0.76l-8.201-0.631l-0.313,4.002l1.96,0.15c0.504,0.041,0.86,0.137,1.059,0.302
		c0.202,0.161,0.288,0.404,0.264,0.743c-0.023,0.332-0.15,0.565-0.38,0.702c-0.227,0.138-0.593,0.186-1.09,0.145l-3.378-0.257
		c-0.397-0.031-0.657-0.113-0.777-0.251c-0.12-0.13-0.172-0.384-0.138-0.75l0.613-7.979c0.031-0.384,0.151-0.65,0.35-0.798
		c0.209-0.15,0.524-0.209,0.956-0.175c0.425,0.031,0.723,0.137,0.895,0.312c0.171,0.175,0.239,0.456,0.209,0.847l-0.059,0.771
		l8.205,0.634l0.059-0.771c0.031-0.381,0.147-0.647,0.35-0.799c0.205-0.15,0.514-0.209,0.942-0.171
		c0.425,0.027,0.729,0.144,0.907,0.329c0.186,0.188,0.261,0.469,0.233,0.843l-0.295,3.751c-0.023,0.374-0.144,0.641-0.353,0.799
		c-0.209,0.157-0.521,0.223-0.949,0.188c-0.425-0.031-0.729-0.141-0.904-0.326C464.455,222.642,464.376,222.361,464.407,221.977"/>
	<path fill="#E3291B" d="M460.689,236.196l1.121,0.294l1.062-3.96l-2.728-0.733l-0.403,1.501l0.13,0.034
		c0.404,0.109,0.688,0.26,0.85,0.455s0.202,0.442,0.12,0.73c-0.065,0.253-0.209,0.441-0.438,0.555
		c-0.223,0.109-0.474,0.13-0.754,0.058c-0.011-0.006-0.059-0.014-0.138-0.027c-0.078-0.017-0.157-0.037-0.236-0.058l-2.206-0.59
		c-0.477-0.13-0.802-0.287-0.97-0.479c-0.168-0.191-0.209-0.441-0.13-0.746c0.079-0.292,0.233-0.487,0.463-0.579
		c0.232-0.1,0.537-0.093,0.918,0.007l0.188,0.051l0.4-1.5l-3.186-0.856l-1.063,3.967l1.268,0.339
		c0.473,0.127,0.802,0.292,0.966,0.49c0.168,0.199,0.206,0.466,0.12,0.795c-0.089,0.325-0.253,0.527-0.493,0.613
		c-0.236,0.086-0.6,0.065-1.083-0.065l-2.583-0.691c-0.38-0.104-0.616-0.229-0.716-0.384c-0.096-0.154-0.096-0.404-0.004-0.758
		l1.874-6.981c0.104-0.381,0.265-0.62,0.49-0.733c0.229-0.113,0.552-0.113,0.97,0c0.38,0.1,0.644,0.253,0.798,0.459
		c0.154,0.209,0.195,0.456,0.113,0.75l-0.037,0.151l7.948,2.127l0.037-0.144c0.079-0.291,0.24-0.49,0.486-0.59
		c0.243-0.103,0.552-0.103,0.929,0c0.411,0.113,0.688,0.271,0.836,0.49c0.145,0.213,0.165,0.507,0.065,0.877l-1.867,6.979
		c-0.096,0.346-0.223,0.564-0.388,0.647c-0.164,0.089-0.441,0.082-0.832-0.021l-2.388-0.645c-0.483-0.127-0.813-0.291-0.98-0.493
		c-0.175-0.195-0.216-0.452-0.134-0.774c0.093-0.329,0.261-0.534,0.511-0.624C459.854,236.044,460.214,236.065,460.689,236.196"/>
	<path fill="#E3291B" d="M458.946,248.649c0.188,0.216,0.308,0.408,0.353,0.565c0.052,0.157,0.034,0.329-0.048,0.493
		c-0.12,0.264-0.295,0.408-0.518,0.438c-0.226,0.021-0.548-0.062-0.966-0.26l-2.604-1.199c-0.463-0.216-0.744-0.418-0.847-0.617
		c-0.103-0.191-0.079-0.448,0.065-0.761c0.109-0.226,0.253-0.363,0.445-0.421c0.185-0.059,0.479-0.045,0.88,0.038
		c0.699,0.157,1.254,0.15,1.676-0.024c0.414-0.175,0.75-0.531,1.004-1.065c0.387-0.822,0.329-1.613-0.154-2.378
		c-0.486-0.761-1.384-1.445-2.696-2.063c-1.302-0.609-2.412-0.863-3.316-0.747c-0.908,0.113-1.556,0.583-1.939,1.401
		c-0.26,0.559-0.318,1.285-0.168,2.179c0.151,0.892,0.186,1.422,0.1,1.601c-0.096,0.212-0.288,0.332-0.575,0.37
		c-0.284,0.034-0.59-0.021-0.915-0.175c-0.589-0.271-0.945-0.949-1.076-2.019c-0.133-1.065,0.045-2.117,0.524-3.148
		c0.658-1.395,1.765-2.258,3.32-2.579c1.555-0.322,3.262-0.048,5.121,0.825c1.789,0.84,3.073,1.977,3.848,3.402
		c0.778,1.432,0.85,2.816,0.22,4.159c-0.175,0.377-0.404,0.727-0.688,1.041C459.717,248.026,459.367,248.337,458.946,248.649"/>
	<path fill="#E3291B" d="M448.719,256.813l1.867,1.233l1.056-1.514l-6.749-4.704l-0.85,1.216c-0.227,0.322-0.466,0.5-0.72,0.531
		c-0.257,0.03-0.559-0.072-0.904-0.318c-0.36-0.247-0.565-0.501-0.627-0.747c-0.059-0.25,0.023-0.534,0.25-0.86l3.001-4.3
		c0.22-0.314,0.459-0.493,0.713-0.523c0.253-0.027,0.555,0.078,0.915,0.325c0.355,0.25,0.564,0.493,0.623,0.74
		c0.055,0.246-0.027,0.531-0.254,0.853l-0.85,1.217l6.753,4.707l1.056-1.514l-1.81-1.326l-0.223-0.154
		c-0.291-0.206-0.469-0.425-0.548-0.665c-0.072-0.243-0.031-0.479,0.127-0.702c0.188-0.273,0.414-0.411,0.675-0.421
		c0.261-0.007,0.579,0.116,0.952,0.384l0.075,0.048l2.648,1.966c0.524,0.388,0.809,0.672,0.847,0.85
		c0.034,0.186-0.059,0.432-0.281,0.747l-4.337,6.229c-0.227,0.319-0.425,0.49-0.606,0.521c-0.179,0.027-0.549-0.137-1.1-0.493
		l-2.759-1.809l-0.068-0.055c-0.38-0.268-0.609-0.515-0.698-0.754c-0.083-0.24-0.031-0.493,0.153-0.764
		c0.182-0.261,0.401-0.388,0.645-0.388S448.28,256.519,448.719,256.813"/>
	<path fill="#E3291B" d="M443.484,265.522c-0.359,0.021-0.74-0.164-1.134-0.548c-0.397-0.391-0.576-0.781-0.542-1.154
		c0.034-0.381,0.309-0.826,0.826-1.354l0.836-0.85l2.224,2.189l-1.042,1.055C444.238,265.286,443.851,265.508,443.484,265.522
		 M439.678,265.125c0.182,0.679,0.565,1.302,1.151,1.881c0.847,0.833,1.71,1.23,2.594,1.196c0.88-0.031,1.757-0.494,2.635-1.378
		l2.85-2.905c0.274-0.273,0.401-0.544,0.384-0.805c-0.017-0.257-0.178-0.538-0.479-0.84c-0.28-0.273-0.552-0.425-0.815-0.452
		c-0.267-0.03-0.507,0.065-0.719,0.281l-0.104,0.109l-5.872-5.77l0.106-0.109c0.223-0.219,0.312-0.459,0.281-0.72
		c-0.031-0.257-0.182-0.521-0.463-0.795c-0.309-0.301-0.589-0.459-0.85-0.476c-0.254-0.011-0.521,0.123-0.795,0.404l-1.597,1.624
		c-0.281,0.284-0.414,0.555-0.394,0.805c0.017,0.254,0.182,0.535,0.489,0.843c0.278,0.271,0.549,0.418,0.806,0.445
		c0.26,0.027,0.496-0.071,0.723-0.302l0.096-0.096l2.08,2.042l-0.583,0.59c-0.082,0.082-0.191,0.137-0.328,0.15
		c-0.134,0.017-0.292-0.007-0.463-0.055l-4.478-1.378l-0.034,0.004c-0.467-0.144-0.84-0.079-1.121,0.209l-0.76,0.774
		c-0.278,0.288-0.411,0.555-0.397,0.815c0.014,0.257,0.175,0.538,0.482,0.843c0.284,0.277,0.559,0.425,0.822,0.442
		c0.264,0.014,0.514-0.1,0.754-0.34l0.123-0.13l0.065-0.068l3.039,0.97c0.034,0.01,0.072,0.017,0.123,0.037
		c0.322,0.109,0.579,0.15,0.771,0.123C439.537,263.768,439.5,264.447,439.678,265.125"/>
	<path fill="#E3291B" d="M433.449,272.799c-0.791-0.384-1.569-1.138-2.347-2.255c-0.777-1.123-1.206-2.124-1.285-3.001
		c-0.078-0.884,0.195-1.538,0.815-1.97c0.624-0.429,1.33-0.449,2.128-0.065c0.798,0.391,1.586,1.141,2.357,2.262
		c0.771,1.116,1.199,2.117,1.277,2.994c0.082,0.87-0.191,1.527-0.815,1.96C434.953,273.156,434.241,273.183,433.449,272.799
		 M438.887,271.196c0.034-1.597-0.524-3.221-1.676-4.875c-1.134-1.648-2.46-2.737-3.971-3.266c-1.514-0.534-2.864-0.391-4.05,0.432
		c-1.198,0.829-1.815,2.035-1.846,3.625c-0.035,1.586,0.523,3.214,1.675,4.872c1.145,1.654,2.467,2.747,3.971,3.278
		c1.508,0.531,2.857,0.388,4.046-0.435C438.235,273.999,438.853,272.786,438.887,271.196"/>
	<path fill="#E3291B" d="M426.834,279.309l-6.201-5.605l2.49,5.543l0.442-0.195c0.35-0.157,0.647-0.188,0.877-0.078
		c0.233,0.103,0.436,0.353,0.609,0.739c0.172,0.388,0.227,0.706,0.151,0.956c-0.068,0.243-0.288,0.449-0.641,0.606l-2.289,1.028
		c-0.346,0.157-0.637,0.178-0.873,0.068c-0.233-0.106-0.442-0.35-0.613-0.74c-0.161-0.359-0.209-0.664-0.147-0.918
		c0.058-0.261,0.229-0.452,0.5-0.576l0.137-0.058l-4.104-9.138c-0.141-0.314-0.202-0.523-0.186-0.634
		c0.018-0.099,0.123-0.195,0.309-0.28l0.805-0.36c0.257-0.12,0.456-0.164,0.59-0.144c0.133,0.021,0.28,0.096,0.428,0.232
		l6.653,5.852l-2.456-5.468l-0.466,0.213c-0.35,0.157-0.634,0.185-0.863,0.082c-0.223-0.096-0.425-0.343-0.6-0.733
		c-0.179-0.397-0.227-0.716-0.154-0.959c0.078-0.24,0.284-0.438,0.627-0.596l2.313-1.035c0.35-0.157,0.641-0.185,0.873-0.082
		c0.233,0.103,0.439,0.356,0.613,0.754c0.165,0.355,0.213,0.657,0.147,0.904c-0.058,0.246-0.232,0.438-0.517,0.568l-0.127,0.055
		l3.371,7.51l0.13-0.055c0.271-0.13,0.524-0.13,0.761,0c0.24,0.12,0.438,0.363,0.596,0.717c0.172,0.391,0.223,0.709,0.145,0.955
		c-0.079,0.254-0.291,0.453-0.634,0.606l-1.319,0.593c-0.315,0.145-0.555,0.186-0.713,0.134
		C427.337,279.719,427.114,279.562,426.834,279.309"/>
	<path fill="#E3291B" d="M411.153,282.964l1.438-0.36l-2.008-7.982l-1.438,0.363c-0.384,0.096-0.686,0.075-0.901-0.065
		c-0.213-0.137-0.37-0.407-0.473-0.818c-0.106-0.411-0.096-0.733,0.027-0.966c0.123-0.233,0.377-0.397,0.761-0.494l5.08-1.281
		c0.391-0.096,0.692-0.068,0.908,0.072c0.213,0.141,0.377,0.425,0.483,0.846c0.1,0.412,0.093,0.73-0.027,0.946
		c-0.12,0.223-0.377,0.384-0.771,0.479l-1.442,0.363l2.008,7.982l1.439-0.363c0.391-0.096,0.691-0.072,0.904,0.068
		c0.212,0.145,0.377,0.418,0.479,0.836s0.096,0.74-0.023,0.96c-0.12,0.219-0.381,0.384-0.768,0.479l-5.088,1.277
		c-0.404,0.104-0.709,0.086-0.911-0.051c-0.209-0.141-0.367-0.422-0.466-0.843c-0.106-0.411-0.1-0.733,0.021-0.96
		C410.505,283.228,410.759,283.063,411.153,282.964"/>
	<path fill="#E3291B" d="M400.08,283.475c-0.49-0.724-0.788-1.769-0.895-3.125c-0.106-1.363,0.027-2.446,0.404-3.248
		c0.374-0.795,0.938-1.227,1.696-1.288c0.75-0.059,1.374,0.281,1.867,1.021c0.496,0.733,0.791,1.782,0.897,3.139
		c0.106,1.354-0.027,2.433-0.401,3.228c-0.366,0.795-0.932,1.227-1.688,1.281C401.197,284.54,400.57,284.208,400.08,283.475
		 M401.307,273.419c-0.096,0.003-0.192,0.01-0.288,0.017c-1.411,0.11-2.528,0.843-3.351,2.196c-0.818,1.354-1.154,3.019-0.997,5.006
		c0.154,1.983,0.743,3.576,1.768,4.772c1.024,1.195,2.265,1.736,3.718,1.623c1.463-0.112,2.607-0.839,3.437-2.175
		c0.825-1.336,1.164-3.001,1.011-4.999c-0.117-1.511-0.515-2.826-1.183-3.939c-0.675-1.113-1.518-1.86-2.531-2.23l0.802-1.192
		c0.253-0.387,0.428-0.702,0.521-0.938c0.093-0.24,0.134-0.466,0.116-0.672c-0.023-0.295-0.134-0.538-0.322-0.733
		c-0.191-0.191-0.418-0.28-0.668-0.26c-0.12,0.007-0.435,0.175-0.936,0.5c-0.496,0.329-0.959,0.507-1.37,0.541
		c-0.277,0.021-0.729-0.062-1.367-0.239c-0.634-0.188-1.147-0.261-1.538-0.233c-0.575,0.045-1.048,0.233-1.422,0.556
		c-0.377,0.321-0.548,0.691-0.511,1.109c0.024,0.315,0.113,0.572,0.274,0.774c0.158,0.192,0.35,0.288,0.565,0.268
		c0.106-0.007,0.302-0.104,0.593-0.281c0.288-0.182,0.531-0.281,0.716-0.295c0.113-0.007,0.432,0.055,0.959,0.186
		c0.524,0.13,1.021,0.182,1.484,0.144c0.232-0.014,0.473-0.062,0.712-0.13c0.236-0.072,0.479-0.172,0.727-0.288l-0.623,0.908
		C401.502,273.413,401.406,273.416,401.307,273.419"/>
	<path fill="#E3291B" d="M391.374,284.317l0.141,0.014l0.5-5.748c0.093-1.018,0.014-1.751-0.232-2.207
		c-0.247-0.452-0.702-0.709-1.363-0.768c-0.665-0.055-1.158,0.117-1.483,0.528c-0.322,0.404-0.531,1.113-0.617,2.124l-0.504,5.749
		l0.138,0.014c0.314,0.027,0.541,0.144,0.682,0.366c0.144,0.223,0.198,0.531,0.164,0.922c-0.037,0.436-0.147,0.736-0.332,0.911
		c-0.182,0.179-0.47,0.247-0.863,0.216l-2.2-0.195c-0.396-0.034-0.671-0.15-0.825-0.359c-0.147-0.209-0.205-0.524-0.168-0.956
		c0.034-0.394,0.144-0.688,0.322-0.877c0.182-0.195,0.425-0.274,0.733-0.247l0.15,0.014l0.5-5.704
		c0.161-1.847,0.6-3.155,1.306-3.923c0.709-0.768,1.768-1.09,3.183-0.966c1.474,0.13,2.498,0.623,3.073,1.493
		c0.565,0.863,0.771,2.234,0.606,4.111l-0.5,5.701l0.147,0.014c0.318,0.027,0.548,0.15,0.695,0.37s0.198,0.527,0.168,0.925
		c-0.038,0.432-0.151,0.733-0.34,0.911c-0.191,0.172-0.482,0.24-0.884,0.206l-2.268-0.195c-0.395-0.034-0.668-0.154-0.826-0.359
		c-0.161-0.206-0.223-0.524-0.185-0.96c0.037-0.391,0.144-0.685,0.332-0.877C390.806,284.373,391.06,284.29,391.374,284.317"/>
	<path fill="#E3291B" d="M375.782,280.535l-0.287,1.124l3.974,1.014l0.699-2.73l-1.501-0.387l-0.03,0.127
		c-0.106,0.407-0.257,0.688-0.449,0.856c-0.195,0.161-0.435,0.202-0.727,0.134c-0.257-0.068-0.445-0.213-0.558-0.436
		c-0.117-0.223-0.141-0.477-0.069-0.75c0.004-0.014,0.014-0.062,0.031-0.145c0.014-0.078,0.027-0.157,0.048-0.236l0.568-2.213
		c0.124-0.477,0.278-0.798,0.467-0.97c0.191-0.175,0.438-0.219,0.746-0.137c0.292,0.068,0.483,0.223,0.586,0.452
		c0.1,0.229,0.1,0.534,0.004,0.911l-0.052,0.192l1.504,0.384l0.822-3.19l-3.98-1.021l-0.326,1.271
		c-0.119,0.473-0.28,0.802-0.476,0.969c-0.199,0.168-0.463,0.209-0.795,0.127c-0.325-0.082-0.531-0.239-0.617-0.479
		c-0.089-0.24-0.071-0.603,0.055-1.09l0.662-2.583c0.099-0.387,0.226-0.623,0.376-0.726c0.151-0.097,0.408-0.1,0.761-0.008l7,1.796
		c0.373,0.096,0.62,0.253,0.736,0.482c0.116,0.224,0.12,0.552,0.01,0.97c-0.099,0.377-0.246,0.645-0.452,0.802
		c-0.198,0.158-0.452,0.199-0.746,0.12l-0.147-0.034l-2.046,7.973l0.147,0.034c0.291,0.071,0.486,0.232,0.593,0.476
		s0.109,0.552,0.014,0.929c-0.109,0.414-0.268,0.695-0.479,0.843c-0.216,0.147-0.507,0.171-0.877,0.075l-7.003-1.795
		c-0.346-0.089-0.565-0.213-0.654-0.377c-0.086-0.164-0.082-0.438,0.017-0.832l0.613-2.396c0.124-0.479,0.285-0.812,0.483-0.986
		c0.195-0.171,0.456-0.22,0.771-0.134c0.333,0.079,0.542,0.25,0.631,0.504C375.92,279.692,375.906,280.055,375.782,280.535"/>
	<path fill="#E3291B" d="M354.093,270.771l1.213,0.853l4.728-6.735l-1.217-0.853c-0.328-0.233-0.507-0.473-0.541-0.727
		c-0.037-0.254,0.068-0.548,0.312-0.895c0.24-0.346,0.49-0.551,0.751-0.613c0.257-0.055,0.545,0.031,0.866,0.254l4.293,3.012
		c0.325,0.229,0.507,0.469,0.538,0.726c0.034,0.261-0.075,0.565-0.322,0.922c-0.246,0.35-0.493,0.548-0.736,0.604
		c-0.247,0.051-0.534-0.042-0.867-0.274l-1.216-0.85l-4.725,6.735l1.213,0.85c0.329,0.233,0.511,0.477,0.541,0.733
		c0.031,0.254-0.071,0.555-0.318,0.908c-0.25,0.353-0.497,0.558-0.74,0.609c-0.246,0.052-0.534-0.037-0.866-0.271l-4.293-3.008
		c-0.343-0.24-0.528-0.487-0.559-0.727c-0.031-0.25,0.082-0.548,0.332-0.904c0.243-0.35,0.49-0.556,0.74-0.61
		C353.469,270.453,353.76,270.538,354.093,270.771"/>
	<path fill="#E3291B" d="M346.727,266.324l3.221-7.715l-4.399,4.193l0.332,0.353c0.271,0.281,0.395,0.548,0.37,0.805
		c-0.023,0.254-0.185,0.524-0.496,0.819c-0.309,0.295-0.593,0.448-0.847,0.463c-0.257,0.014-0.521-0.124-0.791-0.404l-1.73-1.813
		c-0.261-0.277-0.381-0.545-0.356-0.806c0.021-0.257,0.188-0.531,0.493-0.825c0.284-0.271,0.559-0.418,0.822-0.445
		s0.5,0.064,0.706,0.284l0.106,0.109l7.242-6.914c0.254-0.239,0.429-0.366,0.534-0.383c0.106-0.021,0.227,0.044,0.367,0.191
		l0.609,0.645c0.195,0.202,0.309,0.369,0.333,0.503c0.027,0.134,0.003,0.295-0.076,0.479l-3.299,8.227l4.33-4.136l-0.349-0.373
		c-0.265-0.274-0.388-0.538-0.37-0.781c0.023-0.247,0.188-0.521,0.493-0.815c0.315-0.295,0.6-0.452,0.853-0.459
		c0.254-0.014,0.511,0.116,0.771,0.391l1.747,1.829c0.268,0.281,0.384,0.549,0.363,0.802c-0.021,0.254-0.186,0.531-0.5,0.833
		c-0.281,0.264-0.552,0.414-0.809,0.438c-0.254,0.023-0.49-0.072-0.703-0.302l-0.099-0.103l-5.958,5.68l0.1,0.1
		c0.205,0.22,0.291,0.463,0.253,0.727c-0.037,0.261-0.198,0.527-0.482,0.799c-0.306,0.294-0.59,0.445-0.854,0.455
		c-0.257,0.007-0.518-0.123-0.777-0.397l-1.001-1.048c-0.236-0.247-0.359-0.459-0.363-0.627
		C346.514,266.934,346.583,266.673,346.727,266.324"/>
	<path fill="#E3291B" d="M336.236,253.833c-0.285,0.048-0.508,0.055-0.665,0.014c-0.161-0.041-0.295-0.137-0.401-0.295
		c-0.16-0.239-0.198-0.466-0.105-0.671c0.092-0.206,0.329-0.438,0.716-0.695l2.371-1.614c0.425-0.28,0.743-0.418,0.966-0.407
		c0.22,0.014,0.429,0.168,0.62,0.452c0.137,0.202,0.182,0.404,0.134,0.6c-0.048,0.185-0.209,0.432-0.486,0.732
		c-0.497,0.518-0.781,0.998-0.843,1.446c-0.072,0.452,0.062,0.918,0.394,1.415c0.504,0.754,1.209,1.113,2.11,1.093
		c0.904-0.027,1.956-0.445,3.162-1.25c1.199-0.799,1.98-1.621,2.351-2.457s0.302-1.631-0.202-2.385
		c-0.343-0.51-0.936-0.932-1.778-1.268c-0.843-0.328-1.319-0.575-1.429-0.736c-0.123-0.188-0.13-0.418-0.017-0.682
		c0.112-0.268,0.325-0.497,0.623-0.699c0.534-0.359,1.295-0.321,2.282,0.116c0.986,0.439,1.795,1.131,2.429,2.076
		c0.86,1.282,1.024,2.676,0.497,4.174c-0.524,1.5-1.642,2.822-3.348,3.964c-1.641,1.1-3.275,1.613-4.899,1.538
		c-1.624-0.068-2.85-0.72-3.672-1.953c-0.237-0.343-0.415-0.72-0.545-1.124C336.373,254.813,336.287,254.353,336.236,253.833"/>
	<path fill="#E3291B" d="M333.82,242.543c0.521-0.702,1.401-1.336,2.646-1.895c1.247-0.555,2.315-0.795,3.192-0.712
		c0.881,0.085,1.474,0.473,1.782,1.165c0.308,0.688,0.195,1.391-0.329,2.104c-0.527,0.712-1.412,1.346-2.655,1.897
		c-1.24,0.555-2.299,0.795-3.173,0.713c-0.873-0.082-1.466-0.466-1.774-1.165C333.19,243.952,333.297,243.253,333.82,242.543
		 M334.403,248.18c1.555,0.325,3.258,0.075,5.098-0.747c1.826-0.815,3.139-1.919,3.939-3.307c0.802-1.395,0.908-2.744,0.319-4.06
		c-0.6-1.333-1.672-2.158-3.228-2.484c-1.556-0.321-3.258-0.071-5.102,0.758c-1.833,0.818-3.148,1.918-3.946,3.303
		c-0.802,1.384-0.905,2.733-0.315,4.057C331.769,247.032,332.844,247.858,334.403,248.18"/>
	<path fill="#E3291B" d="M329.774,231.882c0.175-0.319,0.527-0.545,1.065-0.682c0.538-0.138,0.963-0.093,1.265,0.137
		c0.305,0.226,0.548,0.699,0.726,1.408l0.288,1.158l-3.025,0.764l-0.363-1.438C329.586,232.653,329.6,232.201,329.774,231.882
		 M332.098,228.843c-0.672-0.202-1.405-0.202-2.203,0c-1.151,0.288-1.939,0.818-2.371,1.59c-0.435,0.768-0.497,1.761-0.191,2.967
		l0.99,3.946c0.096,0.377,0.26,0.627,0.489,0.747c0.229,0.124,0.556,0.13,0.967,0.024c0.38-0.096,0.65-0.247,0.812-0.456
		c0.164-0.212,0.209-0.466,0.134-0.761l-0.034-0.15l7.979-2.004l0.035,0.144c0.078,0.305,0.232,0.511,0.469,0.616
		c0.236,0.106,0.541,0.113,0.922,0.018c0.421-0.103,0.702-0.261,0.846-0.477c0.145-0.209,0.168-0.51,0.069-0.894l-0.556-2.207
		c-0.096-0.387-0.257-0.637-0.482-0.753c-0.23-0.117-0.552-0.124-0.974-0.014c-0.377,0.092-0.644,0.243-0.802,0.452
		c-0.154,0.205-0.191,0.459-0.116,0.767l0.031,0.138l-2.823,0.712l-0.199-0.805c-0.027-0.113-0.017-0.236,0.038-0.359
		c0.055-0.124,0.154-0.243,0.291-0.363l3.505-3.107l0.014-0.031c0.367-0.322,0.5-0.678,0.408-1.068l-0.268-1.052
		c-0.1-0.388-0.261-0.641-0.486-0.765c-0.229-0.123-0.552-0.13-0.974-0.027c-0.387,0.104-0.657,0.254-0.809,0.473
		c-0.146,0.22-0.178,0.494-0.096,0.822l0.041,0.172l0.024,0.096l-2.408,2.083c-0.024,0.027-0.056,0.059-0.093,0.089
		c-0.264,0.22-0.436,0.418-0.507,0.597C333.327,229.425,332.772,229.035,332.098,228.843"/>
	<path fill="#E3291B" d="M328.291,219.792c0.271-0.377,0.682-0.589,1.233-0.623c0.589-0.038,1.038,0.109,1.354,0.438
		c0.314,0.328,0.5,0.843,0.541,1.534l0.086,1.254l-3.481,0.223l-0.082-1.25C327.9,220.696,328.017,220.175,328.291,219.792
		 M332.58,217.538c-0.774-0.686-1.87-0.98-3.289-0.891c-1.339,0.089-2.336,0.521-2.974,1.302c-0.641,0.781-0.918,1.895-0.825,3.33
		l0.236,3.638c0.027,0.381,0.141,0.651,0.346,0.809c0.209,0.158,0.521,0.22,0.949,0.192c0.391-0.024,0.679-0.123,0.881-0.295
		c0.198-0.178,0.287-0.418,0.271-0.713l-0.011-0.15l8.209-0.534l0.01,0.15c0.021,0.305,0.141,0.527,0.35,0.679
		c0.213,0.144,0.514,0.202,0.897,0.178c0.436-0.027,0.747-0.137,0.922-0.315c0.182-0.178,0.257-0.459,0.233-0.85l-0.195-3.045
		c-0.027-0.374-0.138-0.641-0.34-0.792c-0.205-0.15-0.521-0.216-0.952-0.185c-0.428,0.027-0.727,0.127-0.897,0.301
		c-0.175,0.172-0.25,0.453-0.227,0.833l0.063,0.904l-2.258,0.147l-0.097-1.497C333.79,219.292,333.352,218.222,332.58,217.538"/>
	<path fill="#E3291B" d="M329.552,207.595c0.822-0.315,1.905-0.377,3.251-0.175c1.354,0.202,2.378,0.572,3.077,1.113
		c0.691,0.541,0.983,1.186,0.877,1.942c-0.109,0.743-0.579,1.278-1.408,1.593c-0.826,0.319-1.912,0.377-3.258,0.179
		c-1.347-0.198-2.368-0.568-3.06-1.104c-0.692-0.541-0.983-1.186-0.874-1.938C328.271,208.448,328.732,207.917,329.552,207.595
		 M327.017,212.666c1.141,1.11,2.706,1.815,4.7,2.104c1.98,0.295,3.68,0.068,5.102-0.672c1.422-0.739,2.237-1.825,2.449-3.254
		c0.209-1.439-0.253-2.718-1.387-3.824c-1.142-1.109-2.707-1.809-4.711-2.104c-1.98-0.295-3.687-0.068-5.102,0.665
		s-2.23,1.819-2.442,3.255C325.41,210.274,325.876,211.555,327.017,212.666"/>
	<path fill="#E3291B" d="M332.224,196.289c0.326-0.164,0.744-0.15,1.261,0.048c0.524,0.195,0.847,0.474,0.967,0.829
		c0.12,0.363,0.051,0.885-0.206,1.573l-0.421,1.113l-2.923-1.097l0.521-1.384C331.631,196.817,331.902,196.454,332.224,196.289
		 M335.866,195.11c-0.438-0.548-1.045-0.959-1.819-1.254c-1.106-0.411-2.06-0.432-2.851-0.041c-0.791,0.388-1.411,1.165-1.851,2.333
		l-1.425,3.807c-0.137,0.363-0.144,0.665-0.024,0.891c0.12,0.233,0.381,0.425,0.781,0.576c0.363,0.133,0.676,0.164,0.929,0.085
		c0.254-0.085,0.436-0.267,0.541-0.551l0.052-0.145l7.709,2.896l-0.059,0.141c-0.106,0.291-0.096,0.548,0.041,0.771
		c0.13,0.223,0.377,0.404,0.743,0.541c0.408,0.151,0.73,0.182,0.967,0.086c0.239-0.089,0.425-0.322,0.565-0.692l0.801-2.131
		c0.145-0.377,0.151-0.672,0.031-0.897c-0.12-0.227-0.384-0.411-0.788-0.565c-0.366-0.137-0.671-0.164-0.922-0.086
		c-0.239,0.083-0.421,0.274-0.53,0.569l-0.052,0.13l-2.728-1.021l0.292-0.778c0.044-0.106,0.119-0.202,0.236-0.267
		c0.116-0.072,0.267-0.113,0.445-0.134l4.652-0.563l0.031-0.021c0.486-0.058,0.798-0.273,0.938-0.647l0.38-1.014
		c0.141-0.374,0.151-0.675,0.038-0.908c-0.12-0.229-0.384-0.421-0.792-0.575c-0.366-0.138-0.678-0.158-0.925-0.068
		c-0.246,0.096-0.432,0.301-0.552,0.616l-0.062,0.164l-0.037,0.097l-3.166,0.343c-0.034,0.007-0.075,0.014-0.127,0.021
		c-0.339,0.03-0.593,0.096-0.754,0.195C336.544,196.289,336.305,195.659,335.866,195.11"/>
	<path fill="#E3291B" d="M338.922,185.024l-0.986-0.596l-2.121,3.515l2.422,1.46l0.799-1.329l-0.113-0.069
		c-0.359-0.219-0.589-0.441-0.686-0.671c-0.103-0.233-0.078-0.479,0.079-0.74c0.134-0.223,0.329-0.359,0.575-0.411
		c0.247-0.041,0.494,0.007,0.737,0.157c0.014,0.007,0.058,0.027,0.13,0.065s0.144,0.072,0.213,0.116l1.956,1.179
		c0.421,0.257,0.688,0.497,0.798,0.729c0.106,0.233,0.082,0.48-0.082,0.754c-0.154,0.257-0.359,0.401-0.606,0.429
		c-0.25,0.03-0.541-0.059-0.874-0.257l-0.167-0.104l-0.806,1.33l2.826,1.699l2.118-3.516l-1.128-0.678
		c-0.421-0.251-0.682-0.494-0.788-0.733c-0.105-0.24-0.071-0.507,0.106-0.795c0.175-0.288,0.388-0.438,0.641-0.459
		c0.254-0.014,0.593,0.109,1.024,0.363l2.285,1.38c0.343,0.202,0.534,0.395,0.586,0.569c0.048,0.175-0.023,0.418-0.209,0.729
		l-3.728,6.188c-0.205,0.336-0.428,0.524-0.679,0.568c-0.253,0.048-0.562-0.044-0.932-0.267c-0.336-0.202-0.548-0.425-0.641-0.661
		c-0.089-0.243-0.055-0.49,0.103-0.758l0.076-0.13l-7.051-4.241l-0.076,0.123c-0.15,0.261-0.362,0.404-0.627,0.432
		c-0.26,0.034-0.558-0.052-0.894-0.254c-0.363-0.219-0.59-0.452-0.665-0.698c-0.082-0.247-0.021-0.534,0.179-0.863l3.724-6.194
		c0.192-0.302,0.373-0.473,0.552-0.518c0.185-0.034,0.445,0.052,0.798,0.257l2.114,1.274c0.428,0.261,0.699,0.507,0.809,0.747
		c0.106,0.24,0.075,0.497-0.093,0.777c-0.175,0.295-0.397,0.449-0.661,0.463C339.689,185.401,339.347,185.285,338.922,185.024
		 M333.677,180.999l-0.624,5.006l-0.884-0.172l-0.459-5.2c-0.003-0.027,0-0.049,0.007-0.079c0.007-0.024,0.018-0.048,0.027-0.072
		c0.041-0.062,0.104-0.109,0.192-0.144s0.191-0.034,0.308-0.014l1.001,0.178c0.007,0.004,0.021,0.007,0.044,0.011
		c0.049,0.014,0.093,0.03,0.124,0.048c0.085,0.059,0.154,0.12,0.202,0.195C333.663,180.834,333.687,180.913,333.677,180.999"/>
	<rect x="25.005" y="140.28" fill="none" width="449.995" height="219.39"/>
	<g>
		<path fill="#E3291B" d="M394.944,266.591c-13.951,0-27.104-5.132-36.083-14.078c-9.733-9.695-15.314-22.896-15.314-36.216
			c0-12.129,5.54-23.839,16.466-34.809c9.613-9.642,21.69-14.739,34.932-14.739c14.756,0,27.604,4.7,36.176,13.245
			c9.572,9.538,15.063,22.77,15.063,36.303c0,13.08-5.557,26.154-15.242,35.87C421.667,261.469,408.885,266.591,394.944,266.591z
			 M394.944,167.764c-12.964,0-24.794,4.995-34.212,14.443c-10.73,10.769-16.171,22.238-16.171,34.09
			c0,13.053,5.471,25.989,15.013,35.497c8.794,8.76,21.684,13.782,35.37,13.782c13.67,0,26.199-5.016,35.277-14.125
			c9.501-9.528,14.948-22.341,14.948-35.154c0-13.266-5.383-26.237-14.763-35.583C422.023,172.362,409.433,167.764,394.944,167.764z
			"/>
	</g>
	<g>
		<path fill="#E3291B" d="M394.989,293.061c-21.653,0-41.26-7.654-55.211-21.55c-14.886-14.835-23.42-35.028-23.42-55.406
			c0-18.638,8.469-36.56,25.171-53.271c15.181-15.181,32.667-22.557,53.46-22.557c22.557,0,42.212,7.205,55.344,20.292
			c14.64,14.595,23.036,34.836,23.036,55.536c0,20.008-8.496,40.01-23.317,54.878C435.868,285.222,416.313,293.061,394.989,293.061z
			 M394.989,143.316c-19.946,0-36.728,7.085-51.309,21.666c-16.116,16.123-24.287,33.321-24.287,51.123
			c0,19.576,8.212,38.985,22.529,53.255c13.184,13.128,32.523,20.662,53.066,20.662c20.511,0,39.303-7.521,52.911-21.184
			c14.256-14.3,22.434-33.52,22.434-52.733c0-19.898-8.071-39.358-22.146-53.385C435.628,150.208,416.737,143.316,394.989,143.316z"
			/>
	</g>
	<rect x="25.005" y="140.28" fill="none" width="448.368" height="219.39"/>
	<g>
		<path fill="#E3291B" d="M372.949,222.854c2.076-2.863,3.125-6.522,3.125-10.877c0-4.368-1.06-8.021-3.149-10.861
			c-2.161-2.922-4.984-4.405-8.394-4.405c-3.426,0-6.256,1.477-8.411,4.396c-2.09,2.819-3.148,6.476-3.148,10.871
			c0,3.319,0.658,6.307,1.957,8.877c1.103,2.192,2.552,3.844,4.316,4.934l-1.131,1.418c-0.627,0.802-1.086,1.494-1.367,2.065
			c-0.301,0.627-0.452,1.237-0.452,1.813c0,0.863,0.268,1.617,0.799,2.241c0.565,0.664,1.302,1.014,2.134,1.014
			c0.404,0,0.974-0.171,2.539-1.027c0.949-0.515,1.792-0.774,2.501-0.774c0.257,0,0.925,0.085,2.487,0.664
			c1.436,0.528,2.601,0.788,3.563,0.788c1.438,0,2.679-0.377,3.693-1.12c1.38-1.014,1.668-2.224,1.668-3.056
			c0-0.863-0.212-1.614-0.634-2.224c-0.623-0.908-1.425-1.097-1.983-1.097c-0.288,0-0.723,0.068-1.758,0.606
			c-0.675,0.347-0.993,0.388-1.065,0.388c-0.068-0.007-0.397-0.063-1.703-0.494c-0.216-0.071-0.428-0.137-0.641-0.198
			C369.839,226.126,371.534,224.807,372.949,222.854z M367.447,218.37c-0.747,1.299-1.676,1.905-2.916,1.905
			c-1.229,0-2.147-0.606-2.892-1.915c-0.829-1.453-1.25-3.536-1.25-6.198s0.418-4.738,1.24-6.177
			c0.733-1.292,1.658-1.892,2.901-1.892c1.254,0,2.183,0.6,2.919,1.892c0.826,1.442,1.244,3.521,1.244,6.177
			C368.694,214.831,368.272,216.92,367.447,218.37z"/>
		<path fill="#E3291B" d="M421.705,218.51c-0.661-1.004-1.49-1.216-2.069-1.216c-0.449,0-1.127,0.14-3.553,1.795
			c-3.371,2.313-5.886,1.727-7.321-0.518c-0.922-1.445-1.392-3.604-1.392-6.413c0-2.82,0.463-4.975,1.374-6.407
			c0.829-1.302,1.991-1.936,3.553-1.936c0.997,0,1.762,0.236,2.271,0.695c0.549,0.497,0.967,1.378,1.244,2.639
			c0.243,1.027,0.548,1.713,0.952,2.154c0.329,0.363,0.932,0.795,1.956,0.795c1.072,0,1.857-0.325,2.33-0.956
			c0.425-0.562,0.62-1.438,0.62-2.761l-0.034-6.006c0-1.176-0.175-2.025-0.538-2.598c-0.309-0.489-0.936-1.072-2.155-1.072
			c-0.647,0-1.206,0.202-1.665,0.606c-0.178,0.161-0.346,0.354-0.503,0.586c-0.703-0.329-1.392-0.593-2.053-0.781
			c-0.942-0.273-1.915-0.411-2.895-0.411c-3.454,0-6.339,1.521-8.576,4.522c-2.165,2.905-3.261,6.585-3.261,10.93
			c0,4.509,1.086,8.229,3.227,11.056c2.207,2.919,5.143,4.398,8.727,4.398c2.594,0,4.964-0.657,7.047-1.952
			c2.237-1.388,3.372-2.971,3.372-4.694C422.363,220.018,422.144,219.192,421.705,218.51z"/>
	</g>
	<g>
		<path fill="#E3291B" d="M387.932,216.509c-1.446,0-2.646,0.521-3.557,1.552c-0.891,0.99-1.34,2.271-1.34,3.807
			c0,1.528,0.449,2.81,1.337,3.8c0.914,1.031,2.113,1.552,3.56,1.552c1.466,0,2.672-0.521,3.583-1.552
			c0.881-0.99,1.326-2.271,1.326-3.8c0-1.545-0.445-2.83-1.329-3.82C390.601,217.027,389.395,216.509,387.932,216.509z"/>
		<path fill="#E3291B" d="M438.308,218.047c-0.911-1.021-2.117-1.538-3.584-1.538c-1.442,0-2.638,0.521-3.556,1.556
			c-0.891,0.993-1.34,2.274-1.34,3.803c0,1.524,0.449,2.803,1.34,3.803c0.918,1.028,2.113,1.549,3.556,1.549
			c1.47,0,2.676-0.521,3.587-1.556c0.881-0.993,1.326-2.274,1.326-3.796C439.637,220.326,439.191,219.044,438.308,218.047z"/>
	</g>
	<rect x="25.005" y="140.28" fill="none" width="449.995" height="219.39"/>
</g>
</svg>
