<?xml version="1.0" encoding="utf-8"?>
<!-- Generator: Adobe Illustrator 21.0.2, SVG Export Plug-In . SVG Version: 6.00 Build 0)  -->
<svg version="1.1" id="Calque_2" xmlns="http://www.w3.org/2000/svg" xmlns:xlink="http://www.w3.org/1999/xlink" x="0px" y="0px"
	 viewBox="0 0 500 258" style="enable-background:new 0 0 500 258;" xml:space="preserve">
<style type="text/css">
	.st0{fill:#E3291B;}
	.st1{fill:#043982;}
	.st2{fill:none;}
	.st3{fill:#FFFFFF;}
	.st4{fill:#FFDC06;}
</style>
<path class="st0" d="M366.3,37.6c0.5,0.1,0.8,0.4,1.1,0.8c0.3,0.5,0.3,1,0.2,1.4c-0.2,0.4-0.5,0.8-1.2,1.2l-1.1,0.6l-1.7-3l1.1-0.6
	C365.3,37.6,365.9,37.5,366.3,37.6 M370.2,40.5c0.3-1,0.1-2.1-0.6-3.4c-0.7-1.2-1.5-1.9-2.5-2.1c-1-0.2-2.1,0-3.4,0.7l-3.2,1.8
	c-0.3,0.2-0.5,0.4-0.6,0.7s0,0.6,0.2,0.9c0.2,0.3,0.4,0.6,0.6,0.7c0.2,0.1,0.5,0.1,0.8-0.1l0.1-0.1l4,7.2l-0.1,0.1
	c-0.3,0.1-0.4,0.4-0.5,0.6c0,0.3,0,0.6,0.2,0.9c0.2,0.4,0.4,0.6,0.7,0.7c0.2,0.1,0.5,0,0.9-0.2l2.7-1.5c0.3-0.2,0.5-0.4,0.6-0.6
	c0-0.2,0-0.6-0.2-0.9c-0.2-0.4-0.4-0.6-0.7-0.7c-0.2-0.1-0.5,0-0.8,0.2l-0.8,0.4l-1.1-2l1.3-0.7C369.1,42.3,369.9,41.5,370.2,40.5"
	/>
<path class="st0" d="M377.1,33c0.3,0.1,0.6,0.5,0.8,1c0.2,0.5,0.2,1,0,1.3s-0.7,0.6-1.4,0.8l-1.1,0.4l-1-3l1.4-0.5
	C376.3,32.9,376.8,32.8,377.1,33 M380.3,35.1c0.2-0.7,0.1-1.4-0.2-2.2c-0.4-1.1-1-1.9-1.8-2.3c-0.8-0.4-1.8-0.4-3,0l-3.9,1.3
	c-0.4,0.1-0.6,0.3-0.7,0.5s-0.1,0.6,0,1s0.3,0.6,0.5,0.8s0.5,0.2,0.8,0.1l0.1-0.1l2.6,7.8h-0.1c-0.3,0.1-0.5,0.3-0.6,0.5
	s-0.1,0.5,0.1,0.9c0.1,0.4,0.3,0.7,0.5,0.8s0.5,0.1,0.9,0l2.2-0.7c0.4-0.1,0.6-0.3,0.7-0.5s0.1-0.6-0.1-1c-0.1-0.4-0.3-0.6-0.5-0.8
	c-0.2-0.1-0.5-0.2-0.8-0.1h-0.1l-0.9-2.8l0.8-0.3c0.1,0,0.2,0,0.4,0s0.3,0.1,0.4,0.3l3.4,3.3l0,0c0.3,0.3,0.7,0.4,1.1,0.3l1-0.3
	c0.4-0.1,0.6-0.3,0.7-0.5s0.1-0.6,0-1s-0.3-0.6-0.5-0.8c-0.2-0.1-0.5-0.1-0.8,0l-0.2,0.1h-0.1l-2.3-2.3c0,0-0.1,0-0.1-0.1
	c-0.2-0.2-0.4-0.4-0.6-0.5C379.8,36.3,380.1,35.8,380.3,35.1"/>
<path class="st0" d="M389.3,31.1c0.5,0.7,0.9,1.7,1.1,3.1c0.2,1.4,0.1,2.4-0.2,3.3c-0.3,0.8-0.9,1.3-1.6,1.4
	c-0.7,0.1-1.4-0.2-1.9-0.9s-0.9-1.7-1.1-3.1c-0.2-1.3-0.1-2.4,0.2-3.2c0.3-0.8,0.9-1.3,1.6-1.4C388.2,30.1,388.8,30.4,389.3,31.1
	 M383.8,30.1c-0.8,1.4-1,3.1-0.7,5.1s0.9,3.6,2,4.7c1.1,1.2,2.4,1.7,3.8,1.5s2.5-1,3.3-2.4s1-3.1,0.7-5.1s-0.9-3.6-2-4.7
	c-1.1-1.2-2.4-1.6-3.8-1.5C385.6,27.9,384.5,28.6,383.8,30.1"/>
<path class="st0" d="M402.5,32.2V30l-1.8-0.1l-0.3,8.2l1.5,0.1c0.4,0,0.7,0.1,0.8,0.3c0.2,0.2,0.2,0.5,0.2,0.9s-0.1,0.7-0.3,0.9
	c-0.2,0.2-0.5,0.3-0.9,0.3l-5.2-0.2c-0.4,0-0.7-0.1-0.8-0.3c-0.2-0.2-0.2-0.5-0.2-0.9s0.1-0.7,0.3-0.9c0.2-0.2,0.5-0.3,0.8-0.2
	l1.5,0.1l0.3-8.2l-1.8-0.1l-0.1,2.2v0.3c0,0.4-0.1,0.6-0.3,0.8c-0.2,0.2-0.4,0.3-0.7,0.3c-0.3,0-0.6-0.1-0.7-0.3s-0.2-0.5-0.2-1
	v-0.1l0.2-3.3c0-0.7,0.1-1,0.3-1.2c0.1-0.1,0.4-0.2,0.8-0.2l7.6,0.3c0.4,0,0.6,0.1,0.8,0.2c0.1,0.1,0.2,0.5,0.2,1.2v3.3v0.1
	c0,0.5-0.1,0.8-0.3,1c-0.2,0.2-0.4,0.3-0.7,0.3c-0.3,0-0.5-0.1-0.7-0.3C402.5,33.1,402.5,32.8,402.5,32.2"/>
<path class="st0" d="M413.5,32.7l0.2-1.1l-4-0.7l-0.5,2.8l1.5,0.3v-0.1c0.1-0.4,0.2-0.7,0.4-0.9c0.2-0.2,0.4-0.2,0.7-0.2
	c0.3,0.1,0.5,0.2,0.6,0.4s0.2,0.5,0.1,0.7V34c0,0.1,0,0.2,0,0.2l-0.4,2.3c-0.1,0.5-0.2,0.8-0.4,1c-0.2,0.2-0.4,0.2-0.7,0.2
	c-0.3-0.1-0.5-0.2-0.6-0.4s-0.1-0.5-0.1-0.9v-0.2l-1.5-0.3l-0.6,3.2l4,0.7l0.2-1.3c0.1-0.5,0.2-0.8,0.4-1c0.2-0.2,0.4-0.2,0.8-0.2
	c0.3,0.1,0.5,0.2,0.7,0.4c0.1,0.2,0.1,0.6,0,1.1l-0.5,2.6c-0.1,0.4-0.2,0.6-0.3,0.7c-0.1,0.1-0.4,0.1-0.8,0.1l-7.1-1.3
	c-0.4-0.1-0.6-0.2-0.8-0.4c-0.1-0.2-0.2-0.5-0.1-1c0.1-0.4,0.2-0.7,0.4-0.8c0.2-0.2,0.4-0.2,0.7-0.2h0.1l1.5-8.1h-0.1
	c-0.3-0.1-0.5-0.2-0.6-0.4s-0.1-0.5-0.1-0.9c0.1-0.4,0.2-0.7,0.4-0.9c0.2-0.2,0.5-0.2,0.9-0.1l7.1,1.3c0.4,0.1,0.6,0.2,0.7,0.3
	c0.1,0.2,0.1,0.4,0,0.8l-0.4,2.4c-0.1,0.5-0.2,0.8-0.4,1c-0.2,0.2-0.4,0.3-0.8,0.2c-0.3-0.1-0.6-0.2-0.7-0.5
	C413.4,33.5,413.4,33.1,413.5,32.7"/>
<path class="st0" d="M426,33.3c0.2-0.2,0.4-0.3,0.5-0.4c0.2-0.1,0.3-0.1,0.5,0c0.3,0.1,0.4,0.3,0.5,0.5c0,0.2,0,0.5-0.2,1l-1,2.7
	c-0.2,0.5-0.4,0.8-0.5,0.9c-0.2,0.1-0.4,0.1-0.8,0c-0.2-0.1-0.4-0.2-0.5-0.4s-0.1-0.5,0-0.9c0.1-0.7,0-1.3-0.2-1.7s-0.6-0.7-1.2-0.9
	c-0.9-0.3-1.6-0.2-2.3,0.4c-0.7,0.6-1.3,1.5-1.8,2.9s-0.6,2.5-0.4,3.4s0.7,1.5,1.6,1.8c0.6,0.2,1.3,0.2,2.2,0
	c0.9-0.2,1.4-0.3,1.6-0.2s0.4,0.3,0.4,0.5c0.1,0.3,0,0.6-0.1,0.9c-0.2,0.6-0.9,1-1.9,1.3s-2.1,0.1-3.2-0.2c-1.4-0.5-2.4-1.5-2.9-3.1
	c-0.5-1.5-0.4-3.2,0.4-5.2c0.7-1.9,1.7-3.2,3-4.1c1.4-0.9,2.7-1.1,4.1-0.6c0.4,0.1,0.8,0.3,1.1,0.6C425.3,32.5,425.7,32.9,426,33.3"
	/>
<path class="st0" d="M435.1,42.9l1.1-1.9l-1.6-0.9l-4.2,7.1l1.3,0.8c0.3,0.2,0.5,0.4,0.6,0.7c0,0.2,0,0.6-0.3,0.9
	c-0.2,0.4-0.5,0.6-0.7,0.7c-0.2,0.1-0.5,0-0.9-0.2l-4.5-2.7c-0.3-0.2-0.5-0.4-0.6-0.7s0-0.6,0.3-0.9c0.2-0.4,0.5-0.6,0.7-0.7
	c0.2-0.1,0.5,0,0.9,0.2l1.3,0.8l4.2-7.1l-1.6-0.9l-1.2,1.9l-0.1,0.2c-0.2,0.3-0.4,0.5-0.6,0.6s-0.5,0.1-0.7-0.1
	c-0.3-0.2-0.4-0.4-0.5-0.6c0-0.3,0.1-0.6,0.3-1V39l1.8-2.8c0.4-0.5,0.6-0.9,0.8-0.9c0.2-0.1,0.4,0,0.8,0.2l6.5,3.9
	c0.3,0.2,0.5,0.4,0.6,0.6s-0.1,0.6-0.4,1.1l-1.6,2.9v0.1c-0.2,0.4-0.5,0.6-0.7,0.7c-0.2,0.1-0.5,0.1-0.8-0.1
	c-0.3-0.2-0.4-0.4-0.4-0.6C434.7,43.7,434.8,43.3,435.1,42.9"/>
<path class="st0" d="M445.3,48.5l-1.1-1l-5.6,6l1.1,1c0.3,0.3,0.4,0.5,0.4,0.8s-0.1,0.5-0.4,0.8s-0.6,0.5-0.8,0.5
	c-0.3,0-0.5-0.1-0.8-0.4l-3.8-3.6c-0.3-0.3-0.4-0.5-0.4-0.8s0.2-0.5,0.5-0.9c0.3-0.3,0.6-0.5,0.8-0.5c0.3,0,0.5,0.1,0.8,0.4l1.1,1
	l5.6-6l-1.1-1c-0.3-0.3-0.4-0.5-0.4-0.8s0.2-0.5,0.4-0.9c0.3-0.3,0.6-0.5,0.8-0.5c0.3,0,0.5,0.1,0.8,0.4l3.8,3.6
	c0.3,0.3,0.5,0.6,0.4,0.8c0,0.2-0.2,0.5-0.5,0.8s-0.6,0.5-0.8,0.5C445.8,48.9,445.6,48.8,445.3,48.5"/>
<path class="st0" d="M451.6,57.8c-0.4,0.8-1.1,1.6-2.2,2.4c-1.1,0.8-2.1,1.3-3,1.4c-0.9,0.1-1.5-0.2-2-0.8c-0.4-0.6-0.5-1.3-0.1-2.1
	s1.1-1.6,2.2-2.4c1.1-0.8,2.1-1.3,3-1.4c0.9-0.1,1.5,0.2,2,0.8C451.9,56.2,452,57,451.6,57.8 M449.9,52.4c-1.6,0-3.2,0.6-4.8,1.8
	c-1.6,1.2-2.7,2.5-3.2,4.1c-0.5,1.5-0.3,2.9,0.5,4c0.9,1.2,2.1,1.8,3.7,1.8s3.2-0.6,4.8-1.8c1.6-1.2,2.7-2.5,3.2-4.1
	c0.5-1.5,0.3-2.9-0.5-4C452.7,52.9,451.5,52.4,449.9,52.4"/>
<path class="st0" d="M346,54.8l-0.9-0.7l-2.6,3.2l2.2,1.8l1-1.2l-0.1-0.1c-0.3-0.3-0.5-0.5-0.6-0.8c-0.1-0.2,0-0.5,0.2-0.7
	s0.4-0.3,0.6-0.3c0.3,0,0.5,0.1,0.7,0.3c0,0,0.1,0,0.1,0.1c0.1,0,0.1,0.1,0.2,0.1l1.8,1.5c0.4,0.3,0.6,0.6,0.7,0.8s0,0.5-0.2,0.7
	s-0.4,0.3-0.7,0.3c-0.2,0-0.5-0.1-0.8-0.4l-0.2-0.1l-1,1.2l2.5,2.1l2.6-3.2l-1-0.8c-0.4-0.3-0.6-0.6-0.7-0.8c-0.1-0.3,0-0.5,0.2-0.8
	s0.5-0.4,0.7-0.4c0.3,0,0.6,0.2,1,0.5l2.1,1.7c0.3,0.2,0.5,0.5,0.5,0.6c0,0.2-0.1,0.4-0.3,0.7l-4.6,5.6c-0.2,0.3-0.5,0.5-0.8,0.5
	s-0.6-0.1-0.9-0.4c-0.3-0.3-0.5-0.5-0.5-0.8c-0.1-0.2,0-0.5,0.2-0.7l0.1-0.1l-6.3-5.2l-0.1,0.1c-0.2,0.2-0.4,0.3-0.7,0.3
	c-0.3,0-0.5-0.1-0.8-0.4c-0.3-0.3-0.5-0.5-0.6-0.8c0-0.3,0.1-0.5,0.3-0.8l4.6-5.6c0.2-0.3,0.4-0.4,0.6-0.4s0.4,0.1,0.8,0.4l1.9,1.6
	c0.4,0.3,0.6,0.6,0.7,0.9c0.1,0.3,0,0.5-0.2,0.8s-0.5,0.4-0.7,0.4C346.7,55.2,346.4,55.1,346,54.8"/>
<rect x="29" y="95.5" class="st1" width="323.9" height="139.2"/>
<path d="M357,238.7H25V91.4h332V238.7z M33.1,230.6h315.8V99.5H33.1V230.6z"/>
<rect x="25" y="19.3" class="st2" width="448.4" height="219.4"/>
<path class="st3" d="M189.9,137.2c0-3.8-0.8-4.7-3.9-5.3c-4.5-0.8-5.6-0.5-5.6-2.1c0-1,0.9-1.3,2.2-1.3c2.8,0,5.3,0.5,14.2,0.5
	c4.1,0,9.5-0.5,12.1-0.5c1.3,0,1.9,0.1,1.9,1.1c0,1.8-1,1.5-6.3,2.3c-1.6,0.2-2.8,1.8-2.8,4.6v60.2c0,3.9,0.5,4,5.7,5.3
	c2.8,0.7,3.8,0.5,3.8,1.9c0,0.7-0.4,1.5-2.3,1.5c-2.1,0-5.2-0.5-12.5-0.5c-10.1,0-12.1,0.5-14.3,0.5c-1.2,0-1.7-0.5-1.7-1.6
	s1.2-1.6,3.3-1.8c5.2-0.6,6.2-1.7,6.2-6.8L189.9,137.2L189.9,137.2z"/>
<path class="st3" d="M229.5,174.6c-1.1,0-1.3-0.1-1.3-0.4c0-0.4,0.5-1.3,3-10.8c4-14.3,4-15.1,4.6-15.1c0.5,0,0.5,0.5,2.3,6.8
	c4.6,16,5.3,18.2,5.3,19.1c0,0.4-0.2,0.4-1.1,0.4H229.5z M243.4,178c1.6,0,1.6,1,4,9.8c2.4,8.7,3,10.3,3,11.4c0,1-0.5,2.4-2.1,2.8
	c-4.1,1-5.3,0.9-5.3,1.9c0,0.9,0.2,1.5,1.6,1.5c1.3,0,5.7-0.5,12.3-0.5c4.5,0,8.4,0.5,10.3,0.5c2.2,0,2.6-0.5,2.6-1.3
	c0-1.5-1.5-1.1-4.3-2.1c-2.4-0.8-3.2-5.3-9.2-25c-14.9-48.6-14-50-16.5-50c-2.2,0-1.3,0.5-12,35.7c-9.8,32.4-11,38.1-13.8,39.4
	c-2.6,1.1-4.1,0.4-4.1,2.2c0,0.9,0.4,1.2,1.2,1.2c1.2,0,3.3-0.5,9.1-0.5c2.9,0,7.6,0.5,8.7,0.5c1.8,0,2.2-0.8,2.2-1.6
	c0-1.6-3.4-1.1-5.7-1.8c-2.7-0.8-3.6-2.1-3.6-3.6c0-0.9,0.6-2.4,3-12.6c1.7-7.1,1.7-7.8,3.5-7.8L243.4,178L243.4,178z"/>
<path class="st3" d="M273.8,137.4c-2.1-3.9-2.3-5.1-4.7-5.6c-2.2-0.5-3.3-0.5-3.3-1.8c0-1,0.6-1.6,1.8-1.6c2.2,0,5.1,0.5,10.6,0.5
	c8.1,0,10.6-0.5,12.4-0.5c1,0,1.7,0.5,1.7,1.2c0,1.2-0.5,1.8-4.3,2.2c-1.3,0.1-2.5,0.9-2.5,2.2c0,1.7,1,3.3,10.4,22.2
	c8.5-17.3,10.3-19.4,10.3-21.5c0-1.9-1.8-2.9-5.1-2.9c-1.1,0-2.4-0.4-2.4-1.6c0-1.6,1.3-1.8,2.6-1.8c1.2,0,4,0.5,9.7,0.5
	c3.9,0,6-0.5,7.8-0.5s2.4,0.5,2.4,1.6c0,1-0.2,1.7-1.8,1.8c-5.2,0.4-7.5,2.4-9.6,6.4L298,160.7l9.8,20c9.4,19.1,9.7,19.9,12.5,21.3
	c1.7,0.9,2.7,1.1,2.7,1.9c0,0.9-0.2,1.5-1.9,1.5c-2.2,0-6.2-0.5-9.2-0.5c-9.2,0-11.3,0.5-12.4,0.5c-1.5,0-1.9-0.5-1.9-1.3
	c0-1.5,1.8-1.5,3.6-2.1c1.9-0.6,3.2-1.5,3.2-2.8c0-1.2-1.6-4-8.9-19.4c-2.8-6.1-3.4-6.9-3.6-6.9c-0.6,0-1.1,1.6-5.9,10.6
	c-5,9.2-6.1,12.3-6.1,14.2c0,2.2,1.3,3.6,4.9,4.4c2.3,0.5,3.3,0.7,3.3,1.8c0,1.2-0.7,1.6-1.6,1.6c-1.8,0-3.9-0.5-9.8-0.5
	c-6.3,0-8.5,0.5-9.8,0.5c-2.1,0-2.4-0.4-2.4-1.6c0-1.6,0.9-1.6,3.2-2.1c4-1,4.2-1.3,8.4-8.6l14-24.7L273.8,137.4z"/>
<path class="st4" d="M100.3,87.4c1.8-9.7,7.5-12.7,15.5-12.7c23.3,0,33.5,26.7,26.2,65.6c-6.2,33-24.3,59.2-46.1,59.2
	c-11,0-15.8-4.9-13.5-16.9L100.3,87.4z M61.4,184.3c-2.2,11.4-5.2,15-12,15.2c-6.4,0.4-7.6,0.8-8,3.2c-0.3,1.5,0.3,2.7,1.6,2.7
	c4.4,0,10.5-0.8,27.7-0.8c8,0,16.1,0.8,25.2,0.8c40.2,0,63.9-38.1,69.5-67.9c8-42.5-11.6-68.8-51-68.8c-16.9,0-48.6,4.2-49.4,8.7
	c-0.4,2.1-0.1,2.7,2.7,2.7c1.7,0,4.1-0.4,6.6-0.4c5.3,0,6.5,1.3,5.5,7L61.4,184.3z"/>
<path class="st0" d="M458.3,64.1l-5.4,6.4l5.5-2.7l-0.2-0.4c-0.2-0.4-0.2-0.6-0.1-0.9c0.1-0.2,0.3-0.4,0.7-0.6
	c0.4-0.2,0.7-0.3,0.9-0.2c0.2,0.1,0.5,0.3,0.6,0.6l1.1,2.2c0.2,0.3,0.2,0.6,0.1,0.9c-0.1,0.2-0.3,0.5-0.7,0.6
	c-0.4,0.2-0.7,0.2-0.9,0.2c-0.3,0-0.5-0.2-0.6-0.5l-0.1-0.1l-9,4.4c-0.3,0.2-0.5,0.2-0.6,0.2s-0.2-0.1-0.3-0.3l-0.4-0.8
	c-0.1-0.3-0.2-0.4-0.2-0.6c0-0.1,0.1-0.3,0.2-0.4l5.6-6.9l-5.4,2.6l0.2,0.5c0.2,0.3,0.2,0.6,0.1,0.9c-0.1,0.2-0.3,0.4-0.7,0.6
	s-0.7,0.3-0.9,0.2c-0.2-0.1-0.5-0.3-0.6-0.6l-1.1-2.3c-0.2-0.3-0.2-0.6-0.1-0.9c0.1-0.2,0.3-0.4,0.7-0.6c0.4-0.2,0.7-0.2,0.9-0.2
	c0.2,0.1,0.4,0.2,0.6,0.5l0.1,0.1l7.4-3.6l-0.1-0.1c-0.1-0.3-0.1-0.5,0-0.8c0.1-0.2,0.3-0.4,0.7-0.6c0.4-0.2,0.7-0.2,0.9-0.2
	c0.2,0.1,0.5,0.3,0.6,0.6l0.6,1.3c0.1,0.3,0.2,0.5,0.2,0.7S458.5,63.8,458.3,64.1"/>
<path class="st0" d="M463.4,91.4l1.2-0.1l-0.5-4.1l-2.8,0.3l0.2,1.5h0.1c0.4,0,0.7,0,1,0.1c0.2,0.1,0.3,0.3,0.4,0.6
	c0,0.3,0,0.5-0.2,0.7s-0.4,0.3-0.7,0.3H462c-0.1,0-0.2,0-0.2,0l-2.3,0.3c-0.5,0.1-0.8,0-1.1-0.1c-0.2-0.1-0.4-0.3-0.4-0.6
	s0-0.5,0.2-0.7s0.5-0.3,0.9-0.3h0.2l-0.2-1.5l-3.3,0.4l0.5,4.1l1.3-0.1c0.5,0,0.9,0,1.1,0.1s0.4,0.4,0.4,0.7s0,0.6-0.2,0.7
	c-0.2,0.2-0.5,0.3-1,0.3l-2.7,0.3c-0.4,0-0.7,0-0.8-0.1c-0.1-0.1-0.2-0.3-0.3-0.7l-0.8-7.2c0-0.4,0-0.7,0.2-0.9s0.5-0.3,0.9-0.4
	c0.4,0,0.7,0,0.9,0.1c0.2,0.1,0.3,0.4,0.4,0.7V86l8.2-0.9v-0.2c0-0.3,0-0.5,0.2-0.7s0.5-0.3,0.9-0.3s0.7,0,1,0.1
	c0.2,0.1,0.3,0.4,0.4,0.8l0.8,7.2c0,0.4,0,0.6-0.1,0.7c-0.1,0.1-0.4,0.2-0.8,0.3l-2.5,0.3c-0.5,0.1-0.9,0-1.1-0.1s-0.4-0.3-0.4-0.7
	c0-0.3,0-0.6,0.2-0.8C462.6,91.6,462.9,91.5,463.4,91.4"/>
<path class="st0" d="M464.4,101l0.1-0.8l-8.2-0.6l-0.3,4l2,0.1c0.5,0,0.9,0.1,1.1,0.3s0.3,0.4,0.3,0.7s-0.1,0.6-0.4,0.7
	c-0.2,0.1-0.6,0.2-1.1,0.1l-3.4-0.3c-0.4,0-0.7-0.1-0.8-0.3c-0.1-0.1-0.2-0.4-0.1-0.8l0.6-8c0-0.4,0.2-0.6,0.4-0.8
	c0.2-0.1,0.5-0.2,1-0.2c0.4,0,0.7,0.1,0.9,0.3c0.2,0.2,0.2,0.5,0.2,0.8l-0.1,0.8l8.2,0.6l0.1-0.8c0-0.4,0.1-0.6,0.4-0.8
	c0.2-0.1,0.5-0.2,0.9-0.2s0.7,0.1,0.9,0.3c0.2,0.2,0.3,0.5,0.2,0.8l-0.3,3.8c0,0.4-0.1,0.6-0.4,0.8c-0.2,0.2-0.5,0.2-0.9,0.2
	s-0.7-0.1-0.9-0.3C464.5,101.6,464.4,101.4,464.4,101"/>
<path class="st0" d="M460.7,115.2l1.1,0.3l1.1-4l-2.7-0.7l-0.4,1.5h0.1c0.4,0.1,0.7,0.3,0.9,0.5s0.2,0.4,0.1,0.7s-0.2,0.4-0.4,0.6
	c-0.2,0.1-0.5,0.1-0.8,0.1h-0.1c-0.1,0-0.2,0-0.2-0.1l-2.2-0.6c-0.5-0.1-0.8-0.3-1-0.5s-0.2-0.4-0.1-0.7s0.2-0.5,0.5-0.6
	c0.2-0.1,0.5-0.1,0.9,0l0.2,0.1l0.4-1.5l-3.2-0.9l-1.1,4l1.3,0.3c0.5,0.1,0.8,0.3,1,0.5s0.2,0.5,0.1,0.8s-0.3,0.5-0.5,0.6
	s-0.6,0.1-1.1-0.1l-2.6-0.7c-0.4-0.1-0.6-0.2-0.7-0.4s-0.1-0.4,0-0.8l1.9-7c0.1-0.4,0.3-0.6,0.5-0.7c0.2-0.1,0.6-0.1,1,0
	s0.6,0.3,0.8,0.5c0.2,0.2,0.2,0.5,0.1,0.8v0.2l7.9,2.1v-0.1c0.1-0.3,0.2-0.5,0.5-0.6c0.2-0.1,0.6-0.1,0.9,0c0.4,0.1,0.7,0.3,0.8,0.5
	c0.1,0.2,0.2,0.5,0.1,0.9l-1.9,7c-0.1,0.3-0.2,0.6-0.4,0.6c-0.2,0.1-0.4,0.1-0.8,0l-2.4-0.6c-0.5-0.1-0.8-0.3-1-0.5
	s-0.2-0.5-0.1-0.8s0.3-0.5,0.5-0.6C459.9,115,460.2,115.1,460.7,115.2"/>
<path class="st0" d="M458.9,127.6c0.2,0.2,0.3,0.4,0.4,0.6c0.1,0.2,0,0.3,0,0.5c-0.1,0.3-0.3,0.4-0.5,0.4s-0.5-0.1-1-0.3l-2.6-1.2
	c-0.5-0.2-0.7-0.4-0.8-0.6c-0.1-0.2-0.1-0.4,0.1-0.8c0.1-0.2,0.3-0.4,0.4-0.4c0.2-0.1,0.5,0,0.9,0c0.7,0.2,1.3,0.1,1.7,0
	c0.4-0.2,0.8-0.5,1-1.1c0.4-0.8,0.3-1.6-0.2-2.4c-0.5-0.8-1.4-1.4-2.7-2.1c-1.3-0.6-2.4-0.9-3.3-0.7c-0.9,0.1-1.6,0.6-1.9,1.4
	c-0.3,0.6-0.3,1.3-0.2,2.2c0.2,0.9,0.2,1.4,0.1,1.6c-0.1,0.2-0.3,0.3-0.6,0.4c-0.3,0-0.6,0-0.9-0.2c-0.6-0.3-0.9-0.9-1.1-2
	c-0.1-1.1,0-2.1,0.5-3.1c0.7-1.4,1.8-2.3,3.3-2.6c1.6-0.3,3.3,0,5.1,0.8c1.8,0.8,3.1,2,3.8,3.4c0.8,1.4,0.9,2.8,0.2,4.2
	c-0.2,0.4-0.4,0.7-0.7,1C459.7,127,459.4,127.3,458.9,127.6"/>
<path class="st0" d="M448.7,135.8l1.9,1.2l1.1-1.5l-6.7-4.7l-1,1.2c-0.2,0.3-0.5,0.5-0.7,0.5c-0.3,0-0.6-0.1-0.9-0.3
	c-0.4-0.2-0.6-0.5-0.6-0.7c-0.1-0.2,0-0.5,0.2-0.9l3-4.3c0.2-0.3,0.5-0.5,0.7-0.5c0.3,0,0.6,0.1,0.9,0.3c0.4,0.2,0.6,0.5,0.6,0.7
	c0.1,0.2,0,0.5-0.3,0.9l-0.9,1.2l6.8,4.7l1.1-1.5l-1.8-1.3l-0.2-0.2c-0.3-0.2-0.5-0.4-0.5-0.7c-0.1-0.2,0-0.5,0.1-0.7
	c0.2-0.3,0.4-0.4,0.7-0.4c0.3,0,0.6,0.1,1,0.4h0.1l2.6,2c0.5,0.4,0.8,0.7,0.8,0.9s-0.1,0.4-0.3,0.7l-4.3,6.2
	c-0.2,0.3-0.4,0.5-0.6,0.5s-0.5-0.1-1.1-0.5l-2.8-1.8l-0.1-0.1c-0.4-0.3-0.6-0.5-0.7-0.8c-0.1-0.2,0-0.5,0.2-0.8s0.4-0.4,0.6-0.4
	S448.3,135.5,448.7,135.8"/>
<path class="st0" d="M443.5,144.5c-0.4,0-0.7-0.2-1.1-0.5c-0.4-0.4-0.6-0.8-0.5-1.2c0-0.4,0.3-0.8,0.8-1.4l0.8-0.9l2.2,2.2l-1,1.1
	C444.2,144.3,443.9,144.5,443.5,144.5 M439.7,144.1c0.2,0.7,0.6,1.3,1.2,1.9c0.8,0.8,1.7,1.2,2.6,1.2s1.8-0.5,2.6-1.4l2.9-2.9
	c0.3-0.3,0.4-0.5,0.4-0.8s-0.2-0.5-0.5-0.8s-0.6-0.4-0.8-0.5c-0.3,0-0.5,0.1-0.7,0.3l-0.1,0.1l-5.9-5.8l0.1-0.1
	c0.2-0.2,0.3-0.5,0.3-0.7c0-0.3-0.2-0.5-0.5-0.8s-0.6-0.5-0.9-0.5s-0.5,0.1-0.8,0.4l-1.6,1.6c-0.3,0.3-0.4,0.6-0.4,0.8
	c0,0.3,0.2,0.5,0.5,0.8s0.5,0.4,0.8,0.4s0.5-0.1,0.7-0.3l0.1-0.1l2.1,2l-0.6,0.6c-0.1,0.1-0.2,0.1-0.3,0.1c-0.1,0-0.3,0-0.5-0.1
	l-4.5-1.4l0,0c-0.5-0.1-0.8-0.1-1.1,0.2l-0.8,0.8c-0.3,0.3-0.4,0.6-0.4,0.8c0,0.3,0.2,0.5,0.5,0.8s0.6,0.4,0.8,0.4
	c0.3,0,0.5-0.1,0.8-0.3l0.1-0.1l0.1-0.1l3,1h0.1c0.3,0.1,0.6,0.1,0.8,0.1C439.5,142.8,439.5,143.4,439.7,144.1"/>
<path class="st0" d="M433.4,151.8c-0.8-0.4-1.6-1.1-2.3-2.3c-0.8-1.1-1.2-2.1-1.3-3c-0.1-0.9,0.2-1.5,0.8-2c0.6-0.4,1.3-0.4,2.1-0.1
	c0.8,0.4,1.6,1.1,2.4,2.3c0.8,1.1,1.2,2.1,1.3,3c0.1,0.9-0.2,1.5-0.8,2C435,152.2,434.2,152.2,433.4,151.8 M438.9,150.2
	c0-1.6-0.5-3.2-1.7-4.9c-1.1-1.6-2.5-2.7-4-3.3c-1.5-0.5-2.9-0.4-4,0.4c-1.2,0.8-1.8,2-1.8,3.6s0.5,3.2,1.7,4.9
	c1.1,1.7,2.5,2.7,4,3.3c1.5,0.5,2.9,0.4,4-0.4C438.2,153,438.9,151.8,438.9,150.2"/>
<path class="st0" d="M426.8,158.3l-6.2-5.6l2.5,5.5l0.4-0.2c0.4-0.2,0.6-0.2,0.9-0.1c0.2,0.1,0.4,0.4,0.6,0.7c0.2,0.4,0.2,0.7,0.2,1
	c-0.1,0.2-0.3,0.4-0.6,0.6l-2.3,1c-0.3,0.2-0.6,0.2-0.9,0.1c-0.2-0.1-0.4-0.4-0.6-0.7c-0.2-0.4-0.2-0.7-0.1-0.9
	c0.1-0.3,0.2-0.5,0.5-0.6l0.1-0.1l-4.1-9.1c-0.1-0.3-0.2-0.5-0.2-0.6s0.1-0.2,0.3-0.3l0.8-0.4c0.3-0.1,0.5-0.2,0.6-0.1
	c0.1,0,0.3,0.1,0.4,0.2l6.7,5.9l-2.5-5.5l-0.5,0.2c-0.4,0.2-0.6,0.2-0.9,0.1c-0.2-0.1-0.4-0.3-0.6-0.7c-0.2-0.4-0.2-0.7-0.2-1
	c0.1-0.2,0.3-0.4,0.6-0.6l2.3-1c0.4-0.2,0.6-0.2,0.9-0.1c0.2,0.1,0.4,0.4,0.6,0.8s0.2,0.7,0.1,0.9c-0.1,0.2-0.2,0.4-0.5,0.6
	l-0.1,0.1l3.4,7.5l0.1-0.1c0.3-0.1,0.5-0.1,0.8,0c0.2,0.1,0.4,0.4,0.6,0.7c0.2,0.4,0.2,0.7,0.1,1s-0.3,0.5-0.6,0.6l-1.3,0.6
	c-0.3,0.1-0.6,0.2-0.7,0.1C427.3,158.7,427.1,158.6,426.8,158.3"/>
<path class="st0" d="M411.2,162l1.4-0.4l-2-8l-1.4,0.4c-0.4,0.1-0.7,0.1-0.9-0.1c-0.2-0.1-0.4-0.4-0.5-0.8s-0.1-0.7,0-1
	c0.1-0.2,0.4-0.4,0.8-0.5l5.1-1.3c0.4-0.1,0.7-0.1,0.9,0.1c0.2,0.1,0.4,0.4,0.5,0.8s0.1,0.7,0,0.9c-0.1,0.2-0.4,0.4-0.8,0.5
	l-1.4,0.4l2,8l1.4-0.4c0.4-0.1,0.7-0.1,0.9,0.1c0.2,0.1,0.4,0.4,0.5,0.8s0.1,0.7,0,1c-0.1,0.2-0.4,0.4-0.8,0.5l-5.1,1.3
	c-0.4,0.1-0.7,0.1-0.9-0.1c-0.2-0.1-0.4-0.4-0.5-0.8s-0.1-0.7,0-1C410.5,162.2,410.8,162.1,411.2,162"/>
<path class="st0" d="M400.1,162.5c-0.5-0.7-0.8-1.8-0.9-3.1c-0.1-1.4,0-2.4,0.4-3.2c0.4-0.8,0.9-1.2,1.7-1.3c0.8-0.1,1.4,0.3,1.9,1
	s0.8,1.8,0.9,3.1c0.1,1.4,0,2.4-0.4,3.2c-0.4,0.8-0.9,1.2-1.7,1.3C401.2,163.5,400.6,163.2,400.1,162.5 M401.3,152.4
	c-0.1,0-0.2,0-0.3,0c-1.4,0.1-2.5,0.8-3.4,2.2c-0.8,1.4-1.2,3-1,5s0.7,3.6,1.8,4.8c1,1.2,2.3,1.7,3.7,1.6c1.5-0.1,2.6-0.8,3.4-2.2
	c0.8-1.3,1.2-3,1-5c-0.1-1.5-0.5-2.8-1.2-3.9s-1.5-1.9-2.5-2.2l0.8-1.2c0.3-0.4,0.4-0.7,0.5-0.9c0.1-0.2,0.1-0.5,0.1-0.7
	c0-0.3-0.1-0.5-0.3-0.7c-0.2-0.2-0.4-0.3-0.7-0.3c-0.1,0-0.4,0.2-0.9,0.5s-1,0.5-1.4,0.5c-0.3,0-0.7-0.1-1.4-0.2
	c-0.6-0.2-1.1-0.3-1.5-0.2c-0.6,0-1,0.2-1.4,0.6c-0.4,0.3-0.5,0.7-0.5,1.1c0,0.3,0.1,0.6,0.3,0.8c0.2,0.2,0.4,0.3,0.6,0.3
	c0.1,0,0.3-0.1,0.6-0.3c0.3-0.2,0.5-0.3,0.7-0.3c0.1,0,0.4,0.1,1,0.2c0.5,0.1,1,0.2,1.5,0.1c0.2,0,0.5-0.1,0.7-0.1
	c0.2-0.1,0.5-0.2,0.7-0.3l-0.6,0.9C401.5,152.4,401.4,152.4,401.3,152.4"/>
<path class="st0" d="M391.4,163.3h0.1l0.5-5.7c0.1-1,0-1.8-0.2-2.2c-0.2-0.5-0.7-0.7-1.4-0.8c-0.7-0.1-1.2,0.1-1.5,0.5
	s-0.5,1.1-0.6,2.1l-0.5,5.7h0.1c0.3,0,0.5,0.1,0.7,0.4c0.1,0.2,0.2,0.5,0.2,0.9s-0.1,0.7-0.3,0.9c-0.2,0.2-0.5,0.2-0.9,0.2l-2.2-0.2
	c-0.4,0-0.7-0.1-0.8-0.4c-0.1-0.2-0.2-0.5-0.2-1c0-0.4,0.1-0.7,0.3-0.9c0.2-0.2,0.4-0.3,0.7-0.2h0.1l0.5-5.7
	c0.2-1.8,0.6-3.2,1.3-3.9c0.7-0.8,1.8-1.1,3.2-1c1.5,0.1,2.5,0.6,3.1,1.5s0.8,2.2,0.6,4.1l-0.5,5.7h0.1c0.3,0,0.5,0.1,0.7,0.4
	s0.2,0.5,0.2,0.9s-0.2,0.7-0.3,0.9c-0.2,0.2-0.5,0.2-0.9,0.2l-2.3-0.2c-0.4,0-0.7-0.2-0.8-0.4c-0.2-0.2-0.2-0.5-0.2-1
	c0-0.4,0.1-0.7,0.3-0.9C390.8,163.4,391.1,163.3,391.4,163.3"/>
<path class="st0" d="M375.8,159.5l-0.3,1.1l4,1l0.7-2.7l-1.5-0.4v0.1c-0.1,0.4-0.3,0.7-0.4,0.9c-0.2,0.2-0.4,0.2-0.7,0.1
	c-0.3-0.1-0.4-0.2-0.6-0.4c-0.1-0.2-0.1-0.5-0.1-0.8v-0.1c0-0.1,0-0.2,0-0.2l0.6-2.2c0.1-0.5,0.3-0.8,0.5-1s0.4-0.2,0.7-0.1
	c0.3,0.1,0.5,0.2,0.6,0.5c0.1,0.2,0.1,0.5,0,0.9l-0.1,0.2l1.5,0.4l0.8-3.2l-4-1l-0.3,1.3c-0.1,0.5-0.3,0.8-0.5,1s-0.5,0.2-0.8,0.1
	s-0.5-0.2-0.6-0.5c-0.1-0.2-0.1-0.6,0.1-1.1l0.7-2.6c0.1-0.4,0.2-0.6,0.4-0.7c0.2-0.1,0.4-0.1,0.8,0l7,1.8c0.4,0.1,0.6,0.3,0.7,0.5
	s0.1,0.6,0,1s-0.2,0.6-0.5,0.8c-0.2,0.2-0.5,0.2-0.7,0.1h-0.1l-2,8h0.1c0.3,0.1,0.5,0.2,0.6,0.5s0.1,0.6,0,0.9
	c-0.1,0.4-0.3,0.7-0.5,0.8c-0.2,0.1-0.5,0.2-0.9,0.1l-7-1.8c-0.3-0.1-0.6-0.2-0.7-0.4c-0.1-0.2-0.1-0.4,0-0.8l0.6-2.4
	c0.1-0.5,0.3-0.8,0.5-1s0.5-0.2,0.8-0.1s0.5,0.2,0.6,0.5C375.9,158.7,375.9,159.1,375.8,159.5"/>
<path class="st0" d="M354.1,149.8l1.2,0.9l4.7-6.7l-1.2-0.9c-0.3-0.2-0.5-0.5-0.5-0.7c0-0.3,0.1-0.5,0.3-0.9
	c0.2-0.3,0.5-0.6,0.8-0.6c0.3-0.1,0.5,0,0.9,0.3l4.3,3c0.3,0.2,0.5,0.5,0.5,0.7c0,0.3-0.1,0.6-0.3,0.9c-0.2,0.4-0.5,0.5-0.7,0.6
	s-0.5,0-0.9-0.3l-1.2-0.9l-4.7,6.7l1.2,0.9c0.3,0.2,0.5,0.5,0.5,0.7c0,0.3-0.1,0.6-0.3,0.9c-0.2,0.4-0.5,0.6-0.7,0.6
	c-0.2,0.1-0.5,0-0.9-0.3l-4.3-3c-0.3-0.2-0.5-0.5-0.6-0.7c0-0.2,0.1-0.5,0.3-0.9c0.2-0.4,0.5-0.6,0.7-0.6
	C353.5,149.5,353.8,149.5,354.1,149.8"/>
<path class="st0" d="M346.7,145.3l3.2-7.7l-4.4,4.2l0.3,0.4c0.3,0.3,0.4,0.5,0.4,0.8s-0.2,0.5-0.5,0.8s-0.6,0.4-0.8,0.5
	c-0.3,0-0.5-0.1-0.8-0.4l-1.7-1.8c-0.3-0.3-0.4-0.5-0.4-0.8s0.2-0.5,0.5-0.8s0.6-0.4,0.8-0.4s0.5,0.1,0.7,0.3l0.1,0.1l7.2-6.9
	c0.3-0.2,0.4-0.4,0.5-0.4s0.2,0,0.4,0.2l0.6,0.6c0.2,0.2,0.3,0.4,0.3,0.5s0,0.3-0.1,0.5l-3.3,8.2l4.3-4.1l-0.3-0.4
	c-0.3-0.3-0.4-0.5-0.4-0.8c0-0.2,0.2-0.5,0.5-0.8s0.6-0.5,0.9-0.5s0.5,0.1,0.8,0.4l1.7,1.8c0.3,0.3,0.4,0.5,0.4,0.8
	s-0.2,0.5-0.5,0.8s-0.6,0.4-0.8,0.4c-0.3,0-0.5-0.1-0.7-0.3l-0.1-0.1l-6,5.7l0.1,0.1c0.2,0.2,0.3,0.5,0.3,0.7c0,0.3-0.2,0.5-0.5,0.8
	s-0.6,0.4-0.9,0.5c-0.3,0-0.5-0.1-0.8-0.4l-1-1c-0.2-0.2-0.4-0.5-0.4-0.6C346.5,145.9,346.6,145.7,346.7,145.3"/>
<path class="st0" d="M336.2,132.8c-0.3,0-0.5,0.1-0.7,0c-0.2,0-0.3-0.1-0.4-0.3c-0.2-0.2-0.2-0.5-0.1-0.7s0.3-0.4,0.7-0.7l2.4-1.6
	c0.4-0.3,0.7-0.4,1-0.4c0.2,0,0.4,0.2,0.6,0.5c0.1,0.2,0.2,0.4,0.1,0.6c0,0.2-0.2,0.4-0.5,0.7c-0.5,0.5-0.8,1-0.8,1.4
	c-0.1,0.5,0.1,0.9,0.4,1.4c0.5,0.8,1.2,1.1,2.1,1.1s2-0.4,3.2-1.2s2-1.6,2.4-2.5s0.3-1.6-0.2-2.4c-0.3-0.5-0.9-0.9-1.8-1.3
	c-0.8-0.3-1.3-0.6-1.4-0.7c-0.1-0.2-0.1-0.4,0-0.7s0.3-0.5,0.6-0.7c0.5-0.4,1.3-0.3,2.3,0.1c1,0.4,1.8,1.1,2.4,2.1
	c0.9,1.3,1,2.7,0.5,4.2s-1.6,2.8-3.3,4c-1.6,1.1-3.3,1.6-4.9,1.5s-2.9-0.7-3.7-2c-0.2-0.3-0.4-0.7-0.5-1.1
	C336.4,133.8,336.3,133.4,336.2,132.8"/>
<path class="st0" d="M333.8,121.5c0.5-0.7,1.4-1.3,2.6-1.9c1.2-0.6,2.3-0.8,3.2-0.7c0.9,0.1,1.5,0.5,1.8,1.2s0.2,1.4-0.3,2.1
	c-0.5,0.7-1.4,1.3-2.7,1.9c-1.2,0.6-2.3,0.8-3.2,0.7c-0.9-0.1-1.5-0.5-1.8-1.2C333.2,123,333.3,122.3,333.8,121.5 M334.4,127.2
	c1.6,0.3,3.3,0.1,5.1-0.7c1.8-0.8,3.1-1.9,3.9-3.3c0.8-1.4,0.9-2.7,0.3-4.1c-0.6-1.3-1.7-2.2-3.2-2.5c-1.6-0.3-3.3-0.1-5.1,0.8
	c-1.8,0.8-3.1,1.9-3.9,3.3c-0.8,1.4-0.9,2.7-0.3,4.1C331.8,126,332.8,126.9,334.4,127.2"/>
<path class="st0" d="M329.8,110.9c0.2-0.3,0.5-0.5,1.1-0.7c0.5-0.1,1-0.1,1.3,0.1c0.3,0.2,0.5,0.7,0.7,1.4l0.3,1.2l-3,0.8l-0.4-1.4
	C329.6,111.7,329.6,111.2,329.8,110.9 M332.1,107.8c-0.7-0.2-1.4-0.2-2.2,0c-1.2,0.3-1.9,0.8-2.4,1.6c-0.4,0.8-0.5,1.8-0.2,3l1,3.9
	c0.1,0.4,0.3,0.6,0.5,0.7c0.2,0.1,0.6,0.1,1,0s0.6-0.2,0.8-0.5c0.2-0.2,0.2-0.5,0.1-0.8v-0.1l8-2v0.1c0.1,0.3,0.2,0.5,0.5,0.6
	c0.2,0.1,0.5,0.1,0.9,0s0.7-0.3,0.8-0.5c0.1-0.2,0.2-0.5,0.1-0.9l-0.6-2.2c-0.1-0.4-0.3-0.6-0.5-0.8c-0.2-0.1-0.6-0.1-1,0
	s-0.6,0.2-0.8,0.5c-0.2,0.2-0.2,0.5-0.1,0.8v0.1l-2.8,0.7l-0.2-0.8c0-0.1,0-0.2,0-0.4c0.1-0.1,0.2-0.2,0.3-0.4l3.5-3.1l0,0
	c0.4-0.3,0.5-0.7,0.4-1.1l-0.3-1.1c-0.1-0.4-0.3-0.6-0.5-0.8c-0.2-0.1-0.6-0.1-1,0s-0.7,0.3-0.8,0.5c-0.1,0.2-0.2,0.5-0.1,0.8v0.2
	v0.1l-2.4,2.1l-0.1,0.1c-0.3,0.2-0.4,0.4-0.5,0.6C333.3,108.4,332.8,108,332.1,107.8"/>
<path class="st0" d="M328.3,98.8c0.3-0.4,0.7-0.6,1.2-0.6c0.6,0,1,0.1,1.4,0.4c0.3,0.3,0.5,0.8,0.5,1.5l0.1,1.3l-3.5,0.2l-0.1-1.2
	C327.9,99.7,328,99.2,328.3,98.8 M332.6,96.5c-0.8-0.7-1.9-1-3.3-0.9c-1.3,0.1-2.3,0.5-3,1.3c-0.6,0.8-0.9,1.9-0.8,3.3l0.2,3.6
	c0,0.4,0.1,0.7,0.3,0.8c0.2,0.2,0.5,0.2,0.9,0.2s0.7-0.1,0.9-0.3c0.2-0.2,0.3-0.4,0.3-0.7v-0.1l8.2-0.5v0.1c0,0.3,0.1,0.5,0.4,0.7
	c0.2,0.1,0.5,0.2,0.9,0.2s0.7-0.1,0.9-0.3c0.2-0.2,0.3-0.5,0.2-0.9l-0.2-3c0-0.4-0.1-0.6-0.3-0.8c-0.2-0.1-0.5-0.2-1-0.2
	c-0.4,0-0.7,0.1-0.9,0.3c-0.2,0.2-0.2,0.5-0.2,0.8l0.1,0.9l-2.3,0.1l-0.1-1.5C333.8,98.3,333.4,97.2,332.6,96.5"/>
<path class="st0" d="M329.6,86.6c0.8-0.3,1.9-0.4,3.3-0.2s2.4,0.6,3.1,1.1s1,1.2,0.9,1.9s-0.6,1.3-1.4,1.6s-1.9,0.4-3.3,0.2
	c-1.3-0.2-2.4-0.6-3.1-1.1s-1-1.2-0.9-1.9C328.3,87.4,328.7,86.9,329.6,86.6 M327,91.7c1.1,1.1,2.7,1.8,4.7,2.1s3.7,0.1,5.1-0.7
	c1.4-0.7,2.2-1.8,2.4-3.3c0.2-1.4-0.3-2.7-1.4-3.8s-2.7-1.8-4.7-2.1s-3.7-0.1-5.1,0.7s-2.2,1.8-2.4,3.3
	C325.4,89.3,325.9,90.6,327,91.7"/>
<path class="st0" d="M332.2,75.3c0.3-0.2,0.7-0.1,1.3,0c0.5,0.2,0.8,0.5,1,0.8c0.1,0.4,0.1,0.9-0.2,1.6l-0.4,1.1l-2.9-1.1l0.5-1.4
	C331.6,75.8,331.9,75.5,332.2,75.3 M335.9,74.1c-0.4-0.5-1-1-1.8-1.3c-1.1-0.4-2.1-0.4-2.9,0s-1.4,1.2-1.9,2.3l-1.4,3.8
	c-0.1,0.4-0.1,0.7,0,0.9s0.4,0.4,0.8,0.6c0.4,0.1,0.7,0.2,0.9,0.1c0.3-0.1,0.4-0.3,0.5-0.6l0.1-0.1l7.7,2.9l-0.1,0.1
	c-0.1,0.3-0.1,0.5,0,0.8c0.1,0.2,0.4,0.4,0.7,0.5c0.4,0.2,0.7,0.2,1,0.1c0.2-0.1,0.4-0.3,0.6-0.7l0.8-2.1c0.1-0.4,0.2-0.7,0-0.9
	c-0.1-0.2-0.4-0.4-0.8-0.6c-0.4-0.1-0.7-0.2-0.9-0.1c-0.2,0.1-0.4,0.3-0.5,0.6l-0.1,0.1l-2.7-1l0.3-0.8c0-0.1,0.1-0.2,0.2-0.3
	s0.3-0.1,0.4-0.1l4.7-0.6l0,0c0.5-0.1,0.8-0.3,0.9-0.6l0.4-1c0.1-0.4,0.2-0.7,0-0.9c-0.1-0.2-0.4-0.4-0.8-0.6
	c-0.4-0.1-0.7-0.2-0.9-0.1c-0.2,0.1-0.4,0.3-0.6,0.6l-0.1,0.2v0.1l-3.2,0.3h-0.1c-0.3,0-0.6,0.1-0.8,0.2
	C336.5,75.3,336.3,74.7,335.9,74.1"/>
<path class="st0" d="M338.9,64l-1-0.6l-2.1,3.5l2.4,1.5l0.8-1.3l-0.1-0.1c-0.4-0.2-0.6-0.4-0.7-0.7c-0.1-0.2-0.1-0.5,0.1-0.7
	c0.1-0.2,0.3-0.4,0.6-0.4c0.2,0,0.5,0,0.7,0.2c0,0,0.1,0,0.1,0.1s0.1,0.1,0.2,0.1l2,1.2c0.4,0.3,0.7,0.5,0.8,0.7
	c0.1,0.2,0.1,0.5-0.1,0.8s-0.4,0.4-0.6,0.4s-0.5-0.1-0.9-0.3l-0.2-0.1l-0.8,1.3l2.8,1.7l2.1-3.5l-1.1-0.7c-0.4-0.3-0.7-0.5-0.8-0.7
	c-0.1-0.2-0.1-0.5,0.1-0.8s0.4-0.4,0.6-0.5c0.3,0,0.6,0.1,1,0.4l2.3,1.4c0.3,0.2,0.5,0.4,0.6,0.6c0,0.2,0,0.4-0.2,0.7l-3.7,6.2
	c-0.2,0.3-0.4,0.5-0.7,0.6c-0.3,0-0.6,0-0.9-0.3c-0.3-0.2-0.5-0.4-0.6-0.7c-0.1-0.2-0.1-0.5,0.1-0.8l0.1-0.1l-7.1-4.2l-0.1,0.1
	c-0.1,0.3-0.4,0.4-0.6,0.4c-0.3,0-0.6-0.1-0.9-0.3c-0.4-0.2-0.6-0.5-0.7-0.7s0-0.5,0.2-0.9l3.7-6.2c0.2-0.3,0.4-0.5,0.6-0.5
	s0.4,0.1,0.8,0.3l2.1,1.3c0.4,0.3,0.7,0.5,0.8,0.7c0.1,0.2,0.1,0.5-0.1,0.8s-0.4,0.4-0.7,0.5C339.7,64.4,339.3,64.3,338.9,64
	 M333.7,60l-0.6,5l-0.9-0.2l-0.5-5.2c0,0,0,0,0-0.1c0,0,0,0,0-0.1s0.1-0.1,0.2-0.1s0.2,0,0.3,0l1,0.2l0,0h0.1
	c0.1,0.1,0.2,0.1,0.2,0.2C333.7,59.8,333.7,59.9,333.7,60"/>
<rect x="25" y="19.3" class="st2" width="450" height="219.4"/>
<path class="st0" d="M394.9,145.6c-14,0-27.1-5.1-36.1-14.1c-9.7-9.7-15.3-22.9-15.3-36.2c0-12.1,5.5-23.8,16.5-34.8
	c9.6-9.6,21.7-14.7,34.9-14.7c14.8,0,27.6,4.7,36.2,13.2c9.6,9.5,15.1,22.8,15.1,36.3c0,13.1-5.6,26.2-15.2,35.9
	C421.7,140.5,408.9,145.6,394.9,145.6z M394.9,46.8c-13,0-24.8,5-34.2,14.4C350,72,344.5,83.4,344.5,95.3c0,13.1,5.5,26,15,35.5
	c8.8,8.8,21.7,13.8,35.4,13.8c13.7,0,26.2-5,35.3-14.1c9.5-9.5,14.9-22.3,14.9-35.2c0-13.3-5.4-26.2-14.8-35.6
	C422,51.4,409.4,46.8,394.9,46.8z"/>
<path class="st0" d="M395,172.1c-21.7,0-41.3-7.7-55.2-21.5c-14.9-14.8-23.4-35-23.4-55.4c0-18.6,8.5-36.6,25.2-53.3
	c15.2-15.2,32.7-22.6,53.5-22.6c22.6,0,42.2,7.2,55.3,20.3c14.6,14.6,23,34.8,23,55.5c0,20-8.5,40-23.3,54.9
	C435.9,164.2,416.3,172.1,395,172.1z M395,22.3c-19.9,0-36.7,7.1-51.3,21.7c-16.1,16.1-24.3,33.3-24.3,51.1c0,19.6,8.2,39,22.5,53.3
	c13.2,13.1,32.5,20.7,53.1,20.7c20.5,0,39.3-7.5,52.9-21.2c14.3-14.3,22.4-33.5,22.4-52.7c0-19.9-8.1-39.4-22.1-53.4
	C435.6,29.2,416.7,22.3,395,22.3z"/>
<rect x="25" y="19.3" class="st2" width="448.4" height="219.4"/>
<path class="st0" d="M372.9,101.9C375,99,376,95.4,376,91s-1.1-8-3.1-10.9c-2.2-2.9-5-4.4-8.4-4.4s-6.3,1.5-8.4,4.4
	C354,82.9,353,86.6,353,91c0,3.3,0.7,6.3,2,8.9c1.1,2.2,2.6,3.8,4.3,4.9l-1.1,1.4c-0.6,0.8-1.1,1.5-1.4,2.1s-0.5,1.2-0.5,1.8
	c0,0.9,0.3,1.6,0.8,2.2c0.6,0.7,1.3,1,2.1,1c0.4,0,1-0.2,2.5-1c0.9-0.5,1.8-0.8,2.5-0.8c0.3,0,0.9,0.1,2.5,0.7
	c1.4,0.5,2.6,0.8,3.6,0.8c1.4,0,2.7-0.4,3.7-1.1c1.4-1,1.7-2.2,1.7-3.1c0-0.9-0.2-1.6-0.6-2.2c-0.6-0.9-1.4-1.1-2-1.1
	c-0.3,0-0.7,0.1-1.8,0.6c-0.7,0.3-1,0.4-1.1,0.4s-0.4-0.1-1.7-0.5c-0.2-0.1-0.4-0.1-0.6-0.2C369.8,105.1,371.5,103.8,372.9,101.9z
	 M367.4,97.4c-0.7,1.3-1.7,1.9-2.9,1.9c-1.2,0-2.1-0.6-2.9-1.9c-0.8-1.5-1.2-3.5-1.2-6.2s0.4-4.7,1.2-6.2c0.7-1.3,1.7-1.9,2.9-1.9
	c1.3,0,2.2,0.6,2.9,1.9c0.8,1.4,1.2,3.5,1.2,6.2C368.7,93.8,368.3,95.9,367.4,97.4z"/>
<path class="st0" d="M421.7,97.5c-0.7-1-1.5-1.2-2.1-1.2c-0.4,0-1.1,0.1-3.6,1.8c-3.4,2.3-5.9,1.7-7.3-0.5c-0.9-1.4-1.4-3.6-1.4-6.4
	c0-2.8,0.5-5,1.4-6.4c0.8-1.3,2-1.9,3.6-1.9c1,0,1.8,0.2,2.3,0.7s1,1.4,1.2,2.6c0.2,1,0.5,1.7,1,2.2c0.3,0.4,0.9,0.8,2,0.8
	s1.9-0.3,2.3-1c0.4-0.6,0.6-1.4,0.6-2.8v-6c0-1.2-0.2-2-0.5-2.6c-0.3-0.5-0.9-1.1-2.2-1.1c-0.6,0-1.2,0.2-1.7,0.6
	c-0.2,0.2-0.3,0.4-0.5,0.6c-0.7-0.3-1.4-0.6-2.1-0.8c-0.9-0.3-1.9-0.4-2.9-0.4c-3.5,0-6.3,1.5-8.6,4.5c-2.2,2.9-3.3,6.6-3.3,10.9
	c0,4.5,1.1,8.2,3.2,11.1c2.2,2.9,5.1,4.4,8.7,4.4c2.6,0,5-0.7,7-2c2.2-1.4,3.4-3,3.4-4.7C422.4,99,422.1,98.2,421.7,97.5z"/>
<path class="st0" d="M387.9,95.5c-1.4,0-2.6,0.5-3.6,1.6c-0.9,1-1.3,2.3-1.3,3.8s0.4,2.8,1.3,3.8s2.1,1.6,3.6,1.6s2.7-0.5,3.6-1.6
	c0.9-1,1.3-2.3,1.3-3.8s-0.4-2.8-1.3-3.8C390.6,96,389.4,95.5,387.9,95.5z"/>
<path class="st0" d="M438.3,97c-0.9-1-2.1-1.5-3.6-1.5c-1.4,0-2.6,0.5-3.6,1.6c-0.9,1-1.3,2.3-1.3,3.8s0.4,2.8,1.3,3.8
	s2.1,1.5,3.6,1.5s2.7-0.5,3.6-1.6c0.9-1,1.3-2.3,1.3-3.8C439.6,99.3,439.2,98,438.3,97z"/>
<rect x="25" y="19.3" class="st2" width="450" height="219.4"/>
</svg>
