<?xml version="1.0" encoding="utf-8"?>
<!-- Generator: Adobe Illustrator 19.1.0, SVG Export Plug-In . SVG Version: 6.00 Build 0)  -->
<svg version="1.1" id="Calque_1" xmlns="http://www.w3.org/2000/svg" xmlns:xlink="http://www.w3.org/1999/xlink" x="0px" y="0px"
	 viewBox="-88 219.1 321.9 62.9" style="enable-background:new -88 219.1 321.9 62.9;" xml:space="preserve">
<style type="text/css">
	.st0{fill:#ED6E21;}
</style>
<path class="st0" d="M-56.6,225.9H-77V258h15.1v-20.1h5.3c0,0,7.8,0.8,7.8,12.9c0,0-0.3,3.7-1.8,7.2H-35c0.9-3.9,1-6.6,1-6.6
	C-34,225.3-56.6,225.9-56.6,225.9"/>
<path class="st0" d="M110.9,274.6h15.2v0.5h-15.2V274.6z M138.5,225.9H98.2v11.8h12.7V258h15.2v-20.3h12.4L138.5,225.9z
	 M110.9,260.4h15.2v3.3h-15.2V260.4z M110.9,270.5h15.2v1.8h-15.2V270.5z M110.9,266.2h15.2v2.1h-15.2V266.2z M143.2,268.3h33.5
	c0.5-0.6,1-1.4,1.5-2.1h-36.4C142.2,266.9,142.7,267.7,143.2,268.3 M148.2,272.4h23.5c1-0.6,1.9-1,2.8-1.8h-29.2L148.2,272.4
	 M160,225.3c-12.4,0-22.7,11.7-22.7,26.2v0.1c0,2.4,0.3,4.3,0.9,6.4h16.1c-0.1-0.1-0.1-0.2-0.1-0.3h0.1c-1.4-2-2-4.2-2-7.4v-0.1
	c0-5.8,3.4-10.5,7.8-10.5c4.1,0,7.7,4.7,7.7,10.5c0,3.2-0.9,5.5-2.4,7.5h0.1c-0.1,0.1-0.1,0.2-0.1,0.3h16.4c0.5-2.2,0.8-4.1,0.8-6.5
	C182.5,237,172.4,225.3,160,225.3 M160,261c-1.1,0-2.1-0.3-2.9-0.6h-18.3c0.4,1.2,0.9,2.3,1.5,3.3h39.1c0.6-1.1,1.1-2.1,1.5-3.3
	h-18.5C161.7,260.7,160.9,261,160,261 M160,275.8c2.5,0,4.8-0.4,7.1-1.1h-14.2C155.2,275.4,157.5,275.8,160,275.8"/>
<path class="st0" d="M184.5,260.4h14.4v3.3h-14.4V260.4z M184.5,266.2h14.4v2.1h-14.4V266.2z M184.5,270.5h14.4v1.8h-14.4V270.5z
	 M203.3,245.9h-4.4v-11.7h4.4c0,0,3.6,0,3.6,5.9C206.8,240.1,206.7,245.9,203.3,245.9 M220.2,257.8h0.2c-2.8-5.6-4.9-7.2-4.9-7.2
	c5.2-2.1,5.2-10.6,5.2-10.6c0-14.2-13.5-14-13.5-14h-22.8v32.1h14.4v-4.6c2.5-1.1,5,1,7.2,4.6h14.2
	C220.3,257.9,220.3,257.9,220.2,257.8 M96.1,253.6H94l0.1,0.3h2.1C96.2,253.7,96.1,253.7,96.1,253.6 M96.3,254.2h-2.1v0.1
	L96.3,254.2 M95.9,252.9h-2.1l0.1,0.3H96L95.9,252.9"/>
<path class="st0" d="M184.5,274.6h14.4v0.5h-14.4V274.6z M221.5,260.4h-14.1l1.7,3.3H223C222.4,262.5,221.9,261.5,221.5,260.4"/>
<path class="st0" d="M-77,268.3h37.9l1.2-2.1H-77C-77,266.2-77,268.3-77,268.3z M-77,275.4l23.4,0.1c2.2,0,4.1-0.3,5.8-0.8H-77
	V275.4z M-77,272.4h33.7c0.9-0.6,1.7-1.1,2.4-1.8H-77C-77,270.6-77,272.4-77,272.4z M-56.3,263.2h-5.6v-2.8H-77v3.3h40.2
	c0.5-1.2,0.9-2.2,1.3-3.3h-16.3C-52.9,261.9-54.3,263.2-56.3,263.2"/>
<path class="st0" d="M57.9,266.2l-0.6,2.1h16l0.5-1.3h14.9l0.4,1.3h16.1l-0.7-2.1H57.9z M56.5,270.5l-0.8,1.9h16.1l0.7-1.9H56.5z
	 M54.9,274.6l-0.3,0.9h16.1l0.3-0.9H54.9z M81.2,246.1l3.8,10.4h-7.5C77.5,256.5,81.2,246.1,81.2,246.1z M101.7,258l-11.6-32H72.4
	l-11.6,32H101.7L101.7,258z M60,260.4l-1.3,3.4h45.1l-1.3-3.4H60z M89.9,270.5l0.8,1.9h16.1l-0.8-1.9H89.9z M91.5,274.6l0.3,0.9h16
	l-0.2-0.9H91.5z M-32.3,260.4h15.2v3.3h-15.2V260.4z M-32.3,266.2h15.2v2.1h-15.2V266.2z M-32.3,270.5h15.2v1.8h-15.2V270.5z
	 M-32.3,274.6h15.2v0.7h-15.2V274.6z M11.6,262.8c0,0-4,0-7.4-2.4H-14c0.4,1.1,0.8,2.2,1.4,3.3h35.1v-3.3H19
	C18,260.9,14,263.1,11.6,262.8 M-15.4,250.2v0.6c0,1.1,0,3.8,0.8,7.3H1.9l-0.2-0.3h0.2c-1.3-1.7-2.3-3.4-2.5-6.6V251
	c0,0-0.3-12.6,12.1-12.6c0,0,5.5-0.2,10.7,4.2h0.5v-14.2c0,0-2.9-3.1-13.6-3.1C9.1,225.4-15.4,223.8-15.4,250.2 M-4.8,272.4h27.1
	l0.3-0.3v-1.5H-7.8C-6.9,271.3-5.9,271.7-4.8,272.4 M9.1,275.8c0,0,4.9,0,8.9-1.1H0.3C2.8,275.4,5.7,275.8,9.1,275.8 M-9.9,268.3
	h32.4v-2.1h-33.8C-10.9,266.9-10.4,267.7-9.9,268.3"/>
<path class="st0" d="M37,270.5h15.2v1.8H37V270.5z M37,274.6h15.2v0.5H37V274.6z M37,258h15.1v-20.3h12.4v-11.8H24.2v11.8H37v20.1
	V258z M-32.3,225.9V258h15.2v-32.1H-32.3z M37,260.4h15.2v3.3H37V260.4z M37,266.2h15.2v2.1H37V266.2z"/>
</svg>
