<?xml version="1.0" encoding="utf-8"?>
<!-- Generator: Adobe Illustrator 21.0.2, SVG Export Plug-In . SVG Version: 6.00 Build 0)  -->
<svg version="1.1" id="Calque_1" xmlns="http://www.w3.org/2000/svg" xmlns:xlink="http://www.w3.org/1999/xlink" x="0px" y="0px"
	 viewBox="0 0 500 188" style="enable-background:new 0 0 500 188;" xml:space="preserve">
<style type="text/css">
	.st0{fill:#E2001A;}
	.st1{fill:#FFFFFF;}
	.st2{fill:none;}
</style>
<polygon class="st0" points="444.7,170.1 25,170.1 59.8,17.9 475,17.9 "/>
<polygon class="st1" points="358.8,74.8 364.6,44 329.6,44 324.9,44 290.5,44 270.3,153.3 309.3,153.3 316.2,115.7 348.2,115.7 
	353.6,87 321.6,87 323.9,74.8 "/>
<polygon class="st1" points="448.2,74.8 454,44 419,44 414.3,44 380,44 359.7,153.3 398.7,153.3 405.7,115.7 437.6,115.7 443.1,87 
	411,87 413.3,74.8 "/>
<path class="st1" d="M270.2,44c0,8.7-7.1,15.8-15.8,15.8s-15.8-7.1-15.8-15.8h-1.8l-20.3,109.3h35.9L272.7,44H270.2L270.2,44z"/>
<path class="st1" d="M270.2,44L270.2,44c0-8.8-7.1-15.9-15.8-15.9s-15.8,7.1-15.8,15.8l0,0L270.2,44L270.2,44z"/>
<path class="st1" d="M160.1,44c-1.4,0-2.7,0.1-4.1,0.2L120.7,44l0,0H47.8c0,0,61.4,17.7,55.1,52.7l0,0l-10.2,56.5l61.8,0.2v-0.3
	c30.3-0.7,59.4-25.2,59.4-65.3C214,57.8,191.1,44,160.1,44z M152.1,120l-1,0.1l-11.5-0.1l8-45.6l12.8,0.1c0.4,0,0.8-0.1,1.2-0.1
	c9.1,0,12.7,5.8,12.7,18.3C174.2,109.5,160.9,119.7,152.1,120z"/>
<path class="st2" d="M427.6,142.4c0-0.3-0.1-0.6-0.3-0.9c-0.2-0.3-0.4-0.4-0.7-0.6c-0.3-0.1-0.9-0.2-1.8-0.2h-2l0,3.4h2.1
	c1,0,1.7-0.1,2.1-0.5C427.4,143.3,427.6,142.9,427.6,142.4z"/>
<path class="st2" d="M429.8,137.3c-1.5-0.7-2.9-1.1-4.3-1.1c-1.4,0-2.8,0.4-4.1,1.1s-2.4,1.8-3.1,3.1c-0.7,1.3-1.1,2.8-1.1,4.2
	c0,1.5,0.4,2.8,1.1,4.2c0.7,1.3,1.8,2.4,3.1,3.1c1.3,0.7,2.7,1.1,4.2,1.1s2.8-0.4,4.2-1.1c1.3-0.7,2.4-1.8,3.1-3.1s1.1-2.7,1.1-4.2
	s-0.4-2.9-1.1-4.2C432.2,139.1,431.1,138,429.8,137.3z M428,150.2l-1-1.7c-0.8-1.3-1.4-2.2-1.8-2.5c-0.3-0.2-0.8-0.4-1.4-0.4h-1v4.6
	h-1.7v-10.8h3.7c1.3,0,2.2,0.1,2.8,0.3s1,0.5,1.4,1c0.3,0.5,0.5,1,0.5,1.6c0,0.8-0.3,1.5-0.8,2.1c-0.6,0.6-1.3,0.9-2.3,1
	c0.4,0.2,0.7,0.4,0.9,0.6c0.4,0.4,1,1.1,1.6,2.1l1.3,2.1H428z"/>
<path class="st1" d="M427.3,146c-0.2-0.2-0.5-0.4-0.9-0.6c1-0.1,1.7-0.4,2.3-1c0.5-0.6,0.8-1.3,0.8-2.1c0-0.6-0.2-1.1-0.5-1.6
	c-0.4-0.5-0.8-0.8-1.4-1s-1.5-0.3-2.8-0.3h-3.7v10.8h1.7v-4.6h1c0.6,0,1.1,0.2,1.4,0.4c0.4,0.3,1,1.2,1.8,2.5l1,1.7h2.2l-1.3-2.1
	C428.3,147.1,427.7,146.4,427.3,146z M424.9,144.1h-2.1l0-3.4h2c0.9,0,1.5,0.1,1.8,0.2c0.3,0.2,0.5,0.3,0.7,0.6
	c0.2,0.3,0.3,0.6,0.3,0.9c0,0.5-0.2,0.9-0.6,1.2C426.6,144,425.9,144.1,424.9,144.1z"/>
<path class="st1" d="M434.2,139.5c-0.9-1.6-2.2-2.8-3.8-3.7c-1.6-0.9-3.2-1.3-4.9-1.3s-3.3,0.5-4.9,1.3c-1.6,0.8-2.9,2.1-3.8,3.7
	c-0.9,1.6-1.3,3.2-1.3,5c0,1.7,0.4,3.4,1.3,5c0.9,1.6,2.1,2.8,3.7,3.7c1.6,0.9,3.3,1.3,5,1.3s3.4-0.4,5-1.3c1.6-0.9,2.8-2.1,3.7-3.7
	c0.9-1.6,1.3-3.3,1.3-5S435.1,141.1,434.2,139.5z M432.9,148.8c-0.7,1.3-1.8,2.4-3.1,3.1c-1.4,0.7-2.7,1.1-4.2,1.1s-2.9-0.4-4.2-1.1
	c-1.3-0.7-2.4-1.8-3.1-3.1c-0.7-1.4-1.1-2.7-1.1-4.2c0-1.4,0.4-2.9,1.1-4.2c0.7-1.3,1.8-2.4,3.1-3.1s2.7-1.1,4.1-1.1
	c1.4,0,2.8,0.4,4.3,1.1c1.3,0.7,2.4,1.8,3.1,3.1c0.7,1.3,1.1,2.7,1.1,4.2S433.6,147.5,432.9,148.8z"/>
</svg>
