<?xml version="1.0" encoding="utf-8"?>
<!-- Generator: Adobe Illustrator 19.1.0, SVG Export Plug-In . SVG Version: 6.00 Build 0)  -->
<svg version="1.1" id="Calque_1" xmlns="http://www.w3.org/2000/svg" xmlns:xlink="http://www.w3.org/1999/xlink" x="0px" y="0px"
	 viewBox="0 0 500 500" style="enable-background:new 0 0 500 500;" xml:space="preserve">
<style type="text/css">
	.st0{fill:#182A7B;}
</style>
<g>
	<g>
		<path class="st0" d="M362.3,206.8c2.7-58.8-41.9-102.8-41.9-102.8L399.1,25H38.5l77.7,77.9c0,0-45.3,43.9-42.6,102.8
			c0,0-2.8,58,42.1,102.5l-77.3,77.5h360.7l-78-78.6C366,262.5,362.3,206.8,362.3,206.8z M280.4,267.5l-61.7-61.5l-62.2,62
			c0,0-58.5-58.1,0.4-124.7l61.3,62l61.7-61.1C338.9,210.7,280.4,267.5,280.4,267.5z"/>
		<polygon class="st0" points="218.2,205.2 218,205.3 218.6,205.9 218.8,205.8 		"/>
	</g>
	<g>
		<path d="M63.9,418c0-1.9,0-3.7,6.7-3.7c17.9,0,25.9,2.6,32.8,6.6c9.8,5.9,13.2,13.6,13.2,21.6c0,27.6-35,27.6-44.2,27.6
			c-6.8,0-8.5-0.7-8.5-3.9C63.9,466.3,63.9,418,63.9,418z M36.8,473.7h40.5c43.6,0,54.8-18.6,54.8-31.2c0-21.3-22.6-31.6-56.8-31.6
			H36.8v1.8c11,0.6,12.5,1.5,12.5,8.5v42.2c0,6.6-1.7,8.2-12.5,8.5V473.7z"/>
		<path d="M139.9,471.9c12.1-0.2,13.8-1.8,13.8-8.5v-42.2c0-7-2-8.2-13.8-8.5v-1.8h42.3v1.8c-10.4,0.3-14,0.9-14,8.5v42.2
			c0,7.4,3.4,8.3,14,8.5v1.8h-42.3L139.9,471.9L139.9,471.9z"/>
		<path d="M285.8,441.8c-6.3,0.4-10,0.6-10,7.3v19.1c0,1.3-18.9,6.8-34.6,6.8c-14.1,0-29.9-2.9-40-10.2
			c-7.5-5.5-11.8-11.1-11.8-23.6c0-15.9,18.5-31.8,48.7-31.8c14.4,0,20.9,3.1,25.5,3.1c1.1,0,5.8-0.5,6.7-3.1h3.1l1.1,20h-3.3
			c-3.9-6.8-11.3-16.2-31.2-16.2c-13.5,0-34.5,6-34.5,30c0,17.2,14.8,27.9,36.9,27.9c9.7,0,19.5-2.2,19.5-5.6v-15.4
			c0-7.9-2.9-8-12.5-8.5V440h36.3V441.8z"/>
		<path d="M290.2,471.9c12.1-0.2,13.8-1.8,13.8-8.5v-42.2c0-7-2-8.2-13.8-8.5v-1.8h42.3v1.8c-10.4,0.3-14,0.9-14,8.5v42.2
			c0,7.4,3.4,8.3,14,8.5v1.8h-42.3L290.2,471.9L290.2,471.9z"/>
		<path d="M399.4,473.7h-41.6v-1.8c13-0.4,13.4-2.6,13.4-9.6v-47.5h-7.7c-15.7,0-19.5,1.8-22.6,12.2h-3.4l0.9-16.1h80.3l0.9,16.1
			h-3.4c-3-10.4-7-12.2-22.6-12.2h-7.7v48.5c0,6.4,1.7,8.3,13.7,8.5L399.4,473.7L399.4,473.7z"/>
		<path d="M441,416.7h2.3c2.2,0,4,0.8,4,2.9c0,2-1.1,3.5-3.9,3.5H441L441,416.7L441,416.7z M434.5,416.5c1.3,0.2,2.8,0.2,2.8,1.2
			v9.8c0,1.6,0,1.6-2.8,1.8v0.6h9.2v-0.6c-2.9-0.2-2.8-0.2-2.8-1.8v-3.8h2.7c3.6,3.6,5.1,6.2,6.9,6.2h3.7v-0.3
			c-1.1-0.6-2.8-1.9-4.3-3.2l-3.2-3c2.6-0.6,4.5-2,4.5-4c0-2.4-3.2-3.5-6.5-3.5h-10.1L434.5,416.5L434.5,416.5z M463.2,423.2
			c0-7.3-8.5-13.1-19.4-13.1c-11.1,0-19.6,5.9-19.6,13.1c0,7.2,8.5,13.1,19.6,13.1C454.7,436.2,463.2,430.4,463.2,423.2z
			 M460.1,423.2c0,6.1-7.2,11.5-16.2,11.5c-9.2,0-16.5-5.4-16.5-11.5c0-6.1,7.2-11.6,16.5-11.6C452.9,411.6,460.1,417,460.1,423.2z"
			/>
	</g>
</g>
</svg>
