<?xml version="1.0" encoding="utf-8"?>
<!-- Generator: Adobe Illustrator 21.0.2, SVG Export Plug-In . SVG Version: 6.00 Build 0)  -->
<svg version="1.1" id="Calque_1" xmlns="http://www.w3.org/2000/svg" xmlns:xlink="http://www.w3.org/1999/xlink" x="0px" y="0px"
	 viewBox="0 0 500 200" style="enable-background:new 0 0 500 200;" xml:space="preserve">
<style type="text/css">
	.st0{fill:#E2A200;}
</style>
<g>
	<path d="M73.3,62.9H24.2V181h55.5c36.1,0,61.5-26.4,61.5-59.1C141.2,93.6,121.8,62.9,73.3,62.9z M98.4,127.4
		c-1.8,16.1-12.4,26.4-21.9,26.4H64.1v-5v-54v-5h12.4c11.3,0,20,11.4,21.9,26.4c0.2,1.8,0.4,3.7,0.4,5.6S98.6,125.5,98.4,127.4z"/>
	<polygon points="356.3,180.3 312.2,180.3 312,180.3 289.4,136.4 275.6,153.4 275.6,180.3 237.1,180.3 237.1,62.9 275.5,62.9 
		275.6,111.7 312.3,62.9 348.9,62.9 315.3,106 	"/>
	<polygon points="475.8,179.9 376.8,179.9 376.8,62.9 475.8,62.9 475.8,90.3 416.8,90.1 416.8,107.8 464.5,107.4 464.9,134 
		416.8,133.6 416.8,153.1 475.8,153.2 	"/>
	<path class="st0" d="M183.5,77.7c-14.9,0-27.1,12.1-27.1,27.1v75.5h53.8v-71.2v-8.7C208.1,87.5,197,77.7,183.5,77.7z"/>
	<path class="st0" d="M183.5,72.4c12.2,0,22.5-8.2,25.7-19.5h-51.4C161,64.2,171.3,72.4,183.5,72.4z"/>
	<path class="st0" d="M197.8,41.6l10.1-6.8c-3-6.7-8.7-12-15.7-14.4v6.9c0,1.7-1.4,3-3,3s-3-1.4-3-3v-8.2c-0.9-0.1-1.8-0.1-2.7-0.1
		c-0.9,0-1.8,0-2.7,0.1v8.2c0,1.7-1.4,3-3,3c-1.7,0-3-1.4-3-3v-6.9c-7,2.4-12.7,7.7-15.7,14.4l10.1,6.8h-12.1h-2.4
		c-1.4,0-2.5,1.1-2.5,2.5v0.7c0,1.4,1.1,2.5,2.5,2.5h2.2h53.3h2.2c1.4,0,2.5-1.1,2.5-2.5v-0.7c0-1.4-1.1-2.5-2.5-2.5h-2.4H197.8z"/>
</g>
</svg>
