<?xml version="1.0" encoding="utf-8"?>
<!-- Generator: Adobe Illustrator 21.1.0, SVG Export Plug-In . SVG Version: 6.00 Build 0)  -->
<svg version="1.1" id="Calque_1" xmlns="http://www.w3.org/2000/svg" xmlns:xlink="http://www.w3.org/1999/xlink" x="0px" y="0px"
	 viewBox="0 0 500 190" style="enable-background:new 0 0 500 190;" xml:space="preserve">
<style type="text/css">
	.st0{fill:#1D1D1B;}
	.st1{fill:#F29100;}
	.st2{fill-rule:evenodd;clip-rule:evenodd;fill:#F29100;}
	.st3{fill-rule:evenodd;clip-rule:evenodd;fill:#1D1D1B;}
</style>
<g>
	<rect x="82.1" y="51.4" class="st0" width="30.6" height="65.7"/>
	<path class="st0" d="M182.3,51.4h-54.7c0,0-9.8,0.5-9.8,10v28.2h35.2v17.1h-4.7V94.5h-30.4v22.7h54.9c0,0,9.6,0.1,9.6-9.5V78.7
		h-34.1V61.4h4.7v11.7h29.4V51.4z"/>
	<path class="st0" d="M257.7,51.4v65.7h30.1V61.4c0,0,0.2-2.8,2.8-2.8c2.6,0,3,3,3,3v55.6h29.9V61.4c0,0-0.2-10-9.8-10H257.7z"/>
	<path class="st1" d="M193,142.3c3.2,0,6.1-1.7,6.1-5.6c0-3.4-2.6-5.5-6.1-5.5c-3.5,0-6.1,2.1-6.1,5.5
		C186.9,140.6,189.8,142.3,193,142.3z"/>
	<rect x="187.4" y="144.1" class="st1" width="11.1" height="23.7"/>
	<rect x="201.1" y="131.6" class="st1" width="11.1" height="36.2"/>
	<rect x="214.4" y="131.6" class="st1" width="11.1" height="36.2"/>
	<path class="st1" d="M227.4,144.1v13.4c0,7.5,6.3,10.8,12.8,10.8c6.6,0,12.9-3.3,12.9-10.8v-13.4h-11v12.2c0,1.4-0.1,2.9-1.9,2.9
		c-1.8,0-1.9-1.5-1.9-2.9v-12.2H227.4z"/>
	<path class="st1" d="M265.5,144.1H255v23.7h10.7V156c0-1.4,0-3.2,1.6-3.2c1.6,0,1.6,1.8,1.6,3.2v11.7h10.7V156c0-1.4,0-3.2,1.6-3.2
		c1.6,0,1.6,1.8,1.6,3.2v11.7h10.7V153c0-5.1-2.4-9.5-7.8-9.5c-3.5,0-5.6,1.7-6.9,5h-0.3c-1-3.2-3.3-5-6.5-5c-2.9,0-5.7,1.8-6.6,4.7
		h-0.3L265.5,144.1z"/>
	<path class="st1" d="M301.9,142.3c3.2,0,6.1-1.7,6.1-5.6c0-3.4-2.6-5.5-6.1-5.5c-3.5,0-6.1,2.1-6.1,5.5
		C295.8,140.6,298.7,142.3,301.9,142.3z"/>
	<rect x="296.4" y="144.1" class="st1" width="11.1" height="23.7"/>
	<path class="st1" d="M320.6,144.1h-10.8v23.7h11.1v-11.6c0-1.4,0-3.3,1.8-3.3c1.9,0,1.9,2,1.9,3.3v11.6h11.1v-14.6
		c0-5.2-2.2-9.6-7.9-9.6c-3.6,0-5.2,1.7-7.3,4.3h-0.3L320.6,144.1z"/>
	<path class="st2" d="M347.5,155.8c0-1.7,1.1-3.3,2.9-3.3c1.8,0,3,1.3,3,3.2s-0.9,3.6-3,3.6C348.4,159.3,347.5,157.7,347.5,155.8
		 M353,167.8h10.8v-23.7H353l0.3,2.8h-0.3c-1.6-2.3-3.9-3.3-6.6-3.3c-6.4,0-9.9,6.5-9.9,12.5c0,5.8,3.4,12.3,9.6,12.3
		c3.1,0,4.9-1.4,6.9-3.7h0.3L353,167.8z"/>
	<polygon class="st2" points="388.8,145.4 388.8,144.1 365.3,144.1 365.3,153 370.7,153 373.2,152.7 373.2,152.9 370.9,155.6 
		364.2,166.2 364.2,167.8 388.2,167.8 388.2,158.9 381.9,158.9 379.6,159.1 379.6,158.9 382,155.9 	"/>
	<path class="st1" d="M395.3,142.3c3.2,0,6.1-1.7,6.1-5.6c0-3.4-2.6-5.5-6.1-5.5c-3.5,0-6.1,2.1-6.1,5.5
		C389.2,140.6,392.1,142.3,395.3,142.3z"/>
	<rect x="389.7" y="144.1" class="st1" width="11.1" height="23.7"/>
	<path class="st2" d="M416.3,143.5c-7.5,0-13.8,4.4-13.8,12.7c0,7.9,6.7,12.1,13.8,12.1c7.1,0,13.8-4.2,13.8-12.1
		C430.1,147.9,423.8,143.5,416.3,143.5 M416.3,152.6c1.8,0,3.1,1.6,3.1,3.5c0,1.9-1.4,3.3-3.1,3.3c-1.7,0-3.1-1.4-3.1-3.3
		C413.2,154.1,414.4,152.6,416.3,152.6"/>
	<path class="st1" d="M442,144.1h-10.8v23.7h11.1v-11.6c0-1.4,0-3.3,1.8-3.3c1.9,0,1.9,2,1.9,3.3v11.6H457v-14.6
		c0-5.2-2.2-9.6-7.9-9.6c-3.6,0-5.2,1.7-7.3,4.3h-0.3L442,144.1z"/>
	<path class="st2" d="M485.1,157.9c0.6-8.9-5.8-14.3-13.9-14.3c-7.2,0-13.1,4.9-13.1,12.8c0,8.2,6.6,12,13.7,12
		c5.2,0,11.3-2.6,12.8-8.4h-10.8c-0.2,1.1-1.1,2-2.2,2c-2.3,0-2.6-2.1-2.6-4.1H485.1z M469,153c0-1.7,0.8-3.1,2.5-3.1
		c1.6,0,2.7,1.5,2.7,3.1H469z"/>
	<path class="st3" d="M77.2,21.7l-29,29.7H21.9c0,0-8.9,0.5-8.9,10v46.2c0,0,0,9.5,9.6,9.5h54.6V21.7z M46.8,61.4h-2.6
		c0,0-2.4,0.2-2.4,2.5v40.8c0,0-0.2,3,2.4,3h2.6V61.4z"/>
	<path class="st3" d="M187.4,73.1V61.4c0,0,0-10,9.6-10h46.2c0,0,9.6,0.5,9.6,10v55.7H197c0,0-9.6,0.1-9.6-9.5V78.7H224V61.4
		c0,0-0.4-3-3-3c-2.6,0-2.6,3-2.6,3v11.7H187.4z M218.4,89.6c0,0,0.1-2.1,2.9-2.1c2.8,0,2.7,2.1,2.7,2.1v15.7c0,0,0,2.3-2.8,2.3
		c-2.8,0-2.8-2.1-2.8-2.1V89.6z"/>
	<path class="st3" d="M394.2,51.4H338c0,0-9.6,0.5-9.6,10v46.2c0,0,0.2,9.5,9.6,9.5h46.5c0,0,9.6,0.1,9.6-9.5V51.4z M364.1,61.4
		c0,0,0-2.1-2.4-2.1c-2.5,0-2.5,2.1-2.5,2.1v42.7c0,0-0.2,2.1,2.1,2.1c2.3,0,2.8-2.3,2.8-2.3L364.1,61.4z"/>
	<path class="st1" d="M420.3,79.7c0-0.1-0.1-0.2-0.1-0.3c0,0.3-0.1,0.6-0.1,0.9C420.2,80.2,420.3,80,420.3,79.7z"/>
	<path class="st1" d="M420.3,84.3c0-0.3-0.2-0.5-0.5-0.7c0,0.2,0,0.4,0,0.6c0,0.3,0,0.5,0,0.7C420.1,84.8,420.3,84.6,420.3,84.3z"/>
	<path class="st1" d="M420.1,88.3c0,0.3,0.1,0.6,0.1,0.9c0-0.1,0.1-0.2,0.1-0.3C420.3,88.6,420.2,88.4,420.1,88.3z"/>
	<path class="st1" d="M422.1,74c0-0.3-0.2-0.6-0.5-0.7c-0.2,0.5-0.3,0.9-0.5,1.4c0.1,0,0.1,0.1,0.2,0.1
		C421.8,74.8,422.1,74.4,422.1,74z"/>
	<path class="st1" d="M421.3,77.1c0.4,0,0.8-0.4,0.8-0.8c0-0.4-0.4-0.8-0.8-0.8c-0.2,0-0.3,0.1-0.4,0.2c-0.1,0.3-0.2,0.7-0.3,1
		C420.8,76.9,421,77.1,421.3,77.1z"/>
	<circle class="st1" cx="421.3" cy="78.5" r="0.8"/>
	<circle class="st1" cx="421.3" cy="80.8" r="0.8"/>
	<circle class="st1" cx="421.3" cy="83.1" r="0.8"/>
	<circle class="st1" cx="421.3" cy="85.4" r="0.8"/>
	<circle class="st1" cx="421.3" cy="87.7" r="0.8"/>
	<path class="st1" d="M421.3,89.1c-0.4,0-0.8,0.4-0.8,0.8c0,0.4,0.4,0.8,0.8,0.8c0.4,0,0.8-0.4,0.8-0.8
		C422.1,89.5,421.8,89.1,421.3,89.1z"/>
	<path class="st1" d="M422.1,92.2c0-0.4-0.4-0.8-0.8-0.8c-0.3,0-0.5,0.2-0.6,0.4c0.1,0.4,0.2,0.7,0.3,1c0.1,0.1,0.2,0.2,0.4,0.2
		C421.8,93,422.1,92.7,422.1,92.2z"/>
	<path class="st1" d="M422.1,94.5c0-0.4-0.4-0.8-0.8-0.8c-0.1,0-0.1,0-0.1,0.1c0.1,0.5,0.3,0.9,0.5,1.4
		C421.9,95,422.1,94.8,422.1,94.5z"/>
	<path class="st1" d="M423.1,71.4c0.4,0,0.8-0.4,0.8-0.8c0-0.4-0.4-0.8-0.8-0.8c0,0-0.1,0-0.1,0c-0.2,0.4-0.4,0.8-0.6,1.2
		C422.6,71.2,422.9,71.4,423.1,71.4z"/>
	<circle class="st1" cx="423.1" cy="75.2" r="0.8"/>
	<circle class="st1" cx="423.1" cy="79.7" r="0.8"/>
	<circle class="st1" cx="423.1" cy="84.3" r="0.8"/>
	<circle class="st1" cx="423.1" cy="88.8" r="0.8"/>
	<circle class="st1" cx="423.1" cy="93.4" r="0.8"/>
	<path class="st1" d="M423.9,97.9c0-0.4-0.4-0.8-0.8-0.8c-0.3,0-0.5,0.1-0.6,0.3c0.2,0.4,0.4,0.8,0.6,1.3
		C423.6,98.8,423.9,98.4,423.9,97.9z"/>
	<path class="st1" d="M425.5,65.4C425.5,65.4,425.5,65.4,425.5,65.4C425.5,65.4,425.5,65.4,425.5,65.4z"/>
	<path class="st1" d="M425,67.9c0.4,0,0.8-0.4,0.8-0.8c0-0.4-0.4-0.8-0.8-0.8c-0.2,0.4-0.5,0.7-0.7,1.1
		C424.4,67.7,424.6,67.9,425,67.9z"/>
	<circle class="st1" cx="425" cy="69.4" r="0.8"/>
	<circle class="st1" cx="425" cy="71.7" r="0.8"/>
	<circle class="st1" cx="425" cy="74" r="0.8"/>
	<circle class="st1" cx="425" cy="76.3" r="0.8"/>
	<circle class="st1" cx="425" cy="78.5" r="0.8"/>
	<circle class="st1" cx="425" cy="80.8" r="0.8"/>
	<circle class="st1" cx="425" cy="83.1" r="0.8"/>
	<circle class="st1" cx="425" cy="85.4" r="0.8"/>
	<circle class="st1" cx="425" cy="87.7" r="0.8"/>
	<path class="st1" d="M425,89.1c-0.4,0-0.8,0.4-0.8,0.8c0,0.4,0.4,0.8,0.8,0.8c0.4,0,0.8-0.4,0.8-0.8
		C425.8,89.5,425.4,89.1,425,89.1z"/>
	<circle class="st1" cx="425" cy="92.2" r="0.8"/>
	<circle class="st1" cx="425" cy="94.5" r="0.8"/>
	<circle class="st1" cx="425" cy="96.8" r="0.8"/>
	<path class="st1" d="M425,98.2c-0.4,0-0.8,0.4-0.8,0.8c0,0.4,0.4,0.8,0.8,0.8c0.4,0,0.8-0.4,0.8-0.8
		C425.8,98.6,425.4,98.2,425,98.2z"/>
	<path class="st1" d="M425.8,101.3c0-0.4-0.4-0.8-0.8-0.8c-0.3,0-0.5,0.2-0.7,0.4c0.2,0.4,0.5,0.8,0.7,1.1
		C425.4,102.1,425.8,101.8,425.8,101.3z"/>
	<circle class="st1" cx="426.8" cy="66" r="0.8"/>
	<circle class="st1" cx="426.8" cy="70.6" r="0.8"/>
	<circle class="st1" cx="426.8" cy="75.2" r="0.8"/>
	<circle class="st1" cx="426.8" cy="79.7" r="0.8"/>
	<circle class="st1" cx="426.8" cy="84.3" r="0.8"/>
	<circle class="st1" cx="426.8" cy="88.8" r="0.8"/>
	<circle class="st1" cx="426.8" cy="93.4" r="0.8"/>
	<path class="st1" d="M426.8,97.1c-0.4,0-0.8,0.4-0.8,0.8c0,0.4,0.4,0.8,0.8,0.8c0.4,0,0.8-0.4,0.8-0.8
		C427.6,97.5,427.2,97.1,426.8,97.1z"/>
	<circle class="st1" cx="426.8" cy="102.5" r="0.8"/>
	<path class="st1" d="M428.6,63.4c0.4,0,0.8-0.4,0.8-0.8c0-0.4-0.4-0.8-0.8-0.8c-0.1,0-0.2,0.1-0.3,0.1c-0.2,0.2-0.3,0.3-0.5,0.5
		c0,0.1-0.1,0.1-0.1,0.2C427.8,63,428.2,63.4,428.6,63.4z"/>
	<ellipse class="st1" cx="428.6" cy="64.9" rx="0.8" ry="0.8"/>
	<ellipse class="st1" cx="428.6" cy="67.1" rx="0.8" ry="0.8"/>
	<ellipse class="st1" cx="428.6" cy="69.4" rx="0.8" ry="0.8"/>
	<ellipse class="st1" cx="428.6" cy="71.7" rx="0.8" ry="0.8"/>
	<ellipse class="st1" cx="428.6" cy="74" rx="0.8" ry="0.8"/>
	<ellipse class="st1" cx="428.6" cy="76.3" rx="0.8" ry="0.8"/>
	<ellipse class="st1" cx="428.6" cy="78.5" rx="0.8" ry="0.8"/>
	<ellipse class="st1" cx="428.6" cy="80.8" rx="0.8" ry="0.8"/>
	<ellipse class="st1" cx="428.6" cy="83.1" rx="0.8" ry="0.8"/>
	<ellipse class="st1" cx="428.6" cy="85.4" rx="0.8" ry="0.8"/>
	<ellipse class="st1" cx="428.6" cy="87.7" rx="0.8" ry="0.8"/>
	<path class="st1" d="M428.6,89.1c-0.4,0-0.8,0.4-0.8,0.8c0,0.4,0.4,0.8,0.8,0.8c0.4,0,0.8-0.4,0.8-0.8
		C429.4,89.5,429,89.1,428.6,89.1z"/>
	<ellipse class="st1" cx="428.6" cy="92.2" rx="0.8" ry="0.8"/>
	<ellipse class="st1" cx="428.6" cy="94.5" rx="0.8" ry="0.8"/>
	<ellipse class="st1" cx="428.6" cy="96.8" rx="0.8" ry="0.8"/>
	<path class="st1" d="M428.6,98.2c-0.4,0-0.8,0.4-0.8,0.8c0,0.4,0.4,0.8,0.8,0.8c0.4,0,0.8-0.4,0.8-0.8
		C429.4,98.6,429,98.2,428.6,98.2z"/>
	<path class="st1" d="M428.6,100.5c-0.4,0-0.8,0.4-0.8,0.8c0,0.4,0.4,0.8,0.8,0.8c0.4,0,0.8-0.4,0.8-0.8
		C429.4,100.9,429,100.5,428.6,100.5z"/>
	<ellipse class="st1" cx="428.6" cy="103.6" rx="0.8" ry="0.8"/>
	<path class="st1" d="M429.4,105.9c0-0.4-0.4-0.8-0.8-0.8c-0.4,0-0.8,0.4-0.8,0.8c0,0,0,0,0,0.1c0.2,0.2,0.4,0.4,0.6,0.7
		c0.1,0,0.1,0.1,0.2,0.1C429,106.7,429.4,106.3,429.4,105.9z"/>
	<circle class="st1" cx="430.4" cy="61.5" r="0.8"/>
	<circle class="st1" cx="430.4" cy="66" r="0.8"/>
	<circle class="st1" cx="430.4" cy="70.6" r="0.8"/>
	<circle class="st1" cx="430.4" cy="75.2" r="0.8"/>
	<circle class="st1" cx="430.4" cy="79.7" r="0.8"/>
	<circle class="st1" cx="430.4" cy="84.3" r="0.8"/>
	<circle class="st1" cx="430.4" cy="88.8" r="0.8"/>
	<circle class="st1" cx="430.4" cy="93.4" r="0.8"/>
	<path class="st1" d="M430.4,97.1c-0.4,0-0.8,0.4-0.8,0.8c0,0.4,0.4,0.8,0.8,0.8c0.4,0,0.8-0.4,0.8-0.8
		C431.2,97.5,430.8,97.1,430.4,97.1z"/>
	<circle class="st1" cx="430.4" cy="102.5" r="0.8"/>
	<path class="st1" d="M430.4,106.3c-0.4,0-0.8,0.4-0.8,0.8c0,0.4,0.4,0.8,0.8,0.8c0.4,0,0.8-0.4,0.8-0.8
		C431.2,106.6,430.8,106.3,430.4,106.3z"/>
	<path class="st1" d="M433,58c0-0.2-0.1-0.3-0.2-0.4c-0.4,0.3-0.8,0.6-1.2,1c0.1,0.1,0.3,0.2,0.6,0.2C432.7,58.8,433,58.5,433,58z"
		/>
	<ellipse class="st1" cx="432.2" cy="60.3" rx="0.8" ry="0.8"/>
	<ellipse class="st1" cx="432.2" cy="62.6" rx="0.8" ry="0.8"/>
	<ellipse class="st1" cx="432.2" cy="64.9" rx="0.8" ry="0.8"/>
	<ellipse class="st1" cx="432.2" cy="67.1" rx="0.8" ry="0.8"/>
	<ellipse class="st1" cx="432.2" cy="69.4" rx="0.8" ry="0.8"/>
	<ellipse class="st1" cx="432.2" cy="71.7" rx="0.8" ry="0.8"/>
	<ellipse class="st1" cx="432.2" cy="74" rx="0.8" ry="0.8"/>
	<ellipse class="st1" cx="432.2" cy="76.3" rx="0.8" ry="0.8"/>
	<ellipse class="st1" cx="432.2" cy="78.5" rx="0.8" ry="0.8"/>
	<ellipse class="st1" cx="432.2" cy="80.8" rx="0.8" ry="0.8"/>
	<ellipse class="st1" cx="432.2" cy="83.1" rx="0.8" ry="0.8"/>
	<ellipse class="st1" cx="432.2" cy="85.4" rx="0.8" ry="0.8"/>
	<ellipse class="st1" cx="432.2" cy="87.7" rx="0.8" ry="0.8"/>
	<path class="st1" d="M432.2,89.1c-0.4,0-0.8,0.4-0.8,0.8c0,0.4,0.4,0.8,0.8,0.8c0.4,0,0.8-0.4,0.8-0.8
		C433,89.5,432.7,89.1,432.2,89.1z"/>
	<ellipse class="st1" cx="432.2" cy="92.2" rx="0.8" ry="0.8"/>
	<ellipse class="st1" cx="432.2" cy="94.5" rx="0.8" ry="0.8"/>
	<ellipse class="st1" cx="432.2" cy="96.8" rx="0.8" ry="0.8"/>
	<path class="st1" d="M432.2,98.2c-0.4,0-0.8,0.4-0.8,0.8c0,0.4,0.4,0.8,0.8,0.8c0.4,0,0.8-0.4,0.8-0.8
		C433,98.6,432.7,98.2,432.2,98.2z"/>
	<path class="st1" d="M432.2,100.5c-0.4,0-0.8,0.4-0.8,0.8c0,0.4,0.4,0.8,0.8,0.8c0.4,0,0.8-0.4,0.8-0.8
		C433,100.9,432.7,100.5,432.2,100.5z"/>
	<ellipse class="st1" cx="432.2" cy="103.6" rx="0.8" ry="0.8"/>
	<ellipse class="st1" cx="432.2" cy="105.9" rx="0.8" ry="0.8"/>
	<ellipse class="st1" cx="432.2" cy="108.2" rx="0.8" ry="0.8"/>
	<path class="st1" d="M432.2,109.6c-0.2,0-0.4,0.1-0.5,0.2c0.4,0.3,0.8,0.6,1.2,0.9c0.1-0.1,0.1-0.2,0.1-0.3
		C433,110,432.7,109.6,432.2,109.6z"/>
	<path class="st1" d="M434,57.7c0.4,0,0.8-0.4,0.8-0.8c0-0.2-0.1-0.4-0.2-0.6c-0.4,0.3-0.8,0.6-1.2,0.9
		C433.5,57.5,433.7,57.7,434,57.7z"/>
	<ellipse class="st1" cx="434" cy="61.5" rx="0.8" ry="0.8"/>
	<ellipse class="st1" cx="434" cy="66" rx="0.8" ry="0.8"/>
	<ellipse class="st1" cx="434" cy="70.6" rx="0.8" ry="0.8"/>
	<ellipse class="st1" cx="434" cy="75.2" rx="0.8" ry="0.8"/>
	<ellipse class="st1" cx="434" cy="79.7" rx="0.8" ry="0.8"/>
	<ellipse class="st1" cx="434" cy="84.3" rx="0.8" ry="0.8"/>
	<ellipse class="st1" cx="434" cy="88.8" rx="0.8" ry="0.8"/>
	<ellipse class="st1" cx="434" cy="93.4" rx="0.8" ry="0.8"/>
	<path class="st1" d="M434,97.1c-0.4,0-0.8,0.4-0.8,0.8c0,0.4,0.4,0.8,0.8,0.8c0.4,0,0.8-0.4,0.8-0.8
		C434.8,97.5,434.5,97.1,434,97.1z"/>
	<ellipse class="st1" cx="434" cy="102.5" rx="0.8" ry="0.8"/>
	<path class="st1" d="M434,106.3c-0.4,0-0.8,0.4-0.8,0.8c0,0.4,0.4,0.8,0.8,0.8c0.4,0,0.8-0.4,0.8-0.8
		C434.8,106.6,434.5,106.3,434,106.3z"/>
	<path class="st1" d="M434,110.8c-0.3,0-0.5,0.1-0.6,0.3c0.4,0.3,0.8,0.6,1.2,0.9c0.1-0.1,0.2-0.3,0.2-0.5
		C434.8,111.2,434.5,110.8,434,110.8z"/>
	<path class="st1" d="M435.9,56.5c0.4,0,0.8-0.4,0.8-0.8c0-0.2-0.1-0.4-0.2-0.5c-0.4,0.3-0.9,0.5-1.3,0.8
		C435.3,56.3,435.5,56.5,435.9,56.5z"/>
	<ellipse class="st1" cx="435.9" cy="58" rx="0.8" ry="0.8"/>
	<ellipse class="st1" cx="435.9" cy="60.3" rx="0.8" ry="0.8"/>
	<ellipse class="st1" cx="435.9" cy="62.6" rx="0.8" ry="0.8"/>
	<ellipse class="st1" cx="435.9" cy="64.9" rx="0.8" ry="0.8"/>
	<ellipse class="st1" cx="435.9" cy="67.1" rx="0.8" ry="0.8"/>
	<ellipse class="st1" cx="435.9" cy="69.4" rx="0.8" ry="0.8"/>
	<ellipse class="st1" cx="435.9" cy="71.7" rx="0.8" ry="0.8"/>
	<ellipse class="st1" cx="435.9" cy="74" rx="0.8" ry="0.8"/>
	<ellipse class="st1" cx="435.9" cy="76.3" rx="0.8" ry="0.8"/>
	<ellipse class="st1" cx="435.9" cy="78.5" rx="0.8" ry="0.8"/>
	<ellipse class="st1" cx="435.9" cy="80.8" rx="0.8" ry="0.8"/>
	<ellipse class="st1" cx="435.9" cy="83.1" rx="0.8" ry="0.8"/>
	<ellipse class="st1" cx="435.9" cy="85.4" rx="0.8" ry="0.8"/>
	<ellipse class="st1" cx="435.9" cy="87.7" rx="0.8" ry="0.8"/>
	<path class="st1" d="M435.9,89.1c-0.4,0-0.8,0.4-0.8,0.8c0,0.4,0.4,0.8,0.8,0.8c0.4,0,0.8-0.4,0.8-0.8
		C436.6,89.5,436.3,89.1,435.9,89.1z"/>
	<ellipse class="st1" cx="435.9" cy="92.2" rx="0.8" ry="0.8"/>
	<ellipse class="st1" cx="435.9" cy="94.5" rx="0.8" ry="0.8"/>
	<ellipse class="st1" cx="435.9" cy="96.8" rx="0.8" ry="0.8"/>
	<path class="st1" d="M435.9,98.2c-0.4,0-0.8,0.4-0.8,0.8c0,0.4,0.4,0.8,0.8,0.8c0.4,0,0.8-0.4,0.8-0.8
		C436.6,98.6,436.3,98.2,435.9,98.2z"/>
	<path class="st1" d="M435.9,100.5c-0.4,0-0.8,0.4-0.8,0.8c0,0.4,0.4,0.8,0.8,0.8c0.4,0,0.8-0.4,0.8-0.8
		C436.6,100.9,436.3,100.5,435.9,100.5z"/>
	<ellipse class="st1" cx="435.9" cy="103.6" rx="0.8" ry="0.8"/>
	<ellipse class="st1" cx="435.9" cy="105.9" rx="0.8" ry="0.8"/>
	<ellipse class="st1" cx="435.9" cy="108.2" rx="0.8" ry="0.8"/>
	<path class="st1" d="M435.9,109.6c-0.4,0-0.8,0.4-0.8,0.8c0,0.4,0.4,0.8,0.8,0.8c0.4,0,0.8-0.4,0.8-0.8
		C436.6,110,436.3,109.6,435.9,109.6z"/>
	<path class="st1" d="M435.9,111.9c-0.3,0-0.5,0.2-0.7,0.5c0.4,0.3,0.8,0.5,1.3,0.8c0.1-0.1,0.2-0.3,0.2-0.5
		C436.6,112.3,436.3,111.9,435.9,111.9z"/>
	<ellipse class="st1" cx="437.7" cy="56.9" rx="0.8" ry="0.8"/>
	<ellipse class="st1" cx="437.7" cy="61.5" rx="0.8" ry="0.8"/>
	<ellipse class="st1" cx="437.7" cy="66" rx="0.8" ry="0.8"/>
	<ellipse class="st1" cx="437.7" cy="70.6" rx="0.8" ry="0.8"/>
	<ellipse class="st1" cx="437.7" cy="75.2" rx="0.8" ry="0.8"/>
	<ellipse class="st1" cx="437.7" cy="79.7" rx="0.8" ry="0.8"/>
	<ellipse class="st1" cx="437.7" cy="84.3" rx="0.8" ry="0.8"/>
	<ellipse class="st1" cx="437.7" cy="88.8" rx="0.8" ry="0.8"/>
	<ellipse class="st1" cx="437.7" cy="93.4" rx="0.8" ry="0.8"/>
	<path class="st1" d="M437.7,97.1c-0.4,0-0.8,0.4-0.8,0.8c0,0.4,0.4,0.8,0.8,0.8c0.4,0,0.8-0.4,0.8-0.8
		C438.5,97.5,438.1,97.1,437.7,97.1z"/>
	<ellipse class="st1" cx="437.7" cy="102.5" rx="0.8" ry="0.8"/>
	<path class="st1" d="M437.7,106.3c-0.4,0-0.8,0.4-0.8,0.8c0,0.4,0.4,0.8,0.8,0.8c0.4,0,0.8-0.4,0.8-0.8
		C438.5,106.6,438.1,106.3,437.7,106.3z"/>
	<ellipse class="st1" cx="437.7" cy="111.6" rx="0.8" ry="0.8"/>
	<path class="st1" d="M439.5,54.3c0.4,0,0.8-0.4,0.8-0.8c0-0.1-0.1-0.1-0.1-0.2c-0.5,0.2-0.9,0.4-1.3,0.6
		C439,54.1,439.2,54.3,439.5,54.3z"/>
	<circle class="st1" cx="439.5" cy="55.7" r="0.8"/>
	<circle class="st1" cx="439.5" cy="58" r="0.8"/>
	<circle class="st1" cx="439.5" cy="60.3" r="0.8"/>
	<circle class="st1" cx="439.5" cy="62.6" r="0.8"/>
	<circle class="st1" cx="439.5" cy="64.9" r="0.8"/>
	<circle class="st1" cx="439.5" cy="67.1" r="0.8"/>
	<circle class="st1" cx="439.5" cy="69.4" r="0.8"/>
	<circle class="st1" cx="439.5" cy="71.7" r="0.8"/>
	<circle class="st1" cx="439.5" cy="74" r="0.8"/>
	<circle class="st1" cx="439.5" cy="76.3" r="0.8"/>
	<circle class="st1" cx="439.5" cy="78.5" r="0.8"/>
	<circle class="st1" cx="439.5" cy="80.8" r="0.8"/>
	<circle class="st1" cx="439.5" cy="83.1" r="0.8"/>
	<circle class="st1" cx="439.5" cy="85.4" r="0.8"/>
	<circle class="st1" cx="439.5" cy="87.7" r="0.8"/>
	<path class="st1" d="M439.5,89.1c-0.4,0-0.8,0.4-0.8,0.8c0,0.4,0.4,0.8,0.8,0.8c0.4,0,0.8-0.4,0.8-0.8
		C440.3,89.5,439.9,89.1,439.5,89.1z"/>
	<circle class="st1" cx="439.5" cy="92.2" r="0.8"/>
	<circle class="st1" cx="439.5" cy="94.5" r="0.8"/>
	<circle class="st1" cx="439.5" cy="96.8" r="0.8"/>
	<path class="st1" d="M439.5,98.2c-0.4,0-0.8,0.4-0.8,0.8c0,0.4,0.4,0.8,0.8,0.8c0.4,0,0.8-0.4,0.8-0.8
		C440.3,98.6,439.9,98.2,439.5,98.2z"/>
	<path class="st1" d="M439.5,100.5c-0.4,0-0.8,0.4-0.8,0.8c0,0.4,0.4,0.8,0.8,0.8c0.4,0,0.8-0.4,0.8-0.8
		C440.3,100.9,439.9,100.5,439.5,100.5z"/>
	<circle class="st1" cx="439.5" cy="103.6" r="0.8"/>
	<circle class="st1" cx="439.5" cy="105.9" r="0.8"/>
	<circle class="st1" cx="439.5" cy="108.2" r="0.8"/>
	<path class="st1" d="M439.5,109.6c-0.4,0-0.8,0.4-0.8,0.8c0,0.4,0.4,0.8,0.8,0.8c0.4,0,0.8-0.4,0.8-0.8
		C440.3,110,439.9,109.6,439.5,109.6z"/>
	<path class="st1" d="M439.5,111.9c-0.4,0-0.8,0.4-0.8,0.8c0,0.4,0.4,0.8,0.8,0.8c0.4,0,0.8-0.4,0.8-0.8
		C440.3,112.3,439.9,111.9,439.5,111.9z"/>
	<path class="st1" d="M439.5,114.2c-0.2,0-0.4,0.1-0.6,0.3c0.4,0.2,0.9,0.5,1.3,0.6c0,0,0-0.1,0-0.1
		C440.3,114.6,439.9,114.2,439.5,114.2z"/>
	<path class="st1" d="M442,52.6c-0.4,0.1-0.7,0.2-1.1,0.4c0.1,0.1,0.2,0.2,0.4,0.2C441.6,53.2,441.9,52.9,442,52.6z"/>
	<circle class="st1" cx="441.3" cy="56.9" r="0.8"/>
	<circle class="st1" cx="441.3" cy="61.5" r="0.8"/>
	<circle class="st1" cx="441.3" cy="66" r="0.8"/>
	<circle class="st1" cx="441.3" cy="70.6" r="0.8"/>
	<circle class="st1" cx="441.3" cy="75.2" r="0.8"/>
	<circle class="st1" cx="441.3" cy="79.7" r="0.8"/>
	<circle class="st1" cx="441.3" cy="84.3" r="0.8"/>
	<circle class="st1" cx="441.3" cy="88.8" r="0.8"/>
	<circle class="st1" cx="441.3" cy="93.4" r="0.8"/>
	<path class="st1" d="M441.3,97.1c-0.4,0-0.8,0.4-0.8,0.8c0,0.4,0.4,0.8,0.8,0.8c0.4,0,0.8-0.4,0.8-0.8
		C442.1,97.5,441.7,97.1,441.3,97.1z"/>
	<circle class="st1" cx="441.3" cy="102.5" r="0.8"/>
	<path class="st1" d="M441.3,106.3c-0.4,0-0.8,0.4-0.8,0.8c0,0.4,0.4,0.8,0.8,0.8c0.4,0,0.8-0.4,0.8-0.8
		C442.1,106.6,441.7,106.3,441.3,106.3z"/>
	<circle class="st1" cx="441.3" cy="111.6" r="0.8"/>
	<path class="st1" d="M441.3,115.4c-0.1,0-0.1,0.1-0.2,0.1c0.3,0.1,0.5,0.2,0.8,0.3C441.8,115.5,441.6,115.4,441.3,115.4z"/>
	<circle class="st1" cx="443.1" cy="53.5" r="0.8"/>
	<circle class="st1" cx="443.1" cy="55.7" r="0.8"/>
	<circle class="st1" cx="443.1" cy="58" r="0.8"/>
	<circle class="st1" cx="443.1" cy="60.3" r="0.8"/>
	<circle class="st1" cx="443.1" cy="62.6" r="0.8"/>
	<circle class="st1" cx="443.1" cy="64.9" r="0.8"/>
	<circle class="st1" cx="443.1" cy="67.1" r="0.8"/>
	<circle class="st1" cx="443.1" cy="69.4" r="0.8"/>
	<circle class="st1" cx="443.1" cy="71.7" r="0.8"/>
	<circle class="st1" cx="443.1" cy="74" r="0.8"/>
	<circle class="st1" cx="443.1" cy="76.3" r="0.8"/>
	<circle class="st1" cx="443.1" cy="78.5" r="0.8"/>
	<circle class="st1" cx="443.1" cy="80.8" r="0.8"/>
	<circle class="st1" cx="443.1" cy="83.1" r="0.8"/>
	<circle class="st1" cx="443.1" cy="85.4" r="0.8"/>
	<circle class="st1" cx="443.1" cy="87.7" r="0.8"/>
	<path class="st1" d="M443.1,89.1c-0.4,0-0.8,0.4-0.8,0.8c0,0.4,0.4,0.8,0.8,0.8c0.4,0,0.8-0.4,0.8-0.8
		C443.9,89.5,443.6,89.1,443.1,89.1z"/>
	<circle class="st1" cx="443.1" cy="92.2" r="0.8"/>
	<circle class="st1" cx="443.1" cy="94.5" r="0.8"/>
	<circle class="st1" cx="443.1" cy="96.8" r="0.8"/>
	<path class="st1" d="M443.1,98.2c-0.4,0-0.8,0.4-0.8,0.8c0,0.4,0.4,0.8,0.8,0.8c0.4,0,0.8-0.4,0.8-0.8
		C443.9,98.6,443.6,98.2,443.1,98.2z"/>
	<path class="st1" d="M443.1,100.5c-0.4,0-0.8,0.4-0.8,0.8c0,0.4,0.4,0.8,0.8,0.8c0.4,0,0.8-0.4,0.8-0.8
		C443.9,100.9,443.6,100.5,443.1,100.5z"/>
	<circle class="st1" cx="443.1" cy="103.6" r="0.8"/>
	<circle class="st1" cx="443.1" cy="105.9" r="0.8"/>
	<circle class="st1" cx="443.1" cy="108.2" r="0.8"/>
	<path class="st1" d="M443.1,109.6c-0.4,0-0.8,0.4-0.8,0.8c0,0.4,0.4,0.8,0.8,0.8c0.4,0,0.8-0.4,0.8-0.8
		C443.9,110,443.6,109.6,443.1,109.6z"/>
	<path class="st1" d="M443.1,111.9c-0.4,0-0.8,0.4-0.8,0.8c0,0.4,0.4,0.8,0.8,0.8c0.4,0,0.8-0.4,0.8-0.8
		C443.9,112.3,443.6,111.9,443.1,111.9z"/>
	<circle class="st1" cx="443.1" cy="115" r="0.8"/>
	<path class="st1" d="M444.9,53.2c0.4,0,0.8-0.4,0.8-0.8c0-0.4-0.3-0.6-0.6-0.7c-0.3,0.1-0.6,0.1-0.8,0.2c-0.1,0.1-0.2,0.3-0.2,0.5
		C444.1,52.8,444.5,53.2,444.9,53.2z"/>
	<ellipse class="st1" cx="444.9" cy="56.9" rx="0.8" ry="0.8"/>
	<ellipse class="st1" cx="444.9" cy="61.5" rx="0.8" ry="0.8"/>
	<ellipse class="st1" cx="444.9" cy="66" rx="0.8" ry="0.8"/>
	<ellipse class="st1" cx="444.9" cy="70.6" rx="0.8" ry="0.8"/>
	<ellipse class="st1" cx="444.9" cy="75.2" rx="0.8" ry="0.8"/>
	<ellipse class="st1" cx="444.9" cy="79.7" rx="0.8" ry="0.8"/>
	<ellipse class="st1" cx="444.9" cy="84.3" rx="0.8" ry="0.8"/>
	<ellipse class="st1" cx="444.9" cy="88.8" rx="0.8" ry="0.8"/>
	<ellipse class="st1" cx="444.9" cy="93.4" rx="0.8" ry="0.8"/>
	<path class="st1" d="M444.9,97.1c-0.4,0-0.8,0.4-0.8,0.8c0,0.4,0.4,0.8,0.8,0.8c0.4,0,0.8-0.4,0.8-0.8
		C445.7,97.5,445.4,97.1,444.9,97.1z"/>
	<ellipse class="st1" cx="444.9" cy="102.5" rx="0.8" ry="0.8"/>
	<path class="st1" d="M444.9,106.3c-0.4,0-0.8,0.4-0.8,0.8c0,0.4,0.4,0.8,0.8,0.8c0.4,0,0.8-0.4,0.8-0.8
		C445.7,106.6,445.4,106.3,444.9,106.3z"/>
	<ellipse class="st1" cx="444.9" cy="111.6" rx="0.8" ry="0.8"/>
	<path class="st1" d="M445.7,116.2c0-0.4-0.4-0.8-0.8-0.8c-0.4,0-0.8,0.4-0.8,0.8c0,0.1,0.1,0.2,0.1,0.3c0.4,0.1,0.8,0.2,1.1,0.3
		C445.6,116.7,445.7,116.4,445.7,116.2z"/>
	<path class="st1" d="M446.7,52c0.4,0,0.8-0.4,0.8-0.8c0,0,0,0,0,0c-0.5,0.1-1,0.2-1.5,0.3C446.2,51.7,446.4,52,446.7,52z"/>
	<ellipse class="st1" cx="446.7" cy="53.5" rx="0.8" ry="0.8"/>
	<ellipse class="st1" cx="446.7" cy="55.7" rx="0.8" ry="0.8"/>
	<ellipse class="st1" cx="446.7" cy="58" rx="0.8" ry="0.8"/>
	<ellipse class="st1" cx="446.7" cy="60.3" rx="0.8" ry="0.8"/>
	<ellipse class="st1" cx="446.7" cy="62.6" rx="0.8" ry="0.8"/>
	<ellipse class="st1" cx="446.7" cy="64.9" rx="0.8" ry="0.8"/>
	<ellipse class="st1" cx="446.7" cy="67.1" rx="0.8" ry="0.8"/>
	<ellipse class="st1" cx="446.7" cy="69.4" rx="0.8" ry="0.8"/>
	<ellipse class="st1" cx="446.7" cy="71.7" rx="0.8" ry="0.8"/>
	<ellipse class="st1" cx="446.7" cy="74" rx="0.8" ry="0.8"/>
	<ellipse class="st1" cx="446.7" cy="76.3" rx="0.8" ry="0.8"/>
	<ellipse class="st1" cx="446.7" cy="78.5" rx="0.8" ry="0.8"/>
	<ellipse class="st1" cx="446.7" cy="80.8" rx="0.8" ry="0.8"/>
	<ellipse class="st1" cx="446.7" cy="83.1" rx="0.8" ry="0.8"/>
	<ellipse class="st1" cx="446.7" cy="85.4" rx="0.8" ry="0.8"/>
	<ellipse class="st1" cx="446.7" cy="87.7" rx="0.8" ry="0.8"/>
	<path class="st1" d="M446.7,89.1c-0.4,0-0.8,0.4-0.8,0.8c0,0.4,0.4,0.8,0.8,0.8c0.4,0,0.8-0.4,0.8-0.8
		C447.5,89.5,447.2,89.1,446.7,89.1z"/>
	<ellipse class="st1" cx="446.7" cy="92.2" rx="0.8" ry="0.8"/>
	<ellipse class="st1" cx="446.7" cy="94.5" rx="0.8" ry="0.8"/>
	<ellipse class="st1" cx="446.7" cy="96.8" rx="0.8" ry="0.8"/>
	<path class="st1" d="M446.7,98.2c-0.4,0-0.8,0.4-0.8,0.8c0,0.4,0.4,0.8,0.8,0.8c0.4,0,0.8-0.4,0.8-0.8
		C447.5,98.6,447.2,98.2,446.7,98.2z"/>
	<path class="st1" d="M446.7,100.5c-0.4,0-0.8,0.4-0.8,0.8c0,0.4,0.4,0.8,0.8,0.8c0.4,0,0.8-0.4,0.8-0.8
		C447.5,100.9,447.2,100.5,446.7,100.5z"/>
	<ellipse class="st1" cx="446.7" cy="103.6" rx="0.8" ry="0.8"/>
	<ellipse class="st1" cx="446.7" cy="105.9" rx="0.8" ry="0.8"/>
	<ellipse class="st1" cx="446.7" cy="108.2" rx="0.8" ry="0.8"/>
	<path class="st1" d="M446.7,109.6c-0.4,0-0.8,0.4-0.8,0.8c0,0.4,0.4,0.8,0.8,0.8c0.4,0,0.8-0.4,0.8-0.8
		C447.5,110,447.2,109.6,446.7,109.6z"/>
	<path class="st1" d="M446.7,111.9c-0.4,0-0.8,0.4-0.8,0.8c0,0.4,0.4,0.8,0.8,0.8c0.4,0,0.8-0.4,0.8-0.8
		C447.5,112.3,447.2,111.9,446.7,111.9z"/>
	<ellipse class="st1" cx="446.7" cy="115" rx="0.8" ry="0.8"/>
	<path class="st1" d="M446.7,116.5c-0.3,0-0.5,0.2-0.7,0.5c0.5,0.1,1,0.2,1.5,0.3C447.5,116.8,447.2,116.5,446.7,116.5z"/>
	<circle class="st1" cx="448.6" cy="52.4" r="0.8"/>
	<circle class="st1" cx="448.6" cy="56.9" r="0.8"/>
	<circle class="st1" cx="448.6" cy="61.5" r="0.8"/>
	<circle class="st1" cx="448.6" cy="66" r="0.8"/>
	<circle class="st1" cx="448.6" cy="70.6" r="0.8"/>
	<circle class="st1" cx="448.6" cy="75.2" r="0.8"/>
	<circle class="st1" cx="448.6" cy="79.7" r="0.8"/>
	<circle class="st1" cx="448.6" cy="84.3" r="0.8"/>
	<circle class="st1" cx="448.6" cy="88.8" r="0.8"/>
	<circle class="st1" cx="448.6" cy="93.4" r="0.8"/>
	<path class="st1" d="M448.6,97.1c-0.4,0-0.8,0.4-0.8,0.8c0,0.4,0.4,0.8,0.8,0.8c0.4,0,0.8-0.4,0.8-0.8
		C449.4,97.5,449,97.1,448.6,97.1z"/>
	<circle class="st1" cx="448.6" cy="102.5" r="0.8"/>
	<path class="st1" d="M448.6,106.3c-0.4,0-0.8,0.4-0.8,0.8c0,0.4,0.4,0.8,0.8,0.8c0.4,0,0.8-0.4,0.8-0.8
		C449.4,106.6,449,106.3,448.6,106.3z"/>
	<circle class="st1" cx="448.6" cy="111.6" r="0.8"/>
	<circle class="st1" cx="448.6" cy="116.2" r="0.8"/>
	<path class="st1" d="M450.4,52c0.4,0,0.8-0.4,0.8-0.8c0-0.2-0.1-0.3-0.2-0.5c-0.4,0-0.8,0-1.3,0.1c-0.1,0.1-0.2,0.2-0.2,0.4
		C449.6,51.6,449.9,52,450.4,52z"/>
	<ellipse class="st1" cx="450.4" cy="53.5" rx="0.8" ry="0.8"/>
	<ellipse class="st1" cx="450.4" cy="55.7" rx="0.8" ry="0.8"/>
	<ellipse class="st1" cx="450.4" cy="58" rx="0.8" ry="0.8"/>
	<ellipse class="st1" cx="450.4" cy="60.3" rx="0.8" ry="0.8"/>
	<ellipse class="st1" cx="450.4" cy="62.6" rx="0.8" ry="0.8"/>
	<ellipse class="st1" cx="450.4" cy="64.9" rx="0.8" ry="0.8"/>
	<ellipse class="st1" cx="450.4" cy="67.1" rx="0.8" ry="0.8"/>
	<ellipse class="st1" cx="450.4" cy="69.4" rx="0.8" ry="0.8"/>
	<ellipse class="st1" cx="450.4" cy="71.7" rx="0.8" ry="0.8"/>
	<ellipse class="st1" cx="450.4" cy="74" rx="0.8" ry="0.8"/>
	<ellipse class="st1" cx="450.4" cy="76.3" rx="0.8" ry="0.8"/>
	<ellipse class="st1" cx="450.4" cy="78.5" rx="0.8" ry="0.8"/>
	<ellipse class="st1" cx="450.4" cy="80.8" rx="0.8" ry="0.8"/>
	<ellipse class="st1" cx="450.4" cy="83.1" rx="0.8" ry="0.8"/>
	<ellipse class="st1" cx="450.4" cy="85.4" rx="0.8" ry="0.8"/>
	<ellipse class="st1" cx="450.4" cy="87.7" rx="0.8" ry="0.8"/>
	<path class="st1" d="M450.4,89.1c-0.4,0-0.8,0.4-0.8,0.8c0,0.4,0.4,0.8,0.8,0.8c0.4,0,0.8-0.4,0.8-0.8
		C451.2,89.5,450.8,89.1,450.4,89.1z"/>
	<ellipse class="st1" cx="450.4" cy="92.2" rx="0.8" ry="0.8"/>
	<ellipse class="st1" cx="450.4" cy="94.5" rx="0.8" ry="0.8"/>
	<ellipse class="st1" cx="450.4" cy="96.8" rx="0.8" ry="0.8"/>
	<path class="st1" d="M450.4,98.2c-0.4,0-0.8,0.4-0.8,0.8c0,0.4,0.4,0.8,0.8,0.8c0.4,0,0.8-0.4,0.8-0.8
		C451.2,98.6,450.8,98.2,450.4,98.2z"/>
	<path class="st1" d="M450.4,100.5c-0.4,0-0.8,0.4-0.8,0.8c0,0.4,0.4,0.8,0.8,0.8c0.4,0,0.8-0.4,0.8-0.8
		C451.2,100.9,450.8,100.5,450.4,100.5z"/>
	<ellipse class="st1" cx="450.4" cy="103.6" rx="0.8" ry="0.8"/>
	<ellipse class="st1" cx="450.4" cy="105.9" rx="0.8" ry="0.8"/>
	<ellipse class="st1" cx="450.4" cy="108.2" rx="0.8" ry="0.8"/>
	<path class="st1" d="M450.4,109.6c-0.4,0-0.8,0.4-0.8,0.8c0,0.4,0.4,0.8,0.8,0.8c0.4,0,0.8-0.4,0.8-0.8
		C451.2,110,450.8,109.6,450.4,109.6z"/>
	<path class="st1" d="M450.4,111.9c-0.4,0-0.8,0.4-0.8,0.8c0,0.4,0.4,0.8,0.8,0.8c0.4,0,0.8-0.4,0.8-0.8
		C451.2,112.3,450.8,111.9,450.4,111.9z"/>
	<ellipse class="st1" cx="450.4" cy="115" rx="0.8" ry="0.8"/>
	<path class="st1" d="M450.4,116.5c-0.4,0-0.8,0.4-0.8,0.8c0,0.1,0.1,0.2,0.1,0.3c0.4,0,0.9,0.1,1.3,0.1c0.1-0.1,0.2-0.2,0.2-0.4
		C451.2,116.8,450.8,116.5,450.4,116.5z"/>
	<ellipse class="st1" cx="452.2" cy="52.4" rx="0.8" ry="0.8"/>
	<ellipse class="st1" cx="452.2" cy="56.9" rx="0.8" ry="0.8"/>
	<ellipse class="st1" cx="452.2" cy="61.5" rx="0.8" ry="0.8"/>
	<ellipse class="st1" cx="452.2" cy="66" rx="0.8" ry="0.8"/>
	<ellipse class="st1" cx="452.2" cy="70.6" rx="0.8" ry="0.8"/>
	<ellipse class="st1" cx="452.2" cy="75.2" rx="0.8" ry="0.8"/>
	<ellipse class="st1" cx="452.2" cy="79.7" rx="0.8" ry="0.8"/>
	<ellipse class="st1" cx="452.2" cy="84.3" rx="0.8" ry="0.8"/>
	<ellipse class="st1" cx="452.2" cy="88.8" rx="0.8" ry="0.8"/>
	<ellipse class="st1" cx="452.2" cy="93.4" rx="0.8" ry="0.8"/>
	<path class="st1" d="M452.2,97.1c-0.4,0-0.8,0.4-0.8,0.8c0,0.4,0.4,0.8,0.8,0.8c0.4,0,0.8-0.4,0.8-0.8
		C453,97.5,452.6,97.1,452.2,97.1z"/>
	<ellipse class="st1" cx="452.2" cy="102.5" rx="0.8" ry="0.8"/>
	<path class="st1" d="M452.2,106.3c-0.4,0-0.8,0.4-0.8,0.8c0,0.4,0.4,0.8,0.8,0.8c0.4,0,0.8-0.4,0.8-0.8
		C453,106.6,452.6,106.3,452.2,106.3z"/>
	<ellipse class="st1" cx="452.2" cy="111.6" rx="0.8" ry="0.8"/>
	<ellipse class="st1" cx="452.2" cy="116.2" rx="0.8" ry="0.8"/>
	<path class="st1" d="M487,84.2c0-18.6-15-33.6-33.6-33.6v67.2C472,117.8,487,102.8,487,84.2z"/>
</g>
</svg>
