<?xml version="1.0" encoding="utf-8"?>
<!-- Generator: Adobe Illustrator 19.1.0, SVG Export Plug-In . SVG Version: 6.00 Build 0)  -->
<svg version="1.1" id="Calque_1" xmlns="http://www.w3.org/2000/svg" xmlns:xlink="http://www.w3.org/1999/xlink" x="0px" y="0px"
	 viewBox="0 0 500 500" style="enable-background:new 0 0 500 500;" xml:space="preserve">
<style type="text/css">
	.st0{fill:#068C44;}
</style>
<g>
	<path class="st0" d="M91.8,185.7H25V313h66.8c26.5-0.3,40.4-34.6,40.2-64.1C131.8,219.7,118.3,185.7,91.8,185.7z M71.6,292.5
		c-12,0.1-21.7-9.8-21.7-21.8c0-10.6,7.2-19.7,11.2-32.4c4.4-14.1,7-22.6,10.2-36.6c3.2,13.9,6.7,22.5,11.2,36.9
		c4,12.6,10.5,21.5,10.5,32.1C92.9,282.8,83.5,292.5,71.6,292.5z"/>
	<polygon points="451.1,190.6 176.5,190.6 176.5,185.7 451,185.7 	"/>
	<polygon points="451.1,314.3 176.5,314.3 176.5,309.4 451,309.4 	"/>
	<rect x="240.1" y="199.1" width="6.5" height="98.3"/>
	<polygon points="344,199.1 344,297.4 366.4,297.4 366.4,291.3 350.5,291.3 350.5,199.1 	"/>
	<polygon points="400.6,291.3 400.6,297.4 377.2,297.4 377.2,230 371.1,230 371.1,223.9 377.2,223.9 377.2,199.1 400.6,199.1 
		400.6,205.1 383.7,205.1 383.7,223.9 400.6,223.9 400.6,230 383.7,230 383.7,291.3 	"/>
	<polygon points="429.2,226.8 421.2,199.1 413.9,199.1 425.5,239.1 407.5,297.4 415,297.4 429.2,250.5 443.4,297.4 450.9,297.4 
		433.4,239.1 445,199.1 437.3,199.1 	"/>
	<polygon points="305.4,297.3 305.4,230 299.2,230 299.2,223.9 305.4,223.9 305.4,199.1 328.7,199.1 328.7,205.1 311.8,205.1 
		311.8,223.9 328.7,223.9 328.7,230 311.8,230 311.8,297.3 	"/>
	<path d="M184.7,291h-0.5l0-85.5h0.5c23.7,0,43,19.1,43,42.8C227.8,271.9,208.5,291,184.7,291 M184.8,199.1h-6.9v98.3h6.9
		c27.3,0,49.5-22,49.5-49.1C234.2,221.1,212.1,199.1,184.8,199.1"/>
	<path d="M258.8,297.3h8.6c8.6,0,13.5-1.3,18.3-4.7c6.2-4.3,9.9-11.6,9.9-19.3c0-6.6-1.3-9.9-7.9-20.2l-15.6-24.3
		c-3.8-6-4.7-8-4.7-11.1c0-7.2,5.3-11.7,13.9-11.7h7v-6.2h-6.7c-6.6,0-10.3,1-14,4.1c-3.9,3.2-6.5,8.6-6.5,13.7
		c0,5.1,0.6,6.9,5.5,14.2l16.4,25.6c5.7,9,6.5,10.7,6.5,15.8c0,10.9-8.5,17.9-21.9,17.9h-8.8L258.8,297.3L258.8,297.3z"/>
	<path d="M465.2,204.7h3.1c1,0,1.4,0.4,1.4,1.2c0.1,1.1-0.8,1.6-1.3,1.6h-3.1L465.2,204.7L465.2,204.7z M462.9,213.8h2.3v-4.3h2.7
		c0.8,0,1.3,0.4,1.4,1.1c0,0.8,0,1.7,0,2.2c0,0.4,0.1,0.7,0.3,1h2.4v-0.4c-0.2-0.1-0.4-0.3-0.4-0.9c0-0.6,0-2-0.1-2.5
		c-0.1-1-0.8-1.3-1.2-1.5c0.7-0.4,1.2-0.8,1.5-1.7c0.3-1,0.1-1.7-0.1-2.2c-0.3-1.2-1.4-1.7-2.5-1.8h-6.1L462.9,213.8L462.9,213.8z"
		/>
	<path d="M467.2,217.2c-4.7,0-8.6-3.9-8.6-8.6s3.9-8.6,8.6-8.6c4.8,0,8.6,3.9,8.6,8.6S472,217.2,467.2,217.2z M467.2,201.7
		c-3.8,0-6.9,3.1-6.9,6.9c0,3.8,3.1,6.9,6.9,6.9c3.8,0,6.9-3.1,6.9-6.9C474.1,204.8,471,201.7,467.2,201.7z"/>
</g>
</svg>
