<?xml version="1.0" encoding="utf-8"?>
<!-- Generator: Adobe Illustrator 19.1.0, SVG Export Plug-In . SVG Version: 6.00 Build 0)  -->
<svg version="1.1" id="Calque_2" xmlns="http://www.w3.org/2000/svg" xmlns:xlink="http://www.w3.org/1999/xlink" x="0px" y="0px"
	 viewBox="0 0 500 500" style="enable-background:new 0 0 500 500;" xml:space="preserve">
<style type="text/css">
	.st0{fill:#38AADD;}
	.st1{fill:none;stroke:#000000;stroke-width:1.1101;}
	.st2{fill:#FFFFFF;}
</style>
<g>
	<g>
		<path class="st0" d="M148.9,178.1c-0.8-2.9-5.2-9.9-9.8-9.9h-33.6v44.7h33.7l0.1,0c0.3-0.1,7.6-2.6,9.5-8.5
			c0.2-0.5,1.3-3.3,1.1-14.4C149.9,189.6,149.9,181.6,148.9,178.1z M133.9,200.2h-16.6l0.1-19.5l16.7,0c0.2,0,4.3,0.5,4.3,5.2l0,8
			c0,0,0.3,3.2-1.4,5C136.2,199.8,135.2,200.2,133.9,200.2z"/>
		<rect x="152.1" y="168.2" class="st0" width="11.2" height="44.7"/>
		<path class="st0" d="M204.6,186.7c-1.1-1.2-2.6-1.8-4.4-1.8l-20.4,0c-0.1,0-0.8,0-1.5-0.4c-0.8-0.4-1.1-1.2-1.1-2.3
			c-0.1-0.5-0.1-2,0.6-2.8c0.3-0.4,0.8-0.6,1.5-0.6h13.9l0.1,0c0,0,0.1,0,0.1,0c0.9,0,1.4,1.2,1.4,3.2v0.6H206v-7.8
			c0-0.1,0-3-2.1-5.2c-1.6-1.6-3.8-2.4-6.7-2.4l-24.7,0c-0.1,0-5.9,0.4-5.9,7.8v15.1c0,0.1,0,1.5,1.4,2.9c1.8,1.8,5,2.8,9.6,2.8
			l15.3,0c0,0,0.1,0,0.2,0c1,0,2.6,0.4,2.6,3.1c0,0,0.1,1.3-0.6,2c-0.4,0.5-1,0.7-1.9,0.7l-14.5,0c0,0-1.9-0.3-1.9-3.6v-0.6h-10.3
			l0,10.5c0,0.2,0.7,4.9,8.7,4.9h22.1l0,0c0.1,0,9.1-0.8,9.1-7.3l0-12.9C206.4,192.5,206.7,188.9,204.6,186.7z"/>
		<polygon class="st0" points="208.1,180.6 221.2,180.6 221.2,212.8 233.1,212.8 233.1,180.7 247,180.7 247,168.2 208.1,168.2 		"/>
		<path class="st0" d="M288.4,187.4v-9.6c0-8.7-6.1-9.7-6.2-9.7h-33.4v44.7h11.7v-11.1h14.8c0.4,0,0.7,0.1,0.9,0.4
			c0.5,0.6,0.5,1.9,0.5,2.4v8.3h11.7v-13.5c0-3-1.6-4.6-2.9-5.5c0.4-0.2,0.9-0.5,1.2-0.8C288.4,191.1,288.4,187.6,288.4,187.4z
			 M259.9,179.4h15.1c2,0,2.3,2.3,2.4,2.4v4.6c0,2.1-2.8,2.6-2.8,2.6h-14.7L259.9,179.4L259.9,179.4z"/>
		<rect x="292.4" y="168.2" class="st0" width="11.2" height="44.7"/>
		<polygon class="st0" points="319.8,168.2 308.5,168.2 308.5,212.8 339.4,212.8 339.4,200.5 319.8,200.5 		"/>
		<path class="st0" d="M355.7,168.2l-15.5,44.7h12l2.8-8.9h16.7l3,8.9h12.4l-18.2-44.7H355.7z M368.2,193.7H358l4.4-13.2
			L368.2,193.7z"/>
		<path class="st0" d="M425,188.5c0.4-0.2,0.8-0.5,1.1-0.8c1.8-1.8,1.7-4.7,1.7-4.8v-5.2c0-9.4-5.9-9.5-6.2-9.5h-33.8v44.7h32
			c9,0,9.2-7.8,9.2-7.8v-11.4C428.9,190.7,427,189.2,425,188.5z M417.4,198.5c0,2.4-2.5,2.8-2.6,2.8H399v-6.2l15.9,0.1
			C416.6,195.2,417.4,196.3,417.4,198.5z M414.9,184.6H399v-6.2l15.9,0.1c1.7,0,2.5,1.1,2.5,3.3
			C417.4,184.2,414.9,184.6,414.9,184.6z"/>
		<path class="st0" d="M473.3,169.7c-1.5-1.6-3.5-2.4-6.1-2.4c-8.7,0-26.9,0-26.9-0.1c0,0-0.1,0-0.2,0c-0.8,0-7.8,0.3-7.8,10v26.1
			c0,0.2-0.1,5,2.7,7.9c1.3,1.4,3.1,2.1,5.2,2.1h27.1l0,0c0.1,0,8.3-1,8.3-9.9l0-26.1C475.5,177,475.9,172.6,473.3,169.7z
			 M442.2,196.7v-14.4c0-4.2,3.8-4.3,4-4.3h14.4c1.2,0,2.1,0.3,2.8,1c1.2,1.2,1.1,3.2,1.1,3.3v14.4c0,4.2-3.7,4.3-3.9,4.3h-14.4
			c-1.2,0-2.1-0.3-2.8-1C442.1,198.7,442.2,196.7,442.2,196.7z"/>
	</g>
	<path d="M69.1,214"/>
	<path class="st1" d="M69.1,214"/>
	<g>
		<path class="st0" d="M58.6,189v13.1l0,0.1c0.1,0.4,2.6,9.6,10,10l0,105.7c0,0.1,0.5,7.6-4.1,12.6c-2.8,3-6.9,4.6-12.3,4.6
			c-17.5,0-18-15.2-18-15.8l0-104.9c0,0-0.4-2.7,1.2-4.5c1-1.2,2.7-1.8,4.9-1.8c2.3,0,3.9,0.5,4.8,1.4c1,1.1,1,2.5,1,3.3
			c0,0.3,0,0.5,0.1,0.7c0.2,1.3,0.1,15.7,0,25.4c-1.5,0.4-6.4,2.1-6.4,6.5l0,49.1c0,0.2-0.2,4.4,2.8,7.5c2.1,2.2,5.2,3.3,9.1,3.3
			c3.9,0,6.9-1.1,9-3.3c3.2-3.3,3.2-7.9,3.2-8.1V245l0-0.2c-0.1-0.2-2.4-5.3-5.8-5.8v-26.4c0-0.3,0.2-6.7-4.4-11.4
			c-3-3.1-7.3-4.7-12.8-4.7c-5.7,0-10,1.6-12.8,4.7c-4.1,4.5-3.5,10.4-3.5,10.6l0,109.3c0,0.2,2,24.9,27.7,24.9
			c25.7,0,28.3-27.4,28.3-27.7V212.7c1.9-0.8,10.3-4.5,10.3-10.4V189L58.6,189L58.6,189z"/>
		<path class="st2" d="M90.3,190.6v-18.4c0,0-1.3-8.7-7.9-8.7c0,0-0.6-8.9-8-8.9H75c-7.5,0-8,8.9-8,8.9c-6.6,0-7.9,8.7-7.9,8.7v18.4
			"/>
		<g>
			<path class="st0" d="M90.8,190.6h-1.1v-18.4c0,0-1.3-8.1-7.3-8.1h-0.5l0-0.5c0-0.3-0.6-8.1-7.1-8.4c-6.6,0.3-7.1,8.1-7.1,8.4
				l0,0.5H67c-6.1,0-7.3,8.1-7.3,8.2l0,18.4h-1.1v-18.4c0-0.2,1.4-8.8,8-9.2c0.3-1.9,1.6-8.5,7.8-8.9v0l0.7,0c6.2,0.5,7.6,7,7.8,8.9
				c6.6,0.4,7.9,9,7.9,9.1L90.8,190.6z"/>
		</g>
	</g>
	<path d="M174.5,234.7l0.5,0.1l0.4-0.1c0.4,0,0.6,0.3,0.7,0.9l0,0.3c0.1,0.5,0.2,0.9,0.2,1.3c0,0.4,0.1,0.7,0.2,0.9
		c0.1,0.2,0.2,0.3,0.2,0.4l-0.1,0.2c0,0,0,0.1,0,0.1c0,0.2,0.1,0.3,0.3,0.5c0.2,0.2,0.3,0.3,0.3,0.4c0,0.3-0.2,0.5-0.7,0.5
		c-0.1,0-0.3,0-0.4,0c-0.2,0-0.3,0-0.4,0h-0.1l-0.2,0c-0.1,0-0.1-0.1-0.3-0.2c-0.1-0.1-0.3-0.4-0.7-0.7l-0.1-0.1v-0.5
		c-0.3-0.4-0.5-0.7-0.5-0.8c-0.1-0.1-0.2-0.4-0.2-0.7l-0.6-1.4c-0.1-0.2,0.1-0.5,0.6-0.9L174.5,234.7z M174.1,248.8
		c0.1-0.3,0.2-0.6,0.5-0.7c0.3-0.2,0.5-0.3,0.5-0.5c0.3-0.2,0.7-0.6,1.2-1.1c0.5-0.5,0.8-0.8,0.8-1c0,0,0-0.1-0.1-0.1h0l-0.2,0.1
		l-0.4,0l-0.4,0l-0.3-0.2l-0.3,0l-0.4-0.1c-0.2,0-0.4,0-0.6,0.1s-0.5,0.2-0.9,0.3c-0.5,0.1-0.9,0.3-1.3,0.6
		c-0.4,0.3-0.6,0.4-0.8,0.4c-0.1,0.2-0.4,0.5-1,0.9c-0.3,0.1-0.6,0.4-0.7,0.8c-0.4,0.3-0.6,0.5-0.6,0.5l-0.2,0.4
		c-0.1,0.1-0.3,0.2-0.4,0.2c-0.2,0.1-0.3,0.2-0.3,0.5c0,0.2-0.1,0.5-0.3,0.6c-0.2,0.2-0.3,0.4-0.3,0.5c0,0.7,0.1,1.1,0.4,1.1
		c0.1,0,0.4-0.1,0.7-0.2c0.4-0.1,0.6-0.3,0.6-0.3c0.1-0.1,0.2-0.1,0.3-0.2l0.4-0.2c0.1-0.1,0.1-0.1,0.2-0.1c0.1,0,0.1-0.1,0.2-0.1
		c0.1-0.1,0.2-0.2,0.4-0.3s0.3-0.2,0.4-0.4c0.2-0.1,0.6-0.4,1.2-0.7l0.4-0.3c0.3-0.1,0.5-0.3,0.6-0.4S173.9,248.9,174.1,248.8
		 M181.3,248.8l0.4-0.3c0.2,0,0.3-0.1,0.4-0.3c0-0.2,0.2-0.4,0.5-0.5c0.3-0.1,0.5-0.4,0.8-0.7c0.2-0.4,0.5-0.5,0.7-0.5
		c0.1,0,0.2,0.1,0.3,0.2s0.2,0.3,0.2,0.3c0,0.5-0.1,1-0.4,1.5l-0.1,0.6l-0.2,0.3c-0.2,0.1-0.4,0.2-0.4,0.4c-0.1,0.1-0.2,0.3-0.5,0.5
		l-0.2,0.3c-0.3,0.1-0.5,0.3-0.6,0.5c-0.1,0.2-0.3,0.4-0.5,0.4c-0.2,0-0.4,0.2-0.6,0.4c-0.1,0.1-0.3,0.1-0.5,0.2l0,0.2
		c-0.1,0.1-0.4,0.3-0.7,0.3c-0.3,0.1-0.5,0.2-0.7,0.2c-0.2,0.1-0.3,0.1-0.3,0.1c-0.3,0-0.5-0.1-0.8-0.2c-0.2-0.1-0.5-0.2-0.7-0.2
		c-0.1-0.1-0.1-0.2-0.2-0.3c0-0.1-0.1-0.2-0.2-0.4c-0.1-0.2-0.2-0.4-0.2-0.7l0.1-0.4c0-0.1,0-0.1-0.1-0.2c-0.1-0.1-0.1-0.2-0.1-0.2
		c0-0.1,0-0.1,0-0.1c0,0,0-0.1,0-0.1c0-0.1,0-0.2,0-0.2c0-0.1,0-0.2,0-0.2l0.1-1.1c0-0.1,0-0.1-0.1-0.1c-0.1,0-0.2,0.1-0.3,0.2
		c-0.2,0.1-0.3,0.2-0.5,0.2c-0.1,0.1-0.2,0.3-0.3,0.5c-0.1,0.1-0.3,0.3-0.4,0.4l-0.1,0.1c0,0.1-0.1,0.2-0.3,0.2
		c-0.2,0.1-0.3,0.1-0.4,0.2l-0.2,0.2l-0.4,0c0,0-0.1,0.2-0.2,0.4c-0.1,0.2-0.3,0.4-0.5,0.6l-1.6,1.3c-0.2,0.1-0.4,0.3-0.8,0.4
		l-0.1,0.1c-1.2,0.8-2,1.1-2.5,1.1c-0.4,0-0.8-0.1-1.4-0.3c-0.5-0.2-0.8-0.5-0.8-0.8l-0.2-0.9c-0.1-0.2-0.2-0.5-0.2-0.8
		c0-0.2,0-0.3,0-0.3v-0.1l0-0.7c0-0.2,0.1-0.3,0.4-0.3l0-0.6c0-0.1,0.1-0.3,0.4-0.7c0.3-0.4,0.4-0.6,0.5-0.7l0.2-0.3
		c0-0.2,0.1-0.4,0.3-0.6c0.2-0.2,0.4-0.4,0.5-0.6c0.1-0.2,0.4-0.4,0.7-0.7l0.7-0.6c0.5-0.5,1.1-0.9,1.6-1.2c0.1,0,0.3-0.2,0.5-0.4
		s0.6-0.5,0.9-0.6c0.3-0.1,0.7-0.3,1-0.5c0.3-0.2,0.6-0.3,0.8-0.3h0.2c0.1,0,0.4-0.2,1.1-0.5h0.1c0.1,0,0.2,0.1,0.4,0.2h0l0.3-0.2
		c0.1,0,0.1,0,0.2,0c0.9,0,1.4,0.6,1.5,1.9c0,0.3,0.1,0.4,0.2,0.4c0.1,0,0.4-0.3,0.6-0.8c0.3-0.5,0.8-0.8,1.7-0.8
		c0.6,0,0.9,0.4,0.9,1.2c0,0.9-0.4,1.8-1.3,2.7c-0.1,0.1-0.1,0.2-0.1,0.4l-0.3,0.9v0c0,0.1-0.1,0.2-0.2,0.4
		c-0.1,0.2-0.2,0.3-0.2,0.4l0,0.5l-0.1,0.6c0,0.3,0.1,0.5,0.2,0.5c0.5-0.1,0.8-0.3,1-0.6s0.4-0.4,0.4-0.4l0.2-0.1
		C181,249.1,181.1,248.9,181.3,248.8"/>
	<path d="M196.9,245.1l0.1-0.2c0.5,0,0.8-0.2,0.9-0.6l0.1-0.1c0.5-0.2,0.9-0.4,1.1-0.6c0.2-0.2,0.6-0.4,1.2-0.6
		c0.6-0.2,0.9-0.3,0.9-0.3c0.1,0,0.4,0.1,0.8,0.4c0.4,0.3,0.7,0.7,0.7,1.5c0,0.5-0.1,1-0.4,1.4v0.7l0,0.2c-0.2,0.2-0.4,0.4-0.4,0.6
		v0.2l0,0.6l-0.6,1.3c-0.2,0.1-0.4,0.2-0.4,0.3c0,0.1,0.1,0.1,0.2,0.2c0.1,0.1,0.2,0.2,0.2,0.3c0,0.2,0,0.5-0.1,0.9c0,0,0.1,0,0.1,0
		h0.1c0.1-0.1,0.2-0.2,0.3-0.3l0.2-0.1c0-0.2,0.1-0.3,0.2-0.3h0.3c0.1,0,0.2-0.1,0.2-0.3c0-0.1,0.3-0.5,1-1.1c0.6-0.7,1-1.1,1.2-1.3
		c0.1-0.2,0.3-0.3,0.4-0.5s0.3-0.2,0.3-0.4c0-0.1,0.1-0.3,0.2-0.4c0.1-0.1,0.2-0.2,0.3-0.4c0.1-0.1,0.2-0.2,0.4-0.3
		c0.2-0.1,0.3-0.3,0.5-0.5c0.2-0.2,0.5-0.6,1-1c0.1-0.1,0.2-0.2,0.3-0.4c0.1-0.2,0.3-0.4,0.6-0.6c0.3-0.2,0.6-0.4,0.9-0.7
		c0.3-0.3,0.8-0.4,1.4-0.4c0.4,0,0.8,0.2,1.1,0.6s0.6,0.7,0.6,1.1c0,0.2,0,0.4-0.1,0.5c-0.1,0.1-0.2,0.3-0.4,0.6s-0.3,0.4-0.5,0.4
		l-0.4-0.1c-0.3,0.3-0.6,0.4-0.8,0.4l-0.4-0.1c-0.3,0.2-0.5,0.3-0.6,0.3c-0.2,0-0.3,0.1-0.4,0.3c-0.1,0.2-0.2,0.2-0.4,0.3
		c-0.1,0-0.3,0.1-0.4,0.2l-0.3,0.2c-0.1,0.4-0.5,0.6-0.9,0.8c-0.2,0.2-0.3,0.4-0.5,0.6c0,0-0.1,0.1-0.2,0.2
		c-0.1,0.1-0.3,0.2-0.4,0.4c-0.1,0.2-0.3,0.3-0.3,0.3h-0.2c-0.1,0.1-0.2,0.3-0.3,0.6c-0.1,0.3-0.3,0.5-0.7,0.6
		c-0.1,0-0.1,0.1-0.3,0.3c-0.1,0.2-0.3,0.3-0.5,0.4c-0.1,0.3-0.3,0.6-0.6,0.8l-0.3,0.5c-0.1,0.1-0.2,0.3-0.4,0.4
		c-0.2,0.1-0.3,0.2-0.3,0.2c0,0-0.1,0.2-0.3,0.6c-0.2,0.4-0.4,0.6-0.6,0.7c-0.2,0.1-0.4,0.3-0.6,0.5c-0.2,0.2-0.4,0.3-0.5,0.3
		c-0.5,0-1-0.4-1.6-1.2s-0.9-1.3-0.9-1.6c0-0.8,0.1-1.4,0.3-1.9c0.2-0.5,0.4-0.9,0.4-1.3c0-0.4,0.1-0.8,0.2-1.1l0.1-0.7l0.2-0.3
		c0.1-0.1,0.2-0.3,0.3-0.6l0.1-0.3c0-0.3-0.1-0.4-0.2-0.4c-0.2,0-0.4,0.1-0.5,0.4l-0.1,0.1c-0.4-0.1-0.5-0.1-0.6-0.1
		c-0.1,0-0.2,0.2-0.3,0.7c-0.1,0.1-0.2,0.2-0.4,0.3c-0.2,0-0.5,0.3-0.8,0.7l-0.1,0.1c-0.1,0-0.2,0.1-0.3,0.1
		c-0.2,0.3-0.3,0.5-0.4,0.5s-0.2-0.1-0.3-0.2c-0.1-0.2-0.2-0.3-0.4-0.4c-0.1-0.1-0.2-0.2-0.2-0.3c0-0.3,0.3-0.8,1-1.3
		c0.1-0.1,0.2-0.2,0.3-0.3c0-0.1,0.2-0.2,0.6-0.2C196.6,245.5,196.7,245.3,196.9,245.1"/>
	<path d="M215.8,252.7l0.1,0.5l0,0h0.3l0.1,0c0.3,0.1,0.5,0.1,0.7,0.1c0.4,0,0.8-0.1,1.1-0.3c0.3-0.2,0.5-0.3,0.6-0.3
		c0.2,0,0.3-0.1,0.4-0.3c0.1-0.2,0.2-0.3,0.2-0.3h0.3l0.1,0c0-0.3,0.1-0.6,0.4-0.7c0.3-0.1,0.5-0.3,0.6-0.6c0.1-0.2,0.3-0.4,0.4-0.5
		c0.2-0.1,0.3-0.3,0.3-0.5l0.2-0.3c0.1-0.1,0.1-0.2,0.1-0.3l0.4-0.8c0.1-0.4,0.1-0.6,0.1-0.8c0-0.3-0.2-0.5-0.5-0.7
		c-0.3-0.2-0.5-0.5-0.5-1c0-0.3,0.2-0.6,0.5-0.9c0.3-0.3,0.5-0.5,0.5-0.5c0-0.1,0-0.1-0.1-0.1c0,0-0.2,0.1-0.5,0.2
		c-0.1,0.2-0.6,0.5-1.5,0.8c-0.3-0.1-0.5-0.2-0.5-0.2c-0.1,0-0.2,0.1-0.3,0.3c-0.1,0.2-0.2,0.3-0.3,0.4H219c0,0-0.1,0.1-0.3,0.3
		c-0.2,0.2-0.4,0.3-0.6,0.3l-0.3,0.3c0,0.2-0.1,0.5-0.4,0.7l-0.2,0.3c-0.1,0.2-0.3,0.4-0.6,0.6l-0.4,1c-0.2,0.4-0.2,0.7-0.2,0.8
		c0,0.1-0.1,0.2-0.3,0.3c-0.2,0.1-0.2,0.2-0.2,0.4c0,0,0.1,0.1,0.2,0.2s0.2,0.2,0.2,0.3l-0.1,0.3l-0.1,0.8L215.8,252.7z
		 M222.6,252.1l-1,0.9c-0.1-0.1-0.1-0.1-0.2-0.1c-0.1,0-0.3,0.1-0.5,0.4c-0.2,0.3-0.4,0.4-0.4,0.4l-0.2,0c-0.4,0.3-0.6,0.4-0.8,0.5
		c-0.2,0-0.4,0.1-0.6,0.2s-0.4,0.2-0.6,0.2c-0.2,0-0.3,0.1-0.4,0.2c-0.1,0.1-0.4,0.2-0.9,0.2l-0.3,0c-0.2,0.1-0.3,0.1-0.4,0.1
		c-0.1,0-0.2-0.1-0.4-0.2c-0.1-0.1-0.3-0.2-0.4-0.2c-0.2,0-0.3-0.1-0.5-0.3c-0.2-0.2-0.3-0.3-0.4-0.4c-0.1-0.1-0.3-0.2-0.3-0.3
		l-0.3-0.3c-0.2-0.2-0.5-0.5-0.7-1c-0.2-0.5-0.3-0.8-0.3-1.1v-0.1l0-0.4l0-0.5c0.1-0.1,0.1-0.2,0.2-0.4v-0.7l0.5-1.7
		c0-0.1,0-0.2-0.2-0.3c-0.1,0.2-0.3,0.3-0.4,0.4c-0.1,0-0.2,0.1-0.3,0.3c-0.1,0.2-0.1,0.2-0.2,0.2l-0.3-0.1c0,0-0.1,0.2-0.2,0.4
		c-0.1,0.3-0.3,0.4-0.5,0.4c-0.3,0-0.4-0.1-0.4-0.3l0-0.4l-0.1-0.5c0-0.1,0.1-0.3,0.3-0.7c0.2-0.3,0.4-0.5,0.6-0.6
		c0.2-0.1,0.4-0.2,0.5-0.4c0.1-0.2,0.4-0.5,0.9-0.8c0.3-0.1,0.5-0.2,0.7-0.6c0.2-0.2,0.5-0.3,0.8-0.4c0.3-0.1,0.6-0.2,0.7-0.4
		c0.2-0.2,0.7-0.5,1.5-0.9c0.8-0.4,1.4-0.6,1.8-0.6c0.1,0,0.3,0,0.5-0.1c0.2-0.1,0.4-0.1,0.6-0.2c0.2-0.1,0.4-0.1,0.5-0.2
		c0.2-0.1,0.3-0.2,0.5-0.2l0.6,0.2c0.5,0.1,0.7,0.2,0.9,0.3c0,0,0.2,0.1,0.4,0.2c0.3,0.1,0.5,0.2,0.8,0.4c0.3,0.2,0.4,0.5,0.4,0.9
		c-0.2,0.4-0.4,0.6-0.4,0.6c0,0.1,0.2,0.1,0.5,0.3c0.1,0.2,0.3,0.5,0.5,0.8l0.2,0.8l0,1.8l0,0.2c-0.2,0.1-0.2,0.2-0.2,0.3l0.1,0.4
		l-0.2,0.6c0,0.2-0.1,0.3-0.2,0.4c-0.1,0.1-0.2,0.1-0.2,0.2l-0.1,0.2c0,0-0.1,0.2-0.2,0.4s-0.2,0.4-0.3,0.5
		c-0.1,0.1-0.2,0.3-0.2,0.4c0,0.2-0.1,0.3-0.2,0.3c-0.1,0.1-0.2,0.1-0.3,0.2C222.8,252,222.7,252.1,222.6,252.1"/>
	<path d="M233.6,234.8l0.3-0.1l0.2-0.2h0l0.2,0.1h0c0.3,0,0.7-0.1,0.9-0.2c0.3-0.1,0.5-0.2,0.7-0.3c0.2-0.1,0.3-0.1,0.3-0.1
		c0,0,0.1,0,0.1,0l0.4,0c0.1,0,0.3-0.2,0.5-0.6c0.2-0.4,0.4-0.7,0.7-0.9c0.2-0.2,0.5-0.5,0.7-1.1c0.1-0.1,0.1-0.2,0.2-0.3
		c0.1-0.2,0.1-0.2,0.2-0.2c0.2,0,0.4-0.1,0.5-0.4c0.4-0.5,0.8-0.8,1.1-0.8c0.4,0,0.6,0.3,0.8,1l0.2,0.8c0,0,0,0.1-0.1,0.3
		c-0.1,0.2-0.1,0.4-0.1,0.6c0,0.2,0,0.3,0,0.4c0,0.1,0,0.1,0,0.2c0,0.1,0.1,0.2,0.4,0.2c0.1,0,0.2-0.1,0.5-0.2l0.1,0
		c0.1,0.1,0.3,0.1,0.4,0.1c0,0,0.2-0.1,0.6-0.2c0.4-0.1,0.6-0.2,0.7-0.2c0.1,0,0.3-0.1,0.5-0.2h0.3l0.2,0.1c0.1,0,0.2-0.1,0.4-0.2
		c0.2-0.1,0.5-0.2,1-0.2l0.3-0.1h0.1c0.5,0,0.7,0.2,0.7,0.6c0,0.1-0.1,0.2-0.2,0.5c-0.1,0.2-0.2,0.5-0.3,0.7l-1,1.3
		c-0.3,0.4-0.7,0.7-1,0.7c-0.1,0-0.2-0.2-0.5-0.6c0,0,0,0-0.1,0c-0.1,0-0.3,0-0.5,0.1c-0.2,0.1-0.3,0.1-0.4,0.1c0,0-0.4,0.1-1.1,0.3
		l-0.5,0.1c-0.1,0-0.2,0-0.4,0.1l-1.1,0.2c-0.4,0.2-0.7,0.5-0.9,1.1c0,0-0.1,0.1-0.2,0.2l-1,1.8c-0.3,0.1-0.5,0.3-0.6,0.6l-0.1,0.1
		c-0.2,0-0.3,0.1-0.4,0.3s-0.3,0.3-0.4,0.4l-0.4,0.6c-0.2,0.2-0.3,0.4-0.5,0.7c-0.2,0.2-0.3,0.5-0.3,0.8c-0.1,0.3-0.1,0.4-0.2,0.5
		c0,0-0.1,0.1-0.1,0.2l-0.1,0.2c-0.2,0.2-0.3,0.4-0.3,0.6l0.1,0.3c-0.2,0.7-0.3,1.1-0.3,1.1c0,0,0,0.1,0,0.2v0.1
		c0,0.3-0.1,0.7-0.3,1.2l0,0.4l-0.1,1c0,0.1,0,0.4,0.1,0.7c-0.1,0.1-0.1,0.1-0.1,0.1c0,0.4,0.2,0.9,0.6,1.3c0.4,0.5,0.6,1.2,0.6,2.3
		c0,0.1,0,0.2-0.1,0.4c0,0.2-0.1,0.3-0.1,0.5c0,0.2-0.1,0.4-0.3,0.6c-0.2,0.2-0.4,0.3-0.5,0.3c-0.8,0-1.3-0.6-1.7-1.7
		c-0.4-1.1-0.6-1.8-0.6-2.2l0-0.8l-0.1-0.4l0.1-1.9l-0.1-0.5l0.5-1.9v-0.7c0,0,0.1-0.1,0.3-0.3c0,0,0,0-0.1,0
		c-0.1,0-0.2,0.1-0.4,0.3c-0.1,0.2-0.3,0.3-0.5,0.5l-0.2,0.3c0,0-0.1-0.1-0.2-0.1c-0.1,0-0.3,0.4-0.7,1c-0.3,0-0.5,0.2-0.7,0.5
		c-0.2,0.3-0.4,0.5-0.7,0.5l-0.1,0c-0.1,0.4-0.3,0.6-0.6,0.6l-0.1,0c-0.2,0.5-0.4,0.7-0.7,0.7c-0.1,0.4-0.5,0.7-1.1,0.9
		c-0.1,0.2-0.2,0.3-0.4,0.4c-0.2,0.1-0.3,0.2-0.4,0.2c-0.1,0.1-0.1,0.1-0.2,0.1c-0.2,0-0.3-0.2-0.3-0.6c0-0.1,0-0.2,0.1-0.4
		c0.1-0.1,0.1-0.2,0.1-0.3c0,0-0.1-0.1-0.2-0.3c0-0.4,0.1-0.7,0.3-0.8c0.2-0.1,0.4-0.3,0.5-0.5c0.1-0.2,0.2-0.3,0.4-0.4
		c0.2-0.1,0.3-0.2,0.3-0.3c0-0.1,0.2-0.3,0.6-0.6c0.4-0.3,0.7-0.6,0.8-0.8c0.2-0.2,0.3-0.3,0.4-0.3l0.1-0.1c0-0.4,0.2-0.5,0.4-0.5
		l0.2-0.1l0-0.2l0.1-0.1h0.2l0.1-0.1c0-0.4,0.2-0.6,0.5-0.8c0.3-0.2,0.9-0.8,1.7-1.7c0.8-0.9,1.3-1.5,1.4-1.8
		c0.1-0.3,0.3-0.6,0.6-1.1c0.3-0.4,0.4-0.9,0.4-1.2c0-0.1-0.1-0.1-0.1-0.2l-0.9,0.5c0,0-0.1-0.1-0.4-0.2c-0.2,0.1-0.4,0.3-0.5,0.4
		c-0.1,0.1-0.2,0.2-0.2,0.2l-0.3,0l-1,0.1c-0.9,0.1-1.5,0.2-1.9,0.5l-0.9,0.3h-0.2c-0.1,0-0.3,0.1-0.5,0.2l-0.5,0
		c-0.5,0.2-0.8,0.4-1,0.4c0,0-0.1,0-0.3,0l-2.2,0.6c-0.2,0.1-0.6,0.4-1.2,0.9l-0.2,0c-0.1,0-0.3-0.2-0.5-0.5
		c-0.2-0.3-0.3-0.6-0.3-0.9c0-1.4,1.2-2.3,3.7-2.5l0.9-0.3h0l0.2,0.1h0.1c0.1,0,0.2-0.1,0.4-0.2c0.2-0.1,0.6-0.2,1.3-0.4l0.9-0.2
		l0.3,0c0.1,0,0.3-0.1,0.5-0.2c0.2-0.1,0.5-0.2,0.8-0.2c0.4-0.1,0.6-0.1,0.8-0.2l0.3-0.1c0.1,0,0.2-0.1,0.4-0.2
		c0.2-0.1,0.4-0.2,0.7-0.2C233.3,234.7,233.4,234.7,233.6,234.8"/>
	<path d="M243.7,243.8l0.3-0.1l0.1-0.3c0.7-0.4,1.2-0.8,1.5-1.2c0-0.1,0.1-0.1,0.2-0.2c0.1-0.1,0.2-0.2,0.3-0.3
		c0.5-0.5,1.2-0.8,1.9-0.8c0.9,0,1.3,0.5,1.4,1.6l0.1,0.3c0.1,0.2,0.3,0.6,0.5,1.2c0.2,0.6,0.3,1,0.3,1.2c0,0.4-0.1,0.8-0.4,1.2
		c-0.2,0.1-0.7,0.6-1.5,1.6l-0.2,0.2c-0.1,0.3-0.3,0.5-0.5,0.8c-0.3,0.1-0.4,0.2-0.4,0.3v0.4c0,0,0,0.1-0.1,0.2
		c-0.1,0.1-0.2,0.3-0.3,0.5l-0.2,0.3c-0.1,0.1-0.1,0.2-0.2,0.4c-0.1,0.2-0.1,0.3-0.2,0.5c-0.1,0.1-0.2,0.3-0.2,0.4
		c0,0.2,0.3,0.3,0.8,0.3c0,0,0.1,0,0.3-0.1l0.3,0.1c0,0,0.1,0,0.2-0.1c0.1-0.1,0.3-0.2,0.5-0.2c0.2-0.1,0.4-0.1,0.6-0.3
		c0.2-0.1,0.4-0.2,0.6-0.3c0.3-0.1,0.5-0.2,0.7-0.4c0.2-0.2,0.5-0.3,0.7-0.4c0.2-0.1,0.4-0.2,0.6-0.4c0.2-0.2,0.4-0.4,0.7-0.5
		c0.2-0.2,0.6-0.5,1.2-1c0.3-0.3,0.6-0.4,0.7-0.5c0,0,0.2-0.2,0.4-0.6c0.2-0.4,0.5-0.6,0.8-0.6c0.3,0,0.5,0.1,0.5,0.4
		c0,0.2-0.1,0.3-0.2,0.5v0.1l0,0.3c0,0,0,0.1,0,0.2c0,0.1-0.1,0.1-0.2,0.3s-0.2,0.3-0.2,0.4c0,0.2-0.2,0.3-0.4,0.4
		c-0.1,0.3-0.2,0.5-0.3,0.5c-0.1,0-0.3,0.2-0.6,0.4s-0.6,0.5-1,0.9c-0.4,0.3-0.8,0.6-0.9,0.8c-0.2,0.2-0.3,0.3-0.3,0.3
		c0,0-0.1,0-0.2-0.1c-0.1-0.1-0.1-0.1-0.2-0.1c-0.1,0-0.1,0.1-0.2,0.3l-0.1,0.2c-0.2,0.1-0.3,0.2-0.3,0.2l-0.1,0h-0.1
		c-0.2,0-0.3,0.1-0.3,0.2l0.1,0.2v0c0,0.2-0.1,0.3-0.3,0.3c-0.2,0-0.6,0.3-1.4,0.8l-0.6,0.1l-0.5,0.3c-0.2-0.1-0.3-0.1-0.3-0.1
		l-0.3,0.1l-0.6,0c0,0-0.3-0.1-0.8-0.4c-0.5-0.3-0.8-0.6-0.9-0.9c-0.1-0.3-0.2-0.6-0.4-0.9c-0.2-0.3-0.2-0.5-0.2-0.6
		c0-0.7,0.1-1.2,0.2-1.5c0.1-0.3,0.2-0.5,0.2-0.7c0-0.1,0.1-0.3,0.2-0.5c0.1-0.2,0.2-0.4,0.3-0.8c0.4-0.8,0.7-1.4,0.9-1.5
		c0.2-0.2,0.3-0.4,0.4-0.7l0.3-0.4c0,0,0.1-0.1,0.1-0.3c0.1-0.2,0.1-0.3,0.2-0.3c0.1-0.2,0.2-0.3,0.2-0.4c0-0.4-0.2-0.6-0.6-0.6
		c-0.1,0-0.2,0.1-0.2,0.2c-0.1,0.2-0.3,0.3-0.6,0.4c-0.3,0.1-0.5,0.3-0.6,0.3s-0.2,0.2-0.5,0.3c-0.2,0.1-0.4,0.3-0.6,0.5l-0.4,0.2
		c-0.1,0.3-0.2,0.4-0.3,0.5c-0.1,0-0.4,0.1-0.8,0.2c0,0-0.1,0.1-0.2,0.3c-0.1,0.2-0.3,0.2-0.5,0.2c-0.2,0.2-0.3,0.4-0.5,0.6
		c-0.1,0-0.2,0.1-0.5,0.2l-0.4,0.1c-0.1,0.1-0.2,0.2-0.4,0.4s-0.4,0.3-0.8,0.3c-0.2,0-0.3-0.2-0.3-0.5c0-0.7,0.2-1.3,0.7-1.7
		c0.5-0.4,0.9-0.6,1.1-0.7c0.2,0,0.4-0.1,0.4-0.3c0.1-0.1,0.2-0.3,0.4-0.4c0.2-0.1,0.5-0.3,0.8-0.6c0.3-0.3,0.6-0.5,1-0.7
		L243.7,243.8z"/>
	<path d="M263.1,244.2l-0.3,0.1c-0.1,0-0.2,0.2-0.5,0.4c-0.3,0.2-0.6,0.4-0.8,0.5c-0.3,0.1-0.5,0.5-0.8,1.1c-0.3,0.6-0.4,0.9-0.4,1
		s0,0.1,0.1,0.1l0.7-0.3c0.3-0.1,0.5-0.3,0.8-0.5c0.2-0.2,0.6-0.4,1-0.7l0.2-0.2c0-0.1,0.2-0.2,0.4-0.3c0.2-0.2,0.4-0.3,0.5-0.4
		l0.2-0.1c0.2-0.4,0.5-0.6,0.7-0.7c0.3-0.1,0.4-0.2,0.4-0.3c0-0.2-0.1-0.3-0.4-0.3c-0.1,0-0.3,0.1-0.5,0.2h-0.5
		c-0.1,0-0.2,0.1-0.5,0.3L263.1,244.2z M258.5,245.6l0.5-0.4c0.3,0,0.5-0.2,0.6-0.5c0-0.3,0.3-0.6,0.7-0.9l0.3-0.4
		c0.2-0.2,0.8-0.5,1.8-0.8c0.2-0.1,0.4-0.3,0.5-0.4c0,0,0.1,0,0.1,0l0.4,0.1c0.2,0,0.4-0.1,0.7-0.1c0.3-0.1,0.6-0.2,0.9-0.2l0.9,0
		c0.1,0,0.2,0,0.4,0.1c0.2,0.1,0.4,0.1,0.7,0.1c0.3,0,0.6,0.1,0.9,0.4c0.3,0.3,0.4,0.6,0.4,0.8c0,0.4-0.2,0.9-0.7,1.4
		c-0.5,0.5-0.8,0.7-1.1,0.8c-0.2,0.2-0.4,0.4-0.6,0.5c-0.1,0.1-0.3,0.2-0.4,0.3c-0.1,0.1-0.2,0.2-0.3,0.2c-0.1,0-0.1,0-0.1-0.1
		c0,0-0.1-0.1-0.1-0.1c-0.2,0-0.5,0.3-0.8,0.8l-0.4,0c-0.2,0.2-0.4,0.3-0.5,0.5c-0.1,0.2-0.2,0.3-0.5,0.3c-0.5,0.5-0.9,0.8-1.1,0.8
		c0,0-0.1,0-0.3-0.1c-0.1,0.1-0.2,0.3-0.2,0.5c0,0.2-0.1,0.3-0.3,0.3l-0.3,0.3l-0.2,0l-0.4,0.5c-0.2,0-0.4,0.1-0.7,0.2
		c0,0.2-0.1,0.4-0.1,0.7c-0.1,0.3-0.1,0.4-0.1,0.4c0,0.4,0.4,0.6,1.1,0.6l1-0.1c0.3,0,0.5-0.1,0.8-0.2c0.2-0.1,0.5-0.2,0.8-0.2
		c0.1,0,0.2,0,0.4-0.1l0.2,0.1c0.1-0.2,0.3-0.4,0.6-0.6c0.3-0.2,0.5-0.3,0.6-0.3l0.2-0.1c0.1-0.2,0.1-0.3,0.3-0.3l0.2-0.1
		c0.1-0.1,0.2-0.2,0.3-0.2h0.3l0.1,0c0.2-0.4,0.4-0.6,0.7-0.7c0.3-0.1,0.5-0.2,0.6-0.3c0.1-0.1,0.2-0.2,0.4-0.3
		c0.2,0,0.4-0.1,0.5-0.3c0.1-0.2,0.3-0.3,0.5-0.5c0.2-0.1,0.3-0.3,0.4-0.3c0.1-0.1,0.1-0.1,0.2-0.1c0.1,0,0.1,0.1,0.1,0.2
		c0,0.1,0,0.2,0.1,0.2c0.1,0,0.1,0,0.1-0.1c0-0.1,0-0.1,0-0.2v-0.2c0-0.2,0.1-0.4,0.4-0.4l1-0.6c0-0.3,0.1-0.5,0.2-0.5
		c0.1-0.1,0.2-0.1,0.3-0.2c0.1-0.1,0.2-0.1,0.2-0.1c0.2,0,0.3,0.1,0.3,0.3l-0.1,0.6l0.1,0.6c0,0.1-0.1,0.2-0.2,0.4
		c-0.1,0.1-0.2,0.4-0.3,0.7c-0.1,0.3-0.2,0.5-0.3,0.5h-0.1c-0.3,0.3-0.5,0.4-0.6,0.5c-0.2,0.1-0.3,0.1-0.4,0.3l-0.7,0.8
		c-0.1,0.1-0.3,0.3-0.4,0.4c-0.1,0.1-0.2,0.2-0.2,0.2l-0.2-0.2c0,0,0,0-0.1,0c-0.1,0-0.2,0.1-0.3,0.3c0,0.2-0.1,0.3-0.2,0.5
		c-0.4,0.2-0.7,0.4-0.8,0.6l-0.1,0h-0.4c-0.2,0-0.3,0.1-0.4,0.4c-0.1,0.3-0.3,0.4-0.6,0.5c-0.3,0-0.6,0.1-0.7,0.3
		c0,0-0.1,0.1-0.2,0.1c-0.1,0-0.3,0.1-0.6,0.3L262,254c-0.1,0.1-0.2,0.1-0.3,0.1l-0.6,0.1c-0.1,0-0.2-0.1-0.3-0.2
		c-0.1-0.1-0.1-0.2-0.2-0.2l-0.4,0.1c-0.3,0.1-0.6,0.1-0.8,0.1c-0.1,0-0.3-0.1-0.5-0.2c-0.2-0.1-0.3-0.2-0.4-0.2
		c-0.4,0-0.7-0.3-0.9-1l-0.3,0c-0.1,0-0.3-0.5-0.6-1.5c-0.1-0.1-0.2-0.2-0.4-0.2c-0.2-0.1-0.3-0.2-0.3-0.4c0-0.6,0.1-1.1,0.4-1.3
		c0.3-0.2,0.4-0.4,0.5-0.5l0.3-1.1c0.1,0,0.1-0.2,0.2-0.4l0.5-0.9C258.1,246.2,258.3,246,258.5,245.6"/>
	<path d="M289.9,244.5l0.6-0.3c0.2-0.1,0.4-0.3,0.6-0.6l0.8-0.5c0.4-0.3,0.7-0.4,0.8-0.4l0.3,0.1c0,0,0.1-0.1,0.3-0.3
		c0.2-0.2,0.3-0.3,0.5-0.3c0.3,0,0.6,0.2,1.1,0.6c0.4,0.4,0.7,0.7,0.7,1l-0.1,0.7c0,0.1,0.1,0.4,0.2,1v0.2l-0.1,0.5l0.1,0.5
		l-0.2,1.1c0,0.3,0.1,0.4,0.3,0.4c0.2-0.2,0.5-0.4,0.6-0.4l0.3-0.3c0.1-0.1,0.2-0.2,0.3-0.2s0.1-0.1,0.2-0.2
		c0.1-0.1,0.2-0.2,0.4-0.3c0.1-0.1,0.2-0.2,0.3-0.3c0.8-0.9,1.4-1.4,1.9-1.5c0.1,0,0.2-0.1,0.3-0.2c0.1-0.1,0.2-0.2,0.3-0.3l0.5-0.4
		l0.2,0.1h0c0,0,0.1-0.1,0.4-0.2c0.2-0.1,0.3-0.2,0.4-0.2c0.6,0,1,0.2,1.4,0.5c0.4,0.4,0.5,0.6,0.5,0.9l-0.1,0.5l0.2,0.7v0.4
		l-0.1,0.5c0,0.1,0.1,0.2,0.2,0.4s0.2,0.3,0.2,0.3c-0.2,0.2-0.3,0.3-0.3,0.4l0,0.4l-0.1,1.2c0,0.1,0.1,0.3,0.3,0.5
		c0.1-0.1,0.2-0.1,0.4-0.1c0.2,0,0.3-0.1,0.4-0.1c0.1-0.1,0.1-0.1,0.1-0.1s0,0,0,0c0,0,0.1,0,0.3,0.1h0.1c0.1,0,0.2-0.1,0.2-0.3
		c0-0.2,0.2-0.4,0.4-0.5l0.5,0c0,0,0.1-0.1,0.2-0.4c0.1-0.2,0.4-0.5,0.9-0.9c0.5-0.4,0.9-0.6,1.2-0.6c0.2,0,0.3,0.1,0.3,0.3
		c0,0.1,0,0.2-0.1,0.5c0.1,0.2,0.2,0.4,0.2,0.5c0,0.3-0.2,0.6-0.7,0.9c-0.5,0.3-0.8,0.7-1.1,1.2l-0.1,0.1l-0.4,0
		c0,0-0.1,0.1-0.2,0.3c-0.1,0.2-0.2,0.3-0.4,0.4c-0.1,0-0.2,0.1-0.3,0.1l-0.5,0.3c-0.1,0.1-0.4,0.4-0.9,0.9
		c-0.5,0.5-0.9,0.8-1.2,0.8c-0.1,0-0.4-0.1-0.8-0.2c-0.4-0.2-0.6-0.3-0.8-0.5s-0.3-0.3-0.6-0.5c-0.2-0.2-0.4-0.6-0.4-1.1
		c0,0,0-0.1,0.1-0.2c0.1-0.1,0.1-0.1,0.1-0.2c-0.3-0.4-0.5-0.7-0.5-0.9c0-0.1,0-0.2,0-0.3c0-0.1,0-0.2,0-0.3l0-0.8l0.1-0.4l0-0.2
		l0.1-1.1c0-0.2-0.1-0.3-0.3-0.3c-0.1,0-0.1,0.1-0.2,0.2c-0.1,0.1-0.2,0.2-0.4,0.3c-0.2,0.1-0.3,0.3-0.5,0.6
		c-0.3,0.1-0.4,0.3-0.5,0.4c-0.1,0.1-0.2,0.2-0.2,0.2c0,0-0.1,0-0.2,0c-0.2,0.1-0.3,0.2-0.3,0.4v0.1l0,0.2c0,0.1-0.1,0.3-0.3,0.4
		c-0.2,0.1-0.5,0.4-0.8,0.9c-0.1,0-0.2,0-0.3,0l-0.3,0.5c-0.1,0.1-0.3,0.2-0.4,0.5l-0.3,0.1c-0.1,0.2-0.2,0.3-0.3,0.5l-0.1,0.2
		c-0.6,0.7-1.1,1.1-1.3,1.1c-0.2,0-0.5-0.3-0.9-1c-0.3-0.6-0.5-1.2-0.5-1.5l0.1-0.8c0,0-0.1-0.1-0.2-0.3v-0.1c0,0,0.1-0.2,0.2-0.5
		v-0.6c0,0,0-0.1,0-0.1v-0.1c0,0,0.1-0.1,0.2-0.3l-0.1-0.6l0.1-0.3l0-0.8l0.1-0.7c0,0,0-0.1-0.1-0.2c-0.1-0.1-0.1-0.2-0.2-0.2
		c-0.1,0-0.4,0.2-0.9,0.5c-0.5,0.3-0.8,0.6-1,0.8c-0.2,0.2-0.4,0.4-0.7,0.7c-0.3,0.1-0.5,0.5-0.6,1.1c0,0,0,0-0.1,0
		c0,0,0-0.1-0.1-0.1h-0.1c-0.1,0-0.3,0.3-0.7,0.9l-0.1,0.1l-0.4-0.1c-0.3,0-0.5,0.4-0.5,1.1c0,0.1-0.1,0.2-0.3,0.3
		c-0.2,0-0.3,0.2-0.4,0.4c-0.1,0.2-0.2,0.4-0.4,0.6c-0.3,0.1-0.5,0.3-0.6,0.3c0,0-0.2,0.2-0.5,0.6c-0.3,0.4-0.5,0.7-0.5,0.7
		c0,0.1-0.1,0.2-0.3,0.2c-0.2,0.1-0.2,0.2-0.2,0.2l0.1,0.4c0,0.2-0.2,0.3-0.7,0.3c-0.9,0-1.3-0.9-1.3-2.7c0-0.2,0.1-0.4,0.3-0.7
		c0.2-0.3,0.4-0.6,0.5-0.9c0.3-0.3,0.6-0.7,1-1.2c0.4-0.5,0.7-0.9,0.9-1.1l0.3-0.5c0-0.2,0-0.3,0.1-0.4c0.1-0.1,0.1-0.2,0.1-0.3
		c0-0.2-0.1-0.3-0.2-0.3c-0.3,0-0.5,0.1-0.6,0.2c-0.2,0.1-0.3,0.2-0.5,0.3c-0.2,0.1-0.3,0.2-0.4,0.3c-0.2,0.1-0.4,0.3-0.6,0.6
		c-0.2,0.3-0.4,0.5-0.4,0.5c-0.1,0.1-0.1,0.2-0.2,0.3c-0.1,0.1-0.1,0.2-0.2,0.2c-0.1,0-0.2,0.1-0.3,0.2c-0.1,0.1-0.2,0.1-0.4,0.1
		c-0.1,0-0.2-0.1-0.4-0.4c-0.1-0.3-0.2-0.4-0.2-0.5c0-1.1,0.7-2,2.1-2.7c0.2-0.1,0.3-0.2,0.4-0.3c0.1-0.1,0.2-0.2,0.3-0.2l0.1-0.2
		c0.1-0.2,0.5-0.4,1.3-0.7h0.3l1.5-0.4c0.6-0.1,0.9,0.6,0.9,2.1l0,0.4l0.1,0.2c0.2-0.2,0.5-0.4,0.7-0.6c0.3-0.2,0.4-0.3,0.6-0.5
		C289.4,244.8,289.6,244.7,289.9,244.5"/>
	<path d="M316.6,244.2l-0.3,0.1c-0.1,0-0.2,0.2-0.5,0.4c-0.3,0.2-0.6,0.4-0.8,0.5c-0.3,0.1-0.5,0.5-0.8,1.1c-0.3,0.6-0.4,0.9-0.4,1
		s0,0.1,0.1,0.1l0.7-0.3c0.3-0.1,0.5-0.3,0.8-0.5c0.2-0.2,0.6-0.4,1-0.7l0.2-0.2c0-0.1,0.2-0.2,0.4-0.3c0.2-0.2,0.4-0.3,0.5-0.4
		l0.2-0.1c0.2-0.4,0.5-0.6,0.8-0.7c0.2-0.1,0.4-0.2,0.4-0.3c0-0.2-0.1-0.3-0.4-0.3c-0.1,0-0.3,0.1-0.5,0.2h-0.5
		c-0.1,0-0.2,0.1-0.5,0.3L316.6,244.2z M312,245.6l0.5-0.4c0.3,0,0.5-0.2,0.6-0.5c0-0.3,0.3-0.6,0.7-0.9l0.3-0.4
		c0.2-0.2,0.8-0.5,1.8-0.8c0.2-0.1,0.4-0.3,0.5-0.4c0,0,0.1,0,0.1,0l0.3,0.1c0.2,0,0.4-0.1,0.7-0.1c0.3-0.1,0.6-0.2,0.9-0.2l0.9,0
		c0.1,0,0.2,0,0.4,0.1c0.2,0.1,0.4,0.1,0.7,0.1c0.3,0,0.6,0.1,0.9,0.4c0.3,0.3,0.4,0.6,0.4,0.8c0,0.4-0.2,0.9-0.7,1.4
		c-0.5,0.5-0.8,0.7-1.1,0.8c-0.2,0.2-0.4,0.4-0.6,0.5c-0.1,0.1-0.3,0.2-0.4,0.3c-0.1,0.1-0.2,0.2-0.3,0.2c-0.1,0-0.1,0-0.1-0.1
		c0,0-0.1-0.1-0.1-0.1c-0.2,0-0.5,0.3-0.8,0.8l-0.4,0c-0.2,0.2-0.4,0.3-0.5,0.5c-0.1,0.2-0.2,0.3-0.5,0.3c-0.5,0.5-0.9,0.8-1.1,0.8
		c0,0-0.1,0-0.3-0.1c-0.1,0.1-0.2,0.3-0.2,0.5c0,0.2-0.1,0.3-0.3,0.3l-0.3,0.3l-0.2,0l-0.4,0.5c-0.2,0-0.4,0.1-0.7,0.2
		c0,0.2-0.1,0.4-0.1,0.7c-0.1,0.3-0.1,0.4-0.1,0.4c0,0.4,0.4,0.6,1.1,0.6l1-0.1c0.3,0,0.5-0.1,0.8-0.2c0.2-0.1,0.5-0.2,0.8-0.2
		c0.1,0,0.2,0,0.4-0.1l0.2,0.1c0.1-0.2,0.3-0.4,0.6-0.6c0.3-0.2,0.5-0.3,0.6-0.3l0.2-0.1c0.1-0.2,0.1-0.3,0.3-0.3l0.2-0.1
		c0.1-0.1,0.2-0.2,0.3-0.2h0.3l0.1,0c0.2-0.4,0.4-0.6,0.7-0.7c0.3-0.1,0.5-0.2,0.6-0.3c0.1-0.1,0.2-0.2,0.4-0.3
		c0.2,0,0.4-0.1,0.5-0.3c0.1-0.2,0.3-0.3,0.5-0.5c0.2-0.1,0.3-0.3,0.4-0.3c0.1-0.1,0.1-0.1,0.2-0.1c0.1,0,0.1,0.1,0.1,0.2
		c0,0.1,0,0.2,0.1,0.2c0.1,0,0.1,0,0.1-0.1c0-0.1,0-0.1,0-0.2v-0.2c0-0.2,0.1-0.4,0.3-0.4l1-0.6c0-0.3,0.1-0.5,0.2-0.5
		c0.1-0.1,0.2-0.1,0.3-0.2c0.1-0.1,0.2-0.1,0.2-0.1c0.2,0,0.3,0.1,0.3,0.3l-0.1,0.6l0.1,0.6c0,0.1-0.1,0.2-0.2,0.4
		c-0.1,0.1-0.2,0.4-0.3,0.7c-0.1,0.3-0.2,0.5-0.3,0.5h-0.1c-0.3,0.3-0.5,0.4-0.6,0.5c-0.2,0.1-0.3,0.1-0.4,0.3l-0.7,0.8
		c-0.1,0.1-0.3,0.3-0.4,0.4c-0.1,0.1-0.2,0.2-0.2,0.2l-0.2-0.2c0,0,0,0-0.1,0c-0.1,0-0.2,0.1-0.3,0.3c0,0.2-0.1,0.3-0.2,0.5
		c-0.4,0.2-0.7,0.4-0.9,0.6l-0.1,0h-0.4c-0.2,0-0.3,0.1-0.4,0.4c-0.1,0.3-0.3,0.4-0.6,0.5c-0.3,0-0.6,0.1-0.7,0.3
		c0,0-0.1,0.1-0.2,0.1c-0.1,0-0.3,0.1-0.6,0.3l-1.8,0.6c-0.1,0.1-0.2,0.1-0.3,0.1l-0.6,0.1c-0.1,0-0.2-0.1-0.3-0.2
		c-0.1-0.1-0.1-0.2-0.2-0.2l-0.4,0.1c-0.3,0.1-0.6,0.1-0.8,0.1c-0.1,0-0.3-0.1-0.5-0.2c-0.2-0.1-0.3-0.2-0.4-0.2
		c-0.4,0-0.7-0.3-0.9-1l-0.3,0c-0.1,0-0.3-0.5-0.6-1.5c-0.1-0.1-0.2-0.2-0.4-0.2c-0.2-0.1-0.3-0.2-0.3-0.4c0-0.6,0.1-1.1,0.4-1.3
		c0.3-0.2,0.4-0.4,0.5-0.5l0.3-1.1c0.1,0,0.1-0.2,0.2-0.4l0.5-0.9C311.6,246.2,311.8,246,312,245.6"/>
	<path d="M326.9,244l0.3-0.5c0.1-0.1,0.2-0.3,0.3-0.4c0.1-0.1,0.3-0.5,0.4-1.1c0.2-0.6,0.3-1,0.5-1.2c0.2-0.2,0.5-0.3,0.9-0.3
		c0.2,0,0.5,0.1,0.9,0.3c0.4,0.2,0.7,0.8,1,1.9c0.3,1.1,0.5,1.8,0.5,2.2c0,0.2,0.1,0.4,0.2,0.7c0.1,0.3,0.2,0.5,0.2,0.6
		c-0.1,0.2-0.2,0.4-0.2,0.4l0,0.9l-0.3,0.7v0.5c-0.2,0.3-0.3,0.5-0.3,0.5c0,0.1,0,0.2,0.1,0.3c0.7-0.3,1.1-0.5,1.2-0.7
		c0.1-0.2,0.3-0.3,0.4-0.3c0.1,0,0.4-0.2,0.7-0.6l0.4-0.2c0.1-0.2,0.3-0.3,0.4-0.5c0.1-0.1,0.2-0.2,0.4-0.3c0.1-0.1,0.3-0.2,0.5-0.3
		c0.2-0.1,0.5-0.3,0.8-0.5l0.2-0.3c0.2-0.2,0.5-0.4,0.8-0.6c0.3-0.1,0.5-0.2,0.5-0.2c0.1,0,0.2,0.1,0.3,0.4s0.2,0.5,0.2,0.8
		c0,0.2-0.1,0.5-0.4,0.7c-0.3,0.2-0.5,0.4-0.6,0.5c-0.1,0.1-0.3,0.2-0.7,0.3c0,0-0.3,0.3-0.7,0.9l-0.4,0.3l-0.2,0.3
		c0,0.1-0.2,0.1-0.6,0.2c0,0,0,0.1-0.1,0.2c-0.1,0.1-0.2,0.2-0.5,0.3c-0.5,0.5-0.8,0.7-0.8,0.8l-0.5,0.1c-0.1,0.3-0.2,0.4-0.2,0.5
		c-0.3,0.1-0.5,0.2-0.6,0.4c0,0-0.1,0.1-0.2,0.1l-0.1,0.1c-0.3,0.3-0.7,0.4-1,0.5l-0.5,0.1l-0.2,0.3c0,0.1-0.2,0.2-0.5,0.3
		c-0.4,0.1-0.6,0.3-0.8,0.4l-0.4,0.3c-0.5,0.2-0.7,0.3-0.9,0.5h-0.3c-0.2,0-0.5,0.1-1,0.4c-0.4,0.3-0.8,0.4-1,0.4
		c-0.8,0-1.4-0.1-1.7-0.3c-0.3-0.2-0.6-0.5-0.8-0.8c-0.2-0.3-0.4-0.6-0.6-0.8c-0.2-0.2-0.2-0.3-0.2-0.5c0-0.1,0.1-0.2,0.2-0.3
		c0.1-0.1,0.3-0.3,0.4-0.6c0.2-0.3,0.6-0.5,1.2-0.6c0,0,0.1,0,0.3-0.1c0.2-0.1,0.3-0.1,0.4-0.1c0.1,0,0.3,0.1,0.5,0.4c0,0,0,0,0.1,0
		l0.3,0c0.2,0.1,0.3,0.2,0.3,0.2c0.3,0,0.7-0.2,1.1-0.5l0.1,0h0.2c0,0,0.1-0.1,0.2-0.4l0.4-0.8l0.8-1v-0.2c0,0,0-0.2,0.1-0.4v-0.3
		c0-0.1,0.1-0.2,0.3-0.2c0.2,0,0.3-0.1,0.3-0.3l0-0.2c-0.1-0.2-0.2-0.3-0.2-0.4l0.2-0.4l0-0.5l0.1-0.2c-0.1-0.2-0.1-0.3-0.1-0.3
		l0.1-0.5c0,0,0-0.1-0.1-0.4c-0.1-0.3-0.1-0.4-0.2-0.4c-0.1,0-0.4,0.2-0.8,0.7c-0.5,0.4-0.7,0.8-0.8,0.9c-0.1,0.2-0.3,0.4-0.6,0.5
		c-0.3,0.2-0.5,0.3-0.6,0.5c-0.1,0.2-0.2,0.3-0.4,0.3l-1.5,1.2l-1.6,1.2c-0.1,0.1-0.2,0.2-0.2,0.2c-0.5,0-0.8-0.3-0.8-0.9
		c0-0.2,0.1-0.5,0.3-1c0.1-0.1,0.2-0.1,0.2-0.1c0.1,0,0.1-0.1,0.1-0.1c0,0,0,0,0,0l0.1,0.1h0c0.5-0.4,0.9-0.6,1-0.6
		c0.2-0.1,0.3-0.2,0.4-0.5l0.9-0.6c0.2-0.2,0.6-0.5,1.1-0.9C326.4,244.5,326.8,244.2,326.9,244"/>
	<path d="M337.1,245.6l0.3,0.1c0-0.2,0.2-0.5,0.4-0.6h0.2c0.1,0,0.3-0.2,0.6-0.6l0.4-0.2c0.1,0,0.1,0,0.3,0c0.1,0,0.2-0.1,0.3-0.2
		c0.1-0.1,0.3-0.3,0.6-0.7h0.1c0.1,0,0.2-0.1,0.3-0.2c0.1-0.1,0.3-0.2,0.5-0.2l0.7-0.2c0.2-0.1,0.4-0.1,0.4-0.1c0.1,0,0.4,0.2,1,0.8
		c0.5,0.6,0.8,1.1,0.8,1.7c0,0.3-0.2,0.5-0.5,0.5l-0.1,0.1v0.4l-0.4,0.8c-0.1,0.2-0.2,0.4-0.4,0.4c-0.1,0.2-0.2,0.4-0.3,0.5l-0.3,0
		l-0.1,0.1v0.5c-0.1,0.2-0.3,0.6-0.6,1.1c-0.2,0.6-0.4,1-0.4,1.1c0,0.3,0.1,0.4,0.2,0.4c0.1,0,0.2,0,0.3-0.1
		c0.1-0.1,0.2-0.2,0.4-0.3c0.2-0.1,0.3-0.2,0.3-0.3c0.1-0.1,0.2-0.2,0.5-0.3c0.2-0.1,0.4-0.2,0.6-0.4c0.2-0.2,0.4-0.4,0.4-0.4
		c0.1-0.1,0.2-0.2,0.3-0.3c0.1-0.1,0.2-0.2,0.2-0.2c0.1,0,0.2,0,0.4-0.1c0-0.2,0.1-0.3,0.1-0.4l0.5-0.3l1.3-1.1l0.2-0.2
		c0.2-0.1,0.4-0.1,0.4-0.1c0.1-0.4,0.3-0.7,0.6-0.9c0-0.1,0.1-0.1,0.2-0.1c0.1-0.2,0.3-0.4,0.4-0.6c0.2-0.1,0.3-0.3,0.4-0.5l0.5-0.4
		c0.1-0.1,0.2-0.1,0.3-0.3c0.8-0.7,1.2-1.1,1.4-1.1c0.2-0.1,0.5-0.1,0.9-0.1s0.7,0.2,1,0.5c0.3,0.3,0.5,0.5,0.8,0.7
		c0.3,0.2,0.4,0.5,0.4,0.9c0,0.4-0.3,1.2-1,2.4c-0.4,1.2-0.6,2-0.7,2.3c0,0.3-0.1,0.4-0.2,0.5c-0.1,0-0.2,0.1-0.2,0.2v0.1
		c0,0.3,0.1,0.5,0.2,0.5c0.1,0,0.2-0.1,0.4-0.2c0.2-0.1,0.5-0.3,0.9-0.5l0.2,0c0.4-0.6,0.7-1,0.8-1c0.1-0.1,0.3-0.2,0.4-0.4
		c0.1-0.2,0.3-0.3,0.5-0.3c0.2,0,0.3,0,0.4-0.1c0-0.3,0.3-0.7,0.9-1.2c0.6-0.4,0.9-0.6,1-0.6c0.1,0,0.3,0.1,0.3,0.3
		c0.1,0.2,0.2,0.4,0.3,0.4c0.1,0.1,0.1,0.1,0.1,0.2v0.4c0,0.2-0.1,0.3-0.3,0.4c-0.1,0.3-0.3,0.5-0.4,0.6l-0.4,0
		c-0.1,0.1-0.1,0.2-0.2,0.2c-0.1,0.1-0.1,0.1-0.1,0.1c-0.1,0-0.3,0.2-0.6,0.6c-0.3,0.4-0.6,0.6-0.8,0.9l-0.1,0.1
		c-0.1,0.1-0.2,0.1-0.3,0.2l-0.4,0.3c-0.1-0.1-0.2-0.1-0.3-0.1c0,0-0.1,0.1-0.2,0.2c-0.1,0.1-0.3,0.3-0.6,0.4
		c-0.3,0.2-0.5,0.4-0.6,0.6l-0.3,0.3l-0.5,0.1c0,0-0.1,0.1-0.2,0.2l-0.4,0.5c-0.2,0.2-0.5,0.4-0.9,0.4c-0.1,0-0.2-0.1-0.3-0.2
		c-0.1-0.1-0.3-0.3-0.4-0.4c-0.1-0.1-0.4-0.4-0.8-1c-0.4-0.5-0.6-0.8-0.6-0.9l0.1-0.8l0-0.5c0-0.1,0.1-0.3,0.2-0.5
		c0.1-0.2,0.2-0.3,0.2-0.3l0-0.8c0,0,0.1-0.1,0.1-0.1l0.3-0.5c0-0.1,0-0.3,0-0.5l0.1-0.7c-0.3,0.1-0.5,0.4-0.7,0.7
		c-0.2,0.4-0.5,0.5-0.8,0.5c-0.3,0.5-0.5,0.7-0.6,0.7c-0.1,0.1-0.1,0.1-0.1,0.2L347,249l-0.4,0l-0.1,0.5c-0.3,0.2-0.5,0.3-0.6,0.5
		c-0.1,0.1-0.2,0.3-0.4,0.4l-0.4,0.4h-0.4c-0.1,0.4-0.3,0.7-0.7,1l-0.2,0.2l-0.4,0c-0.1,0.5-0.3,0.8-0.5,0.9c-0.2,0-0.6,0.2-1,0.7
		c-0.4,0.5-0.7,0.7-0.9,0.7c-1.3,0-2.3-0.8-3.1-2.4c0-0.1-0.1-0.2-0.2-0.3c-0.1-0.2-0.2-0.4-0.2-0.7c0-0.6,0.1-1,0.2-1.2
		c0.1-0.2,0.3-0.6,0.6-1.1c0.2-0.6,0.4-0.8,0.5-0.7c0-0.1,0-0.1,0-0.3c0.2-0.3,0.3-0.5,0.3-0.6c0-0.1,0-0.1-0.1-0.1
		c0,0-0.1,0-0.3,0.1l-0.3,0.1c-0.1,0-0.2,0.1-0.3,0.2c-0.1,0.1-0.2,0.2-0.3,0.2c-0.1,0.1-0.3,0.1-0.4,0.2h-0.1
		c-0.1-0.1-0.1-0.1-0.2-0.1c-0.1,0.2-0.2,0.4-0.2,0.4l-0.3,0c-0.3,0.3-0.5,0.5-0.6,0.5c-0.1,0-0.2-0.1-0.4-0.2
		c-0.2-0.1-0.3-0.2-0.3-0.3l0.2-0.8v-0.4c0,0,0.1-0.1,0.2-0.2c0,0,0.1-0.2,0.4-0.5C336.6,245.7,336.8,245.6,337.1,245.6"/>
	<path d="M361.3,243.8l0.3-0.1l0.1-0.3c0.7-0.4,1.2-0.8,1.5-1.2c0-0.1,0.1-0.1,0.2-0.2c0.1-0.1,0.2-0.2,0.3-0.3
		c0.5-0.5,1.2-0.8,1.9-0.8c0.9,0,1.3,0.5,1.4,1.6l0.1,0.3c0.1,0.2,0.3,0.6,0.5,1.2c0.2,0.6,0.3,1,0.3,1.2c0,0.4-0.1,0.8-0.4,1.2
		c-0.2,0.1-0.7,0.6-1.5,1.6l-0.2,0.2c-0.1,0.3-0.3,0.5-0.5,0.8c-0.3,0.1-0.4,0.2-0.4,0.3v0.4c0,0,0,0.1-0.1,0.2
		c-0.1,0.1-0.2,0.3-0.3,0.5l-0.2,0.3c-0.1,0.1-0.1,0.2-0.2,0.4s-0.1,0.3-0.2,0.5c-0.1,0.1-0.2,0.3-0.2,0.4c0,0.2,0.3,0.3,0.8,0.3
		c0,0,0.1,0,0.3-0.1l0.3,0.1c0,0,0.1,0,0.2-0.1c0.1-0.1,0.3-0.2,0.5-0.2s0.4-0.1,0.6-0.3c0.2-0.1,0.4-0.2,0.6-0.3
		c0.3-0.1,0.5-0.2,0.7-0.4c0.2-0.2,0.5-0.3,0.7-0.4c0.2-0.1,0.4-0.2,0.6-0.4c0.2-0.2,0.4-0.4,0.7-0.5s0.6-0.5,1.2-1
		c0.3-0.3,0.6-0.4,0.7-0.5c0,0,0.2-0.2,0.4-0.6c0.2-0.4,0.5-0.6,0.8-0.6c0.3,0,0.5,0.1,0.5,0.4c0,0.2-0.1,0.3-0.2,0.5v0.1l0,0.3
		c0,0,0,0.1,0,0.2c0,0.1-0.1,0.1-0.2,0.3c-0.1,0.1-0.2,0.3-0.2,0.4c0,0.2-0.2,0.3-0.4,0.4c-0.1,0.3-0.2,0.5-0.3,0.5
		c-0.1,0-0.3,0.2-0.6,0.4s-0.6,0.5-1,0.9c-0.4,0.3-0.8,0.6-0.9,0.8c-0.2,0.2-0.3,0.3-0.3,0.3c0,0-0.1,0-0.2-0.1
		c-0.1-0.1-0.1-0.1-0.2-0.1c-0.1,0-0.1,0.1-0.2,0.3l-0.1,0.2c-0.2,0.1-0.3,0.2-0.3,0.2l-0.1,0h-0.1c-0.2,0-0.3,0.1-0.3,0.2l0.1,0.2
		v0c0,0.2-0.1,0.3-0.3,0.3c-0.2,0-0.6,0.3-1.4,0.8l-0.6,0.1l-0.5,0.3c-0.2-0.1-0.3-0.1-0.3-0.1l-0.3,0.1l-0.6,0c0,0-0.3-0.1-0.8-0.4
		c-0.5-0.3-0.8-0.6-0.9-0.9c-0.1-0.3-0.2-0.6-0.4-0.9c-0.2-0.3-0.2-0.5-0.2-0.6c0-0.7,0.1-1.2,0.2-1.5c0.1-0.3,0.2-0.5,0.2-0.7
		c0-0.1,0.1-0.3,0.2-0.5c0.1-0.2,0.3-0.4,0.3-0.8c0.4-0.8,0.7-1.4,0.9-1.5c0.2-0.2,0.3-0.4,0.4-0.7l0.3-0.4c0,0,0.1-0.1,0.1-0.3
		c0.1-0.2,0.1-0.3,0.2-0.3c0.1-0.2,0.2-0.3,0.2-0.4c0-0.4-0.2-0.6-0.6-0.6c-0.1,0-0.1,0.1-0.2,0.2c-0.1,0.2-0.3,0.3-0.6,0.4
		s-0.5,0.3-0.6,0.3c-0.1,0.1-0.2,0.2-0.5,0.3c-0.2,0.1-0.4,0.3-0.6,0.5l-0.4,0.2c-0.1,0.3-0.2,0.4-0.3,0.5c-0.1,0-0.4,0.1-0.8,0.2
		c0,0-0.1,0.1-0.2,0.3c-0.1,0.2-0.3,0.2-0.5,0.2c-0.2,0.2-0.3,0.4-0.5,0.6c-0.1,0-0.2,0.1-0.5,0.2l-0.4,0.1
		c-0.1,0.1-0.2,0.2-0.4,0.4s-0.4,0.3-0.8,0.3c-0.2,0-0.3-0.2-0.3-0.5c0-0.7,0.3-1.3,0.7-1.7c0.5-0.4,0.9-0.6,1.1-0.7
		c0.2,0,0.4-0.1,0.4-0.3s0.2-0.3,0.4-0.4c0.2-0.1,0.5-0.3,0.8-0.6s0.6-0.5,1-0.7L361.3,243.8z"/>
	<path d="M380.7,244.2l-0.3,0.1c-0.1,0-0.2,0.2-0.5,0.4c-0.3,0.2-0.6,0.4-0.8,0.5c-0.3,0.1-0.5,0.5-0.8,1.1c-0.3,0.6-0.4,0.9-0.4,1
		s0,0.1,0.1,0.1l0.7-0.3c0.3-0.1,0.5-0.3,0.8-0.5c0.2-0.2,0.6-0.4,1-0.7l0.2-0.2c0-0.1,0.2-0.2,0.4-0.3s0.4-0.3,0.5-0.4l0.2-0.1
		c0.2-0.4,0.5-0.6,0.7-0.7c0.3-0.1,0.4-0.2,0.4-0.3c0-0.2-0.1-0.3-0.4-0.3c-0.1,0-0.3,0.1-0.5,0.2h-0.5c-0.1,0-0.2,0.1-0.5,0.3
		L380.7,244.2z M376.1,245.6l0.5-0.4c0.3,0,0.5-0.2,0.6-0.5c0-0.3,0.3-0.6,0.7-0.9l0.3-0.4c0.2-0.2,0.8-0.5,1.8-0.8
		c0.2-0.1,0.4-0.3,0.5-0.4c0,0,0.1,0,0.1,0l0.3,0.1c0.2,0,0.4-0.1,0.7-0.1c0.3-0.1,0.6-0.2,0.9-0.2l0.9,0c0.1,0,0.2,0,0.4,0.1
		s0.4,0.1,0.7,0.1c0.3,0,0.6,0.1,0.9,0.4c0.3,0.3,0.4,0.6,0.4,0.8c0,0.4-0.2,0.9-0.7,1.4c-0.5,0.5-0.8,0.7-1.1,0.8
		c-0.2,0.2-0.4,0.4-0.6,0.5c-0.1,0.1-0.3,0.2-0.4,0.3c-0.1,0.1-0.2,0.2-0.3,0.2c-0.1,0-0.1,0-0.1-0.1c0,0-0.1-0.1-0.1-0.1
		c-0.2,0-0.5,0.3-0.8,0.8l-0.4,0c-0.2,0.2-0.4,0.3-0.5,0.5c-0.1,0.2-0.2,0.3-0.5,0.3c-0.5,0.5-0.9,0.8-1.1,0.8c0,0-0.1,0-0.3-0.1
		c-0.1,0.1-0.2,0.3-0.2,0.5c0,0.2-0.1,0.3-0.3,0.3l-0.3,0.3l-0.2,0l-0.4,0.5c-0.2,0-0.4,0.1-0.7,0.2c0,0.2-0.1,0.4-0.1,0.7
		c-0.1,0.3-0.1,0.4-0.1,0.4c0,0.4,0.4,0.6,1.2,0.6l1-0.1c0.3,0,0.5-0.1,0.8-0.2c0.2-0.1,0.5-0.2,0.8-0.2c0.1,0,0.2,0,0.4-0.1
		l0.2,0.1c0.1-0.2,0.3-0.4,0.6-0.6c0.3-0.2,0.5-0.3,0.6-0.3l0.2-0.1c0.1-0.2,0.1-0.3,0.3-0.3l0.2-0.1c0.1-0.1,0.2-0.2,0.3-0.2h0.3
		l0.1,0c0.2-0.4,0.4-0.6,0.7-0.7c0.3-0.1,0.5-0.2,0.6-0.3c0.1-0.1,0.2-0.2,0.4-0.3c0.2,0,0.4-0.1,0.5-0.3c0.1-0.2,0.3-0.3,0.5-0.5
		c0.2-0.1,0.3-0.3,0.4-0.3c0.1-0.1,0.1-0.1,0.2-0.1c0.1,0,0.1,0.1,0.1,0.2c0,0.1,0,0.2,0.1,0.2s0.1,0,0.1-0.1c0-0.1,0-0.1,0-0.2
		v-0.2c0-0.2,0.1-0.4,0.3-0.4l1-0.6c0-0.3,0.1-0.5,0.2-0.5c0.1-0.1,0.2-0.1,0.3-0.2c0.1-0.1,0.2-0.1,0.2-0.1c0.2,0,0.3,0.1,0.3,0.3
		l-0.1,0.6l0.1,0.6c0,0.1-0.1,0.2-0.2,0.4c-0.1,0.1-0.2,0.4-0.3,0.7c-0.1,0.3-0.2,0.5-0.3,0.5h-0.1c-0.3,0.3-0.5,0.4-0.6,0.5
		c-0.2,0.1-0.3,0.1-0.4,0.3l-0.7,0.8c-0.1,0.1-0.3,0.3-0.4,0.4c-0.1,0.1-0.2,0.2-0.2,0.2l-0.2-0.2c0,0,0,0-0.1,0
		c-0.1,0-0.2,0.1-0.3,0.3c0,0.2-0.1,0.3-0.2,0.5c-0.4,0.2-0.7,0.4-0.9,0.6l-0.1,0H384c-0.2,0-0.3,0.1-0.4,0.4
		c-0.1,0.3-0.3,0.4-0.6,0.5c-0.3,0-0.6,0.1-0.7,0.3c0,0-0.1,0.1-0.2,0.1c-0.1,0-0.3,0.1-0.6,0.3l-1.8,0.6c-0.1,0.1-0.2,0.1-0.3,0.1
		l-0.6,0.1c-0.1,0-0.2-0.1-0.3-0.2c-0.1-0.1-0.1-0.2-0.2-0.2l-0.4,0.1c-0.3,0.1-0.6,0.1-0.8,0.1c-0.1,0-0.3-0.1-0.5-0.2
		c-0.2-0.1-0.3-0.2-0.4-0.2c-0.4,0-0.7-0.3-0.9-1l-0.3,0c-0.1,0-0.3-0.5-0.6-1.5c-0.1-0.1-0.2-0.2-0.4-0.2c-0.2-0.1-0.3-0.2-0.3-0.4
		c0-0.6,0.1-1.1,0.4-1.3c0.3-0.2,0.4-0.4,0.5-0.5l0.3-1.1c0.1,0,0.1-0.2,0.2-0.4l0.5-0.9C375.8,246.2,375.9,246,376.1,245.6"/>
	<path d="M393.5,253.1l0.4,0.3c0.2,0.1,0.3,0.4,0.3,0.8c0,0.1,0,0.2-0.1,0.3s-0.1,0.2-0.2,0.4c-0.5,1-1.1,1.5-1.8,1.5
		c-0.2,0-0.6-0.2-1-0.6c-0.5-0.4-0.8-0.7-0.9-1.1c-0.1-0.3-0.2-0.5-0.3-0.6c-0.1-0.1-0.1-0.2-0.1-0.2c0-0.2,0.1-0.3,0.2-0.5
		c0.1-0.2,0.2-0.4,0.3-0.7c0.1-0.3,0.2-0.5,0.5-0.6c0.3-0.1,0.4-0.3,0.6-0.4c0.1-0.1,0.3-0.2,0.5-0.2c0.1,0,0.2,0.1,0.3,0.1
		c0.1,0.1,0.3,0.2,0.5,0.3c0.2,0.1,0.4,0.3,0.6,0.7L393.5,253.1z"/>
	<path d="M404.4,253.1l0.4,0.3c0.2,0.1,0.3,0.4,0.3,0.8c0,0.1,0,0.2-0.1,0.3c-0.1,0.1-0.1,0.2-0.2,0.4c-0.5,1-1.1,1.5-1.8,1.5
		c-0.2,0-0.6-0.2-1-0.6c-0.5-0.4-0.8-0.7-0.9-1.1c-0.1-0.3-0.2-0.5-0.3-0.6s-0.1-0.2-0.1-0.2c0-0.2,0.1-0.3,0.2-0.5
		c0.1-0.2,0.2-0.4,0.3-0.7c0.1-0.3,0.2-0.5,0.5-0.6c0.3-0.1,0.4-0.3,0.6-0.4c0.1-0.1,0.3-0.2,0.5-0.2c0.1,0,0.2,0.1,0.3,0.1
		c0.1,0.1,0.3,0.2,0.5,0.3c0.2,0.1,0.4,0.3,0.6,0.7L404.4,253.1z"/>
	<path d="M415.3,253.1l0.4,0.3c0.2,0.1,0.3,0.4,0.3,0.8c0,0.1,0,0.2-0.1,0.3c-0.1,0.1-0.1,0.2-0.2,0.4c-0.5,1-1.1,1.5-1.8,1.5
		c-0.2,0-0.6-0.2-1-0.6c-0.5-0.4-0.8-0.7-0.9-1.1c-0.1-0.3-0.2-0.5-0.3-0.6c-0.1-0.1-0.1-0.2-0.1-0.2c0-0.2,0.1-0.3,0.2-0.5
		c0.1-0.2,0.2-0.4,0.3-0.7c0.1-0.3,0.2-0.5,0.5-0.6c0.3-0.1,0.4-0.3,0.6-0.4c0.1-0.1,0.3-0.2,0.5-0.2c0.1,0,0.2,0.1,0.4,0.1
		c0.1,0.1,0.3,0.2,0.5,0.3c0.2,0.1,0.4,0.3,0.6,0.7L415.3,253.1z"/>
</g>
</svg>
