<?xml version="1.0" encoding="utf-8"?>
<!-- Generator: Adobe Illustrator 19.1.0, SVG Export Plug-In . SVG Version: 6.00 Build 0)  -->
<svg version="1.1" id="Calque_1" xmlns="http://www.w3.org/2000/svg" xmlns:xlink="http://www.w3.org/1999/xlink" x="0px" y="0px"
	 viewBox="-345 170.9 500 500" style="enable-background:new -345 170.9 500 500;" xml:space="preserve">
<style type="text/css">
	.st0{fill:#8CB200;}
</style>
<g id="Nouveau_symbole">
</g>
<path d="M-261.3,334.7c3.2,3.1,4.8,8.3,4.8,15.7c0,14,0,37,0.1,54.5l0,0l0,3.7l0,9.9l0,13.5l0,0c0,17.5-0.1,40.7-0.1,54.7
	c0,18.3-9.8,31.8-29.1,40l-1,0.4c-6.6,2.8-13.1,5.4-13.1,5.4l-13.1,5.6v4.7l17.9-7.6c0.1,0,6.5-2.6,13.1-5.4l1-0.4
	c19.3-8.2,29.1-21.7,29.1-40c0-14,0-122.3,0-136.2C-251.7,342.7-254.9,336.5-261.3,334.7z"/>
<path d="M-290.4,354.2l8.6-3.6c1.1-0.5,2.1-0.7,3-0.8c-1.4-2.9-3.9-3.6-7.7-2l-8.6,3.6v167l4.7-2L-290.4,354.2L-290.4,354.2z"/>
<path d="M-221.9,480c0-0.2-0.1-0.3-0.1-0.5v-51.2c0-2.9,2.4-6.3,5.3-7.6c0.2-0.1,0.4-0.1,0.5-0.2c-0.3-2.6-2.5-3.7-5.3-2.6
	c-2.9,1.2-5.3,4.7-5.3,7.6v51.2C-226.7,479.5-224.6,480.8-221.9,480z"/>
<path d="M-199.9,397.4c3.6,3.1,5.8,7.9,5.8,14.2v50.5c0,15-12.2,32.4-27.2,38.7c-6.3,2.7-12.1,3-16.7,1.3c5,4.3,12.7,5.1,21.4,1.4
	c15-6.4,27.2-23.7,27.2-38.7v-50.5C-189.4,405.6-193.5,399.6-199.9,397.4z"/>
<path d="M-169,347.1v96.7c0,17.1,9.9,22.8,10,22.8l4,2.3c-2.3-1.6-9.3-7.9-9.3-22.4V345L-169,347.1z"/>
<path d="M-152.9,470.1l-26.2,11.1c0.9,1,1.9,1.9,3.1,2.5l1,0.5l26.9-11.4L-152.9,470.1z"/>
<path d="M-136,443.5c0-0.2-0.1-0.3-0.1-0.5v-51.2c0-2.9,2.4-6.3,5.3-7.6c0.2-0.1,0.4-0.1,0.5-0.2c-0.3-2.6-2.5-3.7-5.3-2.6
	c-2.9,1.2-5.3,4.7-5.3,7.6v51.2C-140.8,443-138.7,444.3-136,443.5z"/>
<path d="M-114.3,360.8c3.6,3.1,5.8,8,5.8,14.4v8.9l-16.9,7.2v4.7l21.6-9.2v-9C-103.8,369.1-108,363.1-114.3,360.8z"/>
<path d="M-108.6,425.7c0,15-11.9,32.2-26.6,38.5c-6,2.6-11.6,2.8-16.1,1.2c4.9,4.2,12.4,5.1,20.8,1.5c14.7-6.2,26.6-23.5,26.6-38.5
	v-7.2l-4.7,2V425.7z"/>
<path d="M-53.2,402.4c0,15.3-12,32.9-26.6,39.2c-6,2.5-11.5,2.8-16,1.2c4.9,4.2,12.3,5.1,20.7,1.5c14.7-6.2,26.6-23.8,26.6-39.2v-7
	l-4.7,2V402.4z"/>
<path d="M-80.9,369c0-3.2,2.6-6.9,5.8-8.3c0.3-0.1,0.7-0.2,1-0.3c-0.5-2.5-2.9-3.6-5.7-2.4c-3.2,1.4-5.8,5.1-5.8,8.3v16.7
	c1.3-0.5,3-1.2,4.7-1.9L-80.9,369L-80.9,369z"/>
<path d="M-59.1,338.2c3.7,3.2,6,8.3,6,15v20.4c0,5.2-5.8,18.3-23.8,25.9l-7.7,3.3v12.6c0,4.1,1.6,5.4,4.7,4.1c0,0,0,0,0.1,0
	c0-0.4-0.1-0.9-0.1-1.3v-12.6l7.7-3.3c18-7.6,23.8-20.8,23.8-25.9v-20.4C-48.4,346.9-52.7,340.6-59.1,338.2z"/>
<path d="M96,285l-6.3,2.7c-5.3,2.1-9.5,2.2-12.6,1.3c3.1,3,8.6,4.9,17.3,1.4l5.7-2.4C99.7,285,98.3,284,96,285z"/>
<polygon points="53.4,283.3 58.2,281.3 58.2,248.8 53.4,253.1 "/>
<path d="M95.2,345.9c0-0.3-0.1-0.7-0.1-1v-24.3l0-0.3c0-0.3,0-0.8-0.1-0.8c0,0,0.5-0.6,2.4-1.4c1.3-0.5,2.5-1.1,3.7-1.6v-4.6
	c-2.2,0.9-5.3,2.1-8.5,3.5c-1.9,0.8-2.4,1.4-2.4,1.4c0.1,0,0.1,0.5,0.1,0.8l0,0.3v24.3C90.4,344.9,92,347.2,95.2,345.9z"/>
<path d="M116.2,263c4.6,5,5.9,15.2,5.9,18.8v46.1c0,15.3-12,32.9-26.6,39.2c-6,2.5-11.5,2.8-16,1.2c4.9,4.2,12.4,5.1,20.7,1.5
	c14.7-6.2,26.7-23.8,26.7-39.2v-46.1C126.9,279.9,124.8,264.5,116.2,263z"/>
<path d="M58.2,352v-46.4l15.1-6.4v-12.1c-2.2-1.7-3.4-3.9-4-5.8l-0.8,0.3v14.8l-15.1,6.4v46.4c0,17.2,10.1,24.9,10.2,24.9l5.1,3.7
	l-25.2,10.7c0.9,1,1.8,2,3,2.5l1,0.5l25.9-11l-5.1-3.7C68.3,376.9,58.2,369.2,58.2,352z"/>
<polygon points="32.7,311.7 24.4,315.2 24.4,320 32.7,316.4 "/>
<polygon points="-25.7,316.1 -23.7,288.4 -28.5,233.3 -32.8,235.1 "/>
<polygon points="-3.2,222.5 -20.7,415.5 -29.5,419.2 -28.9,423.8 -15.9,418.2 1.9,220.3 "/>
<polygon points="17,303.3 17,399.2 1,406 1,410.7 21.7,401.9 21.7,301.3 "/>
<polygon points="17,269.2 17,285.8 1,292.6 1,297.3 21.7,288.5 21.7,267.2 "/>
<path class="st0" d="M-259.9,410.1c0-17.7-0.1-43.2-0.1-58.2c0-24.7-19.9-15.6-26.6-12.8c-6.6,2.8-13,5.7-13,5.7L-314,351v184
	l14.4-6.1c0,0,6.4-2.5,13-5.3c6.6-2.8,26.6-10.7,26.6-35.4c0-15,0-40.4,0.1-58.2l0,0c0,0,0-3.8,0-9.9
	C-259.9,414-259.9,410.1-259.9,410.1L-259.9,410.1z M-274.1,496.8c0,15.7-9.8,20.4-12.4,21.6c-2.2,0.9-9.6,4.1-12.1,5.2V349.5
	c2.6-1.1,9.9-4.2,12.1-5.2c2.7-1.1,12.4-4.7,12.4,11c0,12.7,0.2,51.7,0.3,70.7C-273.9,445-274.1,484.1-274.1,496.8z"/>
<path class="st0" d="M-221.3,399.5c-13,5.5-23.6,20.6-23.6,33.7v50.5c0,13,10.6,19.1,23.6,13.6c13-5.5,23.6-20.6,23.6-33.7v-50.5
	C-197.7,400-208.3,394-221.3,399.5z M-212.5,470.7c0,4.9-4,10.6-8.9,12.7c-4.9,2.1-8.9-0.2-8.9-5.1V427c0-4.9,4-10.6,8.9-12.7
	c4.9-2.1,8.9,0.2,8.9,5.1V470.7z"/>
<path class="st0" d="M-172.5,445.3v-97.9l-13.6,5.8v98c0,0.6-1,21.7,7.9,26.2l16.8-7.1C-161.5,470.2-172.5,464-172.5,445.3
	L-172.5,445.3L-172.5,445.3z"/>
<path class="st0" d="M-135.1,362.9c-12.7,5.4-23,20.4-23,33.4v50.5c0,13,10.3,19.2,23,13.8c12.7-5.4,23-20.4,23-33.4v-3.6l-14.5,6.2
	v4.4c0,4.9-4,10.6-8.9,12.7c-4.9,2.1-8.9-0.2-8.9-5.1v-51.2c0-4.9,4-10.6,8.9-12.7c4.9-2.1,8.9,0.2,8.9,5.1v5.3l14.5-6.2v-5.4
	C-112.1,363.7-122.4,357.5-135.1,362.9z"/>
<path class="st0" d="M-79.8,340.3c-12.8,5.4-23.1,20.7-23.1,34.1v49.2c0,13.4,10.3,19.9,23.1,14.5c12.8-5.4,23.1-20.7,23.1-34.1
	v-3.5c0,0-10,4.2-13.9,5.9c0,7.5-1.4,13.4-9.3,16.8c-7.9,3.4-8.3-4.4-8.3-6.2c0-1.8,0-16.2,0-16.2s6.5-2.8,11.3-4.8
	c16-6.8,20.2-17.7,20.2-20.8v-20.4C-56.7,341.3-67.1,334.8-79.8,340.3z M-76.4,382.7c-6.3,2.7-12.8,5.2-12.8,5.2v-20.1
	c0-5.2,4.2-11.2,9.4-13.4c5.2-2.2,9.4,0.2,9.4,5.4v15.3C-70.5,376.8-70.1,380-76.4,382.7z"/>
<path class="st0" d="M105.8,264.6c-9.7,4.1-33.2,14.1-33.2,14.1s2.8,11.1,17,5.4c6.3-2.7,3.2-1.3,6.3-2.7c3.2-1.3,7.9-1.6,7.9,7.5
	c0,4.5,0,4.7,0,4.7s-6.5,2.8-11.3,4.8c-16,6.8-20.2,18.3-20.2,24.8V349c0,13.4,10.3,19.9,23.1,14.5c12.8-5.4,23.1-20.7,23.1-34.1
	v-46.1C118.6,277.8,115.5,260.5,105.8,264.6z M104.8,336c0,5.2-4.2,11.2-9.4,13.4c-5.2,2.2-8.6-0.6-8.6-5.7v-24.3
	c0-1.8-0.4-5,5.9-7.6c6.3-2.7,12-4.8,12-4.8V336z"/>
<polygon class="st0" points="-25.6,360.1 -36.5,235.5 -50.3,241.4 -30.5,416.1 -23.9,413.3 -6.7,222.8 -15.6,226.6 "/>
<polygon class="st0" points="-0.2,402.9 13.4,397.2 13.4,303.6 -0.2,309.4 "/>
<path class="st0" d="M49.9,253.2v-0.3l-0.2,0.5c-1.7,1.5-13.4,12.5-13.4,22.8c0,1.5,0,4.1,0,7.6v10.5l-13,5.5v12.4l13-5.5v50
	c0,0.2-0.1,2,0,4.7c0,3.1,0.3,4.7,0.3,4.7c0.7,6.4,2.6,16.2,7.6,18.8l16.8-7.1c0,0-11.1-8.1-11.1-26.9h0v-49.9l15.1-6.4V282
	l-15.1,6.4L49.9,253.2L49.9,253.2z"/>
<polygon class="st0" points="-0.2,289.5 13.4,283.7 13.4,269.5 -0.2,275.3 "/>
<path d="M-312.4,624.3v-68.6l6.7-2.8c2.9-1.2,4.8-1.5,5.9-1c1.1,0.5,1.6,2.3,1.6,5.3v17c0,2.8-0.4,4.9-1.2,6.3
	c-0.8,1.4-2.2,2.6-4.4,3.8c2.1-0.8,3.5-0.8,4.3,0c0.8,0.7,1.2,2.5,1.2,5.4v21.2c0,3-0.5,5.2-1.6,6.7c-1.1,1.5-3,2.8-5.9,4
	L-312.4,624.3z M-308.7,555.5v30.1l2.5-1c1.6-0.7,2.6-1.5,3.3-2.6c0.6-1,0.9-2.6,0.9-4.6v-19.2c0-2.1-0.3-3.4-0.9-3.9
	c-0.6-0.5-1.7-0.4-3.4,0.3L-308.7,555.5z M-308.7,587.1v34.3l2.5-1c1.6-0.7,2.6-1.5,3.3-2.6c0.6-1,0.9-2.6,0.9-4.6v-23.4
	c0-2.1-0.3-3.4-0.9-3.9c-0.6-0.5-1.7-0.4-3.4,0.3L-308.7,587.1z"/>
<path d="M-291.2,615.3v-68.6l10.2-4.3v2l-6.5,2.8v29.4l6-2.6v2l-6,2.6v33.2l6.9-2.9v2L-291.2,615.3z"/>
<path d="M-273.6,607.8v-66.6l-5.4,2.3v-2l14.4-6.1v2l-5.3,2.3v66.6L-273.6,607.8z"/>
<path d="M-255.1,600v-66.6l-5.4,2.3v-2l14.4-6.1v2l-5.3,2.3v66.6L-255.1,600z"/>
<path d="M-242.1,594.5v-68.6l10.2-4.3v2l-6.5,2.8v29.4l6-2.6v2l-6,2.6v33.2l6.9-2.9v2L-242.1,594.5z"/>
<path d="M-216.3,583.5v-30.2c0-2.1-0.3-3.4-0.9-3.9c-0.6-0.5-1.7-0.4-3.4,0.3l-2.4,1v35.6l-3.7,1.6v-68.6l6.7-2.8
	c2.9-1.2,4.8-1.6,5.9-1c1.1,0.5,1.6,2.3,1.6,5.2v17c0,2.8-0.4,4.9-1.2,6.3c-0.8,1.4-2.2,2.6-4.4,3.8c2.1-0.8,3.5-0.8,4.3,0
	c0.8,0.7,1.2,2.5,1.2,5.4v28.6L-216.3,583.5z M-222.9,519v30.1l2.5-1c1.6-0.7,2.6-1.5,3.3-2.6c0.6-1,0.9-2.6,0.9-4.6v-19.2
	c0-2.1-0.3-3.4-0.9-3.9c-0.6-0.5-1.7-0.4-3.4,0.3L-222.9,519z"/>
<path d="M-191.8,518.2v1.4c0,1.7,0.1,3.1,0.4,4.1c0.3,1.1,0.7,2.1,1.2,3.1l5.2,9.3c0.1,0.2,0.2,0.5,0.5,0.9
	c2.1,3.7,3.2,7.5,3.2,11.6v13.2c0,2.9-0.5,5.1-1.6,6.6c-1.1,1.5-2.9,2.8-5.5,3.9c-2.6,1.1-4.4,1.4-5.5,0.7c-1.1-0.6-1.6-2.4-1.6-5.2
	v-15l3.7-1.6v15.7c0,2.2,0.2,3.5,0.7,4.1c0.5,0.6,1.4,0.6,2.6,0c1.2-0.5,2.1-1.3,2.6-2.3c0.5-1,0.8-2.6,0.8-4.7v-12.8
	c0-2.3-0.2-4.2-0.6-5.9c-0.4-1.7-1.2-3.5-2.3-5.4l-4.2-7.5c-0.1-0.1-0.2-0.4-0.4-0.7c-2-3.4-3-6.6-3-9.7V513c0-2.9,0.5-5.1,1.6-6.6
	c1.1-1.5,2.9-2.9,5.5-4c2.6-1.1,4.4-1.3,5.5-0.7c1.1,0.6,1.6,2.4,1.6,5.3v13.3l-3.7,1.6v-13.9c0-2.1-0.3-3.4-0.8-4
	c-0.5-0.6-1.4-0.6-2.6-0.1c-1.2,0.5-2.1,1.3-2.6,2.3c-0.5,1-0.8,2.6-0.8,4.7L-191.8,518.2L-191.8,518.2z"/>
<path d="M-160.8,529.6c0,2.9-0.5,5.1-1.6,6.5c-1.1,1.4-3,2.8-5.9,4l-2.9,1.2v23l-3.7,1.6v-68.6l6.7-2.8c2.9-1.2,4.8-1.6,5.9-1
	c1.1,0.5,1.6,2.3,1.6,5.3L-160.8,529.6L-160.8,529.6z M-164.6,531.8v-32.1c0-2.1-0.3-3.4-0.9-3.9c-0.6-0.5-1.7-0.4-3.4,0.3l-2.4,1
	V540l2.5-1c1.6-0.7,2.6-1.5,3.3-2.5C-164.9,535.4-164.6,533.8-164.6,531.8z"/>
<path d="M-154.6,495.6c0-2.9,0.5-5.1,1.6-6.6c1.1-1.5,2.9-2.9,5.5-4c2.6-1.1,4.4-1.3,5.5-0.7c1.1,0.6,1.6,2.4,1.6,5.3v61.7l-3.7,1.6
	v-35.2l-6.7,2.8v35.2l-3.7,1.6L-154.6,495.6L-154.6,495.6z M-150.9,493.3v25.2l6.7-2.8v-25.2c0-2.1-0.3-3.4-0.8-4
	c-0.5-0.6-1.4-0.6-2.6-0.1c-1.2,0.5-2,1.3-2.5,2.3C-150.7,489.7-150.9,491.2-150.9,493.3z"/>
<path d="M-133.4,541.4v-54.9c0-2.9,0.5-5.1,1.6-6.6c1.1-1.5,2.9-2.9,5.5-4c2.6-1.1,4.4-1.3,5.5-0.7c1.1,0.6,1.6,2.4,1.6,5.3V494
	l-3.7,1.6v-14.1c0-2.1-0.3-3.4-0.8-4c-0.5-0.6-1.4-0.6-2.6-0.1c-1.2,0.5-2,1.3-2.5,2.3c-0.5,1-0.8,2.6-0.8,4.7v56.2
	c0,2.2,0.2,3.5,0.7,4.1c0.5,0.5,1.4,0.6,2.6,0.1c1.2-0.5,2.1-1.3,2.6-2.3c0.5-1,0.8-2.6,0.8-4.7V522l3.7-1.6v15
	c0,2.9-0.5,5.1-1.6,6.6c-1.1,1.5-2.9,2.8-5.5,3.9c-2.6,1.1-4.4,1.3-5.5,0.7C-132.9,546-133.4,544.3-133.4,541.4z"/>
<path d="M-112.9,539.5V471l10.2-4.3v2l-6.5,2.8v29.4l6-2.6v2l-6,2.6v33.2l6.9-2.9v2L-112.9,539.5z"/>
<path d="M-86.8,528.5v-68.6l6.7-2.8c2.9-1.2,4.8-1.6,5.9-1c1.1,0.5,1.6,2.3,1.6,5.3v17c0,2.8-0.4,4.9-1.2,6.3
	c-0.8,1.4-2.2,2.6-4.4,3.8c2.1-0.8,3.5-0.8,4.3,0c0.8,0.7,1.2,2.5,1.2,5.4V515c0,3-0.5,5.2-1.6,6.7c-1.1,1.5-3,2.8-5.9,4
	L-86.8,528.5z M-83.1,459.6v30.1l2.5-1.1c1.6-0.7,2.6-1.5,3.3-2.6c0.6-1,0.9-2.6,0.9-4.6v-19.2c0-2.1-0.3-3.4-0.9-3.9
	c-0.6-0.5-1.7-0.4-3.4,0.3L-83.1,459.6z M-83.1,491.2v34.3l2.5-1.1c1.6-0.7,2.6-1.5,3.3-2.6c0.6-1,0.9-2.6,0.9-4.6v-23.4
	c0-2.1-0.3-3.4-0.9-3.9c-0.6-0.5-1.7-0.4-3.4,0.3L-83.1,491.2z"/>
<path d="M-65.6,519.4v-68.6l10.2-4.3v2l-6.5,2.8v29.4l6-2.6v2l-6,2.6v33.2l6.9-2.9v2L-65.6,519.4z"/>
<path d="M-48,512v-66.6l-5.4,2.3v-2l14.4-6.1v2l-5.3,2.3v66.6L-48,512z"/>
<path d="M-29.5,504.1v-66.6l-5.4,2.3v-2l14.4-6.1v2l-5.3,2.3v66.6L-29.5,504.1z"/>
<path d="M-16.6,498.6V430l10.2-4.3v2l-6.5,2.8v29.4l6-2.6v2l-6,2.6V495l6.9-2.9v2L-16.6,498.6z"/>
<path d="M9.3,487.6v-30.2c0-2.1-0.3-3.4-0.9-3.9c-0.6-0.5-1.7-0.4-3.4,0.3l-2.4,1v35.6l-3.7,1.6v-68.6l6.7-2.8
	c2.9-1.2,4.8-1.6,5.9-1c1.1,0.5,1.6,2.3,1.6,5.3v17c0,2.8-0.4,4.9-1.2,6.3c-0.8,1.4-2.2,2.6-4.4,3.8c2.1-0.8,3.5-0.8,4.3,0
	c0.8,0.7,1.2,2.5,1.2,5.4V486L9.3,487.6z M2.6,423.2v30.1l2.5-1.1c1.6-0.7,2.6-1.5,3.3-2.6c0.6-1,0.9-2.6,0.9-4.6v-19.2
	c0-2.1-0.3-3.4-0.9-3.9c-0.6-0.5-1.7-0.4-3.4,0.3L2.6,423.2z"/>
<path d="M30.7,478.5v-68.6l3.7-1.6v66.6l6.9-2.9v2L30.7,478.5z"/>
<path d="M45.7,403.6l3.7-1.6v68.6l-3.7,1.6V403.6z"/>
<path d="M54.5,399.8l3.9-1.7c0.2,6.2,0.6,13.5,1.3,21.9c0.7,8.4,1.6,18.8,2.8,31.4c0.7-9.1,1.4-18.5,2.1-27.9
	c0.6-9.5,1.2-19,1.7-28.7l2.7-1.1c-0.9,14.9-1.9,28.5-3,40.5c-1,12.1-2.1,22.5-3.2,31.3l-1.5,0.7c-1.6-10.7-3-21.5-4.1-32.6
	C56,422.5,55.1,411.3,54.5,399.8z"/>
<path d="M74,391.5l3.7-1.6v68.6l-3.7,1.6V391.5z"/>
<path d="M84.8,455.5V387l2.9-1.2l8.3,43.8l-0.7-47l3.6-1.5v68.6l-3.6,1.5v-14l-7.6-39.8l0.8,56.8L84.8,455.5z"/>
<path d="M106,439.7v-54.9c0-2.9,0.5-5.1,1.6-6.6c1.1-1.5,2.9-2.9,5.5-4c2.6-1.1,4.4-1.3,5.5-0.7c1.1,0.6,1.6,2.4,1.6,5.3v13.5
	l-3.7,1.6v-14.1c0-2.1-0.3-3.4-0.8-4c-0.5-0.6-1.4-0.6-2.6-0.1c-1.2,0.5-2,1.3-2.5,2.3c-0.5,1-0.8,2.6-0.8,4.7v56.2
	c0,2.2,0.3,3.5,0.7,4.1c0.5,0.6,1.4,0.6,2.6,0.1c1.2-0.5,2.1-1.3,2.6-2.3c0.5-1,0.8-2.6,0.8-4.7v-25.6l-4.2,1.8v-2l7.9-3.4v27
	c0,2.9-0.5,5.1-1.6,6.6c-1.1,1.5-2.9,2.8-5.5,3.9c-2.6,1.1-4.4,1.3-5.5,0.7C106.5,444.3,106,442.5,106,439.7z"/>
</svg>
