<?xml version="1.0" encoding="utf-8"?>
<!-- Generator: Adobe Illustrator 16.0.0, SVG Export Plug-In . SVG Version: 6.00 Build 0)  -->
<!DOCTYPE svg PUBLIC "-//W3C//DTD SVG 1.1//EN" "http://www.w3.org/Graphics/SVG/1.1/DTD/svg11.dtd">
<svg version="1.1" id="Calque_2" xmlns="http://www.w3.org/2000/svg" xmlns:xlink="http://www.w3.org/1999/xlink" x="0px" y="0px"
	 width="500px" height="500px" viewBox="0 0 500 500" enable-background="new 0 0 500 500" xml:space="preserve">
<g>
	<path fill="#E42729" d="M189.529,249.266c0,4.879-3.97,8.85-8.856,8.85c-4.888,0-8.845-3.971-8.845-8.85
		c0-4.893,3.957-8.854,8.845-8.854C185.559,240.412,189.529,244.373,189.529,249.266"/>
	<path fill="#0D224B" d="M98.103,223.521h-0.126c-5.279-8.956-11.641-11.063-31.434-11.012c-16.752,0-24.663,1.29-30.971,5.3
		c-7.716,4.941-10.584,13.505-10.571,30.914c0,17.103,1.797,24.311,7.813,29.702c6.337,5.523,15.625,7.391,34.927,7.391h0.307
		c18.398,0,25.945-2.496,31.113-10.729h0.444v8.989h26.128v-97.807h-27.63 M94.48,262.156c-2.743,1.904-9.915,3.118-19.565,3.097
		c-19.625-0.207-22.103-2.029-22.283-16.383c0.181-14.033,2.771-15.745,23.631-15.949c19.317,0.204,21.783,2.033,21.977,16.239
		C98.24,257.128,97.183,260.477,94.48,262.156z M233.594,284.077h27.627v-97.802h-27.627V284.077z M360.8,261.679l0.071-0.626
		H333.42l-0.083,0.471c-0.542,3.054-1.379,4.516-4.209,5.517c-2.869,0.986-7.854,1.265-16.294,1.265
		c-9.526,0.007-14.985-0.918-17.588-2.796c-2.271-1.693-2.979-3.616-3.036-10.124h69.021l0.027-0.545
		c0.153-3.351,0.14-6.405,0.14-7.851c0.014-14.536-2.535-22.742-8.874-27.844c-6.627-5.209-15.163-6.636-39.091-6.636
		c-23.007,0-31.976,1.435-39.037,6.181c-7.717,5.215-9.845,12.374-9.831,30.912c0,17.377,2.114,24.513,9.206,29.724
		c6.643,4.773,16.474,6.49,37.126,6.49h1.172C348.711,285.816,358.92,280.66,360.8,261.679z M313.895,229.589
		c10.417-0.021,15.709,1.077,17.813,3.298c1.446,1.426,1.74,2.398,1.907,7.286H292.24
		C292.754,231.448,296.387,229.733,313.895,229.589z M428.273,246.702l29.554-32.314h-36.264l-14.514,18.252h-0.629l-13.592-18.252
		h-37.949l30.46,33.763l-31.504,35.94h35.026l17.699-23.196h0.778l17.271,23.196h36.236L428.273,246.702z"/>
	<path fill="#0D224B" d="M208.554,212.345H152.65c-12.156,0-20.692,8.584-20.692,21.782v6.554h96.72v-6.554
		C228.678,220.929,220.726,212.345,208.554,212.345"/>
	<path fill="#0D224B" d="M228.68,264.106v-6.201h-96.722v6.201c0,13.196,8.536,21.779,20.692,21.779h55.906
		C220.726,285.886,228.68,277.303,228.68,264.106"/>
	<polyline fill="#0D224B" points="233.692,292.924 236.866,292.924 236.866,306.693 245.53,306.693 245.53,309.2 233.692,309.2 	"/>
	<polyline fill="#0D224B" points="245.5,294.379 245.5,292.927 248.272,292.927 248.272,294.379 247.84,298.687 245.934,298.687 	
		"/>
	<path fill="#0D224B" d="M251.072,303.37c0-4.438,3.619-6.067,6.419-6.067c3.021,0,5.918,1.562,5.918,6.312v0.637h-9.216
		c0.124,2.112,1.629,3.033,3.605,3.033c1.753,0,2.771-0.501,3.787-1.361l1.643,1.408c-1.392,1.341-3.245,2.111-5.666,2.111
		C254.193,309.442,251.072,307.662,251.072,303.37 M260.542,302.226c-0.181-1.778-1.198-2.722-3.077-2.722
		c-1.52,0-2.928,0.746-3.218,2.722H260.542z"/>
	<polyline fill="#0D224B" points="268.952,303.176 264.58,297.523 267.908,297.523 270.735,301.26 273.452,297.523 276.668,297.523 
		272.253,303.176 276.933,309.2 273.605,309.2 270.5,305.11 267.45,309.2 264.262,309.2 	"/>
	<path fill="#0D224B" d="M279.063,297.523h3.121v1.539c0.891-0.923,2.299-1.76,4.303-1.76c3.063,0,5.335,1.999,5.335,6.048
		c0,4.048-2.311,6.028-5.767,6.028c-1.448,0-2.871-0.508-3.871-1.476v5.693h-3.121 M288.687,303.37c0-2.462-1.211-3.761-3.217-3.761
		c-1.295,0-2.55,0.708-3.286,1.476v4.688c0.851,0.942,2.061,1.448,3.176,1.448C287.728,307.221,288.687,305.966,288.687,303.37z"/>
	<path fill="#0D224B" d="M293.826,303.37c0-4.438,3.636-6.067,6.422-6.067c3.021,0,5.918,1.562,5.918,6.312v0.637h-9.219
		c0.126,2.112,1.629,3.033,3.608,3.033c1.753,0,2.77-0.501,3.788-1.361l1.655,1.408c-1.405,1.341-3.259,2.111-5.667,2.111
		C296.947,309.442,293.826,307.662,293.826,303.37 M303.299,302.226c-0.184-1.778-1.185-2.722-3.064-2.722
		c-1.532,0-2.928,0.746-3.231,2.722H303.299z"/>
	<path fill="#0D224B" d="M308.924,297.523h3.118v1.913h0.058c0.836-1.166,2.284-2.134,4.847-2.134h0.193l-0.097,2.485
		c-0.154-0.021-0.656-0.044-0.836-0.044c-2.008,0-3.271,0.815-4.165,2.068v7.388h-3.118"/>
	<path fill="#0D224B" d="M320.452,306.144v-6.466h-2.338v-2.154h2.338v-4.068h3.121v4.068h3.483v2.154h-3.483v5.783
		c0,1.254,0.432,1.76,1.978,1.76c0.462,0,1.043-0.067,1.352-0.15v2.13c-0.332,0.068-1.503,0.155-2.282,0.155
		C321.195,309.355,320.452,308.254,320.452,306.144"/>
	<path fill="#0D224B" d="M335.257,303.396c0-4.047,2.312-6.094,5.768-6.094c1.448,0,2.869,0.508,3.855,1.474v-5.853h3.135v13.418
		c0,1.407,0.097,2.264,0.404,2.858h-3.231c-0.18-0.329-0.308-0.985-0.308-1.584c-0.986,0.989-2.283,1.763-4.287,1.763
		C337.528,309.379,335.257,307.441,335.257,303.396 M344.88,305.686v-4.69c-0.835-0.943-2.047-1.448-3.174-1.448
		c-2.354,0-3.315,1.32-3.315,3.915c0,2.461,1.211,3.691,3.219,3.691C342.905,307.153,344.156,306.451,344.88,305.686z"/>
	<path fill="#0D224B" d="M351.371,305.903v-8.38h3.148v7.743c0,1.296,0.629,1.887,2.006,1.887c1.365,0,2.52-0.611,3.663-1.518
		v-8.112h3.144V309.2h-3.144v-1.584c-0.866,0.795-2.495,1.802-4.93,1.802C352.889,309.418,351.371,308.215,351.371,305.903"/>
	<path fill="#0D224B" d="M372.207,307.596l1.696-1.648c1.017,0.746,2.51,1.384,4.235,1.384c1.685,0,2.702-0.374,2.702-1.341
		c0-0.947-1.378-1.231-3.007-1.56c-2.315-0.465-5.071-0.993-5.071-3.696c0-2.048,2.033-3.432,5-3.432
		c2.563,0,4.136,0.639,5.544,1.652l-1.505,1.757c-0.991-0.703-2.589-1.275-3.817-1.275c-1.727,0-2.282,0.524-2.282,1.188
		c0,0.942,1.349,1.23,2.951,1.538c2.311,0.441,5.124,0.947,5.124,3.673c0,2.466-2.562,3.606-5.639,3.606
		C375.66,309.442,373.417,308.669,372.207,307.596"/>
	<path fill="#0D224B" d="M385.56,303.37c0-4.438,3.633-6.067,6.423-6.067c3.034,0,5.917,1.562,5.917,6.312v0.637h-9.219
		c0.124,2.112,1.629,3.033,3.605,3.033c1.758,0,2.774-0.501,3.787-1.361l1.646,1.408c-1.394,1.341-3.244,2.111-5.653,2.111
		C388.681,309.442,385.56,307.662,385.56,303.37 M395.031,302.226c-0.181-1.778-1.182-2.722-3.065-2.722
		c-1.528,0-2.924,0.746-3.231,2.722H395.031z"/>
	<path fill="#0D224B" d="M400.657,297.523h3.12v1.913h0.058c0.836-1.166,2.281-2.134,4.844-2.134h0.198l-0.102,2.485
		c-0.15-0.021-0.651-0.044-0.833-0.044c-2.007,0-3.271,0.815-4.165,2.068v7.388h-3.12"/>
	<path fill="#0D224B" d="M411.117,297.523h3.118v1.913h0.056c0.837-1.166,2.285-2.134,4.847-2.134h0.211l-0.1,2.485
		c-0.15-0.021-0.666-0.044-0.851-0.044c-2.003,0-3.271,0.815-4.163,2.068v7.388h-3.118"/>
	<path fill="#0D224B" d="M420.278,306.386c0-2.529,2.496-4.223,8.792-4.838v-0.351c0-1.165-0.712-1.673-2.201-1.673
		c-1.884,0-3.412,0.793-4.553,1.585l-1.52-1.692c1.45-1.146,3.704-2.114,6.504-2.114c3.605,0,4.847,1.496,4.847,4.221v4.818
		c0,1.407,0.11,2.264,0.392,2.858h-3.164c-0.168-0.484-0.305-0.836-0.305-1.494c-1.365,1.211-2.968,1.673-4.974,1.673
		C421.912,309.379,420.278,308.321,420.278,306.386 M429.07,305.947v-2.577c-3.733,0.442-5.71,1.235-5.71,2.509
		c0,0.923,0.736,1.405,1.877,1.405C426.838,307.284,428.08,306.759,429.07,305.947z"/>
	<path fill="#0D224B" d="M434.08,310.874c0-1.17,0.837-2.003,2.215-2.466c-0.696-0.308-1.043-0.792-1.043-1.432
		c0-0.88,0.809-1.603,1.827-2.127c-1.37-0.75-2.132-1.94-2.132-3.365c0-2.402,2.132-4.182,5.666-4.182
		c1.854,0,3.218,0.529,4.138,1.234c0.863-0.596,2.242-1.062,3.355-1.147v2.201c-0.611,0-1.476,0.063-2.368,0.308
		c0.308,0.419,0.488,0.966,0.488,1.586c0,2.438-2.118,4.151-5.613,4.151c-0.767,0-1.224-0.088-1.88-0.241
		c-0.418,0.201-0.682,0.441-0.682,0.749c0,0.462,0.348,0.615,1.545,0.702l2.382,0.131c3.998,0.22,5.572,1.145,5.572,3.191
		c0,2.398-2.8,3.562-6.963,3.562C435.933,313.729,434.08,312.566,434.08,310.874 M444.778,310.409c0-0.836-0.682-1.141-3.426-1.296
		l-2.341-0.134c-0.278,0-0.528-0.021-0.819-0.063c-0.88,0.352-1.241,0.899-1.241,1.492c0,1.034,1.364,1.363,4.121,1.363
		C443.356,311.772,444.778,311.244,444.778,310.409z M443.383,301.567c0-1.451-0.974-2.243-2.754-2.243
		c-1.729,0-2.745,0.815-2.745,2.243c0,1.432,1.044,2.202,2.772,2.202C442.369,303.77,443.383,302.999,443.383,301.567z"/>
	<path fill="#0D224B" d="M449.15,303.37c0-4.438,3.636-6.067,6.419-6.067c3.024,0,5.921,1.562,5.921,6.312v0.637h-9.219
		c0.124,2.112,1.629,3.033,3.605,3.033c1.756,0,2.774-0.501,3.786-1.361l1.646,1.408c-1.395,1.341-3.244,2.111-5.656,2.111
		C452.271,309.442,449.15,307.662,449.15,303.37 M458.621,302.226c-0.182-1.778-1.198-2.722-3.079-2.722
		c-1.518,0-2.91,0.746-3.214,2.722H458.621z"/>
	<path fill="#0D224B" d="M459.663,207.652c0-4.309,3.373-7.714,7.704-7.714c4.303,0,7.634,3.365,7.634,7.677
		c0,4.304-3.372,7.714-7.673,7.714C462.995,215.329,459.663,211.96,459.663,207.652 M473.729,207.652
		c0-3.666-2.782-6.554-6.401-6.554c-3.65,0-6.394,2.847-6.394,6.517c0,3.667,2.783,6.55,6.433,6.55
		C470.986,214.165,473.729,211.321,473.729,207.652z M464.4,203.283h3.104c1.98,0,3.146,0.864,3.146,2.565
		c0,1.325-0.678,2.023-1.698,2.361l1.826,3.47h-1.712l-1.687-3.266h-1.391c0,0.298,0,3.205,0,3.266h-1.59V203.283z M467.42,207.21
		c1.06,0,1.673-0.361,1.673-1.281c0-0.883-0.613-1.24-1.683-1.24h-1.421v2.521H467.42z"/>
</g>
</svg>
