<?xml version="1.0" encoding="utf-8"?>
<!-- Generator: Adobe Illustrator 21.0.2, SVG Export Plug-In . SVG Version: 6.00 Build 0)  -->
<svg version="1.1" id="Calque_1" xmlns="http://www.w3.org/2000/svg" xmlns:xlink="http://www.w3.org/1999/xlink" x="0px" y="0px"
	 viewBox="0 0 500 294" style="enable-background:new 0 0 500 294;" xml:space="preserve">
<style type="text/css">
	.st0{fill:#D40032;}
</style>
<path class="st0" d="M306.5,220.2V73.9c6.8,0.6,10.6,1.2,17.4,2c4.2,0.5,6.4,0.9,10.4,1.6l18.3,49.5l22.1-42
	c4.4,1.2,6.9,1.9,11.3,2.9c3.2,0.8,5.1,1.2,8.4,1.9l0.1,114.2c-3.6,1.2-5.7,1.8-9.4,2.8c-4.1,1.1-6.4,1.6-10.5,2.4v-77.6l-23.2,48.6
	l-20.1-49.7v86.4c-4.3,0.8-6.7,1.2-11.1,1.9C314.8,219.4,311.8,219.8,306.5,220.2"/>
<path class="st0" d="M238.6,68.9h-6.5c-22.4,0-40.5,18.1-40.5,40.5v74.3c0,22.4,18.1,40.5,40.5,40.5h6.5c22.4,0,40.5-18.1,40.5-40.5
	v-74.3C279.1,87,261,68.9,238.6,68.9 M253.9,180.3c0,11-8.3,19.9-18.5,19.9s-18.6-8.9-18.6-19.9v-67.5c0-11,8.3-19.9,18.6-19.9
	c10.2,0,18.5,8.9,18.5,19.9V180.3z"/>
<path class="st0" d="M137.1,76.3l-2.9,0.2c-8-0.1-22.1,2.7-32.3,4.9l-24.8,5.4v120.3c9.7,1.8,15.1,2.7,24.8,4.3
	c14.1,2.3,18.2,3.2,31.6,4.7l3.6,0.1c15.1,0,27.3-12.2,27.3-27.3v-85.3C164.4,88.5,152.2,76.3,137.1,76.3 M137.7,178.8
	c0,6.8-5.5,11.5-12.4,11.5c0,0-2.8,0.2-4.6,0c-7.1-1-16.8-2.1-18.4-2.6V104c2.7-0.6,13.9-2.4,18.5-3c1.7-0.2,4.5,0,4.5,0
	c6.8,0,12.4,4.7,12.4,11.5V178.8L137.7,178.8z"/>
<path class="st0" d="M30.4,57.5L25,59.4v175.1l5.4,1.9c59.9,20.8,130.3,31.7,203.5,31.7s143.6-11,203.5-31.7l5.4-1.9V59.4l-5.4-1.9
	c-59.9-20.8-130.3-31.8-203.5-31.8C160.7,25.8,90.3,36.8,30.4,57.5 M233.9,42c69.3,0,135.7,10.1,192.8,29.1v151.8
	c-57,19-123.4,29.1-192.7,29.1S98.3,241.9,41.2,222.9V71.1C98.2,52.1,164.7,42,233.9,42"/>
<path d="M467.5,73.1c0-4-3-4.4-5.5-4.4h-4.5v13.6h2.3v-5.5h3l2.1,5.5h2.7l-2.5-5.9C466,76,467.5,75.5,467.5,73.1z M462.6,74.7h-3
	v-3.6h0.1h2.7c1.5,0,2.3,0.6,2.3,1.8C464.7,74.1,463.8,74.7,462.6,74.7z"/>
<path d="M462.1,62.9c-7.1,0-12.9,5.8-12.9,12.9c0.1,7.1,5.9,12.9,12.9,12.9c7.1,0,12.9-5.8,12.9-12.9S469.2,62.9,462.1,62.9z
	 M462.2,86.8c-6.1,0-11-4.9-11-11c0-6,4.9-11,11-11c6,0,11,4.9,11,11C473.2,81.8,468.3,86.8,462.2,86.8z"/>
</svg>
