<svg xmlns="http://www.w3.org/2000/svg" viewBox="0 0 325.3 96" enable-background="new 0 0 325.3 96"><path fill-rule="evenodd" clip-rule="evenodd" fill="#BDBEBF" d="M294.3 64.4c6.8 8.9 6.9 9 17.9 23.5-55.6-10.6-167.1-40.4-300-4.9 117.4-41.1 222.8-30 282.1-18.6z"/><path fill-rule="evenodd" clip-rule="evenodd" d="M128.2 23.6c.3-1.3.4-3 .9-4.5 1.5-4.3 4.7-8.3 9.3-9.9-.7 4.5-1.8 10.2-2.7 15.7-1 6.3-1.9 12.7-3.2 16.9-.6 1.6-1.4 3-2.3 4.2-.4.6-.9 1.1-1.5 1.7-2.3 2.1-5.5 3.5-10.1 3.8-1.7 0-3-.3-4.3-.8-1.5-.6-2.5-1.9-3-3.5-.4-1.5.3-4.2.7-7.3.4-2.9.8-6.2 2.2-8.4.5-.9 1-1.8 1.7-2.6 2.9-3.4 6.9-5.5 12.3-5.3zm-6.6 6.4c.4-1.9 1-2.9 2.8-3.1 1.8-.1 2.7 1.7 2.5 2.5l-2.6 16.4c-.5 1.6-1.6 2.3-2.9 2.4-2 0-2.5-2-2.3-3.3.8-5 1.7-10 2.5-14.9zM154.6 23.6c2.2.1 7.7 1.6 6.3 7.5-.7 4-1.1 7.8-1.9 10.6-.6 1.6-1.4 3-2.3 4.2-.4.6-.9 1.1-1.5 1.7-2.3 2.1-5.5 3.5-10.1 3.8-1.7 0-3-.3-4.3-.8-1.5-.6-2.5-1.9-3-3.5-.4-1.5.3-4.2.7-7.3.4-2.9.8-6.2 2.2-8.4.5-.9 1-1.8 1.7-2.6 2.8-3.3 6.8-5.5 12.2-5.2zm-6.6 6.3c.4-1.9 1-2.9 2.8-3.1 1.8-.1 2.7 1.7 2.5 2.5l-2.6 16.4c-.5 1.6-1.6 2.3-2.9 2.4-2 0-2.5-2-2.3-3.3.8-4.9 1.7-9.9 2.5-14.9zM259.8 23.6c2.2.1 7.7 1.6 6.3 7.5-.7 4-1.1 7.8-1.9 10.6-.6 1.6-1.4 3-2.3 4.2-.4.6-.9 1.1-1.5 1.7-2.3 2.1-5.5 3.5-10.1 3.8-1.7 0-3-.3-4.3-.8-1.5-.6-2.5-1.9-3-3.5-.4-1.5.3-4.2.7-7.3.4-2.9.8-6.2 2.2-8.4.5-.9 1-1.8 1.7-2.6 2.7-3.4 6.7-5.5 12.2-5.2zm-6.6 6.3c.4-1.9 1-2.9 2.8-3.1 1.8-.1 2.7 1.7 2.5 2.5-.9 5.4-1.7 10.9-2.6 16.4-.5 1.6-1.6 2.3-2.9 2.4-2 0-2.5-2-2.3-3.3.8-5 1.6-10 2.5-14.9zM165.4 33.4c1.8-4.7 4.8-7.4 8.1-8.7 4.3-1.7 9.5-1.5 11.9.6 7.6-4 15.5-.9 14.8 4.3l-3.6 21.5h-7.9c1.2-7.2 2.4-14.4 3.6-21.5.1-3.7-4.6-3.7-5.3-.1l-3.5 21.6h-7.8c1.2-7.2 2.3-14.4 3.5-21.7-.3-3.4-4.7-3.5-5.3.5l-3.5 21.1h-7.8c.9-5.8 1.8-11.7 2.8-17.6zM203.7 35.5c1-4.2 2.8-8.5 9.6-11.1l-4.5 26.8h-7.8l2.7-15.7zM205.9 21.9l1.5-8h7.2c-.6 2.3-3.1 6.6-8.7 8zM217.7 34.5c5.4-15.4 24-12.5 21.9-4.4l-3.5 21.1h-7.9l3.6-21.5c.4-3.6-4.7-4.4-5.5.7l-3.3 20.8h-7.9c.9-5.6 1.8-11.1 2.6-16.7z"/><path fill-rule="evenodd" clip-rule="evenodd" fill="#DC4733" d="M127.3 22.6c.3-1.3.4-3 .9-4.5 1.5-4.3 4.7-8.3 9.3-9.9-.7 4.5-1.8 10.2-2.7 15.7-1 6.3-1.9 12.7-3.2 16.9-.6 1.6-1.4 3-2.3 4.2-.4.6-.9 1.1-1.5 1.7-2.3 2.1-5.5 3.5-10.1 3.8-1.7 0-3-.3-4.3-.8-1.5-.6-2.5-1.9-3-3.5-.4-1.5.3-4.2.7-7.3.4-2.9.8-6.2 2.2-8.4.5-.9 1-1.8 1.7-2.6 2.8-3.4 6.9-5.6 12.3-5.3zm-6.6 6.3c.4-1.9 1-2.9 2.8-3.1 1.8-.1 2.7 1.7 2.5 2.5l-2.6 16.4c-.5 1.6-1.6 2.3-2.9 2.4-2 0-2.5-2-2.3-3.3.8-4.9 1.6-9.9 2.5-14.9zM153.7 22.6c2.2.1 7.7 1.6 6.3 7.5-.7 4-1.1 7.8-1.9 10.6-.6 1.6-1.4 3-2.3 4.2-.4.6-.9 1.1-1.5 1.7-2.3 2.1-5.5 3.5-10.1 3.8-1.7 0-3-.3-4.3-.8-1.5-.6-2.5-1.9-3-3.5-.4-1.5.3-4.2.7-7.3.4-2.9.8-6.2 2.2-8.4.5-.9 1-1.8 1.7-2.6 2.7-3.3 6.7-5.5 12.2-5.2zm-6.6 6.3c.4-1.9 1-2.9 2.8-3.1 1.8-.1 2.7 1.7 2.5 2.5-.9 5.4-1.7 10.9-2.6 16.4-.5 1.6-1.6 2.3-2.9 2.4-2 0-2.5-2-2.3-3.3.8-4.9 1.6-9.9 2.5-14.9zM258.9 22.6c2.2.1 7.7 1.6 6.3 7.5-.7 4-1.1 7.8-1.9 10.6-.6 1.6-1.4 3-2.3 4.2-.4.6-.9 1.1-1.5 1.7-2.3 2.1-5.5 3.5-10.1 3.8-1.7 0-3-.3-4.3-.8-1.5-.6-2.5-1.9-3-3.5-.4-1.5.3-4.2.7-7.3.4-2.9.8-6.2 2.2-8.4.5-.9 1-1.8 1.7-2.6 2.7-3.4 6.7-5.5 12.2-5.2zm-6.7 6.3c.4-1.9 1-2.9 2.8-3.1 1.8-.1 2.7 1.7 2.5 2.5-.9 5.4-1.7 10.9-2.6 16.4-.5 1.6-1.6 2.3-2.9 2.4-2 0-2.5-2-2.3-3.3.9-5 1.7-10 2.5-14.9zM164.5 32.4c1.8-4.7 4.8-7.4 8.1-8.7 4.3-1.7 9.5-1.5 11.9.6 7.6-4 15.5-.9 14.8 4.3l-3.6 21.5h-7.9c1.2-7.2 2.4-14.4 3.6-21.5.1-3.7-4.6-3.7-5.3-.1l-3.5 21.6h-7.8c1.2-7.2 2.3-14.4 3.5-21.7-.3-3.4-4.7-3.5-5.3.5l-3.5 21.1h-7.8c.8-5.8 1.8-11.7 2.8-17.6zM202.7 34.5c1-4.2 2.8-8.5 9.6-11.1l-4.5 26.8h-7.8c1-5.2 1.9-10.5 2.7-15.7zM205 20.9l1.5-8h7.2c-.7 2.3-3.2 6.6-8.7 8zM216.8 33.5c5.4-15.4 24-12.5 21.9-4.4l-3.5 21.1h-7.9l3.6-21.5c.4-3.6-4.7-4.4-5.5.7l-3.4 20.8h-7.9c1-5.6 1.8-11.1 2.7-16.7z"/><linearGradient id="a" gradientUnits="userSpaceOnUse" x1="80.972" y1="25.398" x2="80.972" y2="51.57"><stop offset="0" stop-color="#969696"/><stop offset="1" stop-color="#050505"/></linearGradient><path fill="url(#a)" d="M67.9 25.4h26.2v26.2h-26.2z"/><path fill="#050505" d="M94.1 25.4v26.2h-26.2v-26.2h26.2m1.1-1.1h-28.400000000000002v28.400000000000002h28.400000000000002v-28.400000000000002z"/><linearGradient id="b" gradientUnits="userSpaceOnUse" x1="52.438" y1="51.57" x2="52.438" y2="25.398"><stop offset="0" stop-color="#fff"/><stop offset="1" stop-color="#BDBDBD"/></linearGradient><path fill="url(#b)" d="M39.4 25.4h26.2v26.2h-26.2z"/><path fill="#fff" d="M65.5 25.4v26.2h-26.1v-26.2h26.1m1.2-1.1h-28.400000000000002v28.400000000000002h28.400000000000002v-28.400000000000002z"/><path fill="#010202" d="M66.7 52.8h-28.6v-28.6h28.6v28.6zm-28.4-.2h28.3v-28.3h-28.3v28.3z"/><path fill-rule="evenodd" clip-rule="evenodd" d="M56.6 38.6c0 2-1.6 3.7-3.7 3.7-2 0-3.6-1.6-3.6-3.7 0-2 1.6-3.6 3.6-3.6 2.1 0 3.7 1.6 3.7 3.6z"/><path fill-rule="evenodd" clip-rule="evenodd" fill="#fff" d="M84.6 38.6c0 2-1.6 3.7-3.6 3.7s-3.7-1.6-3.7-3.7c0-2 1.6-3.6 3.7-3.6 2 0 3.6 1.6 3.6 3.6z"/></svg>