<?xml version="1.0" encoding="utf-8"?>
<!-- Generator: Adobe Illustrator 19.1.0, SVG Export Plug-In . SVG Version: 6.00 Build 0)  -->
<svg version="1.1" id="Calque_1" xmlns="http://www.w3.org/2000/svg" xmlns:xlink="http://www.w3.org/1999/xlink" x="0px" y="0px"
	 viewBox="-86 203 325.3 96" style="enable-background:new -86 203 325.3 96;" xml:space="preserve">
<style type="text/css">
	.st0{fill:#BDBEBF;}
	.st1{fill:#DC4733;}
	.st2{fill:url(#SVGID_1_);}
	.st3{fill:#050505;}
	.st4{fill:url(#SVGID_2_);}
	.st5{fill:#FFFFFF;}
	.st6{fill:#010202;}
</style>
<path class="st0" d="M208.3,267.4c6.8,8.9,6.9,9,17.9,23.5c-55.6-10.6-167.1-40.4-300-4.9C43.6,244.9,149,256,208.3,267.4z"/>
<path d="M42.2,226.6c0.3-1.3,0.4-3,0.9-4.5c1.5-4.3,4.7-8.3,9.3-9.9c-0.7,4.5-1.8,10.2-2.7,15.7c-1,6.3-1.9,12.7-3.2,16.9
	c-0.6,1.6-1.4,3-2.3,4.2c-0.4,0.6-0.9,1.1-1.5,1.7c-2.3,2.1-5.5,3.5-10.1,3.8c-1.7,0-3-0.3-4.3-0.8c-1.5-0.6-2.5-1.9-3-3.5
	c-0.4-1.5,0.3-4.2,0.7-7.3c0.4-2.9,0.8-6.2,2.2-8.4c0.5-0.9,1-1.8,1.7-2.6C32.8,228.5,36.8,226.4,42.2,226.6L42.2,226.6z M35.6,233
	c0.4-1.9,1-2.9,2.8-3.1c1.8-0.1,2.7,1.7,2.5,2.5l-2.6,16.4c-0.5,1.6-1.6,2.3-2.9,2.4c-2,0-2.5-2-2.3-3.3
	C33.9,242.9,34.8,237.9,35.6,233z M68.6,226.6c2.2,0.1,7.7,1.6,6.3,7.5c-0.7,4-1.1,7.8-1.9,10.6c-0.6,1.6-1.4,3-2.3,4.2
	c-0.4,0.6-0.9,1.1-1.5,1.7c-2.3,2.1-5.5,3.5-10.1,3.8c-1.7,0-3-0.3-4.3-0.8c-1.5-0.6-2.5-1.9-3-3.5c-0.4-1.5,0.3-4.2,0.7-7.3
	c0.4-2.9,0.8-6.2,2.2-8.4c0.5-0.9,1-1.8,1.7-2.6C59.2,228.5,63.2,226.3,68.6,226.6L68.6,226.6z M62,232.9c0.4-1.9,1-2.9,2.8-3.1
	c1.8-0.1,2.7,1.7,2.5,2.5l-2.6,16.4c-0.5,1.6-1.6,2.3-2.9,2.4c-2,0-2.5-2-2.3-3.3C60.3,242.9,61.2,237.9,62,232.9z M173.8,226.6
	c2.2,0.1,7.7,1.6,6.3,7.5c-0.7,4-1.1,7.8-1.9,10.6c-0.6,1.6-1.4,3-2.3,4.2c-0.4,0.6-0.9,1.1-1.5,1.7c-2.3,2.1-5.5,3.5-10.1,3.8
	c-1.7,0-3-0.3-4.3-0.8c-1.5-0.6-2.5-1.9-3-3.5c-0.4-1.5,0.3-4.2,0.7-7.3c0.4-2.9,0.8-6.2,2.2-8.4c0.5-0.9,1-1.8,1.7-2.6
	C164.3,228.4,168.3,226.3,173.8,226.6z M167.2,232.9c0.4-1.9,1-2.9,2.8-3.1c1.8-0.1,2.7,1.7,2.5,2.5c-0.9,5.4-1.7,10.9-2.6,16.4
	c-0.5,1.6-1.6,2.3-2.9,2.4c-2,0-2.5-2-2.3-3.3C165.5,242.8,166.3,237.8,167.2,232.9L167.2,232.9z M79.4,236.4
	c1.8-4.7,4.8-7.4,8.1-8.7c4.3-1.7,9.5-1.5,11.9,0.6c7.6-4,15.5-0.9,14.8,4.3l-3.6,21.5h-7.9c1.2-7.2,2.4-14.4,3.6-21.5
	c0.1-3.7-4.6-3.7-5.3-0.1l-3.5,21.6h-7.8c1.2-7.2,2.3-14.4,3.5-21.7c-0.3-3.4-4.7-3.5-5.3,0.5L84.4,254h-7.8
	C77.5,248.2,78.4,242.3,79.4,236.4z M117.7,238.5c1-4.2,2.8-8.5,9.6-11.1l-4.5,26.8H115C115,254.2,117.7,238.5,117.7,238.5z
	 M119.9,224.9l1.5-8h7.2C128,219.2,125.5,223.5,119.9,224.9z M131.7,237.5c5.4-15.4,24-12.5,21.9-4.4l-3.5,21.1h-7.9l3.6-21.5
	c0.4-3.6-4.7-4.4-5.5,0.7l-3.3,20.8h-7.9C130,248.6,130.9,243.1,131.7,237.5L131.7,237.5z"/>
<path class="st1" d="M41.3,225.6c0.3-1.3,0.4-3,0.9-4.5c1.5-4.3,4.7-8.3,9.3-9.9c-0.7,4.5-1.8,10.2-2.7,15.7
	c-1,6.3-1.9,12.7-3.2,16.9c-0.6,1.6-1.4,3-2.3,4.2c-0.4,0.6-0.9,1.1-1.5,1.7c-2.3,2.1-5.5,3.5-10.1,3.8c-1.7,0-3-0.3-4.3-0.8
	c-1.5-0.6-2.5-1.9-3-3.5c-0.4-1.5,0.3-4.2,0.7-7.3c0.4-2.9,0.8-6.2,2.2-8.4c0.5-0.9,1-1.8,1.7-2.6C31.8,227.5,35.9,225.3,41.3,225.6
	z M34.7,231.9c0.4-1.9,1-2.9,2.8-3.1c1.8-0.1,2.7,1.7,2.5,2.5l-2.6,16.4c-0.5,1.6-1.6,2.3-2.9,2.4c-2,0-2.5-2-2.3-3.3
	C33,241.9,33.8,236.9,34.7,231.9z M67.7,225.6c2.2,0.1,7.7,1.6,6.3,7.5c-0.7,4-1.1,7.8-1.9,10.6c-0.6,1.6-1.4,3-2.3,4.2
	c-0.4,0.6-0.9,1.1-1.5,1.7c-2.3,2.1-5.5,3.5-10.1,3.8c-1.7,0-3-0.3-4.3-0.8c-1.5-0.6-2.5-1.9-3-3.5c-0.4-1.5,0.3-4.2,0.7-7.3
	c0.4-2.9,0.8-6.2,2.2-8.4c0.5-0.9,1-1.8,1.7-2.6C58.2,227.5,62.2,225.3,67.7,225.6L67.7,225.6z M61.1,231.9c0.4-1.9,1-2.9,2.8-3.1
	c1.8-0.1,2.7,1.7,2.5,2.5c-0.9,5.4-1.7,10.9-2.6,16.4c-0.5,1.6-1.6,2.3-2.9,2.4c-2,0-2.5-2-2.3-3.3
	C59.4,241.9,60.2,236.9,61.1,231.9z M172.9,225.6c2.2,0.1,7.7,1.6,6.3,7.5c-0.7,4-1.1,7.8-1.9,10.6c-0.6,1.6-1.4,3-2.3,4.2
	c-0.4,0.6-0.9,1.1-1.5,1.7c-2.3,2.1-5.5,3.5-10.1,3.8c-1.7,0-3-0.3-4.3-0.8c-1.5-0.6-2.5-1.9-3-3.5c-0.4-1.5,0.3-4.2,0.7-7.3
	c0.4-2.9,0.8-6.2,2.2-8.4c0.5-0.9,1-1.8,1.7-2.6C163.4,227.4,167.4,225.3,172.9,225.6z M166.2,231.9c0.4-1.9,1-2.9,2.8-3.1
	c1.8-0.1,2.7,1.7,2.5,2.5c-0.9,5.4-1.7,10.9-2.6,16.4c-0.5,1.6-1.6,2.3-2.9,2.4c-2,0-2.5-2-2.3-3.3
	C164.6,241.8,165.4,236.8,166.2,231.9z M78.5,235.4c1.8-4.7,4.8-7.4,8.1-8.7c4.3-1.7,9.5-1.5,11.9,0.6c7.6-4,15.5-0.9,14.8,4.3
	l-3.6,21.5h-7.9c1.2-7.2,2.4-14.4,3.6-21.5c0.1-3.7-4.6-3.7-5.3-0.1l-3.5,21.6h-7.8c1.2-7.2,2.3-14.4,3.5-21.7
	c-0.3-3.4-4.7-3.5-5.3,0.5L83.5,253h-7.8C76.5,247.2,77.5,241.3,78.5,235.4z M116.7,237.5c1-4.2,2.8-8.5,9.6-11.1l-4.5,26.8H114
	C115,248,115.9,242.7,116.7,237.5z M119,223.9l1.5-8h7.2C127,218.2,124.5,222.5,119,223.9z M130.8,236.5c5.4-15.4,24-12.5,21.9-4.4
	l-3.5,21.1h-7.9l3.6-21.5c0.4-3.6-4.7-4.4-5.5,0.7l-3.4,20.8h-7.9C129.1,247.6,129.9,242.1,130.8,236.5L130.8,236.5z"/>
<linearGradient id="SVGID_1_" gradientUnits="userSpaceOnUse" x1="-5" y1="275.6" x2="-5" y2="249.428" gradientTransform="matrix(1 0 0 -1 0 504)">
	<stop  offset="0" style="stop-color:#969696"/>
	<stop  offset="1" style="stop-color:#050505"/>
</linearGradient>
<path class="st2" d="M-18.1,228.4H8.1v26.2h-26.2L-18.1,228.4z"/>
<path class="st3" d="M8.1,228.4v26.2h-26.2v-26.2H8.1 M9.2,227.3h-28.4v28.4H9.2V227.3z"/>
<linearGradient id="SVGID_2_" gradientUnits="userSpaceOnUse" x1="-33.5" y1="249.43" x2="-33.5" y2="275.602" gradientTransform="matrix(1 0 0 -1 0 504)">
	<stop  offset="0" style="stop-color:#FFFFFF"/>
	<stop  offset="1" style="stop-color:#BDBDBD"/>
</linearGradient>
<path class="st4" d="M-46.6,228.4h26.2v26.2h-26.2L-46.6,228.4z"/>
<path class="st5" d="M-20.5,228.4v26.2h-26.1v-26.2H-20.5 M-19.3,227.3h-28.4v28.4h28.4V227.3z"/>
<path class="st6" d="M-19.3,255.8h-28.6v-28.6h28.6V255.8z M-47.7,255.6h28.3v-28.3h-28.3C-47.7,227.3-47.7,255.6-47.7,255.6z"/>
<path d="M-29.4,241.6c0,2-1.6,3.7-3.7,3.7c-2,0-3.6-1.6-3.6-3.7c0-2,1.6-3.6,3.6-3.6C-31,238-29.4,239.6-29.4,241.6z"/>
<path class="st5" d="M-1.4,241.6c0,2-1.6,3.7-3.6,3.7s-3.7-1.6-3.7-3.7c0-2,1.6-3.6,3.7-3.6C-3,238-1.4,239.6-1.4,241.6z"/>
</svg>
