<?xml version="1.0" encoding="utf-8"?>
<!-- Generator: Adobe Illustrator 21.0.2, SVG Export Plug-In . SVG Version: 6.00 Build 0)  -->
<svg version="1.1" id="Calque_1" xmlns="http://www.w3.org/2000/svg" xmlns:xlink="http://www.w3.org/1999/xlink" x="0px" y="0px"
	 viewBox="0 0 325.3 96" style="enable-background:new 0 0 325.3 96;" xml:space="preserve">
<style type="text/css">
	.st0{fill:#BDBEBF;}
	.st1{fill:#DC4733;}
	.st2{fill:url(#SVGID_1_);}
	.st3{fill:#050505;}
	.st4{fill:url(#SVGID_2_);}
	.st5{fill:#FFFFFF;}
	.st6{fill:#010202;}
</style>
<path class="st0" d="M294.3,64.4c6.8,8.9,6.9,9,17.9,23.5c-55.6-10.6-167.1-40.4-300-4.9C129.6,41.9,235,53,294.3,64.4z"/>
<path d="M185.4,25.3c-2.4-2.1-7.6-2.3-11.9-0.6c-3.3,1.3-6.3,4-8.1,8.7c-1,5.9-1.9,11.8-2.8,17.6h7.8l3.5-21.1c0.6-4,5-3.9,5.3-0.5
	c-1.2,7.3-2.3,14.5-3.5,21.7h7.8l3.5-21.6c0.7-3.6,5.4-3.6,5.3,0.1c-1.2,7.1-2.4,14.3-3.6,21.5h7.9l3.6-21.5
	C200.9,24.4,193,21.3,185.4,25.3z"/>
<path d="M154.6,23.6c-5.4-0.3-9.4,1.9-12.2,5.2c-0.7,0.8-1.2,1.7-1.7,2.6c-1.4,2.2-1.8,5.5-2.2,8.4c-0.4,3.1-1.1,5.8-0.7,7.3
	c0.5,1.6,1.5,2.9,3,3.5c1.3,0.5,2.6,0.8,4.3,0.8c4.6-0.3,7.8-1.7,10.1-3.8c0.6-0.6,1.1-1.1,1.5-1.7c0.9-1.2,1.7-2.6,2.3-4.2
	c0.8-2.8,1.2-6.6,1.9-10.6C162.3,25.2,156.8,23.7,154.6,23.6z M153.3,29.3l-2.6,16.4c-0.5,1.6-1.6,2.3-2.9,2.4c-2,0-2.5-2-2.3-3.3
	c0.8-4.9,1.7-9.9,2.5-14.9c0.4-1.9,1-2.9,2.8-3.1C152.6,26.7,153.5,28.5,153.3,29.3z"/>
<path d="M129.1,19.1c-0.5,1.5-0.6,3.2-0.9,4.5c-5.4-0.2-9.4,1.9-12.3,5.3c-0.7,0.8-1.2,1.7-1.7,2.6c-1.4,2.2-1.8,5.5-2.2,8.4
	c-0.4,3.1-1.1,5.8-0.7,7.3c0.5,1.6,1.5,2.9,3,3.5c1.3,0.5,2.6,0.8,4.3,0.8c4.6-0.3,7.8-1.7,10.1-3.8c0.6-0.6,1.1-1.1,1.5-1.7
	c0.9-1.2,1.7-2.6,2.3-4.2c1.3-4.2,2.2-10.6,3.2-16.9c0.9-5.5,2-11.2,2.7-15.7C133.8,10.8,130.6,14.8,129.1,19.1z M126.9,29.4
	l-2.6,16.4c-0.5,1.6-1.6,2.3-2.9,2.4c-2,0-2.5-2-2.3-3.3c0.8-5,1.7-10,2.5-14.9c0.4-1.9,1-2.9,2.8-3.1
	C126.2,26.8,127.1,28.6,126.9,29.4z"/>
<path d="M205.9,21.9c5.6-1.4,8.1-5.7,8.7-8h-7.2L205.9,21.9z"/>
<path d="M203.7,35.5L201,51.2h7.8l4.5-26.8C206.5,27,204.7,31.3,203.7,35.5z"/>
<path d="M259.8,23.6c-5.5-0.3-9.5,1.8-12.2,5.2c-0.7,0.8-1.2,1.7-1.7,2.6c-1.4,2.2-1.8,5.5-2.2,8.4c-0.4,3.1-1.1,5.8-0.7,7.3
	c0.5,1.6,1.5,2.9,3,3.5c1.3,0.5,2.6,0.8,4.3,0.8c4.6-0.3,7.8-1.7,10.1-3.8c0.6-0.6,1.1-1.1,1.5-1.7c0.9-1.2,1.7-2.6,2.3-4.2
	c0.8-2.8,1.2-6.6,1.9-10.6C267.5,25.2,262,23.7,259.8,23.6z M258.5,29.3c-0.9,5.4-1.7,10.9-2.6,16.4c-0.5,1.6-1.6,2.3-2.9,2.4
	c-2,0-2.5-2-2.3-3.3c0.8-5,1.6-10,2.5-14.9c0.4-1.9,1-2.9,2.8-3.1C257.8,26.7,258.7,28.5,258.5,29.3z"/>
<path d="M217.7,34.5c-0.8,5.6-1.7,11.1-2.6,16.7h7.9l3.3-20.8c0.8-5.1,5.9-4.3,5.5-0.7l-3.6,21.5h7.9l3.5-21.1
	C241.7,22,223.1,19.1,217.7,34.5z"/>
<path class="st1" d="M184.5,24.3c-2.4-2.1-7.6-2.3-11.9-0.6c-3.3,1.3-6.3,4-8.1,8.7c-1,5.9-2,11.8-2.8,17.6h7.8l3.5-21.1
	c0.6-4,5-3.9,5.3-0.5c-1.2,7.3-2.3,14.5-3.5,21.7h7.8l3.5-21.6c0.7-3.6,5.4-3.6,5.3,0.1c-1.2,7.1-2.4,14.3-3.6,21.5h7.9l3.6-21.5
	C200,23.4,192.1,20.3,184.5,24.3z"/>
<path class="st1" d="M153.7,22.6c-5.5-0.3-9.5,1.9-12.2,5.2c-0.7,0.8-1.2,1.7-1.7,2.6c-1.4,2.2-1.8,5.5-2.2,8.4
	c-0.4,3.1-1.1,5.8-0.7,7.3c0.5,1.6,1.5,2.9,3,3.5c1.3,0.5,2.6,0.8,4.3,0.8c4.6-0.3,7.8-1.7,10.1-3.8c0.6-0.6,1.1-1.1,1.5-1.7
	c0.9-1.2,1.7-2.6,2.3-4.2c0.8-2.8,1.2-6.6,1.9-10.6C161.4,24.2,155.9,22.7,153.7,22.6z M152.4,28.3c-0.9,5.4-1.7,10.9-2.6,16.4
	c-0.5,1.6-1.6,2.3-2.9,2.4c-2,0-2.5-2-2.3-3.3c0.8-4.9,1.6-9.9,2.5-14.9c0.4-1.9,1-2.9,2.8-3.1C151.7,25.7,152.6,27.5,152.4,28.3z"
	/>
<path class="st1" d="M128.2,18.1c-0.5,1.5-0.6,3.2-0.9,4.5c-5.4-0.3-9.5,1.9-12.3,5.3c-0.7,0.8-1.2,1.7-1.7,2.6
	c-1.4,2.2-1.8,5.5-2.2,8.4c-0.4,3.1-1.1,5.8-0.7,7.3c0.5,1.6,1.5,2.9,3,3.5c1.3,0.5,2.6,0.8,4.3,0.8c4.6-0.3,7.8-1.7,10.1-3.8
	c0.6-0.6,1.1-1.1,1.5-1.7c0.9-1.2,1.7-2.6,2.3-4.2c1.3-4.2,2.2-10.6,3.2-16.9c0.9-5.5,2-11.2,2.7-15.7
	C132.9,9.8,129.7,13.8,128.2,18.1z M126,28.3l-2.6,16.4c-0.5,1.6-1.6,2.3-2.9,2.4c-2,0-2.5-2-2.3-3.3c0.8-4.9,1.6-9.9,2.5-14.9
	c0.4-1.9,1-2.9,2.8-3.1C125.3,25.7,126.2,27.5,126,28.3z"/>
<path class="st1" d="M216.8,33.5c-0.9,5.6-1.7,11.1-2.7,16.7h7.9l3.4-20.8c0.8-5.1,5.9-4.3,5.5-0.7l-3.6,21.5h7.9l3.5-21.1
	C240.8,21,222.2,18.1,216.8,33.5z"/>
<path class="st1" d="M258.9,22.6c-5.5-0.3-9.5,1.8-12.2,5.2c-0.7,0.8-1.2,1.7-1.7,2.6c-1.4,2.2-1.8,5.5-2.2,8.4
	c-0.4,3.1-1.1,5.8-0.7,7.3c0.5,1.6,1.5,2.9,3,3.5c1.3,0.5,2.6,0.8,4.3,0.8c4.6-0.3,7.8-1.7,10.1-3.8c0.6-0.6,1.1-1.1,1.5-1.7
	c0.9-1.2,1.7-2.6,2.3-4.2c0.8-2.8,1.2-6.6,1.9-10.6C266.6,24.2,261.1,22.7,258.9,22.6z M257.5,28.3c-0.9,5.4-1.7,10.9-2.6,16.4
	c-0.5,1.6-1.6,2.3-2.9,2.4c-2,0-2.5-2-2.3-3.3c0.9-5,1.7-10,2.5-14.9c0.4-1.9,1-2.9,2.8-3.1C256.8,25.7,257.7,27.5,257.5,28.3z"/>
<path class="st1" d="M202.7,34.5c-0.8,5.2-1.7,10.5-2.7,15.7h7.8l4.5-26.8C205.5,26,203.7,30.3,202.7,34.5z"/>
<path class="st1" d="M205,20.9c5.5-1.4,8-5.7,8.7-8h-7.2L205,20.9z"/>
<linearGradient id="SVGID_1_" gradientUnits="userSpaceOnUse" x1="81" y1="-407.6" x2="81" y2="-381.428" gradientTransform="matrix(1 0 0 1 0 433)">
	<stop  offset="0" style="stop-color:#969696"/>
	<stop  offset="1" style="stop-color:#050505"/>
</linearGradient>
<path class="st2" d="M67.9,25.4h26.2v26.2H67.9V25.4z"/>
<path class="st3" d="M94.1,25.4v26.2H67.9V25.4H94.1 M95.2,24.3H66.8v28.4h28.4V24.3z"/>
<linearGradient id="SVGID_2_" gradientUnits="userSpaceOnUse" x1="52.5" y1="-381.43" x2="52.5" y2="-407.602" gradientTransform="matrix(1 0 0 1 0 433)">
	<stop  offset="0" style="stop-color:#FFFFFF"/>
	<stop  offset="1" style="stop-color:#BDBDBD"/>
</linearGradient>
<path class="st4" d="M39.4,25.4h26.2v26.2H39.4V25.4z"/>
<path class="st5" d="M65.5,25.4v26.2H39.4V25.4H65.5 M66.7,24.3H38.3v28.4h28.4C66.7,52.7,66.7,24.3,66.7,24.3z"/>
<path class="st6" d="M66.7,52.8H38.1V24.2h28.6C66.7,24.2,66.7,52.8,66.7,52.8z M38.3,52.6h28.3V24.3H38.3V52.6z"/>
<path d="M56.6,38.6c0,2-1.6,3.7-3.7,3.7c-2,0-3.6-1.6-3.6-3.7c0-2,1.6-3.6,3.6-3.6C55,35,56.6,36.6,56.6,38.6z"/>
<path class="st5" d="M84.6,38.6c0,2-1.6,3.7-3.6,3.7s-3.7-1.6-3.7-3.7c0-2,1.6-3.6,3.7-3.6C83,35,84.6,36.6,84.6,38.6z"/>
</svg>
