<?xml version="1.0" encoding="utf-8"?>
<!-- Generator: Adobe Illustrator 21.0.2, SVG Export Plug-In . SVG Version: 6.00 Build 0)  -->
<svg version="1.1" id="Calque_2" xmlns="http://www.w3.org/2000/svg" xmlns:xlink="http://www.w3.org/1999/xlink" x="0px" y="0px"
	 viewBox="0 0 500 390" style="enable-background:new 0 0 500 390;" xml:space="preserve">
<style type="text/css">
	.st0{fill:#2D5F8D;}
</style>
<path class="st0" d="M32.5,321c0-6.9-0.2-6.9-7.5-7.9v-1.5h21.9c15,0,26,3.6,26,23.3c0,22-13.2,23.5-28.6,23.5H32.5V321z
	 M41.2,350.5c0,2.7,0,4.6,5.5,4.6c14.4,0,17.5-6.1,17.5-20.1c0-12.3-1.7-20.2-16.5-20.2c-4.6,0-6.5,0.5-6.5,3.8
	C41.2,318.6,41.2,350.5,41.2,350.5z"/>
<path class="st0" d="M83.4,335.1c0-15,4.7-24.4,21.9-24.4c16.4,0,21.4,9.4,21.4,24.4c0,14.8-5,24-21.4,24
	C88.6,359.2,83.4,350,83.4,335.1z M105.2,355.9c12.2,0,12.7-11.8,12.7-20.7c0-9.1-0.7-21.1-12.7-21.1C93,314.1,92,325.8,92,335.2
	C92.1,343.8,93.2,355.9,105.2,355.9z"/>
<path class="st0" d="M140.3,320.5c0-6.5-1.1-6.2-7.8-7.4v-1.5h17.9L166,350h0.2l15.3-38.4h10.7v46.8h-7.9V317h-0.2l-16.6,41.4h-5.6
	l-16.5-41h-0.2v41h-5L140.3,320.5L140.3,320.5z"/>
<path class="st0" d="M246.3,340.4c0,9.3-0.9,18.8-18.8,18.8c-13.9,0-19-5.8-19-16.1v-22.3c0-5.8-0.2-5.9-7.9-6.8v-1.5l16.6-1.6v28.7
	c0,7.9,0,16.4,11.3,16.4c12.1,0,12.1-7.7,12.1-14.8v-29.6h5.7L246.3,340.4L246.3,340.4z"/>
<path class="st0" d="M288.9,317.2c-2.1-0.9-8-3.1-14.1-3.1c-4.2,0-7.6,2.2-7.6,6.7c0,10.7,25.7,9.7,25.7,24.6
	c0,10-8.9,13.7-19.8,13.7c-6.1,0-12.2-1.5-13.8-1.8v-5.6c2.4,1.3,8.8,4.2,15.1,4.2c5,0,9.9-1.8,9.9-8.1c0-11.3-25.7-10.2-25.7-24.9
	c0-7.7,6.6-12,17.8-12c5.5,0,10.6,0.9,12.6,1.3L288.9,317.2L288.9,317.2z"/>
<path class="st0" d="M332.2,320.7c0-5.8-0.2-5.9-7.9-6.8v-1.5l16.6-1.6v39.1c0,5.2,0,5.2,5.3,5.2h6.8c5,0,9.3-0.3,9.3-6.8h2.2
	l-0.2,10.1h-32.1L332.2,320.7L332.2,320.7z"/>
<path class="st0" d="M377.3,335.1c0-4.9-1.3-6.1-6.1-6.2v-1.4l14-2.2v33.1h-7.9V335.1z M376.4,315.4c0-2.4,2.2-4.3,5-4.3
	c2.7,0,5.1,1.9,5.1,4.3s-2.4,4.4-5.1,4.4C378.6,319.8,376.4,317.8,376.4,315.4z"/>
<path class="st0" d="M401.4,335.1c0-4.9-1.3-6.1-6.3-6.2v-1.4l14.2-2.2v8.9h0.2c1.2-2.4,5.4-8.9,13.2-8.9c7.2,0,9.6,4.5,9.6,9.8
	v23.3h-7.9v-18c0-5.5,0-10.4-5.3-10.4c-5.2,0-9.7,6.5-9.7,11.4v17h-7.9L401.4,335.1L401.4,335.1z"/>
<path class="st0" d="M474.3,357.3c-1.5,0.5-5.7,1.9-11.1,1.9c-12.1,0-19.3-6.5-19.3-18.1c0-11,6-15.8,16.6-15.8
	c13.5,0,14.6,8.6,14.6,13.3h-22.5c0,7,3.2,16.8,14.4,16.8c3.3,0,6.1-0.7,7.4-1.2L474.3,357.3L474.3,357.3z M467.1,335.8
	c0-1.6-0.2-8.1-7-8.1c-5.9,0-7.6,5.5-7.6,8.1H467.1z"/>
<path class="st0" d="M369.4,158.1c-14.2,19.3-35.8,36.6-62.3,48.2c-14,6.1-28.3,10.1-42.1,12.1c-2.4-1.8-4.4-4.7-4.4-9.1
	c0-12.1,0-156.7,0-156.7s0.2-8.5,9.5-14c12.4-3.2,24.6-4.9,36.2-4.4v-2.4c-26.8-2.9-57.2,1.6-86.7,14.5
	c-69.1,30.2-107.6,94.9-86,144.5c21.7,49.6,95.3,65.4,164.4,35.2c34.2-14.9,59.6-42.6,75.2-68.5L369.4,158.1z M162.7,176.9
	c-17.3-39.6,10-92,62.4-120.7c5.1,0.4,10.1,2.3,10.1,8.2c0,11.9,0,149.2,0,149.2s0.4,3.5-3.4,5.9
	C199.8,216.5,173.6,201.7,162.7,176.9z"/>
</svg>
