<svg xmlns="http://www.w3.org/2000/svg" viewBox="0 0 300 154.3" enable-background="new 0 0 300 154.3"><path fill="#E4032F" d="M150.1 0c4.8 8.3 9.6 16.6 14.3 24.9l17.4 30.2c.5.8 1 1.1 1.9.9 12.4-1.9 24.7-4.6 36.7-8.5 25.4-8.1 48.8-20.2 70-36.4 3.2-2.4 6.2-4.9 9.5-7.5-8.3 31.1-16.6 62-24.9 92.9h-18.9c4.3-16 8.5-32 12.9-48.2l-3.5 1.8c-19.2 9.9-39.3 17.2-60.3 21.9-8.4 1.9-16.9 3.3-25.5 4.3-2.1.3-4.2.5-6.2.6-.4 0-.9-.4-1.1-.8-4.4-7.6-8.8-15.3-13.3-23-3-5.2-6.1-10.5-9.2-15.9-.6 1.1-1.3 2.1-1.8 3.1-6.9 11.9-13.7 23.7-20.6 35.7-.4.7-.8.9-1.6.8-5.8-.8-11.7-1.4-17.4-2.3-12.5-1.9-24.6-5-36.6-8.9-13.7-4.5-27-10.1-39.7-16.8-.2-.1-.3-.2-.7-.3l12.8 47.8h-19.5l-2.7-10.2c-7.3-26.8-14.5-53.8-21.7-80.8l-.4-.9v-.6l6.2 4.9c32.5 25.5 69.2 41.2 110 47.4.8.1 1.3 0 1.8-.8l22.5-39 9.3-16.2h.3z"/><path d="M233.6 103.7v49.1h-15.3v-37.4h-.2l-8.3 37.5h-14.5c-2.8-12.6-5.5-25.1-8.3-37.6h-.1v37.6h-15.2v-49.2h24.6l6.2 28.2h.2l2.1-9.4c1.3-6 2.6-12.1 4-18.1 0-.3.5-.7.7-.7h23.8c.1-.1.1-.1.3 0M43.1 114.1v28.4c1.7 0 3.3.1 4.9 0 2.1-.2 3.5-1.7 3.5-3.8v-20.8c0-1.9-1.5-3.6-3.3-3.7-1.7-.2-3.4-.1-5.1-.1m-18.2 38.7v-49.3h27.5c2.8 0 5.5.3 8.1 1.3 5.8 2.4 9 6.7 9.1 13 .1 7 .1 14 0 21.1-.1 5.9-3.9 11.2-10.5 13-1.9.5-3.8.8-5.7.8-9.3.1-18.5 0-27.8 0-.2.2-.4.2-.7.1M140.2 124.3c1.7-.1 3.2 0 4.7-.4 2.5-.6 4.5-3.2 4.4-5.6 0-2.7-1.6-4.9-4.2-5.3-1.6-.3-3.2 0-4.9 0v11.3zm.1 8.3v20.2h-17.5v-49.2l1.1-.1h27.3c3.8 0 7.6.6 10.7 3 4.3 3.2 6.2 7.7 5.4 12.9-.9 5.5-4.2 9-9.6 10.7-.1.1-.3.1-.5.1 3.9 7.5 7.8 14.9 11.8 22.5-.3 0-.5.1-.7.1h-17.1c-.7 0-1-.2-1.3-.9-2.5-6.1-5.1-12.2-7.6-18.4-.3-.8-.7-1.3-2-.9M92 128.2v11.9c0 2.5 1.8 4.3 4.2 4.3 2.4 0 4.2-1.8 4.2-4.3v-23.7c0-2.5-1.8-4.3-4.3-4.3-2.4 0-4.1 1.8-4.1 4.3v11.8m26.6.1v9.6c.1 5.5-2.4 9.6-7 12.6-3.7 2.3-7.8 3.4-12.1 3.7-5.5.4-11 0-16.1-2.3-4.9-2.2-8.3-5.6-9.3-11-.2-1-.3-2.1-.3-3.2 0-6 .1-12.1 0-18.1-.2-8.1 4.1-12.6 10.2-15.2 5.1-2.1 10.4-2.5 15.9-2 4.2.4 8.3 1.4 11.9 3.7 4.5 2.9 6.9 7 6.8 12.4-.1 3.3 0 6.5 0 9.8M264 135.5c-1.2-6.5-2.3-13-3.4-19.4h-.2c-1.1 6.4-2.2 12.9-3.4 19.4h7zm-17.9-31.9h27.7c.8 0 1.1.2 1.3 1 1.9 8.9 3.8 17.8 5.8 26.7 1.5 7 3 14 4.6 21 0 .1 0 .3.1.5h-17.400000000000002c-.9 0-1.2-.2-1.3-1.1-.3-2.4-.8-4.8-1.3-7.2h-10c-.5 2.7-1 5.5-1.4 8.2h-18.6c3.4-16.3 6.9-32.7 10.5-49.1"/></svg>