<?xml version="1.0" encoding="utf-8"?>
<!-- Generator: Adobe Illustrator 21.0.2, SVG Export Plug-In . SVG Version: 6.00 Build 0)  -->
<svg version="1.1" id="Calque_1" xmlns="http://www.w3.org/2000/svg" xmlns:xlink="http://www.w3.org/1999/xlink" x="0px" y="0px"
	 viewBox="0 0 500 172" style="enable-background:new 0 0 500 172;" xml:space="preserve">
<style type="text/css">
	.st0{fill:#E2001A;}
	.st1{fill:#005193;}
</style>
<path class="st0" d="M92.6,94.1c0,8.6-7,15.5-15.5,15.5c-8.6,0-15.5-7-15.5-15.5c0-8.6,7-15.5,15.5-15.5
	C85.7,78.5,92.6,85.5,92.6,94.1z"/>
<path class="st0" d="M407.4,94.1c0,8.6,7,15.5,15.5,15.5c8.6,0,15.5-7,15.5-15.5c0-8.6-7-15.5-15.5-15.5
	C414.3,78.5,407.4,85.5,407.4,94.1z"/>
<rect x="335.9" y="64.4" class="st1" width="30.2" height="82.3"/>
<circle class="st1" cx="351" cy="43.6" r="17.1"/>
<path class="st1" d="M176.9,64.4v45.7c0,4.3-3.5,7.8-7.8,7.8h-0.4c-4.3,0-7.8-3.5-7.8-7.8V64.4h-28.6v43.5
	c0,21.4,16.4,38.8,36.6,38.8c20.1,0,36.5-17.5,36.5-38.8V64.4L176.9,64.4L176.9,64.4z"/>
<path class="st1" d="M331.3,64.5c-19.6,0.6-35.5,17.8-35.5,38.8v43.5h28.6v-45.7c0-4,3-7.2,6.9-7.7V64.5L331.3,64.5z"/>
<path class="st1" d="M96.3,25.2v69.9h0.1c-0.5,10.4-8.9,18.7-19.3,18.7c-10.7,0-19.4-8.8-19.4-19.6c0-10.8,8.7-19.6,19.4-19.6
	c6.3,0,11.8,3,15.3,7.7V44c-4.8-1.5-10-2.3-15.3-2.3C48.3,41.7,25,65.2,25,94.2s23.3,52.5,52.1,52.5c28.5,0,51.5-23,52-51.6l0,0
	V25.2L96.3,25.2L96.3,25.2z"/>
<path class="st1" d="M403.7,25.2v69.9h-0.1c0.5,10.4,8.9,18.7,19.3,18.7c10.7,0,19.4-8.8,19.4-19.6c0-10.8-8.7-19.6-19.4-19.6
	c-6.3,0-11.7,3-15.3,7.7V44c4.8-1.5,10-2.3,15.3-2.3c28.8,0,52.1,23.5,52.1,52.5s-23.3,52.5-52.1,52.5c-28.4,0-51.5-23-52-51.6l0,0
	V25.2L403.7,25.2L403.7,25.2z"/>
<path class="st1" d="M289.9,101.1c-1.9-20.6-19.2-36.7-40.3-36.7c-22.4,0-40.5,18.1-40.5,40.5s18.1,40.5,40.5,40.5
	c2,0,4-0.2,5.9-0.5v-30.2c-1.7,1-3.7,1.7-5.9,1.7c-6.3,0-11.5-5.1-11.5-11.5c0-6.3,5.1-11.5,11.5-11.5c5,0,9.2,3.2,10.8,7.7l0,0
	v45.7h29.7v-45.7L289.9,101.1L289.9,101.1z"/>
</svg>
