<?xml version="1.0" encoding="utf-8"?>
<!-- Generator: Adobe Illustrator 16.0.0, SVG Export Plug-In . SVG Version: 6.00 Build 0)  -->
<!DOCTYPE svg PUBLIC "-//W3C//DTD SVG 1.1//EN" "http://www.w3.org/Graphics/SVG/1.1/DTD/svg11.dtd">
<svg version="1.1" id="Calque_1" xmlns="http://www.w3.org/2000/svg" xmlns:xlink="http://www.w3.org/1999/xlink" x="0px" y="0px"
	 width="500px" height="500px" viewBox="0 0 500 500" enable-background="new 0 0 500 500" xml:space="preserve">
<g>
	<path fill="#E2001A" d="M92.617,258.054c0,8.582-6.957,15.536-15.533,15.536c-8.577,0-15.534-6.954-15.534-15.536
		c0-8.576,6.957-15.531,15.534-15.531C85.66,242.523,92.617,249.478,92.617,258.054z"/>
	<path fill="#E2001A" d="M407.383,258.054c0,8.582,6.954,15.536,15.531,15.536c8.576,0,15.536-6.954,15.536-15.536
		c0-8.576-6.96-15.531-15.536-15.531C414.337,242.523,407.383,249.478,407.383,258.054z"/>
	<g>
		<rect x="335.885" y="228.417" fill="#005193" width="30.151" height="82.342"/>
		<circle fill="#005193" cx="350.961" cy="207.575" r="17.131"/>
		<path fill="#005193" d="M176.903,228.417v45.683c0,4.272-3.496,7.768-7.771,7.768h-0.447c-4.274,0-7.771-3.495-7.771-7.768
			v-45.683H132.36v43.493c0,21.371,16.446,38.849,36.55,38.849c20.1,0,36.547-17.478,36.547-38.849v-43.493H176.903z"/>
		<path fill="#005193" d="M331.345,228.475c-19.605,0.618-35.468,17.81-35.468,38.793v43.49h28.557v-45.68
			c0-3.979,3.04-7.244,6.911-7.683V228.475z"/>
		<path fill="#005193" d="M96.271,189.241v69.9h0.137c-0.485,10.381-8.911,18.668-19.324,18.668
			c-10.724,0-19.418-8.77-19.418-19.583c0-10.817,8.694-19.587,19.418-19.587c6.253,0,11.751,3.033,15.303,7.661v-38.298
			c-4.839-1.499-9.977-2.313-15.303-2.313C48.318,205.69,25,229.208,25,258.226c0,29.011,23.317,52.532,52.083,52.532
			c28.454,0,51.545-23.034,52.035-51.617h0.045v-69.9H96.271z"/>
		<path fill="#005193" d="M403.727,189.241v69.9h-0.134c0.487,10.381,8.913,18.668,19.321,18.668
			c10.729,0,19.423-8.77,19.423-19.583c0-10.817-8.694-19.587-19.423-19.587c-6.253,0-11.746,3.033-15.301,7.661v-38.298
			c4.84-1.499,9.979-2.313,15.301-2.313c28.771,0,52.086,23.519,52.086,52.536c0,29.011-23.315,52.532-52.086,52.532
			c-28.449,0-51.545-23.034-52.032-51.617h-0.049v-69.9H403.727z"/>
		<path fill="#005193" d="M289.892,265.079c-1.928-20.563-19.226-36.662-40.292-36.662c-22.362,0-40.49,18.127-40.49,40.484
			c0,22.362,18.128,40.487,40.49,40.487c2.002,0,3.956-0.193,5.878-0.477v-30.197c-1.724,1.038-3.721,1.67-5.881,1.67
			c-6.342,0-11.48-5.14-11.48-11.483c0-6.339,5.139-11.479,11.48-11.479c4.992,0,9.2,3.207,10.78,7.656h0.042v45.68h29.665v-45.68
			H289.892z"/>
	</g>
</g>
</svg>
