<?xml version="1.0" encoding="utf-8"?>
<!-- Generator: Adobe Illustrator 21.0.2, SVG Export Plug-In . SVG Version: 6.00 Build 0)  -->
<svg version="1.1" id="Calque_1" xmlns="http://www.w3.org/2000/svg" xmlns:xlink="http://www.w3.org/1999/xlink" x="0px" y="0px"
	 viewBox="0 0 500 160" style="enable-background:new 0 0 500 160;" xml:space="preserve">
<style type="text/css">
	.st0{fill:#D0012A;}
	.st1{fill:#FFFFFF;}
</style>
<rect x="25" y="14.6" class="st0" width="450" height="130.8"/>
<path class="st1" d="M330.2,130.3H330v-0.4C330,130,330,130.2,330.2,130.3"/>
<path class="st1" d="M153.6,49.6l3.9-6.5c0.9-1.5-0.6-2.1-2-2.4c-1.3-0.3-6.5-1.1-8.5,1.7s-5.5,6.6-5.5,6.6
	c-10.6,0.3-30.5,0.3-45.1,2s-53.9,7-58.6,26.7c-1.8,8.5,4,13.3,12.3,12.2c-2-2.6-5.4-8.5-0.7-15S71.7,53.3,131.2,55
	c5.1,0.2,4.7,1.4,2.8,3.8c-1.9,2.4-35.1,45.6-35.1,45.6c-6,0.2-15.9-1.9-16.2,3.1c-0.3,4.9,13.7,3.4,18.4,3.4
	c4.7,0,74.7-3.4,86.2-34.2C194,58.8,166.8,50.9,153.6,49.6z M175.1,81.3c-15.8,18.2-54.9,21.5-62.1,21.3l35.6-46.2l15,1.9
	C169.2,59,184.5,64.6,175.1,81.3z"/>
<path class="st1" d="M392.3,66.5c-1.8-0.5-3.1,1.2-5.4,2.6c-3.4-1-6.8-3.6-14.2,1.3c-6.4,4.2-11.8,10-14.3,14.3l-4.4,4.4l0,0l0,0
	c0,0-5.3,4-6.3,4.8s-2.9,0.7-3.4-0.3c-0.4-1,0.1-2.3,1.1-4.1c0.9-1.8,4.9-6.9,7-10.9s-1.1-6.9-3.3-9.4c0,0,0-3.3,0.4-4.9
	c0.4-1.6,0.5-5.6-3.2-5.6c-3.9,0-6.5,7.6-3.9,9.9c0,0-9.1,10.9-13.3,15.3c-2.3,1.9-6.6,5.6-8.8,7.1c-3.1,2.1-4.7,1.6-2.2-3.3
	s9.6-15.1,12.3-18.5c2.7-3.4,0-3.1-1.1-3.7c-1.1-0.6-2.8,0.7-2.8,0.7c-4.1,6.6-20.4,19.7-22.1,21.4c-2.1,2.1-3.6,2.2-3.6,0.8
	c0-1.4,1.3-2.9,2.6-5c0,0,8-10.9,9.3-12.7s1.3-2.5,0.1-3.4c-1.2-0.9-3.2-0.7-4.5-0.5s-3.1,1.3-3.1,1.3l-2.8,3.6
	c0,0-6.8,4.9-10.8,7.3v0.1c-2,1-3.8,1.3-5.2,1.1c0.2-4.6,0.2-9.8-5.7-10c-6.4-0.1-15.2,7.4-17.6,9c0,0-2,0.7-3.7,1.4v-0.1
	c-0.1,0.1-0.2,0.1-0.3,0.2c-0.5,0.2-0.9,0.4-1.3,0.5v0.1c-1.6,0.6-2.9,0.3-3.2-1.6c2.8-5.2,2.2-9.8,0-10.6c-2.1-0.8-4.3,1.1-5.7,3.3
	c-2.5,3.8-2,6.2-1.4,9.5c-4.6,8.6-11.7,15.2-13.5,14.5c-1.5-0.6-2.5-2.8-0.9-6.9c1.7-4.1,5.1-12.9,5.1-12.9
	c9.6-9.4,16.7-22.8,18.4-25.8c1.7-3,6-11.2,2.2-12.5c-3.8-1.4-11.3,10.6-14.6,16.3c-3.4,5.7-8.2,15.1-11.7,21.8c0,0-5.2,5.3-9,9.1
	l0,0c-0.1,0.1-0.1,0.1-0.1,0.2c-1.5,1.5-2.8,2.8-3.4,3.4l0.1,0.2c-3.4,3.4-6,5.3-8,6.3c-2.7,1.3-6,2.3-2.6-3.3
	c3.4-5.6,14.1-20.4,14.1-20.4l-4.7-1c-4.1,5-19.6,21.5-25.9,23.1c-1.6,0.2-1.1-0.7,0.1-2.5c1.2-1.8,11.4-16.3,11.4-16.3
	c1.4-1.5,0.7-3.7-5.4-3c-1,0.4-2,0.4-3.1,3.1c-1.1,2.7-13.1,20.5-13.1,20.5c-3.1,4.6-1.2,7.1,0.7,7.3c2,0.2,7.5-0.1,14.7-6.4
	c1.2,3.5,1.7,6.7,6.1,6.6c4.4-0.1,8.8-2.2,20.9-12.5v-0.1l1.2-1c-1.6,6.3-1.5,10.1,4.3,10.9c5.7,0.8,10.8-3.8,14.5-7.2l6.7-8
	c2.7,1.7,3,1.2,5.1,0.5l0,0l2.4-0.6c-2.2,4.8-4.5,13.9,3.8,15.4c9.1,1.6,17.6-11.3,19.8-14.6c4.9,0.4,6.9-0.4,10.1-2.3l3.1-1.4
	c-0.9,5.7-2.2,6-4.9,9.6c-2.7,3.6-1.4,6.3,3,6.5s9.5-4.7,13.5-7.3c-0.7,3.6,1,7.1,4.7,7.1c6.9,0.1,14.8-6.4,19.1-10.6l0.2,0.1
	c0.3-0.4,0.7-0.9,1.1-1.4c0.1-0.1,0.2-0.2,0.3-0.3l0,0c2.7-3.2,7.3-8.5,8.9-10.6c1.9-2.4,3.1-1.5,3.1-1.5l0.8,0.8
	c0,0,0.5,1.5,0.2,2.7c0,0-5,7.5-8.5,13.8c-3.5,6.2,0.9,8.1,4.7,8.4c3.7,0.4,9.7-3.7,13.2-6.3l1.2-0.6c1.4,2.2,2.4,4,4.9,4.2
	s6.1-0.4,9.5-3.6c-0.2,4-1.7,6.7-4.6,12.2c-2.2,4.1-5.5,10.1-10.7,15.5c-5.1,5.4-10.8,10.8-17.5,10.7c-6.8-0.2-7.6-7.9-5.5-11.7
	c2.1-3.9,2.4-3.7,2.6-5s0.5-2.7-1.4-2.8c-1.9-0.1-6.3,2.7-6.9,7.3c-0.6,4.6-1.1,14.8,8.2,16.1c9.3,1.3,16.7-3.6,21.2-7.6
	c11.2-10.2,29.4-48,34.6-55.6l3.4-3.7C394.6,68.7,394.1,67,392.3,66.5z M259.6,85.3c0-0.1,0.1-0.2,0.2-0.4
	C259.7,85,259.6,85.2,259.6,85.3z M260.5,83.4C260.5,83.3,260.5,83.3,260.5,83.4L260.5,83.4z M260,84.3c0.1-0.2,0.2-0.4,0.3-0.6
	C260.2,83.9,260.1,84.1,260,84.3z M275.8,80.6c-1.2,3,1,4-0.8,6.7c-1.7,2.7-6.2,9.1-9,8.2c-2.7-0.9-0.7-5.7,0.6-8.2
	c1.4-2.5,5.7-11.7,11.8-11.1C276.7,77.6,276.2,79.5,275.8,80.6z M381.7,75.8c-0.1,2.4-4.5,6.5-5.9,8.3c-1.4,1.9-5.3,5.8-8.2,6.9
	c-2.9,1.1-4.1-0.6-2.5-4.2s5.4-8.7,7.5-11c2.1-2.4,6.8-4.6,8.1-3.6C381.8,72.5,381.9,73.4,381.7,75.8z"/>
<path class="st1" d="M435.4,75.1c4.8-4.3,16-18.2,18.3-21.4s7.1-13.9,4.4-15.6c-3.5-2.1-10.8,9.1-14.3,13.4
	c-3.5,4.4-8.9,12.4-13,18.6L415.9,84c-3.2,2.1-8.4,5.4-12.4,5.5c-3.9,0.1-6.5-2.7-3-9c4.4-1,14-2.2,18.2-8.1c4.2-5.9,2-8.1-0.4-9
	c-4.6-1.8-21.2,6.3-25.1,17.8c-3.9,11.5,3.3,12.9,7,12.6c3.6-0.2,9-0.3,17.3-6.2l5.5-2.9c-1.3,4.1-0.4,9.3,5.7,9.4
	c8.8,0.2,19.7-13.3,20.8-14.6c1.1-1.3,1.3-3-0.2-2.3s-7.9,5.7-11.5,8.1s-5.7,3.3-6.8,3.4c-1.1,0.1-2.3-2.6-0.4-5.9L435.4,75.1z
	 M413.4,68.6c1.8,0.8,0.4,7.3-8.9,6.6C405.5,73.2,412.1,67.9,413.4,68.6z"/>
</svg>
