<?xml version="1.0" encoding="utf-8"?>
<!-- Generator: Adobe Illustrator 19.1.0, SVG Export Plug-In . SVG Version: 6.00 Build 0)  -->
<svg version="1.1" id="Calque_1" xmlns="http://www.w3.org/2000/svg" xmlns:xlink="http://www.w3.org/1999/xlink" x="0px" y="0px"
	 viewBox="0 0 500 500" style="enable-background:new 0 0 500 500;" xml:space="preserve">
<style type="text/css">
	.st0{fill:none;}
</style>
<g>
	<path d="M473.7,252.4c0.3-53-39.4-99.9-100-127.4c57.5,27.7,95.2,74.2,94.8,126.7c-0.5,76.4-81,139.3-185.7,150
		C390.4,391.1,473.2,328.5,473.7,252.4z"/>
	<path d="M32.5,250.4c0.4-60.2,50.5-112,123-136.5C79.1,137.8,25.9,190.1,25.5,251c-0.5,82.9,96.8,150.7,218.4,152.9
		C126.1,401.3,32,333.4,32.5,250.4z"/>
	<g>
		<path d="M251.1,403.7l-1.5,0c-74.6-0.3-144-25.7-185.7-67.9c-25.3-25.5-38.5-55.4-38.3-86.2c0.3-40.8,23.8-79.1,66.2-107.8
			c42.3-28.6,98.5-44.3,158.2-44.3l1.5,0c74.6,0.3,144,25.7,185.7,67.9c25.3,25.5,38.5,55.4,38.3,86.2
			c-0.2,40.8-23.8,79.1-66.2,107.8C366.9,388,310.8,403.7,251.1,403.7z M249.9,99.7c-59.3,0-115,15.6-156.9,43.9
			c-41.8,28.3-65,65.9-65.2,105.9c-0.2,30.3,12.8,59.5,37.7,84.6c41.3,41.8,110.2,66.9,184.1,67.2l1.5,0c59.3,0,115-15.6,156.9-44
			c41.8-28.3,65-65.9,65.2-105.9c0.2-30.3-12.8-59.5-37.7-84.6c-41.3-41.8-110.2-66.9-184.1-67.2L249.9,99.7z"/>
	</g>
	<g>
		<path class="st0" d="M461.2,251.6c-0.5,81.8-95.4,147.7-211.9,147.1c-116.5-0.5-210.6-67.2-210.1-149
			c0.5-81.8,95.4-147.7,211.9-147.1C367.6,103.1,461.7,169.8,461.2,251.6z"/>
		<path d="M250.6,400.5l-1.4,0c-69.2-0.3-134.1-24.4-173.7-64.4c-25.1-25.4-38.3-55.3-38.1-86.3c0.2-39.9,22.5-77.4,62.7-105.5
			c40-27.9,93.1-43.3,149.5-43.3l1.4,0c69.2,0.3,134.1,24.4,173.7,64.4c25.1,25.4,38.3,55.3,38.1,86.3
			c-0.2,39.9-22.5,77.4-62.7,105.5C360.2,385.1,307.1,400.5,250.6,400.5z M249.7,104.3c-114.7,0-208.4,65.3-208.9,145.5
			c-0.2,30.2,12.7,59.2,37.2,83.9c39,39.4,103,63.1,171.3,63.4l1.4,0c114.7,0,208.4-65.3,208.9-145.5c0.2-30.2-12.7-59.2-37.2-83.9
			c-39-39.4-103-63.1-171.3-63.4L249.7,104.3z"/>
	</g>
	<path d="M97.6,295.5c-0.7,0,84.3-0.2,84.3-0.5c0-0.4,0.7-0.4,1.5-0.4l53-1.7c0.6,0.9,1.5,1.5,2.3,1.5c1.2,0,2-1.2,2.6-2
		c0.9,0.9,3.8,2,6.4,2c2.3,0,5.2-1.2,7-2.6c1.7,1.5,4.7,2.6,7,2.6c2.6,0,5.5-1.2,6.4-2c0.6,0.9,1.5,2,2.6,2c0.9,0,1.7-0.6,2.3-1.5
		l136.7,1.5c0.7,0-57.4,0.3-57.4,0.7c0,0.3-14.2,0.7-15,0.7l-64.3,1.5c-0.6-0.9-1.2-1.5-2.3-1.5c-0.9,0-2,0.9-2.6,2
		c-0.9-1.2-3.5-2-6.4-2c-2,0-5.2,0.9-7,2.6c-1.7-1.7-4.9-2.6-7-2.6c-2.9,0-5.5,0.9-6.4,2c-0.6-1.2-1.7-2-2.6-2
		c-1.2,0-1.7,0.6-2.3,1.5L97.6,295.5z"/>
	<g>
		<path d="M212.8,176.3c12.3-12.6,25.3-19,38.4-19c6.8,0,12.4,2.1,16.5,6.3c4.1,4.2,6.2,9.8,6.2,16.6c0,4.5-0.6,8.4-1.9,11.8
			c-0.1,0.4-0.2,0.7-0.2,1.1c0,0.5,0.3,0.7,0.7,0.7c0.5,0,1.2-0.6,2.2-4.8c0.7-3.1,1-6.1,1-8.9c0-7.3-2.2-13.3-6.5-17.8
			c-4.3-4.5-10-6.8-17-6.8c-13.8,0-27.6,6.2-40.9,18.6c-9.2-13.3-23-20-41-20c-21.2,0-40.6,6.9-57.4,20.4
			c-16.9,13.5-25.4,29.1-25.4,46.2c0,8,2.5,14.7,7.5,19.8c5,5.1,11.4,7.7,19.1,7.7c11.1,0,22.6-5.9,34.2-17.5
			c11.6-11.6,17.4-23.1,17.4-34.3c0-4.3-1.3-7.9-3.8-10.6c-2.5-2.7-5.9-4.1-10-4.1c-3.2,0-5.9,0.9-8.2,2.7c-2.2,1.8-3.4,4-3.4,6.6
			c0,3.8,1.8,5.7,5.2,5.7c1.9,0,3.6-0.7,5-2.1c1.4-1.4,2.1-3,2.1-4.9c0-2.6-1.4-3.9-4.2-3.9h-1.1l-0.1,0c-0.2,0.1-0.4,0.1-0.7,0.1
			c-0.7,0-0.7-0.2-0.7-0.4c0-1.1,2-1.7,5.8-1.7c3.4,0,6.3,1.2,8.4,3.6c2.1,2.4,3.2,5.5,3.2,9.4c0,10.3-5.7,21.3-16.9,32.5
			c-11.2,11.2-22.1,16.9-32.5,16.9c-6.1,0-11.1-1.8-14.8-5.3c-3.7-3.5-5.6-8.3-5.6-14.1c0-7.4,2.4-15.7,7-24.5
			c4.6-8.9,10.9-17.1,18.7-24.4c15.4-14.6,32.6-21.9,51-21.9c17.8,0,30.8,6.8,38.8,20.2c-9.6,9-18.4,20.1-26.4,32.9
			c-13.2,21.2-23.2,35.1-29.6,41.4c-6.5,6.4-15.6,11.2-27,14.2c-17-3.7-28.5-5.6-34.2-5.6c-4.7,0-8.9,0.6-12.5,1.7
			c-3.7,1.2-5.5,2.5-5.5,4c0,3.1,7.2,4.6,22,4.6c8.5,0,17.5-0.9,26.7-2.6c10.7,1.7,19.2,2.6,25.3,2.6c19.9,0,37.1-6.4,50.9-18.9
			c13.8-12.6,20.8-28.1,20.8-46.1C219.8,194.5,217.4,185.1,212.8,176.3z M151.2,267.5c-7.5,0-14.6-0.7-21.3-2
			c16.1-4.6,28.5-10.7,36.9-18.2c8.3-7.5,16.4-19.9,24.2-36.9c5.8-12.6,12.4-23.3,19.7-31.7c2.8,6,4.2,12.6,4.2,19.4
			c0,12.6-4.3,25.7-12.7,38.8C189.2,257.2,172.1,267.5,151.2,267.5z M97.7,267.5c-18.5,0-21.3-1.7-21.3-2.7c0-0.6,1.2-1.7,9.6-1.7
			c7.1,0,18,1,32.3,2.9C112.2,267,105.2,267.5,97.7,267.5z"/>
		<path d="M311.5,223.8c-2-2.6-4.6-3.9-7.7-3.9c-2.6,0-5.4,1.4-8.3,4.1c-2.2,2.1-5.4,5.9-9.4,11.2l34-54l-0.5,0.1
			c-2,0.3-3.7,0.5-5,0.5c-1.7,0-3.3-0.2-4.7-0.7l-0.2,0l-34.2,55.1c-1.2,1.9-2.3,3.8-3.2,5.5l-2.3,3.2c-9.8,13.8-17,20.8-21.3,20.8
			c-2.1,0-3.2-1.1-3.2-3.4c0-2.9,3.1-9.5,9.4-19.7L268,221l0.3-0.4l-0.5,0.1c-2.5,0.4-4.5,0.6-5.8,0.6c-1.1,0-2.6-0.2-4.2-0.6
			l-0.2,0l-8.2,13.9c-12.2,20.7-21.2,31.2-26.6,31.2c-2,0-2.9-1.1-2.9-3.5c0-2.5,1-5.4,2.9-8.7l19.8-33l-0.5,0.1
			c-2.6,0.4-4.5,0.6-5.5,0.6s-2.5-0.2-4.3-0.6l-0.2,0l-15.2,25.5c-2.5,4.2-3.8,7.9-3.8,11.1c0,2.8,0.9,5.2,2.5,7.1
			c1.7,2,3.8,2.9,6.3,2.9c2.4,0,4.9-1.3,7.5-3.8c2.4-2.2,6.2-6.6,11.2-13.1c-1.3,2.7-2,5-2,6.6c0,2.8,0.9,5.2,2.6,7.2
			c1.7,2,3.9,3,6.3,3c4,0,9.2-3.9,15.9-11.8c1.9-2.2,3.6-4.3,5.1-6.1c-0.8,2.3-1.2,4.2-1.2,5.8c0,3.5,0.9,6.4,2.7,8.6
			c1.8,2.2,4.2,3.3,7.2,3.3c6.1,0,13.2-3,21.1-9.1c10.6-8.1,16-16.4,16-24.7C314.5,229.6,313.5,226.3,311.5,223.8z M308.1,226.9
			c0,6-4.1,14.1-12.1,23.9c-8,9.8-14.6,14.8-19.4,14.8c-2.7,0-4.1-1.4-4.1-4.2c0-3.4,3.7-10.1,10.9-20c9.6-13.2,16.5-19.9,20.4-19.9
			C306.7,221.5,308.1,223.3,308.1,226.9z"/>
		<path d="M388.2,213.2c2,0,3.9-0.9,5.5-2.6c1.7-1.7,2.5-3.6,2.5-5.6c0-2.5-1.3-3.8-3.8-3.8c-1.9,0-3.8,0.9-5.6,2.6
			c-1.8,1.7-2.6,3.6-2.6,5.4c0,1.3,0.3,2.3,1,3C385.9,212.9,386.9,213.2,388.2,213.2z"/>
		<path d="M414.6,224.7c0-1.2,0.2-2.7,0.5-4.4c7-6.7,10.4-11.1,10.4-13.4c0-1-0.6-1.5-1.6-1.5c-2,0-4,1.4-5.9,4.2
			c-1.9,2.8-3.4,6.1-4.4,10c-3.3,4.2-5.9,7.5-7.9,9.9l-6.5,8c-0.4-0.2-0.9-0.3-1.4-0.3c-3.2,0-6.3,2-9.2,5.9
			c-2.7,3.7-4.2,7.5-4.4,11.4c-6.3,7.4-11.1,11.1-14.2,11.1c-2.5,0-3.7-1.1-3.7-3.5c0-2.4,1.4-5.8,4-10.3l19-31.4l-0.5,0.1
			c-2.7,0.4-4.8,0.6-6.3,0.6c-1,0-2.3-0.2-4-0.6l-0.2,0l-10.6,18c-0.3,0.2-0.6,0.5-1.1,1.1c-2,3.3-4.7,6.1-8,8.4
			c-3.2,2.3-6.1,3.5-8.5,3.5c-1.2,0-2.4-0.3-3.4-0.8c6.6-8.9,9.9-16.6,9.9-22.9c0-5.2-2.5-7.9-7.3-7.9c-5.1,0-11.6,2.8-19.5,8.4
			c-11.1,7.9-16.8,16.2-16.8,24.8c0,3.8,1.2,7.2,3.6,9.9c2.4,2.8,5.3,4.2,8.6,4.2c6.4,0,13.3-5.2,20.5-15.3c1.3,0.6,2.8,0.9,4.5,0.9
			c4.1,0,8.7-2.5,13.5-7.5c0,0,0,0,0,0c-2.8,5.2-4.2,9.2-4.2,12c0,2.8,0.9,5.2,2.7,7.1c1.8,1.9,4,2.8,6.7,2.8c3.9,0,9-3.6,15.2-10.6
			c0.3,3,1.4,5.5,3.3,7.3c2.3,2.1,5.3,3.2,9.1,3.2c6.6,0,12.4-1.9,17.3-5.5c4.9-3.7,7.3-8.1,7.3-13.1c0-2.4-0.8-5.4-2.3-8.9
			C416.1,232.9,414.6,227.8,414.6,224.7z M413.2,228c0,3.1,0.1,5.4,0.2,7c0.1,1.6,0.2,3.3,0.2,4.9c0,6.1-2.1,11.8-6.2,17.1
			c-4.1,5.3-8.4,7.9-12.9,7.9c-2.3,0-4.2-0.7-5.8-2.2c-1.5-1.4-2.3-3.2-2.3-5.4c0-2,0.8-3.9,2.3-5.6c1.5-1.8,3.3-2.9,5.4-3.4
			c5.4-1.2,8.1-3.5,8.1-6.8c0-1.3-0.5-2.3-1.5-3.2c5.4-6.6,9.7-11.9,12.8-15.7C413.3,224.1,413.2,225.9,413.2,228z M325.6,265.5
			c-3.5,0-5.2-1.8-5.2-5.5c0-6.5,3.6-14.6,10.8-24.1c7.2-9.5,13.3-14.3,18.2-14.3c3.9,0,5.8,2.1,5.8,6.5c0,2.1-0.4,4.1-1.1,5.8
			c-0.4-0.8-1-1.3-1.8-1.3c-2.1,0-4.3,1.5-6.5,4.4c-2.2,2.9-3.3,5.7-3.3,8.5c0,1.9,0.8,3.7,2.3,5.5
			C337.9,260.6,331.5,265.5,325.6,265.5z"/>
	</g>
	<g>
		<path d="M114.9,339.4l0-0.4c0.2-0.1,0.6-0.2,1.1-0.3c0.5-0.1,0.9-0.2,1.1-0.3c0.2-0.1,0.4-0.2,0.5-0.4c0.1-0.5,0.1-1.3,0.1-2.5
			v-12l0-2c0-0.4-0.1-0.7-0.2-0.9c-0.2-0.2-0.6-0.3-1.3-0.4c-0.7-0.1-1.1-0.2-1.2-0.3c-0.1-0.1-0.2-0.2-0.2-0.3c0-0.1,0-0.1,0-0.2
			c0.1-0.1,0.3-0.1,0.4-0.1c0.2,0,0.5,0,0.9,0h0.4c0.1,0,0.6,0,1.2,0h2.1l4.4-0.1l4.7-0.2h0.4l0.7,0c0.2,0,0.4,0.1,0.5,0.2
			c0.1,0.2,0.1,0.3,0.1,0.4l0,0.6l0.2,2.8c0,0.1,0,0.3,0,0.4c-0.2,0.1-0.3,0.1-0.4,0.1c-0.1,0-0.2,0-0.2-0.1
			c-0.1-0.1-0.1-0.3-0.1-0.7c0-0.4-0.2-1-0.5-1.7c-0.1-0.3-0.4-0.6-0.7-0.7c-0.6-0.2-1.7-0.4-3.1-0.4c-0.7,0-1.3,0-1.9,0.1
			c-0.6,0-1,0.1-1.1,0.1l-1.2,0c-0.5,0-0.9,0.1-1.2,0.2c-0.2,0.1-0.3,0.3-0.3,0.7v0.2c0,0.5,0,1.1,0,1.7l0,4.2c0,0.4,0,0.8,0.1,1.2
			l0.4,0l0.9,0h2.9c1.2,0,2-0.1,2.4-0.2c0.3-0.1,0.5-0.3,0.7-0.5c0.1-0.1,0.2-0.5,0.4-1.2l0.2-1.3c0.1-0.1,0.2-0.1,0.3-0.1
			c0.1,0,0.1,0,0.2,0.1c0,0.2,0.1,0.6,0.1,1.1l0.2,5.7c-0.2,0.1-0.3,0.1-0.4,0.1l-0.2,0c-0.2-1-0.4-1.8-0.8-2.4
			c-0.1-0.2-0.3-0.3-0.4-0.4c-0.3-0.1-1.5-0.1-3.7-0.1c-0.7,0-1.1,0-1.4,0c-0.6,0-1,0-1.1,0h-0.2c-0.3,0-0.5,0-0.7,0.1
			c0,0.1-0.1,0.2-0.1,0.3v1.1c0,0.1,0,0.6,0,1.5l0,5.1c0,0.1,0,0.3,0.1,0.5c0.2,0.2,0.6,0.3,1.2,0.4c0.6,0.1,1.1,0.2,1.6,0.4
			c0.3,0.1,0.4,0.3,0.4,0.5c0,0.1,0,0.1-0.1,0.2c0,0.1-0.1,0.1-0.2,0.1c-0.8-0.2-2-0.2-3.5-0.2c-0.8,0-1.6,0.1-2.5,0.2
			c-0.6,0.1-1.3,0.1-2.1,0.1L114.9,339.4z"/>
		<path d="M143.4,337c0.1,0.1,0.1,0.2,0.1,0.3c0,0.2-0.1,0.4-0.4,0.8c-0.3,0.5-0.7,0.9-1.1,1.1c-0.2,0.2-0.6,0.2-1,0.2
			c-0.7,0-1.3-0.2-1.7-0.7c-0.2-0.3-0.4-0.8-0.5-1.4l-1.7,1.2c-0.6,0.3-1.1,0.6-1.4,0.7c-0.5,0.1-1.1,0.2-1.9,0.2
			c-0.5,0-0.9-0.2-1.2-0.5c-0.3-0.3-0.5-0.7-0.5-1.2c0-0.7,0.4-1.6,1.3-2.5c0.9-1,2.1-1.8,3.5-2.4c1.1-0.4,1.7-0.7,1.9-0.9
			c0-0.3,0-0.7,0-1.1c0-1.3-0.2-2.2-0.5-2.7c-0.4-0.5-0.9-0.7-1.6-0.7c-0.7,0-1.4,0.3-2,0.8c-0.4,0.4-0.7,1-0.9,2
			c-0.1,0.3-0.2,0.6-0.4,0.9c-0.4,0.3-0.8,0.4-1.1,0.4c-0.2,0-0.4-0.1-0.6-0.2c-0.1-0.1-0.2-0.2-0.2-0.2c0-0.3,0.3-0.9,0.9-1.8
			c0.6-0.9,1.3-1.6,2.2-2.1c0.9-0.5,1.6-0.7,2.3-0.7c0.9,0,1.5,0.1,2,0.2c0.4,0.2,0.8,0.4,1.1,0.8c0.3,0.4,0.5,0.8,0.6,1.3
			c0,0.2,0.1,1,0.1,2.4l0,2.5l0,1.8c0,0.2,0,0.4,0,0.6c0,0.3,0,0.5,0,0.7c0,0.3,0.1,0.6,0.3,0.8c0.2,0.2,0.4,0.3,0.7,0.3
			c0.4,0,0.7-0.2,1-0.6l0.2-0.2C143.1,337.1,143.2,337,143.4,337z M138.9,336.5c0.1-1.3,0.1-2.2,0.1-2.8c0-0.3,0-0.7,0-1.1
			c-0.7,0.3-1.4,0.6-2.2,1.1c-0.8,0.5-1.4,1.1-1.8,1.7c-0.3,0.5-0.5,0.9-0.5,1.4c0,0.4,0.1,0.7,0.4,1c0.3,0.3,0.6,0.4,1,0.4
			c0.3,0,0.7-0.1,1.2-0.3C137.7,337.6,138.3,337.1,138.9,336.5z"/>
		<path d="M144.3,319.7L144.3,319.7c0-0.2,0-0.3,0.1-0.5c1.1-0.2,2.3-0.5,3.5-0.9c0.1,0,0.2,0,0.3,0c0.1,0.2,0.1,0.3,0.1,0.3v4.6
			l0,1.5l0,1.6l0,1.3c0,0.1,0,0.2,0,0.5l1.3-0.5c0.1,0,0.6-0.2,1.3-0.4c1-0.2,1.5-0.2,1.7-0.2c1,0,2,0.2,2.8,0.5
			c0.5,0.2,1,0.5,1.5,1c0.5,0.5,0.9,1,1.1,1.5c0.4,1,0.6,1.8,0.6,2.5c0,1.1-0.1,1.9-0.2,2.3c-0.4,1-0.8,1.8-1.3,2.4
			c-0.5,0.6-1.2,1.1-2.1,1.5c-0.9,0.4-1.9,0.6-2.9,0.6c-0.9,0-1.8-0.2-2.7-0.5c-0.8-0.4-1.3-0.5-1.4-0.5c-0.3,0-0.7,0.4-1.2,1.3
			l-0.5,0c0-0.7-0.1-1.5-0.1-2.5l0-2.3l0-1.2l0-3.4l0-0.6l0.1-1.6v-1.4l0-0.6c0-0.1,0-0.6,0-1.3v-0.9c0-1.8,0-2.8-0.2-3.1
			C145.9,320.4,145.2,320,144.3,319.7z M151.6,338.7c1.6,0,2.8-0.4,3.6-1.3c0.8-0.9,1.2-2.2,1.2-3.9c0-1.6-0.5-2.9-1.4-3.9
			c-0.9-1-2.1-1.5-3.4-1.5c-1,0-1.8,0.2-2.5,0.5c-0.4,0.2-0.6,0.4-0.7,0.5c0,0.2-0.1,1.3-0.1,3.3c0,2.4,0.1,3.8,0.2,4.2
			c0.2,0.6,0.5,1.1,1,1.4C150.1,338.5,150.9,338.7,151.6,338.7z"/>
		<path d="M160.5,339.2l-0.1-0.2c0-0.1,0-0.2,0.1-0.3l0.9-0.2l1.3-0.2c0.1-0.1,0.2-0.1,0.2-0.2c0.1-0.1,0.1-0.5,0.1-1.2
			c0-3.5,0-5.5-0.1-6.1c0-0.5-0.1-0.9-0.3-1s-0.5-0.3-1.1-0.3c-0.4-0.1-0.6-0.1-0.8-0.2l0.1-0.5c1.1-0.4,1.8-0.8,2.2-1.1
			c0.5-0.5,1-1.1,1.3-1.8l0.5,0c0.1,0.5,0.1,1.7,0.1,3.4l0,0.3c0,0.1,0,0.2,0,0.3c0.4-0.7,0.9-1.4,1.5-2l0.4-0.4
			c0.1-0.2,0.3-0.3,0.4-0.4c0.7-0.4,1.3-0.7,1.6-0.7c0.5,0,0.8,0.2,1.1,0.5c0.3,0.3,0.4,0.7,0.4,1.1c0,0.4-0.1,0.6-0.3,0.8
			c-0.3,0.3-0.6,0.4-1,0.4c-0.2,0-0.5-0.1-1-0.3c-0.5-0.2-0.8-0.3-1-0.3c-0.3,0-0.5,0.1-0.6,0.1c-0.3,0.2-0.6,0.7-1.1,1.4
			c-0.3,0.5-0.5,1-0.5,1.5l0.1,2.6l0,3.1c0,0.4,0.1,0.6,0.1,0.7c0,0.1,0.1,0.2,0.3,0.3c1.1,0.1,1.8,0.2,2,0.2c0.1,0,0.3,0,0.3,0
			c0.4,0,0.8,0.1,0.9,0.2c0.1,0.1,0.1,0.1,0.1,0.2c0,0.1,0,0.1-0.1,0.2l-1.7,0l-0.7,0l-0.9,0h-1.6l-0.9,0.1L160.5,339.2z"/>
		<path d="M171.3,328.1l0-0.4c0.7-0.2,1-0.3,1.1-0.3c0.4-0.2,0.8-0.4,1.2-0.8c0.4-0.3,0.8-0.7,1-1.1c0.1,0,0.2,0,0.3,0l0.2,0
			c0,0.5,0.1,0.9,0.1,1.1c0,0.1,0,0.3,0,0.7v0.8l0,4.4l0,4.7c0,0.4,0.1,0.6,0.2,0.8c0.1,0.1,0.5,0.3,1.2,0.5
			c0.4,0.1,0.7,0.2,0.9,0.3c0,0.1,0,0.1,0,0.2c0,0.1,0,0.1-0.1,0.2c-0.4,0-0.9,0-1.6-0.1c-0.9-0.1-1.4-0.1-1.7-0.1
			c-0.1,0-1,0-2.5,0.1c-0.3,0-0.6,0-0.9,0.1c-0.1,0-0.1,0-0.3,0c-0.1-0.1-0.1-0.1-0.1-0.2c0-0.2,0.1-0.3,0.3-0.4
			c0,0,0.6-0.1,1.6-0.4c0.3-0.1,0.5-0.2,0.6-0.3c0.2-0.2,0.3-0.6,0.3-1c0-0.8,0-3,0-6.5c0-0.7,0-1.1-0.1-1.3
			c-0.1-0.1-0.2-0.3-0.4-0.4C172.5,328.4,172,328.2,171.3,328.1z M172.6,320.1c0-0.3,0.1-0.6,0.4-0.9c0.3-0.2,0.6-0.4,0.9-0.4
			c0.4,0,0.7,0.1,1,0.4c0.3,0.3,0.4,0.6,0.4,0.9c0,0.3-0.1,0.6-0.4,0.9c-0.3,0.3-0.6,0.4-1,0.4s-0.7-0.1-0.9-0.4
			C172.7,320.8,172.6,320.5,172.6,320.1z"/>
		<path d="M189.9,336.3l0,1c-0.8,0.8-1.6,1.4-2.4,1.8c-0.8,0.3-1.7,0.5-2.8,0.5c-1.2,0-2.2-0.3-3.1-0.9c-0.9-0.6-1.6-1.5-2.1-2.6
			c-0.5-1.1-0.7-2.2-0.7-3.3c0-1.2,0.3-2.3,0.9-3.3c0.6-1,1.4-1.8,2.4-2.3c1-0.5,2.2-0.8,3.7-0.8c1.4,0,2.5,0.2,3.3,0.7
			c0.4,0.3,0.6,0.6,0.6,1.1c0,0.3-0.1,0.6-0.3,0.8c-0.2,0.2-0.5,0.3-0.8,0.3c-0.5,0-1.1-0.3-1.7-0.9c-0.4-0.4-0.7-0.7-1-0.8
			c-0.3-0.1-0.7-0.2-1-0.2c-0.9,0-1.7,0.4-2.3,1.1c-0.8,1.1-1.3,2.4-1.3,4.1c0,1.7,0.4,3,1.3,4c0.9,1,1.9,1.5,3,1.5
			c0.8,0,1.5-0.1,2.1-0.4C188.4,337.5,189.1,337,189.9,336.3z"/>
		<path d="M203.3,337c0.1,0.1,0.1,0.2,0.1,0.3c0,0.2-0.1,0.4-0.4,0.8c-0.3,0.5-0.7,0.9-1.1,1.1c-0.2,0.2-0.6,0.2-1,0.2
			c-0.7,0-1.3-0.2-1.7-0.7c-0.2-0.3-0.4-0.8-0.5-1.4l-1.7,1.2c-0.6,0.3-1.1,0.6-1.4,0.7c-0.5,0.1-1.1,0.2-1.9,0.2
			c-0.5,0-0.9-0.2-1.2-0.5c-0.3-0.3-0.5-0.7-0.5-1.2c0-0.7,0.4-1.6,1.3-2.5c0.9-1,2.1-1.8,3.5-2.4c1.1-0.4,1.7-0.7,1.9-0.9
			c0-0.3,0-0.7,0-1.1c0-1.3-0.2-2.2-0.5-2.7c-0.4-0.5-0.9-0.7-1.6-0.7c-0.7,0-1.4,0.3-2,0.8c-0.4,0.4-0.7,1-0.9,2
			c-0.1,0.3-0.2,0.6-0.4,0.9c-0.4,0.3-0.8,0.4-1.1,0.4c-0.2,0-0.4-0.1-0.6-0.2c-0.1-0.1-0.2-0.2-0.2-0.2c0-0.3,0.3-0.9,0.9-1.8
			c0.6-0.9,1.3-1.6,2.2-2.1c0.9-0.5,1.6-0.7,2.3-0.7c0.9,0,1.5,0.1,2,0.2c0.4,0.2,0.8,0.4,1.1,0.8c0.3,0.4,0.5,0.8,0.6,1.3
			c0,0.2,0.1,1,0.1,2.4l0,2.5l0,1.8c0,0.2,0,0.4,0,0.6c0,0.3,0,0.5,0,0.7c0,0.3,0.1,0.6,0.3,0.8c0.2,0.2,0.4,0.3,0.7,0.3
			c0.4,0,0.7-0.2,1-0.6l0.2-0.2C203,337.1,203.1,337,203.3,337z M198.8,336.5c0.1-1.3,0.1-2.2,0.1-2.8c0-0.3,0-0.7,0-1.1
			c-0.7,0.3-1.4,0.6-2.2,1.1c-0.8,0.5-1.4,1.1-1.8,1.7c-0.3,0.5-0.5,0.9-0.5,1.4c0,0.4,0.1,0.7,0.4,1c0.3,0.3,0.6,0.4,1,0.4
			c0.3,0,0.7-0.1,1.2-0.3C197.5,337.6,198.2,337.1,198.8,336.5z"/>
		<path d="M204.2,338.6c0.3-0.1,0.6-0.1,0.9-0.2c0.6-0.1,1-0.2,1.2-0.3c0.1-0.1,0.2-0.4,0.2-0.9l0-0.6c0-0.2,0-0.5,0-0.8l0-4.7
			c0-0.6-0.1-1-0.2-1.2c-0.3-0.3-0.8-0.5-1.5-0.6v-0.5c0.7-0.2,1.3-0.5,1.7-0.8c0.6-0.5,1.1-1.1,1.5-1.9l0.5,0c0,0.5,0,0.8,0,1v1
			l0,0.3c0.1-0.1,0.3-0.2,0.4-0.3c0.6-0.5,1.3-0.8,1.9-1.1c0.6-0.3,1.2-0.5,1.7-0.6c0.3-0.1,0.7-0.1,1.1-0.1c0.8,0,1.6,0.2,2.2,0.7
			c0.6,0.5,1,1,1.2,1.6c0.2,0.6,0.3,1.8,0.3,3.7v2.3c0,0.1,0,0.3,0,0.6c0,0.4,0,0.8,0,1.2c0,0.7,0,1.2,0.1,1.4
			c0.1,0.1,0.2,0.3,0.4,0.4c1,0.1,1.6,0.3,1.7,0.5v0.1c0,0.1,0,0.2-0.1,0.4h-0.3l-2.1,0l-2,0.1c-0.7,0-1.4,0-2.1,0l-0.1-0.4
			c0-0.1,0-0.2,0.1-0.3c0.3-0.1,0.7-0.2,1.2-0.2c0.3,0,0.5,0,0.6-0.1c0.1,0,0.3-0.1,0.4-0.2c0.1-0.2,0.2-0.5,0.2-0.6
			c0-0.1,0-0.2,0-0.4c0-0.5-0.1-1.6-0.1-3.5v-0.8l0-1.2c0-1.3-0.3-2.2-0.8-2.7c-0.5-0.5-1.2-0.8-2.1-0.8c-0.7,0-1.4,0.2-2,0.5
			c-0.7,0.3-1.3,0.8-1.9,1.4c0,0.5,0,0.9,0,1.3l0,3.4c0,1.8,0,2.9,0.1,3.3c0,0.2,0.1,0.3,0.1,0.3c0.1,0.1,0.2,0.1,0.5,0.2
			c0.2,0.1,0.5,0.1,0.9,0.2c0.3,0.1,0.5,0.1,0.6,0.2c0.2,0.1,0.3,0.2,0.4,0.3l0,0.3h-1.6l-3.3,0c-0.8,0-1.3,0-1.5,0h-0.4l0-0.2
			C204.2,338.8,204.2,338.7,204.2,338.6z"/>
		<path d="M224.1,323.8l0.5,0l0.1,1.5l0,1.9c0.2,0,0.3,0,0.4,0c0.3,0,0.8,0,1.5-0.1c0.5,0,1,0,1.4,0c0.2,0,0.5,0,0.9,0
			c0,0.2,0,0.4,0,0.5c0,0.1,0,0.3-0.1,0.6h-0.3l-2.4,0.1l-1.2,0l-0.3,0c-0.1,0.3-0.1,0.6-0.1,0.9l0,2.3l0,4.1c0,1.1,0.1,1.8,0.4,2.1
			c0.3,0.4,0.7,0.5,1.2,0.5c0.3,0,0.8-0.1,1.5-0.2c0.2-0.1,0.5-0.2,0.9-0.5h0.1c0.1,0,0.2,0,0.2,0.1c0.1,0.1,0.1,0.1,0.1,0.2l0,0.1
			c-0.4,0.5-0.9,0.8-1.5,1.1c-0.6,0.2-1.3,0.3-2.3,0.3c-0.7,0-1.2-0.2-1.7-0.5c-0.4-0.3-0.7-0.7-0.8-1.1c-0.1-0.4-0.2-1.3-0.2-2.8
			l0.1-3.5l0-1.7v-0.6c0-0.3,0-0.6,0-0.9l-0.3,0l-1.3,0l-0.1,0c-0.1,0-0.2,0-0.3-0.1c-0.1,0-0.1-0.1-0.1-0.2c0-0.1,0-0.2,0.1-0.3
			c0.1-0.1,0.3-0.2,0.7-0.4c0.3-0.1,0.6-0.3,0.9-0.6c0.4-0.3,0.6-0.7,0.9-1c0.1-0.2,0.3-0.6,0.5-1.2
			C223.9,324.3,224,324,224.1,323.8z"/>
		<path d="M248.1,327.9l0-0.4l0-1.8l0-3.4c0-0.9-0.1-1.5-0.3-1.8c-0.2-0.3-0.8-0.5-1.8-0.8c-0.1,0-0.2-0.1-0.3-0.1v-0.2
			c0-0.1,0-0.2,0-0.3c1.4-0.1,2.6-0.4,3.6-0.7l0.8,0c0,0.7,0.1,1.5,0.1,2.3l-0.1,5.9l0.1,6.7l0,3.5c0,0.7,0.1,1.1,0.2,1.2
			c0.2,0.2,0.7,0.3,1.4,0.3c0.1,0,0.3,0,0.6,0v0.3c0,0.1,0,0.1,0,0.2c-0.3,0.1-0.6,0.1-1,0.2l-2.2,0.4c-0.3,0.1-0.6,0.1-0.8,0.1
			v-1.4c-0.2,0.1-0.4,0.2-0.8,0.3c-1.6,0.7-3.1,1-4.4,1c-0.8,0-1.6-0.3-2.5-0.8c-0.8-0.5-1.5-1.3-1.9-2.2c-0.4-0.9-0.7-1.9-0.7-2.9
			c0-0.9,0.1-1.7,0.4-2.5c0.3-0.8,0.7-1.5,1.2-2c0.3-0.4,0.7-0.7,1.3-1c0.6-0.3,1-0.6,1.4-0.7c0.9-0.2,1.5-0.4,1.8-0.4
			c1.4,0,2.5,0.2,3.4,0.6C247.7,327.8,247.9,327.8,248.1,327.9z M248,337.4c0-0.7,0.1-2.1,0.1-4.2c0-1.8-0.1-3-0.3-3.4
			c-0.2-0.5-0.6-0.9-1.3-1.4c-0.7-0.4-1.4-0.6-2.3-0.6c-1.2,0-2.2,0.5-3,1.4c-0.8,0.9-1.2,2.3-1.2,4c0,1.6,0.4,2.8,1.3,3.8
			c0.9,0.9,2,1.4,3.3,1.4c0.8,0,1.4-0.1,2.1-0.3C247.4,337.8,247.8,337.6,248,337.4z"/>
		<path d="M264.8,330.9l-6.2,0.1l-1.2,0c-0.5,0-1,0-1.4,0.1c-0.1,0.3-0.1,0.5-0.1,0.6l0,0.2v0.2l0,0.8c0,0.6,0.2,1.4,0.6,2.3
			c0.4,0.9,1,1.6,1.7,2.1c0.7,0.5,1.6,0.7,2.7,0.8c0.6,0,1.1-0.1,1.4-0.2c0.4-0.1,0.8-0.4,1.5-0.8l1.1-0.9l0.1,0.6
			c0,0.1,0,0.1,0,0.2c-0.5,0.6-1,1.1-1.8,1.5s-1.4,0.8-2.2,1c-0.3,0.1-0.9,0.1-1.7,0.1c-0.7,0-1.4-0.1-2.2-0.4
			c-1-0.5-1.9-1.2-2.5-2.2c-0.6-1-0.9-2.2-0.9-3.6c0-0.5,0.1-1,0.3-1.7c0.2-0.7,0.5-1.5,0.9-2.3c0.3-0.5,0.7-1,1.1-1.3
			c0.6-0.5,1.2-0.8,1.6-1c0.7-0.3,1.4-0.4,2.3-0.4c1,0,1.7,0.2,2.3,0.5c0.8,0.5,1.4,1.1,1.8,1.8c0.4,0.7,0.6,1.4,0.6,2L264.8,330.9
			L264.8,330.9z M256.2,330.4h0.7c0.5,0,2.1-0.1,4.7-0.2c0.4,0,0.7-0.1,0.8-0.1c0.2-0.2,0.3-0.4,0.3-0.5c0-0.3-0.1-0.7-0.3-1.1
			c-0.2-0.4-0.5-0.7-0.9-0.9c-0.4-0.2-0.9-0.3-1.5-0.3c-1.2,0-2.1,0.5-2.9,1.4C256.5,329.1,256.2,329.8,256.2,330.4z"/>
		<path d="M266.6,347.1c0-0.1,0-0.2,0-0.3c0-0.1,0-0.2,0-0.3l1.5-0.3c0.2-0.1,0.4-0.3,0.6-0.4c0.1-0.2,0.1-0.4,0.1-0.6
			c0-1.6,0-4.6-0.1-9l0-5.6c0-0.9-0.1-1.5-0.2-1.7c0-0.1-0.1-0.2-0.2-0.3c-0.3-0.2-0.8-0.4-1.5-0.5l0.1-0.5c1.1-0.5,1.8-0.8,2.2-1.1
			c0.4-0.3,0.7-0.6,1.1-1.1l0.2,0c0.1,0,0.2,0,0.4,0.1c0,0.6,0,1.1,0,1.3l0,1.7c0.8-0.6,1.5-1,2.4-1.3c0.8-0.3,1.7-0.4,2.6-0.4
			c1.6,0,2.9,0.6,4,1.7c1.1,1.1,1.6,2.6,1.6,4.3c0,1.3-0.3,2.5-0.9,3.5c-0.6,1-1.5,1.8-2.5,2.3c-1.1,0.5-2.2,0.8-3.3,0.8
			c-0.9,0-2-0.2-3.2-0.7c-0.2-0.1-0.4-0.1-0.5-0.2c0,0.8,0,1.6,0,2.2c0,3.2,0.1,4.9,0.3,5.3c0.1,0.2,0.4,0.3,0.9,0.4
			c0.8,0.1,1.4,0.2,1.6,0.4c0.2,0.1,0.3,0.3,0.3,0.6l-1.5,0l-1.4,0h-2.3L266.6,347.1z M270.6,329.5c0,0.1,0,0.3,0,0.4
			c0,3.7,0,5.8,0.1,6.2c0.1,0.8,0.4,1.4,0.9,1.7c0.7,0.5,1.6,0.8,2.9,0.8c1.3,0,2.4-0.4,3.3-1.3c0.9-0.9,1.3-2.1,1.3-3.5
			c0-1.7-0.5-3.1-1.4-4.1c-0.9-1-2.2-1.5-3.7-1.5c-0.6,0-1.2,0.1-1.8,0.3C271.5,328.7,271,329,270.6,329.5z"/>
		<path d="M282.8,327h1.2l0.5,0l0.4,0c1.1,0,1.7,0,2,0l0,0.3c0,1.4,0,2.8-0.1,4.2c0,0.8,0,1.3,0,1.4c0,1.8,0.1,2.9,0.2,3.4
			c0.1,0.5,0.4,0.8,0.8,1.1c0.4,0.3,1,0.4,1.6,0.4c0.8,0,1.5-0.2,2.2-0.5c0.7-0.3,1.3-0.7,1.8-1.1c0.1-0.4,0.1-0.8,0.1-1.3
			c0-1.5,0-2.6,0-3.1c0-0.3,0-0.6,0-0.8c0-1.7-0.1-2.6-0.2-2.8c-0.2-0.2-0.8-0.4-1.9-0.5c-0.4,0-0.6-0.1-0.8-0.1
			c-0.1-0.1-0.1-0.2-0.1-0.3l0-0.2c0.3,0,0.5,0,0.8,0l2.4,0c0.9,0,1.3,0,1.4,0c0.1,0,0.2,0,0.3,0l0,1.1c-0.1,1.6-0.1,3.5-0.1,5.8
			l0,1.2l0.1,2.1c0.1,0.2,0.2,0.3,0.2,0.3c0.1,0.1,0.4,0.1,0.8,0.1h0.1c0.1,0,0.5,0,1.1,0.1c0,0.1,0,0.2,0,0.3v0.2
			c-1.4,0.3-2.5,0.6-3.3,0.9c-0.3,0.1-0.6,0.2-0.9,0.2c-0.1-0.4-0.1-0.6-0.1-0.7v-1.3c0-0.1,0-0.2,0-0.4c-0.1,0.1-0.3,0.2-0.5,0.3
			c-0.8,0.6-1.7,1.2-2.6,1.6c-0.6,0.3-1.2,0.4-1.8,0.4c-1.1,0-2-0.4-2.6-1.2c-0.7-0.8-1-2.2-1-4.1c0-0.1,0-0.3,0-0.6
			c0-0.5,0.1-0.8,0.1-1c0-0.1,0-0.3,0-0.7c0-0.2,0-0.3,0-0.4c0-0.1,0-0.3,0-0.6c0-0.3,0-0.5,0-0.7c0-0.2,0-0.3,0-0.5l0-0.8l0-0.4
			c0-0.2-0.1-0.3-0.2-0.4c-0.6-0.2-1.1-0.3-1.3-0.3c-0.2,0-0.4-0.1-0.5-0.1L282.8,327L282.8,327L282.8,327z"/>
		<path d="M298.7,328.1l0-0.4c0.7-0.2,1-0.3,1.1-0.3c0.4-0.2,0.8-0.4,1.2-0.8c0.4-0.3,0.8-0.7,1-1.1c0.1,0,0.2,0,0.3,0l0.2,0
			c0,0.5,0.1,0.9,0.1,1.1c0,0.1,0,0.3,0,0.7v0.8l0,4.4l0,4.7c0,0.4,0.1,0.6,0.2,0.8c0.1,0.1,0.5,0.3,1.2,0.5
			c0.4,0.1,0.7,0.2,0.9,0.3c0,0.1,0,0.1,0,0.2c0,0.1,0,0.1-0.1,0.2c-0.4,0-0.9,0-1.6-0.1c-0.9-0.1-1.4-0.1-1.7-0.1
			c-0.1,0-1,0-2.5,0.1c-0.3,0-0.6,0-0.9,0.1c-0.1,0-0.1,0-0.2,0c-0.1-0.1-0.1-0.1-0.1-0.2c0-0.2,0.1-0.3,0.3-0.4
			c0,0,0.6-0.1,1.6-0.4c0.3-0.1,0.5-0.2,0.6-0.3c0.2-0.2,0.3-0.6,0.3-1c0-0.8,0-3,0-6.5c0-0.7,0-1.1-0.1-1.3
			c-0.1-0.1-0.2-0.3-0.4-0.4C299.9,328.4,299.4,328.2,298.7,328.1z M300,320.1c0-0.3,0.1-0.6,0.4-0.9c0.3-0.2,0.6-0.4,0.9-0.4
			c0.4,0,0.7,0.1,1,0.4c0.3,0.3,0.4,0.6,0.4,0.9c0,0.3-0.1,0.6-0.4,0.9c-0.3,0.3-0.6,0.4-1,0.4c-0.4,0-0.7-0.1-0.9-0.4
			C300.1,320.8,300,320.5,300,320.1z"/>
		<path d="M307.2,335.2c0.4,1,0.7,1.6,0.9,1.9c0.4,0.6,0.9,1,1.4,1.4c0.5,0.3,1.1,0.5,1.8,0.5c0.6,0,1.2-0.2,1.7-0.8
			c0.4-0.4,0.6-0.8,0.6-1.3c0-0.7-0.2-1.3-0.7-1.9c-0.5-0.6-1.4-1.1-2.7-1.6c-1.3-0.5-2.2-1.1-2.7-1.6c-0.5-0.6-0.7-1.2-0.7-2
			c0-0.7,0.2-1.3,0.6-1.9c0.4-0.5,0.9-0.9,1.6-1.2c0.7-0.3,1.3-0.4,1.8-0.4c0.7,0,1.4,0.1,2,0.2c0.6,0.1,1.1,0.3,1.5,0.5
			c0.1,0.5,0.1,1.3,0.2,2.3l0,0.5c-0.1,0-0.3,0-0.3,0h-0.2c-0.3-0.9-0.8-1.5-1.4-2c-0.6-0.5-1.2-0.8-1.9-0.8s-1.1,0.2-1.5,0.6
			c-0.4,0.4-0.6,0.9-0.6,1.5c0,0.5,0.2,0.9,0.5,1.2s1,0.8,2.2,1.2c1.1,0.5,2,0.9,2.5,1.3c0.5,0.4,0.9,0.9,1.1,1.5
			c0.2,0.6,0.4,1.1,0.4,1.6c0,0.7-0.2,1.4-0.7,2c-0.5,0.6-1.1,1.1-1.8,1.3c-0.7,0.3-1.3,0.4-1.9,0.4c-1.3,0-2.5-0.2-3.6-0.7
			c-0.1-0.1-0.2-0.2-0.2-0.5c0-0.1,0-0.2,0-0.4c-0.2-1.4-0.2-2.2-0.2-2.5c0-0.1,0-0.2,0.1-0.2C306.8,335.2,307,335.2,307.2,335.2z"
			/>
		<path d="M335.6,339.1h-7c0-0.1,0-0.2,0-0.2c0-0.2,0-0.3,0.1-0.4c0.1-0.1,0.3-0.1,0.7-0.2c0.6-0.1,1.1-0.3,1.4-0.4
			c0.1-0.2,0.2-0.4,0.2-0.6v-1c0-0.1,0-0.6,0-1.6c0-0.4,0-1.9,0-4.5l0-3.6l0-2.1c0-0.3,0-1.3,0-2.9c-2.3,1.7-3.6,2.5-3.9,2.5
			c-0.1,0-0.2,0-0.3-0.1c-0.1-0.1-0.1-0.2-0.1-0.3c0-0.1,0-0.2,0.1-0.2c0.1-0.1,0.5-0.4,1-0.7c0.1,0,0.4-0.3,1.1-0.8
			c1-0.8,1.7-1.5,2.2-2c0.5-0.5,0.7-0.7,0.9-0.8c0.2,0,0.4,0,0.5,0c0.3,0,0.4,0,0.5,0.1c0.1,0.1,0.1,0.4,0.1,1l-0.1,13.8v1.4
			c0,0.3,0,0.7,0,1c0,0.3,0,0.6,0,0.7c0,0.4,0,0.6,0.1,0.7c0.1,0.1,0.3,0.2,0.6,0.3l1,0.2c0.5,0.1,0.7,0.2,0.7,0.2
			c0.1,0.1,0.2,0.2,0.2,0.4L335.6,339.1z"/>
		<path d="M345.2,329.2c-1-0.5-1.7-1-2-1.3c-0.5-0.4-0.9-1-1.3-1.7c-0.3-0.7-0.5-1.4-0.5-2.1c0-1.3,0.5-2.4,1.5-3.5
			c1-1,2.3-1.6,3.7-1.6c1.7,0,3,0.4,3.9,1.3c1,0.9,1.5,1.9,1.5,3.2c0,0.7-0.1,1.3-0.4,1.9c-0.3,0.6-0.7,1.1-1.3,1.6
			c-0.4,0.3-1,0.7-2,1.2c1.4,0.7,2.3,1.2,2.5,1.4c0.6,0.4,1,1,1.4,1.7c0.4,0.7,0.6,1.5,0.6,2.4c0,1.6-0.6,3-1.7,4.1
			c-1.1,1.1-2.5,1.7-4.3,1.7c-1.8,0-3.2-0.5-4.3-1.5c-1.1-1-1.6-2.2-1.6-3.6c0-0.8,0.1-1.6,0.4-2.2c0.3-0.7,0.7-1.2,1.3-1.7
			C343.2,330.2,344,329.7,345.2,329.2z M345.9,329.6c-0.7,0.4-1.3,0.7-1.6,1c-0.5,0.4-0.8,0.9-1.1,1.5c-0.3,0.6-0.4,1.4-0.4,2.5
			c0,1.1,0.2,2,0.7,2.6c0.8,1,1.9,1.6,3.2,1.6c1.2,0,2.2-0.4,2.9-1.1c0.8-0.8,1.1-1.7,1.1-2.9c0-1.3-0.4-2.3-1.2-3.1
			C348.9,330.9,347.7,330.2,345.9,329.6z M347.6,327.9c0.9-0.5,1.5-1,1.8-1.5c0.6-0.8,0.8-1.8,0.8-2.8c0-0.8-0.2-1.5-0.5-2.1
			c-0.3-0.6-0.8-1-1.3-1.3c-0.6-0.3-1.1-0.4-1.8-0.4c-1,0-1.9,0.4-2.5,1.1c-0.7,0.7-1,1.6-1,2.6c0,0.6,0.1,1.1,0.3,1.5
			c0.2,0.4,0.4,0.8,0.8,1.1c0.2,0.2,0.8,0.6,1.7,1.2c0.1,0.1,0.5,0.2,1,0.4C347.1,327.7,347.3,327.7,347.6,327.9z"/>
		<path d="M365.7,321.3c-1.1,0.1-2.1,0.1-2.8,0.1c-0.5,0-1.1,0-1.7,0c-0.3,0-0.5,0-0.6,0c-1.2,0-1.9,0-2,0.1c0,0-0.1,0.1-0.1,0.1
			c0,0.2-0.2,2-0.4,5.5c0.5-0.2,0.9-0.4,1.3-0.5c0.4-0.1,1-0.1,1.7-0.1c0.5,0,0.9,0,1,0.1c1,0.3,1.7,0.6,2.1,0.9
			c0.6,0.4,1.1,0.8,1.5,1.3c0.4,0.5,0.7,1.2,1,2.1c0.2,0.7,0.3,1.3,0.3,2.1c0,0.8-0.1,1.5-0.3,2.2c-0.2,0.7-0.5,1.2-0.8,1.7
			c-0.3,0.4-0.8,0.9-1.5,1.4c-0.6,0.5-1.4,0.9-2.3,1.1c-0.9,0.3-1.5,0.4-1.8,0.4l-2.2-0.2c-0.6-0.1-1.2-0.3-1.6-0.5
			c-0.5-0.2-0.8-0.5-0.9-0.7c-0.1-0.1-0.1-0.3-0.1-0.5c0-0.2,0.1-0.3,0.3-0.5c0.2-0.2,0.5-0.3,0.9-0.3c0.2,0,0.3,0.1,0.5,0.1
			l1.2,0.8c0.3,0.2,0.6,0.5,1,0.7c0.1,0,0.2,0.1,0.5,0.1c0.6,0.1,0.9,0.1,1,0.1c0.2,0,0.6-0.1,1.2-0.3c0.5-0.2,1-0.5,1.5-0.9
			c0.5-0.4,0.9-1,1.2-1.7c0.3-0.7,0.5-1.4,0.5-2.3c0-1.5-0.5-2.7-1.4-3.7c-0.9-1-2.1-1.5-3.4-1.5c-0.6,0-1.1,0.1-1.6,0.3
			c-0.5,0.2-0.8,0.4-1,0.6l-0.2,0.1c-0.1,0.1-0.2,0.1-0.3,0.1l-0.2,0c0-0.2,0-0.3,0-0.4c0-0.1,0-0.2,0-0.5c0.1-0.5,0.1-1,0.1-1.6
			c0-0.5,0.1-1,0.2-1.5l0-0.7c0.1-0.4,0.1-0.7,0.1-1.1c0-2.4,0.1-3.7,0.3-4.1c0.1-0.2,0.2-0.2,0.4-0.2c0.1,0,0.2,0,0.4,0l0.1,0l2,0
			c0.9,0.1,1.5,0.1,2,0.1c1,0,1.7-0.1,2.3-0.2c0.3-0.3,0.5-0.4,0.7-0.4c0.1,0,0.2,0,0.3,0l0,0.2l-0.1,0.7l-0.1,1
			C365.8,320.9,365.8,321,365.7,321.3z"/>
		<path d="M382.3,339.1c-1.5-0.1-3.6-0.1-6.2-0.1l-3.4,0.1l-1.5,0l-1.2,0c-0.1,0-0.3,0-0.5-0.1c0.2-0.4,0.4-0.8,0.7-1.2
			c0.9-1,2.1-2.4,3.8-4.1c2.3-2.3,3.8-4.1,4.6-5.5c0.7-1.3,1.1-2.6,1.1-3.7c0-1.1-0.4-2-1.1-2.7c-0.7-0.7-1.7-1.1-2.7-1.1
			c-0.6,0-1.3,0.2-1.9,0.5c-0.6,0.3-1.1,0.7-1.5,1.1c-0.2,0.3-0.6,0.9-0.9,1.8c-0.2,0.5-0.3,0.8-0.4,0.8c-0.1,0.1-0.1,0.1-0.2,0.1
			c-0.1,0-0.2,0-0.2-0.1c-0.1-0.1-0.1-0.2-0.1-0.3c0-0.5,0.2-1.2,0.7-2.2c0.5-1,1.2-1.8,2.1-2.4c0.9-0.6,2-0.9,3.2-0.9
			c1.6,0,2.9,0.5,3.9,1.5c1.1,1,1.6,2.2,1.6,3.7c0,1.1-0.4,2.3-1.1,3.4c-0.7,1.2-2.4,2.9-5,5.3c-0.9,0.8-1.5,1.4-1.8,1.7
			c-0.4,0.4-1.1,1.2-2.2,2.4c1.6,0.1,3,0.1,4.3,0.1c0.3,0,0.6,0,0.9,0c0.6,0,1,0,1.1,0l2.1,0c0.2,0,0.5-0.1,0.7-0.3
			c0.2-0.2,0.6-0.9,1-1.9l0.4,0c0.1,0,0.1,0,0.2,0c0.1,0.1,0.1,0.2,0.1,0.2l0,0.1c-0.1,0.3-0.2,0.9-0.2,1.6
			C382.5,337.4,382.4,338.1,382.3,339.1z"/>
	</g>
</g>
</svg>
