<?xml version="1.0" encoding="utf-8"?>
<!-- Generator: Adobe Illustrator 21.1.0, SVG Export Plug-In . SVG Version: 6.00 Build 0)  -->
<svg version="1.1" id="Calque_1" xmlns="http://www.w3.org/2000/svg" xmlns:xlink="http://www.w3.org/1999/xlink" x="0px" y="0px"
	 viewBox="0 0 500 122" style="enable-background:new 0 0 500 122;" xml:space="preserve">
<style type="text/css">
	.st0{fill-rule:evenodd;clip-rule:evenodd;fill:#004B91;}
	.st1{fill:#004B91;}
</style>
<g>
	<path class="st0" d="M54.4,45c0.7,0.8,0.8,1.9,0.4,2.7c-0.3,0.8-1.2,1.4-2.1,1.6c-1.2,0.2-2.3-0.1-3.2-1c-0.7-0.7-1-2-0.4-2.9
		c0.6-0.9,1.4-1.5,2.3-1.6C52.6,43.9,53.7,44.2,54.4,45L54.4,45z"/>
	<path class="st0" d="M386.2,76.5l1.1,2.1l2.9-5.9l17-37.5c3.1,0.2,5.9,0.1,8.8,0.1l-8.5,19.4l-19.9,44.1l-0.1,0.1l-8-17.4
		l-30.9-69.1c2.9,0,5.8-0.1,8.7-0.1L386.2,76.5L386.2,76.5z"/>
	<path class="st0" d="M484.6,34.9c-0.1-0.6-1,0.2-1.4-0.1l-46.3-0.2l-0.4-0.1l0,7.9h19.9l0,51.8l0.5,0h8.1l-0.1-51.7l0-0.6h19.8
		V34.9L484.6,34.9z"/>
	<path class="st0" d="M430.7,44.8l0.1-9.9c-2.7,0-5.7-0.1-8.4,0l0,49.1l0,10.5c2.8-0.2,5.9,0.2,8.5,0L430.7,44.8L430.7,44.8z"/>
	<path class="st0" d="M262.2,43.9l-0.3-8.1h-8.1v34.5c0,5.9-1.2,11.7-6.9,15.1c-4.1,2.5-10.2,2.9-14.6,0.9
		c-5.8-2.4-8.1-7.8-8.1-13.2l-0.5-36.4l-0.1-0.8c-2.7,0-5.2,0-7.9,0.1l0,35l0.7,8c1.1,5.9,5.8,11,11.5,14c6.5,3.5,16.5,3.3,22.8-0.4
		c7.7-4.1,11.4-11.5,11.7-19.3L262.2,43.9L262.2,43.9z"/>
	<path class="st0" d="M203.4,49.7c-1.9-2.7-4.4-5.6-7.3-7.6c-9.3-7.1-22.1-5.7-34.5-5.6v59l0.1,0.2l11.7-0.2
		c12.8,0.6,24.9-4.5,30.8-15C209.6,71.5,209.6,58.3,203.4,49.7L203.4,49.7L203.4,49.7z M197.9,74.2c-3,7.5-11.5,13.7-20.7,14H170
		l-0.3-44.5c8.2-0.6,16.6,0,22.2,5.6C199,55.6,201.9,65.7,197.9,74.2L197.9,74.2z"/>
	<path class="st0" d="M347.5,41l-4.3-9.4l-29,62.9H314c-5.8-7.9-11.8-15.6-17.3-23.4c2.7-0.6,5.5-1.4,7.7-3c7.1-5,8.6-13.6,6.3-21.2
		c-1.5-4.8-6.2-9.4-11.5-10.6c-8.2-1.1-17.4-0.4-26-0.4l0.3,57.6l0,1.5l8.5,0l0-23.5l4.9,0.2l17.6,23.3h18.5l7.1-15.1l11.5-0.1
		c0.4-0.1,0.4,0.5,0.7,0l13.2,0.1c2.3,5,4.4,10.1,6.9,15l8.4-0.1v-0.1L347.5,41L347.5,41L347.5,41z M282.1,63.7
		c0.2-6.8-0.2-13.7-0.2-20.4c7.3,0.7,17.9-2.5,20.3,5.5c1.6,4.1,1,9.4-2.2,12.6C295.7,65.8,288,63.2,282.1,63.7L282.1,63.7
		L282.1,63.7z M333.7,72.1c2.7-6.9,6.3-13.5,9.3-20.4l8.9,20.3C345.8,72.1,340.2,72.1,333.7,72.1L333.7,72.1z"/>
	<path class="st1" d="M140.9,54.8c-4.3-9.4-14.7-16.8-25.5-18c-12.6-1.7-24.2,3.1-31.4,11.8c2.3,1.5,4.7,3.1,7.1,4.1
		c6.5-7.3,17-10.5,26.9-7.5c8.7,2.4,15.1,9.3,16.9,17.1c1.8,9.2-2.6,18-11,23.1c-6.6,4.1-16.9,4.6-24,1.2c-1.6-0.6-3.2-1.7-4.7-2.4
		l-4.1,12c-0.1,0.4-0.4,0-0.5-0.1L35,42.4l-1.1-1.5L53,42.7l51.6,30.9h0.4l-10.4-14L56,36.4l-40.5-3.9l-0.1,0.2l30.9,30l15.9,46.4
		l0.4,0.5l15.7-15.2h0.4c5.2,4.8,10.3,10.1,15.7,14.9c1.8-4.9,3.2-9.9,5.1-14.5c1.9,0.6,4,1,6.2,1.4c12.6,1.5,24-2.7,31.7-12
		C143.8,76.3,145.6,64,140.9,54.8z M65.6,96.8c-2.9-7.4-5.4-15-7.8-22.6l15.5,15C71.1,91.8,68.3,94.3,65.6,96.8z"/>
</g>
</svg>
