<?xml version="1.0" encoding="utf-8"?>
<!-- Generator: Adobe Illustrator 16.0.0, SVG Export Plug-In . SVG Version: 6.00 Build 0)  -->
<!DOCTYPE svg PUBLIC "-//W3C//DTD SVG 1.1//EN" "http://www.w3.org/Graphics/SVG/1.1/DTD/svg11.dtd">
<svg version="1.1" id="Calque_1" xmlns="http://www.w3.org/2000/svg" xmlns:xlink="http://www.w3.org/1999/xlink" x="0px" y="0px"
	 width="500px" height="500px" viewBox="0 0 500 500" enable-background="new 0 0 500 500" xml:space="preserve">
<g>
	<polygon fill="#34B4E4" points="333.642,259.352 239.721,171.712 327.31,77.753 421.275,165.409 	"/>
	<g>
		<polygon fill="#E32119" points="223.976,262.169 132.028,170.228 223.976,78.298 249.708,104.07 275.418,76.493 237.286,38.328 
			223.976,25 210.643,38.328 92.064,156.912 78.736,170.228 92.064,183.555 210.643,302.139 223.953,315.479 237.286,302.163 
			278.442,260.955 250.917,235.228 		"/>
	</g>
</g>
<g>
	<path d="M128.323,353.221v102.975C121.715,466.858,106.476,475,91.743,475C66,475,47.032,454.171,47.032,430.463
		c0-23.73,19.979-44.569,44.711-44.569c5.927,0,14.564,1.36,19.643,4.757v-37.43H128.323z M64.308,430.463
		c0,14.036,11.685,27.42,27.436,27.42c7.957,0,15.408-3.892,19.643-8.301V411.3c-4.572-4.072-10.162-8.301-19.479-8.301
		C76.33,403,64.308,416.225,64.308,430.463z"/>
	<path d="M191.49,457.883c9.835,0,15.262-4.229,19.833-8.301v-61.991c-0.168,0,17.118,0,17.118,0v61.991l12.022,12.203
		l-11.174,11.505l-8.822-8.638c0,0-11.686,10.348-28.977,10.348c-28.792,0-44.542-24.383-44.542-44.537v-42.872h17.123v41.32
		C164.07,442.138,173.388,457.883,191.49,457.883z"/>
	<path d="M327.646,387.591l-43.029,85.699l-42.811-85.699h18.945l23.865,49.644l24.045-49.644H327.646z"/>
	<path d="M327.793,430.463c0-23.73,20.177-44.569,44.739-44.569c14.732,0,29.804,8.131,36.405,18.804v45.043l12.203,12.045
		l-11.191,11.505l-8.626-8.638c0,0-11.696,10.348-28.791,10.348C347.295,475,327.793,454.171,327.793,430.463z M392.012,411.3
		c-5.084-4.747-11.18-8.301-19.479-8.301c-15.746,0-27.442,12.878-27.442,27.464c0,14.374,12.529,27.42,27.442,27.42
		c8.3,0,15.407-3.712,19.479-8.301V411.3z"/>
	<path d="M452.968,353.221v120.069h-17.095V370.317h-8.648v-17.096H452.968z"/>
</g>
</svg>
