<?xml version="1.0" encoding="utf-8"?>
<!-- Generator: Adobe Illustrator 21.0.2, SVG Export Plug-In . SVG Version: 6.00 Build 0)  -->
<svg version="1.1" id="Calque_1" xmlns="http://www.w3.org/2000/svg" xmlns:xlink="http://www.w3.org/1999/xlink" x="0px" y="0px"
	 viewBox="0 0 500 500" style="enable-background:new 0 0 500 500;" xml:space="preserve">
<style type="text/css">
	.st0{fill:#34B4E4;}
	.st1{fill:#E32119;}
</style>
<polygon class="st0" points="333.6,259.4 239.7,171.7 327.3,77.8 421.3,165.4 "/>
<polygon class="st1" points="224,262.2 132,170.2 224,78.3 249.7,104.1 275.4,76.5 237.3,38.3 224,25 210.6,38.3 92.1,156.9 
	78.7,170.2 92.1,183.6 210.6,302.1 224,315.5 237.3,302.2 278.4,261 250.9,235.2 "/>
<path d="M128.3,353.2v103c-6.6,10.7-21.8,18.8-36.6,18.8C66,475,47,454.2,47,430.5s20-44.6,44.7-44.6c5.9,0,14.6,1.4,19.6,4.8v-37.4
	L128.3,353.2L128.3,353.2z M64.3,430.5c0,14,11.7,27.4,27.4,27.4c8,0,15.4-3.9,19.6-8.3v-38.3c-4.6-4.1-10.2-8.3-19.5-8.3
	C76.3,403,64.3,416.2,64.3,430.5z"/>
<path d="M191.5,457.9c9.8,0,15.3-4.2,19.8-8.3v-62c-0.2,0,17.1,0,17.1,0v62l12,12.2l-11.2,11.5l-8.8-8.6c0,0-11.7,10.3-29,10.3
	c-28.8,0-44.5-24.4-44.5-44.5v-42.9H164v41.3C164.1,442.1,173.4,457.9,191.5,457.9z"/>
<path d="M327.6,387.6l-43,85.7l-42.8-85.7h18.9l23.9,49.6l24-49.6L327.6,387.6L327.6,387.6z"/>
<path d="M327.8,430.5c0-23.7,20.2-44.6,44.7-44.6c14.7,0,29.8,8.1,36.4,18.8v45l12.2,12l-11.2,11.5l-8.6-8.6
	c0,0-11.7,10.3-28.8,10.3C347.3,475,327.8,454.2,327.8,430.5z M392,411.3c-5.1-4.7-11.2-8.3-19.5-8.3c-15.7,0-27.4,12.9-27.4,27.5
	c0,14.4,12.5,27.4,27.4,27.4c8.3,0,15.4-3.7,19.5-8.3V411.3z"/>
<path d="M453,353.2v120.1h-17.1v-103h-8.6v-17.1H453L453,353.2z"/>
</svg>
