<?xml version="1.0" encoding="utf-8"?>
<!-- Generator: Adobe Illustrator 21.0.2, SVG Export Plug-In . SVG Version: 6.00 Build 0)  -->
<svg version="1.1" id="Calque_1" xmlns="http://www.w3.org/2000/svg" xmlns:xlink="http://www.w3.org/1999/xlink" x="0px" y="0px"
	 viewBox="0 0 500 120" style="enable-background:new 0 0 500 120;" xml:space="preserve">
<style type="text/css">
	.st0{fill:#00688C;}
	.st1{fill:#88C9EB;}
	.st2{fill:#4A99CF;}
</style>
<g id="Nouveau_symbole">
</g>
<polygon class="st0" points="324,96.2 316.7,96.2 320.6,92.4 "/>
<path class="st0" d="M325,30.9l43.6-4.7l-21.3,70h-26.2c0,0,15.6-49.2,16-50.4l-36.2,50.4h-29.3l1.3-2.5c-0.6-9.3-1.7-49.3-2.3-47.3
	c-0.7,2.3-1.3,4-1.7,5.3l-15.3,44.5l-27.9-0.6l2.7-1.9l22.8-62.8l38.4-2.5l1.2-1.3l3.7,46.7L325,30.9z"/>
<polygon class="st0" points="363,44.3 368.6,26.2 365.7,28.4 359,41.2 "/>
<path class="st0" d="M448.8,93.4c-10.7,4.2-24.3,5.5-40.8,3.9c-16.5-1.5-28.2-5.2-35-11c-9.4-7.2-11.8-16.5-7.4-28
	c4.5-11.7,13.8-20,27.8-24.8c10.7-4.2,24.3-5.5,40.8-3.9c16.5,1.5,28.2,5.2,35,11c9.4,7,11.8,16.3,7.3,28
	C472.1,80.2,462.8,88.4,448.8,93.4z M433.7,81c5.7-3.1,9.9-7.9,12.4-14.4c2.6-6.5,2.4-11.8-0.6-15.9s-8.3-6.6-16-7.4
	s-14.7,0.3-20.7,3.5c-6.1,3.2-10.4,8.2-12.9,15c-2.5,6.7-2,12.1,1.3,16.1c3.3,4,8.8,6.2,16.5,6.9C421.3,85.4,427.9,84.1,433.7,81z"
	/>
<path class="st0" d="M99.5,30.7c-17.2,0-48.5-0.2-48.5-0.2L24.2,96.6c0,0,35.1-0.3,46.3-0.3s66.5,4.6,77.2-29
	C157.8,35,116.7,30.7,99.5,30.7z M119.8,65.4C114.4,87,86.4,84,80.7,84c-5.7,0-21,0-21,0l14-40.7c0,0,15,0.1,23.2,0.1
	C105.1,43.3,124.7,45.9,119.8,65.4z"/>
<path class="st0" d="M144.5,30.8l30.1,0.1c0,0,11.2,12.4,16.4,23.4s6.2,22.6-1.9,41.9c-11.2,0-31-0.9-31-0.9S189.7,62.3,144.5,30.8z
	"/>
<path class="st0" d="M138.6,26.7l36,4.1c0,0,11.2,12.4,16.4,23.4s6.2,22.6-1.9,41.9c-11.2,0-31-0.9-31-0.9S180.8,52.7,138.6,26.7z"
	/>
<path class="st0" d="M213.6,30.7c0,0-14.2,10.4-20.3,18.2c0.6,1.2,1.3,2.3,1.8,3.5c3.4,7.3,3,14.5,2.5,22.3
	c3.2-4.4,22-28.5,49.8-47.9l-1.7-0.2C225.4,26.6,213.6,30.7,213.6,30.7z"/>
<path class="st1" d="M321.7,26.8l46.9-0.5l-2.9,2.2l-21.8,63.6l-21.6-0.7l-5.7,4.8c0,0,15.1-47.6,15.5-48.8l-34.6,44.7l-24.6,1.7
	l-1.3,2.5c0,0-3.6-56.2-4.3-54c-0.7,2.3-1.3,4-1.7,5.3l-15.4,44.5l-21.9,1.7l-2.7,1.9l22.2-68.8l42.9,0.4l-1.2,1.3l1.7,41.2
	L321.7,26.8z"/>
<path class="st1" d="M445.4,89.3c-10.7,4.2-24.3,5.5-40.8,3.9c-16.5-1.5-28.2-5.2-35-11c-9.4-7.2-11.8-16.5-7.4-28
	c4.5-11.7,13.8-20,27.8-24.8c10.7-4.2,24.3-5.5,40.8-3.9c16.5,1.5,28.2,5.2,35,11c9.4,7,11.8,16.3,7.3,28
	C468.7,76,459.5,84.3,445.4,89.3z M430.3,76.8c5.7-3.1,9.9-7.9,12.4-14.4c2.6-6.5,2.4-11.8-0.6-15.9s-8.3-6.6-16-7.4
	s-14.7,0.3-20.7,3.5c-6.1,3.2-10.4,8.2-12.9,15c-2.5,6.7-2,12.1,1.3,16.1c3.3,4,8.8,6.2,16.5,6.9C417.9,81.2,424.6,79.9,430.3,76.8z
	"/>
<path class="st1" d="M96.2,26.5c-17.2,0-48.5-0.2-48.5-0.2L24.2,96.5l3.2-2.8c9.1,0,31.5-1.7,39.8-1.7c11.2,0,66.5,4.6,77.2-29
	C154.5,30.9,113.4,26.5,96.2,26.5z M116.5,61.2c-5.4,21.6-33.4,18.6-39.1,18.6s-21,0-21,0l14-40.7c0,0,15,0.1,23.2,0.1
	C101.7,39.2,121.4,41.7,116.5,61.2z"/>
<path class="st1" d="M141,26.7h30.3c0,0,11.2,12.4,16.4,23.4s6.2,22.6-1.9,41.9c-7.6,0-19.4,0.7-25.1,1.7l-2.6,1.5
	C158.1,95.3,179,52.7,141,26.7z"/>
<path class="st1" d="M138.6,26.7h32.7c0,0,11.2,12.4,16.4,23.4s6.2,22.6-1.9,41.9c-11.2,0-25.1,1.7-25.1,1.7S183.9,43.6,138.6,26.7z
	"/>
<path class="st1" d="M210.3,26.5c0,0-14.2,10.4-20.3,18.2c0,0,0.9,0.6,1.7,1.7c6.5,9.7,6.7,17.9,6.2,25.7c3.1-4.4,16.7-26.7,46-43.9
	c0,0,1.5-1.3,2.1-1.7C223.1,26.5,210.3,26.5,210.3,26.5z"/>
<path class="st2" d="M323.3,28.4h42.3l-20,65.3h-26.2c0,0,15.6-49.2,16-50.4l-36.2,50.4H273c0,0-3.3-52.1-4-49.8
	c-0.7,2.3-1.3,4-1.7,5.3L252,93.7h-23.6l21.2-65.3h40l3.3,42.9L323.3,28.4z"/>
<path class="st2" d="M447.1,90.9c-10.7,4.2-24.3,5.5-40.8,3.9c-16.5-1.5-28.2-5.2-35-11c-9.4-7.2-11.8-16.5-7.4-28
	c4.5-11.7,13.8-20,27.8-24.8c10.7-4.2,24.3-5.5,40.8-3.9c16.5,1.5,28.2,5.2,35,11c9.4,7,11.8,16.3,7.3,28
	C470.4,77.7,461.2,85.9,447.1,90.9z M432,78.5c5.7-3.1,9.9-7.9,12.4-14.4c2.6-6.5,2.4-11.8-0.6-15.9s-8.3-6.6-16-7.4
	c-7.7-0.8-14.7,0.3-20.7,3.5c-6.1,3.2-10.4,8.2-12.9,15c-2.5,6.7-2,12.1,1.3,16.1s8.8,6.2,16.5,6.9C419.6,82.9,426.2,81.6,432,78.5z
	"/>
<path class="st2" d="M97.8,28.2c-17.2,0-48.5-0.2-48.5-0.2l-22,65.8c0,0,30.3,0,41.5,0s66.5,4.6,77.2-29
	C156.1,32.5,115.1,28.2,97.8,28.2z M118.1,62.9C112.7,84.5,84.7,81.5,79,81.5s-21,0-21,0l14-40.7c0,0,15,0.1,23.2,0.1
	C103.4,40.8,123,43.4,118.1,62.9z"/>
<path class="st2" d="M142.6,28.4h30.3c0,0,11.2,12.4,16.4,23.4s6.2,22.6-1.9,41.9c-11.2,0-26.8,0-26.8,0S180.6,54.3,142.6,28.4z"/>
<path class="st2" d="M142.6,28.4h30.3c0,0,11.2,12.4,16.4,23.4s6.2,22.6-1.9,41.9c-11.2,0-26.8,0-26.8,0S180.6,54.3,142.6,28.4z"/>
<path class="st2" d="M211.9,28.2c0,0-14.2,10.4-20.3,18.2c0.6,1.2,1.3,2.3,1.8,3.5c3.4,7.3,4.9,14.4,4.4,22.2
	c3.2-4.4,18.2-24.5,46-43.9C221.1,28.2,211.9,28.2,211.9,28.2z"/>
</svg>
