<?xml version="1.0" encoding="utf-8"?>
<!-- Generator: Adobe Illustrator 21.0.2, SVG Export Plug-In . SVG Version: 6.00 Build 0)  -->
<svg version="1.1" id="Calque_1" xmlns="http://www.w3.org/2000/svg" xmlns:xlink="http://www.w3.org/1999/xlink" x="0px" y="0px"
	 viewBox="0 0 500 180" style="enable-background:new 0 0 500 180;" xml:space="preserve">
<style type="text/css">
	.st0{fill:#1579BA;}
</style>
<polygon class="st0" points="133,35.7 124.4,64.8 141.1,64.8 "/>
<polygon class="st0" points="25,109.2 76.9,109.2 84.6,83.7 56,83.7 56,76 87,76 94.4,51.5 56,51.5 56,44.1 96.6,44.1 104.4,18.2 
	25,18.2 "/>
<polygon class="st0" points="118.3,85.1 110.9,109.2 153.9,109.2 147,85.1 "/>
<path class="st0" d="M245.2,48.3c-9.9,0-17.7,9.2-17.7,19.3c-0.1,10.2,7.3,18.3,17.3,18.3c9.7,0,17.6-8.1,17.6-18.3
	S255.1,48.3,245.2,48.3z"/>
<path class="st0" d="M195.5,67.2c0-21.9,13.3-43.4,35-49H148v25.9h26v65.1h41.9C213.3,107.6,195.5,93.5,195.5,67.2z"/>
<polygon class="st0" points="331.6,18.2 331.6,75.4 331.4,75.4 314.6,18.2 271.7,18.2 271.7,109.2 298.5,109.2 298.5,52.2 
	298.7,52.2 315.3,109.2 358.6,109.2 358.6,18.2 "/>
<path d="M103.2,141.4h4.1c2.3,0,4.1-1.1,4.9-5c0.9-4.3-0.9-4.6-2.9-4.6h-4.1L103.2,141.4z M103.5,129.9h6.9c2.1,0,5.5,0.3,4.2,6.1
	c-1.1,5-3.2,7.3-7.5,7.3h-4.2l-2.5,11.7h-2.2L103.5,129.9z"/>
<path d="M123.1,151.3c0.5-0.9,1.3-4,1.5-5.1c1.1-5.2,1.1-7.4-2.4-7.4c-3.4,0-4.4,2.3-5.5,7.4c-0.2,1.1-0.8,4.3-0.7,5.1
	c0.1,0.4,0.2,2.3,3.1,2.3C122,153.7,122.9,151.8,123.1,151.3 M114.2,148.1l0.9-4.2c0.5-2.2,1.5-6.8,7.5-6.8c6,0,5.1,4.6,4.6,6.8
	l-0.9,4.2c-1,4.6-3.1,7.2-7.6,7.2C114.3,155.3,113.3,152.7,114.2,148.1"/>
<polygon points="130.4,137.4 132.6,137.4 133.3,152.8 133.4,152.8 140.4,137.4 142.9,137.4 143.6,152.8 143.6,152.8 150.8,137.4 
	152.9,137.4 144.3,155 141.7,155 141.1,140 141,140 134.1,155 131.5,155 "/>
<path d="M163.2,145c0.8-3.9,0.7-6.2-2.6-6.2s-4.5,2.3-5.3,6.2H163.2z M154.9,146.7l-0.3,1.4c-0.5,2.4-0.5,5.7,2.8,5.7
	c2.6,0,4.2-1.7,4.7-4h2.2c-1.1,4.2-3.8,5.7-7.3,5.7c-3,0-5.8-1.2-4.7-6.5l0.9-4.3c1.1-5.1,3.7-7.4,7.6-7.4c6,0,5.1,4.4,4,9.6
	L154.9,146.7L154.9,146.7z"/>
<path d="M172.5,139.8L172.5,139.8c1.3-1.7,3.4-2.7,5.5-2.7l-0.5,2.1c-2.9-0.2-5.2,1.5-5.9,4.5l-2.4,11.3h-2.1l3.7-17.6h2.1
	L172.5,139.8z"/>
<path d="M185.5,155h-2.1l3.7-17.6h2.1l-0.5,2.2h0.1c1.3-1.5,2.9-2.5,4.8-2.5c4.4,0,4.1,3.2,3.6,5.5l-2.6,12.4h-2.1l2.6-12.3
	c0.4-2.1,0-4-2.4-4c-1.9,0-4.1,1.3-4.9,5.2L185.5,155z"/>
<path d="M202.8,145.8c-0.8,3.7-1.6,7.3,2.2,7.3c1.7,0,3.1-1.1,3.6-2c0.8-1.4,1.1-2.2,2.2-7.3c0.8-3.7-0.9-5.1-2.9-5.1
	C204.3,138.8,203.3,143.2,202.8,145.8 M212.3,137.4h2.1c-0.4,1.7-0.6,2.5-0.8,3.4l-3.1,14.8c-0.8,3.9-2.5,6.2-7.5,6.2
	c-4.4,0-4.6-3.1-4.1-4.9h2.1c-0.6,2,0.7,3.2,2.6,3.2c4.1,0,4.3-2.2,5.4-7.4h-0.1c-1.2,1.5-3,2.1-4.7,2.1c-5,0-4.5-4.3-3.6-8.2
	c0.9-4.1,0.9-4.1,1.8-6c0.3-0.7,2.1-3.5,5.7-3.5c1.8,0,3.4,0.9,3.8,2.5l0.1,0.1L212.3,137.4z"/>
<path d="M232,141.1c3.2,0,4.7-2.2,5.3-5c0.9-4.2-1.4-4.2-3.2-4.2h-4.4l-2,9.3L232,141.1L232,141.1z M225.1,153.1h3.5
	c3.7,0,5.7-1.3,6.5-4.9c0.5-2.2,0.5-5.3-3.4-5.3h-4.5L225.1,153.1z M222.5,155l5.3-25.1h7c3.9,0,5.6,1.6,4.7,6c-0.6,3-1.6,5.1-4.9,6
	v0.1c3.2,0.7,3.6,2.9,2.9,6.1c-1,4.5-3.6,7-7.9,7h-7.1V155z"/>
<path d="M254.4,137.4l-3.7,17.6h-1.8l0.4-2h-0.1c-1.5,1.5-3,2.3-4.9,2.3c-3.6,0-4.1-2.6-3.5-5.5l2.6-12.4h2.1l-2.6,12.1
	c-0.1,0.5-1,4.2,2,4.2c2.8,0,4.4-2.6,4.6-3.9l2.6-12.4L254.4,137.4L254.4,137.4z"/>
<path d="M259.4,155.3c-3.8,0-4.9-1.8-4.1-5.6h2.1c-0.5,2.4-0.3,4,2.4,4c2,0,3.2-1.2,3.6-3.1c1-4.6-7.2-3.4-5.9-9.2
	c0.7-3.2,3.2-4.4,6.2-4.4c3.5,0,4.1,2.4,3.5,5.1h-2c0.4-2.2,0-3.4-2.3-3.4c-1.5,0-2.9,1-3.2,2.5c-0.9,4.4,7.2,3.2,6,9.1
	C265,153.7,262.7,155.3,259.4,155.3"/>
<polygon points="176.5,155 178.6,155 182.3,137.4 180.2,137.4 "/>
<polygon points="181.1,132.5 183.7,132.5 184.3,129.9 181.7,129.9 "/>
<polygon points="273.6,129.9 273,132.5 275.6,132.5 276.2,129.9 "/>
<polygon points="268.5,155 270.6,155 274.3,137.4 272.2,137.4 "/>
<path d="M277.5,155h-2.1l3.7-17.6h2.1l-0.5,2.2h0.1c1.3-1.5,2.9-2.5,4.8-2.5c4.3,0,4.1,3.2,3.6,5.5l-2.6,12.4h-2.1l2.6-12.3
	c0.4-2.1,0-4-2.4-4c-1.9,0-4.1,1.3-4.9,5.2L277.5,155z"/>
<path d="M302.9,145c0.8-3.9,0.7-6.2-2.6-6.2c-3.3,0-4.5,2.3-5.3,6.2H302.9z M294.6,146.7l-0.3,1.4c-0.5,2.4-0.5,5.7,2.8,5.7
	c2.6,0,4.3-1.7,4.7-4h2.2c-1.1,4.2-3.8,5.7-7.3,5.7c-3,0-5.8-1.2-4.7-6.5l0.9-4.3c1.1-5.1,3.7-7.4,7.6-7.4c6.1,0,5.1,4.4,4,9.6
	L294.6,146.7L294.6,146.7z"/>
<path d="M311.1,155.3c-3.8,0-4.9-1.8-4.1-5.6h2.1c-0.5,2.4-0.3,4,2.4,4c2,0,3.2-1.2,3.6-3.1c1-4.6-7.2-3.4-5.9-9.2
	c0.7-3.2,3.2-4.4,6.2-4.4c3.5,0,4.1,2.4,3.5,5.1h-2.1c0.4-2.2,0-3.4-2.3-3.4c-1.5,0-2.9,1-3.2,2.5c-0.9,4.4,7.2,3.2,6,9.1
	C316.6,153.7,314.4,155.3,311.1,155.3"/>
<path d="M324.4,155.3c-3.8,0-4.9-1.8-4.1-5.6h2.1c-0.5,2.4-0.3,4,2.4,4c2,0,3.2-1.2,3.6-3.1c1-4.6-7.2-3.4-5.9-9.2
	c0.7-3.2,3.2-4.4,6.2-4.4c3.5,0,4.1,2.4,3.5,5.1h-2c0.4-2.2,0-3.4-2.3-3.4c-1.5,0-2.9,1-3.2,2.5c-0.9,4.4,7.2,3.2,6,9.1
	C329.9,153.7,327.7,155.3,324.4,155.3"/>
<polygon points="355.1,129.9 358.1,129.9 358.5,151.9 358.5,151.9 368.6,129.9 370.8,129.9 359.2,155 356.3,155 356,132.7 
	355.9,132.7 346,155 343.2,155 342.5,129.9 344.9,129.9 345.2,152.1 345.3,152.1 "/>
<path d="M377,151.3c0.5-0.9,1.3-4,1.5-5.1c1.1-5.2,1.1-7.4-2.4-7.4c-3.4,0-4.4,2.3-5.5,7.4c-0.2,1.1-0.8,4.3-0.7,5.1
	c0.1,0.4,0.2,2.3,3.1,2.3C375.8,153.7,376.7,151.8,377,151.3 M368,148.1l0.9-4.2c0.5-2.2,1.5-6.8,7.5-6.8s5.1,4.6,4.6,6.8l-0.9,4.2
	c-1,4.6-3.1,7.2-7.6,7.2C368.1,155.3,367.1,152.7,368,148.1"/>
<path d="M388.3,139.8L388.3,139.8c1.3-1.7,3.4-2.7,5.5-2.7l-0.5,2.1c-2.9-0.2-5.2,1.5-5.9,4.5L385,155h-2l3.7-17.6h2.1L388.3,139.8z
	"/>
<polygon points="392.5,155 397.9,129.9 400,129.9 394.6,155 "/>
<path d="M410.2,147.8l0.7-3.1c0.2-1,1.3-5.9-2.7-5.9c-3.8,0-4.5,3.4-5.4,7.5c-1.4,6.5,0,7.4,2.2,7.4
	C407,153.7,409.3,152.1,410.2,147.8 M409.2,152.8L409.2,152.8c-1.5,1.7-3,2.6-5.1,2.6c-5.1,0-4.3-5-3.4-9.1c0.7-3.4,1.9-9.1,7.3-9.1
	c1.6,0,3,0.7,3.8,2.1h0.1l2-9.3h2.1l-4.6,21.6c-0.4,1.7-0.5,2.9-0.5,3.5h-2L409.2,152.8z"/>
<polygon points="416.9,137.4 419.1,137.4 419.8,152.8 419.8,152.8 426.8,137.4 429.4,137.4 430,152.8 430.1,152.8 437.3,137.4 
	439.4,137.4 430.8,155 428.2,155 427.5,140 427.5,140 420.6,155 418,155 "/>
<polygon points="443.4,129.9 442.8,132.5 445.4,132.5 446,129.9 "/>
<polygon points="438.3,155 440.4,155 444.1,137.4 442,137.4 "/>
<path d="M455.8,147.8l0.7-3.1c0.2-1,1.3-5.9-2.7-5.9c-3.8,0-4.5,3.4-5.4,7.5c-1.4,6.5,0,7.4,2.3,7.4
	C452.7,153.7,454.9,152.1,455.8,147.8 M454.8,152.8L454.8,152.8c-1.5,1.7-3,2.6-5.1,2.6c-5.1,0-4.3-5-3.4-9.1
	c0.7-3.4,1.9-9.1,7.3-9.1c1.6,0,3,0.7,3.8,2.1h0.1l2-9.3h2.1l-4.6,21.6c-0.4,1.7-0.5,2.9-0.5,3.5h-2L454.8,152.8z"/>
<path d="M472.5,145c0.8-3.9,0.7-6.2-2.6-6.2c-3.3,0-4.5,2.3-5.3,6.2H472.5z M464.2,146.7l-0.3,1.4c-0.5,2.4-0.5,5.7,2.8,5.7
	c2.6,0,4.3-1.7,4.7-4h2.2c-1.1,4.2-3.8,5.7-7.3,5.7c-3,0-5.8-1.2-4.7-6.5l0.9-4.3c1.1-5.1,3.7-7.4,7.6-7.4c6,0,5.1,4.4,4,9.6
	L464.2,146.7L464.2,146.7z"/>
</svg>
