<?xml version="1.0" encoding="utf-8"?>
<!-- Generator: Adobe Illustrator 19.1.0, SVG Export Plug-In . SVG Version: 6.00 Build 0)  -->
<svg version="1.1" id="Calque_1" xmlns="http://www.w3.org/2000/svg" xmlns:xlink="http://www.w3.org/1999/xlink" x="0px" y="0px"
	 viewBox="0 0 500 500" style="enable-background:new 0 0 500 500;" xml:space="preserve">
<style type="text/css">
	.st0{fill:#1579BA;}
</style>
<g>
	<path class="st0" d="M76.9,269.2l7.7-25.5H56V236H87l7.4-24.5H56v-7.4h40.6l7.8-25.9H25v91H76.9z M331.4,235.4l-16.8-57.2h-42.9v91
		h26.8v-57h0.2l16.6,57h43.3v-91h-27v57.2L331.4,235.4L331.4,235.4z M244.8,245.9c9.7,0,17.6-8.1,17.6-18.3
		c0-10.2-7.3-19.3-17.2-19.3c-9.9,0-17.7,9.2-17.7,19.3C227.4,237.8,234.8,245.9,244.8,245.9 M230.5,178.2h-82.5v25.9h26v65.1h41.9
		c-2.6-1.6-20.4-15.7-20.4-42C195.5,205.3,208.8,183.8,230.5,178.2 M118.3,245.1l-7.4,24.1h43l-6.9-24.1H118.3z M133,195.7l8.1,29.1
		h-16.7L133,195.7z"/>
	<path d="M103.2,301.4h4.1c2.3,0,4.1-1.1,4.9-5c0.9-4.3-0.9-4.6-2.9-4.6h-4.1L103.2,301.4z M103.5,289.9h6.9c2.1,0,5.5,0.3,4.2,6.1
		c-1.1,5-3.2,7.3-7.5,7.3h-4.2l-2.5,11.7h-2.2L103.5,289.9z"/>
	<path d="M123.1,311.3c0.5-0.9,1.3-4,1.5-5.1c1.1-5.2,1.1-7.4-2.4-7.4c-3.4,0-4.4,2.3-5.5,7.4c-0.2,1.1-0.8,4.3-0.7,5.1
		c0.1,0.4,0.2,2.3,3.1,2.3C122,313.7,122.9,311.8,123.1,311.3 M114.2,308.1l0.9-4.2c0.5-2.2,1.5-6.8,7.5-6.8c6,0,5.1,4.6,4.6,6.8
		l-0.9,4.2c-1,4.6-3.1,7.2-7.6,7.2C114.3,315.3,113.3,312.7,114.2,308.1"/>
	<polygon points="130.4,297.4 132.6,297.4 133.3,312.8 133.4,312.8 140.4,297.4 142.9,297.4 143.6,312.8 143.6,312.8 150.8,297.4 
		152.9,297.4 144.3,315 141.7,315 141.1,300 141,300 134.1,315 131.5,315 	"/>
	<path d="M163.2,305c0.8-3.9,0.7-6.2-2.6-6.2c-3.3,0-4.5,2.3-5.3,6.2H163.2z M154.9,306.7l-0.3,1.4c-0.5,2.4-0.5,5.7,2.8,5.7
		c2.6,0,4.2-1.7,4.7-4h2.2c-1.1,4.2-3.8,5.7-7.3,5.7c-3,0-5.8-1.2-4.7-6.5l0.9-4.3c1.1-5.1,3.7-7.4,7.6-7.4c6,0,5.1,4.4,4,9.6
		L154.9,306.7L154.9,306.7z"/>
	<path d="M172.5,299.8L172.5,299.8c1.3-1.7,3.4-2.7,5.5-2.7l-0.5,2.1c-2.9-0.2-5.2,1.5-5.9,4.5l-2.4,11.3h-2.1l3.7-17.6h2.1
		L172.5,299.8z"/>
	<path d="M181.1,292.5l0.6-2.6h2.6l-0.6,2.6H181.1z M176.5,315l3.7-17.6h2.1l-3.7,17.6H176.5z"/>
	<path d="M185.5,315h-2.1l3.7-17.6h2.1l-0.5,2.2h0.1c1.3-1.5,2.9-2.5,4.8-2.5c4.4,0,4.1,3.2,3.6,5.5l-2.6,12.4h-2.1l2.6-12.3
		c0.4-2.1,0-4-2.4-4c-1.9,0-4.1,1.3-4.9,5.2L185.5,315z"/>
	<path d="M202.8,305.8c-0.8,3.7-1.6,7.3,2.2,7.3c1.7,0,3.1-1.1,3.6-2c0.8-1.4,1.1-2.2,2.2-7.3c0.8-3.7-0.9-5.1-2.9-5.1
		C204.3,298.8,203.3,303.2,202.8,305.8 M212.3,297.4h2.1c-0.4,1.7-0.6,2.5-0.8,3.4l-3.1,14.8c-0.8,3.9-2.5,6.2-7.5,6.2
		c-4.4,0-4.6-3.1-4.1-4.9h2.1c-0.6,2,0.7,3.2,2.6,3.2c4.1,0,4.3-2.2,5.4-7.4h-0.1c-1.2,1.5-3,2.1-4.7,2.1c-5,0-4.5-4.3-3.6-8.2
		c0.9-4.1,0.9-4.1,1.8-6c0.3-0.7,2.1-3.5,5.7-3.5c1.8,0,3.4,0.9,3.8,2.5l0.1,0.1L212.3,297.4z"/>
	<path d="M232,301.1c3.2,0,4.7-2.2,5.3-5c0.9-4.2-1.4-4.2-3.2-4.2h-4.4l-2,9.3H232z M225.1,313.1h3.5c3.7,0,5.7-1.3,6.5-4.9
		c0.5-2.2,0.5-5.3-3.4-5.3h-4.5L225.1,313.1z M222.5,315l5.3-25.1h7c3.9,0,5.6,1.6,4.7,6c-0.6,3-1.6,5.1-4.9,6l0,0.1
		c3.2,0.7,3.6,2.9,2.9,6.1c-1,4.5-3.6,7-7.9,7H222.5z"/>
	<path d="M254.4,297.4l-3.7,17.6h-1.8l0.4-2h-0.1c-1.5,1.5-3,2.3-4.9,2.3c-3.6,0-4.1-2.6-3.5-5.5l2.6-12.4h2.1l-2.6,12.1
		c-0.1,0.5-1,4.2,2,4.2c2.8,0,4.4-2.6,4.6-3.9l2.6-12.4L254.4,297.4L254.4,297.4z"/>
	<path d="M259.4,315.3c-3.8,0-4.9-1.8-4.1-5.6h2.1c-0.5,2.4-0.3,4,2.4,4c2,0,3.2-1.2,3.6-3.1c1-4.6-7.2-3.4-5.9-9.2
		c0.7-3.2,3.2-4.4,6.2-4.4c3.5,0,4.1,2.4,3.5,5.1h-2c0.4-2.2,0-3.4-2.3-3.4c-1.5,0-2.9,1-3.2,2.5c-0.9,4.4,7.2,3.2,6,9.1
		C265,313.7,262.7,315.3,259.4,315.3"/>
	<path d="M273,292.5l0.6-2.6h2.6l-0.6,2.6H273z M268.5,315l3.7-17.6h2.1l-3.7,17.6H268.5z"/>
	<path d="M277.5,315h-2.1l3.7-17.6h2.1l-0.5,2.2h0.1c1.3-1.5,2.9-2.5,4.8-2.5c4.3,0,4.1,3.2,3.6,5.5l-2.6,12.4h-2.1l2.6-12.3
		c0.4-2.1,0-4-2.4-4c-1.9,0-4.1,1.3-4.9,5.2L277.5,315z"/>
	<path d="M302.9,305c0.8-3.9,0.7-6.2-2.6-6.2c-3.3,0-4.5,2.3-5.3,6.2H302.9z M294.6,306.7l-0.3,1.4c-0.5,2.4-0.5,5.7,2.8,5.7
		c2.6,0,4.3-1.7,4.7-4h2.2c-1.1,4.2-3.8,5.7-7.3,5.7c-3,0-5.8-1.2-4.7-6.5l0.9-4.3c1.1-5.1,3.7-7.4,7.6-7.4c6.1,0,5.1,4.4,4,9.6
		L294.6,306.7L294.6,306.7z"/>
	<path d="M311.1,315.3c-3.8,0-4.9-1.8-4.1-5.6h2.1c-0.5,2.4-0.3,4,2.4,4c2,0,3.2-1.2,3.6-3.1c1-4.6-7.2-3.4-5.9-9.2
		c0.7-3.2,3.2-4.4,6.2-4.4c3.5,0,4.1,2.4,3.5,5.1h-2.1c0.4-2.2,0-3.4-2.3-3.4c-1.5,0-2.9,1-3.2,2.5c-0.9,4.4,7.2,3.2,6,9.1
		C316.6,313.7,314.4,315.3,311.1,315.3"/>
	<path d="M324.4,315.3c-3.8,0-4.9-1.8-4.1-5.6h2.1c-0.5,2.4-0.3,4,2.4,4c2,0,3.2-1.2,3.6-3.1c1-4.6-7.2-3.4-5.9-9.2
		c0.7-3.2,3.2-4.4,6.2-4.4c3.5,0,4.1,2.4,3.5,5.1h-2c0.4-2.2,0-3.4-2.3-3.4c-1.5,0-2.9,1-3.2,2.5c-0.9,4.4,7.2,3.2,6,9.1
		C329.9,313.7,327.7,315.3,324.4,315.3"/>
	<polygon points="355.1,289.9 358.1,289.9 358.5,311.9 358.5,311.9 368.6,289.9 370.8,289.9 359.2,315 356.3,315 356,292.7 
		355.9,292.7 346,315 343.2,315 342.5,289.9 344.9,289.9 345.2,312.1 345.3,312.1 	"/>
	<path d="M377,311.3c0.5-0.9,1.3-4,1.5-5.1c1.1-5.2,1.1-7.4-2.4-7.4c-3.4,0-4.4,2.3-5.5,7.4c-0.2,1.1-0.8,4.3-0.7,5.1
		c0.1,0.4,0.2,2.3,3.1,2.3C375.8,313.7,376.7,311.8,377,311.3 M368,308.1l0.9-4.2c0.5-2.2,1.5-6.8,7.5-6.8c6,0,5.1,4.6,4.6,6.8
		l-0.9,4.2c-1,4.6-3.1,7.2-7.6,7.2C368.1,315.3,367.1,312.7,368,308.1"/>
	<path d="M388.3,299.8L388.3,299.8c1.3-1.7,3.4-2.7,5.5-2.7l-0.5,2.1c-2.9-0.2-5.2,1.5-5.9,4.5l-2.4,11.3H383l3.7-17.6h2.1
		L388.3,299.8z"/>
	<polygon points="392.5,315 397.9,289.9 400,289.9 394.6,315 	"/>
	<path d="M410.2,307.8l0.7-3.1c0.2-1,1.3-5.9-2.7-5.9c-3.8,0-4.5,3.4-5.4,7.5c-1.4,6.5,0,7.4,2.2,7.4
		C407,313.7,409.3,312.1,410.2,307.8 M409.2,312.8L409.2,312.8c-1.5,1.7-3,2.6-5.1,2.6c-5.1,0-4.3-5-3.4-9.1
		c0.7-3.4,1.9-9.1,7.3-9.1c1.6,0,3,0.7,3.8,2.1l0.1,0l2-9.3h2.1l-4.6,21.6c-0.4,1.7-0.5,2.9-0.5,3.5h-2L409.2,312.8z"/>
	<polygon points="416.9,297.4 419.1,297.4 419.8,312.8 419.8,312.8 426.8,297.4 429.4,297.4 430,312.8 430.1,312.8 437.3,297.4 
		439.4,297.4 430.8,315 428.2,315 427.5,300 427.5,300 420.6,315 418,315 	"/>
	<path d="M442.8,292.5l0.6-2.6h2.6l-0.6,2.6H442.8z M438.3,315l3.7-17.6h2.1l-3.7,17.6H438.3z"/>
	<path d="M455.8,307.8l0.7-3.1c0.2-1,1.3-5.9-2.7-5.9c-3.8,0-4.5,3.4-5.4,7.5c-1.4,6.5,0,7.4,2.3,7.4
		C452.7,313.7,454.9,312.1,455.8,307.8 M454.8,312.8L454.8,312.8c-1.5,1.7-3,2.6-5.1,2.6c-5.1,0-4.3-5-3.4-9.1
		c0.7-3.4,1.9-9.1,7.3-9.1c1.6,0,3,0.7,3.8,2.1l0.1,0l2-9.3h2.1l-4.6,21.6c-0.4,1.7-0.5,2.9-0.5,3.5h-2L454.8,312.8z"/>
	<path d="M472.5,305c0.8-3.9,0.7-6.2-2.6-6.2c-3.3,0-4.5,2.3-5.3,6.2H472.5z M464.2,306.7l-0.3,1.4c-0.5,2.4-0.5,5.7,2.8,5.7
		c2.6,0,4.3-1.7,4.7-4h2.2c-1.1,4.2-3.8,5.7-7.3,5.7c-3,0-5.8-1.2-4.7-6.5l0.9-4.3c1.1-5.1,3.7-7.4,7.6-7.4c6,0,5.1,4.4,4,9.6
		L464.2,306.7L464.2,306.7z"/>
</g>
</svg>
