<?xml version="1.0" encoding="utf-8"?>
<!-- Generator: Adobe Illustrator 16.0.0, SVG Export Plug-In . SVG Version: 6.00 Build 0)  -->
<!DOCTYPE svg PUBLIC "-//W3C//DTD SVG 1.1//EN" "http://www.w3.org/Graphics/SVG/1.1/DTD/svg11.dtd">
<svg version="1.1" id="Calque_2" xmlns="http://www.w3.org/2000/svg" xmlns:xlink="http://www.w3.org/1999/xlink" x="0px" y="0px"
	 width="500px" height="500px" viewBox="0 0 500 500" enable-background="new 0 0 500 500" xml:space="preserve">
<g>
	<g>
		<circle fill="#0070B8" cx="43.816" cy="243.65" r="1.205"/>
		<path fill="#0070B8" d="M25,215.747v67.112h67.113v-67.112H25z M49.298,232.6c2.899-1.684,14.128,3.929,14.128,3.929
			c-5.801,6.645-8.515,18.154-8.515,18.154l-5.428-5.428C47.145,240.553,49.298,232.6,49.298,232.6z M29.646,267.69l-1.31-1.685
			c7.766,0,10.48-13.381,10.48-19.276c0-5.896,9.451-13.287,9.451-13.287c-1.871,7.205,0.187,16.002,0.187,16.002
			C39.471,266.756,29.646,267.69,29.646,267.69z M82.142,267.316l-3.65-9.731c-13.474,3.93-18.809,0.093-18.809,0.093l-3.462,9.639
			h-6.831v-16.563l6.175,5.894C57.719,245.232,64.58,237,64.58,237c5.096,3.756,16.361,4.216,16.361,4.216l7.658,26.101H82.142z"/>
	</g>
	<rect x="97.845" y="215.483" fill="#0070B8" width="17.549" height="67.376"/>
	<path fill="#0070B8" d="M150.161,231.186c-16.103,0-27.382,10.043-27.382,26.713c0,17.258,12.245,26.617,28.636,26.617
		c11.28,0,22.369-5.361,25.164-17.159h-16.873c-1.929,3.315-4.628,4.584-8.389,4.584c-7.231,0-10.992-3.901-10.992-11.116h36.929
		v-1.852C177.254,241.91,167.323,231.186,150.161,231.186z M140.615,250.588c1.06-5.168,5.302-7.896,10.413-7.896
		c4.723,0,9.063,3.119,9.93,7.896H140.615z"/>
	<path fill="#0070B8" d="M177.311,282.859h17.548v-5.557h0.193c3.183,4.973,9.16,7.214,14.945,7.214
		c14.752,0,24.973-12.284,24.973-26.715c0-14.331-10.124-26.616-24.779-26.616c-5.69,0-11.571,2.144-15.332,6.533v-22.236h-17.548
		V282.859z M205.561,246.591c7.136,0,11.282,5.167,11.282,11.309c0,6.337-4.146,11.213-11.282,11.213
		c-7.135,0-11.28-4.876-11.28-11.213C194.281,251.758,198.426,246.591,205.561,246.591z"/>
	<path fill="#0070B8" d="M262.736,231.186c-16.102,0-27.382,10.043-27.382,26.713c0,17.258,12.245,26.617,28.636,26.617
		c11.28,0,22.368-5.361,25.164-17.159h-16.873c-1.928,3.315-4.628,4.584-8.388,4.584c-7.232,0-10.991-3.901-10.991-11.116h36.928
		v-1.852C289.83,241.91,279.898,231.186,262.736,231.186z M253.19,250.588c1.062-5.168,5.305-7.896,10.414-7.896
		c4.725,0,9.063,3.119,9.931,7.896H253.19z"/>
	<path fill="#0070B8" d="M324.019,231.186c-6.846,0-11.763,2.046-15.813,8.092h-0.193v-6.435h-17.547v50.017h17.547v-25.934
		c0-6.241,2.024-11.604,9.16-11.604c8.677,0,7.906,8.386,7.906,13.164v24.373h17.548v-30.907
		C342.627,239.669,337.325,231.186,324.019,231.186z"/>
	<path fill="#0070B8" d="M371.434,231.186c-15.094,0-28.267,9.651-28.267,26.713c0,17.063,13.265,26.617,28.267,26.617
		c15.092,0,28.266-9.652,28.266-26.617C399.699,240.837,386.525,231.186,371.434,231.186z M371.434,269.112
		c-6.771,0-10.703-4.876-10.703-11.213c0-6.142,3.932-11.309,10.703-11.309c6.767,0,10.7,5.167,10.7,11.309
		C382.134,264.236,378.2,269.112,371.434,269.112z"/>
	<rect x="399.854" y="232.843" fill="#0070B8" width="17.548" height="50.017"/>
	<path fill="#0070B8" d="M457.454,237.719c-3.665-4.389-9.644-6.533-15.331-6.533c-14.657,0-24.782,12.285-24.782,26.616
		c0,14.334,10.32,26.715,24.975,26.715c5.784,0,11.858-2.241,14.944-7.214h0.194v5.557H475v-67.376h-17.546V237.719z
		 M446.751,269.112c-7.136,0-11.282-4.876-11.282-11.213c0-6.142,4.146-11.309,11.282-11.309c7.132,0,11.281,5.167,11.281,11.309
		C458.032,264.236,453.883,269.112,446.751,269.112z"/>
	<rect x="130.381" y="225.71" fill="#0070B8" width="40.722" height="3.62"/>
	<rect x="119.979" y="215.483" fill="#0070B8" width="3.057" height="21.848"/>
	<rect x="242.629" y="225.71" fill="#0070B8" width="40.721" height="3.62"/>
	<g>
		<rect x="399.779" y="225.71" fill="#0070B8" width="6.922" height="3.62"/>
		<rect x="409.854" y="225.71" fill="#0070B8" width="7.504" height="3.62"/>
	</g>
</g>
</svg>
