<?xml version="1.0" encoding="utf-8"?>
<!-- Generator: Adobe Illustrator 19.1.0, SVG Export Plug-In . SVG Version: 6.00 Build 0)  -->
<svg version="1.1" id="Calque_2" xmlns="http://www.w3.org/2000/svg" xmlns:xlink="http://www.w3.org/1999/xlink" x="0px" y="0px"
	 viewBox="0 0 500 500" style="enable-background:new 0 0 500 500;" xml:space="preserve">
<style type="text/css">
	.st0{fill:#0070B8;}
</style>
<g>
	<g>
		<circle class="st0" cx="43.8" cy="243.6" r="1.2"/>
		<path class="st0" d="M25,215.7v67.1h67.1v-67.1L25,215.7L25,215.7z M49.3,232.6c2.9-1.7,14.1,3.9,14.1,3.9
			c-5.8,6.6-8.5,18.2-8.5,18.2l-5.4-5.4C47.1,240.6,49.3,232.6,49.3,232.6z M29.6,267.7l-1.3-1.7c7.8,0,10.5-13.4,10.5-19.3
			c0-5.9,9.5-13.3,9.5-13.3c-1.9,7.2,0.2,16,0.2,16C39.5,266.8,29.6,267.7,29.6,267.7z M82.1,267.3l-3.7-9.7
			c-13.5,3.9-18.8,0.1-18.8,0.1l-3.5,9.6h-6.8v-16.6l6.2,5.9c2.2-11.4,9-19.6,9-19.6c5.1,3.8,16.4,4.2,16.4,4.2l7.7,26.1L82.1,267.3
			L82.1,267.3z"/>
	</g>
	<rect x="97.8" y="215.5" class="st0" width="17.5" height="67.4"/>
	<path class="st0" d="M150.2,231.2c-16.1,0-27.4,10-27.4,26.7c0,17.3,12.2,26.6,28.6,26.6c11.3,0,22.4-5.4,25.2-17.2h-16.9
		c-1.9,3.3-4.6,4.6-8.4,4.6c-7.2,0-11-3.9-11-11.1h36.9V259C177.3,241.9,167.3,231.2,150.2,231.2z M140.6,250.6
		c1.1-5.2,5.3-7.9,10.4-7.9c4.7,0,9.1,3.1,9.9,7.9H140.6z"/>
	<path class="st0" d="M177.3,282.9h17.5v-5.6h0.2c3.2,5,9.2,7.2,14.9,7.2c14.8,0,25-12.3,25-26.7c0-14.3-10.1-26.6-24.8-26.6
		c-5.7,0-11.6,2.1-15.3,6.5v-22.2h-17.5V282.9z M205.6,246.6c7.1,0,11.3,5.2,11.3,11.3c0,6.3-4.1,11.2-11.3,11.2
		c-7.1,0-11.3-4.9-11.3-11.2C194.3,251.8,198.4,246.6,205.6,246.6z"/>
	<path class="st0" d="M262.7,231.2c-16.1,0-27.4,10-27.4,26.7c0,17.3,12.2,26.6,28.6,26.6c11.3,0,22.4-5.4,25.2-17.2h-16.9
		c-1.9,3.3-4.6,4.6-8.4,4.6c-7.2,0-11-3.9-11-11.1h36.9V259C289.8,241.9,279.9,231.2,262.7,231.2z M253.2,250.6
		c1.1-5.2,5.3-7.9,10.4-7.9c4.7,0,9.1,3.1,9.9,7.9H253.2z"/>
	<path class="st0" d="M324,231.2c-6.8,0-11.8,2-15.8,8.1H308v-6.4h-17.5v50H308v-25.9c0-6.2,2-11.6,9.2-11.6c8.7,0,7.9,8.4,7.9,13.2
		v24.4h17.5V252C342.6,239.7,337.3,231.2,324,231.2z"/>
	<path class="st0" d="M371.4,231.2c-15.1,0-28.3,9.7-28.3,26.7c0,17.1,13.3,26.6,28.3,26.6c15.1,0,28.3-9.7,28.3-26.6
		C399.7,240.8,386.5,231.2,371.4,231.2z M371.4,269.1c-6.8,0-10.7-4.9-10.7-11.2c0-6.1,3.9-11.3,10.7-11.3c6.8,0,10.7,5.2,10.7,11.3
		C382.1,264.2,378.2,269.1,371.4,269.1z"/>
	<rect x="399.9" y="232.8" class="st0" width="17.5" height="50"/>
	<path class="st0" d="M457.5,237.7c-3.7-4.4-9.6-6.5-15.3-6.5c-14.7,0-24.8,12.3-24.8,26.6c0,14.3,10.3,26.7,25,26.7
		c5.8,0,11.9-2.2,14.9-7.2h0.2v5.6H475v-67.4h-17.5V237.7z M446.8,269.1c-7.1,0-11.3-4.9-11.3-11.2c0-6.1,4.1-11.3,11.3-11.3
		c7.1,0,11.3,5.2,11.3,11.3C458,264.2,453.9,269.1,446.8,269.1z"/>
	<rect x="130.4" y="225.7" class="st0" width="40.7" height="3.6"/>
	<rect x="120" y="215.5" class="st0" width="3.1" height="21.8"/>
	<rect x="242.6" y="225.7" class="st0" width="40.7" height="3.6"/>
	<g>
		<rect x="399.8" y="225.7" class="st0" width="6.9" height="3.6"/>
		<rect x="409.9" y="225.7" class="st0" width="7.5" height="3.6"/>
	</g>
</g>
</svg>
