<?xml version="1.0" encoding="utf-8"?>
<!-- Generator: Adobe Illustrator 19.1.0, SVG Export Plug-In . SVG Version: 6.00 Build 0)  -->
<svg version="1.1" id="Calque_1" xmlns="http://www.w3.org/2000/svg" xmlns:xlink="http://www.w3.org/1999/xlink" x="0px" y="0px"
	 viewBox="0 0 500 500" style="enable-background:new 0 0 500 500;" xml:space="preserve">
<style type="text/css">
	.st0{fill:#009EE0;}
	.st1{fill:#FFFFFF;}
</style>
<g id="Calque_2">
	<g>
		<rect x="25" y="190" class="st0" width="110.8" height="120.1"/>
		<path class="st1" d="M103.9,248c-0.5,0.3-1,0.5-1.6,0.5c-0.9,0-1.8-0.5-2.6-1.5c-0.8-1-1.1-2-0.9-2.9c0.2-1.2,1.3-2,2.6-2.8
			c-0.2-0.4-0.5-0.7-0.7-1c-5.4-6.4-19.9-16-26.7-28.1s-12.9-19.9-17-18s11.4,8.9,7.2,24c0,0-2.5,11.1-6.7,21.8
			c-0.5,1.3-1,2.8-1.5,4.6c1.5,0.8,2.8,1.8,3.6,3c0.8,1.3,0.9,2.8,0.3,4.1c-1,2.1-2.4,3.1-4,3.1c-0.5,0-1-0.1-1.4-0.3
			c-0.1,1.5-0.1,3,0,4.5c0.2,0.4,0.4,0.7,0.4,0.7l0.3,0.5c0.5,0.1,0.9,0.4,1.2,0.6c0.3-0.3,0.8-0.8,1.2-1.4l0.1-0.1
			c0.6-1,1.3-2.1,2.6-2.1s2.1,1.2,2.6,2.2c1.3,2.6-0.7,3.8-1.7,4.4c-0.6,0.4-1,0.6-1.1,0.9c0.1,0.2,0.9,0.7,1.4,0.9
			c1,0.6,2.2,1.2,2.5,2.4c0.1,0.5,0.1,1.2-0.5,2.1c-0.7,1-1.6,1.2-2.1,1.2c-0.3,0-0.6-0.1-0.9-0.2c0.5,1.1,0.9,2.4,0.5,3.5
			c3.9,3.7,9.8,6.2,18.7,6.2C104,280.8,106.5,260.2,103.9,248z"/>
		<polygon class="st0" points="176.3,210.5 176.3,202.7 163.3,202.7 157.8,202.7 150.2,202.7 150.2,262 157.8,262 163.3,262 
			176.3,262 176.3,254.2 163.3,254.2 163.3,233.7 175.1,233.7 175.1,227.2 163.3,227.2 163.3,210.5 		"/>
		<polygon class="st0" points="303.8,210.5 303.8,202.7 290.9,202.7 285.4,202.7 277.8,202.7 277.8,262 285.4,262 290.9,262 
			303.8,262 303.8,254.2 290.9,254.2 290.9,233.7 302.6,233.7 302.6,227.2 290.9,227.2 290.9,210.5 		"/>
		<polygon class="st0" points="354.4,254.2 354.4,202.7 341.3,202.7 341.3,262 348.9,262 354.4,262 367.4,262 367.4,254.2 		"/>
		<path class="st0" d="M230.6,201.6h-9.1c-5.9,0-10.8,4.9-10.8,10.8v39.7c0,5.9,4.9,10.8,10.8,10.8h9.1c5.9,0,10.8-4.9,10.8-10.8
			v-39.7C241.4,206.5,236.6,201.6,230.6,201.6z M228.8,252c0,1.4-1.1,2.5-2.5,2.5h-0.2c-1.4,0-2.5-1.1-2.5-2.5v-39.3
			c0-1.4,1.1-2.5,2.5-2.5h0.2c1.4,0,2.5,1.1,2.5,2.5V252z"/>
		<path class="st0" d="M196.2,239v13c0,1.3-0.9,2.3-2.1,2.5c-1.2-0.2-2.1-1.2-2.1-2.5v-39.3c0-1.3,0.9-2.3,2.1-2.5
			c1.2,0.2,2.1,1.2,2.1,2.5v10.4h12.1v-10.6c0-5.9-4.7-10.8-10.4-10.8h-8.8c-5.7,0-10.4,4.9-10.4,10.8v39.7
			c0,5.9,4.7,10.8,10.4,10.8h8.8c5.7,0,10.4-4.9,10.4-10.8V239H196.2L196.2,239z"/>
		<path class="st0" d="M337.1,256.4c0-4,0-16.1,0-16.1c0-5.9-4.9-10.8-10.8-10.8h1.6c5,0,9.1-4.1,9.1-9.1v-8.6c0-5-4.1-9.1-9.1-9.1
			h-8.4h-4h-9.1v9.1v8.6V262h13.1v-27.9c1,0,1.8,0,2.2,0h0.2c1.4,0,2.5,1.1,2.5,2.5c0,0,0,14.8,0,19.7c0,4.9,2.1,5.6,2.1,5.6h12.6
			C339.2,262,337.1,260.4,337.1,256.4z M324.4,222.5c0,2.1-1.8,3.9-3.9,3.9h-0.9v-16h0.9c2.1,0,3.9,1.8,3.9,3.9V222.5z"/>
		<path class="st0" d="M264.5,202.7H257h-1.5h-10.8v10.8v16.1V262H257v-21.6h7.5c5.9,0,10.8-4.9,10.8-10.8v-16.1
			C275.3,207.5,270.5,202.7,264.5,202.7z M263.5,227.5c0,2.5-2,4.5-4.5,4.5h-0.5c-0.5,0-1-0.1-1.5-0.3v-20.3c0.5-0.2,1-0.3,1.5-0.3
			h0.5c2.5,0,4.5,2,4.5,4.5V227.5z"/>
		<rect x="150.2" y="271.8" class="st0" width="324.8" height="3.6"/>
		<g>
			<path class="st0" d="M377.6,249.7h9v1.5h-7.2v4.2h6.3v1.5h-6.3v6h-1.8V249.7z"/>
			<path class="st0" d="M388.3,253.3h1.5v2l0,0c0.8-1.5,1.9-2.3,3.6-2.2v1.7c-2.6,0-3.6,1.4-3.6,3.9v4.2h-1.6L388.3,253.3
				L388.3,253.3z"/>
			<path class="st0" d="M403.5,262.8c-0.3,0.2-0.7,0.3-1.2,0.3c-0.8,0-1.4-0.4-1.4-1.5c-0.9,1-2.1,1.5-3.5,1.5
				c-1.8,0-3.3-0.8-3.3-2.7c0-2.2,1.7-2.6,3.4-2.9c1.8-0.3,3.3-0.2,3.3-1.4c0-1.4-1.2-1.6-2.2-1.6c-1.4,0-2.4,0.4-2.5,1.8h-1.6
				c0.1-2.4,2-3.2,4.2-3.2c1.8,0,3.7,0.4,3.7,2.6v4.9c0,0.7,0,1.1,0.5,1.1c0.1,0,0.3,0,0.5-0.1L403.5,262.8L403.5,262.8z
				 M400.9,257.9c-0.6,0.4-1.9,0.5-3,0.6c-1.1,0.2-2,0.6-2,1.7c0,1,0.9,1.4,1.9,1.4c2.1,0,3-1.3,3-2.2L400.9,257.9L400.9,257.9z"/>
			<path class="st0" d="M405,253.3h1.5v1.5l0,0c0.7-1.2,1.8-1.7,3.2-1.7c2.6,0,3.4,1.4,3.4,3.5v6.3h-1.6v-6.5c0-1.2-0.8-1.9-2-1.9
				c-2,0-2.9,1.3-2.9,3v5.4H405V253.3L405,253.3z"/>
			<path class="st0" d="M422.5,256.4c-0.2-1.2-1.1-1.9-2.5-1.9c-2.4,0-3.1,1.8-3.1,3.7c0,1.8,0.8,3.5,2.9,3.5c1.6,0,2.5-0.9,2.7-2.3
				h1.7c-0.4,2.3-1.9,3.7-4.4,3.7c-3,0-4.6-2-4.6-4.9s1.5-5.1,4.7-5.1c2.2,0,4.1,1,4.3,3.3L422.5,256.4L422.5,256.4z"/>
			<path class="st0" d="M434.5,259.8c-0.4,2.1-2,3.2-4.2,3.2c-3.2,0-4.7-2.1-4.8-5c0-2.9,2-5,4.7-5c3.5,0,4.6,3.2,4.5,5.5h-7.4
				c-0.1,1.7,0.9,3.1,3.1,3.1c1.3,0,2.3-0.6,2.6-1.9L434.5,259.8L434.5,259.8z M432.9,257.2c-0.1-1.5-1.2-2.7-2.9-2.7
				c-1.7,0-2.7,1.2-2.8,2.7H432.9z"/>
		</g>
		<g>
			<path d="M150.2,286.5h5.6c2.3,0,3.8,1.2,3.8,3.4c0,2.1-1.5,3.4-3.8,3.4h-4.4v5.1h-1.2L150.2,286.5L150.2,286.5z M151.4,292.3h4.1
				c1.7,0,2.8-0.8,2.8-2.4s-1.2-2.4-2.8-2.4h-4.1V292.3z"/>
			<path d="M169.3,294.1c0,2.5-1.5,4.5-4.3,4.5s-4.3-2.1-4.3-4.5s1.5-4.5,4.3-4.5C167.8,289.5,169.3,291.6,169.3,294.1z
				 M161.8,294.1c0,1.8,1.1,3.7,3.2,3.7s3.2-1.8,3.2-3.7c0-1.8-1.1-3.7-3.2-3.7C162.9,290.4,161.8,292.3,161.8,294.1z"/>
			<path d="M178.4,298.4h-1v-1.5l0,0c-0.6,1.1-1.8,1.8-3.2,1.8c-2.3,0-3.2-1.3-3.2-3.3v-5.6h1.1v5.6c0.1,1.5,0.7,2.4,2.4,2.4
				c1.9,0,2.7-1.7,2.7-3.4v-4.5h1.1L178.4,298.4L178.4,298.4z"/>
			<path d="M180.5,289.8h1v2l0,0c0.6-1.4,1.8-2.2,3.5-2.1v1c-2-0.1-3.4,1.3-3.4,3.1v4.6h-1.1V289.8z"/>
			<path d="M198.4,298.4h-1v-1.5l0,0c-0.6,1.1-1.8,1.8-3.2,1.8c-2.3,0-3.2-1.3-3.2-3.3v-5.6h1.1v5.6c0.1,1.5,0.7,2.4,2.4,2.4
				c1.9,0,2.7-1.7,2.7-3.4v-4.5h1.1L198.4,298.4L198.4,298.4z"/>
			<path d="M200.5,289.8h1.1v1.5l0,0c0.4-1,1.6-1.7,2.9-1.7c2.6,0,3.3,1.3,3.3,3.3v5.5h-1.1V293c0-1.5-0.5-2.6-2.3-2.6
				s-2.8,1.3-2.9,2.9v5h-1.1L200.5,289.8L200.5,289.8z"/>
			<path d="M210.7,294.4c0,1.5,0.9,3.4,3,3.4c1.6,0,2.5-0.9,2.9-2.2h1.1c-0.5,1.9-1.7,3.1-4,3.1c-2.9,0-4.1-2.1-4.1-4.5
				c0-2.3,1.2-4.5,4.1-4.5c2.9,0,4.1,2.4,4,4.8L210.7,294.4L210.7,294.4z M216.6,293.5c-0.1-1.6-1.1-3.1-2.9-3.1
				c-1.8,0-2.8,1.5-3,3.1H216.6z"/>
			<path d="M235.1,298.4h-0.9l-0.2-2.2l0,0c-0.9,1.7-2.6,2.4-4.4,2.4c-4,0-6-2.9-6-6.2s2-6.2,6-6.2c2.7,0,4.8,1.3,5.3,3.9h-1.2
				c-0.2-1.4-1.7-3-4.1-3c-3.3,0-4.8,2.6-4.8,5.2s1.4,5.2,4.8,5.2c2.8,0,4.4-1.8,4.4-4.4h-4.3v-1h5.4V298.4L235.1,298.4z"/>
			<path d="M237.9,294.4c0,1.5,0.9,3.4,3,3.4c1.6,0,2.5-0.9,2.9-2.2h1.1c-0.5,1.9-1.7,3.1-4,3.1c-2.9,0-4.1-2.1-4.1-4.5
				c0-2.3,1.2-4.5,4.1-4.5c2.9,0,4.1,2.4,4,4.8L237.9,294.4L237.9,294.4z M243.8,293.5c-0.1-1.6-1.1-3.1-2.9-3.1
				c-1.8,0-2.8,1.5-3,3.1H243.8z"/>
			<path d="M251.9,292.3c-0.1-1.3-1.1-1.9-2.4-1.9c-1,0-2.2,0.4-2.2,1.5c0,0.9,1.1,1.3,1.9,1.4l1.5,0.3c1.3,0.2,2.6,0.9,2.6,2.4
				c0,1.9-2,2.6-3.7,2.6c-2.1,0-3.6-0.9-3.8-3h1.1c0.1,1.4,1.2,2.1,2.7,2.1c1,0,2.5-0.4,2.5-1.6c0-1-1-1.3-2-1.6l-1.4-0.3
				c-1.5-0.4-2.6-0.8-2.6-2.3c0-1.7,1.8-2.4,3.4-2.4c1.8,0,3.3,0.9,3.3,2.8H251.9L251.9,292.3z"/>
			<path d="M256.7,289.8h1.9v0.9h-1.9v5.8c0,0.7,0.1,1.1,0.9,1.1c0.3,0,0.6,0,1,0v0.9c-0.3,0-0.7,0-1,0c-1.5,0-2-0.5-2-1.9v-5.9H254
				v-0.9h1.6v-2.6h1.1V289.8z"/>
			<path d="M260.2,286.5h1.1v1.7h-1.1V286.5z M260.2,289.8h1.1v8.6h-1.1V289.8z"/>
			<path d="M271.7,294.1c0,2.5-1.5,4.5-4.3,4.5s-4.3-2.1-4.3-4.5s1.5-4.5,4.3-4.5C270.1,289.5,271.7,291.6,271.7,294.1z
				 M264.1,294.1c0,1.8,1.1,3.7,3.2,3.7s3.2-1.8,3.2-3.7c0-1.8-1.1-3.7-3.2-3.7S264.1,292.3,264.1,294.1z"/>
			<path d="M273.3,289.8h1.1v1.5l0,0c0.4-1,1.6-1.7,2.9-1.7c2.6,0,3.3,1.3,3.3,3.3v5.5h-1.1V293c0-1.5-0.5-2.6-2.3-2.6
				s-2.8,1.3-2.9,2.9v5h-1.1v-8.5H273.3z"/>
			<path d="M297.2,290.1c-0.4-1.8-2-2.9-3.9-2.9c-3.3,0-4.8,2.6-4.8,5.2s1.4,5.2,4.8,5.2c2.3,0,3.8-1.7,4.1-3.8h1.2
				c-0.3,2.9-2.3,4.8-5.3,4.8c-4,0-6-2.9-6-6.2s2-6.2,6-6.2c2.4,0,4.8,1.3,5.1,3.8L297.2,290.1L297.2,290.1z"/>
			<path d="M308.4,294.1c0,2.5-1.5,4.5-4.3,4.5s-4.3-2.1-4.3-4.5s1.5-4.5,4.3-4.5S308.4,291.6,308.4,294.1z M300.9,294.1
				c0,1.8,1.1,3.7,3.2,3.7s3.2-1.8,3.2-3.7c0-1.8-1.1-3.7-3.2-3.7S300.9,292.3,300.9,294.1z"/>
			<path d="M310,286.5h1.1v4.8l0,0c0.4-1,1.6-1.7,2.9-1.7c2.6,0,3.3,1.3,3.3,3.3v5.5h-1.1V293c0-1.5-0.5-2.6-2.3-2.6
				s-2.8,1.3-2.9,2.9v5h-1V286.5L310,286.5z"/>
			<path d="M320.2,294.4c0,1.5,0.9,3.4,3,3.4c1.6,0,2.5-0.9,2.9-2.2h1.1c-0.5,1.9-1.7,3.1-4,3.1c-2.9,0-4.1-2.1-4.1-4.5
				c0-2.3,1.2-4.5,4.1-4.5s4.1,2.4,4,4.8L320.2,294.4L320.2,294.4z M326.1,293.5c-0.1-1.6-1.1-3.1-2.9-3.1s-2.8,1.5-3,3.1H326.1z
				 M322.9,288.6H322l1.9-2.3h1.4L322.9,288.6z"/>
			<path d="M328.8,289.8h1v2l0,0c0.6-1.4,1.8-2.2,3.5-2.1v1c-2-0.1-3.4,1.3-3.4,3.1v4.6h-1.1V289.8L328.8,289.8z"/>
			<path d="M335,294.4c0,1.5,0.9,3.4,3,3.4c1.6,0,2.5-0.9,2.9-2.2h1.1c-0.5,1.9-1.7,3.1-4,3.1c-2.9,0-4.1-2.1-4.1-4.5
				c0-2.3,1.2-4.5,4.1-4.5s4.1,2.4,4,4.8L335,294.4L335,294.4z M340.9,293.5c-0.1-1.6-1.1-3.1-2.9-3.1s-2.8,1.5-3,3.1H340.9z"/>
			<path d="M343.5,289.8h1.1v1.5l0,0c0.4-1,1.6-1.7,2.9-1.7c2.6,0,3.3,1.3,3.3,3.3v5.5h-1.1V293c0-1.5-0.5-2.6-2.3-2.6
				s-2.8,1.3-2.9,2.9v5h-1.1L343.5,289.8L343.5,289.8z"/>
			<path d="M354.8,289.8h1.9v0.9h-1.9v5.8c0,0.7,0.1,1.1,0.9,1.1c0.3,0,0.6,0,1,0v0.9c-0.3,0-0.7,0-1,0c-1.5,0-2-0.5-2-1.9v-5.9
				h-1.6v-0.9h1.6v-2.6h1.1V289.8z"/>
			<path d="M358.9,294.4c0,1.5,0.9,3.4,3,3.4c1.6,0,2.5-0.9,2.9-2.2h1.1c-0.5,1.9-1.7,3.1-4,3.1c-2.9,0-4.1-2.1-4.1-4.5
				c0-2.3,1.2-4.5,4.1-4.5s4.1,2.4,4,4.8L358.9,294.4L358.9,294.4z M364.8,293.5c-0.1-1.6-1.1-3.1-2.9-3.1s-2.8,1.5-3,3.1H364.8z"/>
			<path d="M380.4,298.4h-1v-1.6l0,0c-0.5,1.1-1.9,1.9-3.3,1.9c-2.8,0-4.1-2.1-4.1-4.5s1.3-4.5,4.1-4.5c1.4,0,2.7,0.6,3.2,1.9l0,0
				v-4.9h1.1L380.4,298.4L380.4,298.4z M376.1,297.8c2.4,0,3.2-1.9,3.2-3.7c0-1.8-0.8-3.7-3.2-3.7c-2.1,0-3,1.9-3,3.7
				S374,297.8,376.1,297.8z"/>
			<path d="M383.2,294.4c0,1.5,0.9,3.4,3,3.4c1.6,0,2.5-0.9,2.9-2.2h1.1c-0.5,1.9-1.7,3.1-4,3.1c-2.9,0-4.1-2.1-4.1-4.5
				c0-2.3,1.2-4.5,4.1-4.5s4.1,2.4,4,4.8L383.2,294.4L383.2,294.4z M389.1,293.5c-0.1-1.6-1.1-3.1-2.9-3.1s-2.8,1.5-3,3.1H389.1z"/>
			<path d="M396.7,286.5h1.1v11.9h-1.1V286.5z"/>
			<path d="M402.1,286.5v1.8c0,1-0.5,2-1.6,2.3v-0.7c0.6-0.2,0.9-1,0.8-1.6h-0.7v-1.8L402.1,286.5L402.1,286.5z"/>
			<path d="M405.1,286.5h8.7v1h-7.5v4.3h7v1h-7v4.7h7.6v1h-8.8L405.1,286.5L405.1,286.5z"/>
			<path d="M415.2,292.4c0.1-2,1.6-2.9,3.7-2.9c1.6,0,3.4,0.5,3.4,2.8v4.6c0,0.4,0.2,0.6,0.7,0.6c0.1,0,0.3,0,0.4-0.1v0.9
				c-0.2,0.1-0.4,0.1-0.7,0.1c-1.1,0-1.3-0.6-1.3-1.5l0,0c-0.8,1.1-1.6,1.7-3.3,1.7c-1.7,0-3.1-0.8-3.1-2.5c0-2.4,2.5-2.5,4.9-2.8
				c0.9-0.1,1.4-0.2,1.4-1.2c0-1.4-1.1-1.8-2.4-1.8c-1.4,0-2.4,0.6-2.4,2L415.2,292.4L415.2,292.4z M421.2,293.7L421.2,293.7
				c-0.2,0.2-0.7,0.3-1,0.4c-1.9,0.3-4.3,0.3-4.3,2c0,1,1,1.7,2,1.7c1.7,0,3.2-1,3.2-2.7L421.2,293.7L421.2,293.7z"/>
			<path d="M431.9,298.4h-1v-1.5l0,0c-0.6,1.1-1.8,1.8-3.2,1.8c-2.3,0-3.2-1.3-3.2-3.3v-5.6h1.1v5.6c0.1,1.5,0.7,2.4,2.4,2.4
				c1.9,0,2.7-1.7,2.7-3.4v-4.5h1.1L431.9,298.4L431.9,298.4z"/>
		</g>
		<g>
			<path class="st0" d="M70.4,223.6c-2.5,0.3-3.8,5.3-3,11.4c0.8,5.8,3.2,10.3,5.6,10.3c0.1,0,0.2,0,0.3,0c2.5-0.3,3.8-5.3,3-11.4
				C75.5,227.7,72.9,223.2,70.4,223.6z M73.2,244.6c-2.1,0.3-4.4-4.2-5.1-9.7v-0.1c0.7,1.3,1.9,2.1,3.1,2c1.7-0.2,2.9-2.1,2.6-4.3
				s-1.9-3.7-3.6-3.5c-1.1,0.1-1.9,0.9-2.3,2c0.1-3.8,1.1-6.6,2.7-6.8c0.1,0,0.1,0,0.2,0c2,0,4.3,4.4,5,9.7
				C76.4,239.4,75.3,244.3,73.2,244.6z"/>
			<path class="st0" d="M86.3,231.8c-0.8-6.1-3.3-10.6-5.8-10.2c-2.5,0.3-3.8,5.3-3,11.4c0.8,5.8,3.2,10.3,5.6,10.3
				c0.1,0,0.2,0,0.3,0C85.8,242.9,87.1,237.9,86.3,231.8z M83.2,242.6c-2.1,0.3-4.4-4.2-5.1-9.7s0.4-10.4,2.4-10.7
				c0.1,0,0.1,0,0.2,0c1.7,0,3.5,3,4.5,7.1c-0.7-1.1-1.8-1.7-2.9-1.6c-1.7,0.2-2.9,2.1-2.6,4.3c0.3,2.1,1.9,3.7,3.6,3.5
				c1.2-0.2,2.2-1.2,2.5-2.6C86.2,237.9,85.1,242.3,83.2,242.6z"/>
		</g>
		<path class="st0" d="M71.9,251.5c0,0,0.1-0.4,0.4-1.1c0.3-0.7,0.9-1.7,1.7-2.8c0.4-0.5,0.9-1.1,1.5-1.6s1.3-1,2-1.4
			c0.4-0.2,0.8-0.4,1.2-0.6c0.4-0.1,0.9-0.3,1.3-0.4c0.4-0.1,0.9-0.2,1.4-0.3s0.9-0.1,1.4-0.1c0.6,0,0.9,0,1.4,0.1
			c0.4,0,0.9,0.2,1.4,0.3s0.9,0.4,1.3,0.6c0.4,0.3,0.8,0.6,1.1,1c0.3,0.4,0.5,0.8,0.7,1.2c0.1,0.4,0.2,0.9,0.2,1.3
			c0,0.8-0.2,1.6-0.5,2.2c-0.5,1.3-1.4,2.1-2,2.6c-0.3,0.2-0.6,0.4-0.8,0.4c-0.2,0.1-0.3,0.1-0.3,0.1s0.1-0.1,0.3-0.2
			c0.2-0.1,0.4-0.3,0.7-0.5c0.5-0.5,1.1-1.4,1.5-2.6c0.1-0.6,0.3-1.3,0.2-2c0-0.7-0.3-1.4-0.7-1.9c-0.2-0.3-0.5-0.5-0.8-0.7
			c-0.3-0.1-0.7-0.3-1.1-0.4c-0.4-0.1-0.7-0.2-1.2-0.2c-0.4,0-0.9-0.1-1.3,0c-0.4,0-0.8,0-1.3,0.1c-0.4,0.1-0.8,0.1-1.2,0.2
			c-0.4,0.1-0.8,0.2-1.2,0.3c-0.4,0.2-0.7,0.3-1.1,0.5c-0.7,0.4-1.4,0.7-2,1.2c-0.6,0.4-1.1,0.9-1.6,1.3c-0.9,0.9-1.6,1.8-2,2.4
			C72.1,251.2,71.9,251.5,71.9,251.5z"/>
		<path class="st0" d="M82.7,267l1.8,1.5l7.5-7.7c-4.2,4.3-15,5-15,5L82.7,267z"/>
		<path class="st1" d="M106.8,237.4c0,0,1.6-0.5,3.5,0.4c0,0-0.9,3.1-3.5,5.7s-4.1,5.2-6,2.7s0.2-3.1,3.3-4.9
			S106.8,237.4,106.8,237.4z"/>
		<path class="st1" d="M53.8,260.5c0,0-1.7,2.2-4,2.9c0,0-9.2-13.4-5.4-17.6s16.8,0.5,14.4,5.5s-5.7,1-7.5,0s-2.3-0.7-1.2,1.9
			C51.3,255.9,53.8,260.5,53.8,260.5z"/>
		<path class="st1" d="M86.2,293.6c0,0-1.5,3.6,0.9,3.6s5,0,8.5,0.8s11,5.4,12.6-2.2c1.5-7.6-12.6-5.1-14.6-4
			C91.6,293,88.5,294.1,86.2,293.6z"/>
		<path class="st1" d="M82.7,292.7c0,0,2.6,4.1-1.5,4.6c-4.2,0.5-5.7,4.1-12.6,3.9c-6.9-0.3-8.4-3-8.4-4.6s0.7-4.9,5.3-4.9
			s7.8,2.1,9.7,0.8C75.2,292.5,80.8,293.7,82.7,292.7z"/>
		<path class="st1" d="M91.2,287.2c0,0,0.3,5.3-2,5.6c-2.3,0.3-2.9,0.2-4-0.2c-1.1-0.3-2.1-4-0.7-4.2c1.4-0.1,1.9,0.1,3.1-0.2
			C88.9,288,89.8,286.7,91.2,287.2z"/>
		<path class="st1" d="M84,288.1c0.1-0.2,0.3-0.3,0.5-0.3c1.4-0.1,1.9,0.1,3.1-0.2c1.1-0.3,1.9-1.3,3.1-1.2l1.3-6.6
			c-2.3,1.1-5,1.9-8,2.3C84,284.2,84.1,286.7,84,288.1z"/>
		<path class="st1" d="M79.8,292.4c0,0-1,0.1-2.6-0.3s-2-0.7-2.1-2.1s0.6-1.2,2.4-0.9s3.6,0.3,4.6,0.1c1-0.3,1.3-0.2,1.5,1
			C83.7,291.3,83.8,292.2,79.8,292.4z"/>
		<path class="st1" d="M77.3,288.6c1.8,0.3,3.6,0.3,4.6,0.1c0.1,0,0.1,0,0.2,0c-0.1-1.5,0-4.9,0.1-6.5c-0.8,0.1-1.6,0.1-2.4,0.1
			c-1.7,0-3.3-0.1-4.8-0.3l1.5,6.5C76.6,288.4,76.9,288.5,77.3,288.6z"/>
		<path class="st1" d="M107,229.3c0,0-1.7-3.9-4.6-2.8c-2.8,1.1-0.4,2.8,1.9,4.1c2.2,1.3,2.6,2.4,2.2,3.1c-0.4,0.6-1.3,0.4-1.4,1.5
			s0.1,1.9,1.3,1.6s3.5-0.2,4.7,0.5s3.1-0.9,2.1-1.8c-1-1-0.7-2.7,0.3-3.5s5.3-1.9,4.6-3.3s-2.6-1.9-4.8-0.1s3.5-5.2,0.7-5.9
			c-2.8-0.6-1.6,5-3.5,4.8s0.9-5.5-1.9-5.2c-2.8,0.2-0.8,5.9-0.8,6.8S107,229.3,107,229.3z"/>
		<path class="st1" d="M53.7,262.5c0,0-1.6,1.6-2.8,2.1s-2.7,1.2-1.4,2.7s2-0.2,2.3,1.5s-1.3,7.1,1.3,6.7s-0.1-7,1-7.1
			s2.4,8.5,5,6.5s-2.7-6.5-1.6-7.1c1.2-0.6,3.1,3.9,4.9,1.5c1.7-2.3-3.8-2.6-3.6-4.7s4.3-1.9,2.9-4.6c-1.4-2.6-2.2-1.2-3.1,0.2
			c-0.9,1.4-2.3,2.7-2.8,2.1S54.9,260.9,53.7,262.5z"/>
	</g>
</g>
</svg>
