<?xml version="1.0" encoding="utf-8"?>
<!-- Generator: Adobe Illustrator 19.1.0, SVG Export Plug-In . SVG Version: 6.00 Build 0)  -->
<svg version="1.1" id="Calque_1" xmlns="http://www.w3.org/2000/svg" xmlns:xlink="http://www.w3.org/1999/xlink" x="0px" y="0px"
	 viewBox="-345 170.9 500 500" style="enable-background:new -345 170.9 500 500;" xml:space="preserve">
<style type="text/css">
	.st0{fill:#0D0909;}
	.st1{fill:#FF6D00;}
</style>
<g id="Nouveau_symbole">
</g>
<rect x="-27.5" y="586.2" class="st0" width="14.8" height="60.5"/>
<polygon class="st0" points="9.8,586.2 -5,586.2 -5,646.7 -1.2,646.7 -1.2,646.8 33.9,646.8 33.9,634.1 9.8,634.1 "/>
<polygon class="st0" points="-69.2,598.1 -57.6,598.1 -57.6,646.7 -42.8,646.7 -42.8,598.1 -31,598.1 -31,586 -69.2,586 "/>
<polygon class="st0" points="-263.2,646.7 -224.7,646.8 -224.7,632.4 -249.8,632.4 -249.8,622.5 -224.7,622.5 -224.7,609.6 
	-249.8,609.6 -249.8,598.1 -224.7,598.1 -224.7,584.3 -263.2,584.5 "/>
<polygon class="st0" points="77.2,598.1 77.2,584.3 38.8,584.5 38.8,646.7 77.2,646.8 77.2,632.4 52.2,632.4 52.2,622.5 77.2,622.5 
	77.2,609.6 52.2,609.6 52.2,598.1 "/>
<path class="st0" d="M-205.9,615.9c0-16.7,12.7-18,16.6-18h12.5v-13.7h-12.5c-14.6,0-30.2,9.9-30.2,31.7c0,21.8,15.7,31.7,30.2,31.7
	h12.5v-13.7h-12.5C-193.3,633.9-205.9,632.6-205.9,615.9z"/>
<path class="st0" d="M-145.5,583.2c-18.1,0-32.9,14.8-32.9,32.9c0,18.1,14.8,32.9,32.9,32.9c18.1,0,32.9-14.8,32.9-32.9
	C-112.6,598-127.3,583.2-145.5,583.2z M-145.5,635.1c-10.5,0-19-8.5-19-19c0-10.5,8.5-19,19-19c10.5,0,19,8.5,19,19
	C-126.5,626.6-135,635.1-145.5,635.1z"/>
<path class="st0" d="M-90.6,608.5c-3,0-4,0-4-5c0-2.1,0-5,7.7-5h12.3v-13.9h-12.3c-13.6,0-21.6,7.1-21.6,18.9
	c0,17.1,12.6,18.9,17.9,18.9c1.5,0,4.1,0.6,4.1,5c0,2.1,0,5-7.7,5h-16.2v13.9h16.2c13.6,0,21.6-7.1,21.6-18.9
	C-72.6,615-81.7,608.5-90.6,608.5z"/>
<rect x="-194.7" y="351.3" class="st1" width="95.6" height="35.5"/>
<rect x="-194.7" y="410.5" class="st1" width="95.6" height="35.5"/>
<rect x="-194.7" y="291.2" class="st1" width="95.6" height="35.5"/>
<path class="st1" d="M-40,351.6c-7.5,0-10,0-10-12.4c0-5.2,0-12.4,19.2-12.4h30.5v-34.6h-30.5c-33.7,0-53.7,17.6-53.7,47
	c0,42.4,31.2,47,44.6,47c3.8,0,10.1,1.6,10.1,12.4c0,5.2,0,12.4-19.2,12.4h-40.3v34.6H-49c33.7,0,53.7-17.6,53.7-47
	C4.7,367.7-17.8,351.6-40,351.6z"/>
<path class="st1" d="M-93.6,195.6c-95.1,0-172.1,77.1-172.1,172.1c0,95.1,77.1,172.1,172.1,172.1c95.1,0,172.1-77.1,172.1-172.1
	C78.6,272.7,1.5,195.6-93.6,195.6z M-93.6,507.1c-76.8,0-139.3-62.5-139.3-139.3c0-76.8,62.5-139.3,139.3-139.3
	c76.8,0,139.3,62.5,139.3,139.3C45.8,444.6-16.7,507.1-93.6,507.1z"/>
</svg>
