<?xml version="1.0" encoding="utf-8"?>
<!-- Generator: Adobe Illustrator 21.0.2, SVG Export Plug-In . SVG Version: 6.00 Build 0)  -->
<svg version="1.1" id="Calque_2" xmlns="http://www.w3.org/2000/svg" xmlns:xlink="http://www.w3.org/1999/xlink" x="0px" y="0px"
	 viewBox="0 0 500 132" style="enable-background:new 0 0 500 132;" xml:space="preserve">
<style type="text/css">
	.st0{fill:#E2001A;}
	.st1{fill:#004A99;}
	.st2{fill:#FFFFFF;}
</style>
<path class="st0" d="M447.3,90.7c0,0,0-25.8,0-43.2s-20.6-19.6-20.6-19.6H423h-7.5H91.8v82H423v-0.1
	C448.7,108.9,447.3,90.7,447.3,90.7z"/>
<path class="st1" d="M474.1,29.5c-0.6-1.4-1.4-2.7-2.5-3.8c-1.1-1.2-2.4-2.1-3.9-2.7s-3-0.9-4.7-0.9c-2.1,0-4.1,0.5-6,1.5
	c-1.8,1.1-3.2,2.5-4.3,4.3c-0.6,1-1,2-1.3,3S451,33,451,34.1c0,1.6,0.3,3.1,0.9,4.5c0.6,1.4,1.5,2.7,2.6,3.8
	c1.1,1.2,2.4,2.1,3.9,2.7c1.5,0.6,3,0.9,4.6,0.9c1.6,0,3.1-0.3,4.6-0.9c1.5-0.6,2.8-1.5,3.9-2.6c1.1-1.1,2-2.3,2.6-3.8
	c0.6-1.4,0.9-3,0.9-4.6C475,32.5,474.7,30.9,474.1,29.5z M472.1,37.9c-0.5,1.2-1.3,2.2-2.2,3.1c-1,1-2.1,1.7-3.3,2.2
	c-1.3,0.5-2.5,0.8-3.8,0.8s-2.6-0.3-3.8-0.8c-1.3-0.5-2.4-1.2-3.3-2.2c-0.9-1-1.6-2-2.1-3.2c-0.5-1.2-0.7-2.5-0.7-3.8
	s0.3-2.6,0.8-3.8c0.6-1.2,1.3-2.3,2.3-3.3c1-0.9,2-1.6,3.2-2.1s2.4-0.7,3.8-0.7c1.4,0,2.7,0.3,3.8,0.8c1.2,0.5,2.3,1.2,3.3,2.2
	c0.9,0.9,1.6,2,2.1,3.2c0.5,1.2,0.7,2.5,0.7,3.9C472.9,35.5,472.6,36.7,472.1,37.9z"/>
<path class="st1" d="M468.2,33.4c0.5-0.7,0.8-1.4,0.8-2.3c0-1.3-0.5-2.3-1.4-2.9c-1-0.7-2.4-1-4.3-1h-5.2l0.1,13.4h3.2v-5.4h1.6
	l2.5,5.4h3.6l-3-5.9C467,34.4,467.7,34,468.2,33.4z M465,32.5c-0.5,0.4-1.1,0.5-2.1,0.5h-1.6v-3.8l1.5-0.1c1,0,1.7,0.2,2.2,0.5
	c0.5,0.3,0.7,0.8,0.7,1.5C465.7,31.7,465.4,32.2,465,32.5z"/>
<polygon class="st2" points="310.8,50.1 310.8,39.5 293.1,39.5 293.1,55.6 "/>
<polygon class="st2" points="293.1,58.4 293.1,93.2 310.8,93.2 310.8,52.9 "/>
<path class="st2" d="M348.6,52.4c-9,0-13.6,1.7-16,3.1v-2.7h-18.5v40.3h18.5V71c1.8-2.3,4.6-4.7,8.8-4.7c4.1,0,6.2,2.2,7.2,4.3v22.6
	H368V66C368,66,364.7,52.4,348.6,52.4z"/>
<path class="st2" d="M146.9,80.6c0,0-2.3,2.2-8.3,2.2s-9-2.6-9-5.1h38.1c0.5-1.6,0.8-3.3,0.8-5c0-11.9-12.2-21.7-27.1-21.7h-7.1
	c-14.9,0-27.1,9.8-27.1,21.7s12.2,21.7,27.1,21.7h7.1c11.4,0,21.2-5.8,25.2-13.8L146.9,80.6L146.9,80.6z M138.4,62.6
	c6.8,0,8.8,5.1,8.8,5.1h-17.6C129.6,67.7,131.5,62.6,138.4,62.6z"/>
<path class="st2" d="M210.1,39.5v16.2c-4.1-2.4-9.1-3.8-14.4-3.8c-13.9,0-25.4,9.6-25.4,21.3c0,11.7,11.4,21.3,25.4,21.3
	c5.3,0,10.3-1.4,14.4-3.8v2.8h18.8V39.6L210.1,39.5L210.1,39.5z M200.8,80.9c-5.5,0-9.9-3.5-9.9-7.8s4.4-7.8,9.9-7.8
	s9.9,3.5,9.9,7.8C210.7,77.4,206.3,80.9,200.8,80.9z"/>
<path class="st2" d="M271.4,39.5v16.2c-4.1-2.4-9.1-3.8-14.4-3.8c-13.9,0-25.4,9.6-25.4,21.3c0,11.7,11.4,21.3,25.4,21.3
	c5.3,0,10.3-1.4,14.4-3.8v2.8h18.8V39.6L271.4,39.5L271.4,39.5z M260.8,80.9c-5.5,0-9.9-3.5-9.9-7.8s4.4-7.8,9.9-7.8
	s9.9,3.5,9.9,7.8C270.7,77.4,266.3,80.9,260.8,80.9z"/>
<path class="st2" d="M409.2,52.5v2.6c-4-2.2-8.9-3.5-14.2-3.5c-13.7,0-24.9,8.9-24.9,19.7S381.3,91,395,91c5.3,0,10.1-1.3,14.2-3.5
	v2.7c-1.5,2-5.1,4.2-13.4,4.2c-15.5,0-20.6-6.6-20.6-6.6l-4.2,9.4c0,0,0.5,6.6,28.7,6.6s27.9-15.2,27.9-15.2v-8.2v-2.9V52.6
	L409.2,52.5L409.2,52.5z M401.1,79.1c-5.5,0-9.9-3.1-9.9-7s4.4-7,9.9-7s9.9,3.1,9.9,7C410.9,76,406.5,79.1,401.1,79.1z"/>
<rect x="25" y="27.9" class="st2" width="57.9" height="82"/>
<polygon class="st1" points="82.9,45.4 25,63.1 25,27.9 82.9,27.9 "/>
<polygon class="st0" points="82.9,109.9 25,109.9 25,69.7 82.9,52 "/>
<polygon class="st1" points="82.9,109.9 25,109.9 25,72.8 82.9,55.1 "/>
<polygon class="st0" points="82.9,42.3 25,60 25,27.9 82.9,27.9 "/>
</svg>
