<?xml version="1.0" encoding="utf-8"?>
<!-- Generator: Adobe Illustrator 19.1.0, SVG Export Plug-In . SVG Version: 6.00 Build 0)  -->
<svg version="1.1" id="Calque_2" xmlns="http://www.w3.org/2000/svg" xmlns:xlink="http://www.w3.org/1999/xlink" x="0px" y="0px"
	 viewBox="0 0 500 500" style="enable-background:new 0 0 500 500;" xml:space="preserve">
<style type="text/css">
	.st0{fill:#E2001A;}
	.st1{fill:#8D8E90;}
</style>
<g>
	<g>
		<path class="st0" d="M194.2,171c0-2.1,0.3-4,0.8-6c-5.3,1.4-9.3,6.3-9.3,12.2v24.9l8.5-2.7V171z"/>
		<polygon class="st0" points="185.7,214.7 185.7,214.7 185.7,236.8 194.2,233 194.2,207.2 185.7,209.9 		"/>
		<path class="st0" d="M126,242.8l6.6-3c1-0.5,1.9-1.8,1.9-2.9v-11.1c0-4.7-5-4-6.1-3.5c-1,0.5-4.3,2.1-4.3,6.6v12.7
			C124.1,242.8,124.9,243.3,126,242.8z"/>
		<path class="st1" d="M194.2,276.4v-33.3l-8.5,3.9v35.7c0,2.1-0.3,4-0.8,6C190.3,287.1,194.2,282.2,194.2,276.4z"/>
		<path class="st1" d="M374.6,221.5c0,12.5-10.2,22.7-22.7,22.7h-2c-2.3,0-4.5-0.4-6.6-1.1c-4,6.4-11.1,10.7-19.2,10.7h-2
			c-3.5,0-6.9-0.9-9.9-2.3c-0.4-0.2-2-0.8-1.6-2.5c0.4-1.7,1.2-2,1.2-2h3.3c6.8,0,12.4-5.6,12.4-12.4v-31.9l-24.9,11.3
			c-0.1,0.1-0.3,0.2-0.4,0.2l-16.6,7.8c-6.2,2.9-17.6-1.6-17.6-8.4v-4.1l-54.3,24.6v38.5c0,12.7-10.2,23.1-22.7,23.1h-2
			c-2.3,0-4.5-0.4-6.6-1.1c-4,6.5-11.1,10.9-19.2,10.9h-2c-3.5,0-6.9-0.9-9.9-2.3c-0.4-0.2-2-0.8-1.6-2.5s1.2-2.1,1.2-2.1h3.3
			c6.8,0,12.4-5.7,12.4-12.6v-30.5l-27.9,12.6v-0.1l-13.8,6.6c-6.2,2.9-17.6-1.7-17.6-8.6v-4l-27.8,12.7v89.6h342.2V160.1
			l-46.9,21.3L374.6,221.5L374.6,221.5z"/>
		<path class="st0" d="M286.8,190.7l6.6-3c1-0.5,1.9-1.8,1.9-2.9v-10.9c0-4.6-5-3.9-6.1-3.4c-1,0.5-4.3,2.1-4.3,6.5v12.5
			C284.9,190.6,285.7,191.2,286.8,190.7z"/>
		<path class="st0" d="M79.3,25v239.8l27.8-12.7v-15.8c0-3.7,6-14.5,15.2-19c21.2-12.1,30.2-1.4,30.2,2.5v21.3l-22.8,10.8
			c-2.6,1.2-4.7,1.5-4.7,4.4c0,5.8,3.2,6.8,5.8,5.6l21.5-10.1c0,0.1,0,0.2-0.1,0.3l14.2-6.4V216l-8.6,2.7c-0.6,0.2-1.2-0.2-1.2-0.9
			v-5.3c0-0.7,0.5-1.4,1.2-1.6l8.6-2.7v-27.5c0-12.7,10.2-23.1,22.7-23.1h2c2.3,0,4.5,0.4,6.6,1.1c4-6.5,11.1-10.9,19.2-10.9h2
			c3.5,0,6.9,0.9,9.9,2.3c0.4,0.2,2,0.8,1.6,2.5s-1.2,2.1-1.2,2.1H226c-6.8,0-12.4,5.7-12.4,12.6v25.9l17.6-5.6
			c0.6-0.2,1.2,0.2,1.2,0.9v5.3c0,0.7-0.5,1.4-1.2,1.6l-17.6,5.6v3.8h0v19.3l54.3-24.6v-15.2c0-3.6,6-14.3,15.2-18.6
			c21.2-11.9,30.2-1.4,30.2,2.5V189l-22.8,10.6c-2.6,1.2-4.7,1.5-4.7,4.3c0,5.7,3.2,6.7,5.8,5.5l21.5-10c0,0,0,0.1,0,0.1l14.4-6.6
			v-27.4l-8.6,2.7c-0.6,0.2-1.2-0.2-1.2-0.9v-5.2c0-0.7,0.5-1.4,1.2-1.6l8.6-2.7v-27.1c0-12.5,10.2-22.7,22.7-22.7h2
			c2.3,0,4.5,0.4,6.6,1.1c4-6.4,11.1-10.7,19.2-10.7h2c3.5,0,6.9,0.9,9.9,2.3c0.4,0.2,2,0.8,1.6,2.5c-0.4,1.7-1.2,2-1.2,2H387
			c-6.8,0-12.4,5.6-12.4,12.4v25.5l17.6-5.5c0.6-0.2,1.2,0.2,1.2,0.9v5.2c0,0.7-0.5,1.4-1.2,1.6l-17.6,5.5v3.7h0v16.8l46.9-21.4V25
			H79.3z"/>
		<polygon class="st0" points="346.8,164.3 346.8,164.3 346.8,184.2 355.3,180.3 355.3,157 346.8,159.6 		"/>
		<path class="st1" d="M355.3,225.1v-34.9l-8.5,3.9v37.1c0,2-0.3,4-0.8,5.9C351.3,235.7,355.3,230.8,355.3,225.1z"/>
		<path class="st0" d="M355.3,121.3c0-2,0.3-4,0.8-5.9c-5.3,1.4-9.3,6.2-9.3,12v24.6l8.5-2.7V121.3z"/>
	</g>
	<g>
		<path d="M437.3,413h-2.9v-10.8c0-1.5-1.2-2.7-2.7-2.7H68.2c-3.1,0-5.6-2.5-5.6-5.6v-10.1h2.9v10.1c0,1.5,1.2,2.7,2.7,2.7h363.5
			c3.1,0,5.6,2.5,5.6,5.6L437.3,413L437.3,413z"/>
	</g>
	<g>
		<path d="M200.8,429.8l-11.9,29.3c-0.2-1.7-0.7-3.2-1.5-4.6c-1.1-1.9-2.7-3.4-4.8-4.6s-5.5-2.3-10.2-3.4c-4.5-1-7.3-1.9-8.6-2.7
			c-1.2-0.8-1.9-1.8-1.9-3.1c0-1.2,0.7-2.3,2.1-3.1c1.4-0.8,3.3-1.2,5.8-1.2s4.5,0.5,5.8,1.4c1.4,1,2.3,2.6,2.7,5l9.4-0.4
			c-0.2-4.3-1.8-7.7-4.9-10c-3.1-2.3-7.3-3.5-12.8-3.5c-3.6,0-6.7,0.5-9.2,1.5c-2.5,1-4.4,2.5-5.8,4.4c-0.9,1.2-1.4,2.5-1.8,3.8
			c-0.7-2.5-2.2-4.6-4.3-6.2c-3.1-2.3-7.3-3.5-12.8-3.5c-3.6,0-6.7,0.5-9.2,1.5c-2.5,1-4.4,2.5-5.8,4.4c-1.4,1.9-2.1,4.1-2.1,6.5
			c0,2.1,0.5,4,1.6,5.8c1.1,1.8,2.6,3.3,4.4,4.4s4.8,2.1,8.8,3.1c4.5,1.1,7.3,1.8,8.4,2.3c1.2,0.5,2,1,2.6,1.7
			c0.6,0.7,0.9,1.6,0.9,2.6c0,1.7-0.8,3.2-2.4,4.3c-1.6,1.2-3.9,1.7-6.7,1.7c-5.7,0-9.1-2.8-10.1-8.5l-8.3,0.8l-12.5-29.9h-9.9
			l-18.1,44.5h10l3.8-10.1h18.6l4.1,10.1h10.2l-1.3-3.1c3.2,2.6,7.6,3.9,13.4,3.9c6.4,0,11.2-1.3,14.2-3.9c1.3-1.1,2.3-2.4,3-3.7
			c3,5.1,8.5,7.6,16.6,7.6c6,0,10.5-1.1,13.5-3.4l-1.1,2.6h10l3.8-10.1h18.6l4.1,10.1h10.2l-18.6-44.5L200.8,429.8L200.8,429.8z
			 M94.4,456.6l6.3-16.5l6.4,16.5H94.4z M177.3,465.7c-1.6,1.2-3.9,1.7-6.7,1.7c-5.7,0-9.1-2.8-10.1-8.5l-5.3,0.5
			c-0.2-1.8-0.7-3.5-1.6-4.9c-1.1-1.9-2.7-3.4-4.8-4.6s-5.5-2.3-10.2-3.4c-4.5-1-7.3-1.9-8.6-2.7s-1.9-1.8-1.9-3.1
			c0-1.2,0.7-2.3,2.1-3.1c1.4-0.8,3.3-1.2,5.8-1.2c2.5,0,4.5,0.5,5.8,1.4c1.4,1,2.3,2.6,2.7,5l8.5-0.4c0.2,1.7,0.7,3.3,1.6,4.8
			c1.1,1.8,2.6,3.3,4.4,4.4s4.8,2.1,8.8,3.1c4.5,1.1,7.3,1.8,8.4,2.3c1.2,0.5,2,1,2.6,1.7c0.6,0.7,0.9,1.6,0.9,2.6
			C179.7,463.1,178.9,464.5,177.3,465.7z M199.4,456.6l6.3-16.5l6.4,16.5H199.4z"/>
		<path d="M363.8,429c-4.5,0-8.3,0.8-11.4,2.5c-3.1,1.7-5.7,4.2-7.6,7.7c-1.9,3.4-2.9,7.8-2.9,13.1c0,5.8,1.4,10.6,4.1,14.4h-22.2
			v-36.6h-9.1V456c-0.3-0.5-0.6-1-1-1.5c-1.5-1.9-3.6-3.2-6.3-3.9c1.9-0.8,3.4-2.1,4.6-3.8c1.2-1.7,1.8-3.7,1.8-5.8
			c0-2.3-0.7-4.4-2.1-6.2c-1.4-1.8-3.1-3.1-5.1-3.9c-2-0.7-5.5-1.1-10.4-1.1h-18.1v33.5l-13.6-33.5h-9.7l-17.6,44.5h9.7l3.7-10.1
			h18.1l4,10.1h5.4h4.5h10.9c6.7,0,10.9-0.2,12.7-0.5c2.6-0.5,4.9-1.9,6.8-4.1c0.7-0.8,1.2-1.6,1.6-2.5v7.1h31.8v-6.9
			c0.6,0.8,1.2,1.5,1.9,2.2c3.8,3.7,8.9,5.5,15.5,5.5c6.5,0,11.6-1.9,15.4-5.5c4.3-4.2,6.5-10,6.5-17.4c0-7.4-2-13-6.1-17
			C375.5,431,370.3,429,363.8,429z M253.4,456.6l6.1-16.5l6.2,16.5H253.4z M287.2,437.2h5.3c4.8,0,7.7,0.1,8.7,0.3
			c1,0.2,1.9,0.7,2.6,1.5c0.7,0.8,1.1,1.9,1.1,3.2c0,1.5-0.4,2.6-1.3,3.5c-0.9,0.9-2.1,1.4-3.6,1.6c-0.9,0.1-3.1,0.2-6.7,0.2h-6
			V437.2z M305.5,464.4c-0.7,0.9-1.6,1.5-2.7,1.8c-1.1,0.3-3.4,0.5-7.2,0.5h-8.5v-11.9h7.4c3.9,0,6.5,0.2,7.8,0.5
			c1.3,0.4,2.3,1,3,1.9c0.8,0.9,1.1,2.1,1.1,3.6C306.6,462.3,306.2,463.5,305.5,464.4z M372.8,463.5c-2.4,2.5-5.3,3.8-8.9,3.8
			c-3.6,0-6.5-1.3-9-3.8c-2.4-2.6-3.6-6.4-3.6-11.5c0-5.2,1.2-9.1,3.5-11.6s5.4-3.7,9.1-3.7c3.7,0,6.7,1.2,9,3.7
			c2.3,2.5,3.4,6.3,3.4,11.4C376.3,457.1,375.1,461,372.8,463.5z"/>
		<polygon points="410.7,429.8 400.2,447.4 389.6,429.8 378.9,429.8 395.5,455.5 395.5,474.2 404.6,474.2 404.6,455.6 421.2,429.8 
					"/>
	</g>
</g>
</svg>
