<?xml version="1.0" encoding="utf-8"?>
<!-- Generator: Adobe Illustrator 16.0.0, SVG Export Plug-In . SVG Version: 6.00 Build 0)  -->
<!DOCTYPE svg PUBLIC "-//W3C//DTD SVG 1.1//EN" "http://www.w3.org/Graphics/SVG/1.1/DTD/svg11.dtd">
<svg version="1.1" id="Calque_1" xmlns="http://www.w3.org/2000/svg" xmlns:xlink="http://www.w3.org/1999/xlink" x="0px" y="0px"
	 width="500px" height="500px" viewBox="0 0 500 500" enable-background="new 0 0 500 500" xml:space="preserve">
<g>
	<g>
		<polyline points="25,247.997 25,224.636 50.565,224.636 50.565,230.033 32.164,230.033 32.164,233.813 49.588,233.813 
			49.588,238.638 32.164,238.638 32.164,242.401 50.974,242.401 50.974,247.997 		"/>
		<polyline points="55.284,247.997 55.284,224.636 79.676,224.636 79.676,230.232 62.445,230.232 62.445,234.605 78.87,234.605 
			78.87,240.007 62.445,240.007 62.445,247.997 		"/>
		<polyline points="83.994,247.997 83.994,224.636 108.384,224.636 108.384,230.232 91.159,230.232 91.159,234.605 107.582,234.605 
			107.582,240.007 91.159,240.007 91.159,247.997 		"/>
		<polyline points="112.703,247.997 112.703,224.636 138.269,224.636 138.269,230.033 119.867,230.033 119.867,233.813 
			137.294,233.813 137.294,238.638 119.867,238.638 119.867,242.401 138.679,242.401 138.679,247.997 		"/>
		<path d="M142.485,239.805v-6.981c0-1.667,0.226-3.057,0.683-4.166c0.458-1.105,1.124-1.97,1.994-2.592
			c0.875-0.619,1.921-1.053,3.149-1.307c1.229-0.251,2.718-0.377,4.458-0.377h10.77c1.992,0,3.613,0.171,4.85,0.511
			c1.24,0.344,2.172,0.83,2.796,1.467c0.625,0.633,1.049,1.389,1.277,2.26c0.223,0.873,0.336,1.954,0.336,3.246v0.742h-7.035
			c0-0.758-0.135-1.328-0.403-1.703c-0.266-0.376-0.652-0.624-1.158-0.744c-0.502-0.121-1.186-0.183-2.045-0.183h-7.761
			c-1.26,0-2.204,0.133-2.831,0.396c-0.631,0.262-1.075,0.739-1.331,1.437c-0.258,0.694-0.386,1.709-0.386,3.042v2.922
			c0,1.347,0.127,2.369,0.386,3.062c0.256,0.694,0.703,1.171,1.337,1.427c0.636,0.258,1.577,0.388,2.825,0.388h7.632
			c1.146,0,2.052-0.172,2.725-0.515c0.668-0.343,1.007-1.024,1.007-2.045v-0.681h-8.899v-4.823h16.063v6.642
			c0,1.647-0.218,2.942-0.652,3.886c-0.437,0.946-1.11,1.643-2.025,2.093c-0.914,0.451-2.02,0.737-3.325,0.859
			c-1.299,0.119-3.148,0.18-5.541,0.18h-8.613c-1.67,0-3.129-0.125-4.376-0.372c-1.252-0.245-2.316-0.678-3.198-1.297
			c-0.882-0.618-1.556-1.488-2.016-2.602C142.717,242.868,142.485,241.474,142.485,239.805"/>
		<rect x="177.64" y="224.636" width="7.161" height="23.36"/>
		<path d="M190.015,247.997v-23.358h20.605c2.93,0,5.079,0.461,6.444,1.393c1.366,0.927,2.049,2.506,2.049,4.732
			c0,0.937-0.086,1.734-0.251,2.395c-0.169,0.661-0.402,1.173-0.695,1.534c-0.299,0.365-0.631,0.643-1.01,0.847
			c-0.38,0.199-0.88,0.393-1.499,0.582v0.095c1.546,0.187,2.647,0.721,3.303,1.598c0.657,0.877,0.987,2.212,0.987,3.993
			c0,2.386-0.61,4.014-1.836,4.886c-1.223,0.869-2.987,1.304-5.288,1.304 M197.18,230.234v3.67h12.665
			c1.395,0,2.093-0.611,2.093-1.827c0-0.668-0.172-1.143-0.52-1.423c-0.348-0.282-0.872-0.42-1.574-0.42H197.18z M197.18,238.73
			v3.67h12.821c0.843,0,1.481-0.127,1.923-0.381c0.438-0.251,0.659-0.7,0.659-1.345c0-0.75-0.214-1.259-0.643-1.532
			c-0.431-0.277-1.076-0.413-1.939-0.413H197.18"/>
		<path d="M224.27,247.997v-23.36h21.618c1.774,0,3.177,0.278,4.201,0.834c1.026,0.553,1.747,1.337,2.17,2.348
			c0.417,1.006,0.631,2.262,0.631,3.763v1.48c0,1.114-0.109,2.039-0.325,2.774c-0.214,0.735-0.612,1.349-1.196,1.844
			c-0.583,0.494-1.405,0.864-2.478,1.118v0.062c0.796,0.147,1.478,0.386,2.046,0.716c0.563,0.333,1.019,0.85,1.354,1.553
			s0.505,1.669,0.505,2.9v3.969h-7.162v-2.803c0-0.83-0.089-1.481-0.269-1.956c-0.18-0.469-0.48-0.808-0.915-1.007
			c-0.43-0.2-1.009-0.297-1.75-0.297h-11.269v6.063 M231.431,230.448v5.67h11.853c0.966,0,1.65-0.188,2.048-0.577
			c0.4-0.382,0.6-1.003,0.6-1.866v-0.771c0-0.683-0.112-1.2-0.34-1.55c-0.226-0.353-0.58-0.591-1.063-0.717
			c-0.485-0.127-1.116-0.189-1.891-0.189H231.431"/>
		<polyline points="257.72,247.997 257.72,224.636 283.28,224.636 283.28,230.033 264.881,230.033 264.881,233.813 282.307,233.813 
			282.307,238.638 264.881,238.638 264.881,242.401 283.69,242.401 283.69,247.997 		"/>
		<polyline points="298.299,247.997 285.753,224.636 293.594,224.636 302.708,241.996 311.84,224.636 319.681,224.636 
			307.137,247.997 		"/>
		<polyline points="322.261,247.997 322.261,224.636 347.826,224.636 347.826,230.033 329.424,230.033 329.424,233.813 
			346.848,233.813 346.848,238.638 329.424,238.638 329.424,242.401 348.233,242.401 348.233,247.997 		"/>
		<polyline points="350.842,230.448 350.842,224.636 378.131,224.636 378.131,230.448 368.076,230.448 368.076,247.997 
			360.915,247.997 360.915,230.448 		"/>
		<polyline points="379.55,230.448 379.55,224.636 406.841,224.636 406.841,230.448 396.789,230.448 396.789,247.997 
			389.623,247.997 389.623,230.448 		"/>
		<rect x="410.362" y="224.636" width="7.161" height="23.36"/>
	</g>
	<g>
		<polyline fill="#FFFFFF" points="438.633,233.196 444.537,238.877 444.573,255.233 436.391,263.302 439.646,266.491 
			428.938,266.491 428.938,255.772 432.321,259.184 438.67,252.865 		"/>
		<polyline fill="#FFFFFF" points="446.688,241.202 452.538,246.97 452.538,268.177 457.105,268.177 449.606,275.618 
			442.251,268.316 446.688,268.316 		"/>
		<polyline fill="#FFFFFF" points="444.578,224.568 460.483,240.343 460.483,232.611 452.308,224.568 		"/>
		<polyline fill="#FFFFFF" points="455.465,224.568 460.483,229.609 460.483,224.521 		"/>
		<g>
			<path fill="#E53A2A" d="M427.523,275.574c-2.014,0-3.654-1.636-3.654-3.684v-43.413c0-2.003,1.641-3.623,3.654-3.623h43.766
				c2.061,0,3.711,1.62,3.711,3.623v43.413c0,2.048-1.65,3.684-3.711,3.684H427.523"/>
			<polyline fill="#FFFFFF" points="438.67,229.799 438.723,224.484 441.47,224.484 460.483,243.242 460.483,252.785 466.8,259.039 
				470.142,255.779 470.142,266.459 459.49,266.459 462.784,263.222 454.61,255.146 454.61,245.654 			"/>
			<polyline fill="#FFFFFF" points="438.633,233.196 444.537,238.877 444.573,255.233 436.391,263.302 439.646,266.491 
				428.938,266.491 428.938,255.772 432.321,259.184 438.67,252.865 			"/>
			<polyline fill="#FFFFFF" points="446.688,241.202 452.538,246.97 452.538,268.177 457.105,268.177 449.606,275.618 
				442.251,268.316 446.688,268.316 			"/>
			<polyline fill="#FFFFFF" points="438.67,229.799 438.723,224.484 441.47,224.484 460.483,243.242 460.483,252.785 466.8,259.039 
				470.142,255.779 470.142,266.459 459.49,266.459 462.784,263.222 454.61,255.146 454.61,245.654 			"/>
		</g>
		<polyline fill="#FFFFFF" points="444.578,224.568 460.483,240.343 460.483,232.611 452.308,224.568 		"/>
		<polyline fill="#FFFFFF" points="455.465,224.568 460.483,229.609 460.483,224.521 		"/>
	</g>
	<g>
		<polygon fill="#929395" points="321.488,266.988 301.469,251.533 296.671,251.533 296.671,275.618 302.131,275.618 
			302.131,259.349 323.683,275.618 326.949,275.618 326.949,251.533 321.488,251.533 		"/>
		<polygon fill="#929395" points="358.319,251.533 350.874,251.533 342.814,260.533 337.34,260.533 337.34,251.533 331.363,251.533 
			331.363,275.618 337.34,275.618 337.34,265.739 342.88,265.739 350.966,275.618 358.093,275.618 347.867,262.865 		"/>
		<path fill="#929395" d="M385.918,253.267c-0.639-0.558-1.459-0.996-2.439-1.297c-0.941-0.291-2.079-0.438-3.383-0.438h-14.143
			c-1.306,0-2.446,0.147-3.388,0.438c-0.98,0.304-1.801,0.739-2.432,1.297c-0.657,0.573-1.143,1.272-1.441,2.073
			c-0.281,0.754-0.425,1.599-0.425,2.509v11.454c0,0.907,0.144,1.752,0.425,2.509c0.299,0.801,0.784,1.5,1.439,2.073
			c0.638,0.558,1.456,0.994,2.437,1.296c0.937,0.291,2.074,0.437,3.385,0.437h14.143c1.306,0,2.444-0.146,3.383-0.437
			c0.976-0.299,1.796-0.735,2.439-1.296c0.652-0.575,1.136-1.272,1.438-2.073c0.282-0.757,0.425-1.602,0.425-2.509v-11.454
			c0-0.91-0.143-1.755-0.425-2.512C387.054,254.537,386.57,253.84,385.918,253.267z M381.805,257.818v11.517
			c0,0.43,0,1.078-1.709,1.078h-14.143c-1.711,0-1.711-0.648-1.711-1.078v-11.517c0-0.43,0-1.08,1.711-1.08h14.143
			C381.805,256.738,381.805,257.388,381.805,257.818z"/>
		<path fill="#929395" d="M414.087,265.455c1.471-0.33,2.594-0.946,3.352-1.835c0.961-1.133,1.446-2.545,1.446-4.198v-1.572
			c0-0.917-0.146-1.762-0.428-2.504c-0.293-0.801-0.778-1.5-1.437-2.075c-0.631-0.556-1.448-0.994-2.436-1.301
			c-0.944-0.29-2.085-0.437-3.386-0.437h-19.156v24.085h5.979v-9.879h9.721l5.017,9.879h6.491L414.087,265.455z M398.022,256.738
			h13.177c1.706,0,1.706,0.65,1.706,1.08v1.638c0,0.427,0,1.077-1.706,1.077h-13.177V256.738z"/>
		<path fill="#929395" d="M275.65,251.533l-15.475,24.085h6.805l3.71-5.897h13.83l3.649,5.897h6.862l-15.375-24.085H275.65z
			 M281.599,264.999h-7.938l4.001-6.363L281.599,264.999z"/>
	</g>
</g>
</svg>
