<?xml version="1.0" encoding="utf-8"?>
<!-- Generator: Adobe Illustrator 15.0.0, SVG Export Plug-In . SVG Version: 6.00 Build 0)  -->
<!DOCTYPE svg PUBLIC "-//W3C//DTD SVG 1.1//EN" "http://www.w3.org/Graphics/SVG/1.1/DTD/svg11.dtd">
<svg version="1.1" id="Calque_1" xmlns="http://www.w3.org/2000/svg" xmlns:xlink="http://www.w3.org/1999/xlink" x="0px" y="0px"
	 width="500px" height="500px" viewBox="0 0 500 500" enable-background="new 0 0 500 500" xml:space="preserve">
<text transform="matrix(1 0 0 1 249.5867 114.2534)" fill="none" stroke="#FFFFFF" font-family="'HelveticaNeue-MediumItalic'" font-size="12">E.I.F</text>
<g id="Nouveau_symbole">
</g>
<g>
	<path fill="#1A171B" d="M73.96,181.19h102.319l-4.339,21.249H93.831l-7.67,36.789h72.408l-4.131,20.079H81.822l-8.455,41.12h78.701
		l-4.323,21.249H44.833L73.96,181.19z"/>
	<path fill="#1A171B" d="M174.502,295.111h27.349l-5.908,26.564h-27.35L174.502,295.111z"/>
	<path fill="#1A171B" d="M253.395,181.19h24.596l-29.303,140.485h-24.595L253.395,181.19z"/>
	<path fill="#1A171B" d="M283.899,295.111h27.35l-5.909,26.564H277.99L283.899,295.111z"/>
	<path fill="#1A171B" d="M362.215,181.19h95.818l-4.323,21.249h-71.432l-7.67,36.789h61.984l-4.34,20.079h-61.775l-12.986,62.369
		h-24.595L362.215,181.19z"/>
</g>
</svg>
