<?xml version="1.0" encoding="utf-8"?>
<!-- Generator: Adobe Illustrator 21.0.2, SVG Export Plug-In . SVG Version: 6.00 Build 0)  -->
<svg version="1.1" id="Calque_1" xmlns="http://www.w3.org/2000/svg" xmlns:xlink="http://www.w3.org/1999/xlink" x="0px" y="0px"
	 viewBox="0 0 500 168" style="enable-background:new 0 0 500 168;" xml:space="preserve">
<style type="text/css">
	.st0{fill:#003064;}
	.st1{fill:#E2001A;}
</style>
<rect x="134.2" y="30.1" width="22.4" height="77"/>
<polygon points="236.4,28.4 201,28.4 160.2,58.7 160.2,66.9 160.2,68.6 160.2,76.9 201,107.1 236.4,107.1 181.9,67.8 "/>
<polygon points="47.4,30.1 36.2,30.1 25,30.1 25,107.1 36.2,107.1 47.4,107.1 118.7,107.1 118.7,89.5 47.4,89.5 47.4,47.7 
	118.7,47.7 118.7,30.1 "/>
<rect x="52.1" y="59.8" width="66.6" height="17.6"/>
<path d="M323.9,28.4v44.4c0,8.5-7,15.4-15.4,15.4h-27.3c-8.5,0-15.4-7-15.4-15.4V28.4h-22.6v54.4c0,13.9,11.3,25.2,25.2,25.2h53.1
	c13.9,0,25.2-11.3,25.2-25.2V28.4H323.9L323.9,28.4z"/>
<circle class="st0" cx="393" cy="72.6" r="19.6"/>
<path class="st1" d="M407.5,41.1c18.8,0,34.1,15.2,34.1,34.1c0,13.3-7.7,24.9-18.8,30.5h41.4C471,97.1,475,86.2,475,74.4
	c0-28-22.7-50.8-50.8-50.8c-28,0-50.8,22.7-50.8,50.8c0,0.1,0,0.3,0,0.4C373.7,56.1,388.8,41.1,407.5,41.1z"/>
<path d="M168.9,134.3l2.5-0.2c0.1,0.9,0.4,1.6,0.9,2.1s1.2,0.9,2,1.2s1.9,0.5,3,0.5c1.6,0,2.8-0.3,3.7-0.8s1.3-1.2,1.3-2
	c0-0.5-0.2-0.9-0.5-1.3s-0.8-0.7-1.4-0.9c-0.6-0.2-2-0.6-4.2-1c-1.9-0.4-3.2-0.8-4.1-1.1c-0.8-0.4-1.4-0.9-1.9-1.5
	c-0.4-0.6-0.7-1.3-0.7-2c0-1.3,0.6-2.4,1.9-3.3c1.3-0.9,3-1.3,5.2-1.3c1.5,0,2.8,0.2,3.9,0.6c1.1,0.4,2,1,2.6,1.7s1,1.6,1,2.6
	l-2.6,0.2c-0.1-1.1-0.6-1.9-1.4-2.4c-0.8-0.5-2-0.8-3.5-0.8s-2.7,0.2-3.4,0.7c-0.8,0.5-1.2,1-1.2,1.8c0,0.7,0.3,1.2,0.9,1.6
	c0.6,0.4,1.9,0.7,3.9,1.1s3.4,0.7,4.2,1c1.2,0.4,2.2,1,2.8,1.7s0.9,1.5,0.9,2.5c0,0.9-0.3,1.8-1,2.6s-1.6,1.4-2.7,1.8
	c-1.1,0.4-2.5,0.6-4.1,0.6c-2.5,0-4.5-0.5-5.9-1.5C169.7,137.4,168.9,136,168.9,134.3z"/>
<path d="M190.8,139.6l-4.5-12h2.6l2.3,6.9l0.9,2.6l0.8-2.5l2.3-7h2.6l2.2,7l0.7,2.3l0.8-2.3l2.5-6.9h2.4l-4.5,12h-2.6l-2.3-7.2
	l-0.6-2l-2.9,9.2L190.8,139.6L190.8,139.6z"/>
<path d="M213.7,136l2.5-0.3c0.1,0.8,0.5,1.5,1.2,1.9c0.6,0.4,1.5,0.6,2.6,0.6s1.9-0.2,2.5-0.5c0.6-0.4,0.9-0.8,0.9-1.4
	c0-0.5-0.2-0.8-0.8-1.1c-0.3-0.2-1.2-0.4-2.5-0.7c-1.9-0.4-3.2-0.7-3.9-1c-0.6-0.3-1.1-0.6-1.5-1.1s-0.5-1-0.5-1.6
	c0-1,0.5-1.9,1.5-2.5s2.3-1,4-1c1.1,0,2,0.1,2.9,0.4c0.8,0.3,1.4,0.6,1.9,1.1c0.4,0.4,0.7,1.1,0.9,1.9L223,131c-0.2-1.3-1.3-2-3.2-2
	c-1.1,0-1.9,0.1-2.4,0.4s-0.8,0.7-0.8,1.1s0.3,0.8,0.8,1c0.3,0.1,1.2,0.4,2.7,0.7c2,0.4,3.4,0.8,4,1c0.6,0.3,1.1,0.6,1.4,1.1
	c0.3,0.4,0.5,1,0.5,1.6c0,1.1-0.5,2.1-1.6,2.8c-1.1,0.7-2.5,1.1-4.4,1.1C216.3,139.9,214.3,138.6,213.7,136z"/>
<path d="M227.8,136l2.5-0.3c0.1,0.8,0.5,1.5,1.2,1.9c0.6,0.4,1.5,0.6,2.6,0.6s1.9-0.2,2.5-0.5c0.6-0.4,0.9-0.8,0.9-1.4
	c0-0.5-0.2-0.8-0.8-1.1c-0.3-0.2-1.2-0.4-2.5-0.7c-1.9-0.4-3.2-0.7-3.9-1c-0.6-0.3-1.1-0.6-1.5-1.1s-0.5-1-0.5-1.6
	c0-1,0.5-1.9,1.5-2.5s2.3-1,4-1c1.1,0,2,0.1,2.9,0.4c0.8,0.3,1.4,0.6,1.9,1.1c0.4,0.4,0.7,1.1,0.9,1.9l-2.4,0.3
	c-0.2-1.3-1.3-2-3.2-2c-1.1,0-1.9,0.1-2.4,0.4s-0.8,0.7-0.8,1.1s0.3,0.8,0.8,1c0.3,0.1,1.2,0.4,2.7,0.7c2,0.4,3.4,0.8,4,1
	c0.6,0.3,1.1,0.6,1.4,1.1c0.3,0.4,0.5,1,0.5,1.6c0,1.1-0.5,2.1-1.6,2.8c-1.1,0.7-2.5,1.1-4.4,1.1C230.4,139.9,228.4,138.6,227.8,136
	z"/>
<path d="M250.1,134.3l2.5-0.2c0.1,0.9,0.4,1.6,0.9,2.1s1.2,0.9,2,1.2c0.9,0.3,1.9,0.5,3,0.5c1.6,0,2.8-0.3,3.7-0.8
	c0.9-0.5,1.3-1.2,1.3-2c0-0.5-0.2-0.9-0.5-1.3s-0.8-0.7-1.4-0.9c-0.6-0.2-2-0.6-4.2-1c-1.9-0.4-3.2-0.8-4.1-1.1
	c-0.8-0.4-1.4-0.9-1.9-1.5c-0.4-0.6-0.7-1.3-0.7-2c0-1.3,0.6-2.4,1.9-3.3c1.3-0.9,3-1.3,5.2-1.3c1.5,0,2.8,0.2,3.9,0.6s2,1,2.6,1.7
	s1,1.6,1,2.6l-2.6,0.2c-0.1-1.1-0.6-1.9-1.4-2.4s-2-0.8-3.5-0.8s-2.7,0.2-3.4,0.7c-0.8,0.5-1.2,1-1.2,1.8c0,0.7,0.3,1.2,0.9,1.6
	c0.6,0.4,1.9,0.7,3.9,1.1c2,0.4,3.4,0.7,4.2,1c1.2,0.4,2.2,1,2.8,1.7c0.6,0.7,0.9,1.5,0.9,2.5c0,0.9-0.3,1.8-1,2.6
	c-0.7,0.8-1.6,1.4-2.7,1.8s-2.5,0.6-4.1,0.6c-2.5,0-4.5-0.5-5.9-1.5C250.9,137.4,250.1,136,250.1,134.3z"/>
<path d="M269.3,139.6V123h2.5v16.6H269.3z"/>
<path d="M291.3,139.6v-1.5c-0.4,0.6-1,1-1.7,1.3s-1.5,0.5-2.3,0.5c-1.7,0-3.2-0.5-4.5-1.6s-1.9-2.6-1.9-4.6c0-1.4,0.3-2.5,0.8-3.5
	c0.6-0.9,1.3-1.7,2.2-2.1c0.9-0.5,2-0.7,3.1-0.7c0.8,0,1.6,0.1,2.3,0.4c0.7,0.3,1.3,0.7,1.7,1.2v-6h2.5v16.6H291.3L291.3,139.6z
	 M283.5,133.6c0,1.6,0.4,2.7,1.2,3.5c0.8,0.8,1.7,1.1,2.8,1.1c1,0,2-0.4,2.7-1.1c0.8-0.7,1.2-1.8,1.2-3.3c0-1.7-0.4-2.9-1.2-3.7
	c-0.8-0.8-1.7-1.2-2.9-1.2c-1,0-1.9,0.4-2.7,1.1C283.9,130.9,283.5,132,283.5,133.6z"/>
<rect x="208.4" y="123" width="2.5" height="2.3"/>
<rect x="208.4" y="127.6" width="2.5" height="12"/>
<rect x="275.6" y="127.6" width="2.5" height="12"/>
<rect x="275.6" y="123" width="2.5" height="2.3"/>
<rect x="297.5" y="123" width="2.5" height="2.3"/>
<rect x="297.5" y="127.6" width="2.5" height="12"/>
<path d="M303.7,139.6v-12h2.2v1.7c0.5-0.7,1.2-1.2,2-1.5s1.7-0.5,2.7-0.5c0.8,0,1.5,0.1,2.2,0.3c0.7,0.2,1.2,0.5,1.6,0.8
	s0.7,0.8,0.9,1.3c0.2,0.5,0.3,1.4,0.3,2.5v7.4h-2.5v-7.3c0-0.9-0.1-1.5-0.3-1.9c-0.2-0.4-0.6-0.7-1-0.9c-0.5-0.2-1-0.3-1.6-0.3
	c-1.2,0-2.1,0.3-2.8,0.9s-1.1,1.6-1.1,3.1v6.6h-2.6V139.6z"/>
<path d="M318.9,140.6l2.4,0.3c0.1,0.6,0.4,1.1,1,1.4s1.3,0.5,2.3,0.5c1.1,0,1.9-0.2,2.6-0.5c0.6-0.4,1.1-0.9,1.3-1.6
	c0.1-0.4,0.2-1.3,0.2-2.7c-0.5,0.5-1.1,0.9-1.8,1.2c-0.7,0.3-1.4,0.4-2.2,0.4c-1.7,0-3.2-0.5-4.3-1.5c-1.3-1.1-2-2.7-2-4.6
	c0-1.3,0.3-2.4,0.9-3.4s1.3-1.7,2.3-2.1c0.9-0.5,2-0.7,3.2-0.7c0.9,0,1.6,0.1,2.4,0.4c0.7,0.3,1.3,0.7,1.9,1.3v-1.4h2.3V138
	c0,1.8-0.2,3.2-0.7,3.9s-1.2,1.4-2.2,1.9s-2.2,0.7-3.7,0.7c-1.9,0-3.3-0.3-4.4-1C319.3,142.7,318.8,141.8,318.9,140.6z M320.9,133.4
	c0,1.6,0.4,2.7,1.2,3.5c0.8,0.7,1.7,1.1,2.8,1.1s2.1-0.4,2.9-1.1s1.2-1.8,1.2-3.4c0-1.5-0.4-2.6-1.2-3.4c-0.8-0.7-1.8-1.1-2.9-1.1
	c-1,0-1.9,0.4-2.7,1.1C321.3,130.8,320.9,131.9,320.9,133.4z"/>
<path d="M342.3,134.3l2.5-0.2c0.1,0.9,0.4,1.6,0.9,2.1s1.2,0.9,2,1.2c0.9,0.3,1.9,0.5,3,0.5c1.6,0,2.8-0.3,3.7-0.8
	c0.9-0.5,1.3-1.2,1.3-2c0-0.5-0.2-0.9-0.5-1.3s-0.8-0.7-1.4-0.9c-0.6-0.2-2-0.6-4.2-1c-1.9-0.4-3.2-0.8-4.1-1.1
	c-0.8-0.4-1.4-0.9-1.9-1.5c-0.4-0.6-0.7-1.3-0.7-2c0-1.3,0.6-2.4,1.9-3.3s3-1.3,5.2-1.3c1.5,0,2.8,0.2,3.9,0.6s2,1,2.6,1.7
	s1,1.6,1,2.6l-2.6,0.2c-0.1-1.1-0.6-1.9-1.4-2.4s-2-0.8-3.5-0.8s-2.7,0.2-3.4,0.7c-0.8,0.5-1.2,1-1.2,1.8c0,0.7,0.3,1.2,0.9,1.6
	s1.9,0.7,3.9,1.1s3.4,0.7,4.2,1c1.2,0.4,2.2,1,2.8,1.7c0.6,0.7,0.9,1.5,0.9,2.5c0,0.9-0.3,1.8-1,2.6s-1.6,1.4-2.7,1.8
	s-2.5,0.6-4.1,0.6c-2.5,0-4.5-0.5-6-1.5C343.1,137.4,342.3,136,342.3,134.3z"/>
<path d="M360.6,133.6c0-2.1,0.6-3.6,1.9-4.7s2.9-1.6,4.9-1.6c1.9,0,3.6,0.5,4.9,1.6s2,2.6,2,4.6c0,2.2-0.6,3.8-1.9,4.8
	c-1.3,1.1-2.9,1.6-4.9,1.6s-3.6-0.5-4.9-1.6C361.3,137.2,360.6,135.7,360.6,133.6z M363.1,133.6c0,1.6,0.4,2.7,1.3,3.5
	c0.8,0.8,1.9,1.1,3.1,1.1s2.2-0.4,3-1.1c0.8-0.8,1.2-1.9,1.2-3.5c0-1.5-0.4-2.7-1.3-3.5c-0.8-0.8-1.9-1.1-3.1-1.1s-2.2,0.4-3,1.1
	C363.6,130.9,363.1,132,363.1,133.6z"/>
<path d="M377.1,139.6V123h2.5v16.6H377.1z"/>
<path d="M393,139.6v-1.8c-0.6,0.7-1.2,1.2-2,1.5s-1.6,0.5-2.6,0.5c-1.1,0-2.1-0.2-2.9-0.6s-1.4-0.9-1.6-1.6
	c-0.3-0.6-0.4-1.5-0.4-2.6v-7.4h2.5v6.7c0,1.2,0.1,2.1,0.3,2.5c0.2,0.4,0.5,0.8,1,1c0.5,0.3,1.1,0.4,1.7,0.4c1.2,0,2.2-0.3,2.9-1
	c0.6-0.6,1-1.6,1-3.1v-6.4h2.5v12L393,139.6L393,139.6z"/>
<path d="M404.5,137.8l0.3,1.8c-0.7,0.1-1.3,0.2-1.8,0.2c-0.9,0-1.6-0.1-2.1-0.3c-0.5-0.2-0.9-0.5-1.1-0.9s-0.3-1.2-0.3-2.4v-6.9
	h-1.8v-1.6h1.8v-3l2.5-1.2v4.2h2.5v1.6H402v7c0,0.6,0.1,1.1,0.2,1.3c0.2,0.3,0.6,0.4,1.2,0.4C403.7,137.9,404.1,137.8,404.5,137.8z"
	/>
<rect x="406.9" y="127.6" width="2.5" height="12"/>
<rect x="406.9" y="123" width="2.5" height="2.3"/>
<path d="M412.2,133.6c0-2.1,0.6-3.6,1.9-4.7s2.9-1.6,4.9-1.6c1.9,0,3.6,0.5,4.9,1.6s2,2.6,2,4.6c0,2.2-0.6,3.8-1.9,4.8
	c-1.3,1.1-2.9,1.6-4.9,1.6s-3.6-0.5-4.9-1.6C412.8,137.2,412.2,135.7,412.2,133.6z M414.7,133.6c0,1.6,0.4,2.7,1.3,3.5
	c0.8,0.8,1.9,1.1,3.1,1.1s2.2-0.4,3-1.1c0.8-0.8,1.2-1.9,1.2-3.5c0-1.5-0.4-2.7-1.3-3.5c-0.8-0.8-1.9-1.1-3.1-1.1s-2.2,0.4-3,1.1
	C415.1,130.9,414.7,132,414.7,133.6z"/>
<path d="M428.8,139.6v-12h2.2v1.7c0.5-0.7,1.2-1.2,2-1.5s1.7-0.5,2.7-0.5c0.8,0,1.5,0.1,2.2,0.3c0.7,0.2,1.2,0.5,1.6,0.8
	s0.7,0.8,0.9,1.3c0.2,0.5,0.3,1.4,0.3,2.5v7.4h-2.5v-7.3c0-0.9-0.1-1.5-0.3-1.9c-0.2-0.4-0.6-0.7-1-0.9c-0.5-0.2-1-0.3-1.6-0.3
	c-1.2,0-2.1,0.3-2.8,0.9s-1.1,1.6-1.1,3.1v6.6h-2.6V139.6z"/>
<path d="M443.4,136l2.5-0.3c0.1,0.8,0.5,1.5,1.2,1.9c0.6,0.4,1.5,0.6,2.6,0.6s1.9-0.2,2.5-0.5c0.6-0.4,0.9-0.8,0.9-1.4
	c0-0.5-0.3-0.8-0.8-1.1c-0.3-0.2-1.2-0.4-2.5-0.7c-1.9-0.4-3.2-0.7-3.8-1c-0.6-0.3-1.1-0.6-1.5-1.1s-0.5-1-0.5-1.6
	c0-1,0.5-1.9,1.5-2.5s2.3-1,4-1c1.1,0,2,0.1,2.9,0.4c0.8,0.3,1.4,0.6,1.9,1.1c0.4,0.4,0.7,1.1,0.9,1.9l-2.4,0.3
	c-0.2-1.3-1.3-2-3.2-2c-1.1,0-1.9,0.1-2.4,0.4s-0.8,0.7-0.8,1.1s0.3,0.8,0.8,1c0.3,0.1,1.2,0.4,2.7,0.7c2,0.4,3.4,0.8,4,1
	c0.6,0.3,1.1,0.6,1.4,1.1c0.3,0.4,0.5,1,0.5,1.6c0,1.1-0.5,2.1-1.6,2.8c-1.1,0.7-2.5,1.1-4.4,1.1C446,139.9,444,138.6,443.4,136z"/>
</svg>
