<?xml version="1.0" encoding="utf-8"?>
<!-- Generator: Adobe Illustrator 19.1.0, SVG Export Plug-In . SVG Version: 6.00 Build 0)  -->
<svg version="1.1" id="Calque_1" xmlns="http://www.w3.org/2000/svg" xmlns:xlink="http://www.w3.org/1999/xlink" x="0px" y="0px"
	 viewBox="-345 170.9 500 500" style="enable-background:new -345 170.9 500 500;" xml:space="preserve">
<style type="text/css">
	.st0{fill:#FF0000;}
	.st1{fill:#0D0909;}
	.st2{fill:#FFFFFF;}
	.st3{fill:#050505;}
	.st4{fill:#020202;}
</style>
<g id="Nouveau_symbole">
</g>
<rect x="-185.8" y="331.2" class="st0" width="308.5" height="125"/>
<rect x="-310.3" y="331.2" class="st1" width="124.5" height="125"/>
<polygon class="st2" points="-152.3,400 -123.3,400 -123.3,385 -152.3,385 -152.3,362.5 -122.2,362.5 -118.2,347.5 -169.8,347.5 
	-169.8,347.7 -169.8,362.5 -169.8,385 -169.8,400 -169.8,424.2 -169.8,439.2 -152.3,439.2 -117.8,439.2 -117.8,424.2 -152.3,424.2 
	"/>
<polygon class="st2" points="-89.8,347.7 -107.3,347.7 -107.3,424.2 -107.3,439.2 -89.8,439.2 -55.3,439.2 -55.3,424.2 -89.8,424.2 
	"/>
<polygon class="st2" points="88.9,347.7 88.9,385.2 46.2,385.2 46.2,347.7 28.7,347.7 28.7,439.2 46.2,439.2 46.2,400.2 88.9,400.2 
	88.9,439.2 106.4,439.2 106.4,347.7 "/>
<path class="st2" d="M-3.2,364.7c7.2,0,12.9,1.6,16.9,3.3l4.2-15.8c-3.6-1.8-11.5-3.9-21.9-3.9c-26.9,0-48.4,16.7-48.4,47
	c0,25.4,15.8,44.6,46.5,44.6c10.7,0,19.1-2.1,22.6-3.8l-2.9-15.8c-4.1,1.7-10.7,2.9-16.9,2.9c-17.8,0-28.3-11.2-28.3-29
	C-31.4,374.3-19,364.7-3.2,364.7z"/>
<path class="st2" d="M-191.5,358.2c-0.2-1.2-5.2,1.3-5.5-0.3s-0.5-4.5-2-4.2c-1.5,0.3-1,4.2-2.7,3s-3.8-1.3-3.3,1.2s0.5,6.2-4.3,6.2
	s-4.5-6.3-3.8-8.5c0.3-1-2.7,2.2-4-0.3s3.3-7.7,3.2-9.3s-5.5,5.8-8,5.2c-2.5-0.7-4.8-4.8-4.8-7c-0.2-1-0.8,3.8-2.5,2.5
	c-1.7-1.3-6.5-3.2-6.8,0.5c-0.3,3.7,2.2,19.5,16.6,19.9c0,0-5.5,4.8-7.5,6.2c-6.8,0.8-18.2,1.2-25,2c-6.8,0.8-18.3-2.2-26,2
	s-9.8,14.2-8,21.2c-6.2,8.5-7.7,10.6-8.4,11.6s-1,10.8-2,13.8s-2.5,7.8-6,8.2c0,6.3,0.3,7,0.3,7s7.5-3,9.7-20.2
	c0.3-2.3,14.3-9.7,17-15.2c1.8-0.8,0.2,8-1,11.2s1.8,5.3,3,5.8s13.3,11.3,14.8,15.2c-0.2,2.8-0.2,5.8-0.2,5.8s5,1.3,7.8-0.7
	s6.3-7.8,10-11.7c3.7-3.8,6.3-7.7,5.8-9.5s-0.7-9.7-0.7-9.7s13,6.3,16.7,13c3.7,6.7,7.3,13.2,7.8,16c5.8,0,5.8,0,5.8,0
	s-4.5-5.8-6.2-9.2c-1.7-3.3-9.8-22.2-16-25.2c5.7-4.8,17.3-8.8,18.2-23.7c1.5-1.2,3.8,0,3.8,0s0.2,2,6.3,1.7c6.2-0.3,3.7-7.7,0-10.7
	s-7-4.2-6.8-5.7C-202.1,366.7-191.5,364.5-191.5,358.2z M-251,434.8c-3.7,1.3-4.2,0.5-4.2,0.5s-8.2-13.5-12.5-16
	c2.3-3.2,4.2-6.7,4.3-11.8c0,0,11.3,2.8,16.7,1.5c1.3,5.5,6,10.8,6,10.8S-245.5,432.7-251,434.8z"/>
<path class="st3" d="M-10.2,462.4h133.1v50c0,0-101.8,0-105.6,0s-9.8,0.8-13.1-9C0.8,493.7-10.2,462.4-10.2,462.4z"/>
<path class="st2" d="M16.9,471.5h14.9c1.9,0,3.6,0.2,5.2,0.7s3,1.2,4.2,2.2c1.2,1,2.1,2.2,2.8,3.7c0.7,1.5,1,3.2,1,5.2
	c0,1.7-0.3,3.2-0.8,4.5c-0.5,1.3-1.2,2.4-2.1,3.4c-0.9,0.9-2,1.6-3.4,2.1c-1.3,0.5-2.8,0.8-4.4,0.8h-6v9.8H16.9L16.9,471.5
	L16.9,471.5z M28.2,485.9h1.2c0.5,0,1,0,1.5-0.1c0.5-0.1,1-0.2,1.4-0.4c0.4-0.2,0.7-0.5,1-0.9c0.3-0.4,0.4-0.9,0.4-1.6
	c0-0.6-0.1-1.1-0.4-1.5c-0.3-0.4-0.6-0.6-1-0.8s-0.9-0.3-1.4-0.3c-0.5,0-1-0.1-1.5-0.1h-1.1L28.2,485.9L28.2,485.9z"/>
<path class="st2" d="M48.2,471.5h14.2c1.8,0,3.6,0.2,5.2,0.6c1.6,0.4,3.1,1.1,4.3,2c1.2,0.9,2.2,2.1,2.9,3.5
	c0.7,1.4,1.1,3.2,1.1,5.2c0,1.2-0.1,2.3-0.4,3.2c-0.2,0.9-0.6,1.7-1.1,2.3c-0.5,0.7-1.2,1.2-2,1.7c-0.8,0.5-1.7,0.9-2.8,1.2v0.3
	c0.3,0.2,0.6,0.5,1,0.8c0.3,0.3,0.7,0.7,1,1.2l7,10.5H65.1l-5.2-10.4h-0.2v10.4H48.2L48.2,471.5L48.2,471.5z M59.7,485.8h0.8
	c0.5,0,1,0,1.4-0.1c0.5-0.1,0.9-0.2,1.2-0.4c0.4-0.2,0.7-0.5,0.9-0.8c0.2-0.4,0.3-0.8,0.3-1.4c0-0.6-0.1-1.1-0.3-1.5
	c-0.2-0.4-0.5-0.6-0.8-0.8c-0.3-0.2-0.7-0.3-1.2-0.4c-0.5-0.1-0.9-0.1-1.5-0.1h-0.9V485.8z"/>
<path class="st2" d="M97.4,471c2.5,0,4.8,0.4,7,1.2c2.2,0.8,4.1,1.9,5.7,3.4c1.6,1.5,2.9,3.2,3.8,5.3c0.9,2.1,1.4,4.4,1.4,6.9
	c0,2.6-0.5,4.9-1.4,7c-0.9,2-2.2,3.8-3.8,5.2c-1.6,1.4-3.5,2.5-5.7,3.3c-2.2,0.8-4.5,1.1-7,1.1s-4.8-0.4-7-1.1
	c-2.2-0.8-4.1-1.9-5.7-3.3c-1.6-1.4-2.9-3.2-3.8-5.2c-0.9-2-1.4-4.4-1.4-7c0-2.5,0.5-4.9,1.4-6.9c0.9-2.1,2.2-3.8,3.8-5.3
	c1.6-1.5,3.5-2.6,5.7-3.4C92.7,471.4,95,471,97.4,471z M97.4,481.6c-0.9,0-1.8,0.2-2.5,0.5c-0.7,0.3-1.4,0.8-1.9,1.4
	c-0.5,0.6-0.9,1.3-1.2,2c-0.3,0.8-0.4,1.6-0.4,2.4c0,1.9,0.6,3.4,1.7,4.5c1.1,1.1,2.6,1.7,4.4,1.7c1.8,0,3.3-0.6,4.4-1.7
	c1.1-1.1,1.7-2.6,1.7-4.5c0-0.9-0.1-1.7-0.4-2.4c-0.3-0.8-0.7-1.4-1.2-2c-0.5-0.6-1.1-1-1.9-1.4C99.2,481.8,98.4,481.6,97.4,481.6z"
	/>
<path class="st4" d="M130.2,323.7l0,178.8c0,17.4-6.2,18.5-21.7,18.5H14.1c-13.8,0-17.2-13-17.2-13l-15.3-45.8h-298.8V323.7H130.2
	 M132.2,321.7h-2h-447.5h-2v2v138.5v2h2h297.4l14.9,44.4c0.4,1.2,4.6,14.4,19.1,14.4h94.4c7.6,0,13.8-0.2,17.8-3.1
	c4.1-2.9,5.9-8.1,5.9-17.4l0-178.8L132.2,321.7L132.2,321.7z"/>
</svg>
