<?xml version="1.0" encoding="utf-8"?>
<!-- Generator: Adobe Illustrator 21.0.2, SVG Export Plug-In . SVG Version: 6.00 Build 0)  -->
<svg version="1.1" id="Calque_1" xmlns="http://www.w3.org/2000/svg" xmlns:xlink="http://www.w3.org/1999/xlink" x="0px" y="0px"
	 viewBox="0 0 500 202" style="enable-background:new 0 0 500 202;" xml:space="preserve">
<style type="text/css">
	.st0{fill:#DB2F36;}
</style>
<path class="st0" d="M357.5,42.6c8.5,7.8,13,19.7,12.1,31.6l-1.2,0.1h-38.2h-0.7c-0.1-8.1-0.2-17.4-7-22.1c-6.8-4-16.6-4-23.4,0
	c-9.6,5.2-7.3,17.4-8.3,27v10.5l0.1,1.6l21,0.1l0.5-0.1c0,10.2-0.3,17-0.3,17H311l-20.6-0.1l-0.2,60.7v3.3l-0.6-0.1h-41.3v-10.9
	v-44.1v-9.7h-20.6l-1.2,0.1V89.8h21.2v-2.1c0.3-14.1-0.9-29.5,7.7-40.7c11.2-15.1,29.2-19.5,47.7-19.2
	C323.2,27.2,342.8,29.9,357.5,42.6"/>
<path class="st0" d="M94.3,102.9c-9.9,0.1-20.1,6.4-22,15c-0.3,1.1-0.8,2.9-0.8,2.9l46.9-0.1c-0.1-4.4-1.6-6.1-3-8.6
	C110.9,105.7,102.7,102.4,94.3,102.9 M145.8,102c9.1,8.3,17.3,18.4,17.6,31.3c-0.2,0.3,0,0.9-0.2,1.2h-77h-15
	c-1.1,0.2-1.6,1.5-1.3,2.7c1.2,7.1,6.4,14,13.1,16.8c9.3,4.6,21,2.1,28.9-3.5c2.2-2.1,5.1-4.9,6.8-7.7l0.4-1.1
	c10.4,4.2,23,9.4,33.1,13.6l0.4,0.3c-10.9,9.8-24.5,14.3-38.1,17.2c-24.7,3.3-50,0.1-70.1-12.2c-10.9-7.9-21.2-20-19.1-34.7
	c2.6-18.6,20.1-29.9,35.9-35.6C88.5,81.5,123.8,83.8,145.8,102"/>
<path class="st0" d="M378.3,136.9c-5,2.5-10.7,6.3-10,12.8c0,6.2,5.8,9.5,10.8,11.5c9.6,2.9,21.4,1.3,28-6.4
	c2.3-3.6,2.2-9.7-0.1-13.2C400.6,133.7,387.5,133.9,378.3,136.9 M430,95c10.6,5,21.8,14.2,22.9,26.8l0.4,9.9l-0.6,39.6
	c-0.9,1.8-3.6,1-5.5,1.2h-37.6c-2.2-0.3-0.7-6.7-1.9-7.5c-14.6,7.6-33.3,10.9-50.6,8.4c-1.4-0.2-2.2-0.1-3.7-0.4
	c-12.2-2.2-26.5-6.8-31.1-19.8c-1.5-7.4,0.9-14.9,6.9-19c20.6-15.4,54.9-14.1,77.1-2.6c2.6-1.1,1.4-4.7,1.7-7.3
	c-0.2-5.7,0.6-12.4-4.2-16.1c-8.6-6.5-23-6.8-32-1c-3.1,2.2-5.1,5.7-6.1,9.5c-15.3,0.3-22.8,0-40.1-0.1c-0.2-1.1,0.5-2.7,1.1-3.7
	c11.5-20.4,35.4-25,57.7-26.2C400.7,86,416,89.5,430,95"/>
<rect x="174.1" y="28.1" class="st0" width="43" height="144.5"/>
<path class="st0" d="M462.6,77.4L462.6,77.4c2.3-0.5,3.6-2.1,3.6-4.2c0-4-3.3-4.9-6.6-4.9h-5.7v17.8h2.8v-7.7v-0.1h2.2
	c1,0.1,1.9,0,2.6,0.7c0.8,0.9,0.8,2.3,1,3.8c0.1,1.1,0.4,2.2,0.6,3.2h3.5c-0.6-1.6-0.8-3.4-1-5.1C465.3,79,465,77.9,462.6,77.4z
	 M459.7,75.6h-2.9v-4.5h3.3c2.2,0,2.8,0.7,2.8,2C462.9,74.4,462.3,75.5,459.7,75.6z"/>
<path class="st0" d="M459.9,62.3c-8.4,0-15.1,6.8-15.1,15.1c0,8.4,6.7,15.1,15.1,15.1c8.4,0,15.1-6.7,15.1-15.1
	C475,69.1,468.3,62.3,459.9,62.3z M460,89.9c-6.9,0-12.5-5.6-12.5-12.5c0-6.8,5.6-12.4,12.5-12.4c6.9,0,12.4,5.6,12.4,12.4
	C472.4,84.3,466.8,89.9,460,89.9z"/>
</svg>
