<?xml version="1.0" encoding="utf-8"?>
<!-- Generator: Adobe Illustrator 19.1.0, SVG Export Plug-In . SVG Version: 6.00 Build 0)  -->
<svg version="1.1" id="Calque_1" xmlns="http://www.w3.org/2000/svg" xmlns:xlink="http://www.w3.org/1999/xlink" x="0px" y="0px"
	 viewBox="0 0 500 500" style="enable-background:new 0 0 500 500;" xml:space="preserve">
<style type="text/css">
	.st0{fill:#E2001A;}
	.st1{fill:#FFFFFF;}
</style>
<g>
	<polygon points="427.2,350.9 101.7,476.2 101.7,176.6 427.2,51.2 	"/>
	<polygon class="st0" points="397.6,325.9 72.1,451.2 72.1,151.6 397.6,26.2 	"/>
	<polygon class="st1" points="397.6,83.1 72.1,208.4 72.1,192.6 397.6,67.3 	"/>
	<polygon class="st1" points="397.6,287.7 72.1,413 72.1,397.1 397.6,271.8 	"/>
	<path class="st0" d="M246.6,239.7c0,0-2.4-18.2-0.3-27.7c2.1-9.5,8.9-20.5,12.1-20.5c3.2,0,2.6,14.2-1.1,26.8
		C253.7,231,246.6,239.7,246.6,239.7z"/>
	<path class="st0" d="M204.2,250.6c0,0-2.4-18.2-0.3-27.7s8.9-20.5,12.1-20.5c3.2,0,2.6,14.2-1.1,26.8
		C211.3,241.8,204.2,250.6,204.2,250.6z"/>
	<path class="st0" d="M291,241.5c0,0-5.8-9.5,6.3-23.7c12.1-14.2,16.8-6.3,11.6,5.2C303.6,234.7,295.7,241,291,241.5z"/>
	<g>
		<path d="M414,26.2c5.4,0,9.7,4.4,9.7,9.9c0,5.6-4.3,10-9.8,10c-5.4,0-9.8-4.4-9.8-10C404.1,30.6,408.6,26.2,414,26.2
			C414,26.2,414,26.2,414,26.2z M414,27.7c-4.4,0-7.9,3.7-7.9,8.4c0,4.7,3.6,8.4,8,8.4c4.4,0,7.9-3.7,7.9-8.4
			C422,31.5,418.4,27.7,414,27.7L414,27.7L414,27.7z M412.1,41.9h-1.8V30.8c0.9-0.1,1.8-0.3,3.1-0.3c1.7,0,2.8,0.4,3.4,0.8
			c0.7,0.5,1,1.2,1,2.3c0,1.5-1,2.3-2.2,2.7v0.1c1,0.2,1.6,1.1,1.9,2.7c0.3,1.7,0.5,2.4,0.7,2.7h-1.9c-0.2-0.4-0.5-1.4-0.7-2.8
			c-0.3-1.4-1-1.9-2.4-1.9h-1.2L412.1,41.9L412.1,41.9z M412.1,35.8h1.3c1.4,0,2.7-0.5,2.7-1.9c0-1-0.7-1.9-2.7-1.9
			c-0.6,0-1,0-1.3,0.1V35.8z"/>
	</g>
</g>
<g>
	<path class="st1" d="M186,284.2c-14.1,26.6-31.4,43.9-51.9,51.8c-5.9,2.3-10.8,3.3-14.6,2.9c-3.8-0.4-6.2-2-7.3-4.8
		c-1.3-3.3-0.5-7.9,2.3-13.9c2.8-6,7.3-12.6,13.6-19.8c4.3-4.8,8.3-8.7,12.1-11.8c3.8-3.1,7.2-5.6,10.1-7.4c2.9-1.8,6.9-4.2,12-7.2
		c3.3-1.9,5.4-4.6,6.5-8.1c1-3.6,1.2-6.4,0.3-8.5c-0.6-1.7-2-2.4-3.9-2.2c-2,0.2-6.1,1.5-12.3,4c-8.5,3.3-15.8,6-21.6,8.1
		c-5.9,2.1-10.9,3.6-15,4.6c-4.1,1-7.2,1.4-9.3,1.2c-2.1-0.2-3.4-1-4-2.4c-1-2.7,0.6-7.1,4.9-13.2c4.3-6.2,10-12.3,17.2-18.3
		c7.2-6,14.4-10.4,21.5-13.2c4.6-1.8,8.4-2.7,11.4-2.6c-2.1,3.4-3.8,6.2-5,8.4c-1.2,2.2-2.2,5.2-3.2,9.2c4.1-5.9,8.6-11.4,13.6-16.5
		c5-5.1,7.8-8.2,8.5-9.2c0.7-1,0.6-2.7-0.3-5.1l-2.3-5.9c-1.2-3.2-2.3-5.4-3.2-6.4c-0.9-1-2.7-1.4-5.5-1.2
		c-2.8,0.2-7.4,1.6-13.7,4.1c-11,4.3-20.7,9.4-29,15.4c-8.3,6-14.9,12.3-19.9,18.9c-5,6.6-8.3,13-9.9,19.4c-1.6,6.4-1.5,12.1,0.4,17
		c1.5,3.9,4,7,7.4,9.3c3.4,2.3,7.5,3.3,12.1,3c4.4-0.4,8.5-1.1,12.2-2.1c3.7-1,7.9-2.4,12.7-4.2c4.7-1.8,8-2.9,9.8-3.4
		c1.8-0.5,2.9-0.5,3.1,0.2c0.2,0.6-0.3,1.4-1.7,2.3c-9.7,6-18,12.3-24.7,18.8c-6.7,6.5-11.9,12.9-15.5,19.1
		c-3.6,6.2-5.8,12.1-6.6,17.6c-0.8,5.5-0.3,10.6,1.5,15.2c2.5,6.3,7,10.4,13.8,12.2c6.7,1.8,14.1,1.2,22.1-1.9
		c6.9-2.7,14-6.4,21.2-11.3c7.2-4.8,13.5-10,19-15.6c5.5-5.6,9.3-10.7,11.5-15.3c2.6-5.5,3.8-10.7,3.5-15.5
		C189.6,295,188.3,289.8,186,284.2z"/>
	<path class="st1" d="M394,210.9c-4,6.7-7,11.5-9,14.3c-2,2.8-3.8,4.5-5.5,5.2c-2,0.8-3.5-0.1-4.5-2.5c-1.7-4.4,0.3-14.3,6.1-29.5
		c1.5-3.6,2-6,1.5-7.2c-1-2.6-2.4-5-4.3-7.2c-1.9-2.2-3.3-3.1-4.2-2.8c-2,0.8-4.1,2.8-6.4,6.1c-4.1,5.8-7.5,11.4-10.3,17
		c-2.8,5.6-5,10.8-6.8,15.6c-1.8,4.8-3.2,8.7-4.3,11.7c-1.1,3-2,4.6-2.7,4.9c-1.1,0.4-2-0.2-2.6-1.9c-1.2-3,0.9-11.3,6.1-24.9
		c0.8-2,1.3-3.4,1.6-4.1c0.2-0.7,0.4-1.4,0.5-2.2c0.1-0.8,0-1.4-0.2-2c-0.5-1.3-1.5-2.1-2.8-2.3c-1.4-0.2-3,0.1-4.8,0.8
		c-2.7,1-4.9,3.5-6.6,7.5c-1.8,4-3.5,9.8-5.1,17.4c-0.9,4.1-1.3,7.2-1.3,9.3c0,0.9,0.1,1.9,0.3,3.1c-2.7,5.1-5.2,9.2-7.2,12.4
		c-2.2,3.4-4.5,6.3-7,8.8c-2.5,2.5-5.2,4.3-8,5.4c-2.7,1-5.3,0.9-7.7-0.3c-2.4-1.3-4.3-3.6-5.6-7l-0.8-2.2
		c6.9-6.4,12.4-12.5,16.6-18.2c4.2-5.7,6.9-10.9,8.3-15.5c1.3-4.7,1.3-8.8-0.1-12.4c-1-2.5-2.5-4-4.5-4.7c-2.1-0.6-4.5-0.4-7.2,0.6
		c-3.4,1.3-6.9,3.8-10.5,7.3s-6.9,8.1-9.8,13.5c-4.3,8-6.9,14.9-7.8,21c-0.5,3.4-0.5,6.8,0,10.2c-3.2,6.6-5.4,11-6.6,13.3
		c-1.2,2.4-2.4,4.5-3.7,6.2c-1.2,1.8-2.6,2.9-4,3.5c-2.8,1.1-5.5,0.8-8-0.9c-2.5-1.7-4.4-4.4-5.9-8.1c-0.6-1.6-1.2-4-1.8-7.3
		c6.9-16.7,11.4-32.1,13.4-46.3c2-14.2,1.4-25.3-1.7-33.3c-1-2.6-1.9-4.3-2.7-5.3c-0.8-0.9-1.8-1.1-3-0.7c-1,0.4-2.1,1.4-3.5,3.1
		c-3.3,4.1-6.3,10.3-8.9,18.4c-2.6,8.1-4.6,17.3-6,27.4c-1.4,10.1-1.9,19.8-1.6,29c0.3,7,1.1,13,2.5,18.1c-2.8,5.8-4.8,9.7-5.8,11.8
		c-1.2,2.4-2.4,4.5-3.7,6.2c-1.2,1.8-2.6,2.9-4,3.5c-2.8,1.1-5.5,0.8-8-0.9c-2.5-1.7-4.4-4.4-5.9-8.1c-0.6-1.6-1.2-4-1.8-7.3
		c6.9-16.7,11.4-32.1,13.4-46.3c2-14.2,1.4-25.3-1.7-33.3c-1-2.6-1.9-4.3-2.7-5.3c-0.8-0.9-1.8-1.1-3-0.7c-1,0.4-2.1,1.4-3.5,3.1
		c-3.3,4.1-6.3,10.3-8.9,18.4c-2.6,8.1-4.6,17.3-6,27.4c-1.4,10.1-1.9,19.8-1.6,29c0.4,9.2,1.7,16.7,4,22.6
		c2.8,7.3,6.2,12.7,10.3,16.3c4.1,3.6,8.1,4.6,12.2,3c7.1-2.8,13.5-13.5,19.2-32.1c2.6,5.9,5.6,10.3,9.1,13.4
		c4.1,3.6,8.1,4.6,12.2,3c7.2-2.8,13.7-13.8,19.4-32.9c2.7,6.9,6.3,11.7,10.8,14.5c4.5,2.8,9.4,3.2,14.5,1.3c5.9-2.3,10.9-6.6,15-13
		c3.9-6.1,7.5-14.1,10.9-23.8c1.9,4.6,4.3,8.4,7.1,11.4c3.1,3.3,5.5,4.5,7.3,3.8c1.2-0.5,2.2-1.5,2.9-3.2c0.7-1.6,1.7-4.7,2.9-9.1
		c1.2-4.4,2.4-8.5,3.6-12.1c1.2-3.7,2.8-7.7,4.8-12c3-6.9,5.9-11.8,8.5-14.7c-0.9,5.6-1.8,10.6-2.4,15c-0.7,4.4-1.2,7.8-1.4,10.1
		c-0.3,2.3-0.3,4.5-0.2,6.5c0.1,2,0.5,3.9,1.2,5.8c2.4,6.2,6,8.4,10.7,6.6c2.8-1.1,5.7-4.2,8.7-9.5c3-5.3,7-13.5,12.1-24.8
		L394,210.9z M205.1,265.3c-1.5-9.2-1.6-18.9-0.5-29c1.1-10.1,2.9-17.3,5.3-21.5c0.7-1,1.3-1.6,1.6-1.7c0.9-0.4,1.6,0.1,2.2,1.5
		c0.7,1.7,1,4.6,0.9,8.5c-0.1,4-0.6,8.5-1.4,13.8c-0.8,5.2-1.9,10.3-3.3,15.1C208.6,256.8,207,261.2,205.1,265.3z M245.7,249.6
		c-1.5-9.2-1.6-18.9-0.5-29c1.1-10.1,2.9-17.3,5.3-21.5c0.7-1,1.3-1.6,1.6-1.7c0.9-0.4,1.6,0.1,2.2,1.5c0.7,1.7,1,4.6,0.9,8.5
		c-0.1,4-0.6,8.5-1.4,13.8c-0.8,5.2-1.9,10.3-3.3,15.1C249.2,241.1,247.6,245.5,245.7,249.6z M291,237.4c0.8-3.6,2-7,3.5-10
		c1.6-3.1,3.3-5.7,5.1-7.9c1.8-2.2,3.3-3.5,4.3-3.9c1.2-0.5,2.1,0,2.6,1.3c0.5,1.3,0.4,3.6-0.3,7c-0.7,3.4-2.3,7.3-4.8,11.8
		c-2.5,4.4-6,8.7-10.4,12.7C290.2,244.6,290.2,241,291,237.4z"/>
</g>
</svg>
