<?xml version="1.0" encoding="utf-8"?>
<!-- Generator: Adobe Illustrator 21.0.2, SVG Export Plug-In . SVG Version: 6.00 Build 0)  -->
<svg version="1.1" id="Calque_1" xmlns="http://www.w3.org/2000/svg" xmlns:xlink="http://www.w3.org/1999/xlink" x="0px" y="0px"
	 viewBox="0 0 500 174" style="enable-background:new 0 0 500 174;" xml:space="preserve">
<style type="text/css">
	.st0{fill:#1E549E;}
	.st1{fill:#FFDC00;}
</style>
<path class="st0" d="M177,75.4c-2.8-2.9-6.6-4.3-11.5-4.3c-4.3,0-7.9,1.4-10.7,4.2s-4.2,6.6-4.2,11.5c0,4.1,1.1,7.5,3.2,10.2
	c2.7,3.4,6.9,5,12.6,5c3.6,0,6.6-0.7,8.9-2.2c2.4-1.5,4.1-3.7,5.2-6.5l-8.6-1.3c-0.5,1.5-1.2,2.6-2.1,3.2c-0.9,0.7-2.1,1-3.4,1
	c-2,0-3.6-0.6-5-1.9c-1.3-1.3-2-3.1-2.1-5.4h21.6C181.2,82.7,179.9,78.3,177,75.4z M159.6,83.9c0-2.1,0.6-3.8,1.8-5.1
	c1.2-1.2,2.8-1.9,4.7-1.9c1.8,0,3.3,0.6,4.5,1.8s1.9,2.9,1.9,5.2H159.6L159.6,83.9z"/>
<rect x="196.3" y="61.7" class="st0" width="8.2" height="39.5"/>
<path class="st0" d="M260.7,73.1c-1.5-0.9-3.3-1.3-5.5-1.3c-1.7,0-3.3,0.4-4.8,1.1c-1.5,0.8-2.9,1.9-4.2,3.4c-0.9-1.5-2-2.7-3.4-3.4
	c-1.4-0.8-3-1.1-4.9-1.1c-3.6,0-6.6,1.5-9.2,4.6v-3.9h-7.2v28.6h7.8V87.2c0-2.8,0.2-4.7,0.6-5.9c0.4-1.2,1.1-2.1,2.1-2.7
	c1-0.6,2.1-0.9,3.3-0.9c1,0,1.8,0.2,2.4,0.6c0.6,0.4,1,1,1.3,1.8s0.4,2.6,0.4,5.4v15.7h7.8V87.4c0-2.7,0.2-4.7,0.6-5.9
	c0.4-1.2,1.1-2.2,2.1-2.8s2-1,3.1-1c1.5,0,2.6,0.5,3.3,1.6c0.5,0.8,0.8,2.7,0.8,5.5v16.4h7.8V82.9c0-2.7-0.3-4.7-0.8-5.9
	C263.3,75.2,262.2,74,260.7,73.1z"/>
<rect x="293.2" y="61.7" class="st0" width="8.2" height="39.5"/>
<path class="st0" d="M330.7,75.4c-2.7-2.9-6.3-4.3-10.9-4.3c-4.1,0-7.5,1.4-10.1,4.2s-4,6.6-4,11.5c0,4.1,1,7.5,3.1,10.2
	c2.6,3.4,6.6,5,11.9,5c3.4,0,6.2-0.7,8.5-2.2s3.9-3.7,5-6.5l-8.1-1.3c-0.4,1.5-1.1,2.6-2,3.2c-0.9,0.7-1.9,1-3.2,1
	c-1.9,0-3.4-0.6-4.7-1.9c-1.3-1.3-1.9-3.1-2-5.4h20.5C334.6,82.7,333.3,78.3,330.7,75.4z M314.2,83.9c0-2.1,0.6-3.8,1.7-5.1
	c1.2-1.2,2.6-1.9,4.4-1.9c1.7,0,3.1,0.6,4.2,1.8c1.2,1.2,1.8,2.9,1.8,5.2H314.2L314.2,83.9z"/>
<path class="st0" d="M356.4,72c-3.4,0-6.4,1.3-9,4V61.8h-8.2v39.5h7.6V97c1.2,1.6,2.7,2.8,4.4,3.6c1.7,0.8,3.5,1.2,5.2,1.2
	c3.6,0,6.6-1.3,9.1-4c2.5-2.6,3.8-6.4,3.8-11.3c0-4.7-1.2-8.4-3.7-10.9C363.3,73.2,360.2,72,356.4,72z M359.2,93.8
	c-1.3,1.4-2.8,2.1-4.6,2.1c-2.3,0-4.2-1-5.6-3c-1-1.4-1.5-3.6-1.5-6.6c0-2.9,0.6-5,1.9-6.4s2.9-2.1,4.9-2.1s3.6,0.7,4.9,2.2
	s1.9,3.8,1.9,7.1C361.1,90.1,360.4,92.3,359.2,93.8z"/>
<rect x="372.2" y="61.7" class="st0" width="8.2" height="39.5"/>
<path class="st0" d="M411,91.8l0.1-8.8c0-3.3-0.4-5.6-1.1-6.8s-2-2.2-3.8-3s-4.5-1.2-8.1-1.2c-4,0-7,0.7-9.1,2
	c-2,1.3-3.5,3.4-4.3,6.1l7.4,1.2c0.5-1.3,1.2-2.3,2-2.8s1.9-0.8,3.4-0.8c2.1,0,3.6,0.3,4.4,0.9c0.8,0.6,1.2,1.7,1.2,3.1v0.8
	c-1.5,0.6-4.1,1.2-7.9,1.9c-2.8,0.5-5,1.1-6.5,1.8s-2.7,1.6-3.5,2.9c-0.8,1.3-1.2,2.7-1.2,4.3c0,2.4,0.9,4.5,2.7,6.1
	s4.3,2.4,7.5,2.4c1.8,0,3.5-0.3,5.1-0.9s3.1-1.6,4.5-2.8c0.1,0.1,0.2,0.4,0.3,0.9c0.3,1,0.6,1.7,0.8,2.2h8.1
	c-0.7-1.4-1.2-2.6-1.5-3.8C411.1,96.2,411,94.3,411,91.8z M403,89c0,1.8-0.1,3-0.3,3.7c-0.3,1-1,1.8-1.9,2.5
	c-1.3,0.9-2.7,1.4-4.2,1.4c-1.3,0-2.4-0.4-3.3-1.2c-0.9-0.8-1.3-1.7-1.3-2.7c0-1.1,0.5-2,1.6-2.7c0.7-0.4,2.2-0.9,4.4-1.3
	c2.3-0.4,3.9-0.8,5-1.2L403,89L403,89z"/>
<path class="st0" d="M440.7,75.2c-0.7-0.9-1.8-1.7-3.2-2.3c-1.4-0.6-3-0.9-4.7-0.9c-3.9,0-7.1,1.6-9.7,4.9v-4.2h-7.2v28.6h7.8v-13
	c0-3.2,0.2-5.4,0.6-6.6c0.4-1.2,1.1-2.1,2.2-2.9c1.1-0.7,2.3-1.1,3.6-1.1c1,0,1.9,0.3,2.7,0.8c0.7,0.5,1.3,1.2,1.6,2.1
	c0.3,0.9,0.5,2.9,0.5,6v14.6h7.8V83.4c0-2.2-0.1-3.9-0.4-5.1C441.9,77.2,441.4,76.1,440.7,75.2z"/>
<path class="st0" d="M467,90.3c-0.4,2-1.1,3.4-2.1,4.2s-2.3,1.2-3.8,1.2c-2.1,0-3.7-0.7-5-2.1c-1.2-1.4-1.8-3.8-1.8-7.2
	c0-3.1,0.6-5.2,1.8-6.5c1.2-1.3,2.8-2,4.9-2c1.5,0,2.8,0.4,3.7,1.1c1,0.8,1.6,1.9,1.8,3.4l8.1-1.3c-1-3.1-2.6-5.4-4.8-6.9
	c-2.2-1.5-5.2-2.3-9-2.3c-4.6,0-8.2,1.3-10.9,4c-2.7,2.6-4,6.3-4,11s1.3,8.3,4,11s6.3,4,10.8,4c4,0,7.1-0.9,9.5-2.6s4-4.3,4.8-7.7
	L467,90.3z"/>
<circle class="st0" cx="187.8" cy="97" r="4.9"/>
<circle class="st0" cx="213.5" cy="97" r="4.9"/>
<circle class="st0" cx="273.3" cy="97" r="4.9"/>
<path class="st0" d="M163.6,139.3h4.4v2.2c-0.9,0.6-1.6,1-2.3,1.2s-1.4,0.4-2.1,0.4c-1.6,0-2.8-0.5-3.6-1.6s-1.3-2.9-1.3-5.5
	c0-2.4,0.4-4.2,1.3-5.3c0.9-1.1,2-1.7,3.5-1.7c1,0,1.8,0.2,2.4,0.7s1.1,1.2,1.3,2.1l6.4-1.3c-0.4-1.5-1-2.8-1.7-3.8
	c-0.8-1-1.8-1.7-2.9-2.2c-1.2-0.5-2.9-0.7-5.3-0.7c-2.5,0-4.4,0.4-5.9,1.1c-1.9,1-3.3,2.4-4.2,4.4c-1,1.9-1.4,4.2-1.4,6.8
	c0,2.5,0.4,4.6,1.3,6.5c0.9,1.9,2.1,3.3,3.7,4.3c1.6,1,3.7,1.4,6.2,1.4c2.1,0,3.9-0.3,5.4-0.8c0,0,0,0,0.1,0v0.8h5.1v-3.8V138v-3.6
	h-10.2L163.6,139.3L163.6,139.3z"/>
<path class="st0" d="M184.7,131c-0.6,0.5-1.1,1.3-1.7,2.5v-2.8h-5.6v17.2h6v-5.8c0-2.7,0.3-4.6,0.9-5.6c0.4-0.7,1-1.1,1.8-1.1
	c0.4,0,1,0.2,1.7,0.5l1.8-4.7c-1-0.6-2-0.9-2.9-0.9C185.9,130.4,185.2,130.6,184.7,131z"/>
<path class="st0" d="M199.3,130.4c-2.7,0-4.9,0.9-6.5,2.5s-2.4,3.9-2.4,6.5c0,2.8,0.9,5.1,2.8,6.8c1.5,1.4,3.6,2.1,6.1,2.1
	c2.8,0,5-0.8,6.6-2.5s2.4-3.9,2.4-6.5c0-2.4-0.6-4.3-1.9-5.9C204.8,131.4,202.4,130.4,199.3,130.4z M201.4,142.8
	c-0.6,0.7-1.3,1.1-2.1,1.1s-1.6-0.4-2.1-1.1c-0.6-0.7-0.8-1.9-0.8-3.4s0.3-2.6,0.8-3.4c0.6-0.7,1.3-1.1,2.1-1.1s1.5,0.4,2.1,1.1
	s0.8,1.8,0.8,3.3C202.3,140.9,202,142.1,201.4,142.8z"/>
<path class="st0" d="M221.5,139c0,1.6-0.2,2.6-0.7,3.3c-0.5,0.6-1,0.9-1.7,0.9s-1.2-0.2-1.5-0.7c-0.4-0.5-0.5-1.2-0.5-2.3v-9.4h-6
	v10.9c0,2.3,0.5,3.9,1.4,5s2.2,1.6,3.9,1.6c1.2,0,2.3-0.2,3.1-0.7s1.7-1.3,2.5-2.4v2.8h5.6v-17.2h-6L221.5,139L221.5,139z"/>
<path class="st0" d="M241.7,130.4c-1.1,0-2,0.3-2.9,0.8c-0.6,0.4-1.4,1.1-2.1,2.2v-2.5h-5.6v23.7h6v-8.2c0.6,0.7,1.3,1.2,2,1.5
	c0.8,0.3,1.6,0.5,2.5,0.5c1.9,0,3.5-0.8,4.7-2.3s1.9-3.7,1.9-6.5c0-2.6-0.6-4.8-1.7-6.5C245.4,131.2,243.8,130.4,241.7,130.4z
	 M241.6,142.4c-0.5,0.6-1,1-1.7,1c-0.8,0-1.4-0.3-2-1s-0.8-1.7-0.8-3c0-1.5,0.3-2.5,0.8-3.2s1.1-1,1.9-1c0.7,0,1.3,0.3,1.8,1
	s0.7,1.7,0.7,3.1C242.3,140.8,242,141.8,241.6,142.4z"/>
<path class="st0" d="M264.4,131.5c-1.3-0.7-3-1.1-5.3-1.1c-2.7,0-4.9,0.8-6.4,2.5c-1.6,1.7-2.3,3.8-2.3,6.5c0,1.9,0.4,3.5,1.2,4.9
	s1.8,2.4,2.9,3.1c1.2,0.6,2.8,1,4.9,1c2.4,0,4.2-0.4,5.5-1.1s2.4-2,3.2-3.7l-5.9-0.6c-0.4,0.5-0.7,0.9-1,1.1
	c-0.5,0.3-1.1,0.5-1.7,0.5c-0.9,0-1.7-0.4-2.3-1.1c-0.4-0.5-0.7-1.3-0.8-2.4h11.9v-0.7c0-2.3-0.3-4.1-1-5.5
	C266.6,133.3,265.7,132.2,264.4,131.5z M256.4,137.8c0.1-1,0.3-1.8,0.7-2.3c0.6-0.8,1.3-1.2,2.3-1.2c0.8,0,1.5,0.3,2,0.8
	s0.8,1.5,0.9,2.7H256.4L256.4,137.8z"/>
<path class="st0" d="M296.8,135.3c1-0.4,1.8-0.9,2.3-1.6c0.8-1,1.2-2.2,1.2-3.6c0-1.7-0.6-3.1-1.7-4.2s-2.7-1.7-4.8-1.7h-12.4v23.7
	h11.4c0.5,0,1.5-0.1,3-0.3c1.1-0.2,2-0.4,2.5-0.8c0.9-0.6,1.6-1.4,2.1-2.3c0.5-1,0.8-2.1,0.8-3.3c0-1.5-0.4-2.8-1.1-3.8
	C299.5,136.4,298.3,135.7,296.8,135.3z M288.1,129h2.9c1,0,1.7,0.2,2.1,0.6s0.6,0.9,0.6,1.6s-0.2,1.3-0.6,1.7
	c-0.4,0.4-1.1,0.6-2.2,0.6H288V129H288.1z M293.9,142.2c-0.5,0.4-1.3,0.7-2.4,0.7h-3.4V138h3.4c1.2,0,2,0.2,2.4,0.6
	c0.5,0.4,0.7,1,0.7,1.7C294.6,141.1,294.4,141.7,293.9,142.2z"/>
<path class="st0" d="M312.5,130.4c-2.7,0-4.9,0.9-6.5,2.5c-1.6,1.7-2.4,3.9-2.4,6.5c0,2.8,0.9,5.1,2.8,6.8c1.5,1.4,3.6,2.1,6.1,2.1
	c2.8,0,5-0.8,6.6-2.5s2.4-3.9,2.4-6.5c0-2.4-0.6-4.3-1.9-5.9C318,131.4,315.6,130.4,312.5,130.4z M314.7,142.8
	c-0.6,0.7-1.3,1.1-2.1,1.1c-0.8,0-1.6-0.4-2.1-1.1c-0.6-0.7-0.8-1.9-0.8-3.4s0.3-2.6,0.8-3.4c0.6-0.7,1.3-1.1,2.1-1.1
	c0.8,0,1.5,0.4,2.1,1.1s0.8,1.8,0.8,3.3C315.5,140.9,315.2,142.1,314.7,142.8z"/>
<path class="st0" d="M336.8,137.8c-1-0.4-2.4-0.8-4.4-1c-1.3-0.2-2.2-0.4-2.5-0.6c-0.4-0.2-0.6-0.5-0.6-1c0-0.4,0.2-0.7,0.5-1
	s0.8-0.4,1.5-0.4s1.2,0.2,1.7,0.5c0.3,0.3,0.6,0.7,0.7,1.2l5.6-0.6c-0.4-1.1-0.9-2-1.5-2.7s-1.3-1.1-2.2-1.5
	c-0.9-0.3-2.2-0.5-4.1-0.5c-1.8,0-3.2,0.2-4.2,0.6s-1.9,1-2.5,1.8s-0.9,1.8-0.9,2.9c0,1,0.3,2,0.8,2.8c0.6,0.8,1.2,1.4,2,1.7
	c0.8,0.3,2.2,0.7,4.3,1.1c1.4,0.3,2.2,0.5,2.6,0.7c0.4,0.3,0.7,0.6,0.7,1.1c0,0.4-0.2,0.8-0.5,1c-0.4,0.4-1.1,0.6-1.9,0.6
	c-0.7,0-1.3-0.2-1.8-0.5c-0.4-0.3-0.8-0.9-1-1.7l-5.9,0.6c0.3,1.6,1.1,2.9,2.3,3.8c1.2,0.9,3.2,1.3,6.1,1.3c2,0,3.6-0.3,4.8-0.8
	c1.2-0.6,2-1.3,2.6-2.2c0.5-0.9,0.8-1.9,0.8-2.9s-0.3-1.9-0.8-2.7C338.5,138.8,337.8,138.2,336.8,137.8z"/>
<path class="st0" d="M353,143.2c-0.5,0.4-1.2,0.7-2,0.7c-0.9,0-1.7-0.4-2.3-1.1s-0.9-1.8-0.9-3.2c0-1.6,0.3-2.8,0.9-3.5
	c0.6-0.8,1.4-1.2,2.4-1.2c0.8,0,1.4,0.2,1.9,0.6s0.8,0.9,1,1.7l5.6-0.8c-0.5-1.9-1.5-3.4-2.8-4.4s-3.3-1.5-5.8-1.5
	c-1.8,0-3.3,0.3-4.5,0.8c-0.7,0.3-1.4,0.8-2.1,1.5s-1.2,1.5-1.6,2.3c-0.5,1.2-0.8,2.6-0.8,4.4c0,1.7,0.2,3,0.7,4.1
	c0.5,1,1.1,1.9,1.9,2.7c0.8,0.8,1.7,1.3,2.8,1.6c1.1,0.3,2.5,0.5,4.1,0.5c1.7,0,3.1-0.3,4.2-0.8s2-1.3,2.7-2.2
	c0.7-1,1.2-2.1,1.5-3.4l-5.7-0.7C354,142.1,353.6,142.8,353,143.2z"/>
<path class="st0" d="M377.1,132c-0.9-1.1-2.2-1.6-3.8-1.6c-1.1,0-2,0.2-2.8,0.6s-1.6,1.1-2.4,2v-8.7h-6V148h6v-8.2
	c0-1.6,0.2-2.6,0.7-3.3c0.4-0.6,1-0.9,1.8-0.9c0.7,0,1.2,0.2,1.5,0.7c0.4,0.4,0.5,1.2,0.5,2.3v9.4h6v-11
	C378.5,134.8,378.1,133.1,377.1,132z"/>
<rect x="25" y="34.1" class="st0" width="95.3" height="95.5"/>
<path class="st1" d="M39.9,19.5V115h95.3V19.5H39.9L39.9,19.5z M54.8,101.9c0-18.1,14.6-32.7,32.7-32.7s32.7,14.6,32.7,32.7H54.8z"
	/>
</svg>
