<?xml version="1.0" encoding="utf-8"?>
<!-- Generator: Adobe Illustrator 16.0.0, SVG Export Plug-In . SVG Version: 6.00 Build 0)  -->
<!DOCTYPE svg PUBLIC "-//W3C//DTD SVG 1.1//EN" "http://www.w3.org/Graphics/SVG/1.1/DTD/svg11.dtd">
<svg version="1.1" id="Calque_2" xmlns="http://www.w3.org/2000/svg" xmlns:xlink="http://www.w3.org/1999/xlink" x="0px" y="0px"
	 width="500px" height="500px" viewBox="0 0 500 500" enable-background="new 0 0 500 500" xml:space="preserve">
<g>
	<path d="M289.138,245.414c6.796,0,16.523,2.224,22.568,9.551l-4.376,3.331c-4.372-5.462-11.448-7.538-18.192-7.538
		c-10.811,0-22.479,5.346-22.479,21.372v16.034c0,16.034,11.241,21.375,22.479,21.375c6.989,0,13.976-2.065,18.265-7.482
		l4.414,3.358c-5.903,7.259-15.448,9.466-22.679,9.466c-11.237,0-28.1-5.342-28.1-26.717V272.13
		C261.038,250.758,278.613,245.414,289.138,245.414"/>
	<path d="M86.819,314.881v-69.465h5.617l0.003,10.688c0,0,5.621-10.688,19.668-10.688c11.245,0,19.672,5.342,22.482,13.356
		c2.811-8.014,11.238-13.356,22.479-13.356c11.237,0,25.289,5.342,25.289,26.718v42.747h-5.62v-42.747
		c0-16.03-11.238-21.376-19.668-21.376c-8.431,0-19.668,5.346-19.672,21.376l0.003,42.747h-5.621v-42.747
		c0-16.03-11.241-21.376-19.672-21.376c-8.427,0-19.668,5.346-19.668,21.376v42.747H86.819z"/>
	<path d="M249.797,245.414v69.467h-5.617l-0.003-10.689c0,0-5.617,10.689-22.479,10.689c-11.238,0-28.1-5.342-28.1-26.717v-42.75
		h5.617v42.75c0,16.027,11.245,21.375,22.482,21.375c11.241,0,22.479-5.348,22.479-21.375v-42.75H249.797z"/>
	<path d="M41.861,282.819c-11.237,0-11.237,5.345-11.237,5.345c0,16.027,11.237,21.375,22.475,21.375
		c6.993,0,13.979-2.065,18.269-7.482l4.414,3.358c-5.903,7.259-15.455,9.466-22.682,9.466c-11.238,0-28.099-5.342-28.099-26.717
		V272.13c0-21.372,16.861-26.716,28.099-26.716h2.81c8.435,0,19.672,5.344,19.672,18.703c0,13.362-11.237,18.703-19.672,18.703
		H41.861z M30.624,282.819c0,0,0-5.345,11.237-5.341h14.048c5.624,0,14.051-2.673,14.051-13.362s-8.427-13.358-14.051-13.358h-2.81
		c-11.238,0-22.475,5.346-22.475,21.372V282.819z"/>
	<path d="M353.936,277.475c11.238,0,11.238-5.341,11.238-5.341c0-16.034-11.238-21.376-22.476-21.376
		c-6.993,0-13.979,2.066-18.269,7.483l-4.414-3.358c5.903-7.261,15.452-9.467,22.683-9.467c11.237,0,28.1,5.342,28.1,26.718v16.03
		c0,21.379-16.862,26.717-28.1,26.717h-2.813c-8.431,0-19.669-5.345-19.669-18.703s11.238-18.703,19.669-18.703H353.936z
		 M365.174,277.475c0,0,0,5.345-11.241,5.345h-14.048c-5.621,0-14.048,2.673-14.048,13.358c0,10.689,8.427,13.358,14.048,13.358
		h2.813c11.237,0,22.476-5.341,22.476-21.372V277.475z"/>
	<path fill="#FABB00" d="M435.972,186.062c8.39-2.907,17.113,1.231,19.53,7.997c4.021,11.253-5.534,15.713-3.793,24.194
		c1.82,8.863,17.645,9.22,21.403,12.789c3.196,3.045,1.951,6.543-0.89,7.526c-4.27,1.472-37.865-0.45-47.33-25.184
		C419.906,200.354,426.744,189.253,435.972,186.062 M435.765,198.903c-0.486,2.624,1.355,5.124,4.114,5.586
		c2.758,0.462,5.389-1.288,5.875-3.912c0.486-2.625-1.355-5.124-4.113-5.586C438.882,194.529,436.251,196.28,435.765,198.903"/>
	<path fill="#FABB00" d="M423.455,265.062c-8.394,2.903-17.117-1.231-19.531-7.996c-4.023-11.253,5.527-15.714,3.793-24.194
		c-1.82-8.862-17.644-9.223-21.402-12.793c-3.203-3.04-1.952-6.54,0.89-7.521c4.266-1.476,37.857,0.448,47.326,25.179
		C439.52,250.769,432.682,261.868,423.455,265.062"/>
</g>
</svg>
