<?xml version="1.0" encoding="utf-8"?>
<!-- Generator: Adobe Illustrator 19.1.0, SVG Export Plug-In . SVG Version: 6.00 Build 0)  -->
<svg version="1.1" id="Calque_2" xmlns="http://www.w3.org/2000/svg" xmlns:xlink="http://www.w3.org/1999/xlink" x="0px" y="0px"
	 viewBox="0 0 500 500" style="enable-background:new 0 0 500 500;" xml:space="preserve">
<style type="text/css">
	.st0{fill:#FABB00;}
</style>
<g>
	<path d="M289.1,245.4c6.8,0,16.5,2.2,22.6,9.6l-4.4,3.3c-4.4-5.5-11.4-7.5-18.2-7.5c-10.8,0-22.5,5.3-22.5,21.4v16
		c0,16,11.2,21.4,22.5,21.4c7,0,14-2.1,18.3-7.5l4.4,3.4c-5.9,7.3-15.4,9.5-22.7,9.5c-11.2,0-28.1-5.3-28.1-26.7v-16
		C261,250.8,278.6,245.4,289.1,245.4"/>
	<path d="M86.8,314.9v-69.5h5.6l0,10.7c0,0,5.6-10.7,19.7-10.7c11.2,0,19.7,5.3,22.5,13.4c2.8-8,11.2-13.4,22.5-13.4
		c11.2,0,25.3,5.3,25.3,26.7v42.7h-5.6v-42.7c0-16-11.2-21.4-19.7-21.4c-8.4,0-19.7,5.3-19.7,21.4l0,42.7h-5.6v-42.7
		c0-16-11.2-21.4-19.7-21.4c-8.4,0-19.7,5.3-19.7,21.4v42.7H86.8z"/>
	<path d="M249.8,245.4v69.5h-5.6l0-10.7c0,0-5.6,10.7-22.5,10.7c-11.2,0-28.1-5.3-28.1-26.7v-42.8h5.6v42.8
		c0,16,11.2,21.4,22.5,21.4c11.2,0,22.5-5.3,22.5-21.4v-42.8H249.8z"/>
	<path d="M41.9,282.8c-11.2,0-11.2,5.3-11.2,5.3c0,16,11.2,21.4,22.5,21.4c7,0,14-2.1,18.3-7.5l4.4,3.4c-5.9,7.3-15.5,9.5-22.7,9.5
		c-11.2,0-28.1-5.3-28.1-26.7v-16c0-21.4,16.9-26.7,28.1-26.7h2.8c8.4,0,19.7,5.3,19.7,18.7c0,13.4-11.2,18.7-19.7,18.7L41.9,282.8
		L41.9,282.8z M30.6,282.8c0,0,0-5.3,11.2-5.3h14c5.6,0,14.1-2.7,14.1-13.4s-8.4-13.4-14.1-13.4h-2.8c-11.2,0-22.5,5.3-22.5,21.4
		C30.6,272.1,30.6,282.8,30.6,282.8z"/>
	<path d="M353.9,277.5c11.2,0,11.2-5.3,11.2-5.3c0-16-11.2-21.4-22.5-21.4c-7,0-14,2.1-18.3,7.5l-4.4-3.4c5.9-7.3,15.5-9.5,22.7-9.5
		c11.2,0,28.1,5.3,28.1,26.7v16c0,21.4-16.9,26.7-28.1,26.7h-2.8c-8.4,0-19.7-5.3-19.7-18.7s11.2-18.7,19.7-18.7H353.9z
		 M365.2,277.5c0,0,0,5.3-11.2,5.3h-14c-5.6,0-14,2.7-14,13.4c0,10.7,8.4,13.4,14,13.4h2.8c11.2,0,22.5-5.3,22.5-21.4V277.5z"/>
	<path class="st0" d="M436,186.1c8.4-2.9,17.1,1.2,19.5,8c4,11.3-5.5,15.7-3.8,24.2c1.8,8.9,17.6,9.2,21.4,12.8c3.2,3,2,6.5-0.9,7.5
		c-4.3,1.5-37.9-0.4-47.3-25.2C419.9,200.4,426.7,189.3,436,186.1 M435.8,198.9c-0.5,2.6,1.4,5.1,4.1,5.6c2.8,0.5,5.4-1.3,5.9-3.9
		c0.5-2.6-1.4-5.1-4.1-5.6C438.9,194.5,436.3,196.3,435.8,198.9"/>
	<path class="st0" d="M423.5,265.1c-8.4,2.9-17.1-1.2-19.5-8c-4-11.3,5.5-15.7,3.8-24.2c-1.8-8.9-17.6-9.2-21.4-12.8
		c-3.2-3-2-6.5,0.9-7.5c4.3-1.5,37.9,0.4,47.3,25.2C439.5,250.8,432.7,261.9,423.5,265.1"/>
</g>
</svg>
