<?xml version="1.0" encoding="utf-8"?>
<!-- Generator: Adobe Illustrator 19.1.0, SVG Export Plug-In . SVG Version: 6.00 Build 0)  -->
<svg version="1.1" id="Calque_2" xmlns="http://www.w3.org/2000/svg" xmlns:xlink="http://www.w3.org/1999/xlink" x="0px" y="0px"
	 viewBox="0 0 500 500" style="enable-background:new 0 0 500 500;" xml:space="preserve">
<style type="text/css">
	.st0{fill:#FFED00;}
</style>
<g>
	<rect x="25" y="108.5" class="st0" width="450" height="283.1"/>
	<polygon points="130.7,207.1 130.7,193.5 196.9,149 435.3,149 435.3,162.6 369.1,207.1 	"/>
	<polygon points="64.9,352.2 64.9,338.5 131.1,294.1 369.5,294.1 369.5,307.6 303.3,352.2 	"/>
	<polygon points="179.8,228.9 179.8,214.8 146.3,214.8 137.2,214.8 130.7,214.8 130.7,285.2 137.2,285.2 146.3,285.2 179.8,285.2 
		179.8,271.1 146.3,271.1 146.3,256.2 179.8,256.2 179.8,242.2 146.3,242.2 146.3,228.9 	"/>
	<path d="M294.7,285.2h15.9l-24.1-70.3h-1.9h-14.1h-1.9l-24.1,70.3h15.9l4.9-14.3h24.4L294.7,285.2z M270.2,256.8l7.4-21.4l7.4,21.4
		H270.2z"/>
	<path d="M358.4,247.5c6.3-1.8,11-7.6,11-14.5v-3.1c0-8.3-6.8-15-15-15h-22.1h-1.6h-15.5v70.3h15.5h3.2h19.8
		c9.9,0,18.1-8.1,18.1-18.1v-2.2C371.7,256.6,366,249.6,358.4,247.5z M330.7,228.1h9h4.9h2.6c3.8,0,6.9,3,6.9,6.7v0.8
		c0,3.7-3.1,6.7-6.9,6.7h-2.6h-4.9h-9V228.1z M355.8,264c0,4.3-4.9,7.9-11,7.9h-12.1c-0.7,0-1.4-0.1-2.1-0.1v-16.5
		c0.7-0.1,1.4-0.1,2.1-0.1h12.1c6,0,11,3.5,11,7.9V264z"/>
	<path d="M243.3,237.5c0,0,1.2-25.4-27.1-25.4s-28,20.8-28,24.1c0,3.3,1.7,15.7,17.5,18.6c15.9,3,24.7,3.8,24.7,11.4
		S218.9,275,216,275s-14.1,0.5-14.1-13.4h-15.3c0,0-1.9,26,29.4,26s29.2-24.1,29.2-24.1s0.7-14.9-14.8-19.2s-26.8-3.3-26.8-11.3
		s12.3-8,12.3-8s12.8,0.4,12.8,12.3L243.3,237.5z"/>
	<g>
		<path d="M435,223.2c0,5.1-4,9.1-9.2,9.1c-5.1,0-9.2-4-9.2-9.1c0-5,4.1-9,9.2-9C431,214.3,435,218.3,435,223.2z M418.8,223.2
			c0,4,3,7.2,7,7.2c3.9,0,6.8-3.2,6.8-7.1c0-4-2.9-7.2-6.9-7.2C421.8,216.1,418.8,219.3,418.8,223.2z M424.4,227.9h-2.1v-9
			c0.8-0.2,2-0.3,3.4-0.3c1.7,0,2.5,0.3,3.1,0.7c0.5,0.4,0.9,1.1,0.9,2c0,1-0.8,1.8-1.9,2.1v0.1c0.9,0.3,1.4,1,1.6,2.2
			c0.3,1.4,0.4,1.9,0.7,2.2h-2.2c-0.3-0.3-0.4-1.1-0.7-2.2c-0.2-1-0.7-1.4-1.9-1.4h-1L424.4,227.9L424.4,227.9z M424.4,222.9h1
			c1.1,0,2.1-0.4,2.1-1.3c0-0.8-0.6-1.4-1.9-1.4c-0.5,0-0.9,0.1-1.1,0.1V222.9z"/>
	</g>
</g>
</svg>
