<?xml version="1.0" encoding="utf-8"?>
<!-- Generator: Adobe Illustrator 19.1.0, SVG Export Plug-In . SVG Version: 6.00 Build 0)  -->
<svg version="1.1" id="Calque_1" xmlns="http://www.w3.org/2000/svg" xmlns:xlink="http://www.w3.org/1999/xlink" x="0px" y="0px"
	 viewBox="0 0 500 500" style="enable-background:new 0 0 500 500;" xml:space="preserve">
<style type="text/css">
	.st0{fill:#131113;}
	.st1{fill:#0076B3;}
	.st2{fill:#DF1E27;}
	.st3{fill:#006FAD;}
</style>
<g>
	<path class="st0" d="M38.7,200.5h71.2c7.6,0,13.7,6.1,13.7,13.7v71.6c0,7.6-6.2,13.7-13.7,13.7H38.7c-7.6,0-13.7-6.1-13.7-13.7
		v-71.6C25,206.6,31.1,200.5,38.7,200.5"/>
	<polyline class="st1" points="49.1,203.8 85.5,203.8 60.9,296.3 49.5,296.3 49.5,276.2 28.3,276.2 28.3,224.6 49.1,224.6 	"/>
	<polyline class="st2" points="89,203.9 64.1,296.3 99.6,296.3 99.6,276.2 120.6,276.2 120.6,224.3 100,224.3 100,203.9 	"/>
	<polyline class="st1" points="140.9,282.4 212,282.4 212,267 160.5,267 160.5,256.8 208.2,256.8 208.2,243.5 160.5,243.5 
		160.5,233.3 210.9,233.3 210.9,218.4 140.9,218.4 	"/>
	<path class="st1" d="M215.2,265.9c0,13.9,7.2,17.2,25,17.2H264c26.1,0,31.9-2.8,31.9-20.1c0-18.6-7.1-20.5-37.5-20.4
		c-21,0.1-23.4-0.1-23.4-5.7c0-3.4,3-4.9,7.4-4.9h21.7c9,0,9.5,1.9,9.5,6.6h19.6v-2c0-11.2-2.1-18.9-24.7-18.9h-27.4
		c-24.7,0-25.8,8.9-25.8,20.5c0,15.7,3.4,19.3,32.9,19.3c25.3,0,27.6,0.4,27.6,5.9c0,4.9-4.2,5.4-8.4,5.4h-24
		c-5.7,0-8.4-0.5-8.5-7.3h-19.6L215.2,265.9"/>
	<path class="st1" d="M320.1,233.8h34.7c3.6,0,5.7,1.3,5.7,5c0,3.6-2.1,4.9-5.7,4.9h-34.7 M320.1,257h35.2c4.2,0,7.1,1,7.1,5.3
		c0,3.7-2.8,4.7-7.1,4.7h-35.2V257z M300.5,282.4H363c11.2,0,19.5-2.9,19.5-17c0-9.6-3.2-14.2-11.7-15.3v-0.3
		c5.5-1.6,9.5-3.7,9.5-14.7c0-12.5-7.6-16.8-23.2-16.8h-56.5V282.4"/>
	<polyline class="st1" points="386.8,282.4 457.9,282.4 457.9,267 406.4,267 406.4,256.8 454.1,256.8 454.1,243.5 406.4,243.5 
		406.4,233.3 456.8,233.3 456.8,218.4 386.8,218.4 	"/>
	<path class="st3" d="M465,211.4v-2.9h2c1,0,2.1,0.2,2.1,1.4c0,1.5-1.1,1.5-2.3,1.5 M465,212.6h1.6l2.5,4.1h1.6l-2.7-4.2
		c1.4-0.2,2.5-0.9,2.5-2.6c0-1.9-1.1-2.7-3.3-2.7h-3.6v9.5h1.4L465,212.6L465,212.6z M460,211.9c0-3.9,2.9-6.8,6.7-6.8
		c3.7,0,6.6,2.9,6.6,6.8c0,3.9-2.9,6.9-6.6,6.9C463,218.8,460,215.9,460,211.9 M466.7,220.2c4.5,0,8.3-3.5,8.3-8.2
		c0-4.7-3.8-8.2-8.3-8.2c-4.5,0-8.3,3.5-8.3,8.2C458.4,216.7,462.2,220.2,466.7,220.2"/>
</g>
</svg>
