<?xml version="1.0" encoding="utf-8"?>
<!-- Generator: Adobe Illustrator 16.0.0, SVG Export Plug-In . SVG Version: 6.00 Build 0)  -->
<!DOCTYPE svg PUBLIC "-//W3C//DTD SVG 1.1//EN" "http://www.w3.org/Graphics/SVG/1.1/DTD/svg11.dtd">
<svg version="1.1" id="Calque_1" xmlns="http://www.w3.org/2000/svg" xmlns:xlink="http://www.w3.org/1999/xlink" x="0px" y="0px"
	 width="500px" height="500px" viewBox="0 0 500 500" enable-background="new 0 0 500 500" xml:space="preserve">
<g>
	<g>
		<path d="M177.125,252.986l6.439-17.938h-71.748c0,0-19.597,2.874-19.597,17.942c0,15.067,20.815,25.593,10.525,31.094h-51.42
			l2.392-10.05h27.744l4.542-15.303H59.215l1.434-8.85h29.184l3.813-14.833h-0.488H43.183L25,299.385h75.814
			c0,0,22.745-3.102,22.745-19.134c0-16.02-17.218-22.484-10.043-27.266h22.243l-12.461,46.399h22.002l13.178-46.399H177.125z"/>
		<path d="M290.244,235.047l-17.688,33.01v-33.01h-31.106l-19.121,59.555v-59.555h-32.299l-39.468,64.338h22.009l7.67-14.585h19.61
			v14.585h41.13l16.273-50.225l-3.122,50.225h17.694l25.365-49.746l-12.207,49.746h18.411l19.61-64.338H290.244z M188.367,269.491
			l12.441-19.854l0.717,19.854H188.367z"/>
		<path d="M368.939,235.047h-42.336l-18.359,64.143l-0.059,0.195h20.568l5.996-19.134l17.936-0.482
			c10.284,0.482,22.966-7.651,27.268-25.349C384.255,236.719,368.939,235.047,368.939,235.047z M356.752,255.857
			c-2.392,9.809-17.219,7.893-17.219,7.893l4.308-15.309C343.841,248.44,359.144,246.052,356.752,255.857z"/>
	</g>
	<path fill="#F29400" d="M302.562,194.188c-33.225,0.596-63.374,6.967-86.353,16.922c19.069-5.295,41.104-8.551,64.676-8.974
		c72.967-1.313,132.605,24.687,133.205,58.075c0.385,21.422-23.689,40.635-60.219,52.027c48.084-10.011,81.771-32.769,81.302-58.691
		C434.561,219.455,375.189,192.881,302.562,194.188z"/>
	<path fill="#F29400" d="M463.08,234.859c-6.771,0-11.927-5.1-11.927-11.806c0-6.703,5.155-11.806,11.927-11.806
		S475,216.35,475,223.053C475,229.759,469.852,234.859,463.08,234.859z M463.08,213.339c-5.585,0-9.815,4.187-9.815,9.714
		c0,5.526,4.23,9.714,9.815,9.714c5.579,0,9.809-4.188,9.809-9.714C472.889,217.526,468.659,213.339,463.08,213.339z
		 M466.183,224.196l2.509,5.071h-3.103l-2.346-4.709h-2.249v4.709h-2.737v-12.885h6.042c2.509,0,4.458,1.307,4.458,4.054
		C468.757,222.662,467.57,223.675,466.183,224.196z M464.104,218.865h-3.109v3.304h3.109c1.186,0,1.851-0.59,1.851-1.668
		C465.954,219.357,465.257,218.865,464.104,218.865z"/>
	<path fill="#F29400" d="M457.019,261.156l0.521-15.638l-15.094-2.835c-1.107-3.943-2.854-7.827-5.246-11.601l7.515-9.861
		L433.87,208.5l-15.941,3.269c-5.227-3.663-11.06-6.993-17.414-9.942l-0.951-9.698l-20.021-8.342l-13.379,6.83
		c-8.18-1.76-16.717-3.057-25.528-3.832l-4.992-8.837h-27.007l-6.967,8.779c-8.727,0.72-19.213,1.948-30.025,3.691l-10.662-4.962
		l-22.315,5.109l-2.111,7.628c-6.641,2.017-12.637,4.269-17.395,6.791l0.782,1.473c22.426-11.884,71.938-18.095,93.464-18.779
		c46.826-1.46,90.354,11.347,113.458,33.515c9.945,9.538,15.263,20.301,15.367,31.12c0.28,28.33-34.567,53.786-86.725,63.354
		l0.3,1.643c5.136-0.945,10.05-2.086,14.84-3.324l11.086,8.068l19.187-6.569l0.587-12.552c5.513-2.652,10.544-5.547,15.087-8.629
		l16.651,3.662l11.471-11.365l-6.342-14.455c1.767-3.083,3.161-6.237,4.08-9.457L457.019,261.156z"/>
</g>
</svg>
