<?xml version="1.0" encoding="utf-8"?>
<!-- Generator: Adobe Illustrator 21.0.2, SVG Export Plug-In . SVG Version: 6.00 Build 0)  -->
<svg version="1.1" id="Calque_1" xmlns="http://www.w3.org/2000/svg" xmlns:xlink="http://www.w3.org/1999/xlink" x="0px" y="0px"
	 viewBox="0 0 500 208" style="enable-background:new 0 0 500 208;" xml:space="preserve">
<style type="text/css">
	.st0{fill:#F29400;}
</style>
<path d="M177.1,107l6.4-17.9h-71.7c0,0-19.6,2.9-19.6,17.9c0,15.1,20.8,25.6,10.5,31.1H51.3l2.4-10h27.7l4.5-15.3H59.2l1.4-8.9h29.2
	l3.8-14.8h-0.5h-50L25,153.4h75.8c0,0,22.7-3.1,22.7-19.1s-17.2-22.5-10-27.3h22.2l-12.5,46.4h22l13.2-46.4H177.1L177.1,107z"/>
<path d="M290.2,89l-17.7,33V89h-31.1l-19.1,59.6V89H190l-39.5,64.3h22l7.7-14.6h19.6v14.6H241l16.3-50.2l-3.1,50.2h17.7l25.4-49.7
	L285,153.4h18.4L323,89H290.2L290.2,89z M188.4,123.5l12.4-19.9l0.7,19.9H188.4z"/>
<path d="M368.9,89h-42.3l-18.4,64.1l-0.1,0.2h20.6l6-19.1l17.9-0.5c10.3,0.5,23-7.7,27.3-25.3C384.3,90.7,368.9,89,368.9,89z
	 M356.8,109.9c-2.4,9.8-17.2,7.9-17.2,7.9l4.3-15.3C343.8,102.4,359.1,100.1,356.8,109.9z"/>
<path class="st0" d="M302.6,48.2c-33.2,0.6-63.4,7-86.4,16.9c19.1-5.3,41.1-8.6,64.7-9c73-1.3,132.6,24.7,133.2,58.1
	c0.4,21.4-23.7,40.6-60.2,52c48.1-10,81.8-32.8,81.3-58.7C434.6,73.5,375.2,46.9,302.6,48.2z"/>
<path class="st0" d="M468.8,74.5c0-2.8-2-4.1-4.5-4.1h-6v12.9h2.7v-4.7h2.3l2.3,4.7h3.1l-2.5-5.1C467.6,77.7,468.8,76.7,468.8,74.5z
	 M464.1,76.2H461v-3.3h3.1c1.2,0,1.9,0.5,1.9,1.6C466,75.6,465.3,76.2,464.1,76.2z"/>
<path class="st0" d="M463.1,65.3c-6.7,0-11.9,5.1-11.9,11.8s5.1,11.8,11.9,11.8S475,83.8,475,77.1S469.8,65.3,463.1,65.3z
	 M463.1,86.7c-5.6,0-9.8-4.2-9.8-9.7s4.2-9.7,9.8-9.7c5.6,0,9.8,4.2,9.8,9.7S468.7,86.7,463.1,86.7z"/>
<path class="st0" d="M457,115.2l0.5-15.6l-15.1-2.8c-1.1-3.9-2.9-7.8-5.2-11.6l7.5-9.9l-10.8-12.7L418,65.9
	c-5.2-3.7-11.1-7-17.4-9.9l-1-9.7l-20-8.3l-13.4,6.8c-8.2-1.8-16.7-3.1-25.5-3.8l-5-8.8h-27l-7,8.8c-8.7,0.7-19.2,1.9-30,3.7
	l-10.7-5l-22.3,5.1l-2.1,7.6c-6.6,2-12.6,4.3-17.4,6.8l0.8,1.5c22.4-11.9,71.9-18.1,93.5-18.8c46.8-1.5,90.4,11.3,113.5,33.5
	c9.9,9.5,15.3,20.3,15.4,31.1c0.3,28.3-34.6,53.8-86.7,63.4l0.3,1.6c5.1-0.9,10-2.1,14.8-3.3l11.1,8.1l19.2-6.6l0.6-12.6
	c5.5-2.7,10.5-5.5,15.1-8.6l16.7,3.7l11.5-11.4l-6.3-14.5c1.8-3.1,3.2-6.2,4.1-9.5L457,115.2z"/>
</svg>
