<?xml version="1.0" encoding="utf-8"?>
<!-- Generator: Adobe Illustrator 21.0.2, SVG Export Plug-In . SVG Version: 6.00 Build 0)  -->
<svg version="1.1" id="Calque_1" xmlns="http://www.w3.org/2000/svg" xmlns:xlink="http://www.w3.org/1999/xlink" x="0px" y="0px"
	 viewBox="0 0 500 224" style="enable-background:new 0 0 500 224;" xml:space="preserve">
<style type="text/css">
	.st0{fill:#1A171B;}
	.st1{fill:#FFED00;}
</style>
<path class="st0" d="M167.6,41v86.1l-2.6-3V17.3H92.9V124h-3.8V41H39.6v21.5H25v102.6h37.9v-37.6h7.2v79.2H155v-36.5l9.4,10.8
	l-0.7,0.6c-2.2,1.9-2.3,5.4-0.2,7.8c2.1,2.4,5.6,2.9,7.8,1l9.5-8.2c2.2-1.9,2.3-5.4,0.2-7.8c-2.1-2.4-5.6-2.9-7.7-1l-0.7,0.6
	l-8.5-9.8h9.2c-0.4-0.3-0.7-0.7-1.1-1.1c-1.5-1.8-2.3-4-2.3-6.2c0-1.6,0.5-3,1.3-4.3l-6.2-7.2v-5l10.5,12.2l-0.7,0.6
	c-2.2,1.9-2.3,5.4-0.2,7.8c2.1,2.4,5.6,2.9,7.8,1l9.5-8.2c2.2-1.9,2.3-5.4,0.2-7.8c-2.1-2.4-5.6-2.9-7.8-1l-0.7,0.6L168,127.5h4.2
	l12,13.9c1.4-0.6,2.9-0.8,4.4-0.6c2.2,0.3,4.3,1.4,5.8,3.2c1.5,1.8,2.3,4,2.3,6.2c0,2.4-1,4.5-2.8,6l-9.2,8h286.6v-36.7h3.8V41
	H167.6z"/>
<polygon class="st1" points="43.4,44.8 43.4,62.5 43.4,123.7 62.9,123.7 85.3,123.7 85.3,44.8 "/>
<path class="st1" d="M121,97.9c-1.9-2.2-1.9-5.5-0.3-8.6l-2.7-3.1c-3.7,5.3-4.3,11.4-1,15.2c3.3,3.8,9.4,4.1,15.2,1.1l-2.7-3.1
	C126.2,100.5,122.9,100.1,121,97.9z"/>
<path class="st1" d="M141.3,80.3c-3.2-3.7-9.4-4-15.2-1.1l2.7,3.1c3.3-1.1,6.6-0.7,8.5,1.5c1.9,2.2,1.9,5.5,0.3,8.6l2.7,3.1
	C144,90.2,144.6,84.1,141.3,80.3z"/>
<path class="st1" d="M161.3,119.8V21H96.7v103v34.7h64.6v-17.6v-5l-27.1-31.4c-7.5,4.2-15.8,4-20.1-0.9c-4.3-4.9-3.3-13.2,2-20
	l-6.5-7.5l-0.7,0.6c-2.2,1.9-5.7,1.4-7.8-1c-2.1-2.4-2-5.9,0.2-7.8l9.5-8.2c2.2-1.9,5.7-1.4,7.8,1c2.1,2.4,2,5.9-0.2,7.8l-0.7,0.6
	l6.5,7.5c7.5-4.2,15.8-4.1,20.1,0.9c4.3,4.9,3.3,13.2-2,20L161.3,119.8z"/>
<path class="st1" d="M240,83.3c0,0,6.6-0.6,4.1-6.7c0,0-4.3-2.7-6.1-0.2c0,0-0.2,3.9-0.5,5C237.5,81.4,237.5,84.3,240,83.3z"/>
<path class="st1" d="M171.4,123.7h299.9V44.8H171.4V123.7z M420.5,92.6c0,0,6.1,3.3,7.4,2.7c0,0,3.1-1.8-1-3.5
	c0.1-0.2-7.8-2.6-6.8-6.3c0,0-0.2-17.9,5.7-18.2c0,0,1.2-0.2,1.6-0.5c0,0,1.1-0.8,3.2-0.1c0,0,5.7-0.3,6.4-0.7c0,0,7-2.1,8.4,4.7
	c0,0,2.2,3.9,0.9,8.7c0,0-0.2,1.2-1.5,0.8c0,0-1.1,0.3-1.3,0.9c0,0-4.9,0.7-6.1,0.2l-1-0.8l-0.7-0.5c0,0-0.8-2.5-3-0.7
	c0,0-1.2,2.6,3.5,4.6c0,0,10.5,1.8,10.3,10.1c0,0,2.2,9.2-6.5,8.9c0,0-7.6-0.1-11.6,1.8c0,0-7.1,2.1-8-1.4c0,0-0.8-5.3-2.1-6.8
	C418.3,96.5,416.6,91,420.5,92.6z M400.7,70.2l-0.1,0.2c2.7-4,11.2-10.1,14.8-3.6c4.2,7.5-5.9,8.4-10.9,7.1
	C403.1,73.5,398.5,72.2,400.7,70.2z M400,101.1c0.1-0.3,4.2-12.6,0.6-24.3c0,0-0.9-1.6,1.2-1c0,0,5.7,2.3,8.3,2.1c0,0,2-0.9,2.8-0.3
	c0,0,1.4-0.7,2.4-1.1c0,0,2.7-0.3,1.4,2.1l-0.6,1.9l-0.1,0.8l-0.3,0.7c0,0-0.3,1.8-0.1,3l0.3,7.9c0,0,1.1,1.8,0.7,3.1l0.3,6.6
	c0,0-0.3,3.7-2.8,1.9c0,0-3.9-2.2-5.4-2.1c0,0-4.8,0.3-6.8,2.1C401.9,104.5,398.6,106.3,400,101.1z M369.3,87.2
	c0,0,0.3-4.9-0.2-12.5c0,0-1.3-9.2,9.7-7.2c0,0,2.4,0.4,3.6,0.1c0,0,1.4-0.3,1.3,0.8c0,0,13.7-3.3,14.6,8.2c0,0,0.6,2.6-0.1,6.8
	c0,0,0.4,2.7-0.4,3.9c0,0-0.2,3.2,0.3,4.7c0,0,0.5,1.7-0.7,3.8c0,0-0.7,6.3-10.3,7c0,0-9.8,0.8-13.9-0.8c0,0-5.2-1.5-4.2-8.9
	C369,93.1,368.2,86.7,369.3,87.2z M335.5,93.3c0,0,2-3,1.5-20.9c0,0-0.3-4.4,7.1-4.3c0,0,3.1-0.6,9,0.1c0,0,1.6-0.1,2.1-0.4
	c0,0,8.3-1.8,9.2,3c0,0,1.6,3.8,1.8,8.4c0,0,1,1.4,0,3.3c0,0-0.2,3.9-4.6,4.3l-3.7,0.3c0,0-3.3,0.1-3.2-3.7c0,0,0-6.4-3.3-4.6
	c0,0-2.4,0.4-3,4.4c0,0-2.2,7.7,3.7,10.5c0,0,1.8-0.1,2.2,0.7l7-0.1c0,0,1.7,0,2.2,0.7c0,0,4.2,2.2,0.2,9.1c0,0-4.4-0.4-5.6,0.1
	l-7.4,0.1l-3,3.2c0,0-1,1-2.1,0.3c0,0-6,0.6-7.1-2.2c0,0-0.2-3.2-1.8-5.1C336.9,100.3,333.5,95.8,335.5,93.3z M292,103.8
	c0,0,3.7-15.3,1.2-25.7c0,0-1.9-4.1-0.3-9.5c0,0,0.2-1.9,4.1-1.5l10.5-0.2c0,0,3.9-0.1,6,3.8l3.6,6.1c0,0,1.3,2.5,1.3-0.1
	c0,0-0.8-9.6,1.3-9.3c0,0,5.8-0.5,6.1,0.3c0,0,3.8-0.3,3.8,0.5c0,0,6.2-0.3,4.8,2.7c0,0-1.1,3.1-1,6.6c0,0,0.1,6.9-0.9,14.1
	c0,0-0.2,6.7,0.4,8c0,0,0.9,3.5-1,3.4c0,0-7,1.6-17.7,1.3l-6.8-7.8c0,0-1.6-1.5-1.5,0.8c0,0,0.3,2.4,0.8,3.2c0,0,0.7,3.3,0,3.7
	c0,0-4.3-0.3-5.7,0.1c0,0-1.5-1.3-3.5-0.2C297.5,104.1,291.2,105.6,292,103.8z M267.5,66.5l17,0.3c12.2,10.8,4.6,37.5,4.6,37.6
	c-2.6,1.1-8.4,0.2-8.4,0.2c-3.4-0.2-1.9-4.3-1.9-4.3c0.5-1.1,0.4-3.5,0.4-3.5c0.4-1.7-0.9-2.8-0.9-2.8c-1.2-2.4-3.1-0.9-3.1-0.9
	l-2.1,1.8c-1.8,1.8-0.4,3.7-0.4,3.7c1,2-0.4,2.7-0.4,2.7c-3-0.8-6.8,1.4-6.8,1.4c-3.1,1.5-3.1-1.5-3.1-1.5c1.8-6-3-11.4-3-11.4
	c-1.4-0.7-1.6-1.6-1.6-1.6c1.5-1.7,3-5.1,3-5.1c6.4-9.1-0.3-15.8-0.3-15.8C258.4,65.3,267.5,66.5,267.5,66.5z M224.2,101.9
	c0,0,3.5-12.9,2.1-23.4c0,0-1.1-7.6-0.2-10.1c0,0-1.4-2.7,6.2-1.9c0,0,7.3,0,11.8-0.3c0,0,14.6-0.7,14.5,10.8c0,0,0,4.9-4.6,9.1
	c0,0-1.3,0.9-0.5,2.4l1.3,4.2c0,0,1,2.5,3.3,3.6c0,0,3,0.9,1.2,3.5c0,0-0.4,3.8-5,3.7c0,0-1.7,0.3-3.7-1c0,0-2.2-1-4.6-1
	c0,0-3.1-0.3-3.3-2.7c0,0-0.9-5.4-3.2-3.4c0,0-2.4,0.4-1.3,3.6c0,0,1.6,4.1-1.5,4.9c0,0-2.1,0.8-4.5-0.1c0,0-4-1.1-5.6,0
	C226.6,103.8,223,104.9,224.2,101.9z M202.1,64.5c0,0,4.1,1,6.1,0.5c0,0,5.6-0.5,10.4,0.1c0,0,4.7-0.6,3.9,6.1c0,0-0.2,6.5-5.5,5.8
	c0,0-6-0.9-5.7,1.9c0,0,0.2,2.3,2.5,2.5c0,0,3.4,0.1,3.9-0.5c0,0,5.8-1.3,4.6,2.3c0,0-0.8,4.1-0.9,5.9c0,0,0,1.4-2.1,1.4
	c0,0-4.1,0.7-4.8,0.9c0,0-3.2,0.3-2.8,2.2c0,0,0,2.4,1.3,3.9c0,0,2.7,6-2,6.2c0,0-4.2-0.8-6.2-0.7c0,0-2.8-0.9-5.1,1
	c0,0.2-4.5,2.4-2.9-6.3c0,0,1.2-5.5,0.9-8.2c0,0-0.4-4.8,0.9-8.4c0,0,0.8-4.8-2.1-12.2C196.5,68.9,194,63.5,202.1,64.5z"/>
<path class="st1" d="M385.1,90.2c0.5-0.4,0.5-1.8,0.5-1.8c0.5-1.2-0.5-2.9-0.3-2.9c0.2-3-1.4-4.1-1.4-4.1c-1-1.6-2-0.4-2-0.4
	l-0.9,1.4c-0.6,1,0.2,4.1,0.2,4.1C382.7,91.3,385.1,90.2,385.1,90.2z"/>
<path class="st1" d="M276.8,83c2.2-1-0.8-4-0.9-3.9c-1.2-1.7-3.6,0.3-3.6,0.3c-1.3,1.2,0.1,2.8,0.1,2.8
	C275.4,84.3,276.8,83,276.8,83z"/>
</svg>
