<?xml version="1.0" encoding="utf-8"?>
<!-- Generator: Adobe Illustrator 19.1.0, SVG Export Plug-In . SVG Version: 6.00 Build 0)  -->
<svg version="1.1" id="Calque_1" xmlns="http://www.w3.org/2000/svg" xmlns:xlink="http://www.w3.org/1999/xlink" x="0px" y="0px"
	 viewBox="0 0 500 500" style="enable-background:new 0 0 500 500;" xml:space="preserve">
<style type="text/css">
	.st0{fill:#1FA22E;}
	.st1{fill:#B3C597;}
	.st2{fill:#C2D464;}
	.st3{fill:#FCEA14;}
	.st4{fill:#FEDD75;}
	.st5{fill:#F0BE40;}
	.st6{fill:#F19400;}
	.st7{fill:#E2071D;}
	.st8{fill:#972621;}
	.st9{fill:#F09301;}
	.st10{fill:#00427C;}
</style>
<g id="Calque_1_1_">
</g>
<g id="Calque_2">
	<g>
		<rect x="131" y="228.4" class="st0" width="14.1" height="14.1"/>
		<rect x="149" y="228.4" class="st1" width="14.1" height="14.1"/>
		<rect x="167" y="228.4" class="st2" width="14.1" height="14.1"/>
		<rect x="185" y="228.4" class="st3" width="14.1" height="14.1"/>
		<rect x="203" y="228.4" class="st4" width="14.1" height="14.1"/>
		<rect x="220.9" y="228.4" class="st5" width="14.1" height="14.1"/>
		<rect x="238.9" y="228.4" class="st6" width="14.1" height="14.1"/>
		<rect x="256.9" y="228.4" class="st7" width="14.1" height="14.1"/>
		<rect x="424.7" y="258.7" class="st8" width="14.1" height="14.1"/>
		<rect x="442.8" y="258.7" class="st7" width="14.1" height="14.1"/>
		<rect x="460.9" y="258.7" class="st9" width="14.1" height="14.1"/>
		<g>
			<g>
				<path class="st10" d="M138.1,222.2c-5.9-9-20.5-15.2-36.4-15.2c-18.6,0-36.4,10.8-43.2,28.6h67.9l-6.4,9.5H55.4
					c-1.4,2.9-1.7,6.6-1.9,9.5h60.3l-6.4,9.5H53.8C56,281.9,68.4,293,90.1,293c14.7,0,27.1-5.9,34.1-14.2v12
					c-6.2,5.3-18.6,11.6-34.1,11.6c-29.4,0-45.7-16.1-47.3-38.4H25l6.2-9.5h11.5c0.2-2.9,0.9-6.6,1.7-9.5H28.1l6.2-9.5h13.2
					c9.3-25.3,32.5-38.1,55.8-38.1c17,0,33.3,5.9,41.1,15.5L138.1,222.2z"/>
			</g>
		</g>
		<g>
			<g>
				<path class="st10" d="M163.9,287.7h-0.6c-2.3,3.8-8.3,7.1-13.8,7.1c-3.7,0-7.1,0-10.7-4.6c-3.7-4.9-3.9-8.8-3.9-14.6
					c0-5,0.1-8.6,0.1-10.8c0-2.5,0-6.2-0.2-7.5c-0.3-2.6-1.8-3.5-3.6-3.8c-1.7-0.2-2.3-0.2-2.3-0.8v-1.9c0-0.6,0.2-0.8,1.2-0.8h12.5
					c0.6,0,1.1-0.1,1.6-0.2s0.8-0.2,1.1-0.2c0.6,0,1,0.6,1,1.2c0,1-0.4,5.8-0.4,13v6.6c0,4.2-0.7,11.2,2.1,15.6
					c2.1,3.1,4.4,2.9,6.7,2.9c2.5,0,5.6-1.7,7.3-4c0.4-0.6,1.1-2.1,1.1-3.3v-24.6c0-2.7-2-3.3-4.5-3.5c-1.9-0.2-2.1-0.4-2.1-0.8
					v-1.9c0-0.7,0.3-0.8,1.2-0.8h12.9c0.7,0,1.2-0.1,1.8-0.2s0.9-0.2,1.4-0.2c0.6,0,0.8,0.6,0.8,1c0,1-0.6,3.7-0.6,14.1v7.6
					c0,5,0,10,0.2,12.1c0.4,3.1,1.5,3.5,2.3,3.5c0.6,0,2.1,0,3.3-0.2c0.8-0.1,1.1,0,1.2,0.4l0.3,1.7c0.1,0.6-0.1,0.8-0.5,0.9
					l-12.9,3.6c-0.6,0.2-1.2,0.4-2.1,0.4s-1.4-0.4-1.5-1.2L163.9,287.7z"/>
				<path class="st10" d="M191.9,266.8c0-4.8-0.8-6.5-4-8.1l-1.9-1c-0.6-0.2-0.8-0.4-0.8-0.8v-0.6c0-0.4,0.2-0.6,0.8-0.9l12.6-5.9
					c0.6-0.2,1-0.4,1.7-0.4s0.8,0.6,0.9,1.2l0.9,7.7h0.4c3.5-5.8,7.9-9.4,12.5-9.4c3.3,0,5.4,2.3,5.4,5.2c0,2.9-2.9,5.6-5.6,5.6
					c-1.5,0-2.7-0.4-3.5-0.8c-0.8-0.6-1.9-0.8-2.9-0.8c-1.2,0-3.1,0.8-4.4,3c-0.8,1.5-1.2,3.7-1.2,5.1v19.9c0,3.3,0.8,4.4,2.9,4.4
					h4.6c0.6,0,0.8,0.2,0.8,0.7v2.4c0,0.5-0.2,0.7-0.7,0.7c-0.7,0-5.3-0.3-12.9-0.3c-7.3,0-11.4,0.3-12.2,0.3
					c-0.5,0-0.7-0.2-0.7-0.7v-2.3c0-0.6,0.2-0.8,0.9-0.8h3.6c1.7,0,2.7-0.8,2.7-2.8L191.9,266.8L191.9,266.8z"/>
				<path class="st10" d="M261.2,255c4.9,4.9,7.2,10.3,7.2,16.5c0,5.8-2.5,11.5-6.5,15.8c-4.3,4.8-10.5,7.5-17.5,7.5
					c-6.6,0-12.2-1.9-16.9-7.5c-4.6-5.4-5.6-9.8-5.6-16.1c0-5,2.5-12.3,8.7-17.3c5.1-4.2,10.5-5,14.8-5
					C252.5,248.9,257.7,251.6,261.2,255z M255.7,271.2c0-11.5-6-18.1-10.8-18.1c-2.7,0-4.8,0.8-6.6,2.8c-3.2,3.6-4.5,8-4.5,15.6
					c0,6,0.4,10,3.2,14.5c1.8,2.8,4.1,4.5,8.2,4.5C252.2,290.4,255.7,281.8,255.7,271.2z"/>
			</g>
		</g>
		<g>
			<g>
				<path class="st10" d="M335.2,260.9c0-2.8,0-26-0.2-26.4h-0.4c-0.7,1.3-11.8,28.7-12.9,31.1c-1.3,3-10.3,25.1-10.8,26
					c-0.4,0.7-1.1,2.1-1.9,2.1c-0.5,0-1.1-0.6-1.4-1.7c-0.4-0.6-11.8-29.8-12.4-31.3c-1.6-4.3-9.7-25.3-10.8-26.4
					c-0.4,1.3-0.4,24.9-0.4,26s-0.1,17,0.4,23.1c0.4,4.3,1.4,7.9,4.2,7.9h3.9c0.5,0,0.7,0.4,0.7,0.7v2.3c0,0.4-0.2,0.7-0.9,0.7
					c-0.9,0-3.4-0.3-10.1-0.3c-7.6,0-10.6,0.3-11.5,0.3c-0.7,0-0.7-0.2-0.7-0.8v-2.3c0-0.2,0-0.6,0.5-0.6h4.1c3,0,4-3.4,4.4-6.7
					c0.8-6.6,1.3-29.6,1.3-31.3v-16c0-3.4-0.4-5.4-4.3-5.4h-3.9c-0.5,0-0.7-0.4-0.7-0.7v-2.5c0-0.2,0.2-0.6,0.7-0.6
					c0.9,0,3.2,0.3,12.5,0.3c4.2,0,6.7-0.3,7.8-0.3s1.7,0.4,2.1,1.6c3.2,8.8,15.5,39.9,18.2,47.6c0.8-1.7,7.1-17.1,9.4-22.7
					c1.6-3.9,9.5-23.2,10-25.1c0.3-0.9,1.3-1.1,3.4-1.1c12.9,0.1,15.9-0.3,17-0.3c0.4,0,0.5,0.4,0.5,0.8v2c0,0.6-0.2,0.9-0.7,0.9
					h-3.9c-2.3,0-2.5,1.7-2.6,3.7c-0.1,2.1-0.1,20.8-0.1,23.2v6.6c0,5.6,0.2,19.3,0.2,20.9c0.1,3.6,0.9,5.1,2.5,5.1h4.8
					c0.5,0,0.5,0.4,0.5,0.7v2.2c0,0.6,0,0.9-0.7,0.9c-1.1,0-5.3-0.3-13.1-0.3c-8.7,0-12,0.3-13.2,0.3c-0.5,0-0.7-0.4-0.7-0.8v-2.2
					c0-0.6,0.2-0.8,0.7-0.8h5.5c1.6,0,2.3-0.6,2.6-3.3c0.1-0.9,0.3-14.4,0.3-21.9L335.2,260.9L335.2,260.9z"/>
				<path class="st10" d="M383,289.7c-2.2,2.5-4.7,4.3-8.5,5.6c-2.3,0.7-4.3,0.7-6.3,0.7c-3.6,0-6.8-3.1-6.8-9c0-4.8,2-9.5,9-12.8
					c6.1-3.1,9.8-4.8,12-6.5v-5.4c-0.2-2.1-0.4-4.6-1.6-5.8c-1-1.1-2.8-1.6-4.9-1.6c-1.8,0-4.1,0.6-5.7,1.9c-1.4,1-0.4,2.6-0.4,5.1
					c0,3.8-1.8,6-5.9,6c-1.8,0-3.3-1.2-3.3-3.5c0-2.9,1.6-6.2,4.5-8.5c4.1-3.3,9.4-5.8,15.9-5.8c5.5,0,7.3,1.2,9,2.9
					c2.2,2.1,2.4,5,2.4,7.8l0.2,16.5v5c0,5.6,0.8,7.3,2.6,7.3c1.4,0,2.8-0.8,3.1-1.7c0.4-0.6,0.6-0.6,1-0.4l1.2,0.8
					c0.4,0.2,0.6,0.6,0.2,1.7c-1,1.9-3.3,6-9,6c-3.7,0-6.9-1.9-8.2-6.4L383,289.7L383,289.7z M382.4,271.7
					c-4.3,2.9-10.8,4.7-10.8,12.3c0,4.3,2.2,6.4,4.5,6.4c2.8-0.2,6.3-3.1,6.3-5V271.7z"/>
				<path class="st10" d="M403.6,257.1c-0.8,0-1.4-0.4-1.4-1.5c0-0.8,0.6-1.5,1.9-2c2.8-1,11.3-8.8,13.5-13.1c0.4-0.8,1-1,1.6-1
					c0.8,0,1.2,0.6,1.2,1.5l-0.4,10.3h13c0.6,0,0.8,0.4,0.7,0.8l-1,4.4c-0.1,0.4-0.4,0.6-1,0.6h-11.9c-0.2,4.4-0.3,9.4-0.3,14v9.4
					c0,8.1,3.2,9.8,5.2,9.8c2.2,0,4.3-0.5,5.7-1.2c0.7-0.3,1-0.3,1.2,0.2l0.6,1.2c0.2,0.6,0,1-0.4,1.5c-1.4,1-5.5,4.2-12.4,4.2
					c-5.9,0-10.3-5-10.3-9.4c0-3.7,0.3-12.1,0.3-16v-13.5L403.6,257.1L403.6,257.1z"/>
			</g>
		</g>
		<g>
			<path class="st10" d="M436.3,262.8l-1.1-1.2c4.9-3.2,7.2-6,6.9-8.4c-0.1-0.6-0.4-1.1-0.9-1.4c-0.5-0.4-1.3-0.7-2.4-1
				c-1.7-0.6-3-1.4-3.8-2.2c-0.8-0.8-1.3-2-1.5-3.5c-0.2-1.8,0.3-3.4,1.4-4.8c1.2-1.4,2.7-2.2,4.6-2.5c1.4-0.2,2.7,0,3.9,0.6
				c1.2,0.6,2.2,1.5,3,2.6c0.8,1.2,1.3,2.6,1.5,4.3c0.5,4.4-0.8,8.4-4.1,12.1c-1,1.1-2,2.1-2.9,2.8
				C440,260.9,438.4,261.8,436.3,262.8z"/>
		</g>
		<g>
			<path d="M355.9,237.3c0.8,0.5,1.9,0.9,3.1,0.9c1.8,0,2.8-1,2.8-2.4c0-1.3-0.7-2.1-2.5-2.8c-2.2-0.8-3.5-2.1-3.5-4.1
				c0-2.2,1.7-3.9,4.3-3.9c1.4,0,2.4,0.3,2.9,0.7l-0.5,1.5c-0.4-0.3-1.3-0.7-2.5-0.7c-1.8,0-2.5,1.2-2.5,2.1c0,1.3,0.8,2,2.7,2.7
				c2.3,0.9,3.4,2.1,3.4,4.2c0,2.2-1.5,4.1-4.7,4.1c-1.3,0-2.7-0.4-3.4-0.9L355.9,237.3z"/>
			<path d="M372.8,232.8h-5.2v5.1h5.8v1.5h-7.5v-14.2h7.2v1.5h-5.5v4.5h5.2V232.8z"/>
			<path d="M375.7,225.5c0.9-0.2,2.1-0.3,3.3-0.3c1.8,0,3.1,0.4,3.9,1.2c0.7,0.6,1.1,1.6,1.1,2.7c0,1.9-1.1,3.1-2.5,3.6v0.1
				c1,0.4,1.6,1.4,2,2.9c0.4,2,0.8,3.4,1,3.9h-1.8c-0.2-0.4-0.5-1.6-0.9-3.4c-0.4-2-1.1-2.7-2.7-2.8h-1.6v6.2h-1.7L375.7,225.5
				L375.7,225.5z M377.4,231.9h1.8c1.8,0,3-1.1,3-2.7c0-1.8-1.2-2.6-3.1-2.6c-0.8,0-1.4,0.1-1.7,0.2L377.4,231.9L377.4,231.9z"/>
			<path d="M389.6,239.5l-4.4-14.2h1.9l2.1,7c0.6,1.9,1.1,3.7,1.4,5.3h0c0.4-1.6,0.9-3.4,1.5-5.3l2.3-7h1.8l-4.8,14.2L389.6,239.5
				L389.6,239.5z"/>
			<path d="M399.5,225.3v14.2h-1.7v-14.2H399.5z"/>
			<path d="M411.8,239c-0.6,0.3-1.9,0.7-3.5,0.7c-3.8,0-6.6-2.5-6.6-7.2c0-4.5,2.8-7.5,7-7.5c1.6,0,2.7,0.4,3.2,0.6l-0.4,1.5
				c-0.6-0.3-1.6-0.6-2.7-0.6c-3.1,0-5.2,2.1-5.2,5.9c0,3.5,1.9,5.7,5.1,5.7c1.1,0,2.1-0.2,2.8-0.6L411.8,239z"/>
			<path d="M420.9,232.8h-5.2v5.1h5.8v1.5H414v-14.2h7.2v1.5h-5.5v4.5h5.2V232.8z"/>
			<path d="M423.5,237.3c0.8,0.5,1.9,0.9,3.1,0.9c1.8,0,2.8-1,2.8-2.4c0-1.3-0.7-2.1-2.5-2.8c-2.2-0.8-3.5-2.1-3.5-4.1
				c0-2.2,1.7-3.9,4.3-3.9c1.4,0,2.4,0.3,2.9,0.7l-0.5,1.5c-0.4-0.3-1.3-0.7-2.5-0.7c-1.8,0-2.5,1.2-2.5,2.1c0,1.3,0.8,2,2.7,2.7
				c2.3,0.9,3.4,2.1,3.4,4.2c0,2.2-1.5,4.1-4.7,4.1c-1.3,0-2.7-0.4-3.4-0.9L423.5,237.3z"/>
		</g>
	</g>
</g>
</svg>
