<?xml version="1.0" encoding="utf-8"?>
<!-- Generator: Adobe Illustrator 21.0.2, SVG Export Plug-In . SVG Version: 6.00 Build 0)  -->
<svg version="1.1" id="Calque_1" xmlns="http://www.w3.org/2000/svg" xmlns:xlink="http://www.w3.org/1999/xlink" x="0px" y="0px"
	 viewBox="0 0 500 140" style="enable-background:new 0 0 500 140;" xml:space="preserve">
<path d="M70.7,72.6H38.1v30.2h36.3v9.1H27.3V28.2h45.2v9.1H38.1v26.4h32.5V72.6z"/>
<path d="M137.4,95.5c0,6.2,0.1,11.7,0.5,16.4h-9.7l-0.6-9.8h-0.2c-2.9,4.8-9.2,11.2-19.9,11.2c-9.4,0-20.7-5.2-20.7-26.3V51.7h10.9
	V85c0,11.4,3.5,19.1,13.4,19.1c7.3,0,12.4-5.1,14.4-9.9c0.6-1.6,1-3.6,1-5.6V51.7h10.9V95.5z"/>
<path d="M155.6,70.5c0-7.1-0.1-13.2-0.5-18.7h9.6l0.4,11.8h0.5c2.7-8.1,9.3-13.2,16.6-13.2c1.2,0,2.1,0.1,3.1,0.4v10.3
	c-1.1-0.2-2.2-0.4-3.7-0.4c-7.7,0-13.2,5.8-14.7,14c-0.2,1.5-0.5,3.2-0.5,5.1v32h-10.8V70.5z"/>
<path d="M213.7,26.8c-2.9,10.4-8.2,23.7-11.7,29.4l-7,0.9c2.7-7.3,6-20.2,7.3-29.2L213.7,26.8z"/>
<path d="M294.5,69.1c0,28.8-17.5,44.1-38.9,44.1c-22.1,0-37.6-17.1-37.6-42.5c0-26.6,16.5-44,38.9-44
	C279.7,26.8,294.5,44.3,294.5,69.1z M229.6,70.5c0,17.9,9.7,33.9,26.7,33.9c17.1,0,26.8-15.8,26.8-34.8c0-16.6-8.7-34-26.7-34
	C238.5,35.6,229.6,52.1,229.6,70.5z"/>
<path d="M319.3,28.2v35h40.5v-35h10.9v83.7h-10.9V72.6h-40.5v39.2h-10.8V28.2H319.3z"/>
<path d="M460,75.1c-0.6-11.7-1.4-25.7-1.2-36.1h-0.4c-2.9,9.8-6.3,20.2-10.6,31.8l-14.8,40.6h-8.2l-13.5-39.9
	c-4-11.8-7.3-22.6-9.7-32.5h-0.2c-0.2,10.4-0.9,24.5-1.6,37l-2.2,35.9h-10.3l5.8-83.7h13.8l14.3,40.5c3.5,10.3,6.3,19.5,8.4,28.2
	h0.4c2.1-8.4,5.1-17.6,8.8-28.2l14.9-40.5h13.8l5.2,83.7h-10.6L460,75.1z"/>
</svg>
