<?xml version="1.0" encoding="utf-8"?>
<!-- Generator: Adobe Illustrator 21.0.2, SVG Export Plug-In . SVG Version: 6.00 Build 0)  -->
<svg version="1.1" id="Calque_2" xmlns="http://www.w3.org/2000/svg" xmlns:xlink="http://www.w3.org/1999/xlink" x="0px" y="0px"
	 viewBox="0 0 469 144" style="enable-background:new 0 0 469 144;" xml:space="preserve">
<style type="text/css">
	.st0{fill:#E2001A;}
</style>
<polygon class="st0" points="247.2,47.4 229.7,47.4 219.2,59 214.3,47.4 199.1,47.4 208.8,70.5 185.2,96.6 202.7,96.6 214.3,83.7 
	219.7,96.6 234.9,96.6 224.7,72.2 "/>
<polygon class="st0" points="190.6,59.2 193.7,47.4 175.7,47.4 165.5,47.4 160.5,47.4 147.4,96.6 149.8,96.6 162.6,96.6 178,96.6 
	188.8,84.8 165.8,84.8 167.7,77.5 183,77.5 186,66.4 170.7,66.4 172.6,59.2 "/>
<polygon class="st0" points="379.1,59.2 382.2,47.4 364.2,47.4 354,47.4 349,47.4 335.9,96.6 338.3,96.6 351.1,96.6 366.5,96.6 
	377.3,84.8 354.3,84.8 356.2,77.5 371.5,77.5 374.5,66.4 359.2,66.4 361.1,59.2 "/>
<path class="st0" d="M274.5,47.4H268h-1.1h-14.5l-13.1,49.1h15.6l4.9-18.5h10c8.7,0,20.1-6.9,20.6-15.3
	C290.8,53.8,285.7,47.4,274.5,47.4z M270,67.2h-7.3l2.3-8.7h6.4c3.2,0,4.7,1.8,4.5,4.4C275.7,65.2,272.5,67.2,270,67.2z"/>
<path class="st0" d="M335.3,62.7c0.5-8.9-4.5-15.3-15.5-15.3h-6.4h-1.1h-14.1l-12.7,49.2h15.2l4.8-19.7h5.1l6.2,19.7h15.3L324.4,75
	C330.1,72.7,335,68.3,335.3,62.7z M310.6,58.4h6.2c3.1,0,4.6,1.8,4.4,4.4c-0.1,2.4-3.3,4.4-5.7,4.4h-7.2L310.6,58.4z"/>
<path class="st0" d="M408.4,69.7L408.4,69.7c-1.7-1.6-3.3-2.9-4.8-4.4s-1.1-4-1.1-4c0.6-3,4.3-4.8,8.3-3.9c1.2,0.2,2.2,0.7,3.1,1.2
	l7.6-8.7c-2.5-1.4-5.4-2.5-8.5-3.2c-12.1-2.5-23.4,2.9-25.3,11.9c-0.3,1.4-0.4,2.8-0.3,4.2c0,0.6,0.1,1.2,0.2,1.7
	c1.3,7,6,9.2,9.3,12c3.5,3.1,2.6,6.4,2.6,6.4c-0.9,3.3-5.8,4.6-11,3.3c-1-0.3-1.9-0.6-2.7-1l-8.4,9.1c2.3,1.2,4.9,2.1,7.7,2.8
	c13.7,3.3,26.7-1.4,29.2-11c0.7-2.6,0.7-5.1,0-7.5C413.6,75.3,411.6,72.3,408.4,69.7z"/>
<path class="st0" d="M446.4,69.7L446.4,69.7c-1.7-1.6-3.3-2.9-4.8-4.4s-1.1-4-1.1-4c0.6-3,4.3-4.8,8.3-3.9c1.2,0.2,2.2,0.7,3.1,1.2
	l7.6-8.7c-2.5-1.4-5.4-2.5-8.5-3.2c-12.1-2.5-23.4,2.9-25.3,11.9c-0.3,1.4-0.4,2.8-0.3,4.2c0,0.6,0.1,1.2,0.2,1.7
	c1.3,7,6,9.2,9.3,12c3.5,3.1,2.6,6.4,2.6,6.4c-0.9,3.3-5.8,4.6-11,3.3c-1-0.3-1.9-0.6-2.7-1l-8.4,9.1c2.3,1.2,4.9,2.1,7.7,2.8
	c13.7,3.3,26.7-1.4,29.2-11c0.7-2.6,0.7-5.1,0-7.5C451.6,75.3,449.6,72.3,446.4,69.7z"/>
<path class="st0" d="M51.5,72c0-25.9,85.6-47.7,201.9-54.1C114.9,22.3,9.5,44.8,9.5,72s105.4,49.7,243.8,54.1
	C137.1,119.7,51.5,97.9,51.5,72z"/>
<path class="st0" d="M104.9,72c0-18.6,36.5-35.2,93.3-46C118.6,35.2,64.9,52.3,64.9,72s53.6,36.8,133.3,46
	C141.3,107.2,104.9,90.6,104.9,72z"/>
</svg>
