<?xml version="1.0" encoding="utf-8"?>
<!-- Generator: Adobe Illustrator 16.0.0, SVG Export Plug-In . SVG Version: 6.00 Build 0)  -->
<!DOCTYPE svg PUBLIC "-//W3C//DTD SVG 1.1//EN" "http://www.w3.org/Graphics/SVG/1.1/DTD/svg11.dtd">
<svg version="1.1" id="Calque_2" xmlns="http://www.w3.org/2000/svg" xmlns:xlink="http://www.w3.org/1999/xlink" x="0px" y="0px"
	 width="500px" height="500px" viewBox="0 0 500 500" enable-background="new 0 0 500 500" xml:space="preserve">
<g>
	<polygon fill="#E2001A" points="262.66,225.434 245.176,225.434 234.698,237.012 229.845,225.434 214.584,225.434 224.27,248.537 
		200.713,274.566 218.198,274.566 229.804,261.742 235.181,274.566 250.441,274.566 240.234,250.217 	"/>
	<polygon fill="#E2001A" points="206.135,237.203 209.219,225.434 191.221,225.434 181.005,225.434 175.961,225.434 
		162.883,274.566 165.312,274.566 178.144,274.566 193.525,274.566 204.263,262.796 181.276,262.796 183.216,255.511 
		198.476,255.511 201.465,244.396 186.175,244.396 188.088,237.203 	"/>
	<polygon fill="#E2001A" points="394.633,237.203 397.716,225.434 379.719,225.434 369.502,225.434 364.458,225.434 
		351.381,274.566 353.809,274.566 366.641,274.566 382.022,274.566 392.76,262.796 369.773,262.796 371.714,255.511 
		386.974,255.511 389.962,244.396 374.671,244.396 376.586,237.203 	"/>
	<path fill="#E2001A" d="M289.958,225.434h-6.55h-1.121h-14.483l-13.077,49.132h15.604l4.937-18.541h9.981
		c8.737,0,20.136-6.896,20.597-15.295C306.335,231.786,301.221,225.434,289.958,225.434z M285.476,245.173h-7.337l2.329-8.748h6.355
		c3.221,0,4.684,1.816,4.544,4.375C291.234,243.201,287.975,245.173,285.476,245.173z"/>
	<path fill="#E2001A" d="M350.821,240.729c0.479-8.944-4.51-15.295-15.494-15.295h-6.39h-1.094h-14.126l-12.754,49.132h15.22
		l4.813-19.661h5.062l6.198,19.661h15.26l-7.709-21.558C345.58,250.656,350.524,246.271,350.821,240.729z M326.069,236.425h6.199
		c3.142,0,4.569,1.816,4.433,4.375c-0.13,2.401-3.31,4.374-5.747,4.374h-7.155L326.069,236.425z"/>
	<path fill="#E2001A" d="M423.938,247.735c-0.011-0.011-0.016-0.021-0.028-0.032c-1.707-1.525-3.266-2.841-4.808-4.382
		c-1.541-1.542-1.1-4.023-1.1-4.023c0.615-2.992,4.346-4.753,8.332-3.933c1.152,0.237,2.195,0.668,3.087,1.228l7.568-8.725
		c-2.498-1.428-5.351-2.53-8.46-3.17c-12.093-2.487-23.407,2.854-25.274,11.93c-0.293,1.427-0.369,2.817-0.278,4.167
		c0.04,0.586,0.129,1.161,0.238,1.728c1.263,6.962,6.012,9.179,9.302,12.007c3.55,3.052,2.631,6.428,2.631,6.428
		c-0.854,3.311-5.782,4.648-11.015,3.3c-0.97-0.251-1.881-0.576-2.718-0.962l-8.426,9.094c2.312,1.151,4.889,2.098,7.72,2.771
		c13.724,3.255,26.736-1.412,29.216-11.025c0.67-2.592,0.657-5.123,0.047-7.514C429.123,253.298,427.073,250.259,423.938,247.735z"
		/>
	<path fill="#E2001A" d="M461.949,247.735c-0.012-0.011-0.017-0.021-0.029-0.032c-1.707-1.525-3.266-2.841-4.808-4.382
		c-1.541-1.542-1.1-4.023-1.1-4.023c0.615-2.992,4.346-4.753,8.332-3.933c1.152,0.237,2.195,0.668,3.087,1.228l7.568-8.725
		c-2.498-1.428-5.351-2.53-8.46-3.17c-12.093-2.487-23.406,2.854-25.274,11.93c-0.293,1.427-0.368,2.817-0.277,4.167
		c0.039,0.586,0.128,1.161,0.237,1.728c1.263,6.962,6.012,9.179,9.302,12.007c3.55,3.052,2.631,6.428,2.631,6.428
		c-0.854,3.311-5.782,4.648-11.015,3.3c-0.97-0.251-1.881-0.576-2.718-0.962l-8.425,9.094c2.311,1.151,4.888,2.098,7.719,2.771
		c13.724,3.255,26.736-1.412,29.216-11.025c0.67-2.592,0.657-5.123,0.047-7.514C467.134,253.298,465.084,250.259,461.949,247.735z"
		/>
	<path fill="#E2001A" d="M66.954,250c0-25.919,85.611-47.726,201.874-54.134C130.383,200.292,25,222.842,25,250
		s105.383,49.708,243.827,54.134C152.564,297.726,66.954,275.919,66.954,250z"/>
	<path fill="#E2001A" d="M120.383,250c0-18.638,36.452-35.245,93.273-45.99C134.013,213.176,80.404,230.338,80.404,250
		c0,19.661,53.608,36.824,133.253,45.99C156.835,285.246,120.383,268.637,120.383,250z"/>
</g>
</svg>
