<?xml version="1.0" encoding="utf-8"?>
<!-- Generator: Adobe Illustrator 19.1.0, SVG Export Plug-In . SVG Version: 6.00 Build 0)  -->
<svg version="1.1" id="Calque_2" xmlns="http://www.w3.org/2000/svg" xmlns:xlink="http://www.w3.org/1999/xlink" x="0px" y="0px"
	 viewBox="0 0 500 500" style="enable-background:new 0 0 500 500;" xml:space="preserve">
<style type="text/css">
	.st0{fill:#E2001A;}
</style>
<g>
	<polygon class="st0" points="262.7,225.4 245.2,225.4 234.7,237 229.8,225.4 214.6,225.4 224.3,248.5 200.7,274.6 218.2,274.6 
		229.8,261.7 235.2,274.6 250.4,274.6 240.2,250.2 	"/>
	<polygon class="st0" points="206.1,237.2 209.2,225.4 191.2,225.4 181,225.4 176,225.4 162.9,274.6 165.3,274.6 178.1,274.6 
		193.5,274.6 204.3,262.8 181.3,262.8 183.2,255.5 198.5,255.5 201.5,244.4 186.2,244.4 188.1,237.2 	"/>
	<polygon class="st0" points="394.6,237.2 397.7,225.4 379.7,225.4 369.5,225.4 364.5,225.4 351.4,274.6 353.8,274.6 366.6,274.6 
		382,274.6 392.8,262.8 369.8,262.8 371.7,255.5 387,255.5 390,244.4 374.7,244.4 376.6,237.2 	"/>
	<path class="st0" d="M290,225.4h-6.5h-1.1h-14.5l-13.1,49.1h15.6l4.9-18.5h10c8.7,0,20.1-6.9,20.6-15.3
		C306.3,231.8,301.2,225.4,290,225.4z M285.5,245.2h-7.3l2.3-8.7h6.4c3.2,0,4.7,1.8,4.5,4.4C291.2,243.2,288,245.2,285.5,245.2z"/>
	<path class="st0" d="M350.8,240.7c0.5-8.9-4.5-15.3-15.5-15.3h-6.4h-1.1h-14.1L301,274.6h15.2l4.8-19.7h5.1l6.2,19.7h15.3
		l-7.7-21.6C345.6,250.7,350.5,246.3,350.8,240.7z M326.1,236.4h6.2c3.1,0,4.6,1.8,4.4,4.4c-0.1,2.4-3.3,4.4-5.7,4.4h-7.2
		L326.1,236.4z"/>
	<path class="st0" d="M423.9,247.7C423.9,247.7,423.9,247.7,423.9,247.7c-1.7-1.6-3.3-2.9-4.8-4.4c-1.5-1.5-1.1-4-1.1-4
		c0.6-3,4.3-4.8,8.3-3.9c1.2,0.2,2.2,0.7,3.1,1.2l7.6-8.7c-2.5-1.4-5.4-2.5-8.5-3.2c-12.1-2.5-23.4,2.9-25.3,11.9
		c-0.3,1.4-0.4,2.8-0.3,4.2c0,0.6,0.1,1.2,0.2,1.7c1.3,7,6,9.2,9.3,12c3.5,3.1,2.6,6.4,2.6,6.4c-0.9,3.3-5.8,4.6-11,3.3
		c-1-0.3-1.9-0.6-2.7-1l-8.4,9.1c2.3,1.2,4.9,2.1,7.7,2.8c13.7,3.3,26.7-1.4,29.2-11c0.7-2.6,0.7-5.1,0-7.5
		C429.1,253.3,427.1,250.3,423.9,247.7z"/>
	<path class="st0" d="M461.9,247.7C461.9,247.7,461.9,247.7,461.9,247.7c-1.7-1.6-3.3-2.9-4.8-4.4c-1.5-1.5-1.1-4-1.1-4
		c0.6-3,4.3-4.8,8.3-3.9c1.2,0.2,2.2,0.7,3.1,1.2l7.6-8.7c-2.5-1.4-5.4-2.5-8.5-3.2c-12.1-2.5-23.4,2.9-25.3,11.9
		c-0.3,1.4-0.4,2.8-0.3,4.2c0,0.6,0.1,1.2,0.2,1.7c1.3,7,6,9.2,9.3,12c3.5,3.1,2.6,6.4,2.6,6.4c-0.9,3.3-5.8,4.6-11,3.3
		c-1-0.3-1.9-0.6-2.7-1l-8.4,9.1c2.3,1.2,4.9,2.1,7.7,2.8c13.7,3.3,26.7-1.4,29.2-11c0.7-2.6,0.7-5.1,0-7.5
		C467.1,253.3,465.1,250.3,461.9,247.7z"/>
	<path class="st0" d="M67,250c0-25.9,85.6-47.7,201.9-54.1C130.4,200.3,25,222.8,25,250s105.4,49.7,243.8,54.1
		C152.6,297.7,67,275.9,67,250z"/>
	<path class="st0" d="M120.4,250c0-18.6,36.5-35.2,93.3-46c-79.6,9.2-133.3,26.3-133.3,46c0,19.7,53.6,36.8,133.3,46
		C156.8,285.2,120.4,268.6,120.4,250z"/>
</g>
</svg>
