<?xml version="1.0" encoding="utf-8"?>
<!-- Generator: Adobe Illustrator 21.0.2, SVG Export Plug-In . SVG Version: 6.00 Build 0)  -->
<svg version="1.1" id="Calque_1" xmlns="http://www.w3.org/2000/svg" xmlns:xlink="http://www.w3.org/1999/xlink" x="0px" y="0px"
	 viewBox="0 0 436 374" style="enable-background:new 0 0 436 374;" xml:space="preserve">
<style type="text/css">
	.st0{fill:#545454;}
</style>
<path class="st0" d="M27.4,74.3c0,0,190-86,384-10.7c0,46.7,0,51.3,0,51.3S268,38.3,27.4,74.3z"/>
<path class="st0" d="M412.7,301.7c0,0-190,86-384,10.7c0-46.7,0-51.3,0-51.3S172,337.7,412.7,301.7z"/>
<path class="st0" d="M86.4,201.5V175h-28v-27.8c7.7-3.1,16.9-6.5,27.3-9.9v-27c-35.2,11.4-55.8,23.1-55.8,23.1V241
	c0,0,20.8,12.5,55.8,23.5l-0.1-26.2c-10.9-3.4-19.4-6.5-27.3-9.6v-27.2L86.4,201.5L86.4,201.5z"/>
<path class="st0" d="M272.7,118.2V92c-27.4-3.4-53.3-3.7-77.3-2.3v25.9l0,0c7.4-0.4,14.6-0.6,22.4-0.7v169.5
	c10.2,0,19.6-0.2,30.3-0.9l0,0V115.8l0,0C256.2,116.4,264.2,117.2,272.7,118.2L272.7,118.2z"/>
<path class="st0" d="M413,216.7V243l0,0c-22.2,9.6-44,17.3-65,23.2l0,0V108.3c9.7,3,18.9,6.8,28.8,10.7v112
	C388.7,226.9,400.9,222,413,216.7"/>
<path class="st0" d="M303.3,124c11.7,2.8,23.6,6,35.1,9.3l0,0v-27.4c-21.9-6.2-43.4-10.5-63.8-13.1v188.3l0,0
	c20.7-2.5,41.4-6.4,63.8-12.3v-26.1c-12.1,3.2-23.5,5.7-35.2,7.9V203h29.2v-27.3h-29.2V124H303.3z"/>
<path class="st0" d="M153.9,183.8c37-55,23.8-92.5,23.8-92.5c-10,1-19.6,2.2-28.8,3.7c4,26-1.9,43.3-12.9,65.3
	c-24-39.3-11.7-61-11.7-61c-9.6,2.1-19,5.2-27.3,7.7c0,0-13.7,34,24,79c-23,35-28.9,66.1-20.9,82.7c8,2.2,16.7,4.3,25.9,6.2
	c-9.7-29,12-65,12-65s26.3,30.3,22,70.7c9.8,1.3,19.2,2.3,30,3l0,0C194.7,231,153.9,183.8,153.9,183.8z"/>
</svg>
