<?xml version="1.0" encoding="utf-8"?>
<!-- Generator: Adobe Illustrator 21.0.2, SVG Export Plug-In . SVG Version: 6.00 Build 0)  -->
<svg version="1.1" id="Calque_1" xmlns="http://www.w3.org/2000/svg" xmlns:xlink="http://www.w3.org/1999/xlink" x="0px" y="0px"
	 viewBox="0 0 500 234" style="enable-background:new 0 0 500 234;" xml:space="preserve">
<g>
	<path d="M100.1,141.8l40.4-40.4H197v40.4h22.6l40.4-40.4h56.4v40.4H339V26h-32.3l-87.2,87v0h0l0,0V26h-32.3L71.5,141.8H100.1z
		 M316.4,44.8v37.8h-37.8L316.4,44.8z M197,45v37.7h-37.8L197,45z"/>
	<path d="M343.6,83.9L343.6,83.9c0,23.5,19.2,42.7,42.9,42.7l86.9,0.2v-18.6h-82.6c-13.4,0-24.3-10.8-24.3-24.1s10.9-24.1,24.3-24.1
		h82.6V41.1h-86.9C362.9,41.1,343.6,60.3,343.6,83.9z"/>
	<polygon points="41,101.2 96.8,101.2 115.6,82.6 41,82.6 41,62.8 135.3,62.8 153.9,44.2 19.4,44.2 19.4,126.6 41,126.6 	"/>
	<polygon points="63.9,166.4 67.9,166.4 68.9,162.7 64.9,162.7 	"/>
	<path d="M42.3,161.8c-6.6,0-14.3,3.4-15.8,9.7c-1.8,7.8,8,9.5,14.3,11.5c3.2,1.1,5.8,2.8,4.9,6.3c-1.2,4.6-7.1,6.9-11.8,6.9
		c-5.7,0-10-1.5-8.8-7.1h-4c-1.2,5.8,3.4,10,10,10c8.5,0,16.9-2.5,18.9-10.3c3.1-12.3-21.7-7.7-19.2-17.8c1.2-4.5,7.1-6.3,11.4-6.3
		s8.6,1.1,7.7,5.5h4C54.6,163.5,47.8,161.8,42.3,161.8z"/>
	<path d="M141,173c-3.8,0-8.3,1.5-11.1,4.5l-0.2-0.2l0.8-3.7H127c-0.3,1.7-0.6,3.5-1.1,5.5l-7.2,28.8h3.5v0l3.4-13.2h0.2
		c1.5,2.9,4.6,4.6,8.9,4.6c8.5,0,13.5-6.9,15.1-13.2C151.3,179.7,149.6,173,141,173z M146.1,185.5c-1.2,4.6-4.5,10.9-11.1,10.9
		c-7.5,0-8.6-5.4-7.2-11.1c1.2-5.1,5.1-9.8,11.8-9.8C146.2,175.5,147.3,180.7,146.1,185.5z"/>
	<polygon points="56.1,198.4 59.6,198.4 65.8,173.5 62.3,173.5 	"/>
	<path d="M108.1,172.7c-4.5,0-8.6,2.5-11.4,5.4c-0.5-3.2-3.5-5.4-8.1-5.4c-3.7,0-7.4,1.5-10.3,4.5l0,0l0.6-3.4h-3.5
		c-0.3,1.7-0.6,3.5-1.1,5.5l-4.8,19.2H73l3.5-14.3c1.1-4.5,4.8-8.6,10.5-8.6c4.8,0,7.1,2.5,6,6.8l-4,16h3.5l3.5-14.3
		c1.1-4.5,4.8-8.6,10.5-8.6c4.8,0,7.1,2.5,6,6.8l-4,16h3.5l3.8-15.5C116.5,180,117.6,172.7,108.1,172.7z"/>
	<polygon points="154.5,198.4 158,198.4 166.8,162.7 163.4,162.7 	"/>
	<polygon points="178.8,194.4 174.2,173.5 169.9,173.5 175.7,198.4 169,208 172.8,208 197.4,173.5 193.7,173.5 	"/>
	<path d="M230.2,172.7c-5.5,0-10.5,2-12.6,7.1h3.7c1.2-3.4,4.5-4.3,8.1-4.3c4.2,0,6.3,1.4,5.5,5.4h0l-0.6,2
		c-4.2,0.2-9.1-0.3-13.4,1.1c-3.8,1.2-6.9,3.8-7.7,7.2c-1.1,4.9,2.5,7.7,7.8,7.7c4,0,8.3-1.8,10.1-4l0.3-0.3h0.2l-0.8,3.7h3.5
		c0.3-1.7,0.6-3.5,1.1-5.5l2.9-11.8C240,175.2,236.6,172.7,230.2,172.7z M222.5,196.4L222.5,196.4c-3.5,0-6.3-1.5-5.2-5.1
		c1.5-6.2,11.7-5.4,16.6-5.5C232.8,191,230,196.4,222.5,196.4z"/>
	<path d="M314.4,172.7c-9.4,0-15.2,6.8-16.9,13.2c-1.7,6.6,1.1,13.2,10.3,13.2c9.2,0,15.1-6.6,16.8-13.2
		C326.1,179.5,323.5,172.9,314.4,172.7z M320.6,186c-1.1,4.6-5.2,10.5-12.3,10.5c-6.9,0-8.3-5.8-7.2-10.5
		c1.2-4.6,5.4-10.5,12.5-10.5C320.6,175.5,322,181.4,320.6,186z"/>
	<path d="M269.4,173.5l-3.4,14c-1.1,4.5-4.8,8.6-10.5,8.6c-4.8,0-7.1-2.5-6-6.8l4-16H250l-3.8,15.5c-0.6,2.8-1.7,10,7.8,10
		c3.7,0,7.4-1.4,10.1-4.5l0.2,0.2l-0.8,3.7h3.5c0.3-1.7,0.6-3.5,1.1-5.5l4.8-19.2L269.4,173.5L269.4,173.5z"/>
	<path d="M290.3,167.1l-3.8,1.2l-1.2,5.2h-5.8l-0.8,2.8h5.8h0l-4.2,15.7c-0.8,3.4-2.2,7.4,5.2,7.4c1.2,0,2.5-0.2,3.7-0.5l0.6-2.6
		c-0.9,0.3-2,0.3-3.1,0.3c-2.6,0-3.7-1.2-3.1-3.5l4.2-16.6h6.6l0.8-2.8h-6.6L290.3,167.1z"/>
	<path d="M367.6,172.7c-4.5,0-8.6,2.5-11.4,5.4c-0.5-3.2-3.5-5.4-8.1-5.4c-3.7,0-7.4,1.5-10.3,4.5v0l0,0l0,0l0.6-3.4h-3.5
		c-0.3,1.7-0.6,3.5-1.1,5.5l-4.8,19.2h3.5l3.5-14.3c1.1-4.5,4.8-8.6,10.5-8.6c4.8,0,7.1,2.5,6,6.8l-4,16h3.5l3.5-14.3
		c1.1-4.5,4.8-8.6,10.5-8.6c4.8,0,7.1,2.5,6,6.8l-4,16h3.5l3.8-15.5C376.1,180,377.2,172.7,367.6,172.7z"/>
	<path d="M397.3,172.7c-5.5,0-10.5,2-12.6,7.1h3.8c1.2-3.4,4.5-4.3,8.1-4.3c4.2,0,6.3,1.4,5.5,5.4l-0.8,2c-4.2,0.2-9.1-0.3-13.4,1.1
		c-3.8,1.2-6.9,3.8-7.7,7.2c-1.1,4.9,2.5,7.7,7.8,7.7c4,0,8.3-1.8,10.1-4l0.3-0.3h0.2l-0.8,3.7h3.5c0.3-1.7,0.6-3.5,1.1-5.5
		l2.9-11.8C407.1,175.2,403.8,172.7,397.3,172.7z M389.6,196.4L389.6,196.4c-3.5,0-6.2-1.5-5.2-5.1c1.5-6.2,11.7-5.4,16.6-5.5
		C399.9,191,397.2,196.4,389.6,196.4z"/>
	<polygon points="475.9,194.1 475,198.4 479.6,198.4 480.6,194.1 	"/>
	<path d="M424.8,167.1l-3.8,1.2l-1.2,5.2h-5.8l-0.8,2.8h5.8l-4.2,15.7c-0.8,3.4-2.2,7.4,5.2,7.4c1.2,0,2.5-0.2,3.7-0.5l0.6-2.6
		c-0.9,0.3-2,0.3-3.1,0.3c-2.6,0-3.7-1.2-3.1-3.5l4.2-16.6h6.6l0.8-2.8h-6.6L424.8,167.1z"/>
	<polygon points="430.8,198.4 434.4,198.4 440.5,173.5 437,173.5 	"/>
	<polygon points="438.5,166.4 442.5,166.4 443.4,162.7 439.4,162.7 	"/>
	<path d="M461.6,172.6c-8.6,0-14.6,6.5-16.3,13.2c-1.7,6.8,0.8,13.2,9.5,13.2c6.5,0,11.1-2.8,13.4-8.5h-3.7
		c-1.1,3.5-4.9,5.8-9.4,5.8c-5.2,0-7.4-4.8-6-10.5c1.4-5.7,5.8-10.5,11.2-10.5c4.8,0,7.1,1.8,6.6,5.4h3.7
		C471.7,175.7,467.6,172.6,461.6,172.6z"/>
</g>
</svg>
