<?xml version="1.0" encoding="utf-8"?>
<!-- Generator: Adobe Illustrator 16.0.0, SVG Export Plug-In . SVG Version: 6.00 Build 0)  -->
<!DOCTYPE svg PUBLIC "-//W3C//DTD SVG 1.1//EN" "http://www.w3.org/Graphics/SVG/1.1/DTD/svg11.dtd">
<svg version="1.1" id="Calque_1" xmlns="http://www.w3.org/2000/svg" xmlns:xlink="http://www.w3.org/1999/xlink" x="0px" y="0px"
	 width="500px" height="500px" viewBox="0 0 500 500" enable-background="new 0 0 500 500" xml:space="preserve">
<g>
	<path d="M458.042,273.044c0-4.803,3.896-8.346,8.5-8.346c4.562,0,8.458,3.543,8.458,8.346c0,4.844-3.896,8.39-8.458,8.39
		C461.938,281.434,458.042,277.888,458.042,273.044z M466.542,280.039c3.786,0,6.771-2.967,6.771-6.994
		c0-3.965-2.985-6.952-6.771-6.952c-3.831,0-6.818,2.987-6.818,6.952C459.724,277.072,462.711,280.039,466.542,280.039z
		 M464.771,277.888h-1.461v-9.646h3.674c2.281,0,3.409,0.838,3.409,2.744c0,1.729-1.084,2.48-2.5,2.658l2.747,4.244h-1.64
		l-2.545-4.179h-1.685V277.888z M466.521,272.471c1.238,0,2.346-0.089,2.346-1.577c0-1.193-1.084-1.417-2.103-1.417h-1.993v2.994
		H466.521z"/>
	<rect x="138.486" y="217.372" width="313.724" height="65.363"/>
	<g>
		<g>
			<rect x="29.383" y="217.391" fill="#E2001A" width="104.627" height="65.335"/>
			<path fill="#FFFFFF" d="M114.656,230.531l-72.972-0.083v9.805h44.09l-2.881,4.894H41.753l5.622,9.803h35.389l2.967,5.03H50.386
				l5.821,9.804l58.449,0.003l11.573-19.626L114.656,230.531z M103.424,260.17c-5.64,0-10.216-4.476-10.216-9.998
				c0-5.521,4.577-10,10.216-10s10.21,4.479,10.21,10C113.634,255.695,109.064,260.17,103.424,260.17z"/>
		</g>
		<g>
			<path fill="#FFFFFF" d="M239.478,232.172c-2.124-0.714-9.483-1.891-18.654-1.876c-9.812-0.026-16.393,1.229-18.597,2.008
				c-2.703,0.955-4.63,2.887-4.63,7.234v30.072h13.251l0.054-10.744h19.817v10.744l13.548-0.021l-0.226-30.393
				C244.004,234.566,241.411,232.826,239.478,232.172z M210.828,249.865c0,0-0.063-6.554-0.063-7.333
				c0.065-1.921,1.699-2.673,3.608-2.853c2.043-0.258,4.511-0.292,6.534-0.313c2.462-0.031,6.581,0.313,6.581,0.313
				c1.583,0.118,3.255,0.706,3.332,2.859l-0.024,7.326H210.828z"/>
			<path fill="#FFFFFF" d="M166.521,241.83c0.606-0.514,1.482-1.041,3.142-1.121c5.236-0.252,22.443-0.235,22.443-0.235v-9.742
				c0,0-8.435-0.256-11.74-0.284c-2.765-0.025-8.39,0.061-10.445,0.083c-2.607,0.043-5.259,0.184-7.08,0.453
				c-1.999,0.299-3.54,0.66-5.051,1.196c-1.346,0.471-2.349,1.08-2.932,1.471c-0.656,0.443-1.666,1.314-2.162,2.1
				c-0.68,1.084-0.832,2.458-0.832,3.733v30.214h13.714l0.012-9.555h25.638v-9.555h-25.626l0.009-5.598
				C165.612,243.388,165.933,242.363,166.521,241.83z"/>
			<g>
				<path fill="#FFFFFF" d="M285.026,254.438c0,0,0.003,1.768,0,1.979c-0.006,0.665-0.154,1.609-0.775,2.396
					c-0.858,1.084-1.726,1.387-2.741,1.512c-0.312,0.038-3.603,0.148-5.058,0.154c-1.452,0.003-4.476-0.095-4.829-0.137
					c-0.354-0.047-1.55,0.006-2.72-1.271c-1.025-1.122-0.938-2.654-0.938-2.654V243.78c0,0-0.054-1.396,1-2.596
					c1.049-1.201,2.284-1.235,2.581-1.285c0.3-0.056,3.071-0.157,4.939-0.157c1.87,0,4.268,0.083,4.6,0.117
					c0.354,0.03,1.785,0.081,2.893,1.158c1.061,1.028,1.046,2.602,1.049,2.762c0,0.16,0,1.887,0,1.887l13.111-0.012l0.015-7.327
					c-0.021-4.37-4.229-6.433-5.717-6.84c-3.243-0.88-6.91-1.235-16.423-1.17c-11.205,0.08-14.354,0.896-16.36,1.4
					c-3.469,0.879-5.887,3.607-5.89,7.214l0.015,10.559l-0.023,11.387c0.023,4.928,3.894,6.837,5.194,7.227
					c3.095,0.936,6.629,1.707,16.945,1.707c10.694,0,14.85-1.149,16.747-1.707c3.451-0.995,5.491-3.528,5.503-7.909v-5.765
					L285.026,254.438z"/>
			</g>
			<path fill="#FFFFFF" d="M349.053,231.902c-2.344-0.749-5.741-1.614-19.114-1.568c-13.177,0.046-15.77,0.679-18.668,1.546
				c-3.071,0.921-5.42,3.594-5.423,6.89l-0.03,22.725c-0.009,4.669,4.592,6.727,5.281,6.914c3.358,0.927,5.523,1.271,18.867,1.36
				c12.791,0.077,17.546-0.814,19.081-1.295c3.062-0.957,5.093-3.736,5.099-7.027l0.024-22.668
				C354.179,234.101,350.243,232.284,349.053,231.902z M339.32,259.484c-1.146,1.179-2.735,1.352-3.073,1.396
				c-0.244,0.027-2.946,0.256-6.21,0.268c-3.267,0.009-6.367-0.258-6.48-0.268c-0.116-0.015-1.868-0.204-2.958-1.451
				c-1.087-1.242-0.95-3.196-0.95-3.196s0-12.228,0-12.472c0.003-0.649-0.051-1.819,0.736-2.771c0.733-0.887,1.734-1.27,2.396-1.393
				c0.847-0.156,4.387-0.505,7.148-0.517c2.762-0.009,6.37,0.24,7.116,0.421c0.725,0.172,1.562,0.462,2.388,1.386
				c0.79,0.882,0.855,2.001,0.855,2.855c-0.003,0.946-0.003,11.996,0,12.514C340.289,256.776,340.435,258.334,339.32,259.484z"/>
			<path fill="#FFFFFF" d="M431.747,231.384c-1.58-0.434-3.661-1.12-12.928-1.25c-5.47,0.1-9.206-0.04-12.315,0.619
				c-2.649,0.562-5.862,2.922-5.862,6.526l-0.015-0.009c0-3.607-3.229-6.102-5.788-6.512c-3.683-0.588-6.852-0.52-12.316-0.615
				c-9.271,0.124-11.348,0.813-12.934,1.25c-2.667,0.741-7.249,2.576-7.279,6.886v31.421h14.199l-0.015-26.213
				c-0.003-1.402,0.87-2.979,3.646-3.61c1.033-0.311,2.86-0.523,4.844-0.533c1.993-0.049,4.938,0.465,4.938,0.465
				c2.115,0.515,3.728,1.716,3.686,3.785v26.1l14.128-0.009v-26.094c-0.051-2.072,1.56-3.276,3.677-3.788
				c0,0,1.788-0.462,4.938-0.462c1.987-0.003,3.828,0.229,4.847,0.53c2.943,0.806,3.65,2.211,3.647,3.605l-0.012,26.217h14.192
				v-31.417C439,233.964,434.42,232.126,431.747,231.384z"/>
		</g>
	</g>
</g>
</svg>
