<?xml version="1.0" encoding="utf-8"?>
<!-- Generator: Adobe Illustrator 19.1.0, SVG Export Plug-In . SVG Version: 6.00 Build 0)  -->
<svg version="1.1" id="Calque_1" xmlns="http://www.w3.org/2000/svg" xmlns:xlink="http://www.w3.org/1999/xlink" x="0px" y="0px"
	 viewBox="-345 170.9 500 500" style="enable-background:new -345 170.9 500 500;" xml:space="preserve">
<style type="text/css">
	.st0{fill:#ED2100;}
</style>
<g id="Nouveau_symbole">
</g>
<path class="st0" d="M58.3,346.2c-23.9,0-45,11.7-57.9,29.7h90.9l-21,20.5H-9.8c-1.3,4.1-2.2,8.3-2.7,12.7h69.8l-21,20.5h-48.3
	c5.8,33.6,35,59.2,70.3,59.2c39.4,0,71.3-31.9,71.3-71.3C129.6,378.1,97.7,346.2,58.3,346.2z"/>
<path d="M-316.8,375.2h44.6v14.4h-25.2v8.1h19.2V412h-19.2v18.3h-19.5V375.2z"/>
<path d="M-258.6,430.3h-20.5l18.5-55.1h21.4l19,55.1h-20.5l-1.8-6.9h-14.6L-258.6,430.3z M-245.8,410.3l-2.3-9.7
	c-0.3-1.2-0.5-2.4-0.7-3.5c-0.2-1.2-0.4-2.4-0.6-3.5h-0.7l-3.5,16.8L-245.8,410.3L-245.8,410.3z"/>
<path d="M-133.7,374.3c4,0,7.9,0.7,11.4,2c3.6,1.4,6.7,3.3,9.3,5.8c2.7,2.5,4.8,5.5,6.3,9c1.6,3.5,2.3,7.4,2.3,11.8
	c0,4.4-0.8,8.4-2.3,11.9c-1.6,3.5-3.7,6.4-6.3,8.9c-2.7,2.4-5.8,4.3-9.3,5.6c-3.6,1.3-7.4,1.9-11.4,1.9c-4,0-7.9-0.6-11.4-1.9
	c-3.6-1.3-6.7-3.2-9.3-5.6c-2.7-2.4-4.8-5.4-6.3-8.9c-1.6-3.5-2.3-7.4-2.3-11.9c0-4.3,0.8-8.3,2.3-11.8c1.6-3.5,3.7-6.5,6.3-9
	c2.7-2.5,5.8-4.4,9.3-5.8C-141.5,375-137.7,374.3-133.7,374.3z M-133.7,392.4c-1.6,0-2.9,0.3-4.2,0.8c-1.2,0.6-2.3,1.3-3.1,2.3
	c-0.8,1-1.5,2.1-2,3.4c-0.5,1.3-0.7,2.7-0.7,4.1c0,3.2,0.9,5.7,2.8,7.7c1.8,1.9,4.2,2.9,7.2,2.9c3,0,5.4-1,7.2-2.9
	c1.8-1.9,2.8-4.5,2.8-7.7c0-1.5-0.2-2.8-0.7-4.1c-0.5-1.3-1.1-2.4-2-3.4c-0.8-1-1.9-1.8-3.1-2.3
	C-130.7,392.7-132.1,392.4-133.7,392.4z"/>
<path d="M-99.5,375.2h25c3.2,0,6.3,0.3,9.1,1c2.9,0.7,5.4,1.8,7.6,3.3c2.2,1.5,3.9,3.5,5.1,6c1.3,2.4,1.9,5.4,1.9,8.8
	c0,2.1-0.2,3.9-0.6,5.4c-0.4,1.5-1.1,2.8-2,3.9c-0.9,1.1-2.1,2.1-3.4,2.9c-1.4,0.8-3,1.5-5,2.1v0.4c0.6,0.4,1.1,0.8,1.7,1.3
	c0.6,0.5,1.2,1.1,1.7,2l12.4,17.9h-23.9l-9.1-17.7h-0.4v17.7h-20.3L-99.5,375.2L-99.5,375.2z M-79.2,399.6h1.4c0.9,0,1.7,0,2.5-0.1
	c0.8-0.1,1.5-0.3,2.2-0.6c0.7-0.3,1.2-0.8,1.5-1.4c0.4-0.6,0.6-1.4,0.6-2.4c0-1.1-0.2-1.9-0.5-2.5c-0.4-0.6-0.8-1.1-1.4-1.4
	c-0.6-0.3-1.3-0.6-2.1-0.7c-0.8-0.1-1.7-0.1-2.6-0.1h-1.6V399.6z"/>
<path d="M-194.6,398.4v13.3h8.8c-0.2,0.8-0.6,1.6-1.2,2.2c-0.6,0.6-1.2,1.1-1.9,1.5c-0.7,0.4-1.5,0.7-2.3,0.9
	c-0.8,0.2-1.6,0.3-2.4,0.3c-1.6,0-3-0.3-4.2-1c-1.2-0.7-2.3-1.6-3.1-2.7c-0.8-1.1-1.5-2.4-1.9-3.9c-0.4-1.4-0.7-2.9-0.7-4.5
	c0-1.7,0.2-3.3,0.7-4.9c0.5-1.6,1.2-3,2.1-4.2c0.9-1.2,2-2.2,3.4-2.9c1.3-0.7,2.8-1.1,4.6-1.1c1.6,0,3,0.4,4.3,1.1
	c1.3,0.7,2.3,1.8,3.1,3.3l18.1-7c-1-2.4-2.5-4.5-4.5-6.3c-2-1.8-4.2-3.3-6.6-4.6c-2.4-1.2-5-2.1-7.6-2.7c-2.6-0.6-5.1-0.9-7.4-0.9
	c-4.2,0-8.1,0.7-11.7,2c-3.6,1.3-6.7,3.3-9.3,5.8c-2.6,2.5-4.7,5.6-6.2,9.3c-1.5,3.6-2.3,7.8-2.3,12.3c0,4.5,0.8,8.6,2.3,12.1
	c1.5,3.5,3.6,6.5,6.3,9c2.7,2.5,5.8,4.3,9.4,5.6c3.6,1.3,7.4,1.9,11.4,1.9c2.1,0,4.1-0.2,6.2-0.6c2.1-0.4,4.1-1.1,6-1.9
	c1.9-0.8,3.8-1.9,5.6-3.1c1.8-1.2,3.4-2.7,4.8-4.3c1.6-1.8,2.8-3.6,3.6-5.5c0.3-0.5,0.4-1.1,0.7-1.7v-16.9L-194.6,398.4
	L-194.6,398.4z"/>
</svg>
