<?xml version="1.0" encoding="utf-8"?>
<!-- Generator: Adobe Illustrator 21.0.2, SVG Export Plug-In . SVG Version: 6.00 Build 0)  -->
<svg version="1.1" id="Calque_1" xmlns="http://www.w3.org/2000/svg" xmlns:xlink="http://www.w3.org/1999/xlink" x="0px" y="0px"
	 viewBox="0 0 500 190" style="enable-background:new 0 0 500 190;" xml:space="preserve">
<style type="text/css">
	.st0{fill:#ED2100;}
</style>
<path class="st0" d="M403.3,20.3c-23.9,0-45,11.7-57.9,29.7h90.9l-21,20.5h-80.1c-1.3,4.1-2.2,8.3-2.7,12.7h69.8l-21,20.5H333
	c5.8,33.6,35,59.2,70.3,59.2c39.4,0,71.3-31.9,71.3-71.3C474.6,52.2,442.7,20.3,403.3,20.3z"/>
<path d="M28.2,49.3h44.6v14.4H47.6v8.1h19.2v14.3H47.6v18.3H28.1V49.3H28.2z"/>
<path d="M86.4,104.4H65.9l18.5-55.1h21.4l19,55.1h-20.5l-1.8-6.9H87.9L86.4,104.4z M99.2,84.4l-2.3-9.7c-0.3-1.2-0.5-2.4-0.7-3.5
	c-0.2-1.2-0.4-2.4-0.6-3.5h-0.7l-3.5,16.8L99.2,84.4L99.2,84.4z"/>
<path d="M211.3,48.4c4,0,7.9,0.7,11.4,2c3.6,1.4,6.7,3.3,9.3,5.8c2.7,2.5,4.8,5.5,6.3,9c1.6,3.5,2.3,7.4,2.3,11.8s-0.8,8.4-2.3,11.9
	c-1.6,3.5-3.7,6.4-6.3,8.9c-2.7,2.4-5.8,4.3-9.3,5.6c-3.6,1.3-7.4,1.9-11.4,1.9s-7.9-0.6-11.4-1.9c-3.6-1.3-6.7-3.2-9.3-5.6
	c-2.7-2.4-4.8-5.4-6.3-8.9c-1.6-3.5-2.3-7.4-2.3-11.9c0-4.3,0.8-8.3,2.3-11.8c1.6-3.5,3.7-6.5,6.3-9c2.7-2.5,5.8-4.4,9.3-5.8
	C203.5,49.1,207.3,48.4,211.3,48.4z M211.3,66.5c-1.6,0-2.9,0.3-4.2,0.8c-1.2,0.6-2.3,1.3-3.1,2.3s-1.5,2.1-2,3.4s-0.7,2.7-0.7,4.1
	c0,3.2,0.9,5.7,2.8,7.7c1.8,1.9,4.2,2.9,7.2,2.9s5.4-1,7.2-2.9s2.8-4.5,2.8-7.7c0-1.5-0.2-2.8-0.7-4.1c-0.5-1.3-1.1-2.4-2-3.4
	c-0.8-1-1.9-1.8-3.1-2.3C214.3,66.8,212.9,66.5,211.3,66.5z"/>
<path d="M245.5,49.3h25c3.2,0,6.3,0.3,9.1,1c2.9,0.7,5.4,1.8,7.6,3.3c2.2,1.5,3.9,3.5,5.1,6c1.3,2.4,1.9,5.4,1.9,8.8
	c0,2.1-0.2,3.9-0.6,5.4s-1.1,2.8-2,3.9s-2.1,2.1-3.4,2.9c-1.4,0.8-3,1.5-5,2.1v0.4c0.6,0.4,1.1,0.8,1.7,1.3s1.2,1.1,1.7,2l12.4,17.9
	h-23.9L266,86.6h-0.4v17.7h-20.3L245.5,49.3L245.5,49.3z M265.8,73.7h1.4c0.9,0,1.7,0,2.5-0.1c0.8-0.1,1.5-0.3,2.2-0.6
	c0.7-0.3,1.2-0.8,1.5-1.4c0.4-0.6,0.6-1.4,0.6-2.4c0-1.1-0.2-1.9-0.5-2.5c-0.4-0.6-0.8-1.1-1.4-1.4s-1.3-0.6-2.1-0.7
	s-1.7-0.1-2.6-0.1h-1.6V73.7z"/>
<path d="M150.4,72.5v13.3h8.8c-0.2,0.8-0.6,1.6-1.2,2.2c-0.6,0.6-1.2,1.1-1.9,1.5s-1.5,0.7-2.3,0.9c-0.8,0.2-1.6,0.3-2.4,0.3
	c-1.6,0-3-0.3-4.2-1s-2.3-1.6-3.1-2.7s-1.5-2.4-1.9-3.9c-0.4-1.4-0.7-2.9-0.7-4.5c0-1.7,0.2-3.3,0.7-4.9s1.2-3,2.1-4.2
	c0.9-1.2,2-2.2,3.4-2.9c1.3-0.7,2.8-1.1,4.6-1.1c1.6,0,3,0.4,4.3,1.1s2.3,1.8,3.1,3.3l18.1-7c-1-2.4-2.5-4.5-4.5-6.3
	s-4.2-3.3-6.6-4.6c-2.4-1.2-5-2.1-7.6-2.7s-5.1-0.9-7.4-0.9c-4.2,0-8.1,0.7-11.7,2c-3.6,1.3-6.7,3.3-9.3,5.8s-4.7,5.6-6.2,9.3
	c-1.5,3.6-2.3,7.8-2.3,12.3s0.8,8.6,2.3,12.1s3.6,6.5,6.3,9s5.8,4.3,9.4,5.6c3.6,1.3,7.4,1.9,11.4,1.9c2.1,0,4.1-0.2,6.2-0.6
	c2.1-0.4,4.1-1.1,6-1.9s3.8-1.9,5.6-3.1s3.4-2.7,4.8-4.3c1.6-1.8,2.8-3.6,3.6-5.5c0.3-0.5,0.4-1.1,0.7-1.7V72.4L150.4,72.5
	L150.4,72.5z"/>
</svg>
