<?xml version="1.0" encoding="utf-8"?>
<!-- Generator: Adobe Illustrator 21.1.0, SVG Export Plug-In . SVG Version: 6.00 Build 0)  -->
<svg version="1.1" id="Calque_1" xmlns="http://www.w3.org/2000/svg" xmlns:xlink="http://www.w3.org/1999/xlink" x="0px" y="0px"
	 viewBox="0 0 500 150" style="enable-background:new 0 0 500 150;" xml:space="preserve">
<style type="text/css">
	.st0{fill:#0CB14B;}
	.st1{fill:#F7931D;}
	.st2{fill:#00BFE0;}
	.st3{fill:#FFF200;}
</style>
<g>
	<path class="st0" d="M23.9,27.6V58h42v5.1h-42v33.6h-5.5V22.5h52.3v5.1H23.9z"/>
	<path class="st0" d="M141.7,96.8L132.3,76H88.4L79,96.8h-5.7L107.9,22h5.3l34.6,74.8H141.7z M110.4,28L90.8,71h39.2L110.4,28z"/>
	<path class="st0" d="M216.9,96.8L193.3,66H169v30.8h-5.5V22.5h31.2c16,0,26.5,8.7,26.5,21.1v0.2c0,12.4-9.2,19.5-21.8,21.2
		l24.5,31.7H216.9z M215.6,43.8c0-10-7.9-16.2-21.3-16.2H169V61h25c12.4,0,21.6-6.3,21.6-17V43.8z"/>
	<path class="st0" d="M304.7,96.8V32.3L275.3,75h-0.4l-29.4-42.8v64.5h-5.3V22.5h5.2l29.8,43.9L305,22.5h5.2v74.3H304.7z"/>
	<path class="st0" d="M473.5,96.8L449.9,66h-24.3v30.8H420V22.5h31.2c16,0,26.5,8.7,26.5,21.1v0.2c0,12.4-9.2,19.5-21.8,21.2
		l24.5,31.7H473.5z M472.2,43.8c0-10-7.9-16.2-21.3-16.2h-25.4V61h25c12.4,0,21.6-6.3,21.6-17V43.8z"/>
	<path class="st1" d="M63.8,128c-1.1,0-2.1-0.2-3-0.6c-0.9-0.4-1.7-0.9-2.4-1.6c-0.7-0.7-1.2-1.5-1.6-2.4c-0.4-0.9-0.6-1.9-0.6-3v0
		c0-1.1,0.2-2.1,0.6-3c0.4-0.9,0.9-1.8,1.6-2.5c0.7-0.7,1.5-1.3,2.4-1.7c0.9-0.4,2-0.6,3.1-0.6c0.7,0,1.3,0.1,1.9,0.2
		c0.6,0.1,1.1,0.3,1.5,0.5c0.5,0.2,0.9,0.5,1.3,0.7c0.4,0.3,0.8,0.6,1.1,0.9l-1.7,1.9c-0.6-0.6-1.2-1-1.9-1.3
		c-0.7-0.3-1.4-0.5-2.3-0.5c-0.7,0-1.4,0.1-2,0.4c-0.6,0.3-1.1,0.7-1.6,1.1c-0.4,0.5-0.8,1-1,1.7c-0.2,0.6-0.4,1.3-0.4,2.1v0
		c0,0.7,0.1,1.4,0.4,2.1c0.2,0.6,0.6,1.2,1,1.7c0.4,0.5,1,0.9,1.6,1.1c0.6,0.3,1.3,0.4,2,0.4c0.9,0,1.7-0.2,2.4-0.5
		c0.7-0.3,1.3-0.8,1.9-1.4l1.7,1.7c-0.4,0.4-0.8,0.8-1.2,1.1c-0.4,0.3-0.9,0.6-1.4,0.8c-0.5,0.2-1,0.4-1.6,0.5
		C65.1,128,64.5,128,63.8,128z"/>
	<path class="st1" d="M72.6,112.8h6.7c0.9,0,1.8,0.1,2.5,0.4c0.7,0.3,1.3,0.6,1.8,1.1c0.4,0.4,0.7,0.9,0.9,1.4
		c0.2,0.5,0.3,1.1,0.3,1.8v0c0,0.6-0.1,1.2-0.3,1.7c-0.2,0.5-0.4,0.9-0.7,1.3s-0.7,0.7-1.1,1c-0.4,0.3-0.9,0.5-1.4,0.6l4,5.7h-3.1
		l-3.7-5.2h0h-3.3v5.2h-2.6V112.8z M79,120.2c0.9,0,1.7-0.2,2.3-0.7c0.6-0.5,0.8-1.1,0.8-1.8v0c0-0.8-0.3-1.4-0.8-1.9
		c-0.5-0.4-1.3-0.6-2.3-0.6h-3.8v5H79z"/>
	<polygon class="st1" points="96.6,109.1 94.3,108.1 92,111.6 94,111.6 	"/>
	<polygon class="st1" points="90.6,125.4 90.6,121.4 98.1,121.4 98.1,119 90.6,119 90.6,115.1 99.1,115.2 99.1,112.8 88,112.8 
		88,127.8 99.2,127.8 99.2,125.4 	"/>
	<path class="st1" d="M107.7,112.7h2.4l6.6,15.1h-2.8l-1.5-3.6h-7.1l-1.5,3.6h-2.7L107.7,112.7z M111.4,121.8l-2.6-6l-2.6,6H111.4z"
		/>
	<path class="st1" d="M121,115.3h-4.7v-2.4h12.1v2.4h-4.7v12.5H121V115.3z"/>
	<path class="st1" d="M131.2,112.8h11.1v2.4h-8.5v3.8h7.5v2.4h-7.5v4h8.6v2.4h-11.2V112.8z"/>
	<path class="st1" d="M151.6,128c-1,0-1.8-0.1-2.6-0.4c-0.8-0.3-1.5-0.7-2-1.3c-0.6-0.6-1-1.2-1.3-2.1c-0.3-0.8-0.4-1.8-0.4-2.9
		v-8.6h2.6v8.5c0,1.4,0.3,2.5,1,3.2c0.7,0.7,1.6,1.1,2.8,1.1c1.2,0,2.1-0.3,2.8-1c0.7-0.7,1-1.7,1-3.1v-8.6h2.6v8.5
		c0,1.1-0.2,2.1-0.5,2.9c-0.3,0.8-0.7,1.5-1.3,2.1c-0.6,0.6-1.2,1-2,1.3C153.5,127.9,152.6,128,151.6,128z"/>
	<path class="st1" d="M161.7,112.8h6.7c0.9,0,1.8,0.1,2.5,0.4c0.7,0.3,1.3,0.6,1.8,1.1c0.4,0.4,0.7,0.9,0.9,1.4
		c0.2,0.5,0.3,1.1,0.3,1.8v0c0,0.6-0.1,1.2-0.3,1.7c-0.2,0.5-0.4,0.9-0.7,1.3c-0.3,0.4-0.7,0.7-1.1,1c-0.4,0.3-0.9,0.5-1.4,0.6
		l4,5.7h-3.1l-3.7-5.2h0h-3.3v5.2h-2.6V112.8z M168.1,120.2c0.9,0,1.7-0.2,2.3-0.7c0.6-0.5,0.8-1.1,0.8-1.8v0c0-0.8-0.3-1.4-0.8-1.9
		c-0.5-0.4-1.3-0.6-2.3-0.6h-3.8v5H168.1z"/>
	<path class="st1" d="M183.5,112.8h5.6c1.2,0,2.2,0.2,3.2,0.6s1.8,0.9,2.5,1.6c0.7,0.7,1.3,1.5,1.6,2.4c0.4,0.9,0.6,1.9,0.6,2.9v0
		c0,1.1-0.2,2-0.6,2.9c-0.4,0.9-0.9,1.7-1.6,2.4c-0.7,0.7-1.5,1.2-2.5,1.6s-2,0.6-3.2,0.6h-5.6V112.8z M189.1,125.4
		c0.8,0,1.5-0.1,2.1-0.4c0.6-0.3,1.2-0.6,1.6-1.1c0.4-0.5,0.8-1,1-1.6c0.2-0.6,0.4-1.3,0.4-2v0c0-0.7-0.1-1.4-0.4-2
		c-0.2-0.6-0.6-1.2-1-1.6c-0.4-0.5-1-0.8-1.6-1.1c-0.6-0.3-1.4-0.4-2.1-0.4h-2.9v10.2H189.1z"/>
	<path class="st1" d="M200.2,112.8h11.1v2.4h-8.5v3.8h7.5v2.4h-7.5v4h8.6v2.4h-11.2V112.8z"/>
	<path class="st1" d="M221,112.8h5.9c0.9,0,1.7,0.1,2.4,0.4c0.7,0.2,1.3,0.6,1.8,1c0.5,0.4,0.9,1,1.1,1.6c0.3,0.6,0.4,1.3,0.4,2.1v0
		c0,0.8-0.2,1.6-0.5,2.2c-0.3,0.6-0.7,1.2-1.3,1.6c-0.5,0.4-1.2,0.8-1.9,1c-0.7,0.2-1.5,0.3-2.3,0.3h-3v4.8H221V112.8z M226.6,120.6
		c1,0,1.8-0.3,2.4-0.8c0.6-0.5,0.9-1.1,0.9-1.9v0c0-0.9-0.3-1.6-0.9-2c-0.6-0.5-1.4-0.7-2.4-0.7h-3.1v5.4H226.6z"/>
	<path class="st1" d="M235.3,112.8h6.7c0.9,0,1.8,0.1,2.5,0.4c0.7,0.3,1.3,0.6,1.8,1.1c0.4,0.4,0.7,0.9,0.9,1.4
		c0.2,0.5,0.3,1.1,0.3,1.8v0c0,0.6-0.1,1.2-0.3,1.7c-0.2,0.5-0.4,0.9-0.7,1.3c-0.3,0.4-0.7,0.7-1.1,1c-0.4,0.3-0.9,0.5-1.4,0.6
		l4,5.7h-3.1l-3.7-5.2h0h-3.3v5.2h-2.6V112.8z M241.7,120.2c0.9,0,1.7-0.2,2.3-0.7c0.6-0.5,0.8-1.1,0.8-1.8v0c0-0.8-0.3-1.4-0.8-1.9
		c-0.5-0.4-1.3-0.6-2.3-0.6h-3.8v5H241.7z"/>
	<path class="st1" d="M250.7,112.8h11.1v2.4h-8.5v3.8h7.5v2.4h-7.5v4h8.6v2.4h-11.2V112.8z"/>
	<path class="st1" d="M265,112.8h2.8l4.6,7.1l4.6-7.1h2.8v15h-2.6V117l-4.7,7.1h-0.1l-4.7-7v10.7H265V112.8z"/>
	<path class="st1" d="M283.7,112.8h2.6v15h-2.6V112.8z"/>
	<path class="st1" d="M290.4,112.8h11.1v2.4H293v3.8h7.5v2.4H293v4h8.6v2.4h-11.2V112.8z"/>
	<path class="st1" d="M304.7,112.8h6.7c0.9,0,1.8,0.1,2.5,0.4c0.7,0.3,1.3,0.6,1.8,1.1c0.4,0.4,0.7,0.9,0.9,1.4
		c0.2,0.5,0.3,1.1,0.3,1.8v0c0,0.6-0.1,1.2-0.3,1.7c-0.2,0.5-0.4,0.9-0.7,1.3c-0.3,0.4-0.7,0.7-1.1,1c-0.4,0.3-0.9,0.5-1.4,0.6
		l4,5.7h-3.1l-3.7-5.2h0h-3.3v5.2h-2.6V112.8z M311.1,120.2c0.9,0,1.7-0.2,2.3-0.7c0.6-0.5,0.8-1.1,0.8-1.8v0c0-0.8-0.3-1.4-0.8-1.9
		c-0.5-0.4-1.3-0.6-2.3-0.6h-3.8v5H311.1z"/>
	<path class="st1" d="M325.4,128c-1.2,0-2.3-0.2-3.3-0.6c-1.1-0.4-2-1-2.9-1.8l1.6-1.9c0.7,0.6,1.5,1.1,2.2,1.4
		c0.7,0.3,1.6,0.5,2.5,0.5c0.8,0,1.5-0.2,1.9-0.5c0.5-0.3,0.7-0.8,0.7-1.4v0c0-0.3,0-0.5-0.1-0.7s-0.3-0.4-0.5-0.6
		c-0.2-0.2-0.6-0.4-1-0.5c-0.4-0.2-1-0.3-1.7-0.5c-0.8-0.2-1.5-0.4-2.1-0.6c-0.6-0.2-1.1-0.5-1.6-0.9c-0.4-0.3-0.7-0.7-1-1.2
		c-0.2-0.5-0.3-1.1-0.3-1.8v0c0-0.6,0.1-1.2,0.4-1.8c0.3-0.5,0.6-1,1-1.4c0.4-0.4,1-0.7,1.6-0.9c0.6-0.2,1.3-0.3,2-0.3
		c1.1,0,2.1,0.2,3,0.5c0.9,0.3,1.7,0.8,2.5,1.4l-1.4,2c-0.7-0.5-1.4-0.9-2-1.1c-0.7-0.3-1.3-0.4-2-0.4c-0.8,0-1.4,0.2-1.8,0.5
		c-0.4,0.3-0.6,0.8-0.6,1.3v0c0,0.3,0,0.5,0.2,0.8c0.1,0.2,0.3,0.4,0.5,0.6c0.3,0.2,0.6,0.3,1.1,0.5c0.5,0.2,1.1,0.3,1.8,0.5
		c0.8,0.2,1.5,0.4,2.1,0.7c0.6,0.2,1.1,0.5,1.5,0.9c0.4,0.3,0.7,0.8,0.9,1.2c0.2,0.5,0.3,1,0.3,1.6v0c0,0.7-0.1,1.3-0.4,1.9
		c-0.3,0.6-0.6,1-1.1,1.4c-0.5,0.4-1,0.7-1.7,0.9C326.9,127.9,326.2,128,325.4,128z"/>
	<path class="st1" d="M345.5,128c-1.2,0-2.3-0.2-3.3-0.6c-1.1-0.4-2-1-2.9-1.8l1.6-1.9c0.7,0.6,1.5,1.1,2.2,1.4
		c0.7,0.3,1.6,0.5,2.5,0.5c0.8,0,1.5-0.2,1.9-0.5c0.5-0.3,0.7-0.8,0.7-1.4v0c0-0.3,0-0.5-0.1-0.7c-0.1-0.2-0.3-0.4-0.5-0.6
		c-0.2-0.2-0.6-0.4-1-0.5c-0.4-0.2-1-0.3-1.7-0.5c-0.8-0.2-1.5-0.4-2.1-0.6c-0.6-0.2-1.1-0.5-1.6-0.9c-0.4-0.3-0.7-0.7-1-1.2
		c-0.2-0.5-0.3-1.1-0.3-1.8v0c0-0.6,0.1-1.2,0.4-1.8c0.3-0.5,0.6-1,1-1.4c0.4-0.4,1-0.7,1.6-0.9c0.6-0.2,1.3-0.3,2-0.3
		c1.1,0,2.1,0.2,3,0.5c0.9,0.3,1.7,0.8,2.5,1.4l-1.4,2c-0.7-0.5-1.4-0.9-2-1.1c-0.7-0.3-1.3-0.4-2-0.4c-0.8,0-1.4,0.2-1.8,0.5
		c-0.4,0.3-0.6,0.8-0.6,1.3v0c0,0.3,0,0.5,0.2,0.8c0.1,0.2,0.3,0.4,0.5,0.6c0.3,0.2,0.6,0.3,1.1,0.5c0.5,0.2,1.1,0.3,1.8,0.5
		c0.8,0.2,1.5,0.4,2.1,0.7c0.6,0.2,1.1,0.5,1.5,0.9c0.4,0.3,0.7,0.8,0.9,1.2c0.2,0.5,0.3,1,0.3,1.6v0c0,0.7-0.1,1.3-0.4,1.9
		c-0.3,0.6-0.6,1-1.1,1.4c-0.5,0.4-1,0.7-1.7,0.9C347,127.9,346.3,128,345.5,128z"/>
	<path class="st1" d="M353.9,112.8H365v2.4h-8.5v3.8h7.5v2.4h-7.5v4h8.6v2.4h-11.2V112.8z"/>
	<path class="st1" d="M375.2,128c-1.1,0-2.1-0.2-3-0.6c-0.9-0.4-1.7-0.9-2.4-1.6c-0.7-0.7-1.2-1.5-1.6-2.4c-0.4-0.9-0.6-1.9-0.6-3v0
		c0-1.1,0.2-2.1,0.6-3c0.4-0.9,0.9-1.8,1.6-2.5c0.7-0.7,1.5-1.3,2.4-1.7c0.9-0.4,2-0.6,3.1-0.6c0.7,0,1.3,0.1,1.9,0.2
		c0.6,0.1,1.1,0.3,1.6,0.5c0.5,0.2,0.9,0.5,1.3,0.7c0.4,0.3,0.8,0.6,1.1,0.9l-1.7,1.9c-0.6-0.6-1.2-1-1.9-1.3
		c-0.7-0.3-1.4-0.5-2.3-0.5c-0.7,0-1.4,0.1-2,0.4c-0.6,0.3-1.1,0.7-1.6,1.1c-0.4,0.5-0.8,1-1,1.7s-0.4,1.3-0.4,2.1v0
		c0,0.7,0.1,1.4,0.4,2.1c0.2,0.6,0.6,1.2,1,1.7c0.4,0.5,1,0.9,1.6,1.1c0.6,0.3,1.3,0.4,2,0.4c0.9,0,1.7-0.2,2.4-0.5
		c0.7-0.3,1.3-0.8,1.9-1.4l1.7,1.7c-0.4,0.4-0.8,0.8-1.2,1.1c-0.4,0.3-0.9,0.6-1.4,0.8c-0.5,0.2-1,0.4-1.6,0.5
		C376.5,128,375.9,128,375.2,128z"/>
	<path class="st1" d="M390.7,128c-1.2,0-2.2-0.2-3.2-0.6c-1-0.4-1.8-1-2.5-1.7c-0.7-0.7-1.2-1.5-1.6-2.4c-0.4-0.9-0.6-1.9-0.6-3v0
		c0-1.1,0.2-2,0.6-3s0.9-1.8,1.6-2.5c0.7-0.7,1.5-1.3,2.5-1.7c1-0.4,2-0.6,3.2-0.6c1.2,0,2.2,0.2,3.2,0.6c1,0.4,1.8,1,2.5,1.7
		c0.7,0.7,1.2,1.5,1.6,2.4c0.4,0.9,0.6,1.9,0.6,3v0c0,1.1-0.2,2-0.6,3s-0.9,1.8-1.6,2.5c-0.7,0.7-1.5,1.3-2.5,1.7
		C392.9,127.8,391.9,128,390.7,128z M390.7,125.6c0.7,0,1.4-0.1,2-0.4c0.6-0.3,1.1-0.7,1.6-1.1c0.4-0.5,0.8-1,1-1.7
		c0.2-0.6,0.4-1.3,0.4-2.1v0c0-0.7-0.1-1.4-0.4-2.1c-0.2-0.6-0.6-1.2-1-1.7c-0.4-0.5-1-0.9-1.6-1.1c-0.6-0.3-1.3-0.4-2-0.4
		c-0.7,0-1.4,0.1-2,0.4c-0.6,0.3-1.1,0.7-1.6,1.1c-0.4,0.5-0.8,1-1,1.7c-0.2,0.6-0.4,1.3-0.4,2.1v0c0,0.7,0.1,1.4,0.4,2.1
		c0.2,0.6,0.6,1.2,1,1.7c0.4,0.5,1,0.9,1.6,1.1C389.3,125.5,390,125.6,390.7,125.6z"/>
	<path class="st1" d="M407.9,128c-1,0-1.8-0.1-2.6-0.4c-0.8-0.3-1.5-0.7-2-1.3c-0.6-0.6-1-1.2-1.3-2.1c-0.3-0.8-0.4-1.8-0.4-2.9
		v-8.6h2.6v8.5c0,1.4,0.3,2.5,1,3.2c0.7,0.7,1.6,1.1,2.8,1.1c1.2,0,2.1-0.3,2.8-1c0.7-0.7,1-1.7,1-3.1v-8.6h2.6v8.5
		c0,1.1-0.2,2.1-0.5,2.9c-0.3,0.8-0.7,1.5-1.3,2.1c-0.6,0.6-1.2,1-2,1.3C409.7,127.9,408.8,128,407.9,128z"/>
	<path class="st1" d="M417.9,112.8h6.7c0.9,0,1.8,0.1,2.5,0.4c0.7,0.3,1.3,0.6,1.8,1.1c0.4,0.4,0.7,0.9,0.9,1.4
		c0.2,0.5,0.3,1.1,0.3,1.8v0c0,0.6-0.1,1.2-0.3,1.7c-0.2,0.5-0.4,0.9-0.7,1.3c-0.3,0.4-0.7,0.7-1.1,1c-0.4,0.3-0.9,0.5-1.4,0.6
		l4,5.7h-3.1l-3.7-5.2h0h-3.3v5.2h-2.6V112.8z M424.4,120.2c0.9,0,1.7-0.2,2.3-0.7c0.6-0.5,0.8-1.1,0.8-1.8v0c0-0.8-0.3-1.4-0.8-1.9
		c-0.5-0.4-1.3-0.6-2.3-0.6h-3.8v5H424.4z"/>
	<path class="st1" d="M438.6,128c-1.2,0-2.3-0.2-3.3-0.6c-1.1-0.4-2-1-2.9-1.8l1.6-1.9c0.7,0.6,1.5,1.1,2.2,1.4
		c0.7,0.3,1.6,0.5,2.5,0.5c0.8,0,1.5-0.2,1.9-0.5c0.5-0.3,0.7-0.8,0.7-1.4v0c0-0.3,0-0.5-0.1-0.7c-0.1-0.2-0.3-0.4-0.5-0.6
		c-0.2-0.2-0.6-0.4-1-0.5c-0.4-0.2-1-0.3-1.7-0.5c-0.8-0.2-1.5-0.4-2.1-0.6c-0.6-0.2-1.1-0.5-1.6-0.9c-0.4-0.3-0.7-0.7-1-1.2
		c-0.2-0.5-0.3-1.1-0.3-1.8v0c0-0.6,0.1-1.2,0.4-1.8c0.3-0.5,0.6-1,1-1.4c0.4-0.4,1-0.7,1.6-0.9c0.6-0.2,1.3-0.3,2-0.3
		c1.1,0,2.1,0.2,3,0.5c0.9,0.3,1.7,0.8,2.5,1.4l-1.4,2c-0.7-0.5-1.4-0.9-2-1.1c-0.7-0.3-1.3-0.4-2-0.4c-0.8,0-1.4,0.2-1.8,0.5
		c-0.4,0.3-0.6,0.8-0.6,1.3v0c0,0.3,0,0.5,0.2,0.8c0.1,0.2,0.3,0.4,0.5,0.6c0.3,0.2,0.6,0.3,1.1,0.5c0.5,0.2,1.1,0.3,1.8,0.5
		c0.8,0.2,1.5,0.4,2.1,0.7c0.6,0.2,1.1,0.5,1.5,0.9c0.4,0.3,0.7,0.8,0.9,1.2c0.2,0.5,0.3,1,0.3,1.6v0c0,0.7-0.1,1.3-0.4,1.9
		c-0.3,0.6-0.6,1-1.1,1.4c-0.5,0.4-1,0.7-1.7,0.9C440.1,127.9,439.4,128,438.6,128z"/>
	<rect x="17" y="117.1" class="st2" width="32.1" height="1.8"/>
	<rect x="450.8" y="117.1" class="st2" width="32.2" height="1.8"/>
	<rect x="17" y="121.5" class="st3" width="32.1" height="1.8"/>
	<rect x="450.8" y="121.5" class="st3" width="32.2" height="1.8"/>
	<rect x="17" y="112.6" class="st1" width="32.1" height="1.8"/>
	<rect x="450.8" y="112.6" class="st1" width="32.2" height="1.8"/>
	<rect x="17" y="125.9" class="st0" width="32.1" height="1.8"/>
	<rect x="450.8" y="125.9" class="st0" width="32.2" height="1.8"/>
	<path class="st1" d="M365.1,24.9c-18.6,0-33.8,15.5-33.8,34.6c0,19.1,15.2,34.6,33.8,34.6c18.6,0,33.8-15.5,33.8-34.6
		C398.9,40.4,383.7,24.9,365.1,24.9z M382,62.8h-12.5v14.1H361V62.8h-12.5v-7.9H361V41.2h8.5v13.7H382V62.8z"/>
	<path class="st1" d="M365.1,22.2c-20.1,0-36.5,16.7-36.5,37.3s16.4,37.3,36.5,37.3s36.5-16.7,36.5-37.3S385.2,22.2,365.1,22.2z
		 M365.1,95.5c-19.4,0-35.2-16.2-35.2-36s15.8-36,35.2-36c19.4,0,35.2,16.2,35.2,36S384.5,95.5,365.1,95.5z"/>
</g>
</svg>
