<?xml version="1.0" encoding="utf-8"?>
<!-- Generator: Adobe Illustrator 19.1.0, SVG Export Plug-In . SVG Version: 6.00 Build 0)  -->
<svg version="1.1" id="Calque_1" xmlns="http://www.w3.org/2000/svg" xmlns:xlink="http://www.w3.org/1999/xlink" x="0px" y="0px"
	 viewBox="0 0 500 500" style="enable-background:new 0 0 500 500;" xml:space="preserve">
<style type="text/css">
	.st0{fill:#F39600;}
	.st1{fill:#005BA6;}
	.st2{fill:#C0C1C2;}
	.st3{fill:#FFFFFF;}
</style>
<g id="Calque_2">
	<g>
		<g>
			<path class="st0" d="M248.5,300.7c-23.5-1.9-42.1-22-42.1-45.8c0-25.4,20.6-46,46-46s46,20.6,46,46c0,14.7-7,28.5-18.9,37.2
				l25.9,7.7l-16.5,13L248.5,300.7z"/>
			<path class="st1" d="M252.4,209.7c25,0,45.2,20.2,45.2,45.2c0,15.6-7.9,29.3-19.9,37.5l26,7.7l-15,11.7l-40-11.9
				c-23.2-1.9-41.5-21.3-41.5-45C207.2,229.9,227.5,209.7,252.4,209.7 M252.4,208c-25.8,0-46.8,21-46.8,46.8
				c0,24.1,18.8,44.6,42.8,46.6l39.8,11.9l0.8,0.2l0.7-0.5l15-11.7l2.5-1.9l-3-0.9l-22.8-6.8c11.3-8.9,17.9-22.4,17.9-36.8
				C299.2,229.1,278.2,208,252.4,208L252.4,208z"/>
		</g>
		<g>
			<circle class="st1" cx="252.4" cy="254.9" r="31.4"/>
		</g>
		<path class="st1" d="M231.9,209.7c0,0,0.4-2,1.5-4.7c0.5-1.4,1.3-3,2.2-4.6c0.9-1.7,2.1-3.3,3.2-5l2-2.2c0.7-0.7,1.3-1.5,2.1-2.1
			s1.5-1.1,2.2-1.6s1.3-1,2-1.3c2.8-1.1,4.7-1.7,4.7-1.7s-1.7,1.1-4.2,2.5c-1.2,0.8-2.4,2.1-3.8,3.2c-0.7,0.5-1.2,1.4-1.9,2
			l-1.9,2.2c-1.1,1.6-2.3,3.1-3.2,4.7c-0.9,1.6-1.9,3-2.5,4.3C232.7,207.9,231.9,209.7,231.9,209.7z"/>
		<path class="st1" d="M240.3,210.5c0,0,0.1-1.6,0.9-3.9c0.7-2.3,2.3-5.1,4.5-7.5l1.7-1.7c0.5-0.6,1.3-0.9,1.9-1.4
			c1.3-0.8,2.4-1.6,3.6-1.9c2.3-0.8,3.8-1.1,3.8-1.1s-1.4,0.9-3.4,2c-1.1,0.4-2,1.4-3.2,2.2c-0.5,0.5-1.2,0.8-1.7,1.4l-1.6,1.6
			c-2.1,2.1-3.8,4.7-4.9,6.8C240.8,209,240.3,210.5,240.3,210.5z"/>
		<path class="st1" d="M245.3,215.7c0,0,0.1-1.6,0.9-3.9c0.7-2.3,2.3-5.1,4.5-7.5l1.7-1.7c0.5-0.6,1.3-0.9,1.9-1.4
			c1.3-0.8,2.4-1.6,3.6-1.9c2.3-0.8,3.8-1.1,3.8-1.1s-1.4,0.9-3.4,2c-1.1,0.4-2,1.4-3.2,2.2c-0.5,0.5-1.2,0.8-1.7,1.4l-1.6,1.6
			c-2.1,2.1-3.8,4.7-4.9,6.8C245.9,214.2,245.3,215.7,245.3,215.7z"/>
		<g>
			<polygon class="st0" points="25.8,296.6 25.8,218.4 95.1,218.4 82.9,235.4 44.8,235.4 44.8,249.6 75.7,249.6 63.4,266.6 
				44.8,266.6 44.8,296.6 			"/>
			<path class="st1" d="M93.6,219.2l-11.1,15.4H44v15.9h30.1L63,265.8H44v30H26.6v-76.7h11.3H44L93.6,219.2 M96.7,217.6h-3.2H44
				h-6.1H26.6H25v1.6v76.7v1.6h1.6H44h1.6v-1.6v-28.4H63h0.8l0.5-0.7l11.1-15.4l1.9-2.6h-3.2H45.6v-12.7h36.8h0.8l0.5-0.7L94.8,220
				L96.7,217.6L96.7,217.6z"/>
		</g>
		<g>
			<path class="st0" d="M112.6,296.6v-30H92.1l-20.8,30H50l54.3-78.3H129v78.3H112.6z M112.6,249.6V237l-8.7,12.6H112.6z"/>
			<path class="st1" d="M128.1,219.2v76.7h-14.8v-30H91.6l-20.8,30H51.6l53.2-76.7h8.6H124H128.1 M102.3,250.4h11.1v-15.9
				L102.3,250.4 M129.8,217.6h-1.6H124h-10.6h-8.6H104l-0.5,0.7L50.3,295l-1.8,2.5h3.1h19.2h0.8l0.5-0.7l20.4-29.3h19.3v28.4v1.6
				h1.6h14.8h1.6v-1.6v-76.7V217.6L129.8,217.6z M105.4,248.8l6.4-9.2v9.2H105.4L105.4,248.8z"/>
		</g>
		<g>
			<path class="st0" d="M168.5,302.1c-18.9,0-34.3-15.9-34.3-35.5v-48.9l0.8-0.3h16.2V268c0,9.7,7.7,17.5,17.2,17.5
				s17.2-7.9,17.2-17.5v-50.6h17v49.2C202.8,286.2,187.4,302.1,168.5,302.1z"/>
			<path class="st1" d="M201.9,218.2c0,0.1,0,0.2,0,0.3v48.1c0,19.1-15.1,34.7-33.5,34.7S135,285.7,135,266.6v-48.1
				c0-0.1,0-0.2,0-0.3h15.4V268c0,10.1,8.1,18.3,18,18.3s18-8.3,18-18.3v-49.8H201.9 M203.6,216.5l-1.6,0.1h-15.4H185v1.6V268
				c0,9.2-7.4,16.7-16.4,16.7s-16.4-7.5-16.4-16.7v-49.8v-1.6h-1.6H135h-1.6v1.6v48.4c0,20,15.7,36.3,35.1,36.3s35.1-16.3,35.1-36.3
				v-48.1v-0.1v-0.2V216.5L203.6,216.5z"/>
		</g>
		<g>
			<path class="st0" d="M336,302.1c-18.9,0-34.3-15.9-34.3-35.5v-48.9l0.8-0.3h16.2V268c0,9.7,7.7,17.5,17.2,17.5
				s17.2-7.9,17.2-17.5v-50.6h17v49.2C370.2,286.2,354.9,302.1,336,302.1z"/>
			<path class="st1" d="M369.4,218.2c0,0.1,0,0.2,0,0.3v48.1c0,19.1-15.1,34.7-33.5,34.7s-33.5-15.6-33.5-34.7v-48.1
				c0-0.1,0-0.2,0-0.3h15.4V268c0,10.1,8.1,18.3,18,18.3s18-8.3,18-18.3v-49.8H369.4 M371,216.5l-1.6,0.1H354h-1.6v1.6V268
				c0,9.2-7.4,16.7-16.4,16.7s-16.4-7.5-16.4-16.7v-49.8v-1.6H318h-15.4H301v1.6v48.4c0,20,15.7,36.3,35.1,36.3
				c19.3,0,35.1-16.3,35.1-36.3v-48.1v-0.1v-0.2L371,216.5L371,216.5z"/>
		</g>
		<g>
			<polygon class="st0" points="440.2,296.6 440.2,234.3 392.1,234.3 392.1,249.5 425.8,249.5 425.8,265.5 392.1,265.5 392.1,279.2 
				425.8,279.2 425.8,296.6 375.7,296.6 375.7,218.4 474.2,218.4 474.2,234.3 456.6,234.3 456.6,296.6 			"/>
			<path class="st1" d="M473.4,219.2v14.4h-17.6v62.3H441v-62.3h-49.8v16.8h33.7v14.4h-33.7V280h33.7v15.8h-33.7h-14.8V280v-15.4
				v-14.4v-16.8V219h14.8H441h14.8L473.4,219.2 M475,217.6h-1.6h-17.6H441h-49.8h-14.8h-1.6v1.6v14.4v16.8v14.4V280v15.8v1.6h1.6
				h14.8h33.7h1.6v-1.6V280v-1.6h-1.6h-32.1v-12.1h32.1h1.6v-1.6v-14.4v-1.6h-1.6h-32.1v-13.6h46.5v60.7v1.6h1.6h14.8h1.6v-1.6
				v-60.7h16h1.6v-1.6v-14.4L475,217.6L475,217.6z"/>
		</g>
		<path class="st2" d="M271.3,215.3c-5.8-7.3-14.1-13.5-25.6-13.5c-28.3,0-27,37.5-27,37.5s-23.7-9.4-23.7,22.4s40.7,42.1,35.1,0
			l0.3,11.6c12.7,10.6,32.8,4.5,41.6,5.3s10.9-10.7,10.9-10.7l-1,0.1c37.7-7,40.3-37.4,40.3-37.4c4.6-16.4-12.7-22.1-16.7-18.1
			s4.9,15.6,4.9,15.6c-0.2,5.9-4.6,8.9-10.2,10.3c2.5-18.3-1.2-26.7-9.5-34.3c-8.4-7.6-18.7,12.1-18.7,12.1L271.3,215.3z"/>
		<g>
			<path class="st1" d="M216.6,290.3c-2.6,0-5.3-0.7-8-2.1c-6.6-3.4-14.4-12.5-14.4-26.6c0-10.9,2.7-18.3,8.2-21.9
				c5.8-3.9,12.8-2.4,15.6-1.6c0-4.5,0.8-20.5,10-30c4.6-4.7,10.6-7.1,17.8-7.1c28.6,0,37.9,37.7,38,38.1l-1.6,0.4
				c-0.1-0.4-9.1-36.9-36.4-36.9c-6.8,0-12.4,2.2-16.6,6.6c-10.1,10.4-9.5,29.8-9.5,30v1.2l-1.1-0.5c-0.1,0-8.7-3.4-15.2,1
				c-4.9,3.4-7.4,10.3-7.4,20.6c0,13.4,7.3,21.9,13.5,25.1c5,2.6,10.1,2.6,13.9-0.1c5.6-3.9,7.7-12.8,6.1-24.9l1.6-0.2
				c1.7,12.8-0.7,22.2-6.8,26.4C221.9,289.5,219.3,290.3,216.6,290.3z"/>
		</g>
		<g>
			<path class="st1" d="M266.8,270.3v-1.6c51-0.5,54.7-37.7,54.7-38.1c2.9-10.3-3.1-15-5.7-16.6c-3.9-2.3-8.1-2.3-9.6-0.8
				c-2.9,2.9,2.6,11.5,4.9,14.6l0.2,0.2v0.3c-0.1,3.3-1.5,6-4.1,8c-7.2,5.6-22.5,4.3-29.6,2.7c-8.2-1.7-14.2,7-14.3,7.1l-1.4-0.9
				c0.3-0.4,6.6-9.8,15.9-7.8c6.8,1.4,21.5,2.8,28.2-2.4c2.1-1.6,3.2-3.8,3.4-6.5c-1.5-2-8.8-12.3-4.6-16.5
				c2.2-2.2,7.3-1.9,11.6,0.6c6.3,3.6,8.7,10.5,6.5,18.3C323.1,231.1,319.2,269.7,266.8,270.3z"/>
		</g>
		<g>
			<path class="st1" d="M301.1,238.6l-1.6-0.2c2.6-18.8-1.5-26.5-9.3-33.6c-1.4-1.3-2.8-1.7-4.5-1.4c-6.4,1.1-12.8,13.2-12.9,13.3
				l-1.4-0.8c0.3-0.5,6.8-12.8,14-14.1c2.2-0.4,4.1,0.2,5.9,1.8C299.3,210.8,303.7,219.2,301.1,238.6z"/>
		</g>
		<g>
			<path class="st1" d="M252,280.4c-7.6,0-15.7-1.3-22.1-6.5l1-1.2c9.1,7.5,22.2,6.4,31.9,5.5c3.7-0.3,6.9-0.6,9.3-0.4
				c0.3,0,0.5,0,0.8,0c7.3,0,9.2-10,9.2-10.1l1.6,0.3c0,0.1-2.2,12.2-11.8,11.4c-2.3-0.2-5.4,0.1-9,0.4
				C259.6,280.1,255.8,280.4,252,280.4z"/>
		</g>
		<path class="st1" d="M204.8,251.7c0,0,0.9-1,2.6-2.1c0.9-0.6,1.9-1.1,3.1-1.5c1.2-0.4,2.6-0.6,4-0.8c1.4,0.2,2.8,0,4.1,0.5
			c1.2,0.5,2.4,0.8,3.2,1.6c1.6,1.4,2.4,2.3,2.4,2.3s-1.2-0.6-2.9-1.5c-0.7-0.7-2-0.6-3.1-1c-1.1-0.5-2.4-0.1-3.6-0.3
			c-1.2,0.1-2.5,0.3-3.6,0.6c-1.1,0.4-2.3,0.6-3.1,1C206,251.1,204.8,251.7,204.8,251.7z"/>
		<path class="st1" d="M253.5,262c0,0-0.6,0.4-1.4,1.1c-0.8,0.7-1.8,1.6-2.6,2.5c-0.3,0.5-0.8,1-1,1.5c-0.1,0.6-0.6,1-0.6,1.5
			c-0.2,1-0.4,1.7-0.4,1.7s-0.3-0.6-0.5-1.8c-0.1-0.6,0-1.2,0.2-2c0.1-0.7,0.7-1.3,1-2.1c1.1-1.1,2.3-2,3.4-2.3
			C252.8,262,253.5,262,253.5,262z"/>
		<path class="st1" d="M269.9,246.7c0,0,0.1-0.8,0.7-2c0.5-1.1,1.5-2.5,2.7-3.7c1.3-1.1,2.8-1.9,4-2.3c1.3-0.2,2.1-0.3,2.1-0.3
			s-0.7,0.5-1.7,1.1c-0.5,0.3-1,0.8-1.6,1.2s-1.1,1-1.7,1.5c-1.1,1-2.2,2.1-3,3C270.5,246.1,269.9,246.7,269.9,246.7z"/>
		<path class="st1" d="M277.2,248.1c0,0,0.1-0.8,0.6-2c0.5-1.1,1.5-2.5,2.7-3.7c1.3-1.1,2.8-1.9,4-2.3c1.3-0.2,2.1-0.3,2.1-0.3
			s-0.7,0.5-1.7,1.1c-0.5,0.3-1,0.8-1.6,1.2s-1.1,1-1.7,1.5c-1.1,1-2.2,2.1-3,3C277.8,247.4,277.2,248.1,277.2,248.1z"/>
		<path class="st1" d="M276.7,223.5c0,0,0.3-1.1,1-2.7s1.8-3.6,3.1-5.5c1.4-1.8,3.1-3.6,4.9-4.3c1.9-0.8,3,0.5,2.9,0.3
			c0,0-0.3-0.1-0.8-0.1s-1.1,0.2-1.8,0.6c-1.3,0.9-2.7,2.6-4,4.4c-1.4,1.8-2.6,3.6-3.6,5C277.4,222.6,276.7,223.5,276.7,223.5z"/>
		<path class="st1" d="M249.7,228c0.1,0-0.4,1-0.9,2.1c-0.5,1-1.5,1.9-2.7,2.9c-1.3,0.9-1.9,2.3-2.7,3.1c-0.7,0.9-1.2,1.6-1.2,1.6
			l-0.3-0.1c0,0,0.2-0.8,0.5-1.9c0.4-1.2,0.7-2.9,1.7-4.2c0.4-0.7,0.8-1.5,1.3-2.2c0.6-0.6,1.4-0.9,1.9-1.2c1.2-0.5,2.3-0.3,2.3-0.3
			L249.7,228z"/>
		<path class="st1" d="M266.7,222.3c0,0,0.7-0.6,1.7-0.8c0.5-0.1,1.1-0.1,1.7,0c0.6,0.2,1.1,0.6,1.7,1c1.1,0.6,2.2,1.4,2.8,2.2
			c0.7,0.7,1.1,1.1,1.1,1.1l-0.2,0.3c0,0-0.6-0.2-1.5-0.4s-1.9-0.6-3.1-0.7c-0.6-0.1-1.2-0.1-1.7-0.2c-0.5-0.1-0.9-0.5-1.3-0.7
			c-0.7-0.7-1.3-1.4-1.2-1.4V222.3z"/>
		<path class="st1" d="M261.9,246.1c0,0-1.3-0.1-3.2-0.1c-1.9,0-4.4,0.1-6.8,0.6c-1.1,0.4-2.4,0.5-3.4,1.1s-2.1,0.8-2.8,1.4
			c-1.5,1.1-2.6,1.8-2.6,1.8s0.7-1,2.1-2.5c0.6-0.8,1.7-1.3,2.8-2s2.4-0.9,3.7-1.4c2.6-0.5,5.3-0.5,7.2,0
			C260.8,245.5,261.9,246.1,261.9,246.1z"/>
		<g>
			<path class="st3" d="M248.5,246.7c0,0-3.2-9.8,3.3-11.2c6.5-1.4,6.9,9.8,6.9,9.8S251.5,245,248.5,246.7z"/>
			<path class="st1" d="M248,247.9l-0.3-0.9c-0.1-0.2-1.9-6,0.1-9.6c0.8-1.4,2-2.3,3.7-2.6c0.4-0.1,0.9-0.1,1.3-0.1
				c6.1,0,6.6,10.3,6.6,10.7v0.9h-0.9c0,0-0.4,0-1,0c-1.9,0-6.5,0.1-8.7,1.4L248,247.9z M252.8,236.1c-0.3,0-0.6,0-0.9,0.1
				c-1.2,0.3-2.1,0.9-2.7,1.9c-1.3,2.3-0.7,5.8-0.2,7.4c2.6-1,6.5-1.1,8.7-1.1C257.5,242.1,256.5,236.1,252.8,236.1z"/>
		</g>
		<path class="st1" d="M253.5,242.5c0.6,3.1-2.8,3.6-4.3,3.6s-1.2-1.6-1.2-3.6s1.2-3.6,2.8-3.6C252.3,238.9,253.2,240.6,253.5,242.5
			z"/>
		<g>
			<path class="st3" d="M269.8,238.9c0,0-2.7-8.6,2.8-9.9c5.5-1.2,5.9,8.6,5.9,8.6S272.4,237.4,269.8,238.9z"/>
			<path class="st1" d="M269.4,240l-0.3-0.8c-0.1-0.2-1.7-5.3,0.2-8.5c0.7-1.2,1.7-1.9,3.1-2.3c0.4-0.1,0.7-0.1,1.1-0.1
				c5.2,0,5.6,9,5.6,9.4v0.8h-0.8c0,0-0.3,0-0.9,0c-1.6,0-5.5,0.1-7.4,1.2L269.4,240z M273.5,229.7c-0.2,0-0.5,0-0.8,0.1
				c-1,0.2-1.7,0.7-2.2,1.6c-1.1,2-0.6,5.2-0.2,6.6c2.2-0.9,5.6-1,7.4-1C277.5,235,276.6,229.7,273.5,229.7z"/>
		</g>
		<path class="st1" d="M274.1,235.3c0.5,2.8-2.3,3.1-3.6,3.1c-1.3,0-1.1-1.4-1.1-3.1c0-1.7,1.1-3.1,2.4-3.1S273.8,233.6,274.1,235.3
			z"/>
		<g>
			<path class="st3" d="M255.9,265.1c0,0,6,0.5,10.2-1.2s7.3-2.2,5.1,0.6s-8.3,8.9-18.8,7.5C252.3,272,248.9,266.6,255.9,265.1z"/>
			<path class="st1" d="M255.4,273c-1,0-2.1-0.1-3.2-0.2h-0.4l-0.2-0.3c-0.1-0.1-1.6-2.6-0.7-4.9c0.7-1.6,2.2-2.6,4.7-3.2h0.1h0.1
				c0.1,0,5.8,0.5,9.8-1.2c4.9-2,6.1-1.5,6.7-0.8c0.7,1-0.3,2.3-0.7,2.7C269.8,267.5,264.4,273,255.4,273z M252.8,271.2
				c9.5,1.1,15.1-4,17.7-7.2c0.3-0.3,0.4-0.5,0.5-0.7c-0.5,0-1.7,0.2-4.6,1.3c-4.1,1.7-9.5,1.3-10.5,1.3c-1.9,0.4-3,1.2-3.4,2.2
				C252,269.3,252.5,270.6,252.8,271.2z"/>
		</g>
		<path class="st1" d="M313.3,215.4c0,0-7.2-0.7-2.9,2.6c4.3,3.3,5.3,8.7,7.9,7.4C320.8,224.1,319.2,218.9,313.3,215.4z"/>
		<path class="st1" d="M264.5,270c0,0,6.2,6.4,9,3.8s4.3-5,4.3-5S270.7,268.7,264.5,270z"/>
		<path class="st1" d="M222.2,241.5c-1.8,0-3.3-0.9-4-1.7l1.1-1.1c0.1,0.1,2.4,2.3,5,0.5l0.9,1.3
			C224.2,241.2,223.1,241.5,222.2,241.5z"/>
	</g>
</g>
</svg>
