<?xml version="1.0" encoding="utf-8"?>
<!-- Generator: Adobe Illustrator 21.0.2, SVG Export Plug-In . SVG Version: 6.00 Build 0)  -->
<svg version="1.1" id="Calque_1" xmlns="http://www.w3.org/2000/svg" xmlns:xlink="http://www.w3.org/1999/xlink" x="0px" y="0px"
	 viewBox="0 0 500 500" style="enable-background:new 0 0 500 500;" xml:space="preserve">
<style type="text/css">
	.st0{fill:#FFFFFF;}
	.st1{fill:#E95D0F;}
</style>
<path class="st0" d="M448.4,474.3H51.6c-14.3,0-25.9-11.6-25.9-25.9V51.6c0-14.3,11.6-25.9,25.9-25.9h396.7
	c14.3,0,25.9,11.6,25.9,25.9v396.7C474.3,462.7,462.7,474.3,448.4,474.3"/>
<path class="st1" d="M448.4,475H51.6C37,475,25,463,25,448.4V51.6C25,36.9,37,25,51.6,25h396.7c14.7,0,26.6,12,26.6,26.6v396.7
	C475,463,463,475,448.4,475z M51.6,26.5c-13.9,0-25.2,11.3-25.2,25.2v396.7c0,13.9,11.3,25.2,25.2,25.2h396.7
	c13.9,0,25.2-11.3,25.2-25.2V51.6c0-13.9-11.3-25.2-25.2-25.2L51.6,26.5L51.6,26.5z"/>
<path class="st1" d="M195,350.5v54.8c0.1,6.9,6.2,6.9,6.2,6.9s9.9,2.3,9.9-19.3C211.1,381.8,205.8,358.5,195,350.5z"/>
<path class="st1" d="M250,70.3c-53.4,0-101.4,23.5-134.1,60.7h268.2C351.4,93.8,303.4,70.3,250,70.3z"/>
<path class="st1" d="M89.8,169.8c-11.8,23.9-18.5,50.8-18.5,79.3c0,73.1,44,136,107,163.6l0.1-91.2l-79.2-133
	C99.2,188.5,91.8,176.6,89.8,169.8z"/>
<path class="st1" d="M113.7,178.3l65.7,111.5l-0.1-21.7c-6.5-4-19.6-14-19.7-30.7c0,0,0.1-7.3,2.9-9.5c1.8-1.4,8.2-2.2,8.5,1.9
	c0.3,2.8-0.5,14.3,8.2,17.4l-0.3-69c0.1-11.7,18.2-12.4,18.2-0.1c0.2,12.2,0.2,79.9,0.2,79.9l9.6,1.4c0,0,6.5-36.2,27.2-45
	c0,0,16.6-7.8,26.7,2.3c0,0,14.5,14.2,0.4,37.6c0,0-14.1,20.5-34.9,22.7c0,0,0.5,22.3,11.8,22.3c11.8,0,22.9-18.5,26.5-24.8
	c3.7-6.5,8.7-7.2,12.5-48.7c0.5-5.2,2.1-13.3,4.4-13.5c3.4-0.3,6.4-0.4,10.1,0.9c0,0,3.4,0.4,3.4,3.9c0,0-5,57.2-1.5,62.8
	c0,0,24.4-41.3,29.1-62.7c0,0,0.5-6.6,8-4.7l5.2,0.9c0,0,4.2-0.2,4,5.2l-1.9,44.4c0,0,18.4-38.5,23.3-46.5c0,0,1.6-4.9,7.3-4.5
	c1.9,0.1,8.8,2,9.8,2.4c0.9,0.4,4,1.1,3.9,4.6c0,0-5.7,63.9-5.2,69.6c0,0-0.2,4.3,3.3-0.2l6.1-7.3c7.3-9.2,9.2,1.6,9.2,1.6
	s-7,31.9-27,35c0,0-7.1,2.1-9.2-7.8c-2.1-9.9,1.8-60.9,0.2-59.5c-1.6,1.4-20.2,45.4-22.1,51.5l-3.3,11.3c0,0-2.4,5.4-5.2,5.4h-7.3
	c0,0-3,0-3-5.4l0.7-49.1c0,0-21.6,41.9-26.8,47.5c-2.6,2.8-14.6,13.6-18.6-1.9c0,0-2.3-15.1-2.1-23.3c0,0-18.6,33.1-40.9,33.1
	c-12.4,0-24.9-17-24.9-43.3l-9.2-1.6v42.1c10.9,14.6,50.5,76.3,21,108.1c10.5,1.9,21.2,2.9,32.2,2.9c98.7,0,178.7-80,178.7-178.7
	c0-31.9-8.4-61.9-23.1-87.9H126.9C113.9,161.1,110.6,171,113.7,178.3z"/>
<path class="st1" d="M437.2,38.5H62.9c-13.5,0-24.4,10.9-24.4,24.4v374.2c0,13.5,10.9,24.5,24.4,24.5h374.2
	c13.5,0,24.5-11,24.5-24.4V62.9C461.6,49.4,450.7,38.5,437.2,38.5z M250,444.7c-108,0-195.6-87.6-195.6-195.6
	C54.4,141,142,53.5,250,53.5S445.6,141,445.6,249.1C445.6,357.1,358,444.7,250,444.7z"/>
<path class="st1" d="M239.8,230.8c-10.6,7.4-11.1,28.4-11.1,28.4c11.4-0.9,23.3-15.1,24.4-20.9C255.3,225.8,245,227.2,239.8,230.8z"
	/>
</svg>
