<?xml version="1.0" encoding="utf-8"?>
<!-- Generator: Adobe Illustrator 21.0.2, SVG Export Plug-In . SVG Version: 6.00 Build 0)  -->
<svg version="1.1" id="Calque_1" xmlns="http://www.w3.org/2000/svg" xmlns:xlink="http://www.w3.org/1999/xlink" x="0px" y="0px"
	 viewBox="0 0 500 194" style="enable-background:new 0 0 500 194;" xml:space="preserve">
<style type="text/css">
	.st0{fill:#E42D3A;}
	.st1{fill:#FFFFFF;}
</style>
<path class="st0" d="M475,157.9c0,9.1-7.4,16.4-16.4,16.4H41.4c-9.1,0-16.4-7.4-16.4-16.4V36.1c0-9.1,7.4-16.4,16.4-16.4h417.1
	c9.1,0,16.4,7.4,16.4,16.4L475,157.9L475,157.9z"/>
<path class="st1" d="M180,81.8h45.5V94h-30.4v14.4h20.2v12.4h-20.2v27.9H180V81.8L180,81.8z"/>
<path class="st1" d="M232.3,81.8h46V94h-31.1v14.2h21.4v12.2h-21.2v15.8h33v12.5h-48.1L232.3,81.8L232.3,81.8z"/>
<path class="st1" d="M303.5,148.8h-14.8v-67h22.1c11.1,0,25.2,1.5,25.2,19.4c0,8.5-3.5,15-13.1,17.8l14.9,29.7h-16.3l-13-27.4h-5
	L303.5,148.8L303.5,148.8z M303.5,110.7c8.5,0,9.8,0,11.9-0.7c4.8-1.6,5.1-5.3,5.1-8.9c0-4.7-1.5-6.9-4.5-8
	c-2.3-0.8-4.2-0.8-12.6-0.8v18.4H303.5z"/>
<path class="st1" d="M345,104.3c0-15.3,8.4-24,24.3-24c4.1,0,10.3,0.8,15,4.5c6.2,4.7,6.9,13,7.1,18.3h-15
	c-0.1-3.3-0.3-10.6-7.7-10.6c-1.9,0-4.2,0.7-5.7,2.1c-2.4,2.2-2.5,5.5-2.5,7.3v25.5c0,3.6,0,10.7,8.3,10.7c6.2,0,8-4.9,8-12.1h15.1
	c-0.1,4.8-0.2,5.4-0.7,8.2c-0.6,2.6-1.5,7.5-7.2,12c-4.8,3.8-11.9,4.5-14.9,4.5c-7.9,0-13.4-1.8-17.7-5.9c-2.8-2.6-6.4-6.5-6.4-20.2
	L345,104.3L345,104.3z"/>
<path class="st1" d="M401.4,105.4c0-6.8,1.2-13.4,6-18.5c4.3-4.7,10.7-6.4,17.2-6.4c7,0,13.4,1.6,18,6.5c3.8,4,6,9.9,6,20.7V124
	c0,9.4-1.6,15.4-5.9,20c-5.7,6-13.9,6.7-18.3,6.7c-6.7,0-17.7-2.4-21.2-13.7c-1.5-4.7-1.8-10.6-1.8-13.5L401.4,105.4L401.4,105.4z
	 M416.7,126.4c0,7,1.4,12,8.1,12c8.1,0,8.1-7.4,8.1-12v-23.3c0-4.7,0-10.3-7.9-10.3c-8.3,0-8.3,7.7-8.3,10.3L416.7,126.4
	L416.7,126.4z"/>
<polygon class="st1" points="43.6,121.2 43.6,40 125.3,40 159.1,75.7 79.9,75.7 79.9,157.4 "/>
<polygon class="st1" points="87.1,121.2 87.1,81.5 125.3,81.5 159.1,117.3 123.4,117.3 123.4,157.4 "/>
</svg>
