<?xml version="1.0" encoding="utf-8"?>
<!-- Generator: Adobe Illustrator 21.0.2, SVG Export Plug-In . SVG Version: 6.00 Build 0)  -->
<svg version="1.1" id="Calque_2" xmlns="http://www.w3.org/2000/svg" xmlns:xlink="http://www.w3.org/1999/xlink" x="0px" y="0px"
	 viewBox="0 0 500 140" style="enable-background:new 0 0 500 140;" xml:space="preserve">
<style type="text/css">
	.st0{fill:#009EE0;}
	.st1{fill:#5EC5ED;}
	.st2{fill:#FFFFFF;}
</style>
<polygon points="150.3,52 150.3,90.6 175,90.6 175,76.3 196.5,76.3 196.5,66.2 175,66.2 175,61.8 196.5,61.8 196.5,52 "/>
<polygon class="st0" points="172,73.4 193.5,73.4 193.5,69.3 172,69.3 172,58.8 193.5,58.8 193.5,55.1 153.3,55.1 153.3,87.7 
	172,87.7 "/>
<polygon points="245,52.2 204.8,52 201.8,52 201.8,55 201.8,87.6 201.8,90.6 248,90.7 248,87.7 248,84 248,81 245,81 226.5,81 
	226.5,76.4 245,76.4 248,76.4 248,73.4 248,69.3 248,66.3 226.5,66.3 226.5,61.9 248,61.9 248,52.2 "/>
<polygon class="st0" points="204.8,55 204.8,87.6 245,87.7 245,84 223.5,84 223.5,73.4 245,73.4 245,69.3 223.5,69.3 223.5,58.8 
	245,58.8 245,55.1 "/>
<path d="M304.9,67v-5.2c0-5.4-4.4-9.8-9.8-9.8h-42.8v38.6h19.3V76.8h11.1l4.9,11.1l0.8,1.8h16.4l-1.6-4.1l-3.8-9.8
	C302.7,74.2,304.9,70.9,304.9,67z M285.5,62.5v3.1c0,0.6-0.5,1.1-1,1.1h-12.7v-5.3h12.7C285,61.4,285.5,61.9,285.5,62.5z"/>
<path class="st0" d="M295.1,55h-39.8v32.6h13.3V73.8h16.1l5.7,12.9h10l-5-12.9c3.6-0.2,6.5-3.2,6.5-6.8v-5.2
	C301.9,58.1,298.8,55,295.1,55z M288.5,65.6c0,2.3-1.8,4.1-4,4.1h-15.7V58.4h15.7c2.2,0,4,1.9,4,4.1V65.6z"/>
<polygon points="348.7,52 336.5,65.9 335,65.9 324,52 310.1,52 310.1,55 310.1,86.6 310.1,89.6 323.6,89.6 323.6,77.3 333.8,89.7 
	337.4,89.7 347.6,77.3 347.6,89.6 361.1,89.6 361.4,52 "/>
<polygon class="st0" points="333.7,69 322.6,55 313.2,55 313.2,86.6 320.7,86.6 320.7,69 335.4,86.7 336.2,86.7 350.9,69 
	350.9,86.6 358.4,86.6 358.4,55 350.3,55 338.1,69 "/>
<path d="M402.4,52h-24.8c-7.1,0-11.6,10.8-11.6,16.5v4.6c0,5.7,4.5,16.5,11.6,16.5h24.8c6.7,0,11.6-9.1,11.6-15.3v-6.7
	C414,62.1,409.6,52,402.4,52z M399.1,70.8c0,5.7-4.2,10.4-9.4,10.4s-9.4-4.7-9.4-10.4c0-5.8,4.2-10.5,9.4-10.5
	C394.9,60.3,399.1,65,399.1,70.8z"/>
<path class="st0" d="M402.4,55h-24.8c-4.7,0-8.5,8.8-8.5,13.5v4.6c0,4.7,3.8,13.5,8.5,13.5h24.8c4.7,0,8.5-7.6,8.5-12.3v-6.7
	C410.9,62.9,407.1,55,402.4,55z M389.7,84.2c-6.9,0-12.4-6-12.4-13.5c0-7.5,5.6-13.5,12.4-13.5s12.4,6.1,12.4,13.5
	C402.1,78.2,396.6,84.2,389.7,84.2z"/>
<path d="M451.3,52h-33.6v3v31.6v3h33.6c6.7,0,11.6-9.1,11.6-15.3v-6.7C462.9,62.1,458.5,52,451.3,52z M445.9,80.9h-12.5V60.6h12.5
	c1.5,0,4.1,4.4,4.1,7.5v5.6C450,76.7,447.4,80.9,445.9,80.9z"/>
<path class="st0" d="M451.3,55h-30.6v31.6h30.6c4.7,0,8.5-7.6,8.5-12.3v-6.7C459.8,62.9,456,55,451.3,55z M453,73.7
	c0,3.9-3.2,10.2-7.1,10.2h-15.6V57.6h15.6c3.9,0,7.1,6.6,7.1,10.5V73.7z"/>
<circle class="st1" cx="80.2" cy="70" r="55.2"/>
<path d="M472.2,59.5l-1.4-1.9c0.5-0.1,0.9-0.3,1.1-0.5c0.3-0.2,0.4-0.5,0.4-0.9c0-0.3,0-0.6-0.2-0.8c-0.2-0.2-0.4-0.4-0.7-0.5
	c-0.3-0.1-0.6-0.2-1-0.2h-2.5v0.1c0.3,0.1,0.4,0.1,0.5,0.2c0.1,0,0.1,0.1,0.1,0.1c0,0.1,0,0.1,0,0.2c0,0,0,0.2,0,0.4v3.4
	c0,0.2,0,0.3,0,0.4c0,0.1,0,0.2,0,0.2s-0.1,0-0.1,0.1c-0.1,0.1-0.3,0.2-0.6,0.2v0.2h2.4V60c-0.3,0-0.5,0-0.6-0.1
	c-0.1,0-0.2-0.1-0.2-0.3v-0.5v-1.5h0.5l1.9,2.6h1.2V60c-0.2,0-0.3-0.1-0.4-0.1C472.5,59.9,472.3,59.7,472.2,59.5z M469.6,57.4h-0.2
	l-0.1-2.3c0.1-0.1,0.3-0.1,0.5-0.1c0.3,0,0.5,0.1,0.7,0.2c0.2,0.1,0.4,0.2,0.5,0.4c0.1,0.2,0.2,0.4,0.2,0.6c0,0.4-0.1,0.7-0.4,0.9
	C470.5,57.3,470.1,57.4,469.6,57.4z"/>
<path d="M474.4,55.2c-0.4-0.7-1-1.3-1.7-1.7c-0.7-0.4-1.5-0.6-2.3-0.6s-1.5,0.2-2.3,0.6c-0.7,0.4-1.3,1-1.7,1.7
	c-0.4,0.7-0.6,1.5-0.6,2.3s0.2,1.6,0.6,2.3s1,1.3,1.7,1.7c0.7,0.4,1.5,0.6,2.3,0.6s1.6-0.2,2.3-0.6c0.7-0.4,1.3-1,1.7-1.7
	c0.4-0.7,0.6-1.5,0.6-2.3S474.8,55.9,474.4,55.2z M473.9,59.5c-0.4,0.6-0.9,1.1-1.5,1.5c-0.6,0.4-1.3,0.6-2.1,0.6
	c-0.6,0-1.1-0.1-1.6-0.3c-0.5-0.2-0.9-0.5-1.3-0.9c-0.4-0.4-0.7-0.8-0.9-1.3c-0.2-0.5-0.3-1-0.3-1.6c0-0.8,0.2-1.5,0.6-2.1
	c0.4-0.6,0.8-1.1,1.5-1.5c0.7-0.4,1.3-0.6,2.1-0.6s1.5,0.2,2,0.5c0.6,0.4,1.1,0.9,1.5,1.5c0.4,0.7,0.6,1.4,0.6,2.1
	C474.5,58.2,474.3,58.9,473.9,59.5z"/>
<path class="st2" d="M117.3,84.5l-16.4-9.4l8.4-4.8l0.4-0.2l-0.1-0.5c-0.4-1.2-0.6-2.6-0.7-3.9l-0.1-1l-0.8,0.5l-12.1,7l-2.8-1.7
	l15.9-9.1l0.2-0.1l0.1-0.3c0.5-2.3,1.5-4.5,2.9-6.4l1.6-2.3l-2.5,1.4l-26,15l-0.4,0.2l0.1,0.4c0.1,0.4,0.1,0.7,0.1,1.1
	c0,0.4,0,0.7-0.1,1.1l-0.1,0.4l0.4,0.2L114.6,89l0.5,0.3l0.3-0.5l2.1-3.5l0.3-0.5L117.3,84.5z"/>
<path d="M100,75.1l8-4.7l1.1-0.6v0v-0.1c-0.4-1.3-0.6-2.6-0.7-4v-0.2l-12.6,7.3l-3.7-2.3l16.6-9.5v0v-0.1c0.5-2.3,1.5-4.5,2.9-6.4
	c0-0.1,0.1-0.1,0.1-0.2l0.4-0.6L85.5,69l-0.1,0.1v0.1c0.1,0.4,0.1,0.8,0.1,1.2c0,0.4,0,0.8-0.1,1.2v0.1l29.5,17l0.1-0.1l2-3.5
	l0.1-0.2L100,75.1z"/>
<path class="st0" d="M95.8,73.1l-4.2-2.6l16.9-9.7c0.5-2.2,1.4-4.2,2.6-6.1L85.8,69.3c0.1,0.4,0.1,0.7,0.1,1.1
	c0,0.4-0.1,0.7-0.1,1.1l29,16.8l1.9-3.2l-17.4-10l9.4-5.4c0,0,0,0,0,0c-0.4-1.2-0.6-2.4-0.7-3.7L95.8,73.1z"/>
<path class="st2" d="M109.9,88.6L84.3,73.8l-0.5-0.1L83.5,74c-0.5,0.5-1.2,0.9-1.8,1.1l-0.4,0.1v0.4v33.5v0.6h0.6h4h0.6v-0.6
	l-0.1-18.4l7.7,4.5l0.4,0.2l0.3-0.3c0.9-1,1.9-1.8,3.1-2.6l0.8-0.5l-0.8-0.5l-11.7-6.8l0.1-3.3l15.5,9l0.2,0.1l0.3-0.1
	c1.6-0.5,3.3-0.8,5-0.8c0.7,0,1.4,0,2.2,0.1l3,0.4L109.9,88.6z"/>
<path d="M84.1,74.4L84.1,74.4h-0.2c-0.1,0.1-0.2,0.2-0.4,0.3c-0.5,0.3-1,0.7-1.6,0.9h-0.1v33.7h4.3l0-19.3l8.5,4.9l0.1-0.1
	c0.9-1,2-1.8,3.1-2.6l0.2-0.1l-0.3-0.2l-11.9-6.8l0,0l0.2-4.3l16.1,9.4h0.1h0.1c1.6-0.5,3.3-0.8,5.1-0.8c0,0,0,0,0,0
	c0.7,0,1.4,0,2.2,0.1l0.7,0.1L84.1,74.4z"/>
<path class="st0" d="M97.2,92l-11.9-6.9l0.2-5l16.5,9.6c1.7-0.5,3.4-0.8,5.2-0.8c0.5,0,1,0,1.6,0.1L83.9,74.6
	c-0.6,0.5-1.2,0.9-1.9,1.1V109h3.7l-0.1-19.6l7.4,4.3l1.3,0.8C95.2,93.6,96.2,92.7,97.2,92z"/>
<path class="st2" d="M78.9,75.2c-0.7-0.2-1.3-0.6-1.8-1.1l-0.5-0.4l-0.4,0.2L46.3,91.2l-0.5,0.3l0.3,0.5l2,3.3l0.3,0.5l0.5-0.3
	l16.9-9.9v9.7v0.5l0.5,0.1c1.4,0.3,2.7,0.8,3.9,1.4l0.9,0.4v-1V82.8l2.9-1.5v18.3v0.3l0.2,0.2c1.6,1.5,2.9,3.3,3.9,5.3l1.2,2.5v-2.7
	V75.7v-0.4L78.9,75.2z"/>
<path d="M78.6,75.7C78.6,75.7,78.5,75.7,78.6,75.7c-0.2-0.1-0.3-0.2-0.4-0.2c-0.6-0.3-1.1-0.6-1.6-1l-0.1-0.1l-0.1,0L46.6,91.7
	l-0.2,0.1l2.2,3.6L66.3,85v10.6h0.1c1.4,0.3,2.7,0.8,4,1.4l0.2,0.1V82.7l3.8-2v19v0.1c1.7,1.6,3,3.4,4,5.5l0.3,0.6
	c0,0,0-30.4,0-30.2H78.6z"/>
<path class="st0" d="M70.2,96.5V82.4l4.4-2.3l0.1,19.5c1.5,1.4,2.8,3.1,3.7,4.9V75.7c-0.7-0.2-1.4-0.6-1.9-1.1L46.8,91.7l1.8,3.1
	l17.9-10.5v0.4v10.5C67.8,95.5,69.1,95.9,70.2,96.5z"/>
<path class="st2" d="M75.5,70.5c0-0.4,0-0.7,0.1-1.1l0.1-0.4l-0.4-0.2L46,51.9l-0.6-0.4L45.1,52l-2.2,3.4l-0.3,0.5l0.6,0.3l16.4,9.4
	l-7.9,4.6l-0.4,0.2l0.2,0.5c0.5,1.4,0.7,2.9,0.8,4.3l0.1,1l0.8-0.5l12.2-7l2.8,1.7l-16,9.2L52,79.7L51.9,80
	c-0.5,2.1-1.3,4.1-2.6,5.8L47.8,88l2.3-1.3l25.2-14.5l0.4-0.2l-0.1-0.4C75.5,71.2,75.5,70.9,75.5,70.5z"/>
<path d="M75.1,69.1l-29.5-17l-2.3,3.6l17.2,9.9l-8.7,5v0.1c0.4,1.5,0.7,3,0.8,4.5v0.2l12.7-7.3l0,0l3.7,2.3l-0.1,0L52.3,80h-0.1v0.1
	c0,0,0,0,0,0.1c-0.5,2.2-1.4,4.2-2.6,5.9l-0.1,0.1l-0.3,0.4l25.9-14.9v-0.1C75,71.2,75,70.8,75,70.4c0-0.4,0-0.8,0.1-1.2V69.1z"/>
<path class="st0" d="M65.2,67.8l4.2,2.6l-17,9.8c-0.5,2-1.2,3.8-2.3,5.5l24.5-14.2c-0.1-0.4-0.1-0.7-0.1-1.1c0-0.4,0-0.7,0.1-1.1
	l-29-16.8l-2,3.1l17.4,10l-9,5.2c0.3,1.1,0.5,2.2,0.7,3.4c0,0.3,0.1,0.5,0.1,0.8L65.2,67.8z"/>
<path class="st2" d="M78.6,30.3h-4.2h-0.6v0.6l0.1,19.2l-7.8-4.5l-0.4-0.2l-0.3,0.4c-0.9,1-1.9,1.9-3.1,2.7L61.5,49l0.8,0.5
	l11.8,6.8L74,59.6l-15.5-9l-0.2-0.1L58,50.6c-1.7,0.6-3.5,0.8-5.3,0.8c-0.5,0-1,0-1.5-0.1l-2.7-0.2l2.4,1.4l25.3,14.6l0.4,0.2
	l0.3-0.3c0.5-0.5,1.2-0.9,1.8-1.1l0.4-0.1v-0.4V31.1l0.1-0.8H78.6z"/>
<path d="M78.9,30.8h-0.4h-4l0,0.1l-0.1,0l0.1,19.9L66,45.9L65.9,46c0,0,0,0,0,0c-0.5,0.5-1,1-1.6,1.5c-0.5,0.4-1,0.8-1.6,1.2
	l-0.2,0.1l12.2,7.1l-0.1,1.4l-0.1,2.9l-16.2-9.4h-0.1c-1.7,0.6-3.6,0.9-5.4,0.9c-0.5,0-1,0-1.6-0.1l-0.7-0.1l26,15
	c0.7-0.6,1.4-1,2.4-1.2H79L78.9,30.8L78.9,30.8z"/>
<path class="st0" d="M74.5,31l0.1,19.9l0,0l0,0l0,0.3l0,0.1l-8.8-5.1c-0.8,0.8-1.5,1.6-2.4,2.2c-0.2,0.1-0.3,0.3-0.5,0.4l12,6.9
	l-0.2,5l-16.5-9.6c-1.8,0.6-3.6,0.9-5.4,0.9c-0.4-0.1-0.7-0.1-1-0.1l24.7,14.2c0.6-0.5,1.2-0.9,1.9-1.1V31H74.5z"/>
<path class="st2" d="M114,49l-2.2-3.7l-0.3-0.5l-0.5,0.3l-16.3,9.5v-9v-0.5L94.2,45c-1.4-0.3-2.7-0.8-4-1.4l-0.9-0.4v1v13.7
	l-2.9,1.5V41.3V41l-0.2-0.2c-1.6-1.4-2.8-3.1-3.8-5l-1.1-2.2v2.6v29v0.4l0.4,0.1c0.7,0.2,1.3,0.6,1.8,1.1l0.3,0.3l0.4-0.2l29.5-17
	l0.5-0.3L114,49z"/>
<path d="M111.3,45.4l-17.2,10v-9.9H94c-1.4-0.3-2.8-0.7-4.1-1.4L89.7,44v14.2l-3.8,2V41.4v-0.1C84.3,39.8,83,38,82,36.1l-0.3-0.6
	v29.8h0.1c0.8,0.2,1.4,0.6,2.1,1.2l0.2-0.1c0,0,0,0,0,0l6-3.5l23.6-13.5L111.3,45.4z"/>
<path class="st0" d="M111.1,45.9L111.1,45.9l-17,9.8l-0.4,0.2V45.7c-1.3-0.3-2.5-0.7-3.8-1.3c0,0-0.1,0-0.1,0v13.8v0.1l-4,2.1
	l-0.4,0.2V41.4c-1.4-1.2-2.5-2.7-3.4-4.3V65c0.7,0.2,1.4,0.6,1.9,1.1l29.3-16.9L111.1,45.9z"/>
</svg>
