<?xml version="1.0" encoding="utf-8"?>
<!-- Generator: Adobe Illustrator 21.0.2, SVG Export Plug-In . SVG Version: 6.00 Build 0)  -->
<svg version="1.1" id="Calque_1" xmlns="http://www.w3.org/2000/svg" xmlns:xlink="http://www.w3.org/1999/xlink" x="0px" y="0px"
	 viewBox="0 0 500 144" style="enable-background:new 0 0 500 144;" xml:space="preserve">
<style type="text/css">
	.st0{fill:#00498C;}
	.st1{fill:#E43138;}
</style>
<path class="st0" d="M34.4,101.5H18.6c0,0,6.7-27.5,9.1-38.3C30,52.4,33.8,31,33.8,31l50.6-0.6l-2.3,11.4l-34.8,0.3l-4.4,17.3
	l32.5-0.6L73,71.1l-32.5-0.3L34.4,101.5z"/>
<path class="st0" d="M145.6,101.5H93.2c0,0,7.3-27.5,9.7-38.9c2.3-11.4,5-31.3,5-31.3h51.5l-1.8,10.8h-36l-3.2,15.8h32.8l-1.8,11.7
	h-33.6l-4.1,20.2h35.7L145.6,101.5z"/>
<path class="st0" d="M239.8,50.6c0-20.5-20.5-20.2-20.5-20.2h-35.1c0,0-3.5,23.4-5.9,33.1c-2.3,9.7-9.7,38.3-9.7,38.3H185l6.7-31
	l12.6,0.3l10.5,29.8h17l-12.9-30.4C219,70.5,239.8,65.6,239.8,50.6z M210.5,59.4l-16.1-0.3l3.8-17.6h17.9c0,0,7.9,0.3,7.9,8.2
	S210.5,59.4,210.5,59.4z"/>
<path class="st0" d="M267,101.5h-15.5c0,0,8.8-36,11.1-46.2c2.3-10.2,4.1-24.6,4.1-24.6h20.2l18.4,52.7l10.3-53.5l16.1,0.6
	l-15.5,71.4l-18.1-0.3l-20.5-55.9L267,101.5z"/>
<path class="st0" d="M371.4,41.6l34.5,0.9l2.6-11.4l-51.2-0.3c0,0-2.9,22.8-6.4,34.8s-9.1,35.1-9.1,35.1l52.1,0.9l2.3-11.1
	l-35.7-0.6l4.7-20.2L398,70l2.3-11.7H367L371.4,41.6z"/>
<path class="st0" d="M431.1,30.2l-2.1,12l31.3-0.3l-46.2,55.9c0,0-1.2,3.5,2.3,3.5s53.8,0,53.8,0l2.3-11.1l-35.1-0.3L483,35.8
	c0,0,1.8-2.6,0.9-3.8c-0.9-1.2-2.9-1.5-2.9-1.5L431.1,30.2z"/>
<rect x="19.5" y="110.6" class="st1" width="451.7" height="6.3"/>
</svg>
