<?xml version="1.0" encoding="utf-8"?>
<!-- Generator: Adobe Illustrator 21.0.2, SVG Export Plug-In . SVG Version: 6.00 Build 0)  -->
<svg version="1.1" id="Calque_2" xmlns="http://www.w3.org/2000/svg" xmlns:xlink="http://www.w3.org/1999/xlink" x="0px" y="0px"
	 viewBox="0 0 500 132" style="enable-background:new 0 0 500 132;" xml:space="preserve">
<style type="text/css">
	.st0{fill:#B1B3B4;}
</style>
<path d="M143.2,94h-25.9v-2.4V65c0-2.8,1.8-5.1,4.1-5.1c2.3,0,4.1,2.3,4.1,5.1v26.6h6c7.1,0,12.9-5.8,12.9-12.9V54.1
	c-0.1-7-5.9-12.8-13-12.8H95.1v35.6V97v4.4c0,7.1,5.8,12.9,12.9,12.9h14.8h7.5H145V94H143.2z"/>
<path class="st0" d="M115.4,94v-2.4V65c0-3.8,2.6-6.9,5.9-6.9s5.9,3.1,5.9,6.9v24.8h4.2c6.1,0,11.1-5,11.1-11.1V54.1
	c0-6.1-5-11.1-11.1-11.1H96.9v33.8V97v4.4c0,6.1,5,11.1,11.1,11.1h14.7h7.5h12.9V95.8h-25.9h-1.8V94z"/>
<path d="M473.2,94h-25.9v-2.4V65c0-2.8,1.8-5.1,4.1-5.1s4.1,2.3,4.1,5.1v26.6h6c7.1,0,12.9-5.8,12.9-12.9V54.1
	c-0.1-7-5.9-12.8-13-12.8h-36.3v35.6V97v4.4c0,7.1,5.8,12.9,12.9,12.9h14.8h7.5H475V94H473.2z"/>
<path class="st0" d="M445.4,94v-2.4V65c0-3.8,2.7-6.9,5.9-6.9c3.3,0,5.9,3.1,5.9,6.9v24.8h4.2c6.1,0,11.1-5,11.1-11.1V54.1
	c0-6.1-5-11.1-11.1-11.1h-34.5v33.8V97v4.4c0,6.1,5,11.1,11.1,11.1h14.7h7.5h12.9V95.8h-25.9h-1.8V94z"/>
<path d="M296.8,41.3h-37v20.3h1.8h25.9V64v26.6c0,2.8-1.8,5.1-4.1,5.1c-2.3,0-4.1-2.3-4.1-5.1V64h-6c-7.1,0-12.9,5.8-12.9,12.9v24.6
	c0,7.1,5.8,12.9,12.9,12.9h14.2h8.1h14V78.8V58.6v-4.4C309.7,47.1,303.9,41.3,296.8,41.3z"/>
<path class="st0" d="M296.8,43h-35.1v16.7h25.9h1.8v1.8v2.4v26.6c0,3.8-2.7,6.9-5.9,6.9c-3.3,0-5.9-3.1-5.9-6.9V65.7h-4.2
	c-6.1,0-11.1,5-11.1,11.1v24.6c0,6.1,5,11.1,11.1,11.1h14.2h8.1h12.2V78.7V58.5v-4.4C307.9,48,302.9,43,296.8,43z"/>
<path d="M185.1,41.3H149v71.9h23V62c0.8-1.2,1.9-2,3.2-2c2.3,0,4.1,2.3,4.1,5.1v26.5h18.9c0.6-1.6,1-3.4,1-5.2V55.5
	C199.3,47.6,192.9,41.3,185.1,41.3z"/>
<path class="st0" d="M185.1,43h-34.4v68.2h19.4V61.8v-0.5l0.3-0.4c1.1-1.7,2.9-2.8,4.8-2.8c3.3,0,5.9,3.1,5.9,6.9v24.6h15.8
	c0.3-1.1,0.5-2.2,0.5-3.4V55.3C197.4,48.5,191.9,43,185.1,43z"/>
<path d="M240.3,41.3h-36v71.9h23V62c0.8-1.2,1.9-2,3.2-2c2.3,0,4.1,2.3,4.1,5.1v26.5h18.9c0.6-1.6,1-3.4,1-5.2V55.5
	C254.4,47.6,248,41.3,240.3,41.3z"/>
<path class="st0" d="M240.3,43h-34.4v68.2h19.4V61.8v-0.5l0.3-0.4c1.1-1.7,2.9-2.8,4.8-2.8c3.3,0,5.9,3.1,5.9,6.9v24.6h15.8
	c0.3-1.1,0.5-2.2,0.5-3.4V55.3C252.6,48.5,247.1,43,240.3,43z"/>
<path d="M90.1,62.5v-27c0-9.8-8-17.8-17.8-17.8H37.5v49.6H25v10.5h12.5v35.3h27.1V77.8H89V67.3H64.7V39.9h0.2c3.3,0,6,2.7,6,6v16.6
	H90.1z"/>
<path class="st0" d="M72.7,60.7h15.6V35.5c0-8.8-7.2-16-16-16h-33v47.8v1.8h-1.8H26.8V76h10.7h1.8v1.7v33.5h23.6V77.7v-1.8h1.8h22.5
	V69H64.7h-1.8v-1.8V39.8V38h1.8h0.2c4.3,0,7.8,3.5,7.8,7.8V60.7z"/>
<path d="M352.2,66.5h-10.8c-1.7,0-3-1.4-3-3v-0.1c0-1.7,1.4-3,3-3l21.4-0.1l0.1-19h-37.2c-7,0-12.7,5.7-12.7,12.7v21.2
	c0,7,5.7,12.7,12.7,12.7h1.9h7.8c1.7,0,3,1.4,3,3V91c0,1.7-1.4,3-3,3H313v19.1h39.2c7,0,12.7-5.7,12.7-12.7V79.2
	C364.9,72.2,359.2,66.5,352.2,66.5z"/>
<path class="st0" d="M352.3,68.2h-4h-6.8c-2.6,0-4.8-2.1-4.8-4.8v-0.1c0-2.6,2.1-4.8,4.8-4.8l19.6-0.1V43l-35.3,0
	c-6,0-10.9,4.9-10.9,10.9v21.2c0,6,4.9,10.9,10.9,10.9h1.9h7.8c2.6,0,4.8,2.1,4.8,4.8v0.1c0,2.6-2.1,4.8-4.8,4.8h-20.6v15.5h37.4
	c6,0,10.9-4.9,10.9-10.9V79.1C363.2,73.1,358.3,68.2,352.3,68.2z"/>
<path d="M407.2,66.5h-10.8c-1.7,0-3-1.4-3-3v-0.1c0-1.7,1.4-3,3-3l21.4-0.1l0.1-19h-37.2c-7,0-12.7,5.7-12.7,12.7v21.2
	c0,7,5.7,12.7,12.7,12.7h1.9h7.8c1.7,0,3,1.4,3,3V91c0,1.7-1.4,3-3,3H368v19.1h39.2c7,0,12.7-5.7,12.7-12.7V79.2
	C419.9,72.2,414.2,66.5,407.2,66.5z"/>
<path class="st0" d="M407.3,68.2h-10.8c-2.6,0-4.8-2.1-4.8-4.8v-0.1c0-2.6,2.1-4.8,4.8-4.8l19.6-0.1V43l-35.3,0
	c-6,0-10.9,4.9-10.9,10.9v21.2c0,6,4.9,10.9,10.9,10.9h1.9h7.8c2.6,0,4.8,2.1,4.8,4.8v0.1c0,2.6-2.1,4.8-4.8,4.8h-20.6v15.5h37.4
	c6,0,10.9-4.9,10.9-10.9V79.1C418.2,73.1,413.3,68.2,407.3,68.2z"/>
</svg>
