<?xml version="1.0" encoding="utf-8"?>
<!-- Generator: Adobe Illustrator 21.0.2, SVG Export Plug-In . SVG Version: 6.00 Build 0)  -->
<svg version="1.1" id="Calque_1" xmlns="http://www.w3.org/2000/svg" xmlns:xlink="http://www.w3.org/1999/xlink" x="0px" y="0px"
	 viewBox="0 0 500 86" style="enable-background:new 0 0 500 86;" xml:space="preserve">
<style type="text/css">
	.st0{fill:#56AF31;}
</style>
<path class="st0" d="M141,12.4H80c-1.1,0-2.1,0.9-2.1,2.1v56.9c0,1.1,0.9,2.1,2.1,2.1h61c1.1,0,2.1-0.9,2.1-2.1v-8.2
	c0-1.1-0.9-2.1-2.1-2.1H96.3c-1.1,0-2.1-0.9-2.1-2.1V51c0-1.1,0.9-2.1,2.1-2.1h40.6c1.1,0,2.1-0.9,2.1-2.1v-8.1
	c0-1.1-0.9-2.1-2.1-2.1H96.3c-1.1,0-2.1-0.9-2.1-2.1v-8.1c0-1.1,0.9-2.1,2.1-2.1H141c1.1,0,2.1-0.9,2.1-2.1v-8.1
	C143,13.4,142.1,12.4,141,12.4z"/>
<path class="st0" d="M199.8,12.4h-40.6c-6.8,0-12.2,5.5-12.2,12.2v12.3c0,6.8,5.5,12.2,12.2,12.2h32.5c2.2,0,4.1,1.9,4.1,4.1v4
	c0,2.2-1.9,4.1-4.1,4.1h-26.4c-1.1,0-2.1-0.9-2.1-2.1c0-1.1-0.9-2.1-2.1-2.1H149c-1.1,0-2.1,0.9-2.1,2.1v2.1
	c0,6.8,5.5,12.2,12.2,12.2h40.6c6.8,0,12.2-5.5,12.2-12.2V49.1c0-6.8-5.5-12.2-12.2-12.2h-32.5c-2.2,0-4.1-1.9-4.1-4.1v-4.1
	c0-2.2,1.9-4.1,4.1-4.1h26.4c1.1,0,2.1,0.9,2.1,2.1s0.9,2.1,2.1,2.1h12.2c1.1,0,2.1-0.9,2.1-2.1v-2.1
	C211.9,17.8,206.4,12.4,199.8,12.4z"/>
<path class="st0" d="M71.9,12.4H15.1c-1.1,0-2.1,0.9-2.1,2.1v56.9c0,1.1,0.9,2.1,2.1,2.1h12.2c1.1,0,2.1-0.9,2.1-2.1V51
	c0-1.1,0.9-2.1,2.1-2.1h36.5c1.1,0,2.1-0.9,2.1-2.1v-8.1c0-1.1-0.9-2.1-2.1-2.1H31.3c-1.1,0-2.1-0.9-2.1-2.1v-8.1
	c0-1.1,0.9-2.1,2.1-2.1h40.6c1.1,0,2.1-0.9,2.1-2.1v-8.1C74,13.4,73,12.4,71.9,12.4z"/>
<path class="st0" d="M338,12.6h-40.6c-6.6,0-12.2,5.4-12.2,12.2v36.5c0,6.6,5.4,12.2,12.2,12.2H338c6.6,0,12.2-5.4,12.2-12.2V24.8
	C350.2,18.1,344.8,12.6,338,12.6z M333.9,57.1c0,2.2-1.9,4.1-4.1,4.1h-24.3c-2.2,0-4-1.7-4.1-4.1V28.7c0-2.2,1.9-4.1,4.1-4.1h24.3
	c2.2,0,4.1,1.9,4.1,4.1V57.1z"/>
<path class="st0" d="M279.2,12.4h-61c-1.1,0-2.1,0.9-2.1,2.1h0h0H216v8.1c0,1.1,0.9,2.1,2.1,2.1h20.4c1.1,0,2.1,0.9,2.1,2.1v44.7
	c0,1.1,0.9,2.1,2.1,2.1h12.2c1.1,0,2.1-0.9,2.1-2.1V26.6c0-1.1,0.9-2.1,2.1-2.1h20.4c1.1,0,2.1-0.9,2.1-2.1v-8.1
	C281.3,13.4,280.3,12.4,279.2,12.4z"/>
<path class="st0" d="M484.9,61.2h-40.6c-1.1,0-2.1-0.9-2.1-2.1V14.3c0,0,0.2-1.7-2.1-1.9h-12.2c-1.1,0-2.1,0.9-2.1,2.1v56.9
	c0,1.1,0.9,2.1,2.1,2.1h56.9c1.1,0,2.1-0.9,2.1-2.1v-8.1C487,62.2,486.1,61.2,484.9,61.2z"/>
<path class="st0" d="M408.6,12.7H368c-6.6,0-12.2,5.4-12.2,12.2v36.5c0,6.6,5.4,12.2,12.2,12.2h40.6c6.6,0,12.2-5.4,12.2-12.2V24.9
	C420.8,18.3,415.4,12.7,408.6,12.7z M404.5,57.3c0,2.2-1.9,4.1-4.1,4.1h-24.3c-2.2,0-4.1-1.7-4.1-4.1V28.9c0-2.2,1.9-4.1,4.1-4.1
	h24.3c2.2,0,4.1,1.9,4.1,4.1V57.3z"/>
</svg>
