<?xml version="1.0" encoding="utf-8"?>
<!-- Generator: Adobe Illustrator 21.0.2, SVG Export Plug-In . SVG Version: 6.00 Build 0)  -->
<svg version="1.1" id="Calque_2" xmlns="http://www.w3.org/2000/svg" xmlns:xlink="http://www.w3.org/1999/xlink" x="0px" y="0px"
	 viewBox="0 0 500 264" style="enable-background:new 0 0 500 264;" xml:space="preserve">
<style type="text/css">
	.st0{fill:#82BC00;}
	.st1{fill:#C6C7C8;}
</style>
<polygon class="st0" points="197.6,69.4 197.6,114.8 211.4,69 244,69 244,22.5 25,22.5 25,69.4 "/>
<path class="st0" d="M221.3,81l-21.4,69.7h-13.3v-70H58.1v30.8h18.5v10.2H57.8v29h-12v-28.3v-10.5v-0.4v-31H25v161h219V81H221.3z
	 M175.6,120.8c-2.8,18.4-21.1,32.2-46.6,32.2s-46.1-15.1-46.1-33.8s20.6-33.8,46.1-33.8c16.4,0,32.7,4.5,41.2,14.2l-6,9
	c-5.8-7.2-19.5-12.7-33.6-12.7c-20.6,0-37.2,10.5-37.2,23.5s16.6,23.5,37.2,23.5c18.7,0,28.9-8.4,33.7-20.4l-53.9-0.2V112l65.3,0.1
	C176.1,114.8,176.1,117.7,175.6,120.8z"/>
<rect x="256" y="22.5" class="st1" width="219" height="219"/>
<path d="M284.1,143.4h4.7c-0.9,4.3-4,4.7-4.9,4.7c-2.9,0-5.9-1.5-5.9-7.3c0-5.4,2.8-7.6,5.8-7.6s4.4,2.7,4.4,3.5h4.2
	c-0.2-2.9-2.7-7.1-8.8-7.1c-6.8,0-9.9,5.4-9.9,11.2c0,7.4,4.4,11.1,9.2,11.1c3.7,0,5.2-1.9,6.3-3.2l0.4,2.7h2.8V140H284"/>
<rect x="296.1" y="130.1" width="4.2" height="21.2"/>
<path d="M303.4,140.7c0,9.9,7,11.1,9.7,11.1c2.6,0,9.6-1.2,9.6-11.1s-7-11.1-9.6-11.1C310.4,129.5,303.4,130.7,303.4,140.7
	 M307.6,140.7c0-5.9,3.2-7.4,5.5-7.4s5.5,1.5,5.5,7.4s-3.2,7.4-5.5,7.4C310.7,148.1,307.6,146.6,307.6,140.7"/>
<polyline points="332,146.1 331.9,146.1 327.6,130.1 323.1,130.1 329.9,151.3 333.9,151.3 340.7,130.1 336.3,130.1 "/>
<polyline points="358.2,130.1 343.4,130.1 343.4,151.3 358.6,151.3 358.6,147.5 347.5,147.5 347.5,142 357.3,142 357.3,138.3 
	347.5,138.3 347.5,133.8 358.2,133.8 "/>
<polyline points="374.4,144.8 374.3,144.8 366.3,130.1 361.9,130.1 361.9,151.3 365.8,151.3 365.8,136.2 365.9,136.2 374.1,151.3 
	378.3,151.3 378.3,130.1 374.4,130.1 "/>
<polyline points="396.6,147.5 386,147.5 396.6,133.6 396.6,130.1 381.2,130.1 381.2,133.8 391.3,133.8 380.9,147.5 380.9,151.3 
	396.6,151.3 "/>
<path d="M403.7,146.9h7.4l1.3,4.4h4.6l-7.1-21.2H405l-7.2,21.2h4.5 M407.4,134.9L407.4,134.9l2.5,8.4h-5.1L407.4,134.9z"/>
<polyline points="432,144.8 432,144.8 424,130.1 419.5,130.1 419.5,151.3 423.4,151.3 423.4,136.2 423.5,136.2 431.7,151.3 
	435.9,151.3 435.9,130.1 432,130.1 "/>
<path d="M444.2,146.9h7.4l1.3,4.4h4.6l-7.1-21.2h-4.9l-7.2,21.2h4.4 M447.9,134.9L447.9,134.9l2.5,8.4h-5.1L447.9,134.9z"/>
<polyline points="278.8,116.5 287.7,116.5 287.7,112.8 278.8,112.8 278.8,108 289,108 289,104.3 274.6,104.3 274.6,125.4 
	278.8,125.4 "/>
<path d="M291.7,114.8c0,9.9,7,11.1,9.7,11.1s9.7-1.2,9.7-11.1c0-9.9-7-11.2-9.7-11.2C298.7,103.7,291.7,104.9,291.7,114.8
	 M295.9,114.8c0-5.9,3.2-7.4,5.5-7.4s5.5,1.5,5.5,7.4s-3.2,7.4-5.5,7.4S295.9,120.8,295.9,114.8"/>
<path d="M315.3,125.4h4.1v-8.3h4.3c3.1,0,3.3,1.1,3.3,4c0,2.2,0.2,3.3,0.5,4.3h4.7v-0.6c-0.9-0.4-0.9-1.1-0.9-4.2
	c0-4-0.9-4.6-2.6-5.4c2-0.7,3.1-2.7,3.1-5c0-1.8-1-6-6.3-6h-10.2 M319.4,113.6v-5.7h5.2c2.5,0,2.9,1.7,2.9,2.8
	c0,2.1-1.1,2.9-3.2,2.9H319.4L319.4,113.6z"/>
<polyline points="355.7,104.3 349.6,104.3 346,120.9 346,120.9 342.3,104.3 336.2,104.3 336.2,125.4 340.1,125.4 340.1,107.7 
	340.2,107.7 343.8,125.4 348,125.4 351.7,107.7 351.8,107.7 351.8,125.4 355.7,125.4 "/>
<polyline points="375.4,104.3 360.6,104.3 360.6,125.4 375.9,125.4 375.9,121.7 364.7,121.7 364.7,116.2 374.5,116.2 374.5,112.4 
	364.7,112.4 364.7,108 375.4,108 "/>
<polyline points="392.4,119 392.4,119 384.4,104.2 380,104.2 380,125.4 383.9,125.4 383.9,110.3 383.9,110.3 392.1,125.4 
	396.4,125.4 396.4,104.2 392.4,104.2 "/>
<polyline points="409.8,108 415.9,108 415.9,104.2 399.5,104.2 399.5,108 405.6,108 405.6,125.4 409.8,125.4 "/>
<rect x="418.9" y="104.3" width="4.2" height="21.2"/>
<path d="M448.7,109.1c0,1.1-0.8,1.9-1.8,2.6c-1-1.1-1.5-1.9-1.5-2.7c0-1.1,0.7-1.7,1.6-1.7C448,107.4,448.7,107.9,448.7,109.1
	 M453.8,120.8c1.4-1.9,2-3.5,2.3-6.4h-3.5c-0.1,1.6-0.5,2.7-1,3.5l-2.8-3.7c0.8-0.5,3.3-2.1,3.3-5c0-3.4-2.7-4.9-4.9-4.9
	c-3.1,0-5.4,2-5.4,4.9c0,1.8,1,3.4,1.8,4.4l-0.4,0.3c-3.3,2.1-3.9,4.1-3.9,6.2c0,3.2,2.4,6,6.3,6c3,0,4.6-1.1,5.8-2.4l1.4,1.8h4.7
	L453.8,120.8z M449.4,121c-0.7,0.6-1.8,1.5-3.1,1.5c-2.3,0-3-2-3-2.8c0-1.7,0.7-2.3,2.4-3.5L449.4,121z"/>
</svg>
