<?xml version="1.0" encoding="utf-8"?>
<!-- Generator: Adobe Illustrator 21.0.2, SVG Export Plug-In . SVG Version: 6.00 Build 0)  -->
<svg version="1.1" id="Calque_2" xmlns="http://www.w3.org/2000/svg" xmlns:xlink="http://www.w3.org/1999/xlink" x="0px" y="0px"
	 viewBox="0 0 500 180" style="enable-background:new 0 0 500 180;" xml:space="preserve">
<style type="text/css">
	.st0{fill:#004494;}
	.st1{fill:#97BF0D;}
	.st2{fill:none;}
</style>
<rect x="87.4" y="47.5" class="st0" width="18" height="51.6"/>
<polygon class="st0" points="74.8,58.5 74.8,47.5 43.4,47.5 31.6,47.5 25.3,47.5 25.3,99.1 43.4,99.1 43.4,78.8 63.9,78.8 
	63.9,67.8 43.4,67.8 43.4,58.5 "/>
<polygon class="st0" points="224.9,47.5 224.9,67.8 206.2,67.8 206.2,47.5 188.2,47.5 188.2,99.1 206.2,99.1 206.2,78.8 224.9,78.8 
	224.9,99.1 242.9,99.1 242.9,47.5 "/>
<polygon class="st0" points="373,47.5 354.6,47.5 336.6,47.5 318.2,47.5 318.2,58.5 336.6,58.5 336.6,99.1 354.6,99.1 354.6,58.5 
	373,58.5 "/>
<path class="st0" d="M162.2,80.2c-1,5.5-5.7,9.7-11.5,9.7H149c-0.2,0-0.4-0.1-0.6-0.1c-0.2,0-0.3,0.1-0.5,0.1
	c-3.1,0-5.8-1.6-7.8-4.2c-1.7-2-2.8-4.6-2.8-7.5V78c0-0.1,0-0.2,0-0.4s0-0.3,0-0.5v-7.7c0-7,4.8-12.7,10.6-12.7
	c4.6,0,8.5,3.6,10,8.6h18.6c-3.4-11-13.9-19.1-26.1-19.1h-5c-15,0-27.3,12.2-27.3,27.1c0,14.9,12.3,27.1,27.3,27.1h5
	c11.4,0,21.2-7.1,25.3-17L162.2,80.2z"/>
<path class="st0" d="M312.7,73.3c0-18.2-13.9-27.1-26.1-27.1h-5c-15,0-27.3,12.2-27.3,27.1c0,14.9,12.3,27.1,27.3,27.1h5
	c11.4,0,21.2-7.1,25.3-17l-13.6-3.1c-1,5.5-5.7,9.7-11.5,9.7h-1.7c-0.2,0-0.4-0.1-0.6-0.1S284.2,90,284,90c-3.1,0-5.8-1.6-7.8-4.2
	c-1.7-2-2.8-4.6-2.8-7.5V78c0-0.1,0-0.2,0-0.4s0-0.3,0-0.5v-1.6h39.2v-1L312.7,73.3L312.7,73.3z M284.1,56.7c4.6,0,8.5,3.6,9.9,8.6
	h-19.9C275.6,60.3,279.5,56.7,284.1,56.7z"/>
<polygon class="st0" points="461.7,60.1 461.7,38.9 425.7,38.9 425.7,38.6 401,38.6 401,108.9 425.7,108.9 425.7,93 461.7,93 
	461.7,71.8 425.7,71.8 425.7,60.1 "/>
<path class="st0" d="M471.8,32.5v83.3h-83.3V32.5L471.8,32.5 M475,29.4h-89.6V119H475V29.4L475,29.4z"/>
<rect x="428.1" y="62.2" class="st1" width="43.8" height="7.4"/>
<path class="st0" d="M25,127.4h14.2v4.9h-8.4v4H38v4.6h-7.2v9.3H25V127.4z"/>
<path class="st0" d="M66.2,143.8l4.9,0.7c-0.3,1.3-0.7,2.3-1.3,3.3c-0.6,0.9-1.4,1.6-2.4,2.1s-2.2,0.8-3.6,0.8s-2.6-0.2-3.6-0.5
	c-0.9-0.3-1.8-0.9-2.4-1.6c-0.7-0.7-1.2-1.6-1.6-2.6c-0.4-1-0.6-2.3-0.6-3.9c0-1.7,0.2-3.1,0.7-4.2c0.3-0.8,0.8-1.6,1.4-2.2
	c0.6-0.7,1.2-1.1,1.8-1.5c1-0.5,2.3-0.8,3.9-0.8c2.2,0,3.9,0.5,5,1.4c1.2,1,2,2.4,2.4,4.2l-4.8,0.8c-0.2-0.7-0.4-1.2-0.8-1.6
	s-0.9-0.5-1.6-0.5c-0.9,0-1.5,0.4-2.1,1.1c-0.5,0.7-0.8,1.9-0.8,3.4c0,1.4,0.3,2.4,0.8,3.1s1.2,1.1,2,1.1c0.7,0,1.2-0.2,1.7-0.6
	C65.6,145.3,66,144.7,66.2,143.8z"/>
<path class="st0" d="M75.9,127.4H81v8.4c0.7-0.9,1.4-1.5,2.1-1.9s1.5-0.6,2.5-0.6c1.4,0,2.5,0.5,3.3,1.6c0.8,1,1.2,2.7,1.2,4.8v10.5
	h-5.2v-9.1c0-1-0.2-1.8-0.5-2.2c-0.3-0.4-0.8-0.6-1.3-0.6c-0.6,0-1.1,0.3-1.5,0.9s-0.6,1.6-0.6,3.1v7.9h-5.1V127.4L75.9,127.4z"/>
<path class="st0" d="M110.9,143.6h-10.3c0.1,1,0.3,1.8,0.7,2.3c0.5,0.7,1.1,1.1,1.9,1.1c0.5,0,1-0.2,1.4-0.5c0.3-0.2,0.6-0.5,0.9-1
	l5.1,0.6c-0.8,1.7-1.7,2.9-2.8,3.6c-1.1,0.7-2.7,1.1-4.7,1.1c-1.8,0-3.2-0.3-4.2-0.9s-1.9-1.6-2.5-2.9c-0.7-1.3-1-2.9-1-4.7
	c0-2.6,0.7-4.7,2-6.3c1.3-1.6,3.2-2.4,5.6-2.4c1.9,0,3.4,0.4,4.6,1.1c1.1,0.7,2,1.8,2.5,3.1c0.6,1.4,0.9,3.1,0.9,5.3L110.9,143.6
	L110.9,143.6z M105.7,140.5c-0.1-1.2-0.4-2.1-0.8-2.6s-1-0.8-1.7-0.8c-0.8,0-1.5,0.4-2,1.2c-0.3,0.5-0.5,1.2-0.6,2.2L105.7,140.5
	L105.7,140.5z"/>
<path class="st0" d="M122.3,127.4v6.3h2.8v4.6h-2.8v5.9c0,0.7,0.1,1.2,0.2,1.4c0.2,0.4,0.5,0.5,0.9,0.5s0.9-0.1,1.6-0.4l0.4,4.4
	c-1.3,0.3-2.5,0.5-3.6,0.5c-1.3,0-2.2-0.2-2.8-0.6c-0.6-0.4-1.1-1-1.3-1.8c-0.3-0.8-0.4-2.2-0.4-4v-5.8h-1.9v-4.6h1.9v-3
	L122.3,127.4z"/>
<path class="st0" d="M141.3,142.7l5.4-0.4c0.1,1.1,0.4,1.9,0.7,2.5c0.6,0.9,1.4,1.4,2.5,1.4c0.8,0,1.4-0.2,1.9-0.7
	c0.4-0.5,0.7-1,0.7-1.6s-0.2-1.1-0.6-1.6c-0.4-0.5-1.4-0.9-2.9-1.3c-2.5-0.7-4.3-1.6-5.4-2.8c-1.1-1.1-1.6-2.6-1.6-4.4
	c0-1.2,0.3-2.3,0.8-3.3c0.6-1,1.4-1.9,2.5-2.5s2.6-0.9,4.6-0.9c2.4,0,4.2,0.5,5.4,1.6s2,2.8,2.2,5.2l-5.4,0.4
	c-0.1-1-0.4-1.8-0.9-2.2c-0.5-0.5-1.1-0.7-1.9-0.7c-0.7,0-1.2,0.2-1.5,0.5s-0.5,0.8-0.5,1.3c0,0.4,0.1,0.7,0.4,1
	c0.3,0.3,0.9,0.6,1.9,0.8c2.5,0.7,4.3,1.3,5.4,2c1.1,0.7,1.9,1.5,2.4,2.5s0.7,2.1,0.7,3.4c0,1.5-0.3,2.8-1,4s-1.6,2.2-2.8,2.8
	c-1.2,0.6-2.7,1-4.5,1c-3.2,0-5.3-0.7-6.5-2.2C142.1,146.9,141.4,145,141.3,142.7z"/>
<path class="st0" d="M178.3,143.6H168c0.1,1,0.3,1.8,0.7,2.3c0.5,0.7,1.1,1.1,1.9,1.1c0.5,0,1-0.2,1.4-0.5c0.3-0.2,0.6-0.5,0.9-1
	l5.1,0.6c-0.8,1.7-1.7,2.9-2.8,3.6s-2.7,1.1-4.7,1.1c-1.8,0-3.2-0.3-4.2-0.9s-1.9-1.6-2.5-2.9c-0.7-1.3-1-2.9-1-4.7
	c0-2.6,0.7-4.7,2-6.3c1.3-1.6,3.2-2.4,5.6-2.4c1.9,0,3.4,0.4,4.6,1.1c1.1,0.7,2,1.8,2.5,3.1c0.6,1.4,0.9,3.1,0.9,5.3L178.3,143.6
	L178.3,143.6z M173.1,140.5c-0.1-1.2-0.4-2.1-0.8-2.6c-0.4-0.5-1-0.8-1.7-0.8c-0.8,0-1.5,0.4-2,1.2c-0.3,0.5-0.5,1.2-0.6,2.2
	L173.1,140.5L173.1,140.5z"/>
<path class="st0" d="M183.6,133.7h4.8v2.7c0.5-1.2,0.9-2,1.4-2.4s1.1-0.7,1.8-0.7c0.8,0,1.6,0.3,2.5,0.9l-1.6,4.5
	c-0.6-0.3-1.1-0.5-1.4-0.5c-0.7,0-1.2,0.3-1.6,1c-0.5,1-0.8,2.8-0.8,5.4v5.5h-5.2L183.6,133.7L183.6,133.7z"/>
<path class="st0" d="M199,133.7h4.8v2.7c0.5-1.2,0.9-2,1.4-2.4s1.1-0.7,1.8-0.7c0.8,0,1.6,0.3,2.5,0.9l-1.6,4.5
	c-0.6-0.3-1.1-0.5-1.4-0.5c-0.7,0-1.2,0.3-1.6,1c-0.5,1-0.8,2.8-0.8,5.4v5.5H199V133.7L199,133.7z"/>
<path class="st0" d="M228.3,150.3h-4.8v-2.7c-0.7,1.1-1.4,1.9-2.2,2.4c-0.7,0.5-1.6,0.7-2.7,0.7c-1.4,0-2.5-0.5-3.3-1.6
	c-0.8-1-1.2-2.6-1.2-4.8v-10.5h5.2v9.1c0,1,0.2,1.8,0.5,2.2c0.3,0.4,0.7,0.7,1.3,0.7s1.1-0.3,1.5-0.9s0.6-1.6,0.6-3.1v-8h5.1
	L228.3,150.3L228.3,150.3z"/>
<path class="st0" d="M234.3,133.7h4.8v2.7c0.5-1.2,0.9-2,1.4-2.4s1.1-0.7,1.8-0.7c0.8,0,1.6,0.3,2.5,0.9l-1.6,4.5
	c-0.6-0.3-1.1-0.5-1.4-0.5c-0.7,0-1.2,0.3-1.6,1c-0.5,1-0.8,2.8-0.8,5.4v5.5h-5.2L234.3,133.7L234.3,133.7z"/>
<path class="st0" d="M263.9,143.6h-10.3c0.1,1,0.3,1.8,0.7,2.3c0.5,0.7,1.1,1.1,1.9,1.1c0.5,0,1-0.2,1.4-0.5c0.3-0.2,0.6-0.5,0.9-1
	l5.1,0.6c-0.8,1.7-1.7,2.9-2.8,3.6c-1.1,0.7-2.7,1.1-4.7,1.1c-1.8,0-3.2-0.3-4.2-0.9s-1.9-1.6-2.5-2.9c-0.7-1.3-1-2.9-1-4.7
	c0-2.6,0.7-4.7,2-6.3c1.3-1.6,3.2-2.4,5.6-2.4c1.9,0,3.4,0.4,4.5,1.1s2,1.8,2.5,3.1c0.6,1.4,0.9,3.1,0.9,5.3V143.6L263.9,143.6z
	 M258.7,140.5c-0.1-1.2-0.4-2.1-0.8-2.6s-1-0.8-1.7-0.8c-0.8,0-1.5,0.4-2,1.2c-0.3,0.5-0.5,1.2-0.6,2.2L258.7,140.5L258.7,140.5z"/>
<path class="st0" d="M269.2,133.7h4.8v2.7c0.5-1.2,0.9-2,1.4-2.4s1.1-0.7,1.8-0.7c0.8,0,1.6,0.3,2.5,0.9l-1.6,4.5
	c-0.6-0.3-1.1-0.5-1.4-0.5c-0.7,0-1.2,0.3-1.6,1c-0.5,1-0.8,2.8-0.8,5.4v5.5h-5.2L269.2,133.7L269.2,133.7z"/>
<rect x="283.7" y="133.7" class="st0" width="5.1" height="16.5"/>
<rect x="283.7" y="127.4" class="st0" width="5.1" height="4.3"/>
<path class="st0" d="M309.8,143.6h-10.3c0.1,1,0.3,1.8,0.7,2.3c0.5,0.7,1.1,1.1,1.9,1.1c0.5,0,1-0.2,1.4-0.5c0.3-0.2,0.6-0.5,0.9-1
	l5.1,0.6c-0.8,1.7-1.7,2.9-2.8,3.6s-2.7,1.1-4.7,1.1c-1.8,0-3.2-0.3-4.2-0.9s-1.9-1.6-2.5-2.9c-0.7-1.3-1-2.9-1-4.7
	c0-2.6,0.7-4.7,2-6.3c1.3-1.6,3.2-2.4,5.6-2.4c1.9,0,3.4,0.4,4.5,1.1s2,1.8,2.5,3.1c0.6,1.4,0.9,3.1,0.9,5.3V143.6L309.8,143.6z
	 M304.6,140.5c-0.1-1.2-0.4-2.1-0.8-2.6s-1-0.8-1.7-0.8c-0.8,0-1.5,0.4-2,1.2c-0.3,0.5-0.5,1.2-0.6,2.2L304.6,140.5L304.6,140.5z"/>
<path class="st0" d="M326.9,127.4h10.7c1.8,0,3.2,0.5,4.1,1.6c1,1.1,1.4,2.4,1.4,4c0,1.3-0.3,2.5-1,3.5c-0.5,0.6-1.1,1.2-2,1.5
	c1.3,0.4,2.3,1.1,2.9,2c0.6,1,0.9,2.2,0.9,3.6c0,1.2-0.2,2.2-0.7,3.2c-0.4,0.9-1.1,1.7-1.8,2.2c-0.5,0.3-1.2,0.6-2.2,0.7
	c-1.3,0.2-2.1,0.3-2.6,0.3h-9.9L326.9,127.4L326.9,127.4z M332.7,136.4h2.5c0.9,0,1.5-0.2,1.9-0.6s0.5-0.9,0.5-1.6s-0.2-1.2-0.5-1.6
	s-1-0.6-1.8-0.6h-2.5v4.4H332.7z M332.7,145.4h2.9c1,0,1.7-0.2,2.1-0.6s0.6-1,0.6-1.7s-0.2-1.2-0.6-1.6s-1.1-0.6-2.1-0.6h-2.9V145.4
	L332.7,145.4z"/>
<path class="st0" d="M375.8,127.4v6.3h2.8v4.6h-2.8v5.9c0,0.7,0.1,1.2,0.2,1.4c0.2,0.4,0.5,0.5,0.9,0.5s0.9-0.1,1.6-0.4l0.4,4.4
	c-1.3,0.3-2.5,0.5-3.6,0.5c-1.3,0-2.2-0.2-2.8-0.6c-0.6-0.4-1.1-1-1.3-1.8c-0.3-0.8-0.4-2.2-0.4-4v-5.8h-1.9v-4.6h1.9v-3
	L375.8,127.4z"/>
<path class="st2" d="M354.5,144.2c-0.3,0.3-0.4,0.7-0.4,1.2s0.1,0.9,0.4,1.2s0.7,0.5,1.2,0.5c0.6,0,1.1-0.2,1.6-0.5s0.8-0.8,1-1.3
	s0.3-1.1,0.3-1.9l0.1-1c-0.7,0.3-1.4,0.6-2.2,0.8C355.5,143.5,354.8,143.9,354.5,144.2z"/>
<rect x="44.9" y="127.4" class="st0" width="5.1" height="4.3"/>
<rect x="44.9" y="133.7" class="st0" width="5.1" height="16.5"/>
<polygon class="st0" points="356.7,129.4 358.2,131.8 361.3,131.8 358.5,127.3 354.8,127.3 352.1,131.8 355.2,131.8 "/>
<path class="st0" d="M363.6,146.8v-7.3c0-0.8-0.1-1.6-0.4-2.5c-0.2-0.9-0.6-1.5-1-2c-0.6-0.6-1.4-1.1-2.3-1.3
	c-0.9-0.2-2.2-0.3-3.7-0.3c-1,0-1.9,0.1-2.7,0.3c-0.8,0.1-1.4,0.4-1.9,0.7c-0.6,0.5-1.1,1-1.5,1.6c-0.3,0.6-0.6,1.4-0.8,2.5l4.9,0.6
	c0.2-0.7,0.5-1.2,0.7-1.6c0.4-0.3,1.1-0.5,1.9-0.5c0.7,0,1.1,0.2,1.4,0.5c0.3,0.3,0.4,0.8,0.4,1.6c-0.6,0.4-1.2,0.6-1.8,0.8
	s-1.9,0.5-3.8,1c-1.6,0.4-2.7,1-3.3,1.8c-0.6,0.8-0.9,1.8-0.9,3.1c0,1.4,0.4,2.5,1.2,3.4c0.8,0.9,2,1.4,3.6,1.4
	c1.2,0,2.3-0.2,3.2-0.7c0.7-0.3,1.3-0.9,2-1.7c0.1,0.5,0.1,0.9,0.2,1.1c0.1,0.3,0.2,0.6,0.4,1h4.8c-0.2-0.7-0.4-1.3-0.5-1.7
	C363.6,148.2,363.6,147.6,363.6,146.8z M358.6,143.4c0,0.8-0.1,1.4-0.3,1.9s-0.5,1-1,1.3s-1,0.5-1.6,0.5c-0.5,0-0.9-0.2-1.2-0.5
	s-0.4-0.7-0.4-1.2s0.1-0.9,0.4-1.2s1-0.7,2-1c0.8-0.2,1.5-0.5,2.2-0.8L358.6,143.4z"/>
<rect x="384.1" y="127.4" class="st0" width="5.1" height="4.3"/>
<rect x="384.1" y="133.7" class="st0" width="5.1" height="16.5"/>
<path class="st0" d="M395.5,133.7h4.8v2.4c0.7-1,1.4-1.7,2.1-2.1s1.6-0.6,2.6-0.6c1.1,0,1.9,0.2,2.5,0.7s1.1,1.2,1.5,2.1
	c0.8-1.1,1.5-1.8,2.2-2.2c0.7-0.4,1.5-0.6,2.5-0.6c1.4,0,2.6,0.5,3.4,1.6s1.2,2.7,1.2,4.9v10.4h-5.2v-9.4c0-0.7-0.1-1.3-0.4-1.7
	c-0.3-0.6-0.8-0.9-1.3-0.9c-0.6,0-1.1,0.3-1.5,0.8s-0.6,1.4-0.6,2.6v8.5h-5.2v-9.1c0-0.7,0-1.2-0.1-1.5c-0.1-0.4-0.3-0.7-0.6-1
	s-0.6-0.4-1-0.4c-0.6,0-1.1,0.3-1.5,0.8s-0.6,1.5-0.6,2.7v8.4h-5.2L395.5,133.7L395.5,133.7z"/>
<path class="st0" d="M439.1,143.6h-10.3c0.1,1,0.3,1.8,0.7,2.3c0.5,0.7,1.1,1.1,1.9,1.1c0.5,0,1-0.2,1.4-0.5c0.3-0.2,0.6-0.5,0.9-1
	l5.1,0.6c-0.8,1.7-1.7,2.9-2.8,3.6c-1.1,0.7-2.7,1.1-4.7,1.1c-1.8,0-3.2-0.3-4.2-0.9s-1.9-1.6-2.5-2.9c-0.7-1.3-1-2.9-1-4.7
	c0-2.6,0.7-4.7,2-6.3c1.3-1.6,3.2-2.4,5.6-2.4c1.9,0,3.4,0.4,4.5,1.1s2,1.8,2.5,3.1c0.6,1.4,0.9,3.1,0.9,5.3V143.6L439.1,143.6z
	 M433.8,140.5c-0.1-1.2-0.4-2.1-0.8-2.6s-1-0.8-1.7-0.8c-0.8,0-1.5,0.4-2,1.2c-0.3,0.5-0.5,1.2-0.6,2.2L433.8,140.5L433.8,140.5z"/>
<path class="st0" d="M444.3,133.7h4.8v2.7c0.7-1.1,1.4-1.9,2.2-2.4c0.7-0.5,1.6-0.7,2.7-0.7c1.4,0,2.5,0.5,3.3,1.6
	c0.8,1,1.2,2.7,1.2,4.8v10.5h-5.2v-9.1c0-1-0.2-1.8-0.5-2.2c-0.3-0.4-0.7-0.6-1.3-0.6c-0.6,0-1.1,0.3-1.5,0.9s-0.6,1.6-0.6,3.1v7.9
	h-5.1V133.7L444.3,133.7z"/>
<path class="st0" d="M470.6,127.4v6.3h2.8v4.6h-2.8v5.9c0,0.7,0.1,1.2,0.2,1.4c0.2,0.4,0.5,0.5,0.9,0.5s0.9-0.1,1.6-0.4l0.4,4.4
	c-1.3,0.3-2.5,0.5-3.6,0.5c-1.3,0-2.2-0.2-2.8-0.6c-0.6-0.4-1.1-1-1.3-1.8c-0.3-0.8-0.4-2.2-0.4-4v-5.8h-1.9v-4.6h1.9v-3
	L470.6,127.4z"/>
</svg>
