<?xml version="1.0" encoding="utf-8"?>
<!-- Generator: Adobe Illustrator 21.0.2, SVG Export Plug-In . SVG Version: 6.00 Build 0)  -->
<svg version="1.1" id="Calque_1" xmlns="http://www.w3.org/2000/svg" xmlns:xlink="http://www.w3.org/1999/xlink" x="0px" y="0px"
	 viewBox="0 0 500 118" style="enable-background:new 0 0 500 118;" xml:space="preserve">
<style type="text/css">
	.st0{fill:#E2001A;}
	.st1{fill:#FFFFFF;}
</style>
<rect x="25" y="20.1" class="st0" width="450" height="77.8"/>
<path class="st1" d="M414.3,83.1c4.2,2.9,9.2,4.6,14.7,4.6c14.1,0,25.6-11.5,25.6-25.6S443.2,36.5,429,36.5
	c-5.3,0-10.2,1.6-14.3,4.4l7.3,9.3c2.1-1.2,4.5-1.9,7.1-1.9c7.7,0,13.9,6.2,13.9,13.9s-6.2,13.9-13.9,13.9c-3,0-5.7-0.9-8-2.5
	L414.3,83.1z"/>
<polygon class="st1" points="367.8,39.4 401.3,39.4 420.3,61.1 403.2,83.3 368.9,83.3 386.7,61.7 "/>
<polygon class="st1" points="200.8,39.8 234.6,39.8 230.6,51.5 208.9,51.5 206.4,58.6 221.1,58.6 218.6,68.9 203.9,68.9 199.5,84 
	187.6,84 "/>
<polygon class="st1" points="237.8,39.5 248.1,39.5 236.2,84.7 224,84.7 "/>
<polygon class="st1" points="312.1,39.5 325.3,39.5 327.8,63.6 342.8,38.5 357.3,38.5 344.7,85.7 334,85.7 340,61.6 326.5,85 
	318.1,85 315.5,61.6 309,85 298.3,85 "/>
<polygon class="st1" points="257.2,39.5 270.4,39.5 272.9,63.6 287.9,38.5 302.4,38.5 289.8,85.7 279.2,85.7 285.1,61.6 271.6,85 
	263.2,85 260.7,61.6 254.1,85 243.4,85 "/>
</svg>
