<?xml version="1.0" encoding="utf-8"?>
<!-- Generator: Adobe Illustrator 21.0.2, SVG Export Plug-In . SVG Version: 6.00 Build 0)  -->
<svg version="1.1" id="Calque_1" xmlns="http://www.w3.org/2000/svg" xmlns:xlink="http://www.w3.org/1999/xlink" x="0px" y="0px"
	 viewBox="0 0 500 122" style="enable-background:new 0 0 500 122;" xml:space="preserve">
<style type="text/css">
	.st0{fill:#EB5200;}
</style>
<path class="st0" d="M476.6,17.8c-4.9,0-8.6,3.7-8.6,8.6c0,4.9,3.7,8.6,8.6,8.6c4.9,0,8.6-3.7,8.6-8.6
	C485.2,21.5,481.4,17.8,476.6,17.8z M476.6,33.6c-4.1,0-7.2-3.1-7.2-7.2c0-4.1,3.1-7.2,7.2-7.2c4.1,0,7.2,3.1,7.2,7.2
	C483.8,30.5,480.7,33.6,476.6,33.6z"/>
<path class="st0" d="M480.5,24.4c0-2-1.4-2.8-3.1-2.8h-4.1v9.4h1.6v-3.6h1.8l1.8,3.6h1.9l-1.9-3.8C479.7,26.8,480.5,25.8,480.5,24.4
	z M477.4,25.7h-2.5v-2.7h2.5c0.9,0,1.5,0.5,1.5,1.3C478.9,25.3,478.2,25.7,477.4,25.7z"/>
<path class="st0" d="M216.2,47.4l0.7-2.7c1.3-5.3,3.4-13.1,23.7-13.1h4.9l-4,15.9H216.2 M239.2,17.6c-12,0-33.5,2-38.7,22.9
	l-9.7,38.8h17.4l4.7-18.8h25.3l-4.7,18.8H251l15.4-61.6L239.2,17.6"/>
<path class="st0" d="M267.9,31.6L256,79.3h15.6l9-35.9h11.6c8.4,0,11.3,2.1,9.3,10L295,79.3h15.6l6.6-26.5
	c4.5-18.1-12.1-21.2-22.2-21.2H267.9"/>
<path class="st0" d="M72.2,44.7H40.9c1.3-5.3,3.4-13.1,23.7-13.1h17.1l3.5-13.9l-22.1,0c-12.1,0-33.5,2-38.7,22.9l-9.7,38.8h17.4
	l5.4-21.5H69L72.2,44.7"/>
<path class="st0" d="M361.6,59.3l-2.4,7.9c-2,0.3-5.4,0.5-6.9,0.5c-13,0-16.1-5-15.8-9.4c1-13.8,10.4-16.3,15.6-16.3
	C362.1,41.9,363.9,50.1,361.6,59.3 M352.1,30.1c-23.3,0-31.7,17-31.7,28.4c0,13,10.9,21.8,27.1,21.8c2,0,6.2-0.2,9-0.7
	c-3.3,9.9-13.9,11.5-25.4,10.9l-3.4,13.7c16.2,1,38.7-1.1,45.3-27.6c1.3-5.2,2.6-10.4,3.9-15.4C381.1,44.1,373.8,30.1,352.1,30.1"/>
<path class="st0" d="M134.1,31.1c-7.5,0-13.2,2.7-14.3,5.3l1.4-4.8h-15.6L93.7,79.3h15.6l3.6-14.2c4.3-17.1,10.4-22.4,24.1-19.4
	l4.1-13.7C138.8,31.2,136.3,31.1,134.1,31.1"/>
<path class="st0" d="M178.1,50.8h-23.5c1-4.6,5.4-9.9,13.7-9.9C174.7,41,178.9,44,178.1,50.8 M168.8,30.1c-23.3,0-31.7,17-31.7,28.4
	c0,13,10.9,21.8,27.1,21.8c5.2,0,13.9-1.5,21.4-4.5l2.6-10.4c-21.7,7.5-34.8,3.8-34.8-4.1h38.3c0.6-2.8,1.2-8.1,1.2-9.9
	C193,38.2,184.1,30.1,168.8,30.1"/>
<path class="st0" d="M421.6,50.8h-23.5c0.9-4.6,5.4-9.9,13.7-9.9C418.2,41,422.4,44,421.6,50.8 M412.3,30.1
	c-23.3,0-31.7,17-31.7,28.4c0,13,10.9,21.8,27.1,21.8c5.2,0,13.9-1.5,21.4-4.5l2.6-10.4c-21.7,7.5-34.8,3.8-34.8-4.1h38.3
	c0.6-2.8,1.2-8.1,1.2-9.9C436.4,38.2,427.6,30.1,412.3,30.1"/>
<polygon class="st0" points="84.7,31.6 100.3,31.6 88.3,79.3 72.7,79.3 "/>
<polygon class="st0" points="449.5,17.6 465.1,17.6 449.7,79.2 434,79.2 "/>
</svg>
