<?xml version="1.0" encoding="utf-8"?>
<!-- Generator: Adobe Illustrator 15.0.0, SVG Export Plug-In . SVG Version: 6.00 Build 0)  -->
<!DOCTYPE svg PUBLIC "-//W3C//DTD SVG 1.1//EN" "http://www.w3.org/Graphics/SVG/1.1/DTD/svg11.dtd">
<svg version="1.1" id="Calque_1" xmlns="http://www.w3.org/2000/svg" xmlns:xlink="http://www.w3.org/1999/xlink" x="0px" y="0px"
	 width="500px" height="500px" viewBox="0 0 500 500" enable-background="new 0 0 500 500" xml:space="preserve">
<g id="Nouveau_symbole">
</g>
<g>
	<g>
		<path fill="#007646" d="M25.981,136.332H76.86v15.475H44.801v19.062h29.963v15.354H44.801v33.55h-18.82V136.332z"/>
		<path fill="#007646" d="M110.036,136.332v83.441h-18.81v-83.441H110.036z"/>
		<path fill="#007646" d="M126.992,200.459c4.957,2.599,12.876,5.198,20.926,5.198c8.675,0,13.249-3.586,13.249-9.158
			c0-5.077-3.969-8.17-13.984-11.636c-13.874-4.957-23.031-12.629-23.031-24.885c0-14.241,12.009-25.011,31.575-25.011
			c9.531,0,16.341,1.858,21.289,4.211l-4.211,15.103c-3.214-1.607-9.279-3.959-17.339-3.959c-8.161,0-12.13,3.838-12.13,8.044
			c0,5.325,4.584,7.678,15.475,11.889c14.74,5.445,21.54,13.123,21.54,25.006c0,13.989-10.639,25.873-33.549,25.873
			c-9.531,0-18.941-2.6-23.636-5.199L126.992,200.459z"/>
		<path fill="#007646" d="M254.391,217.546c-3.346,1.607-11.274,3.587-21.289,3.587c-28.854,0-43.705-18.075-43.705-41.968
			c0-28.477,20.301-44.198,45.559-44.198c9.773,0,17.208,1.984,20.553,3.717l-3.97,14.856c-3.708-1.612-9.037-3.099-15.838-3.099
			c-14.871,0-26.497,9.037-26.497,27.731c0,16.715,9.894,27.238,26.618,27.238c5.813,0,12.009-1.113,15.838-2.725L254.391,217.546z"
			/>
		<path fill="#007646" d="M285.834,136.332v32.185h31.071v-32.185h18.82v83.441h-18.82v-34.789h-31.071v34.789h-18.82v-83.441
			H285.834z"/>
		<path fill="#007646" d="M401.837,184.49h-30.708v19.807h34.295v15.475h-53.115v-83.441h51.383v15.475h-32.562v17.329h30.708
			V184.49z"/>
		<path fill="#007646" d="M418.3,137.566c6.065-1.113,14.972-1.854,25.127-1.854c12.372,0,21.036,1.854,26.98,6.685
			c5.078,3.96,7.798,9.778,7.798,17.455c0,10.523-7.536,17.828-14.729,20.427v0.373c5.823,2.353,9.048,7.798,11.144,15.475
			c2.599,9.531,5.077,20.427,6.689,23.646h-19.304c-1.249-2.353-3.345-9.163-5.702-19.435c-2.357-10.523-5.944-13.249-13.742-13.375
			h-5.582v32.809H418.3V137.566z M436.979,173.347h7.436c9.41,0,14.991-4.705,14.991-12.009c0-7.551-5.198-11.516-13.883-11.516
			c-4.574,0-7.174,0.252-8.544,0.619V173.347z"/>
		<path fill="#007646" d="M25.86,230.417c6.932-1.234,15.958-1.854,25.369-1.854c15.979,0,26.376,2.599,34.295,8.665
			c8.665,6.433,14.115,16.83,14.115,31.69c0,15.969-5.813,26.991-13.742,33.802c-8.785,7.304-22.276,10.771-38.617,10.771
			c-9.793,0-16.846-0.625-21.419-1.24V230.417z M44.68,298.388c1.602,0.362,4.333,0.362,6.549,0.362
			c17.208,0.131,28.482-9.279,28.482-29.217c0-17.944-10.156-26.487-26.497-26.487c-4.081,0-6.932,0.373-8.534,0.745V298.388z"/>
		<path fill="#007646" d="M134.428,291.204l-5.823,21.419h-19.556l25.5-83.44h24.644l25.993,83.44h-20.301l-6.438-21.419H134.428z
			 M155.595,277.089l-5.199-17.702c-1.36-4.956-2.852-11.263-4.081-16.1h-0.383c-1.108,4.957-2.468,11.274-3.708,16.1l-5.078,17.702
			H155.595z"/>
		<path fill="#007646" d="M199.421,230.417c6.065-1.113,14.981-1.854,25.137-1.854c12.372,0,21.037,1.854,26.981,6.685
			c5.078,3.959,7.798,9.773,7.798,17.45c0,10.528-7.546,17.833-14.729,20.432v0.373c5.823,2.348,9.037,7.799,11.143,15.476
			c2.6,9.53,5.078,20.422,6.69,23.646h-19.324c-1.229-2.357-3.335-9.168-5.682-19.435c-2.358-10.528-5.944-13.248-13.742-13.38
			h-5.582v32.814h-18.689V230.417z M218.111,266.198h7.435c9.41,0,14.972-4.705,14.972-12.01c0-7.556-5.199-11.516-13.863-11.516
			c-4.574,0-7.173,0.252-8.543,0.614V266.198z"/>
		<path fill="#007646" d="M325.57,277.341h-30.688v19.808h34.275v15.475h-53.095v-83.44h51.362v15.475h-32.543v17.329h30.688
			V277.341z"/>
		<path fill="#007646" d="M389.082,312.623l-7.556-15.102c-3.104-5.824-5.078-10.156-7.436-14.982h-0.242
			c-1.732,4.826-3.828,9.158-6.549,14.982l-6.811,15.102h-21.54l24.14-42.214l-23.273-41.227h21.661l7.295,15.223
			c2.479,5.078,4.332,9.159,6.327,13.863h0.241c1.975-5.319,3.587-9.037,5.703-13.863l7.052-15.223h21.54L386.1,269.905
			l24.765,42.718H389.082z"/>
	</g>
	<path fill="#D8282D" d="M109.24,120.151c0,5.163-4.181,9.35-9.35,9.35c-5.158,0-9.35-4.187-9.35-9.35c0-5.164,4.191-9.35,9.35-9.35
		C105.059,110.802,109.24,114.988,109.24,120.151z"/>
	<path fill="#D8282D" d="M422.41,229.374c0,0,39.896-2.086,52.027,0c12.15,2.09-4.434,86.675-10.397,100.114
		c-5.965,13.44-29.499,62.576-203.03,62.576c-173.511,0-239.452-70.918-239.452-70.918h50.314c0,0,26.91,58.395,193.47,59.453
		c166.6,1.037,178.528-37.328,180.482-63.613c1.935-26.286-41.649-54.234-41.649-54.234L422.41,229.374z"/>
	<g>
		<g>
			<path fill="#FFFFFF" d="M448.746,239.751c-10.68,0-19.364,8.654-19.364,19.344c0,10.71,8.685,19.364,19.364,19.364
				c10.699,0,19.364-8.654,19.364-19.364C468.111,248.405,459.446,239.751,448.746,239.751z M448.746,274.741
				c-8.645,0-15.637-6.991-15.637-15.646c0-8.624,6.992-15.626,15.637-15.626s15.656,7.002,15.656,15.626
				C464.403,267.75,457.391,274.741,448.746,274.741z"/>
		</g>
	</g>
	<g>
		<path fill="#FFFFFF" d="M441.754,247.499c1.512-0.303,3.688-0.514,5.683-0.514c3.163,0,5.239,0.615,6.67,1.904
			c1.108,0.987,1.793,2.548,1.793,4.352c0,2.993-1.935,4.997-4.312,5.813v0.101c1.733,0.614,2.781,2.247,3.365,4.625
			c0.746,3.193,1.29,5.41,1.733,6.286h-3.063c-0.362-0.645-0.886-2.619-1.491-5.471c-0.685-3.163-1.934-4.352-4.613-4.453h-2.802
			v9.924h-2.962V247.499z M444.716,257.896h3.022c3.164,0,5.179-1.733,5.179-4.343c0-2.962-2.155-4.251-5.279-4.251
			c-1.431,0-2.397,0.131-2.922,0.272V257.896z"/>
	</g>
</g>
</svg>
