<?xml version="1.0" encoding="utf-8"?>
<!-- Generator: Adobe Illustrator 21.0.2, SVG Export Plug-In . SVG Version: 6.00 Build 0)  -->
<svg version="1.1" id="Ebene_1" xmlns="http://www.w3.org/2000/svg" xmlns:xlink="http://www.w3.org/1999/xlink" x="0px" y="0px"
	 viewBox="0 0 500 98" style="enable-background:new 0 0 500 98;" xml:space="preserve">
<style type="text/css">
	.st0{fill:#E30613;}
	.st1{fill:#FFFFFF;}
</style>
<rect x="342" y="33" width="124.2" height="50.7"/>
<path class="st0" d="M50.8,13.2v13.4c-3,0.3-5.8-0.8-8,1.6c-0.3,1.1-0.6,2.8-0.6,4.7l8.4-0.2v14.4h-8.4v36.3H22.6V47.1H16V32.7
	l6.9,0.2c-0.2-7.2,1.6-13.1,6.9-17C35.8,12.1,43.5,12.7,50.8,13.2"/>
<path class="st0" d="M198.7,13.2v24.5c5.3-5.5,13.6-7.8,21.1-5.6c5.9,1.6,10.8,6.9,11.7,12.8l0.5,4.7v34h-19c0,0,0.2-19.7,0-29.2
	c-0.5-2.3-0.8-5-3.3-6.4c-2-1.1-4.7-0.8-6.7,0c-2.7,1.7-4.2,4.7-4.1,8v27.5h-19.3V13.2H198.7z"/>
<path class="st0" d="M120.4,39.7c0.9,2.2,1.7,4.7,1.7,7.3l-0.3,0.3h-17c-0.3-1.1-0.5-2.3-1.1-3.1c-2-2-5.3-2-8-1.4
	c-1.1,0.5-2.7,1.4-2.8,2.8c0,0.6,0.2,1.4,0.8,1.9c4.2,2.2,9.7,1.7,14.2,3c6.2,1.1,13.6,5,15.6,11.9c1.4,5.5,0.3,11.4-3.4,15.4
	c-8.6,8.4-23.1,8.7-33.9,5.3c-5.1-1.6-10.9-6.6-11.9-12.2c-0.2-1.4-0.6-2.8-0.3-4.2c5.9-0.2,12.3-0.2,18.1,0
	c0.2,2.2,0.8,4.2,2.8,5.6c2.7,1.4,6.2,1.9,8.9,0.2c0.9-0.8,1.6-2,1.6-3.3c0-1.1-0.6-2.2-1.7-2.8c-7.3-2.7-16.1-2.3-22.8-6.4
	c-4.7-3.1-6.4-8.3-5.9-13.6C75.4,41,80.1,36,85.1,33.9c7.3-3.3,16.1-2.8,24.2-1.4C113.7,33.2,118,35.4,120.4,39.7"/>
<path class="st0" d="M174,41.4c1.9,3.1,3.1,6.7,3.4,10.5h-6.7h-10.9c-0.6-2.5-2-4.7-4.4-5.9c-2-0.9-4.8-0.6-6.7,0.3
	c-4.8,3.6-4.5,10-4.4,15.8c0.6,3.4,2.2,7.8,6.1,8.9c2.7,0.6,5.5,0.2,7-2.2c1.4-1.7,2.2-4.1,2.2-6.2h16.1h2.2
	c0.3,8.6-5.8,17-13.6,20.3c-9.4,3.9-22.3,3.3-30-3.9c-8.9-7.2-11.7-19.3-8.1-30c2.8-8.3,11.1-15.6,19.7-16.8
	C156.7,30,167.8,32.4,174,41.4"/>
<polygon class="st0" points="72.3,83.6 53.3,83.4 53.3,32.9 72.3,32.7 "/>
<path class="st0" d="M323.9,47.4c-1.6,0.2-3.1,0-5.6,0.6c-4.5,1.4-8,4.2-8.6,8l-0.6,3.4l-0.3,24h-18.6V32.9h18.6v6.4
	c2-2.7,4.7-5.1,8-6.2c1.9-0.8,5.1-0.9,7-0.8v15.1H323.9z"/>
<path class="st0" d="M269.5,67.5c-2,3.1-5.8,4.2-9.4,3.6c-3.1-0.6-5.9-3-7-5.9c-0.3-0.8-0.5-1.6-0.3-2.5h30h5.8
	c0.2-5.9-0.9-11.5-3.4-16.5c-4.4-9.7-14.4-15-24.5-15c-10.3-0.2-20,6.1-24.5,15.1c-3.9,8.6-2.8,20.3,2.8,27.9
	c6.4,8.9,16.7,11.5,27.1,10.6c9-1.2,19.3-7.6,21.8-17.2h-0.6h-17.8V67.5z M258.1,45.3L258.1,45.3c3.1-1.1,7-0.8,9.2,1.7
	c1.2,1.4,1.9,3.1,1.9,5c-5.9,0-9.5,0-16.1,0.2C253.1,49.4,255.5,46.4,258.1,45.3"/>
<polygon class="st0" points="72.3,26.6 72.3,13.2 53.3,13.2 53.3,26.8 "/>
<path class="st1" d="M398.4,76.4c-8.3-0.2-16.2-1.4-23.7-3.7c-7.5-2.3-14.5-5.8-21.2-10.3c-1.7-1.1-3.4-2.5-4.8-3.7l0,0l0,0l0,0l0,0
	l0,0l0,0c14.2-11.2,30.6-17.5,49-18.1c0.5,0,1.1,0,1.6,0c7.8,0,15.4,1.1,22.8,3.3c7.3,2.2,14.7,5.6,21.5,10
	c4.8-3.3,10.3-7.2,15.1-12.3h0.2c0,1.7,0,3.4,0,5.1c0,1.6,0,3.3,0,5l0,0l0,0c-2.8,2.5-5.8,4.8-8.6,6.7c2.8,2,5.8,4.2,8.7,6.9l0,0
	l0,0c0,3.4,0,6.6,0.2,9.8v0.3l0,0l0,0c-4.1-4.2-8.9-8.1-15.3-12.3C429.6,71.9,414.4,76.4,398.4,76.4"/>
<path class="st0" d="M456.1,65.9L456.1,65.9L456.1,65.9c-3.1-2.8-6.7-5.5-10.1-7.6l0.3-0.3c3.3-2.2,6.7-4.5,9.7-7.3l0,0l0,0v-3.1
	v-0.3l0,0l0,0c-4.7,4.1-8.7,7-12.5,9.2c-8.3-5.6-17.5-9.7-27.5-11.9c-6.7-1.6-14.2-2.2-21.7-1.6c-7.3,0.5-14.7,2-20.9,4.4
	c-7.8,2.8-14.5,6.4-20.4,11.1l0,0l0,0l0,0l0,0c11.4,8.6,24.8,13.7,39.5,15.1c2.2,0.2,4.4,0.3,6.4,0.3c0.8,0,1.4-0.2,2.2-0.2
	c2.2,0,4.2-0.2,6.4-0.5c1.2-0.2,2.7-0.3,3.9-0.5c1.9-0.3,3.7-0.6,5.8-1.1c0.8-0.2,1.6-0.3,2.3-0.5c8.6-2.3,16.5-6.1,23.9-11.2h0.2
	c4.2,2.7,9.2,6.6,12.6,9.4l0,0l0,0L456.1,65.9z M440.8,58.3c-16.8,11.9-40.4,16.1-61.3,10.3c-8-2-15.3-5.5-22.2-10.1
	c1.1-0.9,2.3-1.6,3.4-2.3c15.9-9.7,37.1-13.1,56.2-8.4C425.5,49.7,433.5,53.3,440.8,58.3L440.8,58.3z M443.3,59.8L443.3,59.8
	L443.3,59.8L443.3,59.8z"/>
<path d="M378.9,51.1c0.2,0.8-0.2,1.6-0.8,2c-0.5,0.3-0.9,0-1.4,0.2c-1.2,0.3-2.2,1.4-3,2.5c0,0.2,0.2,0.2,0.3,0.2h5.5
	c0.3,0.2,0.8,0,1.1,0.5c0,0.3,0.2,0.6,0,1.1c-0.5,0.8-0.8,1.6-1.1,2.3c0.3,0,0.5-0.2,0.8-0.3c3-1.6,5.9-3.3,8.9-4.8
	c0.8-0.2,2-0.5,2.5,0.2c0.3,0.6-0.5,0.9-0.3,1.4c0.5,1.6,0.8,3.6-0.5,4.8c-1.2,1.4-3.1,2.2-5,1.6c-0.2-0.2-0.5-0.3-0.6-0.5
	c-0.5-0.8-0.2-1.7,0.5-2.3c0.2-0.2,0.5-0.3,0.6-0.2c0.5,0.5,1.1,0.6,1.9,0.5c0.3-0.2,0.6-0.6,0.6-0.9c0.2-0.5,0-0.9-0.3-1.4
	c-2.8,1.4-5.3,3.3-8.3,4.5c-1.2,0.5-3,0.6-3.9-0.3c-0.9-1.1,0.5-2.2,0.3-3.4l-0.2-0.2c-1.6,0-3.1-0.2-4.7,0
	c-0.9,1.2-1.4,2.8-2.5,3.9c-0.6,0.5-1.6,0.5-2.3,0.2c-0.2-0.2-0.5-0.3-0.5-0.5l0.2-0.5l1.6-3l-0.2-0.2c-0.6,0-1.2,0.2-1.7-0.2
	c-0.2-0.2-0.3-0.5-0.2-0.8c0.2-0.8,0.9-1.4,1.7-1.6h2c1.9-2.8,4.7-5.6,8.3-5.3C378.4,50.8,378.7,50.8,378.9,51.1"/>
<path d="M383.8,51.6c0.3,0.6,0.3,1.4,0,2c-0.5,0.8-1.2,1.1-2,1.1c-0.6-0.2-1.4-0.3-1.7-1.1c-0.3-0.8,0-1.4,0.5-2
	c0.6-0.6,1.6-0.9,2.5-0.8C383.4,51,383.5,51.3,383.8,51.6"/>
<path d="M434.4,55.5h-1.2c-1.2,0-2.3,0.6-3.3,1.4c-0.2-0.5-0.2-1.1-0.6-1.2c-0.2-0.2-0.5-0.2-0.8,0c-2.5,1.6-4.8,3.1-7.5,4.2
	c-0.8,0.3-1.6,0.8-2.5,0.5c-0.2-0.2-0.5-0.2-0.5-0.5c0.8-0.2,1.6-0.5,2.3-0.9c1.1-0.8,2.3-1.9,2-3.4c-0.2-0.5-0.8-0.9-1.2-1.1
	c-2-0.2-3.9,0.6-5.1,2.3c-0.5,0.9-1.1,2-2.2,2.5c-0.5,0.2-1.1,0.8-1.6,0.3c-0.5-0.9-0.5-2.2-0.8-3.3c-0.2-0.5-0.6-0.8-1.1-0.8
	c-1.6,0.2-3,1.2-4.2,2.2v-0.2c0.8-1.6,1.6-3.1,2.5-4.5c0.3-0.6,0.8-1.1,0.6-1.7l-0.2-0.3c-0.9-0.3-2.2-0.2-2.7,0.5
	c-0.8,0.9-1.2,2-1.7,3.1c-1.4,2-3.4,3.4-5.6,4.5c-0.9,0.3-1.9,0.9-3.1,0.9c-0.3-0.2-0.5-0.6-0.3-0.9c0.3-0.8,1.1-1.1,1.9-1.2
	c0.6,0,1.4,0.2,1.9-0.5c0.3-0.5,0.8-1.9,0.5-2c-2.2-0.6-4.4,0.2-5.9,1.7c-0.9,0.9-1.6,2.2-1.1,3.6c0.3,0.9,1.4,1.6,2.3,1.9
	c2.5,0.3,4.7-0.8,6.7-2.3l0,0c-0.2,0.5-0.3,0.8-0.3,1.1c-0.2,0.2-0.2,0.6,0.2,0.8c1.7,0.9,3.3-0.8,4.5-1.6c0.9-0.6,1.7-1.4,2.8-1.7
	c0.2,0,0.3,0.2,0.3,0.3c0.2,1.1,0.2,2.3,0.9,3.1c1.6,0.9,3.3-0.3,4.7-1.1c0.2,0,0.3-0.2,0.5-0.2c0.9,1.6,2.8,1.9,4.4,1.4
	c2.3-0.6,4.5-1.7,6.6-3l0,0c-0.3,0.8-1.2,1.7-0.6,2.7c0.8,0.3,1.9,0.2,2.5-0.3c0.8-1.6,1.9-3.3,3.7-3.7c0.8-0.5,2.2,0.2,2.8-0.8
	C434.7,56.9,434.7,55.6,434.4,55.5z M419.3,56.6c0.2,0,0.3-0.2,0.5,0c-0.3,0.6-0.9,1.2-1.6,1.4C418.3,57.3,418.8,56.9,419.3,56.6z"
	/>
<path d="M476.7,31.1c-3.9,0-7.2,3.3-7.2,7.3c0,3.9,3.1,7.2,7.2,7.2c3,0,5.5-1.6,6.7-4.2c0.5-1.4,0.6-2.5,0.6-3
	C484,34.4,480.7,31.1,476.7,31.1z M476.7,44.6c-3.3,0-6.1-2.7-6.1-6.1c0-3.4,2.8-6.2,6.1-6.1c3.3,0,6.1,2.7,6.1,6.1
	C482.8,41.7,480.1,44.6,476.7,44.6z"/>
<path d="M480.1,37.7c0.3-0.5,0.3-0.8,0.3-1.1c0-0.6-0.3-1.1-0.5-1.2c-0.8-1.1-2.2-0.9-2.5-0.9v-0.2h-3.3v8h1.1v-3.4h1.7l2.2,3.6h1.4
	l-2.5-3.7C478.4,38.6,479.5,38.6,480.1,37.7z M475.1,37.8v-2.5h2.5c0.2,0,0.9,0,1.4,0.6c0.2,0.3,0.2,0.6,0.2,0.8
	c0,0.3,0,0.5-0.2,0.6c-0.5,0.5-1.2,0.5-1.4,0.5H475.1z"/>
</svg>
