<?xml version="1.0" encoding="utf-8"?>
<!-- Generator: Adobe Illustrator 19.1.0, SVG Export Plug-In . SVG Version: 6.00 Build 0)  -->
<svg version="1.1" id="Calque_1" xmlns="http://www.w3.org/2000/svg" xmlns:xlink="http://www.w3.org/1999/xlink" x="0px" y="0px"
	 viewBox="0 0 500 500" style="enable-background:new 0 0 500 500;" xml:space="preserve">
<style type="text/css">
	.st0{fill:#EF830A;}
</style>
<g>
	<rect x="91.8" y="224.8" class="st0" width="12.2" height="50.3"/>
	<path class="st0" d="M374,275.2l14.8,0L368.8,254c7.1-0.6,16.8-3.4,16.8-14.5c0-13-13.4-14.7-20.2-14.7h-39.7
		c-3.1,0-5.7,2.5-5.7,5.7v44.7h12.2v-21h21.8L374,275.2 M332.4,233.1h32.2c4.2,0,8.9,1.3,8.9,6.4c0,5.1-4.6,6.4-8.9,6.4h-32.2V233.1
		z"/>
	<path class="st0" d="M287.2,230.5c-3-4.2-5.1-6.2-9.7-6.2c-4.6,0-6.7,2-9.7,6.2c-2.3,3.2-19,27.5-26.8,38.9l-24.5-26l27.7-18.4
		h-16.8l-37.8,25.1v-25.2h-12.2v50.3h12.2v-14l17.2-11.4l23.9,25.4l20.1,0l7.4-10.9h38.5l7.4,10.9H318
		C318,275.2,290.2,234.6,287.2,230.5 M263.9,256l13.6-19.8L291,256H263.9z"/>
	<path class="st0" d="M30.7,224.8c-3.1,0-5.7,2.5-5.7,5.7v44.7h12.2v-21h48.4v-8.3H37.2v-12.7h48.4v-8.3L30.7,224.8"/>
	<path class="st0" d="M435.8,246.1l-25.1-2.1c-7.3-0.6-9.4-1.9-9.4-4.7c0-6.8,14.6-7.3,20.2-7.3c8.1,0,18.8,2,26.1,5.2l3-8.5
		c-8.1-3.4-20-4.8-28.9-4.8c-11.1,0-32.8,2-32.8,16.7c0,7.3,6.1,11.5,18.1,12.5l25.1,2.1c7.3,0.6,10.1,2.4,10.1,5.6
		c0,6.8-14.8,7.3-21.1,7.3c-10.9,0-22.3-3.2-29.6-7.5l-2.9,8.9c8.3,4.1,21.2,6.7,33.2,6.7c11.1,0,32.8-2,32.8-16.7
		C454.6,250.5,446.6,247,435.8,246.1"/>
	<path class="st0" d="M155.3,246.1l-25.1-2.1c-7.3-0.6-9.3-1.9-9.3-4.7c0-6.8,14.6-7.3,20.2-7.3c8.1,0,18.8,2,26.1,5.2l3-8.5
		c-8.1-3.4-20-4.8-28.9-4.8c-11.1,0-32.8,2-32.8,16.7c0,7.3,6.1,11.5,18.1,12.5l25.1,2.1c7.3,0.6,10.1,2.4,10.1,5.6
		c0,6.8-14.8,7.3-21.1,7.3c-10.9,0-22.3-3.2-29.6-7.5l-2.9,8.9c8.3,4.1,21.2,6.7,33.2,6.7c11.1,0,32.8-2,32.8-16.7
		C174.2,250.5,166.2,247,155.3,246.1"/>
	<path class="st0" d="M465.4,223.8c-5.3,0-9.6,4.3-9.6,9.6s4.3,9.6,9.6,9.6c5.3,0,9.6-4.3,9.6-9.6S470.7,223.8,465.4,223.8
		 M465.4,241.6c-4.5,0-8.2-3.7-8.2-8.2c0-4.5,3.7-8.2,8.2-8.2c4.5,0,8.2,3.7,8.2,8.2C473.6,238,469.9,241.6,465.4,241.6"/>
	<path class="st0" d="M468.3,238.2h2.9l-3.9-4.1c1.4-0.1,3.3-0.7,3.3-2.8c0-2.5-2.6-2.9-3.9-2.9h-5.1c-0.6,0-1.1,0.5-1.1,1.1v8.7
		h2.4v-4.1h1.7L468.3,238.2 M462.8,230h3.6c0.8,0,1.7,0.2,1.7,1.2c0,1-0.9,1.2-1.7,1.2h-3.6V230z"/>
</g>
</svg>
