<?xml version="1.0" encoding="utf-8"?>
<!-- Generator: Adobe Illustrator 21.0.2, SVG Export Plug-In . SVG Version: 6.00 Build 0)  -->
<svg version="1.1" id="Calque_1" xmlns="http://www.w3.org/2000/svg" xmlns:xlink="http://www.w3.org/1999/xlink" x="0px" y="0px"
	 viewBox="0 0 500 108" style="enable-background:new 0 0 500 108;" xml:space="preserve">
<style type="text/css">
	.st0{fill:#EF830A;}
</style>
<rect x="91.8" y="28.8" class="st0" width="12.2" height="50.3"/>
<path class="st0" d="M374,79.2h14.8l-20-21.2c7.1-0.6,16.8-3.4,16.8-14.5c0-13-13.4-14.7-20.2-14.7h-39.7c-3.1,0-5.7,2.5-5.7,5.7
	v44.7h12.2v-21H354L374,79.2 M332.4,37.1h32.2c4.2,0,8.9,1.3,8.9,6.4c0,5.1-4.6,6.4-8.9,6.4h-32.2V37.1z"/>
<path class="st0" d="M287.2,34.5c-3-4.2-5.1-6.2-9.7-6.2s-6.7,2-9.7,6.2c-2.3,3.2-19,27.5-26.8,38.9l-24.5-26L244.2,29h-16.8
	l-37.8,25.1V28.9h-12.2v50.3h12.2v-14l17.2-11.4l23.9,25.4h20.1l7.4-10.9h38.5l7.4,10.9H318C318,79.2,290.2,38.6,287.2,34.5
	 M263.9,60l13.6-19.8L291,60H263.9z"/>
<path class="st0" d="M30.7,28.8c-3.1,0-5.7,2.5-5.7,5.7v44.7h12.2v-21h48.4v-8.3H37.2V37.2h48.4v-8.3L30.7,28.8"/>
<path class="st0" d="M435.8,50.1L410.7,48c-7.3-0.6-9.4-1.9-9.4-4.7c0-6.8,14.6-7.3,20.2-7.3c8.1,0,18.8,2,26.1,5.2l3-8.5
	c-8.1-3.4-20-4.8-28.9-4.8c-11.1,0-32.8,2-32.8,16.7c0,7.3,6.1,11.5,18.1,12.5l25.1,2.1c7.3,0.6,10.1,2.4,10.1,5.6
	c0,6.8-14.8,7.3-21.1,7.3c-10.9,0-22.3-3.2-29.6-7.5l-2.9,8.9c8.3,4.1,21.2,6.7,33.2,6.7c11.1,0,32.8-2,32.8-16.7
	C454.6,54.5,446.6,51,435.8,50.1"/>
<path class="st0" d="M155.3,50.1L130.2,48c-7.3-0.6-9.3-1.9-9.3-4.7c0-6.8,14.6-7.3,20.2-7.3c8.1,0,18.8,2,26.1,5.2l3-8.5
	c-8.1-3.4-20-4.8-28.9-4.8c-11.1,0-32.8,2-32.8,16.7c0,7.3,6.1,11.5,18.1,12.5l25.1,2.1c7.3,0.6,10.1,2.4,10.1,5.6
	c0,6.8-14.8,7.3-21.1,7.3c-10.9,0-22.3-3.2-29.6-7.5l-2.9,8.9c8.3,4.1,21.2,6.7,33.2,6.7c11.1,0,32.8-2,32.8-16.7
	C174.2,54.5,166.2,51,155.3,50.1"/>
<path class="st0" d="M465.4,27.8c-5.3,0-9.6,4.3-9.6,9.6s4.3,9.6,9.6,9.6c5.3,0,9.6-4.3,9.6-9.6S470.7,27.8,465.4,27.8 M465.4,45.6
	c-4.5,0-8.2-3.7-8.2-8.2s3.7-8.2,8.2-8.2s8.2,3.7,8.2,8.2C473.6,42,469.9,45.6,465.4,45.6"/>
<path class="st0" d="M468.3,42.2h2.9l-3.9-4.1c1.4-0.1,3.3-0.7,3.3-2.8c0-2.5-2.6-2.9-3.9-2.9h-5.1c-0.6,0-1.1,0.5-1.1,1.1v8.7h2.4
	v-4.1h1.7L468.3,42.2 M462.8,34h3.6c0.8,0,1.7,0.2,1.7,1.2s-0.9,1.2-1.7,1.2h-3.6V34z"/>
</svg>
