<?xml version="1.0" encoding="utf-8"?>
<!-- Generator: Adobe Illustrator 16.0.0, SVG Export Plug-In . SVG Version: 6.00 Build 0)  -->
<!DOCTYPE svg PUBLIC "-//W3C//DTD SVG 1.1//EN" "http://www.w3.org/Graphics/SVG/1.1/DTD/svg11.dtd">
<svg version="1.1" id="Calque_1" xmlns="http://www.w3.org/2000/svg" xmlns:xlink="http://www.w3.org/1999/xlink" x="0px" y="0px"
	 width="500px" height="500px" viewBox="0 0 500 500" enable-background="new 0 0 500 500" xml:space="preserve">
<g>
	<rect x="91.833" y="224.829" fill="#EF830A" width="12.19" height="50.344"/>
	<path fill="#EF830A" d="M373.977,275.184l14.758-0.011l-19.919-21.162c7.067-0.579,16.83-3.387,16.83-14.52
		c0-13.039-13.391-14.662-20.158-14.662h-39.652c-3.135,0-5.672,2.537-5.672,5.666v44.678h12.188v-21.021h21.82L373.977,275.184
		 M332.352,233.127h32.208c4.242,0,8.893,1.252,8.893,6.364c0,5.106-4.65,6.361-8.893,6.361h-32.208V233.127z"/>
	<path fill="#EF830A" d="M287.164,230.498c-3.027-4.152-5.149-6.17-9.722-6.17c-4.577,0-6.664,2.019-9.692,6.17
		c-2.315,3.165-19.04,27.5-26.836,38.866l-24.483-26.009l27.726-18.416h-16.812l-37.809,25.113v-25.222h-12.191v50.344h12.191
		v-13.955l17.232-11.445l23.918,25.411l20.083-0.011l7.431-10.867h38.484l7.431,10.867h13.874
		C317.989,275.173,290.189,234.646,287.164,230.498 M263.879,256.007l13.563-19.824l13.563,19.824H263.879z"/>
	<path fill="#EF830A" d="M30.666,224.829c-3.132,0-5.666,2.537-5.666,5.668v44.675h12.186v-21.021h48.417v-8.3H37.186v-12.726
		h48.417v-8.298H30.666"/>
	<path fill="#EF830A" d="M435.768,246.128l-25.146-2.123c-7.318-0.614-9.351-1.95-9.351-4.706c0-6.798,14.577-7.349,20.219-7.349
		c8.053,0,18.762,1.986,26.149,5.169l3.022-8.541c-8.091-3.391-20.045-4.769-28.916-4.769c-11.141,0-32.772,2.019-32.772,16.681
		c0,7.278,6.095,11.46,18.075,12.471l25.148,2.122c7.321,0.611,10.096,2.406,10.096,5.62c0,6.792-14.799,7.343-21.108,7.343
		c-10.87,0-22.265-3.235-29.619-7.496l-2.938,8.931c8.295,4.108,21.159,6.705,33.198,6.705c11.138,0,32.77-2.019,32.77-16.678
		C454.596,250.455,446.613,247.042,435.768,246.128"/>
	<path fill="#EF830A" d="M155.337,246.125l-25.148-2.12c-7.316-0.614-9.346-1.95-9.346-4.706c0-6.798,14.572-7.349,20.219-7.349
		c8.05,0,18.754,1.983,26.146,5.169l3.017-8.543c-8.085-3.391-20.036-4.766-28.913-4.766c-11.138,0-32.772,2.019-32.772,16.678
		c0,7.281,6.094,11.462,18.078,12.473l25.148,2.117c7.316,0.616,10.093,2.416,10.093,5.625c0,6.792-14.799,7.343-21.105,7.343
		c-10.874,0-22.271-3.235-29.625-7.502l-2.936,8.937c8.301,4.108,21.16,6.705,33.201,6.705c11.129,0,32.767-2.019,32.767-16.678
		C174.163,250.452,166.184,247.042,155.337,246.125"/>
	<path fill="#EF830A" d="M465.365,223.812c-5.322,0-9.635,4.313-9.635,9.635s4.313,9.638,9.635,9.638
		c5.319,0,9.635-4.315,9.635-9.638S470.685,223.812,465.365,223.812 M465.365,241.646c-4.534,0-8.205-3.669-8.205-8.2
		c0-4.528,3.671-8.203,8.205-8.203c4.528,0,8.197,3.674,8.197,8.203C473.563,237.978,469.894,241.646,465.365,241.646"/>
	<path fill="#EF830A" d="M468.273,238.179h2.864l-3.863-4.111c1.375-0.115,3.269-0.66,3.269-2.821c0-2.534-2.603-2.856-3.923-2.856
		h-5.058c-0.605,0-1.102,0.497-1.102,1.107v8.68h2.373v-4.089h1.737L468.273,238.179 M462.834,230.006h3.605
		c0.83,0,1.729,0.249,1.729,1.241c0,0.99-0.899,1.23-1.729,1.23h-3.605V230.006z"/>
</g>
</svg>
