<?xml version="1.0" encoding="utf-8"?>
<!-- Generator: Adobe Illustrator 15.0.0, SVG Export Plug-In . SVG Version: 6.00 Build 0)  -->
<!DOCTYPE svg PUBLIC "-//W3C//DTD SVG 1.1//EN" "http://www.w3.org/Graphics/SVG/1.1/DTD/svg11.dtd">
<svg version="1.1" id="Calque_1" xmlns="http://www.w3.org/2000/svg" xmlns:xlink="http://www.w3.org/1999/xlink" x="0px" y="0px"
	 width="500px" height="500px" viewBox="0 0 500 500" enable-background="new 0 0 500 500" xml:space="preserve">
<path d="M58.229,198.236h53.99l-2.216,11.208H69.276l-6.941,35.835H99.9l-2.205,11.051H60.118l-8.994,48.303H38.023L58.229,198.236z
	"/>
<path d="M144.574,198.236l-20.205,106.396h-13.107l20.206-106.396H144.574z"/>
<path d="M202.974,304.633l-10.103-26.359c-2.841-7.104-5.051-13.106-6.79-18.631h-0.315c-3.313,5.052-7.104,10.896-12.471,18.311
	l-19.098,26.68h-15.632l41.519-54.142l-19.891-52.254h13.737l10.103,27.31c2.21,6.311,3.943,11.205,5.366,16.099h0.315
	c3.471-5.209,7.104-10.733,10.89-16.099l20.363-27.31h15.626l-41.041,52.097l21.314,54.299H202.974z"/>
<path d="M270.687,209.602h-31.093l2.211-11.366h75.453l-2.211,11.366h-31.253l-18.001,95.031h-13.101L270.687,209.602z"/>
<path d="M321.83,271.012l-16.893,33.621h-13.894l55.092-106.396h15.312l14.839,106.396h-13.415l-4.422-33.621H321.83z
	 M357.504,260.594l-4.105-30.789c-0.631-5.524-1.424-13.416-1.896-19.573h-0.314c-2.841,6.314-5.524,12.946-8.68,19.415
	l-15.947,30.947H357.504z"/>
<path d="M409.75,199.657c6.627-1.263,14.204-2.21,22.889-2.21c10.891,0,18.94,2.21,24.47,7.262
	c5.051,4.104,7.734,9.627,7.734,16.574c0,13.574-10.896,23.519-22.889,26.683v0.315c9.467,2.841,17.359,10.89,17.359,23.676
	c0,10.891-5.682,19.575-12.629,24.784c-8.521,6.312-20.205,8.68-34.566,8.68c-9.157,0-17.05-0.63-21.943-1.575L409.75,199.657z
	 M404.857,294.215c3.313,0.473,7.104,0.63,10.732,0.63c15.47,0,29.993-6.469,29.993-23.519c0-12.471-10.575-17.994-22.416-17.994
	h-10.732L404.857,294.215z M414.487,243.384h9.788c15.312,0,26.989-7.893,26.989-20.841c0-10.257-7.734-14.679-19.255-14.679
	c-4.894,0-8.843,0.318-10.896,0.948L414.487,243.384z"/>
</svg>
