<?xml version="1.0" encoding="utf-8"?>
<!-- Generator: Adobe Illustrator 21.0.2, SVG Export Plug-In . SVG Version: 6.00 Build 0)  -->
<svg version="1.1" id="Calque_1" xmlns="http://www.w3.org/2000/svg" xmlns:xlink="http://www.w3.org/1999/xlink" x="0px" y="0px"
	 viewBox="0 0 500 158" style="enable-background:new 0 0 500 158;" xml:space="preserve">
<path d="M58.2,27.2h54L110,38.4H69.3l-6.9,35.8H100l-2.2,11.1H60.2l-9,48.3H38L58.2,27.2z"/>
<path d="M144.6,27.2l-20.2,106.4h-13.1l20.2-106.4H144.6z"/>
<path d="M203,133.6l-10.1-26.4c-2.8-7.1-5.1-13.1-6.8-18.6h-0.3c-3.3,5.1-7.1,10.9-12.5,18.3l-19.1,26.7h-15.6l41.5-54.1l-19.9-52.3
	h13.7L184,54.5c2.2,6.3,3.9,11.2,5.4,16.1h0.3c3.5-5.2,7.1-10.7,10.9-16.1L221,27.2h15.6l-41,52.1l21.3,54.3H203L203,133.6z"/>
<path d="M270.7,38.6h-31.1l2.2-11.4h75.5l-2.2,11.4h-31.3l-18,95h-13.1L270.7,38.6z"/>
<path d="M321.8,100l-16.9,33.6H291l55.1-106.4h15.3l14.8,106.4h-13.3l-4.4-33.6H321.8z M357.5,89.6l-4.1-30.8
	c-0.6-5.5-1.4-13.4-1.9-19.6h-0.3c-2.8,6.3-5.5,12.9-8.7,19.4l-15.9,30.9h30.9V89.6z"/>
<path d="M409.8,28.6c6.6-1.3,14.2-2.2,22.9-2.2c10.9,0,18.9,2.2,24.5,7.3c5.1,4.1,7.7,9.6,7.7,16.6c0,13.6-10.9,23.5-22.9,26.7v0.3
	c9.5,2.8,17.4,10.9,17.4,23.7c0,10.9-5.7,19.6-12.6,24.8c-8.5,6.3-20.2,8.7-34.6,8.7c-9.2,0-17-0.6-21.9-1.6L409.8,28.6z
	 M404.9,123.2c3.3,0.5,7.1,0.6,10.7,0.6c15.5,0,30-6.5,30-23.5c0-12.5-10.6-18-22.4-18h-10.8L404.9,123.2z M414.5,72.4h9.8
	c15.3,0,27-7.9,27-20.8c0-10.3-7.7-14.7-19.3-14.7c-4.9,0-8.8,0.3-10.9,0.9L414.5,72.4z"/>
</svg>
