<?xml version="1.0" encoding="utf-8"?>
<!-- Generator: Adobe Illustrator 19.1.0, SVG Export Plug-In . SVG Version: 6.00 Build 0)  -->
<svg version="1.1" id="Calque_2" xmlns="http://www.w3.org/2000/svg" xmlns:xlink="http://www.w3.org/1999/xlink" x="0px" y="0px"
	 viewBox="0 0 500 500" style="enable-background:new 0 0 500 500;" xml:space="preserve">
<style type="text/css">
	.st0{fill:#E2001A;}
</style>
<g>
	<path class="st0" d="M162.3,215.4h43.9v13.9h-26v11.3h22.2v13h-22.2v26.3h-17.8V215.4z"/>
	<path class="st0" d="M215.9,215.4h16v64.5h-16V215.4z"/>
	<path class="st0" d="M256.5,248.3l-15.2-1.8c0.6-3,1.4-5.3,2.5-7.1c1.1-1.7,2.6-3.2,4.7-4.5c1.5-0.9,3.5-1.6,6-2.1
		c2.6-0.5,5.3-0.7,8.3-0.7c4.8,0,8.6,0.3,11.5,0.9c2.9,0.6,5.3,1.9,7.2,3.8c1.4,1.3,2.4,3.2,3.2,5.6c0.8,2.4,1.2,4.7,1.2,6.9v20.6
		c0,2.2,0.1,3.9,0.4,5.2c0.2,1.2,0.8,2.8,1.6,4.8h-15c-0.6-1.2-1-2.1-1.2-2.7c-0.2-0.6-0.4-1.6-0.5-3c-2.1,2.3-4.2,3.9-6.2,4.8
		c-2.8,1.3-6.1,1.9-9.8,1.9c-5,0-8.7-1.3-11.3-3.9c-2.6-2.6-3.9-5.8-3.9-9.5c0-3.5,0.9-6.5,2.8-8.8c1.9-2.3,5.3-4,10.3-5.1
		c6-1.3,9.9-2.3,11.6-2.8c1.8-0.5,3.7-1.3,5.6-2.1c0-2.2-0.4-3.7-1.2-4.6c-0.8-0.9-2.2-1.3-4.3-1.3c-2.6,0-4.6,0.5-5.9,1.4
		C258,244.9,257.2,246.3,256.5,248.3z M270.4,257.7c-2.2,0.9-4.5,1.7-6.9,2.3c-3.2,1-5.3,1.9-6.1,2.9c-0.9,1-1.3,2.1-1.3,3.3
		c0,1.4,0.4,2.6,1.3,3.5c0.9,0.9,2.2,1.3,3.9,1.3c1.8,0,3.4-0.5,5-1.5c1.5-1,2.6-2.1,3.2-3.5c0.6-1.4,1-3.2,1-5.4L270.4,257.7
		L270.4,257.7z"/>
	<path class="st0" d="M295.6,233.2h14.9v6.8c2.1-2.8,4.3-4.9,6.5-6.1c2.2-1.2,4.8-1.8,7.9-1.8c3.3,0,5.9,0.7,7.9,2
		c1.9,1.3,3.5,3.3,4.7,5.9c2.5-3,4.8-5.1,6.8-6.2c2.1-1.1,4.6-1.6,7.6-1.6c4.5,0,7.9,1.5,10.4,4.5c2.5,3,3.8,7.6,3.8,14v29.3h-16
		v-26.6c0-2.1-0.4-3.7-1.1-4.7c-1.1-1.6-2.4-2.4-4-2.4c-1.9,0-3.4,0.8-4.5,2.3c-1.1,1.5-1.7,4-1.7,7.3v24.1h-16v-25.7
		c0-2.1-0.1-3.4-0.3-4.2c-0.3-1.2-0.9-2.1-1.8-2.8c-0.8-0.7-1.8-1.1-2.9-1.1c-1.8,0-3.3,0.8-4.5,2.3s-1.8,4.1-1.8,7.7v23.8h-16
		L295.6,233.2L295.6,233.2z"/>
	<path class="st0" d="M427.2,256.7c0-7.1,2.1-13,6.4-17.6c4.3-4.6,10.1-6.9,17.3-6.9c8.3,0,14.6,2.7,18.9,8.1
		c3.4,4.4,5.1,9.8,5.1,16.1c0,7.2-2.1,13.1-6.4,17.7c-4.2,4.6-10.1,6.9-17.6,6.9c-6.7,0-12.1-1.9-16.2-5.7
		C429.8,270.5,427.2,264.3,427.2,256.7z M443.2,256.6c0,4.2,0.8,7.2,2.3,9.2c1.5,2,3.4,3,5.7,3c2.3,0,4.2-1,5.7-2.9
		c1.5-2,2.2-5.1,2.2-9.5c0-4-0.7-7.1-2.2-9s-3.3-3-5.5-3c-2.3,0-4.2,1-5.8,3C444,249.5,443.2,252.5,443.2,256.6z"/>
	<path class="st0" d="M404.9,261.8c-0.4,1.7-0.9,3.1-1.7,4.1c-1.5,2-3.4,2.9-5.7,2.9c-2.3,0-4.2-1-5.7-3c-1.5-2-2.2-5.1-2.2-9.2
		c0-4.1,0.8-7.2,2.3-9.2c1.5-2,3.4-3,5.8-3c2.2,0,4,1,5.5,3c0.7,0.9,1.2,2,1.5,3.3h16.2c-0.7-3.9-2.3-7.4-4.6-10.4
		c-4.3-5.4-10.5-8.1-18.9-8.1c-7.3,0-13.1,2.3-17.3,6.9c-4.3,4.6-6.4,10.5-6.4,17.6c0,7.7,2.5,13.8,7.6,18.6
		c4.1,3.8,9.5,5.7,16.2,5.7c7.5,0,13.4-2.3,17.6-6.9c3.1-3.4,5.1-7.5,5.9-12.3L404.9,261.8L404.9,261.8z"/>
	<g>
		<g>
			
				<rect x="15.1" y="200.4" transform="matrix(-0.7071 0.7071 -0.7071 -0.7071 231.073 307.5443)" class="st0" width="73.5" height="2.4"/>
			
				<rect x="18.7" y="204" transform="matrix(-0.7071 0.7071 -0.7071 -0.7071 239.7438 311.1339)" class="st0" width="73.5" height="2.4"/>
			
				<rect x="22.3" y="207.6" transform="matrix(-0.7071 0.7071 -0.7071 -0.7071 248.4169 314.7249)" class="st0" width="73.5" height="2.4"/>
			
				<rect x="25.9" y="211.2" transform="matrix(-0.7071 0.7071 -0.7071 -0.7071 257.0885 318.3147)" class="st0" width="73.5" height="2.4"/>
			
				<rect x="29.5" y="214.8" transform="matrix(-0.7071 0.7071 -0.7071 -0.7071 265.7586 321.9059)" class="st0" width="73.5" height="2.4"/>
			
				<rect x="50.8" y="225.9" transform="matrix(0.7075 0.7067 -0.7067 0.7075 182.9955 32.7309)" class="st0" width="2.4" height="23"/>
			
				<rect x="87.5" y="190.7" transform="matrix(-0.7073 -0.7069 0.7069 -0.7073 9.5435 405.3501)" class="st0" width="2.4" height="20.1"/>
			
				<rect x="91.1" y="194.2" transform="matrix(-0.7072 -0.707 0.707 -0.7072 13.1092 414.011)" class="st0" width="2.4" height="20.1"/>
			
				<rect x="54.3" y="229.5" transform="matrix(0.7077 0.7065 -0.7065 0.7077 186.5257 31.2053)" class="st0" width="2.4" height="23"/>
			
				<rect x="57.9" y="233.1" transform="matrix(0.7076 0.7066 -0.7066 0.7076 190.1425 29.7355)" class="st0" width="2.4" height="23"/>
			
				<rect x="94.7" y="197.8" transform="matrix(-0.7074 -0.7068 0.7068 -0.7074 16.762 422.7024)" class="st0" width="2.4" height="20.1"/>
			
				<rect x="61.5" y="236.7" transform="matrix(0.7076 0.7066 -0.7066 0.7076 193.7309 28.2483)" class="st0" width="2.4" height="23"/>
			
				<rect x="98.3" y="201.4" transform="matrix(-0.7073 -0.7069 0.7069 -0.7073 20.325 431.362)" class="st0" width="2.4" height="20.1"/>
			
				<rect x="54.8" y="250.6" transform="matrix(-0.7071 0.7071 -0.7071 -0.7071 291.2683 382.9481)" class="st0" width="23" height="2.4"/>
			
				<rect x="101.9" y="205" transform="matrix(-0.7072 -0.707 0.707 -0.7072 23.8876 440.0214)" class="st0" width="2.4" height="20.1"/>
			
				<rect x="51" y="236.3" transform="matrix(-0.7071 0.7071 -0.7071 -0.7071 317.7869 343.4492)" class="st0" width="73.5" height="2.4"/>
			
				<rect x="54.6" y="239.9" transform="matrix(-0.7071 0.7071 -0.7071 -0.7071 326.4573 347.033)" class="st0" width="73.5" height="2.4"/>
			
				<rect x="58.2" y="243.5" transform="matrix(-0.7071 0.7071 -0.7071 -0.7071 335.1286 350.6324)" class="st0" width="73.5" height="2.4"/>
			
				<rect x="61.8" y="247.1" transform="matrix(-0.7071 0.7071 -0.7071 -0.7071 343.8007 354.2191)" class="st0" width="73.5" height="2.4"/>
			
				<rect x="65.4" y="250.7" transform="matrix(-0.7071 0.7071 -0.7071 -0.7071 352.4713 357.8086)" class="st0" width="73.5" height="2.4"/>
		</g>
		<polygon class="st0" points="77,219.7 63.7,232.9 93.2,262.5 93.2,262.5 101.9,271.4 78.6,294.7 55.5,271.7 62.7,264.5 
			47.4,249.2 25,271.7 78.6,325.2 130.5,273.2 		"/>
	</g>
</g>
</svg>
