<?xml version="1.0" encoding="utf-8"?>
<!-- Generator: Adobe Illustrator 21.0.2, SVG Export Plug-In . SVG Version: 6.00 Build 0)  -->
<svg version="1.1" id="Calque_1" xmlns="http://www.w3.org/2000/svg" xmlns:xlink="http://www.w3.org/1999/xlink" x="0px" y="0px"
	 viewBox="0 0 500 446" style="enable-background:new 0 0 500 446;" xml:space="preserve">
<style type="text/css">
	.st0{fill:#4D4D48;}
	.st1{fill:#0097AE;}
</style>
<rect x="25" y="374.5" width="450" height="55.7"/>
<path class="st0" d="M128.2,100.1H151V15.9h-24.8C70.6,15.9,25,61.4,25,117.1v257.4h80.7V232.1H151v-82.3h-45.4v-27.2
	C105.7,110.3,115.8,100.1,128.2,100.1z"/>
<path class="st1" d="M272,425.8c-55.7,0-116.1-34.5-116.1-106.9v-303h85.3v297.5c0,29.6,20.3,28.2,32.7,28.2L272,425.8z"/>
<path class="st0" d="M371.7,148.9v-0.6h-41.2v3.8v79h29.6l0,0h0.1c18.3,0,33.1,14.8,33.1,33.1s-14.8,33.1-33.1,33.1
	c-17.4,0-31.6-13.4-33-30.5h-0.4v-13.4h-0.2V153.2v-36.7V15.9h-81.3v249h0.1c1.9,60.9,52.5,109.6,114.8,109.6
	c63.4,0,114.9-50.6,114.9-113.1C475,202.8,429.7,154.6,371.7,148.9z"/>
</svg>
