<?xml version="1.0" encoding="utf-8"?>
<!-- Generator: Adobe Illustrator 19.1.0, SVG Export Plug-In . SVG Version: 6.00 Build 0)  -->
<svg version="1.1" id="Calque_2" xmlns="http://www.w3.org/2000/svg" xmlns:xlink="http://www.w3.org/1999/xlink" x="0px" y="0px"
	 viewBox="0 0 500 500" style="enable-background:new 0 0 500 500;" xml:space="preserve">
<style type="text/css">
	.st0{fill:#E2001A;}
	.st1{fill:#FFFFFF;}
</style>
<g>
	<path class="st0" d="M465.9,250c0,119.2-96.7,215.9-215.9,215.9S34.1,369.2,34.1,250c0-119.2,96.7-215.9,215.9-215.9
		C369.2,34.1,465.9,130.8,465.9,250z"/>
	<g>
		<g>
			<g>
				<path class="st1" d="M63.5,239.5c0.1-0.4,0.2-0.8,0.4-1.4l0.2-0.6l4,0c2.8,0,5.3-0.5,7.3-1.4c1.3-0.6,2.5-1.6,3.5-3
					c0.4-0.6,1.4-2.4,2.8-8.2l14.8-59.8c1.5-5.9,1.5-7.7,1.4-8.3c-0.2-0.9-0.8-1.5-1.8-2.1c-0.7-0.4-1.6-0.5-2.8-0.5
					c-0.7,0-1.5,0.1-2.4,0.2c0,0-2.1,0.3-3,0.4l-1.2,0.2l0.3-1.1c0.2-0.8,0.4-1.3,0.6-2.1l0.2-0.8l0.5-0.1
					c30.5-4.8,45.5-6.6,76.4-9.2l0.9-0.1l-4,29.7l-4.3,0.3l0-0.8c0.2-6.3-0.7-11-2.7-13.8c-2-2.8-5.3-4.6-9.8-5.4
					c-0.9-0.2-2.2-0.2-3.8-0.2c-2.7,0-6.3,0.2-10.7,0.7c-3.2,0.3-4.9,0.5-7.9,0.9l-7.6,37l1.8-0.1c4.2-0.3,7.7-1.1,10.6-2.4
					c2.8-1.4,5.4-3.6,7.7-6.6c2.3-3,4.2-7.1,5.5-12.2l0.1-0.5l3.9-0.3l-8.1,50l-4.1,0.1l0.1-0.8c0.5-8.8-0.9-14.6-4.2-17.1
					c-3.1-2.4-6.7-3.5-11.1-3.5c-0.5,0-0.9,0-1.4,0l-2.2,0.1c0,0-4,19.7-5.8,28.1c-1.2,5.8-1.2,7.9-1,8.6c0.3,1,1.1,1.9,2.5,2.7
					c1.4,0.8,3.4,1.2,6.1,1.2l4.5,0l-0.7,4.1l-0.6,0c-21.7,0-32.6,0.1-54.3,0.1l-1,0L63.5,239.5z"/>
				<path d="M164.7,142.5c-1.5,11.2-2.3,16.9-3.8,28.1c-1.1,0.1-1.7,0.1-2.9,0.2c0.2-6.5-0.7-11.3-2.9-14.3c-2.2-3-5.6-4.9-10.3-5.7
					c-1-0.2-2.3-0.3-4-0.3c-2.7,0-6.3,0.2-10.8,0.7c-3.4,0.4-5.1,0.6-8.5,0.9c-3.1,15.4-4.7,23.1-7.9,38.5c1.1-0.1,1.7-0.1,2.8-0.2
					c4.3-0.3,7.9-1.1,10.8-2.5c2.9-1.4,5.6-3.7,8-6.8c2.4-3.1,4.3-7.3,5.7-12.5c1-0.1,1.5-0.1,2.4-0.2c-3.1,19.4-4.7,29.1-7.8,48.5
					c-1,0-1.6,0-2.6,0.1c0.6-9.1-0.9-15-4.5-17.7c-3.2-2.4-7.1-3.6-11.6-3.6c-0.5,0-1,0-1.5,0c-1.1,0.1-1.7,0.1-2.8,0.2
					c-2.3,11.5-3.5,17.2-5.9,28.7c-1,4.8-1.3,7.8-1,9c0.3,1.2,1.3,2.2,2.8,3.1c1.5,0.9,3.7,1.3,6.5,1.3c0,0,0.1,0,0.1,0
					c1.4,0,2.1,0,3.4,0c-0.2,1-0.3,1.6-0.5,2.6c-21.7,0-32.6,0.1-54.3,0.1c0.3-1,0.4-1.5,0.7-2.4c1.4,0,2.1,0,3.4,0
					c3,0,5.6-0.5,7.6-1.4c1.4-0.6,2.7-1.7,3.8-3.2c0.8-1.1,1.8-3.9,2.9-8.5c5.9-23.9,8.9-35.9,14.8-59.8c1.1-4.6,1.6-7.5,1.4-8.6
					c-0.2-1.1-0.9-2-2.2-2.6c-0.8-0.4-1.9-0.6-3.2-0.6c-0.8,0-1.6,0.1-2.6,0.2c-1.2,0.2-1.8,0.3-3,0.4c0.3-1,0.4-1.5,0.7-2.4
					C118.7,146.9,134,145.1,164.7,142.5 M166.4,140.8l-1.9,0.2c-30.9,2.6-46,4.4-76.5,9.2l-1,0.2l-0.3,1l-0.1,0.3
					c-0.2,0.7-0.3,1.2-0.6,2.1l-0.6,2.3l2.3-0.4c0.9-0.1,1.5-0.2,2.2-0.3l0.8-0.1c0.9-0.1,1.6-0.2,2.3-0.2c1.1,0,1.9,0.2,2.5,0.4
					c1.3,0.6,1.4,1.3,1.4,1.6c0.1,0.3,0.1,1.8-1.4,8l-7.4,29.9l-7.4,29.9c-1.4,5.8-2.3,7.5-2.7,7.9c-1,1.3-2,2.2-3.2,2.7
					c-1.9,0.9-4.3,1.3-7,1.3l-1.7,0l-1.7,0l-1.1,0l-0.3,1.1c-0.2,0.6-0.3,1-0.4,1.4c-0.1,0.3-0.2,0.6-0.3,1l-0.5,1.9l2,0
					c21.7-0.1,32.6-0.1,54.3-0.1l1.3,0l0.2-1.2c0.1-0.5,0.2-0.9,0.2-1.3c0.1-0.4,0.1-0.8,0.2-1.3l0.3-1.8l-1.8,0c-0.7,0-1.2,0-1.7,0
					c-0.5,0-1,0-1.7,0h-0.1c-2.6,0-4.5-0.4-5.7-1.1c-1.2-0.7-1.9-1.4-2.1-2.2c-0.1-0.4-0.3-2.1,1-8.3c1.7-8.4,2.8-13.7,4.2-20.4
					l1.5-7.1l0.2,0l1.5-0.1c0.5,0,0.9,0,1.4,0c4.2,0,7.7,1.1,10.6,3.3c3.1,2.4,4.4,7.9,3.9,16.4l-0.1,1.7l1.7,0l1.4,0l1.2,0l1.3,0
					l0.2-1.2c1.6-9.9,2.8-17.3,4-24.8c1.1-7.1,2.3-14.2,3.8-23.7l0.3-1.9l-1.9,0.1l-0.7,0.1l-1.7,0.1l-1.1,0.1l-0.3,1
					c-1.4,5-3.2,9-5.4,12c-2.2,2.9-4.7,5.1-7.4,6.4c-2.7,1.3-6.2,2.1-10.3,2.4l-0.8,0l3.7-18.1l3.6-17.4c2.7-0.3,4.4-0.5,7.4-0.8
					c4.4-0.5,8-0.7,10.7-0.7c1.6,0,2.8,0.1,3.7,0.2c4.3,0.7,7.4,2.5,9.3,5.1c1.9,2.7,2.8,7.1,2.6,13.3l-0.1,1.7l1.7-0.1
					c0.6,0,1-0.1,1.4-0.1c0.4,0,0.9-0.1,1.4-0.1l1.3-0.1l0.2-1.2c0.7-5.6,1.3-9.8,1.9-14.1c0.6-4.2,1.1-8.4,1.9-14.1L166.4,140.8
					L166.4,140.8z"/>
			</g>
			<g>
				<path class="st1" d="M217.8,243.5c-19.1,0-33.3-6.2-42.3-18.5c-7-9.6-9.6-20.8-8-34.3c1.7-14.5,8-27.3,18.6-38
					c10-10.1,22-15.4,35.7-15.8c0.7,0,1.3,0,2,0c14,0,25.4,4.7,33.9,13.9c9.5,10.4,14.5,23.3,14.8,38.3c0.3,13.4-3.3,24.7-10.8,34.5
					C251.7,236.9,236.9,243.5,217.8,243.5z M223.1,143.2c-0.2,0-0.4,0-0.6,0c-8,0.2-14.4,5-19.5,14.4c-4.2,7.9-6.9,19-8.1,33.1
					c-1.4,17.2,0.5,29.4,6,37.4c3.7,5.5,9.4,8.3,16.9,8.3c5.1,0,9.4-1.2,12.9-3.6c4.4-3.1,7.9-8.2,10.4-15c2.5-6.8,3.8-16,4-27.3
					c0.2-13.2-0.8-23.3-3-29.9c-2.1-6.5-4.9-11.1-8.1-13.7C230.8,144.4,227.2,143.2,223.1,143.2z"/>
				<path d="M223.9,137.7c13.1,0,24.5,4.1,33.3,13.7c9.2,10.1,14.3,22.7,14.6,37.8c0.3,12.9-3.2,24.2-10.7,34
					c-9.9,13-24.6,19.5-43.3,19.5c-18.8,0-32.9-6.2-41.7-18.2c-6.9-9.5-9.4-20.7-7.9-33.7c1.7-14.7,8-27.1,18.4-37.5
					c10.3-10.4,22.4-15.2,35.2-15.6C222.6,137.7,223.2,137.7,223.9,137.7 M217.8,237.2C217.8,237.2,217.8,237.2,217.8,237.2
					c5.3,0,9.7-1.3,13.3-3.8c4.5-3.2,8.1-8.3,10.7-15.4c2.6-7,3.9-16.2,4-27.5c0.2-13.5-0.9-23.5-3-30.2c-2.2-6.7-5-11.3-8.4-14
					c-3.3-2.6-7-3.8-11.3-3.8c-0.2,0-0.4,0-0.7,0c-8.4,0.3-15,5.3-20.1,14.8c-4.2,7.8-7,19-8.2,33.4c-1.4,17.1,0.6,29.7,6.1,37.9
					C204.2,234.3,210,237.2,217.8,237.2 M223.9,136.2v1.5V136.2L223.9,136.2c-0.7,0-1.3,0-2,0c-13.9,0.4-26.1,5.8-36.3,16
					c-10.7,10.8-17.1,23.7-18.8,38.4c-1.6,13.7,1,25.1,8.1,34.8c9.1,12.5,23.5,18.8,42.9,18.8c19.3,0,34.3-6.8,44.5-20.1
					c7.6-10,11.2-21.5,11-35c-0.3-15.3-5.3-28.3-15-38.8C249.7,141,238.1,136.2,223.9,136.2L223.9,136.2z M217.8,237.2v-1.5
					c-7.2,0-12.7-2.7-16.3-7.9c-5.3-7.9-7.2-19.9-5.8-36.9c1.1-14,3.8-25,8-32.8c4.9-9.2,11.1-13.8,18.8-14c0.2,0,0.4,0,0.6,0
					c3.9,0,7.3,1.1,10.3,3.5c3.1,2.5,5.8,6.9,7.9,13.3c2.1,6.6,3.1,16.5,3,29.7c-0.2,11.2-1.5,20.3-3.9,27
					c-2.4,6.7-5.9,11.6-10.1,14.6c-3.3,2.3-7.4,3.5-12.4,3.5L217.8,237.2L217.8,237.2z"/>
			</g>
			<g>
				<path class="st1" d="M335.9,241.3c-21.7,0-32.6,0-54.4,0h-0.7l-0.1-4.3l4.2,0c2.8,0,5.1-0.5,6.8-1.5c1.1-0.6,1.9-1.7,2.5-3.2
					c0.3-0.6,0.6-2.6,0.3-9.1l-3.2-66.6c-0.3-6.3-0.8-8.6-1.2-9.5c-0.5-1.2-1.5-2.2-2.9-3.1c-1.4-0.9-3.4-1.4-5.8-1.5l-3.8-0.1
					l-0.1-4.3l0.8,0c19.2,0.4,28.5,0.8,47.6,2l0.6,0l0.4,4.2l-3.9-0.2c-0.3,0-0.7,0-1,0c-2,0-3.6,0.4-4.8,1.1
					c-0.9,0.6-1.7,1.6-2.2,3c-0.2,0.7-0.4,2.9,0.1,9l5.2,66c0.5,6.3,1.1,8.5,1.6,9.3c0.6,1.1,1.7,2.2,3.4,3.1
					c1.6,0.9,3.9,1.3,6.7,1.4l4.1,0l0.4,4.2L335.9,241.3z"/>
				<path d="M278.5,138.8c19.1,0.4,28.6,0.8,47.6,2c0.1,1.1,0.2,1.6,0.3,2.7c-1.2-0.1-1.8-0.1-3.1-0.2c-0.4,0-0.7,0-1,0
					c-2.2,0-3.9,0.4-5.2,1.2c-1.1,0.6-1.9,1.8-2.5,3.4c-0.4,1.2-0.4,4.3,0,9.3c2.1,26.4,3.1,39.6,5.2,66c0.4,5.1,1,8.4,1.6,9.6
					c0.7,1.3,1.9,2.4,3.7,3.4c1.8,1,4.1,1.4,7,1.4c1.4,0,2.1,0,3.5,0c0.1,1.1,0.2,1.6,0.3,2.7c-21.7,0-32.6,0-54.4,0
					c0-1.1,0-1.7-0.1-2.8c1.4,0,2.1,0,3.4,0c0,0,0,0,0,0c3,0,5.4-0.6,7.2-1.6c1.3-0.7,2.2-1.9,2.9-3.6c0.5-1.2,0.6-4.3,0.4-9.4
					c-1.3-26.7-1.9-40-3.2-66.6c-0.2-5.2-0.7-8.4-1.2-9.7c-0.6-1.3-1.6-2.5-3.2-3.5s-3.6-1.6-6.2-1.6c-1.2,0-1.8,0-3-0.1
					C278.5,140.5,278.5,139.9,278.5,138.8 M276.9,137.3l0.1,1.6l0.1,2.8l0,1.4l1.4,0c0.9,0,1.5,0,2.3,0l0.7,0
					c2.3,0.1,4.1,0.5,5.4,1.4c1.3,0.9,2.2,1.8,2.6,2.8c0.3,0.6,0.8,2.7,1.1,9.2c0.7,14.2,1.2,24.7,1.7,35.4l1.5,31.3
					c0.3,6.7-0.1,8.4-0.3,8.8c-0.5,1.3-1.3,2.3-2.2,2.8c-1.6,0.9-3.8,1.4-6.4,1.4l-1.7,0l-1.7,0h-1.6l0,1.6c0,0.5,0,0.9,0,1.3
					c0,0.4,0,0.9,0,1.4l0,1.5h1.5c21.7,0,32.6,0,54.4,0l1.7,0l-0.2-1.7l-0.1-1.4l-0.1-1.3l-0.1-1.4l-1.4,0l-1.7,0l-1.7,0
					c-2.7,0-4.8-0.4-6.3-1.3c-1.5-0.8-2.5-1.7-3.1-2.8c-0.3-0.6-1-2.6-1.5-9c-1-13.2-1.8-23.1-2.6-33c-0.8-9.9-1.6-19.9-2.6-33.1
					c-0.5-6.6-0.2-8.3-0.1-8.7c0.4-1.2,1.1-2.1,1.8-2.6c1.1-0.7,2.6-1,4.5-1c0.3,0,0.6,0,0.9,0l1.2,0.1c0.6,0,1.1,0.1,1.9,0.1
					l1.8,0.1l-0.2-1.8l-0.1-1.4l-0.1-1.4l-0.1-1.3l-1.3-0.1c-19.2-1.2-28.5-1.6-47.7-2L276.9,137.3L276.9,137.3z"/>
			</g>
			<g>
				<path class="st1" d="M433.1,243.5l-0.2-0.2c-35.2-30-51.2-46.6-79.9-79.7l8,59.7c0.7,5.4,2.5,9.1,5.3,10.9
					c2.8,1.9,6,2.8,9.4,2.9l3.1,0l0.7,4.2l-0.9,0c-11.9,0-19,0-29,0l-8.6,0l-0.1-0.7c-0.1-0.5-0.1-0.9-0.1-1.3
					c0-0.4-0.1-0.8-0.2-1.4l-0.1-0.8l0.8,0c5.5,0,9.1-1.1,11-3.1c1.8-2,2.4-5.5,1.7-10.5c-2.1-16.5-3.6-28.1-5.1-40.6l-3.6-28.6
					c-0.8-1-1.3-1.5-2.2-2.6c-2.2-2.7-4.1-4.5-5.6-5.4c-1.5-0.9-3.6-1.4-6.2-1.7l-0.6-0.1l-0.1-0.6c-0.1-0.5-0.1-0.9-0.2-1.3
					c0-0.4-0.1-0.8-0.2-1.4l-0.1-0.9l0.9,0.1c13,0.9,19.3,1.4,32.2,2.7l0.3,0l0.2,0.2c20.8,24.7,32.1,37.2,56.3,60.3l-8.8-36.8
					c-1.3-5.3-2.9-9.1-4.8-11.1c-2.6-2.8-6.4-4.4-11.2-5l-0.5-0.1l-0.1-0.5c-0.2-0.9-0.3-1.4-0.5-2.2l-0.3-1.4l1.1,0.1
					c12,1.5,17.9,2.4,29.9,4.3l0.5,0.1l0.8,2.9l0.3,1l-1,0c-0.5,0-1,0-1.4,0c-3.4,0-4.8,0.4-5.4,0.7c-0.9,0.5-1.5,1.4-1.8,2.8
					c-0.3,1.6,0.1,4.5,1.1,8.6c3.9,15.9,19,76.5,19,76.5L433.1,243.5L433.1,243.5z"/>
				<path d="M331.2,141.2c12.9,0.9,19.3,1.4,32.2,2.7c21.7,25.8,33.3,38.4,58.2,62.1c-3.8-15.7-5.6-23.6-9.4-39.3
					c-1.3-5.5-3-9.3-5-11.4c-2.8-2.9-6.6-4.7-11.7-5.2c-0.2-1-0.3-1.5-0.5-2.5c12,1.5,17.9,2.4,29.8,4.3c0.3,1,0.4,1.5,0.7,2.4
					c-0.5,0-1,0-1.5,0c-2.9,0-4.8,0.3-5.8,0.8c-1.1,0.6-1.8,1.7-2.1,3.4s0.1,4.7,1.2,8.9c7.5,30.2,11.3,45.3,18.8,75.6
					c-1,0-1.6,0-2.6,0c-35.6-30.3-51.8-47.2-81.5-81.6c3.3,24.9,5,37.4,8.4,62.3c0.8,5.6,2.6,9.5,5.6,11.4c3,2,6.3,3,9.8,3
					c1,0,1.5,0,2.4,0c0.2,1.1,0.3,1.6,0.4,2.6c-14.8,0-22.1,0-36.9-0.1c-0.1-1.1-0.2-1.6-0.3-2.7c5.7,0,9.5-1.1,11.5-3.3
					c2-2.2,2.6-5.9,1.9-11.1c-3.5-27.8-5.3-41.7-8.8-69.4c-0.9-1.1-1.4-1.6-2.3-2.8c-2.3-2.8-4.2-4.6-5.8-5.5
					c-1.6-0.9-3.8-1.5-6.5-1.8C331.4,142.8,331.3,142.3,331.2,141.2 M329.5,139.5l0.2,1.8c0.1,0.6,0.1,1,0.2,1.4
					c0,0.4,0.1,0.8,0.1,1.3l0.1,1.2l1.2,0.1c2.6,0.3,4.6,0.8,5.9,1.6c1.4,0.8,3.2,2.6,5.4,5.2c0.8,1,1.3,1.5,2,2.4l3.6,28.4
					c1.6,12.5,3.1,24.1,5.1,40.6c0.6,4.7,0.1,8.1-1.6,9.9c-1.7,1.8-5.2,2.8-10.4,2.8l-1.7,0l0.2,1.7c0.1,0.6,0.1,1,0.2,1.4
					c0,0.4,0.1,0.8,0.1,1.3l0.1,1.4l1.4,0l7.9,0c10,0,17.1,0,29,0l1.8,0l-0.3-1.8c-0.1-0.5-0.1-0.9-0.2-1.3
					c-0.1-0.4-0.1-0.8-0.2-1.3l-0.2-1.3l-1.3,0l-1.2,0l-1.2,0c-3.2,0-6.2-0.9-8.9-2.7c-2.6-1.7-4.2-5.2-4.9-10.4
					c-1.7-12.9-3-22.5-4.3-32.2l-3.4-25c27.7,31.9,43.7,48.4,78.3,77.9l0.4,0.4h0.6h2.6h1.9l-0.5-1.9c-3.6-14.4-6.3-25.3-9-36.1
					c-3-11.9-5.9-23.6-9.8-39.5c-1.3-5.1-1.3-7.3-1.1-8.3c0.2-1.2,0.7-1.9,1.4-2.3c0.3-0.2,1.5-0.6,5-0.6c0.5,0,0.9,0,1.4,0l2.1,0.1
					l-0.5-2c-0.1-0.5-0.2-0.8-0.3-1.2c-0.1-0.4-0.2-0.7-0.3-1.2l-0.3-0.9l-1-0.2c-12-1.9-17.9-2.7-29.9-4.3l-2.1-0.3l0.4,2.1
					l0.1,0.3c0.2,0.8,0.3,1.3,0.5,2.2l0.2,1.1l1.1,0.1c4.6,0.5,8.2,2.1,10.7,4.7c1.8,1.9,3.4,5.5,4.6,10.7
					c1.9,7.9,3.3,13.8,4.7,19.7c1.1,4.6,2.2,9.2,3.5,14.6c-22.9-21.9-34.1-34.4-54.4-58.4l-0.4-0.5l-0.6-0.1
					c-12.9-1.3-19.2-1.8-32.3-2.7L329.5,139.5L329.5,139.5z"/>
			</g>
		</g>
	</g>
	<g>
		<path class="st1" d="M361,341.6c-19.4,0-38.6-1.7-55.5-4.9c-17,3.2-36.1,4.9-55.5,4.9c-19.3,0-38.5-1.7-55.5-4.9
			c-16.9,3.2-36.1,4.9-55.5,4.9c-30.5,0-59.3-4-80.9-11.3c-21.9-7.4-33.9-17.3-33.9-27.9s12-20.5,33.9-27.9
			c21.6-7.3,50.3-11.3,80.9-11.3c19.4,0,38.6,1.7,55.5,4.9c17-3.2,36.1-4.9,55.5-4.9c19.4,0,38.5,1.7,55.5,4.9
			c16.9-3.2,36.1-4.9,55.5-4.9c30.5,0,59.3,4,80.9,11.3c21.9,7.4,33.9,17.3,33.9,27.9s-12,20.5-33.9,27.9
			C420.2,337.6,391.5,341.6,361,341.6z M325.4,332c10.7,3.5,22.9,5.4,35.6,5.4c36.9,0,66.9-15.7,66.9-35s-30-35-66.9-35
			c-12.7,0-24.9,1.9-35.6,5.4c25.1,7.4,39.4,18.1,39.4,29.6C364.8,313.9,350.5,324.6,325.4,332z M250,267.5
			c-36.9,0-66.9,15.7-66.9,35s30,35,66.9,35c36.9,0,66.9-15.7,66.9-35S286.9,267.5,250,267.5z M139,267.5c-36.9,0-66.9,15.7-66.9,35
			s30,35,66.9,35c12.7,0,24.9-1.9,35.6-5.4c-25.1-7.4-39.4-18.1-39.4-29.6c0-11.4,14.3-22.2,39.4-29.6
			C163.9,269.3,151.7,267.5,139,267.5z"/>
		<path d="M361,264.1c63,0,114,17.2,114,38.4s-51,38.4-114,38.4c-20.2,0-39.1-1.8-55.5-4.9c0.2,0,0.4-0.1,0.6-0.1c0,0,0.1,0,0.1,0
			c0,0-0.1,0-0.1,0c-16.6,3.2-35.7,5-56.1,5c-20.4,0-39.5-1.8-56.1-5c0,0-0.1,0-0.1,0c0,0,0.1,0,0.1,0c0.2,0,0.4,0.1,0.6,0.1
			c-16.4,3.1-35.3,4.9-55.5,4.9c-63,0-114-17.2-114-38.4s51-38.4,114-38.4c20.2,0,39.1,1.8,55.5,4.9c-0.2,0-0.4,0.1-0.6,0.1
			c0,0,0,0,0,0c0,0,0,0,0,0c16.6-3.2,35.7-5,56.1-5c20.4,0,39.5,1.8,56.1,5c0,0,0,0,0.1,0c0,0,0,0-0.1,0c-0.2,0-0.4-0.1-0.6-0.1
			C321.9,265.8,340.8,264.1,361,264.1 M361,338.2c37.4,0,67.7-16,67.7-35.7s-30.3-35.7-67.7-35.7c-14.1,0-27.3,2.3-38.1,6.2
			c25.1,7,41.1,17.6,41.1,29.5s-16,22.5-41.1,29.5C333.7,335.9,346.8,338.2,361,338.2 M250,338.2c37.4,0,67.7-16,67.7-35.7
			s-30.3-35.7-67.7-35.7c-37.4,0-67.7,16-67.7,35.7S212.6,338.2,250,338.2 M139,338.2c14.1,0,27.3-2.3,38.1-6.2
			c-25.1-7-41.1-17.6-41.1-29.5s16-22.5,41.1-29.5c-10.9-3.9-24-6.2-38.1-6.2c-37.4,0-67.7,16-67.7,35.7S101.7,338.2,139,338.2
			 M361,262.5c-19.4,0-38.6,1.7-55.5,4.8c-17-3.2-36.1-4.8-55.5-4.8c-19.3,0-38.5,1.7-55.5,4.8c-17-3.2-36.1-4.8-55.5-4.8
			c-30.6,0-59.4,4-81.1,11.3c-22.2,7.5-34.4,17.6-34.4,28.6s12.2,21.1,34.4,28.6c21.7,7.3,50.5,11.3,81.1,11.3
			c19.4,0,38.6-1.7,55.5-4.8c17,3.2,36.1,4.8,55.5,4.8c19.3,0,38.5-1.7,55.5-4.8c17,3.2,36.1,4.8,55.5,4.8c30.6,0,59.4-4,81.1-11.3
			c22.2-7.5,34.4-17.6,34.4-28.6s-12.2-21.1-34.4-28.6C420.4,266.6,391.6,262.5,361,262.5L361,262.5z M328,272.9
			c10-3,21.3-4.6,33-4.6c36.5,0,66.1,15.3,66.1,34.2s-29.7,34.2-66.1,34.2c-11.7,0-23-1.6-33-4.6c10.7-3.3,19.4-7.3,25.8-11.8
			c7.8-5.5,11.8-11.5,11.8-17.8s-4-12.3-11.8-17.8C347.4,280.2,338.7,276.2,328,272.9L328,272.9z M250,336.7
			c-36.5,0-66.1-15.3-66.1-34.2s29.7-34.2,66.1-34.2c36.5,0,66.1,15.3,66.1,34.2S286.5,336.7,250,336.7L250,336.7z M139,336.7
			c-36.5,0-66.1-15.3-66.1-34.2s29.7-34.2,66.1-34.2c11.7,0,23,1.6,33,4.6c-10.7,3.3-19.4,7.3-25.8,11.8
			c-7.8,5.5-11.8,11.5-11.8,17.8s4,12.3,11.8,17.8c6.4,4.5,15,8.4,25.8,11.8C162,335.1,150.7,336.7,139,336.7L139,336.7z"/>
	</g>
	<g>
		<g>
			<path class="st1" d="M102.1,379.7c-0.8,0-1.6-0.2-2.4-0.7c-0.8-0.4-1.7-1.2-2.5-2.1c-1-1.2-1.6-2.2-1.9-3.1
				c-0.3-0.9-0.3-1.8-0.1-2.6c0.2-0.8,0.4-1.5,0.9-2.1c0.6-0.7,1.5-1.7,2.9-2.8l6.8-5.7l2.9,3.5l-6.9,5.8c-1.2,1-1.6,1.4-1.8,1.6
				c-0.3,0.4-0.4,0.7-0.4,1.2c0,0.4,0.2,0.9,0.7,1.5c0.4,0.5,0.9,0.8,1.2,0.9c0.1,0,0.2,0,0.3,0c0.2,0,0.4-0.1,0.7-0.2
				c0.4-0.2,1.1-0.8,2-1.5l7.1-5.9l2.9,3.5l-6.7,5.6c-1.6,1.3-2.6,2-3.3,2.4C103.7,379.5,102.9,379.7,102.1,379.7L102.1,379.7z"/>
			<path d="M105.7,361.7l2,2.4l-6.3,5.3c-1,0.8-1.6,1.4-1.9,1.7c-0.4,0.5-0.6,1.1-0.6,1.7c0,0.6,0.3,1.3,0.9,1.9s1.1,1.1,1.7,1.2
				c0.2,0,0.3,0.1,0.5,0.1c0.4,0,0.7-0.1,1-0.3c0.5-0.3,1.1-0.8,2.1-1.5l6.5-5.4l2,2.4l-6.2,5.1c-1.4,1.2-2.5,1.9-3.1,2.3
				c-0.7,0.3-1.3,0.5-2,0.5c0,0,0,0-0.1,0c-0.7,0-1.4-0.2-2.1-0.6c-0.7-0.4-1.5-1-2.2-2c-0.9-1.1-1.5-2.1-1.7-2.9s-0.3-1.5-0.1-2.2
				c0.1-0.7,0.4-1.3,0.7-1.7c0.5-0.7,1.5-1.6,2.8-2.7L105.7,361.7 M105.9,359.6l-1.2,1l-6.3,5.2c-1.4,1.2-2.4,2.1-3,2.9
				c-0.5,0.7-0.9,1.5-1,2.4c-0.2,0.9-0.1,1.9,0.2,2.9c0.3,1,0.9,2.1,2,3.4c0.9,1.1,1.8,1.8,2.7,2.3c0.9,0.5,1.9,0.8,2.8,0.8h0.1
				c0.9,0,1.8-0.2,2.7-0.7c0.8-0.4,1.8-1.1,3.4-2.5l6.2-5.1l1.2-1l-1-1.2l-2-2.4l-1-1.2l-1.2,1l-6.5,5.4c-1.1,0.9-1.6,1.3-1.9,1.4
				c-0.1,0-0.2,0.1-0.3,0.1c-0.1,0-0.1,0-0.2,0s-0.3-0.1-0.8-0.7c-0.3-0.4-0.5-0.7-0.5-1c0-0.3,0.1-0.5,0.2-0.7
				c0.1-0.1,0.4-0.4,1.7-1.5l6.3-5.3l1.2-1l-1-1.2l-2-2.4L105.9,359.6L105.9,359.6z"/>
		</g>
		<g>
			<polygon class="st1" points="112.7,393.3 114.8,384.1 109.2,389.8 106.1,386.7 117.8,374.8 120.8,377.7 118.6,387.1 124.4,381.2 
				127.5,384.3 115.8,396.3 			"/>
			<path d="M117.8,375.8l2.1,2.1l-2.7,11.6l7.1-7.3l2,2l-10.7,10.9l-2.2-2.2l2.6-11.4l-7,7.1l-2-2L117.8,375.8 M117.8,373.7
				l-1.1,1.1l-10.7,10.9l-1.1,1.1l1.1,1.1l2,2l1.1,1.1l1.1-1.1l3.2-3.3l-1.4,6.2l-0.2,0.8l0.6,0.6l2.2,2.2l1.1,1.1l1.1-1.1
				l10.7-10.9l1.1-1.1l-1.1-1.1l-2-2l-1.1-1.1l-1.1,1.1l-3.3,3.4l1.5-6.4l0.2-0.8l-0.6-0.6l-2.1-2.1L117.8,373.7L117.8,373.7z"/>
		</g>
		<g>
			<polygon class="st1" points="146.7,419.5 150.3,413.9 145.3,418.6 141.8,416.3 144,409.9 140.4,415.4 136.7,413.1 145.7,399 
				150.7,402.2 148.2,410.2 154.4,404.5 159.4,407.7 150.4,421.8 			"/>
			<path d="M146,400l3.9,2.5l-3.3,10.2l7.9-7.3l3.9,2.5l-8.2,12.8l-2.4-1.5l6.4-10.1l-9,8.5l-2.5-1.6l3.9-11.7l-6.4,10.1l-2.4-1.5
				L146,400 M145.5,397.9l-0.8,1.3l-8.2,12.9l-0.8,1.3l1.3,0.8l2.4,1.5l1.3,0.8l0.7-1l0,0.1l-0.4,1.1l1,0.6l2.5,1.6l1,0.6l0.9-0.8
				l0.1-0.1l-0.7,1.1l1.3,0.8l2.4,1.5l1.3,0.8l0.8-1.3l8.2-12.8l0.8-1.3l-1.3-0.8l-3.9-2.5l-1-0.6l-0.9,0.8l-3.7,3.4l1.5-4.8
				l0.4-1.1l-1-0.6l-3.9-2.5L145.5,397.9L145.5,397.9z"/>
		</g>
		<g>
			<path class="st1" d="M166.7,429.5c-1.2,0-2.5-0.3-3.8-1c-2.2-1.1-3.7-2.7-4.3-4.7c-0.7-2-0.4-4.2,0.7-6.6
				c0.7-1.5,1.6-2.6,2.5-3.5c0.7-0.6,1.5-1.1,2.4-1.4c0.8-0.3,1.5-0.4,2.3-0.4c0.1,0,0.2,0,0.4,0c1.1,0.1,2.3,0.4,3.5,1
				c2.2,1.1,3.6,2.7,4.3,4.7c0.7,2,0.4,4.3-0.8,6.7c-1.2,2.4-2.8,4-4.8,4.7C168.4,429.4,167.5,429.5,166.7,429.5z M167.1,416.4
				c-0.4,0-0.8,0.1-1.2,0.2c-0.9,0.4-1.7,1.3-2.4,2.6c-0.7,1.4-0.9,2.6-0.6,3.5c0.3,0.9,0.8,1.6,1.7,2.1c0.5,0.2,1,0.4,1.5,0.4
				c0.4,0,0.8-0.1,1.2-0.2c0.9-0.4,1.7-1.3,2.4-2.7c0.7-1.4,0.9-2.6,0.6-3.5c-0.3-0.9-0.8-1.6-1.8-2
				C168.1,416.5,167.6,416.4,167.1,416.4z"/>
			<path d="M166.5,412.8c0.1,0,0.2,0,0.3,0c1,0.1,2.1,0.4,3.2,0.9c2,1,3.3,2.4,3.9,4.2c0.6,1.8,0.4,3.9-0.7,6.1
				c-1.1,2.2-2.5,3.6-4.3,4.3c-0.7,0.3-1.5,0.4-2.2,0.4c-1.1,0-2.3-0.3-3.5-0.9c-2-1-3.3-2.4-3.9-4.2s-0.4-3.8,0.7-6
				c0.7-1.4,1.5-2.5,2.3-3.2c0.6-0.5,1.4-1,2.2-1.2C165.2,412.9,165.8,412.8,166.5,412.8 M166.1,426c0.5,0,1-0.1,1.5-0.3
				c1.1-0.5,2-1.5,2.8-3.1c0.8-1.6,1-2.9,0.7-4c-0.3-1.1-1-1.9-2.2-2.5c-0.6-0.3-1.3-0.5-1.9-0.5c-0.5,0-1,0.1-1.4,0.3
				c-1.1,0.4-2,1.4-2.8,3c-0.8,1.6-1,2.9-0.7,4c0.3,1.2,1,2,2.1,2.5C164.9,425.8,165.5,426,166.1,426 M166.5,411.3L166.5,411.3
				c-0.9,0-1.7,0.2-2.6,0.5c-1,0.3-1.9,0.9-2.6,1.5c-1.1,0.9-1.9,2.1-2.7,3.7c-1.2,2.5-1.5,4.9-0.8,7.1c0.7,2.2,2.3,4,4.7,5.1
				c1.4,0.7,2.8,1,4.2,1c0.9,0,1.9-0.2,2.7-0.5c2.2-0.8,3.9-2.5,5.2-5.1c1.3-2.6,1.5-5,0.8-7.2c-0.7-2.2-2.3-4-4.7-5.1
				c-1.3-0.6-2.6-1-3.8-1.1C166.8,411.3,166.7,411.3,166.5,411.3L166.5,411.3z M166.1,424.4c-0.4,0-0.7-0.1-1.1-0.3
				c-0.7-0.3-1.1-0.9-1.3-1.6c-0.2-0.8,0-1.8,0.6-3c0.6-1.2,1.3-2,2-2.3c0.3-0.1,0.6-0.2,0.9-0.2c0.4,0,0.8,0.1,1.2,0.3
				c0.7,0.4,1.2,0.9,1.4,1.5c0.2,0.7,0,1.7-0.6,2.9c-0.6,1.2-1.3,2-2,2.3C166.7,424.4,166.4,424.4,166.1,424.4L166.1,424.4z"/>
		</g>
		<g>
			<polygon class="st1" points="184.2,437.2 182.3,428 179.6,435.5 175.5,434 181.2,418.3 185.1,419.7 187.1,429.2 189.9,421.5 
				194,423 188.2,438.7 			"/>
			<path d="M181.7,419.3l2.8,1l2.4,11.7l3.5-9.5l2.7,1l-5.2,14.3l-2.9-1.1l-2.4-11.4l-3.4,9.3l-2.7-1L181.7,419.3 M180.8,417.3
				l-0.5,1.4l-5.2,14.3l-0.5,1.4l1.4,0.5l2.7,1l1.4,0.5l0.5-1.4l1.6-4.3l1.3,6.2l0.2,0.8l0.8,0.3l2.9,1.1l1.4,0.5l0.5-1.4l5.2-14.3
				l0.5-1.4l-1.4-0.5l-2.7-1l-1.4-0.5l-0.5,1.4l-1.6,4.5L186,420l-0.2-0.8l-0.8-0.3l-2.8-1L180.8,417.3L180.8,417.3z"/>
		</g>
		<g>
			<path class="st1" d="M203.5,442.6c-0.7,0-1.6-0.1-2.7-0.4l-6.4-1.6l4.1-16.2l6.2,1.6c1.3,0.3,2.3,0.7,2.9,1.1
				c0.9,0.5,1.7,1.3,2.2,2.2c0.5,0.9,0.8,1.9,0.9,3.1c0.1,1.1-0.1,2.4-0.4,3.9c-0.3,1.3-0.8,2.4-1.3,3.3c-0.7,1.1-1.5,1.9-2.5,2.5
				c-0.8,0.4-1.7,0.7-2.7,0.8C203.7,442.6,203.6,442.6,203.5,442.6z M201.4,438.2c0.8,0.2,1.3,0.3,1.7,0.3c0.4,0,0.7-0.1,1-0.2
				c0.2-0.1,0.5-0.4,0.9-1c0.3-0.6,0.6-1.4,0.9-2.4c0.3-1.1,0.4-1.9,0.3-2.5c0-0.5-0.2-1-0.4-1.3c-0.2-0.3-0.5-0.6-0.9-0.8
				c-0.2-0.1-0.8-0.3-2.3-0.7l-0.6-0.2l-2.1,8.3L201.4,438.2z"/>
			<path d="M199.1,425.3l5.5,1.4c1.2,0.3,2.1,0.6,2.7,1c0.8,0.5,1.4,1.1,1.9,1.9s0.7,1.7,0.8,2.8c0.1,1,0,2.2-0.4,3.6
				c-0.3,1.2-0.7,2.2-1.2,3c-0.6,1-1.4,1.7-2.2,2.2c-0.6,0.4-1.4,0.6-2.4,0.7c-0.1,0-0.2,0-0.3,0c-0.7,0-1.5-0.1-2.5-0.4l-5.6-1.4
				L199.1,425.3 M203.1,439.2c0.5,0,1-0.1,1.4-0.3s0.8-0.6,1.1-1.2c0.4-0.6,0.7-1.5,1-2.6c0.3-1.1,0.4-2,0.4-2.7
				c0-0.7-0.2-1.2-0.5-1.6c-0.3-0.4-0.7-0.8-1.2-1c-0.4-0.2-1.2-0.5-2.4-0.8l-1.3-0.3l-2.5,9.8l2.2,0.6
				C202.1,439.1,202.7,439.2,203.1,439.2 M198,423.5l-0.4,1.5l-3.7,14.8l-0.4,1.5l1.5,0.4l5.6,1.4c1.1,0.3,2,0.4,2.8,0.4
				c0.1,0,0.2,0,0.3,0c1.2-0.1,2.2-0.4,3.1-0.9c1.1-0.6,2-1.5,2.8-2.7c0.6-0.9,1.1-2.1,1.4-3.5c0.4-1.5,0.5-2.9,0.4-4.1
				c-0.1-1.2-0.4-2.4-1-3.4c-0.6-1-1.4-1.9-2.4-2.5c-0.7-0.4-1.8-0.8-3.1-1.1l-5.4-1.4L198,423.5L198,423.5z M200.8,437.3l1.7-6.8
				c1.4,0.4,1.8,0.5,2,0.6c0.3,0.1,0.5,0.3,0.6,0.5c0.1,0.2,0.2,0.6,0.3,0.9c0,0.3,0,1-0.3,2.2c-0.3,1.2-0.6,1.9-0.8,2.2
				c-0.3,0.5-0.5,0.6-0.6,0.7c-0.2,0.1-0.4,0.1-0.6,0.1c-0.1,0-0.5,0-1.5-0.3L200.8,437.3L200.8,437.3z"/>
		</g>
		<g>
			<polygon class="st1" points="214.2,445.3 216.6,428.7 229.3,430.6 228.7,434.6 220.6,433.4 220.3,435.3 227.9,436.4 227.3,440.4 
				219.7,439.3 219.3,441.9 227.7,443.2 227.1,447.2 			"/>
			<path d="M217.3,429.6l11.2,1.7l-0.4,2.5l-8.1-1.2l-0.5,3.3l7.6,1.1l-0.4,2.5l-7.6-1.1l-0.6,4.1l8.4,1.3l-0.4,2.5l-11.5-1.7
				L217.3,429.6 M216,427.8l-0.2,1.5l-2.2,15.1l-0.2,1.5l1.5,0.2l11.5,1.7l1.5,0.2l0.2-1.5l0.4-2.5l0.2-1.5l-1.5-0.2l-6.9-1l0.2-1.1
				l6.1,0.9l1.5,0.2l0.2-1.5l0.4-2.5l0.2-1.5l-1.5-0.2l-6.1-0.9l0-0.3l6.6,1l1.5,0.2l0.2-1.5l0.4-2.5l0.2-1.5l-1.5-0.2l-11.2-1.7
				L216,427.8L216,427.8z"/>
		</g>
		<g>
			<path class="st1" d="M252.5,431.7l6.4-0.3c0.4,0,0.7,0,1,0c0.9,0,1.5,0.1,2.1,0.2c1,0.3,2,0.8,2.7,1.5c0.8,0.7,1.3,1.6,1.8,2.7
				c0.4,1,0.7,2.3,0.7,3.8c0.1,1.4,0,2.5-0.3,3.5c-0.4,1.3-0.9,2.3-1.7,3.1c-0.6,0.6-1.4,1.1-2.4,1.5c-0.8,0.3-1.7,0.4-2.9,0.5
				l-6.5,0.3L252.5,431.7z M257.7,444.2l1.5-0.1c1,0,1.5-0.1,1.7-0.2c0.4-0.1,0.7-0.3,0.9-0.5c0.2-0.2,0.4-0.6,0.5-1.2
				c0.2-0.6,0.2-1.5,0.2-2.6c-0.1-1.1-0.2-1.9-0.4-2.5c-0.2-0.5-0.4-0.9-0.7-1.1c-0.3-0.3-0.6-0.4-1.1-0.5c-0.1,0-0.4,0-0.9,0
				c-0.4,0-0.9,0-1.4,0l-0.6,0L257.7,444.2z"/>
			<path d="M259.9,432.2c0.8,0,1.4,0.1,1.9,0.2c0.9,0.2,1.7,0.7,2.4,1.3c0.7,0.6,1.2,1.4,1.6,2.4c0.4,1,0.6,2.1,0.7,3.6
				c0.1,1.3,0,2.3-0.3,3.3c-0.3,1.1-0.8,2.1-1.5,2.8c-0.5,0.5-1.2,1-2.1,1.3c-0.7,0.2-1.6,0.4-2.7,0.5l-5.8,0.3l-0.8-15.2l5.6-0.3
				C259.2,432.2,259.6,432.2,259.9,432.2 M257,445l2.3-0.1c0.9,0,1.5-0.1,1.9-0.2c0.5-0.1,0.9-0.4,1.2-0.7c0.3-0.3,0.6-0.8,0.7-1.5
				c0.2-0.7,0.2-1.6,0.2-2.8s-0.2-2.1-0.5-2.7c-0.2-0.6-0.6-1.1-0.9-1.4c-0.4-0.3-0.9-0.6-1.5-0.7c-0.2,0-0.6-0.1-1.1-0.1
				c-0.4,0-0.9,0-1.5,0l-1.4,0.1L257,445 M259.9,430.6L259.9,430.6c-0.3,0-0.7,0-1.1,0l-5.6,0.3l-1.5,0.1l0.1,1.5l0.8,15.2l0.1,1.5
				l1.5-0.1l5.8-0.3c1.3-0.1,2.3-0.3,3.2-0.6c1.1-0.4,2-1,2.7-1.7c0.8-0.9,1.4-2,1.8-3.4c0.3-1.1,0.4-2.3,0.4-3.8
				c-0.1-1.6-0.3-2.9-0.8-4.1c-0.5-1.1-1.1-2.1-1.9-2.9c-0.9-0.8-1.9-1.4-3.1-1.7C261.5,430.7,260.8,430.6,259.9,430.6L259.9,430.6z
				 M258.1,436.3c0.5,0,0.9,0,1.3,0c0.5,0,0.8,0,0.8,0c0.3,0,0.5,0.1,0.7,0.3c0.2,0.2,0.4,0.5,0.5,0.8c0.1,0.3,0.3,1,0.4,2.2
				c0.1,1,0,1.8-0.1,2.4c-0.1,0.6-0.3,0.8-0.3,0.8c-0.1,0.1-0.3,0.2-0.5,0.3c-0.1,0-0.5,0.1-1.5,0.2l-0.8,0L258.1,436.3L258.1,436.3
				z"/>
		</g>
		<g>
			<polygon class="st1" points="270.9,430.6 283.6,428.7 284.2,432.7 276,433.9 276.3,435.8 283.9,434.6 284.5,438.7 276.9,439.8 
				277.3,442.4 285.7,441.1 286.3,445.2 273.4,447.1 			"/>
			<path d="M282.9,429.5l0.4,2.5l-8.1,1.2l0.5,3.3l7.6-1.1l0.4,2.5l-7.6,1.1l0.6,4.1l8.4-1.3l0.4,2.5l-11.5,1.7l-2.3-15.1
				L282.9,429.5 M284.2,427.8l-1.5,0.2l-11.2,1.7l-1.5,0.2l0.2,1.5l2.3,15.1l0.2,1.5l1.5-0.2l11.5-1.7l1.5-0.2l-0.2-1.5l-0.4-2.5
				l-0.2-1.5l-1.5,0.2l-6.9,1l-0.2-1.1l6.1-0.9l1.5-0.2l-0.2-1.5l-0.4-2.5l-0.2-1.5L283,434l-6.1,0.9l0-0.3l6.6-1l1.5-0.2l-0.2-1.5
				l-0.4-2.5L284.2,427.8L284.2,427.8z"/>
		</g>
		<g>
			<path class="st1" d="M305.4,440.5c-0.9,0-1.7-0.2-2.4-0.5c-1.4-0.6-2.5-1.8-3.3-3.6l-0.3-0.7l4.1-1.7l0.3,0.6
				c0.4,0.7,0.8,1.2,1.3,1.4c0.3,0.1,0.5,0.2,0.8,0.2c0.3,0,0.6-0.1,1-0.2c0.8-0.2,1.3-0.5,1.5-0.9c0.3-0.5,0.3-0.8,0.2-1
				c-0.1-0.2-0.1-0.3-0.3-0.4c-0.1,0-0.3-0.1-0.9-0.2l-0.1,0c-0.4,0-1.2,0-2.3,0.1c-0.3,0-0.6,0-0.9,0c-1.4,0-2.4-0.2-3.2-0.5
				c-1.3-0.6-2.2-1.6-2.6-3c-0.3-0.9-0.3-1.8,0-2.7c0.3-0.9,0.8-1.7,1.6-2.4c0.8-0.6,1.8-1.2,3-1.5c1-0.3,2-0.5,2.8-0.5
				c0.8,0,1.6,0.1,2.2,0.4c1.4,0.6,2.3,1.7,2.8,3.2l0.2,0.7l-4.2,1.5l-0.3-0.6c-0.3-0.5-0.6-0.9-0.9-1c-0.1,0-0.3-0.1-0.5-0.1
				c-0.3,0-0.6,0.1-1,0.2c-0.7,0.2-1.2,0.5-1.5,0.9c-0.1,0.1-0.1,0.2-0.1,0.4c0,0.1,0.1,0.2,0.3,0.3c0.1,0,0.4,0.1,1.4,0.1
				c0.4,0,0.8,0,1.3,0c0.6,0,1.2-0.1,1.7-0.1c0.8,0,1.4,0,2,0.1c0.9,0.2,1.8,0.6,2.4,1.2c0.7,0.6,1.2,1.4,1.5,2.5c0.3,1,0.3,2,0,3
				c-0.3,1-0.9,1.9-1.7,2.6c-0.8,0.7-1.9,1.2-3.3,1.6C307.2,440.3,306.2,440.5,305.4,440.5z"/>
			<path d="M305.7,423.8c0.7,0,1.4,0.1,1.9,0.4c1.2,0.5,2,1.4,2.4,2.8l-2.9,1c-0.4-0.7-0.8-1.2-1.3-1.4c-0.2-0.1-0.5-0.1-0.8-0.1
				c-0.4,0-0.8,0.1-1.2,0.2c-0.9,0.3-1.5,0.6-1.8,1.1c-0.2,0.3-0.3,0.7-0.2,1c0.1,0.3,0.3,0.6,0.7,0.7c0.3,0.1,0.9,0.2,1.7,0.2
				c0.4,0,0.8,0,1.3,0c0.6,0,1.2-0.1,1.6-0.1c0.8,0,1.4,0,1.9,0.1c0.8,0.2,1.5,0.5,2.1,1c0.6,0.5,1,1.2,1.3,2.1
				c0.3,0.8,0.3,1.7,0,2.6c-0.2,0.9-0.7,1.6-1.5,2.2c-0.7,0.6-1.7,1.1-3,1.5c-0.9,0.3-1.8,0.4-2.6,0.4c-0.8,0-1.5-0.1-2.1-0.4
				c-1.2-0.5-2.2-1.6-2.9-3.2l2.8-1.2c0.5,0.9,1,1.5,1.7,1.8c0.3,0.2,0.7,0.2,1.1,0.2c0.4,0,0.8-0.1,1.2-0.2c0.9-0.3,1.6-0.7,2-1.3
				c0.4-0.5,0.5-1.1,0.3-1.6c-0.1-0.3-0.3-0.6-0.6-0.8c-0.3-0.2-0.7-0.3-1.3-0.3c0,0-0.1,0-0.2,0c-0.4,0-1.2,0-2.4,0.1
				c-0.3,0-0.6,0-0.9,0c-1.3,0-2.2-0.1-2.9-0.5c-1.1-0.5-1.9-1.4-2.2-2.5c-0.2-0.7-0.2-1.5,0-2.3c0.2-0.8,0.7-1.4,1.4-2
				c0.7-0.6,1.6-1,2.7-1.4C304.1,424,305,423.8,305.7,423.8 M305.7,422.3c-0.9,0-1.9,0.2-3,0.5c-1.3,0.4-2.4,1-3.2,1.7
				c-0.9,0.8-1.5,1.7-1.8,2.8c-0.3,1.1-0.3,2.1,0,3.1c0.5,1.5,1.5,2.7,3,3.5c0.2,0.1,0.4,0.2,0.6,0.2l-1.5,0.6l-1.4,0.6l0.6,1.4
				c0.8,1.9,2.1,3.3,3.7,4c0.8,0.4,1.7,0.5,2.7,0.5c0.9,0,1.9-0.2,3-0.5c1.4-0.4,2.6-1,3.5-1.8c1-0.8,1.6-1.8,2-3
				c0.3-1.2,0.3-2.3,0-3.4c-0.4-1.2-0.9-2.1-1.7-2.8c-0.6-0.5-1.2-0.9-2-1.1l0.5-0.2l1.4-0.5l-0.5-1.4c-0.6-1.7-1.7-3-3.3-3.7
				C307.5,422.5,306.7,422.3,305.7,422.3L305.7,422.3z M303.9,428.3c0.1-0.1,0.3-0.1,0.4-0.2c0.4-0.1,0.7-0.1,0.8-0.1
				c0.1,0,0.2,0,0.2,0c0,0,0.1,0.1,0.2,0.2c0,0-0.1,0-0.1,0c-0.5,0-0.9,0-1.2,0C304.1,428.3,304,428.3,303.9,428.3L303.9,428.3z
				 M304.6,434.4c0.2,0,0.4,0,0.5,0c1.2-0.1,1.9-0.1,2.3-0.1l0.1,0c0.2,0,0.4,0,0.4,0.1c0,0.1,0,0.1-0.1,0.3
				c-0.2,0.2-0.6,0.5-1.1,0.6c-0.3,0.1-0.6,0.1-0.8,0.1c-0.2,0-0.3,0-0.5-0.1C305.1,435.2,304.8,434.8,304.6,434.4L304.6,434.4z"/>
		</g>
		<g>
			<polygon class="st1" points="313.6,420.3 317.1,418.9 317.3,414.5 322.3,412.4 320.5,417.5 325.4,415.4 327,419.2 319.4,422.3 
				320.1,424.1 327.2,421.1 328.7,424.9 321.7,427.8 322.7,430.3 330.5,427 332.1,430.8 320,435.8 			"/>
			<path d="M321,413.8l-1.5,4l-1.7,0.7l0.1-3.4L321,413.8 M325,416.4l1,2.4l-7.6,3.1l1.3,3.1l7.1-2.9l1,2.4l-7.1,2.9l1.6,3.8
				l7.9-3.3l1,2.4l-10.7,4.4l-5.8-14.1L325,416.4 M323.6,411l-3.2,1.3l-3,1.2l-0.9,0.4l0,1l-0.1,3.4l-2.3,1l-1.4,0.6l0.6,1.4
				l5.8,14.1l0.6,1.4l1.4-0.6l10.7-4.4l1.4-0.6l-0.6-1.4l-1-2.4L331,426l-1.4,0.6l-6.5,2.7l-0.4-1l5.7-2.4l1.4-0.6l-0.6-1.4l-1-2.4
				l-0.6-1.4l-1.4,0.6l-5.7,2.3l-0.1-0.3l6.2-2.6l1.4-0.6l-0.6-1.4l-1-2.4l-0.6-1.4l-1.4,0.6l-2.7,1.1l0.7-1.8L323.6,411L323.6,411z
				"/>
		</g>
		<g>
			<path class="st1" d="M340.2,426.1c-0.8,0-1.6-0.1-2.3-0.4c-2-0.6-3.6-2.1-4.8-4.4c-1.3-2.4-1.7-4.6-1.1-6.7
				c0.5-2.1,1.9-3.7,3.9-4.8c1.2-0.7,2.4-1,3.6-1c0.6,0,1.1,0.1,1.7,0.2c1,0.3,2.1,0.9,3,2l0.6,0.6l-3.5,3.1l-0.5-0.6
				c-0.4-0.5-0.9-0.8-1.4-0.9c-0.2,0-0.3,0-0.4,0c-0.4,0-0.8,0.1-1.2,0.3c-0.8,0.4-1.3,1-1.5,1.9c-0.2,0.9,0.1,2,0.9,3.4
				c0.8,1.5,1.6,2.5,2.5,2.8c0.3,0.1,0.7,0.2,1,0.2l0,0c0.4,0,0.9-0.1,1.3-0.4c0.6-0.3,0.9-0.7,1.1-1.3c0.2-0.6,0.2-1.3-0.1-2.3
				l-0.2-0.8l4.6-0.9l0.2,0.7c0.4,1.8,0.3,3.5-0.3,4.8c-0.6,1.4-1.7,2.5-3.3,3.3C342.7,425.8,341.5,426.1,340.2,426.1z"/>
			<path d="M339.5,409.6c0.5,0,1,0.1,1.5,0.2c0.9,0.2,1.8,0.8,2.7,1.7l-2.3,2.1c-0.5-0.6-1.2-1-1.9-1.1c-0.2,0-0.4-0.1-0.6-0.1
				c-0.5,0-1.1,0.1-1.6,0.4c-1,0.5-1.6,1.3-1.8,2.4c-0.2,1,0.1,2.4,0.9,4c0.9,1.7,1.9,2.7,2.9,3.1c0.4,0.2,0.8,0.2,1.3,0.2
				c0.6,0,1.1-0.2,1.7-0.5c0.7-0.4,1.2-1,1.5-1.7c0.3-0.7,0.3-1.7,0-2.8l3.1-0.6c0.4,1.7,0.3,3.1-0.3,4.3c-0.6,1.2-1.6,2.2-3,3
				c-1.1,0.6-2.2,0.9-3.3,0.9c-0.7,0-1.4-0.1-2.1-0.4c-1.8-0.6-3.3-2-4.4-4.1c-1.2-2.2-1.5-4.3-1.1-6.1c0.5-1.9,1.7-3.3,3.6-4.3
				C337.3,409.9,338.4,409.6,339.5,409.6 M339.5,408.1c-1.3,0-2.7,0.4-4,1.1c-2.3,1.2-3.7,3-4.3,5.2c-0.6,2.2-0.2,4.7,1.2,7.2
				c1.3,2.5,3.1,4.1,5.3,4.8c0.8,0.3,1.7,0.4,2.6,0.4c1.3,0,2.7-0.4,4-1.1c1.7-0.9,3-2.2,3.7-3.7c0.7-1.5,0.8-3.3,0.4-5.3l-0.3-1.4
				l-1.4,0.3l-3.1,0.6l-1.6,0.3l0.4,1.6c0.2,0.8,0.2,1.4,0.1,1.8c-0.1,0.4-0.4,0.7-0.8,0.9c-0.4,0.2-0.7,0.3-1,0.3
				c-0.2,0-0.5,0-0.7-0.1c-0.4-0.1-1.1-0.7-2.1-2.5c-0.7-1.2-0.9-2.3-0.8-2.9c0.1-0.6,0.5-1,1.1-1.4c0.3-0.2,0.6-0.3,0.9-0.3
				c0.1,0,0.2,0,0.3,0c0.4,0.1,0.7,0.3,1,0.6l1,1.2l1.2-1l2.3-2.1l1.2-1.1l-1.1-1.1c-1.1-1.1-2.2-1.8-3.4-2.2
				C340.8,408.1,340.1,408.1,339.5,408.1L339.5,408.1z"/>
		</g>
		<g>
			<path class="st1" d="M356.6,416.4c-0.5,0-1-0.1-1.5-0.2c-0.8-0.2-1.4-0.6-1.9-1.1c-0.7-0.7-1.6-1.7-2.5-3.2l-5-7.4l3.8-2.6l5,7.5
				c0.9,1.4,1.3,1.8,1.4,1.9c0.3,0.3,0.7,0.5,1.1,0.5c0,0,0,0,0,0c0.5,0,1-0.2,1.5-0.5c0.6-0.4,0.9-0.8,1-1.1c0.1-0.4,0.1-0.7,0-1
				c-0.1-0.3-0.5-0.9-1.3-2.1l-5.1-7.6l3.8-2.6l4.9,7.3c1.1,1.6,1.7,2.7,2,3.5c0.3,0.8,0.5,1.7,0.4,2.5c-0.1,0.8-0.4,1.6-0.9,2.4
				c-0.5,0.8-1.3,1.5-2.4,2.2c-1.3,0.9-2.4,1.4-3.3,1.6C357.3,416.4,357,416.4,356.6,416.4z"/>
			<path d="M356.8,398l4.5,6.6c1,1.5,1.7,2.6,2,3.4c0.3,0.7,0.4,1.4,0.3,2.1c-0.1,0.7-0.3,1.4-0.8,2c-0.5,0.7-1.2,1.3-2.2,2
				c-1.2,0.8-2.2,1.3-3,1.4c-0.3,0.1-0.6,0.1-1,0.1c-0.4,0-0.9-0.1-1.3-0.2c-0.7-0.2-1.2-0.5-1.7-0.9c-0.7-0.6-1.5-1.6-2.4-3
				l-4.5-6.7l2.5-1.7l4.6,6.8c0.7,1.1,1.2,1.8,1.5,2c0.5,0.5,1,0.7,1.6,0.7c0,0,0.1,0,0.1,0c0.6,0,1.2-0.2,1.9-0.7
				c0.7-0.5,1.2-1,1.3-1.6c0.2-0.5,0.1-1-0.1-1.5c-0.2-0.5-0.7-1.2-1.3-2.2l-4.7-7L356.8,398 M357.2,395.9l-1.3,0.9l-2.6,1.7
				l-1.3,0.9l0.9,1.3l4.7,7c0.8,1.2,1.1,1.8,1.2,2c0,0.1,0.1,0.2,0,0.4c0,0.1-0.1,0.3-0.7,0.8c-0.4,0.3-0.8,0.4-1,0.4
				c-0.3,0-0.5-0.1-0.7-0.3c-0.1-0.1-0.4-0.4-1.3-1.8l-4.6-6.8l-0.9-1.3l-1.3,0.9l-2.5,1.7l-1.3,0.9l0.8,1.3l4.5,6.7
				c1,1.5,1.9,2.6,2.6,3.3c0.6,0.6,1.4,1,2.3,1.3c0.5,0.2,1.1,0.2,1.7,0.2c0.4,0,0.8,0,1.2-0.1c1-0.2,2.2-0.7,3.6-1.7
				c1.2-0.8,2-1.6,2.6-2.4c0.6-0.9,0.9-1.8,1-2.7c0.1-0.9,0-1.9-0.4-2.8c-0.3-0.8-1-2-2.1-3.6l-4.5-6.6L357.2,395.9L357.2,395.9z"/>
		</g>
		<g>
			<path class="st1" d="M360.9,394.1l5.6-4.6c1.3-1.1,2.4-1.8,3.2-2.1c0.5-0.2,0.9-0.2,1.4-0.2c0.5,0,0.9,0.1,1.4,0.2
				c0.9,0.3,1.7,0.9,2.4,1.7c0.8,1,1.3,2.1,1.2,3.3c0,0.7-0.2,1.4-0.6,2.1c0.2,0,0.4,0,0.6,0.1c0.7,0.1,1.6,0.3,3.1,0.8l4.6,1.5
				l-4.2,3.5l-4.2-1.2c-1.7-0.5-2.3-0.6-2.6-0.7c-0.1,0-0.2,0-0.2,0c-0.2,0-0.4,0-0.5,0.1c-0.2,0.1-0.4,0.2-1,0.6l4.1,4.9l-3.5,2.9
				L360.9,394.1z M368.5,396.1l1.2-1c1.5-1.3,1.8-1.7,1.8-1.7c0.1-0.2,0.2-0.4,0.1-0.6c0-0.2-0.1-0.4-0.3-0.7
				c-0.2-0.2-0.4-0.4-0.7-0.4c0,0-0.1,0-0.1,0c-0.2,0-0.4,0.1-0.6,0.2c-0.1,0.1-0.5,0.4-1.7,1.3l-1.3,1.1L368.5,396.1z"/>
			<path d="M371.1,387.8c0.4,0,0.8,0.1,1.2,0.2c0.8,0.2,1.5,0.7,2,1.4c0.7,0.9,1.1,1.8,1,2.8c0,1-0.5,2-1.4,3
				c0.5-0.1,0.9-0.1,1.3-0.1c0.3,0,0.5,0,0.8,0c0.6,0.1,1.6,0.3,2.9,0.8l3.3,1.1l-2.8,2.4l-3.8-1.1c-1.4-0.4-2.3-0.6-2.7-0.7
				c-0.1,0-0.2,0-0.3,0c-0.3,0-0.5,0-0.8,0.1c-0.3,0.1-0.8,0.4-1.3,0.9L370,399l4.1,4.9l-2.4,2l-9.8-11.7l5-4.1c1.2-1,2.2-1.7,3-2
				C370.3,387.9,370.7,387.8,371.1,387.8 M368.4,397.1l1.8-1.5c1.1-0.9,1.8-1.6,2-1.9c0.2-0.3,0.3-0.7,0.3-1c0-0.4-0.2-0.7-0.5-1.1
				c-0.3-0.4-0.7-0.6-1.1-0.7c-0.1,0-0.2,0-0.3,0c-0.3,0-0.7,0.1-1,0.3c-0.2,0.1-0.8,0.6-1.8,1.4l-1.8,1.5L368.4,397.1 M371.1,386.3
				c-0.6,0-1.1,0.1-1.6,0.3c-0.9,0.3-2.1,1.1-3.5,2.2l-5,4.1l-1.2,1l1,1.2l9.8,11.7l1,1.2l1.2-1l2.4-2l1.2-1l-1-1.2l-3.1-3.7
				c0.1,0,0.1-0.1,0.1-0.1c0,0,0.1,0,0.2,0c0.1,0,0.1,0,0.2,0c0.1,0,0.6,0.1,2.4,0.6l3.8,1.1l0.8,0.2l0.6-0.5l2.8-2.4l2.1-1.8
				l-2.6-0.9l-3.3-1.1c-1.2-0.4-2.1-0.7-2.8-0.8c0.2-0.5,0.2-1,0.3-1.4c0.1-1.4-0.4-2.7-1.4-3.8c-0.8-0.9-1.7-1.6-2.8-1.9
				C372.1,386.4,371.6,386.3,371.1,386.3L371.1,386.3z M368.1,394.4l0.7-0.6c1.2-1,1.5-1.2,1.6-1.3c0.1-0.1,0.2-0.1,0.2-0.1
				c0.1,0,0.1,0.1,0.2,0.2c0.1,0.1,0.1,0.2,0.1,0.3c0,0,0,0,0,0.1c0,0-0.3,0.4-1.7,1.5l-0.6,0.5L368.1,394.4L368.1,394.4z"/>
		</g>
		<g>
			<polygon class="st1" points="374.9,381.9 378.2,378.7 389.8,390.7 386.5,393.9 			"/>
			<path d="M378.1,379.8l10.6,10.9l-2.2,2.1l-10.6-10.9L378.1,379.8 M378.2,377.7l-1.1,1.1l-2.2,2.1l-1.1,1.1l1.1,1.1l10.6,10.9
				l1.1,1.1l1.1-1.1l2.2-2.1l1.1-1.1l-1.1-1.1l-10.6-10.9L378.2,377.7L378.2,377.7z"/>
		</g>
		<g>
			<polygon class="st1" points="386.9,375.6 383.9,378.9 380.8,376.2 389.9,366 393,368.8 390,372.1 399.4,380.6 396.3,384 			"/>
			<path d="M390,367.1l1.9,1.7l-3,3.4l9.4,8.4l-2.1,2.3l-9.4-8.4l-3,3.4l-1.9-1.7L390,367.1 M389.9,365l-1,1.1l-8.1,9l-1,1.1l1.1,1
				l1.9,1.7l1.1,1l1-1.1l2-2.2l8.3,7.4l1.1,1l1-1.1l2.1-2.3l1-1.1l-1.1-1l-8.3-7.4l2-2.2l1-1.1l-1.1-1L391,366L389.9,365L389.9,365z
				"/>
		</g>
		<g>
			<polygon class="st1" points="392.2,363.2 394.5,360.2 392.4,356.3 395.6,351.9 396.6,357.2 399.8,352.9 403.1,355.3 398.2,361.9 
				399.7,363 404.3,356.9 407.6,359.3 403,365.5 405.1,367.1 410.2,360.2 413.5,362.6 405.7,373.2 			"/>
			<path d="M395.2,353.7l0.8,4.1l-1.1,1.5l-1.6-3L395.2,353.7 M400,354l2.1,1.5l-4.9,6.6l2.7,2l4.6-6.1l2.1,1.5l-4.6,6.1l3.3,2.5
				l5.1-6.8l2.1,1.5l-6.9,9.3l-12.2-9.1L400,354 M396,350.1l-2.1,2.8l-2,2.6l-0.6,0.8l0.5,0.9l1.6,3l-1.5,2l-0.9,1.2l1.2,0.9
				l12.2,9.1l1.2,0.9l0.9-1.2l6.9-9.3l0.9-1.2l-1.2-0.9l-2.1-1.5l-1.2-0.9l-0.9,1.2L405,366l-0.9-0.7l3.7-4.9l0.9-1.2l-1.2-0.9
				l-2.1-1.5l-1.2-0.9l-0.9,1.2l-3.7,4.9l-0.3-0.2l4-5.4l0.9-1.2l-1.2-0.9l-2.1-1.5l-1.2-0.9l-0.9,1.2l-1.7,2.3l-0.4-1.9L396,350.1
				L396,350.1z"/>
		</g>
	</g>
</g>
</svg>
