<?xml version="1.0" encoding="utf-8"?>
<!-- Generator: Adobe Illustrator 21.0.2, SVG Export Plug-In . SVG Version: 6.00 Build 0)  -->
<svg version="1.1" id="Calque_2" xmlns="http://www.w3.org/2000/svg" xmlns:xlink="http://www.w3.org/1999/xlink" x="0px" y="0px"
	 viewBox="0 0 500 134" style="enable-background:new 0 0 500 134;" xml:space="preserve">
<style type="text/css">
	.st0{fill:#E2001A;}
</style>
<path class="st0" d="M79.2,34.7c0,2.2-0.8,4.2-2.3,6.2c-1.5,1.9-3.1,2.9-4.8,2.9c-4.5,0-8.1-2.4-10.8-7.2s-5.6-7.2-8.8-7.2
	c-1.2,0-2.1,0.5-2.8,1.6s-1.2,2.4-1.4,4c-0.4,2.1,0.4,4.4,2.4,6.7c1.4,1.4,2.4,2.4,3.1,3.1c0.7,0.7,1.1,1.2,1.3,1.5
	c0.4,0.6,0.7,1.3,1,2.3l0.5,1.5h11.6v6.1H56.9v40.1c0,3.9,0.2,6.7,0.6,8.3c0.4,1.6,1.2,2.8,2.4,3.7c0.5,0.3,1.4,0.6,2.5,0.8
	c1.1,0.2,2.1,0.3,3,0.3h0.8v4.1H25v-4.1h0.8c0.8,0,1.6-0.1,2.4-0.3c0.9-0.2,1.7-0.6,2.5-1.2c1.2-0.8,1.9-1.8,2.3-3s0.6-2.7,0.6-4.6
	c-0.1-1.8-0.1-3.1-0.1-4V56.1h-6.4v-3.8l0.9-1c0.8-0.9,1.4-1.5,1.7-1.8c0.6-0.7,1-1.2,1.3-1.6c7-10.2,10.7-15.5,11.1-16
	c6-6.5,13.1-9.8,21.1-9.8c3.7,0,7.1,1.1,10.3,3.2C77.4,27.8,79.2,30.9,79.2,34.7z"/>
<path class="st0" d="M136.3,80.7c0,9.9-3.6,18.3-10.7,25c-6.7,6.4-14.4,9.6-23.2,9.6c-9.4,0-17.6-3.4-24.6-10.1
	c-7-6.8-10.4-14.9-10.4-24.6c0-9.3,3.5-17,10.4-23.3c6.9-6.2,15.1-9.3,24.4-9.3c8.8,0,16.6,3.1,23.3,9.2
	C132.8,63.7,136.3,71.5,136.3,80.7z M111,81.1c0-9.1-0.3-15.3-0.9-18.7c-1.2-6.8-3.9-10.2-7.9-10.2c-3,0-5.3,1.5-6.7,4.5
	c-1.7,3.4-2.5,9.8-2.5,19c0,1.1,0,2,0,2.7s0,1.3,0,1.8v6.2c0,7.7,0.4,13.1,1.3,16.3c1.4,5.2,4,7.8,7.9,7.8c3.5,0,6-2,7.4-6.1
	c1-2.9,1.5-7.5,1.5-13.7c0-1.6,0-3.3,0-4.9C111,84.3,111,82.7,111,81.1z"/>
<path class="st0" d="M214.6,113.5h-38.2v-4.1h0.8c0.6,0,1.2-0.1,1.9-0.2c0.6-0.1,1.3-0.3,1.9-0.6c1.2-0.6,2-1.5,2.3-2.7
	s0.5-2.9,0.5-5c0-1,0-1.9,0-2.6c0-0.8,0-1.4,0-2V71.6c0-1.1,0-2,0-2.9c0-2.7-0.3-4.8-1-6.4c-1.1-2.4-2.9-3.5-5.4-3.5
	c-2.4,0-4.2,1.1-5.3,3.3s-1.6,4.8-1.6,7.7v43.8h-31.4v-4.1h0.8c1.7,0,3.1-0.2,4.1-0.6s1.8-1.3,2.2-2.6c0.4-1.3,0.6-3,0.6-5.1
	c0-0.7,0-1.5-0.1-2.3c0-0.8-0.1-1.6-0.1-2.4V78.7c0-0.7,0-1.3,0-1.8c0-1.1-0.1-2.2-0.4-3.3c-0.3-1.1-0.9-2.1-1.9-3.2
	c-1-1.1-2-1.9-2.9-2.4c-1.6-1-3.2-2-4.9-3l-0.8-0.6c0.9-0.3,3.6-1.5,8-3.4c4.9-2.2,9-4.1,12.3-5.9c1.2-0.6,3.6-2,7.2-4
	c1.8-1.1,3.4-2,5-2.9v10.6l1.3-1.3c5.2-5.4,11.1-8.2,17.8-8.2c5.3,0,9.8,1.9,13.7,5.6c3.9,3.7,5.8,8.3,5.8,13.7v28
	c0,7.8,1,12,3.1,12.5c1.2,0.2,2.5,0.5,3.8,0.6h0.8L214.6,113.5L214.6,113.5z"/>
<path class="st0" d="M284.2,113.5h-28.4l-2.9,1.2v-9.3l-2.5,2.8c-1.6,2-3.4,3.5-5.3,4.5c-2.6,1.3-5.5,2-8.7,2
	c-5.6,0-10.7-2.2-15.4-6.7c-6.1-5.9-9.2-14.2-9.2-25.1c0-9.1,2.3-16.9,6.9-23.4c5-7.2,11.5-10.7,19.5-10.7c2,0,4,0.4,5.9,1.2
	s3.9,2,5.9,3.7l1.4,1.2v-2c0-1.4,0-2.5,0-3.4c0-1.4-0.1-2.6-0.3-3.8c-0.2-1.1-0.7-2.1-1.5-2.9c-0.8-0.8-1.8-1.7-3.1-2.7
	s-2.5-1.9-3.6-2.6l-2.3-1.7c5.6-1.5,9.6-2.8,12.2-3.8c3.4-1.5,6.2-2.7,8.5-3.6c2.3-0.9,4.7-2,7.1-3.2c2.5-1.2,5-2.5,7.6-3.9v75
	c0,3.8,0.3,6.6,0.9,8.2c0.6,1.7,1.5,2.7,2.7,3.2l3.8,1.3l0.8,0.2L284.2,113.5L284.2,113.5z M251.5,88V69.8c0-3.6-0.5-6.5-1.5-8.7
	c-1.3-2.8-3.4-4.3-6.1-4.3c-4,0-6.4,4.3-7.1,12.9c-0.2,2.9-0.3,7.2-0.3,12.7c0,0.9,0,1.7,0,2.5s0,1.4,0,1.9c0,7.5,0.5,12.5,1.5,15
	s2.5,3.8,4.6,3.8c0.4,0,1-0.1,1.7-0.2c3.2-0.9,5.4-3.1,6.4-6.7C251.2,96.8,251.5,93.2,251.5,88z"/>
<path class="st0" d="M306.5,46.4c4.2,0,7.5-1.5,10-4.4c2.1-2.6,3.2-5.8,3.2-9.5c0-3.8-1.2-7-3.5-9.8c-2.3-2.7-5.5-4.1-9.7-4.1
	s-7.5,1.5-10,4.4c-2.1,2.6-3.2,5.8-3.2,9.6c0,3.7,1.2,6.9,3.5,9.7C299.1,45,302.3,46.4,306.5,46.4z"/>
<path class="st0" d="M291.1,108.8c-1.3,0.4-2.3,0.6-3,0.6h-0.8v4.1h38.1l-0.2-4h-0.8c-0.3,0-1-0.2-2.1-0.4c-1.1-0.3-1.8-0.4-2-0.5
	c-1.3-0.5-2-1.8-2.2-3.7c-0.1-1.9-0.2-4.8-0.2-8.5V47.7c-2.6,1.4-5.1,2.7-7.6,3.9c-2.5,1.2-4.7,2.2-6.6,3c-3.6,1.5-7.4,3-11.5,4.5
	c-3,1.1-5.5,2-7.5,2.6l1.3,1c1,0.7,2.1,1.6,3.4,2.7c1.3,1.2,2.6,2.2,3.8,3.2c0.5,0.4,0.8,1.3,1,2.4c0.1,1.2,0.2,2.4,0.2,3.8
	c0,1,0,2.2-0.1,3.7v17.9c0,0.7,0.1,1.4,0.1,2.1c0.1,0.7,0.1,1.4,0.1,2c0,2.3-0.2,4.2-0.7,5.6S292.4,108.4,291.1,108.8z"/>
<path class="st0" d="M366,50.4l-1.6,6.5h-13.6v33.3c0,5.3,0.7,9.1,2.2,11.3c1.2,2,3.1,2.9,5.4,2.9c0.5,0,1.3-0.2,2.3-0.5
	c1-0.4,1.7-0.6,2-0.7l0.8-0.4v4.1l-1,1c-2.5,2.4-5.9,4.1-10,5.4c-3.2,1-6.3,1.5-9.2,1.5c-4.1-0.4-7.4-1.5-10-3.3
	c-1.4-1-2.7-2.3-4.1-4c-1-1.2-1.7-4.4-2-9.5s-0.5-10-0.5-14.6V56.9h-8l13.6-13.6l18.3-17.9v26.2l7.4-0.2L366,50.4z"/>
<path class="st0" d="M432.5,108.1l-1.5,1.5c-1.7,1.6-3.7,2.8-6,3.7c-2.3,0.8-4.4,1.2-6.4,1.2c-3.1,0-5.8-0.5-8-1.5
	c-3.1-1.3-5.1-3.4-6.1-6.2l-0.8-2.2l-2.2,2.4c-2.5,2.7-5.4,4.8-8.6,6.3c-3.3,1.4-6.3,2.2-9.1,2.2c-5,0-9-1.5-11.9-4.4
	s-4.4-6.9-4.4-11.8c0-4.2,1.5-8,4.6-11.3c2.5-2.6,6.5-5.4,12.2-8.4c0.2-0.1,5.7-2.7,16.5-7.9l1.5-0.7v-2.4c0-1.9,0-3.3,0-4.1
	c0-3.7-0.4-6.3-1.1-7.7c-1-2-3-2.9-6-2.9s-5.1,1.1-6.2,3.2c-0.7,1.3-1.1,3.4-1.1,6.2c0,1.1,0,2,0,2.4c0.2,3-0.4,5.7-1.9,8
	c-1.5,2.3-3.7,3.5-6.7,3.5c-2.2,0-4.1-1-5.6-3s-2.3-4.3-2.3-7c0.5-5.2,3.5-9.6,9-13.3s11.5-5.5,17.9-5.5c8.8,0,15.6,2,20.4,6
	s7.2,9.9,7.2,17.7v23c-0.1,1.5-0.1,2.6-0.1,3.3c0,1.6,0.2,3,0.6,4c0.4,1.1,1,1.7,1.7,2c0.8,0.2,1.5,0.4,2.3,0.4
	c0.6,0,1.2-0.1,1.9-0.4L432.5,108.1L432.5,108.1z M402.2,94.1V75.7l-1.5,0.9c-3.1,1.7-5.5,4.6-7.3,8.7c-1.5,3.3-2.2,6.4-2.2,9.3
	c0,2.4,0.5,4.5,1.6,6.4s2.6,2.9,4.5,2.9c1.8,0,3.1-1.1,3.9-3.2C401.9,98.9,402.2,96.8,402.2,94.1z"/>
<path class="st0" d="M475,113.5h-37.7v-4.1h0.8c0.2,0,0.7-0.1,1.3-0.4c0.7-0.2,1.3-0.5,1.8-0.7c1.2-0.7,2-1.7,2.4-2.8
	c0.3-1.1,0.5-2.7,0.5-4.8c0-0.7,0-1.5-0.1-2.2c0-0.7-0.1-1.5-0.1-2.2V53.1c0-1.5-0.2-2.9-0.5-4.2s-0.9-2.5-1.9-3.5
	c-1.7-1.7-3.1-3-4.3-3.8c-1.2-0.8-2.2-1.6-3.2-2.3l-0.8-0.6c2.1-0.8,4.7-2,8-3.4c3.9-1.7,8-3.7,12.3-5.9c2.4-1.2,5.3-2.8,8.6-4.6
	c1.9-1.1,3.7-2.2,5.7-3.3v74.8c0,3.7,0.1,6.6,0.2,8.5c0.2,1.9,0.9,3.2,2.2,3.7c0.1,0,0.6,0.1,1.7,0.4c1,0.3,1.8,0.4,2.1,0.4h0.8v4.2
	H475z"/>
</svg>
