<?xml version="1.0" encoding="utf-8"?>
<!-- Generator: Adobe Illustrator 21.1.0, SVG Export Plug-In . SVG Version: 6.00 Build 0)  -->
<svg version="1.1" id="Calque_1" xmlns="http://www.w3.org/2000/svg" xmlns:xlink="http://www.w3.org/1999/xlink" x="0px" y="0px"
	 viewBox="0 0 500 88" style="enable-background:new 0 0 500 88;" xml:space="preserve">
<style type="text/css">
	.st0{fill:#A2A4A6;}
	.st1{fill:#00A19D;}
	.st2{fill:#FFFFFF;}
</style>
<g>
	<rect x="120.6" y="14.6" class="st0" width="365.4" height="58.9"/>
	<rect x="14.1" y="14.6" class="st1" width="116.1" height="58.9"/>
	<path class="st2" d="M306.5,24.1h31.8c0,0,12.9,0,12.9,13.1s-12.9,13.1-12.9,13.1l12.1,13.5h-12.1l-12-13.5l-10.3,0v13.6h-9.5V24.1
		 M315.9,41.2h22.4c5.2,0,5.3-8,0-8h-22.4V41.2z"/>
	<path class="st2" d="M367.3,24.1h31.8c0,0,12.9,0,12.9,13.1s-12.9,13.1-12.9,13.1l12,13.5h-12l-12-13.5l-10.3,0v13.6h-9.5V24.1
		 M376.8,41.2h22.4c5.2,0,5.4-8,0-8h-22.4V41.2z"/>
	<path class="st2" d="M222.4,55.3h-16.9c-2.4,0-3.9-1.3-3.9-3.8v-15c0-2.5,1.5-3.8,3.9-3.8h16.9c3.1,0,5.6,1.5,5.6,4.7h8.9
		c0-10.1-7-13.3-14.5-13.3h-17.1c-7.5,0-13.1,3.6-13.1,11.1v17.7c0,7.5,5.6,11.1,13.1,11.1h17.1c7.5,0,14.5-3.2,14.5-13.3H228
		C228,53.8,225.4,55.3,222.4,55.3"/>
	<path class="st2" d="M458.3,24h-18.5c-7.5,0-13.1,3.6-13.1,11.1v17.7c0,7.5,5.6,11.1,13.1,11.1h18.5c7.5,0,13.2-3.6,13.2-11.1V35.1
		C471.4,27.6,465.8,24,458.3,24 M462,51.5c0,2.5-1.5,3.8-3.9,3.8H440c-2.4,0-3.9-1.3-3.9-3.8v-15c0-2.5,1.5-3.8,3.9-3.8h18.1
		c2.4,0,3.9,1.3,3.9,3.8V51.5z"/>
	<path class="st2" d="M161.9,24.2h-9.4l-19.2,39.7h10.2l3.7-8.7h19.9l3.7,8.7H181L161.9,24.2z M150.3,48l6.4-14.8h1l6.4,14.8H150.3z
		"/>
	<path class="st2" d="M275,24.2h-9.4l-19.2,39.7h10.2l3.7-8.7h19.9l3.7,8.7h10.1L275,24.2z M263.4,48l6.4-14.8h1l6.4,14.8H263.4z"/>
	<path class="st2" d="M29.1,50.3H14v-9.1h15.1V24.2h38.7v9.1H38.7v8h39.6V24.2h31.9c0,0,12.9,0,12.9,13.1
		c0,13.1-12.9,13.1-12.9,13.1l12.1,13.6h-12.1L98.1,50.3l-10.3,0v13.6l-9.5,0V50.3H38.7v13.6h-9.5V50.3 M87.7,41.3h22.4
		c5.2,0,5.4-8,0-8H87.7V41.3z"/>
</g>
</svg>
