<?xml version="1.0" encoding="utf-8"?>
<!-- Generator: Adobe Illustrator 21.0.2, SVG Export Plug-In . SVG Version: 6.00 Build 0)  -->
<svg version="1.1" id="Calque_1" xmlns="http://www.w3.org/2000/svg" xmlns:xlink="http://www.w3.org/1999/xlink" x="0px" y="0px"
	 viewBox="0 0 500 186" style="enable-background:new 0 0 500 186;" xml:space="preserve">
<style type="text/css">
	.st0{fill:#E32119;}
	.st1{fill:#FFFFFF;}
</style>
<rect x="25" y="20.3" class="st0" width="149.9" height="145.4"/>
<rect x="178.8" y="20.3" class="st0" width="144.6" height="145.4"/>
<rect x="327.3" y="20.3" class="st0" width="147.7" height="145.4"/>
<polygon class="st1" points="35.3,63.2 92.3,63.2 92.3,82.1 79.4,82.1 79.4,76.1 65.7,76.1 65.7,86.3 77.2,86.3 77.2,99.5 
	65.7,99.5 65.7,111.9 72.7,111.9 72.7,124.8 35.3,124.8 35.3,112.2 41.1,112.2 41.1,77.3 35.3,77.3 "/>
<path class="st1" d="M129.6,89.9V76.1c0,0,11.5-0.4,11.5,7C141.1,90.5,129.6,89.9,129.6,89.9 M164.8,112l-9-17.9
	c0,0,10.4-5.8,9.7-13.5c-1.3-15.8-22.7-17.4-22.7-17.4H98.1v14h6.8V112h-5.8v12.8h36.3v-12.9h-6V99.3h6.7l10.9,25.6h24.1V112H164.8
	L164.8,112z"/>
<path class="st1" d="M205.2,94.6l6.4-17.3l6.2,17.3H205.2z M241.3,112l-10.6-35.9h7V63.2h-46.5v13.1h6.4l-11.8,35.6h-2.7v12.9h24.6
	V112h-6.1l1.3-6.8h16l1.3,6.8h-5.8v12.8H248V112H241.3L241.3,112z"/>
<polygon class="st1" points="252.8,63.2 277,63.2 301.2,93.4 301.2,76.3 295.6,76.3 295.6,63.2 320.1,63.2 320.1,76 315.7,76 
	315.7,124.8 295.5,124.8 272.8,92.4 272.8,111.9 278.3,111.9 278.3,124.8 252.6,124.8 252.6,112 257.5,112 257.5,76 252.8,76.1 "/>
<polygon class="st1" points="330.7,63.2 366.7,63.2 366.7,75 360.9,75 360.9,90.1 375.7,75.1 371.4,75 371.4,63.2 400.4,63.2 
	400.4,74.8 396.1,74.8 379.7,92.4 398.4,110.9 405.1,110.9 405.1,124.8 371.1,124.8 371.1,111.9 376.9,111.9 361.5,95.6 
	361.5,111.9 366.6,111.9 366.6,124.8 330.5,124.8 330.5,111.9 337.5,111.9 337.5,76 330.7,76.1 "/>
<polygon class="st1" points="408.4,63.2 465.6,63.2 465.6,82 451.5,82 451.5,74.8 438.8,74.8 438.8,87.6 449.4,87.6 449.4,99.2 
	438.7,99.2 438.7,111 451.6,111 451.6,103.8 465.6,103.8 465.6,124.8 408.4,124.8 408.4,110.9 415.6,110.9 415.6,74.8 408.4,74.8 
	"/>
</svg>
