<?xml version="1.0" encoding="utf-8"?>
<!-- Generator: Adobe Illustrator 19.1.0, SVG Export Plug-In . SVG Version: 6.00 Build 0)  -->
<svg version="1.1" id="Calque_2" xmlns="http://www.w3.org/2000/svg" xmlns:xlink="http://www.w3.org/1999/xlink" x="0px" y="0px"
	 viewBox="0 0 500 500" style="enable-background:new 0 0 500 500;" xml:space="preserve">
<style type="text/css">
	.st0{fill:#004494;}
</style>
<g>
	<g>
		<g>
			<path class="st0" d="M291.1,176.1h-13.3l-3.2,18.4h12.9l-1.7,9.6h-12.9l-6.2,35.1h-11l12.9-73h24.2L291.1,176.1z"/>
			<path class="st0" d="M310.7,239.1h-11l4.5-25.8c0.7-4.1-0.7-6.1-4.3-6.1h-0.8l-5.6,31.9h-11l10.7-60.8c0.9-4.9,3.2-8.7,7-11.3
				c3-2,6.2-3,9.7-3c3.4,0,6.2,1,8.5,3c2.8,2.7,3.8,6.4,3,11.3l-2.3,13.1c-1.2,7-4.7,10.8-10.4,11.4c5.5,0.7,7.6,4.3,6.5,10.5
				L310.7,239.1z M308.7,191.4l1.6-9.3c1.1-6.1,0.4-9.1-1.9-9.1c-2.1,0-3.5,1.5-4,4.4l-3.8,21.5h0.1
				C305.1,198.9,307.8,196.4,308.7,191.4z"/>
			<path class="st0" d="M343,239.1h-11l5.1-28.8h-6.4l-5.1,28.8h-11l10.7-60.8c0.9-4.9,3.2-8.7,7-11.3c3-2,6.3-3,9.7-3
				c3.4,0,6.3,1,8.6,3c2.9,2.6,3.9,6.3,3,11.3L343,239.1z M338.8,200.9l4-22.9c0.5-3.1-0.2-4.6-2.4-4.6s-3.5,1.5-4,4.6l-4,22.9
				H338.8z"/>
			<path class="st0" d="M375.5,239.2h-11l10.8-61.2c0.5-3.1-0.2-4.6-2.4-4.6c-2.1,0-3.5,1.5-4,4.6l-10.8,61.2h-11l10.8-61
				c0.9-4.9,3.2-8.7,7-11.3c3-2,6.3-3,9.7-3c3.4,0,6.3,1,8.6,3c2.9,2.6,3.9,6.3,3,11.3L375.5,239.2z"/>
			<path class="st0" d="M417.9,181.7l-2,11.4h-11l2.8-16.1c0.5-3-0.3-4.5-2.3-4.5s-3.4,1.5-3.9,4.5l-8.9,50.2
				c-0.5,3.1,0.2,4.6,2.3,4.6c2.1,0,3.4-1.5,4-4.6l2.9-16.4h11l-2.8,16c-1.7,9.6-7.2,14.4-16.7,14.4s-13.3-4.8-11.6-14.4l8.6-49
				c1.6-9.3,7.2-13.9,16.6-13.9C416.3,164,420,169.9,417.9,181.7z"/>
			<path class="st0" d="M435.9,239.2h-24.2l12.9-73h24.2l-1.7,9.9h-13.3l-3.2,18.4h12.9l-1.7,9.6h-12.9l-4.4,25h13.3L435.9,239.2z"
				/>
		</g>
	</g>
	<g>
		<g>
			<path class="st0" d="M280.5,274.7h-9.4l-11.2,63.7h-11l11.2-63.7h-9.5l1.7-9.4h29.9L280.5,274.7z"/>
			<path class="st0" d="M283.3,338.5h-11l12.9-73.1h11L283.3,338.5z"/>
			<path class="st0" d="M315.7,338.5h-5.7l-0.1-4.5c-3.3,4.5-6.9,6.8-11.1,6.8c-3,0-5.5-1.3-7.3-3.8c-2.1-2.8-2.7-6.6-1.9-11.1
				l8.5-48.3c0.9-4.8,3.2-8.6,7.1-11.3c2.9-2,6.1-3,9.6-3c3.4,0,6.3,1,8.6,3c2.9,2.6,3.9,6.3,3,11.3l-2.6,14.9h-11l2.8-15.8
				c0.5-3-0.3-4.5-2.4-4.5c-2.1,0-3.4,1.5-4,4.5l-8.8,49.8c-0.5,3.1,0.2,4.6,2.4,4.6s3.4-1.5,4-4.6l2.8-15.9H305l1.6-9.1h15.6
				L315.7,338.5z"/>
			<path class="st0" d="M344,338.5h-24.2l12.9-73h24.2l-1.7,9.9h-13.3l-3.2,18.4h12.9l-1.7,9.6h-12.9l-4.4,25h13.3L344,338.5z"/>
			<path class="st0" d="M386.3,281l-1.6,8.9h-10.7l1.5-8.3c1.1-6.5,0.5-9.8-2-9.8c-2.2,0-3.6,1.8-4.2,5.4l-0.9,5
				c-0.7,3.8,0.2,7.8,2.5,12l6.5,10.3c2.2,4.2,3,8.1,2.4,11.9l-1.8,10c-1.6,9.3-7.2,14-16.6,14c-9.6,0-13.3-6.1-11.2-18.2l1.7-9.8
				h11.2l-2.5,14.3c-0.5,3,0.2,4.5,2.3,4.5c2.4,0,4-2.1,4.7-6.3l1-5.8c0.5-2.8-0.5-6.2-3-10.3l-6.5-10.4c-2.2-4.3-3-8.6-2.2-12.8
				l1.5-8.8c1.6-9.3,7.1-13.9,16.4-13.9c4.7,0,8,1.1,9.8,3.4C387,269.3,387.5,274.1,386.3,281z"/>
		</g>
	</g>
	<path class="st0" d="M235.9,255H475v-7.5H236.9l10.8-79.5h-67.5l-10.8,79.5h-17L171,110.3c2.3-16.6,17.8-30.2,34.6-30.2h1.6
		c4.3,0,8.7,0.9,12.8,2.5c-19.3,0.3-34.9,16.1-34.9,35.4c0,19.6,15.9,35.5,35.5,35.5c19.6,0,35.5-15.9,35.5-35.5
		c0-0.8-0.1-1.7-0.1-2.5l0,0c0-44.1-32.5-69.9-64.9-69.9h-9.5c-39.2,0-75.5,31.7-80.8,70.5L83,247.5H25v7.5h57l-11.3,83.4H140
		l11.3-83.4h17l-17.5,128.8c-5.3,38.8,22.5,70.5,61.6,70.5h15.6c31.7,0,61.5-20.9,74.5-49.4c2.6-4.9,4.1-10.6,4.1-16.6
		c0-19.6-15.9-35.5-35.5-35.5c-19.6,0-35.5,15.9-35.5,35.5c0,16,10.5,29.4,25,33.9c-4.9,2.7-10.4,4.2-16,4.2h-1.6
		c-16.8,0-28.7-13.6-26.4-30.2L235.9,255z"/>
</g>
</svg>
