<?xml version="1.0" encoding="utf-8"?>
<!-- Generator: Adobe Illustrator 16.0.0, SVG Export Plug-In . SVG Version: 6.00 Build 0)  -->
<!DOCTYPE svg PUBLIC "-//W3C//DTD SVG 1.1//EN" "http://www.w3.org/Graphics/SVG/1.1/DTD/svg11.dtd">
<svg version="1.1" id="Calque_2" xmlns="http://www.w3.org/2000/svg" xmlns:xlink="http://www.w3.org/1999/xlink" x="0px" y="0px"
	 width="500px" height="500px" viewBox="0 0 500 500" enable-background="new 0 0 500 500" xml:space="preserve">
<g>
	<g>
		<g>
			<path fill="#004494" d="M291.14,176.117h-13.252l-3.245,18.402h12.94l-1.699,9.641h-12.94l-6.181,35.055h-10.981l12.87-72.992
				h24.233L291.14,176.117z"/>
			<path fill="#004494" d="M310.702,239.091h-10.979l4.549-25.791c0.722-4.089-0.723-6.135-4.331-6.135h-0.785l-5.631,31.926
				h-10.978l10.729-60.849c0.869-4.921,3.21-8.677,7.019-11.267c3.027-2.004,6.244-3.004,9.653-3.004c3.406,0,6.248,1,8.515,3.004
				c2.835,2.672,3.822,6.43,2.968,11.267l-2.316,13.146c-1.236,7.013-4.702,10.812-10.386,11.395
				c5.452,0.748,7.625,4.255,6.521,10.517L310.702,239.091z M308.68,191.388l1.637-9.264c1.072-6.09,0.438-9.138-1.917-9.138
				c-2.145,0-3.476,1.461-3.991,4.38l-3.794,21.535h0.077C305.134,198.901,307.797,196.396,308.68,191.388z"/>
			<path fill="#004494" d="M343.012,239.091H332.03l5.077-28.795h-6.353l-5.077,28.795h-10.979l10.729-60.849
				c0.869-4.921,3.202-8.677,7.004-11.267c3.021-2.004,6.255-3.004,9.706-3.004c3.398,0,6.255,1,8.567,3.004
				c2.891,2.59,3.903,6.346,3.034,11.267L343.012,239.091z M338.765,200.907l4.04-22.914c0.543-3.089-0.242-4.634-2.358-4.634
				s-3.451,1.545-3.994,4.634l-4.04,22.914H338.765z"/>
			<path fill="#004494" d="M375.457,239.215h-10.98l10.795-61.229c0.543-3.083-0.241-4.627-2.357-4.627
				c-2.117,0-3.452,1.543-3.995,4.627l-10.795,61.229h-10.979l10.75-60.973c0.869-4.921,3.203-8.677,7.005-11.267
				c3.021-2.004,6.254-3.004,9.706-3.004c3.398,0,6.254,1,8.566,3.004c2.891,2.59,3.903,6.346,3.034,11.267L375.457,239.215z"/>
			<path fill="#004494" d="M417.9,181.748l-2.012,11.395h-10.978l2.849-16.149c0.529-3.005-0.252-4.51-2.344-4.51
				s-3.402,1.505-3.932,4.51l-8.851,50.204c-0.547,3.089,0.224,4.631,2.319,4.631c2.089,0,3.409-1.542,3.956-4.631l2.891-16.401
				h10.978l-2.827,16.025c-1.692,9.601-7.243,14.401-16.654,14.401s-13.27-4.8-11.573-14.401l8.63-48.951
				c1.633-9.265,7.151-13.898,16.563-13.898C416.327,163.97,419.988,169.899,417.9,181.748z"/>
			<path fill="#004494" d="M435.917,239.215h-24.232l12.87-72.992h24.232l-1.745,9.894h-13.251l-3.245,18.402h12.94l-1.7,9.641
				h-12.939l-4.415,25.037h13.252L435.917,239.215z"/>
		</g>
	</g>
	<g>
		<g>
			<path fill="#004494" d="M280.474,274.728h-9.411l-11.237,63.729h-10.978l11.237-63.729h-9.488l1.654-9.388h29.877
				L280.474,274.728z"/>
			<path fill="#004494" d="M283.276,338.456h-10.981l12.892-73.116h10.981L283.276,338.456z"/>
			<path fill="#004494" d="M315.66,338.456h-5.723l-0.15-4.506c-3.252,4.506-6.944,6.759-11.072,6.759
				c-3.034,0-5.452-1.251-7.26-3.753c-2.061-2.838-2.685-6.552-1.875-11.146l8.521-48.329c0.855-4.836,3.213-8.592,7.081-11.266
				c2.916-2.004,6.125-3.003,9.629-3.003c3.396,0,6.255,0.999,8.567,3.003c2.891,2.59,3.899,6.346,3.031,11.266l-2.628,14.901
				h-10.979l2.782-15.777c0.529-3-0.263-4.506-2.379-4.506c-2.12,0-3.444,1.506-3.974,4.506l-8.784,49.832
				c-0.547,3.091,0.242,4.633,2.358,4.633s3.447-1.542,3.994-4.633l2.804-15.9h-4.629l1.611-9.139h15.606L315.66,338.456z"/>
			<path fill="#004494" d="M343.972,338.456h-24.233l12.87-72.993h24.232l-1.744,9.895h-13.252l-3.245,18.403h12.94l-1.699,9.643
				H336.9l-4.415,25.035h13.252L343.972,338.456z"/>
			<path fill="#004494" d="M386.341,280.988l-1.57,8.89h-10.666l1.458-8.262c1.149-6.511,0.47-9.763-2.046-9.763
				c-2.193,0-3.609,1.794-4.24,5.383l-0.883,5.003c-0.68,3.841,0.157,7.849,2.509,12.019l6.5,10.267
				c2.246,4.177,3.038,8.143,2.375,11.896l-1.766,10.018c-1.65,9.349-7.18,14.022-16.591,14.022
				c-9.565,0-13.287-6.051-11.153-18.153l1.725-9.766h11.216l-2.516,14.275c-0.533,3.003,0.248,4.506,2.34,4.506
				c2.404,0,3.978-2.088,4.713-6.262l1.017-5.757c0.483-2.754-0.508-6.181-2.975-10.267l-6.482-10.393
				c-2.211-4.338-2.954-8.599-2.218-12.775l1.545-8.76c1.633-9.264,7.103-13.896,16.408-13.896c4.706,0,7.958,1.129,9.759,3.378
				C387.031,269.345,387.546,274.146,386.341,280.988z"/>
		</g>
	</g>
	<path fill="#004494" d="M235.886,255.035H475v-7.499H236.906l10.803-79.511h-67.527l-10.799,79.511H152.36l18.648-137.274
		c2.257-16.629,17.835-30.235,34.619-30.235h1.65c4.299,0,8.732,0.906,12.824,2.518c-19.31,0.326-34.871,16.058-34.871,35.449
		c0,19.594,15.883,35.479,35.477,35.479c19.597,0,35.48-15.885,35.48-35.479c0-0.846-0.066-1.675-0.126-2.507l0.035,0.033
		c0-44.07-32.527-69.935-64.938-69.935h-9.485c-39.156,0-75.509,31.746-80.779,70.548L83.046,247.537H25v7.499h57.026
		l-11.332,83.421h69.314l11.332-83.421h17.022L150.86,383.867c-5.27,38.802,22.457,70.547,61.613,70.547h15.624
		c31.713,0,61.479-20.869,74.486-49.404c2.621-4.948,4.117-10.582,4.117-16.57c0-19.594-15.883-35.48-35.48-35.48
		c-19.594,0-35.477,15.887-35.477,35.48c0,15.953,10.529,29.443,25.018,33.907c-4.896,2.667-10.379,4.208-16.01,4.208h-1.65
		c-16.784,0-28.662-13.609-26.405-30.238L235.886,255.035z"/>
</g>
</svg>
