<?xml version="1.0" encoding="utf-8"?>
<!-- Generator: Adobe Illustrator 21.1.0, SVG Export Plug-In . SVG Version: 6.00 Build 0)  -->
<svg version="1.1" id="Calque_1" xmlns="http://www.w3.org/2000/svg" xmlns:xlink="http://www.w3.org/1999/xlink" x="0px" y="0px"
	 viewBox="0 0 500 120" style="enable-background:new 0 0 500 120;" xml:space="preserve">
<g>
	<path d="M22.1,24.1c0.2-0.7,0.5-1.3,0.7-2c2-6.9,7.3-10.7,14-9.9C43.5,12.8,48.4,18,48.6,25c0.2,8.7,0.1,17.3,0.2,26
		c0,5.8,0.1,11.6,0.2,17.4c0.1,7.8,3.2,11,10.9,11.5C61.2,80,62.6,80,64,80c42.8,0,85.6,0,128.4,0c1.8,0,3.6,0.2,5.3,0.5
		c6.8,1.5,11,6.9,10.6,13.6c-0.4,6.9-5.2,11.6-12.6,12.3c-1.3,0.1-2.6,0.2-3.9,0.2c-45.6,0-91.1,0-136.7,0c-12.7,0-23-4.9-29-16.6
		c-2-3.8-2.7-8.3-3.9-12.5C22.1,59.7,22.1,41.9,22.1,24.1z"/>
	<path d="M376,108c-1.7-0.4-3.5-0.7-5.2-1.2c-10.2-2.7-15.5-9.5-16.3-20.9c-0.2-2.3,0-4.5,0-7c4.1,0,8.3,0,12.4,0
		c0.4,3,0.6,5.9,1.2,8.8c1.4,6.5,6.1,10.1,12.6,10c6.6-0.2,11.8-4.6,12.9-10.9c1.2-7-1.1-12.5-7.1-16.4C380,66,373.2,62,366.8,57.4
		c-11.2-8.1-14.2-22.5-7.5-34C363,17,369.1,14.3,376,13c5.9-1.1,11.7-0.7,17.4,1.1c7.6,2.4,11.5,8,12.9,15.5c0.5,3,0.5,6.1,0.8,9.4
		c-4.5,0-8.6,0-13,0c-0.3-2-0.6-4.1-1-6.1c-1.3-6.5-5.2-10.3-11-10.7c-5.6-0.4-10.7,2.8-12.6,8.2c-2.2,5.8-0.6,11.6,4.6,15.2
		c6.8,4.7,13.7,9.2,20.8,13.5c9.7,5.8,12.9,14.5,12.2,25.1c-0.1,2.1-0.6,4.2-1.1,6.3c-1.9,8.8-7.7,13.8-16.1,16.1
		c-2,0.6-4.1,1-6.2,1.5C381.2,108,378.6,108,376,108z"/>
	<path d="M425,106.7c0-31.1,0-61.9,0-93c3.4,0,6.6-0.1,9.9,0c7.7,0.3,15.4,0.3,23,1.1c9,0.9,15.1,7.4,16.7,17.3
		c0.7,4.1,0.5,8.5-0.2,12.6c-1.1,6.4-5.2,10.7-11.3,13.1c-1.1,0.4-2.2,0.8-3.8,1.4c2.3,0.6,4.1,1,5.8,1.6c6.2,2,10.2,6.1,11.7,12.4
		c2.1,9.2,1.4,17.9-4.7,25.5c-4.2,5.2-10,7-16.4,7.6c-1.9,0.2-3.9,0.3-5.9,0.3C441.7,106.7,433.5,106.7,425,106.7z M437.9,97.5
		c5.8-0.5,11.4-0.5,16.8-1.5c7.3-1.3,11.6-8.8,10.6-17.3c-0.7-6-3.1-10.9-9.2-13c-2-0.7-4.3-1-6.5-1.1c-3.9-0.2-7.7-0.1-11.7-0.1
		C437.9,75.3,437.9,86.1,437.9,97.5z M438,23c0,11.1,0,21.5,0,32.2c4.6-0.3,9-0.2,13.3-1c8.2-1.5,13.1-11.2,10.8-20.1
		c-1.3-4.8-3.9-8.7-9-9.6C448.2,23.6,443.1,23.5,438,23z"/>
	<path d="M342.9,23.5c-9.4,0-18.7,0-28.3,0c0,10.3,0,20.5,0,30.9c8.6,0,17.2,0,26,0c0,3.4,0,6.4,0,9.8c-8.6,0-17.3,0-26.4,0
		c0,7.2,0,14.2,0,21.2c0,6.9,0,13.9,0,21c-4.4,0-8.5,0-12.8,0c0-30.8,0-61.6,0-92.5c13.8,0,27.5,0,41.4,0
		C342.9,16.9,342.9,20.1,342.9,23.5z"/>
</g>
</svg>
