<?xml version="1.0" encoding="utf-8"?>
<!-- Generator: Adobe Illustrator 19.1.0, SVG Export Plug-In . SVG Version: 6.00 Build 0)  -->
<svg version="1.1" id="Calque_1" xmlns="http://www.w3.org/2000/svg" xmlns:xlink="http://www.w3.org/1999/xlink" x="0px" y="0px"
	 viewBox="0 0 500 500" style="enable-background:new 0 0 500 500;" xml:space="preserve">
<style type="text/css">
	.st0{fill:#E2001A;}
</style>
<g>
	<path class="st0" d="M45.8,285.5H28.1l10.4-44.7c0,0,1.9-9.3,13.5-18.1c9.4-7.2,22.8-5.8,22.8-5.8H148l-3.1,13.5H74
		c0,0-5.4,0.4-10.4,3.5c-5,3.1-8.9,11.6-8.9,11.6h50.5l-2.7,14.3H51.2L45.8,285.5z"/>
	<path class="st0" d="M112.5,246.1h12.3l-5.8,27h26.2l6.6-27.8h13.5l-8.9,40.5h-40.9c0,0-5.2-0.1-8.5-5c-1.5-2.3,0.4-11.2,0.4-11.2
		L112.5,246.1z"/>
	<path class="st0" d="M178.5,219.1h12.7l-12.7,54.8h25.5l-2.7,11.6h-25.8c0,0-5-0.8-7.3-4.6c-2.3-3.9-1.2-10-1.2-10l11.6-50.5"/>
	<path d="M26.1,286.1l-2.3-0.6l11.4-45.9c0.2-0.5,5.3-13.2,14-19.9c8.8-6.8,23.4-6.8,24-6.8h72.1v2.3H73.2c-0.1,0-14.4,0-22.6,6.4
		c-7.9,6.1-12.8,17.8-13.2,18.8L26.1,286.1z"/>
	<path d="M105.5,284.8c-3.8-3.8-3.4-9.2-3.4-9.4l0-0.1l6.7-33.7h14.5v2.3h-12.5l-6.3,31.8c0,0.5-0.1,4.7,2.7,7.5L105.5,284.8z"/>
	<polygon points="143.9,272 122.6,272 122.6,269.7 142.1,269.7 148.2,241.9 161.9,241.9 161.9,244.2 150.1,244.2 	"/>
	<path d="M166.6,286c-3-2.1-4.5-9.2-4.7-10l0-0.2l12.2-60.9h14.5v2.3H176l-11.7,58.6c0.6,2.7,2.1,7.1,3.7,8.3L166.6,286z"/>
	<path class="st0" d="M195.8,230.3h22.7l2.7-11.6H234l-2.7,11.6h30.8l-2.3,11.6h-31.6l-6.6,31.2H246l-1.9,12h-27.4
		c0,0-4.6-1.9-6.9-5c-2.3-3.1,0-8.9,0-8.9l5.8-28.5h-22L195.8,230.3z"/>
	<polygon points="190.8,242.5 188.5,242 191.8,226.5 214.6,226.5 217.3,214.9 231.3,214.9 231.3,217.2 219.1,217.2 216.4,228.8 
		193.7,228.8 	"/>
	<path d="M209.1,284.9c-6-3.9-3.7-13.2-3.6-13.6l5-26.1l2.3,0.4l-5,26.2c0,0.2-2,8.2,2.6,11.1L209.1,284.9z"/>
	<path class="st0" d="M276.8,264.7H293l18.1-19.7h-42.8c0,0-19.3,4.6-19.3,20.4c0,15.8,19.7,19.3,19.7,19.3h52.1l6.2-27.8h19.7
		l3.1-12h-25.5c0,0-5.4,1.2-6.9,2.3c-1.5,1.2-3.1,6.6-3.1,6.6l-3.9,19.3h-40.5c0,0-6.9-1.9-6.9-8.1c0-6.2,8.5-8.5,8.5-8.5H283
		L276.8,264.7z"/>
	<path d="M254.2,281.5c-0.1,0-10-5-8-19c2.3-16.2,22.2-21.1,23-21.3l0.3,0h40.9v2.3h-40.7c-1.7,0.4-19.2,5.4-21.1,19.4
		c-1.7,12.3,6.4,16.5,6.7,16.6L254.2,281.5z"/>
	<path d="M308.2,272h-36.4v-2.3h34.6l4.5-17.8c0.1-0.1,1.4-3.5,4.9-6.9c3-3,10.1-3,10.9-3H347v2.3h-20.4c-1.9,0-7.3,0.4-9.2,2.4
		c-2.9,2.9-4.1,5.6-4.3,6.1L308.2,272z"/>
	<path class="st0" d="M377.5,264.7h16.2l18.1-19.7H369c0,0-19.3,4.6-19.3,20.4c0,15.8,19.7,19.3,19.7,19.3h52.1l6.2-27.8h44.3
		l3.1-12h-50.1c0,0-5.4,1.2-7,2.3c-1.5,1.2-3.1,6.6-3.1,6.6l-3.9,19.3h-40.5c0,0-6.9-1.9-6.9-8.1c0-6.2,8.5-8.5,8.5-8.5h11.6
		L377.5,264.7z"/>
	<path d="M354.3,281.2c-0.4-0.2-8.9-4.2-7.3-18.3c0.8-7,5.1-13,12.2-17.3c5.3-3.2,10.4-4.4,10.6-4.4l0.3,0H411v2.3h-40.7
		c-1.6,0.4-19.2,5.1-20.9,19.7c-1.5,12.4,5.8,15.8,5.9,15.9L354.3,281.2z"/>
	<path d="M410.4,272.8H374v-2.3h34.5l3-18.5c0-0.1,1.1-3.3,4.6-6.8c3-2.9,10.3-3.2,11.1-3.2l44,0v2.3h-44c-2,0.1-7.5,0.6-9.5,2.6
		c-2.8,2.8-3.9,5.3-4,5.8L410.4,272.8z"/>
	<rect x="274.3" y="258.6" transform="matrix(0.8059 0.5921 -0.5921 0.8059 208.6705 -112.2018)" width="2.3" height="7.2"/>
	<rect x="58.8" y="242.1" width="44.2" height="2.3"/>
	<rect x="181.4" y="270.4" width="19" height="2.3"/>
	<rect x="224.9" y="270" width="20.9" height="2.3"/>
	<rect x="233.8" y="227.7" width="26" height="2.3"/>
	<rect x="375" y="258.6" transform="matrix(0.7343 0.6789 -0.6789 0.7343 277.8657 -185.7182)" width="2.3" height="6.9"/>
</g>
</svg>
