<?xml version="1.0" encoding="utf-8"?>
<!-- Generator: Adobe Illustrator 19.1.0, SVG Export Plug-In . SVG Version: 6.00 Build 0)  -->
<svg version="1.1" id="Calque_1" xmlns="http://www.w3.org/2000/svg" xmlns:xlink="http://www.w3.org/1999/xlink" x="0px" y="0px"
	 viewBox="0 0 500 500" style="enable-background:new 0 0 500 500;" xml:space="preserve">
<style type="text/css">
	.st0{fill:#FFFFFF;}
</style>
<g>
	<rect x="99.7" y="25" width="300.5" height="450"/>
	<g>
		<path class="st0" d="M231,188.5l76.7-20.6c8,6.4,15,14.3,20.5,23.2l-90,24.1c-11.5,3.1-18.4,14.9-15.3,26.5l34.9,130.3
			c-61.6,3.7-119.5-36.2-136.1-98.2c-19-70.8,23.1-143.6,93.9-162.6c70.8-19,143.6,23,162.6,93.9c19,70.8-23,143.6-93.9,162.6
			c-4.5,1.2-9.1,2.2-13.6,2.9l-35.4-132.2c-1.3-4.7,1.5-9.5,6.2-10.8l92.8-24.9c1.8,4.1,3.3,8.5,4.5,13c1.2,4.6,2.1,9.3,2.6,13.9
			l-73.2,19.6c-0.7,0.2-1,0.9-0.9,1.5l22.9,85.6c47.8-19.9,74.8-72.5,61-123.9c-15-56-72.5-89.2-128.5-74.2
			c-56,15-89.2,72.5-74.2,128.5c9.8,36.7,38,63.6,71.9,73.5l-24.5-91.3C189.1,222.6,204.7,195.5,231,188.5"/>
		<path class="st0" d="M260.2,448.6h9.2v-33.4h-9.2V448.6z M269.3,402.5h-9.2v7.6h9.2V402.5z"/>
		<path class="st0" d="M225.3,437.8c0.4,8.9,8,11.8,15.7,11.8c7.6,0,15.3-2.8,15.3-11.6c0-6.2-5.2-8.1-10.6-9.4
			c-5.2-1.2-10.4-1.7-10.4-5c0-2.7,3-3.1,5.1-3.1c3.3,0,6,1,6.3,4.5h8.7c-0.7-8.2-7.4-10.7-14.7-10.7c-7.2,0-14.5,2.2-14.5,10.7
			c0,5.9,5.3,7.8,10.6,8.9c6.6,1.4,10.4,2.4,10.4,5.2c0,3.2-3.4,4.3-6,4.3c-3.6,0-7-1.6-7-5.6L225.3,437.8L225.3,437.8z"/>
		<polygon class="st0" points="155.2,448.6 165.3,448.6 165.3,429.6 184.6,429.6 184.6,421.7 165.3,421.7 165.3,411 187.6,411 
			187.6,402.5 155.2,402.5 		"/>
		<path class="st0" d="M221.3,415.2h-9.2v17.5c0,6.8-2.1,9.6-7.1,9.6c-4.3,0-5.9-2.7-5.9-8.2v-18.9h-9.2v20.5
			c0,8.3,2.5,13.8,12.2,13.8c3.9,0,7.9-1.8,10.2-5.6h0.2v4.7h8.7V415.2z"/>
		<path class="st0" d="M288.1,405.2h-9.2v10h-5.5v6.1h5.5v19.7c0,6.7,4.9,8,10.5,8c1.8,0,3.8-0.1,5.4-0.3v-7.2
			c-1,0.2-1.9,0.2-2.8,0.2c-3.1,0-3.9-0.8-3.9-3.9v-16.5h6.7v-6.1h-6.7L288.1,405.2L288.1,405.2z"/>
		<path class="st0" d="M320.4,435.7c0,2-0.2,7.7-7.4,7.7c-3,0-5.6-0.8-5.6-4.3c0-3.4,2.6-4.3,5.4-4.9c2.8-0.5,6.1-0.6,7.6-1.9
			L320.4,435.7L320.4,435.7z M308.4,425.5c0.3-3.6,2.6-5.1,6.1-5.1c3.2,0,5.9,0.6,5.9,4.5c0,3.7-5.2,3.6-10.9,4.4
			c-5.7,0.8-11.4,2.6-11.4,10.2c0,6.8,5,10,11.4,10c4.1,0,8.3-1.1,11.3-4.1c0.1,1.1,0.3,2.2,0.6,3.2h9.3c-0.8-1.4-1.2-4.4-1.2-7.4
			v-17.4c0-8-8-9.5-14.7-9.5c-7.5,0-15.2,2.6-15.7,11.2L308.4,425.5L308.4,425.5z"/>
		<rect x="335.7" y="402.5" class="st0" width="9.2" height="46.2"/>
	</g>
</g>
</svg>
