<?xml version="1.0" encoding="utf-8"?>
<!-- Generator: Adobe Illustrator 16.0.0, SVG Export Plug-In . SVG Version: 6.00 Build 0)  -->
<!DOCTYPE svg PUBLIC "-//W3C//DTD SVG 1.1//EN" "http://www.w3.org/Graphics/SVG/1.1/DTD/svg11.dtd">
<svg version="1.1" id="Calque_1" xmlns="http://www.w3.org/2000/svg" xmlns:xlink="http://www.w3.org/1999/xlink" x="0px" y="0px"
	 width="500px" height="500px" viewBox="0 0 500 500" enable-background="new 0 0 500 500" xml:space="preserve">
<g>
	<rect x="99.742" y="25" width="300.516" height="450"/>
	<g>
		<path fill-rule="evenodd" clip-rule="evenodd" fill="#FFFFFF" d="M231.025,188.488l76.687-20.554
			c8.014,6.44,14.983,14.261,20.521,23.208l-90.038,24.132c-11.52,3.082-18.366,14.934-15.275,26.46l34.927,130.343
			c-61.635,3.724-119.453-36.199-136.063-98.182c-18.975-70.812,23.059-143.595,93.861-162.569
			c70.821-18.971,143.604,23.047,162.572,93.865c18.98,70.802-23.04,143.597-93.861,162.566c-4.531,1.217-9.081,2.185-13.618,2.905
			L235.29,238.417c-1.254-4.695,1.533-9.515,6.219-10.772l92.818-24.875c1.807,4.146,3.321,8.473,4.525,12.966
			c1.241,4.63,2.104,9.27,2.619,13.891l-73.235,19.617c-0.652,0.18-1.037,0.853-0.863,1.499l22.929,85.569
			c47.831-19.862,74.806-72.521,61.026-123.918c-14.996-55.962-72.503-89.169-128.471-74.179
			c-55.968,14.996-89.175,72.522-74.179,128.48c9.826,36.695,37.956,63.584,71.926,73.54l-24.461-91.326
			C189.091,222.586,204.702,195.539,231.025,188.488"/>
		<path fill-rule="evenodd" clip-rule="evenodd" fill="#FFFFFF" d="M260.154,448.646h9.187v-33.418h-9.187V448.646z
			 M269.341,402.491h-9.187v7.572h9.187V402.491z"/>
		<path fill="#FFFFFF" d="M225.284,437.783c0.385,8.852,7.951,11.756,15.703,11.756c7.622,0,15.257-2.843,15.257-11.632
			c0-6.206-5.238-8.144-10.602-9.372c-5.238-1.229-10.403-1.676-10.403-4.966c0-2.73,3.035-3.115,5.096-3.115
			c3.302,0,6.008,0.968,6.275,4.53h8.727c-0.714-8.205-7.436-10.663-14.735-10.663c-7.175,0-14.543,2.197-14.543,10.726
			c0,5.884,5.295,7.759,10.602,8.926c6.586,1.415,10.403,2.383,10.403,5.164c0,3.24-3.358,4.271-6.008,4.271
			c-3.631,0-6.982-1.626-7.045-5.624H225.284z"/>
		<polygon fill="#FFFFFF" points="155.17,448.633 165.313,448.633 165.313,429.565 184.641,429.565 184.641,421.683 
			165.313,421.683 165.313,411.031 187.608,411.031 187.608,402.491 155.17,402.491 		"/>
		<path fill="#FFFFFF" d="M221.262,415.228h-9.18v17.516c0,6.791-2.129,9.559-7.113,9.559c-4.258,0-5.878-2.718-5.878-8.205v-18.869
			h-9.174v20.545c0,8.28,2.458,13.767,12.209,13.767c3.879,0,7.883-1.8,10.216-5.561h0.193v4.667h8.727V415.228z"/>
		<path fill="#FFFFFF" d="M288.055,405.209h-9.18v10.019h-5.55v6.132h5.55v19.714c0,6.666,4.916,7.957,10.539,7.957
			c1.813,0,3.811-0.074,5.363-0.322v-7.176c-0.969,0.187-1.875,0.249-2.844,0.249c-3.104,0-3.879-0.771-3.879-3.874v-16.548h6.723
			v-6.132h-6.723V405.209z"/>
		<path fill-rule="evenodd" clip-rule="evenodd" fill="#FFFFFF" d="M320.381,435.71c0,2.012-0.249,7.697-7.424,7.697
			c-2.974,0-5.63-0.845-5.63-4.271c0-3.364,2.589-4.333,5.438-4.916c2.837-0.509,6.07-0.571,7.616-1.937V435.71z M308.363,425.506
			c0.329-3.625,2.589-5.052,6.077-5.052c3.24,0,5.94,0.583,5.94,4.53c0,3.749-5.221,3.551-10.856,4.395
			c-5.68,0.782-11.371,2.582-11.371,10.155c0,6.84,5.046,10.005,11.371,10.005c4.078,0,8.342-1.092,11.253-4.134
			c0.057,1.105,0.323,2.197,0.646,3.228h9.298c-0.831-1.353-1.154-4.395-1.154-7.436v-17.379c0-8.008-8.013-9.497-14.673-9.497
			c-7.492,0-15.188,2.582-15.697,11.185H308.363z"/>
		<rect x="335.668" y="402.491" fill="#FFFFFF" width="9.174" height="46.154"/>
	</g>
</g>
</svg>
