<?xml version="1.0" encoding="utf-8"?>
<!-- Generator: Adobe Illustrator 19.1.0, SVG Export Plug-In . SVG Version: 6.00 Build 0)  -->
<svg version="1.1" id="Calque_1" xmlns="http://www.w3.org/2000/svg" xmlns:xlink="http://www.w3.org/1999/xlink" x="0px" y="0px"
	 viewBox="-345 170.9 500 500" style="enable-background:new -345 170.9 500 500;" xml:space="preserve">
<style type="text/css">
	.st0{fill:#000077;}
	.st1{fill:#FFFFFF;}
</style>
<path class="st0" d="M-92.6,370.2h-16.5c-1.5,0-2.7,1.2-2.7,2.7v11.9c0,0-4.9-15.2-21.7-15.2c-8.2,0-15.2,1.6-20.9,4.8
	c-5.6,3.1-10.2,7.2-13.7,12.1c-3.4,4.8-5.9,10.3-7.3,16.2c-1.4,5.8-2.2,11.5-2.2,17c0,6.4,0.9,12.5,2.6,18.2
	c1.8,5.8,4.5,10.9,8,15.3c3.6,4.4,8.1,8,13.4,10.5c24,11.5,41.3-9,41.3-9c-0.1,3.7,5.6,30.3-21.4,30.3c-14.4,0-15.7-6.8-15.8-8.9
	c-0.1-1.4-1.2-2.6-2.7-2.6h-20.7c-0.7,0-1.4,0.3-1.9,0.8s-0.7,1.2-0.7,2c0,10.9,11.4,18.2,15.2,20.4c3.7,2.2,8,3.8,12.6,4.8
	c4.5,1,9,1.4,13.3,1.4c15,0,26.3-4,33.5-11.8c7.1-7.8,10.8-14.9,10.8-34.8l0.1-83.4C-90,371.4-91.2,370.2-92.6,370.2z M-133.9,447
	c-4.1,0-7.5-0.8-10.1-2.4c-2.7-1.7-4.9-3.9-6.5-6.6c-1.7-2.8-2.9-6-3.6-9.4c-0.7-3.6-1.1-7.2-1.1-10.8c0-3.8,0.4-7.4,1.3-10.8
	c0.8-3.3,2.2-6.3,4-8.8s4.1-4.5,6.9-5.9c2.8-1.5,6.2-2.2,10.3-2.2c3.9,0,7.2,0.8,9.9,2.2c2.7,1.5,4.9,3.5,6.6,6
	c1.7,2.6,3,5.5,3.8,8.8s1.2,6.8,1.2,10.2c0,3.6-0.4,7.3-1.3,11c-0.9,3.6-2.2,6.8-4,9.6c-1.7,2.7-4.1,4.9-6.9,6.6
	C-126.3,446.2-129.8,447-133.9,447z"/>
<path class="st0" d="M3.7,460c-2.1-1.7-5.3-6.6-5.3-11.1c0-0.8,0.3-53.1,0.3-53.1c0-5.6-3.3-17.7-13.9-22.2
	c-3.6-1.5-7.3-3.2-11.4-3.8c-4-0.6-8.1-0.9-12.1-0.9c-5.1,0-10,0.5-14.5,1.6c-4.6,1.1-8.8,2.9-12.4,5.5c-3.7,2.6-6.7,6-8.9,10.1
	c-2.2,4.1-3.3,6.5-3.5,12.3c0,0.7,0.2,1.4,0.7,1.9s1.2,0.8,1.9,0.8h17.3c1.4,0,2.6-1.1,2.6-2.5c0.3-5.6,3.2-8.6,6.4-10.4
	c3.6-2.1,4.2-1.9,9.8-1.9c17.6,0,15,10.1,15,12.8c0,2-5,9-18.4,9c-26.5,0-34.2,14.2-36.1,17.7c-1.9,3.6-2.8,8.1-2.8,13.6
	c0,4.8,0.8,9.7,2.4,13.2c8.9,19.7,32.2,15.1,37.7,12.9c7.5-2.9,13.8-7.8,17-10.8c0.7,2.6,1.2,6.5,2.8,8l25.4,0.1L3.7,460z
	 M-24.4,420.3v10.1c0,1.6-0.4,3.4-1.1,5.4c-0.7,1.9-1.9,3.8-3.6,5.5c-1.6,1.7-3.8,3.2-6.4,4.3c-2.6,1.1-5.9,1.7-9.7,1.7
	c-1.8,0-3.5-0.2-5-0.6s-2.8-1-3.8-1.8s-1.9-1.8-2.5-3.1c-0.6-1.2-0.9-2.8-0.9-4.6c0-2.9,0.6-5.2,1.6-6.8c1.2-1.7,2.7-3,4.6-4
	c2.1-1,4.4-1.8,7-2.2c2.8-0.5,5.6-0.9,8.3-1.3c2.8-0.4,5.6-0.9,8.2-1.5C-26.5,421.1-25.4,420.7-24.4,420.3z"/>
<path class="st0" d="M130.1,460c-2.1-1.7-5.3-6.6-5.3-11.1c0-0.8,0.3-53.1,0.3-53.1c0-5.6-3.3-17.7-13.9-22.2
	c-3.6-1.5-7.3-3.2-11.4-3.8c-4-0.6-8.1-0.9-12.1-0.9c-5.1,0-10,0.5-14.5,1.6c-4.6,1.1-8.8,2.9-12.4,5.5c-3.7,2.6-6.7,6-8.9,10.1
	s-3.3,6.5-3.5,12.3c0,0.7,0.2,1.4,0.7,1.9s1.2,0.8,1.9,0.8h17.3c1.4,0,2.6-1.1,2.6-2.5c0.3-5.6,3.2-8.6,6.4-10.4
	c3.6-2.1,4.2-1.9,9.8-1.9c17.6,0,15,10.1,15,12.8c0,2-5,9-18.4,9c-26.5,0-34.2,14.2-36.1,17.7c-1.9,3.6-2.8,8.1-2.8,13.6
	c0,4.8,0.8,9.7,2.4,13.2c8.9,19.7,32.2,15.1,37.7,12.9c7.5-2.9,13.8-7.8,17-10.8c0.7,2.6,1.2,6.5,2.8,8l25.4,0.1V460z M101.9,420.3
	v10.1c0,1.6-0.4,3.4-1.1,5.4c-0.7,1.9-1.9,3.8-3.6,5.5c-1.6,1.7-3.8,3.2-6.4,4.3c-2.6,1.1-5.9,1.7-9.7,1.7c-1.8,0-3.5-0.2-5-0.6
	s-2.8-1-3.8-1.8s-1.9-1.8-2.5-3.1c-0.6-1.2-0.9-2.8-0.9-4.6c0-2.9,0.6-5.2,1.6-6.8c1.2-1.7,2.7-3,4.6-4c2.1-1,4.4-1.8,7-2.2
	c2.8-0.5,5.6-0.9,8.3-1.3c2.8-0.4,5.6-0.9,8.2-1.5C99.8,421.1,100.9,420.7,101.9,420.3z"/>
<path class="st0" d="M34.3,338.8H14.8c-1.2,0-2.1,1-2.1,2.1v119.7c0,1.2,1,2.1,2.1,2.1h19.6c1.2,0,2.1-1,2.1-2.1V341
	C36.5,339.8,35.5,338.8,34.3,338.8z"/>
<path class="st0" d="M18.6,343.1h-4.1c-1,0-1.9,0.9-1.9,2.1v115.5c0,1.1,0.8,2.1,1.9,2.1h17.1c1,0,1.9-0.9,1.9-2.1v-2.2"/>
<path class="st0" d="M-215.3,441.1c0,10-7.7,18-17.2,18h-70.3c-9.5,0-17.2-8.1-17.2-18l0,0c0-10,7.7-18,17.2-18h70.3
	C-223.1,423.1-215.3,431.1-215.3,441.1L-215.3,441.1z"/>
<path class="st0" d="M-226.9,416.7l-18-31.3c-4.5-9.3-12.4-14.6-21.7-14.6c-13,0-23.6,10.8-23.6,24c0,13.1,10,23.6,22.9,24l0,0l0,0
	l39.9-1.2c0.2,0,0.4-0.1,0.6-0.3C-226.8,417.1-226.8,416.9-226.9,416.7z"/>
<path class="st1" d="M-120.8,376.7c-2.1-1.5-4.6-2.6-7.2-3.2c-1.3-0.3-2.6-0.5-3.9-0.6c-0.7-0.1-1.5-0.1-2.4-0.1c-0.5,0-1,0-1.4,0
	c-2.6,0.1-5.2,0.3-7.7,0.8c-2.7,0.5-5.2,1.3-7.5,2.2c-2.3,1-4.6,2.2-6.8,3.7c-4.4,3-8.1,6.8-10.6,11l0.6,0.5
	c3.1-3.8,6.9-7.1,11.1-9.7c4.1-2.6,8.7-4.4,13.6-5.3c2.2-0.4,4.6-0.7,7.3-0.8c0.8,0,1.7-0.1,2.6-0.1c0.4,0,0.7,0,1.1,0
	c1.3,0.1,2.5,0.2,3.6,0.4c2.4,0.5,4.7,1.3,6.8,2.5c2,1.1,3.9,2.7,5.7,4.6l0.3-0.2v0.4v-0.3l0.3-0.3
	C-116.8,380.1-118.6,378.2-120.8,376.7z"/>
<path class="st1" d="M-91.8,375.5c0-1-0.4-2-1.1-2.6c-0.4-0.3-0.8-0.6-1.3-0.7c-0.2-0.1-0.4-0.1-0.7-0.1H-95l-5.2,0.1
	c-2.9,0-5.9,0.1-9.2,0.2v0.8c3.3,0.1,6.3,0.2,9.2,0.2l5.2,0.1c0.1,0,0.3,0,0.4,0.1c0.2,0.1,0.5,0.2,0.7,0.4c0.4,0.4,0.6,0.9,0.5,1.5
	l-0.2,18.4c-0.2,12.6-0.2,25.4-0.2,36.7v18.3c0,1.1,0,2.1,0,3.2c0,2,0,4,0,6c-0.1,3.6-0.2,6.4-0.5,9.1c-0.4,3.4-0.9,6.2-1.7,8.8
	c-0.9,2.8-2.2,5.5-3.8,8c-2.1,3.1-3.8,5.2-5.8,6.9c-2.1,1.9-4.7,3.6-7.5,4.9l0.3,0.7c3-1.2,5.7-2.8,8-4.7c1.2-0.9,2.3-2.1,3.4-3.3
	c1.1-1.3,2.1-2.5,2.9-3.6c1.8-2.6,3.2-5.4,4.2-8.4c0.9-2.7,1.5-5.6,2-9.1c0.4-2.8,0.6-5.8,0.7-9.2c0.1-2,0.1-4.1,0.1-6
	c0-1,0-2.1,0-3.2l0.1-18.3c0-11.3,0-24.1-0.1-36.7L-91.8,375.5z"/>
<path class="st1" d="M-151.1,478.9c0-0.2,0-0.4,0-0.6c0-0.1,0-0.2,0-0.3c0-0.1,0-0.3,0-0.5c0-0.6-0.3-1.3-0.6-1.8
	c-0.4-0.6-0.9-1-1.5-1.3c-0.3-0.1-0.7-0.2-1-0.3c-0.2,0-0.4,0-0.5,0h-0.4c-0.8,0-1.7,0-2.8,0l0,0c-2.1,0-3.9,0.1-5.6,0.2
	c-2.3,0.1-4,0.4-5.7,0.7l-2.1,0.4l2.1,0.4c1.7,0.3,3.4,0.5,5.7,0.7c1.8,0.1,3.6,0.2,5.7,0.2c1.1,0,2,0,2.8,0h0.4c0.1,0,0.2,0,0.2,0
	c0.2,0,0.3,0,0.4,0.1c0.3,0.1,0.5,0.2,0.7,0.5c0.2,0.2,0.3,0.5,0.4,0.8c0,0.1,0,0.2,0.1,0.3c0,0.1,0,0.3,0.1,0.4
	c0.1,0.3,0.1,0.5,0.2,0.8c0.4,1,0.9,1.9,1.6,2.6l1.4,1.4l-0.8-1.9C-150.8,480.5-151.1,479.7-151.1,478.9z"/>
<path class="st1" d="M-144.3,446c-0.5-0.3-1-0.5-1.5-0.9c-0.3-0.2-0.5-0.4-0.7-0.5l0,0c-0.2-0.2-0.4-0.3-0.7-0.5
	c-1-0.8-1.8-1.6-2.6-2.5c-1.4-1.6-2.7-3.6-3.9-6.1c-1-2.1-1.8-4.4-2.6-7l-0.9-2.8l0.1,2.9c0.1,2.7,0.6,5.3,1.4,7.7
	c1,2.8,2.3,5.1,4,7c1,1.1,2,2,3,2.7c0.3,0.2,0.5,0.4,0.8,0.5l0,0c0.3,0.2,0.6,0.4,0.9,0.5c0.6,0.3,1.2,0.6,1.9,0.9
	c1.9,0.7,3.9,1.1,6.1,1.1c0.6,0,1.2,0,1.8-0.1l2.9-0.3l-2.9-0.5C-140.3,447.6-142.6,446.9-144.3,446z"/>
<path class="st1" d="M-4.1,453.8c-0.1-0.6-0.1-1.3-0.1-1.9l0.2-6c0.1-4.7,0.3-10.2,0.3-15.9c0.1-3.6,0.1-7.3,0.2-10.8
	c0-1.7,0-3.4,0.1-5.1l0.1-14c0-0.2,0-0.4,0-0.6c0-0.5,0-0.9,0-1.4c-0.1-2.6-0.7-5.3-1.7-8.1c-1-2.7-2.3-5.2-3.9-7.3
	c-1.8-2.3-3.8-4.2-6.2-5.6c-0.6-0.4-1.2-0.7-1.8-1c-0.5-0.3-1-0.5-1.5-0.7l-0.3-0.1c-1.1-0.5-2.4-1-3.7-1.5c-2.9-1.1-5.5-1.8-7.9-2
	c-2.7-0.3-5.4-0.5-8-0.6c-6-0.1-11.2,0.4-16,1.5l0.2,0.8c3.5-0.6,7.2-0.9,10.9-0.9c1.6,0,3.3,0.1,4.9,0.2c2.6,0.2,5.3,0.4,7.8,0.8
	c2.3,0.3,4.8,1,7.4,2.1c1.2,0.5,2.4,1,3.6,1.6c0.2,0.1,0.4,0.2,0.5,0.2c0.4,0.2,0.8,0.4,1.2,0.6c0.6,0.3,1.1,0.6,1.6,0.9
	c2.1,1.3,3.9,3,5.5,5.1c1.5,2,2.7,4.3,3.5,6.7c0.9,2.6,1.4,5.1,1.5,7.4v15.9c0,1.7,0,3.4,0,5.1c0,3.6,0,7.2,0,10.9
	c0,5.8,0.1,11.6,0.1,15.9l0.1,6c0,0.7,0.1,1.4,0.3,2.1c0.5,2.5,1.8,5.1,3.6,7.3l0.3-0.2v0.4v-0.4L-1,461c-0.7-1-1.4-2.2-1.9-3.4
	C-3.5,456.2-3.9,455-4.1,453.8z"/>
<path class="st1" d="M-52.4,413.1c1.6-0.3,3.3-0.5,4.8-0.7c1.7-0.2,3.3-0.3,4.8-0.4c2-0.1,3.5-0.4,5-0.7l3.4-0.9l-3.5,0.1
	c-0.5,0-1,0-1.4,0c-1.2,0-2.3,0-3.4-0.1c-1.1-0.1-2.1-0.1-3.1-0.1c-0.6,0-1.3,0-1.9,0c-3.4,0.1-6.7,0.6-10,1.5
	c-1.7,0.5-3.3,1-4.8,1.6c-1.8,0.8-3.3,1.5-4.5,2.3c-3.1,1.9-5.6,4.1-7.5,6.7l-2.2,3l2.8-2.4c2.4-2.1,5.1-4,7.9-5.4
	c1.7-0.8,3.1-1.4,4.4-1.9c1.5-0.6,3.1-1.1,4.6-1.5C-55.7,413.7-54.2,413.4-52.4,413.1z"/>
<path class="st1" d="M-39.9,448.6c-1.4,0.2-2.9,0.4-4.6,0.4c-0.3,0-0.6,0-0.9,0c-2.1-0.1-3.9-0.2-5.6-0.5c-1.6-0.3-3.5-0.7-5.3-1.7
	l-1.9-1l1.4,1.6c0.6,0.7,1.4,1.3,2.5,1.9c0.9,0.5,1.9,0.9,2.8,1.2c1.8,0.6,3.7,0.9,6,0.9c0.2,0,0.3,0,0.5,0c2.1,0,3.9-0.3,5.6-0.8
	c2.1-0.7,3.9-1.6,5.4-2.8l1.7-1.4l-2.1,0.7C-36.3,447.7-38.1,448.2-39.9,448.6z"/>
<path class="st1" d="M123.2,457.5c-0.6-1.3-0.9-2.5-1.1-3.7c-0.1-0.6-0.2-1.3-0.1-1.9l0.2-6c0.1-4.4,0.2-10.1,0.3-15.9
	c0.1-3.6,0.1-7.3,0.2-10.8c0-1.7,0-3.4,0.1-5.1l0.1-14c0-0.2,0-0.4,0-0.6c0-0.5,0-0.9,0-1.4c-0.1-2.6-0.7-5.3-1.7-8.1
	c-1-2.7-2.3-5.2-3.9-7.3c-1.8-2.3-3.8-4.2-6.2-5.6c-0.6-0.4-1.2-0.7-1.8-1c-0.5-0.3-1-0.5-1.6-0.7l-0.3-0.1c-1.1-0.5-2.4-1-3.7-1.5
	c-2.9-1.1-5.5-1.8-7.9-2c-2.7-0.3-5.4-0.5-8-0.6c-6-0.1-11.2,0.4-16,1.5l0.2,0.8c3.5-0.6,7.2-0.9,10.9-0.9c1.6,0,3.3,0.1,4.9,0.2
	c2.6,0.2,5.3,0.4,7.8,0.8c2.3,0.3,4.8,1,7.4,2.1c1.2,0.5,2.4,1,3.6,1.6c0.2,0.1,0.4,0.2,0.5,0.2c0.4,0.2,0.8,0.4,1.2,0.6
	c0.6,0.3,1.1,0.6,1.6,0.9c2.1,1.3,3.9,3,5.5,5.1c1.5,2,2.7,4.3,3.5,6.7c0.9,2.6,1.4,5.1,1.5,7.4v15.9c0,1.7,0,3.4,0,5
	c0,3.6,0,7.3,0,10.9c0,5.8,0.1,11.6,0.1,15.9l0.1,6c0,0.7,0.1,1.4,0.3,2.1c0.5,2.5,1.8,5.1,3.6,7.3l0.3-0.2v0.4v-0.4l0.3-0.2
	C124.5,459.8,123.9,458.7,123.2,457.5z"/>
<path class="st1" d="M73.9,413.1c1.6-0.3,3.3-0.5,4.8-0.7c1.7-0.2,3.3-0.3,4.8-0.4c2-0.1,3.5-0.4,5-0.7l3.4-0.9l-3.5,0.1
	c-0.5,0-1,0-1.4,0c-1.2,0-2.3,0-3.4-0.1s-2.1-0.1-3.1-0.1c-0.6,0-1.3,0-1.9,0c-3.4,0.1-6.7,0.6-10,1.5c-1.7,0.5-3.3,1-4.8,1.6
	c-1.8,0.8-3.3,1.5-4.5,2.3c-3.1,1.9-5.6,4.1-7.5,6.7l-2.2,3l2.8-2.4c2.4-2.1,5.1-4,7.9-5.4c1.7-0.8,3.1-1.4,4.4-1.9
	c1.5-0.6,3.1-1.1,4.6-1.5C70.6,413.7,72.1,413.4,73.9,413.1z"/>
<path class="st1" d="M86.4,448.6c-1.4,0.2-2.9,0.4-4.6,0.4c-0.3,0-0.6,0-0.9,0c-2.1-0.1-3.9-0.2-5.6-0.5c-1.6-0.3-3.5-0.7-5.3-1.7
	l-1.9-1l1.4,1.6c0.6,0.7,1.4,1.3,2.5,1.9c0.9,0.5,1.9,0.9,2.8,1.2c1.8,0.6,3.7,0.9,6,0.9c0.2,0,0.3,0,0.5,0c2.1,0,3.9-0.3,5.6-0.8
	c2.1-0.7,3.9-1.6,5.4-2.8l1.7-1.4l-2.1,0.7C90,447.7,88.2,448.2,86.4,448.6z"/>
<path class="st1" d="M34.6,372.2c0-3.5,0-7.2-0.1-10.8c-0.1-5.7-0.2-11.4-0.2-16.2c0-0.9-0.4-1.9-1.2-2.4c-0.4-0.3-0.9-0.5-1.4-0.5
	c-0.3,0-0.5,0-0.7,0c-0.1,0-0.2,0-0.4,0l-4,0.1c-2.6,0.1-5.2,0.1-8.1,0.2v0.8c2.9,0.1,5.5,0.2,8.1,0.2l4,0.1c0.1,0,0.2,0,0.4,0
	s0.4,0,0.6,0c0.2,0,0.4,0.1,0.5,0.2c0.3,0.3,0.5,0.7,0.5,1.2c-0.1,4.8-0.2,10.4-0.2,16.2c-0.1,3.6-0.1,7.3-0.1,10.8
	c0,1.8,0,3.6,0,5.4v16.2v16.2c0,1.7,0,3.4,0,5.2c0,3.6,0,7.3,0.1,11c0.1,10.7,0.3,21.6,0.7,32.4h0.8c0.3-10.7,0.5-21.6,0.7-32.4
	c0.1-3.7,0.1-7.4,0.1-11c0-1.7,0-3.5,0-5.2v-16.2v-16.2C34.7,375.8,34.6,374,34.6,372.2z"/>
<path class="st1" d="M-222.9,428.6c-2-1.7-4.4-2.9-7-3.5c-1.3-0.3-2.6-0.5-3.9-0.5l-3.8-0.1c-3.3-0.1-6.7-0.1-10-0.1
	c-1.7,0-3.3,0-5,0h-15h-15c-1.6,0-3.2,0-4.8,0c-3.4,0-6.8,0.1-10.2,0.1h-3.8c-1.3,0-2.7,0.2-3.9,0.5c-2.6,0.6-5,1.8-7,3.5
	c-4,3.4-6.4,8.6-6.2,13.8h0.8c0.1-2.4,0.7-4.9,1.8-7s2.7-4,4.6-5.5c1.9-1.5,4.1-2.5,6.4-2.9c1.1-0.2,2.2-0.3,3.2-0.3
	c0.1,0,0.2,0,0.3,0h3.8c3.4,0.1,6.9,0.1,10.3,0.1c1.6,0,3.2,0,4.8,0h15h15c1.7,0,3.3,0,5,0c3.3,0,6.7,0,10-0.1h3.8
	c1.2,0,2.3,0.1,3.5,0.3c2.3,0.5,4.5,1.5,6.4,2.9s3.5,3.3,4.6,5.5c1.1,2.1,1.7,4.6,1.8,7h0.8C-216.6,437.2-218.9,432-222.9,428.6z"/>
<path class="st1" d="M-280.7,380.6c2.6-2.1,5.7-3.5,8.9-4.2c1.4-0.3,2.9-0.4,4.3-0.4c1.9,0,3.7,0.3,5.4,0.7c3.1,0.8,6,2.5,8.4,4.8
	c2.3,2.1,4.2,4.8,5.8,8l0.1,0.3l2.5,4.3c0.9,1.6,1.8,3.2,2.6,4.5c4.3,7.3,7.6,12.8,10.9,17.9l0.3-0.2v0.4v-0.4l0.4-0.2
	c-2.6-5.5-5.5-11.3-9.4-18.8c-0.9-1.7-1.7-3.2-2.5-4.6l-1.2-2.3l-1-1.9l-0.2-0.4c-1.6-3.5-3.8-6.5-6.4-8.9c-2.8-2.6-6.2-4.5-9.7-5.4
	c-3.7-0.9-7.5-0.9-11,0c-1.8,0.5-3.6,1.2-5.1,2c-1.6,0.9-3.1,2-4.5,3.2c-2.7,2.5-4.8,5.5-6,8.9l0.7,0.3
	C-285.5,385.2-283.2,382.6-280.7,380.6z"/>
<path class="st1" d="M-115.6,382.5c-1.7-1.9-3.6-3.5-5.8-4.7c-2.1-1.2-4.5-2.1-6.9-2.6c-1.2-0.2-2.4-0.4-3.6-0.4s-2.5,0-3.7,0.1
	c-2.5,0.1-5,0.4-7.4,0.9c-4.9,0.9-9.5,2.6-13.7,5.3c-4.2,2.6-8,5.9-11.2,9.8c2.6-4.3,6.3-8,10.5-10.9c2.1-1.5,4.4-2.7,6.7-3.7
	c2.4-1,4.9-1.7,7.4-2.2s5.1-0.7,7.6-0.8c1.3,0,2.5,0,3.9,0.1c1.3,0.1,2.6,0.3,3.8,0.6c2.5,0.6,4.9,1.7,7,3.1
	C-118.9,378.5-117,380.4-115.6,382.5z"/>
<path class="st1" d="M-113,496c2.8-1.3,5.4-2.9,7.6-4.9c2.3-2,4.1-4.4,5.8-7c1.7-2.5,3-5.2,3.9-8.1s1.4-5.9,1.7-8.9
	c0.3-3,0.4-6.1,0.5-9.1c0-3,0-6.1,0-9.2v-18.3c0-12.2,0.1-24.4,0.2-36.7l0.2-18.3c0-0.7-0.2-1.4-0.7-1.8c-0.2-0.2-0.5-0.4-0.8-0.5
	c-0.2,0-0.3-0.1-0.5-0.1h-0.6l-4.6-0.1c-3.1-0.1-6.1-0.1-9.2-0.2c3.1-0.1,6.1-0.2,9.2-0.2l4.6-0.1h0.6c0.2,0,0.4,0,0.6,0.1
	c0.4,0.1,0.8,0.3,1.1,0.6c0.6,0.6,1,1.5,1,2.3l0.2,18.3c0.1,12.2,0.1,24.4,0.1,36.7l-0.1,18.3c0,3.1,0,6.1-0.1,9.2s-0.3,6.1-0.7,9.2
	c-0.4,3.1-1,6.1-2,9s-2.4,5.7-4.2,8.3c-0.9,1.3-1.9,2.5-2.9,3.6c-1,1.2-2.1,2.3-3.3,3.2C-107.4,493.3-110.1,494.9-113,496z"/>
<path class="st1" d="M-150.8,481.6c-0.7-0.7-1.2-1.5-1.5-2.5c-0.1-0.2-0.1-0.5-0.2-0.7c-0.1-0.2-0.1-0.5-0.1-0.7
	c-0.1-0.4-0.3-0.7-0.5-1s-0.6-0.4-0.9-0.6c-0.2-0.1-0.3-0.1-0.5-0.1c-0.1,0-0.1,0-0.3,0h-0.4c-0.9,0-1.9,0-2.8,0
	c-1.9,0-3.8-0.1-5.7-0.2s-3.8-0.3-5.7-0.7c1.9-0.4,3.8-0.5,5.7-0.7c1.9-0.1,3.8-0.2,5.7-0.2c0.9,0,1.9,0,2.8,0h0.4
	c0.1,0,0.3,0,0.4,0c0.3,0,0.6,0.1,0.9,0.3c0.6,0.2,1,0.6,1.4,1.1c0.3,0.5,0.5,1,0.6,1.6c0,0.3,0,0.5,0,0.7s0,0.4,0,0.7
	C-151.4,479.8-151.1,480.7-150.8,481.6z"/>
<path class="st1" d="M-137.4,448.5c-2.6,0.2-5.2,0-7.7-1c-0.6-0.2-1.2-0.5-1.8-0.9c-0.3-0.2-0.6-0.3-0.8-0.5
	c-0.3-0.2-0.6-0.4-0.8-0.6c-1.1-0.8-2-1.7-2.9-2.7c-1.8-2-3-4.4-3.9-6.8c-0.9-2.5-1.4-5-1.4-7.6c0.8,2.5,1.6,4.8,2.6,7.1
	c1.1,2.2,2.3,4.4,3.9,6.2c0.8,0.9,1.7,1.8,2.6,2.5c0.2,0.2,0.5,0.4,0.7,0.6s0.5,0.4,0.8,0.5c0.5,0.3,1,0.6,1.6,0.9
	C-142.3,447.4-139.9,448.1-137.4,448.5z"/>
<path class="st1" d="M-1.4,461.1c-1.7-2.1-3-4.5-3.5-7.1c-0.1-0.7-0.2-1.3-0.2-2v-2l-0.1-4c-0.1-5.3-0.1-10.6-0.1-15.9
	s0-10.6,0-15.9v-15.9c-0.1-2.5-0.7-5.1-1.6-7.5s-2.1-4.7-3.6-6.8c-1.5-2.1-3.4-3.9-5.6-5.2c-0.5-0.3-1.1-0.7-1.7-0.9
	c-0.6-0.3-1.2-0.5-1.8-0.8c-1.2-0.5-2.4-1.1-3.6-1.6c-2.4-1-4.9-1.8-7.5-2.1c-2.6-0.4-5.2-0.7-7.9-0.8c-5.3-0.4-10.6-0.1-15.8,0.7
	c5.2-1.2,10.5-1.6,15.9-1.5c2.7,0.1,5.3,0.3,8,0.6c2.7,0.3,5.3,1,7.8,2c1.3,0.5,2.5,1,3.7,1.5c0.6,0.3,1.2,0.5,1.9,0.8
	c0.6,0.3,1.2,0.6,1.8,1c2.4,1.4,4.4,3.3,6.1,5.5c1.7,2.2,2.9,4.6,3.9,7.2c0.9,2.6,1.6,5.2,1.7,8c0,0.7,0,1.4,0,2v2v4l-0.1,8
	c-0.1,5.3-0.1,10.6-0.2,15.9c-0.1,5.3-0.2,10.6-0.3,15.9l-0.1,4l-0.1,2c0,0.6,0,1.3,0.1,1.9c0.2,1.3,0.6,2.6,1.1,3.8
	C-2.8,458.9-2.2,460-1.4,461.1z"/>
<path class="st1" d="M-37.9,410.8c-1.6,0.4-3.3,0.6-4.9,0.7c-1.6,0.1-3.3,0.3-4.9,0.4c-1.6,0.2-3.2,0.4-4.8,0.7
	c-1.6,0.3-3.2,0.6-4.7,1c-1.6,0.4-3.1,0.9-4.6,1.5c-1.5,0.5-3,1.2-4.4,1.9c-2.9,1.5-5.6,3.3-8,5.5c2-2.7,4.5-4.9,7.4-6.6
	c1.4-0.9,2.9-1.6,4.5-2.3c1.5-0.6,3.1-1.2,4.7-1.6c3.2-0.8,6.5-1.3,9.9-1.4c1.7-0.1,3.3,0,5,0.1C-41.2,410.8-39.6,410.8-37.9,410.8z
	"/>
<path class="st1" d="M-34.2,447.5c-1.5,1.3-3.3,2.1-5.2,2.8c-1.9,0.6-4,0.8-6,0.8c-2-0.1-4-0.3-5.9-0.9c-1-0.3-1.9-0.7-2.8-1.1
	c-0.9-0.5-1.7-1.1-2.4-1.8c1.7,0.9,3.6,1.4,5.4,1.7c1.8,0.3,3.8,0.4,5.6,0.5c1.9,0,3.8,0,5.6-0.4C-37.9,448.6-36.1,448.1-34.2,447.5
	z"/>
<path class="st1" d="M124.9,461.1c-1.7-2.1-3-4.5-3.5-7.1c-0.1-0.7-0.2-1.3-0.2-2v-2l-0.1-4c-0.1-5.3-0.1-10.6-0.1-15.9
	s0-10.6,0-15.9v-15.9c-0.1-2.5-0.7-5.1-1.6-7.5s-2.1-4.7-3.6-6.8c-1.5-2.1-3.4-3.9-5.6-5.2c-0.5-0.3-1.1-0.7-1.7-0.9
	c-0.6-0.3-1.2-0.5-1.8-0.8c-1.2-0.5-2.4-1.1-3.6-1.6c-2.4-1-4.9-1.8-7.5-2.1c-2.6-0.4-5.2-0.7-7.9-0.8c-5.3-0.4-10.6-0.1-15.8,0.7
	c5.2-1.2,10.5-1.6,15.9-1.5c2.7,0.1,5.3,0.3,8,0.6c2.7,0.3,5.3,1,7.8,2c1.3,0.5,2.5,1,3.7,1.5c0.6,0.3,1.2,0.5,1.9,0.8
	c0.6,0.3,1.2,0.6,1.8,1c2.4,1.4,4.4,3.3,6.1,5.5s2.9,4.6,3.9,7.2c0.9,2.6,1.6,5.2,1.7,8c0,0.7,0,1.4,0,2v2v4l-0.1,8
	c-0.1,5.3-0.1,10.6-0.2,15.9s-0.2,10.6-0.3,15.9l-0.1,4l-0.1,2c0,0.6,0,1.3,0.1,1.9c0.2,1.3,0.6,2.6,1.1,3.8
	C123.5,458.9,124.1,460,124.9,461.1z"/>
<path class="st1" d="M88.4,410.8c-1.6,0.4-3.3,0.6-4.9,0.7s-3.3,0.3-4.9,0.4c-1.6,0.2-3.2,0.4-4.8,0.7c-1.6,0.3-3.2,0.6-4.7,1
	c-1.6,0.4-3.1,0.9-4.6,1.5c-1.5,0.5-3,1.2-4.4,1.9c-2.9,1.5-5.6,3.3-8,5.5c2-2.7,4.5-4.9,7.4-6.6c1.4-0.9,2.9-1.6,4.5-2.3
	c1.5-0.6,3.1-1.2,4.7-1.6c3.2-0.8,6.5-1.3,9.9-1.4c1.7-0.1,3.3,0,5,0.1C85.1,410.8,86.7,410.8,88.4,410.8z"/>
<path class="st1" d="M92.1,447.5c-1.5,1.3-3.3,2.1-5.2,2.8c-1.9,0.6-4,0.8-6,0.8c-2-0.1-4-0.3-5.9-0.9c-1-0.3-1.9-0.7-2.8-1.1
	c-0.9-0.5-1.7-1.1-2.4-1.8c1.7,0.9,3.6,1.4,5.4,1.7c1.8,0.3,3.8,0.4,5.6,0.5c1.9,0,3.8,0,5.6-0.4C88.4,448.6,90.2,448.1,92.1,447.5z
	"/>
<path class="st1" d="M33.5,458.5c-0.3-10.8-0.5-21.6-0.7-32.3c-0.1-5.4-0.1-10.8-0.1-16.2v-16.2v-16.2c0-5.4,0.1-10.8,0.1-16.2
	c0.1-5.4,0.1-10.8,0.2-16.2c0-0.6-0.2-1.1-0.6-1.5c-0.2-0.2-0.5-0.3-0.7-0.3c-0.3,0-0.7,0-1,0l-4-0.1c-2.7-0.1-5.4-0.1-8.1-0.2
	c2.7-0.1,5.4-0.2,8.1-0.2l4-0.1c0.3,0,0.7,0,1,0c0.4,0,0.8,0.2,1.1,0.4c0.7,0.5,1,1.3,1,2.1c0.1,5.4,0.2,10.8,0.2,16.2
	c0.1,5.4,0.1,10.8,0.1,16.2v16.2v16.2c0,5.4-0.1,10.8-0.1,16.2C34,436.9,33.8,447.7,33.5,458.5z"/>
<path class="st1" d="M-318.3,442.3c-0.2-5,2.1-10.1,6-13.4c2-1.6,4.3-2.8,6.8-3.5c1.3-0.3,2.6-0.5,3.8-0.5l3.8-0.1
	c5-0.1,10-0.1,15-0.1h15h15c5,0,10,0.1,15,0.1h3.8c1.3,0,2.6,0.2,3.9,0.5c2.5,0.6,4.9,1.8,6.8,3.5c3.9,3.3,6.2,8.4,6,13.4
	c-0.1-2.5-0.7-5-1.8-7.2s-2.7-4.1-4.7-5.6c-1.9-1.5-4.2-2.5-6.6-3c-1.2-0.2-2.4-0.4-3.6-0.3h-3.8c-5,0.1-10,0.1-15,0.1h-15h-15
	c-5,0-10-0.1-15-0.1h-3.8c-1.2,0-2.4,0.1-3.6,0.3c-2.4,0.5-4.6,1.5-6.6,3c-1.9,1.5-3.6,3.4-4.7,5.6
	C-317.5,437.4-318.2,439.8-318.3,442.3z"/>
<path class="st1" d="M-231.1,416.3c-3.8-5.9-7.4-11.9-10.9-17.9c-0.9-1.5-1.8-3-2.6-4.5l-1.3-2.3l-0.7-1.1l-0.3-0.6l-0.1-0.1v-0.1
	l-0.1-0.1l-0.1-0.3c-1.5-3-3.5-5.8-5.9-8.1c-2.4-2.3-5.4-4-8.6-4.9s-6.6-1-9.9-0.3s-6.4,2.2-9.1,4.3c-2.7,2.1-4.9,4.8-6.6,7.9
	c1.2-3.3,3.3-6.3,5.9-8.7c1.3-1.2,2.8-2.3,4.4-3.1c1.6-0.9,3.3-1.5,5-2c3.5-0.9,7.3-0.9,10.8,0c3.6,0.9,6.9,2.8,9.5,5.3
	c2.7,2.5,4.8,5.5,6.3,8.8l0.1,0.3l0,0l0,0c0,0,0-0.1,0,0v0.1l0.1,0.1l0.3,0.6l0.6,1.2l1.2,2.3c0.8,1.5,1.6,3.1,2.5,4.6
	C-237.3,403.8-234.1,410-231.1,416.3z"/>
</svg>
