<?xml version="1.0" encoding="utf-8"?>
<!-- Generator: Adobe Illustrator 21.0.2, SVG Export Plug-In . SVG Version: 6.00 Build 0)  -->
<svg version="1.1" id="Calque_2" xmlns="http://www.w3.org/2000/svg" xmlns:xlink="http://www.w3.org/1999/xlink" x="0px" y="0px"
	 viewBox="0 0 500 160" style="enable-background:new 0 0 500 160;" xml:space="preserve">
<style type="text/css">
	.st0{fill:#EC7404;}
	.st1{fill:#FFFFFF;}
</style>
<rect x="25" y="20.2" width="450" height="119.5"/>
<polyline class="st0" points="250,20.6 235.3,82 235.1,82 242.9,20.6 "/>
<polyline class="st0" points="269.2,20.6 251.4,82 251.2,82 262,20.6 "/>
<path class="st0" d="M65.4,119.1c-3.4,4-8,6.1-13,6.1c-4.8,0-9.2-1.9-12.5-5.5c-4.6-5-4.6-10.1-4.6-21.3c0-11.2,0-16.3,4.6-21.3
	c3.3-3.6,7.6-5.5,12.5-5.5c9.3,0,15.7,6.5,17.1,15.8h-5.2c-1.4-6.7-5.8-10.7-11.9-10.7c-3.2,0-6.3,1.4-8.4,3.8
	c-3.1,3.4-3.4,7-3.4,18s0.3,14.6,3.4,18c2.1,2.4,5.2,3.7,8.4,3.7c3.6,0,7-1.6,9.3-4.5c2-2.6,2.7-5.5,2.7-9.5v-4h-12v-5h17.2v8.4
	C69.6,111.6,68.5,115.7,65.4,119.1"/>
<path class="st0" d="M98.7,124.9v-3.5c-2.7,3-5.2,3.9-9.8,3.9c-4.7,0-7.4-1-9.5-3.3c-1.7-1.8-2.5-4.5-2.5-7.4
	c0-6.4,4.1-10.5,11.7-10.5h10.2v-3.5c0-5.3-2.5-8-8.6-8c-4.3,0-6.5,1.1-8.5,4.2l-3.4-3.3c3-4.2,6.4-5.4,11.9-5.4
	c9.1,0,13.5,4.2,13.5,12.1v24.7L98.7,124.9 M98.7,108.1h-9.5c-5.1,0-7.5,2.2-7.5,6.4c0,4.2,2.4,6.2,7.7,6.2c2.9,0,5.4-0.2,7.5-2.4
	c1.2-1.2,1.7-3.3,1.7-6.3v-3.9H98.7z"/>
<path class="st0" d="M124.9,125.3c-5.7,0-10.2-1.4-13.9-5.3l3.3-3.6c2.7,3,6.3,4.2,10.5,4.2c5.6,0,9-2.2,9-6.5
	c0-3.2-1.7-4.9-5.6-5.3l-5.6-0.5c-6.6-0.6-10.1-3.8-10.1-9.8c0-6.7,5.2-10.7,12.4-10.7c4.8,0,9.1,1.3,12.2,3.9l-3.2,3.5
	c-2.4-2-5.5-2.9-9-2.9c-4.9,0-7.6,2.3-7.6,6c0,3.1,1.6,4.9,5.9,5.3l5.4,0.5c5.9,0.6,9.9,3,9.9,9.8
	C138.6,121.2,133,125.3,124.9,125.3"/>
<path class="st0" d="M155.7,124.8c-5.8,0-8.6-4.4-8.6-9.7V92.7h-4.3v-4.1h4.3V77.2h4.9v11.4h7.2v4.1H152v22.2c0,3.3,1.4,5.3,4.6,5.3
	h2.6v4.6H155.7"/>
<path class="st0" d="M188.8,121.1c-2.3,2.5-5.6,4.1-9.7,4.1c-4.1,0-7.4-1.6-9.7-4.1c-3.4-3.8-4.1-8.9-4.1-14.5s0.7-10.7,4.1-14.5
	c2.3-2.5,5.6-4.1,9.7-4.1c4.1,0,7.3,1.6,9.7,4.1c3.4,3.8,4.1,8.9,4.1,14.5C192.9,112.2,192.2,117.3,188.8,121.1 M185.3,95.3
	c-1.6-1.7-3.8-2.7-6.2-2.7s-4.5,1-6.1,2.7c-2.5,2.7-2.7,7.2-2.7,11.2c0,4.1,0.3,8.6,2.7,11.2c1.6,1.7,3.7,2.7,6.1,2.7
	c2.4,0,4.6-1,6.2-2.7c2.5-2.6,2.7-7.2,2.7-11.2S187.8,98,185.3,95.3z"/>
<path class="st0" d="M223.7,124.8v-22.4c0-6.4-3.2-9.7-8.3-9.7s-8.4,3.3-8.4,9.7v22.4h-4.9V88.4h4.9v4c2.4-3,5.7-4.4,9.5-4.4
	c3.6,0,6.6,1.2,8.6,3.4c2.4,2.5,3.5,5.9,3.5,10.1v23.3H223.7"/>
<polyline class="st1" points="301.1,125.5 301.1,94.8 291.7,114.7 285.3,114.7 275.9,94.8 275.9,125.5 266.3,125.5 266.3,72.8 
	275.7,72.8 288.5,101.3 301.2,72.8 310.6,72.8 310.6,125.5 301.1,125.5 "/>
<rect x="320.7" y="72.8" class="st1" width="9.5" height="52.7"/>
<polyline class="st1" points="340.3,125.5 340.3,72.8 349.8,72.8 349.8,116.3 372,116.3 372,125.5 340.3,125.5 "/>
<polyline class="st1" points="378.3,125.5 378.3,72.8 387.8,72.8 387.8,116.3 410,116.3 410,125.5 378.3,125.5 "/>
<polyline class="st1" points="416.4,125.5 416.4,72.8 448.6,72.8 448.6,81.9 426,81.9 426,94.3 445.2,94.3 445.2,103.5 426,103.5 
	426,116.3 448.6,116.3 448.6,125.5 416.4,125.5 "/>
<path class="st1" d="M459.1,72.4c-3.3,0-6,2.7-6,6c0,3.3,2.7,6,6,6s6-2.7,6-6C465.1,75.1,462.4,72.4,459.1,72.4z M459.1,83.3
	c-2.7,0-4.8-2.2-4.8-4.9c0-2.7,2.1-4.9,4.8-4.9c2.7,0,4.8,2.1,4.8,4.9C463.9,81.1,461.8,83.3,459.1,83.3z"/>
<path class="st1" d="M461.5,77.1c0-1.1-0.9-2-2.1-2H457v6.5h1.2V79h0.8l1.4,2.6h1.2l-1.4-2.7C460.9,78.6,461.5,78,461.5,77.1z
	 M459.3,78.1h-1.1v-2h1.1c0.6,0,1.1,0.4,1.1,1C460.4,77.7,459.9,78.1,459.3,78.1z"/>
</svg>
