<?xml version="1.0" encoding="utf-8"?>
<!-- Generator: Adobe Illustrator 16.0.0, SVG Export Plug-In . SVG Version: 6.00 Build 0)  -->
<!DOCTYPE svg PUBLIC "-//W3C//DTD SVG 1.1//EN" "http://www.w3.org/Graphics/SVG/1.1/DTD/svg11.dtd">
<svg version="1.1" id="Calque_1" xmlns="http://www.w3.org/2000/svg" xmlns:xlink="http://www.w3.org/1999/xlink" x="0px" y="0px"
	 width="500px" height="500px" viewBox="0 0 500 500" enable-background="new 0 0 500 500" xml:space="preserve">
<g>
	<polyline fill="#BCBDC0" points="475,82.791 93.084,82.791 40.976,305.115 422.884,305.115 475,82.791 	"/>
	<polyline fill="#231F20" points="420.747,317.354 38.834,317.354 25,377.988 406.918,377.988 420.747,317.354 	"/>
	<polyline fill="#05519C" points="408.213,389.164 380.207,389.164 373.782,417.209 401.806,417.209 408.213,389.164 	"/>
	<polyline fill="#3967AB" points="364.054,389.164 336.053,389.164 329.637,417.209 357.643,417.209 364.054,389.164 	"/>
	<polyline fill="#5C7AB5" points="319.387,389.164 291.377,389.164 284.947,417.209 312.962,417.209 319.387,389.164 	"/>
	<polyline fill="#7C92C4" points="275.771,389.164 247.754,389.164 241.34,417.209 269.346,417.209 275.771,389.164 	"/>
	<polyline fill="#93A3CE" points="231.082,389.164 203.073,389.164 196.668,417.209 224.679,417.209 231.082,389.164 	"/>
	<polyline fill="#A9B5D9" points="189.073,389.164 161.056,389.164 154.64,417.209 182.652,417.209 189.073,389.164 	"/>
	<g>
		<path fill="#05519C" d="M239.521,210.398h47.492l6.781-28.825h-47.48l6.378-30.237h48.721l6.91-29.204H226.87l-13.556,59.801
			h-57.209l-6.561,27.788h57.47l-6.095,26.893c-6.814,4.71-15.379,7.547-25.98,7.547c-23.792,0-45.419-14.835-47.076-41.341
			c-2.28-36.354,22.082-56.787,49.351-54.521c6.035,0.49,23.471,3.789,34.072,16.648l7.571-31.791
			c-9.09-7.578-22.728-14.373-42.41-14.831c-46.962-1.078-79.657,31.893-78.762,83.412c0.757,43.496,34.391,72.655,76.113,72.655
			c6.436,0,15.104-1.27,22.075-3.34h0.256l0.47-0.24c2.057-0.637,3.974-1.336,5.59-2.106c1.227-0.574,3.028-1.522,3.028-1.522
			l2.28-0.748l6.249,4.617h1.318h5.312h53.499l7.026-29.608h-48.022L239.521,210.398z"/>
		<path fill="#05519C" d="M411.967,160.401c2.293-27.244-16.929-38.269-46.746-38.269h-46.725l-33.745,148.921h59.063
			c17.377,0,34.515-0.063,48.148-14.452c7.89-8.331,10.125-15.156,12.453-25.753c4.457-20.468-8.61-32.93-22.738-36.697l0.022-0.414
			C399.232,191.657,410.648,176.336,411.967,160.401z M370.109,231.048c-1.345,14.52-17.886,14.52-25.78,14.52H318.67l7.222-31.399
			h19.6C357.389,214.169,371.561,215.491,370.109,231.048z M377.901,170.584c-1.514,13.642-12.12,15.931-21.386,15.931h-24.612
			l7.222-31.835h22.119C371.868,154.68,379.147,159.395,377.901,170.584z"/>
	</g>
	<path fill="#FFFFFF" d="M63.48,349.029h-4.417l0.893-4.72h10.437l-2.467,13.006c-5.024,0.811-6.055,1.313-11.285,1.313
		c-6.719-0.235-9.929-5.049-8.484-12.667c1.445-7.613,6.479-12.427,13.286-12.667c5.298-0.165,10.659,0.708,9.41,7.782h-6.009
		c0.141-2.355-1.374-3.063-3.361-3.063c-4.061,0-6.26,4.007-7.01,7.947c-0.909,4.786,0.632,7.952,4.96,7.952
		c1.106,0,2.262-0.205,3.199-0.401L63.48,349.029"/>
	<path fill="#FFFFFF" d="M80.838,341.21h-5.799c-0.196,1.821-0.356,2.837-0.648,4.351l-2.38,12.564h5.712l1.282-6.772
		c0.523-3.236,1.928-5.223,4.911-5.254c0.387,0,0.779,0,1.189,0.031l1.031-5.428c-2.511-0.062-4.555,0.878-5.746,3.678h-0.058
		L80.838,341.21"/>
	<path fill="#FFFFFF" d="M92.406,349.674c0.452-2.395,1.505-5.263,3.911-5.263c2.402,0,2.371,2.868,1.915,5.263
		c-0.445,2.387-1.505,5.25-3.911,5.25C91.918,354.924,91.954,352.061,92.406,349.674 M97.019,340.703
		c-4.713,0-9.295,2.734-10.477,8.972c-1.185,6.229,2.357,8.954,7.082,8.954c4.713,0,9.296-2.725,10.477-8.954
		C105.282,343.437,101.742,340.703,97.019,340.703z"/>
	<path fill="#FFFFFF" d="M116.734,356.269c-1.605,1.688-3.237,2.359-5.165,2.359c-3.246,0-5.203-2.359-4.497-6.095l2.153-11.323
		h5.712l-1.892,9.942c-0.25,1.647-0.227,3.438,1.547,3.438c2.825,0,3.121-3.478,3.164-3.674l1.836-9.706h5.712l-2.38,12.569
		c-0.292,1.514-0.456,2.529-0.647,4.346h-5.804L116.734,356.269"/>
	<path fill="#FFFFFF" d="M134.984,341.21h-5.712l-4.433,23.38h5.715l1.607-8.481h0.06c0.77,1.474,2.106,2.52,3.793,2.52
		c4.837,0,7.87-4.243,8.809-9.194c0.844-4.447-0.301-8.731-4.784-8.731c-2.22,0-3.929,0.913-5.447,2.908h-0.061L134.984,341.21
		 M137.146,344.412c2.402,0,2.179,3.104,1.77,5.263c-0.412,2.15-1.36,5.25-3.767,5.25c-2.402,0-2.175-3.1-1.77-5.25
		C133.795,347.515,134.739,344.412,137.146,344.412z"/>
	<path fill="#FFFFFF" d="M153.273,347.515c0.514-1.923,1.298-3.509,3.301-3.606c0.884-0.066,1.458,0.369,1.776,1.078
		c0.321,0.707,0.388,1.611,0.214,2.528H153.273 M163.326,350.948c1.193-6.3-0.011-10.245-6.146-10.245
		c-4.542,0-8.695,3.032-9.706,8.394c-1.26,6.639,0.597,9.532,6.639,9.532c1.772,0,3.528-0.365,5.026-1.313
		c1.625-0.939,3.157-2.52,3.754-4.715h-5.29c-0.514,1.585-1.663,2.431-3.254,2.431c-2.137,0-2.289-1.892-1.846-4.083H163.326z"/>
	<path fill="#FFFFFF" d="M182.704,353.406l0.993-5.249h3.945c1.325,0.098,1.928,1.375,1.672,2.725
		c-0.287,1.514-1.591,2.524-3.09,2.524H182.704 M185.985,358.125c0.209,0,8.179,0.472,9.524-6.607
		c0.657-3.469-1.298-5.521-4.103-5.957l0.013-0.071c2.527-0.503,5.134-2.32,5.699-5.316c0.813-4.283-2.224-6.341-6.305-6.372
		h-10.405l-4.617,24.324H185.985z M185.524,338.521h3.279c1.414,0,2.275,0.971,2.019,2.355c-0.356,1.853-1.536,2.561-3.163,2.561
		l-3.075,0.035L185.524,338.521z"/>
	<path fill="#FFFFFF" d="M206.78,348.655l4.864-10.103h0.091l0.848,10.103H206.78 M202.043,358.125l2.311-4.751h8.813l0.539,4.751
		h6.792l-3.952-24.324h-7.335l-13.181,24.324H202.043z"/>
	<path fill="#FFFFFF" d="M231.696,344.109l1.06-5.588h2.346c1.923,0,3.736,0.294,3.261,2.797c-0.474,2.488-2.395,2.791-4.323,2.791
		H231.696 M230.803,348.829h2.253c3.068,0,2.954,1.211,2.643,4.141c-0.171,1.719-0.327,3.469-0.318,5.156h6.525
		c-0.143-1.955-0.104-3.874,0.127-5.895c0.33-3.776,0.022-5.963-3.811-6.069l0.027-0.134c3.11-0.4,5.973-2.324,6.663-5.962
		c0.979-5.155-3.563-6.265-7.229-6.265H227.64l-4.61,24.324h6.013L230.803,348.829z"/>
	<polyline fill="#FFFFFF" points="253.208,338.521 246.561,338.521 247.453,333.801 266.91,333.801 266.016,338.521 
		259.221,338.521 255.499,358.125 249.488,358.125 253.208,338.521 	"/>
	<polyline fill="#FFFFFF" points="264.885,358.125 269.497,333.801 275.539,333.801 273.709,343.437 281.073,343.437 
		282.903,333.801 288.914,333.801 284.302,358.125 278.286,358.125 280.183,348.157 272.783,348.157 270.896,358.125 
		264.885,358.125 	"/>
	<polyline fill="#FFFFFF" points="288.661,358.125 293.278,333.801 309.814,333.801 308.919,338.521 298.394,338.521 
		297.44,343.535 307.125,343.535 306.229,348.254 296.55,348.254 295.571,353.406 306.097,353.406 305.197,358.125 288.661,358.125 
			"/>
	<polyline fill="#FFFFFF" points="308.955,358.125 313.567,333.801 319.583,333.801 315.86,353.406 325.696,353.406 
		324.797,358.125 308.955,358.125 	"/>
	<polyline fill="#FFFFFF" points="327.69,358.125 332.299,333.801 348.835,333.801 347.94,338.521 337.419,338.521 336.467,343.535 
		346.155,343.535 345.256,348.254 335.576,348.254 334.597,353.406 345.118,353.406 344.228,358.125 327.69,358.125 	"/>
	<polyline fill="#FFFFFF" points="347.892,358.125 352.504,333.801 362.037,333.801 362.455,350.28 362.522,350.28 369.067,333.801 
		378.431,333.801 373.805,358.125 368.551,358.125 372.411,337.773 372.366,337.711 363.399,358.125 357.989,358.125 
		357.117,337.542 357.046,337.609 353.154,358.125 347.892,358.125 	"/>
	<polyline fill="#FFFFFF" points="386.623,349.229 381.249,333.801 388.222,333.801 391.036,344.006 397.875,333.801 
		404.072,333.801 392.63,349.229 390.942,358.125 384.927,358.125 386.623,349.229 	"/>
</g>
</svg>
