<?xml version="1.0" encoding="utf-8"?>
<!-- Generator: Adobe Illustrator 21.0.2, SVG Export Plug-In . SVG Version: 6.00 Build 0)  -->
<svg version="1.1" id="Calque_1" xmlns="http://www.w3.org/2000/svg" xmlns:xlink="http://www.w3.org/1999/xlink" x="0px" y="0px"
	 viewBox="0 0 500 372" style="enable-background:new 0 0 500 372;" xml:space="preserve">
<style type="text/css">
	.st0{fill:#BCBDC0;}
	.st1{fill:#231F20;}
	.st2{fill:#05519C;}
	.st3{fill:#3967AB;}
	.st4{fill:#5C7AB5;}
	.st5{fill:#7C92C4;}
	.st6{fill:#93A3CE;}
	.st7{fill:#A9B5D9;}
	.st8{fill:#FFFFFF;}
</style>
<polyline class="st0" points="475,18.8 93.1,18.8 41,241.1 422.9,241.1 475,18.8 "/>
<polyline class="st1" points="420.7,253.4 38.8,253.4 25,314 406.9,314 420.7,253.4 "/>
<polyline class="st2" points="408.2,325.2 380.2,325.2 373.8,353.2 401.8,353.2 408.2,325.2 "/>
<polyline class="st3" points="364.1,325.2 336.1,325.2 329.6,353.2 357.6,353.2 364.1,325.2 "/>
<polyline class="st4" points="319.4,325.2 291.4,325.2 284.9,353.2 313,353.2 319.4,325.2 "/>
<polyline class="st5" points="275.8,325.2 247.8,325.2 241.3,353.2 269.3,353.2 275.8,325.2 "/>
<polyline class="st6" points="231.1,325.2 203.1,325.2 196.7,353.2 224.7,353.2 231.1,325.2 "/>
<polyline class="st7" points="189.1,325.2 161.1,325.2 154.6,353.2 182.7,353.2 189.1,325.2 "/>
<path class="st2" d="M239.5,146.4H287l6.8-28.8h-47.5l6.4-30.2h48.7l6.9-29.2h-81.5L213.2,118H156l-6.6,27.8H207l-6.1,26.9
	c-6.8,4.7-15.4,7.5-26,7.5c-23.8,0-45.4-14.8-47.1-41.3c-2.3-36.4,22.1-56.8,49.4-54.5c6,0.5,23.5,3.8,34.1,16.6l7.6-31.8
	c-9.1-7.6-22.7-14.4-42.4-14.8c-47-1.1-79.7,31.9-78.8,83.4c0.8,43.5,34.4,72.7,76.1,72.7c6.4,0,15.1-1.3,22.1-3.3h0.3l0.5-0.2
	c2.1-0.6,4-1.3,5.6-2.1c1.2-0.6,3-1.5,3-1.5l2.3-0.7l6.2,4.6h1.3h5.3h53.5l7-29.6h-48L239.5,146.4z"/>
<path class="st2" d="M412,96.4c2.3-27.2-16.9-38.3-46.7-38.3h-46.7L284.9,207H344c17.4,0,34.5-0.1,48.1-14.5
	c7.9-8.3,10.1-15.2,12.5-25.8c4.5-20.5-8.6-32.9-22.7-36.7v-0.4C399.2,127.7,410.6,112.3,412,96.4z M370.1,167
	c-1.3,14.5-17.9,14.5-25.8,14.5h-25.7l7.2-31.4h19.6C357.4,150.2,371.6,151.5,370.1,167z M377.9,106.6
	c-1.5,13.6-12.1,15.9-21.4,15.9h-24.6l7.2-31.8h22.1C371.9,90.7,379.1,95.4,377.9,106.6z"/>
<path class="st8" d="M63.5,285h-4.4l0.9-4.7h10.4l-2.5,13c-5,0.8-6.1,1.3-11.3,1.3c-6.7-0.2-9.9-5-8.5-12.7
	c1.4-7.6,6.5-12.4,13.3-12.7c5.3-0.2,10.7,0.7,9.4,7.8h-6c0.1-2.4-1.4-3.1-3.4-3.1c-4.1,0-6.3,4-7,7.9c-0.9,4.8,0.6,8,5,8
	c1.1,0,2.3-0.2,3.2-0.4L63.5,285"/>
<path class="st8" d="M80.8,277.2H75c-0.2,1.8-0.4,2.8-0.6,4.4L72,294.1h5.7l1.3-6.8c0.5-3.2,1.9-5.2,4.9-5.3c0.4,0,0.8,0,1.2,0
	l1-5.4c-2.5-0.1-4.6,0.9-5.7,3.7h-0.1L80.8,277.2"/>
<path class="st8" d="M92.4,285.7c0.5-2.4,1.5-5.3,3.9-5.3s2.4,2.9,1.9,5.3c-0.4,2.4-1.5,5.2-3.9,5.2C91.9,290.9,92,288.1,92.4,285.7
	 M97,276.7c-4.7,0-9.3,2.7-10.5,9c-1.2,6.2,2.4,9,7.1,9s9.3-2.7,10.5-9C105.3,279.4,101.7,276.7,97,276.7z"/>
<path class="st8" d="M116.7,292.3c-1.6,1.7-3.2,2.4-5.2,2.4c-3.2,0-5.2-2.4-4.5-6.1l2.2-11.3h5.7l-1.9,9.9c-0.2,1.6-0.2,3.4,1.5,3.4
	c2.8,0,3.1-3.5,3.2-3.7l1.8-9.7h5.7l-2.4,12.6c-0.3,1.5-0.5,2.5-0.6,4.3h-5.8L116.7,292.3"/>
<path class="st8" d="M135,277.2h-5.7l-4.4,23.4h5.7l1.6-8.5h0.1c0.8,1.5,2.1,2.5,3.8,2.5c4.8,0,7.9-4.2,8.8-9.2
	c0.8-4.4-0.3-8.7-4.8-8.7c-2.2,0-3.9,0.9-5.4,2.9h-0.1L135,277.2 M137.1,280.4c2.4,0,2.2,3.1,1.8,5.3c-0.4,2.1-1.4,5.2-3.8,5.2
	c-2.4,0-2.2-3.1-1.8-5.2C133.8,283.5,134.7,280.4,137.1,280.4z"/>
<path class="st8" d="M153.3,283.5c0.5-1.9,1.3-3.5,3.3-3.6c0.9-0.1,1.5,0.4,1.8,1.1s0.4,1.6,0.2,2.5H153.3 M163.3,286.9
	c1.2-6.3,0-10.2-6.1-10.2c-4.5,0-8.7,3-9.7,8.4c-1.3,6.6,0.6,9.5,6.6,9.5c1.8,0,3.5-0.4,5-1.3c1.6-0.9,3.2-2.5,3.8-4.7h-5.3
	c-0.5,1.6-1.7,2.4-3.3,2.4c-2.1,0-2.3-1.9-1.8-4.1L163.3,286.9L163.3,286.9z"/>
<path class="st8" d="M182.7,289.4l1-5.2h3.9c1.3,0.1,1.9,1.4,1.7,2.7c-0.3,1.5-1.6,2.5-3.1,2.5H182.7 M186,294.1
	c0.2,0,8.2,0.5,9.5-6.6c0.7-3.5-1.3-5.5-4.1-6v-0.1c2.5-0.5,5.1-2.3,5.7-5.3c0.8-4.3-2.2-6.3-6.3-6.4h-10.4l-4.6,24.3L186,294.1
	L186,294.1z M185.5,274.5h3.3c1.4,0,2.3,1,2,2.4c-0.4,1.9-1.5,2.6-3.2,2.6h-3.1L185.5,274.5z"/>
<path class="st8" d="M206.8,284.7l4.9-10.1h0.1l0.8,10.1H206.8 M202,294.1l2.3-4.8h8.8l0.5,4.8h6.8l-4-24.3h-7.3L196,294.1H202z"/>
<path class="st8" d="M231.7,280.1l1.1-5.6h2.3c1.9,0,3.7,0.3,3.3,2.8c-0.5,2.5-2.4,2.8-4.3,2.8L231.7,280.1 M230.8,284.8h2.3
	c3.1,0,3,1.2,2.6,4.1c-0.2,1.7-0.3,3.5-0.3,5.2h6.5c-0.1-2-0.1-3.9,0.1-5.9c0.3-3.8,0-6-3.8-6.1V282c3.1-0.4,6-2.3,6.7-6
	c1-5.2-3.6-6.3-7.2-6.3h-10l-4.6,24.3h6L230.8,284.8z"/>
<polyline class="st8" points="253.2,274.5 246.6,274.5 247.5,269.8 266.9,269.8 266,274.5 259.2,274.5 255.5,294.1 249.5,294.1 
	253.2,274.5 "/>
<polyline class="st8" points="264.9,294.1 269.5,269.8 275.5,269.8 273.7,279.4 281.1,279.4 282.9,269.8 288.9,269.8 284.3,294.1 
	278.3,294.1 280.2,284.2 272.8,284.2 270.9,294.1 264.9,294.1 "/>
<polyline class="st8" points="288.7,294.1 293.3,269.8 309.8,269.8 308.9,274.5 298.4,274.5 297.4,279.5 307.1,279.5 306.2,284.3 
	296.5,284.3 295.6,289.4 306.1,289.4 305.2,294.1 288.7,294.1 "/>
<polyline class="st8" points="309,294.1 313.6,269.8 319.6,269.8 315.9,289.4 325.7,289.4 324.8,294.1 309,294.1 "/>
<polyline class="st8" points="327.7,294.1 332.3,269.8 348.8,269.8 347.9,274.5 337.4,274.5 336.5,279.5 346.2,279.5 345.3,284.3 
	335.6,284.3 334.6,289.4 345.1,289.4 344.2,294.1 327.7,294.1 "/>
<polyline class="st8" points="347.9,294.1 352.5,269.8 362,269.8 362.5,286.3 362.5,286.3 369.1,269.8 378.4,269.8 373.8,294.1 
	368.6,294.1 372.4,273.8 372.4,273.7 363.4,294.1 358,294.1 357.1,273.5 357,273.6 353.2,294.1 347.9,294.1 "/>
<polyline class="st8" points="386.6,285.2 381.2,269.8 388.2,269.8 391,280 397.9,269.8 404.1,269.8 392.6,285.2 390.9,294.1 
	384.9,294.1 386.6,285.2 "/>
</svg>
