<?xml version="1.0" encoding="utf-8"?>
<!-- Generator: Adobe Illustrator 21.0.2, SVG Export Plug-In . SVG Version: 6.00 Build 0)  -->
<svg version="1.1" id="Calque_3" xmlns="http://www.w3.org/2000/svg" xmlns:xlink="http://www.w3.org/1999/xlink" x="0px" y="0px"
	 viewBox="0 0 500 446" style="enable-background:new 0 0 500 446;" xml:space="preserve">
<style type="text/css">
	.st0{fill:#97BF0D;}
</style>
<path d="M374.3,234.6l-61.8-134.1l-1.3-2.9l-2.9,1.3l-44.8,20.6L233.8,55l-1.4-2.9l-2.9,1.3l-34,15.7l-2.9,1.3l1.3,2.9l92.9,201.6
	l1.3,2.9l2.9-1.3l81.7-37.7l2.9-1.3L374.3,234.6z M310,220.3L281.7,159l12.2-5.6l28.3,61.3L310,220.3z"/>
<path class="st0" d="M262,123.8l-31.1-67.5l-34,15.7l92.9,201.6l81.7-37.7l-61.8-134.1L262,123.8z M308.4,224.5l-30.9-67l17.9-8.3
	l30.9,67L308.4,224.5z"/>
<path d="M473.7,188.8L411.9,54.7l-1.4-2.9l-2.9,1.3l-81.5,37.6l-2.9,1.3l1.3,2.9L386.4,229l1.3,2.9l2.9-1.3l81.5-37.6l2.9-1.3
	L473.7,188.8z M406.4,175.9l-28.3-61.3l12.3-5.7l28.3,61.3L406.4,175.9z"/>
<path class="st0" d="M327.5,93.6l61.8,134.1l81.5-37.6L409,56L327.5,93.6z M404.8,180.1l-30.9-67l18-8.3l30.9,67L404.8,180.1z"/>
<path d="M274.7,280.5l-15.2-33.1l-1.3-2.9l-2.9,1.3l-44.4,20.5l-5.4-11.6l44.4-20.5l2.9-1.3l-1.3-2.9l-38.8-84.3l-1.4-2.8l-2.9,1.3
	l-81.7,37.7l-2.9,1.3l1.3,2.9l62.1,134.7l1.3,2.9l2.9-1.3l81.7-37.7l2.9-1.3L274.7,280.5z M193.7,199.1l6.2,13.4l-12.5,5.8
	l-6.2-13.4L193.7,199.1z"/>
<path class="st0" d="M209.3,270.6l-8-17.4l47.3-21.8l-38.8-84.3L128,184.9l62.1,134.7l81.7-37.7l-15.2-33.1L209.3,270.6z
	 M185.8,222.4l-8.8-19.1l18.3-8.4l8.8,19.1L185.8,222.4z"/>
<path d="M197,373.7l-83.9-182l-1.4-2.9l-2.9,1.3l-81,37.3l-2.9,1.3l1.3,2.9l62.2,134.8l1.3,2.9l2.9-1.3l44.7-20.6l5.3,11.5
	l-45.1,20.8l-2.9,1.3l1.3,2.9l13.8,29.9l1.3,2.9l2.9-1.3l81.5-37.5l2.9-1.3L197,373.7z M90.7,246.3l28.5,61.7l-11.3,5.2l-28.5-61.7
	L90.7,246.3z"/>
<path class="st0" d="M29.2,230.4l62.2,134.7l47.5-21.9l7.9,17.2l-48,22.1l13.8,30l81.5-37.5l-83.9-182L29.2,230.4z M106.3,317.5
	L75.2,250l17.1-7.9l31.1,67.5L106.3,317.5z"/>
<path class="st0" d="M461.3,56.4c-2-2.8-4-3.9-6.6-3.7l-0.1-0.3c2.3-2.1,3.4-4.9,2.2-7.4c-1-2.2-2.8-3.6-4.5-4
	c-2.1-0.2-4.3,0-8.5,1.9c-3.7,1.7-6.4,3.3-8.3,4.7L446,70.4l5.2-2.4l-4.3-9.2l2.5-1.1c2.9-1.3,4.7-0.8,6.3,1.5
	c1.9,2.3,3.2,4.2,4.3,4.7l5.6-2.6C464.6,60.8,463.6,59.6,461.3,56.4z M447.9,53.9l-2.5,1.1l-3-6.5c0.5-0.4,1.3-1,2.7-1.6
	c3.3-1.5,5.4-0.8,6.4,1.3C452.6,50.5,450.8,52.6,447.9,53.9z"/>
<path class="st0" d="M472.1,43.9c-5.8-12.7-20.4-18.2-33.4-12.2c-12.8,5.9-18.3,20.8-12.5,33.4c5.9,12.9,20.8,18.3,33.6,12.4
	C472.8,71.5,478,56.8,472.1,43.9z M457.7,72.5c-10.1,4.7-21.1,0-25.8-10.1c-4.6-10-1-21.6,8.9-26.2c9.9-4.6,20.9,0.3,25.6,10.4
	C471,56.6,467.5,68,457.7,72.5z"/>
</svg>
