<?xml version="1.0" encoding="utf-8"?>
<!-- Generator: Adobe Illustrator 16.0.0, SVG Export Plug-In . SVG Version: 6.00 Build 0)  -->
<!DOCTYPE svg PUBLIC "-//W3C//DTD SVG 1.1//EN" "http://www.w3.org/Graphics/SVG/1.1/DTD/svg11.dtd">
<svg version="1.1" id="Calque_2" xmlns="http://www.w3.org/2000/svg" xmlns:xlink="http://www.w3.org/1999/xlink" x="0px" y="0px"
	 width="500px" height="500px" viewBox="0 0 500 500" enable-background="new 0 0 500 500" xml:space="preserve">
<g>
	<g>
		<path fill="#0095D8" d="M100.934,181.311c14.713,0,26.684,11.97,26.684,26.684v39.001c0,14.713-11.97,26.682-26.684,26.682H56.157
			c-14.713,0-26.684-11.969-26.684-26.682v-39.001c0-14.714,11.97-26.684,26.684-26.684H100.934 M100.934,176.837H56.157
			C39.021,176.837,25,190.858,25,207.994v39.001c0,17.136,14.021,31.156,31.157,31.156h44.777c17.136,0,31.157-14.02,31.157-31.156
			v-39.001C132.09,190.858,118.07,176.837,100.934,176.837L100.934,176.837z"/>
	</g>
	<path fill="#0095D8" d="M390.412,249.355V177.34c-14.804,2.652-26.134,15.662-26.134,31.198v37.914
		c0,17.436,14.266,31.7,31.701,31.7h47.46c16.455,0,30.082-12.709,31.561-28.796H390.412z"/>
	<path fill="#0095D8" d="M281.935,249.036v-10.583h82.344v-22.087h-82.344v-9.226h82.308c-0.738-16.792-14.697-30.302-31.664-30.302
		h-47.46c-17.436,0-31.701,14.265-31.701,31.701v37.914c0,17.436,14.266,31.7,31.701,31.7h47.46
		c16.564,0,30.259-12.878,31.586-29.116H281.935z"/>
	<path fill="#0095D8" d="M182.281,216.365v22.087h41.602v10.583H171.5v-0.519v-10.065v-22.087v-9.226h10.781h71.1
		c-0.738-16.792-14.698-30.302-31.665-30.302h-47.459c-17.436,0-31.701,14.265-31.701,31.701v37.914
		c0,17.436,14.265,31.7,31.701,31.7h47.459c17.436,0,31.701-14.264,31.701-31.7v-30.086H182.281z"/>
	<path fill="#0095D8" d="M98.541,199.213v-0.893l-0.092,0.052c-0.447-3.01-2.472-7.986-10.997-7.986
		c-12.22,0-10.583,8.611-13.545,8.611s-5.926-6.94-12.039-6.94c-6.114,0,0.066,2.471,2.207,4.979
		c2.141,2.507,6.726,8.11,6.726,11.389c0,3.281-12.988,6.638-12.988,22.107c0,13.38,2.782,10.384,3.533,16.929v16.337h37.196
		v-63.182C98.541,200.616,98.601,200.061,98.541,199.213z"/>
	<path fill="#FFFFFF" d="M76.909,241.062c-7.363-6.617,3.445-22.925,3.445-22.925c4.977-8.138,5.25-12.762,5.25-12.762l-0.02,0.007
		c0.105-0.338,0.178-0.691,0.178-1.065c0-1.992-1.616-3.608-3.609-3.608c-1.992,0-3.608,1.617-3.608,3.608
		c0,1.917,1.499,3.469,3.385,3.586c-1.366,4.894-9.319,7.977-13.315,8.741c-4.38,0.839-5.504,1.492-5.504,1.492v2.05v42.03h33.834
		v-3.355l-0.162-0.397C93.529,255.652,83.069,246.598,76.909,241.062z"/>
	<g>
		<path fill="#0095D8" d="M25.281,289.623h4.093v14.086h16.201v-14.086h4.093v32.76h-4.093V307.38H29.375v15.003h-4.093V289.623z"/>
		<path fill="#0095D8" d="M69.102,308.985v13.397h-4.093v-13.397l-11.892-19.362h4.869l9.221,15.6l9.006-15.6h4.653L69.102,308.985z
			"/>
		<path fill="#0095D8" d="M84.314,289.623h10.557c9.479,0,14.779,5.047,14.779,15.6c0,10.967-4.524,17.16-14.779,17.16H84.314
			V289.623z M88.407,318.712h6.808c2.8,0,10.34-0.826,10.34-12.893c0-7.8-2.714-12.526-10.254-12.526h-6.894V318.712z"/>
		<path fill="#0095D8" d="M114.649,289.623h14.477c5.774,0,9.35,3.35,9.35,8.579c0,3.946-1.638,7.204-5.343,8.306v0.092
			c3.577,0.734,4.309,3.533,4.61,6.745c0.259,3.211,0.086,6.79,1.81,9.038h-4.568c-1.163-1.33-0.517-4.864-1.12-8.075
			c-0.431-3.212-1.164-5.919-5.127-5.919h-9.996v13.994h-4.093V289.623z M127.273,304.718c3.835,0,7.11-1.055,7.11-5.827
			c0-3.212-1.638-5.598-5.472-5.598h-10.168v11.425H127.273z"/>
		<path fill="#0095D8" d="M157.178,288.843c9.781,0,14.736,8.258,14.736,17.159c0,8.902-4.955,17.161-14.736,17.161
			c-9.78,0-14.736-8.259-14.736-17.161C142.442,297.101,147.398,288.843,157.178,288.843z M157.178,319.492
			c7.498,0,10.643-6.882,10.643-13.49c0-6.606-3.145-13.488-10.643-13.488c-7.497,0-10.642,6.882-10.642,13.488
			C146.536,312.61,149.682,319.492,157.178,319.492z"/>
		<path fill="#0095D8" d="M183.895,293.293H173.64v-3.67h24.603v3.67h-10.254v29.09h-4.094V293.293z"/>
		<path fill="#0095D8" d="M201.648,289.623h21.242v3.67h-17.148v10.416h15.985v3.671h-15.985v11.332h17.278v3.671h-21.371V289.623z"
			/>
		<path fill="#0095D8" d="M249.606,299.486c-0.862-4.634-4.352-6.973-8.618-6.973c-7.325,0-10.427,6.423-10.427,13.26
			c0,7.479,3.102,13.719,10.47,13.719c5.386,0,8.488-4.036,8.876-9.451H254c-0.775,8.167-5.558,13.122-13.313,13.122
			c-9.565,0-14.219-7.524-14.219-17.069c0-9.498,5.084-17.251,14.563-17.251c6.42,0,11.72,3.671,12.668,10.644H249.606z"/>
		<path fill="#0095D8" d="M259.086,289.623h4.094v14.086h16.201v-14.086h4.094v32.76h-4.094V307.38H263.18v15.003h-4.094V289.623z"
			/>
		<path fill="#0095D8" d="M290.153,289.623h4.353l16.2,26.566h0.086v-26.566h3.879v32.76h-4.481l-16.071-26.291h-0.087v26.291
			h-3.878V289.623z"/>
		<path fill="#0095D8" d="M334.319,288.843c9.781,0,14.736,8.258,14.736,17.159c0,8.902-4.955,17.161-14.736,17.161
			c-9.78,0-14.735-8.259-14.735-17.161C319.584,297.101,324.539,288.843,334.319,288.843z M334.319,319.492
			c7.498,0,10.643-6.882,10.643-13.49c0-6.606-3.145-13.488-10.643-13.488c-7.497,0-10.643,6.882-10.643,13.488
			C323.677,312.61,326.822,319.492,334.319,319.492z"/>
		<path fill="#0095D8" d="M354.056,289.623h4.093v29.089h16.288v3.671h-20.381V289.623z"/>
		<path fill="#0095D8" d="M391.026,288.843c9.781,0,14.736,8.258,14.736,17.159c0,8.902-4.955,17.161-14.736,17.161
			s-14.735-8.259-14.735-17.161C376.291,297.101,381.245,288.843,391.026,288.843z M391.026,319.492
			c7.497,0,10.643-6.882,10.643-13.49c0-6.606-3.146-13.488-10.643-13.488s-10.643,6.882-10.643,13.488
			C380.384,312.61,383.529,319.492,391.026,319.492z"/>
		<path fill="#0095D8" d="M433.771,318.3c-2.37,3.441-6.247,4.863-9.866,4.863c-9.178,0-14.65-7.982-14.65-16.518
			c0-9.545,4.912-17.803,14.65-17.803c6.721,0,12.063,3.212,13.228,10.873h-4.093c-0.819-4.954-4.567-7.202-9.135-7.202
			c-7.454,0-10.557,6.882-10.557,13.902c0,6.837,3.705,13.076,10.557,13.076c6.333,0,10.125-4.726,9.866-10.69h-9.823v-3.671h13.486
			v17.252h-2.585L433.771,318.3z"/>
		<path fill="#0095D8" d="M456.179,308.985v13.397h-4.094v-13.397l-11.892-19.362h4.868l9.221,15.6l9.006-15.6h4.653
			L456.179,308.985z"/>
	</g>
</g>
</svg>
