<?xml version="1.0" encoding="utf-8"?>
<!-- Generator: Adobe Illustrator 19.1.0, SVG Export Plug-In . SVG Version: 6.00 Build 0)  -->
<svg version="1.1" id="Calque_2" xmlns="http://www.w3.org/2000/svg" xmlns:xlink="http://www.w3.org/1999/xlink" x="0px" y="0px"
	 viewBox="0 0 500 500" style="enable-background:new 0 0 500 500;" xml:space="preserve">
<style type="text/css">
	.st0{fill:#0095D8;}
	.st1{fill:#FFFFFF;}
</style>
<g>
	<g>
		<path class="st0" d="M100.9,181.3c14.7,0,26.7,12,26.7,26.7v39c0,14.7-12,26.7-26.7,26.7H56.2c-14.7,0-26.7-12-26.7-26.7v-39
			c0-14.7,12-26.7,26.7-26.7L100.9,181.3 M100.9,176.8H56.2C39,176.8,25,190.9,25,208v39c0,17.1,14,31.2,31.2,31.2h44.8
			c17.1,0,31.2-14,31.2-31.2v-39C132.1,190.9,118.1,176.8,100.9,176.8L100.9,176.8z"/>
	</g>
	<path class="st0" d="M390.4,249.4v-72c-14.8,2.7-26.1,15.7-26.1,31.2v37.9c0,17.4,14.3,31.7,31.7,31.7h47.5
		c16.5,0,30.1-12.7,31.6-28.8L390.4,249.4L390.4,249.4z"/>
	<path class="st0" d="M281.9,249v-10.6h82.3v-22.1h-82.3v-9.2h82.3c-0.7-16.8-14.7-30.3-31.7-30.3h-47.5
		c-17.4,0-31.7,14.3-31.7,31.7v37.9c0,17.4,14.3,31.7,31.7,31.7h47.5c16.6,0,30.3-12.9,31.6-29.1L281.9,249L281.9,249z"/>
	<path class="st0" d="M182.3,216.4v22.1h41.6V249h-52.4v-0.5v-10.1v-22.1v-9.2h10.8h71.1c-0.7-16.8-14.7-30.3-31.7-30.3h-47.5
		c-17.4,0-31.7,14.3-31.7,31.7v37.9c0,17.4,14.3,31.7,31.7,31.7h47.5c17.4,0,31.7-14.3,31.7-31.7v-30.1H182.3z"/>
	<path class="st0" d="M98.5,199.2v-0.9l-0.1,0.1c-0.4-3-2.5-8-11-8c-12.2,0-10.6,8.6-13.5,8.6s-5.9-6.9-12-6.9c-6.1,0,0.1,2.5,2.2,5
		c2.1,2.5,6.7,8.1,6.7,11.4c0,3.3-13,6.6-13,22.1c0,13.4,2.8,10.4,3.5,16.9v16.3h37.2v-63.2C98.5,200.6,98.6,200.1,98.5,199.2z"/>
	<path class="st1" d="M76.9,241.1c-7.4-6.6,3.4-22.9,3.4-22.9c5-8.1,5.2-12.8,5.2-12.8l0,0c0.1-0.3,0.2-0.7,0.2-1.1
		c0-2-1.6-3.6-3.6-3.6c-2,0-3.6,1.6-3.6,3.6c0,1.9,1.5,3.5,3.4,3.6c-1.4,4.9-9.3,8-13.3,8.7c-4.4,0.8-5.5,1.5-5.5,1.5v2.1v42h33.8
		v-3.4l-0.2-0.4C93.5,255.7,83.1,246.6,76.9,241.1z"/>
	<g>
		<path class="st0" d="M25.3,289.6h4.1v14.1h16.2v-14.1h4.1v32.8h-4.1v-15H29.4v15h-4.1L25.3,289.6L25.3,289.6z"/>
		<path class="st0" d="M69.1,309v13.4H65V309l-11.9-19.4H58l9.2,15.6l9-15.6h4.7L69.1,309z"/>
		<path class="st0" d="M84.3,289.6h10.6c9.5,0,14.8,5,14.8,15.6c0,11-4.5,17.2-14.8,17.2H84.3V289.6z M88.4,318.7h6.8
			c2.8,0,10.3-0.8,10.3-12.9c0-7.8-2.7-12.5-10.3-12.5h-6.9V318.7z"/>
		<path class="st0" d="M114.6,289.6h14.5c5.8,0,9.4,3.4,9.4,8.6c0,3.9-1.6,7.2-5.3,8.3v0.1c3.6,0.7,4.3,3.5,4.6,6.7
			c0.3,3.2,0.1,6.8,1.8,9H135c-1.2-1.3-0.5-4.9-1.1-8.1c-0.4-3.2-1.2-5.9-5.1-5.9h-10v14h-4.1L114.6,289.6L114.6,289.6z
			 M127.3,304.7c3.8,0,7.1-1.1,7.1-5.8c0-3.2-1.6-5.6-5.5-5.6h-10.2v11.4H127.3z"/>
		<path class="st0" d="M157.2,288.8c9.8,0,14.7,8.3,14.7,17.2c0,8.9-5,17.2-14.7,17.2c-9.8,0-14.7-8.3-14.7-17.2
			C142.4,297.1,147.4,288.8,157.2,288.8z M157.2,319.5c7.5,0,10.6-6.9,10.6-13.5c0-6.6-3.1-13.5-10.6-13.5
			c-7.5,0-10.6,6.9-10.6,13.5C146.5,312.6,149.7,319.5,157.2,319.5z"/>
		<path class="st0" d="M183.9,293.3h-10.3v-3.7h24.6v3.7H188v29.1h-4.1V293.3z"/>
		<path class="st0" d="M201.6,289.6h21.2v3.7h-17.1v10.4h16v3.7h-16v11.3H223v3.7h-21.4L201.6,289.6L201.6,289.6z"/>
		<path class="st0" d="M249.6,299.5c-0.9-4.6-4.4-7-8.6-7c-7.3,0-10.4,6.4-10.4,13.3c0,7.5,3.1,13.7,10.5,13.7c5.4,0,8.5-4,8.9-9.5
			h4.1c-0.8,8.2-5.6,13.1-13.3,13.1c-9.6,0-14.2-7.5-14.2-17.1c0-9.5,5.1-17.3,14.6-17.3c6.4,0,11.7,3.7,12.7,10.6L249.6,299.5
			L249.6,299.5z"/>
		<path class="st0" d="M259.1,289.6h4.1v14.1h16.2v-14.1h4.1v32.8h-4.1v-15h-16.2v15h-4.1V289.6z"/>
		<path class="st0" d="M290.2,289.6h4.4l16.2,26.6h0.1v-26.6h3.9v32.8h-4.5l-16.1-26.3H294v26.3h-3.9L290.2,289.6L290.2,289.6z"/>
		<path class="st0" d="M334.3,288.8c9.8,0,14.7,8.3,14.7,17.2c0,8.9-5,17.2-14.7,17.2c-9.8,0-14.7-8.3-14.7-17.2
			C319.6,297.1,324.5,288.8,334.3,288.8z M334.3,319.5c7.5,0,10.6-6.9,10.6-13.5c0-6.6-3.1-13.5-10.6-13.5
			c-7.5,0-10.6,6.9-10.6,13.5C323.7,312.6,326.8,319.5,334.3,319.5z"/>
		<path class="st0" d="M354.1,289.6h4.1v29.1h16.3v3.7h-20.4L354.1,289.6L354.1,289.6z"/>
		<path class="st0" d="M391,288.8c9.8,0,14.7,8.3,14.7,17.2c0,8.9-5,17.2-14.7,17.2s-14.7-8.3-14.7-17.2
			C376.3,297.1,381.2,288.8,391,288.8z M391,319.5c7.5,0,10.6-6.9,10.6-13.5c0-6.6-3.1-13.5-10.6-13.5s-10.6,6.9-10.6,13.5
			C380.4,312.6,383.5,319.5,391,319.5z"/>
		<path class="st0" d="M433.8,318.3c-2.4,3.4-6.2,4.9-9.9,4.9c-9.2,0-14.6-8-14.6-16.5c0-9.5,4.9-17.8,14.6-17.8
			c6.7,0,12.1,3.2,13.2,10.9H433c-0.8-5-4.6-7.2-9.1-7.2c-7.5,0-10.6,6.9-10.6,13.9c0,6.8,3.7,13.1,10.6,13.1
			c6.3,0,10.1-4.7,9.9-10.7h-9.8v-3.7h13.5v17.3h-2.6L433.8,318.3z"/>
		<path class="st0" d="M456.2,309v13.4h-4.1V309l-11.9-19.4h4.9l9.2,15.6l9-15.6h4.7L456.2,309z"/>
	</g>
</g>
</svg>
