<?xml version="1.0" encoding="utf-8"?>
<!-- Generator: Adobe Illustrator 15.0.0, SVG Export Plug-In . SVG Version: 6.00 Build 0)  -->
<!DOCTYPE svg PUBLIC "-//W3C//DTD SVG 1.1//EN" "http://www.w3.org/Graphics/SVG/1.1/DTD/svg11.dtd">
<svg version="1.1" id="Calque_1" xmlns="http://www.w3.org/2000/svg" xmlns:xlink="http://www.w3.org/1999/xlink" x="0px" y="0px"
	 width="500px" height="500px" viewBox="0 0 500 500" enable-background="new 0 0 500 500" xml:space="preserve">
<g id="Nouveau_symbole">
</g>
<path fill="#0A2C63" d="M182.331,249.847v-4.694c0,0-24.908,3.263-26.667,3.649c-1.761,0.379-2.124,1.608-2.124,5.359
	c0,3.748-0.073,8.087,0,10.839c0.079,2.753,2.96,4.523,4.728,4.372c1.753-0.155,18.505-2.341,20.807-2.796
	c2.228-0.448,3.441-2.594,3.666-4.2c0.23-1.604,0.349-6.467,0.349-6.467s-4.912-2.341-4.991-1.421
	c-0.08,0.916-0.026,5.277-0.026,6.959c0,1.684-13.641,2.396-16.389,2.857c-2.756,0.458-2.453-1.912-2.453-1.912l-0.515-8.215
	c0,0-0.145-1.984,2.15-2.291C163.159,251.577,182.331,249.847,182.331,249.847z"/>
<polygon fill="#EA6D12" points="167.062,255.938 177.162,254.409 177.162,258.388 167.517,259.766 "/>
<path fill="#0A2C63" d="M199.183,251.273c0,0,9.11-0.84,11.023-0.992c2.874-0.234,1.938-3.54,0.685-3.445
	c-1.991,0.152-14.689,1.609-15.915,1.836c-1.22,0.228-1.754,0.689-1.754,2.064c0,1.381-0.08,7.344,0,8.873
	c0.079,1.533-0.159,1.837,3.211,1.608c3.369-0.229,20.497-2.448,20.497-2.448l-0.067,4.134l-21.887,2.445
	c0,0-6.191-0.076-6.263-3.518c-0.08-3.444,0-7.574,0-10.864c0-3.287,2.136-5.354,3.362-5.66c1.227-0.303,17.115-2.456,20.194-2.756
	c2.366-0.227,3.131,4.592,3.131,4.592s1.385,7.421-4.588,7.879c-8.321,0.64-11.702,1.146-11.702,1.146L199.183,251.273z"/>
<path fill="#0A2C63" d="M222.983,262.287h4.278c0,0,0-14.53,0-15.756c0-1.223,0.916-1.378,2.143-1.223
	c1.227,0.151,1.991,1.988,1.991,1.988s10.482,13.08,15.15,12.853c4.655-0.231,5.354-1.988,5.499-3.673
	c0.158-1.681,0-17.441,0-17.441h-4.126c0,0,1.226,15.836-1.991,15.76c-2.98,0-12.315-14.765-17.135-14.689
	c-4.819,0.076-5.808,5.353-5.808,5.353V262.287z"/>
<polygon fill="#0A2C63" points="258.017,242.351 262.908,242.351 262.908,258.005 257.858,258.005 "/>
<path fill="#0A2C63" d="M268.881,243.472h4.431c0,0-0.079,6.045-0.151,7.266c-0.073,1.226,2.524,1.76,8.643,1.456
	c6.118-0.307,9.257-0.307,9.487-2.373c0.23-2.063-0.072-15.833-0.072-15.833h5.195c0,0,0,14.686,0,16.063
	c0,1.377-2.598,6.424-14.069,6.273c-5.591-0.076-6.435-0.23-9.493-0.31c-3.06-0.076-4.128-3.821-4.128-3.821L268.881,243.472z"/>
<path fill="#EA6D12" d="M264.793,236.895c0,2.136-1.892,3.874-4.232,3.874c-2.333,0-4.232-1.737-4.232-3.874
	c0-2.143,1.899-3.876,4.232-3.876C262.902,233.019,264.793,234.752,264.793,236.895z"/>
<path fill="#0A2C63" d="M326.78,232.606v-2.904l-22.026,2.218c0,0-2.301,1.302-2.987,2.752c-0.686,1.454-0.764,4.668,0,6.197
	c0.766,1.533,3.218,2.522,3.218,2.522l16.825-1.375c0,0,1.607,0.155,1.991,1.916c0.382,1.757-1.53,2.828-1.53,2.828l-20.655,2.904
	v3.062l24.249-2.525c0,0,3.521-2.601,3.368-6.5c-0.151-3.903-4.668-5.663-4.668-5.663l-17.365,1.378c0,0-1.068-0.917-1.146-2.294
	c-0.072-1.378,1.226-1.912,1.226-1.912l19.277-2.676"/>
<path fill="none" stroke="#0A2C63" stroke-width="1.6878" d="M111.907,225.266c0,0-109.342,56.098-94.244,72.827
	c37.124,39.161,405.127-58.142,405.127-58.142"/>
<radialGradient id="SVGID_1_" cx="453.385" cy="228.3247" r="33.0473" gradientUnits="userSpaceOnUse">
	<stop  offset="0.0056" style="stop-color:#FFFFFF"/>
	<stop  offset="0.1001" style="stop-color:#F8F9FA"/>
	<stop  offset="0.2369" style="stop-color:#E5E8EE"/>
	<stop  offset="0.3998" style="stop-color:#C5CCD9"/>
	<stop  offset="0.5826" style="stop-color:#99A6BC"/>
	<stop  offset="0.782" style="stop-color:#607596"/>
	<stop  offset="0.9925" style="stop-color:#1D396A"/>
	<stop  offset="1" style="stop-color:#1A3768"/>
</radialGradient>
<path fill="url(#SVGID_1_)" d="M486.636,227.715c0,17.741-17.143,33.452-35.905,33.452c-18.757,0-30.597-14.28-30.597-32.025
	c0-17.748,19.39-33.66,38.146-33.66S486.636,209.967,486.636,227.715z"/>
<path fill="#FFFFFF" d="M467.154,206.802l-4.028-4.028c0,0-21.466,21.371-22.745,22.749c-1.278,1.375-2.499,5.864-1.173,7.289
	c1.331,1.431,7.344,7.549,9.388,9.385c2.03,1.836,7.542,3.369,9.783,1.427c2.249-1.935,16.581-16.419,19.027-19.02
	c2.445-2.601,2.044-5.713,0.355-7.394c-1.681-1.685-6.776-6.784-6.776-6.784l-16.278,16.268l2.96,2.957
	c0,0,10.911-10.809,11.379-11.37c0.455-0.56,2.802-0.511,3.515,0.356c0.719,0.864,0.1,3.722-0.508,4.384
	c-0.613,0.663-15.045,15.071-15.552,15.556c-0.521,0.485-2.553,0.254-3.521-0.356c-0.97-0.609-6.989-6.939-7.754-7.753
	c-0.765-0.817,0.151-2.396,0.718-2.957C446.498,226.95,467.154,206.802,467.154,206.802z"/>
</svg>
