<?xml version="1.0" encoding="utf-8"?>
<!-- Generator: Adobe Illustrator 21.0.2, SVG Export Plug-In . SVG Version: 6.00 Build 0)  -->
<svg version="1.1" id="Calque_2" xmlns="http://www.w3.org/2000/svg" xmlns:xlink="http://www.w3.org/1999/xlink" x="0px" y="0px"
	 viewBox="0 0 500 196" style="enable-background:new 0 0 500 196;" xml:space="preserve">
<style type="text/css">
	.st0{fill:#00946C;}
</style>
<path class="st0" d="M235.5,121.8h-48.2c-1.5,9.3,2.6,14.3,12.1,14.3c4.9,0,8.7-1.6,11.9-5.9h22c-6.1,15.2-21.6,22.1-36.4,22.1
	c-21.4,0-35.5-12.1-31.9-34.4c3.4-21.5,20.2-34.5,41.2-34.5c22.4,0,33.2,13.8,29.7,35.9L235.5,121.8z M216.4,108.5
	c-0.2-6.2-5.2-10.2-11.3-10.2c-6.7,0-12.8,3.5-15.2,10.2H216.4z"/>
<path class="st0" d="M266.6,96.2h0.3c5.7-7.9,13.8-11.5,22.7-11.5h4.4l-3.5,22c-2.9-1.8-5.8-2.1-9.4-2.1c-12.7,0-17.2,8.4-19,19.5
	l-4.1,26.1h-22.9l10.2-64.6h22.9L266.6,96.2z"/>
<path class="st0" d="M311,150.2h-22.9l16.6-104.5h22.9L311,150.2z"/>
<path class="st0" d="M400.4,118c-3.5,21.9-23.6,34.4-44.3,34.4c-20.6,0-36.9-12.3-33.4-34.4c3.5-22,23.6-34.5,44.4-34.5
	S403.9,96,400.4,118z M346.8,118c-1.3,8.2,3.1,14.5,12.4,14.5s15.7-6.3,17-14.5c1.3-7.9-3.1-14.6-12.4-14.6S348,110.1,346.8,118z"/>
<path class="st0" d="M430.1,93.9h0.3c6.5-7.8,13.4-10.4,22.3-10.4c17.4,0,22.6,10.9,20,26.8l-6.3,39.9h-22.9l5-31.5
	c1-6.2,3.7-17-7.6-17c-9.3,0-13.1,6.9-14.3,15l-5.3,33.5h-22.9l10.2-64.6h22.9L430.1,93.9z"/>
<path class="st0" d="M156,117.8c2-12.4,8-22.2,16.6-28.8H111l-5.1,31.7h33.2c-4.5,17.9-19.5,26.9-37.1,26.9
	c-26.8,0-37.4-24.5-33.5-48.5c3.8-23.6,21.7-48.9,48.5-48.9c16.4,0,26.6,9.9,29.9,24.7l41.2-16c-8.9-29-31.4-43.4-63.6-43.4
	c-50.4,0-90.2,33.1-98.2,83.5c-7.8,48.7,21.1,81.8,70.3,81.8c26.1,0,50.7-9.3,69.4-30.4c0.3-0.4,0.7-0.8,1-1.2
	C158.1,142.8,153.7,132.2,156,117.8z"/>
<path class="st0" d="M470.5,56c0-1.9-1.4-2.8-4.3-2.9h-3.8v10.3h1.7v-4.5h2.2l2.2,4.5h1.9l-2.3-4.7C469.6,58.5,470.5,57.4,470.5,56z
	 M465.9,57.9h-1.8v-3.5v-0.1v0.1h1.8c1.9,0,2.8,0.5,2.8,1.8S467.8,57.9,465.9,57.9z"/>
<path class="st0" d="M472.4,52.1c-1.7-1.7-4-2.6-6.4-2.6c-2.5,0-4.6,0.9-6.3,2.6c-1.7,1.7-2.7,4-2.7,6.4s0.9,4.6,2.6,6.3
	c1.8,1.7,4,2.7,6.4,2.7c2.4,0,4.6-1,6.4-2.7c1.7-1.6,2.6-3.8,2.6-6.3S474.1,53.8,472.4,52.1z M471.7,64.2c-1.6,1.5-3.6,2.3-5.7,2.3
	c-2.1,0-4.1-0.8-5.6-2.3c-1.5-1.6-2.3-3.5-2.3-5.6c0-2.1,0.8-4.1,2.4-5.7c1.4-1.5,3.4-2.3,5.5-2.3c2.2,0,4.2,0.8,5.7,2.3
	c1.4,1.5,2.2,3.5,2.3,5.8C474,60.8,473.2,62.7,471.7,64.2z"/>
</svg>
