<?xml version="1.0" encoding="utf-8"?>
<!-- Generator: Adobe Illustrator 19.1.0, SVG Export Plug-In . SVG Version: 6.00 Build 0)  -->
<svg version="1.1" id="Calque_1" xmlns="http://www.w3.org/2000/svg" xmlns:xlink="http://www.w3.org/1999/xlink" x="0px" y="0px"
	 viewBox="0 0 500 500" style="enable-background:new 0 0 500 500;" xml:space="preserve">
<style type="text/css">
	.st0{fill:#E2001A;}
	.st1{fill:#434345;}
	.st2{fill:#FFFFFF;}
</style>
<g>
	<path class="st0" d="M166.7,223.5v14.8c-7.2-1.2-17.2-3.3-22.5,3.1c-1.9,2.6-2,6.6-1,9.6c1.1,3.6,4.9,5.6,8.4,6l0.1-14h15v27.5
		c-11.7,2.2-25.4,2.1-33.6-7.5c-6.1-6.4-7.3-16.8-4.3-25.1c3.4-9.6,13.5-15.4,23.3-15.8C157.1,222.1,162,222.5,166.7,223.5"/>
	<rect x="171.5" y="223.2" class="st0" width="15.3" height="47.2"/>
	<path class="st0" d="M357.9,225c6.5-4.4,17.2-3.8,23.4,0.9c5.4,4.4,7,10.6,7.5,17.2v27.3h-15.3l-0.2-29.7c-0.3-1.3-0.7-2.8-2-3.5
		c-1.1-0.5-2.7-0.3-3.8,0.1c-1.5,1-1.6,2.7-1.8,4.3l-0.2,28.7h-15.3l-0.2-29.8c-0.2-1.3-0.8-2.9-2.2-3.4c-1.2-0.3-2.9-0.5-3.8,0.4
		c-1.4,1.3-1.5,3.2-1.6,5l-0.1,27.8h-15.1v-29.9c0.5-7.3,5-15.2,12.5-17.3C345.5,221.4,353,221.7,357.9,225"/>
	<rect x="393.9" y="223.2" class="st0" width="15.3" height="47.2"/>
	<path class="st0" d="M451.6,231.9c1.6,3.1,2.5,6.6,2.7,10.3v28.2h-15.2l-0.1-29c-0.3-1.4-0.7-2.8-1.9-3.8c-1.2-0.8-3-0.9-4.4-0.5
		c-2.5,1-2.9,3.7-3.1,6l0,27.2h-15.2v-30c0.9-6.3,3.9-12.7,10-15.9c6.2-3.2,15.8-3.1,21.6,1C448.4,227,450.3,229.5,451.6,231.9"/>
	<rect x="459.5" y="223.2" class="st0" width="15.3" height="47.2"/>
	<path class="st0" d="M320.2,232.9c-5.4-7.5-13.4-11.2-22.7-10.8c-9.2,0.6-18.5,6.7-21.8,15.6c-3.2,7.5-2,17.5,3,23.7
		c5.7,7.3,13.8,10.7,23,10.1c8.6-0.7,17.1-6.5,20.7-14.7C326,249.5,324.9,239.3,320.2,232.9z M308.7,249.6c-0.8,3.1-3.8,6-6.9,6.7
		c-3.4,0.7-6.9,0-9.3-2.4c-2.6-2.4-3.5-5.7-2.9-9.2c0.5-3,2.9-5.9,5.8-7.1c4.2-1.7,9.1-0.4,11.8,3.3
		C309,243.3,309.5,246.7,308.7,249.6z"/>
	<path class="st0" d="M231.9,241.4c-0.3-3.5-1.3-6.7-2.8-9.8c-4.5-9.1-15.3-11-24.4-8.5c-7.5,2.1-12,10.1-12.5,17.4l-0.2,29.8h15.2
		v-10.3h9.6v10.3H232C232,260.7,232.2,250.9,231.9,241.4z M216.7,246.6h-9.4c0.3-3.4-0.8-7.9,2.9-9.4c1.7-0.4,3.7-0.4,5.1,0.8
		C217,240.3,216.6,243.5,216.7,246.6z"/>
	<path class="st0" d="M250.6,246.8c0,2.1,0.4,3.4,1.6,5.3c4.9,5.6,11.5,4.5,20.1,3.5v15.5c-5.3,0.7-7,0.7-12.3,0.8
		c-9.9-0.3-20.3-6.3-23.7-16.1c-1-2.8-1.5-5.9-1.5-9c0-3.1,0.5-6.2,1.5-9c3.5-9.8,13.5-15.5,23.4-15.8c5.3,0,7.6,0.2,12.2,0.9v15.3
		c-6.6-1.3-14-2.7-19.6,3.4C251.1,243.8,250.7,244.7,250.6,246.8"/>
	<path class="st1" d="M278.6,293.5h-3.9l-1.6-4.4c0-0.1-0.1-0.2-0.2-0.2c-0.1,0-0.2,0.1-0.2,0.2l-1.5,4.4h-3.9
		c-1.8-4.3-2.4-9.3-2.3-14.5h3.9c0,1.7,0.2,4.3,0.3,5.6c0.1,1.2,0.2,3.6,0.4,4.5l0.1,0c0.1-0.7,0.6-2.4,0.7-2.9l0.7-2.8h3.9l0.7,2.8
		c0.1,0.5,0.6,2.3,0.7,2.9l0.1,0c0.2-1,0.4-3.3,0.4-4.5c0.1-1.2,0.3-3.9,0.3-5.6h3.8C281,284.3,280.4,289.2,278.6,293.5"/>
	<path class="st1" d="M294.4,293.5c-0.1-0.5-0.3-1.3-0.6-2.2h-4.3c-0.2,0.9-0.4,1.7-0.6,2.2h-4c0,0,0.5-2,2.2-7.5
		c1.7-5.6,2.2-7,2.2-7h4.5c0,0,0.5,1.4,2.2,7c1.7,5.5,2.2,7.5,2.2,7.5H294.4z M291.9,283.9c-0.1-0.2-0.1-0.2-0.2-0.2
		c-0.1,0-0.1,0-0.2,0.2c-0.2,0.6-0.9,3.2-1.1,4.1h2.7C292.8,287.1,292.1,284.5,291.9,283.9"/>
	<path class="st1" d="M308.7,282.3c0,1.3,0,2.2,0,4.5c0,2,0,4,0,6.7h-3.6c0-4.2,0-4.2,0-7.6v-3.6c-1.7,0-3.7,0.1-3.7,0.1v-3.3
		c0,0,2.3-0.1,4.7-0.1c2.4,0,6.3,0.1,6.3,0.1v3.2C312.5,282.3,310.4,282.3,308.7,282.3"/>
	<path class="st1" d="M322.4,293.5c-2.4,0-4.4-0.1-4.4-0.1c0.1-4.2,0-4.2,0-7.5c0-2.1,0-4.1,0-6.8c0,0,2-0.1,4.5-0.1
		c2.4,0,5.3,0.1,5.3,0.1v3.3c0,0-3.4,0-4.4,0h-1.8c0,0.4,0,0.9,0,1.5c0,0.2,0.1,0.3,0.4,0.3h5.5v3.5l-5.4,0c-0.3,0-0.3,0.2-0.3,0.3
		c0,1.1,0,1.7,0,2.3h1.8c1,0,4.4,0,4.4,0v3.3C327.7,293.5,324.8,293.5,322.4,293.5"/>
	<path class="st1" d="M340.6,293.5l-2.6-4.7c-0.2-0.3-0.2-0.3-0.4-0.3c0,1.5,0,1.9,0.1,5h-3.6c0.1-4.2,0-4.2,0-7.6
		c0-2.1,0-4.2,0-6.9h5.8c3.1,0,4.3,2.5,4.3,4.7c0,1.6-0.4,3.1-2.3,4c-0.3,0.2-0.3,0.3-0.1,0.5l3.2,5.2L340.6,293.5L340.6,293.5z
		 M339.4,282.3h-1.7c0,0.8,0,2.1,0,3c0.5,0,1.8,0,1.8,0c0.6,0,0.9-0.7,0.9-1.5C340.5,283.1,340,282.3,339.4,282.3"/>
	<path class="st0" d="M363.6,293.5c-2.4,0-4.4-0.1-4.4-0.1c0.1-4.2,0-4.2,0-7.5c0-2.1,0-4.1,0-6.8c0,0,2.1-0.1,4.5-0.1
		c2.4,0,5.3,0.1,5.3,0.1v3.3c0,0-3.4,0-4.4,0h-1.8c0,0.4,0,0.9,0,1.5c0,0.2,0.1,0.3,0.4,0.3h5.5v3.5l-5.4,0c-0.3,0-0.3,0.2-0.3,0.3
		c0,1.1,0,1.7,0,2.3h1.8c1,0,4.4,0,4.4,0v3.3C368.9,293.5,366,293.5,363.6,293.5"/>
	<rect x="372.4" y="285.9" class="st1" width="5.8" height="2.6"/>
	<path class="st1" d="M394.8,285.9c0,3.3-0.1,3.4,0,7.6h-3.7c0-1.4,0-2.5,0-3.9c0-1.1,0.1-2.7,0.1-3.6l-0.1,0l-1.8,4.7h-2.6
		l-1.8-4.7l-0.1,0c0,0.9,0.1,2.5,0.1,3.6c0,1.4,0.1,2.3,0.1,3.8h-3.7c0.1-4.2,0-4.3,0-7.6c0-2.1,0-4.1,0-6.8h4.2l2.4,6
		c0.1,0.1,0.1,0.2,0.2,0.2c0.1,0,0.1,0,0.2-0.2l2.4-6h4.2C394.8,281.8,394.8,283.8,394.8,285.9"/>
	<path class="st1" d="M411.4,292.8c-1,1-2.6,1.3-4.3,1.3c-1.8,0-3.4-0.3-4.4-1.3c-1.6-1.5-2-4-2-6.4c0-2.4,0.4-4.9,2-6.4
		c1-1,2.6-1.3,4.4-1.3c1.8,0,3.4,0.3,4.4,1.3c1.6,1.5,2,4,2,6.4C413.4,288.8,413,291.4,411.4,292.8 M408.6,282.6
		c-0.2-0.2-0.7-0.4-1.6-0.4s-1.4,0.2-1.6,0.4c-0.6,0.7-0.9,2-0.9,3.9c0,1.8,0.3,3.2,0.9,3.8c0.2,0.2,0.7,0.4,1.6,0.4
		c0.8,0,1.4-0.2,1.6-0.4c0.6-0.7,0.9-2.1,0.9-3.8C409.6,284.6,409.3,283.3,408.6,282.6"/>
	<path class="st1" d="M425.6,282.3c0,1.3,0,2.2,0,4.5c0,2,0,4,0,6.7H422c0-4.2,0-4.2,0-7.6v-3.6c-1.7,0-3.7,0.1-3.7,0.1v-3.3
		c0,0,2.3-0.1,4.7-0.1c2.4,0,6.3,0.1,6.3,0.1v3.2C429.3,282.3,427.3,282.3,425.6,282.3"/>
	<path class="st1" d="M434.8,293.5c0-3.9,0-4,0-7.5c0-2.2,0-4.6,0-7h3.6c0,3.9,0,4.4,0,7.9c0,2.2,0,4.3,0,6.5L434.8,293.5
		L434.8,293.5z"/>
	<path class="st1" d="M455.2,292.8c-1,1-2.6,1.3-4.3,1.3c-1.8,0-3.4-0.3-4.4-1.3c-1.6-1.5-2-4-2-6.4c0-2.4,0.4-4.9,1.9-6.4
		c1-1,2.6-1.3,4.4-1.3c1.8,0,3.4,0.3,4.4,1.3c1.6,1.5,2,4,2,6.4C457.1,288.8,456.7,291.4,455.2,292.8 M452.4,282.6
		c-0.2-0.2-0.7-0.4-1.6-0.4s-1.4,0.2-1.6,0.4c-0.6,0.7-0.9,2-0.9,3.9c0,1.8,0.3,3.2,0.9,3.8c0.2,0.2,0.7,0.4,1.6,0.4
		c0.8,0,1.4-0.2,1.6-0.4c0.7-0.7,0.9-2.1,0.9-3.8C453.3,284.6,453,283.3,452.4,282.6"/>
	<path class="st1" d="M470.9,293.5l-3.9-7.4c-0.1-0.2-0.3-0.1-0.3,0.1c0,0.6,0.1,1.4,0.1,1.9c0,1.8,0.1,4.1,0.1,5.5h-3.6
		c0.1-4.2,0-4.3,0-7.6c0-1.5,0-2.3,0-3c0-0.7,0-1.5,0-3.8h4.4l3.6,7.4c0.1,0.2,0.3,0.1,0.3-0.1c0-0.6-0.1-1.4-0.1-1.9
		c0-1.8-0.1-4.1-0.1-5.5h3.6c-0.1,4.2,0,4.3,0,7.6v3c0,0.7,0,1.5,0,3.8H470.9z"/>
	<path class="st0" d="M113.7,248.5c-0.9-24.5-21.4-43.7-45.9-42.8C43.3,206.5,24.2,227,25,251.5c0.9,24.5,21.4,43.6,45.9,42.8
		C95.4,293.5,114.6,273,113.7,248.5"/>
	<path class="st2" d="M103.6,240c0.9,3,2,6,1.6,9.4c-0.3,0.9-1.4,0.9-2.1,0.6c-1.6-0.9-0.6-2.2-1.3-5.7c-0.8-4.7-1.7-9.4-5-12.8
		c0.6-0.7,1.3,0.1,1.9,0.4C101.1,234.2,102.4,237.1,103.6,240 M96.2,234.7c3,6.6,5,13.5,5.7,21c0.1,0.8-0.3,1.5-1.1,1.7
		c-1.1,0.3-2-0.4-2.3-1.3c-0.7-9-1.8-17.9-5.7-25.6c0-0.4,0.5-0.5,0.7-0.3L96.2,234.7z"/>
	<path class="st2" d="M93.3,224.7c0,0,0-0.2-0.3-0.3c-1.3-0.3-2.5-0.4-4.6-3.5c-0.6-1-1-2.5-1.1-4.3c-0.1-1.8-0.6-4.3-2.1-5.3
		c-1.5-1-6.3,1.1-9.8,7.1c-1.2,2-2.7,3-3.4,3.3c0,0-2.1,1-6.3,2.4c-3.1,1.1-5.7,2.3-6.7,4c-0.4,0.6-0.2,1.3-0.2,2.1
		c-0.1,3,1.4,8.3,1.4,8.3s3.1,8.9-0.6,15.7c-2.1,3.3-3.7,6.3-1.6,10.6c1,1.9,1.6,2.7,2.7,5.5c1.3,3.5,4.2,6.5,3.8,7.3
		c-0.3,0.2-1.2-0.4-1.9-0.5c-0.8-0.1-2-0.4-5.3,1c-3.8,1.6-4.8,0.8-5.4,0.4c-0.6-0.4-1.2-1.5-2.7-0.9c-0.5,0.2-0.8,0.3-2.6,2.5
		c-0.5,0.7-2.3,1-2.3,1s-1.6,0.3-1.8,0.8c-0.2,0.5,0.3,0.6,0.8,0.4c0.5-0.1,1.1-0.2,2-0.2c0,0,1.6,0,4.2-0.6
		c1.4-0.4,2.9-0.3,5.5,0.2c2.6,0.6,11.8,0.8,13.8,0.1c0.4-0.1,1.9-0.4,1.7-2.6c-0.1-0.6,0-4.4-1.6-9.1c-1.1-3.2-1.5-4.4-1.6-4.9
		c0-0.1,0-0.3,0.2-0.3c0.1,0,0.1,0,0.2,0c1.7-0.1,7.3-0.6,9.8-2.8c0.6-0.4,1.3-0.8,1.5-0.7c0.1,0.1,0.7,0.5,0.4,1.3
		c-0.3,0.8-1.7,4.5-1.5,6.9c0.2,2.4,0.4,4,0.7,5.5c0.1,0.2,0.1,0.5,0.2,0.7c0.1,0.6,0.2,1.3,0,1.7c0,0,0,0,0,0
		c-0.4,0.8-1.1,1.9-0.9,3.1c0.2,1.3,2,1,2.4,1c0.4,0,2.6-0.2,4,0.4c1.4,0.5,4.2,0.9,4.8,0c0.3-0.4-0.1-0.9-0.7-0.8
		c-1.3,0.1-2.6-1-3.2-1.3c-0.6-0.3-1.5-0.9-2.8-1.7c-0.6-0.5-0.7-1.9,0.1-7.3c0.1-1,1.7-7.2,1.7-7.2s0.4-1.8,0.8-3
		c0.4-1.3,0.7-5.2-1.9-5.7c-2.7-0.5-3.9-0.9-12.1,1c-1.2,0.2-1.2-1.5-0.8-2.6c0.4-1.1,1.1-2.7,1.9-3.3c1.8-0.1,3-1,3.2-2.4
		c0.1-1.6-1.6-3.1,1.3-4.8c0,0,0.1,0,0.2-0.1c1-0.5,3.6-2.4,5.3-3.6c0.2-0.1,1.2-1,1.3-1.1c0.4-0.4,0.4-1.1,0.1-3.1
		c-0.3-2.5-0.8-6.5-0.8-8.9c0-0.2,0.1-0.3,0.1-0.5c0,0,0,0,0,0c0-0.1,0.1-0.3,0.1-0.4v0c0.4-1,1.3-2.3,3.4-1.3
		c1.9,0.9,3.3,3.2,3.7,3.8l0,0c0,0,0.1,0.2,0.3,0.1C91.1,228,93.2,227.4,93.3,224.7L93.3,224.7L93.3,224.7z M66.9,232.8l0.5,4.1
		c-0.3,0.7-1.8,0.8-2,0.2c-0.8-2.6-2.4-6.7-1.7-7.2c2.5-2.1,6.3-4.8,10.2-4.8c0,0,0.4,0,0.4,0.5c0.1,0.9-2.2,1-3.3,1.5
		C68.8,228.1,67,230.1,66.9,232.8 M79.9,236.6c-1.9,2-5.9,3.7-9.2,2.9c-0.2-2.4,2.6-1.9,4.5-2.9c1.5-0.8,2.7-2,3.2-3.7
		C80,233.4,80.3,235.3,79.9,236.6 M79.5,228.1c-1,0.1-1.1-0.7-1.3-1.5c-0.1-0.8,0.2-1.4,0.5-1.9c1-0.3,1.5,0.6,1.6,1.3
		C80.4,226.7,80.2,227.8,79.5,228.1"/>
</g>
</svg>
