<?xml version="1.0" encoding="utf-8"?>
<!-- Generator: Adobe Illustrator 16.0.0, SVG Export Plug-In . SVG Version: 6.00 Build 0)  -->
<!DOCTYPE svg PUBLIC "-//W3C//DTD SVG 1.1//EN" "http://www.w3.org/Graphics/SVG/1.1/DTD/svg11.dtd">
<svg version="1.1" id="Calque_2" xmlns="http://www.w3.org/2000/svg" xmlns:xlink="http://www.w3.org/1999/xlink" x="0px" y="0px"
	 width="500px" height="500px" viewBox="0 0 500 500" enable-background="new 0 0 500 500" xml:space="preserve">
<g>
	<g>
		<path d="M240.687,243.195c-4.171,5.875-10.996,8.304-17.365,8.304c-16.152,0-25.782-13.631-25.782-28.201
			c0-16.292,8.645-30.393,25.782-30.393c11.829,0,21.232,5.483,23.28,18.565h-7.204c-1.441-8.46-8.039-12.299-16.076-12.299
			c-13.119,0-18.579,11.749-18.579,23.735c0,11.671,6.521,22.324,18.579,22.324c11.147,0,17.82-8.067,17.365-18.25h-17.29v-6.268
			h23.735v29.453h-4.549L240.687,243.195z"/>
		<path d="M258.05,194.237h7.204v55.929h-7.204V194.237z"/>
		<path d="M277.386,194.237h25.479c10.162,0,16.456,5.718,16.456,14.648c0,6.736-2.882,12.297-9.404,14.178v0.157
			c6.294,1.253,7.584,6.031,8.114,11.514c0.454,5.483,0.151,11.593,3.185,15.431h-8.037c-2.049-2.271-0.91-8.302-1.972-13.785
			c-0.759-5.485-2.048-10.106-9.024-10.106H284.59v23.892h-7.204V194.237z M299.604,220.008c6.75,0,12.514-1.801,12.514-9.948
			c0-5.483-2.882-9.557-9.632-9.557H284.59v19.505H299.604z"/>
		<path d="M344.042,194.237h7.963l21.156,55.929H365.2l-5.917-16.84h-22.899l-6.066,16.84h-7.432L344.042,194.237z M338.658,227.059
			h18.351l-9.023-26.086h-0.151L338.658,227.059z"/>
		<path d="M378.467,194.237h25.479c10.163,0,16.457,5.718,16.457,14.648c0,6.736-2.882,12.297-9.404,14.178v0.157
			c6.294,1.253,7.584,6.031,8.114,11.514c0.454,5.483,0.151,11.593,3.185,15.431h-8.037c-2.049-2.271-0.91-8.302-1.972-13.785
			c-0.759-5.485-2.048-10.106-9.024-10.106h-17.593v23.892h-7.204V194.237z M400.685,220.008c6.75,0,12.514-1.801,12.514-9.948
			c0-5.483-2.882-9.557-9.632-9.557h-17.896v19.505H400.685z"/>
		<path d="M430.412,194.237h18.579c16.683,0,26.01,8.617,26.01,26.632c0,18.722-7.963,29.296-26.01,29.296h-18.579V194.237z
			 M437.616,243.9h11.98c4.93,0,18.2-1.409,18.2-22.01c0-13.317-4.777-21.386-18.047-21.386h-12.134V243.9z"/>
	</g>
	<g>
		<path d="M224.32,272.687c-0.743-7.229-5.335-10.346-11.955-10.346c-5.403,0-10.806,2.056-10.806,8.646
			c0,6.234,7.7,7.155,15.466,8.998c7.7,1.843,15.399,4.676,15.399,14.596c0,10.77-10.063,15.092-18.843,15.092
			c-10.806,0-19.924-5.526-19.924-17.855h6.078c0,8.503,6.754,12.188,14.048,12.188c5.808,0,12.224-1.914,12.224-9.213
			c0-6.942-7.699-8.146-15.398-9.918c-7.699-1.771-15.466-4.11-15.466-13.392c0-10.275,8.713-14.811,17.492-14.811
			c9.86,0,17.357,4.89,17.762,16.015H224.32z"/>
		<path d="M278.685,290.189c0,12.753-6.957,19.483-18.978,19.483c-12.428,0-19.79-6.022-19.79-19.483v-32.311h6.417v32.311
			c0,8.927,4.863,13.816,13.373,13.816c8.104,0,12.562-4.89,12.562-13.816v-32.311h6.416V290.189z"/>
		<path d="M288.945,257.878h16.546c14.859,0,23.166,7.794,23.166,24.09c0,16.935-7.091,26.5-23.166,26.5h-16.546V257.878z
			 M295.362,302.799h10.671c4.39,0,16.209-1.273,16.209-19.909c0-12.046-4.255-19.345-16.073-19.345h-10.807V302.799z"/>
		<path d="M336.488,257.878h22.692c9.051,0,14.657,5.172,14.657,13.249c0,6.094-2.566,11.125-8.375,12.824v0.143
			c5.604,1.133,6.753,5.456,7.227,10.415c0.405,4.961,0.134,10.487,2.836,13.959h-7.158c-1.824-2.055-0.812-7.51-1.756-12.47
			c-0.676-4.961-1.824-9.141-8.038-9.141h-15.668v21.61h-6.417V257.878z M356.276,281.189c6.013,0,11.146-1.629,11.146-8.998
			c0-4.961-2.566-8.646-8.579-8.646h-15.938v17.644H356.276z"/>
		<path d="M403.144,256.672c15.33,0,23.099,12.755,23.099,26.5c0,13.747-7.769,26.5-23.099,26.5
			c-15.332,0-23.099-12.753-23.099-26.5C380.045,269.427,387.812,256.672,403.144,256.672z M403.144,304.005
			c11.751,0,16.681-10.629,16.681-20.833c0-10.202-4.93-20.831-16.681-20.831c-11.753,0-16.683,10.629-16.683,20.831
			C386.461,293.376,391.391,304.005,403.144,304.005z"/>
		<path d="M434.004,257.878h6.821l25.394,41.024h0.136v-41.024h6.078v50.59h-7.024l-25.191-40.6h-0.135v40.6h-6.078V257.878z"/>
	</g>
	<path fill="#E42126" d="M102.511,305.853H33.316c0,0-8.316-19.007-8.316-51.081c0-32.073,25.837-64.444,25.837-64.444h57.02
		c0,0-60.583,43.36-22.273,109.289v-32.371h16.928V305.853z"/>
	<path fill="#E42126" d="M157.156,307.932h-46.032c0,0,17.224-16.632,17.224-35.044c0-18.413-9.207-28.807-13.364-34.45
		c-4.157-5.642-8.019-16.037-8.019-22.273s5.94-19.896,5.94-19.896h46.329c0,0-5.346,16.037-5.346,23.46
		c0,15.741,21.382,32.967,21.382,54.052C175.271,294.864,157.156,307.932,157.156,307.932z"/>
</g>
</svg>
