<?xml version="1.0" encoding="utf-8"?>
<!-- Generator: Adobe Illustrator 21.0.2, SVG Export Plug-In . SVG Version: 6.00 Build 0)  -->
<svg version="1.1" id="Calque_2" xmlns="http://www.w3.org/2000/svg" xmlns:xlink="http://www.w3.org/1999/xlink" x="0px" y="0px"
	 viewBox="0 0 500 128" style="enable-background:new 0 0 500 128;" xml:space="preserve">
<style type="text/css">
	.st0{fill:none;}
	.st1{fill:#EB690B;}
	.st2{fill:#00529F;}
</style>
<path class="st0" d="M461.7,22.2c-2.8,0-5,2.2-5,5.1c0,2.9,2.2,5.1,5,5.2c2.8,0,5-2.2,5-5.2C466.7,24.4,464.5,22.2,461.7,22.2z
	 M463.5,30.9l-1.9-3.1h-1.2v3.1h-1.1v-7.1h2.7c1.7,0,2.5,0.6,2.5,2c0,1.3-0.8,1.9-1.8,2l2,3.1H463.5z"/>
<path class="st1" d="M461.8,21.1c-3.4,0-6.3,2.6-6.3,6.2c0,3.5,2.9,6.2,6.3,6.2c3.4,0,6.2-2.6,6.2-6.2
	C468,23.8,465.1,21.1,461.8,21.1z M461.7,32.5c-2.8-0.1-5-2.3-5-5.2c0-2.9,2.2-5.1,5-5.1s5,2.2,5,5.1
	C466.7,30.3,464.5,32.5,461.7,32.5z"/>
<path class="st1" d="M464.5,25.8c0-1.4-0.8-2-2.5-2h-2.7v7.1h1.1v-3.1h1.2l1.9,3.1h1.2l-2-3.1C463.7,27.7,464.5,27.1,464.5,25.8z
	 M460.4,26.8v-2.2h1.5c0.8,0,1.6,0.2,1.6,1c0,1.1-0.8,1.2-1.7,1.2H460.4z"/>
<polygon class="st1" points="121.9,26.2 155,26.2 143.3,77.1 111,77.1 "/>
<polygon class="st1" points="159.8,26 234.4,26 231.6,40.1 210.8,40.1 205.2,77.6 171.1,77.6 177.3,40.1 157.2,40.1 "/>
<polygon class="st1" points="416.1,27.3 450.1,27.3 443.4,63.7 474.4,63.7 472.3,77.8 405.6,77.8 "/>
<path class="st1" d="M316.5,44.8c0-13.9-13.9-18.1-13.9-18.1h-63.2L229.2,78h34.4l2.6-12.1l10.3,11.6h33.6L300.4,62
	C300.4,62,316.5,59.9,316.5,44.8z M280.4,50.9h-11.7l2.9-10.7h7.4c0,0,4.6,0.8,4.6,5.2C283.6,49.9,280.4,50.9,280.4,50.9z"/>
<path class="st1" d="M390.7,26.9h-45.9L312.9,78h31.4l3.9-6.5h19.3l1.1,6.4h32.6L390.7,26.9z M355.7,56.8l5.7-11.4h0.7l2.9,11.4
	H355.7z"/>
<path class="st1" d="M77.2,49.9h30.5L104,70.8c0,0-10.9,9.4-40.1,9.4c-41.9,0-39.6-23-39.6-23s-1-23.8,28.2-31.2
	c25.6-6.4,51.3,3.8,51.3,3.8L100.6,45c0,0-4.9-5.5-23.6-5.7S58,54.6,58.7,56.8c0.8,2.1,2.3,9.2,14.7,5.7L77.2,49.9z"/>
<path class="st2" d="M84.5,88.4l0.1,4.6h-0.4c-0.2-1.2-0.7-2.1-1.4-2.8c-0.8-0.7-1.6-1.1-2.4-1.1c-0.7,0-1.2,0.2-1.6,0.6
	s-0.6,0.8-0.6,1.3c0,0.3,0.1,0.6,0.2,0.8c0.2,0.3,0.5,0.6,0.9,1c0.3,0.2,1,0.6,2.2,1.2c1.6,0.8,2.6,1.6,3.2,2.3
	c0.5,0.7,0.8,1.5,0.8,2.4c0,1.2-0.4,2.2-1.3,3s-2,1.3-3.3,1.3c-0.4,0-0.8,0-1.2-0.1c-0.4-0.1-0.9-0.3-1.4-0.5
	c-0.3-0.1-0.6-0.2-0.8-0.2c-0.2,0-0.4,0.1-0.5,0.2s-0.3,0.3-0.5,0.6H76v-5.3h0.4c0.3,1.5,0.9,2.6,1.7,3.4c0.8,0.8,1.7,1.2,2.7,1.2
	c0.7,0,1.3-0.2,1.8-0.6s0.7-0.9,0.7-1.5c0-0.3-0.1-0.6-0.3-1c-0.2-0.3-0.4-0.6-0.8-0.9c-0.3-0.3-1-0.6-1.8-1.1
	c-1.2-0.6-2.1-1.2-2.6-1.6s-1-0.9-1.2-1.5c-0.3-0.5-0.4-1.1-0.4-1.8c0-1.1,0.4-2.1,1.2-2.8c0.8-0.8,1.8-1.2,3-1.2
	c0.4,0,0.9,0.1,1.3,0.2c0.3,0.1,0.7,0.2,1.1,0.5c0.4,0.2,0.8,0.3,0.9,0.3c0.2,0,0.3-0.1,0.4-0.2s0.2-0.4,0.3-0.8L84.5,88.4
	L84.5,88.4z"/>
<path class="st2" d="M90.5,101.6v3.6c0,0.5,0,0.8,0.1,1s0.2,0.3,0.4,0.4s0.5,0.1,0.9,0.1v0.4h-5.3v-0.4c0.4,0,0.7-0.1,0.9-0.4
	c0.1-0.2,0.2-0.6,0.2-1.2V95c0-0.7-0.1-1.1-0.2-1.3c-0.2-0.2-0.4-0.3-0.9-0.3V93h3.9v1.3c0.3-0.5,0.7-0.8,1-1.1
	c0.5-0.3,1-0.5,1.6-0.5c0.7,0,1.3,0.2,1.9,0.7s1,1.1,1.3,1.8c0.3,0.8,0.4,1.6,0.4,2.5c0,1-0.2,1.9-0.5,2.7s-0.7,1.4-1.3,1.8
	c-0.6,0.4-1.2,0.6-1.9,0.6c-0.5,0-1-0.1-1.4-0.3C91.2,102.4,90.9,102.1,90.5,101.6z M90.5,100.6c0.6,0.8,1.2,1.3,1.8,1.3
	c0.4,0,0.7-0.2,0.9-0.6c0.3-0.6,0.5-1.7,0.5-3.3c0-1.7-0.2-2.8-0.6-3.4c-0.3-0.4-0.6-0.6-1-0.6c-0.7,0-1.2,0.5-1.7,1.5L90.5,100.6
	L90.5,100.6z"/>
<path class="st2" d="M114.9,100.1l0.3,0.2c-0.4,0.8-1,1.5-1.6,1.9c-0.7,0.4-1.3,0.6-2.1,0.6c-1.2,0-2.2-0.5-3-1.4
	c-0.7-1-1.1-2.1-1.1-3.5c0-1.3,0.3-2.5,1-3.4c0.8-1.2,1.9-1.8,3.4-1.8c1,0,1.7,0.2,2.3,0.7s0.9,1.1,0.9,1.7c0,0.4-0.1,0.7-0.3,0.9
	c-0.2,0.2-0.5,0.3-0.9,0.3s-0.7-0.1-1-0.4s-0.4-0.7-0.5-1.4c0-0.4-0.1-0.7-0.3-0.9c-0.2-0.2-0.3-0.3-0.5-0.3c-0.3,0-0.6,0.2-0.8,0.5
	c-0.3,0.5-0.5,1.3-0.5,2.4c0,0.9,0.1,1.8,0.4,2.6s0.7,1.4,1.1,1.8c0.4,0.3,0.8,0.4,1.3,0.4c0.3,0,0.6-0.1,0.9-0.2
	S114.5,100.6,114.9,100.1z"/>
<path class="st2" d="M127.2,101.2c-1.1,1-2.2,1.5-3.1,1.5c-0.5,0-1-0.2-1.3-0.5s-0.5-0.8-0.5-1.3c0-0.7,0.3-1.4,0.9-2s1.9-1.4,4-2.3
	v-1c0-0.7,0-1.2-0.1-1.4s-0.2-0.4-0.4-0.5c-0.2-0.1-0.5-0.2-0.7-0.2c-0.4,0-0.8,0.1-1.1,0.3c-0.2,0.1-0.3,0.3-0.3,0.4
	s0.1,0.3,0.3,0.5c0.3,0.3,0.4,0.6,0.4,0.9s-0.1,0.6-0.4,0.9c-0.2,0.2-0.6,0.4-1,0.4s-0.8-0.1-1.1-0.4c-0.3-0.3-0.4-0.6-0.4-0.9
	c0-0.5,0.2-1,0.6-1.4s0.9-0.8,1.6-1s1.4-0.4,2.1-0.4c0.9,0,1.6,0.2,2.1,0.6s0.8,0.8,1,1.3c0.1,0.3,0.1,0.9,0.1,2v3.7
	c0,0.4,0,0.7,0.1,0.8c0,0.1,0.1,0.2,0.1,0.3s0.1,0.1,0.2,0.1c0.2,0,0.3-0.1,0.5-0.4l0.3,0.2c-0.3,0.5-0.7,0.9-1,1.1
	c-0.4,0.2-0.8,0.3-1.2,0.3c-0.5,0-0.9-0.1-1.2-0.4C127.4,102.1,127.2,101.7,127.2,101.2z M127.2,100.5v-3.2c-0.8,0.5-1.4,1-1.8,1.6
	c-0.3,0.4-0.4,0.7-0.4,1.1c0,0.3,0.1,0.6,0.3,0.8c0.2,0.2,0.4,0.3,0.7,0.3C126.3,101,126.7,100.8,127.2,100.5z"/>
<path class="st2" d="M135.9,88.7v11.9c0,0.7,0.1,1.1,0.2,1.3s0.5,0.3,0.9,0.3v0.4h-5v-0.4c0.4,0,0.7-0.1,0.9-0.4
	c0.1-0.2,0.2-0.6,0.2-1.3v-9.9c0-0.7-0.1-1.1-0.2-1.3c-0.2-0.2-0.4-0.3-0.9-0.3v-0.4L135.9,88.7L135.9,88.7z"/>
<path class="st2" d="M149.4,92.8l0.1,3.3h-0.3c-0.4-1-0.8-1.6-1.3-2s-0.9-0.5-1.3-0.5c-0.3,0-0.5,0.1-0.7,0.3s-0.3,0.4-0.3,0.7
	c0,0.2,0.1,0.4,0.2,0.5c0.2,0.3,0.8,0.8,1.8,1.4c1,0.7,1.6,1.3,1.9,1.7c0.3,0.5,0.5,1,0.5,1.6c0,0.5-0.1,1.1-0.4,1.6
	c-0.3,0.5-0.6,0.9-1.1,1.2c-0.5,0.3-1,0.4-1.6,0.4c-0.4,0-1-0.1-1.8-0.4c-0.2-0.1-0.3-0.1-0.4-0.1c-0.2,0-0.4,0.2-0.5,0.5H144
	l-0.2-3.4h0.3c0.3,0.9,0.7,1.6,1.2,2s1,0.7,1.5,0.7c0.3,0,0.6-0.1,0.8-0.3c0.2-0.2,0.3-0.4,0.3-0.7c0-0.3-0.1-0.6-0.3-0.9
	c-0.2-0.2-0.6-0.6-1.3-1.1c-1-0.7-1.7-1.3-2-1.7c-0.4-0.6-0.7-1.2-0.7-1.9c0-0.7,0.2-1.4,0.7-2s1.2-0.9,2.1-0.9c0.5,0,1,0.1,1.5,0.4
	c0.2,0.1,0.3,0.2,0.4,0.2c0.1,0,0.2,0,0.3-0.1s0.2-0.2,0.3-0.4L149.4,92.8L149.4,92.8z"/>
<path class="st2" d="M155.2,89.5V93h2.2v1h-2.2v5.9c0,0.6,0,0.9,0.1,1.1s0.1,0.3,0.3,0.4c0.1,0.1,0.2,0.1,0.3,0.1
	c0.4,0,0.8-0.3,1.2-1l0.3,0.2c-0.5,1.3-1.4,2-2.6,2c-0.6,0-1.1-0.2-1.5-0.5s-0.7-0.7-0.8-1.1c-0.1-0.2-0.1-0.9-0.1-1.9V94h-1.2v-0.4
	c0.8-0.6,1.5-1.2,2.1-1.9c0.6-0.7,1.1-1.4,1.5-2.2H155.2z"/>
<path class="st2" d="M166.2,97.5h-5.1c0.1,1.3,0.4,2.3,1,3c0.5,0.6,1,0.9,1.7,0.9c0.4,0,0.8-0.1,1.1-0.3c0.3-0.2,0.7-0.6,1-1.2
	l0.3,0.2c-0.5,1.1-1.1,1.8-1.7,2.3c-0.6,0.4-1.3,0.7-2.1,0.7c-1.4,0-2.4-0.5-3.1-1.6c-0.6-0.9-0.9-2-0.9-3.3c0-1.6,0.4-2.9,1.3-3.8
	c0.8-0.9,1.8-1.4,3-1.4c0.9,0,1.8,0.4,2.5,1.2C165.7,94.7,166.1,95.9,166.2,97.5z M163.7,96.8c0-1.1-0.1-1.9-0.2-2.3
	c-0.1-0.4-0.3-0.7-0.5-0.9c-0.1-0.1-0.3-0.2-0.6-0.2s-0.6,0.2-0.8,0.5c-0.4,0.6-0.6,1.4-0.6,2.5v0.4H163.7L163.7,96.8z"/>
<path class="st2" d="M176.5,94v6.7c0,0.6,0.1,1,0.2,1.2c0.2,0.3,0.6,0.4,1.2,0.3v0.4h-5.5v-0.4c0.4,0,0.7-0.1,0.9-0.1
	c0.2-0.1,0.3-0.2,0.4-0.4c0.1-0.2,0.1-0.5,0.1-1V94h-1.4v-1h1.4v-0.7v-0.5c0-1,0.4-1.8,1.1-2.5c0.7-0.7,1.6-1,2.8-1
	c0.8,0,1.4,0.2,1.8,0.5c0.4,0.3,0.6,0.7,0.6,1s-0.1,0.6-0.4,0.8s-0.6,0.3-1,0.3c-0.3,0-0.6-0.1-0.8-0.3c-0.2-0.2-0.3-0.4-0.3-0.6
	c0-0.1,0-0.2,0.1-0.4c0-0.1,0-0.2,0-0.3c0-0.1,0-0.2-0.1-0.3c-0.1-0.1-0.2-0.2-0.4-0.2s-0.4,0.1-0.5,0.2s-0.2,0.4-0.2,0.8v1.8v1.2
	h1.4v1L176.5,94L176.5,94z"/>
<path class="st2" d="M183.1,93v2.2c0.6-1,1.2-1.6,1.6-2c0.5-0.3,0.9-0.5,1.3-0.5c0.4,0,0.7,0.1,0.9,0.4c0.2,0.2,0.3,0.6,0.3,1
	c0,0.5-0.1,0.8-0.3,1.1s-0.5,0.4-0.8,0.4c-0.4,0-0.7-0.1-0.9-0.3s-0.4-0.4-0.5-0.4s-0.1-0.1-0.2-0.1c-0.2,0-0.4,0.1-0.5,0.2
	c-0.3,0.2-0.5,0.6-0.6,1c-0.2,0.7-0.3,1.4-0.3,2.2v2.2v0.6c0,0.4,0,0.6,0.1,0.7c0.1,0.2,0.2,0.3,0.4,0.4s0.4,0.1,0.8,0.2v0.4h-5
	v-0.4c0.4,0,0.7-0.1,0.8-0.3s0.2-0.7,0.2-1.5v-5.3c0-0.5,0-0.9-0.1-1c-0.1-0.2-0.2-0.3-0.3-0.4s-0.3-0.1-0.7-0.2V93H183.1L183.1,93z
	"/>
<path class="st2" d="M193.4,101.2c-1.1,1-2.2,1.5-3.1,1.5c-0.5,0-1-0.2-1.3-0.5s-0.5-0.8-0.5-1.3c0-0.7,0.3-1.4,0.9-2
	c0.6-0.6,1.9-1.4,4-2.3v-1c0-0.7,0-1.2-0.1-1.4s-0.2-0.4-0.4-0.5s-0.5-0.2-0.7-0.2c-0.4,0-0.8,0.1-1.1,0.3c-0.2,0.1-0.3,0.3-0.3,0.4
	s0.1,0.3,0.3,0.5c0.3,0.3,0.4,0.6,0.4,0.9s-0.1,0.6-0.4,0.9c-0.2,0.2-0.6,0.4-1,0.4s-0.8-0.1-1.1-0.4s-0.4-0.6-0.4-0.9
	c0-0.5,0.2-1,0.6-1.4c0.4-0.4,0.9-0.8,1.6-1c0.7-0.2,1.4-0.4,2.1-0.4c0.9,0,1.6,0.2,2.1,0.6s0.8,0.8,1,1.3c0.1,0.3,0.1,0.9,0.1,2
	v3.7c0,0.4,0,0.7,0.1,0.8c0,0.1,0.1,0.2,0.1,0.3s0.1,0.1,0.2,0.1c0.2,0,0.3-0.1,0.5-0.4l0.3,0.2c-0.3,0.5-0.7,0.9-1,1.1
	c-0.4,0.2-0.8,0.3-1.2,0.3c-0.5,0-0.9-0.1-1.2-0.4C193.6,102.1,193.5,101.7,193.4,101.2z M193.4,100.5v-3.2c-0.8,0.5-1.4,1-1.8,1.6
	c-0.3,0.4-0.4,0.7-0.4,1.1c0,0.3,0.1,0.6,0.3,0.8c0.2,0.2,0.4,0.3,0.7,0.3C192.6,101,193,100.8,193.4,100.5z"/>
<path class="st2" d="M202.3,93v1.2c0.5-0.5,0.9-0.9,1.4-1.2c0.4-0.2,0.9-0.4,1.4-0.4c0.6,0,1.1,0.2,1.5,0.5s0.7,0.8,0.8,1.3
	c0.1,0.4,0.2,1.1,0.2,2.2v3.7c0,0.7,0.1,1.2,0.2,1.4s0.4,0.3,0.8,0.3v0.4h-4.7V102c0.4,0,0.6-0.2,0.8-0.5c0.1-0.2,0.2-0.6,0.2-1.3
	v-4.3c0-0.8,0-1.3-0.1-1.5s-0.2-0.4-0.3-0.5s-0.3-0.2-0.5-0.2c-0.6,0-1.1,0.4-1.6,1.3v5.1c0,0.7,0.1,1.2,0.2,1.4s0.4,0.3,0.7,0.4
	v0.4h-4.7v-0.4c0.4,0,0.7-0.2,0.8-0.4c0.1-0.1,0.2-0.6,0.2-1.3v-5.4c0-0.7-0.1-1.2-0.2-1.4s-0.4-0.3-0.8-0.3V93H202.3z"/>
<path class="st2" d="M217.4,100.1l0.3,0.2c-0.4,0.8-1,1.5-1.6,1.9c-0.7,0.4-1.3,0.6-2.1,0.6c-1.2,0-2.2-0.5-3-1.4
	c-0.7-1-1.1-2.1-1.1-3.5c0-1.3,0.3-2.5,1-3.4c0.8-1.2,1.9-1.8,3.4-1.8c1,0,1.7,0.2,2.3,0.7s0.9,1.1,0.9,1.7c0,0.4-0.1,0.7-0.3,0.9
	c-0.2,0.2-0.5,0.3-0.9,0.3s-0.7-0.1-1-0.4s-0.4-0.7-0.5-1.4c0-0.4-0.1-0.7-0.3-0.9c-0.2-0.2-0.3-0.3-0.5-0.3c-0.3,0-0.6,0.2-0.8,0.5
	c-0.3,0.5-0.5,1.3-0.5,2.4c0,0.9,0.1,1.8,0.4,2.6s0.7,1.4,1.1,1.8c0.4,0.3,0.8,0.4,1.3,0.4c0.3,0,0.6-0.1,0.9-0.2
	S217,100.6,217.4,100.1z M213.9,102.5h0.7l-0.5,0.7c0.4,0.1,0.7,0.2,0.9,0.5s0.3,0.6,0.3,1s-0.1,0.7-0.3,1s-0.5,0.5-0.8,0.6
	c-0.5,0.2-1.3,0.3-2.3,0.2V106c0.7,0,1.1-0.1,1.3-0.3c0.2-0.2,0.4-0.5,0.4-0.8c0-0.2-0.1-0.4-0.2-0.5s-0.4-0.2-0.7-0.2L213.9,102.5z
	"/>
<path class="st2" d="M224,101.2c-1.1,1-2.2,1.5-3.1,1.5c-0.5,0-1-0.2-1.3-0.5s-0.5-0.8-0.5-1.3c0-0.7,0.3-1.4,0.9-2
	c0.6-0.6,1.9-1.4,4-2.3v-1c0-0.7,0-1.2-0.1-1.4s-0.2-0.4-0.4-0.5s-0.5-0.2-0.7-0.2c-0.4,0-0.8,0.1-1.1,0.3c-0.2,0.1-0.3,0.3-0.3,0.4
	s0.1,0.3,0.3,0.5c0.3,0.3,0.4,0.6,0.4,0.9s-0.1,0.6-0.4,0.9c-0.2,0.2-0.6,0.4-1,0.4s-0.8-0.1-1.1-0.4s-0.4-0.6-0.4-0.9
	c0-0.5,0.2-1,0.6-1.4c0.4-0.4,0.9-0.8,1.6-1c0.7-0.2,1.4-0.4,2.1-0.4c0.9,0,1.6,0.2,2.1,0.6s0.8,0.8,1,1.3c0.1,0.3,0.1,0.9,0.1,2
	v3.7c0,0.4,0,0.7,0.1,0.8c0,0.1,0.1,0.2,0.1,0.3s0.1,0.1,0.2,0.1c0.2,0,0.3-0.1,0.5-0.4l0.3,0.2c-0.3,0.5-0.7,0.9-1,1.1
	c-0.4,0.2-0.8,0.3-1.2,0.3c-0.5,0-0.9-0.1-1.2-0.4C224.2,102.1,224.1,101.7,224,101.2z M224,100.5v-3.2c-0.8,0.5-1.4,1-1.8,1.6
	c-0.3,0.4-0.4,0.7-0.4,1.1c0,0.3,0.1,0.6,0.3,0.8c0.2,0.2,0.4,0.3,0.7,0.3C223.2,101,223.5,100.8,224,100.5z"/>
<path class="st2" d="M231.2,91.6c0.4,0,0.8-0.2,1.1-0.5c0.3-0.3,0.5-0.7,0.5-1.1c0-0.4-0.1-0.8-0.4-1.1s-0.7-0.5-1.1-0.5
	c-0.4,0-0.8,0.1-1.2,0.5c-0.3,0.3-0.4,0.7-0.4,1.1c0,0.4,0.1,0.8,0.4,1.1C230.4,91.4,230.8,91.6,231.2,91.6z"/>
<path class="st2" d="M232.9,101.9c-0.1-0.2-0.2-0.6-0.2-1.3V93h-3.9v0.4c0.5,0,0.8,0.1,0.9,0.3c0.1,0.2,0.2,0.6,0.2,1.3v5.5
	c0,0.7-0.1,1.1-0.2,1.3c-0.2,0.3-0.5,0.4-0.9,0.4v0.4h5v-0.4C233.4,102.2,233.1,102.1,232.9,101.9z"/>
<path class="st2" d="M240.6,92.8l0.1,3.3h-0.3c-0.4-1-0.8-1.6-1.3-2s-0.9-0.5-1.3-0.5c-0.3,0-0.5,0.1-0.7,0.3s-0.3,0.4-0.3,0.7
	c0,0.2,0.1,0.4,0.2,0.5c0.2,0.3,0.8,0.8,1.8,1.4c1,0.7,1.6,1.3,1.9,1.7c0.3,0.5,0.5,1,0.5,1.6c0,0.5-0.1,1.1-0.4,1.6
	c-0.3,0.5-0.6,0.9-1.1,1.2c-0.5,0.3-1,0.4-1.6,0.4c-0.4,0-1-0.1-1.8-0.4c-0.2-0.1-0.3-0.1-0.4-0.1c-0.2,0-0.4,0.2-0.5,0.5h-0.3
	l-0.2-3.4h0.3c0.3,0.9,0.7,1.6,1.2,2s1,0.7,1.5,0.7c0.3,0,0.6-0.1,0.8-0.3c0.2-0.2,0.3-0.4,0.3-0.7c0-0.3-0.1-0.6-0.3-0.9
	c-0.2-0.2-0.6-0.6-1.3-1.1c-1-0.7-1.7-1.3-2-1.7c-0.4-0.6-0.7-1.2-0.7-1.9c0-0.7,0.2-1.4,0.7-2s1.2-0.9,2.1-0.9c0.5,0,1,0.1,1.5,0.4
	c0.2,0.1,0.3,0.2,0.4,0.2c0.1,0,0.2,0,0.3-0.1s0.2-0.2,0.3-0.4L240.6,92.8L240.6,92.8z"/>
<path class="st2" d="M256.8,88.7v11c0,0.7,0,1.2,0.1,1.3c0.1,0.2,0.2,0.4,0.3,0.5s0.4,0.2,0.8,0.2v0.3l-3.9,0.8v-1.5
	c-0.5,0.6-0.9,1-1.3,1.2c-0.4,0.2-0.8,0.3-1.2,0.3c-1.2,0-2.1-0.5-2.8-1.6c-0.6-0.9-0.8-2-0.8-3.3c0-1,0.2-2,0.5-2.8
	s0.8-1.4,1.4-1.9s1.2-0.6,1.9-0.6c0.4,0,0.8,0.1,1.2,0.3c0.3,0.2,0.7,0.5,1.1,0.9V91c0-0.7,0-1.2-0.1-1.3c-0.1-0.2-0.2-0.3-0.4-0.4
	s-0.5-0.1-0.9-0.1v-0.4L256.8,88.7L256.8,88.7z M254,95.2c-0.5-1-1.1-1.5-1.8-1.5c-0.2,0-0.4,0.1-0.6,0.2c-0.2,0.2-0.4,0.6-0.6,1.1
	s-0.2,1.4-0.2,2.5c0,1.2,0.1,2.1,0.3,2.7s0.4,1,0.7,1.3c0.2,0.1,0.4,0.2,0.6,0.2c0.6,0,1.1-0.5,1.7-1.4L254,95.2L254,95.2z"/>
<path class="st2" d="M268.1,93v7.5c0,0.7,0.1,1.2,0.2,1.4s0.4,0.3,0.8,0.3v0.4h-3.8v-1.3c-0.4,0.5-0.9,0.9-1.3,1.2
	c-0.4,0.2-0.9,0.4-1.5,0.4c-0.5,0-1-0.2-1.4-0.5s-0.7-0.7-0.8-1.2c-0.1-0.4-0.2-1.2-0.2-2.3v-3.8c0-0.7-0.1-1.2-0.2-1.4
	c-0.1-0.2-0.4-0.3-0.8-0.3V93h3.8v6.6c0,0.7,0,1.1,0.1,1.3s0.2,0.3,0.3,0.5s0.3,0.2,0.5,0.2s0.5-0.1,0.6-0.2c0.3-0.2,0.6-0.5,1-1.1
	v-5.1c0-0.7-0.1-1.2-0.2-1.4c-0.1-0.2-0.4-0.3-0.8-0.3V93H268.1L268.1,93z"/>
<path class="st2" d="M279.7,102.9l-3.1-7.4c-0.4-0.9-0.7-1.5-0.9-1.7c-0.2-0.2-0.4-0.3-0.7-0.4V93h4.9v0.4c-0.3,0-0.5,0.1-0.6,0.2
	c-0.2,0.1-0.2,0.3-0.2,0.5c0,0.3,0.1,0.7,0.4,1.4l1.5,3.6l1.2-3.1c0.4-0.9,0.5-1.5,0.5-1.9c0-0.2-0.1-0.4-0.2-0.5s-0.4-0.2-0.8-0.2
	V93h3v0.4c-0.3,0-0.5,0.2-0.7,0.3c-0.2,0.2-0.5,0.7-0.8,1.6l-3.1,7.5L279.7,102.9L279.7,102.9z"/>
<path class="st2" d="M290.8,101.2c-1.1,1-2.2,1.5-3.1,1.5c-0.5,0-1-0.2-1.3-0.5s-0.5-0.8-0.5-1.3c0-0.7,0.3-1.4,0.9-2s1.9-1.4,4-2.3
	v-1c0-0.7,0-1.2-0.1-1.4c-0.1-0.2-0.2-0.4-0.4-0.5c-0.2-0.1-0.5-0.2-0.7-0.2c-0.4,0-0.8,0.1-1.1,0.3c-0.2,0.1-0.3,0.3-0.3,0.4
	s0.1,0.3,0.3,0.5c0.3,0.3,0.4,0.6,0.4,0.9s-0.1,0.6-0.4,0.9c-0.2,0.2-0.6,0.4-1,0.4s-0.8-0.1-1-0.4s-0.4-0.6-0.4-0.9
	c0-0.5,0.2-1,0.6-1.4s0.9-0.8,1.6-1s1.4-0.4,2.1-0.4c0.9,0,1.6,0.2,2.1,0.6s0.8,0.8,1,1.3c0.1,0.3,0.1,0.9,0.1,2v3.7
	c0,0.4,0,0.7,0,0.8c0,0.1,0.1,0.2,0.1,0.3s0.1,0.1,0.2,0.1c0.2,0,0.3-0.1,0.5-0.4l0.3,0.2c-0.3,0.5-0.7,0.9-1,1.1
	c-0.4,0.2-0.8,0.3-1.2,0.3c-0.5,0-0.9-0.1-1.2-0.4C291.1,102.1,290.9,101.7,290.8,101.2z M290.8,100.5v-3.2c-0.8,0.5-1.4,1-1.8,1.6
	c-0.3,0.4-0.4,0.7-0.4,1.1c0,0.3,0.1,0.6,0.3,0.8c0.2,0.2,0.4,0.3,0.7,0.3C290,101,290.4,100.8,290.8,100.5z"/>
<path class="st2" d="M301.8,92.8l0.1,3.3h-0.3c-0.4-1-0.8-1.6-1.3-2s-0.9-0.5-1.3-0.5c-0.3,0-0.5,0.1-0.7,0.3s-0.3,0.4-0.3,0.7
	c0,0.2,0.1,0.4,0.2,0.5c0.2,0.3,0.8,0.8,1.8,1.4s1.6,1.3,1.9,1.7c0.3,0.5,0.5,1,0.5,1.6c0,0.5-0.1,1.1-0.4,1.6s-0.6,0.9-1.1,1.2
	c-0.5,0.3-1,0.4-1.6,0.4c-0.4,0-1-0.1-1.8-0.4c-0.2-0.1-0.3-0.1-0.4-0.1c-0.2,0-0.4,0.2-0.5,0.5h-0.3l-0.2-3.4h0.3
	c0.3,0.9,0.7,1.6,1.2,2c0.5,0.5,1,0.7,1.5,0.7c0.3,0,0.6-0.1,0.8-0.3c0.2-0.2,0.3-0.4,0.3-0.7c0-0.3-0.1-0.6-0.3-0.9
	c-0.2-0.2-0.6-0.6-1.3-1.1c-1-0.7-1.7-1.3-2-1.7c-0.4-0.6-0.7-1.2-0.7-1.9c0-0.7,0.2-1.4,0.7-2s1.2-0.9,2.1-0.9c0.5,0,1,0.1,1.5,0.4
	c0.2,0.1,0.3,0.2,0.4,0.2s0.2,0,0.3-0.1c0.1-0.1,0.2-0.2,0.3-0.4L301.8,92.8L301.8,92.8z"/>
<path class="st2" d="M311.7,97.5h-5.1c0.1,1.3,0.4,2.3,1,3c0.5,0.6,1,0.9,1.7,0.9c0.4,0,0.8-0.1,1.1-0.3c0.3-0.2,0.7-0.6,1-1.2
	l0.3,0.2c-0.5,1.1-1.1,1.8-1.7,2.3c-0.6,0.4-1.3,0.7-2.1,0.7c-1.4,0-2.4-0.5-3.1-1.6c-0.6-0.9-0.9-2-0.9-3.3c0-1.6,0.4-2.9,1.3-3.8
	s1.8-1.4,3-1.4c0.9,0,1.8,0.4,2.5,1.2C311.3,94.7,311.7,95.9,311.7,97.5z M309.3,96.8c0-1.1-0.1-1.9-0.2-2.3s-0.3-0.7-0.5-0.9
	c-0.1-0.1-0.3-0.2-0.6-0.2c-0.3,0-0.6,0.2-0.8,0.5c-0.4,0.6-0.6,1.4-0.6,2.5v0.4H309.3L309.3,96.8z"/>
<path class="st2" d="M327,88.7v11c0,0.7,0,1.2,0.1,1.3c0.1,0.2,0.2,0.4,0.3,0.5s0.4,0.2,0.8,0.2v0.3l-3.9,0.8v-1.5
	c-0.5,0.6-0.9,1-1.3,1.2s-0.8,0.3-1.2,0.3c-1.2,0-2.1-0.5-2.8-1.6c-0.6-0.9-0.8-2-0.8-3.3c0-1,0.2-2,0.5-2.8s0.8-1.4,1.4-1.9
	s1.2-0.6,1.9-0.6c0.4,0,0.8,0.1,1.2,0.3c0.3,0.2,0.7,0.5,1.1,0.9V91c0-0.7,0-1.2-0.1-1.3c-0.1-0.2-0.2-0.3-0.4-0.4s-0.5-0.1-0.9-0.1
	v-0.4L327,88.7L327,88.7z M324.2,95.2c-0.5-1-1.1-1.5-1.8-1.5c-0.2,0-0.4,0.1-0.6,0.2c-0.2,0.2-0.4,0.6-0.6,1.1s-0.2,1.4-0.2,2.5
	c0,1.2,0.1,2.1,0.3,2.7c0.2,0.6,0.4,1,0.7,1.3c0.2,0.1,0.4,0.2,0.6,0.2c0.6,0,1.1-0.5,1.7-1.4v-5.1H324.2z"/>
<path class="st2" d="M330.5,95.2v-0.5c0.8-0.3,1.3-0.8,1.7-1.3c0.3-0.5,0.5-1.1,0.5-1.7c0-0.1,0-0.2-0.1-0.3c0-0.1-0.1-0.1-0.1-0.1
	s-0.1,0-0.2,0.1c-0.2,0.1-0.4,0.2-0.7,0.2c-0.4,0-0.7-0.2-1-0.5s-0.4-0.7-0.4-1.1c0-0.5,0.2-0.8,0.5-1.2s0.7-0.5,1.2-0.5
	c0.6,0,1.1,0.2,1.5,0.7s0.6,1.1,0.6,1.9c0,1-0.3,1.8-0.9,2.6C332.5,94.3,331.6,94.9,330.5,95.2z"/>
<path class="st2" d="M344,97.5h-5.1c0.1,1.3,0.4,2.3,1,3c0.5,0.6,1,0.9,1.7,0.9c0.4,0,0.8-0.1,1.1-0.3c0.3-0.2,0.7-0.6,1-1.2
	l0.3,0.2c-0.5,1.1-1.1,1.8-1.7,2.3c-0.6,0.4-1.3,0.7-2.1,0.7c-1.4,0-2.4-0.5-3.1-1.6c-0.6-0.9-0.9-2-0.9-3.3c0-1.6,0.4-2.9,1.3-3.8
	s1.8-1.4,3-1.4c0.9,0,1.8,0.4,2.5,1.2C343.6,94.7,343.9,95.9,344,97.5z M341.5,96.8c0-1.1-0.1-1.9-0.2-2.3s-0.3-0.7-0.5-0.9
	c-0.1-0.1-0.3-0.2-0.6-0.2c-0.3,0-0.6,0.2-0.8,0.5c-0.4,0.6-0.6,1.4-0.6,2.5v0.4H341.5L341.5,96.8z"/>
<path class="st2" d="M350.7,96.7l1.6,3.2c0.6,1.1,1,1.8,1.3,2.1c0.2,0.2,0.4,0.2,0.7,0.3v0.4h-5.2v-0.4c0.4,0,0.7-0.1,0.8-0.2
	c0.1-0.1,0.1-0.2,0.1-0.3c0-0.2-0.1-0.5-0.3-0.9l-0.8-1.6l-0.7,1c-0.3,0.5-0.5,0.8-0.5,0.8c-0.1,0.1-0.1,0.2-0.1,0.3
	c0,0.2,0,0.3,0.1,0.4s0.1,0.2,0.3,0.2c0.1,0.1,0.3,0.1,0.6,0.1v0.4H345v-0.4c0.5,0,0.9-0.1,1.2-0.4s0.9-0.9,1.6-2l0.8-1.2l-1.6-3.1
	c-0.5-1-0.9-1.6-1.2-1.8s-0.5-0.4-0.9-0.4V93h5.2v0.4h-0.3l-0.5,0.2c-0.1,0-0.1,0.1-0.1,0.2s0,0.2,0,0.3c0,0,0.1,0.2,0.3,0.6
	l0.7,1.4l0.4-0.6c0.5-0.8,0.8-1.3,0.8-1.6c0-0.1-0.1-0.3-0.2-0.4s-0.3-0.2-0.6-0.2V93h3.3v0.4c-0.4,0-0.8,0.1-1.1,0.4
	s-0.7,0.7-1.2,1.4L350.7,96.7z"/>
<path class="st2" d="M359,101.6v3.6c0,0.5,0,0.8,0.1,1s0.2,0.3,0.4,0.4s0.5,0.1,0.9,0.1v0.4h-5.3v-0.4c0.4,0,0.7-0.1,0.9-0.4
	c0.1-0.2,0.2-0.6,0.2-1.2V95c0-0.7-0.1-1.1-0.2-1.3c-0.2-0.2-0.4-0.3-0.9-0.3V93h3.9v1.3c0.3-0.5,0.7-0.8,1-1.1
	c0.5-0.3,1-0.5,1.6-0.5c0.7,0,1.3,0.2,1.9,0.7s1,1.1,1.3,1.8c0.3,0.8,0.4,1.6,0.4,2.5c0,1-0.1,1.9-0.5,2.7c-0.3,0.8-0.7,1.4-1.3,1.8
	s-1.2,0.6-1.9,0.6c-0.5,0-1-0.1-1.4-0.3C359.7,102.4,359.3,102.1,359,101.6z M359,100.6c0.6,0.8,1.2,1.3,1.8,1.3
	c0.4,0,0.7-0.2,0.9-0.6c0.3-0.6,0.5-1.7,0.5-3.3c0-1.7-0.2-2.8-0.6-3.4c-0.3-0.4-0.6-0.6-1-0.6c-0.7,0-1.2,0.5-1.7,1.5L359,100.6
	L359,100.6z"/>
<path class="st2" d="M371.8,101.2c-1.1,1-2.2,1.5-3.1,1.5c-0.5,0-1-0.2-1.3-0.5s-0.5-0.8-0.5-1.3c0-0.7,0.3-1.4,0.9-2s1.9-1.4,4-2.3
	v-1c0-0.7,0-1.2-0.1-1.4c-0.1-0.2-0.2-0.4-0.4-0.5c-0.2-0.1-0.5-0.2-0.7-0.2c-0.4,0-0.8,0.1-1.1,0.3c-0.2,0.1-0.3,0.3-0.3,0.4
	s0.1,0.3,0.3,0.5c0.3,0.3,0.4,0.6,0.4,0.9s-0.1,0.6-0.4,0.9c-0.2,0.2-0.6,0.4-1,0.4s-0.8-0.1-1-0.4s-0.4-0.6-0.4-0.9
	c0-0.5,0.2-1,0.6-1.4s0.9-0.8,1.6-1s1.4-0.4,2.1-0.4c0.9,0,1.6,0.2,2.1,0.6s0.8,0.8,1,1.3c0.1,0.3,0.1,0.9,0.1,2v3.7
	c0,0.4,0,0.7,0,0.8c0,0.1,0.1,0.2,0.1,0.3s0.1,0.1,0.2,0.1c0.2,0,0.3-0.1,0.5-0.4l0.3,0.2c-0.3,0.5-0.7,0.9-1,1.1
	c-0.4,0.2-0.8,0.3-1.2,0.3c-0.5,0-0.9-0.1-1.2-0.4C372.1,102.1,371.9,101.7,371.8,101.2z M371.8,100.5v-3.2c-0.8,0.5-1.4,1-1.8,1.6
	c-0.3,0.4-0.4,0.7-0.4,1.1c0,0.3,0.1,0.6,0.3,0.8c0.2,0.2,0.4,0.3,0.7,0.3C371,101,371.4,100.8,371.8,100.5z"/>
<path class="st2" d="M380.7,93v1.2c0.5-0.5,0.9-0.9,1.4-1.2c0.4-0.2,0.9-0.4,1.4-0.4c0.6,0,1.1,0.2,1.5,0.5s0.7,0.8,0.8,1.3
	c0.1,0.4,0.2,1.1,0.2,2.2v3.7c0,0.7,0.1,1.2,0.2,1.4c0.1,0.2,0.4,0.3,0.8,0.3v0.4h-4.7V102c0.4,0,0.6-0.2,0.8-0.5
	c0.1-0.2,0.2-0.6,0.2-1.3v-4.3c0-0.8,0-1.3-0.1-1.5s-0.2-0.4-0.3-0.5c-0.1-0.1-0.3-0.2-0.5-0.2c-0.6,0-1.1,0.4-1.6,1.3v5.1
	c0,0.7,0.1,1.2,0.2,1.4c0.1,0.2,0.4,0.3,0.7,0.4v0.4H377v-0.4c0.4,0,0.7-0.2,0.8-0.4c0.1-0.1,0.2-0.6,0.2-1.3v-5.4
	c0-0.7-0.1-1.2-0.2-1.4c-0.1-0.2-0.4-0.3-0.8-0.3V93H380.7z"/>
<path class="st2" d="M394.1,92.8l0.1,3.3h-0.3c-0.4-1-0.8-1.6-1.3-2s-0.9-0.5-1.3-0.5c-0.3,0-0.5,0.1-0.7,0.3s-0.3,0.4-0.3,0.7
	c0,0.2,0.1,0.4,0.2,0.5c0.2,0.3,0.8,0.8,1.8,1.4s1.6,1.3,1.9,1.7c0.3,0.5,0.5,1,0.5,1.6c0,0.5-0.1,1.1-0.4,1.6s-0.6,0.9-1.1,1.2
	c-0.5,0.3-1,0.4-1.6,0.4c-0.4,0-1-0.1-1.8-0.4c-0.2-0.1-0.3-0.1-0.4-0.1c-0.2,0-0.4,0.2-0.5,0.5h-0.3l-0.2-3.4h0.3
	c0.3,0.9,0.7,1.6,1.2,2c0.5,0.5,1,0.7,1.5,0.7c0.3,0,0.6-0.1,0.8-0.3c0.2-0.2,0.3-0.4,0.3-0.7c0-0.3-0.1-0.6-0.3-0.9
	c-0.2-0.2-0.6-0.6-1.3-1.1c-1-0.7-1.7-1.3-2-1.7c-0.4-0.6-0.7-1.2-0.7-1.9c0-0.7,0.2-1.4,0.7-2s1.2-0.9,2.1-0.9c0.5,0,1,0.1,1.5,0.4
	c0.2,0.1,0.3,0.2,0.4,0.2s0.2,0,0.3-0.1c0.1-0.1,0.2-0.2,0.3-0.4L394.1,92.8L394.1,92.8z"/>
<path class="st0" d="M103,93.6c-0.1-0.1-0.3-0.2-0.6-0.2c-0.3,0-0.6,0.2-0.8,0.5c-0.4,0.6-0.6,1.4-0.6,2.5v0.4h2.7
	c0-1.1-0.1-1.9-0.2-2.3C103.4,94.1,103.2,93.8,103,93.6z"/>
<path class="st2" d="M105.1,94.2c-0.7-0.8-1.6-1.2-2.5-1.2c-1.2,0-2.2,0.5-3,1.4c-0.9,0.9-1.3,2.2-1.3,3.8c0,1.3,0.3,2.4,0.9,3.3
	c0.7,1.1,1.7,1.6,3.1,1.6c0.8,0,1.5-0.3,2.1-0.7c0.6-0.5,1.2-1.2,1.7-2.3l-0.3-0.2c-0.3,0.6-0.7,1-1,1.2s-0.7,0.3-1.1,0.3
	c-0.7,0-1.2-0.3-1.7-0.9c-0.6-0.7-0.9-1.7-1-3h5.1C106.1,95.9,105.7,94.7,105.1,94.2z M101,96.8v-0.4c0-1.1,0.2-1.9,0.6-2.5
	c0.2-0.3,0.5-0.5,0.8-0.5c0.3,0,0.5,0.1,0.6,0.2c0.2,0.2,0.4,0.5,0.5,0.9c0.1,0.4,0.2,1.2,0.2,2.3H101z"/>
<polygon class="st2" points="105.2,88.2 102.2,88.2 101,91.8 101.9,91.8 "/>
<path class="st2" d="M120,100.6V93h-3.9v0.4c0.5,0,0.8,0.1,0.9,0.3c0.1,0.2,0.2,0.6,0.2,1.3v5.5c0,0.7-0.1,1.1-0.2,1.3
	c-0.2,0.3-0.5,0.4-0.9,0.4v0.4h5v-0.4c-0.4,0-0.7-0.1-0.9-0.3C120.1,101.7,120,101.3,120,100.6z"/>
<path class="st2" d="M118.5,91.6c0.4,0,0.8-0.2,1.1-0.5c0.3-0.3,0.5-0.7,0.5-1.1c0-0.4-0.1-0.8-0.4-1.1s-0.7-0.5-1.1-0.5
	c-0.4,0-0.8,0.1-1.2,0.5c-0.3,0.3-0.4,0.7-0.4,1.1c0,0.4,0.1,0.8,0.4,1.1S118.1,91.6,118.5,91.6z"/>
<path class="st2" d="M140,91.6c0.4,0,0.8-0.2,1.1-0.5c0.3-0.3,0.5-0.7,0.5-1.1c0-0.4-0.1-0.8-0.4-1.1s-0.7-0.5-1.1-0.5
	c-0.4,0-0.8,0.1-1.2,0.5c-0.3,0.3-0.4,0.7-0.4,1.1c0,0.4,0.1,0.8,0.4,1.1C139.2,91.4,139.6,91.6,140,91.6z"/>
<path class="st2" d="M141.5,100.6V93h-3.9v0.4c0.5,0,0.8,0.1,0.9,0.3c0.1,0.2,0.2,0.6,0.2,1.3v5.5c0,0.7-0.1,1.1-0.2,1.3
	c-0.2,0.3-0.5,0.4-0.9,0.4v0.4h5v-0.4c-0.4,0-0.7-0.1-0.9-0.3C141.6,101.7,141.5,101.3,141.5,100.6z"/>
<path class="st2" d="M400,101.9c-0.1-0.2-0.2-0.6-0.2-1.3V93h-3.9v0.4c0.5,0,0.7,0.1,0.9,0.3c0.1,0.2,0.2,0.6,0.2,1.3v5.5
	c0,0.7-0.1,1.1-0.2,1.3c-0.2,0.3-0.5,0.4-0.9,0.4v0.4h5v-0.4C400.5,102.2,400.1,102.1,400,101.9z"/>
<path class="st2" d="M398.3,91.6c0.4,0,0.8-0.2,1.1-0.5c0.4-0.3,0.5-0.7,0.5-1.1c0-0.4-0.1-0.8-0.4-1.1s-0.7-0.5-1.1-0.5
	c-0.4,0-0.8,0.1-1.2,0.5c-0.3,0.3-0.4,0.7-0.4,1.1c0,0.4,0.1,0.8,0.4,1.1C397.5,91.4,397.9,91.6,398.3,91.6z"/>
<path class="st2" d="M406.2,92.7c0.8,0,1.6,0.2,2.3,0.6c0.7,0.4,1.2,1,1.6,1.8s0.5,1.7,0.5,2.6c0,1.4-0.3,2.5-1,3.4
	c-0.8,1.1-1.9,1.7-3.4,1.7c-1.4,0-2.5-0.5-3.2-1.5c-0.8-1-1.1-2.2-1.1-3.5c0-1.4,0.4-2.6,1.2-3.6S404.9,92.7,406.2,92.7z
	 M406.3,93.5c-0.3,0-0.6,0.1-0.9,0.4c-0.2,0.3-0.4,0.8-0.5,1.6c-0.1,0.8-0.1,1.9-0.1,3.2c0,0.7,0,1.4,0.1,2.1
	c0.1,0.5,0.2,0.9,0.5,1.1c0.2,0.3,0.5,0.4,0.8,0.4s0.5-0.1,0.7-0.3c0.3-0.2,0.4-0.6,0.5-1c0.1-0.6,0.2-2,0.2-3.9
	c0-1.2-0.1-2-0.2-2.4s-0.3-0.8-0.6-0.9C406.8,93.5,406.5,93.5,406.3,93.5z"/>
<path class="st2" d="M415.8,93v1.2c0.5-0.5,0.9-0.9,1.4-1.2c0.4-0.2,0.9-0.4,1.4-0.4c0.6,0,1.1,0.2,1.5,0.5s0.7,0.8,0.8,1.3
	c0.1,0.4,0.2,1.1,0.2,2.2v3.7c0,0.7,0.1,1.2,0.2,1.4c0.1,0.2,0.4,0.3,0.8,0.3v0.4h-4.7V102c0.4,0,0.6-0.2,0.8-0.5
	c0.1-0.2,0.2-0.6,0.2-1.3v-4.3c0-0.8,0-1.3-0.1-1.5s-0.2-0.4-0.3-0.5c-0.1-0.1-0.3-0.2-0.5-0.2c-0.6,0-1.1,0.4-1.6,1.3v5.1
	c0,0.7,0.1,1.2,0.2,1.4c0.1,0.2,0.4,0.3,0.7,0.4v0.4H412v-0.4c0.4,0,0.7-0.2,0.8-0.4c0.1-0.1,0.2-0.6,0.2-1.3v-5.4
	c0-0.7-0.1-1.2-0.2-1.4c-0.1-0.2-0.4-0.3-0.8-0.3V93H415.8z"/>
</svg>
