<?xml version="1.0" encoding="utf-8"?>
<!-- Generator: Adobe Illustrator 19.1.0, SVG Export Plug-In . SVG Version: 6.00 Build 0)  -->
<svg version="1.1" id="Calque_2" xmlns="http://www.w3.org/2000/svg" xmlns:xlink="http://www.w3.org/1999/xlink" x="0px" y="0px"
	 viewBox="0 0 500 500" style="enable-background:new 0 0 500 500;" xml:space="preserve">
<style type="text/css">
	.st0{fill:#EB690B;}
	.st1{fill:#00529F;}
</style>
<g>
	<path class="st0" d="M460.4,212.8v-2.2h1.5c0.8,0,1.6,0.2,1.6,1c0,1.1-0.8,1.2-1.7,1.2L460.4,212.8L460.4,212.8z M460.4,213.8h1.2
		l1.9,3.1h1.2l-2-3.1c1-0.1,1.8-0.7,1.8-2c0-1.4-0.8-2-2.5-2h-2.7v7.1h1.1L460.4,213.8L460.4,213.8z M456.7,213.3
		c0-2.9,2.2-5.1,5-5.1c2.8,0,5,2.2,5,5.1c0,3-2.2,5.2-5,5.2C458.9,218.4,456.7,216.2,456.7,213.3z M461.8,219.5
		c3.4,0,6.2-2.6,6.2-6.2c0-3.5-2.9-6.2-6.2-6.2c-3.4,0-6.3,2.6-6.3,6.2C455.5,216.8,458.4,219.5,461.8,219.5z"/>
	<polygon class="st0" points="121.9,212.2 155,212.2 143.3,263.1 111,263.1 	"/>
	<polygon class="st0" points="159.8,212 234.4,212 231.6,226.1 210.8,226.1 205.2,263.6 171.1,263.6 177.3,226.1 157.2,226.1 	"/>
	<polygon class="st0" points="416.1,213.3 450.1,213.3 443.4,249.7 474.4,249.7 472.3,263.8 405.6,263.8 	"/>
	<path class="st0" d="M316.5,230.8c0-13.9-13.9-18.1-13.9-18.1h-63.2L229.2,264h34.4l2.6-12.1l10.3,11.6l33.6,0l-9.7-15.5
		C300.4,248,316.5,245.9,316.5,230.8z M280.4,236.9h-11.7l2.9-10.7h7.4c0,0,4.6,0.8,4.6,5.2C283.6,235.9,280.4,236.9,280.4,236.9z"
		/>
	<path class="st0" d="M390.7,212.9h-45.9L312.9,264h31.4l3.9-6.5h19.3l1.1,6.4h32.6L390.7,212.9z M355.7,242.8l5.7-11.4h0.7
		l2.9,11.4H355.7z"/>
	<path class="st0" d="M77.2,235.9h30.5l-3.7,20.9c0,0-10.9,9.4-40.1,9.4c-41.9,0-39.6-23-39.6-23s-1-23.8,28.2-31.2
		c25.6-6.4,51.3,3.8,51.3,3.8l-3.2,15.2c0,0-4.9-5.5-23.6-5.7s-19,15.3-18.3,17.5c0.8,2.1,2.3,9.2,14.7,5.7L77.2,235.9z"/>
	<g>
		<path class="st1" d="M84.5,274.4l0.1,4.6h-0.4c-0.2-1.2-0.7-2.1-1.4-2.8c-0.8-0.7-1.6-1.1-2.4-1.1c-0.7,0-1.2,0.2-1.6,0.6
			c-0.4,0.4-0.6,0.8-0.6,1.3c0,0.3,0.1,0.6,0.2,0.8c0.2,0.3,0.5,0.6,0.9,1c0.3,0.2,1,0.6,2.2,1.2c1.6,0.8,2.6,1.6,3.2,2.3
			c0.5,0.7,0.8,1.5,0.8,2.4c0,1.2-0.4,2.2-1.3,3c-0.9,0.8-2,1.3-3.3,1.3c-0.4,0-0.8,0-1.2-0.1c-0.4-0.1-0.9-0.3-1.4-0.5
			c-0.3-0.1-0.6-0.2-0.8-0.2c-0.2,0-0.4,0.1-0.5,0.2s-0.3,0.3-0.5,0.6H76v-5.3h0.4c0.3,1.5,0.9,2.6,1.7,3.4c0.8,0.8,1.7,1.2,2.7,1.2
			c0.7,0,1.3-0.2,1.8-0.6s0.7-0.9,0.7-1.5c0-0.3-0.1-0.6-0.3-1c-0.2-0.3-0.4-0.6-0.8-0.9c-0.3-0.3-1-0.6-1.8-1.1
			c-1.2-0.6-2.1-1.2-2.6-1.6s-1-0.9-1.2-1.5c-0.3-0.5-0.4-1.1-0.4-1.8c0-1.1,0.4-2.1,1.2-2.8c0.8-0.8,1.8-1.2,3-1.2
			c0.4,0,0.9,0.1,1.3,0.2c0.3,0.1,0.7,0.2,1.1,0.5c0.4,0.2,0.8,0.3,0.9,0.3c0.2,0,0.3-0.1,0.4-0.2s0.2-0.4,0.3-0.8L84.5,274.4
			L84.5,274.4z"/>
		<path class="st1" d="M90.5,287.6v3.6c0,0.5,0,0.8,0.1,1s0.2,0.3,0.4,0.4s0.5,0.1,0.9,0.1v0.4h-5.3v-0.4c0.4,0,0.7-0.1,0.9-0.4
			c0.1-0.2,0.2-0.6,0.2-1.2V281c0-0.7-0.1-1.1-0.2-1.3c-0.2-0.2-0.4-0.3-0.9-0.3V279h3.9v1.3c0.3-0.5,0.7-0.8,1-1.1
			c0.5-0.3,1-0.5,1.6-0.5c0.7,0,1.3,0.2,1.9,0.7s1,1.1,1.3,1.8c0.3,0.8,0.4,1.6,0.4,2.5c0,1-0.2,1.9-0.5,2.7s-0.7,1.4-1.3,1.8
			c-0.6,0.4-1.2,0.6-1.9,0.6c-0.5,0-1-0.1-1.4-0.3C91.2,288.4,90.9,288.1,90.5,287.6z M90.5,286.6c0.6,0.8,1.2,1.3,1.8,1.3
			c0.4,0,0.7-0.2,0.9-0.6c0.3-0.6,0.5-1.7,0.5-3.3c0-1.7-0.2-2.8-0.6-3.4c-0.3-0.4-0.6-0.6-1-0.6c-0.7,0-1.2,0.5-1.7,1.5L90.5,286.6
			L90.5,286.6z"/>
		<path class="st1" d="M106.1,283.5H101c0.1,1.3,0.4,2.3,1,3c0.5,0.6,1,0.9,1.7,0.9c0.4,0,0.8-0.1,1.1-0.3c0.3-0.2,0.7-0.6,1-1.2
			l0.3,0.2c-0.5,1.1-1.1,1.8-1.7,2.3c-0.6,0.4-1.3,0.7-2.1,0.7c-1.4,0-2.4-0.5-3.1-1.6c-0.6-0.9-0.9-2-0.9-3.3
			c0-1.6,0.4-2.9,1.3-3.8c0.8-0.9,1.8-1.4,3-1.4c0.9,0,1.8,0.4,2.5,1.2C105.7,280.7,106.1,281.9,106.1,283.5z M103.7,282.8
			c0-1.1-0.1-1.9-0.2-2.3c-0.1-0.4-0.3-0.7-0.5-0.9c-0.1-0.1-0.3-0.2-0.6-0.2c-0.3,0-0.6,0.2-0.8,0.5c-0.4,0.6-0.6,1.4-0.6,2.5v0.4
			L103.7,282.8L103.7,282.8z M105.2,274.2l-3.3,3.6H101l1.2-3.6H105.2z"/>
		<path class="st1" d="M114.9,286.1l0.3,0.2c-0.4,0.8-1,1.5-1.6,1.9c-0.7,0.4-1.3,0.6-2.1,0.6c-1.2,0-2.2-0.5-3-1.4
			c-0.7-1-1.1-2.1-1.1-3.5c0-1.3,0.3-2.5,1-3.4c0.8-1.2,1.9-1.8,3.4-1.8c1,0,1.7,0.2,2.3,0.7s0.9,1.1,0.9,1.7c0,0.4-0.1,0.7-0.3,0.9
			c-0.2,0.2-0.5,0.3-0.9,0.3c-0.4,0-0.7-0.1-1-0.4c-0.3-0.3-0.4-0.7-0.5-1.4c0-0.4-0.1-0.7-0.3-0.9c-0.2-0.2-0.3-0.3-0.5-0.3
			c-0.3,0-0.6,0.2-0.8,0.5c-0.3,0.5-0.5,1.3-0.5,2.4c0,0.9,0.1,1.8,0.4,2.6s0.7,1.4,1.1,1.8c0.4,0.3,0.8,0.4,1.3,0.4
			c0.3,0,0.6-0.1,0.9-0.2S114.5,286.6,114.9,286.1z"/>
		<path class="st1" d="M120,279v7.6c0,0.7,0.1,1.1,0.2,1.3c0.2,0.2,0.5,0.3,0.9,0.3v0.4h-5v-0.4c0.4,0,0.7-0.1,0.9-0.4
			c0.1-0.2,0.2-0.6,0.2-1.3V281c0-0.7-0.1-1.1-0.2-1.3s-0.4-0.3-0.9-0.3V279L120,279L120,279z M118.6,274.4c0.4,0,0.8,0.2,1.1,0.5
			c0.3,0.3,0.4,0.7,0.4,1.1s-0.2,0.8-0.5,1.1c-0.3,0.3-0.7,0.5-1.1,0.5s-0.8-0.2-1.1-0.5s-0.4-0.7-0.4-1.1s0.1-0.8,0.4-1.1
			C117.8,274.5,118.2,274.4,118.6,274.4z"/>
		<path class="st1" d="M127.2,287.2c-1.1,1-2.2,1.5-3.1,1.5c-0.5,0-1-0.2-1.3-0.5s-0.5-0.8-0.5-1.3c0-0.7,0.3-1.4,0.9-2
			c0.6-0.6,1.9-1.4,4-2.3v-1c0-0.7,0-1.2-0.1-1.4s-0.2-0.4-0.4-0.5c-0.2-0.1-0.5-0.2-0.7-0.2c-0.4,0-0.8,0.1-1.1,0.3
			c-0.2,0.1-0.3,0.3-0.3,0.4c0,0.1,0.1,0.3,0.3,0.5c0.3,0.3,0.4,0.6,0.4,0.9c0,0.3-0.1,0.6-0.4,0.9c-0.2,0.2-0.6,0.4-1,0.4
			c-0.4,0-0.8-0.1-1.1-0.4c-0.3-0.3-0.4-0.6-0.4-0.9c0-0.5,0.2-1,0.6-1.4c0.4-0.4,0.9-0.8,1.6-1s1.4-0.4,2.1-0.4
			c0.9,0,1.6,0.2,2.1,0.6c0.5,0.4,0.8,0.8,1,1.3c0.1,0.3,0.1,0.9,0.1,2v3.7c0,0.4,0,0.7,0.1,0.8c0,0.1,0.1,0.2,0.1,0.3
			s0.1,0.1,0.2,0.1c0.2,0,0.3-0.1,0.5-0.4l0.3,0.2c-0.3,0.5-0.7,0.9-1,1.1c-0.4,0.2-0.8,0.3-1.2,0.3c-0.5,0-0.9-0.1-1.2-0.4
			C127.4,288.1,127.2,287.7,127.2,287.2z M127.2,286.5v-3.2c-0.8,0.5-1.4,1-1.8,1.6c-0.3,0.4-0.4,0.7-0.4,1.1c0,0.3,0.1,0.6,0.3,0.8
			c0.2,0.2,0.4,0.3,0.7,0.3C126.3,287,126.7,286.8,127.2,286.5z"/>
		<path class="st1" d="M135.9,274.7v11.9c0,0.7,0.1,1.1,0.2,1.3s0.5,0.3,0.9,0.3v0.4h-5v-0.4c0.4,0,0.7-0.1,0.9-0.4
			c0.1-0.2,0.2-0.6,0.2-1.3v-9.9c0-0.7-0.1-1.1-0.2-1.3c-0.2-0.2-0.4-0.3-0.9-0.3v-0.4L135.9,274.7L135.9,274.7z"/>
		<path class="st1" d="M141.5,279v7.6c0,0.7,0.1,1.1,0.2,1.3c0.2,0.2,0.5,0.3,0.9,0.3v0.4h-5v-0.4c0.4,0,0.7-0.1,0.9-0.4
			c0.1-0.2,0.2-0.6,0.2-1.3V281c0-0.7-0.1-1.1-0.2-1.3s-0.4-0.3-0.9-0.3V279L141.5,279L141.5,279z M140.1,274.4
			c0.4,0,0.8,0.2,1.1,0.5c0.3,0.3,0.4,0.7,0.4,1.1s-0.2,0.8-0.5,1.1c-0.3,0.3-0.7,0.5-1.1,0.5s-0.8-0.2-1.1-0.5s-0.4-0.7-0.4-1.1
			s0.1-0.8,0.4-1.1C139.3,274.5,139.7,274.4,140.1,274.4z"/>
		<path class="st1" d="M149.4,278.8l0.1,3.3h-0.3c-0.4-1-0.8-1.6-1.3-2s-0.9-0.5-1.3-0.5c-0.3,0-0.5,0.1-0.7,0.3s-0.3,0.4-0.3,0.7
			c0,0.2,0.1,0.4,0.2,0.5c0.2,0.3,0.8,0.8,1.8,1.4c1,0.7,1.6,1.3,1.9,1.7c0.3,0.5,0.5,1,0.5,1.6c0,0.5-0.1,1.1-0.4,1.6
			c-0.3,0.5-0.6,0.9-1.1,1.2c-0.5,0.3-1,0.4-1.6,0.4c-0.4,0-1-0.1-1.8-0.4c-0.2-0.1-0.3-0.1-0.4-0.1c-0.2,0-0.4,0.2-0.5,0.5H144
			l-0.2-3.4h0.3c0.3,0.9,0.7,1.6,1.2,2s1,0.7,1.5,0.7c0.3,0,0.6-0.1,0.8-0.3c0.2-0.2,0.3-0.4,0.3-0.7c0-0.3-0.1-0.6-0.3-0.9
			c-0.2-0.2-0.6-0.6-1.3-1.1c-1-0.7-1.7-1.3-2-1.7c-0.4-0.6-0.7-1.2-0.7-1.9c0-0.7,0.2-1.4,0.7-2c0.5-0.6,1.2-0.9,2.1-0.9
			c0.5,0,1,0.1,1.5,0.4c0.2,0.1,0.3,0.2,0.4,0.2c0.1,0,0.2,0,0.3-0.1c0.1-0.1,0.2-0.2,0.3-0.4L149.4,278.8L149.4,278.8z"/>
		<path class="st1" d="M155.2,275.5v3.5h2.2v1h-2.2v5.9c0,0.6,0,0.9,0.1,1.1c0.1,0.2,0.1,0.3,0.3,0.4c0.1,0.1,0.2,0.1,0.3,0.1
			c0.4,0,0.8-0.3,1.2-1l0.3,0.2c-0.5,1.3-1.4,2-2.6,2c-0.6,0-1.1-0.2-1.5-0.5c-0.4-0.3-0.7-0.7-0.8-1.1c-0.1-0.2-0.1-0.9-0.1-1.9
			V280h-1.2v-0.4c0.8-0.6,1.5-1.2,2.1-1.9c0.6-0.7,1.1-1.4,1.5-2.2H155.2z"/>
		<path class="st1" d="M166.2,283.5h-5.1c0.1,1.3,0.4,2.3,1,3c0.5,0.6,1,0.9,1.7,0.9c0.4,0,0.8-0.1,1.1-0.3c0.3-0.2,0.7-0.6,1-1.2
			l0.3,0.2c-0.5,1.1-1.1,1.8-1.7,2.3c-0.6,0.4-1.3,0.7-2.1,0.7c-1.4,0-2.4-0.5-3.1-1.6c-0.6-0.9-0.9-2-0.9-3.3
			c0-1.6,0.4-2.9,1.3-3.8c0.8-0.9,1.8-1.4,3-1.4c0.9,0,1.8,0.4,2.5,1.2C165.7,280.7,166.1,281.9,166.2,283.5z M163.7,282.8
			c0-1.1-0.1-1.9-0.2-2.3c-0.1-0.4-0.3-0.7-0.5-0.9c-0.1-0.1-0.3-0.2-0.6-0.2c-0.3,0-0.6,0.2-0.8,0.5c-0.4,0.6-0.6,1.4-0.6,2.5v0.4
			L163.7,282.8L163.7,282.8z"/>
		<path class="st1" d="M176.5,280v6.7c0,0.6,0.1,1,0.2,1.2c0.2,0.3,0.6,0.4,1.2,0.3v0.4h-5.5v-0.4c0.4,0,0.7-0.1,0.9-0.1
			c0.2-0.1,0.3-0.2,0.4-0.4c0.1-0.2,0.1-0.5,0.1-1V280h-1.4v-1h1.4v-0.7l0-0.5c0-1,0.4-1.8,1.1-2.5c0.7-0.7,1.6-1,2.8-1
			c0.8,0,1.4,0.2,1.8,0.5c0.4,0.3,0.6,0.7,0.6,1c0,0.3-0.1,0.6-0.4,0.8s-0.6,0.3-1,0.3c-0.3,0-0.6-0.1-0.8-0.3
			c-0.2-0.2-0.3-0.4-0.3-0.6c0-0.1,0-0.2,0.1-0.4c0-0.1,0-0.2,0-0.3c0-0.1,0-0.2-0.1-0.3c-0.1-0.1-0.2-0.2-0.4-0.2
			c-0.2,0-0.4,0.1-0.5,0.2s-0.2,0.4-0.2,0.8l0,1.8v1.2h1.4v1L176.5,280L176.5,280z"/>
		<path class="st1" d="M183.1,279v2.2c0.6-1,1.2-1.6,1.6-2c0.5-0.3,0.9-0.5,1.3-0.5c0.4,0,0.7,0.1,0.9,0.4c0.2,0.2,0.3,0.6,0.3,1
			c0,0.5-0.1,0.8-0.3,1.1s-0.5,0.4-0.8,0.4c-0.4,0-0.7-0.1-0.9-0.3s-0.4-0.4-0.5-0.4c-0.1,0-0.1-0.1-0.2-0.1c-0.2,0-0.4,0.1-0.5,0.2
			c-0.3,0.2-0.5,0.6-0.6,1c-0.2,0.7-0.3,1.4-0.3,2.2v2.2l0,0.6c0,0.4,0,0.6,0.1,0.7c0.1,0.2,0.2,0.3,0.4,0.4
			c0.2,0.1,0.4,0.1,0.8,0.2v0.4h-5v-0.4c0.4,0,0.7-0.1,0.8-0.3s0.2-0.7,0.2-1.5v-5.3c0-0.5,0-0.9-0.1-1c-0.1-0.2-0.2-0.3-0.3-0.4
			s-0.3-0.1-0.7-0.2V279L183.1,279L183.1,279z"/>
		<path class="st1" d="M193.4,287.2c-1.1,1-2.2,1.5-3.1,1.5c-0.5,0-1-0.2-1.3-0.5s-0.5-0.8-0.5-1.3c0-0.7,0.3-1.4,0.9-2
			c0.6-0.6,1.9-1.4,4-2.3v-1c0-0.7,0-1.2-0.1-1.4s-0.2-0.4-0.4-0.5c-0.2-0.1-0.5-0.2-0.7-0.2c-0.4,0-0.8,0.1-1.1,0.3
			c-0.2,0.1-0.3,0.3-0.3,0.4c0,0.1,0.1,0.3,0.3,0.5c0.3,0.3,0.4,0.6,0.4,0.9c0,0.3-0.1,0.6-0.4,0.9c-0.2,0.2-0.6,0.4-1,0.4
			c-0.4,0-0.8-0.1-1.1-0.4c-0.3-0.3-0.4-0.6-0.4-0.9c0-0.5,0.2-1,0.6-1.4c0.4-0.4,0.9-0.8,1.6-1c0.7-0.2,1.4-0.4,2.1-0.4
			c0.9,0,1.6,0.2,2.1,0.6c0.5,0.4,0.8,0.8,1,1.3c0.1,0.3,0.1,0.9,0.1,2v3.7c0,0.4,0,0.7,0.1,0.8c0,0.1,0.1,0.2,0.1,0.3
			s0.1,0.1,0.2,0.1c0.2,0,0.3-0.1,0.5-0.4l0.3,0.2c-0.3,0.5-0.7,0.9-1,1.1c-0.4,0.2-0.8,0.3-1.2,0.3c-0.5,0-0.9-0.1-1.2-0.4
			C193.6,288.1,193.5,287.7,193.4,287.2z M193.4,286.5v-3.2c-0.8,0.5-1.4,1-1.8,1.6c-0.3,0.4-0.4,0.7-0.4,1.1c0,0.3,0.1,0.6,0.3,0.8
			c0.2,0.2,0.4,0.3,0.7,0.3C192.6,287,193,286.8,193.4,286.5z"/>
		<path class="st1" d="M202.3,279v1.2c0.5-0.5,0.9-0.9,1.4-1.2c0.4-0.2,0.9-0.4,1.4-0.4c0.6,0,1.1,0.2,1.5,0.5
			c0.4,0.3,0.7,0.8,0.8,1.3c0.1,0.4,0.2,1.1,0.2,2.2v3.7c0,0.7,0.1,1.2,0.2,1.4s0.4,0.3,0.8,0.3v0.4h-4.7v-0.4
			c0.4,0,0.6-0.2,0.8-0.5c0.1-0.2,0.2-0.6,0.2-1.3v-4.3c0-0.8,0-1.3-0.1-1.5s-0.2-0.4-0.3-0.5c-0.1-0.1-0.3-0.2-0.5-0.2
			c-0.6,0-1.1,0.4-1.6,1.3v5.1c0,0.7,0.1,1.2,0.2,1.4s0.4,0.3,0.7,0.4v0.4h-4.7v-0.4c0.4,0,0.7-0.2,0.8-0.4c0.1-0.1,0.2-0.6,0.2-1.3
			v-5.4c0-0.7-0.1-1.2-0.2-1.4s-0.4-0.3-0.8-0.3V279H202.3z"/>
		<path class="st1" d="M217.4,286.1l0.3,0.2c-0.4,0.8-1,1.5-1.6,1.9c-0.7,0.4-1.3,0.6-2.1,0.6c-1.2,0-2.2-0.5-3-1.4
			c-0.7-1-1.1-2.1-1.1-3.5c0-1.3,0.3-2.5,1-3.4c0.8-1.2,1.9-1.8,3.4-1.8c1,0,1.7,0.2,2.3,0.7s0.9,1.1,0.9,1.7c0,0.4-0.1,0.7-0.3,0.9
			c-0.2,0.2-0.5,0.3-0.9,0.3c-0.4,0-0.7-0.1-1-0.4c-0.3-0.3-0.4-0.7-0.5-1.4c0-0.4-0.1-0.7-0.3-0.9c-0.2-0.2-0.3-0.3-0.5-0.3
			c-0.3,0-0.6,0.2-0.8,0.5c-0.3,0.5-0.5,1.3-0.5,2.4c0,0.9,0.1,1.8,0.4,2.6s0.7,1.4,1.1,1.8c0.4,0.3,0.8,0.4,1.3,0.4
			c0.3,0,0.6-0.1,0.9-0.2S217,286.6,217.4,286.1z M213.9,288.5h0.7l-0.5,0.7c0.4,0.1,0.7,0.2,0.9,0.5c0.2,0.3,0.3,0.6,0.3,1
			c0,0.4-0.1,0.7-0.3,1s-0.5,0.5-0.8,0.6c-0.5,0.2-1.3,0.3-2.3,0.2v-0.5c0.7,0,1.1-0.1,1.3-0.3c0.2-0.2,0.4-0.5,0.4-0.8
			c0-0.2-0.1-0.4-0.2-0.5s-0.4-0.2-0.7-0.2L213.9,288.5z"/>
		<path class="st1" d="M224,287.2c-1.1,1-2.2,1.5-3.1,1.5c-0.5,0-1-0.2-1.3-0.5s-0.5-0.8-0.5-1.3c0-0.7,0.3-1.4,0.9-2
			c0.6-0.6,1.9-1.4,4-2.3v-1c0-0.7,0-1.2-0.1-1.4s-0.2-0.4-0.4-0.5c-0.2-0.1-0.5-0.2-0.7-0.2c-0.4,0-0.8,0.1-1.1,0.3
			c-0.2,0.1-0.3,0.3-0.3,0.4c0,0.1,0.1,0.3,0.3,0.5c0.3,0.3,0.4,0.6,0.4,0.9c0,0.3-0.1,0.6-0.4,0.9c-0.2,0.2-0.6,0.4-1,0.4
			c-0.4,0-0.8-0.1-1.1-0.4c-0.3-0.3-0.4-0.6-0.4-0.9c0-0.5,0.2-1,0.6-1.4c0.4-0.4,0.9-0.8,1.6-1c0.7-0.2,1.4-0.4,2.1-0.4
			c0.9,0,1.6,0.2,2.1,0.6c0.5,0.4,0.8,0.8,1,1.3c0.1,0.3,0.1,0.9,0.1,2v3.7c0,0.4,0,0.7,0.1,0.8c0,0.1,0.1,0.2,0.1,0.3
			s0.1,0.1,0.2,0.1c0.2,0,0.3-0.1,0.5-0.4l0.3,0.2c-0.3,0.5-0.7,0.9-1,1.1c-0.4,0.2-0.8,0.3-1.2,0.3c-0.5,0-0.9-0.1-1.2-0.4
			C224.2,288.1,224.1,287.7,224,287.2z M224,286.5v-3.2c-0.8,0.5-1.4,1-1.8,1.6c-0.3,0.4-0.4,0.7-0.4,1.1c0,0.3,0.1,0.6,0.3,0.8
			c0.2,0.2,0.4,0.3,0.7,0.3C223.2,287,223.5,286.8,224,286.5z"/>
		<path class="st1" d="M232.7,279v7.6c0,0.7,0.1,1.1,0.2,1.3c0.2,0.2,0.5,0.3,0.9,0.3v0.4h-5v-0.4c0.4,0,0.7-0.1,0.9-0.4
			c0.1-0.2,0.2-0.6,0.2-1.3V281c0-0.7-0.1-1.1-0.2-1.3s-0.4-0.3-0.9-0.3V279L232.7,279L232.7,279z M231.3,274.4
			c0.4,0,0.8,0.2,1.1,0.5c0.3,0.3,0.4,0.7,0.4,1.1s-0.2,0.8-0.5,1.1c-0.3,0.3-0.7,0.5-1.1,0.5s-0.8-0.2-1.1-0.5s-0.4-0.7-0.4-1.1
			s0.1-0.8,0.4-1.1C230.5,274.5,230.9,274.4,231.3,274.4z"/>
		<path class="st1" d="M240.6,278.8l0.1,3.3h-0.3c-0.4-1-0.8-1.6-1.3-2s-0.9-0.5-1.3-0.5c-0.3,0-0.5,0.1-0.7,0.3s-0.3,0.4-0.3,0.7
			c0,0.2,0.1,0.4,0.2,0.5c0.2,0.3,0.8,0.8,1.8,1.4c1,0.7,1.6,1.3,1.9,1.7c0.3,0.5,0.5,1,0.5,1.6c0,0.5-0.1,1.1-0.4,1.6
			c-0.3,0.5-0.6,0.9-1.1,1.2c-0.5,0.3-1,0.4-1.6,0.4c-0.4,0-1-0.1-1.8-0.4c-0.2-0.1-0.3-0.1-0.4-0.1c-0.2,0-0.4,0.2-0.5,0.5h-0.3
			l-0.2-3.4h0.3c0.3,0.9,0.7,1.6,1.2,2s1,0.7,1.5,0.7c0.3,0,0.6-0.1,0.8-0.3c0.2-0.2,0.3-0.4,0.3-0.7c0-0.3-0.1-0.6-0.3-0.9
			c-0.2-0.2-0.6-0.6-1.3-1.1c-1-0.7-1.7-1.3-2-1.7c-0.4-0.6-0.7-1.2-0.7-1.9c0-0.7,0.2-1.4,0.7-2c0.5-0.6,1.2-0.9,2.1-0.9
			c0.5,0,1,0.1,1.5,0.4c0.2,0.1,0.3,0.2,0.4,0.2c0.1,0,0.2,0,0.3-0.1c0.1-0.1,0.2-0.2,0.3-0.4L240.6,278.8L240.6,278.8z"/>
		<path class="st1" d="M256.8,274.7v11c0,0.7,0,1.2,0.1,1.3c0.1,0.2,0.2,0.4,0.3,0.5s0.4,0.2,0.8,0.2v0.3l-3.9,0.8v-1.5
			c-0.5,0.6-0.9,1-1.3,1.2c-0.4,0.2-0.8,0.3-1.2,0.3c-1.2,0-2.1-0.5-2.8-1.6c-0.6-0.9-0.8-2-0.8-3.3c0-1,0.2-2,0.5-2.8
			s0.8-1.4,1.4-1.9s1.2-0.6,1.9-0.6c0.4,0,0.8,0.1,1.2,0.3c0.3,0.2,0.7,0.5,1.1,0.9V277c0-0.7,0-1.2-0.1-1.3
			c-0.1-0.2-0.2-0.3-0.4-0.4s-0.5-0.1-0.9-0.1v-0.4L256.8,274.7L256.8,274.7z M254,281.2c-0.5-1-1.1-1.5-1.8-1.5
			c-0.2,0-0.4,0.1-0.6,0.2c-0.2,0.2-0.4,0.6-0.6,1.1s-0.2,1.4-0.2,2.5c0,1.2,0.1,2.1,0.3,2.7c0.2,0.6,0.4,1,0.7,1.3
			c0.2,0.1,0.4,0.2,0.6,0.2c0.6,0,1.1-0.5,1.7-1.4L254,281.2L254,281.2z"/>
		<path class="st1" d="M268.1,279v7.5c0,0.7,0.1,1.2,0.2,1.4s0.4,0.3,0.8,0.3v0.4h-3.8v-1.3c-0.4,0.5-0.9,0.9-1.3,1.2
			c-0.4,0.2-0.9,0.4-1.5,0.4c-0.5,0-1-0.2-1.4-0.5c-0.4-0.3-0.7-0.7-0.8-1.2c-0.1-0.4-0.2-1.2-0.2-2.3v-3.8c0-0.7-0.1-1.2-0.2-1.4
			c-0.1-0.2-0.4-0.3-0.8-0.3V279h3.8v6.6c0,0.7,0,1.1,0.1,1.3s0.2,0.3,0.3,0.5s0.3,0.2,0.5,0.2c0.2,0,0.5-0.1,0.6-0.2
			c0.3-0.2,0.6-0.5,1-1.1v-5.1c0-0.7-0.1-1.2-0.2-1.4c-0.1-0.2-0.4-0.3-0.8-0.3V279L268.1,279L268.1,279z"/>
		<path class="st1" d="M279.7,288.9l-3.1-7.4c-0.4-0.9-0.7-1.5-0.9-1.7c-0.2-0.2-0.4-0.3-0.7-0.4V279h4.9v0.4
			c-0.3,0-0.5,0.1-0.6,0.2c-0.2,0.1-0.2,0.3-0.2,0.5c0,0.3,0.1,0.7,0.4,1.4l1.5,3.6l1.2-3.1c0.4-0.9,0.5-1.5,0.5-1.9
			c0-0.2-0.1-0.4-0.2-0.5c-0.1-0.1-0.4-0.2-0.8-0.2V279h3v0.4c-0.3,0-0.5,0.2-0.7,0.3c-0.2,0.2-0.5,0.7-0.8,1.6l-3.1,7.5
			L279.7,288.9L279.7,288.9z"/>
		<path class="st1" d="M290.8,287.2c-1.1,1-2.2,1.5-3.1,1.5c-0.5,0-1-0.2-1.3-0.5s-0.5-0.8-0.5-1.3c0-0.7,0.3-1.4,0.9-2
			c0.6-0.6,1.9-1.4,4-2.3v-1c0-0.7,0-1.2-0.1-1.4c-0.1-0.2-0.2-0.4-0.4-0.5c-0.2-0.1-0.5-0.2-0.7-0.2c-0.4,0-0.8,0.1-1.1,0.3
			c-0.2,0.1-0.3,0.3-0.3,0.4c0,0.1,0.1,0.3,0.3,0.5c0.3,0.3,0.4,0.6,0.4,0.9c0,0.3-0.1,0.6-0.4,0.9c-0.2,0.2-0.6,0.4-1,0.4
			c-0.4,0-0.8-0.1-1-0.4s-0.4-0.6-0.4-0.9c0-0.5,0.2-1,0.6-1.4c0.4-0.4,0.9-0.8,1.6-1c0.7-0.2,1.4-0.4,2.1-0.4
			c0.9,0,1.6,0.2,2.1,0.6c0.5,0.4,0.8,0.8,1,1.3c0.1,0.3,0.1,0.9,0.1,2v3.7c0,0.4,0,0.7,0,0.8c0,0.1,0.1,0.2,0.1,0.3
			s0.1,0.1,0.2,0.1c0.2,0,0.3-0.1,0.5-0.4l0.3,0.2c-0.3,0.5-0.7,0.9-1,1.1c-0.4,0.2-0.8,0.3-1.2,0.3c-0.5,0-0.9-0.1-1.2-0.4
			C291.1,288.1,290.9,287.7,290.8,287.2z M290.8,286.5v-3.2c-0.8,0.5-1.4,1-1.8,1.6c-0.3,0.4-0.4,0.7-0.4,1.1c0,0.3,0.1,0.6,0.3,0.8
			c0.2,0.2,0.4,0.3,0.7,0.3C290,287,290.4,286.8,290.8,286.5z"/>
		<path class="st1" d="M301.8,278.8l0.1,3.3h-0.3c-0.4-1-0.8-1.6-1.3-2s-0.9-0.5-1.3-0.5c-0.3,0-0.5,0.1-0.7,0.3s-0.3,0.4-0.3,0.7
			c0,0.2,0.1,0.4,0.2,0.5c0.2,0.3,0.8,0.8,1.8,1.4s1.6,1.3,1.9,1.7c0.3,0.5,0.5,1,0.5,1.6c0,0.5-0.1,1.1-0.4,1.6s-0.6,0.9-1.1,1.2
			c-0.5,0.3-1,0.4-1.6,0.4c-0.4,0-1-0.1-1.8-0.4c-0.2-0.1-0.3-0.1-0.4-0.1c-0.2,0-0.4,0.2-0.5,0.5h-0.3l-0.2-3.4h0.3
			c0.3,0.9,0.7,1.6,1.2,2c0.5,0.5,1,0.7,1.5,0.7c0.3,0,0.6-0.1,0.8-0.3c0.2-0.2,0.3-0.4,0.3-0.7c0-0.3-0.1-0.6-0.3-0.9
			c-0.2-0.2-0.6-0.6-1.3-1.1c-1-0.7-1.7-1.3-2-1.7c-0.4-0.6-0.7-1.2-0.7-1.9c0-0.7,0.2-1.4,0.7-2c0.5-0.6,1.2-0.9,2.1-0.9
			c0.5,0,1,0.1,1.5,0.4c0.2,0.1,0.3,0.2,0.4,0.2c0.1,0,0.2,0,0.3-0.1c0.1-0.1,0.2-0.2,0.3-0.4L301.8,278.8L301.8,278.8z"/>
		<path class="st1" d="M311.7,283.5h-5.1c0.1,1.3,0.4,2.3,1,3c0.5,0.6,1,0.9,1.7,0.9c0.4,0,0.8-0.1,1.1-0.3c0.3-0.2,0.7-0.6,1-1.2
			l0.3,0.2c-0.5,1.1-1.1,1.8-1.7,2.3c-0.6,0.4-1.3,0.7-2.1,0.7c-1.4,0-2.4-0.5-3.1-1.6c-0.6-0.9-0.9-2-0.9-3.3
			c0-1.6,0.4-2.9,1.3-3.8s1.8-1.4,3-1.4c0.9,0,1.8,0.4,2.5,1.2C311.3,280.7,311.7,281.9,311.7,283.5z M309.3,282.8
			c0-1.1-0.1-1.9-0.2-2.3s-0.3-0.7-0.5-0.9c-0.1-0.1-0.3-0.2-0.6-0.2c-0.3,0-0.6,0.2-0.8,0.5c-0.4,0.6-0.6,1.4-0.6,2.5v0.4
			L309.3,282.8L309.3,282.8z"/>
		<path class="st1" d="M327,274.7v11c0,0.7,0,1.2,0.1,1.3c0.1,0.2,0.2,0.4,0.3,0.5s0.4,0.2,0.8,0.2v0.3l-3.9,0.8v-1.5
			c-0.5,0.6-0.9,1-1.3,1.2c-0.4,0.2-0.8,0.3-1.2,0.3c-1.2,0-2.1-0.5-2.8-1.6c-0.6-0.9-0.8-2-0.8-3.3c0-1,0.2-2,0.5-2.8
			c0.3-0.8,0.8-1.4,1.4-1.9s1.2-0.6,1.9-0.6c0.4,0,0.8,0.1,1.2,0.3c0.3,0.2,0.7,0.5,1.1,0.9V277c0-0.7,0-1.2-0.1-1.3
			c-0.1-0.2-0.2-0.3-0.4-0.4s-0.5-0.1-0.9-0.1v-0.4L327,274.7L327,274.7z M324.2,281.2c-0.5-1-1.1-1.5-1.8-1.5
			c-0.2,0-0.4,0.1-0.6,0.2c-0.2,0.2-0.4,0.6-0.6,1.1s-0.2,1.4-0.2,2.5c0,1.2,0.1,2.1,0.3,2.7c0.2,0.6,0.4,1,0.7,1.3
			c0.2,0.1,0.4,0.2,0.6,0.2c0.6,0,1.1-0.5,1.7-1.4V281.2z"/>
		<path class="st1" d="M330.5,281.2v-0.5c0.8-0.3,1.3-0.8,1.7-1.3c0.3-0.5,0.5-1.1,0.5-1.7c0-0.1,0-0.2-0.1-0.3
			c0-0.1-0.1-0.1-0.1-0.1c0,0-0.1,0-0.2,0.1c-0.2,0.1-0.4,0.2-0.7,0.2c-0.4,0-0.7-0.2-1-0.5c-0.3-0.3-0.4-0.7-0.4-1.1
			c0-0.5,0.2-0.8,0.5-1.2s0.7-0.5,1.2-0.5c0.6,0,1.1,0.2,1.5,0.7c0.4,0.5,0.6,1.1,0.6,1.9c0,1-0.3,1.8-0.9,2.6
			C332.5,280.3,331.6,280.9,330.5,281.2z"/>
		<path class="st1" d="M344,283.5h-5.1c0.1,1.3,0.4,2.3,1,3c0.5,0.6,1,0.9,1.7,0.9c0.4,0,0.8-0.1,1.1-0.3c0.3-0.2,0.7-0.6,1-1.2
			l0.3,0.2c-0.5,1.1-1.1,1.8-1.7,2.3c-0.6,0.4-1.3,0.7-2.1,0.7c-1.4,0-2.4-0.5-3.1-1.6c-0.6-0.9-0.9-2-0.9-3.3
			c0-1.6,0.4-2.9,1.3-3.8s1.8-1.4,3-1.4c0.9,0,1.8,0.4,2.5,1.2C343.6,280.7,343.9,281.9,344,283.5z M341.5,282.8
			c0-1.1-0.1-1.9-0.2-2.3s-0.3-0.7-0.5-0.9c-0.1-0.1-0.3-0.2-0.6-0.2c-0.3,0-0.6,0.2-0.8,0.5c-0.4,0.6-0.6,1.4-0.6,2.5v0.4
			L341.5,282.8L341.5,282.8z"/>
		<path class="st1" d="M350.7,282.7l1.6,3.2c0.6,1.1,1,1.8,1.3,2.1c0.2,0.2,0.4,0.2,0.7,0.3v0.4h-5.2v-0.4c0.4,0,0.7-0.1,0.8-0.2
			c0.1-0.1,0.1-0.2,0.1-0.3c0-0.2-0.1-0.5-0.3-0.9l-0.8-1.6l-0.7,1c-0.3,0.5-0.5,0.8-0.5,0.8c-0.1,0.1-0.1,0.2-0.1,0.3
			c0,0.2,0,0.3,0.1,0.4c0.1,0.1,0.1,0.2,0.3,0.2c0.1,0.1,0.3,0.1,0.6,0.1v0.4h-3.6v-0.4c0.5,0,0.9-0.1,1.2-0.4s0.9-0.9,1.6-2
			l0.8-1.2l-1.6-3.1c-0.5-1-0.9-1.6-1.2-1.8s-0.5-0.4-0.9-0.4V279h5.2v0.4l-0.3,0l-0.5,0.2c-0.1,0-0.1,0.1-0.1,0.2
			c0,0.1,0,0.2,0,0.3c0,0,0.1,0.2,0.3,0.6l0.7,1.4l0.4-0.6c0.5-0.8,0.8-1.3,0.8-1.6c0-0.1-0.1-0.3-0.2-0.4c-0.1-0.1-0.3-0.2-0.6-0.2
			V279h3.3v0.4c-0.4,0-0.8,0.1-1.1,0.4s-0.7,0.7-1.2,1.4L350.7,282.7z"/>
		<path class="st1" d="M359,287.6v3.6c0,0.5,0,0.8,0.1,1s0.2,0.3,0.4,0.4s0.5,0.1,0.9,0.1v0.4h-5.3v-0.4c0.4,0,0.7-0.1,0.9-0.4
			c0.1-0.2,0.2-0.6,0.2-1.2V281c0-0.7-0.1-1.1-0.2-1.3c-0.2-0.2-0.4-0.3-0.9-0.3V279h3.9v1.3c0.3-0.5,0.7-0.8,1-1.1
			c0.5-0.3,1-0.5,1.6-0.5c0.7,0,1.3,0.2,1.9,0.7s1,1.1,1.3,1.8c0.3,0.8,0.4,1.6,0.4,2.5c0,1-0.1,1.9-0.5,2.7
			c-0.3,0.8-0.7,1.4-1.3,1.8s-1.2,0.6-1.9,0.6c-0.5,0-1-0.1-1.4-0.3C359.7,288.4,359.3,288.1,359,287.6z M359,286.6
			c0.6,0.8,1.2,1.3,1.8,1.3c0.4,0,0.7-0.2,0.9-0.6c0.3-0.6,0.5-1.7,0.5-3.3c0-1.7-0.2-2.8-0.6-3.4c-0.3-0.4-0.6-0.6-1-0.6
			c-0.7,0-1.2,0.5-1.7,1.5L359,286.6L359,286.6z"/>
		<path class="st1" d="M371.8,287.2c-1.1,1-2.2,1.5-3.1,1.5c-0.5,0-1-0.2-1.3-0.5s-0.5-0.8-0.5-1.3c0-0.7,0.3-1.4,0.9-2
			c0.6-0.6,1.9-1.4,4-2.3v-1c0-0.7,0-1.2-0.1-1.4c-0.1-0.2-0.2-0.4-0.4-0.5c-0.2-0.1-0.5-0.2-0.7-0.2c-0.4,0-0.8,0.1-1.1,0.3
			c-0.2,0.1-0.3,0.3-0.3,0.4c0,0.1,0.1,0.3,0.3,0.5c0.3,0.3,0.4,0.6,0.4,0.9c0,0.3-0.1,0.6-0.4,0.9c-0.2,0.2-0.6,0.4-1,0.4
			c-0.4,0-0.8-0.1-1-0.4s-0.4-0.6-0.4-0.9c0-0.5,0.2-1,0.6-1.4c0.4-0.4,0.9-0.8,1.6-1c0.7-0.2,1.4-0.4,2.1-0.4
			c0.9,0,1.6,0.2,2.1,0.6c0.5,0.4,0.8,0.8,1,1.3c0.1,0.3,0.1,0.9,0.1,2v3.7c0,0.4,0,0.7,0,0.8c0,0.1,0.1,0.2,0.1,0.3
			s0.1,0.1,0.2,0.1c0.2,0,0.3-0.1,0.5-0.4l0.3,0.2c-0.3,0.5-0.7,0.9-1,1.1c-0.4,0.2-0.8,0.3-1.2,0.3c-0.5,0-0.9-0.1-1.2-0.4
			C372.1,288.1,371.9,287.7,371.8,287.2z M371.8,286.5v-3.2c-0.8,0.5-1.4,1-1.8,1.6c-0.3,0.4-0.4,0.7-0.4,1.1c0,0.3,0.1,0.6,0.3,0.8
			c0.2,0.2,0.4,0.3,0.7,0.3C371,287,371.4,286.8,371.8,286.5z"/>
		<path class="st1" d="M380.7,279v1.2c0.5-0.5,0.9-0.9,1.4-1.2c0.4-0.2,0.9-0.4,1.4-0.4c0.6,0,1.1,0.2,1.5,0.5
			c0.4,0.3,0.7,0.8,0.8,1.3c0.1,0.4,0.2,1.1,0.2,2.2v3.7c0,0.7,0.1,1.2,0.2,1.4c0.1,0.2,0.4,0.3,0.8,0.3v0.4h-4.7v-0.4
			c0.4,0,0.6-0.2,0.8-0.5c0.1-0.2,0.2-0.6,0.2-1.3v-4.3c0-0.8,0-1.3-0.1-1.5s-0.2-0.4-0.3-0.5c-0.1-0.1-0.3-0.2-0.5-0.2
			c-0.6,0-1.1,0.4-1.6,1.3v5.1c0,0.7,0.1,1.2,0.2,1.4c0.1,0.2,0.4,0.3,0.7,0.4v0.4h-4.7v-0.4c0.4,0,0.7-0.2,0.8-0.4
			c0.1-0.1,0.2-0.6,0.2-1.3v-5.4c0-0.7-0.1-1.2-0.2-1.4c-0.1-0.2-0.4-0.3-0.8-0.3V279H380.7z"/>
		<path class="st1" d="M394.1,278.8l0.1,3.3h-0.3c-0.4-1-0.8-1.6-1.3-2s-0.9-0.5-1.3-0.5c-0.3,0-0.5,0.1-0.7,0.3s-0.3,0.4-0.3,0.7
			c0,0.2,0.1,0.4,0.2,0.5c0.2,0.3,0.8,0.8,1.8,1.4s1.6,1.3,1.9,1.7c0.3,0.5,0.5,1,0.5,1.6c0,0.5-0.1,1.1-0.4,1.6s-0.6,0.9-1.1,1.2
			c-0.5,0.3-1,0.4-1.6,0.4c-0.4,0-1-0.1-1.8-0.4c-0.2-0.1-0.3-0.1-0.4-0.1c-0.2,0-0.4,0.2-0.5,0.5h-0.3l-0.2-3.4h0.3
			c0.3,0.9,0.7,1.6,1.2,2c0.5,0.5,1,0.7,1.5,0.7c0.3,0,0.6-0.1,0.8-0.3c0.2-0.2,0.3-0.4,0.3-0.7c0-0.3-0.1-0.6-0.3-0.9
			c-0.2-0.2-0.6-0.6-1.3-1.1c-1-0.7-1.7-1.3-2-1.7c-0.4-0.6-0.7-1.2-0.7-1.9c0-0.7,0.2-1.4,0.7-2c0.5-0.6,1.2-0.9,2.1-0.9
			c0.5,0,1,0.1,1.5,0.4c0.2,0.1,0.3,0.2,0.4,0.2c0.1,0,0.2,0,0.3-0.1c0.1-0.1,0.2-0.2,0.3-0.4L394.1,278.8L394.1,278.8z"/>
		<path class="st1" d="M399.8,279v7.6c0,0.7,0.1,1.1,0.2,1.3s0.5,0.3,0.9,0.3v0.4h-5v-0.4c0.4,0,0.7-0.1,0.9-0.4
			c0.1-0.2,0.2-0.6,0.2-1.3V281c0-0.7-0.1-1.1-0.2-1.3c-0.2-0.2-0.4-0.3-0.9-0.3V279L399.8,279L399.8,279z M398.4,274.4
			c0.4,0,0.8,0.2,1.1,0.5c0.3,0.3,0.4,0.7,0.4,1.1s-0.1,0.8-0.5,1.1c-0.3,0.3-0.7,0.5-1.1,0.5s-0.8-0.2-1.1-0.5s-0.4-0.7-0.4-1.1
			s0.1-0.8,0.4-1.1C397.6,274.5,398,274.4,398.4,274.4z"/>
		<path class="st1" d="M406.2,278.7c0.8,0,1.6,0.2,2.3,0.6c0.7,0.4,1.2,1,1.6,1.8c0.4,0.8,0.5,1.7,0.5,2.6c0,1.4-0.3,2.5-1,3.4
			c-0.8,1.1-1.9,1.7-3.4,1.7c-1.4,0-2.5-0.5-3.2-1.5c-0.8-1-1.1-2.2-1.1-3.5c0-1.4,0.4-2.6,1.2-3.6S404.9,278.7,406.2,278.7z
			 M406.3,279.5c-0.3,0-0.6,0.1-0.9,0.4c-0.2,0.3-0.4,0.8-0.5,1.6c-0.1,0.8-0.1,1.9-0.1,3.2c0,0.7,0,1.4,0.1,2.1
			c0.1,0.5,0.2,0.9,0.5,1.1c0.2,0.3,0.5,0.4,0.8,0.4c0.3,0,0.5-0.1,0.7-0.3c0.3-0.2,0.4-0.6,0.5-1c0.1-0.6,0.2-2,0.2-3.9
			c0-1.2-0.1-2-0.2-2.4c-0.1-0.4-0.3-0.8-0.6-0.9C406.8,279.5,406.5,279.5,406.3,279.5z"/>
		<path class="st1" d="M415.8,279v1.2c0.5-0.5,0.9-0.9,1.4-1.2c0.4-0.2,0.9-0.4,1.4-0.4c0.6,0,1.1,0.2,1.5,0.5
			c0.4,0.3,0.7,0.8,0.8,1.3c0.1,0.4,0.2,1.1,0.2,2.2v3.7c0,0.7,0.1,1.2,0.2,1.4c0.1,0.2,0.4,0.3,0.8,0.3v0.4h-4.7v-0.4
			c0.4,0,0.6-0.2,0.8-0.5c0.1-0.2,0.2-0.6,0.2-1.3v-4.3c0-0.8,0-1.3-0.1-1.5s-0.2-0.4-0.3-0.5c-0.1-0.1-0.3-0.2-0.5-0.2
			c-0.6,0-1.1,0.4-1.6,1.3v5.1c0,0.7,0.1,1.2,0.2,1.4c0.1,0.2,0.4,0.3,0.7,0.4v0.4H412v-0.4c0.4,0,0.7-0.2,0.8-0.4
			c0.1-0.1,0.2-0.6,0.2-1.3v-5.4c0-0.7-0.1-1.2-0.2-1.4c-0.1-0.2-0.4-0.3-0.8-0.3V279H415.8z"/>
	</g>
</g>
</svg>
