<?xml version="1.0" encoding="utf-8"?>
<!-- Generator: Adobe Illustrator 15.0.0, SVG Export Plug-In . SVG Version: 6.00 Build 0)  -->
<!DOCTYPE svg PUBLIC "-//W3C//DTD SVG 1.1//EN" "http://www.w3.org/Graphics/SVG/1.1/DTD/svg11.dtd">
<svg version="1.1" id="Calque_1" xmlns="http://www.w3.org/2000/svg" xmlns:xlink="http://www.w3.org/1999/xlink" x="0px" y="0px"
	 width="500px" height="500px" viewBox="0 0 500 500" enable-background="new 0 0 500 500" xml:space="preserve">
<g id="Nouveau_symbole">
</g>
<g>
	<path fill="#314995" d="M70.702,244.144c0,5.085-4.037,9.221-9,9.221h-14c-4.963,0-9-4.136-9-9.221V210.92
		c0-5.085,4.037-9.222,9-9.222h26v-8h-26c-9.374,0-17,7.726-17,17.222v33.224c0,9.496,7.626,17.221,17,17.221h14
		c9.374,0,17-7.726,17-17.221v-20.778h-8V244.144z"/>
	<path fill="#314995" d="M234.036,244.144c0,5.085-4.038,9.221-9,9.221h-14c-4.963,0-9-4.136-9-9.221V210.92
		c0-5.085,4.037-9.222,9-9.222h26v-8h-26c-9.375,0-17,7.726-17,17.222v33.224c0,9.496,7.625,17.221,17,17.221h14
		c9.373,0,17-7.726,17-17.221v-20.778h-8V244.144z"/>
	<path fill="#314995" d="M167.036,245.366c0,4.963-4.038,9-9,9h-13.667c-4.962,0-9-4.037-9-9v-52h-8v52c0,9.374,7.626,17,17,17
		h13.667c9.373,0,17-7.626,17-17v-52h-8V245.366z"/>
	<rect x="98.368" y="193.366" fill="#314995" width="8" height="67.667"/>
	<rect x="263.035" y="193.366" fill="#314995" width="8" height="67.667"/>
	<path fill="#314995" d="M454.579,193.905h-12.421c-9.696,0-17.584,7.852-17.584,17.504v32.581c0,9.651,7.888,17.503,17.584,17.503
		h12.421c9.696,0,17.584-7.853,17.584-17.503v-32.581C472.163,201.756,464.276,193.905,454.579,193.905z M463.907,243.99
		c0,5.1-4.184,9.248-9.328,9.248h-12.421c-5.144,0-9.328-4.148-9.328-9.248v-32.581c0-5.1,4.185-9.248,9.328-9.248h12.421
		c5.145,0,9.328,4.148,9.328,9.248V243.99z"/>
	<path fill="#314995" d="M318.893,194.895c-0.61-1.6-2.145-2.657-3.856-2.657c-1.713,0-3.247,1.058-3.857,2.657l-24.666,64.667
		c-0.812,2.13,0.256,4.515,2.385,5.327c2.133,0.817,4.516-0.255,5.328-2.386l6.029-15.803h29.562l6.027,15.803
		c0.629,1.646,2.195,2.658,3.858,2.658c0.489,0,0.986-0.087,1.47-0.272c2.131-0.812,3.199-3.197,2.387-5.327L318.893,194.895z
		 M303.688,237.7l11.349-29.752l11.348,29.752H303.688z"/>
	<path fill="#314995" d="M391.152,193.282h-13.898c-9.723,0-17.635,7.664-17.635,17.084v51.25h8.168v-51.25
		c0-4.916,4.247-8.916,9.467-8.916h13.898c5.111,0,8.967,3.752,8.967,8.729v4.188c0,4.916-4,8.916-8.916,8.916h-16.5
		c-1.553,0-2.972,0.881-3.66,2.272c-0.689,1.392-0.529,3.054,0.414,4.288l24.101,32.898l12.063-0.181l-24.666-31.11h8.248
		c9.42,0,17.084-7.664,17.084-17.084v-4.188C408.286,200.704,400.76,193.282,391.152,193.282z"/>
</g>
<g>
	<path fill="#E21F20" d="M47.225,291.325c-0.859-0.734-1.907-1.247-3.113-1.524c-0.856-0.199-2.046-0.296-3.636-0.296H33.16v20.785
		h7.64c1.232,0,2.342-0.118,3.297-0.353c0.975-0.237,1.824-0.595,2.521-1.061c0.698-0.468,1.348-1.113,1.929-1.918
		c0.579-0.803,1.058-1.822,1.423-3.03c0.363-1.201,0.548-2.594,0.548-4.14c0-1.815-0.272-3.457-0.808-4.88
		C49.164,293.463,48.327,292.257,47.225,291.325z M36.779,292.84h3.656c1.488,0,2.568,0.125,3.207,0.37
		c0.863,0.336,1.613,1.019,2.23,2.029c0.628,1.026,0.946,2.544,0.946,4.51c0,1.433-0.167,2.663-0.494,3.655
		c-0.321,0.97-0.769,1.746-1.33,2.308c-0.383,0.382-0.913,0.687-1.577,0.903c-0.688,0.226-1.668,0.34-2.914,0.34h-3.725V292.84z"/>
	<polygon fill="#E21F20" points="122.127,301.221 131.382,301.221 131.382,297.899 122.127,297.899 122.127,292.84 132.124,292.84 
		132.124,289.505 118.509,289.505 118.509,310.29 132.583,310.29 132.583,306.955 122.127,306.955 	"/>
	<path fill="#E21F20" d="M215.983,298.916c-0.696-0.378-1.923-0.801-3.748-1.294c-2.231-0.604-2.911-1.069-3.12-1.295
		c-0.34-0.363-0.504-0.815-0.504-1.383c0-0.665,0.246-1.224,0.752-1.708c0.527-0.505,1.415-0.761,2.639-0.761
		c1.168,0,2.05,0.284,2.621,0.845c0.569,0.557,0.896,1.375,0.998,2.501l0.043,0.481l2.909-0.261l-0.016-0.482
		c-0.041-1.248-0.337-2.383-0.882-3.373c-0.549-0.997-1.34-1.762-2.352-2.271c-0.986-0.496-2.135-0.748-3.413-0.748
		c-1.164,0-2.241,0.24-3.2,0.713c-0.988,0.487-1.752,1.216-2.271,2.166c-0.518,0.946-0.779,1.98-0.779,3.074
		c0,1.001,0.217,1.919,0.646,2.729c0.426,0.807,1.075,1.485,1.927,2.017c0.647,0.411,1.727,0.83,3.298,1.28
		c1.498,0.43,2.473,0.747,2.898,0.946c0.617,0.279,1.058,0.618,1.311,1.006c0.244,0.377,0.363,0.81,0.363,1.32
		c0,0.508-0.127,0.966-0.39,1.4c-0.263,0.436-0.681,0.789-1.241,1.049c-0.59,0.272-1.284,0.411-2.064,0.411
		c-0.879,0-1.678-0.184-2.376-0.545c-0.677-0.352-1.177-0.81-1.487-1.36c-0.318-0.564-0.525-1.31-0.615-2.215l-0.047-0.481
		l-2.867,0.299l0.012,0.471c0.031,1.41,0.36,2.694,0.979,3.816c0.619,1.127,1.484,1.982,2.568,2.54
		c1.062,0.547,2.387,0.824,3.936,0.824c1.238,0,2.371-0.276,3.368-0.822c1.015-0.555,1.806-1.348,2.353-2.355
		c0.547-1.01,0.824-2.103,0.824-3.247c0-1.158-0.256-2.199-0.761-3.094C217.793,300.223,217.017,299.485,215.983,298.916z"/>
	<rect x="292.771" y="289.505" fill="#E21F20" width="3.618" height="20.785"/>
	<path fill="#E21F20" d="M376.656,302.529h4.939v2.952c-0.433,0.404-1.043,0.796-1.82,1.166c-1.849,0.881-3.885,0.814-5.611-0.193
		c-0.898-0.524-1.592-1.341-2.063-2.425c-0.482-1.111-0.728-2.524-0.728-4.199c0-1.359,0.206-2.635,0.609-3.789
		c0.232-0.655,0.563-1.266,0.984-1.814c0.41-0.536,0.962-0.978,1.641-1.312c0.687-0.337,1.519-0.508,2.473-0.508
		c0.787,0,1.51,0.162,2.15,0.481c0.622,0.31,1.104,0.722,1.432,1.226c0.341,0.524,0.634,1.269,0.871,2.213l0.117,0.471l2.811-0.907
		l-0.104-0.478c-0.305-1.393-0.76-2.545-1.352-3.426c-0.602-0.892-1.438-1.595-2.484-2.089c-1.029-0.485-2.19-0.731-3.452-0.731
		c-1.735,0-3.296,0.429-4.636,1.274c-1.359,0.856-2.413,2.183-3.133,3.941c-0.709,1.729-1.068,3.616-1.068,5.609
		c0,2.015,0.363,3.867,1.078,5.505c0.726,1.661,1.813,2.948,3.234,3.825c1.404,0.866,2.984,1.306,4.695,1.306
		c1.27,0,2.522-0.272,3.727-0.809c1.196-0.533,2.373-1.338,3.495-2.392l0.16-0.149v-8.084l-7.966,0.015V302.529z"/>
	<polygon fill="#E21F20" points="466.161,289.505 466.161,303.893 457.327,289.505 454.158,289.505 454.158,310.29 457.38,310.29 
		457.38,295.89 466.215,310.29 469.384,310.29 469.384,289.505 	"/>
</g>
</svg>
