<?xml version="1.0" encoding="utf-8"?>
<!-- Generator: Adobe Illustrator 21.0.2, SVG Export Plug-In . SVG Version: 6.00 Build 0)  -->
<svg version="1.1" id="Calque_1" xmlns="http://www.w3.org/2000/svg" xmlns:xlink="http://www.w3.org/1999/xlink" x="0px" y="0px"
	 viewBox="0 0 500 158" style="enable-background:new 0 0 500 158;" xml:space="preserve">
<style type="text/css">
	.st0{fill:#314995;}
	.st1{fill:#E21F20;}
</style>
<path class="st0" d="M70.7,73.1c0,5.1-4,9.2-9,9.2h-14c-5,0-9-4.1-9-9.2V39.9c0-5.1,4-9.2,9-9.2h26v-8h-26c-9.4,0-17,7.7-17,17.2
	v33.2c0,9.5,7.6,17.2,17,17.2h14c9.4,0,17-7.7,17-17.2V52.3h-8V73.1z"/>
<path class="st0" d="M234,73.1c0,5.1-4,9.2-9,9.2h-14c-5,0-9-4.1-9-9.2V39.9c0-5.1,4-9.2,9-9.2h26v-8h-26c-9.4,0-17,7.7-17,17.2
	v33.2c0,9.5,7.6,17.2,17,17.2h14c9.4,0,17-7.7,17-17.2V52.3h-8V73.1z"/>
<path class="st0" d="M167,74.4c0,5-4,9-9,9h-13.7c-5,0-9-4-9-9v-52h-8v52c0,9.4,7.6,17,17,17H158c9.4,0,17-7.6,17-17v-52h-8V74.4
	L167,74.4z"/>
<rect x="98.4" y="22.4" class="st0" width="8" height="67.7"/>
<rect x="263" y="22.4" class="st0" width="8" height="67.7"/>
<path class="st0" d="M454.6,22.9h-12.4c-9.7,0-17.6,7.9-17.6,17.5V73c0,9.7,7.9,17.5,17.6,17.5h12.4c9.7,0,17.6-7.9,17.6-17.5V40.4
	C472.2,30.7,464.3,22.9,454.6,22.9z M463.9,73c0,5.1-4.2,9.2-9.3,9.2h-12.4c-5.1,0-9.3-4.1-9.3-9.2V40.4c0-5.1,4.2-9.2,9.3-9.2h12.4
	c5.1,0,9.3,4.1,9.3,9.2V73z"/>
<path class="st0" d="M318.9,23.9c-0.6-1.6-2.1-2.7-3.9-2.7c-1.7,0-3.2,1.1-3.9,2.7l-24.7,64.7c-0.8,2.1,0.3,4.5,2.4,5.3
	c2.1,0.8,4.5-0.3,5.3-2.4l6-15.8h29.6l6,15.8c0.6,1.6,2.2,2.7,3.9,2.7c0.5,0,1-0.1,1.5-0.3c2.1-0.8,3.2-3.2,2.4-5.3L318.9,23.9z
	 M303.7,66.7L315,36.9l11.3,29.8H303.7z"/>
<path class="st0" d="M391.2,22.3h-13.9c-9.7,0-17.6,7.7-17.6,17.1v51.2h8.2V39.4c0-4.9,4.2-8.9,9.5-8.9h13.9c5.1,0,9,3.8,9,8.7v4.2
	c0,4.9-4,8.9-8.9,8.9h-16.7c-1.6,0-3,0.9-3.7,2.3s-0.5,3.1,0.4,4.3l24.1,32.9l12.1-0.2L383,60.4h8.2c9.4,0,17.1-7.7,17.1-17.1v-4.2
	C408.3,29.7,400.8,22.3,391.2,22.3z"/>
<path class="st1" d="M47.2,120.3c-0.9-0.7-1.9-1.2-3.1-1.5c-0.9-0.2-2-0.3-3.6-0.3h-7.3v20.8h7.6c1.2,0,2.3-0.1,3.3-0.4
	c1-0.2,1.8-0.6,2.5-1.1s1.3-1.1,1.9-1.9s1.1-1.8,1.4-3c0.4-1.2,0.5-2.6,0.5-4.1c0-1.8-0.3-3.5-0.8-4.9
	C49.2,122.5,48.3,121.2,47.2,120.3z M36.8,121.8h3.7c1.5,0,2.6,0.1,3.2,0.4c0.9,0.3,1.6,1,2.2,2s0.9,2.5,0.9,4.5
	c0,1.4-0.2,2.7-0.5,3.7s-0.8,1.7-1.3,2.3c-0.4,0.4-0.9,0.7-1.6,0.9c-0.7,0.2-1.7,0.3-2.9,0.3h-3.7L36.8,121.8L36.8,121.8z"/>
<polygon class="st1" points="122.1,130.2 131.4,130.2 131.4,126.9 122.1,126.9 122.1,121.8 132.1,121.8 132.1,118.5 118.5,118.5 
	118.5,139.3 132.6,139.3 132.6,135.9 122.1,135.9 "/>
<path class="st1" d="M216,127.9c-0.7-0.4-1.9-0.8-3.7-1.3c-2.2-0.6-2.9-1.1-3.1-1.3c-0.3-0.4-0.5-0.8-0.5-1.4c0-0.7,0.2-1.2,0.8-1.7
	c0.5-0.5,1.4-0.8,2.6-0.8c1.2,0,2.1,0.3,2.6,0.8c0.6,0.6,0.9,1.4,1,2.5v0.5l2.9-0.3v-0.5c0-1.2-0.3-2.4-0.9-3.4
	c-0.5-1-1.3-1.8-2.4-2.3c-1-0.5-2.1-0.7-3.4-0.7c-1.2,0-2.2,0.2-3.2,0.7s-1.8,1.2-2.3,2.2c-0.5,0.9-0.8,2-0.8,3.1
	c0,1,0.2,1.9,0.6,2.7c0.4,0.8,1.1,1.5,1.9,2c0.6,0.4,1.7,0.8,3.3,1.3c1.5,0.4,2.5,0.7,2.9,0.9c0.6,0.3,1.1,0.6,1.3,1
	s0.4,0.8,0.4,1.3s-0.1,1-0.4,1.4c-0.3,0.4-0.7,0.8-1.2,1c-0.6,0.3-1.3,0.4-2.1,0.4c-0.9,0-1.7-0.2-2.4-0.5c-0.7-0.4-1.2-0.8-1.5-1.4
	s-0.5-1.3-0.6-2.2v-0.5l-2.9,0.3v0.5c0,1.4,0.4,2.7,1,3.8c0.6,1.1,1.5,2,2.6,2.5s2.4,0.8,3.9,0.8c1.2,0,2.4-0.3,3.4-0.8
	c1-0.6,1.8-1.3,2.4-2.4c0.5-1,0.8-2.1,0.8-3.2c0-1.2-0.3-2.2-0.8-3.1C217.8,129.2,217,128.5,216,127.9z"/>
<rect x="292.8" y="118.5" class="st1" width="3.6" height="20.8"/>
<path class="st1" d="M376.7,131.5h4.9v3c-0.4,0.4-1,0.8-1.8,1.2c-1.8,0.9-3.9,0.8-5.6-0.2c-0.9-0.5-1.6-1.3-2.1-2.4
	s-0.7-2.5-0.7-4.2c0-1.4,0.2-2.6,0.6-3.8c0.2-0.7,0.6-1.3,1-1.8s1-1,1.6-1.3c0.7-0.3,1.5-0.5,2.5-0.5c0.8,0,1.5,0.2,2.1,0.5
	c0.6,0.3,1.1,0.7,1.4,1.2c0.3,0.5,0.6,1.3,0.9,2.2l0.1,0.5l2.8-0.9l-0.1-0.5c-0.3-1.4-0.8-2.5-1.4-3.4s-1.4-1.6-2.5-2.1
	c-1-0.5-2.2-0.7-3.5-0.7c-1.7,0-3.3,0.4-4.6,1.3c-1.4,0.9-2.4,2.2-3.1,3.9c-0.7,1.7-1.1,3.6-1.1,5.6s0.4,3.9,1.1,5.5
	c0.7,1.7,1.8,2.9,3.2,3.8s3,1.3,4.7,1.3c1.3,0,2.5-0.3,3.7-0.8c1.2-0.5,2.4-1.3,3.5-2.4l0.2-0.1v-8.1h-8L376.7,131.5L376.7,131.5z"
	/>
<polygon class="st1" points="466.2,118.5 466.2,132.9 457.3,118.5 454.2,118.5 454.2,139.3 457.4,139.3 457.4,124.9 466.2,139.3 
	469.4,139.3 469.4,118.5 "/>
</svg>
