<?xml version="1.0" encoding="utf-8"?>
<!-- Generator: Adobe Illustrator 16.0.0, SVG Export Plug-In . SVG Version: 6.00 Build 0)  -->
<!DOCTYPE svg PUBLIC "-//W3C//DTD SVG 1.1//EN" "http://www.w3.org/Graphics/SVG/1.1/DTD/svg11.dtd">
<svg version="1.1" id="Calque_1" xmlns="http://www.w3.org/2000/svg" xmlns:xlink="http://www.w3.org/1999/xlink" x="0px" y="0px"
	 width="500px" height="500px" viewBox="0 0 500 500" enable-background="new 0 0 500 500" xml:space="preserve">
<g>
	<path d="M105.517,291.477c-6.37,2.174-18.431,5.15-30.499,5.15c-16.672,0-28.733-4.202-37.139-12.199
		c-8.267-7.997-12.878-19.927-12.878-33.345c0.139-30.36,22.231-47.711,52.19-47.711c11.792,0,20.875,2.298,25.347,4.334
		l-4.34,16.672c-5.013-2.306-11.113-3.933-21.145-3.933c-17.212,0-30.368,9.762-30.368,29.55c0,18.979,11.93,29.959,28.879,29.959
		c4.604,0,8.398-0.54,10.025-1.219v-19.248H71.494v-16.132h34.023V291.477z"/>
	<path d="M121.774,204.321h20.605v74.008h36.328v17.351h-56.933V204.321z"/>
	<path d="M224.521,297.174c-26.974,0-42.975-20.473-42.975-46.499c0-27.376,17.627-47.85,44.463-47.85
		c28.062,0,43.377,21.014,43.377,46.223c0,30.097-18.029,48.126-44.734,48.126H224.521z M225.469,280.772
		c13.958,0,21.955-13.147,21.955-31.045c0-16.402-7.727-30.499-21.955-30.499c-14.234,0-22.231,13.827-22.231,30.908
		c0,17.212,8.267,30.637,22.093,30.637H225.469z"/>
	<path d="M282.937,205.671c7.588-1.35,17.482-2.029,27.783-2.029c17.489,0,28.879,2.846,37.555,9.485
		c9.485,7.049,15.446,18.438,15.446,34.702c0,17.489-6.369,29.55-15.045,37.007c-9.624,7.997-24.399,11.791-42.289,11.791
		c-10.711,0-18.438-0.678-23.45-1.35V205.671z M303.541,280.094c1.759,0.401,4.743,0.401,7.179,0.401
		c18.847,0.139,31.178-10.164,31.178-31.987c0-19.657-11.112-29.011-29.003-29.011c-4.472,0-7.595,0.408-9.354,0.817V280.094z"/>
	<path d="M398.015,204.321v91.358h-20.605v-91.358H398.015z"/>
	<path d="M416.576,274.534c5.422,2.846,14.097,5.691,22.91,5.691c9.485,0,14.505-3.926,14.505-10.025
		c0-5.56-4.341-8.952-15.322-12.746c-15.175-5.422-25.208-13.827-25.208-27.245c0-15.585,13.147-27.383,34.563-27.383
		c10.44,0,17.891,2.036,23.319,4.611l-4.611,16.534c-3.524-1.759-10.164-4.334-18.979-4.334c-8.945,0-13.286,4.203-13.286,8.807
		c0,5.83,5.02,8.405,16.949,13.017c16.125,5.961,23.582,14.367,23.582,27.384c0,15.315-11.659,28.331-36.73,28.331
		c-10.44,0-20.742-2.852-25.894-5.697L416.576,274.534z"/>
</g>
</svg>
