<?xml version="1.0" encoding="utf-8"?>
<!-- Generator: Adobe Illustrator 21.0.2, SVG Export Plug-In . SVG Version: 6.00 Build 0)  -->
<svg version="1.1" id="Calque_1" xmlns="http://www.w3.org/2000/svg" xmlns:xlink="http://www.w3.org/1999/xlink" x="0px" y="0px"
	 viewBox="0 0 500 74" style="enable-background:new 0 0 500 74;" xml:space="preserve">
<style type="text/css">
	.st0{fill:#1A171B;}
	.st1{fill:#1D2D28;}
</style>
<path class="st0" d="M28.1,34.1c2.3,0,4.5,0.1,6.5,0.1c3.5,0,6.3,0,8.3-0.1c-0.2,2.3-0.4,5.5-0.7,9.7c-0.2,4.2-0.4,7.4-0.4,9.5
	c-1.9,0.4-3.5,0.6-4.8,0.8c-1.3,0.2-2.8,0.3-4.6,0.4c-1.8,0.1-3.4,0.2-4.7,0.2c-2.3,0-4.5-0.2-6.7-0.5c-2.2-0.4-4.2-1-5.9-1.8
	c-1.7-0.8-3.2-1.9-4.3-3.3c-1.2-1.4-2-3.1-2.7-5c-0.6-1.9-0.9-3.9-0.9-6c0-3.4,0.8-6.6,2.5-9.5s4.1-5.2,7.3-6.9
	c3.2-1.7,7.3-2.5,12.3-2.5c3.7,0,7.7,0.5,12.2,1.4c0,2.4,0.1,5.1,0.3,8.1c-1.2-0.4-2.2-0.7-2.9-0.9c-0.8-0.2-1.6-0.4-2.6-0.6
	s-1.9-0.3-2.8-0.4s-1.7-0.1-2.4-0.1c-1.8,0-3.6,0.3-5.2,0.8s-3,1.3-4.2,2.4s-2.1,2.4-2.7,3.9s-0.9,3.1-0.9,4.8c0,1.7,0.3,3.3,1,4.6
	c0.7,1.4,1.7,2.4,3.2,3.1c1.4,0.7,3.1,1.1,4.9,1.1c1.5,0,3.1-0.2,4.9-0.7l0.3-5.4c-1.1,0-1.7-0.1-1.9-0.1h-2.6l0.2-3.1
	c0-0.3,0-0.8,0.1-1.5C28.1,36,28.1,35.2,28.1,34.1z"/>
<path class="st0" d="M47.8,54c0.4-3.9,0.7-7.2,0.9-9.7c0.3-4.5,0.6-9.1,0.8-13.6c0.2-4.5,0.3-8.2,0.3-11c2.3,0,4.3,0,6.1,0
	c1.2,0,2.9,0,5.1,0l-0.6,9.1L59.7,43l-0.1,3.5c2.9,0.1,4.8,0.1,5.6,0.1c4.4,0,7.7-0.1,10-0.2l-0.6,7.5c-4.4,0-8.6,0-12.6,0
	C56.6,54,51.9,54,47.8,54z"/>
<path class="st0" d="M85.4,54c0.2-1.4,0.4-3.7,0.6-6.9c0.2-3.2,0.3-5.5,0.3-6.9L74.8,19.7c2.5,0,4.6,0,6.2,0s3.5,0,5.7,0
	c0.7,1.7,1.6,3.7,2.7,6c1.2,2.3,2.1,4.4,2.8,6.2c1.9-3.4,3.4-6.1,4.6-8c1.2-1.9,2-3.3,2.5-4.3c2.1,0,4.2,0,6.1,0c1,0,2.9,0,5.7,0
	l-11,16.2c-2.2,3.3-3.3,5-3.3,5.1v0.2v0.3v0.2l-0.2,3.8c-0.1,2.5-0.2,5.3-0.3,8.3c-2.4,0-4.2,0-5.5,0C89.6,54,87.8,54,85.4,54z"/>
<path class="st0" d="M111.3,54l0.5-5.3l1-17.9l0.3-7.2v-3.9c2.6,0,4.9,0,6.9,0c1.4,0,3.4,0,6,0l10.8,19.5l1.5,2.9
	c0.2-2.8,0.4-6.8,0.6-11.8c0.2-5.1,0.3-8.6,0.3-10.5c2.1,0,3.7,0,4.9,0c0.6,0,2.2,0,4.9,0l-0.6,7.5l-1.1,20.8l-0.1,6
	c-2.2,0-4.2,0-6.1,0c-1.6,0-3.7,0-6.5,0c-0.9-1.6-1.5-2.8-1.9-3.6l-4.2-7.2c-1.4-2.3-2.7-4.6-3.8-6.7c-0.8-1.4-1.6-2.9-2.4-4.5
	L121.8,44l-0.3,10c-2.1,0-3.6,0-4.7,0C115.6,54,113.8,54,111.3,54z"/>
<path class="st0" d="M153.5,54l0.5-5.3l1-17.9l0.3-7.2v-3.9c2.6,0,4.9,0,6.9,0c1.4,0,3.4,0,6,0L179,39.2l1.5,2.9
	c0.2-2.8,0.4-6.8,0.6-11.8c0.2-5.1,0.3-8.6,0.3-10.5c2,0,3.7,0,4.9,0c0.6,0,2.2,0,4.9,0l-0.6,7.5l-1.1,20.8l-0.1,6
	c-2.2,0-4.2,0-6.1,0c-1.6,0-3.7,0-6.5,0c-0.9-1.6-1.5-2.8-1.9-3.6l-4.2-7.2c-1.4-2.3-2.7-4.6-3.8-6.7c-0.8-1.4-1.6-2.9-2.4-4.5
	L164,44l-0.3,10c-2.1,0-3.6,0-4.7,0C157.7,54,156,54,153.5,54z"/>
<path class="st0" d="M192.9,41.9c0.3-3,0.4-5.9,0.5-8.6c2.9,0.1,5.7,0.1,8.3,0.1s5.4,0,8.3-0.1c-0.2,2.7-0.4,5.6-0.5,8.6
	c-2.9-0.1-5.7-0.1-8.3-0.1C198.6,41.8,195.9,41.8,192.9,41.9z"/>
<path class="st0" d="M209.4,53.3c-0.2-2.9-0.3-5.7-0.6-8.4c1.9,0.7,3.4,1.2,4.6,1.5s2.2,0.4,3.2,0.4c1.1,0,2.1-0.2,3-0.6
	c0.7-0.3,1.2-0.7,1.6-1.2c0.5-0.7,0.9-1.5,1-2.5c0.3-1.7,0.6-4.7,0.7-8.9c0.2-4.2,0.2-7.8,0.2-10.9v-2.9c2.7,0,4.5,0,5.3,0
	c1.1,0,3,0,5.7,0l-0.7,11.1c-0.2,3.3-0.3,6.8-0.4,10.5c-0.1,2.9-0.2,4.8-0.4,5.9c-0.2,1-0.5,1.8-0.9,2.4c-0.3,0.6-0.8,1.2-1.2,1.7
	c-0.6,0.6-1.4,1.1-2.2,1.5c-1.2,0.6-2.4,1-3.7,1.4c-1.5,0.3-3,0.5-4.7,0.5C216.9,54.7,213.4,54.2,209.4,53.3z"/>
<path class="st0" d="M259.7,19.2c2.7,0,5.2,0.4,7.7,1.1s4.6,1.9,6.5,3.4c1.9,1.6,3.2,3.4,4.2,5.5s1.4,4.4,1.4,7.1
	c0,2.8-0.5,5.4-1.5,7.7c-1,2.3-2.5,4.3-4.4,6c-1.9,1.6-4.2,2.9-6.8,3.6c-2.6,0.8-5.4,1.1-8.2,1.1c-2.8,0-5.5-0.4-8.1-1.1
	c-2.6-0.7-4.8-1.9-6.8-3.6c-1.9-1.7-3.3-3.5-4.1-5.5s-1.2-4.3-1.2-6.8c0-3.7,0.9-6.9,2.5-9.6c1.7-2.8,4.2-4.9,7.5-6.5
	C251.7,19.9,255.5,19.2,259.7,19.2z M259.2,26.7c-1.9,0-3.7,0.5-5.2,1.4c-1.6,0.9-2.7,2.3-3.6,3.9c-0.8,1.7-1.3,3.5-1.3,5.4
	c0,1.8,0.4,3.4,1.1,4.9c0.8,1.5,1.9,2.6,3.5,3.5c1.6,0.8,3.2,1.2,4.9,1.2c1.8,0,3.5-0.5,5.1-1.4c1.5-0.9,2.7-2.2,3.5-3.9
	c0.8-1.7,1.2-3.5,1.2-5.3s-0.4-3.4-1.1-5c-0.7-1.5-1.9-2.7-3.3-3.5C262.6,27.1,261,26.7,259.2,26.7z"/>
<path class="st0" d="M283.5,54l1-13.7l0.5-10l0.1-4.5c0-1.3,0.1-2.5,0.1-3.7v-2.4c2.6,0,4.6,0,5.9,0c1,0,2.8,0,5.3,0
	c-0.4,4.8-0.7,9-0.8,12.7h13.6c0.1-1.4,0.2-3.2,0.3-5.6c0.1-2.3,0.1-3.9,0.1-4.8c0-0.5,0-1.2,0-2.4h6c0.6,0,2.4,0,5.3,0
	c-0.6,8.6-1,15-1.2,19.2c-0.2,4.2-0.3,9.2-0.3,15.1h-5.5c-0.8,0-2.8,0-5.9,0c0.4-4,0.7-8.6,0.9-13.9h-13.7l-0.4,13.9H289
	C288.2,54,286.4,54,283.5,54z"/>
<path class="st0" d="M325.5,54l0.5-5.3l1-17.9l0.3-7.2v-3.9c2.6,0,4.9,0,6.9,0c1.4,0,3.4,0,6,0L351,39.2l1.5,2.9
	c0.2-2.8,0.4-6.8,0.5-11.8c0.2-5.1,0.3-8.6,0.3-10.5c2,0,3.7,0,4.9,0c0.6,0,2.2,0,4.9,0l-0.6,7.5l-1.1,20.8l-0.1,6
	c-2.2,0-4.2,0-6.1,0c-1.6,0-3.7,0-6.5,0c-0.9-1.6-1.5-2.8-1.9-3.6l-4.2-7.2c-1.4-2.3-2.7-4.6-3.8-6.7c-0.8-1.4-1.6-2.9-2.4-4.5
	L335.8,44l-0.3,10c-2.1,0-3.6,0-4.7,0C329.7,54,328,54,325.5,54z"/>
<path class="st0" d="M367.4,53.5c-0.2-3.5-0.5-6.4-0.7-8.5c1.9,0.8,3.5,1.4,5,1.7c1.5,0.3,2.7,0.5,3.9,0.5c1.5,0,2.6-0.2,3.5-0.7
	c0.9-0.4,1.3-1.1,1.3-1.9c0-0.3,0-0.5-0.1-0.8c-0.1-0.3-0.2-0.6-0.5-0.9c-0.2-0.3-0.6-0.7-1-1.1l-4.7-4.1c-1.1-0.9-1.9-1.6-2.3-2
	c-0.9-0.9-1.6-1.6-2.1-2.4c-0.5-0.7-0.9-1.5-1.1-2.2c-0.2-0.8-0.3-1.6-0.3-2.4c0-1,0.2-2,0.5-3c0.4-1,0.9-1.9,1.6-2.7
	c0.7-0.9,1.7-1.6,2.9-2.2c1.2-0.6,2.5-1,3.8-1.3c1.4-0.2,2.8-0.3,4.2-0.3c2.8,0,5.9,0.3,9.2,1c0,1.2,0.1,2.2,0.2,3.2
	c0.1,1,0.2,2.6,0.5,5c-1.5-0.6-2.9-1.1-4.2-1.3c-1.3-0.2-2.4-0.4-3.3-0.4c-1.3,0-2.4,0.2-3.2,0.7c-0.9,0.5-1.3,1.1-1.3,1.8
	c0,0.3,0.1,0.7,0.2,1s0.4,0.7,0.8,1.1c0.4,0.4,0.9,0.9,1.5,1.4c0.6,0.5,1.5,1.3,2.8,2.3l1.8,1.4c0.5,0.4,1.1,1,1.7,1.6
	s1.2,1.2,1.6,1.8s0.8,1.1,1,1.6c0.2,0.5,0.4,1,0.5,1.5s0.2,1.1,0.2,1.6c0,1.5-0.4,2.9-1.1,4.3c-0.7,1.4-1.7,2.5-3.1,3.4
	c-1.3,0.9-2.8,1.5-4.4,1.8c-1.6,0.4-3.2,0.5-5,0.5C374.9,54.7,371.5,54.3,367.4,53.5z"/>
<path class="st0" d="M416.7,19.2c2.7,0,5.2,0.4,7.7,1.1s4.6,1.9,6.5,3.4c1.9,1.6,3.2,3.4,4.2,5.5c0.9,2.1,1.4,4.4,1.4,7.1
	c0,2.8-0.5,5.4-1.5,7.7c-1,2.3-2.5,4.3-4.4,6c-1.9,1.6-4.2,2.9-6.8,3.6c-2.6,0.8-5.4,1.1-8.2,1.1c-2.8,0-5.5-0.4-8.1-1.1
	c-2.6-0.7-4.8-1.9-6.8-3.6c-1.9-1.7-3.3-3.5-4.1-5.5c-0.8-2-1.2-4.3-1.2-6.8c0-3.7,0.9-6.9,2.5-9.6c1.7-2.8,4.2-4.9,7.5-6.5
	C408.8,19.9,412.5,19.2,416.7,19.2z M416.3,26.7c-1.9,0-3.7,0.5-5.2,1.4s-2.7,2.3-3.6,3.9c-0.8,1.7-1.3,3.5-1.3,5.4
	c0,1.8,0.4,3.4,1.1,4.9c0.8,1.5,1.9,2.6,3.5,3.5c1.5,0.8,3.2,1.2,4.9,1.2c1.9,0,3.5-0.5,5.1-1.4c1.5-0.9,2.7-2.2,3.5-3.9
	c0.8-1.7,1.2-3.5,1.2-5.3s-0.4-3.4-1.1-5c-0.8-1.5-1.9-2.7-3.3-3.5C419.7,27.1,418.1,26.7,416.3,26.7z"/>
<path class="st0" d="M440.5,54l0.5-5.3l1-17.9l0.3-7.2v-3.9c2.6,0,4.9,0,6.9,0c1.4,0,3.4,0,6,0l10.7,19.5l1.5,2.9
	c0.2-2.8,0.4-6.8,0.5-11.8c0.2-5.1,0.3-8.6,0.3-10.5c2,0,3.7,0,4.9,0c0.6,0,2.2,0,4.9,0l-0.6,7.5l-1.1,20.8l-0.2,6
	c-2.2,0-4.2,0-6.1,0c-1.6,0-3.7,0-6.5,0c-0.9-1.6-1.5-2.8-1.9-3.6l-4.2-7.2c-1.4-2.3-2.7-4.6-3.8-6.7c-0.8-1.4-1.6-2.9-2.4-4.5
	L450.7,44l-0.3,10c-2.1,0-3.6,0-4.7,0C444.8,54,443.1,54,440.5,54z"/>
<path class="st1" d="M487.1,43.1c-3.2,0-5.8,2.6-5.8,5.8c0,3.2,2.6,5.8,5.8,5.8s5.8-2.6,5.8-5.8S490.3,43.1,487.1,43.1z M487.1,53.5
	c-2.6,0-4.7-2.1-4.7-4.7s2.1-4.7,4.7-4.7s4.7,2.1,4.7,4.7S489.7,53.5,487.1,53.5z"/>
<path class="st1" d="M485,45.4c0.4-0.1,1.1-0.1,1.7-0.1c0.9,0,1.6,0.2,2,0.6c0.3,0.3,0.5,0.8,0.5,1.3c0,0.9-0.6,1.5-1.3,1.8l0,0
	c0.5,0.2,0.8,0.7,1,1.4c0.2,1,0.4,1.6,0.5,1.9h-0.9c-0.1-0.2-0.3-0.8-0.5-1.6c-0.2-0.9-0.6-1.3-1.4-1.3h-0.8v3H485V45.4z
	 M485.9,48.5h0.9c0.9,0,1.5-0.5,1.5-1.3c0-0.9-0.6-1.3-1.6-1.3c-0.4,0-0.7,0-0.9,0.1v2.5H485.9z"/>
</svg>
