<?xml version="1.0" encoding="utf-8"?>
<!-- Generator: Adobe Illustrator 15.0.0, SVG Export Plug-In . SVG Version: 6.00 Build 0)  -->
<!DOCTYPE svg PUBLIC "-//W3C//DTD SVG 1.1//EN" "http://www.w3.org/Graphics/SVG/1.1/DTD/svg11.dtd">
<svg version="1.1" id="Calque_1" xmlns="http://www.w3.org/2000/svg" xmlns:xlink="http://www.w3.org/1999/xlink" x="0px" y="0px"
	 width="500px" height="500px" viewBox="0 0 500 500" enable-background="new 0 0 500 500" xml:space="preserve">
<g id="Nouveau_symbole">
</g>
<g>
	<path fill="#1A171B" d="M29.436,248.597c2.288,0.034,4.467,0.055,6.543,0.055c3.549,0,6.324-0.021,8.338-0.055
		c-0.219,2.288-0.438,5.536-0.658,9.742c-0.233,4.199-0.37,7.379-0.418,9.516c-1.925,0.35-3.515,0.597-4.782,0.754
		c-1.267,0.157-2.775,0.295-4.556,0.418c-1.774,0.124-3.351,0.179-4.741,0.179c-2.274,0-4.508-0.179-6.7-0.549
		c-2.192-0.363-4.152-0.959-5.885-1.781c-1.727-0.814-3.172-1.932-4.33-3.329c-1.158-1.411-2.048-3.076-2.665-4.995
		c-0.63-1.925-0.945-3.911-0.945-5.967c0-3.398,0.842-6.557,2.535-9.468c1.692-2.912,4.124-5.221,7.303-6.913
		c3.172-1.699,7.276-2.542,12.305-2.542c3.659,0,7.722,0.452,12.182,1.356c0,2.425,0.096,5.118,0.301,8.084
		c-1.199-0.411-2.179-0.712-2.918-0.932c-0.753-0.212-1.624-0.411-2.617-0.589c-1-0.171-1.946-0.301-2.836-0.391
		c-0.905-0.082-1.7-0.13-2.405-0.13c-1.843,0-3.583,0.274-5.228,0.794c-1.637,0.535-3.042,1.343-4.227,2.439
		c-1.186,1.103-2.062,2.412-2.652,3.933c-0.589,1.528-0.877,3.138-0.877,4.823c0,1.727,0.329,3.275,1,4.617
		c0.671,1.356,1.727,2.378,3.193,3.083c1.445,0.699,3.069,1.056,4.864,1.056c1.494,0,3.118-0.233,4.892-0.686l0.26-5.364
		c-1.082-0.041-1.726-0.062-1.932-0.062l-2.645,0.027l0.171-3.097c0.014-0.336,0.035-0.822,0.076-1.452
		C29.416,250.542,29.436,249.693,29.436,248.597z"/>
	<path fill="#1A171B" d="M49.14,268.533c0.411-3.946,0.699-7.166,0.877-9.667c0.335-4.542,0.589-9.063,0.768-13.558
		c0.164-4.494,0.26-8.167,0.26-11.03c2.274,0.027,4.289,0.048,6.057,0.048c1.192,0,2.897-0.021,5.125-0.048l-0.589,9.105
		l-0.727,14.243l-0.096,3.494c2.877,0.055,4.755,0.082,5.618,0.082c4.406,0,7.728-0.062,9.989-0.178l-0.555,7.509
		c-4.405-0.034-8.584-0.048-12.572-0.048C57.91,268.485,53.182,268.499,49.14,268.533z"/>
	<path fill="#1A171B" d="M86.698,268.533c0.164-1.356,0.37-3.651,0.603-6.893c0.233-3.247,0.343-5.535,0.343-6.871l-11.51-20.492
		c2.535,0.027,4.618,0.048,6.248,0.048c1.576,0,3.46-0.021,5.652-0.048c0.672,1.685,1.583,3.686,2.727,6.015
		c1.15,2.336,2.089,4.419,2.815,6.248c1.905-3.412,3.446-6.077,4.611-7.988c1.165-1.904,1.994-3.336,2.5-4.275
		c2.138,0.027,4.179,0.048,6.146,0.048c1.042,0,2.926-0.021,5.667-0.048l-11.031,16.25c-2.192,3.255-3.289,4.953-3.289,5.111
		l-0.021,0.239v0.254l-0.02,0.246l-0.165,3.81c-0.109,2.521-0.198,5.31-0.26,8.345c-2.371-0.034-4.193-0.048-5.481-0.048
		C90.912,268.485,89.061,268.499,86.698,268.533z"/>
	<path fill="#1A171B" d="M112.602,268.533l0.493-5.275l0.966-17.861l0.274-7.201v-3.918c2.596,0.027,4.892,0.048,6.892,0.048
		c1.425,0,3.426-0.021,6.001-0.048l10.756,19.492l1.487,2.863c0.178-2.816,0.363-6.762,0.555-11.832
		c0.185-5.07,0.274-8.585,0.274-10.523c2.055,0.027,3.7,0.048,4.933,0.048c0.562,0,2.206-0.021,4.905-0.048l-0.596,7.481
		l-1.117,20.772l-0.144,6.002c-2.171-0.034-4.213-0.048-6.104-0.048c-1.576,0-3.741,0.014-6.522,0.048
		c-0.877-1.645-1.514-2.829-1.932-3.569l-4.214-7.159c-1.391-2.344-2.679-4.591-3.844-6.729c-0.767-1.363-1.562-2.85-2.37-4.473
		l-0.548,11.907l-0.261,10.023c-2.062-0.034-3.638-0.048-4.72-0.048C116.85,268.485,115.124,268.499,112.602,268.533z"/>
	<path fill="#1A171B" d="M154.757,268.533l0.494-5.275l0.959-17.861l0.273-7.201v-3.918c2.604,0.027,4.899,0.048,6.893,0.048
		c1.425,0,3.425-0.021,6.008-0.048l10.75,19.492l1.486,2.863c0.185-2.816,0.363-6.762,0.555-11.832
		c0.192-5.07,0.281-8.585,0.281-10.523c2.049,0.027,3.693,0.048,4.927,0.048c0.575,0,2.206-0.021,4.905-0.048l-0.59,7.481
		l-1.124,20.772l-0.137,6.002c-2.178-0.034-4.213-0.048-6.111-0.048c-1.569,0-3.747,0.014-6.522,0.048
		c-0.863-1.645-1.514-2.829-1.932-3.569l-4.207-7.159c-1.391-2.344-2.672-4.591-3.837-6.729c-0.774-1.363-1.562-2.85-2.384-4.473
		l-0.541,11.907l-0.254,10.023c-2.069-0.034-3.645-0.048-4.734-0.048C158.991,268.485,157.278,268.499,154.757,268.533z"/>
	<path fill="#1A171B" d="M194.247,256.435c0.254-3.015,0.404-5.893,0.473-8.646c2.912,0.089,5.679,0.13,8.269,0.13
		c2.631,0,5.398-0.041,8.303-0.13c-0.246,2.686-0.404,5.57-0.465,8.646c-2.926-0.083-5.687-0.124-8.304-0.124
		C199.913,256.311,197.152,256.352,194.247,256.435z"/>
	<path fill="#1A171B" d="M210.703,267.854c-0.151-2.87-0.329-5.665-0.555-8.399c1.884,0.733,3.398,1.22,4.556,1.474
		c1.165,0.26,2.233,0.384,3.234,0.384c1.117,0,2.117-0.206,3-0.61c0.658-0.321,1.192-0.733,1.576-1.24
		c0.514-0.712,0.87-1.534,1.048-2.479c0.315-1.706,0.555-4.659,0.713-8.866c0.158-4.192,0.24-7.831,0.24-10.9v-2.939
		c2.671,0.027,4.453,0.048,5.337,0.048c1.103,0,2.994-0.021,5.666-0.048l-0.747,11.119c-0.185,3.282-0.308,6.783-0.404,10.482
		c-0.055,2.857-0.205,4.803-0.424,5.865c-0.199,0.952-0.48,1.761-0.85,2.411c-0.329,0.623-0.754,1.171-1.247,1.665
		c-0.616,0.582-1.357,1.096-2.22,1.534c-1.179,0.603-2.426,1.049-3.734,1.357c-1.453,0.328-3.007,0.493-4.652,0.493
		C218.185,269.205,214.677,268.752,210.703,267.854z"/>
	<path fill="#1A171B" d="M260.977,233.661c2.672,0,5.248,0.356,7.715,1.076c2.479,0.719,4.645,1.87,6.494,3.446
		c1.857,1.589,3.248,3.398,4.166,5.46s1.384,4.426,1.384,7.105c0,2.809-0.507,5.385-1.521,7.741
		c-1.015,2.343-2.474,4.337-4.378,5.975c-1.912,1.644-4.173,2.85-6.824,3.604c-2.638,0.761-5.378,1.138-8.242,1.138
		c-2.822,0-5.535-0.363-8.125-1.11c-2.59-0.74-4.837-1.945-6.755-3.617c-1.912-1.658-3.261-3.508-4.07-5.55
		c-0.801-2.042-1.206-4.31-1.206-6.803c0-3.666,0.85-6.885,2.549-9.646c1.699-2.768,4.206-4.933,7.543-6.488
		C253.043,234.436,256.797,233.661,260.977,233.661z M260.525,241.19c-1.925,0-3.658,0.473-5.207,1.418
		c-1.555,0.945-2.747,2.261-3.576,3.946c-0.843,1.685-1.261,3.494-1.261,5.418c0,1.774,0.377,3.405,1.145,4.886
		c0.754,1.473,1.911,2.624,3.46,3.452c1.562,0.829,3.206,1.247,4.939,1.247c1.843,0,3.549-0.466,5.09-1.397
		c1.549-0.925,2.728-2.233,3.535-3.919c0.809-1.686,1.213-3.453,1.213-5.303c0-1.788-0.376-3.439-1.131-4.96
		c-0.746-1.521-1.85-2.699-3.302-3.535S262.347,241.19,260.525,241.19z"/>
	<path fill="#1A171B" d="M284.839,268.533l0.993-13.702l0.452-9.989l0.124-4.454c0.041-1.274,0.055-2.514,0.055-3.699l-0.027-2.412
		c2.617,0.027,4.583,0.048,5.878,0.048c1.014,0,2.788-0.021,5.303-0.048c-0.397,4.795-0.657,9.03-0.768,12.716h13.648
		c0.096-1.371,0.178-3.234,0.26-5.57c0.082-2.336,0.109-3.933,0.109-4.789c0-0.453-0.007-1.24-0.041-2.357l5.954,0.048
		c0.623,0,2.391-0.021,5.282-0.048c-0.631,8.591-1.028,14.99-1.206,19.183c-0.171,4.192-0.261,9.215-0.261,15.072l-5.453-0.048
		c-0.809,0-2.769,0.014-5.857,0.048c0.432-3.974,0.712-8.604,0.87-13.887h-13.729l-0.398,13.887l-5.815-0.048
		C289.471,268.485,287.683,268.499,284.839,268.533z"/>
	<path fill="#1A171B" d="M326.803,268.533l0.492-5.275l0.973-17.861l0.274-7.201v-3.918c2.59,0.027,4.898,0.048,6.886,0.048
		c1.418,0,3.433-0.021,6.008-0.048l10.757,19.492l1.487,2.863c0.171-2.816,0.355-6.762,0.541-11.832
		c0.191-5.07,0.294-8.585,0.294-10.523c2.049,0.027,3.692,0.048,4.912,0.048c0.569,0,2.22-0.021,4.912-0.048l-0.596,7.481
		l-1.109,20.772l-0.145,6.002c-2.179-0.034-4.22-0.048-6.104-0.048c-1.569,0-3.748,0.014-6.522,0.048
		c-0.87-1.645-1.521-2.829-1.933-3.569l-4.22-7.159c-1.384-2.344-2.672-4.591-3.837-6.729c-0.767-1.363-1.562-2.85-2.37-4.473
		l-0.556,11.907l-0.253,10.023c-2.062-0.034-3.638-0.048-4.728-0.048C331.05,268.485,329.323,268.499,326.803,268.533z"/>
	<path fill="#1A171B" d="M368.669,268.04c-0.219-3.549-0.479-6.393-0.746-8.523c1.87,0.837,3.534,1.419,5.001,1.741
		c1.459,0.321,2.747,0.486,3.857,0.486c1.459,0,2.617-0.213,3.474-0.651c0.862-0.432,1.294-1.068,1.294-1.918
		c0-0.288-0.04-0.548-0.122-0.815c-0.083-0.254-0.247-0.555-0.48-0.884c-0.232-0.322-0.562-0.672-1.007-1.062l-4.728-4.118
		c-1.116-0.932-1.884-1.616-2.315-2.028c-0.897-0.856-1.597-1.644-2.076-2.384c-0.5-0.733-0.856-1.487-1.089-2.247
		c-0.227-0.754-0.336-1.569-0.336-2.418c0-1.021,0.179-2.021,0.527-2.994c0.363-0.987,0.911-1.898,1.631-2.747
		c0.713-0.857,1.665-1.597,2.851-2.213c1.198-0.617,2.466-1.041,3.815-1.267c1.363-0.227,2.755-0.336,4.187-0.336
		c2.829,0,5.905,0.329,9.228,0.986c0.049,1.151,0.117,2.207,0.179,3.166c0.075,0.952,0.233,2.638,0.473,5.042
		c-1.535-0.624-2.933-1.055-4.206-1.302c-1.269-0.247-2.357-0.363-3.289-0.363c-1.302,0-2.384,0.24-3.241,0.733
		c-0.862,0.487-1.294,1.096-1.294,1.816c0,0.335,0.068,0.665,0.198,0.979c0.137,0.329,0.391,0.699,0.761,1.124
		c0.37,0.425,0.856,0.891,1.452,1.398c0.604,0.514,1.549,1.274,2.843,2.274l1.803,1.425c0.548,0.438,1.123,0.959,1.733,1.59
		c0.63,0.616,1.164,1.233,1.616,1.836s0.795,1.144,1.042,1.65c0.246,0.501,0.432,1.008,0.534,1.515
		c0.13,0.514,0.171,1.055,0.171,1.645c0,1.507-0.355,2.939-1.068,4.302c-0.72,1.371-1.733,2.487-3.069,3.364
		c-1.315,0.877-2.762,1.487-4.351,1.843c-1.576,0.356-3.241,0.521-5.002,0.521C376.212,269.205,372.801,268.821,368.669,268.04z"/>
	<path fill="#1A171B" d="M418.026,233.661c2.671,0,5.24,0.356,7.721,1.076c2.467,0.719,4.631,1.87,6.488,3.446
		c1.856,1.589,3.247,3.398,4.158,5.46c0.925,2.062,1.384,4.426,1.384,7.105c0,2.809-0.5,5.385-1.521,7.741
		c-1.007,2.343-2.467,4.337-4.371,5.975c-1.904,1.644-4.173,2.85-6.817,3.604c-2.644,0.761-5.392,1.138-8.248,1.138
		c-2.823,0-5.529-0.363-8.119-1.11c-2.59-0.74-4.844-1.945-6.762-3.617c-1.904-1.658-3.269-3.508-4.063-5.55
		c-0.801-2.042-1.205-4.31-1.205-6.803c0-3.666,0.85-6.885,2.542-9.646c1.692-2.768,4.213-4.933,7.55-6.488
		C410.084,234.436,413.846,233.661,418.026,233.661z M417.566,241.19c-1.918,0-3.651,0.473-5.2,1.418
		c-1.548,0.945-2.747,2.261-3.583,3.946c-0.835,1.685-1.254,3.494-1.254,5.418c0,1.774,0.37,3.405,1.145,4.886
		c0.754,1.473,1.918,2.624,3.467,3.452c1.548,0.829,3.199,1.247,4.933,1.247c1.85,0,3.549-0.466,5.098-1.397
		c1.541-0.925,2.713-2.233,3.528-3.919c0.808-1.686,1.22-3.453,1.22-5.303c0-1.788-0.377-3.439-1.124-4.96
		c-0.754-1.521-1.85-2.699-3.316-3.535C421.026,241.608,419.395,241.19,417.566,241.19z"/>
	<path fill="#1A171B" d="M441.832,268.533l0.494-5.275l0.973-17.861l0.268-7.201v-3.918c2.596,0.027,4.897,0.048,6.885,0.048
		c1.432,0,3.433-0.021,6.016-0.048l10.749,19.492l1.493,2.863c0.172-2.816,0.356-6.762,0.541-11.832
		c0.192-5.07,0.288-8.585,0.288-10.523c2.049,0.027,3.693,0.048,4.927,0.048c0.568,0,2.206-0.021,4.898-0.048l-0.597,7.481
		l-1.103,20.772l-0.158,6.002c-2.172-0.034-4.199-0.048-6.09-0.048c-1.576,0-3.748,0.014-6.536,0.048
		c-0.863-1.645-1.515-2.829-1.933-3.569l-4.206-7.159c-1.391-2.344-2.672-4.591-3.837-6.729c-0.774-1.363-1.562-2.85-2.377-4.473
		l-0.549,11.907l-0.253,10.023c-2.069-0.034-3.646-0.048-4.741-0.048C446.08,268.485,444.354,268.499,441.832,268.533z"/>
</g>
<g>
	<path fill="#1D2D28" d="M488.448,257.578c-3.206,0-5.796,2.597-5.796,5.789c0,3.207,2.59,5.796,5.796,5.796
		c3.192,0,5.783-2.589,5.783-5.796C494.231,260.175,491.64,257.578,488.448,257.578z M488.448,268.054
		c-2.59,0-4.686-2.097-4.686-4.687c0-2.575,2.096-4.672,4.686-4.672c2.576,0,4.673,2.097,4.673,4.672
		C493.12,265.957,491.024,268.054,488.448,268.054z"/>
</g>
<text transform="matrix(1 0 0 1 485.592 266.6602)" fill="#1D2D28" font-family="'Myriad-Roman'" font-size="10.1729">R</text>
</svg>
