<?xml version="1.0" encoding="utf-8"?>
<!-- Generator: Adobe Illustrator 19.1.0, SVG Export Plug-In . SVG Version: 6.00 Build 0)  -->
<svg version="1.1" id="Calque_1" xmlns="http://www.w3.org/2000/svg" xmlns:xlink="http://www.w3.org/1999/xlink" x="0px" y="0px"
	 viewBox="-345 170.9 500 500" style="enable-background:new -345 170.9 500 500;" xml:space="preserve">
<style type="text/css">
	.st0{fill:#1A171B;}
	.st1{fill:#1D2D28;}
	.st2{font-family:'MyriadPro-Regular';}
	.st3{font-size:10.1729px;}
</style>
<path class="st0" d="M-315.6,419.5c2.3,0,4.5,0.1,6.5,0.1c3.5,0,6.3,0,8.3-0.1c-0.2,2.3-0.4,5.5-0.7,9.7c-0.2,4.2-0.4,7.4-0.4,9.5
	c-1.9,0.4-3.5,0.6-4.8,0.8c-1.3,0.2-2.8,0.3-4.6,0.4c-1.8,0.1-3.4,0.2-4.7,0.2c-2.3,0-4.5-0.2-6.7-0.5c-2.2-0.4-4.2-1-5.9-1.8
	c-1.7-0.8-3.2-1.9-4.3-3.3c-1.2-1.4-2-3.1-2.7-5c-0.6-1.9-0.9-3.9-0.9-6c0-3.4,0.8-6.6,2.5-9.5c1.7-2.9,4.1-5.2,7.3-6.9
	c3.2-1.7,7.3-2.5,12.3-2.5c3.7,0,7.7,0.5,12.2,1.4c0,2.4,0.1,5.1,0.3,8.1c-1.2-0.4-2.2-0.7-2.9-0.9c-0.8-0.2-1.6-0.4-2.6-0.6
	c-1-0.2-1.9-0.3-2.8-0.4c-0.9-0.1-1.7-0.1-2.4-0.1c-1.8,0-3.6,0.3-5.2,0.8c-1.6,0.5-3,1.3-4.2,2.4c-1.2,1.1-2.1,2.4-2.7,3.9
	c-0.6,1.5-0.9,3.1-0.9,4.8c0,1.7,0.3,3.3,1,4.6c0.7,1.4,1.7,2.4,3.2,3.1c1.4,0.7,3.1,1.1,4.9,1.1c1.5,0,3.1-0.2,4.9-0.7l0.3-5.4
	c-1.1,0-1.7-0.1-1.9-0.1l-2.6,0l0.2-3.1c0-0.3,0-0.8,0.1-1.5C-315.6,421.4-315.6,420.6-315.6,419.5z"/>
<path class="st0" d="M-295.9,439.4c0.4-3.9,0.7-7.2,0.9-9.7c0.3-4.5,0.6-9.1,0.8-13.6c0.2-4.5,0.3-8.2,0.3-11c2.3,0,4.3,0,6.1,0
	c1.2,0,2.9,0,5.1,0l-0.6,9.1l-0.7,14.2l-0.1,3.5c2.9,0.1,4.8,0.1,5.6,0.1c4.4,0,7.7-0.1,10-0.2l-0.6,7.5c-4.4,0-8.6,0-12.6,0
	C-287.1,439.4-291.8,439.4-295.9,439.4z"/>
<path class="st0" d="M-258.3,439.4c0.2-1.4,0.4-3.7,0.6-6.9c0.2-3.2,0.3-5.5,0.3-6.9l-11.5-20.5c2.5,0,4.6,0,6.2,0
	c1.6,0,3.5,0,5.7,0c0.7,1.7,1.6,3.7,2.7,6c1.2,2.3,2.1,4.4,2.8,6.2c1.9-3.4,3.4-6.1,4.6-8c1.2-1.9,2-3.3,2.5-4.3c2.1,0,4.2,0,6.1,0
	c1,0,2.9,0,5.7,0l-11,16.2c-2.2,3.3-3.3,5-3.3,5.1l0,0.2v0.3l0,0.2l-0.2,3.8c-0.1,2.5-0.2,5.3-0.3,8.3c-2.4,0-4.2,0-5.5,0
	C-254.1,439.4-255.9,439.4-258.3,439.4z"/>
<path class="st0" d="M-232.4,439.4l0.5-5.3l1-17.9l0.3-7.2v-3.9c2.6,0,4.9,0,6.9,0c1.4,0,3.4,0,6,0l10.8,19.5l1.5,2.9
	c0.2-2.8,0.4-6.8,0.6-11.8c0.2-5.1,0.3-8.6,0.3-10.5c2.1,0,3.7,0,4.9,0c0.6,0,2.2,0,4.9,0l-0.6,7.5l-1.1,20.8l-0.1,6
	c-2.2,0-4.2,0-6.1,0c-1.6,0-3.7,0-6.5,0c-0.9-1.6-1.5-2.8-1.9-3.6l-4.2-7.2c-1.4-2.3-2.7-4.6-3.8-6.7c-0.8-1.4-1.6-2.9-2.4-4.5
	l-0.5,11.9l-0.3,10c-2.1,0-3.6,0-4.7,0C-228.1,439.4-229.9,439.4-232.4,439.4z"/>
<path class="st0" d="M-190.2,439.4l0.5-5.3l1-17.9l0.3-7.2v-3.9c2.6,0,4.9,0,6.9,0c1.4,0,3.4,0,6,0l10.8,19.5l1.5,2.9
	c0.2-2.8,0.4-6.8,0.6-11.8c0.2-5.1,0.3-8.6,0.3-10.5c2,0,3.7,0,4.9,0c0.6,0,2.2,0,4.9,0l-0.6,7.5l-1.1,20.8l-0.1,6
	c-2.2,0-4.2,0-6.1,0c-1.6,0-3.7,0-6.5,0c-0.9-1.6-1.5-2.8-1.9-3.6l-4.2-7.2c-1.4-2.3-2.7-4.6-3.8-6.7c-0.8-1.4-1.6-2.9-2.4-4.5
	l-0.5,11.9l-0.3,10c-2.1,0-3.6,0-4.7,0C-186,439.4-187.7,439.4-190.2,439.4z"/>
<path class="st0" d="M-150.8,427.3c0.3-3,0.4-5.9,0.5-8.6c2.9,0.1,5.7,0.1,8.3,0.1c2.6,0,5.4,0,8.3-0.1c-0.2,2.7-0.4,5.6-0.5,8.6
	c-2.9-0.1-5.7-0.1-8.3-0.1C-145.1,427.2-147.8,427.2-150.8,427.3z"/>
<path class="st0" d="M-134.3,438.7c-0.2-2.9-0.3-5.7-0.6-8.4c1.9,0.7,3.4,1.2,4.6,1.5c1.2,0.3,2.2,0.4,3.2,0.4c1.1,0,2.1-0.2,3-0.6
	c0.7-0.3,1.2-0.7,1.6-1.2c0.5-0.7,0.9-1.5,1-2.5c0.3-1.7,0.6-4.7,0.7-8.9c0.2-4.2,0.2-7.8,0.2-10.9v-2.9c2.7,0,4.5,0,5.3,0
	c1.1,0,3,0,5.7,0l-0.7,11.1c-0.2,3.3-0.3,6.8-0.4,10.5c-0.1,2.9-0.2,4.8-0.4,5.9c-0.2,1-0.5,1.8-0.9,2.4c-0.3,0.6-0.8,1.2-1.2,1.7
	c-0.6,0.6-1.4,1.1-2.2,1.5c-1.2,0.6-2.4,1-3.7,1.4c-1.5,0.3-3,0.5-4.7,0.5C-126.8,440.1-130.3,439.6-134.3,438.7z"/>
<path class="st0" d="M-84,404.6c2.7,0,5.2,0.4,7.7,1.1c2.5,0.7,4.6,1.9,6.5,3.4c1.9,1.6,3.2,3.4,4.2,5.5s1.4,4.4,1.4,7.1
	c0,2.8-0.5,5.4-1.5,7.7c-1,2.3-2.5,4.3-4.4,6c-1.9,1.6-4.2,2.9-6.8,3.6c-2.6,0.8-5.4,1.1-8.2,1.1c-2.8,0-5.5-0.4-8.1-1.1
	c-2.6-0.7-4.8-1.9-6.8-3.6c-1.9-1.7-3.3-3.5-4.1-5.5c-0.8-2-1.2-4.3-1.2-6.8c0-3.7,0.9-6.9,2.5-9.6c1.7-2.8,4.2-4.9,7.5-6.5
	C-92,405.3-88.2,404.6-84,404.6z M-84.5,412.1c-1.9,0-3.7,0.5-5.2,1.4c-1.6,0.9-2.7,2.3-3.6,3.9c-0.8,1.7-1.3,3.5-1.3,5.4
	c0,1.8,0.4,3.4,1.1,4.9c0.8,1.5,1.9,2.6,3.5,3.5c1.6,0.8,3.2,1.2,4.9,1.2c1.8,0,3.5-0.5,5.1-1.4c1.5-0.9,2.7-2.2,3.5-3.9
	c0.8-1.7,1.2-3.5,1.2-5.3c0-1.8-0.4-3.4-1.1-5c-0.7-1.5-1.9-2.7-3.3-3.5S-82.7,412.1-84.5,412.1z"/>
<path class="st0" d="M-60.2,439.4l1-13.7l0.5-10l0.1-4.5c0-1.3,0.1-2.5,0.1-3.7l0-2.4c2.6,0,4.6,0,5.9,0c1,0,2.8,0,5.3,0
	c-0.4,4.8-0.7,9-0.8,12.7h13.6c0.1-1.4,0.2-3.2,0.3-5.6c0.1-2.3,0.1-3.9,0.1-4.8c0-0.5,0-1.2,0-2.4l6,0c0.6,0,2.4,0,5.3,0
	c-0.6,8.6-1,15-1.2,19.2c-0.2,4.2-0.3,9.2-0.3,15.1l-5.5,0c-0.8,0-2.8,0-5.9,0c0.4-4,0.7-8.6,0.9-13.9h-13.7l-0.4,13.9l-5.8,0
	C-55.5,439.4-57.3,439.4-60.2,439.4z"/>
<path class="st0" d="M-18.2,439.4l0.5-5.3l1-17.9l0.3-7.2v-3.9c2.6,0,4.9,0,6.9,0c1.4,0,3.4,0,6,0l10.8,19.5l1.5,2.9
	c0.2-2.8,0.4-6.8,0.5-11.8c0.2-5.1,0.3-8.6,0.3-10.5c2,0,3.7,0,4.9,0c0.6,0,2.2,0,4.9,0l-0.6,7.5l-1.1,20.8l-0.1,6
	c-2.2,0-4.2,0-6.1,0c-1.6,0-3.7,0-6.5,0c-0.9-1.6-1.5-2.8-1.9-3.6l-4.2-7.2c-1.4-2.3-2.7-4.6-3.8-6.7c-0.8-1.4-1.6-2.9-2.4-4.5
	l-0.6,11.9l-0.3,10c-2.1,0-3.6,0-4.7,0C-14,439.4-15.7,439.4-18.2,439.4z"/>
<path class="st0" d="M23.7,438.9c-0.2-3.5-0.5-6.4-0.7-8.5c1.9,0.8,3.5,1.4,5,1.7c1.5,0.3,2.7,0.5,3.9,0.5c1.5,0,2.6-0.2,3.5-0.7
	c0.9-0.4,1.3-1.1,1.3-1.9c0-0.3,0-0.5-0.1-0.8c-0.1-0.3-0.2-0.6-0.5-0.9c-0.2-0.3-0.6-0.7-1-1.1l-4.7-4.1c-1.1-0.9-1.9-1.6-2.3-2
	c-0.9-0.9-1.6-1.6-2.1-2.4c-0.5-0.7-0.9-1.5-1.1-2.2c-0.2-0.8-0.3-1.6-0.3-2.4c0-1,0.2-2,0.5-3c0.4-1,0.9-1.9,1.6-2.7
	c0.7-0.9,1.7-1.6,2.9-2.2c1.2-0.6,2.5-1,3.8-1.3c1.4-0.2,2.8-0.3,4.2-0.3c2.8,0,5.9,0.3,9.2,1c0,1.2,0.1,2.2,0.2,3.2
	c0.1,1,0.2,2.6,0.5,5c-1.5-0.6-2.9-1.1-4.2-1.3c-1.3-0.2-2.4-0.4-3.3-0.4c-1.3,0-2.4,0.2-3.2,0.7c-0.9,0.5-1.3,1.1-1.3,1.8
	c0,0.3,0.1,0.7,0.2,1c0.1,0.3,0.4,0.7,0.8,1.1c0.4,0.4,0.9,0.9,1.5,1.4c0.6,0.5,1.5,1.3,2.8,2.3l1.8,1.4c0.5,0.4,1.1,1,1.7,1.6
	c0.6,0.6,1.2,1.2,1.6,1.8s0.8,1.1,1,1.6c0.2,0.5,0.4,1,0.5,1.5c0.1,0.5,0.2,1.1,0.2,1.6c0,1.5-0.4,2.9-1.1,4.3
	c-0.7,1.4-1.7,2.5-3.1,3.4c-1.3,0.9-2.8,1.5-4.4,1.8c-1.6,0.4-3.2,0.5-5,0.5C31.2,440.1,27.8,439.7,23.7,438.9z"/>
<path class="st0" d="M73,404.6c2.7,0,5.2,0.4,7.7,1.1c2.5,0.7,4.6,1.9,6.5,3.4c1.9,1.6,3.2,3.4,4.2,5.5c0.9,2.1,1.4,4.4,1.4,7.1
	c0,2.8-0.5,5.4-1.5,7.7c-1,2.3-2.5,4.3-4.4,6c-1.9,1.6-4.2,2.9-6.8,3.6c-2.6,0.8-5.4,1.1-8.2,1.1c-2.8,0-5.5-0.4-8.1-1.1
	c-2.6-0.7-4.8-1.9-6.8-3.6c-1.9-1.7-3.3-3.5-4.1-5.5c-0.8-2-1.2-4.3-1.2-6.8c0-3.7,0.9-6.9,2.5-9.6c1.7-2.8,4.2-4.9,7.5-6.5
	C65.1,405.3,68.8,404.6,73,404.6z M72.6,412.1c-1.9,0-3.7,0.5-5.2,1.4c-1.5,0.9-2.7,2.3-3.6,3.9c-0.8,1.7-1.3,3.5-1.3,5.4
	c0,1.8,0.4,3.4,1.1,4.9c0.8,1.5,1.9,2.6,3.5,3.5c1.5,0.8,3.2,1.2,4.9,1.2c1.9,0,3.5-0.5,5.1-1.4c1.5-0.9,2.7-2.2,3.5-3.9
	c0.8-1.7,1.2-3.5,1.2-5.3c0-1.8-0.4-3.4-1.1-5c-0.8-1.5-1.9-2.7-3.3-3.5C76,412.5,74.4,412.1,72.6,412.1z"/>
<path class="st0" d="M96.8,439.4l0.5-5.3l1-17.9l0.3-7.2v-3.9c2.6,0,4.9,0,6.9,0c1.4,0,3.4,0,6,0l10.7,19.5l1.5,2.9
	c0.2-2.8,0.4-6.8,0.5-11.8c0.2-5.1,0.3-8.6,0.3-10.5c2,0,3.7,0,4.9,0c0.6,0,2.2,0,4.9,0l-0.6,7.5l-1.1,20.8l-0.2,6
	c-2.2,0-4.2,0-6.1,0c-1.6,0-3.7,0-6.5,0c-0.9-1.6-1.5-2.8-1.9-3.6l-4.2-7.2c-1.4-2.3-2.7-4.6-3.8-6.7c-0.8-1.4-1.6-2.9-2.4-4.5
	l-0.5,11.9l-0.3,10c-2.1,0-3.6,0-4.7,0C101.1,439.4,99.4,439.4,96.8,439.4z"/>
<path class="st1" d="M143.4,428.5c-3.2,0-5.8,2.6-5.8,5.8c0,3.2,2.6,5.8,5.8,5.8c3.2,0,5.8-2.6,5.8-5.8
	C149.2,431.1,146.6,428.5,143.4,428.5z M143.4,438.9c-2.6,0-4.7-2.1-4.7-4.7c0-2.6,2.1-4.7,4.7-4.7c2.6,0,4.7,2.1,4.7,4.7
	C148.1,436.8,146,438.9,143.4,438.9z"/>
<text transform="matrix(1 0 0 1 140.592 437.5502)" class="st1 st2 st3">R</text>
</svg>
