<?xml version="1.0" encoding="utf-8"?>
<!-- Generator: Adobe Illustrator 16.0.0, SVG Export Plug-In . SVG Version: 6.00 Build 0)  -->
<!DOCTYPE svg PUBLIC "-//W3C//DTD SVG 1.1//EN" "http://www.w3.org/Graphics/SVG/1.1/DTD/svg11.dtd">
<svg version="1.1" id="Calque_1" xmlns="http://www.w3.org/2000/svg" xmlns:xlink="http://www.w3.org/1999/xlink" x="0px" y="0px"
	 width="500px" height="500px" viewBox="0 0 500 500" enable-background="new 0 0 500 500" xml:space="preserve">
<g>
	<path fill="#9C9E9F" stroke="#000000" stroke-width="0.25" stroke-miterlimit="10" d="M66.079,247.974
		c-0.993,5.067-2.161,9.39-6.348,13.712c-4.613,4.75-10.651,6.82-17.093,6.82c-12.114,0-19.247-7.418-17.328-18.325
		c1.98-11.274,11.767-18.687,24.188-18.687c7.925,0,13.491,3.223,15.673,9.713l-10.14,3.591c-0.798-3.314-3.322-5.523-7.359-5.523
		c-6.596,0-11.015,5.66-11.943,10.954c-0.947,5.385,1.667,10.859,8.261,10.859c4.347,0,8.024-2.017,9.137-6.03h-8.179l1.246-7.084
		H66.079z"/>
	<path fill="#9C9E9F" stroke="#000000" stroke-width="0.25" stroke-miterlimit="10" d="M112.147,249.353
		c-1.975,11.234-12.312,19.153-24.682,19.153c-12.368,0-19.922-7.919-17.95-19.153c1.844-10.495,13.363-17.859,24.455-17.859
		C105.06,231.494,113.991,238.858,112.147,249.353z M79.935,249.398c-1.051,5.99,3.087,10.355,9.067,10.355
		c5.982,0,11.658-4.365,12.709-10.355c0.84-4.787-3.298-9.158-9.278-9.158C86.451,240.241,80.776,244.611,79.935,249.398z"/>
	<path fill="#9C9E9F" stroke="#000000" stroke-width="0.25" stroke-miterlimit="10" d="M129.43,240.286l-1.02,5.798h11.298
		l-1.345,7.639h-11.295l-1.051,5.988h11.909l-1.342,7.642h-21.928l6.1-34.707h21.928l-1.345,7.639H129.43z"/>
	<path fill="#9C9E9F" stroke="#000000" stroke-width="0.25" stroke-miterlimit="10" d="M159.125,267.354h-10.02l4.757-27.067h-8.282
		l1.342-7.639h26.582l-1.342,7.639h-8.282L159.125,267.354z"/>
	<path fill="#9C9E9F" stroke="#000000" stroke-width="0.25" stroke-miterlimit="10" d="M187.391,267.354h-10.02l4.758-27.067h-8.282
		l1.345-7.639h26.579l-1.342,7.639h-8.283L187.391,267.354z"/>
	<path fill="#9C9E9F" stroke="#000000" stroke-width="0.25" stroke-miterlimit="10" d="M242.166,247.974
		c-0.993,5.067-2.161,9.39-6.348,13.712c-4.613,4.75-10.652,6.82-17.093,6.82c-12.114,0-19.246-7.418-17.328-18.325
		c1.98-11.274,11.767-18.687,24.188-18.687c7.925,0,13.491,3.223,15.674,9.713l-10.14,3.591c-0.798-3.314-3.322-5.523-7.359-5.523
		c-6.596,0-11.015,5.66-11.943,10.954c-0.947,5.385,1.668,10.859,8.261,10.859c4.347,0,8.024-2.017,9.136-6.03h-8.178l1.246-7.084
		H242.166z"/>
	<path fill="#9C9E9F" stroke="#000000" stroke-width="0.25" stroke-miterlimit="10" d="M259.158,240.286l-1.02,5.798h11.297
		l-1.344,7.639h-11.293l-1.051,5.988h11.905l-1.339,7.642h-21.931l6.102-34.707h21.923l-1.339,7.639H259.158z"/>
	<path fill="#9C9E9F" stroke="#000000" stroke-width="0.25" stroke-miterlimit="10" d="M279.618,232.647h10.017l14.623,21.215h0.102
		l3.729-21.215h10.018l-6.101,34.707h-10.017l-14.611-21.269h-0.102l-3.741,21.269h-10.017L279.618,232.647z"/>
	<path fill="#9C9E9F" stroke="#000000" stroke-width="0.25" stroke-miterlimit="10" d="M345.264,241.575
		c-1.595-1.382-3.788-2.3-6.238-2.3c-1.841,0-4.467,0.966-4.803,2.898c-0.357,2.025,2.215,2.807,3.863,3.314l2.434,0.691
		c5.118,1.428,8.827,3.864,7.84,9.479c-0.604,3.458-2.146,7.001-5.625,9.35c-3.421,2.294-7.631,3.266-11.517,3.266
		c-4.856,0-9.35-1.473-12.851-3.96l5.572-7.269c2.161,1.975,4.84,3.586,8.266,3.586c2.349,0,5.043-1.057,5.471-3.5
		c0.442-2.53-3.336-3.405-5.391-3.949c-6.003-1.617-9.883-3.09-8.703-9.809c1.237-7.042,7.62-11.647,15.337-11.647
		c3.885,0,8.442,1.104,11.564,2.855L345.264,241.575z"/>
	<path fill="#9C9E9F" stroke="#000000" stroke-width="0.25" stroke-miterlimit="10" d="M396.325,241.575
		c-1.596-1.382-3.789-2.3-6.238-2.3c-1.842,0-4.467,0.966-4.804,2.898c-0.357,2.025,2.215,2.807,3.864,3.314l2.434,0.691
		c5.117,1.428,8.826,3.864,7.839,9.479c-0.603,3.458-2.145,7.001-5.625,9.35c-3.42,2.294-7.631,3.266-11.516,3.266
		c-4.856,0-9.35-1.473-12.851-3.96l5.571-7.269c2.161,1.975,4.84,3.586,8.267,3.586c2.348,0,5.043-1.057,5.47-3.5
		c0.443-2.53-3.335-3.405-5.39-3.949c-6.004-1.617-9.884-3.09-8.704-9.809c1.238-7.042,7.62-11.647,15.337-11.647
		c3.886,0,8.442,1.104,11.564,2.855L396.325,241.575z"/>
	<path fill="#9C9E9F" stroke="#000000" stroke-width="0.25" stroke-miterlimit="10" d="M415.43,262.882
		c-0.518,2.945-3.602,5.39-6.927,5.39c-3.319,0-5.55-2.444-5.032-5.39c0.523-2.989,3.603-5.38,6.927-5.38
		C413.717,257.502,415.959,259.893,415.43,262.882z"/>
	<path fill="#9C9E9F" stroke="#000000" stroke-width="0.25" stroke-miterlimit="10" d="M432.571,261.323l-3.72,6.03h-10.631
		l20.92-34.707h10.94l8.416,34.707h-10.685l-1.44-6.03H432.571z M442.727,243.371h-0.101l-6.084,11.047h8.33L442.727,243.371z"/>
	<path fill="#9C9E9F" stroke="#000000" stroke-width="0.25" stroke-miterlimit="10" d="M474.923,262.882
		c-0.518,2.945-3.603,5.39-6.927,5.39c-3.319,0-5.551-2.444-5.032-5.39c0.522-2.989,3.602-5.38,6.927-5.38
		C473.21,257.502,475.451,259.893,474.923,262.882z"/>
</g>
</svg>
