<?xml version="1.0" encoding="utf-8"?>
<!-- Generator: Adobe Illustrator 19.1.0, SVG Export Plug-In . SVG Version: 6.00 Build 0)  -->
<svg version="1.1" id="Calque_1" xmlns="http://www.w3.org/2000/svg" xmlns:xlink="http://www.w3.org/1999/xlink" x="0px" y="0px"
	 viewBox="0 0 500 500" style="enable-background:new 0 0 500 500;" xml:space="preserve">
<style type="text/css">
	.st0{fill:#9C9E9F;}
</style>
<g>
	<g>
		<path class="st0" d="M66.1,248c-1,5.1-2.2,9.4-6.3,13.7c-4.6,4.8-10.7,6.8-17.1,6.8c-12.1,0-19.2-7.4-17.3-18.3
			c2-11.3,11.8-18.7,24.2-18.7c7.9,0,13.5,3.2,15.7,9.7L55,244.8c-0.8-3.3-3.3-5.5-7.4-5.5c-6.6,0-11,5.7-11.9,11
			c-0.9,5.4,1.7,10.9,8.3,10.9c4.3,0,8-2,9.1-6h-8.2l1.2-7.1L66.1,248L66.1,248z"/>
		<path d="M42.6,268.6c-6.3,0-11.5-2-14.6-5.7c-2.8-3.3-3.8-7.7-2.9-12.7c2-11.2,11.7-18.8,24.3-18.8c8.2,0,13.6,3.4,15.8,9.8l0,0.1
			L54.9,245l0-0.1c-0.8-3.4-3.5-5.4-7.2-5.4c-6.4,0-10.9,5.6-11.8,10.9c-0.5,3.1,0.1,6,1.8,8c1.5,1.8,3.7,2.7,6.4,2.7
			c4.5,0,7.9-2.2,9-5.8h-8.2l1.3-7.3h20.1l0,0.1c-1,4.9-2.1,9.4-6.4,13.8C55.5,266.3,49.5,268.6,42.6,268.6z M49.5,231.6
			c-12.4,0-22.1,7.5-24.1,18.6c-0.9,5,0.1,9.3,2.8,12.5c3.1,3.6,8.2,5.6,14.4,5.6c6.8,0,12.7-2.3,17-6.8c4.2-4.3,5.3-8.7,6.3-13.5
			H46.3l-1.2,6.8h8.2l0,0.2c-1.1,3.8-4.5,6.1-9.3,6.1c-2.8,0-5-1-6.5-2.8c-1.7-2.1-2.4-5.1-1.8-8.2c0.9-5.4,5.5-11.1,12.1-11.1
			c3.8,0,6.6,2,7.4,5.5l9.9-3.5C62.9,234.9,57.5,231.6,49.5,231.6z"/>
	</g>
	<g>
		<path class="st0" d="M112.1,249.4c-2,11.2-12.3,19.2-24.7,19.2c-12.4,0-19.9-7.9-18-19.2c1.8-10.5,13.4-17.9,24.5-17.9
			C105.1,231.5,114,238.9,112.1,249.4z M79.9,249.4c-1.1,6,3.1,10.4,9.1,10.4c6,0,11.7-4.4,12.7-10.4c0.8-4.8-3.3-9.2-9.3-9.2
			C86.5,240.2,80.8,244.6,79.9,249.4z"/>
		<path d="M87.5,268.6c-6.4,0-11.7-2.1-15-6c-2.9-3.5-4-8.1-3.1-13.3c0.9-5,4-9.6,8.8-12.9c4.5-3.2,10.3-5,15.8-5
			c6.3,0,11.9,2.3,15.3,6.4c2.7,3.2,3.8,7.3,3,11.6l0,0c-1,5.5-4,10.4-8.5,13.9C99.3,266.7,93.5,268.6,87.5,268.6z M94,231.6
			c-5.4,0-11.1,1.8-15.6,5c-4.8,3.3-7.8,7.9-8.7,12.8c-0.9,5.1,0.1,9.6,3,13.1c3.2,3.8,8.5,5.9,14.8,5.9c6,0,11.7-1.9,16.2-5.3
			c4.5-3.5,7.4-8.3,8.4-13.7c0.8-4.3-0.3-8.2-2.9-11.4C105.8,234,100.1,231.6,94,231.6z M89,259.9c-3.1,0-5.7-1.1-7.4-3.2
			c-1.6-1.9-2.2-4.5-1.8-7.3l0,0c0.9-4.9,6.8-9.3,12.6-9.3c3.1,0,6,1.2,7.7,3.3c1.4,1.7,2,3.8,1.7,6
			C100.8,255.3,95.2,259.9,89,259.9z M80.1,249.4L80.1,249.4c-0.5,2.7,0.1,5.3,1.7,7.1c1.7,2,4.2,3.1,7.2,3.1
			c6,0,11.6-4.5,12.6-10.3c0.4-2.1-0.2-4.1-1.6-5.8c-1.7-2.1-4.5-3.2-7.6-3.2C86.7,240.4,80.9,244.6,80.1,249.4L80.1,249.4z"/>
	</g>
	<g>
		<path class="st0" d="M129.4,240.3l-1,5.8h11.3l-1.3,7.6h-11.3l-1.1,6h11.9l-1.3,7.6h-21.9l6.1-34.7h21.9l-1.3,7.6L129.4,240.3
			L129.4,240.3z"/>
		<path d="M136.7,267.5h-22.2l0-0.1l6.1-34.8h22.2l-1.4,7.9h-11.9l-1,5.5h11.3l-1.4,7.9h-11.3l-1,5.7h11.9L136.7,267.5z
			 M114.8,267.2h21.7l1.3-7.4h-11.9l1.1-6.2h11.3l1.3-7.4h-11.3l1-5.9v-0.1h11.9l1.3-7.4h-21.7L114.8,267.2z"/>
	</g>
	<g>
		<path class="st0" d="M159.1,267.4h-10l4.8-27.1h-8.3l1.3-7.6h26.6l-1.3,7.6h-8.3L159.1,267.4z"/>
		<path d="M159.2,267.5H149l0-0.1l4.7-26.9h-8.3l1.4-7.9h26.8l-1.4,7.9H164L159.2,267.5z M149.3,267.2h9.8l4.8-27.1h8.3l1.3-7.4H147
			l-1.3,7.4h8.3l0,0.1L149.3,267.2z"/>
	</g>
	<g>
		<path class="st0" d="M187.4,267.4h-10l4.8-27.1h-8.3l1.3-7.6h26.6l-1.3,7.6h-8.3L187.4,267.4z"/>
		<path d="M187.5,267.5h-10.3l0-0.1l4.7-26.9h-8.3l1.4-7.9h26.8l-1.4,7.9h-8.3L187.5,267.5z M177.5,267.2h9.8l4.8-27.1h8.3l1.3-7.4
			h-26.3l-1.3,7.4h8.3l0,0.1L177.5,267.2z"/>
	</g>
	<g>
		<path class="st0" d="M242.2,248c-1,5.1-2.2,9.4-6.3,13.7c-4.6,4.8-10.7,6.8-17.1,6.8c-12.1,0-19.2-7.4-17.3-18.3
			c2-11.3,11.8-18.7,24.2-18.7c7.9,0,13.5,3.2,15.7,9.7l-10.1,3.6c-0.8-3.3-3.3-5.5-7.4-5.5c-6.6,0-11,5.7-11.9,11
			c-0.9,5.4,1.7,10.9,8.3,10.9c4.3,0,8-2,9.1-6H221l1.2-7.1L242.2,248L242.2,248z"/>
		<path d="M218.7,268.6c-6.3,0-11.5-2-14.6-5.7c-2.8-3.3-3.8-7.7-2.9-12.7c2-11.2,11.7-18.8,24.3-18.8c8.2,0,13.6,3.4,15.8,9.8
			l0,0.1L231,245l0-0.1c-0.8-3.4-3.5-5.4-7.2-5.4c-6.4,0-10.9,5.6-11.8,10.9c-0.5,3.1,0.1,6,1.8,8c1.5,1.8,3.7,2.7,6.4,2.7
			c4.5,0,7.9-2.2,9-5.8h-8.2l1.3-7.3h20.1l0,0.1c-1,4.9-2.1,9.4-6.4,13.8C231.6,266.3,225.6,268.6,218.7,268.6z M225.6,231.6
			c-12.4,0-22.1,7.5-24.1,18.6c-0.9,5,0.1,9.3,2.8,12.5c3.1,3.6,8.2,5.6,14.4,5.6c6.8,0,12.7-2.3,17-6.8c4.2-4.3,5.3-8.7,6.3-13.5
			h-19.6l-1.2,6.8h8.2l0,0.2c-1.1,3.8-4.5,6.1-9.3,6.1c-2.8,0-5-1-6.5-2.8c-1.7-2.1-2.4-5.1-1.8-8.2c0.9-5.4,5.5-11.1,12.1-11.1
			c3.8,0,6.6,2,7.4,5.5l9.9-3.5C239,234.9,233.6,231.6,225.6,231.6z"/>
	</g>
	<g>
		<path class="st0" d="M259.2,240.3l-1,5.8h11.3l-1.3,7.6h-11.3l-1.1,6h11.9l-1.3,7.6h-21.9l6.1-34.7h21.9l-1.3,7.6L259.2,240.3
			L259.2,240.3z"/>
		<path d="M266.4,267.5h-22.2l0-0.1l6.1-34.8h22.2l-1.4,7.9h-11.9l-1,5.5h11.3l0,0.1l-1.4,7.7h-11.3l-1,5.7h11.9L266.4,267.5z
			 M244.5,267.2h21.7l1.3-7.4h-11.9l1.1-6.2H268l1.3-7.4H258l1-5.9v-0.1H271l1.3-7.4h-21.7L244.5,267.2z"/>
	</g>
	<g>
		<path class="st0" d="M279.6,232.6h10l14.6,21.2h0.1l3.7-21.2h10l-6.1,34.7h-10l-14.6-21.3h-0.1l-3.7,21.3h-10L279.6,232.6z"/>
		<path d="M312.1,267.5h-10.2l0-0.1l-14.5-21.1l-3.7,21.2h-10.3l0-0.1l6.1-34.8h10.2l0,0.1l14.5,21.1l3.7-21.1h10.3l0,0.1
			L312.1,267.5z M302.1,267.2h9.8l6.1-34.5h-9.8l-3.7,21.2h-0.3l0-0.1l-14.6-21.2h-9.8l-6.1,34.5h9.8l3.7-21.3h0.3l0,0.1
			L302.1,267.2z"/>
	</g>
	<g>
		<path class="st0" d="M345.3,241.6c-1.6-1.4-3.8-2.3-6.2-2.3c-1.8,0-4.5,1-4.8,2.9c-0.4,2,2.2,2.8,3.9,3.3l2.4,0.7
			c5.1,1.4,8.8,3.9,7.8,9.5c-0.6,3.5-2.1,7-5.6,9.4c-3.4,2.3-7.6,3.3-11.5,3.3c-4.9,0-9.4-1.5-12.9-4l5.6-7.3c2.2,2,4.8,3.6,8.3,3.6
			c2.3,0,5-1.1,5.5-3.5c0.4-2.5-3.3-3.4-5.4-3.9c-6-1.6-9.9-3.1-8.7-9.8c1.2-7,7.6-11.6,15.3-11.6c3.9,0,8.4,1.1,11.6,2.9
			L345.3,241.6z"/>
		<path d="M331.2,268.4c-4.7,0-9.3-1.4-12.9-4l-0.1-0.1l0.1-0.1l5.7-7.4l0.1,0.1c2.6,2.4,5.3,3.6,8.2,3.6c2.4,0,4.9-1,5.3-3.4
			c0.4-2.3-3-3.2-5-3.7l-0.3-0.1c-6.1-1.6-10-3.2-8.8-10c1.2-6.9,7.6-11.8,15.5-11.8c4,0,8.5,1.1,11.6,2.9l0.1,0.1l-5.4,7.2
			l-0.1-0.1c-1.7-1.5-3.9-2.3-6.2-2.3c-1.7,0-4.3,0.9-4.7,2.8c-0.3,1.9,2.1,2.7,3.8,3.2l2.5,0.7c4.3,1.2,9,3.4,7.9,9.6
			c-0.7,4.2-2.6,7.4-5.7,9.4C339.6,267.2,335.5,268.4,331.2,268.4z M318.5,264.3c3.6,2.5,8.1,3.9,12.7,3.9c4.3,0,8.3-1.2,11.4-3.2
			c3-2,4.8-5.1,5.6-9.3c0.8-4.7-1.6-7.6-7.8-9.3l-2.4-0.7c-1.7-0.5-4.3-1.3-4-3.5c0.4-2,3.2-3,4.9-3c2.3,0,4.5,0.8,6.2,2.2l5.1-6.8
			c-3.1-1.7-7.5-2.8-11.4-2.8c-7.8,0-14,4.7-15.2,11.5c-1.1,6.5,2.5,8,8.6,9.7l0.3,0.1c2.1,0.6,5.7,1.5,5.2,4
			c-0.4,2.5-3.1,3.6-5.6,3.6c-2.9,0-5.6-1.2-8.2-3.5L318.5,264.3z"/>
	</g>
	<g>
		<path class="st0" d="M396.3,241.6c-1.6-1.4-3.8-2.3-6.2-2.3c-1.8,0-4.5,1-4.8,2.9c-0.4,2,2.2,2.8,3.9,3.3l2.4,0.7
			c5.1,1.4,8.8,3.9,7.8,9.5c-0.6,3.5-2.1,7-5.6,9.4c-3.4,2.3-7.6,3.3-11.5,3.3c-4.9,0-9.4-1.5-12.9-4l5.6-7.3c2.2,2,4.8,3.6,8.3,3.6
			c2.3,0,5-1.1,5.5-3.5c0.4-2.5-3.3-3.4-5.4-3.9c-6-1.6-9.9-3.1-8.7-9.8c1.2-7,7.6-11.6,15.3-11.6c3.9,0,8.4,1.1,11.6,2.9
			L396.3,241.6z"/>
		<path d="M382.3,268.4c-4.7,0-9.3-1.4-12.9-4l-0.1-0.1l0.1-0.1l5.7-7.4l0.1,0.1c2.6,2.4,5.3,3.6,8.2,3.6c2.4,0,4.9-1,5.3-3.4
			c0.4-2.3-3-3.2-5-3.7l-0.3-0.1c-6.1-1.6-10-3.2-8.8-10c1.2-6.9,7.6-11.8,15.5-11.8c4,0,8.5,1.1,11.6,2.9l0.1,0.1l-5.4,7.2
			l-0.1-0.1c-1.7-1.5-3.9-2.3-6.2-2.3c-1.7,0-4.3,0.9-4.7,2.8c-0.3,1.9,2.1,2.7,3.8,3.2l2.5,0.7c4.3,1.2,9,3.4,7.9,9.6
			c-0.7,4.2-2.6,7.4-5.7,9.4C390.7,267.2,386.6,268.4,382.3,268.4z M369.6,264.3c3.6,2.5,8.1,3.9,12.7,3.9c4.3,0,8.3-1.2,11.4-3.2
			c3-2,4.8-5.1,5.6-9.3c0.8-4.7-1.6-7.6-7.7-9.3l-2.4-0.7c-1.7-0.5-4.3-1.3-4-3.5c0.4-2,3.2-3,4.9-3c2.3,0,4.5,0.8,6.2,2.2l5.1-6.8
			c-3.1-1.7-7.5-2.8-11.4-2.8c-7.8,0-14,4.7-15.2,11.5c-1.1,6.5,2.5,8,8.6,9.7l0.3,0.1c2.1,0.6,5.7,1.5,5.2,4
			c-0.4,2.5-3.1,3.6-5.6,3.6c-2.9,0-5.6-1.2-8.2-3.5L369.6,264.3z"/>
	</g>
	<g>
		<path class="st0" d="M415.4,262.9c-0.5,2.9-3.6,5.4-6.9,5.4c-3.3,0-5.5-2.4-5-5.4c0.5-3,3.6-5.4,6.9-5.4
			C413.7,257.5,416,259.9,415.4,262.9z"/>
		<path d="M408.5,268.4c-1.7,0-3.2-0.7-4.2-1.8c-0.9-1-1.2-2.4-1-3.7c0.5-3,3.7-5.5,7.1-5.5c1.7,0,3.3,0.7,4.2,1.8
			c0.9,1,1.2,2.3,0.9,3.7l0,0C415,265.9,411.9,268.4,408.5,268.4z M410.4,257.6c-3.2,0-6.3,2.4-6.8,5.3c-0.2,1.3,0.1,2.6,0.9,3.5
			c0.9,1.1,2.4,1.7,4,1.7c3.2,0,6.3-2.4,6.8-5.3l0,0c0.2-1.3-0.1-2.6-0.9-3.5C413.5,258.2,412,257.6,410.4,257.6z"/>
	</g>
	<g>
		<path class="st0" d="M432.6,261.3l-3.7,6h-10.6l20.9-34.7h10.9l8.4,34.7h-10.7l-1.4-6H432.6z M442.7,243.4h-0.1l-6.1,11h8.3
			L442.7,243.4z"/>
		<path d="M458.7,267.5h-10.9l0-0.1l-1.4-5.9h-13.6l-3.7,6H418l21.1-35h11.1l0,0.1L458.7,267.5z M447.9,267.2h10.4l-8.4-34.5h-10.8
			l-20.8,34.5h10.3l3.7-6h14l0,0.1L447.9,267.2z M445,254.5h-8.7l0.1-0.2l6.1-11.1h0.3L445,254.5z M436.8,254.3h8l-2.1-10.7
			L436.8,254.3z"/>
	</g>
	<g>
		<path class="st0" d="M474.9,262.9c-0.5,2.9-3.6,5.4-6.9,5.4c-3.3,0-5.6-2.4-5-5.4c0.5-3,3.6-5.4,6.9-5.4
			C473.2,257.5,475.5,259.9,474.9,262.9z"/>
		<path d="M468,268.4c-1.7,0-3.2-0.7-4.2-1.8c-0.9-1-1.2-2.4-1-3.7c0.5-3,3.7-5.5,7-5.5c1.7,0,3.3,0.7,4.2,1.8
			c0.9,1,1.2,2.3,0.9,3.7C474.5,265.9,471.4,268.4,468,268.4z M469.9,257.6c-3.2,0-6.3,2.4-6.8,5.3c-0.2,1.3,0.1,2.6,0.9,3.5
			c0.9,1.1,2.4,1.7,4,1.7c3.2,0,6.3-2.4,6.8-5.3l0,0c0.2-1.3-0.1-2.6-0.9-3.5C473,258.2,471.5,257.6,469.9,257.6z"/>
	</g>
</g>
</svg>
