<?xml version="1.0" encoding="utf-8"?>
<!-- Generator: Adobe Illustrator 21.0.2, SVG Export Plug-In . SVG Version: 6.00 Build 0)  -->
<svg version="1.1" id="layer" xmlns="http://www.w3.org/2000/svg" xmlns:xlink="http://www.w3.org/1999/xlink" x="0px" y="0px"
	 viewBox="0 0 500 140" style="enable-background:new 0 0 500 140;" xml:space="preserve">
<style type="text/css">
	.st0{fill:#009F56;}
	.st1{fill:#FFFFFF;}
	.st2{fill:#FFE000;}
</style>
<rect x="17" y="9.9" class="st0" width="466" height="120.1"/>
<path class="st1" d="M447.6,80.5l-14.5-4c-3.5-0.9-2.6-4.3-0.8-5.3c3-1.6,5.8-1.2,8.1-0.5c3.4,1.1,3.7,2.5,3.7,5h9.7
	c0-2.9-0.3-6.8-5.8-10.4c-3.5-2.2-7.9-3-12.1-2.9c-4.2,0.1-8.1,1.3-10.3,3c-2.4,1.8-4.8,5.1-4.8,10.2c0.1,3.5,1.2,7.5,8.4,9.5
	l12.5,3.6c4,0.9,3.8,8-3.6,7.4c-4.4-0.7-7.4-1-8.8-5.5h-9.9c0.1,2.5,0.9,8.2,8.6,11.6c2,0.9,5.2,1.4,8.6,1.5
	c3.5,0.1,7.1-0.4,9.8-1.3c6.6-2.4,8.4-8.6,8.4-12.5C454.8,85.1,451.1,81.5,447.6,80.5z"/>
<path class="st1" d="M398.6,62.4c-4.5,0-15.1,0.7-17.6,16c-0.5,3-0.5,6.1-0.4,8.4c0.2,2.4,0.6,4.1,0.7,4.8c1,3.4,3.4,6.9,7,9.3
	c2.7,1.7,6.3,3,10.2,3c6.8,0,16.1-5.1,17.8-12.7h-9.9c-0.5,2-3,3.8-5.8,4.4c-2.9,0.5-6.2-0.3-8.5-3.5c-1.4-2-1.4-4.2-1.2-6.3h25.9
	c0.2-4.7,0.2-9.9-3.3-15.6C411,66.3,406.3,62.4,398.6,62.4z M390.8,79c-0.1-3.7,2.2-8.4,8.4-8.1c6.1,0.3,7.1,5.2,7.1,8.1H390.8z"/>
<rect x="366.4" y="63.1" class="st1" width="10.1" height="39"/>
<rect x="366.4" y="49.6" class="st1" width="10.1" height="9"/>
<path class="st1" d="M354.8,64.5c-3.5,2.5-4,3.8-4.7,6.1H350v-7.6h-10.1v39H350v-22c1.2-8.5,7.7-7.9,12-7.4V62.5
	C358.9,61.9,356.6,63.2,354.8,64.5z"/>
<path class="st1" d="M316.8,62.4c-4.5,0-15,0.7-17.6,16c-0.5,3-0.5,6.1-0.4,8.4c0.2,2.4,0.6,4.1,0.7,4.8c1,3.4,3.4,6.9,7,9.3
	c2.7,1.7,6.3,3,10.2,3c6.8,0,16.1-5.1,17.8-12.7h-9.9c-0.5,2-2.9,3.8-5.8,4.4c-2.9,0.5-6.2-0.3-8.5-3.5c-1.4-2-1.4-4.2-1.2-6.3h25.9
	c0.2-4.7,0.2-9.9-3.3-15.6C329.2,66.3,324.4,62.4,316.8,62.4z M309,79c-0.1-3.7,2.2-8.4,8.4-8.1c6,0.3,7.1,5.2,7.1,8.1H309z"/>
<path class="st1" d="M265.4,53.3h-10.1v10.6h-5v6.7h5V96c0.6,4.1,3,6.3,6,7.3c1.5,0.4,3.1,0.6,4.8,0.5c1.7-0.1,3.3-0.4,4.8-0.9V96
	l-3.8-0.1c-1.4,0-1.7-1.4-1.7-3.4v-22h5.6v-6.7h-5.6V53.3z"/>
<path class="st1" d="M290.4,53.3h-10.1v10.6h-5v6.7h5V96c0.6,4.1,3,6.3,6,7.3c1.5,0.4,3.1,0.6,4.8,0.5c1.7-0.1,3.3-0.4,4.8-0.9V96
	l-3.8-0.1c-1.4,0-1.6-1.4-1.6-3.4v-22h5.6v-6.7h-5.6V53.3z"/>
<path class="st1" d="M246.6,74.8c0-6.2-3.1-9.4-7-10.9c-1.9-0.8-5.3-1.4-9.2-1.4c-5.3,0-16,1.1-16.1,13.6h9.5
	c0.1-2.8,0.9-6.3,6.6-6.3c4.6,0,6.6,1.1,6.6,3.5c0.1,1.9-0.7,3.8-2.5,4.4c-2.4,0.8-6.4,1.7-10.2,1.8c-8.9,1.5-11.1,6.8-11.3,12.3
	c-0.3,7.6,3.6,12,11.5,12c5.9,0,9-2.2,12.5-5.5c-0.1,1.4,0.4,3,1.1,3.9h10.7v-1.4c-1.3-1.2-2.3-2.9-2.2-4.6V74.8z M237,86
	c0,4.3-1.1,8.5-7.1,9.4c-4.3,0.7-6.1-0.9-6.7-3.2c-0.9-3.2,1.3-5.8,4.4-6.3c2.6-0.5,6.5-0.4,9.4-2.1V86z"/>
<path class="st1" d="M202.5,74.2c3.8-3.2,5-7.6,5-10.8c0-2.2-1-13.8-18.9-13.8h-21.7v52.5h23.7c3.3,0,9.1-0.5,12.7-3.6
	c4.7-4,5.5-8.4,5.5-11.1C208.8,81.2,205.6,76.6,202.5,74.2z M177.7,58.6h12.8c3.7,0,6.7,1.4,6.7,6c0,4.2-2.7,6-7.3,6h-12.2V58.6z
	 M190.3,93.1h-12.7V79.6h14.7c2,0,6.1,0.3,6.1,6.2C198.5,93,193.6,93.1,190.3,93.1z"/>
<path class="st2" d="M127.4,92.6c-2.7,0-5.1,1.9-5.1,5c0,3.2,2.4,5,5.1,5c2.7,0,5-1.8,5-5C132.4,94.5,130,92.6,127.4,92.6z
	 M127.4,101.5L127.4,101.5c-2,0-3.6-1.6-3.6-3.9c0-2.3,1.6-3.9,3.6-3.9c1.9,0,3.6,1.5,3.6,3.9C131,100,129.3,101.5,127.4,101.5z"/>
<path class="st2" d="M129.6,96.6c0-1.2-0.8-1.6-2.2-1.6h-2v5.4h1.2v-2.3h0.5l1.2,2.3h1.4l-1.4-2.4C129,97.9,129.6,97.6,129.6,96.6z
	 M127.6,97.2h-1v-1.3h0.8c0.4,0,1,0,1,0.6C128.4,97.1,128.1,97.2,127.6,97.2z"/>
<path class="st2" d="M134.8,43.7c-2.5-0.6-4.4-0.7-5.5-0.7h-32v27H72.9v13.2h7.6c0,0-2.7,6-9.7,5.6c-8.6-0.6-11.3-7.9-11.8-15.2
	c-0.3-7.7,3.5-15.5,11-15.9c4.8-0.2,7.2,2.9,8.3,5h16.8c-1-7.1-6-21.3-24.8-21.3c-27,0-29.9,25.2-29.8,30.9c0.1,5.1,1.9,32,29.1,32
	c19.1,0,22.5-12,23.4-13.6l4.3,12h19.9V86.1h12.2c0.6,0,2.9-0.2,5.5-0.7c5-1.1,16-7.5,16-20.8C150.8,51.5,140.1,44.9,134.8,43.7z
	 M126.2,70h-9V59.3h8.9c2.9,0,5.4,2.3,5.4,5.4C131.4,67.6,129.1,70,126.2,70z"/>
</svg>
