<?xml version="1.0" encoding="utf-8"?>
<!-- Generator: Adobe Illustrator 21.0.2, SVG Export Plug-In . SVG Version: 6.00 Build 0)  -->
<svg version="1.1" id="Calque_1" xmlns="http://www.w3.org/2000/svg" xmlns:xlink="http://www.w3.org/1999/xlink" x="0px" y="0px"
	 viewBox="0 0 500 312" style="enable-background:new 0 0 500 312;" xml:space="preserve">
<style type="text/css">
	.st0{fill:#274D99;}
	.st1{fill:#31AFE1;}
	.st2{fill:#FFFFFF;}
</style>
<path class="st0" d="M475,22.5v109.9L198.4,285.8L25,22.8L475,22.5z"/>
<path class="st0" d="M330.1,84.1c4.2,20.1-13.6,33.2-33.8,29c3.4-11.5,8.6-21.2,12.1-32.6C317.1,80.2,324.8,81,330.1,84.1z"/>
<polygon class="st1" points="475,162.6 240.7,289.5 229.8,275 473.8,142.1 "/>
<path class="st0" d="M456.7,220.4c-9.1,0-16.5-7.4-16.5-16.5s7.4-16.5,16.5-16.5s16.5,7.4,16.5,16.5S465.8,220.4,456.7,220.4z
	 M456.7,191c-7.1,0-12.9,5.8-12.9,12.9s5.8,12.9,12.9,12.9s12.9-5.8,12.9-12.9S463.8,191,456.7,191z"/>
<path class="st0" d="M451.4,198.8c0-2.4,0-2.7-1.3-2.8l-0.7-0.1c-0.2-0.2-0.2-0.6,0-0.7c1.8-0.1,4.1-0.2,6.4-0.2
	c2.2,0,4.1,0.2,5.3,0.9c1.4,0.7,2.5,1.8,2.5,3.7c0,2.3-2,3.5-3.4,4c-0.2,0.1-0.1,0.3,0,0.4c2.2,3.4,3.6,5.5,5,6.5
	c0.8,0.6,1.6,0.8,1.9,0.8c0.1,0.1,0.1,0.4,0.1,0.5c-0.3,0.1-0.9,0.1-1.9,0.1c-2.7,0-4.1-1-5.8-3.3c-0.8-1.1-1.5-2.4-2.2-3.4
	c-0.5-0.7-0.8-0.9-1.7-0.9c-0.8,0-0.9,0-0.9,0.5v3.2c0,2.7,0.3,2.7,1.6,2.9l0.6,0.1c0.2,0.2,0.2,0.6-0.1,0.7c-1.2,0-2.5-0.1-3.7-0.1
	s-2.5,0-3.8,0.1c-0.2-0.1-0.3-0.5-0.1-0.7l0.6-0.1c1.3-0.1,1.6-0.2,1.6-2.9V198.8L451.4,198.8z M454.6,202.4c0,0.8,0,0.9,1.3,0.9
	c2.7,0,4-1.2,4-3.6c0-2-1.4-3.7-3.9-3.7c-1.5,0-1.5,0.1-1.5,1.2L454.6,202.4L454.6,202.4z"/>
<polygon class="st2" points="384.4,161.4 353,161.4 388.1,68.4 419.5,68.4 "/>
<path class="st2" d="M337.2,68.2h-24h-3.1h-28.3l-35.1,93h31.4l12.7-33.7H315c21.1,0,43.4-13.3,49.6-29.7
	C370.6,81.5,358.4,68.2,337.2,68.2z M330.3,97.4c-3.5,9.2-16.2,16.8-28.2,16.8h-6.4l12.7-33.5h6.3C326.8,80.6,333.8,88.1,330.3,97.4
	z"/>
<path class="st2" d="M170.5,106.2c3.8-13.9,18.7-25.2,33.1-25.2h10c14.4,0,28.3,4.4,31.7,9.3l16-16.5c-7.6-4.5-17.4-7.1-28.8-7.1
	h-20.7c-34,0-69.7,22.7-79.4,50.5s10.1,50.5,44,50.5h20.7c10.7,0,21.5-2.2,31.7-6.2h0.1l18-47.2h-17.6h-13.8h-17.6l-5.2,13.6h17.6
	l-8.2,21.5h-17.2c-14.4,0-23.1-11.4-19.3-25.2L170.5,106.2z"/>
</svg>
