<?xml version="1.0" encoding="utf-8"?>
<!-- Generator: Adobe Illustrator 19.1.0, SVG Export Plug-In . SVG Version: 6.00 Build 0)  -->
<svg version="1.1" id="Calque_2" xmlns="http://www.w3.org/2000/svg" xmlns:xlink="http://www.w3.org/1999/xlink" x="0px" y="0px"
	 viewBox="0 0 500 500" style="enable-background:new 0 0 500 500;" xml:space="preserve">
<style type="text/css">
	.st0{fill:#0F3381;}
</style>
<path class="st0" d="M417.7,192.7h-11.2h-2.2h-67h-6.6c0,0.5,0,0.9,0,1.4c0,43.1-34.9,78-77.9,78c-43,0-77.9-34.9-77.9-78
	s34.9-78,77.9-78c27.5,0,51.7,14.3,65.6,35.9V39.6C297.5,30.2,274.4,25,250.1,25c-92.6,0-167.6,75.2-167.6,168
	c0,92.8,75,168,167.6,168c31.9,0,61.8-9,87.2-24.5v12.7c-27.5,20.5-61.5,32.6-98.2,32.6c-72.4,0-133.9-46.9-156.8-112.5v148.6
	c39.9,35,98.1,57.1,162.9,57.1c70.1,0,132.5-25.8,172.3-65.9h0.3v-0.3V203.1L417.7,192.7L417.7,192.7L417.7,192.7z"/>
</svg>
