<?xml version="1.0" encoding="utf-8"?>
<!-- Generator: Adobe Illustrator 19.1.0, SVG Export Plug-In . SVG Version: 6.00 Build 0)  -->
<svg version="1.1" id="Calque_1" xmlns="http://www.w3.org/2000/svg" xmlns:xlink="http://www.w3.org/1999/xlink" x="0px" y="0px"
	 viewBox="0 0 500 500" style="enable-background:new 0 0 500 500;" xml:space="preserve">
<style type="text/css">
	.st0{fill:#58585A;}
	.st1{fill:#87888A;}
	.st2{fill:#FFFFFF;}
	.st3{fill:#B1B3B4;}
	.st4{fill:none;}
</style>
<path class="st0" d="M129.1,220.8l-6.4-14.9c0,0,31.7-5.1,36.3-4c4.5,1.1,12.8,8.5,13.9,17.3c1.1,8.8-6.9,35.5-11.7,57.3
	c-4.8,21.9-6.4,25.9-6.4,25.9l-4.3-3.7l-0.8-20c0,0,9.3-50.7,7.5-60.8C155.3,207.7,149.9,210.4,129.1,220.8z"/>
<g>
	<g>
		<path class="st1" d="M420.6,204.5c0,8.7-7.1,15.8-15.8,15.8c-8.7,0-15.8-7.1-15.8-15.8c0-8.7,7.1-15.8,15.8-15.8
			C413.5,188.7,420.6,195.8,420.6,204.5z"/>
	</g>
	<g>
		<path class="st2" d="M400.6,185.6v4.5c0,0,7.4-1.1,7.4,6.5c0,7.6-7.4,7.6-7.4,7.6v14.4l4.5,0.2l-2.2,11l4.5-1.3l2-9.9
			c0,0-5.4-2-5.4-8.5c0-6.5,5.8-6.3,5.8-6.3v-18.4L400.6,185.6z"/>
		<path class="st2" d="M401.5,231.2l2.3-11.5l-4.3-0.2v-16.3h1c0.3,0,6.4-0.1,6.4-6.6c0-4.6-2.9-5.6-5.4-5.6c-0.5,0-0.8,0-0.8,0
			l-1.1,0.2l0-6.6l11.2-0.3v20.5l-1,0c0,0,0,0,0,0c-0.3,0-1.5,0-2.6,0.7c-1.4,0.8-2.1,2.4-2.1,4.6c0,5.7,4.7,7.6,4.7,7.6l0.8,0.3
			l-2.3,11.3L401.5,231.2z M401.6,217.6l4.7,0.2l-2.1,10.5l2.3-0.7l1.7-8.5c-1.6-0.9-5.3-3.5-5.3-9.1c0-5.1,3.3-6.9,5.8-7.2v-4.1
			c-0.9,4.4-4.6,6.1-7.2,6.4L401.6,217.6L401.6,217.6z M401.6,189c1.6,0,6.2,0.5,7.2,5.4v-8l-7.2,0.2V189z"/>
	</g>
	<path class="st0" d="M160.8,214.7c0,0-62.4,26.1-80.5,27.7c-18.1,1.6-29.3,6.4-28-5.1c1.3-11.5,9.9-33.1,40-45.9
		c30.1-12.8,57.3-15.5,62.4-10.1c5.1,5.3,20,2.9,23.2-1.1c3.2-4,5.6-16-9.9-17.6c-15.5-1.6-40,4.8-57.9,12
		c-17.9,7.2-73.9,26.7-80.3,45.6c-6.4,18.9-7.7,53.6,4,55.7c11.7,2.1,34.4-2.4,46.1-8.3c11.7-5.9,24.8-13.6,42.9-20.3
		c18.1-6.7,57.6-28.8,57.6-28.8s35.7-19.5,46.4-27.5c10.7-8,23.2-20.8,25.9-21.3c2.7-0.5,5.9-0.3,9.9,10.7
		c4,10.9,15.2,27.7,35.2,41.3c20,13.6,22.4,14.4,22.4,14.4s-7.7,29.6,9.1,33.9s48.5-7.2,58.4-12c9.9-4.8,47.7-19.7,55.5-22.9
		c7.7-3.2,30.4-13.9,24.5-20.5c-5.9-6.7-75.2,23.5-91.5,24c-16.3,0.5-29.9,3.7-29.3-2.9c0.5-6.7,13.3-34.1,26.4-42.7
		c13.1-8.5,42.1-19.2,60-17.6c17.9,1.6,19.5,9.3,29.6,5.3c10.1-4,17.1-15.2,7.7-19.2s-47.7-2.4-83.2,13.9
		c-35.5,16.3-65.1,29.6-67.2,48.3c0,0-25.6-14.1-40.5-40.3c-14.9-26.1-14.4-36.8-21.1-40.3c-6.7-3.5-9.3,0-11.5,4.3
		c-2.1,4.3-6.9,10.7-4.8,17.1c0,0-36,32.3-71.7,45.9C165,212.6,160.8,214.7,160.8,214.7z"/>
	<path class="st3" d="M206.6,218.4v0.5v8.8c0,0,2.7,0.3,1.3,1.9c-1.3,1.6-3.5,3.5-2.1,5.3s3.7,5.6,3.7,5.6s2.9,5.1,5.1,4.5
		c2.1-0.5,9.6-3.7,13.6-4.5c4-0.8,14.7-1.1,18.7,0.5c4,1.6,8.5,3.2,11.7,2.1c3.2-1.1,5.6-2.9,9.9-1.6c4.3,1.3,13.6,3.2,16.8,3.2
		s8-0.8,7.7-3.2c-0.3-2.4-2.1-6.1-2.1-6.1s-2.9-7.2-3.2-8.5c-0.3-1.3-2.9-2.7-2.9-2.7s-19.5-8.8-26.7-10.9c-7.2-2.1-12-1.1-18.4-0.8
		c-6.4,0.3-11.2,2.4-14.4,2.4c-3.2,0-6.7,0.3-9.6,0.5"/>
	<g>
		<path d="M112,345.3c-1.1,0.4-3.2,1-5.6,1c-2.8,0-5-0.7-6.8-2.4c-1.6-1.5-2.5-4-2.5-6.8c0-5.4,3.8-9.4,9.9-9.4
			c2.1,0,3.8,0.5,4.6,0.8l-0.6,1.9c-1-0.5-2.2-0.8-4-0.8c-4.4,0-7.3,2.8-7.3,7.3c0,4.6,2.8,7.4,7,7.4c1.5,0,2.6-0.2,3.1-0.5v-5.4
			H106v-1.9h6C112,336.6,112,345.3,112,345.3z"/>
		<path d="M119.6,337.1c0-1.5,0-2.9-0.1-4.1h2.1l0.1,2.6h0.1c0.6-1.8,2.1-2.9,3.6-2.9c0.2,0,0.4,0,0.7,0.1v2.2
			c-0.3,0-0.5-0.1-0.8-0.1c-1.7,0-2.9,1.3-3.2,3c-0.1,0.3-0.1,0.7-0.1,1.1v7h-2.4L119.6,337.1z"/>
		<path d="M141.5,343c0,1.1,0.1,2.2,0.2,3.1h-2.1l-0.2-1.7h-0.1c-0.7,1-2.1,2-4,2c-2.6,0-4-1.9-4-3.8c0-3.2,2.8-4.9,7.9-4.9v-0.3
			c0-1.1-0.3-3.1-3-3c-1.2,0-2.5,0.4-3.4,1l-0.5-1.6c1.1-0.7,2.7-1.1,4.3-1.1c4,0,5,2.7,5,5.4L141.5,343L141.5,343z M139.2,339.5
			c-2.6-0.1-5.5,0.4-5.5,2.9c0,1.6,1,2.3,2.2,2.3c1.7,0,2.8-1.1,3.2-2.2c0.1-0.2,0.1-0.5,0.1-0.8L139.2,339.5L139.2,339.5z"/>
		<path d="M149.4,337.3c0-1.7,0-3-0.1-4.3h2.1l0.1,2.2h0.1c0.9-1.6,2.5-2.5,4.6-2.5c3.2,0,5.6,2.7,5.6,6.7c0,4.7-2.9,7-6,7
			c-1.8,0-3.2-0.8-4-2.1h-0.1v7.1h-2.4L149.4,337.3L149.4,337.3z M151.8,340.8c0,0.3,0,0.7,0.1,1c0.4,1.6,1.9,2.8,3.5,2.8
			c2.5,0,4-2.1,4-5.1c0-2.6-1.4-4.9-3.9-4.9c-1.6,0-3.2,1.1-3.6,2.9c-0.1,0.3-0.1,0.7-0.1,1L151.8,340.8L151.8,340.8z"/>
		<path d="M168.9,337.3c0-1.7,0-3-0.1-4.3h2.1l0.1,2.2h0.1c0.9-1.6,2.5-2.5,4.6-2.5c3.2,0,5.6,2.7,5.6,6.7c0,4.7-2.9,7-5.9,7
			c-1.8,0-3.2-0.8-4-2.1h-0.1v7.1h-2.4L168.9,337.3L168.9,337.3z M171.2,340.8c0,0.3,0,0.7,0.1,1c0.4,1.6,1.9,2.8,3.5,2.8
			c2.5,0,4-2.1,4-5.1c0-2.6-1.4-4.9-3.9-4.9c-1.6,0-3.2,1.1-3.6,2.9c-0.1,0.3-0.1,0.7-0.1,1V340.8z"/>
		<path d="M189.4,330.6c-0.9,0-1.5-0.7-1.5-1.5c0-0.8,0.6-1.5,1.5-1.5c0.9,0,1.5,0.7,1.5,1.5C191,329.9,190.4,330.6,189.4,330.6
			L189.4,330.6z M188.3,346.1V333h2.4v13.1H188.3z"/>
		<path d="M198.7,336.6c0-1.4,0-2.5-0.1-3.5h2.1l0.1,2.1h0.1c0.6-1.2,2.2-2.4,4.3-2.4c1.8,0,4.6,1.1,4.6,5.6v7.8h-2.4v-7.6
			c0-2.1-0.8-3.9-3-3.9c-1.5,0-2.8,1.1-3.2,2.4c-0.1,0.3-0.2,0.7-0.2,1.1v7.9h-2.4L198.7,336.6L198.7,336.6z"/>
		<path d="M230.6,340.4l-1.9,5.7h-2.4l6.2-18.2h2.8l6.2,18.2H239l-1.9-5.7H230.6z M236.6,338.6l-1.8-5.2c-0.4-1.2-0.6-2.3-0.9-3.3
			h-0.1c-0.2,1.1-0.5,2.2-0.9,3.3l-1.8,5.3H236.6z"/>
		<path d="M248.1,336.6c0-1.4,0-2.5-0.1-3.5h2.1l0.1,2.1h0.1c0.6-1.2,2.2-2.4,4.3-2.4c1.8,0,4.6,1.1,4.6,5.6v7.8h-2.4v-7.6
			c0-2.1-0.8-3.9-3-3.9c-1.5,0-2.8,1.1-3.2,2.4c-0.1,0.3-0.2,0.7-0.2,1.1v7.9h-2.4L248.1,336.6L248.1,336.6z"/>
		<path d="M267.2,336.6c0-1.4,0-2.5-0.1-3.5h2.1l0.1,2.1h0.1c0.7-1.2,2.2-2.4,4.3-2.4c1.8,0,4.6,1.1,4.6,5.6v7.8h-2.4v-7.6
			c0-2.1-0.8-3.9-3-3.9c-1.5,0-2.8,1.1-3.2,2.4c-0.1,0.3-0.2,0.7-0.2,1.1v7.9h-2.4L267.2,336.6L267.2,336.6z"/>
		<path d="M295.5,343c0,1.1,0.1,2.2,0.2,3.1h-2.1l-0.2-1.7h-0.1c-0.7,1-2.1,2-4,2c-2.7,0-4-1.9-4-3.8c0-3.2,2.8-4.9,7.9-4.9v-0.3
			c0-1.1-0.3-3.1-3-3c-1.2,0-2.5,0.4-3.4,1l-0.5-1.6c1.1-0.7,2.7-1.1,4.3-1.1c4,0,5,2.7,5,5.4L295.5,343L295.5,343z M293.1,339.5
			c-2.6-0.1-5.5,0.4-5.5,2.9c0,1.6,1,2.3,2.2,2.3c1.7,0,2.8-1.1,3.2-2.2c0.1-0.2,0.1-0.5,0.1-0.8L293.1,339.5L293.1,339.5z"/>
		<path d="M306.1,329.9v3.1h3.4v1.8h-3.4v7.1c0,1.6,0.5,2.5,1.8,2.5c0.6,0,1-0.1,1.4-0.2l0.1,1.8c-0.5,0.2-1.2,0.3-2.1,0.3
			c-1.1,0-2-0.4-2.6-1c-0.6-0.7-0.9-1.9-0.9-3.4v-7.1h-2V333h2v-2.4L306.1,329.9z"/>
		<path d="M338.8,345.6c-0.8,0.4-2.6,0.9-4.8,0.9c-5.1,0-9-3.2-9-9.3c0-5.7,3.9-9.6,9.5-9.6c2.2,0,3.7,0.5,4.3,0.8l-0.6,1.9
			c-0.9-0.4-2.1-0.8-3.6-0.8c-4.3,0-7.1,2.7-7.1,7.5c0,4.5,2.6,7.3,7,7.3c1.5,0,2.9-0.3,3.9-0.8L338.8,345.6z"/>
		<path d="M350.7,346.4c-3.5,0-6.3-2.6-6.3-6.7c0-4.4,2.9-7,6.5-7c3.8,0,6.3,2.7,6.3,6.7C357.3,344.3,353.9,346.4,350.7,346.4
			L350.7,346.4L350.7,346.4z M350.8,344.6c2.3,0,4-2.1,4-5.1c0-2.2-1.1-5-3.9-5c-2.8,0-4,2.6-4,5.1
			C346.9,342.5,348.5,344.6,350.8,344.6L350.8,344.6z"/>
		<path d="M364.3,336.6c0-1.4-0.1-2.5-0.1-3.5h2.1l0.1,2.1h0.1c0.7-1.2,1.9-2.4,4.1-2.4c1.8,0,3.1,1.1,3.7,2.6h0.1
			c0.4-0.8,0.9-1.3,1.5-1.7c0.8-0.6,1.6-0.9,2.9-0.9c1.8,0,4.3,1.1,4.3,5.7v7.7h-2.3v-7.4c0-2.5-0.9-4-2.8-4c-1.4,0-2.4,1-2.8,2.1
			c-0.1,0.3-0.2,0.8-0.2,1.2v8.1h-2.3v-7.8c0-2.1-0.9-3.6-2.7-3.6c-1.5,0-2.6,1.2-2.9,2.4c-0.1,0.4-0.2,0.8-0.2,1.2v7.9h-2.3
			L364.3,336.6L364.3,336.6z"/>
		<path d="M396.3,346.4c-3.5,0-6.3-2.6-6.3-6.7c0-4.4,2.9-7,6.5-7c3.8,0,6.3,2.7,6.3,6.7C402.8,344.3,399.4,346.4,396.3,346.4
			L396.3,346.4L396.3,346.4z M396.4,344.6c2.3,0,4-2.1,4-5.1c0-2.2-1.1-5-3.9-5c-2.8,0-4,2.6-4,5.1
			C392.4,342.5,394,344.6,396.4,344.6L396.4,344.6z"/>
	</g>
	<g>
		<line class="st4" x1="79.5" y1="320.7" x2="418.4" y2="320.7"/>
		<rect x="79.5" y="318.2" width="338.9" height="5"/>
	</g>
	<g>
		<line class="st4" x1="79.5" y1="355.7" x2="418.4" y2="355.7"/>
		<rect x="79.5" y="353.1" width="338.9" height="5"/>
	</g>
	<g>
		<path class="st0" d="M400.6,185.6v4.5c0,0,7.4-1.1,7.4,6.5c0,7.6-7.4,7.6-7.4,7.6v14.4l4.5,0.2l-2.2,11l4.5-1.3l2-9.9
			c0,0-5.4-2-5.4-8.5c0-6.5,5.8-6.3,5.8-6.3v-18.4L400.6,185.6z"/>
	</g>
</g>
</svg>
