<?xml version="1.0" encoding="utf-8"?>
<!-- Generator: Adobe Illustrator 16.0.0, SVG Export Plug-In . SVG Version: 6.00 Build 0)  -->
<!DOCTYPE svg PUBLIC "-//W3C//DTD SVG 1.1//EN" "http://www.w3.org/Graphics/SVG/1.1/DTD/svg11.dtd">
<svg version="1.1" id="Calque_1" xmlns="http://www.w3.org/2000/svg" xmlns:xlink="http://www.w3.org/1999/xlink" x="0px" y="0px"
	 width="500px" height="500px" viewBox="0 0 500 500" enable-background="new 0 0 500 500" xml:space="preserve">
<g>
	<rect x="25.239" y="34.495" fill="#DB012C" width="450" height="431.914"/>
	<path fill="#FBF8F8" d="M100.2,443.921c-11.947,0-20.188-4.236-26.265-13.622c-4.842-7.557-6.797-15.229-6.797-26.104
		c0-17.064,6.077-31.716,18.027-38.586c5.353-3.089,9.886-4.121,16.375-4.121c9.372,0,18.128,3.436,25.03,10.075l-10.197,12.713
		c-3.813-4.125-9.166-6.188-14.626-6.188c-9.684,0-13.594,7.444-13.594,25.303c0,15.917,4.222,23.704,12.769,23.704
		c2.372,0,4.74-0.23,6.696-1.146v-12.595h-8.753l-2.061-16.26h29.253v38.929C117.814,441.633,109.474,443.921,100.2,443.921"/>
	<path fill="#FBF8F8" d="M156.547,379.578c5.769,0,8.55,1.833,8.55,7.553c0,5.387-2.162,8.707-8.448,8.707h-5.254v-16.26H156.547
		 M188.683,442.546c-2.365-5.954-8.445-20.72-10.813-26.104c-1.753-4.117-4.74-7.783-7.214-8.581
		c8.449-1.609,14.935-8.588,14.935-22.329c0-13.28-6.797-22.785-27.913-22.785h-24.719v79.8h18.436v-31.6
		c4.016,0,5.664,1.032,8.448,9.273l7.518,22.326H188.683z"/>
	<rect x="191.876" y="362.747" fill="#FBF8F8" width="18.853" height="79.797"/>
	<polygon fill="#FBF8F8" points="260.066,379.578 240.188,379.578 240.188,392.976 256.361,392.976 256.361,409.232 240.29,409.232 
		240.29,442.546 221.85,442.546 221.85,362.747 261.406,362.747 	"/>
	<polygon fill="#FBF8F8" points="304.155,379.578 284.274,379.578 284.274,392.976 300.446,392.976 300.446,409.232 
		284.375,409.232 284.375,442.546 265.939,442.546 265.939,362.747 305.491,362.747 	"/>
	<path fill="#FBF8F8" d="M337.427,427.78c-7.627,0-12.06-5.037-12.06-25.418c0-15.231,3.506-24.957,11.85-24.957
		c7.931,0,11.436,4.807,11.436,24.727C348.653,422.624,345.252,427.78,337.427,427.78 M337.116,443.921
		c25.649,0,32.139-21.409,32.139-44.31c0-17.516-7.108-38.236-31.52-38.236c-18.954,0-32.961,14.882-32.961,43.277
		C304.774,428.578,316.311,443.921,337.116,443.921"/>
	<path fill="#FBF8F8" d="M408.81,442.546l-12.671-27.706c-1.854-4.117-4.02-9.848-5.563-14.997
		c0.412,3.092,1.032,10.418,1.032,20.262v22.441h-17.513v-79.8h17.715l13.084,27.364c2.057,4.236,4.223,9.844,5.972,15.231
		c-0.511-4.698-0.619-12.598-0.619-17.862v-24.733h17.513v79.8H408.81"/>
	<path fill="#FBF8F8" d="M355.314,323.342v-7.214h5.775c2.26,0.063,4.184,1.329,4.261,3.551c-0.031,2.268-1.987,3.607-4.261,3.663
		H355.314 M355.314,337.119v-9.964l4.478,0.028c1.329,0,2.567,0.287,3.526,1.211c0.951,1.039,1.225,2.351,1.315,3.68l0.031,1.238
		l0.046,1.127c0.014,0.647,0.091,1.315,0.182,1.944c0.045,0.179,0.091,0.637,0.354,0.735h5.114
		c-0.599-0.818-0.672-2.176-0.672-3.155v-0.763l-0.045-0.882c-0.018-1.676-0.112-3.491-1.008-5.006
		c-0.829-1.169-2.187-1.631-3.548-1.837c1.298-0.255,2.414-0.86,3.362-1.714c1.13-1.025,2.105-2.554,2.138-4.026
		c-0.063-4.426-3.953-7.214-8.364-7.26h-12.206v24.643H355.314z M360.033,344.136c-5.496-0.06-10.655-2.151-14.518-5.759
		c-3.729-3.651-5.885-8.382-5.944-13.447c0-5.121,2.124-9.956,6.004-13.535c3.938-3.487,9.07-5.188,14.458-5.048
		c5.349,0.287,10.296,2.47,13.976,6.175c3.498,3.606,5.514,8.267,5.559,13.188c-0.045,4.877-2.061,9.463-5.621,12.93
		C370.223,342.184,365.319,344.035,360.033,344.136 M360.033,347.036c5.976-0.087,11.611-2.193,15.91-6.146
		c4.265-4.071,6.65-9.521,6.679-15.266c-0.042-5.653-2.383-11.021-6.476-15.18c-4.261-4.215-9.97-6.692-16.113-6.982
		c-6.199-0.144-12.107,1.879-16.609,5.943c-4.461,4.083-6.92,9.67-6.92,15.554c0.122,5.786,2.55,11.258,6.821,15.441
		C347.789,344.577,353.756,346.949,360.033,347.036"/>
	<path fill="#FBF8F8" d="M367.687,88.942c-51.708-0.542-119.526,1.074-119.526,1.074c-88.601,1.074-43.627,14.312-43.627,14.312
		c59.097,1.06-14.861,80.651-14.861,80.651c-17.607-17.171-5.496-33.155-5.496-33.155c7.633,0.42,22.522-15.898,22.522-15.898
		c-6.244,3.865-19.867,0-19.867,0c9.236,0,17.589-17.803,17.589-17.803c-11.891,4.817-23.82,2.882-23.82,2.882
		c-42.07-6.766-36.208,12.22-36.208,12.22c-53.786,0.595-31.033,25.018-31.033,25.018s-0.805-11.151,16.726-7.934
		c0,0,5.912,5.541,10.61,4.918c0,0-8.246,12.265-8.809,38.551c-0.658,30.533-4.597,55.436-4.597,55.436l-2.858,24.41l-8.001,35.696
		c0,0-22.385,1.76-19.622,29.952c0,0,7.682-16.868,16.536-16.868l-3.509,20.241l11.16-19.965c0,0,8.141-0.521,7.024,16.187
		c0,0,13.273-15.683,2.75-25.076l-4.044-2.771c-0.263-0.23,12.293-23.543,17.911-31.694c1.865-2.729,8.231-10.548,12.842-9.193
		c8.627,1.902,7.364,14.224,7.364,14.224l-3.544,28.627c0,0-22.116,3.925-16.187,33.01c0,0,5.174-18.205,14.368-19.073
		l-1.434,21.386l9.865-20.245c0,0,8.98-3.033,9.648,14.473c0,0,12.111-17.589,0.154-26.342l-4.583-2.974
		c-0.304-0.249,10.264-25.251,15.228-34.256c0.333-0.664,1.067-1.312,1.924-1.986c3.649-1.833,9.785-5.388,12.629-9.628
		c3.373-5.107,14.599-3.46,19.409-1.977c-0.304,4.646-0.154,26.276,28.347,41.627l0.207,19.579c0,0-9.848-2.714-14.217,13.273
		h29.708v-35.18c0,0-2.001-7.58-3.379-16.183c0.126,0.144,0.199,0.314,0.308,0.444c4.978,6.073,15.896,10.201,24.677,12.656
		c3.754,1.673,8.078,2.768,13.15,2.967v26.059c0,0-16.31-1.15-16.358,15.739h35.26v-61.416c0,0-32.8-21.903-32.111-38.133
		l-1.483-8.296c0,0-1.053-4.413,0.462-1.011c1.421,3.404,15.189,11.887,15.189,11.887c21.658,11.128,35.277-0.577,35.277-0.577
		c6.412-3.661,10.936-11.28,10.936-11.28c6.182-7.721,0.962-24.41,0.962-24.41c-16.967-42.392-2.582-42.135-2.582-42.135
		c15.393,4.508,17.807-28.737,17.807-28.737c-4.383,5.51-22.613,8.393-22.613,8.393c-10.795,2.153-4.54,16.652-4.54,16.652
		c-9.652,9.12,3.226,46.662,3.226,46.662c2.654,8.601-2.582,18.557-2.582,18.557c-11.286,17.471-32.496,5.333-32.496,5.333
		c-10.855-4.051-25.163-31.077-25.163-31.077c-6.465-9.463-13.444-9.65-13.444-9.65l-40.328,0.215
		c-16.127,0.143-3.939-3.979-1.574-5.771c18.146-5.961,25.29-5.338,25.29-5.338c20.083,0,27.822-12.508,29.641-16.101
		c1.133,0.014,2.306,0.014,3.666,0.014c20.339,0,28.431-11.947,30.922-16.879c1.221-0.073,2.554-0.119,4.215-0.19
		c19.241-1.011,23.516-19.621,24.31-24.152h3.348c22.848,0,28.417-12.176,29.624-20.218c44.589-6.673,49.463-33.869,49.463-33.869
		C416.034,84.987,367.687,88.942,367.687,88.942 M168.858,280.551c0.031,0,0.06,0.031,0.108,0.056l-0.291,0.084L168.858,280.551z"/>
</g>
</svg>
