<?xml version="1.0" encoding="utf-8"?>
<!-- Generator: Adobe Illustrator 19.1.0, SVG Export Plug-In . SVG Version: 6.00 Build 0)  -->
<svg version="1.1" id="Calque_1" xmlns="http://www.w3.org/2000/svg" xmlns:xlink="http://www.w3.org/1999/xlink" x="0px" y="0px"
	 viewBox="0 0 500 500" style="enable-background:new 0 0 500 500;" xml:space="preserve">
<style type="text/css">
	.st0{fill:#DB012C;}
	.st1{fill:#FBF8F8;}
</style>
<g>
	<rect x="25.2" y="34.5" class="st0" width="450" height="431.9"/>
	<path class="st1" d="M100.2,443.9c-11.9,0-20.2-4.2-26.3-13.6c-4.8-7.6-6.8-15.2-6.8-26.1c0-17.1,6.1-31.7,18-38.6
		c5.4-3.1,9.9-4.1,16.4-4.1c9.4,0,18.1,3.4,25,10.1l-10.2,12.7c-3.8-4.1-9.2-6.2-14.6-6.2c-9.7,0-13.6,7.4-13.6,25.3
		c0,15.9,4.2,23.7,12.8,23.7c2.4,0,4.7-0.2,6.7-1.1v-12.6h-8.8l-2.1-16.3h29.3V436C117.8,441.6,109.5,443.9,100.2,443.9"/>
	<path class="st1" d="M156.5,379.6c5.8,0,8.6,1.8,8.6,7.6c0,5.4-2.2,8.7-8.4,8.7h-5.3v-16.3H156.5 M188.7,442.5
		c-2.4-6-8.4-20.7-10.8-26.1c-1.8-4.1-4.7-7.8-7.2-8.6c8.4-1.6,14.9-8.6,14.9-22.3c0-13.3-6.8-22.8-27.9-22.8H133v79.8h18.4v-31.6
		c4,0,5.7,1,8.4,9.3l7.5,22.3H188.7z"/>
	<rect x="191.9" y="362.7" class="st1" width="18.9" height="79.8"/>
	<polygon class="st1" points="260.1,379.6 240.2,379.6 240.2,393 256.4,393 256.4,409.2 240.3,409.2 240.3,442.5 221.9,442.5 
		221.9,362.7 261.4,362.7 	"/>
	<polygon class="st1" points="304.2,379.6 284.3,379.6 284.3,393 300.4,393 300.4,409.2 284.4,409.2 284.4,442.5 265.9,442.5 
		265.9,362.7 305.5,362.7 	"/>
	<path class="st1" d="M337.4,427.8c-7.6,0-12.1-5-12.1-25.4c0-15.2,3.5-25,11.9-25c7.9,0,11.4,4.8,11.4,24.7
		C348.7,422.6,345.3,427.8,337.4,427.8 M337.1,443.9c25.6,0,32.1-21.4,32.1-44.3c0-17.5-7.1-38.2-31.5-38.2c-19,0-33,14.9-33,43.3
		C304.8,428.6,316.3,443.9,337.1,443.9"/>
	<path class="st1" d="M408.8,442.5l-12.7-27.7c-1.9-4.1-4-9.8-5.6-15c0.4,3.1,1,10.4,1,20.3v22.4h-17.5v-79.8h17.7l13.1,27.4
		c2.1,4.2,4.2,9.8,6,15.2c-0.5-4.7-0.6-12.6-0.6-17.9v-24.7h17.5v79.8L408.8,442.5"/>
	<path class="st1" d="M355.3,323.3v-7.2h5.8c2.3,0.1,4.2,1.3,4.3,3.6c0,2.3-2,3.6-4.3,3.7H355.3 M355.3,337.1v-10l4.5,0
		c1.3,0,2.6,0.3,3.5,1.2c1,1,1.2,2.4,1.3,3.7l0,1.2l0,1.1c0,0.6,0.1,1.3,0.2,1.9c0,0.2,0.1,0.6,0.4,0.7h5.1
		c-0.6-0.8-0.7-2.2-0.7-3.2v-0.8l0-0.9c0-1.7-0.1-3.5-1-5c-0.8-1.2-2.2-1.6-3.5-1.8c1.3-0.3,2.4-0.9,3.4-1.7c1.1-1,2.1-2.6,2.1-4
		c-0.1-4.4-4-7.2-8.4-7.3H350v24.6L355.3,337.1L355.3,337.1z M360,344.1c-5.5-0.1-10.7-2.2-14.5-5.8c-3.7-3.7-5.9-8.4-5.9-13.4
		c0-5.1,2.1-10,6-13.5c3.9-3.5,9.1-5.2,14.5-5c5.3,0.3,10.3,2.5,14,6.2c3.5,3.6,5.5,8.3,5.6,13.2c0,4.9-2.1,9.5-5.6,12.9
		C370.2,342.2,365.3,344,360,344.1 M360,347c6-0.1,11.6-2.2,15.9-6.1c4.3-4.1,6.6-9.5,6.7-15.3c0-5.7-2.4-11-6.5-15.2
		c-4.3-4.2-10-6.7-16.1-7c-6.2-0.1-12.1,1.9-16.6,5.9c-4.5,4.1-6.9,9.7-6.9,15.6c0.1,5.8,2.5,11.3,6.8,15.4
		C347.8,344.6,353.8,346.9,360,347"/>
	<path class="st1" d="M367.7,88.9C316,88.4,248.2,90,248.2,90c-88.6,1.1-43.6,14.3-43.6,14.3c59.1,1.1-14.9,80.7-14.9,80.7
		c-17.6-17.2-5.5-33.2-5.5-33.2c7.6,0.4,22.5-15.9,22.5-15.9c-6.2,3.9-19.9,0-19.9,0c9.2,0,17.6-17.8,17.6-17.8
		c-11.9,4.8-23.8,2.9-23.8,2.9c-42.1-6.8-36.2,12.2-36.2,12.2c-53.8,0.6-31,25-31,25s-0.8-11.2,16.7-7.9c0,0,5.9,5.5,10.6,4.9
		c0,0-8.2,12.3-8.8,38.6c-0.7,30.5-4.6,55.4-4.6,55.4l-2.9,24.4l-8,35.7c0,0-22.4,1.8-19.6,30c0,0,7.7-16.9,16.5-16.9l-3.5,20.2
		l11.2-20c0,0,8.1-0.5,7,16.2c0,0,13.3-15.7,2.8-25.1l-4-2.8c-0.3-0.2,12.3-23.5,17.9-31.7c1.9-2.7,8.2-10.5,12.8-9.2
		c8.6,1.9,7.4,14.2,7.4,14.2l-3.5,28.6c0,0-22.1,3.9-16.2,33c0,0,5.2-18.2,14.4-19.1l-1.4,21.4l9.9-20.2c0,0,9-3,9.6,14.5
		c0,0,12.1-17.6,0.2-26.3l-4.6-3c-0.3-0.2,10.3-25.3,15.2-34.3c0.3-0.7,1.1-1.3,1.9-2c3.6-1.8,9.8-5.4,12.6-9.6
		c3.4-5.1,14.6-3.5,19.4-2c-0.3,4.6-0.2,26.3,28.3,41.6l0.2,19.6c0,0-9.8-2.7-14.2,13.3h29.7v-35.2c0,0-2-7.6-3.4-16.2
		c0.1,0.1,0.2,0.3,0.3,0.4c5,6.1,15.9,10.2,24.7,12.7c3.8,1.7,8.1,2.8,13.1,3v26.1c0,0-16.3-1.1-16.4,15.7H320v-61.4
		c0,0-32.8-21.9-32.1-38.1l-1.5-8.3c0,0-1.1-4.4,0.5-1c1.4,3.4,15.2,11.9,15.2,11.9c21.7,11.1,35.3-0.6,35.3-0.6
		c6.4-3.7,10.9-11.3,10.9-11.3c6.2-7.7,1-24.4,1-24.4c-17-42.4-2.6-42.1-2.6-42.1c15.4,4.5,17.8-28.7,17.8-28.7
		c-4.4,5.5-22.6,8.4-22.6,8.4c-10.8,2.2-4.5,16.7-4.5,16.7c-9.7,9.1,3.2,46.7,3.2,46.7c2.7,8.6-2.6,18.6-2.6,18.6
		c-11.3,17.5-32.5,5.3-32.5,5.3c-10.9-4.1-25.2-31.1-25.2-31.1c-6.5-9.5-13.4-9.6-13.4-9.6l-40.3,0.2c-16.1,0.1-3.9-4-1.6-5.8
		c18.1-6,25.3-5.3,25.3-5.3c20.1,0,27.8-12.5,29.6-16.1c1.1,0,2.3,0,3.7,0c20.3,0,28.4-11.9,30.9-16.9c1.2-0.1,2.6-0.1,4.2-0.2
		c19.2-1,23.5-19.6,24.3-24.2h3.3c22.8,0,28.4-12.2,29.6-20.2c44.6-6.7,49.5-33.9,49.5-33.9C416,85,367.7,88.9,367.7,88.9
		 M168.9,280.6c0,0,0.1,0,0.1,0.1l-0.3,0.1L168.9,280.6z"/>
</g>
</svg>
