<?xml version="1.0" encoding="utf-8"?>
<!-- Generator: Adobe Illustrator 19.1.0, SVG Export Plug-In . SVG Version: 6.00 Build 0)  -->
<svg version="1.1" id="Calque_2" xmlns="http://www.w3.org/2000/svg" xmlns:xlink="http://www.w3.org/1999/xlink" x="0px" y="0px"
	 viewBox="0 0 500 500" style="enable-background:new 0 0 500 500;" xml:space="preserve">
<style type="text/css">
	.st0{fill:#F49F1E;}
	.st1{fill:#FFFFFF;}
</style>
<g>
	<rect x="47" y="185" class="st0" width="406" height="130"/>
	<g>
		<polygon class="st1" points="193.8,223.2 213.5,223.2 202.8,267.6 183.1,267.6 		"/>
		<polygon class="st1" points="198.2,207.4 217.9,207.4 215,218.8 195.3,218.8 		"/>
		<polygon class="st1" points="278.9,242.8 302.1,242.8 299.2,254.1 275.9,254.1 		"/>
		<path class="st1" d="M421.4,223.2h-10.1c-4.9,0-9.9,2.1-13.8,5.4l1.3-5.4h-19.7l-10.7,44.3h14.9h4.7h0.4l6-24.4
			c1.1-4.5,5.9-8.3,10.5-8.3h3c4.7,0,7.6,3.7,6.5,8.3l-6,24.4h18.2l0.7,0.3l6.9-28.2C436.6,230.7,430.8,223.2,421.4,223.2z"/>
		<path class="st1" d="M254.4,223.2h-33.6l-3.1,12.8h28.3c6.2,0,9.9,4.8,8.2,10.6s-8.2,10.6-14.4,10.6h-9.2l3.5-14.4h-18l-12,49.8
			l19.9-7.7l4.2-17.3h15.6c12.5,0,25.1-9.9,28-22l0.1-0.2C274.7,233.2,266.9,223.2,254.4,223.2z"/>
		<path class="st1" d="M105.4,235.8l-2.3,10.3h11.1l-3,12.7c-14,0.4-26.1-5.8-26.1-17.5c0-18,17.6-21.9,29.2-21.9
			c7.1,0,13,0.7,17.7,2.2c0,0,1.2,0.3,2.4,1.6l3.9-12.4c-7.3-2.4-16.5-3.4-27.5-3.4c-18,0-45.5,6.1-45.5,34.2
			c0,19.1,20.7,28.7,43.8,27.1h19.5l5.4-22.6h0.1l2.3-10.3h-19.7H105.4z"/>
		<path class="st1" d="M345.8,222.7h-5.4c-15.6,0-30.8,10.4-33.8,23.1c-3,12.7,7.3,23.1,22.9,23.1h5.4c15.6,0,30.8-10.4,33.8-23.1
			C371.7,233.1,361.4,222.7,345.8,222.7z M349,245.8c-1.1,6.3-7.1,11.4-13.3,11.4s-10.4-5.1-9.3-11.4c1.1-6.3,7.1-11.4,13.3-11.4
			S350.1,239.5,349,245.8z"/>
		<g>
			<path class="st1" d="M181.1,237.3l3.4-14H179c-4.9,0-9.9,2.1-13.8,5.4l1.3-5.4h-19.7l-10.7,44.3h14.9h4.7h0.4l6-24.4
				c1.1-4.5,5.9-8.3,10.5-8.3h3C178.1,234.9,179.9,235.8,181.1,237.3z"/>
		</g>
	</g>
	<g>
		<path class="st1" d="M434.9,205.1c4,0,7.2,3.3,7.2,7.3c0,4.1-3.2,7.3-7.2,7.3c-4,0-7.3-3.2-7.3-7.3
			C427.6,208.4,430.9,205.1,434.9,205.1L434.9,205.1z M434.9,206.3c-3.2,0-5.9,2.8-5.9,6.2c0,3.5,2.6,6.2,5.9,6.2
			c3.3,0,5.9-2.7,5.9-6.2C440.7,209,438.1,206.3,434.9,206.3L434.9,206.3L434.9,206.3z M433.5,216.7h-1.3v-8.2
			c0.7-0.1,1.3-0.2,2.3-0.2c1.2,0,2,0.3,2.5,0.6c0.5,0.4,0.7,0.9,0.7,1.7c0,1.1-0.7,1.7-1.6,2v0.1c0.7,0.1,1.2,0.8,1.4,2
			c0.2,1.3,0.4,1.8,0.5,2h-1.4c-0.2-0.3-0.4-1-0.6-2.1c-0.2-1-0.7-1.4-1.8-1.4h-0.9V216.7z M433.5,212.2h0.9c1.1,0,2-0.4,2-1.4
			c0-0.7-0.5-1.4-2-1.4c-0.4,0-0.7,0-0.9,0.1V212.2z"/>
	</g>
</g>
</svg>
