<?xml version="1.0" encoding="utf-8"?>
<!-- Generator: Adobe Illustrator 21.0.2, SVG Export Plug-In . SVG Version: 6.00 Build 0)  -->
<svg version="1.1" id="Calque_2" xmlns="http://www.w3.org/2000/svg" xmlns:xlink="http://www.w3.org/1999/xlink" x="0px" y="0px"
	 viewBox="0 0 500 132" style="enable-background:new 0 0 500 132;" xml:space="preserve">
<style type="text/css">
	.st0{fill:#0072BA;}
</style>
<path class="st0" d="M270.8,19.1c7.2,0,13.2,2.3,16.7,6.4c1.6,2,2.7,4.5,3,6.9c14.6,0,165.1,0,165.1,0c6.7,0,12.5,2.7,15.9,7.7
	c3.8,5.2,4.5,12.1,2,19.1l-11.4,31.9c-4.4,12.2-17.5,21.7-29.9,21.7H44.4c-6.7,0-12.5-2.8-16-7.7c-2.1-3-3.2-6.5-3.4-10.4
	c-0.1-2.8,0.4-5.8,1.5-8.7l11.4-31.9c4.4-12.2,17.4-21.7,29.9-21.7c0,0,169.8,0,177.5,0c0.2-0.2,0.5-0.9,0.5-0.9
	C249.7,24.2,259.7,19.1,270.8,19.1 M252,35.1l-2.3,4.4H68c-9.7,0-20.2,7.8-23.6,17.2L33,88.7c-3.4,9.5,1.6,17.2,11.1,17.2h387.8
	c9.6,0,20.2-7.7,23.6-17.2l11.3-32c3.5-9.4-1.5-17.2-11-17.2H282.6l0.9-4.4c1-5.3-4.2-8.9-12.4-8.9C262.5,26.1,254.7,29.7,252,35.1z
	"/>
<path class="st0" d="M285.9,81.9l-6.8,18.8h-19.4l6.8-18.8l0,0l13.3-37.1h78.3c6.6,0,10,5.3,7.7,11.9l-4.6,13.1
	c-2.4,6.6-9.6,12.1-16.4,12.1 M293.6,59.8c-3.6,10.4,1.1-3-2.6,7.4c16.6,0,47.5,0,51.6,0c1.6-4.8,0.9-2.7,2.6-7.4
	C341.1,59.8,310.4,59.8,293.6,59.8z"/>
<path class="st0" d="M381.7,81.9l-6.7,18.8h-19.3l6.8-18.8l0,0l13.1-37.1h78.2c6.6,0,10,5.3,7.7,11.9l-4.7,13.1
	c-2.3,6.6-9.6,12.1-16.3,12.1 M389.5,59.8c-3.6,10.4,1-3-2.5,7.4c16.7,0,47.6,0,51.6,0c1.6-4.8,0.9-2.7,2.6-7.4
	C437.1,59.8,406.2,59.8,389.5,59.8z"/>
<polyline class="st0" points="253.9,100.7 234.6,100.7 254.5,44.8 274,44.8 "/>
<path class="st0" d="M256.7,36.4c0.9-2.8,6.5-5.1,12.4-5.1c5.8,0,9.8,2.3,8.7,5.1c-1,2.8-6.5,5-12.4,5
	C259.6,41.5,255.6,39.2,256.7,36.4"/>
<path class="st0" d="M236.2,44.8h-82.4l-7.9,22.5H83.4L78,82.4h37.3c-0.3,1-0.8,2.2-1.2,3.4H58.7c1.6-4.5,7.7-21.2,9.3-26h74.6
	l5.6-15.1H66.1c-6.7,0-14,5.3-16.4,11.9L38.2,88.9c-2.4,6.6,1.1,11.9,7.7,11.9H128l6.7-18.5h5.7l-6.6,18.2h19.3l6.7-18.8h25.4
	l19.2,18.8H230l-19-18.6h12c6.7,0,14-5.5,16.3-12.1l4.6-13.1C246.2,50.1,242.8,44.8,236.2,44.8 M220.8,67.3h-55.7
	c0.5-1.5,0.9-2.5,1.1-3.3c0,0,0.1-0.3,0.4-1c0.2-0.6,0.6-1.6,1.1-3.1h55.6C221.7,64.6,222.4,62.5,220.8,67.3z"/>
</svg>
