<?xml version="1.0" encoding="utf-8"?>
<!-- Generator: Adobe Illustrator 21.0.2, SVG Export Plug-In . SVG Version: 6.00 Build 0)  -->
<svg version="1.1" id="Calque_2" xmlns="http://www.w3.org/2000/svg" xmlns:xlink="http://www.w3.org/1999/xlink" x="0px" y="0px"
	 viewBox="0 0 500 188" style="enable-background:new 0 0 500 188;" xml:space="preserve">
<style type="text/css">
	.st0{fill:#E2001A;}
</style>
<path class="st0" d="M475,40.9h-46.8L393,76.8l8.5-35.9h-42.9l-3.7,15.8c-3.8-9.3-16-15.8-31.9-15.8h-22.1h-8.8h-34.2l-8.3,35h-38.5
	h-23.8L183,94.7h22.4c-5.5,5.5-13.8,9.2-22.4,9.2c-13.4,0-22.4-8.9-20-19.8c2.4-10.9,15.1-19.8,28.5-19.8c7.3,0,13.2,2.6,16.8,6.8
	l44-11.6c-8.3-13.1-27.9-21.9-53-21.9c-37.7,0-73.6,19.8-80.3,44.3c-6.6,24.5,18.6,44.3,56.3,44.3c27,0,53.1-10.2,68.2-24.9
	l-5.7,23.9h42.9l6.7-28.2l13.1,28.2h37.9h14h29l8.2-34.7l20.9,34.7h49.2l-32-43.8L475,40.9z M312.9,70.5c-1,4.2-7,7.6-13.2,7.6h-8.8
	l3.6-15.2h8.9C309.7,62.9,313.9,66.4,312.9,70.5z M326.2,91.4c9.7-2.7,18.2-7.6,23.7-13.8l-8,33.7L326.2,91.4z"/>
<path class="st0" d="M40.2,102.2c0.3-31.9,77.5-75,190.5-76.9c-2.5-0.1-5-0.1-7.6-0.1C105.9,25.2,25.3,69.5,25,102.1
	s63.1,59.7,141.7,60.5c3.1,0,6.2,0,9.4-0.1C100.2,160.6,39.9,134,40.2,102.2z"/>
<path class="st0" d="M65.7,96.6C66,67.4,136.8,28,240.5,26.5c-2.1,0-4.1-0.1-6.2-0.1C127.5,26.4,54,66.8,53.7,96.5
	c-0.3,29.7,57.5,54.5,129.2,55.2c2.6,0,5.2,0,7.9-0.1C120.9,150.1,65.4,125.8,65.7,96.6z"/>
<path class="st0" d="M211.2,137.3C146,136.6,93.4,114.7,93.6,88.4c0.2-24.4,57.6-56.8,143.2-61.5c-93,1.8-156.4,36.3-156.7,62
	c-0.3,26.3,52.4,48.2,117.6,48.9c5.1,0.1,10.4-0.1,15.8-0.5C212.8,137.2,212,137.3,211.2,137.3z"/>
</svg>
