<?xml version="1.0" encoding="utf-8"?>
<!-- Generator: Adobe Illustrator 21.0.2, SVG Export Plug-In . SVG Version: 6.00 Build 0)  -->
<svg version="1.1" id="Calque_2" xmlns="http://www.w3.org/2000/svg" xmlns:xlink="http://www.w3.org/1999/xlink" x="0px" y="0px"
	 viewBox="0 0 500 305.8" style="enable-background:new 0 0 500 305.8;" xml:space="preserve">
<style type="text/css">
	.st0{fill:#E52527;}
	.st1{fill:#050902;}
</style>
<g>
	<path class="st0" d="M206.8,58.6c18.7,0,26.7,7,26.7,7l-6.6-33.2c0,0-3.9-9.3-19.4-10.1c-9.4-0.5-27.6-3.1-65.1,25.9l6.3,34.1
		C148.6,82.3,176.3,58.6,206.8,58.6z"/>
	<path class="st0" d="M128.7,152.3l-18.6-1.8c-8.9,3.6-25.5,11.1-25.5,11.1c9.5,0.1,16.3,0.8,16.3,0.8
		C114.7,155.3,128.7,152.3,128.7,152.3z"/>
	<path class="st1" d="M183.7,144c0,0,1.1-2.1,1-2.2c-24.6-17-25.6-64.2-25.6-64.2l-5.7,3.8c0,0,2.2,18.2,7.5,34.6
		C169.5,142.1,183.7,144,183.7,144z"/>
	<path class="st0" d="M195.1,162.3c25.6-0.1,29.5-20.8,29.5-20.8l-1.6-3.9c0,0-8,11.4-28.1,11.4c-17.7,0-25-10.9-27.2-13.6l-2.5,11
		C165.3,146.4,171.3,162.4,195.1,162.3z"/>
	<path class="st1" d="M61.4,231.5v17.6h17.3c0,0,0,15.7-16.3,15.7s-23-14.2-23-28c0-13.9,8.3-27.7,21.5-27.7
		c13.3,0,18.1,14.2,18.1,14.2l20.3-9.2c0,0-6.5-17.6-24.5-22.7c-9.6-2.7-37.2-5.2-51.5,19.7c-7.6,13.2-9.4,41.5,3.8,56.9
		c11.6,13.5,31.8,21.4,53.9,11.1c10.7-5,23.9-19.7,22.9-47.6H61.4z"/>
	<path class="st0" d="M296,141.7c-47.1-5.4-69.9,2.5-69.9,2.5c-2.3,12.3-10.2,21.1-33.5,21.1c-23.3,0-29.1-16.7-29.1-16.7
		c-36.9,8.7-51.5,16.3-51.4,16.3c48.9,6.5,69.9,23.3,69.9,23.3C236.2,158.7,296.1,141.7,296,141.7z"/>
	<polygon class="st1" points="448.5,192.4 430.8,239.8 413.8,192.4 392.7,192.4 378.5,280.6 400.2,280.6 407,229.7 426.1,280.6 
		434.8,280.6 454.9,229.6 461,280.6 482.6,280.6 469.8,192.4 	"/>
	<path class="st1" d="M327.7,189.4c-25.4,0-46,21.1-46,47.1s20.6,47.1,46,47.1s46-21.1,46-47.1S353.1,189.4,327.7,189.4z
		 M327.6,261.3c-13,0-23.5-11.1-23.5-24.8c0-13.7,10.5-24.8,23.5-24.8c13,0,23.5,11.1,23.5,24.8
		C351.1,250.2,340.6,261.3,327.6,261.3z"/>
	<path class="st1" d="M230.5,189.4c-25.4,0-46,21.1-46,47.1s20.6,47.1,46,47.1c25.4,0,46-21.1,46-47.1S255.9,189.4,230.5,189.4z
		 M230.4,261.3c-13,0-23.5-11.1-23.5-24.8c0-13.7,10.5-24.8,23.5-24.8c13,0,23.5,11.1,23.5,24.8
		C253.9,250.2,243.3,261.3,230.4,261.3z"/>
	<path class="st1" d="M174.7,219.4c0-18.4-13.6-27-26.4-27c-14.6,0-34.6-0.1-34.6-0.1v88.4h21.5v-34l20.5,34h26.6l-25.8-36.1
		C162.9,244.5,174.7,236.8,174.7,219.4z M150.9,227.2c-3,6.2-15.7,5-15.7,5V210c4.1,0,9.9-0.1,14,3
		C153.3,216.2,152.7,223.3,150.9,227.2z"/>
	<path class="st1" d="M231,51.8c-0.3-1.4-0.6-2.8-1.1-4.2c-17.6-8.3-28-6.3-40.8-5.1c-10.8,1.1-35.4,16.4-43.8,21.6
		c0.3,1.4,0.5,2.9,0.8,4.3c2-1.4,4.2-2.9,6.6-4.6C197,32.6,226.4,48.9,231,51.8z"/>
</g>
</svg>
