<?xml version="1.0" encoding="utf-8"?>
<!-- Generator: Adobe Illustrator 19.1.0, SVG Export Plug-In . SVG Version: 6.00 Build 0)  -->
<svg version="1.1" id="Calque_2" xmlns="http://www.w3.org/2000/svg" xmlns:xlink="http://www.w3.org/1999/xlink" x="0px" y="0px"
	 viewBox="0 0 500 500" style="enable-background:new 0 0 500 500;" xml:space="preserve">
<style type="text/css">
	.st0{fill:#004880;}
</style>
<g>
	<path class="st0" d="M182.1,310.6v16.9c0,4.5-1.1,6.4-3.4,8.4c-3.7,3-10.7,4.3-18.9,4.3c-8.2,0-15-1.3-18.6-4.3
		c-2.3-1.9-3.5-3.9-3.5-8.4v-16.9h15.2v15.8c0,5.5,2.4,7.2,7,7.2c4.6,0,7-1.7,7-7.2v-15.8H182.1"/>
	<polyline class="st0" points="223.2,339.4 201.6,324.8 201.6,339.4 192.6,339.4 192.6,310.6 205.6,310.6 227.2,325.3 227.2,310.6 
		236.2,310.6 236.2,339.4 223.2,339.4 	"/>
	<path class="st0" d="M247.5,310.6v28.7h23.7c17.3,0,25.3-3.1,25.3-14.4c0-11.3-8-14.3-25.3-14.3H247.5 M262.7,317.2h7
		c6.9,0,10.8,1.7,10.8,7.8c0,5.7-3.9,7.8-10.8,7.8h-7L262.7,317.2z"/>
	<path class="st0" d="M403.2,324.8c0-9.2-8.3-15-26.9-15c-18.9,0-27.1,5.7-27.1,15c0,10.4,8.2,15.4,27.1,15.4
		C394.9,340.2,403.2,335.2,403.2,324.8 M386.6,325c0,6.4-3.2,8.7-10.5,8.7c-6.5,0-10.4-2.3-10.4-8.7c0-6.4,3.9-8.6,10.4-8.6
		C382.8,316.4,386.6,318.6,386.6,325z"/>
	<path class="st0" d="M104.7,325.5l9.4,13.9h16.6l-9.7-12.4c1.6-0.2,7.8-0.7,7.8-8.1c0-8.1-9.7-8.2-16-8.2H84.6v28.7h15l0-22.8h7
		c3.4,0,6.4,0.6,6.4,4C113.1,324.4,111.8,325.5,104.7,325.5"/>
	<polyline class="st0" points="321.2,317.5 341.9,317.5 346.2,310.6 305.8,310.6 305.8,339.4 321.2,339.4 321.2,331 338,331 
		342.3,324.2 321.2,324.2 321.2,317.5 	"/>
	<path class="st0" d="M25,325.3c0,10.5,8.5,14.7,27.3,14.7c8.2,0,15.8-0.5,22-1.7V325H59.2v8c-1.9,0.2-3.3,0.4-5.4,0.4
		c-10.5,0-12.6-3.8-12.6-8.2c0-4.2,2.4-8.4,13.6-8.4c6.2,0,9.9,0.4,15.5,1.3l4.3-6.8c-9.7-1.2-16.6-1.3-22.2-1.3
		C33.7,310,25,314.9,25,325.3"/>
	<path class="st0" d="M408.9,339.4c6.6,0.6,9.5,1,21.6,1c17.6,0,25.3-2.5,25.3-9.6c0-6.3-8.5-7.8-16.4-8.9c-6.5-1-10.4-0.9-10.4-3.6
		c0-2.7,6.8-2.5,11.1-2.5c2.3,0,7.6,0.3,11.1,1l3.7-6.1c-2.9-0.3-10.8-1-19.5-1c-15.8,0-25.4,2.3-25.4,8.5c0,6.6,8.4,7.5,16.6,8.8
		c6.6,1,10.2,0.9,10.2,3.5c0,2.9-5.8,3.1-11.7,3.1c-2.5,0-7.6-0.3-12-1.3L408.9,339.4"/>
	<g>
		<path class="st0" d="M223.5,235.5c2,1.3,5.5,4.4,8.2,7.2c2.6,2.6,6,6.1,7.4,8.2l-29.3,29.3h-31.2L223.5,235.5"/>
		<path class="st0" d="M299.4,159.6c0,0,0,31.1,0,31.2c-0.1,0.1-46.9,46.9-46.9,46.9c-2.5-2.6-4.8-5-7.4-7.6
			c-26.5-26.1-53.7-41.4-61-34.3c-5.6,5.6,2.6,22.8,18,41.7l-6.4,6.4c-11.8-14.1-20.9-28.5-25.7-40.6c-3.7-9.4-6.1-21.1,0-27.2
			c5.4-5.4,16.5-4.9,31,1.6c14.7,6.6,31.6,18.5,47.1,33.1L299.4,159.6"/>
		<path class="st0" d="M273.1,237c10.7,12.7,22.2,30.8,26.3,43.2h-17.3c-3.8-9.7-13.1-23.9-20.6-31.6L273.1,237"/>
	</g>
	<path class="st0" d="M470.2,310.4c-1.1,0-2,0.4-2.8,1.2c-0.8,0.8-1.2,1.7-1.2,2.8c0,1.1,0.4,2,1.2,2.8c0.8,0.8,1.7,1.2,2.8,1.2
		c1.1,0,2-0.4,2.8-1.2c0.8-0.8,1.2-1.7,1.2-2.8c0-1.1-0.4-2-1.2-2.8C472.2,310.8,471.3,310.4,470.2,310.4 M470.2,309.7
		c0.9,0,1.6,0.2,2.4,0.6c0.7,0.4,1.3,1,1.8,1.8c0.4,0.7,0.6,1.5,0.6,2.4c0,0.9-0.2,1.6-0.6,2.4c-0.4,0.7-1,1.3-1.7,1.7
		c-0.7,0.4-1.5,0.6-2.4,0.6c-0.9,0-1.7-0.2-2.4-0.6c-0.7-0.4-1.3-1-1.7-1.7c-0.4-0.7-0.6-1.5-0.6-2.4c0-0.9,0.2-1.7,0.6-2.4
		c0.4-0.7,1-1.3,1.8-1.7C468.6,309.9,469.4,309.7,470.2,309.7z"/>
	<path class="st0" d="M470.3,312.6c0.7,0,1,0.2,1,0.7c0,0.7-0.5,0.7-1.2,0.7c0,0-0.7,0-0.8,0c0-0.1,0-1.3,0-1.4
		C469.4,312.6,470.3,312.6,470.3,312.6 M468.5,311.7L468.5,311.7l-0.1,5.3h0.9c0,0,0-2.1,0-2.2c0.1,0,0.7,0,0.8,0
		c0,0.1,1.3,2.2,1.3,2.2h1.1c0,0-1.4-2.1-1.5-2.3c0.8-0.1,1.3-0.6,1.3-1.5c0-1-0.6-1.5-1.9-1.5H468.5z"/>
</g>
</svg>
