<?xml version="1.0" encoding="utf-8"?>
<!-- Generator: Adobe Illustrator 21.0.2, SVG Export Plug-In . SVG Version: 6.00 Build 0)  -->
<svg version="1.1" id="Calque_2" xmlns="http://www.w3.org/2000/svg" xmlns:xlink="http://www.w3.org/1999/xlink" x="0px" y="0px"
	 viewBox="0 0 500 228" style="enable-background:new 0 0 500 228;" xml:space="preserve">
<style type="text/css">
	.st0{fill:#004880;}
</style>
<path class="st0" d="M182.1,174.6v16.9c0,4.5-1.1,6.4-3.4,8.4c-3.7,3-10.7,4.3-18.9,4.3s-15-1.3-18.6-4.3c-2.3-1.9-3.5-3.9-3.5-8.4
	v-16.9h15.2v15.8c0,5.5,2.4,7.2,7,7.2s7-1.7,7-7.2v-15.8H182.1"/>
<polyline class="st0" points="223.2,203.4 201.6,188.8 201.6,203.4 192.6,203.4 192.6,174.6 205.6,174.6 227.2,189.3 227.2,174.6 
	236.2,174.6 236.2,203.4 223.2,203.4 "/>
<path class="st0" d="M247.5,174.6v28.7h23.7c17.3,0,25.3-3.1,25.3-14.4s-8-14.3-25.3-14.3L247.5,174.6 M262.7,181.2h7
	c6.9,0,10.8,1.7,10.8,7.8c0,5.7-3.9,7.8-10.8,7.8h-7V181.2z"/>
<path class="st0" d="M403.2,188.8c0-9.2-8.3-15-26.9-15c-18.9,0-27.1,5.7-27.1,15c0,10.4,8.2,15.4,27.1,15.4
	C394.9,204.2,403.2,199.2,403.2,188.8 M386.6,189c0,6.4-3.2,8.7-10.5,8.7c-6.5,0-10.4-2.3-10.4-8.7c0-6.4,3.9-8.6,10.4-8.6
	C382.8,180.4,386.6,182.6,386.6,189z"/>
<path class="st0" d="M104.7,189.5l9.4,13.9h16.6L121,191c1.6-0.2,7.8-0.7,7.8-8.1c0-8.1-9.7-8.2-16-8.2H84.6v28.7h15v-22.8h7
	c3.4,0,6.4,0.6,6.4,4C113.1,188.4,111.8,189.5,104.7,189.5"/>
<polyline class="st0" points="321.2,181.5 341.9,181.5 346.2,174.6 305.8,174.6 305.8,203.4 321.2,203.4 321.2,195 338,195 
	342.3,188.2 321.2,188.2 321.2,181.5 "/>
<path class="st0" d="M25,189.3c0,10.5,8.5,14.7,27.3,14.7c8.2,0,15.8-0.5,22-1.7V189H59.2v8c-1.9,0.2-3.3,0.4-5.4,0.4
	c-10.5,0-12.6-3.8-12.6-8.2c0-4.2,2.4-8.4,13.6-8.4c6.2,0,9.9,0.4,15.5,1.3l4.3-6.8c-9.7-1.2-16.6-1.3-22.2-1.3
	C33.7,174,25,178.9,25,189.3"/>
<path class="st0" d="M408.9,203.4c6.6,0.6,9.5,1,21.6,1c17.6,0,25.3-2.5,25.3-9.6c0-6.3-8.5-7.8-16.4-8.9c-6.5-1-10.4-0.9-10.4-3.6
	s6.8-2.5,11.1-2.5c2.3,0,7.6,0.3,11.1,1l3.7-6.1c-2.9-0.3-10.8-1-19.5-1c-15.8,0-25.4,2.3-25.4,8.5c0,6.6,8.4,7.5,16.6,8.8
	c6.6,1,10.2,0.9,10.2,3.5c0,2.9-5.8,3.1-11.7,3.1c-2.5,0-7.6-0.3-12-1.3L408.9,203.4"/>
<path class="st0" d="M223.5,99.5c2,1.3,5.5,4.4,8.2,7.2c2.6,2.6,6,6.1,7.4,8.2l-29.3,29.3h-31.2L223.5,99.5"/>
<path class="st0" d="M299.4,23.6c0,0,0,31.1,0,31.2c-0.1,0.1-46.9,46.9-46.9,46.9c-2.5-2.6-4.8-5-7.4-7.6
	c-26.5-26.1-53.7-41.4-61-34.3c-5.6,5.6,2.6,22.8,18,41.7l-6.4,6.4c-11.8-14.1-20.9-28.5-25.7-40.6c-3.7-9.4-6.1-21.1,0-27.2
	c5.4-5.4,16.5-4.9,31,1.6c14.7,6.6,31.6,18.5,47.1,33.1L299.4,23.6"/>
<path class="st0" d="M273.1,101c10.7,12.7,22.2,30.8,26.3,43.2h-17.3c-3.8-9.7-13.1-23.9-20.6-31.6L273.1,101"/>
<path class="st0" d="M470.2,174.4c-1.1,0-2,0.4-2.8,1.2c-0.8,0.8-1.2,1.7-1.2,2.8c0,1.1,0.4,2,1.2,2.8c0.8,0.8,1.7,1.2,2.8,1.2
	c1.1,0,2-0.4,2.8-1.2c0.8-0.8,1.2-1.7,1.2-2.8c0-1.1-0.4-2-1.2-2.8C472.2,174.8,471.3,174.4,470.2,174.4 M470.2,173.7
	c0.9,0,1.6,0.2,2.4,0.6c0.7,0.4,1.3,1,1.8,1.8c0.4,0.7,0.6,1.5,0.6,2.4s-0.2,1.6-0.6,2.4c-0.4,0.7-1,1.3-1.7,1.7
	c-0.7,0.4-1.5,0.6-2.4,0.6s-1.7-0.2-2.4-0.6c-0.7-0.4-1.3-1-1.7-1.7c-0.4-0.7-0.6-1.5-0.6-2.4s0.2-1.7,0.6-2.4
	c0.4-0.7,1-1.3,1.8-1.7C468.6,173.9,469.4,173.7,470.2,173.7z"/>
<path class="st0" d="M470.3,176.6c0.7,0,1,0.2,1,0.7c0,0.7-0.5,0.7-1.2,0.7c0,0-0.7,0-0.8,0c0-0.1,0-1.3,0-1.4
	C469.4,176.6,470.3,176.6,470.3,176.6 M468.5,175.7L468.5,175.7l-0.1,5.3h0.9c0,0,0-2.1,0-2.2c0.1,0,0.7,0,0.8,0
	c0,0.1,1.3,2.2,1.3,2.2h1.1c0,0-1.4-2.1-1.5-2.3c0.8-0.1,1.3-0.6,1.3-1.5c0-1-0.6-1.5-1.9-1.5H468.5z"/>
</svg>
