<?xml version="1.0" encoding="utf-8"?>
<!-- Generator: Adobe Illustrator 21.1.0, SVG Export Plug-In . SVG Version: 6.00 Build 0)  -->
<svg version="1.1" id="Calque_1" xmlns="http://www.w3.org/2000/svg" xmlns:xlink="http://www.w3.org/1999/xlink" x="0px" y="0px"
	 viewBox="0 0 500 154" style="enable-background:new 0 0 500 154;" xml:space="preserve">
<g>
	<path d="M14.3,61c0.5-3.8,0.8-7.6,1.5-11.3c1.9-10.5,6.7-18.8,17.8-21.8c3.7-1,7.5-1.7,11.2-2c13.1-0.8,26.3-1.7,39.5-1.9
		c15.1-0.1,30.3,0.2,45.4,1c6.3,0.3,12.6,1.9,18.8,3.5c9.3,2.5,14,9.3,15.2,18.5c0.6,4.4,0.7,8.9,1,13.6c-11.8,0-23.1,0-34.5,0
		c-0.2-1.3-0.4-2.5-0.5-3.7c-0.1-3.1-1.8-5.1-4.6-5.7c-3.2-0.7-6.6-1.1-9.9-1.2c-11-0.3-21.9-0.6-32.9-0.4
		c-7.6,0.1-15.2,0.7-22.8,1.3c-5.9,0.5-9.2,4.2-9.9,11.5c-1.1,10.7-1.2,21.4,0.3,32.1c0.8,5.9,3.8,9.1,9.8,9.7
		c5.7,0.6,11.6,0.8,17.3,0.8c14.4,0,28.8-0.3,43.2-0.5c0.3,0,0.6,0,0.9-0.1c7.4-0.5,9.5-2.6,9.9-9.9c0.1-1.2,0-2.4,0-3.8
		c-15,0-30,0-45.1,0c0-6.9,0-13.5,0-20.4c26.2,0,52.4,0,78.8,0c0.1,1.1,0.2,2.3,0.1,3.4c-0.3,9.8-0.5,19.6-1,29.4
		c-0.4,8.2-3,15.4-10.5,19.9c-5.2,3.1-11,4.6-16.9,5.1c-9,0.7-18.1,1.1-27.1,1.7c-0.7,0-1.3,0.2-2,0.3c-13.3,0-26.5,0-39.8,0
		c-1.7-0.2-3.3-0.4-5-0.5c-9-0.4-18.1-0.5-26.9-2.8c-9.5-2.4-16.6-7.5-19-17.6c-0.9-3.8-1.2-7.8-1.7-11.7c-0.3-2.4-0.3-4.8-0.5-7.2
		C14.3,80.5,14.3,70.7,14.3,61z"/>
	<path d="M321.2,25.3c1.2,0,1.9,0,2.6,0c11,0,21.9,0,32.9,0c1.9,0,2.9,0.6,3.7,2.2c11.6,21.8,23.2,43.5,34.8,65.2
		c1.4,2.6,2.9,5,4,7.7c1.2,2.8,3.4,2.1,5.6,2.3c1.9,0.2,2.6-0.9,3.4-2.3c12.8-24.3,25.7-48.5,38.5-72.8c0.9-1.6,1.8-2.3,3.6-2.3
		c10.9,0.1,21.8,0,32.7,0c0.7,0,1.5,0,2.6,0c-2.4,4.4-4.5,8.5-6.7,12.6c-15.8,29.5-31.6,59-47.4,88.5c-0.8,1.5-1.8,2.2-3.6,2.2
		c-16.2-0.1-32.3-0.1-48.5,0c-1.8,0-2.7-0.7-3.6-2.2c-16.6-30.7-33.3-61.4-50-92.1C324.5,31.5,323,28.6,321.2,25.3z"/>
	<path d="M310,25.5c0,8.6,0,17.1,0,25.9c-16.7,0-33.3,0-50.3,0c0,1.3,0,2.3,0,3.2c0,23.7,0,47.4,0,71.1c0,2.2-0.6,2.8-2.8,2.8
		c-10.4-0.1-20.7-0.1-31.1-0.1c-0.7,0-1.5,0-2.5,0c0-25.6,0-51,0-76.8c-1.1,0-2,0-2.8,0c-15.1,0-30.2,0-45.3,0c-2,0-2.6-0.5-2.6-2.6
		c0.1-7.1,0-14.2,0-21.3c0-0.7,0.1-1.5,0.1-2.4C218.7,25.5,264.2,25.5,310,25.5z"/>
	<path d="M466.9,124.5c-6.9,0-12.2-5.3-12.2-12.1c0-6.8,5.5-12.1,12.5-12c6.9,0,12.1,5.4,12,12.3
		C479.2,119.5,473.9,124.5,466.9,124.5z M467.1,122.4c5.3,0,9.5-4.4,9.5-9.9c0-5.5-4.2-9.9-9.5-10c-5.4,0-9.8,4.4-9.8,9.9
		C457.3,118,461.7,122.3,467.1,122.4z"/>
	<path d="M462.6,106.1c1.9,0,3.6-0.1,5.2,0c1.7,0.1,3.4,0.5,4,2.4c0.6,1.8-0.1,3.3-1.5,4c0.8,2.2,1.5,4.2,2.3,6.2
		c-2.3,1.1-2.7-0.4-3.1-1.8c-0.8-2.9-1.4-3.2-4.4-2.8c-0.2,1.6-0.4,3.2-0.7,4.8c0,0.2-1.1,0.1-1.8,0.2
		C462.6,114.7,462.6,110.7,462.6,106.1z M465,112.4c1.8-0.6,3.1-1,4.4-1.7c0.2-0.1,0.2-1.6-0.1-1.8c-1.3-0.6-2.7-0.9-4.3-1.4
		C465,109.3,465,110.4,465,112.4z"/>
</g>
</svg>
