<?xml version="1.0" encoding="utf-8"?>
<!-- Generator: Adobe Illustrator 21.0.2, SVG Export Plug-In . SVG Version: 6.00 Build 0)  -->
<svg version="1.1" id="Calque_1" xmlns="http://www.w3.org/2000/svg" xmlns:xlink="http://www.w3.org/1999/xlink" x="0px" y="0px"
	 viewBox="0 0 500 108" style="enable-background:new 0 0 500 108;" xml:space="preserve">
<style type="text/css">
	.st0{fill:#0064AD;}
</style>
<path class="st0" d="M102,44.9l0.3-3.8c0.4-4.3-0.1-8.2-1.3-11.6c-1.3-3.5-3.4-6.6-6.3-9c-2.8-2.3-6.2-4.1-10.2-5.3
	c-8.4-2.4-20-2.4-29.3,1.2c-5,1.9-9.5,4.7-13.5,8.1c-3.9,3.5-7.3,7.7-9.9,12.6c-2.7,4.8-4.6,10.3-5.7,16.1c-1.1,6-1.3,11.6-0.5,16.5
	c0.8,5.1,2.7,9.6,5.4,13.3c2.8,3.7,6.5,6.6,11,8.6c4.4,1.9,9.5,2.9,15.2,2.9c5.5,0,10.6-0.7,14.9-2.2c2.1-0.7,4.2-1.6,6.1-2.6
	l0.5,3.6h15l8.5-44.6H64.6l-3.4,17.7h17.4l-0.7,3.5c-2.1,2-4.6,3.6-7.3,4.6c-3.2,1.2-6.9,1.8-11,1.8c-2.8,0-5.2-0.5-7.2-1.4
	c-1.9-0.9-3.4-2.1-4.5-3.7c-1.2-1.7-1.9-3.9-2.3-6.5c-0.4-2.8-0.2-6.1,0.5-9.9c0.7-3.8,1.8-7.1,3.4-10.1c1.5-2.9,3.3-5.3,5.3-7.2
	s4.3-3.3,6.7-4.3c2.5-1,5.1-1.5,7.9-1.5c4.6,0,8,0.9,10,2.6c1.1,0.9,2.6,2.6,2.5,6.4L81.7,45L102,44.9L102,44.9z"/>
<path class="st0" d="M148.8,30.9l-6.6,34.7c-0.5,2.8-1.2,5.1-2,6.8c-0.7,1.5-1.5,2.7-2.4,3.5c-0.8,0.8-1.8,1.3-2.8,1.6
	c-2.7,0.7-6.8,0.7-8.9,0c-0.9-0.3-1.2-0.7-1.4-1.1c-0.4-0.6-0.7-1.6-0.7-2.9c-0.1-1.7,0.1-3.8,0.6-6.4l6.9-36.3h-17.6l-6.6,34.7
	c-0.4,2.3-0.8,4.6-0.9,6.7c-0.2,2.4-0.2,4.5,0.1,6.5c0.3,2.2,0.9,4.3,1.9,6.2c1.1,2,2.6,3.8,4.6,5.2c1.9,1.3,4.2,2.4,6.9,3
	c2.6,0.7,5.7,1,9.2,1c3.7,0,7-0.4,9.9-1.1c3-0.8,5.5-1.8,7.7-3.1c2.2-1.4,4.1-3,5.7-4.9c1.5-1.8,2.7-3.7,3.7-5.8
	c0.9-2,1.7-4.1,2.3-6.2c0.5-2,1-4,1.4-6l6.9-36.3L148.8,30.9L148.8,30.9z"/>
<path class="st0" d="M208.7,30.9l-3.9,20.4c-0.7,3.6-1.4,7.2-2,10.8L188.5,31H173l-11.9,62.4h17.1l5.9-31.1l14.4,31.1h15.3L225.7,31
	L208.7,30.9L208.7,30.9z"/>
<path class="st0" d="M268,30.9l-3.9,20.4c-0.7,3.6-1.4,7.2-2,10.8L247.8,31h-15.4l-11.9,62.4h17.1l5.9-31.1l14.4,31.1h15.3L285.1,31
	L268,30.9L268,30.9z"/>
<polygon class="st0" points="331.3,69.4 334.4,53.3 305.2,53.3 306.4,46.9 337.6,46.9 340.6,30.9 291.8,30.9 279.9,93.3 330,93.3 
	333.1,77.2 300.6,77.2 302.1,69.4 "/>
<path class="st0" d="M386.1,35.5c-1.9-1.5-4.2-2.7-7-3.5c-2.6-0.7-5.6-1.1-8.9-1.1h-23.7l-11.9,62.4h26.2c7.6,0,13.8-1.6,18.5-4.8
	c4.9-3.3,8-8.2,9.2-14.4c0.4-1.9,0.4-3.8,0.2-5.6c-0.2-1.9-0.8-3.6-1.8-5.3c-0.6-1.1-1.4-2-2.3-2.9c0.7-0.6,1.3-1.2,1.9-1.9
	c2.2-2.5,3.6-5.5,4.2-8.8c0.5-2.8,0.4-5.4-0.3-7.8C389.6,39.3,388.2,37.2,386.1,35.5z M373.4,49c-0.4,2.3-1.4,2.9-1.7,3
	c-0.8,0.5-2.5,1.1-5.9,1.1h-6l1.2-6.4h6.9c1.7,0,3.1,0.1,4.1,0.3s1.4,0.5,1.4,0.5C373.5,47.8,373.5,48.2,373.4,49z M356.8,69.1h7.5
	c2,0,3.7,0.1,4.9,0.4c1.2,0.3,1.7,0.6,1.9,0.9c0.1,0.4,0.1,1-0.1,2.2c-0.3,1.5-0.9,4.9-9.1,4.9h-6.6L356.8,69.1z"/>
<path class="st0" d="M454.3,49.9c-0.7-4.1-2.3-7.6-4.5-10.6c-2.3-3-5.2-5.3-8.8-6.9c-6.9-3.1-16.6-3.2-24.6-0.1
	c-3.9,1.5-7.5,3.7-10.6,6.4s-5.8,6.1-8,9.9c-2.2,3.8-3.7,8.1-4.6,12.7c-0.9,4.7-1,9.1-0.3,13c0.7,4.1,2.2,7.6,4.4,10.6
	c2.3,3,5.3,5.4,8.9,7c3.5,1.6,7.6,2.4,12.1,2.4s8.8-0.8,12.7-2.3c4-1.5,7.6-3.7,10.7-6.5c3.1-2.7,5.8-6.1,7.9-9.9s3.6-8.1,4.5-12.6
	C454.9,58.2,455,53.8,454.3,49.9z M436.5,61.3c-0.5,2.7-1.3,5.1-2.4,7.3c-1.1,2.1-2.4,3.9-3.9,5.4c-1.5,1.4-3.1,2.5-4.9,3.3
	c-3.4,1.4-7.7,1.5-10.5,0.1c-1.2-0.6-2.2-1.5-3-2.7c-0.8-1.3-1.4-2.9-1.6-4.8c-0.3-2-0.2-4.4,0.3-7c0.5-2.7,1.3-5.1,2.4-7.2
	c1.1-2.1,2.4-3.9,3.9-5.3c1.5-1.4,3.1-2.5,5-3.3c1.8-0.7,3.7-1.1,5.7-1.1c1.9,0,3.5,0.3,4.8,1c1.2,0.6,2.2,1.5,2.9,2.7
	c0.8,1.3,1.3,2.9,1.6,4.8C437.1,56.4,437,58.7,436.5,61.3z"/>
<path class="st0" d="M474.6,25.5c-0.2-0.7-0.5-1.4-0.9-2.1c-0.4-0.6-0.9-1.3-1.4-1.8s-1.1-1-1.8-1.4c-0.6-0.4-1.3-0.7-2.1-0.9
	S466.8,19,466,19c-0.9,0-1.7,0.1-2.5,0.2c-0.8,0.2-1.5,0.5-2.2,0.9c-0.6,0.4-1.3,0.9-1.8,1.4s-1,1.1-1.4,1.8
	c-0.4,0.7-0.7,1.4-0.9,2.2c-0.2,0.8-0.3,1.6-0.3,2.4s0.1,1.6,0.3,2.4s0.5,1.5,0.9,2.2c0.4,0.6,0.8,1.2,1.4,1.8
	c0.5,0.5,1.1,1,1.8,1.4c0.7,0.4,1.4,0.7,2.2,0.9s1.6,0.3,2.4,0.3s1.6-0.1,2.4-0.3c0.8-0.2,1.6-0.5,2.2-0.9c0.6-0.4,1.3-0.8,1.8-1.4
	c0.5-0.5,1-1.1,1.4-1.8c0.4-0.7,0.7-1.4,0.9-2.2s0.3-1.6,0.3-2.4C474.9,27.1,474.8,26.3,474.6,25.5z M472.8,31
	c-0.4,0.9-0.9,1.7-1.6,2.4c-0.7,0.7-1.5,1.2-2.4,1.6c-0.9,0.4-1.9,0.6-2.9,0.6c-0.6,0-1.3-0.1-1.9-0.2c-0.7-0.2-1.3-0.5-1.8-0.8
	c-0.5-0.3-1-0.7-1.5-1.2c-0.5-0.4-0.9-0.9-1.2-1.5c-0.4-0.6-0.6-1.2-0.8-1.8c-0.2-0.7-0.3-1.3-0.3-2c0-1,0.2-2,0.6-2.9
	c0.4-0.9,0.9-1.7,1.6-2.4c0.7-0.7,1.5-1.2,2.4-1.6c0.9-0.4,1.9-0.6,2.9-0.6s2,0.2,2.9,0.6c0.9,0.4,1.7,0.9,2.4,1.6
	c0.7,0.7,1.2,1.5,1.6,2.4c0.4,0.9,0.6,1.9,0.6,2.9S473.2,30.1,472.8,31z"/>
<path class="st0" d="M468.4,29.5c-0.3-0.3-0.7-0.6-1.1-0.7c1.6-0.1,2.4-1.1,2.4-2.7c0-1-0.3-1.7-1-2.1c-0.7-0.5-1.7-0.7-2.9-0.7H462
	v9.8h2v-3.9h1.1c0.6,0,1,0.2,1.4,0.5c0.3,0.3,0.7,0.7,0.9,1.3l0.7,2.1h2.1l-1-2.4C469,30.2,468.7,29.8,468.4,29.5z M465.7,27.7h-1.8
	h-0.1v-2.9h1.8c1.4,0,2.1,0.5,2.1,1.4c0,0.5-0.2,0.9-0.5,1.1C466.9,27.6,466.4,27.7,465.7,27.7z"/>
</svg>
