<?xml version="1.0" encoding="utf-8"?>
<!-- Generator: Adobe Illustrator 21.0.2, SVG Export Plug-In . SVG Version: 6.00 Build 0)  -->
<svg version="1.1" id="Calque_1" xmlns="http://www.w3.org/2000/svg" xmlns:xlink="http://www.w3.org/1999/xlink" x="0px" y="0px"
	 viewBox="0 0 500 138" style="enable-background:new 0 0 500 138;" xml:space="preserve">
<style type="text/css">
	.st0{fill:#E21B37;}
</style>
<path class="st0" d="M228.5,66.3v28.9c0,7-0.3,14-5.2,19.2c-4.2,4.5-10.7,6.1-16.6,6.1c-5.8,0-12.4-1.6-16.6-6.1
	c-5-5.3-5.2-12.2-5.2-19.2V66.3h15.5v25.4c0,7.1,0.3,14.8,6.4,14.8c6,0,6.4-7.7,6.4-14.8V66.3"/>
<path class="st0" d="M252.4,88.2h0.8c2.8,0,4.1-0.5,4.1-4.1S256,80,253.2,80h-0.8 M280.5,120.9h-17.7l-10.4-15.1h-0.1v15.1h-17.2
	V66.3h21.2c10.8,0,17.4,3.9,19.9,15.6c1.6,7.4-4,12.8-7,15.9L280.5,120.9z"/>
<polyline class="st0" points="307.2,120.9 289.7,120.9 289.7,82.2 278,82.2 278,66.3 319,66.3 319,82.2 307.2,82.2 "/>
<polyline class="st0" points="325.6,66.3 335.8,66.3 354.9,86.4 355.1,86.4 355.1,66.3 369.8,66.3 369.8,120.9 359.6,120.9 
	341.7,99.8 341.6,99.8 341.6,120.9 325.6,120.9 "/>
<polyline class="st0" points="392.7,81.6 392.7,86.5 404.8,86.5 404.8,98.5 392.7,98.5 392.7,103.4 411.3,103.4 411.3,120.9 
	378.5,120.9 378.5,66.3 411.3,66.3 411.3,81.6 "/>
<path class="st0" d="M435.4,88.2h0.8c2.8,0,4.1-0.5,4.1-4.1S439,80,436.2,80h-0.8 M463.5,120.9h-17.6l-10.4-15.1h-0.1v15.1h-17.2
	V66.3h21.2c10.8,0,17.4,3.9,19.9,15.6c1.6,7.4-4,12.8-7,15.9L463.5,120.9z"/>
<path class="st0" d="M147.3,83.8c-8.2,11.2-25.4,18.8-45.4,18.8c-27.8,0-50.4-15-50.4-33.6c0-18.5,22.6-33.6,50.4-33.6
	c19.6,0,36.6,7.4,44.9,18.3l22.8-9.6c-13-16.4-38.4-27.6-67.7-27.6C59.4,16.6,25,40,25,69s34.4,52.4,76.9,52.4
	c42.4,0,76.9-23.5,76.9-52.4c0-1.1-0.1-2.2-0.2-3.3H66l-7.5,18.2"/>
<g>
	<path class="st0" d="M467.9,64.8c-4,0-7.1,3.1-7.1,7.1c0,3.9,3.1,7.1,7.1,7.1s7.1-3.2,7.1-7.1C475,67.9,471.9,64.8,467.9,64.8z
		 M467.9,77.8c-3.3,0-6-2.6-6-5.9c0-3.4,2.7-6,6-6s6,2.6,6,6C473.9,75.2,471.2,77.8,467.9,77.8z"/>
	<path class="st0" d="M471.3,70c0-1.7-1.4-2.1-2.8-2.1h-3.4v8h1.2v-3.7h1.5l2,3.7h1.3l-1.9-3.7C470.2,72.2,471.3,71.6,471.3,70z
		 M467.5,71.1h-1.2v-2h2c0.9,0,1.8,0.1,1.8,1.1C470.1,71.3,468.6,71.1,467.5,71.1z"/>
</g>
</svg>
