<?xml version="1.0" encoding="utf-8"?>
<!-- Generator: Adobe Illustrator 21.0.2, SVG Export Plug-In . SVG Version: 6.00 Build 0)  -->
<svg version="1.1" id="Calque_4" xmlns="http://www.w3.org/2000/svg" xmlns:xlink="http://www.w3.org/1999/xlink" x="0px" y="0px"
	 viewBox="0 0 478 146" style="enable-background:new 0 0 478 146;" xml:space="preserve">
<style type="text/css">
	.st0{fill:#FFFFFF;}
	.st1{fill:#F1BD29;}
	.st2{fill:none;}
	.st3{fill:#F2BE2A;}
	.st4{fill:#858A88;}
	.st5{fill:#FFE800;}
</style>
<rect x="18" y="20.2" class="st0" width="442.1" height="104.9"/>
<path class="st1" d="M461.1,126.1H17v-107h444.2L461.1,126.1L461.1,126.1z M19.1,124.1h440V21.3h-440
	C19.1,21.3,19.1,124.1,19.1,124.1z"/>
<rect x="14" y="16.8" class="st2" width="450" height="112.5"/>
<path d="M132.1,88.7c-1.1,1.6-2.4,2.8-3.7,3.5s-2.8,1.1-4.4,1.1c-2.7,0-4.7-1-5.7-2.9c-1.1-1.9-1.6-5.2-1.7-9.9h16.7
	c-0.2-4.8-1.2-8.4-2.9-10.9c-2-3-5.1-4.5-9.3-4.5c-3.2,0-5.9,1.2-8.2,3.5l-1-0.9c-2.1-1.7-5.1-2.5-9-2.5c-3.1,0-5.7,0.8-7.9,2.5
	c-2.2,1.7-3.3,3.7-3.3,6c0,1.3,0.4,2.3,1.2,3.2c0.8,0.9,1.8,1.3,3,1.3c2,0,3.4-0.8,4-2.4c0.7-1.6,0.4-3.1-1-4.7
	c-0.8-0.9-0.8-1.7-0.1-2.6c0.7-0.8,1.8-1.2,3.3-1.2c1.9,0,3.3,0.4,4.2,1.3c0.8,0.9,1.3,2.3,1.3,4.2v5.5l-5.9,2.1
	c-4.1,1.5-7,3-8.7,4.7c-1.7,1.6-2.5,3.7-2.5,6.1c0,2.3,0.7,4.1,2.1,5.4c1.4,1.3,3.3,1.9,5.7,1.9c2.3,0,4.4-0.5,6.5-1.6
	c1.9-1,3.7-2.4,5.5-4.5l1,1.5c2.2,2.9,5.2,4.4,9,4.4c2.7,0,5.1-0.7,7.4-2.1c2.2-1.4,4.2-3.5,5.8-6.3L132.1,88.7z M107.7,92.3
	c-0.5,0.5-1,0.9-1.5,1.2c-0.8,0.5-1.8,0.8-2.9,0.8c-1.1,0-1.9-0.4-2.5-1.3c-0.6-0.9-0.9-2.1-0.9-3.6c0-2,0.6-3.7,1.8-5.1
	c1.2-1.4,3.1-2.6,5.6-3.5l0.4-0.1C107.7,80.7,107.7,92.3,107.7,92.3z M117.5,70c0.7-1.8,1.8-2.8,3.5-2.8s2.9,0.7,3.4,2
	c0.5,1.3,0.8,4.1,0.8,8.4v0.5h-8.7C116.7,74.3,117,71.6,117.5,70z"/>
<path d="M180.5,94.9c-0.8-0.7-1-2.1-1-4.2V74.9c0-2.9-0.8-5.2-2.3-7c-1.6-1.8-3.6-2.7-6.1-2.7c-1.9,0-3.8,0.8-5.8,2.5
	c-1.3,1-2.4,2.2-3.3,3.7c-0.4-1.4-1-2.7-2-3.7c-1.6-1.6-3.6-2.4-6-2.4c-2.4,0-4.5,0.9-6.3,2.5c-1.1,1-1.9,2.2-2.6,3.6V66h-5.9h-5.9
	v1.6c1.4,0.1,2.2,0.5,2.6,1.1c0.4,0.7,0.6,2,0.6,4.1v17.8c0,2.1-0.2,3.4-0.6,4.1c-0.4,0.7-1.3,1-2.7,1.1v1.6h7.6h7.6V96
	c-1.4-0.1-2.2-0.5-2.6-1.1c-0.4-0.7-0.6-2-0.6-4.1V73.7c0.5-0.9,1.2-1.7,2-2.4c1.1-1,2.3-1.4,3.3-1.4c1.3,0,2.2,0.5,2.6,1.4
	c0.4,0.9,0.7,2.6,0.7,5.2v14.4c0,2.1-0.2,3.5-0.6,4.1c-0.4,0.7-1.3,1-2.6,1.1v1.6h7.6h7.6V96c-1.4-0.1-2.2-0.5-2.6-1.1
	c-0.4-0.7-0.6-2.1-0.6-4.1V73.7c0.5-0.9,1.2-1.7,2-2.4c1.2-1,2.3-1.4,3.3-1.4c1.3,0,2.1,0.5,2.6,1.4c0.5,0.9,0.7,2.6,0.7,5.1v14.5
	c0,2.1-0.2,3.4-0.6,4.1c-0.4,0.7-1.3,1-2.6,1.1v1.6h7.5h7.5V96C181.7,95.9,180.9,95.5,180.5,94.9z"/>
<path d="M299.8,94.9c-0.5-0.7-0.7-2.1-0.7-4.2V51.2h-6h-6v1.6c1.4,0.1,2.3,0.5,2.7,1.1c0.4,0.7,0.6,2,0.6,4.1v32.6
	c0,2.1-0.2,3.4-0.6,4.1c-0.4,0.7-1.3,1-2.7,1.1v1.6h7.7h7.7V96C301.1,95.9,300.2,95.5,299.8,94.9z"/>
<path d="M348.8,94.9c-0.4-0.7-0.6-2-0.6-4.1V74.9c0-2.8-0.8-5.2-2.4-6.9c-1.6-1.8-3.7-2.7-6.3-2.7c-2.5,0-4.7,0.9-6.6,2.5
	c-1.1,1-2,2.2-2.8,3.6V66h-6.2h-6.2v1.6c1.4,0.1,2.3,0.5,2.8,1.1c0.4,0.7,0.6,2,0.6,4.1v17.8c0,2.1-0.2,3.5-0.6,4.1
	c-0.4,0.6-1.2,0.9-2.3,1c-1.1-0.1-1.9-0.5-2.3-1c-0.4-0.7-0.6-2.1-0.6-4.1V66H309h-6.2v1.6c1.4,0.1,2.3,0.5,2.8,1.1
	c0.4,0.7,0.7,2,0.7,4.1v17.8c0,2.1-0.2,3.4-0.6,4.1c-0.4,0.7-1.4,1-2.8,1.1v1.6h8h6.9h1h6.9h7.9V96c-1.4-0.1-2.3-0.5-2.8-1.1
	c-0.4-0.7-0.6-2.1-0.6-4.1V73.7c0.5-0.9,1.2-1.7,2-2.4c1.1-1,2.2-1.4,3.3-1.4c1.4,0,2.4,0.5,2.9,1.5s0.8,2.8,0.8,5.5v14
	c0,2.1-0.2,3.4-0.6,4.1c-0.4,0.7-1.4,1-2.8,1.1v1.6h7.8h7.8V96C350.1,95.9,349.2,95.5,348.8,94.9z"/>
<path d="M288.4,70.6c0-1.6-0.5-2.9-1.5-3.9s-2.2-1.5-3.8-1.5c-2,0-3.9,1-5.8,3c-0.9,1-1.7,2.1-2.5,3.4V66h-6h-6v1.6
	c1.4,0.1,2.3,0.5,2.7,1.1c0.4,0.7,0.6,2,0.6,4.1v17.8c0,2.1-0.2,3.4-0.6,4.1c-0.4,0.7-1.3,1-2.7,1.1v1.6h8.4h8.4V96
	c-1.9-0.1-3.1-0.5-3.7-1.2c-0.6-0.7-0.9-2-0.9-4.1V78.1c0-1.4,0.1-2.4,0.3-3.2c0.2-0.8,0.6-1.5,1.1-2.3c0.8-1,1.6-1.5,2.4-1.5
	c0.3,0,0.6,0.1,0.9,0.4c0.3,0.3,0.7,0.7,1.2,1.4c0.6,0.9,1.2,1.5,1.7,1.8s1.1,0.5,1.8,0.5c1.3,0,2.3-0.4,3-1.2
	C288.1,73.1,288.4,72,288.4,70.6z"/>
<path d="M257,92.5c-1.2,0.8-2.5,1.2-3.8,1.2c-3.1,0-5.3-1.4-6.7-4.1c-1.1-2.1-1.7-5-2-8.7h17.2c-0.3-4.9-1.3-8.6-3.1-11.1
	c-2.1-3-5.4-4.6-9.8-4.6c-4,0-7.3,1.6-10,4.8c-2.7,3.2-4,7.3-4,12.1c0,5,1.3,9,3.8,12s6,4.4,10.3,4.4c2.7,0,5.1-0.7,7.4-2.2
	c2.2-1.5,4.1-3.6,5.7-6.5l-1.5-1C259.4,90.5,258.2,91.7,257,92.5z M244.4,76.7c0-3.1,0.4-5.5,1.2-7.1c0.8-1.6,2-2.4,3.6-2.4
	c1.5,0,2.6,0.8,3.2,2.4c0.6,1.6,0.9,4.3,0.9,8.1v0.6h-9L244.4,76.7z"/>
<path d="M232.1,94.9c-0.8-0.7-1-2.1-1-4.2V74.9c0-2.9-0.8-5.2-2.3-7c-1.6-1.8-3.6-2.7-6.1-2.7c-1.9,0-3.8,0.8-5.8,2.5
	c-1.3,1-2.4,2.2-3.3,3.7c-0.4-1.4-1-2.7-2-3.7c-1.6-1.6-3.6-2.4-6-2.4c-2.4,0-4.5,0.9-6.3,2.5c-1.1,1-1.9,2.2-2.6,3.6V66h-5.9h-5.9
	v1.6c1.4,0.1,2.2,0.5,2.6,1.1c0.4,0.7,0.6,2,0.6,4.1v17.8c0,2.1-0.2,3.4-0.6,4.1c-0.4,0.7-1.3,1-2.7,1.1v1.6h7.6h7.6V96
	c-1.4-0.1-2.2-0.5-2.6-1.1c-0.4-0.7-0.6-2-0.6-4.1V73.7c0.5-0.9,1.2-1.7,2-2.4c1.1-1,2.2-1.4,3.3-1.4c1.3,0,2.2,0.5,2.6,1.4
	c0.4,0.9,0.7,2.6,0.7,5.2v14.4c0,2.1-0.2,3.5-0.6,4.1c-0.4,0.7-1.3,1-2.6,1.1v1.6h7.6h7.6V96c-1.4-0.1-2.2-0.5-2.6-1.1
	c-0.4-0.7-0.6-2.1-0.6-4.1V73.7c0.5-0.9,1.2-1.7,2-2.4c1.2-1,2.3-1.4,3.3-1.4c1.3,0,2.1,0.5,2.6,1.4c0.5,0.9,0.7,2.6,0.7,5.1v14.5
	c0,2.1-0.2,3.4-0.6,4.1s-1.3,1-2.6,1.1v1.6h7.5h7.5V96C233.3,95.9,232.5,95.5,232.1,94.9z"/>
<path class="st3" d="M315.5,56.2c0,3.1-2.5,5.6-5.6,5.6s-5.6-2.5-5.6-5.6s2.5-5.6,5.6-5.6S315.5,53,315.5,56.2z"/>
<path class="st3" d="M72.4,73.1c0,6.1-4.9,11-11,11s-11-4.9-11-11s4.9-11,11-11S72.4,67,72.4,73.1z"/>
<rect x="35.4" y="46" class="st4" width="15" height="51.7"/>
<rect x="72.5" y="46" class="st4" width="15" height="51.7"/>
<path d="M358.3,98.4c-3.3,0-5.9-2.6-5.9-5.9s2.6-5.9,5.9-5.9s5.9,2.6,5.9,5.9C364.2,95.7,361.6,98.4,358.3,98.4z M358.3,87.9
	c-2.5,0-4.5,2-4.5,4.5s2,4.5,4.5,4.5s4.5-2,4.5-4.5C362.9,89.9,360.8,87.9,358.3,87.9z"/>
<path d="M356,94.8V90c0-0.3-0.1-0.5-0.2-0.6s-0.3-0.2-0.7-0.2v-0.3h1.6h1.5c0.9,0,1.6,0.2,2,0.5c0.5,0.3,0.7,0.7,0.7,1.3
	c0,0.6-0.2,1.1-0.7,1.4c-0.2,0.1-0.5,0.3-0.8,0.3l1.5,2.3c0.2,0.3,0.4,0.5,0.5,0.6s0.2,0.1,0.3,0.2v0.3h-0.3h-1.7l-2-3.2h-0.3v2.2
	c0,0.3,0,0.5,0.2,0.6c0.1,0.1,0.3,0.1,0.7,0.2v0.3h-1.6h-1.6v-0.3c0.4,0,0.6-0.1,0.7-0.2C355.9,95.3,356,95.1,356,94.8z M357.5,92.3
	h0.4c0.5,0,0.9-0.1,1.1-0.4c0.2-0.2,0.3-0.7,0.3-1.2s-0.1-0.9-0.3-1.1c-0.2-0.2-0.5-0.4-0.9-0.4H358c-0.2,0-0.3,0-0.4,0.1
	s-0.1,0.2-0.1,0.4V92.3L357.5,92.3z"/>
<path class="st2" d="M390.8,36.4c-1.1,0.8-2.2,0.9-3,2.2c-0.5,0.8-1,3.2,0.2,3.5c1,0.2,5-3,5.5-4c-1.8-1.6-2.7-2.6-4.3-0.7
	c-0.9,1.1-1.2,2.3-1.1,4"/>
<path class="st5" d="M389.9,37.2c-0.2,0.2-0.5,0.4-0.7,0.6c-0.4,0.4,0.1,1.1,0.6,0.7c0.5-0.4,0.5-0.4,0.9-0.9
	C390.5,37.4,390.2,37.3,389.9,37.2c-0.1,0.2-0.3,0.5-0.6,0.8c-0.3,0.4,0.3,0.9,0.7,0.6c0.5-0.3,1-0.7,1.4-1.1
	c-0.2-0.2-0.5-0.3-0.7-0.5c-0.1,0.2-0.2,0.3-0.3,0.5c0.3,0.1,0.6,0.2,0.8,0.3c0.1-0.2,0.1-0.4,0.2-0.6c-0.3-0.1-0.6-0.1-0.9-0.2
	c0,0.2-0.1,0.5-0.1,0.7c0,0.4,0.4,0.7,0.7,0.4c0.2-0.2,0.4-0.3,0.6-0.5c-0.2-0.1-0.5-0.3-0.7-0.4c0,0.2,0,0.3-0.1,0.5
	c-0.1,0.5,0.5,0.6,0.8,0.3c0.1-0.2,0.3-0.3,0.4-0.5c-0.3-0.1-0.5-0.3-0.8-0.4c-0.1,0.4-0.2,0.5-0.2,1c0,0.4,0.5,0.7,0.7,0.4
	c0.1-0.2,0.3-0.3,0.4-0.5c-0.2-0.2-0.5-0.3-0.7-0.5c-0.1,0.5-0.1,0.6-0.1,1c0,0.3,0.5,0.5,0.7,0.3c0.1-0.1,0.3-0.2,0.4-0.4
	c-0.2-0.1-0.5-0.3-0.7-0.4c0,0.2,0,0.3,0,0.5c0,0.4,0.4,0.7,0.7,0.4c0.2-0.2,0.3-0.3,0.5-0.5c-0.2-0.1-0.5-0.3-0.7-0.4
	c0,0.2-0.1,0.4-0.1,0.6c-0.1,0.3,0.4,0.6,0.6,0.5c0.3-0.2,0.6-0.3,0.9-0.4c-0.1-0.3-0.2-0.5-0.3-0.8c-1,0.7-1.9,1.4-2.9,2
	s-1.8,1.8-2.9,2.2c0.2,0.2,0.4,0.4,0.6,0.7c1.2-1.4,1.3-2.7,1-4.6c-0.1-0.4-0.7-0.5-0.9-0.1c-0.4,1.3-0.8,2.6-1.2,3.9
	c0.3,0.1,0.6,0.2,0.8,0.3c0.6-1.5,1-3,2.1-4.3c-0.3-0.1-0.5-0.1-0.8-0.2c0.1,0.7-0.1,1.5-0.2,2.2c-0.1,0.5,0.5,0.6,0.8,0.3
	c0.6-0.8,1.2-1.6,1.5-2.6c0.2-0.5-0.5-0.8-0.8-0.4c-1,1.2-1.7,2.7-2.6,4c0.2,0.2,0.5,0.3,0.7,0.5c0.6-1.1,1.7-2.1,2.5-3.1
	c-0.3-0.1-0.5-0.3-0.8-0.4c-0.3,0.8-0.6,1.4-0.7,2.3c0,0.5,0.5,0.6,0.8,0.3c0.7-0.9,1.2-1.8,1.6-2.8c0.2-0.5-0.5-0.8-0.8-0.4
	c-0.4,0.5-0.7,1.1-1,1.7c-0.3,0.5,0.4,1,0.7,0.5c0.1-0.2,0.1-0.4,0.2-0.6c0.1,0.3,0.5,0.3,0.7,0.2c-0.1-0.1-0.2-0.2-0.3-0.3
	c0,0.5,0.7,0.5,0.9,0.1c0-0.1,0.1-0.1,0.1-0.2c0.2-0.4-0.3-0.7-0.6-0.6c0,0-0.1,0-0.1,0.1c-0.5,0.2-0.1,1,0.4,0.8c0,0,0.1,0,0.1-0.1
	c-0.2-0.2-0.4-0.4-0.6-0.6c0,0.1-0.1,0.1-0.1,0.2c0.3,0,0.6,0.1,0.9,0.1c0-0.1,0-0.2,0-0.2c0-0.4-0.5-0.5-0.7-0.3l0.1,0.1
	c-0.2-0.3-0.5-0.3-0.8-0.1c-0.3,0.3-0.5,0.6-0.8,0.9c0.2,0.2,0.5,0.3,0.7,0.5c0.3-0.6,0.7-1.1,1-1.7c-0.3-0.1-0.5-0.3-0.8-0.4
	c-0.4,0.9-0.9,1.8-1.5,2.6c0.3,0.1,0.5,0.2,0.8,0.3c0.1-0.7,0.3-1.4,0.6-2c0.2-0.5-0.5-0.8-0.8-0.4c-0.8,1-1.9,1.9-2.5,3.1
	c-0.3,0.5,0.4,1,0.7,0.5c0.9-1.3,1.5-2.8,2.6-4c-0.3-0.1-0.5-0.3-0.8-0.4c-0.3,0.8-0.9,1.7-1.4,2.4c0.3,0.1,0.5,0.2,0.8,0.3
	c0.1-0.8,0.3-1.6,0.1-2.5c-0.1-0.4-0.6-0.5-0.8-0.2c-1.1,1.4-1.6,2.9-2.2,4.5c-0.2,0.6,0.6,0.9,0.8,0.3c0.5-1.3,0.8-2.6,1.2-3.9
	c-0.3,0-0.6-0.1-0.9-0.1c0.2,1.4,0.1,2.7-0.9,3.9c-0.3,0.4,0.2,0.8,0.6,0.7c0.9-0.3,1.5-1.1,2.3-1.8c1.1-0.9,2.6-1.7,3.7-2.6
	c0.3-0.2,0.1-0.8-0.3-0.8c-0.2,0-0.3,0-0.5,0c-0.9,0.2-0.2,0.5-0.2,0.3c0.1-0.4-0.5-0.7-0.7-0.4c-0.2,0.2-0.3,0.3-0.5,0.5
	c0.2,0.1,0.5,0.3,0.7,0.4c0-0.2,0-0.3,0-0.5c0-0.4-0.4-0.7-0.7-0.4c0.1,0,0.3,0,0.4,0c0.1-0.4-0.4-0.9-0.7-0.5
	c-0.1,0.2-0.3,0.3-0.4,0.5c0.2,0.1,0.5,0.3,0.7,0.4c0.1-0.2,0.1-0.5,0.2-0.7c0.2-0.5-0.5-0.8-0.8-0.4c-0.1,0.2-0.3,0.3-0.4,0.5
	c0.3,0.1,0.5,0.2,0.8,0.3c0-0.2,0-0.3,0.1-0.5c0.1-0.4-0.5-0.7-0.7-0.4c-0.2,0.2-0.4,0.3-0.6,0.5c0.2,0.1,0.5,0.3,0.7,0.4
	c0-0.2,0.1-0.5,0.1-0.7c0.1-0.5-0.7-0.7-0.9-0.2c-0.1,0.2-0.1,0.4-0.2,0.6c-0.2,0.6,0.6,0.8,0.8,0.3c0.1-0.2,0.2-0.3,0.3-0.5
	c0.2-0.4-0.4-0.8-0.7-0.5c-0.4,0.4-0.9,0.8-1.4,1.1c0.2,0.2,0.4,0.4,0.7,0.6c0.2-0.3,0.5-0.6,0.7-0.9c0.3-0.5-0.4-1-0.7-0.5
	c-0.3,0.3-0.5,0.5-0.8,0.8c0.2,0.2,0.4,0.5,0.6,0.7c0.2-0.2,0.5-0.4,0.7-0.6C390.9,37.5,390.3,36.8,389.9,37.2L389.9,37.2z"/>
<path class="st5" d="M394.3,59.2c-0.1,0-0.1,0-0.2,0c0,0,0-0.1,0-0.1c0,0-0.1,0-0.1,0c0.1-0.2,0-0.4-0.1-0.5c0,0,0,0,0,0
	c0.2-0.2,0.2-0.8-0.3-0.8c-0.1,0-0.1,0-0.2,0c0-0.1-0.1-0.1-0.1-0.2c0,0,0,0,0,0c0.1-0.2,0.1-0.3,0.2-0.5c0,0,0,0,0.1,0
	c0.2,0,0.4,0,0.6,0.1c0,0,0-0.1,0-0.1c0.4-0.1,0.4-0.9-0.1-0.9c-0.1,0-0.2,0-0.3,0c0,0,0,0,0-0.1c0-0.1,0.1-0.1,0.1-0.2
	c0.3,0.4,0.9,0,0.7-0.5v-0.1c0,0,0,0,0-0.1c0-0.1,0-0.2-0.1-0.2c0-0.1,0-0.2,0-0.3c-0.1-0.3-0.2-0.5-0.3-0.8c0-0.1-0.1-0.2-0.2-0.2
	c-0.1-0.1-0.1-0.3-0.2-0.4c0-0.1,0-0.2-0.1-0.2c0,0,0-0.1,0-0.1c0-0.2-0.2-0.3-0.4-0.4c0,0,0,0,0,0c0.1-0.3-0.2-0.5-0.5-0.5
	c-0.1-0.2-0.3-0.4-0.5-0.3c-0.1-0.1-0.2-0.2-0.3-0.3c0.2-0.4-0.4-0.8-0.7-0.5c-0.1-0.1-0.2-0.1-0.4-0.2c-0.1-0.1-0.1-0.2-0.2-0.2
	c0,0-0.1,0-0.1,0c-0.1-0.1-0.2-0.2-0.4-0.2c-0.1,0-0.2,0-0.3,0.1c0,0,0,0,0-0.1c-0.1,0-0.2,0.1-0.4,0.2c-0.5,0.1-0.9,0.3-1.3,0.5
	c-0.2,0.1-0.3,0.1-0.5,0.2c0,0,0,0,0,0.1c-0.2,0.1-0.2,0.3-0.1,0.5c-0.4,0.3-0.8,0.7-1.2,1.1c-0.3,0.3-0.1,0.6,0.2,0.7
	c-0.3,0.3-0.7,0.6-1.1,0.9c0.2-0.1,0.3-0.1,0.5-0.1c-0.3,0.3-0.5,0.7-0.6,1c0,0.1,0,0.2,0,0.2c-0.1,0-0.2,0.1-0.3,0.2
	c-0.1,0.1-0.2,0.3-0.3,0.4c-0.7,0.5-1.4,1.1-1.9,1.8c0,0,0,0,0,0l0,0c-0.3,0.3,0.2,0.8,0.5,0.7c-0.6,0.3-1.3,0.7-1.7,1.2
	c-0.2,0.2-0.2,0.8,0.3,0.8c0,0,0,0,0,0c0,0.2,0.1,0.4,0.3,0.4c0,0.1,0,0.2,0.1,0.3c0,0,0.1,0,0.1-0.1c0,0.2,0.1,0.5,0.4,0.5
	c0.1,0.1,0.2,0.2,0.3,0.2c0,0.1,0,0.1,0.1,0.2c0.1,0,0.1-0.1,0.2-0.1c0.1,0.1,0.1,0.1,0.2,0.2c0,0.1,0.1,0.2,0.1,0.2
	c0.1,0,0.2-0.1,0.3-0.1c0,0,0,0,0,0c0,0.1,0.1,0.2,0.1,0.2c0,0,0.1,0,0.1,0c0.1,0.1,0.1,0.1,0.2,0.1c0,0,0,0.1,0,0.1
	c0.1,0,0.2-0.1,0.3-0.1c0.1,0.1,0.2,0.2,0.3,0.2c0,0,0,0.1,0,0.1c0,0,0,0,0.1,0c0,0,0.1,0,0.1,0.1c0,0.1,0.1,0.1,0.1,0.2
	c0,0,0,0,0,0c0,0,0,0,0,0c0,0,0,0,0,0c-0.2,0.3,0,0.7,0.3,0.7c0.1,0,0.2,0,0.3,0.1c0.4,0.2,0.5-0.6,0-0.8c0.3,0,0.5-0.1,0.8-0.1
	c0.2-0.2,0.2-0.5,0-0.6c0-0.1,0-0.2,0-0.3c0.1,0,0.2,0,0.3,0c0,0.1,0.1,0.1,0.1,0.2c0,0.2,0.1,0.4,0.4,0.4c0,0,0.1,0,0.1,0
	c0.1,0.1,0.2,0.2,0.3,0.2c0.6,0.1,1.2,0.1,1.8,0.1c0,0,0,0,0.1,0c0.5,0,1,0,1.5,0c0,0,0,0,0,0c0.1,0,0.2,0,0.3,0
	c0.1,0,0.2,0,0.2-0.1c0.4,0,0.7-0.1,1.1-0.2c0.3-0.1,0.5-0.5,0.3-0.8c0.1,0,0.2,0,0.3,0c0,0,0-0.1,0-0.1c0.2,0,0.3-0.2,0.4-0.4
	c0.2-0.1,0.3-0.3,0.2-0.5c0,0,0,0,0,0c0.1-0.1,0-0.3,0-0.4c0.1-0.1,0.1-0.2,0.1-0.3c0.1,0,0.2,0,0.3-0.1
	C395,59.9,394.7,59.3,394.3,59.2z M386.6,55.6C386.6,55.6,386.6,55.6,386.6,55.6c0.1-0.1,0.2-0.1,0.2-0.2c0,0,0,0,0,0
	C386.8,55.5,386.7,55.6,386.6,55.6z M387.4,55.3c0,0-0.1,0-0.1,0.1c0-0.1,0.1-0.1,0.1-0.2C387.3,55.2,387.3,55.3,387.4,55.3z
	 M387.6,54.9C387.6,54.9,387.7,54.9,387.6,54.9C387.7,54.8,387.7,54.9,387.6,54.9C387.7,54.9,387.6,54.9,387.6,54.9z M393.3,54.9
	C393.2,54.9,393.2,54.9,393.3,54.9c-0.1-0.1,0-0.1,0-0.1c0.1,0.1,0.1,0.1,0.2,0.2c0,0.1,0.1,0.2,0.1,0.3c0,0-0.1,0-0.1,0
	c0-0.1,0-0.2,0-0.2c0,0,0,0,0,0C393.4,55,393.3,54.9,393.3,54.9C393.3,54.9,393.3,54.9,393.3,54.9z"/>
<path class="st5" d="M380.2,89.9c-0.3-0.1-0.5,0-0.6,0.2c-0.2-0.1-0.5-0.2-0.8-0.1c-0.1-0.3-0.3-0.5-0.6-0.7
	c-0.1-0.1-0.2-0.2-0.4-0.2c-0.1,0-0.1,0-0.2,0c-0.4-0.2-1-0.3-1.5-0.2c-0.5,0-1.1,0.2-1.7,0.4c0,0-0.1,0-0.1-0.1
	c-0.4-0.2-0.7-0.2-1-0.1c-0.1,0-0.2,0-0.3,0c0-0.1-0.1-0.2-0.2-0.2c-0.2-0.1-0.5-0.1-0.7-0.1c-0.1-0.1-0.3-0.2-0.5-0.1
	c-0.2,0.1-0.3,0.1-0.4,0.1c-0.2-0.2-0.5-0.4-0.7,0c-0.2,0.3-0.3,0.5-0.3,0.7c-0.1,0.1-0.1,0.2-0.2,0.3c-0.3,0.3,0.1,0.7,0.4,0.7
	c0,0,0.1,0.1,0.1,0.1c-0.1,0.1-0.2,0.2-0.2,0.3c0,0.1,0,0.2,0,0.3c-0.3,0.5-0.4,1-0.5,1.7c0,0,0,0.1,0,0.1c0,0,0,0,0,0c0,0,0,0,0,0
	c0,0.3,0.3,0.4,0.6,0.4c0,0,0,0.1,0,0.1c0,0,0.1,0,0.1,0c0,0.1,0.1,0.1,0.1,0.2c0,0,0,0.1-0.1,0.1c-0.2,0.5,0.5,0.9,0.8,0.4
	c0,0,0.1,0.1,0.1,0.1c0.1,0.4,0.7,0.5,0.9,0.1c0,0,0,0,0,0c0,0,0,0,0,0c0,0,0.1,0,0.1,0c0,0,0,0.1,0,0.1c0,0,0,0,0,0h0v0
	c-0.1,0.4,0.4,0.5,0.7,0.4c0.1,0.1,0.3,0.1,0.5-0.1c0.2,0.3,0.6,0.3,0.7-0.1c0,0,0-0.1,0-0.1c0,0,0,0,0.1,0c0-0.2,0.1-0.4,0.1-0.5
	c0.1,0.2,0.4,0.2,0.6,0.1c0.1,0.1,0.3,0.1,0.5,0c-0.2,0.2-0.3,0.6,0.1,0.7c0.3,0.1,0.5,0.1,0.8,0.1c0,0,0.1,0,0.1,0
	C379.7,95.1,383.4,92.2,380.2,89.9z M371.9,91L371.9,91C371.9,91,371.9,91,371.9,91c0,0,0,0.1-0.1,0.1c-0.1-0.1-0.3-0.1-0.4,0
	c0,0,0-0.1,0-0.1c0.1,0,0.1-0.1,0.2-0.2c0.1,0.1,0.2,0.1,0.4,0.1c0,0,0.1,0,0.1,0C372,90.9,371.9,90.9,371.9,91z M374.2,91
	C374.2,91,374.2,91,374.2,91c-0.2-0.2-0.5-0.2-0.7,0.1c0,0,0,0,0,0.1c0,0,0,0-0.1,0c0,0-0.1,0-0.1,0c0-0.3-0.4-0.5-0.7-0.3
	c0,0-0.1,0-0.1,0c-0.1-0.1-0.2-0.1-0.3-0.1c0,0,0.1,0,0.1,0c0.1,0.1,0.2,0.1,0.3,0.1c0.3-0.1,0.4-0.1,0.5-0.1
	c0.1,0.1,0.3,0.2,0.5,0.2c0.2,0,0.3-0.1,0.5-0.1s0.3-0.1,0.3-0.3c0-0.1,0.1-0.2,0.1-0.2c0,0,0,0,0,0c0,0.1,0,0.2,0,0.3
	c0,0.1,0,0.2,0.1,0.3C374.4,90.8,374.3,90.9,374.2,91z M379.1,91.6C379.1,91.6,379.1,91.6,379.1,91.6
	C379.1,91.6,379.1,91.6,379.1,91.6C379.1,91.6,379.1,91.6,379.1,91.6z M377.7,91.7c0.1,0.1,0.2,0.1,0.4,0c0.1-0.1,0.2-0.2,0.3-0.3
	c0.1,0.1,0.1,0.1,0.2,0.2c-0.2,0-0.4,0.1-0.5,0.3c-0.1,0-0.1,0.1-0.2,0.1C377.8,91.9,377.8,91.8,377.7,91.7
	C377.7,91.7,377.7,91.7,377.7,91.7z M375.8,94.2c0,0,0.1-0.1,0.1-0.1c0,0,0,0,0,0c0,0,0,0,0,0c0.1,0,0.3,0,0.4,0c0,0.1,0,0.1,0,0.2
	c-0.1,0-0.1,0-0.2,0C376,94.2,375.9,94.2,375.8,94.2z"/>
<path class="st5" d="M399.1,86c-0.9-0.1-1.7,0.1-2.5,0.5c-0.4-0.1-0.9,0.2-1.2,0.7c-0.1,0.1-0.2,0.1-0.3,0.2c0,0-0.1,0.1-0.1,0.1
	c-0.2,0.1-0.4,0.2-0.5,0.4c-1.2,1-2.3,2-3.5,2.7c-0.2-0.3-0.9-0.2-0.8,0.3c0.3,1.5,1.8,3.5,3.6,2.9c0.2-0.1,0.4-0.1,0.7-0.2
	c0.5-0.1,0.9-0.2,1.3-0.3c0-0.1,0-0.1-0.1-0.2c1.9-0.7,3.8-1.8,4.7-3.4C401,88.3,401.1,86.2,399.1,86z M397.7,90.1
	c0,0.1,0,0.1,0,0.2c-0.1,0-0.1,0-0.2,0C397.6,90.2,397.6,90.2,397.7,90.1z M396.5,90.7C396.5,90.7,396.5,90.7,396.5,90.7
	C396.5,90.7,396.5,90.7,396.5,90.7C396.5,90.7,396.5,90.7,396.5,90.7z M396.4,90.7C396.3,90.7,396.3,90.7,396.4,90.7
	c-0.1,0.1-0.1,0.1-0.1,0.1c0,0,0,0,0-0.1C396.3,90.7,396.3,90.7,396.4,90.7z M394.1,89.4C394.1,89.4,394.1,89.4,394.1,89.4
	c-0.1,0.1-0.2,0.2-0.3,0.3c0,0,0,0,0.1,0.1c-0.1,0.1-0.1,0.2,0,0.4c0,0,0,0.1,0,0.1c-0.2,0.2-0.4,0.3-0.5,0.5
	c-0.1-0.1-0.2-0.1-0.3-0.1c0-0.1,0-0.1-0.1-0.2c0,0,0,0,0,0C393.3,90.1,393.7,89.7,394.1,89.4C394.1,89.4,394.1,89.4,394.1,89.4z
	 M393.4,92.5C393.4,92.5,393.4,92.5,393.4,92.5C393.4,92.5,393.4,92.5,393.4,92.5C393.4,92.5,393.4,92.5,393.4,92.5z"/>
<path class="st2" d="M400.4,48.1c0.3,0,0.6,0.1,0.9,0.2"/>
<path d="M402,48.9c1.2,0.6,2.1,0.8,3.4,0.7c0.6,0,0.4-0.9-0.2-0.9c-1.1,0.1-2-0.1-2.9-0.6C401.8,47.8,401.5,48.6,402,48.9L402,48.9z
	"/>
<path d="M408.1,51.8c-1.5,0-2.7-1.2-2.7-2.7s1.2-2.7,2.7-2.7s2.7,1.2,2.7,2.7S409.5,51.8,408.1,51.8z M408.1,47.6
	c-0.8,0-1.5,0.7-1.5,1.5s0.7,1.5,1.5,1.5s1.5-0.7,1.5-1.5C409.5,48.3,408.9,47.6,408.1,47.6z"/>
<path d="M388.1,54.6c-0.2,1.1-0.7,2.3,0.2,3.2c0.3,0.3,0.8,0.2,0.8-0.2c0.1-0.8,0.1-0.7-0.1-1.5c-0.1-0.6-1-0.4-0.9,0.2
	c0,0.4,0,0.8,0.1,1.2c0.3-0.1,0.5-0.2,0.8-0.2c-0.5-0.5-0.1-1.9,0-2.5C389.1,54.1,388.2,54,388.1,54.6L388.1,54.6z"/>
<path d="M391.8,47c-0.3-0.3-0.6-0.7-1-1c-0.2-0.6-1.1-0.2-0.8,0.3c0.5,1,0.3,0.8,1.3,1.4C391.8,48,392.3,47.3,391.8,47z"/>
<path d="M446.5,72.8c-0.1-0.7-1-0.3-1.3-0.1c-0.7,0.3-1.5,0.1-2.2,0.4c-0.6,0.2-1.2,0.5-1.8,0.8c-0.3,0.2-4.3,0.6-5.1-0.1
	c0.6-0.9,2.8-2.5,2.9-2.5c1.1-0.7,2.2-1.2,3.3-1.8c0.9-0.5,2.8-1.2,3.1-2.4c0.1-0.3-0.1-0.6-0.4-0.6c-1.1-0.1-2.2,0.5-3.1,1.2
	c-2.2,1.5-4.8,3.4-7.4,4.7l0.2-0.3c-0.3-0.2-0.6-0.3-0.8-0.5c-0.3-0.2-0.6-0.4-1-0.6c-0.9-0.4-1.6,0.4-2.1,0.9
	c-0.2,0.2-0.3,0.3-0.4,0.4c-1,0.9-2.3,1.8-3.7,1.8c-1.5,0-2.9-0.4-4.4-0.9l-0.5-0.2c-0.4-0.2-0.7-0.3-1.1-0.5
	c-0.5-0.2-0.9-0.4-1.4-0.5c-0.4-0.1-0.8-0.1-1.2-0.1c-0.4,0-0.7,0-1.1,0h-0.5c-0.5,0-1,0-1.4-0.1c-0.2,0-0.5-0.2-0.8-0.3
	c-0.3-0.1-0.5-0.2-0.8-0.3c-0.2,0-0.4-0.1-0.6-0.2c-0.9-0.4-2.2-1-3.2-0.5c-0.9,0.6-0.6,1.7-0.4,2.3c0,0.1,0.1,0.2,0.1,0.3l0.1,0.4
	c0.4,1.3,0.7,2.6-0.2,3.2c-0.1,0.1-0.3,0-0.7-0.1c-0.2-0.1-0.5-0.2-0.7-0.2c-0.8-0.2-1.2,0-1.6,0.1c-0.1,0-0.2,0.1-0.3,0.1
	c-1.1,0.3-1.5,0.1-2.3-0.9c-0.9-1-1.6-1.7-3.1-1.7c-0.4,0-0.8,0.1-1.1,0.2c-0.2-0.6-0.5-1-1.1-1.5c-0.1,0-0.2-0.1-0.3-0.1
	c-2.2-1.4-1.5-3.9-1.7-6.2c-0.2-1.4-1.1-2-1.4-3.2c0,0,0.1,0,0.1-0.1c1.8-1.3-0.3-4.8,0-6.3c0.5-2.7-0.7-4.2-2.6-5.7
	c0.5,0.1,0.9,0.2,1.4,0.2c1.7,0.1,3.8-0.6,5.1-1.7c0.5-0.4,0.8-0.8,1.1-1.2c0,0,0.1,0.1,0.2,0.1c0.3,0.1,0.6,0.1,0.9,0.2
	c0.6,0.1,0.6-0.8,0.1-0.9c-0.2-0.1-0.5-0.1-0.7-0.2c0.4-1,0.6-2,0.7-3.3c0,0,0,0,0,0c0.1,0,0.2-0.1,0.2-0.2c0.7-1.3,0.7-2.1-0.7-2.9
	c-2.3-1.2-2.4-2.9-4.9-3.2c0.7-0.5,1.4-0.9,2.1-1.3c0.5-0.1,0.1-1-0.4-0.7c-1,0.5-1.9,1-2.8,1.7c-2.6-1.2-3.3-3.7-6.2-1.2
	c-1,0.9-2.2,1.7-2.6,3c-0.3,1.1,0.9,2.5,1,3.6c0,0.1,0,0.1,0,0.2c-0.9,0.6-2.3,1.6-2.1,2.4c0.1,0.6,1,0.4,0.9-0.2
	c0-0.3,0.5-0.7,1.3-1.3c-0.1,2.3,1.1,4.4,3,5.7c-3.3-0.5-5.4,4.5-7.5,7c-1,1.2-2.6,3.4-1.5,5c0.5,0.8,1,1.1,1.8,1.5
	c1,0.4,2.1,1.5,3.2,1.8c0.2,0.2-1.1-0.3-1.4-0.5c0,0,0,0,0,0c-1.9-1.2-4-2.1-5.6-0.7c-1.5,1.4-2,4.2-2.5,6.1c0,0,0,0.1,0,0.1
	c-0.2,0.3-0.3,0.7-0.4,1c-1,2.5-2.8,4.5-3.7,6.9c-1,2.7-0.3,5.7-1.7,8.4c-0.4,0.7-1.1,2.2-0.9,3.2c-0.3,0.4-0.5,0.9-0.7,1.4
	c-0.3-0.1-0.7-0.2-1.1,0c-1.2,0.4-1.3,1.3-1.4,2c-0.1,0.4-0.1,0.8-0.1,1.1s0,0.5,0,0.8c0,0.4-0.3,0.8-0.4,1
	c-0.4,0.8-0.3,1.4-0.1,1.7c0.4,0.7,1.4,1,3.2,1.1c1.7,0.1,3.5,0,5.2,0c0.9,0,1.7,0,2.5,0c4.3,0,8.7,0,13-0.1
	c7.9-0.1,15.9-0.2,23.9-0.1c1.2,0,2.5,0,3.7,0.1c2.6,0.1,5.3,0.1,7.9,0.1c1.9,0,3.7,0,5.8-0.1c1.8,0,3.7,0,5.5,0h0.6
	c1.3,0,2.9,0.1,3.9-1.8c0.3-0.7,0.3-1.8-0.1-2.7c-0.3-0.5-0.2-0.9,0.1-1.6l0.1-0.2c0.1-0.1,0.2-0.3,0.3-0.4c0.7-0.9,1.1-2,1.2-3.4
	c0,0,0,0,0,0c0,0,0,0,0-0.1c-0.3-4.2-3.7-6.3-7.1-6.4c0,0-0.1-0.1-0.2-0.1c-0.3-0.7-0.7-1.4-1-2.1c0.1-0.1,0.1-0.1,0.1-0.2
	c1-0.8,1.6-1.5,3.4-1.8c0.9-0.2,6.4-0.8,3.9,2.8c-0.2,0.2-0.1,0.4,0,0.6c0.1,0.2,0.3,0.3,0.5,0.2c1.2-0.1,1.7-2.3,1.9-3.2
	c0.5-1.5,0.8-2.9,1.6-4.4C446.3,73.4,446.6,73.3,446.5,72.8z M428.8,85.6c-0.5,1-1.3,1-2.1,0.3C427.4,85.8,428.1,85.7,428.8,85.6z
	 M411.9,83.1c0.6,0,1.5,0.1,2.4,0.3c-0.1,0-0.2,0.1-0.2,0.2c-0.9,1.1-1.9,2-3,2.9c-1,0.8,0.5-2.7,0.4-2.7
	C411.7,83.5,411.8,83.3,411.9,83.1z M410.9,74.6c0,0.1-0.1,0.2-0.1,0.2c0-0.1,0-0.3-0.1-0.4C410.8,74.5,410.8,74.6,410.9,74.6z
	 M410.1,71.5c0.1-0.1,0.2-0.1,0.4-0.1c-0.1,0.1-0.3,0.2-0.3,0.4c0,0.2,0,0.4,0,0.6c0,0,0-0.1,0-0.1C410.2,72.1,410,71.6,410.1,71.5z
	 M410.4,76.9c0,0,0,0.1,0,0.1c0,0,0,0-0.1,0C410.4,76.9,410.4,76.9,410.4,76.9z M409.4,86.1c0,0.2,0,0.5,0,0.7
	c-0.1,0-0.3,0.1-0.4,0.1C409.2,86.6,409.3,86.4,409.4,86.1z M399.8,77C399.8,77,399.8,77,399.8,77c-0.8-0.1-1.6-0.3-2.4-0.4
	c0,0,0-0.1,0-0.1c0.1,0,0.2,0,0.3,0c0,0,0.1,0,0.1,0c0,0,0,0,0,0c0,0,0.1,0,0.1,0c0.1,0,0.1,0,0.2,0c0,0.1,0.1,0.2,0.2,0.2
	C398.8,76.7,399.3,76.9,399.8,77z M397.6,73.3c0,0.1,0.1,0.1,0.2,0.2c0.2,0.4,0.4,0.7,0.7,1.1c-0.4,0.2-0.8,0.3-1.2,0.3
	c-0.1-0.6-0.2-1.1-0.4-1.6c0.1-0.2,0.2-0.4,0-0.6c-0.9-0.9-1.2-1.9-1.3-3C395.9,71.3,396.3,72.5,397.6,73.3z M395.6,72.8
	c0.6,0.7,0.4,1.7,0.7,2.6c-0.6,0.3-1.2,0.6-1.9,1c-0.3-0.2-0.6-0.5-0.9-0.7c-1.5-2.7-6.7-8.7-5.1-11.3c0.1-0.1,0.1-0.2,0.1-0.3
	c0,0,0,0,0,0c1.1,0.4,3.1,0.3,4.7-0.2c1,2.1,1.4,4,1.4,6.4C394.6,71.4,395,72,395.6,72.8C395.6,72.8,395.6,72.8,395.6,72.8z
	 M390.1,90.3c-0.1,0-0.1,0-0.2,0c0,0-0.1,0-0.1,0c0,0-0.1-0.1-0.1-0.1C389.8,90.3,390,90.3,390.1,90.3z M394.1,63.6
	C394.1,63.6,394.1,63.6,394.1,63.6c0.1,0.1,0.1,0.2,0.1,0.2C394.2,63.8,394.1,63.7,394.1,63.6z M395.5,66.5
	c-0.1-0.8-0.5-1.4-0.9-2.1c0.1,0.1,0.2,0.2,0.3,0.3C395.2,65.3,395.4,65.9,395.5,66.5z M388.6,37.7c2.2-1.9,3.7-0.5,5.4,0.5
	c-2,1.5-4,3.3-6.1,4.5C387.7,40.7,386.3,39.7,388.6,37.7z M388,44c0-0.1,0-0.2-0.1-0.3c1.1-0.7,2.2-1.3,2.4-1.4
	c1.5-1.1,2.9-2.3,4.4-3.5c0.1,0,0.1,0.1,0.2,0.1c1.8,0,2.6,1.2,3.9,2.2c0.8,0.7,2.9,1,2,2.5c0,0.1-0.1,0.1-0.1,0.2
	c-0.2,0-0.3,0.2-0.3,0.4c-0.3,2.4-1.2,4.5-3.6,5.7C392.9,51.8,387.6,48.6,388,44z M385.1,63.5c-0.1-0.1-0.3-0.1-0.4-0.2
	c-1.9-1.3-3.6-2.7-1.9-5.1c1.3-2.1,5.5-9,8.6-6.8c2.4,1.7,3.1,3.4,2.6,6.3c-0.3,1.5,2,4.5-0.7,5.3c-1.3,0.4-3.5-0.4-5-0.1
	c-0.5-0.4-1-0.8-1.3-1.4c-0.2-0.3-0.8-0.1-0.8,0.2C386.4,62.6,386,63.1,385.1,63.5z M387.4,63.2C387.4,63.2,387.4,63.2,387.4,63.2
	c-0.2,0.1-0.3,0.2-0.5,0.3c0-0.2,0.1-0.4,0.1-0.6C387.1,63,387.3,63.1,387.4,63.2z M380.3,78.8c0,0.1,0.1,0.1,0.1,0.2
	C380.3,78.9,380.3,78.8,380.3,78.8C380.2,78.7,380.3,78.7,380.3,78.8z M376,73.6c0,0.1,0,0.2,0,0.2c0,0,0,0-0.1,0.1c0,0,0,0.1,0,0.1
	c0,0-0.1,0-0.1,0C375.9,73.9,375.9,73.7,376,73.6z M375.6,74.4c0,0.1,0,0.2,0,0.3c0,0,0.1,0,0.1,0c0,0.1,0,0.2-0.1,0.3
	c-0.1,0.1-0.2,0.1-0.2,0.3c0,0,0,0.1,0,0.1c-0.1-0.1-0.1-0.2-0.2-0.2C375.3,75,375.4,74.7,375.6,74.4z M372.4,86.9
	c0,0.2,0,0.3-0.1,0.5c0,0,0,0-0.1,0.1c0,0,0,0,0,0C372.3,87.3,372.4,87.2,372.4,86.9z M372.3,84.7c0,0.1,0,0.2,0,0.3
	c-0.2,0.6-0.3,1.1-0.5,1.7c0-0.1,0-0.2,0-0.1C371.9,85.9,372.1,85.3,372.3,84.7z M384.4,93.5L384.4,93.5L384.4,93.5
	C384.4,93.5,384.4,93.5,384.4,93.5z M387.6,97.5c0.1,0,0.2-0.1,0.2-0.1c0,0,0,0,0,0c0,0,0,0,0,0c0,0.1,0,0.1,0,0.1
	C387.8,97.5,387.7,97.5,387.6,97.5z M399.3,90.9c-0.1,0.1-0.2,0.1-0.4,0.1c-0.4,0.1-1,0.2-1.4,1c-0.1,0.1-0.1,0.3-0.2,0.5
	c-0.2,0.4-0.4,1.2-0.8,1.5c-0.2,0.1-0.4,0.2-0.6,0.2c0,0-0.1,0-0.1,0c-0.6,0-1.3-0.2-2.1-0.6c-0.1,0-0.1-0.1-0.2-0.1
	c-0.2-0.1-0.4-0.2-0.7-0.3c-0.4-0.1-0.8,0-1.2,0c-0.8,0.1-1.3,0.7-1.6,1.2c-0.4,0.5-0.6,0.8-1,0.7c-0.4,0-0.9-0.4-1.4-0.7
	c-0.4-0.3-0.8-0.5-1.2-0.7c-0.4-0.2-0.4-0.2-0.6-0.5l-0.2-0.3c-0.2-0.3-0.4-0.7-0.9-0.7c-0.1,0-0.1,0-0.1,0c-0.4,0-0.7,0.3-1,0.6
	c-0.2,0.2-0.4,0.5-0.6,0.7c-0.5,0.7-0.8,1-1.4,1c-0.6,0-1.4-0.1-1.9-0.1c-0.3,0-0.5,0-0.6,0c-0.3,0-0.6,0.2-0.9,0.3
	c-0.2,0.1-0.4,0.2-0.5,0.2c-0.6,0.1-3-0.2-4.2-0.5c-0.4-0.1-0.7-0.1-0.9-0.2c-0.5-0.1-0.7-0.2-1.4-0.5c-0.2-0.1-0.7-0.7-0.9-1.1
	c-0.1-0.1-0.2-0.3-0.2-0.5c0-0.1-0.1-0.2-0.1-0.3c0.2-0.5,0.4-0.9,0.6-1.4c2.2,1.6,9.1-0.5,11.2,0.8c0.3,0.2,0.7,0,0.7-0.3
	c0.1-0.7,0-0.6-0.5-1.4c-2-3.8,0.1-3.2,0.1-5.2c0-1.7-2-3.5-3-4.9c-0.8-1-2.3-5.7-0.7-2.3c1.1,2.3,3,4.3,4.3,6.5
	c1.6,2.8,4.2,5.5,6.8,7.4c0.1,0.1,0.3,0.1,0.4,0.1c0.1,0,0.1,0,0.2,0c1.6-0.2,2.6-1.1,3.7-2.1c1.1-1,2.5-1.8,3.6-2.8l0,0.1
	c0.5,0,0.9,0,1.4-0.1c0.6-0.1,1.2-0.2,1.5,0c0.5,0.2,0.6,1,0.5,2C400.5,89.7,399.8,90.8,399.3,90.9z M379.6,88.8
	c0.1-0.1,0.1-0.2,0.2-0.3c0,0.1,0.1,0.2,0.2,0.4C379.9,88.8,379.7,88.8,379.6,88.8z M380.3,85.3c-0.1,0.2-0.2,0.5-0.3,0.7
	c0-0.1,0-0.2,0-0.3c0-0.1,0.1-0.2,0.1-0.3C380.2,85.4,380.3,85.3,380.3,85.3z M380.2,83C380.2,83,380.2,83,380.2,83
	C380.2,83,380.2,83,380.2,83C380.2,83,380.2,83,380.2,83z M380.7,89.7C380.8,89.7,380.8,89.7,380.7,89.7c0.1,0,0.1,0,0.1,0.1
	C380.8,89.8,380.8,89.7,380.7,89.7z M404.4,95.1C404.4,95.1,404.4,95.1,404.4,95.1C404.4,95.1,404.4,95.1,404.4,95.1
	C404.4,95.1,404.4,95.1,404.4,95.1z M415,96.3C415,96.2,415,96.2,415,96.3c-0.2-0.2-0.3-0.3-0.4-0.4c0,0,0,0,0,0
	c0-0.1,0.1-0.1,0.1-0.2c0,0-0.1,0-0.1,0c0,0,0,0,0-0.1c0-0.1,0-0.1,0-0.1c0-0.1,0-0.2,0-0.3c0.1,0.3,0.2,0.6,0.4,0.8
	c0.1,0.1,0.1,0.1,0.2,0.2C415.2,96.2,415.1,96.2,415,96.3z M427.2,97C427.2,96.9,427.1,96.9,427.2,97c0-0.1,0-0.1,0-0.1
	c0.1,0,0.1,0.1,0.2,0.1C427.3,96.9,427.2,96.9,427.2,97z M429.8,94.5c0,0,0,0.1,0,0.1c0,0.1-0.1,0.1-0.1,0.2c-0.2,0.5-0.6,0.8-1,0.9
	c-0.9,0.2-1.9-0.3-2.4-1.3c-0.1-0.2-0.3-0.3-0.5-0.3s-0.4,0.1-0.5,0.3c-0.5,0.7-1.5,1.3-2.4,1.2c-0.4-0.1-0.4-0.3-0.5-1
	c0-0.4,0-0.9-0.5-1.1s-1,0.1-1.4,0.5l-0.2,0.2c-0.8,0.7-1.6,1.3-2.6,1.4c-0.6,0-1-0.1-1.3-0.4c-0.2-0.2-0.3-0.5-0.2-0.9
	c0.1-0.3,0.4-1.5,0.4-1.5c0.1-0.2,0-0.5-0.2-0.6c-0.2-0.1-0.5-0.1-0.7,0c-0.3,0.2-0.9,0.6-1.2,0.9c-0.2,0-0.4,0-0.5,0.1
	c-0.1,0.1-0.2,0.3-0.2,0.4c0,0-0.1,0-0.1,0c0,0,0,0,0.1,0.1c0,0,0,0-0.1,0c-0.1,0.1-0.2,0.2-0.4,0.3c0,0,0,0,0,0c0,0,0,0,0,0
	c-0.6,0.5-1.2,1-1.8,1.2c-1.1,0.3-2.4,0-3.4-0.7c-1-0.7-1.2-1.3-1.6-2.4c-0.1-0.2-0.3-0.4-0.5-0.4c-0.3-0.1-0.5,0-0.6,0.2
	c-0.6,0.8-2.3,2.3-3.5,2.3c-0.1,0-0.1,0-0.1,0c-0.3-0.1-0.6-0.2-0.8-0.6c-0.4-0.6-0.1-1.2,0.5-2c0.5-0.8,1.3-1.8,0.4-2.9
	c0-0.1,0-0.1,0-0.2c0.2-1.5-0.1-2.7-1-3.2c-0.7-0.4-1.5-0.3-2.3-0.2c-0.4,0.1-0.8,0.1-1.1,0.1l0,0.1c-0.4-0.4-0.9-0.6-1.4-1
	c-1.8-1.3-3.3-5.5-3.1-7.8c1.1,1,2.4,1.8,3.6,1.3c0.2-0.1,0.4-0.2,0.5-0.4c0.5,0.1,1,0.1,1.4,0.2l10.8,4.8c-0.7,1.8-2.7,6.7,0,7
	c2.1,0.2,5.1-4.2,6.3-5.6c0-0.1,0-0.2,0-0.3c1.9,0.3,3.8,0.8,4.1,1c0.9,0.5,1.6,1.4,2.8,1.6c2.5,0.4,3.8,1.1,5.8,2.6
	c-0.1,1.9,0.6,3.4,1.7,4.4c0,0.2,0,0.4,0,0.6c-0.1,0.1-0.1,0.1-0.2,0.2C429.6,94.1,429.6,94.4,429.8,94.5z M430,87.7
	c0-0.1-0.1-0.1-0.1-0.2c0,0,0.1-0.1,0.1-0.1C430,87.5,430,87.6,430,87.7z M430.3,84c0,0,0.1,0,0.1,0C430.4,84,430.3,84,430.3,84
	C430.3,84,430.3,84,430.3,84z M430.6,87.6c-0.1-0.1-0.1-0.1-0.2-0.1c0.1,0,0.1,0,0.2,0C430.6,87.5,430.6,87.6,430.6,87.6z M434,82.1
	c0,0,0.1,0.1,0.1,0.1c-0.1,0-0.1,0-0.2,0C434,82.2,434,82.1,434,82.1z M433.6,85C433.6,85,433.6,85,433.6,85
	C433.6,85,433.6,85,433.6,85C433.6,85,433.6,85,433.6,85z M433.3,80.7c0,0.1,0,0.1,0,0.2c0,0,0,0,0,0c0,0,0,0-0.1,0
	C433.3,80.9,433.3,80.8,433.3,80.7z M432.7,87.2c0,0.1,0,0.2,0,0.3c-0.1,0-0.1-0.1-0.2-0.1C432.6,87.3,432.7,87.3,432.7,87.2z
	 M431.2,89.7C431.2,89.7,431.2,89.7,431.2,89.7c0-0.1,0.1-0.1,0.1-0.1c0,0,0,0,0,0C431.3,89.6,431.2,89.7,431.2,89.7z M431.7,94.3
	C431.7,94.3,431.7,94.3,431.7,94.3C431.7,94.3,431.7,94.3,431.7,94.3C431.7,94.3,431.7,94.3,431.7,94.3z M432.3,84
	c-0.1,0.1-0.1,0.2-0.2,0.3c0,0-0.1,0-0.1,0C432.1,84.2,432.2,84.1,432.3,84C432.3,84,432.3,84,432.3,84C432.3,84,432.3,84,432.3,84z
	 M432.3,73.2c0,0,0-0.1,0-0.2C432.3,73.1,432.3,73.1,432.3,73.2C432.3,73.2,432.3,73.2,432.3,73.2z M432.7,97
	C432.7,97,432.7,97,432.7,97C432.7,97,432.7,97,432.7,97C432.8,97,432.8,97,432.7,97C432.7,97,432.7,97,432.7,97z M433.9,96.1
	c0-0.2-0.2-0.4-0.3-0.5c-0.1,0-0.2-0.1-0.2-0.1c0,0,0-0.1,0-0.1c0.1-0.2,0-0.4-0.2-0.5c0,0-0.1-0.1-0.2-0.1c0,0-0.1-0.1-0.1-0.1
	c0.3,0.1,0.7,0.2,1,0.2c0,0,0,0.1-0.1,0.1c-0.1,0.1-0.1,0.2-0.1,0.3c0,0.1,0.1,0.2,0.1,0.3c0,0.2,0.2,0.4,0.4,0.4
	c0.1,0,0.1,0,0.2,0.1c0,0,0,0.1,0,0.1C434.3,96.1,434.1,96.1,433.9,96.1z M435.7,96.8C435.7,96.8,435.7,96.8,435.7,96.8
	C435.7,96.8,435.7,96.8,435.7,96.8C435.7,96.8,435.7,96.8,435.7,96.8z M435.9,96.8C435.9,96.8,435.9,96.8,435.9,96.8
	C435.9,96.8,435.9,96.8,435.9,96.8C435.9,96.8,435.9,96.8,435.9,96.8z M436.4,95C436.4,95,436.4,95,436.4,95c-0.4,0-0.7,0.1-1,0.4
	c0,0,0,0,0,0c0-0.1-0.1-0.2-0.1-0.3c0,0-0.1-0.1-0.1-0.1c0.4,0,0.8,0,1.2-0.1C436.4,94.9,436.4,95,436.4,95z M437.3,89.8
	C437.3,89.8,437.3,89.8,437.3,89.8c-0.1-0.1-0.2-0.3-0.3-0.5c0,0,0.1,0,0.1,0C437.1,89.5,437.2,89.6,437.3,89.8
	C437.3,89.8,437.3,89.8,437.3,89.8z M439.8,93.9C439.8,93.9,439.8,93.9,439.8,93.9C439.7,93.9,439.8,93.9,439.8,93.9
	C439.8,93.9,439.8,93.9,439.8,93.9z M439.8,93.9C439.7,93.9,439.7,93.9,439.8,93.9C439.7,93.9,439.7,93.9,439.8,93.9
	c-0.3-0.1-0.5,0-0.6,0.2c-0.1,0.1-0.2,0.2-0.3,0.3c0,0,0,0,0,0c0,0-0.1,0-0.1,0c-0.4,0-0.7,0.1-1,0.3c0-0.1,0-0.1,0-0.2
	c0.7-0.2,1.4-0.5,2-0.9C439.8,93.8,439.8,93.8,439.8,93.9z M439.7,85.8c0,0,0,0.1,0,0.2c0,0,0,0,0,0
	C439.7,85.9,439.7,85.9,439.7,85.8z M435.6,84.8c0.1-0.1,0.3-0.1,0.5-0.1c0.8,0,1.8,0.6,2.1,1c0.3,0.4,0.2,0.6,0.2,0.8
	c-0.2,0.1-0.5,0.1-0.7,0c-0.2-0.2-0.3-0.4-0.3-0.5c-0.2-0.3-0.3-0.5-0.5-0.6c-0.3-0.2-0.6-0.3-0.9-0.4
	C435.8,84.9,435.7,84.9,435.6,84.8C435.5,84.9,435.5,84.8,435.6,84.8z M434.7,91.5c0.1,0.1,0.3,0.1,0.4,0.2c0.8,0.5,0.3,1.3,0.3,1.4
	c-0.4,0.4-1.1,0.4-1.8,0c-0.6-0.3-1-0.7-1.1-1.1c-0.1-0.2-0.1-0.5,0.1-0.8C433,91.1,433.7,91.2,434.7,91.5z M434.9,74.3
	C434.9,74.3,434.9,74.3,434.9,74.3C434.9,74.3,434.9,74.3,434.9,74.3C434.9,74.3,434.9,74.3,434.9,74.3z M438.8,76.5
	c0-0.1,0-0.1,0-0.2c0.5,0,1.1,0,1.6-0.1c0,0,0.1,0,0.1,0C440,76.3,439.4,76.4,438.8,76.5z M440.6,76.3
	C440.6,76.3,440.6,76.2,440.6,76.3c0-0.1,0.1-0.1,0.1-0.1c0,0,0,0,0,0.1C440.7,76.3,440.6,76.3,440.6,76.3z M440.9,74.8
	C440.9,74.8,440.9,74.8,440.9,74.8C440.9,74.8,440.9,74.8,440.9,74.8C441,74.8,440.9,74.8,440.9,74.8z"/>
</svg>
