<?xml version="1.0" encoding="utf-8"?>
<!-- Generator: Adobe Illustrator 16.0.0, SVG Export Plug-In . SVG Version: 6.00 Build 0)  -->
<!DOCTYPE svg PUBLIC "-//W3C//DTD SVG 1.1//EN" "http://www.w3.org/Graphics/SVG/1.1/DTD/svg11.dtd">
<svg version="1.1" id="Calque_1" xmlns="http://www.w3.org/2000/svg" xmlns:xlink="http://www.w3.org/1999/xlink" x="0px" y="0px"
	 width="500px" height="500px" viewBox="0 0 500 500" enable-background="new 0 0 500 500" xml:space="preserve">
<path fill-rule="evenodd" clip-rule="evenodd" fill="#CD2859" d="M110.974,217.913h15.964v13.6h-15.964V217.913z M170.958,217.913
	h15.964v13.6h-15.964V217.913z M74.919,217.913H95.67v64.15H74.919v-24.742H45.715v24.742H25v-64.188h20.715v25.007h29.204V217.913z
	 M130.183,268.546l-7.947,13.517h-20.836l37.646-64.188h19.6l37.642,64.188H175.45l-7.925-13.517H130.183z M148.878,236.732
	l-11.151,18.973h22.272L148.878,236.732z M267.378,217.913v14.438H221.01v10.53h39.894v14.439H221.01v24.742h-19.795v-64.15H267.378
	z M291.163,242.881h39.857v14.439h-39.857v10.31h46.376v14.433h-66.212v-64.172h66.212v14.434l-46.376,0.003V242.881z
	 M342.013,217.875h19.791v49.756h43.102v14.433h-62.893V217.875z M428.628,242.881h39.895v14.439h-39.895v10.373H475v14.432h-66.108
	v-64.234H475v14.434l-46.372,0.003V242.881z"/>
</svg>
