<?xml version="1.0" encoding="utf-8"?>
<!-- Generator: Adobe Illustrator 21.1.0, SVG Export Plug-In . SVG Version: 6.00 Build 0)  -->
<svg version="1.1" id="Calque_1" xmlns="http://www.w3.org/2000/svg" xmlns:xlink="http://www.w3.org/1999/xlink" x="0px" y="0px"
	 viewBox="0 0 500 178" style="enable-background:new 0 0 500 178;" xml:space="preserve">
<style type="text/css">
	.st0{fill:#00ABE8;}
	.st1{fill-rule:evenodd;clip-rule:evenodd;fill:#EB6608;}
</style>
<g>
	<path class="st0" d="M103,58.1V15.4H81.5v122.6H103V87.2c0.1-4,1.6-9.9,4.4-13.1c2.8-3.1,5.2-4.4,6.4-4.9c1.2-0.5,4.3-1.6,6.8-1.7
		c2.5-0.1,5.2,0,6.9,0.4c1.7,0.4,3.3,0.8,5.8,2.9c0,0,2,1.4,3.1,5.8c1.1,4.5,0.8,7.3,0.8,8.1V138l21.5,0V78.8
		c-0.1-4.9-0.7-8.7-1.8-11.6c-0.3-0.9-0.6-1.7-1-2.4c-0.3-0.4-0.7-1.4-1.4-2.4c-1.6-2.4-4.2-5.7-7.2-7.6c-4.3-2.7-8.7-5-13.1-5.7
		c-1.6-0.3-3.2-0.5-5.2-0.6c-3.6-0.2-7.8,0-11.6,1.1c-5.8,1.7-8.5,3.2-13,7.2L103,58.1"/>
	<path class="st0" d="M441,63.5V50.1l-21.1,0V138h21V89.1c0.4-7.6,2.4-9.8,6.5-13.5c4.1-3.7,10.3-4.8,11.5-4.9
		c1.2-0.2,6.3-0.8,12,0.6V49.3c-4.2-0.9-12.4,0.8-14.1,1.4c-1.7,0.6-5.6,2-9.2,4.8C444,58.4,441.8,61.9,441,63.5"/>
	<path class="st0" d="M383.4,121c-6.4,3.1-18,3.1-25.4-5.1c-6.4-7.1-6.4-17.2-6.3-17.2l0,0l64.3,0c0.6-7.5,0.3-21.1-5.6-31.2
		C404.5,57.5,396.1,51,384,48.2c-12.1-2.8-22.2-0.2-28.3,2.5c-6.2,2.7-13.5,7-19.8,18.5c0,0-4.8,8.7-4.9,23.6
		c-0.1,14.9,3.4,20.9,3.5,21.8c0.2,0.9,3.5,8.2,9.5,14.2c6.1,6,15.3,9.2,16.8,9.5c1.6,0.3,10.1,2.9,22.1,1
		c12-1.9,20.5-8.7,24.1-12.8c3.6-4.2,8.5-11.6,9.1-19v-0.8h-22.2C393.2,112.2,389.8,117.8,383.4,121 M363.6,65.6
		c3.6-2,12.9-4.5,20.9,0.8c8,5.3,9.5,10.7,9.8,16l-41.6-0.1C353.8,71.9,360.1,67.6,363.6,65.6z"/>
	<path class="st0" d="M246.2,138c-1.9-2.8-4.8-7.6-4.8-12.5V71.9c-0.2-2.4,0.8-10-7.4-16.5l-0.8-0.6c-4.1-3-9.1-4.3-13.3-5.4
		c-4.2-1.1-9.2-1.6-16-1.7c-6.7-0.1-16.1,1.7-16.1,1.7c-8.5,2.2-14.2,6.5-17.4,11.5c-3.2,5.1-4.1,11.8-4.3,17.4h20.7
		c0,0-0.3-6.8,2.6-9.6c2.9-2.8,7.4-4.2,15.9-4.5c0,0,7.4-0.2,11.3,2.4c3.9,2.6,3.9,4.7,4.1,6.9c0.1,2.1-0.3,4.5-0.8,5.1
		c-0.6,0.6-1.5,1.6-3.7,2l-18.9,3.8c-9.4,1.6-13.4,2.9-19.5,4.8c-6.1,2-11.5,8.7-12.9,11.4c-1.4,2.7-3.7,9.3-2.3,15.8
		c1.4,6.4,4.2,12,9.8,15.9c5.6,3.9,10.9,6.2,18.8,6.9c7.9,0.7,13.9-0.8,15.6-1.3c1.7-0.5,7.7-2.1,13.9-7.7v8H246.2 M212.7,119.3
		c-8.7,5.3-18.9,3.8-20.9,2.8c-1.9-1-7.2-2.3-8-10.2c0,0-0.4-5.9,4.5-8.6c0,0,2.9-1.8,6.8-3c3.9-1.2,11.9-3.1,16-3.7
		c4.1-0.5,9.5-2.1,9.5-2.1v10.3C220.6,104.8,221.3,113.9,212.7,119.3z"/>
	<path class="st0" d="M307.3,50.1v8.2c-5.3-5.3-14.6-9.3-23-9.3c-8.4,0-17.2,1.8-24,7c-6.8,5.3-13.3,12.4-15.2,25.7
		c-1.9,13.3-0.5,25.1,6.2,34.9c6.8,9.8,16.2,16.1,30.9,16.6c14.7,0.5,25.1-8.8,25.1-8.8V136c0,0,1.4,11.5-16,12.1
		c-17.5,0.6-20.9-5-21.6-10.1h-22.5v1c1.5,12.8,10.8,17.7,10.8,17.7c15.1,9.6,44.3,4.7,44.3,4.7c15.1-2.9,20.6-11.6,20.6-11.6
		c3.8-5.4,4.1-8.4,4.3-14.1V50.1H307.3 M300.1,111.3c-6.9,5.6-17.8,7.2-26.8,0.4c0,0-9.1-7-8.3-22.6c0.7-15.6,10.4-19.6,11.7-20.2
		c1.4-0.6,13.2-6.1,23.9,2.8c0,0,3.9,3.2,5.4,7.8c1.5,4.6,1.5,9.9,1.5,9.9l0.1,1.3C307.5,98.8,306.9,105.7,300.1,111.3z"/>
	<path class="st1" d="M61.2,80.9c0,4.4-3.6,7.9-7.9,7.9H36.9c-4.4,0-7.9-3.6-7.9-7.9V64.6c0-4.3,3.6-7.9,7.9-7.9h16.3
		c4.4,0,7.9,3.6,7.9,7.9V80.9"/>
	<path class="st1" d="M61.2,130c0,4.4-3.6,7.9-7.9,7.9H36.9c-4.4,0-7.9-3.6-7.9-7.9v-16.3c0-4.3,3.6-7.9,7.9-7.9h16.3
		c4.4,0,7.9,3.6,7.9,7.9V130"/>
</g>
</svg>
