<?xml version="1.0" encoding="utf-8"?>
<!-- Generator: Adobe Illustrator 21.0.2, SVG Export Plug-In . SVG Version: 6.00 Build 0)  -->
<svg version="1.1" id="Calque_1" xmlns="http://www.w3.org/2000/svg" xmlns:xlink="http://www.w3.org/1999/xlink" x="0px" y="0px"
	 viewBox="0 0 500 202" style="enable-background:new 0 0 500 202;" xml:space="preserve">
<style type="text/css">
	.st0{fill:#898989;}
</style>
<path class="st0" d="M52,29.4v27.1h26.3V29.4h15.9v70.5H78.3V70.4H52v29.5H36.1V29.4H52z"/>
<path class="st0" d="M126.1,81.8l-5.8,18.1h-18.8l24.6-70.5h24l25.2,70.5h-19.8l-6.2-18.1H126.1z M146.6,69.9l-5-15
	c-1.4-4.2-2.9-9.4-4.1-13.6h-0.2c-1.2,4.2-2.4,9.5-3.7,13.6l-4.8,15H146.6z"/>
<path class="st0" d="M192,99.9l-25-70.5h19.3l9.5,29.8c2.7,8.5,5.1,16.4,7,25.2h0.3c2-8.5,4.4-16.8,7.1-24.9l10-30.1H239l-26.3,70.5
	H192z"/>
<path class="st0" d="M289.9,70.1H264v16.7h29v13.1h-44.9V29.4h43.4v13.1H264v14.6h25.9V70.1z"/>
<path class="st0" d="M307.9,29.4h15.9v57.1h28v13.4h-43.9V29.4z"/>
<path class="st0" d="M361.9,29.4h15.9v57.1h28v13.4h-43.9V29.4L361.9,29.4z"/>
<path class="st0" d="M423.7,83.5c4.2,2.2,10.9,4.4,17.7,4.4c7.3,0,11.2-3,11.2-7.6c0-4.4-3.3-6.9-11.8-9.8
	c-11.7-4.2-19.5-10.7-19.5-20.9c0-12,10.1-21.1,26.7-21.1c8.1,0,13.8,1.6,18,3.6l-3.6,12.8c-2.7-1.4-7.8-3.3-14.6-3.3
	c-6.9,0-10.2,3.2-10.2,6.8c0,4.5,3.9,6.5,13.1,9.9c12.4,4.6,18.2,11.1,18.2,21c0,11.8-9,21.9-28.3,21.9c-8.1,0-16-2.2-20-4.4
	L423.7,83.5z"/>
<path class="st0" d="M36.7,161.5c3.6,1.9,9.3,3.8,15.1,3.8c6.3,0,9.6-2.6,9.6-6.5c0-3.8-2.9-5.9-10.1-8.4
	c-10-3.6-16.6-9.1-16.6-17.9c0-10.3,8.7-18.1,22.8-18.1c6.9,0,11.8,1.3,15.4,3l-3,10.9c-2.3-1.2-6.7-2.9-12.5-2.9
	c-5.9,0-8.8,2.8-8.8,5.8c0,3.8,3.3,5.5,11.2,8.5c10.6,3.9,15.6,9.5,15.6,18c0,10.1-7.7,18.7-24.2,18.7c-6.9,0-13.7-1.9-17.1-3.8
	L36.7,161.5z"/>
<path class="st0" d="M105.7,175.6v-24.7l-21.2-35.6h17.4l6.8,14.5c2.1,4.4,3.6,7.6,5.2,11.5h0.2c1.5-3.8,3.1-7.2,5.1-11.5l6.8-14.5
	h17l-22.1,35.2v25.1H105.7L105.7,175.6z"/>
<path class="st0" d="M147.5,115.3h15.6v48.8h27.5v11.5h-43.1V115.3z"/>
<path class="st0" d="M205.9,175.6l-20.7-60.3h16l7.9,25.5c2.2,7.2,4.2,14,5.8,21.6h0.3c1.6-7.2,3.6-14.4,5.9-21.3l8.2-25.8h15.5
	L223,175.6L205.9,175.6L205.9,175.6z"/>
<path class="st0" d="M262.9,160.1l-5,15.5h-16.3l21.3-60.3h20.8l21.9,60.3h-17.2l-5.4-15.5H262.9z M280.7,149.9l-4.4-12.8
	c-1.2-3.6-2.5-8.1-3.5-11.6h-0.2c-1,3.6-2.1,8.1-3.2,11.6l-4.2,12.8H280.7z"/>
<path class="st0" d="M315,175.6v-60.3h15.9l12.5,22.1c3.6,6.4,7.1,13.9,9.8,20.7h0.2c-0.8-8-1.1-16.1-1.1-25.2v-17.5h12.5v60.3
	h-14.2l-12.9-23.3c-3.6-6.4-7.6-14.2-10.5-21.3h-0.4c0.4,8.1,0.6,16.5,0.6,26.4v18.2L315,175.6L315,175.6z"/>
<path class="st0" d="M396.4,115.3v60.3h-13.6v-60.3H396.4z"/>
<path class="st0" d="M425.9,160.1l-5,15.5h-16.5l21.5-60.3h21l22,60.3h-17.3l-5.5-15.5H425.9z M443.9,149.9l-4.4-12.8
	c-1.3-3.6-2.5-8.1-3.6-11.6h-0.2c-1,3.6-2.1,8.1-3.2,11.6l-4.2,12.8H443.9z"/>
</svg>
