<?xml version="1.0" encoding="utf-8"?>
<!-- Generator: Adobe Illustrator 15.0.0, SVG Export Plug-In . SVG Version: 6.00 Build 0)  -->
<!DOCTYPE svg PUBLIC "-//W3C//DTD SVG 1.1//EN" "http://www.w3.org/Graphics/SVG/1.1/DTD/svg11.dtd">
<svg version="1.1" id="Calque_1" xmlns="http://www.w3.org/2000/svg" xmlns:xlink="http://www.w3.org/1999/xlink" x="0px" y="0px"
	 width="500px" height="500px" viewBox="0 0 500 500" enable-background="new 0 0 500 500" xml:space="preserve">
<g>
	<path fill="#898989" d="M51.973,178.434v27.089h26.252v-27.089h15.897v70.494H78.225v-29.495H51.973v29.495H36.075v-70.494H51.973z
		"/>
	<path fill="#898989" d="M126.119,230.833l-5.764,18.094H101.51l24.608-70.494h24.006l25.209,70.494h-19.807l-6.242-18.094H126.119z
		 M146.643,218.91l-5.041-14.956c-1.44-4.184-2.882-9.414-4.081-13.597h-0.242c-1.199,4.184-2.398,9.519-3.719,13.597l-4.801,14.956
		H146.643z"/>
	<path fill="#898989" d="M192.035,248.928l-25.025-70.494h19.349l9.5,29.809c2.666,8.473,5.098,16.42,6.952,25.206h0.347
		c1.97-8.472,4.403-16.839,7.068-24.892l9.965-30.123h18.77l-26.302,70.494H192.035z"/>
	<path fill="#898989" d="M289.926,219.119h-25.939v16.735h28.973v13.073h-44.869v-70.494h43.404v13.074h-27.508v14.643h25.939
		V219.119z"/>
	<path fill="#898989" d="M307.94,178.434h15.896v57.107h28.032v13.387H307.94V178.434z"/>
	<path fill="#898989" d="M361.882,178.434h15.896v57.107h28.032v13.387h-43.929V178.434z"/>
	<path fill="#898989" d="M423.743,232.506c4.183,2.197,10.877,4.394,17.676,4.394c7.321,0,11.19-3.033,11.19-7.634
		c0-4.393-3.347-6.904-11.818-9.833c-11.715-4.183-19.453-10.668-19.453-20.918c0-12.027,10.145-21.127,26.67-21.127
		c8.053,0,13.807,1.57,17.989,3.557l-3.556,12.76c-2.719-1.359-7.845-3.347-14.643-3.347c-6.902,0-10.25,3.242-10.25,6.798
		c0,4.497,3.87,6.485,13.074,9.936c12.445,4.602,18.199,11.087,18.199,21.023c0,11.818-8.996,21.858-28.345,21.858
		c-8.053,0-16.002-2.196-19.976-4.392L423.743,232.506z"/>
	<path fill="#898989" d="M36.677,310.538c3.579,1.879,9.304,3.758,15.119,3.758c6.263,0,9.571-2.595,9.571-6.529
		c0-3.759-2.861-5.906-10.107-8.411c-10.021-3.578-16.641-9.124-16.641-17.892c0-10.287,8.678-18.071,22.812-18.071
		c6.888,0,11.81,1.342,15.387,3.042l-3.04,10.914c-2.327-1.163-6.712-2.863-12.525-2.863c-5.904,0-8.768,2.773-8.768,5.815
		c0,3.846,3.311,5.547,11.183,8.499c10.646,3.937,15.567,9.482,15.567,17.982c0,10.107-7.694,18.695-24.244,18.695
		c-6.889,0-13.688-1.878-17.087-3.756L36.677,310.538z"/>
	<path fill="#898989" d="M105.67,324.584v-24.692l-21.231-35.604h17.444l6.776,14.492c2.095,4.384,3.591,7.604,5.186,11.541h0.199
		c1.495-3.757,3.09-7.246,5.083-11.541l6.777-14.492h17.047l-22.13,35.159v25.138H105.67z"/>
	<path fill="#898989" d="M147.46,264.287h15.588v48.846h27.485v11.451H147.46V264.287z"/>
	<path fill="#898989" d="M205.885,324.584l-20.715-60.297h16.016l7.863,25.497c2.206,7.246,4.221,14.044,5.755,21.56h0.288
		c1.631-7.247,3.645-14.403,5.85-21.292l8.247-25.765h15.537l-21.77,60.297H205.885z"/>
	<path fill="#898989" d="M262.878,309.106l-4.996,15.478H241.54l21.338-60.297h20.818l21.86,60.297H288.38l-5.411-15.478H262.878z
		 M280.678,298.909l-4.372-12.793c-1.249-3.579-2.499-8.052-3.539-11.631h-0.21c-1.04,3.579-2.079,8.142-3.225,11.631l-4.164,12.793
		H280.678z"/>
	<path fill="#898989" d="M315.016,324.584v-60.297h15.925l12.524,22.097c3.578,6.353,7.067,13.867,9.84,20.665h0.181
		c-0.806-7.961-1.074-16.103-1.074-25.227v-17.535h12.523v60.297h-14.313l-12.882-23.261c-3.579-6.44-7.604-14.223-10.468-21.291
		h-0.357c0.448,8.053,0.627,16.55,0.627,26.391v18.161H315.016z"/>
	<path fill="#898989" d="M396.429,264.287v60.297h-13.598v-60.297H396.429z"/>
	<path fill="#898989" d="M425.948,309.106l-5.035,15.478h-16.471l21.506-60.297h20.981l22.031,60.297h-17.311l-5.457-15.478H425.948
		z M443.886,298.909l-4.404-12.793c-1.259-3.579-2.518-8.052-3.566-11.631h-0.211c-1.049,3.579-2.098,8.142-3.25,11.631
		l-4.197,12.793H443.886z"/>
</g>
</svg>
