<?xml version="1.0" encoding="utf-8"?>
<!-- Generator: Adobe Illustrator 19.1.0, SVG Export Plug-In . SVG Version: 6.00 Build 0)  -->
<svg version="1.1" id="Calque_1" xmlns="http://www.w3.org/2000/svg" xmlns:xlink="http://www.w3.org/1999/xlink" x="0px" y="0px"
	 viewBox="0 0 500 500" style="enable-background:new 0 0 500 500;" xml:space="preserve">
<style type="text/css">
	.st0{fill:#E21B25;}
</style>
<g>
	<g>
		<path d="M168.9,163.3h18.4v32h33.9v-32h18.4v83.3h-18.4v-35.9h-33.9v35.9h-18.4V163.3z"/>
		<path d="M253.4,204.9c0.9-15.5,14.9-20.2,28.5-20.2c12.1,0,26.6,2.7,26.6,17.2v31.4c0,5.5,0.6,11,2.1,13.4h-16.9
			c-0.6-1.9-1.1-3.9-1.2-5.8c-5.3,5.5-13,7.5-20.4,7.5c-11.5,0-20.6-5.7-20.6-18.1c0-13.7,10.3-16.9,20.6-18.3
			c10.2-1.5,19.7-1.2,19.7-7.9c0-7.1-4.9-8.2-10.8-8.2c-6.3,0-10.4,2.6-11,9.1L253.4,204.9L253.4,204.9z M291.9,217.1
			c-2.8,2.5-8.7,2.6-13.8,3.5c-5.2,1-9.9,2.8-9.9,8.9c0,6.2,4.8,7.7,10.2,7.7c13,0,13.5-10.3,13.5-13.9L291.9,217.1L291.9,217.1z"/>
		<path d="M390.7,246.7h-17.1l-10.8-40.5h-0.2l-10.3,40.5H335l-19.2-60.3h17.6l11.1,41h0.2l10.1-41H371l10.3,40.8h0.2l11.1-40.8
			h17.1L390.7,246.7z"/>
		<path d="M416.2,204.9c0.9-15.5,14.9-20.2,28.5-20.2c12.1,0,26.6,2.7,26.6,17.2v31.4c0,5.5,0.6,11,2.1,13.4h-16.9
			c-0.6-1.9-1.1-3.9-1.2-5.8c-5.3,5.5-13,7.5-20.4,7.5c-11.5,0-20.6-5.7-20.6-18.1c0-13.7,10.3-16.9,20.6-18.3
			c10.2-1.5,19.7-1.2,19.7-7.9c0-7.1-4.9-8.2-10.8-8.2c-6.3,0-10.4,2.6-11,9.1L416.2,204.9L416.2,204.9z M454.7,217.1
			c-2.8,2.5-8.7,2.6-13.8,3.5c-5.2,1-9.9,2.8-9.9,8.9c0,6.2,4.8,7.7,10.2,7.7c13,0,13.5-10.3,13.5-13.9L454.7,217.1L454.7,217.1z"/>
	</g>
	<g>
		<path d="M395.2,167.9c-0.1,2.9,2,3.8,4.6,3.8c1.5,0,3.7-0.8,3.7-2.9c0-1.6-1.6-2.2-2.9-2.6l-3.1-0.8c-1.7-0.4-3.2-1.2-3.2-3.4
			c0-1.4,0.9-4,4.9-4c2.8,0,5.2,1.5,5.2,4.4h-1.3c-0.1-2.2-1.9-3.2-3.9-3.2c-1.8,0-3.5,0.7-3.5,2.8c0,1.3,1,1.9,2.1,2.2l3.4,0.9
			c2,0.5,3.7,1.4,3.7,3.7c0,1-0.4,4-5.4,4c-3.3,0-5.8-1.5-5.6-4.9L395.2,167.9L395.2,167.9z"/>
		<path d="M410.6,158.4h1.4l3.2,12.4h0l3.4-12.4h1.7l3.5,12.4h0l3.2-12.4h1.3l-3.9,14.1h-1.4l-3.6-12.6h0l-3.6,12.6h-1.5
			L410.6,158.4z"/>
		<path d="M435,158.4h1.3v14.1H435V158.4z"/>
		<path d="M444.8,167.9c-0.1,2.9,2,3.8,4.6,3.8c1.5,0,3.7-0.8,3.7-2.9c0-1.6-1.6-2.2-2.9-2.6l-3.1-0.8c-1.7-0.4-3.2-1.2-3.2-3.4
			c0-1.4,0.9-4,4.9-4c2.8,0,5.2,1.5,5.2,4.4h-1.3c-0.1-2.2-1.9-3.2-3.9-3.2c-1.8,0-3.5,0.7-3.5,2.8c0,1.3,1,1.9,2.1,2.2l3.4,0.9
			c2,0.5,3.7,1.4,3.7,3.7c0,1-0.4,4-5.4,4c-3.3,0-5.8-1.5-5.6-4.9L444.8,167.9L444.8,167.9z"/>
		<path d="M462.2,167.9c-0.1,2.9,2,3.8,4.6,3.8c1.5,0,3.7-0.8,3.7-2.9c0-1.6-1.6-2.2-2.9-2.6l-3.1-0.8c-1.7-0.4-3.2-1.2-3.2-3.4
			c0-1.4,0.9-4,4.9-4c2.8,0,5.2,1.5,5.2,4.4h-1.3c-0.1-2.2-1.9-3.2-3.9-3.2c-1.8,0-3.5,0.7-3.5,2.8c0,1.3,1,1.9,2.1,2.2l3.4,0.9
			c2,0.5,3.7,1.4,3.7,3.7c0,1-0.4,4-5.4,4c-3.3,0-5.8-1.5-5.6-4.9L462.2,167.9L462.2,167.9z"/>
	</g>
	<polygon points="107.5,206.7 161.3,206.7 107.5,261.6 233.7,261.6 256.2,288.6 25,288.6 	"/>
	<polygon class="st0" points="391.4,288.6 266.8,288.6 244.9,262.2 475,262.2 394.2,341.9 340.3,341.9 	"/>
</g>
</svg>
