<?xml version="1.0" encoding="utf-8"?>
<!-- Generator: Adobe Illustrator 21.0.2, SVG Export Plug-In . SVG Version: 6.00 Build 0)  -->
<svg version="1.1" id="Calque_1" xmlns="http://www.w3.org/2000/svg" xmlns:xlink="http://www.w3.org/1999/xlink" x="0px" y="0px"
	 viewBox="0 0 500 158" style="enable-background:new 0 0 500 158;" xml:space="preserve">
<style type="text/css">
	.st0{fill:#1D1D1B;}
	.st1{fill:#006AB3;}
</style>
<path class="st0" d="M428.7,26.9c-8.5,0-15.3,6.8-15.3,15.3s6.8,15.3,15.3,15.3S444,50.7,444,42.2S437.2,26.9,428.7,26.9z
	 M428.7,52.7c-5.8,0-10.2-4.8-10.2-10.5c0-5.8,4.5-10.5,10.2-10.5c5.8,0,10.2,4.7,10.2,10.5C438.9,47.9,434.5,52.7,428.7,52.7z
	 M435.5,39.3c0-3.8-2.5-4.9-6.8-4.9h-6v15.5h3.7v-6.2h1.5l3.1,6.2h4l-3.5-6.4C433.7,43.4,435.5,42.3,435.5,39.3L435.5,39.3z
	 M429.4,40.9h-3.1v-3.6h2.3c1.2,0,3,0.1,3,1.6S430.8,40.9,429.4,40.9L429.4,40.9z"/>
<path d="M26.5,107.8h3.6v2.4h0.1c1.1-1.7,2.6-2.9,5.4-2.9c2.1,0,4.1,0.9,4.9,2.9c1.3-1.8,2.9-2.9,5.5-2.9c3.7,0,5.8,1.6,5.8,5.9
	v12.1H48v-10.2c0-2.8-0.2-4.7-3.2-4.7c-2.6,0-3.7,1.7-3.7,4.7v10.2h-3.8v-11.2c0-2.4-0.7-3.7-3.1-3.7c-2,0-3.8,1.6-3.8,4.5v10.4
	h-3.8v-17.5L26.5,107.8z M70.5,121.4c0,0.9,0.2,1.3,0.9,1.3c0.2,0,0.5,0,0.9-0.1v2.7c-0.6,0.2-1.8,0.4-2.4,0.4c-1.6,0-2.7-0.5-3-2.1
	c-1.5,1.5-4,2.1-6,2.1c-3.1,0-6-1.7-6-5.1c0-4.4,3.5-5.1,6.7-5.4c2.8-0.5,5.2-0.2,5.2-2.5c0-2-2.1-2.4-3.6-2.4
	c-2.2,0-3.7,0.9-3.8,2.8h-3.8c0.3-4.5,4.1-5.8,7.9-5.8c3.4,0,7,1.4,7,5.1C70.5,112.4,70.5,121.4,70.5,121.4z M66.6,116.5
	c-1.2,0.8-3,0.7-4.7,1s-3.1,0.9-3.1,2.9c0,1.7,2.2,2.2,3.5,2.2c1.7,0,4.3-0.9,4.3-3.3C66.6,119.3,66.6,116.5,66.6,116.5z
	 M91.1,125.3h-3.6v-2.4h-0.1c-1,2-3.2,2.8-5.4,2.8c-5.5,0-8.2-4.1-8.2-9.3c0-6.3,3.7-9.1,7.6-9.1c2.2,0,4.6,0.8,5.8,2.7h0.1v-8.9
	h3.8C91.1,101.1,91.1,125.3,91.1,125.3z M82.5,122.7c3.4,0,4.9-3.1,4.9-6.2c0-3.8-1.9-6.1-4.8-6.1c-3.6,0-4.9,3.2-4.9,6.3
	C77.6,119.8,79.1,122.7,82.5,122.7z M98.3,117.6c0,2.7,1.5,5.2,4.7,5.2c2.2,0,3.6-1,4.3-2.9h3.6c-0.8,3.8-4.1,5.9-7.9,5.9
	c-5.5,0-8.5-3.8-8.5-9.2c0-5,3.2-9.2,8.4-9.2c5.5,0,8.9,5,8.2,10.2C111.1,117.6,98.3,117.6,98.3,117.6z M107.2,115
	c-0.1-2.4-1.8-4.6-4.4-4.6c-2.7,0-4.5,2-4.6,4.6H107.2z M123.5,101.2h3.8v8.9h0.1c1-1.7,3.2-2.7,5.2-2.7c5.5,0,8.2,4.2,8.2,9.3
	c0,4.7-2.4,9.1-7.5,9.1c-2.4,0-4.9-0.6-6-2.9h-0.1v2.4h-3.6v-24.1L123.5,101.2z M132.1,110.4c-3.2,0-4.9,2.5-4.9,6.2
	c0,3.5,1.8,6.1,4.9,6.1c3.5,0,4.8-3.1,4.8-6.1C137,113.4,135.3,110.4,132.1,110.4z M142.1,107.8h4.2l4.6,13h0.1l4.4-13h4l-6.8,18.4
	c-1.2,3.1-2.2,6-6.2,6c-0.9,0-1.8-0.1-2.7-0.2v-3.2c0.6,0.1,1.2,0.2,1.8,0.2c1.8,0,2.2-0.9,2.7-2.4l0.4-1.4
	C148.6,125.2,142.1,107.8,142.1,107.8z"/>
<path class="st1" d="M199.8,112.3V112c3-0.8,4.7-3,4.7-5.9c-0.1-5.2-3.4-6-10.1-6h-18.6v25.6h18.7c4,0,10.5,1.1,11.2-6.7
	C206,116.2,204.2,112.5,199.8,112.3L199.8,112.3z M184.1,106.3h9c2.6,0.1,3,0.7,3,2.1c0,2-1.3,1.5-3.7,1.6h-8.3V106.3z M192.4,120.2
	h-8.2v-4.4h8.2c2.5,0,4.3,0.2,4.3,1.9C196.6,119.8,195.5,120.2,192.4,120.2z M238.2,103.7c-2.8-2.4-6.8-3.8-11.7-3.8
	s-9,1.5-11.9,3.9v-3.5h-7.4v5.4h5.7c-1.6,2.1-2.4,4.6-2.4,7.4c0,7.7,6.4,13.2,16,13.2s16-5.5,16-13.2c0-2.9-0.9-5.5-2.5-7.6h5.7
	v-5.4h-7.6L238.2,103.7L238.2,103.7z M226.3,120.2c-2.6,0-6.6-1.4-6.6-7.6s3.9-7.6,6.6-7.6c2.6,0,6.5,1.4,6.5,7.6
	S228.9,120.2,226.3,120.2z M258.6,100h-8.9v25.7h21.8V119h-12.9V100z M368.9,125.1h9v-9.8h14.5v-5.8h-14.1v-3.8h14.9v-6.2h-24.3
	V125.1z M284.4,100h-8.9v25.7h21.8V119h-12.9V100z M422,105.6v-6.2h-24.3V125h9v-9.8h14.5v-5.7h-14v-3.9H422z M320.2,108.9h-10.1v-9
	H301v25.7h9.1v-10.4h9.9v10.4h9.1V99.9h-8.9V108.9z M349.3,99.4c-9.6,0-16,5.5-16,13.2s6.4,13.2,16,13.2s16-5.5,16-13.2
	C365.3,105,358.9,99.4,349.3,99.4z M349,119.8c-2.6,0-6.5-1.4-6.5-7.6s3.9-7.6,6.5-7.6s6.5,1.4,6.5,7.6
	C355.6,118.4,351.6,119.8,349,119.8z"/>
<path d="M24.5,27.3h17.5V47h16.4V27.3h17.5v56.9H58.5V61.6H42.1v22.6H24.5V27.3z"/>
<path d="M85.1,27.3h47.1v14.6h-29.6v7.1h26.9v13.6h-26.9v7.1h30.5v14.6h-48V27.3z"/>
<path d="M141.2,27.3h17.5v42.4H184v14.6h-42.8V27.3z"/>
<path d="M191.5,27.3H209v56.9h-17.5V27.3z"/>
<path d="M253.9,48.5c-0.3-2.1-1.9-8.4-9.2-8.4c-8.2,0-10.8,8-10.8,15.6s2.6,15.6,10.8,15.6c5.9,0,8.2-4.1,9.3-9.5h17.2
	c0,11.5-9.3,23.7-26,23.7c-18.4,0-28.9-13-28.9-29.8c0-17.9,11.3-29.8,28.9-29.8c15.6,0.1,24.2,8.3,25.8,22.6H253.9z"/>
<path d="M305.8,25.9c17.3,0,28.9,12.4,28.9,29.8s-11.6,29.8-28.9,29.8c-17.3,0-28.9-12.4-28.9-29.8S288.5,25.9,305.8,25.9z
	 M305.8,71.4c4.5,0,11.3-3,11.3-15.6c0-12.7-6.9-15.6-11.3-15.6c-4.5,0-11.3,3-11.3,15.6C294.5,68.4,301.3,71.4,305.8,71.4z"/>
<path d="M342.1,27.3h17.5v56.9h-17.5V27.3z"/>
<path d="M368.6,27.3h17.5v42.4h25.2v14.6h-42.8V27.3z"/>
</svg>
