<?xml version="1.0" encoding="utf-8"?>
<!-- Generator: Adobe Illustrator 19.1.0, SVG Export Plug-In . SVG Version: 6.00 Build 0)  -->
<svg version="1.1" id="Calque_1" xmlns="http://www.w3.org/2000/svg" xmlns:xlink="http://www.w3.org/1999/xlink" x="0px" y="0px"
	 viewBox="0 0 500 500" style="enable-background:new 0 0 500 500;" xml:space="preserve">
<style type="text/css">
	.st0{fill:#004595;}
</style>
<g>
	<path class="st0" d="M106.7,283.4H70.5v-3.7c0.8-0.1,1.9-0.2,3.4-0.3c1.5-0.1,2.5-0.3,3.1-0.6c1.2-0.5,2-1.1,2.4-1.9
		c0.4-0.8,0.7-1.7,0.7-2.9v-23H51.6v22.5c0,1.1,0.2,2,0.7,2.9c0.5,0.8,1.2,1.5,2.3,2c0.6,0.3,1.6,0.5,3,0.8c1.4,0.3,2.6,0.5,3.5,0.5
		v3.7H25v-3.7c0.8,0,2-0.1,3.5-0.3c1.5-0.2,2.7-0.4,3.4-0.6c1.1-0.4,1.9-1,2.4-1.9c0.4-0.8,0.7-1.8,0.7-2.9v-47.3
		c0-1.1-0.2-2-0.6-2.8c-0.4-0.8-1.2-1.4-2.4-2c-0.9-0.4-2.1-0.8-3.6-1.1c-1.5-0.3-2.6-0.5-3.2-0.6v-3.7h36.2v3.7
		c-1,0.1-2.1,0.2-3.5,0.5c-1.3,0.2-2.4,0.5-3.1,0.7c-1.2,0.4-2,1.1-2.4,1.9c-0.4,0.9-0.6,1.8-0.6,2.8v20h28.5v-19.5
		c0-1.1-0.2-2-0.6-2.8c-0.4-0.8-1.2-1.4-2.4-2c-0.8-0.4-1.9-0.7-3.2-1.1c-1.4-0.3-2.4-0.5-3.3-0.6v-3.7h36.2v3.7
		c-1,0.1-2.2,0.2-3.4,0.4c-1.3,0.2-2.4,0.5-3.4,0.8c-1.2,0.4-2,1-2.4,1.9c-0.4,0.9-0.6,1.8-0.6,2.9v47.3c0,1.1,0.2,2.1,0.6,2.9
		c0.4,0.8,1.2,1.4,2.4,2c0.8,0.3,1.9,0.6,3.3,0.8c1.4,0.3,2.6,0.4,3.5,0.5L106.7,283.4L106.7,283.4z"/>
	<path class="st0" d="M182,233.7h-3.7c-0.9-2.5-2.5-5.1-4.7-7.7c-2.2-2.6-4.4-4.1-6.6-4.6c-0.9-0.2-2.2-0.4-3.9-0.4
		c-1.7-0.1-3.1-0.1-4.1-0.1h-9.6v25.6h6.8c1.7,0,3.3-0.2,4.7-0.6c1.4-0.4,2.7-1.2,3.8-2.4c0.7-0.7,1.4-2,2.2-3.8
		c0.7-1.8,1.2-3.4,1.4-4.8h3.7v28h-3.7c-0.2-1.3-0.7-3-1.4-5c-0.8-2-1.5-3.4-2.2-4.1c-1-1.1-2.2-1.9-3.6-2.3c-1.4-0.4-3-0.6-4.9-0.6
		h-6.8v19.2c0,2,0.1,3.6,0.4,4.8c0.3,1.2,0.8,2.1,1.7,2.7c0.8,0.6,1.9,1,3.2,1.2c1.4,0.2,3.2,0.3,5.6,0.3c1.1,0,2.4,0,3.9,0
		c1.5,0,2.9-0.1,4-0.3c1.3-0.2,2.5-0.4,3.7-0.7c1.1-0.3,2-0.8,2.6-1.4c1.5-1.5,3.2-3.9,5.1-7c1.9-3.1,3.1-5.5,3.7-7h3.5l-1.3,20.8
		h-62.7v-3.7c0.9-0.1,2.1-0.2,3.6-0.4c1.5-0.2,2.6-0.4,3.2-0.7c1.2-0.5,2-1.1,2.4-1.9s0.6-1.8,0.6-2.9v-47.1c0-1.1-0.2-2.1-0.5-2.8
		c-0.3-0.7-1.2-1.4-2.5-2c-0.8-0.4-2-0.7-3.5-1c-1.5-0.3-2.6-0.5-3.4-0.6v-3.7H182L182,233.7L182,233.7z"/>
	<path class="st0" d="M264.9,262l-1.3,21.4h-61.6v-3.7c1.1-0.1,2.4-0.2,3.9-0.5c1.5-0.2,2.5-0.4,2.9-0.6c1.1-0.4,1.9-1,2.4-1.8
		c0.4-0.8,0.7-1.8,0.7-3v-47.1c0-1.1-0.2-2.1-0.5-2.8c-0.4-0.7-1.2-1.4-2.5-2c-1-0.4-2.2-0.8-3.5-1.1c-1.4-0.3-2.5-0.5-3.3-0.6v-3.7
		h36.8v3.7c-1,0.1-2.2,0.2-3.6,0.4c-1.4,0.2-2.6,0.4-3.6,0.7c-1.2,0.4-2.1,1-2.5,1.9c-0.4,0.9-0.6,1.8-0.6,2.9v43.9
		c0,2.1,0.1,3.7,0.4,4.9c0.3,1.2,0.8,2.1,1.6,2.6c0.8,0.6,1.9,1,3.4,1.1c1.5,0.2,3.5,0.3,6,0.3c2.5,0,4.9-0.1,7.3-0.4
		c2.4-0.3,4.1-1,5.1-2c1.6-1.6,3.2-3.8,4.9-6.7c1.7-2.9,3-5.5,4-8L264.9,262L264.9,262z"/>
	<path class="st0" d="M314.7,283.4h-37.2v-3.7c0.9-0.1,2.1-0.2,3.8-0.3s2.8-0.3,3.4-0.6c1.2-0.5,2-1.1,2.4-1.9
		c0.4-0.8,0.6-1.8,0.6-2.9v-47.4c0-1.1-0.2-2-0.6-2.8c-0.4-0.8-1.2-1.5-2.4-2c-0.8-0.3-1.9-0.6-3.4-1c-1.5-0.3-2.8-0.6-3.8-0.7v-3.7
		h37.2v3.7c-1,0.1-2.1,0.2-3.5,0.4c-1.4,0.2-2.6,0.4-3.6,0.7c-1.2,0.4-2,1-2.5,1.9c-0.4,0.9-0.6,1.8-0.6,2.9v47.3
		c0,1.1,0.2,2.1,0.6,2.9c0.4,0.8,1.2,1.4,2.4,1.9c0.7,0.3,1.8,0.6,3.3,0.8c1.5,0.3,2.8,0.4,3.9,0.5L314.7,283.4L314.7,283.4z"/>
	<path class="st0" d="M392.1,224c3.3,3,5.9,6.7,7.8,10.9c1.9,4.3,2.9,9.1,2.9,14.6c0,4.9-0.8,9.5-2.4,13.9c-1.6,4.4-4,8.2-7.1,11.3
		c-3.2,3.3-7,5.9-11.4,7.7c-4.4,1.8-9.6,2.8-15.6,2.8c-4.9,0-9.5-0.8-13.8-2.4c-4.3-1.6-8.1-3.9-11.4-7c-3.3-3-5.8-6.6-7.8-10.9
		c-1.9-4.3-2.9-9-2.9-14.3c0-5.5,0.9-10.4,2.8-14.9c1.9-4.4,4.4-8.2,7.7-11.4c3.2-3.1,7.1-5.5,11.5-7.2c4.4-1.7,9.2-2.5,14.2-2.5
		c5,0,9.7,0.8,14,2.4C385.1,218.8,388.9,221.1,392.1,224z M380,271.9c1.4-2.9,2.4-6.1,3-9.7c0.6-3.6,0.9-7.7,0.9-12.3
		c0-3.9-0.3-7.7-0.8-11.3c-0.5-3.7-1.5-6.9-2.8-9.8c-1.3-2.9-3.1-5.2-5.3-6.9c-2.2-1.7-5-2.6-8.3-2.6c-5.7,0-9.9,2.7-12.9,8.1
		c-2.9,5.4-4.4,13-4.4,22.9c0,4.2,0.3,8.1,1,11.9c0.6,3.7,1.6,7,3,9.7c1.4,2.8,3.2,5,5.3,6.6c2.1,1.6,4.8,2.3,8,2.3
		c3.1,0,5.7-0.8,7.9-2.4C376.9,276.8,378.6,274.6,380,271.9z"/>
	<path class="st0" d="M447.3,285.2c-4.1,0-7.9-0.5-11.4-1.5c-3.5-1-6.5-2.2-9-3.6l-3.3,3.3h-4l-0.7-24.1h4c0.9,2.3,2.1,4.7,3.5,7.2
		c1.4,2.5,3.1,4.8,4.9,6.8c1.9,2.1,4.1,3.8,6.5,5.1c2.4,1.3,5.2,2,8.4,2c4.3,0,7.6-1,9.9-3.1c2.3-2.1,3.4-4.7,3.4-7.9
		c0-2.6-1-4.8-2.9-6.5s-5-3.3-9.1-4.6c-2.7-0.9-5.1-1.7-7.3-2.4c-2.2-0.7-4.3-1.5-6.3-2.2c-4.5-1.8-7.9-4.3-10.1-7.7
		c-2.2-3.3-3.3-7-3.3-11.2c0-2.6,0.6-5.1,1.7-7.5c1.1-2.4,2.8-4.6,5-6.5c2.1-1.8,4.8-3.2,8-4.4c3.2-1.1,6.8-1.7,10.6-1.7
		c3.7,0,7.2,0.5,10.5,1.6c3.3,1,5.8,2.1,7.7,3.1l2.9-2.8h4l0.3,22.8h-4c-0.9-2.4-2-4.9-3.3-7.5c-1.3-2.5-2.6-4.7-4-6.4
		c-1.5-1.8-3.3-3.2-5.3-4.3c-2-1.1-4.4-1.6-7.1-1.6c-3.4,0-6.2,0.9-8.3,2.9c-2.1,1.9-3.2,4.3-3.2,7.1c0,2.7,0.9,4.8,2.8,6.5
		c1.9,1.7,4.8,3.2,8.7,4.4c2.3,0.8,4.7,1.6,7.1,2.4c2.4,0.8,4.6,1.5,6.4,2.3c4.5,1.8,8,4.2,10.4,7.3c2.4,3.1,3.5,6.9,3.5,11.5
		c0,2.9-0.7,5.7-2,8.4c-1.4,2.7-3.2,5-5.5,6.7c-2.5,2-5.4,3.5-8.7,4.6C455.5,284.7,451.6,285.2,447.3,285.2z"/>
</g>
</svg>
