<?xml version="1.0" encoding="utf-8"?>
<!-- Generator: Adobe Illustrator 21.0.2, SVG Export Plug-In . SVG Version: 6.00 Build 0)  -->
<svg version="1.1" id="Calque_2" xmlns="http://www.w3.org/2000/svg" xmlns:xlink="http://www.w3.org/1999/xlink" x="0px" y="0px"
	 viewBox="0 0 500 406" style="enable-background:new 0 0 500 406;" xml:space="preserve">
<style type="text/css">
	.st0{fill:#FFFFFF;}
	.st1{fill:#EF8009;}
</style>
<rect x="25" y="19.5" width="450" height="367.1"/>
<polygon class="st0" points="276.3,84.2 297.6,84.2 297.6,141 350.5,141 350.5,84.2 405.8,84.2 405.8,249.8 350.3,249.8 
	350.3,191.9 297.4,191.9 297.4,249.8 244.1,249.8 "/>
<polygon class="st0" points="223.7,249.8 202.4,249.8 202.4,193 149.5,193 149.5,249.8 94.2,249.8 94.2,84.2 149.7,84.2 
	149.7,142.2 202.6,142.2 202.6,84.2 256,84.2 "/>
<path class="st0" d="M91.8,294.5h11.6c-0.3,5.4-0.3,5.9-0.5,11.1c-0.4,7.3-0.5,9.2-1.4,19.7l2.9-9.3l7.7-21.5h13.5
	c-0.5,7.6-0.5,8.1-0.7,14.4c-0.3,5.8-0.4,7.7-1.3,16.5c0.8-2.9,1.4-5.7,2.8-9.3l8-21.5H147l-18.2,40.3h-12.9c0-13.9,0.1-17.2,1-30.1
	c-1.5,5-2,6-5.1,14.3c-2.8,7-4.8,12.2-6.2,15.8H92.3L91.8,294.5z"/>
<path class="st0" d="M177.5,304.5c0,4.2-3.2,17.6-4.4,21.1c-1.4,4.2-3.8,10.1-15.8,10.1c-9,0-14.8-3-14.8-10.9
	c0-4.4,3.4-17.7,4.1-19.8c1.3-4.3,3.8-11.6,15.4-11.6C168,293.5,177.5,294.5,177.5,304.5 M165.6,306.1c0.1-0.5,0.2-1.1,0.2-1.6
	c0.1-1.9-1.4-3-3.2-3c-3.2,0-3.9,2.8-4.3,4.6l-3.8,16.1c-0.1,0.7-0.3,1.5-0.3,2.3c0,1.6,0.9,3.1,3.2,3.1c3.2,0,3.8-2.6,4.5-5.4
	L165.6,306.1z"/>
<path class="st0" d="M193.9,302.6c3.3-6.3,5.8-7.7,12.1-8.7l-3,11.2c-0.8-0.1-1.7-0.1-2.5-0.1c-6.6,0-7.8,2.8-9.6,10.2l-4.5,19.6
	h-11.9l9.3-40.3h11.9L193.9,302.6z"/>
<polygon class="st0" points="223.9,281.8 217.4,309.7 229.9,294.5 243.3,294.5 227.7,311.9 235.5,334.8 222.3,334.8 216.6,313.2 
	211.6,334.8 199.6,334.8 211.9,281.8 "/>
<path class="st0" d="M259.2,294.5h11.6c-0.3,5.4-0.3,5.9-0.5,11.1c-0.4,7.3-0.5,9.2-1.4,19.7l2.9-9.3l7.7-21.5H293
	c-0.4,7.6-0.4,8.1-0.7,14.4c-0.3,5.8-0.4,7.7-1.3,16.5c0.7-2.9,1.4-5.7,2.8-9.3l8-21.5h12.6l-18.2,40.3h-12.9
	c0-13.9,0.1-17.2,1-30.1c-1.5,5-2,6-5.1,14.3c-2.8,7-4.8,12.2-6.2,15.8h-13.2L259.2,294.5z"/>
<path class="st0" d="M341.5,321.8c-0.7,3-1.6,6.5-4,9.2c-2.4,2.8-6.4,4.8-13.4,4.8c-2.1,0-7.7-0.3-11.2-3.1
	c-1.7-1.4-3.3-3.5-3.3-7.7c0-5.4,3.8-20.2,5.1-23.2c1.3-3.2,4.5-8.3,15.5-8.3c4.8,0,14.2,0.9,14.2,9.9c0,1.7-0.3,3.4-0.7,5.1
	c-0.6,2.9-1.2,5.6-2,9h-19.2c-0.6,2.3-1.4,5.6-1.4,7.4l0.2,1.2c0.5,0.9,1.7,1.5,3.3,1.5c3.4,0,3.8-2.3,4.6-5.8H341.5L341.5,321.8z
	 M331.8,310.2c0.3-1.3,1.1-4.4,1.1-5.5c0-0.8-0.1-1.5-0.6-2c-0.8-0.9-2.1-1.1-2.8-1.1c-3.7,0-4.2,2.7-5.3,8.6H331.8L331.8,310.2z"/>
<path class="st0" d="M373.8,330.3c-0.1,0.6-0.2,1.2-0.2,1.8c0,1.8,0.5,2.2,1.1,2.8H361l1.1-4.2c-2.7,2.3-6.1,5.3-10.8,5.3
	c-0.8,0-8,0-8-7.3c0-2.5,1.6-9.6,4-12.4c2.5-2.8,6.1-3.9,20.2-8c0.4-1.6,0.9-4.1,0.9-4.7c0-2.1-2-2.3-3.2-2.3c-3.4,0-4,1.8-5.1,5.9
	h-11.4c1.7-7,2.6-9.3,6.3-11.2c2.8-1.4,6.6-2.1,10.8-2.1c6.9,0,14,1.7,14,8.8c0,1.5-0.3,3-0.7,4.5L373.8,330.3z M365.7,316
	c-2.7,0.8-6.2,1.9-7.6,3c-1.9,1.6-2.5,5.9-2.5,6.6c0,1.4,0.6,2.5,2.6,2.5c2.1,0,3.7-1.3,5-2.4L365.7,316z"/>
<path class="st0" d="M396.5,302.6c3.3-6.3,5.8-7.7,12.1-8.7l-3,11.2c-0.8-0.1-1.7-0.1-2.5-0.1c-6.6,0-7.8,2.8-9.6,10.2l-4.5,19.6
	h-11.9l9.3-40.3h11.9L396.5,302.6z"/>
<polygon class="st1" points="249.4,264.3 265.3,264.3 246.4,358.2 231,358.2 "/>
</svg>
