<?xml version="1.0" encoding="utf-8"?>
<!-- Generator: Adobe Illustrator 19.1.0, SVG Export Plug-In . SVG Version: 6.00 Build 0)  -->
<svg version="1.1" id="Calque_1" xmlns="http://www.w3.org/2000/svg" xmlns:xlink="http://www.w3.org/1999/xlink" x="0px" y="0px"
	 viewBox="0 0 500 500" style="enable-background:new 0 0 500 500;" xml:space="preserve">
<style type="text/css">
	.st0{fill:#BE2E37;}
	.st1{fill:#808080;}
	.st2{fill:#FFFFFF;}
	.st3{fill:none;}
</style>
<g id="Calque_2">
	<g>
		<g>
			<path class="st0" d="M25,225.4c116.8-25.9,333.2-25.9,450,0v4.6c-74.9-16.6-375.1-16.6-450,0V225.4"/>
		</g>
		<g>
			<path class="st1" d="M250.3,167.3c-14.5,0.2-30,2.7-51.6,8c0,0,14.8,46.7,51.6,91.8c36.8-45.2,51.7-91.8,51.7-91.8
				C280.4,170,264.8,167.5,250.3,167.3"/>
		</g>
		<g>
			<path d="M250.3,268.9l-0.9-1.1c-36.5-44.8-51.6-91.7-51.8-92.2l-0.4-1.2l1.2-0.3c22.4-5.5,38-7.8,51.9-8
				c13.9,0.1,29.5,2.5,51.9,8l1.2,0.3l-0.4,1.2c-0.1,0.5-15.3,47.4-51.9,92.2L250.3,268.9z M200.2,176.1c2.6,7.5,17.7,49,50.1,89.1
				c32.4-40.2,47.6-81.7,50.2-89.1c-21.6-5.2-36.7-7.5-50.1-7.6C236.9,168.6,221.8,170.9,200.2,176.1z"/>
		</g>
		<g>
			<path class="st2" d="M253.5,224.6l4.2-0.3c0.7,6.5,9,12,6.3,13.4h-26.9c-2.6-1.3,5.7-6.8,6.3-13.3l4.2,0.2L253.5,224.6"/>
		</g>
		<g>
			<path d="M264.1,238.4h-26.9c-0.1,0-0.2,0-0.3-0.1c-0.6-0.3-0.8-0.8-0.9-1.1c-0.3-1.2,0.8-2.5,2.3-4.4c1.9-2.4,4.2-5.3,4.5-8.5
				c0-0.4,0.4-0.7,0.8-0.7l4.2,0.2h5.8l4.2-0.3c0.4,0,0.8,0.3,0.8,0.7c0.3,3.2,2.6,6.1,4.5,8.5c1.5,1.9,2.6,3.3,2.3,4.5
				c-0.1,0.3-0.3,0.8-0.9,1.1C264.3,238.4,264.2,238.4,264.1,238.4z M237.4,236.9h26.4c0.1-0.5-1.2-2.1-2-3.2
				c-1.7-2.2-4.1-5.3-4.7-8.6l-3.5,0.2h-5.9l-3.6-0.2c-0.6,3.3-3,6.3-4.7,8.6C238.6,234.8,237.3,236.4,237.4,236.9z"/>
		</g>
		<g>
			<line class="st3" x1="250.3" y1="237.3" x2="250.3" y2="218.9"/>
		</g>
		<g>
			<path d="M250.3,238.1c-0.4,0-0.8-0.3-0.8-0.8v-18.5c0-0.4,0.3-0.8,0.8-0.8c0.4,0,0.8,0.3,0.8,0.8v18.5
				C251.1,237.8,250.7,238.1,250.3,238.1z"/>
		</g>
		<g>
			<path class="st2" d="M273.9,189.6c-6.9,0.3-11.1,5.4-15,12.2c1.2-3.2,2-3.7,2-7.9c0-7.1-4.5-21.2-10.6-21.2s-10.6,14.1-10.6,21.2
				c0,4.2,0.7,4.8,2,7.9c-3.8-6.8-8-12-15-12.2c-5.6-0.2-10.5,4.8-10.5,10.8s2.5,14.2,9.5,17c-2.6-7.7,6.3-22.8,17.7,1.5h13.7
				c11.4-24.2,20.4-9.2,17.7-1.5c7-2.8,9.5-11,9.5-17C284.4,194.5,279.5,189.4,273.9,189.6"/>
		</g>
		<g>
			<path d="M257.2,219.6h-13.7c-0.3,0-0.6-0.2-0.7-0.4c-5.2-11.1-9.4-12.8-11.4-12.8c-1.7,0-2.9,1.1-3.6,2.1
				c-1.6,2.3-2.2,5.9-1.4,8.4c0.1,0.1,0.1,0.3,0.1,0.4c0,0.4-0.4,0.8-0.8,0.8c-0.1,0-0.2,0-0.3-0.1c-6.9-2.7-10-10.9-10-17.7
				c0-6.3,5-11.6,10.9-11.6h0.4c5.5,0.2,9.3,3.3,12.3,7.4c-0.1-0.7-0.1-1.4-0.1-2.4c0-6.7,4.3-21.9,11.3-21.9s11.3,15.2,11.3,21.9
				c0,0.9,0,1.7-0.1,2.4c3-4.1,6.8-7.2,12.3-7.4h0.4c5.9,0,10.9,5.3,10.9,11.6c0,6.8-3.1,15-10,17.7c-0.3,0.1-0.6,0-0.8-0.2
				c-0.2-0.2-0.3-0.5-0.2-0.8c0.9-2.6,0.3-6.3-1.3-8.6c-0.7-1-1.9-2.1-3.6-2.1c-2,0-6.2,1.7-11.4,12.8
				C257.7,219.5,257.5,219.6,257.2,219.6z M244,218.1h12.7c5.2-10.9,9.7-13.2,12.6-13.2c1.8,0,3.6,1,4.8,2.7
				c1.6,2.3,2.3,5.6,1.9,8.4c5.3-3,7.6-9.8,7.6-15.6c0-5.3-4.4-10-9.4-10h-0.3c-6.5,0.2-10.4,4.9-14.3,11.9c-0.2,0.3-0.6,0.5-1,0.3
				s-0.5-0.6-0.4-1c0.3-0.7,0.5-1.3,0.7-1.8c0.8-1.8,1.2-2.7,1.2-5.9c0-6.9-4.4-20.4-9.8-20.4c-5.4,0-9.8,13.5-9.8,20.4
				c0,3.2,0.4,4.1,1.2,5.9c0.2,0.5,0.5,1.1,0.7,1.8c0.1,0.4,0,0.8-0.4,1s-0.8,0-1-0.3c-3.9-6.9-7.8-11.6-14.3-11.9h-0.3
				c-5,0-9.4,4.7-9.4,10c0,5.8,2.4,12.7,7.6,15.6c-0.4-2.8,0.3-6.1,1.9-8.4c1.3-1.8,3-2.7,4.8-2.7
				C234.3,204.9,238.7,207.2,244,218.1z"/>
		</g>
		<g>
			<line class="st3" x1="250.3" y1="218.9" x2="250.3" y2="181.4"/>
		</g>
		<g>
			<path d="M250.3,219.6c-0.4,0-0.8-0.3-0.8-0.8v-37.5c0-0.4,0.3-0.8,0.8-0.8c0.4,0,0.8,0.3,0.8,0.8v37.5
				C251.1,219.3,250.7,219.6,250.3,219.6z"/>
		</g>
		<g>
			<path class="st2" d="M242.5,224.3h15.6c1.4,0,2.5-1.2,2.5-2.7s-1.1-2.7-2.5-2.7h-15.6c-1.4,0-2.5,1.2-2.5,2.7
				S241.1,224.3,242.5,224.3"/>
		</g>
		<g>
			<path d="M258.1,225.1h-15.6c-1.8,0-3.3-1.6-3.3-3.5s1.5-3.5,3.3-3.5h15.6c1.8,0,3.3,1.6,3.3,3.5S259.9,225.1,258.1,225.1z
				 M242.5,219.6c-1,0-1.8,0.9-1.8,2s0.8,2,1.8,2h15.6c1,0,1.8-0.9,1.8-2s-0.8-2-1.8-2H242.5z"/>
		</g>
		<polyline points="110.1,257.4 110.1,256.7 109.3,256.7 98.5,256.7 98.5,257.4 98.5,286.5 65.1,286.5 65.1,256.4 64.3,256.4 
			54.4,256.4 53.6,256.4 53.6,257.1 53.6,332.5 65.2,332.5 65.2,296.2 98.6,296.2 98.6,332.5 98.6,332.5 110.1,332.5 110.1,257.4 		
			"/>
		<path d="M221.1,332.5h0.7l0,0l-0.2-30.7c0-3.2,1-7.6,5.8-10.5c2.6-1.6,6.4-2,9.4-1c4.2,1,7.9,4.7,8.3,8.2c0.3,11,0,33.8,0,34l0,0
			h9.9l0,0c0-0.2-0.3-22.7,0-34.1c0.7-3.3,3.7-7.2,8-7.9c4-0.7,7.7,0,10.5,2.1c2.9,2.3,4.5,5.6,4.4,9.2v30.8l0,0h9.9
			c0-1.3,1-32-1.4-39.3c-2-6.8-10.1-11-16.9-12.1c-8.1-0.8-14.7,1.4-19.4,6.3c-6.3-6.1-15.2-8.3-23.3-5.7c-7.7,2-14.2,8.5-15,14.9
			c-0.4,8.3-0.3,17.5-0.2,25.7l0.1,10.2l0,0h0.6h8.8"/>
		<path d="M193.3,285.5c0-0.6,0-1.3,0-1.6v-0.8h-0.8l-9.9,0.1v0.7l0.1,48.5h10.5c0-0.2,0.3-21.4,0-31.4c0.1-2.9,0.7-4.9,2-6.5
			c2.4-3.3,6.6-3.9,10.8-4h0.7v-0.7l0.1-7v-0.7h-0.7C201.2,281.8,196.6,283,193.3,285.5"/>
		<path d="M164.5,299.4c0.1,0.2,0.1,0.3,0.2,0.5c0.2,0.5,0.3,0.9,0.4,1.4c-6.1,0.1-12.3,0.1-18.4,0c-6.5-0.1-13.2-0.1-19.7,0
			c1-5.6,7.3-10.6,12.8-12.1C149.9,286.9,160.5,291.3,164.5,299.4 M171.2,291.5c-1.9-2.5-4.7-4.8-8.3-6.8
			c-8.9-5.5-23.3-5.8-32.2-0.6c-11.1,5.9-16.6,16.9-14.2,28.6c1.8,8.4,10.5,16.8,20.2,19.5c11.5,3.1,23.8,0.5,31.4-6.8l0.6-0.6
			l-0.6-0.5l-5.7-4.9h-0.2l-1-0.2l-0.3,0.2c-4.8,3.9-10.3,5.6-16.2,5.1c-7.2-0.5-14.1-4.7-16.8-10.3v0.1c-0.1-0.5-0.4-1-0.6-1.4
			c-0.6-1.2-0.8-2-0.4-2.6h46.5l2.6-0.1h0.7v-0.7C177,303.3,175.1,297,171.2,291.5z"/>
		<path d="M343.3,299.4c0.1,0.2,0.1,0.3,0.2,0.5c0.2,0.5,0.3,0.9,0.4,1.4c-6.1,0.1-12.3,0.1-18.4,0c-6.5-0.1-13.2-0.1-19.7,0
			c1-5.6,7.3-10.6,12.8-12.1C328.6,286.9,339.2,291.3,343.3,299.4 M349.9,291.5c-1.9-2.5-4.7-4.8-8.3-6.8
			c-8.9-5.5-23.3-5.8-32.2-0.6c-11.1,5.9-16.6,16.9-14.2,28.6c1.8,8.4,10.5,16.8,20.2,19.5c11.5,3.1,23.8,0.5,31.4-6.8l0.6-0.6
			l-6.2-5.3l-0.1-0.1h-0.2l-1-0.2l-0.3,0.2c-4.8,3.9-10.3,5.6-16.2,5.1c-7.2-0.5-14.1-4.7-16.8-10.3v0.1c-0.1-0.5-0.4-1-0.6-1.4
			c-0.6-1.2-0.8-2-0.4-2.6h46.5l2.6-0.1h0.7v-0.7C355.7,303.3,353.8,297,349.9,291.5z"/>
		<path d="M388.4,291.2h0.7v-0.7l-0.2-7.3v-0.7h-0.7c-4.6,0-11.2,0.1-13.3,0v-11.7h-10.3h-0.7v0.7l0.1,10.6l-7.3,0.1l-0.1,0.7
			c-0.2,1.9,0,7.4,0,7.7v0.7h7.7v41.2h10.9v-41.2L388.4,291.2"/>
		<path d="M395.4,314.6c2.2-3.4,6.3-3.5,10.7-3.6c1.4,0,2.9-0.1,4.3-0.2l17.3,0.1c-2.3,6.2-9.4,11-15.7,12.7c-4.3,1-12,2-16-2.6
			C394.7,319.1,394.8,316.4,395.4,314.6 M449.2,331.6c-0.1-0.1-5.8-14.4-8.3-20.8c-0.7-1.8-1.4-3.6-2.1-5.4
			c-1.9-5.1-3.9-10.5-7.4-15.2c-6.7-8.1-15.5-12-26.9-11.1l0,0l0,0c-0.7,0.1-1.4,0.2-2.1,0.4c-2.1,0.3-4.2,0.7-6.1,1.7l-0.4,0.2v8.8
			l0.4,0.2l0.3,0.1l0.3,0.1l0.3-0.1c4.5-1.9,9.7-2.5,14.4-1.8c7.2,0.8,13.4,7.2,15.5,12.9c-5.4-0.2-10.8,0-16.1,0.1
			c-2.7,0.1-5.5,0.2-8.2,0.2c-4.8,0.4-9.1,2.3-12.9,5.9c-4,4.5-5,10.8-2.5,15.9c2.7,5.3,8.7,9.1,15.6,9.9
			c12.4,1.1,23.8-3.8,31.5-13.4c1.6,3.7,3.2,7.8,4.5,11.6l0.4,0.8h0.5h9.7h0.1L449.2,331.6z"/>
	</g>
</g>
</svg>
