<?xml version="1.0" encoding="utf-8"?>
<!-- Generator: Adobe Illustrator 16.0.0, SVG Export Plug-In . SVG Version: 6.00 Build 0)  -->
<!DOCTYPE svg PUBLIC "-//W3C//DTD SVG 1.1//EN" "http://www.w3.org/Graphics/SVG/1.1/DTD/svg11.dtd">
<svg version="1.1" id="Calque_1" xmlns="http://www.w3.org/2000/svg" xmlns:xlink="http://www.w3.org/1999/xlink" x="0px" y="0px"
	 width="500px" height="500px" viewBox="0 0 500 500" enable-background="new 0 0 500 500" xml:space="preserve">
<g>
	<polygon fill-rule="evenodd" clip-rule="evenodd" fill="#E2001A" points="302.626,295.841 429.146,222.788 429.146,201.531 
		302.626,274.583 302.626,295.841 	"/>
	<polygon fill-rule="evenodd" clip-rule="evenodd" fill="#00579D" points="302.626,203.953 429.146,130.906 429.146,109.648 
		302.626,182.696 302.626,203.953 	"/>
	<path fill-rule="evenodd" clip-rule="evenodd" d="M86.422,388.376v-47.3H49.451v47.3H27.378H25V273.444h24.451v48.115h36.971
		v-48.115h24.451v114.933H86.422L86.422,388.376z M429.146,347.297c0-6.83,1.493-13.346,4.441-19.518
		c1.376-2.595,3.145-4.943,5.366-6.879c1.396-1.238,2.89-2.034,4.599-2.378c2.556-0.531,5.307-0.453,6.447,2.24
		c0.314,0.717,0.491,1.504,0.629,2.221c0.786,3.893,0.825,11.174,0.825,13.916v51.477H475v-60.882
		c-0.079-7.97-1.632-16.677-7.193-22.73c-4.521-4.993-10.143-7.272-16.137-7.351c-9.69-0.129-19.813,5.856-22.524,15.213v-52.715
		l-23.43,13.532v114.933h23.43V347.297L429.146,347.297z M122.783,371.935c-2.516-4.207-4.422-9.051-5.68-14.486
		c-1.258-5.444-1.907-11.479-1.907-18.053c0-4.068,0.275-8.216,1.022-12.274c0.648-3.567,1.631-7.076,3.105-10.397
		c1.729-3.932,4.147-7.587,7.272-10.555c3.597-3.41,8.078-5.906,13.424-7.371c3.597-0.973,7.548-1.474,11.892-1.464
		c3.164-0.01,6.349,0.314,9.435,1.062c3.852,0.934,7.292,2.477,10.24,4.56c3.538,2.496,6.349,5.808,8.412,9.592
		c2.496,4.589,3.99,9.995,4.521,16.009c0.256,2.811,0.236,5.621,0.236,8.441v4.079h-23.665h-23.684
		c0.314,3.754,1.14,7.548,2.496,11.144c1.179,3.155,2.771,6.241,4.796,9.002c2.024,2.762,4.461,5.18,7.39,6.979
		c3.911,2.427,8.354,3.527,12.953,3.527c4.894,0.02,9.926-1.336,14.486-3.037l3.204-1.179v18.761l-1.612,0.561
		c-4.363,1.494-8.864,2.486-13.778,3.017c-3.007,0.324-6.151,0.521-9.277,0.501c-3.145-0.02-6.25-0.266-9.257-0.796
		c-3.322-0.599-6.447-1.532-9.336-2.791c-2.87-1.258-5.543-2.85-7.941-4.757C128.012,379.226,125.083,375.777,122.783,371.935
		L122.783,371.935z M162.133,324.439c-0.118-0.807-0.314-1.651-0.59-2.477c-0.708-2.084-1.887-3.932-3.676-5.229
		c-0.825-0.6-1.808-1.101-3.026-1.455c-3.282-0.953-7.214-0.835-10.24,0.777c-2.3,1.238-4.069,3.302-5.209,5.621
		c-0.452,0.924-0.806,1.877-1.061,2.762H162.133L162.133,324.439z M221.942,317.687v37.482c0,1.798,0.04,3.527,0.177,5.149
		c0.197,2.575,0.609,5.503,1.985,7.764c1.121,1.817,2.771,2.84,4.796,3.312c2.358,0.551,4.914,0.373,7.272-0.059
		c2.358-0.442,4.678-1.121,6.997-1.721v18.908l-1.985,0.345c-2.653,0.472-5.385,0.835-8.098,1.091
		c-2.653,0.246-5.366,0.402-8.098,0.373c-2.712-0.02-5.425-0.216-8.059-0.678c-3.715-0.668-7.371-1.896-10.437-4.147
		c-2.516-1.857-4.423-4.284-5.7-7.145c-0.747-1.681-1.258-3.459-1.612-5.297c-0.747-3.823-0.668-7.685-0.668-11.548v-43.83h-15.665
		v-18.406h15.665v-25.837l23.429-13.532v39.369c9.867,0,19.753,0,29.62,0v-25.837l23.429-13.532v39.369h23.704v18.406h-23.704
		v37.482c0,1.798,0.059,3.527,0.177,5.149c0.196,2.575,0.629,5.503,1.985,7.764c1.12,1.817,2.791,2.84,4.796,3.312
		c2.378,0.551,4.913,0.373,7.272-0.059c2.358-0.442,4.678-1.121,6.997-1.721v18.908l-1.985,0.345
		c-2.653,0.472-5.385,0.835-8.078,1.091c-2.673,0.246-5.386,0.402-8.117,0.373c-2.713-0.02-5.425-0.216-8.059-0.678
		c-3.715-0.668-7.371-1.896-10.417-4.147c-2.536-1.857-4.442-4.284-5.7-7.145c-0.747-1.681-1.277-3.459-1.631-5.297
		c-0.728-3.823-0.669-7.685-0.669-11.548v-43.83C241.696,317.687,231.81,317.687,221.942,317.687L221.942,317.687z M305.005,388.376
		h-2.379v-89.096h23.448v89.096H305.005L305.005,388.376z M337.396,371.089c-2.457-4.078-4.363-8.834-5.602-14.289
		c-0.982-4.285-1.592-8.854-1.729-13.453c-0.177-4.59,0.099-9.209,0.806-13.582c0.668-4.029,1.77-7.872,3.361-11.41
		c2.143-4.904,5.307-9.346,9.414-12.775c4.266-3.558,9.592-6.113,15.961-7.371c6.053-1.188,12.913-1.229,18.967,0
		c4.756,0.953,8.688,2.693,11.891,5.013c3.99,2.899,6.899,6.879,8.767,11.468c1.749,4.374,2.535,9.17,2.692,13.955
		c0.059,1.426,0.059,2.851,0.059,4.285h-24.627v-2.388c0-1.248-0.059-2.507-0.177-3.715c-0.236-2.496-0.786-5.188-2.183-7.331
		c-1.159-1.789-2.811-2.88-4.854-3.322c-1.808-0.393-3.892-0.344-5.68,0.178c-1.789,0.521-3.342,1.533-4.6,2.898
		c-1.533,1.631-2.614,3.676-3.381,5.759c-0.569,1.622-1.021,3.4-1.336,5.337c-0.708,4.569-0.57,9.404,0.177,13.955
		c0.393,2.516,1.021,5.002,1.867,7.399c2.083,5.966,5.641,11.41,10.869,15.075c2.869,2.016,6.25,3.509,10.299,4.305
		c3.853,0.757,7.941,0.826,11.872,0.413c2.869-0.295,5.346-0.875,7.704-1.739l3.185-1.17v17.188l-1.612,0.54
		c-4.953,1.602-10.299,2.88-15.959,3.528c-2.771,0.324-5.582,0.491-8.393,0.491c-2.811-0.01-5.622-0.206-8.393-0.609
		c-4.619-0.678-9.021-1.936-13.051-3.842C346.85,382.636,341.287,377.566,337.396,371.089L337.396,371.089z"/>
	<polygon fill-rule="evenodd" clip-rule="evenodd" fill="#FABB00" points="302.626,265.218 429.146,192.16 429.146,170.903 
		302.626,243.956 302.626,265.218 	"/>
	<polygon fill-rule="evenodd" clip-rule="evenodd" fill="#00925B" points="302.626,234.585 429.146,161.528 429.146,140.271 
		302.626,213.329 302.626,234.585 	"/>
</g>
</svg>
