<?xml version="1.0" encoding="utf-8"?>
<!-- Generator: Adobe Illustrator 19.1.0, SVG Export Plug-In . SVG Version: 6.00 Build 0)  -->
<svg version="1.1" id="Calque_1" xmlns="http://www.w3.org/2000/svg" xmlns:xlink="http://www.w3.org/1999/xlink" x="0px" y="0px"
	 viewBox="0 0 500 500" style="enable-background:new 0 0 500 500;" xml:space="preserve">
<style type="text/css">
	.st0{fill:#E32119;}
</style>
<g>
	<path class="st0" d="M125.1,226c-5.2-2-11.7-1.7-11.8-1.7h-0.1c-2,0-3.9,0.2-5.2,0.5c-3.2,0.6-10.6,1.8-16.5,9.7
		c-6.5,8.7-4.4,19.8-3.6,22.9c1.3,5.1,4.2,9.2,9.1,13.2c5.5,4.4,13.6,4.9,16.8,4.9c5.6,0,11-1.1,14.3-2.9c5.5-3,9.3-7.4,11.3-13
		c2.6-7.6,2-16.8-1.5-22.9C134.4,230.6,130.6,228.1,125.1,226z M121.1,259c-0.1,1.6-0.8,7-3.9,9.6c-1.1,0.9-2.4,1.3-3.7,1.1
		c-1.5-0.2-2.9-1.2-4-2.8c-1.9-2.8-2.7-5.5-2.5-14.1l0-5.2c0-5.7,0-9.8,1.2-12.4c1.4-3.1,3-4.8,4.7-5.1c3-0.6,5.4,1.2,7,5.3
		c0.3,0.7,1.1,3.2,1.2,7.9c0,2.8,0,5.9,0,8.6C121.2,255.3,121.2,258.1,121.1,259z"/>
	<path class="st0" d="M401.9,224.3c-12.6-0.6-21.7,6.1-25.1,13c-3.9,7.9-3.1,16.9-1.6,21c1.2,3.3,3.1,7.5,7.8,11.4
		c7.5,6.2,16.6,6.2,23.7,5.5c7-0.7,12.8-4.2,16-7.2c3.3-3.2,3.5-8,3.5-8.1v-0.1l-8.1,0c-0.1,0-0.1,0.1-0.1,0.4
		c-0.9,5.9-5.9,7.9-10,8.5c-4.2,0.7-9.9,0.6-13-3.5c-0.8-1-1.1-2.9-1.1-3v-9.6c0.1,0,33.8,0.1,33.8,0.1c0.2-0.2,0.6-9-2.9-15.7
		C420.3,228.8,413.3,224.8,401.9,224.3z M408.3,242c0,1.3,0,2.4,0,3.1c0,0.7,0,1,0,1.2h-14.7c0-0.1,0-0.7,0-1.5c0-2,0.1-5.6,0.4-7.7
		c0.5-3,2.2-5.4,3.6-6.5c1.8-1.3,5.4-1.4,7.2,0.5c1.8,1.9,2.3,3.4,2.6,4.4l0,0.2c0.3,0.9,0.8,3.5,0.8,6.1L408.3,242L408.3,242z"/>
	<path class="st0" d="M189,226c-7.6-3.2-14.6-0.6-17.2,0.7c-1.5,0.7-3.9,2.3-6.2,5.4l0,0v-6.3h-19v47.9l18.9,0v-34.4l0,0l0-0.1
		c0.1-0.6,2.4-3.1,4.8-4.4c2.6-1.4,5.6-0.6,6.6,0.7c1.5,1.8,1.5,3.9,1.5,5v33.3h18.7l0-36.4C196.9,235.4,196,229,189,226z"/>
	<polygon class="st0" points="61.1,235.4 45.4,235.4 45.4,208.2 25,208.2 25,273.7 45.2,273.7 45.2,243.9 61.1,243.9 61.1,274 
		81.3,274 81.3,208 61.1,208 	"/>
	<rect x="456.8" y="208.1" class="st0" width="18.2" height="65.8"/>
	<rect x="433.1" y="208" class="st0" width="18.2" height="65.8"/>
	<path class="st0" d="M366.5,225.9c0,0-7.1,25.8-7.2,26.2c-0.1-0.4-8-26.2-8-26.2h-16.6c0,0-7.1,26.2-7.2,26.6
		c-0.1-0.4-8.2-26.6-8.2-26.6l-25.9-0.1c0,0-9.2,22.3-9.3,22.6c-0.1-0.3-8.7-22.6-8.7-22.6h-20.6l19.1,48.9c0,0,0,0.5-0.4,1.8
		c-0.5,1.6-1.8,5-4,7.3c-2.1,2.2-4.3,1.9-4.7,1.8c0.2-0.2,1-1,1.5-2.2c0.2-0.5,0.3-1.2,0.3-1.9c0-1.3-0.3-2.8-1-4.2
		c-1-2-3.8-4-8.6-3.1c-4.8,0.9-6.5,5.3-6.1,9c0.5,4.6,3.7,7.4,9.4,8.4c6.2,1.1,10-0.9,13.8-4.3c3.5-3.1,6.4-11,6.4-11.1
		c0,0,18.6-45.5,19.8-48.5c0.1,0.3,14.1,46,14.1,46h16c0,0,7.5-27.3,7.6-27.7c0.1,0.4,8.6,27.7,8.6,27.7h15.6l13.2-47.9L366.5,225.9
		L366.5,225.9z"/>
	<path class="st0" d="M254.8,260L254.8,260l-8.1,0c-0.1,0-0.1,0.1-0.1,0.4c-0.9,5.9-6,7.9-10,8.5c-4.2,0.7-9.9,0.6-13-3.5
		c-0.8-1-1.1-2.9-1.1-3v-9.6c0.1,0,33.9,0.1,33.9,0.1c0.2-0.2,0.6-9-2.9-15.7c-4.4-8.3-11.4-12.2-22.7-12.8
		c-12.6-0.6-21.7,6.1-25.1,13c-3.9,7.8-3.1,16.9-1.6,21c1.2,3.3,3.1,7.5,7.8,11.4c7.5,6.2,16.6,6.2,23.7,5.5c7-0.7,12.8-4.2,16-7.2
		C254.7,264.8,254.8,260,254.8,260z M222.4,244.9c0-2,0.1-5.7,0.4-7.7c0.5-3,2.2-5.4,3.6-6.5c1.8-1.3,5.4-1.4,7.2,0.5
		c1.8,1.9,2.3,3.4,2.6,4.4l0,0.2c0.3,0.9,0.8,3.5,0.8,6.1l0,0.3c0,1.3,0,2.4,0,3.1c0,0.7,0,1,0,1.2h-14.7
		C222.4,246.1,222.4,245.6,222.4,244.9z"/>
</g>
</svg>
