<?xml version="1.0" encoding="utf-8"?>
<!-- Generator: Adobe Illustrator 19.1.0, SVG Export Plug-In . SVG Version: 6.00 Build 0)  -->
<svg version="1.1" id="Calque_2" xmlns="http://www.w3.org/2000/svg" xmlns:xlink="http://www.w3.org/1999/xlink" x="0px" y="0px"
	 viewBox="0 0 500 500" style="enable-background:new 0 0 500 500;" xml:space="preserve">
<style type="text/css">
	.st0{fill:#0076BD;}
	.st1{fill:#4D4F50;}
</style>
<g>
	<path class="st0" d="M60.3,251.3v-65.4v-75.9H25v147.9c0,15.9,12.9,28.8,28.7,28.8h6.5V251.3z"/>
	<path class="st0" d="M123.7,102.1L83,142.8h23.1v43.1v65.4v35.3h6.5c15.9,0,28.7-12.9,28.7-28.8v-115h23.1L123.7,102.1z"/>
	<path class="st0" d="M164.4,382.7L123.7,342h23.1v-43.1v-65.4v-35.3h6.5c15.9,0,28.7,12.9,28.7,28.7v115h23.1L164.4,382.7z"/>
	<path class="st0" d="M118.2,348.9c-9.2,0-16.7-7.5-16.7-16.7V262v-14.9v-49.7C80.8,201.7,65,220.2,65,242.2v94.9
		c0,25.1,20.5,45.7,45.7,45.7H137c6.5,0,12.7-1.4,18.3-3.9l-30.1-30.1L118.2,348.9L118.2,348.9z"/>
	<rect x="26.4" y="395.1" class="st0" width="448.6" height="2.8"/>
	<polygon class="st1" points="475,197.6 461.7,197.6 438.1,197.6 424.8,197.6 424.8,217.4 438.1,217.4 438.1,341.5 461.7,341.5 
		461.7,217.4 475,217.4 	"/>
	<polygon class="st1" points="254.4,197.6 254.4,250.2 244.6,250.2 244.6,197.6 221.1,197.6 221.1,341.5 244.6,341.5 244.6,275.3 
		254.4,275.3 254.4,341.5 277.9,341.5 277.9,197.6 	"/>
	<path class="st1" d="M400.3,197.6h-22.1c-9.2,0-16.7,7.5-16.7,16.7v110.6c0,9.2,7.5,16.7,16.7,16.7h22.1c9.2,0,16.7-7.5,16.7-16.7
		V214.2C416.9,205.1,409.4,197.6,400.3,197.6z M394.9,316.3c0,3.6-2.6,6.5-5.7,6.5s-5.7-2.9-5.7-6.5v-93.6c0-3.6,2.6-6.5,5.7-6.5
		s5.7,2.9,5.7,6.5V316.3z"/>
	<path class="st1" d="M325.1,198.2v116.9c0,4.2-2.6,7.7-5.7,7.7c-3.1,0-5.7-3.5-5.7-7.7V198.2h-22v126.6c0,9.2,7.5,16.7,16.7,16.7
		h22.1c9.2,0,16.7-7.5,16.7-16.7V198.2H325.1z"/>
	<g>
		<path d="M239.7,367.8c-1.5-0.5-3.4-1.1-5.9-1.6c-2.4-0.5-4-1-4.9-1.6c-0.8-0.5-1.1-1.2-1.1-2.1c0-1.1,0.5-1.9,1.5-2.6
			c1-0.7,2.5-1,4.4-1c3.9,0,6,1.5,6.3,4.5l0,0.4h4.5l0-0.5c-0.1-2.7-1.2-4.9-3.2-6.4c-2-1.5-4.6-2.2-7.8-2.2c-3.1,0-5.5,0.7-7.4,2.2
			c-1.9,1.5-2.9,3.4-2.9,5.8c0,2.1,0.7,3.8,2.2,5.1c1.4,1.2,3.7,2.2,7,2.9c3.1,0.6,5.3,1.3,6.5,2c1.1,0.6,1.7,1.5,1.7,2.8
			c0,1.3-0.5,2.2-1.6,3c-1.2,0.8-2.7,1.2-4.7,1.2c-2,0-3.8-0.5-5.2-1.4c-1.4-0.9-2.2-2.2-2.3-4.1l0-0.4h-4.5l0,0.5
			c0.1,2.8,1.2,5.2,3.2,7c2,1.8,5,2.7,9,2.7c3.1,0,5.7-0.8,7.7-2.4c2-1.6,3-3.7,3-6.2c0-2-0.6-3.6-1.7-4.7
			C242.5,369.2,241.2,368.4,239.7,367.8z"/>
		<path d="M261.5,355.2h-4.6l-10.7,27.4l-0.3,0.7h4.9l3-8.3h10.8l3.1,7.9l0.1,0.3h5.2l-11.5-27.8L261.5,355.2z M263.4,371.2h-8.1
			l3.9-10.7L263.4,371.2z"/>
		<rect x="275.4" y="355.2" width="4.6" height="28.1"/>
		<polygon points="303.8,375.5 290.1,355.2 285.7,355.2 285.7,383.3 290.1,383.3 290.1,363 303.8,383.3 308.3,383.3 308.3,355.2 
			303.8,355.2 		"/>
		<polygon points="311.2,359.4 320.2,359.4 320.2,383.3 324.9,383.3 324.9,359.4 334,359.4 334,355.2 311.2,355.2 		"/>
		<rect x="335.1" y="370.8" width="11.3" height="4.3"/>
		<polygon points="363.1,376.7 356,355.2 349.7,355.2 349.7,383.3 354.2,383.3 354.2,362.7 361.1,382.9 361.2,383.3 365.1,383.3 
			372.1,362.7 372.1,383.3 376.6,383.3 376.6,355.2 370.3,355.2 		"/>
		<rect x="382.2" y="355.2" width="4.6" height="28.1"/>
		<polygon points="410.4,366.3 397.1,366.3 397.1,355.2 392.4,355.2 392.4,383.3 397.1,383.3 397.1,370.5 410.4,370.5 410.4,383.3 
			415,383.3 415,355.2 410.4,355.2 		"/>
		<rect x="420.7" y="355.2" width="4.6" height="28.1"/>
		<polygon points="435.5,370.9 450.7,370.9 450.7,366.7 435.5,366.7 435.5,359.4 451.8,359.4 451.8,355.2 430.9,355.2 430.9,383.3 
			452.4,383.3 452.4,379.1 435.5,379.1 		"/>
		<polygon points="461.2,379.1 461.2,355.2 456.5,355.2 456.5,383.3 474.5,383.3 474.5,379.1 		"/>
	</g>
</g>
</svg>
