<?xml version="1.0" encoding="utf-8"?>
<!-- Generator: Adobe Illustrator 21.0.2, SVG Export Plug-In . SVG Version: 6.00 Build 0)  -->
<svg version="1.1" id="Calque_1" xmlns="http://www.w3.org/2000/svg" xmlns:xlink="http://www.w3.org/1999/xlink" x="0px" y="0px"
	 viewBox="0 0 500 360" style="enable-background:new 0 0 500 360;" xml:space="preserve">
<style type="text/css">
	.st0{fill:#E40037;}
	.st1{fill:#003535;}
</style>
<rect x="8.9" y="17.2" class="st0" width="42" height="183.7"/>
<polygon class="st0" points="130.4,59.9 200.7,60.2 200.7,17.2 88.7,17.2 88.7,200.9 130.8,200.2 130.1,143.3 171.7,143 
	171.7,103.3 130.8,103 "/>
<path class="st0" d="M240.7,20l-52.8,183h42.3l7.4-33h41.6l6.9,33h42.1L276,20H240.7z M245.8,144l12.5-42.1L270,144H245.8z"/>
<polygon class="st0" points="447.8,17.1 419.4,74.3 391.3,17.1 348.8,17.1 348.8,201.5 391.3,201.5 391.6,101.6 419.7,156.7 
	447.9,101.3 447.8,201.4 490.6,201.5 490.6,17.1 "/>
<path class="st1" d="M130.4,285.9l67-32.3L274,285l48.2-20.5l41.4-35.5l125.9,45.3l-199.6,67.5l-45-19.2l-50.1-6.4L130.4,285.9z"/>
<path class="st0" d="M9.8,274.3l126.6-44.8l40.2,34.2l-45,21.4l40.2,20.4l130.3-52.2l20.4,10.8l-72.2,60.2l-39.6,17.2L9.8,274.3z"/>
</svg>
