<?xml version="1.0" encoding="utf-8"?>
<!-- Generator: Adobe Illustrator 21.0.2, SVG Export Plug-In . SVG Version: 6.00 Build 0)  -->
<svg version="1.1" id="Calque_1" xmlns="http://www.w3.org/2000/svg" xmlns:xlink="http://www.w3.org/1999/xlink" x="0px" y="0px"
	 viewBox="0 0 500 362" style="enable-background:new 0 0 500 362;" xml:space="preserve">
<style type="text/css">
	.st0{fill:#808080;}
</style>
<path class="st0" d="M471.7,263.3c-3.7-21.5-24.3-40-43.7-48.3c-14.1-6.1-28.8-10.7-43.1-16.1c-10.9-4.5-26.1-11.2-27.4-25
	c-1.1-6.7,2-12.1,6.2-16.9c10.7-9.5,27.9-9.2,40.9-5c22.6,10.1,42.6,33.1,53.1,54.8v-6.4v-46.6l-0.2-8.9h2.1V24.1H31.4h-0.3v115.4
	h-5.2v14.7l4.2,0c0.3,0,0.7,0,1,0c5.6,0,11.6-0.4,16,2.3c7.1,4.1,3.6,13.1,4.4,19.7l0.4,90.1v56.8c0.4,4.3-2.4,7.5-5.8,9.6
	c-3.8,2.3-8,3.4-12.4,4.1c-0.7,0.3-1.9,0-2.1,0.9h87.3l23.6-0.5c-0.8-0.1-1.3-0.7-2.1-0.7c-6.1-0.1-11.8-3.3-14.7-8.7v-53.4l0.4-7.3
	l0.3-0.4c2.5,6.2,4.9,12.6,7.8,18.7c19,30,49.4,52,84.7,52.4c15.1,1.5,28-3.4,41.4-6.7c13.7-4.6,31.8-4.4,43.4,4.6
	c0.7-1.6,0.1-3.8,0.5-5.5l1-77.9c0-3.8,1-7.4,3.9-10.1c6.8-5.8,16.4-6.7,25.4-5.5c20.4,24,49.1,30.6,75.5,41.6
	c11.2,6,26,12.2,29.8,26.1c1.7,9.4-1.8,18.1-9,24.3c-10.5,9.3-28.5,9.2-40.9,3.9c-24.3-12.4-45-37.6-55.1-61.8
	c-3-7-5.4-14.2-7.6-21.5c-0.6,0-1,0.6-1.3,1v44.8V332c0.4,1,1,2.1,2.1,2.3c9.3-1.3,19.1-1.8,28.8-2.3c26.4,0,54.5,12.8,79.2,0
	c16.8-7.5,29.6-24.6,34.8-41.4l0.4,0.9C473,282.6,473.9,272.4,471.7,263.3z M300.3,232.7l-34-0.1l-35.7-0.5l-21.3,0.1
	c-0.4,0.4-0.6,0.9-0.5,1.4l0.7,0.7c9.5,1.7,20.6,0.7,27.2,9l0.7,4.4l-1.2,75l-0.2,9.6c-6.6,1.4-15.9,5.3-21.7-0.5
	c-12.1-12.6-9.8-31.2-12.1-47.8c-1-14-0.4-27.4-0.5-41c0.8-25.4,3.5-50.4,7.3-74.8c2.2-8.6,7.8-19,17.5-21.3
	c16.8-5,30.5,5.6,41.4,18c4.4,5.5,8,11.4,11.7,17.2c8.9,14.6,15.6,29.9,21.5,45.7L300.3,232.7z"/>
</svg>
