<?xml version="1.0" encoding="utf-8"?>
<!-- Generator: Adobe Illustrator 16.0.0, SVG Export Plug-In . SVG Version: 6.00 Build 0)  -->
<!DOCTYPE svg PUBLIC "-//W3C//DTD SVG 1.1//EN" "http://www.w3.org/Graphics/SVG/1.1/DTD/svg11.dtd">
<svg version="1.1" id="Calque_2" xmlns="http://www.w3.org/2000/svg" xmlns:xlink="http://www.w3.org/1999/xlink" x="0px" y="0px"
	 width="500px" height="500px" viewBox="0 0 500 500" enable-background="new 0 0 500 500" xml:space="preserve">
<g>
	<polygon fill="#1F539E" points="366.593,87.51 249.795,18.759 132.998,87.51 132.998,222.601 133.084,222.601 132.998,222.634 
		249.795,291.385 366.593,222.634 366.506,222.601 366.593,222.601 	"/>
	<g>
		<path fill="#009EE0" d="M27.673,367.446v-37.264c0-1.937,0.479-3.388,1.44-4.354c0.96-0.971,2.201-1.451,3.723-1.451
			c1.569,0,2.84,0.476,3.812,1.432c0.972,0.962,1.458,2.417,1.458,4.373v37.264c0,1.955-0.486,3.421-1.458,4.387
			c-0.972,0.971-2.243,1.451-3.812,1.451c-1.498,0-2.734-0.485-3.706-1.466C28.158,370.839,27.673,369.383,27.673,367.446z"/>
		<path fill="#009EE0" d="M63.87,330.121l20.061,27.874v-28.133c0-1.828,0.426-3.199,1.282-4.113
			c0.855-0.914,2.008-1.371,3.46-1.371c1.499,0,2.682,0.457,3.548,1.371c0.867,0.914,1.3,2.285,1.3,4.113v37.197
			c0,4.151-1.874,6.225-5.621,6.225c-0.938,0-1.78-0.123-2.529-0.368c-0.75-0.249-1.454-0.641-2.109-1.178
			c-0.656-0.537-1.265-1.168-1.827-1.889c-0.562-0.722-1.124-1.456-1.687-2.21l-19.567-27.554V367.8c0,1.81-0.457,3.176-1.37,4.099
			c-0.914,0.924-2.085,1.386-3.514,1.386c-1.476,0-2.659-0.467-3.548-1.399c-0.891-0.938-1.335-2.3-1.335-4.085v-36.486
			c0-1.551,0.187-2.767,0.563-3.647c0.444-0.966,1.181-1.757,2.213-2.369c1.03-0.613,2.143-0.919,3.337-0.919
			c0.936,0,1.738,0.137,2.406,0.419c0.668,0.278,1.252,0.655,1.756,1.126c0.504,0.476,1.019,1.089,1.546,1.843
			C62.764,328.52,63.308,329.301,63.87,330.121z"/>
		<path fill="#009EE0" d="M111.905,325.184H125.5c3.536,0,6.571,0.301,9.1,0.904s4.825,1.729,6.886,3.388
			c5.363,4.212,8.045,10.625,8.045,19.228c0,2.837-0.27,5.428-0.808,7.774c-0.54,2.347-1.37,4.457-2.495,6.337
			c-1.124,1.885-2.564,3.567-4.32,5.051c-1.383,1.141-2.893,2.055-4.533,2.742c-1.64,0.688-3.402,1.174-5.286,1.451
			c-1.886,0.283-4.012,0.42-6.377,0.42h-13.595c-1.897,0-3.326-0.264-4.286-0.792c-0.96-0.522-1.587-1.268-1.879-2.224
			c-0.293-0.956-0.439-2.2-0.439-3.727v-34.683c0-2.063,0.503-3.557,1.51-4.485C108.029,325.645,109.657,325.184,111.905,325.184z
			 M115.946,332.765v32.1h7.905c1.732,0,3.091-0.042,4.074-0.127s2.002-0.302,3.057-0.646s1.967-0.829,2.74-1.451
			c3.49-2.709,5.235-7.379,5.235-14.003c0-4.669-0.767-8.16-2.301-10.483c-1.535-2.323-3.425-3.803-5.674-4.438
			s-4.966-0.951-8.15-0.951H115.946z"/>
		<path fill="#009EE0" d="M159.274,352.93v-22.747c0-1.937,0.474-3.388,1.423-4.354c0.948-0.971,2.196-1.451,3.741-1.451
			c1.616,0,2.899,0.48,3.847,1.451c0.948,0.966,1.423,2.417,1.423,4.354v23.261c0,2.648,0.322,4.857,0.966,6.629
			c0.645,1.776,1.786,3.152,3.425,4.133c1.64,0.979,3.934,1.465,6.886,1.465c4.074,0,6.956-0.994,8.642-2.982
			c1.686-1.988,2.529-5.004,2.529-9.051v-23.454c0-1.956,0.469-3.411,1.405-4.373c0.937-0.956,2.19-1.432,3.759-1.432
			s2.84,0.476,3.813,1.432c0.971,0.962,1.457,2.417,1.457,4.373v22.747c0,3.699-0.393,6.785-1.177,9.259
			c-0.785,2.474-2.267,4.646-4.444,6.516c-1.874,1.593-4.052,2.752-6.534,3.487c-2.483,0.729-5.388,1.093-8.713,1.093
			c-3.958,0-7.366-0.392-10.223-1.173c-2.857-0.787-5.188-2.003-6.991-3.647c-1.805-1.645-3.127-3.755-3.971-6.323
			C159.696,359.568,159.274,356.501,159.274,352.93z"/>
		<path fill="#009EE0" d="M253.51,358.282c0,2.864-0.806,5.433-2.407,7.713c-1.606,2.28-3.953,4.066-7.045,5.357
			c-3.091,1.286-6.757,1.932-10.996,1.932c-5.083,0-9.274-0.881-12.576-2.644c-2.343-1.268-4.246-2.964-5.709-5.084
			c-1.464-2.115-2.195-4.174-2.195-6.177c0-1.159,0.439-2.153,1.317-2.982c0.878-0.829,1.997-1.244,3.355-1.244
			c1.101,0,2.031,0.325,2.793,0.971c0.761,0.646,1.411,1.603,1.95,2.87c0.656,1.508,1.364,2.766,2.126,3.773
			c0.76,1.013,1.832,1.847,3.214,2.502c1.382,0.655,3.197,0.984,5.445,0.984c3.091,0,5.604-0.664,7.535-1.983
			c1.932-1.323,2.899-2.973,2.899-4.956c0-1.569-0.522-2.842-1.564-3.821c-1.042-0.98-2.389-1.725-4.04-2.243
			c-1.65-0.514-3.859-1.064-6.622-1.645c-3.7-0.796-6.798-1.724-9.292-2.789c-2.495-1.064-4.474-2.516-5.938-4.358
			c-1.464-1.837-2.196-4.122-2.196-6.854c0-2.602,0.773-4.915,2.319-6.936c1.545-2.021,3.781-3.576,6.709-4.66
			c2.927-1.088,6.37-1.63,10.329-1.63c3.161,0,5.895,0.357,8.203,1.079c2.306,0.721,4.222,1.677,5.744,2.874
			c1.523,1.191,2.635,2.445,3.339,3.755c0.702,1.314,1.051,2.591,1.051,3.84c0,1.141-0.438,2.167-1.314,3.081
			c-0.879,0.914-1.974,1.371-3.285,1.371c-1.195,0-2.103-0.273-2.723-0.824c-0.621-0.547-1.294-1.446-2.02-2.69
			c-0.937-1.785-2.062-3.181-3.373-4.179c-1.312-0.999-3.419-1.499-6.324-1.499c-2.692,0-4.866,0.542-6.516,1.626
			c-1.651,1.088-2.477,2.394-2.477,3.92c0,0.947,0.282,1.767,0.843,2.455c0.562,0.688,1.335,1.276,2.318,1.771
			c0.983,0.494,1.979,0.886,2.986,1.163c1.007,0.278,2.67,0.688,4.99,1.226c2.903,0.622,5.532,1.314,7.886,2.063
			c2.355,0.754,4.357,1.668,6.009,2.742c1.649,1.079,2.939,2.436,3.863,4.08C253.044,353.882,253.51,355.898,253.51,358.282z"/>
		<path fill="#009EE0" d="M296.311,333.09h-11.384v34.356c0,1.979-0.48,3.449-1.439,4.405c-0.961,0.957-2.202,1.433-3.725,1.433
			c-1.545,0-2.806-0.48-3.776-1.451c-0.973-0.966-1.458-2.432-1.458-4.387V333.09h-11.383c-1.778,0-3.103-0.363-3.97-1.084
			s-1.301-1.673-1.301-2.855c0-1.225,0.453-2.19,1.355-2.902c0.899-0.711,2.204-1.064,3.915-1.064h33.165
			c1.802,0,3.145,0.367,4.021,1.098c0.878,0.73,1.318,1.687,1.318,2.869s-0.444,2.135-1.335,2.855S298.089,333.09,296.311,333.09z"
			/>
		<path fill="#009EE0" d="M322.354,352.251H318.7v15.195c0,2.003-0.481,3.473-1.439,4.42c-0.962,0.946-2.215,1.418-3.76,1.418
			c-1.664,0-2.95-0.495-3.864-1.484c-0.914-0.984-1.371-2.44-1.371-4.354v-36.393c0-2.063,0.505-3.557,1.511-4.485
			c1.008-0.924,2.636-1.385,4.883-1.385h16.97c2.341,0,4.344,0.089,6.007,0.273c1.663,0.184,3.161,0.556,4.497,1.111
			c1.616,0.627,3.044,1.518,4.285,2.681c1.241,1.159,2.184,2.512,2.829,4.048c0.644,1.536,0.966,3.166,0.966,4.886
			c0,3.529-1.083,6.347-3.251,8.452c-2.165,2.111-5.451,3.604-9.854,4.486c1.852,0.904,3.618,2.237,5.305,4
			c1.687,1.767,3.192,3.642,4.517,5.63c1.321,1.993,2.354,3.788,3.091,5.391c0.737,1.602,1.106,2.704,1.106,3.308
			c0,0.621-0.217,1.238-0.649,1.852c-0.434,0.612-1.025,1.098-1.774,1.451c-0.751,0.357-1.616,0.532-2.601,0.532
			c-1.171,0-2.155-0.25-2.952-0.754c-0.796-0.509-1.479-1.149-2.054-1.923c-0.575-0.772-1.353-1.912-2.337-3.42l-4.18-6.39
			c-1.5-2.341-2.841-4.127-4.023-5.352c-1.183-1.226-2.382-2.064-3.6-2.517S324.203,352.251,322.354,352.251z M328.325,332.378
			H318.7v12.999h9.345c2.507,0,4.613-0.197,6.323-0.594c1.71-0.4,3.016-1.074,3.918-2.035c0.902-0.956,1.352-2.271,1.352-3.948
			c0-1.314-0.362-2.469-1.088-3.473c-0.726-0.999-1.734-1.743-3.022-2.237C334.31,332.613,331.909,332.378,328.325,332.378z"/>
		<path fill="#009EE0" d="M361.01,367.446v-37.264c0-1.937,0.48-3.388,1.439-4.354c0.961-0.971,2.203-1.451,3.725-1.451
			c1.569,0,2.839,0.476,3.812,1.432c0.973,0.962,1.458,2.417,1.458,4.373v37.264c0,1.955-0.485,3.421-1.458,4.387
			c-0.973,0.971-2.242,1.451-3.812,1.451c-1.498,0-2.735-0.485-3.706-1.466C361.495,370.839,361.01,369.383,361.01,367.446z"/>
		<path fill="#009EE0" d="M416.564,367.126l-2.46-5.937h-20.938l-2.46,6.063c-0.959,2.365-1.778,3.963-2.459,4.792
			c-0.679,0.824-1.791,1.239-3.336,1.239c-1.313,0-2.472-0.438-3.479-1.319c-1.006-0.881-1.511-1.885-1.511-3.001
			c0-0.646,0.118-1.315,0.352-2.003c0.235-0.688,0.622-1.645,1.159-2.869l13.176-30.715c0.374-0.881,0.824-1.941,1.353-3.176
			c0.527-1.239,1.088-2.267,1.687-3.081c0.596-0.82,1.38-1.479,2.354-1.984c0.971-0.509,2.172-0.758,3.6-0.758
			c1.453,0,2.664,0.249,3.638,0.758c0.97,0.505,1.755,1.155,2.353,1.951c0.597,0.796,1.101,1.649,1.511,2.563
			c0.409,0.914,0.931,2.134,1.564,3.66l13.453,30.521c1.056,2.323,1.581,4.015,1.581,5.065c0,1.098-0.497,2.102-1.491,3.016
			c-0.996,0.914-2.195,1.371-3.602,1.371c-0.82,0-1.522-0.132-2.109-0.4c-0.584-0.269-1.076-0.637-1.475-1.098
			c-0.397-0.462-0.824-1.174-1.281-2.13C417.285,368.699,416.892,367.856,416.564,367.126z M395.906,353.995h15.389l-7.766-19.521
			L395.906,353.995z"/>
		<path fill="#009EE0" d="M475,358.282c0,2.864-0.804,5.433-2.407,7.713c-1.604,2.28-3.951,4.066-7.044,5.357
			c-3.091,1.286-6.757,1.932-10.995,1.932c-5.084,0-9.274-0.881-12.577-2.644c-2.342-1.268-4.245-2.964-5.708-5.084
			c-1.466-2.115-2.198-4.174-2.198-6.177c0-1.159,0.44-2.153,1.319-2.982s1.995-1.244,3.354-1.244c1.101,0,2.031,0.325,2.792,0.971
			s1.411,1.603,1.95,2.87c0.655,1.508,1.364,2.766,2.125,3.773c0.761,1.013,1.833,1.847,3.216,2.502
			c1.38,0.655,3.196,0.984,5.444,0.984c3.093,0,5.604-0.664,7.536-1.983c1.932-1.323,2.897-2.973,2.897-4.956
			c0-1.569-0.521-2.842-1.562-3.821c-1.044-0.98-2.389-1.725-4.04-2.243c-1.652-0.514-3.859-1.064-6.623-1.645
			c-3.7-0.796-6.799-1.724-9.293-2.789c-2.492-1.064-4.474-2.516-5.937-4.358c-1.463-1.837-2.196-4.122-2.196-6.854
			c0-2.602,0.773-4.915,2.318-6.936c1.546-2.021,3.783-3.576,6.712-4.66c2.926-1.088,6.37-1.63,10.328-1.63
			c3.161,0,5.896,0.357,8.202,1.079c2.307,0.721,4.222,1.677,5.744,2.874c1.521,1.191,2.636,2.445,3.338,3.755
			c0.702,1.314,1.053,2.591,1.053,3.84c0,1.141-0.438,2.167-1.316,3.081s-1.975,1.371-3.284,1.371c-1.194,0-2.104-0.273-2.724-0.824
			c-0.622-0.547-1.293-1.446-2.019-2.69c-0.938-1.785-2.062-3.181-3.374-4.179c-1.312-0.999-3.42-1.499-6.322-1.499
			c-2.695,0-4.867,0.542-6.519,1.626c-1.651,1.088-2.477,2.394-2.477,3.92c0,0.947,0.28,1.767,0.844,2.455
			c0.563,0.688,1.336,1.276,2.318,1.771c0.984,0.494,1.979,0.886,2.987,1.163c1.006,0.278,2.669,0.688,4.986,1.226
			c2.905,0.622,5.534,1.314,7.888,2.063c2.354,0.754,4.355,1.668,6.007,2.742c1.652,1.079,2.94,2.436,3.866,4.08
			C474.536,353.882,475,355.898,475,358.282z"/>
	</g>
	<g>
		<g>
			<path fill="#1F539E" d="M25,407.679h24.718v10.497c3.562-4.377,7.154-7.496,10.781-9.348c3.625-1.852,8.001-2.775,13.126-2.775
				c5.515,0,9.88,1.014,13.094,3.049c3.213,2.03,5.841,5.056,7.881,9.074c4.158-4.697,7.947-7.892,11.369-9.583
				c3.421-1.696,7.643-2.54,12.667-2.54c7.405,0,13.187,2.29,17.343,6.875c4.157,4.584,6.236,11.75,6.236,21.508v45.18h-26.539
				v-40.981c0-3.251-0.605-5.668-1.815-7.246c-1.772-2.483-3.977-3.728-6.611-3.728c-3.112,0-5.619,1.174-7.52,3.524
				c-1.902,2.347-2.853,6.116-2.853,11.313v37.118h-26.54v-39.624c0-3.162-0.174-5.311-0.521-6.437
				c-0.567-1.805-1.545-3.265-2.938-4.372c-1.392-1.103-3.025-1.659-4.895-1.659c-3.047,0-5.549,1.197-7.507,3.591
				c-1.959,2.394-2.938,6.323-2.938,11.788v36.713H25V407.679z"/>
			<path fill="#1F539E" d="M183.088,430.978l-25.304-2.775c0.954-4.607,2.331-8.23,4.131-10.874
				c1.798-2.639,4.391-4.934,7.773-6.874c2.429-1.399,5.767-2.483,10.018-3.251c4.25-0.769,8.846-1.15,13.79-1.15
				c7.937,0,14.311,0.462,19.125,1.386c4.814,0.928,8.824,2.86,12.033,5.795c2.254,2.031,4.033,4.91,5.335,8.637
				c1.3,3.722,1.951,7.279,1.951,10.667v31.771c0,3.388,0.206,6.04,0.618,7.958c0.412,1.922,1.311,4.372,2.7,7.35h-24.849
				c-0.998-1.852-1.647-3.261-1.95-4.23c-0.304-0.971-0.608-2.498-0.911-4.575c-3.47,3.477-6.918,5.96-10.343,7.453
				c-4.683,1.984-10.126,2.979-16.327,2.979c-8.24,0-14.496-1.984-18.767-5.961c-4.272-3.972-6.408-8.871-6.408-14.7
				c0-5.46,1.54-9.955,4.619-13.479c3.079-3.52,8.759-6.14,17.043-7.859c9.93-2.072,16.369-3.528,19.319-4.367
				c2.948-0.834,6.071-1.932,9.367-3.284c0-3.388-0.673-5.758-2.016-7.114c-1.345-1.353-3.708-2.03-7.091-2.03
				c-4.337,0-7.589,0.721-9.756,2.167C185.496,425.743,184.129,427.863,183.088,430.978z M206.05,445.475
				c-3.642,1.357-7.438,2.555-11.383,3.591c-5.377,1.489-8.781,2.959-10.212,4.405c-1.475,1.489-2.211,3.181-2.211,5.079
				c0,2.167,0.726,3.938,2.179,5.319c1.452,1.376,3.586,2.063,6.406,2.063c2.949,0,5.692-0.744,8.229-2.233
				c2.537-1.493,4.336-3.308,5.398-5.456c1.063-2.144,1.594-4.933,1.594-8.362V445.475z"/>
			<path fill="#1F539E" d="M278.406,380.309v27.37h14.57v20.185h-14.57v25.485c0,3.066,0.28,5.093,0.846,6.087
				c0.867,1.531,2.384,2.299,4.552,2.299c1.952,0,4.683-0.589,8.198-1.757l1.95,19.03c-6.549,1.488-12.662,2.233-18.345,2.233
				c-6.592,0-11.446-0.877-14.57-2.639c-3.122-1.758-5.431-4.429-6.926-8.015c-1.496-3.586-2.245-9.395-2.245-17.424v-25.301h-9.757
				v-20.185h9.757v-13.211L278.406,380.309z"/>
			<path fill="#1F539E" d="M383.221,450.488H330.14c0.479,4.429,1.628,7.723,3.449,9.89c2.558,3.114,5.896,4.674,10.017,4.674
				c2.601,0,5.074-0.679,7.416-2.03c1.43-0.857,2.968-2.37,4.617-4.538l26.086,2.507c-3.991,7.223-8.807,12.406-14.441,15.544
				c-5.637,3.138-13.725,4.707-24.265,4.707c-9.149,0-16.349-1.343-21.596-4.028c-5.246-2.687-9.593-6.955-13.042-12.802
				c-3.446-5.852-5.171-12.727-5.171-20.628c0-11.246,3.459-20.344,10.375-27.299c6.917-6.954,16.468-10.432,28.654-10.432
				c9.887,0,17.694,1.556,23.416,4.674c5.725,3.115,10.083,7.633,13.075,13.546c2.994,5.918,4.49,13.617,4.49,23.102V450.488z
				 M356.289,437.281c-0.521-5.328-1.896-9.145-4.13-11.449c-2.233-2.304-5.171-3.453-8.813-3.453
				c-4.207,0-7.568,1.738-10.082,5.216c-1.607,2.167-2.625,5.395-3.059,9.687H356.289z"/>
			<path fill="#1F539E" d="M469.105,479.615h-24.719v-11.651c-3.685,4.787-7.404,8.198-11.155,10.229
				c-3.75,2.035-8.358,3.049-13.823,3.049c-7.284,0-13-2.267-17.139-6.809c-4.142-4.537-6.213-11.524-6.213-20.962v-45.792h26.604
				v39.559c0,4.519,0.801,7.723,2.407,9.621c1.603,1.894,3.859,2.841,6.764,2.841c3.166,0,5.758-1.263,7.774-3.793
				c2.017-2.525,3.024-7.067,3.024-13.616v-34.611h26.475V479.615z"/>
		</g>
	</g>
	<g>
		<path fill="#FFFFFF" d="M167.174,97.141h34.405v17.021c4.957-7.099,9.958-12.151,15.005-15.153
			c5.047-3.002,11.137-4.503,18.271-4.503c7.676,0,13.753,1.646,18.225,4.941c4.474,3.293,8.13,8.199,10.971,14.714
			c5.786-7.613,11.061-12.792,15.824-15.538c4.764-2.745,10.639-4.118,17.628-4.118c10.312,0,18.356,3.716,24.143,11.146
			c5.786,7.431,8.679,19.052,8.679,34.864v73.241h-36.937v-66.434c0-5.271-0.844-9.187-2.527-11.75
			c-2.467-4.025-5.536-6.039-9.204-6.039c-4.333,0-7.819,1.905-10.465,5.71c-2.647,3.807-3.97,9.92-3.97,18.337v60.174H230.28
			V149.52c0-5.124-0.243-8.602-0.727-10.432c-0.788-2.927-2.151-5.289-4.088-7.083c-1.939-1.794-4.211-2.69-6.814-2.69
			c-4.241,0-7.723,1.94-10.448,5.82c-2.727,3.881-4.088,10.25-4.088,19.106v59.515h-36.94V97.141z"/>
	</g>
	<circle fill="#E2001A" cx="189.387" cy="53.636" r="25.832"/>
</g>
</svg>
