<?xml version="1.0" encoding="utf-8"?>
<!-- Generator: Adobe Illustrator 16.0.0, SVG Export Plug-In . SVG Version: 6.00 Build 0)  -->
<!DOCTYPE svg PUBLIC "-//W3C//DTD SVG 1.1//EN" "http://www.w3.org/Graphics/SVG/1.1/DTD/svg11.dtd">
<svg version="1.1" id="Calque_2" xmlns="http://www.w3.org/2000/svg" xmlns:xlink="http://www.w3.org/1999/xlink" x="0px" y="0px"
	 width="500px" height="500px" viewBox="0 0 500 500" enable-background="new 0 0 500 500" xml:space="preserve">
<g>
	<g>
		<path fill="#FFED00" d="M475,250.25c0,12.379-10.129,22.508-22.508,22.508H47.508C35.128,272.758,25,262.629,25,250.25v-0.5
			c0-12.379,10.128-22.507,22.508-22.507h404.984c12.379,0,22.508,10.128,22.508,22.507V250.25z"/>
	</g>
	<g>
		<path d="M39.885,234.818h10.092v29.387H39.885V234.818z"/>
		<path d="M56.624,256.026h9.67v8.179h-9.67V256.026z"/>
		<path d="M72.43,234.818h9.404l12.271,16.259v-16.259h9.493v29.387h-9.493L81.899,248.07v16.135h-9.47V234.818z"/>
		<path d="M109.709,256.026h9.669v8.179h-9.669V256.026z"/>
		<path d="M141.832,253.561v-6.113h15.561v12.529c-2.979,1.83-5.613,3.076-7.902,3.738c-2.29,0.661-5.006,0.992-8.147,0.992
			c-3.868,0-7.021-0.595-9.459-1.784c-2.438-1.189-4.328-2.961-5.668-5.313c-1.342-2.353-2.012-5.052-2.012-8.098
			c0-3.208,0.733-5.997,2.2-8.369c1.467-2.372,3.616-4.172,6.447-5.402c2.208-0.949,5.179-1.423,8.914-1.423
			c3.601,0,6.294,0.293,8.081,0.882c1.786,0.587,3.268,1.5,4.446,2.735c1.178,1.236,2.063,2.804,2.657,4.701l-9.715,1.563
			c-0.4-1.108-1.078-1.957-2.034-2.546c-0.956-0.587-2.175-0.881-3.656-0.881c-2.208,0-3.968,0.691-5.28,2.075
			c-1.312,1.383-1.967,3.571-1.967,6.565c0,3.18,0.663,5.452,1.989,6.815s3.175,2.044,5.546,2.044c1.126,0,2.201-0.146,3.224-0.44
			c1.022-0.294,2.193-0.795,3.512-1.504v-2.767H141.832z"/>
		<path d="M163.239,256.026h9.67v8.179h-9.67V256.026z"/>
	</g>
	<g>
		<path d="M199.4,234.284h24.661v6.462h-14.642v5.25h12.506v6.071h-12.506v12.287H199.4V234.284z"/>
		<path d="M229.83,234.284h9.996v30.07h-9.996V234.284z"/>
		<path d="M244.781,234.284h10.988l5.712,9.251l5.561-9.251h10.876l-10.046,14.564l10.994,15.506h-11.208l-6.375-9.661l-6.374,9.661
			h-11.141l11.134-15.671L244.781,234.284z"/>
		<path d="M301.903,259.391h-11.324l-1.573,4.964h-10.184l12.132-30.07h10.88l12.13,30.07h-10.445L301.903,259.391z
			 M299.835,252.889l-3.563-10.81l-3.525,10.81H299.835z"/>
		<path d="M311.762,234.284h30.32v7.426h-10.174v22.645h-9.975V241.71h-10.172V234.284z"/>
		<path d="M346.991,234.284h9.996v30.07h-9.996V234.284z"/>
		<path d="M362.89,249.34c0-4.909,1.467-8.731,4.403-11.465c2.936-2.736,7.024-4.103,12.265-4.103c5.372,0,9.512,1.344,12.418,4.03
			c2.906,2.688,4.36,6.452,4.36,11.292c0,3.515-0.636,6.396-1.905,8.646c-1.27,2.25-3.104,4-5.505,5.251
			c-2.399,1.252-5.391,1.877-8.973,1.877c-3.641,0-6.652-0.54-9.038-1.621c-2.386-1.079-4.319-2.788-5.802-5.128
			C363.631,255.78,362.89,252.854,362.89,249.34z M372.863,249.381c0,3.036,0.606,5.217,1.816,6.542
			c1.212,1.327,2.859,1.989,4.944,1.989c2.143,0,3.801-0.648,4.976-1.947c1.174-1.3,1.762-3.631,1.762-6.995
			c0-2.831-0.613-4.899-1.839-6.205s-2.888-1.959-4.986-1.959c-2.012,0-3.627,0.664-4.845,1.989
			C373.473,244.123,372.863,246.318,372.863,249.381z"/>
		<path d="M401.773,234.284h9.314l12.154,16.637v-16.637h9.401v30.07h-9.401l-12.089-16.51v16.51h-9.38V234.284z"/>
		<path d="M437.533,254.406l9.489-0.554c0.206,1.436,0.624,2.53,1.255,3.282c1.027,1.217,2.495,1.825,4.403,1.825
			c1.425,0,2.522-0.311,3.292-0.934c0.771-0.622,1.156-1.343,1.156-2.163c0-0.78-0.366-1.477-1.101-2.093
			c-0.734-0.615-2.437-1.196-5.108-1.743c-4.374-0.917-7.494-2.134-9.358-3.651c-1.879-1.518-2.818-3.452-2.818-5.804
			c0-1.546,0.481-3.005,1.442-4.379c0.962-1.375,2.407-2.455,4.338-3.241c1.931-0.786,4.576-1.18,7.938-1.18
			c4.125,0,7.271,0.715,9.436,2.144c2.165,1.429,3.453,3.702,3.864,6.82l-9.402,0.513c-0.25-1.354-0.774-2.338-1.574-2.954
			c-0.801-0.615-1.905-0.923-3.313-0.923c-1.16,0-2.033,0.229-2.62,0.687c-0.588,0.458-0.882,1.016-0.882,1.671
			c0,0.479,0.242,0.91,0.728,1.292c0.47,0.397,1.585,0.766,3.347,1.108c4.359,0.875,7.482,1.761,9.369,2.656
			c1.886,0.896,3.259,2.007,4.117,3.333s1.288,2.811,1.288,4.451c0,1.929-0.572,3.706-1.718,5.333
			c-1.145,1.628-2.745,2.861-4.8,3.702c-2.056,0.842-4.646,1.262-7.772,1.262c-5.49,0-9.292-0.984-11.406-2.953
			C439.008,259.944,437.812,257.442,437.533,254.406z"/>
	</g>
</g>
</svg>
