<?xml version="1.0" encoding="utf-8"?>
<!-- Generator: Adobe Illustrator 21.0.2, SVG Export Plug-In . SVG Version: 6.00 Build 0)  -->
<svg version="1.1" id="Calque_1" xmlns="http://www.w3.org/2000/svg" xmlns:xlink="http://www.w3.org/1999/xlink" x="0px" y="0px"
	 viewBox="0 0 500 88" style="enable-background:new 0 0 500 88;" xml:space="preserve">
<style type="text/css">
	.st0{fill:#FFED00;}
</style>
<path class="st0" d="M485.9,45.4c0,12.8-10.4,23.2-23.2,23.2H40.3c-12.8,0-23.2-10.4-23.2-23.2l0,0c0-12.8,10.4-23.2,23.2-23.2
	h422.4C475.5,22.2,485.9,32.6,485.9,45.4L485.9,45.4z"/>
<path d="M31.7,60.1V29.6h6.8v30.5H31.7z"/>
<path d="M69.5,60.1V29.6h6.6L89.9,50V29.6h6.3v30.5h-6.8L75.8,40.2v19.9H69.5z"/>
<path d="M161.8,60.1v-7h7.7v7H161.8z"/>
<path d="M105.5,60.1v-7h7.7v7H105.5z"/>
<path d="M49.6,60.1v-7h7.7v7H49.6z"/>
<path d="M138.4,48.9v-5.1h14.1V56c-1.4,1.2-3.4,2.4-6,3.3c-2.6,1-5.2,1.4-7.9,1.4c-3.4,0-6.4-0.7-8.9-2s-4.4-3.3-5.7-5.7
	c-1.3-2.5-1.9-5.2-1.9-8.1c0-3.2,0.7-6,2.1-8.5c1.4-2.5,3.5-4.4,6.2-5.7c2.1-1,4.7-1.5,7.8-1.5c4,0,7.2,0.8,9.4,2.4
	c2.3,1.6,3.7,3.8,4.4,6.6l-6.5,1.1c-0.5-1.5-1.3-2.7-2.6-3.6s-2.8-1.3-4.7-1.3c-2.9,0-5.1,0.9-6.8,2.6s-2.5,4.2-2.5,7.6
	c0,3.6,0.9,6.3,2.6,8.2c1.7,1.8,4,2.7,6.7,2.7c1.4,0,2.7-0.3,4.1-0.8c1.4-0.5,2.6-1.1,3.6-1.8V49L138.4,48.9L138.4,48.9z"/>
<path d="M198.4,60.1V29.6h23.1v5.2h-16.3V42h14v5.2h-14v13h-6.8V60.1z"/>
<path d="M230.1,60.1V29.6h6.8v30.5H230.1z"/>
<path d="M245.6,60.1l11.5-15.9l-10.4-14.6h7.9l6.7,9.8l6.6-9.8h7.9l-10.5,14.8l11.5,15.7h-8.2l-7.5-10.6l-7.5,10.6H245.6L245.6,60.1
	z"/>
<path d="M314.7,60.1h-7.4l-2.9-6.9h-13.5l-2.8,6.9h-7.2L294,29.6h7.2L314.7,60.1z M302.2,48l-4.6-11.3L293.1,48H302.2z"/>
<path d="M326.3,60.1V34.7h-10v-5.2H343v5.2h-10v25.4H326.3z"/>
<path d="M353,60.1V29.6h6.8v30.5H353z"/>
<path d="M369.5,45c0-3.1,0.5-5.7,1.5-7.8c0.8-1.6,1.8-2.9,3.1-4.2c1.3-1.2,2.8-2.2,4.3-2.7c2.1-0.8,4.5-1.2,7.3-1.2
	c5,0,8.9,1.4,11.9,4.2c3,2.8,4.5,6.7,4.5,11.6s-1.5,8.8-4.4,11.6c-3,2.8-6.9,4.2-11.8,4.2c-5,0-9-1.4-11.9-4.2
	C371,53.7,369.5,49.9,369.5,45z M377.2,44.8c0,3.2,0.8,5.7,2.5,7.3c1.6,1.7,3.7,2.5,6.2,2.5s4.6-0.8,6.2-2.5s2.4-4.1,2.4-7.4
	s-0.8-5.7-2.4-7.3c-1.6-1.6-3.7-2.4-6.3-2.4c-2.6,0-4.7,0.8-6.3,2.4C378,39.1,377.2,41.6,377.2,44.8z"/>
<path d="M410.4,60.1V29.6h6.6L430.8,50V29.6h6.3v30.5h-6.8l-13.6-19.9v19.9H410.4z"/>
<path d="M447.6,50.2l6.6-0.6c0.4,2,1.2,3.5,2.4,4.4c1.2,0.9,2.9,1.4,4.9,1.4c2.2,0,3.8-0.4,4.9-1.3s1.7-1.8,1.7-2.9
	c0-0.7-0.2-1.3-0.7-1.8s-1.3-0.9-2.4-1.3c-0.8-0.2-2.6-0.7-5.4-1.3c-3.6-0.8-6.2-1.8-7.7-3c-2.1-1.7-3.1-3.7-3.1-6.1
	c0-1.6,0.5-3,1.5-4.4s2.4-2.4,4.2-3.1s4-1.1,6.6-1.1c4.2,0,7.4,0.8,9.5,2.5s3.3,3.9,3.4,6.7l-6.8,0.3c-0.3-1.6-0.9-2.7-1.9-3.4
	c-1-0.7-2.4-1-4.3-1c-2,0-3.5,0.4-4.6,1.1c-0.7,0.5-1.1,1.1-1.1,1.9c0,0.7,0.3,1.3,1,1.9c0.9,0.7,2.9,1.3,6.2,2s5.8,1.4,7.3,2.2
	c1.6,0.8,2.8,1.8,3.7,3.1c0.9,1.3,1.3,2.9,1.3,4.9c0,1.8-0.5,3.4-1.6,4.9c-1.1,1.5-2.6,2.7-4.5,3.4c-2,0.7-4.4,1.1-7.3,1.1
	c-4.3,0-7.5-0.9-9.8-2.7C449.4,56.2,448,53.6,447.6,50.2z"/>
</svg>
