<?xml version="1.0" encoding="utf-8"?>
<!-- Generator: Adobe Illustrator 19.1.0, SVG Export Plug-In . SVG Version: 6.00 Build 0)  -->
<svg version="1.1" id="Calque_1" xmlns="http://www.w3.org/2000/svg" xmlns:xlink="http://www.w3.org/1999/xlink" x="0px" y="0px"
	 viewBox="0 0 500 500" style="enable-background:new 0 0 500 500;" xml:space="preserve">
<style type="text/css">
	.st0{fill:#172983;}
	.st1{fill:#FFFFFF;}
</style>
<g id="Calque_1_1_">
</g>
<g id="Calque_2">
	<g>
		<rect x="25" y="82.7" class="st0" width="450" height="334.6"/>
		<polygon class="st1" points="250.6,98.3 53.9,392.1 446.1,392.1 		"/>
		<g>
			<g>
				<path class="st0" d="M240,127.2h15.8v48.2H240V127.2z"/>
				<path class="st0" d="M209.8,195.6h14.7l19.2,26.7v-26.7h14.8v48.2h-14.8l-19.1-26.5v26.5h-14.8L209.8,195.6L209.8,195.6z"/>
				<path class="st0" d="M269.6,195.6h15.8v48.2h-15.8V195.6z"/>
				<path class="st0" d="M158.7,263.9h47.8v11.9h-16.1v36.3h-15.7v-36.3h-16.1V263.9z"/>
				<path class="st0" d="M214.3,263.9H230v48.2h-15.8V263.9z"/>
				<path class="st0" d="M272.6,304.2h-17.9l-2.5,8h-16.1l19.1-48.2h17.2l19.1,48.2h-16.5L272.6,304.2z M269.4,293.8l-5.6-17.3
					l-5.6,17.3H269.4z"/>
				<path class="st0" d="M296.7,263.9h15.7v36.4H337v11.9h-40.3L296.7,263.9L296.7,263.9z"/>
			</g>
			<g>
				<path class="st0" d="M105.1,365.9l13.4-0.8c0.3,2.2,0.9,3.8,1.8,5c1.4,1.8,3.5,2.8,6.2,2.8c2,0,3.6-0.5,4.7-1.4
					c1.1-0.9,1.6-2,1.6-3.3c0-1.2-0.5-2.2-1.6-3.2c-1-0.9-3.4-1.8-7.2-2.6c-6.2-1.4-10.6-3.2-13.2-5.5c-2.7-2.3-4-5.2-4-8.8
					c0-2.3,0.7-4.6,2-6.7c1.4-2.1,3.4-3.7,6.1-4.9c2.7-1.2,6.5-1.8,11.2-1.8c5.8,0,10.3,1.1,13.3,3.3c3.1,2.2,4.9,5.6,5.5,10.4
					l-13.3,0.8c-0.4-2.1-1.1-3.5-2.2-4.5c-1.1-0.9-2.7-1.4-4.7-1.4c-1.6,0-2.9,0.3-3.7,1c-0.8,0.7-1.2,1.5-1.2,2.5
					c0,0.7,0.3,1.4,1,2c0.7,0.6,2.2,1.2,4.7,1.7c6.2,1.3,10.6,2.7,13.3,4c2.7,1.4,4.6,3,5.8,5.1c1.2,2,1.8,4.3,1.8,6.8
					c0,2.9-0.8,5.6-2.4,8.1c-1.6,2.5-3.9,4.3-6.8,5.6c-2.9,1.3-6.6,1.9-11,1.9c-7.8,0-13.1-1.5-16.1-4.5
					C107.2,374.3,105.5,370.5,105.1,365.9z"/>
				<path class="st0" d="M189.5,367.6h-25.4c0.2,2,0.8,3.6,1.7,4.5c1.2,1.4,2.8,2.1,4.8,2.1c1.2,0,2.4-0.3,3.5-0.9
					c0.7-0.4,1.4-1.1,2.2-2.1l12.5,1.2c-1.9,3.3-4.2,5.7-6.9,7.1c-2.7,1.4-6.6,2.2-11.6,2.2c-4.4,0-7.8-0.6-10.3-1.9
					c-2.5-1.2-4.6-3.2-6.2-5.9c-1.7-2.7-2.5-5.9-2.5-9.5c0-5.2,1.7-9.4,5-12.5s7.9-4.8,13.7-4.8c4.7,0,8.5,0.7,11.2,2.1
					c2.7,1.4,4.8,3.5,6.3,6.2s2.1,6.3,2.1,10.6L189.5,367.6L189.5,367.6z M176.6,361.5c-0.2-2.4-0.9-4.2-2-5.3
					c-1.1-1.1-2.5-1.6-4.2-1.6c-2,0-3.6,0.8-4.8,2.4c-0.8,1-1.2,2.5-1.5,4.5L176.6,361.5L176.6,361.5z M169.8,334.6h10.9l-10.1,9.3
					h-6.1L169.8,334.6z"/>
				<path class="st0" d="M220,368.1l12.1,1.4c-0.7,2.5-1.8,4.7-3.3,6.5c-1.5,1.8-3.4,3.3-5.8,4.3c-2.4,1-5.4,1.5-9,1.5
					c-3.5,0-6.4-0.3-8.8-1c-2.3-0.7-4.3-1.7-6-3.2c-1.7-1.5-3-3.2-4-5.1c-1-2-1.4-4.6-1.4-7.8c0-3.4,0.6-6.2,1.7-8.5
					c0.9-1.7,2-3.1,3.5-4.5c1.5-1.3,3-2.3,4.5-2.9c2.5-1,5.6-1.5,9.5-1.5c5.4,0,9.5,1,12.3,2.9c2.8,1.9,4.8,4.8,6,8.5l-11.9,1.6
					c-0.4-1.4-1.1-2.5-2-3.2s-2.3-1.1-4-1.1c-2.1,0-3.8,0.8-5.1,2.3c-1.3,1.5-1.9,3.8-1.9,6.8c0,2.7,0.6,4.8,1.9,6.2
					c1.3,1.4,2.9,2.1,4.9,2.1c1.7,0,3.1-0.4,4.2-1.3C218.5,371.1,219.4,369.8,220,368.1z"/>
				<path class="st0" d="M272.7,381h-11.8v-5.4c-1.8,2.2-3.5,3.8-5.3,4.7c-1.8,0.9-4,1.4-6.6,1.4c-3.5,0-6.2-1-8.2-3.1
					c-2-2.1-3-5.3-3-9.6v-21h12.7v18.2c0,2.1,0.4,3.5,1.2,4.4c0.8,0.9,1.8,1.3,3.2,1.3c1.5,0,2.8-0.6,3.7-1.7c1-1.2,1.4-3.2,1.4-6.3
					v-15.9h12.7L272.7,381L272.7,381z"/>
				<path class="st0" d="M280.5,347.9h11.9v5.4c1.1-2.3,2.3-4,3.5-4.8c1.2-0.9,2.7-1.3,4.5-1.3c1.9,0,3.9,0.6,6.1,1.7l-3.9,9
					c-1.5-0.6-2.7-0.9-3.5-0.9c-1.7,0-3,0.7-3.9,2.1c-1.3,1.9-2,5.5-2,10.8V381h-12.7L280.5,347.9L280.5,347.9z"/>
				<path class="st0" d="M309.1,335.4h12.7v8.6h-12.7V335.4z M309.1,347.9h12.7V381h-12.7V347.9z"/>
				<path class="st0" d="M345.2,335.4v12.6h7v9.3h-7v11.7c0,1.4,0.1,2.3,0.4,2.8c0.4,0.7,1.1,1.1,2.2,1.1c0.9,0,2.2-0.3,3.9-0.8
					l0.9,8.7c-3.1,0.7-6.1,1-8.8,1c-3.2,0-5.5-0.4-7-1.2c-1.5-0.8-2.6-2-3.3-3.7c-0.7-1.6-1.1-4.3-1.1-8v-11.6h-4.7v-9.3h4.7v-6.1
					L345.2,335.4z"/>
				<path class="st0" d="M394.9,367.6h-25.4c0.2,2,0.8,3.6,1.7,4.5c1.2,1.4,2.8,2.1,4.8,2.1c1.2,0,2.4-0.3,3.5-0.9
					c0.7-0.4,1.4-1.1,2.2-2.1l12.5,1.2c-1.9,3.3-4.2,5.7-6.9,7.1c-2.7,1.4-6.6,2.2-11.6,2.2c-4.4,0-7.8-0.6-10.3-1.9
					c-2.5-1.2-4.6-3.2-6.2-5.9c-1.7-2.7-2.5-5.9-2.5-9.5c0-5.2,1.7-9.4,5-12.5s7.9-4.8,13.7-4.8c4.7,0,8.5,0.7,11.2,2.1
					c2.7,1.4,4.8,3.5,6.3,6.2s2.1,6.3,2.1,10.6L394.9,367.6L394.9,367.6z M382,361.5c-0.2-2.4-0.9-4.2-2-5.3
					c-1.1-1.1-2.5-1.6-4.2-1.6c-2,0-3.6,0.8-4.8,2.4c-0.8,1-1.3,2.5-1.5,4.5L382,361.5L382,361.5z M375.3,334.6h10.9l-10.1,9.3h-6.1
					L375.3,334.6z"/>
			</g>
		</g>
	</g>
</g>
</svg>
