<?xml version="1.0" encoding="utf-8"?>
<!-- Generator: Adobe Illustrator 21.0.2, SVG Export Plug-In . SVG Version: 6.00 Build 0)  -->
<svg version="1.1" id="Calque_1" xmlns="http://www.w3.org/2000/svg" xmlns:xlink="http://www.w3.org/1999/xlink" x="0px" y="0px"
	 viewBox="0 0 500 300" style="enable-background:new 0 0 500 300;" xml:space="preserve">
<style type="text/css">
	.st0{fill:#143486;}
	.st1{fill:#813637;}
	.st2{fill:#FFFFFF;}
</style>
<path class="st0" d="M18.4,15.5v171.2v100.6h466.1V186.7V15.5H18.4z M25,186.7V22.1h453v164.6H25z"/>
<path class="st1" d="M45.8,65.5l2.4,0.7c1,0.3,1.4,0.6,1.4,0.6c0,0.1,0.1,0.3,0.1,0.8v78.1c0,0.5-0.1,0.8,0,0.8
	c-0.1,0.1-0.5,0.4-1.5,0.7l-2.4,0.7v1.6h34.3v-1.6l-2.5-0.7c-1-0.3-1.3-0.6-1.3-0.6s-0.1-0.3-0.1-0.9V67.6c0-0.5,0.1-0.8,0.1-0.8
	c0.1-0.1,0.4-0.3,1.4-0.6l2.5-0.7v-2.7H45.9v2.7H45.8z"/>
<path class="st1" d="M183.6,146.4c0-0.1-0.1-0.3-0.1-0.8V66.9c0,0,0.4-0.4,1.6-0.7l2.5-0.7v-2.7h-32.3v2.7l2.5,0.7
	c1.1,0.3,1.5,0.6,1.6,0.6c0,0.1,0.1,0.3,0.1,0.7v46l-42.7-46.8c-0.2-0.2-0.4-0.4-0.5-0.6l2.4-0.7v-2.7H82.3v2.7l2.5,0.7
	c1.1,0.3,1.5,0.6,1.6,0.6c0,0.1,0.1,0.3,0.1,0.7v78.1c0,0.5-0.1,0.7,0,0.7c-0.1,0.1-0.5,0.4-1.6,0.7l-2.5,0.7v1.6h32.3v-1.6
	l-2.4-0.7c-1.1-0.3-1.5-0.6-1.6-0.6l0,0c0-0.1-0.1-0.3-0.1-0.8V98.1l43.5,47.3c0.6,0.7,1.1,1.2,1.4,1.6l-2,0.4v1.8h34.2v-1.6
	l-2.5-0.7C184,146.8,183.6,146.4,183.6,146.4z"/>
<path class="st1" d="M288.1,107.1c0-13.9-4.9-25.5-14.6-34.3c-9.1-8.4-21.5-12.7-36.9-12.7c-20.5,0.3-35.4,7.6-44.2,21.8
	c-4.6,7.4-6.9,15.7-6.9,24.7c0,6.1,1.1,12,3.4,17.5c2.5,6.3,6.3,11.8,11.2,16.3c9.1,8.4,21.4,12.7,36.7,12.7
	c20.4,0,35.3-7.3,44.3-21.8C285.8,123.8,288.1,115.7,288.1,107.1z M236.9,132.3c-7.3,0-13.1-2-17.8-6.3c-5.6-5-8.3-11.3-8.3-19.5
	c0-8.1,2.7-14.5,8.3-19.5c4.7-4.2,10.5-6.2,17.7-6.2c7.3,0.1,13.2,2.1,17.9,6.3c5.6,4.8,8.3,11.3,8.3,19.8c0,3.4-0.7,6.8-2,10
	c-1.5,3.6-3.6,6.7-6.4,9.1C249.9,130.3,244.1,132.3,236.9,132.3z"/>
<path class="st1" d="M465.7,147c-1.1-0.2-1.9-0.6-2.4-1.2c-0.4-0.5-1.3-1.7-2.9-5.2l-31.8-71.1c-0.7-1.4-0.8-2.3-0.9-2.6
	c0,0,0.3-0.3,1.3-0.6l2.4-0.8v-2.6h-36.2v2.5l2.2,0.8c0.6,0.2,1.3,0.6,1.3,1s-0.1,1.5-1.1,3.8l-30.7,70.9c-0.4,0.8-0.7,1.5-0.9,2
	c-0.9-1.1-2.1-2.7-3.9-5.3l-23.7-33.5l22.3-30.5c4.6-6.2,5.7-7.3,6-7.6c0,0,0.5-0.4,2.5-0.7l3-0.3v-3.1H333v3l2.8,0.5
	c0.6,0.1,1,0.2,1.3,0.4c-0.3,0.5-0.8,1.6-2,3.3l-10.8,14.8l-10.4-14.8c-1.5-2.1-1.9-3.1-2-3.2c0.1-0.1,0.4-0.3,1.2-0.6l2.4-0.7v-2.7
	h-40.2l0.3,3.2l2.9,0.3c2.2,0.2,2.9,0.8,3,0.9c0.3,0.2,1.5,1.5,5.5,7.2l21.9,31.3L285,138.6c-4.1,5.6-5.4,7.1-5.8,7.4
	c-0.4,0.3-1.1,0.8-2.6,0.9l-2.9,0.4v2.1h38.6v-2.1l-3-0.3c-0.5,0-0.9-0.1-1-0.1c0.2-0.4,0.6-1.3,1.7-2.8l13.1-17.9l13,18.6
	c0.7,1,1.1,1.7,1.3,2.1c-0.2,0.1-0.4,0.2-0.8,0.2l-2.6,0.6v1.8h25.9h13.7H394v-1.6l-2.5-0.7c-1.1-0.3-1.5-0.6-1.6-0.6
	c0-0.2,0.1-1,0.8-2.6l4.7-10.9h33.8L434,144c0.8,1.9,0.9,2.6,0.9,2.7c0,0-0.3,0.3-1.3,0.5l-2.8,0.5v1.9h37.3v-1.8L465.7,147z
	 M412.6,92.5L421,113h-17L412.6,92.5z"/>
<path class="st2" d="M43.6,254.1v-37.4c0-0.9-0.1-1.6-0.4-2s-0.9-0.7-1.7-0.9v-1.1h9.4v1.1c-0.8,0.2-1.4,0.5-1.7,0.9
	c-0.3,0.4-0.4,1-0.4,2v37.4c0,0.9,0.1,1.6,0.4,2s0.8,0.7,1.7,0.9v1.1h-9.4V257c0.9-0.2,1.4-0.5,1.7-0.9
	C43.4,255.7,43.6,255,43.6,254.1z"/>
<path class="st2" d="M73.4,218.6v35.5c0,0.9,0.1,1.6,0.4,1.9c0.3,0.4,0.8,0.7,1.7,0.9v1.1h-9v-1.1c0.9-0.2,1.4-0.5,1.7-0.9
	c0.3-0.4,0.4-1,0.4-2v-37.4c0-0.9-0.1-1.6-0.4-2s-0.8-0.7-1.7-0.9v-1.1h13v1.1c-1,0.4-1.6,0.8-1.6,1.5c0,0.4,0.5,1.3,1.6,2.5
	l27.2,31.8v-33c0-0.9-0.1-1.6-0.4-2c-0.3-0.4-0.8-0.7-1.7-0.9v-1.1h9v1.1c-0.8,0.2-1.4,0.5-1.7,0.9s-0.4,1-0.4,2v37.6
	c0,0.9,0.1,1.6,0.4,2c0.3,0.4,0.8,0.7,1.7,0.9v1.1h-10.4V257c1-0.3,1.5-0.7,1.5-1.4c0-0.5-0.5-1.3-1.4-2.4L73.4,218.6z"/>
<path class="st2" d="M130.2,254.6v-38.3c0-0.7-0.2-1.2-0.5-1.5c-0.3-0.4-0.9-0.6-1.7-0.9v-1.1h23.8c5.4,0,9.5,0.8,12.4,2.2
	c3.6,1.9,6.4,4.8,8.3,8.7c1.7,3.4,2.5,7.3,2.5,11.7c0,5.1-1.1,9.6-3.3,13.3c-2,3.3-4.6,5.7-7.6,7.1c-3.1,1.4-7.1,2.2-12.2,2.2h-23.8
	v-1.1c0.8-0.2,1.3-0.5,1.7-0.9C130.1,255.7,130.2,255.2,130.2,254.6z M135.4,253.7h16.3c4.8,0,8.3-0.7,10.7-2.2
	c2.7-1.8,4.7-4.5,6-8.1c0.8-2.4,1.3-5.1,1.3-8c0-5.3-1.3-9.6-4-13c-1.5-1.9-3.3-3.2-5.4-4s-5-1.2-8.5-1.2h-16.3v36.5H135.4z"/>
<path class="st2" d="M192,216.7v25c0,3,0.2,5,0.5,6.2s1,2.2,1.9,3.1c2.4,2.1,6.8,3.2,13.2,3.2c7,0,11.6-1.2,13.8-3.7
	c0.7-0.8,1.2-1.8,1.5-3c0.2-1.2,0.4-3.1,0.4-5.8v-25c0-0.9-0.1-1.5-0.4-1.9s-0.8-0.7-1.7-0.9v-1.1h9v1.1c-0.8,0.2-1.4,0.5-1.7,0.9
	c-0.3,0.4-0.4,1-0.4,2v26c0,3.2-0.3,5.6-0.9,7.3c-1.2,3-3.3,5.2-6.5,6.6c-3.2,1.4-7.5,2.1-13.2,2.1c-8.4,0-14.1-1.6-17.2-4.9
	c-1.3-1.3-2.1-2.8-2.6-4.5s-0.7-3.9-0.7-6.7v-26c0-0.9-0.1-1.6-0.4-2c-0.3-0.4-0.9-0.7-1.7-0.9v-1.1h9.4v1.1
	c-0.8,0.2-1.4,0.5-1.7,0.9C192.1,215.2,192,215.8,192,216.7z"/>
<path class="st2" d="M281.5,215.6l-4.7,8.5l-0.9-0.5c0.4-1,0.6-1.6,0.6-1.9c0-0.7-0.8-1.4-2.4-2.2c-4.4-2.1-9.1-3.1-14.1-3.1
	c-4.1,0-7.6,0.8-10.7,2.3c-1.5,0.7-2.6,1.7-3.5,2.9s-1.3,2.4-1.3,3.8c0,1.1,0.3,2.1,1,3.1s1.5,1.7,2.6,2.2c1.2,0.5,2.6,0.9,4.2,1.1
	c1.6,0.2,4.3,0.4,7.9,0.5c5.1,0.2,8.7,0.4,10.9,0.7c2.2,0.3,4,0.9,5.4,1.7c3.7,2.1,5.6,5.3,5.6,9.6c0,4.1-1.7,7.4-5.1,10
	c-3.8,2.9-9,4.4-15.6,4.4c-3.8,0-7.1-0.4-10-1.2c-2.8-0.8-6.2-2.2-10.2-4.3c-1.1-0.5-1.7-0.8-2-0.8c-0.3,0-0.8,0.4-1.6,1.2l-0.9-0.6
	l5-8.3l0.9,0.5c-0.4,0.9-0.6,1.5-0.6,1.8c0,0.7,1.4,1.8,4.2,3.3c2.5,1.3,5,2.3,7.3,2.9c2.3,0.6,4.9,0.9,7.7,0.9
	c5.6,0,9.8-1.2,12.7-3.7c1.9-1.6,2.9-3.6,2.9-5.8c0-3-1.6-5-4.9-6.1c-1.1-0.4-2.2-0.6-3.3-0.7s-4.4-0.2-9.7-0.4
	c-3.8-0.2-6.8-0.4-8.9-0.9c-2.2-0.4-4.1-1.1-5.7-2.1c-1.6-0.9-2.8-2.1-3.7-3.7s-1.4-3.3-1.4-5.2c0-3.2,1.2-5.9,3.6-8.2
	c1.8-1.7,4.2-3,7.3-4s6.5-1.4,10.2-1.4c3,0,5.8,0.3,8.4,0.9c2.6,0.6,5.5,1.6,8.8,3.1c0.7,0.3,1.2,0.5,1.4,0.5c0.4,0,0.9-0.4,1.6-1.3
	L281.5,215.6z"/>
<path class="st2" d="M312.9,217.1v37c0,0.9,0.1,1.6,0.4,1.9c0.3,0.4,0.9,0.7,1.7,0.9v1.1h-9.4v-1.1c0.8-0.2,1.4-0.5,1.7-0.9
	c0.3-0.4,0.4-1,0.4-2v-37h-15.3c-0.9,0-1.6,0.1-2,0.4c-0.4,0.3-0.7,0.8-0.9,1.7h-1.1v-8.5h1.1c0.2,0.9,0.5,1.4,0.9,1.7
	c0.4,0.3,1,0.4,2,0.4h35.8c0.9,0,1.6-0.1,2-0.4s0.7-0.8,0.9-1.7h1.1v8.5H331c-0.2-0.9-0.5-1.4-0.9-1.7c-0.4-0.3-1-0.4-2-0.4
	L312.9,217.1L312.9,217.1z"/>
<path class="st2" d="M348.8,237.7v16.4c0,0.9,0.1,1.5,0.4,1.9c0.3,0.4,0.8,0.7,1.7,0.9v1.1h-9.4v-1.1c0.8-0.2,1.4-0.5,1.7-0.9
	c0.3-0.4,0.4-1,0.4-2v-37.4c0-0.9-0.1-1.6-0.4-2c-0.3-0.4-0.8-0.7-1.7-0.9v-1.1h24.8c3.4,0,6.1,0.2,8.1,0.6s3.7,1,5.1,1.9
	c1.5,0.9,2.7,2.2,3.6,3.8c1.1,1.8,1.6,3.9,1.6,6.2c0,3.4-1.1,6.3-3.4,8.4c-2.3,2.2-5.4,3.4-9.4,3.7l11.5,17.8c0.7,1.1,1.7,1.7,3,1.7
	v1.1h-10.5v-1.1c1.1-0.2,1.6-0.5,1.6-0.9c0-0.2-0.4-0.9-1.2-2.1L366,237.5h-17.2V237.7z M348.8,233.4h18.3c2.5,0,4.4-0.1,5.6-0.3
	c1.3-0.2,2.4-0.6,3.4-1.1c2.3-1.3,3.4-3.5,3.4-6.7c0-3.1-1.2-5.4-3.5-6.7c-1-0.6-2.2-1-3.5-1.2s-3.2-0.3-5.9-0.3h-17.8V233.4z"/>
<path class="st2" d="M401,254.1v-37.4c0-0.9-0.1-1.6-0.4-2c-0.3-0.4-0.8-0.7-1.7-0.9v-1.1h9.4v1.1c-0.8,0.2-1.4,0.5-1.7,0.9
	c-0.3,0.4-0.4,1-0.4,2v37.4c0,0.9,0.1,1.6,0.4,2c0.3,0.4,0.8,0.7,1.7,0.9v1.1h-9.4V257c0.9-0.2,1.4-0.5,1.7-0.9
	C400.9,255.7,401,255,401,254.1z"/>
<path class="st2" d="M429.3,236.9v16.8h29c0.9,0,1.6-0.1,2-0.4c0.4-0.3,0.7-0.8,0.9-1.7h1.1v8.5h-1.1c-0.2-0.8-0.5-1.4-0.9-1.7
	c-0.4-0.3-1-0.4-2-0.4H422v-1.1c0.9-0.2,1.4-0.5,1.7-0.9c0.3-0.4,0.4-1,0.4-2v-37.4c0-0.9-0.1-1.6-0.4-2c-0.3-0.4-0.8-0.7-1.7-0.9
	v-1.1h35.9c0.9,0,1.6-0.1,2-0.4s0.7-0.8,0.9-1.7h1.1v8.5h-1.1c-0.2-0.8-0.5-1.4-0.9-1.7c-0.4-0.3-1-0.4-2-0.4h-28.6v15.5H448
	c0.9,0,1.6-0.1,2-0.4s0.7-0.8,0.9-1.7h1.1v8.5h-1.1c-0.2-0.8-0.5-1.4-0.9-1.7c-0.4-0.3-1-0.4-2-0.4L429.3,236.9L429.3,236.9z"/>
</svg>
