<?xml version="1.0" encoding="utf-8"?>
<!-- Generator: Adobe Illustrator 15.0.0, SVG Export Plug-In . SVG Version: 6.00 Build 0)  -->
<!DOCTYPE svg PUBLIC "-//W3C//DTD SVG 1.1//EN" "http://www.w3.org/Graphics/SVG/1.1/DTD/svg11.dtd">
<svg version="1.1" id="Calque_1" xmlns="http://www.w3.org/2000/svg" xmlns:xlink="http://www.w3.org/1999/xlink" x="0px" y="0px"
	 width="500px" height="500px" viewBox="0 0 500 500" enable-background="new 0 0 500 500" xml:space="preserve">
<g>
	<path fill="#143486" d="M18.366,115.542v171.179v100.604H484.5V286.721V115.542H18.366z M24.95,286.721V122.125h452.966v164.596
		H24.95z"/>
	<g>
		<path fill="#813637" d="M45.795,165.499l2.417,0.743c0.998,0.306,1.383,0.589,1.415,0.589c0.025,0.067,0.083,0.292,0.083,0.769
			v78.076c0,0.499-0.058,0.75-0.044,0.775c-0.104,0.083-0.495,0.356-1.454,0.652l-2.417,0.743v1.569H80.09v-1.627l-2.469-0.704
			c-0.983-0.277-1.324-0.556-1.344-0.556c-0.02-0.045-0.097-0.283-0.097-0.853v-78.076c0-0.518,0.064-0.75,0.052-0.766
			c0.077-0.058,0.431-0.312,1.363-0.566l2.495-0.691v-2.713H45.795V165.499z"/>
		<path fill="#813637" d="M183.554,246.459c-0.026-0.064-0.083-0.292-0.083-0.785l0.006-78.697c0.006-0.004,0.373-0.354,1.646-0.727
			l2.456-0.717v-2.671h-32.315v2.671l2.456,0.717c1.125,0.332,1.543,0.64,1.582,0.64c0.013,0.061,0.071,0.267,0.071,0.708v45.983
			l-42.699-46.752c-0.211-0.229-0.372-0.425-0.488-0.582l2.431-0.653v-2.732H82.263v2.671l2.45,0.717
			c1.124,0.332,1.549,0.64,1.581,0.64c0.019,0.061,0.071,0.267,0.071,0.708v78.076c0,0.46-0.052,0.692-0.039,0.717
			c-0.109,0.087-0.54,0.383-1.613,0.698l-2.45,0.72v1.604h32.308v-1.604l-2.45-0.72c-1.112-0.325-1.53-0.63-1.568-0.63v0.004
			c-0.025-0.068-0.083-0.299-0.083-0.789v-47.375l43.482,47.283c0.625,0.665,1.081,1.199,1.414,1.614l-1.954,0.44v1.778h34.166
			v-1.604l-2.456-0.72C184.003,246.765,183.593,246.459,183.554,246.459z"/>
		<path fill="#813637" d="M288.111,207.14c0-13.946-4.906-25.497-14.576-34.328c-9.11-8.403-21.507-12.667-36.892-12.667
			c-20.516,0.257-35.369,7.59-44.164,21.793c-4.584,7.423-6.913,15.717-6.913,24.651c0,6.102,1.125,12.004,3.356,17.549
			c2.54,6.301,6.32,11.782,11.22,16.286c9.104,8.403,21.449,12.667,36.661,12.667c20.375,0,35.292-7.349,44.326-21.841
			C285.763,223.828,288.111,215.717,288.111,207.14z M236.868,232.328c-7.267,0-13.097-2.045-17.823-6.253
			c-5.594-4.967-8.313-11.329-8.313-19.456c0-8.124,2.719-14.489,8.319-19.458c4.713-4.202,10.5-6.247,17.675-6.25
			c7.292,0.081,13.155,2.131,17.939,6.285c5.573,4.796,8.28,11.271,8.28,19.791c0,3.423-0.655,6.789-1.953,9.985
			c-1.474,3.591-3.62,6.657-6.38,9.117C249.932,230.286,244.133,232.328,236.868,232.328z"/>
		<path fill="#813637" d="M465.656,247.035c-1.073-0.229-1.858-0.627-2.411-1.225c-0.418-0.45-1.344-1.723-2.899-5.192
			l-31.801-71.101c-0.663-1.417-0.798-2.301-0.868-2.636c0.006-0.004,0.264-0.325,1.286-0.65l2.385-0.758v-2.61h-36.159v2.463
			l2.218,0.848c0.604,0.231,1.324,0.598,1.324,1.019c0,0.36-0.108,1.454-1.145,3.833l-30.694,70.886
			c-0.353,0.842-0.656,1.491-0.933,2.035c-0.866-1.058-2.102-2.681-3.934-5.295l-23.578-33.549l22.298-30.528
			c4.61-6.172,5.735-7.342,5.979-7.554c0-0.007,0.528-0.444,2.456-0.666l2.951-0.341v-3.15h-39.155v2.977l2.777,0.485
			c0.616,0.112,1.016,0.245,1.267,0.353c-0.251,0.55-0.811,1.585-2.032,3.299l-10.801,14.843l-10.391-14.779
			c-1.492-2.137-1.865-3.111-1.954-3.208c0.083-0.081,0.404-0.34,1.228-0.585l2.442-0.72v-2.665h-40.164l0.271,3.202l2.893,0.292
			c2.212,0.225,2.919,0.768,3.048,0.877c0.276,0.244,1.485,1.485,5.465,7.25l21.893,31.312l-23.879,32.822
			c-4.057,5.642-5.395,7.069-5.787,7.426c-0.36,0.332-1.112,0.762-2.63,0.945l-2.932,0.357v2.067h38.635v-2.131l-2.996-0.299
			c-0.521-0.048-0.854-0.135-1.015-0.135c0.186-0.418,0.636-1.289,1.69-2.806l13.108-17.945l13.015,18.614
			c0.688,0.993,1.08,1.668,1.292,2.099c-0.187,0.074-0.443,0.151-0.784,0.231l-2.648,0.585v1.788h25.936h13.741h20.438v-1.633
			l-2.481-0.697c-1.112-0.315-1.53-0.647-1.607-0.647c0.02-0.195,0.122-0.967,0.842-2.636l4.72-10.898h33.781l4.835,10.924
			c0.843,1.9,0.887,2.584,0.918,2.707c-0.006,0-0.295,0.293-1.324,0.485l-2.752,0.508v1.887h37.299v-1.816L465.656,247.035z
			 M412.618,192.513l8.435,20.484h-17.005L412.618,192.513z"/>
	</g>
	<g>
		<path fill="#FFFFFF" d="M43.557,354.115v-37.368c0-0.926-0.141-1.581-0.431-1.968c-0.29-0.386-0.855-0.681-1.69-0.88v-1.062h9.438
			v1.062c-0.843,0.224-1.402,0.52-1.692,0.893c-0.29,0.38-0.43,1.029-0.43,1.955v37.368c0,0.933,0.14,1.582,0.411,1.955
			c0.282,0.379,0.849,0.675,1.711,0.894v1.061h-9.438v-1.061c0.861-0.219,1.427-0.515,1.709-0.894
			C43.416,355.697,43.557,355.048,43.557,354.115z"/>
		<path fill="#FFFFFF" d="M73.448,318.567v35.548c0,0.907,0.148,1.556,0.431,1.942c0.283,0.385,0.849,0.688,1.685,0.906v1.061H66.6
			v-1.061c0.856-0.219,1.429-0.515,1.698-0.894c0.283-0.373,0.418-1.022,0.418-1.955v-37.368c0-0.926-0.147-1.581-0.431-1.968
			c-0.289-0.386-0.848-0.681-1.685-0.88v-1.062h12.976v1.062c-1.035,0.354-1.557,0.849-1.557,1.491c0,0.442,0.522,1.267,1.557,2.48
			l27.235,31.847v-32.971c0-0.926-0.142-1.581-0.424-1.968c-0.29-0.386-0.849-0.681-1.692-0.88v-1.062h8.969v1.062
			c-0.835,0.199-1.401,0.494-1.685,0.88c-0.289,0.387-0.431,1.042-0.431,1.968v37.368c0,0.933,0.143,1.582,0.431,1.955
			c0.284,0.379,0.849,0.675,1.685,0.894v1.061h-10.429v-1.061c1.017-0.265,1.523-0.714,1.523-1.357c0-0.481-0.468-1.278-1.395-2.385
			L73.448,318.567z"/>
		<path fill="#FFFFFF" d="M130.24,354.585v-38.302c0-0.661-0.154-1.17-0.463-1.523c-0.308-0.354-0.861-0.637-1.652-0.86v-1.062
			h23.834c5.401,0,9.541,0.752,12.409,2.25c3.62,1.878,6.379,4.771,8.282,8.674c1.652,3.421,2.481,7.304,2.481,11.656
			c0,5.138-1.118,9.574-3.343,13.303c-2.012,3.312-4.552,5.69-7.631,7.138c-3.081,1.446-7.144,2.166-12.198,2.166h-23.834v-1.061
			c0.791-0.219,1.344-0.508,1.652-0.862C130.086,355.755,130.24,355.247,130.24,354.585z M135.435,353.724h16.318
			c4.796,0,8.346-0.739,10.661-2.219c2.739-1.768,4.744-4.469,6.03-8.114c0.836-2.424,1.254-5.085,1.254-7.973
			c0-5.252-1.332-9.599-4.006-13.045c-1.478-1.897-3.278-3.241-5.394-4.038c-2.116-0.797-4.964-1.189-8.545-1.189h-16.318V353.724z"
			/>
		<path fill="#FFFFFF" d="M192.003,316.747v24.991c0,2.958,0.153,5.035,0.462,6.237c0.309,1.209,0.951,2.25,1.916,3.131
			c2.366,2.115,6.764,3.176,13.212,3.176c7.016,0,11.618-1.247,13.805-3.742c0.727-0.835,1.208-1.831,1.452-2.989
			c0.245-1.164,0.367-3.099,0.367-5.812v-24.991c0-0.906-0.148-1.55-0.431-1.936c-0.282-0.386-0.849-0.688-1.684-0.912v-1.062h8.963
			v1.062c-0.835,0.199-1.402,0.494-1.685,0.88c-0.284,0.387-0.431,1.042-0.431,1.968v26.02c0,3.196-0.309,5.639-0.926,7.312
			c-1.151,3.002-3.305,5.207-6.475,6.621c-3.164,1.415-7.548,2.123-13.155,2.123c-8.383,0-14.119-1.628-17.211-4.867
			c-1.254-1.306-2.135-2.79-2.63-4.456c-0.502-1.666-0.746-3.909-0.746-6.732v-26.02c0-0.926-0.141-1.581-0.431-1.968
			c-0.289-0.386-0.855-0.681-1.69-0.88v-1.062h9.439v1.062c-0.843,0.224-1.402,0.526-1.692,0.912
			C192.144,315.197,192.003,315.841,192.003,316.747z"/>
		<path fill="#FFFFFF" d="M281.501,315.647l-4.732,8.545l-0.926-0.495c0.373-0.99,0.566-1.607,0.566-1.853
			c0-0.661-0.811-1.382-2.444-2.153c-4.442-2.07-9.143-3.112-14.106-3.112c-4.083,0-7.639,0.76-10.659,2.284
			c-1.454,0.744-2.61,1.715-3.459,2.904c-0.849,1.189-1.273,2.444-1.273,3.769c0,1.099,0.333,2.141,0.99,3.118
			c0.662,0.978,1.536,1.711,2.617,2.198c1.189,0.547,2.597,0.927,4.223,1.139c1.621,0.213,4.257,0.366,7.922,0.476
			c5.079,0.155,8.705,0.393,10.892,0.714c2.186,0.321,3.986,0.882,5.401,1.671c3.741,2.097,5.619,5.286,5.619,9.568
			c0,4.082-1.697,7.426-5.093,10.03c-3.773,2.912-8.976,4.372-15.591,4.372c-3.819,0-7.15-0.393-9.999-1.164
			c-2.84-0.771-6.242-2.192-10.196-4.27c-1.106-0.508-1.749-0.758-1.955-0.758c-0.327,0-0.849,0.398-1.555,1.188l-0.887-0.559
			l4.964-8.313l0.926,0.532c-0.419,0.882-0.63,1.479-0.63,1.789c0,0.707,1.414,1.8,4.243,3.271c2.533,1.325,4.977,2.282,7.329,2.868
			c2.348,0.586,4.9,0.874,7.665,0.874c5.581,0,9.817-1.221,12.705-3.671c1.928-1.634,2.88-3.575,2.88-5.826
			c0-2.957-1.646-5.001-4.926-6.126c-1.067-0.373-2.16-0.611-3.297-0.714c-1.139-0.097-4.366-0.245-9.685-0.444
			c-3.8-0.153-6.77-0.443-8.916-0.861c-2.154-0.417-4.07-1.1-5.749-2.051c-1.568-0.881-2.802-2.122-3.722-3.71
			c-0.919-1.589-1.37-3.317-1.37-5.195c0-3.202,1.189-5.946,3.576-8.242c1.761-1.678,4.204-2.997,7.316-3.954
			c3.112-0.965,6.52-1.44,10.223-1.44c3.022,0,5.832,0.302,8.423,0.9c2.598,0.598,5.529,1.633,8.796,3.099
			c0.72,0.315,1.17,0.47,1.35,0.47c0.398,0,0.939-0.443,1.62-1.338L281.501,315.647z"/>
		<path fill="#FFFFFF" d="M312.896,317.146v36.97c0,0.907,0.148,1.556,0.431,1.942c0.29,0.385,0.85,0.688,1.69,0.906v1.061h-9.431
			v-1.061c0.835-0.219,1.395-0.515,1.684-0.894c0.29-0.373,0.432-1.022,0.432-1.955v-36.97h-15.296
			c-0.927,0-1.582,0.142-1.969,0.418c-0.385,0.282-0.675,0.849-0.874,1.698h-1.06v-8.54h1.06c0.199,0.85,0.489,1.416,0.874,1.698
			c0.387,0.276,1.042,0.418,1.969,0.418h35.786c0.926,0,1.582-0.142,1.967-0.418c0.387-0.282,0.683-0.849,0.882-1.698h1.054v8.54
			h-1.054c-0.199-0.85-0.495-1.416-0.882-1.698c-0.385-0.276-1.041-0.418-1.967-0.418H312.896z"/>
		<path fill="#FFFFFF" d="M348.779,337.7v16.422c0,0.906,0.142,1.549,0.432,1.936c0.289,0.385,0.849,0.688,1.691,0.906v1.061h-9.438
			v-1.061c0.842-0.219,1.4-0.515,1.69-0.894c0.282-0.373,0.431-1.022,0.431-1.955v-37.368c0-0.926-0.148-1.581-0.431-1.968
			c-0.29-0.386-0.849-0.681-1.69-0.88v-1.062h24.791c3.401,0,6.09,0.187,8.063,0.553c1.973,0.359,3.69,0.996,5.149,1.903
			c1.499,0.926,2.714,2.198,3.64,3.812c1.061,1.832,1.588,3.896,1.588,6.198c0,3.446-1.145,6.256-3.427,8.436
			c-2.282,2.173-5.42,3.42-9.413,3.729l11.483,17.841c0.682,1.106,1.678,1.653,2.977,1.653v1.061h-10.454v-1.061
			c1.08-0.174,1.621-0.482,1.621-0.926c0-0.219-0.387-0.933-1.158-2.148L366.055,337.7H348.779z M348.779,333.399h18.306
			c2.494,0,4.378-0.108,5.645-0.315c1.267-0.212,2.386-0.592,3.362-1.145c2.271-1.324,3.409-3.543,3.409-6.654
			c0-3.131-1.171-5.362-3.512-6.687c-1.034-0.572-2.192-0.958-3.459-1.157s-3.239-0.296-5.908-0.296h-17.843V333.399z"/>
		<path fill="#FFFFFF" d="M401.032,354.115v-37.368c0-0.926-0.148-1.581-0.431-1.968c-0.29-0.386-0.849-0.681-1.691-0.88v-1.062
			h9.438v1.062c-0.842,0.224-1.402,0.52-1.69,0.893c-0.29,0.38-0.432,1.029-0.432,1.955v37.368c0,0.933,0.136,1.582,0.412,1.955
			c0.276,0.379,0.849,0.675,1.71,0.894v1.061h-9.438v-1.061c0.861-0.219,1.427-0.515,1.703-0.894
			C400.89,355.697,401.032,355.048,401.032,354.115z"/>
		<path fill="#FFFFFF" d="M429.328,336.936v16.788h28.965c0.927,0,1.582-0.149,1.968-0.432c0.386-0.288,0.682-0.849,0.881-1.69
			h1.055v8.538h-1.055c-0.226-0.836-0.527-1.402-0.913-1.685c-0.386-0.29-1.042-0.431-1.968-0.431h-36.249v-1.061
			c0.861-0.219,1.428-0.515,1.704-0.894c0.276-0.373,0.418-1.022,0.418-1.955v-37.368c0-0.926-0.149-1.575-0.432-1.955
			c-0.29-0.373-0.849-0.669-1.69-0.893v-1.062h35.851c0.926,0,1.576-0.142,1.955-0.418c0.373-0.282,0.669-0.849,0.894-1.698h1.062
			v8.54h-1.062c-0.199-0.83-0.495-1.391-0.881-1.679c-0.386-0.296-1.042-0.438-1.968-0.438h-28.534v15.488h18.703
			c0.926,0,1.582-0.142,1.968-0.43c0.386-0.284,0.682-0.849,0.881-1.686h1.055v8.539h-1.055c-0.199-0.836-0.495-1.402-0.881-1.691
			c-0.386-0.283-1.042-0.431-1.968-0.431H429.328z"/>
	</g>
</g>
</svg>
