<?xml version="1.0" encoding="utf-8"?>
<!-- Generator: Adobe Illustrator 15.0.0, SVG Export Plug-In . SVG Version: 6.00 Build 0)  -->
<!DOCTYPE svg PUBLIC "-//W3C//DTD SVG 1.1//EN" "http://www.w3.org/Graphics/SVG/1.1/DTD/svg11.dtd">
<svg version="1.1" id="Calque_1" xmlns="http://www.w3.org/2000/svg" xmlns:xlink="http://www.w3.org/1999/xlink" x="0px" y="0px"
	 width="500px" height="500px" viewBox="0 0 500 500" enable-background="new 0 0 500 500" xml:space="preserve">
<g>
	<path fill="#49BFE2" d="M44.548,307.74c-0.123,0-0.222-0.005-0.297-0.018c-0.585-0.092-0.733-0.325-0.774-0.39
		c-0.04-0.082-0.23-0.633-0.065-3.497c0.199-2.992,0.445-6.114,0.732-9.281l1.461-16.268c0.455-4.353,0.985-9.421,1.075-9.997
		c0.287-2.242,0.589-2.992,0.727-3.214c0.204-0.297,0.567-0.576,1.079-0.826c0.387-0.189,1.567-0.553,4.987-1.205l0.488-0.092
		l0.327-3.633l-0.871,0.182c-4.571,0.957-8.089,1.651-10.456,2.061c-2.456,0.428-5.973,0.958-10.452,1.578l-0.519,0.07l-0.327,3.615
		l0.835-0.131c2.665-0.421,4.381-0.616,4.913-0.525c0.394,0.061,0.657,0.192,0.778,0.38c0.04,0.08,0.231,0.634,0.064,3.475
		c-0.201,3.017-0.446,6.149-0.732,9.318l-1.464,16.269c-0.792,7.628-1.021,9.643-1.073,10.001c-0.291,2.251-0.592,2.996-0.73,3.219
		c-0.202,0.296-0.571,0.574-1.096,0.828c-0.399,0.196-1.59,0.562-4.978,1.213l-0.487,0.093l-0.326,3.623l11.87-2.346
		c1.566-0.275,4.903-0.78,9.916-1.5l0.516-0.074l0.326-3.612l-0.835,0.133C46.866,307.554,45.314,307.74,44.548,307.74z"/>
	<path fill="#49BFE2" d="M106.07,250.483c-2.883,0.5-5.726,0.949-8.448,1.331l-0.519,0.072l-0.323,3.613l0.839-0.137
		c2.497-0.408,4.187-0.424,4.542-0.332c0.169,0.043,0.226,0.118,0.24,0.14c0.049,0.12,0.197,0.713,0.091,3.255
		c-0.113,3.048-0.271,5.729-0.472,7.966l-2.174,24.203c-0.571-0.575-1.217-1.267-1.952-2.091c-1.836-1.961-4.219-4.627-7.287-8.146
		l-9.441-10.896l-6.443-7.646c-0.825-1.078-2.116-2.74-3.873-4.988l-0.257-0.33l-0.407,0.092c-1.765,0.397-3.554,0.755-5.319,1.061
		c-1.053,0.185-3.624,0.584-7.708,1.205l-0.511,0.077l-0.325,3.609l0.838-0.136c2.275-0.367,3.188-0.444,3.583-0.444
		c0.001,0,0.001,0,0.002,0c0.406,0.005,0.742,0.112,1.021,0.323c0.67,0.515,0.871,0.85,0.921,0.974
		c0.006,0.022,0.062,0.257-0.024,1.214l-2.571,28.588c-0.197,2.203-0.498,4.895-0.893,7.998c-0.343,2.514-0.621,3.3-0.766,3.559
		c-0.11,0.216-0.28,0.386-0.53,0.53c-0.512,0.307-1.755,0.789-4.772,1.347l-0.492,0.089l-0.328,3.649l0.883-0.198
		c3.215-0.726,6.23-1.336,8.962-1.814c2.482-0.437,4.78-0.759,6.83-0.959l0.543-0.055l0.327-3.641l-0.841,0.14
		c-2.495,0.416-4.174,0.432-4.552,0.334c-0.126-0.033-0.193-0.089-0.242-0.2c-0.048-0.111-0.193-0.675-0.083-3.259
		c0.113-3.07,0.276-5.805,0.484-8.128l2.313-25.715l21.471,24.508l4.068,4.992c0.821,0.975,2.135,2.423,3.902,4.308
		c0.924,0.981,1.206,1.205,1.339,1.281c0.188,0.123,0.401,0.205,0.715,0.25l0.781,0.022l4.239,0.49l0.053-0.683
		c0.733-9.457,1.236-15.693,1.539-19.066l1.516-16.861c0.194-2.169,0.493-4.848,0.888-7.958c0.345-2.534,0.618-3.298,0.77-3.565
		c0.115-0.234,0.282-0.412,0.51-0.543c0.514-0.292,1.752-0.754,4.729-1.301l0.493-0.091l0.327-3.637l-0.875,0.189
		C111.224,249.54,108.759,250.015,106.07,250.483z"/>
	<path fill="#49BFE2" d="M157.926,254.08l0.053-0.492c0.55-5.09,1.087-9.006,1.598-11.641l0.19-0.987l-0.98,0.217
		c-1.93,0.428-4.951,1.044-9.238,1.881c-5.816,1.151-9.568,1.872-11.153,2.148c-1.491,0.261-4.485,0.734-8.895,1.409
		c-5.489,0.816-9.514,1.401-12.081,1.757l-0.574,0.077l0.005,0.58c0.018,2.094-0.214,5.961-0.688,11.492l-0.073,0.852l3.488-0.607
		l0.797-4.064c0.527-2.842,0.841-3.535,0.943-3.687c0.035-0.049,0.193-0.22,0.789-0.396c1.78-0.536,4.209-1.073,7.22-1.597
		l4.462-0.775l-0.273,5.062c-0.057,1.147-0.129,2.21-0.219,3.183l-1.833,20.418c-0.688,6.333-1.029,9.511-1.07,9.973
		c-0.284,2.229-0.601,2.972-0.774,3.233c-0.173,0.278-0.522,0.546-1.037,0.795c-0.393,0.192-1.576,0.558-4.981,1.213l-0.488,0.093
		l-0.322,3.619l0.866-0.176c7.944-1.623,10.398-2.101,11.058-2.218c2.106-0.369,5.292-0.835,9.471-1.389l0.522-0.068l0.324-3.612
		l-0.835,0.135c-2.647,0.419-4.348,0.614-4.875,0.53c-0.579-0.093-0.724-0.321-0.766-0.389c-0.041-0.083-0.229-0.632-0.065-3.485
		c0.197-2.961,0.442-6.074,0.727-9.252l1.84-20.495c0.316-3.529,0.678-6.428,1.076-8.622l3.868-0.674
		c1.149-0.2,2.751-0.421,4.757-0.657c2.348-0.273,3.137-0.331,3.371-0.334c0.103,0.01,0.172,0.027,0.184,0.024
		c0.01,0.028,0.024,0.077,0.039,0.154c0.024,0.149,0.058,0.842,0.067,3.286l-0.024,4.104L157.926,254.08z"/>
	<path fill="#49BFE2" d="M195.222,247.062l3.533-0.615l0.077-0.459c0.772-4.583,1.199-7.043,1.282-7.353
		c0.222-0.977,0.581-2.163,1.064-3.524l0.331-0.929l-0.984,0.049c-2.073,0.105-4.307,0.365-6.64,0.772
		c-2.306,0.4-6.015,1.08-11.133,2.039l-10.655,2.026l-10.561,1.619l-0.322,3.596l0.833-0.13c2.641-0.417,4.337-0.604,4.869-0.522
		c0.584,0.095,0.73,0.319,0.769,0.378c0.04,0.08,0.228,0.629,0.061,3.457c-0.192,2.907-0.437,6.025-0.726,9.267l-1.604,17.874
		c-0.2,2.229-0.512,4.915-0.924,7.982c-0.339,2.496-0.616,3.283-0.759,3.549c-0.109,0.212-0.275,0.381-0.519,0.522
		c-0.507,0.304-1.736,0.782-4.709,1.333l-0.492,0.09l-0.327,3.621l0.868-0.175c3.794-0.771,8.883-1.802,9.258-1.869l21.061-3.455
		c2.906-0.51,5.43-1.11,7.501-1.778l0.415-0.135l0.039-0.434c0.274-3.062,0.932-7.031,1.955-11.797l0.205-0.956l-3.75,0.657
		l-0.101,0.421c-0.252,1.052-0.732,2.672-1.432,4.829c-0.35,1.147-0.684,2.092-0.992,2.813c-1.022,0.561-2.129,1.031-3.292,1.401
		c-1.246,0.399-3.369,0.862-6.313,1.378c-3.864,0.679-7.408,1.193-10.547,1.53c0.103-2.188,0.328-5.217,0.672-9.02
		c0.382-4.27,0.733-7.61,1.044-9.943c2.675-0.568,4.775-0.988,6.245-1.245c3.562-0.623,6.047-0.938,7.385-0.938l0.234,0.004
		c0.483,0.021,0.822,0.129,0.926,0.295c0.025,0.043,0.23,0.48,0.089,2.761l-0.146,3.182l3.788-0.663l0.588-8.61l0.83-7.324
		l0.135-1.52l-3.417,0.596l-0.51,2.937c-0.414,2.218-0.657,2.632-0.703,2.696c-0.067,0.091-0.313,0.326-1.157,0.573
		c-1.957,0.59-4.353,1.136-7.122,1.619c-2.06,0.359-4.314,0.688-6.713,0.978l1.114-10.993c0.235-2.132,0.503-4.41,0.805-6.837
		c0.862-0.211,2.118-0.498,3.769-0.862c1.945-0.43,3.198-0.694,3.761-0.792c2.598-0.451,5.215-0.747,7.782-0.875
		c1.267-0.073,2.446,0.002,3.508,0.219c0.107,1.736,0.054,3.695-0.157,5.827L195.222,247.062z"/>
	<path fill="#49BFE2" d="M245.907,272.517c-0.116-0.02-0.23-0.065-0.306-0.112c-0.192-0.146-0.944-0.932-3.815-4.521l-7.833-10.03
		c-1.463-1.843-2.5-3.169-3.138-4.01c2.963-1.204,5.466-2.584,7.447-4.109c2.177-1.675,3.922-3.632,5.186-5.812
		c1.271-2.19,2.008-4.339,2.191-6.383c0.201-2.229-0.223-4.22-1.258-5.922c-1.057-1.737-2.684-2.859-4.838-3.335
		c-2.072-0.453-5.39-0.28-9.939,0.51c-0.57,0.099-2.547,0.5-6.405,1.301c-2.782,0.565-4.875,0.972-6.209,1.204l-11.444,1.737
		l-0.323,3.596l0.835-0.132c2.628-0.416,4.323-0.603,4.85-0.52c0.391,0.063,0.646,0.191,0.766,0.374
		c0.04,0.082,0.225,0.628,0.063,3.457c-0.206,3.054-0.45,6.169-0.729,9.262l-1.45,16.172c-0.826,7.97-1.021,9.642-1.064,9.942
		c-0.287,2.233-0.583,2.973-0.722,3.195c-0.197,0.291-0.56,0.565-1.078,0.82c-0.393,0.191-1.565,0.555-4.917,1.197l-0.486,0.096
		l-0.327,3.615l0.868-0.18c5.314-1.091,9.144-1.845,11.383-2.239c2.755-0.484,5.829-0.941,9.135-1.364l0.525-0.067l0.325-3.607
		l-0.835,0.135c-2.596,0.412-4.271,0.597-4.806,0.517c-0.585-0.09-0.727-0.316-0.767-0.381c-0.039-0.081-0.224-0.636-0.026-3.495
		c0.149-2.941,0.368-6.036,0.652-9.204l1.39-15.499c0.463-4.178,1.088-9.777,1.157-10.196c0.131-0.996,0.289-2.063,0.468-3.201
		c2.226-1.02,4.487-1.731,6.726-2.12c3.625-0.631,6.291-0.324,7.875,0.904c1.571,1.222,2.219,3.104,1.983,5.755
		c-0.28,3.114-1.567,5.841-3.826,8.104c-2.276,2.279-5.516,3.798-9.629,4.518c-0.624,0.11-1.535,0.236-2.734,0.376l-0.389,0.045
		l-0.745,1.863l0.286,0.307c2.002,2.144,4.109,4.571,6.272,7.224c1.341,1.592,2.898,3.638,4.627,6.08
		c3.194,4.515,5.427,7.439,6.828,8.945l0.266,0.286l0.38-0.096c1.992-0.51,3.687-0.888,5.039-1.125
		c1.29-0.227,2.827-0.417,4.566-0.563l0.552-0.046l0.324-3.641l-0.845,0.146C246.921,272.473,246.188,272.566,245.907,272.517z"/>
	<path fill="#49BFE2" d="M287.566,219.962c-2.129-0.461-5.115-0.36-8.905,0.297c-0.521,0.092-1.093,0.204-1.707,0.336l-5.517,1.153
		c-2.06,0.408-3.997,0.771-5.817,1.088c-2.71,0.472-6.452,1.043-11.119,1.693l-0.518,0.072l-0.323,3.598l0.835-0.131
		c2.621-0.411,4.3-0.604,4.833-0.517c0.385,0.062,0.645,0.193,0.762,0.373c0.039,0.082,0.225,0.63,0.062,3.45
		c-0.2,2.993-0.443,6.104-0.725,9.246l-1.446,16.144c-0.601,5.799-0.987,9.411-1.062,9.925c-0.287,2.232-0.581,2.971-0.718,3.191
		c-0.199,0.292-0.562,0.568-1.076,0.817c-0.392,0.19-1.561,0.554-4.899,1.194l-0.488,0.095l-0.321,3.607l0.864-0.175
		c6.511-1.301,10.211-2.032,10.996-2.17c1.996-0.351,5.191-0.831,9.499-1.429l0.52-0.069l0.322-3.601l-0.834,0.134
		c-2.619,0.416-4.307,0.609-4.83,0.525c-0.573-0.093-0.715-0.321-0.756-0.387c-0.04-0.08-0.228-0.63-0.063-3.469
		c0.2-2.985,0.442-6.085,0.722-9.212l1.575-17.579c0.445-4.976,0.878-8.753,1.289-11.243c2.438-1.121,4.719-1.873,6.782-2.231
		c2.36-0.41,4.352-0.364,5.901,0.134c1.498,0.483,2.536,1.356,3.169,2.669c0.651,1.356,0.896,2.992,0.729,4.864
		c-0.178,1.975-0.764,3.875-1.743,5.649c-0.974,1.764-2.259,3.197-3.818,4.26c-1.569,1.068-3.202,1.756-4.853,2.043
		c-1.139,0.199-2.724,0.236-4.69,0.117l-0.861-0.053l0.788,3.816l0.951,0.011c1.578,0,3.09-0.125,4.494-0.371
		c1.824-0.319,3.502-0.828,4.987-1.511c2.158-0.987,4.293-2.385,6.348-4.153c2.069-1.781,3.73-3.829,4.939-6.089
		c1.21-2.27,1.92-4.495,2.109-6.613c0.218-2.418-0.235-4.501-1.346-6.196C291.48,221.556,289.786,220.443,287.566,219.962z"/>
	<path fill="#49BFE2" d="M329.233,253.817c-0.271,0.817-0.568,1.575-0.885,2.255c-2.673,1.229-7.224,2.415-13.539,3.521
		c-2.353,0.413-4.735,0.768-7.094,1.051c0.044-1.387,0.158-3.106,0.338-5.123l2.094-23.395c0.787-7.594,1.01-9.571,1.06-9.907
		c0.284-2.224,0.581-2.961,0.719-3.183c0.195-0.29,0.554-0.562,1.06-0.812c0.383-0.188,1.547-0.546,4.921-1.189l0.489-0.094
		l0.322-3.607l-0.867,0.178c-5.161,1.056-8.541,1.724-10.043,1.986c-1.36,0.236-4.903,0.772-10.53,1.59l-0.515,0.075l-0.32,3.59
		l0.834-0.131c2.609-0.411,4.291-0.602,4.817-0.515c0.384,0.062,0.641,0.192,0.758,0.374c0.039,0.081,0.224,0.626,0.062,3.444
		c-0.198,2.969-0.441,6.075-0.723,9.233l-1.68,18.741c-0.055,0.621-0.297,2.641-0.682,5.688c-0.315,2.601-0.582,3.661-0.758,4.113
		c-0.088,0.248-0.219,0.459-0.419,0.659c-0.267,0.288-0.958,0.862-2.748,1.971l-0.279,0.174l-0.273,3.059l0.895-0.219
		c2.295-0.561,4.585-1.045,6.798-1.434l20.691-3.393c2.512-0.44,4.406-0.809,5.649-1.097c0.586-0.151,1.357-0.402,2.362-0.767
		l0.351-0.127l0.07-0.368c0.902-4.729,1.773-8.912,2.586-12.427l0.225-0.97l-3.712,0.649L329.233,253.817z"/>
	<path fill="#49BFE2" d="M386.155,247.561c-0.323-0.104-0.632-0.444-0.92-1.016c-0.644-1.263-1.93-4.534-3.826-9.722l-11.961-32.798
		l-3.109,0.541l-0.146,0.309c-3.756,7.93-6.242,13.129-7.39,15.456l-10.483,21.146c-2.973,5.841-4.895,9.594-5.413,10.571
		c-1.029,1.959-1.547,2.68-1.798,2.938c-0.357,0.366-0.735,0.639-1.123,0.811c-0.284,0.13-1.09,0.368-3.316,0.786l-0.488,0.092
		l-0.34,3.788l0.899-0.227c2.686-0.675,5.176-1.215,7.402-1.605c1.938-0.34,4.89-0.757,8.771-1.234l0.528-0.065l0.335-3.743
		l-0.841,0.139c-1.917,0.318-3.313,0.479-4.149,0.479l-0.221-0.005c-0.329-0.014-0.565-0.083-0.681-0.213
		c-0.03-0.029-0.041-0.122-0.03-0.238c0.04-0.453,0.292-1.424,1.268-3.47l4.441-9.299l19.291-3.379l3.146,9.355
		c0.224,0.666,0.317,1.212,0.28,1.629c-0.017,0.186-0.085,0.345-0.219,0.501c-0.08,0.094-0.303,0.285-0.905,0.511
		c-0.364,0.138-1.466,0.431-4.649,1.045l-0.486,0.094l-0.337,3.742l12.101-2.494c1.423-0.249,3.885-0.569,7.528-0.98l0.535-0.06
		l0.333-3.744l-0.837,0.136C387.477,247.639,386.286,247.604,386.155,247.561z M371.273,233.629l-15.545,2.72l9.528-19.899
		L371.273,233.629z"/>
	<path fill="#49BFE2" d="M422.324,208.162l3.64-0.635l0.059-0.489c0.282-2.429,0.551-4.303,0.802-5.571
		c0.248-1.271,0.598-2.661,1.041-4.133l0.184-0.611l-0.605-0.203c-1.974-0.663-4.153-1.059-6.48-1.18
		c-2.315-0.119-4.505-0.005-6.517,0.345c-3.332,0.582-6.529,1.821-9.499,3.684c-2.983,1.872-5.354,4.211-7.043,6.95
		c-1.687,2.74-2.672,5.559-2.923,8.378c-0.175,1.963,0.036,3.759,0.633,5.342c0.604,1.605,1.488,2.86,2.632,3.73
		c1.152,0.875,2.918,1.463,5.461,1.805c1.784,0.077,3.982,0.058,6.526-0.059c2.529-0.116,4.214-0.181,5.025-0.19
		c1.22,0.034,2.226,0.286,2.986,0.743c0.733,0.443,1.237,1.089,1.54,1.979c0.32,0.933,0.418,2.131,0.291,3.563
		c-0.169,1.895-0.767,3.778-1.778,5.597c-1.006,1.812-2.515,3.419-4.486,4.779c-1.978,1.362-4.116,2.255-6.356,2.646
		c-1.523,0.269-3.103,0.287-4.692,0.057c-1.584-0.231-2.839-0.589-3.726-1.068c-1.01-0.543-1.347-0.992-1.453-1.274
		c-0.081-0.217-0.243-1.197,0.004-5.625l0.046-0.83l-3.64,0.638l-0.051,0.497c-0.507,4.927-1.048,8.569-1.609,10.824l-0.147,0.597
		l0.584,0.19c2.16,0.697,4.528,1.052,7.044,1.052c1.742,0,3.597-0.17,5.511-0.506c6.171-1.084,11.434-3.75,15.64-7.927
		c4.216-4.189,6.569-8.721,6.994-13.467c0.181-2.039-0.02-3.796-0.599-5.218c-0.585-1.439-1.416-2.562-2.471-3.343
		c-1.064-0.784-2.676-1.306-5-1.596c-2.278-0.034-4.88,0.008-7.737,0.122c-2.791,0.114-4.823,0.067-5.997-0.138
		c-1.605-0.291-2.68-0.837-3.195-1.628c-0.536-0.814-0.725-2.148-0.563-3.959c0.276-3.094,1.47-5.815,3.55-8.085
		c2.078-2.272,4.757-3.706,7.956-4.263c2.46-0.428,4.821-0.189,6.874,0.645c0.792,0.421,1.414,0.935,1.853,1.529
		c0.029,0.312,0.038,1.438-0.246,5.465L422.324,208.162z"/>
	<path fill="#49BFE2" d="M474.521,186.264c-1.908,0.425-4.949,1.045-9.039,1.845c-5.637,1.116-9.306,1.822-10.909,2.103
		c-1.454,0.252-4.353,0.71-8.701,1.376c-5.369,0.796-9.308,1.37-11.817,1.714l-0.573,0.08l0.005,0.579
		c0.018,2.043-0.21,5.868-0.676,11.364l-0.072,0.852l3.438-0.599l0.781-4.022c0.521-2.815,0.827-3.497,0.921-3.643
		c0.024-0.035,0.174-0.211,0.768-0.388c1.745-0.527,4.119-1.053,7.06-1.564l4.347-0.757l-0.271,4.998
		c-0.055,1.137-0.126,2.188-0.211,3.149l-1.804,20.191c-0.449,4.162-0.997,9.253-1.05,9.861c-0.282,2.209-0.591,2.939-0.758,3.193
		c-0.173,0.276-0.512,0.541-1.011,0.783c-0.385,0.188-1.54,0.548-4.866,1.186l-0.487,0.094l-0.32,3.597l0.866-0.177
		c6.266-1.282,9.906-2.013,10.817-2.172c2.042-0.359,5.159-0.815,9.262-1.355l0.523-0.068l0.32-3.586l-0.834,0.133
		c-2.582,0.409-4.246,0.603-4.762,0.515c-0.56-0.092-0.699-0.315-0.738-0.38c-0.039-0.081-0.227-0.629-0.062-3.446
		c0.198-2.985,0.438-6.063,0.715-9.149l1.81-20.27c0.311-3.481,0.665-6.345,1.055-8.521l3.772-0.657
		c1.131-0.197,2.696-0.413,4.654-0.641c2.289-0.266,3.061-0.32,3.291-0.323c0.096,0.009,0.156,0.026,0.17,0.021
		c0.01,0.028,0.023,0.078,0.037,0.153c0.021,0.124,0.058,0.711,0.063,3.246l-0.024,4.069l3.479-0.607l0.054-0.494
		c0.54-5.043,1.069-8.917,1.569-11.511l0.189-0.986L474.521,186.264z"/>
</g>
<g>
	<path fill="#3672C9" d="M282.493,399.542c-0.129-0.035-0.252-0.082-0.378-0.121c-4.235,0.909-7.966,1.652-10.807,2.12
		C275.911,400.873,279.833,400.195,282.493,399.542z"/>
	<path fill="#3672C9" d="M223.49,104.173c-0.695-0.256-1.368-0.518-2.071-0.772l3.397-0.503c0.06-0.056,0.116-0.112,0.175-0.169
		l-47.425,7.085c-47.594,20.135-76.03,72.967-79.634,129.062l68.247-12.265C167.589,180.715,180.972,144.834,223.49,104.173z"/>
	<path fill="#3672C9" d="M180.087,305.336l-67.392,11.769c21.81,47.062,64.142,83.691,106.877,89.993c0,0,29.758-2.504,49.5-5.24
		c2.172-1.489,4.293-3.028,6.373-4.605C232.927,382.365,198.328,348.677,180.087,305.336z"/>
	<path fill="#3672C9" d="M269.037,401.885c0.675-0.091,1.434-0.204,2.271-0.344c-0.729,0.106-1.475,0.212-2.236,0.316
		C269.061,401.866,269.05,401.876,269.037,401.885z"/>
	<path fill="#3672C9" d="M338.984,277.588c-2.801,46.742-25.164,90.546-63.538,119.664c2.202,0.772,4.425,1.5,6.67,2.169
		c21.016-4.506,54.557-13.129,54.557-13.129c37.481-21.343,65.158-67.921,68.417-120.248L338.984,277.588z"/>
	<path fill="#3672C9" d="M324.617,198.139l65.587-11.788c-23.065-51.676-64.838-89.066-117.214-90.583l-48.174,7.129
		c-0.451,0.427-0.882,0.851-1.326,1.275C281.007,125.449,306.626,155.254,324.617,198.139z"/>
	<path fill="#3672C9" d="M223.49,104.173c0.444-0.425,0.875-0.849,1.326-1.275l-3.397,0.503
		C222.123,103.655,222.796,103.917,223.49,104.173z"/>
	<path fill="#3672C9" d="M269.073,401.857c0.762-0.104,1.507-0.21,2.236-0.316c2.841-0.468,6.571-1.211,10.807-2.12
		c-2.245-0.669-4.468-1.396-6.67-2.169C273.365,398.829,271.244,400.368,269.073,401.857z"/>
</g>
<polygon fill="#FFED00" points="369.121,274.713 372.967,288.305 392.634,284.818 375.921,297.819 382.881,318.483 366.427,305.49 
	350.112,319.183 358.777,299.763 347.729,291.963 362.987,289.878 "/>
<polygon fill="#FFED00" points="355.402,328.915 355.611,343.36 370.488,342.594 352.111,353.108 350.479,370.219 341.203,358.682 
	322.951,368.343 336.131,352.785 327.769,343.705 343.401,343.946 "/>
<polygon fill="#FFED00" points="152.698,314.809 164.16,327.511 181.695,323.432 171.237,335.022 184.276,348.3 164.512,342.841 
	151.351,358.87 152.423,339.734 130.078,334.411 152.701,329.963 "/>
<polygon fill="#FFED00" points="188.105,361.015 201.029,371.237 215.233,366.374 208.479,376.914 221.329,386.333 204.376,383.721 
	196.856,396.971 193.688,382.254 173.333,379.789 191.732,374.23 "/>
<polygon fill="#FFED00" points="139.134,172.682 144.028,187.286 161.163,186.228 147.387,196.585 154.294,214.414 138.295,203.711 
	119.942,218.673 129.081,197.858 113.05,188.204 133.276,187.738 "/>
<polygon fill="#FFED00" points="168.11,122.692 168.306,135.479 184.294,134.921 168.656,144.082 169.803,161.737 158.747,150.104 
	139.663,162.111 152.889,144.307 143.447,135.542 159.136,135.619 "/>
<polygon fill="#FFED00" points="330.372,138.418 341.701,150.433 357.834,146.56 349.412,158.309 365.256,173.93 343.751,166.678 
	331.965,185.096 331.666,162.85 311.117,156.756 331.287,152.72 "/>
<polygon fill="#FFED00" points="286.669,106.924 298.809,113.765 311.384,110.964 307.142,118.309 324.419,127.431 304.008,124.242 
	296.414,139.89 291.737,122.487 269.256,119.573 289.661,115.654 "/>
<g>
	<path fill="#FFED00" d="M297.26,397.918l8.961-4.053c-2.154,0.52-4.335,1.039-6.506,1.555L297.26,397.918z"/>
	<polygon fill="#FFED00" points="196.064,110.613 203.391,118.067 203.868,107.529 211.04,104.813 190.723,107.848 182.292,116.282 
			"/>
	<path fill="#FFED00" d="M244.973,399.29l-14.372-9.946l6.151,11.605l-14.465,2.63l10.276,2.346
		c6.224-0.593,13.969-1.364,21.633-2.227l4.783-7.521L244.973,399.29z"/>
	<path fill="none" stroke="#3672C9" stroke-width="1.3176" stroke-miterlimit="10" d="M306.221,393.865
		c1.209-0.29,2.407-0.581,3.595-0.87l-0.565-0.499L306.221,393.865z"/>
	<path fill="#FFED00" d="M328.317,384.341l-11.484,0.193l1.35-8.582l-7.919,8.582l-11.275-0.193l6.591,5.113l-5.863,5.966
		c2.171-0.516,4.352-1.035,6.506-1.555l3.029-1.369l0.565,0.499c2.12-0.517,4.194-1.023,6.193-1.515l0.197-2.026L328.317,384.341z"
		/>
	<polygon fill="#FFED00" points="253.374,99.305 264.204,102.595 257.401,98.076 247.433,99.551 249.346,106.747 	"/>
</g>
</svg>
