<?xml version="1.0" encoding="utf-8"?>
<!-- Generator: Adobe Illustrator 19.1.0, SVG Export Plug-In . SVG Version: 6.00 Build 0)  -->
<svg version="1.1" id="Calque_2" xmlns="http://www.w3.org/2000/svg" xmlns:xlink="http://www.w3.org/1999/xlink" x="0px" y="0px"
	 viewBox="0 0 500 500" style="enable-background:new 0 0 500 500;" xml:space="preserve">
<style type="text/css">
	.st0{fill:#E2001A;}
</style>
<g>
	<rect x="27" y="184.5" class="st0" width="39.5" height="95"/>
	<path class="st0" d="M334.9,279.6h39.5l-38.8-95h-12.1H304h-4.3l-39.5,95h34.1l3.7-12.1h33L334.9,279.6z M303.4,250l10.7-34.6
		l11.3,34.6H303.4z"/>
	<path class="st0" d="M184.9,279.6l-27.5-43.2c11.8-4.4,19.2-11.9,19.2-23.9c0-23.1-27.3-29.5-61-29.5c-13,0-25,2-34.9,5.3h-0.1
		v91.3h39.5v-37.6l0-5.9l22.1,43.5H184.9z M137.5,216.7c0,6.7-5.4,12.1-12.1,12.1h-4.5c-0.4,0-0.7-0.1-1-0.1v-28.1
		c0.3,0,0.7-0.1,1-0.1h4.5c6.7,0,12.1,5.4,12.1,12.1V216.7z"/>
	<path class="st0" d="M413.4,183.1c-14.8,0-26.5,1.8-35.3,5.2h0v91.3h39.5v-33.1c31.8-0.1,57-5,57.4-31.8
		C475.4,187.5,446,183.1,413.4,183.1z M435.4,216.5c0,6.7-5.4,12.1-12.1,12.1h-4.5c-0.4,0-0.7-0.1-1-0.1v-28.1c0.3,0,0.7-0.1,1-0.1
		h4.5c6.7,0,12.1,5.4,12.1,12.1V216.5z"/>
	<path class="st0" d="M265.2,245.7l-0.2,0c-3.1-7.4-10-14.3-19.6-19.8c0,0,0,0,0,0c-0.1-0.1-0.2-0.1-0.3-0.2c-0.3-0.2-0.7-0.3-1-0.6
		c-9.5-6.3-17.7-9.8-17.7-15.8s11-7.7,22.1-5.5c2.6,0.5,5,1.3,7.2,2.2l6.5-18.3c-5.4-2.1-11.3-3.8-17.6-4.8
		c-29.1-4.7-54.9,5.8-57.7,23.4c-0.4,2.7-0.2,5.5,0.4,8.2c0,0,0,0,0,0c1.8,7.3,7.4,14.3,15.5,19.9c0.3,0.2,0.6,0.3,0.9,0.5
		c0.7,0.5,1.4,1,2.1,1.4c0.2,0.1,0.5,0.2,0.7,0.4c8.2,5.6,18.1,11.5,18.1,17c0,6-11,7.7-22.1,5.5c-3.1-0.6-5.9-1.6-8.3-2.7l-8.5,19
		c5.6,2,11.7,3.6,18.1,4.7c31.9,5.1,60-5.3,62.9-23.3C267.3,253.1,266.7,249.3,265.2,245.7z"/>
	<g>
		<path class="st0" d="M41.3,304.5v4c-2.2,0.8-4.2,1.2-6,1.2c-3.1,0-5.6-0.8-7.5-2.5c-1.9-1.7-2.8-3.9-2.8-6.7
			c0-2.7,0.9-4.9,2.8-6.7c1.9-1.8,4.3-2.6,7.2-2.6c1.9,0,3.9,0.4,6,1.2v4.2c-1.5-0.8-3.1-1.2-4.6-1.2c-1.7,0-3,0.5-4,1.4
			c-1,0.9-1.5,2.2-1.5,3.7c0,1.6,0.5,2.8,1.5,3.8c1,1,2.3,1.4,3.9,1.4C37.5,305.8,39.2,305.4,41.3,304.5z"/>
		<path class="st0" d="M50.8,291.6v5.1h0.1c1.6-3.6,3.5-5.5,5.7-5.5c1,0,2.3,0.5,3.7,1.6l-1.5,5c-1.4-0.9-2.5-1.3-3.3-1.3
			c-1.3,0-2.4,0.8-3.3,2.4c-0.9,1.6-1.3,2.5-1.3,2.8v7.7h-5.6v-17.8L50.8,291.6L50.8,291.6z"/>
		<path class="st0" d="M79,303.9v3.5c-2.1,1.6-4.8,2.3-7.9,2.3c-3.1,0-5.6-0.8-7.5-2.5c-1.9-1.7-2.8-3.9-2.8-6.7
			c0-2.7,0.9-5,2.6-6.7c1.8-1.7,4-2.6,6.7-2.6c2.7,0,5,0.9,6.7,2.8c1.8,1.8,2.6,4.3,2.5,7.4H66.5c0.1,1.6,0.7,2.9,1.7,3.7
			c1,0.9,2.4,1.3,4.1,1.3C74.5,306.4,76.7,305.6,79,303.9z M66.6,298.4h7.7c-0.3-2.6-1.6-3.9-3.9-3.9
			C68.2,294.6,66.9,295.9,66.6,298.4z"/>
		<path class="st0" d="M101.1,305v3.1c-1.9,1.1-3.6,1.6-5.2,1.6c-1.8,0-2.8-0.7-3.1-2c-1.9,1.3-3.9,2-5.9,2c-1.4,0-2.6-0.4-3.5-1.3
			c-1-0.9-1.5-1.9-1.5-3c0-1.5,0.5-2.8,1.5-3.7c1-1,4-2.2,9.1-3.7c0.1-2-0.9-3-3.1-3c-2.4,0-4.6,1-6.6,3v-4.6
			c2.3-1.4,4.9-2.2,7.7-2.2c5,0,7.5,1.8,7.5,5.4v8.1c0,0.8,0.3,1.2,0.9,1.2C99.4,306,100.1,305.7,101.1,305z M92.4,305.1v-4.3
			c-1.9,0.7-3.2,1.2-3.9,1.8c-0.7,0.5-1,1.2-1,2c0,0.5,0.2,1,0.5,1.3c0.4,0.4,0.8,0.6,1.3,0.6C90.4,306.4,91.4,306,92.4,305.1z"/>
		<path class="st0" d="M116.2,291.6v3.8h-6.5v7.3c0,0.9,0.2,1.6,0.7,2.1s1.2,0.8,2,0.8c1.2,0,2.4-0.3,3.8-1v4.1
			c-1.8,0.7-3.5,1.1-5.2,1.1c-2.2,0-3.9-0.6-5.1-1.7c-1.2-1.1-1.8-2.8-1.8-5v-7.6h-2.5v-1.1l7.4-8.3h0.7v5.6L116.2,291.6
			L116.2,291.6z"/>
		<path class="st0" d="M118.9,285.8c0-0.9,0.3-1.6,0.9-2.2c0.6-0.6,1.3-0.9,2.2-0.9c0.9,0,1.6,0.3,2.2,0.9c0.6,0.6,0.9,1.3,0.9,2.2
			c0,0.8-0.3,1.6-0.9,2.2c-0.6,0.6-1.3,0.9-2.2,0.9c-0.8,0-1.6-0.3-2.2-0.9C119.2,287.4,118.9,286.7,118.9,285.8z M124.8,291.6v17.8
			h-5.6v-17.8L124.8,291.6L124.8,291.6z"/>
		<path class="st0" d="M135.1,291.6v2.5c1.6-1.9,3.6-2.9,5.8-2.9c1.8,0,3.4,0.6,4.6,1.8c1.2,1.2,1.9,2.9,1.9,5.1v11.3h-5.6v-10.9
			c0-2.4-0.9-3.6-2.8-3.6c-1.3,0-2.6,1-3.9,2.9v11.5h-5.6v-17.8L135.1,291.6L135.1,291.6z"/>
		<path class="st0" d="M170.1,291.6v3.8h-2.5c0.6,1,0.9,2,0.9,3c0,1.4-0.5,2.7-1.5,3.8c-1,1.2-2.6,1.9-4.6,2.1
			c-2,0.2-3.2,0.4-3.4,0.6c-0.3,0.2-0.4,0.5-0.4,0.8c0,0.3,0.2,0.6,0.5,0.8c0.4,0.2,1.7,0.4,4.2,0.6c2.4,0.2,4.1,0.8,5.1,1.9
			c0.9,1.1,1.4,2.2,1.4,3.4c0,1.9-0.8,3.4-2.4,4.4s-3.9,1.5-7,1.5c-3.1,0-5.5-0.5-7.1-1.4c-1.6-0.9-2.4-2.2-2.4-3.8
			c0-2.2,1.6-3.7,4.7-4.5c-1.4-0.4-2.1-1.2-2.1-2.3c0-1.3,1.1-2.2,3.2-2.7c-1.4-0.2-2.6-0.9-3.6-1.9c-0.9-1-1.4-2.2-1.4-3.6
			c0-1.7,0.7-3.2,2-4.5c1.4-1.3,3.3-2,5.9-2L170.1,291.6L170.1,291.6z M160.5,315c1.2,0,2.2-0.2,2.9-0.7c0.7-0.4,1.1-1,1.1-1.6
			c0-1.3-1.5-2-4.4-2c-1.3,0-2.4,0.2-3.1,0.6c-0.8,0.4-1.1,0.9-1.1,1.5C156,314.3,157.5,315,160.5,315z M160.1,294.9
			c-0.9,0-1.7,0.3-2.3,0.9c-0.6,0.6-0.9,1.4-0.9,2.3c0,0.9,0.3,1.6,1,2.3c0.6,0.6,1.4,1,2.3,1c0.9,0,1.6-0.3,2.3-1
			c0.6-0.7,0.9-1.5,0.9-2.4c0-0.8-0.3-1.6-0.9-2.2C161.7,295.2,161,294.9,160.1,294.9z"/>
		<path class="st0" d="M201,291.6l-11.9,26.3h-6l5.2-11.4l-7-14.9h6l3.8,9.2l4-9.2L201,291.6L201,291.6z"/>
		<path class="st0" d="M211.6,291.2c2.8,0,5.2,0.8,7.1,2.5c1.9,1.6,2.9,3.9,2.9,6.8c0,2.9-1,5.2-3,6.8c-2,1.6-4.3,2.4-7.1,2.4
			c-3,0-5.4-0.9-7.2-2.6c-1.9-1.7-2.8-3.9-2.8-6.7c0-2.8,1-5,2.9-6.7C206.3,292.1,208.7,291.2,211.6,291.2z M211.6,306.4
			c2.7,0,4-2,4-6.1c0-3.9-1.3-5.8-4-5.8c-1.3,0-2.3,0.5-3,1.5c-0.7,1-1.1,2.5-1.1,4.4C207.5,304.4,208.8,306.4,211.6,306.4z"/>
		<path class="st0" d="M237.6,309.4v-2.5c-1.6,1.9-3.6,2.9-5.7,2.9c-1.9,0-3.5-0.6-4.7-1.8c-1.2-1.2-1.8-2.8-1.8-5v-11.4h5.6v11
			c0,2.3,0.9,3.4,2.8,3.4c1.1,0,2-0.4,2.7-1.2c0.8-0.8,1.1-1.4,1.1-1.8v-11.3h5.6v17.8L237.6,309.4L237.6,309.4z"/>
		<path class="st0" d="M253.6,291.6v5.1h0.1c1.6-3.6,3.5-5.5,5.7-5.5c1,0,2.3,0.5,3.7,1.6l-1.6,5c-1.4-0.9-2.5-1.3-3.3-1.3
			c-1.3,0-2.4,0.8-3.3,2.4c-0.9,1.6-1.3,2.5-1.3,2.8v7.7H248v-17.8L253.6,291.6L253.6,291.6z"/>
		<path class="st0" d="M291.4,304.5v4c-2.2,0.8-4.2,1.2-6,1.2c-3.1,0-5.6-0.8-7.5-2.5c-1.9-1.7-2.8-3.9-2.8-6.7
			c0-2.7,0.9-4.9,2.8-6.7c1.9-1.8,4.3-2.6,7.2-2.6c1.9,0,3.9,0.4,6,1.2v4.2c-1.5-0.8-3.1-1.2-4.6-1.2c-1.7,0-3,0.5-4,1.4
			c-1,0.9-1.5,2.2-1.5,3.7c0,1.6,0.5,2.8,1.5,3.8c1,1,2.3,1.4,3.9,1.4C287.6,305.8,289.2,305.4,291.4,304.5z"/>
		<path class="st0" d="M304.3,291.2c2.8,0,5.2,0.8,7.1,2.5c1.9,1.6,2.9,3.9,2.9,6.8c0,2.9-1,5.2-3,6.8c-2,1.6-4.3,2.4-7,2.4
			c-3,0-5.4-0.9-7.2-2.6s-2.8-3.9-2.8-6.7c0-2.8,1-5,2.9-6.7C299,292.1,301.4,291.2,304.3,291.2z M304.3,306.4c2.7,0,4-2,4-6.1
			c0-3.9-1.3-5.8-4-5.8c-1.3,0-2.3,0.5-3,1.5c-0.7,1-1.1,2.5-1.1,4.4C300.2,304.4,301.6,306.4,304.3,306.4z"/>
		<path class="st0" d="M323.8,291.6v2.3c1.9-1.8,4-2.7,6.2-2.7c3.1,0,5.2,1.3,6.4,3.8c2.1-2.5,4.5-3.8,7-3.8c2,0,3.7,0.6,5,1.9
			c1.3,1.2,1.9,2.9,1.9,4.9v11.4h-5.6V299c0-1.3-0.3-2.2-0.9-2.9c-0.6-0.7-1.4-1-2.4-1c-1.6,0-3.1,1-4.4,3v11.4h-5.6v-10.5
			c0-1.2-0.3-2.2-0.9-2.9c-0.6-0.7-1.4-1-2.5-1c-1.5,0-2.9,0.8-4.3,2.5v11.9h-5.6v-17.8L323.8,291.6L323.8,291.6z"/>
		<path class="st0" d="M361.5,291.6h2.5v3.8h-2.5v14h-5.6v-14h-2.5v-3.8h2.5v-0.9c0-2.5,0.7-4.5,2.1-5.9s3.3-2.1,5.7-2.1
			c0.6,0,1.7,0.1,3.4,0.3v4.5c-1.2-0.2-2-0.2-2.5-0.2c-2.1,0-3.1,1-3.1,3.1L361.5,291.6L361.5,291.6z"/>
		<path class="st0" d="M375.5,291.2c2.8,0,5.2,0.8,7.1,2.5c1.9,1.6,2.9,3.9,2.9,6.8c0,2.9-1,5.2-3,6.8c-2,1.6-4.3,2.4-7,2.4
			c-3,0-5.4-0.9-7.2-2.6s-2.8-3.9-2.8-6.7c0-2.8,1-5,2.9-6.7C370.2,292.1,372.6,291.2,375.5,291.2z M375.5,306.4c2.7,0,4-2,4-6.1
			c0-3.9-1.3-5.8-4-5.8c-1.3,0-2.3,0.5-3,1.5c-0.7,1-1.1,2.5-1.1,4.4C371.4,304.4,372.8,306.4,375.5,306.4z"/>
		<path class="st0" d="M395,291.6v5.1h0.1c1.6-3.6,3.5-5.5,5.7-5.5c1,0,2.3,0.5,3.7,1.6l-1.5,5c-1.4-0.9-2.5-1.3-3.3-1.3
			c-1.3,0-2.4,0.8-3.3,2.4c-0.9,1.6-1.3,2.5-1.3,2.8v7.7h-5.6v-17.8L395,291.6L395,291.6z"/>
		<path class="st0" d="M420.1,291.6v3.8h-6.5v7.3c0,0.9,0.2,1.6,0.7,2.1c0.5,0.5,1.2,0.8,2,0.8c1.2,0,2.4-0.3,3.8-1v4.1
			c-1.8,0.7-3.5,1.1-5.2,1.1c-2.2,0-3.9-0.6-5.1-1.7c-1.2-1.1-1.8-2.8-1.8-5v-7.6h-2.5v-1.1l7.4-8.3h0.7v5.6L420.1,291.6
			L420.1,291.6z"/>
	</g>
</g>
</svg>
