<?xml version="1.0" encoding="utf-8"?>
<!-- Generator: Adobe Illustrator 16.0.0, SVG Export Plug-In . SVG Version: 6.00 Build 0)  -->
<!DOCTYPE svg PUBLIC "-//W3C//DTD SVG 1.1//EN" "http://www.w3.org/Graphics/SVG/1.1/DTD/svg11.dtd">
<svg version="1.1" id="Calque_2" xmlns="http://www.w3.org/2000/svg" xmlns:xlink="http://www.w3.org/1999/xlink" x="0px" y="0px"
	 width="500px" height="500px" viewBox="0 0 500 500" enable-background="new 0 0 500 500" xml:space="preserve">
<g>
	<rect x="25" y="149.452" fill="#022169" width="450" height="201.096"/>
	<g>
		<polygon fill="#FFD02F" points="305.337,286.688 296.734,286.678 296.734,281.159 321.197,281.131 321.197,286.709 312.797,286.7 
			312.769,308.608 305.373,308.66 		"/>
		<polygon fill="#FFD02F" points="83.816,273.855 54.69,273.855 54.685,179.576 83.816,179.576 		"/>
		<rect x="309.983" y="179.576" fill="#FFD02F" width="29.148" height="94.28"/>
		<polyline fill="#FFD02F" points="406.934,229.333 406.934,179.576 430.442,179.576 430.442,273.855 406.787,273.855 
			373.226,219.061 373.26,219.061 373.26,273.855 349.756,273.855 349.756,179.576 377.104,179.576 406.903,229.333 		"/>
		<polygon fill="#FFD02F" points="278.715,179.576 265.65,233.996 265.379,233.996 254.286,179.576 232.481,179.576 
			221.475,233.996 221.18,233.996 208.123,179.576 180.898,179.576 206.066,273.861 231.354,273.861 243.418,222.623 
			255.487,273.861 280.782,273.861 305.927,179.576 		"/>
		<path fill="#FFD02F" d="M167.349,238.121l16.565,35.74h-30.899l-13.746-29.15h-15.397v29.15H94.597v-94.286
			c0,0,48.208-0.011,51.115,0c3.091,0.012,6.668,0.231,7.297,0.266c16.466,0.977,29.479,14.687,29.479,31.402
			c0,11.382-6.056,21.349-15.121,26.855 M139.24,224.498c6.87,0,12.446-5.576,12.446-12.451c0-6.876-5.576-12.451-12.446-12.451
			l-15.368,0.052v24.856L139.24,224.498z"/>
		<path fill="#FFD02F" d="M443.459,255.299c5.189,0,9.48,4.188,9.48,9.568c0,5.329-4.338,9.475-9.48,9.475
			c-5.177,0-9.516-4.146-9.516-9.475S438.23,255.299,443.459,255.299 M443.459,271.915c3.756,0,6.904-3.097,6.904-7.048
			c0-3.954-3.091-7.142-6.904-7.142c-3.808,0-6.943,3.145-6.943,7.142C436.516,268.87,439.703,271.915,443.459,271.915
			 M439.796,259.44h3.623c1.283,0,3.992,0,3.992,3.189c0,1.855-1.144,2.473-1.617,2.666l2.045,4.62h-2.763l-1.473-4.096h-1.236
			v4.096h-2.571V259.44z M442.367,264.104h1.092c1.052,0,1.428-0.664,1.428-1.52c0-1.427-0.994-1.427-1.525-1.427h-0.994V264.104z"
			/>
		<path fill="#FFD02F" d="M336.08,280.875c8.667,0.013,14.191,5.369,14.18,14.023c-0.012,8.631-5.541,13.982-14.201,13.964
			c-8.673,0-14.116-5.36-14.098-14.004C321.967,286.214,327.42,280.871,336.08,280.875 M336.059,303.257
			c4.35,0,6.834-2.921,6.834-8.373c0-5.465-2.501-8.386-6.813-8.389c-4.315,0-6.788,2.909-6.788,8.372
			C329.286,300.359,331.747,303.251,336.059,303.257"/>
		<path fill="#FFD02F" d="M367.766,280.848c8.66,0.012,14.185,5.36,14.179,14.02c-0.006,8.632-5.553,13.979-14.207,13.967
			c-8.667-0.006-14.104-5.36-14.092-14.005C353.646,286.186,359.099,280.842,367.766,280.848 M367.749,303.218
			c4.344,0.009,6.822-2.912,6.822-8.359c0.012-5.479-2.495-8.389-6.812-8.4c-4.311,0-6.789,2.912-6.789,8.377
			C360.965,300.329,363.432,303.218,367.749,303.218"/>
		<polygon fill="#FFD02F" points="384.723,281.119 391.975,281.119 391.957,302.747 405.598,302.759 405.598,308.633 384.7,308.614 
					"/>
		<path fill="#FFD02F" d="M414.282,299.394c0.081,3.017,1.878,4.582,5.321,4.582c3.026,0,4.633-0.988,4.633-2.617
			c0-0.896-0.427-1.552-1.091-1.884c-1.688-0.826-4.9-1.34-9.015-2.889c-4.071-1.52-6.192-4.076-6.187-7.364
			c0-4.974,4.212-8.291,11.26-8.285c6.864,0.012,11.047,3.48,11.047,8.757l-6.788-0.006c-0.307-2.471-1.832-3.617-4.738-3.629
			c-2.427,0.006-3.916,1.069-3.922,2.401c0,1.986,2.188,2.399,6.62,3.769c3.26,1.001,5.604,1.705,6.979,2.747
			c1.843,1.402,2.774,3.324,2.769,5.62c0,5.165-4.346,8.371-12.272,8.36c-7.332,0-11.14-3.155-11.562-9.568"/>
		<polygon fill="#FFD02F" points="54.465,281.033 54.465,287.345 276.374,287.345 302.593,320.66 431.263,320.66 431.263,314.757 
			305.447,314.757 279.021,281.033 		"/>
	</g>
</g>
</svg>
