<?xml version="1.0" encoding="utf-8"?>
<!-- Generator: Adobe Illustrator 21.0.2, SVG Export Plug-In . SVG Version: 6.00 Build 0)  -->
<svg version="1.1" id="Calque_1" xmlns="http://www.w3.org/2000/svg" xmlns:xlink="http://www.w3.org/1999/xlink" x="0px" y="0px"
	 viewBox="0 0 500 308" style="enable-background:new 0 0 500 308;" xml:space="preserve">
<style type="text/css">
	.st0{fill:#E32120;}
</style>
<path d="M53.3,70.8h35.1v118.7H53.3V70.8z"/>
<path class="st0" d="M107.4,150.2l33.3-2.2c0.7,5.7,2.2,10,4.4,13c3.6,4.8,8.8,7.2,15.5,7.2c5,0,8.9-1.2,11.6-3.7
	c2.7-2.5,4.1-5.3,4.1-8.5c0-3.1-1.3-5.8-3.9-8.3c-2.6-2.4-8.6-4.7-17.9-6.9c-15.4-3.6-26.3-8.4-32.8-14.4c-6.6-6-9.9-13.6-9.9-22.9
	c0-6.1,1.7-11.9,5.1-17.3c3.4-5.4,8.4-9.7,15.2-12.8c6.8-3.1,16.1-4.7,27.9-4.7c14.5,0,25.5,2.8,33.1,8.5
	c7.6,5.6,12.1,14.6,13.6,26.9l-33,2c-0.9-5.3-2.7-9.2-5.5-11.7c-2.8-2.4-6.7-3.6-11.6-3.6c-4.1,0-7.1,0.9-9.2,2.7
	c-2.1,1.8-3.1,4-3.1,6.6c0,1.9,0.9,3.6,2.5,5.1c1.6,1.6,5.6,3,11.7,4.4c15.3,3.5,26.3,7,32.9,10.5c6.6,3.5,11.4,7.9,14.5,13.2
	c3,5.2,4.5,11.1,4.5,17.6c0,7.6-2,14.6-6,21.1c-4,6.4-9.6,11.3-16.9,14.6c-7.2,3.3-16.3,5-27.3,5c-19.3,0-32.6-3.9-40-11.7
	C112.6,172.1,108.4,162.2,107.4,150.2z"/>
<path d="M232.8,70.8h86v25.3h-50.9V115h46.7v24.2h-46.7v23.4h52.6v26.9h-87.7V70.8z"/>
<path d="M339.6,130.2c0-19.4,4.8-34.5,14.3-45.3s22.8-16.2,39.8-16.2c17.5,0,30.9,5.3,40.4,15.9s14.2,25.5,14.2,44.6
	c0,13.9-2.1,25.3-6.2,34.1c-4.1,9-10.1,15.9-17.9,20.8c-7.8,4.9-17.5,7.4-29.1,7.4c-11.8,0-21.6-2.1-29.4-6.4
	c-7.8-4.3-14-11-18.9-20.2C342,155.7,339.6,144.1,339.6,130.2z M372,130.4c0,12,2,20.6,5.9,25.8c3.9,5.2,9.3,7.9,16.1,7.9
	c7,0,12.4-2.6,16.2-7.7c3.8-5.1,5.7-14.3,5.7-27.6c0-11.2-2-19.3-6-24.5s-9.4-7.7-16.2-7.7c-6.5,0-11.8,2.6-15.7,7.9
	C374,109.6,372,118.3,372,130.4z"/>
<rect x="52.3" y="32.6" class="st0" width="163.4" height="23.3"/>
<path d="M97.5,239.3c-0.4-7.1-0.8-15.7-0.8-21.9h-0.2c-1.8,5.9-3.8,12.3-6.4,19.3l-9,24.6h-5l-8.3-24.2c-2.4-7.2-4.4-13.7-5.8-19.7
	h-0.2c-0.2,6.3-0.5,14.8-1,22.4l-1.4,21.8h-6.2l3.5-50.7h8.4l8.7,24.5c2.1,6.2,3.8,11.8,5.1,17.1H79c1.4-5.1,3.2-10.7,5.4-17.1
	l9-24.5h8.4l3.2,50.7h-6.5L97.5,239.3z"/>
<path d="M141.1,252.8c0,3.2,0.1,6.2,0.5,8.7h-5.9l-0.6-4.6h-0.2c-2,2.9-5.9,5.4-11.1,5.4c-7.4,0-11.1-5.2-11.1-10.5
	c0-8.8,7.8-13.6,21.9-13.5v-0.8c0-3-0.8-8.5-8.3-8.4c-3.5,0-7,1-9.6,2.7l-1.5-4.4c3-1.9,7.5-3.2,12-3.2c11.2,0,13.9,7.6,13.9,14.9
	L141.1,252.8L141.1,252.8z M134.6,243c-7.2-0.1-15.4,1.1-15.4,8.2c0,4.4,2.9,6.3,6.2,6.3c4.8,0,7.9-3,9-6.1c0.2-0.7,0.3-1.4,0.3-2.1
	V243H134.6z"/>
<path d="M183.2,208.1v44c0,3.2,0.1,6.9,0.3,9.4h-5.9l-0.3-6.3h-0.1c-2,4.1-6.4,7.2-12.3,7.2c-8.8,0-15.7-7.5-15.7-18.5
	c-0.1-12.2,7.5-19.6,16.3-19.6c5.6,0,9.4,2.6,11,5.5h0.1v-21.7H183.2L183.2,208.1z M176.6,240c0-0.9-0.1-2-0.3-2.9
	c-1-4.1-4.6-7.6-9.6-7.6c-6.9,0-10.9,6-10.9,14c0,7.5,3.7,13.5,10.8,13.5c4.4,0,8.5-3,9.7-7.9c0.2-0.9,0.3-1.8,0.3-2.9V240
	L176.6,240z"/>
<path d="M197.9,244.5c0.1,9,5.8,12.6,12.4,12.6c4.7,0,7.7-0.8,10.1-1.8l1.2,4.7c-2.3,1.1-6.4,2.3-12.2,2.3
	c-11.1,0-17.9-7.5-17.9-18.4c0-11.1,6.5-19.7,17.2-19.7c11.9,0,15,10.5,15,17.2c0,1.4-0.1,2.4-0.2,3.2L197.9,244.5z M217.3,239.8
	c0.1-4.1-1.7-10.8-9.1-10.8c-6.8,0-9.6,6.2-10.2,10.8H217.3z"/>
<path d="M251,218.5c2.7,0,4.4-2,4.4-4.3s-1.6-4.2-4.2-4.2c-2.6,0-4.3,1.9-4.3,4.2S248.5,218.5,251,218.5z"/>
<rect x="247.8" y="225.1" width="6.6" height="36.4"/>
<path d="M265.4,235c0-3.8-0.1-6.9-0.3-9.9h5.9l0.4,5.9h0.1c1.8-3.4,6-6.8,12-6.8c5,0,12.9,3,12.9,15.5v21.8h-6.6v-21
	c0-5.9-2.2-10.8-8.4-10.8c-4.3,0-7.7,3.1-8.9,6.8c-0.3,0.8-0.5,2-0.5,3.1v22h-6.6V235L265.4,235z"/>
<path d="M329.9,210.8v50.7h-6.6v-50.7H329.9z"/>
<path d="M350.3,216.4v8.7h9.5v5h-9.5v19.6c0,4.5,1.3,7.1,5,7.1c1.8,0,2.9-0.1,3.8-0.5l0.3,5c-1.3,0.5-3.3,0.9-5.9,0.9
	c-3.1,0-5.6-1.1-7.1-2.8c-1.8-2-2.6-5.3-2.6-9.6v-19.9h-5.6v-5h5.6v-6.7L350.3,216.4z"/>
<path d="M392.9,252.8c0,3.2,0.1,6.2,0.5,8.7h-5.9l-0.6-4.6h-0.2c-2,2.9-5.9,5.4-11.1,5.4c-7.4,0-11.1-5.2-11.1-10.5
	c0-8.8,7.8-13.6,21.9-13.5v-0.8c0-3-0.8-8.5-8.3-8.4c-3.5,0-7,1-9.6,2.7l-1.5-4.4c3-1.9,7.5-3.2,12-3.2c11.2,0,13.9,7.6,13.9,14.9
	V252.8L392.9,252.8z M386.5,243c-7.2-0.1-15.4,1.1-15.4,8.2c0,4.4,2.9,6.3,6.2,6.3c4.8,0,7.9-3,9-6.1c0.2-0.7,0.3-1.4,0.3-2.1V243
	H386.5z"/>
<path d="M403.5,208.1h6.6v53.4h-6.6V208.1z"/>
<path d="M423.6,225.1l7.9,21.5c0.9,2.4,1.8,5.3,2.4,7.5h0.1c0.7-2.2,1.4-5,2.3-7.6l7.2-21.4h7l-9.9,26c-4.7,12.5-8,18.9-12.5,22.9
	c-3.3,2.8-6.5,3.9-8.1,4.2l-1.7-5.6c1.7-0.5,3.8-1.5,5.8-3.2c1.8-1.4,4-4,5.6-7.4c0.3-0.7,0.5-1.1,0.5-1.6c0-0.4-0.1-0.9-0.5-1.7
	l-13.4-33.6H423.6L423.6,225.1z"/>
</svg>
