<?xml version="1.0" encoding="utf-8"?>
<!-- Generator: Adobe Illustrator 15.0.0, SVG Export Plug-In . SVG Version: 6.00 Build 0)  -->
<!DOCTYPE svg PUBLIC "-//W3C//DTD SVG 1.1//EN" "http://www.w3.org/Graphics/SVG/1.1/DTD/svg11.dtd">
<svg version="1.1" id="Calque_1" xmlns="http://www.w3.org/2000/svg" xmlns:xlink="http://www.w3.org/1999/xlink" x="0px" y="0px"
	 width="500px" height="500px" viewBox="0 0 500 500" enable-background="new 0 0 500 500" xml:space="preserve">
<g>
	<path d="M53.309,166.786h35.093v118.743H53.309V166.786z"/>
	<path fill="#E32120" d="M107.412,246.244l33.314-2.185c0.72,5.668,2.189,9.989,4.408,12.958c3.606,4.802,8.759,7.206,15.457,7.206
		c4.998,0,8.851-1.226,11.557-3.688c2.704-2.455,4.056-5.303,4.056-8.543c0-3.076-1.285-5.827-3.862-8.263
		c-2.578-2.426-8.555-4.721-17.938-6.882c-15.352-3.618-26.3-8.423-32.846-14.415c-6.599-5.993-9.893-13.639-9.893-22.926
		c0-6.098,1.684-11.865,5.062-17.291c3.372-5.429,8.449-9.691,15.228-12.795c6.776-3.106,16.061-4.664,27.862-4.664
		c14.478,0,25.523,2.825,33.124,8.467c7.603,5.645,12.12,14.622,13.566,26.93l-33.01,2.025c-0.878-5.342-2.717-9.23-5.523-11.662
		c-2.811-2.43-6.688-3.644-11.631-3.644c-4.075,0-7.139,0.904-9.2,2.713c-2.063,1.808-3.092,4.009-3.092,6.6
		c0,1.892,0.85,3.597,2.548,5.105c1.65,1.567,5.568,3.024,11.747,4.374c15.31,3.457,26.273,6.951,32.896,10.489
		c6.619,3.537,11.439,7.923,14.452,13.164c3.011,5.234,4.521,11.094,4.521,17.573c0,7.612-2.009,14.636-6.027,21.059
		c-4.021,6.426-9.638,11.302-16.852,14.619c-7.218,3.317-16.311,4.98-27.288,4.98c-19.271,0-32.616-3.884-40.036-11.661
		C112.591,268.113,108.393,258.231,107.412,246.244z"/>
	<path d="M232.75,166.786h86.023v25.351h-50.93v18.874h46.678v24.221h-46.678v23.405h52.631v26.893H232.75V166.786z"/>
	<path d="M339.616,226.24c0-19.388,4.771-34.483,14.315-45.277c9.538-10.804,22.818-16.205,39.847-16.205
		c17.456,0,30.915,5.307,40.353,15.92c9.451,10.611,14.169,25.472,14.169,44.586c0,13.882-2.064,25.259-6.188,34.14
		c-4.125,8.884-10.09,15.796-17.888,20.74c-7.797,4.937-17.52,7.407-29.15,7.407c-11.835,0-21.625-2.13-29.374-6.399
		c-7.757-4.265-14.039-11.013-18.858-20.249C342.025,251.669,339.616,240.114,339.616,226.24z M372.029,226.402
		c0,11.986,1.97,20.595,5.905,25.833c3.933,5.236,9.285,7.86,16.061,7.86c6.966,0,12.357-2.566,16.171-7.698
		c3.815-5.13,5.724-14.336,5.724-27.62c0-11.175-1.993-19.344-5.977-24.499c-3.981-5.156-9.379-7.736-16.202-7.736
		c-6.539,0-11.782,2.622-15.745,7.856C374.005,205.637,372.029,214.307,372.029,226.402z"/>
	<rect x="52.285" y="128.64" fill="#E32120" width="163.421" height="23.32"/>
	<g>
		<path d="M97.467,335.311c-0.376-7.075-0.828-15.656-0.828-21.904h-0.15c-1.807,5.871-3.839,12.27-6.397,19.27l-8.958,24.614
			h-4.968l-8.279-24.162c-2.409-7.227-4.366-13.7-5.796-19.722h-0.151c-0.15,6.323-0.526,14.753-0.979,22.431l-1.354,21.754h-6.247
			l3.537-50.733h8.355l8.656,24.539c2.107,6.247,3.764,11.817,5.118,17.087h0.15c1.355-5.119,3.162-10.689,5.42-17.087l9.032-24.539
			h8.355l3.161,50.733h-6.473L97.467,335.311z"/>
		<path d="M141.107,348.859c0,3.161,0.15,6.247,0.527,8.731h-5.946l-0.603-4.592h-0.226c-1.957,2.86-5.946,5.42-11.141,5.42
			c-7.376,0-11.14-5.194-11.14-10.463c0-8.807,7.828-13.624,21.903-13.549v-0.753c0-3.011-0.827-8.506-8.279-8.431
			c-3.463,0-7,0.979-9.56,2.71l-1.506-4.44c3.012-1.882,7.452-3.162,12.044-3.162c11.216,0,13.925,7.603,13.925,14.904V348.859z
			 M134.635,338.999c-7.227-0.15-15.431,1.129-15.431,8.204c0,4.366,2.86,6.323,6.172,6.323c4.817,0,7.903-3.011,8.957-6.098
			c0.227-0.677,0.302-1.43,0.302-2.107V338.999z"/>
		<path d="M183.18,304.148v44.033c0,3.237,0.075,6.925,0.302,9.409h-5.947l-0.301-6.323h-0.15
			c-2.032,4.065-6.398,7.151-12.345,7.151c-8.807,0-15.656-7.452-15.656-18.517c-0.075-12.194,7.527-19.571,16.334-19.571
			c5.646,0,9.409,2.635,10.989,5.495h0.15v-21.678H183.18z M176.556,335.988c0-0.903-0.075-1.957-0.301-2.86
			c-0.979-4.141-4.592-7.603-9.56-7.603c-6.85,0-10.914,6.021-10.914,14c0,7.452,3.688,13.549,10.764,13.549
			c4.441,0,8.506-3.011,9.71-7.903c0.226-0.903,0.301-1.807,0.301-2.86V335.988z"/>
		<path d="M197.93,340.504c0.15,8.958,5.796,12.646,12.419,12.646c4.742,0,7.678-0.827,10.087-1.806l1.204,4.666
			c-2.333,1.054-6.397,2.334-12.193,2.334c-11.141,0-17.915-7.452-17.915-18.366c0-11.065,6.549-19.722,17.162-19.722
			c11.893,0,14.979,10.463,14.979,17.162c0,1.354-0.075,2.409-0.226,3.161L197.93,340.504z M217.275,335.762
			c0.075-4.14-1.731-10.764-9.108-10.764c-6.774,0-9.635,6.173-10.161,10.764H217.275z"/>
		<path d="M250.99,314.46c-2.484,0-4.139-1.957-4.139-4.29c0-2.334,1.73-4.216,4.29-4.216c2.56,0,4.216,1.882,4.216,4.216
			c0,2.333-1.656,4.29-4.291,4.29H250.99z M247.829,357.591v-36.432h6.624v36.432H247.829z"/>
		<path d="M265.44,331.02c0-3.839-0.075-6.85-0.302-9.86h5.871l0.377,5.946h0.15c1.807-3.387,6.021-6.774,12.044-6.774
			c5.043,0,12.871,3.011,12.871,15.506v21.754h-6.624V336.59c0-5.871-2.183-10.839-8.431-10.839c-4.29,0-7.678,3.086-8.882,6.774
			c-0.301,0.828-0.451,2.032-0.451,3.086v21.979h-6.624V331.02z"/>
		<path d="M329.942,306.857v50.733h-6.624v-50.733H329.942z"/>
		<path d="M350.328,312.428v8.731h9.484v5.043h-9.484v19.646c0,4.516,1.279,7.075,4.968,7.075c1.807,0,2.86-0.15,3.839-0.451
			l0.301,5.043c-1.279,0.451-3.312,0.903-5.871,0.903c-3.086,0-5.569-1.054-7.15-2.785c-1.807-2.032-2.56-5.27-2.56-9.56v-19.872
			h-5.646v-5.043h5.646v-6.699L350.328,312.428z"/>
		<path d="M392.929,348.859c0,3.161,0.15,6.247,0.527,8.731h-5.946l-0.603-4.592h-0.226c-1.957,2.86-5.946,5.42-11.141,5.42
			c-7.376,0-11.14-5.194-11.14-10.463c0-8.807,7.828-13.624,21.903-13.549v-0.753c0-3.011-0.827-8.506-8.279-8.431
			c-3.463,0-7,0.979-9.56,2.71l-1.506-4.44c3.012-1.882,7.452-3.162,12.044-3.162c11.216,0,13.925,7.603,13.925,14.904V348.859z
			 M386.456,338.999c-7.227-0.15-15.431,1.129-15.431,8.204c0,4.366,2.86,6.323,6.172,6.323c4.817,0,7.903-3.011,8.957-6.098
			c0.227-0.677,0.302-1.43,0.302-2.107V338.999z"/>
		<path d="M403.539,304.148h6.624v53.442h-6.624V304.148z"/>
		<path d="M423.559,321.159l7.903,21.528c0.903,2.408,1.807,5.269,2.409,7.451h0.15c0.678-2.183,1.431-4.968,2.333-7.603
			l7.227-21.377h7l-9.936,25.969c-4.742,12.495-7.979,18.894-12.495,22.883c-3.312,2.785-6.474,3.914-8.129,4.215l-1.656-5.57
			c1.656-0.451,3.839-1.505,5.796-3.236c1.807-1.43,3.989-3.989,5.57-7.377c0.301-0.677,0.526-1.129,0.526-1.58
			c0-0.377-0.15-0.903-0.526-1.656l-13.398-33.646H423.559z"/>
	</g>
</g>
</svg>
