<?xml version="1.0" encoding="utf-8"?>
<!-- Generator: Adobe Illustrator 21.0.2, SVG Export Plug-In . SVG Version: 6.00 Build 0)  -->
<svg version="1.1" id="Calque_1" xmlns="http://www.w3.org/2000/svg" xmlns:xlink="http://www.w3.org/1999/xlink" x="0px" y="0px"
	 viewBox="0 0 500 220" style="enable-background:new 0 0 500 220;" xml:space="preserve">
<style type="text/css">
	.st0{fill:#4BA1D4;}
	.st1{fill:#6D6D6C;}
	.st2{fill:url(#SVGID_1_);}
	.st3{fill:url(#SVGID_2_);}
	.st4{fill:url(#SVGID_3_);}
	.st5{fill:url(#SVGID_4_);}
	.st6{fill:#824992;}
	.st7{fill:url(#SVGID_5_);}
	.st8{fill:url(#SVGID_6_);}
	.st9{fill:url(#SVGID_7_);}
	.st10{fill:url(#SVGID_8_);}
	.st11{fill:url(#SVGID_9_);}
	.st12{fill:url(#SVGID_10_);}
	.st13{fill:url(#SVGID_11_);}
	.st14{fill:url(#SVGID_12_);}
	.st15{fill:url(#SVGID_13_);}
	.st16{fill:url(#SVGID_14_);}
	.st17{fill:url(#SVGID_15_);}
	.st18{fill:url(#SVGID_16_);}
</style>
<polygon class="st0" points="211.3,193.7 34.6,193.7 34.6,92.2 314.1,92.2 "/>
<path class="st1" d="M421.4,110.6c2.4-1.4,32.6-18.3,42.9-25l0.2-0.2c3.3-5,4.4-10.1,3.3-15.1c-1.9-9.1-10.4-14.7-10.8-15l-0.5-0.3
	l-9.9,8.7l1.1,0.5c2.1,0.9,3,2.1,3.4,2.7l-3.8,1.6C439,65.4,430,49.6,430,49.4l0.3,5.3l-3.1-1l-3.2,3.8l-7.4,4.9l-2.8-1.7l1.4-0.6
	l-2.1-6.1l3.9-3l-5.8-2.9c1.2-15.5-13.4-18.9-13.6-18.9l-0.2-0.1L338,55l0.2,0.6l-0.4-0.4c-0.7,0.9-7.2,9-7.2,12.7
	c0,0.3-0.1,1-0.2,2c-2.8,29,0.9,48.8,11,58.9c4.9,4.9,11.2,7.3,18.8,7.3c1.2,0,2.5-0.1,3.8-0.2C389.5,133,416.2,127.6,421.4,110.6z
	 M453.2,67.9l-0.1-0.6c0-0.1-0.5-2.2-3.5-3.9l7.2-6.3c1.2,0.9,4.6,3.6,7.1,7.5c4,6.4,3.8,13.1-0.5,19.9c-9.7,6.2-36,21-41.8,24.3
	c-0.2-2.6-1.3-6.3-4.7-7.7c0.7-1.8,1.3-1.9,1.2-2l6.1,3.5l-3.2-5.5l0.8-0.7c0.8,0.1,3.6-0.1,3.8,0.6c-0.6-2.1-1.4-3.2-2-3.9l3.6-2.4
	c0,0,0.3-0.1,0.7-0.1c0.8,0,1.5,0.4,2.1,1.1l0.4,0.6l0.6-0.4c1.1-0.8,1.5-1.9,1.1-3.1c-0.4-1.4-1.8-2.6-3.4-3
	c2.8-2.5,4.7-4.2,5.5-4.9l5.4,3.5l-0.3-1.8c-0.3-1.8-1.7-4.8-4.6-5.8c2.9-2.2,4.4-3.2,5.1-3.5c1.2,0.8,4.8,3.5,6,7.1l0.4,1.3l0.9-1
	c1.4-1.6,2.4-7.4,1.3-10c-0.1-0.2-0.2-0.4-0.3-0.6L453.2,67.9z M397.6,30.7c1.9,0.5,13.5,4,12.1,17.7l-0.1,0.5l4.5,2.3l-2.8,2.2
	l2,5.8l-1.3,0.6l-7.1-3.9l-3.8,2.9v2l-11.4,0.7l-4.3-3.8l1.6,4.9l-3.2,0.2l-1.6-2.5l-1.4,0.5l0.2,3.1l-2,0.2l-3.2-3.4l-5.6-4.2
	l-0.3,5.7l-3.3,2.1l-2.9-2.5l-0.2,5l-7.5,4.6c-0.8-3.7-4.1-15-14.2-16.3L397.6,30.7z M331.9,70.1c0.1-1.1,0.2-1.9,0.2-2.2
	c0-2.5,4.6-8.9,6.7-11.4c13.5-1.2,16.1,16,16.2,16.1l0.2,1.2l10.1-6.3l0.1-3l0.9,1.8l5.5-3.5l0.2-3.6l3.1,2.4l3.6,3.9l4.2-0.4
	l-0.1-1.6l0.4,0.7l6.1-0.3l-0.4-1.3l0.4,0.4l13.5-0.8v-2.7l2.4-1.8l6.9,3.8l0.9-0.4l3.9,3.1l8.4-5.5l2.7-3.2l4.3,1.3l-0.2-3.8
	c2.7,5,8.2,13.9,14.5,16.7l0.1,0.8c0.2,0,0.4,0.2,0.5,0.6c0.7,1.7,0.3,5.1-0.4,7.1c-2.1-4-6.2-6.5-6.4-6.6l-0.3-0.2l-0.4,0.2
	c-0.1,0-2,0.9-7.2,5l-1.7,1.4h2.2c2.2,0,3.5,1.4,4.2,2.7l-2.9-1.9l-0.4,0.4c0,0-2.6,2.3-7.2,6.5l-1.8,1.6l2.4-0.2
	c1.6-0.2,3.3,1.1,3.6,2.2c0.1,0.3,0.1,0.6-0.1,0.8c-1.8-1.7-3.6-1-4.1-0.8l-5.8,3.9l1.3,0.6c0,0,0.5,0.2,1.2,1.3
	c-0.8-0.2-1.5-0.2-1.7-0.2h-0.3l-2.3,1.9l1,1.7l-1.1-0.6c-0.1-0.1-0.3-0.2-0.7-0.2c-1.2,0-2.2,1.2-3,3.7l-0.3,0.8l0.8,0.2
	c1.6,0.5,2.6,1.5,3.3,2.6c-0.8,6.9-5.9,12.3-7,13l-0.3,0.2c-6.7,4.5-8.1,5-8.3,5.1c-0.8,0.2-2.4-0.1-3.5-0.2
	c-0.6-0.1-1.1-0.2-1.4-0.2c-0.5,0-1.5,0.4-3.3,1.1c-0.8,0.3-1.9,0.8-2.1,0.8c-0.3,0-1.6-0.6-2.5-1.1l-3.9-2.2l-1.4,3.2l-3.4,1
	l-4.6-0.3v-4.5l-5.6-3.7l-9.5,10.7l-13.8,1.3l-3.1,0.9c-1-0.7-2.1-1.4-3-2.3C335.7,121.1,328.4,105.6,331.9,70.1z M363.8,134.4
	c-7.1,0.7-13-0.7-17.9-3.9l16.7-1.1h0.3l9.1-10.2l3.7,2.5v5.1l6.1,0.4h0.1l4.4-1.3l1-2.3l2.4,1.3c0.9,0.5,2.6,1.2,3.3,1.2
	c0.4,0,1-0.2,2.7-0.9c0.9-0.4,2.4-1,2.8-1c0.2,0,0.7,0.1,1.2,0.2c1.3,0.2,2.9,0.4,4,0.2c0.6-0.1,2.2-0.8,8.9-5.3l0.3-0.2
	c1-0.7,5.5-4,7.3-9.8c0,0.3,0,0.4,0,0.5C415.3,126.3,388.9,131.5,363.8,134.4z"/>
<linearGradient id="SVGID_1_" gradientUnits="userSpaceOnUse" x1="436.1548" y1="2229.1958" x2="445.8446" y2="2255.1643" gradientTransform="matrix(1 0 0 1 0 -2158.3301)">
	<stop  offset="0" style="stop-color:#FFF3D8"/>
	<stop  offset="1" style="stop-color:#B86432"/>
</linearGradient>
<path class="st2" d="M453.2,67.9l-0.1-0.6c0-0.1-0.5-2.2-3.5-3.9l7.2-6.3c1.2,0.9,4.6,3.6,7.1,7.5c4,6.4,3.8,13.1-0.5,19.9
	c-9.7,6.2-36,21-41.8,24.3c-0.2-2.6-1.3-6.3-4.7-7.7c0.7-1.8,1.3-1.9,1.2-2l6.1,3.5l-3.2-5.5l0.8-0.7c0.8,0.1,3.6-0.1,3.8,0.6
	c-0.6-2.1-1.4-3.2-2-3.9l3.6-2.4c0,0,0.3-0.1,0.7-0.1c0.8,0,1.5,0.4,2.1,1.1l0.4,0.6l0.6-0.4c1.1-0.8,1.5-1.9,1.1-3.1
	c-0.4-1.4-1.8-2.6-3.4-3c2.8-2.5,4.7-4.2,5.5-4.9l5.4,3.5l-0.3-1.8c-0.3-1.8-1.7-4.8-4.6-5.8c2.9-2.2,4.4-3.2,5.1-3.5
	c1.2,0.8,4.8,3.5,6,7.1l0.4,1.3l0.9-1c1.4-1.6,2.4-7.4,1.3-10c-0.1-0.2-0.2-0.4-0.3-0.6L453.2,67.9z"/>
<linearGradient id="SVGID_2_" gradientUnits="userSpaceOnUse" x1="396.2489" y1="2270.321" x2="376.8684" y2="2200.5513" gradientTransform="matrix(1 0 0 1 0 -2158.3301)">
	<stop  offset="6.100000e-03" style="stop-color:#FFF3D8"/>
	<stop  offset="5.260000e-02" style="stop-color:#F9E6C9"/>
	<stop  offset="0.2152" style="stop-color:#E5BF9C"/>
	<stop  offset="0.3783" style="stop-color:#D59E76"/>
	<stop  offset="0.5395" style="stop-color:#C88558"/>
	<stop  offset="0.6981" style="stop-color:#BF7343"/>
	<stop  offset="0.853" style="stop-color:#BA6836"/>
	<stop  offset="1" style="stop-color:#B86432"/>
</linearGradient>
<path class="st3" d="M331.9,70.1c0.1-1.1,0.2-1.9,0.2-2.2c0-2.5,4.6-8.9,6.7-11.4c13.5-1.2,16.1,16,16.2,16.1l0.2,1.2l10.1-6.3
	l0.1-3l0.9,1.8l5.5-3.5l0.2-3.6l3.1,2.4l3.6,3.9l4.2-0.4l-0.1-1.6l0.4,0.7l6.1-0.3l-0.4-1.3l0.4,0.4l13.5-0.8v-2.7l2.4-1.8l6.9,3.8
	l0.9-0.4l3.9,3.1l8.4-5.5l2.7-3.2l4.3,1.3l-0.2-3.8c2.7,5,8.2,13.9,14.5,16.7l0.1,0.8c0.2,0,0.4,0.2,0.5,0.6
	c0.7,1.7,0.3,5.1-0.4,7.1c-2.1-4-6.2-6.5-6.4-6.6l-0.3-0.2l-0.4,0.2c-0.1,0-2,0.9-7.2,5l-1.7,1.4h2.2c2.2,0,3.5,1.4,4.2,2.7
	l-2.9-1.9l-0.4,0.4c0,0-2.6,2.3-7.2,6.5l-1.8,1.6l2.4-0.2c1.6-0.2,3.3,1.1,3.6,2.2c0.1,0.3,0.1,0.6-0.1,0.8c-1.8-1.7-3.6-1-4.1-0.8
	l-5.8,3.9l1.3,0.6c0,0,0.5,0.2,1.2,1.3c-0.8-0.2-1.5-0.2-1.7-0.2h-0.3l-2.3,1.9l1,1.7l-1.1-0.6c-0.1-0.1-0.3-0.2-0.7-0.2
	c-1.2,0-2.2,1.2-3,3.7l-0.3,0.8l0.8,0.2c1.6,0.5,2.6,1.5,3.3,2.6c-0.8,6.9-5.9,12.3-7,13l-0.3,0.2c-6.7,4.5-8.1,5-8.3,5.1
	c-0.8,0.2-2.4-0.1-3.5-0.2c-0.6-0.1-1.1-0.2-1.4-0.2c-0.5,0-1.5,0.4-3.3,1.1c-0.8,0.3-1.9,0.8-2.1,0.8c-0.3,0-1.6-0.6-2.5-1.1
	l-3.9-2.2l-1.4,3.2l-3.4,1l-4.6-0.3v-4.5l-5.6-3.7l-9.5,10.7l-13.8,1.3l-3.1,0.9c-1-0.7-2.1-1.4-3-2.3
	C335.7,121.1,328.4,105.6,331.9,70.1z"/>
<linearGradient id="SVGID_3_" gradientUnits="userSpaceOnUse" x1="386.6143" y1="2291.062" x2="392.4291" y2="2311.9956" gradientTransform="matrix(1 0 0 1 0 -2158.3301)">
	<stop  offset="6.100000e-03" style="stop-color:#FFF3D8"/>
	<stop  offset="5.260000e-02" style="stop-color:#F9E6C9"/>
	<stop  offset="0.2152" style="stop-color:#E5BF9C"/>
	<stop  offset="0.3783" style="stop-color:#D59E76"/>
	<stop  offset="0.5395" style="stop-color:#C88558"/>
	<stop  offset="0.6981" style="stop-color:#BF7343"/>
	<stop  offset="0.853" style="stop-color:#BA6836"/>
	<stop  offset="1" style="stop-color:#B86432"/>
</linearGradient>
<path class="st4" d="M363.8,134.4c-7.1,0.7-13-0.7-17.9-3.9l16.7-1.1h0.3l9.1-10.2l3.7,2.5v5.1l6.1,0.4h0.1l4.4-1.3l1-2.3l2.4,1.3
	c0.9,0.5,2.6,1.2,3.3,1.2c0.4,0,1-0.2,2.7-0.9c0.9-0.4,2.4-1,2.8-1c0.2,0,0.7,0.1,1.2,0.2c1.3,0.2,2.9,0.4,4,0.2
	c0.6-0.1,2.2-0.8,8.9-5.3l0.3-0.2c1-0.7,5.5-4,7.3-9.8c0,0.3,0,0.4,0,0.5C415.3,126.3,388.9,131.5,363.8,134.4z"/>
<linearGradient id="SVGID_4_" gradientUnits="userSpaceOnUse" x1="368.6097" y1="2195.4905" x2="383.3379" y2="2217.9702" gradientTransform="matrix(1 0 0 1 0 -2158.3301)">
	<stop  offset="0" style="stop-color:#FFF3D8"/>
	<stop  offset="1" style="stop-color:#B86432"/>
</linearGradient>
<path class="st5" d="M397.6,30.7c1.9,0.5,13.5,4,12.1,17.7l-0.1,0.5l4.5,2.3l-2.8,2.2l2,5.8l-1.3,0.6l-7.1-3.9l-3.8,2.9v2l-11.4,0.7
	l-4.3-3.8l1.6,4.9l-3.2,0.2l-1.6-2.5l-1.4,0.5l0.2,3.1l-2,0.2l-3.2-3.4l-5.6-4.2l-0.3,5.7l-3.3,2.1l-2.9-2.5l-0.2,5l-7.5,4.6
	c-0.8-3.7-4.1-15-14.2-16.3L397.6,30.7z"/>
<polygon class="st6" points="363.5,61.3 363.9,61.6 363.9,61.4 "/>
<linearGradient id="SVGID_5_" gradientUnits="userSpaceOnUse" x1="-8.9309" y1="2266.03" x2="269.669" y2="2266.03" gradientTransform="matrix(1 0 0 1 0 -2158.3301)">
	<stop  offset="6.100000e-03" style="stop-color:#FFFFFF"/>
	<stop  offset="0.4033" style="stop-color:#FDFEFF"/>
	<stop  offset="0.5464" style="stop-color:#F6FAFD"/>
	<stop  offset="0.6484" style="stop-color:#EBF4FA"/>
	<stop  offset="0.7309" style="stop-color:#DAEBF6"/>
	<stop  offset="0.8015" style="stop-color:#C4E0F1"/>
	<stop  offset="0.8641" style="stop-color:#A8D2EA"/>
	<stop  offset="0.9206" style="stop-color:#88C1E3"/>
	<stop  offset="0.9709" style="stop-color:#64AEDA"/>
	<stop  offset="1" style="stop-color:#4BA1D4"/>
</linearGradient>
<rect x="72" y="102.4" class="st7" width="18.8" height="10.6"/>
<linearGradient id="SVGID_6_" gradientUnits="userSpaceOnUse" x1="-8.9309" y1="2299.78" x2="269.669" y2="2299.78" gradientTransform="matrix(1 0 0 1 0 -2158.3301)">
	<stop  offset="6.100000e-03" style="stop-color:#FFFFFF"/>
	<stop  offset="0.4154" style="stop-color:#FDFEFF"/>
	<stop  offset="0.5629" style="stop-color:#F6FBFD"/>
	<stop  offset="0.668" style="stop-color:#EBF6FB"/>
	<stop  offset="0.7529" style="stop-color:#DAEEF8"/>
	<stop  offset="0.8257" style="stop-color:#C4E4F4"/>
	<stop  offset="0.8901" style="stop-color:#A8D7EF"/>
	<stop  offset="0.947" style="stop-color:#89C9EA"/>
	<stop  offset="0.9989" style="stop-color:#65B8E3"/>
	<stop  offset="1" style="stop-color:#64B8E3"/>
</linearGradient>
<rect x="72" y="118.2" class="st8" width="18.8" height="46.5"/>
<linearGradient id="SVGID_7_" gradientUnits="userSpaceOnUse" x1="-8.9412" y1="2299.23" x2="269.677" y2="2299.23" gradientTransform="matrix(1 0 0 1 0 -2158.3301)">
	<stop  offset="6.100000e-03" style="stop-color:#FFFFFF"/>
	<stop  offset="0.4154" style="stop-color:#FDFEFF"/>
	<stop  offset="0.5629" style="stop-color:#F6FBFD"/>
	<stop  offset="0.668" style="stop-color:#EBF6FB"/>
	<stop  offset="0.7529" style="stop-color:#DAEEF8"/>
	<stop  offset="0.8257" style="stop-color:#C4E4F4"/>
	<stop  offset="0.8901" style="stop-color:#A8D7EF"/>
	<stop  offset="0.947" style="stop-color:#89C9EA"/>
	<stop  offset="0.9989" style="stop-color:#65B8E3"/>
	<stop  offset="1" style="stop-color:#64B8E3"/>
</linearGradient>
<path class="st9" d="M116.5,148.5c0.3,2,1.1,3.4,2.2,4.2c2,1.5,5.7,2.2,11.1,2.2c3.2,0,5.7-0.3,7.6-1c1.9-0.7,2.8-1.6,2.8-2.9
	s-0.8-2.2-2.3-2.8c-1.5-0.6-7.1-1.8-16.9-3.4c-7-1.2-11.9-2.7-14.8-4.5c-2.9-1.8-4.3-4.3-4.3-7.7c0-3.9,2.2-7.3,6.7-10.1
	c4.5-2.8,10.8-4.2,18.9-4.2c7.7,0,14,1.1,18.8,3.2c4.9,2.1,7.6,5.8,8.4,11h-16.1c-0.2-1.4-0.8-2.6-1.8-3.4c-1.8-1.5-4.8-2.3-9.1-2.3
	c-3.5,0-6,0.4-7.5,1.1c-1.5,0.8-2.2,1.6-2.2,2.7c0,1.3,0.8,2.2,2.4,2.8c1.6,0.6,7.2,1.6,16.8,3.1c6.4,1,11.2,2.6,14.4,4.7
	s4.7,4.8,4.7,8c0,4.2-2.3,7.7-6.8,10.3c-4.6,2.7-11.6,4-21.1,4c-9.7,0-16.9-1.4-21.5-4.2c-4.6-2.8-6.9-6.4-6.9-10.8L116.5,148.5
	L116.5,148.5z"/>
<linearGradient id="SVGID_8_" gradientUnits="userSpaceOnUse" x1="-8.9358" y1="2299.6799" x2="269.6681" y2="2299.6799" gradientTransform="matrix(1 0 0 1 0 -2158.3301)">
	<stop  offset="6.100000e-03" style="stop-color:#FFFFFF"/>
	<stop  offset="0.4154" style="stop-color:#FDFEFF"/>
	<stop  offset="0.5629" style="stop-color:#F6FBFD"/>
	<stop  offset="0.668" style="stop-color:#EBF6FB"/>
	<stop  offset="0.7529" style="stop-color:#DAEEF8"/>
	<stop  offset="0.8257" style="stop-color:#C4E4F4"/>
	<stop  offset="0.8901" style="stop-color:#A8D7EF"/>
	<stop  offset="0.947" style="stop-color:#89C9EA"/>
	<stop  offset="0.9989" style="stop-color:#65B8E3"/>
	<stop  offset="1" style="stop-color:#64B8E3"/>
</linearGradient>
<path class="st10" d="M217.4,157.8c-5.2,4.6-13.1,6.9-23.7,6.9s-18.5-2.3-23.7-6.9c-5.2-4.5-7.8-10-7.8-16.5
	c0-6.3,2.6-11.8,7.8-16.4s13.1-6.9,23.7-6.9c10.6,0,18.5,2.3,23.7,6.9s7.8,10.1,7.8,16.4C225.2,147.8,222.7,153.3,217.4,157.8z
	 M202.4,149.5c2-1.9,3-4.6,3-8.1s-1-6.2-3-8.1s-4.9-2.8-8.7-2.8s-6.7,0.9-8.7,2.8s-3.1,4.6-3.1,8.1s1,6.2,3.1,8.1
	c2,1.9,4.9,2.9,8.7,2.9S200.4,151.4,202.4,149.5z"/>
<linearGradient id="SVGID_9_" gradientUnits="userSpaceOnUse" x1="-8.9182" y1="2299.1301" x2="269.6722" y2="2299.1301" gradientTransform="matrix(1 0 0 1 0 -2158.3301)">
	<stop  offset="6.100000e-03" style="stop-color:#FFFFFF"/>
	<stop  offset="0.4154" style="stop-color:#FDFEFF"/>
	<stop  offset="0.5629" style="stop-color:#F6FBFD"/>
	<stop  offset="0.668" style="stop-color:#EBF6FB"/>
	<stop  offset="0.7529" style="stop-color:#DAEEF8"/>
	<stop  offset="0.8257" style="stop-color:#C4E4F4"/>
	<stop  offset="0.8901" style="stop-color:#A8D7EF"/>
	<stop  offset="0.947" style="stop-color:#89C9EA"/>
	<stop  offset="0.9989" style="stop-color:#65B8E3"/>
	<stop  offset="1" style="stop-color:#64B8E3"/>
</linearGradient>
<path class="st11" d="M271.9,145.8c-0.3,1.7-1,3-2.3,4.1c-1.3,1-3.7,1.6-6.9,1.6c-4.7,0-7.8-1.4-9.4-4.1c-0.9-1.5-1.3-3.6-1.3-6.1
	c0-2.7,0.5-4.9,1.4-6.5c1.7-2.9,4.9-4.4,9.7-4.4c3.4,0,5.8,0.7,7.3,1.9c1,1,1.6,2,1.9,3.2l0.3,1.2H292l-0.3-1.8
	c-1-6.1-4.2-10.4-9.5-12.8c-5-2.3-11.5-3.5-19.4-3.5c-9.3,0-16.7,2-22,5.9c-5.5,4-8.3,9.7-8.3,16.9c0,6.4,2.5,11.7,7.5,15.7
	c4.9,3.9,12.5,5.9,22.6,5.9s17.9-2.4,23.2-7.1c3.4-3,5.3-6.3,5.8-9.8l0.2-1.7h-19.3L271.9,145.8z"/>
<linearGradient id="SVGID_10_" gradientUnits="userSpaceOnUse" x1="-8.9319" y1="2298.6301" x2="269.6707" y2="2298.6301" gradientTransform="matrix(1 0 0 1 0 -2158.3301)">
	<stop  offset="6.100000e-03" style="stop-color:#FFFFFF"/>
	<stop  offset="0.4154" style="stop-color:#FDFEFF"/>
	<stop  offset="0.5629" style="stop-color:#F6FBFD"/>
	<stop  offset="0.668" style="stop-color:#EBF6FB"/>
	<stop  offset="0.7529" style="stop-color:#DAEEF8"/>
	<stop  offset="0.8257" style="stop-color:#C4E4F4"/>
	<stop  offset="0.8901" style="stop-color:#A8D7EF"/>
	<stop  offset="0.947" style="stop-color:#89C9EA"/>
	<stop  offset="0.9989" style="stop-color:#65B8E3"/>
	<stop  offset="1" style="stop-color:#64B8E3"/>
</linearGradient>
<path class="st12" d="M355.4,126.1c-2.7-2.8-6.2-4.9-10.3-6.2c-4-1.3-8.6-1.9-13.7-1.9c-8.5,0-15.6,1.9-21,5.7
	c-5.6,3.9-8.4,9.6-8.4,16.9c0,7.8,3.1,13.5,9.3,17c5.9,3.3,12.8,5,20.5,5c9.4,0,16.8-2,22.1-6c3.6-2.7,5.6-5.3,6-8l0.3-1.6h-17.3
	l-0.4,0.6c-0.7,1-1.6,1.8-2.6,2.3c-1.9,1.1-4.4,1.6-7.5,1.6c-2.9,0-5.5-0.5-7.6-1.4c-2.7-1.2-4.3-3-4.9-5.6h40.9v-1.4
	c0.1-3.5-0.1-6.2-0.5-8.1C359.5,131.6,357.9,128.6,355.4,126.1z M320.6,134.8c0.6-1.4,1.5-2.6,2.9-3.5c1.8-1.3,4.5-2,8-2
	c3.2,0,5.9,0.6,8,1.9c1.5,0.9,2.5,2.1,3,3.6H320.6L320.6,134.8z"/>
<linearGradient id="SVGID_11_" gradientUnits="userSpaceOnUse" x1="-8.9387" y1="2298.73" x2="269.6685" y2="2298.73" gradientTransform="matrix(1 0 0 1 0 -2158.3301)">
	<stop  offset="6.100000e-03" style="stop-color:#FFFFFF"/>
	<stop  offset="0.4154" style="stop-color:#FDFEFF"/>
	<stop  offset="0.5629" style="stop-color:#F6FBFD"/>
	<stop  offset="0.668" style="stop-color:#EBF6FB"/>
	<stop  offset="0.7529" style="stop-color:#DAEEF8"/>
	<stop  offset="0.8257" style="stop-color:#C4E4F4"/>
	<stop  offset="0.8901" style="stop-color:#A8D7EF"/>
	<stop  offset="0.947" style="stop-color:#89C9EA"/>
	<stop  offset="0.9989" style="stop-color:#65B8E3"/>
	<stop  offset="1" style="stop-color:#64B8E3"/>
</linearGradient>
<path class="st13" d="M455.2,143.1c0.1-3.5-0.1-6.2-0.5-8.1c-0.7-3.3-2.4-6.3-4.9-8.8c-2.7-2.8-6.2-4.9-10.3-6.2
	c-4-1.3-8.6-1.9-13.7-1.9c-8.5,0-15.6,1.9-21,5.7c-5.6,3.9-8.4,9.6-8.4,16.9c0,7.8,3.1,13.5,9.3,17c5.9,3.3,12.8,5,20.5,5
	c9.4,0,16.8-2,22.1-6c3.6-2.7,5.6-5.3,6-8l0.3-1.6h-17.4l-0.4,0.6c-0.7,1-1.6,1.8-2.6,2.3c-1.9,1.1-4.4,1.6-7.5,1.6
	c-2.9,0-5.5-0.5-7.6-1.4c-2.7-1.2-4.3-3-4.9-5.6h40.9L455.2,143.1z M415,134.8c0.6-1.4,1.5-2.6,2.9-3.5c1.8-1.3,4.5-2,8-2
	c3.2,0,5.9,0.6,8,1.9c1.5,0.9,2.5,2.1,3,3.6H415L415,134.8z"/>
<linearGradient id="SVGID_12_" gradientUnits="userSpaceOnUse" x1="-8.9373" y1="2299.6799" x2="269.6689" y2="2299.6799" gradientTransform="matrix(1 0 0 1 0 -2158.3301)">
	<stop  offset="6.100000e-03" style="stop-color:#FFFFFF"/>
	<stop  offset="0.4154" style="stop-color:#FDFEFF"/>
	<stop  offset="0.5629" style="stop-color:#F6FBFD"/>
	<stop  offset="0.668" style="stop-color:#EBF6FB"/>
	<stop  offset="0.7529" style="stop-color:#DAEEF8"/>
	<stop  offset="0.8257" style="stop-color:#C4E4F4"/>
	<stop  offset="0.8901" style="stop-color:#A8D7EF"/>
	<stop  offset="0.947" style="stop-color:#89C9EA"/>
	<stop  offset="0.9989" style="stop-color:#65B8E3"/>
	<stop  offset="1" style="stop-color:#64B8E3"/>
</linearGradient>
<path class="st14" d="M457.5,170.1h-62.9c-2.6-0.4-6.4-2.1-6.4-8.1l0.2-59.3H370l-0.1,59.3c0,0-0.5,18,22.1,18l65.5-0.1V170.1
	L457.5,170.1z"/>
<linearGradient id="SVGID_13_" gradientUnits="userSpaceOnUse" x1="52.5637" y1="2333.1301" x2="303.372" y2="2333.1301" gradientTransform="matrix(1 0 0 1 0 -2158.3301)">
	<stop  offset="6.100000e-03" style="stop-color:#FFFFFF"/>
	<stop  offset="0.8083" style="stop-color:#68BBE3"/>
	<stop  offset="1" style="stop-color:#43AADC"/>
</linearGradient>
<path class="st15" d="M370.3,178.4c-2.8-2.9-4.4-6.1-5.4-8.9H72.4v10.6h300C371.7,179.5,370.9,179,370.3,178.4z"/>
<linearGradient id="SVGID_14_" gradientUnits="userSpaceOnUse" x1="52.5637" y1="2266.03" x2="303.3721" y2="2266.03" gradientTransform="matrix(1 0 0 1 0 -2158.3301)">
	<stop  offset="6.100000e-03" style="stop-color:#FFFFFF"/>
	<stop  offset="0.8083" style="stop-color:#68BBE3"/>
	<stop  offset="1" style="stop-color:#43AADC"/>
</linearGradient>
<polygon class="st16" points="311.1,102.4 93.7,102.4 93.7,113 322.5,113 "/>
<linearGradient id="SVGID_15_" gradientUnits="userSpaceOnUse" x1="52.5608" y1="2266.03" x2="303.3713" y2="2266.03" gradientTransform="matrix(1 0 0 1 0 -2158.3301)">
	<stop  offset="6.100000e-03" style="stop-color:#FFFFFF"/>
	<stop  offset="0.8083" style="stop-color:#68BBE3"/>
	<stop  offset="1" style="stop-color:#43AADC"/>
</linearGradient>
<polygon class="st17" points="337.2,102.4 316.8,102.4 328.2,113 343.2,113 "/>
<linearGradient id="SVGID_16_" gradientUnits="userSpaceOnUse" x1="52.5691" y1="2266.03" x2="303.3727" y2="2266.03" gradientTransform="matrix(1 0 0 1 0 -2158.3301)">
	<stop  offset="6.100000e-03" style="stop-color:#FFFFFF"/>
	<stop  offset="0.8083" style="stop-color:#68BBE3"/>
	<stop  offset="1" style="stop-color:#43AADC"/>
</linearGradient>
<polygon class="st18" points="342.5,102.4 348.5,113 365.6,113 365.6,102.4 "/>
</svg>
