<?xml version="1.0" encoding="utf-8"?>
<!-- Generator: Adobe Illustrator 16.0.0, SVG Export Plug-In . SVG Version: 6.00 Build 0)  -->
<!DOCTYPE svg PUBLIC "-//W3C//DTD SVG 1.1//EN" "http://www.w3.org/Graphics/SVG/1.1/DTD/svg11.dtd">
<svg version="1.1" id="Calque_2" xmlns="http://www.w3.org/2000/svg" xmlns:xlink="http://www.w3.org/1999/xlink" x="0px" y="0px"
	 width="500px" height="500px" viewBox="0 0 500 500" enable-background="new 0 0 500 500" xml:space="preserve">
<g>
	<path fill="#E2001A" d="M25,336.918l33.004-123.987h45.012L70.013,336.918H25z"/>
	<path fill="#E2001A" d="M97.186,336.918l14.722-55.301h-12.03l8.588-32.266h12.03l7.71-28.967h42.236l-7.71,28.967h12.035
		l-8.588,32.266h-12.035l-14.722,55.301H97.186z"/>
	<path fill="#E2001A" d="M163.571,336.918l23.31-87.567h40.977l-3.27,12.282c4.98-5.023,10.051-8.793,15.209-11.305
		c5.153-2.518,10.454-3.773,15.893-3.773c0.843,0,1.469,0.012,1.882,0.04c0.413,0.032,0.782,0.072,1.103,0.128l-11.318,42.515
		c-2.008-1.303-3.911-2.254-5.712-2.879c-1.795-0.619-3.51-0.932-5.135-0.932c-5.383,0-9.942,1.469-13.669,4.4
		c-3.725,2.932-6.294,7.061-7.706,12.367l-9.244,34.723H163.571z"/>
	<path fill="#E2001A" d="M359.611,336.918l23.307-87.567h40.98l-3.225,12.112c4.978-5.029,10.013-8.768,15.099-11.223
		c5.087-2.458,10.405-3.685,15.958-3.685c9.254,0,15.837,2.824,19.748,8.466c3.907,5.648,4.564,13.357,1.966,23.121l-15.649,58.775
		h-42.232l11.766-44.209c1.16-4.354,1.505-7.338,1.043-8.982c-0.461-1.629-1.813-2.447-4.055-2.447
		c-2.472,0-4.605,0.963-6.402,2.873c-1.806,1.926-3.209,4.77-4.217,8.557l-11.766,44.209H359.611z"/>
	<path fill="#FABC20" d="M334.063,248.023l74.857-88.239h-66.052l-23.038,86.799c0.265-0.004,0.521-0.028,0.786-0.028
		C325.462,246.555,329.927,247.068,334.063,248.023z"/>
	<g>
		<path fill="#E2001A" d="M353.743,258.664c-3.783-3.947-8.473-6.957-14.053-9.02c-1.789-0.658-3.683-1.176-5.628-1.621
			l-21.265,25.065l7.032-26.505c-6.852,0.072-13.506,1.067-19.957,3.021c-6.703,2.031-13.061,5.057-19.074,9.061
			c-6.671,4.469-12.331,9.699-16.992,15.709c-4.661,6.016-7.923,12.354-9.788,19.014c-1.845,6.607-2.13,12.941-0.851,19.01
			c1.28,6.074,4.012,11.313,8.204,15.713c3.774,4.004,8.439,7.027,14.004,9.059c5.56,2.029,11.905,3.049,19.038,3.049
			c7.128,0,14.068-1.027,20.799-3.09c6.735-2.063,13.05-5.063,18.93-9.018c6.756-4.572,12.452-9.852,17.073-15.838
			c4.617-5.984,7.858-12.277,9.703-18.885c1.861-6.66,2.167-13.014,0.911-19.055S357.875,263.068,353.743,258.664z M318.302,293.387
			c-0.995,3.555-2.8,6.438-5.423,8.641c-2.62,2.201-5.521,3.297-8.701,3.297c-3.306,0-5.636-1.082-7.004-3.258
			c-1.368-2.174-1.545-5.066-0.533-8.68c1.011-3.611,2.808-6.506,5.391-8.682c2.58-2.174,5.524-3.256,8.825-3.256
			c3.245,0,5.54,1.082,6.912,3.256C319.132,286.881,319.316,289.775,318.302,293.387z"/>
	</g>
</g>
</svg>
