<?xml version="1.0" encoding="utf-8"?>
<!-- Generator: Adobe Illustrator 21.0.2, SVG Export Plug-In . SVG Version: 6.00 Build 0)  -->
<svg version="1.1" id="Calque_2" xmlns="http://www.w3.org/2000/svg" xmlns:xlink="http://www.w3.org/1999/xlink" x="0px" y="0px"
	 viewBox="0 0 500 314" style="enable-background:new 0 0 500 314;" xml:space="preserve">
<style type="text/css">
	.st0{fill:#1B2F35;}
	.st1{fill:#FFFFFF;}
	.st2{fill:#ED7A08;}
	.st3{fill:#EC7A08;}
</style>
<path class="st0" d="M475,273.1c0,9.1-7.5,16.6-16.6,16.6H41.6c-9.1,0-16.6-7.4-16.6-16.6V40.9c0-9.1,7.5-16.6,16.6-16.6h416.9
	c9.1,0,16.6,7.5,16.6,16.6L475,273.1L475,273.1z"/>
<path class="st1" d="M84.8,250.1c0-0.6-0.1-1.1-0.2-1.7v-0.5h-0.1c-1.1-7.2-7.1-12.7-14.5-12.7c-8.1,0-14.7,6.7-14.7,14.9
	c0,8.2,6.6,14.9,14.7,14.9c2.8,0,5.4-0.8,7.6-2.2v2.2h7v-13.2C84.6,251.2,84.8,250.7,84.8,250.1z M70,257.8c-4.2,0-7.6-3.4-7.6-7.7
	c0-4.2,3.4-7.7,7.6-7.7s7.6,3.4,7.6,7.7C77.6,254.3,74.2,257.8,70,257.8z"/>
<path class="st1" d="M410.4,250.1c0-0.6-0.1-1.1-0.2-1.7v-0.5h-0.1c-1.1-7.2-7.1-12.7-14.5-12.7c-8.1,0-14.7,6.7-14.7,14.9
	c0,8.2,6.6,14.9,14.7,14.9c2.8,0,5.4-0.8,7.6-2.2v2.2h7v-13.2C410.3,251.2,410.4,250.7,410.4,250.1z M395.7,257.8
	c-4.2,0-7.6-3.4-7.6-7.7c0-4.2,3.4-7.7,7.6-7.7s7.6,3.4,7.6,7.7C403.3,254.3,399.9,257.8,395.7,257.8z"/>
<path class="st1" d="M148.5,250.1c0,8.2,6.6,14.9,14.7,14.9c7.4,0,13.4-5.5,14.5-12.7h0.1v-0.5c0.1-0.6,0.2-1.1,0.2-1.7
	s-0.1-1.1-0.2-1.7v-13.2h-7v2.2v12.7c0,4.2-3.4,7.7-7.6,7.7c-4.2,0-7.6-3.4-7.6-7.7v-14.9h-7.2L148.5,250.1L148.5,250.1z"/>
<path class="st1" d="M213.4,265h7.1v-14.9c0-4.2,3.4-7.7,7.6-7.7c4.2,0,7.6,3.4,7.6,7.7v12.7v2.2h7v-13.2c0.1-0.6,0.2-1.1,0.2-1.7
	s-0.1-1.1-0.2-1.7v-0.5h-0.1c-1.1-7.2-7.1-12.7-14.5-12.7c-8.1,0-14.7,6.7-14.7,14.9L213.4,265L213.4,265z"/>
<path class="st1" d="M433.3,265h7.2v-14.9c0-4.2,3.4-7.7,7.6-7.7s7.6,3.4,7.6,7.7v12.7v2.2h7v-13.2c0.1-0.6,0.2-1.1,0.2-1.7
	s-0.1-1.1-0.2-1.7v-0.5l0,0c-1.1-7.2-7.1-12.7-14.5-12.7c-8.1,0-14.7,6.7-14.7,14.9L433.3,265L433.3,265z"/>
<path class="st1" d="M377.4,248.4v-0.5h-0.1c-1.1-7.2-7.1-12.7-14.5-12.7c-4.4,0-8.4,2-11.1,5.2c-2.7-3.2-6.6-5.2-11.1-5.2
	c-8.1,0-14.7,6.7-14.7,14.9V265h7.2v-14.9c0-4.2,3.4-7.7,7.6-7.7c4,0,7.2,3.2,7.5,7.2c0,0.2-0.1,0.3-0.1,0.5V265h0.1h7h0.1v-13.9
	c0-0.3,0.1-0.7,0.1-1c0-0.2,0-0.3,0-0.5c0.3-4,3.5-7.2,7.5-7.2c4.2,0,7.6,3.4,7.6,7.7v12.7v2.2h7v-13.2c0.1-0.6,0.2-1.1,0.2-1.7
	C377.6,249.5,377.5,249,377.4,248.4z"/>
<path class="st1" d="M45.5,265.5c0,4.2-3.4,7.7-7.6,7.7v7.3c7.4,0,13.4-5.5,14.5-12.7h0.1v-0.5c0.1-0.6,0.2-1.1,0.2-1.7
	s-0.1-1.1-0.2-1.7V235h-7v17.9V265.5z"/>
<path class="st1" d="M145.4,250.1c0-0.6-0.1-1.1-0.2-1.7v-0.5h-0.1c-1.1-7.2-7.1-12.7-14.5-12.7c-8.1,0-14.7,6.7-14.7,14.9
	c0,8.2,6.6,14.9,14.7,14.9c2.8,0,5.4-0.8,7.6-2.2v12.3h7v-23.3C145.3,251.2,145.4,250.7,145.4,250.1z M130.7,257.8
	c-4.2,0-7.6-3.4-7.6-7.7c0-4.2,3.4-7.7,7.6-7.7s7.6,3.4,7.6,7.7C138.2,254.3,134.8,257.8,130.7,257.8z"/>
<path class="st1" d="M108.4,255.7c-1.4,1.4-3.4,2.3-5.6,2.3c-4.4,0-7.9-3.6-7.9-8s3.5-8,7.9-8c2.2,0,4.1,0.9,5.6,2.3l4.8-4.9
	c-2.7-2.7-6.3-4.4-10.4-4.4c-8.1,0-14.7,6.7-14.7,14.9c0,8.2,6.6,14.9,14.7,14.9c4.1,0,7.7-1.7,10.4-4.4L108.4,255.7z"/>
<path class="st1" d="M210.2,250.1c0-8.2-6.6-14.9-14.7-14.9c-8.1,0-14.7,6.7-14.7,14.9c0,8.2,6.6,14.9,14.7,14.9
	c3.9,0,7.5-1.6,10.1-4.1l-4.9-5c-1.4,1.3-3.2,2.1-5.2,2.1c-3.2,0-6-2-7.2-4.8h20.3v-0.1h1.3C210.1,252.1,210.2,251.1,210.2,250.1z
	 M195.5,242.2c2.7,0,5.1,1.4,6.5,3.6h-13.1C190.3,243.7,192.7,242.2,195.5,242.2z"/>
<path class="st1" d="M275.1,250.1c0-8.2-6.6-14.9-14.7-14.9s-14.7,6.7-14.7,14.9c0,8.2,6.6,14.9,14.7,14.9c3.9,0,7.5-1.6,10.1-4.1
	l-4.9-5c-1.4,1.3-3.2,2.1-5.2,2.1c-3.2,0-6-2-7.2-4.8h20.3v-0.1h1.3C275,252.1,275.1,251.1,275.1,250.1z M260.3,242.2
	c2.7,0,5.1,1.4,6.5,3.6h-13.1C255.2,243.7,257.6,242.2,260.3,242.2z"/>
<path class="st1" d="M297.8,256c-1.3,1.2-3.1,1.9-5,1.9c-4.2,0-7.6-3.4-7.6-7.7h6.8v-7.7h-6.8v-7.3H278v14.9
	c0,8.2,6.6,14.9,14.7,14.9c3.9,0,7.4-1.6,10-4.1L297.8,256z"/>
<rect x="412.5" y="226.9" class="st1" width="8.7" height="38.1"/>
<rect x="422.9" y="235.2" class="st1" width="7.7" height="29.9"/>
<ellipse class="st2" cx="426.9" cy="227.2" rx="4" ry="4.1"/>
<rect x="308.8" y="248.8" class="st2" width="10.8" height="6.3"/>
<path class="st1" d="M383.3,119.9c-4-44.5-43.3-77.2-87.8-73.2c-16.6,1.5-31.5,7.9-43.6,17.7c-13.9-11.3-31.6-18-50.9-18
	c-44.6,0-80.8,36.2-80.8,80.8c0,44.7,36.2,80.8,80.8,80.8c19.3,0,37-6.8,50.9-18c15.8,12.8,36.4,19.7,58.2,17.7
	C354.6,203.7,387.3,164.3,383.3,119.9z"/>
<path class="st3" d="M222.3,134.5c-2.3-25.2,7.2-48.7,24-65.1c-12.5-9.8-28.2-15.6-45.2-15.6v73.4l-57.2,46
	c13.5,16.7,34.1,27.4,57.2,27.4c17.1,0,32.8-5.8,45.2-15.6C233,172,224.1,154.4,222.3,134.5z"/>
<path class="st3" d="M353.2,178.2c14.7-14.5,23-35.3,20.9-57.5c-3.6-39.4-38.4-68.5-77.9-64.9c-39.4,3.6-68.5,38.5-64.9,77.9
	c1.5,16.4,8,32.6,21.9,45l49.5-51.5L353.2,178.2z"/>
</svg>
