<?xml version="1.0" encoding="utf-8"?>
<!-- Generator: Adobe Illustrator 19.1.0, SVG Export Plug-In . SVG Version: 6.00 Build 0)  -->
<svg version="1.1" id="Calque_1" xmlns="http://www.w3.org/2000/svg" xmlns:xlink="http://www.w3.org/1999/xlink" x="0px" y="0px"
	 viewBox="-345 170.9 500 500" style="enable-background:new -345 170.9 500 500;" xml:space="preserve">
<path d="M-245.8,353.7h15.7l-16.7,87.8c-5.7,29.7-18.2,41.8-42,41.8c-7.8,0-15.7-1.7-18.9-3.4l3.4-13.4c4.2,1.9,9.3,2.8,16.1,2.8
	c13.4,0,21.8-7,26.1-29.7L-245.8,353.7z"/>
<path d="M-202,441l-20.3,40.3h-16.7l66.1-127.6h18.4l17.8,127.6h-16.1l-5.3-40.3H-202z M-159.2,428.5l-4.9-36.9
	c-0.8-6.6-1.7-16.1-2.3-23.5h-0.4c-3.4,7.6-6.6,15.5-10.4,23.3l-19.1,37.1H-159.2z"/>
<path d="M-96.4,355.2c9.8-1.7,20.6-2.5,31.8-2.5c21.2,0,37.5,6.1,47,17c6.8,7,11.9,18.6,11.9,34.6c0,23.1-9.3,46-25.6,60
	C-46,477-64.6,482.2-89.2,482.2c-11.2,0-22.7-0.6-30.9-1.5L-96.4,355.2z M-102.1,468.4c5.7,0.8,11.7,0.8,16.5,0.8
	c20.3,0,35-5.9,45.6-16.9c11.5-11.7,17.4-29.1,17.4-47.1c0-22.7-11-39.6-42.8-39.6c-5.7,0-12.9,0.4-17.4,1.3L-102.1,468.4z"/>
<path d="M120.5,403.9c0,22.2-8.1,46.6-23.3,61.7c-11.2,11.2-26.1,17.8-43.7,17.8c-32.9,0-48.3-24.8-48.3-51.9
	c0-22.5,8.7-47.3,24.2-62.7c11-10.6,26.7-17.2,42.8-17.2C106.7,351.6,120.5,376.6,120.5,403.9z M41,377.6
	c-12.3,12.3-19.3,34.8-19.3,52.6c0,20.8,9.3,39.9,34.3,39.9c10.8,0,21.2-4.7,29.2-12.7c11.9-12.1,18.9-35,18.9-52.8
	c0-18.2-5.9-39.8-33.9-39.8C58.8,364.9,49,369.8,41,377.6z"/>
</svg>
