<?xml version="1.0" encoding="utf-8"?>
<!-- Generator: Adobe Illustrator 15.0.0, SVG Export Plug-In . SVG Version: 6.00 Build 0)  -->
<!DOCTYPE svg PUBLIC "-//W3C//DTD SVG 1.1//EN" "http://www.w3.org/Graphics/SVG/1.1/DTD/svg11.dtd">
<svg version="1.1" id="Calque_1" xmlns="http://www.w3.org/2000/svg" xmlns:xlink="http://www.w3.org/1999/xlink" x="0px" y="0px"
	 width="500px" height="500px" viewBox="0 0 500 500" enable-background="new 0 0 500 500" xml:space="preserve">
<path d="M99.239,182.819h15.71l-16.658,87.839c-5.676,29.721-18.173,41.836-42.023,41.836c-7.76,0-15.713-1.707-18.932-3.407
	l3.407-13.444c4.165,1.895,9.274,2.842,16.092,2.842c13.441,0,21.768-7.002,26.123-29.724L99.239,182.819z"/>
<path d="M142.968,270.089l-20.254,40.323h-16.657l66.062-127.593h18.367l17.795,127.593h-16.095l-5.301-40.323H142.968z
	 M185.751,257.597l-4.923-36.92c-0.756-6.624-1.7-16.088-2.269-23.469h-0.381c-3.407,7.569-6.624,15.523-10.409,23.28
	l-19.118,37.109H185.751z"/>
<path d="M248.594,184.331c9.84-1.7,20.634-2.456,31.796-2.456c21.206,0,37.488,6.058,46.953,17.033
	c6.812,7.002,11.925,18.55,11.925,34.646c0,23.091-9.274,46-25.56,60.003c-14.757,12.503-33.318,17.799-57.925,17.799
	c-11.164,0-22.711-0.569-30.854-1.513L248.594,184.331z M242.913,297.537c5.681,0.757,11.739,0.757,16.465,0.757
	c20.259,0,35.025-5.867,45.631-16.852c11.541-11.731,17.411-29.148,17.411-47.133c0-22.72-10.979-39.563-42.783-39.563
	c-5.68,0-12.872,0.378-17.42,1.322L242.913,297.537z"/>
<path d="M465.53,232.981c0,22.153-8.143,46.574-23.287,61.718c-11.163,11.171-26.12,17.795-43.728,17.795
	c-32.939,0-48.269-24.797-48.269-51.867c0-22.534,8.708-47.331,24.228-62.663c10.981-10.604,26.691-17.229,42.783-17.229
	C451.713,180.734,465.53,205.721,465.53,232.981z M386.024,206.672c-12.303,12.305-19.313,34.828-19.313,52.624
	c0,20.824,9.274,39.944,34.268,39.944c10.788,0,21.203-4.729,29.151-12.685c11.926-12.115,18.934-35.017,18.934-52.812
	c0-18.173-5.867-39.752-33.89-39.752C403.82,193.991,393.97,198.908,386.024,206.672z"/>
</svg>
