<?xml version="1.0" encoding="utf-8"?>
<!-- Generator: Adobe Illustrator 19.1.0, SVG Export Plug-In . SVG Version: 6.00 Build 0)  -->
<svg version="1.1" id="Calque_2" xmlns="http://www.w3.org/2000/svg" xmlns:xlink="http://www.w3.org/1999/xlink" x="0px" y="0px"
	 viewBox="0 0 500 500" style="enable-background:new 0 0 500 500;" xml:space="preserve">
<style type="text/css">
	.st0{fill:#E2982F;}
</style>
<g>
	<path d="M151.5,240.1c-2.7-22.6-26.5-38.8-56-37.5c-5.3-0.2-10.7,0.1-16.1,1c-32.9,5.5-57.2,30.7-54.1,56.3
		c2.7,22.6,26.6,38.8,56,37.5c1.1,0.1,2.3,0.1,3.4,0.1c4.2,0,8.5-0.4,12.7-1.1C130.3,290.9,154.5,265.7,151.5,240.1 M86.6,205.3
		c3-0.5,6-0.8,8.9-1c25.5,1.2,45,16,47.3,35.9c2.9,24.6-20.7,49-52.7,54.3c-3,0.5-6,0.8-8.9,1c-25.5-1.2-45-16-47.3-35.9
		C31,235.1,54.6,210.7,86.6,205.3"/>
	<path class="st0" d="M43.2,263.8c0.7-3,1.8-5.8,3.1-8.6c0.2-0.5,0.3-1,0.3-1.6c0-0.6-0.1-1.1-0.3-1.6c-1.5-2.9-2.7-6-3.6-9.1
		c-0.2-1,0-2,0.5-3c2.1-4.3,4.7-8.3,7.7-12c0.4-0.5,1.5-1.5,2.2-0.8c2.1,2.7,4.3,5.4,6.5,8c4.7,5.2,6.5,12.5,6.6,19.3
		c0.1,6.5-1.3,14-6.4,18.5c-1.9,2-3.7,4-5.6,6.1c-0.7,0.5-1.7-0.5-2.1-1c-3.1-3.6-5.9-7.4-8.2-11.6
		C43.5,265.6,43.1,264.7,43.2,263.8"/>
	<path class="st0" d="M124,264.5c-1-3.2-2.4-6.2-4-9.1c-0.2-0.5-0.3-1.1-0.3-1.7c0-0.6,0.1-1.2,0.4-1.7c1.8-3.1,3.3-6.3,4.5-9.7
		c0.3-1,0-2.2-0.5-3.1c-2.4-4.5-5.4-8.6-8.7-12.5c-0.6-0.6-1.7-1.5-2.5-0.8c-2.5,2.9-5.1,5.7-7.7,8.5c-5.1,5.2-7.3,12.7-7.4,19.9
		c-0.1,6.9,1.8,14.5,7.4,19.1c2.2,2.2,4.4,4.4,6.6,6.5c0.8,0.6,1.9-0.4,2.4-0.9c3.5-3.6,6.5-7.6,9.1-11.9
		C123.8,266.4,124.3,265.4,124,264.5"/>
	<path class="st0" d="M93.6,210.9c-3.4,1.2-6.7,2.8-9.9,4.6c-0.5,0.3-1.1,0.4-1.7,0.4c-0.6,0-1.2-0.1-1.7-0.3
		c-2.8-1.5-5.8-2.9-8.9-3.9c-1-0.2-2.1,0.2-3,0.6c-4.3,2.6-8.3,5.7-11.9,9.1c-0.5,0.6-1.5,1.7-0.9,2.5c2.4,2.4,4.7,4.8,7.1,7.2
		c4.8,5.1,12,6.9,18.8,6.8c7.5-0.1,15.3-2.5,20.5-8.1c2.6-2.4,5.2-4.8,7.8-7.2c0.7-0.8-0.3-1.9-0.9-2.4c-3.8-3.4-8-6.3-12.5-8.8
		C95.5,211,94.5,210.6,93.6,210.9"/>
	<path class="st0" d="M71.9,292.4c3-0.7,5.9-1.8,8.7-3.1c0.5-0.2,1-0.3,1.6-0.3c0.6,0,1.1,0.1,1.6,0.3c2.9,1.5,5.9,2.7,9,3.6
		c1,0.2,2,0,2.9-0.5c4.3-2.1,8.3-4.7,12-7.7c0.5-0.4,1.5-1.5,0.8-2.2c-2.7-2-5.3-4.2-7.9-6.4c-5.1-4.6-12.4-6.4-19.2-6.5
		c-6.5-0.1-14,1.3-18.6,6.4c-2,1.9-4.1,3.7-6.2,5.5c-0.6,0.6,0.5,1.7,1,2.1c3.6,3.1,7.4,5.8,11.6,8.1
		C70.1,292.2,71,292.6,71.9,292.4"/>
	<path d="M236.6,274.2c0,6.4-5.2,9-9.3,9c-4,0-5.7-3.7-5.7-8.2c0-5.2,2.4-8.2,8.5-9.5c1.9-0.4,4.4-1.4,6.4-2.9L236.6,274.2
		L236.6,274.2z M236.7,285.6c0.4,3.6,3.5,6.4,7.2,6.4c3.7,0,6.6-2.8,7.1-6.4l0-35.8c0-10.6-3.4-18-21.2-18
		c-11.3,0-20.6,4.6-20.6,18.1v1.4c0,3.8,3.1,6.9,6.9,6.9c3.8,0,6.6-3.1,6.6-6.9l0-1.6c0-4.6,2.4-7.6,7-7.6c5,0,7,2.7,7,7.2
		c0,3.9-1.5,5.7-6,6.9l-8.5,2.3c-10.4,2.8-14.8,7.3-14.8,18.3c0,7.8,3.7,16.8,14.2,16.8C228.6,293.5,233.2,291.7,236.7,285.6"/>
	<path d="M334.2,274.2c0,6.4-5.2,9-9.3,9c-4,0-5.7-3.7-5.7-8.2c0-5.2,2.4-8.2,8.5-9.5c1.9-0.4,4.4-1.4,6.4-2.9L334.2,274.2
		L334.2,274.2z M334.3,285.6c0.4,3.6,3.5,6.4,7.2,6.4c3.7,0,6.6-2.8,7.1-6.4l0-35.8c0-10.6-3.4-18-21.2-18
		c-11.3,0-20.6,4.6-20.6,18.1v1.4c0,3.8,3.1,6.9,6.9,6.9c3.8,0,6.6-3.1,6.6-6.9l0-1.6c0-4.6,2.4-7.6,7-7.6c5,0,7,2.7,7,7.2
		c0,3.9-1.5,5.7-6,6.9l-8.5,2.3c-10.4,2.8-14.8,7.3-14.8,18.3c0,7.8,3.7,16.8,14.2,16.8C326.2,293.5,330.8,291.7,334.3,285.6"/>
	<path d="M445.3,253.7c-0.5-7.5-1.9-11.6-7.5-11.6c-6,0-7.7,6.2-7.7,11.7v2.3l13.1,0c1.2,0,2.2-1,2.2-2.2L445.3,253.7z M459.7,258.2
		c0,3.7-3,6.8-6.8,6.8l-23,0v4.7c0,6.9,1.9,13.6,7.4,13.6c5,0,7.1-2,8-9.2c0-3.7,3-6.8,6.7-6.8c3.7,0,6.8,3,6.8,6.7
		c-0.5,13.6-7.1,19.4-21.2,19.4c-21.8,0-22.7-16.8-22.7-31.4c0-15.7,3.1-30.3,23.3-30.3C454.7,231.8,459.2,242.2,459.7,258.2"/>
	<path d="M410.3,292.8l-6.3,0c-11.8,0-14-3.8-14-15.6v-33.6h-6.3h-1.3H375v31.7c0,4.6,1,6.4,5.3,6.4c3.1,0,5.5,2.4,5.5,5.5
		c0,3.1-2.5,5.6-5.6,5.6l-6.3,0c-11.8,0-14-3.8-14-15.6v-33.6h-7.6c-2.8,0-5.1-2.3-5.1-5.1c0-2.8,2.3-5.1,5.1-5.1h7.6v-16.3
		c0-0.2,0-0.3,0-0.5c0-4.2,3.4-7.5,7.5-7.5c4.2,0,7.5,3.4,7.5,7.5c0,0.2,0,0.5,0,0.7v16.1h7.4h1.3h6.3v-16.4l0-0.4
		c0-4.2,3.4-7.5,7.5-7.5c4.2,0,7.5,3.4,7.5,7.5c0,0.3,0,0.5,0,0.8l0,16.1h8.7c2.8,0.1,5,2.4,5,5.1s-2.2,5-5,5.1h-0.2h-8.6v31.7
		c0,4.6,1,6.4,5.3,6.4c3.1,0,5.5,2.4,5.5,5.5C415.9,290.3,413.4,292.8,410.3,292.8"/>
	<path d="M283.5,214.2c0-4.2,3.4-7.5,7.5-7.5c4.2,0,7.5,3.4,7.5,7.5c0,59.9,0,69.8,0,71.4l0,0.4c0,4.2-3.4,7.5-7.5,7.5
		c-4.2,0-7.5-3.4-7.5-7.5V214.2z"/>
	<path d="M259.8,214.2c0-4.1,3.4-7.5,7.5-7.5c4.2,0,7.5,3.4,7.5,7.5c0,0.3,0,0.6,0,0.8v70.2c0,0.3,0,0.5,0,0.8
		c0,4.2-3.4,7.5-7.5,7.5c-4.1,0-7.5-3.4-7.5-7.5V214.2L259.8,214.2L259.8,214.2z"/>
	<path d="M186.1,214.2c0-4.3,3.5-7.9,7.9-7.9c4.3,0,7.9,3.5,7.9,7.9l0,0.3v55.6c0,16.6-7.5,23.3-23.4,23.3
		c-16.6,0-20.6-10.6-20.6-22.8v-2.9c0-0.2,0-0.3,0-0.5c0-4,3.3-7.3,7.3-7.3c4,0,7.3,3.3,7.3,7.3c0,0.5,0,1-0.1,1.4v0.9
		c0,8.3,1.3,12.2,7,12.2c5.7,0,7-3.9,7-12.2v-55.2L186.1,214.2z"/>
	<path d="M468.7,216c0,0.7-0.6,1.3-1.4,1.3h-1.4v-2.6h1.4C468.2,214.7,468.7,215.3,468.7,216 M470.5,221.9l-1.9-3.6
		c0.9-0.3,1.7-1.1,1.7-2.3c0-1.4-1.1-2.6-2.8-2.6h-3.2v8.6h1.6v-3.4h1.1l1.8,3.4H470.5z M473.4,217.7c0,3.6-2.8,6.5-6.3,6.5
		c-3.6,0-6.4-2.8-6.4-6.5c0-3.6,2.8-6.5,6.4-6.5C470.6,211.2,473.4,214.1,473.4,217.7 M475,217.7c0-4.4-3.6-7.9-7.9-7.9
		c-4.4,0-7.9,3.6-7.9,7.9c0,4.4,3.6,7.9,7.9,7.9C471.4,225.6,475,222.1,475,217.7"/>
</g>
</svg>
