<?xml version="1.0" encoding="utf-8"?>
<!-- Generator: Adobe Illustrator 19.1.0, SVG Export Plug-In . SVG Version: 6.00 Build 0)  -->
<svg version="1.1" id="Calque_2" xmlns="http://www.w3.org/2000/svg" xmlns:xlink="http://www.w3.org/1999/xlink" x="0px" y="0px"
	 viewBox="0 0 500 500" style="enable-background:new 0 0 500 500;" xml:space="preserve">
<style type="text/css">
	.st0{fill:#363B3E;}
	.st1{fill:#FFFFFF;}
	.st2{fill:#E6A300;}
</style>
<g>
	<rect x="25" y="195.8" class="st0" width="450" height="108.4"/>
	<rect x="361.5" y="198.4" class="st1" width="110.4" height="102.8"/>
	<path class="st1" d="M117,207.7c0,0,0,30.8,0,44.6c0,13.7-12.1,24.9-27,24.9c-14.9,0-27-11.1-27-24.9v-8.1h17.3v8.1
		c0,5.7,4.1,10.3,9.7,10.3s9.7-4.6,9.7-10.3c0-5.7,0-44.6,0-44.6L117,207.7L117,207.7z"/>
	<path class="st1" d="M187.1,245.5c0-6.4,2.5-9.8,8.3-9.8c5.2,0,7.4,4.4,7.4,9.8H187.1L187.1,245.5z M219,255.4
		c0-19.3-7.6-30.2-25.1-30.2c-14,0-23.3,11.7-23.3,26.1c0,16.5,10.6,25.8,24.8,25.8c10,0,20.4-5.7,23.4-16.1h-16.4
		c-1.4,2.4-3.1,5.1-7.1,5.1c-5.9,0-8.1-4.9-8.1-10.7H219L219,255.4z"/>
	<path class="st1" d="M136.3,245.5c0-6.4,2.5-9.8,8.3-9.8c5.2,0,7.4,4.4,7.4,9.8H136.3L136.3,245.5z M168.1,255.4
		c0-19.3-7.6-30.2-25.1-30.2c-14,0-23.3,11.7-23.3,26.1c0,16.5,10.6,25.8,24.8,25.8c10,0,20.4-5.7,23.4-16.1h-16.4
		c-1.4,2.4-3.1,5.1-7.1,5.1c-5.9,0-8.1-4.9-8.1-10.7H168.1L168.1,255.4z"/>
	<g>
		<path class="st1" d="M251.6,225.6c-4.9,0-9.5,2.6-13.1,6.2v-4.6H222v65.1h16.5v-19.2c3.6,3.5,8.1,5.6,13.1,5.6
			c11.7,0,21.2-11.8,21.2-26.3C272.7,237.9,263.3,225.6,251.6,225.6z M247.1,267.3c-4.8,0-8.7-6-8.7-14c0-8,3.9-14.5,8.7-14.5
			c6.9,0,8.7,6.5,8.7,14.5C255.8,261.2,253.3,267.3,247.1,267.3z"/>
	</g>
	<path class="st1" d="M261.5,284c0,3,2.3,5.3,5,5.3c2.7,0,5-2.3,5-5.3c0-3-2.3-5.2-5-5.2C263.8,278.8,261.5,281,261.5,284L261.5,284
		z M262.4,284c0-2.5,1.8-4.5,4.1-4.5c2.3,0,4.1,1.9,4.1,4.5c0,2.6-1.8,4.5-4.1,4.5C264.2,288.5,262.4,286.6,262.4,284L262.4,284z
		 M264.6,287.1h0.9v-2.6h1l1.6,2.6h1l-1.7-2.7c0.9-0.1,1.5-0.6,1.5-1.7c0-1.2-0.6-1.8-2-1.8h-2.3L264.6,287.1L264.6,287.1z
		 M265.5,281.7h1.2c0.6,0,1.3,0.1,1.3,0.9c0,1-0.7,1-1.5,1h-1L265.5,281.7L265.5,281.7z"/>
	<g>
		<path class="st2" d="M417.1,297.1c-26,0-47.1-21.1-47.1-47.1s21.1-47.1,47.1-47.1s47.1,21.1,47.1,47.1S443.1,297.1,417.1,297.1z
			 M417.1,215.7c-18.9,0-34.3,15.4-34.3,34.3s15.4,34.3,34.3,34.3s34.3-15.4,34.3-34.3S436,215.7,417.1,215.7z"/>
	</g>
	<g>
		<polygon class="st2" points="417.1,267 391,285.9 401,255.2 374.9,236.3 407.1,236.3 417.1,205.6 427.1,236.3 459.3,236.3 
			433.2,255.2 443.2,285.9 		"/>
		<path class="st1" d="M417.1,210.8l8.8,27.1h28.5l-23.1,16.7l8.8,27.1l-23-16.8l-23,16.8l8.8-27.1l-23.1-16.7h28.5L417.1,210.8
			 M417.1,200.4l-3,9.4l-8.1,24.9h-26.2h-9.9l8,5.8l21.2,15.4l-8.1,24.9l-3,9.4l8-5.8l21.2-15.4l21.2,15.4l8,5.8l-3-9.4l-8.1-24.9
			l21.2-15.4l8-5.8h-9.9h-26.2l-8.1-24.9L417.1,200.4L417.1,200.4z"/>
	</g>
</g>
</svg>
