<?xml version="1.0" encoding="utf-8"?>
<!-- Generator: Adobe Illustrator 19.1.0, SVG Export Plug-In . SVG Version: 6.00 Build 0)  -->
<svg version="1.1" id="Calque_1" xmlns="http://www.w3.org/2000/svg" xmlns:xlink="http://www.w3.org/1999/xlink" x="0px" y="0px"
	 viewBox="0 0 500 500" style="enable-background:new 0 0 500 500;" xml:space="preserve">
<style type="text/css">
	.st0{fill:#FFD400;}
	.st1{fill:#231F20;}
	.st2{fill:#FFFFFF;}
</style>
<g>
	<path class="st0" d="M475,250c0,124.3-100.7,225-225,225C125.7,475,25,374.3,25,250C25,125.7,125.7,25,250,25
		C374.3,25,475,125.7,475,250"/>
	<path class="st1" d="M339.7,170.8c-15.6,0-29.6-3.9-43.2-7.6c-14.3-4-29.1-8.1-46.8-8.1c-17.9,0-41.8,4.1-62.8,7.7
		c-18.8,3.2-36.5,6.3-48.8,6.3c-7.5,0-15.2-1.5-22.6-4c1.8,4.8,3.9,9.3,6.5,13.5c5,1.2,10.4,1.9,16.1,1.9c10.7,0,27.8-2.9,45.8-6
		c21.7-3.7,46.4-8,65.8-8c20.2,0,36.9,4.6,51.6,8.7c13,3.6,25.2,7,38.4,7c15.8,0,35.6-4.5,49.2-13c1.1-3.8,1.9-7.7,2.2-11.9
		C375.4,166.5,355.9,170.8,339.7,170.8 M296.5,192.2c-14.3-4-29.1-8.1-46.8-8.1c-17.9,0-41.8,4.1-62.8,7.7
		c-18.7,3.2-36.3,6.3-48.6,6.3c4.3,3.8,9.1,7.2,14.2,10.3c9.2-1.1,20.1-3,31.4-4.9c21.7-3.7,46.4-8,65.8-8c20.2,0,36.9,4.6,51.6,8.7
		c13,3.6,25.2,7,38.4,7c3.8,0,8.4-0.5,13.2-1.4c7.9-4.3,14.9-9.3,20.5-15c-11.5,3.3-23.3,4.9-33.7,4.9
		C324,199.8,310,195.9,296.5,192.2z M183.8,145.4c21.7-3.7,46.4-8,65.8-8c20.2,0,36.9,4.6,51.6,8.7c13,3.6,25.2,7,38.4,7
		c15.3,0,35-4.7,48.1-14.7C368.3,106,270.9,133.5,220,82.6c-36.8-36.8-114.5-0.7-109.4,61c8.5,4.8,18.4,7.8,27.4,7.8
		C148.8,151.4,165.8,148.5,183.8,145.4z M249.7,213.2c-17.9,0-41.8,4.1-62.8,7.7c-1.3,0.2-2.7,0.5-4,0.7c19.6,5.9,42.7,8.9,68.7,8.9
		c21,0,40.8-1.9,58.6-5.6c-4.6-1.1-9.1-2.4-13.6-3.6C282.2,217.3,267.4,213.2,249.7,213.2z"/>
	<path class="st1" d="M475,250c0,124.3-100.7,225-225,225C125.7,475,25,374.3,25,250H475"/>
	<path class="st2" d="M93.2,332.2v10.1h-2l-0.7-2c-1.3,0.9-3.1,2.2-6.5,2.2c-4.4,0-9.7-2.4-9.7-10c0-5.1,2.8-10.1,9.7-10.1
		c4,0,8.3,1.6,9.1,6.5h-3.4c-0.4-1-1.3-3.3-5.3-3.3c-5.4,0-6.7,4.1-6.7,6.7c0,4.5,2.8,6.9,6.4,6.9c3.3,0,5.2-1.3,6-4h-6.1v-3
		L93.2,332.2"/>
	<path class="st2" d="M96.5,322.9h10.4c4.1,0,7,1,7,5.7c0,3.6-2.3,5.5-4.8,5.7l5.3,7.8h-4.2l-5-7.5h-5.4v7.5h-3.4V322.9
		 M106.3,331.4c2.8,0,4.2-0.4,4.2-2.7c0-2.2-1.4-2.7-4.2-2.7h-6.5v5.4L106.3,331.4L106.3,331.4z"/>
	<path class="st2" d="M126.7,322.4c7.6,0,10.3,5,10.3,10.2c0,4-2.1,9.9-10.3,9.9c-8.2,0-10.3-5.9-10.3-9.9
		C116.4,327.4,119.1,322.4,126.7,322.4 M133.6,332.4c0-4.6-3-6.8-6.9-6.8c-3.9,0-6.9,2.2-6.9,6.8c0,5.4,3.7,6.9,6.9,6.9
		C130,339.3,133.6,337.8,133.6,332.4z"/>
	<path class="st2" d="M158.3,333.8c0,6.2-3.5,8.7-9.2,8.7c-5.6,0-9.2-2.5-9.2-8.7v-10.9h3.4v10.7c0,3.2,1,5.8,5.8,5.8
		c4.8,0,5.8-2.6,5.8-5.8v-10.7h3.4L158.3,333.8"/>
	<path class="st2" d="M162.4,322.9h9.6c2.9,0,7.7,0,7.7,5.9c0,5.8-4.8,5.8-7.7,5.8h-6.2v7.4h-3.4L162.4,322.9 M172.7,331.4
		c1.9,0,3.6-0.2,3.6-2.6c0-2.5-1.7-2.6-3.6-2.6h-7v5.3L172.7,331.4L172.7,331.4z"/>
	<polyline class="st2" points="182.1,322.9 197.6,322.9 197.6,326.1 185.5,326.1 185.5,330.6 195.9,330.6 195.9,333.8 185.5,333.8 
		185.5,338.8 197.9,338.8 197.9,342.1 182.1,342.1 182.1,322.9 	"/>
	<path class="st2" d="M262.9,291.4h-17.3V378c0,4.1-1.1,4.3-4.3,4.3v7.7h86v-17.1h-64.3V291.4 M207.3,351.4
		c0.2,14.5-3.8,22.7-24.2,22.5c-7.7,0-13.7-1.4-19.9-3.1v18c4.3,1.2,13.7,2.2,22,2.2c26.1,0,39.2-9.5,39.4-38.5v-49.2
		c0-4.1,1.1-4.3,4.3-4.3v-7.7h-21.7L207.3,351.4L207.3,351.4z M422.2,307.9v-16.6h-86v7.7c3.2,0,4.3,0.2,4.3,4.3V390h17.3v-42.6
		h55.3v-16.6h-55.3v-22.9H422.2z"/>
</g>
</svg>
