<?xml version="1.0" encoding="utf-8"?>
<!-- Generator: Adobe Illustrator 16.0.0, SVG Export Plug-In . SVG Version: 6.00 Build 0)  -->
<!DOCTYPE svg PUBLIC "-//W3C//DTD SVG 1.1//EN" "http://www.w3.org/Graphics/SVG/1.1/DTD/svg11.dtd">
<svg version="1.1" id="Calque_1" xmlns="http://www.w3.org/2000/svg" xmlns:xlink="http://www.w3.org/1999/xlink" x="0px" y="0px"
	 width="500px" height="500px" viewBox="0 0 500 500" enable-background="new 0 0 500 500" xml:space="preserve">
<g>
	<g>
		<g>
			<g>
				<path fill="#D0E9F7" d="M466.58,175.744c-5.898-8.591-17.182-8.591-17.182-8.591h-236.82l-8.594,13.43h66.595l-9.397,17.176
					h-64.712l-29.002,49.413c0,0-7.515,10.203-15.576,10.203c-8.052,0-55.306,0-55.306,0s-6.445-4.298,0.533-10.743h-61.75
					c0,0-7.118,3.492-7.118,13.156c0,9.665,7.118,12.617,7.118,12.617h373.214c0,0,12.356-0.533,19.874-9.664
					c7.512-9.131,38.663-67.662,38.663-67.662S472.492,184.341,466.58,175.744z M400.798,195.079
					c-4.565,9.397-31.685,54.505-31.685,54.505s-6.705,8.325-13.69,8.325h-61.217l41.076-75.18h57.998
					C393.28,182.729,405.363,185.681,400.798,195.079z"/>
			</g>
		</g>
		<g>
			<g>
				<path fill="#175FA7" d="M408.652,275.656l-374.528-0.248C33.75,275.255,25,271.491,25,259.788
					c0-11.556,8.572-15.893,8.937-16.07l0.676-0.337h70.818l-6.105,5.639c-1.492,1.384-2.273,2.68-2.197,3.657
					c0.048,0.571,0.378,1.086,0.692,1.448h54.07c5.238,0,11.261-6.579,12.959-8.877l29.758-50.74h64.642l5.842-10.674h-67.049
					l12.756-19.932h238.598c0.533,0,13.073,0.114,19.861,10.001c6.921,10.064,1.022,22.122,0.769,22.63
					c-1.314,2.477-31.431,59.001-39.063,68.277c-8.343,10.135-21.678,10.82-22.242,10.846H408.652z M36.144,269.154h372.344
					c0.857-0.058,11.232-0.914,17.462-8.477c5.778-7.023,27.576-46.981,38.301-67.123c0-0.013,4.375-9.099-0.35-15.969
					c-4.876-7.099-14.407-7.182-14.502-7.182H214.356l-4.432,6.928h66.134l-12.953,23.678H198.33l-28.059,47.807
					c-1.054,1.467-8.947,11.811-18.379,11.811h-56.29l-0.819-0.547c-0.387-0.26-3.8-2.647-4.134-6.889
					c-0.089-1.117,0.042-2.216,0.387-3.309H36.264c-1.353,0.927-4.762,3.867-4.762,9.905
					C31.502,265.839,34.88,268.405,36.144,269.154z M355.423,261.16h-66.696l44.625-81.682l60.703,0.095
					c0.762,0.184,7.575,1.987,10.108,7.385c0.939,2,1.632,5.283-0.438,9.543c-4.578,9.417-30.714,52.912-31.825,54.759
					C370.859,252.6,363.723,261.16,355.423,261.16z M299.687,254.658h55.736c4.433,0,9.671-5.264,11.157-7.112
					c0.019-0.083,26.846-44.727,31.291-53.89c1.149-2.356,0.59-3.543,0.412-3.93c-0.972-2.063-4.152-3.353-5.441-3.747h-55.629
					L299.687,254.658z"/>
			</g>
		</g>
	</g>
	<g>
		<path fill="#175FA7" d="M202.781,275.795v-6.502c13.845,0,20.376-10.54,20.443-10.648l44.511-79.65l5.677,3.175l-44.568,79.746
			C228.446,262.569,220.252,275.795,202.781,275.795z"/>
	</g>
	<g>
		<path d="M57.053,294.667v25.704c0,3.942-0.489,6.952-1.467,9.016c-0.978,2.064-2.88,3.695-5.715,4.902
			c-2.832,1.206-6.67,1.81-11.505,1.81c-4.261,0-8.115-0.33-11.55-0.99v-9.747c2.416,0.502,4.68,0.749,6.762,0.749
			c2.474,0,4.239-0.413,5.28-1.238c1.044-0.831,1.568-2.33,1.568-4.501v-25.704H57.053z"/>
		<path d="M90.624,336.098c-7.915,0-14.369-1.905-19.36-5.708c-4.997-3.811-7.493-8.902-7.493-15.277
			c0-6.096,2.387-11.138,7.159-15.112c4.769-3.981,11.395-5.962,19.862-5.962c7.839,0,14.227,1.873,19.163,5.612
			c4.937,3.753,7.407,8.75,7.407,15.011c0,6.477-2.492,11.671-7.471,15.576C104.914,334.142,98.488,336.098,90.624,336.098z
			 M90.547,326.828c2.912,0,5.007-0.921,6.292-2.762c1.276-1.848,1.915-5.22,1.915-10.122c0-7.093-2.625-10.642-7.876-10.642
			c-5.674,0-8.499,4.045-8.499,12.134C82.379,323.031,85.103,326.828,90.547,326.828z"/>
		<path d="M141.951,294.667v40.803h-17.287v-40.803H141.951z"/>
		<path d="M199.904,335.469h-14.071l-15.414-18.026c-1.987-2.317-3.981-5.124-5.994-8.426c0.911,2.629,1.362,4.857,1.362,6.692
			v19.76h-14.029v-40.803h16.337l13.119,14.947c2.613,2.966,4.597,5.575,5.94,7.829c-0.879-3.486-1.321-7.055-1.321-10.705v-12.071
			h14.071V335.469z"/>
		<path d="M232.862,304.439v31.03h-16.376v-31.03H204.81v-9.772h39.727v9.772H232.862z"/>
		<path d="M270.566,335.469v-40.803h21.773c9.467,0,16.554,2.032,21.252,6.096s7.048,8.769,7.048,14.108
			c0,6.096-2.514,11.056-7.568,14.871c-5.042,3.816-11.595,5.728-19.658,5.728H270.566z M287.851,326.084h4.489
			c2.863,0,5.276-1.009,7.245-3.022c1.968-2.013,2.945-4.756,2.945-8.223c0-2.965-0.863-5.53-2.615-7.677
			c-1.74-2.152-4.268-3.231-7.575-3.231h-4.489V326.084z"/>
		<path d="M373.615,294.667v27.018c0,5.124-2.108,8.808-6.293,11.049c-4.197,2.241-9.664,3.365-16.407,3.365
			c-7.093,0-12.788-1.079-17.094-3.231c-4.298-2.146-6.451-5.658-6.451-10.521v-27.679h17.57v26.212
			c0,1.955,0.564,3.378,1.701,4.279c1.143,0.896,2.959,1.34,5.461,1.34c2.082,0,3.791-0.324,5.111-0.972
			c1.334-0.642,2.127-1.378,2.394-2.197c0.254-0.813,0.388-2.406,0.388-4.781v-23.881H373.615z"/>
		<path d="M412.71,335.469l-3.194-8.045h-15.08l-3.378,8.045h-14.033l17.386-40.803h18.274l17.658,40.803H412.71z M397.382,318.516
			h9.105l-4.56-11.829L397.382,318.516z"/>
		<path d="M475,325.45v10.02h-39.476v-40.803h17.29v30.783H475z"/>
	</g>
</g>
</svg>
