<?xml version="1.0" encoding="utf-8"?>
<!-- Generator: Adobe Illustrator 21.0.2, SVG Export Plug-In . SVG Version: 6.00 Build 0)  -->
<svg version="1.1" id="Calque_1" xmlns="http://www.w3.org/2000/svg" xmlns:xlink="http://www.w3.org/1999/xlink" x="0px" y="0px"
	 viewBox="0 0 500 500" style="enable-background:new 0 0 500 500;" xml:space="preserve">
<style type="text/css">
	.st0{fill:#D0E9F7;}
	.st1{fill:#175FA7;}
</style>
<path class="st0" d="M466.6,175.7c-5.9-8.6-17.2-8.6-17.2-8.6H212.6l-8.6,13.4h66.6l-9.4,17.2h-64.7l-29,49.4
	c0,0-7.5,10.2-15.6,10.2c-8.1,0-55.3,0-55.3,0s-6.4-4.3,0.5-10.7H35.4c0,0-7.1,3.5-7.1,13.2c0,9.7,7.1,12.6,7.1,12.6h373.2
	c0,0,12.4-0.5,19.9-9.7c7.5-9.1,38.7-67.7,38.7-67.7S472.5,184.3,466.6,175.7z M400.8,195.1c-4.6,9.4-31.7,54.5-31.7,54.5
	s-6.7,8.3-13.7,8.3h-61.2l41.1-75.2h58C393.3,182.7,405.4,185.7,400.8,195.1z"/>
<path class="st1" d="M408.7,275.7l-374.5-0.2c-0.4-0.2-9.1-3.9-9.1-15.6c0-11.6,8.6-15.9,8.9-16.1l0.7-0.3h70.8l-6.1,5.6
	c-1.5,1.4-2.3,2.7-2.2,3.7c0,0.6,0.4,1.1,0.7,1.4h54.1c5.2,0,11.3-6.6,13-8.9l29.8-50.7h64.6l5.8-10.7h-67l12.8-19.9h238.6
	c0.5,0,13.1,0.1,19.9,10c6.9,10.1,1,22.1,0.8,22.6c-1.3,2.5-31.4,59-39.1,68.3C422.6,274.9,409.3,275.6,408.7,275.7L408.7,275.7z
	 M36.1,269.2h372.3c0.9-0.1,11.2-0.9,17.5-8.5c5.8-7,27.6-47,38.3-67.1c0,0,4.4-9.1-0.4-16c-4.9-7.1-14.4-7.2-14.5-7.2h-235
	l-4.4,6.9h66.1l-13,23.7h-64.8l-28.1,47.8c-1.1,1.5-8.9,11.8-18.4,11.8H95.6l-0.8-0.5c-0.4-0.3-3.8-2.6-4.1-6.9
	c-0.1-1.1,0-2.2,0.4-3.3H36.3c-1.4,0.9-4.8,3.9-4.8,9.9C31.5,265.8,34.9,268.4,36.1,269.2z M355.4,261.2h-66.7l44.6-81.7l60.7,0.1
	c0.8,0.2,7.6,2,10.1,7.4c0.9,2,1.6,5.3-0.4,9.5c-4.6,9.4-30.7,52.9-31.8,54.8C370.9,252.6,363.7,261.2,355.4,261.2z M299.7,254.7
	h55.7c4.4,0,9.7-5.3,11.2-7.1c0-0.1,26.8-44.7,31.3-53.9c1.1-2.4,0.6-3.5,0.4-3.9c-1-2.1-4.2-3.4-5.4-3.7h-55.6L299.7,254.7z"/>
<path class="st1" d="M202.8,275.8v-6.5c13.8,0,20.4-10.5,20.4-10.6l44.5-79.6l5.7,3.2l-44.6,79.7
	C228.4,262.6,220.3,275.8,202.8,275.8z"/>
<path d="M57.1,294.7v25.7c0,3.9-0.5,7-1.5,9s-2.9,3.7-5.7,4.9c-2.8,1.2-6.7,1.8-11.5,1.8c-4.3,0-8.1-0.3-11.5-1v-9.7
	c2.4,0.5,4.7,0.7,6.8,0.7c2.5,0,4.2-0.4,5.3-1.2c1-0.8,1.6-2.3,1.6-4.5v-25.7L57.1,294.7L57.1,294.7z"/>
<path d="M90.6,336.1c-7.9,0-14.4-1.9-19.4-5.7c-5-3.8-7.5-8.9-7.5-15.3c0-6.1,2.4-11.1,7.2-15.1c4.8-4,11.4-6,19.9-6
	c7.8,0,14.2,1.9,19.2,5.6c4.9,3.8,7.4,8.8,7.4,15c0,6.5-2.5,11.7-7.5,15.6C104.9,334.1,98.5,336.1,90.6,336.1z M90.5,326.8
	c2.9,0,5-0.9,6.3-2.8c1.3-1.8,1.9-5.2,1.9-10.1c0-7.1-2.6-10.6-7.9-10.6c-5.7,0-8.5,4-8.5,12.1C82.4,323,85.1,326.8,90.5,326.8z"/>
<path d="M142,294.7v40.8h-17.3v-40.8H142z"/>
<path d="M199.9,335.5h-14.1l-15.4-18c-2-2.3-4-5.1-6-8.4c0.9,2.6,1.4,4.9,1.4,6.7v19.8h-14v-40.8h16.3l13.1,14.9
	c2.6,3,4.6,5.6,5.9,7.8c-0.9-3.5-1.3-7.1-1.3-10.7v-12.1h14.1V335.5z"/>
<path d="M232.9,304.4v31h-16.4v-31h-11.7v-9.8h39.7v9.8H232.9z"/>
<path d="M270.6,335.5v-40.8h21.8c9.5,0,16.6,2,21.3,6.1s7,8.8,7,14.1c0,6.1-2.5,11.1-7.6,14.9c-5,3.8-11.6,5.7-19.7,5.7H270.6z
	 M287.9,326.1h4.5c2.9,0,5.3-1,7.2-3c2-2,2.9-4.8,2.9-8.2c0-3-0.9-5.5-2.6-7.7c-1.7-2.2-4.3-3.2-7.6-3.2h-4.5V326.1z"/>
<path d="M373.6,294.7v27c0,5.1-2.1,8.8-6.3,11c-4.2,2.2-9.7,3.4-16.4,3.4c-7.1,0-12.8-1.1-17.1-3.2c-4.3-2.1-6.5-5.7-6.5-10.5v-27.7
	h17.6v26.2c0,2,0.6,3.4,1.7,4.3c1.1,0.9,3,1.3,5.5,1.3c2.1,0,3.8-0.3,5.1-1c1.3-0.6,2.1-1.4,2.4-2.2c0.3-0.8,0.4-2.4,0.4-4.8v-23.9
	L373.6,294.7L373.6,294.7z"/>
<path d="M412.7,335.5l-3.2-8h-15.1l-3.4,8h-14l17.4-40.8h18.3l17.7,40.8H412.7z M397.4,318.5h9.1l-4.6-11.8L397.4,318.5z"/>
<path d="M475,325.5v10h-39.5v-40.8h17.3v30.8L475,325.5L475,325.5z"/>
</svg>
