<?xml version="1.0" encoding="utf-8"?>
<!-- Generator: Adobe Illustrator 19.1.0, SVG Export Plug-In . SVG Version: 6.00 Build 0)  -->
<svg version="1.1" id="Calque_2" xmlns="http://www.w3.org/2000/svg" xmlns:xlink="http://www.w3.org/1999/xlink" x="0px" y="0px"
	 viewBox="0 0 500 500" style="enable-background:new 0 0 500 500;" xml:space="preserve">
<style type="text/css">
	.st0{fill:#CC071E;}
</style>
<g>
	<polygon class="st0" points="25,250.1 72.2,275.9 250.3,179.9 352.8,232.9 399,209.2 250.3,129.1 	"/>
	<polygon class="st0" points="475,249.9 427.8,224.1 249.7,320.1 147.2,267.1 101,290.8 249.7,370.9 	"/>
	<path d="M180.4,270.2h19.7c0,0,10.7-1.3,10.7-9.9v-31.9h-15.2v26.9c0,0,0.3,4-4,4h-11.2L180.4,270.2"/>
	<path d="M245.3,243.9c0,4.7-3.6,5.4-3.6,5.4h-8v-10.8h6.7C241.4,238.5,245.3,239.2,245.3,243.9 M260.3,243.8
		c0-13.6-8.4-15.4-12-15.4h-29.8v41.8h15.3V258h16.5C250.3,258,260.3,257.4,260.3,243.8"/>
	<path d="M264.5,228.4c0.1,0,0,41.8,0,41.8h12.6v-30.8l8.3,30.8h12.4l8.7-30.8v30.8h13.9v-41.8h-22.9l-5.5,23.2l-5.8-23.2
		L264.5,228.4"/>
</g>
</svg>
