<?xml version="1.0" encoding="utf-8"?>
<!-- Generator: Adobe Illustrator 19.1.0, SVG Export Plug-In . SVG Version: 6.00 Build 0)  -->
<svg version="1.1" id="Calque_1" xmlns="http://www.w3.org/2000/svg" xmlns:xlink="http://www.w3.org/1999/xlink" x="0px" y="0px"
	 viewBox="0 0 500 500" style="enable-background:new 0 0 500 500;" xml:space="preserve">
<style type="text/css">
	.st0{fill:#191E43;}
	.st1{fill:#FFFFFF;}
</style>
<g>
	<rect x="69.4" y="25" class="st0" width="361.1" height="450"/>
	<g>
		<rect x="384.5" y="429" class="st1" width="10.8" height="10.6"/>
		<rect x="295" y="429" class="st1" width="10.8" height="10.6"/>
		<rect x="222.1" y="429" class="st1" width="10.8" height="10.6"/>
		<rect x="139.4" y="429" class="st1" width="10.8" height="10.6"/>
		<polygon class="st1" points="289.7,369.7 275.7,369.7 265,369.7 251.1,369.7 251.1,381 265,381 265,439.6 275.7,439.6 275.7,381 
			289.7,381 		"/>
		<polygon class="st1" points="356,369.7 356,399 335.5,399 335.5,369.7 324.8,369.7 324.8,439.6 335.5,439.6 335.5,409.4 
			356,409.4 356,439.6 366.7,439.6 366.7,369.7 		"/>
		<path class="st1" d="M115.6,369.7V419c0,5.5-4.5,10-10,10h-0.9v10.6h1.7c11,0,20-9,20-20v-49.8H115.6z"/>
		<path class="st1" d="M202.1,403.2c-3.7-2.9-8.5-4.6-13.8-4.6c-5.2-0.5-8.6-4.7-8.6-9.8s4.1-9.2,9.2-9.2c2.6,0,4.9,1,6.6,2.7l4-10
			c-3.1-2-6.7-3.1-10.6-3.1c-10.8,0-19.6,8.8-19.6,19.6c0,5.3,2.1,10.1,5.6,13.7c2.5,2.5,5.6,4.4,9.1,5.3c1.6,0.4,3.2,0.6,4.9,0.6
			c1.4,0,2.8-0.2,4.1-0.4c3.8,1.8,6.5,5.6,6.5,10.1c0,6.2-5,11.2-11.2,11.2c-6.2,0-11.2-5-11.2-11.2c0-0.3,0-0.5,0-0.8h-9.8
			c0,0.3,0,0.5,0,0.8c0,11.6,9.4,20.9,20.9,20.9s20.9-9.4,20.9-20.9C209.1,411.9,206.4,406.7,202.1,403.2z"/>
	</g>
	<g>
		<polygon class="st1" points="250.3,41.2 107.2,191.9 250.3,341.7 392.8,191.5 		"/>
		<path class="st0" d="M155.4,141.1c0,0,29.4,11.1,36,11.1s33.9-19.2,44-19.2c10.1,0,11.3,0,11.3,0s5.2-3.6,11-3.6
			c5.9,0,38.3,11.4,43,11.4c4.7,0,33.9-11.4,33.9-11.4l58.3,62.1L350,236.1c0,0-4.5,1.9-10.1-4.2c-5.6-6.1-10.6-10.2-15.8-9.2
			c-5.2,1-9.6,4.8-11,5.2c-1.4,0.5-1.6,6.6-7.5,9.6c-5.9,3.1-10.6,3.1-10.6,3.1s-1.2,6.6-6.6,11.1c-5.4,4.5-11.3,3.5-11.3,3.5
			s-7.1,7.1-13.4,8.2s-9.4,0-9.4,0s-6.3,9.6-16.7,5.4c-3.6-1.6-6.8-5.6-6.8-5.6s-6.8,2.6-11.8,0.2c-4.9-2.4-6.3-8.5-6.3-8.5
			s-6.6,0-11.1-3.1c-4.5-3.1-4.7-5.6-4.7-5.6s-9.9,3-15.5-1.2c-5.6-4.2-3.1-14.5-3.1-14.5l-13.6-12.9l-10.6,24.7l-47-50.3
			L155.4,141.1z"/>
		<path class="st1" d="M312.7,140.9c0,0-5.9,0.1-3.3,3.4c2.6,3.2,11,19.9,14.8,39.9c3.8,20-2.6,35,4.2,36s12.7,2.8,9.9-18.1
			c-2.8-20.9-5.6-28.2-4-28.4c1.6-0.2,10.3,32.7,11.5,44c1.2,11.3-4.9,13.6-2.4,14.8c2.6,1.2,12.9-7.3-2.6-54.6
			C323.5,138.8,312.7,140.9,312.7,140.9z"/>
		<path class="st1" d="M298.8,144.3c0,0-25.9-6.7-31.7-9c-5.9-2.4-14.1-4-19,0c-4.9,4-22.1,17.2-24,24.9v-4.7
			c0,0-18.1,9.9-10.3,13.9c7.8,4,26.6,4.2,30.8-12.7c0,0,2.4,5.2,6.8,3.5s5.9-4.5,5.9-9.6c0,0,1.4,5.1,3.1,4.9s3.1-1.6,3.1-1.6
			s-3.8,5.6,4.7,9.9s22.1,10.1,29.9,10.1c7.8,0,10.9-4.9,10.9-11.1C308.7,156.7,306.6,146.3,298.8,144.3z"/>
		<path class="st1" d="M318.8,180.4c0,0-0.4,18.3-10.1,10.6c0,0,19.2,18.3,12.6,28.7c-6.6,10.3-27.7-9.9-45.6-28.9
			c0,0,0,7.8,14.8,19.3c14.8,11.5,21.4,15.3,16.7,21.4c-4.7,6.1-8.2,8.9-19.5,1c-11.3-7.9-16.2-11.2-22.6-10.9
			c0,0,12.5,5.6,18.8,10.9s8.9,7.4,8.9,7.4s-4.7,17.6-15.5,10.8c-10.8-6.8-18.1-12-24.7-10.6c0,0,10.1,6.3,14.8,8.5
			c4.7,2.1,6.8,3.7,6.8,3.7s-5.9,6.4-8.9,7.1c-3.1,0.7-5.9,0.1-12.7-3.2c-6.8-3.4-11.3-8.3-12.9-14.4s-4.2-6.1-20.2-9.3
			s-47.3-6.2-44-35.8c3.3-29.6,9.9-37.9,15.5-40c5.6-2.1,10.7-3.5,20.6-9.4c9.9-5.9,23.1-15.5,30.1-10.6c0,0-14.3,13.2-20.5,17.6
			c-6.1,4.5-17.5,11.8-9.7,16.7c7.8,4.9,15.3,7.1,21.4,2.8c6.1-4.2,12-10.6,16.8-10.8c4.8-0.2,5.8-3.8,10.2-1.6
			c4.5,2.1,8.2,6.1,10.6,12.5c2.4,6.3,2.1,11.3,2.1,11.3s8.6-4-0.2-12.7c0,0,12.2,8.7,19.7,12C300,187.7,307.5,188.4,318.8,180.4z"
			/>
		<path class="st0" d="M269.9,201.3c0,0-1.4,7.7-6.8,10.1C263,211.4,274.3,216.6,269.9,201.3z"/>
		<path class="st0" d="M251.8,223.9l-5.9,9.9C245.9,233.8,255.8,236.8,251.8,223.9z"/>
		<path class="st0" d="M245.9,185.1c0,0-25.9-1.2-39.3-4.9c-13.4-3.8-27.5-3.5-12,0C210.1,183.7,228.3,186.5,245.9,185.1z"/>
		<path class="st0" d="M209,206.8c0,0-21.9-8.5-24.7-10.6S171.6,199.6,209,206.8z"/>
		<path class="st1" d="M153.3,237.5c0,0,14.8-38.1,22.1-60.1c7.3-22,8-24.1,4.5-25.2c-3.5-1.2-13.4,13.2-21.6,33.3
			c-8.2,20.1-17.4,39.6-17.4,39.6l2.4,3.9c0,0,27-68.1,29.6-66.5c2.6,1.6-27.3,67.7-27.3,67.7L153.3,237.5z"/>
		<polygon class="st1" points="152.4,144.3 170.7,150.5 137.1,223.9 107.2,191.9 		"/>
		<path class="st1" d="M337.8,132.8l-17.4,6.9c0,0,22.6,22.6,28.8,52.4c6.2,29.9,3,41.7,3,41.7l40.6-42.4L337.8,132.8z"/>
		<path class="st1" d="M198.7,240.5l-18.3-8.1c0,0-2.2,8.9,4,11.9C190.5,247.2,198.7,240.5,198.7,240.5z"/>
		<path class="st1" d="M214.5,233.3c0,0-13.3-1.7-13.7,6c-0.4,7.7,0.5,9.4,3,11.2s9,4.1,9.7-0.7c0.7-4.8,9-10.8,6-13.8
			C216.6,233,214.5,233.3,214.5,233.3z"/>
		<path class="st1" d="M235.8,242.9c0,0-17.4-8.3-18.9,6.4c-1.5,14.6,8,14.9,12,10.4C233,255.1,241.5,251.3,235.8,242.9z"/>
		<path class="st0" d="M228,251.4l-8.6-2.1C219.4,249.3,220.3,256.6,228,251.4z"/>
		<path class="st1" d="M237.7,253.3c0,0-5.4,7.5-2.1,9c3.4,1.5,4.8,1,4.8,1s-4.6,2.1,0,3.2c4.6,1.1,11.6-4.1,11.6-4.1L237.7,253.3z"
			/>
		<path class="st0" d="M374.2,216.2c-5.1,0-9.2-4.1-9.2-9.2s4.1-9.2,9.2-9.2s9.2,4.1,9.2,9.2S379.3,216.2,374.2,216.2z M374.2,199.2
			c-4.3,0-7.8,3.5-7.8,7.8s3.5,7.8,7.8,7.8c4.3,0,7.8-3.5,7.8-7.8S378.5,199.2,374.2,199.2z"/>
	</g>
</g>
</svg>
