<?xml version="1.0" encoding="utf-8"?>
<!-- Generator: Adobe Illustrator 16.0.0, SVG Export Plug-In . SVG Version: 6.00 Build 0)  -->
<!DOCTYPE svg PUBLIC "-//W3C//DTD SVG 1.1//EN" "http://www.w3.org/Graphics/SVG/1.1/DTD/svg11.dtd">
<svg version="1.1" id="Calque_1" xmlns="http://www.w3.org/2000/svg" xmlns:xlink="http://www.w3.org/1999/xlink" x="0px" y="0px"
	 width="500px" height="500px" viewBox="0 0 500 500" enable-background="new 0 0 500 500" xml:space="preserve">
<g>
	<rect x="69.436" y="25" fill="#191E43" width="361.129" height="450"/>
	<g>
		<rect x="384.541" y="428.978" fill="#FFFFFF" width="10.757" height="10.58"/>
		<rect x="294.965" y="428.978" fill="#FFFFFF" width="10.757" height="10.58"/>
		<rect x="222.14" y="428.978" fill="#FFFFFF" width="10.756" height="10.58"/>
		<rect x="139.439" y="428.978" fill="#FFFFFF" width="10.757" height="10.58"/>
		<polygon fill="#FFFFFF" points="289.675,369.729 275.745,369.729 264.988,369.729 251.059,369.729 251.059,381.016 
			264.988,381.016 264.988,439.558 275.745,439.558 275.745,381.016 289.675,381.016 		"/>
		<polygon fill="#FFFFFF" points="355.976,369.729 355.976,399.001 335.521,399.001 335.521,369.729 324.765,369.729 
			324.765,439.558 335.521,439.558 335.521,409.404 355.976,409.404 355.976,439.558 366.731,439.558 366.731,369.729 		"/>
		<path fill="#FFFFFF" d="M115.635,369.729v49.251c0,5.498-4.499,9.997-9.997,9.997h-0.936v10.58h1.695
			c10.997,0,19.994-8.997,19.994-19.994v-49.834H115.635z"/>
		<path fill="#FFFFFF" d="M202.072,403.212c-3.69-2.939-8.536-4.623-13.847-4.623c-5.187-0.514-8.641-4.659-8.641-9.756
			s4.132-9.229,9.229-9.229c2.564,0,4.883,1.048,6.556,2.736l4.021-9.974c-3.05-1.964-6.679-3.106-10.577-3.106
			c-10.81,0-19.572,8.762-19.572,19.572c0,5.315,2.121,10.132,5.561,13.659c2.467,2.531,5.612,4.398,9.143,5.302
			c1.557,0.399,3.188,0.611,4.869,0.611c1.399,0,2.757-0.163,4.072-0.442c3.838,1.768,6.509,5.638,6.509,10.14
			c0,6.169-5,11.169-11.168,11.169c-6.167,0-11.167-5-11.167-11.169c0-0.276,0.022-0.55,0.042-0.822h-9.778
			c-0.011,0.273-0.021,0.547-0.021,0.822c0,11.557,9.368,20.925,20.924,20.925s20.925-9.368,20.925-20.925
			C209.149,411.857,206.411,406.667,202.072,403.212z"/>
	</g>
	<g>
		<polygon fill="#FFFFFF" points="250.338,41.223 107.171,191.928 250.338,341.693 392.829,191.458 		"/>
		<path fill="#191E43" d="M155.368,141.144c0,0,29.389,11.05,35.972,11.05s33.856-19.18,43.965-19.18c10.11,0,11.286,0,11.286,0
			s5.172-3.626,11.049-3.626c5.878,0,38.323,11.403,43.025,11.403c4.703,0,33.856-11.403,33.856-11.403l58.307,62.069
			l-42.791,44.671c0,0-4.466,1.88-10.108-4.232c-5.643-6.112-10.579-10.228-15.753-9.228c-5.172,0.999-9.64,4.762-11.05,5.231
			c-1.41,0.47-1.646,6.583-7.524,9.64c-5.877,3.057-10.579,3.057-10.579,3.057s-1.176,6.582-6.583,11.05
			c-5.408,4.467-11.286,3.526-11.286,3.526s-7.053,7.053-13.4,8.229s-9.403,0-9.403,0s-6.348,9.64-16.693,5.408
			c-3.636-1.648-6.819-5.644-6.819-5.644s-6.817,2.586-11.755,0.235c-4.937-2.351-6.348-8.464-6.348-8.464s-6.583,0-11.051-3.057
			c-4.467-3.057-4.702-5.643-4.702-5.643s-9.874,2.958-15.518-1.224c-5.643-4.183-3.056-14.528-3.056-14.528l-13.636-12.931
			l-10.581,24.686l-47.022-50.313L155.368,141.144z"/>
		<path fill="#FFFFFF" d="M312.656,140.909c0,0-5.877,0.141-3.291,3.362c2.585,3.221,11.05,19.914,14.812,39.898
			c3.763,19.984-2.585,35.032,4.232,35.972c6.817,0.94,12.696,2.821,9.874-18.104c-2.82-20.924-5.643-28.213-3.996-28.448
			c1.645-0.235,10.345,32.68,11.52,43.965c1.177,11.285-4.937,13.636-2.35,14.812c2.585,1.176,12.931-7.313-2.587-54.557
			C323.472,138.793,312.656,140.909,312.656,140.909z"/>
		<path fill="#FFFFFF" d="M298.786,144.271c0,0-25.862-6.654-31.74-9.005c-5.879-2.352-14.106-3.997-19.043,0
			c-4.938,3.997-22.102,17.163-23.981,24.921v-4.745c0,0-18.103,9.917-10.345,13.914c7.759,3.997,26.567,4.232,30.799-12.696
			c0,0,2.351,5.172,6.818,3.526c4.467-1.646,5.878-4.467,5.878-9.639c0,0,1.411,5.087,3.057,4.895s3.056-1.603,3.056-1.603
			s-3.761,5.643,4.703,9.875c8.464,4.232,22.1,10.109,29.857,10.109c7.759,0,10.864-4.937,10.864-11.05
			C308.708,156.662,306.568,146.312,298.786,144.271z"/>
		<path fill="#FFFFFF" d="M318.77,180.408c0,0-0.373,18.338-10.062,10.58c0,0,19.231,18.338,12.648,28.683
			c-6.584,10.345-27.743-9.875-45.611-28.918c0,0,0,7.759,14.812,19.279c14.813,11.52,21.394,15.281,16.693,21.395
			c-4.702,6.113-8.229,8.902-19.514,1.042c-11.286-7.86-16.223-11.152-22.57-10.917c0,0,12.46,5.611,18.808,10.917
			s8.934,7.421,8.934,7.421s-4.702,17.633-15.518,10.816c-10.814-6.818-18.103-11.991-24.687-10.58c0,0,10.111,6.347,14.812,8.463
			c4.704,2.116,6.819,3.683,6.819,3.683s-5.877,6.426-8.935,7.131c-3.056,0.706-5.877,0.146-12.696-3.218
			c-6.817-3.364-11.284-8.302-12.93-14.415s-4.232-6.145-20.22-9.303s-47.256-6.214-43.965-35.838
			c3.292-29.624,9.875-37.853,15.517-39.968c5.644-2.116,10.712-3.527,20.638-9.404c9.926-5.878,23.093-15.517,30.146-10.581
			c0,0-14.343,13.167-20.455,17.634c-6.114,4.467-17.502,11.755-9.691,16.692c7.81,4.938,15.334,7.053,21.446,2.821
			c6.113-4.232,11.991-10.58,16.811-10.815c4.819-0.235,5.756-3.762,10.226-1.646c4.469,2.116,8.231,6.113,10.582,12.46
			c2.351,6.349,2.116,11.285,2.116,11.285s8.568-3.952-0.235-12.695c0,0,12.226,8.699,19.749,11.99
			C299.961,187.696,307.485,188.401,318.77,180.408z"/>
		<path fill="#191E43" d="M269.867,201.333c0,0-1.41,7.698-6.817,10.079C263.05,211.412,274.334,216.614,269.867,201.333z"/>
		<path fill="#191E43" d="M251.764,223.903l-5.877,9.938C245.886,233.841,255.76,236.834,251.764,223.903z"/>
		<path fill="#191E43" d="M245.886,185.109c0,0-25.862-1.175-39.264-4.937c-13.401-3.763-27.507-3.527-11.99,0
			C210.149,183.699,228.252,186.521,245.886,185.109z"/>
		<path fill="#191E43" d="M208.973,206.799c0,0-21.864-8.523-24.686-10.639C181.465,194.044,171.591,199.57,208.973,206.799z"/>
		<path fill="#FFFFFF" d="M153.252,237.54c0,0,14.801-38.148,22.095-60.101c7.293-21.953,7.999-24.068,4.473-25.244
			c-3.527-1.176-13.402,13.203-21.63,33.286c-8.229,20.084-17.398,39.598-17.398,39.598l2.351,3.943
			c0,0,27.038-68.128,29.624-66.482c2.585,1.646-27.273,67.711-27.273,67.711L153.252,237.54z"/>
		<polygon fill="#FFFFFF" points="152.4,144.271 170.651,150.549 137.054,223.903 107.171,191.928 		"/>
		<path fill="#FFFFFF" d="M337.771,132.847l-17.356,6.886c0,0,22.601,22.57,28.816,52.429c6.215,29.86,2.999,41.678,2.999,41.678
			l40.599-42.383L337.771,132.847z"/>
		<path fill="#FFFFFF" d="M198.658,240.479l-18.339-8.112c0,0-2.199,8.935,3.968,11.903
			C190.454,247.237,198.658,240.479,198.658,240.479z"/>
		<path fill="#FFFFFF" d="M214.528,233.336c0,0-13.314-1.675-13.667,5.996c-0.353,7.669,0.529,9.433,2.998,11.197
			c2.469,1.764,8.993,4.056,9.699-0.706c0.706-4.762,8.992-10.844,5.995-13.842C216.555,232.984,214.528,233.336,214.528,233.336z"
			/>
		<path fill="#FFFFFF" d="M235.776,242.92c0,0-17.374-8.261-18.914,6.374c-1.541,14.635,7.981,14.936,12.037,10.377
			C232.954,255.114,241.479,251.259,235.776,242.92z"/>
		<path fill="#191E43" d="M228.017,251.432l-8.64-2.137C219.377,249.294,220.259,256.567,228.017,251.432z"/>
		<path fill="#FFFFFF" d="M237.682,253.267c0,0-5.433,7.514-2.083,9.001c3.35,1.486,4.761,0.957,4.761,0.957s-4.584,2.116,0,3.175
			c4.584,1.058,11.638-4.132,11.638-4.132L237.682,253.267z"/>
		<circle fill="none" stroke="#191E43" stroke-width="1.4107" stroke-miterlimit="10" cx="374.197" cy="206.996" r="8.485"/>
	</g>
</g>
</svg>
