<?xml version="1.0" encoding="utf-8"?>
<!-- Generator: Adobe Illustrator 21.0.2, SVG Export Plug-In . SVG Version: 6.00 Build 0)  -->
<svg version="1.1" id="Calque_1" xmlns="http://www.w3.org/2000/svg" xmlns:xlink="http://www.w3.org/1999/xlink" x="0px" y="0px"
	 viewBox="0 0 500 144" style="enable-background:new 0 0 500 144;" xml:space="preserve">
<path d="M377.6,118.2h91l-44.2-89.7L393,28.6l-40.5,70.1l-31.8-25.3l31.7-24.9V28.6H232.7v69.7l-39.8-69.7h-30L123,98.5l-29.9-22
	l45-47.9h-34.9l-54.8,55v-55H23.5v89.7h30.8l22.4-24l32.8,24h27.2L178,49.9l27.1,48.3h-49.5l-11.4,20H370l39.1-68.6l28.2,48.8h-49.2
	L377.6,118.2z M262.7,95.8V51h59.8l-26.4,22.6l26.4,22.2H262.7z"/>
<path d="M468.7,28.8c-5.9,0-10.8,4.5-10.8,10.6c0,6.2,5,10.7,10.8,10.7c5.8,0,10.7-4.5,10.7-10.7C479.5,33.3,474.5,28.8,468.7,28.8z
	 M468.7,48.3c-4.9,0-8.7-3.8-8.7-8.9c0-5,3.8-8.8,8.7-8.8c4.8,0,8.6,3.8,8.6,8.8C477.3,44.5,473.5,48.3,468.7,48.3z"/>
<path d="M473.6,36.8c0-2.4-1.4-3.5-4.3-3.5h-4.7v12.3h1.9v-5.3h2.1l3.2,5.3h2.1l-3.5-5.4C472.2,39.9,473.6,39,473.6,36.8z
	 M466.5,38.7v-3.8h2.5c1.3,0,2.7,0.3,2.7,1.8c0,1.9-1.4,2-3,2H466.5L466.5,38.7z"/>
</svg>
