<?xml version="1.0" encoding="utf-8"?>
<!-- Generator: Adobe Illustrator 15.0.0, SVG Export Plug-In . SVG Version: 6.00 Build 0)  -->
<!DOCTYPE svg PUBLIC "-//W3C//DTD SVG 1.1//EN" "http://www.w3.org/Graphics/SVG/1.1/DTD/svg11.dtd">
<svg version="1.1" id="Calque_1" xmlns="http://www.w3.org/2000/svg" xmlns:xlink="http://www.w3.org/1999/xlink" x="0px" y="0px"
	 width="500px" height="500px" viewBox="0 0 500 500" enable-background="new 0 0 500 500" xml:space="preserve">
<g>
	<g>
		<path fill="#FFFFFF" d="M445.68,165.337v-5.896h2.615c0.525,0,0.925,0.053,1.198,0.159s0.492,0.293,0.656,0.562
			c0.163,0.268,0.245,0.564,0.245,0.889c0,0.418-0.136,0.771-0.406,1.058c-0.271,0.287-0.689,0.47-1.255,0.547
			c0.206,0.099,0.363,0.197,0.471,0.293c0.228,0.209,0.443,0.471,0.647,0.785l1.025,1.604h-0.981l-0.78-1.227
			c-0.228-0.354-0.416-0.625-0.563-0.812c-0.147-0.188-0.28-0.319-0.396-0.394c-0.116-0.075-0.234-0.127-0.355-0.157
			c-0.088-0.019-0.233-0.028-0.435-0.028h-0.904v2.618H445.68z M446.461,162.043h1.677c0.356,0,0.636-0.037,0.837-0.111
			s0.354-0.191,0.458-0.354c0.104-0.162,0.157-0.338,0.157-0.529c0-0.279-0.102-0.508-0.305-0.688
			c-0.202-0.18-0.521-0.269-0.958-0.269h-1.866V162.043z"/>
	</g>
	<g>
		<path fill="#FFFFFF" d="M447.378,168.319c-3.423,0-6.207-2.784-6.207-6.206c0-3.422,2.784-6.207,6.207-6.207
			c3.421,0,6.206,2.784,6.206,6.207C453.584,165.535,450.799,168.319,447.378,168.319z M447.378,156.593
			c-3.044,0-5.521,2.476-5.521,5.52c0,3.043,2.477,5.52,5.521,5.52c3.043,0,5.52-2.476,5.52-5.52
			C452.898,159.069,450.421,156.593,447.378,156.593z"/>
	</g>
</g>
<g>
	<g>
		<g>
			<path d="M392.958,206.568l-40.448,70.125l-31.76-25.257l31.685-24.933v-19.936H232.691v69.685l-39.789-69.685h-30l-39.912,69.905
				L93.1,254.488l44.972-47.92h-34.901l-54.83,54.954v-54.954H23.415v89.731l30.776-0.042L76.615,272.3l32.75,23.999h27.167
				l41.328-68.386l27.14,48.34h-49.468l-11.432,20.046h225.911l39.108-68.609l28.232,48.783h-49.24l-10.546,19.826h90.996
				l-44.175-89.731H392.958z M262.703,273.867v-44.868h59.82l-26.383,22.637l26.383,22.231H262.703z"/>
			<path d="M468.707,206.802c-5.851,0-10.807,4.499-10.807,10.604c0,6.163,4.956,10.669,10.807,10.669
				c5.795,0,10.744-4.506,10.744-10.669C479.451,211.301,474.502,206.802,468.707,206.802z M468.707,226.301
				c-4.867,0-8.669-3.771-8.669-8.896c0-5.036,3.802-8.837,8.669-8.837c4.812,0,8.606,3.801,8.606,8.837
				C477.314,222.53,473.519,226.301,468.707,226.301z"/>
			<path d="M473.602,214.793c0-2.423-1.438-3.492-4.331-3.492h-4.675v12.268h1.856v-5.317h2.138l3.23,5.317h2.083l-3.485-5.403
				C472.22,217.938,473.602,216.982,473.602,214.793z M466.452,216.673v-3.794h2.529c1.3,0,2.674,0.278,2.674,1.798
				c0,1.887-1.409,1.997-2.983,1.997H466.452z"/>
		</g>
	</g>
</g>
</svg>
