<?xml version="1.0" encoding="utf-8"?>
<!-- Generator: Adobe Illustrator 16.0.0, SVG Export Plug-In . SVG Version: 6.00 Build 0)  -->
<!DOCTYPE svg PUBLIC "-//W3C//DTD SVG 1.1//EN" "http://www.w3.org/Graphics/SVG/1.1/DTD/svg11.dtd">
<svg version="1.1" xmlns="http://www.w3.org/2000/svg" xmlns:xlink="http://www.w3.org/1999/xlink" x="0px" y="0px" width="500px"
	 height="500px" viewBox="0 0 500 500" enable-background="new 0 0 500 500" xml:space="preserve">
<g id="Calque_1">
</g>
<g id="Calque_2">
	<g>
		<g>
			<path fill="#45484E" d="M78.384,233.905c4.398-0.2,0.9-4.199,0.9-4.199s0.3,2.399-1.8,2.649c-2.099,0.25-1.799-1.549-1.799-1.549
				s-4.499,3.099-4.695,3.099C70.99,233.905,73.985,234.104,78.384,233.905z"/>
			<path fill="#45484E" d="M41.195,239.103c-2.899,0.1-4.799,1.899-3.899,2.399s0.8,1.799,1.399,1.2c0.6-0.6,0.6-1.647,2.5-1.723
				s1.699,1.823,3.299,0.523C44.494,241.502,44.094,239.003,41.195,239.103z"/>
			<path fill="#45484E" d="M72.486,236.404c-3.299,0.4-5.698,2.1-5.698,2.1c2.699-1.6,5.599-1.5,9.897-1
				c4.299,0.5,7.098-1.1,7.098-1.1l-2-0.7l2.999-2.799C77.285,237.504,75.785,236.004,72.486,236.404z"/>
			<path fill="#45484E" d="M87.282,282.49c-2-1.6-4.999,2.499-4.999,2.499c-0.2-2.699,2.199-4.398,2.199-4.398
				c-1.899-1.699-6.698,0-6.698,0c2.6-5.298,6.798-1.999,6.998-3.599c0.2-1.6-5.498-2-5.498-2c2.899-1.999,6.698-1.599,6.698-1.599
				c-1.899-2.699-5.099-3.499-5.099-3.499c6.298-1.899,9.498,5.897,18.595,5.598c2.187-0.071,4.093-1.357,5.732-3.26
				c2.986-4.789,5.034-10.203,5.898-15.997c-5.936,6.36-14.929,6.361-14.929,6.361c3.399-2.5,10.597-10.897,10.597-17.195
				c0-6.298-2.5-8.198-4.299-8.198s-2.899,0.2-5.398,2.5c-2.499,2.299,5.199,0.3,5.199,0.3l0.7,4.199
				c0,14.396-15.396,19.994-20.794,20.194s-18.794,1.6-27.192,4.499s-4.799,5.898-12.596,5.898c-7.798,0-5.398-7.099-5.398-7.099
				s3.099,3.199,5.098,3c2-0.2,2.399-2.899,2.399-2.899s1.2,0.5,1.7,0.5c0.5,0,1.1-5.299,1.1-5.299s2,3.799,3.099,3.699
				c1.1-0.101,2-1.1,2.899-1.5c0.9-0.399,1.4-0.3,3.999-0.699c2.599-0.4,1.6-3.799,1.6-3.799s1.5,2.898,3.199,2.699
				c1.7-0.2,2.5-4.299,2.5-4.299s0.6,1.899,3.199,1.899c2.599,0,3.099-3.499,3.099-3.499s0.7,2.399,2.399,2.299
				c1.7-0.1,2.1-2.599,2.1-2.599s0.4,0,1.6,0c1.199,0,1.799-2.3,1.799-2.3h6.298l0.6-1.499l2.699-1.101
				c7.598-1.899,6.398-9.796,6.398-9.796s-3.399,5.998-6.498,5.998s-5.198-2.599-8.697-2.599s-4.799,2.699-6.898,3.199
				c-2.1,0.5-2.399,3.199-2.399,3.199s-1.5-4.098-2.799-4.398c-1.299-0.3-2.799,1.7-2.799,1.7s-0.2-2.099-1.4-2.299
				c-1.2-0.2-3.099,0.7-3.099,0.7s-0.6-1-1.999-1c-1.4,0-1.2,3.299-1.2,3.299l-2.5-2.099l-1.899,4.098l-2.199-4.198l-2.899,3.699
				c0,0,0.5-5.599-3.999-5.599s-6.198,5.599-6.198,5.599s-1.399-5.499-2.699-5.599s-2.299,2-2.299,2l-1.3-3.899l-1.299,2.399
				c-2-3.899,1-10.597,9.897-10.597s5.698,3.299,13.096,3.299s13.596-4.799,14.496-7.898s5.898-3.799,5.898-3.799l2.699-3.299v2.999
				l5.198-4.299v2.299c0,0,0.9-0.1,2.699,0s1.899,2.1,1.899,2.1h2l1.3,1.399l3.399-0.6l1.299,1.199c0,0,2.5,0,2.799,0
				s0.9,1.4,0.9,1.4h3.799v1.1h4.798l1.5,2.299l1.421,0.675c-6.173-16.107-21.978-27.567-40.509-27.567
				C44.38,207.413,25,226.479,25,250c0,23.521,19.38,42.588,43.287,42.588c9.304,0,17.914-2.897,24.971-7.811
				C89.671,284.887,88.902,283.787,87.282,282.49z"/>
		</g>
		<rect x="229.34" y="223.208" fill="#45484E" width="15.396" height="54.584"/>
		<polygon fill="#45484E" points="304.851,223.208 298.52,223.208 290.454,223.208 283.023,256.834 275.593,223.208 
			267.729,223.208 261.196,223.208 253.333,223.208 253.333,277.792 267.729,277.792 267.729,245.496 277.192,277.792 
			278.392,277.792 287.655,277.792 288.854,277.792 298.52,244.814 298.52,277.792 312.915,277.792 312.915,223.208 		"/>
		<polygon fill="#45484E" points="404.888,223.208 404.888,250.868 389.893,223.208 388.493,223.208 374.697,223.208 
			373.297,223.208 373.297,277.792 388.493,277.792 388.493,248.656 404.288,277.792 404.888,277.792 419.483,277.792 
			420.083,277.792 420.083,223.208 		"/>
		<polygon fill="#45484E" points="459.805,223.208 459.805,250.868 444.809,223.208 443.409,223.208 429.613,223.208 
			428.214,223.208 428.214,277.792 443.409,277.792 443.409,248.656 459.205,277.792 459.805,277.792 474.4,277.792 475,277.792 
			475,223.208 		"/>
		<path fill="#45484E" d="M209.685,277.792h15.935l-18.795-54.584h-2.599H193.75h-2.599l-18.38,53.381l-20.7-31.728l18.487-21.653
			h-19.194l-14.596,20.457v-20.457h-15.396v54.584h15.396v-15.007l4.81-5.634l11.585,20.641h19.194h1.2h14.735l2.276-7.798h16.841
			L209.685,277.792z M193.953,258.397l5.035-17.247l5.035,17.247H193.953z"/>
		<path fill="#45484E" d="M354.042,277.792h15.935l-18.795-54.584h-2.599h-10.477h-2.598l-18.795,54.584h15.935l2.275-7.798h16.842
			L354.042,277.792z M338.309,258.397l5.036-17.247l5.035,17.247H338.309z"/>
	</g>
</g>
</svg>
