<?xml version="1.0" encoding="utf-8"?>
<!-- Generator: Adobe Illustrator 21.0.2, SVG Export Plug-In . SVG Version: 6.00 Build 0)  -->
<svg version="1.1" id="Calque_1" xmlns="http://www.w3.org/2000/svg" xmlns:xlink="http://www.w3.org/1999/xlink" x="0px" y="0px"
	 viewBox="0 0 500 112" style="enable-background:new 0 0 500 112;" xml:space="preserve">
<style type="text/css">
	.st0{fill:#45484E;}
</style>
<path class="st0" d="M78.4,39.9c4.4-0.2,0.9-4.2,0.9-4.2s0.3,2.4-1.8,2.6c-2.1,0.2-1.8-1.5-1.8-1.5s-4.5,3.1-4.7,3.1
	C71,39.9,74,40.1,78.4,39.9z"/>
<path class="st0" d="M41.2,45.1c-2.9,0.1-4.8,1.9-3.9,2.4s0.8,1.8,1.4,1.2c0.6-0.6,0.6-1.6,2.5-1.7s1.7,1.8,3.3,0.5
	C44.5,47.5,44.1,45,41.2,45.1z"/>
<path class="st0" d="M72.5,42.4c-3.3,0.4-5.7,2.1-5.7,2.1c2.7-1.6,5.6-1.5,9.9-1s7.1-1.1,7.1-1.1l-2-0.7l3-2.8
	C77.3,43.5,75.8,42,72.5,42.4z"/>
<path class="st0" d="M87.3,88.5c-2-1.6-5,2.5-5,2.5c-0.2-2.7,2.2-4.4,2.2-4.4c-1.9-1.7-6.7,0-6.7,0c2.6-5.3,6.8-2,7-3.6
	s-5.5-2-5.5-2c2.9-2,6.7-1.6,6.7-1.6c-1.9-2.7-5.1-3.5-5.1-3.5c6.3-1.9,9.5,5.9,18.6,5.6c2.2-0.1,4.1-1.4,5.7-3.3
	c3-4.8,5-10.2,5.9-16c-5.9,6.4-14.9,6.4-14.9,6.4c3.4-2.5,10.6-10.9,10.6-17.2s-2.5-8.2-4.3-8.2s-2.9,0.2-5.4,2.5s5.2,0.3,5.2,0.3
	l0.7,4.2c0,14.4-15.4,20-20.8,20.2S63.4,72,55,74.9s-4.8,5.9-12.6,5.9S37,73.7,37,73.7s3.1,3.2,5.1,3s2.4-2.9,2.4-2.9
	s1.2,0.5,1.7,0.5s1.1-5.3,1.1-5.3s2,3.8,3.1,3.7c1.1-0.1,2-1.1,2.9-1.5s1.4-0.3,4-0.7c2.6-0.4,1.6-3.8,1.6-3.8s1.5,2.9,3.2,2.7
	c1.7-0.2,2.5-4.3,2.5-4.3s0.6,1.9,3.2,1.9s3.1-3.5,3.1-3.5s0.7,2.4,2.4,2.3c1.7-0.1,2.1-2.6,2.1-2.6s0.4,0,1.6,0s1.8-2.3,1.8-2.3
	h6.3l0.6-1.5l2.7-1.1c7.6-1.9,6.4-9.8,6.4-9.8s-3.4,6-6.5,6s-5.2-2.6-8.7-2.6s-4.8,2.7-6.9,3.2s-2.4,3.2-2.4,3.2s-1.5-4.1-2.8-4.4
	c-1.3-0.3-2.8,1.7-2.8,1.7s-0.2-2.1-1.4-2.3c-1.2-0.2-3.1,0.7-3.1,0.7s-0.6-1-2-1S57,56.3,57,56.3l-2.5-2.1l-1.9,4.1l-2.2-4.2
	l-2.9,3.7c0,0,0.5-5.6-4-5.6s-6.2,5.6-6.2,5.6s-1.4-5.5-2.7-5.6s-2.3,2-2.3,2L31,50.3l-1.3,2.4c-2-3.9,1-10.6,9.9-10.6
	s5.7,3.3,13.1,3.3s13.6-4.8,14.5-7.9s5.9-3.8,5.9-3.8l2.7-3.3v3l5.2-4.3v2.3c0,0,0.9-0.1,2.7,0s1.9,2.1,1.9,2.1h2l1.3,1.4l3.4-0.6
	l1.3,1.2c0,0,2.5,0,2.8,0s0.9,1.4,0.9,1.4h3.8V38h4.8l1.5,2.3l1.4,0.7c-6.2-16.1-22-27.6-40.5-27.6C44.4,13.4,25,32.5,25,56
	s19.4,42.6,43.3,42.6c9.3,0,17.9-2.9,25-7.8C89.7,90.9,88.9,89.8,87.3,88.5z"/>
<rect x="229.3" y="29.2" class="st0" width="15.4" height="54.6"/>
<polygon class="st0" points="304.9,29.2 298.5,29.2 290.5,29.2 283,62.8 275.6,29.2 267.7,29.2 261.2,29.2 253.3,29.2 253.3,83.8 
	267.7,83.8 267.7,51.5 277.2,83.8 278.4,83.8 287.7,83.8 288.9,83.8 298.5,50.8 298.5,83.8 312.9,83.8 312.9,29.2 "/>
<polygon class="st0" points="404.9,29.2 404.9,56.9 389.9,29.2 388.5,29.2 374.7,29.2 373.3,29.2 373.3,83.8 388.5,83.8 388.5,54.7 
	404.3,83.8 404.9,83.8 419.5,83.8 420.1,83.8 420.1,29.2 "/>
<polygon class="st0" points="459.8,29.2 459.8,56.9 444.8,29.2 443.4,29.2 429.6,29.2 428.2,29.2 428.2,83.8 443.4,83.8 443.4,54.7 
	459.2,83.8 459.8,83.8 474.4,83.8 475,83.8 475,29.2 "/>
<path class="st0" d="M206.8,29.2h-2.6h-10.5h-2.6l-18.4,53.4L152,50.9l18.5-21.7h-19.2l-14.6,20.5V29.2h-15.4v54.6h15.4v-15l4.8-5.6
	l11.6,20.6h19.2h1.2h14.7l2.3-7.8h16.8l2.4,7.8h15.9L206.8,29.2z M194,64.4l5-17.2l5,17.2H194z"/>
<path class="st0" d="M354,83.8h16l-18.8-54.6h-2.6h-10.5h-2.6l-18.8,54.6h15.9l2.3-7.8h16.8L354,83.8z M338.3,64.4l5-17.2l5,17.2
	H338.3z"/>
</svg>
