<?xml version="1.0" encoding="utf-8"?>
<!-- Generator: Adobe Illustrator 21.0.2, SVG Export Plug-In . SVG Version: 6.00 Build 0)  -->
<svg version="1.1" id="Calque_1" xmlns="http://www.w3.org/2000/svg" xmlns:xlink="http://www.w3.org/1999/xlink" x="0px" y="0px"
	 viewBox="0 0 500 336" style="enable-background:new 0 0 500 336;" xml:space="preserve">
<style type="text/css">
	.st0{fill:#E21F20;}
	.st1{fill:#9B9A9A;}
</style>
<path class="st0" d="M188.2,79l17.8,23.8h-7.9l-21.4-28.9c17.8,0,23.9-3.1,23.9-14.6c0-10.6-6.6-14.5-21.4-14.5h-9v57.9h-6.4V39.1
	h15.8c20,0,27.4,7.2,27.4,20.5C207,70.9,200.5,77.7,188.2,79z"/>
<path class="st0" d="M252.1,103.9c-19,0-33.4-14.1-33.4-32.7c0-19,14-33.2,33-33.2c13.2,0,24.4,6.7,29.3,17.7h-7.1
	c-5.4-8.5-12.9-11.8-21.9-11.8c-15.2,0-26.8,11.7-26.8,27c0,14.9,12.1,27.1,26.9,27.1c9.3,0,15.4-3.5,22.1-12h7.1
	C274.8,97.9,265,103.9,252.1,103.9z"/>
<path class="st0" d="M439.7,79l17.8,23.8h-7.9l-21.4-28.9c17.8,0,23.9-3.1,23.9-14.6c0-10.6-6.5-14.5-21.4-14.5h-9v57.9h-6.4V39.1
	h15.8c20,0,27.4,7.2,27.4,20.5C458.5,70.9,451.9,77.7,439.7,79z"/>
<path class="st0" d="M215.7,300.8c-11.5,0-19.3-7.5-19.9-18.9h6.8c0.9,8.5,6.1,13.1,13.3,13.1s12.6-5.3,12.6-12.7
	c0-7-3.3-10-14.2-13.3c-7.4-2.2-9.4-3.2-11.9-5.6c-2.8-2.7-4.5-6.9-4.5-11.3c0-9.9,7.4-17.1,17.7-17.1c10.4,0,17.8,6.9,17.8,17.2
	h-6.6c0-6.9-4.9-11.4-11.4-11.4c-6.4,0-11,4.7-11,11.1c0,2.9,1.2,5.9,3,7.4c1.6,1.5,3.6,2.2,9.4,4c6.5,2,9.2,3.2,11.8,5.1
	c4,3,6.4,8,6.4,13.6C234.9,292.8,226.8,300.8,215.7,300.8z"/>
<path class="st0" d="M271.1,299.7v-63.6h6.4v63.7h-6.4V299.7z"/>
<path class="st0" d="M342.9,300.8c-19.5,0-34.6-14.5-34.6-33.1c0-18.4,14.8-32.8,33.8-32.8c13.9,0,25.9,7.2,30.1,18.1H365
	c-4.4-7.8-12.7-12.2-22.5-12.2c-15.7,0-27.8,11.8-27.8,27.1c0,15.2,12.3,27.1,27.9,27.1c12.6,0,23.4-8.8,25.8-18.9h-35.6v-5.8H376
	C375.1,286.4,361.6,300.8,342.9,300.8z"/>
<polygon class="st0" points="124.6,39.1 117.4,39.1 90.1,102.8 96.9,102.8 121.1,46.4 133.3,75.6 115.7,75.6 115.7,81.3 135.8,81.3 
	145,102.8 152,102.8 "/>
<rect x="40.8" y="39.1" class="st0" width="6.4" height="63.7"/>
<polygon class="st0" points="84.7,39.1 76.6,39.1 51.4,70.5 76.6,102.8 84.7,102.8 59.5,70.1 "/>
<rect x="296.2" y="39.1" class="st0" width="6.4" height="63.7"/>
<polygon class="st0" points="335.5,39.1 335.5,67.1 311,67.1 311,72.9 335.5,72.9 335.5,102.8 341.9,102.8 341.9,39.1 "/>
<rect x="376.1" y="67.7" class="st0" width="19" height="5.8"/>
<polygon class="st0" points="396.1,44.9 396.1,39.1 361.3,39.1 361.3,102.8 396.1,102.8 396.1,97 367.7,97 367.7,44.9 "/>
<rect x="143" y="264" class="st0" width="19" height="5.8"/>
<polygon class="st0" points="162.9,241.1 162.9,235.4 128.1,235.4 128.1,299 162.9,299 162.9,293.3 134.5,293.3 134.5,241.1 "/>
<path class="st0" d="M78.2,241.1c-6-3.6-12.7-5-24.3-5h-15v63.7h6.5l-0.1-57.9h8.9c9.6,0,15.7,1.2,20.5,4.1
	c7.3,4.4,11.5,12.4,11.5,21.9c0,8.4-3.3,15.7-9.1,20.4c-5,3.9-11.3,5.6-22.1,5.7v5.8h1c24.9,0,36.6-13.3,36.6-31.6
	C92.7,256.1,87.7,246.6,78.2,241.1z"/>
<polygon class="st0" points="411.3,236.1 405,236.1 405,299.7 411.4,299.7 "/>
<polygon class="st0" points="449.3,236.1 449.3,288.9 418.7,243.6 418.7,254.6 449.3,299.7 455.6,299.7 455.6,236.1 "/>
<path class="st1" d="M130.4,154.6c0,0-13.3-9.8-23.9-18.1c-10.6-8.2-27.1-13.7-51.4-1.2c-12.2,0.8-28.7,2.4-21.2,21.6
	c4.3,12.6,3.9,13.3,13.3,22c9.4,8.6,31,25.1,40.8,32.6c9.8,7.5,11.4,2.4,18.1-0.4c6.7-2.7,67.9-32.2,124.8-36.1s87.1-2.7,115.4,0
	c28.3,2.7,46.7,4.7,61.6,6.7c14.9,2,18.1,2,22.8-2.4s9.4-7.9,3.5-12.2c8.2,2.4,8-0.3,10.6-3.4c2.6-3.1,6.8-4.7,11.5-5.2
	c4.7-0.5,12.3-1.6,11.8-3.9c-0.5-2.4-4.7-4.4-9.2-6.3c-1.3-1.3,1.3-1,2.9-1.3s3.4-2.9,7.9,0.5c3.4,2.4-1.3-7.1-4.2-5.8
	c-2.9,1.3-3.9,2.6-5.8,2.9c-1.8,0.3-23.5-9.4-29-5.5c-2.4,1.3,12.6,1.8,15.4,4.4c2.9,2.6,4.4,3.9-2.9,3.4
	c-7.3-0.5-48.1-12-112.8-12.6c-30.1,0-46.6-2.1-42.7-3.4s6.3-1.6,6.3-1.6s-73.3-1-110.7,8.1c-37.4,9.2-47.6,18.8-51.8,17.8
	C127.4,154.4,130.4,154.6,130.4,154.6z"/>
<path class="st1" d="M300.1,129c0,0,18.8-1.8,22,1C325.2,132.9,290.4,130.3,300.1,129z"/>
</svg>
