<?xml version="1.0" encoding="utf-8"?>
<!-- Generator: Adobe Illustrator 16.0.0, SVG Export Plug-In . SVG Version: 6.00 Build 0)  -->
<!DOCTYPE svg PUBLIC "-//W3C//DTD SVG 1.1//EN" "http://www.w3.org/Graphics/SVG/1.1/DTD/svg11.dtd">
<svg version="1.1" id="Calque_1" xmlns="http://www.w3.org/2000/svg" xmlns:xlink="http://www.w3.org/1999/xlink" x="0px" y="0px"
	 width="500px" height="500px" viewBox="0 0 500 500" enable-background="new 0 0 500 500" xml:space="preserve">
<g>
	<polyline fill="#EFE426" points="451.963,297.446 25.254,297.446 25.254,271.886 451.963,271.886 451.963,297.446 	"/>
	<g>
		<path d="M73.695,259.258H25v-53.869h48.695V259.258z M27.267,256.991h44.161v-49.335H27.267V256.991z"/>
	</g>
	<path d="M58.223,226.426l4.875-7.991h-7.963l4.301-8.075H39.06l4.33,8.075h-7.984l4.856,7.991h-8.458l17.476,28.717l17.421-28.717
		H58.223 M40.875,211.309H57.65l-8.288,10.318L40.875,211.309z M43.893,219.379l5.377,10.065l5.357-10.065h6.579l-11.952,13.447
		l-11.943-13.447H43.893z M33.736,227.409h7.13l8.364,13.737l8.392-13.737h7.21l-15.505,17.985L33.736,227.409z"/>
	<g>
		<path d="M269.926,218.88c4.546,0,6.977,4.699,7.029,9.341l0.007,0.668l0.669,0.006c2.473,0.019,17.109-0.033,17.109-0.033
			l0.681-0.003l-0.002-0.681c-0.033-14.682-9.627-23.818-25.668-24.439c-7.223-0.305-13.937,2.318-18.866,7.265
			c-5.281,5.301-8.175,12.906-8.144,21.418c0.059,17.199,10.787,28.345,27.331,28.394h0.082c7.392,0,13.953-2.493,18.479-7.024
			c4.403-4.41,6.729-10.603,6.72-17.911v-0.678l-18.392-0.098l-0.005,0.679c-0.04,4.632-2.23,9.617-7.004,9.617
			c-5.026-0.039-7.717-4.466-7.776-12.803c-0.036-5.652,1.074-9.776,3.211-11.928C266.566,219.482,268.094,218.88,269.926,218.88z
			 M270.153,260.132L270.153,260.132v0.002V260.132z"/>
		<path d="M186.984,219.051v-13.813h-13.451v8.512l-3.175-8.561l-19.556-0.009l-3.188,8.601v-8.543h-12.897l0.035-0.058h-22.248
			l-6.663,14.596V205.18H85.163v54.277h20.495v-19.951l12.199,19.951h33.731l2.276-7.54h13.445l2.288,7.54h20.885l-14.982-40.406
			H186.984z M163.713,240.013h-6.24l3.108-11.497L163.713,240.013z M145.661,219.051l-11.157,30.1
			c-3.033-4.661-12.002-18.495-13.557-20.895l13.226-22.107v12.902H145.661z"/>
		<polygon points="326.895,224.908 317.62,224.908 317.62,205.181 297.854,205.181 297.854,259.448 317.62,259.448 317.62,239.638 
			326.912,239.638 326.912,259.448 346.659,259.448 346.659,205.181 326.895,205.181 		"/>
		<polygon points="397.77,205.001 351.515,205.004 351.515,259.451 397.77,259.458 397.756,244.848 371.828,244.848 
			371.821,239.641 392.979,239.641 392.986,224.917 371.828,224.917 371.821,219.11 397.763,219.11 		"/>
		<path d="M240.856,252.115c0.002-0.026,0.091-2.773-0.05-7.429c-0.195-6.652-3.96-9.213-6.424-10.18
			c2.977-1.517,7.473-5.269,7.124-12.507c-0.766-16.025-15.912-16.836-18.94-16.836c-0.443,0-0.708,0.016-0.712,0.016h-29.825
			v54.268l19.799,0.018l0.003-18.455h4.384c3.887,0,4.206,4.151,4.219,4.342c0.004,0.05,0.429,5.133,0.461,8.095
			c0.042,4.489,1.277,5.668,1.524,5.859l0.185,0.142h20.983l-1.268-1.181C241.412,257.425,240.942,254.016,240.856,252.115z
			 M222.246,223.5c0,1.626-0.507,2.762-1.505,3.379c-0.756,0.466-1.581,0.503-1.859,0.503c-0.001,0-0.001,0-0.002,0h-7.053v-8.266
			l6.986-0.003C218.953,219.127,222.246,219.497,222.246,223.5z"/>
		<path d="M450.555,252.121c0.001-0.028,0.09-2.778-0.039-7.431c-0.201-6.653-3.966-9.215-6.43-10.182
			c2.979-1.515,7.477-5.267,7.127-12.508c-0.767-16.025-15.908-16.836-18.937-16.836c-0.444,0-0.711,0.016-0.714,0.016h-29.823
			v54.275l19.79,0.014l0.009-18.458h4.381c3.892,0,4.203,4.149,4.216,4.342c0.003,0.052,0.438,5.141,0.47,8.105
			c0.042,4.485,1.278,5.666,1.525,5.857l1.097,0.847v-0.707c3.338-0.002,17.963-0.004,18.318,0.002l0.011-0.354l0.476-0.826
			C451.122,257.428,450.644,254.016,450.555,252.121z M431.958,223.5c0,3.602-2.545,3.882-3.366,3.882h-7.063v-8.266l6.984-0.003
			C428.654,219.128,431.958,219.53,431.958,223.5z"/>
	</g>
	<path fill="#0B0A0B" d="M465.178,202.555c5.462,0,9.822,4.448,9.822,10.006c0,5.642-4.36,10.041-9.864,10.041
		c-5.471,0-9.911-4.398-9.911-10.041c0-5.558,4.44-10.006,9.911-10.006H465.178 M465.136,204.113c-4.402,0-8.005,3.78-8.005,8.448
		c0,4.755,3.603,8.485,8.047,8.485c4.443,0.045,7.999-3.73,7.999-8.443c0-4.709-3.556-8.49-7.999-8.49H465.136z M463.271,218.376
		h-1.779v-11.154c0.934-0.132,1.819-0.266,3.155-0.266c1.69,0,2.793,0.357,3.465,0.846c0.667,0.488,1.021,1.243,1.021,2.309
		c0,1.467-0.979,2.358-2.177,2.714v0.087c0.979,0.178,1.646,1.065,1.865,2.711c0.27,1.737,0.534,2.399,0.709,2.752h-1.861
		c-0.269-0.353-0.535-1.376-0.755-2.843c-0.27-1.422-0.981-1.957-2.399-1.957h-1.243V218.376z M463.271,212.205h1.285
		c1.467,0,2.71-0.535,2.71-1.916c0-0.978-0.713-1.952-2.71-1.952c-0.581,0-0.979,0.041-1.285,0.087V212.205z"/>
</g>
</svg>
