<?xml version="1.0" encoding="utf-8"?>
<!-- Generator: Adobe Illustrator 15.0.0, SVG Export Plug-In . SVG Version: 6.00 Build 0)  -->
<!DOCTYPE svg PUBLIC "-//W3C//DTD SVG 1.1//EN" "http://www.w3.org/Graphics/SVG/1.1/DTD/svg11.dtd">
<svg version="1.1" id="Calque_1" xmlns="http://www.w3.org/2000/svg" xmlns:xlink="http://www.w3.org/1999/xlink" x="0px" y="0px"
	 width="500px" height="500px" viewBox="0 0 500 500" enable-background="new 0 0 500 500" xml:space="preserve">
<g id="Nouveau_symbole">
</g>
<g>
	<g>
		<path fill="#314A95" d="M248.615,344.012l-0.326-0.043L17.421,314.165l-0.685-2.688l0.144-112.032l231.778-29.826l231.77,29.698
			l-0.031,114.639l-2.218,0.292L248.615,344.012z M21.838,309.591l226.777,29.274l226.686-29.39l0.028-105.672l-226.666-29.042
			l-226.687,29.17L21.838,309.591z"/>
	</g>
	<g>
		<g>
			<path fill="#314A95" d="M69.98,223.036v29.405l34.249-29.405h28.158l-38.342,28.011l41.659,42.926h-28.28l-26.398-31.899
				l-11.046,9.051v22.849H50.705v-70.937H69.98z"/>
		</g>
		<g>
			<path fill="#314A95" d="M230.039,223.036v13.12h-51.265v15.2h47.045v12.114h-47.045v17.39h52.346v13.113h-73.681v-70.937H230.039
				z"/>
		</g>
		<g>
			<path fill="#314A95" d="M272.827,276.484c1.192,1.659,2.754,3.001,4.696,4.025c1.947,1.03,4.239,1.789,6.871,2.283
				c2.628,0.498,5.365,0.749,8.165,0.749c1.906,0,3.959-0.117,6.122-0.345c2.184-0.237,4.22-0.68,6.121-1.346
				c1.909-0.661,3.497-1.566,4.769-2.73c1.267-1.164,1.901-2.637,1.901-4.421c0-1.919-0.843-3.478-2.515-4.671
				c-1.679-1.192-3.877-2.177-6.593-2.981c-2.733-0.798-5.813-1.492-9.265-2.084c-3.441-0.596-6.921-1.252-10.469-1.987
				c-3.633-0.656-7.168-1.474-10.609-2.436c-3.461-0.956-6.531-2.199-9.262-3.723c-2.711-1.527-4.91-3.425-6.591-5.722
				c-1.691-2.28-2.52-5.045-2.52-8.296c0-3.638,1.065-6.797,3.199-9.484c2.125-2.674,4.925-4.915,8.361-6.706
				c3.448-1.788,7.355-3.109,11.702-3.974c4.352-0.857,8.715-1.29,13.067-1.29c5.077,0,9.948,0.412,14.631,1.241
				c4.673,0.83,8.809,2.171,12.442,4.022c3.633,1.855,6.512,4.224,8.636,7.103c2.135,2.878,3.2,6.379,3.2,10.48h-20.684
				c-0.172-2.12-0.785-3.864-1.839-5.257c-1.04-1.39-2.422-2.489-4.142-3.283c-1.731-0.791-3.702-1.358-5.93-1.688
				c-2.213-0.333-4.645-0.492-7.267-0.492c-1.729,0-3.456,0.128-5.166,0.396c-1.734,0.266-3.288,0.727-4.709,1.391
				c-1.398,0.663-2.558,1.486-3.47,2.482c-0.905,0.993-1.349,2.248-1.349,3.776c0,1.39,0.354,2.513,1.082,3.371
				c0.727,0.873,2.151,1.665,4.285,2.394c2.134,0.727,5.082,1.454,8.847,2.184c3.763,0.726,8.683,1.655,14.766,2.778
				c1.813,0.266,4.328,0.745,7.552,1.439c3.219,0.697,6.409,1.811,9.587,3.334c3.181,1.519,5.916,3.554,8.239,6.112
				c2.315,2.543,3.463,5.801,3.463,9.778c0,3.255-0.862,6.261-2.582,9.041c-1.72,2.781-4.294,5.186-7.695,7.207
				c-3.396,2.021-7.615,3.6-12.652,4.713c-5.029,1.134-10.861,1.696-17.481,1.696c-5.357,0-10.543-0.484-15.587-1.439
				c-5.027-0.961-9.475-2.475-13.328-4.524c-3.855-2.058-6.917-4.67-9.18-7.844c-2.273-3.186-3.356-6.955-3.267-11.338h20.683
				C271.067,272.815,271.658,274.836,272.827,276.484z"/>
		</g>
		<g>
			<path fill="#314A95" d="M359.24,244.048c2.086-4.528,5.082-8.492,8.981-11.871c3.895-3.379,8.687-6.028,14.365-7.949
				c5.674-1.92,12.062-2.881,19.182-2.881c7.192,0,13.599,0.961,19.239,2.881c5.633,1.921,10.406,4.57,14.301,7.949
				c3.899,3.379,6.9,7.343,8.972,11.871c2.079,4.542,3.121,9.458,3.121,14.753c0,5.166-1.042,9.987-3.121,14.459
				c-2.071,4.469-5.072,8.368-8.972,11.671c-3.895,3.308-8.668,5.911-14.301,7.805c-5.641,1.883-12.047,2.829-19.239,2.829
				c-7.12,0-13.508-0.946-19.182-2.829c-5.679-1.894-10.471-4.497-14.365-7.805c-3.899-3.303-6.896-7.202-8.981-11.671
				c-2.074-4.472-3.113-9.293-3.113-14.459C356.126,253.506,357.165,248.59,359.24,244.048z M377.904,267.491
				c0.913,2.816,2.357,5.354,4.356,7.602c1.988,2.259,4.594,4.062,7.799,5.417c3.204,1.36,7.118,2.041,11.709,2.041
				c4.594,0,8.493-0.681,11.697-2.041c3.209-1.355,5.811-3.158,7.798-5.417c2-2.247,3.447-4.785,4.361-7.602
				c0.908-2.81,1.36-5.708,1.36-8.689c0-3.111-0.452-6.122-1.36-9.039c-0.914-2.917-2.361-5.513-4.361-7.803
				c-1.987-2.28-4.589-4.106-7.798-5.464c-3.204-1.358-7.104-2.038-11.697-2.038c-4.591,0-8.505,0.68-11.709,2.038
				c-3.205,1.358-5.811,3.184-7.799,5.464c-1.999,2.29-3.443,4.886-4.356,7.803c-0.912,2.917-1.369,5.928-1.369,9.039
				C376.534,261.783,376.991,264.682,377.904,267.491z"/>
		</g>
	</g>
	<g>
		<g>
			<path fill="#314A95" d="M460.458,165.758c1.514-0.276,3.722-0.483,5.753-0.483c3.204,0,5.302,0.621,6.718,1.896
				c1.14,1.035,1.825,2.619,1.825,4.447c0,3.031-1.929,5.064-4.34,5.893v0.101c1.755,0.622,2.826,2.275,3.377,4.688
				c0.759,3.238,1.308,5.479,1.789,6.373h-3.1c-0.381-0.688-0.898-2.651-1.519-5.547c-0.685-3.205-1.961-4.413-4.682-4.513h-2.826
				v10.06h-2.996V165.758z M463.454,176.336h3.065c3.204,0,5.235-1.757,5.235-4.409c0-3-2.167-4.309-5.339-4.309
				c-1.448,0-2.449,0.104-2.962,0.242V176.336z"/>
		</g>
	</g>
	<g>
		<g>
			<path fill="#314A95" d="M467.236,196.646c-10.416,0-18.895-8.476-18.895-18.896c0-10.418,8.479-18.896,18.895-18.896
				c10.421,0,18.895,8.479,18.895,18.896C486.13,188.17,477.656,196.646,467.236,196.646z M467.236,161.728
				c-8.833,0-16.021,7.188-16.021,16.022c0,8.834,7.188,16.021,16.021,16.021s16.021-7.188,16.021-16.021
				C483.256,168.916,476.069,161.728,467.236,161.728z"/>
		</g>
	</g>
</g>
</svg>
