<?xml version="1.0" encoding="utf-8"?>
<!-- Generator: Adobe Illustrator 19.1.0, SVG Export Plug-In . SVG Version: 6.00 Build 0)  -->
<svg version="1.1" id="Calque_1" xmlns="http://www.w3.org/2000/svg" xmlns:xlink="http://www.w3.org/1999/xlink" x="0px" y="0px"
	 viewBox="-345 170.9 500 500" style="enable-background:new -345 170.9 500 500;" xml:space="preserve">
<style type="text/css">
	.st0{fill:#314A95;}
</style>
<g id="Nouveau_symbole">
</g>
<path class="st0" d="M-96.4,514.9l-0.3,0l-230.9-29.8l-0.7-2.7l0.1-112l231.8-29.8l231.8,29.7l0,114.6l-2.2,0.3L-96.4,514.9z
	 M-323.2,480.5l226.8,29.3l226.7-29.4l0-105.7l-226.7-29L-323,374.8L-323.2,480.5z"/>
<path class="st0" d="M-275,393.9v29.4l34.2-29.4h28.2l-38.3,28l41.7,42.9h-28.3L-264,433l-11,9.1v22.8h-19.3v-70.9L-275,393.9
	L-275,393.9z"/>
<path class="st0" d="M-115,393.9V407h-51.3v15.2h47v12.1h-47v17.4h52.3v13.1h-73.7v-70.9H-115z"/>
<path class="st0" d="M-72.2,447.4c1.2,1.7,2.8,3,4.7,4c1.9,1,4.2,1.8,6.9,2.3c2.6,0.5,5.4,0.7,8.2,0.7c1.9,0,4-0.1,6.1-0.3
	c2.2-0.2,4.2-0.7,6.1-1.3c1.9-0.7,3.5-1.6,4.8-2.7c1.3-1.2,1.9-2.6,1.9-4.4c0-1.9-0.8-3.5-2.5-4.7c-1.7-1.2-3.9-2.2-6.6-3
	c-2.7-0.8-5.8-1.5-9.3-2.1c-3.4-0.6-6.9-1.3-10.5-2c-3.6-0.7-7.2-1.5-10.6-2.4c-3.5-1-6.5-2.2-9.3-3.7c-2.7-1.5-4.9-3.4-6.6-5.7
	c-1.7-2.3-2.5-5-2.5-8.3c0-3.6,1.1-6.8,3.2-9.5c2.1-2.7,4.9-4.9,8.4-6.7c3.4-1.8,7.4-3.1,11.7-4c4.4-0.9,8.7-1.3,13.1-1.3
	c5.1,0,9.9,0.4,14.6,1.2c4.7,0.8,8.8,2.2,12.4,4c3.6,1.9,6.5,4.2,8.6,7.1c2.1,2.9,3.2,6.4,3.2,10.5h-20.7c-0.2-2.1-0.8-3.9-1.8-5.3
	c-1-1.4-2.4-2.5-4.1-3.3c-1.7-0.8-3.7-1.4-5.9-1.7c-2.2-0.3-4.6-0.5-7.3-0.5c-1.7,0-3.5,0.1-5.2,0.4c-1.7,0.3-3.3,0.7-4.7,1.4
	c-1.4,0.7-2.6,1.5-3.5,2.5c-0.9,1-1.3,2.2-1.3,3.8c0,1.4,0.4,2.5,1.1,3.4c0.7,0.9,2.2,1.7,4.3,2.4c2.1,0.7,5.1,1.5,8.8,2.2
	c3.8,0.7,8.7,1.7,14.8,2.8c1.8,0.3,4.3,0.7,7.6,1.4c3.2,0.7,6.4,1.8,9.6,3.3c3.2,1.5,5.9,3.6,8.2,6.1c2.3,2.5,3.5,5.8,3.5,9.8
	c0,3.3-0.9,6.3-2.6,9c-1.7,2.8-4.3,5.2-7.7,7.2c-3.4,2-7.6,3.6-12.7,4.7c-5,1.1-10.9,1.7-17.5,1.7c-5.4,0-10.5-0.5-15.6-1.4
	c-5-1-9.5-2.5-13.3-4.5c-3.9-2.1-6.9-4.7-9.2-7.8c-2.3-3.2-3.4-7-3.3-11.3h20.7C-73.9,443.7-73.3,445.7-72.2,447.4z"/>
<path class="st0" d="M14.2,414.9c2.1-4.5,5.1-8.5,9-11.9c3.9-3.4,8.7-6,14.4-7.9c5.7-1.9,12.1-2.9,19.2-2.9c7.2,0,13.6,1,19.2,2.9
	c5.6,1.9,10.4,4.6,14.3,7.9c3.9,3.4,6.9,7.3,9,11.9c2.1,4.5,3.1,9.5,3.1,14.8c0,5.2-1,10-3.1,14.5c-2.1,4.5-5.1,8.4-9,11.7
	c-3.9,3.3-8.7,5.9-14.3,7.8c-5.6,1.9-12,2.8-19.2,2.8c-7.1,0-13.5-0.9-19.2-2.8c-5.7-1.9-10.5-4.5-14.4-7.8c-3.9-3.3-6.9-7.2-9-11.7
	c-2.1-4.5-3.1-9.3-3.1-14.5C11.1,424.4,12.2,419.5,14.2,414.9z M32.9,438.4c0.9,2.8,2.4,5.4,4.4,7.6c2,2.3,4.6,4.1,7.8,5.4
	c3.2,1.4,7.1,2,11.7,2c4.6,0,8.5-0.7,11.7-2c3.2-1.4,5.8-3.2,7.8-5.4c2-2.2,3.4-4.8,4.4-7.6c0.9-2.8,1.4-5.7,1.4-8.7
	c0-3.1-0.5-6.1-1.4-9c-0.9-2.9-2.4-5.5-4.4-7.8c-2-2.3-4.6-4.1-7.8-5.5c-3.2-1.4-7.1-2-11.7-2c-4.6,0-8.5,0.7-11.7,2
	c-3.2,1.4-5.8,3.2-7.8,5.5c-2,2.3-3.4,4.9-4.4,7.8c-0.9,2.9-1.4,5.9-1.4,9C31.5,432.7,32,435.6,32.9,438.4z"/>
<path class="st0" d="M115.5,336.6c1.5-0.3,3.7-0.5,5.8-0.5c3.2,0,5.3,0.6,6.7,1.9c1.1,1,1.8,2.6,1.8,4.4c0,3-1.9,5.1-4.3,5.9v0.1
	c1.8,0.6,2.8,2.3,3.4,4.7c0.8,3.2,1.3,5.5,1.8,6.4h-3.1c-0.4-0.7-0.9-2.7-1.5-5.5c-0.7-3.2-2-4.4-4.7-4.5h-2.8v10.1h-3L115.5,336.6
	L115.5,336.6z M118.5,347.2h3.1c3.2,0,5.2-1.8,5.2-4.4c0-3-2.2-4.3-5.3-4.3c-1.4,0-2.4,0.1-3,0.2L118.5,347.2L118.5,347.2z"/>
<path class="st0" d="M122.2,367.5c-10.4,0-18.9-8.5-18.9-18.9c0-10.4,8.5-18.9,18.9-18.9c10.4,0,18.9,8.5,18.9,18.9
	C141.1,359.1,132.7,367.5,122.2,367.5z M122.2,332.6c-8.8,0-16,7.2-16,16c0,8.8,7.2,16,16,16s16-7.2,16-16
	C138.3,339.8,131.1,332.6,122.2,332.6z"/>
</svg>
