<?xml version="1.0" encoding="utf-8"?>
<!-- Generator: Adobe Illustrator 21.0.2, SVG Export Plug-In . SVG Version: 6.00 Build 0)  -->
<svg version="1.1" id="Calque_1" xmlns="http://www.w3.org/2000/svg" xmlns:xlink="http://www.w3.org/1999/xlink" x="0px" y="0px"
	 viewBox="0 0 500 90" style="enable-background:new 0 0 500 90;" xml:space="preserve">
<style type="text/css">
	.st0{fill:#008563;}
	.st1{fill:#FFFFFF;}
</style>
<path class="st0" d="M80.8,46.1v-2.2h18.1c-0.4-14.2-6.2-23-11.5-25.6c-7.1-3.4-15.8-5.5-25.5-5.5s-18.4,2.1-25.5,5.5
	C31.1,21,25.1,30.2,25,45c0.1,14.9,6.1,24.1,11.5,26.7c7.1,3.4,15.8,5.5,25.5,5.5s18.4-2,25.5-5.5c5.3-2.5,11.1-11.4,11.5-25.6H80.8
	z"/>
<path class="st1" d="M57.5,24.8c-8.9-0.1-17.8-1-24.5-2.4c5.9,9.6,6,36.3,0,44.8c6.8-1.4,15.6-2.2,24.5-2.4V24.8z"/>
<path class="st1" d="M80.7,43.9H59.5l8.3-19.2c8.7-0.3,16.8-1.2,22.6-2.8L80.7,43.9z"/>
<path class="st1" d="M90.6,68c-5.7-1.6-13.6-2.5-22.1-2.9l-8.9-18.9h21.1L90.6,68z"/>
<polygon class="st0" points="146.8,26.1 136.8,26.1 126.1,41.6 126.1,26.1 117.9,26.1 117.9,63.6 126.1,63.6 126.1,48.2 136.8,63.6 
	146.8,63.6 134.2,44.8 "/>
<path class="st0" d="M158,55.5h16.7v8.1h-18.9c-3.3,0-6-2.7-6-6V32.2c0-3.3,2.7-6,6-6h18.9v8.1H158v6.5h16.7V49H158V55.5z"/>
<path class="st0" d="M250,55.5h16.8v8.1h-18.9c-3.3,0-6-2.7-6-6V32.2c0-3.3,2.7-6,6-6h18.9v8.1H250v6.5h16.7V49H250L250,55.5z"/>
<path class="st0" d="M423.6,55.5h16.7v8.1h-18.9c-3.3,0-6-2.7-6-6V32.2c0-3.3,2.7-6,6-6h18.9v8.1h-16.7v6.5h16.7V49h-16.7V55.5z"/>
<polygon class="st0" points="358.2,48.9 358.1,63.6 366.3,63.6 366.3,26.1 358.1,26.1 358.2,40.8 346.6,40.8 346.7,26.1 338.5,26.1 
	338.5,63.6 346.7,63.6 346.6,48.9 "/>
<polygon class="st0" points="390.8,63.2 400.2,40.9 400.1,63.6 408.3,63.6 408.3,26.1 398.1,26.1 390.8,44.3 383.5,26.1 373.3,26.1 
	373.3,63.6 381.5,63.6 381.4,40.9 "/>
<path class="st0" d="M195.1,49c1.9,0,3.4,1.3,3.4,3.1c0,1.9-1.5,3.4-3.4,3.4H181v8.1h15c6.1,0,11-5,11-11.1s-5-11.2-11.2-11.5
	l-3.5-0.2c-1.9,0-3.4-1.3-3.4-3.1s1.5-3.3,3.3-3.3h11.6v-8.1h-13.6c-6.1,0-10.6,5-10.6,11.1s3.4,10.8,10.1,11.4L195.1,49z"/>
<path class="st0" d="M225.6,49c1.9,0,3.4,1.3,3.4,3.1c0,1.9-1.5,3.4-3.4,3.4h-14.1v8.1h15c6.1,0,11-5,11-11.1s-5-11.2-11.1-11.5
	l-3.6-0.2c-1.8,0-3.4-1.3-3.4-3.1s1.5-3.3,3.4-3.3h11.6v-8.1H221c-6.1,0-10.6,5-10.6,11.1s3.4,10.8,10,11.4L225.6,49z"/>
<path class="st0" d="M286.7,26.1c6,0,11,5,11,11.1c0,2.5-0.8,4.7-2.2,6.5c2.6,2,4.4,5.2,4.4,8.8c0,6.1-5.1,11.1-11.3,11.1h-15.8
	V26.1H286.7z M281,34.3v6.5h5.8c1.8,0,3.2-1.5,3.2-3.2c0-1.8-1.5-3.2-3.2-3.2L281,34.3z M281,48.4v7.1h6.8c1.9,0,3.6-1.6,3.6-3.6
	s-1.6-3.5-3.6-3.5H281z"/>
<path class="st0" d="M324.7,49.5c0,3.6-2.9,6.4-6.4,6.4c-3.6,0-6.4-2.9-6.4-6.4v-9.7c0-3.5,2.9-6.4,6.4-6.4s6.4,2.9,6.4,6.4V49.5z
	 M333.4,39.8c0-8.3-6.7-15-15-15s-15.1,6.7-15.1,15v9.7c0,8.3,6.7,15,15.1,15c8.3,0,15-6.7,15-15V39.8z"/>
<path class="st0" d="M312.8,23.4c2.4,0,4.4-2,4.4-4.4s-1.9-4.4-4.4-4.4s-4.4,1.9-4.4,4.4C308.4,21.4,310.3,23.4,312.8,23.4z"/>
<path class="st0" d="M324.5,23.4c2.4,0,4.4-2,4.4-4.4s-1.9-4.4-4.4-4.4c-2.4,0-4.4,1.9-4.4,4.4C320.1,21.4,322.1,23.4,324.5,23.4z"
	/>
<path class="st0" d="M475,63.5h-8.9l-5.7-14.6h-6.5v14.6h-8.2V26.1h16.5c6,0,10.9,4.9,10.9,10.9c0,3.6-1.7,6.8-4.5,8.8L475,63.5z
	 M453.9,40.8h7.6c1.8,0,3.2-1.5,3.2-3.2s-1.5-3.3-3.2-3.3h-7.6V40.8z"/>
</svg>
