<?xml version="1.0" encoding="utf-8"?>
<!-- Generator: Adobe Illustrator 19.1.0, SVG Export Plug-In . SVG Version: 6.00 Build 0)  -->
<svg version="1.1" id="Calque_1" xmlns="http://www.w3.org/2000/svg" xmlns:xlink="http://www.w3.org/1999/xlink" x="0px" y="0px"
	 viewBox="-345 170.9 500 500" style="enable-background:new -345 170.9 500 500;" xml:space="preserve">
<style type="text/css">
	.st0{fill:#2950CC;}
	.st1{fill:url(#SVGID_1_);}
	.st2{fill:#FFFFFF;}
	.st3{fill:#00A4FF;}
</style>
<ellipse class="st0" cx="-93.6" cy="422.3" rx="236" ry="112"/>
<linearGradient id="SVGID_1_" gradientUnits="userSpaceOnUse" x1="-290.6655" y1="288.5959" x2="83.007" y2="535.0226" gradientTransform="matrix(1 0 0 -1 0 841.67)">
	<stop  offset="0" style="stop-color:#FFFFFF"/>
	<stop  offset="7.010000e-02" style="stop-color:#FFFFFF;stop-opacity:0.8571"/>
	<stop  offset="0.4908" style="stop-color:#FFFFFF;stop-opacity:0"/>
	<stop  offset="0.9671" style="stop-color:#FFFFFF;stop-opacity:0.9354"/>
	<stop  offset="1" style="stop-color:#FFFFFF"/>
</linearGradient>
<ellipse class="st1" cx="-94.4" cy="423.6" rx="233.6" ry="105.1"/>
<path class="st2" d="M-172.6,488.1c-9.2-2.8-36.2-16.7-67.7-70.9c-1.1-1.8-1.8-3.3-2-4.7l0-0.6c0,0-0.1-0.1-0.1-0.2
	c-0.3-3.9,2.6-6.8,8.5-10.7c8.4-5.6,45-30.7,51.4-34.7c6.4-4,8.8-5.2,10.8-2.8s4.6,3,4.6-4.6c0-7.6-0.4-17.1-7.6-16.7
	c-7.2,0.4-39.8,29.9-60.7,45.8c4.8-14.3,12.7-39.6,12.7-41.4s-3.4-2.4-6-0.6c-2.6,1.8-7.2,4-7.2,4s-5.9,22.3-13.3,47.8
	c-1-2.8-1.6-5.3-1.1-6.6c1.8-4,4.2-4.4,2.8-6c0,0-12.9-0.6-13.5,12.1c-0.3,5.5,1.8,12.8,5.6,21c-6.3,20.5-12.9,39.8-17.6,48.7
	c-2,2.8,3.6,16.3,10.8,9.6c4.4-14.7,13.5-45.4,13.5-45.4s2,2.9,5.4,7.5c1.2,1.7,2.5,3.5,3.9,5.2c14.3,18.9,41.7,53,58.8,59
	c10.4,2.8,23.5-8,21.5-11.5C-161.1,487.7-163.5,490.9-172.6,488.1z"/>
<ellipse class="st3" cx="-172.4" cy="390.7" rx="7.5" ry="9.6"/>
<path class="st2" d="M-171.6,404.5c-2.9,0-5.3,2.4-5.3,5.3l-0.9,60.4c0,2.9,2.3,5.3,5.1,5.3s5.3-2.4,5.3-5.3l0.9-60.4
	C-166.4,406.9-168.7,404.5-171.6,404.5z"/>
<path class="st2" d="M-106,421.7c-0.5-5-0.8-14.3-10.9-16.8c-10.6-2.6-19.7,7.4-23.7,12.9c0-14.5-2.6-15.9-4.4-15.7
	c-1.8,0.2-8.4,5.8-8.6,7c-0.1,0.7,0.5,5.9,1,10.4l-0.8,50c0,2.6,2.3,4.8,5.1,4.8s5.3-2.1,5.3-4.8l0.4-23.5
	c5.5-17.6,14.6-29.4,21.1-29.1c2.5,0.1,4.2,1.9,5.3,4.2l2.5,49c0.1,2.6,2.6,4.8,5.5,4.8s5.1-2.1,5-4.8l-2.5-46.4
	C-105.7,423.2-105.8,422.5-106,421.7z"/>
<path class="st2" d="M-39.1,453.1c-1.9-1-4.2-0.3-5.3,1.6c-0.1,0.1-5.6,10.2-18.4,10.5c-0.1,0-0.3,0-0.4,0
	c-17.7,0-21.7-10.1-22.2-19.6h37.6l0.4-0.1c4.5-0.9,10.7-7.7,9.2-16.8c-1.6-10.4-13.8-21.4-29.1-21.4c-7.9,0-15.1,2.9-20.1,8.2
	c-6.5,6.8-9.4,17.1-8.7,30.5c0.7,12.5,9.8,28.9,32.9,28.8c0.2,0,0.3,0,0.5,0l0.1,0c17.2-0.5,24.7-15.9,25-16.5
	C-36.6,456.4-37.3,454.1-39.1,453.1z M-80.5,421.4c4.3-4.1,9.7-5,13.5-5c9.9,0,16.9,6.5,18,12.8c0.6,3.6-1.5,4.7-2.7,5.1h-34.7
	C-85.6,428.8-83.6,424.4-80.5,421.4z M-85.5,445.5L-85.5,445.5C-85.5,445.7-85.5,445.9-85.5,445.5z"/>
<path class="st2" d="M29.5,370.4c-2.4-1.6-12.9,6.8-13.1,9.8s-2,32.9-2,32.9s-4.2-6.4-18.3-6.4c-14.1,0-26.9,14.3-27.9,31.5
	c-1,17.1,5.8,31.5,22.3,35.6c16.5,4.2,24.3-6.4,24.3-6.4c1.6,5.2,4,6,6.2,5.8c2.2-0.2,4.8-1.4,4.8-7.8c0-6.4,1.4-39.8,2-54.2
	C28.3,396.9,31.9,372,29.5,370.4z M13,453.7c-2,4.6-9.8,9.2-15.5,9.2c-6,0-18.5-2.8-18.5-22.9c0-20.1,14.1-21.7,19.3-21.5
	C10.8,418.8,13,428,13,428S13,444.7,13,453.7z"/>
<path class="st2" d="M84.7,432.2c-4.6-22.9-14.8-24.6-22.5-25.5c-10.6-1.2-26.3,10.2-28.9,30.7c-2.4,19.2,7.2,36.8,25.1,36.8
	S89.2,455.1,84.7,432.2z M58,461.7c-13.1,1-14.3-14.5-13.1-21.1c1.2-6.6,2.6-20.7,18.4-21.5c5.4-0.3,10.5,6.4,10.5,19.1
	S71.1,460.7,58,461.7z"/>
</svg>
