<?xml version="1.0" encoding="utf-8"?>
<!-- Generator: Adobe Illustrator 21.0.2, SVG Export Plug-In . SVG Version: 6.00 Build 0)  -->
<svg version="1.1" id="Calque_1" xmlns="http://www.w3.org/2000/svg" xmlns:xlink="http://www.w3.org/1999/xlink" x="0px" y="0px"
	 viewBox="0 0 500 148" style="enable-background:new 0 0 500 148;" xml:space="preserve">
<style type="text/css">
	.st0{fill:#E1001A;}
</style>
<polygon class="st0" points="235.7,15.3 186.6,15.3 141.2,132.2 199.4,132.2 193.5,124 "/>
<polygon class="st0" points="181.8,15.8 141.7,15.8 88.1,67.5 108.3,15.3 59.2,15.3 13.9,132.2 63,132.2 87.4,69.2 91.6,133.6 
	136,133.6 129.3,69.2 "/>
<path class="st0" d="M291,61.1c0,0-6.5,0.6-6.5-7.5c0-7.4,8.3-6.7,8.3-6.7l59.8-0.6l11.9-29.6h-99.7c0,0-5.5,0.1-11.1,3.2
	c-5.3,2.9-7.5,8.6-7.5,8.6l-23,60.7h51.5c0,0,7.2-0.3,7.2,8.6s-11,8.1-11,8.1H217L204.1,134H301c0,0,8.1,0.5,14.3-3.8
	c3.2-2.2,5.6-6.2,5.6-6.2l25-63L291,61.1L291,61.1z"/>
<path class="st0" d="M394.1,20.1c0,0-8.5-0.1-11.8,2.6C378.1,26.1,375,34,375,34l-42,101.6h92.1c0,0,10.4,0.8,15.7-3.3
	c4.7-3.6,7.6-12.4,7.6-12.4L489,20.1H394.1z M406.5,107.4h-14.8l24.8-59.2h14.8L406.5,107.4z"/>
</svg>
