<?xml version="1.0" encoding="utf-8"?>
<!-- Generator: Adobe Illustrator 19.1.0, SVG Export Plug-In . SVG Version: 6.00 Build 0)  -->
<svg version="1.1" id="Calque_1" xmlns="http://www.w3.org/2000/svg" xmlns:xlink="http://www.w3.org/1999/xlink" x="0px" y="0px"
	 viewBox="-345 170.9 500 500" style="enable-background:new -345 170.9 500 500;" xml:space="preserve">
<style type="text/css">
	.st0{fill:#031491;}
</style>
<path class="st0" d="M-131.3,397.2l0.3-0.2h-64.6l-2,8.9h41.3l-2,10.6h-17.6h-23.5h-0.2l-5.8,31.1h23.7l0-0.2h17.7l0,0.2h23.7
	l9.2-50.4H-131.3z M-179.6,436.6l2.1-11.1h17.6l-2,11.1H-179.6z"/>
<polygon class="st0" points="-81.7,397.2 -89,437.1 -106.9,437.1 -99.6,397.2 -123.3,397.2 -132.5,447.7 -121.9,447.7 -108.9,447.7 
	-91,447.7 -70.7,447.7 -67.3,447.7 -58.1,397.2 "/>
<polygon class="st0" points="-226.8,383.1 -238.5,447.7 -214.8,447.7 -202.4,383.1 "/>
<path class="st0" d="M30,397.2L30,397.2l-0.4,0l-9.2,50.2l-0.2,0.3h64.5l1.6-10.9H46.1l2.2-12h17H89l5.3-27.2l0.4-0.4H30z
	 M50.1,414.9l1.6-8.8h17.2l-1.7,8.8H50.1z"/>
<polygon class="st0" points="-238.7,383.4 -254.1,383.4 -291.4,412.2 -286.5,383.1 -310.9,383.1 -321.1,447.7 -297.5,447.7 
	-293.7,425.8 -293.1,425.3 -261.7,463.5 -232.7,463.5 -274.8,411.2 "/>
<polygon class="st0" points="23.4,383.4 8,383.4 -29.3,412.2 -24.4,383.1 -48.8,383.1 -59,447.7 -35.4,447.7 -31.6,425.8 -31,425.3 
	0.4,463.5 29.4,463.5 -12.7,411.2 "/>
<path class="st0" d="M119.9,399.4c-0.3-0.2-0.7-0.5-1.2-0.7c1.4-0.2,2.5-0.7,3.2-1.4c0.7-0.7,1-1.6,1-2.7c0-0.8-0.2-1.6-0.6-2.2
	c-0.4-0.7-1-1.1-1.7-1.4c-0.7-0.3-1.7-0.4-3-0.4H111v14.9h2v-6.6h2.3c0.5,0,0.9,0,1.1,0.1c0.3,0.1,0.6,0.2,0.9,0.4
	c0.3,0.2,0.6,0.5,1,1c0.4,0.5,0.8,1.2,1.4,2.1l2,3.1h2.5l-2.6-4.1C121,400.6,120.5,399.9,119.9,399.4z M117.2,397.1H113v-4.9h4.7
	c1.1,0,1.9,0.2,2.4,0.7c0.5,0.5,0.8,1,0.8,1.7c0,0.5-0.1,0.9-0.4,1.3s-0.6,0.7-1.2,0.9C118.8,397,118.1,397.1,117.2,397.1z"/>
<path class="st0" d="M118,381.2c-8.8,0-16,7.2-16,16s7.2,16,16,16s16-7.2,16-16S126.8,381.2,118,381.2z M118,410.6
	c-7.4,0-13.5-6.1-13.5-13.5c0-7.4,6.1-13.5,13.5-13.5s13.5,6.1,13.5,13.5S125.5,410.6,118,410.6z"/>
</svg>
