<?xml version="1.0" encoding="utf-8"?>
<!-- Generator: Adobe Illustrator 15.0.0, SVG Export Plug-In . SVG Version: 6.00 Build 0)  -->
<!DOCTYPE svg PUBLIC "-//W3C//DTD SVG 1.1//EN" "http://www.w3.org/Graphics/SVG/1.1/DTD/svg11.dtd">
<svg version="1.1" id="Calque_1" xmlns="http://www.w3.org/2000/svg" xmlns:xlink="http://www.w3.org/1999/xlink" x="0px" y="0px"
	 width="500px" height="500px" viewBox="0 0 500 500" enable-background="new 0 0 500 500" xml:space="preserve">
<g>
	<g>
		<polyline fill="#004493" points="381.968,196.292 372.034,196.292 372.034,248.43 353.439,248.43 353.439,196.292 
			343.447,196.292 343.447,181.136 381.968,181.136 381.968,196.292 		"/>
	</g>
	<g>
		<rect x="320.254" y="181.19" fill="#004493" width="18.613" height="67.218"/>
	</g>
	<g>
		<polyline fill="#004493" points="262.324,196.303 246.665,196.303 246.665,206.333 260.661,206.305 260.661,221.575 
			246.575,221.575 246.575,233.203 262.167,233.203 262.254,248.418 228.307,248.418 228.307,181.152 262.324,181.152 
			262.324,196.303 		"/>
	</g>
	<g>
		<polyline fill="#004493" points="90.601,231.524 104.451,231.524 104.451,248.516 71.676,248.516 71.676,181.168 90.601,181.168 
			90.601,231.524 		"/>
	</g>
	<g>
		<rect x="149.875" y="181.168" fill="#004493" width="18.442" height="67.37"/>
	</g>
	<g>
		<path fill="#004493" d="M53.156,213.788l15.665,34.587H49.346l-11.395-29.044l-0.03,29.044H19.663v-67.202h18.055v27.554h0.073
			c3.397-9.185,10.13-27.603,10.13-27.603h19.626L53.156,213.788"/>
	</g>
	<g>
		<polyline fill="#004493" points="144.012,196.324 128.152,196.324 128.189,206.425 142.425,206.511 142.425,221.781 
			128.189,221.781 128.189,233.225 144.012,233.192 144.012,248.375 109.834,248.538 109.834,181.125 144.012,181.125 
			144.012,196.324 		"/>
	</g>
	<g>
		<path fill="#004493" d="M302.914,220.193c1.193-0.71,2.466-1.111,3.496-1.978c5.928-4.042,8.626-12.349,6.491-20.667
			c-2.228-9.103-9.743-15.178-19.479-16.359l-25.089-0.086v67.337h18.125v-0.157l-0.021-25.397l2.227,5.614l7.771,19.908h20.254
			C312.105,239.131,307.278,229.768,302.914,220.193L302.914,220.193z M293.346,208.332c-1.339,2.287-3.642,3.631-7.039,3.316
			V195.75c3.321,0.064,5.923,1.333,7.283,4.031C294.928,201.992,294.765,206.273,293.346,208.332"/>
	</g>
	<g>
		<path fill="#004493" d="M216.995,217.186c-1.422-1.577-4.045-1.734-5.381-3.23c3.565-2.146,7.28-4.594,8.697-8.784
			c2.137-5.949,0-12.836-3.316-16.878c-3.406-4.736-9.255-6.399-15.589-7.12l-25.329-0.076v67.321h24.459
			c4.097-0.086,7.917-0.823,11.238-2.091c5.846-2.379,9.412-7.835,10.197-14.576C222.609,225.422,221.187,220.204,216.995,217.186
			L216.995,217.186z M194.44,195.658c2.764,0,5.543-0.082,6.887,1.901c1.268,1.431,1.661,4.433,0.715,6.416
			c-1.189,2.693-4.356,2.85-7.603,2.931V195.658L194.44,195.658z M202.834,229.86c-1.024,2.693-3.804,3.885-7.047,3.798
			l-1.347-0.163v-12.583c3.327-0.313,6.562,0.233,7.917,2.769C203.376,225.194,203.698,228.121,202.834,229.86"/>
	</g>
	<g>
		<path fill="#004493" d="M386.113,190.082c0-4.216,3.44-7.689,7.705-7.689c4.237,0,7.685,3.473,7.685,7.689
			c0,4.248-3.447,7.705-7.685,7.705C389.553,197.787,386.113,194.33,386.113,190.082L386.113,190.082z M400.06,190.082
			c0-3.468-2.769-6.231-6.242-6.231c-3.468,0-6.247,2.763-6.247,6.231c0,3.484,2.779,6.264,6.247,6.264
			C397.291,196.346,400.06,193.566,400.06,190.082L400.06,190.082z M397.649,194.265h-1.885l-1.859-3.5h-1.626v3.5h-1.631v-8.285
			h4.021c0.699,0,1.621,0.022,2.249,0.385c0.753,0.488,0.965,1.279,0.965,2.151c0,1.528-0.775,2.151-2.26,2.249L397.649,194.265
			L397.649,194.265z M394.701,189.524c0.921,0.016,1.57-0.201,1.57-1.252c0-1.105-1.191-1.105-1.988-1.105h-2.005v2.357H394.701"/>
	</g>
	<g>
		<rect x="109.972" y="267.105" fill="#FFCB00" width="373.231" height="18.607"/>
	</g>
	<g>
		<g>
			<path fill="#004493" d="M119.249,319.335c-0.602,0.429-1.861,0.856-3.449,0.856c-3.684,0-6.437-3.219-6.437-9.174
				c0-5.694,2.771-9.504,6.825-9.504c1.609,0,2.655,0.482,3.103,0.808l-0.428,1.901c-0.62-0.428-1.531-0.748-2.617-0.748
				c-3.064,0-5.099,2.71-5.099,7.463c0,4.453,1.842,7.271,5.001,7.271c1.048,0,2.095-0.299,2.774-0.754L119.249,319.335z"/>
		</g>
		<g>
			<path fill="#004493" d="M138.81,310.666c0,6.198-2.734,9.525-6.069,9.525c-3.471,0-5.874-3.728-5.874-9.201
				c0-5.742,2.558-9.504,6.047-9.504C136.502,301.486,138.81,305.273,138.81,310.666z M128.65,310.938
				c0,3.89,1.512,7.353,4.188,7.353c2.674,0,4.186-3.409,4.186-7.516c0-3.625-1.354-7.381-4.167-7.381
				C130.046,303.394,128.65,306.992,128.65,310.938z"/>
		</g>
		<g>
			<path fill="#004493" d="M158.279,311.955c-0.098-2.524-0.214-5.581-0.214-7.808h-0.038c-0.466,2.091-0.989,4.372-1.65,6.87
				l-2.306,8.772h-1.282l-2.132-8.615c-0.621-2.574-1.125-4.882-1.493-7.027h-0.038c-0.038,2.254-0.136,5.256-0.252,7.997
				l-0.349,7.754h-1.61l0.91-18.087h2.154l2.229,8.746c0.542,2.227,0.97,4.215,1.317,6.095h0.041
				c0.347-1.825,0.812-3.813,1.396-6.095l2.327-8.746h2.151l0.815,18.087h-1.669L158.279,311.955z"/>
		</g>
		<g>
			<path fill="#004493" d="M169.122,302.023c0.813-0.185,1.88-0.347,3.237-0.347c1.667,0,2.888,0.536,3.664,1.5
				c0.699,0.862,1.146,2.173,1.146,3.788c0,1.636-0.35,2.921-1.008,3.864c-0.914,1.315-2.347,1.982-3.997,1.982
				c-0.504,0-0.967-0.027-1.357-0.157v7.244h-1.685V302.023z M170.807,310.746c0.369,0.137,0.835,0.191,1.398,0.191
				c2.035,0,3.276-1.398,3.276-3.843c0-2.411-1.241-3.565-3.083-3.565c-0.737,0-1.298,0.076-1.59,0.185V310.746z"/>
		</g>
		<g>
			<path fill="#004493" d="M192.441,311.419h-5.062v6.519h5.663v1.961h-7.366v-18.087h7.077v1.956h-5.373v5.717h5.062V311.419z"/>
		</g>
		<g>
			<path fill="#004493" d="M203.971,303.795h-3.975v-1.983h9.675v1.983h-3.994v16.104h-1.707V303.795z"/>
		</g>
		<g>
			<path fill="#004493" d="M224.126,311.419h-5.061v6.519h5.662v1.961h-7.366v-18.087h7.077v1.956h-5.373v5.717h5.061V311.419z"/>
		</g>
		<g>
			<path fill="#004493" d="M233.175,319.898v-18.087h1.862l4.167,9.151c0.951,2.12,1.726,4.026,2.327,5.874l0.06-0.027
				c-0.157-2.411-0.195-4.616-0.195-7.434v-7.564h1.59v18.087h-1.707l-4.148-9.178c-0.913-2.012-1.785-4.081-2.425-6.037
				l-0.057,0.027c0.098,2.281,0.117,4.454,0.117,7.461v7.727H233.175z"/>
		</g>
		<g>
			<path fill="#004493" d="M261.311,319.335c-0.601,0.429-1.864,0.856-3.451,0.856c-3.685,0-6.438-3.219-6.438-9.174
				c0-5.694,2.772-9.504,6.822-9.504c1.614,0,2.661,0.482,3.104,0.808l-0.428,1.901c-0.618-0.428-1.528-0.748-2.618-0.748
				c-3.061,0-5.099,2.71-5.099,7.463c0,4.453,1.843,7.271,5.001,7.271c1.047,0,2.098-0.299,2.775-0.754L261.311,319.335z"/>
		</g>
		<g>
			<path fill="#004493" d="M276.446,311.419h-5.062v6.519h5.663v1.961h-7.37v-18.087h7.077v1.956h-5.37v5.717h5.062V311.419z"/>
		</g>
		<g>
			<path fill="#FFCB00" d="M285.494,302.023c0.812-0.185,1.88-0.347,3.234-0.347c1.67,0,2.894,0.536,3.669,1.5
				c0.699,0.862,1.144,2.173,1.144,3.788c0,1.636-0.353,2.921-1.009,3.864c-0.91,1.315-2.346,1.982-3.992,1.982
				c-0.505,0-0.971-0.027-1.361-0.157v7.244h-1.685V302.023z M287.179,310.746c0.369,0.137,0.835,0.191,1.397,0.191
				c2.039,0,3.279-1.398,3.279-3.843c0-2.411-1.24-3.565-3.084-3.565c-0.736,0-1.3,0.076-1.593,0.185V310.746z"/>
			<path fill="#FFCB00" d="M287.873,320.593h-3.072v-19.122l0.542-0.125c1.077-0.244,2.188-0.363,3.386-0.363
				c1.827,0,3.284,0.607,4.211,1.761c0.835,1.03,1.294,2.53,1.294,4.222c0,1.744-0.378,3.181-1.132,4.259
				c-1.122,1.626-2.932,2.422-5.229,2.259V320.593z M286.188,319.205h0.298v-7.516l0.911,0.31c0.325,0.103,0.759,0.119,1.144,0.119
				c1.457,0,2.671-0.597,3.424-1.686c0.585-0.845,0.883-2.011,0.883-3.468c0-1.377-0.352-2.562-0.986-3.349
				c-0.665-0.83-1.717-1.246-3.132-1.246c-0.894,0-1.733,0.069-2.541,0.217V319.205z M288.576,311.63
				c-0.687,0-1.207-0.076-1.636-0.233l-0.455-0.168v-7.997l0.455-0.168c0.531-0.201,1.377-0.229,1.831-0.229
				c2.363,0,3.777,1.594,3.777,4.26C292.549,309.891,291.027,311.63,288.576,311.63z M287.873,310.2
				c0.2,0.027,0.434,0.043,0.703,0.043c2.25,0,2.586-1.973,2.586-3.148c0-1.312-0.417-2.872-2.391-2.872
				c-0.367,0-0.671,0.022-0.898,0.049V310.2z"/>
		</g>
		<g>
			<path fill="#FFCB00" d="M303.755,301.812v10.734c0,4.025,1.301,5.744,3.045,5.744c1.918,0,3.182-1.772,3.182-5.744v-10.734h1.706
				v10.572c0,5.554-2.113,7.808-4.947,7.808c-2.677,0-4.692-2.091-4.692-7.727v-10.653H303.755z"/>
			<path fill="#FFCB00" d="M306.74,320.886c-2.01,0-5.386-1.096-5.386-8.421v-11.347h3.094v11.428c0,3.208,0.855,5.05,2.352,5.05
				c2.162,0,2.487-3.164,2.487-5.05v-11.428h3.094v11.266C312.381,320.056,308.437,320.886,306.74,320.886z M302.741,302.505v9.96
				c0,3.208,0.693,7.033,3.999,7.033c3.701,0,4.253-4.46,4.253-7.114v-9.879h-0.319v10.041c0,5.604-2.428,6.438-3.874,6.438
				c-1.122,0-3.739-0.629-3.739-6.438v-10.041H302.741z"/>
		</g>
		<g>
			<path fill="#FFCB00" d="M320.872,302.051c0.852-0.212,2.092-0.374,3.235-0.374c1.804,0,2.991,0.482,3.781,1.473
				c0.64,0.808,1.03,2.044,1.03,3.463c0,2.362-1.09,3.945-2.443,4.59v0.081c0.985,0.482,1.587,1.772,1.901,3.652
				c0.423,2.52,0.737,4.265,1.008,4.963h-1.745c-0.217-0.536-0.503-2.063-0.855-4.317c-0.385-2.498-1.105-3.437-2.634-3.518h-1.594
				v7.835h-1.685V302.051z M322.557,310.292h1.729c1.799,0,2.947-1.371,2.947-3.436c0-2.335-1.225-3.354-3.007-3.354
				c-0.812,0-1.377,0.076-1.67,0.185V310.292z"/>
			<path fill="#FFCB00" d="M330.398,320.593h-3.223l-0.179-0.434c-0.223-0.559-0.499-1.935-0.895-4.47
				c-0.407-2.634-1.145-2.889-1.988-2.932h-0.862v7.835h-3.072v-19.084l0.525-0.131c0.98-0.243,2.281-0.396,3.403-0.396
				c2.005,0,3.381,0.553,4.323,1.733c0.765,0.965,1.182,2.348,1.182,3.896c0,1.999-0.726,3.68-1.983,4.682
				c0.688,0.731,1.16,1.897,1.431,3.527c0.363,2.157,0.71,4.151,0.971,4.828L330.398,320.593z M328.15,319.205h0.314
				c-0.212-0.888-0.45-2.227-0.771-4.155c-0.287-1.707-0.812-2.797-1.521-3.144l-0.391-0.189v-0.873l0.396-0.27
				c1.284-0.607,2.048-2.093,2.048-3.962c0-1.22-0.319-2.324-0.878-3.034c-0.671-0.835-1.668-1.208-3.239-1.208
				c-0.808,0-1.751,0.091-2.541,0.238v16.597h0.297v-7.835h2.287c2.385,0.124,3.002,2.048,3.321,4.107
				C327.754,317.281,327.982,318.534,328.15,319.205z M324.286,310.985h-2.423v-7.781l0.455-0.168
				c0.504-0.19,1.317-0.228,1.908-0.228c2.319,0,3.7,1.512,3.7,4.048C327.927,309.327,326.465,310.985,324.286,310.985z
				 M323.251,309.599h1.035c1.393,0,2.254-1.052,2.254-2.742c0-1.788-0.759-2.66-2.313-2.66c-0.438,0-0.753,0.021-0.976,0.049
				V309.599z"/>
		</g>
		<g>
			<path fill="#004493" d="M341.187,301.275c-1.414,2.655-2.423,6.118-2.423,11c0,4.778,1.068,8.188,2.423,10.869h-1.316
				c-1.226-2.227-2.541-5.662-2.541-10.896c0.021-5.256,1.315-8.719,2.541-10.973H341.187z"/>
		</g>
		<g>
			<path fill="#004493" d="M350.214,313.835c0.038,3.191,1.49,4.509,3.213,4.509c1.226,0,1.978-0.298,2.602-0.672l0.309,1.69
				c-0.602,0.374-1.646,0.829-3.138,0.829c-2.894,0-4.616-2.655-4.616-6.572c0-3.918,1.669-6.979,4.399-6.979
				c3.084,0,3.881,3.707,3.881,6.096c0,0.482-0.022,0.83-0.061,1.1H350.214z M355.215,312.145c0.017-1.479-0.449-3.814-2.367-3.814
				c-1.745,0-2.482,2.174-2.617,3.814H355.215z"/>
		</g>
		<g>
			<path fill="#004493" d="M364.205,323.145c1.354-2.655,2.422-6.118,2.422-10.951c0-4.827-1.045-8.236-2.422-10.918h1.316
				c1.219,2.199,2.542,5.662,2.542,10.918c-0.021,5.262-1.323,8.697-2.542,10.951H364.205z"/>
		</g>
	</g>
	<g>
		<path fill="#004493" d="M444.065,179.722c-19.664,0-35.59,15.925-35.59,35.562c0,19.659,15.926,35.59,35.59,35.59
			c19.643,0,35.573-15.931,35.573-35.59C479.638,195.647,463.707,179.722,444.065,179.722z M455.47,207.87
			c1.726,1.658,3.265,3.428,4.405,5.089c6.422,6.48,13.98,7.304,15.325,8.062c-2.107,0-3.945,2.341-4.616,3.695
			c-4.786-2.752-10.709-3.608-14.176-2.796c-3.274,0.493-13.482,0.66-20.368-4.857L455.47,207.87z M436.158,197.581
			c-0.455,0-0.808-0.374-0.808-0.823c0-0.466,0.353-0.824,0.808-0.824c0.456,0,0.83,0.358,0.83,0.824
			C436.989,197.207,436.615,197.581,436.158,197.581z M444.195,181.385c12.812,0,23.958,7.124,29.714,17.62l-18.446,8.782
			c-3.457-3.293-6.914-5.396-10.059-5.622c-1.02-5.5-6.059-9.732-9.337-9.255l-6.443-7.564l2.449,7.12l-7.705-4.01l6.552,6.622
			c-2.233,11.825,0.129,18,5.08,21.973l-23.205,11.045c-1.617-3.955-2.515-8.28-2.515-12.818
			C410.28,196.573,425.451,181.385,444.195,181.385z"/>
		<path fill="#004493" d="M424.698,194.698c-0.157-1.419-0.754-4.8-0.754-4.8c-0.043-0.596-0.975,4.573-0.975,4.573
			C422.439,196.742,424.888,196.698,424.698,194.698z"/>
		<path fill="#004493" d="M424.877,205.188c-0.2-1.831-0.965-6.188-0.965-6.188c-0.064-0.753-1.251,5.901-1.251,5.901
			C421.994,207.823,425.137,207.769,424.877,205.188z"/>
		<path fill="#004493" d="M425.219,218.302c-0.266-2.493-1.307-8.399-1.307-8.399c-0.07-1.041-1.695,8.019-1.695,8.019
			C421.301,221.878,425.582,221.802,425.219,218.302z"/>
	</g>
</g>
</svg>
