<?xml version="1.0" encoding="utf-8"?>
<!-- Generator: Adobe Illustrator 21.0.2, SVG Export Plug-In . SVG Version: 6.00 Build 0)  -->
<svg version="1.1" id="Calque_1" xmlns="http://www.w3.org/2000/svg" xmlns:xlink="http://www.w3.org/1999/xlink" x="0px" y="0px"
	 viewBox="0 0 500 178" style="enable-background:new 0 0 500 178;" xml:space="preserve">
<style type="text/css">
	.st0{fill:#004493;}
	.st1{fill:#FFCB00;}
</style>
<polyline class="st0" points="382,35.3 372,35.3 372,87.4 353.4,87.4 353.4,35.3 343.4,35.3 343.4,20.1 382,20.1 382,35.3 "/>
<rect x="320.3" y="20.2" class="st0" width="18.6" height="67.2"/>
<polyline class="st0" points="262.3,35.3 246.7,35.3 246.7,45.3 260.7,45.3 260.7,60.6 246.6,60.6 246.6,72.2 262.2,72.2 
	262.3,87.4 228.3,87.4 228.3,20.1 262.3,20.1 262.3,35.3 "/>
<polyline class="st0" points="90.6,70.5 104.5,70.5 104.5,87.5 71.7,87.5 71.7,20.2 90.6,20.2 90.6,70.5 "/>
<rect x="149.9" y="20.2" class="st0" width="18.4" height="67.4"/>
<path class="st0" d="M53.2,52.8l15.7,34.6H49.4L38,58.4v29H19.7V20.2h18.1v27.6h0.1C41.3,38.6,48,20.2,48,20.2h19.6L53.2,52.8"/>
<polyline class="st0" points="144,35.3 128.2,35.3 128.2,45.4 142.4,45.5 142.4,60.8 128.2,60.8 128.2,72.2 144,72.2 144,87.4 
	109.8,87.5 109.8,20.1 144,20.1 144,35.3 "/>
<path class="st0" d="M302.9,59.2c1.2-0.7,2.5-1.1,3.5-2c5.9-4,8.6-12.3,6.5-20.7c-2.2-9.1-9.7-15.2-19.5-16.4L268.3,20v67.3h18.1
	v-0.2V61.7l2.2,5.6l7.8,19.9h20.3C312.1,78.1,307.3,68.8,302.9,59.2L302.9,59.2z M293.3,47.3c-1.3,2.3-3.6,3.6-7,3.3V34.7
	c3.3,0.1,5.9,1.3,7.3,4C294.9,41,294.8,45.3,293.3,47.3"/>
<path class="st0" d="M217,56.2c-1.4-1.6-4-1.7-5.4-3.2c3.6-2.1,7.3-4.6,8.7-8.8c2.1-5.9,0-12.8-3.3-16.9c-3.4-4.7-9.3-6.4-15.6-7.1
	l-25.3-0.1v67.3h24.5c4.1-0.1,7.9-0.8,11.2-2.1c5.8-2.4,9.4-7.8,10.2-14.6C222.6,64.4,221.2,59.2,217,56.2L217,56.2z M194.4,34.6
	c2.8,0,5.5-0.1,6.9,1.9c1.3,1.4,1.7,4.4,0.7,6.4c-1.2,2.7-4.4,2.9-7.6,2.9L194.4,34.6L194.4,34.6z M202.8,68.9c-1,2.7-3.8,3.9-7,3.8
	l-1.3-0.2V59.9c3.3-0.3,6.6,0.2,7.9,2.8C203.4,64.2,203.7,67.1,202.8,68.9"/>
<path class="st0" d="M393.8,21.4c-4.3,0-7.7,3.5-7.7,7.7s3.5,7.7,7.7,7.7c4.3,0,7.7-3.5,7.7-7.7S398,21.4,393.8,21.4z M393.9,35.4
	c-3.4,0-6.2-2.8-6.2-6.3c0-3.4,2.7-6.2,6.2-6.2c3.4,0,6.2,2.7,6.2,6.2S397.3,35.3,393.9,35.4z"/>
<path class="st0" d="M397.8,27.6c0-0.9-0.2-1.7-1-2.2c-0.6-0.4-1.5-0.4-2.2-0.4h-4v8.3h1.6v-3.5h1.6l1.9,3.5h1.9l-2.1-3.5
	C397,29.8,397.8,29.1,397.8,27.6z M394.7,28.5h-2.4v-2.4h2c0.8,0,2,0,2,1.1S395.6,28.5,394.7,28.5z"/>
<rect x="110" y="106.1" class="st1" width="373.2" height="18.6"/>
<path class="st0" d="M119.2,158.3c-0.6,0.4-1.9,0.9-3.4,0.9c-3.7,0-6.4-3.2-6.4-9.2c0-5.7,2.8-9.5,6.8-9.5c1.6,0,2.7,0.5,3.1,0.8
	l-0.4,1.9c-0.6-0.4-1.5-0.7-2.6-0.7c-3.1,0-5.1,2.7-5.1,7.5c0,4.5,1.8,7.3,5,7.3c1,0,2.1-0.3,2.8-0.8L119.2,158.3z"/>
<path class="st0" d="M138.8,149.7c0,6.2-2.7,9.5-6.1,9.5c-3.5,0-5.9-3.7-5.9-9.2c0-5.7,2.6-9.5,6-9.5
	C136.5,140.5,138.8,144.3,138.8,149.7z M128.6,149.9c0,3.9,1.5,7.4,4.2,7.4s4.2-3.4,4.2-7.5c0-3.6-1.4-7.4-4.2-7.4
	S128.6,146,128.6,149.9z"/>
<path class="st0" d="M158.3,150.9c-0.1-2.5-0.2-5.6-0.2-7.8l0,0c-0.5,2.1-1,4.4-1.6,6.9l-2.3,8.8h-1.3l-2.1-8.6
	c-0.6-2.6-1.1-4.9-1.5-7l0,0c0,2.3-0.1,5.3-0.3,8l-0.3,7.8h-1.6l0.9-18.1h2.2l2.2,8.7c0.5,2.2,1,4.2,1.3,6.1l0,0
	c0.3-1.8,0.8-3.8,1.4-6.1l2.3-8.7h2.2l0.8,18.1h-1.7L158.3,150.9z"/>
<path class="st0" d="M169.1,141c0.8-0.2,1.9-0.3,3.2-0.3c1.7,0,2.9,0.5,3.7,1.5c0.7,0.9,1.1,2.2,1.1,3.8c0,1.6-0.4,2.9-1,3.9
	c-0.9,1.3-2.3,2-4,2c-0.5,0-1,0-1.4-0.2v7.2H169L169.1,141L169.1,141z M170.8,149.7c0.4,0.1,0.8,0.2,1.4,0.2c2,0,3.3-1.4,3.3-3.8
	s-1.2-3.6-3.1-3.6c-0.7,0-1.3,0.1-1.6,0.2L170.8,149.7L170.8,149.7z"/>
<path class="st0" d="M192.4,150.4h-5.1v6.5h5.7v2h-7.4v-18.1h7.1v2h-5.4v5.7h5.1L192.4,150.4L192.4,150.4z"/>
<path class="st0" d="M204,142.8h-4v-2h9.7v2h-4v16.1H204V142.8L204,142.8z"/>
<path class="st0" d="M224.1,150.4H219v6.5h5.7v2h-7.4v-18.1h7.1v2H219v5.7h5.1C224.1,148.5,224.1,150.4,224.1,150.4z"/>
<path class="st0" d="M233.2,158.9v-18.1h1.9l4.2,9.2c1,2.1,1.7,4,2.3,5.9h0.1c-0.2-2.4-0.2-4.6-0.2-7.4v-7.6h1.6V159h-1.7l-4.1-9.2
	c-0.9-2-1.8-4.1-2.4-6h-0.1c0.1,2.3,0.1,4.5,0.1,7.5v7.7h-1.7V158.9z"/>
<path class="st0" d="M261.3,158.3c-0.6,0.4-1.9,0.9-3.5,0.9c-3.7,0-6.4-3.2-6.4-9.2c0-5.7,2.8-9.5,6.8-9.5c1.6,0,2.7,0.5,3.1,0.8
	l-0.4,1.9c-0.6-0.4-1.5-0.7-2.6-0.7c-3.1,0-5.1,2.7-5.1,7.5c0,4.5,1.8,7.3,5,7.3c1,0,2.1-0.3,2.8-0.8L261.3,158.3z"/>
<path class="st0" d="M276.4,150.4h-5.1v6.5h5.7v2h-7.4v-18.1h7.1v2h-5.4v5.7h5.1C276.4,148.5,276.4,150.4,276.4,150.4z"/>
<path class="st1" d="M292.9,141.8c-0.9-1.2-2.4-1.8-4.2-1.8c-1.2,0-2.3,0.2-3.4,0.4l-0.5,0.1v19.1h3.1v-7c2.3,0.1,4.1-0.7,5.2-2.3
	c0.7-1.1,1.1-2.6,1.1-4.3S293.7,142.8,292.9,141.8z M288.6,149.2c-0.3,0-0.5,0-0.7,0v-6c0.2,0,0.5,0,0.9,0c2,0,2.4,1.6,2.4,2.9
	C291.2,147.2,290.8,149.2,288.6,149.2z"/>
<path class="st1" d="M309.3,140.1v11.4c0,1.8-0.3,5-2.5,5c-1.5,0-2.4-1.8-2.4-5v-11.4h-3.1v11.4c0,7.3,3.4,8.4,5.4,8.4
	c1.7,0,5.7-0.9,5.7-8.5v-11.3H309.3z"/>
<path class="st1" d="M329.9,158.5c-0.3-0.6-0.6-2.6-1-4.8c-0.2-1.6-0.7-2.8-1.4-3.5c1.3-1,2-2.7,2-4.7c0-1.6-0.4-2.9-1.2-3.9
	c-0.9-1.1-2.3-1.7-4.3-1.7c-1.1,0-2.4,0.2-3.4,0.4l-0.5,0.1v19.1h3.1v-7.8h0.9c0.9,0,1.6,0.3,2,2.9c0.4,2.6,0.7,3.9,0.9,4.5l0.2,0.5
	h3.2L329.9,158.5z M326.6,145.9c0,1.6-0.9,2.7-2.3,2.7h-1v-5.4c0.2,0,0.6,0,1,0C325.8,143.2,326.6,144.1,326.6,145.9z"/>
<path class="st0" d="M341.2,140.3c-1.4,2.7-2.4,6.1-2.4,11c0,4.8,1.1,8.2,2.4,10.9h-1.3c-1.2-2.2-2.5-5.7-2.5-10.9
	c0-5.3,1.3-8.7,2.5-11H341.2z"/>
<path class="st0" d="M350.2,152.8c0,3.2,1.5,4.5,3.2,4.5c1.2,0,2-0.3,2.6-0.7l0.3,1.7c-0.6,0.4-1.6,0.8-3.1,0.8
	c-2.9,0-4.6-2.7-4.6-6.6s1.7-7,4.4-7c3.1,0,3.9,3.7,3.9,6.1c0,0.5,0,0.8-0.1,1.1L350.2,152.8L350.2,152.8z M355.2,151.1
	c0-1.5-0.4-3.8-2.4-3.8c-1.7,0-2.5,2.2-2.6,3.8H355.2z"/>
<path class="st0" d="M364.2,162.1c1.4-2.7,2.4-6.1,2.4-11c0-4.8-1-8.2-2.4-10.9h1.3c1.2,2.2,2.5,5.7,2.5,10.9c0,5.3-1.3,8.7-2.5,11
	H364.2z"/>
<path class="st0" d="M444.1,18.7c-19.7,0-35.6,15.9-35.6,35.6s15.9,35.6,35.6,35.6c19.6,0,35.6-15.9,35.6-35.6
	C479.6,34.6,463.7,18.7,444.1,18.7z M455.5,46.9c1.7,1.7,3.3,3.4,4.4,5.1c6.4,6.5,14,7.3,15.3,8.1c-2.1,0-3.9,2.3-4.6,3.7
	c-4.8-2.8-10.7-3.6-14.2-2.8c-3.3,0.5-13.5,0.7-20.4-4.9L455.5,46.9z M436.2,36.6c-0.5,0-0.8-0.4-0.8-0.8c0-0.5,0.4-0.8,0.8-0.8
	c0.5,0,0.8,0.4,0.8,0.8S436.6,36.6,436.2,36.6z M444.2,20.4c12.8,0,24,7.1,29.7,17.6l-18.4,8.8c-3.5-3.3-6.9-5.4-10.1-5.6
	c-1-5.5-6.1-9.7-9.3-9.3l-6.4-7.6l2.4,7.1l-7.7-4L431,34c-2.2,11.8,0.1,18,5.1,22l-23.2,11c-1.6-4-2.5-8.3-2.5-12.8
	C410.3,35.6,425.5,20.4,444.2,20.4z"/>
<path class="st0" d="M424.7,33.7c-0.2-1.4-0.8-4.8-0.8-4.8c0-0.6-1,4.6-1,4.6C422.4,35.7,424.9,35.7,424.7,33.7z"/>
<path class="st0" d="M424.9,44.2c-0.2-1.8-1-6.2-1-6.2c-0.1-0.8-1.3,5.9-1.3,5.9C422,46.8,425.1,46.8,424.9,44.2z"/>
<path class="st0" d="M425.2,57.3c-0.3-2.5-1.3-8.4-1.3-8.4c-0.1-1-1.7,8-1.7,8C421.3,60.9,425.6,60.8,425.2,57.3z"/>
</svg>
