<?xml version="1.0" encoding="utf-8"?>
<!-- Generator: Adobe Illustrator 15.0.0, SVG Export Plug-In . SVG Version: 6.00 Build 0)  -->
<!DOCTYPE svg PUBLIC "-//W3C//DTD SVG 1.1//EN" "http://www.w3.org/Graphics/SVG/1.1/DTD/svg11.dtd">
<svg version="1.1" id="Calque_1" xmlns="http://www.w3.org/2000/svg" xmlns:xlink="http://www.w3.org/1999/xlink" x="0px" y="0px"
	 width="500px" height="500px" viewBox="0 0 500 500" enable-background="new 0 0 500 500" xml:space="preserve">
<g>
	<path d="M42.684,100.755H26.763v-8.541h42.206v8.541H52.881v47.346H42.684V100.755z"/>
	<path d="M70.954,120.738c0-5.473-0.083-9.452-0.33-13.018h8.788l0.415,7.628h0.249c1.99-5.639,6.717-8.541,11.112-8.541
		c0.994,0,1.575,0.083,2.405,0.249v9.536c-0.913-0.166-1.824-0.249-3.069-0.249c-4.808,0-8.208,3.068-9.122,7.712
		c-0.164,0.912-0.247,1.99-0.247,3.067v20.979H70.954V120.738z"/>
	<path d="M106.939,130.771c0.249,7.298,5.887,10.449,12.438,10.449c4.725,0,8.043-0.746,11.195-1.825l1.492,6.965
		c-3.484,1.492-8.292,2.57-14.097,2.57c-13.1,0-20.811-8.043-20.811-20.398c0-11.193,6.798-21.724,19.733-21.724
		c13.102,0,17.414,10.78,17.414,19.652c0,1.907-0.166,3.399-0.332,4.311H106.939z M124.683,123.641
		c0.083-3.731-1.575-9.868-8.375-9.868c-6.302,0-8.956,5.723-9.369,9.868H124.683z M129.243,90.224l-10.116,12.272h-7.046
		l7.212-12.272H129.243z"/>
	<path d="M143.667,148.102v-32.753h-5.474v-7.628h5.474v-1.741c0-5.224,1.409-10.449,4.891-13.765
		c2.986-2.82,6.964-3.897,10.531-3.897c2.737,0,4.893,0.498,6.47,0.995l-0.664,7.878c-1.162-0.414-2.49-0.746-4.395-0.746
		c-5.059,0-6.717,4.229-6.717,9.204v2.073h8.79v7.628h-8.708v32.753H143.667z"/>
	<path d="M169.704,148.102V107.72h10.201v40.381H169.704z"/>
	<path d="M169.704,99.658v-9.909h10.201v9.909H169.704z"/>
	<path d="M194.836,119.744c0-4.644-0.164-8.541-0.33-12.023h8.705l0.5,5.97h0.247c1.907-3.15,5.557-6.882,12.439-6.882
		c5.306,0,9.452,2.985,11.193,7.462h0.166c1.411-2.239,3.069-3.897,4.893-5.059c2.322-1.575,4.893-2.404,8.292-2.404
		c6.634,0,13.434,4.561,13.434,17.495v23.798h-9.95v-22.305c0-6.717-2.322-10.697-7.215-10.697c-3.481,0-6.055,2.488-7.131,5.39
		c-0.332,0.913-0.498,2.239-0.498,3.4v24.212h-9.95v-23.383c0-5.639-2.239-9.619-6.964-9.619c-3.816,0-6.387,2.986-7.381,5.722
		c-0.332,1.078-0.498,2.239-0.498,3.4v23.88h-9.952V119.744z"/>
	<path d="M275.092,130.771c0.248,7.298,5.887,10.449,12.438,10.449c4.725,0,8.044-0.746,11.194-1.825l1.492,6.965
		c-3.484,1.492-8.292,2.57-14.096,2.57c-13.102,0-20.812-8.043-20.812-20.398c0-11.193,6.8-21.724,19.735-21.724
		c13.1,0,17.411,10.78,17.411,19.652c0,1.907-0.164,3.399-0.332,4.311H275.092z M292.837,123.641
		c0.081-3.731-1.577-9.868-8.377-9.868c-6.3,0-8.956,5.723-9.368,9.868H292.837z M297.396,90.224l-10.113,12.272h-7.049
		l7.213-12.272H297.396z"/>
	<path d="M323.913,97.355v10.365h9.701v7.628h-9.701v17.829c0,4.975,1.326,7.461,5.225,7.461c1.822,0,2.818-0.083,3.98-0.415
		l0.164,7.713c-1.492,0.58-4.229,1.077-7.379,1.077c-3.816,0-6.883-1.244-8.79-3.316c-2.238-2.322-3.234-6.054-3.234-11.361v-18.988
		h-5.721v-7.628h5.721v-7.545L323.913,97.355z"/>
	<path d="M374.619,138.4c0,3.649,0.166,7.214,0.662,9.702h-9.205l-0.745-4.478h-0.249c-2.404,3.151-6.634,5.39-11.941,5.39
		c-8.124,0-12.687-5.887-12.687-12.022c0-10.117,9.039-15.341,23.964-15.258v-0.663c0-2.654-1.077-7.048-8.208-7.048
		c-3.98,0-8.126,1.244-10.863,2.985l-1.989-6.634c2.983-1.823,8.208-3.565,14.595-3.565c12.936,0,16.667,8.209,16.667,17.082V138.4z
		 M364.667,128.367c-7.213-0.083-14.096,1.41-14.096,7.546c0,3.979,2.569,5.804,5.807,5.804c4.144,0,7.046-2.653,8.04-5.556
		c0.249-0.745,0.249-1.492,0.249-2.238V128.367z"/>
	<path d="M422.717,135.996c0,4.809,0.166,8.789,0.332,12.105h-8.871l-0.499-6.053h-0.247c-1.743,2.819-5.723,6.965-13.021,6.965
		c-7.296,0-14.013-4.394-14.013-17.579V107.72h10.198v21.973c0,6.717,2.156,11.029,7.547,11.029c4.146,0,6.798-2.82,7.796-5.474
		c0.413-0.829,0.579-1.99,0.579-3.151V107.72h10.198V135.996z"/>
	<path d="M445.617,107.72l4.811,7.628c1.325,2.156,2.487,4.147,3.647,6.219h0.166c1.16-2.239,2.322-4.311,3.565-6.385l4.478-7.462
		h11.111l-13.517,19.403l13.766,20.979h-11.607l-4.895-8.043c-1.324-2.156-2.486-4.312-3.646-6.551h-0.168
		c-1.16,2.322-2.404,4.312-3.647,6.551l-4.644,8.043h-11.276l14.013-20.563l-13.517-19.818H445.617z"/>
</g>
<g>
	<polygon fill="#CE0000" points="29.855,413.368 41.87,413.368 41.87,387.271 66.094,387.271 66.094,378.178 41.87,378.178 
		41.87,361.267 67.951,361.267 67.951,352.083 29.855,352.083 	"/>
	<path fill="#CE0000" d="M131.585,384.453v-0.272c6.174-2.001,11.864-7.365,11.864-15.276c0-5.273-2.024-9.547-5.593-12.366
		c-4.438-3.455-10.708-4.91-20.065-4.91c-6.85,0-13.408,0.546-17.942,1.364v60.376h11.768V388.18h5.981
		c6.753,0.184,9.743,2.729,11.671,10.729c1.737,7.64,3.377,12.641,4.341,14.459h12.156c-1.255-2.365-2.992-9.458-5.113-17.096
		C139.108,390.363,136.312,386.09,131.585,384.453z M118.659,379.998h-7.043V360.63c1.158-0.272,3.569-0.545,7.331-0.545
		c7.718,0,12.638,3.182,12.638,9.819C131.585,375.997,126.665,379.998,118.659,379.998z"/>
	<path fill="#CE0000" d="M194.622,352.083l-20.602,61.285h12.113l5.532-17.367h20.314l5.815,17.367h12.687l-20.888-61.285H194.622z
		 M193.572,387.545l4.958-15.094c1.052-3.638,2.1-7.911,3.054-11.457h0.191c0.954,3.546,2.001,7.729,3.243,11.457l5.055,15.094
		H193.572z"/>
	<path fill="#CE0000" d="M304.46,373.451c0,9.365,0.188,17.276,1.04,25.458h-0.189c-2.934-6.638-6.719-13.729-10.882-20.548
		l-16.464-26.278h-13.341v61.285h10.786v-21.915c0-10.092-0.189-18.184-0.662-26.095l0.378-0.091
		c3.123,6.91,7.286,14.366,11.354,21.094l16.653,27.007h12.111v-61.285H304.46V373.451z"/>
	<path fill="#CE0000" d="M375.948,363.712c5.805,0,9.715,2.249,13.089,7.47h10.323c-4.387-11.486-13.357-18.071-23.612-18.071
		c-14.102,0-25.64,13.732-25.64,30.519c0,17.106,11.672,30.92,26.247,30.92c10.188,0,19.091-6.745,23.005-17.589H388.5
		c-4.047,5.061-7.561,6.987-12.349,6.987c-9.176,0-16.732-9.154-16.732-20.237C359.419,372.546,366.436,363.712,375.948,363.712z"/>
	<polygon fill="#CE0000" points="445.53,386.181 470.063,386.181 470.063,377.088 445.53,377.088 445.53,361.267 471.512,361.267 
		471.512,352.083 433.65,352.083 433.65,413.368 472.959,413.368 472.959,404.185 445.53,404.185 	"/>
	<polygon fill="#CE0000" points="72.42,281.847 88.557,268.569 119.854,312.1 180.629,312.1 123.48,239.838 176.182,196.479 
		114.912,196.479 73.16,236.502 72.42,236.502 72.42,196.479 27.456,196.479 27.456,312.1 72.42,312.1 	"/>
	<polygon fill="#CE0000" points="365.918,196.479 363.448,196.479 363.448,312.1 409.4,312.1 409.4,312.086 476.104,312.086 
		476.104,283.428 409.4,283.428 409.4,268.618 476.104,268.618 476.104,239.961 409.4,239.961 409.4,225.138 476.104,225.138 
		476.104,196.479 409.4,196.479 	"/>
	<rect x="27.456" y="169.798" fill="#CE0000" width="448.648" height="15.317"/>
	<rect x="27.456" y="322.476" fill="#CE0000" width="448.648" height="15.317"/>
	<polygon fill="#CE0000" points="350.107,312.1 350.107,196.479 317.99,196.479 308.108,196.479 286.367,196.479 266.603,258.144 
		246.839,196.479 224.604,196.479 215.216,196.479 182.605,196.479 182.605,312.1 224.604,312.1 224.604,228.317 249.309,312.1 
		283.897,312.1 308.108,229.993 308.108,312.1 	"/>
</g>
</svg>
