<?xml version="1.0" encoding="utf-8"?>
<!-- Generator: Adobe Illustrator 21.0.2, SVG Export Plug-In . SVG Version: 6.00 Build 0)  -->
<svg version="1.1" id="Calque_1" xmlns="http://www.w3.org/2000/svg" xmlns:xlink="http://www.w3.org/1999/xlink" x="0px" y="0px"
	 viewBox="0 0 500 234" style="enable-background:new 0 0 500 234;" xml:space="preserve">
<style type="text/css">
	.st0{fill:#F1190E;}
	.st1{fill:#FFFFFF;}
</style>
<polygon class="st0" points="479.4,118.2 252,227.5 23.4,117.1 251.3,9.3 "/>
<path class="st1" d="M111.8,88.4h12.1v22.7l21.4-22.7h15L138.9,110l23.5,33.1h-15.1l-16.5-24.6l-6.9,7v17.6h-12.1V88.4z"/>
<path class="st1" d="M167.2,88.4h12l22.8,36.7h0.1V88.4h11.3v54.7h-12.1l-22.8-36.7h-0.2v36.7H167L167.2,88.4L167.2,88.4z"/>
<path class="st1" d="M224.1,88.4h12.1v54.7h-12.1V88.4z"/>
<path class="st1" d="M246.7,88.4h24.7c13.7,0,19,8.7,19,17.6s-5.3,17.6-19,17.6h-12.7v19.5h-12.1L246.7,88.4L246.7,88.4z
	 M258.8,114.2h9.4c5.6,0,10.6-1.2,10.6-8.2s-5-8.2-10.6-8.2h-9.4V114.2z"/>
<path class="st1" d="M297.9,88.4h41v10.1h-29v11.7h26.6v9.4h-26.6V133h29.6v10.1h-41.6V88.4L297.9,88.4z"/>
<path class="st1" d="M361.1,114.5l-17.7-26.1h14l10.8,17.5l11.1-17.5h13.2l-17.6,26.2l19.1,28.5h-14.3l-12-18.9l-12.2,18.9h-13.6
	L361.1,114.5z"/>
<path class="st0" d="M403.8,46.7c-6.8,0-12.7,5.2-12.7,12.9c0,7.4,5.3,12.9,12.7,12.9c6.8,0,12.6-5.1,12.6-12.9
	S410.6,46.7,403.8,46.7z M403.8,70.2c-6.1,0-9.9-4.7-9.9-10.6c0-6.2,4.3-10.6,9.9-10.6c5.5,0,9.9,4.4,9.8,10.6
	C413.6,65.9,409.3,70.2,403.8,70.2z"/>
<path class="st0" d="M409.6,56.8c0-2.9-1.8-4.1-5.2-4.1H399V67h2.3v-6.1h2.2l3.7,6.1h2.7l-4-6.3C408,60.5,409.6,59.4,409.6,56.8z
	 M403.9,59h-2.6v-4.2h2.8c1.4,0,3.1,0.2,3.1,1.9C407.2,58.7,405.7,58.9,403.9,59L403.9,59z"/>
</svg>
