<?xml version="1.0" encoding="utf-8"?>
<!-- Generator: Adobe Illustrator 21.0.2, SVG Export Plug-In . SVG Version: 6.00 Build 0)  -->
<svg version="1.1" id="Calque_1" xmlns="http://www.w3.org/2000/svg" xmlns:xlink="http://www.w3.org/1999/xlink" x="0px" y="0px"
	 viewBox="0 0 500 238" style="enable-background:new 0 0 500 238;" xml:space="preserve">
<style type="text/css">
	.st0{fill:#010202;}
	.st1{fill-rule:evenodd;clip-rule:evenodd;fill:#E12726;}
</style>
<polyline class="st0" points="26,176.3 26,227.2 52.3,227.2 51.3,220.7 32.9,220.7 32.9,176.3 "/>
<polyline class="st0" points="59.4,176.3 59.4,227.2 87.5,227.2 87.5,220.9 66.3,220.9 66.3,203.8 83.3,203.8 82.2,197.4 
	66.3,197.4 66.3,182.7 86.8,182.7 86.8,176.3 "/>
<path class="st0" d="M110,227.2H95.5v-50.9h14.8c17.7,0,26.8,10.5,26.8,25.4C137,216.8,127.5,227.2,110,227.2 M110.5,182.6h-8V221
	h7.8c12.3,0,19.6-6.2,19.6-19.2C129.9,189,122.1,182.6,110.5,182.6"/>
<polyline class="st0" points="161.3,227.2 161.3,176.3 168.2,176.3 168.2,220.7 186.6,220.7 187.5,227.2 "/>
<rect x="195" y="176.3" class="st0" width="6.9" height="50.9"/>
<path class="st0" d="M236.2,228.2c-16.2,0-24.8-10.6-24.8-26.3c0-15.8,9-26.5,24.2-26.5c6.8,0,11.5,1.7,15.5,4.4l-1.1,7.1
	c-3.8-3-8.5-5.1-14.5-5.1c-11.1,0-17,7.8-17,20.1c0,12.2,6,20,17.6,20c4.4,0,7.4-0.9,10.3-2.5v-13.5h-11.7l-1-6.3h19.6v23.8
	C249.1,226,242.9,228.2,236.2,228.2"/>
<polyline class="st0" points="296.4,227.2 296.4,203.8 270.7,203.8 270.7,227.2 263.8,227.2 263.8,176.3 270.7,176.3 270.7,197.4 
	296.4,197.4 296.4,176.3 303.4,176.3 303.4,227.2 "/>
<polyline class="st0" points="333.9,182.7 333.9,227.2 327,227.2 327,182.7 310.7,182.7 310.7,176.3 349.6,176.3 350.6,182.7 "/>
<rect x="358" y="176.3" class="st0" width="6.9" height="50.9"/>
<polyline class="st0" points="410.8,227.2 382.8,187.6 382.8,227.2 376.4,227.2 376.4,176.3 382.6,176.3 409.6,214.5 409.6,176.3 
	416,176.3 416,227.2 "/>
<path class="st0" d="M449.8,228.2c-16.2,0-24.8-10.6-24.8-26.3c0-15.8,9-26.5,24.2-26.5c6.8,0,11.5,1.7,15.5,4.4l-1.1,7.1
	c-3.8-3-8.5-5.1-14.5-5.1c-11.1,0-17,7.8-17,20.1c0,12.2,6,20,17.6,20c4.4,0,7.4-0.9,10.3-2.5v-13.5h-11.7l-1-6.3H467v23.8
	C462.7,226,456.6,228.2,449.8,228.2"/>
<polyline class="st1" points="391.4,9.8 417.3,9.8 417.3,73.9 442.8,41.8 471.3,41.8 440.7,79.8 474,121.4 442.6,121.4 417.3,89.3 
	417.3,121.4 391.4,121.4 "/>
<polyline class="st1" points="26,13.2 51.9,13.2 51.9,57.2 86.9,13.2 118.8,13.2 78.3,63.8 120.8,121.4 86.9,121.4 51.9,73.2 
	51.9,121.4 26,121.4 "/>
<path class="st1" d="M157.6,39.2c28.4,0,43.7,18.9,43.7,42.2c0,23.3-15,42.2-43.7,42.2c-28.7,0-43.7-18.9-43.7-42.2
	C113.9,58.1,129.1,39.2,157.6,39.2 M157.6,59.2c12.9,0,19.8,9.9,19.8,22.2c0,12.2-6.8,22.2-19.8,22.2c-13,0-19.8-9.9-19.8-22.2
	C137.8,69.2,144.7,59.2,157.6,59.2"/>
<path class="st1" d="M251.8,39.2c7,0,13.5,1.9,18.4,5V9.8H295v71.6c0,23.3-14.7,42.2-43.2,42.2c-28.5,0-43.4-18.9-43.4-42.2
	C208.4,58.1,223.6,39.2,251.8,39.2 M251.8,59.2c12.8,0,19.7,9.9,19.7,22.2c0,12.2-6.8,22.2-19.7,22.2c-12.9,0-19.7-9.9-19.7-22.2
	C232.1,69.2,239,59.2,251.8,59.2"/>
<path class="st1" d="M302.7,94.9c0-20.2,14.2-25.4,37.2-25.4h18.6c0-9.3-6.4-12.3-18.4-12.3c-10.5,0-20,2-24.1,4.6V42.9
	c7-3,19.5-4,28.5-4c23.4,0,36.2,9.6,36.2,32l0,23.4c0,16.5-15.2,29.4-38.4,29.4C317,123.6,302.7,112.8,302.7,94.9 M324.8,93.8
	c0-6.7,5.7-8.6,15.7-8.6h18v8.4c0,5.6-6.5,10-16.6,10C331,103.6,324.8,100.1,324.8,93.8"/>
</svg>
