<?xml version="1.0" encoding="utf-8"?>
<!-- Generator: Adobe Illustrator 19.1.0, SVG Export Plug-In . SVG Version: 6.00 Build 0)  -->
<svg version="1.1" id="Calque_1" xmlns="http://www.w3.org/2000/svg" xmlns:xlink="http://www.w3.org/1999/xlink" x="0px" y="0px"
	 viewBox="-345 170.9 500 500" style="enable-background:new -345 170.9 500 500;" xml:space="preserve">
<path d="M-303.4,377h11l-8.3,44.1l0.5-0.1c3.2-3.8,6.2-7,9-10.1l31.9-33.9h14l-38.2,39l23.3,51.6h-12.1l-19.8-44.5l-10.9,10.1
	l-6.6,34.4h-11L-303.4,377z"/>
<path d="M-169.8,412.6c0,15.7-5.8,33.1-16.5,43.8c-7.9,7.9-18.6,12.6-31.1,12.6c-23.4,0-34.3-17.6-34.3-36.9
	c0-16,6.2-33.6,17.2-44.5c7.8-7.5,19-12.2,30.4-12.2C-179.6,375.5-169.8,393.3-169.8,412.6z M-226.2,393.9
	c-8.7,8.7-13.7,24.7-13.7,37.4c0,14.8,6.6,28.4,24.3,28.4c7.7,0,15.1-3.4,20.7-9c8.5-8.6,13.4-24.9,13.4-37.5
	c0-12.9-4.2-28.2-24.1-28.2C-213.6,384.9-220.6,388.4-226.2,393.9z"/>
<path d="M-147,378.3c5-1.2,12.2-2,19.6-2c8.7,0,17.1,2.2,22.2,7c4.3,3.9,6.6,9.3,6.6,16.4c0,10.1-5,18.7-10.9,23.7
	c-7,5.9-17.2,8.6-27.4,8.6c-3.5,0-6.5-0.3-9.3-0.7l-6.9,36.3h-11L-147,378.3z M-144.5,421.9c3.1,0.7,5.8,0.9,9,0.9
	c15.3,0,25.6-9.5,25.6-22.3c0-10.9-7.7-15.2-18-15.2c-4.4,0-7.8,0.4-9.8,0.9L-144.5,421.9z"/>
<path d="M-78.8,378.3c5.5-1.3,13-2,19.8-2c9,0,16.8,2.2,21.7,6.6c4.2,3.6,6.7,8.7,6.7,14.9c0,13.3-10.1,23.1-21.5,26.4l-0.1,0.3
	c6.5,2.2,9.4,8.9,10.1,18.2c0.9,12.6,1.6,21.4,2.8,25H-51c-0.5-1.9-1.5-11.4-2.2-21.9c-0.7-12.5-5.2-17.6-14.3-17.6h-9.9l-7.4,39.5
	h-11.2L-78.8,378.3z M-75.6,419.5h10c14.1,0,23.3-9.3,23.3-20.2c0-9.7-7.3-14.1-17.5-14.1c-4.4,0-7.3,0.4-9.4,0.9L-75.6,419.5z"/>
<path d="M-6.4,439l-14.4,28.6h-11.8L14.4,377h13L40,467.6H28.6L24.8,439H-6.4z M24,430.1l-3.5-26.2c-0.5-4.7-1.2-11.4-1.6-16.7h-0.3
	c-2.4,5.4-4.7,11-7.4,16.5l-13.6,26.4H24z"/>
<path d="M51.6,467.6L68.8,377h12.2l20.7,51.4c4,10.2,6.1,17.5,7.9,25.3l0.3-0.1c0.5-8.2,1.5-15.7,3.9-28.4L123,377h10.5l-17.2,90.6
	h-11l-20.7-51.2c-4.3-11.2-6.3-17.5-8.3-26.1l-0.4,0.1c-0.9,8.5-2.4,17.5-4.7,29.9l-9,47.3L51.6,467.6L51.6,467.6z"/>
</svg>
