<?xml version="1.0" encoding="utf-8"?>
<!-- Generator: Adobe Illustrator 21.0.2, SVG Export Plug-In . SVG Version: 6.00 Build 0)  -->
<svg version="1.1" id="Calque_1" xmlns="http://www.w3.org/2000/svg" xmlns:xlink="http://www.w3.org/1999/xlink" x="0px" y="0px"
	 viewBox="0 0 500 392" style="enable-background:new 0 0 500 392;" xml:space="preserve">
<style type="text/css">
	.st0{fill:#1D1D1B;}
	.st1{fill:#00B4EC;}
</style>
<path class="st0" d="M280.4,264.5c26.5,8.2,67,16.3,96.6,16.3c50.9,0,102.1-17,102.1-51.4c0-24.4-26.2-36.3-62.4-41.3l-19.4-2.7
	c-6.5-1-17.1-1.7-17.1-7.1c0-5.9,10.9-7.6,18.4-7.6c18.4,0,35,4.8,49.6,10.9l23.1-36.9c-23.1-8.6-47.7-12.6-74.6-12.6
	c-51.2,0-102.1,19.1-102.1,53.3c0,22.5,28.1,34.6,61.5,38.2l17.2,1.9c7.8,1,19,1.5,19,8c0,6.5-13.5,8.6-21.9,8.6
	c-19.6,0-36.6-5.9-51.9-13.2L280.4,264.5z"/>
<polygon class="st0" points="20.8,279.8 198,279.8 174.4,232.7 108,232.7 108,133 20.8,133 "/>
<path class="st1" d="M325.8,232.2c-38,38.2-81.9,50.9-107.8,50.9c-18.5,0-55.9-4.7-55.9-36.7c0-32,64.9-60.2,64.9-60.2
	s-34.9,2.1-34.9-16.1c-1.2-29,95.1-41.9,95.1-41.9l-10,13.6c-27.4,0-58.8,13-58.8,24.4c0,14,43.6,7.7,43.6,7.7l4.5,7.1
	c-102.3,44-96.3,86.7-48.5,86.7c47.8,0,100.7-38.8,100.7-38.8S323.5,231,325.8,232.2"/>
<path class="st1" d="M215.8,12c-4.9,0.3-9.7,0.7-14.5,1.2l32.9,115.1L215.8,12z"/>
<polygon class="st1" points="180.3,67.2 164.9,70.1 219.9,132.1 "/>
<polygon class="st1" points="212.7,371.1 225.6,380 230.6,297.3 "/>
</svg>
