<?xml version="1.0" encoding="utf-8"?>
<!-- Generator: Adobe Illustrator 15.0.0, SVG Export Plug-In . SVG Version: 6.00 Build 0)  -->
<!DOCTYPE svg PUBLIC "-//W3C//DTD SVG 1.1//EN" "http://www.w3.org/Graphics/SVG/1.1/DTD/svg11.dtd">
<svg version="1.1" id="Calque_1" xmlns="http://www.w3.org/2000/svg" xmlns:xlink="http://www.w3.org/1999/xlink" x="0px" y="0px"
	 width="500px" height="500px" viewBox="0 0 500 500" enable-background="new 0 0 500 500" xml:space="preserve">
<g>
	<polygon fill="#BBBB9C" points="262.035,280.176 133.343,280.176 192.571,228.259 321.264,228.259 	"/>
	<polygon fill="#BBBB9C" points="420.708,280.176 292.015,280.176 351.243,228.259 479.937,228.259 	"/>
	<polygon fill="#9E3C2E" points="151.918,347.447 22.929,347.447 127.127,259.113 256.115,259.113 	"/>
	<polygon fill="#9E3C2E" points="312.123,347.447 183.135,347.447 287.333,259.113 416.322,259.113 	"/>
	<g>
		<path fill="#0D0909" d="M204.186,169.027V206.6h11.662v9.401h-24.189v-46.974H204.186z"/>
		<path fill="#0D0909" d="M240.831,169.027l9.825,46.974h-11.288l-1.462-8.443h-8.166l-1.462,8.443H217.17l10.256-46.974H240.831z
			 M236.057,199.23c-0.67-5.32-1.344-11.896-2.018-19.729c-1.351,8.995-2.197,15.571-2.544,19.729H236.057z"/>
		<path fill="#0D0909" d="M298.989,185.727h-12.526v-4.409c0-2.374-0.134-3.855-0.401-4.444c-0.268-0.588-0.857-0.883-1.771-0.883
			c-1.032,0-1.686,0.358-1.964,1.074c-0.277,0.716-0.416,2.263-0.416,4.642v21.819c0,2.282,0.139,3.772,0.416,4.468
			c0.278,0.696,0.902,1.044,1.875,1.044c0.933,0,1.542-0.349,1.83-1.047c0.287-0.698,0.431-2.336,0.431-4.916v-5.904h12.526v1.831
			c0,4.862-0.352,8.311-1.056,10.344c-0.704,2.034-2.262,3.816-4.672,5.347c-2.41,1.53-5.38,2.295-8.911,2.295
			c-3.67,0-6.694-0.648-9.074-1.944c-2.381-1.295-3.958-3.09-4.732-5.382c-0.772-2.292-1.16-5.74-1.16-10.344v-13.724
			c0-3.385,0.119-5.923,0.357-7.616c0.238-1.692,0.946-3.322,2.127-4.889c1.181-1.567,2.817-2.8,4.91-3.7
			c2.092-0.899,4.497-1.349,7.215-1.349c3.689,0,6.734,0.695,9.136,2.086c2.399,1.391,3.977,3.125,4.73,5.202
			c0.753,2.076,1.13,5.306,1.13,9.691V185.727z"/>
		<path fill="#0D0909" d="M304.334,169.027h8.867c5.911,0,9.913,0.222,12.006,0.667c2.093,0.445,3.799,1.582,5.118,3.409
			c1.318,1.828,1.979,4.744,1.979,8.748c0,3.656-0.466,6.112-1.398,7.37s-2.768,2.012-5.505,2.263
			c2.479,0.6,4.146,1.403,4.999,2.408c0.853,1.006,1.383,1.93,1.592,2.771c0.208,0.842,0.312,3.158,0.312,6.949v12.389h-11.635
			v-11.019c0-2.514,0.703-4.347-0.502-6.458c-0.358-0.629-3.271-1.428-4.997-1.428v18.905h-10.836V169.027z M314.911,178.039v10.933
			c2.761,0,4.694-0.197,5.803-0.592c1.108-0.396,1.661-1.676,1.661-3.842v-2.703c0-1.559-0.534-2.582-1.604-3.068
			C319.702,178.282,317.748,178.039,314.911,178.039z"/>
		<path fill="#0D0909" d="M368.702,196.533c0,4.72-0.114,8.061-0.342,10.024c-0.229,1.963-0.942,3.757-2.143,5.382
			s-2.821,2.872-4.864,3.743c-2.043,0.87-4.424,1.306-7.142,1.306c-2.579,0-4.895-0.411-6.947-1.233
			c-2.054-0.822-3.705-2.055-4.954-3.699c-1.25-1.644-1.993-3.433-2.232-5.368c-0.237-1.934-0.356-5.319-0.356-10.155v-8.037
			c0-4.719,0.114-8.061,0.342-10.024c0.228-1.963,0.942-3.757,2.143-5.382c1.2-1.625,2.822-2.873,4.865-3.743
			c2.043-0.87,4.423-1.305,7.141-1.305c2.579,0,4.895,0.411,6.947,1.233c2.054,0.823,3.705,2.055,4.954,3.699
			c1.25,1.645,1.994,3.434,2.232,5.367c0.238,1.935,0.356,5.32,0.356,10.155V196.533z M356.176,181.097
			c0-2.185-0.124-3.583-0.372-4.192c-0.248-0.609-0.759-0.914-1.532-0.914c-0.654,0-1.155,0.247-1.502,0.74
			c-0.348,0.493-0.521,1.949-0.521,4.366v21.935c0,2.728,0.113,4.41,0.342,5.048c0.228,0.638,0.758,0.958,1.592,0.958
			c0.853,0,1.398-0.368,1.637-1.103c0.237-0.735,0.356-2.485,0.356-5.252V181.097z"/>
		<path fill="#0D0909" d="M385.656,169.027v46.974H373.13v-46.974H385.656z"/>
		<path fill="#0D0909" d="M416.74,183.244h-11.634v-3.481c0-1.625-0.148-2.66-0.446-3.104s-0.794-0.668-1.487-0.668
			c-0.755,0-1.325,0.3-1.711,0.9c-0.388,0.601-0.581,1.51-0.581,2.729c0,1.568,0.217,2.749,0.652,3.542
			c0.415,0.794,1.595,1.751,3.54,2.872c5.576,3.228,9.088,5.876,10.536,7.946c1.448,2.07,2.172,5.406,2.172,10.009
			c0,3.347-0.401,5.813-1.205,7.399c-0.804,1.586-2.355,2.916-4.656,3.989c-2.302,1.074-4.979,1.61-8.033,1.61
			c-3.353,0-6.215-0.619-8.585-1.856c-2.37-1.238-3.922-2.815-4.656-4.729c-0.734-1.915-1.102-4.632-1.102-8.153v-3.076h11.635
			v5.716c0,1.76,0.163,2.892,0.49,3.395c0.328,0.503,0.908,0.754,1.741,0.754s1.453-0.319,1.859-0.958s0.61-1.586,0.61-2.843
			c0-2.766-0.387-4.574-1.161-5.426c-0.793-0.851-2.747-2.273-5.86-4.265c-3.115-2.011-5.178-3.472-6.189-4.381
			c-1.012-0.909-1.85-2.166-2.514-3.772c-0.665-1.605-0.997-3.656-0.997-6.151c0-3.598,0.471-6.229,1.413-7.892
			c0.941-1.663,2.464-2.964,4.567-3.902c2.102-0.938,4.642-1.407,7.616-1.407c3.254,0,6.025,0.512,8.317,1.537
			c2.291,1.026,3.808,2.317,4.552,3.874s1.116,4.202,1.116,7.935V183.244z"/>
		<path fill="#0D0909" d="M421.707,169.027h24.736v9.4h-12.209v8.907h11.673v8.937h-11.673V206.6h13.042v9.401h-25.569V169.027z
			 M447.636,155.419l-11.447,9.194h-7.063l6.124-9.194H447.636z"/>
		<path fill="#0D0909" d="M452.418,169.027h24.736v9.4h-12.209v8.907h11.673v8.937h-11.673V206.6h13.042v9.401h-25.569V169.027z"/>
	</g>
	<path fill="#FFFFFF" d="M200.94,279.431c-1.151-2.631-4.138-4.487-8.89-5.52c-3.5-0.753-9.137-1.117-17.235-1.117h-37.416
		l-68.653,58.201h38.431c7.313,0,13.529-0.405,19.017-1.24c7.301-1.126,14.049-2.736,20.054-4.785
		c7.766-2.646,15.485-6.131,22.942-10.354c6.045-3.425,11.903-7.531,17.412-12.2c6.236-5.288,10.505-9.82,12.689-13.479
		C201.511,285.219,202.067,282.019,200.94,279.431z M147.209,285.723h5.263c9.177,0,12.749,0.259,14.154,0.478
		c2.513,0.378,4.05,1.064,4.695,2.103c0.655,1.042,0.375,2.559-0.832,4.508c-1.273,2.059-4.305,5.128-9.015,9.121
		c-4.729,4.009-9.069,7.184-12.898,9.439c-3.576,2.104-6.675,3.592-9.226,4.426c-2.614,0.854-5.435,1.473-8.402,1.844
		c-1.663,0.213-4.936,0.464-11.103,0.464h-10.834L147.209,285.723z"/>
	<path fill="#FFFFFF" d="M334.016,304.333c0.335-2.669-1.091-4.799-4.24-6.329c-3.013-1.466-8.406-2.83-16.485-4.168
		c-9.616-1.594-11.847-2.767-12.317-3.325c-0.491-0.576-0.311-1.17,0.579-1.925c0.987-0.837,2.175-1.412,3.969-1.919
		c3.858-1.095,8.268-1.649,13.103-1.649c4.615,0,7.434,0.494,8.38,1.468c0.918,0.946,0.311,2.627-1.803,4.993l-1.473,1.649
		l25.927-0.648l2.101-1.874c6.308-5.629,8.152-10.208,5.482-13.612c-2.631-3.352-10.366-5.052-22.997-5.052
		c-7.682,0-15.207,0.702-22.364,2.086c-7.41,1.433-14.387,3.565-20.735,6.341c-6.331,2.764-11.448,5.783-15.215,8.977
		c-5.826,4.939-7.529,9.176-5.065,12.596c1.735,2.406,6.957,4.346,15.962,5.927c6.494,1.145,10.608,1.945,12.211,2.373
		c2.541,0.702,3.205,1.389,3.315,1.837c0.141,0.579-0.287,1.28-1.307,2.145c-1.735,1.471-4.396,2.75-8.14,3.912
		c-3.966,1.231-8.69,1.855-14.046,1.855c-4.998,0-8.111-0.715-9.256-2.125c-1.153-1.42-0.316-3.765,2.489-6.974l1.501-1.718
		l-26.514,1.417l-1.877,1.919c-6.534,6.676-8.415,11.861-5.586,15.413c2.814,3.539,10.689,5.332,23.402,5.332
		c8.614,0,16.829-0.731,24.418-2.175c7.873-1.498,15.425-3.83,22.443-6.931c6.964-3.075,12.609-6.429,16.78-9.965
		C331.206,310.327,333.682,307.014,334.016,304.333z"/>
</g>
</svg>
