<?xml version="1.0" encoding="utf-8"?>
<!-- Generator: Adobe Illustrator 21.0.2, SVG Export Plug-In . SVG Version: 6.00 Build 0)  -->
<svg version="1.1" id="Calque_1" xmlns="http://www.w3.org/2000/svg" xmlns:xlink="http://www.w3.org/1999/xlink" x="0px" y="0px"
	 viewBox="0 0 500 224" style="enable-background:new 0 0 500 224;" xml:space="preserve">
<style type="text/css">
	.st0{fill:#BBBB9C;}
	.st1{fill:#9E3C2E;}
	.st2{fill:#0D0909;}
	.st3{fill:#FFFFFF;}
</style>
<polygon class="st0" points="262,142.2 133.3,142.2 192.6,90.2 321.3,90.2 "/>
<polygon class="st0" points="420.7,142.2 292,142.2 351.2,90.2 479.9,90.2 "/>
<polygon class="st1" points="151.9,209.4 22.9,209.4 127.1,121.1 256.1,121.1 "/>
<polygon class="st1" points="312.1,209.4 183.1,209.4 287.3,121.1 416.3,121.1 "/>
<path class="st2" d="M204.2,31v37.6h11.7V78h-24.2V31H204.2L204.2,31z"/>
<path class="st2" d="M240.8,31l9.8,47h-11.3l-1.5-8.4h-8.2l-1.5,8.4H217l10.3-47H240.8z M236.1,61.2c-0.7-5.3-1.3-11.9-2-19.7
	c-1.4,9-2.2,15.6-2.5,19.7H236.1z"/>
<path class="st2" d="M299,47.7h-12.5v-4.4c0-2.4-0.1-3.9-0.4-4.4c-0.3-0.6-0.9-0.9-1.8-0.9c-1,0-1.7,0.4-2,1.1
	c-0.3,0.7-0.4,2.3-0.4,4.6v21.8c0,2.3,0.1,3.8,0.4,4.5c0.3,0.7,0.9,1,1.9,1c0.9,0,1.5-0.3,1.8-1s0.4-2.3,0.4-4.9v-5.9H299V61
	c0,4.9-0.4,8.3-1.1,10.3c-0.7,2-2.3,3.8-4.7,5.3c-2.4,1.5-5.4,2.3-8.9,2.3c-3.7,0-6.7-0.6-9.1-1.9c-2.4-1.3-4-3.1-4.7-5.4
	c-0.8-2.3-1.2-5.7-1.2-10.3V47.6c0-3.4,0.1-5.9,0.4-7.6c0.2-1.7,0.9-3.3,2.1-4.9c1.2-1.6,2.8-2.8,4.9-3.7c2.1-0.9,4.5-1.3,7.2-1.3
	c3.7,0,6.7,0.7,9.1,2.1c2.4,1.4,4,3.1,4.7,5.2c0.8,2.1,1.1,5.3,1.1,9.7v0.6H299z"/>
<path class="st2" d="M304.3,31h8.9c5.9,0,9.9,0.2,12,0.7c2.1,0.4,3.8,1.6,5.1,3.4c1.3,1.8,2,4.7,2,8.7c0,3.7-0.5,6.1-1.4,7.4
	s-2.8,2-5.5,2.3c2.5,0.6,4.1,1.4,5,2.4s1.4,1.9,1.6,2.8c0.2,0.8,0.3,3.2,0.3,6.9V78h-11.6V67c0-2.5,0.7-4.3-0.5-6.5
	c-0.4-0.6-3.3-1.4-5-1.4V78h-10.8V31H304.3z M314.9,40v10.9c2.8,0,4.7-0.2,5.8-0.6c1.1-0.4,1.7-1.7,1.7-3.8v-2.7
	c0-1.6-0.5-2.6-1.6-3.1C319.7,40.3,317.7,40,314.9,40z"/>
<path class="st2" d="M368.7,58.5c0,4.7-0.1,8.1-0.3,10c-0.2,2-0.9,3.8-2.1,5.4c-1.2,1.6-2.8,2.9-4.9,3.7c-2,0.9-4.4,1.3-7.1,1.3
	c-2.6,0-4.9-0.4-6.9-1.2c-2.1-0.8-3.7-2.1-5-3.7c-1.2-1.6-2-3.4-2.2-5.4c-0.2-1.9-0.4-5.3-0.4-10.2v-8c0-4.7,0.1-8.1,0.3-10
	c0.2-2,0.9-3.8,2.1-5.4c1.2-1.6,2.8-2.9,4.9-3.7s4.4-1.3,7.1-1.3c2.6,0,4.9,0.4,6.9,1.2c2.1,0.8,3.7,2.1,5,3.7
	c1.2,1.6,2,3.4,2.2,5.4c0.2,1.9,0.4,5.3,0.4,10.2V58.5L368.7,58.5z M356.2,43.1c0-2.2-0.1-3.6-0.4-4.2c-0.2-0.6-0.8-0.9-1.5-0.9
	c-0.7,0-1.2,0.2-1.5,0.7c-0.3,0.5-0.5,1.9-0.5,4.4V65c0,2.7,0.1,4.4,0.3,5c0.2,0.6,0.8,1,1.6,1c0.9,0,1.4-0.4,1.6-1.1
	c0.2-0.7,0.4-2.5,0.4-5.3V43.1L356.2,43.1z"/>
<path class="st2" d="M385.7,31v47h-12.6V31H385.7z"/>
<path class="st2" d="M416.7,45.2h-11.6v-3.5c0-1.6-0.1-2.7-0.4-3.1c-0.3-0.4-0.8-0.7-1.5-0.7c-0.8,0-1.3,0.3-1.7,0.9
	s-0.6,1.5-0.6,2.7c0,1.6,0.2,2.7,0.7,3.5c0.4,0.8,1.6,1.8,3.5,2.9c5.6,3.2,9.1,5.9,10.5,7.9c1.4,2.1,2.2,5.4,2.2,10
	c0,3.3-0.4,5.8-1.2,7.4c-0.8,1.6-2.4,2.9-4.7,4c-2.3,1.1-5,1.6-8,1.6c-3.4,0-6.2-0.6-8.6-1.9c-2.4-1.2-3.9-2.8-4.7-4.7
	c-0.7-1.9-1.1-4.6-1.1-8.2v-3.1h11.6v5.7c0,1.8,0.2,2.9,0.5,3.4s0.9,0.8,1.7,0.8c0.8,0,1.5-0.3,1.9-1c0.4-0.6,0.6-1.6,0.6-2.8
	c0-2.8-0.4-4.6-1.2-5.4c-0.8-0.9-2.7-2.3-5.9-4.3c-3.1-2-5.2-3.5-6.2-4.4s-1.9-2.2-2.5-3.8c-0.7-1.6-1-3.7-1-6.2
	c0-3.6,0.5-6.2,1.4-7.9c0.9-1.7,2.5-3,4.6-3.9s4.6-1.4,7.6-1.4c3.3,0,6,0.5,8.3,1.5c2.3,1,3.8,2.3,4.6,3.9c0.7,1.6,1.1,4.2,1.1,7.9
	L416.7,45.2L416.7,45.2z"/>
<polygon class="st2" points="434.2,58.2 445.9,58.2 445.9,49.3 434.2,49.3 434.2,40.4 446.4,40.4 446.4,31 421.7,31 421.7,77.9 
	447.2,77.9 447.2,68.5 434.2,68.5 "/>
<polygon class="st2" points="447.6,17.4 435.2,17.4 429.1,26.6 436.2,26.6 "/>
<path class="st2" d="M452.4,31h24.7v9.4h-12.2v8.9h11.7v8.9h-11.7v10.3h13v9.4h-25.6L452.4,31L452.4,31z"/>
<path class="st3" d="M200.9,141.4c-1.2-2.6-4.1-4.5-8.9-5.5c-3.5-0.8-9.1-1.1-17.2-1.1h-37.4L68.7,193h38.4c7.3,0,13.5-0.4,19-1.2
	c7.3-1.1,14-2.7,20.1-4.8c7.8-2.6,15.5-6.1,22.9-10.4c6-3.4,11.9-7.5,17.4-12.2c6.2-5.3,10.5-9.8,12.7-13.5
	C201.5,147.2,202.1,144,200.9,141.4z M147.2,147.7h5.3c9.2,0,12.7,0.3,14.2,0.5c2.5,0.4,4.1,1.1,4.7,2.1c0.7,1,0.4,2.6-0.8,4.5
	c-1.3,2.1-4.3,5.1-9,9.1s-9.1,7.2-12.9,9.4c-3.6,2.1-6.7,3.6-9.2,4.4c-2.6,0.9-5.4,1.5-8.4,1.8c-1.7,0.2-4.9,0.5-11.1,0.5h-11
	L147.2,147.7z"/>
<path class="st3" d="M334,166.3c0.3-2.7-1.1-4.8-4.2-6.3c-3-1.5-8.4-2.8-16.5-4.2c-9.6-1.6-11.8-2.8-12.3-3.3
	c-0.5-0.6-0.3-1.2,0.6-1.9c1-0.8,2.2-1.4,4-1.9c3.9-1.1,8.3-1.6,13.1-1.6c4.6,0,7.4,0.5,8.4,1.5c0.9,0.9,0.3,2.6-1.8,5l-1.5,1.6
	l25.9-0.6l2.1-1.9c6.3-5.6,8.2-10.2,5.5-13.6c-2.6-3.4-10.4-5.1-23-5.1c-7.7,0-15.2,0.7-22.4,2.1c-7.4,1.4-14.4,3.6-20.7,6.3
	c-6.3,2.8-11.4,5.8-15.2,9c-5.8,4.9-7.5,9.2-5.1,12.6c1.7,2.4,7,4.3,16,5.9c6.5,1.1,10.6,1.9,12.2,2.4c2.5,0.7,3.2,1.4,3.3,1.8
	c0.1,0.6-0.3,1.3-1.3,2.1c-1.7,1.5-4.4,2.8-8.1,3.9c-4,1.2-8.7,1.9-14,1.9c-5,0-8.1-0.7-9.3-2.1c-1.2-1.4-0.3-3.8,2.5-7l1.5-1.7
	l-26.5,1.4l-1.9,1.9c-6.5,6.7-8.4,11.9-5.6,15.4s10.7,5.3,23.4,5.3c8.6,0,16.8-0.7,24.4-2.2c7.9-1.5,15.4-3.8,22.4-6.9
	s12.6-6.4,16.8-10C331.2,172.3,333.7,169,334,166.3z"/>
</svg>
