<?xml version="1.0" encoding="utf-8"?>
<!-- Generator: Adobe Illustrator 21.0.2, SVG Export Plug-In . SVG Version: 6.00 Build 0)  -->
<svg version="1.1" id="Calque_1" xmlns="http://www.w3.org/2000/svg" xmlns:xlink="http://www.w3.org/1999/xlink" x="0px" y="0px"
	 viewBox="0 0 478 112" style="enable-background:new 0 0 478 112;" xml:space="preserve">
<style type="text/css">
	.st0{fill:#1733AA;}
</style>
<polygon class="st0" points="98.5,35.9 43.7,35.9 40.1,42.9 94.8,42.9 "/>
<polygon class="st0" points="88.8,54 34.1,54 30.4,61 85.1,61 "/>
<polygon class="st0" points="65.6,78.8 75.6,78.8 79.3,71.8 24.6,71.8 20.9,78.8 58.4,78.8 52.3,90.3 116.5,81.8 62.5,84.6 "/>
<polygon class="st0" points="126,71.9 104.6,71.9 120.8,42.5 129.5,35.9 99.9,35.9 105.1,43.3 89.4,71.9 81.3,78.8 85.6,78.8 
	92.7,78.8 100.8,78.8 130.7,78.8 137.4,66 "/>
<path class="st0" d="M189.6,72.5l2.3-29.2l9.7-7.6h-9.1h-15.7l0,0h-11.2l5.6,7.5l-38.3,35.5h23.9l-5.2-6.8l4.2-4.4h18l-0.3,3.9
	l-8.9,7.3h8.4v0.1h16.3v-0.1h5.2L189.6,72.5z M162.2,60.5l13.1-13.8l-1.1,13.8H162.2z"/>
<polygon class="st0" points="325.7,42.7 333.8,35.8 306.3,35.8 288,57.2 290.2,35.6 264.2,35.6 269.4,43.3 253.1,71.4 244,78.6 
	267.3,78.6 262.3,71.3 278.4,43 276,72.4 281.4,72.4 310.3,43.2 294.6,71.8 286.3,78.6 314.5,78.6 309.4,71.8 "/>
<polygon class="st0" points="342.7,71.7 348.7,60.8 363.1,60.8 365.5,65 373.3,50 367,54.2 352.2,54.2 358.5,42.7 385.1,42.7 
	389.3,49.7 396.5,35.8 337.8,35.8 342.5,42.8 327.5,71.5 318.7,78.6 373.3,78.6 380.3,65.6 369.8,71.9 "/>
<polygon class="st0" points="421.6,35.9 427.6,24.6 363.4,33.1 417.4,30.2 414.4,35.9 405.2,35.9 401.6,42.9 456.3,42.9 460,35.9 
	"/>
<polygon class="st0" points="391.9,61 446.7,61 450.3,54 395.6,54 "/>
<polygon class="st0" points="382.5,78.5 437.3,78.5 440.8,71.8 386.1,71.8 "/>
<path class="st0" d="M212.2,59.9c5.1-14.6,23.5-18,32-16.7c8.4,1.3,8.1,9.5,8.1,9.5l9.5-16.7c0,0-2.9,1.6-8.7,4.8
	c-1.9-3-6.5-6.7-24.2-2.9c-17.6,3.8-34.3,18.4-34.5,26.4s6.5,13.5,21.3,14.5s24.6-4.1,32-15.6C236.9,72.4,207.1,74.5,212.2,59.9z"/>
</svg>
