<?xml version="1.0" encoding="utf-8"?>
<!-- Generator: Adobe Illustrator 19.1.0, SVG Export Plug-In . SVG Version: 6.00 Build 0)  -->
<svg version="1.1" id="Calque_1" xmlns="http://www.w3.org/2000/svg" xmlns:xlink="http://www.w3.org/1999/xlink" x="0px" y="0px"
	 viewBox="-345 170.9 500 500" style="enable-background:new -345 170.9 500 500;" xml:space="preserve">
<path d="M-309.1,389h8.2l-11.4,59.5h26.9l-1.4,7.1h-35L-309.1,389z"/>
<path d="M-239.8,424.3H-264l-4.5,24.3h27.3l-1.4,7h-35.5l12.6-66.6h34l-1.4,7h-25.7l-4.1,21.3h24.2L-239.8,424.3z"/>
<path d="M-201.1,389h8.2l-11.4,59.5h26.9l-1.4,7.1h-35L-201.1,389z"/>
<path d="M-112.7,415.2c0,11.6-4.2,24.3-12.2,32.2c-5.8,5.8-13.6,9.3-22.8,9.3c-17.2,0-25.2-12.9-25.2-27.1
	c0-11.8,4.5-24.7,12.6-32.7c5.7-5.5,13.9-9,22.3-9C-119.9,387.9-112.7,401-112.7,415.2z M-154.2,401.5c-6.4,6.4-10.1,18.2-10.1,27.5
	c0,10.9,4.8,20.8,17.9,20.8c5.6,0,11.1-2.5,15.2-6.6c6.2-6.3,9.9-18.3,9.9-27.6c0-9.5-3.1-20.7-17.7-20.7
	C-144.9,394.9-150,397.4-154.2,401.5z"/>
<path d="M-96,390c4-1,9.6-1.5,14.5-1.5c6.6,0,12.3,1.6,15.9,4.8c3.1,2.7,4.9,6.4,4.9,11c0,9.8-7.4,17-15.8,19.4l-0.1,0.2
	c4.7,1.6,6.9,6.5,7.4,13.3c0.7,9.3,1.2,15.7,2.1,18.4h-8.5c-0.4-1.4-1.1-8.4-1.6-16.1c-0.5-9.2-3.9-12.9-10.5-12.9h-7.3l-5.4,29
	h-8.2L-96,390z M-93.6,420.2h7.3c10.4,0,17.1-6.8,17.1-14.8c0-7.1-5.3-10.4-12.8-10.4c-3.3,0-5.3,0.3-6.9,0.7L-93.6,420.2z"/>
<path d="M-44.3,390c4-1,9.6-1.5,14.5-1.5c6.6,0,12.3,1.6,15.9,4.8c3.1,2.7,4.9,6.4,4.9,11c0,9.8-7.4,17-15.8,19.4l-0.1,0.2
	c4.7,1.6,6.9,6.5,7.4,13.3c0.7,9.3,1.2,15.7,2.1,18.4h-8.5c-0.4-1.4-1.1-8.4-1.6-16.1c-0.5-9.2-3.9-12.9-10.5-12.9h-7.3l-5.4,29
	h-8.2L-44.3,390z M-42,420.2h7.3c10.4,0,17.1-6.8,17.1-14.8c0-7.1-5.3-10.4-12.8-10.4c-3.3,0-5.3,0.3-6.9,0.7L-42,420.2z"/>
<path d="M8.9,434.6l-10.6,21h-8.7L24.1,389h9.6l9.3,66.6h-8.4l-2.8-21H8.9z M31.2,428.1l-2.6-19.3c-0.4-3.5-0.9-8.4-1.2-12.2h-0.2
	c-1.8,3.9-3.5,8.1-5.4,12.1l-10,19.4L31.2,428.1L31.2,428.1z"/>
<path d="M72.2,389l-12.6,66.6h-8.2L64,389L72.2,389L72.2,389z"/>
<path d="M74.5,455.6L87.1,389h9l15.2,37.7c3,7.5,4.4,12.8,5.8,18.6l0.2-0.1c0.4-6,1.1-11.6,2.9-20.8l6.7-35.4h7.7L122,455.6h-8.1
	L98.7,418c-3.2-8.2-4.6-12.8-6.1-19.2l-0.3,0.1c-0.7,6.2-1.8,12.8-3.5,21.9l-6.6,34.8L74.5,455.6L74.5,455.6z"/>
</svg>
