<?xml version="1.0" encoding="utf-8"?>
<!-- Generator: Adobe Illustrator 21.0.2, SVG Export Plug-In . SVG Version: 6.00 Build 0)  -->
<svg version="1.1" id="Calque_1" xmlns="http://www.w3.org/2000/svg" xmlns:xlink="http://www.w3.org/1999/xlink" x="0px" y="0px"
	 viewBox="0 0 500 118" style="enable-background:new 0 0 500 118;" xml:space="preserve">
<path d="M35.9,27.1h8.2L32.7,86.6h26.9l-1.4,7.1h-35L35.9,27.1z"/>
<path d="M105.2,62.4H81l-4.5,24.3h27.3l-1.4,7H66.9l12.6-66.6h34l-1.4,7H86.4l-4.1,21.3h24.2L105.2,62.4z"/>
<path d="M143.9,27.1h8.2l-11.4,59.5h26.9l-1.4,7.1h-35L143.9,27.1z"/>
<path d="M232.3,53.3c0,11.6-4.2,24.3-12.2,32.2c-5.8,5.8-13.6,9.3-22.8,9.3c-17.2,0-25.2-12.9-25.2-27.1c0-11.8,4.5-24.7,12.6-32.7
	c5.7-5.5,13.9-9,22.3-9C225.1,26,232.3,39.1,232.3,53.3z M190.8,39.6c-6.4,6.4-10.1,18.2-10.1,27.5c0,10.9,4.8,20.8,17.9,20.8
	c5.6,0,11.1-2.5,15.2-6.6c6.2-6.3,9.9-18.3,9.9-27.6c0-9.5-3.1-20.7-17.7-20.7C200.1,33,195,35.5,190.8,39.6z"/>
<path d="M249,28.1c4-1,9.6-1.5,14.5-1.5c6.6,0,12.3,1.6,15.9,4.8c3.1,2.7,4.9,6.4,4.9,11c0,9.8-7.4,17-15.8,19.4l-0.1,0.2
	c4.7,1.6,6.9,6.5,7.4,13.3c0.7,9.3,1.2,15.7,2.1,18.4h-8.5c-0.4-1.4-1.1-8.4-1.6-16.1c-0.5-9.2-3.9-12.9-10.5-12.9H250l-5.4,29h-8.2
	L249,28.1z M251.4,58.3h7.3c10.4,0,17.1-6.8,17.1-14.8c0-7.1-5.3-10.4-12.8-10.4c-3.3,0-5.3,0.3-6.9,0.7L251.4,58.3z"/>
<path d="M300.7,28.1c4-1,9.6-1.5,14.5-1.5c6.6,0,12.3,1.6,15.9,4.8c3.1,2.7,4.9,6.4,4.9,11c0,9.8-7.4,17-15.8,19.4l-0.1,0.2
	c4.7,1.6,6.9,6.5,7.4,13.3c0.7,9.3,1.2,15.7,2.1,18.4h-8.5c-0.4-1.4-1.1-8.4-1.6-16.1c-0.5-9.2-3.9-12.9-10.5-12.9h-7.3l-5.4,29
	h-8.2L300.7,28.1z M303,58.3h7.3c10.4,0,17.1-6.8,17.1-14.8c0-7.1-5.3-10.4-12.8-10.4c-3.3,0-5.3,0.3-6.9,0.7L303,58.3z"/>
<path d="M353.9,72.7l-10.6,21h-8.7l34.5-66.6h9.6l9.3,66.6h-8.4l-2.8-21H353.9z M376.2,66.2l-2.6-19.3c-0.4-3.5-0.9-8.4-1.2-12.2
	h-0.2c-1.8,3.9-3.5,8.1-5.4,12.1l-10,19.4H376.2L376.2,66.2z"/>
<path d="M417.2,27.1l-12.6,66.6h-8.2L409,27.1H417.2L417.2,27.1z"/>
<path d="M419.5,93.7l12.6-66.6h9l15.2,37.7c3,7.5,4.4,12.8,5.8,18.6l0.2-0.1c0.4-6,1.1-11.6,2.9-20.8l6.7-35.4h7.7L467,93.7h-8.1
	l-15.2-37.6c-3.2-8.2-4.6-12.8-6.1-19.2l-0.3,0.1c-0.7,6.2-1.8,12.8-3.5,21.9l-6.6,34.8L419.5,93.7L419.5,93.7z"/>
</svg>
