<?xml version="1.0" encoding="utf-8"?>
<!-- Generator: Adobe Illustrator 15.0.0, SVG Export Plug-In . SVG Version: 6.00 Build 0)  -->
<!DOCTYPE svg PUBLIC "-//W3C//DTD SVG 1.1//EN" "http://www.w3.org/Graphics/SVG/1.1/DTD/svg11.dtd">
<svg version="1.1" id="Calque_1" xmlns="http://www.w3.org/2000/svg" xmlns:xlink="http://www.w3.org/1999/xlink" x="0px" y="0px"
	 width="500px" height="500px" viewBox="0 0 500 500" enable-background="new 0 0 500 500" xml:space="preserve">
<path d="M35.86,218.145h8.197l-11.358,59.466h26.868l-1.383,7.109H23.216L35.86,218.145z"/>
<path d="M105.198,253.408h-24.2l-4.543,24.301h27.261l-1.383,7.012H66.874l12.644-66.576h33.978l-1.38,7.011H86.432l-4.05,21.338
	h24.2L105.198,253.408z"/>
<path d="M143.915,218.145h8.198l-11.359,59.466h26.868l-1.384,7.109h-34.967L143.915,218.145z"/>
<path d="M232.318,244.319c0,11.559-4.248,24.301-12.151,32.204c-5.826,5.825-13.63,9.286-22.816,9.286
	c-17.188,0-25.188-12.943-25.188-27.064c0-11.757,4.544-24.696,12.643-32.697c5.731-5.534,13.928-8.99,22.323-8.99
	C225.106,217.057,232.318,230.095,232.318,244.319z M190.831,230.591c-6.419,6.42-10.078,18.174-10.078,27.46
	c0,10.865,4.843,20.841,17.881,20.841c5.629,0,11.063-2.468,15.21-6.617c6.223-6.322,9.881-18.272,9.881-27.558
	c0-9.483-3.062-20.743-17.685-20.743C200.117,223.973,194.978,226.539,190.831,230.591z"/>
<path d="M249.012,219.13c4.048-0.985,9.582-1.478,14.52-1.478c6.617,0,12.348,1.58,15.903,4.84c3.062,2.665,4.938,6.42,4.938,10.964
	c0,9.779-7.406,16.987-15.806,19.36l-0.099,0.196c4.742,1.581,6.917,6.52,7.41,13.334c0.689,9.286,1.187,15.706,2.073,18.374h-8.493
	c-0.395-1.383-1.089-8.396-1.58-16.101c-0.493-9.187-3.855-12.938-10.473-12.938h-7.307l-5.436,29.039h-8.197L249.012,219.13z
	 M251.381,249.359h7.312c10.373,0,17.089-6.818,17.089-14.819c0-7.11-5.337-10.37-12.841-10.37c-3.26,0-5.336,0.295-6.916,0.69
	L251.381,249.359z"/>
<path d="M300.671,219.13c4.048-0.985,9.58-1.478,14.521-1.478c6.616,0,12.348,1.58,15.901,4.84c3.063,2.665,4.939,6.42,4.939,10.964
	c0,9.779-7.407,16.987-15.805,19.36l-0.099,0.196c4.742,1.581,6.916,6.52,7.41,13.334c0.69,9.286,1.187,15.706,2.072,18.374h-8.493
	c-0.394-1.383-1.088-8.396-1.581-16.101c-0.492-9.187-3.854-12.938-10.471-12.938h-7.308l-5.436,29.039h-8.197L300.671,219.13z
	 M303.04,249.359h7.31c10.375,0,17.09-6.818,17.09-14.819c0-7.11-5.336-10.37-12.84-10.37c-3.261,0-5.336,0.295-6.917,0.69
	L303.04,249.359z"/>
<path d="M353.907,263.682l-10.568,21.039h-8.693l34.475-66.576h9.58l9.286,66.576h-8.395l-2.768-21.039H353.907z M376.233,257.163
	l-2.568-19.265c-0.395-3.457-0.891-8.395-1.187-12.246h-0.197c-1.777,3.949-3.456,8.1-5.431,12.147l-9.979,19.363H376.233z"/>
<path d="M417.223,218.145l-12.644,66.576h-8.197l12.643-66.576H417.223z"/>
<path d="M419.493,284.721l12.645-66.576h8.99l15.209,37.733c2.964,7.505,4.445,12.841,5.828,18.571l0.197-0.103
	c0.395-6.021,1.088-11.555,2.865-20.841l6.716-35.361h7.706l-12.644,66.576h-8.1l-15.213-37.635
	c-3.161-8.198-4.644-12.841-6.125-19.163l-0.297,0.098c-0.689,6.224-1.776,12.841-3.456,21.929l-6.617,34.77H419.493z"/>
</svg>
