<?xml version="1.0" encoding="utf-8"?>
<!-- Generator: Adobe Illustrator 19.1.0, SVG Export Plug-In . SVG Version: 6.00 Build 0)  -->
<svg version="1.1" id="Calque_1" xmlns="http://www.w3.org/2000/svg" xmlns:xlink="http://www.w3.org/1999/xlink" x="0px" y="0px"
	 viewBox="-345 170.9 500 500" style="enable-background:new -345 170.9 500 500;" xml:space="preserve">
<style type="text/css">
	.st0{fill:#0D0909;}
	.st1{fill:#FFCE00;}
</style>
<rect x="-311.9" y="204.2" class="st0" width="436.7" height="436.3"/>
<path class="st1" d="M-249.7,435.1c-11.4-18.1-17.8-38.6-17.8-60.4c0-73,72.4-132.2,161.7-132.2c81.6,0,155.8,48.6,160.1,113.6
	c1.3,20-1.4,29.3-1.4,29.3c-11.9,35.1-47.7,57.2-92.2,61.9l25.2-53l6.6-26.2l-11.8-3.4l-13.4,19.9l-24.7,44.8l-2.6-73.7l-9.4-8.1
	c0,0,0,0,0-1.3c3.9-2.1,10-11,11.3-19.7c1.3-8.7,7.3-55.1,7.3-55.1h-3.7L-78,317.7h-2.6l1.3-46.4h-3.9c0,0-15.7,38.6-21,51.7
	s-0.3,23.3-0.3,23.3l-3.4,4.7h-8.1l-59.8,99.4c0,0,1-28.8,1-55.3s-16.3-35.4-16.3-35.4l-10,35.9l-2.6,79.5l-14.2-34.4l-11.3,2.1
	l20.5,71.6c0,0,22.3,12.3,30.9-1.8C-169,498.4-96.1,376-96.1,376l5.2-2.1l8.1,119.9c0.1,5.1-0.6,9.6,13.5,8.2
	C18.2,492.8,85.4,436,85.4,367.4c0-75-80.3-135.7-179.4-135.7s-179.4,60.8-179.4,135.7c0,26.7,10.2,51.6,27.8,72.6"/>
<path class="st1" d="M-276.4,569.8c0,0-6.1-0.7-8.7,0.8c-2.5,1.4-2.5,5.9-2.5,5.9l-4.3,39.5h10.4h10.8l1-9.6h-10.7L-276.4,569.8z"/>
<path class="st1" d="M-249.4,569.6L-249.4,569.6L-249.4,569.6c-1.7,0.1-3.4,0.3-4.5,0.9c-2.5,1.4-2.5,5.9-2.5,5.9l-4.3,39.5h10.4
	h10.8l1-9.6h-10.7l0.9-8.1h8.8l1-9.6h-8.8l1-9.4h11.1l1-9.6h-13.2C-247.9,569.6-248.7,569.6-249.4,569.6z"/>
<path class="st1" d="M-183.7,569.7L-183.7,569.7L-183.7,569.7c-1.7,0.1-3.3,0.3-4,0.8c-2.5,1.6-2.5,6-2.5,6l-0.3,2.5h0.1l-0.1,0.1
	h8.5l-4,36.8h10.4l4.1-36.8h7.6l1-9.4H-179C-179,569.7-181.4,569.6-183.7,569.7z"/>
<path class="st1" d="M-207.5,569.6c-2.1-0.1-5.1-0.1-6.5,1c-2,1.5-3.3,5.9-3.3,5.9l-14.8,39.5h11.2l2.9-8.5h11.5l0.8,8.5h11.2
	l-7.8-46.2C-202.4,569.8-205,569.4-207.5,569.6z M-214.8,597.6l5.7-17l1.5,17H-214.8z"/>
<path class="st1" d="M-102.8,569.6L-102.8,569.6L-102.8,569.6c-1.7,0.1-3.4,0.3-4.5,0.9c-2.5,1.4-2.5,5.9-2.5,5.9l-4.3,39.5h10.4
	H-93l1.1-9.6h-10.7l0.9-8.1h8.8l1.1-9.6h-8.8l1-9.4h11.1l1-9.6h-13.2C-101.3,569.6-102.1,569.6-102.8,569.6z"/>
<path class="st1" d="M31.9,569.6c-2.1-0.1-5.1-0.1-6.5,1c-2,1.5-3.3,5.9-3.3,5.9L7.2,615.9h11.2l2.9-8.5h11.5l0.8,8.5h11.2L37,569.8
	C37,569.8,34.4,569.4,31.9,569.6z M24.6,597.6l5.7-17l1.5,17H24.6z"/>
<path class="st1" d="M-18.6,596.2l-7.6-26.4c0,0-6.1-0.7-8.7,0.8s-2.5,5.9-2.5,5.9l-4.3,39.5h10.4l2.2-20l5.1,19.6l-0.1,0.5h0.3h5.2
	h0.3l0.1-0.6l9-17.4l-1.8,18h11l4.7-46.4h-11L-18.6,596.2z"/>
<path class="st1" d="M80.3,569.6l-2.5,24.7l-10.7-23.5l0.1-1.1c0,0-0.2,0-0.6-0.1l0-0.1l-0.1,0.1c-1.7-0.1-5.9-0.3-7.9,0.9
	c-2.5,1.4-2.5,5.9-2.5,5.9l-4.3,39.5h10.4l2.8-25.1l10.7,25.2h9.6l4.7-46.4L80.3,569.6L80.3,569.6z"/>
<path class="st1" d="M-135.2,588.1h-10.5l2-18.4c0,0-6.1-0.7-8.7,0.8c-2.5,1.4-2.5,5.9-2.5,5.9l-4.3,39.5h10.4l2-18h10.6l-1.8,18.1
	h11l4.7-46.4h-11L-135.2,588.1z"/>
<path class="st1" d="M-59.2,569.8c0,0-3.2,0-5.9,0c0,0-6.1-0.7-8.7,0.8c-2.5,1.4-2.5,5.9-2.5,5.9l-4.3,39.5h10.4l1.6-14.4l6.3,14.3
	h10.5l-7.3-16.7c1.1-0.4,2.3-0.8,3.4-1.5c4.3-2.8,6.4-9.3,6.6-14.7C-49.1,577.5-49.8,570.7-59.2,569.8z M-66.1,578.6
	c0.3,0,1.3,0,2.2,0c1,0,4.9,0.4,4.9,6c0,5.6-5.1,6.3-6.2,6.3c-0.8,0-1.8,0-2.2,0L-66.1,578.6z"/>
</svg>
