<?xml version="1.0" encoding="utf-8"?>
<!-- Generator: Adobe Illustrator 15.0.0, SVG Export Plug-In . SVG Version: 6.00 Build 0)  -->
<!DOCTYPE svg PUBLIC "-//W3C//DTD SVG 1.1//EN" "http://www.w3.org/Graphics/SVG/1.1/DTD/svg11.dtd">
<svg version="1.1" id="Calque_1" xmlns="http://www.w3.org/2000/svg" xmlns:xlink="http://www.w3.org/1999/xlink" x="0px" y="0px"
	 width="500px" height="500px" viewBox="0 0 500 500" enable-background="new 0 0 500 500" xml:space="preserve">
<g>
	<g>
		<path fill="#455BA3" d="M90.449,162.793c0,0-6.528-1.083-13.873,0.587c-4.844,1.101-12.845,5.872-12.845,5.872L42.005,288.159
			h25.249h49.325v-17.616H70.513L90.449,162.793z"/>
		<path fill="#455BA3" d="M170.452,193.621c-24.762,0-49.5,21.689-55.256,48.444c-5.754,26.754,9.041,46.909,34.816,47.819
			c9.358,0.33,28.956-2.532,32.406-7.45c-0.146-5.505-6.058-9.311-6.058-9.311c-5.038,2.668-10.492,4.179-15.98,4.179
			c-5.929,0-11.158-1.763-15.373-4.844c-7.653-5.656-11.313-11.973-8.881-25.99h6.726l60.837,0.164
			c0.454-1.503,0.848-3.027,1.179-4.566C210.624,215.31,195.215,193.621,170.452,193.621z M181.53,233.271l-41.31-0.253
			c7.251-16.695,20.795-28.327,31.316-25.904C180.216,209.112,183.754,220.041,181.53,233.271z"/>
		<path fill="#455BA3" d="M303.822,161.912c-4.845,1.101-10.202,5.873-10.202,5.873l-6.257,34.671
			c-5.674-5.559-13.289-8.834-22.223-8.834c-23.024,0-46.028,21.689-51.379,48.444c-5.351,26.754,8.978,48.443,32.002,48.443
			c9.613,0,19.215-3.789,27.538-10.139l-1.407,7.79h22.606l23.194-126.834C317.694,161.325,311.166,160.242,303.822,161.912z
			 M275.826,266.364c-46.193,28.54-42.026-12.284-40.487-24.153c1.542-11.891,11.01-33.47,27.525-33.47
			c14.333,0,20.537,6.301,21.925,7.965L275.826,266.364z"/>
		<path fill="#455BA3" d="M399.167,216.888c0,0,7.267-22.9-27.305-23.341c-25.764,0.22-32.81,6.826-32.81,6.826
			c-1.321,4.184,4.403,11.45,7.707,12.331c0,0,19.157-7.707,27.744-2.422c6.606,4.184,0,21.58,0,21.58s-53.067-5.945-63.856,27.084
			c-10.79,33.029,33.249,41.397,59.232,19.157c3.523,8.367,11.671,13.212,11.671,13.212l12.991-11.891
			c0,0-10.129-6.386-7.267-13.433C390.139,258.946,399.167,216.888,399.167,216.888z M368.339,265.992
			c-1.101,5.505-22.02,18.276-32.148,7.707c-10.13-10.569-2.423-32.589,36.332-29.947L368.339,265.992z"/>
	</g>
	<path fill="#A5C7F9" d="M14.996,341.887c8.669-3.792,17.58-7.026,26.558-10.045c8.984-3.014,18.087-5.674,27.25-8.134
		c9.176-2.408,18.434-4.527,27.752-6.39c9.318-1.865,18.717-3.339,28.155-4.56c18.876-2.469,37.987-3.411,57.097-2.791
		c4.778,0.153,9.553,0.462,14.32,0.883c2.384,0.21,4.766,0.445,7.146,0.718l7.059,0.822c9.398,1.113,18.783,2.282,28.162,3.469
		l56.172,7.507c9.352,1.27,18.706,2.501,28.064,3.66l14.042,1.688c4.679,0.568,9.36,1.115,14.043,1.631
		c9.365,1.046,18.743,1.918,28.125,2.707c9.381,0.79,18.775,1.379,28.175,1.669c9.398,0.335,18.807,0.314,28.187-0.286
		c4.688-0.305,9.366-0.784,14.006-1.547c4.642-0.741,9.246-1.787,13.717-3.333c-8.655,3.896-18.111,5.769-27.505,7.067
		c-9.429,1.263-18.936,1.755-28.429,1.991c-18.995,0.315-37.964-0.624-56.853-2.109c-4.724-0.364-9.443-0.76-14.16-1.177
		c-4.715-0.433-9.426-0.915-14.133-1.4c-9.415-0.978-18.819-2.027-28.216-3.114c-18.782-2.247-37.521-4.729-56.256-7.098
		c-9.359-1.246-18.717-2.474-28.076-3.646l-7.012-0.863c-2.313-0.279-4.63-0.523-6.951-0.743c-4.641-0.442-9.296-0.751-13.956-1.02
		c-9.322-0.502-18.68-0.585-28.035-0.313c-9.354,0.302-18.711,0.873-28.049,1.752c-9.341,0.87-18.65,2.121-27.942,3.527
		c-9.292,1.416-18.545,3.128-27.757,5.065c-9.225,1.89-18.39,4.088-27.518,6.46c-4.566,1.185-9.112,2.443-13.643,3.768
		C23.996,339.006,19.482,340.395,14.996,341.887z"/>
	<path fill="#A5C7F9" d="M423.829,308.711c-0.584-1.775-1.026-3.599-1.389-5.438c-0.379-1.839-0.644-3.701-0.838-5.577
		c-0.413-3.751-0.438-7.569-0.017-11.399c0.44-3.819,1.354-7.685,3.104-11.312c1.72-3.62,4.379-6.995,7.829-9.36l3.581-2.455
		l0.421,4.383c0.49,5.105,1.199,10.181,2.317,15.141c1.087,4.964,2.577,9.817,4.646,14.381c2.075,4.551,4.793,8.806,8.432,12.239
		c3.609,3.466,8.218,5.924,13.31,7.325c-2.642-0.038-5.304-0.496-7.88-1.338c-2.557-0.882-5.044-2.11-7.276-3.727
		c-4.502-3.211-8.013-7.676-10.626-12.47c-2.63-4.813-4.407-9.994-5.696-15.229c-1.249-5.25-2.012-10.58-2.352-15.919l4.001,1.928
		c-1.354,0.889-2.59,1.955-3.695,3.169c-1.1,1.221-2.062,2.591-2.899,4.064c-1.655,2.959-2.804,6.307-3.572,9.784
		c-0.787,3.479-1.185,7.092-1.42,10.741C423.623,301.296,423.61,304.989,423.829,308.711z"/>
	<path fill="#A5C7F9" d="M458.62,294.911c-2.15-2.181-3.964-4.625-5.589-7.182c-1.619-2.562-3.036-5.259-4.222-8.082
		c-1.187-2.823-2.118-5.783-2.704-8.88c-0.566-3.091-0.771-6.372-0.079-9.695l4.166,1.813c-0.879,0.991-1.751,1.99-2.585,3.019
		c-0.842,1.021-1.655,2.067-2.43,3.145c-0.783,1.074-1.511,2.188-2.188,3.347c-0.669,1.165-1.302,2.369-1.691,3.726
		c-0.349-1.401-0.22-2.889-0.009-4.32c0.232-1.438,0.649-2.836,1.148-4.196c0.509-1.357,1.123-2.668,1.803-3.939
		c0.691-1.263,1.441-2.49,2.255-3.668l4.899-7.091l-0.734,8.904c-0.21,2.551,0.115,5.264,0.629,7.984
		c0.513,2.729,1.27,5.469,2.071,8.227C454.977,283.551,456.943,289.059,458.62,294.911z"/>
	<path fill="#A5C7F9" d="M473.594,258.799c-1.918-0.676-3.838-1.258-5.733-1.736c-1.887-0.456-3.807-0.812-5.494-0.741
		c-0.83,0.031-1.594,0.187-2.05,0.465c-0.233,0.135-0.379,0.28-0.483,0.423c-0.051,0.074-0.092,0.15-0.128,0.231l-0.004,0.008
		c0.027-0.035-0.068,0.089,0.062-0.077l-0.024,0.04c-0.013,0.023-0.038,0.062-0.042,0.073c0.062-0.06,0.127-0.173,0.148-0.195
		c0.055-0.085,0.108-0.195,0.141-0.299c0.109-0.471,0.041-0.492,0.192-0.321c0.13,0.16,0.362,0.43,0.638,0.701
		c0.553,0.558,1.264,1.152,1.975,1.764c2.936,2.423,6.169,4.975,9.154,7.821c1.51,1.416,2.948,2.932,4.353,4.499
		c1.387,1.585,2.696,3.258,3.93,5.004c1.209,1.763,2.326,3.608,3.317,5.533c0.962,1.938,1.823,3.942,2.488,6.021
		c1.337,4.15,1.98,8.546,1.812,12.858c-0.021,0.554-0.04,1.046-0.094,1.645l-0.096,0.877c-0.043,0.297-0.084,0.586-0.14,0.875
		c-0.21,1.156-0.52,2.273-0.933,3.333c-0.803,2.127-1.939,4.029-3.232,5.735c-1.308,1.7-2.774,3.215-4.363,4.551
		c-1.581,1.339-3.282,2.517-5.101,3.449c2.492-3.201,4.634-6.539,6.113-9.989c0.74-1.717,1.287-3.464,1.572-5.173
		c0.133-0.857,0.224-1.698,0.224-2.524c0.012-0.811-0.092-1.622-0.182-2.574c-0.795-7.327-3.676-14.043-7.899-20.101
		c-1.036-1.529-2.177-3.005-3.373-4.456c-1.177-1.467-2.45-2.874-3.738-4.296c-1.289-1.422-2.646-2.805-4.004-4.235
		c-1.373-1.417-2.761-2.852-4.162-4.42c-0.707-0.787-1.395-1.618-2.094-2.612c-0.347-0.505-0.699-1.048-1.031-1.771
		c-0.164-0.366-0.322-0.776-0.429-1.306c-0.104-0.519-0.154-1.176,0.011-1.884c0.081-0.348,0.212-0.697,0.383-1.002
		c0.07-0.138,0.209-0.352,0.335-0.52l0.219-0.252c0.283-0.301,0.599-0.576,0.935-0.816c0.674-0.478,1.424-0.805,2.142-0.968
		c1.447-0.335,2.725-0.206,3.868,0.032c2.281,0.519,4.171,1.486,5.947,2.572C470.49,256.133,472.115,257.392,473.594,258.799z"/>
</g>
</svg>
