<?xml version="1.0" encoding="utf-8"?>
<!-- Generator: Adobe Illustrator 21.0.2, SVG Export Plug-In . SVG Version: 6.00 Build 0)  -->
<svg version="1.1" id="Calque_1" xmlns="http://www.w3.org/2000/svg" xmlns:xlink="http://www.w3.org/1999/xlink" x="0px" y="0px"
	 viewBox="0 0 500 102" style="enable-background:new 0 0 500 102;" xml:space="preserve">
<style type="text/css">
	.st0{fill:#EF1406;}
</style>
<g>
	<polygon class="st0" points="70,81 41.1,81 27,66.4 27,21 40.5,21 40.4,69.4 69.9,69.1 	"/>
	<polygon class="st0" points="121.5,81 79,81 79,21 121.5,21 121.5,33.1 91.9,32.9 91.9,45.4 119.7,45.3 119.7,56.7 91.9,56.7 
		91.9,69.1 121.5,69.4 	"/>
	<path class="st0" d="M156.9,21h-25.5v14.2v31.5V81h25.5c16.6,0,30-13.4,30-30C186.9,34.4,173.4,21,156.9,21z M157.8,68.9h-13v-8.5
		V41.6v-8.5h13c8.4,0,15.2,8,15.2,17.9C173,60.9,166.2,68.9,157.8,68.9z"/>
	<rect x="194.5" y="21" class="st0" width="13.4" height="60"/>
	<polygon class="st0" points="272.4,81 261,81 232.5,43.4 232.2,81 219.1,81 219.1,21 231.4,21 259.4,57.7 259.5,21 272.4,21 	"/>
	<path class="st0" d="M315.8,21h-13l-25.5,60H291l5.1-13h25.7l4.9,13h13.6L315.8,21z M301,55.9l7.6-19.3l8.1,19.3H301z"/>
	<rect x="346.3" y="21" class="st0" width="13.4" height="60"/>
	<path class="st0" d="M408.1,59.9c6.3-2.7,13-5.3,13-18.3c0-16.6-12.5-20.1-17.5-20.1h-32.2V81h13.3l0-18.8h9.9L407.4,81h15.4
		L408.1,59.9z M398.9,50.6h-14.6V33.1h14.6c5.1,0,9.2,3.9,9.2,8.7C408.1,46.6,404,50.6,398.9,50.6z"/>
	<polygon class="st0" points="473,81 430,81 430,21.4 461.3,21.4 473,33 443.4,33 443.4,45.4 471.2,45.3 471.2,57.7 443.4,57.7 
		443.4,68.9 473,69.2 	"/>
</g>
</svg>
