<?xml version="1.0" encoding="utf-8"?>
<!-- Generator: Adobe Illustrator 21.0.2, SVG Export Plug-In . SVG Version: 6.00 Build 0)  -->
<svg version="1.1" id="Calque_1" xmlns="http://www.w3.org/2000/svg" xmlns:xlink="http://www.w3.org/1999/xlink" x="0px" y="0px"
	 viewBox="0 0 500 300" style="enable-background:new 0 0 500 300;" xml:space="preserve">
<style type="text/css">
	.st0{fill:#E32120;}
	.st1{fill:#FFFFFF;}
</style>
<polygon class="st0" points="22.8,137.8 242.8,10.7 461.7,138.3 241.8,265.4 "/>
<path class="st1" d="M192.2,163.7c-2.3,2.7-11.7,5.1-12.1-5.9c0,0,6.1,0.3,10.8-12.1s6.8-21.6-0.3-25.3c-7-3.7-11.6,5.5-13.5,10.2
	c-0.8,1.9-2.7,7.2-3.9,13.6c-1.5,4.6-4.6,12.2-9,14.6c-6.4,3.4-4.8-9.6-4.8-9.6s13.2-6.1,17.2-29.1c1.2-7.5-2.6-9.1-3.8-9.8
	c-12.1-6.4-20.4,22.5-21.1,34.8c-0.4,8.2-0.1,16.1,1.8,20.9c-5.9-0.7-11-1.5-12.6-2.6c3.4-14.9,9.2-50.5,9.2-62.8
	c0-6.9,1.1-7.7,2.7-9s3.8-8.8-14.2-8.6c-14.4,0-21.6,8.4-15.7,12.6c0,0-11.5,44-7.7,65.8c-1.9,6.5-1.5,19.5,11.1,19.9
	c9.2,0,12.2-4.2,12.2-4.2s23.7,2.7,37.9,0.8c3.2-0.8,4.7-3.4,4.4-5.8c4.8,2.3,16.3-4.3,16.9-9.1C198,160.5,194.5,161,192.2,163.7z
	 M187.6,130.4c2,1.9-3.8,17-6.1,15.2C180.4,144.6,185.5,129,187.6,130.4z M167.9,122.5c2,1.7-3.7,14.9-6,13.3
	C160.7,134.9,165.7,121.2,167.9,122.5z M166.6,167.2c0.7-0.6,1.5-1.3,2.2-2.1c1.9-2.2,3.3-3.8,4.3-4.9c0.6,2.7,1.6,5.2,3.1,7.4
	c-0.7-0.1-1.4-0.2-2.3-0.2C172,167.4,169.5,167.3,166.6,167.2z"/>
<path class="st1" d="M395.1,164.1c-1.3-3.7-5.7,0.4-12.1,2.3c-3.4,0.8-14.9,0.3-16.3-12.2c-1.4-12.5-1.4-20.4-1.4-23.2
	s-3.1-3.2-3.1-4.6s4-2.7,3.2-4.6c-0.8-1.9-11.2-1.7-12,6c-0.8,7.7,0.5,37-10.7,40.3c-5.7,1.7-6.3-11.5-6.3-11.5s12.4-3.8,14.3-24.1
	c0.6-12-1.4-15.4-3.3-16c-1.9-0.5-14.2,3.2-16.1,29.6c-1.4,17-0.6,26.9,9.6,27.8c10.2,0.9,15.6-15.4,17.1-29.8
	c0.5,0,0.8,0.3,1.8,8.2s5.9,23.5,20.5,21.7C386.7,173,396.5,169.5,395.1,164.1z M344.6,130.4c2,1.9-3.8,17-6.1,15.2
	C337.3,144.6,342.4,129,344.6,130.4z"/>
<path class="st1" d="M319.3,117.9c0,0,3.4-10-1.5-11.1c-10-2.5-8.6,12.1-9.2,20.7c-1.1,2.4-2.8,3.2-4.1,3.4c0-0.2-0.1-0.4-0.1-0.5
	c-4.4-16.7-11.9-8.6-13.6-5.9c-1.7,2.7-3.3,5.7-6.9,7.7c-2.5,1.3-5.7,0-5.7,0s-2.7-5.7-6.1-5.7s-14.5,8.8-16.8,35.6
	c0,0.8,0,1.5,0.1,2.2c-2.4,2.3-6.7,5.1-12.9,3.9c-10.1-1.9-7.3-25.3-6.1-38.1c1.2-12.8,7.3-27.4,10.7-26.4s4.2,18.9,2.3,25.5
	s0.4,9,2.1,9.4c2.7,0.6,11.3-7.8,11.5-29.5s-11.3-22.2-19.3-22.2c-5.9-0.4-10.3-1.9-12.6-1c-2.3,0.9-17.6,25.1-21.6,53
	s10.1,51.7,46.9,31.8c0.1-0.4,0.3-0.8,0.5-1.2c2.5,5.4,7.5,7.9,9.5,7.3c10.5-2.9,14-20.9,12.6-39c4.8,0.4,6.3-1,6.3-1
	c-3.8,5.2-11.5,39,3.4,41c12.5,1.6,17.5-24.1,16.9-39.7c0.3,0,0.8-0.1,1.5-0.1c-0.8,4.8-2.3,50.5-2.3,54s0.4,9,4.2,8.8
	s4.6-4.2,4.6-7.1s0-8,0-19.3c10.7-1.1,14.9-10,17.2-29.3C333.8,113.3,319.3,117.9,319.3,117.9z M266.8,164.4
	c-5.6,2.5,2.9-28.1,6.7-26.8C274.4,137.9,274.7,160.5,266.8,164.4z M291.1,166.6c-6.5,3.2,3.4-36.1,7.8-34.4
	C300,132.6,300.2,161.7,291.1,166.6z M316.3,164.1c-6.2,3.5,0.6-40.1,5.2-38.2C322.6,126.4,325.1,158.7,316.3,164.1z"/>
<path d="M262.7,262.3l11.1,17.3l2.7-27l11.4,18.8l3.2-25.5l4.3-2.5l-5.2,40.8L279,265.4l-2.7,26.7l-17.9-27.3L262.7,262.3z"/>
<path d="M299.3,258.6c-0.9-4.5-0.3-9.1,1.8-13.9c2.1-4.8,5.1-8.3,8.9-10.5s7.3-2.5,10.7-0.8c3.4,1.7,5.5,4.8,6.4,9.3
	c0.9,4.6,0.3,9.3-1.8,14c-2.1,4.8-5.1,8.3-9,10.6c-3.4,2-6.8,2.4-10.1,1.1C302.6,266.9,300.3,263.7,299.3,258.6z M303.3,256.3
	c0.7,3.5,2.2,5.8,4.7,7c2.4,1.1,4.9,0.9,7.5-0.5c2.8-1.6,4.9-4.1,6.4-7.6c1.5-3.4,1.9-6.9,1.2-10.2c-0.7-3.4-2.2-5.7-4.5-6.9
	c-2.3-1.2-4.9-1-7.7,0.6c-2.8,1.6-4.9,4.1-6.3,7.5C303.1,249.6,302.7,252.9,303.3,256.3z"/>
<path d="M341.5,236.8l10.9,8.8l-4.9,2.8l-10.1-8.6l-0.7,0.4l2.6,13l-4,2.3l-6.3-31.8l4.7-2.7c3.5-2,6.2-2.7,8.1-2
	c2.1,0.8,3.4,2.6,3.9,5.5c0.4,2.3,0.3,4.5-0.5,6.8C344.4,233.5,343.2,235.3,341.5,236.8z M335.8,236l1.3-0.7c3.8-2.2,5.3-5,4.7-8.5
	c-0.6-3.3-2.8-3.8-6.5-1.7l-1.4,0.8L335.8,236z"/>
<path d="M356.6,221.8l7.8-18.7l5.3-3.1l-9.2,21.4l15.5,10.4l-5.4,3.1l-12.3-8.6l-0.6,1.5l2.6,13.2l-4,2.3l-6.3-31.8l4-2.3
	L356.6,221.8z"/>
<path d="M374.7,197.1l11.1,17.3l2.7-27l11.4,18.8l3.2-25.5l4.3-2.5l-5.2,40.8L391,200.3l-2.7,26.7l-17.9-27.3L374.7,197.1z"/>
<path d="M426.2,172.2l-10.6,6.2l1.5,7.7l10.3-6l0.9,4.5l-10.3,6l2.1,10.6l10.6-6.2l0.9,4.5L417,208l-6.3-31.8l14.6-8.5L426.2,172.2z
	"/>
<path d="M450.9,179.7l-11.4,6.6l-1.4,9.5l-4.3,2.5l6.5-41.5l19.3,26.5l-4.4,2.5L450.9,179.7z M448.4,176.1l-6.1-8.5l-2,13.2
	L448.4,176.1z"/>
<path d="M469.2,162.5l10.9,8.8l-4.9,2.8l-10.1-8.6l-0.7,0.4l2.6,13l-4,2.3l-6.3-31.8l4.7-2.7c3.5-2,6.2-2.7,8.1-2
	c2.1,0.8,3.4,2.6,3.9,5.5c0.4,2.3,0.3,4.5-0.5,6.8C472.1,159.2,470.9,161,469.2,162.5z M463.5,161.8l1.3-0.7c3.8-2.2,5.3-5,4.7-8.5
	c-0.6-3.3-2.8-3.8-6.5-1.7l-1.4,0.8L463.5,161.8z"/>
</svg>
