<?xml version="1.0" encoding="utf-8"?>
<!-- Generator: Adobe Illustrator 15.0.0, SVG Export Plug-In . SVG Version: 6.00 Build 0)  -->
<!DOCTYPE svg PUBLIC "-//W3C//DTD SVG 1.1//EN" "http://www.w3.org/Graphics/SVG/1.1/DTD/svg11.dtd">
<svg version="1.1" id="Calque_1" xmlns="http://www.w3.org/2000/svg" xmlns:xlink="http://www.w3.org/1999/xlink" x="0px" y="0px"
	 width="500px" height="500px" viewBox="0 0 500 500" enable-background="new 0 0 500 500" xml:space="preserve">
<g>
	<polygon fill="#E32120" points="22.79,237.831 242.774,110.741 461.738,238.342 241.754,365.433 	"/>
	<g>
		<path fill="#FFFFFF" d="M192.244,263.734c-2.297,2.68-11.739,5.104-12.122-5.869c0,0,6.125,0.254,10.847-12.123
			c4.721-12.377,6.762-21.565-0.256-25.265s-11.611,5.488-13.525,10.208c-0.769,1.896-2.729,7.23-3.868,13.611
			c-1.524,4.568-4.641,12.224-9.021,14.589c-6.38,3.445-4.849-9.635-4.849-9.635s13.207-6.125,17.226-29.093
			c1.244-7.464-2.606-9.118-3.828-9.761c-12.123-6.38-20.417,22.458-21.054,34.836c-0.422,8.183-0.071,16.106,1.839,20.948
			c-5.914-0.654-11-1.536-12.558-2.574c3.445-14.93,9.187-50.53,9.187-62.78c0-6.89,1.148-7.656,2.68-8.996
			s3.828-8.805-14.164-8.613c-14.355,0-21.628,8.422-15.695,12.633c0,0-11.484,44.022-7.656,65.842
			c-1.914,6.508-1.531,19.522,11.101,19.905c9.188,0,12.25-4.211,12.25-4.211s23.734,2.68,37.897,0.766
			c3.201-0.753,4.73-3.357,4.415-5.811c4.773,2.285,16.289-4.274,16.895-9.118C197.986,260.545,194.541,261.055,192.244,263.734z
			 M187.649,230.442c2.027,1.895-3.84,17.046-6.123,15.152C180.356,244.622,185.492,228.985,187.649,230.442z M167.872,222.519
			c2.043,1.659-3.699,14.929-5.998,13.271C160.696,234.938,165.703,221.243,167.872,222.519z M166.642,267.213
			c0.719-0.611,1.467-1.298,2.25-2.075c1.945-2.188,3.307-3.767,4.266-4.909c0.583,2.677,1.582,5.207,3.113,7.438
			c-0.684-0.149-1.441-0.232-2.274-0.232C172.03,267.435,169.469,267.357,166.642,267.213z"/>
		<path fill="#FFFFFF" d="M395.13,264.117c-1.276-3.701-5.741,0.383-12.122,2.297c-3.445,0.766-14.93,0.255-16.333-12.25
			c-1.403-12.505-1.403-20.417-1.403-23.224s-3.062-3.19-3.062-4.594s3.955-2.68,3.189-4.593
			c-0.765-1.914-11.229-1.659-11.994,5.998s0.511,37.003-10.719,40.322c-5.742,1.659-6.253-11.484-6.253-11.484
			s12.378-3.828,14.292-24.117c0.638-11.994-1.403-15.439-3.317-15.95c-1.914-0.511-14.164,3.19-16.078,29.604
			c-1.403,16.971-0.638,26.924,9.57,27.816c10.208,0.894,15.567-15.439,17.099-29.858c0.511,0,0.765,0.256,1.786,8.167
			s5.87,23.478,20.544,21.691C386.708,273.049,396.533,269.476,395.13,264.117z M344.599,230.442
			c2.026,1.895-3.841,17.046-6.123,15.152C337.306,244.622,342.442,228.985,344.599,230.442z"/>
		<path fill="#FFFFFF" d="M319.271,217.861c0,0,3.445-9.953-1.531-11.102c-9.953-2.488-8.613,12.059-9.188,20.671
			c-1.092,2.402-2.805,3.183-4.076,3.412c-0.043-0.185-0.088-0.366-0.135-0.541c-4.402-16.652-11.866-8.613-13.589-5.934
			s-3.254,5.742-6.891,7.656c-2.501,1.316-5.742,0-5.742,0s-2.68-5.742-6.125-5.742s-14.547,8.805-16.844,35.601
			c-0.027,0.756-0.004,1.48,0.055,2.179c-2.377,2.331-6.652,5.12-12.878,3.946c-10.145-1.914-7.273-25.266-6.125-38.089
			s7.273-27.371,10.718-26.414c3.445,0.957,4.211,18.949,2.297,25.457c-1.914,6.508,0.383,8.996,2.106,9.379
			c2.721,0.604,11.292-7.848,11.483-29.476s-11.292-22.203-19.331-22.203c-5.934-0.383-10.336-1.914-12.633-0.957
			s-17.609,25.074-21.628,53.019s10.145,51.678,46.893,31.772c0.145-0.415,0.298-0.804,0.453-1.178
			c2.473,5.394,7.494,7.851,9.5,7.303c10.527-2.871,13.973-20.862,12.633-39.045c4.785,0.383,6.316-0.957,6.316-0.957
			c-3.828,5.167-11.484,39.045,3.445,40.959c12.521,1.605,17.501-24.118,16.863-39.686c0.338-0.028,0.818-0.068,1.511-0.125
			c-0.766,4.785-2.297,50.53-2.297,53.975s0.383,8.996,4.211,8.805s4.594-4.211,4.594-7.082s0-8.039,0-19.332
			c10.719-1.148,14.93-9.952,17.227-29.284C333.818,213.268,319.271,217.861,319.271,217.861z M266.826,264.372
			c-5.551,2.488,2.871-28.136,6.699-26.796C274.447,237.898,274.674,260.544,266.826,264.372z M291.065,266.627
			c-6.496,3.195,3.36-36.118,7.841-34.399C299.984,232.643,300.25,261.714,291.065,266.627z M316.316,264.119
			c-6.249,3.548,0.566-40.111,5.18-38.201C322.606,226.378,325.12,258.662,316.316,264.119z"/>
	</g>
	<g>
		<path d="M262.709,362.266l11.083,17.268l2.728-27.024l11.388,18.815l3.153-25.548l4.343-2.526l-5.196,40.755l-11.249-18.598
			l-2.673,26.718l-17.921-27.332L262.709,362.266z"/>
		<path d="M299.276,358.578c-0.881-4.483-0.269-9.129,1.834-13.937c2.094-4.803,5.053-8.314,8.876-10.539
			c3.777-2.196,7.336-2.459,10.676-0.786c3.351,1.668,5.473,4.777,6.366,9.327c0.899,4.579,0.3,9.256-1.798,14.031
			c-2.107,4.794-5.094,8.315-8.964,10.567c-3.423,1.99-6.776,2.355-10.06,1.094C302.587,366.933,300.277,363.68,299.276,358.578z
			 M303.323,356.293c0.691,3.521,2.245,5.841,4.66,6.966c2.403,1.129,4.887,0.947,7.451-0.543c2.782-1.618,4.9-4.139,6.359-7.561
			c1.453-3.448,1.85-6.852,1.191-10.206c-0.666-3.396-2.171-5.691-4.511-6.891c-2.331-1.218-4.883-1.021-7.652,0.591
			c-2.76,1.604-4.862,4.114-6.309,7.528C303.061,349.566,302.663,352.938,303.323,356.293z"/>
		<path d="M341.494,336.804l10.873,8.797l-4.895,2.847l-10.133-8.631l-0.722,0.42l2.561,13.035l-4,2.326l-6.255-31.843l4.687-2.726
			c3.504-2.037,6.189-2.719,8.057-2.045c2.063,0.762,3.378,2.586,3.945,5.474c0.443,2.255,0.285,4.507-0.473,6.755
			C344.383,333.461,343.167,335.326,341.494,336.804z M335.796,336.052l1.271-0.739c3.789-2.204,5.344-5.047,4.66-8.526
			c-0.64-3.257-2.804-3.814-6.489-1.671l-1.427,0.829L335.796,336.052z"/>
		<path d="M356.593,321.818l7.826-18.706l5.34-3.106l-9.154,21.386l15.478,10.417l-5.356,3.115l-12.331-8.616l-0.631,1.471
			l2.589,13.179l-4,2.327l-6.255-31.844l4-2.326L356.593,321.818z"/>
		<path d="M374.704,297.129l11.084,17.269l2.728-27.024l11.387,18.815l3.153-25.549l4.343-2.525l-5.195,40.755l-11.25-18.599
			l-2.672,26.718l-17.922-27.332L374.704,297.129z"/>
		<path d="M426.215,272.203l-10.631,6.182l1.503,7.653l10.321-6.002l0.887,4.515l-10.319,6.002l2.09,10.644l10.629-6.183
			l0.888,4.517l-14.63,8.509l-6.255-31.843l14.63-8.509L426.215,272.203z"/>
		<path d="M450.893,279.682l-11.351,6.602l-1.436,9.452l-4.309,2.506l6.472-41.473l19.305,26.481l-4.38,2.548L450.893,279.682z
			 M448.374,276.113l-6.06-8.541l-1.993,13.225L448.374,276.113z"/>
		<path d="M469.202,262.529l10.874,8.797l-4.896,2.847l-10.133-8.631l-0.722,0.42l2.562,13.035l-4,2.326l-6.255-31.842l4.686-2.726
			c3.504-2.037,6.189-2.718,8.058-2.044c2.063,0.761,3.378,2.585,3.944,5.474c0.443,2.254,0.285,4.506-0.471,6.753
			C472.092,259.187,470.875,261.052,469.202,262.529z M463.504,261.776l1.272-0.738c3.787-2.204,5.342-5.047,4.659-8.526
			c-0.641-3.257-2.804-3.814-6.49-1.671l-1.426,0.829L463.504,261.776z"/>
	</g>
</g>
</svg>
