<?xml version="1.0" encoding="utf-8"?>
<!-- Generator: Adobe Illustrator 19.1.0, SVG Export Plug-In . SVG Version: 6.00 Build 0)  -->
<svg version="1.1" id="Calque_1" xmlns="http://www.w3.org/2000/svg" xmlns:xlink="http://www.w3.org/1999/xlink" x="0px" y="0px"
	 viewBox="-345 170.9 500 500" style="enable-background:new -345 170.9 500 500;" xml:space="preserve">
<style type="text/css">
	.st0{fill:#FFDF00;}
	.st1{fill:#4B585F;}
</style>
<path class="st0" d="M-275.1,383.1c-3.5,2.9-6.9,6.2-9.5,9.1l-0.3,0.3v10c4-3.4,15.8-13.3,15.8-13.3h1.7c7,0,18.7,0,31.3,4.4
	l1.3,0.5l-2.3,16.3l-0.2,1.9l-6.1-1.5c-1.5-0.3-3.2-0.8-4.6-1.1c0,2.3,0,6,0,6l0,1.1l-5.9,2.7c0,0-0.5,0.2-1,0.4c0,1.4,0,5.7,0,5.7
	l-1,0.5c-0.4,0.2-1.1,0.5-1.9,0.8c0,0.5,0,9.5,0,9.5s-3.3,1.1-4.6,1.5c0,0.6,0.4,16.5,0.4,16.5l-1,0.5c-11,5-19.3,10-24.7,14.9v5.4
	h91.6v-92L-275.1,383.1"/>
<path class="st1" d="M-256.9,404.8c-9.7-0.9-32.7-0.9-50,6.6C-291,412.4-269.7,410.6-256.9,404.8L-256.9,404.8z M-266.9,370.8h-19.8
	v18.1c5.6-6.1,14.3-13.6,19.8-16.4V370.8L-266.9,370.8z M-287.4,390.6V404l18.2-15.3c6.8,0,18.8-0.2,31.7,4.3l-2.1,14.9
	c-2.4-0.5-9.4-2.4-10.9-2.5v8.1c-2,1-6.1,2.8-6.8,3.2v5.7c-1.5,0.8-6.8,2.4-6.8,2.4v0.9h3.9v7.3l-14,4.7c3.5,0.1,8.8-0.4,9.5-0.6
	l0.4,14.2c-5.8,2.6-20.3,9.5-28,18.1v-15l3.4-3.2l-11.2,0.6l0.3-14l7.3-4c0,0-11.7,2-13.1,2.5l0.4-12.3c3-0.1,9.5-1,12-2
	c-3.7,0.2-15-0.4-15.8-0.4V412c-3.5,1.7-12.4,5.6-13.5,6.4v-16C-313,397.1-303.2,392.5-287.4,390.6"/>
<path class="st1" d="M-187.1,385c0-7.6-2-9.9-9-10.2v-1.5l20.8-2.4v74.4h-11.8V385"/>
<path class="st1" d="M-122.3,443.5c-2.2,0.7-8.5,2.9-16.7,2.9c-18.1,0-28.9-9.9-28.9-27.8c0-16.9,9-24.2,24.8-24.2
	c20.2,0,21.9,13.3,21.9,20.4h-33.7c0,10.7,4.8,25.8,21.5,25.8c5,0,9.1-1.1,11.1-1.8V443.5L-122.3,443.5z M-133.1,410.5
	c0-2.5-0.2-12.5-10.5-12.5c-8.9,0-11.3,8.4-11.3,12.5H-133.1"/>
<path class="st1" d="M-32.5,439c-2.1,2.2-6.1,7.5-15.3,7.5c-9.2,0-15.8-6-15.8-12.3c0-15.1,23.5-16.2,31.1-16.4v-5.4
	c0-6.7,0-14.2-7.4-14.2c-7.8,0-8.3,6.2-8.3,10.9h-14c1.3-7,5.2-14.5,22.2-14.5c16.8,0,19.4,7.8,19.4,18.4v32.5h-11.8L-32.5,439
	L-32.5,439z M-32.5,421.5c-4.3,0.1-18.1,0.6-18.1,10.8c0,4.9,2.7,8.3,7.1,8.3c6.9,0,11-5.7,11-12.9V421.5"/>
<path class="st1" d="M-12.2,385c0-7.6-2-9.9-9-10.2v-1.5l20.8-2.4v74.4h-11.8L-12.2,385"/>
<path class="st1" d="M11.2,385c0-7.6-2.5-9.9-9.5-10.2v-1.5l21.3-2.4v74.4H11.2V385"/>
<path class="st1" d="M61,439c-2.1,2.2-6.2,7.5-15.2,7.5c-9.2,0-15.8-6-15.8-12.3c0-15.1,23.5-16.2,31.1-16.4v-5.4
	c0-6.7,0-14.2-7.5-14.2c-7.8,0-8.3,6.2-8.3,10.9H31.2c1.3-7,5.2-14.5,22.2-14.5c16.8,0,19.4,7.8,19.4,18.4v32.5H61V439L61,439z
	 M61,421.5c-4.3,0.1-18.1,0.6-18.1,10.8c0,4.9,2.7,8.3,7.1,8.3c6.8,0,11-5.7,11-12.9V421.5"/>
<path class="st1" d="M81.9,408.6c0-7.5-1.9-8.7-9.1-8.9v-2.1l20.9-4v51.7H81.9V408.6L81.9,408.6z M80.6,376.2c0-3.6,3.3-6.6,7.4-6.6
	c4,0,7.6,2.9,7.6,6.6c0,3.7-3.5,6.7-7.7,6.7C83.9,382.9,80.6,379.9,80.6,376.2"/>
<path class="st1" d="M132.2,404.2c-1.8-1.1-7.4-5.1-14.1-5.1c-3.8,0-8.3,1.3-8.3,5.9c0,10.1,25.9,10.4,25.9,26.7
	c0,10.5-9.6,14.7-21.3,14.7c-7.2,0-12.4-1.3-15.1-1.9v-8.3c3.4,2.1,9,5.6,15.6,5.6c7.4,0,10.1-3.4,10.1-7.2
	c0-10.5-25.9-11.1-25.9-25.8c0-7.7,5.8-14.3,19.7-14.3c6,0,11.2,1.4,13.2,1.8L132.2,404.2"/>
<path class="st1" d="M-81.5,393.5v2.6v5.7h-0.3c-2.1-2.4-6.4-7.3-14.7-7.3c-16.5,0-21.1,13.8-21.1,27.6c0,12.2,6.1,23.6,20.8,23.6
	c9.8,0,12.8-4.1,15-7.3h0.3v18.3c0,5.7,0,13.8-11.6,13.8c-9.5,0-11-6.5-11-10.6h-13.1c0,11.4,10.1,14.6,24.7,14.6
	c20.5,0,22.9-10.6,22.9-21.1v-50.2c0-7,5.4-7.6,9.2-7.6v-2.1L-81.5,393.5L-81.5,393.5z M-82.1,424.2c0,5.9-1.9,15.3-12,15.3
	c-9.7,0-10.9-11.9-10.9-19.4c0-7.8,1.1-19.9,11.8-19.9c7.3,0,11.1,6.7,11.1,13.5L-82.1,424.2"/>
</svg>
