<?xml version="1.0" encoding="utf-8"?>
<!-- Generator: Adobe Illustrator 15.0.0, SVG Export Plug-In . SVG Version: 6.00 Build 0)  -->
<!DOCTYPE svg PUBLIC "-//W3C//DTD SVG 1.1//EN" "http://www.w3.org/Graphics/SVG/1.1/DTD/svg11.dtd">
<svg version="1.1" id="Calque_1" xmlns="http://www.w3.org/2000/svg" xmlns:xlink="http://www.w3.org/1999/xlink" x="0px" y="0px"
	 width="500px" height="500px" viewBox="0 0 500 500" enable-background="new 0 0 500 500" xml:space="preserve">
<path d="M89.77,207.217h10.873l-15.065,78.872h35.636l-1.834,9.431H73L89.77,207.217z"/>
<path d="M181.738,253.987h-32.097l-6.027,32.231h36.159l-1.835,9.301h-47.032l16.771-88.303h45.067l-1.831,9.299h-34.065
	l-5.372,28.302h32.098L181.738,253.987z"/>
<path d="M257.46,291.719c-5.108,2.097-14.543,4.715-24.894,4.715c-12.447,0-22.139-3.533-28.825-11.004
	c-6.68-7.334-8.907-17.031-8.907-25.678c0-14.673,5.896-30.13,17.162-40.351c9.566-8.254,22.274-13.105,36.425-13.105
	c10.742,0,18.077,2.493,20.832,4.062l-3.67,9.174c-4.454-2.358-10.481-3.801-18.474-3.801c-10.481,0-20.048,3.801-27.382,10.744
	c-8.255,7.73-13.231,20.439-13.231,32.358c0,17.035,8.515,28.301,28.166,28.301c5.243,0,10.22-1.045,13.362-2.487l5.112-26.337
	h-17.952l1.705-8.908h28.562L257.46,291.719z"/>
<path d="M290.733,208.523c5.371-1.307,12.709-1.961,19.259-1.961c8.777,0,16.378,2.096,21.093,6.42
	c4.062,3.534,6.551,8.516,6.551,14.543c0,12.969-9.822,22.531-20.963,25.677l-0.129,0.262c6.288,2.096,9.173,8.646,9.826,17.685
	c0.915,12.316,1.574,20.832,2.75,24.371h-11.265c-0.524-1.835-1.442-11.135-2.097-21.355c-0.658-12.185-5.113-17.161-13.89-17.161
	h-9.692l-7.208,38.517h-10.874L290.733,208.523z M293.875,248.618h9.697c13.758,0,22.666-9.043,22.666-19.655
	c0-9.431-7.077-13.754-17.031-13.754c-4.323,0-7.077,0.392-9.174,0.916L293.875,248.618z"/>
<path d="M370.124,207.217l-16.771,88.303h-10.873l16.771-88.303H370.124z"/>
<path d="M374.578,281.896c4.847,3.271,11.396,5.63,18.735,5.63c9.954,0,19.128-5.897,19.128-16.509
	c0-6.551-3.67-11.527-12.971-16.508c-11.27-6.154-17.559-13.231-17.559-22.661c0-15.855,13.629-25.945,29.871-25.945
	c8.651,0,15.07,2.488,18.082,4.585l-3.932,8.913c-2.75-1.704-8.254-4.192-15.327-4.192c-10.873,0-17.429,7.203-17.429,14.413
	c0,7.203,4.459,11.266,13.76,16.372c10.873,5.897,16.77,12.839,16.77,23.717c0,15.195-11.924,27.251-31.836,27.251
	c-8.777-0.131-17.554-2.886-21.225-6.157L374.578,281.896z"/>
</svg>
