<?xml version="1.0" encoding="utf-8"?>
<!-- Generator: Adobe Illustrator 19.1.0, SVG Export Plug-In . SVG Version: 6.00 Build 0)  -->
<svg version="1.1" id="Calque_1" xmlns="http://www.w3.org/2000/svg" xmlns:xlink="http://www.w3.org/1999/xlink" x="0px" y="0px"
	 viewBox="-345 170.9 500 500" style="enable-background:new -345 170.9 500 500;" xml:space="preserve">
<style type="text/css">
	.st0{fill:#FF0000;}
</style>
<polygon points="-306.8,427.3 -306.8,369.2 -329.1,369.2 -329.1,427.3 -329.1,449.6 -306.8,449.6 -282.3,449.6 -282.3,427.3 "/>
<polygon points="-270.4,391.5 -270.4,449.6 -248.1,449.6 -248.1,391.5 -248.1,369.2 -294.8,369.2 -294.8,391.5 "/>
<rect x="-303" y="362.7" width="5.4" height="28.5"/>
<rect x="-278.8" y="427.5" width="5.4" height="28.5"/>
<rect x="-220.1" y="366" class="st0" width="19" height="87.5"/>
<path class="st0" d="M0.4,388c-6.2-1.1-17.4-0.5-17.4-0.5v13.9c0,0,4.3,0,7.1,0S1,401.8,1,407.5c0,1.8,0,3.2,0,4.3
	c-3.5-2.7-7.9-4.3-12.6-4.3c-11.9,0-21.5,10.3-21.5,23c0,12.7,9.6,23,21.5,23c4.7,0,9-1.6,12.6-4.3v3.2h18.2c0,0,0-37.8,0-43.5
	C19.2,403.2,20.2,391.5,0.4,388z M-5.9,438.5c-5.3,0-9.6-4.3-9.6-9.7c0-5.3,4.3-9.7,9.6-9.7c5.3,0,9.6,4.3,9.6,9.7
	C3.7,434.2-0.6,438.5-5.9,438.5z"/>
<path class="st0" d="M-87,394.8c-4.4-3-9.5-4.7-15.1-4.7c-15.7,0-28.4,13.7-28.4,30.7s12.7,30.7,28.4,30.7c5.5,0,10.7-1.7,15.1-4.7
	c0.5,3.3,1.1,12.2-6.5,16.1c-9.5,4.9-14.1-4.9-14.1-4.9h-23.4c0,0,4.9,23.9,35,23.9c19,0,27.4-13.7,27.7-35h0v-58.4H-87L-87,394.8
	L-87,394.8z M-98.7,434.1c-6.8,0-12.2-6-12.2-13.3c0-7.4,5.5-13.3,12.2-13.3c6.8,0,12.2,6,12.2,13.3
	C-86.5,428.2-92,434.1-98.7,434.1z"/>
<path class="st0" d="M-24,402.1v-14.9c-10.6,0-16.8,4.5-19.3,7v-5.6h-19.6v64.9h19.6V416C-39,403.4-24,402.1-24,402.1z"/>
<path class="st0" d="M64.2,389.3c-8.1,0-11.6,0.9-19.8,5.3v-6.1H25.7v64.9h18.7v-41.1c2.1-3.5,5.5-6.2,11.1-5.9
	c4.3,0,5.3,4.8,5.4,7.8v39.2h18.7v-41.8C79.7,411.6,81.6,389.3,64.2,389.3z"/>
<path class="st0" d="M123.7,366.2v27.6c-4-2.3-8.6-3.7-13.4-3.7c-15.7,0-28.4,13.7-28.4,30.7s12.7,30.7,28.4,30.7
	c4.9,0,9.4-1.3,13.4-3.7v4.7h18.2v-86.4L123.7,366.2L123.7,366.2z M113.7,434.1c-6.8,0-12.2-6-12.2-13.3c0-7.4,5.5-13.3,12.2-13.3
	s12.2,6,12.2,13.3C125.9,428.2,120.4,434.1,113.7,434.1z"/>
<path class="st0" d="M-164.5,387.1c-17.4,0-31.5,15.1-31.5,33.7c0,18.6,14.1,33.7,31.5,33.7c13.4,0,24.9-9,29.4-21.6l-19.5,0
	c0,0-2.8,4.6-9.9,4.6c-10.2,0-11.5-11.8-11.5-11.8h42.7c0.2-1.6,0.3-3.2,0.3-4.9C-133,402.2-147.1,387.1-164.5,387.1z M-175.7,414.2
	c0,0,0.9-11.4,11.7-11.4c5.9,0,10.3,6.5,10.3,11.4H-175.7z"/>
</svg>
