<?xml version="1.0" encoding="utf-8"?>
<!-- Generator: Adobe Illustrator 21.0.2, SVG Export Plug-In . SVG Version: 6.00 Build 0)  -->
<svg version="1.1" id="Calque_1" xmlns="http://www.w3.org/2000/svg" xmlns:xlink="http://www.w3.org/1999/xlink" x="0px" y="0px"
	 viewBox="0 0 500 84" style="enable-background:new 0 0 500 84;" xml:space="preserve">
<style type="text/css">
	.st0{fill:#253A95;}
	.st1{fill-rule:evenodd;clip-rule:evenodd;fill:#253A95;}
</style>
<polygon class="st0" points="234.6,38.5 203.5,38.5 203.5,19.1 195.4,19.1 195.4,65.7 203.5,65.7 203.5,44 234.6,44 234.6,65.7 
	242.7,65.7 242.7,19.1 234.6,19.1 "/>
<polygon class="st0" points="154.5,44.5 187.2,44.5 187.2,39 154.5,39 154.5,24.9 189.9,24.9 189.9,19.1 146.6,19.1 146.6,65.7 
	190.4,65.7 190.4,60.2 154.5,60.2 "/>
<polygon class="st0" points="113.2,19.1 105.3,19.1 105.3,65.7 143.5,65.7 143.5,60.2 113.2,60.2 "/>
<polygon class="st0" points="278,58.7 260.7,19.1 249.3,19.1 249.3,65.7 256.8,65.7 256.8,26.7 273.9,65.7 281.9,65.7 298.5,26.6 
	298.5,65.7 306.5,65.7 306.5,19.1 294.9,19.1 "/>
<polygon class="st0" points="456.3,19.1 456.3,56.9 426.2,19.1 416.7,19.1 416.7,65.7 424.5,65.7 424.5,28.2 454.9,65.7 463.9,65.7 
	463.9,19.1 "/>
<polygon class="st0" points="402.2,56.9 372,19.1 362.6,19.1 362.6,65.7 370.3,65.7 370.3,28.2 400.8,65.7 409.7,65.7 409.7,19.1 
	402.2,19.1 "/>
<path class="st0" d="M330,19.1l-22.2,46.5h8.2l6.2-13.4h23.9l5.9,13.4h8.8l-21.4-46.5H330z M324.7,46.6l9.5-20.6l8.8,20.6H324.7z"/>
<path class="st0" d="M482.5,22.8c-0.4-0.7-0.8-1.4-1.3-1.9c-0.6-0.7-1.3-1.1-2.1-1.4c-0.8-0.3-1.7-0.5-2.5-0.5
	c-0.8,0-1.6,0.2-2.4,0.5c-0.7,0.3-1.4,0.7-2.1,1.4c-0.6,0.5-1,1.1-1.4,1.9c-0.1,0.8-0.3,1.7-0.3,2.5c0,0.8,0.2,1.7,0.3,2.5
	c0.4,0.7,0.8,1.5,1.4,2c0.7,0.6,1.3,1.1,2.1,1.3c0.8,0.2,1.6,0.3,2.4,0.3c1.2,0,2.3-0.2,3.3-0.7c0.9-0.5,1.7-1.2,2.2-2.1
	c0.7-0.9,0.8-2.1,0.8-3.3C483,24.4,482.9,23.6,482.5,22.8z M481.1,28c-0.5,0.8-1.1,1.4-1.9,1.9c-0.8,0.5-1.7,0.7-2.6,0.7
	c-0.8,0-1.8-0.3-2.5-0.7c-0.8-0.5-1.5-1-1.8-1.9c-0.6-0.7-0.7-1.7-0.7-2.7c0-0.7,0.1-1.4,0.4-2.1c0.2-0.6,0.6-1.2,1-1.7
	c0.5-0.5,1.1-0.8,1.7-1c0.7-0.3,1.4-0.5,2-0.5c0.7,0,1.4,0.2,2.1,0.5c0.6,0.2,1.2,0.6,1.7,1c0.4,0.5,0.7,1,1.1,1.7
	c0.2,0.7,0.3,1.4,0.3,2.1C481.8,26.3,481.6,27.2,481.1,28z"/>
<path class="st0" d="M479.1,25.2c0.4-0.4,0.5-0.8,0.5-1.4c0-0.7-0.1-1.2-0.6-1.6c-0.4-0.4-1-0.5-2-0.5h-2.8v7.2h1.1v-3.2h1.3l2,3.2
	h1.2l-2.1-3.2C478.3,25.6,478.7,25.5,479.1,25.2z M475.3,24.8v-2.1h1.6c1,0,1.5,0.4,1.5,0.9c0,0.7-0.1,0.8-0.5,1
	c-0.2,0.2-0.7,0.2-1.3,0.2H475.3z"/>
<path class="st1" d="M17,74.2h63.9V9.8H17V74.2z M18.8,72.4h60.1V11.8H18.8V72.4z"/>
<polygon class="st1" points="45.9,68 45.9,20.5 52.7,20.5 52.7,61.1 71.6,61.2 71.6,68 "/>
<polygon class="st1" points="68.2,36.5 68.2,18.3 29.8,18.3 29.8,36.5 42.6,36.5 42.6,39 27,39 27,15.8 71,15.8 71,39 55.6,39 
	55.6,36.5 "/>
<polygon class="st1" points="37.4,27.1 34.9,20.5 32.2,20.5 32.2,34.4 34.6,34.4 34.6,26.9 37.4,34.4 40.2,26.9 40.2,34.4 
	42.6,34.4 42.6,20.5 39.8,20.5 "/>
<polygon class="st1" points="60.6,27.1 63.1,20.5 65.8,20.5 65.8,34.4 63.4,34.4 63.4,26.9 60.6,34.4 57.8,26.9 57.8,34.4 
	55.4,34.4 55.4,20.5 58.1,20.5 "/>
<path class="st0" d="M77.2,17.1c-0.2-0.4-0.6-0.8-1-1c-0.4-0.2-0.9-0.4-1.3-0.4s-0.9,0.1-1.3,0.4s-0.8,0.6-1,1
	c-0.2,0.4-0.4,0.9-0.4,1.4c0,0.5,0.1,0.9,0.4,1.4c0.2,0.4,0.6,0.8,1,1c0.4,0.2,0.9,0.4,1.4,0.4s0.9-0.1,1.4-0.4c0.4-0.2,0.8-0.6,1-1
	c0.2-0.4,0.4-0.9,0.4-1.4C77.5,18,77.4,17.5,77.2,17.1z M76.8,19.6c-0.2,0.4-0.5,0.6-0.8,0.8c-0.4,0.2-0.7,0.3-1.1,0.3
	s-0.8-0.1-1.1-0.3c-0.4-0.2-0.6-0.5-0.8-0.8c-0.2-0.4-0.3-0.7-0.3-1.1c0-0.4,0.1-0.8,0.3-1.1c0.2-0.4,0.5-0.6,0.8-0.8
	c0.4-0.2,0.7-0.3,1.1-0.3c0.4,0,0.8,0.1,1.1,0.3c0.4,0.2,0.6,0.5,0.8,0.8c0.2,0.4,0.3,0.7,0.3,1.1C77.1,18.8,77,19.2,76.8,19.6z"/>
<path class="st0" d="M75.3,18.8c-0.1-0.1-0.1-0.1-0.2-0.2c0.3,0,0.5-0.1,0.6-0.3c0.2-0.2,0.2-0.3,0.2-0.6c0-0.2,0-0.3-0.1-0.4
	c-0.1-0.1-0.2-0.2-0.4-0.3C75.2,17,75,17,74.6,17h-1v2.9h0.5v-1.2h0.3c0.2,0,0.3,0,0.4,0.1c0.1,0.1,0.3,0.3,0.5,0.7l0.3,0.5h0.6
	l-0.4-0.6C75.5,19.1,75.4,18.9,75.3,18.8z M74.7,18.3h-0.6v-0.9h0.5c0.2,0,0.4,0,0.5,0c0.1,0,0.2,0.1,0.2,0.2c0,0.1,0.1,0.1,0.1,0.2
	c0,0.1-0.1,0.2-0.2,0.3C75.1,18.2,74.9,18.3,74.7,18.3z"/>
</svg>
