<?xml version="1.0" encoding="utf-8"?>
<!-- Generator: Adobe Illustrator 21.0.2, SVG Export Plug-In . SVG Version: 6.00 Build 0)  -->
<svg version="1.1" id="Calque_1" xmlns="http://www.w3.org/2000/svg" xmlns:xlink="http://www.w3.org/1999/xlink" x="0px" y="0px"
	 viewBox="0 0 500 104" style="enable-background:new 0 0 500 104;" xml:space="preserve">
<style type="text/css">
	.st0{fill:#E2001A;}
	.st1{fill:#0056A2;}
</style>
<polygon class="st0" points="199.4,56.6 199.2,56.6 182.5,22 145.1,22 145.1,79.1 170.4,79.1 170.4,44.3 170.6,44.3 187.3,79.1 
	224.7,79.1 224.7,22 199.4,22 "/>
<polygon class="st0" points="106.3,57.9 134,57.9 134,43 106.3,43 106.3,36.9 136.3,36.9 136.3,22 76.4,22 76.4,79.1 137.3,79.1 
	137.3,64.3 106.3,64.3 "/>
<polygon class="st0" points="41,22 9.8,22 9.8,79.1 69.7,79.1 69.7,63.8 41,63.8 "/>
<polygon class="st0" points="362.7,49.8 388.1,22.1 355.5,22.1 346.4,32.6 336.5,22.1 303.9,22.1 330.1,49.9 302.6,79.1 335.2,79.1 
	346.4,67.2 357.6,79.1 390.2,79 "/>
<path class="st0" d="M311.8,50.6c0-17.8-13.5-30.1-40.7-30.1c-27.1,0-40.7,12.3-40.7,30.1s13.5,30,40.7,30
	C298.3,80.6,311.8,68.4,311.8,50.6z M271.1,65.8c-4.8-0.1-8.4-2-8.4-15.2c0-12.9,3.4-15.2,8.4-15.2s8.4,2.3,8.4,15.2
	C279.5,63.8,275.9,65.8,271.1,65.8z"/>
<path class="st1" d="M414.4,78.9c11.9-4.3,6.2-12.1-15.3-15c20-8.2-2.7-12.1-13.1-14.8c19.2-2.4,28-6.4,13.8-13.5
	c18.8,0.3,22.7-8.6,8.3-13.6c14.4,0,27.4-7.2,39.1,0.4c2.7-6.1,10.4-10.4,10.7-8c1.6,12.7,3.4,16.8,5.7,20.5c4.6,3.3,9,6.3,9.1,10.4
	c1.5,0.9,2.3,3.1,0.5,3.8c-1,2.4,4.6,5.9,17.9,16.2c1.4,1.1,2.4,1.9,1.5,3.3c-1,1.4-4.1,7.6-8,6.3c-10.7,12.1-4.1,1.7-4.6-1.4
	c-6.4,9.9-2.3,0.4-3.1-1.7c-4.4-3.6-9.9-7.3-13.1-7.3c-1.9,5.4-1.2,12.2,0.1,15.4c2.3,2.1,10.2,0.4,1.6,3.7
	c3.7,1.2,13.4-1.4,1.4,4.2c0.8,1.9,2,5.1-4.8,5.1c-2.2,0-6.8-2.9-7.4-8C453.7,78.3,443.6,78.9,414.4,78.9z M449.6,37.7
	c1.8,1.2,2.3,0.6,1.1-0.6c-7.4-7.4-11.3-14.1-13.1-14c-1.8,0.1-6.9,7.1-4,15.5c0.3,1,0.9,1,1.5-0.7c0.5-1.5,1.1-1.9,2.4-2.3
	c3.8-1-1.6-0.7-0.5-4.2C437.9,29.1,441.4,32.1,449.6,37.7z M465.2,46.9c0,1.7-0.7,3.9-1.4,3.9c-0.7,0-2.6-2.5-2.3-5.2
	c-6.1-3.6-7.6-3.9-3,2.9c4.7,6.8,8.6,6.6,7.5,3.7C464.9,49,470.4,48.8,465.2,46.9z"/>
<path class="st0" d="M376.9,42.8c-4,0-7.1,3.2-7.1,7c0,3.9,3.2,7,7.1,7c3.9,0,7.1-3.2,7.1-7C384,45.9,380.8,42.8,376.9,42.8z
	 M376.9,55.1c-2.8,0-5.2-2.2-5.2-5.2c0-3.1,2.4-5.2,5.2-5.2c2.8,0,5.2,2.2,5.2,5.2S379.6,55.1,376.9,55.1z"/>
<path class="st0" d="M380.6,48.2c0-0.8-0.2-1.6-0.9-2.1c-0.6-0.3-1.4-0.4-2.1-0.4h-3.7v7.7h1.7v-3.1h1.1l1.7,3.1h2l-1.9-3.1
	C379.9,50.1,380.6,49.6,380.6,48.2z M377.6,49h-2v-0.1v-1.7h1.7c0.7,0,1.5,0,1.5,0.8S378.5,49,377.6,49z"/>
</svg>
