<?xml version="1.0" encoding="utf-8"?>
<!-- Generator: Adobe Illustrator 19.1.0, SVG Export Plug-In . SVG Version: 6.00 Build 0)  -->
<svg version="1.1" id="Calque_1" xmlns="http://www.w3.org/2000/svg" xmlns:xlink="http://www.w3.org/1999/xlink" x="0px" y="0px"
	 viewBox="-345 170.9 500 500" style="enable-background:new -345 170.9 500 500;" xml:space="preserve">
<style type="text/css">
	.st0{fill:#0D0909;}
	.st1{fill:#E21F20;}
	.st2{fill:#1A171B;}
	.st3{fill:#C0BFC0;}
</style>
<path class="st0" d="M-203.9,405.4v31.7h15.3v9.4h-28v-41.1L-203.9,405.4L-203.9,405.4z"/>
<path class="st0" d="M-155.1,414.8h-18.4v6.3h15.6v9.1h-15.6v7.9h18.4v8.4H-185v-41.1h29.9V414.8z"/>
<path class="st0" d="M32.6,414.8H14.2v6.3h15.6v9.1H14.2v7.9h18.4v8.4H2.7v-41.1h29.9L32.6,414.8L32.6,414.8z"/>
<path class="st0" d="M-44.5,426.2c-2.1-1.9-5.3-3.4-9.7-4.6l-5.1-1.4c-3.2-0.9-4.3-1.9-4.3-2.6c0-0.3,0-0.9,1.3-1.7
	c2.1-1.2,6-1.3,8.1-0.4c0.5,0.2,1.4,0.8,2.7,2.3l0.8,1l9.5-3.9l-1.4-1.7c-3.6-4.4-8.7-6.6-15-6.6c-4.6,0-8.6,1-11.8,3
	c-3.4,2.1-5.2,4.8-5.2,8.1c0,4.8,3.9,8.3,11.6,10.6l4.9,1.4c1.2,0.4,2.2,0.7,3.1,1.1c0.8,0.4,1.4,0.7,1.9,1.1c0.4,0.3,0.7,0.7,0.8,1
	c0.2,0.4,0.2,0.7,0.2,1.2c0,1.2-0.5,2.1-1.7,2.9c-1.3,0.9-3,1.4-5,1.4c-2.6,0-4.5-0.6-5.8-1.9c-0.4-0.4-1-1.2-1.3-3.4l-0.3-1.6
	l-11.2,1.7l0.4,1.7c0.8,3.7,2.8,6.7,6,8.8c3.1,2,7.1,3,11.8,3c5,0,9.2-1.2,12.6-3.5c3.6-2.5,5.4-5.6,5.4-9.5
	C-41.1,430.7-42.3,428.2-44.5,426.2z"/>
<path class="st0" d="M-6.7,426.2c-2.1-1.9-5.3-3.4-9.7-4.6l-5.1-1.4c-3.2-0.9-4.3-1.9-4.3-2.6c0-0.3,0-0.9,1.3-1.7
	c2.1-1.2,6-1.3,8.1-0.4c0.5,0.2,1.4,0.8,2.7,2.3l0.8,1l9.5-3.9l-1.4-1.7c-3.6-4.4-8.7-6.6-15-6.6c-4.6,0-8.6,1-11.8,3
	c-3.4,2.1-5.2,4.8-5.2,8.1c0,4.8,3.9,8.3,11.6,10.6l4.9,1.4c1.2,0.4,2.2,0.7,3.1,1.1c0.8,0.4,1.4,0.7,1.9,1.1c0.4,0.3,0.7,0.7,0.8,1
	c0.2,0.4,0.2,0.7,0.2,1.2c0,1.2-0.5,2.1-1.7,2.9c-1.3,0.9-3,1.4-5,1.4c-2.6,0-4.5-0.6-5.8-1.9c-0.4-0.4-1-1.2-1.3-3.4l-0.3-1.6
	l-11.2,1.7l0.4,1.7c0.8,3.7,2.8,6.7,6,8.8c3.1,2,7.1,3,11.8,3c5,0,9.2-1.2,12.6-3.5c3.6-2.5,5.4-5.6,5.4-9.5
	C-3.2,430.7-4.4,428.2-6.7,426.2z"/>
<path class="st0" d="M49.7,405.4v24.7c0,3.5,0.6,6.1,1.7,7.7c1.7,2.4,7.4,2.4,9.1,0c1.2-1.6,1.7-4.2,1.7-7.7v-24.7h8.6v26.4
	c0,4.3-1.3,7.9-4,10.7c-3,3.1-9.1,4.7-13.6,4.7c-4.4,0-8.1-1.6-11.1-4.7c-2.7-2.8-4-6.4-4-10.7v-26.4H49.7z"/>
<path class="st0" d="M105.6,428.9c0,0,0.1,0,0.1-0.1c5.9-2.5,7.5-6.7,7.5-10.9c0-13.9-14-12.8-19.3-12.8s-17.4,0.2-17.4,0.2v41.1
	h12.6v-15c1.5,0,2.9,0,4.1-0.1l7.3,15.2h13.1L105.6,428.9z M91.2,422.5h-2v-9.1h2.3c5.8,0,8.8,1.5,8.8,4.4
	C100.3,421,97.3,422.5,91.2,422.5z"/>
<polygon class="st0" points="-124.3,405.4 -132,433.8 -139.7,405.4 -153.3,405.4 -139.7,446.3 -126.7,446.3 -113.7,405.4 "/>
<path class="st0" d="M-90.9,405.6h-12.3l-14.3,40.9h10.1l3.5-10h10.6l2.7,10h13.1L-90.9,405.6z M-102.1,430.6l3.2-14l3.8,14H-102.1z
	"/>
<rect x="119" y="434.3" class="st1" width="12.5" height="12.5"/>
<path class="st2" d="M1.6,465.2l3.6-0.5c0.2,0.7,0.5,1.2,0.9,1.6s1.1,0.5,2,0.5c0.9,0,1.6-0.2,2.1-0.5c0.3-0.2,0.5-0.6,0.5-1
	c0-0.3-0.1-0.5-0.3-0.7c-0.2-0.2-0.6-0.3-1.2-0.5c-2.9-0.6-4.7-1.2-5.5-1.7c-1.1-0.7-1.6-1.7-1.6-3c0-1.2,0.5-2.1,1.4-2.9
	s2.4-1.2,4.3-1.2c1.8,0,3.2,0.3,4.1,0.9c0.9,0.6,1.5,1.5,1.9,2.7l-3.4,0.6c-0.1-0.5-0.4-0.9-0.8-1.2c-0.4-0.3-1-0.4-1.7-0.4
	c-0.9,0-1.6,0.1-2,0.4c-0.3,0.2-0.4,0.4-0.4,0.7c0,0.3,0.1,0.5,0.4,0.6c0.3,0.2,1.4,0.6,3.3,1c1.9,0.4,3.2,1,4,1.6
	c0.7,0.6,1.1,1.5,1.1,2.7c0,1.2-0.5,2.3-1.5,3.2s-2.6,1.3-4.6,1.3c-1.8,0-3.3-0.4-4.4-1.1C2.6,467.5,1.9,466.4,1.6,465.2z"/>
<path class="st2" d="M15.6,455.5h3.8l3.2,9.6l3.1-9.6h3.7l-4.8,13l-0.8,2.3c-0.3,0.8-0.6,1.4-0.9,1.8s-0.6,0.8-1,1s-0.8,0.5-1.4,0.6
	s-1.1,0.2-1.8,0.2c-0.7,0-1.4-0.1-2-0.2l-0.3-2.8c0.6,0.1,1.1,0.2,1.5,0.2c0.8,0,1.4-0.2,1.8-0.7s0.7-1.1,0.9-1.9L15.6,455.5z"/>
<path class="st2" d="M30.5,465.2l3.6-0.5c0.2,0.7,0.5,1.2,0.9,1.6s1.1,0.5,2,0.5c0.9,0,1.6-0.2,2.1-0.5c0.3-0.2,0.5-0.6,0.5-1
	c0-0.3-0.1-0.5-0.3-0.7c-0.2-0.2-0.6-0.3-1.2-0.5c-2.9-0.6-4.7-1.2-5.5-1.7c-1.1-0.7-1.6-1.7-1.6-3c0-1.2,0.5-2.1,1.4-2.9
	s2.4-1.2,4.3-1.2c1.8,0,3.2,0.3,4.1,0.9c0.9,0.6,1.5,1.5,1.9,2.7l-3.4,0.6c-0.1-0.5-0.4-0.9-0.8-1.2c-0.4-0.3-1-0.4-1.7-0.4
	c-0.9,0-1.6,0.1-2,0.4c-0.3,0.2-0.4,0.4-0.4,0.7c0,0.3,0.1,0.5,0.4,0.6c0.3,0.2,1.4,0.6,3.3,1c1.9,0.4,3.2,1,4,1.6
	c0.7,0.6,1.1,1.5,1.1,2.7c0,1.2-0.5,2.3-1.5,3.2s-2.6,1.3-4.6,1.3c-1.8,0-3.3-0.4-4.4-1.1C31.5,467.5,30.8,466.4,30.5,465.2z"/>
<path class="st2" d="M52.4,455.5v2.8h-2.4v5.4c0,1.1,0,1.7,0.1,1.9c0,0.2,0.2,0.3,0.3,0.5c0.2,0.1,0.4,0.2,0.6,0.2
	c0.3,0,0.8-0.1,1.4-0.3l0.3,2.8c-0.8,0.4-1.8,0.5-2.8,0.5c-0.6,0-1.2-0.1-1.7-0.3c-0.5-0.2-0.9-0.5-1.1-0.8
	c-0.2-0.3-0.4-0.8-0.5-1.4c-0.1-0.4-0.1-1.3-0.1-2.5v-5.9h-1.6v-2.8h1.6v-2.7l3.6-2.1v4.8H52.4z"/>
<path class="st2" d="M62.6,464.7l3.6,0.6c-0.5,1.3-1.2,2.3-2.2,3s-2.2,1-3.7,1c-2.3,0-4.1-0.8-5.2-2.3c-0.9-1.2-1.3-2.8-1.3-4.6
	c0-2.2,0.6-4,1.8-5.2s2.6-1.9,4.4-1.9c2,0,3.6,0.7,4.7,2c1.2,1.3,1.7,3.4,1.7,6.1h-8.9c0,1.1,0.3,1.9,0.9,2.5s1.2,0.9,2.1,0.9
	c0.6,0,1-0.2,1.4-0.5C62.2,465.9,62.4,465.4,62.6,464.7z M61.9,453.9h-2.2l-3.5-3.8h4L61.9,453.9z M62.8,461.1c0-1-0.3-1.8-0.8-2.4
	s-1.1-0.8-1.9-0.8c-0.8,0-1.4,0.3-1.9,0.8s-0.8,1.3-0.7,2.3H62.8z"/>
<path class="st2" d="M69,455.5h3.3v1.8c1.2-1.4,2.6-2.1,4.2-2.1c0.9,0,1.6,0.2,2.2,0.5c0.6,0.4,1.2,0.9,1.6,1.6
	c0.6-0.7,1.2-1.3,1.9-1.6c0.7-0.4,1.4-0.5,2.2-0.5c1,0,1.8,0.2,2.5,0.6c0.7,0.4,1.2,1,1.5,1.8c0.2,0.6,0.4,1.5,0.4,2.8v8.6h-3.6
	v-7.7c0-1.3-0.1-2.2-0.4-2.6c-0.3-0.5-0.8-0.8-1.5-0.8c-0.5,0-1,0.2-1.4,0.5c-0.4,0.3-0.8,0.8-1,1.3s-0.3,1.5-0.3,2.8v6.5h-3.6v-7.4
	c0-1.3-0.1-2.2-0.2-2.5s-0.3-0.7-0.6-0.9c-0.3-0.2-0.6-0.3-1.1-0.3c-0.5,0-1,0.1-1.5,0.4c-0.4,0.3-0.8,0.7-0.9,1.3
	c-0.2,0.6-0.3,1.5-0.3,2.8v6.5H69V455.5z"/>
<path class="st2" d="M100.2,464.7l3.6,0.6c-0.5,1.3-1.2,2.3-2.2,3c-1,0.7-2.2,1-3.7,1c-2.3,0-4.1-0.8-5.2-2.3
	c-0.9-1.2-1.3-2.8-1.3-4.6c0-2.2,0.6-4,1.8-5.2s2.6-1.9,4.4-1.9c2,0,3.6,0.7,4.7,2c1.2,1.3,1.7,3.4,1.7,6.1H95
	c0,1.1,0.3,1.9,0.9,2.5c0.5,0.6,1.2,0.9,2.1,0.9c0.6,0,1-0.2,1.4-0.5S100,465.4,100.2,464.7z M100.4,461.1c0-1-0.3-1.8-0.8-2.4
	c-0.5-0.5-1.1-0.8-1.9-0.8c-0.8,0-1.4,0.3-1.9,0.8c-0.5,0.6-0.8,1.3-0.7,2.3H100.4z"/>
<path class="st2" d="M105.6,465.2l3.6-0.5c0.2,0.7,0.5,1.2,0.9,1.6s1.1,0.5,2,0.5c0.9,0,1.6-0.2,2.1-0.5c0.3-0.2,0.5-0.6,0.5-1
	c0-0.3-0.1-0.5-0.3-0.7c-0.2-0.2-0.6-0.3-1.2-0.5c-2.9-0.6-4.7-1.2-5.5-1.7c-1.1-0.7-1.6-1.7-1.6-3c0-1.2,0.5-2.1,1.4-2.9
	s2.4-1.2,4.3-1.2c1.8,0,3.2,0.3,4.1,0.9c0.9,0.6,1.5,1.5,1.9,2.7l-3.4,0.6c-0.1-0.5-0.4-0.9-0.8-1.2c-0.4-0.3-1-0.4-1.7-0.4
	c-0.9,0-1.6,0.1-2,0.4c-0.3,0.2-0.4,0.4-0.4,0.7c0,0.3,0.1,0.5,0.4,0.6c0.3,0.2,1.4,0.6,3.3,1c1.9,0.4,3.2,1,4,1.6
	c0.7,0.6,1.1,1.5,1.1,2.7c0,1.2-0.5,2.3-1.5,3.2s-2.6,1.3-4.6,1.3c-1.8,0-3.3-0.4-4.4-1.1C106.6,467.5,105.9,466.4,105.6,465.2z"/>
<polygon class="st1" points="-240.3,445.3 -297.4,445.3 -268.3,365.9 -211.2,365.9 "/>
<polygon class="st3" points="-285.4,449.1 -261.9,396.1 -289.9,396.1 -318.6,460.8 -290.6,460.8 -261.9,460.8 -255.4,449.1 "/>
</svg>
