<?xml version="1.0" encoding="utf-8"?>
<!-- Generator: Adobe Illustrator 15.0.0, SVG Export Plug-In . SVG Version: 6.00 Build 0)  -->
<!DOCTYPE svg PUBLIC "-//W3C//DTD SVG 1.1//EN" "http://www.w3.org/Graphics/SVG/1.1/DTD/svg11.dtd">
<svg version="1.1" id="Calque_1" xmlns="http://www.w3.org/2000/svg" xmlns:xlink="http://www.w3.org/1999/xlink" x="0px" y="0px"
	 width="500px" height="500px" viewBox="0 0 500 500" enable-background="new 0 0 500 500" xml:space="preserve">
<g>
	<path fill="#E11B25" d="M463.135,282.906c0-4.102,3.324-7.124,7.252-7.124c3.904,0,7.233,3.022,7.233,7.124
		c0,4.146-3.329,7.168-7.233,7.168C466.459,290.074,463.135,287.053,463.135,282.906z M470.387,288.886
		c3.24,0,5.794-2.533,5.794-5.979c0-3.388-2.554-5.935-5.794-5.935c-3.266,0-5.817,2.547-5.817,5.935
		C464.57,286.353,467.121,288.886,470.387,288.886z M468.877,287.053h-1.24v-8.248h3.142c1.937,0,2.907,0.714,2.907,2.346
		c0,1.472-0.919,2.11-2.141,2.271l2.353,3.632h-1.409l-2.172-3.581h-1.439V287.053z M470.381,282.417
		c1.062,0,2.007-0.077,2.007-1.343c0-1.022-0.933-1.216-1.806-1.216h-1.705v2.559H470.381z"/>
</g>
<path fill="#E11B25" d="M62.285,264.142l20.429-55.519H46.663L16.02,291.901h36.051h24.875l10.455-27.76H62.285z M69.825,280.004
	H35.348l20.877-57.186h5.375l-19.083,51.779h29.262L69.825,280.004z"/>
<g>
	<polygon fill="#E11B25" points="314.162,230.975 322.454,208.262 255.399,208.262 247.107,230.975 268.479,230.975 
		245.665,291.901 271.622,291.901 294.436,230.975 	"/>
	<polygon fill="#E11B25" points="423.397,230.975 431.689,208.262 364.634,208.262 356.342,230.975 377.713,230.975 354.9,291.901 
		380.857,291.901 403.67,230.975 	"/>
	<polygon fill="#E11B25" points="478.555,230.975 486.847,208.262 439.078,208.262 438.749,209.164 438.537,209.164 
		407.895,291.901 408.681,291.901 408.615,292.081 456.383,292.081 464.675,269.369 442.196,269.369 447.07,256.21 469.362,256.21 
		473.327,244.764 451.309,244.764 456.416,230.975 	"/>
	<polygon fill="#E11B25" points="330.745,209.164 300.102,291.901 326.059,291.901 356.701,209.164 	"/>
</g>
<g>
	<path fill="#E11B25" d="M141.646,223.555c-1.087-0.214-2.218-0.323-3.358-0.323c-11.031,0-22.714,9.993-27.175,23.243
		c-2.824,8.386-2.418,16.689,1.114,22.778c2.43,4.188,6.118,6.877,10.666,7.773c1.087,0.215,2.218,0.323,3.359,0.323
		c11.03,0,22.714-9.992,27.177-23.242c2.824-8.385,2.418-16.687-1.113-22.776C149.886,227.142,146.196,224.453,141.646,223.555z
		 M139.809,252.11c-2.202,7.585-7.327,13.071-11.446,12.254s-5.672-7.63-3.471-15.215s7.327-13.071,11.446-12.254
		C140.458,237.713,142.011,244.525,139.809,252.11z"/>
	<path fill="#E11B25" d="M138.531,207.285c-22.333-0.049-43.51,19.677-47.301,44.06c-3.79,24.381,11.241,44.187,33.574,44.236
		c22.333,0.049,43.51-19.678,47.301-44.059C175.895,227.14,160.864,207.334,138.531,207.285z M158.553,255.833
		c-5.254,15.602-18.84,26.925-32.302,26.925c-1.491,0-2.974-0.144-4.405-0.426c-6.033-1.189-11.11-4.871-14.297-10.365
		c-4.313-7.436-4.882-17.356-1.562-27.217c5.253-15.602,18.837-26.925,32.3-26.925c1.491,0,2.973,0.143,4.405,0.426
		c6.035,1.19,11.113,4.872,14.301,10.368C161.306,236.054,161.875,245.973,158.553,255.833z"/>
</g>
<path fill="#E11B25" d="M223.25,207.285c-22.332-0.049-43.509,19.677-47.3,44.06c-3.79,24.381,11.241,44.187,33.574,44.236
	c2.312,0.005,4.609-0.213,6.878-0.615l10.884-29.903c-2.068,0.939-4.306,1.469-6.579,1.464c-7.907-0.016-13.23-6.451-11.888-14.373
	c1.343-7.922,8.84-14.331,16.749-14.315c4.249,0.008,7.749,1.872,9.872,4.821l9.902-27.206
	C239.538,210.333,231.953,207.304,223.25,207.285z M226.818,225.799c-11.518-1.666-24.712,8.153-29.421,21.89
	c-2.673,7.799-2.286,15.604,1.062,21.413c2.454,4.256,6.242,6.996,10.956,7.925c0.506,0.101,1.024,0.179,1.54,0.233l-0.575,5.377
	c-0.673-0.072-1.35-0.175-2.011-0.305c-6.201-1.222-11.385-4.962-14.595-10.529c-4.129-7.162-4.673-16.59-1.493-25.867
	c5.603-16.348,21.114-27.544,35.312-25.488L226.818,225.799z"/>
</svg>
