<?xml version="1.0" encoding="utf-8"?>
<!-- Generator: Adobe Illustrator 19.1.0, SVG Export Plug-In . SVG Version: 6.00 Build 0)  -->
<svg version="1.1" id="Calque_1" xmlns="http://www.w3.org/2000/svg" xmlns:xlink="http://www.w3.org/1999/xlink" x="0px" y="0px"
	 viewBox="-345 170.9 500 500" style="enable-background:new -345 170.9 500 500;" xml:space="preserve">
<style type="text/css">
	.st0{fill:#E11B25;}
</style>
<path class="st0" d="M118.1,453.8c0-4.1,3.3-7.1,7.3-7.1c3.9,0,7.2,3,7.2,7.1c0,4.1-3.3,7.2-7.2,7.2
	C121.5,461,118.1,457.9,118.1,453.8z M125.4,459.8c3.2,0,5.8-2.5,5.8-6c0-3.4-2.6-5.9-5.8-5.9c-3.3,0-5.8,2.5-5.8,5.9
	C119.6,457.2,122.1,459.8,125.4,459.8z M123.9,457.9h-1.2v-8.2h3.1c1.9,0,2.9,0.7,2.9,2.3c0,1.5-0.9,2.1-2.1,2.3l2.4,3.6h-1.4
	l-2.2-3.6h-1.4L123.9,457.9L123.9,457.9z M125.4,453.3c1.1,0,2-0.1,2-1.3c0-1-0.9-1.2-1.8-1.2h-1.7v2.6H125.4z"/>
<path class="st0" d="M-282.7,435l20.4-55.5h-36.1l-30.6,83.3h36.1h24.9l10.5-27.8L-282.7,435L-282.7,435z M-275.2,450.9h-34.5
	l20.9-57.2h5.4l-19.1,51.8h29.3L-275.2,450.9z"/>
<polygon class="st0" points="-30.8,401.9 -22.5,379.2 -89.6,379.2 -97.9,401.9 -76.5,401.9 -99.3,462.8 -73.4,462.8 -50.6,401.9 "/>
<polygon class="st0" points="78.4,401.9 86.7,379.2 19.6,379.2 11.3,401.9 32.7,401.9 9.9,462.8 35.9,462.8 58.7,401.9 "/>
<polygon class="st0" points="133.6,401.9 141.8,379.2 94.1,379.2 93.7,380.1 93.5,380.1 62.9,462.8 63.7,462.8 63.6,463 111.4,463 
	119.7,440.3 97.2,440.3 102.1,427.1 124.4,427.1 128.3,415.7 106.3,415.7 111.4,401.9 "/>
<polygon class="st0" points="-14.3,380.1 -44.9,462.8 -18.9,462.8 11.7,380.1 "/>
<path class="st0" d="M-203.4,394.4c-1.1-0.2-2.2-0.3-3.4-0.3c-11,0-22.7,10-27.2,23.2c-2.8,8.4-2.4,16.7,1.1,22.8
	c2.4,4.2,6.1,6.9,10.7,7.8c1.1,0.2,2.2,0.3,3.4,0.3c11,0,22.7-10,27.2-23.2c2.8-8.4,2.4-16.7-1.1-22.8
	C-195.1,398-198.8,395.3-203.4,394.4z M-205.2,423c-2.2,7.6-7.3,13.1-11.4,12.3s-5.7-7.6-3.5-15.2c2.2-7.6,7.3-13.1,11.4-12.3
	C-204.5,408.6-203,415.4-205.2,423z"/>
<path class="st0" d="M-206.5,378.2c-22.3,0-43.5,19.7-47.3,44.1c-3.8,24.4,11.2,44.2,33.6,44.2c22.3,0,43.5-19.7,47.3-44.1
	C-169.1,398-184.1,378.2-206.5,378.2z M-186.4,426.7c-5.3,15.6-18.8,26.9-32.3,26.9c-1.5,0-3-0.1-4.4-0.4c-6-1.2-11.1-4.9-14.3-10.4
	c-4.3-7.4-4.9-17.4-1.6-27.2c5.3-15.6,18.8-26.9,32.3-26.9c1.5,0,3,0.1,4.4,0.4c6,1.2,11.1,4.9,14.3,10.4
	C-183.7,406.9-183.1,416.9-186.4,426.7z"/>
<path class="st0" d="M-121.8,378.2c-22.3,0-43.5,19.7-47.3,44.1c-3.8,24.4,11.2,44.2,33.6,44.2c2.3,0,4.6-0.2,6.9-0.6l10.9-29.9
	c-2.1,0.9-4.3,1.5-6.6,1.5c-7.9,0-13.2-6.5-11.9-14.4c1.3-7.9,8.8-14.3,16.7-14.3c4.2,0,7.7,1.9,9.9,4.8l9.9-27.2
	C-105.5,381.2-113,378.2-121.8,378.2z M-118.2,396.7c-11.5-1.7-24.7,8.2-29.4,21.9c-2.7,7.8-2.3,15.6,1.1,21.4c2.5,4.3,6.2,7,11,7.9
	c0.5,0.1,1,0.2,1.5,0.2l-0.6,5.4c-0.7-0.1-1.4-0.2-2-0.3c-6.2-1.2-11.4-5-14.6-10.5c-4.1-7.2-4.7-16.6-1.5-25.9
	c5.6-16.3,21.1-27.5,35.3-25.5L-118.2,396.7z"/>
</svg>
