<?xml version="1.0" encoding="utf-8"?>
<!-- Generator: Adobe Illustrator 19.1.0, SVG Export Plug-In . SVG Version: 6.00 Build 0)  -->
<svg version="1.1" id="Calque_1" xmlns="http://www.w3.org/2000/svg" xmlns:xlink="http://www.w3.org/1999/xlink" x="0px" y="0px"
	 viewBox="-345 170.9 500 500" style="enable-background:new -345 170.9 500 500;" xml:space="preserve">
<style type="text/css">
	.st0{fill:#032B35;}
	.st1{fill:#E21F20;}
	.st2{fill:#FFFFFF;}
	.st3{fill:#E32122;}
	.st4{font-family:'ArialMT';}
	.st5{font-size:21.1644px;}
</style>
<path class="st0" d="M-322.8,274.3v150.1v148.3h459.3V424.4V274.3H-322.8z M-315.7,424.4V281.5h445v142.9L-315.7,424.4L-315.7,424.4
	z"/>
<path class="st1" d="M-271.2,338.5h-7.9c-7.8,0-11-3.8-11-10.8v-11.1c0-7,3.1-10.8,11-10.8h7.9c1.6,0,4.4,0.2,5.7,1.2v2.2h-13.7
	c-5.6,0-6.6,3.2-6.6,7.6v10.7c0,4.5,0.9,7.6,6.6,7.6h13.7v2.2C-266.9,338.3-269.6,338.5-271.2,338.5z"/>
<path class="st1" d="M-246.4,338.5h-5c-5.4,0-8.8-2.6-8.8-7.7v-9.5c0-5.1,3.4-7.7,8.8-7.7h5c5.5,0,8.5,3,8.5,8v8.9
	C-237.9,335.5-240.9,338.5-246.4,338.5z M-241.8,320.9c0-2.2-1.1-4.3-3.8-4.3h-6.5c-2.9,0-4,1.9-4,4.3v10.3c0,2.4,1.1,4.4,4,4.4h6.5
	c2.7,0,3.8-2.1,3.8-4.3V320.9z"/>
<path class="st1" d="M-215,338v-18.6c0-2-1.7-2.5-3.3-2.5h-4c-2.7,0-5,0.4-6,0.7V338h-4v-23.8h3.8l0.2,1.6c1.8-1.6,4.5-2.2,6.8-2.2
	h4c3.3,0,6.5,1.3,6.5,5.3v19L-215,338L-215,338z"/>
<path class="st1" d="M-102.3,396.3v-18.6c0-2-1.7-2.5-3.3-2.5h-4c-2.7,0-5,0.4-6,0.7v20.3h-4v-23.8h3.8l0.1,1.6
	c1.8-1.6,4.5-2.2,6.8-2.2h4c3.3,0,6.5,1.3,6.5,5.3v19L-102.3,396.3L-102.3,396.3z"/>
<path class="st1" d="M-196.7,338.5c-4.4,0-7.1-1.1-7.1-5v-15.9h-4.6v-2.7h4.6v-6.6l4-0.5v7.1h8.9v2.7h-8.9v15.3
	c0,1.1,0.1,2.7,2.4,2.7h6.5v2.1C-192.1,338.2-195,338.5-196.7,338.5z"/>
<path class="st1" d="M-178,317.1c-3.8,0-6.2,0.6-7.8,1.2V338h-4v-23.8h3.6l0.2,2c1.7-1.3,5.1-2.3,7.5-2.3c0.7,0,2.5,0.1,3.8,0.2v3.1
	L-178,317.1L-178,317.1z"/>
<path class="st1" d="M-161,338.5h-5c-5.4,0-8.8-2.6-8.8-7.7v-9.5c0-5.1,3.4-7.7,8.8-7.7h5c5.5,0,8.5,3,8.5,8v8.9
	C-152.5,335.5-155.5,338.5-161,338.5z M-156.5,320.9c0-2.2-1.1-4.3-3.8-4.3h-6.4c-2.9,0-4,1.9-4,4.3v10.3c0,2.4,1.1,4.4,4,4.4h6.4
	c2.7,0,3.8-2.1,3.8-4.3V320.9z M-159.9,310.6l-3.8-5.3l-3.7,5.3h-3.3l5.1-7.2h3.6l5.3,7.2H-159.9z"/>
<path class="st1" d="M-146.4,338v-33.4h4V338H-146.4z"/>
<path class="st1" d="M-116.9,326.7h-14.2v4.3c0,2.9,1.2,4.4,5.1,4.4h11.9v1.7c-1,0.8-3.1,1.4-5.2,1.4h-6.7c-4.6,0-8.9-2-8.9-7.7
	v-8.9c0-6.7,4.4-8.3,10-8.3h2.3c5,0,9.4,1.4,9.4,7.8v4.8L-116.9,326.7z M-117.3,320.6c0-3.2-1.8-4-5.1-4h-3.5
	c-3.8,0-5.2,1.5-5.2,4.5v2.8h13.8V320.6z"/>
<path class="st1" d="M-93.5,338.5h-8.1c-1.3,0-8.5,0-8.5,0l3.9-3.2h12.1c3.3,0,3.5-1.5,3.5-2.7v-2.4c0-1.9-1-2.2-2.8-2.3l-7-0.6
	c-3-0.2-5.9-1.5-5.9-4.9v-3c0-3,2.5-5.7,7.2-5.7h6.6c1.3,0,9.3,0.1,9.3,0.1l-4.7,3.1H-99c-3.1,0-3.3,1.2-3.3,2.8v2.3
	c0,1.8,1.3,1.9,2.7,2.1l7,0.6c3.6,0.3,6,1.6,6,5v2.9C-86.7,336.5-89.8,338.5-93.5,338.5z"/>
<path class="st1" d="M19.5,396.5h-8.1c-1.3,0-8.5,0-8.5,0l3.9-3.2h12.1c3.3,0,3.5-1.5,3.5-2.7v-2.4c0-1.9-1-2.2-2.8-2.3l-7-0.6
	c-3-0.2-5.9-1.5-5.9-4.9v-3c0-3,2.5-5.7,7.2-5.7h6.6c1.3,0,9.3,0.1,9.3,0.1l-4.7,3.1H14c-3.1,0-3.3,1.2-3.3,2.8v2.3
	c0,1.8,1.3,1.9,2.7,2.1l7,0.6c3.6,0.3,6,1.6,6,5v2.9C26.3,394.5,23.3,396.5,19.5,396.5z"/>
<path class="st1" d="M93.3,338.5h-8.1c-1.3,0-8.5,0-8.5,0l3.9-3.2h12.1c3.3,0,3.5-1.5,3.5-2.7v-2.4c0-1.9-1-2.2-2.8-2.3l-7-0.6
	c-3-0.2-5.9-1.5-5.9-4.9v-3c0-3,2.5-5.7,7.2-5.7h6.6c1.3,0,9.3,0.1,9.3,0.1l-4.7,3.1H87.8c-3.1,0-3.3,1.2-3.3,2.8v2.3
	c0,1.8,1.3,1.9,2.7,2.1l7,0.6c3.6,0.3,6,1.6,6,5v2.9C100.1,336.5,97.1,338.5,93.3,338.5z"/>
<path class="st1" d="M-47.9,338l-0.3-1.7c-1.9,1.7-4.5,2.3-7,2.3h-4.1c-2.8,0-6.3-1.2-6.3-5.5v-12.7c0-4.3,3.1-6.7,7.4-6.7h3.7
	c2.3,0,4.9,0.8,6.2,2.1v-11.2h4V338H-47.9z M-48.3,318.4c-1.2-0.7-3.6-1.5-6.5-1.5h-3.7c-1.4,0-3,0.6-3,3.4v12.1
	c0,2.7,2.1,2.9,3.6,2.9h3c3.3,0,5.6-0.5,6.7-0.8L-48.3,318.4L-48.3,318.4z"/>
<path class="st1" d="M-10,338c-0.1-0.8-0.1-0.8-0.3-2.3h-0.2c-0.8,1.5-2.6,2.8-5.7,2.8h-5.2c-3.8,0-6.7-2.1-6.7-5.4v-2.7
	c0-4.5,2.9-6.4,7.3-6.4h9.6v-4c0-2.6-1.5-3-4.1-3h-11.1v-2.2c1.4-0.8,4.4-1.1,6.1-1.1h5.5c4.1,0,7.6,1.3,7.6,6v10.5
	c0,3.7,0.2,5.5,0.5,7.9H-10z M-11,326.7h-9.3c-2.3,0-3.7,0.7-3.7,3.1v2.9c0,2.1,1.6,2.8,3.5,2.8h5.3c2.1,0,4.2-0.9,4.2-3.9
	L-11,326.7L-11,326.7z"/>
<path class="st1" d="M13.6,338.5H8.3c-6.2,0-9.4-2.4-9.4-8.3v-8.5c0-5.6,3.2-8.1,9.2-8.1h6.1c1.6,0,3.5,0.3,4.9,1.1v2.1H7
	c-2.8,0-4.2,1.7-4.2,4.2v9.6c0,3.3,1.2,4.7,4.9,4.7H19v2C17.6,338.3,15.3,338.5,13.6,338.5z"/>
<path class="st1" d="M39.4,338.5h-5.3c-6.2,0-9.4-2.4-9.4-8.3v-8.5c0-5.6,3.2-8.1,9.2-8.1h6.1c1.6,0,3.5,0.3,4.9,1.1v2.1h-12
	c-2.8,0-4.2,1.7-4.2,4.2v9.6c0,3.3,1.2,4.7,4.9,4.7h11.3v2C43.4,338.3,41.1,338.5,39.4,338.5z"/>
<path class="st1" d="M69.1,326.7H54.9v4.3c0,2.9,1.2,4.4,5.1,4.4h11.9v1.7c-1,0.8-3.1,1.4-5.2,1.4h-6.7c-4.6,0-8.9-2-8.9-7.7v-8.9
	c0-6.7,4.4-8.3,10-8.3h2.3c5,0,9.4,1.4,9.4,7.8v4.8L69.1,326.7z M68.7,320.6c0-3.2-1.8-4-5.1-4H60c-3.8,0-5.2,1.5-5.2,4.5v2.8h13.8
	V320.6z M61.4,310.6l-6.1-6.3l4-1l5.4,7.4H61.4z"/>
<path class="st1" d="M-197.7,396.2c-0.1-0.8-0.1-0.8-0.3-2.3h-0.1c-0.8,1.5-2.6,2.8-5.7,2.8h-5.2c-3.8,0-6.7-2.1-6.7-5.4v-2.7
	c0-4.5,2.9-6.4,7.3-6.4h9.6v-4c0-2.6-1.5-3-4.1-3H-214v-2.2c1.4-0.8,4.4-1.1,6.1-1.1h5.5c4.1,0,7.6,1.3,7.6,6v10.5
	c0,3.7,0.2,5.5,0.5,7.9L-197.7,396.2L-197.7,396.2z M-198.7,384.9h-9.3c-2.3,0-3.7,0.7-3.7,3.1v2.9c0,2.1,1.6,2.8,3.5,2.8h5.3
	c2.1,0,4.2-0.9,4.2-3.9V384.9z"/>
<path class="st1" d="M-171.9,396.2l-0.1-1.6c-1.8,1.5-4.5,2.2-6.8,2.2h-4c-3.3,0-6.5-1.3-6.5-5.3v-19h4V391c0,2,1.7,2.5,3.3,2.5h4
	c2.7,0,5-0.4,6-0.7v-20.3h4v23.8H-171.9z"/>
<path class="st1" d="M-153.2,396.7c-4.4,0-7.1-1.1-7.1-5v-15.9h-4.6v-2.7h4.6v-6.6l4-0.5v7.1h8.9v2.7h-8.9v15.3
	c0,1.1,0.1,2.6,2.4,2.6h6.5v2.1C-148.6,396.4-151.5,396.7-153.2,396.7z"/>
<path class="st1" d="M-133.2,396.7h-5c-5.4,0-8.8-2.6-8.8-7.7v-9.5c0-5.1,3.4-7.7,8.8-7.7h5c5.5,0,8.5,3,8.5,7.9v9
	C-124.8,393.7-127.8,396.7-133.2,396.7z M-128.7,379.1c0-2.2-1.1-4.3-3.8-4.3h-6.4c-2.9,0-4,1.9-4,4.3v10.3c0,2.4,1.1,4.4,4,4.4h6.4
	c2.7,0,3.8-2.1,3.8-4.3V379.1z"/>
<path class="st1" d="M-78.3,396.7h-5c-5.4,0-8.8-2.6-8.8-7.7v-9.5c0-5.1,3.4-7.7,8.8-7.7h5c5.5,0,8.5,3,8.5,7.9v9
	C-69.9,393.7-72.9,396.7-78.3,396.7z M-73.8,379.1c0-2.2-1.1-4.3-3.8-4.3h-6.5c-2.9,0-4,1.9-4,4.3v10.3c0,2.4,1.1,4.4,4,4.4h6.5
	c2.7,0,3.8-2.1,3.8-4.3V379.1z"/>
<path class="st1" d="M-5.3,384.9h-14.2v4.3c0,2.9,1.2,4.4,5.1,4.4h11.8v1.7c-1,0.8-3.1,1.4-5.2,1.4h-6.7c-4.6,0-8.9-2-8.9-7.7v-8.9
	c0-6.7,4.4-8.3,10-8.3h2.3c5,0,9.4,1.4,9.4,7.8v4.8L-5.3,384.9z M-5.8,378.9c0-3.3-1.8-4-5.1-4h-3.5c-3.8,0-5.2,1.6-5.2,4.5v2.8
	h13.8L-5.8,378.9L-5.8,378.9z"/>
<rect x="-37.9" y="304.4" class="st1" width="3.6" height="12.3"/>
<path class="st1" d="M-33.9,397.5v-19.3c0-2-1.7-2.6-3.2-2.6h-2.5c-2.5,0-4.7,0.4-5.7,0.7v21.1H-49v-19.3c0-2-1.7-2.6-3.2-2.6H-55
	c-2.2,0-4.1,0.4-5.4,0.7v21.1h-3.8v-24.7h3.6l0.1,1.7c1.7-1.6,4.3-2.3,6.5-2.3h2.5c2.4,0,4.6,0.8,5.6,2.8c1.5-1.9,4.4-2.8,7.2-2.8
	h2.4c3.2,0,6.2,1.4,6.2,5.6v19.7L-33.9,397.5L-33.9,397.5z"/>
<path class="st2" d="M-177.6,483.8c-0.6,0-1.4,0.3-1.5,1.7c-0.1,0.9-4.5,9.6-10.1,9.6c-4.5,0-9.5-0.4-10.3-1.1
	c-0.9-0.8-0.9-5.6-0.9-12.2v-10.5c0-9.1,0-10.7,0.1-12.6c0.1-2.2,0.6-2.4,1.5-2.6c0.7-0.1,1.6-0.2,2.2-0.2c1.6,0,2-0.8,2-1.4
	c0-1-0.7-1.4-2.2-1.4c-1.3,0-3.3,0.1-5,0.1c-1.3,0-4.8,0.1-5.5,0.1c-0.7,0-1.8,0-3-0.1c-1.7-0.1-3.6-0.1-5.2-0.1
	c-0.5,0-2.2,0-2.2,1.4c0,0.5,0.3,1.4,1.9,1.4c0.7,0,1.4,0.1,1.8,0.2c1.4,0.3,1.8,0.8,1.9,2.6c0.1,1.9,0.1,3.5,0.1,12.6v10.5
	c0,5.5,0,10.2-0.3,12.6c-0.2,1.8-0.5,2.4-1,2.5c-0.7,0.1-1.3,0.2-1.9,0.2c-1.7,0-1.9,1-1.9,1.4c0,0.4,0.2,1.5,2.1,1.5
	c0.6,0,1.3,0,2-0.1c0.7,0,1.5-0.1,2.2-0.1c1.4-0.1,2.7-0.1,3.4-0.1c0,0,0,0,0,0c2.2,0,6.7,0,9.6,0.2l2.2,0.1
	c2.2,0.1,8.4,0.1,11.6,0.1c3.1,0,4.1-0.3,4.6-2.3c0.5-1.9,3.4-11.6,3.4-12.3C-176.3,485.2-176.3,483.8-177.6,483.8z"/>
<path class="st2" d="M-148.9,452.3c-16.8,0-24.4,12.6-24.4,24.3s7.5,24.3,23.8,24.3c14.4,0,24.4-10.5,24.4-25.4
	C-125,461.4-134.4,452.3-148.9,452.3z M-147.5,496.1c-7.9,0-13.2-8.6-13.2-21.4c0-15.5,6.5-17.8,10.4-17.8c7.4,0,12.6,8.6,12.6,20.8
	C-137.7,494.4-144.6,496.1-147.5,496.1z"/>
<path class="st2" d="M-36.6,452.3c-16.8,0-24.4,12.6-24.4,24.3s7.5,24.3,23.8,24.3c14.4,0,24.4-10.5,24.4-25.4
	C-12.7,461.4-22.1,452.3-36.6,452.3z M-35.2,496.1c-7.9,0-13.2-8.6-13.2-21.4c0-15.5,6.5-17.8,10.4-17.8c7.4,0,12.6,8.6,12.6,20.8
	C-25.4,494.4-32.3,496.1-35.2,496.1z"/>
<rect x="-122.2" y="445.7" class="st3" width="58" height="58"/>
<rect x="-323.6" y="513" class="st3" width="460.3" height="5.9"/>
<path class="st2" d="M-66.7,497.2c-0.5,0-1.5-0.1-3.4-0.8c-2.9-1.1-17.1-19.5-20.1-23.2c2.7-2.8,12.8-15.8,14.7-16.6
	c1-0.4,2.4-0.6,3.2-0.6c1.6,0,1.8-1,1.8-1.4c0-0.3-0.1-1.4-1.9-1.4c-0.9,0-2.2,0-3.5,0.1c-1.3,0-2.5,0.1-3.5,0.1
	c-0.9,0-2.2,0-3.4-0.1c-1.1,0-2.2-0.1-2.7-0.1c-1.6,0-1.9,0.9-1.9,1.4c0,1.1,1.1,1.4,1.6,1.5c0,0,0,0.1,0,0.3c0,0.6-1.3,2.1-2.5,3.6
	l-0.3,0.3c-1,1.2-4.6,4.9-7.8,8.2c-1.3,1.3-2.5,2.6-3.4,3.6v-0.7c0-9.1,0-10.7,0.1-12.6c0.1-2.2,0.6-2.4,1.5-2.6
	c0.7-0.1,1-0.2,1.5-0.2c1.7,0,1.7-1.2,1.7-1.4c0-1-0.7-1.4-2.2-1.4c-1.1,0-2.7,0.1-4.2,0.1c-1.2,0-4.7,0.1-5.4,0.1
	c-0.6,0-1.5,0-2.6-0.1c-1.7-0.1-3.8-0.1-5.7-0.1c-0.5,0-2.2,0-2.2,1.4c0,0.5,0.3,1.4,1.9,1.4c0.9,0,1.8,0.1,2.1,0.2
	c1.4,0.3,1.8,0.8,1.9,2.6c0.1,1.9,0.1,3.5,0.1,12.6v10.5c0,5.5,0,10.2-0.3,12.6c-0.2,1.8-0.5,2.4-1,2.5c-0.7,0.1-1.3,0.2-2,0.2
	c-1.7,0-1.9,1-1.9,1.4c0,0.4,0.2,1.5,2.1,1.5c1.4,0,3.2-0.1,4.8-0.1c1.2,0,2.2-0.1,2.8-0.1c0.6,0,3.9,0,5,0.1
	c1.7,0.1,3.9,0.1,5.9,0.1c1.9,0,2-1.2,2-1.5c0-0.7-0.5-1.4-1.7-1.4c-0.7,0-2-0.1-2.8-0.2c-0.4-0.1-1.2-0.2-1.4-2.4
	c-0.2-2.5-0.2-7.3-0.2-12.7v-3.2c2.8,3.5,12.7,15,15.1,17.2c2.6,2.3,4.4,3.8,7.9,4.1c1.3,0.1,2.4,0.1,4.2,0.1h5.2
	c0.6,0,2.3,0,2.3-1.5C-65,498-65.5,497.2-66.7,497.2z"/>
<path class="st2" d="M28.1,460.2c-6.2-7.1-15.7-7.1-22.7-7.1c-1.9,0-3.9,0.1-5.6,0.1c-1.2,0-2.2,0.1-2.9,0.1c-0.6,0-1.6,0-2.8-0.1
	c-1.6,0-3.5-0.1-5.2-0.1c-0.5,0-2,0-2,1.4c0,0.5,0.2,1.4,1.8,1.4c0.8,0,1.6,0.1,2,0.2c1.3,0.3,1.6,0.8,1.7,2.6
	c0.1,1.9,0.1,3.5,0.1,12.6v10.5c0,5.5,0,10.2-0.3,12.6c-0.2,1.8-0.5,2.4-1,2.5c-0.6,0.1-1.2,0.2-1.8,0.2c-1.6,0-1.7,1.1-1.7,1.4
	c0,0.4,0.2,1.5,1.9,1.5c0.5,0,1.2,0,1.8-0.1c0.7,0,1.3-0.1,2-0.1c1.3-0.1,2.5-0.1,3.1-0.1l0,0c1.2,0,2.8,0.1,4.5,0.3l0.8,0.1
	c2.1,0.2,4.4,0.4,6.4,0.4c11.2,0,17-5.1,19-7.3c1.9-2.1,6.2-7.9,6.2-17.3C33.7,468.1,30.7,463.1,28.1,460.2z M4,470.1
	c0-4.5,0-9.7,0-11.7c0-0.2,0-0.3,0.1-0.4c0.2-0.1,1.5-0.3,2.4-0.3c4.8,0,8.5,1.8,11.3,5.6c1.1,1.5,3.8,6,3.8,14
	c0,6.7-1.1,11.2-3.3,13.9c-2.3,2.8-5,4-9.1,4c-2.9,0-4.5-1-4.9-2c-0.1-0.2-0.3-0.9-0.3-4c0-1.1-0.1-5.6-0.1-11.8L4,470.1L4,470.1z"
	/>
<text transform="matrix(1.3092 0 0 1 -220.626 554.0588)" class="st2 st4 st5">la référence qualité</text>
</svg>
