<?xml version="1.0" encoding="utf-8"?>
<!-- Generator: Adobe Illustrator 19.1.0, SVG Export Plug-In . SVG Version: 6.00 Build 0)  -->
<svg version="1.1" id="Calque_1" xmlns="http://www.w3.org/2000/svg" xmlns:xlink="http://www.w3.org/1999/xlink" x="0px" y="0px"
	 viewBox="-345 170.9 500 500" style="enable-background:new -345 170.9 500 500;" xml:space="preserve">
<style type="text/css">
	.st0{fill:#032B35;}
	.st1{fill:#E21F20;}
	.st2{fill:#FFFFFF;}
	.st3{fill:#E32122;}
</style>
<path class="st0" d="M-324.3,271.7v150.1v148.3H135V421.8V271.7H-324.3z M-317.2,421.8V278.9h445v142.9H-317.2L-317.2,421.8z"/>
<path class="st1" d="M-272.8,335.9h-7.9c-7.8,0-11-3.8-11-10.8V314c0-7,3.1-10.8,11-10.8h7.9c1.6,0,4.4,0.2,5.7,1.2v2.2h-13.7
	c-5.6,0-6.6,3.2-6.6,7.6v10.7c0,4.5,0.9,7.6,6.6,7.6h13.7v2.2C-268.4,335.7-271.1,335.9-272.8,335.9z"/>
<path class="st1" d="M-247.9,335.9h-5c-5.4,0-8.8-2.6-8.8-7.7v-9.5c0-5.1,3.4-7.7,8.8-7.7h5c5.5,0,8.5,3,8.5,8v8.9
	C-239.4,332.9-242.4,335.9-247.9,335.9z M-243.3,318.3c0-2.2-1.1-4.3-3.8-4.3h-6.5c-2.9,0-4,1.9-4,4.3v10.3c0,2.4,1.1,4.4,4,4.4h6.5
	c2.7,0,3.8-2.1,3.8-4.3V318.3z"/>
<path class="st1" d="M-216.5,335.4v-18.6c0-2-1.7-2.5-3.3-2.5h-4c-2.7,0-5,0.4-6,0.7v20.4h-4v-23.8h3.8l0.2,1.6
	c1.8-1.6,4.5-2.2,6.8-2.2h4c3.3,0,6.5,1.3,6.5,5.3v19L-216.5,335.4L-216.5,335.4z"/>
<path class="st1" d="M-103.8,393.7v-18.6c0-2-1.7-2.5-3.3-2.5h-4c-2.7,0-5,0.4-6,0.7v20.3h-4v-23.8h3.8l0.1,1.6
	c1.8-1.6,4.5-2.2,6.8-2.2h4c3.3,0,6.5,1.3,6.5,5.3v19L-103.8,393.7L-103.8,393.7z"/>
<path class="st1" d="M-198.2,335.9c-4.4,0-7.1-1.1-7.1-5V315h-4.6v-2.7h4.6v-6.6l4-0.5v7.1h8.9v2.7h-8.9v15.3c0,1.1,0.1,2.7,2.4,2.7
	h6.5v2.1C-193.6,335.6-196.5,335.9-198.2,335.9z"/>
<path class="st1" d="M-179.5,314.5c-3.8,0-6.2,0.6-7.8,1.2v19.7h-4v-23.8h3.6l0.2,2c1.7-1.3,5.1-2.3,7.5-2.3c0.7,0,2.5,0.1,3.8,0.2
	v3.1L-179.5,314.5L-179.5,314.5z"/>
<path class="st1" d="M-162.5,335.9h-5c-5.4,0-8.8-2.6-8.8-7.7v-9.5c0-5.1,3.4-7.7,8.8-7.7h5c5.5,0,8.5,3,8.5,8v8.9
	C-154,332.9-157,335.9-162.5,335.9z M-158,318.3c0-2.2-1.1-4.3-3.8-4.3h-6.4c-2.9,0-4,1.9-4,4.3v10.3c0,2.4,1.1,4.4,4,4.4h6.4
	c2.7,0,3.8-2.1,3.8-4.3V318.3z M-161.4,308l-3.8-5.3l-3.7,5.3h-3.3l5.1-7.2h3.6l5.3,7.2H-161.4z"/>
<path class="st1" d="M-147.9,335.4V302h4v33.4H-147.9z"/>
<path class="st1" d="M-118.4,324.1h-14.2v4.3c0,2.9,1.2,4.4,5.1,4.4h11.9v1.7c-1,0.8-3.1,1.4-5.2,1.4h-6.7c-4.6,0-8.9-2-8.9-7.7
	v-8.9c0-6.7,4.4-8.3,10-8.3h2.3c5,0,9.4,1.4,9.4,7.8v4.8L-118.4,324.1z M-118.8,318c0-3.2-1.8-4-5.1-4h-3.5c-3.8,0-5.2,1.5-5.2,4.5
	v2.8h13.8V318z"/>
<path class="st1" d="M-95,335.9h-8.1c-1.3,0-8.5,0-8.5,0l3.9-3.2h12.1c3.3,0,3.5-1.5,3.5-2.7v-2.4c0-1.9-1-2.2-2.8-2.3l-7-0.6
	c-3-0.2-5.9-1.5-5.9-4.9v-3c0-3,2.5-5.7,7.2-5.7h6.6c1.3,0,9.3,0.1,9.3,0.1l-4.7,3.1h-11.1c-3.1,0-3.3,1.2-3.3,2.8v2.3
	c0,1.8,1.3,1.9,2.7,2.1l7,0.6c3.6,0.3,6,1.6,6,5v2.9C-88.2,333.9-91.3,335.9-95,335.9z"/>
<path class="st1" d="M18,393.9H9.9c-1.3,0-8.5,0-8.5,0l3.9-3.2h12.1c3.3,0,3.5-1.5,3.5-2.7v-2.4c0-1.9-1-2.2-2.8-2.3l-7-0.6
	c-3-0.2-5.9-1.5-5.9-4.9v-3c0-3,2.5-5.7,7.2-5.7H19c1.3,0,9.3,0.1,9.3,0.1l-4.7,3.1H12.5c-3.1,0-3.3,1.2-3.3,2.8v2.3
	c0,1.8,1.3,1.9,2.7,2.1l7,0.6c3.6,0.3,6,1.6,6,5v2.9C24.8,391.9,21.8,393.9,18,393.9z"/>
<path class="st1" d="M91.8,335.9h-8.1c-1.3,0-8.5,0-8.5,0l3.9-3.2h12.1c3.3,0,3.5-1.5,3.5-2.7v-2.4c0-1.9-1-2.2-2.8-2.3l-7-0.6
	c-3-0.2-5.9-1.5-5.9-4.9v-3c0-3,2.5-5.7,7.2-5.7h6.6c1.3,0,9.3,0.1,9.3,0.1l-4.7,3.1H86.3c-3.1,0-3.3,1.2-3.3,2.8v2.3
	c0,1.8,1.3,1.9,2.7,2.1l7,0.6c3.6,0.3,6,1.6,6,5v2.9C98.6,333.9,95.6,335.9,91.8,335.9z"/>
<path class="st1" d="M-49.4,335.4l-0.3-1.7c-1.9,1.7-4.5,2.3-7,2.3h-4.1c-2.8,0-6.3-1.2-6.3-5.5v-12.7c0-4.3,3.1-6.7,7.4-6.7h3.7
	c2.3,0,4.9,0.8,6.2,2.1V302h4v33.4H-49.4z M-49.8,315.8c-1.2-0.7-3.6-1.5-6.5-1.5H-60c-1.4,0-3,0.6-3,3.4v12.1
	c0,2.7,2.1,2.9,3.6,2.9h3c3.3,0,5.6-0.5,6.7-0.8L-49.8,315.8L-49.8,315.8z"/>
<path class="st1" d="M-11.5,335.4c-0.1-0.8-0.1-0.8-0.3-2.3H-12c-0.8,1.5-2.6,2.8-5.7,2.8h-5.2c-3.8,0-6.7-2.1-6.7-5.4v-2.7
	c0-4.5,2.9-6.4,7.3-6.4h9.6v-4c0-2.6-1.5-3-4.1-3h-11.1v-2.2c1.4-0.8,4.4-1.1,6.1-1.1h5.5c4.1,0,7.6,1.3,7.6,6v10.5
	c0,3.7,0.2,5.5,0.5,7.9L-11.5,335.4L-11.5,335.4z M-12.5,324.1h-9.3c-2.3,0-3.7,0.7-3.7,3.1v2.9c0,2.1,1.6,2.8,3.5,2.8h5.3
	c2.1,0,4.2-0.9,4.2-3.9V324.1L-12.5,324.1z"/>
<path class="st1" d="M12.1,335.9H6.8c-6.2,0-9.4-2.4-9.4-8.3v-8.5c0-5.6,3.2-8.1,9.2-8.1h6.1c1.6,0,3.5,0.3,4.9,1.1v2.1H5.5
	c-2.8,0-4.2,1.7-4.2,4.2v9.6c0,3.3,1.2,4.7,4.9,4.7h11.3v2C16.1,335.7,13.8,335.9,12.1,335.9z"/>
<path class="st1" d="M37.9,335.9h-5.3c-6.2,0-9.4-2.4-9.4-8.3v-8.5c0-5.6,3.2-8.1,9.2-8.1h6.1c1.6,0,3.5,0.3,4.9,1.1v2.1h-12
	c-2.8,0-4.2,1.7-4.2,4.2v9.6c0,3.3,1.2,4.7,4.9,4.7h11.3v2C41.9,335.7,39.6,335.9,37.9,335.9z"/>
<path class="st1" d="M67.6,324.1H53.4v4.3c0,2.9,1.2,4.4,5.1,4.4h11.9v1.7c-1,0.8-3.1,1.4-5.2,1.4h-6.7c-4.6,0-8.9-2-8.9-7.7v-8.9
	c0-6.7,4.4-8.3,10-8.3h2.3c5,0,9.4,1.4,9.4,7.8v4.8L67.6,324.1z M67.2,318c0-3.2-1.8-4-5.1-4h-3.6c-3.8,0-5.2,1.5-5.2,4.5v2.8h13.8
	L67.2,318L67.2,318z M59.9,308l-6.1-6.3l4-1l5.4,7.4h-3.3V308z"/>
<path class="st1" d="M-199.2,393.6c-0.1-0.8-0.1-0.8-0.3-2.3h-0.1c-0.8,1.5-2.6,2.8-5.7,2.8h-5.2c-3.8,0-6.7-2.1-6.7-5.4V386
	c0-4.5,2.9-6.4,7.3-6.4h9.6v-4c0-2.6-1.5-3-4.1-3h-11.1v-2.2c1.4-0.8,4.4-1.1,6.1-1.1h5.5c4.1,0,7.6,1.3,7.6,6v10.5
	c0,3.7,0.2,5.5,0.5,7.9L-199.2,393.6L-199.2,393.6z M-200.2,382.3h-9.3c-2.3,0-3.7,0.7-3.7,3.1v2.9c0,2.1,1.6,2.8,3.5,2.8h5.3
	c2.1,0,4.2-0.9,4.2-3.9V382.3z"/>
<path class="st1" d="M-173.4,393.6l-0.1-1.6c-1.8,1.5-4.5,2.2-6.8,2.2h-4c-3.3,0-6.5-1.3-6.5-5.3v-19h4v18.5c0,2,1.7,2.5,3.3,2.5h4
	c2.7,0,5-0.4,6-0.7v-20.3h4v23.8L-173.4,393.6L-173.4,393.6z"/>
<path class="st1" d="M-154.7,394.1c-4.4,0-7.1-1.1-7.1-5v-15.9h-4.6v-2.7h4.6v-6.6l4-0.5v7.1h8.9v2.7h-8.9v15.3
	c0,1.1,0.1,2.6,2.4,2.6h6.5v2.1C-150.1,393.8-153,394.1-154.7,394.1z"/>
<path class="st1" d="M-134.7,394.1h-5c-5.4,0-8.8-2.6-8.8-7.7v-9.5c0-5.1,3.4-7.7,8.8-7.7h5c5.5,0,8.5,3,8.5,7.9v9
	C-126.3,391.1-129.3,394.1-134.7,394.1z M-130.2,376.5c0-2.2-1.1-4.3-3.8-4.3h-6.4c-2.9,0-4,1.9-4,4.3v10.3c0,2.4,1.1,4.4,4,4.4h6.4
	c2.7,0,3.8-2.1,3.8-4.3V376.5z"/>
<path class="st1" d="M-79.8,394.1h-5c-5.4,0-8.8-2.6-8.8-7.7v-9.5c0-5.1,3.4-7.7,8.8-7.7h5c5.5,0,8.5,3,8.5,7.9v9
	C-71.4,391.1-74.4,394.1-79.8,394.1z M-75.3,376.5c0-2.2-1.1-4.3-3.8-4.3h-6.5c-2.9,0-4,1.9-4,4.3v10.3c0,2.4,1.1,4.4,4,4.4h6.5
	c2.7,0,3.8-2.1,3.8-4.3V376.5z"/>
<path class="st1" d="M-6.8,382.3H-21v4.3c0,2.9,1.2,4.4,5.1,4.4h11.8v1.7c-1,0.8-3.1,1.4-5.2,1.4H-16c-4.6,0-8.9-2-8.9-7.7v-8.9
	c0-6.7,4.4-8.3,10-8.3h2.3c5,0,9.4,1.4,9.4,7.8v4.8L-6.8,382.3z M-7.3,376.3c0-3.3-1.8-4-5.1-4h-3.5c-3.8,0-5.2,1.6-5.2,4.5v2.8
	h13.8L-7.3,376.3L-7.3,376.3z"/>
<rect x="-39.4" y="301.8" class="st1" width="3.6" height="12.3"/>
<path class="st1" d="M-35.4,394.9v-19.3c0-2-1.7-2.6-3.2-2.6h-2.5c-2.5,0-4.7,0.4-5.7,0.7v21.1h-3.7v-19.3c0-2-1.7-2.6-3.2-2.6h-2.8
	c-2.2,0-4.1,0.4-5.4,0.7v21.1h-3.8V370h3.6l0.1,1.7c1.7-1.6,4.3-2.3,6.5-2.3h2.5c2.4,0,4.6,0.8,5.6,2.8c1.5-1.9,4.4-2.8,7.2-2.8h2.4
	c3.2,0,6.2,1.4,6.2,5.6v19.7L-35.4,394.9L-35.4,394.9z"/>
<path class="st2" d="M-179.1,481.2c-0.6,0-1.4,0.3-1.5,1.7c-0.1,0.9-4.5,9.6-10.1,9.6c-4.5,0-9.5-0.4-10.3-1.1
	c-0.9-0.8-0.9-5.6-0.9-12.2v-10.5c0-9.1,0-10.7,0.1-12.6c0.1-2.2,0.6-2.4,1.5-2.6c0.7-0.1,1.6-0.2,2.2-0.2c1.6,0,2-0.8,2-1.4
	c0-1-0.7-1.4-2.2-1.4c-1.3,0-3.3,0.1-5,0.1c-1.3,0-4.8,0.1-5.5,0.1s-1.8,0-3-0.1c-1.7-0.1-3.6-0.1-5.2-0.1c-0.5,0-2.2,0-2.2,1.4
	c0,0.5,0.3,1.4,1.9,1.4c0.7,0,1.4,0.1,1.8,0.2c1.4,0.3,1.8,0.8,1.9,2.6c0.1,1.9,0.1,3.5,0.1,12.6v10.5c0,5.5,0,10.2-0.3,12.6
	c-0.2,1.8-0.5,2.4-1,2.5c-0.7,0.1-1.3,0.2-1.9,0.2c-1.7,0-1.9,1-1.9,1.4s0.2,1.5,2.1,1.5c0.6,0,1.3,0,2-0.1c0.7,0,1.5-0.1,2.2-0.1
	c1.4-0.1,2.7-0.1,3.4-0.1l0,0c2.2,0,6.7,0,9.6,0.2l2.2,0.1c2.2,0.1,8.4,0.1,11.6,0.1c3.1,0,4.1-0.3,4.6-2.3
	c0.5-1.9,3.4-11.6,3.4-12.3C-177.8,482.6-177.8,481.2-179.1,481.2z"/>
<path class="st2" d="M-150.4,449.7c-16.8,0-24.4,12.6-24.4,24.3s7.5,24.3,23.8,24.3c14.4,0,24.4-10.5,24.4-25.4
	C-126.5,458.8-135.9,449.7-150.4,449.7z M-149,493.5c-7.9,0-13.2-8.6-13.2-21.4c0-15.5,6.5-17.8,10.4-17.8c7.4,0,12.6,8.6,12.6,20.8
	C-139.2,491.8-146.1,493.5-149,493.5z"/>
<path class="st2" d="M-38.1,449.7c-16.8,0-24.4,12.6-24.4,24.3s7.5,24.3,23.8,24.3c14.4,0,24.4-10.5,24.4-25.4
	C-14.2,458.8-23.6,449.7-38.1,449.7z M-36.7,493.5c-7.9,0-13.2-8.6-13.2-21.4c0-15.5,6.5-17.8,10.4-17.8c7.4,0,12.6,8.6,12.6,20.8
	C-26.9,491.8-33.8,493.5-36.7,493.5z"/>
<rect x="-123.7" y="443.1" class="st3" width="58" height="58"/>
<rect x="-325.1" y="510.4" class="st3" width="460.3" height="5.9"/>
<path class="st2" d="M-68.2,494.6c-0.5,0-1.5-0.1-3.4-0.8c-2.9-1.1-17.1-19.5-20.1-23.2c2.7-2.8,12.8-15.8,14.7-16.6
	c1-0.4,2.4-0.6,3.2-0.6c1.6,0,1.8-1,1.8-1.4c0-0.3-0.1-1.4-1.9-1.4c-0.9,0-2.2,0-3.5,0.1c-1.3,0-2.5,0.1-3.5,0.1
	c-0.9,0-2.2,0-3.4-0.1c-1.1,0-2.2-0.1-2.7-0.1c-1.6,0-1.9,0.9-1.9,1.4c0,1.1,1.1,1.4,1.6,1.5c0,0,0,0.1,0,0.3c0,0.6-1.3,2.1-2.5,3.6
	l-0.3,0.3c-1,1.2-4.6,4.9-7.8,8.2c-1.3,1.3-2.5,2.6-3.4,3.6v-0.7c0-9.1,0-10.7,0.1-12.6c0.1-2.2,0.6-2.4,1.5-2.6
	c0.7-0.1,1-0.2,1.5-0.2c1.7,0,1.7-1.2,1.7-1.4c0-1-0.7-1.4-2.2-1.4c-1.1,0-2.7,0.1-4.2,0.1c-1.2,0-4.7,0.1-5.4,0.1
	c-0.6,0-1.5,0-2.6-0.1c-1.7-0.1-3.8-0.1-5.7-0.1c-0.5,0-2.2,0-2.2,1.4c0,0.5,0.3,1.4,1.9,1.4c0.9,0,1.8,0.1,2.1,0.2
	c1.4,0.3,1.8,0.8,1.9,2.6c0.1,1.9,0.1,3.5,0.1,12.6v10.5c0,5.5,0,10.2-0.3,12.6c-0.2,1.8-0.5,2.4-1,2.5c-0.7,0.1-1.3,0.2-2,0.2
	c-1.7,0-1.9,1-1.9,1.4s0.2,1.5,2.1,1.5c1.4,0,3.2-0.1,4.8-0.1c1.2,0,2.2-0.1,2.8-0.1c0.6,0,3.9,0,5,0.1c1.7,0.1,3.9,0.1,5.9,0.1
	c1.9,0,2-1.2,2-1.5c0-0.7-0.5-1.4-1.7-1.4c-0.7,0-2-0.1-2.8-0.2c-0.4-0.1-1.2-0.2-1.4-2.4c-0.2-2.5-0.2-7.3-0.2-12.7v-3.2
	c2.8,3.5,12.7,15,15.1,17.2c2.6,2.3,4.4,3.8,7.9,4.1c1.3,0.1,2.4,0.1,4.2,0.1h5.2c0.6,0,2.3,0,2.3-1.5
	C-66.5,495.4-67,494.6-68.2,494.6z"/>
<path class="st2" d="M26.6,457.6c-6.2-7.1-15.7-7.1-22.7-7.1c-1.9,0-3.9,0.1-5.6,0.1c-1.2,0-2.2,0.1-2.9,0.1c-0.6,0-1.6,0-2.8-0.1
	c-1.6,0-3.5-0.1-5.2-0.1c-0.5,0-2,0-2,1.4c0,0.5,0.2,1.4,1.8,1.4c0.8,0,1.6,0.1,2,0.2c1.3,0.3,1.6,0.8,1.7,2.6
	C-9,458-9,459.6-9,468.7v10.5c0,5.5,0,10.2-0.3,12.6c-0.2,1.8-0.5,2.4-1,2.5c-0.6,0.1-1.2,0.2-1.8,0.2c-1.6,0-1.7,1.1-1.7,1.4
	c0,0.4,0.2,1.5,1.9,1.5c0.5,0,1.2,0,1.8-0.1c0.7,0,1.3-0.1,2-0.1c1.3-0.1,2.5-0.1,3.1-0.1l0,0c1.2,0,2.8,0.1,4.5,0.3l0.8,0.1
	c2.1,0.2,4.4,0.4,6.4,0.4c11.2,0,17-5.1,19-7.3c1.9-2.1,6.2-7.9,6.2-17.3C32.2,465.5,29.2,460.5,26.6,457.6z M2.5,467.5
	c0-4.5,0-9.7,0-11.7c0-0.2,0-0.3,0.1-0.4c0.2-0.1,1.5-0.3,2.4-0.3c4.8,0,8.5,1.8,11.3,5.6c1.1,1.5,3.8,6,3.8,14
	c0,6.7-1.1,11.2-3.3,13.9c-2.3,2.8-5,4-9.1,4c-2.9,0-4.5-1-4.9-2c-0.1-0.2-0.3-0.9-0.3-4c0-1.1-0.1-5.6-0.1-11.8L2.5,467.5
	L2.5,467.5z"/>
<path class="st2" d="M-220.4,551.4v-15.2h2.4v15.2H-220.4z"/>
<path class="st2" d="M-204.8,550.1c-0.9,0.6-1.8,1-2.6,1.2c-0.8,0.2-1.7,0.4-2.7,0.4c-1.6,0-2.8-0.3-3.6-0.9
	c-0.8-0.6-1.3-1.3-1.3-2.3c0-0.5,0.2-1,0.5-1.5s0.7-0.8,1.3-1.1s1.1-0.5,1.8-0.6c0.5-0.1,1.2-0.2,2.2-0.3c2-0.2,3.4-0.4,4.3-0.6
	c0-0.3,0-0.4,0-0.5c0-0.8-0.2-1.3-0.7-1.6c-0.6-0.4-1.5-0.6-2.8-0.6c-1.1,0-2,0.2-2.5,0.5c-0.5,0.3-0.9,0.8-1.2,1.6l-2.4-0.2
	c0.2-0.8,0.6-1.4,1.1-1.9s1.2-0.8,2.2-1.1c0.9-0.3,2-0.4,3.3-0.4c1.2,0,2.2,0.1,3,0.3c0.8,0.2,1.3,0.5,1.7,0.8
	c0.4,0.3,0.6,0.8,0.8,1.3c0.1,0.3,0.1,0.9,0.1,1.7v2.5c0,1.7,0.1,2.8,0.2,3.3c0.1,0.5,0.3,0.9,0.6,1.3h-2.5
	C-204.6,551.1-204.7,550.6-204.8,550.1z M-205,545.9c-0.9,0.3-2.2,0.5-4,0.7c-1,0.1-1.7,0.2-2.1,0.4c-0.4,0.1-0.7,0.3-1,0.6
	c-0.2,0.3-0.3,0.6-0.3,0.9c0,0.5,0.2,0.9,0.7,1.2c0.5,0.3,1.2,0.5,2.2,0.5c0.9,0,1.8-0.2,2.5-0.5s1.3-0.7,1.6-1.3
	c0.3-0.4,0.4-1,0.4-1.9V545.9z"/>
<path class="st2" d="M-191.1,551.4v-11h2.2v1.7c0.6-0.8,1.1-1.3,1.5-1.5c0.5-0.2,1-0.4,1.6-0.4c0.8,0,1.7,0.2,2.5,0.6l-0.8,1.7
	c-0.6-0.3-1.2-0.4-1.8-0.4c-0.5,0-1,0.1-1.4,0.4c-0.4,0.2-0.7,0.6-0.9,1c-0.3,0.7-0.4,1.4-0.4,2.2v5.7H-191.1z"/>
<path class="st2" d="M-172,547.9l2.5,0.2c-0.4,1.1-1.1,2-2.2,2.6c-1.1,0.6-2.4,0.9-4.1,0.9c-2.1,0-3.8-0.5-5-1.5
	c-1.2-1-1.8-2.4-1.8-4.2c0-1.8,0.6-3.3,1.9-4.3s2.9-1.5,4.8-1.5c1.9,0,3.5,0.5,4.7,1.5s1.8,2.4,1.8,4.2c0,0.1,0,0.3,0,0.5h-10.7
	c0.1,1.2,0.5,2.1,1.3,2.8s1.8,1,3,1c0.9,0,1.7-0.2,2.3-0.5C-172.9,549.3-172.4,548.7-172,547.9z M-180,544.9h8
	c-0.1-0.9-0.4-1.6-0.9-2.1c-0.8-0.7-1.8-1.1-3-1.1c-1.1,0-2.1,0.3-2.8,0.9C-179.5,543.2-179.9,543.9-180,544.9z M-177.4,539.1
	l1.8-2.9h3.2l-3,2.9H-177.4z"/>
<path class="st2" d="M-165.9,551.4v-9.5h-2.2v-1.4h2.2v-1.2c0-0.7,0.1-1.3,0.3-1.6c0.2-0.5,0.6-0.9,1.2-1.2s1.4-0.4,2.5-0.4
	c0.7,0,1.4,0.1,2.3,0.2l-0.4,1.6c-0.5-0.1-1-0.1-1.4-0.1c-0.7,0-1.3,0.1-1.6,0.4c-0.3,0.2-0.5,0.7-0.5,1.4v1h2.8v1.4h-2.8v9.5
	H-165.9z"/>
<path class="st2" d="M-148.9,547.9l2.5,0.2c-0.4,1.1-1.1,2-2.2,2.6c-1.1,0.6-2.4,0.9-4.1,0.9c-2.1,0-3.8-0.5-5-1.5
	c-1.2-1-1.8-2.4-1.8-4.2c0-1.8,0.6-3.3,1.9-4.3s2.9-1.5,4.8-1.5c1.9,0,3.5,0.5,4.7,1.5s1.8,2.4,1.8,4.2c0,0.1,0,0.3,0,0.5H-157
	c0.1,1.2,0.5,2.1,1.3,2.8s1.8,1,3,1c0.9,0,1.7-0.2,2.3-0.5C-149.8,549.3-149.3,548.7-148.9,547.9z M-156.9,544.9h8
	c-0.1-0.9-0.4-1.6-0.9-2.1c-0.8-0.7-1.8-1.1-3-1.1c-1.1,0-2.1,0.3-2.8,0.9C-156.4,543.2-156.8,543.9-156.9,544.9z M-154.3,539.1
	l1.8-2.9h3.2l-3,2.9H-154.3z"/>
<path class="st2" d="M-143.4,551.4v-11h2.2v1.7c0.6-0.8,1.1-1.3,1.5-1.5c0.5-0.2,1-0.4,1.6-0.4c0.8,0,1.7,0.2,2.5,0.6l-0.8,1.7
	c-0.6-0.3-1.2-0.4-1.8-0.4c-0.5,0-1,0.1-1.4,0.4c-0.4,0.2-0.7,0.6-0.9,1c-0.3,0.7-0.4,1.4-0.4,2.2v5.7H-143.4z"/>
<path class="st2" d="M-124.3,547.9l2.5,0.2c-0.4,1.1-1.1,2-2.2,2.6c-1.1,0.6-2.4,0.9-4.1,0.9c-2.1,0-3.8-0.5-5-1.5
	c-1.2-1-1.8-2.4-1.8-4.2c0-1.8,0.6-3.3,1.9-4.3s2.9-1.5,4.8-1.5c1.9,0,3.5,0.5,4.7,1.5s1.8,2.4,1.8,4.2c0,0.1,0,0.3,0,0.5h-10.7
	c0.1,1.2,0.5,2.1,1.3,2.8s1.8,1,3,1c0.9,0,1.7-0.2,2.3-0.5C-125.1,549.3-124.6,548.7-124.3,547.9z M-132.3,544.9h8
	c-0.1-0.9-0.4-1.6-0.9-2.1c-0.8-0.7-1.8-1.1-3-1.1c-1.1,0-2.1,0.3-2.8,0.9C-131.8,543.2-132.2,543.9-132.3,544.9z"/>
<path class="st2" d="M-118.7,551.4v-11h2.2v1.6c1.1-1.2,2.6-1.8,4.6-1.8c0.9,0,1.7,0.1,2.4,0.4c0.7,0.2,1.3,0.5,1.6,0.9
	c0.4,0.4,0.6,0.8,0.8,1.4c0.1,0.3,0.1,0.9,0.1,1.8v6.7h-2.4v-6.7c0-0.8-0.1-1.3-0.3-1.7c-0.2-0.4-0.5-0.7-1-0.9
	c-0.5-0.2-1-0.3-1.7-0.3c-1,0-1.9,0.3-2.7,0.8c-0.8,0.5-1.1,1.5-1.1,2.9v6H-118.7z"/>
<path class="st2" d="M-93.9,547.4l2.4,0.2c-0.3,1.3-0.9,2.2-2,3c-1.1,0.7-2.4,1.1-4,1.1c-2,0-3.5-0.5-4.7-1.5
	c-1.2-1-1.8-2.4-1.8-4.2c0-1.2,0.3-2.2,0.8-3.1s1.3-1.6,2.3-2s2.2-0.7,3.4-0.7c1.6,0,2.8,0.3,3.8,0.9c1,0.6,1.6,1.5,1.9,2.6
	l-2.4,0.3c-0.2-0.7-0.6-1.3-1.2-1.7c-0.6-0.4-1.3-0.6-2.1-0.6c-1.2,0-2.2,0.3-3,1s-1.1,1.7-1.1,3.2c0,1.5,0.4,2.5,1.1,3.2
	c0.7,0.7,1.7,1,2.9,1c1,0,1.8-0.2,2.4-0.7C-94.5,549-94.1,548.4-93.9,547.4z"/>
<path class="st2" d="M-79.6,547.9l2.5,0.2c-0.4,1.1-1.1,2-2.2,2.6s-2.4,0.9-4.1,0.9c-2.1,0-3.8-0.5-5-1.5c-1.2-1-1.8-2.4-1.8-4.2
	c0-1.8,0.6-3.3,1.9-4.3c1.2-1,2.9-1.5,4.8-1.5c1.9,0,3.5,0.5,4.7,1.5s1.8,2.4,1.8,4.2c0,0.1,0,0.3,0,0.5h-10.7
	c0.1,1.2,0.5,2.1,1.3,2.8s1.8,1,3,1c0.9,0,1.7-0.2,2.3-0.5C-80.5,549.3-80,548.7-79.6,547.9z M-87.6,544.9h8
	c-0.1-0.9-0.4-1.6-0.9-2.1c-0.8-0.7-1.8-1.1-3-1.1c-1.1,0-2.1,0.3-2.8,0.9C-87.1,543.2-87.5,543.9-87.6,544.9z"/>
<path class="st2" d="M-57.2,555.7v-5.4c-0.4,0.4-0.9,0.7-1.6,1s-1.4,0.4-2.2,0.4c-1.7,0-3.2-0.5-4.4-1.6s-1.8-2.5-1.8-4.3
	c0-1.1,0.2-2.1,0.8-3c0.5-0.9,1.2-1.5,2.2-2c1-0.5,2-0.7,3.1-0.7c1.8,0,3.2,0.6,4.2,1.7v-1.5h2.2v15.2H-57.2z M-64.7,545.9
	c0,1.4,0.4,2.5,1.2,3.2s1.7,1.1,2.8,1.1c1,0,1.9-0.3,2.7-1c0.7-0.7,1.1-1.7,1.1-3.1c0-1.5-0.4-2.6-1.2-3.3s-1.7-1.1-2.8-1.1
	c-1.1,0-2,0.3-2.7,1S-64.7,544.5-64.7,545.9z"/>
<path class="st2" d="M-41.5,551.4v-1.6c-1.1,1.2-2.6,1.9-4.6,1.9c-0.8,0-1.6-0.1-2.4-0.4c-0.7-0.2-1.3-0.6-1.6-0.9
	c-0.4-0.4-0.6-0.8-0.8-1.4c-0.1-0.4-0.1-0.9-0.1-1.7v-6.8h2.4v6.1c0,1,0,1.6,0.1,2c0.2,0.5,0.5,0.9,1,1.2s1.1,0.4,1.8,0.4
	s1.4-0.1,2.1-0.4c0.6-0.3,1.1-0.7,1.4-1.2c0.3-0.5,0.4-1.2,0.4-2.1v-5.9h2.4v11H-41.5z"/>
<path class="st2" d="M-26.1,550.1c-0.9,0.6-1.8,1-2.6,1.2c-0.8,0.2-1.7,0.4-2.7,0.4c-1.6,0-2.8-0.3-3.6-0.9
	c-0.8-0.6-1.3-1.3-1.3-2.3c0-0.5,0.2-1,0.5-1.5s0.7-0.8,1.3-1.1s1.1-0.5,1.8-0.6c0.5-0.1,1.2-0.2,2.2-0.3c2-0.2,3.4-0.4,4.3-0.6
	c0-0.3,0-0.4,0-0.5c0-0.8-0.2-1.3-0.7-1.6c-0.6-0.4-1.5-0.6-2.8-0.6c-1.1,0-2,0.2-2.5,0.5c-0.5,0.3-0.9,0.8-1.2,1.6l-2.4-0.2
	c0.2-0.8,0.6-1.4,1.1-1.9s1.2-0.8,2.2-1.1c0.9-0.3,2-0.4,3.3-0.4c1.2,0,2.2,0.1,3,0.3c0.8,0.2,1.3,0.5,1.7,0.8
	c0.4,0.3,0.6,0.8,0.8,1.3c0.1,0.3,0.1,0.9,0.1,1.7v2.5c0,1.7,0.1,2.8,0.2,3.3c0.1,0.5,0.3,0.9,0.6,1.3h-2.5
	C-25.9,551.1-26.1,550.6-26.1,550.1z M-26.3,545.9c-0.9,0.3-2.2,0.5-4,0.7c-1,0.1-1.7,0.2-2.1,0.4c-0.4,0.1-0.7,0.3-1,0.6
	c-0.2,0.3-0.3,0.6-0.3,0.9c0,0.5,0.2,0.9,0.7,1.2c0.5,0.3,1.2,0.5,2.2,0.5c0.9,0,1.8-0.2,2.5-0.5s1.3-0.7,1.6-1.3
	c0.3-0.4,0.4-1,0.4-1.9V545.9z"/>
<path class="st2" d="M-20.2,551.4v-15.2h2.4v15.2H-20.2z"/>
<path class="st2" d="M-13.9,538.4v-2.1h2.4v2.1H-13.9z M-13.9,551.4v-11h2.4v11H-13.9z"/>
<path class="st2" d="M-2.5,549.8l0.4,1.6c-0.7,0.1-1.3,0.2-1.8,0.2c-0.9,0-1.6-0.1-2.1-0.3c-0.5-0.2-0.8-0.5-1-0.8
	c-0.2-0.3-0.3-1.1-0.3-2.2v-6.3h-1.8v-1.4h1.8v-2.7l2.4-1.1v3.8h2.4v1.4h-2.4v6.4c0,0.5,0,0.9,0.1,1c0.1,0.2,0.2,0.3,0.4,0.4
	c0.2,0.1,0.5,0.1,0.8,0.1C-3.3,549.9-2.9,549.8-2.5,549.8z"/>
<path class="st2" d="M9.7,547.9l2.5,0.2c-0.4,1.1-1.1,2-2.2,2.6s-2.4,0.9-4.1,0.9c-2.1,0-3.8-0.5-5-1.5c-1.2-1-1.8-2.4-1.8-4.2
	c0-1.8,0.6-3.3,1.9-4.3c1.2-1,2.9-1.5,4.8-1.5c1.9,0,3.5,0.5,4.7,1.5s1.8,2.4,1.8,4.2c0,0.1,0,0.3,0,0.5H1.6
	c0.1,1.2,0.5,2.1,1.3,2.8s1.8,1,3,1c0.9,0,1.7-0.2,2.3-0.5C8.9,549.3,9.4,548.7,9.7,547.9z M1.8,544.9h8c-0.1-0.9-0.4-1.6-0.9-2.1
	c-0.8-0.7-1.8-1.1-3-1.1c-1.1,0-2.1,0.3-2.8,0.9C2.3,543.2,1.8,543.9,1.8,544.9z M4.4,539.1l1.8-2.9h3.2l-3,2.9H4.4z"/>
</svg>
