<?xml version="1.0" encoding="utf-8"?>
<!-- Generator: Adobe Illustrator 21.1.0, SVG Export Plug-In . SVG Version: 6.00 Build 0)  -->
<svg version="1.1" id="Calque_1" xmlns="http://www.w3.org/2000/svg" xmlns:xlink="http://www.w3.org/1999/xlink" x="0px" y="0px"
	 viewBox="0 0 500 114" style="enable-background:new 0 0 500 114;" xml:space="preserve">
<style type="text/css">
	.st0{fill:#1D5632;}
	.st1{fill:#F8D800;}
	.st2{fill:#C7D200;}
</style>
<g>
	<path class="st0" d="M76.9,17.7H87v36.6c0,8.9,0.5,15.1,1.4,18.5c1.4,4.8,4.2,8.6,8.3,11.4c4.1,2.8,8.9,4.2,14.6,4.2
		c5.6,0,10.4-1.4,14.3-4.1c3.9-2.7,6.6-6.3,8.1-10.7c1-3,1.5-9.5,1.5-19.3V17.7h10.3v38.5c0,10.8-1.3,19-3.8,24.5
		c-2.5,5.5-6.3,9.8-11.4,12.9c-5.1,3.1-11.4,4.6-19.1,4.6c-7.6,0-14-1.5-19.1-4.6c-5.1-3.1-9-7.4-11.5-13
		c-2.5-5.6-3.8-13.9-3.8-25.1V17.7z"/>
	<path class="st0" d="M49.4,98.2c-7.6,0-14-1.6-19.1-4.6c-5.1-3.1-8.9-7.4-11.5-13C16.3,75,15,66.7,15,55.5V17.7h10.1v36.6
		c0,8.9,0.5,15.1,1.4,18.5c1.5,4.8,4.2,8.6,8.3,11.4c4.1,2.8,8.9,4.2,14.5,4.2h22.5v9.8H49.4z"/>
	<path class="st0" d="M230.8,34l-8,5c-6.9-9.2-16.4-13.8-28.3-13.8c-9.6,0-17.5,3.1-23.8,9.2c-6.3,6.1-9.5,13.6-9.5,22.4
		c0,5.7,1.5,11.1,4.4,16.1c2.9,5,6.9,8.9,12,11.7c5,2.8,10.8,4.2,17,4.2c11.5,0,20.9-4.6,28.2-13.8l8,5.3c-3.7,5.6-8.8,10-15.1,13.1
		c-6.3,3.1-13.5,4.7-21.6,4.7c-12.4,0-22.7-3.9-30.9-11.8c-8.2-7.9-12.3-17.5-12.3-28.8c0-7.6,1.9-14.6,5.7-21.2
		c3.8-6.5,9.1-11.6,15.8-15.3c6.7-3.7,14.1-5.5,22.4-5.5c5.2,0,10.2,0.8,15,2.4c4.8,1.6,8.9,3.7,12.3,6.2
		C225.6,26.8,228.5,30.1,230.8,34"/>
	<path class="st0" d="M307.5,49c-1.4-5.4-3.3-9.7-5.9-12.9c-2.6-3.2-6-5.8-10.2-7.8c-4.3-2-8.7-2.9-13.4-2.9
		c-7.7,0-14.3,2.5-19.9,7.4c-4,3.6-7.1,9-9.2,16.2H307.5z M307.5,70.2l8.5,4.5c-2.8,5.5-6,9.9-9.7,13.3c-3.6,3.4-7.8,5.9-12.3,7.7
		c-4.6,1.8-9.7,2.6-15.5,2.6c-12.8,0-22.8-4.2-30.1-12.6c-7.2-8.4-10.8-17.9-10.8-28.4c0-9.9,3-18.8,9.2-26.6
		c7.8-9.9,18.1-14.9,31.1-14.9c13.4,0,24.1,5.1,32.1,15.2c5.7,7.2,8.6,16.1,8.7,26.8H248c0.2,9.1,3.1,16.6,8.7,22.4
		c5.6,5.8,12.6,8.7,20.9,8.7c4,0,7.9-0.7,11.6-2.1c3.8-1.4,7-3.2,9.7-5.5C301.5,79,304.4,75.3,307.5,70.2"/>
	<path class="st0" d="M400.7,34l-8,5c-6.9-9.2-16.3-13.8-28.3-13.8c-9.6,0-17.5,3.1-23.8,9.2c-6.3,6.1-9.5,13.6-9.5,22.4
		c0,5.7,1.5,11.1,4.4,16.1c2.9,5,6.9,8.9,12,11.7c5,2.8,10.7,4.2,17,4.2c11.5,0,20.9-4.6,28.3-13.8l8,5.3c-3.7,5.6-8.8,10-15.1,13.1
		c-6.3,3.1-13.5,4.7-21.6,4.7c-12.4,0-22.7-3.9-30.9-11.8c-8.2-7.9-12.3-17.5-12.3-28.8c0-7.6,1.9-14.6,5.7-21.2
		c3.8-6.5,9.1-11.6,15.8-15.3c6.7-3.7,14.2-5.5,22.4-5.5c5.2,0,10.2,0.8,15.1,2.4c4.8,1.6,8.9,3.7,12.3,6.2
		C395.4,26.8,398.3,30.1,400.7,34"/>
	<path class="st0" d="M444,24.3c-8.7,0-16.3,3.2-22.6,9.7c-6.3,6.5-9.4,14.3-9.4,23.5c0,5.9,1.4,11.4,4.3,16.5
		c2.9,5.1,6.7,9.1,11.6,11.9c4.9,2.8,10.3,4.2,16.1,4.2c5.8,0,11.2-1.4,16.1-4.2c4.9-2.8,8.8-6.7,11.6-11.9
		c2.9-5.1,4.3-10.6,4.3-16.5c0-9.2-3.2-17-9.5-23.5C460.2,27.5,452.7,24.3,444,24.3 M444.1,15.7c12.1,0,22.1,4.4,30.1,13.1
		c7.2,8,10.9,17.5,10.9,28.4c0,11-3.8,20.6-11.5,28.8c-7.6,8.2-17.5,12.3-29.5,12.3c-12.1,0-21.9-4.1-29.6-12.3
		c-7.7-8.2-11.5-17.8-11.5-28.8c0-10.9,3.6-20.3,10.9-28.3C421.8,20.1,431.9,15.7,444.1,15.7"/>
	<path class="st1" d="M444,43.6c-3.6,0-6.7,1.3-9.3,4c-2.6,2.7-3.9,5.9-3.9,9.6c0,2.4,0.6,4.7,1.8,6.8c1.2,2.1,2.8,3.7,4.8,4.9
		c2,1.1,4.2,1.7,6.6,1.7c2.4,0,4.6-0.6,6.6-1.7c2-1.1,3.6-2.8,4.8-4.9c1.2-2.1,1.8-4.4,1.8-6.8c0-3.8-1.3-7-3.9-9.6
		C450.7,44.9,447.6,43.6,444,43.6 M444,38.1c5.5,0,10.1,2,13.7,6c3.3,3.7,5,8,5,13c0,5-1.8,9.4-5.2,13.1c-3.5,3.8-8,5.6-13.5,5.6
		c-5.5,0-10-1.9-13.5-5.6c-3.5-3.7-5.2-8.1-5.2-13.1c0-5,1.6-9.3,4.9-12.9C433.9,40.1,438.5,38.1,444,38.1"/>
	<path class="st2" d="M444,33.6c-6.3,0-11.6,2.3-16.1,6.9c-4.5,4.6-6.7,10.2-6.7,16.8c0,4.2,1,8.2,3.1,11.8c2,3.7,4.8,6.5,8.3,8.5
		c3.5,2,7.3,3,11.5,3c4.2,0,8-1,11.5-3c3.5-2,6.3-4.8,8.3-8.5c2.1-3.7,3.1-7.6,3.1-11.8c0-6.6-2.2-12.1-6.8-16.8
		C455.6,35.9,450.2,33.6,444,33.6 M444,28.6c8.3,0,15.2,3,20.7,9c5,5.5,7.5,12,7.5,19.5c0,7.6-2.6,14.1-7.9,19.8
		c-5.3,5.7-12,8.5-20.3,8.5c-8.3,0-15.1-2.8-20.3-8.5c-5.3-5.6-7.9-12.2-7.9-19.8c0-7.5,2.5-14,7.5-19.5
		C428.7,31.6,435.7,28.6,444,28.6"/>
</g>
</svg>
