<?xml version="1.0" encoding="utf-8"?>
<!-- Generator: Adobe Illustrator 15.0.0, SVG Export Plug-In . SVG Version: 6.00 Build 0)  -->
<!DOCTYPE svg PUBLIC "-//W3C//DTD SVG 1.1//EN" "http://www.w3.org/Graphics/SVG/1.1/DTD/svg11.dtd">
<svg version="1.1" id="Calque_1" xmlns="http://www.w3.org/2000/svg" xmlns:xlink="http://www.w3.org/1999/xlink" x="0px" y="0px"
	 width="500px" height="500px" viewBox="0 0 500 500" enable-background="new 0 0 500 500" xml:space="preserve">
<g>
	<g>
		<path fill="#000075" d="M33.461,295.199h8.07v52.476h29.887v7.097H33.461V295.199z"/>
		<path fill="#000075" d="M99.905,295.199v36.821c0,4.327,0.818,7.924,2.454,10.787c2.423,4.328,6.512,6.489,12.263,6.489
			c6.894,0,11.58-2.339,14.061-7.016c1.334-2.542,2.002-5.962,2.002-10.261v-36.821h8.153v33.455c0,7.327-0.99,12.964-2.971,16.911
			c-3.636,7.193-10.5,10.788-20.591,10.788c-10.093,0-16.943-3.595-20.551-10.788c-1.98-3.947-2.971-9.584-2.971-16.911v-33.455
			H99.905z"/>
		<path fill="#000075" d="M161.344,295.199h11.561l17.129,50.366l17.009-50.366h11.48v59.572h-7.705v-35.159
			c0-1.218,0.027-3.23,0.081-6.042c0.054-2.812,0.081-5.826,0.081-9.044l-17.007,50.245h-7.998l-17.169-50.245v1.823
			c0,1.462,0.041,3.686,0.122,6.673c0.081,2.986,0.122,5.185,0.122,6.59v35.159h-7.705V295.199z"/>
		<path fill="#000075" d="M241.784,295.199h8.151v59.572h-8.151V295.199z"/>
		<path fill="#000075" d="M274.571,295.199h9.507l29.709,48.133v-48.133h7.704v59.572h-9.065l-30.149-48.075v48.075h-7.705V295.199z
			"/>
		<path fill="#000075" d="M395.153,303.715c3.947,5.272,5.921,12.019,5.921,20.235c0,8.895-2.258,16.289-6.773,22.184
			c-5.299,6.921-12.854,10.382-22.669,10.382c-9.166,0-16.371-3.028-21.614-9.084c-4.679-5.839-7.018-13.221-7.018-22.144
			c0-8.055,2.002-14.949,6.004-20.681c5.135-7.354,12.733-11.03,22.79-11.03C382.31,293.577,390.096,296.956,395.153,303.715z
			 M388.034,341.686c3.177-5.1,4.766-10.965,4.766-17.594c0-7.007-1.832-12.649-5.495-16.924c-3.663-4.275-8.672-6.413-15.023-6.413
			c-6.165,0-11.193,2.117-15.087,6.352c-3.893,4.234-5.841,10.479-5.841,18.731c0,6.604,1.671,12.17,5.01,16.7
			c3.337,4.533,8.751,6.799,16.242,6.799C379.714,349.337,384.858,346.787,388.034,341.686z"/>
		<path fill="#000075" d="M427.238,354.771h-9.697l21.083-30.561l-19.764-29.012h10.061l15.032,22.789l14.909-22.789h9.577
			l-19.755,29.01l20.722,30.562h-9.981l-15.872-24.495L427.238,354.771z"/>
	</g>
	<g>
		<path fill="#000075" d="M291.686,261.13c-51.205,0-92.862-41.658-92.862-92.862c0-7.39,0.902-14.756,2.636-21.917h-15.9v128.622
			h128.044v-16.479C306.44,260.228,299.073,261.13,291.686,261.13z"/>
	</g>
	<path fill="#FFC200" d="M202.284,168.268c0,49.374,40.025,89.401,89.402,89.401c7.563,0,14.902-0.947,21.917-2.717V146.351H205.001
		C203.232,153.365,202.284,160.705,202.284,168.268z"/>
</g>
</svg>
