<?xml version="1.0" encoding="utf-8"?>
<!-- Generator: Adobe Illustrator 19.1.0, SVG Export Plug-In . SVG Version: 6.00 Build 0)  -->
<svg version="1.1" id="Calque_1" xmlns="http://www.w3.org/2000/svg" xmlns:xlink="http://www.w3.org/1999/xlink" x="0px" y="0px"
	 viewBox="-345 170.9 500 500" style="enable-background:new -345 170.9 500 500;" xml:space="preserve">
<polygon points="-231.3,396.8 -247.7,396.8 -247.7,440.7 -247.7,454.2 -231.3,454.2 -198.1,454.2 -198.1,440.7 -231.3,440.7 "/>
<polygon points="124.2,397 124.2,431.7 93.7,397 92.1,397.1 92.1,397 76.8,397 76.8,453.9 92.1,453.9 92.1,419 122.9,453.9 
	124.2,453.9 140,453.9 140,397 "/>
<polygon points="-128.5,409.9 -107.9,409.9 -107.9,453.9 -89.7,453.9 -89.7,409.9 -69.3,409.9 -69.3,396.5 -128.5,396.5 "/>
<path d="M35.9,395.7c-20.1,0-36.5,13.4-36.5,29.8s16.3,29.8,36.5,29.8c20.1,0,36.5-13.4,36.5-29.8S56.1,395.7,35.9,395.7z
	 M35.9,443.3c-10.3,0-18.6-7.9-18.6-17.8c0-9.8,8.3-17.8,18.6-17.8c10.3,0,18.6,7.9,18.6,17.8C54.5,435.4,46.2,443.3,35.9,443.3z"/>
<path d="M-14.1,427.5c5.7-2.4,10.2-6.7,10.2-14c0-13.7-15-16.8-25.5-16.8l-8.8,0l-0.1-0.1h-26.2v0.5h-0.4v56.8h17v-20.5h20.1
	c3.7,0.6,7.4,6,7.5,10.9c0.1,5.1,2.8,9.4,2.8,9.4s11.4,0,15.5,0c-2-2.4-2.4-15.7-4.9-20.7C-8.4,430.1-11,428.4-14.1,427.5z
	 M-28.7,421.4h-19.2v-12.5h17.6l0,0c0,0,0.1,0,0.2,0h1.1c2.6,0.1,8.2,0.9,8.2,6.3C-20.8,420.4-26,421.3-28.7,421.4z"/>
<path d="M-148,396.8v35.8c-1.4,9.6-15.4,10-16.8,10c-1.4,0-15.1-0.4-16.7-9.7v-36.1H-198c0,0-0.1,33.2-0.1,35.7
	c0,2.5,1,22.5,33.2,22.6c0,0,0,0,0,0c0,0,0.1,0,0.1,0s0.1,0,0.1,0c0,0,0,0,0,0c32.1-0.1,33.2-20.1,33.2-22.6
	c0-2.5-0.1-35.7-0.1-35.7L-148,396.8L-148,396.8z"/>
<path d="M-291.8,404.6c0.7,0,1.4,0,2,0.1l1.5-17.5c-1.2-0.1-2.3-0.2-3.5-0.2c-1.3,0-2.6,0.1-3.9,0.2l1.5,17.5
	C-293.4,404.6-292.6,404.6-291.8,404.6z"/>
<path d="M-274.6,391.4c-2.1-1.2-4.4-2.2-6.8-2.9l-5.6,16.7c1.4,0.4,2.8,1,4,1.7L-274.6,391.4z"/>
<path d="M-277.7,411.5l13.6-11.1c-1.5-1.9-3.3-3.7-5.2-5.3l-11.5,13.3C-279.7,409.3-278.6,410.3-277.7,411.5z"/>
<path d="M-274.6,417.8l16.9-5c-0.7-2.4-1.6-4.7-2.7-6.9l-15.8,7.8C-275.5,415-275,416.4-274.6,417.8z"/>
<path d="M-274.2,419.9c0.1,0.8,0.2,1.6,0.2,2.4c0,0.7,0,1.4-0.1,2l17.5,1.5c0.1-1.2,0.2-2.3,0.2-3.5c0-1.4-0.1-2.7-0.2-4
	L-274.2,419.9z"/>
<path d="M-276.4,431.2l15.5,8.3c1.2-2.1,2.2-4.4,2.9-6.8l-16.7-5.6C-275.1,428.6-275.7,429.9-276.4,431.2z"/>
<path d="M-281,436.4l11.1,13.6c1.9-1.5,3.7-3.3,5.3-5.2l-13.3-11.5C-278.7,434.4-279.8,435.5-281,436.4z"/>
<path d="M-287.3,439.5l5,16.9c2.4-0.7,4.7-1.6,6.8-2.7l-7.8-15.8C-284.5,438.6-285.8,439.1-287.3,439.5z"/>
<path d="M-291.8,440.1c-0.7,0-1.4,0-2-0.1l-1.5,17.5c1.2,0.1,2.3,0.2,3.5,0.2c1.4,0,2.7-0.1,4-0.2l-1.6-17.5
	C-290.1,440-291,440.1-291.8,440.1z"/>
<path d="M-309,453.2c2.1,1.2,4.4,2.2,6.8,2.9l5.6-16.7c-1.4-0.4-2.8-1-4-1.7L-309,453.2z"/>
<path d="M-305.8,433.2l-13.6,11.1c1.5,1.9,3.3,3.7,5.2,5.3l11.5-13.3C-303.9,435.4-305,434.3-305.8,433.2z"/>
<path d="M-309,426.8l-16.9,5c0.7,2.4,1.6,4.7,2.7,6.9l15.8-7.8C-308,429.6-308.6,428.3-309,426.8z"/>
<path d="M-309.5,422.3c0-0.7,0-1.3,0.1-1.9L-327,419c-0.1,1.1-0.2,2.2-0.2,3.3c0,1.4,0.1,2.7,0.2,4l17.5-1.6
	C-309.5,424-309.5,423.2-309.5,422.3z"/>
<path d="M-307.2,413.5l-15.5-8.3c-1.2,2.1-2.2,4.4-2.9,6.8l16.7,5.6C-308.5,416.1-307.9,414.7-307.2,413.5z"/>
<path d="M-302.6,408.3l-11.1-13.6c-1.9,1.5-3.7,3.3-5.3,5.2l13.3,11.5C-304.8,410.2-303.8,409.2-302.6,408.3z"/>
<path d="M-308.1,391l7.8,15.8c1.3-0.7,2.6-1.3,4.1-1.6l-5-16.9C-303.7,389-306,389.9-308.1,391z"/>
</svg>
