<?xml version="1.0" encoding="utf-8"?>
<!-- Generator: Adobe Illustrator 15.0.0, SVG Export Plug-In . SVG Version: 6.00 Build 0)  -->
<!DOCTYPE svg PUBLIC "-//W3C//DTD SVG 1.1//EN" "http://www.w3.org/Graphics/SVG/1.1/DTD/svg11.dtd">
<svg version="1.1" id="Calque_1" xmlns="http://www.w3.org/2000/svg" xmlns:xlink="http://www.w3.org/1999/xlink" x="0px" y="0px"
	 width="500px" height="500px" viewBox="0 0 500 500" enable-background="new 0 0 500 500" xml:space="preserve">
<path fill="#005BA1" d="M68.026,223.369l-7.246-7.359l-0.188-0.181c0,0-1.02,1.029-1.921,7.056h-8.784v-6.696h-2.681v6.696h-4.383
	v-6.696h-2.674v6.696h-4.376v-6.696h-2.688v6.696h-8.946c-0.818-4.336-1.637-7.056-1.637-7.056l-6.934,7.3
	c0,0,4.376,7.787,5.116,17.886c0.727,10.105-3.778,22.271-3.778,22.271l21.903,6.939l-0.727,10.342l-12.659,5.478h32.492
	l-12.783-5.724l-0.974-10.216l22.034-6.576c0,0-5.805-11.409-2.804-27.747C65.339,225.197,68.026,223.369,68.026,223.369z
	 M25.788,240.528c0.052-5.145-0.428-9.978-1.025-13.994h8.323v33.831H20.439C20.439,260.365,25.671,253.915,25.788,240.528z
	 M40.149,260.365h-4.376v-33.831h4.376V260.365z M47.206,260.365h-4.383v-33.831h4.383V260.365z M49.887,260.365v-33.831h8.33
	c-0.267,2.587-0.507,5.788-0.669,9.738c-0.726,18.132,4.753,24.093,4.753,24.093H49.887z"/>
<path fill="#005BA1" d="M142.672,272.9v-57.071h-39.421v69.913h39.421v-0.124h27.085l11.621-17.579l-40.355,7.094L142.672,272.9z
	 M436.758,215.095h-45.64l14.613,20.265l-39.803,46l-22.814-22.997c0,0,27.741-2.013,27.741-20.999
	c0-18.983-28.111-21.534-28.111-21.534h-88.531l-29.754,26.465l-27.021-26.832h-42.711l39.985,37.969v32.312h36.504v-35.051
	l34.683-32.123v66.992h35.413v-23.002h8.401c0,0,4.375,4.19,7.298,7.667c2.92,3.468,12.776,15.88,12.776,15.88h46.547l10.953-13.51
	h47.463l8.946,13.146h43.257L436.758,215.095z M317.194,252.886c-6.57,1.272-15.692,0.545-15.692,0.545v-29.935
	c0,0,12.77,0,16.781,1.275c4.02,1.276,11.686,4.743,11.686,14.604C329.968,249.23,323.761,251.607,317.194,252.886z
	 M394.038,263.648l17.536-20.261l15.873,20.261H394.038z"/>
</svg>
