<?xml version="1.0" encoding="utf-8"?>
<!-- Generator: Adobe Illustrator 19.1.0, SVG Export Plug-In . SVG Version: 6.00 Build 0)  -->
<svg version="1.1" id="Calque_1" xmlns="http://www.w3.org/2000/svg" xmlns:xlink="http://www.w3.org/1999/xlink" x="0px" y="0px"
	 viewBox="-345 170.9 500 500" style="enable-background:new -345 170.9 500 500;" xml:space="preserve">
<style type="text/css">
	.st0{fill:#1D2D28;}
</style>
<path class="st0" d="M107.7,401.3c0,0,8.2-8.8,7.6-33.1c-0.6-24.3-19.9-36.8-37.5-50.1C60.2,304.7-9.5,293-9.5,293s-4.3,7.2,0,10.9
	c4.3,3.7,19.6,10.9,19.6,10.9s0.6,152.7,0,160.8c-0.6,8.1-5.1,9-12.3,9.1c-7.2,0.1-9.6-6.8-9.6-6.8L-53.7,308c0,0-4.1-9.1,2.7-10.5
	c6.8-1.4,2.3,0,11.4,0c9.1,0,8.7-12.3,0-12.8c-8.7-0.5-70.6-0.9-79.3,0c-8.7,0.9-8.2,12.3,0.9,12.8c9.1,0.5,10.9,6.8,10.9,6.8
	s-37.6,165.4-40.4,178.7c-0.5,0.6-4.6,9.1-11.1,9c-7.8-0.2-6.8-7.3-6.8-7.3V303.9c0,0,7.4-1.2,12.3-5.5c4.9-4.3,3.2-11.8-3.2-10
	c-6.4,1.8-52.9,13.2-67.4,17.3c-14.6,4.1-4.6,14.1,3.2,10c7.7-4.1,12.8,13.2,12.8,13.2l-34.6,52.9l-15.5-47.8c0,0,3.2-2.5,8.2-7.3
	c5-4.8-1.1-13.7-6.8-10c-5.7,3.6-40.3,27.1-52.4,34.6c-12.1,7.5,0.5,11.8,0.5,11.8s21.9-2.3,15.9,10c-5.9,12.3-37.8,26.4-37.4,82.5
	c0.5,56,129.9,106.6,242,106.1c112.1-0.5,162.2-36,162.2-36s64.2-35.4,64.2-74.3S107.7,401.3,107.7,401.3z M49.2,351.8
	c0,0,29.6,0.9,29.2,19.6c-0.4,18.7-29.2,16-29.2,16V351.8z M-81.1,366.3l15.5,60.1H-97L-81.1,366.3z M-102.3,521.7
	c-59.5,0-152.9-22.9-174.2-49.7c-10.3-10.3-27.8-49.7,5-61.1c3.7-1.4,19.1,45.6,27.8,45.6c8.7,0,30.1-60.6,35.1-59.7
	c5,0.9,0,70.1,0,70.1s-21,2.6-15.5,10.5c5.5,7.9,33,23.4,60.6,25.5c27.6,2.1,57.3,3.5,70.6,4.1c13.4,0.6-16.9-18.2-16.9-18.2
	s1.4-21.7,5-24.1c3.6-2.4,42.5-4.9,47.4,0c4.9,4.9,5.9,21.4,5.9,21.4s-27.2,13.1-13.2,17.3c7.6,2.3,40.9,1,70.6-7.6
	c24.8-7.2,45.9-21.5,57.9-24.3c20.7-4.9-14.1-13.2-14.1-13.2v-30.5l31-1.8c0,0,13.9,3.1,16.9,22.8
	C101.2,498.4-42.8,521.7-102.3,521.7z"/>
</svg>
