<?xml version="1.0" encoding="utf-8"?>
<!-- Generator: Adobe Illustrator 15.0.0, SVG Export Plug-In . SVG Version: 6.00 Build 0)  -->
<!DOCTYPE svg PUBLIC "-//W3C//DTD SVG 1.1//EN" "http://www.w3.org/Graphics/SVG/1.1/DTD/svg11.dtd">
<svg version="1.1" id="Calque_1" xmlns="http://www.w3.org/2000/svg" xmlns:xlink="http://www.w3.org/1999/xlink" x="0px" y="0px"
	 width="500px" height="500px" viewBox="0 0 500 500" enable-background="new 0 0 500 500" xml:space="preserve">
<g>
	<path d="M318.724,142.113v1.513h-4.278v11.185h-1.737v-11.185h-4.278v-1.513H318.724z"/>
	<path d="M320.262,142.113h2.466l3.65,10.736l3.626-10.736h2.446v12.698h-1.643v-7.494c0-0.26,0.006-0.688,0.018-1.288
		c0.011-0.599,0.018-1.242,0.018-1.928l-3.626,10.71h-1.703l-3.66-10.71v0.389c0,0.311,0.008,0.785,0.025,1.422
		s0.025,1.105,0.025,1.405v7.494h-1.643V142.113z"/>
</g>
<g>
	<path d="M200.164,239.34c-12.932-11.084-22.631-50.804,14.779-59.117c0.195-0.005,0.387-0.003,0.579-0.001
		c-10.374,6.524-16.975,16.308-16.975,27.25c0,19.641,21.247,35.563,47.455,35.563c7.809,0,18.705-3.926,32.561-3.926h33.6
		l24.248-38.795l-19.397-16.858v-7.851c0,0-14.317-18.936-22.631-23.554c0-9.237,0-11.084,0-11.084s-30.021,0-47.109,0
		c-17.089,0-79.439,8.774-79.439,60.502C167.834,219.48,180.304,234.722,200.164,239.34z M297.153,180.223l-9.698,9.237
		c0,0-12.471-10.623-23.093-15.241C283.759,169.139,297.153,180.223,297.153,180.223z"/>
	<polygon points="87.24,290.605 81.351,290.605 65.552,323.5 48.793,290.605 42.209,290.605 28.01,290.605 21.426,290.605 
		21.426,351.108 42.209,351.108 42.209,318.579 58.722,351.108 71.423,351.108 87.24,319.948 87.24,351.108 108.023,351.108 
		108.023,290.605 102.135,290.605 	"/>
	<path d="M143.471,290.605l-30.252,60.503h20.783l5.254-10.507h29.213l5.254,10.507h20.784l-30.252-60.503H143.471z
		 M146.531,326.053l7.333-14.664l7.333,14.664H146.531z"/>
	<path d="M224.373,292.086c-27.636,0-32.927,19.415-32.927,29.338s5.292,29.338,32.927,29.338l-0.048-0.23h19.714h20.667v-14.087
		v-9.006v-13.163H244.04h-15.01v13.163h15.01v9.006h-19.715l0.086-0.058c-10.854,0-12.932-9.99-12.932-15.097
		c0-4.912,1.927-14.339,11.735-15.05l0.037-0.047h41.457v-14.087h-40.334V292.086z"/>
	<rect x="269.673" y="314.392" width="13.855" height="7.852"/>
	<polygon points="298.076,290.605 290.225,290.605 290.225,344.151 290.205,344.151 290.205,352.003 290.225,352.003 
		298.076,352.003 340.567,352.003 340.567,344.151 298.076,344.151 	"/>
	<polygon points="364.333,299.843 389.523,299.843 389.523,350.185 397.374,350.185 397.374,299.843 423.931,299.843 
		423.931,290.577 364.333,290.577 	"/>
	<polygon points="430.147,290.605 429.936,290.605 429.936,350.185 430.147,350.185 430.147,352.263 478.891,352.263 
		478.891,342.997 439.404,342.997 439.404,325.476 478.891,325.476 478.891,316.21 439.404,316.21 439.404,299.843 478.891,299.843 
		478.891,290.577 430.147,290.577 	"/>
	<rect x="348.418" y="290.605" width="7.852" height="59.579"/>
	<path d="M478.24,284.539c-0.036-0.137-0.06-0.345-0.069-0.626l-0.035-0.986c-0.017-0.428-0.098-0.736-0.243-0.927
		c-0.145-0.19-0.361-0.344-0.648-0.46c0.328-0.171,0.582-0.396,0.764-0.677c0.183-0.28,0.273-0.641,0.273-1.081
		c0-0.845-0.34-1.424-1.019-1.738c-0.356-0.163-0.811-0.245-1.362-0.245h-3.343v7.356h0.997V282h2.203
		c0.396,0,0.686,0.045,0.871,0.136c0.324,0.163,0.497,0.485,0.521,0.967l0.059,1.227c0.014,0.287,0.03,0.48,0.05,0.581
		c0.021,0.1,0.048,0.182,0.081,0.245h1.222v-0.166C478.407,284.924,478.3,284.773,478.24,284.539z M476.872,280.889
		c-0.266,0.188-0.624,0.28-1.079,0.28h-2.239v-2.514h2.365c0.332,0,0.597,0.05,0.795,0.15c0.37,0.189,0.555,0.548,0.555,1.071
		C477.269,280.365,477.137,280.702,476.872,280.889z"/>
	<path d="M475.019,275.285c-3.54,0-6.421,2.88-6.421,6.421s2.881,6.422,6.421,6.422c3.541,0,6.422-2.881,6.422-6.422
		S478.56,275.285,475.019,275.285z M475.019,287.324c-3.098,0-5.618-2.52-5.618-5.618s2.521-5.619,5.618-5.619
		c3.099,0,5.619,2.521,5.619,5.619S478.117,287.324,475.019,287.324z"/>
</g>
</svg>
