<?xml version="1.0" encoding="utf-8"?>
<!-- Generator: Adobe Illustrator 15.0.0, SVG Export Plug-In . SVG Version: 6.00 Build 0)  -->
<!DOCTYPE svg PUBLIC "-//W3C//DTD SVG 1.1//EN" "http://www.w3.org/Graphics/SVG/1.1/DTD/svg11.dtd">
<svg version="1.1" id="Calque_1" xmlns="http://www.w3.org/2000/svg" xmlns:xlink="http://www.w3.org/1999/xlink" x="0px" y="0px"
	 width="500px" height="500px" viewBox="0 0 500 500" enable-background="new 0 0 500 500" xml:space="preserve">
<g>
	<rect x="15.469" y="171.193" fill="#E10025" width="470.454" height="159.264"/>
	<path fill="#FFFFFF" d="M15.466,219.734h77.133l-4.104,10.414h34.611l-3.811,9.677h35.777l-16.716,44.288h17.602l10.853-30.206
		c0,0,6.743-16.133,22.879-13.788h36.663l-14.957,43.701l18.762,0.293l23.471-66.576l19.939,0.293l-15.25,43.116l22.286-21.121
		l24.35-0.29l-29.626,29.329l4.697,15.248l19.354-0.582l15.543-43.412l20.832-0.583l-15.255,44.284l24.057-0.289l10.26-28.455
		h-13.49l5.277-15.25l13.79-0.29l7.921-22.585h19.641l-7.621,22.875h12.904l-4.983,15.25h-13.497l-10.261,29.037l24.051-0.293
		l10.268-29.034c0,0,5.862-15.839,21.113-14.96h39.6l-15.543,43.706h41.852v32.85l-470.37,0.878v-12.319h27.572l21.699-64.523
		H15.404L15.466,219.734z"/>
	<g>
		<polygon fill="#E10025" points="82.332,248.036 96.416,248.036 76.47,304.354 62.391,304.354 		"/>
		<polygon fill="#E10025" points="113.431,258.597 126.916,258.597 111.08,304.354 97.003,304.354 		"/>
		<polygon fill="#E10025" points="187.924,257.424 199.955,257.863 192.034,283.819 177.364,284.409 		"/>
		<polygon fill="#E10025" points="420.805,257.424 432.837,257.863 424.909,283.819 410.253,284.409 		"/>
		<polygon fill="#E10025" points="254.507,270.622 242.625,303.181 265.06,303.181 		"/>
		<path fill="#E10025" d="M154.636,292.181l-12.319,11.438h25.517C167.833,303.619,156.838,305.38,154.636,292.181z"/>
		<path fill="#E10025" d="M188.751,292.181l-11.674,11.438h24.195C201.272,303.619,190.842,305.38,188.751,292.181z"/>
		<path fill="#E10025" d="M297.834,289.983l-12.527,13.636h25.953C311.26,303.619,300.069,305.718,297.834,289.983z"/>
		<path fill="#E10025" d="M342.45,290.422l-13.589,13.197h28.155C357.017,303.619,344.881,305.649,342.45,290.422z"/>
		<path fill="#E10025" d="M386.885,289.1l-13.589,14.52h28.155C401.451,303.619,389.316,305.855,386.885,289.1z"/>
		<path fill="#E10025" d="M421.704,291.303l-11.895,12.316h27.275C437.085,303.619,423.829,305.513,421.704,291.303z"/>
		<polygon fill="#E10025" points="226.352,291.303 214.027,303.619 221.505,304.061 		"/>
	</g>
	<polygon fill="#FFFFFF" points="323.142,217.39 316.98,234.988 336.778,235.425 343.376,217.39 	"/>
</g>
</svg>
