<?xml version="1.0" encoding="utf-8"?>
<!-- Generator: Adobe Illustrator 21.0.2, SVG Export Plug-In . SVG Version: 6.00 Build 0)  -->
<svg version="1.1" id="Calque_1" xmlns="http://www.w3.org/2000/svg" xmlns:xlink="http://www.w3.org/1999/xlink" x="0px" y="0px"
	 viewBox="0 0 500 158" style="enable-background:new 0 0 500 158;" xml:space="preserve">
<style type="text/css">
	.st0{fill:#FFFFFF;}
	.st1{fill:#005AA0;}
	.st2{fill:#A6C754;}
</style>
<rect x="19.6" y="19" class="st0" width="126.2" height="126.2"/>
<rect x="23.6" y="23" class="st1" width="118.3" height="118.3"/>
<path class="st2" d="M24.3,118.9c0,11.8,9.6,21.4,21.4,21.4s21.4-9.6,21.4-21.4s-9.6-21.4-21.4-21.4S24.3,107.1,24.3,118.9z"/>
<path class="st0" d="M22.1,118.9c0,13,10.6,23.6,23.7,23.6c13,0,23.7-10.6,23.7-23.6S58.9,95.2,45.8,95.2
	C32.7,95.3,22.1,105.9,22.1,118.9z M45.8,99.2c10.9,0,19.7,8.8,19.7,19.7c0,10.9-8.8,19.7-19.7,19.7c-10.9,0-19.7-8.9-19.7-19.7
	C26.1,108.1,34.9,99.2,45.8,99.2z"/>
<path class="st0" d="M177,16.4C106.2,95.9,36.3,72.1,35.3,23L21.4,34.5C24.7,91.2,106.3,107.3,177,16.4z"/>
<path class="st2" d="M177,16.4c-74.4,76.1-142.7,49.1-141.4,0L23.6,28C24.2,87.6,106.4,99,177,16.4z"/>
<path class="st1" d="M198.2,103.8l3.1-21.1c0.8-5.5,2-12.6,3.4-20h-0.2c-2.8,6.6-6,13.7-8.8,19.3l-10.5,21h-8.5l-1.8-20.7
	c-0.5-5.6-0.8-12.7-1.1-19.5h-0.1c-1.5,6.8-3,14.5-4.3,20l-5.1,21.1h-10l12.8-51.2h14.7l1.6,19.5c0.3,4.8,0.8,10.6,0.9,16.3h0.3
	c2-5.7,4.7-11.7,6.9-16.3l9.5-19.5h14.8l-6.9,51.2L198.2,103.8L198.2,103.8z"/>
<path class="st1" d="M231.9,90.5l-6,13.3h-11.7l25-51.2h14.1l5.9,51.2h-11.5l-1.1-13.3H231.9z M246.2,82.1l-1-11
	c-0.2-2.8-0.5-6.9-0.7-10h-0.2c-1.3,3.1-2.7,7.1-4.1,10l-5,11H246.2z"/>
<path class="st1" d="M264.8,103.8l9.7-51.2h12.8l6.8,19.5c2,6.5,3.4,11.9,4.6,17.5h0.2c0.2-5.2,1-10.9,2.4-18.4l3.5-18.6H315
	l-9.7,51.2H294l-7.1-20.4c-2.3-7-3.6-11.6-5-17.9h-0.2c-0.5,5-1.7,12.2-3.3,20.4l-3.4,17.9H264.8L264.8,103.8z"/>
<path class="st1" d="M332.6,62.1H319l1.9-9.6H359l-1.8,9.6h-13.7l-7.9,41.6h-10.9L332.6,62.1z"/>
<path class="st1" d="M375.9,52.6l-9.7,51.2h-11l9.7-51.2H375.9z"/>
<path class="st1" d="M399,104.6c-13.3,0-20.7-9.4-20.7-21.4c0-9.2,3.4-18.2,9.3-24.1c4.8-4.6,11.4-7.4,18.8-7.4
	c13.5,0,20.7,9.1,20.7,21.3c0,9.3-3.3,18.4-9,24.1C413.3,101.9,406.7,104.6,399,104.6L399,104.6L399,104.6z M400.5,95.5
	c8.8,0,14.8-12.5,14.8-22.1c0-6.4-2.3-12.5-10.3-12.5c-9.2,0-15.2,12.3-15.2,22C389.8,90.1,393,95.5,400.5,95.5L400.5,95.5z"/>
<path class="st1" d="M428.6,103.8l9.7-51.2h12.8l6.9,19.5c2.1,6.5,3.4,11.9,4.6,17.5h0.2c0.2-5.2,1-10.9,2.4-18.4l3.5-18.6H479
	l-9.7,51.2H458l-7.1-20.4c-2.3-7-3.6-11.6-5-17.9h-0.2c-0.5,5-1.7,12.2-3.3,20.4l-3.4,17.9H428.6L428.6,103.8z"/>
<path class="st1" d="M198.2,103.8l3.1-21.1c0.8-5.5,2-12.6,3.4-20h-0.2c-2.8,6.6-6,13.7-8.8,19.3l-10.5,21h-8.5l-1.8-20.7
	c-0.5-5.6-0.8-12.7-1.1-19.5h-0.1c-1.5,6.8-3,14.5-4.3,20l-5.1,21.1h-10l12.8-51.2h14.7l1.6,19.5c0.3,4.8,0.8,10.6,0.9,16.3h0.3
	c2-5.7,4.7-11.7,6.9-16.3l9.5-19.5h14.8l-6.9,51.2L198.2,103.8L198.2,103.8z"/>
<path class="st1" d="M231.9,90.5l-6,13.3h-11.7l25-51.2h14.1l5.9,51.2h-11.5l-1.1-13.3H231.9z M246.2,82.1l-1-11
	c-0.2-2.8-0.5-6.9-0.7-10h-0.2c-1.3,3.1-2.7,7.1-4.1,10l-5,11H246.2z"/>
<path class="st1" d="M264.8,103.8l9.7-51.2h12.8l6.8,19.5c2,6.5,3.4,11.9,4.6,17.5h0.2c0.2-5.2,1-10.9,2.4-18.4l3.5-18.6H315
	l-9.7,51.2H294l-7.1-20.4c-2.3-7-3.6-11.6-5-17.9h-0.2c-0.5,5-1.7,12.2-3.3,20.4l-3.4,17.9H264.8L264.8,103.8z"/>
<path class="st1" d="M332.6,62.1H319l1.9-9.6H359l-1.8,9.6h-13.7l-7.9,41.6h-10.9L332.6,62.1z"/>
<path class="st1" d="M375.9,52.6l-9.7,51.2h-11l9.7-51.2H375.9z"/>
<path class="st1" d="M399,104.6c-13.3,0-20.7-9.4-20.7-21.4c0-9.2,3.4-18.2,9.3-24.1c4.8-4.6,11.4-7.4,18.8-7.4
	c13.5,0,20.7,9.1,20.7,21.3c0,9.3-3.3,18.4-9,24.1C413.3,101.9,406.7,104.6,399,104.6L399,104.6L399,104.6z M400.5,95.5
	c8.8,0,14.8-12.5,14.8-22.1c0-6.4-2.3-12.5-10.3-12.5c-9.2,0-15.2,12.3-15.2,22C389.8,90.1,393,95.5,400.5,95.5L400.5,95.5z"/>
<path class="st1" d="M428.6,103.8l9.7-51.2h12.8l6.9,19.5c2.1,6.5,3.4,11.9,4.6,17.5h0.2c0.2-5.2,1-10.9,2.4-18.4l3.5-18.6H479
	l-9.7,51.2H458l-7.1-20.4c-2.3-7-3.6-11.6-5-17.9h-0.2c-0.5,5-1.7,12.2-3.3,20.4l-3.4,17.9H428.6L428.6,103.8z"/>
<rect x="154.2" y="108.7" class="st2" width="314.9" height="2.9"/>
<path class="st1" d="M154.3,121.6c0-1.6,0-2.7-0.1-3.9c0.8,0,1.7,0.1,2.5,0.1c1.4,0,2.6,0,3-0.1c0,0.2-0.1,0.3-0.1,0.6
	c0,0.3,0,0.4,0.1,0.6c-1.1-0.1-2.8-0.2-3.2-0.2c-0.1,1-0.1,2-0.1,3.1c1.2,0,2.1-0.1,3.2-0.1c-0.1,0.3-0.1,0.4-0.1,0.6
	c0,0.1,0,0.3,0.1,0.6c-1.1-0.1-2.1-0.1-3.2-0.1v0.7c0,1.6,0,2.7,0.1,3.9c-0.3,0-0.7-0.1-1.2-0.1s-0.9,0-1.2,0.1
	c0.1-1.2,0.1-2.3,0.1-3.9L154.3,121.6L154.3,121.6z"/>
<path class="st1" d="M163.8,121.6c0-1.6,0-2.7-0.1-3.9c0.8,0,1.7,0.1,2.5,0.1c1.4,0,2.6,0,3-0.1c0,0.2-0.1,0.3-0.1,0.6
	c0,0.3,0,0.4,0.1,0.6c-1.1-0.1-2.8-0.2-3.2-0.2c-0.1,1-0.1,2-0.1,3.1c1.2,0,2.1-0.1,3.2-0.1c-0.1,0.3-0.1,0.4-0.1,0.6
	c0,0.1,0,0.3,0.1,0.6c-1.1-0.1-2.1-0.1-3.2-0.1c0,0.6,0,1.2,0,1.8c0,0.6,0,1.2,0.1,1.8c1.1,0,2.2-0.1,3.2-0.2c0,0.2-0.1,0.3-0.1,0.6
	c0,0.3,0,0.4,0.1,0.6c-0.5,0-1.2-0.1-2.5-0.1c-2.3,0-2.7,0-3,0.1c0.1-1.2,0.1-2.3,0.1-3.9V121.6L163.8,121.6z"/>
<path class="st1" d="M175.7,123h-0.1v0.6c0,1.6,0,2.7,0.1,3.9c-0.3,0-0.7-0.1-1.2-0.1s-0.9,0-1.2,0.1c0.1-1.2,0.1-2.3,0.1-3.9v-1.9
	c0-1.6,0-2.7-0.1-3.9c0.3,0,0.7,0.1,1.2,0.1s1.1-0.1,2.1-0.1c1.4,0,2,0.1,2.4,0.5c0.6,0.4,0.9,1,0.9,1.9c0,1.4-0.8,2.2-2.2,2.6
	c0.9,1.6,2,3.2,3,4.8c-0.4,0-0.8-0.1-1.3-0.1c-0.4,0-0.9,0-1.3,0.1L175.7,123z M175.6,118.5c0,1.3,0,2.6,0,3.8c0.1,0,0.2,0,0.3,0
	c1.3,0,1.9-0.7,1.9-2C177.8,118.7,177.1,118.5,175.6,118.5z"/>
<path class="st1" d="M186.7,123h-0.1v0.6c0,1.6,0,2.7,0.1,3.9c-0.3,0-0.7-0.1-1.2-0.1s-0.9,0-1.2,0.1c0.1-1.2,0.1-2.3,0.1-3.9v-1.9
	c0-1.6,0-2.7-0.1-3.9c0.3,0,0.7,0.1,1.2,0.1s1.1-0.1,2.1-0.1c1.4,0,2,0.1,2.5,0.5c0.6,0.4,0.9,1,0.9,1.9c0,1.4-0.8,2.2-2.2,2.6
	c0.9,1.6,2,3.2,3,4.8c-0.4,0-0.8-0.1-1.3-0.1c-0.4,0-0.9,0-1.3,0.1L186.7,123z M186.6,118.5c0,1.3,0,2.6,0,3.8c0.1,0,0.2,0,0.3,0
	c1.2,0,1.9-0.7,1.9-2C188.8,118.7,188.2,118.5,186.6,118.5z"/>
<path class="st1" d="M195.6,124c0-1.5,0-2.3,0-3.3c0-1.5,0-2.5-0.1-2.9c0.4,0,0.8,0.1,1.2,0.1s0.8,0,1.2-0.1
	c-0.2,1.8-0.2,3.3-0.2,4.9c0,3.5,1,4,2.8,4c2.3,0,2.4-2.5,2.4-5.1c0-1.3,0-2.6-0.1-3.9c0.2,0,0.5,0.1,0.7,0.1s0.5,0,0.7-0.1
	c-0.1,0.8-0.2,2.9-0.2,5.3c0,3.3-1.4,4.6-4.2,4.6C197.4,127.7,195.6,126.6,195.6,124z"/>
<path class="st1" d="M211.2,123h-0.1v0.6c0,1.6,0,2.7,0.1,3.9c-0.3,0-0.7-0.1-1.2-0.1s-0.8,0-1.2,0.1c0.1-1.2,0.1-2.3,0.1-3.9v-1.9
	c0-1.6,0-2.7-0.1-3.9c0.3,0,0.7,0.1,1.2,0.1s1.1-0.1,2.1-0.1c1.4,0,2,0.1,2.5,0.5c0.6,0.4,0.9,1,0.9,1.9c0,1.4-0.8,2.2-2.2,2.6
	c0.9,1.6,2,3.2,3,4.8c-0.4,0-0.8-0.1-1.3-0.1c-0.4,0-0.9,0-1.3,0.1L211.2,123z M211.1,118.5c0,1.3,0,2.6,0,3.8c0.1,0,0.2,0,0.3,0
	c1.3,0,1.9-0.7,1.9-2C213.3,118.7,212.6,118.5,211.1,118.5z"/>
<path class="st1" d="M219.9,121.6c0-1.6,0-2.7-0.1-3.9c0.8,0,1.7,0.1,2.5,0.1c1.4,0,2.6,0,3-0.1c0,0.2-0.1,0.3-0.1,0.6
	c0,0.3,0,0.4,0.1,0.6c-1.1-0.1-2.8-0.2-3.2-0.2c-0.1,1-0.1,2-0.1,3.1c1.2,0,2.1-0.1,3.2-0.1c-0.1,0.3-0.1,0.4-0.1,0.6
	c0,0.1,0,0.3,0.1,0.6c-1.1-0.1-2.1-0.1-3.2-0.1c0,0.6,0,1.2,0,1.8c0,0.6,0,1.2,0,1.8c1.1,0,2.2-0.1,3.2-0.2c0,0.2-0.1,0.3-0.1,0.6
	c0,0.3,0,0.4,0.1,0.6c-0.5,0-1.2-0.1-2.5-0.1c-2.3,0-2.7,0-3,0.1c0.1-1.2,0.1-2.3,0.1-3.9L219.9,121.6L219.9,121.6z"/>
<path class="st1" d="M233.7,119.6c-0.3-0.8-0.8-1.2-1.7-1.2s-1.5,0.6-1.5,1.3c0,2.1,4.3,1.6,4.3,4.8c0,1.9-1.5,3.2-3.8,3.2
	c-1,0-1.9-0.3-2.3-0.6c0.2-0.6,0.3-1.2,0.4-1.8h0.3c0.2,0.8,0.8,1.5,1.9,1.5s1.7-0.7,1.7-1.4c0-2.1-4.2-1.6-4.2-4.8c0-2,1.5-3,3.2-3
	c1,0,1.8,0.3,2.3,0.7c-0.2,0.4-0.3,0.8-0.5,1.4L233.7,119.6L233.7,119.6z"/>
<path class="st1" d="M245.3,121.6c0-1.6,0-2.7-0.1-3.9c0.3,0,0.7,0.1,1.2,0.1c0.6,0,1.3-0.1,2.6-0.1c3.2,0,5.4,1,5.4,4.6
	c0,3.1-2.2,5.2-4.9,5.2c-1.4,0-2.4-0.1-3.1-0.1c-0.5,0-0.9,0-1.2,0.1c0.1-1.2,0.1-2.3,0.1-3.9V121.6L245.3,121.6z M247.4,123.9
	c0,0.8,0,2.5,0,2.8c0.3,0,0.7,0.1,1.2,0.1c2.1,0,3.5-1.4,3.5-4.4c0-2.3-1.3-3.8-3.2-3.8c-0.7,0-1,0-1.5,0.1c0,0.3,0,2,0,2.8V123.9z"
	/>
<path class="st1" d="M258.5,121.6c0-1.6,0-2.7-0.1-3.9c0.8,0,1.7,0.1,2.5,0.1c1.4,0,2.6,0,3-0.1c0,0.2-0.1,0.3-0.1,0.6
	c0,0.3,0,0.4,0.1,0.6c-1.1-0.1-2.8-0.2-3.2-0.2c-0.1,1-0.1,2-0.1,3.1c1.2,0,2.1-0.1,3.2-0.1c-0.1,0.3-0.1,0.4-0.1,0.6
	c0,0.1,0,0.3,0.1,0.6c-1.1-0.1-2.1-0.1-3.2-0.1c0,0.6,0,1.2,0,1.8c0,0.6,0,1.2,0.1,1.8c1.1,0,2.2-0.1,3.2-0.2c0,0.2-0.1,0.3-0.1,0.6
	c0,0.3,0,0.4,0.1,0.6c-0.5,0-1.2-0.1-2.5-0.1c-2.3,0-2.7,0-3,0.1c0.1-1.2,0.1-2.3,0.1-3.9V121.6L258.5,121.6z"/>
<path class="st1" d="M274.3,121.6c0-1.6,0-2.7-0.1-3.9c0.3,0,0.7,0.1,1.2,0.1c0.7,0,1.4-0.1,2.1-0.1c1.3,0,2,0.2,2.5,0.6
	c0.6,0.5,0.9,1.1,0.9,1.9c0,2.2-1.5,3-3.6,3h-0.7c0,1.4,0,2.8,0.1,4.3c-0.3,0-0.7-0.1-1.2-0.1s-0.9,0-1.2,0.1
	c0.1-1.2,0.1-2.3,0.1-3.9L274.3,121.6L274.3,121.6z M277,118.5c-0.2,0-0.4,0-0.6,0c0,1.3,0,2.7,0,4c0.9,0,2.1-0.3,2.1-2.1
	C278.5,119,277.8,118.5,277,118.5z"/>
<path class="st1" d="M289.1,117.5c3,0,5.4,1.7,5.4,5.1c0,2.8-2.3,5.1-5.4,5.1c-3,0-5.4-1.5-5.4-5.1
	C283.7,119.8,285.8,117.5,289.1,117.5z M289.1,118.3c-1.9,0-3.1,2-3.1,4.4c0,3,1.4,4.1,3,4.1c1.7,0,3.2-1.4,3.2-4.5
	C292.2,119.8,290.9,118.3,289.1,118.3z"/>
<path class="st1" d="M300.6,123h-0.1v0.6c0,1.6,0,2.7,0.1,3.9c-0.3,0-0.7-0.1-1.2-0.1s-0.8,0-1.2,0.1c0.1-1.2,0.1-2.3,0.1-3.9v-1.9
	c0-1.6,0-2.7-0.1-3.9c0.3,0,0.7,0.1,1.2,0.1s1.1-0.1,2.1-0.1c1.4,0,2,0.1,2.5,0.5c0.6,0.4,0.9,1,0.9,1.9c0,1.4-0.8,2.2-2.2,2.6
	c0.9,1.6,2,3.2,3,4.8c-0.4,0-0.8-0.1-1.3-0.1s-0.9,0-1.3,0.1L300.6,123z M300.5,118.5c0,1.3-0.1,2.6-0.1,3.8c0.1,0,0.2,0,0.3,0
	c1.2,0,1.9-0.7,1.9-2C302.7,118.7,302,118.5,300.5,118.5z"/>
<path class="st1" d="M310.8,120c0-0.5,0-1,0-1.2c-0.6,0-1.7,0.1-2.6,0.2c0-0.2,0.1-0.4,0.1-0.6s0-0.4-0.1-0.6c1.3,0,1.9,0.1,3.7,0.1
	c1.8,0,2.4,0,3.6-0.1c0,0.2-0.1,0.4-0.1,0.6s0,0.4,0.1,0.6c-0.8-0.1-2-0.2-2.5-0.2c0,0.2,0,0.7,0,1.2v3.5c0,1.6,0,2.7,0.1,3.9
	c-0.3,0-0.7-0.1-1.2-0.1s-0.8,0-1.2,0.1c0.1-1.2,0.1-2.3,0.1-3.9V120z"/>
<path class="st1" d="M319.2,121.6c0-1.6,0-2.7-0.1-3.9c0.8,0,1.7,0.1,2.5,0.1c1.4,0,2.6,0,3-0.1c0,0.2-0.1,0.3-0.1,0.6
	c0,0.3,0,0.4,0.1,0.6c-1.1-0.1-2.8-0.2-3.2-0.2c-0.1,1-0.1,2-0.1,3.1c1.2,0,2.1-0.1,3.2-0.1c-0.1,0.3-0.1,0.4-0.1,0.6
	c0,0.1,0,0.3,0.1,0.6c-1.1-0.1-2.1-0.1-3.2-0.1c0,0.6,0,1.2,0,1.8c0,0.6,0,1.2,0,1.8c1.1,0,2.2-0.1,3.2-0.2c0,0.2-0.1,0.3-0.1,0.6
	c0,0.3,0,0.4,0.1,0.6c-0.5,0-1.2-0.1-2.5-0.1c-2.3,0-2.7,0-3,0.1c0.1-1.2,0.1-2.3,0.1-3.9L319.2,121.6L319.2,121.6z"/>
<path class="st1" d="M333,119.6c-0.3-0.8-0.8-1.2-1.7-1.2c-0.9,0-1.5,0.6-1.5,1.3c0,2.1,4.3,1.6,4.3,4.8c0,1.9-1.5,3.2-3.8,3.2
	c-1,0-1.9-0.3-2.3-0.6c0.2-0.6,0.3-1.2,0.4-1.8h0.3c0.2,0.8,0.8,1.5,2,1.5c1.1,0,1.7-0.7,1.7-1.4c0-2.1-4.2-1.6-4.2-4.8
	c0-2,1.5-3,3.2-3c1,0,1.8,0.3,2.3,0.7c-0.2,0.4-0.3,0.8-0.4,1.4L333,119.6L333,119.6z"/>
<path class="st1" d="M352.3,125.9c-0.2,0.4-0.3,0.8-0.3,1.2c-0.7,0.4-1.7,0.6-2.9,0.6c-3.3,0-5.2-2-5.2-4.7c0-3.9,2.6-5.4,5.6-5.4
	c1,0,2.2,0.3,2.9,0.7c-0.2,0.5-0.3,1-0.3,1.4h-0.3c-0.7-0.9-1.4-1.3-2.4-1.3c-1.5,0-3.2,1.3-3.2,4.3c0,2.9,1.7,4.1,3.4,4.1
	c0.9,0,1.9-0.4,2.6-1.1L352.3,125.9z"/>
<path class="st1" d="M361.1,117.5c3,0,5.4,1.7,5.4,5.1c0,2.8-2.2,5.1-5.4,5.1c-3,0-5.4-1.5-5.4-5.1
	C355.7,119.8,357.9,117.5,361.1,117.5z M361.1,118.3c-1.9,0-3.1,2-3.1,4.4c0,3,1.4,4.1,3,4.1c1.7,0,3.2-1.4,3.2-4.5
	C364.2,119.8,362.9,118.3,361.1,118.3z"/>
<path class="st1" d="M370.7,124c0-1.5,0-2.3,0-3.3c0-1.5,0-2.5-0.1-2.9c0.4,0,0.8,0.1,1.1,0.1c0.4,0,0.8,0,1.2-0.1
	c-0.2,1.8-0.2,3.3-0.2,4.9c0,3.5,1,4,2.8,4c2.3,0,2.4-2.5,2.4-5.1c0-1.3,0-2.6-0.1-3.9c0.2,0,0.5,0.1,0.7,0.1s0.5,0,0.7-0.1
	c-0.1,0.8-0.2,2.9-0.2,5.3c0,3.3-1.4,4.6-4.2,4.6C372.6,127.7,370.7,126.6,370.7,124z"/>
<path class="st1" d="M384.1,121.6c0-1.6,0-2.7-0.1-3.9c0.3,0,0.7,0.1,1.2,0.1s0.9-0.1,1.2-0.1c-0.1,1.2-0.1,2.3-0.1,3.9v1.9
	c0,1.1,0,2.1,0,2.9c1.1,0,2.2-0.1,3.3-0.2c0,0.2-0.1,0.3-0.1,0.6c0,0.3,0,0.4,0.1,0.6c-0.5,0-1.2-0.1-2.5-0.1c-2.3,0-2.7,0-3,0.1
	c0.1-1.2,0.1-2.3,0.1-3.9v-1.9H384.1z"/>
<path class="st1" d="M393.6,121.6c0-1.6,0-2.7-0.1-3.9c0.3,0,0.7,0.1,1.2,0.1s0.9-0.1,1.2-0.1c-0.1,1.2-0.1,2.3-0.1,3.9v1.9
	c0,1.6,0,2.7,0.1,3.9c-0.3,0-0.7-0.1-1.2-0.1s-0.8,0-1.2,0.1c0.1-1.2,0.1-2.3,0.1-3.9V121.6z"/>
<path class="st1" d="M404.9,119.6c-0.3-0.8-0.8-1.2-1.7-1.2c-0.9,0-1.5,0.6-1.5,1.3c0,2.1,4.3,1.6,4.3,4.8c0,1.9-1.5,3.2-3.8,3.2
	c-1,0-1.9-0.3-2.3-0.6c0.2-0.6,0.3-1.2,0.4-1.8h0.3c0.2,0.8,0.8,1.5,2,1.5c1.1,0,1.7-0.7,1.7-1.4c0-2.1-4.2-1.6-4.2-4.8
	c0-2,1.5-3,3.2-3c1,0,1.8,0.3,2.3,0.7c-0.2,0.4-0.3,0.8-0.5,1.4L404.9,119.6L404.9,119.6z"/>
<path class="st1" d="M414.4,119.6c-0.3-0.8-0.8-1.2-1.7-1.2c-0.9,0-1.5,0.6-1.5,1.3c0,2.1,4.3,1.6,4.3,4.8c0,1.9-1.5,3.2-3.8,3.2
	c-1,0-1.9-0.3-2.3-0.6c0.2-0.6,0.3-1.2,0.4-1.8h0.3c0.2,0.8,0.8,1.5,2,1.5c1.1,0,1.7-0.7,1.7-1.4c0-2.1-4.2-1.6-4.2-4.8
	c0-2,1.5-3,3.2-3c1,0,1.8,0.3,2.3,0.7c-0.2,0.4-0.3,0.8-0.5,1.4L414.4,119.6L414.4,119.6z"/>
<path class="st1" d="M427.4,127.5c-0.4,0-0.9-0.1-1.2-0.1c-0.4,0-0.8,0-1.2,0.1c-0.3-1-0.6-1.9-1-2.9c-0.6,0-1.2,0-1.8,0
	c-0.5,0-1,0-1.5,0c-0.4,1-0.7,1.9-1,2.9c-0.2,0-0.4-0.1-0.7-0.1c-0.2,0-0.4,0-0.7,0.1c0.7-1.6,2.8-6.6,4-9.8c0.2,0,0.4,0.1,0.5,0.1
	c0.2,0,0.4,0,0.5-0.1C424.6,120.9,426.3,125.2,427.4,127.5z M423.6,123.8c-0.4-1.2-0.8-2.3-1.2-3.4c-0.5,1.1-0.9,2.2-1.3,3.4H423.6z
	"/>
<path class="st1" d="M431,117.7c0.2,0,0.4,0.1,0.6,0.1c0.2,0,0.4,0,0.6-0.1c2,2.2,4.1,4.5,6.1,6.7c0-2.3,0-6.1-0.1-6.7
	c0.2,0,0.4,0.1,0.6,0.1c0.2,0,0.4,0,0.6-0.1c-0.2,4.1-0.2,6-0.2,9.8c-0.2-0.1-0.4-0.1-0.6-0.1c-0.2,0-0.4,0-0.5,0.1
	c-1.9-2.3-4-4.6-6.2-6.9c0,1.1,0,2.2,0,3.3c0,2.3,0.1,3.1,0.1,3.6c-0.2-0.1-0.4-0.1-0.7-0.1c-0.2,0-0.4,0-0.6,0.1
	c0.1-0.4,0.3-4.1,0.3-7C431.1,119.3,431,118.4,431,117.7z"/>
<path class="st1" d="M446,120c0-0.5,0-1-0.1-1.2c-0.5,0-1.7,0.1-2.6,0.2c0-0.2,0.1-0.4,0.1-0.6s0-0.4-0.1-0.6c1.3,0,1.9,0.1,3.7,0.1
	c1.7,0,2.4,0,3.6-0.1c0,0.2-0.1,0.4-0.1,0.6s0,0.4,0.1,0.6c-0.8-0.1-2-0.2-2.5-0.2c0,0.2,0,0.7,0,1.2v3.5c0,1.6,0,2.7,0.1,3.9
	c-0.3,0-0.7-0.1-1.2-0.1s-0.9,0-1.2,0.1c0.1-1.2,0.1-2.3,0.1-3.9L446,120L446,120z"/>
<path class="st1" d="M454.5,121.6c0-1.6,0-2.7-0.1-3.9c0.8,0,1.7,0.1,2.5,0.1c1.4,0,2.6,0,3-0.1c0,0.2-0.1,0.3-0.1,0.6
	c0,0.3,0,0.4,0.1,0.6c-1.1-0.1-2.8-0.2-3.2-0.2c-0.1,1-0.1,2-0.1,3.1c1.2,0,2.1-0.1,3.2-0.1c-0.1,0.3-0.1,0.4-0.1,0.6
	c0,0.1,0,0.3,0.1,0.6c-1.1-0.1-2.1-0.1-3.2-0.1c0,0.6,0,1.2,0,1.8c0,0.6,0,1.2,0,1.8c1.1,0,2.2-0.1,3.3-0.2c0,0.2-0.1,0.3-0.1,0.6
	c0,0.3,0,0.4,0.1,0.6c-0.5,0-1.2-0.1-2.5-0.1c-2.3,0-2.7,0-3,0.1c0.1-1.2,0.1-2.3,0.1-3.9V121.6L454.5,121.6z"/>
<path class="st1" d="M468.3,119.6c-0.3-0.8-0.8-1.2-1.7-1.2s-1.5,0.6-1.5,1.3c0,2.1,4.3,1.6,4.3,4.8c0,1.9-1.5,3.2-3.8,3.2
	c-1,0-1.9-0.3-2.3-0.6c0.2-0.6,0.3-1.2,0.4-1.8h0.3c0.2,0.8,0.8,1.5,2,1.5c1.1,0,1.7-0.7,1.7-1.4c0-2.1-4.2-1.6-4.2-4.8
	c0-2,1.5-3,3.2-3c1,0,1.8,0.3,2.3,0.7c-0.2,0.4-0.3,0.8-0.5,1.4L468.3,119.6L468.3,119.6z"/>
<path class="st1" d="M154.3,121.6c0-1.6,0-2.7-0.1-3.9c0.8,0,1.7,0.1,2.5,0.1c1.4,0,2.6,0,3-0.1c0,0.2-0.1,0.3-0.1,0.6
	c0,0.3,0,0.4,0.1,0.6c-1.1-0.1-2.8-0.2-3.2-0.2c-0.1,1-0.1,2-0.1,3.1c1.2,0,2.1-0.1,3.2-0.1c-0.1,0.3-0.1,0.4-0.1,0.6
	c0,0.1,0,0.3,0.1,0.6c-1.1-0.1-2.1-0.1-3.2-0.1v0.7c0,1.6,0,2.7,0.1,3.9c-0.3,0-0.7-0.1-1.2-0.1s-0.9,0-1.2,0.1
	c0.1-1.2,0.1-2.3,0.1-3.9L154.3,121.6L154.3,121.6z"/>
<path class="st1" d="M163.8,121.6c0-1.6,0-2.7-0.1-3.9c0.8,0,1.7,0.1,2.5,0.1c1.4,0,2.6,0,3-0.1c0,0.2-0.1,0.3-0.1,0.6
	c0,0.3,0,0.4,0.1,0.6c-1.1-0.1-2.8-0.2-3.2-0.2c-0.1,1-0.1,2-0.1,3.1c1.2,0,2.1-0.1,3.2-0.1c-0.1,0.3-0.1,0.4-0.1,0.6
	c0,0.1,0,0.3,0.1,0.6c-1.1-0.1-2.1-0.1-3.2-0.1c0,0.6,0,1.2,0,1.8c0,0.6,0,1.2,0.1,1.8c1.1,0,2.2-0.1,3.2-0.2c0,0.2-0.1,0.3-0.1,0.6
	c0,0.3,0,0.4,0.1,0.6c-0.5,0-1.2-0.1-2.5-0.1c-2.3,0-2.7,0-3,0.1c0.1-1.2,0.1-2.3,0.1-3.9V121.6L163.8,121.6z"/>
<path class="st1" d="M175.7,123h-0.1v0.6c0,1.6,0,2.7,0.1,3.9c-0.3,0-0.7-0.1-1.2-0.1s-0.9,0-1.2,0.1c0.1-1.2,0.1-2.3,0.1-3.9v-1.9
	c0-1.6,0-2.7-0.1-3.9c0.3,0,0.7,0.1,1.2,0.1s1.1-0.1,2.1-0.1c1.4,0,2,0.1,2.4,0.5c0.6,0.4,0.9,1,0.9,1.9c0,1.4-0.8,2.2-2.2,2.6
	c0.9,1.6,2,3.2,3,4.8c-0.4,0-0.8-0.1-1.3-0.1c-0.4,0-0.9,0-1.3,0.1L175.7,123z M175.6,118.5c0,1.3,0,2.6,0,3.8c0.1,0,0.2,0,0.3,0
	c1.3,0,1.9-0.7,1.9-2C177.8,118.7,177.1,118.5,175.6,118.5z"/>
<path class="st1" d="M186.7,123h-0.1v0.6c0,1.6,0,2.7,0.1,3.9c-0.3,0-0.7-0.1-1.2-0.1s-0.9,0-1.2,0.1c0.1-1.2,0.1-2.3,0.1-3.9v-1.9
	c0-1.6,0-2.7-0.1-3.9c0.3,0,0.7,0.1,1.2,0.1s1.1-0.1,2.1-0.1c1.4,0,2,0.1,2.5,0.5c0.6,0.4,0.9,1,0.9,1.9c0,1.4-0.8,2.2-2.2,2.6
	c0.9,1.6,2,3.2,3,4.8c-0.4,0-0.8-0.1-1.3-0.1c-0.4,0-0.9,0-1.3,0.1L186.7,123z M186.6,118.5c0,1.3,0,2.6,0,3.8c0.1,0,0.2,0,0.3,0
	c1.2,0,1.9-0.7,1.9-2C188.8,118.7,188.2,118.5,186.6,118.5z"/>
<path class="st1" d="M195.6,124c0-1.5,0-2.3,0-3.3c0-1.5,0-2.5-0.1-2.9c0.4,0,0.8,0.1,1.2,0.1s0.8,0,1.2-0.1
	c-0.2,1.8-0.2,3.3-0.2,4.9c0,3.5,1,4,2.8,4c2.3,0,2.4-2.5,2.4-5.1c0-1.3,0-2.6-0.1-3.9c0.2,0,0.5,0.1,0.7,0.1s0.5,0,0.7-0.1
	c-0.1,0.8-0.2,2.9-0.2,5.3c0,3.3-1.4,4.6-4.2,4.6C197.4,127.7,195.6,126.6,195.6,124z"/>
<path class="st1" d="M211.2,123h-0.1v0.6c0,1.6,0,2.7,0.1,3.9c-0.3,0-0.7-0.1-1.2-0.1s-0.8,0-1.2,0.1c0.1-1.2,0.1-2.3,0.1-3.9v-1.9
	c0-1.6,0-2.7-0.1-3.9c0.3,0,0.7,0.1,1.2,0.1s1.1-0.1,2.1-0.1c1.4,0,2,0.1,2.5,0.5c0.6,0.4,0.9,1,0.9,1.9c0,1.4-0.8,2.2-2.2,2.6
	c0.9,1.6,2,3.2,3,4.8c-0.4,0-0.8-0.1-1.3-0.1c-0.4,0-0.9,0-1.3,0.1L211.2,123z M211.1,118.5c0,1.3,0,2.6,0,3.8c0.1,0,0.2,0,0.3,0
	c1.3,0,1.9-0.7,1.9-2C213.3,118.7,212.6,118.5,211.1,118.5z"/>
<path class="st1" d="M219.9,121.6c0-1.6,0-2.7-0.1-3.9c0.8,0,1.7,0.1,2.5,0.1c1.4,0,2.6,0,3-0.1c0,0.2-0.1,0.3-0.1,0.6
	c0,0.3,0,0.4,0.1,0.6c-1.1-0.1-2.8-0.2-3.2-0.2c-0.1,1-0.1,2-0.1,3.1c1.2,0,2.1-0.1,3.2-0.1c-0.1,0.3-0.1,0.4-0.1,0.6
	c0,0.1,0,0.3,0.1,0.6c-1.1-0.1-2.1-0.1-3.2-0.1c0,0.6,0,1.2,0,1.8c0,0.6,0,1.2,0,1.8c1.1,0,2.2-0.1,3.2-0.2c0,0.2-0.1,0.3-0.1,0.6
	c0,0.3,0,0.4,0.1,0.6c-0.5,0-1.2-0.1-2.5-0.1c-2.3,0-2.7,0-3,0.1c0.1-1.2,0.1-2.3,0.1-3.9L219.9,121.6L219.9,121.6z"/>
<path class="st1" d="M233.7,119.6c-0.3-0.8-0.8-1.2-1.7-1.2s-1.5,0.6-1.5,1.3c0,2.1,4.3,1.6,4.3,4.8c0,1.9-1.5,3.2-3.8,3.2
	c-1,0-1.9-0.3-2.3-0.6c0.2-0.6,0.3-1.2,0.4-1.8h0.3c0.2,0.8,0.8,1.5,1.9,1.5s1.7-0.7,1.7-1.4c0-2.1-4.2-1.6-4.2-4.8c0-2,1.5-3,3.2-3
	c1,0,1.8,0.3,2.3,0.7c-0.2,0.4-0.3,0.8-0.5,1.4L233.7,119.6L233.7,119.6z"/>
<path class="st1" d="M245.3,121.6c0-1.6,0-2.7-0.1-3.9c0.3,0,0.7,0.1,1.2,0.1c0.6,0,1.3-0.1,2.6-0.1c3.2,0,5.4,1,5.4,4.6
	c0,3.1-2.2,5.2-4.9,5.2c-1.4,0-2.4-0.1-3.1-0.1c-0.5,0-0.9,0-1.2,0.1c0.1-1.2,0.1-2.3,0.1-3.9V121.6L245.3,121.6z M247.4,123.9
	c0,0.8,0,2.5,0,2.8c0.3,0,0.7,0.1,1.2,0.1c2.1,0,3.5-1.4,3.5-4.4c0-2.3-1.3-3.8-3.2-3.8c-0.7,0-1,0-1.5,0.1c0,0.3,0,2,0,2.8V123.9z"
	/>
<path class="st1" d="M258.5,121.6c0-1.6,0-2.7-0.1-3.9c0.8,0,1.7,0.1,2.5,0.1c1.4,0,2.6,0,3-0.1c0,0.2-0.1,0.3-0.1,0.6
	c0,0.3,0,0.4,0.1,0.6c-1.1-0.1-2.8-0.2-3.2-0.2c-0.1,1-0.1,2-0.1,3.1c1.2,0,2.1-0.1,3.2-0.1c-0.1,0.3-0.1,0.4-0.1,0.6
	c0,0.1,0,0.3,0.1,0.6c-1.1-0.1-2.1-0.1-3.2-0.1c0,0.6,0,1.2,0,1.8c0,0.6,0,1.2,0.1,1.8c1.1,0,2.2-0.1,3.2-0.2c0,0.2-0.1,0.3-0.1,0.6
	c0,0.3,0,0.4,0.1,0.6c-0.5,0-1.2-0.1-2.5-0.1c-2.3,0-2.7,0-3,0.1c0.1-1.2,0.1-2.3,0.1-3.9V121.6L258.5,121.6z"/>
<path class="st1" d="M274.3,121.6c0-1.6,0-2.7-0.1-3.9c0.3,0,0.7,0.1,1.2,0.1c0.7,0,1.4-0.1,2.1-0.1c1.3,0,2,0.2,2.5,0.6
	c0.6,0.5,0.9,1.1,0.9,1.9c0,2.2-1.5,3-3.6,3h-0.7c0,1.4,0,2.8,0.1,4.3c-0.3,0-0.7-0.1-1.2-0.1s-0.9,0-1.2,0.1
	c0.1-1.2,0.1-2.3,0.1-3.9L274.3,121.6L274.3,121.6z M277,118.5c-0.2,0-0.4,0-0.6,0c0,1.3,0,2.7,0,4c0.9,0,2.1-0.3,2.1-2.1
	C278.5,119,277.8,118.5,277,118.5z"/>
<path class="st1" d="M289.1,117.5c3,0,5.4,1.7,5.4,5.1c0,2.8-2.3,5.1-5.4,5.1c-3,0-5.4-1.5-5.4-5.1
	C283.7,119.8,285.8,117.5,289.1,117.5z M289.1,118.3c-1.9,0-3.1,2-3.1,4.4c0,3,1.4,4.1,3,4.1c1.7,0,3.2-1.4,3.2-4.5
	C292.2,119.8,290.9,118.3,289.1,118.3z"/>
<path class="st1" d="M300.6,123h-0.1v0.6c0,1.6,0,2.7,0.1,3.9c-0.3,0-0.7-0.1-1.2-0.1s-0.8,0-1.2,0.1c0.1-1.2,0.1-2.3,0.1-3.9v-1.9
	c0-1.6,0-2.7-0.1-3.9c0.3,0,0.7,0.1,1.2,0.1s1.1-0.1,2.1-0.1c1.4,0,2,0.1,2.5,0.5c0.6,0.4,0.9,1,0.9,1.9c0,1.4-0.8,2.2-2.2,2.6
	c0.9,1.6,2,3.2,3,4.8c-0.4,0-0.8-0.1-1.3-0.1s-0.9,0-1.3,0.1L300.6,123z M300.5,118.5c0,1.3-0.1,2.6-0.1,3.8c0.1,0,0.2,0,0.3,0
	c1.2,0,1.9-0.7,1.9-2C302.7,118.7,302,118.5,300.5,118.5z"/>
<path class="st1" d="M310.8,120c0-0.5,0-1,0-1.2c-0.6,0-1.7,0.1-2.6,0.2c0-0.2,0.1-0.4,0.1-0.6s0-0.4-0.1-0.6c1.3,0,1.9,0.1,3.7,0.1
	c1.8,0,2.4,0,3.6-0.1c0,0.2-0.1,0.4-0.1,0.6s0,0.4,0.1,0.6c-0.8-0.1-2-0.2-2.5-0.2c0,0.2,0,0.7,0,1.2v3.5c0,1.6,0,2.7,0.1,3.9
	c-0.3,0-0.7-0.1-1.2-0.1s-0.8,0-1.2,0.1c0.1-1.2,0.1-2.3,0.1-3.9V120z"/>
<path class="st1" d="M319.2,121.6c0-1.6,0-2.7-0.1-3.9c0.8,0,1.7,0.1,2.5,0.1c1.4,0,2.6,0,3-0.1c0,0.2-0.1,0.3-0.1,0.6
	c0,0.3,0,0.4,0.1,0.6c-1.1-0.1-2.8-0.2-3.2-0.2c-0.1,1-0.1,2-0.1,3.1c1.2,0,2.1-0.1,3.2-0.1c-0.1,0.3-0.1,0.4-0.1,0.6
	c0,0.1,0,0.3,0.1,0.6c-1.1-0.1-2.1-0.1-3.2-0.1c0,0.6,0,1.2,0,1.8c0,0.6,0,1.2,0,1.8c1.1,0,2.2-0.1,3.2-0.2c0,0.2-0.1,0.3-0.1,0.6
	c0,0.3,0,0.4,0.1,0.6c-0.5,0-1.2-0.1-2.5-0.1c-2.3,0-2.7,0-3,0.1c0.1-1.2,0.1-2.3,0.1-3.9L319.2,121.6L319.2,121.6z"/>
<path class="st1" d="M333,119.6c-0.3-0.8-0.8-1.2-1.7-1.2c-0.9,0-1.5,0.6-1.5,1.3c0,2.1,4.3,1.6,4.3,4.8c0,1.9-1.5,3.2-3.8,3.2
	c-1,0-1.9-0.3-2.3-0.6c0.2-0.6,0.3-1.2,0.4-1.8h0.3c0.2,0.8,0.8,1.5,2,1.5c1.1,0,1.7-0.7,1.7-1.4c0-2.1-4.2-1.6-4.2-4.8
	c0-2,1.5-3,3.2-3c1,0,1.8,0.3,2.3,0.7c-0.2,0.4-0.3,0.8-0.4,1.4L333,119.6L333,119.6z"/>
<path class="st1" d="M352.3,125.9c-0.2,0.4-0.3,0.8-0.3,1.2c-0.7,0.4-1.7,0.6-2.9,0.6c-3.3,0-5.2-2-5.2-4.7c0-3.9,2.6-5.4,5.6-5.4
	c1,0,2.2,0.3,2.9,0.7c-0.2,0.5-0.3,1-0.3,1.4h-0.3c-0.7-0.9-1.4-1.3-2.4-1.3c-1.5,0-3.2,1.3-3.2,4.3c0,2.9,1.7,4.1,3.4,4.1
	c0.9,0,1.9-0.4,2.6-1.1L352.3,125.9z"/>
<path class="st1" d="M361.1,117.5c3,0,5.4,1.7,5.4,5.1c0,2.8-2.2,5.1-5.4,5.1c-3,0-5.4-1.5-5.4-5.1
	C355.7,119.8,357.9,117.5,361.1,117.5z M361.1,118.3c-1.9,0-3.1,2-3.1,4.4c0,3,1.4,4.1,3,4.1c1.7,0,3.2-1.4,3.2-4.5
	C364.2,119.8,362.9,118.3,361.1,118.3z"/>
<path class="st1" d="M370.7,124c0-1.5,0-2.3,0-3.3c0-1.5,0-2.5-0.1-2.9c0.4,0,0.8,0.1,1.1,0.1c0.4,0,0.8,0,1.2-0.1
	c-0.2,1.8-0.2,3.3-0.2,4.9c0,3.5,1,4,2.8,4c2.3,0,2.4-2.5,2.4-5.1c0-1.3,0-2.6-0.1-3.9c0.2,0,0.5,0.1,0.7,0.1s0.5,0,0.7-0.1
	c-0.1,0.8-0.2,2.9-0.2,5.3c0,3.3-1.4,4.6-4.2,4.6C372.6,127.7,370.7,126.6,370.7,124z"/>
<path class="st1" d="M384.1,121.6c0-1.6,0-2.7-0.1-3.9c0.3,0,0.7,0.1,1.2,0.1s0.9-0.1,1.2-0.1c-0.1,1.2-0.1,2.3-0.1,3.9v1.9
	c0,1.1,0,2.1,0,2.9c1.1,0,2.2-0.1,3.3-0.2c0,0.2-0.1,0.3-0.1,0.6c0,0.3,0,0.4,0.1,0.6c-0.5,0-1.2-0.1-2.5-0.1c-2.3,0-2.7,0-3,0.1
	c0.1-1.2,0.1-2.3,0.1-3.9v-1.9H384.1z"/>
<path class="st1" d="M393.6,121.6c0-1.6,0-2.7-0.1-3.9c0.3,0,0.7,0.1,1.2,0.1s0.9-0.1,1.2-0.1c-0.1,1.2-0.1,2.3-0.1,3.9v1.9
	c0,1.6,0,2.7,0.1,3.9c-0.3,0-0.7-0.1-1.2-0.1s-0.8,0-1.2,0.1c0.1-1.2,0.1-2.3,0.1-3.9V121.6z"/>
<path class="st1" d="M404.9,119.6c-0.3-0.8-0.8-1.2-1.7-1.2c-0.9,0-1.5,0.6-1.5,1.3c0,2.1,4.3,1.6,4.3,4.8c0,1.9-1.5,3.2-3.8,3.2
	c-1,0-1.9-0.3-2.3-0.6c0.2-0.6,0.3-1.2,0.4-1.8h0.3c0.2,0.8,0.8,1.5,2,1.5c1.1,0,1.7-0.7,1.7-1.4c0-2.1-4.2-1.6-4.2-4.8
	c0-2,1.5-3,3.2-3c1,0,1.8,0.3,2.3,0.7c-0.2,0.4-0.3,0.8-0.5,1.4L404.9,119.6L404.9,119.6z"/>
<path class="st1" d="M414.4,119.6c-0.3-0.8-0.8-1.2-1.7-1.2c-0.9,0-1.5,0.6-1.5,1.3c0,2.1,4.3,1.6,4.3,4.8c0,1.9-1.5,3.2-3.8,3.2
	c-1,0-1.9-0.3-2.3-0.6c0.2-0.6,0.3-1.2,0.4-1.8h0.3c0.2,0.8,0.8,1.5,2,1.5c1.1,0,1.7-0.7,1.7-1.4c0-2.1-4.2-1.6-4.2-4.8
	c0-2,1.5-3,3.2-3c1,0,1.8,0.3,2.3,0.7c-0.2,0.4-0.3,0.8-0.5,1.4L414.4,119.6L414.4,119.6z"/>
<path class="st1" d="M427.4,127.5c-0.4,0-0.9-0.1-1.2-0.1c-0.4,0-0.8,0-1.2,0.1c-0.3-1-0.6-1.9-1-2.9c-0.6,0-1.2,0-1.8,0
	c-0.5,0-1,0-1.5,0c-0.4,1-0.7,1.9-1,2.9c-0.2,0-0.4-0.1-0.7-0.1c-0.2,0-0.4,0-0.7,0.1c0.7-1.6,2.8-6.6,4-9.8c0.2,0,0.4,0.1,0.5,0.1
	c0.2,0,0.4,0,0.5-0.1C424.6,120.9,426.3,125.2,427.4,127.5z M423.6,123.8c-0.4-1.2-0.8-2.3-1.2-3.4c-0.5,1.1-0.9,2.2-1.3,3.4H423.6z
	"/>
<path class="st1" d="M431,117.7c0.2,0,0.4,0.1,0.6,0.1c0.2,0,0.4,0,0.6-0.1c2,2.2,4.1,4.5,6.1,6.7c0-2.3,0-6.1-0.1-6.7
	c0.2,0,0.4,0.1,0.6,0.1c0.2,0,0.4,0,0.6-0.1c-0.2,4.1-0.2,6-0.2,9.8c-0.2-0.1-0.4-0.1-0.6-0.1c-0.2,0-0.4,0-0.5,0.1
	c-1.9-2.3-4-4.6-6.2-6.9c0,1.1,0,2.2,0,3.3c0,2.3,0.1,3.1,0.1,3.6c-0.2-0.1-0.4-0.1-0.7-0.1c-0.2,0-0.4,0-0.6,0.1
	c0.1-0.4,0.3-4.1,0.3-7C431.1,119.3,431,118.4,431,117.7z"/>
<path class="st1" d="M446,120c0-0.5,0-1-0.1-1.2c-0.5,0-1.7,0.1-2.6,0.2c0-0.2,0.1-0.4,0.1-0.6s0-0.4-0.1-0.6c1.3,0,1.9,0.1,3.7,0.1
	c1.7,0,2.4,0,3.6-0.1c0,0.2-0.1,0.4-0.1,0.6s0,0.4,0.1,0.6c-0.8-0.1-2-0.2-2.5-0.2c0,0.2,0,0.7,0,1.2v3.5c0,1.6,0,2.7,0.1,3.9
	c-0.3,0-0.7-0.1-1.2-0.1s-0.9,0-1.2,0.1c0.1-1.2,0.1-2.3,0.1-3.9L446,120L446,120z"/>
<path class="st1" d="M454.5,121.6c0-1.6,0-2.7-0.1-3.9c0.8,0,1.7,0.1,2.5,0.1c1.4,0,2.6,0,3-0.1c0,0.2-0.1,0.3-0.1,0.6
	c0,0.3,0,0.4,0.1,0.6c-1.1-0.1-2.8-0.2-3.2-0.2c-0.1,1-0.1,2-0.1,3.1c1.2,0,2.1-0.1,3.2-0.1c-0.1,0.3-0.1,0.4-0.1,0.6
	c0,0.1,0,0.3,0.1,0.6c-1.1-0.1-2.1-0.1-3.2-0.1c0,0.6,0,1.2,0,1.8c0,0.6,0,1.2,0,1.8c1.1,0,2.2-0.1,3.3-0.2c0,0.2-0.1,0.3-0.1,0.6
	c0,0.3,0,0.4,0.1,0.6c-0.5,0-1.2-0.1-2.5-0.1c-2.3,0-2.7,0-3,0.1c0.1-1.2,0.1-2.3,0.1-3.9V121.6L454.5,121.6z"/>
<path class="st1" d="M468.3,119.6c-0.3-0.8-0.8-1.2-1.7-1.2s-1.5,0.6-1.5,1.3c0,2.1,4.3,1.6,4.3,4.8c0,1.9-1.5,3.2-3.8,3.2
	c-1,0-1.9-0.3-2.3-0.6c0.2-0.6,0.3-1.2,0.4-1.8h0.3c0.2,0.8,0.8,1.5,2,1.5c1.1,0,1.7-0.7,1.7-1.4c0-2.1-4.2-1.6-4.2-4.8
	c0-2,1.5-3,3.2-3c1,0,1.8,0.3,2.3,0.7c-0.2,0.4-0.3,0.8-0.5,1.4L468.3,119.6L468.3,119.6z"/>
<path class="st1" d="M155.6,134.9c-0.3,2.1-0.4,4.3-0.6,6.4c-0.2,0-0.4-0.1-0.7-0.1c-0.2,0-0.4,0-0.7,0.1c0.6-3.3,1.1-6.5,1.5-9.8
	c0.2,0,0.4,0.1,0.6,0.1c0.2,0,0.4,0,0.6-0.1c1,2.3,2.2,4.8,3.3,6.8c1.1-2.1,2.3-4.5,3.3-6.8c0.2,0,0.4,0.1,0.6,0.1
	c0.2,0,0.4,0,0.6-0.1c0.4,3.3,0.9,7.8,1.2,9.8c-0.4,0-0.8-0.1-1.1-0.1s-0.8,0-1.2,0.1c-0.1-2-0.3-4.4-0.6-6.6l0,0
	c-1.1,2.2-2.1,4.4-3.1,6.6c-0.1,0-0.2,0-0.3,0s-0.2,0-0.3,0C157.7,139.1,156.7,137,155.6,134.9L155.6,134.9z"/>
<path class="st1" d="M179.6,141.3c-0.5,0-0.9-0.1-1.2-0.1c-0.4,0-0.8,0-1.2,0.1c-0.3-1-0.6-1.9-1-2.9c-0.6,0-1.2,0-1.8,0
	c-0.5,0-1,0-1.5,0c-0.4,1-0.7,1.9-1,2.9c-0.2,0-0.4-0.1-0.7-0.1c-0.2,0-0.4,0-0.7,0.1c0.7-1.6,2.8-6.6,4-9.8c0.2,0,0.4,0.1,0.5,0.1
	c0.2,0,0.4,0,0.5-0.1C176.8,134.7,178.5,139,179.6,141.3z M175.8,137.5c-0.4-1.1-0.8-2.3-1.3-3.4c-0.5,1.1-0.9,2.2-1.3,3.4H175.8z"
	/>
<path class="st1" d="M185.6,131.5c0.2,0,0.4,0.1,0.6,0.1c0.2,0,0.4,0,0.6-0.1c2,2.3,4.1,4.5,6.2,6.7c0-2.2,0-6.1-0.1-6.7
	c0.2,0,0.4,0.1,0.6,0.1c0.2,0,0.4,0,0.6-0.1c-0.2,4.1-0.2,6-0.2,9.8c-0.2,0-0.4-0.1-0.6-0.1c-0.2,0-0.4,0-0.6,0.1
	c-1.9-2.3-4-4.6-6.2-6.9c0,1.1,0,2.2,0,3.3c0,2.3,0.1,3.1,0.1,3.6c-0.2,0-0.5-0.1-0.7-0.1s-0.4,0-0.7,0.1c0.1-0.4,0.3-4.1,0.3-6.9
	C185.7,133.1,185.6,132.2,185.6,131.5z"/>
<path class="st1" d="M201.1,137.7c0-1.5,0-2.3,0-3.3c0-1.5,0-2.5-0.1-2.9c0.4,0,0.8,0.1,1.2,0.1s0.8,0,1.2-0.1
	c-0.2,1.8-0.2,3.3-0.2,5c0,3.5,1,4,2.8,4c2.3,0,2.4-2.5,2.4-5.1c0-1.3,0-2.6-0.1-3.9c0.2,0,0.5,0.1,0.7,0.1s0.5,0,0.7-0.1
	c-0.1,0.8-0.2,2.9-0.2,5.3c0,3.3-1.4,4.6-4.2,4.6C203,141.5,201.1,140.4,201.1,137.7z"/>
<path class="st1" d="M218.3,133.8c0-0.5,0-1-0.1-1.3c-0.5,0-1.7,0.1-2.6,0.2c0.1-0.2,0.1-0.4,0.1-0.6s0-0.4-0.1-0.6
	c1.3,0,1.9,0.1,3.7,0.1s2.4,0,3.6-0.1c0,0.2-0.1,0.4-0.1,0.6s0,0.4,0.1,0.6c-0.8-0.1-1.9-0.2-2.5-0.2c0,0.2,0,0.7,0,1.3v3.5
	c0,1.6,0,2.7,0.1,3.9c-0.3,0-0.7-0.1-1.2-0.1s-0.8,0-1.2,0.1c0.1-1.2,0.1-2.3,0.1-3.9L218.3,133.8L218.3,133.8z"/>
<path class="st1" d="M228.9,135.4c0-1.6,0-2.7-0.1-3.9c0.8,0,1.7,0.1,2.5,0.1c1.4,0,2.6,0,3-0.1c0,0.2-0.1,0.3-0.1,0.6
	c0,0.3,0,0.4,0.1,0.6c-1.1-0.1-2.8-0.2-3.2-0.2c-0.1,1-0.1,2.1-0.1,3.1c1.2,0,2.1-0.1,3.2-0.1c-0.1,0.3-0.1,0.4-0.1,0.6
	s0,0.3,0.1,0.6c-1.1-0.1-2.1-0.1-3.2-0.1c0,0.6,0,1.2,0,1.8c0,0.6,0,1.2,0,1.8c1.1,0,2.1-0.1,3.2-0.2c0,0.2-0.1,0.3-0.1,0.6
	c0,0.3,0,0.4,0.1,0.6c-0.5,0-1.2-0.1-2.5-0.1c-2.3,0-2.7,0-3,0.1c0.1-1.2,0.1-2.3,0.1-3.9L228.9,135.4L228.9,135.4z"/>
<path class="st1" d="M240.7,131.5c0.2,0,0.4,0.1,0.6,0.1c0.2,0,0.4,0,0.6-0.1c2,2.3,4.1,4.5,6.1,6.7c0-2.2,0-6.1-0.1-6.7
	c0.2,0,0.4,0.1,0.6,0.1c0.2,0,0.4,0,0.6-0.1c-0.2,4.1-0.2,6-0.2,9.8c-0.2,0-0.4-0.1-0.6-0.1c-0.2,0-0.4,0-0.6,0.1
	c-1.9-2.3-4-4.6-6.2-6.9c0,1.1,0,2.2,0,3.3c0,2.3,0.1,3.1,0.1,3.6c-0.2,0-0.4-0.1-0.7-0.1c-0.2,0-0.4,0-0.7,0.1
	c0.1-0.4,0.3-4.1,0.3-6.9C240.8,133.1,240.7,132.2,240.7,131.5z"/>
<path class="st1" d="M257.9,133.8c0-0.5,0-1-0.1-1.3c-0.5,0-1.7,0.1-2.6,0.2c0-0.2,0.1-0.4,0.1-0.6s0-0.4-0.1-0.6
	c1.3,0,1.9,0.1,3.7,0.1c1.8,0,2.4,0,3.6-0.1c0,0.2-0.1,0.4-0.1,0.6s0,0.4,0.1,0.6c-0.8-0.1-2-0.2-2.5-0.2c0,0.2,0,0.7,0,1.3v3.5
	c0,1.6,0,2.7,0.1,3.9c-0.3,0-0.7-0.1-1.2-0.1s-0.9,0-1.2,0.1c0.1-1.2,0.1-2.3,0.1-3.9L257.9,133.8L257.9,133.8z"/>
<path class="st1" d="M268.7,135.4c0-1.6,0-2.7-0.1-3.9c0.3,0,0.7,0.1,1.2,0.1s0.8-0.1,1.2-0.1c-0.1,1.3-0.1,2.3-0.1,3.9v1.9
	c0,1.6,0,2.7,0.1,3.9c-0.3,0-0.7-0.1-1.2-0.1s-0.9,0-1.2,0.1c0.1-1.2,0.1-2.3,0.1-3.9V135.4z"/>
<path class="st1" d="M282.5,131.3c3,0,5.4,1.6,5.4,5.1c0,2.8-2.2,5.1-5.4,5.1c-3,0-5.4-1.5-5.4-5.1
	C277.1,133.6,279.2,131.3,282.5,131.3z M282.5,132.1c-1.9,0-3.1,2-3.1,4.4c0,3,1.4,4.1,3,4.1c1.7,0,3.2-1.4,3.2-4.5
	C285.6,133.6,284.3,132.1,282.5,132.1z"/>
<path class="st1" d="M294.2,131.5c0.2,0,0.4,0.1,0.6,0.1c0.2,0,0.4,0,0.6-0.1c2,2.3,4.1,4.5,6.1,6.7c0-2.2,0-6.1-0.1-6.7
	c0.2,0,0.4,0.1,0.6,0.1c0.2,0,0.4,0,0.6-0.1c-0.2,4.1-0.2,6-0.2,9.8c-0.2,0-0.4-0.1-0.6-0.1c-0.2,0-0.4,0-0.5,0.1
	c-1.9-2.3-4-4.6-6.2-6.9c0,1.1,0,2.2,0,3.3c0,2.3,0,3.1,0.1,3.6c-0.2,0-0.5-0.1-0.7-0.1c-0.2,0-0.4,0-0.6,0.1
	c0.1-0.4,0.3-4.1,0.3-6.9C294.3,133.1,294.2,132.2,294.2,131.5z"/>
<path class="st1" d="M318.1,135.4c0-1.6,0-2.7-0.1-3.9c0.3,0,0.7,0.1,1.2,0.1c0.7,0,1.4-0.1,2.1-0.1c1.3,0,2,0.2,2.5,0.6
	c0.6,0.5,0.9,1.1,0.9,1.9c0,2.2-1.5,3-3.6,3h-0.7c0,1.4,0,2.8,0.1,4.2c-0.3,0-0.7-0.1-1.2-0.1s-0.8,0-1.2,0.1
	c0.1-1.2,0.1-2.3,0.1-3.9L318.1,135.4L318.1,135.4z M320.8,132.3c-0.2,0-0.4,0-0.6,0c0,1.3,0,2.7,0,4c1,0,2.1-0.3,2.1-2.1
	C322.3,132.8,321.6,132.3,320.8,132.3z"/>
<path class="st1" d="M337.7,141.3c-0.5,0-0.9-0.1-1.2-0.1c-0.4,0-0.8,0-1.2,0.1c-0.3-1-0.6-1.9-1-2.9c-0.6,0-1.2,0-1.8,0
	c-0.5,0-1,0-1.5,0c-0.4,1-0.7,1.9-1,2.9c-0.2,0-0.4-0.1-0.7-0.1c-0.2,0-0.4,0-0.7,0.1c0.7-1.6,2.8-6.6,4-9.8c0.2,0,0.4,0.1,0.5,0.1
	c0.2,0,0.3,0,0.5-0.1C334.9,134.7,336.6,139,337.7,141.3z M333.9,137.5c-0.4-1.1-0.8-2.3-1.3-3.4c-0.5,1.1-0.9,2.2-1.3,3.4H333.9z"
	/>
<path class="st1" d="M345.9,136.8h-0.2v0.6c0,1.6,0,2.7,0.1,3.9c-0.3,0-0.7-0.1-1.2-0.1s-0.8,0-1.2,0.1c0.1-1.2,0.1-2.3,0.1-3.9
	v-1.9c0-1.6,0-2.7-0.1-3.9c0.3,0,0.7,0.1,1.2,0.1s1.1-0.1,2.1-0.1c1.4,0,1.9,0.1,2.4,0.5c0.6,0.4,0.9,1,0.9,1.9
	c0,1.4-0.8,2.3-2.2,2.6c0.9,1.6,2,3.2,3,4.8c-0.4,0-0.9-0.1-1.3-0.1s-0.9,0-1.3,0.1L345.9,136.8z M345.8,132.3
	c0,1.3-0.1,2.6-0.1,3.9c0.1,0,0.2,0,0.3,0c1.2,0,1.9-0.7,1.9-2C348,132.5,347.3,132.3,345.8,132.3z"/>
<path class="st1" d="M365.1,134.9c-0.3,2.1-0.4,4.3-0.6,6.4c-0.2,0-0.4-0.1-0.7-0.1c-0.2,0-0.4,0-0.7,0.1c0.6-3.3,1.1-6.5,1.5-9.8
	c0.2,0,0.4,0.1,0.6,0.1c0.2,0,0.4,0,0.6-0.1c1,2.3,2.2,4.8,3.3,6.8c1.1-2.1,2.3-4.5,3.3-6.8c0.2,0,0.4,0.1,0.6,0.1s0.4,0,0.6-0.1
	c0.4,3.3,0.9,7.8,1.2,9.8c-0.4,0-0.8-0.1-1.1-0.1c-0.3,0-0.8,0-1.2,0.1c-0.1-2-0.3-4.4-0.6-6.6l0,0c-1.1,2.2-2.1,4.4-3.1,6.6
	c-0.1,0-0.2,0-0.3,0s-0.2,0-0.3,0C367.3,139.1,366.2,137,365.1,134.9L365.1,134.9z"/>
<path class="st1" d="M385.7,131.3c3,0,5.4,1.6,5.4,5.1c0,2.8-2.3,5.1-5.4,5.1c-3,0-5.4-1.5-5.4-5.1
	C380.2,133.6,382.4,131.3,385.7,131.3z M385.6,132.1c-1.9,0-3.1,2-3.1,4.4c0,3,1.4,4.1,3,4.1c1.7,0,3.2-1.4,3.2-4.5
	C388.7,133.6,387.4,132.1,385.6,132.1z"/>
<path class="st1" d="M397.4,131.5c0.2,0,0.4,0.1,0.6,0.1s0.4,0,0.6-0.1c2,2.3,4.1,4.5,6.1,6.7c0-2.2,0-6.1-0.1-6.7
	c0.2,0,0.4,0.1,0.6,0.1c0.2,0,0.4,0,0.6-0.1c-0.2,4.1-0.2,6-0.2,9.8c-0.2,0-0.4-0.1-0.6-0.1c-0.2,0-0.4,0-0.6,0.1
	c-1.9-2.3-4-4.6-6.2-6.9c0,1.1,0,2.2,0,3.3c0,2.3,0.1,3.1,0.1,3.6c-0.2,0-0.5-0.1-0.7-0.1c-0.2,0-0.4,0-0.6,0.1
	c0.1-0.4,0.3-4.1,0.3-6.9C397.4,133.1,397.4,132.2,397.4,131.5z"/>
<path class="st1" d="M417.4,131.3c3,0,5.4,1.6,5.4,5.1c0,2.8-2.2,5.1-5.4,5.1c-3,0-5.4-1.5-5.4-5.1
	C412,133.6,414.1,131.3,417.4,131.3z M417.3,132.1c-1.9,0-3.1,2-3.1,4.4c0,3,1.4,4.1,3,4.1c1.7,0,3.2-1.4,3.2-4.5
	C420.4,133.6,419.2,132.1,417.3,132.1z"/>
<path class="st1" d="M431.3,136.8L431.3,136.8l-0.1,0.6c0,1.6,0,2.7,0.1,3.9c-0.3,0-0.7-0.1-1.2-0.1s-0.9,0-1.2,0.1
	c0.1-1.2,0.1-2.3,0.1-3.9v-1.9c0-1.6,0-2.7-0.1-3.9c0.3,0,0.7,0.1,1.2,0.1s1.1-0.1,2.1-0.1c1.4,0,2,0.1,2.5,0.5
	c0.6,0.4,0.9,1,0.9,1.9c0,1.4-0.8,2.3-2.2,2.6c0.9,1.6,2,3.2,3,4.8c-0.4,0-0.8-0.1-1.3-0.1c-0.4,0-0.9,0-1.3,0.1L431.3,136.8z
	 M431.2,132.3c0,1.3,0,2.6,0,3.9c0.1,0,0.2,0,0.3,0c1.2,0,1.9-0.7,1.9-2C433.4,132.5,432.7,132.3,431.2,132.3z"/>
<path class="st1" d="M449.9,141.3c-0.4,0-0.8-0.1-1.2-0.1s-0.8,0-1.2,0.1c-0.3-1-0.6-1.9-1-2.9c-0.6,0-1.2,0-1.8,0c-0.5,0-1,0-1.5,0
	c-0.4,1-0.7,1.9-1,2.9c-0.2,0-0.4-0.1-0.7-0.1c-0.2,0-0.4,0-0.7,0.1c0.7-1.6,2.8-6.6,4-9.8c0.2,0,0.4,0.1,0.5,0.1
	c0.2,0,0.4,0,0.5-0.1C447.2,134.7,448.8,139,449.9,141.3z M446.2,137.5c-0.4-1.1-0.8-2.3-1.3-3.4c-0.5,1.1-0.9,2.2-1.3,3.4H446.2z"
	/>
<path class="st1" d="M455.3,135.4c0-1.6,0-2.7-0.1-3.9c0.3,0,0.7,0.1,1.2,0.1s0.8-0.1,1.2-0.1c-0.1,1.3-0.1,2.3-0.1,3.9v1.9
	c0,1.6,0,2.7,0.1,3.9c-0.3,0-0.7-0.1-1.2-0.1s-0.9,0-1.2,0.1c0.1-1.2,0.1-2.3,0.1-3.9V135.4z"/>
<path class="st1" d="M464.2,135.4c0-1.6,0-2.7-0.1-3.9c0.3,0,0.7,0.1,1.2,0.1s0.9-0.1,1.2-0.1c-0.1,1.3-0.1,2.3-0.1,3.9v1.9
	c0,1.1,0,2.1,0,2.9c1.1,0,2.2-0.1,3.3-0.2c0,0.2-0.1,0.3-0.1,0.6c0,0.3,0,0.4,0.1,0.6c-0.5,0-1.2-0.1-2.5-0.1c-2.3,0-2.7,0-3,0.1
	c0.1-1.2,0.1-2.3,0.1-3.9L464.2,135.4L464.2,135.4z"/>
<path class="st1" d="M155.6,134.9c-0.3,2.1-0.4,4.3-0.6,6.4c-0.2,0-0.4-0.1-0.7-0.1c-0.2,0-0.4,0-0.7,0.1c0.6-3.3,1.1-6.5,1.5-9.8
	c0.2,0,0.4,0.1,0.6,0.1c0.2,0,0.4,0,0.6-0.1c1,2.3,2.2,4.8,3.3,6.8c1.1-2.1,2.3-4.5,3.3-6.8c0.2,0,0.4,0.1,0.6,0.1
	c0.2,0,0.4,0,0.6-0.1c0.4,3.3,0.9,7.8,1.2,9.8c-0.4,0-0.8-0.1-1.1-0.1s-0.8,0-1.2,0.1c-0.1-2-0.3-4.4-0.6-6.6l0,0
	c-1.1,2.2-2.1,4.4-3.1,6.6c-0.1,0-0.2,0-0.3,0s-0.2,0-0.3,0C157.7,139.1,156.7,137,155.6,134.9L155.6,134.9z"/>
<path class="st1" d="M179.6,141.3c-0.5,0-0.9-0.1-1.2-0.1c-0.4,0-0.8,0-1.2,0.1c-0.3-1-0.6-1.9-1-2.9c-0.6,0-1.2,0-1.8,0
	c-0.5,0-1,0-1.5,0c-0.4,1-0.7,1.9-1,2.9c-0.2,0-0.4-0.1-0.7-0.1c-0.2,0-0.4,0-0.7,0.1c0.7-1.6,2.8-6.6,4-9.8c0.2,0,0.4,0.1,0.5,0.1
	c0.2,0,0.4,0,0.5-0.1C176.8,134.7,178.5,139,179.6,141.3z M175.8,137.5c-0.4-1.1-0.8-2.3-1.3-3.4c-0.5,1.1-0.9,2.2-1.3,3.4H175.8z"
	/>
<path class="st1" d="M185.6,131.5c0.2,0,0.4,0.1,0.6,0.1c0.2,0,0.4,0,0.6-0.1c2,2.3,4.1,4.5,6.2,6.7c0-2.2,0-6.1-0.1-6.7
	c0.2,0,0.4,0.1,0.6,0.1c0.2,0,0.4,0,0.6-0.1c-0.2,4.1-0.2,6-0.2,9.8c-0.2,0-0.4-0.1-0.6-0.1c-0.2,0-0.4,0-0.6,0.1
	c-1.9-2.3-4-4.6-6.2-6.9c0,1.1,0,2.2,0,3.3c0,2.3,0.1,3.1,0.1,3.6c-0.2,0-0.5-0.1-0.7-0.1s-0.4,0-0.7,0.1c0.1-0.4,0.3-4.1,0.3-6.9
	C185.7,133.1,185.6,132.2,185.6,131.5z"/>
<path class="st1" d="M201.1,137.7c0-1.5,0-2.3,0-3.3c0-1.5,0-2.5-0.1-2.9c0.4,0,0.8,0.1,1.2,0.1s0.8,0,1.2-0.1
	c-0.2,1.8-0.2,3.3-0.2,5c0,3.5,1,4,2.8,4c2.3,0,2.4-2.5,2.4-5.1c0-1.3,0-2.6-0.1-3.9c0.2,0,0.5,0.1,0.7,0.1s0.5,0,0.7-0.1
	c-0.1,0.8-0.2,2.9-0.2,5.3c0,3.3-1.4,4.6-4.2,4.6C203,141.5,201.1,140.4,201.1,137.7z"/>
<path class="st1" d="M218.3,133.8c0-0.5,0-1-0.1-1.3c-0.5,0-1.7,0.1-2.6,0.2c0.1-0.2,0.1-0.4,0.1-0.6s0-0.4-0.1-0.6
	c1.3,0,1.9,0.1,3.7,0.1s2.4,0,3.6-0.1c0,0.2-0.1,0.4-0.1,0.6s0,0.4,0.1,0.6c-0.8-0.1-1.9-0.2-2.5-0.2c0,0.2,0,0.7,0,1.3v3.5
	c0,1.6,0,2.7,0.1,3.9c-0.3,0-0.7-0.1-1.2-0.1s-0.8,0-1.2,0.1c0.1-1.2,0.1-2.3,0.1-3.9L218.3,133.8L218.3,133.8z"/>
<path class="st1" d="M228.9,135.4c0-1.6,0-2.7-0.1-3.9c0.8,0,1.7,0.1,2.5,0.1c1.4,0,2.6,0,3-0.1c0,0.2-0.1,0.3-0.1,0.6
	c0,0.3,0,0.4,0.1,0.6c-1.1-0.1-2.8-0.2-3.2-0.2c-0.1,1-0.1,2.1-0.1,3.1c1.2,0,2.1-0.1,3.2-0.1c-0.1,0.3-0.1,0.4-0.1,0.6
	s0,0.3,0.1,0.6c-1.1-0.1-2.1-0.1-3.2-0.1c0,0.6,0,1.2,0,1.8c0,0.6,0,1.2,0,1.8c1.1,0,2.1-0.1,3.2-0.2c0,0.2-0.1,0.3-0.1,0.6
	c0,0.3,0,0.4,0.1,0.6c-0.5,0-1.2-0.1-2.5-0.1c-2.3,0-2.7,0-3,0.1c0.1-1.2,0.1-2.3,0.1-3.9L228.9,135.4L228.9,135.4z"/>
<path class="st1" d="M240.7,131.5c0.2,0,0.4,0.1,0.6,0.1c0.2,0,0.4,0,0.6-0.1c2,2.3,4.1,4.5,6.1,6.7c0-2.2,0-6.1-0.1-6.7
	c0.2,0,0.4,0.1,0.6,0.1c0.2,0,0.4,0,0.6-0.1c-0.2,4.1-0.2,6-0.2,9.8c-0.2,0-0.4-0.1-0.6-0.1c-0.2,0-0.4,0-0.6,0.1
	c-1.9-2.3-4-4.6-6.2-6.9c0,1.1,0,2.2,0,3.3c0,2.3,0.1,3.1,0.1,3.6c-0.2,0-0.4-0.1-0.7-0.1c-0.2,0-0.4,0-0.7,0.1
	c0.1-0.4,0.3-4.1,0.3-6.9C240.8,133.1,240.7,132.2,240.7,131.5z"/>
<path class="st1" d="M257.9,133.8c0-0.5,0-1-0.1-1.3c-0.5,0-1.7,0.1-2.6,0.2c0-0.2,0.1-0.4,0.1-0.6s0-0.4-0.1-0.6
	c1.3,0,1.9,0.1,3.7,0.1c1.8,0,2.4,0,3.6-0.1c0,0.2-0.1,0.4-0.1,0.6s0,0.4,0.1,0.6c-0.8-0.1-2-0.2-2.5-0.2c0,0.2,0,0.7,0,1.3v3.5
	c0,1.6,0,2.7,0.1,3.9c-0.3,0-0.7-0.1-1.2-0.1s-0.9,0-1.2,0.1c0.1-1.2,0.1-2.3,0.1-3.9L257.9,133.8L257.9,133.8z"/>
<path class="st1" d="M268.7,135.4c0-1.6,0-2.7-0.1-3.9c0.3,0,0.7,0.1,1.2,0.1s0.8-0.1,1.2-0.1c-0.1,1.3-0.1,2.3-0.1,3.9v1.9
	c0,1.6,0,2.7,0.1,3.9c-0.3,0-0.7-0.1-1.2-0.1s-0.9,0-1.2,0.1c0.1-1.2,0.1-2.3,0.1-3.9V135.4z"/>
<path class="st1" d="M282.5,131.3c3,0,5.4,1.6,5.4,5.1c0,2.8-2.2,5.1-5.4,5.1c-3,0-5.4-1.5-5.4-5.1
	C277.1,133.6,279.2,131.3,282.5,131.3z M282.5,132.1c-1.9,0-3.1,2-3.1,4.4c0,3,1.4,4.1,3,4.1c1.7,0,3.2-1.4,3.2-4.5
	C285.6,133.6,284.3,132.1,282.5,132.1z"/>
<path class="st1" d="M294.2,131.5c0.2,0,0.4,0.1,0.6,0.1c0.2,0,0.4,0,0.6-0.1c2,2.3,4.1,4.5,6.1,6.7c0-2.2,0-6.1-0.1-6.7
	c0.2,0,0.4,0.1,0.6,0.1c0.2,0,0.4,0,0.6-0.1c-0.2,4.1-0.2,6-0.2,9.8c-0.2,0-0.4-0.1-0.6-0.1c-0.2,0-0.4,0-0.5,0.1
	c-1.9-2.3-4-4.6-6.2-6.9c0,1.1,0,2.2,0,3.3c0,2.3,0,3.1,0.1,3.6c-0.2,0-0.5-0.1-0.7-0.1c-0.2,0-0.4,0-0.6,0.1
	c0.1-0.4,0.3-4.1,0.3-6.9C294.3,133.1,294.2,132.2,294.2,131.5z"/>
<path class="st1" d="M318.1,135.4c0-1.6,0-2.7-0.1-3.9c0.3,0,0.7,0.1,1.2,0.1c0.7,0,1.4-0.1,2.1-0.1c1.3,0,2,0.2,2.5,0.6
	c0.6,0.5,0.9,1.1,0.9,1.9c0,2.2-1.5,3-3.6,3h-0.7c0,1.4,0,2.8,0.1,4.2c-0.3,0-0.7-0.1-1.2-0.1s-0.8,0-1.2,0.1
	c0.1-1.2,0.1-2.3,0.1-3.9L318.1,135.4L318.1,135.4z M320.8,132.3c-0.2,0-0.4,0-0.6,0c0,1.3,0,2.7,0,4c1,0,2.1-0.3,2.1-2.1
	C322.3,132.8,321.6,132.3,320.8,132.3z"/>
<path class="st1" d="M337.7,141.3c-0.5,0-0.9-0.1-1.2-0.1c-0.4,0-0.8,0-1.2,0.1c-0.3-1-0.6-1.9-1-2.9c-0.6,0-1.2,0-1.8,0
	c-0.5,0-1,0-1.5,0c-0.4,1-0.7,1.9-1,2.9c-0.2,0-0.4-0.1-0.7-0.1c-0.2,0-0.4,0-0.7,0.1c0.7-1.6,2.8-6.6,4-9.8c0.2,0,0.4,0.1,0.5,0.1
	c0.2,0,0.3,0,0.5-0.1C334.9,134.7,336.6,139,337.7,141.3z M333.9,137.5c-0.4-1.1-0.8-2.3-1.3-3.4c-0.5,1.1-0.9,2.2-1.3,3.4H333.9z"
	/>
<path class="st1" d="M345.9,136.8h-0.2v0.6c0,1.6,0,2.7,0.1,3.9c-0.3,0-0.7-0.1-1.2-0.1s-0.8,0-1.2,0.1c0.1-1.2,0.1-2.3,0.1-3.9
	v-1.9c0-1.6,0-2.7-0.1-3.9c0.3,0,0.7,0.1,1.2,0.1s1.1-0.1,2.1-0.1c1.4,0,1.9,0.1,2.4,0.5c0.6,0.4,0.9,1,0.9,1.9
	c0,1.4-0.8,2.3-2.2,2.6c0.9,1.6,2,3.2,3,4.8c-0.4,0-0.9-0.1-1.3-0.1s-0.9,0-1.3,0.1L345.9,136.8z M345.8,132.3
	c0,1.3-0.1,2.6-0.1,3.9c0.1,0,0.2,0,0.3,0c1.2,0,1.9-0.7,1.9-2C348,132.5,347.3,132.3,345.8,132.3z"/>
<path class="st1" d="M365.1,134.9c-0.3,2.1-0.4,4.3-0.6,6.4c-0.2,0-0.4-0.1-0.7-0.1c-0.2,0-0.4,0-0.7,0.1c0.6-3.3,1.1-6.5,1.5-9.8
	c0.2,0,0.4,0.1,0.6,0.1c0.2,0,0.4,0,0.6-0.1c1,2.3,2.2,4.8,3.3,6.8c1.1-2.1,2.3-4.5,3.3-6.8c0.2,0,0.4,0.1,0.6,0.1s0.4,0,0.6-0.1
	c0.4,3.3,0.9,7.8,1.2,9.8c-0.4,0-0.8-0.1-1.1-0.1c-0.3,0-0.8,0-1.2,0.1c-0.1-2-0.3-4.4-0.6-6.6l0,0c-1.1,2.2-2.1,4.4-3.1,6.6
	c-0.1,0-0.2,0-0.3,0s-0.2,0-0.3,0C367.3,139.1,366.2,137,365.1,134.9L365.1,134.9z"/>
<path class="st1" d="M385.7,131.3c3,0,5.4,1.6,5.4,5.1c0,2.8-2.3,5.1-5.4,5.1c-3,0-5.4-1.5-5.4-5.1
	C380.2,133.6,382.4,131.3,385.7,131.3z M385.6,132.1c-1.9,0-3.1,2-3.1,4.4c0,3,1.4,4.1,3,4.1c1.7,0,3.2-1.4,3.2-4.5
	C388.7,133.6,387.4,132.1,385.6,132.1z"/>
<path class="st1" d="M397.4,131.5c0.2,0,0.4,0.1,0.6,0.1s0.4,0,0.6-0.1c2,2.3,4.1,4.5,6.1,6.7c0-2.2,0-6.1-0.1-6.7
	c0.2,0,0.4,0.1,0.6,0.1c0.2,0,0.4,0,0.6-0.1c-0.2,4.1-0.2,6-0.2,9.8c-0.2,0-0.4-0.1-0.6-0.1c-0.2,0-0.4,0-0.6,0.1
	c-1.9-2.3-4-4.6-6.2-6.9c0,1.1,0,2.2,0,3.3c0,2.3,0.1,3.1,0.1,3.6c-0.2,0-0.5-0.1-0.7-0.1c-0.2,0-0.4,0-0.6,0.1
	c0.1-0.4,0.3-4.1,0.3-6.9C397.4,133.1,397.4,132.2,397.4,131.5z"/>
<path class="st1" d="M417.4,131.3c3,0,5.4,1.6,5.4,5.1c0,2.8-2.2,5.1-5.4,5.1c-3,0-5.4-1.5-5.4-5.1
	C412,133.6,414.1,131.3,417.4,131.3z M417.3,132.1c-1.9,0-3.1,2-3.1,4.4c0,3,1.4,4.1,3,4.1c1.7,0,3.2-1.4,3.2-4.5
	C420.4,133.6,419.2,132.1,417.3,132.1z"/>
<path class="st1" d="M431.3,136.8L431.3,136.8l-0.1,0.6c0,1.6,0,2.7,0.1,3.9c-0.3,0-0.7-0.1-1.2-0.1s-0.9,0-1.2,0.1
	c0.1-1.2,0.1-2.3,0.1-3.9v-1.9c0-1.6,0-2.7-0.1-3.9c0.3,0,0.7,0.1,1.2,0.1s1.1-0.1,2.1-0.1c1.4,0,2,0.1,2.5,0.5
	c0.6,0.4,0.9,1,0.9,1.9c0,1.4-0.8,2.3-2.2,2.6c0.9,1.6,2,3.2,3,4.8c-0.4,0-0.8-0.1-1.3-0.1c-0.4,0-0.9,0-1.3,0.1L431.3,136.8z
	 M431.2,132.3c0,1.3,0,2.6,0,3.9c0.1,0,0.2,0,0.3,0c1.2,0,1.9-0.7,1.9-2C433.4,132.5,432.7,132.3,431.2,132.3z"/>
<path class="st1" d="M449.9,141.3c-0.4,0-0.8-0.1-1.2-0.1s-0.8,0-1.2,0.1c-0.3-1-0.6-1.9-1-2.9c-0.6,0-1.2,0-1.8,0c-0.5,0-1,0-1.5,0
	c-0.4,1-0.7,1.9-1,2.9c-0.2,0-0.4-0.1-0.7-0.1c-0.2,0-0.4,0-0.7,0.1c0.7-1.6,2.8-6.6,4-9.8c0.2,0,0.4,0.1,0.5,0.1
	c0.2,0,0.4,0,0.5-0.1C447.2,134.7,448.8,139,449.9,141.3z M446.2,137.5c-0.4-1.1-0.8-2.3-1.3-3.4c-0.5,1.1-0.9,2.2-1.3,3.4H446.2z"
	/>
<path class="st1" d="M455.3,135.4c0-1.6,0-2.7-0.1-3.9c0.3,0,0.7,0.1,1.2,0.1s0.8-0.1,1.2-0.1c-0.1,1.3-0.1,2.3-0.1,3.9v1.9
	c0,1.6,0,2.7,0.1,3.9c-0.3,0-0.7-0.1-1.2-0.1s-0.9,0-1.2,0.1c0.1-1.2,0.1-2.3,0.1-3.9V135.4z"/>
<path class="st1" d="M464.2,135.4c0-1.6,0-2.7-0.1-3.9c0.3,0,0.7,0.1,1.2,0.1s0.9-0.1,1.2-0.1c-0.1,1.3-0.1,2.3-0.1,3.9v1.9
	c0,1.1,0,2.1,0,2.9c1.1,0,2.2-0.1,3.3-0.2c0,0.2-0.1,0.3-0.1,0.6c0,0.3,0,0.4,0.1,0.6c-0.5,0-1.2-0.1-2.5-0.1c-2.3,0-2.7,0-3,0.1
	c0.1-1.2,0.1-2.3,0.1-3.9L464.2,135.4L464.2,135.4z"/>
</svg>
