<?xml version="1.0" encoding="utf-8"?>
<!-- Generator: Adobe Illustrator 15.0.0, SVG Export Plug-In . SVG Version: 6.00 Build 0)  -->
<!DOCTYPE svg PUBLIC "-//W3C//DTD SVG 1.1//EN" "http://www.w3.org/Graphics/SVG/1.1/DTD/svg11.dtd">
<svg version="1.1" id="Calque_1" xmlns="http://www.w3.org/2000/svg" xmlns:xlink="http://www.w3.org/1999/xlink" x="0px" y="0px"
	 width="500px" height="500px" viewBox="0 0 500 500" enable-background="new 0 0 500 500" xml:space="preserve">
<g>
	<rect x="19.647" y="190.019" fill="#FFFFFF" width="126.171" height="126.178"/>
	<rect x="23.585" y="193.963" fill="#005AA0" width="118.295" height="118.295"/>
	<path fill="#A6C754" d="M24.344,289.946c0,11.833,9.585,21.433,21.431,21.433c11.845,0,21.432-9.6,21.432-21.433
		s-9.587-21.438-21.432-21.438C33.929,268.509,24.344,278.113,24.344,289.946z"/>
	<path fill="#FFFFFF" d="M22.116,289.946c0,13.039,10.613,23.646,23.659,23.646s23.666-10.607,23.666-23.646
		c0-13.045-10.62-23.659-23.666-23.659S22.116,276.901,22.116,289.946z M45.775,270.237c10.876,0,19.709,8.834,19.709,19.709
		c0,10.863-8.833,19.715-19.709,19.715c-10.875,0-19.708-8.852-19.708-19.715C26.067,279.071,34.9,270.237,45.775,270.237z"/>
	<path fill="#FFFFFF" d="M177.046,187.373c-70.779,79.495-140.672,55.663-141.668,6.599l-13.894,11.507
		C24.689,262.208,106.311,278.28,177.046,187.373z"/>
	<path fill="#A6C754" d="M177.046,187.373c-74.404,76.125-142.688,49.077-141.405,0.022l-12.024,11.613
		C24.204,258.571,106.362,270.001,177.046,187.373z"/>
	<path fill="#005AA0" d="M198.204,274.781l3.121-21.118c0.829-5.546,1.965-12.619,3.415-19.983h-0.224
		c-2.821,6.611-6.012,13.677-8.82,19.3l-10.486,20.972h-8.508l-1.825-20.742c-0.454-5.63-0.842-12.688-1.143-19.53h-0.147
		c-1.455,6.765-2.974,14.514-4.263,19.983l-5.087,21.118h-10.026l12.841-51.211h14.661l1.602,19.53
		c0.306,4.787,0.829,10.563,0.906,16.262h0.306c1.978-5.699,4.71-11.705,6.918-16.338l9.497-19.454h14.819l-6.918,51.211H198.204z"
		/>
	<path fill="#005AA0" d="M231.947,261.487l-6.012,13.294h-11.692l24.999-51.211h14.055l5.929,51.211H247.75l-1.06-13.294H231.947z
		 M246.231,253.127l-0.989-11.009c-0.229-2.822-0.454-6.918-0.683-10.033h-0.23c-1.289,3.114-2.731,7.064-4.097,10.033
		l-5.017,11.009H246.231z"/>
	<path fill="#005AA0" d="M264.772,274.781l9.732-51.211h12.841l6.766,19.53c2.042,6.536,3.414,11.859,4.634,17.474h0.224
		c0.229-5.238,0.989-10.861,2.354-18.387l3.497-18.617h10.25l-9.72,51.211h-11.315l-7.148-20.43
		c-2.278-6.995-3.65-11.634-5.017-17.857h-0.229c-0.523,5.011-1.749,12.235-3.268,20.354l-3.415,17.934H264.772z"/>
	<path fill="#005AA0" d="M332.558,233.144h-13.53l1.901-9.573h38.063l-1.817,9.573h-13.679l-7.9,41.638H324.65L332.558,233.144z"/>
	<path fill="#005AA0" d="M375.867,223.57l-9.727,51.211h-10.945l9.733-51.211H375.867z"/>
	<path fill="#005AA0" d="M398.971,275.625c-13.307,0-20.748-9.427-20.748-21.35c0-9.197,3.414-18.241,9.268-24.093
		c4.793-4.634,11.404-7.441,18.847-7.441c13.53,0,20.666,9.113,20.666,21.341c0,9.275-3.268,18.394-9.044,24.094
		c-4.704,4.716-11.239,7.448-18.924,7.448H398.971z M400.485,266.511c8.819,0,14.813-12.458,14.813-22.121
		c0-6.383-2.272-12.536-10.327-12.536c-9.203,0-15.19,12.312-15.19,22.032c0,7.226,3.263,12.625,10.634,12.625H400.485z"/>
	<path fill="#005AA0" d="M428.63,274.781l9.721-51.211h12.841l6.765,19.53c2.056,6.536,3.422,11.859,4.646,17.474h0.218
		c0.229-5.238,0.996-10.861,2.361-18.387l3.497-18.617h10.263l-9.739,51.211H457.88l-7.136-20.43
		c-2.284-6.995-3.649-11.634-5.017-17.857h-0.229c-0.535,5.011-1.748,12.235-3.279,20.354l-3.396,17.934H428.63z"/>
	<path fill="#005AA0" d="M198.204,274.781l3.121-21.118c0.829-5.546,1.965-12.619,3.415-19.983h-0.224
		c-2.821,6.611-6.012,13.677-8.82,19.3l-10.486,20.972h-8.508l-1.825-20.742c-0.454-5.63-0.842-12.688-1.143-19.53h-0.147
		c-1.455,6.765-2.974,14.514-4.263,19.983l-5.087,21.118h-10.026l12.841-51.211h14.661l1.602,19.53
		c0.306,4.787,0.829,10.563,0.906,16.262h0.306c1.978-5.699,4.71-11.705,6.918-16.338l9.497-19.454h14.819l-6.918,51.211H198.204z"
		/>
	<path fill="#005AA0" d="M231.947,261.487l-6.012,13.294h-11.692l24.999-51.211h14.055l5.929,51.211H247.75l-1.06-13.294H231.947z
		 M246.231,253.127l-0.989-11.009c-0.229-2.822-0.454-6.918-0.683-10.033h-0.23c-1.289,3.114-2.731,7.064-4.097,10.033
		l-5.017,11.009H246.231z"/>
	<path fill="#005AA0" d="M264.772,274.781l9.732-51.211h12.841l6.766,19.53c2.042,6.536,3.414,11.859,4.634,17.474h0.224
		c0.229-5.238,0.989-10.861,2.354-18.387l3.497-18.617h10.25l-9.72,51.211h-11.315l-7.148-20.43
		c-2.278-6.995-3.65-11.634-5.017-17.857h-0.229c-0.523,5.011-1.749,12.235-3.268,20.354l-3.415,17.934H264.772z"/>
	<path fill="#005AA0" d="M332.558,233.144h-13.53l1.901-9.573h38.063l-1.817,9.573h-13.679l-7.9,41.638H324.65L332.558,233.144z"/>
	<path fill="#005AA0" d="M375.867,223.57l-9.727,51.211h-10.945l9.733-51.211H375.867z"/>
	<path fill="#005AA0" d="M398.971,275.625c-13.307,0-20.748-9.427-20.748-21.35c0-9.197,3.414-18.241,9.268-24.093
		c4.793-4.634,11.404-7.441,18.847-7.441c13.53,0,20.666,9.113,20.666,21.341c0,9.275-3.268,18.394-9.044,24.094
		c-4.704,4.716-11.239,7.448-18.924,7.448H398.971z M400.485,266.511c8.819,0,14.813-12.458,14.813-22.121
		c0-6.383-2.272-12.536-10.327-12.536c-9.203,0-15.19,12.312-15.19,22.032c0,7.226,3.263,12.625,10.634,12.625H400.485z"/>
	<path fill="#005AA0" d="M428.63,274.781l9.721-51.211h12.841l6.765,19.53c2.056,6.536,3.422,11.859,4.646,17.474h0.218
		c0.229-5.238,0.996-10.861,2.361-18.387l3.497-18.617h10.263l-9.739,51.211H457.88l-7.136-20.43
		c-2.284-6.995-3.649-11.634-5.017-17.857h-0.229c-0.535,5.011-1.748,12.235-3.279,20.354l-3.396,17.934H428.63z"/>
	<rect x="154.249" y="279.678" fill="#A6C754" width="314.864" height="2.948"/>
	<path fill="#005AA0" d="M154.332,292.652c0-1.583-0.032-2.681-0.122-3.912c0.842,0.013,1.691,0.07,2.527,0.07
		c1.392,0,2.579-0.032,2.962-0.07c-0.039,0.172-0.064,0.339-0.064,0.594c0,0.3,0.025,0.427,0.064,0.625
		c-1.072-0.063-2.77-0.159-3.204-0.159c-0.064,1.033-0.064,2.049-0.064,3.089c1.226-0.032,2.132-0.058,3.204-0.115
		c-0.051,0.326-0.064,0.447-0.064,0.639c0,0.146,0.025,0.274,0.064,0.573c-1.072-0.088-2.132-0.12-3.204-0.12v0.715
		c0,1.589,0.025,2.687,0.108,3.931c-0.312-0.032-0.696-0.076-1.155-0.076c-0.473,0-0.855,0.044-1.175,0.076
		c0.089-1.244,0.122-2.342,0.122-3.931V292.652z"/>
	<path fill="#005AA0" d="M163.823,292.652c0-1.583-0.039-2.681-0.122-3.912c0.836,0.013,1.691,0.07,2.521,0.07
		c1.392,0,2.579-0.032,2.962-0.07c-0.025,0.172-0.058,0.339-0.058,0.594c0,0.3,0.032,0.427,0.058,0.625
		c-1.079-0.063-2.783-0.159-3.204-0.159c-0.071,1.033-0.071,2.049-0.071,3.089c1.232-0.032,2.138-0.058,3.217-0.115
		c-0.057,0.326-0.071,0.447-0.071,0.639c0,0.146,0.025,0.274,0.071,0.573c-1.079-0.088-2.138-0.12-3.217-0.12
		c0,0.6-0.019,1.2-0.019,1.812c0,0.594,0.019,1.207,0.051,1.769c1.06,0,2.151-0.063,3.243-0.179
		c-0.025,0.192-0.058,0.338-0.058,0.632c0,0.3,0.032,0.435,0.058,0.612c-0.511-0.012-1.175-0.076-2.476-0.076
		c-2.311,0-2.694,0.044-3.006,0.076c0.083-1.244,0.122-2.342,0.122-3.931V292.652z"/>
	<path fill="#005AA0" d="M175.655,293.999h-0.128v0.581c0,1.589,0.026,2.687,0.116,3.931c-0.313-0.032-0.702-0.076-1.163-0.076
		c-0.472,0-0.854,0.044-1.161,0.076c0.077-1.244,0.115-2.342,0.115-3.931v-1.928c0-1.583-0.038-2.681-0.115-3.912
		c0.307,0.02,0.689,0.07,1.161,0.07c0.511,0,1.111-0.07,2.081-0.07c1.423,0,1.953,0.121,2.444,0.472
		c0.568,0.422,0.926,1.04,0.926,1.877c0,1.372-0.792,2.247-2.196,2.598c0.906,1.608,1.978,3.223,3.013,4.824
		c-0.428-0.032-0.849-0.076-1.277-0.076c-0.42,0-0.861,0.044-1.288,0.076L175.655,293.999z M175.566,289.545
		c-0.025,1.288-0.039,2.559-0.039,3.848c0.116,0.02,0.205,0.025,0.307,0.025c1.251,0,1.928-0.688,1.928-2.023
		C177.761,289.723,177.11,289.545,175.566,289.545z"/>
	<path fill="#005AA0" d="M186.709,293.999h-0.127v0.581c0,1.589,0.025,2.687,0.115,3.931c-0.314-0.032-0.69-0.076-1.162-0.076
		c-0.466,0-0.855,0.044-1.163,0.076c0.084-1.244,0.116-2.342,0.116-3.931v-1.928c0-1.583-0.032-2.681-0.116-3.912
		c0.307,0.02,0.697,0.07,1.163,0.07c0.51,0,1.123-0.07,2.08-0.07c1.429,0,1.953,0.121,2.451,0.472
		c0.562,0.422,0.919,1.04,0.919,1.877c0,1.372-0.792,2.247-2.196,2.598c0.906,1.608,1.979,3.223,3.013,4.824
		c-0.421-0.032-0.842-0.076-1.276-0.076c-0.422,0-0.856,0.044-1.284,0.076L186.709,293.999z M186.619,289.545
		c-0.025,1.288-0.038,2.559-0.038,3.848c0.115,0.02,0.217,0.025,0.312,0.025c1.244,0,1.928-0.688,1.928-2.023
		C188.822,289.723,188.171,289.545,186.619,289.545z"/>
	<path fill="#005AA0" d="M195.562,294.963c0-1.525,0.019-2.285,0.019-3.307c0-1.499-0.019-2.45-0.051-2.916
		c0.383,0.038,0.778,0.07,1.156,0.07c0.389,0,0.785-0.032,1.168-0.07c-0.186,1.838-0.199,3.312-0.199,4.946
		c0,3.459,0.989,4.027,2.829,4.027c2.272,0,2.424-2.451,2.424-5.087c0-1.295-0.044-2.585-0.115-3.887
		c0.236,0.038,0.479,0.07,0.728,0.07c0.236,0,0.466-0.032,0.702-0.07c-0.083,0.836-0.179,2.853-0.179,5.31
		c0,3.274-1.43,4.64-4.174,4.64C197.445,298.689,195.562,297.618,195.562,294.963z"/>
	<path fill="#005AA0" d="M211.191,293.999h-0.127v0.581c0,1.589,0.025,2.687,0.115,3.931c-0.319-0.032-0.702-0.076-1.168-0.076
		s-0.849,0.044-1.156,0.076c0.084-1.244,0.116-2.342,0.116-3.931v-1.928c0-1.583-0.032-2.681-0.116-3.912
		c0.307,0.02,0.69,0.07,1.156,0.07c0.511,0,1.117-0.07,2.088-0.07c1.428,0,1.952,0.121,2.451,0.472
		c0.561,0.422,0.918,1.04,0.918,1.877c0,1.372-0.798,2.247-2.196,2.598c0.906,1.608,1.979,3.223,3.013,4.824
		c-0.422-0.032-0.849-0.076-1.276-0.076c-0.421,0-0.862,0.044-1.289,0.076L211.191,293.999z M211.103,289.545
		c-0.032,1.288-0.039,2.559-0.039,3.848c0.115,0.02,0.211,0.025,0.306,0.025c1.251,0,1.927-0.688,1.927-2.023
		C213.298,289.723,212.647,289.545,211.103,289.545z"/>
	<path fill="#005AA0" d="M219.897,292.652c0-1.583-0.025-2.681-0.115-3.912c0.83,0.013,1.691,0.07,2.521,0.07
		c1.385,0,2.572-0.032,2.961-0.07c-0.032,0.172-0.057,0.339-0.057,0.594c0,0.3,0.025,0.427,0.057,0.625
		c-1.079-0.063-2.775-0.159-3.197-0.159c-0.078,1.033-0.078,2.049-0.078,3.089c1.239-0.032,2.139-0.058,3.217-0.115
		c-0.058,0.326-0.076,0.447-0.076,0.639c0,0.146,0.032,0.274,0.076,0.573c-1.079-0.088-2.138-0.12-3.217-0.12
		c0,0.6-0.012,1.2-0.012,1.812c0,0.594,0.012,1.207,0.039,1.769c1.065,0,2.157-0.063,3.248-0.179
		c-0.032,0.192-0.057,0.338-0.057,0.632c0,0.3,0.025,0.435,0.057,0.612c-0.517-0.012-1.18-0.076-2.483-0.076
		c-2.304,0-2.686,0.044-2.999,0.076c0.089-1.244,0.115-2.342,0.115-3.931V292.652z"/>
	<path fill="#005AA0" d="M233.683,290.642c-0.294-0.798-0.842-1.206-1.711-1.206c-0.861,0-1.467,0.587-1.467,1.271
		c0,2.086,4.301,1.569,4.301,4.78c0,1.896-1.506,3.203-3.752,3.203c-1.021,0-1.87-0.293-2.278-0.612
		c0.186-0.65,0.312-1.155,0.408-1.786h0.275c0.152,0.811,0.804,1.524,1.946,1.524c1.104,0,1.659-0.657,1.659-1.448
		c0-2.139-4.218-1.57-4.218-4.78c0-1.953,1.5-3.045,3.184-3.045c1.022,0,1.782,0.287,2.324,0.709
		c-0.172,0.434-0.275,0.771-0.454,1.391H233.683z"/>
	<path fill="#005AA0" d="M245.337,292.652c0-1.583-0.025-2.681-0.115-3.912c0.313,0.02,0.702,0.07,1.168,0.07
		c0.619,0,1.31-0.07,2.56-0.07c3.229,0,5.45,1.034,5.45,4.596c0,3.114-2.233,5.175-4.901,5.175c-1.411,0-2.375-0.076-3.108-0.076
		c-0.466,0-0.854,0.044-1.168,0.076c0.089-1.244,0.115-2.342,0.115-3.931V292.652z M247.437,294.893c0,0.772,0,2.489,0.012,2.757
		c0.28,0.013,0.67,0.051,1.245,0.051c2.125,0,3.472-1.448,3.472-4.39c0-2.324-1.289-3.766-3.248-3.766
		c-0.677,0-1.028,0.031-1.469,0.069c-0.012,0.269-0.012,1.998-0.012,2.758V294.893z"/>
	<path fill="#005AA0" d="M258.491,292.652c0-1.583-0.032-2.681-0.108-3.912c0.829,0.013,1.678,0.07,2.514,0.07
		c1.393,0,2.579-0.032,2.962-0.07c-0.032,0.172-0.058,0.339-0.058,0.594c0,0.3,0.025,0.427,0.058,0.625
		c-1.078-0.063-2.776-0.159-3.204-0.159c-0.063,1.033-0.063,2.049-0.063,3.089c1.226-0.032,2.132-0.058,3.21-0.115
		c-0.058,0.326-0.07,0.447-0.07,0.639c0,0.146,0.026,0.274,0.07,0.573c-1.078-0.088-2.138-0.12-3.21-0.12
		c0,0.6-0.025,1.2-0.025,1.812c0,0.594,0.025,1.207,0.051,1.769c1.06,0,2.157-0.063,3.242-0.179
		c-0.032,0.192-0.058,0.338-0.058,0.632c0,0.3,0.025,0.435,0.058,0.612c-0.511-0.012-1.175-0.076-2.477-0.076
		c-2.311,0-2.693,0.044-2.999,0.076c0.076-1.244,0.108-2.342,0.108-3.931V292.652z"/>
	<path fill="#005AA0" d="M274.325,292.652c0-1.583-0.032-2.681-0.12-3.912c0.312,0.02,0.695,0.07,1.161,0.07
		c0.656,0,1.384-0.07,2.074-0.07c1.327,0,2.022,0.21,2.456,0.58c0.594,0.486,0.881,1.073,0.881,1.902
		c0,2.17-1.525,3.031-3.644,3.031h-0.715c0,1.423,0.006,2.834,0.115,4.257c-0.319-0.032-0.702-0.076-1.168-0.076
		s-0.85,0.044-1.161,0.076c0.088-1.244,0.12-2.342,0.12-3.931V292.652z M277.044,289.545c-0.236,0-0.446,0-0.6,0.005
		c-0.02,1.335-0.025,2.675-0.025,3.99c0.944,0,2.125-0.257,2.125-2.081C278.544,290.016,277.849,289.545,277.044,289.545z"/>
	<path fill="#005AA0" d="M289.114,288.542c3.006,0,5.367,1.652,5.367,5.067c0,2.796-2.253,5.08-5.405,5.08
		c-2.987,0-5.394-1.531-5.394-5.067C283.682,290.833,285.826,288.542,289.114,288.542z M289.075,289.353
		c-1.941,0-3.077,1.966-3.077,4.398c0,3.011,1.386,4.064,2.975,4.064c1.697,0,3.185-1.423,3.185-4.505
		C292.157,290.859,290.9,289.353,289.075,289.353z"/>
	<path fill="#005AA0" d="M300.582,293.999h-0.128v0.581c0,1.589,0.032,2.687,0.115,3.931c-0.306-0.032-0.688-0.076-1.161-0.076
		s-0.843,0.044-1.162,0.076c0.083-1.244,0.115-2.342,0.115-3.931v-1.928c0-1.583-0.032-2.681-0.115-3.912
		c0.319,0.02,0.689,0.07,1.162,0.07c0.51,0,1.117-0.07,2.081-0.07c1.429,0,1.959,0.121,2.45,0.472
		c0.574,0.422,0.919,1.04,0.919,1.877c0,1.372-0.792,2.247-2.196,2.598c0.906,1.608,1.985,3.223,3.02,4.824
		c-0.428-0.032-0.849-0.076-1.276-0.076s-0.862,0.044-1.282,0.076L300.582,293.999z M300.505,289.545
		c-0.031,1.288-0.051,2.559-0.051,3.848c0.115,0.02,0.211,0.025,0.312,0.025c1.245,0,1.928-0.688,1.928-2.023
		C302.695,289.723,302.05,289.545,300.505,289.545z"/>
	<path fill="#005AA0" d="M310.832,291.044c0-0.536,0-1.047-0.038-1.244c-0.556,0-1.736,0.083-2.592,0.179
		c0.038-0.204,0.077-0.402,0.077-0.626c0-0.204-0.039-0.402-0.077-0.612c1.289,0.038,1.928,0.07,3.683,0.07s2.394-0.032,3.594-0.07
		c-0.039,0.21-0.064,0.408-0.064,0.612c0,0.224,0.025,0.422,0.064,0.619c-0.766-0.089-1.953-0.172-2.516-0.172
		c-0.031,0.197-0.031,0.708-0.031,1.244v3.536c0,1.589,0.031,2.687,0.114,3.931c-0.312-0.032-0.695-0.076-1.161-0.076
		s-0.848,0.044-1.161,0.076c0.083-1.244,0.108-2.342,0.108-3.931V291.044z"/>
	<path fill="#005AA0" d="M319.18,292.652c0-1.583-0.037-2.681-0.115-3.912c0.83,0.013,1.687,0.07,2.516,0.07
		c1.391,0,2.578-0.032,2.962-0.07c-0.032,0.172-0.058,0.339-0.058,0.594c0,0.3,0.025,0.427,0.058,0.625
		c-1.072-0.063-2.777-0.159-3.205-0.159c-0.063,1.033-0.063,2.049-0.063,3.089c1.231-0.032,2.132-0.058,3.211-0.115
		c-0.058,0.326-0.071,0.447-0.071,0.639c0,0.146,0.025,0.274,0.071,0.573c-1.079-0.088-2.139-0.12-3.211-0.12
		c0,0.6-0.02,1.2-0.02,1.812c0,0.594,0.02,1.207,0.045,1.769c1.061,0,2.151-0.063,3.243-0.179c-0.032,0.192-0.058,0.338-0.058,0.632
		c0,0.3,0.025,0.435,0.058,0.612c-0.512-0.012-1.175-0.076-2.477-0.076c-2.311,0-2.693,0.044-3.001,0.076
		c0.078-1.244,0.115-2.342,0.115-3.931V292.652z"/>
	<path fill="#005AA0" d="M332.966,290.642c-0.294-0.798-0.849-1.206-1.71-1.206c-0.869,0-1.475,0.587-1.475,1.271
		c0,2.086,4.309,1.569,4.309,4.78c0,1.896-1.507,3.203-3.754,3.203c-1.021,0-1.877-0.293-2.285-0.612
		c0.179-0.65,0.307-1.155,0.408-1.786h0.269c0.167,0.811,0.812,1.524,1.96,1.524c1.104,0,1.653-0.657,1.653-1.448
		c0-2.139-4.213-1.57-4.213-4.78c0-1.953,1.494-3.045,3.179-3.045c1.021,0,1.787,0.287,2.322,0.709
		c-0.165,0.434-0.268,0.771-0.445,1.391H332.966z"/>
	<path fill="#005AA0" d="M352.279,296.865c-0.152,0.401-0.268,0.797-0.312,1.205c-0.746,0.39-1.729,0.619-2.885,0.619
		c-3.293,0-5.227-2.048-5.227-4.729c0-3.905,2.648-5.418,5.615-5.418c0.996,0,2.241,0.306,2.893,0.709
		c-0.186,0.459-0.288,0.957-0.326,1.448h-0.198c-0.708-0.893-1.436-1.264-2.431-1.264c-1.52,0-3.23,1.309-3.23,4.315
		c0,2.916,1.724,4.064,3.357,4.064c0.906,0,1.947-0.434,2.565-1.065L352.279,296.865z"/>
	<path fill="#005AA0" d="M361.138,288.542c3.006,0,5.367,1.652,5.367,5.067c0,2.796-2.246,5.08-5.406,5.08
		c-2.987,0-5.393-1.531-5.393-5.067C355.706,290.833,357.857,288.542,361.138,288.542z M361.099,289.353
		c-1.939,0-3.075,1.966-3.075,4.398c0,3.011,1.391,4.064,2.974,4.064c1.697,0,3.185-1.423,3.185-4.505
		C364.182,290.859,362.925,289.353,361.099,289.353z"/>
	<path fill="#005AA0" d="M370.686,294.963c0-1.525,0.025-2.285,0.025-3.307c0-1.499-0.025-2.45-0.052-2.916
		c0.383,0.038,0.772,0.07,1.149,0.07c0.39,0,0.778-0.032,1.175-0.07c-0.191,1.838-0.205,3.312-0.205,4.946
		c0,3.459,0.989,4.027,2.834,4.027c2.259,0,2.419-2.451,2.419-5.087c0-1.295-0.044-2.585-0.108-3.887
		c0.242,0.038,0.473,0.07,0.715,0.07s0.473-0.032,0.708-0.07c-0.082,0.836-0.185,2.853-0.185,5.31c0,3.274-1.424,4.64-4.175,4.64
		C372.569,298.689,370.686,297.618,370.686,294.963z"/>
	<path fill="#005AA0" d="M384.088,292.652c0-1.583-0.025-2.681-0.115-3.912c0.319,0.02,0.702,0.07,1.168,0.07s0.85-0.051,1.156-0.07
		c-0.09,1.231-0.103,2.329-0.103,3.912v1.928c0,1.053,0.013,2.125,0.013,2.865c1.072,0,2.157-0.063,3.255-0.179
		c-0.032,0.192-0.064,0.338-0.064,0.632c0,0.3,0.032,0.435,0.064,0.612c-0.511-0.012-1.181-0.076-2.488-0.076
		c-2.299,0-2.682,0.044-3.001,0.076c0.09-1.244,0.115-2.342,0.115-3.931V292.652z"/>
	<path fill="#005AA0" d="M393.636,292.652c0-1.583-0.032-2.681-0.115-3.912c0.319,0.02,0.69,0.07,1.162,0.07
		c0.467,0,0.855-0.051,1.162-0.07c-0.09,1.231-0.115,2.329-0.115,3.912v1.928c0,1.589,0.025,2.687,0.115,3.931
		c-0.307-0.032-0.695-0.076-1.162-0.076c-0.472,0-0.843,0.044-1.162,0.076c0.083-1.244,0.115-2.342,0.115-3.931V292.652z"/>
	<path fill="#005AA0" d="M404.875,290.642c-0.294-0.798-0.849-1.206-1.717-1.206c-0.855,0-1.468,0.587-1.468,1.271
		c0,2.086,4.302,1.569,4.302,4.78c0,1.896-1.506,3.203-3.753,3.203c-1.021,0-1.87-0.293-2.279-0.612
		c0.186-0.65,0.313-1.155,0.409-1.786h0.274c0.153,0.811,0.805,1.524,1.953,1.524c1.099,0,1.659-0.657,1.659-1.448
		c0-2.139-4.225-1.57-4.225-4.78c0-1.953,1.506-3.045,3.191-3.045c1.021,0,1.787,0.287,2.315,0.709
		c-0.165,0.434-0.273,0.771-0.452,1.391H404.875z"/>
	<path fill="#005AA0" d="M414.353,290.642c-0.293-0.798-0.843-1.206-1.697-1.206c-0.868,0-1.481,0.587-1.481,1.271
		c0,2.086,4.303,1.569,4.303,4.78c0,1.896-1.507,3.203-3.753,3.203c-1.016,0-1.864-0.293-2.278-0.612
		c0.185-0.65,0.319-1.155,0.414-1.786h0.262c0.16,0.811,0.812,1.524,1.959,1.524c1.099,0,1.654-0.657,1.654-1.448
		c0-2.139-4.22-1.57-4.22-4.78c0-1.953,1.507-3.045,3.186-3.045c1.015,0,1.787,0.287,2.329,0.709
		c-0.166,0.434-0.269,0.771-0.459,1.391H414.353z"/>
	<path fill="#005AA0" d="M427.367,298.511c-0.44-0.032-0.85-0.076-1.239-0.076c-0.395,0-0.81,0.044-1.199,0.076
		c-0.306-0.964-0.626-1.946-0.989-2.903c-0.6-0.025-1.2-0.032-1.807-0.032c-0.498,0-0.977,0.007-1.468,0.032
		c-0.39,0.957-0.709,1.921-0.964,2.903c-0.229-0.032-0.446-0.076-0.677-0.076c-0.217,0-0.434,0.044-0.702,0.076
		c0.69-1.575,2.821-6.611,4.047-9.847c0.179,0.031,0.352,0.076,0.523,0.076c0.191,0,0.357-0.045,0.549-0.076
		C424.635,291.899,426.294,296.201,427.367,298.511z M423.614,294.777c-0.401-1.155-0.797-2.272-1.244-3.383
		c-0.485,1.11-0.932,2.228-1.34,3.383H423.614z"/>
	<path fill="#005AA0" d="M431.011,288.74c0.205,0.038,0.421,0.07,0.639,0.07c0.204,0,0.434-0.032,0.638-0.07
		c2.029,2.246,4.06,4.48,6.14,6.733c0-2.253,0-6.102-0.089-6.733c0.204,0.038,0.421,0.07,0.625,0.07c0.218,0,0.434-0.032,0.638-0.07
		c-0.216,4.116-0.216,5.993-0.216,9.771c-0.204-0.051-0.396-0.076-0.588-0.076c-0.204,0-0.383,0.025-0.548,0.076
		c-1.941-2.297-4.009-4.588-6.179-6.88c-0.038,1.06-0.038,2.234-0.038,3.287c0,2.272,0.051,3.058,0.076,3.593
		c-0.218-0.051-0.447-0.076-0.651-0.076c-0.229,0-0.446,0.025-0.65,0.076c0.064-0.421,0.28-4.06,0.28-6.956
		C431.087,290.272,431.024,289.423,431.011,288.74z"/>
	<path fill="#005AA0" d="M446.048,291.044c0-0.536,0-1.047-0.052-1.244c-0.535,0-1.724,0.083-2.578,0.179
		c0.025-0.204,0.063-0.402,0.063-0.626c0-0.204-0.038-0.402-0.063-0.612c1.276,0.038,1.915,0.07,3.677,0.07
		c1.749,0,2.398-0.032,3.599-0.07c-0.037,0.21-0.076,0.408-0.076,0.612c0,0.224,0.039,0.422,0.076,0.619
		c-0.766-0.089-1.965-0.172-2.526-0.172c-0.025,0.197-0.025,0.708-0.025,1.244v3.536c0,1.589,0.025,2.687,0.114,3.931
		c-0.319-0.032-0.702-0.076-1.161-0.076c-0.473,0-0.855,0.044-1.162,0.076c0.089-1.244,0.115-2.342,0.115-3.931V291.044z"/>
	<path fill="#005AA0" d="M454.524,292.652c0-1.583-0.025-2.681-0.103-3.912c0.83,0.013,1.672,0.07,2.515,0.07
		c1.392,0,2.578-0.032,2.962-0.07c-0.025,0.172-0.064,0.339-0.064,0.594c0,0.3,0.039,0.427,0.064,0.625
		c-1.086-0.063-2.783-0.159-3.204-0.159c-0.063,1.033-0.063,2.049-0.063,3.089c1.225-0.032,2.131-0.058,3.203-0.115
		c-0.051,0.326-0.063,0.447-0.063,0.639c0,0.146,0.025,0.274,0.063,0.573c-1.072-0.088-2.132-0.12-3.203-0.12
		c0,0.6-0.014,1.2-0.014,1.812c0,0.594,0.014,1.207,0.025,1.769c1.073,0,2.157-0.063,3.256-0.179
		c-0.025,0.192-0.064,0.338-0.064,0.632c0,0.3,0.039,0.435,0.064,0.612c-0.512-0.012-1.175-0.076-2.477-0.076
		c-2.311,0-2.693,0.044-3,0.076c0.077-1.244,0.103-2.342,0.103-3.931V292.652z"/>
	<path fill="#005AA0" d="M468.31,290.642c-0.294-0.798-0.843-1.206-1.698-1.206c-0.867,0-1.48,0.587-1.48,1.271
		c0,2.086,4.301,1.569,4.301,4.78c0,1.896-1.493,3.203-3.752,3.203c-1.021,0-1.863-0.293-2.285-0.612
		c0.204-0.65,0.319-1.155,0.422-1.786h0.268c0.152,0.811,0.817,1.524,1.952,1.524c1.099,0,1.66-0.657,1.66-1.448
		c0-2.139-4.226-1.57-4.226-4.78c0-1.953,1.493-3.045,3.191-3.045c1.021,0,1.774,0.287,2.324,0.709
		c-0.167,0.434-0.269,0.771-0.461,1.391H468.31z"/>
	<path fill="#005AA0" d="M154.332,292.652c0-1.583-0.032-2.681-0.122-3.912c0.842,0.013,1.691,0.07,2.527,0.07
		c1.392,0,2.579-0.032,2.962-0.07c-0.039,0.172-0.064,0.339-0.064,0.594c0,0.3,0.025,0.427,0.064,0.625
		c-1.072-0.063-2.77-0.159-3.204-0.159c-0.064,1.033-0.064,2.049-0.064,3.089c1.226-0.032,2.132-0.058,3.204-0.115
		c-0.051,0.326-0.064,0.447-0.064,0.639c0,0.146,0.025,0.274,0.064,0.573c-1.072-0.088-2.132-0.12-3.204-0.12v0.715
		c0,1.589,0.025,2.687,0.108,3.931c-0.312-0.032-0.696-0.076-1.155-0.076c-0.473,0-0.855,0.044-1.175,0.076
		c0.089-1.244,0.122-2.342,0.122-3.931V292.652z"/>
	<path fill="#005AA0" d="M163.823,292.652c0-1.583-0.039-2.681-0.122-3.912c0.836,0.013,1.691,0.07,2.521,0.07
		c1.392,0,2.579-0.032,2.962-0.07c-0.025,0.172-0.058,0.339-0.058,0.594c0,0.3,0.032,0.427,0.058,0.625
		c-1.079-0.063-2.783-0.159-3.204-0.159c-0.071,1.033-0.071,2.049-0.071,3.089c1.232-0.032,2.138-0.058,3.217-0.115
		c-0.057,0.326-0.071,0.447-0.071,0.639c0,0.146,0.025,0.274,0.071,0.573c-1.079-0.088-2.138-0.12-3.217-0.12
		c0,0.6-0.019,1.2-0.019,1.812c0,0.594,0.019,1.207,0.051,1.769c1.06,0,2.151-0.063,3.243-0.179
		c-0.025,0.192-0.058,0.338-0.058,0.632c0,0.3,0.032,0.435,0.058,0.612c-0.511-0.012-1.175-0.076-2.476-0.076
		c-2.311,0-2.694,0.044-3.006,0.076c0.083-1.244,0.122-2.342,0.122-3.931V292.652z"/>
	<path fill="#005AA0" d="M175.655,293.999h-0.128v0.581c0,1.589,0.026,2.687,0.116,3.931c-0.313-0.032-0.702-0.076-1.163-0.076
		c-0.472,0-0.854,0.044-1.161,0.076c0.077-1.244,0.115-2.342,0.115-3.931v-1.928c0-1.583-0.038-2.681-0.115-3.912
		c0.307,0.02,0.689,0.07,1.161,0.07c0.511,0,1.111-0.07,2.081-0.07c1.423,0,1.953,0.121,2.444,0.472
		c0.568,0.422,0.926,1.04,0.926,1.877c0,1.372-0.792,2.247-2.196,2.598c0.906,1.608,1.978,3.223,3.013,4.824
		c-0.428-0.032-0.849-0.076-1.277-0.076c-0.42,0-0.861,0.044-1.288,0.076L175.655,293.999z M175.566,289.545
		c-0.025,1.288-0.039,2.559-0.039,3.848c0.116,0.02,0.205,0.025,0.307,0.025c1.251,0,1.928-0.688,1.928-2.023
		C177.761,289.723,177.11,289.545,175.566,289.545z"/>
	<path fill="#005AA0" d="M186.709,293.999h-0.127v0.581c0,1.589,0.025,2.687,0.115,3.931c-0.314-0.032-0.69-0.076-1.162-0.076
		c-0.466,0-0.855,0.044-1.163,0.076c0.084-1.244,0.116-2.342,0.116-3.931v-1.928c0-1.583-0.032-2.681-0.116-3.912
		c0.307,0.02,0.697,0.07,1.163,0.07c0.51,0,1.123-0.07,2.08-0.07c1.429,0,1.953,0.121,2.451,0.472
		c0.562,0.422,0.919,1.04,0.919,1.877c0,1.372-0.792,2.247-2.196,2.598c0.906,1.608,1.979,3.223,3.013,4.824
		c-0.421-0.032-0.842-0.076-1.276-0.076c-0.422,0-0.856,0.044-1.284,0.076L186.709,293.999z M186.619,289.545
		c-0.025,1.288-0.038,2.559-0.038,3.848c0.115,0.02,0.217,0.025,0.312,0.025c1.244,0,1.928-0.688,1.928-2.023
		C188.822,289.723,188.171,289.545,186.619,289.545z"/>
	<path fill="#005AA0" d="M195.562,294.963c0-1.525,0.019-2.285,0.019-3.307c0-1.499-0.019-2.45-0.051-2.916
		c0.383,0.038,0.778,0.07,1.156,0.07c0.389,0,0.785-0.032,1.168-0.07c-0.186,1.838-0.199,3.312-0.199,4.946
		c0,3.459,0.989,4.027,2.829,4.027c2.272,0,2.424-2.451,2.424-5.087c0-1.295-0.044-2.585-0.115-3.887
		c0.236,0.038,0.479,0.07,0.728,0.07c0.236,0,0.466-0.032,0.702-0.07c-0.083,0.836-0.179,2.853-0.179,5.31
		c0,3.274-1.43,4.64-4.174,4.64C197.445,298.689,195.562,297.618,195.562,294.963z"/>
	<path fill="#005AA0" d="M211.191,293.999h-0.127v0.581c0,1.589,0.025,2.687,0.115,3.931c-0.319-0.032-0.702-0.076-1.168-0.076
		s-0.849,0.044-1.156,0.076c0.084-1.244,0.116-2.342,0.116-3.931v-1.928c0-1.583-0.032-2.681-0.116-3.912
		c0.307,0.02,0.69,0.07,1.156,0.07c0.511,0,1.117-0.07,2.088-0.07c1.428,0,1.952,0.121,2.451,0.472
		c0.561,0.422,0.918,1.04,0.918,1.877c0,1.372-0.798,2.247-2.196,2.598c0.906,1.608,1.979,3.223,3.013,4.824
		c-0.422-0.032-0.849-0.076-1.276-0.076c-0.421,0-0.862,0.044-1.289,0.076L211.191,293.999z M211.103,289.545
		c-0.032,1.288-0.039,2.559-0.039,3.848c0.115,0.02,0.211,0.025,0.306,0.025c1.251,0,1.927-0.688,1.927-2.023
		C213.298,289.723,212.647,289.545,211.103,289.545z"/>
	<path fill="#005AA0" d="M219.897,292.652c0-1.583-0.025-2.681-0.115-3.912c0.83,0.013,1.691,0.07,2.521,0.07
		c1.385,0,2.572-0.032,2.961-0.07c-0.032,0.172-0.057,0.339-0.057,0.594c0,0.3,0.025,0.427,0.057,0.625
		c-1.079-0.063-2.775-0.159-3.197-0.159c-0.078,1.033-0.078,2.049-0.078,3.089c1.239-0.032,2.139-0.058,3.217-0.115
		c-0.058,0.326-0.076,0.447-0.076,0.639c0,0.146,0.032,0.274,0.076,0.573c-1.079-0.088-2.138-0.12-3.217-0.12
		c0,0.6-0.012,1.2-0.012,1.812c0,0.594,0.012,1.207,0.039,1.769c1.065,0,2.157-0.063,3.248-0.179
		c-0.032,0.192-0.057,0.338-0.057,0.632c0,0.3,0.025,0.435,0.057,0.612c-0.517-0.012-1.18-0.076-2.483-0.076
		c-2.304,0-2.686,0.044-2.999,0.076c0.089-1.244,0.115-2.342,0.115-3.931V292.652z"/>
	<path fill="#005AA0" d="M233.683,290.642c-0.294-0.798-0.842-1.206-1.711-1.206c-0.861,0-1.467,0.587-1.467,1.271
		c0,2.086,4.301,1.569,4.301,4.78c0,1.896-1.506,3.203-3.752,3.203c-1.021,0-1.87-0.293-2.278-0.612
		c0.186-0.65,0.312-1.155,0.408-1.786h0.275c0.152,0.811,0.804,1.524,1.946,1.524c1.104,0,1.659-0.657,1.659-1.448
		c0-2.139-4.218-1.57-4.218-4.78c0-1.953,1.5-3.045,3.184-3.045c1.022,0,1.782,0.287,2.324,0.709
		c-0.172,0.434-0.275,0.771-0.454,1.391H233.683z"/>
	<path fill="#005AA0" d="M245.337,292.652c0-1.583-0.025-2.681-0.115-3.912c0.313,0.02,0.702,0.07,1.168,0.07
		c0.619,0,1.31-0.07,2.56-0.07c3.229,0,5.45,1.034,5.45,4.596c0,3.114-2.233,5.175-4.901,5.175c-1.411,0-2.375-0.076-3.108-0.076
		c-0.466,0-0.854,0.044-1.168,0.076c0.089-1.244,0.115-2.342,0.115-3.931V292.652z M247.437,294.893c0,0.772,0,2.489,0.012,2.757
		c0.28,0.013,0.67,0.051,1.245,0.051c2.125,0,3.472-1.448,3.472-4.39c0-2.324-1.289-3.766-3.248-3.766
		c-0.677,0-1.028,0.031-1.469,0.069c-0.012,0.269-0.012,1.998-0.012,2.758V294.893z"/>
	<path fill="#005AA0" d="M258.491,292.652c0-1.583-0.032-2.681-0.108-3.912c0.829,0.013,1.678,0.07,2.514,0.07
		c1.393,0,2.579-0.032,2.962-0.07c-0.032,0.172-0.058,0.339-0.058,0.594c0,0.3,0.025,0.427,0.058,0.625
		c-1.078-0.063-2.776-0.159-3.204-0.159c-0.063,1.033-0.063,2.049-0.063,3.089c1.226-0.032,2.132-0.058,3.21-0.115
		c-0.058,0.326-0.07,0.447-0.07,0.639c0,0.146,0.026,0.274,0.07,0.573c-1.078-0.088-2.138-0.12-3.21-0.12
		c0,0.6-0.025,1.2-0.025,1.812c0,0.594,0.025,1.207,0.051,1.769c1.06,0,2.157-0.063,3.242-0.179
		c-0.032,0.192-0.058,0.338-0.058,0.632c0,0.3,0.025,0.435,0.058,0.612c-0.511-0.012-1.175-0.076-2.477-0.076
		c-2.311,0-2.693,0.044-2.999,0.076c0.076-1.244,0.108-2.342,0.108-3.931V292.652z"/>
	<path fill="#005AA0" d="M274.325,292.652c0-1.583-0.032-2.681-0.12-3.912c0.312,0.02,0.695,0.07,1.161,0.07
		c0.656,0,1.384-0.07,2.074-0.07c1.327,0,2.022,0.21,2.456,0.58c0.594,0.486,0.881,1.073,0.881,1.902
		c0,2.17-1.525,3.031-3.644,3.031h-0.715c0,1.423,0.006,2.834,0.115,4.257c-0.319-0.032-0.702-0.076-1.168-0.076
		s-0.85,0.044-1.161,0.076c0.088-1.244,0.12-2.342,0.12-3.931V292.652z M277.044,289.545c-0.236,0-0.446,0-0.6,0.005
		c-0.02,1.335-0.025,2.675-0.025,3.99c0.944,0,2.125-0.257,2.125-2.081C278.544,290.016,277.849,289.545,277.044,289.545z"/>
	<path fill="#005AA0" d="M289.114,288.542c3.006,0,5.367,1.652,5.367,5.067c0,2.796-2.253,5.08-5.405,5.08
		c-2.987,0-5.394-1.531-5.394-5.067C283.682,290.833,285.826,288.542,289.114,288.542z M289.075,289.353
		c-1.941,0-3.077,1.966-3.077,4.398c0,3.011,1.386,4.064,2.975,4.064c1.697,0,3.185-1.423,3.185-4.505
		C292.157,290.859,290.9,289.353,289.075,289.353z"/>
	<path fill="#005AA0" d="M300.582,293.999h-0.128v0.581c0,1.589,0.032,2.687,0.115,3.931c-0.306-0.032-0.688-0.076-1.161-0.076
		s-0.843,0.044-1.162,0.076c0.083-1.244,0.115-2.342,0.115-3.931v-1.928c0-1.583-0.032-2.681-0.115-3.912
		c0.319,0.02,0.689,0.07,1.162,0.07c0.51,0,1.117-0.07,2.081-0.07c1.429,0,1.959,0.121,2.45,0.472
		c0.574,0.422,0.919,1.04,0.919,1.877c0,1.372-0.792,2.247-2.196,2.598c0.906,1.608,1.985,3.223,3.02,4.824
		c-0.428-0.032-0.849-0.076-1.276-0.076s-0.862,0.044-1.282,0.076L300.582,293.999z M300.505,289.545
		c-0.031,1.288-0.051,2.559-0.051,3.848c0.115,0.02,0.211,0.025,0.312,0.025c1.245,0,1.928-0.688,1.928-2.023
		C302.695,289.723,302.05,289.545,300.505,289.545z"/>
	<path fill="#005AA0" d="M310.832,291.044c0-0.536,0-1.047-0.038-1.244c-0.556,0-1.736,0.083-2.592,0.179
		c0.038-0.204,0.077-0.402,0.077-0.626c0-0.204-0.039-0.402-0.077-0.612c1.289,0.038,1.928,0.07,3.683,0.07s2.394-0.032,3.594-0.07
		c-0.039,0.21-0.064,0.408-0.064,0.612c0,0.224,0.025,0.422,0.064,0.619c-0.766-0.089-1.953-0.172-2.516-0.172
		c-0.031,0.197-0.031,0.708-0.031,1.244v3.536c0,1.589,0.031,2.687,0.114,3.931c-0.312-0.032-0.695-0.076-1.161-0.076
		s-0.848,0.044-1.161,0.076c0.083-1.244,0.108-2.342,0.108-3.931V291.044z"/>
	<path fill="#005AA0" d="M319.18,292.652c0-1.583-0.037-2.681-0.115-3.912c0.83,0.013,1.687,0.07,2.516,0.07
		c1.391,0,2.578-0.032,2.962-0.07c-0.032,0.172-0.058,0.339-0.058,0.594c0,0.3,0.025,0.427,0.058,0.625
		c-1.072-0.063-2.777-0.159-3.205-0.159c-0.063,1.033-0.063,2.049-0.063,3.089c1.231-0.032,2.132-0.058,3.211-0.115
		c-0.058,0.326-0.071,0.447-0.071,0.639c0,0.146,0.025,0.274,0.071,0.573c-1.079-0.088-2.139-0.12-3.211-0.12
		c0,0.6-0.02,1.2-0.02,1.812c0,0.594,0.02,1.207,0.045,1.769c1.061,0,2.151-0.063,3.243-0.179c-0.032,0.192-0.058,0.338-0.058,0.632
		c0,0.3,0.025,0.435,0.058,0.612c-0.512-0.012-1.175-0.076-2.477-0.076c-2.311,0-2.693,0.044-3.001,0.076
		c0.078-1.244,0.115-2.342,0.115-3.931V292.652z"/>
	<path fill="#005AA0" d="M332.966,290.642c-0.294-0.798-0.849-1.206-1.71-1.206c-0.869,0-1.475,0.587-1.475,1.271
		c0,2.086,4.309,1.569,4.309,4.78c0,1.896-1.507,3.203-3.754,3.203c-1.021,0-1.877-0.293-2.285-0.612
		c0.179-0.65,0.307-1.155,0.408-1.786h0.269c0.167,0.811,0.812,1.524,1.96,1.524c1.104,0,1.653-0.657,1.653-1.448
		c0-2.139-4.213-1.57-4.213-4.78c0-1.953,1.494-3.045,3.179-3.045c1.021,0,1.787,0.287,2.322,0.709
		c-0.165,0.434-0.268,0.771-0.445,1.391H332.966z"/>
	<path fill="#005AA0" d="M352.279,296.865c-0.152,0.401-0.268,0.797-0.312,1.205c-0.746,0.39-1.729,0.619-2.885,0.619
		c-3.293,0-5.227-2.048-5.227-4.729c0-3.905,2.648-5.418,5.615-5.418c0.996,0,2.241,0.306,2.893,0.709
		c-0.186,0.459-0.288,0.957-0.326,1.448h-0.198c-0.708-0.893-1.436-1.264-2.431-1.264c-1.52,0-3.23,1.309-3.23,4.315
		c0,2.916,1.724,4.064,3.357,4.064c0.906,0,1.947-0.434,2.565-1.065L352.279,296.865z"/>
	<path fill="#005AA0" d="M361.138,288.542c3.006,0,5.367,1.652,5.367,5.067c0,2.796-2.246,5.08-5.406,5.08
		c-2.987,0-5.393-1.531-5.393-5.067C355.706,290.833,357.857,288.542,361.138,288.542z M361.099,289.353
		c-1.939,0-3.075,1.966-3.075,4.398c0,3.011,1.391,4.064,2.974,4.064c1.697,0,3.185-1.423,3.185-4.505
		C364.182,290.859,362.925,289.353,361.099,289.353z"/>
	<path fill="#005AA0" d="M370.686,294.963c0-1.525,0.025-2.285,0.025-3.307c0-1.499-0.025-2.45-0.052-2.916
		c0.383,0.038,0.772,0.07,1.149,0.07c0.39,0,0.778-0.032,1.175-0.07c-0.191,1.838-0.205,3.312-0.205,4.946
		c0,3.459,0.989,4.027,2.834,4.027c2.259,0,2.419-2.451,2.419-5.087c0-1.295-0.044-2.585-0.108-3.887
		c0.242,0.038,0.473,0.07,0.715,0.07s0.473-0.032,0.708-0.07c-0.082,0.836-0.185,2.853-0.185,5.31c0,3.274-1.424,4.64-4.175,4.64
		C372.569,298.689,370.686,297.618,370.686,294.963z"/>
	<path fill="#005AA0" d="M384.088,292.652c0-1.583-0.025-2.681-0.115-3.912c0.319,0.02,0.702,0.07,1.168,0.07s0.85-0.051,1.156-0.07
		c-0.09,1.231-0.103,2.329-0.103,3.912v1.928c0,1.053,0.013,2.125,0.013,2.865c1.072,0,2.157-0.063,3.255-0.179
		c-0.032,0.192-0.064,0.338-0.064,0.632c0,0.3,0.032,0.435,0.064,0.612c-0.511-0.012-1.181-0.076-2.488-0.076
		c-2.299,0-2.682,0.044-3.001,0.076c0.09-1.244,0.115-2.342,0.115-3.931V292.652z"/>
	<path fill="#005AA0" d="M393.636,292.652c0-1.583-0.032-2.681-0.115-3.912c0.319,0.02,0.69,0.07,1.162,0.07
		c0.467,0,0.855-0.051,1.162-0.07c-0.09,1.231-0.115,2.329-0.115,3.912v1.928c0,1.589,0.025,2.687,0.115,3.931
		c-0.307-0.032-0.695-0.076-1.162-0.076c-0.472,0-0.843,0.044-1.162,0.076c0.083-1.244,0.115-2.342,0.115-3.931V292.652z"/>
	<path fill="#005AA0" d="M404.875,290.642c-0.294-0.798-0.849-1.206-1.717-1.206c-0.855,0-1.468,0.587-1.468,1.271
		c0,2.086,4.302,1.569,4.302,4.78c0,1.896-1.506,3.203-3.753,3.203c-1.021,0-1.87-0.293-2.279-0.612
		c0.186-0.65,0.313-1.155,0.409-1.786h0.274c0.153,0.811,0.805,1.524,1.953,1.524c1.099,0,1.659-0.657,1.659-1.448
		c0-2.139-4.225-1.57-4.225-4.78c0-1.953,1.506-3.045,3.191-3.045c1.021,0,1.787,0.287,2.315,0.709
		c-0.165,0.434-0.273,0.771-0.452,1.391H404.875z"/>
	<path fill="#005AA0" d="M414.353,290.642c-0.293-0.798-0.843-1.206-1.697-1.206c-0.868,0-1.481,0.587-1.481,1.271
		c0,2.086,4.303,1.569,4.303,4.78c0,1.896-1.507,3.203-3.753,3.203c-1.016,0-1.864-0.293-2.278-0.612
		c0.185-0.65,0.319-1.155,0.414-1.786h0.262c0.16,0.811,0.812,1.524,1.959,1.524c1.099,0,1.654-0.657,1.654-1.448
		c0-2.139-4.22-1.57-4.22-4.78c0-1.953,1.507-3.045,3.186-3.045c1.015,0,1.787,0.287,2.329,0.709
		c-0.166,0.434-0.269,0.771-0.459,1.391H414.353z"/>
	<path fill="#005AA0" d="M427.367,298.511c-0.44-0.032-0.85-0.076-1.239-0.076c-0.395,0-0.81,0.044-1.199,0.076
		c-0.306-0.964-0.626-1.946-0.989-2.903c-0.6-0.025-1.2-0.032-1.807-0.032c-0.498,0-0.977,0.007-1.468,0.032
		c-0.39,0.957-0.709,1.921-0.964,2.903c-0.229-0.032-0.446-0.076-0.677-0.076c-0.217,0-0.434,0.044-0.702,0.076
		c0.69-1.575,2.821-6.611,4.047-9.847c0.179,0.031,0.352,0.076,0.523,0.076c0.191,0,0.357-0.045,0.549-0.076
		C424.635,291.899,426.294,296.201,427.367,298.511z M423.614,294.777c-0.401-1.155-0.797-2.272-1.244-3.383
		c-0.485,1.11-0.932,2.228-1.34,3.383H423.614z"/>
	<path fill="#005AA0" d="M431.011,288.74c0.205,0.038,0.421,0.07,0.639,0.07c0.204,0,0.434-0.032,0.638-0.07
		c2.029,2.246,4.06,4.48,6.14,6.733c0-2.253,0-6.102-0.089-6.733c0.204,0.038,0.421,0.07,0.625,0.07c0.218,0,0.434-0.032,0.638-0.07
		c-0.216,4.116-0.216,5.993-0.216,9.771c-0.204-0.051-0.396-0.076-0.588-0.076c-0.204,0-0.383,0.025-0.548,0.076
		c-1.941-2.297-4.009-4.588-6.179-6.88c-0.038,1.06-0.038,2.234-0.038,3.287c0,2.272,0.051,3.058,0.076,3.593
		c-0.218-0.051-0.447-0.076-0.651-0.076c-0.229,0-0.446,0.025-0.65,0.076c0.064-0.421,0.28-4.06,0.28-6.956
		C431.087,290.272,431.024,289.423,431.011,288.74z"/>
	<path fill="#005AA0" d="M446.048,291.044c0-0.536,0-1.047-0.052-1.244c-0.535,0-1.724,0.083-2.578,0.179
		c0.025-0.204,0.063-0.402,0.063-0.626c0-0.204-0.038-0.402-0.063-0.612c1.276,0.038,1.915,0.07,3.677,0.07
		c1.749,0,2.398-0.032,3.599-0.07c-0.037,0.21-0.076,0.408-0.076,0.612c0,0.224,0.039,0.422,0.076,0.619
		c-0.766-0.089-1.965-0.172-2.526-0.172c-0.025,0.197-0.025,0.708-0.025,1.244v3.536c0,1.589,0.025,2.687,0.114,3.931
		c-0.319-0.032-0.702-0.076-1.161-0.076c-0.473,0-0.855,0.044-1.162,0.076c0.089-1.244,0.115-2.342,0.115-3.931V291.044z"/>
	<path fill="#005AA0" d="M454.524,292.652c0-1.583-0.025-2.681-0.103-3.912c0.83,0.013,1.672,0.07,2.515,0.07
		c1.392,0,2.578-0.032,2.962-0.07c-0.025,0.172-0.064,0.339-0.064,0.594c0,0.3,0.039,0.427,0.064,0.625
		c-1.086-0.063-2.783-0.159-3.204-0.159c-0.063,1.033-0.063,2.049-0.063,3.089c1.225-0.032,2.131-0.058,3.203-0.115
		c-0.051,0.326-0.063,0.447-0.063,0.639c0,0.146,0.025,0.274,0.063,0.573c-1.072-0.088-2.132-0.12-3.203-0.12
		c0,0.6-0.014,1.2-0.014,1.812c0,0.594,0.014,1.207,0.025,1.769c1.073,0,2.157-0.063,3.256-0.179
		c-0.025,0.192-0.064,0.338-0.064,0.632c0,0.3,0.039,0.435,0.064,0.612c-0.512-0.012-1.175-0.076-2.477-0.076
		c-2.311,0-2.693,0.044-3,0.076c0.077-1.244,0.103-2.342,0.103-3.931V292.652z"/>
	<path fill="#005AA0" d="M468.31,290.642c-0.294-0.798-0.843-1.206-1.698-1.206c-0.867,0-1.48,0.587-1.48,1.271
		c0,2.086,4.301,1.569,4.301,4.78c0,1.896-1.493,3.203-3.752,3.203c-1.021,0-1.863-0.293-2.285-0.612
		c0.204-0.65,0.319-1.155,0.422-1.786h0.268c0.152,0.811,0.817,1.524,1.952,1.524c1.099,0,1.66-0.657,1.66-1.448
		c0-2.139-4.226-1.57-4.226-4.78c0-1.953,1.493-3.045,3.191-3.045c1.021,0,1.774,0.287,2.324,0.709
		c-0.167,0.434-0.269,0.771-0.461,1.391H468.31z"/>
	<path fill="#005AA0" d="M155.59,305.864c-0.293,2.131-0.422,4.288-0.568,6.426c-0.223-0.037-0.447-0.062-0.657-0.062
		c-0.229,0-0.447,0.025-0.67,0.062c0.593-3.261,1.065-6.516,1.46-9.771c0.192,0.038,0.383,0.077,0.575,0.077
		c0.179,0,0.383-0.039,0.574-0.077c1.021,2.26,2.234,4.773,3.268,6.765c1.111-2.106,2.279-4.505,3.293-6.765
		c0.205,0.038,0.409,0.077,0.613,0.077c0.199,0,0.396-0.039,0.587-0.077c0.376,3.255,0.869,7.78,1.226,9.771
		c-0.383-0.037-0.765-0.062-1.148-0.062c-0.383,0-0.779,0.025-1.174,0.062c-0.103-1.972-0.339-4.371-0.569-6.567h-0.025
		c-1.065,2.196-2.112,4.372-3.133,6.567c-0.084-0.005-0.179-0.025-0.262-0.025c-0.096,0-0.186,0.021-0.275,0.025
		c-1.002-2.138-2.03-4.295-3.089-6.426H155.59z"/>
	<path fill="#005AA0" d="M179.561,312.29c-0.453-0.025-0.854-0.062-1.244-0.062c-0.396,0-0.81,0.037-1.207,0.062
		c-0.293-0.957-0.625-1.939-0.976-2.903c-0.607-0.013-1.207-0.031-1.819-0.031c-0.484,0-0.97,0.019-1.468,0.031
		c-0.382,0.964-0.688,1.934-0.957,2.903c-0.229-0.025-0.44-0.062-0.677-0.062c-0.216,0-0.434,0.037-0.702,0.062
		c0.702-1.569,2.822-6.611,4.034-9.835c0.192,0.025,0.357,0.064,0.536,0.064c0.191,0,0.358-0.039,0.549-0.064
		C176.83,305.679,178.482,309.979,179.561,312.29z M175.808,308.557c-0.408-1.147-0.805-2.271-1.264-3.376
		c-0.473,1.104-0.918,2.229-1.327,3.376H175.808z"/>
	<path fill="#005AA0" d="M185.598,302.52c0.217,0.038,0.428,0.077,0.639,0.077c0.216,0,0.434-0.039,0.638-0.077
		c2.042,2.26,4.071,4.486,6.152,6.732c0-2.246,0-6.095-0.103-6.732c0.211,0.038,0.429,0.077,0.638,0.077
		c0.211,0,0.422-0.039,0.639-0.077c-0.23,4.123-0.23,6.005-0.23,9.771c-0.198-0.037-0.382-0.062-0.581-0.062
		c-0.198,0-0.382,0.025-0.556,0.062c-1.939-2.29-4.001-4.582-6.178-6.873c-0.039,1.054-0.039,2.227-0.039,3.287
		c0,2.278,0.052,3.058,0.089,3.586c-0.223-0.037-0.459-0.062-0.663-0.062c-0.211,0-0.447,0.025-0.651,0.062
		c0.07-0.408,0.281-4.064,0.281-6.949C185.676,304.063,185.624,303.203,185.598,302.52z"/>
	<path fill="#005AA0" d="M201.108,308.749c0-1.525,0.032-2.285,0.032-3.319c0-1.493-0.032-2.451-0.058-2.91
		c0.376,0.038,0.778,0.077,1.162,0.077c0.383,0,0.778-0.039,1.156-0.077c-0.179,1.845-0.199,3.318-0.199,4.952
		c0,3.46,0.996,4.021,2.834,4.021c2.266,0,2.418-2.45,2.418-5.075c0-1.308-0.038-2.596-0.108-3.898
		c0.243,0.038,0.479,0.077,0.721,0.077c0.243,0,0.466-0.039,0.709-0.077c-0.09,0.842-0.191,2.865-0.191,5.316
		c0,3.274-1.424,4.64-4.174,4.64C202.991,312.476,201.108,311.404,201.108,308.749z"/>
	<path fill="#005AA0" d="M218.314,304.83c0-0.537,0-1.047-0.051-1.251c-0.549,0-1.736,0.09-2.591,0.191
		c0.051-0.224,0.076-0.409,0.076-0.632c0-0.204-0.025-0.402-0.076-0.619c1.296,0.038,1.928,0.077,3.683,0.077
		c1.755,0,2.393-0.039,3.6-0.077c-0.045,0.217-0.07,0.415-0.07,0.619c0,0.223,0.025,0.408,0.07,0.632
		c-0.766-0.102-1.947-0.191-2.521-0.191c-0.025,0.204-0.025,0.714-0.025,1.251v3.529c0,1.595,0.025,2.693,0.115,3.931
		c-0.319-0.025-0.702-0.062-1.168-0.062c-0.466,0-0.842,0.037-1.156,0.062c0.078-1.237,0.115-2.336,0.115-3.931V304.83z"/>
	<path fill="#005AA0" d="M228.915,306.445c0-1.59-0.032-2.675-0.108-3.926c0.829,0.02,1.685,0.077,2.515,0.077
		c1.391,0,2.578-0.039,2.96-0.077c-0.032,0.179-0.057,0.338-0.057,0.601c0,0.293,0.025,0.427,0.057,0.631
		c-1.072-0.063-2.776-0.172-3.204-0.172c-0.064,1.04-0.064,2.055-0.064,3.096c1.226-0.032,2.132-0.058,3.21-0.115
		c-0.058,0.325-0.07,0.446-0.07,0.639c0,0.152,0.025,0.273,0.07,0.573c-1.079-0.082-2.139-0.128-3.21-0.128
		c0,0.594-0.019,1.207-0.019,1.819c0,0.594,0.019,1.2,0.044,1.774c1.06,0,2.145-0.069,3.242-0.185
		c-0.032,0.185-0.057,0.331-0.057,0.625c0,0.307,0.025,0.447,0.057,0.612c-0.51-0.005-1.173-0.062-2.476-0.062
		c-2.311,0-2.693,0.037-3,0.062c0.076-1.237,0.108-2.336,0.108-3.931V306.445z"/>
	<path fill="#005AA0" d="M240.703,302.52c0.217,0.038,0.428,0.077,0.639,0.077c0.216,0,0.434-0.039,0.644-0.077
		c2.037,2.26,4.066,4.486,6.14,6.732c0-2.246,0-6.095-0.096-6.732c0.211,0.038,0.421,0.077,0.638,0.077
		c0.211,0,0.422-0.039,0.638-0.077c-0.229,4.123-0.229,6.005-0.229,9.771c-0.197-0.037-0.382-0.062-0.58-0.062
		s-0.377,0.025-0.556,0.062c-1.939-2.29-4.007-4.582-6.19-6.873c-0.026,1.054-0.026,2.227-0.026,3.287
		c0,2.278,0.052,3.058,0.089,3.586c-0.229-0.037-0.446-0.062-0.664-0.062c-0.216,0-0.447,0.025-0.651,0.062
		c0.07-0.408,0.281-4.064,0.281-6.949C240.781,304.063,240.729,303.203,240.703,302.52z"/>
	<path fill="#005AA0" d="M257.872,304.83c0-0.537,0-1.047-0.051-1.251c-0.549,0-1.737,0.09-2.586,0.191
		c0.045-0.224,0.07-0.409,0.07-0.632c0-0.204-0.025-0.402-0.07-0.619c1.289,0.038,1.928,0.077,3.683,0.077
		c1.756,0,2.387-0.039,3.594-0.077c-0.039,0.217-0.07,0.415-0.07,0.619c0,0.223,0.031,0.408,0.07,0.632
		c-0.76-0.102-1.96-0.191-2.521-0.191c-0.025,0.204-0.025,0.714-0.025,1.251v3.529c0,1.595,0.025,2.693,0.114,3.931
		c-0.318-0.025-0.7-0.062-1.161-0.062c-0.473,0-0.855,0.037-1.161,0.062c0.076-1.237,0.115-2.336,0.115-3.931V304.83z"/>
	<path fill="#005AA0" d="M268.658,306.445c0-1.59-0.026-2.675-0.116-3.926c0.308,0.025,0.69,0.077,1.163,0.077
		c0.466,0,0.848-0.052,1.161-0.077c-0.083,1.251-0.114,2.336-0.114,3.926v1.914c0,1.595,0.031,2.693,0.114,3.931
		c-0.313-0.025-0.695-0.062-1.161-0.062c-0.473,0-0.855,0.037-1.163,0.062c0.09-1.237,0.116-2.336,0.116-3.931V306.445z"/>
	<path fill="#005AA0" d="M282.52,302.334c3.001,0,5.362,1.646,5.362,5.062c0,2.79-2.247,5.08-5.406,5.08
		c-2.987,0-5.393-1.532-5.393-5.066C277.083,304.619,279.234,302.334,282.52,302.334z M282.476,303.139
		c-1.94,0-3.07,1.966-3.07,4.397c0,3.013,1.386,4.059,2.969,4.059c1.703,0,3.184-1.416,3.184-4.5
		C285.558,304.645,284.302,303.139,282.476,303.139z"/>
	<path fill="#005AA0" d="M294.226,302.52c0.217,0.038,0.428,0.077,0.639,0.077c0.216,0,0.427-0.039,0.638-0.077
		c2.036,2.26,4.06,4.486,6.14,6.732c0-2.246,0-6.095-0.09-6.732c0.204,0.038,0.422,0.077,0.633,0.077s0.42-0.039,0.638-0.077
		c-0.224,4.123-0.224,6.005-0.224,9.771c-0.203-0.037-0.382-0.062-0.587-0.062c-0.197,0-0.383,0.025-0.548,0.062
		c-1.941-2.29-4.009-4.582-6.191-6.873c-0.026,1.054-0.026,2.227-0.026,3.287c0,2.278,0.045,3.058,0.089,3.586
		c-0.229-0.037-0.459-0.062-0.67-0.062c-0.216,0-0.439,0.025-0.65,0.062c0.07-0.408,0.281-4.064,0.281-6.949
		C294.296,304.063,294.245,303.203,294.226,302.52z"/>
	<path fill="#005AA0" d="M318.057,306.445c0-1.59-0.031-2.675-0.114-3.926c0.312,0.025,0.695,0.077,1.161,0.077
		c0.651,0,1.386-0.077,2.067-0.077c1.328,0,2.023,0.217,2.464,0.587c0.588,0.484,0.868,1.066,0.868,1.902
		c0,2.169-1.519,3.031-3.632,3.031h-0.721c0,1.423,0.013,2.834,0.114,4.25c-0.312-0.025-0.695-0.062-1.161-0.062
		s-0.849,0.037-1.161,0.062c0.083-1.237,0.114-2.336,0.114-3.931V306.445z M320.777,303.323c-0.23,0-0.44,0-0.601,0.02
		c-0.013,1.334-0.025,2.655-0.025,3.977c0.951,0,2.125-0.256,2.125-2.074C322.276,303.796,321.58,303.323,320.777,303.323z"/>
	<path fill="#005AA0" d="M337.652,312.29c-0.461-0.025-0.856-0.062-1.246-0.062c-0.401,0-0.81,0.037-1.205,0.062
		c-0.294-0.957-0.626-1.939-0.971-2.903c-0.612-0.013-1.199-0.031-1.812-0.031c-0.498,0-0.983,0.019-1.48,0.031
		c-0.383,0.964-0.689,1.934-0.958,2.903c-0.229-0.025-0.439-0.062-0.663-0.062c-0.23,0-0.447,0.037-0.715,0.062
		c0.695-1.569,2.821-6.611,4.04-9.835c0.185,0.025,0.351,0.064,0.543,0.064c0.178,0,0.344-0.039,0.528-0.064
		C334.919,305.679,336.578,309.979,337.652,312.29z M333.898,308.557c-0.408-1.147-0.804-2.271-1.257-3.376
		c-0.479,1.104-0.926,2.229-1.334,3.376H333.898z"/>
	<path fill="#005AA0" d="M345.865,307.792h-0.134v0.567c0,1.595,0.032,2.693,0.121,3.931c-0.312-0.025-0.696-0.062-1.168-0.062
		c-0.46,0-0.849,0.037-1.162,0.062c0.09-1.237,0.115-2.336,0.115-3.931v-1.914c0-1.59-0.025-2.675-0.115-3.926
		c0.313,0.025,0.702,0.077,1.162,0.077c0.511,0,1.123-0.077,2.087-0.077c1.423,0,1.946,0.121,2.444,0.485
		c0.568,0.408,0.92,1.033,0.92,1.863c0,1.372-0.792,2.252-2.189,2.604c0.899,1.603,1.979,3.217,3.019,4.818
		c-0.435-0.025-0.854-0.062-1.276-0.062c-0.428,0-0.868,0.037-1.289,0.062L345.865,307.792z M345.781,303.323
		c-0.031,1.296-0.051,2.566-0.051,3.854c0.121,0.021,0.217,0.026,0.312,0.026c1.244,0,1.935-0.689,1.935-2.023
		C347.978,303.515,347.313,303.323,345.781,303.323z"/>
	<path fill="#005AA0" d="M365.147,305.864c-0.294,2.131-0.422,4.288-0.569,6.426c-0.229-0.037-0.446-0.062-0.656-0.062
		c-0.236,0-0.447,0.025-0.677,0.062c0.593-3.261,1.065-6.516,1.46-9.771c0.206,0.038,0.378,0.077,0.582,0.077
		c0.185,0,0.383-0.039,0.561-0.077c1.041,2.26,2.247,4.773,3.274,6.765c1.117-2.106,2.279-4.505,3.3-6.765
		c0.192,0.038,0.408,0.077,0.613,0.077c0.191,0,0.396-0.039,0.601-0.077c0.356,3.255,0.854,7.78,1.212,9.771
		c-0.39-0.037-0.767-0.062-1.149-0.062c-0.382,0-0.778,0.025-1.174,0.062c-0.103-1.972-0.339-4.371-0.562-6.567h-0.025
		c-1.072,2.196-2.12,4.372-3.141,6.567c-0.083-0.005-0.191-0.025-0.268-0.025c-0.089,0-0.179,0.021-0.268,0.025
		c-1.01-2.138-2.03-4.295-3.089-6.426H365.147z"/>
	<path fill="#005AA0" d="M385.658,302.334c3.007,0,5.373,1.646,5.373,5.062c0,2.79-2.259,5.08-5.418,5.08
		c-2.98,0-5.393-1.532-5.393-5.066C380.221,304.619,382.378,302.334,385.658,302.334z M385.614,303.139
		c-1.935,0-3.063,1.966-3.063,4.397c0,3.013,1.386,4.059,2.968,4.059c1.697,0,3.191-1.416,3.191-4.5
		C388.709,304.645,387.445,303.139,385.614,303.139z"/>
	<path fill="#005AA0" d="M397.376,302.52c0.204,0.038,0.422,0.077,0.638,0.077c0.204,0,0.422-0.039,0.626-0.077
		c2.043,2.26,4.06,4.486,6.146,6.732c0-2.246,0-6.095-0.102-6.732c0.224,0.038,0.428,0.077,0.646,0.077
		c0.204,0,0.42-0.039,0.631-0.077c-0.223,4.123-0.223,6.005-0.223,9.771c-0.204-0.037-0.383-0.062-0.582-0.062
		c-0.197,0-0.382,0.025-0.554,0.062c-1.941-2.29-4.002-4.582-6.185-6.873c-0.032,1.054-0.032,2.227-0.032,3.287
		c0,2.278,0.051,3.058,0.09,3.586c-0.231-0.037-0.461-0.062-0.672-0.062c-0.209,0-0.427,0.025-0.645,0.062
		c0.071-0.408,0.281-4.064,0.281-6.949C397.44,304.063,397.383,303.203,397.376,302.52z"/>
	<path fill="#005AA0" d="M417.385,302.334c3,0,5.368,1.646,5.368,5.062c0,2.79-2.247,5.08-5.413,5.08
		c-2.987,0-5.387-1.532-5.387-5.066C411.953,304.619,414.098,302.334,417.385,302.334z M417.34,303.139
		c-1.935,0-3.07,1.966-3.07,4.397c0,3.013,1.393,4.059,2.98,4.059c1.698,0,3.179-1.416,3.179-4.5
		C420.429,304.645,419.165,303.139,417.34,303.139z"/>
	<path fill="#005AA0" d="M431.253,307.792h-0.102v0.567c0,1.595,0.012,2.693,0.102,3.931c-0.319-0.025-0.688-0.062-1.161-0.062
		c-0.46,0-0.854,0.037-1.168,0.062c0.096-1.237,0.121-2.336,0.121-3.931v-1.914c0-1.59-0.025-2.675-0.121-3.926
		c0.313,0.025,0.708,0.077,1.168,0.077c0.498,0,1.11-0.077,2.081-0.077c1.43,0,1.952,0.121,2.45,0.485
		c0.562,0.408,0.906,1.033,0.906,1.863c0,1.372-0.779,2.252-2.183,2.604c0.907,1.603,1.979,3.217,3.012,4.818
		c-0.42-0.025-0.842-0.062-1.263-0.062c-0.434,0-0.869,0.037-1.303,0.062L431.253,307.792z M431.177,303.323
		c-0.025,1.296-0.025,2.566-0.025,3.854c0.102,0.021,0.191,0.026,0.294,0.026c1.25,0,1.914-0.689,1.914-2.023
		C433.36,303.515,432.721,303.323,431.177,303.323z"/>
	<path fill="#005AA0" d="M449.915,312.29c-0.447-0.025-0.842-0.062-1.238-0.062c-0.396,0-0.804,0.037-1.212,0.062
		c-0.294-0.957-0.626-1.939-0.971-2.903c-0.6-0.013-1.2-0.031-1.812-0.031c-0.485,0-0.97,0.019-1.469,0.031
		c-0.382,0.964-0.688,1.934-0.969,2.903c-0.218-0.025-0.435-0.062-0.665-0.062c-0.216,0-0.434,0.037-0.701,0.062
		c0.689-1.569,2.821-6.611,4.033-9.835c0.192,0.025,0.357,0.064,0.55,0.064c0.165,0,0.356-0.039,0.523-0.064
		C447.183,305.679,448.844,309.979,449.915,312.29z M446.163,308.557c-0.396-1.147-0.792-2.271-1.252-3.376
		c-0.484,1.104-0.919,2.229-1.327,3.376H446.163z"/>
	<path fill="#005AA0" d="M455.264,306.445c0-1.59-0.026-2.675-0.114-3.926c0.306,0.025,0.702,0.077,1.161,0.077
		c0.473,0,0.842-0.052,1.161-0.077c-0.089,1.251-0.114,2.336-0.114,3.926v1.914c0,1.595,0.025,2.693,0.114,3.931
		c-0.319-0.025-0.688-0.062-1.161-0.062c-0.459,0-0.855,0.037-1.161,0.062c0.088-1.237,0.114-2.336,0.114-3.931V306.445z"/>
	<path fill="#005AA0" d="M464.16,306.445c0-1.59-0.025-2.675-0.103-3.926c0.294,0.025,0.69,0.077,1.162,0.077
		c0.46,0,0.855-0.052,1.162-0.077c-0.103,1.251-0.115,2.336-0.115,3.926v1.914c0,1.053,0.013,2.125,0.013,2.878
		c1.073,0,2.157-0.069,3.255-0.185c-0.038,0.185-0.052,0.331-0.052,0.625c0,0.307,0.014,0.447,0.052,0.612
		c-0.522-0.005-1.174-0.062-2.476-0.062c-2.311,0-2.707,0.037-3.001,0.062c0.077-1.237,0.103-2.336,0.103-3.931V306.445z"/>
	<path fill="#005AA0" d="M155.59,305.864c-0.293,2.131-0.422,4.288-0.568,6.426c-0.223-0.037-0.447-0.062-0.657-0.062
		c-0.229,0-0.447,0.025-0.67,0.062c0.593-3.261,1.065-6.516,1.46-9.771c0.192,0.038,0.383,0.077,0.575,0.077
		c0.179,0,0.383-0.039,0.574-0.077c1.021,2.26,2.234,4.773,3.268,6.765c1.111-2.106,2.279-4.505,3.293-6.765
		c0.205,0.038,0.409,0.077,0.613,0.077c0.199,0,0.396-0.039,0.587-0.077c0.376,3.255,0.869,7.78,1.226,9.771
		c-0.383-0.037-0.765-0.062-1.148-0.062c-0.383,0-0.779,0.025-1.174,0.062c-0.103-1.972-0.339-4.371-0.569-6.567h-0.025
		c-1.065,2.196-2.112,4.372-3.133,6.567c-0.084-0.005-0.179-0.025-0.262-0.025c-0.096,0-0.186,0.021-0.275,0.025
		c-1.002-2.138-2.03-4.295-3.089-6.426H155.59z"/>
	<path fill="#005AA0" d="M179.561,312.29c-0.453-0.025-0.854-0.062-1.244-0.062c-0.396,0-0.81,0.037-1.207,0.062
		c-0.293-0.957-0.625-1.939-0.976-2.903c-0.607-0.013-1.207-0.031-1.819-0.031c-0.484,0-0.97,0.019-1.468,0.031
		c-0.382,0.964-0.688,1.934-0.957,2.903c-0.229-0.025-0.44-0.062-0.677-0.062c-0.216,0-0.434,0.037-0.702,0.062
		c0.702-1.569,2.822-6.611,4.034-9.835c0.192,0.025,0.357,0.064,0.536,0.064c0.191,0,0.358-0.039,0.549-0.064
		C176.83,305.679,178.482,309.979,179.561,312.29z M175.808,308.557c-0.408-1.147-0.805-2.271-1.264-3.376
		c-0.473,1.104-0.918,2.229-1.327,3.376H175.808z"/>
	<path fill="#005AA0" d="M185.598,302.52c0.217,0.038,0.428,0.077,0.639,0.077c0.216,0,0.434-0.039,0.638-0.077
		c2.042,2.26,4.071,4.486,6.152,6.732c0-2.246,0-6.095-0.103-6.732c0.211,0.038,0.429,0.077,0.638,0.077
		c0.211,0,0.422-0.039,0.639-0.077c-0.23,4.123-0.23,6.005-0.23,9.771c-0.198-0.037-0.382-0.062-0.581-0.062
		c-0.198,0-0.382,0.025-0.556,0.062c-1.939-2.29-4.001-4.582-6.178-6.873c-0.039,1.054-0.039,2.227-0.039,3.287
		c0,2.278,0.052,3.058,0.089,3.586c-0.223-0.037-0.459-0.062-0.663-0.062c-0.211,0-0.447,0.025-0.651,0.062
		c0.07-0.408,0.281-4.064,0.281-6.949C185.676,304.063,185.624,303.203,185.598,302.52z"/>
	<path fill="#005AA0" d="M201.108,308.749c0-1.525,0.032-2.285,0.032-3.319c0-1.493-0.032-2.451-0.058-2.91
		c0.376,0.038,0.778,0.077,1.162,0.077c0.383,0,0.778-0.039,1.156-0.077c-0.179,1.845-0.199,3.318-0.199,4.952
		c0,3.46,0.996,4.021,2.834,4.021c2.266,0,2.418-2.45,2.418-5.075c0-1.308-0.038-2.596-0.108-3.898
		c0.243,0.038,0.479,0.077,0.721,0.077c0.243,0,0.466-0.039,0.709-0.077c-0.09,0.842-0.191,2.865-0.191,5.316
		c0,3.274-1.424,4.64-4.174,4.64C202.991,312.476,201.108,311.404,201.108,308.749z"/>
	<path fill="#005AA0" d="M218.314,304.83c0-0.537,0-1.047-0.051-1.251c-0.549,0-1.736,0.09-2.591,0.191
		c0.051-0.224,0.076-0.409,0.076-0.632c0-0.204-0.025-0.402-0.076-0.619c1.296,0.038,1.928,0.077,3.683,0.077
		c1.755,0,2.393-0.039,3.6-0.077c-0.045,0.217-0.07,0.415-0.07,0.619c0,0.223,0.025,0.408,0.07,0.632
		c-0.766-0.102-1.947-0.191-2.521-0.191c-0.025,0.204-0.025,0.714-0.025,1.251v3.529c0,1.595,0.025,2.693,0.115,3.931
		c-0.319-0.025-0.702-0.062-1.168-0.062c-0.466,0-0.842,0.037-1.156,0.062c0.078-1.237,0.115-2.336,0.115-3.931V304.83z"/>
	<path fill="#005AA0" d="M228.915,306.445c0-1.59-0.032-2.675-0.108-3.926c0.829,0.02,1.685,0.077,2.515,0.077
		c1.391,0,2.578-0.039,2.96-0.077c-0.032,0.179-0.057,0.338-0.057,0.601c0,0.293,0.025,0.427,0.057,0.631
		c-1.072-0.063-2.776-0.172-3.204-0.172c-0.064,1.04-0.064,2.055-0.064,3.096c1.226-0.032,2.132-0.058,3.21-0.115
		c-0.058,0.325-0.07,0.446-0.07,0.639c0,0.152,0.025,0.273,0.07,0.573c-1.079-0.082-2.139-0.128-3.21-0.128
		c0,0.594-0.019,1.207-0.019,1.819c0,0.594,0.019,1.2,0.044,1.774c1.06,0,2.145-0.069,3.242-0.185
		c-0.032,0.185-0.057,0.331-0.057,0.625c0,0.307,0.025,0.447,0.057,0.612c-0.51-0.005-1.173-0.062-2.476-0.062
		c-2.311,0-2.693,0.037-3,0.062c0.076-1.237,0.108-2.336,0.108-3.931V306.445z"/>
	<path fill="#005AA0" d="M240.703,302.52c0.217,0.038,0.428,0.077,0.639,0.077c0.216,0,0.434-0.039,0.644-0.077
		c2.037,2.26,4.066,4.486,6.14,6.732c0-2.246,0-6.095-0.096-6.732c0.211,0.038,0.421,0.077,0.638,0.077
		c0.211,0,0.422-0.039,0.638-0.077c-0.229,4.123-0.229,6.005-0.229,9.771c-0.197-0.037-0.382-0.062-0.58-0.062
		s-0.377,0.025-0.556,0.062c-1.939-2.29-4.007-4.582-6.19-6.873c-0.026,1.054-0.026,2.227-0.026,3.287
		c0,2.278,0.052,3.058,0.089,3.586c-0.229-0.037-0.446-0.062-0.664-0.062c-0.216,0-0.447,0.025-0.651,0.062
		c0.07-0.408,0.281-4.064,0.281-6.949C240.781,304.063,240.729,303.203,240.703,302.52z"/>
	<path fill="#005AA0" d="M257.872,304.83c0-0.537,0-1.047-0.051-1.251c-0.549,0-1.737,0.09-2.586,0.191
		c0.045-0.224,0.07-0.409,0.07-0.632c0-0.204-0.025-0.402-0.07-0.619c1.289,0.038,1.928,0.077,3.683,0.077
		c1.756,0,2.387-0.039,3.594-0.077c-0.039,0.217-0.07,0.415-0.07,0.619c0,0.223,0.031,0.408,0.07,0.632
		c-0.76-0.102-1.96-0.191-2.521-0.191c-0.025,0.204-0.025,0.714-0.025,1.251v3.529c0,1.595,0.025,2.693,0.114,3.931
		c-0.318-0.025-0.7-0.062-1.161-0.062c-0.473,0-0.855,0.037-1.161,0.062c0.076-1.237,0.115-2.336,0.115-3.931V304.83z"/>
	<path fill="#005AA0" d="M268.658,306.445c0-1.59-0.026-2.675-0.116-3.926c0.308,0.025,0.69,0.077,1.163,0.077
		c0.466,0,0.848-0.052,1.161-0.077c-0.083,1.251-0.114,2.336-0.114,3.926v1.914c0,1.595,0.031,2.693,0.114,3.931
		c-0.313-0.025-0.695-0.062-1.161-0.062c-0.473,0-0.855,0.037-1.163,0.062c0.09-1.237,0.116-2.336,0.116-3.931V306.445z"/>
	<path fill="#005AA0" d="M282.52,302.334c3.001,0,5.362,1.646,5.362,5.062c0,2.79-2.247,5.08-5.406,5.08
		c-2.987,0-5.393-1.532-5.393-5.066C277.083,304.619,279.234,302.334,282.52,302.334z M282.476,303.139
		c-1.94,0-3.07,1.966-3.07,4.397c0,3.013,1.386,4.059,2.969,4.059c1.703,0,3.184-1.416,3.184-4.5
		C285.558,304.645,284.302,303.139,282.476,303.139z"/>
	<path fill="#005AA0" d="M294.226,302.52c0.217,0.038,0.428,0.077,0.639,0.077c0.216,0,0.427-0.039,0.638-0.077
		c2.036,2.26,4.06,4.486,6.14,6.732c0-2.246,0-6.095-0.09-6.732c0.204,0.038,0.422,0.077,0.633,0.077s0.42-0.039,0.638-0.077
		c-0.224,4.123-0.224,6.005-0.224,9.771c-0.203-0.037-0.382-0.062-0.587-0.062c-0.197,0-0.383,0.025-0.548,0.062
		c-1.941-2.29-4.009-4.582-6.191-6.873c-0.026,1.054-0.026,2.227-0.026,3.287c0,2.278,0.045,3.058,0.089,3.586
		c-0.229-0.037-0.459-0.062-0.67-0.062c-0.216,0-0.439,0.025-0.65,0.062c0.07-0.408,0.281-4.064,0.281-6.949
		C294.296,304.063,294.245,303.203,294.226,302.52z"/>
	<path fill="#005AA0" d="M318.057,306.445c0-1.59-0.031-2.675-0.114-3.926c0.312,0.025,0.695,0.077,1.161,0.077
		c0.651,0,1.386-0.077,2.067-0.077c1.328,0,2.023,0.217,2.464,0.587c0.588,0.484,0.868,1.066,0.868,1.902
		c0,2.169-1.519,3.031-3.632,3.031h-0.721c0,1.423,0.013,2.834,0.114,4.25c-0.312-0.025-0.695-0.062-1.161-0.062
		s-0.849,0.037-1.161,0.062c0.083-1.237,0.114-2.336,0.114-3.931V306.445z M320.777,303.323c-0.23,0-0.44,0-0.601,0.02
		c-0.013,1.334-0.025,2.655-0.025,3.977c0.951,0,2.125-0.256,2.125-2.074C322.276,303.796,321.58,303.323,320.777,303.323z"/>
	<path fill="#005AA0" d="M337.652,312.29c-0.461-0.025-0.856-0.062-1.246-0.062c-0.401,0-0.81,0.037-1.205,0.062
		c-0.294-0.957-0.626-1.939-0.971-2.903c-0.612-0.013-1.199-0.031-1.812-0.031c-0.498,0-0.983,0.019-1.48,0.031
		c-0.383,0.964-0.689,1.934-0.958,2.903c-0.229-0.025-0.439-0.062-0.663-0.062c-0.23,0-0.447,0.037-0.715,0.062
		c0.695-1.569,2.821-6.611,4.04-9.835c0.185,0.025,0.351,0.064,0.543,0.064c0.178,0,0.344-0.039,0.528-0.064
		C334.919,305.679,336.578,309.979,337.652,312.29z M333.898,308.557c-0.408-1.147-0.804-2.271-1.257-3.376
		c-0.479,1.104-0.926,2.229-1.334,3.376H333.898z"/>
	<path fill="#005AA0" d="M345.865,307.792h-0.134v0.567c0,1.595,0.032,2.693,0.121,3.931c-0.312-0.025-0.696-0.062-1.168-0.062
		c-0.46,0-0.849,0.037-1.162,0.062c0.09-1.237,0.115-2.336,0.115-3.931v-1.914c0-1.59-0.025-2.675-0.115-3.926
		c0.313,0.025,0.702,0.077,1.162,0.077c0.511,0,1.123-0.077,2.087-0.077c1.423,0,1.946,0.121,2.444,0.485
		c0.568,0.408,0.92,1.033,0.92,1.863c0,1.372-0.792,2.252-2.189,2.604c0.899,1.603,1.979,3.217,3.019,4.818
		c-0.435-0.025-0.854-0.062-1.276-0.062c-0.428,0-0.868,0.037-1.289,0.062L345.865,307.792z M345.781,303.323
		c-0.031,1.296-0.051,2.566-0.051,3.854c0.121,0.021,0.217,0.026,0.312,0.026c1.244,0,1.935-0.689,1.935-2.023
		C347.978,303.515,347.313,303.323,345.781,303.323z"/>
	<path fill="#005AA0" d="M365.147,305.864c-0.294,2.131-0.422,4.288-0.569,6.426c-0.229-0.037-0.446-0.062-0.656-0.062
		c-0.236,0-0.447,0.025-0.677,0.062c0.593-3.261,1.065-6.516,1.46-9.771c0.206,0.038,0.378,0.077,0.582,0.077
		c0.185,0,0.383-0.039,0.561-0.077c1.041,2.26,2.247,4.773,3.274,6.765c1.117-2.106,2.279-4.505,3.3-6.765
		c0.192,0.038,0.408,0.077,0.613,0.077c0.191,0,0.396-0.039,0.601-0.077c0.356,3.255,0.854,7.78,1.212,9.771
		c-0.39-0.037-0.767-0.062-1.149-0.062c-0.382,0-0.778,0.025-1.174,0.062c-0.103-1.972-0.339-4.371-0.562-6.567h-0.025
		c-1.072,2.196-2.12,4.372-3.141,6.567c-0.083-0.005-0.191-0.025-0.268-0.025c-0.089,0-0.179,0.021-0.268,0.025
		c-1.01-2.138-2.03-4.295-3.089-6.426H365.147z"/>
	<path fill="#005AA0" d="M385.658,302.334c3.007,0,5.373,1.646,5.373,5.062c0,2.79-2.259,5.08-5.418,5.08
		c-2.98,0-5.393-1.532-5.393-5.066C380.221,304.619,382.378,302.334,385.658,302.334z M385.614,303.139
		c-1.935,0-3.063,1.966-3.063,4.397c0,3.013,1.386,4.059,2.968,4.059c1.697,0,3.191-1.416,3.191-4.5
		C388.709,304.645,387.445,303.139,385.614,303.139z"/>
	<path fill="#005AA0" d="M397.376,302.52c0.204,0.038,0.422,0.077,0.638,0.077c0.204,0,0.422-0.039,0.626-0.077
		c2.043,2.26,4.06,4.486,6.146,6.732c0-2.246,0-6.095-0.102-6.732c0.224,0.038,0.428,0.077,0.646,0.077
		c0.204,0,0.42-0.039,0.631-0.077c-0.223,4.123-0.223,6.005-0.223,9.771c-0.204-0.037-0.383-0.062-0.582-0.062
		c-0.197,0-0.382,0.025-0.554,0.062c-1.941-2.29-4.002-4.582-6.185-6.873c-0.032,1.054-0.032,2.227-0.032,3.287
		c0,2.278,0.051,3.058,0.09,3.586c-0.231-0.037-0.461-0.062-0.672-0.062c-0.209,0-0.427,0.025-0.645,0.062
		c0.071-0.408,0.281-4.064,0.281-6.949C397.44,304.063,397.383,303.203,397.376,302.52z"/>
	<path fill="#005AA0" d="M417.385,302.334c3,0,5.368,1.646,5.368,5.062c0,2.79-2.247,5.08-5.413,5.08
		c-2.987,0-5.387-1.532-5.387-5.066C411.953,304.619,414.098,302.334,417.385,302.334z M417.34,303.139
		c-1.935,0-3.07,1.966-3.07,4.397c0,3.013,1.393,4.059,2.98,4.059c1.698,0,3.179-1.416,3.179-4.5
		C420.429,304.645,419.165,303.139,417.34,303.139z"/>
	<path fill="#005AA0" d="M431.253,307.792h-0.102v0.567c0,1.595,0.012,2.693,0.102,3.931c-0.319-0.025-0.688-0.062-1.161-0.062
		c-0.46,0-0.854,0.037-1.168,0.062c0.096-1.237,0.121-2.336,0.121-3.931v-1.914c0-1.59-0.025-2.675-0.121-3.926
		c0.313,0.025,0.708,0.077,1.168,0.077c0.498,0,1.11-0.077,2.081-0.077c1.43,0,1.952,0.121,2.45,0.485
		c0.562,0.408,0.906,1.033,0.906,1.863c0,1.372-0.779,2.252-2.183,2.604c0.907,1.603,1.979,3.217,3.012,4.818
		c-0.42-0.025-0.842-0.062-1.263-0.062c-0.434,0-0.869,0.037-1.303,0.062L431.253,307.792z M431.177,303.323
		c-0.025,1.296-0.025,2.566-0.025,3.854c0.102,0.021,0.191,0.026,0.294,0.026c1.25,0,1.914-0.689,1.914-2.023
		C433.36,303.515,432.721,303.323,431.177,303.323z"/>
	<path fill="#005AA0" d="M449.915,312.29c-0.447-0.025-0.842-0.062-1.238-0.062c-0.396,0-0.804,0.037-1.212,0.062
		c-0.294-0.957-0.626-1.939-0.971-2.903c-0.6-0.013-1.2-0.031-1.812-0.031c-0.485,0-0.97,0.019-1.469,0.031
		c-0.382,0.964-0.688,1.934-0.969,2.903c-0.218-0.025-0.435-0.062-0.665-0.062c-0.216,0-0.434,0.037-0.701,0.062
		c0.689-1.569,2.821-6.611,4.033-9.835c0.192,0.025,0.357,0.064,0.55,0.064c0.165,0,0.356-0.039,0.523-0.064
		C447.183,305.679,448.844,309.979,449.915,312.29z M446.163,308.557c-0.396-1.147-0.792-2.271-1.252-3.376
		c-0.484,1.104-0.919,2.229-1.327,3.376H446.163z"/>
	<path fill="#005AA0" d="M455.264,306.445c0-1.59-0.026-2.675-0.114-3.926c0.306,0.025,0.702,0.077,1.161,0.077
		c0.473,0,0.842-0.052,1.161-0.077c-0.089,1.251-0.114,2.336-0.114,3.926v1.914c0,1.595,0.025,2.693,0.114,3.931
		c-0.319-0.025-0.688-0.062-1.161-0.062c-0.459,0-0.855,0.037-1.161,0.062c0.088-1.237,0.114-2.336,0.114-3.931V306.445z"/>
	<path fill="#005AA0" d="M464.16,306.445c0-1.59-0.025-2.675-0.103-3.926c0.294,0.025,0.69,0.077,1.162,0.077
		c0.46,0,0.855-0.052,1.162-0.077c-0.103,1.251-0.115,2.336-0.115,3.926v1.914c0,1.053,0.013,2.125,0.013,2.878
		c1.073,0,2.157-0.069,3.255-0.185c-0.038,0.185-0.052,0.331-0.052,0.625c0,0.307,0.014,0.447,0.052,0.612
		c-0.522-0.005-1.174-0.062-2.476-0.062c-2.311,0-2.707,0.037-3.001,0.062c0.077-1.237,0.103-2.336,0.103-3.931V306.445z"/>
</g>
</svg>
