<?xml version="1.0" encoding="utf-8"?>
<!-- Generator: Adobe Illustrator 21.0.2, SVG Export Plug-In . SVG Version: 6.00 Build 0)  -->
<svg version="1.1" id="Calque_1" xmlns="http://www.w3.org/2000/svg" xmlns:xlink="http://www.w3.org/1999/xlink" x="0px" y="0px"
	 viewBox="0 0 500 194" style="enable-background:new 0 0 500 194;" xml:space="preserve">
<style type="text/css">
	.st0{fill:#C2D31E;}
	.st1{fill:#858584;}
</style>
<path class="st0" d="M232.4,86.2h-20.6h-11h-23.2h-10.5h-0.6v37.7h11V95.5h23.2v28.4h11V95.5h20.6c0,0,2.8,0.1,2.8,3.5v24.9h11V99.1
	C246.2,99.1,247,86.2,232.4,86.2z"/>
<path class="st0" d="M306.6,86.2h-46.8v9.3h46.8c0,0,2.8,0.1,2.8,3.5v1.7h-38.9c0,0-13.1,0-13.1,11.5s13.1,11.8,13.1,11.8h49.9v-0.1
	v-9.3v-5.2v-8.7v-1.6C320.4,99.1,321.2,86.2,306.6,86.2z M309.4,114.7h-38.9l0,0c-1.2,0-2.1-0.8-2.1-2.7c0-1.8,0.8-2.6,2.1-2.6h38.9
	V114.7z"/>
<path class="st0" d="M375.2,86.2L375.2,86.2h-31h-10.9h-0.1v37.7h11V95.5h31c0,0,2.8,0.1,2.8,3.5h0.1H389l0,0
	C389,99.1,389.7,86.2,375.2,86.2z"/>
<path class="st0" d="M398.9,104.5c0,0-0.1,1.3-0.1,1.6h0.1c1,18.8,18.7,18.3,18.7,18.3h34.6v-9.3h-34.6c-4.8,0-6.9-5.7-6.9-9.7
	s2.1-9.7,6.9-9.7h34.6v-9.3h-34.6C417.6,86.2,399.9,85.7,398.9,104.5z"/>
<path class="st0" d="M464.7,77.3c-0.2-0.2-0.4-0.4-0.7-0.5c0.6-0.1,1-0.3,1.3-0.6c0.3-0.3,0.4-0.7,0.4-1.2c0-0.4-0.1-0.7-0.3-1
	c-0.2-0.3-0.4-0.5-0.8-0.6c-0.3-0.1-0.8-0.2-1.5-0.2h-2.8v6.5h1.3V77h0.3c0.3,0,0.5,0,0.7,0.1c0.1,0,0.3,0.1,0.4,0.3
	c0.1,0.1,0.4,0.5,0.7,1l0.9,1.4h1.6l-0.8-1.3C465.2,77.9,464.9,77.5,464.7,77.3z M462.7,75.9h-1v-1.7h1c0.5,0,0.9,0,1,0
	c0.2,0,0.4,0.1,0.5,0.3c0.1,0.1,0.2,0.3,0.2,0.5s0,0.4-0.1,0.5c-0.1,0.1-0.2,0.2-0.4,0.3C463.7,75.9,463.3,75.9,462.7,75.9z"/>
<path class="st0" d="M462.9,70.7c-3.3,0-6,2.7-6,6s2.7,6,6,6c3.3,0,6-2.7,6-6S466.2,70.7,462.9,70.7z M462.9,81.6
	c-2.7,0-4.9-2.2-4.9-4.9c0-2.7,2.2-4.9,4.9-4.9c2.7,0,4.9,2.2,4.9,4.9S465.6,81.6,462.9,81.6z"/>
<path class="st1" d="M136.3,120.6c0,3.7-3,6.8-6.8,6.8H95.9c-3.7,0-6.8-3-6.8-6.8V87.8c0-3.7,3-6.8,6.8-6.8h33.6
	c3.7,0,6.8,3,6.8,6.8V120.6z"/>
<path class="st1" d="M79.7,177c-28.2-12.9-46.4-41.3-46.4-72.3c0-43.8,35.6-79.5,79.5-79.5c8.2,0,16.3,1.2,24,3.7l-3.9,12.5
	c-6.5-2.1-13.2-3.1-20.1-3.1c-36.6,0-66.4,29.8-66.4,66.4c0,25.9,15.2,49.6,38.8,60.4L79.7,177z"/>
</svg>
