<?xml version="1.0" encoding="utf-8"?>
<!-- Generator: Adobe Illustrator 19.1.0, SVG Export Plug-In . SVG Version: 6.00 Build 0)  -->
<svg version="1.1" id="Calque_1" xmlns="http://www.w3.org/2000/svg" xmlns:xlink="http://www.w3.org/1999/xlink" x="0px" y="0px"
	 viewBox="-345 170.9 500 500" style="enable-background:new -345 170.9 500 500;" xml:space="preserve">
<style type="text/css">
	.st0{fill:#C2D31E;}
	.st1{fill:#858584;}
</style>
<path class="st0" d="M-112.6,410.1h-20.6h-11h-23.2h-10.5h-0.6v37.7h11v-28.4h23.2v28.4h11v-28.4h20.6c0,0,2.8,0.1,2.8,3.5v24.9h11
	V423C-98.8,423-98,410.1-112.6,410.1z"/>
<path class="st0" d="M-38.4,410.1h-46.8v9.3h46.8c0,0,2.8,0.1,2.8,3.5v1.7h-38.9c0,0-13.1,0-13.1,11.5c0,11.5,13.1,11.8,13.1,11.8
	h49.9v-0.1v-9.3v-5.2v-8.7V423C-24.6,423-23.8,410.1-38.4,410.1z M-35.6,438.6h-38.9v0c-1.2,0-2.1-0.8-2.1-2.7
	c0-1.8,0.8-2.6,2.1-2.6h38.9V438.6z"/>
<path class="st0" d="M30.2,410.1L30.2,410.1l-31,0h-10.9h-0.1v37.7h11v-28.4h31c0,0,2.8,0.1,2.8,3.5l0.1,0h10.9l0,0
	C44,423,44.7,410.1,30.2,410.1z"/>
<path class="st0" d="M53.9,428.4c0,0-0.1,1.3-0.1,1.6h0.1c1,18.8,18.7,18.3,18.7,18.3h34.6v-9.3H72.6c-4.8,0-6.9-5.7-6.9-9.7
	s2.1-9.7,6.9-9.7l34.6,0v-9.3l-34.6,0C72.6,410.1,54.9,409.6,53.9,428.4z"/>
<path class="st0" d="M119.7,401.2c-0.2-0.2-0.4-0.4-0.7-0.5c0.6-0.1,1-0.3,1.3-0.6s0.4-0.7,0.4-1.2c0-0.4-0.1-0.7-0.3-1
	c-0.2-0.3-0.4-0.5-0.8-0.6c-0.3-0.1-0.8-0.2-1.5-0.2h-2.8v6.5h1.3v-2.7h0.3c0.3,0,0.5,0,0.7,0.1c0.1,0,0.3,0.1,0.4,0.3
	c0.1,0.1,0.4,0.5,0.7,1l0.9,1.4h1.6l-0.8-1.3C120.2,401.8,119.9,401.4,119.7,401.2z M117.7,399.8h-1v-1.7h1c0.5,0,0.9,0,1,0
	c0.2,0,0.4,0.1,0.5,0.3c0.1,0.1,0.2,0.3,0.2,0.5c0,0.2,0,0.4-0.1,0.5c-0.1,0.1-0.2,0.2-0.4,0.3C118.7,399.8,118.3,399.8,117.7,399.8
	z"/>
<path class="st0" d="M117.9,394.6c-3.3,0-6,2.7-6,6c0,3.3,2.7,6,6,6c3.3,0,6-2.7,6-6S121.2,394.6,117.9,394.6z M117.9,405.5
	c-2.7,0-4.9-2.2-4.9-4.9c0-2.7,2.2-4.9,4.9-4.9s4.9,2.2,4.9,4.9C122.8,403.3,120.6,405.5,117.9,405.5z"/>
<path class="st1" d="M-208.7,444.5c0,3.7-3,6.8-6.8,6.8h-33.6c-3.7,0-6.8-3-6.8-6.8v-32.8c0-3.7,3-6.8,6.8-6.8h33.6
	c3.7,0,6.8,3,6.8,6.8V444.5z"/>
<path class="st1" d="M-265.3,500.9c-28.2-12.9-46.4-41.3-46.4-72.3c0-43.8,35.6-79.5,79.5-79.5c8.2,0,16.3,1.2,24,3.7l-3.9,12.5
	c-6.5-2.1-13.2-3.1-20.1-3.1c-36.6,0-66.4,29.8-66.4,66.4c0,25.9,15.2,49.6,38.8,60.4L-265.3,500.9z"/>
</svg>
