<?xml version="1.0" encoding="utf-8"?>
<!-- Generator: Adobe Illustrator 15.0.0, SVG Export Plug-In . SVG Version: 6.00 Build 0)  -->
<!DOCTYPE svg PUBLIC "-//W3C//DTD SVG 1.1//EN" "http://www.w3.org/Graphics/SVG/1.1/DTD/svg11.dtd">
<svg version="1.1" id="Calque_1" xmlns="http://www.w3.org/2000/svg" xmlns:xlink="http://www.w3.org/1999/xlink" x="0px" y="0px"
	 width="500px" height="500px" viewBox="0 0 500 500" enable-background="new 0 0 500 500" xml:space="preserve">
<g>
	<g>
		<path fill="#C2D31E" d="M232.382,239.228h-20.636H200.72h-23.18h-10.459h-0.565v37.739h11.025v-28.411h23.18v28.411h11.025
			v-28.411h20.636c0,0,2.827,0.106,2.827,3.534v24.877h11.025V252.09C246.234,252.09,246.987,239.228,232.382,239.228z"/>
		<path fill="#C2D31E" d="M306.588,239.228h-46.785v9.329h46.785c0,0,2.826,0.106,2.826,3.534v1.696h-38.869
			c0,0-13.146-0.025-13.146,11.479c0,11.507,13.146,11.771,13.146,11.771h49.895v-0.07v-9.259v-5.229v-8.692v-1.696
			C320.44,252.09,321.193,239.228,306.588,239.228z M309.414,267.708h-38.869v0.036c-1.237,0-2.085-0.844-2.085-2.673
			c0-1.828,0.848-2.593,2.085-2.593h38.869V267.708z"/>
		<path fill="#C2D31E" d="M375.186,239.23v-0.002h-31.001h-10.883h-0.142v37.739h11.024v-28.411h30.955c0,0,2.827,0.106,2.827,3.534
			l0.065,0.048h10.91l0.049-0.048C388.991,252.09,389.74,239.26,375.186,239.23z"/>
		<path fill="#C2D31E" d="M398.906,257.461c0,0-0.091,1.278-0.091,1.555h0.091c0.965,18.779,18.732,18.28,18.732,18.28h34.63v-9.329
			h-34.63c-4.806,0-6.857-5.665-6.857-9.729s2.052-9.729,6.857-9.729l34.63,0.046v-9.329l-34.63-0.046
			C417.638,239.181,399.87,238.682,398.906,257.461z"/>
		<path fill="#C2D31E" d="M464.735,230.338c-0.186-0.198-0.42-0.38-0.705-0.545c0.572-0.083,1.001-0.283,1.288-0.601
			c0.287-0.318,0.431-0.721,0.431-1.209c0-0.384-0.095-0.727-0.285-1.025c-0.189-0.299-0.441-0.507-0.755-0.624
			c-0.316-0.117-0.819-0.176-1.516-0.176h-2.765v6.505h1.313v-2.715h0.266c0.303,0,0.523,0.024,0.662,0.073
			c0.138,0.048,0.27,0.139,0.394,0.271c0.126,0.131,0.355,0.451,0.693,0.956l0.949,1.416h1.57l-0.795-1.269
			C465.167,230.889,464.92,230.537,464.735,230.338z M462.714,228.911h-0.973v-1.651h1.025c0.532,0,0.853,0.006,0.958,0.022
			c0.212,0.035,0.378,0.121,0.495,0.255c0.117,0.135,0.175,0.312,0.175,0.53c0,0.195-0.045,0.358-0.133,0.488
			c-0.089,0.13-0.212,0.222-0.369,0.275C463.737,228.883,463.343,228.911,462.714,228.911z"/>
		<path fill="#C2D31E" d="M462.921,223.693c-3.321,0-6.022,2.701-6.022,6.021c0,3.321,2.701,6.022,6.022,6.022
			c3.319,0,6.021-2.702,6.021-6.022C468.942,226.394,466.24,223.693,462.921,223.693z M462.921,234.606
			c-2.696,0-4.892-2.194-4.892-4.892c0-2.697,2.195-4.891,4.892-4.891s4.89,2.194,4.89,4.891
			C467.811,232.412,465.617,234.606,462.921,234.606z"/>
	</g>
	<path fill="#858584" d="M136.268,273.574c0,3.746-3.037,6.784-6.785,6.784h-33.64c-3.748,0-6.785-3.038-6.785-6.784v-32.792
		c0-3.747,3.037-6.784,6.785-6.784h33.64c3.748,0,6.785,3.038,6.785,6.784V273.574z"/>
	<g>
		<path fill="#858584" d="M79.743,330.026C51.553,317.11,33.34,288.738,33.34,257.744c0-43.817,35.647-79.466,79.464-79.466
			c8.196,0,16.279,1.245,24.022,3.697l-3.944,12.454c-6.467-2.05-13.22-3.087-20.078-3.087c-36.615,0-66.403,29.787-66.403,66.402
			c0,25.901,15.223,49.611,38.784,60.404L79.743,330.026z"/>
	</g>
</g>
</svg>
