<?xml version="1.0" encoding="utf-8"?>
<!-- Generator: Adobe Illustrator 19.1.0, SVG Export Plug-In . SVG Version: 6.00 Build 0)  -->
<svg version="1.1" id="Calque_1" xmlns="http://www.w3.org/2000/svg" xmlns:xlink="http://www.w3.org/1999/xlink" x="0px" y="0px"
	 viewBox="0 0 500 500" style="enable-background:new 0 0 500 500;" xml:space="preserve">
<style type="text/css">
	.st0{fill:#14387F;}
</style>
<path class="st0" d="M371.4,132.9H129.7c-64.1,0-116.1,52-116.1,116.1c0,64.1,52,116.1,116.1,116.1h241.7
	c64.1,0,116.1-52,116.1-116.1C487.5,184.8,435.5,132.9,371.4,132.9z M374.6,329.4h-248c-44.4,0-80.4-36-80.4-80.4
	c0-44.4,36-80.4,80.4-80.4h248c44.4,0,80.4,36,80.4,80.4C455,293.4,419,329.4,374.6,329.4z"/>
<g>
	<path class="st0" d="M91.8,276.1l35.4-4.2c1.5,5.3,3.5,9,6.1,11.3c2.6,2.3,6.1,3.4,10.5,3.4c4.8,0,8.5-1.3,11.1-3.8
		c2-1.9,3.1-4.3,3.1-7.1c0-3.2-1.3-5.7-4-7.4c-1.9-1.2-7-2.8-15.3-4.6c-12.4-2.7-21-5.2-25.8-7.5c-4.8-2.3-8.9-6.2-12.2-11.7
		c-3.3-5.5-5-11.7-5-18.7c0-7.7,1.8-14.3,5.3-19.8c3.6-5.5,8.5-9.7,14.7-12.4c6.3-2.7,14.6-4.1,25.1-4.1c11.1,0,19.3,1.1,24.6,3.2
		c5.3,2.1,9.7,5.4,13.2,9.9c3.5,4.5,6.5,10.5,8.8,18.1l-33.8,4.2c-0.9-3.7-2.3-6.5-4.4-8.2c-2.8-2.3-6.2-3.5-10.2-3.5
		c-4,0-7,0.9-8.8,2.7c-1.8,1.8-2.8,4-2.8,6.5c0,2.8,1.2,5,3.5,6.5c2.3,1.5,7.4,2.8,15.2,3.9c11.9,1.7,20.7,4,26.5,7
		c5.8,3,10.2,7.3,13.3,12.8c3.1,5.5,4.6,11.6,4.6,18.3c0,6.7-1.6,13.2-4.9,19.6c-3.2,6.3-8.4,11.4-15.3,15.2
		c-7,3.8-16.5,5.6-28.5,5.6c-17,0-29.1-3-36.3-9.1C98.4,295.9,93.8,287.3,91.8,276.1z"/>
	<path class="st0" d="M240.1,229.8l-34.1-4.5c1.3-7.4,3.1-13.3,5.6-17.6c2.4-4.3,5.9-8,10.5-11.1c3.3-2.3,7.8-4,13.5-5.3
		c5.7-1.2,11.9-1.9,18.6-1.9c10.7,0,19.3,0.7,25.8,2.2c6.5,1.5,11.9,4.6,16.2,9.4c3,3.3,5.4,7.9,7.2,14c1.8,6,2.6,11.8,2.6,17.3
		v51.4c0,5.5,0.3,9.8,0.8,12.9c0.6,3.1,1.8,7.1,3.6,11.9h-33.5c-1.3-3-2.2-5.3-2.6-6.8c-0.4-1.6-0.8-4-1.2-7.4
		c-4.7,5.6-9.3,9.6-13.9,12.1c-6.3,3.2-13.6,4.8-22,4.8c-11.1,0-19.5-3.2-25.3-9.6c-5.7-6.4-8.6-14.4-8.6-23.8
		c0-8.8,2.1-16.1,6.2-21.8c4.1-5.7,11.8-9.9,22.9-12.7c13.4-3.4,22-5.7,26-7.1c4-1.4,8.2-3.1,12.6-5.3c0-5.5-0.9-9.3-2.7-11.5
		c-1.8-2.2-5-3.3-9.5-3.3c-5.8,0-10.2,1.2-13.1,3.5C243.4,221.3,241.5,224.7,240.1,229.8z M271.1,253.2c-4.9,2.2-10,4.1-15.3,5.8
		c-7.2,2.4-11.8,4.8-13.7,7.1c-2,2.4-3,5.2-3,8.2c0,3.5,1,6.4,2.9,8.6c2,2.2,4.8,3.3,8.6,3.3c4,0,7.7-1.2,11.1-3.6
		c3.4-2.4,5.8-5.3,7.3-8.8c1.4-3.5,2.1-8,2.1-13.5V253.2z"/>
	<path class="st0" d="M327.6,192.1H361v19.1c3.2-8.3,6.5-13.9,9.9-17c3.4-3.1,7.6-4.7,12.7-4.7c5.3,0,11,2,17.3,6.1l-11,31.8
		c-4.2-2.2-7.5-3.3-10-3.3c-4.7,0-8.3,2.4-10.9,7.2c-3.7,6.8-5.5,19.5-5.5,38.1v39h-35.8V192.1z"/>
</g>
</svg>
