<?xml version="1.0" encoding="utf-8"?>
<!-- Generator: Adobe Illustrator 15.0.0, SVG Export Plug-In . SVG Version: 6.00 Build 0)  -->
<!DOCTYPE svg PUBLIC "-//W3C//DTD SVG 1.1//EN" "http://www.w3.org/Graphics/SVG/1.1/DTD/svg11.dtd">
<svg version="1.1" id="Calque_1" xmlns="http://www.w3.org/2000/svg" xmlns:xlink="http://www.w3.org/1999/xlink" x="0px" y="0px"
	 width="500px" height="500px" viewBox="0 0 500 500" enable-background="new 0 0 500 500" xml:space="preserve">
<g>
	<g>
		<path fill="#11408B" d="M17.387,270.16c4.071,2.276,12.901,5.211,19.434,5.046c9.354-0.235,13.688-4.947,13.538-11.034
			c-0.156-6.233-3.949-9.409-13.542-12.732c-13.181-4.425-19.443-11.249-19.657-19.858c-0.29-11.581,8.971-21.32,24.262-21.704
			c7.274-0.182,10.84,0.965,14.765,3.392l-0.014,10.203c-2.865-1.709-8.127-4.103-14.805-3.939
			c-7.72,0.194-11.765,4.752-11.631,10.095c0.148,5.94,4.37,8.507,13.817,11.985c12.435,4.294,19.125,10.366,19.394,21.053
			c0.321,12.769-9.404,21.926-26.179,22.346c-7.869,0.197-14.261-1.357-19.382-4.196V270.16z"/>
		<path fill="#11408B" d="M73.528,177.285l11.713-0.62v47.167l0.252-1.311c1.764-3.713,3.92-6.511,7.322-8.738
			c3.277-2.226,7.185-3.564,11.346-3.564c8.193,0,21.301,5.941,21.301,30.592v44.078h-12.5v-41.282
			c0-11.585-2.248-21.236-12.71-21.236c-7.185,0-12.111,5.32-14.255,12.3c-0.631,1.93-0.757,3.861-0.757,6.235v43.364l-11.713,0.619
			V177.285z"/>
		<path fill="#11408B" d="M198.078,247.354c0,26.581-15.694,38.164-30.258,38.164c-16.323,0-29.127-14.257-29.127-36.979
			c0-23.906,13.433-38.012,30.131-38.012C186.275,210.526,198.078,225.522,198.078,247.354z M149.991,248.095
			c0,15.739,7.534,27.622,18.33,27.622c10.547,0,18.458-11.731,18.458-27.917c0-12.177-5.15-27.474-18.206-27.474
			C155.64,220.326,149.991,234.583,149.991,248.095z"/>
		<path fill="#11408B" d="M210.446,235.473c0-9.208-0.25-16.631-0.495-23.463h11.035l0.064,12.326h0.247
			c4.316-8.761,10.604-13.809,20.347-13.809c14.554,0,24.035,14.7,24.035,36.383c0,25.836-11.827,38.609-25.884,38.609
			c-7.894,0-13.937-4.157-17.513-11.286h-0.245v51.413h-11.59V235.473z M222.037,254.631c0,1.93,0.123,3.713,0.493,5.346
			c1.972,9.056,7.645,15.297,15.417,15.297c11.47,0,16.756-11.288,16.756-27.771c0-14.259-4.919-26.584-16.385-26.584
			c-7.399,0-13.567,6.238-15.541,16.039c-0.372,1.634-0.74,3.562-0.74,5.196V254.631z"/>
		<path fill="#11408B" d="M303.854,190.402l-18.402,5.579v15.379h-11.14v12.363h11.14v36.386c0,9.178,1.749,15.608,5.364,19.673
			c3.468,3.799,8.793,5.888,14.999,5.888c5.865,0,10.026-1.16,11.981-1.849l0.857-0.305l-0.737-12.39l-1.466,0.452
			c-1.966,0.604-3.993,0.839-7.222,0.839c-6.021,0-5.524-3.813-5.524-12.754v-35.94h15.64V211.36h-15.49V190.402z"/>
		<path fill="#11408B" d="M359.896,209.319c-18.627,0-31.636,16.373-31.636,39.816c0,22.835,12.998,37.59,33.118,37.59
			c10.584,0,17.937-2.562,22.247-4.71l0,0l0.039-15.371c0,0-6.735,6.634-20.671,6.634c-6.157,0-18.582-4.222-18.582-20.758h42.89
			l0.177-0.971c0.289-1.597,0.424-4.598,0.424-7.316C387.902,228.128,380.569,209.319,359.896,209.319z M358.813,221.086
			c3.608,0,6.519,1.479,8.652,4.399c3.291,4.497,3.868,11.1,3.939,14.276h-26.499C345.972,230.856,350.15,221.086,358.813,221.086z"
			/>
		<path fill="#11408B" d="M449.109,269.979c-3.334,1.6-7.593,3.244-13.919,3.244c-9.964,0-17.956-10.108-17.956-25.154
			c0-12.666,3.399-25.445,18.353-25.445c4.947,0,9.338,1.081,13.061,3.211l1.159,0.664l3.285-12.043l-0.771-0.457
			c-3.056-1.809-9.275-3.925-16.733-3.925c-20.979,0-35.634,15.925-35.634,38.725c0,22.206,13.308,37.121,33.109,37.121
			c8.074,0,15.078-2.165,18.941-4.192l0.778-0.403l-2.474-11.922L449.109,269.979z"/>
		<path fill="#11408B" d="M485.155,203.552c0,7.309-5.878,13.108-13.343,13.108c-7.469,0-13.426-5.799-13.426-13.108
			c0-7.308,5.957-13.027,13.503-13.027C479.277,190.524,485.155,196.244,485.155,203.552z M461.722,203.552
			c0,5.8,4.367,10.406,10.168,10.406c5.64,0.083,9.93-4.605,9.93-10.326c0-5.797-4.29-10.483-10.09-10.483
			C466.089,193.149,461.722,197.835,461.722,203.552z M469.744,210.304h-3.016v-13.025c1.188-0.157,2.856-0.397,5.001-0.397
			c2.464,0,3.576,0.397,4.448,1.031c0.796,0.557,1.352,1.511,1.352,2.78c0,1.59-1.191,2.625-2.699,3.101v0.158
			c1.272,0.397,1.904,1.429,2.304,3.177c0.396,1.984,0.714,2.699,0.952,3.176h-3.177c-0.397-0.477-0.635-1.588-1.036-3.176
			c-0.235-1.352-1.031-1.988-2.697-1.988h-1.432V210.304z M469.824,202.997h1.43c1.668,0,3.021-0.557,3.021-1.906
			c0-1.19-0.877-1.987-2.781-1.987c-0.795,0-1.349,0.08-1.669,0.16V202.997z"/>
	</g>
</g>
</svg>
