<?xml version="1.0" encoding="utf-8"?>
<!-- Generator: Adobe Illustrator 21.0.2, SVG Export Plug-In . SVG Version: 6.00 Build 0)  -->
<svg version="1.1" id="Calque_1" xmlns="http://www.w3.org/2000/svg" xmlns:xlink="http://www.w3.org/1999/xlink" x="0px" y="0px"
	 viewBox="0 0 500 184" style="enable-background:new 0 0 500 184;" xml:space="preserve">
<style type="text/css">
	.st0{fill:#8AB0DA;}
	.st1{fill:#006FB7;}
	.st2{fill:#388DC7;}
</style>
<path class="st0" d="M141.6,83.6c0-30-24.3-54.4-54.4-54.4c-30,0-54.4,24.4-54.4,54.4S57.2,138,87.2,138c15.2,0,28.9-6.2,38.8-16.3
	c-6.1,4.8-13.8,7.6-22.1,7.6c-19.8,0-35.9-16.1-35.9-35.9s16.1-35.9,35.9-35.9s35.9,16.1,35.9,35.9c0,2-0.2,3.9-0.5,5.8
	C140.8,94.2,141.6,89,141.6,83.6"/>
<path class="st1" d="M167.7,111.8c-8.7,15.1-25,25.3-43.7,25.3c-27.9,0-50.6-22.7-50.6-50.6S96,35.9,124,35.9
	c16,0,30.3,7.5,39.6,19.1c-13.7-23.6-39.2-39.5-68.5-39.5c-43.7,0-79.2,35.5-79.2,79.2s35.5,79.2,79.2,79.2
	c37.8,0,69.4-26.5,77.3-61.9C170.8,108,171.1,106.1,167.7,111.8"/>
<path class="st2" d="M68.6,77.5c0-27.1,21.4-49.1,48.2-50.2c-5.3-1.8-11-2.8-17-2.8c-29.1,0-52.7,23.6-52.7,52.7
	s23.6,52.7,52.7,52.7c5.2,0,10.3-0.8,15.1-2.2C89,125.6,68.6,104,68.6,77.5"/>
<path class="st0" d="M107.4,25.7c1.5,0,3,0.1,4.5,0.1c-7.1-2.2-14.6-3.3-22.3-3.3c-28.3,0-52.9,15.4-66.1,38.3
	c-4.8,10.3-7.6,21.7-7.6,33.8c0,43.7,35.5,79.2,79.2,79.2c3.8,0,7.6-0.3,11.3-0.8c0.3-0.1,0.6-0.1,0.9-0.2
	c-40.5-0.1-73.4-33-73.4-73.6C33.8,58.7,66.7,25.7,107.4,25.7"/>
<polygon class="st1" points="167.7,65.5 174.8,65.5 191.8,105.1 208.7,65.5 215.9,65.5 215.9,112.1 211.2,112.1 211.2,70.6 
	211.1,70.6 193.7,112.1 189.7,112.1 172.5,70.6 172.3,70.6 172.3,112.1 167.7,112.1 "/>
<polygon class="st1" points="225.1,65.5 250.5,65.5 250.5,69.7 229.7,69.7 229.7,86.5 249.8,86.5 249.8,90.7 229.7,90.7 
	229.7,107.8 250.5,107.8 250.5,112.1 225.1,112.1 "/>
<path class="st1" d="M258.8,65.5h11.8c6.2,0,9.3,0.8,11.4,1.8c5.2,2.5,8.3,7.5,8.3,13.3c0,6.7-4.8,13.6-13.8,14.1l13.1,17.4h-5.8
	L268,91c5.9,0,7.9-0.1,10-0.7c5.1-1.4,7.7-5.7,7.7-9.9c0-3.6-2.1-7.4-5.1-8.9c-2.8-1.4-5.2-1.8-9.1-1.8h-8.1v42.4h-4.6V65.5
	L258.8,65.5z"/>
<rect x="297.3" y="65.5" class="st1" width="4.7" height="46.5"/>
<path class="st1" d="M358.8,90.7c-1.1,13.8-13.1,22.2-24.6,22.2c-13.9,0-25-11.3-25-24.1c0-12.1,10-24.1,24.9-24.1
	c12.3,0,20.2,8.5,22,13.2h-5.4c-2.6-4.6-8.8-9-16.5-9c-11.8,0-20.3,9.6-20.3,19.9c0,10.4,8.5,19.8,20.5,19.8
	c9.9,0,17.2-7.3,18.8-13.8h-26v-4.2h31.6V90.7z"/>
<path class="st1" d="M388.8,64.7c13.1,0,24.6,10.4,24.6,24.1s-11.6,24.1-24.6,24.1c-13.2,0-24.6-10.7-24.6-23.8
	C364.2,74.4,376.4,64.7,388.8,64.7 M388.8,108.7c10.8,0,20-8.7,20-19.8c0-10.9-9-19.9-20-19.9c-10.5,0-19.9,8.5-19.9,20.1
	C368.9,99.7,378,108.7,388.8,108.7"/>
<path class="st1" d="M425.5,65.5v29c0,3.4,0.5,6.5,1.6,8.4c2.8,5.2,7.4,5.7,9.6,5.7c2.2,0,6.8-0.5,9.6-5.7c1.1-1.9,1.6-5,1.6-8.4
	v-29h4.7v29c0,3.9-0.6,7.2-1.8,9.7c-3.2,7-9.7,8.7-14.1,8.7c-4.3,0-10.9-1.7-14.1-8.7c-1.1-2.5-1.8-5.8-1.8-9.7v-29H425.5
	L425.5,65.5z"/>
<path class="st1" d="M463.4,99c0.3,5.8,4,9.6,9.7,9.6c4.9,0,9.4-3.8,9.4-9.2c0-7.2-7.2-9-10.4-9.9c-4.2-1.3-12.1-3-12.1-12.3
	c0-7.2,5.7-12.5,13.1-12.5c7.6,0,12.9,5.8,12.9,12.6h-4.7c0-4.7-3.8-8.4-8.2-8.4c-5.3,0-8.4,4.1-8.4,8.1c0,5.7,5,7,11.1,8.7
	c11.4,3.1,11.4,12.1,11.4,13.5c0,7.2-5.8,13.6-14,13.6c-6,0-14.1-3.6-14.3-13.8L463.4,99L463.4,99z"/>
<polygon class="st0" points="188.8,123.3 191.6,123.3 191.6,148.5 203,148.5 203,151 188.8,151 "/>
<rect x="205.5" y="130.5" class="st0" width="2.6" height="20.5"/>
<rect x="205.5" y="123.3" class="st0" width="2.6" height="4.7"/>
<path class="st0" d="M213,130.5h2.6v2.4l-0.1-0.1v0.1h0.1c1.2-2,3.7-2.9,5.6-2.9c1.7,0,5.4,0.8,6.9,3.9c1.5-3.1,5.2-3.9,6.9-3.9
	c3.1,0,8.2,1.9,8.2,8.8V151h-2.6v-11.9c0-2.2-0.4-3.3-0.9-4.3c-0.9-1.5-2.4-2.5-4.6-2.5s-3.8,1-4.6,2.5c-0.5,0.9-0.9,2-0.9,4.3V151
	H227v-11.9c0-2.2-0.4-3.3-0.9-4.3c-0.9-1.5-2.4-2.5-4.6-2.5c-2.2,0-3.8,1-4.6,2.5c-0.5,0.9-0.9,2-0.9,4.3V151h-2.6L213,130.5
	L213,130.5z"/>
<path class="st0" d="M257.9,130c6.1,0,10.7,5.1,10.7,10.7s-4.6,10.7-10.7,10.7c-6,0-10.7-5.1-10.7-10.6
	C247.2,134.4,252.5,130,257.9,130 M257.9,149.2c4,0,8.1-3.1,8.1-8.5s-4.6-8.3-8.1-8.3c-3.7,0-8.1,3.1-8.1,8.5
	C249.8,145.6,253.7,149.2,257.9,149.2"/>
<path class="st0" d="M292.8,147.8c0,2.2,0,5-1.9,7.5c-2.6,3.6-7.3,3.8-8.1,3.8c-2.9,0-8.6-1.1-10.5-7.5h2.8c0.7,1.7,2.7,5.2,7.7,5.2
	c3.4,0,7.4-2,7.4-7.6v-1.8h-0.1c-1.5,2.9-4.9,4.2-7.9,4.2c-5.4,0-10.7-4.2-10.7-10.6c0-6.5,5.3-10.9,10.7-10.9
	c1.9,0,5.5,0.6,7.9,4.2h0.1v-3.7h2.6V147.8z M282.2,149.2c5.4,0,8.1-4.9,8.1-8.3c0-4.5-3.5-8.4-8.1-8.4c-4.6,0-8.1,3.9-8.1,8.4
	C274.2,145.3,277.6,149.2,282.2,149.2"/>
<path class="st0" d="M299.5,141.7c0.2,4,3.9,7.4,7.9,7.4c3.7-0.1,6.4-2.3,7.3-4.8h2.8c-1.4,4.1-5.4,7.2-10.1,7.2
	c-5.7,0-10.7-4.6-10.7-10.7c0-5.8,4.7-10.7,10.6-10.8c4.5,0,7.7,2.7,9.1,5.2c1.4,2.2,1.7,4.5,1.6,6.5L299.5,141.7L299.5,141.7z
	 M315.4,139.4c-0.8-4.8-4.8-7-8-7c-3.2,0-7.2,2.2-8,7H315.4z"/>
<path class="st0" d="M323.2,145c0.1,3.9,2.7,4.2,3.7,4.2c2.5,0,3.8-1.5,3.8-3.7c0-2.8-2.5-3.4-4.1-4.1c-2.1-0.7-5.4-1.8-5.4-5.7
	c0-2.9,2.1-5.7,5.8-5.7c3.1,0,5.6,2.4,5.6,5.6H330c-0.2-2.5-1.9-3.2-3.1-3.2c-2.1,0-3.1,1.7-3.1,3.1c0,2.2,2.2,2.9,3.7,3.4
	c2.4,0.8,5.8,2.1,5.8,6.3c0,3.5-2.1,6.3-6.4,6.3c-2.8,0-6.4-1.9-6.3-6.6L323.2,145L323.2,145z"/>
</svg>
