<?xml version="1.0" encoding="utf-8"?>
<!-- Generator: Adobe Illustrator 19.1.0, SVG Export Plug-In . SVG Version: 6.00 Build 0)  -->
<svg version="1.1" id="Calque_1" xmlns="http://www.w3.org/2000/svg" xmlns:xlink="http://www.w3.org/1999/xlink" x="0px" y="0px"
	 viewBox="-345 170.9 500 500" style="enable-background:new -345 170.9 500 500;" xml:space="preserve">
<style type="text/css">
	.st0{fill:#8AB0DA;}
	.st1{fill:#006FB7;}
	.st2{fill:#388DC7;}
</style>
<path class="st0" d="M-203.4,412.5c0-30-24.3-54.4-54.4-54.4c-30,0-54.4,24.4-54.4,54.4c0,30,24.4,54.4,54.4,54.4
	c15.2,0,28.9-6.2,38.8-16.3c-6.1,4.8-13.8,7.6-22.1,7.6c-19.8,0-35.9-16.1-35.9-35.9s16.1-35.9,35.9-35.9
	c19.8,0,35.9,16.1,35.9,35.9c0,2-0.2,3.9-0.5,5.8C-204.2,423.1-203.4,417.9-203.4,412.5"/>
<path class="st1" d="M-177.3,440.7C-186,455.8-202.3,466-221,466c-27.9,0-50.6-22.7-50.6-50.6c0-27.9,22.6-50.6,50.6-50.6
	c16,0,30.3,7.5,39.6,19.1c-13.7-23.6-39.2-39.5-68.5-39.5c-43.7,0-79.2,35.5-79.2,79.2c0,43.7,35.5,79.2,79.2,79.2
	c37.8,0,69.4-26.5,77.3-61.9C-174.2,436.9-173.9,435-177.3,440.7"/>
<path class="st2" d="M-276.4,406.4c0-27.1,21.4-49.1,48.2-50.2c-5.3-1.8-11-2.8-17-2.8c-29.1,0-52.7,23.6-52.7,52.7
	c0,29.1,23.6,52.7,52.7,52.7c5.2,0,10.3-0.8,15.1-2.2C-256,454.5-276.4,432.9-276.4,406.4"/>
<path class="st0" d="M-237.6,354.6c1.5,0,3,0.1,4.5,0.1c-7.1-2.2-14.6-3.3-22.3-3.3c-28.3,0-52.9,15.4-66.1,38.3
	c-4.8,10.3-7.6,21.7-7.6,33.8c0,43.7,35.5,79.2,79.2,79.2c3.8,0,7.6-0.3,11.3-0.8c0.3-0.1,0.6-0.1,0.9-0.2
	c-40.5-0.1-73.4-33-73.4-73.6C-311.2,387.6-278.3,354.6-237.6,354.6"/>
<polygon class="st1" points="-177.3,394.4 -170.2,394.4 -153.2,434 -136.3,394.4 -129.1,394.4 -129.1,441 -133.8,441 -133.8,399.5 
	-133.9,399.5 -151.3,441 -155.3,441 -172.5,399.5 -172.7,399.5 -172.7,441 -177.3,441 "/>
<polygon class="st1" points="-119.9,394.4 -94.5,394.4 -94.5,398.6 -115.3,398.6 -115.3,415.4 -95.2,415.4 -95.2,419.6 
	-115.3,419.6 -115.3,436.7 -94.5,436.7 -94.5,441 -119.9,441 "/>
<path class="st1" d="M-86.2,394.4h11.8c6.2,0,9.3,0.8,11.4,1.8c5.2,2.5,8.3,7.5,8.3,13.3c0,6.7-4.8,13.6-13.8,14.1l13.1,17.4h-5.8
	L-77,419.9c5.9,0,7.9-0.1,10-0.7c5.1-1.4,7.7-5.7,7.7-9.9c0-3.6-2.1-7.4-5.1-8.9c-2.8-1.4-5.2-1.8-9.1-1.8h-8.1V441h-4.6
	L-86.2,394.4L-86.2,394.4z"/>
<rect x="-47.7" y="394.4" class="st1" width="4.7" height="46.5"/>
<path class="st1" d="M13.8,419.6c-1.1,13.8-13.1,22.2-24.6,22.2c-13.9,0-25-11.3-25-24.1c0-12.1,10-24.1,24.9-24.1
	c12.3,0,20.2,8.5,22,13.2H5.7c-2.6-4.6-8.8-9-16.5-9c-11.8,0-20.3,9.6-20.3,19.9c0,10.4,8.5,19.8,20.5,19.8
	c9.9,0,17.2-7.3,18.8-13.8h-26v-4.2H13.8z"/>
<path class="st1" d="M43.8,393.6c13.1,0,24.6,10.4,24.6,24.1c0,13.7-11.6,24.1-24.6,24.1c-13.2,0-24.6-10.7-24.6-23.8
	C19.2,403.3,31.4,393.6,43.8,393.6 M43.8,437.6c10.8,0,20-8.7,20-19.8c0-10.9-9-19.9-20-19.9c-10.5,0-19.9,8.5-19.9,20.1
	C23.9,428.6,33,437.6,43.8,437.6"/>
<path class="st1" d="M80.5,394.4v29c0,3.4,0.5,6.5,1.6,8.4c2.8,5.2,7.4,5.7,9.6,5.7c2.2,0,6.8-0.5,9.6-5.7c1.1-1.9,1.6-5,1.6-8.4
	v-29h4.7v29c0,3.9-0.6,7.2-1.8,9.7c-3.2,7-9.7,8.7-14.1,8.7c-4.3,0-10.9-1.7-14.1-8.7c-1.1-2.5-1.8-5.8-1.8-9.7v-29L80.5,394.4
	L80.5,394.4z"/>
<path class="st1" d="M118.4,427.9c0.3,5.8,4,9.6,9.7,9.6c4.9,0,9.4-3.8,9.4-9.2c0-7.2-7.2-9-10.4-9.9c-4.2-1.3-12.1-3-12.1-12.3
	c0-7.2,5.7-12.5,13.1-12.5c7.6,0,12.9,5.8,12.9,12.6h-4.7c0-4.7-3.8-8.4-8.2-8.4c-5.3,0-8.4,4.1-8.4,8.1c0,5.7,5,7,11.1,8.7
	c11.4,3.1,11.4,12.1,11.4,13.5c0,7.2-5.8,13.6-14,13.6c-6,0-14.1-3.6-14.3-13.8L118.4,427.9L118.4,427.9z"/>
<polygon class="st0" points="-156.2,452.2 -153.4,452.2 -153.4,477.4 -142,477.4 -142,479.9 -156.2,479.9 "/>
<path class="st0" d="M-139.5,452.2h2.6v4.7h-2.6V452.2z M-139.5,459.4h2.6v20.5h-2.6V459.4z"/>
<path class="st0" d="M-132,459.4h2.6v2.4l-0.1-0.1v0.1h0.1c1.2-2,3.7-2.9,5.6-2.9c1.7,0,5.4,0.8,6.9,3.9c1.5-3.1,5.2-3.9,6.9-3.9
	c3.1,0,8.2,1.9,8.2,8.8v12.2h-2.6v-11.9c0-2.2-0.4-3.3-0.9-4.3c-0.9-1.5-2.4-2.5-4.6-2.5c-2.2,0-3.8,1-4.6,2.5
	c-0.5,0.9-0.9,2-0.9,4.3v11.9h-2.6v-11.9c0-2.2-0.4-3.3-0.9-4.3c-0.9-1.5-2.4-2.5-4.6-2.5s-3.8,1-4.6,2.5c-0.5,0.9-0.9,2-0.9,4.3
	v11.9h-2.6L-132,459.4L-132,459.4z"/>
<path class="st0" d="M-87.1,458.9c6.1,0,10.7,5.1,10.7,10.7c0,5.6-4.6,10.7-10.7,10.7c-6,0-10.7-5.1-10.7-10.6
	C-97.8,463.3-92.5,458.9-87.1,458.9 M-87.1,478.1c4,0,8.1-3.1,8.1-8.5c0-5.4-4.6-8.3-8.1-8.3c-3.7,0-8.1,3.1-8.1,8.5
	C-95.2,474.5-91.3,478.1-87.1,478.1"/>
<path class="st0" d="M-52.2,476.7c0,2.2,0,5-1.9,7.5c-2.6,3.6-7.3,3.8-8.1,3.8c-2.9,0-8.6-1.1-10.5-7.5h2.8c0.7,1.7,2.7,5.2,7.7,5.2
	c3.4,0,7.4-2,7.4-7.6v-1.8h-0.1c-1.5,2.9-4.9,4.2-7.9,4.2c-5.4,0-10.7-4.2-10.7-10.6c0-6.5,5.3-10.9,10.7-10.9
	c1.9,0,5.5,0.6,7.9,4.2h0.1v-3.7h2.6V476.7z M-62.8,478.1c5.4,0,8.1-4.9,8.1-8.3c0-4.5-3.5-8.4-8.1-8.4c-4.6,0-8.1,3.9-8.1,8.4
	C-70.8,474.2-67.4,478.1-62.8,478.1"/>
<path class="st0" d="M-45.5,470.6c0.2,4,3.9,7.4,7.9,7.4c3.7-0.1,6.4-2.3,7.3-4.8h2.8c-1.4,4.1-5.4,7.2-10.1,7.2
	c-5.7,0-10.7-4.6-10.7-10.7c0-5.8,4.7-10.7,10.6-10.8c4.5,0,7.7,2.7,9.1,5.2c1.4,2.2,1.7,4.5,1.6,6.5H-45.5z M-29.6,468.3
	c-0.8-4.8-4.8-7-8-7c-3.2,0-7.2,2.2-8,7H-29.6z"/>
<path class="st0" d="M-21.8,473.9c0.1,3.9,2.7,4.2,3.7,4.2c2.5,0,3.8-1.5,3.8-3.7c0-2.8-2.5-3.4-4.1-4.1c-2.1-0.7-5.4-1.8-5.4-5.7
	c0-2.9,2.1-5.7,5.8-5.7c3.1,0,5.6,2.4,5.6,5.6H-15c-0.2-2.5-1.9-3.2-3.1-3.2c-2.1,0-3.1,1.7-3.1,3.1c0,2.2,2.2,2.9,3.7,3.4
	c2.4,0.8,5.8,2.1,5.8,6.3c0,3.5-2.1,6.3-6.4,6.3c-2.8,0-6.4-1.9-6.3-6.6L-21.8,473.9L-21.8,473.9z"/>
</svg>
