<?xml version="1.0" encoding="utf-8"?>
<!-- Generator: Adobe Illustrator 21.0.2, SVG Export Plug-In . SVG Version: 6.00 Build 0)  -->
<svg version="1.1" id="Calque_1" xmlns="http://www.w3.org/2000/svg" xmlns:xlink="http://www.w3.org/1999/xlink" x="0px" y="0px"
	 viewBox="0 0 500 154" style="enable-background:new 0 0 500 154;" xml:space="preserve">
<style type="text/css">
	.st0{fill:#646464;}
	.st1{fill:#666666;}
	.st2{fill:#686868;}
	.st3{fill:#636363;}
	.st4{fill:#656565;}
	.st5{fill:#DA0E16;}
	.st6{fill:#DA0E15;}
</style>
<path class="st0" d="M311.2,46.7c-0.4,2.4-0.7,4.2-1,6.1c-2.4,16.4-4.8,32.9-7.3,49.3c-0.1,0.7-0.3,1.4-0.5,2.1
	c-0.8,2.5-2.8,3.6-5.5,3.1c-2.2-0.5-3.3-2.2-2.9-4.8c1.3-8.8,2.7-17.6,4-26.4c1.7-11.1,3.3-22.2,5-33.3c0.1-0.9,0.2-1.8,0.4-2.7
	c0.6-3.6,3.1-5.8,7-6c4-0.3,6.2,1.2,7.4,5c4.8,16.5,9.5,33.1,14.3,49.7c0.2,0.7,0.2,1.5,0.8,2.1c3.5-11.9,6.9-23.6,10.4-35.3
	c1.6-5.4,3.2-10.9,4.8-16.3c1.3-4.2,3.4-5.6,7.7-5.2c3.7,0.4,6,2.7,6.5,6.6c1.8,12.5,3.7,24.9,5.6,37.4c1.2,8.2,2.5,16.4,3.7,24.6
	c0.4,2.5-0.8,4.3-2.9,4.7c-2.6,0.5-4.6-0.4-5.4-2.9c-1-3-1.1-6.2-1.6-9.4c-2-13.5-4-27-6-40.6c-0.4-2.5-0.8-5-1.4-7.5
	c-2.2,7.3-4.4,14.7-6.6,22c-3.3,11.1-6.6,22.3-9.9,33.4c-0.2,0.8-0.6,1.6-0.9,2.4c-0.8,1.8-2.1,2.7-4.1,2.7c-1.9,0-3.1-1-3.7-2.7
	c-0.8-2.1-1.4-4.3-2.1-6.5c-5-16.6-10.1-33.3-15.1-50C311.6,48,311.5,47.6,311.2,46.7z"/>
<path class="st0" d="M132.9,46.9c-0.8,5.5-1.6,10.8-2.4,16.1c-1.4,9.6-2.9,19.3-4.3,28.9c-0.5,3.5-1,7-1.5,10.4
	c-0.5,3.6-2,5.2-4.9,5.1c-2.5-0.1-4-1.5-4-4.1c0.1-2.8,0.8-5.6,1.2-8.4c1.9-12.7,3.8-25.5,5.7-38.2c0.8-5.4,1.6-10.9,2.4-16.3
	c0.8-4.9,5.4-7.6,10.2-6.1c2.4,0.8,3.5,2.6,4.2,4.8c2.1,7.3,4.2,14.6,6.3,21.9c2.8,9.6,5.5,19.3,8.3,28.9c0.1,0.3,0.2,0.6,0.5,1.2
	c1.6-5.4,3.1-10.5,4.6-15.7c3.5-11.8,6.9-23.6,10.4-35.4c0.1-0.4,0.2-0.8,0.4-1.1c1.3-3.9,3.2-5.2,7.4-4.9c3.7,0.3,6.1,2.6,6.6,6.2
	c2.9,19.1,5.7,38.2,8.6,57.4c0.2,1.6,0.6,3.2,0.8,4.9c0.4,2.5-0.8,4.4-2.9,4.9c-2.6,0.6-4.6-0.4-5.4-2.8c-0.8-2.5-0.9-5.1-1.3-7.7
	C181.3,80.9,179,65,176.6,49c-0.1-0.7-0.2-1.3-0.5-2c-0.4,1.4-0.9,2.7-1.3,4.1c-5.1,17.1-10.2,34.2-15.3,51.3
	c-0.3,1-0.7,1.9-1.2,2.8c-0.9,1.7-2.3,2.4-4.2,2.3c-1.8-0.1-2.9-1.1-3.4-2.6c-1.1-3.3-2.1-6.6-3.1-9.9c-4.8-15.9-9.6-31.8-14.4-47.7
	C133.2,47.2,133.1,47.1,132.9,46.9z"/>
<path class="st0" d="M272.8,119.9c51.8,0,103.6,0,155.4,0c0.7,0,1.4,0,2,0c1.6,0.1,2.8,1.1,3,2.7c0.2,1.8-0.7,3.2-2.4,3.6
	c-0.6,0.2-1.3,0.2-2,0.2c-104.1,0-208.1,0-312.2,0c-0.8,0-1.6,0-2.3-0.3c-1.5-0.6-2.2-1.8-2-3.4c0.1-1.6,1.3-2.7,2.9-2.8
	c0.4,0,0.8,0,1.2,0C168.5,119.9,220.6,119.9,272.8,119.9z"/>
<path class="st0" d="M10.5,74.8c0-15.7,9.9-26,23.4-26.5c12.9-0.5,23.1,9.2,24.3,20.7c1.1,10-2.4,18.8-8.9,26.3
	c-4.3,5-10,8.1-16.3,10c-0.8,0.3-1.3,0-1.9-0.5c-3.1-3-5.8-6.4-7.7-10.3c-0.4-0.8-1-1.5-1.8-2C14.3,87.6,10.7,80.8,10.5,74.8z"/>
<path class="st0" d="M93.3,60.7c1.5,6,2.1,12.1,1.7,18.2c-0.4,7.3-2.2,14.2-6.2,20.4c-0.7,1.1-1.3,1.4-2.6,1
	c-13-3.7-22.5-15.8-23-29.3c-0.6-15.7,9.1-28.6,24.2-32.6c0.7-0.2,1.5,0,2.1-0.5c0.7-0.5,0.9,0.1,1,0.6c0.1,0.8,0.5,1.6-0.4,2.2
	c-0.3,0.2-0.7,0.4-1,0.6c-3.7,2.1-5.5,5.6-4.9,9.8c0.5,3.6,3.3,6.7,7.2,7.8C92.4,59.1,93.5,59.3,93.3,60.7z"/>
<path class="st0" d="M201.7,70.6c0-10.3,0-20.7,0-31c0-3.4,1.2-4.9,4.6-4.9c7.9-0.1,15.9-0.1,23.9-0.1c2.8,0,4.5,1.6,4.7,3.7
	c0.2,2.7-1.6,4.6-4.7,4.6c-5.6,0.1-11.2,0-16.9,0c-2.7,0-2.7,0-2.7,2.6c0,6.5,0,12.9,0,19.4c0,1.3,0.3,1.6,1.6,1.6
	c5.4-0.1,10.8,0,16.2,0c1.1,0,2.2,0,3.2,0.5c1.6,0.7,2.5,2,2.5,3.7c0,1.7-0.9,3-2.5,3.7c-0.9,0.4-1.7,0.4-2.7,0.4
	c-5.6,0-11.1,0-16.7,0c-1.2,0-1.7,0.2-1.6,1.6c0.1,6.8,0.1,13.6,0,20.4c0,1.3,0.4,1.6,1.6,1.6c6-0.1,12,0,18.1,0c1,0,1.9,0,2.9,0.3
	c1.8,0.6,2.9,2.1,2.8,4c-0.1,1.9-1.4,3.5-3.3,3.8c-1,0.2-2,0.2-3,0.2c-7.4,0-14.8,0-22.2,0c-0.5,0-1,0-1.5-0.1
	c-3.1-0.4-4.2-1.6-4.2-4.7C201.7,91.6,201.7,81.1,201.7,70.6z"/>
<path class="st0" d="M400.1,70.7c0-10.2,0-20.3,0-30.5c0-4.2,1.4-5.6,5.6-5.6c6.2,0,12.4,0,18.6,0c1.6,0,3.2,0,4.8,0.1
	c2.8,0.2,4.4,1.9,4.3,4.3c-0.1,2.3-1.9,4-4.6,4c-5.9,0.1-11.7,0.1-17.6,0c-1.7,0-2.2,0.4-2.1,2.1c0.1,6.6,0.1,13.2,0,19.8
	c0,1.5,0.3,2,1.9,1.9c5.3-0.1,10.7-0.1,16,0c0.9,0,1.8,0.1,2.7,0.3c1.9,0.6,3.1,2.4,2.9,4.3c-0.2,2-2,3.6-4.3,3.7
	c-2.3,0.1-4.7,0-7,0c-3.6,0-7.3,0-10.9,0c-1,0-1.3,0.2-1.3,1.3c0,7,0.1,14,0,21c0,1.1,0.4,1.3,1.4,1.3c6,0,12,0,18.1,0
	c0.8,0,1.6,0,2.4,0.2c2.3,0.5,3.5,2,3.5,4.1c0,2.1-1.3,3.6-3.7,3.9c-1.8,0.2-3.6,0.2-5.4,0.2c-6.6,0-13.2,0-19.8,0
	c-3.9,0-5.3-1.5-5.3-5.4C400.1,91.3,400.1,81,400.1,70.7z"/>
<path class="st0" d="M86.9,102.2c-5.7,6.3-12.6,10.3-20.9,12.2c0.2,0.7,0.9,0.7,1.3,1c4.6,2.4,7.9,6,9.8,10.8
	c0.2,0.4,0.9,1.2,0.1,1.4c-0.7,0.2-1.6,0.5-2.1-0.7c-1.5-4-4.2-7.1-8-9.2c-9-5.1-20.6-1.3-25,8c-0.2,0.4-0.4,0.8-0.5,1.3
	c-0.3,1-1.2,0.9-1.8,0.7c-0.9-0.2-0.3-0.9-0.1-1.4c1.8-4.8,5.1-8.4,9.7-10.8c0.4-0.2,0.8-0.4,1.5-0.8c-6.6-1.4-12.3-3.8-17.3-7.9
	c0.2-0.7,0.8-0.5,1.2-0.7c13.7-4.7,21.9-14.2,24.8-28.3c0.1-0.7,0.1-1.4,1.2-1.4c1,0,1.4,0.3,1.7,1.3C66,90.3,74.1,98.4,86.9,102.2z
	"/>
<path class="st0" d="M388.7,79.8c0,7.5,0,15,0,22.5c0,3.4-1.7,5.3-4.7,5.1c-2.1-0.1-3.5-1.3-3.9-3.4c-0.2-1.2-0.2-2.5-0.2-3.7
	c0-14.1,0-28.3,0-42.4c0-0.8,0-1.7,0.2-2.5c0.4-2.2,1.9-3.5,4.1-3.6c2.3-0.1,3.9,1.2,4.4,3.5c0.4,2.1,0.2,4.2,0.2,6.3
	C388.8,67.7,388.8,73.7,388.7,79.8C388.7,79.8,388.7,79.8,388.7,79.8z"/>
<path class="st0" d="M97.4,35.1c-3,1.9-6.1,1.9-9.2,0.1c-3.3-3.4-3.9-6.6-2.1-9.9c0.7-1.2,1.1-1.5,2.3-0.3c2.8,3,5.7,5.8,8.6,8.7
	C97.3,34,98.1,34.3,97.4,35.1z"/>
<path class="st0" d="M481.7,129.7c0.9-1,2.1-1.8,3-3c1.9-2.6,2.8-5.4,2-8.6c-0.2-0.7-0.4-1.4-0.9-2c-0.9-1-2.2-1.1-3.2-0.3
	c-1,0.9-1.2,2.8-0.5,4.3c0.7,1.3,1.7,1.9,3.2,1.6c0.2-0.1,0.4-0.1,0.7,0c-1,1.2-2.4,1.2-3.8,0.9c-1.7-0.4-2.5-1.6-2.7-3.3
	c-0.2-2.7,1.5-4.6,4.5-4.9c2.7-0.3,5,1.5,5.5,4.2C490.1,123,486.4,128.6,481.7,129.7z"/>
<path class="st0" d="M450.6,114.1c0,3.3,0,6.3,0,9.3c0,0.9,0,1.8,0,2.7c-0.1,1.6,0,3.1,2.1,3.3c-2.3,0-4.6,0-7,0
	c0.6-0.8,2.1,0,2.3-1.3c0.1-0.9,0.2-1.8,0.2-2.7c0-2.3-0.1-4.5,0-6.8c0-1.4-0.4-1.6-1.6-1c-0.4,0.2-0.8,0.5-1.6,0.2
	C446.9,116.6,448.6,115.4,450.6,114.1z"/>
<path class="st1" d="M95.7,40.8c-0.1-0.1-0.2-0.2-0.3-0.2c0.5-0.7,0.6-1.5,0.7-2.5c1,0.5,1.8,0.9,2.6,1.4c1.5,0.9,2.9,1.8,4.6,2.8
	c-1.3,0.4-2.2,0.7-3.2,0.9c-0.8-0.8-1.7-1.5-2.7-1.9C96.7,41.6,96.2,41.3,95.7,40.8z"/>
<path class="st0" d="M486.1,100.1c-2.4-2.6-4.9-5.2-7.3-7.8c-5.2-5.5-10.3-11-15.8-16.8c3.4-0.1,6.4,0.1,9.3-0.6
	c8.9-2.2,14.7-9.9,14.8-20c0.1-9.2-6-17.2-15.2-19.3c-7.8-1.8-15.7-0.9-23.6-0.8c-3.2,0-4.4,1.6-4.4,4.8c0,20.6,0,41.2,0,61.9
	c0,0.6,0,1.3,0,1.9c0.3,2.5,1.8,4.1,4.2,4.1c2.9,0.1,4.7-1.7,4.7-5c0-7.8,0-15.6,0-23.3c0-0.6,0-1.2,0-2.1c4.6,4.9,8.8,9.5,13.1,14
	c4.6,5,9.3,10,14,14.9c1.9,2,4.7,2.1,6.4,0.4C488.1,104.8,488,102.1,486.1,100.1z M454.4,67.7c-1.1,0-1.4-0.3-1.4-1.4
	c0.1-3.7,0-7.4,0-11.1s0-7.4,0-11.1c0-0.5-0.2-1.2,0.8-1.2c4.9,0.2,9.8-0.4,14.6,0.3c6,0.9,9.5,4.9,9.9,11c0.2,4-0.3,7.7-3.6,10.5
	c-2.8,2.3-6.1,2.8-9.6,2.9C461.5,67.8,457.9,67.6,454.4,67.7z"/>
<path class="st0" d="M287.6,100c-7.3-7.7-14.5-15.5-21.8-23.2c-0.3-0.3-0.8-0.6-0.7-1.3c3.4-0.1,6.8,0.1,10.1-0.9
	c8.6-2.8,13.8-10.6,13.5-20.8c-0.2-8.6-6.4-16.2-15.2-18.2c-7.7-1.8-15.5-0.9-23.2-0.8c-3.5,0-4.6,1.5-4.6,5.1c0,20.5,0,41,0,61.5
	c0,0.9,0,1.8,0.2,2.7c0.6,2.3,2.1,3.4,4.3,3.4c2.2,0,3.6-1.2,4.2-3.5c0.2-0.9,0.2-1.8,0.2-2.7c0-7.9,0-15.9,0-24.2
	c3.2,3.4,6.2,6.6,9.1,9.7c5.9,6.3,11.8,12.7,17.8,19c2,2.1,4.7,2.2,6.5,0.5C289.7,104.7,289.5,102.1,287.6,100z M255.7,67.7
	c-0.9,0-1.1-0.4-1.1-1.2c0-3.7,0-7.4,0-11.1c0-3.6,0.1-7.3,0-10.9c0-1.3,0.4-1.6,1.6-1.6c4.6,0.2,9.2-0.4,13.8,0.3
	c6.1,1,9.6,5,9.9,11.2c0.1,1.8,0,3.6-0.5,5.4c-1.2,4.4-5.1,7.2-10.4,7.6C264.5,67.9,260.1,67.6,255.7,67.7z"/>
<path class="st2" d="M93.3,40.2c-0.9,0-1-0.7-1-1.3c-0.1-0.9,0.3-1.4,1.2-1.4c0.8,0,1.3,0.5,1.3,1.3C94.8,39.7,94.1,40,93.3,40.2z"
	/>
<path class="st3" d="M462.7,121.1c2.6-2.1,3.2-4.1,1.8-5.7c-1.5-1.6-5.4-1.5-7,0.2c-1.8,1.8-1.3,3.6,1.5,5.9
	c-2.8,1.9-3.7,3.4-3.1,5.4c0.5,1.8,2.1,2.8,4.5,2.9c2.6,0.1,4.7-1.1,5.4-3C466.7,124,465,122.5,462.7,121.1z M458.7,117.3
	c0.1-1.3,1-2.2,2.4-2.1c1.2,0.1,2.1,1.1,2.1,2.6c-0.2,1.1-0.5,2.3-1.9,2.5C460.2,120.5,458.7,118.5,458.7,117.3z M460.9,128.8
	c-1.6,0-2.8-1.3-2.8-3c0-1.5,1.3-3.6,2.3-3.6c1.2,0,3.2,2.3,3.2,3.8C463.6,127.6,462.4,128.8,460.9,128.8z"/>
<path class="st4" d="M474.6,121c2.2-1.6,2.9-3,2.4-4.5c-0.6-1.8-2.2-2.2-3.8-2.3c-2.2-0.1-4.2,1-4.7,2.7c-0.7,2.2,0.8,3.4,2.4,4.5
	c-2.8,1.7-3.7,3.3-3.3,5.3c0.4,1.7,1.9,2.8,4.2,3c2.5,0.2,4.8-0.9,5.6-2.7C478.7,124.1,476.8,122.5,474.6,121z M470.5,117.5
	c0-1.2,1.1-2.2,2.3-2.2c1.2,0,2.2,1,2.2,2.3c-0.1,1.2-0.5,2.4-1.8,2.8C472.3,120.5,470.4,118.5,470.5,117.5z M472.7,128.8
	c-1.6,0-2.8-1.5-2.7-3.3c0.1-1.5,1.4-3.5,2.4-3.4c1.3,0.1,3.2,2.4,3.2,3.9C475.4,127.6,474.2,128.8,472.7,128.8z"/>
<path class="st5" d="M388.5,46.3c-1.1,0.5-2,1.4-3.3,1.5c-2.9,0.3-5.4-1.2-6.3-3.8c-0.9-2.6,0.2-5.4,2.5-6.8c2.2-1.3,5.2-1,7,0.9
	c1.9,2,2.2,4.9,0.6,7.3C388.8,45.7,388.7,46,388.5,46.3C388.5,46.3,388.5,46.3,388.5,46.3z"/>
<path class="st6" d="M93.5,56.9c-4-0.2-7.3-3.2-7.3-7.6c0-3.4,3-7.1,7.5-7c4.4,0.1,7.3,3.2,7.3,7.3C100.9,53.7,97.8,56.8,93.5,56.9z
	"/>
</svg>
