<?xml version="1.0" encoding="utf-8"?>
<!-- Generator: Adobe Illustrator 19.1.0, SVG Export Plug-In . SVG Version: 6.00 Build 0)  -->
<svg version="1.1" id="Calque_1" xmlns="http://www.w3.org/2000/svg" xmlns:xlink="http://www.w3.org/1999/xlink" x="0px" y="0px"
	 viewBox="-345 170.9 500 500" style="enable-background:new -345 170.9 500 500;" xml:space="preserve">
<style type="text/css">
	.st0{fill:#00715E;}
	.st1{fill:#1A171B;}
</style>
<path class="st0" d="M-297.7,436.3h-28.8v-19.3h5.7v-26.4h-5.5v-18.6h28.2v4.9c0,0,8.3-10.3,19.3-7.9c11,2.4,14.6,8.3,14.6,8.3
	s10.7-10.9,22.1-8.1c11.4,2.8,14.8,13.6,14.8,18.9c0,5.3,0.2,29.2,0.2,29.2h5.7v18.8h-28.4v-41.8c0,0-0.8-5.5-6.9-5.5
	c-6.1,0-5.9,5.5-5.9,5.5v42.2h-22.1v-42c0,0-0.8-5.7-6.9-5.7c-6.1,0-6.5,5.7-6.5,5.7L-297.7,436.3z"/>
<path class="st0" d="M-180.9,369.2c-24.9,0-35.7,19.1-35.7,35.5c0,16.4,12.6,34.9,35.3,34.9s32.2-15.8,33.9-21.3h-22.9
	c0,0-4.1,3.4-11.1,3.4c-6.9,0-11.4-3.9-11.3-11.8h46.4C-145.4,389.7-156,369.2-180.9,369.2z M-192.5,396.2c0,0,1.8-10.7,11.6-10.7
	s11.1,10.7,11.1,10.7H-192.5z"/>
<polygon class="st0" points="-133.9,371.5 -133.9,351.2 -112.2,351.2 -112.2,371.1 -106.7,371.1 -106.7,390.5 -112.2,390.5 
	-112.2,416.9 -105.9,416.9 -105.9,436.3 -140.4,436.3 -140.4,417.3 -134.3,417.3 -134.3,390.5 -140.4,390.5 -140.4,371.7 "/>
<path class="st0" d="M-25.4,390.5v-18.5h-27.8v4.3c0,0-7.9-6.5-18.7-6.5s-30,11-30,33.7s17.4,34.9,29.2,34.9s18.5-6.7,18.5-6.7v4.7
	h28.6v-19.1h-5.3v-26.8L-25.4,390.5L-25.4,390.5z M-66.5,417.5c-7.6,0-13.8-6.6-13.8-14.8s6.2-14.8,13.8-14.8
	c7.6,0,13.8,6.6,13.8,14.8S-58.9,417.5-66.5,417.5z"/>
<path class="st0" d="M28.9,370c-10.5,0-18.5,5.9-18.5,5.9v-29h-28v18.9h5.5l-0.2,51.5h-5.3v19.1h28.6v-5.1c0,0,5.9,7.1,17.2,7.1
	c11.2,0,30.6-9.9,30.6-34.3C58.7,379.6,39.3,370,28.9,370z M22.9,417.7c-7.4,0-13.4-6.5-13.4-14.5c0-8,6-14.5,13.4-14.5
	c7.4,0,13.4,6.5,13.4,14.5C36.3,411.2,30.3,417.7,22.9,417.7z"/>
<path class="st0" d="M98.2,368.4c-19.9,0-36.1,15.7-36.1,35.1c0,19.4,16.1,35.1,36.1,35.1s36.1-15.7,36.1-35.1
	C134.2,384.1,118.1,368.4,98.2,368.4z M98.2,418.7c-7.6,0-13.8-6.8-13.8-15.2c0-8.4,6.2-15.2,13.8-15.2c7.6,0,13.8,6.8,13.8,15.2
	C111.9,411.9,105.8,418.7,98.2,418.7z"/>
<path class="st0" d="M132.6,339.1c5.3,0,9.5,4.3,9.5,9.7c0,5.5-4.2,9.8-9.6,9.8c-5.3,0-9.6-4.3-9.6-9.8
	C122.9,343.5,127.2,339.1,132.6,339.1L132.6,339.1z M132.5,340.6c-4.3,0-7.8,3.7-7.8,8.2c0,4.6,3.5,8.3,7.8,8.3
	c4.3,0,7.8-3.6,7.8-8.2S136.9,340.6,132.5,340.6L132.5,340.6L132.5,340.6z M130.7,354.5H129v-10.8c0.9-0.1,1.8-0.3,3.1-0.3
	c1.6,0,2.7,0.3,3.4,0.8c0.6,0.5,1,1.2,1,2.2c0,1.4-1,2.3-2.1,2.6v0.1c1,0.2,1.6,1,1.8,2.6c0.3,1.7,0.5,2.3,0.7,2.7H135
	c-0.3-0.3-0.5-1.3-0.7-2.8c-0.3-1.4-1-1.9-2.3-1.9h-1.2L130.7,354.5L130.7,354.5z M130.7,348.5h1.3c1.4,0,2.6-0.5,2.6-1.9
	c0-1-0.7-1.9-2.6-1.9c-0.6,0-1,0-1.3,0.1V348.5z"/>
<path class="st1" d="M-296.8,479.2c0.3,1.4,0.8,4,1.4,8c0.8-4.7,1.4-7.4,1.5-8.1l2.9-11.6h10.2l-10.1,27.2h-9.1l-2.8-11.3
	c-0.2-0.9-0.7-3.9-1.4-9.1c-0.7,5.3-1.1,8.4-1.3,9.1l-2.8,11.3h-9.1l-10.1-27.2h10.2l2.9,11.6c0.2,0.7,0.6,3.4,1.5,8.1
	c0.5-3.8,1-6.5,1.4-8l3-11.7h8.3L-296.8,479.2z"/>
<path class="st1" d="M-263.2,495.3c-9.6,0-15.9-5.4-15.9-14.1c0-8.7,6.3-14.1,15.9-14.1c9.6,0,16,5.3,16,14.1
	C-247.3,489.9-253.7,495.3-263.2,495.3z M-257.3,481.1c0-5-2.2-7.6-5.9-7.6c-3.7,0-5.8,2.6-5.8,7.6c0,5,2.1,7.6,5.8,7.6
	C-259.6,488.7-257.3,486.1-257.3,481.1z"/>
<path class="st1" d="M-241.6,467.5h9.8v4.8c1.7-3.5,4.5-5.3,8.6-5.3v7.2c-0.2,0-0.5,0-0.7,0c-6.5,0-7.2,2.3-7.2,7.8v12.8h-10.5
	V467.5z"/>
<path class="st1" d="M-205.9,475.3l5.4-7.7h11.9l-9.6,11.3l10.3,15.9h-11.7l-8.5-14.8v14.8h-10.5v-43h10.5v27
	C-207.7,477.8-206.9,476.7-205.9,475.3z"/>
<path class="st1" d="M-180.4,495.1c-3.8,0-6.9-2.1-6.9-4.9c0-2.8,3.1-4.9,6.9-4.9c3.8,0,6.9,2,6.9,4.9
	C-173.5,493-176.6,495.1-180.4,495.1z"/>
<path class="st1" d="M-132.1,494.7v-4c-2,3-4.8,4.5-8.5,4.5c-6.9,0-11-4.9-11-14.1c0-9.1,4.2-13.9,11.3-13.9c3.3,0,6,1.4,8.2,4.1
	v-19.7h10.2v43L-132.1,494.7L-132.1,494.7z M-136.8,473.3c-3.2,0-4.4,2.4-4.4,7.4c0,5.2,1.5,7.8,4.6,7.8c3.4,0,4.5-2.6,4.5-7.8
	C-132.1,475.7-133.4,473.3-136.8,473.3z"/>
<path class="st1" d="M-100.2,495.3c-9.6,0-15.9-5.4-15.9-14.1c0-8.7,6.3-14.1,15.9-14.1c9.6,0,16,5.3,16,14.1
	C-84.3,489.9-90.7,495.3-100.2,495.3z M-94.3,481.1c0-5-2.2-7.6-5.9-7.6c-3.7,0-5.8,2.6-5.8,7.6c0,5,2.2,7.6,5.8,7.6
	C-96.5,488.7-94.3,486.1-94.3,481.1z"/>
<path class="st1" d="M-61,478.3c0-2.8-0.6-4.1-3.4-4.1c-2.9,0-3.8,1.5-3.8,4.4v16.1h-10.5v-27.2h9.8v4.2c2.7-3,6.1-4.5,10.5-4.5
	c6.9,0,8,2.9,8,8.9v18.6H-61L-61,478.3L-61,478.3z"/>
<path class="st1" d="M-37.1,454.9v15.5h-6.4v-15.5H-37.1z"/>
<path class="st1" d="M-28.9,473.4H-33v-5.9h4.1v-7.8h10.5v7.8h4.2v5.9h-4.2v21.4h-10.5V473.4z"/>
<path class="st1" d="M8.2,467.5h9.9v4.1c2.4-3,5.1-4.4,8.5-4.4c7.1,0,11.3,4.9,11.3,14c0,9.2-4.2,14.1-11,14.1
	c-3.7,0-6.6-1.6-8.5-4.6v14.9H8.2L8.2,467.5L8.2,467.5z M18.4,480.7c0,5.3,1.1,7.8,4.5,7.8c3.2,0,4.5-2.6,4.5-8
	c0-4.9-1.2-7.2-4.4-7.2C19.6,473.4,18.4,475.7,18.4,480.7z"/>
<path class="st1" d="M44.5,451.7H55v43H44.5V451.7z"/>
<path class="st1" d="M81.5,494.7v-4c-2.2,3-5.1,4.5-8.6,4.5c-7.2,0-11.3-4.8-11.3-14.1c0-9.1,4.3-13.9,11.3-13.9
	c3.4,0,6.1,1.5,8.5,4.4v-4.1h9.9v27.2L81.5,494.7L81.5,494.7z M76.4,473.4c-3.2,0-4.4,2.4-4.4,7.4c0,5.2,1.5,7.7,4.6,7.7
	c3.4,0,4.8-2.5,4.8-7.8C81.5,475.8,79.9,473.4,76.4,473.4z"/>
<path class="st1" d="M105.3,494.7l-9.9-27.2h10.4l3.7,12c0.4,1.4,0.7,3.1,0.8,5.1c0.5-2.7,0.8-4.5,1.1-5.6l3.5-11.6h10.4l-14.4,38.2
	h-10.3L105.3,494.7z"/>
<path class="st1" d="M126.6,495.1c-3.8,0-6.9-2.1-6.9-4.9c0-2.8,3.1-4.9,6.9-4.9c3.8,0,6.9,2,6.9,4.9
	C133.5,493,130.5,495.1,126.6,495.1z"/>
</svg>
