<?xml version="1.0" encoding="utf-8"?>
<!-- Generator: Adobe Illustrator 21.0.2, SVG Export Plug-In . SVG Version: 6.00 Build 0)  -->
<svg version="1.1" id="Calque_1" xmlns="http://www.w3.org/2000/svg" xmlns:xlink="http://www.w3.org/1999/xlink" x="0px" y="0px"
	 viewBox="0 0 500 202" style="enable-background:new 0 0 500 202;" xml:space="preserve">
<style type="text/css">
	.st0{fill:#0073B8;}
	.st1{fill:#FFFFFF;}
	.st2{fill:url(#SVGID_1_);}
</style>
<path class="st0" d="M64.1,31c0,0-3.1-9.7-9.2-9.7S18,64.9,33.5,72.2c19.4,9.2,59.6-37.2,67.2-30.6c7.6,6.6-19.9,41.2-29.5,50.9
	c-9.7,9.7-28,35.6-23.4,40.7s16.3,18.8,20.9,13.2c4.6-5.6,41.8-53,52.4-66.2c10.7-13.2,23.9-31.1,27-29.5
	c3.1,1.5-7.1,18.8-17.3,33.1c-10.2,14.3-35.1,43.8-30.6,49.9s15.3,17.3,18.3,12.7c3.1-4.6,46.3-53,53-60.1
	c6.6-7.1,22.9-22.4,24.9-21.4s-33.1,45.3-38.7,57c-5.6,11.7,4.6,32.6,17.3,30.6s40.7-15.8,68.7-54.5s-51.9,34.1-56,29.5
	c-4.1-4.6,22.4-50.4,31.1-62.6c8.7-12.2,24.4-26.5,23.4-34.1S232,14,220.3,20.6c-11.7,6.6-48.4,44.3-50.4,41.8s19.4-31.1,13.7-38.7
	c-5.6-7.6-23.4-9.7-29.5-3.6s-37.2,34.1-38.7,32.6s12.2-15.8,9.2-26.5c-3.1-10.7-8.1-15.8-19.3-12.2C94.2,17.8,57.5,44.3,64.1,31z"
	/>
<path class="st1" d="M165,122.1h-16.1v-39h-0.2l-10.3,39h-11l-10.6-39h-0.2v39h-13V67.6h22.6l8.1,28.9h0.2l7.7-28.9H165V122.1
	L165,122.1z"/>
<path class="st0" d="M166.5,123.6h-19.2V94.3l-7.7,29.3h-13.4L118.1,94v29.6H102V66h25.3l7,24.9L141,66h25.5V123.6z M150.4,120.5
	h13.1V69.1h-20.1L135.7,98h-2.5l-8.1-28.9h-19.9v51.5h9.9v-39h2.9l10.6,39h8.7l10.3-39h2.9L150.4,120.5L150.4,120.5z"/>
<path class="st1" d="M217.5,122.1h-42.4V67.6h42.4v12.5h-25.4V88h20.6v12.2h-20.6v8.8h25.4V122.1L217.5,122.1z"/>
<path class="st0" d="M219,123.6h-45.5V66H219v15.6h-25.4v4.9h20.6v15.2h-20.6v5.8H219V123.6L219,123.6z M176.7,120.5H216v-10h-25.4
	V98.6h20.6v-9.1h-20.6v-11H216v-9.4h-39.3V120.5L176.7,120.5z"/>
<path class="st1" d="M250.1,122.1h-16.5V80.7h-11.9V67.6h39.9v13.1H250v41.4H250.1z"/>
<path class="st0" d="M251.6,123.6h-19.5V82.2h-11.9V66h43v16.2h-11.6V123.6L251.6,123.6z M235.2,120.5h13.4V79.1h11.6v-10h-36.9v10
	h11.9V120.5z"/>
<path class="st1" d="M308,122.1h-39.6V67.6h17.5v41.2H308V122.1z"/>
<path class="st0" d="M309.5,123.6h-42.7V66h20.5v41.2h22.1L309.5,123.6L309.5,123.6z M269.9,120.5h36.5v-10.3h-22.1V69.1h-14.4
	V120.5L269.9,120.5z"/>
<path class="st1" d="M342.4,111.3h-15.1l-3.5,10.7h-14.1l17.5-54.5h18.4l17.7,54.6h-17.7L342.4,111.3z M339.4,99.4l-4.6-15.8
	l-4.6,15.8H339.4z"/>
<path class="st0" d="M365.4,123.6h-20.9l-3.2-10.7h-12.8l-3.5,10.7h-17.3L326.2,66h20.5L365.4,123.6z M346.7,120.5h14.4l-16.6-51.4
	h-16L312,120.6h10.9l3.5-10.7h17.3L346.7,120.5z M341.5,100.9h-13.3l6.7-22.8L341.5,100.9z M332.2,97.9h5.1l-2.6-8.8L332.2,97.9z"/>
<path class="st1" d="M403.4,122.1l-20-34.2l-0.1,34.2h-14.1V67.6h16.4L404.5,98l-1.1-30.4h14.1v54.5H403.4z"/>
<path class="st0" d="M419.1,123.6h-16.6l-17.6-30.1l-0.1,30.1h-17.1V66h18.8l16.4,26.3L402,66h17.2L419.1,123.6L419.1,123.6z
	 M404.3,120.5H416V69.1h-11l1.2,34.6l-21.5-34.6h-14v51.5h11l0.1-38.3L404.3,120.5z"/>
<path class="st1" d="M427.5,67.5h20.8c8.2,0,14.7,1,20.7,6.7c5.9,5.4,8.6,12.9,8.6,20.7c0,7.2-2.6,14.6-7.8,19.8
	c-5.6,5.6-12.6,7.4-20.4,7.4h-22V67.5H427.5z M447.3,109.5c2.3,0,3.8,0.2,5.9-1c1.6-0.9,2.8-2.1,3.7-3.6c2-3.2,2.6-6.8,2.6-10.5
	S458.4,86,456,83c-2.7-3.3-5.4-3.1-9.3-3.1h-2v29.6H447.3z"/>
<path class="st0" d="M449.5,123.6H426V66h22.4c8.7,0,15.4,1.2,21.8,7.1c5.9,5.4,9.1,13.1,9.1,21.8c0,7.9-3.1,15.7-8.3,20.9
	C465.7,121.1,458.8,123.6,449.5,123.6z M429,120.5h20.4c8.5,0,14.6-2.2,19.3-6.9c4.6-4.6,7.4-11.6,7.4-18.7c0-7.8-2.9-14.7-8.1-19.5
	c-5.6-5.2-11.7-6.3-19.7-6.3H429V120.5L429,120.5z M448.8,111h-5.4V78.4h4.5c3.1,0,6.4,0,9.5,3.7c2.8,3.6,3.8,8.9,3.8,12.4
	c0,4.5-0.9,8.2-2.9,11.3c-1,1.7-2.5,3.1-4.3,4.1C451.9,111,450.4,111,448.8,111z M446.4,108h2.4c1.3,0,2.4-0.1,3.8-0.8
	c1.3-0.7,2.3-1.7,3.1-3c1.6-2.6,2.4-5.8,2.4-9.7c0-3.3-1-7.8-3.1-10.5c-2-2.4-3.8-2.5-7.1-2.5h-1.5L446.4,108L446.4,108z"/>
<path class="st0" d="M221.1,188.2H220l-0.8-2.5c-1,2.2-2.3,2.7-3.7,2.7c-5,0-5.5-7.3-5.5-9.4c0-3.9,1.4-9.4,5.8-9.4
	c1.2,0,2.7,0.4,3.9,2.3c0.8,1.3,1,2.4,1.2,3.2l-2.1,0.5c-0.1-0.8-0.6-3.3-2.9-3.3c-1.2,0-1.9,0.8-2.3,1.5c-0.4,0.8-1,2-1,4.9
	c0,3.3,0.6,6.9,3.2,6.9c1.6,0,2.9-1.6,2.9-4.2h-2.8v-2.6h5.1L221.1,188.2L221.1,188.2z"/>
<path class="st0" d="M232.3,185.5c0,1.3,0.2,2.3,0.3,2.7h-2.2c-0.3-1.1-0.3-1.6-0.4-2.7c-0.3,1-1,3-3.4,3c-2.2,0-3.3-1.9-3.3-4.1
	c0-4.5,4.6-4.7,6.7-4.6v-1c0-1.7-1.1-2.1-2.1-2.1c-2,0-2.2,1.5-2.3,2.1l-1.9-0.4c0.4-3,2.5-3.8,4.5-3.8c1.1,0,2.4,0.2,3.1,1
	c1,1.2,1,2.3,1,4L232.3,185.5L232.3,185.5z M230.1,181.3c-1.4,0-2.3,0.3-2.8,0.4c-0.4,0.2-1.7,0.7-1.7,2.4c0,0.5,0.2,2,1.8,2
	c2.2,0,2.6-2.5,2.6-3.6L230.1,181.3L230.1,181.3z"/>
<path class="st0" d="M235.3,174.7h2v3.2c0.2-1,0.9-3.7,3.1-3.6v3.3c-0.5,0-1.4,0-2.1,1.1c-0.4,0.6-0.8,1.9-0.8,4v5.5h-2.3
	L235.3,174.7L235.3,174.7z"/>
<path class="st0" d="M248.4,188.2v-2.7c-0.3,0.9-0.9,3-3,3c-3.5,0-3.8-5.7-3.8-7.2c0-2.6,0.9-7.1,3.9-7.1c1,0,2,0.4,2.7,2.4V170h2.3
	v18.2L248.4,188.2L248.4,188.2z M248.3,180.3c0-1.2-0.1-1.7-0.5-2.5c-0.4-0.7-1-1-1.6-1c-2,0-2.1,3.5-2.1,4.7c0,0.9,0,4.5,2.1,4.5
	c1,0,2.1-1.3,2.1-3.4V180.3z"/>
<path class="st0" d="M262,184.3c-0.7,3-2.5,4.2-4.5,4.2c-3.3,0-4.6-3.6-4.6-7c0-4,1.8-7,4.7-7c3.3,0,4.6,3.5,4.5,7.4h-6.9
	c0,0.9,0,2,0.5,3c0.4,0.8,1.1,1.2,1.9,1.2c1.6,0,2-1.4,2.3-2.2L262,184.3z M259.8,179.9c0-0.7-0.1-1.3-0.5-2.1
	c-0.4-0.7-1-1.2-1.8-1.2s-1.4,0.4-1.8,1.3c-0.3,0.7-0.4,1.3-0.5,2L259.8,179.9L259.8,179.9z"/>
<path class="st0" d="M271.2,188.2h-7.6v-2.4l5-8.7h-4.5v-2.4h7.1v2.2l-4.9,8.9h4.9V188.2z"/>
<path class="st0" d="M287.8,188.2h-2.1v-2.9c-0.2,0.7-0.4,1.4-1.1,2.2c-0.3,0.4-1,1-2.1,1c-0.9,0-1.9-0.4-2.5-1.6
	c-0.4-0.9-0.5-1.4-0.5-2.7v-9.4h2.3v8.5c0,1.4,0.3,2.6,1.4,2.6c0.7,0,1.7-0.7,2-1.9c0.2-0.8,0.3-1.5,0.3-2.8v-6.5h2.3V188.2
	L287.8,188.2z"/>
<path class="st0" d="M290.8,174.7h2.1v3.1c0.4-1.1,1.2-3.4,3-3.4c3.3,0,3.2,4,3.2,5.8v8h-2.3v-7.9c0-3.1-1.2-3.2-1.5-3.2
	c-0.5,0-2.2,0.2-2.2,4.8v6.3h-2.3V174.7L290.8,174.7z"/>
<path class="st0" d="M310.5,184.3c-0.7,3-2.5,4.2-4.5,4.2c-3.3,0-4.6-3.6-4.6-7c0-4,1.8-7,4.7-7c3.3,0,4.6,3.5,4.5,7.4h-6.9
	c0,0.9,0,2,0.5,3c0.4,0.8,1.1,1.2,1.9,1.2c1.6,0,2-1.4,2.3-2.2L310.5,184.3z M308.3,179.9c0-0.7-0.1-1.3-0.5-2.1
	c-0.4-0.7-1-1.2-1.7-1.2c-0.8,0-1.4,0.4-1.8,1.3c-0.3,0.7-0.4,1.3-0.5,2L308.3,179.9L308.3,179.9z"/>
<path class="st0" d="M319.2,188.2V170h2.3v18.2H319.2z"/>
<path class="st0" d="M328.4,188.5c-3.4,0-4.6-4-4.6-7.1c0-3.7,1.7-6.9,4.7-6.9s4.6,3.3,4.6,7C333.2,186,331,188.5,328.4,188.5z
	 M328.5,177c-1.8,0-2.3,2.4-2.3,4.5c0,0.7,0,4.5,2.3,4.5c2.1,0,2.3-3.2,2.3-4.6C330.8,179.1,330.3,177,328.5,177z"/>
<path class="st0" d="M335.5,174.7h2.1v3.1c0.4-1.1,1.2-3.4,3-3.4c3.3,0,3.2,4,3.2,5.8v8h-2.3v-7.9c0-3.1-1.2-3.2-1.6-3.2
	c-0.5,0-2.2,0.2-2.2,4.8v6.3h-2.3L335.5,174.7L335.5,174.7z"/>
<path class="st0" d="M356,174.5h-0.7c-0.8,0-1.1,0.3-1.5,1.1c0.5,0.6,1.2,1.4,1.2,2.9c0,2.4-1.7,4.1-4.1,4.1c-0.7,0-1.2-0.1-1.9-0.4
	c-0.3,0.2-0.7,0.5-0.7,1.3c0,0.5,0.3,1.3,1.6,1.3h2.6c2.5,0,3.5,1.9,3.5,3.7c0,1.7-1,4.4-5.2,4.4c-2.7,0-4.9-0.8-4.9-3.7
	c0-1.6,0.7-2.2,1.5-2.7c-0.6-0.7-0.9-1.2-0.9-2.2c0-1.7,1.1-2.4,1.6-2.8c-0.5-0.5-1.4-1.3-1.4-3.1c0-1.4,0.6-4.1,4.1-4.1
	c0.9,0,1.4,0.1,2,0.3c0.3-1.9,1.3-2.6,2.6-2.6h0.6V174.5L356,174.5z M349.4,190.6c0.7,0.2,1.4,0.3,1.9,0.3c1,0,2.6-0.2,2.6-1.8
	c0-1-0.8-1.4-1.5-1.4h-1.6c-0.8,0-1.8,0-2.4-0.3c-0.3,0.4-0.5,0.8-0.5,1.2C347.9,189.5,348.5,190.4,349.4,190.6z M350.9,176.4
	c-1.5,0-1.9,1.3-1.9,2.2c0,1.2,0.6,2.2,1.9,2.2c0.5,0,1-0.2,1.3-0.5c0.6-0.5,0.6-1.1,0.6-1.9C352.7,177.7,352.4,176.4,350.9,176.4z"
	/>
<path class="st0" d="M365.9,188.2h-2.1v-2.9c-0.2,0.7-0.4,1.4-1.1,2.2c-0.3,0.4-1,1-2.1,1c-0.9,0-1.9-0.4-2.5-1.6
	c-0.4-0.9-0.5-1.4-0.5-2.7v-9.4h2.4v8.5c0,1.4,0.3,2.6,1.4,2.6c0.7,0,1.7-0.7,2-1.9c0.2-0.8,0.3-1.5,0.3-2.8v-6.5h2.3L365.9,188.2
	L365.9,188.2z"/>
<path class="st0" d="M377.4,184.3c-0.7,3-2.5,4.2-4.4,4.2c-3.3,0-4.6-3.6-4.6-7c0-4,1.8-7,4.7-7c3.3,0,4.6,3.5,4.5,7.4h-6.9
	c0,0.9,0,2,0.5,3c0.4,0.8,1.1,1.2,1.9,1.2c1.6,0,2-1.4,2.3-2.2L377.4,184.3z M375.2,179.9c0-0.7-0.1-1.3-0.5-2.1
	c-0.4-0.7-1-1.2-1.8-1.2c-0.8,0-1.4,0.4-1.8,1.3c-0.3,0.7-0.4,1.3-0.5,2L375.2,179.9L375.2,179.9z"/>
<path class="st0" d="M388.2,188.2H386v-2.9c-0.2,0.7-0.4,1.4-1.1,2.2c-0.3,0.4-1,1-2.1,1c-0.9,0-1.9-0.4-2.5-1.6
	c-0.4-0.9-0.5-1.4-0.5-2.7v-9.4h2.3v8.5c0,1.4,0.3,2.6,1.4,2.6c0.7,0,1.7-0.7,2-1.9c0.2-0.8,0.3-1.5,0.3-2.8v-6.5h2.3L388.2,188.2
	L388.2,188.2z"/>
<path class="st0" d="M391.2,174.7h2v3.2c0.2-1,0.9-3.7,3.1-3.6v3.3c-0.5,0-1.4,0-2.1,1.1c-0.4,0.6-0.8,1.9-0.8,4v5.5h-2.3
	L391.2,174.7L391.2,174.7z"/>
<path class="st0" d="M410.5,188.2v-2.7c-0.3,0.9-0.9,3-3,3c-3.5,0-3.8-5.7-3.8-7.2c0-2.6,0.9-7.1,3.9-7.1c1,0,2,0.4,2.7,2.4V170h2.3
	v18.2L410.5,188.2L410.5,188.2z M410.4,180.3c0-1.2-0.1-1.7-0.5-2.5c-0.3-0.7-1-1-1.5-1c-2,0-2.1,3.5-2.1,4.7c0,0.9,0,4.5,2.1,4.5
	c1,0,2.1-1.3,2.1-3.4L410.4,180.3L410.4,180.3z"/>
<path class="st0" d="M415.9,177.3l-0.3-7.3h2.2l-0.3,7.3H415.9z"/>
<path class="st0" d="M429,185.5c0,1.3,0.2,2.3,0.3,2.7h-2.2c-0.3-1.1-0.3-1.6-0.4-2.7c-0.3,1-1,3-3.4,3c-2.2,0-3.3-1.9-3.3-4.1
	c0-4.5,4.6-4.7,6.7-4.6v-1c0-1.7-1.1-2.1-2.1-2.1c-2,0-2.2,1.5-2.3,2.1l-1.9-0.4c0.4-3,2.5-3.8,4.5-3.8c1.1,0,2.4,0.2,3.1,1
	c1,1.2,1,2.3,1,4C429,179.6,429,185.5,429,185.5z M426.8,181.3c-1.4,0-2.3,0.3-2.8,0.4c-0.4,0.2-1.7,0.7-1.7,2.4c0,0.5,0.2,2,1.8,2
	c2.2,0,2.6-2.5,2.6-3.6L426.8,181.3L426.8,181.3z"/>
<path class="st0" d="M435.6,188.2h-1.9l-3.5-13.4h2.4l2.3,9.1l2.3-9.1h1.8L435.6,188.2z"/>
<path class="st0" d="M449.1,185.5c0,1.3,0.2,2.3,0.3,2.7h-2.2c-0.3-1.1-0.3-1.6-0.4-2.7c-0.3,1-1,3-3.4,3c-2.2,0-3.3-1.9-3.3-4.1
	c0-4.5,4.6-4.7,6.7-4.6v-1c0-1.7-1.1-2.1-2.1-2.1c-2,0-2.2,1.5-2.3,2.1l-1.9-0.4c0.4-3,2.5-3.8,4.6-3.8c1.1,0,2.4,0.2,3.1,1
	c1,1.2,1,2.3,1,4L449.1,185.5L449.1,185.5z M446.9,181.3c-1.4,0-2.3,0.3-2.8,0.4c-0.4,0.2-1.7,0.7-1.7,2.4c0,0.5,0.2,2,1.8,2
	c2.2,0,2.6-2.5,2.6-3.6v-1.2H446.9z"/>
<path class="st0" d="M452.1,174.7h2.1v3.1c0.4-1.1,1.2-3.4,3-3.4c3.3,0,3.2,4,3.2,5.8v8h-2.3v-7.9c0-3.1-1.2-3.2-1.5-3.2
	c-0.5,0-2.2,0.2-2.2,4.8v6.3h-2.3L452.1,174.7L452.1,174.7z"/>
<path class="st0" d="M471.2,183.5c-0.2,1.2-0.9,4.9-4.1,4.9c-3.2,0-4.3-4-4.3-7c0-3.7,1.5-7,4.5-7c3.3,0,3.8,3.6,3.9,4.6l-2,0.4
	c-0.2-1.8-0.9-2.5-1.9-2.5c-1.3,0-1.7,1.4-1.9,2.1c-0.2,0.9-0.3,1.9-0.3,2.5c0,0.5,0,4.2,2.1,4.2c1.1,0,1.7-1,2-2.6L471.2,183.5z"/>
<path class="st0" d="M481.6,184.3c-0.7,3-2.5,4.2-4.5,4.2c-3.3,0-4.6-3.6-4.6-7c0-4,1.8-7,4.7-7c3.3,0,4.6,3.5,4.5,7.4h-6.9
	c0,0.9,0,2,0.5,3c0.4,0.8,1.1,1.2,1.9,1.2c1.6,0,2-1.4,2.3-2.2L481.6,184.3z M479.4,179.9c0-0.7-0.1-1.3-0.5-2.1
	c-0.4-0.7-1-1.2-1.8-1.2c-0.8,0-1.4,0.4-1.8,1.3c-0.3,0.7-0.4,1.3-0.5,2L479.4,179.9L479.4,179.9z"/>
<linearGradient id="SVGID_1_" gradientUnits="userSpaceOnUse" x1="21.4" y1="2339.6301" x2="201.7" y2="2339.6301" gradientTransform="matrix(1 0 0 1 0 -2158.3301)">
	<stop  offset="0" style="stop-color:#FFFFFF"/>
	<stop  offset="1" style="stop-color:#0073B8"/>
</linearGradient>
<rect x="21.4" y="176.2" class="st2" width="180.3" height="10.2"/>
</svg>
