<?xml version="1.0" encoding="utf-8"?>
<!-- Generator: Adobe Illustrator 19.1.0, SVG Export Plug-In . SVG Version: 6.00 Build 0)  -->
<svg version="1.1" id="Calque_1" xmlns="http://www.w3.org/2000/svg" xmlns:xlink="http://www.w3.org/1999/xlink" x="0px" y="0px"
	 viewBox="-345 170.9 500 500" style="enable-background:new -345 170.9 500 500;" xml:space="preserve">
<style type="text/css">
	.st0{fill:#006699;}
</style>
<rect x="-19.8" y="393.2" class="st0" width="25.7" height="9.4"/>
<path class="st0" d="M81.6,456.4l-16.3-16.6l27.3-28H60l-11,11.2l-11-11.2H16.2l21.9,22.4l-21.8,22.3H5.9v-44.9h-25.7v44.9h-46.1
	v-32.3h9.8v22.6h25.7v-22.6h0v-12.2h0H-56h-9.8h-26.6v12.2v32.3h-8.7v-53.8h70.9v-9.4h-70.9v-11.8h-26.9v11.8h-49.1v9.4h49.1v53.8
	h-49.7v-9h39.7v-0.2h0.1v-35.9h-26.5v0.1h-13.2v-0.1h-26.5v45h-8.8v-32.2v-12.9h-26.5h-10h-26.5h-9.3h-26.5H-333v12.9h21.1v42.1
	h26.5v-42.1h9.3v42.1h26.5v-42.1h10v32.2v9.8v0.1h26.5v-0.1h8.8v0.1h26.5v-0.1H39.7V466l14.7-15.1l15,15.4h6.7h15H119v-9.9
	L81.6,456.4L81.6,456.4z M-164.5,423.8v11.5h-13.2v-11.5H-164.5z"/>
<path class="st0" d="M119.7,408.8v-15.9h7.3c1.5,0,2.7,0.1,3.4,0.4c0.7,0.3,1.3,0.8,1.8,1.5c0.5,0.7,0.7,1.5,0.7,2.4
	c0,1.2-0.4,2.2-1.2,2.9c-0.8,0.7-1.9,1.2-3.5,1.4c0.6,0.3,1.1,0.6,1.4,0.9c0.6,0.6,1.2,1.3,1.7,2l2.9,4.3h-2.7l-2.2-3.3
	c-0.9-1.3-1.5-2.2-1.9-2.6c-0.4-0.4-0.9-0.8-1.3-0.9s-1-0.2-1.7-0.2h-2.5v7.1L119.7,408.8L119.7,408.8z M121.9,399.9h4.7
	c1,0,1.8-0.1,2.3-0.3c0.5-0.2,1-0.5,1.3-0.9c0.3-0.4,0.5-0.9,0.5-1.5c0-0.8-0.3-1.4-0.9-1.9c-0.6-0.5-1.5-0.7-2.6-0.7h-5.2V399.9z"
	/>
<path class="st0" d="M126.1,416c-8.1,0-14.7-6.4-14.7-14.3c0-7.9,6.6-14.3,14.7-14.3s14.7,6.4,14.7,14.3
	C140.8,409.5,134.2,416,126.1,416z M126.1,389.2c-7,0-12.7,5.6-12.7,12.4s5.7,12.4,12.7,12.4c7,0,12.7-5.6,12.7-12.4
	S133.1,389.2,126.1,389.2z"/>
</svg>
