<?xml version="1.0" encoding="utf-8"?>
<!-- Generator: Adobe Illustrator 21.0.2, SVG Export Plug-In . SVG Version: 6.00 Build 0)  -->
<svg version="1.1" id="Calque_1" xmlns="http://www.w3.org/2000/svg" xmlns:xlink="http://www.w3.org/1999/xlink" x="0px" y="0px"
	 viewBox="0 0 500 112" style="enable-background:new 0 0 500 112;" xml:space="preserve">
<style type="text/css">
	.st0{fill:#006699;}
</style>
<rect x="325.2" y="28.3" class="st0" width="25.7" height="9.4"/>
<path class="st0" d="M426.6,91.5l-16.3-16.6l27.3-28H405l-11,11.2l-11-11.2h-21.8l21.9,22.4l-21.8,22.3h-10.4V46.7h-25.7v44.9h-46.1
	V59.3h9.8v22.6h25.7V59.3l0,0V47.1l0,0H289h-9.8h-26.6v12.2v32.3h-8.7V37.8h70.9v-9.4h-70.9V16.6H217v11.8h-49.1v9.4H217v53.8h-49.7
	v-9H207v-0.2h0.1V46.5h-26.5v0.1h-13.2v-0.1h-26.5v45h-8.8V59.3V46.4h-26.5h-10H69.1h-9.3H33.3H12v12.9h21.1v42.1h26.5V59.3h9.3
	v42.1h26.5V59.3h10v32.2v9.8v0.1h26.5v-0.1h8.8v0.1h26.5v-0.1h217.5v-0.2L399.4,86l15,15.4h6.7h15H464v-9.9H426.6L426.6,91.5z
	 M180.5,58.9v11.5h-13.2V58.9H180.5z"/>
<path class="st0" d="M464.7,43.9V28h7.3c1.5,0,2.7,0.1,3.4,0.4s1.3,0.8,1.8,1.5s0.7,1.5,0.7,2.4c0,1.2-0.4,2.2-1.2,2.9
	c-0.8,0.7-1.9,1.2-3.5,1.4c0.6,0.3,1.1,0.6,1.4,0.9c0.6,0.6,1.2,1.3,1.7,2l2.9,4.3h-2.7l-2.2-3.3c-0.9-1.3-1.5-2.2-1.9-2.6
	s-0.9-0.8-1.3-0.9c-0.4-0.1-1-0.2-1.7-0.2h-2.5v7.1L464.7,43.9L464.7,43.9z M466.9,35h4.7c1,0,1.8-0.1,2.3-0.3
	c0.5-0.2,1-0.5,1.3-0.9c0.3-0.4,0.5-0.9,0.5-1.5c0-0.8-0.3-1.4-0.9-1.9c-0.6-0.5-1.5-0.7-2.6-0.7H467V35H466.9z"/>
<path class="st0" d="M471.1,51.1c-8.1,0-14.7-6.4-14.7-14.3s6.6-14.3,14.7-14.3s14.7,6.4,14.7,14.3
	C485.8,44.6,479.2,51.1,471.1,51.1z M471.1,24.3c-7,0-12.7,5.6-12.7,12.4s5.7,12.4,12.7,12.4s12.7-5.6,12.7-12.4
	S478.1,24.3,471.1,24.3z"/>
</svg>
