<?xml version="1.0" encoding="utf-8"?>
<!-- Generator: Adobe Illustrator 15.0.0, SVG Export Plug-In . SVG Version: 6.00 Build 0)  -->
<!DOCTYPE svg PUBLIC "-//W3C//DTD SVG 1.1//EN" "http://www.w3.org/Graphics/SVG/1.1/DTD/svg11.dtd">
<svg version="1.1" id="Calque_1" xmlns="http://www.w3.org/2000/svg" xmlns:xlink="http://www.w3.org/1999/xlink" x="0px" y="0px"
	 width="500px" height="500px" viewBox="0 0 500 500" enable-background="new 0 0 500 500" xml:space="preserve">
<g>
	<g>
		<rect x="325.198" y="222.344" fill="#006699" width="25.713" height="9.449"/>
		<path fill="#006699" d="M426.613,285.538l-16.289-16.648l27.323-27.959h-32.681l-10.992,11.246l-11.002-11.246h-21.764
			l21.891,22.374l-21.826,22.335H350.91v-44.941h-25.713v44.941h-46.078V253.36h9.835v22.575h25.712V253.36h0.038v-12.197h-0.038
			h-25.712h-9.835h-26.642v12.197v32.279h-8.673v-53.847h70.861v-9.449h-70.861v-11.848h-26.874v11.848h-49.099v9.449h49.099v53.847
			h-49.719v-9.008h39.652v-0.154h0.077v-35.856h-26.486v0.077h-13.243v-0.077h-26.486v45.019h-8.829v-32.163v-12.855h-26.486h-9.99
			H68.935h-9.293H33.156H12.014v12.855h21.142v42.052h26.486v-42.052h9.293v42.052h26.486v-42.052h9.99v32.163v9.814v0.074h26.486
			v-0.074h8.829v0.074h26.486v-0.074h217.503v-0.359l14.732-15.077l15.044,15.376h6.737h15.024h27.725v-9.855H426.613z
			 M180.455,252.935v11.462h-13.243v-11.462H180.455z"/>
	</g>
	<g>
		<g>
			<path fill="#006699" d="M464.69,237.868v-15.926H472c1.525,0,2.652,0.149,3.38,0.445c0.726,0.296,1.323,0.791,1.79,1.481
				c0.466,0.691,0.698,1.494,0.698,2.405c0,1.202-0.396,2.176-1.186,2.921c-0.79,0.746-1.941,1.22-3.45,1.423
				c0.613,0.292,1.08,0.586,1.4,0.886c0.649,0.608,1.222,1.285,1.715,2.031l2.879,4.334h-2.743l-2.197-3.311
				c-0.854-1.296-1.496-2.169-1.931-2.619c-0.433-0.449-0.853-0.752-1.259-0.908c-0.406-0.156-0.975-0.234-1.706-0.234h-2.52v7.071
				H464.69z M466.871,228.971h4.689c1.022,0,1.801-0.098,2.331-0.293s0.951-0.503,1.262-0.923c0.31-0.42,0.466-0.91,0.466-1.467
				c0-0.804-0.297-1.436-0.891-1.896c-0.595-0.459-1.478-0.69-2.646-0.69h-5.211V228.971z"/>
		</g>
	</g>
	<g>
		<path fill="#006699" d="M471.102,245.073c-8.092,0-14.673-6.427-14.673-14.326c0-7.899,6.581-14.326,14.673-14.326
			s14.676,6.427,14.676,14.326C485.778,238.646,479.194,245.073,471.102,245.073z M471.102,218.354
			c-7.023,0-12.74,5.56-12.74,12.393c0,6.833,5.717,12.393,12.74,12.393c7.026,0,12.742-5.56,12.742-12.393
			C483.844,223.914,478.128,218.354,471.102,218.354z"/>
	</g>
</g>
</svg>
