<?xml version="1.0" encoding="utf-8"?>
<!-- Generator: Adobe Illustrator 15.0.0, SVG Export Plug-In . SVG Version: 6.00 Build 0)  -->
<!DOCTYPE svg PUBLIC "-//W3C//DTD SVG 1.1//EN" "http://www.w3.org/Graphics/SVG/1.1/DTD/svg11.dtd">
<svg version="1.1" id="Calque_1" xmlns="http://www.w3.org/2000/svg" xmlns:xlink="http://www.w3.org/1999/xlink" x="0px" y="0px"
	 width="500px" height="500px" viewBox="0 0 500 500" enable-background="new 0 0 500 500" xml:space="preserve">
<g>
	<g>
		<g>
			<g>
				<rect x="27.907" y="225.271" fill="#00519C" width="455.769" height="76.776"/>
				<polygon fill="#FFE400" points="398.985,287.007 27.933,287.007 27.933,291.811 397.219,291.811 				"/>
				<g>
					<path fill="#FFFFFF" d="M165.199,243.124l-12.121,18.403c0,0,0.77-9.632,0.968-11.948c0.138-1.77-0.079-6.455-4.377-6.455
						c-4.173,0-19.242,0-19.242,0l-12.614,34.268h15.043l9.141-24.785l-1.929,24.785h13.372l16.398-24.354l-8.949,24.354h15.143
						l12.615-34.268H165.199z"/>
					<path fill="#FFFFFF" d="M247.161,276.757c-0.737,0.125-6.488,1.23-12.53,1.398c-10.777,0.296-20.162-4.021-20.255-11.793
						c-0.144-13.476,13.491-20.866,23.547-22.923c4.501-0.921,13.173-1.935,21.822,0.194l-5.021,12.046
						c-1.436-3.281-5.153-3.347-6.667-3.373c-3.673-0.079-6.699,0.889-8.949,1.919c-5.068,2.322-9.504,9.789-2.311,12.66
						c3.982,1.596,9.062,0.326,14.352-0.516L247.161,276.757z"/>
					<polygon fill="#FFFFFF" points="401.549,277.392 384.946,277.392 397.549,243.124 414.166,243.124 					"/>
					<polygon fill="#FFFFFF" points="202.203,277.392 185.594,277.392 198.215,243.124 214.811,243.124 					"/>
					<polygon fill="#FFFFFF" points="291.772,243.124 287.198,255.469 278.846,255.469 283.395,243.124 267.549,243.124 
						254.965,277.396 270.746,277.396 275.049,265.783 283.42,265.783 279.115,277.396 294.924,277.396 307.559,243.124 					"/>
					<polygon fill="#FFFFFF" points="367.824,266.007 376.24,243.124 360.092,243.124 347.463,277.396 379.893,277.396 
						384.078,266.007 					"/>
					<path fill="#FFFFFF" d="M455.09,243.124l-8.654,23.516c0.119-2.366,0.594-11.72,0.883-17.11
						c0.125-2.217-0.361-3.912-1.422-5.037c-1.289-1.355-2.994-1.369-3.014-1.369h-19.301l-12.602,34.271h14.016l8.938-24.27
						l-1.061,24.27h23.486l12.615-34.271H455.09z"/>
					<polygon fill="#FFFFFF" points="323.385,268.146 324.807,264.34 342.838,264.34 345.936,255.902 327.899,255.902 
						329.281,252.1 348.213,252.1 351.543,243.124 316.928,243.124 304.315,277.396 339.317,277.396 342.711,268.146 					"/>
				</g>
				<g>
					<g>
						<path fill="#1A171B" d="M119.207,258.726c0.947-1.434-0.119-4.432-2.211-6.909c-1.954-2.316-4.514-2.948-4.686-4.093
							c2.488-5.129-0.197-9.572-4.066-11.247c0.145-2.431-0.822-4.859-2.843-6.669c0.935-1.958,1.948-7.739-2.298-11.358
							c1.686-7.16-5.547-11.188-9.455-11.546c-1.889-1.336-4.62-2.224-7.937-2.58c2.421-3.622,1.803-8.558-1.146-11.21
							c0.171-3.948-2.514-7.666-6.561-9.062c-1.336-3.307-8.693-2.773-9.549,0.283c-4.251,1.527-6.804,6.298-6.357,10.497
							c-2.605,2.776-2.494,7.591-0.092,10.657c-2.257-0.053-5.409,0.559-7.652,1.457h-0.008c-0.039-0.013-0.092-0.036-0.092-0.036
							c-1.843-0.892-3.863-1.217-5.876-0.97c-0.534-0.336-1.843-0.918-2.692-1.136c-0.783-1.158-1.789-2.096-3.006-2.79
							c-0.48-1.997-2.199-3.603-3.745-4.376c0.158-1.484-0.435-3.35-0.921-4.208c-0.896-1.566-0.686-3.896-0.422-4.229
							c1.027-1.277,0.139-2.444-0.322-2.898c-2.336-2.294-4.646-1.079-5.324-0.02c-2.225-3.961-4.777-5.021-6.291-4.501
							c-1.986-1.556-5.159-0.592-5.107,1.309c-1.301,0.905-2.191,1.34-0.156,5.044c-0.408,7.739,0.447,10.042,5.541,14.208
							c-1.58,1.514-2.43,4.958-0.896,7.439c-0.407,3.712,1.573,7.271,4.054,9.161c0.703,5.333,5.883,8.489,9.271,9.196
							c2.271,3.317,5.613,4.968,8.838,5.287c0.186,1.487,0.751,2.929,1.686,4.301c-0.844,3.047-0.758,5.877,0.236,8.433
							c-2.383,2.589-3.225,6.383-2.093,10.384c-2.783,3.311-3.738,8.542-1.776,12.897c-0.013,0.02-0.895,1.28-1.165,2.373
							c-1.974,0.957-3.796,3.109-4.796,5.691c-0.817,2.129-0.508,4.959-0.027,7.2c-3.027,2.549-4.805,8.998,0.664,14.23
							c-1.19,3.697-3.737,6.952-6.785,10.821c-2.145,2.748-2.526,4.229-0.025,7.476c1.941,2.537,5.41,4.481,8.266,4.601
							c5.627,0.22,9.488-1.008,10.107-5.009c0.355-2.378-1.185-7.222-1.315-8.396c-0.14-1.175,0.31-3.03,1.44-5.979
							c5.047-1.164,7.732-4.912,8.035-8.571c3.843-2.139,6.488-6.492,5.283-11.332c0.686-0.875,0.909-1.398,1.324-2.688
							c0,2.126,1.434,3.551,2.111,4.794c-2.23,5.403,0.704,10.322,3.982,12.438c-5.646,7.992,0.447,11.865,2.072,13.55
							c1.914,1.981,2.191,5.348,5.363,6.485c2.75,0.986,11.615,0.046,13.332-3.701c0.441-0.958,0.849-2.03,0.369-2.745
							c0.066-2.679-1.658-4.636-4.68-6.359c-3.389-1.942-3.316-1.402-4.941-6.538c5.266-2.55,6.199-8.567,5.936-10.943
							c3.686-4.574,3.461-8.489,1.436-11.22c0.657-1.886,0.559-3.63,0.084-5.149c3.027-2.89,4.509-7.048,3.271-11.464
							c1.836-2.718,2.508-5.768,1.75-9.097c1.594,2.415,4.074,3.402,6.896,3.313c0.02,0.06,0.251,0.855,0.389,1.214
							c-0.822,1.54-0.447,3.379,1.711,4.962c0.19,0.717,0.586,1.28,1.139,1.668c-0.027,0.733,1.803,3.75,4.014,2.136
							c0.059-0.039,2.448-1.566,2.594-1.659C114.943,263.23,119.668,261.885,119.207,258.726z"/>
						<path fill="#FFFFFF" d="M97.728,243.568c5.869-0.506,11.199-6.999,6.027-11.967c-0.737,1.03-2.402,2.326-3.441,2.728
							c-0.381,2.504-1.876,4.662-2.955,5.86C97.562,241.081,97.728,243.42,97.728,243.568z"/>
						<path fill="#FFFFFF" d="M107.25,238.714c-1.428,3.784-5.258,5.857-9.614,6.397c-0.645,3.109,3.356,7.725,9.37,5.028
							C111.283,248.217,112.935,241.255,107.25,238.714z"/>
						<path fill="#FFFFFF" d="M105.532,255.048c-0.526,0.572-0.382,1.815,0.355,2.28c0.026-0.083,0.368-1.402,0.711-1.915
							C106.211,254.926,105.73,254.827,105.532,255.048z"/>
						<path fill="#FFFFFF" d="M109.355,257.831c-0.389-0.694-0.17-1.48-1.27-1.882c-1.139-0.408-1.225,3.241-0.336,3.105
							C108.125,258.611,108.644,258.213,109.355,257.831z"/>
						<path fill="#FFFFFF" d="M110.888,258.345c-1.527,0.461-2.75,1.628-2.158,2.605c0.277,0.448,0.461,0.434,1.409-0.151
							c0.604-0.368,1.526-1.118,1.704-1.247C111.534,258.878,110.888,258.345,110.888,258.345z"/>
						<path fill="#FFFFFF" d="M112.383,251.273c-0.526-0.303-1.414-1.062-1.863-1.747c-1.17,1.295-3.816,2.51-4.829,2.787
							c0.04,0.125,0.382,1.31,0.54,1.547c0.473,0.142,1,0.516,1.329,0.953c0.638-0.19,2.243,0.066,2.632,1.777
							c0.697,0.47,2.066,0.983,2.501,1.546c1.862,2.43,3.265,1.994,3.685,1.676c1.646-1.28-0.605-2.393-1.854-3.936
							c-0.553-0.685-2.481-3.383-2.396-3.942c0.025-0.253,0.459-0.082,0.75,0.405c0.171,0.296,2.744,3.244,4.02,4.326
							C115.771,252.807,112.383,251.273,112.383,251.273z"/>
						<path fill="#FFFFFF" d="M75.814,245.875c22.006-0.211,24.584-13.316,21.756-18.354c-6.739,7.035-29.258,10.963-40.354,2.221
							c-2.158,2.221-4.804,3.001-7.231,3.284C50.742,239.623,62.416,246.002,75.814,245.875z"/>
						<path fill="#FFFFFF" d="M60.929,218.426c0.4,4.205-1.436,8.292-2.316,9.727c1.986,1.569,6.237,4.563,15.786,4.718
							c14.325,0.22,29.562-6.768,21.012-18.413C91.575,219.144,73.478,223.343,60.929,218.426z"/>
						<path fill="#FFFFFF" d="M41.936,216.814c3.356-3.231,3.646-7.347,2.001-10.207c-0.368-0.628-0.789-1.224-1.447-1.767
							c-0.869,6.153-9.358,10.779-14.826,6.778C29.566,220.154,38.291,220.325,41.936,216.814z"/>
						<path fill="#FFFFFF" d="M48.918,222.612c5.029-5.63-0.058-14.428-2.453-14.898c1.75,8.597-6.89,15.323-14.491,12.023
							C33.803,224.951,42.805,229.442,48.918,222.612z"/>
						<path fill="#FFFFFF" d="M41.865,227.992c4.494,4.708,16.234,4.375,16.984-6.538c0.5-7.314-2.725-11.44-8.016-12.835
							C57.027,220.029,49.834,227.88,41.865,227.992z"/>
						<path fill="#FFFFFF" d="M51.267,239.541c-2.079,12.525,14.577,16.586,24.547,16.234c16.734-0.593,20.445-8.769,19.676-13.56
							C84.822,250.507,62.053,249.596,51.267,239.541z"/>
						<path fill="#FFFFFF" d="M59.823,265.925c8.845,2.027,16.136-2.276,16.018-8.231c-4.362,0.062-18.386-0.171-25.046-9.575
							C46.148,254.554,51.525,263.672,59.823,265.925z"/>
						<path fill="#FFFFFF" d="M72.016,266.238c-8.127,4.182-19.195,1.161-23.479-7.463c-5.89,9.575,4.132,18.058,11.404,17.691
							C68.983,276,71.616,270.262,72.016,266.238z"/>
						<path fill="#FFFFFF" d="M47.09,271.365c-2.889,5.075,0.625,10.584,4.357,12.052c7.862,3.07,13.154-2.159,12.798-5.93
							C57.849,279.038,51.386,277.023,47.09,271.365z"/>
						<path fill="#FFFFFF" d="M40.7,286.792c-3.593,3.175-1.067,11.135,4.487,13.063c7.916,2.757,11.286-2.534,11.886-5.481
							C54.96,294.884,45.754,296.759,40.7,286.792z"/>
						<path fill="#FFFFFF" d="M50.967,284.815c-4.141-2.14-6.641-5.314-6.963-9.832c-5.963,5.972-1.007,15.505,4.527,17.426
							c11.134,3.862,15.07-5.518,14.148-8.43C58.283,287.089,53,285.861,50.967,284.815z"/>
						<path fill="#FFFFFF" d="M90.858,312.398l0.302,0.22c-0.828,1.862-7.541,3.389-10.266,2.122
							c-3.23-1.496-2.725-3.319-4.771-5.254c-4.561-4.317-3.928-6.117-3.283-8.525c0.303-1.093,0.882-1.806,1.804-3.034
							c3.04,1.229,4.501,0.984,7.226,0.277c0.039,0.22,0.211,0.921,0.263,1.181c-2.072,0.214-3.771,0.646-3.771,0.646l0.52,1.569
							c0,0,1.744-0.452,3.692-0.6c0,0,0.413,1.172,0.579,1.511c-1.836,0.124-3.508,0.671-3.508,0.671l0.506,1.497
							c0,0,2.389-0.761,4.285-0.586c1.816,1.767,9.41,3.668,5.73,7.449c-1.467,1.511-5.061,2.033-7.691,1.951l-0.158,0.395
							C82.849,314.625,88.088,314.875,90.858,312.398z"/>
						<path fill="#FFFFFF" d="M87.185,288.444c-1.743,1.389-4.488,2.533-7.844,2.428c-3.791-0.118-6.541-1.661-8.896-4.303
							c-1.396,6.889,3.033,10.238,7.857,10.477C87.159,297.476,87.344,289.431,87.185,288.444z"/>
						<path fill="#FFFFFF" d="M79.217,289.244c9.364,0.045,12.299-7.842,10.489-11.26c-5.35,6.566-17.813,5.252-20.13-2.889
							C66.167,280.755,71.603,289.204,79.217,289.244z"/>
						<path fill="#FFFFFF" d="M80.467,280.591c4.672,0.035,9.838-3.327,8.607-8.986c-5.283,3.441-12.075,3.108-16.577-0.307
							c-0.382,0.776-1.078,1.823-1.571,2.445C71.51,277.975,76.038,280.554,80.467,280.591z"/>
						<path fill="#FFFFFF" d="M74.67,264.436c-0.172,0.156-0.355,0.312-0.546,0.456c0.019,1.479-0.429,3.609-0.876,4.985
							c6.456,5.563,20.084,2.197,19.189-9.087C87.771,265.359,80.236,266.452,74.67,264.436z"/>
						<path fill="#FFFFFF" d="M77.847,257.634c0.047,2.063-0.771,4.074-1.908,5.67c8.443,2.444,18.854-1.886,18.176-11.807
							C91.562,254.073,86.304,257.163,77.847,257.634z"/>
						<path fill="#FFFFFF" d="M35.857,210.777c6.186-2.793,5.751-9.384,2.025-10.905c-0.815,0.774-0.709,2.86-0.67,3.304
							c0.099,1.043-1.488,1.609-1.719,1.313c-0.545-0.691,0.771-1.392,0.218-2.961c-0.526-1.5,1.093-2.257,1.093-4.495
							c0-1.296-1.105-3.481-1.258-3.896c-0.507-1.343-0.473-3.955,0.257-5.229c-0.553-0.51-1.421-1.257-2.243,0.016
							c-1.112,1.705-0.718,3.831,0.072,5.479c-0.105,0.052-1.119,0.02-1.686,1.826c-0.013,0.03-0.46,0.603-0.46,0.603l-0.368,0.009
							c-0.27-1.296,0.171-2.108,0.514-2.872c-0.1-0.303-0.488-1.596-0.573-3.622c-1.046-2.652-3.034-5.278-4.396-5.437
							c1.164,1.691,3.283,5.712,3.508,6.262c0.467,1.129-0.541,1.326-0.541,1.326c-1.553-3.326-3.316-6.229-4.658-7.564
							c-0.902-0.901-1.902-1.194-2.238-0.619c0.408,0.135,0.909,0.619,1.291,1.086c1.42,1.756,4.342,7.751,4.342,7.751
							s-0.223,0.296-0.506,0.253c-0.468-0.076-1.072-0.944-1.784-2.573c-0.763-1.484-2.197-3.606-2.968-4.491
							c-0.645-0.733-1.197-0.49-1.598-0.171c0.414,0.741,0.854,1.6,1.064,2.281c1.055-0.28,2.423,0.875,2.574,1.911
							c0.15,1.04,0.52,3.876,1.178,4.85c-0.251,0.135-0.869,0.589-0.869,0.589c-0.725-0.889-1.224-4.104-1.342-5.262
							c-0.027-0.283-0.369-0.875-1.066-1.062c-0.342-0.092-0.408,0.128-0.422,0.372c-0.289,6.468,0.093,8.104,5.844,12.588
							c0.375,0.293,1.021,1.116,1.441,1.975c0.422,0.859,1.152,1.896,2.527,1.721l0.547,0.56c-1.244,0.997-3.081,0.384-3.516-0.178
							c-0.342-0.451-1.295-1.849-1.295-1.849C24.176,207.904,29.525,213.643,35.857,210.777z"/>
						<path fill="#FFFFFF" d="M42.483,300.174c-2.442,5.265-4.626,7.39-7.397,11.273c-1.638,2.309-1.033,3.428,0.092,4.912
							c2.246,2.73,6.293,4.094,9.287,3.235l-0.026-0.396c-3.58,0.353-6.739-0.987-8.384-3.425l0.275-0.261
							c4.191,3.301,9.713,2.389,11.832,1.307c0.586-0.296,0.987-1.103,0.908-1.826c-0.197-1.733-1.17-4.66-1.368-6.308
							c-0.158-1.347,0.328-3.688,1.335-6.459C47.346,302.267,43.504,301.812,42.483,300.174z"/>
						<path fill="#FFFFFF" d="M96.241,212.382c2.999,2.017,3.547,6.113,3.632,7.817c2.948-5.777-1.467-9.223-3.803-9.946
							C96.465,211.023,96.438,212.181,96.241,212.382z"/>
						<path fill="#FFFFFF" d="M100.795,231.374c5.606-3.353,1.947-10.25,1.039-10.822c-0.223,0.714-0.947,2.527-3.001,4.945
							C100.045,226.955,100.735,229.031,100.795,231.374z"/>
						<path fill="#FFFFFF" d="M60.48,216.176c4.068,1.836,8.568,2.54,13.018,2.55c11.938,0.026,20.209-3.412,20.854-6.982
							c0.534-2.975-4.929-4.797-10.877-5.133c-0.869,0.941-2.054,1.247-2.343,1.27c-0.435,0.033-0.711-0.293-0.237-0.546
							c0.895-0.467,1.783-1.24,0.816-2.892c0.631-0.106,2.816-0.898,2.994-4.646c0.138-2.981-1.454-4.823-2.783-5.683
							c0,0-0.514-0.563,0.138-0.648c0.335-3.603-2.112-6.663-6.653-7.591l0.027-0.382c0.184-0.016,0.282-0.203,0.249-0.381
							c-0.158-0.892-3.448-1.264-4.751-0.059c-0.276,0.26,0.645,0.53,0.902,0.54c0.335,0.013,0.572,0.457,0.098,0.447
							c-2.605-0.046-7.437,2.248-7.251,8.522c0.157,0,1.513-0.398,2.052-0.244c0.369,0.102,0.238,0.549-0.064,0.569
							c-4.292,0.332-6.068,7.854-0.133,10.525c0,0,0.303,0.171-0.078,0.415c-0.704,0.447-1.244,1.349-0.179,1.96
							c0.39,0.217,0.679,0.497,0.507,0.856c-0.184,0.352-0.775,0.329-1.369,0.04c-2.947-1.474-6.402-0.694-9.08,0.171
							C58.322,210.559,59.771,213.317,60.48,216.176z"/>
						<path fill="#1A171B" d="M30.342,196.786c-0.124,0.128-1.014-0.461-1.539-0.833c-0.83-0.388-1.738-0.24-1.765-0.503
							c-0.026-0.165,0.751-0.362,1.448-0.362c0.506,0.026,0.994,0.411,1.5,0.372C30.15,195.806,30.513,196.605,30.342,196.786z"/>
						<path fill="#1A171B" d="M45.715,308.699c-1.541-0.457-3.501-0.694-4.766-0.73l0.047-1.576c1.369,0.04,3.5,0.3,5.18,0.8
							L45.715,308.699z"/>
						<path fill="#1A171B" d="M46.596,305.557c-2.126-0.632-2.541-0.704-4.87-0.803l0.066-1.572
							c2.475,0.105,3.013,0.198,5.277,0.872L46.596,305.557z"/>
					</g>
					<g>
						<path fill="#1A171B" d="M79.314,199.918c-0.137,0.03-0.381,0.145-0.525,0.303c-4.146-0.747-5.436,0.378-7.66,0.319
							c0.025-0.28-0.065-0.668-0.434-0.622c-0.133,0.01-0.304,0.313-0.369,0.408c-0.579,0.865-0.803,1.339-0.579,1.54
							c0.236,0.214,0.532-0.135,0.843-0.48c0.367-0.046,1.211-0.017,2.008,0.523c0.69,0.463,2.111,2.257,3.599,1.625
							c1.039-0.477,2.026-2.254,2.776-2.254c0.369-0.003,0.816,0.053,0.901,0.006C80.039,201.195,79.704,199.823,79.314,199.918z
							 M76.103,202.708c-1.257,0.646-2.025-0.993-3.251-1.54c1.132-0.29,3.409-0.513,5.159-0.197
							C77.603,201.297,76.459,202.524,76.103,202.708z"/>
						<g>
							<path fill="#1A171B" d="M77.894,189.488c-1.461,0.161-2.475,2.066-2.303,4.33c0.091,1.395,0.637,2.635,1.44,3.326
								c0.447,0.382,0.967,0.562,1.474,0.52c1.468-0.125,2.486-2.04,2.322-4.349c-0.105-1.422-0.645-2.668-1.453-3.346
								C78.92,189.597,78.406,189.429,77.894,189.488z"/>
							<path fill="#FFFFFF" d="M79.552,195.904c0,0.016,0,0.036,0.007,0.036c0,0,0.014,0,0.021-0.009
								c0.354-0.648,0.552-1.573,0.48-2.56c-0.086-1.171-0.521-2.221-1.158-2.747c-0.298-0.24-0.599-0.352-0.915-0.313
								c-1.014,0.109-1.764,1.691-1.632,3.448c0.013,0.158,0.026,0.316,0.052,0.474c0.014,0.023,0.02,0.033,0.039,0.033
								c0.008,0,0.021-0.023,0.027-0.06c0.111-1.191,0.736-2.132,1.526-2.175c0.902-0.056,1.671,1.079,1.731,2.537
								C79.749,195.052,79.677,195.51,79.552,195.904z"/>
						</g>
						<g>
							<path fill="#1A171B" d="M71.351,189.64c-1.539,0.138-2.697,2.056-2.611,4.359c0.052,1.396,0.553,2.656,1.35,3.376
								c0.473,0.43,1.025,0.641,1.586,0.599c1.559-0.099,2.717-2.027,2.639-4.38c-0.061-1.418-0.566-2.688-1.369-3.393
								C72.47,189.781,71.926,189.583,71.351,189.64z"/>
							<path fill="#FFFFFF" d="M73.175,195.598c0.007,0.023,0.007,0.026,0.007,0.026c0.014,0.003,0.026-0.003,0.033-0.023
								c0.217-0.569,0.343-1.26,0.315-1.98c-0.039-1.165-0.452-2.231-1.085-2.784c-0.217-0.19-0.566-0.417-1.021-0.375
								c-1.106,0.099-1.981,1.704-1.915,3.504c0.033,0.819,0.264,1.49,0.541,1.987c0.013,0.029,0.039,0.046,0.052,0.037
								c0.006-0.004,0.013-0.017,0.013-0.037c-0.092-0.299-0.15-0.628-0.171-0.974c-0.06-1.428,0.618-2.612,1.514-2.642
								c0.896-0.036,1.685,1.102,1.75,2.55C73.215,195.138,73.208,195.378,73.175,195.598z"/>
						</g>
					</g>
				</g>
			</g>
		</g>
	</g>
</g>
</svg>
