<?xml version="1.0" encoding="utf-8"?>
<!-- Generator: Adobe Illustrator 21.0.2, SVG Export Plug-In . SVG Version: 6.00 Build 0)  -->
<svg version="1.1" id="Calque_1" xmlns="http://www.w3.org/2000/svg" xmlns:xlink="http://www.w3.org/1999/xlink" x="0px" y="0px"
	 viewBox="0 0 500 158" style="enable-background:new 0 0 500 158;" xml:space="preserve">
<style type="text/css">
	.st0{fill:#00519C;}
	.st1{fill:#FFE400;}
	.st2{fill:#FFFFFF;}
	.st3{fill:#1A171B;}
</style>
<rect x="27.9" y="54.3" class="st0" width="455.8" height="76.8"/>
<polygon class="st1" points="399,116 27.9,116 27.9,120.8 397.2,120.8 "/>
<path class="st2" d="M165.2,72.1l-12.1,18.4c0,0,0.8-9.6,1-11.9c0.1-1.8-0.1-6.5-4.4-6.5c-4.2,0-19.2,0-19.2,0l-12.6,34.3h15
	l9.1-24.8l-1.9,24.8h13.4L169.9,82l-8.9,24.4h15.1l12.6-34.3H165.2L165.2,72.1z"/>
<path class="st2" d="M247.2,105.7c-0.7,0.1-6.5,1.2-12.5,1.4c-10.8,0.3-20.2-4-20.3-11.8c-0.1-13.5,13.5-20.9,23.5-22.9
	c4.5-0.9,13.2-1.9,21.8,0.2l-5,12c-1.4-3.3-5.2-3.3-6.7-3.4c-3.7-0.1-6.7,0.9-8.9,1.9c-5.1,2.3-9.5,9.8-2.3,12.7
	c4,1.6,9.1,0.3,14.4-0.5L247.2,105.7z"/>
<polygon class="st2" points="401.5,106.4 384.9,106.4 397.5,72.1 414.2,72.1 "/>
<polygon class="st2" points="202.2,106.4 185.6,106.4 198.2,72.1 214.8,72.1 "/>
<polygon class="st2" points="291.8,72.1 287.2,84.5 278.8,84.5 283.4,72.1 267.5,72.1 255,106.4 270.7,106.4 275,94.8 283.4,94.8 
	279.1,106.4 294.9,106.4 307.6,72.1 "/>
<polygon class="st2" points="367.8,95 376.2,72.1 360.1,72.1 347.5,106.4 379.9,106.4 384.1,95 "/>
<path class="st2" d="M455.1,72.1l-8.7,23.5c0.1-2.4,0.6-11.7,0.9-17.1c0.1-2.2-0.4-3.9-1.4-5c-1.3-1.4-3-1.4-3-1.4h-19.3L411,106.4
	h14l8.9-24.3l-1.1,24.3h23.5L469,72.1H455.1z"/>
<polygon class="st2" points="323.4,97.1 324.8,93.3 342.8,93.3 345.9,84.9 327.9,84.9 329.3,81.1 348.2,81.1 351.5,72.1 316.9,72.1 
	304.3,106.4 339.3,106.4 342.7,97.1 "/>
<path class="st3" d="M119.2,87.7c0.9-1.4-0.1-4.4-2.2-6.9c-2-2.3-4.5-2.9-4.7-4.1c2.5-5.1-0.2-9.6-4.1-11.2c0.1-2.4-0.8-4.9-2.8-6.7
	c0.9-2,1.9-7.7-2.3-11.4c1.7-7.2-5.5-11.2-9.5-11.5c-1.9-1.3-4.6-2.2-7.9-2.6c2.4-3.6,1.8-8.6-1.1-11.2c0.2-3.9-2.5-7.7-6.6-9.1
	c-1.3-3.3-8.7-2.8-9.5,0.3c-4.3,1.5-6.8,6.3-6.4,10.5c-2.6,2.8-2.5,7.6-0.1,10.7c-2.3-0.1-5.4,0.6-7.7,1.5l0,0h-0.1
	c-1.8-0.9-3.9-1.2-5.9-1c-0.5-0.3-1.8-0.9-2.7-1.1c-0.8-1.2-1.8-2.1-3-2.8c-0.5-2-2.2-3.6-3.7-4.4c0.2-1.5-0.4-3.4-0.9-4.2
	c-0.9-1.6-0.7-3.9-0.4-4.2c1-1.3,0.1-2.4-0.3-2.9c-2.3-2.3-4.6-1.1-5.3,0c-2.2-4-4.8-5-6.3-4.5c-2-1.6-5.2-0.6-5.1,1.3
	c-1.3,0.9-2.2,1.3-0.2,5c-0.4,7.7,0.4,10,5.5,14.2c-1.6,1.5-2.4,5-0.9,7.4c-0.4,3.7,1.6,7.3,4.1,9.2c0.7,5.3,5.9,8.5,9.3,9.2
	c2.3,3.3,5.6,5,8.8,5.3c0.2,1.5,0.8,2.9,1.7,4.3c-0.8,3-0.8,5.9,0.2,8.4c-2.4,2.6-3.2,6.4-2.1,10.4c-2.8,3.3-3.7,8.5-1.8,12.9
	c0,0-0.9,1.3-1.2,2.4c-2,1-3.8,3.1-4.8,5.7c-0.8,2.1-0.5,5,0,7.2c-3,2.5-4.8,9,0.7,14.2c-1.2,3.7-3.7,7-6.8,10.8
	c-2.1,2.7-2.5,4.2,0,7.5c1.9,2.5,5.4,4.5,8.3,4.6c5.6,0.2,9.5-1,10.1-5c0.4-2.4-1.2-7.2-1.3-8.4c-0.1-1.2,0.3-3,1.4-6
	c5-1.2,7.7-4.9,8-8.6c3.8-2.1,6.5-6.5,5.3-11.3c0.7-0.9,0.9-1.4,1.3-2.7c0,2.1,1.4,3.6,2.1,4.8c-2.2,5.4,0.7,10.3,4,12.4
	c-5.6,8,0.4,11.9,2.1,13.5c1.9,2,2.2,5.3,5.4,6.5c2.8,1,11.6,0,13.3-3.7c0.4-1,0.8-2,0.4-2.7c0.1-2.7-1.7-4.6-4.7-6.4
	c-3.4-1.9-3.3-1.4-4.9-6.5c5.3-2.5,6.2-8.6,5.9-10.9c3.7-4.6,3.5-8.5,1.4-11.2c0.7-1.9,0.6-3.6,0.1-5.1c3-2.9,4.5-7,3.3-11.5
	c1.8-2.7,2.5-5.8,1.8-9.1c1.6,2.4,4.1,3.4,6.9,3.3c0,0.1,0.3,0.9,0.4,1.2c-0.8,1.5-0.4,3.4,1.7,5c0.2,0.7,0.6,1.3,1.1,1.7
	c0,0.7,1.8,3.8,4,2.1c0.1,0,2.4-1.6,2.6-1.7C114.9,92.2,119.7,90.9,119.2,87.7z"/>
<path class="st2" d="M97.7,72.6c5.9-0.5,11.2-7,6-12c-0.7,1-2.4,2.3-3.4,2.7c-0.4,2.5-1.9,4.7-3,5.9C97.6,70.1,97.7,72.4,97.7,72.6z
	"/>
<path class="st2" d="M107.2,67.7c-1.4,3.8-5.3,5.9-9.6,6.4c-0.6,3.1,3.4,7.7,9.4,5C111.3,77.2,112.9,70.2,107.2,67.7z"/>
<path class="st2" d="M105.5,84c-0.5,0.6-0.4,1.8,0.4,2.3c0-0.1,0.4-1.4,0.7-1.9C106.2,83.9,105.7,83.8,105.5,84z"/>
<path class="st2" d="M109.4,86.8c-0.4-0.7-0.2-1.5-1.3-1.9s-1.2,3.2-0.3,3.1C108.1,87.6,108.6,87.2,109.4,86.8z"/>
<path class="st2" d="M110.9,87.3c-1.5,0.5-2.8,1.6-2.2,2.6c0.3,0.4,0.5,0.4,1.4-0.2c0.6-0.4,1.5-1.1,1.7-1.2
	C111.5,87.9,110.9,87.3,110.9,87.3z"/>
<path class="st2" d="M112.4,80.3c-0.5-0.3-1.4-1.1-1.9-1.7c-1.2,1.3-3.8,2.5-4.8,2.8c0,0.1,0.4,1.3,0.5,1.5c0.5,0.1,1,0.5,1.3,1
	c0.6-0.2,2.2,0.1,2.6,1.8c0.7,0.5,2.1,1,2.5,1.5c1.9,2.4,3.3,2,3.7,1.7c1.6-1.3-0.6-2.4-1.9-3.9c-0.6-0.7-2.5-3.4-2.4-3.9
	c0-0.3,0.5-0.1,0.8,0.4c0.2,0.3,2.7,3.2,4,4.3C115.8,81.8,112.4,80.3,112.4,80.3z"/>
<path class="st2" d="M75.8,74.9c22-0.2,24.6-13.3,21.8-18.4c-6.7,7-29.3,11-40.4,2.2c-2.2,2.2-4.8,3-7.2,3.3
	C50.7,68.6,62.4,75,75.8,74.9z"/>
<path class="st2" d="M60.9,47.4c0.4,4.2-1.4,8.3-2.3,9.7c2,1.6,6.2,4.6,15.8,4.7C88.7,62,104,55,95.4,43.4
	C91.6,48.1,73.5,52.3,60.9,47.4z"/>
<path class="st2" d="M41.9,45.8c3.4-3.2,3.6-7.3,2-10.2c-0.4-0.6-0.8-1.2-1.4-1.8c-0.9,6.2-9.4,10.8-14.8,6.8
	C29.6,49.1,38.3,49.3,41.9,45.8z"/>
<path class="st2" d="M48.9,51.6c5-5.6-0.1-14.4-2.5-14.9c1.8,8.6-6.9,15.3-14.5,12C33.8,53.9,42.8,58.4,48.9,51.6z"/>
<path class="st2" d="M41.9,57c4.5,4.7,16.2,4.4,17-6.5c0.5-7.3-2.7-11.4-8-12.8C57,49,49.8,56.9,41.9,57z"/>
<path class="st2" d="M51.3,68.5C49.2,81,65.9,85.1,75.8,84.7c16.7-0.6,20.4-8.8,19.7-13.6C84.8,79.5,62.1,78.6,51.3,68.5z"/>
<path class="st2" d="M59.8,94.9c8.8,2,16.1-2.3,16-8.2c-4.4,0.1-18.4-0.2-25-9.6C46.1,83.5,51.5,92.7,59.8,94.9z"/>
<path class="st2" d="M72,95.2c-8.1,4.2-19.2,1.2-23.5-7.5c-5.9,9.6,4.1,18.1,11.4,17.7C69,105,71.6,99.3,72,95.2z"/>
<path class="st2" d="M47.1,100.4c-2.9,5.1,0.6,10.6,4.4,12.1c7.9,3.1,13.2-2.2,12.8-5.9C57.8,108,51.4,106,47.1,100.4z"/>
<path class="st2" d="M40.7,115.8c-3.6,3.2-1.1,11.1,4.5,13.1c7.9,2.8,11.3-2.5,11.9-5.5C55,123.9,45.8,125.7,40.7,115.8z"/>
<path class="st2" d="M51,113.8c-4.1-2.1-6.6-5.3-7-9.8c-6,6-1,15.5,4.5,17.4c11.1,3.9,15.1-5.5,14.1-8.4
	C58.3,116.1,53,114.9,51,113.8z"/>
<path class="st2" d="M90.9,141.4l0.3,0.2c-0.8,1.9-7.5,3.4-10.3,2.1c-3.2-1.5-2.7-3.3-4.8-5.3c-4.6-4.3-3.9-6.1-3.3-8.5
	c0.3-1.1,0.9-1.8,1.8-3c3,1.2,4.5,1,7.2,0.3c0,0.2,0.2,0.9,0.3,1.2c-2.1,0.2-3.8,0.6-3.8,0.6l0.5,1.6c0,0,1.7-0.5,3.7-0.6
	c0,0,0.4,1.2,0.6,1.5c-1.8,0.1-3.5,0.7-3.5,0.7l0.5,1.5c0,0,2.4-0.8,4.3-0.6c1.8,1.8,9.4,3.7,5.7,7.4c-1.5,1.5-5.1,2-7.7,2l-0.2,0.4
	C82.8,143.6,88.1,143.9,90.9,141.4z"/>
<path class="st2" d="M87.2,117.4c-1.7,1.4-4.5,2.5-7.8,2.4c-3.8-0.1-6.5-1.7-8.9-4.3c-1.4,6.9,3,10.2,7.9,10.5
	C87.2,126.5,87.3,118.4,87.2,117.4z"/>
<path class="st2" d="M79.2,118.2c9.4,0,12.3-7.8,10.5-11.3c-5.3,6.6-17.8,5.3-20.1-2.9C66.2,109.7,71.6,118.2,79.2,118.2z"/>
<path class="st2" d="M80.5,109.6c4.7,0,9.8-3.3,8.6-9c-5.3,3.4-12.1,3.1-16.6-0.3c-0.4,0.8-1.1,1.8-1.6,2.4
	C71.5,107,76,109.5,80.5,109.6z"/>
<path class="st2" d="M74.7,93.4c-0.2,0.2-0.4,0.3-0.5,0.5c0,1.5-0.4,3.6-0.9,5c6.5,5.6,20.1,2.2,19.2-9.1
	C87.8,94.3,80.2,95.4,74.7,93.4z"/>
<path class="st2" d="M77.8,86.6c0,2.1-0.8,4.1-1.9,5.7c8.4,2.4,18.9-1.9,18.2-11.8C91.6,83.1,86.3,86.2,77.8,86.6z"/>
<path class="st2" d="M35.9,39.8c6.2-2.8,5.8-9.4,2-10.9c-0.8,0.8-0.7,2.9-0.7,3.3c0.1,1-1.5,1.6-1.7,1.3c-0.5-0.7,0.8-1.4,0.2-3
	c-0.5-1.5,1.1-2.3,1.1-4.5c0-1.3-1.1-3.5-1.3-3.9c-0.5-1.3-0.5-4,0.3-5.2c-0.6-0.5-1.4-1.3-2.2,0c-1.1,1.7-0.7,3.8,0.1,5.5
	c-0.1,0.1-1.1,0-1.7,1.8l-0.5,0.6h-0.4c-0.3-1.3,0.2-2.1,0.5-2.9c-0.1-0.3-0.5-1.6-0.6-3.6c-1-2.7-3-5.3-4.4-5.4
	c1.2,1.7,3.3,5.7,3.5,6.3c0.5,1.1-0.5,1.3-0.5,1.3c-1.6-3.3-3.3-6.2-4.7-7.6C24,12,23,11.7,22.7,12.3c0.4,0.1,0.9,0.6,1.3,1.1
	c1.4,1.8,4.3,7.8,4.3,7.8s-0.2,0.3-0.5,0.3c-0.5-0.1-1.1-0.9-1.8-2.6c-0.8-1.5-2.2-3.6-3-4.5c-0.6-0.7-1.2-0.5-1.6-0.2
	c0.4,0.7,0.9,1.6,1.1,2.3c1.1-0.3,2.4,0.9,2.6,1.9c0.1,1,0.5,3.9,1.2,4.9c-0.3,0.1-0.9,0.6-0.9,0.6c-0.7-0.9-1.2-4.1-1.3-5.3
	c0-0.3-0.4-0.9-1.1-1.1c-0.3-0.1-0.4,0.1-0.4,0.4c-0.3,6.5,0.1,8.1,5.8,12.6c0.4,0.3,1,1.1,1.4,2s1.2,1.9,2.5,1.7l0.5,0.6
	c-1.2,1-3.1,0.4-3.5-0.2C29,34.1,28,32.8,28,32.8C24.2,36.9,29.5,42.6,35.9,39.8z"/>
<path class="st2" d="M42.5,129.2c-2.4,5.3-4.6,7.4-7.4,11.3c-1.6,2.3-1,3.4,0.1,4.9c2.2,2.7,6.3,4.1,9.3,3.2v-0.4
	c-3.6,0.4-6.7-1-8.4-3.4l0.3-0.3c4.2,3.3,9.7,2.4,11.8,1.3c0.6-0.3,1-1.1,0.9-1.8c-0.2-1.7-1.2-4.7-1.4-6.3
	c-0.2-1.3,0.3-3.7,1.3-6.5C47.3,131.3,43.5,130.8,42.5,129.2z"/>
<path class="st2" d="M96.2,41.4c3,2,3.5,6.1,3.6,7.8c2.9-5.8-1.5-9.2-3.8-9.9C96.5,40,96.4,41.2,96.2,41.4z"/>
<path class="st2" d="M100.8,60.4c5.6-3.4,1.9-10.2,1-10.8c-0.2,0.7-0.9,2.5-3,4.9C100,55.9,100.7,58,100.8,60.4z"/>
<path class="st2" d="M60.5,45.2c4.1,1.8,8.6,2.5,13,2.5c11.9,0,20.2-3.4,20.9-7c0.5-3-4.9-4.8-10.9-5.1c-0.9,0.9-2.1,1.2-2.3,1.3
	c-0.4,0-0.7-0.3-0.2-0.5c0.9-0.5,1.8-1.2,0.8-2.9c0.6-0.1,2.8-0.9,3-4.6c0.1-3-1.5-4.8-2.8-5.7c0,0-0.5-0.6,0.1-0.6
	c0.3-3.6-2.1-6.7-6.7-7.6v-0.4c0.2,0,0.3-0.2,0.2-0.4c-0.2-0.9-3.4-1.3-4.8-0.1c-0.3,0.3,0.6,0.5,0.9,0.5s0.6,0.5,0.1,0.4
	c-2.6,0-7.4,2.2-7.3,8.5c0.2,0,1.5-0.4,2.1-0.2c0.4,0.1,0.2,0.5-0.1,0.6c-4.3,0.3-6.1,7.9-0.1,10.5c0,0,0.3,0.2-0.1,0.4
	c-0.7,0.4-1.2,1.3-0.2,2c0.4,0.2,0.7,0.5,0.5,0.9s-0.8,0.3-1.4,0c-2.9-1.5-6.4-0.7-9.1,0.2C58.3,39.5,59.8,42.3,60.5,45.2z"/>
<path class="st3" d="M30.3,25.8c-0.1,0.1-1-0.5-1.5-0.8c-0.8-0.4-1.7-0.2-1.8-0.5c0-0.2,0.8-0.4,1.4-0.4c0.5,0,1,0.4,1.5,0.4
	C30.1,24.8,30.5,25.6,30.3,25.8z"/>
<path class="st3" d="M45.7,137.7c-1.5-0.5-3.5-0.7-4.8-0.7v-1.6c1.4,0,3.5,0.3,5.2,0.8L45.7,137.7z"/>
<path class="st3" d="M46.6,134.5c-2.1-0.6-2.5-0.7-4.9-0.8l0.1-1.6c2.5,0.1,3,0.2,5.3,0.9L46.6,134.5z"/>
<path class="st3" d="M79.3,28.9c-0.1,0-0.4,0.1-0.5,0.3c-4.1-0.7-5.4,0.4-7.7,0.3c0-0.3-0.1-0.7-0.4-0.6c-0.1,0-0.3,0.3-0.4,0.4
	c-0.6,0.9-0.8,1.3-0.6,1.5c0.2,0.2,0.5-0.1,0.8-0.5c0.4,0,1.2,0,2,0.5c0.7,0.5,2.1,2.3,3.6,1.6c1-0.5,2-2.3,2.8-2.3
	c0.4,0,0.8,0.1,0.9,0C80,30.2,79.7,28.8,79.3,28.9z M76.1,31.7c-1.3,0.6-2-1-3.3-1.5c1.1-0.3,3.4-0.5,5.2-0.2
	C77.6,30.3,76.5,31.5,76.1,31.7z"/>
<path class="st3" d="M77.9,18.5c-1.5,0.2-2.5,2.1-2.3,4.3c0.1,1.4,0.6,2.6,1.4,3.3c0.4,0.4,1,0.6,1.5,0.5c1.5-0.1,2.5-2,2.3-4.3
	c-0.1-1.4-0.6-2.7-1.5-3.3C78.9,18.6,78.4,18.4,77.9,18.5z"/>
<path class="st2" d="M79.6,24.9L79.6,24.9L79.6,24.9c0.4-0.6,0.6-1.5,0.5-2.5c-0.1-1.2-0.5-2.2-1.2-2.7c-0.3-0.2-0.6-0.4-0.9-0.3
	c-1,0.1-1.8,1.7-1.6,3.4c0,0.2,0,0.3,0.1,0.5l0,0c0,0,0,0,0-0.1c0.1-1.2,0.7-2.1,1.5-2.2c0.9-0.1,1.7,1.1,1.7,2.5
	C79.7,24,79.7,24.5,79.6,24.9z"/>
<path class="st3" d="M71.4,18.6c-1.5,0.1-2.7,2.1-2.6,4.4c0.1,1.4,0.6,2.7,1.4,3.4c0.5,0.4,1,0.6,1.6,0.6c1.6-0.1,2.7-2,2.6-4.4
	c-0.1-1.4-0.6-2.7-1.4-3.4C72.5,18.8,71.9,18.6,71.4,18.6z"/>
<path class="st2" d="M73.2,24.6L73.2,24.6L73.2,24.6c0.3-0.6,0.4-1.3,0.4-2c0-1.2-0.5-2.2-1.1-2.8c-0.2-0.2-0.6-0.4-1-0.4
	c-1.1,0.1-2,1.7-1.9,3.5c0,0.8,0.3,1.5,0.5,2c0,0,0,0,0.1,0l0,0c-0.1-0.3-0.1-0.6-0.2-1c-0.1-1.4,0.6-2.6,1.5-2.6s1.7,1.1,1.8,2.6
	C73.2,24.1,73.2,24.4,73.2,24.6z"/>
</svg>
