<?xml version="1.0" encoding="utf-8"?>
<!-- Generator: Adobe Illustrator 21.1.0, SVG Export Plug-In . SVG Version: 6.00 Build 0)  -->
<svg version="1.1" id="Calque_1" xmlns="http://www.w3.org/2000/svg" xmlns:xlink="http://www.w3.org/1999/xlink" x="0px" y="0px"
	 viewBox="0 0 500 124" style="enable-background:new 0 0 500 124;" xml:space="preserve">
<style type="text/css">
	.st0{fill:#1A171C;}
</style>
<g>
	<path class="st0" d="M174.2,97.3c0-0.2,0.2-0.4,0.4-0.4h5.2c2.9,0,5.2,2.3,5.2,5.2c0,2.9-2.4,5.3-5.2,5.3h-3.9v5.5
		c0,0.2-0.2,0.4-0.4,0.4h-0.9c-0.3,0-0.4-0.2-0.4-0.4V97.3z M179.7,105.6c1.9,0,3.6-1.6,3.6-3.6c0-1.9-1.6-3.4-3.6-3.4h-3.7v6.9
		H179.7z"/>
	<path class="st0" d="M189.1,97.3c0-0.2,0.2-0.4,0.4-0.4h0.9c0.3,0,0.4,0.2,0.4,0.4v9.8c0,2.7,1.7,4.8,4.4,4.8c2.8,0,4.4-2,4.4-4.7
		v-9.8c0-0.2,0.2-0.4,0.5-0.4h0.9c0.2,0,0.4,0.2,0.4,0.4v9.9c0,3.6-2.5,6.3-6.2,6.3c-3.7,0-6.2-2.7-6.2-6.3V97.3z"/>
	<path class="st0" d="M209.6,98.4h-4.1c-0.3,0-0.4-0.2-0.4-0.4v-0.7c0-0.2,0.2-0.4,0.4-0.4h9.9c0.3,0,0.4,0.2,0.4,0.4V98
		c0,0.2-0.2,0.4-0.4,0.4h-4.1v14.4c0,0.2-0.2,0.4-0.4,0.4H210c-0.2,0-0.4-0.2-0.4-0.4V98.4z"/>
	<path class="st0" d="M229.3,105.4l-5.6-7.8c-0.2-0.3,0-0.7,0.4-0.7h1.1c0.2,0,0.3,0.1,0.4,0.2l4.7,6.5l4.7-6.5
		c0.1-0.1,0.2-0.2,0.4-0.2h1.1c0.4,0,0.6,0.4,0.4,0.7l-5.7,7.8v7.5c0,0.2-0.2,0.4-0.4,0.4h-0.9c-0.3,0-0.4-0.2-0.4-0.4V105.4z"/>
	<path class="st0" d="M247.4,96.6c4.7,0,8.4,3.8,8.4,8.5c0,4.7-3.7,8.4-8.4,8.4c-4.7,0-8.4-3.7-8.4-8.4
		C239,100.4,242.7,96.6,247.4,96.6 M247.4,111.9c3.7,0,6.8-3,6.8-6.8c0-3.7-3.1-6.8-6.8-6.8c-3.7,0-6.8,3.1-6.8,6.8
		C240.6,108.8,243.6,111.9,247.4,111.9"/>
	<path class="st0" d="M260.4,97.3c0-0.2,0.2-0.4,0.4-0.4h0.9c0.3,0,0.4,0.2,0.4,0.4v9.8c0,2.7,1.7,4.8,4.4,4.8c2.8,0,4.4-2,4.4-4.7
		v-9.8c0-0.2,0.2-0.4,0.5-0.4h0.9c0.2,0,0.4,0.2,0.4,0.4v9.9c0,3.6-2.5,6.3-6.2,6.3c-3.7,0-6.2-2.7-6.2-6.3V97.3z"/>
	<path class="st0" d="M278.5,97.3c0-0.2,0.2-0.4,0.4-0.4h6.1c2.8,0,5.1,2.2,5.1,5c0,2.2-1.4,4-3.5,4.8l3.2,5.9
		c0.2,0.3,0,0.7-0.4,0.7h-1.2c-0.2,0-0.3-0.1-0.4-0.2l-3.1-6.2h-4.5v6c0,0.2-0.2,0.4-0.4,0.4H279c-0.3,0-0.4-0.2-0.4-0.4V97.3z
		 M284.9,105.3c1.8,0,3.4-1.5,3.4-3.4c0-1.8-1.6-3.3-3.4-3.3h-4.5v6.7H284.9z"/>
	<path class="st0" d="M294.1,110.8c0.1-0.1,0.2-0.3,0.4-0.4c0.2-0.3,0.5-0.5,0.8-0.2c0.2,0.1,1.9,1.8,4,1.8c1.9,0,3.1-1.2,3.1-2.6
		c0-1.6-1.4-2.6-4.1-3.7c-2.6-1.1-4.1-2.2-4.1-4.9c0-1.6,1.3-4.2,5-4.2c2.3,0,4,1.2,4,1.2c0.1,0.1,0.4,0.4,0.1,0.8
		c-0.1,0.1-0.2,0.3-0.3,0.4c-0.2,0.3-0.4,0.4-0.8,0.2c-0.2-0.1-1.6-1.1-3.1-1.1c-2.5,0-3.2,1.6-3.2,2.6c0,1.6,1.2,2.5,3.2,3.3
		c3.2,1.3,5.2,2.5,5.2,5.2c0,2.4-2.3,4.2-5.1,4.2c-2.8,0-4.6-1.6-4.9-1.9C294.1,111.4,293.9,111.3,294.1,110.8"/>
	<path class="st0" d="M308.9,97.3c0-0.2,0.2-0.4,0.4-0.4h9.2c0.3,0,0.4,0.2,0.4,0.4V98c0,0.2-0.2,0.4-0.4,0.4h-7.9v5.7h6.7
		c0.2,0,0.4,0.2,0.4,0.4v0.7c0,0.3-0.2,0.4-0.4,0.4h-6.7v6h7.9c0.3,0,0.4,0.2,0.4,0.4v0.7c0,0.2-0.2,0.4-0.4,0.4h-9.2
		c-0.3,0-0.4-0.2-0.4-0.4V97.3z"/>
	<path class="st0" d="M323.9,97.3c0-0.2,0.2-0.4,0.4-0.4h0.9c0.2,0,0.4,0.2,0.4,0.4v14.4h6.7c0.3,0,0.5,0.2,0.5,0.4v0.7
		c0,0.2-0.2,0.4-0.5,0.4h-8.1c-0.3,0-0.4-0.2-0.4-0.4V97.3z"/>
	<path class="st0" d="M336.6,97.3c0-0.2,0.2-0.4,0.4-0.4h9.2c0.3,0,0.4,0.2,0.4,0.4V98c0,0.2-0.2,0.4-0.4,0.4h-7.9v6.4h6.7
		c0.2,0,0.4,0.2,0.4,0.4v0.7c0,0.2-0.2,0.4-0.4,0.4h-6.7v6.4c0,0.2-0.2,0.4-0.4,0.4H337c-0.3,0-0.4-0.2-0.4-0.4V97.3z"/>
	<path class="st0" d="M357.5,97.3c0-0.2,0.2-0.4,0.4-0.4h0.9c0.2,0,0.4,0.2,0.4,0.4v15.5c0,0.2-0.2,0.4-0.4,0.4h-0.9
		c-0.2,0-0.4-0.2-0.4-0.4V97.3z"/>
	<path class="st0" d="M365.3,97.1c0-0.2,0.2-0.4,0.4-0.4h0.6l10.6,13.2h0V97.3c0-0.2,0.2-0.4,0.4-0.4h0.8c0.2,0,0.4,0.2,0.4,0.4
		v15.8c0,0.2-0.2,0.4-0.4,0.4h-0.4L367,100.1h0v12.7c0,0.2-0.2,0.4-0.4,0.4h-0.8c-0.2,0-0.4-0.2-0.4-0.4V97.1z"/>
	<path class="st0" d="M388.7,112.7l7.1-15.8c0.1-0.1,0.2-0.3,0.4-0.3h0.2c0.2,0,0.3,0.1,0.4,0.3l7.1,15.8c0.1,0.3,0,0.6-0.4,0.6
		h-0.9c-0.2,0-0.4-0.1-0.4-0.3l-1.7-3.9h-8.3l-1.7,3.9c0,0.1-0.2,0.3-0.4,0.3h-0.9C388.8,113.3,388.6,113,388.7,112.7 M399.8,107.7
		c-1.1-2.6-2.3-5.1-3.4-7.7h-0.2l-3.4,7.7H399.8z"/>
	<path class="st0" d="M414.9,96.6c2.4,0,4.1,0.8,5.7,2.2c0.2,0.2,0.2,0.5,0,0.7l-0.6,0.6c-0.2,0.2-0.4,0.2-0.6,0
		c-1.2-1.1-2.9-1.8-4.5-1.8c-3.7,0-6.5,3.1-6.5,6.7c0,3.6,2.8,6.7,6.5,6.7c2,0,3.2-0.8,4.5-1.8c0.2-0.2,0.4-0.2,0.6-0.1l0.7,0.6
		c0.2,0.1,0.1,0.5,0,0.6c-1.6,1.5-3.6,2.3-5.7,2.3c-4.7,0-8.5-3.7-8.5-8.4C406.4,100.4,410.2,96.6,414.9,96.6"/>
	<path class="st0" d="M427.7,98.4h-4.1c-0.3,0-0.4-0.2-0.4-0.4v-0.7c0-0.2,0.2-0.4,0.4-0.4h9.9c0.3,0,0.4,0.2,0.4,0.4V98
		c0,0.2-0.2,0.4-0.4,0.4h-4.1v14.4c0,0.2-0.2,0.4-0.4,0.4h-0.9c-0.2,0-0.4-0.2-0.4-0.4V98.4z"/>
	<path class="st0" d="M437.7,97.3c0-0.2,0.2-0.4,0.4-0.4h0.9c0.2,0,0.4,0.2,0.4,0.4v15.5c0,0.2-0.2,0.4-0.4,0.4h-0.9
		c-0.2,0-0.4-0.2-0.4-0.4V97.3z"/>
	<path class="st0" d="M452.7,96.6c4.7,0,8.4,3.8,8.4,8.5c0,4.7-3.7,8.4-8.4,8.4c-4.7,0-8.4-3.7-8.4-8.4
		C444.3,100.4,448,96.6,452.7,96.6 M452.7,111.9c3.7,0,6.8-3,6.8-6.8c0-3.7-3.1-6.8-6.8-6.8c-3.7,0-6.8,3.1-6.8,6.8
		C445.9,108.8,449,111.9,452.7,111.9"/>
	<path class="st0" d="M465.9,97.1c0-0.2,0.2-0.4,0.4-0.4h0.6l10.6,13.2h0V97.3c0-0.2,0.2-0.4,0.4-0.4h0.8c0.2,0,0.4,0.2,0.4,0.4
		v15.8c0,0.2-0.2,0.4-0.4,0.4h-0.4l-10.8-13.4h0v12.7c0,0.2-0.2,0.4-0.4,0.4h-0.8c-0.2,0-0.4-0.2-0.4-0.4V97.1z"/>
	<path class="st0" d="M194.5,43.9h-29.8v35.2H194c14.8,0,27.9-5.7,27.9-18.6C221.9,52,214.3,43.9,194.5,43.9z M194,72.5h-14.5v-22
		h15c6.5,0,12,3.7,12,10.1C206.6,67.6,202.6,72.5,194,72.5z"/>
	<path class="st0" d="M194.5,43.9h-29.8v35.2H194c14.8,0,27.9-5.7,27.9-18.6C221.9,52,214.3,43.9,194.5,43.9z M194,72.5h-14.5v-22
		h15c6.5,0,12,3.7,12,10.1C206.6,67.6,202.6,72.5,194,72.5z"/>
	<polygon class="st0" points="71.2,48.2 52.7,10.5 19,79.1 59.1,79.1 71.2,54.3 83.5,79.1 123.6,79.1 89.9,10.5 	"/>
	<polygon class="st0" points="71.2,48.2 52.7,10.5 19,79.1 59.1,79.1 71.2,54.3 83.5,79.1 123.6,79.1 89.9,10.5 	"/>
	<rect x="132.6" y="43.9" class="st0" width="14.9" height="35.2"/>
	<rect x="132.6" y="43.9" class="st0" width="14.9" height="35.2"/>
	<polygon class="st0" points="247.7,43.9 232.8,43.9 232.8,79.1 276.3,79.1 276.3,72.5 247.7,72.5 	"/>
	<polygon class="st0" points="247.7,43.9 232.8,43.9 232.8,79.1 276.3,79.1 276.3,72.5 247.7,72.5 	"/>
	<path class="st0" d="M453.7,43.9h-29.8v35.2h29.2c14.8,0,27.9-5.7,27.9-18.6C481,52,473.4,43.9,453.7,43.9z M453.2,72.5h-14.5v-22
		h15c6.5,0,12,3.7,12,10.1C465.7,67.6,461.7,72.5,453.2,72.5z"/>
	<path class="st0" d="M453.7,43.9h-29.8v35.2h29.2c14.8,0,27.9-5.7,27.9-18.6C481,52,473.4,43.9,453.7,43.9z M453.2,72.5h-14.5v-22
		h15c6.5,0,12,3.7,12,10.1C465.7,67.6,461.7,72.5,453.2,72.5z"/>
	<path class="st0" d="M303.7,43.9l-20.1,35.2h14.6l4.7-8.4h18l3.9,8.4h15l-18.7-35.2H303.7z M306.6,65.1c1.8-4.2,4.3-7.5,6.2-12.6
		c1.9,5,4.1,8.4,5.7,12.6H306.6z"/>
	<path class="st0" d="M303.7,43.9l-20.1,35.2h14.6l4.7-8.4h18l3.9,8.4h15l-18.7-35.2H303.7z M306.6,65.1c1.8-4.2,4.3-7.5,6.2-12.6
		c1.9,5,4.1,8.4,5.7,12.6H306.6z"/>
	<polygon class="st0" points="394.4,68.5 367.1,43.9 351.8,43.9 351.8,79.1 364.3,79.1 364.4,54.1 392.5,79.1 406.3,79.1 
		406.3,43.9 394.6,43.9 	"/>
	<polygon class="st0" points="394.4,68.5 367.1,43.9 351.8,43.9 351.8,79.1 364.3,79.1 364.4,54.1 392.5,79.1 406.3,79.1 
		406.3,43.9 394.6,43.9 	"/>
	<path class="st0" d="M474.6,27.5c-3.5,0-6.4,2.8-6.4,6.3c0,3.6,2.8,6.4,6.4,6.4c3.4,0,6.4-2.9,6.4-6.4
		C481,30.3,478.2,27.5,474.6,27.5z M474.6,38.9c-2.7,0-4.9-2.4-4.9-5.1c0-2.7,2.2-5,4.9-5c2.7,0,4.9,2.3,4.9,5.1
		C479.5,36.6,477.4,38.9,474.6,38.9z"/>
	<path class="st0" d="M475.2,34.1c1.1-0.1,1.8-0.8,1.8-2c0-1.1-0.7-1.8-2.3-1.8h-2.1v7h1.2v-3.1h0.1l1.9,3.1h1.5l-1.5-2.2
		C475.6,34.7,475.3,34.3,475.2,34.1z M473.8,33.4v-2.1h0.8c0.9,0,1.2,0.3,1.2,0.9c0,0.6-0.4,1.2-1.5,1.2H473.8z"/>
</g>
</svg>
