<?xml version="1.0" encoding="utf-8"?>
<!-- Generator: Adobe Illustrator 19.1.0, SVG Export Plug-In . SVG Version: 6.00 Build 0)  -->
<svg version="1.1" id="Calque_1" xmlns="http://www.w3.org/2000/svg" xmlns:xlink="http://www.w3.org/1999/xlink" x="0px" y="0px"
	 viewBox="-345 170.9 500 500" style="enable-background:new -345 170.9 500 500;" xml:space="preserve">
<style type="text/css">
	.st0{fill:#1A171B;}
</style>
<path class="st0" d="M-278.7,424.2l-5.3,16c0,0-22,0-33.2,0c7.2-27.6,13.3-56.2,20.5-84.4C-292.6,378.8-278.7,424.2-278.7,424.2z"/>
<path class="st0" d="M-179.2,454c1.2,7.2,3.1,13.8,5.1,20.5c-50.6,0-101.2,0-151.8,0c2.6-9.2,5.1-18.9,6.6-28.6
	c16.4-1.5,33.2,0,49.6-0.5c-6.6-33.7-16.4-66.5-25.1-99.7c10.2,0,20.5,0,30.7,0c5.6,17.9,7.7,36.8,14.8,54.7
	c5.1-18.4,8.7-36.8,14.3-54.7c9.7,0,19.9,0,29.6,0c-8.2,33.2-16.9,65.9-25.6,99.2c16.4,1.5,33.2,0,49.6,0.5
	C-180.7,448.4-179.7,450.9-179.2,454z"/>
<path class="st0" d="M-181.7,440.7c0,0-22,0-32.7,0c-1.5-6.1-4.6-19.4-4.6-19.4s10.2-42.9,17.4-63.9
	C-196.5,380.4-181.7,440.7-181.7,440.7z"/>
<path class="st0" d="M-148.5,440.2h-24c0,0,0-62.4,0-93.6c8.2,0,15.9,0,24,0C-148.5,371.7-148.5,440.2-148.5,440.2z"/>
<path class="st0" d="M-79.5,439.7c-19.9,0-39.4,0-59.3,0c0-31.2,0-62.4,0-93.6c7.7,0,15.3,0,23,0c0,23,0,23,0,70.5h29.6
	C-86.1,416.7-81,434.6-79.5,439.7z"/>
<path class="st0" d="M-16.9,440.3h-52.7l-7.3-23.5c0,0,0.5-47.2,0.5-70.7c7.7,0,15.3,0,23,0c0.5,23.5,0,70.5,0,70.5h29.6
	L-16.9,440.3z"/>
<path class="st0" d="M78.5,440.2H-7.4l-6.1-23.2v-70.9h53.7l0.2,23.5H9.5v10.2l27.6,0.3l-0.5,23.3H9.5v13.1H55c0,0,0-47,0-70.6
	c12.9,0.3,40-2.7,52.7,4.1c7.4,4,12.8,10.9,13.8,19.6c1.5,9.2,0.8,21.6-7.7,28c-0.6,0.4,3.6,2.2,4.1,4.2
	c3.6,12.8,6.6,25.9,11.2,38.2c-8.2,0-17.9,0-26.1,0c-4.1-11.2-11.8-35.3-11.8-35.3h-4.6c0,0,0-15.8,0-23.5c3.1,0,6.1,0.5,8.2-2.6
	c2-3.1,0.2-7.3-2.9-8.9c-4.6-1.5-8.9-0.3-13.5-0.9C77,387.5,78.5,440.2,78.5,440.2z"/>
<path d="M-73,493.3v-3.9h19c1.2,0,2.1-0.3,2.7-0.8c0.6-0.5,1-1.2,1-2.1c0-1-0.3-1.7-1-2.2c-0.6-0.5-1.5-0.7-2.7-0.7h-11.6
	c-1.2,0-2.3-0.2-3.2-0.5c-1-0.3-1.8-0.8-2.4-1.3c-0.7-0.6-1.2-1.2-1.5-2c-0.4-0.8-0.5-1.6-0.5-2.6c0-0.9,0.2-1.7,0.5-2.5
	c0.3-0.8,0.8-1.4,1.5-2c0.7-0.6,1.5-1,2.5-1.3s2.1-0.5,3.3-0.5h18.2v3.9h-18.2c-1,0-1.8,0.2-2.4,0.7c-0.6,0.5-0.8,1.2-0.8,2
	c0,0.9,0.3,1.5,0.9,2c0.6,0.5,1.3,0.7,2.3,0.7H-54c2.6,0,4.5,0.5,5.9,1.6c1.3,1.1,2,2.7,2,4.9c0,0.9-0.2,1.8-0.5,2.6
	c-0.3,0.8-0.8,1.5-1.5,2.1c-0.6,0.6-1.5,1-2.5,1.4c-1,0.3-2.1,0.5-3.5,0.5L-73,493.3L-73,493.3z"/>
<path d="M-36.6,483.7v-3.9h14.2c1.6,0,2.8-0.4,3.6-1.2c0.9-0.8,0.9-2.5,0-3.2c-0.9-0.8-2.1-1.2-3.6-1.2h-13.4v19.2h-4.4v-23.3h17.8
	c1.5,0,2.8,0.2,3.9,0.6s2.1,1,2.9,1.7c0.8,0.7,1.4,1.6,1.8,2.6c0.4,1,0.4,2.7,0,3.7c-0.4,1-1,1.9-1.8,2.7s-1.8,1.3-2.9,1.7
	c-1.1,0.4-2.5,0.6-3.9,0.6L-36.6,483.7L-36.6,483.7z"/>
<path d="M45.7,493.3l-4.6-8.6H27.8v-5.1h14.5c1.6,0,3.6,0,3.6-2c0-2-2.1-2.1-3.6-2.1H28.5v17.8h-4.4v-23.5h18.2
	c1.4,0,2.7,0.2,3.9,0.6s2.1,1,2.9,1.7c0.8,0.7,2.1,3.3,2.1,5.2c0,3.9-2.7,5.6-5,6.1l5.9,9.8L45.7,493.3L45.7,493.3z"/>
<rect x="55.8" y="469.8" width="6.2" height="23.7"/>
<path d="M122.9,470v14.4l-16.7-13.6c-0.4-0.3-0.8-0.6-1.2-0.7c-0.4-0.2-0.9-0.2-1.3-0.2c-1,0-1.8,0.3-2.4,0.9
	c-0.6,0.6-0.9,1.3-0.9,2.2v20h6.2v-14.4l16.6,13.7c0.8,0.7,1.7,1,2.7,1c0.9,0,1.7-0.3,2.3-0.8c0.6-0.5,0.9-1.3,0.9-2.2V470H122.9z"
	/>
<path d="M94.6,479.5v-0.7c0-7.8-7.2-9-13.8-9c-6.6,0-13.7,1.2-13.7,9l0,1.3v13.1h5.3v-7.8h17v7.8h5.3L94.6,479.5L94.6,479.5
	L94.6,479.5z M89.3,480.2H71.9l0.1-0.6c0-3.8,4.5-4.4,8.7-4.4s8.7,0.6,8.7,4.4L89.3,480.2L89.3,480.2z"/>
<path d="M-9.9,481.8c0,2.5,0,11.6,12,11.6c3.4-3.4,3.4-3.4,3.4-3.4L2,488.3c0,0-6.3,0.9-6.3-3.5c0-4.4,0-5.3,0-5.3"/>
<path d="M2,488.3c0,0-6.3,0.3-6.3-3.5c0,0,0,0,0,0h18.6v-5.1H-4.2c0-0.1,0-0.1,0-0.1c0-0.1,0-0.2,0-0.4c0-3.4,6-3.5,6-3.5h17v-5.1
	H2.1c0,0,0,0,0,0c-11.5,0-12,8.3-12,11.2h0c0,0.1,0,0.1,0,0.2s0,0.1,0,0.2l0,0c0,2.9,0.5,11.2,12,11.2h17v-5.1L2,488.3L2,488.3z"/>
<path d="M-116.9,478.9h-7.1c-1,0-1.9,0.2-2.7,0.6v-6.7h-5.1v21h5.1v-1.1c0.8,0.4,1.7,0.6,2.7,0.6h7.1c3.3,0,6.1-2.4,6.1-5.4v-3.6
	C-110.8,481.3-113.6,478.9-116.9,478.9z M-115.4,487c0,1.6-1.4,2.9-3.2,2.9h-3.7c-1.8,0-3.2-1.3-3.2-2.9v-1.9c0-1.6,1.4-2.9,3.2-2.9
	h3.7c1.8,0,3.2,1.3,3.2,2.9V487z"/>
<path d="M-85.1,478.4h-6l-6.1,10.5l-6.1-10.5h-6l9.5,14.9h0c0,0-0.1,1-0.9,1.1h-4.2v4.5c0,0,0.6,0.1,2.8,0.1s5.2-0.1,8-5.6
	L-85.1,478.4z"/>
</svg>
