<?xml version="1.0" encoding="utf-8"?>
<!-- Generator: Adobe Illustrator 19.1.0, SVG Export Plug-In . SVG Version: 6.00 Build 0)  -->
<svg version="1.1" id="Calque_1" xmlns="http://www.w3.org/2000/svg" xmlns:xlink="http://www.w3.org/1999/xlink" x="0px" y="0px"
	 viewBox="-345 170.9 500 500" style="enable-background:new -345 170.9 500 500;" xml:space="preserve">
<style type="text/css">
	.st0{fill:#8E0000;}
	.st1{fill:#FFFFFF;}
</style>
<polygon class="st0" points="137.9,537.5 -325.3,537.7 -325.5,306.9 138.3,307.5 "/>
<polygon class="st1" points="-276.2,463.9 -262.3,472.7 -250.7,385.8 -238.7,375.9 -236.6,378.3 -246.6,453.2 -232.8,462 
	-221.6,377.5 -210.2,367.9 -208.1,370.3 -217.8,443 -204.2,451.7 -193.5,371.1 -192.7,364.1 -202.4,353.5 -221.8,368.5 
	-222.5,368.9 -230.5,359.6 -249.1,374 -246.2,352.1 -306.5,400.1 -265.2,381 "/>
<polygon class="st1" points="-170.9,432.5 -158,440.9 -147.5,427.5 -135.1,435.5 -125,422.6 -113.1,430.4 -93,409.3 -87.9,370.2 
	-98.9,372.6 -103.9,410.9 -107.6,416 -110.9,413.4 -105.7,374.2 -105.7,374.1 -120.4,377.4 -125.5,415.5 -129.5,421.1 -132.8,418.5 
	-127.6,379.1 -127.6,379 -142.4,382.3 -147.4,419.5 -152.4,426.4 -155.7,423.8 -146.5,354.7 -146.5,354.6 -161.5,357.9 
	-170.2,423.6 -176.3,431.9 -179.6,429.3 -174.4,389.6 -174.3,389.5 -189.4,392.9 -195.4,437.8 -181.9,446.5 "/>
<polygon class="st1" points="-173.2,370.5 -173.2,370.4 -188.1,373.7 -189.6,385.9 -174.8,382.6 "/>
<path class="st1" d="M-68,408.7l12.3,8.2l9.4-12.1l11,7.4l9.5-12.4l11.2,7.5l9.5-12.4L6,402.3l3-22.5l10.5,19.7L35,385.9l10.1,7.5
	l21.7-14.9l0,0l9.9,7.5l21.5-14.8l1.2-9.2l-17.7,10.2l-2.8-2.5l1.3-9.6l15.6-8.6l-11.5-17.7l-14.8,12.6l-3.1,24l-16.1,9.2l-2.9-2.6
	l1.3-9.7l15.7-8.7l-11.7-17.9l-14.9,12.7l-3.3,25.4l-8.7,7.6l-10.4-21.9l24.1-21l-11.9,2.7l-15.8,13.8l5.4-41l0-0.1l-14.1,3.1
	l-8.7,66.4l-3.5,4.9l-3.2-2.5l5.1-38.5l0-0.1l-14.2,3.2l-5,38L-30,398l-3.2-2.5l5.1-38.7l0-0.1l-14.3,3.2l-5.1,38.9l-2.8,3.9
	l-3.2-2.5l5.1-38.8l0-0.1l-14.4,3.2l-0.4,2.9l-6.9-4.1l-0.3,0.8l0-0.3l-15.6,17.5l-4.2,32.1l12.1,8.8L-68,408.7z M82.2,343l4.3,7.7
	l-5.9,4.6L82.2,343z M50.6,350.2l4.3,7.7l-6,4.6L50.6,350.2z M-64,374.2l-3.4,26.1l-5.3,7.6l-3-2.6l4.5-34.4L-64,374.2z"/>
<polygon class="st1" points="13.4,423.8 23.8,408.9 -145,467.4 -131.8,448.7 -301.4,513.2 -175.4,481.2 -192.6,505.1 -8.4,436.6 
	-24.7,455.6 -0.8,443.9 -0.3,443.2 112.3,386.2 "/>
<path class="st1" d="M100.7,336.2v-5.9h2.6c0.5,0,0.9,0.1,1.2,0.2c0.3,0.1,0.5,0.3,0.7,0.6c0.2,0.3,0.2,0.6,0.2,0.9
	c0,0.4-0.1,0.8-0.4,1.1c-0.3,0.3-0.7,0.5-1.3,0.5c0.2,0.1,0.4,0.2,0.5,0.3c0.2,0.2,0.4,0.5,0.6,0.8l1,1.6h-1l-0.8-1.2
	c-0.2-0.4-0.4-0.6-0.6-0.8c-0.1-0.2-0.3-0.3-0.4-0.4c-0.1-0.1-0.2-0.1-0.4-0.2c-0.1,0-0.2,0-0.4,0h-0.9v2.6L100.7,336.2L100.7,336.2
	z M101.5,332.9h1.7c0.4,0,0.6,0,0.8-0.1c0.2-0.1,0.4-0.2,0.5-0.4c0.1-0.2,0.2-0.3,0.2-0.5c0-0.3-0.1-0.5-0.3-0.7
	c-0.2-0.2-0.5-0.3-1-0.3h-1.9L101.5,332.9L101.5,332.9z"/>
<path class="st1" d="M102.4,339.2c-3.4,0-6.2-2.8-6.2-6.2s2.8-6.2,6.2-6.2c3.4,0,6.2,2.8,6.2,6.2
	C108.6,336.4,105.8,339.2,102.4,339.2z M102.4,327.5c-3,0-5.5,2.5-5.5,5.5c0,3,2.5,5.5,5.5,5.5c3,0,5.5-2.5,5.5-5.5
	C107.9,330,105.4,327.5,102.4,327.5z"/>
</svg>
