<?xml version="1.0" encoding="utf-8"?>
<!-- Generator: Adobe Illustrator 15.0.0, SVG Export Plug-In . SVG Version: 6.00 Build 0)  -->
<!DOCTYPE svg PUBLIC "-//W3C//DTD SVG 1.1//EN" "http://www.w3.org/Graphics/SVG/1.1/DTD/svg11.dtd">
<svg version="1.1" id="Calque_1" xmlns="http://www.w3.org/2000/svg" xmlns:xlink="http://www.w3.org/1999/xlink" x="0px" y="0px"
	 width="500px" height="500px" viewBox="0 0 500 500" enable-background="new 0 0 500 500" xml:space="preserve">
<path d="M16.914,180.501c0,0,80.182-0.189,83.213-0.154c3.03,0.042,7.927,1.122,7.858,6.889c-0.071,5.767-4.224,8.642-7.556,8.531
	c-3.333-0.113-26.498,0-30.229,0c-5.092-0.113,12.712,43.731,14.058,43.845c1.348,0.111,20.582-0.142,21.853-0.142
	c2.503,0.113-1.683-11.491-2.097-14.072c-0.407-2.582,1.389-3.593,6.439-3.593c5.051,0,5.871,1.124,6.58,3.593
	c0.715,2.469,9.73,32.775,9.73,32.775H71.99l-34.718-27.837H16.914V180.501z"/>
<path d="M75.59,199.512h55.517l34.276,28.58h20.049v50.43c0,0-79.053,0.036-82.005,0c-2.961-0.034-8.798-2.433-8.686-7.183
	c0.113-4.75,5.837-8.047,8.979-8.082s29.183,0.303,29.183,0.303s-11.147-46.131-14.213-46.09
	c-3.072,0.035-20.174-0.007-22.455,0.141c-2.281,0.154,2.245,9.281,2.841,11.672c0.603,2.4,0.196,5.457-4.897,7.225
	c-4.86,1.685-9.764-8.348-8.867-6.474C86.209,231.907,75.59,199.512,75.59,199.512z"/>
<polygon fill="#E0001A" points="116.066,180.95 186.104,180.95 186.104,220.908 167.249,220.908 "/>
<polygon fill="#E0001A" points="17.069,238.642 37.048,238.642 87.557,278.601 17.069,278.601 "/>
<line fill="none" stroke="#E0001A" stroke-width="7.1835" x1="17.518" y1="288.555" x2="460.501" y2="288.555"/>
<g>
	<path fill="#E0001A" d="M267.963,181.224v98.325h-20.651l-0.113-66.386l-8.193,66.386h-14.367l-8.642-65.039l-0.114,65.039h-20.651
		v-98.325h30.472c0.801,5.928,1.748,12.9,2.834,20.898l3.396,25.015l5.332-45.913H267.963z"/>
	<path fill="#E0001A" d="M331.186,238.79c0,9.87-0.218,16.856-0.646,20.969c-0.428,4.103-1.77,7.856-4.027,11.251
		c-2.258,3.396-5.317,6.005-9.162,7.829c-3.843,1.818-8.326,2.729-13.44,2.729c-4.854,0-9.211-0.863-13.075-2.576
		c-3.865-1.726-6.973-4.299-9.323-7.737c-2.357-3.438-3.754-7.176-4.202-11.23c-0.449-4.041-0.674-11.119-0.674-21.234v-16.808
		c0-9.871,0.217-16.858,0.645-20.968c0.43-4.098,1.775-7.857,4.033-11.252c2.261-3.396,5.312-6.006,9.156-7.83
		c3.843-1.816,8.327-2.729,13.44-2.729c4.854,0,9.212,0.864,13.077,2.575c3.864,1.725,6.972,4.307,9.329,7.745
		c2.351,3.438,3.747,7.176,4.194,11.225c0.45,4.04,0.676,11.125,0.676,21.234V238.79z M307.614,206.5c0-4.575-0.23-7.492-0.702-8.77
		c-0.47-1.276-1.431-1.915-2.89-1.915c-1.234,0-2.182,0.52-2.834,1.55c-0.651,1.031-0.982,4.075-0.982,9.134v45.893
		c0,5.709,0.218,9.231,0.646,10.563c0.428,1.334,1.43,1.999,3.002,1.999c1.605,0,2.637-0.763,3.086-2.307
		c0.45-1.53,0.674-5.198,0.674-10.986V206.5z"/>
	<path fill="#E0001A" d="M363.448,181.224v78.568h14.365v19.757h-37.936v-98.325H363.448z"/>
	<path fill="#E0001A" d="M406.996,181.224v78.568h14.368v19.757h-37.938v-98.325H406.996z"/>
	<path fill="#E0001A" d="M469.607,181.224l-17.061,62.735v35.59h-21.774v-35.59l-16.611-62.735h21.492
		c3.304,19.319,5.27,32.29,5.894,38.912c1.404-10.481,3.592-23.451,6.566-38.912H469.607z"/>
</g>
<g>
	<path fill="#E0001A" stroke="#E0001A" stroke-width="0.6688" stroke-miterlimit="1" d="M481.308,181.118
		c-4.027,0-7.29,3.62-7.268,8.068c0,4.476,3.24,8.081,7.268,8.081c4.006-0.028,7.268-3.605,7.268-8.081
		C488.575,184.738,485.314,181.118,481.308,181.118z M481.308,196.327c-3.556,0.028-6.426-3.185-6.426-7.113
		c-0.021-3.956,2.87-7.163,6.404-7.163c3.563,0,6.447,3.207,6.447,7.135C487.734,193.142,484.85,196.327,481.308,196.327z"/>
	<path fill="#E0001A" stroke="#E0001A" stroke-width="0.6688" stroke-miterlimit="1" d="M483.665,189.004
		c0.778-0.659,1.101-1.081,1.059-2.225c-0.104-2.014-1.304-2.266-2.552-2.266H478.6v8.889h1.025v-3.81h2.637
		c1.655,0,1.199,1.635,1.367,2.687l0.162,1.123h1.227c-0.448-0.772-0.294-0.962-0.378-2.126
		C484.506,189.732,484.486,189.593,483.665,189.004z M482.199,188.583h-2.574v-3.066h2.574c0.624,0,1.62,0.189,1.466,1.705
		C483.559,188.373,482.886,188.583,482.199,188.583z"/>
</g>
<g>
	<path fill="#1A171B" d="M94.964,301.547h11.673v5.389h-6.959v4.377h5.95v5.05h-5.95v10.213h-4.714V301.547z"/>
	<path fill="#1A171B" d="M130.566,301.547h4.714v25.028h-4.714V301.547z"/>
	<path fill="#1A171B" d="M158.858,301.547h5.163l2.708,7.702l2.624-7.702h5.105l-4.726,12.122l5.176,12.906h-5.275l-3.003-8.037
		l-3.001,8.037h-5.276l5.276-13.039L158.858,301.547z"/>
	<path fill="#1A171B" d="M207.073,322.423h-5.297l-0.77,4.152H196.2l5.697-25.028h5.169l5.69,25.028h-4.918L207.073,322.423z
		 M206.077,317.037l-1.655-9l-1.656,9H206.077z"/>
	<path fill="#1A171B" d="M234.439,301.547h14.311v6.174h-4.827v18.854h-4.714v-18.854h-4.77V301.547z"/>
	<path fill="#1A171B" d="M272.278,301.547h4.716v25.028h-4.716V301.547z"/>
	<path fill="#1A171B" d="M301.02,314.082c0-4.096,0.694-7.281,2.083-9.562c1.389-2.279,3.324-3.423,5.808-3.423
		c2.541,0,4.499,1.123,5.873,3.359c1.375,2.246,2.062,5.381,2.062,9.415c0,2.933-0.294,5.332-0.897,7.212
		c-0.604,1.874-1.466,3.332-2.603,4.378c-1.136,1.046-2.554,1.563-4.251,1.563c-1.719,0-3.143-0.45-4.271-1.354
		c-1.131-0.897-2.05-2.322-2.751-4.272C301.37,319.45,301.02,317.008,301.02,314.082z M305.733,314.111
		c0,2.539,0.288,4.363,0.864,5.473c0.575,1.107,1.353,1.662,2.343,1.662c1.017,0,1.803-0.542,2.357-1.628
		c0.561-1.088,0.834-3.038,0.834-5.857c0-2.364-0.288-4.098-0.869-5.185c-0.583-1.095-1.369-1.641-2.364-1.641
		c-0.955,0-1.718,0.554-2.294,1.662C306.028,309.707,305.733,311.543,305.733,314.111z"/>
	<path fill="#1A171B" d="M340.599,301.547h4.406l5.751,13.884v-13.884h4.434v25.028h-4.434l-5.724-13.805v13.805h-4.434V301.547z"/>
	<path fill="#1A171B" d="M378.719,318.334l4.489-0.456c0.099,1.186,0.302,2.084,0.604,2.7c0.49,1.012,1.184,1.508,2.096,1.508
		c0.683,0,1.208-0.259,1.572-0.777c0.371-0.52,0.556-1.122,0.556-1.803c0-0.652-0.185-1.229-0.542-1.747
		c-0.364-0.513-1.179-0.997-2.44-1.452c-2.077-0.765-3.55-1.774-4.434-3.044c-0.892-1.264-1.34-2.876-1.34-4.834
		c0-1.29,0.23-2.504,0.687-3.647c0.457-1.145,1.138-2.049,2.058-2.7c0.91-0.653,2.159-0.983,3.751-0.983
		c1.958,0,3.444,0.596,4.469,1.789c1.025,1.192,1.642,3.094,1.831,5.696l-4.434,0.429c-0.119-1.137-0.363-1.965-0.743-2.478
		c-0.386-0.519-0.905-0.777-1.578-0.777c-0.548,0-0.962,0.188-1.242,0.574c-0.28,0.38-0.42,0.842-0.42,1.39
		c0,0.399,0.111,0.758,0.344,1.079c0.217,0.331,0.742,0.639,1.584,0.919c2.063,0.73,3.544,1.474,4.435,2.218
		c0.897,0.75,1.542,1.676,1.951,2.784c0.405,1.109,0.608,2.344,0.608,3.711c0,1.614-0.266,3.095-0.812,4.456
		c-0.542,1.354-1.299,2.384-2.268,3.086c-0.975,0.701-2.202,1.052-3.682,1.052c-2.603,0-4.398-0.82-5.401-2.455
		C379.42,322.936,378.852,320.859,378.719,318.334z"/>
</g>
</svg>
