<?xml version="1.0" encoding="utf-8"?>
<!-- Generator: Adobe Illustrator 21.0.2, SVG Export Plug-In . SVG Version: 6.00 Build 0)  -->
<svg version="1.1" id="Calque_1" xmlns="http://www.w3.org/2000/svg" xmlns:xlink="http://www.w3.org/1999/xlink" x="0px" y="0px"
	 viewBox="0 0 500 132" style="enable-background:new 0 0 500 132;" xml:space="preserve">
<style type="text/css">
	.st0{fill:#C92A1C;}
	.st1{fill:#1A171B;}
	.st2{fill:#5C5F5F;}
</style>
<polygon class="st0" points="167.2,44.9 167.4,90.5 187.9,90.5 187.9,44.9 "/>
<path class="st0" d="M218.9,59c-0.1-3.6-4.7-15.5-15.3-15.5c-7.1,0-10.9,3.2-12.7,5.3v11.8l5.9,2.1l0.1,27.7l22.3-0.1
	C219.3,90.3,219,62.6,218.9,59z"/>
<polygon class="st0" points="328.9,44.9 329.1,90.5 349.6,90.5 349.6,44.9 "/>
<path class="st0" d="M380.6,59c-0.1-3.6-4.7-15.5-15.3-15.5c-7.1,0-10.9,3.2-12.7,5.3v11.8l5.9,2.1l0.1,27.7l22.3-0.1
	C380.9,90.3,380.7,62.6,380.6,59z"/>
<polygon class="st0" points="435.7,44.9 436,90.5 456.5,90.5 456.5,44.9 "/>
<path class="st0" d="M487.5,59c-0.1-3.6-4.7-15.5-15.3-15.5c-7.1,0-10.9,3.2-12.7,5.3v11.8l5.9,2.1l0.1,27.7l22.3-0.1
	C487.8,90.3,487.6,62.6,487.5,59z"/>
<path class="st0" d="M289.7,43.2c-16.1,0-29.2,10.7-29.2,23.9S273.6,91,289.7,91c16.1,0,29.2-10.7,29.2-23.9
	C318.8,53.9,305.8,43.2,289.7,43.2z M290,74.9c-3.6,0-6.5-3.1-6.5-7s2.9-7,6.5-7s6.5,3.1,6.5,7C296.6,71.8,293.6,74.9,290,74.9z"/>
<polygon class="st0" points="399.6,44.7 399.8,90.4 420.3,90.4 420.3,44.7 "/>
<polygon class="st0" points="435.9,44.7 436.1,90.4 456.6,90.4 456.6,44.7 "/>
<path class="st0" d="M409.9,17.6c-6.7,0-12.2,5.2-12.2,11.6s5.4,11.6,12.2,11.6c6.7,0,12.2-5.2,12.2-11.6
	C422.1,22.7,416.6,17.6,409.9,17.6z"/>
<path class="st1" d="M28.1,120.5v-15.3h2.2v12.7h5.5v2.6L28.1,120.5L28.1,120.5z"/>
<path class="st1" d="M56.7,117l2.1,0.5c-0.3,1.1-0.7,2-1.3,2.5s-1.3,0.8-2.2,0.8c-1.2,0-2.1-0.5-2.7-1.4c-0.8-1.1-1.1-2.5-1.1-4.4
	s0.4-3.4,1.1-4.5c0.6-0.9,1.5-1.4,2.5-1.4c1.1,0,2,0.5,2.7,1.5c0.7,1.1,1.1,2.7,1.1,4.9v0.3h-5.3c0,0.9,0.2,1.6,0.5,2.1
	s0.7,0.7,1.2,0.7C56.1,118.6,56.5,118,56.7,117z M56.9,114c0-0.9-0.2-1.5-0.5-1.9s-0.7-0.6-1.1-0.6c-0.5,0-0.8,0.2-1.1,0.7
	c-0.3,0.5-0.5,1.1-0.5,1.9L56.9,114L56.9,114z"/>
<path class="st1" d="M74.7,117.3l2.1-0.5c0.2,1.2,0.7,1.8,1.7,1.8c0.5,0,0.9-0.1,1.1-0.3c0.2-0.2,0.4-0.5,0.4-0.9
	c0-0.2-0.1-0.4-0.2-0.6c-0.1-0.1-0.3-0.3-0.7-0.4c-1.7-0.5-2.8-1-3.3-1.5c-0.6-0.6-0.9-1.4-0.9-2.5c0-1,0.3-1.9,0.9-2.5
	s1.4-0.9,2.5-0.9c1,0,1.8,0.2,2.4,0.7c0.5,0.5,0.9,1.2,1.1,2.3l-2,0.5c-0.2-0.9-0.7-1.4-1.5-1.4c-0.5,0-0.9,0.1-1.1,0.3
	c-0.2,0.2-0.3,0.4-0.3,0.7c0,0.2,0.1,0.5,0.3,0.6c0.2,0.2,0.8,0.4,1.9,0.7c1.2,0.4,2,0.8,2.4,1.4c0.4,0.5,0.6,1.3,0.6,2.2
	c0,1.1-0.3,2-1,2.7c-0.6,0.7-1.5,1.1-2.6,1.1c-1,0-1.9-0.3-2.5-0.9C75.3,119.3,74.9,118.5,74.7,117.3z"/>
<path class="st1" d="M117.1,117.3l2.1-0.5c0.2,1.2,0.7,1.8,1.7,1.8c0.5,0,0.9-0.1,1.1-0.3c0.3-0.2,0.4-0.5,0.4-0.9
	c0-0.2-0.1-0.4-0.2-0.6c-0.1-0.1-0.3-0.3-0.7-0.4c-1.7-0.5-2.8-1-3.3-1.5c-0.6-0.6-0.9-1.4-0.9-2.5c0-1,0.3-1.9,0.9-2.5
	c0.6-0.6,1.4-0.9,2.5-0.9c1,0,1.8,0.2,2.4,0.7c0.5,0.5,0.9,1.2,1.1,2.3l-2,0.5c-0.2-0.9-0.7-1.4-1.5-1.4c-0.5,0-0.9,0.1-1.1,0.3
	c-0.2,0.2-0.3,0.4-0.3,0.7c0,0.2,0.1,0.5,0.3,0.6c0.2,0.2,0.8,0.4,1.9,0.7c1.2,0.4,2,0.8,2.4,1.4c0.4,0.5,0.6,1.3,0.6,2.2
	c0,1.1-0.3,2-1,2.7c-0.6,0.7-1.5,1.1-2.6,1.1c-1,0-1.9-0.3-2.5-0.9C117.7,119.3,117.3,118.5,117.1,117.3z"/>
<path class="st1" d="M140.6,114.8c0-1.1,0.2-2.1,0.6-3c0.4-0.9,0.9-1.6,1.5-2c0.6-0.5,1.3-0.7,2-0.7c1.3,0,2.3,0.6,3,1.7
	c0.7,1.2,1.1,2.5,1.1,4.1c0,1.2-0.2,2.2-0.6,3.1c-0.4,0.9-0.9,1.6-1.5,2.1s-1.3,0.7-2,0.7c-1.2,0-2.1-0.5-2.9-1.6
	S140.6,116.7,140.6,114.8z M142.7,114.9c0,1.1,0.2,2,0.6,2.6c0.4,0.6,0.8,0.9,1.4,0.9c0.5,0,1-0.3,1.4-0.9s0.6-1.4,0.6-2.6
	c0-1.1-0.2-2-0.6-2.5c-0.4-0.6-0.8-0.9-1.4-0.9c-0.5,0-1,0.3-1.4,0.9C142.9,113,142.7,113.8,142.7,114.9z"/>
<path class="st1" d="M165.2,120.5v-15.4h2.1v15.5h-2.1V120.5z"/>
<path class="st1" d="M189.5,120.5v-1.7c-0.3,0.6-0.7,1.1-1.1,1.4c-0.5,0.3-1,0.5-1.5,0.5s-1-0.2-1.4-0.5s-0.7-0.8-0.9-1.4
	s-0.3-1.4-0.3-2.5v-7.1h2.1v5.1c0,1.5,0,2.4,0.1,2.8s0.2,0.7,0.4,0.9c0.2,0.2,0.5,0.3,0.8,0.3c0.4,0,0.7-0.1,1-0.4s0.5-0.6,0.6-1.1
	c0.1-0.4,0.1-1.4,0.1-2.9v-4.7h2.1v11.2L189.5,120.5L189.5,120.5z"/>
<path class="st1" d="M212,109.3v2.3h-1.4v4.5c0,1,0,1.6,0.1,1.7c0.1,0.3,0.3,0.4,0.5,0.4s0.5-0.1,0.8-0.3l0.2,2.3
	c-0.5,0.3-1,0.4-1.6,0.4c-0.5,0-1-0.1-1.3-0.4s-0.5-0.7-0.6-1.3c-0.1-0.4-0.1-1.2-0.1-2.5v-4.9h-1v-2.3h1v-2.1l2.1-1.7v4L212,109.3
	L212,109.3z"/>
<rect x="228.3" y="109.3" class="st1" width="2.1" height="11.2"/>
<polygon class="st1" points="228.3,105.1 228.3,107.8 228.3,107.9 230.4,107.9 230.4,105.1 "/>
<path class="st1" d="M246.9,114.8c0-1.1,0.2-2.1,0.6-3s0.9-1.6,1.5-2c0.6-0.5,1.3-0.7,2-0.7c1.3,0,2.3,0.6,3,1.7
	c0.7,1.2,1.1,2.5,1.1,4.1c0,1.2-0.2,2.2-0.6,3.1s-0.9,1.6-1.5,2.1s-1.3,0.7-2,0.7c-1.2,0-2.1-0.5-2.9-1.6
	C247.3,118.1,246.9,116.7,246.9,114.8z M249,114.9c0,1.1,0.2,2,0.6,2.6c0.4,0.6,0.8,0.9,1.4,0.9c0.5,0,1-0.3,1.4-0.9
	c0.4-0.6,0.6-1.4,0.6-2.6c0-1.1-0.2-2-0.6-2.5c-0.4-0.6-0.8-0.9-1.4-0.9c-0.5,0-1,0.3-1.4,0.9C249.2,113,249,113.8,249,114.9z"/>
<path class="st1" d="M278.6,120.5h-2.1v-5.7c0-1.1,0-1.9-0.1-2.3s-0.2-0.7-0.4-0.9c-0.2-0.2-0.5-0.3-0.7-0.3c-0.4,0-0.7,0.1-0.9,0.4
	c-0.3,0.3-0.5,0.6-0.6,1.1c-0.1,0.5-0.2,1.3-0.2,2.6v5.1h-2.1v-11.2h1.9v1.7c0.3-0.6,0.7-1.1,1.2-1.4c0.4-0.3,0.9-0.5,1.4-0.5
	c0.6,0,1.1,0.2,1.5,0.6c0.4,0.4,0.7,0.8,0.9,1.4c0.2,0.6,0.2,1.4,0.2,2.5C278.6,113.6,278.6,120.5,278.6,120.5z"/>
<path class="st1" d="M294.9,117.3l2.1-0.5c0.2,1.2,0.7,1.8,1.7,1.8c0.5,0,0.9-0.1,1.1-0.3c0.2-0.2,0.4-0.5,0.4-0.9
	c0-0.2-0.1-0.4-0.2-0.6c-0.1-0.1-0.3-0.3-0.7-0.4c-1.7-0.5-2.8-1-3.3-1.5c-0.6-0.6-0.9-1.4-0.9-2.5c0-1,0.3-1.9,0.9-2.5
	s1.4-0.9,2.5-0.9c1,0,1.8,0.2,2.4,0.7c0.5,0.5,0.9,1.2,1.1,2.3l-2,0.5c-0.2-0.9-0.7-1.4-1.5-1.4c-0.5,0-0.9,0.1-1.1,0.3
	c-0.2,0.2-0.3,0.4-0.3,0.7c0,0.2,0.1,0.5,0.3,0.6c0.2,0.2,0.8,0.4,1.9,0.7c1.2,0.4,2,0.8,2.4,1.4c0.4,0.5,0.6,1.3,0.6,2.2
	c0,1.1-0.3,2-1,2.7c-0.6,0.7-1.5,1.1-2.6,1.1c-1,0-1.9-0.3-2.5-0.9C295.5,119.3,295.1,118.5,294.9,117.3z"/>
<path class="st1" d="M343.1,124.8v-5.6c-0.3,0.5-0.6,0.9-1,1.2c-0.4,0.3-0.8,0.4-1.3,0.4c-0.9,0-1.6-0.5-2.3-1.5c-0.6-1-1-2.5-1-4.4
	c0-1.8,0.3-3.2,1-4.2c0.6-1,1.4-1.5,2.4-1.5c0.5,0,0.9,0.2,1.3,0.5c0.4,0.3,0.7,0.8,1,1.4v-1.7h1.9v15.5L343.1,124.8L343.1,124.8z
	 M343.2,114.8c0-1.2-0.2-2-0.5-2.6c-0.3-0.5-0.7-0.8-1.2-0.8s-0.9,0.3-1.3,0.9c-0.3,0.6-0.5,1.5-0.5,2.7s0.2,2.1,0.5,2.7
	c0.3,0.5,0.7,0.8,1.2,0.8s0.9-0.3,1.3-0.9C343.1,117,343.2,116,343.2,114.8z"/>
<path class="st1" d="M367.3,120.5v-1.7c-0.3,0.6-0.7,1.1-1.1,1.4c-0.5,0.3-1,0.5-1.5,0.5s-1-0.2-1.4-0.5c-0.4-0.3-0.7-0.8-0.9-1.4
	c-0.2-0.6-0.3-1.4-0.3-2.5v-7.1h2.1v5.1c0,1.5,0,2.4,0.1,2.8c0.1,0.4,0.2,0.7,0.4,0.9c0.2,0.2,0.5,0.3,0.8,0.3c0.4,0,0.7-0.1,1-0.4
	s0.5-0.6,0.6-1.1c0.1-0.4,0.1-1.4,0.1-2.9v-4.7h2.1v11.2L367.3,120.5L367.3,120.5z"/>
<path class="st1" d="M386.2,110.6l-0.4-2.9v-2.6h2.3v2.6l-0.4,2.9H386.2z"/>
<path class="st1" d="M404.1,114.8c0-1.1,0.2-2.1,0.6-3c0.4-0.9,0.9-1.6,1.5-2c0.6-0.5,1.3-0.7,2-0.7c1.3,0,2.3,0.6,3,1.7
	c0.7,1.2,1.1,2.5,1.1,4.1c0,1.2-0.2,2.2-0.6,3.1c-0.4,0.9-0.9,1.6-1.5,2.1c-0.6,0.5-1.3,0.7-2,0.7c-1.2,0-2.1-0.5-2.9-1.6
	C404.5,118.2,404.1,116.7,404.1,114.8z M406.3,114.9c0,1.1,0.2,2,0.6,2.6s0.8,0.9,1.4,0.9c0.5,0,1-0.3,1.4-0.9
	c0.4-0.6,0.6-1.4,0.6-2.6c0-1.1-0.2-2-0.6-2.5c-0.4-0.6-0.8-0.9-1.4-0.9c-0.5,0-1,0.3-1.4,0.9S406.3,113.8,406.3,114.9z"/>
<path class="st1" d="M435.9,120.5h-2.1v-5.7c0-1.1,0-1.9-0.1-2.3c-0.1-0.4-0.2-0.7-0.4-0.9c-0.2-0.2-0.5-0.3-0.7-0.3
	c-0.4,0-0.7,0.1-1,0.4s-0.5,0.6-0.6,1.1c-0.1,0.5-0.2,1.3-0.2,2.6v5.1h-2.1v-11.2h1.9v1.7c0.3-0.6,0.7-1.1,1.2-1.4
	c0.4-0.3,0.9-0.5,1.4-0.5c0.6,0,1.1,0.2,1.5,0.6s0.7,0.8,0.9,1.4c0.2,0.6,0.2,1.4,0.2,2.5L435.9,120.5L435.9,120.5z"/>
<path class="st2" d="M462,107.4l0.8,3.2l1,0.7l0.1,9.4h7c0,0-0.1-9.4-0.1-10.6s-1.1-5.2-4.7-5.3C462.6,105,462,107.4,462,107.4z"/>
<path class="st2" d="M471.4,107.5l0.8,3.3l1,0.7l0.1,9.4h7c0,0-0.1-9.4-0.1-10.6s-1.1-5.2-4.7-5.3
	C471.9,105,471.4,107.5,471.4,107.5z"/>
<path class="st2" d="M489.5,110.2c0-1.2-1.1-5.2-4.7-5.3c-3.6,0-4.2,2.5-4.2,2.5l0.8,3.3l1,0.7l0.1,9.4h7
	C489.6,120.9,489.6,111.5,489.5,110.2z M487.7,110.4c0.7,0,1.2,0.5,1.2,1.2s-0.5,1.2-1.2,1.2c-0.7,0-1.2-0.5-1.2-1.2
	C486.4,111,487,110.4,487.7,110.4z M487.7,120.1c-0.7,0-1.2-0.5-1.2-1.2s0.5-1.2,1.2-1.2c0.7,0,1.2,0.5,1.2,1.2
	S488.4,120.1,487.7,120.1z M487.7,116.6c-0.7,0-1.2-0.5-1.2-1.2s0.5-1.2,1.2-1.2c0.7,0,1.2,0.5,1.2,1.2S488.4,116.6,487.7,116.6z"/>
<path class="st2" d="M102.9,41.4c-0.2-5.7-5-24.2-21.6-24.3c-12.1-0.1-16.7,6-18.4,9.3c2.7,5.4,3.9,10.9,4,14.7c0,0.6,0,1.7,0.1,3.1
	l3.8,2.6l0.5,43.6h32.1C103.4,90.5,103.1,47.1,102.9,41.4z"/>
<path class="st2" d="M59.7,41.4c-0.2-5.7-5-24.2-21.6-24.3c-12.1-0.1-16.7,6-18.4,9.3c2.7,5.4,3.9,10.9,4,14.7c0,0.6,0,1.7,0.1,3.1
	l3.8,2.6l0.5,43.6h32.1C60.2,90.5,59.8,47.1,59.7,41.4z"/>
<path class="st2" d="M146.4,41.4c-0.2-5.7-5-24.2-21.6-24.3c-12.1-0.1-16.7,6-18.4,9.3c2.7,5.4,3.9,10.9,4,14.7c0,0.6,0,1.7,0.1,3.1
	l3.8,2.6l0.5,43.6h32.1C146.9,90.5,146.5,47.1,146.4,41.4z M137.4,42.2c3.1,0,5.6,2.5,5.6,5.6s-2.5,5.6-5.6,5.6s-5.6-2.5-5.6-5.6
	C131.7,44.7,134.2,42.2,137.4,42.2z M137.5,87.1c-3.1,0-5.6-2.5-5.6-5.6s2.5-5.6,5.6-5.6s5.6,2.5,5.6,5.6S140.6,87.1,137.5,87.1z
	 M137.5,70.9c-3.1,0-5.6-2.5-5.6-5.6s2.5-5.6,5.6-5.6s5.6,2.5,5.6,5.6C143.1,68.3,140.6,70.9,137.5,70.9z"/>
<path class="st0" d="M249.6,59.1c-0.1-3.6-4.6-15.6-15.2-15.6c-10.6,0-14.4,7.3-14.4,7.3l0,0c1.6,3.1,2.5,6.1,2.5,8.1
	c0,0.4,0,1.2,0,2.1l5.1,1.7l0.1,27.7h22.2C249.9,90.4,249.7,62.8,249.6,59.1z"/>
</svg>
