<?xml version="1.0" encoding="utf-8"?>
<!-- Generator: Adobe Illustrator 19.1.0, SVG Export Plug-In . SVG Version: 6.00 Build 0)  -->
<svg version="1.1" id="Calque_1" xmlns="http://www.w3.org/2000/svg" xmlns:xlink="http://www.w3.org/1999/xlink" x="0px" y="0px"
	 viewBox="-345 170.9 500 500" style="enable-background:new -345 170.9 500 500;" xml:space="preserve">
<style type="text/css">
	.st0{fill:#C92A1C;}
	.st1{fill:#1A171B;}
	.st2{fill:#5C5F5F;}
</style>
<polygon class="st0" points="-177.8,399.8 -177.6,445.4 -157.1,445.4 -157.1,399.8 "/>
<path class="st0" d="M-126.1,413.9c-0.1-3.6-4.7-15.5-15.3-15.5c-7.1,0-10.9,3.2-12.7,5.3v11.8l5.9,2.1l0.1,27.7l22.3-0.1
	C-125.7,445.2-126,417.5-126.1,413.9z"/>
<polygon class="st0" points="-16.1,399.8 -15.9,445.4 4.6,445.4 4.6,399.8 "/>
<path class="st0" d="M35.6,413.9c-0.1-3.6-4.7-15.5-15.3-15.5c-7.1,0-10.9,3.2-12.7,5.3v11.8l5.9,2.1l0.1,27.7l22.3-0.1
	C35.9,445.2,35.7,417.5,35.6,413.9z"/>
<polygon class="st0" points="90.7,399.8 91,445.4 111.5,445.4 111.5,399.8 "/>
<path class="st0" d="M142.5,413.9c-0.1-3.6-4.7-15.5-15.3-15.5c-7.1,0-10.9,3.2-12.7,5.3v11.8l5.9,2.1l0.1,27.7l22.3-0.1
	C142.8,445.2,142.6,417.5,142.5,413.9z"/>
<path class="st0" d="M-55.3,398.1c-16.1,0-29.2,10.7-29.2,23.9s13.1,23.9,29.2,23.9c16.1,0,29.2-10.7,29.2-23.9
	C-26.2,408.8-39.2,398.1-55.3,398.1z M-55,429.8c-3.6,0-6.5-3.1-6.5-7c0-3.9,2.9-7,6.5-7c3.6,0,6.5,3.1,6.5,7
	C-48.4,426.7-51.4,429.8-55,429.8z"/>
<polygon class="st0" points="54.6,399.6 54.8,445.3 75.3,445.3 75.3,399.6 "/>
<polygon class="st0" points="90.9,399.6 91.1,445.3 111.6,445.3 111.6,399.6 "/>
<path class="st0" d="M64.9,372.5c-6.7,0-12.2,5.2-12.2,11.6c0,6.4,5.4,11.6,12.2,11.6c6.7,0,12.2-5.2,12.2-11.6
	C77.1,377.6,71.6,372.5,64.9,372.5z"/>
<path class="st1" d="M-316.9,475.4v-15.3h2.2v12.7h5.5v2.6H-316.9z"/>
<path class="st1" d="M-288.3,471.9l2.1,0.5c-0.3,1.1-0.7,2-1.3,2.5s-1.3,0.8-2.2,0.8c-1.2,0-2.1-0.5-2.7-1.4
	c-0.8-1.1-1.1-2.5-1.1-4.4c0-1.9,0.4-3.4,1.1-4.5c0.6-0.9,1.5-1.4,2.5-1.4c1.1,0,2,0.5,2.7,1.5c0.7,1.1,1.1,2.7,1.1,4.9l0,0.3h-5.3
	c0,0.9,0.2,1.6,0.5,2.1c0.3,0.5,0.7,0.7,1.2,0.7C-288.9,473.5-288.5,472.9-288.3,471.9z M-288.1,468.9c0-0.9-0.2-1.5-0.5-1.9
	c-0.3-0.4-0.7-0.6-1.1-0.6c-0.5,0-0.8,0.2-1.1,0.7c-0.3,0.5-0.5,1.1-0.5,1.9L-288.1,468.9L-288.1,468.9z"/>
<path class="st1" d="M-270.3,472.2l2.1-0.5c0.2,1.2,0.7,1.8,1.7,1.8c0.5,0,0.9-0.1,1.1-0.3c0.2-0.2,0.4-0.5,0.4-0.9
	c0-0.2-0.1-0.4-0.2-0.6c-0.1-0.1-0.3-0.3-0.7-0.4c-1.7-0.5-2.8-1-3.3-1.5c-0.6-0.6-0.9-1.4-0.9-2.5c0-1,0.3-1.9,0.9-2.5
	c0.6-0.6,1.4-0.9,2.5-0.9c1,0,1.8,0.2,2.4,0.7c0.5,0.5,0.9,1.2,1.1,2.3l-2,0.5c-0.2-0.9-0.7-1.4-1.5-1.4c-0.5,0-0.9,0.1-1.1,0.3
	c-0.2,0.2-0.3,0.4-0.3,0.7c0,0.2,0.1,0.5,0.3,0.6c0.2,0.2,0.8,0.4,1.9,0.7c1.2,0.4,2,0.8,2.4,1.4c0.4,0.5,0.6,1.3,0.6,2.2
	c0,1.1-0.3,2-1,2.7c-0.6,0.7-1.5,1.1-2.6,1.1c-1,0-1.9-0.3-2.5-0.9C-269.7,474.2-270.1,473.4-270.3,472.2z"/>
<path class="st1" d="M-227.9,472.2l2.1-0.5c0.2,1.2,0.7,1.8,1.7,1.8c0.5,0,0.9-0.1,1.1-0.3c0.3-0.2,0.4-0.5,0.4-0.9
	c0-0.2-0.1-0.4-0.2-0.6c-0.1-0.1-0.3-0.3-0.7-0.4c-1.7-0.5-2.8-1-3.3-1.5c-0.6-0.6-0.9-1.4-0.9-2.5c0-1,0.3-1.9,0.9-2.5
	c0.6-0.6,1.4-0.9,2.5-0.9c1,0,1.8,0.2,2.4,0.7c0.5,0.5,0.9,1.2,1.1,2.3l-2,0.5c-0.2-0.9-0.7-1.4-1.5-1.4c-0.5,0-0.9,0.1-1.1,0.3
	c-0.2,0.2-0.3,0.4-0.3,0.7c0,0.2,0.1,0.5,0.3,0.6c0.2,0.2,0.8,0.4,1.9,0.7c1.2,0.4,2,0.8,2.4,1.4c0.4,0.5,0.6,1.3,0.6,2.2
	c0,1.1-0.3,2-1,2.7c-0.6,0.7-1.5,1.1-2.6,1.1c-1,0-1.9-0.3-2.5-0.9C-227.3,474.2-227.7,473.4-227.9,472.2z"/>
<path class="st1" d="M-204.4,469.7c0-1.1,0.2-2.1,0.6-3c0.4-0.9,0.9-1.6,1.5-2c0.6-0.5,1.3-0.7,2-0.7c1.3,0,2.3,0.6,3,1.7
	c0.7,1.2,1.1,2.5,1.1,4.1c0,1.2-0.2,2.2-0.6,3.1c-0.4,0.9-0.9,1.6-1.5,2.1c-0.6,0.5-1.3,0.7-2,0.7c-1.2,0-2.1-0.5-2.9-1.6
	S-204.4,471.6-204.4,469.7z M-202.3,469.8c0,1.1,0.2,2,0.6,2.6c0.4,0.6,0.8,0.9,1.4,0.9c0.5,0,1-0.3,1.4-0.9
	c0.4-0.6,0.6-1.4,0.6-2.6c0-1.1-0.2-2-0.6-2.5c-0.4-0.6-0.8-0.9-1.4-0.9c-0.5,0-1,0.3-1.4,0.9C-202.1,467.9-202.3,468.7-202.3,469.8
	z"/>
<path class="st1" d="M-179.8,475.4V460h2.1v15.5H-179.8z"/>
<path class="st1" d="M-155.5,475.4v-1.7c-0.3,0.6-0.7,1.1-1.1,1.4c-0.5,0.3-1,0.5-1.5,0.5c-0.5,0-1-0.2-1.4-0.5
	c-0.4-0.3-0.7-0.8-0.9-1.4c-0.2-0.6-0.3-1.4-0.3-2.5v-7.1h2.1v5.1c0,1.5,0,2.4,0.1,2.8s0.2,0.7,0.4,0.9c0.2,0.2,0.5,0.3,0.8,0.3
	c0.4,0,0.7-0.1,1-0.4c0.3-0.3,0.5-0.6,0.6-1.1c0.1-0.4,0.1-1.4,0.1-2.9v-4.7h2.1v11.2L-155.5,475.4L-155.5,475.4z"/>
<path class="st1" d="M-133,464.2v2.3h-1.4v4.5c0,1,0,1.6,0.1,1.7c0.1,0.3,0.3,0.4,0.5,0.4c0.2,0,0.5-0.1,0.8-0.3l0.2,2.3
	c-0.5,0.3-1,0.4-1.6,0.4c-0.5,0-1-0.1-1.3-0.4c-0.3-0.3-0.5-0.7-0.6-1.3c-0.1-0.4-0.1-1.2-0.1-2.5v-4.9h-1v-2.3h1V462l2.1-1.7v4
	L-133,464.2L-133,464.2z"/>
<path class="st1" d="M-116.7,462.7V460h2.1v2.8H-116.7z M-116.7,475.4v-11.2h2.1v11.2H-116.7z"/>
<path class="st1" d="M-98.1,469.7c0-1.1,0.2-2.1,0.6-3c0.4-0.9,0.9-1.6,1.5-2c0.6-0.5,1.3-0.7,2-0.7c1.3,0,2.3,0.6,3,1.7
	c0.7,1.2,1.1,2.5,1.1,4.1c0,1.2-0.2,2.2-0.6,3.1c-0.4,0.9-0.9,1.6-1.5,2.1c-0.6,0.5-1.3,0.7-2,0.7c-1.2,0-2.1-0.5-2.9-1.6
	S-98.1,471.6-98.1,469.7z M-96,469.8c0,1.1,0.2,2,0.6,2.6c0.4,0.6,0.8,0.9,1.4,0.9c0.5,0,1-0.3,1.4-0.9c0.4-0.6,0.6-1.4,0.6-2.6
	c0-1.1-0.2-2-0.6-2.5c-0.4-0.6-0.8-0.9-1.4-0.9c-0.5,0-1,0.3-1.4,0.9C-95.8,467.9-96,468.7-96,469.8z"/>
<path class="st1" d="M-66.4,475.4h-2.1v-5.7c0-1.1,0-1.9-0.1-2.3c-0.1-0.4-0.2-0.7-0.4-0.9c-0.2-0.2-0.5-0.3-0.7-0.3
	c-0.4,0-0.7,0.1-0.9,0.4c-0.3,0.3-0.5,0.6-0.6,1.1c-0.1,0.5-0.2,1.3-0.2,2.6v5.1h-2.1v-11.2h1.9v1.7c0.3-0.6,0.7-1.1,1.2-1.4
	c0.4-0.3,0.9-0.5,1.4-0.5c0.6,0,1.1,0.2,1.5,0.6c0.4,0.4,0.7,0.8,0.9,1.4c0.2,0.6,0.2,1.4,0.2,2.5V475.4z"/>
<path class="st1" d="M-50.1,472.2l2.1-0.5c0.2,1.2,0.7,1.8,1.7,1.8c0.5,0,0.9-0.1,1.1-0.3c0.2-0.2,0.4-0.5,0.4-0.9
	c0-0.2-0.1-0.4-0.2-0.6c-0.1-0.1-0.3-0.3-0.7-0.4c-1.7-0.5-2.8-1-3.3-1.5c-0.6-0.6-0.9-1.4-0.9-2.5c0-1,0.3-1.9,0.9-2.5
	c0.6-0.6,1.4-0.9,2.5-0.9c1,0,1.8,0.2,2.4,0.7c0.5,0.5,0.9,1.2,1.1,2.3l-2,0.5c-0.2-0.9-0.7-1.4-1.5-1.4c-0.5,0-0.9,0.1-1.1,0.3
	c-0.2,0.2-0.3,0.4-0.3,0.7c0,0.2,0.1,0.5,0.3,0.6c0.2,0.2,0.8,0.4,1.9,0.7c1.2,0.4,2,0.8,2.4,1.4c0.4,0.5,0.6,1.3,0.6,2.2
	c0,1.1-0.3,2-1,2.7c-0.6,0.7-1.5,1.1-2.6,1.1c-1,0-1.9-0.3-2.5-0.9C-49.5,474.2-49.9,473.4-50.1,472.2z"/>
<path class="st1" d="M-1.9,479.7v-5.6c-0.3,0.5-0.6,0.9-1,1.2c-0.4,0.3-0.8,0.4-1.3,0.4c-0.9,0-1.6-0.5-2.3-1.5c-0.6-1-1-2.5-1-4.4
	c0-1.8,0.3-3.2,1-4.2c0.6-1,1.4-1.5,2.4-1.5c0.5,0,0.9,0.2,1.3,0.5c0.4,0.3,0.7,0.8,1,1.4v-1.7h1.9v15.5L-1.9,479.7L-1.9,479.7z
	 M-1.8,469.7c0-1.2-0.2-2-0.5-2.6c-0.3-0.5-0.7-0.8-1.2-0.8c-0.5,0-0.9,0.3-1.3,0.9c-0.3,0.6-0.5,1.5-0.5,2.7c0,1.2,0.2,2.1,0.5,2.7
	c0.3,0.5,0.7,0.8,1.2,0.8s0.9-0.3,1.3-0.9S-1.8,470.9-1.8,469.7z"/>
<path class="st1" d="M22.3,475.4v-1.7c-0.3,0.6-0.7,1.1-1.1,1.4c-0.5,0.3-1,0.5-1.5,0.5c-0.5,0-1-0.2-1.4-0.5
	c-0.4-0.3-0.7-0.8-0.9-1.4c-0.2-0.6-0.3-1.4-0.3-2.5v-7.1h2.1v5.1c0,1.5,0,2.4,0.1,2.8c0.1,0.4,0.2,0.7,0.4,0.9
	c0.2,0.2,0.5,0.3,0.8,0.3c0.4,0,0.7-0.1,1-0.4c0.3-0.3,0.5-0.6,0.6-1.1c0.1-0.4,0.1-1.4,0.1-2.9v-4.7h2.1v11.2L22.3,475.4
	L22.3,475.4z"/>
<path class="st1" d="M41.2,465.5l-0.4-2.9V460h2.3v2.6l-0.4,2.9H41.2z"/>
<path class="st1" d="M59.1,469.7c0-1.1,0.2-2.1,0.6-3c0.4-0.9,0.9-1.6,1.5-2c0.6-0.5,1.3-0.7,2-0.7c1.3,0,2.3,0.6,3,1.7
	c0.7,1.2,1.1,2.5,1.1,4.1c0,1.2-0.2,2.2-0.6,3.1c-0.4,0.9-0.9,1.6-1.5,2.1c-0.6,0.5-1.3,0.7-2,0.7c-1.2,0-2.1-0.5-2.9-1.6
	C59.5,473.1,59.1,471.6,59.1,469.7z M61.3,469.8c0,1.1,0.2,2,0.6,2.6c0.4,0.6,0.8,0.9,1.4,0.9c0.5,0,1-0.3,1.4-0.9
	c0.4-0.6,0.6-1.4,0.6-2.6c0-1.1-0.2-2-0.6-2.5c-0.4-0.6-0.8-0.9-1.4-0.9c-0.5,0-1,0.3-1.4,0.9C61.5,467.9,61.3,468.7,61.3,469.8z"/>
<path class="st1" d="M90.9,475.4h-2.1v-5.7c0-1.1,0-1.9-0.1-2.3c-0.1-0.4-0.2-0.7-0.4-0.9c-0.2-0.2-0.5-0.3-0.7-0.3
	c-0.4,0-0.7,0.1-1,0.4c-0.3,0.3-0.5,0.6-0.6,1.1c-0.1,0.5-0.2,1.3-0.2,2.6v5.1h-2.1v-11.2h1.9v1.7c0.3-0.6,0.7-1.1,1.2-1.4
	c0.4-0.3,0.9-0.5,1.4-0.5c0.6,0,1.1,0.2,1.5,0.6c0.4,0.4,0.7,0.8,0.9,1.4c0.2,0.6,0.2,1.4,0.2,2.5L90.9,475.4L90.9,475.4z"/>
<path class="st2" d="M117,462.3l0.8,3.2l1,0.7l0.1,9.4h7c0,0-0.1-9.4-0.1-10.6c0-1.2-1.1-5.2-4.7-5.3
	C117.6,459.9,117,462.3,117,462.3z"/>
<path class="st2" d="M126.4,462.4l0.8,3.3l1,0.7l0.1,9.4h7c0,0-0.1-9.4-0.1-10.6c0-1.2-1.1-5.2-4.7-5.3
	C126.9,459.9,126.4,462.4,126.4,462.4z"/>
<path class="st2" d="M144.5,465.1c0-1.2-1.1-5.2-4.7-5.3c-3.6,0-4.2,2.5-4.2,2.5l0.8,3.3l1,0.7l0.1,9.4h7
	C144.6,475.8,144.6,466.4,144.5,465.1z M142.7,465.3c0.7,0,1.2,0.5,1.2,1.2c0,0.7-0.5,1.2-1.2,1.2c-0.7,0-1.2-0.5-1.2-1.2
	C141.4,465.9,142,465.3,142.7,465.3z M142.7,475c-0.7,0-1.2-0.5-1.2-1.2c0-0.7,0.5-1.2,1.2-1.2c0.7,0,1.2,0.5,1.2,1.2
	C143.9,474.5,143.4,475,142.7,475z M142.7,471.5c-0.7,0-1.2-0.5-1.2-1.2c0-0.7,0.5-1.2,1.2-1.2c0.7,0,1.2,0.5,1.2,1.2
	C143.9,471,143.4,471.5,142.7,471.5z"/>
<path class="st2" d="M-242.1,396.3c-0.2-5.7-5-24.2-21.6-24.3c-12.1-0.1-16.7,6-18.4,9.3c2.7,5.4,3.9,10.9,4,14.7
	c0,0.6,0,1.7,0.1,3.1l3.8,2.6l0.5,43.6h32.1C-241.6,445.4-241.9,402-242.1,396.3z"/>
<path class="st2" d="M-285.3,396.3c-0.2-5.7-5-24.2-21.6-24.3c-12.1-0.1-16.7,6-18.4,9.3c2.7,5.4,3.9,10.9,4,14.7
	c0,0.6,0,1.7,0.1,3.1l3.8,2.6l0.5,43.6h32.1C-284.8,445.4-285.2,402-285.3,396.3z"/>
<path class="st2" d="M-198.6,396.3c-0.2-5.7-5-24.2-21.6-24.3c-12.1-0.1-16.7,6-18.4,9.3c2.7,5.4,3.9,10.9,4,14.7
	c0,0.6,0,1.7,0.1,3.1l3.8,2.6l0.5,43.6h32.1C-198.1,445.4-198.5,402-198.6,396.3z M-207.6,397.1c3.1,0,5.6,2.5,5.6,5.6
	c0,3.1-2.5,5.6-5.6,5.6c-3.1,0-5.6-2.5-5.6-5.6C-213.3,399.6-210.8,397.1-207.6,397.1z M-207.5,442c-3.1,0-5.6-2.5-5.6-5.6
	c0-3.1,2.5-5.6,5.6-5.6c3.1,0,5.6,2.5,5.6,5.6C-201.9,439.5-204.4,442-207.5,442z M-207.5,425.8c-3.1,0-5.6-2.5-5.6-5.6
	c0-3.1,2.5-5.6,5.6-5.6c3.1,0,5.6,2.5,5.6,5.6C-201.9,423.2-204.4,425.8-207.5,425.8z"/>
<path class="st0" d="M-95.4,414c-0.1-3.6-4.6-15.6-15.2-15.6c-10.6,0-14.4,7.3-14.4,7.3v0c1.6,3.1,2.5,6.1,2.5,8.1
	c0,0.4,0,1.2,0,2.1l5.1,1.7l0.1,27.7l22.2,0C-95.1,445.3-95.3,417.7-95.4,414z"/>
</svg>
