<?xml version="1.0" encoding="utf-8"?>
<!-- Generator: Adobe Illustrator 15.0.0, SVG Export Plug-In . SVG Version: 6.00 Build 0)  -->
<!DOCTYPE svg PUBLIC "-//W3C//DTD SVG 1.1//EN" "http://www.w3.org/Graphics/SVG/1.1/DTD/svg11.dtd">
<svg version="1.1" id="Calque_1" xmlns="http://www.w3.org/2000/svg" xmlns:xlink="http://www.w3.org/1999/xlink" x="0px" y="0px"
	 width="500px" height="500px" viewBox="0 0 500 500" enable-background="new 0 0 500 500" xml:space="preserve">
<g>
	<g>
		<path fill="#000F68" d="M167.663,229.799h18.08l6.908,28.325l6.926-28.325h18.013v46.535h-11.212v-35.461l-8.665,35.461h-10.19
			l-8.647-35.461v35.461h-11.212V229.799z"/>
		<path fill="#000F68" d="M223.642,253.284c0-7.494,1.972-13.326,5.932-17.502c3.968-4.169,9.488-6.266,16.551-6.266
			c7.257,0,12.833,2.055,16.761,6.155c3.919,4.108,5.883,9.855,5.883,17.238c0,5.37-0.855,9.769-2.569,13.196
			c-1.712,3.436-4.194,6.104-7.435,8.014c-3.233,1.91-7.273,2.863-12.106,2.863c-4.914,0-8.97-0.818-12.188-2.471
			c-3.224-1.646-5.835-4.254-7.839-7.828C224.644,263.121,223.642,258.654,223.642,253.284z M239.351,253.353
			c0,4.62,0.607,7.944,1.842,9.965c1.233,2.021,2.905,3.026,5.025,3.026c2.175,0,3.853-0.988,5.05-2.967
			c1.196-1.977,1.792-5.523,1.792-10.646c0-4.306-0.625-7.461-1.872-9.455c-1.238-1.978-2.928-2.985-5.067-2.985
			c-2.041,0-3.682,1.015-4.915,3.035C239.971,245.347,239.351,248.689,239.351,253.353z"/>
		<polygon fill="#000F68" points="305.729,230.271 300.721,230.271 270.371,230.271 270.371,241.015 280.978,241.015 
			280.978,276.146 293.236,276.146 293.236,241.015 300.721,241.015 305.729,241.015 313.213,241.015 313.213,276.146 
			325.47,276.146 325.47,241.015 335.784,241.015 335.784,230.271 		"/>
		<path fill="#000F68" d="M365.81,230.082h12.258v30.18c0,2.351-0.368,4.567-1.097,6.645c-0.729,2.084-1.878,3.904-3.441,5.467
			c-1.561,1.561-3.204,2.658-4.92,3.285c-2.388,0.883-5.244,1.324-8.588,1.324c-1.933,0-4.038-0.133-6.329-0.398
			c-2.283-0.277-4.19-0.809-5.723-1.611c-1.533-0.803-2.947-1.945-4.214-3.426c-1.274-1.473-2.149-3.004-2.616-4.566
			c-0.758-2.534-1.142-4.767-1.142-6.719v-30.18h12.259v30.754c0,2.166,0.597,3.861,1.798,5.068
			c1.199,1.223,2.864,1.826,4.994,1.826c2.106,0,3.763-0.596,4.964-1.797c1.194-1.193,1.797-2.902,1.797-5.098V230.082z"/>
		<path fill="#000F68" d="M384.839,276.334v-46.315h21.831c4.042,0,7.141,0.377,9.279,1.133c2.139,0.767,3.86,2.165,5.174,4.228
			c1.313,2.043,1.966,4.542,1.966,7.49c0,2.568-0.503,4.776-1.501,6.648c-1.007,1.856-2.385,3.367-4.137,4.519
			c-1.116,0.739-2.651,1.357-4.593,1.838c1.558,0.567,2.697,1.134,3.405,1.71c0.479,0.386,1.179,1.193,2.091,2.449
			c0.913,1.235,1.526,2.197,1.833,2.885l6.361,13.416h-14.784l-7.021-14.172c-0.888-1.839-1.683-3.023-2.376-3.574
			c-0.95-0.721-0.885-1.082-2.08-1.082h-1.164v18.828H384.839z M399.123,248.779h4.394c0.597,0,1.754-0.207,3.476-0.628
			c0.864-0.188,1.572-0.677,2.123-1.451c0.551-0.782,0.825-1.675,0.825-2.689c0-1.494-0.432-2.636-1.306-3.444
			c-0.863-0.799-2.492-1.202-4.891-1.202h-4.621V248.779z"/>
		<path fill="#000F68" d="M457.437,268.77h-13.871l-1.987,7.564h-12.523l14.925-45.938h13.457l14.813,45.938h-12.838L457.437,268.77
			z M454.845,258.817l-4.309-16.512l-4.347,16.512H454.845z"/>
	</g>
	<polygon fill="#000F68" points="125.787,181.452 125.787,210.854 109.008,181.452 101.656,181.452 94.304,181.452 77.526,210.854 
		77.526,181.452 44.261,181.452 44.834,241.788 88.849,241.788 101.656,215.095 114.464,241.788 158.479,241.788 159.052,181.452 	
		"/>
	<polygon fill="#33AF00" points="125.787,328.479 125.787,299.076 109.008,328.479 101.656,328.479 94.304,328.479 77.526,299.076 
		77.526,328.479 44.261,328.479 44.834,268.143 88.849,268.143 101.656,294.834 114.464,268.143 158.479,268.143 159.052,328.479 	
		"/>
	<polygon fill="#33AF00" points="101.374,226.123 86.387,254.965 101.374,283.523 115.795,254.965 	"/>
	<g>
		<path fill="#33AF00" d="M463.027,345.166H42.276c-16.06,0-29.125-13.064-29.125-29.125V193.888
			c0-16.06,13.065-29.125,29.125-29.125h420.75c16.06,0,29.125,13.065,29.125,29.125v122.153
			C492.152,332.102,479.086,345.166,463.027,345.166z M42.276,172.115c-12.005,0-21.772,9.768-21.772,21.773v122.153
			c0,12.006,9.767,21.773,21.772,21.773h420.75c12.006,0,21.773-9.768,21.773-21.773V193.888c0-12.005-9.768-21.773-21.773-21.773
			H42.276z"/>
	</g>
</g>
</svg>
