<?xml version="1.0" encoding="utf-8"?>
<!-- Generator: Adobe Illustrator 19.1.0, SVG Export Plug-In . SVG Version: 6.00 Build 0)  -->
<svg version="1.1" id="Calque_1" xmlns="http://www.w3.org/2000/svg" xmlns:xlink="http://www.w3.org/1999/xlink" x="0px" y="0px"
	 viewBox="-345 170.9 500 500" style="enable-background:new -345 170.9 500 500;" xml:space="preserve">
<style type="text/css">
	.st0{fill:#D8D9DA;}
	.st1{fill:#1A171B;}
	.st2{fill:#FFFFFF;}
	.st3{fill:#E1001A;}
	.st4{fill:#C5C6C8;}
	.st5{fill:#9B9C9E;}
	.st6{fill:#868789;}
	.st7{fill:#B0B2B3;}
</style>
<g>
	<path class="st0" d="M-294.3,363.2c-19.8,0-29.6,11.6-29.6,11.6s-0.8,19.6-0.2,21.6c0.6,2,11.6,8.4,15.1,10.4
		c3.5,2,6.9,6.3,6.9,10.4c0,4.1-5.5,10-5.5,10l0.2,49.6h2.8v-3.9h3.7v-10.2h3.3v5.9h3.5v-10.8h3.5v8.8h3.3v5.5h3.3v4.5h6.5v-24.7
		h3.3v-11.2h-5.9v-13.3c0,0-6.3-4.3-6.3-10.2c0-5.9,11.8-13.9,16.1-15.5c4.3-1.6,8-5.1,8-5.1v-18.2
		C-262.1,378.3-274.5,363.2-294.3,363.2z M-273.1,388.5h-39.2V381c0,0,5.9-6.9,18.8-6.9s20.4,6.5,20.4,6.5L-273.1,388.5
		L-273.1,388.5z"/>
	<path class="st1" d="M-304.1,477.4h-3.9l-0.2-50.5l0.2-0.2c0.1-0.1,5.3-5.8,5.3-9.6c0-4.1-3.4-8.1-6.6-9.9
		c-0.1-0.1-14.6-8.1-15.4-10.7c-0.6-2,0.1-19.8,0.2-21.8l0-0.2l0.1-0.2c0.1-0.1,10.2-11.8,30.1-11.8c10.4,0,18.7,4.2,23.8,7.7
		c4.9,3.3,8.9,7.5,8.9,8v18.5l-0.2,0.2c-0.2,0.1-3.9,3.6-8.2,5.2c-4,1.5-15.7,9.3-15.7,14.9c0,5.5,6,9.7,6,9.7l0.3,0.2v13.1h5.9
		v12.4h-3.3v24.7h-7.7v-4.5h-3.3v-5.5h-3.3v-8.8h-2.4v10.8h-4.7v-5.9h-2.2v10.2h-3.7V477.4z M-306.8,476.2h1.6v-3.9h3.7v-10.2h4.5
		v5.9h2.4v-10.8h4.7v8.8h3.3v5.5h3.3v4.5h5.3v-24.7h3.3v-10h-5.9v-13.6c-1.2-0.9-6.3-5-6.3-10.5c0-3.5,3.6-7.3,6.6-9.8
		c3.6-3.1,7.7-5.5,9.8-6.2c3.6-1.3,6.9-4.1,7.7-4.8v-17.8c-1.4-1.6-13.3-14.7-31.6-14.7c-18.1,0-27.8,9.9-29,11.2
		c-0.3,7.9-0.6,19.8-0.2,21.2c0.4,1.4,9,6.8,14.8,10.1c3.5,1.9,7.2,6.4,7.2,10.9c0,3.9-4.6,9.2-5.5,10.2L-306.8,476.2z
		 M-272.5,389.1h-40.4v-8.3l0.1-0.2c0.2-0.3,6.2-7.1,19.3-7.1c13,0,20.5,6.3,20.8,6.6l0.2,0.2V389.1z M-311.7,387.9h38.1l0-7
		c-1.3-1-8.4-6.2-19.8-6.2c-11.5,0-17.3,5.5-18.2,6.5V387.9z"/>
</g>
<g>
	<path class="st2" d="M-233,386.1h10.6v-8.4c0,0-2.4-5.7-13-5.7c-10.6,0-13.2,7.5-13.2,12.8c0,5.3,1.5,9.7,8.4,12.3
		c6.8,2.6,7,3.5,7,5.7c0,2.2,0.1,4.2-1.8,4.2c-1.8,0-2-1.5-2-1.5l0-4.5h-11.7v9.5c0,0,0.4,5.9,13,5.9c12.5,0,14.7-12.1,14.7-14.3
		c0-2.2-2.2-11.2-10.8-13.2c-8.6-2-5.3-7.7-3.5-7.7c1.8,0,2.4,1.8,2.4,1.8L-233,386.1z"/>
	<path class="st1" d="M-235.6,417.2c-13,0-13.7-6.3-13.7-6.6l0-10.2h13.1l0,5.2c0,0.1,0.2,0.8,1.3,0.8c0.4,0,0.5-0.1,0.6-0.2
		c0.4-0.4,0.4-1.7,0.4-3l0-0.3c0-1.8,0-2.5-6.6-5.1c-7.8-3-8.8-8.2-8.8-13c0-6.5,3.7-13.5,13.9-13.5c10.9,0,13.5,5.9,13.6,6.1
		l0.1,0.1v9.2h-12l0.3-3.7c-0.2-0.3-0.7-1.2-1.7-1.2c-0.3,0-1.3,0.8-1.4,2c-0.2,1.9,1.6,3.5,5.1,4.3c9.4,2.2,11.3,12,11.3,13.9
		C-220.2,405.1-223,417.2-235.6,417.2z M-247.9,410.5c0,0,0.7,5.2,12.3,5.2c11.5,0,14-10.9,14-13.6c0-1.6-1.9-10.6-10.2-12.5
		c-6-1.4-6.3-4.5-6.2-5.8c0.2-1.7,1.5-3.3,2.8-3.3c2.2,0,3,2.1,3.1,2.2l0.1,0.1l-0.2,2.5h9.1v-7.5c-0.4-0.8-3.1-5.2-12.3-5.2
		c-11.6,0-12.5,9.2-12.5,12c0,4.5,1,9,7.9,11.7c6.9,2.7,7.5,3.7,7.5,6.4l0,0.3c0,1.6,0,3.1-0.8,4c-0.4,0.4-0.9,0.6-1.6,0.6
		c-2,0-2.6-1.4-2.7-2.1l0-3.8h-10.2V410.5L-247.9,410.5z"/>
</g>
<g>
	<path class="st2" d="M-17.3,386.1h10.6v-8.4c0,0-2.4-5.7-13-5.7c-10.5,0-13.2,7.5-13.2,12.8c0,5.3,1.5,9.7,8.4,12.3
		c6.8,2.6,7,3.5,7,5.7c0,2.2,0.1,4.2-1.8,4.2c-1.8,0-2-1.5-2-1.5l0-4.5h-11.7v9.5c0,0,0.4,5.9,13,5.9c12.5,0,14.7-12.1,14.7-14.3
		C-5.2,400-7.4,391-16,389c-8.6-2-5.3-7.7-3.5-7.7c1.8,0,2.4,1.8,2.4,1.8L-17.3,386.1z"/>
	<path class="st1" d="M-20,417.2c-13,0-13.7-6.3-13.7-6.6l0-10.2h13.1l0,5.2c0,0.1,0.2,0.8,1.3,0.8c0.4,0,0.5-0.1,0.6-0.2
		c0.4-0.4,0.4-1.7,0.4-3v-0.3c0-1.8,0-2.5-6.6-5.1c-7.8-3-8.8-8.2-8.8-13c0-6.5,3.7-13.5,13.9-13.5c10.9,0,13.5,5.9,13.6,6.1
		l0.1,0.1v9.2h-12l0.3-3.7c-0.2-0.3-0.7-1.2-1.7-1.2c-0.3,0-1.3,0.8-1.4,2c-0.2,1.9,1.6,3.5,5.1,4.3c9.4,2.2,11.3,12,11.3,13.9
		C-4.5,405.1-7.3,417.2-20,417.2z M-32.2,410.5c0,0,0.7,5.2,12.3,5.2c11.5,0,14-10.9,14-13.6c0-1.6-1.9-10.6-10.2-12.5
		c-6-1.4-6.3-4.5-6.2-5.8c0.2-1.7,1.5-3.3,2.8-3.3c2.2,0,3,2.1,3.1,2.2l0.1,0.1l-0.2,2.5h9.1v-7.5c-0.4-0.8-3.1-5.2-12.3-5.2
		c-11.6,0-12.5,9.2-12.5,12c0,4.5,1,9,7.9,11.7c6.6,2.6,7.5,3.6,7.5,6.4l0,0.3c0,1.6,0,3.1-0.9,4c-0.4,0.4-0.9,0.6-1.6,0.6
		c-2,0-2.6-1.4-2.7-2.1l0-3.8h-10.2V410.5L-32.2,410.5z"/>
</g>
<g>
	<path class="st2" d="M-201.3,387.7h9.6v-14.5h-26.3v8.3l1.2,0.7v24.1l-1.2,0.9v9.2h26.1v-15.9h-9.2c0,0,0.2,7.3-4.9,5.9v-7.8h7.1
		v-8.8h-7.3v-8C-206.2,381.6-200.9,380.2-201.3,387.7z"/>
	<path class="st1" d="M-191.1,417h-27.5v-10.3l1.2-0.9v-23.4l-1.2-0.7v-9.4h27.7v15.9H-202l0-0.7c0.1-2.3-0.3-4-1.3-4.8
		c-0.7-0.6-1.6-0.7-2.2-0.6v6.7h7.3v10.2h-7.1v6.6c0.8,0.1,1.4,0,1.9-0.4c1.4-1.1,1.6-3.9,1.6-4.9l0-0.7l10.6,0V417z M-217.2,415.6
		h24.7v-14.5h-7.8c-0.1,1.3-0.4,4-2.1,5.3c-1,0.8-2.2,1-3.7,0.6l-0.5-0.1v-9.1h7.1v-7.4h-7.3v-10.2l0.9,0.7c0.7-0.1,2.3-0.2,3.6,0.9
		c1.2,1,1.9,2.8,1.8,5.2h8.2v-13.1h-24.9v7.2l1.2,0.7v24.9l-1.2,0.9V415.6z"/>
</g>
<g>
	<path class="st2" d="M-45.8,387.7h9.6v-14.5h-26.3v8.3l1.2,0.7v24.1l-1.2,0.9v9.2h26.1v-15.9h-9.2c0,0,0.2,7.3-4.9,5.9v-7.8h7.1
		v-8.8h-7.3v-8C-50.7,381.6-45.4,380.2-45.8,387.7z"/>
	<path class="st1" d="M-35.6,417h-27.5v-10.3l1.2-0.9v-23.4l-1.2-0.7v-9.4h27.7v15.9h-11.1l0-0.7c0.1-2.3-0.3-4-1.3-4.8
		c-0.7-0.6-1.6-0.7-2.2-0.6v6.7h7.3v10.2h-7.1v6.6c0.8,0.1,1.4,0,1.9-0.4c1.4-1.1,1.6-3.9,1.6-4.9l0-0.7l10.7,0V417z M-61.7,415.6
		h24.7v-14.5h-7.8c-0.1,1.3-0.4,4-2.1,5.3c-1,0.8-2.2,1-3.7,0.6l-0.5-0.1v-9.1h7.1v-7.4h-7.3v-10.2l0.9,0.7c0.7-0.1,2.3-0.2,3.6,0.9
		c1.2,1,1.9,2.8,1.8,5.2h8.2v-13.1h-24.9v7.2l1.2,0.7v24.9l-1.2,0.9V415.6z"/>
</g>
<g>
	<path class="st3" d="M98,387.7h9.6v-14.5H81.3v8.3l1.2,0.7v24.1l-1.2,0.9v9.2h26.1v-15.9h-9.2c0,0,0.2,7.3-4.9,5.9v-7.8h7.1v-8.8
		h-7.3v-8C93.1,381.6,98.4,380.2,98,387.7z"/>
	<path class="st1" d="M108,416.9H80.7v-10.1l1.2-0.9v-23.5l-1.2-0.7v-9.2h27.5v15.7H97.3l0-0.6c0.1-2.4-0.3-4-1.4-4.9
		c-0.8-0.7-1.8-0.7-2.4-0.7v7h7.3v10h-7.1v6.8c0.9,0.1,1.5,0,2.1-0.4c1.4-1.1,1.7-4,1.6-5l0-0.6H108V416.9z M81.9,415.7h24.9V401
		h-8.1c-0.1,1.2-0.4,4-2.1,5.3c-0.9,0.7-2.1,0.9-3.6,0.5l-0.4-0.1v-8.9h7.1v-7.7h-7.3v-8.6l0.6-0.1l-0.1-0.4
		c0.2-0.1,2.3-0.5,3.9,0.8c1.2,1,1.8,2.8,1.8,5.2h8.4v-13.3H81.9v7.4l1.2,0.7v24.8l-1.2,0.9V415.7z"/>
</g>
<g>
	<path class="st3" d="M136.5,416.3h-26.1v-9.2l1.2-0.9v-24.1l-1.2-0.7v-8.3H123v7.6l-1.3,1.2l-0.2,24.1c0,0,1.2,1.3,2.6,1.3
		c1.3,0,2.2-2.8,2.2-2.8v-9h10.3L136.5,416.3z"/>
	<path class="st1" d="M137.1,416.9h-27.3v-10.1l1.2-0.9v-23.5l-1.2-0.7v-9.2h13.8v8.4l-1.3,1.2l-0.2,23.6c0.4,0.4,1.2,1,2,1
		c0.6,0,1.3-1.3,1.6-2.3V395h11.5L137.1,416.9z M111,415.8h24.9l0-19.5h-9.1l0,8.6c-0.2,0.5-1.1,3.2-2.8,3.2c-1.6,0-2.9-1.5-3-1.5
		l-0.2-0.2l0.2-24.6l1.3-1.2v-6.8H111v7.4l1.2,0.7v24.8l-1.2,0.9V415.8z"/>
</g>
<g>
	<path class="st2" d="M-161.5,407.4c0,0-0.1-7.1-0.9-9.9c-0.8-2.8-3.4-3.2-3.4-3.2s5-0.7,5-10.5c0-9.9-8.7-11.4-8.7-11.4h-20.2v8.1
		h1.5l0.3,27.4h-1.8v8h14.6v-8.4h-1.4V399c3-0.2,3.6,2,3.6,2v15h13v-8.6L-161.5,407.4L-161.5,407.4z M-176.8,390.2v-8.5
		c0,0,4.9-0.3,4.9,4.3C-171.9,390.6-176.8,390.2-176.8,390.2z"/>
	<path class="st1" d="M-174.5,416.8h-16v-9.5h1.8l-0.3-26h-1.5v-9.6l21,0c0.1,0,9.3,1.8,9.3,12.1c0,6.6-2.2,9.4-3.8,10.5
		c0.9,0.5,1.9,1.4,2.3,3c0.6,2.3,0.8,7.5,0.9,9.4h1.5v10h-14.4v-15.6c-0.1-0.3-0.7-1.3-2.2-1.4v7.2h1.4V416.8z M-189,415.4h13.2v-7
		h-1.4v-10l0.7,0c2.8-0.2,4.1,1.6,4.4,2.5l0,0.2v14.3h11.6v-7.2h-0.8v-0.7l-0.7,0c0-0.1-0.1-7-0.8-9.7c-0.6-2.3-2.8-2.6-2.9-2.6
		l0-1.4c0.2,0,4.4-0.8,4.4-9.8c0-8.9-7.3-10.5-8.1-10.7H-189v6.7h1.5l0.3,28.8h-1.8V415.4z M-176.5,390.9c-0.2,0-0.3,0-0.3,0
		l-0.7-0.1V381l0.7,0c0.1,0,2.6-0.1,4.2,1.4c0.9,0.9,1.4,2.1,1.4,3.6s-0.5,2.7-1.4,3.6C-173.9,390.8-175.8,390.9-176.5,390.9z
		 M-176.1,382.4v7.1c0.7-0.1,1.8-0.3,2.5-1c0.6-0.6,0.9-1.4,0.9-2.5c0-1.1-0.3-2-1-2.6C-174.3,382.7-175.4,382.5-176.1,382.4z"/>
</g>
<g>
	<path class="st2" d="M-129.6,407.4c0,0-0.1-7.1-0.9-9.9c-0.8-2.8-3.4-3.2-3.4-3.2s5-0.7,5-10.5c0-9.9-8.7-11.4-8.7-11.4h-20.2v8.1
		h1.5l0.3,27.4h-1.8v8h14.6v-8.4h-1.4V399c3-0.2,3.6,2,3.6,2v15h13v-8.6L-129.6,407.4L-129.6,407.4z M-144.9,390.2v-8.5
		c0,0,4.9-0.3,4.9,4.3C-140,390.6-144.9,390.2-144.9,390.2z"/>
	<path class="st1" d="M-142.6,416.8h-16v-9.5h1.8l-0.3-26h-1.5v-9.6l21,0c0.1,0,9.3,1.8,9.3,12.1c0,6.6-2.2,9.4-3.9,10.5
		c0.9,0.5,1.9,1.4,2.3,3c0.6,2.3,0.8,7.5,0.9,9.3h1.6v10h-14.4v-15.6c-0.1-0.3-0.7-1.3-2.2-1.4v7.2h1.4V416.8z M-157.1,415.4h13.1
		v-7h-1.4v-10l0.7,0c2.8-0.2,4.1,1.6,4.4,2.5l0,0.2v14.3h11.6v-7.2h-0.8v-0.7l-0.7,0c0-0.1-0.1-7-0.8-9.7c-0.6-2.3-2.8-2.6-2.9-2.6
		l0-1.4c0.2,0,4.4-0.8,4.4-9.8c0-8.8-7.3-10.5-8.1-10.7h-19.4v6.7h1.5l0.3,28.8h-1.8V415.4z M-144.6,390.9c-0.2,0-0.3,0-0.3,0
		l-0.7-0.1V381l0.7,0c0.1,0,2.6-0.1,4.2,1.4c0.9,0.9,1.4,2.1,1.4,3.6c0,1.5-0.5,2.7-1.4,3.6C-142,390.8-143.9,390.9-144.6,390.9z
		 M-144.2,382.4v7.1c0.7-0.1,1.8-0.3,2.5-1c0.6-0.6,0.9-1.4,0.9-2.5c0-1.1-0.3-2-1-2.6C-142.4,382.7-143.5,382.5-144.2,382.4z"/>
</g>
<g>
	<path class="st2" d="M-67.2,407.4c0,0-0.1-7.1-0.9-9.9c-0.8-2.8-3.5-3.2-3.5-3.2s5-0.7,5-10.5c0-9.9-8.7-11.4-8.7-11.4h-20.2v8.1
		h1.5l0.3,27.4h-1.8v8h14.6v-8.4h-1.4V399c3-0.2,3.6,2,3.6,2v15h13v-8.6L-67.2,407.4L-67.2,407.4z M-82.6,390.2v-8.5
		c0,0,4.9-0.3,4.9,4.3C-77.7,390.6-82.6,390.2-82.6,390.2z"/>
	<path class="st1" d="M-80.2,416.8h-16v-9.5h1.8l-0.3-26h-1.5v-9.6l21,0c0.1,0,9.3,1.8,9.3,12.1c0,6.6-2.2,9.4-3.9,10.5
		c0.9,0.5,1.9,1.4,2.3,3c0.6,2.3,0.8,7.5,0.9,9.4h1.5v10h-14.4v-15.6c-0.1-0.3-0.7-1.3-2.2-1.4v7.2h1.4V416.8z M-94.8,415.4h13.1v-7
		h-1.4v-10l0.7,0c2.8-0.2,4.1,1.6,4.4,2.5l0,0.2v14.3h11.6v-7.2h-0.8v-0.7l-0.7,0c0-0.1-0.1-7-0.8-9.7c-0.6-2.3-2.8-2.6-2.9-2.6
		l0-1.4c0.2,0,4.4-0.8,4.4-9.8c0-8.8-7.3-10.5-8.1-10.7h-19.4v6.7h1.5l0.3,28.8h-1.8V415.4z M-82.3,390.9c-0.2,0-0.3,0-0.3,0
		l-0.7-0.1V381l0.7,0c0.1,0,2.6-0.1,4.2,1.4c0.9,0.9,1.4,2.1,1.4,3.6c0,1.5-0.5,2.7-1.4,3.6C-79.7,390.8-81.5,390.9-82.3,390.9z
		 M-81.8,382.4v7.1c0.7-0.1,1.8-0.3,2.5-1c0.6-0.6,0.9-1.4,0.9-2.5c0-1.1-0.3-2-1-2.6C-80.1,382.7-81.2,382.5-81.8,382.4z"/>
</g>
<g>
	<path class="st2" d="M-124.6,381.1h-1.4v-8.5h14v8.2h-1.3v23.8c0,0-0.1,2.7,2.3,2.7c2.4,0,2.8-2.7,2.8-2.7v-23.9h-2.1v-8.1h12.7
		v9.4h-1.4v26.3c0,0-1.6,8.5-12.5,8.5c-10.8,0-13.2-10.1-13.2-10.1L-124.6,381.1z"/>
	<path class="st1" d="M-111.6,417.5c-11.3,0-13.9-10.5-13.9-10.6l0-0.1l0-0.1l0.2-25h-1.4v-9.9h15.4v9.7h-1.3v23.1
		c0,0.3,0.1,1.1,0.5,1.6c0.3,0.3,0.6,0.4,1.1,0.4c1.8,0,2.1-2,2.1-2.1l0-23.1h-2.1v-9.6H-97v10.8h-1.4l0,25.8
		C-98.4,408.5-100.3,417.5-111.6,417.5z M-124.1,406.7c0.3,1,2.8,9.4,12.5,9.4c9.7,0,11.6-7.1,11.7-7.9v-27h1.4v-8h-11.3v6.7h2.1
		v24.6c-0.2,1.2-1.1,3.4-3.5,3.4c-0.8,0-1.6-0.3-2.1-0.8c-0.9-1-0.9-2.4-0.9-2.6v-24.4h1.3v-6.8h-12.6v7.1h1.4L-124.1,406.7z"/>
</g>
<g>
	<path class="st3" d="M51.5,381.1h-1.4v-8.5h14v8.2h-1.3v23.8c0,0-0.1,2.7,2.3,2.7s2.8-2.7,2.8-2.7v-23.9h-2.1v-8.1h12.7v9.4H77
		v26.3c0,0-1.6,8.5-12.5,8.5c-10.8,0-13.2-10.1-13.2-10.1L51.5,381.1z"/>
	<path class="st1" d="M64.6,417.4c-11.2,0-13.8-10.4-13.8-10.5l0-0.1l0.2-25.1h-1.4V372h15.2v9.4h-1.3v23.2c0,0,0,1.1,0.6,1.7
		c0.3,0.3,0.7,0.4,1.2,0.4c1.9,0,2.2-2.1,2.2-2.2l0-23.2h-2.1V372H79v10.6h-1.4l0,25.9C77.6,408.5,75.7,417.4,64.6,417.4z
		 M51.9,406.7c0.2,0.9,2.8,9.5,12.6,9.5c9.8,0,11.7-7.3,11.9-8v-26.9h1.4v-8.2H66.3v7h2.1v24.4c-0.2,1.2-1.1,3.3-3.4,3.3
		c-0.8,0-1.5-0.3-2-0.8c-0.9-1-0.9-2.4-0.9-2.5l0-24.3h1.3v-7.1H50.7v7.4h1.4L51.9,406.7z"/>
</g>
<g>
	<polygon class="st3" points="21.2,393.7 21.2,407.6 22.3,407.6 22.3,415.1 11.3,415.1 11.3,408.2 12.9,408.2 12.9,380.9 
		11.5,380.9 11.5,373.4 24.7,373.4 28.6,388.3 33.5,373.6 46.4,373.6 46.4,380.8 44.8,380.8 44.8,407.9 46.3,407.9 46.3,415.3 
		33.9,415.3 33.9,407.8 35.4,407.8 35.4,392.9 34.1,392.9 29,414.9 26.9,414.9 22.5,393.6 	"/>
	<path class="st1" d="M46.9,415.8H33.3v-8.6h1.5v-13.8h-0.3l-5,22h-3L22,394.2l-0.2,0V407h1v8.6H10.7v-8h1.6v-26.2h-1.4v-8.6h14.3
		l3.4,13.4l4.5-13.2h13.9v8.3h-1.5v26h1.4V415.8z M34.5,414.7h11.2v-6.2h-1.4v-28.3h1.5v-6H33.9l-5.5,16.1L24.3,374H12.1v6.3h1.4
		v28.5h-1.6v5.7h9.8v-6.3h-1v-15.1l2.3-0.1l4.5,21.3h1.2l5-22H36v16.1h-1.5V414.7z"/>
</g>
<path class="st4" d="M-296.4,414.2v9.4c0,0-0.8,2-5.5,4.9c-4.7,2.9-5.5,3.1-5.5,3.1v-4.5c0,0,5.5-7.7,5.5-9.2L-296.4,414.2z"/>
<polygon class="st5" points="-284.8,440.9 -284.8,447.3 -289.4,456.8 -296.4,456.8 "/>
<polygon class="st6" points="-306.8,458.7 -303.6,455.5 -300.7,455.5 -307,466 "/>
<polygon class="st7" points="-279.4,388.5 -277,396.1 -273.1,388.5 "/>
<path class="st7" d="M-262.1,379.1v17.5l-2.2,1.6l-6.3-6.9C-270.5,391.2-262.7,384.2-262.1,379.1z"/>
<path class="st1" d="M-304.1,477.4h-3.9l-0.2-50.5l0.2-0.2c0.1-0.1,5.3-5.8,5.3-9.6c0-4.1-3.4-8.1-6.6-9.9
	c-0.1-0.1-14.6-8.1-15.4-10.7c-0.6-2,0.1-19.8,0.2-21.8l0-0.2l0.1-0.2c0.1-0.1,10.2-11.8,30.1-11.8c10.4,0,18.7,4.2,23.8,7.7
	c4.9,3.3,8.9,7.5,8.9,8v18.5l-0.2,0.2c-0.2,0.1-3.9,3.6-8.2,5.2c-4,1.5-15.7,9.3-15.7,14.9c0,5.5,6,9.7,6,9.7l0.3,0.2v13.1h5.9v12.4
	h-3.3v24.7h-7.7v-4.5h-3.3v-5.5h-3.3v-8.8h-2.4v10.8h-4.7v-5.9h-2.2v10.2h-3.7V477.4z M-306.8,476.2h1.6v-3.9h3.7v-10.2h4.5v5.9h2.4
	v-10.8h4.7v8.8h3.3v5.5h3.3v4.5h5.3v-24.7h3.3v-10h-5.9v-13.6c-1.2-0.9-6.3-5-6.3-10.5c0-3.5,3.6-7.3,6.6-9.8
	c3.6-3.1,7.7-5.5,9.8-6.2c3.6-1.3,6.9-4.1,7.7-4.8v-17.8c-1.4-1.6-13.3-14.7-31.6-14.7c-18.1,0-27.8,9.9-29,11.2
	c-0.3,7.9-0.6,19.8-0.2,21.2c0.4,1.4,9,6.8,14.8,10.1c3.5,1.9,7.2,6.4,7.2,10.9c0,3.9-4.6,9.2-5.5,10.2L-306.8,476.2z M-272.5,389.1
	h-40.4v-8.3l0.1-0.2c0.2-0.3,6.2-7.1,19.3-7.1c13,0,20.5,6.3,20.8,6.6l0.2,0.2V389.1z M-311.7,387.9h38.1l0-7
	c-1.3-1-8.4-6.2-19.8-6.2c-11.5,0-17.3,5.5-18.2,6.5V387.9z"/>
<path class="st1" d="M-305.4,399.5v-5.2h1.3l1.6,3.7c0.1,0.3,0.3,0.6,0.3,0.8c0.1-0.2,0.2-0.5,0.4-0.8l1.6-3.6h1.2v5.2h-0.9v-4.4
	l-2,4.4h-0.8l-2-4.5v4.5H-305.4z"/>
<path class="st1" d="M-293.1,394.3h0.9v3c0,0.5-0.1,0.9-0.2,1.3c-0.1,0.3-0.4,0.6-0.8,0.8c-0.4,0.2-0.9,0.3-1.6,0.3
	c-0.6,0-1.1-0.1-1.5-0.3c-0.4-0.2-0.7-0.4-0.9-0.7c-0.2-0.3-0.3-0.8-0.3-1.3v-3h0.9v3c0,0.5,0.1,0.8,0.2,1c0.1,0.2,0.3,0.4,0.6,0.5
	c0.3,0.1,0.6,0.2,1,0.2c0.7,0,1.1-0.1,1.4-0.3c0.3-0.2,0.4-0.7,0.4-1.3L-293.1,394.3L-293.1,394.3z"/>
<path class="st1" d="M-290.7,399.5v-5.2h4.9v0.6h-4v1.6h3.7v0.6h-3.7v1.8h4.1v0.6L-290.7,399.5L-290.7,399.5z"/>
<path class="st1" d="M-284.5,399.5v-5.2h0.9v4.6h3.3v0.6H-284.5z"/>
<path class="st1" d="M-320.7,388.8l0.7-0.1c0,0.4,0.1,0.7,0.2,0.9c0.1,0.2,0.3,0.2,0.6,0.2c0.2,0,0.3,0,0.5-0.1
	c0.1-0.1,0.2-0.2,0.3-0.3c0.1-0.1,0.1-0.4,0.1-0.7v-3.8h0.7v3.7c0,0.5-0.1,0.8-0.2,1.1c-0.1,0.3-0.3,0.4-0.5,0.6
	c-0.2,0.1-0.5,0.2-0.8,0.2c-0.5,0-0.9-0.1-1.1-0.4C-320.6,389.8-320.7,389.4-320.7,388.8z"/>
<path class="st1" d="M-270.7,390.4v-5.5h1.1l1.3,3.9c0.1,0.4,0.2,0.6,0.3,0.8c0.1-0.2,0.2-0.5,0.3-0.9l1.3-3.8h1v5.5h-0.7v-4.6
	l-1.6,4.6h-0.7l-1.6-4.7v4.7L-270.7,390.4L-270.7,390.4z"/>
<polygon class="st1" points="-283.3,472.1 -284.5,472.1 -284.5,453.2 -280.1,453.2 -280.1,454.4 -283.3,454.4 "/>
<rect x="-280.5" y="440.7" class="st1" width="1.2" height="36.1"/>
<rect x="-283.7" y="457.3" class="st1" width="3.5" height="1.2"/>
<rect x="-283.7" y="462.1" class="st1" width="3.5" height="1.2"/>
<rect x="-283.7" y="466.8" class="st1" width="3.5" height="1.2"/>
</svg>
