<?xml version="1.0" encoding="utf-8"?>
<!-- Generator: Adobe Illustrator 15.0.0, SVG Export Plug-In . SVG Version: 6.00 Build 0)  -->
<!DOCTYPE svg PUBLIC "-//W3C//DTD SVG 1.1//EN" "http://www.w3.org/Graphics/SVG/1.1/DTD/svg11.dtd">
<svg version="1.1" id="Calque_1" xmlns="http://www.w3.org/2000/svg" xmlns:xlink="http://www.w3.org/1999/xlink" x="0px" y="0px"
	 width="500px" height="500px" viewBox="0 0 500 500" enable-background="new 0 0 500 500" xml:space="preserve">
<g>
	<path fill="#D8D9DA" stroke="#1A171B" stroke-width="1.1772" d="M50.735,192.282c-19.813,0-29.626,11.576-29.626,11.576
		s-0.782,19.619-0.193,21.58c0.588,1.963,11.574,8.438,15.105,10.398c3.531,1.962,6.866,6.279,6.866,10.399
		c0,4.119-5.491,10.006-5.491,10.006l0.193,49.636h2.75v-3.925h3.724v-10.201h3.338v5.886h3.532v-10.79h3.531v8.829h3.329v5.493
		h3.338v4.513h6.475v-24.72h3.338v-11.184h-5.886v-13.341c0,0-6.281-4.316-6.281-10.202s11.771-13.931,16.089-15.5
		c4.318-1.568,8.042-5.1,8.042-5.1v-18.246C82.909,207.389,70.549,192.282,50.735,192.282z M71.924,217.59H32.687v-7.453
		c0,0,5.885-6.868,18.834-6.868c12.949,0,20.402,6.475,20.402,6.475V217.59z"/>
	<path fill="#FFFFFF" stroke="#1A171B" stroke-width="1.4126" d="M111.993,215.229h10.553v-8.357c0,0-2.418-5.718-12.972-5.718
		c-10.553,0-13.192,7.477-13.192,12.755c0,5.276,1.536,9.675,8.355,12.314c6.819,2.637,7.036,3.518,7.036,5.716
		c0,2.197,0.087,4.177-1.757,4.177c-1.844,0-1.963-1.48-1.963-1.48l-0.019-4.456H96.382v9.454c0,0,0.441,5.939,12.972,5.939
		c12.535,0,14.732-12.096,14.732-14.293c0-2.199-2.197-11.213-10.773-13.193c-8.576-1.979-5.279-7.695-3.518-7.695
		s2.419,1.757,2.419,1.757L111.993,215.229z"/>
	<path fill="#FFFFFF" stroke="#1A171B" stroke-width="1.4126" d="M327.67,215.229h10.553v-8.357c0,0-2.42-5.718-12.977-5.718
		c-10.548,0-13.188,7.477-13.188,12.755c0,5.276,1.535,9.675,8.351,12.314c6.819,2.637,7.04,3.518,7.04,5.716
		c0,2.197,0.082,4.177-1.762,4.177c-1.839,0-1.959-1.48-1.959-1.48l-0.019-4.456h-11.651v9.454c0,0,0.437,5.939,12.971,5.939
		c12.53,0,14.733-12.096,14.733-14.293c0-2.199-2.203-11.213-10.773-13.193c-8.58-1.979-5.279-7.695-3.522-7.695
		c1.762,0,2.418,1.757,2.418,1.757L327.67,215.229z"/>
	<path fill="#FFFFFF" stroke="#1A171B" stroke-width="1.4126" d="M143.73,216.806h9.615v-14.519h-26.293v8.293l1.177,0.671v24.146
		l-1.177,0.859v9.192h26.096v-15.892h-9.22c0,0,0.193,7.26-4.907,5.886v-7.848h7.063v-8.829h-7.261v-8.044
		C138.823,210.723,144.121,209.353,143.73,216.806z"/>
	<path fill="#FFFFFF" stroke="#1A171B" stroke-width="1.4126" d="M299.234,216.806h9.615v-14.519h-26.293v8.293l1.178,0.671v24.146
		l-1.178,0.859v9.192h26.095v-15.892h-9.22c0,0,0.193,7.26-4.905,5.886v-7.848h7.062v-8.829h-7.261v-8.044
		C294.327,210.723,299.624,209.353,299.234,216.806z"/>
	<path fill="#E1001A" stroke="#1A171B" stroke-width="1.1772" d="M442.966,216.806h9.615v-14.519h-26.293v8.293l1.177,0.671v24.146
		l-1.177,0.859v9.192h26.095v-15.892h-9.219c0,0,0.197,7.26-4.907,5.886v-7.848h7.063v-8.829h-7.261v-8.044
		C438.06,210.723,443.362,209.353,442.966,216.806z"/>
	<path fill="#E1001A" stroke="#1A171B" stroke-width="1.1772" d="M481.535,245.449h-26.095v-9.192l1.178-0.859v-24.146l-1.178-0.671
		v-8.293h12.586v7.599l-1.334,1.239l-0.188,24.094c0,0,1.236,1.334,2.57,1.334c1.333,0,2.188-2.762,2.188-2.762v-9.049h10.286
		L481.535,245.449z"/>
	<path fill="#FFFFFF" stroke="#1A171B" stroke-width="1.4126" d="M183.523,236.547c0,0-0.096-7.09-0.859-9.871
		c-0.768-2.777-3.449-3.161-3.449-3.161s4.98-0.671,4.98-10.539c0-9.87-8.718-11.404-8.718-11.404h-20.219v8.146h1.536l0.285,27.403
		h-1.821v8.047h14.567v-8.432h-1.439v-8.624c2.971-0.191,3.642,2.014,3.642,2.014v15.041h13.027v-8.622H183.523z M168.193,219.299
		v-8.527c0,0,4.888-0.288,4.888,4.313C173.081,219.683,168.193,219.299,168.193,219.299z"/>
	<path fill="#FFFFFF" stroke="#1A171B" stroke-width="1.4126" d="M215.431,236.547c0,0-0.097-7.09-0.864-9.871
		c-0.764-2.777-3.449-3.161-3.449-3.161s4.985-0.671,4.985-10.539c0-9.87-8.718-11.404-8.718-11.404h-20.218v8.146h1.531
		l0.29,27.403h-1.821v8.047h14.562v-8.432h-1.435v-8.624c2.97-0.191,3.642,2.014,3.642,2.014v15.041h13.032v-8.622H215.431z
		 M200.1,219.299v-8.527c0,0,4.884-0.288,4.884,4.313C204.984,219.683,200.1,219.299,200.1,219.299z"/>
	<path fill="#FFFFFF" stroke="#1A171B" stroke-width="1.4126" d="M277.779,236.547c0,0-0.097-7.09-0.86-9.871
		c-0.771-2.777-3.452-3.161-3.452-3.161s4.983-0.671,4.983-10.539c0-9.87-8.723-11.404-8.723-11.404h-20.214v8.146h1.536
		l0.285,27.403h-1.821v8.047h14.562v-8.432h-1.439v-8.624c2.972-0.191,3.643,2.014,3.643,2.014v15.041h13.031v-8.622H277.779z
		 M262.448,219.299v-8.527c0,0,4.887-0.288,4.887,4.313C267.335,219.683,262.448,219.299,262.448,219.299z"/>
	<path fill="#FFFFFF" stroke="#1A171B" stroke-width="1.4126" d="M220.406,210.197h-1.435v-8.527h13.988v8.24h-1.343v23.761
		c0,0-0.092,2.683,2.299,2.683c2.4,0,2.782-2.683,2.782-2.683v-23.858h-2.11v-8.143h12.747v9.39h-1.44v26.348
		c0,0-1.627,8.528-12.456,8.528c-10.824,0-13.22-10.059-13.22-10.059L220.406,210.197z"/>
	<path fill="#E1001A" stroke="#1A171B" stroke-width="1.1772" d="M396.533,210.197h-1.44v-8.527h13.989v8.24h-1.343v23.761
		c0,0-0.093,2.683,2.303,2.683c2.396,0,2.777-2.683,2.777-2.683v-23.858h-2.11v-8.143h12.746v9.39h-1.434v26.348
		c0,0-1.633,8.528-12.462,8.528c-10.824,0-13.22-10.059-13.22-10.059L396.533,210.197z"/>
	<polygon fill="#E1001A" stroke="#1A171B" stroke-width="1.1772" points="366.216,222.805 366.216,236.707 367.265,236.707 
		367.265,244.171 356.312,244.171 356.312,237.314 357.931,237.314 357.931,209.982 356.505,209.982 356.505,202.554 
		369.743,202.554 373.551,217.411 378.503,202.745 391.36,202.745 391.36,209.886 389.837,209.886 389.837,237.029 391.268,237.029 
		391.268,244.362 378.885,244.362 378.885,236.933 380.406,236.933 380.406,221.982 379.073,221.982 374.03,243.981 
		371.933,243.981 367.458,222.743 	"/>
	<path fill="#C5C6C8" d="M48.578,243.292v9.418c0,0-0.786,1.961-5.494,4.904c-4.709,2.941-5.496,3.141-5.496,3.141v-4.514
		c0,0,5.496-7.651,5.496-9.223L48.578,243.292z"/>
	<polygon fill="#9B9C9E" points="60.152,269.974 60.152,276.449 55.642,285.865 48.578,285.865 	"/>
	<polygon fill="#868789" points="38.177,287.828 41.415,284.591 44.261,284.591 37.984,295.087 	"/>
	<polygon fill="#B0B2B3" points="65.648,217.59 68.002,225.242 71.924,217.59 	"/>
	<path fill="#B0B2B3" d="M82.909,208.173v17.462l-2.156,1.57l-6.276-6.867C74.476,220.338,82.321,213.275,82.909,208.173z"/>
	<path fill="none" stroke="#1A171B" stroke-width="1.1772" d="M50.735,192.282c-19.813,0-29.626,11.576-29.626,11.576
		s-0.782,19.619-0.193,21.58c0.588,1.963,11.574,8.438,15.105,10.398c3.531,1.962,6.866,6.279,6.866,10.399
		c0,4.119-5.491,10.006-5.491,10.006l0.193,49.636h2.75v-3.925h3.724v-10.201h3.338v5.886h3.532v-10.79h3.531v8.829h3.329v5.493
		h3.338v4.513h6.475v-24.72h3.338v-11.184h-5.886v-13.341c0,0-6.281-4.316-6.281-10.202s11.771-13.931,16.089-15.5
		c4.318-1.568,8.042-5.1,8.042-5.1v-18.246C82.909,207.389,70.549,192.282,50.735,192.282z M71.924,217.59H32.687v-7.453
		c0,0,5.885-6.868,18.834-6.868c12.949,0,20.402,6.475,20.402,6.475V217.59z"/>
	<g>
		<path fill="#1A171B" d="M39.64,228.628v-5.242h1.343l1.6,3.711c0.147,0.345,0.257,0.602,0.321,0.774
			c0.083-0.191,0.203-0.471,0.368-0.839l1.638-3.646h1.168v5.242h-0.865v-4.396l-1.977,4.396h-0.777l-1.955-4.451v4.451H39.64z"/>
		<path fill="#1A171B" d="M51.935,223.387h0.883v3.03c0,0.526-0.074,0.945-0.229,1.255c-0.148,0.31-0.423,0.563-0.824,0.756
			c-0.399,0.195-0.924,0.292-1.568,0.292c-0.629,0-1.141-0.085-1.545-0.253c-0.395-0.17-0.68-0.416-0.855-0.736
			c-0.17-0.322-0.257-0.759-0.257-1.315v-3.03h0.883v3.016c0,0.453,0.055,0.787,0.166,1.003c0.11,0.216,0.294,0.381,0.561,0.496
			c0.266,0.117,0.588,0.175,0.97,0.175c0.658,0,1.123-0.115,1.403-0.345c0.275-0.23,0.414-0.676,0.414-1.329V223.387z"/>
		<path fill="#1A171B" d="M54.326,228.628v-5.242H59.2v0.625h-3.991v1.582h3.734v0.625h-3.734v1.784h4.139v0.625H54.326z"/>
		<path fill="#1A171B" d="M60.52,228.628v-5.242h0.883v4.617h3.329v0.625H60.52z"/>
	</g>
	<g>
		<path fill="#1A171B" d="M24.273,217.94l0.652-0.09c0.014,0.421,0.093,0.708,0.235,0.862c0.138,0.154,0.331,0.232,0.579,0.232
			c0.18,0,0.341-0.042,0.474-0.125c0.129-0.085,0.221-0.198,0.271-0.342c0.051-0.143,0.078-0.373,0.078-0.688v-3.785h0.727v3.741
			c0,0.457-0.06,0.813-0.17,1.066c-0.11,0.251-0.286,0.444-0.529,0.578c-0.239,0.131-0.524,0.198-0.847,0.198
			c-0.482,0-0.85-0.138-1.103-0.414C24.383,218.896,24.258,218.485,24.273,217.94z"/>
	</g>
	<g>
		<path fill="#1A171B" d="M74.256,219.497v-5.491h1.085l1.305,3.884c0.12,0.361,0.208,0.632,0.263,0.812
			c0.064-0.2,0.16-0.492,0.294-0.878l1.325-3.817h0.97v5.491h-0.699v-4.598l-1.6,4.598h-0.657l-1.587-4.672v4.672H74.256z"/>
	</g>
	<polyline fill="none" stroke="#1A171B" stroke-width="1.1772" points="61.132,301.169 61.132,282.925 64.857,282.925 	"/>
	<line fill="none" stroke="#1A171B" stroke-width="1.1772" x1="65.059" y1="269.778" x2="65.059" y2="305.879"/>
	<line fill="none" stroke="#1A171B" stroke-width="1.1772" x1="61.329" y1="287.045" x2="64.861" y2="287.045"/>
	<line fill="none" stroke="#1A171B" stroke-width="1.1772" x1="61.329" y1="291.754" x2="64.861" y2="291.754"/>
	<line fill="none" stroke="#1A171B" stroke-width="1.1772" x1="61.329" y1="296.462" x2="64.861" y2="296.462"/>
</g>
</svg>
