<?xml version="1.0" encoding="utf-8"?>
<!-- Generator: Adobe Illustrator 19.1.0, SVG Export Plug-In . SVG Version: 6.00 Build 0)  -->
<svg version="1.1" id="Calque_1" xmlns="http://www.w3.org/2000/svg" xmlns:xlink="http://www.w3.org/1999/xlink" x="0px" y="0px"
	 viewBox="-345 170.9 500 500" style="enable-background:new -345 170.9 500 500;" xml:space="preserve">
<style type="text/css">
	.st0{fill:#002E89;}
</style>
<polygon class="st0" points="-98.1,475.9 -115.1,475.9 -115.1,506.7 -115.1,518.3 -98.1,518.3 -83.7,518.3 -83.7,506.7 -98.1,506.7 
	"/>
<polygon class="st0" points="1.5,475.9 -15.5,475.9 -15.5,506.7 -15.5,518.3 -15.5,519.1 15.5,519.1 15.5,506.7 1.5,506.7 "/>
<polygon class="st0" points="145.5,475.9 125.6,475.9 118.5,489.1 118.5,475.9 100.6,475.9 100.6,518.3 118.5,518.3 118.5,505 
	125.6,518.1 145.5,518.1 134.1,497 "/>
<polygon class="st0" points="-33.6,488.2 -33.6,475.8 -70.2,475.8 -70.2,488.2 -60,488.2 -60,518.3 -43,518.3 -43,488.2 "/>
<rect x="-85.8" y="491.8" class="st0" width="15.4" height="11.7"/>
<rect x="-34.7" y="491.8" class="st0" width="15.4" height="11.7"/>
<polygon class="st0" points="-176.2,475.9 -185.2,475.9 -190.3,492.7 -194.3,475.9 -203.5,475.9 -208.9,475.9 -218.1,475.9 
	-218.1,518.3 -203.5,518.3 -203.5,498.4 -198.7,518.3 -198.1,518.3 -184.1,518.3 -183.5,518.3 -176.2,494.4 -176.2,518.3 
	-161.6,518.3 -161.6,475.9 -170.6,475.9 "/>
<path class="st0" d="M-134.4,506.7c0,1-0.3,2.8-1.8,3.2h-2.8c-1.5-0.4-1.8-2.2-1.8-3.2c0-0.6,0-30.8,0-30.8h-17.3l0.2,28.5
	c0.8,12.5,9.4,15.2,15,15.5l0.8,0c0.6,0,1.2,0,1.7,0h5.7c0.5,0,1.1,0,1.7,0l1.4-0.1c5.6-0.5,13.6-3.4,14.4-15.5h0v-28.5h-17.3
	C-134.5,475.9-134.4,506.1-134.4,506.7z"/>
<path class="st0" d="M38.6,475.2h-4.2c-10.1,0-18.2,7.9-18.2,17.7v9.7c0,9.8,8.2,17.7,18.2,17.7h4.2c10.1,0,18.2-7.9,18.2-17.7v-9.7
	C56.8,483.1,48.6,475.2,38.6,475.2z M39,507.7c0,1.3-1.1,2.4-2.4,2.4s-2.4-1.1-2.4-2.4v-19.2c0-1.3,1.1-2.4,2.4-2.4s2.4,1.1,2.4,2.4
	V507.7z"/>
<path class="st0" d="M80.3,507.7c0,1.3-1.1,2.4-2.4,2.4c-1.3,0-2.4-1.1-2.4-2.4v-19.2c0-1.3,1.1-2.4,2.4-2.4c1.3,0,2.4,1.1,2.4,2.4
	v2.8h18.6c-0.8-9.1-8.6-16.2-18.2-16.2h-4.2c-10.1,0-18.2,7.9-18.2,17.7v9.7c0,9.8,8.2,17.7,18.2,17.7h4.2c10,0,18.2-7.8,18.2-17.6
	H80.3L80.3,507.7L80.3,507.7z"/>
<path class="st0" d="M-332.6,363.2c-0.2,1.3-0.5,5-0.2,5.5c1.1,1.9,3.1,4.5,4.8,6.6c1.9,2.3,6.1,4.1,9.1,5.4c0.5,0.1,1,0.2,1.5,0.3
	c0,0,7.1,12.8,23,15c0.1,0.2,0.2,0.5,0.2,0.9c0,1.7,2.6,22.1,21.7,29.4c0.4,1.8,0.4,1.8,0.4,1.8c0,2.3-2,4.7-4,7.1
	c-1.9,2.4-2.1,7.8,5.6,8.7c0,12.5,0,68.6,0,68.6l6.6,6.7h5.1l10.8-10.9l-4.4-4.4l3.2-3.2l-5.3-5.3l8.3-8.4l-2.5-2.5l2.3-2.3v-4
	l-5.2-5.3l4.1-4.2v-2.2l-7.7-7.8l9.4-9.5v-6.2c0,0,4.8,1.5,6.2-2.1c1.4-3.6-5.1-9.7-6.1-10.5c0-2.4,0-3.2,0-3.2
	c21.8-9.8,21.1-29.4,21.1-34c0.5-1.9,1.6-3.9,3-5.7c0,0,1-1.8,4.3-3.4c3.3-1.5,23.8-12.8,24-25.5c0.1-5.2,6.1-4.5,7-10.8
	c-0.6-0.6-0.7-1.9-1.2-2.4c-0.6-0.7-2.5-0.4-3-1.2c-6.8-10.2-19.3-10.6-22.4-11.6c-9.4-6-21.2-3.5-21.2-3.5c-0.9,0.2-2.6-1-3.3-1.2
	h-3.6c-0.2,0.3-0.4,0.6-0.6,0.9h-0.6v0.6c-1.8,1.3-5,0.6-6.4,3.3c-1.3-0.6-0.5-1.4-1.5-2.4l-2.1-1.5h-0.9c-3.3-2.4-5.7-3.1-11.2-3
	c-0.8,0.7-2.2,0.5-3.3,0.9c-2.1,0.8-4.1,2.2-6.4,2.7c-0.5,2.1-3.1,8.8-0.9,11.4v0.3c-1.8-0.5-1.2-2.3-2.1-3.6
	c-1.6-2.3-4.9-3.1-7.6-3.6c-0.9-0.2-2.9,0.6-3.6,0.6c-0.4,0-0.8-0.5-1.5-0.3c-1.1,0.3-1.7,1.3-2.4,1.8c-0.5,0.1-1,0.2-1.5,0.3
	c-0.9,0.5-1.9,1.5-2.7,2.1c-2,1.5-10.2,4.8-14.1,6C-314.5,345.4-327.4,348.3-332.6,363.2z M-275,365.1c-0.9,0.5-3.2-0.9-4.2-1.2
	c-0.3,0.1-0.6,0.2-0.9,0.3l-1.2-0.6c-1.5-0.2-6.3,0.4-6.7,0.3c-0.9-0.3-1.7-1.6-2.4-2.1c-2.6-1.8-5.5-3.5-8.5-3.3
	c-1,0.1-1.9-0.1-2.1,0h-0.9c1.1-2.8,2.3-3.7,4.8-5.1c0.3-0.2,0.9-1.1,1.2-1.2c0.2,0.1,0.4,0.2,0.6,0.3c0.5-0.2,1.6-1.1,2.1-1.5
	c0.9,0.2,3.9,1.5,5.1,1.5c0.3-0.1,0.6-0.2,0.9-0.3c1,0.4,1.9,1.3,2.7,1.5c1.5-0.3,3-0.6,4.5-0.9c0.1-0.2,0.2-0.4,0.3-0.6
	c1.8,0.4,2.7-0.2,4.5-0.6c0.3,0.4,0.6,0.5,0.9,0.9c0.3,0.3,0.4,2.2,0.3,3C-272.8,357.2-272.5,363.5-275,365.1z M-261,393.5
	c-3.1,0-5.6-2.5-5.6-5.6c0-3.1,2.5-5.6,5.6-5.6c3.1,0,5.6,2.5,5.6,5.6C-255.5,391-258,393.5-261,393.5z M-217.6,352.2
	c-5.9-0.4-10.7,1.3-14.5,3.9c-0.7,0.5-1.9,2.4-2.4,2.7c-0.9,0.5-3.9,0.2-4.2,0.3c-0.1,0.2-0.2,0.4-0.3,0.6c-1.7,0.8-3.1,0.9-4.5,1.8
	c-0.8,0.5-1.6,1.7-2.4,2.1c-1.5,0.8-1.8,0.1-3,1.2c-2.1-0.5-1.3-2.7-1.5-4.2c-0.1-1-1.1-4.3-0.3-6.3c1-2.5,2.3-2.6,2.7-5.7
	c4,0,4.7-2.2,7-2.1c1.8,0.1,4.4,0.6,6-0.3c2.2-1.2,2.7-5.2,5.4-6.3c0.5-0.5,0.1,0.1,0.6,0.3c1.5-0.4,2.5,0.7,3.6,1.5
	c3.7,2.6,4.6,7.8,7.9,10.2C-217.6,351.9-217.6,352.2-217.6,352.2z"/>
</svg>
