<?xml version="1.0" encoding="utf-8"?>
<!-- Generator: Adobe Illustrator 21.0.2, SVG Export Plug-In . SVG Version: 6.00 Build 0)  -->
<svg version="1.1" id="Calque_1" xmlns="http://www.w3.org/2000/svg" xmlns:xlink="http://www.w3.org/1999/xlink" x="0px" y="0px"
	 viewBox="0 0 500 92" style="enable-background:new 0 0 500 92;" xml:space="preserve">
<style type="text/css">
	.st0{fill:#0D0909;}
	.st1{fill:#F29400;}
	.st2{fill:#FFFFFF;}
</style>
<rect x="16.2" y="12.6" class="st0" width="470.4" height="65.5"/>
<path class="st1" d="M118.4,70.6V19.8H145l9.5,26.9l9-26.9h27v50.8h-19.4l0.2-36.6l-12.1,36.6l-12.6,0.5l-13.1-37.8v37.3H118.4z"/>
<path class="st1" d="M198.9,19.8h20.6v27.5c0,4.4,0.2,7.2,0.5,8.5c0.6,2.1,2.7,3.5,6.6,3.5c13.4,0,10.8-7.4,10.8-11.4V19.8h16.2
	v26.7c0,6.1-0.4,10.4-1.1,12.9c-0.7,2.5-2.1,4.6-4.1,6.4c-2,1.7-4.7,3.1-8.1,4.1c-3.4,1-7.8,1.5-13.2,1.5c-6.5,0-11.5-0.6-14.9-1.7
	c-3.4-1.1-6.1-2.6-8-4.4c-2-1.8-3.3-3.7-3.9-5.6c-0.9-2.9-1.4-7.2-1.4-12.9L198.9,19.8L198.9,19.8z"/>
<path class="st1" d="M313.1,70.6V20.2h20.6v37.7h25.9v12.7L313.1,70.6L313.1,70.6z"/>
<path class="st1" d="M262.5,70.6V20.2h20.6v37.7H309v12.7L262.5,70.6L262.5,70.6z"/>
<path class="st1" d="M363,70.6V19.8h50.1v11.5H383v7.5h24.2v11.5H383v8h29.9v12.2L363,70.6L363,70.6z"/>
<path class="st1" d="M466.9,48.2c0,0,11.6-2.3,11.6-13.7c0-4.8-3.5-12.8-12.1-13.9v0.1c-3-0.6-7.1-0.9-12.5-0.9h-33v50.8h19.2V51
	h6.4l9.8,19.6h22.6L466.9,48.2z M440.1,30.3h6.7c3.5,0,5.6,0,6.3,0.1c1.4,0.2,2.5,0.7,3.2,1.6c0.7,0.9,1.1,1.9,1.1,3.3
	c0,1.2-0.3,2.2-0.9,3c-0.6,0.8-1.4,1.4-2.4,1.7c-1,0.3-3.6,0.5-7.7,0.5H440L440.1,30.3L440.1,30.3z"/>
<polygon class="st1" points="67.2,12.1 46.3,12.3 67.2,49 88.1,12.3 "/>
<path class="st2" d="M95.2,24.5c-7.5-5-17.4-7.7-28-7.7c-10.5,0-20.5,2.7-28,7.7c-7.7,5.1-11.9,11.9-11.9,19.2
	c0,7.3,4.2,14.2,11.9,19.2c7.5,5,17.4,7.7,28,7.7c10.5,0,20.5-2.7,28-7.7c7.7-5.1,11.9-11.9,11.9-19.2
	C107.1,36.5,102.9,29.6,95.2,24.5z M88.4,63.4V30.8l-21.2,36L46,30.8v32.6c-9.6-4.3-15.8-11.5-15.8-19.7c0-13.2,16.6-24,36.9-24
	c20.4,0,36.9,10.8,36.9,24C104.1,51.9,97.9,59,88.4,63.4z"/>
</svg>
