<?xml version="1.0" encoding="utf-8"?>
<!-- Generator: Adobe Illustrator 19.1.0, SVG Export Plug-In . SVG Version: 6.00 Build 0)  -->
<svg version="1.1" id="Calque_1" xmlns="http://www.w3.org/2000/svg" xmlns:xlink="http://www.w3.org/1999/xlink" x="0px" y="0px"
	 viewBox="-345 170.9 500 500" style="enable-background:new -345 170.9 500 500;" xml:space="preserve">
<style type="text/css">
	.st0{fill:#004C5E;}
	.st1{fill:#FFFFFF;}
	.st2{fill:#020202;}
	.st3{fill:none;}
	.st4{fill:#0068FF;}
	.st5{fill:#00BDFF;}
</style>
<path class="st0" d="M-23.6,396.5v29.1c-0.4,1.1-2.4,1.2-2.4,1.2c-0.5,0-2.2-0.1-2.3-1.5v-28.9h-20.4v27.5l0,0l0,4.2h0.1
	c1.5,14.3,14.5,18.2,22.4,18.2c5.6,0,21.2-3.4,22.9-18.2h0.2v-31.7H-23.6z"/>
<path class="st0" d="M-54.2,396.3h-10.3v-14.7h-21l0,2.7c0,1.7-0.2,40.9-0.2,42.7c0,18,14.1,18.5,15.7,18.5h8.4l2.7,0h4.7v-18.7
	h-4.7v0h-2.7c-2.2,0-2.8-1.4-2.8-2.5l0-9.2h10.3L-54.2,396.3L-54.2,396.3z"/>
<path class="st1" d="M-226.3,445.2c-7.6,0-20.4-3.9-21.2-18.2h0l0-1.4v-27.9h18v27.7c0.2,2.6,3.2,2.7,3.5,2.7c0.7,0,3.1-0.4,3.6-2.3
	v-28.1h18V427h-0.1C-205.5,441.8-220.8,445.2-226.3,445.2z"/>
<path class="st2" d="M-205.7,398.9v26.9h0c-0.2,14.9-15.5,18.2-20.6,18.2c-5.1,0-19.9-2.3-20.1-18.2h0v-0.2c0,0,0,0,0,0l0,0v-26.6
	h15.5v26.6c0.3,3.3,3.6,3.8,4.8,3.8c1.1,0,4.4-0.7,4.9-3.5h0v-26.9L-205.7,398.9 M-203.2,396.5h-2.4h-15.5h-2.4v2.4v26.7
	c-0.4,1.1-2.4,1.2-2.4,1.2c-0.5,0-2.2-0.1-2.3-1.5v-26.4v-2.4h-2.4h-15.5h-2.4v2.4v25.1l0,1.5v0.1l0,0v0.2v2.4h0.1
	c1.5,14.3,14.5,18.2,22.4,18.2c3.2,0,8.7-1,13.4-3.8c5.5-3.3,8.8-8.2,9.5-14.3h0.2l0-2.4v-26.9L-203.2,396.5L-203.2,396.5z"/>
<rect x="-189.9" y="379.4" class="st1" width="18" height="64.4"/>
<path class="st2" d="M-173.1,380.6v62h-15.5v-62H-173.1 M-170.7,378.2h-2.4h-15.5h-2.4v2.4v62v2.4h2.4h15.5h2.4v-2.4v-62V378.2
	L-170.7,378.2z"/>
<rect x="-116.2" y="398" class="st1" width="18" height="45.8"/>
<path class="st2" d="M-99.4,399.2v43.4H-115v-43.4L-99.4,399.2 M-97,396.8h-2.4H-115h-2.4v2.4v43.4v2.4h2.4h15.5h2.4v-2.4v-43.4
	V396.8L-97,396.8z"/>
<path class="st1" d="M-144.1,444c-1.4,0-14.1-0.5-14.1-17v-4.1h0.2v-39.9h18v14.7h10.3v15.6H-140v10.2l0,0.5c0,0.4,0.2,4,4.4,4h1.2
	v0h4.7v15.7h-4.7l-1.2,0L-144.1,444L-144.1,444z"/>
<path class="st2" d="M-141.2,384.3V399h10.3v13.2h-10.3v12h0c0,0,0.1,5.2,5.6,5.2c0,0,0,0,0,0h4.7v13.3h-4.7c0,0,0,0,0,0h-8.4
	c-2.7,0-12.9-1.3-12.9-15.8c0-1.9,0-2.6,0-2.8h0.2v-39.9H-141.2 M-138.8,381.8h-2.4h-15.5h-2.4v2.4v37.4l-0.2,0v2.4v2.8
	c0,17.7,13.8,18.2,15.4,18.2h8.4h2.4v0h2.2h2.4v-2.4v-13.3V427h-2.4h-2.2v0h-2.4c-1.7,0-2.4-0.7-2.7-1.3c-0.4-0.7-0.4-1.5-0.4-1.5
	l0-1v-8.5h7.8h2.4v-2.4V399v-2.4h-2.4h-7.8v-12.3L-138.8,381.8L-138.8,381.8z"/>
<path class="st1" d="M-279.5,444.1v-27.7c-0.2-2.6-3.2-2.7-3.5-2.7c-0.7,0-3.1,0.4-3.6,2.3v28.1h-18.7v-27.7
	c-0.2-2.6-3.2-2.7-3.5-2.7c-0.7,0-3.1,0.4-3.6,2.3v28.1h-18v-29.3h0.1c1-14.8,16.3-18.2,21.8-18.2c3.6,0,8.8,1,13.1,3.7
	c4.8-2.9,10.2-3.7,12.8-3.7c7.6,0,20.4,3.9,21.2,18.2h0l0,1.5v27.8L-279.5,444.1L-279.5,444.1z"/>
<path class="st2" d="M-282.8,397.8c5.1,0,19.9,2.3,20.1,18.2h0v0.2c0,0,0,0,0,0l0,0v26.6h-15.5v-26.6c-0.3-3.3-3.6-3.8-4.8-3.8
	c-1.1,0-4.4,0.7-4.9,3.5h0v26.9h-0.7h-14.9h-0.7v-26.6c-0.3-3.3-3.6-3.8-4.8-3.8c-1.1,0-4.4,0.7-4.9,3.5h0v26.9h-15.5V416h0
	c0.2-14.9,15.5-18.2,20.6-18.2c2.8,0,8.4,0.7,13,3.9C-291,398.7-285.5,397.8-282.8,397.8 M-282.8,395.4c-2.5,0-7.8,0.8-12.7,3.5
	c-4.3-2.5-9.5-3.5-13.1-3.5c-3.2,0-8.7,1-13.4,3.8c-5.5,3.3-8.8,8.2-9.5,14.3h-0.2l0,2.4v26.9v2.4h2.4h15.5h2.4v-2.4v-26.7
	c0.4-1.1,2.4-1.2,2.4-1.2c0.5,0,2.2,0.1,2.3,1.5v26.4v2.4h2.4h0.7h14.9h0.7h2.4v-2.4v-26.7c0.4-1.1,2.4-1.2,2.4-1.2
	c0.5,0,2.2,0.1,2.3,1.5v26.4v2.4h2.4h15.5h2.4v-2.4v-25.1l0-1.5v-0.1l0,0V416v-2.4h-0.1C-261.9,399.3-275,395.4-282.8,395.4
	L-282.8,395.4z"/>
<path class="st1" d="M-106.9,393.9c-5.9,0-10.8-4.8-10.8-10.8s4.8-10.8,10.8-10.8c5.9,0,10.8,4.8,10.8,10.8S-101,393.9-106.9,393.9z
	"/>
<path class="st2" d="M-106.9,373.6c5.3,0,9.6,4.3,9.6,9.6c0,5.3-4.3,9.6-9.6,9.6s-9.6-4.3-9.6-9.6
	C-116.5,377.9-112.2,373.6-106.9,373.6 M-106.9,371.2c-6.6,0-12,5.4-12,12s5.4,12,12,12s12-5.4,12-12
	C-94.9,376.5-100.3,371.2-106.9,371.2L-106.9,371.2z"/>
<path class="st0" d="M88.3,415.7c2.7,0,4.9,2.2,4.9,4.9c0,2.7-2.2,4.9-4.9,4.9s-4.9-2.2-4.9-4.9C83.4,417.9,85.6,415.7,88.3,415.7
	 M88.3,395.1c-14.1,0-25.5,11.4-25.5,25.5c0,14.1,11.4,25.5,25.5,25.5s25.5-11.4,25.5-25.5C113.8,406.5,102.4,395.1,88.3,395.1
	L88.3,395.1z"/>
<path class="st0" d="M30.6,395.1c-1.7,0-3.4,0.2-5,0.5v-17.8H5.2v40.4c-0.1,0.8-0.1,1.6-0.1,2.5c0,14.1,11.4,25.5,25.5,25.5
	c14.1,0,25.5-11.4,25.5-25.5C56.1,406.5,44.7,395.1,30.6,395.1z M30.6,425.5c-2.7,0-4.9-2.2-4.9-4.9c0-2.7,2.2-4.9,4.9-4.9
	s4.9,2.2,4.9,4.9C35.5,423.3,33.3,425.5,30.6,425.5z"/>
<line class="st3" x1="88.7" y1="360.9" x2="88.7" y2="378.5"/>
<path class="st4" d="M128.9,420.5c0-22.4-18.2-40.6-40.6-40.6c-11.4,0-21.7,4.7-29,12.3l8,8c5.3-5.5,12.8-9,21.1-9
	c16.2,0,29.3,13.2,29.3,29.3c0,16.2-13.2,29.3-29.3,29.3v11.3C110.7,461.1,128.9,442.9,128.9,420.5z"/>
<path class="st5" d="M144.5,420.5c0-30.6-24.6-55.6-55-56.2v12.2c23.7,0.6,42.9,20.1,42.9,44s-19.1,43.4-42.9,44v12.2
	C120,476.1,144.5,451.1,144.5,420.5z"/>
<path d="M-70.2,462.1c-0.4-1.3-1.4-2.1-2.8-2.1c-1.5,0-3.2,1.3-3.5,2.9c-0.6,4.4,8.4,2.3,7.4,8.9c-0.5,3.4-3.4,5.7-6.6,5.7
	c-3,0-5.1-1.9-5.4-4.9l1.8-0.6c0.3,2.2,1.5,3.8,3.9,3.8c2.2,0,4.3-1.8,4.6-4.2c0.3-2.3-1.3-3-2.9-3.6c-2.3-0.9-4.9-2-4.5-5.1
	c0.4-2.8,2.9-4.7,5.5-4.7c1.8,0,3.6,1.2,4.1,3L-70.2,462.1z"/>
<path d="M-64.8,458.7h1.8l5.2,16.7l9.2-16.7h1.8l-13.9,25h-1.8l3.6-6.3L-64.8,458.7z"/>
<path d="M-32.7,462.1c-0.4-1.3-1.4-2.1-2.8-2.1c-1.5,0-3.2,1.3-3.5,2.9c-0.6,4.4,8.4,2.3,7.4,8.9c-0.5,3.4-3.4,5.7-6.6,5.7
	c-3,0-5.1-1.9-5.4-4.9l1.8-0.6c0.3,2.2,1.5,3.8,3.9,3.8c2.2,0,4.3-1.8,4.6-4.2c0.3-2.3-1.3-3-2.9-3.6c-2.3-0.9-4.9-2-4.5-5.1
	c0.4-2.8,2.9-4.7,5.5-4.7c1.8,0,3.6,1.2,4.1,3L-32.7,462.1z"/>
<path d="M-22.1,477.2h-1.7l2.4-16.8h-2l0.2-1.7h2l0.9-6.6h1.7l-0.9,6.6h3.1l-0.2,1.7h-3.1L-22.1,477.2z"/>
<path d="M-8.6,468.1c-0.8,4.7,1.9,7.8,6,7.8c2.8,0,5.3-1.7,6.9-4.2l1.3,0.9c-2.1,3.2-5.2,5-8.7,5c-5.3,0-8-4.4-7.2-9.7
	c0.7-5.1,4.8-9.6,10-9.6c5.4,0,8,4.5,7.2,9.8H-8.6z M5.3,466.4c0.1-3.4-2.2-6.4-5.9-6.4c-3.6,0-7.1,3-7.9,6.4H5.3z"/>
<path d="M18,461L18,461c1.1-1.7,3.1-2.7,4.9-2.7c2.3,0,3.9,1.2,4.5,3.4c1.3-2.2,3.4-3.4,5.7-3.4c4.6,0,5,3.2,4.5,7.3L36,477.2h-1.7
	l1.7-11.8c0.4-2.8,0.3-5.3-3-5.3c-3.7,0-5.1,3.4-5.5,6.5l-1.5,10.6h-1.7l1.6-11.4c0.4-2.9,0.3-5.8-3.1-5.8c-3.7,0-5,4-5.4,7
	l-1.5,10.1H14l2.6-18.4h1.7L18,461z"/>
<path d="M59.1,462.1c-0.4-1.3-1.4-2.1-2.8-2.1c-1.5,0-3.2,1.3-3.5,2.9c-0.6,4.4,8.4,2.3,7.4,8.9c-0.5,3.4-3.4,5.7-6.6,5.7
	c-3,0-5.1-1.9-5.4-4.9l1.8-0.6c0.3,2.2,1.5,3.8,3.9,3.8c2.2,0,4.3-1.8,4.6-4.2c0.3-2.3-1.3-3-2.9-3.6c-2.3-0.9-4.9-2-4.5-5.1
	c0.4-2.8,2.9-4.7,5.5-4.7c1.8,0,3.6,1.2,4.1,3L59.1,462.1z"/>
</svg>
