<?xml version="1.0" encoding="utf-8"?>
<!-- Generator: Adobe Illustrator 15.0.0, SVG Export Plug-In . SVG Version: 6.00 Build 0)  -->
<!DOCTYPE svg PUBLIC "-//W3C//DTD SVG 1.1//EN" "http://www.w3.org/Graphics/SVG/1.1/DTD/svg11.dtd">
<svg version="1.1" id="Calque_1" xmlns="http://www.w3.org/2000/svg" xmlns:xlink="http://www.w3.org/1999/xlink" x="0px" y="0px"
	 width="500px" height="500px" viewBox="0 0 500 500" enable-background="new 0 0 500 500" xml:space="preserve">
<path fill="#E32120" d="M141.342,224.745h12.03l-8.234,52.705h-12.027L141.342,224.745z"/>
<path fill="#E32120" d="M176.869,224.639l-2.294,12.926h8.625l-1.298,8.316h-8.625l-2.049,16.723
	c-0.684,4.38,0.187,6.385,3.748,6.385c1.664,0,2.464-0.075,3.608-0.3l-1.253,8.539c-1.586,0.519-4.583,0.964-7.907,0.964
	c-3.875,0-6.927-1.263-8.609-3.121c-1.883-2.149-2.446-5.637-1.647-10.759l2.319-18.431h-5.146l1.301-8.316h5.144l1.82-12.981
	L176.869,224.639z"/>
<path fill="#E32120" d="M342.197,224.639l-2.295,12.926h8.625l-1.3,8.316h-8.624l-2.052,16.723c-0.685,4.38,0.19,6.385,3.754,6.385
	c1.658,0,2.463-0.075,3.607-0.3l-1.256,8.539c-1.583,0.519-4.58,0.964-7.904,0.964c-3.88,0-6.926-1.263-8.615-3.121
	c-1.88-2.149-2.442-5.637-1.641-10.759l2.316-18.431h-5.144l1.295-8.316h5.146l1.82-12.981L342.197,224.639z"/>
<path fill="#E32120" d="M203.485,228.439c-0.488,3.117-3.337,5.643-7.372,5.643c-3.799,0-5.857-2.526-5.367-5.643
	c0.497-3.191,3.409-5.643,7.29-5.643C201.91,222.796,203.903,225.249,203.485,228.439z M183.813,277.449l5.283-40.078h12.027
	l-5.28,40.078H183.813z"/>
<path fill="#E32120" d="M397.696,228.601c-0.49,3.117-3.336,5.643-7.375,5.643c-3.796,0-5.857-2.526-5.37-5.643
	c0.5-3.19,3.415-5.643,7.292-5.643C396.121,222.958,398.11,225.411,397.696,228.601z M378.025,277.449l5.367-39.981h12.027
	l-5.365,39.981H378.025z"/>
<polygon fill="#E32120" points="51.117,252.871 51.123,252.871 46.283,225.342 29.019,225.342 22.731,277.449 33.281,277.449 
	37.504,243.89 45.299,277.69 55.355,277.69 55.355,277.688 "/>
<polygon fill="#E32120" points="68.124,225.342 54.735,256.442 57.68,273.102 71.451,245.938 67.319,277.449 78.393,277.449 
	85.937,225.342 "/>
<path fill="#E32120" d="M111.257,266.227c-1.242,1.133-2.938,2.02-5.032,2.02c-4.396,0-5.752-3.506-4.911-9.284l3.137-21.429H92.079
	l-3.424,23.381c-1.798,12.299,3.324,17.353,11.467,17.353c4.359,0,7.659-1.513,10.018-3.245L111.257,266.227z"/>
<path fill="#E32120" d="M117.039,237.533l-5.425,39.836h12.653c0.328-3.341,4.589-39.836,4.589-39.836H117.039z"/>
<path fill="#E32120" d="M223.016,237.745h-11.879c-0.351,3.572-0.784,7.715-1.489,12.669l-3.862,27.035h11.431L223.016,237.745z"/>
<path fill="#E32120" d="M257.098,236.773c-2.849,0-5.332,0.73-7.642,1.949c-2.058,1.137-3.95,2.761-5.757,4.87h-0.158
	c-1.072-4.139-4.565-6.819-9.629-6.819c-4.278,0-7.454,1.585-9.722,3.406l-1.32,8.81c1.157-1.229,3.127-2.228,5.104-2.228
	c3.875,0,5.128,3.409,4.423,8.363l-3.188,22.326h11.713l3.314-23.223c0.151-1.05,0.484-2.273,0.848-3.162
	c1.205-2.356,3.387-4.304,6.233-4.304c3.878,0,5.225,3.325,4.401,9.089l-3.085,21.6h11.713l3.339-23.386
	C269.391,242.13,264.535,236.773,257.098,236.773z"/>
<path fill="#E32120" d="M313.971,256.364c1.7-9.876-1.562-19.898-14.703-19.854c-14.145,0.046-22.476,11.248-24.222,21.371
	c-2.122,12.329,4.259,20.087,17.722,20.234c0,0.012-16.312,0.039-0.003,0.039c16.308,0,20.537-12.69,20.537-12.69H301.58
	c-1.356,3.846-7.521,3.972-7.556,3.972c-4.663,0.019-6.964-1.85-7.466-5.154l-0.291,0.071c-2.016-9.629,2.912-14.921,2.912-14.921
	c1.535-2.484,4.263-4.668,7.917-4.68c5.824-0.018,6.281,5.038,5.761,8.059l-13.205,0.045c-0.672,1.689-1.362,4.551-0.933,8.485
	l23.994-0.078C313.032,260.36,313.604,258.485,313.971,256.364z"/>
<g>
	<path fill="#E32120" d="M364.601,238.123h-10.877c-0.267,3.38-0.766,7.159-1.664,12.953l-4.103,26.373h12.212L364.601,238.123z"/>
	<path fill="#E32120" d="M377.097,237.161c-3.574,0-8.148,1.838-11.272,6.153l-1.399,12.403c0.092-0.328,0.18-0.654,0.285-0.945
		c1.443-3.777,5.062-6.193,9.845-6.193c1.452,0,2.449,0.165,3.451,0.322l1.785-11.5
		C378.877,237.243,378.293,237.161,377.097,237.161z"/>
</g>
<polygon fill="#E32120" points="407.948,277.896 395.422,277.896 427.841,237.339 440.367,237.339 "/>
<polygon fill="#E32120" points="419.245,246.229 414.406,237.339 401.879,237.339 411.796,255.55 "/>
<polygon fill="#E32120" points="418.077,267.089 423.962,277.896 436.49,277.896 425.528,257.766 "/>
<g>
	<path fill="#E32120" d="M459.923,241.558c1.096-0.179,2.706-0.312,4.541-0.312c2.234,0,3.802,0.336,4.873,1.184
		c0.922,0.717,1.411,1.792,1.411,3.179c0,1.901-1.362,3.221-2.663,3.69v0.07c1.053,0.424,1.635,1.408,2.016,2.795
		c0.472,1.721,0.92,3.692,1.211,4.273h-3.493c-0.225-0.447-0.605-1.655-1.03-3.512c-0.424-1.903-1.071-2.394-2.481-2.418h-1.006
		v5.93h-3.378V241.558z M463.301,248.048h1.339c1.701,0,2.706-0.85,2.706-2.17c0-1.365-0.938-2.083-2.5-2.083
		c-0.83,0-1.303,0.045-1.545,0.112V248.048z"/>
</g>
<g>
	<path fill="#E32120" d="M464.615,263.235c-7.853,0-14.24-6.387-14.24-14.24c0-7.853,6.388-14.24,14.24-14.24
		s14.24,6.388,14.24,14.24C478.856,256.849,472.468,263.235,464.615,263.235z M464.615,237.855c-6.143,0-11.141,4.998-11.141,11.14
		c0,6.143,4.998,11.141,11.141,11.141s11.141-4.998,11.141-11.141C475.756,242.854,470.758,237.855,464.615,237.855z"/>
</g>
</svg>
