<?xml version="1.0" encoding="utf-8"?>
<!-- Generator: Adobe Illustrator 21.0.2, SVG Export Plug-In . SVG Version: 6.00 Build 0)  -->
<svg version="1.1" id="Calque_1" xmlns="http://www.w3.org/2000/svg" xmlns:xlink="http://www.w3.org/1999/xlink" x="0px" y="0px"
	 viewBox="0 0 500 146" style="enable-background:new 0 0 500 146;" xml:space="preserve">
<style type="text/css">
	.st0{fill:#004C5E;}
	.st1{fill:#FFFFFF;}
	.st2{fill:#020202;}
	.st3{fill:#0068FF;}
	.st4{fill:#00BDFF;}
</style>
<path class="st0" d="M321.4,48.6v29.1c-0.4,1.1-2.4,1.2-2.4,1.2c-0.5,0-2.2-0.1-2.3-1.5V48.5h-20.4V76l0,0v4.2h0.1
	c1.5,14.3,14.5,18.2,22.4,18.2c5.6,0,21.2-3.4,22.9-18.2h0.2V48.5L321.4,48.6L321.4,48.6z"/>
<path class="st0" d="M290.8,48.4h-10.3V33.7h-21v2.7c0,1.7-0.2,40.9-0.2,42.7c0,18,14.1,18.5,15.7,18.5h8.4h2.7h4.7V78.9h-4.7l0,0
	h-2.7c-2.2,0-2.8-1.4-2.8-2.5v-9.2h10.3L290.8,48.4L290.8,48.4z"/>
<path class="st1" d="M118.7,97.3c-7.6,0-20.4-3.9-21.2-18.2l0,0v-1.4V49.8h18v27.7c0.2,2.6,3.2,2.7,3.5,2.7c0.7,0,3.1-0.4,3.6-2.3
	V49.8h18v29.3h-0.1C139.5,93.9,124.2,97.3,118.7,97.3z"/>
<path class="st2" d="M139.3,51v26.9l0,0c-0.2,14.9-15.5,18.2-20.6,18.2s-19.9-2.3-20.1-18.2l0,0v-0.2l0,0l0,0V51.1h15.5v26.6
	c0.3,3.3,3.6,3.8,4.8,3.8c1.1,0,4.4-0.7,4.9-3.5l0,0V51.1L139.3,51 M141.8,48.6h-2.4h-15.5h-2.4V51v26.7c-0.4,1.1-2.4,1.2-2.4,1.2
	c-0.5,0-2.2-0.1-2.3-1.5V51v-2.4h-2.4H98.9h-2.4V51v25.1v1.5v0.1l0,0v0.2v2.4h0.1c1.5,14.3,14.5,18.2,22.4,18.2
	c3.2,0,8.7-1,13.4-3.8c5.5-3.3,8.8-8.2,9.5-14.3h0.2V78V51.1L141.8,48.6L141.8,48.6z"/>
<rect x="155.1" y="31.5" class="st1" width="18" height="64.4"/>
<path class="st2" d="M171.9,32.7v62h-15.5v-62H171.9 M174.3,30.3h-2.4h-15.5H154v2.4v62v2.4h2.4h15.5h2.4v-2.4v-62V30.3L174.3,30.3z
	"/>
<rect x="228.8" y="50.1" class="st1" width="18" height="45.8"/>
<path class="st2" d="M245.6,51.3v43.4H230V51.3H245.6 M248,48.9h-2.4H230h-2.4v2.4v43.4v2.4h2.4h15.5h2.4v-2.4V51.3v-2.4H248z"/>
<path class="st1" d="M200.9,96.1c-1.4,0-14.1-0.5-14.1-17V75h0.2V35.1h18v14.7h10.3v15.6H205v10.2v0.5c0,0.4,0.2,4,4.4,4h1.2l0,0
	h4.7v15.7h-4.7h-1.2L200.9,96.1L200.9,96.1z"/>
<path class="st2" d="M203.8,36.4v14.7h10.3v13.2h-10.3v12l0,0c0,0,0.1,5.2,5.6,5.2l0,0h4.7v13.3h-4.7l0,0H201
	c-2.7,0-12.9-1.3-12.9-15.8c0-1.9,0-2.6,0-2.8h0.2V36.3L203.8,36.4 M206.2,33.9h-2.4h-15.5h-2.4v2.4v37.4h-0.2v2.4v2.8
	c0,17.7,13.8,18.2,15.4,18.2h8.4h2.4l0,0h2.2h2.4v-2.4V81.4v-2.3h-2.4h-2.2l0,0h-2.4c-1.7,0-2.4-0.7-2.7-1.3
	c-0.4-0.7-0.4-1.5-0.4-1.5v-1v-8.5h7.8h2.4v-2.4V51.1v-2.4h-2.4h-7.8V36.4L206.2,33.9L206.2,33.9z"/>
<path class="st1" d="M65.5,96.2V68.5c-0.2-2.6-3.2-2.7-3.5-2.7c-0.7,0-3.1,0.4-3.6,2.3v28.1H39.7V68.5c-0.2-2.6-3.2-2.7-3.5-2.7
	c-0.7,0-3.1,0.4-3.6,2.3v28.1h-18V66.9h0.1c1-14.8,16.3-18.2,21.8-18.2c3.6,0,8.8,1,13.1,3.7c4.8-2.9,10.2-3.7,12.8-3.7
	c7.6,0,20.4,3.9,21.2,18.2l0,0v1.5v27.8L65.5,96.2L65.5,96.2z"/>
<path class="st2" d="M62.2,49.9c5.1,0,19.9,2.3,20.1,18.2l0,0v0.2l0,0l0,0v26.6H66.8V68.3c-0.3-3.3-3.6-3.8-4.8-3.8
	c-1.1,0-4.4,0.7-4.9,3.5l0,0v26.9h-0.7H41.5h-0.7V68.3c-0.3-3.3-3.6-3.8-4.8-3.8c-1.1,0-4.4,0.7-4.9,3.5l0,0v26.9H15.6V68.1l0,0
	c0.2-14.9,15.5-18.2,20.6-18.2c2.8,0,8.4,0.7,13,3.9C54,50.8,59.5,49.9,62.2,49.9 M62.2,47.5c-2.5,0-7.8,0.8-12.7,3.5
	c-4.3-2.5-9.5-3.5-13.1-3.5c-3.2,0-8.7,1-13.4,3.8c-5.5,3.3-8.8,8.2-9.5,14.3h-0.2V68v26.9v2.4h2.4h15.5h2.4v-2.4V68.2
	C34,67.1,36,67,36,67c0.5,0,2.2,0.1,2.3,1.5v26.4v2.4h2.4h0.7h14.9H57h2.4v-2.4V68.2c0.4-1.1,2.4-1.2,2.4-1.2c0.5,0,2.2,0.1,2.3,1.5
	v26.4v2.4h2.4H82h2.4v-2.4V69.8v-1.5v-0.1l0,0v-0.1v-2.4h-0.1C83.1,51.4,70,47.5,62.2,47.5L62.2,47.5z"/>
<path class="st1" d="M238.1,46c-5.9,0-10.8-4.8-10.8-10.8s4.8-10.8,10.8-10.8c5.9,0,10.8,4.8,10.8,10.8S244,46,238.1,46z"/>
<path class="st2" d="M238.1,25.7c5.3,0,9.6,4.3,9.6,9.6c0,5.3-4.3,9.6-9.6,9.6c-5.3,0-9.6-4.3-9.6-9.6S232.8,25.7,238.1,25.7
	 M238.1,23.3c-6.6,0-12,5.4-12,12s5.4,12,12,12c6.6,0,12-5.4,12-12C250.1,28.6,244.7,23.3,238.1,23.3L238.1,23.3z"/>
<path class="st0" d="M433.3,67.8c2.7,0,4.9,2.2,4.9,4.9c0,2.7-2.2,4.9-4.9,4.9c-2.7,0-4.9-2.2-4.9-4.9
	C428.4,70,430.6,67.8,433.3,67.8 M433.3,47.2c-14.1,0-25.5,11.4-25.5,25.5s11.4,25.5,25.5,25.5c14.1,0,25.5-11.4,25.5-25.5
	S447.4,47.2,433.3,47.2L433.3,47.2z"/>
<path class="st0" d="M375.6,47.2c-1.7,0-3.4,0.2-5,0.5V29.9h-20.4v40.4c-0.1,0.8-0.1,1.6-0.1,2.5c0,14.1,11.4,25.5,25.5,25.5
	s25.5-11.4,25.5-25.5C401.1,58.6,389.7,47.2,375.6,47.2z M375.6,77.6c-2.7,0-4.9-2.2-4.9-4.9c0-2.7,2.2-4.9,4.9-4.9
	c2.7,0,4.9,2.2,4.9,4.9S378.3,77.6,375.6,77.6z"/>
<path class="st3" d="M473.9,72.6c0-22.4-18.2-40.6-40.6-40.6c-11.4,0-21.7,4.7-29,12.3l8,8c5.3-5.5,12.8-9,21.1-9
	c16.2,0,29.3,13.2,29.3,29.3c0,16.2-13.2,29.3-29.3,29.3v11.3C455.7,113.2,473.9,95,473.9,72.6z"/>
<path class="st4" d="M489.5,72.6c0-30.6-24.6-55.6-55-56.2v12.2c23.7,0.6,42.9,20.1,42.9,44s-19.1,43.4-42.9,44v12.2
	C465,128.2,489.5,103.2,489.5,72.6z"/>
<path d="M274.8,114.2c-0.4-1.3-1.4-2.1-2.8-2.1c-1.5,0-3.2,1.3-3.5,2.9c-0.6,4.4,8.4,2.3,7.4,8.9c-0.5,3.4-3.4,5.7-6.6,5.7
	c-3,0-5.1-1.9-5.4-4.9l1.8-0.6c0.3,2.2,1.5,3.8,3.9,3.8c2.2,0,4.3-1.8,4.6-4.2c0.3-2.3-1.3-3-2.9-3.6c-2.3-0.9-4.9-2-4.5-5.1
	c0.4-2.8,2.9-4.7,5.5-4.7c1.8,0,3.6,1.2,4.1,3L274.8,114.2z"/>
<path d="M280.2,110.8h1.8l5.2,16.7l9.2-16.7h1.8l-13.9,25h-1.8l3.6-6.3L280.2,110.8z"/>
<path d="M312.3,114.2c-0.4-1.3-1.4-2.1-2.8-2.1c-1.5,0-3.2,1.3-3.5,2.9c-0.6,4.4,8.4,2.3,7.4,8.9c-0.5,3.4-3.4,5.7-6.6,5.7
	c-3,0-5.1-1.9-5.4-4.9l1.8-0.6c0.3,2.2,1.5,3.8,3.9,3.8c2.2,0,4.3-1.8,4.6-4.2c0.3-2.3-1.3-3-2.9-3.6c-2.3-0.9-4.9-2-4.5-5.1
	c0.4-2.8,2.9-4.7,5.5-4.7c1.8,0,3.6,1.2,4.1,3L312.3,114.2z"/>
<path d="M322.9,129.3h-1.7l2.4-16.8h-2l0.2-1.7h2l0.9-6.6h1.7l-0.9,6.6h3.1l-0.2,1.7h-3.1L322.9,129.3z"/>
<path d="M336.4,120.2c-0.8,4.7,1.9,7.8,6,7.8c2.8,0,5.3-1.7,6.9-4.2l1.3,0.9c-2.1,3.2-5.2,5-8.7,5c-5.3,0-8-4.4-7.2-9.7
	c0.7-5.1,4.8-9.6,10-9.6c5.4,0,8,4.5,7.2,9.8L336.4,120.2L336.4,120.2z M350.3,118.5c0.1-3.4-2.2-6.4-5.9-6.4c-3.6,0-7.1,3-7.9,6.4
	H350.3z"/>
<path d="M363,113.1L363,113.1c1.1-1.7,3.1-2.7,4.9-2.7c2.3,0,3.9,1.2,4.5,3.4c1.3-2.2,3.4-3.4,5.7-3.4c4.6,0,5,3.2,4.5,7.3
	l-1.6,11.6h-1.7l1.7-11.8c0.4-2.8,0.3-5.3-3-5.3c-3.7,0-5.1,3.4-5.5,6.5l-1.5,10.6h-1.7l1.6-11.4c0.4-2.9,0.3-5.8-3.1-5.8
	c-3.7,0-5,4-5.4,7l-1.5,10.1H359l2.6-18.4h1.7L363,113.1z"/>
<path d="M404.1,114.2c-0.4-1.3-1.4-2.1-2.8-2.1c-1.5,0-3.2,1.3-3.5,2.9c-0.6,4.4,8.4,2.3,7.4,8.9c-0.5,3.4-3.4,5.7-6.6,5.7
	c-3,0-5.1-1.9-5.4-4.9l1.8-0.6c0.3,2.2,1.5,3.8,3.9,3.8c2.2,0,4.3-1.8,4.6-4.2c0.3-2.3-1.3-3-2.9-3.6c-2.3-0.9-4.9-2-4.5-5.1
	c0.4-2.8,2.9-4.7,5.5-4.7c1.8,0,3.6,1.2,4.1,3L404.1,114.2z"/>
</svg>
