<?xml version="1.0" encoding="utf-8"?>
<!-- Generator: Adobe Illustrator 15.0.0, SVG Export Plug-In . SVG Version: 6.00 Build 0)  -->
<!DOCTYPE svg PUBLIC "-//W3C//DTD SVG 1.1//EN" "http://www.w3.org/Graphics/SVG/1.1/DTD/svg11.dtd">
<svg version="1.1" id="Calque_1" xmlns="http://www.w3.org/2000/svg" xmlns:xlink="http://www.w3.org/1999/xlink" x="0px" y="0px"
	 width="500px" height="500px" viewBox="0 0 500 500" enable-background="new 0 0 500 500" xml:space="preserve">
<path d="M78.991,297.162l5.373-40.749c1.009-7.164,2.689-18.246,4.031-25.522h-0.335c-3.47,7.61-7.725,16.567-11.753,24.293
	l-22.503,41.531H46.75l-5.597-40.638c-1.119-8.732-1.903-17.464-2.35-25.187h-0.336c-1.566,6.94-3.917,18.358-5.708,25.522
	l-10.3,40.749h-8.73l19.591-75.451h11.865l5.932,43.21c0.785,6.495,1.569,13.32,1.792,18.921h0.337
	c2.35-5.601,5.598-12.313,8.844-18.586l23.284-43.545h12.201l-9.627,75.451H78.991z"/>
<path d="M146.49,261.675h-27.425l-5.262,27.54h30.896l-1.567,7.947h-40.075l14.328-75.451h38.396l-1.567,7.947H125.22l-4.699,24.182
	h27.426L146.49,261.675z M155.111,204.471l-15.338,13.212h-8.17l11.306-13.212H155.111z"/>
<path d="M207.836,294.701c-4.252,1.902-11.082,3.582-19.591,3.582c-19.032,0-30.561-11.98-30.561-31.235
	c0-14.217,5.709-27.761,16.008-36.38c7.834-6.606,17.465-10.078,28.546-10.078c8.286,0,14.329,2.127,16.344,3.583l-3.024,7.5
	c-2.797-1.679-8.17-3.02-14.887-3.02c-7.835,0-15.785,3.02-21.605,8.393c-7.053,6.606-11.529,17.24-11.529,28.659
	c0,13.546,6.156,24.628,22.946,24.628c5.712,0,11.979-1.118,16.12-3.247L207.836,294.701z"/>
<path d="M233.461,273.319l-11.974,23.843h-9.854l39.069-75.451h10.859l10.523,75.451h-9.515l-3.136-23.843H233.461z
	 M258.765,265.932l-2.912-21.833c-0.446-3.918-1.009-9.514-1.344-13.878h-0.224c-2.015,4.475-3.918,9.179-6.155,13.767
	l-11.31,21.944H258.765z"/>
<path d="M295.816,222.717c4.7-0.894,10.073-1.563,16.232-1.563c7.723,0,13.432,1.563,17.353,5.146
	c3.583,2.913,5.486,6.829,5.486,11.756c0,9.626-7.729,16.678-16.233,18.919v0.225c6.714,2.015,12.312,7.723,12.312,16.79
	c0,7.724-4.029,13.883-8.956,17.577c-6.044,4.475-14.329,6.154-24.514,6.154c-6.493,0-12.092-0.446-15.562-1.117L295.816,222.717z
	 M292.345,289.774c2.35,0.335,5.039,0.447,7.611,0.447c10.971,0,21.271-4.588,21.271-16.68c0-8.844-7.499-12.761-15.897-12.761
	h-7.61L292.345,289.774z M299.174,253.729h6.942c10.857,0,19.14-5.597,19.14-14.775c0-7.28-5.485-10.412-13.655-10.412
	c-3.471,0-6.271,0.223-7.727,0.67L299.174,253.729z"/>
<path d="M409.885,251.375c0,13.101-4.815,27.541-13.769,36.497c-6.604,6.602-15.447,10.523-25.858,10.523
	c-19.479,0-28.546-14.669-28.546-30.673c0-13.324,5.149-27.988,14.329-37.055c6.493-6.271,15.784-10.188,25.299-10.188
	C401.717,220.479,409.885,235.255,409.885,251.375z M362.869,235.817c-7.275,7.276-11.42,20.596-11.42,31.121
	c0,12.313,5.484,23.619,20.265,23.619c6.377,0,12.538-2.797,17.237-7.5c7.053-7.165,11.196-20.708,11.196-31.23
	c0-10.748-3.47-23.509-20.04-23.509C373.393,228.317,367.569,231.226,362.869,235.817z"/>
<path d="M438.093,221.711l-14.329,75.451h-9.29l14.328-75.451H438.093z"/>
<path d="M441.9,285.522c4.14,2.796,9.737,4.811,16.007,4.811c8.506,0,16.345-5.039,16.345-14.105c0-5.598-3.136-9.85-11.088-14.105
	c-9.624-5.258-14.997-11.306-14.997-19.363c0-13.547,11.645-22.169,25.521-22.169c7.388,0,12.878,2.127,15.451,3.918l-3.359,7.616
	c-2.352-1.456-7.054-3.582-13.096-3.582c-9.292,0-14.888,6.154-14.888,12.314c0,6.154,3.806,9.626,11.751,13.989
	c9.292,5.039,14.328,10.972,14.328,20.267c0,12.983-10.188,23.284-27.202,23.284c-7.498-0.112-15.002-2.467-18.133-5.262
	L441.9,285.522z"/>
</svg>
