<?xml version="1.0" encoding="utf-8"?>
<!-- Generator: Adobe Illustrator 21.0.2, SVG Export Plug-In . SVG Version: 6.00 Build 0)  -->
<svg version="1.1" id="Calque_1" xmlns="http://www.w3.org/2000/svg" xmlns:xlink="http://www.w3.org/1999/xlink" x="0px" y="0px"
	 viewBox="0 0 500 184" style="enable-background:new 0 0 500 184;" xml:space="preserve">
<style type="text/css">
	.st0{fill:#134551;}
	.st1{fill:#A0A0A0;}
</style>
<path class="st0" d="M152.2,62.9c0-7.3-0.1-13-0.5-18.7h10.4l0.7,11.3h0.3c3.2-6.4,10.7-12.9,21.3-12.9c8.9,0,22.8,5.7,22.8,29.4
	v41.3h-11.7V73.5c0-11.1-3.9-20.6-14.9-20.6c-7.6,0-13.6,5.9-15.7,12.8c-0.5,1.6-0.8,3.9-0.8,5.9v41.7h-11.7L152.2,62.9L152.2,62.9z
	"/>
<path class="st0" d="M232.8,80.9c0.3,17,10.3,24,22,24c8.4,0,13.6-1.6,17.9-3.4l2.1,8.9c-4.1,2-11.3,4.4-21.6,4.4
	c-19.7,0-31.7-14.1-31.7-34.8c0-21,11.6-37.4,30.4-37.4c21.1,0,26.5,19.8,26.5,32.5c0,2.6-0.1,4.6-0.4,6L232.8,80.9z M267.1,71.9
	c0.1-7.9-3.1-20.4-16.1-20.4c-12,0-17.1,11.7-18,20.4H267.1z"/>
<path class="st1" d="M308.9,79.4l25.8-36.1h13.7l-20,27.3l21.9,42.9h-11.5l-17.9-36.7l-12,14.9v21.7h-11.4V21.1l11.4-5.8V79.4
	L308.9,79.4z"/>
<path class="st0" d="M389,114.9c-17.3,0-30.9-13.7-30.9-35.5c0-23.1,14.3-36.7,32-36.7c18.5,0,31.1,14.4,31.1,35.4
	c0,25.7-16.7,36.8-32,36.8L389,114.9L389,114.9z M389.4,105.5c11.2,0,19.6-11.3,19.6-27c0-11.7-5.5-26.4-19.3-26.4
	C376,52.1,370,65.8,370,78.9c0,15.1,8,26.6,19.3,26.6H389.4z"/>
<path class="st0" d="M439.6,100.6c3.6,2.3,9.7,4.9,15.6,4.9c8.4,0,12.4-4.4,12.4-10.3c0-6-3.3-9.3-11.9-12.7
	c-11.7-4.6-17.2-11.3-17.2-19.6c0-11.1,8.5-20.3,22.3-20.3c6.5,0,12.3,1.9,15.7,4.3l-2.8,9c-2.5-1.6-7.2-4-13.2-4
	c-6.9,0-10.7,4.3-10.7,9.4c0,5.8,3.7,8.4,12.1,11.8c11.1,4.4,16.9,10.4,16.9,20.8c0,12.3-8.9,20.8-24,20.8c-7.1,0-13.6-2-18.1-4.9
	L439.6,100.6z"/>
<path d="M310.2,160.3c-1.3,0-1.7-0.9-1.7-2.5v-8.6h3.3v-1.8h-3.3v-5.2l-1.9,1.1v4.1h-2v1.8h2v8.6c0,1.5,0.3,2.6,0.9,3.3
	c0.5,0.6,1.4,1,2.5,1c0.9,0,1.6-0.2,2-0.3l-0.2-1.8C311.4,160.2,310.8,160.3,310.2,160.3z"/>
<path d="M326.2,147.7c-3.7,0-6,3.2-6,7.4c0,4.1,2.4,6.9,6.2,6.9c2,0,3.4-0.5,4.2-0.9l-0.4-1.7c-0.8,0.4-1.9,0.7-3.5,0.7
	c-2.3,0-4.3-1.4-4.3-4.7h8.9c0.1-0.3,0.1-0.7,0.1-1.2C331.4,151.6,330.4,147.7,326.2,147.7z M322.5,153.5c0.2-1.7,1.2-4,3.5-4
	c2.6,0,3.2,2.5,3.2,4H322.5z"/>
<path d="M278.2,147.7c-3.7,0-6,3.2-6,7.4c0,4.1,2.4,6.9,6.2,6.9c2,0,3.4-0.5,4.2-0.9l-0.4-1.7c-0.8,0.4-1.9,0.7-3.5,0.7
	c-2.3,0-4.3-1.4-4.3-4.7h8.9c0.1-0.3,0.1-0.7,0.1-1.2C283.4,151.6,282.3,147.7,278.2,147.7z M274.5,153.5c0.2-1.7,1.2-4,3.5-4
	c2.6,0,3.2,2.5,3.2,4H274.5z"/>
<path d="M347.2,149.7c1.3,0,2.1,0.3,2.7,0.6l0.5-1.9c-0.6-0.4-1.8-0.7-3.2-0.7c-4.1,0-6.8,3.1-6.8,7.2c0,4.2,2.5,7,6.3,7
	c1.7,0,3-0.5,3.6-0.8l-0.4-1.9c-0.7,0.3-1.5,0.6-2.8,0.6c-2.5,0-4.4-1.9-4.4-5.1C342.7,152,344.3,149.7,347.2,149.7z"/>
<path d="M387.3,147.4c-2.1,0-4,1.3-4.7,2.6h-0.1l0.1-2.3h-1.7c0.1,1.2,0.1,2.3,0.1,3.8v10.3h1.8v-8.5c0-0.4,0-4.3,3.7-4.3
	c2.2,0,3.3,1.9,3.3,4.2v8.6h2v-8.5C391.8,148.6,389.1,147.4,387.3,147.4z"/>
<path d="M259.1,147.4c-2,0-3.7,1.2-4.5,2.4c-0.9-1.8-2.5-2.4-3.7-2.4c-2.1,0-4,1.3-4.7,2.6h-0.1l0.1-2.3h-1.7
	c0.1,1.2,0.1,2.3,0.1,3.8v10.3h1.8v-8.5c0-0.4,0-4.3,3.7-4.3c2.2,0,3.3,1.9,3.3,4.2v8.6h2v-8.5c0-0.9-0.1-1.7-0.3-2.3
	c0.4-1,1.3-2.1,3.2-2.1c2.2,0,3.3,1.9,3.3,4.2v8.6h2v-8.5C263.6,148.6,260.9,147.4,259.1,147.4z"/>
<path d="M157.7,147.4c-2,0-3.7,1.2-4.5,2.4c-0.9-1.8-2.5-2.4-3.7-2.4c-2.1,0-4,1.3-4.7,2.6h-0.1l0.1-2.3h-1.7
	c0.1,1.2,0.1,2.3,0.1,3.8v10.3h1.8v-8.5c0-0.4,0-4.3,3.7-4.3c2.2,0,3.3,1.9,3.3,4.2v8.6h2v-8.5c0-0.9-0.1-1.7-0.3-2.3
	c0.4-1,1.3-2.1,3.2-2.1c2.2,0,3.3,1.9,3.3,4.2v8.6h2v-8.5C162.2,148.6,159.5,147.4,157.7,147.4z"/>
<path d="M407.1,147.3c-3.6,0-6.5,2.8-6.5,7.5c0,4.4,2.7,7.2,6.3,7.2l0,0c3.1,0,6.5-2.3,6.5-7.5C413.4,150.2,410.8,147.3,407.1,147.3
	z M406.9,160.2L406.9,160.2c-2.5,0-4.3-2.4-4.3-5.5c0-2.7,1.3-5.6,4.3-5.6s4.2,3.1,4.2,5.5C411.2,157.9,409.4,160.2,406.9,160.2z"/>
<path d="M229.7,147.3c-3.6,0-6.5,2.8-6.5,7.5c0,4.4,2.7,7.2,6.3,7.2l0,0c3.1,0,6.5-2.3,6.5-7.5C236,150.2,233.5,147.3,229.7,147.3z
	 M229.6,160.2L229.6,160.2c-2.5,0-4.3-2.4-4.3-5.5c0-2.7,1.3-5.6,4.3-5.6s4.2,3.1,4.2,5.5C233.9,157.9,232.1,160.2,229.6,160.2z"/>
<path d="M439.9,147.3c-3.6,0-6.5,2.8-6.5,7.5c0,4.4,2.7,7.2,6.3,7.2l0,0c3.1,0,6.5-2.3,6.5-7.5C446.2,150.2,443.7,147.3,439.9,147.3
	z M439.8,160.2L439.8,160.2c-2.5,0-4.3-2.4-4.3-5.5c0-2.7,1.3-5.6,4.3-5.6s4.2,3.1,4.2,5.5C444.1,157.9,442.3,160.2,439.8,160.2z"/>
<path d="M463.8,150.1L463.8,150.1c-0.6-1.1-1.8-2.4-4-2.4c-2.9,0-5.7,2.6-5.7,7.3c0,3.9,2.2,6.8,5.4,6.8c2,0,3.3-1,4-2.3h0.1v1.5
	c0,3.5-1.7,4.9-4.1,4.9v1.7l0.1,0.2c1.6,0,3.2-0.5,4.5-1.7c1.2-1.2,1.8-3.1,1.8-6.3v-8c0-1.7,0-2.8,0.1-3.8h-2L463.8,150.1z
	 M463.5,155.9c0,0.5-0.1,0.9-0.2,1.3c-0.5,1.6-1.8,2.6-3.2,2.6c-2.5,0-3.7-2.3-3.7-5c0-3.2,1.6-5.3,3.8-5.3c1.7,0,2.8,1.2,3.2,2.7
	c0.1,0.3,0.1,0.7,0.1,1.1V155.9L463.5,155.9z"/>
<path d="M484.3,148l-2.5,7.4c-0.3,0.9-0.6,1.9-0.8,2.6l0,0c-0.2-0.8-0.5-1.8-0.8-2.6l-2.7-7.5H475l4.7,11.7c0.1,0.3,0.2,0.4,0.2,0.6
	l-2.7,6.6h2.4c0,0,3.3-8.2,3.9-9.8l3.5-9L484.3,148L484.3,148z"/>
<path d="M176.8,155.4c-0.3,0.9-0.6,1.9-0.8,2.6h-0.1c-0.2-0.8-0.5-1.8-0.8-2.6l-2.7-7.5h-2.5l4.6,11.7c0.1,0.3,0.2,0.4,0.2,0.6
	l-2.7,6.6h2.4c0,0,3.3-8.2,3.9-9.8l3.5-9h-2.4L176.8,155.4z"/>
<path d="M366.4,147.4c-1.9,0-3.6,1.1-4.4,2.3v-7.6l-2,1.1v18.9h2v-9.5c0.2-1.3,0.9-3.4,3.7-3.4c2.2,0,3.3,1.9,3.3,4.2v8.6h2v-8.5
	C370.8,148.6,368.1,147.4,366.4,147.4z"/>
<path d="M209.6,147.4c-1.9,0-3.6,1.1-4.4,2.3v-7.6l-2,1.1v18.9h2v-9.5c0.2-1.3,0.9-3.4,3.7-3.4c2.2,0,3.3,1.9,3.3,4.2v8.6h2v-8.5
	C214,148.6,211.3,147.4,209.6,147.4z"/>
<polygon points="422.5,162.1 424.5,162.1 424.5,142.1 422.5,143.2 "/>
<circle class="st1" cx="128.7" cy="50.3" r="7.2"/>
<circle class="st1" cx="128.7" cy="74" r="7.2"/>
<path class="st1" d="M53,18.1c-28.6,5.6-35.8,33.3-28.6,45.4c7.2,12,21.8,10.4,21.8,10.4s0-0.1,0-0.2c0.2,0,0.4,0,0.7,0
	c8.7,0,15.7-7,15.7-15.7s-7-15.7-15.7-15.7c-0.2,0-0.4,0-0.7,0l0,0c-6.6,0-10.4,2-12.2,0.9c-1-0.6-1.5-3.8-1.5-5.3
	c0-6.6,10.7-16.6,27.4-16.6c16.7,0,30.5,7.9,30.5,39C89,121.6,17.8,158,17.8,158s0,0,0,3.7c81.3-35,97.5-73.9,97.5-99.5
	C115.3,23.9,81.6,12.4,53,18.1z"/>
</svg>
