<?xml version="1.0" encoding="utf-8"?>
<!-- Generator: Adobe Illustrator 15.0.0, SVG Export Plug-In . SVG Version: 6.00 Build 0)  -->
<!DOCTYPE svg PUBLIC "-//W3C//DTD SVG 1.1//EN" "http://www.w3.org/Graphics/SVG/1.1/DTD/svg11.dtd">
<svg version="1.1" id="Calque_1" xmlns="http://www.w3.org/2000/svg" xmlns:xlink="http://www.w3.org/1999/xlink" x="0px" y="0px"
	 width="500px" height="500px" viewBox="0 0 500 500" enable-background="new 0 0 500 500" xml:space="preserve">
<path d="M11.884,295.586l16.77-88.304h11.921l20.176,50.048c3.93,9.951,5.896,17.029,7.731,24.632l0.261-0.134
	c0.525-7.992,1.443-15.33,3.801-27.644l8.908-46.903h10.219l-16.77,88.304H64.158l-20.177-49.919
	c-4.193-10.874-6.156-17.03-8.122-25.416l-0.395,0.13c-0.916,8.255-2.358,17.032-4.585,29.086l-8.776,46.119H11.884z"/>
<path d="M145.515,254.05h-32.102l-6.024,32.234h36.161l-1.834,9.302H94.68l16.767-88.304h45.072l-1.835,9.3h-34.063l-5.374,28.301
	h32.103L145.515,254.05z"/>
<path d="M186.515,216.712h-25.808l1.835-9.43h62.625l-1.834,9.43h-25.94l-14.939,78.874H171.58L186.515,216.712z"/>
<path d="M245.864,207.282l-16.77,88.304H218.22l16.771-88.304H245.864z"/>
<path d="M248.875,295.586l16.77-88.304h11.924l20.174,50.048c3.93,9.951,5.896,17.029,7.73,24.632l0.262-0.134
	c0.523-7.992,1.442-15.33,3.801-27.644l8.907-46.903h10.22l-16.77,88.304h-10.742l-20.178-49.919
	c-4.193-10.874-6.158-17.03-8.124-25.416l-0.393,0.13c-0.915,8.255-2.358,17.032-4.584,29.086l-8.778,46.119H248.875z"/>
<path d="M413.688,241.998c0,15.333-5.633,32.233-16.115,42.711c-7.727,7.729-18.078,12.318-30.263,12.318
	c-22.798,0-33.408-17.168-33.408-35.898c0-15.592,6.026-32.754,16.769-43.366c7.602-7.34,18.475-11.924,29.609-11.924
	C404.128,205.839,413.688,223.131,413.688,241.998z M358.664,223.791c-8.516,8.515-13.366,24.104-13.366,36.42
	c0,14.412,6.419,27.645,23.717,27.645c7.464,0,14.673-3.275,20.173-8.779c8.254-8.385,13.104-24.234,13.104-36.551
	c0-12.578-4.062-27.514-23.455-27.514C370.981,215.011,364.163,218.417,358.664,223.791z"/>
<path d="M463.08,295.586l-8.386-21.879c-2.358-5.898-4.192-10.878-5.636-15.465h-0.262c-2.754,4.193-5.896,9.039-10.35,15.201
	l-15.855,22.143h-12.969l34.458-44.938l-16.509-43.367h11.396l8.385,22.666c1.835,5.24,3.277,9.3,4.455,13.363h0.262
	c2.886-4.325,5.897-8.909,9.043-13.363l16.9-22.666h12.969l-34.062,43.23l17.685,45.074H463.08z"/>
</svg>
