<?xml version="1.0" encoding="utf-8"?>
<!-- Generator: Adobe Illustrator 21.0.2, SVG Export Plug-In . SVG Version: 6.00 Build 0)  -->
<svg version="1.1" id="Calque_1" xmlns="http://www.w3.org/2000/svg" xmlns:xlink="http://www.w3.org/1999/xlink" x="0px" y="0px"
	 viewBox="0 0 500 128" style="enable-background:new 0 0 500 128;" xml:space="preserve">
<path d="M11.9,109.6l16.8-88.3h11.9l20.2,50c3.9,10,5.9,17,7.7,24.6l0.3-0.1c0.5-8,1.4-15.3,3.8-27.6l8.9-46.9h10.2l-16.8,88.3H64.2
	L44,59.7c-4.2-10.9-6.2-17-8.1-25.4l-0.4,0.1c-0.9,8.3-2.4,17-4.6,29.1l-8.8,46.1L11.9,109.6L11.9,109.6z"/>
<path d="M145.5,68h-32.1l-6,32.2h36.2l-1.8,9.3h-47l16.8-88.3h45.1l-1.8,9.3h-34.1l-5.4,28.3h32.1L145.5,68z"/>
<path d="M186.5,30.7h-25.8l1.8-9.4h62.6l-1.8,9.4h-25.9l-14.9,78.9h-10.9L186.5,30.7z"/>
<path d="M245.9,21.3l-16.8,88.3h-10.9L235,21.3H245.9z"/>
<path d="M248.9,109.6l16.8-88.3h11.9l20.2,50c3.9,10,5.9,17,7.7,24.6l0.3-0.1c0.5-8,1.4-15.3,3.8-27.6l8.9-46.9h10.2l-16.8,88.3
	h-10.7L281,59.7c-4.2-10.9-6.2-17-8.1-25.4l-0.4,0.1c-0.9,8.3-2.4,17-4.6,29.1l-8.8,46.1L248.9,109.6L248.9,109.6z"/>
<path d="M413.7,56c0,15.3-5.6,32.2-16.1,42.7c-7.7,7.7-18.1,12.3-30.3,12.3c-22.8,0-33.4-17.2-33.4-35.9c0-15.6,6-32.8,16.8-43.4
	c7.6-7.3,18.5-11.9,29.6-11.9C404.1,19.8,413.7,37.1,413.7,56z M358.7,37.8c-8.5,8.5-13.4,24.1-13.4,36.4c0,14.4,6.4,27.6,23.7,27.6
	c7.5,0,14.7-3.3,20.2-8.8c8.3-8.4,13.1-24.2,13.1-36.6c0-12.6-4.1-27.5-23.5-27.5C371,29,364.2,32.4,358.7,37.8z"/>
<path d="M463.1,109.6l-8.4-21.9c-2.4-5.9-4.2-10.9-5.6-15.5h-0.3c-2.8,4.2-5.9,9-10.4,15.2l-15.9,22.1h-13L444,64.6l-16.5-43.4H439
	l8.4,22.7c1.8,5.2,3.3,9.3,4.5,13.4h0.3c2.9-4.3,5.9-8.9,9-13.4l16.9-22.7h13L457,64.4l17.7,45.1L463.1,109.6L463.1,109.6z"/>
</svg>
