<?xml version="1.0" encoding="utf-8"?>
<!-- Generator: Adobe Illustrator 19.1.0, SVG Export Plug-In . SVG Version: 6.00 Build 0)  -->
<svg version="1.1" id="Calque_1" xmlns="http://www.w3.org/2000/svg" xmlns:xlink="http://www.w3.org/1999/xlink" x="0px" y="0px"
	 viewBox="-345 170.9 500 500" style="enable-background:new -345 170.9 500 500;" xml:space="preserve">
<style type="text/css">
	.st0{fill:#FF0000;}
</style>
<path d="M-243.3,315.2h-27.9v7.9l2.4,0.1c2.9,0.1,5,0.9,6.4,2.7c1.7,2.1,2.5,5.6,2.5,10.3v44l-38.7-65h-29.2v8h5.9
	c1.1,0,2,0.2,2.7,0.5c0.1,0,0.8,0.6,3,3.4l0.5,0.6V389c0,3.4-0.9,8.4-2.8,10.7c-1.7,2.2-4,3.3-7,3.4l-0.6,0.1v7h27.4v-7l-0.5,0
	c-3.8-0.1-6.4-1-8.1-3c-1.8-2-2.7-7.5-2.7-11.9v-51l43.6,72.9h13.2v-75.1c0-2.5,0.5-4.9,1.4-7c1-2.4,2.1-3.5,2.7-3.9
	c0.7-0.4,0.2-0.9,3-0.9h2.4V315.2z"/>
<path d="M-235.8,343.2c2.8,0,5.4-1.3,7.3-3.7c1.8-2.2,2.7-4.9,2.7-7.9c0-3.1-0.9-5.8-2.8-8.1c-2.5-3.1-5.4-3.8-7.3-3.8
	c-1.9,0-4.8,0.7-7.3,3.8c-1.9,2.3-2.8,5-2.8,8c0,3,0.9,5.7,2.8,8C-240.7,342.5-237.8,343.2-235.8,343.2z"/>
<path d="M-226.3,402.3c0,0-0.2-0.3-0.2-1.4v-57l-23.6,9.3v5.6l2.5-0.9c2.1,0,2.8,0.8,3,1c0.7,0.7,1,2,1,3.7v37.2
	c0,1.1-0.2,2-0.5,2.5c-0.1,0.1-0.3,0.4-1.4,0.4h-4.6v8.6h30.8v-8.6h-5.9C-225.7,402.8-226,402.6-226.3,402.3z"/>
<path d="M-201.6,356.6c-9.1,26.9,1.5,43.4,9.2,43.4c14.1,0,17.5-9.5,17.5-9.5l4.3,3.5l-0.5,2c-5.9,12.4-18.1,15.4-22.8,15.4
	c-8.6,0-15.8-3.1-21.3-9.2c-5.3-5.9-8-13.8-8-23.5c0-11.1,2.9-19.9,8.7-26.2c4.5-4.8,9.6-7.9,15.4-9.1c1.9-0.4,4-0.4,6-0.4
	c13.6,0,19.3,8.2,19.3,12.8c0,2.9-0.9,5.4-2.5,7.3c-2.4,2.7-5.1,3.3-7,3.3c-2.6,0-5-1-6.7-2.9c-1.6-1.8-2.5-3.9-2.5-6.3
	c0,0-0.8-5.8-1.8-6.4C-195.3,350.2-199,349.1-201.6,356.6z"/>
<path d="M-19.7,356.6c0.3,5.1,5.2,7.1,13,10.4s17.5,8.9,15.8,25.1S-9.3,411.8-21.4,410c-10.6-1.6-14-9.5-13.3-13.4
	c0.4-2.5,1.4-4.5,3-6c2.2-2.1,9-2.7,11.9,1.6c2.6,3.9,0.2,11.5,5.6,11.2c0,0,11.6-0.1,11.6-7.7c0-7.5-7.3-8.9-13.9-11.7
	c-22.4-11.3-14.3-29-10.2-34c3.2-3.9,9.3-7.3,17.8-7.3c10.5,0,14.9,6.3,14.9,9.8c0,2.2-0.7,4.1-2,5.7c-1.8,2.1-7.2,3.7-10.6,0.3
	c-3.1-3-2.9-8.7-4.5-9.5C-14.6,347.2-20,351-19.7,356.6z"/>
<path d="M-117.9,401.9c-0.1-0.1-0.5-0.6-0.5-2v-34c0-4.3-0.7-8.1-2.1-11.3c-1.5-3.4-8.9-20.9-29.1-7c-1.4,1-2.9,2-4.2,3.3v-40
	l-24.4,8.2v7.8h5.6c1.7,0,2.4,0.5,2.8,0.9c0.7,0.7,1,1.9,1,3.5v68.1c0,1.5-0.4,2.2-0.6,2.4c-0.3,0.3-4.9,1.2-4.9,1.2v7.2h28.9v-7.9
	h-4.9c-0.5,0-1.3,0-1.6-0.4c-0.1-0.1-0.5-0.7-0.5-2.5v-30.2c0-2.7-0.2-10.1,4.7-12.9c3.6-2,7.5-2.2,10.1,1.1c1.6,2,2.4,4.8,2.4,8.6
	v34c0,0.6-0.1,1.5-0.6,1.9c-0.1,0-0.6,0.5-2.7,0.5h-2.3v7.9h28.8v-7.9h-4.1C-116.7,402.3-117.5,402.3-117.9,401.9z"/>
<path d="M-87,343c-8,0-14.8,3.3-20.1,9.8c-5.2,6.3-7.8,14.5-7.8,24.4c0,9.9,2.6,18.1,7.8,24.3c5.4,6.5,12,9.8,19.9,9.8
	c5.3,0,10.2-1.5,14.8-4.5c4.4-2.9,7.9-7,10.3-12c2.3-4.9,3.5-10.9,3.5-17.7c0-10-2.7-18.2-7.9-24.5C-72,346.2-78.9,343-87,343z
	 M-96.8,376.9c0-9.8,1-16.9,3.1-21.3c1.8-3.9,4-5.8,6.7-5.8c2.9,0,5.2,1.8,7,5.5c2,4.1,3,11.1,3,20.8c0,10.5-1,18-3.1,22.4
	c-1.9,4-4.1,5.9-7,5.9c-2.7,0-4.9-1.9-6.7-5.9C-95.7,394.2-96.8,386.9-96.8,376.9z"/>
<path d="M-37.7,401.4c-0.2-0.2-0.2-0.6-0.2-1.1v-89.9l-23.8,7.4v6.2h3.4c1.1,0,2,0.4,2.8,1.2c0.5,0.5,0.7,1.5,0.7,2.9v69
	c0,4.2-1,4.8-2.2,4.8l-3.8,0.8v6.3h29v-7.1h-4.5C-37,401.9-37.4,401.7-37.7,401.4z"/>
<path d="M37.8,342.2c-8,0-14.8,3.3-20.2,9.7c-5.2,6.2-7.8,14.3-7.8,24.1c0,9.8,2.6,17.8,7.8,24c5.4,6.4,12.1,9.7,19.9,9.7
	c5.3,0,10.3-1.5,14.8-4.5c4.4-2.9,7.9-6.9,10.3-11.8c2.3-4.8,3.5-10.7,3.5-17.5c0-9.9-2.7-18-7.9-24.2
	C52.7,345.5,45.9,342.2,37.8,342.2z M28.1,375.8c0-9.8,1-16.9,3-21.3c1.8-3.9,4-5.8,6.6-5.8c2.9,0,5.1,1.8,6.9,5.5
	c2,4.1,3,11.1,3,20.8c0,10.5-1,18-3.1,22.4c-1.8,4-4.1,5.9-6.9,5.9c-2.7,0-4.8-1.9-6.6-5.9C29.2,393,28.1,385.7,28.1,375.8z"/>
<path d="M87.2,367.5c-0.1,2.4-0.1,4.9-0.1,7.1v21.5c0,2.1,0.5,2.8,0.6,3c0.3,0.4,1.1,0.5,2.2,0.5h2.9v9.2H64.2v-9.2h3.9
	c1,0,1.7-0.2,2.1-0.6c0.4-0.4,0.6-0.8,0.6-1.5v-37.5c0-1.9-0.4-3.3-1.1-4.2c-0.4-0.5-1.2-1.1-3-1.1h-3V350l18.5-9l2.1,6
	c0.3,1.9,0.6,3.9,0.9,6.1c1.4-1.7,4.2-12.3,15.7-12.3c3.7,0,8.4,0.9,10.9,2.7c2.5,1.8,4.5,4.5,6,8.2c1.4,3.5,2.1,7.5,2.1,11.8v32.7
	c0,2.2,0.5,2.9,0.6,3c0.3,0.3,1.1,0.5,2.1,0.5h3.2v9.2H97.7v-9.2h2.6c1.8,0,2.7-0.3,3-0.6c0.5-0.5,0.6-1.5,0.6-2.3v-24.9
	c0-1.7-0.2-3.6-0.2-5.4c0-2.3,0-4.6,0-5.7s-0.8-6.9-8.1-6.9c-7.3,0-8.2,6.1-8.2,7.3C87.4,362.5,87.2,367.5,87.2,367.5z"/>
<path d="M-292.8,511.8h-13.9v-2.8c0-2.9-1.4-4.2-2.4-4.2c-1.2,0-1.9,0.3-2.2,0.8c-0.3,0.6-1.8,0.1-1.8,10.6
	c0,10.5,1.4,10.5,1.8,11.1c0.3,0.6,1,0.8,2.1,0.8c1,0,2.5-1.3,2.5-4.7v-3.1h13.9v0.5c0,3.8-0.4,6.5-1.2,8.1c-0.8,1.6-2.5,3-5.2,4.2
	c-2.7,1.2-6,1.8-9.9,1.8c-4.1,0-7.4-0.5-10.1-1.5c-2.6-1-4.4-2.4-5.2-4.2c-0.9-1.8-1.3-4.5-1.3-8.1v-10.8c0-2.7,0.1-4.7,0.4-6
	c0.3-1.3,1-2.6,2.4-3.8c1.3-1.2,3.1-2.2,5.4-2.9c2.3-0.7,5-1.1,8-1.1c4.1,0,7.5,0.5,10.1,1.6c2.7,1.1,4.4,2.5,5.3,4.1
	c0.8,1.6,1.3,4.2,1.3,7.6L-292.8,511.8L-292.8,511.8z"/>
<path d="M-221.4,518.2c0,3.6-0.1,6.2-0.4,7.7c-0.3,1.5-1.1,2.9-2.4,4.1c-1.4,1.2-3.2,2.2-5.5,2.9c-2.3,0.7-5,1-8,1
	c-2.9,0-5.5-0.3-7.8-0.9c-2.3-0.6-4.2-1.6-5.6-2.8c-1.4-1.3-2.2-2.6-2.5-4.1c-0.3-1.5-0.4-4.1-0.4-7.8v-6.2c0-3.6,0.1-6.2,0.4-7.7
	c0.3-1.5,1.1-2.9,2.4-4.1c1.4-1.2,3.2-2.2,5.5-2.9c2.3-0.7,5-1,8-1c2.9,0,5.5,0.3,7.8,0.9c2.3,0.6,4.2,1.6,5.6,2.8
	c1.4,1.3,2.2,2.6,2.5,4.1c0.3,1.5,0.4,4.1,0.4,7.8V518.2z M-234.5,508.1c0-1.5-1.4-3.4-3.4-3.4s-3.6,1.8-3.6,3.4v14.7
	c0,1.8,0.8,4,3.4,4s3.6-2.4,3.6-4.2V508.1z"/>
<path d="M-257.2,518.2c0,3.6-0.1,6.2-0.4,7.7c-0.3,1.5-1.1,2.9-2.4,4.1c-1.4,1.2-3.2,2.2-5.5,2.9c-2.3,0.7-5,1-8,1
	c-2.9,0-5.5-0.3-7.8-0.9c-2.3-0.6-4.2-1.6-5.6-2.8c-1.4-1.3-2.2-2.6-2.5-4.1c-0.3-1.5-0.4-4.1-0.4-7.8v-6.2c0-3.6,0.1-6.2,0.4-7.7
	c0.3-1.5,1.1-2.9,2.4-4.1c1.4-1.2,3.2-2.2,5.5-2.9c2.3-0.7,5-1,8-1c2.9,0,5.5,0.3,7.8,0.9c2.3,0.6,4.2,1.6,5.6,2.8
	c1.4,1.3,2.2,2.6,2.5,4.1c0.3,1.5,0.4,4.1,0.4,7.8L-257.2,518.2L-257.2,518.2z M-270.3,508.1c0-1.5-1.4-3.4-3.4-3.4
	s-3.6,1.8-3.6,3.4v14.7c0,1.8,0.8,4,3.4,4c2.7,0,3.6-2.4,3.6-4.2V508.1z"/>
<path d="M-217.9,497.2h14.2c3.8,0,17.7,0.2,17.7,13.3c0,7.9-4.6,10.6-6.5,11.2c-1.9,0.6-4.4,0.8-7.5,0.8h-5.6v10.7h-12.3
	L-217.9,497.2L-217.9,497.2z M-205.7,505.8v9.2c0.6,0,8.3,1.6,6.7-6.2C-199.6,506.1-202.9,505.8-205.7,505.8z"/>
<path d="M-183.4,497.2h27.5v8.7h-15.2v5.3h14.9v8.2h-14.9v6.5h15v7.2h-27.2L-183.4,497.2L-183.4,497.2z"/>
<path d="M-125.5,517.1c2-0.4,5.6-2,5.6-8.9c0-9.5-8.3-10.7-13.3-10.7c-1.4,0-3.7,0-6.1,0h-13.2v35.8h13.2V516l8.1,17.2h14.2
	L-125.5,517.1z M-137.4,515.3h-2.3l0-9.8c0,0,1.1,0,2.4,0c1.3,0,4.2,0.8,4.2,4.9C-133.1,515.3-137.4,515.3-137.4,515.3z"/>
<path d="M-104.4,533.3v-35.1h4.7v14.4h18.3v-14.4h4.7v35.1h-4.7v-16.6h-18.3v16.6H-104.4z"/>
<path d="M-53,530.2c-1.6,1.4-3.1,2.3-4.6,2.9c-1.5,0.6-3.1,0.8-4.8,0.8c-2.8,0-4.9-0.7-6.4-2c-1.5-1.4-2.3-3.1-2.3-5.2
	c0-1.2,0.3-2.4,0.9-3.4c0.6-1,1.3-1.9,2.2-2.5c0.9-0.6,2-1.1,3.1-1.4c0.8-0.2,2.1-0.4,3.8-0.7c3.5-0.4,6-0.9,7.7-1.5
	c0-0.6,0-1,0-1.1c0-1.8-0.4-3-1.2-3.7c-1.1-1-2.7-1.5-4.9-1.5c-2,0-3.5,0.3-4.5,1.1c-1,0.7-1.7,2-2.1,3.8l-4.2-0.6
	c0.4-1.8,1-3.3,1.9-4.4c0.9-1.1,2.1-2,3.8-2.6c1.7-0.6,3.6-0.9,5.8-0.9c2.2,0,3.9,0.2,5.3,0.8c1.4,0.5,2.4,1.2,3,1.9
	c0.6,0.8,1.1,1.8,1.3,2.9c0.1,0.7,0.2,2.1,0.2,4v5.8c0,4,0.1,6.5,0.3,7.6c0.2,1.1,0.5,2.1,1.1,3.1h-4.5
	C-52.6,532.4-52.9,531.4-53,530.2z M-53.4,520.5c-1.6,0.6-3.9,1.2-7,1.6c-1.8,0.3-3,0.5-3.8,0.9c-0.7,0.3-1.3,0.8-1.7,1.4
	c-0.4,0.6-0.6,1.3-0.6,2c0,1.2,0.4,2.1,1.3,2.9c0.9,0.8,2.1,1.2,3.8,1.2c1.7,0,3.1-0.4,4.4-1.1c1.3-0.7,2.2-1.7,2.9-3
	c0.5-1,0.7-2.4,0.7-4.3L-53.4,520.5L-53.4,520.5z"/>
<path d="M-42.3,533.3v-25.5h3.9v3.6c1.9-2.8,4.6-4.2,8.1-4.2c1.5,0,2.9,0.3,4.2,0.8c1.3,0.6,2.2,1.3,2.9,2.2c0.6,0.9,1.1,2,1.3,3.2
	c0.2,0.8,0.2,2.2,0.2,4.2v15.7H-26v-15.5c0-1.8-0.2-3.1-0.5-3.9c-0.3-0.9-0.9-1.6-1.8-2.1c-0.9-0.5-1.9-0.8-3-0.8
	c-1.8,0-3.4,0.6-4.8,1.7c-1.3,1.2-2,3.4-2,6.6v13.9L-42.3,533.3L-42.3,533.3z"/>
<path d="M1.5,533.3v-3.2c-1.6,2.5-4,3.8-7.1,3.8c-2,0-3.9-0.6-5.6-1.7c-1.7-1.1-3-2.7-4-4.7c-0.9-2-1.4-4.3-1.4-6.9
	c0-2.5,0.4-4.8,1.3-6.9c0.8-2.1,2.1-3.7,3.8-4.8c1.7-1.1,3.6-1.7,5.7-1.7c1.5,0,2.9,0.3,4.1,1c1.2,0.7,2.2,1.5,2.9,2.5v-12.6h4.3
	v35.1L1.5,533.3L1.5,533.3z M-12.2,520.6c0,3.3,0.7,5.7,2.1,7.3c1.4,1.6,3,2.4,4.9,2.4c1.9,0,3.5-0.8,4.8-2.3c1.3-1.5,2-3.9,2-7.1
	c0-3.5-0.7-6-2-7.7c-1.3-1.6-3-2.4-5-2.4c-1.9,0-3.5,0.8-4.8,2.3C-11.5,514.8-12.2,517.2-12.2,520.6z"/>
<path d="M34.5,533.3v-31H22.9v-4.2h27.9v4.2H39.2v31H34.5z"/>
<path d="M48,520.6c0-4.7,1.3-8.2,3.9-10.5c2.2-1.9,4.9-2.8,8-2.8c3.5,0,6.4,1.1,8.6,3.4c2.2,2.3,3.3,5.5,3.3,9.5
	c0,3.3-0.5,5.8-1.5,7.7c-1,1.9-2.4,3.3-4.3,4.4c-1.9,1-3.9,1.6-6.1,1.6c-3.6,0-6.4-1.1-8.6-3.4C49.1,528.2,48,524.9,48,520.6z
	 M52.4,520.6c0,3.3,0.7,5.7,2.1,7.3c1.4,1.6,3.2,2.4,5.4,2.4c2.1,0,3.9-0.8,5.3-2.4c1.4-1.6,2.1-4.1,2.1-7.5c0-3.2-0.7-5.5-2.1-7.2
	c-1.4-1.6-3.2-2.4-5.3-2.4c-2.2,0-4,0.8-5.4,2.4C53.1,514.9,52.4,517.3,52.4,520.6z"/>
<path d="M75.3,520.6c0-4.7,1.3-8.2,3.9-10.5c2.2-1.9,4.9-2.8,8-2.8c3.5,0,6.4,1.1,8.6,3.4c2.2,2.3,3.3,5.5,3.3,9.5
	c0,3.3-0.5,5.8-1.5,7.7c-1,1.9-2.4,3.3-4.3,4.4c-1.9,1-3.9,1.6-6.1,1.6c-3.6,0-6.4-1.1-8.6-3.4C76.4,528.2,75.3,524.9,75.3,520.6z
	 M79.7,520.6c0,3.3,0.7,5.7,2.1,7.3c1.4,1.6,3.2,2.4,5.4,2.4c2.1,0,3.9-0.8,5.3-2.4c1.4-1.6,2.1-4.1,2.1-7.5c0-3.2-0.7-5.5-2.1-7.2
	c-1.4-1.6-3.2-2.4-5.3-2.4c-2.2,0-4,0.8-5.4,2.4C80.4,514.9,79.7,517.3,79.7,520.6z"/>
<path d="M104.1,533.3v-35.1h4.3v35.1H104.1z"/>
<path d="M113.4,525.7l4.3-0.7c0.2,1.7,0.9,3,2,3.9c1.1,0.9,2.6,1.4,4.6,1.4c2,0,3.5-0.4,4.4-1.2c1-0.8,1.4-1.8,1.4-2.8
	c0-1-0.4-1.7-1.3-2.3c-0.6-0.4-2.1-0.9-4.4-1.5c-3.2-0.8-5.4-1.5-6.6-2.1c-1.2-0.6-2.1-1.4-2.8-2.4c-0.6-1-0.9-2.2-0.9-3.4
	c0-1.1,0.3-2.2,0.8-3.2c0.5-1,1.2-1.8,2.1-2.4c0.7-0.5,1.6-0.9,2.7-1.3c1.2-0.3,2.4-0.5,3.7-0.5c2,0,3.8,0.3,5.3,0.9
	c1.5,0.6,2.6,1.4,3.3,2.3s1.2,2.3,1.5,3.9l-4.2,0.6c-0.2-1.3-0.7-2.3-1.7-3.1c-0.9-0.7-2.2-1.1-3.9-1.1c-2,0-3.4,0.3-4.2,1
	c-0.8,0.7-1.3,1.4-1.3,2.3c0,0.6,0.2,1.1,0.5,1.5c0.4,0.5,0.9,0.8,1.7,1.2c0.4,0.2,1.7,0.5,3.8,1.1c3.1,0.8,5.2,1.5,6.4,2
	c1.2,0.5,2.2,1.3,2.8,2.3c0.7,1,1,2.2,1,3.7c0,1.4-0.4,2.8-1.3,4.1c-0.8,1.3-2,2.3-3.6,2.9c-1.6,0.7-3.4,1-5.4,1
	c-3.3,0-5.8-0.7-7.6-2.1C115,530.4,113.9,528.4,113.4,525.7z"/>
<polygon class="st0" points="-148.6,467.8 -218.9,495.5 -218.9,466.4 -148.6,438.7 "/>
<path d="M121.9,341.3v-11.7h5.2c1,0,1.8,0.1,2.4,0.3c0.5,0.2,1,0.6,1.3,1.1c0.3,0.5,0.5,1.1,0.5,1.8c0,0.8-0.3,1.5-0.8,2.1
	c-0.5,0.6-1.4,0.9-2.5,1.1c0.4,0.2,0.7,0.4,0.9,0.6c0.5,0.4,0.9,0.9,1.3,1.6l2,3.2h-2l-1.5-2.4c-0.5-0.7-0.8-1.2-1.1-1.6
	c-0.3-0.4-0.6-0.6-0.8-0.8c-0.2-0.1-0.5-0.3-0.7-0.3c-0.2,0-0.5-0.1-0.9-0.1h-1.8v5.2L121.9,341.3L121.9,341.3z M123.5,334.8h3.3
	c0.7,0,1.3-0.1,1.7-0.2c0.4-0.1,0.7-0.4,0.9-0.7c0.2-0.3,0.3-0.7,0.3-1.1c0-0.6-0.2-1-0.6-1.4c-0.4-0.4-1-0.5-1.9-0.5h-3.7
	L123.5,334.8L123.5,334.8z"/>
<path d="M126.2,347.8c-6.6,0-12-5.4-12-12s5.4-12,12-12c6.6,0,12,5.4,12,12S132.9,347.8,126.2,347.8z M126.2,327.2
	c-4.7,0-8.6,3.8-8.6,8.6s3.8,8.6,8.6,8.6s8.6-3.8,8.6-8.6S131,327.2,126.2,327.2z"/>
</svg>
