<?xml version="1.0" encoding="utf-8"?>
<!-- Generator: Adobe Illustrator 21.0.2, SVG Export Plug-In . SVG Version: 6.00 Build 0)  -->
<svg version="1.1" id="Calque_1" xmlns="http://www.w3.org/2000/svg" xmlns:xlink="http://www.w3.org/1999/xlink" x="0px" y="0px"
	 viewBox="0 0 500 242" style="enable-background:new 0 0 500 242;" xml:space="preserve">
<style type="text/css">
	.st0{fill:#FF9700;}
</style>
<path class="st0" d="M139.1,107.2c-3.8-1.9-9.1-2.8-15.8-2.8c-5.3,0-10.2,0.7-14.6,2.1c-4.4,1.4-11.8,5.5-15.2,8.2l3.2-9H58.9
	l-21.5,77.5h36.7L88.3,138c4-10.8,10.3-14.1,13.1-14.1c5.6,0,4.3,6,3.2,11.2l-14.5,48h39l15.4-54.9c1.5-6.6,1.9-11.3,1.4-14.1
	C145.2,111.3,143,109,139.1,107.2z"/>
<path class="st0" d="M330.4,108c-4-1.9-9.6-2.9-16.6-2.9c-5.3,0-10.4,0.7-15.1,2.2c-4.8,1.4-9.3,3.6-13.6,6.5
	c-4.7-5.8-12.5-8.7-23.5-8.7c-5.7,0-10.9,0.7-15.8,2.2c-4.9,1.4-9.3,3.6-13.3,6.5l2.8-7.3h-40.8L172.3,183h40.1l13.9-45.7
	c1.1-3.7,1.8-6.1,2.3-7.2s1.5-2.1,3-2.9s3.2-1.2,5-1.2c2.9,0,4.5,0.8,4.7,2.2c0.2,1.5-0.8,6-2.9,13.5L225.8,183h40.1l12.2-42
	c1.9-6.6,3.5-10.6,4.8-12.2c1.3-1.5,3.4-2.3,6.3-2.3s4.5,0.8,4.8,2.3c0.3,1.6-0.5,5.6-2.4,12.1l-12.2,42h40.1l15.8-54.3
	c1.8-6.3,2.5-10.8,2-13.6C336.7,112.2,334.4,109.9,330.4,108z"/>
<path class="st0" d="M380.2,182.7c6.4,2.4,15.6,3.6,27.7,3.6c9.4,0,17.6-0.9,24.4-2.6c6.9-1.7,12.7-4.3,17.6-7.7
	c4.9-3.4,8.1-6.7,9.7-9.9c1.6-3.2,3.3-8,5.1-14.5h-39.8c0,0-2.4,8.5-2.8,10.5s-2.9,8.6-10.4,7.7s-8.8-5.1-7.3-10.4
	s6.8-25.4,8.8-31.6s7.3-8.8,11.9-8.2c4.6,0.7,6.4,3.8,5.5,7.7c-0.9,4-4,12.8-4,12.8h40.2c2-7.6,4.6-19.1,3.1-23.2s-5.8-7.6-13-10.3
	c-7.2-2.7-16.3-4.1-27.4-4.1c-11.2,0-21.1,1.4-29.6,4.1s-14.5,5.9-17.8,9.3c-3.3,3.5-5.9,8.6-7.7,15.5l-6.1,22.9
	c-2.1,7.9-2.2,13.9-0.4,18.2C369.7,177,373.8,180.4,380.2,182.7z"/>
<path class="st0" d="M28.8,222.4h126.5V21.7H28.8V222.4z M34.1,27H150v190.1H34.1V27z"/>
<path class="st0" d="M163.6,222.4h183.5V21.7H163.6V222.4z M170,28.1h170.7v188H170V28.1z"/>
<path class="st0" d="M355,21.7v200.7h126.5V21.7H355z M476.2,217.1H360.3V27h115.9V217.1z"/>
</svg>
