<?xml version="1.0" encoding="utf-8"?>
<!-- Generator: Adobe Illustrator 15.0.0, SVG Export Plug-In . SVG Version: 6.00 Build 0)  -->
<!DOCTYPE svg PUBLIC "-//W3C//DTD SVG 1.1//EN" "http://www.w3.org/Graphics/SVG/1.1/DTD/svg11.dtd">
<svg version="1.1" id="Calque_1" xmlns="http://www.w3.org/2000/svg" xmlns:xlink="http://www.w3.org/1999/xlink" x="0px" y="0px"
	 width="500px" height="500px" viewBox="0 0 500 500" enable-background="new 0 0 500 500" xml:space="preserve">
<g>
	<path fill="#02A55B" d="M255.965,158.015h-31.354c0,0,24.008,3.107,25.139,10.451c9.745,20.337,2.542,113.551,2.542,113.551
		L142.132,158.862H85.073c0,0,16.47,0.737,33.035,13.851c0.753,9.146,2.838,37.405,2.838,70.042c0,39.827,0.848,66.662-1.695,72.028
		c-2.542,5.369-22.879,9.04-27.681,10.168h68.073c0,0-27.679-1.976-29.093-12.145c-1.374-9.886-3.014-105.458,0.01-128.157
		c32.511,34.065,127.946,141.997,127.946,141.997h1.979c0,0-2.261-133.322,2.683-157.049c0.424-5.367,24.15-11.581,24.15-11.581
		H255.965z M251.446,310.83L120.099,165.924l11.016-0.282l120.33,136.148V310.83z"/>
</g>
<g>
	<path fill="#02A55B" d="M326.865,203.209c0,0,23.163,2.825,27.683,6.78c4.521,3.955,5.366,12.993,5.366,25.704s0,76.265,0,99.145
		s-28.245,29.94-31.07,29.94s-13.842-0.281-20.902-5.085c-7.061-4.801-14.124-30.221-14.124-30.221v34.458
		c0,0,11.016,13.559,47.454,8.474c36.438-5.084,42.652-40.956,42.652-53.386c0-12.428,0-96.037,0-103.946
		c0-7.91,26.552-11.864,26.552-11.864H326.865z M355.676,355.741c7.91-12.995,7.344-30.225,7.344-38.417
		c0-8.189-1.129-109.313-1.129-109.313h7.627c0,0,0,101.971,0,111.292S371.493,347.549,355.676,355.741z"/>
</g>
<g>
	<path fill="#02A55B" d="M318.107,225.524c0-51.691-61.013-45.195-73.44-45.195c-12.428,0-63.838,0-63.838,0
		s29.095,2.826,29.095,9.322c0,6.496,0,83.045,0,90.671c0,7.627,0,48.3,0,52.254c0,3.956,1.132,10.171-5.366,11.301
		c-6.498,1.129-24.01,3.671-24.01,3.671h87.564c0,0-16.665-3.108-23.727-4.803c-7.062-1.695-7.626-7.908-7.909-13.84
		c-0.283-5.932-1.13-51.973-1.13-51.973s11.016,0,16.947,0C258.225,276.934,318.107,277.215,318.107,225.524z M222.917,342.465
		h-7.626c0,0-0.283-146.881-0.283-152.813c0-5.932,3.673-5.368,4.52-5.368c0.848,0,3.39,2.542,3.39,5.649
		C222.917,193.041,222.917,342.465,222.917,342.465z M305.678,226.654c0,30.505-18.359,45.477-36.154,45.477
		c13.558-7.345,28.812-16.101,28.812-46.606c0-16.384-12.429-34.743-35.591-42.087C262.744,183.437,305.678,186.827,305.678,226.654
		z M235.911,267.047c0-2.825,0-66.38,0-70.617c0-4.237,0.562-7.908,7.908-9.039c4.467-0.688,49.996-3.672,49.996,42.087
		c0,24.574-16.665,42.652-45.476,42.652C240.429,272.131,235.911,269.872,235.911,267.047z"/>
</g>
<g>
	<path fill="#02A55B" d="M250.033,67.344c107.002,0,194.053,80.97,194.053,180.495c0,99.524-87.051,180.494-194.053,180.494
		c-107.001,0-194.053-80.97-194.053-180.494C55.981,148.314,143.032,67.344,250.033,67.344 M250.033,35.143
		c-124.958,0-226.254,95.227-226.254,212.696c0,117.469,101.296,212.694,226.254,212.694c124.957,0,226.254-95.226,226.254-212.694
		C476.287,130.37,374.99,35.143,250.033,35.143L250.033,35.143z"/>
</g>
<g>
	<path fill="#02A55B" d="M250.033,400.196c-89.246,0-161.852-68.348-161.852-152.357c0-84.01,72.606-152.357,161.852-152.357
		s161.852,68.347,161.852,152.357C411.885,331.849,339.28,400.196,250.033,400.196z M250.033,102.261
		c-85.507,0-155.073,65.306-155.073,145.578s69.565,145.578,155.073,145.578c85.507,0,155.073-65.306,155.073-145.578
		S335.54,102.261,250.033,102.261z"/>
</g>
<g>
	<path fill="#02A55B" d="M250.033,335.669c-51.398,0-93.213-39.4-93.213-87.83c0-48.431,41.815-87.831,93.213-87.831
		c51.398,0,93.213,39.4,93.213,87.831C343.246,296.269,301.432,335.669,250.033,335.669z M250.033,166.787
		c-47.659,0-86.434,36.359-86.434,81.052c0,44.692,38.775,81.051,86.434,81.051s86.434-36.358,86.434-81.051
		C336.467,203.146,297.693,166.787,250.033,166.787z"/>
</g>
<g>
	<path fill="#02A55B" d="M274.889,79.692h-13.584c-0.902-5.092-5.6-8.978-11.271-8.978s-10.369,3.886-11.271,8.978h-14.434v4.68
		h14.698c1.351,4.526,5.761,7.849,11.006,7.849s9.655-3.323,11.006-7.849h13.85V79.692z M250.033,87.539
		c-3.727,0-6.759-2.723-6.759-6.071c0-3.349,3.032-6.073,6.759-6.073c3.728,0,6.76,2.724,6.76,6.073
		C256.793,84.816,253.761,87.539,250.033,87.539z"/>
</g>
<g>
	<path fill="#02A55B" d="M274.889,413.562h-13.584c-0.902-5.091-5.6-8.977-11.271-8.977s-10.369,3.886-11.271,8.977h-14.434v4.681
		h14.698c1.351,4.528,5.761,7.849,11.006,7.849s9.655-3.32,11.006-7.849h13.85V413.562z M250.033,421.411
		c-3.727,0-6.759-2.725-6.759-6.071c0-3.35,3.032-6.073,6.759-6.073c3.728,0,6.76,2.724,6.76,6.073
		C256.793,418.687,253.761,421.411,250.033,421.411z"/>
</g>
<g>
	<g>
		<rect x="249.047" y="16.5" fill="#02A55B" width="0.847" height="10.169"/>
	</g>
	<g>
		<path fill="#02A55B" d="M249.894,49.23h-0.847v-3.223h0.847V49.23z M249.894,37.95h-0.847v-3.223h0.847V37.95z"/>
	</g>
	<g>
		<path fill="#02A55B" d="M249.894,469.821h-0.847v-3.221h0.847V469.821z M249.894,458.541h-0.847v-3.221h0.847V458.541z
			 M249.894,447.264h-0.847v-19.338h0.847V447.264z M249.894,423.089h-0.847v-3.224h0.847V423.089z M249.894,411.809h-0.847v-3.221
			h0.847V411.809z M249.894,400.531h-0.847v-19.338h0.847V400.531z M249.894,376.357h-0.847v-3.225h0.847V376.357z M249.894,365.076
			h-0.847v-3.221h0.847V365.076z M249.894,353.797h-0.847v-19.338h0.847V353.797z M249.894,329.625h-0.847v-3.223h0.847V329.625z
			 M249.894,318.344h-0.847v-3.223h0.847V318.344z M249.894,307.064h-0.847v-19.338h0.847V307.064z M249.894,282.893h-0.847v-3.225
			h0.847V282.893z M249.894,271.611h-0.847v-3.223h0.847V271.611z M249.894,260.332h-0.847v-19.338h0.847V260.332z M249.894,236.16
			h-0.847v-3.223h0.847V236.16z M249.894,224.88h-0.847v-3.224h0.847V224.88z M249.894,213.599h-0.847v-19.337h0.847V213.599z
			 M249.894,189.427h-0.847v-3.223h0.847V189.427z M249.894,178.146h-0.847v-3.223h0.847V178.146z M249.894,166.866h-0.847v-19.337
			h0.847V166.866z M249.894,142.694h-0.847v-3.223h0.847V142.694z M249.894,131.414h-0.847v-3.222h0.847V131.414z M249.894,120.134
			h-0.847v-19.337h0.847V120.134z M249.894,95.962h-0.847v-3.223h0.847V95.962z M249.894,84.682h-0.847v-3.223h0.847V84.682z
			 M249.894,73.401h-0.847V54.064h0.847V73.401z"/>
	</g>
	<g>
		<rect x="249.047" y="474.658" fill="#02A55B" width="0.847" height="10.168"/>
	</g>
</g>
</svg>
