<?xml version="1.0" encoding="utf-8"?>
<!-- Generator: Adobe Illustrator 15.0.0, SVG Export Plug-In . SVG Version: 6.00 Build 0)  -->
<!DOCTYPE svg PUBLIC "-//W3C//DTD SVG 1.1//EN" "http://www.w3.org/Graphics/SVG/1.1/DTD/svg11.dtd">
<svg version="1.1" id="Calque_1" xmlns="http://www.w3.org/2000/svg" xmlns:xlink="http://www.w3.org/1999/xlink" x="0px" y="0px"
	 width="500px" height="500px" viewBox="0 0 500 500" enable-background="new 0 0 500 500" xml:space="preserve">
<g>
	<g>
		<path fill="#FF0000" d="M197.418,214.993l-6.664,33.508h-5.952l6.665-33.508H197.418z"/>
		<path fill="#FF0000" d="M201.001,231.499c0.555-2.785,0.921-5.122,1.24-7.209h5.176l-0.431,3.629h0.146
			c1.439-1.89,4.458-4.176,8.378-4.176c4.109,0,7.823,2.733,6.301,10.389l-2.858,14.37h-5.95l2.719-13.671
			c0.693-3.481-0.042-6.117-3.283-6.117c-2.371,0-4.361,1.74-5.356,3.58c-0.292,0.498-0.538,1.242-0.675,1.939l-2.839,14.269h-5.951
			L201.001,231.499z"/>
		<path fill="#FF0000" d="M247.321,244.97c-1.008,5.07-2.746,8.701-5.666,10.987c-2.865,2.238-6.439,2.934-9.68,2.934
			c-3,0-6.053-0.695-7.84-1.938l2.227-4.623c1.322,0.894,3.649,1.839,6.503,1.839c3.871,0,7.189-2.088,8.228-7.309l0.416-2.088
			h-0.098c-1.78,2.138-4.437,3.58-7.583,3.58c-5.852,0-9.026-4.972-7.66-11.833c1.582-7.954,7.573-12.776,13.233-12.776
			c3.629,0,5.353,1.789,6.069,3.779h0.098l0.884-3.232h5.177c-0.425,1.64-0.916,3.629-1.58,6.96L247.321,244.97z M243.557,233.982
			c0.118-0.596,0.179-1.142,0.132-1.639c-0.184-2.237-1.541-3.928-4.057-3.928c-3.339,0-6.397,2.982-7.377,7.905
			c-0.82,4.128,0.548,7.458,4.275,7.458c2.224,0,4.455-1.491,5.577-3.729c0.313-0.595,0.529-1.442,0.668-2.137L243.557,233.982z"/>
		<path fill="#FF0000" d="M259.275,238.11c-0.727,4.375,2.189,6.264,6.008,6.264c2.759,0,4.783-0.447,6.751-1.093l0.041,4.175
			c-2.211,0.896-5.146,1.541-8.532,1.541c-7.645,0-11.185-4.822-9.711-12.23c1.335-6.712,6.558-13.025,14.106-13.025
			c7.644,0,8.872,6.462,7.814,11.782c-0.229,1.144-0.502,2.039-0.708,2.586H259.275z M270.477,233.834
			c0.495-2.237,0.257-5.916-3.708-5.916c-3.679,0-5.908,3.431-6.645,5.916H270.477z"/>
		<path fill="#FF0000" d="M281.218,232.093c0.653-3.281,1.078-5.666,1.358-7.804h5.128l-0.666,4.574h0.145
			c1.834-3.381,4.937-5.121,7.502-5.121c0.58,0,0.909,0.05,1.373,0.148l-1.139,5.719c-0.511-0.101-1.034-0.149-1.759-0.149
			c-2.807,0-5.156,1.838-6.243,4.623c-0.205,0.547-0.382,1.193-0.51,1.838l-2.502,12.58h-5.951L281.218,232.093z"/>
		<path fill="#FF0000" d="M296.058,242.833c1.139,0.846,3.513,1.79,5.642,1.79c2.612,0,4.002-1.144,4.317-2.734
			c0.326-1.641-0.481-2.436-3.167-3.529c-4.279-1.592-5.653-4.177-5.079-7.061c0.851-4.276,4.938-7.556,10.405-7.556
			c2.612,0,4.758,0.647,6.002,1.441l-2.059,4.277c-0.851-0.598-2.627-1.393-4.706-1.393c-2.129,0-3.508,1.094-3.805,2.585
			c-0.307,1.542,0.667,2.237,3.44,3.38c3.999,1.542,5.488,3.78,4.824,7.358c-0.881,4.424-4.85,7.606-11.093,7.606
			c-2.854,0-5.278-0.696-6.821-1.69L296.058,242.833z"/>
		<path fill="#FF0000" d="M340.194,236.17c-1.771,8.9-8.659,12.877-14.657,12.877c-6.627,0-10.876-4.674-9.323-12.479
			c1.583-7.954,7.633-12.826,14.743-12.826C337.972,223.742,341.657,228.812,340.194,236.17z M322.388,236.42
			c-0.93,4.672,0.644,8.203,4.222,8.203c3.387,0,6.429-3.381,7.409-8.303c0.751-3.778-0.022-8.153-4.088-8.153
			C325.724,228.167,323.19,232.392,322.388,236.42z"/>
		<path fill="#FF0000" d="M349.643,213.202h5.948l-7.021,35.299h-5.949L349.643,213.202z"/>
		<path fill="#FF0000" d="M362.071,213.202h5.95l-7.021,35.299h-5.95L362.071,213.202z"/>
		<path fill="#FF0000" d="M384.298,215.489c2.363-0.448,5.712-0.746,9.147-0.746c4.691,0,7.678,0.796,9.529,2.686
			c1.483,1.541,2.035,3.877,1.46,6.761c-0.86,4.324-4.299,7.258-7.612,8.352l-0.028,0.149c2.19,0.894,3.131,3.23,3.262,6.463
			c0.233,4.176,0.332,8.053,0.703,9.347h-6.095c-0.285-0.995-0.564-3.729-0.605-7.906c-0.096-4.375-1.318-5.765-4.686-5.866h-3.001
			l-2.739,13.772h-5.901L384.298,215.489z M387.262,230.254h3.533c4.018,0,6.918-2.186,7.58-5.518c0.723-3.629-1.397-5.37-5.27-5.37
			c-1.887,0-3.126,0.149-3.736,0.299L387.262,230.254z"/>
		<path fill="#FF0000" d="M424.939,242.684c-0.436,2.188-0.766,4.325-0.771,5.817h-5.369l0.099-2.686h-0.146
			c-1.779,1.89-4.512,3.232-7.608,3.232c-4.74,0-6.7-3.529-5.968-7.21c1.206-6.065,7.102-9.196,15.801-9.147l0.078-0.397
			c0.316-1.591,0.213-4.226-3.947-4.226c-2.322,0-4.889,0.745-6.695,1.789l-0.369-3.977c1.96-1.094,5.215-2.137,8.941-2.137
			c7.546,0,8.744,4.921,7.687,10.24L424.939,242.684z M420.328,236.668c-4.197-0.05-8.391,0.846-9.122,4.524
			c-0.475,2.386,0.807,3.479,2.694,3.479c2.418,0,4.426-1.59,5.353-3.33c0.234-0.448,0.323-0.894,0.412-1.342L420.328,236.668z"/>
		<path fill="#FF0000" d="M433.446,231.499c0.555-2.785,0.921-5.122,1.238-7.209h5.178l-0.432,3.629h0.146
			c1.439-1.89,4.459-4.176,8.378-4.176c4.111,0,7.824,2.733,6.301,10.389l-2.858,14.37h-5.948l2.719-13.671
			c0.692-3.481-0.041-6.117-3.283-6.117c-2.371,0-4.36,1.74-5.355,3.58c-0.293,0.498-0.538,1.242-0.676,1.939l-2.839,14.269h-5.949
			L433.446,231.499z"/>
		<path fill="#FF0000" d="M486.471,213.202l-5.666,28.486c-0.495,2.486-0.932,5.171-1.163,6.812h-5.271l0.472-3.83h-0.098
			c-1.937,2.686-5.127,4.377-8.514,4.377c-5.659,0-9.133-4.924-7.65-12.38c1.565-8.104,7.46-12.926,13.12-12.926
			c3.241,0,5.296,1.342,6.005,3.132h0.097l2.719-13.672H486.471z M476.309,234.382c0.1-0.499,0.179-1.144,0.181-1.641
			c-0.067-2.338-1.57-4.276-4.276-4.276c-3.822,0-6.643,3.479-7.533,7.955c-0.891,4.474,0.595,7.704,4.369,7.704
			c2.418,0,4.881-1.688,5.987-4.324c0.254-0.547,0.423-1.143,0.551-1.789L476.309,234.382z"/>
	</g>
	<g>
		<path fill="#7C7C7C" d="M178.192,282.836c0.953,0.704,2.419,1.241,4.111,1.241c2.51,0,4.253-1.325,4.654-3.243
			c0.365-1.749-0.431-2.792-2.796-3.75c-2.866-1.128-4.442-2.764-3.888-5.416c0.618-2.96,3.532-5.16,7.226-5.16
			c1.917,0,3.262,0.451,3.979,0.931l-1.095,2.004c-0.516-0.368-1.673-0.903-3.394-0.903c-2.594,0-3.905,1.551-4.176,2.848
			c-0.371,1.777,0.602,2.65,3.012,3.666c2.955,1.241,4.239,2.792,3.656,5.583c-0.613,2.935-3.292,5.5-7.776,5.5
			c-1.833,0-3.718-0.564-4.592-1.241L178.192,282.836z"/>
		<path fill="#7C7C7C" d="M194.579,279.453c-0.646,3.354,1.181,4.737,3.69,4.737c1.777,0,2.941-0.31,3.927-0.705l0.081,1.776
			c-0.957,0.395-2.581,0.874-4.752,0.874c-4.202,0-6.129-2.792-5.267-6.909c0.86-4.117,3.958-7.332,7.934-7.332
			c4.484,0,4.826,3.892,4.301,6.401c-0.105,0.508-0.21,0.874-0.325,1.157H194.579z M202.226,277.676
			c0.352-1.551,0.188-4.004-2.604-4.004c-2.538,0-4.086,2.284-4.644,4.004H202.226z"/>
		<path fill="#7C7C7C" d="M215.822,285.347c-0.713,0.31-2.251,0.789-4.084,0.789c-4.117,0-6.214-2.792-5.341-6.966
			c0.878-4.202,4.398-7.275,8.853-7.275c1.466,0,2.687,0.366,3.287,0.733l-0.958,1.89c-0.528-0.311-1.388-0.649-2.741-0.649
			c-3.13,0-5.312,2.341-5.901,5.161c-0.661,3.158,0.964,5.104,3.67,5.104c1.411,0,2.411-0.337,3.181-0.647L215.822,285.347z"/>
		<path fill="#7C7C7C" d="M230.831,282.074c-0.3,1.438-0.531,2.68-0.67,3.751h-2.2l0.324-2.228h-0.057
			c-0.85,1.1-2.616,2.538-5.041,2.538c-2.144,0-4.458-1.212-3.461-5.979l1.668-7.981h2.481l-1.574,7.53
			c-0.542,2.594-0.095,4.371,2.132,4.371c1.665,0,3.063-1.157,3.75-2.284c0.211-0.339,0.389-0.789,0.49-1.27l1.744-8.348h2.481
			L230.831,282.074z"/>
		<path fill="#7C7C7C" d="M236.128,276.435c0.335-1.606,0.596-2.989,0.777-4.259h2.171l-0.453,2.708h0.085
			c1.003-1.832,2.768-2.989,4.431-2.989c0.254,0,0.446,0.029,0.667,0.057l-0.489,2.341c-0.243-0.057-0.497-0.057-0.835-0.057
			c-1.749,0-3.26,1.298-3.987,3.159c-0.126,0.338-0.244,0.76-0.326,1.155l-1.521,7.275h-2.481L236.128,276.435z"/>
		<path fill="#7C7C7C" d="M249.917,268.342c-0.177,0.845-0.911,1.522-1.898,1.522c-0.903,0-1.353-0.678-1.176-1.522
			c0.177-0.846,0.944-1.552,1.875-1.552C249.62,266.79,250.1,267.467,249.917,268.342z M243.499,285.825l2.853-13.649h2.481
			l-2.853,13.649H243.499z"/>
		<path fill="#7C7C7C" d="M256.624,268.905l-0.685,3.271h3.553l-0.394,1.891h-3.554l-1.538,7.36c-0.354,1.69-0.076,2.65,1.307,2.65
			c0.677,0,1.083-0.057,1.474-0.169l-0.282,1.889c-0.515,0.17-1.312,0.339-2.271,0.339c-1.155,0-2.005-0.395-2.462-1.043
			c-0.517-0.762-0.544-1.976-0.209-3.581l1.557-7.445h-2.115l0.395-1.891h2.114l0.531-2.537L256.624,268.905z"/>
		<path fill="#7C7C7C" d="M263.44,272.176l1.276,8.065c0.149,0.902,0.265,1.975,0.318,2.793h0.057
			c0.425-0.818,0.926-1.861,1.47-2.849l4.381-8.01h2.623l-5.756,9.729c-2.756,4.682-4.462,7.051-6.467,8.544
			c-1.459,1.045-2.731,1.468-3.376,1.581l-0.189-2.059c0.661-0.197,1.562-0.593,2.424-1.213c0.789-0.536,1.808-1.495,2.664-2.765
			c0.165-0.253,0.292-0.45,0.321-0.592c0.03-0.141,0.016-0.339-0.062-0.648l-2.391-12.578H263.44z"/>
		<path fill="#7C7C7C" d="M285.022,268.905h-5.781l0.435-2.087h14.072l-0.436,2.087h-5.809l-3.537,16.92h-2.481L285.022,268.905z"/>
		<path fill="#7C7C7C" d="M292.518,279.453c-0.646,3.354,1.182,4.737,3.691,4.737c1.776,0,2.94-0.31,3.926-0.705l0.08,1.776
			c-0.957,0.395-2.58,0.874-4.751,0.874c-4.203,0-6.128-2.792-5.268-6.909s3.958-7.332,7.934-7.332c4.484,0,4.826,3.892,4.302,6.401
			c-0.106,0.508-0.211,0.874-0.325,1.157H292.518z M300.165,277.676c0.352-1.551,0.187-4.004-2.604-4.004
			c-2.538,0-4.087,2.284-4.644,4.004H300.165z"/>
		<path fill="#7C7C7C" d="M313.761,285.347c-0.713,0.31-2.251,0.789-4.084,0.789c-4.117,0-6.213-2.792-5.341-6.966
			c0.879-4.202,4.397-7.275,8.853-7.275c1.467,0,2.688,0.366,3.287,0.733l-0.958,1.89c-0.528-0.311-1.388-0.649-2.741-0.649
			c-3.131,0-5.312,2.341-5.901,5.161c-0.66,3.158,0.964,5.104,3.671,5.104c1.41,0,2.412-0.337,3.181-0.647L313.761,285.347z"/>
		<path fill="#7C7C7C" d="M320.751,265.803h2.481l-1.787,8.545h0.057c0.543-0.705,1.299-1.354,2.149-1.776
			c0.821-0.423,1.748-0.677,2.679-0.677c1.833,0,4.53,1.127,3.552,5.81l-1.698,8.121h-2.481l1.638-7.84
			c0.461-2.199,0.025-4.032-2.314-4.032c-1.607,0-3.084,1.127-3.841,2.453c-0.217,0.367-0.322,0.732-0.417,1.186l-1.721,8.233
			h-2.481L320.751,265.803z"/>
		<path fill="#7C7C7C" d="M334.298,275.871c0.301-1.438,0.508-2.566,0.659-3.695h2.199l-0.33,2.257h0.057
			c0.941-1.269,2.787-2.538,5.043-2.538c1.889,0,4.586,1.127,3.607,5.81l-1.698,8.121h-2.481l1.646-7.868
			c0.459-2.199,0.024-4.032-2.316-4.032c-1.607,0-3.118,1.155-3.858,2.539c-0.178,0.31-0.322,0.732-0.41,1.155l-1.716,8.206h-2.481
			L334.298,275.871z"/>
		<path fill="#7C7C7C" d="M361.669,278.888c-1.055,5.048-5.039,7.248-8.31,7.248c-3.666,0-5.978-2.708-5.076-7.021
			c0.949-4.54,4.526-7.22,8.277-7.22C360.481,271.895,362.536,274.742,361.669,278.888z M350.84,279.029
			c-0.625,2.989,0.595,5.245,3.021,5.245c2.368,0,4.611-2.228,5.253-5.302c0.484-2.312-0.065-5.217-2.998-5.217
			C353.211,273.756,351.375,276.464,350.84,279.029z"/>
		<path fill="#7C7C7C" d="M367.535,265.803h2.481l-4.185,20.022h-2.481L367.535,265.803z"/>
		<path fill="#7C7C7C" d="M383.807,278.888c-1.055,5.048-5.039,7.248-8.31,7.248c-3.666,0-5.978-2.708-5.075-7.021
			c0.948-4.54,4.526-7.22,8.277-7.22C382.618,271.895,384.674,274.742,383.807,278.888z M372.978,279.029
			c-0.625,2.989,0.595,5.245,3.021,5.245c2.369,0,4.611-2.228,5.254-5.302c0.483-2.312-0.066-5.217-2.999-5.217
			C375.349,273.756,373.514,276.464,372.978,279.029z"/>
		<path fill="#7C7C7C" d="M397.58,283.823c-0.66,3.159-1.703,5.048-3.254,6.261c-1.607,1.212-3.613,1.636-5.333,1.636
			c-1.636,0-3.357-0.395-4.305-1.128l1.021-1.918c0.778,0.593,2.083,1.101,3.774,1.101c2.538,0,4.677-1.326,5.401-4.796l0.312-1.493
			h-0.057c-0.999,1.269-2.706,2.284-4.821,2.284c-3.383,0-5.206-2.877-4.417-6.655c0.967-4.626,4.526-7.22,7.686-7.22
			c2.367,0,3.383,1.212,3.769,2.341h0.056l0.515-2.06h2.201c-0.286,0.96-0.55,2.088-0.893,3.723L397.58,283.823z M396.407,277.563
			c0.089-0.425,0.138-0.79,0.089-1.1c-0.145-1.468-1.081-2.651-2.914-2.651c-2.369,0-4.479,2.002-5.14,5.16
			c-0.56,2.679,0.355,4.908,3.007,4.908c1.552,0,3.135-0.961,3.971-2.539c0.229-0.423,0.386-0.903,0.475-1.326L396.407,277.563z"/>
		<path fill="#7C7C7C" d="M407.5,268.342c-0.177,0.845-0.911,1.522-1.897,1.522c-0.903,0-1.354-0.678-1.177-1.522
			c0.177-0.846,0.944-1.552,1.875-1.552C407.203,266.79,407.683,267.467,407.5,268.342z M401.081,285.825l2.853-13.649h2.481
			l-2.853,13.649H401.081z"/>
		<path fill="#7C7C7C" d="M410.396,279.453c-0.646,3.354,1.181,4.737,3.69,4.737c1.776,0,2.94-0.31,3.926-0.705l0.08,1.776
			c-0.957,0.395-2.58,0.874-4.751,0.874c-4.202,0-6.128-2.792-5.268-6.909s3.958-7.332,7.934-7.332c4.484,0,4.826,3.892,4.302,6.401
			c-0.106,0.508-0.211,0.874-0.325,1.157H410.396z M418.042,277.676c0.352-1.551,0.188-4.004-2.604-4.004
			c-2.538,0-4.088,2.284-4.645,4.004H418.042z"/>
		<path fill="#7C7C7C" d="M421.995,283.315c0.667,0.451,1.857,0.959,3.098,0.959c1.777,0,2.806-0.874,3.048-2.03
			c0.247-1.186-0.327-1.806-1.99-2.481c-2.295-0.902-3.172-2.229-2.831-3.864c0.46-2.199,2.643-4.004,5.547-4.004
			c1.382,0,2.518,0.366,3.151,0.847l-0.971,1.804c-0.465-0.338-1.352-0.817-2.621-0.817c-1.466,0-2.433,0.847-2.645,1.86
			c-0.236,1.129,0.448,1.637,2.077,2.342c2.159,0.874,3.151,2.059,2.728,4.089c-0.507,2.425-2.75,4.117-5.938,4.117
			c-1.494,0-2.795-0.395-3.635-0.959L421.995,283.315z"/>
	</g>
	<g>
		<path d="M267.116,338.236V305.51h6.846l8.448,14.033c2.138,3.642,4.08,7.428,5.585,10.974h0.097
			c-0.437-4.37-0.534-8.595-0.534-13.596V305.51h5.536v32.727h-6.216l-8.546-14.421c-2.087-3.593-4.224-7.574-5.826-11.265
			l-0.194,0.048c0.242,4.225,0.34,8.545,0.34,13.936v11.702H267.116z"/>
		<path d="M329.019,321.532c0,10.975-6.652,17.238-15.636,17.238c-9.274,0-15.1-7.09-15.1-16.654
			c0-10.101,6.359-17.189,15.586-17.189C323.386,304.927,329.019,312.162,329.019,321.532z M304.595,321.97
			c0,6.701,3.35,11.994,9.08,11.994c5.777,0,9.031-5.391,9.031-12.236c0-6.167-3.06-11.994-9.031-11.994
			C307.75,309.733,304.595,315.221,304.595,321.97z"/>
		<path d="M334.16,305.995c2.281-0.438,5.583-0.728,9.03-0.728c4.711,0,7.866,0.776,10.101,2.621
			c1.796,1.505,2.816,3.787,2.816,6.604c0,4.225-2.865,7.09-5.974,8.157v0.146c0,0,9.712,14.178,10.342,15.44h-6.117l-8.734-13.45
			h-5.541v13.45h-5.923V305.995z M340.083,320.416h3.545c4.03,0,6.506-2.136,6.506-5.39c0-3.544-2.476-5.244-6.36-5.244
			c-1.894,0-3.107,0.146-3.69,0.292V320.416z"/>
		<path d="M391.179,311.143h-0.146c-1.068,3.981-8.69,26.705-8.69,26.705h-4.564c0,0-6.799-22.627-7.672-26.705h-0.098
			l-0.022,27.094h-4.805l0.117-32.727h7.866c0,0,6.458,20.879,7.283,24.521h0.146c0.875-3.544,7.769-24.521,7.769-24.521h7.77
			l0.029,32.727h-5L391.179,311.143z"/>
		<path d="M401.931,305.995c1.894-0.388,5.341-0.728,8.74-0.728c4.37,0,7.138,0.582,9.322,2.087c2.04,1.215,3.398,3.352,3.398,6.167
			c0,3.011-1.894,5.729-5.438,7.041v0.145c3.446,0.875,6.604,3.594,6.604,8.061c0,2.913-1.263,5.196-3.107,6.798
			c-2.331,1.991-6.167,3.011-12.188,3.011c-3.302,0-5.779-0.242-7.332-0.438V305.995z M407.854,318.911h3.06
			c4.176,0,6.458-1.942,6.458-4.711c0-3.106-2.33-4.515-6.118-4.515c-1.748,0-2.768,0.097-3.399,0.242V318.911z M407.854,333.914
			c0.778,0.146,1.797,0.146,3.157,0.146c3.836,0,7.282-1.409,7.282-5.438c0-3.836-3.35-5.39-7.478-5.39h-2.962V333.914z"/>
		<path d="M436.303,328.962l-2.817,9.274h-6.166l10.488-32.727h7.623l10.634,32.727h-6.457l-2.963-9.274H436.303z M445.674,324.447
			l-2.574-8.062c-0.632-1.99-1.164-4.224-1.65-6.118h-0.098c-0.485,1.895-1.02,4.177-1.554,6.118l-2.524,8.062H445.674z"/>
		<path d="M464.993,305.51v19.082c0,6.409,2.671,9.372,6.701,9.372c4.322,0,6.896-2.963,6.896-9.372V305.51h5.972v18.693
			c0,10.1-5.195,14.567-13.062,14.567c-7.575,0-12.479-4.225-12.479-14.518V305.51H464.993z"/>
	</g>
	<g>
		<path fill="#FF0000" d="M132.658,251.354c-6.076,3.332-12.755,6.193-19.914,8.431c-29.332,9.16-58.032,5.146-72.893-8.431h-1.203
			l0.198-0.97c-3.735-3.686-6.509-8.014-8.049-12.943c-4.849-15.525,3.576-33.109,20.245-46.815l1.018-4.987
			c-25.695,15.916-40.179,37.687-34.481,55.93c7.818,25.035,50.655,33.93,95.682,19.867c8.792-2.746,17.007-6.171,24.494-10.082
			H132.658z"/>
		<path fill="#FF0000" d="M180.631,190.646c-7.819-25.034-50.656-33.928-95.684-19.865c-9.686,3.025-18.678,6.87-26.759,11.285
			h5.239c6.632-3.847,14.032-7.132,22.036-9.632c37.727-11.784,74.416-1.781,81.95,22.341c5.034,16.122-4.243,34.463-22.204,48.378
			l-1.046,4.639C171.098,231.782,186.475,209.356,180.631,190.646z"/>
	</g>
	<g>
		<path fill="#FF0000" d="M80.713,185.006l-12.94,63.408H42.25l12.94-63.408H80.713z"/>
		<path fill="#FF0000" d="M92.321,185.006h19.969c13.313,0,22.26,0.3,26.837,0.9c4.577,0.601,8.072,2.135,10.486,4.603
			c2.415,2.468,3.013,6.403,1.793,11.808c-1.113,4.934-2.91,8.25-5.393,9.948c-2.485,1.696-6.845,2.715-13.087,3.054
			c5.4,0.81,8.91,1.893,10.524,3.25c1.613,1.358,2.529,2.605,2.741,3.741c0.212,1.136-0.257,4.262-1.412,9.381l-3.772,16.723
			h-26.203l4.755-21.07c0.765-3.395,0.782-5.497,0.047-6.306c-0.731-0.81-3.043-1.214-6.93-1.214l-6.449,28.59H78.016
			L92.321,185.006z M118.084,195.854l-3.181,14.1c3.172,0,5.453-0.254,6.841-0.763c1.387-0.51,2.397-2.162,3.027-4.955l0.786-3.485
			c0.454-2.011,0.139-3.329-0.949-3.956C123.519,196.168,121.347,195.854,118.084,195.854z"/>
	</g>
</g>
</svg>
