<?xml version="1.0" encoding="utf-8"?>
<!-- Generator: Adobe Illustrator 21.0.2, SVG Export Plug-In . SVG Version: 6.00 Build 0)  -->
<svg version="1.1" id="Calque_1" xmlns="http://www.w3.org/2000/svg" xmlns:xlink="http://www.w3.org/1999/xlink" x="0px" y="0px"
	 viewBox="0 0 500 204" style="enable-background:new 0 0 500 204;" xml:space="preserve">
<style type="text/css">
	.st0{fill:#FF0000;}
	.st1{fill:#7C7C7C;}
</style>
<path class="st0" d="M197.4,67l-6.7,33.5h-6l6.7-33.5H197.4z"/>
<path class="st0" d="M201,83.5c0.6-2.8,0.9-5.1,1.2-7.2h5.2l-0.4,3.6h0.1c1.4-1.9,4.5-4.2,8.4-4.2c4.1,0,7.8,2.7,6.3,10.4l-2.9,14.4
	H213l2.7-13.7c0.7-3.5,0-6.1-3.3-6.1c-2.4,0-4.4,1.7-5.4,3.6c-0.3,0.5-0.5,1.2-0.7,1.9l-2.8,14.3h-6L201,83.5z"/>
<path class="st0" d="M247.3,97c-1,5.1-2.7,8.7-5.7,11c-2.9,2.2-6.4,2.9-9.7,2.9c-3,0-6.1-0.7-7.8-1.9l2.2-4.6
	c1.3,0.9,3.6,1.8,6.5,1.8c3.9,0,7.2-2.1,8.2-7.3l0.4-2.1h-0.1c-1.8,2.1-4.4,3.6-7.6,3.6c-5.9,0-9-5-7.7-11.8
	c1.6-8,7.6-12.8,13.2-12.8c3.6,0,5.4,1.8,6.1,3.8h0.1l0.9-3.2h5.2c-0.4,1.6-0.9,3.6-1.6,7L247.3,97z M243.6,86
	c0.1-0.6,0.2-1.1,0.1-1.6c-0.2-2.2-1.5-3.9-4.1-3.9c-3.3,0-6.4,3-7.4,7.9c-0.8,4.1,0.5,7.5,4.3,7.5c2.2,0,4.5-1.5,5.6-3.7
	c0.3-0.6,0.5-1.4,0.7-2.1L243.6,86z"/>
<path class="st0" d="M259.3,90.1c-0.7,4.4,2.2,6.3,6,6.3c2.8,0,4.8-0.4,6.8-1.1v4.2c-2.2,0.9-5.1,1.5-8.5,1.5
	c-7.6,0-11.2-4.8-9.7-12.2c1.3-6.7,6.6-13,14.1-13c7.6,0,8.9,6.5,7.8,11.8c-0.2,1.1-0.5,2-0.7,2.6L259.3,90.1L259.3,90.1z
	 M270.5,85.8c0.5-2.2,0.3-5.9-3.7-5.9c-3.7,0-5.9,3.4-6.6,5.9H270.5z"/>
<path class="st0" d="M281.2,84.1c0.7-3.3,1.1-5.7,1.4-7.8h5.1l-0.7,4.6h0.1c1.8-3.4,4.9-5.1,7.5-5.1c0.6,0,0.9,0,1.4,0.1l-1.1,5.7
	c-0.5-0.1-1-0.1-1.8-0.1c-2.8,0-5.2,1.8-6.2,4.6c-0.2,0.5-0.4,1.2-0.5,1.8l-2.5,12.6h-6L281.2,84.1z"/>
<path class="st0" d="M296.1,94.8c1.1,0.8,3.5,1.8,5.6,1.8c2.6,0,4-1.1,4.3-2.7s-0.5-2.4-3.2-3.5c-4.3-1.6-5.7-4.2-5.1-7.1
	c0.9-4.3,4.9-7.6,10.4-7.6c2.6,0,4.8,0.6,6,1.4l-2.1,4.3c-0.9-0.6-2.6-1.4-4.7-1.4c-2.1,0-3.5,1.1-3.8,2.6s0.7,2.2,3.4,3.4
	c4,1.5,5.5,3.8,4.8,7.4c-0.9,4.4-4.9,7.6-11.1,7.6c-2.9,0-5.3-0.7-6.8-1.7L296.1,94.8z"/>
<path class="st0" d="M340.2,88.2c-1.8,8.9-8.7,12.9-14.7,12.9c-6.6,0-10.9-4.7-9.3-12.5c1.6-8,7.6-12.8,14.7-12.8
	C338,75.7,341.7,80.8,340.2,88.2z M322.4,88.4c-0.9,4.7,0.6,8.2,4.2,8.2c3.4,0,6.4-3.4,7.4-8.3c0.8-3.8,0-8.2-4.1-8.2
	C325.7,80.2,323.2,84.4,322.4,88.4z"/>
<path class="st0" d="M349.6,65.2h5.9l-7,35.3h-5.9L349.6,65.2z"/>
<path class="st0" d="M362.1,65.2h6l-7,35.3h-6L362.1,65.2z"/>
<path class="st0" d="M384.3,67.5c2.4-0.4,5.7-0.7,9.1-0.7c4.7,0,7.7,0.8,9.5,2.7c1.5,1.5,2,3.9,1.5,6.8c-0.9,4.3-4.3,7.3-7.6,8.4
	v0.1c2.2,0.9,3.1,3.2,3.3,6.5c0.2,4.2,0.3,8.1,0.7,9.3h-6.1c-0.3-1-0.6-3.7-0.6-7.9c-0.1-4.4-1.3-5.8-4.7-5.9h-3l-2.7,13.8h-5.9
	L384.3,67.5z M387.3,82.2h3.5c4,0,6.9-2.2,7.6-5.5c0.7-3.6-1.4-5.4-5.3-5.4c-1.9,0-3.1,0.1-3.7,0.3L387.3,82.2z"/>
<path class="st0" d="M424.9,94.7c-0.4,2.2-0.8,4.3-0.8,5.8h-5.4l0.1-2.7h-0.1c-1.8,1.9-4.5,3.2-7.6,3.2c-4.7,0-6.7-3.5-6-7.2
	c1.2-6.1,7.1-9.2,15.8-9.1l0.1-0.4c0.3-1.6,0.2-4.2-3.9-4.2c-2.3,0-4.9,0.7-6.7,1.8l-0.4-4c2-1.1,5.2-2.1,8.9-2.1
	c7.5,0,8.7,4.9,7.7,10.2L424.9,94.7z M420.3,88.7c-4.2-0.1-8.4,0.8-9.1,4.5c-0.5,2.4,0.8,3.5,2.7,3.5c2.4,0,4.4-1.6,5.4-3.3
	c0.2-0.4,0.3-0.9,0.4-1.3L420.3,88.7z"/>
<path class="st0" d="M433.4,83.5c0.6-2.8,0.9-5.1,1.2-7.2h5.2l-0.4,3.6h0.1c1.4-1.9,4.5-4.2,8.4-4.2c4.1,0,7.8,2.7,6.3,10.4
	l-2.9,14.4h-5.9l2.7-13.7c0.7-3.5,0-6.1-3.3-6.1c-2.4,0-4.4,1.7-5.4,3.6c-0.3,0.5-0.5,1.2-0.7,1.9l-2.7,14.3h-5.9L433.4,83.5z"/>
<path class="st0" d="M486.5,65.2l-5.7,28.5c-0.5,2.5-0.9,5.2-1.2,6.8h-5.3l0.5-3.8h-0.1c-1.9,2.7-5.1,4.4-8.5,4.4
	c-5.7,0-9.1-4.9-7.6-12.4c1.6-8.1,7.5-12.9,13.1-12.9c3.2,0,5.3,1.3,6,3.1h0.1l2.7-13.7H486.5L486.5,65.2z M476.3,86.4
	c0.1-0.5,0.2-1.1,0.2-1.6c-0.1-2.3-1.6-4.3-4.3-4.3c-3.8,0-6.6,3.5-7.5,8c-0.9,4.5,0.6,7.7,4.4,7.7c2.4,0,4.9-1.7,6-4.3
	c0.3-0.5,0.4-1.1,0.6-1.8L476.3,86.4z"/>
<path class="st1" d="M178.2,134.8c1,0.7,2.4,1.2,4.1,1.2c2.5,0,4.3-1.3,4.7-3.2c0.4-1.7-0.4-2.8-2.8-3.8c-2.9-1.1-4.4-2.8-3.9-5.4
	c0.6-3,3.5-5.2,7.2-5.2c1.9,0,3.3,0.5,4,0.9l-1.1,2c-0.5-0.4-1.7-0.9-3.4-0.9c-2.6,0-3.9,1.6-4.2,2.8c-0.4,1.8,0.6,2.6,3,3.7
	c3,1.2,4.2,2.8,3.7,5.6c-0.6,2.9-3.3,5.5-7.8,5.5c-1.8,0-3.7-0.6-4.6-1.2L178.2,134.8z"/>
<path class="st1" d="M194.6,131.4c-0.6,3.4,1.2,4.7,3.7,4.7c1.8,0,2.9-0.3,3.9-0.7l0.1,1.8c-1,0.4-2.6,0.9-4.8,0.9
	c-4.2,0-6.1-2.8-5.3-6.9c0.9-4.1,4-7.3,7.9-7.3c4.5,0,4.8,3.9,4.3,6.4c-0.1,0.5-0.2,0.9-0.3,1.2L194.6,131.4L194.6,131.4z
	 M202.2,129.7c0.4-1.6,0.2-4-2.6-4c-2.5,0-4.1,2.3-4.6,4H202.2z"/>
<path class="st1" d="M215.8,137.3c-0.7,0.3-2.3,0.8-4.1,0.8c-4.1,0-6.2-2.8-5.3-7s4.4-7.3,8.9-7.3c1.5,0,2.7,0.4,3.3,0.7l-1,1.9
	c-0.5-0.3-1.4-0.6-2.7-0.6c-3.1,0-5.3,2.3-5.9,5.2c-0.7,3.2,1,5.1,3.7,5.1c1.4,0,2.4-0.3,3.2-0.6L215.8,137.3z"/>
<path class="st1" d="M230.8,134.1c-0.3,1.4-0.5,2.7-0.7,3.8h-2.2l0.3-2.2h-0.1c-0.9,1.1-2.6,2.5-5,2.5c-2.1,0-4.5-1.2-3.5-6l1.7-8
	h2.5l-1.6,7.5c-0.5,2.6-0.1,4.4,2.1,4.4c1.7,0,3.1-1.2,3.8-2.3c0.2-0.3,0.4-0.8,0.5-1.3l1.7-8.3h2.5L230.8,134.1z"/>
<path class="st1" d="M236.1,128.4c0.3-1.6,0.6-3,0.8-4.3h2.2l-0.5,2.7h0.1c1-1.8,2.8-3,4.4-3c0.3,0,0.4,0,0.7,0.1l-0.5,2.3
	c-0.2-0.1-0.5-0.1-0.8-0.1c-1.7,0-3.3,1.3-4,3.2c-0.1,0.3-0.2,0.8-0.3,1.2l-1.5,7.3h-2.5L236.1,128.4z"/>
<polygon class="st1" points="243.5,137.8 246,137.8 248.9,124.2 246.4,124.2 "/>
<path class="st1" d="M248.7,118.7c-1,0-1.7,0.8-1.9,1.6s0.3,1.5,1.2,1.5c1,0,1.7-0.7,1.9-1.5C250.1,119.5,249.6,118.8,248.7,118.7z"
	/>
<path class="st1" d="M256.6,120.9l-0.7,3.3h3.6l-0.4,1.9h-3.6l-1.5,7.4c-0.4,1.7-0.1,2.6,1.3,2.6c0.7,0,1.1-0.1,1.5-0.2l-0.3,1.9
	c-0.5,0.2-1.3,0.3-2.3,0.3c-1.2,0-2-0.4-2.5-1c-0.5-0.8-0.5-2-0.2-3.6l1.6-7.4H251l0.4-1.9h2.1l0.5-2.5L256.6,120.9z"/>
<path class="st1" d="M263.4,124.2l1.3,8.1c0.1,0.9,0.3,2,0.3,2.8h0.1c0.4-0.8,0.9-1.9,1.5-2.8l4.4-8h2.6l-5.8,9.7
	c-2.8,4.7-4.5,7.1-6.5,8.5c-1.5,1-2.7,1.5-3.4,1.6l-0.2-2.1c0.7-0.2,1.6-0.6,2.4-1.2c0.8-0.5,1.8-1.5,2.7-2.8
	c0.2-0.3,0.3-0.5,0.3-0.6s0-0.3-0.1-0.6l-2.4-12.6H263.4L263.4,124.2z"/>
<path class="st1" d="M285,120.9h-5.8l0.4-2.1h14.1l-0.4,2.1h-5.8l-3.5,16.9h-2.5L285,120.9z"/>
<path class="st1" d="M292.5,131.4c-0.6,3.4,1.2,4.7,3.7,4.7c1.8,0,2.9-0.3,3.9-0.7l0.1,1.8c-1,0.4-2.6,0.9-4.8,0.9
	c-4.2,0-6.1-2.8-5.3-6.9c0.8-4.1,4-7.3,7.9-7.3c4.5,0,4.8,3.9,4.3,6.4c-0.1,0.5-0.2,0.9-0.3,1.2L292.5,131.4L292.5,131.4z
	 M300.2,129.7c0.4-1.6,0.2-4-2.6-4c-2.5,0-4.1,2.3-4.6,4H300.2z"/>
<path class="st1" d="M313.8,137.3c-0.7,0.3-2.3,0.8-4.1,0.8c-4.1,0-6.2-2.8-5.3-7s4.4-7.3,8.9-7.3c1.5,0,2.7,0.4,3.3,0.7l-1,1.9
	c-0.5-0.3-1.4-0.6-2.7-0.6c-3.1,0-5.3,2.3-5.9,5.2c-0.7,3.2,1,5.1,3.7,5.1c1.4,0,2.4-0.3,3.2-0.6L313.8,137.3z"/>
<path class="st1" d="M320.8,117.8h2.5l-1.8,8.5h0.1c0.5-0.7,1.3-1.4,2.1-1.8c0.8-0.4,1.7-0.7,2.7-0.7c1.8,0,4.5,1.1,3.6,5.8
	l-1.7,8.1h-2.5l1.6-7.8c0.5-2.2,0-4-2.3-4c-1.6,0-3.1,1.1-3.8,2.5c-0.2,0.4-0.3,0.7-0.4,1.2l-1.7,8.2h-2.5L320.8,117.8z"/>
<path class="st1" d="M334.3,127.9c0.3-1.4,0.5-2.6,0.7-3.7h2.2l-0.3,2.3h0.1c0.9-1.3,2.8-2.5,5-2.5c1.9,0,4.6,1.1,3.6,5.8l-1.7,8.1
	h-2.5l1.6-7.9c0.5-2.2,0-4-2.3-4c-1.6,0-3.1,1.2-3.9,2.5c-0.2,0.3-0.3,0.7-0.4,1.2l-1.7,8.2h-2.5L334.3,127.9z"/>
<path class="st1" d="M361.7,130.9c-1.1,5-5,7.2-8.3,7.2c-3.7,0-6-2.7-5.1-7c0.9-4.5,4.5-7.2,8.3-7.2
	C360.5,123.9,362.5,126.7,361.7,130.9z M350.8,131c-0.6,3,0.6,5.2,3,5.2c2.4,0,4.6-2.2,5.3-5.3c0.5-2.3-0.1-5.2-3-5.2
	S351.4,128.5,350.8,131z"/>
<path class="st1" d="M367.5,117.8h2.5l-4.2,20h-2.5L367.5,117.8z"/>
<path class="st1" d="M383.8,130.9c-1.1,5-5,7.2-8.3,7.2c-3.7,0-6-2.7-5.1-7c0.9-4.5,4.5-7.2,8.3-7.2
	C382.6,123.9,384.7,126.7,383.8,130.9z M373,131c-0.6,3,0.6,5.2,3,5.2s4.6-2.2,5.3-5.3c0.5-2.3-0.1-5.2-3-5.2
	C375.3,125.7,373.5,128.5,373,131z"/>
<path class="st1" d="M397.6,135.8c-0.7,3.2-1.7,5-3.3,6.3c-1.6,1.2-3.6,1.6-5.3,1.6c-1.6,0-3.4-0.4-4.3-1.1l1-1.9
	c0.8,0.6,2.1,1.1,3.8,1.1c2.5,0,4.7-1.3,5.4-4.8l0.3-1.5h-0.1c-1,1.3-2.7,2.3-4.8,2.3c-3.4,0-5.2-2.9-4.4-6.7c1-4.6,4.5-7.2,7.7-7.2
	c2.4,0,3.4,1.2,3.8,2.3h0.1l0.5-2.1h2.2c-0.3,1-0.5,2.1-0.9,3.7L397.6,135.8z M396.4,129.6c0.1-0.4,0.1-0.8,0.1-1.1
	c-0.1-1.5-1.1-2.7-2.9-2.7c-2.4,0-4.5,2-5.1,5.2c-0.6,2.7,0.4,4.9,3,4.9c1.6,0,3.1-1,4-2.5c0.2-0.4,0.4-0.9,0.5-1.3L396.4,129.6z"/>
<polygon class="st1" points="401.1,137.8 403.6,137.8 406.5,124.2 404,124.2 "/>
<path class="st1" d="M406.3,118.7c-1,0-1.7,0.8-1.9,1.6c-0.2,0.8,0.3,1.5,1.2,1.5c1,0,1.7-0.7,1.9-1.5
	C407.7,119.5,407.2,118.8,406.3,118.7z"/>
<path class="st1" d="M410.4,131.4c-0.6,3.4,1.2,4.7,3.7,4.7c1.8,0,2.9-0.3,3.9-0.7l0.1,1.8c-1,0.4-2.6,0.9-4.8,0.9
	c-4.2,0-6.1-2.8-5.3-6.9s4-7.3,7.9-7.3c4.5,0,4.8,3.9,4.3,6.4c-0.1,0.5-0.2,0.9-0.3,1.2L410.4,131.4L410.4,131.4z M418,129.7
	c0.4-1.6,0.2-4-2.6-4c-2.5,0-4.1,2.3-4.6,4H418z"/>
<path class="st1" d="M422,135.3c0.7,0.5,1.9,1,3.1,1c1.8,0,2.8-0.9,3-2c0.2-1.2-0.3-1.8-2-2.5c-2.3-0.9-3.2-2.2-2.8-3.9
	c0.5-2.2,2.6-4,5.5-4c1.4,0,2.5,0.4,3.2,0.8l-1,1.8c-0.5-0.3-1.4-0.8-2.6-0.8c-1.5,0-2.4,0.8-2.6,1.9c-0.2,1.1,0.4,1.6,2.1,2.3
	c2.2,0.9,3.2,2.1,2.7,4.1c-0.5,2.4-2.8,4.1-5.9,4.1c-1.5,0-2.8-0.4-3.6-1L422,135.3z"/>
<path d="M267.1,190.2v-32.7h6.8l8.4,14c2.1,3.6,4.1,7.4,5.6,11h0.1c-0.4-4.4-0.5-8.6-0.5-13.6v-11.4h5.5v32.7h-6.2l-8.5-14.4
	c-2.1-3.6-4.2-7.6-5.8-11.3h-0.2c0.2,4.2,0.3,8.5,0.3,13.9v11.7L267.1,190.2L267.1,190.2z"/>
<path d="M329,173.5c0,11-6.7,17.2-15.6,17.2c-9.3,0-15.1-7.1-15.1-16.7c0-10.1,6.4-17.2,15.6-17.2C323.4,156.9,329,164.2,329,173.5z
	 M304.6,174c0,6.7,3.4,12,9.1,12c5.8,0,9-5.4,9-12.2c0-6.2-3.1-12-9-12C307.8,161.7,304.6,167.2,304.6,174z"/>
<path d="M334.2,158c2.3-0.4,5.6-0.7,9-0.7c4.7,0,7.9,0.8,10.1,2.6c1.8,1.5,2.8,3.8,2.8,6.6c0,4.2-2.9,7.1-6,8.2v0.1
	c0,0,9.7,14.2,10.3,15.4h-6l-8.7-13.5h-5.5v13.5h-5.9L334.2,158L334.2,158z M340.1,172.4h3.5c4,0,6.5-2.1,6.5-5.4
	c0-3.5-2.5-5.2-6.4-5.2c-1.9,0-3.1,0.1-3.7,0.3L340.1,172.4L340.1,172.4z"/>
<path d="M391.2,163.1H391c-1.1,4-8.7,26.7-8.7,26.7h-4.6c0,0-6.8-22.6-7.7-26.7l0,0v27.1h-4.8l0.1-32.7h7.9c0,0,6.5,20.9,7.3,24.5
	h0.1c0.9-3.5,7.8-24.5,7.8-24.5h7.8v32.7h-5V163.1z"/>
<path d="M401.9,158c1.9-0.4,5.3-0.7,8.7-0.7c4.4,0,7.1,0.6,9.3,2.1c2,1.2,3.4,3.4,3.4,6.2c0,3-1.9,5.7-5.4,7v0.1
	c3.4,0.9,6.6,3.6,6.6,8.1c0,2.9-1.3,5.2-3.1,6.8c-2.3,2-6.2,3-12.2,3c-3.3,0-5.8-0.2-7.3-0.4V158L401.9,158z M407.9,170.9h3.1
	c4.2,0,6.5-1.9,6.5-4.7c0-3.1-2.3-4.5-6.1-4.5c-1.7,0-2.8,0.1-3.4,0.2L407.9,170.9L407.9,170.9z M407.9,185.9
	c0.8,0.1,1.8,0.1,3.2,0.1c3.8,0,7.3-1.4,7.3-5.4c0-3.8-3.4-5.4-7.5-5.4h-3V185.9L407.9,185.9z"/>
<path d="M436.3,181l-2.8,9.3h-6.2l10.5-32.7h7.6l10.6,32.7h-6.5l-3-9.3H436.3z M445.7,176.4l-2.6-8.1c-0.6-2-1.2-4.2-1.6-6.1h-0.1
	c-0.5,1.9-1,4.2-1.6,6.1l-2.5,8.1H445.7z"/>
<path d="M465,157.5v19.1c0,6.4,2.7,9.4,6.7,9.4c4.3,0,6.9-3,6.9-9.4v-19.1h6v18.7c0,10.1-5.2,14.6-13.1,14.6
	c-7.6,0-12.5-4.2-12.5-14.5v-18.7h6V157.5z"/>
<path class="st0" d="M132.7,103.3c-6.1,3.3-12.8,6.2-19.9,8.4c-29.3,9.2-58,5.1-72.9-8.4h-1.2l0.2-1c-3.7-3.7-6.5-8-8-12.9
	c-4.8-15.5,3.6-33.1,20.2-46.8l1-5C26.4,53.5,11.9,75.3,17.6,93.5c7.8,25,50.7,33.9,95.7,19.9c8.8-2.7,17-6.2,24.5-10.1H132.7z"/>
<path class="st0" d="M180.6,42.6c-7.8-25-50.7-33.9-95.7-19.9c-9.7,3-18.7,6.9-26.8,11.3h5.2c6.6-3.8,14-7.1,22-9.6
	c37.7-11.8,74.4-1.8,81.9,22.3c5,16.1-4.2,34.5-22.2,48.4l-1,4.6C171.1,83.8,186.5,61.3,180.6,42.6z"/>
<path class="st0" d="M80.7,37l-12.9,63.4H42.3L55.2,37H80.7z"/>
<path class="st0" d="M92.3,37h20c13.3,0,22.3,0.3,26.8,0.9c4.6,0.6,8.1,2.1,10.5,4.6s3,6.4,1.8,11.8c-1.1,4.9-2.9,8.2-5.4,9.9
	c-2.5,1.7-6.8,2.7-13.1,3.1c5.4,0.8,8.9,1.9,10.5,3.2c1.6,1.4,2.5,2.6,2.7,3.7s-0.3,4.3-1.4,9.4l-3.8,16.7h-26.2l4.8-21.1
	c0.8-3.4,0.8-5.5,0-6.3c-0.7-0.8-3-1.2-6.9-1.2l-6.4,28.6H78L92.3,37z M118.1,47.8l-3.2,14.1c3.2,0,5.5-0.3,6.8-0.8
	c1.4-0.5,2.4-2.2,3-5l0.8-3.5c0.5-2,0.1-3.3-0.9-4C123.5,48.2,121.3,47.8,118.1,47.8z"/>
</svg>
