<?xml version="1.0" encoding="utf-8"?>
<!-- Generator: Adobe Illustrator 21.0.2, SVG Export Plug-In . SVG Version: 6.00 Build 0)  -->
<svg version="1.1" id="Calque_1" xmlns="http://www.w3.org/2000/svg" xmlns:xlink="http://www.w3.org/1999/xlink" x="0px" y="0px"
	 viewBox="0 0 500 182" style="enable-background:new 0 0 500 182;" xml:space="preserve">
<style type="text/css">
	.st0{fill:#0070B7;}
	.st1{fill:#FFFFFF;}
	.st2{fill:#0070B8;}
</style>
<polygon class="st0" points="419.7,169.8 486.1,19.4 80.1,19.4 13.8,169.9 "/>
<path d="M183.9,95.4"/>
<path class="st1" d="M103.2,67.7c-4,9.4-20,47.8-23.6,56.4c0,0.6,0.1,1,0.9,1.1c3,0,5.4,0,6.9,0c0.6,0,2.3-0.4,3-2.1
	c3-7.1,11.3-27,15.9-37.8c0.5-1.3,1.7-0.6,1.7-0.2c1.5,17,2.4,27.4,3.2,36.8c0.2,2.1,1.7,3.2,3,3.2c2.2,0,4.6-0.1,6.8,0
	c1.3,0,2.2-1.1,2.8-2.6c8.8-20.7,15.1-35.9,23.4-55.8c0.2-0.5-0.2-1.2-1-1.2c-3.5,0-2.9,0-6.7,0c-2.1,0-2.8,1.3-3.1,2.1
	c-4.6,11-10,23.6-15,35.6c-0.8,2-2.6,1.6-2.7-0.5c-0.9-10.3-1.8-20.4-3-33.9c-0.2-2.7-2-3.2-2.7-3.3c-5.1,0-3.5,0-6.9,0
	C105.2,65.6,103.8,66.2,103.2,67.7z"/>
<path class="st1" d="M273.8,65.6c-1,0-2.1,1.3-2.6,2.5c-0.7,1.6-0.5,1.3-2.1,5c0,0.6,0.2,1,0.9,1.1c5.7,0,10.6,0,14.2,0
	c0.6,0,1.1,0.7,1,1.2c-6.7,16.1-13.6,32.5-20.3,48.5c-0.2,0.5,0.4,1.3,0.9,1.3c3.5,0,3,0,7.2,0c1.2,0,2.4-0.8,3-2.1
	c4.6-11,16.2-38.5,20.1-47.8c0-0.5,0.5-1,1.1-1.1c3.3,0,6.7,0,10.6,0c1.6,0,2.7-0.8,3.3-2.3c1.2-2.9,0.7-1.5,2.2-5.2
	c0-0.5-0.6-1.1-1-1.1C295.1,65.6,274.7,65.6,273.8,65.6z"/>
<path class="st1" d="M159.9,73.2c-4.4,10.5-14.8,35.1-19,45.3c-1.6,3.7,1.6,6.7,4.4,6.7c2.7,0,18.5,0,29.8,0c1.9,0,7.7-0.3,10.9-8
	c3.2-7.6,12.8-30.5,18.9-45.2c1-2.2-0.7-6.5-4.4-6.5s-20.2,0-30.1,0C166.5,65.6,162.1,67.8,159.9,73.2z"/>
<path class="st2" d="M169.1,76.5c0.6-1.4,1.6-2.3,2.8-2.3c6.7,0,11.3,0,18.4,0c1.2,0,2.6,1.4,1.9,3.1c-4.9,11.6-10.7,25.5-15.5,36.9
	c-0.4,1-1.1,2.4-3,2.4c-6.9,0-16.8,0-18.1,0s-2.7-1.4-2-3.1C154.4,111.7,164.5,87.5,169.1,76.5z"/>
<path class="st1" d="M220.8,67.7c-4.4,10.5-19.1,45.6-23.4,55.8c-0.5,1.1,0.2,1.6,0.8,1.6c0.8,0,3.5,0,7,0c1.2,0,2.3-0.6,3-2.3
	c2.9-6.7,5.7-13.6,8.3-19.8c0.2-0.5,0.7-0.8,1.1-0.8c1.2,0,6.3,0,9.3,0c0.6,0,1,0.5,1,1c2,8.6,2.7,12,4.4,19.2
	c0.2,1.7,1.7,2.8,3.2,2.7c3.2,0,2.1,0,5.8,0c0.4,0,0.9-0.3,0.8-1.1c-1.6-7.1-2.9-12.4-4.8-20.8c-0.1-0.8,0.7-1.1,1.2-1
	c1.5,0,5.4,0,8.4,0c2.8,0,4.9-2.1,5.6-3.8c4-9.3,9.4-22.4,11.1-26.4c1-2.2-0.7-6.5-4.4-6.5c-3.7,0-25.3,0-35.2,0
	C222.3,65.6,221.3,66.4,220.8,67.7z"/>
<path class="st2" d="M227.7,76.5c0.6-1.4,1.6-2.3,2.8-2.3c6.7,0,11.3,0,18.4,0c1.2,0,2.5,1.4,1.9,3.1c-2.1,5-3.3,7.8-6,14.2
	c-0.4,1-1.1,2.4-3,2.4c-6.9,0-16.8,0-18.1,0c-1.3,0-2.7-1.4-2-3.1C222.4,89,224.8,83.5,227.7,76.5z"/>
<path class="st1" d="M318.5,73.2c-4.4,10.5-14.8,35.1-19,45.3c-1.6,3.7,1.6,6.7,4.4,6.7c2.8,0,18.5,0,29.8,0c1.9,0,7.7-0.3,10.9-8
	c3.2-7.6,12.8-30.5,18.9-45.2c1-2.2-0.7-6.5-4.4-6.5c-3.7,0-20.2,0-30.1,0C325,65.6,320.7,67.8,318.5,73.2z"/>
<path class="st2" d="M327.7,76.5c0.6-1.4,1.6-2.3,2.8-2.3c6.7,0,11.3,0,18.4,0c1.2,0,2.6,1.4,2,3.1c-4.9,11.6-10.7,25.5-15.5,36.9
	c-0.4,1-1.1,2.4-3,2.4c-6.9,0-16.8,0-18.1,0c-1.3,0-2.7-1.4-2-3.1C312.9,111.7,323.1,87.5,327.7,76.5z"/>
<path class="st1" d="M378.3,67.7c-4,9.4-20,47.7-23.6,56.4c0,0.6,0.1,1,1,1.1c3,0,5.4,0,6.9,0c0.6,0,2.3-0.4,3-2.1
	c3-7.1,11.3-27,15.9-37.8c0.5-1.3,1.7-0.6,1.7-0.2c1.5,17,2.4,27.4,3.2,36.8c0.2,2.1,1.7,3.2,3,3.2c2.2,0,4.6-0.1,6.8,0
	c1.3,0,2.2-1.1,2.8-2.6c8.8-20.7,15.1-35.9,23.4-55.8c0.2-0.5-0.2-1.2-1-1.2c-3.5,0-2.9,0-6.7,0c-2.1,0-2.8,1.3-3.1,2.1
	c-4.6,11-10,23.6-15,35.6c-0.8,2-2.6,1.6-2.7-0.5c-0.9-10.3-1.8-20.4-3-33.9c-0.2-2.7-2-3.1-2.7-3.3c-5.1,0-3.5,0-6.9,0
	C380.4,65.6,379,66.2,378.3,67.7z"/>
</svg>
