<?xml version="1.0" encoding="utf-8"?>
<!-- Generator: Adobe Illustrator 15.0.0, SVG Export Plug-In . SVG Version: 6.00 Build 0)  -->
<!DOCTYPE svg PUBLIC "-//W3C//DTD SVG 1.1//EN" "http://www.w3.org/Graphics/SVG/1.1/DTD/svg11.dtd">
<svg version="1.1" id="Calque_1" xmlns="http://www.w3.org/2000/svg" xmlns:xlink="http://www.w3.org/1999/xlink" x="0px" y="0px"
	 width="500px" height="500px" viewBox="0 0 500 500" enable-background="new 0 0 500 500" xml:space="preserve">
<g>
	<path fill="#0D0909" d="M86.59,222.233c-0.001,0-0.002,0-0.003,0c-1.947,0-3.526,1.577-3.528,3.524l-0.051,47.859l-64.355-50.771
		c-1.062-0.837-2.507-0.996-3.724-0.405c-1.217,0.589-1.989,1.823-1.989,3.174v55.272c0,1.948,1.58,3.528,3.528,3.528
		c1.948,0,3.527-1.58,3.527-3.528v-47.995l64.348,50.766c0.635,0.5,1.408,0.758,2.186,0.758c0.522,0,1.048-0.116,1.537-0.353
		c1.216-0.589,1.989-1.82,1.991-3.173l0.059-55.125C90.116,223.816,88.539,222.235,86.59,222.233z"/>
	<path fill="#0D0909" d="M161.003,221.862h-42.879c-9.975,0-18.09,7.736-18.09,17.245v28.068c0,9.509,8.116,17.244,18.09,17.244
		h42.879c9.974,0,18.09-7.735,18.09-17.244v-28.068C179.093,229.598,170.977,221.862,161.003,221.862z M172.028,267.175
		c0,5.613-4.946,10.18-11.025,10.18h-42.879c-6.08,0-11.026-4.566-11.026-10.18v-28.068c0-5.614,4.946-10.181,11.026-10.181h42.879
		c6.08,0,11.025,4.567,11.025,10.181V267.175z"/>
	<path fill="#0D0909" d="M255.667,222.298c-1.912-1.072-4.331-0.388-5.402,1.523l-29.682,53.005l-29.538-52.998
		c-1.067-1.916-3.485-2.603-5.399-1.535c-1.915,1.067-2.602,3.484-1.535,5.399l30.723,55.126c0.701,1.257,2.028,2.036,3.467,2.036
		h4.557c1.437,0,2.761-0.775,3.463-2.029l30.872-55.125C258.262,225.788,257.58,223.369,255.667,222.298z"/>
	<path fill="#0D0909" d="M288.318,223.904c-0.711-1.217-2.016-1.965-3.425-1.965h-6.322c-1.396,0-2.69,0.735-3.406,1.934
		l-32.929,55.125c-1.124,1.882-0.51,4.318,1.372,5.442c1.879,1.123,4.318,0.509,5.443-1.372l7.102-11.892
		c0.025,0.001,0.049,0.008,0.074,0.008h50.56l7.021,12.001c0.738,1.261,2.065,1.965,3.429,1.965c0.681,0,1.371-0.176,2.001-0.544
		c1.893-1.107,2.527-3.538,1.421-5.43L288.318,223.904z M260.891,263.247l19.933-33.37h1.793l19.525,33.37H260.891z"/>
	<path fill="#0D0909" d="M377.798,221.645h-46.601c-2.191,0-3.969,1.777-3.969,3.969v55.419c0,2.192,1.777,3.97,3.969,3.97
		c2.192,0,3.97-1.777,3.97-3.97v-20.579h43.512c5.305,0,17.64-2.034,17.64-20.875C396.319,228.349,389.395,221.645,377.798,221.645z
		 M378.679,252.516h-43.512v-22.933h42.631c7.318,0,10.583,3.083,10.583,9.997C388.381,251.045,383.196,252.516,378.679,252.516z"/>
</g>
<g>
	<rect x="423.514" y="221.351" fill="#E32120" width="40.353" height="33.076"/>
	<rect x="423.514" y="254.427" fill="#FFED00" width="27.637" height="31.018"/>
	<rect x="451.151" y="254.427" fill="#335AA8" width="37.412" height="31.018"/>
	<rect x="463.866" y="221.351" fill="#66B500" width="24.696" height="46.306"/>
</g>
</svg>
