<?xml version="1.0" encoding="utf-8"?>
<!-- Generator: Adobe Illustrator 21.0.2, SVG Export Plug-In . SVG Version: 6.00 Build 0)  -->
<svg version="1.1" id="Calque_1" xmlns="http://www.w3.org/2000/svg" xmlns:xlink="http://www.w3.org/1999/xlink" x="0px" y="0px"
	 viewBox="0 0 500 110" style="enable-background:new 0 0 500 110;" xml:space="preserve">
<style type="text/css">
	.st0{fill:#0D0909;}
	.st1{fill:#E32120;}
	.st2{fill:#FFED00;}
	.st3{fill:#335AA8;}
	.st4{fill:#66B500;}
</style>
<path class="st0" d="M86.6,27.2L86.6,27.2c-1.9,0-3.5,1.6-3.5,3.5L83,78.6L18.6,27.8c-1.1-0.8-2.5-1-3.7-0.4s-2,1.8-2,3.2v55.3
	c0,1.9,1.6,3.5,3.5,3.5s3.5-1.6,3.5-3.5v-48l64.3,50.8c0.6,0.5,1.4,0.8,2.2,0.8c0.5,0,1-0.1,1.5-0.4c1.2-0.6,2-1.8,2-3.2L90,30.8
	C90.1,28.8,88.5,27.2,86.6,27.2z"/>
<path class="st0" d="M161,26.9h-42.9c-10,0-18.1,7.7-18.1,17.2v28.1c0,9.5,8.1,17.2,18.1,17.2H161c10,0,18.1-7.7,18.1-17.2V44.1
	C179.1,34.6,171,26.9,161,26.9z M172,72.2c0,5.6-4.9,10.2-11,10.2h-42.9c-6.1,0-11-4.6-11-10.2V44.1c0-5.6,4.9-10.2,11-10.2H161
	c6.1,0,11,4.6,11,10.2V72.2z"/>
<path class="st0" d="M255.7,27.3c-1.9-1.1-4.3-0.4-5.4,1.5l-29.7,53l-29.5-53c-1.1-1.9-3.5-2.6-5.4-1.5s-2.6,3.5-1.5,5.4l30.7,55.1
	c0.7,1.3,2,2,3.5,2h4.6c1.4,0,2.8-0.8,3.5-2l30.9-55.1C258.3,30.8,257.6,28.4,255.7,27.3z"/>
<path class="st0" d="M288.3,28.9c-0.7-1.2-2-2-3.4-2h-6.3c-1.4,0-2.7,0.7-3.4,1.9l-32.9,55.1c-1.1,1.9-0.5,4.3,1.4,5.4
	s4.3,0.5,5.4-1.4l7.1-11.9c0,0,0,0,0.1,0h50.6l7,12c0.7,1.3,2.1,2,3.4,2c0.7,0,1.4-0.2,2-0.5c1.9-1.1,2.5-3.5,1.4-5.4L288.3,28.9z
	 M260.9,68.2l19.9-33.4h1.8l19.5,33.4H260.9z"/>
<path class="st0" d="M377.8,26.6h-46.6c-2.2,0-4,1.8-4,4V86c0,2.2,1.8,4,4,4c2.2,0,4-1.8,4-4V65.4h43.5c5.3,0,17.6-2,17.6-20.9
	C396.3,33.3,389.4,26.6,377.8,26.6z M378.7,57.5h-43.5V34.6h42.6c7.3,0,10.6,3.1,10.6,10C388.4,56,383.2,57.5,378.7,57.5z"/>
<rect x="423.5" y="26.3" class="st1" width="40.4" height="33.1"/>
<rect x="423.5" y="59.4" class="st2" width="27.6" height="31"/>
<rect x="451.2" y="59.4" class="st3" width="37.4" height="31"/>
<rect x="463.9" y="26.3" class="st4" width="24.7" height="46.3"/>
</svg>
