<?xml version="1.0" encoding="utf-8"?>
<!-- Generator: Adobe Illustrator 19.1.0, SVG Export Plug-In . SVG Version: 6.00 Build 0)  -->
<svg version="1.1" id="Calque_1" xmlns="http://www.w3.org/2000/svg" xmlns:xlink="http://www.w3.org/1999/xlink" x="0px" y="0px"
	 viewBox="-345 170.9 500 500" style="enable-background:new -345 170.9 500 500;" xml:space="preserve">
<style type="text/css">
	.st0{fill:#0D0909;}
	.st1{fill:#E32120;}
	.st2{fill:#FFED00;}
	.st3{fill:#335AA8;}
	.st4{fill:#66B500;}
</style>
<path class="st0" d="M-258.4,393.1C-258.4,393.1-258.4,393.1-258.4,393.1c-1.9,0-3.5,1.6-3.5,3.5l-0.1,47.9l-64.4-50.8
	c-1.1-0.8-2.5-1-3.7-0.4c-1.2,0.6-2,1.8-2,3.2v55.3c0,1.9,1.6,3.5,3.5,3.5s3.5-1.6,3.5-3.5v-48l64.3,50.8c0.6,0.5,1.4,0.8,2.2,0.8
	c0.5,0,1-0.1,1.5-0.4c1.2-0.6,2-1.8,2-3.2l0.1-55.1C-254.9,394.7-256.5,393.1-258.4,393.1z"/>
<path class="st0" d="M-184,392.8h-42.9c-10,0-18.1,7.7-18.1,17.2v28.1c0,9.5,8.1,17.2,18.1,17.2h42.9c10,0,18.1-7.7,18.1-17.2V410
	C-165.9,400.5-174,392.8-184,392.8z M-173,438.1c0,5.6-4.9,10.2-11,10.2h-42.9c-6.1,0-11-4.6-11-10.2V410c0-5.6,4.9-10.2,11-10.2
	h42.9c6.1,0,11,4.6,11,10.2V438.1z"/>
<path class="st0" d="M-89.3,393.2c-1.9-1.1-4.3-0.4-5.4,1.5l-29.7,53l-29.5-53c-1.1-1.9-3.5-2.6-5.4-1.5c-1.9,1.1-2.6,3.5-1.5,5.4
	l30.7,55.1c0.7,1.3,2,2,3.5,2h4.6c1.4,0,2.8-0.8,3.5-2l30.9-55.1C-86.7,396.7-87.4,394.3-89.3,393.2z"/>
<path class="st0" d="M-56.7,394.8c-0.7-1.2-2-2-3.4-2h-6.3c-1.4,0-2.7,0.7-3.4,1.9l-32.9,55.1c-1.1,1.9-0.5,4.3,1.4,5.4
	c1.9,1.1,4.3,0.5,5.4-1.4l7.1-11.9c0,0,0,0,0.1,0h50.6l7,12c0.7,1.3,2.1,2,3.4,2c0.7,0,1.4-0.2,2-0.5c1.9-1.1,2.5-3.5,1.4-5.4
	L-56.7,394.8z M-84.1,434.1l19.9-33.4h1.8l19.5,33.4H-84.1z"/>
<path class="st0" d="M32.8,392.5h-46.6c-2.2,0-4,1.8-4,4v55.4c0,2.2,1.8,4,4,4s4-1.8,4-4v-20.6h43.5c5.3,0,17.6-2,17.6-20.9
	C51.3,399.2,44.4,392.5,32.8,392.5z M33.7,423.4H-9.8v-22.9h42.6c7.3,0,10.6,3.1,10.6,10C43.4,421.9,38.2,423.4,33.7,423.4z"/>
<rect x="78.5" y="392.2" class="st1" width="40.4" height="33.1"/>
<rect x="78.5" y="425.3" class="st2" width="27.6" height="31"/>
<rect x="106.2" y="425.3" class="st3" width="37.4" height="31"/>
<rect x="118.9" y="392.2" class="st4" width="24.7" height="46.3"/>
</svg>
