<?xml version="1.0" encoding="utf-8"?>
<!-- Generator: Adobe Illustrator 19.1.0, SVG Export Plug-In . SVG Version: 6.00 Build 0)  -->
<svg version="1.1" id="Calque_1" xmlns="http://www.w3.org/2000/svg" xmlns:xlink="http://www.w3.org/1999/xlink" x="0px" y="0px"
	 viewBox="-345 170.9 500 500" style="enable-background:new -345 170.9 500 500;" xml:space="preserve">
<style type="text/css">
	.st0{fill:#7C7C7C;}
</style>
<polygon class="st0" points="-284.2,518.2 -306.4,481.6 -321.5,481.6 -321.5,543.2 -306.4,543.2 -306.4,506.6 -284.2,543.2 
	-269.1,543.2 -269.1,481.6 -284.2,481.6 "/>
<polygon class="st0" points="-110.7,519.1 -91.5,519.1 -91.5,505.3 -110.7,505.3 -110.7,494.1 -86.8,494.1 -86.8,481.6 
	-110.7,481.6 -125.9,481.6 -125.9,494.1 -125.9,505.3 -125.9,519.1 -125.9,529.4 -125.9,543.2 -110.7,543.2 -85.4,543.2 
	-85.4,529.4 -110.7,529.4 "/>
<polygon class="st0" points="-59.9,481.6 -75,481.6 -75,529.4 -75,543.2 -59.9,543.2 -34.5,543.2 -34.5,529.4 -59.9,529.4 "/>
<rect x="119.2" y="481.6" class="st0" width="15.1" height="61.6"/>
<polygon class="st0" points="-11.7,481.6 -26.8,481.6 -26.8,529.4 -26.8,543.2 -11.7,543.2 13.7,543.2 13.7,529.4 -11.7,529.4 "/>
<rect x="22.1" y="481.6" class="st0" width="15.1" height="61.6"/>
<polygon class="st0" points="89.3,518.2 67.1,481.6 52,481.6 52,543.2 67.1,543.2 67.1,506.6 89.3,543.2 104.4,543.2 104.4,481.6 
	89.3,481.6 "/>
<polygon class="st0" points="-148.4,481.6 -162.3,521.4 -176.2,481.6 -191.3,481.6 -169.9,543.1 -169.9,543.2 -169.8,543.2 
	-154.8,543.2 -154.7,543.2 -154.7,543.1 -133.3,481.6 "/>
<path class="st0" d="M-227,480.4c-17.7,0-32,14.3-32,32c0,17.7,14.3,32,32,32c17.7,0,32-14.3,32-32
	C-195.1,494.7-209.4,480.4-227,480.4z M-227,528.9c-9.1,0-16.5-7.4-16.5-16.5c0-9.1,7.4-16.5,16.5-16.5c9.1,0,16.5,7.4,16.5,16.5
	C-210.5,521.5-217.9,528.9-227,528.9z"/>
<path class="st0" d="M-92.8,407c4.2-47.9-56.7-102.8-66.5-106.6c0,0-15.5,77.8-1.1,112.6C-145.9,447.8-97,454.8-92.8,407z"/>
<path class="st0" d="M-34.6,316.3c-30.7-36.9-66.9-3.3-59,33.5c8,36.9,64.9,92,64.9,92C-22.7,433.1-3.8,353.3-34.6,316.3z"/>
</svg>
