<?xml version="1.0" encoding="utf-8"?>
<!-- Generator: Adobe Illustrator 19.1.0, SVG Export Plug-In . SVG Version: 6.00 Build 0)  -->
<svg version="1.1" id="Calque_1" xmlns="http://www.w3.org/2000/svg" xmlns:xlink="http://www.w3.org/1999/xlink" x="0px" y="0px"
	 viewBox="-345 170.9 500 500" style="enable-background:new -345 170.9 500 500;" xml:space="preserve">
<style type="text/css">
	.st0{fill:#919191;}
	.st1{fill:#0D0909;}
</style>
<path class="st0" d="M-89.1,508.9C-6,507,60.8,439,60.8,355.4c0-83.6-66.8-151.5-149.9-153.5c31.3,37.8,51,92.5,51,153.5
	S-57.8,471.2-89.1,508.9z"/>
<path class="st0" d="M-95.4,201.9c-83.6,1.4-150.9,69.6-150.9,153.5c0,83.9,67.3,152.1,150.9,153.5c-31.3-37.8-51-92.5-51-153.5
	C-146.4,294.5-126.7,239.7-95.4,201.9z"/>
<path class="st1" d="M-182.2,644.6c-23.5,0-42.6-19.1-42.6-42.6s19.1-42.6,42.6-42.6s42.6,19.1,42.6,42.6S-158.7,644.6-182.2,644.6z
	 M-182.2,576.8c-13.9,0-25.2,11.3-25.2,25.2c0,13.9,11.3,25.2,25.2,25.2s25.2-11.3,25.2-25.2C-157.1,588.1-168.3,576.8-182.2,576.8z
	"/>
<polygon class="st1" points="-112.1,624 -112.1,560.4 -134.3,560.4 -134.3,624 -134.3,642.2 -112.1,642.2 -86.3,642.2 -86.3,624 "/>
<polygon class="st1" points="-34.3,578.6 -34.3,560.4 -60.4,560.4 -81.6,560.4 -82.6,560.4 -82.6,642.2 -60.4,642.2 -60.4,610.1 
	-36.6,610.1 -36.6,591.9 -60.4,591.9 -60.4,578.6 "/>
<path class="st1" d="M15,642.2h22.2L8.1,560.4H3.6h-14.2H-15l-29.2,81.8h22.2l4.5-14.2h28.1L15,642.2z M-12.3,611.4l8.9-28.4
	l8.9,28.4H-12.3z"/>
</svg>
