<?xml version="1.0" encoding="utf-8"?>
<!-- Generator: Adobe Illustrator 21.0.2, SVG Export Plug-In . SVG Version: 6.00 Build 0)  -->
<svg version="1.1" id="Calque_1" xmlns="http://www.w3.org/2000/svg" xmlns:xlink="http://www.w3.org/1999/xlink" x="0px" y="0px"
	 viewBox="0 0 500 140" style="enable-background:new 0 0 500 140;" xml:space="preserve">
<style type="text/css">
	.st0{fill:#0D0909;}
	.st1{fill:#FFED00;}
</style>
<polygon class="st0" points="249.7,20.5 152,20.5 124,121.7 221.7,121.7 "/>
<polygon class="st0" points="355.6,20.5 257.9,20.5 229.9,121.7 327.7,121.7 "/>
<polygon class="st0" points="462.4,20.5 364.7,20.5 336.7,121.7 434.4,121.7 "/>
<polygon class="st1" points="220.5,94.8 168.9,94.8 186.7,30.4 165.6,30.4 142.7,113.1 163.8,113.1 163.8,113 215.5,113 "/>
<polygon class="st1" points="339.2,48.7 344.3,30.5 294,30.5 294.1,30.4 271.2,30.4 248.4,113.1 271.2,113.1 280.1,80.9 320.9,80.9 
	325.9,62.7 285.1,62.7 289,48.7 "/>
<path class="st1" d="M406.6,113.1h24.5l-8.7-82.7h-4.3h-15.7h-4.3L346,113.1h25.1l7.3-12.9H406L406.6,113.1z M389.7,80.3l14-24.6
	l1.3,24.6H389.7z"/>
<polygon class="st0" points="145.5,20.5 43,20.5 15,121.7 117.5,121.7 "/>
<path class="st1" d="M86.5,49.9c11.9,0,18.8,9.7,15.6,21.5c-3.3,11.9-15.6,21.5-27.5,21.5S55.8,83.2,59,71.4
	C62.4,59.6,74.7,49.9,86.5,49.9 M92.3,29.2c-23.3,0-47.4,18.9-53.8,42.2c-6.4,23.3,7.2,42.2,30.5,42.2s47.4-18.9,53.9-42.2
	C129.2,48.1,115.6,29.2,92.3,29.2L92.3,29.2z"/>
<path d="M473.6,107.3c-0.4-0.3-1-0.5-1.8-0.8c2.1-0.2,3.7-0.7,4.8-1.5c1-0.8,1.5-1.7,1.5-2.8c0-0.9-0.3-1.6-0.9-2.4
	c-0.6-0.7-1.5-1.2-2.5-1.5s-2.6-0.4-4.6-0.4h-9.9v15.6h3v-6.9h3.4c0.8,0,1.3,0,1.6,0.1c0.5,0.1,0.9,0.2,1.4,0.4
	c0.4,0.2,0.9,0.5,1.5,1s1.3,1.2,2.1,2.2l3,3.3h3.7l-3.9-4.3C475.3,108.6,474.5,107.9,473.6,107.3z M469.5,104.9h-6.4v-5.2h7.1
	c1.7,0,2.9,0.2,3.6,0.7c0.8,0.5,1.2,1.1,1.2,1.8c0,0.5-0.2,1-0.6,1.4s-1,0.7-1.7,0.9C472,104.8,470.9,104.9,469.5,104.9z"/>
<path d="M470,88.7c-9.4,0-17.1,7.7-17.1,17.1s7.7,17.1,17.1,17.1s17.1-7.7,17.1-17.1C487.1,96.4,479.4,88.7,470,88.7z M470,121.2
	c-8.5,0-15.4-6.9-15.4-15.4s6.9-15.4,15.4-15.4s15.4,6.9,15.4,15.4S478.5,121.2,470,121.2z"/>
</svg>
