<?xml version="1.0" encoding="utf-8"?>
<!-- Generator: Adobe Illustrator 15.0.0, SVG Export Plug-In . SVG Version: 6.00 Build 0)  -->
<!DOCTYPE svg PUBLIC "-//W3C//DTD SVG 1.1//EN" "http://www.w3.org/Graphics/SVG/1.1/DTD/svg11.dtd">
<svg version="1.1" id="Calque_1" xmlns="http://www.w3.org/2000/svg" xmlns:xlink="http://www.w3.org/1999/xlink" x="0px" y="0px"
	 width="500px" height="500px" viewBox="0 0 500 500" enable-background="new 0 0 500 500" xml:space="preserve">
<g>
	<g>
		<path fill="#919191" d="M255.93,338.046c83.118-1.961,149.906-69.904,149.906-153.493c0-83.59-66.788-151.532-149.906-153.493
			c31.302,37.762,50.995,92.535,50.995,153.493C306.925,245.511,287.232,300.284,255.93,338.046z"/>
		<path fill="#919191" d="M249.586,31.034c-83.588,1.428-150.922,69.589-150.922,153.52c0,83.93,67.334,152.091,150.922,153.52
			c-31.313-37.764-51.017-92.549-51.017-153.52C198.57,123.582,218.273,68.796,249.586,31.034z"/>
	</g>
	<g>
		<path fill="#0D0909" d="M162.782,473.667c-23.479,0-42.581-19.102-42.581-42.581s19.101-42.58,42.581-42.58
			s42.581,19.101,42.581,42.58S186.262,473.667,162.782,473.667z M162.782,405.926c-13.873,0-25.161,11.286-25.161,25.16
			c0,13.875,11.288,25.161,25.161,25.161s25.161-11.286,25.161-25.161C187.943,417.212,176.655,405.926,162.782,405.926z"/>
	</g>
	<polygon fill="#0D0909" points="232.927,453.123 232.927,389.502 210.73,389.502 210.73,453.123 210.73,471.347 232.927,471.347 
		258.712,471.347 258.712,453.123 	"/>
	<polygon fill="#0D0909" points="310.735,407.726 310.735,389.502 284.62,389.502 263.416,389.502 262.422,389.502 262.422,471.347 
		284.62,471.347 284.62,439.206 308.416,439.206 308.416,420.98 284.62,420.98 284.62,407.726 	"/>
	<path fill="#0D0909" d="M360.044,471.347h22.198l-29.158-81.845h-4.45h-14.166h-4.45l-29.158,81.845h22.198l4.452-14.247h28.082
		L360.044,471.347z M332.688,440.53l8.863-28.362l8.863,28.362H332.688z"/>
</g>
</svg>
