<?xml version="1.0" encoding="utf-8"?>
<!-- Generator: Adobe Illustrator 15.0.0, SVG Export Plug-In . SVG Version: 6.00 Build 0)  -->
<!DOCTYPE svg PUBLIC "-//W3C//DTD SVG 1.1//EN" "http://www.w3.org/Graphics/SVG/1.1/DTD/svg11.dtd">
<svg version="1.1" id="Calque_1" xmlns="http://www.w3.org/2000/svg" xmlns:xlink="http://www.w3.org/1999/xlink" x="0px" y="0px"
	 width="500px" height="500px" viewBox="0 0 500 500" enable-background="new 0 0 500 500" xml:space="preserve">
<g>
	<path fill="#1A171B" d="M56.603,232.723c15.551,0,25.779,7.159,25.779,23.22c0,13.605-7.569,32.528-32.016,32.528
		c-14.631,0-26.492-7.057-26.492-24.855C23.874,246.635,34.921,232.723,56.603,232.723z M51.286,273.74
		c7.982,0,10.847-11.76,10.847-16.364c0-6.343-1.639-9.925-7.062-9.925c-8.082,0-10.941,12.173-10.941,17.697
		C44.13,269.445,45.556,273.74,51.286,273.74z"/>
	<path fill="#1A171B" d="M96.5,234.052h19.642l-1.438,6.956h0.206c4.097-5.013,9.927-8.285,16.671-8.285
		c6.956,0,12.999,2.249,14.325,8.798c4.397-5.526,10.334-8.798,17.39-8.798c10.333,0,16.978,4.807,16.978,15.751
		c0,2.456-0.814,6.037-1.227,8.389l-6.443,30.276h-20.254l5.423-25.366c0.206-1.022,1.227-6.239,1.227-7.772
		c0-3.378-1.945-5.118-5.217-5.118c-3.986,0-6.851,2.252-7.676,6.14l-6.957,32.116h-20.249l6.137-28.435
		c0.307-1.329,0.82-3.478,0.82-4.91c0-3.375-1.846-4.912-5.111-4.912c-5.017,0-7.575,3.276-8.495,7.879l-6.543,30.377H85.452
		L96.5,234.052z"/>
	<path fill="#1A171B" d="M195.005,234.052h19.536l-1.528,6.752h0.202c3.89-4.81,10.021-8.082,16.465-8.082
		c9.313,0,17.289,3.888,17.289,14.322c0,2.352-0.613,6.239-1.427,10.125l-6.448,29.97h-20.25l5.217-24.344
		c0.613-3.068,1.633-6.649,1.633-8.795c0-3.378-2.458-5.118-5.729-5.118c-6.443,0-8.589,4.605-9.816,10.128l-5.935,28.128h-20.255
		L195.005,234.052z"/>
	<path fill="#1A171B" d="M261.806,234.052h20.255l-11.054,53.087h-20.249L261.806,234.052z M283.181,228.326h-20.25l2.965-14.218
		h20.255L283.181,228.326z"/>
	<path fill="#1A171B" d="M290.856,214.107h53.803v15.24h-34.78v14.935h30.076v14.729h-30.076v28.128h-19.022V214.107z"/>
	<path fill="#1A171B" d="M353.354,214.107h19.022v73.032h-19.022V214.107z"/>
	<path fill="#1A171B" d="M443.47,230.471h-21.788v56.668h-19.029v-56.668h-21.787v-16.364h62.604V230.471z"/>
	<path fill="#1A171B" d="M463.618,247.967c-9.815,0-16.805-7.352-16.805-17.078c0-10.272,7.764-17.078,16.805-17.078
		c8.952,0,16.71,6.806,16.71,17.078S472.571,247.967,463.618,247.967z M463.618,216.78c-7.396,0-13.148,5.799-13.148,14.109
		c0,7.762,5.021,14.109,13.148,14.109c7.307,0,13.06-5.754,13.06-14.109C476.678,222.579,470.925,216.78,463.618,216.78z
		 M460.24,240.66h-3.104v-18.903h7.168c4.565,0,6.895,1.6,6.895,5.435c0,3.425-2.102,4.84-4.933,5.158l5.295,8.31h-3.512
		l-4.888-8.082h-2.921V240.66z M463.708,229.93c2.33,0,4.386-0.228,4.386-2.967c0-2.282-2.24-2.559-4.113-2.559h-3.74v5.526H463.708
		z"/>
</g>
</svg>
