<?xml version="1.0" encoding="utf-8"?>
<!-- Generator: Adobe Illustrator 21.0.2, SVG Export Plug-In . SVG Version: 6.00 Build 0)  -->
<svg version="1.1" id="Calque_1" xmlns="http://www.w3.org/2000/svg" xmlns:xlink="http://www.w3.org/1999/xlink" x="0px" y="0px"
	 viewBox="0 0 500 108" style="enable-background:new 0 0 500 108;" xml:space="preserve">
<style type="text/css">
	.st0{fill:#1A171B;}
</style>
<path class="st0" d="M56.6,36.7c15.6,0,25.8,7.2,25.8,23.2c0,13.6-7.6,32.5-32,32.5c-14.6,0-26.5-7.1-26.5-24.9
	C23.9,50.6,34.9,36.7,56.6,36.7z M51.3,77.7c8,0,10.8-11.8,10.8-16.4c0-6.3-1.6-9.9-7.1-9.9c-8.1,0-10.9,12.2-10.9,17.7
	C44.1,73.4,45.6,77.7,51.3,77.7z"/>
<path class="st0" d="M96.5,38h19.6l-1.4,7h0.2c4.1-5,9.9-8.3,16.7-8.3c7,0,13,2.2,14.3,8.8c4.4-5.5,10.3-8.8,17.4-8.8
	c10.3,0,17,4.8,17,15.8c0,2.5-0.8,6-1.2,8.4l-6.4,30.3h-20.3l5.4-25.4c0.2-1,1.2-6.2,1.2-7.8c0-3.4-1.9-5.1-5.2-5.1
	c-4,0-6.9,2.3-7.7,6.1l-7,32.1h-20.2l6.1-28.4c0.3-1.3,0.8-3.5,0.8-4.9c0-3.4-1.8-4.9-5.1-4.9c-5,0-7.6,3.3-8.5,7.9l-6.5,30.4H85.4
	L96.5,38z"/>
<path class="st0" d="M195,38h19.5l-1.5,6.8h0.2c3.9-4.8,10-8.1,16.5-8.1c9.3,0,17.3,3.9,17.3,14.3c0,2.4-0.6,6.2-1.4,10.1l-6.4,30
	H219l5.2-24.3c0.6-3.1,1.6-6.6,1.6-8.8c0-3.4-2.5-5.1-5.7-5.1c-6.4,0-8.6,4.6-9.8,10.1l-5.9,28.1H184L195,38z"/>
<polygon class="st0" points="250.8,91.1 271,91.1 282.1,38 261.8,38 "/>
<polygon class="st0" points="266,18.1 263,32.3 283.2,32.3 286.3,18.1 "/>
<path class="st0" d="M290.9,18.1h53.8v15.2h-34.8v14.9H340v14.7h-30.1v28.2h-19V18.1L290.9,18.1z"/>
<path class="st0" d="M353.4,18.1h19v73h-19V18.1z"/>
<path class="st0" d="M443.5,34.5h-21.8v56.6h-19V34.4h-21.8V18.1h62.6V34.5L443.5,34.5z"/>
<path class="st0" d="M471.2,31.2c0-3.8-2.3-5.4-6.9-5.4h-7.2v18.9h3.1v-8.1h2.9l4.9,8.1h3.6l-5.3-8.3
	C469.1,36,471.2,34.6,471.2,31.2z M460.3,33.8v-5.5h3.7c1.9,0,4.1,0.3,4.1,2.6c0,2.8-2.1,3-4.4,3v-0.1H460.3z"/>
<path class="st0" d="M463.6,17.8c-9,0-16.8,6.8-16.8,17.1c0,9.7,7,17.1,16.8,17.1c9,0,16.7-6.8,16.7-17.1
	C480.3,24.6,472.6,17.8,463.6,17.8z M463.6,49c-8.1,0-13.1-6.3-13.1-14.1c0-8.3,5.7-14.1,13.1-14.1c7.3,0,13.1,5.8,13.1,14.1
	C476.7,43.2,470.9,49,463.6,49z"/>
</svg>
