<?xml version="1.0" encoding="utf-8"?>
<!-- Generator: Adobe Illustrator 15.0.0, SVG Export Plug-In . SVG Version: 6.00 Build 0)  -->
<!DOCTYPE svg PUBLIC "-//W3C//DTD SVG 1.1//EN" "http://www.w3.org/Graphics/SVG/1.1/DTD/svg11.dtd">
<svg version="1.1" id="Calque_1" xmlns="http://www.w3.org/2000/svg" xmlns:xlink="http://www.w3.org/1999/xlink" x="0px" y="0px"
	 width="500px" height="500px" viewBox="0 0 500 500" enable-background="new 0 0 500 500" xml:space="preserve">
<g>
	<path fill="#094982" d="M102.475,190.178H26.198c-2.322,0-10.993,1.615-10.993,9.515c0,7.933,7.993,10.431,10.254,10.431h9.05
		v29.92h1.478v-31.397H25.459c-1.858,0-8.776-2.239-8.776-8.954c0-6.674,7.505-8.038,9.515-8.038l76.25,0
		c0.378,0.014,9.262,0.431,9.262,8.126c0,7.55-8.538,8.773-9.278,8.865h-9.917v98.07c0,3.276-0.788,5.171-4.813,5.171h-2.032
		V208.093H74.402v104.534h0.554v0.739H87.7c5.543,0,6.291-3.362,6.291-6.649v-96.593h8.484l0.082-0.005
		c0.106-0.011,10.63-1.285,10.63-10.338C113.187,190.679,102.609,190.182,102.475,190.178z"/>
	<rect x="64.614" y="207.908" fill="#0D0909" width="2.585" height="89.759"/>
	<rect x="49.099" y="207.908" fill="#0D0909" width="2.586" height="60.948"/>
	<path fill="#094982" d="M171.426,281.29c24.576,0,44.57-19.994,44.57-44.571c0-24.577-19.994-44.572-44.57-44.572
		c-24.578,0-44.572,19.995-44.572,44.572C126.854,261.296,146.848,281.29,171.426,281.29z M171.426,196.58
		c22.133,0,40.139,18.006,40.139,40.14c0,22.132-18.006,40.138-40.139,40.138c-22.133,0-40.14-18.006-40.14-40.138
		C131.286,214.586,149.293,196.58,171.426,196.58z"/>
	<path fill="#094982" d="M234.712,238.197h16.96c0.829,0.024,10.226,0.12,16.861-6.286c4.193-4.047,6.318-9.72,6.318-16.863
		c0-22.498-20.999-23.147-23.395-23.147h-21.177v91.605h4.432V238.197z M234.712,196.334h16.745c3.167,0,18.962,0.902,18.962,18.715
		c0,5.878-1.661,10.471-4.938,13.648c-5.419,5.256-13.611,5.071-13.699,5.068l-17.07-0.001V196.334z"/>
	<path fill="#094982" d="M350.945,238.197h4.819l30.948,45.064l5.448-0.093l-31.011-44.972h6.754
		c0.828,0.024,10.227,0.12,16.861-6.286c4.193-4.047,6.318-9.72,6.318-16.863c0-22.498-20.999-23.147-23.394-23.147h-21.178v91.605
		h4.433V238.197z M350.945,196.334h16.745c3.167,0,18.961,0.902,18.961,18.715c0,5.878-1.661,10.471-4.938,13.648
		c-5.418,5.256-13.615,5.071-13.699,5.068l-17.069-0.001V196.334z"/>
	<polygon fill="#094982" points="333.213,277.598 293.321,277.598 293.321,238.197 333.213,238.197 333.213,233.765 
		293.321,233.765 293.321,195.595 333.213,195.595 333.213,191.163 293.321,191.163 291.105,191.163 288.888,191.163 
		288.888,282.03 333.213,282.03 	"/>
	<path fill="#094982" d="M410.536,238.443h27.454l39.65,44.571l6.212-0.046l-77.749-87.048v87.586h4.433V238.443z M434.047,234.011
		h-23.511v-26.429L434.047,234.011z"/>
	<rect x="125.376" y="289.407" fill="#0D0909" width="359.406" height="1.745"/>
	<g>
		<path fill="#094982" d="M126.223,311.203c-1.583-1.514-2.375-3.52-2.375-6.018c0-2.59,0.792-4.659,2.375-6.209
			c1.582-1.551,3.692-2.324,6.331-2.324s4.749,0.773,6.333,2.324c1.582,1.55,2.374,3.619,2.374,6.209
			c0,2.498-0.792,4.504-2.374,6.018c-1.584,1.514-3.694,2.271-6.333,2.271S127.805,312.717,126.223,311.203z M135.799,308.698
			c0.81-0.882,1.214-2.065,1.214-3.549c0-1.52-0.404-2.74-1.214-3.66c-0.81-0.919-1.892-1.379-3.245-1.379s-2.436,0.46-3.245,1.379
			c-0.81,0.92-1.214,2.141-1.214,3.66c0,1.483,0.404,2.667,1.214,3.549c0.81,0.896,1.892,1.344,3.245,1.344
			S134.99,309.595,135.799,308.698z"/>
		<path fill="#094982" d="M161.901,297.778c-0.917-1.077-2.114-1.647-3.465-1.647h-6.28v17.327h3.287v-6.364h2.993
			c1.359,0,2.562-0.595,3.471-1.708c0.899-1.074,1.355-2.375,1.355-3.867C163.261,300.071,162.801,298.809,161.901,297.778z
			 M155.443,299.39h2.806c0.457,0,0.813,0.184,1.148,0.582c0.389,0.478,0.579,1.046,0.579,1.734c0,0.635-0.18,1.147-0.561,1.576
			c-0.344,0.4-0.704,0.577-1.167,0.577h-2.806V299.39z"/>
		<polygon fill="#094982" points="184.071,299.273 184.071,296.131 173.073,296.131 173.073,313.562 184.071,313.562 
			184.071,310.444 176.197,310.444 176.197,306.108 183.391,306.108 183.391,303.017 176.197,303.017 176.197,299.273 		"/>
		<path fill="#094982" d="M204.694,312.078c-0.002-0.005-0.046-0.136-0.072-0.561c-0.024-0.343-0.037-0.864-0.037-1.551
			c0-1.396-0.17-2.615-0.504-3.627c-0.15-0.453-0.325-0.841-0.527-1.166c0.229-0.265,0.435-0.583,0.617-0.954
			c0.405-0.858,0.611-1.867,0.611-2.997c0-1.336-0.353-2.497-1.041-3.441c-0.97-1.364-2.145-1.65-2.958-1.65h-6.672v17.431h3.003
			v-7.066l3.527-0.001c0.038,0.014,0.188,0.136,0.369,0.489c0.302,0.589,0.455,1.323,0.456,2.211l0.062,2.237
			c0.052,0.753,0.181,1.252,0.416,1.621l0.325,0.509l3.113,0.018L204.694,312.078z M197.114,299.273h3.532
			c0.106,0,0.354,0,0.673,0.431c0.31,0.444,0.46,0.975,0.46,1.622c0,0.66-0.148,1.187-0.45,1.607
			c-0.339,0.471-0.589,0.471-0.683,0.471h-3.532V299.273z"/>
		<path fill="#094982" d="M216.532,296.131h-1.542h-0.593h-0.853l0.125,17.247h3.153l0.013-4.85h5.945l4.054,4.85h4.061
			L216.532,296.131z M220.491,305.444h-3.709l-0.076-4.183L220.491,305.444z"/>
		<path fill="#094982" d="M240.135,313.101v-14.819h-5.43v-1.042h11.983v1.042h-5.483v14.819H240.135z"/>
		<path fill="#094982" d="M256.387,313.101v-15.861h1.07v15.861H256.387z"/>
		<path fill="#094982" d="M269.868,313.101v-15.861h1.635l10.646,14.55v-14.55h1.189v15.861h-1.636l-10.646-14.338v14.338H269.868z"
			/>
		<path fill="#094982" d="M307.499,312.485c-1.185,0.642-2.473,1.016-3.927,1.016c-2.41,0-4.478-0.811-6.202-2.434
			c-1.704-1.622-2.556-3.584-2.556-5.885s0.852-4.271,2.556-5.911c1.725-1.623,3.792-2.434,6.202-2.434
			c1.828,0,3.439,0.463,4.831,1.391c1.393,0.909,2.234,2.068,2.525,3.478h-1.247c-0.229-1.106-0.925-2.024-2.089-2.756
			c-1.144-0.73-2.483-1.097-4.021-1.097c-2.078,0-3.844,0.715-5.298,2.14c-1.477,1.444-2.214,3.175-2.214,5.189
			c0,2.016,0.737,3.745,2.214,5.189c1.454,1.427,3.22,2.14,5.298,2.14c1.766,0,3.272-0.579,4.52-1.738
			c1.246-1.142,1.87-2.532,1.87-4.173v-0.401h-6.39v-1.017h7.356C310.929,305.183,311.497,310.319,307.499,312.485z"/>
		<path fill="#094982" d="M367.99,313.101l0.008-15.861h1.706l12.483,15.861h-1.6l-4.064-5.083h-7.328l-0.001,5.083H367.99z
			 M376.123,307.002l-6.956-8.532l0.031,8.532H376.123z"/>
		<path fill="#094982" d="M391.411,311.067c-1.601-1.622-2.401-3.584-2.401-5.885s0.801-4.271,2.401-5.911
			c1.582-1.623,3.502-2.434,5.765-2.434c1.86,0,3.432,0.445,4.713,1.337c1.28,0.874,2.072,2.051,2.372,3.531h-1.201
			c-0.221-1.106-0.892-2.024-2.013-2.756c-1.1-0.73-2.391-1.097-3.871-1.097c-1.922,0-3.563,0.715-4.924,2.14
			c-1.361,1.444-2.041,3.175-2.041,5.189c0,2.016,0.68,3.745,2.041,5.189c1.36,1.427,3.002,2.14,4.924,2.14
			c1.641,0,2.991-0.429,4.052-1.284c1.082-0.855,1.69-1.997,1.832-3.424h1.201c-0.161,1.73-0.892,3.112-2.191,4.146
			c-1.282,1.034-2.913,1.551-4.894,1.551C394.913,313.501,392.993,312.69,391.411,311.067z"/>
		<path fill="#094982" d="M416.159,311.067c-1.601-1.622-2.4-3.584-2.4-5.885s0.8-4.271,2.4-5.911
			c1.582-1.623,3.503-2.434,5.765-2.434c1.861,0,3.432,0.445,4.714,1.337c1.28,0.874,2.071,2.051,2.371,3.531h-1.2
			c-0.222-1.106-0.892-2.024-2.013-2.756c-1.101-0.73-2.392-1.097-3.872-1.097c-1.922,0-3.562,0.715-4.923,2.14
			c-1.362,1.444-2.042,3.175-2.042,5.189c0,2.016,0.68,3.745,2.042,5.189c1.36,1.427,3.001,2.14,4.923,2.14
			c1.641,0,2.992-0.429,4.053-1.284c1.081-0.855,1.689-1.997,1.832-3.424h1.2c-0.161,1.73-0.892,3.112-2.191,4.146
			c-1.282,1.034-2.912,1.551-4.894,1.551C419.662,313.501,417.741,312.69,416.159,311.067z"/>
		<path fill="#094982" d="M438.833,313.101v-15.861h10.351v1.042h-9.281v6.099h8.479v0.989h-8.479v6.714h9.281v1.018H438.833z"/>
		<path fill="#094982" d="M457.781,311.95c-0.843-1.017-1.265-2.256-1.265-3.718h0.83c0,1.177,0.338,2.184,1.015,3.022
			c0.677,0.838,1.492,1.257,2.445,1.257c1.035,0,1.927-0.356,2.673-1.07c0.732-0.713,1.099-1.577,1.099-2.595
			c0-0.873-0.326-1.604-0.975-2.192c-0.636-0.589-1.492-0.946-2.568-1.07c-1.313-0.143-2.362-0.625-3.149-1.444
			c-0.788-0.821-1.182-1.827-1.182-3.022c0-1.177,0.4-2.185,1.201-3.022c0.802-0.839,1.769-1.257,2.901-1.257
			c1.216,0,2.259,0.438,3.129,1.31c0.856,0.875,1.284,1.927,1.284,3.157h-0.828c0-0.945-0.353-1.757-1.057-2.434
			c-0.691-0.679-1.533-1.018-2.528-1.018c-0.898,0-1.672,0.321-2.321,0.964c-0.635,0.623-0.952,1.391-0.952,2.3
			c0,0.892,0.332,1.641,0.994,2.247c0.677,0.605,1.567,0.972,2.673,1.097c1.271,0.143,2.293,0.615,3.066,1.417
			c0.759,0.803,1.14,1.792,1.14,2.969c0,1.284-0.448,2.381-1.347,3.291c-0.898,0.909-1.982,1.363-3.253,1.363
			C459.618,313.501,458.61,312.984,457.781,311.95z"/>
		<path fill="#094982" d="M476.066,311.95c-0.843-1.017-1.264-2.256-1.264-3.718h0.828c0,1.177,0.339,2.184,1.016,3.022
			c0.677,0.838,1.492,1.257,2.445,1.257c1.035,0,1.927-0.356,2.673-1.07c0.732-0.713,1.098-1.577,1.098-2.595
			c0-0.873-0.324-1.604-0.973-2.192c-0.637-0.589-1.493-0.946-2.57-1.07c-1.312-0.143-2.362-0.625-3.148-1.444
			c-0.788-0.821-1.181-1.827-1.181-3.022c0-1.177,0.398-2.185,1.2-3.022c0.801-0.839,1.769-1.257,2.901-1.257
			c1.215,0,2.259,0.438,3.129,1.31c0.856,0.875,1.285,1.927,1.285,3.157h-0.829c0-0.945-0.353-1.757-1.058-2.434
			c-0.69-0.679-1.532-1.018-2.527-1.018c-0.898,0-1.672,0.321-2.321,0.964c-0.635,0.623-0.952,1.391-0.952,2.3
			c0,0.892,0.331,1.641,0.994,2.247c0.677,0.605,1.567,0.972,2.673,1.097c1.271,0.143,2.293,0.615,3.067,1.417
			c0.759,0.803,1.139,1.792,1.139,2.969c0,1.284-0.448,2.381-1.347,3.291c-0.898,0.909-1.982,1.363-3.253,1.363
			C477.903,313.501,476.895,312.984,476.066,311.95z"/>
	</g>
</g>
</svg>
