<?xml version="1.0" encoding="utf-8"?>
<!-- Generator: Adobe Illustrator 15.0.0, SVG Export Plug-In . SVG Version: 6.00 Build 0)  -->
<!DOCTYPE svg PUBLIC "-//W3C//DTD SVG 1.1//EN" "http://www.w3.org/Graphics/SVG/1.1/DTD/svg11.dtd">
<svg version="1.1" id="Calque_1" xmlns="http://www.w3.org/2000/svg" xmlns:xlink="http://www.w3.org/1999/xlink" x="0px" y="0px"
	 width="500px" height="500px" viewBox="0 0 500 500" enable-background="new 0 0 500 500" xml:space="preserve">
<g>
	<path fill="#323284" d="M182.456,204.448c-4.273-11.603-11.361-20.361-21.067-26.031c-9.533-5.564-20.337-8.385-32.113-8.385
		c-7.028,0-14.229,0.998-21.405,2.967c-7.168,1.97-14.158,4.961-20.75,8.875c-5.342,3.109-10.604,7.294-15.638,12.438
		c-4.952,5.058-9.576,10.654-13.744,16.632c-4.156,5.96-7.841,12.135-10.948,18.352c-3.112,6.218-5.567,12.125-7.308,17.594
		c-0.727,2.376-1.382,4.827-1.947,7.277c-0.563,2.435-1.06,4.965-1.474,7.52c-1.099,6.774-1.569,13.644-1.397,20.419
		c0.175,6.908,1.295,13.525,3.328,19.666c2.062,6.246,5.205,11.913,9.338,16.84c4.225,5.049,9.858,8.966,16.743,11.643
		c0.035,0.014,0.07,0.026,0.106,0.039c3.715,1.308,7.753,2.687,12.005,4.099c4.564,1.512,9.227,2.277,13.855,2.277
		c0.668,0,1.359-0.056,2.079-0.171c0.421-0.07,0.627-0.076,0.68-0.076c0.068,0,0.137-0.002,0.205-0.006
		c2.941-0.173,5.662-0.479,8.094-0.914c2.371-0.428,4.631-0.899,6.717-1.4c2.164-0.521,4.379-1.179,6.582-1.957l7.339-2.594
		c0.046-0.017,0.091-0.033,0.136-0.052c6.493-2.602,12.772-6.455,18.664-11.453c5.783-4.904,11.126-10.385,15.879-16.29
		c4.722-5.864,9.062-12.16,12.897-18.714c3.822-6.531,7.01-12.823,9.475-18.7c0.033-0.079,0.063-0.159,0.091-0.24
		c1.294-3.858,2.446-7.815,3.425-11.765c0.979-3.959,1.791-7.92,2.415-11.771c0.991-6.112,1.388-12.286,1.18-18.354
		C185.677,216.022,184.519,210.045,182.456,204.448z M157.997,239.694c-0.534,3.295-1.271,6.612-2.191,9.856
		c-0.835,2.934-1.69,5.823-2.544,8.591c-1.84,4.101-3.938,8.276-6.236,12.415c-2.678,4.821-5.758,9.442-9.154,13.734
		c-3.389,4.275-7.2,8.278-11.33,11.898c-4.081,3.58-8.644,6.657-13.586,9.158c-2.626,1.354-5.508,2.421-8.568,3.173
		c-3.049,0.752-6.035,1.134-8.876,1.134c-6.959,0-12.817-1.271-17.416-3.776c-4.612-2.508-8.287-5.818-10.925-9.842
		c-2.663-4.058-4.359-8.88-5.043-14.331c-0.71-5.652-0.557-11.678,0.454-17.909c0.813-5.02,2.288-10.408,4.382-16.016
		c2.106-5.638,4.784-11.23,7.96-16.625c3.17-5.388,6.896-10.528,11.075-15.28c4.12-4.691,8.693-8.729,13.565-11.986
		c7.676-5.031,15.955-7.582,24.608-7.582c7.249,0,14.005,1.757,20.076,5.222c5.953,3.404,10,8.146,12.401,14.576
		c1.36,3.386,2.099,7.132,2.193,11.13C158.938,231.455,158.653,235.646,157.997,239.694z"/>
	<path fill="#323284" d="M391.976,226.449c-3.453-2.252-7.087-4.182-10.803-5.734c-4.103-1.714-8.724-2.214-13.712-1.477
		c-4.465,0.507-8.584,1.241-12.25,2.182c-3.734,0.961-7.817,2.579-12.135,4.806c-2.229,0.998-4.438,2.177-6.611,3.529l8.187-50.473
		c0.059-0.362,0.06-0.731,0.004-1.094c-0.612-3.968-2.13-7.012-4.513-9.047c-2.289-1.954-4.868-2.945-7.666-2.945
		c-0.152,0-0.305,0.003-0.465,0.009c-2.797,0.115-5.599,1.228-8.329,3.308c-2.688,2.05-4.758,4.987-6.151,8.729
		c-0.079,0.214-0.138,0.435-0.175,0.66l-20.777,128.116c-0.048,0.296-0.058,0.597-0.029,0.896
		c0.042,0.432,1.162,10.665,13.822,18.101c3.478,2.043,6.555,3.354,9.683,4.129c3.48,0.859,7.223,1.472,11.182,1.822
		c1.479,0.107,3.014,0.161,4.563,0.161c3.467,0,7.16-0.271,10.976-0.804c5.534-0.772,11.064-2.163,16.436-4.134
		c5.437-1.991,10.585-4.718,15.3-8.104c4.771-3.425,8.851-7.656,12.125-12.578c1.708-2.332,3.362-4.737,4.918-7.148
		c1.699-2.635,2.993-5.455,3.846-8.384c1.604-4.725,2.992-10.137,4.126-16.09c1.151-6.062,1.7-12.114,1.632-17.992
		c-0.07-6.021-1.009-11.747-2.789-17.018C400.449,234.194,396.95,229.675,391.976,226.449z M376.856,272.19
		c-0.508,3.132-1.372,6.309-2.57,9.444c-1.167,3.06-2.811,6.447-4.888,10.076c-6.489,6.275-13.491,10.438-20.819,12.376
		c-7.108,1.882-14.237,1.438-21.313-1.326c-0.32-0.286-0.663-0.538-1.033-0.757c-0.283-0.336-0.627-0.616-1.014-0.825
		c-0.108-0.059-0.212-0.115-0.31-0.169l5.03-31.011l1.329-1.145c0.126-0.108,0.244-0.227,0.354-0.352
		c5.253-6.018,10.707-11.024,16.209-14.88c5.148-3.607,11.456-6.074,18.757-7.339c0.655,0.13,1.358,0.259,2.103,0.384
		c0.771,0.133,1.487,0.267,2.151,0.398c0.409,0.198,0.79,0.429,1.133,0.685c0.629,0.471,1.298,0.888,1.996,1.245
		c0.3,0.419,0.557,0.85,0.764,1.282c0.431,0.91,0.962,1.788,1.584,2.619c0.69,3.426,1.084,6.686,1.17,9.694
		C377.576,265.831,377.365,269.061,376.856,272.19z"/>
	<path fill="#323284" d="M455.523,214.664c-2.31-2.067-5.011-3.116-8.028-3.116c-3.103,0-6.047,1.086-8.751,3.227
		c-2.546,2.016-4.639,4.985-6.22,8.824c-0.106,0.259-0.182,0.531-0.224,0.808c-2.34,15.418-4.803,31.376-7.322,47.428
		c-2.518,16.019-4.983,31.988-7.328,47.466c-0.021,0.144-0.034,0.288-0.038,0.434c-0.118,4.59,1.026,8.146,3.404,10.572
		c2.371,2.418,5.231,3.645,8.503,3.645c3.269,0,6.445-1.214,9.443-3.609c3.01-2.407,5.015-5.958,5.96-10.553
		c0.013-0.06,0.023-0.12,0.033-0.181c2.342-15.462,4.806-31.419,7.322-47.429c2.522-16.079,4.988-32.048,7.326-47.464
		c0.045-0.292,0.052-0.587,0.021-0.88C459.216,219.827,457.837,216.742,455.523,214.664z"/>
	<path fill="#323284" d="M465.221,173.243c-2.628-3.394-6.318-5.187-10.672-5.187c-4.199,0-8.041,1.607-11.419,4.778
		c-3.284,3.083-5.311,6.871-6.021,11.259c-0.717,4.417,0.172,8.342,2.638,11.661c2.539,3.435,6.203,5.25,10.594,5.25
		c4.181,0,8.052-1.596,11.505-4.744c3.389-3.088,5.455-6.805,6.143-11.045C468.734,180.617,467.804,176.592,465.221,173.243z"/>
	<path fill="#323284" d="M277.612,212.621c-3.342-1.568-6.392-1.568-7.857-1.568l-0.595,0.001c-6.096,0-12.401,1.527-18.742,4.541
		c-5.247,2.497-10.507,5.589-15.671,9.211c-1.659-1.426-3.678-2.755-6.035-3.973c-3.735-1.924-6.958-2.86-9.852-2.86
		c-4,0-7.434,1.255-10.206,3.732c-2.724,2.433-4.373,5.326-4.903,8.599c-0.408,2.522-0.024,5.045,1.139,7.49
		c1.091,2.311,2.967,4.303,5.582,5.927l-0.75,4.624c-0.006,0.038-0.034,0.185-0.136,0.466c-0.222,0.605-0.381,1.195-0.473,1.757
		c-0.094,0.58-0.127,1.195-0.1,1.787c0.009,0.28-0.009,0.407-0.014,0.436l-10.941,67.463c-0.025,0.156-0.04,0.312-0.044,0.471
		c-0.118,4.592,1.027,8.148,3.404,10.572c2.372,2.418,5.232,3.644,8.503,3.644c3.267,0,6.443-1.213,9.443-3.609
		c3.009-2.407,5.014-5.957,5.96-10.552c0.01-0.049,0.02-0.097,0.027-0.146l10.456-64.468c1.823-1.551,3.923-3.29,6.38-5.284
		c2.743-2.223,5.614-4.312,8.531-6.211c2.89-1.879,5.773-3.507,8.569-4.837c4.203-1.997,7.479-2.292,9.436-0.917
		c0.676,0.475,1.375,1.041,2.2,1.78c0.705,0.632,1.632,0.949,2.584,0.885c7.596-0.54,13.993-5.683,15.212-12.229
		C289.954,222.722,285.802,216.467,277.612,212.621z"/>
	<path fill="#FFFFFF" d="M170.495,270.839c0.738-1.801,1.481-3.589,2.163-5.402l1.023-2.712l0.488-1.362
		c0.184-0.479,0.269-0.827,0.397-1.332c0.971-3.736,1.856-7.479,2.544-11.261c0.718-3.764,1.324-7.556,1.716-11.347
		c0.377-3.759,0.594-7.549,0.511-11.318c-0.069-3.799-0.394-7.464-1.105-11.083c-0.713-3.623-1.835-7.111-3.333-10.482
		c-2.912-6.74-7.248-12.785-12.981-17.164c-1.409-1.102-2.928-2.137-4.443-3.029c-0.868-0.507-1.595-0.905-2.428-1.342
		c-0.813-0.423-1.641-0.818-2.473-1.204c-3.327-1.545-6.826-2.711-10.41-3.567c-7.174-1.754-14.723-1.949-22.186-1.215
		c-3.743,0.383-7.434,1.095-11.133,2.001c-3.634,0.899-7.263,2.11-10.775,3.555c-3.518,1.413-6.998,3.128-10.299,5.017
		c-3.309,1.928-6.461,4.173-9.506,6.589c2.588-2.903,5.453-5.581,8.58-7.971c0.78-0.596,1.578-1.182,2.402-1.732
		c0.801-0.536,1.631-1.085,2.462-1.604c1.665-1.048,3.37-2.041,5.115-2.968c3.511-1.826,7.145-3.376,10.944-4.668
		c3.738-1.26,7.642-2.193,11.576-2.858c7.879-1.352,16.066-1.283,24.041,0.306c3.983,0.81,7.884,2.075,11.621,3.712
		c0.933,0.415,1.854,0.856,2.763,1.319c0.887,0.455,1.86,0.986,2.667,1.452c1.83,1.063,3.527,2.201,5.174,3.482
		c6.541,5.145,11.482,12.145,14.51,19.692c3.071,7.533,4.356,15.884,3.881,23.816c-0.177,3.979-0.564,7.93-1.304,11.839
		c-0.737,3.875-1.656,7.688-2.739,11.459c-1.123,3.753-2.365,7.467-3.821,11.09C174.498,264.217,172.557,267.519,170.495,270.839z"
		/>
	<path fill="#FFFFFF" d="M62.742,297.945c3.56,4.728,7.872,8.463,12.645,10.919c4.774,2.468,10.022,3.505,15.374,3.431
		c5.36-0.07,10.807-1.167,16.22-2.739c5.434-1.561,10.813-3.637,16.428-5.61c-4.312,4.106-9.294,7.463-14.762,10.023
		c-5.462,2.529-11.507,4.248-17.817,4.323c-3.144,0.025-6.336-0.354-9.397-1.262c-3.058-0.903-5.977-2.312-8.529-4.174
		C67.811,309.134,64.063,303.786,62.742,297.945z"/>
	<path fill="#FFFFFF" d="M214.742,223.278c1.928-0.309,3.882-0.377,5.844-0.345c1.962,0.046,3.931,0.257,5.903,0.642
		c1.97,0.4,3.943,0.987,5.876,1.929c1.908,0.952,3.845,2.287,5.285,4.347l-4.121-0.453c3.025-3.255,6.429-5.846,10.089-8.085
		c3.664-2.211,7.58-4.052,11.735-5.271c4.14-1.221,8.544-1.845,12.904-1.441c4.341,0.383,8.629,1.95,11.817,4.677
		c-4.016-1.191-7.973-1.422-11.804-0.979c-3.833,0.451-7.547,1.522-11.14,2.947c-3.586,1.438-7.079,3.179-10.419,5.192
		c-3.32,2.013-6.606,4.237-9.425,6.72l-2.631,2.318l-1.49-2.77c-0.625-1.162-1.734-2.292-3.105-3.248
		c-1.363-0.972-2.95-1.802-4.612-2.538C222.104,225.451,218.477,224.32,214.742,223.278z"/>
	<path fill="#FFFFFF" d="M339.407,181.944c-0.33,5.567-0.945,11.083-1.53,16.604c-0.627,5.513-1.351,11.008-2.128,16.493
		c-0.769,5.487-1.64,10.955-2.525,16.421c-0.91,5.461-1.863,10.914-2.871,16.357l-5.245-2.458c0.937-1.085,1.789-1.962,2.716-2.89
		c0.913-0.909,1.848-1.79,2.814-2.633c1.931-1.688,3.927-3.299,6.033-4.763c4.188-2.956,8.74-5.438,13.57-7.235
		c4.828-1.779,9.957-2.849,15.083-2.872c5.118-0.012,10.201,0.947,14.75,2.976c-4.911-0.779-9.803-0.877-14.522-0.097
		c-4.719,0.748-9.247,2.245-13.507,4.287c-4.269,2.03-8.273,4.596-12.031,7.484c-1.867,1.46-3.696,2.975-5.428,4.592
		c-0.863,0.81-1.72,1.627-2.548,2.465c-0.811,0.823-1.663,1.731-2.331,2.52l-7.255,8.582l2.01-11.04
		c0.992-5.446,2.039-10.882,3.129-16.31c1.114-5.424,2.243-10.844,3.475-16.246c1.223-5.404,2.499-10.797,3.872-16.173
		C336.353,192.64,337.738,187.266,339.407,181.944z"/>
	<path fill="#FFFFFF" d="M322.074,307.944c3.898,0.283,7.517,0.354,11.091,0.261c3.563-0.096,7.045-0.402,10.496-0.931
		c3.451-0.532,6.875-1.271,10.336-2.212c3.479-0.913,6.948-2.07,10.744-3.118c-2.4,3.126-5.514,5.591-8.963,7.487
		c-3.454,1.891-7.277,3.18-11.215,3.772c-3.936,0.599-7.983,0.503-11.856-0.32C328.86,312.031,325.074,310.554,322.074,307.944z"/>
	<path fill="#FFFFFF" d="M455.407,172.611c1.627-0.793,3.224-0.786,4.708-0.469c1.48,0.346,2.875,1.083,4.016,2.181
		c1.141,1.085,2.018,2.559,2.34,4.184c0.312,1.619,0.08,3.375-1.063,4.771c-1.359-1.178-2.291-1.959-3.148-2.646
		c-0.841-0.686-1.57-1.284-2.29-1.988c-0.722-0.697-1.439-1.482-2.197-2.425C457.014,175.255,456.247,174.178,455.407,172.611z"/>
	<path fill="#FFFFFF" d="M452.74,216.611c1.359,1.687,1.882,3.908,2.258,6.023c0.349,2.147,0.416,4.332,0.345,6.501
		c-0.17,4.251-0.534,8.436-0.937,12.626c-0.838,8.37-1.954,16.691-3.278,24.979c-1.324,8.287-2.869,16.538-4.652,24.748
		c-1.808,8.207-3.803,16.382-6.401,24.455c0.133-8.479,0.852-16.861,1.745-25.214c0.915-8.349,2.054-16.66,3.386-24.938
		c1.33-8.279,2.85-16.527,4.554-24.742c0.854-4.103,1.77-8.21,2.676-12.279c0.482-1.988,0.758-4.01,0.912-6.053
		c0.072-1.021,0.085-2.047,0.007-3.072C453.283,218.623,453.148,217.587,452.74,216.611z"/>
	<path fill="#FFFFFF" d="M230.075,260.613c0.392,5.044,0.193,9.987-0.184,14.899c-0.399,4.908-1.031,9.776-1.861,14.61
		c-0.828,4.834-1.864,9.632-3.131,14.391c-1.288,4.755-2.759,9.479-4.824,14.1c-0.398-5.046-0.203-9.989,0.176-14.901
		c0.399-4.908,1.03-9.776,1.869-14.608c0.836-4.833,1.871-9.632,3.139-14.39C226.549,269.959,228.017,265.235,230.075,260.613z"/>
</g>
</svg>
