<?xml version="1.0" encoding="utf-8"?>
<!-- Generator: Adobe Illustrator 19.1.0, SVG Export Plug-In . SVG Version: 6.00 Build 0)  -->
<svg version="1.1" id="Calque_1" xmlns="http://www.w3.org/2000/svg" xmlns:xlink="http://www.w3.org/1999/xlink" x="0px" y="0px"
	 viewBox="-345 170.9 500 500" style="enable-background:new -345 170.9 500 500;" xml:space="preserve">
<style type="text/css">
	.st0{fill:#8DCAD8;}
	.st1{fill:#3E9EB5;}
</style>
<path class="st0" d="M-222.5,385.5c3.3-2.1,6.6-4.1,9.9-6c3.3-2,6.7-3.9,10-5.8c6.7-3.8,13.5-7.5,20.4-11.1
	c6.9-3.5,13.8-6.9,20.9-10.2c7.1-3.2,14.2-6.2,21.5-9c7.3-2.8,14.7-5.4,22.3-7.6c7.7-2.1,15.7-3.5,24.1-3.1
	c4.2,0.3,8.5,0.9,12.8,2.6c2.1,0.9,4.2,2,6,3.5c1.9,1.5,3.5,3.4,4.6,5.4c1.2,2.1,1.9,4.3,2.3,6.4c0.4,2.2,0.4,4.3,0.3,6.4
	c-0.4,4.2-1.4,8-3,11.7l-1-0.2c0-3.9,0-7.7-0.7-11.2c-0.7-3.5-1.9-6.7-3.9-9c-3.9-4.5-10.6-5.6-17.6-5.4c-3.5,0.1-7.1,0.5-10.7,0.9
	c-1.8,0.2-3.6,0.5-5.4,0.8c-1.8,0.3-3.7,0.6-5.5,1c-7.3,1.3-14.7,3.2-21.9,5.4c-7.2,2.3-14.4,4.8-21.6,7.5
	c-7.2,2.7-14.3,5.5-21.3,8.5c-14.2,5.9-28.1,12.4-41.9,19.1L-222.5,385.5z"/>
<path class="st0" d="M86.9,328l16.5-36l-34.5,24.6l6.8,4.3c-231.5,214.6-347.6,227.8-373.2,207.3c-25.7-20.6,8.1-66.9,8.1-66.9
	s-51.9,58.3-22.5,84.3c37.3,33,221.9-51.6,392.3-221.8L86.9,328z"/>
<path class="st0" d="M99.3,338.1l6.8,4.3C-47,484.4-149.7,538.2-209,552.5h32.3C-99.1,519,8.4,447.7,110.8,345.4l6.5,4.1l16.5-36
	L99.3,338.1z"/>
<path class="st1" d="M-255.6,382c-21.9,0-39.7,18.3-39.7,40.8c0,22.5,17.8,40.8,39.7,40.8s39.7-18.3,39.7-40.8
	C-215.9,400.3-233.7,382-255.6,382z M-255.6,449.2c-11,0-19.8-11.8-19.8-26.4c0-14.6,8.9-26.4,19.8-26.4s19.8,11.8,19.8,26.4
	C-235.7,437.4-244.6,449.2-255.6,449.2z"/>
<polygon class="st1" points="-97.8,403.3 -97.8,415.8 -87.8,415.8 -87.8,463.1 -70.4,463.1 -70.4,415.8 -70.4,403.3 -87.8,403.3 "/>
<path class="st1" d="M-35.3,380.8l-17.4,6.1v16.4h-7.8v12.5h7.8v32.8c0,26.3,30.9,11.6,30.9,11.6v-11.1c-12.7,6.9-13.5-0.5-13.5-0.5
	v-32.8h14v-12.5h-14L-35.3,380.8L-35.3,380.8z"/>
<path class="st1" d="M-185.5,412.6v-9.3H-213v12.5h10.8v46.5h17.6v-34c4.3-7.6,15.7-8.7,15.7-8.7v-18.1
	C-179.5,401.6-184.1,409.5-185.5,412.6z"/>
<circle class="st1" cx="-79.3" cy="387.8" r="10.2"/>
<path class="st1" d="M-124.1,401.5c-6.4,0-12.4,2.8-17.3,7.3V389v-12.5h-17.9h-9.6V389h9.6v74.6h16.4l12.4-0.1
	c12.1-1.3,23.7-13.4,26.7-28.7C-100.3,417.4-108.9,401.5-124.1,401.5z M-141.4,450v-21.9l0-2.4c0,0,1.7-9.4,11.7-9.2
	C-116.9,416.7-116.4,453.7-141.4,450z"/>
<path class="st1" d="M80.1,417.6c3.6,0,7,1,9.7,2.7v-16.8c-3.1-0.9-6.3-1.4-9.7-1.4c-18,0-32.5,13.7-32.5,30.7
	c0,16.9,14.6,30.7,32.5,30.7c3.4,0,6.7-0.5,9.7-1.4v-16.8c-2.8,1.7-6.1,2.7-9.7,2.7c-9.4,0-17.1-6.8-17.1-15.2
	S70.7,417.6,80.1,417.6z"/>
<path class="st1" d="M13.8,401.8c-15.4,0-27.9,13.8-27.9,30.9c0,17,12.5,30.9,27.9,30.9c9.8,0,18.4-5.6,23.4-14.1l-13.5-6.2
	c-2.4,3.4-6,5.6-10,5.6c-5.7,0-10.6-4.4-12.4-10.7h40l-0.1-0.6h0.1c0.2-1.6,0.4-3.2,0.4-4.9C41.7,415.7,29.2,401.8,13.8,401.8z
	 M2.3,424.6c2.3-4.8,6.6-8.1,11.4-8.1s9.2,3.3,11.4,8.1H2.3z"/>
</svg>
