<?xml version="1.0" encoding="utf-8"?>
<!-- Generator: Adobe Illustrator 15.0.0, SVG Export Plug-In . SVG Version: 6.00 Build 0)  -->
<!DOCTYPE svg PUBLIC "-//W3C//DTD SVG 1.1//EN" "http://www.w3.org/Graphics/SVG/1.1/DTD/svg11.dtd">
<svg version="1.1" id="Calque_1" xmlns="http://www.w3.org/2000/svg" xmlns:xlink="http://www.w3.org/1999/xlink" x="0px" y="0px"
	 width="500px" height="500px" viewBox="0 0 500 500" enable-background="new 0 0 500 500" xml:space="preserve">
<g>
	<path fill="#0D0909" d="M241.77,251.717c9.581,0,17.377,7.794,17.377,17.375c0,9.582-7.796,17.378-17.377,17.378
		s-17.376-7.796-17.376-17.378C224.393,259.511,232.189,251.717,241.77,251.717 M241.77,234.9c-18.884,0-34.192,15.31-34.192,34.191
		c0,18.885,15.308,34.193,34.192,34.193s34.192-15.309,34.192-34.193C275.962,250.21,260.654,234.9,241.77,234.9L241.77,234.9z"/>
	<polygon fill="#0D0909" points="424.779,287.311 424.779,228.455 424.779,224.812 424.779,212.2 397.313,212.2 397.313,228.455 
		408.524,228.455 408.524,287.311 397.313,287.311 397.313,303.565 436.55,303.565 436.55,287.311 	"/>
	<polygon fill="#0D0909" points="383.436,287.311 364.559,269.099 383.839,251.157 390.587,251.157 390.587,234.901 
		351.631,234.901 351.631,251.157 358.762,251.157 349.382,260.231 349.382,228.456 349.388,228.456 349.388,212.2 317.999,212.2 
		317.999,228.456 332.853,228.456 332.853,287.311 321.081,287.311 321.081,303.565 352.751,303.565 352.751,287.311 
		349.382,287.311 349.382,275.338 361.792,287.311 359.758,287.311 359.758,303.565 391.147,303.565 391.147,287.311 	"/>
	<path fill="#0D0909" d="M303.425,239.526c-1.068-4.766-6.093-4.623-6.093-4.623l-21.092-0.002v16.256h10.65v36.153h-10.65v16.255
		h38.956v-16.255h-12.051v-24.845c5.775-15.229,19.338-11.31,19.338-11.31v-16.535C315.126,231.924,307.629,234.341,303.425,239.526
		z"/>
	<g>
		<rect x="453.925" y="212.2" fill="#0D0909" width="16.256" height="16.255"/>
		<polygon fill="#0D0909" points="470.741,287.311 470.741,251.157 470.741,234.901 453.564,234.901 442.715,234.901 
			442.715,251.157 453.564,251.157 453.564,287.311 442.715,287.311 442.715,303.565 481.952,303.565 481.952,287.311 		"/>
	</g>
	<path fill="#E32120" d="M186.697,250.525c0-45.854-37.643-83.027-84.079-83.027c-46.435,0-84.078,37.173-84.078,83.027
		c0,45.855,37.643,83.027,84.078,83.027c18.988,0,36.503-6.218,50.579-16.701c7.821,9.884,11.22,16.982,11.22,16.982
		s4.204,0,17.376,0c-1.906-8.26-6.378-19.321-13.769-31.142C179.699,288.435,186.697,270.289,186.697,250.525z M102.618,190.62
		c33.504,0,60.665,26.821,60.665,59.905c0,12.067-3.625,23.291-9.84,32.693c-11.792-13.336-27.391-26.256-47.32-35.986
		c25.504-8.968,42.88-28.306,42.88-28.306l-37.275-23.262c-21.908,29.668-57.007,43.353-69.29,47.414
		C46.154,213.51,71.671,190.62,102.618,190.62z M42.479,258.296c45.167,5.22,75.579,23.935,94.729,41.434
		c-9.813,6.739-21.73,10.702-34.59,10.702C71.783,310.432,46.34,287.708,42.479,258.296z"/>
</g>
</svg>
