<?xml version="1.0" encoding="utf-8"?>
<!-- Generator: Adobe Illustrator 19.1.0, SVG Export Plug-In . SVG Version: 6.00 Build 0)  -->
<svg version="1.1" id="Calque_1" xmlns="http://www.w3.org/2000/svg" xmlns:xlink="http://www.w3.org/1999/xlink" x="0px" y="0px"
	 viewBox="-345 170.9 500 500" style="enable-background:new -345 170.9 500 500;" xml:space="preserve">
<style type="text/css">
	.st0{fill:#0D0909;}
	.st1{fill:#E32120;}
</style>
<path class="st0" d="M-103.2,422.6c9.6,0,17.4,7.8,17.4,17.4c0,9.6-7.8,17.4-17.4,17.4s-17.4-7.8-17.4-17.4
	C-120.6,430.4-112.8,422.6-103.2,422.6 M-103.2,405.8c-18.9,0-34.2,15.3-34.2,34.2c0,18.9,15.3,34.2,34.2,34.2S-69,458.9-69,440
	C-69,421.1-84.3,405.8-103.2,405.8L-103.2,405.8z"/>
<polygon class="st0" points="79.8,458.2 79.8,399.3 79.8,395.7 79.8,383.1 52.3,383.1 52.3,399.3 63.5,399.3 63.5,458.2 52.3,458.2 
	52.3,474.5 91.5,474.5 91.5,458.2 "/>
<polygon class="st0" points="38.4,458.2 19.6,440 38.8,422 45.6,422 45.6,405.8 6.6,405.8 6.6,422 13.8,422 4.4,431.1 4.4,399.3 
	4.4,399.3 4.4,383.1 -27,383.1 -27,399.3 -12.1,399.3 -12.1,458.2 -23.9,458.2 -23.9,474.5 7.8,474.5 7.8,458.2 4.4,458.2 
	4.4,446.2 16.8,458.2 14.8,458.2 14.8,474.5 46.1,474.5 46.1,458.2 "/>
<path class="st0" d="M-41.6,410.4c-1.1-4.8-6.1-4.6-6.1-4.6l-21.1,0V422h10.6v36.2h-10.6v16.3h39v-16.3h-12.1v-24.8
	c5.8-15.2,19.3-11.3,19.3-11.3v-16.5C-29.9,402.8-37.4,405.2-41.6,410.4z"/>
<rect x="108.9" y="383.1" class="st0" width="16.3" height="16.3"/>
<polygon class="st0" points="125.7,458.2 125.7,422 125.7,405.8 108.6,405.8 97.7,405.8 97.7,422 108.6,422 108.6,458.2 97.7,458.2 
	97.7,474.5 137,474.5 137,458.2 "/>
<path class="st1" d="M-158.3,421.4c0-45.9-37.6-83-84.1-83c-46.4,0-84.1,37.2-84.1,83c0,45.9,37.6,83,84.1,83
	c19,0,36.5-6.2,50.6-16.7c7.8,9.9,11.2,17,11.2,17s4.2,0,17.4,0c-1.9-8.3-6.4-19.3-13.8-31.1C-165.3,459.3-158.3,441.2-158.3,421.4z
	 M-242.4,361.5c33.5,0,60.7,26.8,60.7,59.9c0,12.1-3.6,23.3-9.8,32.7c-11.8-13.3-27.4-26.3-47.3-36c25.5-9,42.9-28.3,42.9-28.3
	l-37.3-23.3c-21.9,29.7-57,43.4-69.3,47.4C-298.8,384.4-273.3,361.5-242.4,361.5z M-302.5,429.2c45.2,5.2,75.6,23.9,94.7,41.4
	c-9.8,6.7-21.7,10.7-34.6,10.7C-273.2,481.3-298.7,458.6-302.5,429.2z"/>
</svg>
