<?xml version="1.0" encoding="utf-8"?>
<!-- Generator: Adobe Illustrator 15.0.0, SVG Export Plug-In . SVG Version: 6.00 Build 0)  -->
<!DOCTYPE svg PUBLIC "-//W3C//DTD SVG 1.1//EN" "http://www.w3.org/Graphics/SVG/1.1/DTD/svg11.dtd">
<svg version="1.1" id="Calque_1" xmlns="http://www.w3.org/2000/svg" xmlns:xlink="http://www.w3.org/1999/xlink" x="0px" y="0px"
	 width="500px" height="500px" viewBox="0 0 500 500" enable-background="new 0 0 500 500" xml:space="preserve">
<g>
	<ellipse fill="#002649" cx="421.487" cy="252.237" rx="62.063" ry="75.502"/>
	<ellipse fill="#FF7300" cx="419.878" cy="250.629" rx="62.063" ry="75.502"/>
	<radialGradient id="SVGID_1_" cx="411.1643" cy="275.7295" r="25.6801" gradientUnits="userSpaceOnUse">
		<stop  offset="0" style="stop-color:#FFFFFF"/>
		<stop  offset="0.4733" style="stop-color:#DDEFF0"/>
		<stop  offset="1" style="stop-color:#B3DBDD"/>
	</radialGradient>
	<path fill="url(#SVGID_1_)" d="M408.485,285.381c0,0.592,0.48,1.072,1.072,1.072h23.056c0.593,0,1.072-0.48,1.072-1.072v-5.313
		h-25.2V285.381z"/>
	<radialGradient id="SVGID_2_" cx="413.3088" cy="283.2354" r="28.0586" gradientUnits="userSpaceOnUse">
		<stop  offset="0" style="stop-color:#FFFFFF"/>
		<stop  offset="0.4733" style="stop-color:#DDEFF0"/>
		<stop  offset="1" style="stop-color:#B3DBDD"/>
	</radialGradient>
	<path fill="url(#SVGID_2_)" d="M409.869,297.713c0,0.592,0.428,1.072,0.955,1.072h20.521c0.527,0,0.954-0.48,0.954-1.072v-9.205
		h-22.431V297.713z"/>
	<radialGradient id="SVGID_3_" cx="416.884" cy="298.6064" r="9.3833" gradientUnits="userSpaceOnUse">
		<stop  offset="0" style="stop-color:#FFFFFF"/>
		<stop  offset="0.4733" style="stop-color:#DDEFF0"/>
		<stop  offset="1" style="stop-color:#B3DBDD"/>
	</radialGradient>
	<path fill="url(#SVGID_3_)" d="M417.922,302.391h6.506c1.191,0,2.155-0.949,2.191-2.131h-10.889
		C415.767,301.441,416.731,302.391,417.922,302.391z"/>
	<radialGradient id="SVGID_4_" cx="413.3098" cy="212.8164" r="101.1385" gradientUnits="userSpaceOnUse">
		<stop  offset="0" style="stop-color:#FFFFFF"/>
		<stop  offset="0.4733" style="stop-color:#DDEFF0"/>
		<stop  offset="1" style="stop-color:#B3DBDD"/>
	</radialGradient>
	<path fill="url(#SVGID_4_)" d="M449.905,237.168c0-16.312-13.113-29.535-29.289-29.535c-16.177,0-29.289,13.223-29.289,29.535
		c0,5.84,1.688,11.279,4.588,15.863c-0.01,0-0.021,0-0.03,0c0.061,0.077,0.117,0.153,0.177,0.23
		c0.615,0.953,1.279,1.871,1.996,2.744c6.982,10.295,6.763,18.204,6.763,18.204c0,2.32,1.881,4.2,4.2,4.2h23.771
		c2.319,0,4.199-1.88,4.199-4.2c0-0.125-0.008-0.248-0.019-0.37c-0.047-1.662,0.145-8.75,6.052-17.66
		C447.315,251.042,449.905,244.411,449.905,237.168z"/>
	<g>
		<path fill="#FF7300" d="M74.433,229.191c-2.706-3.083-6.059-5.537-9.97-7.292c-3.907-1.752-8.411-2.641-13.385-2.641
			c-4.917,0-9.405,0.888-13.339,2.64c-3.938,1.754-7.308,4.208-10.016,7.293c-2.701,3.079-4.801,6.736-6.242,10.87
			c-1.438,4.125-2.166,8.655-2.166,13.464c0,4.693,0.729,9.134,2.167,13.199c1.441,4.075,3.542,7.672,6.245,10.692
			c2.708,3.025,6.077,5.434,10.015,7.156c3.934,1.722,8.421,2.595,13.336,2.595c4.974,0,9.476-0.873,13.382-2.596
			c3.909-1.724,7.263-4.132,9.969-7.155c2.703-3.021,4.805-6.618,6.246-10.692c1.437-4.066,2.166-8.507,2.166-13.199
			c0-4.809-0.729-9.339-2.165-13.464C79.236,235.928,77.135,232.271,74.433,229.191z M58.571,271.962
			c-2.034,1.134-4.555,1.709-7.492,1.709c-2.938,0-5.459-0.575-7.492-1.709c-2.04-1.136-3.717-2.667-4.984-4.552
			c-1.278-1.897-2.223-4.067-2.808-6.45c-0.59-2.397-0.889-4.902-0.889-7.443c0-2.655,0.299-5.263,0.89-7.75
			c0.586-2.468,1.531-4.696,2.809-6.623c1.266-1.91,2.942-3.455,4.982-4.592c2.035-1.134,4.556-1.708,7.492-1.708
			c2.935,0,5.456,0.575,7.492,1.708c2.039,1.137,3.715,2.682,4.982,4.592c1.279,1.93,2.225,4.158,2.809,6.623
			c0.591,2.487,0.89,5.093,0.89,7.75c0,2.541-0.299,5.046-0.888,7.443c-0.584,2.38-1.529,4.55-2.808,6.45
			C62.287,269.295,60.61,270.826,58.571,271.962z"/>
		<path fill="#FF7300" d="M133.067,251.473c-2.145-1.395-4.335-2.425-6.511-3.063c-2.142-0.627-3.844-1.067-5.035-1.303
			c-4.118-1.034-7.322-1.853-9.797-2.504c-2.46-0.645-4.406-1.296-5.783-1.937c-1.313-0.608-2.193-1.263-2.618-1.946
			c-0.427-0.685-0.644-1.615-0.644-2.765c0-1.26,0.274-2.306,0.813-3.107c0.557-0.829,1.28-1.531,2.149-2.085
			c0.875-0.559,1.864-0.956,2.938-1.18c1.108-0.23,2.226-0.347,3.324-0.347c1.7,0,3.29,0.147,4.726,0.437
			c1.407,0.285,2.669,0.773,3.752,1.45c1.062,0.665,1.927,1.593,2.573,2.759c0.65,1.179,1.04,2.701,1.155,4.522l0.032,0.497h14.77
			v-0.53c0-3.769-0.736-7.03-2.188-9.693c-1.449-2.655-3.434-4.869-5.901-6.581c-2.453-1.699-5.295-2.946-8.448-3.705
			c-3.131-0.752-6.441-1.133-9.838-1.133c-2.921,0-5.886,0.397-8.813,1.182c-2.941,0.79-5.613,2.021-7.94,3.659
			c-2.341,1.647-4.263,3.735-5.71,6.207c-1.457,2.486-2.196,5.451-2.196,8.812c0,3,0.584,5.598,1.735,7.723
			c1.145,2.116,2.668,3.905,4.528,5.316c1.84,1.398,3.953,2.553,6.279,3.43c2.301,0.871,4.692,1.615,7.093,2.208
			c2.333,0.652,4.681,1.257,6.979,1.796c2.252,0.527,4.294,1.152,6.069,1.855c1.732,0.687,3.147,1.552,4.208,2.572
			c1.016,0.979,1.509,2.231,1.509,3.827c0,1.48-0.386,2.709-1.147,3.651c-0.791,0.979-1.792,1.757-2.974,2.314
			c-1.211,0.571-2.528,0.962-3.914,1.162c-1.407,0.204-2.749,0.308-3.989,0.308c-1.813,0-3.592-0.22-5.288-0.655
			c-1.676-0.429-3.151-1.093-4.384-1.975c-1.222-0.871-2.215-2.028-2.956-3.439c-0.739-1.407-1.114-3.161-1.114-5.215v-0.529H85.717
			l-0.009,0.521c-0.062,4.008,0.688,7.525,2.229,10.455c1.538,2.925,3.644,5.365,6.258,7.253c2.603,1.881,5.643,3.279,9.035,4.156
			c3.375,0.873,6.901,1.315,10.48,1.315c4.429,0,8.387-0.521,11.768-1.545c3.394-1.029,6.281-2.492,8.583-4.347
			c2.312-1.862,4.08-4.109,5.255-6.681c1.17-2.566,1.764-5.379,1.764-8.361c0-3.668-0.805-6.732-2.393-9.107
			C137.118,254.782,135.227,252.88,133.067,251.473z"/>
		<path fill="#FF7300" d="M237.614,220.798h-15.336L197.11,286.57l15.766,0.021l5.076-14.413h23.438l4.895,14.413h15.932
			L237.614,220.798z M222.048,260.5l7.755-21.845l7.504,21.845H222.048z"/>
		<polygon fill="#FF7300" points="311.792,220.859 296.958,247.49 282.123,220.859 281.408,220.859 265.68,220.859 264.965,220.859 
			264.965,286.453 281.408,286.453 281.408,251.624 297.137,276.266 311.792,250.154 311.792,286.453 328.236,286.453 
			328.236,220.859 		"/>
	</g>
	<path fill="#FF7300" d="M198.702,243.156c0-17.426-15.818-22.118-18.767-22.118c-2.537,0-15.673,0-19.303,0h-0.938h-14.075v64.745
		h15.013v-20.51c1.787,0,5.869,0,9.867,0l9.034,20.51h16.756l-9.911-22.502C191.894,260.54,198.702,254.589,198.702,243.156z
		 M174.171,251.467c-2.438,0-10.736,0-13.539,0v-16.622c2.802,0,11.1,0,13.539,0c2.949,0,8.847,0.536,8.847,8.311
		S177.12,251.467,174.171,251.467z"/>
	<g>
		<path fill="#002648" d="M384.24,243.916c-0.968-1.104-2.167-1.982-3.566-2.61c-1.398-0.627-3.011-0.945-4.791-0.945
			c-1.759,0-3.365,0.318-4.773,0.944c-1.41,0.628-2.615,1.506-3.585,2.611c-0.967,1.102-1.718,2.41-2.233,3.89
			c-0.515,1.477-0.775,3.098-0.775,4.819c0,1.679,0.261,3.268,0.775,4.724c0.516,1.458,1.268,2.745,2.234,3.826
			c0.97,1.083,2.176,1.944,3.585,2.561c1.407,0.617,3.014,0.93,4.772,0.93c1.78,0,3.392-0.312,4.79-0.93
			c1.398-0.616,2.599-1.479,3.566-2.561c0.968-1.081,1.721-2.368,2.236-3.826c0.515-1.456,0.774-3.045,0.774-4.724
			c0-1.722-0.26-3.343-0.774-4.819C385.96,246.327,385.208,245.018,384.24,243.916z M378.565,259.223
			c-0.729,0.405-1.63,0.611-2.682,0.611s-1.954-0.206-2.681-0.611c-0.729-0.406-1.331-0.954-1.784-1.63
			c-0.457-0.678-0.796-1.455-1.005-2.308c-0.211-0.857-0.317-1.755-0.317-2.664c0-0.95,0.106-1.883,0.317-2.773
			c0.21-0.884,0.549-1.681,1.006-2.37c0.452-0.684,1.054-1.237,1.783-1.644c0.728-0.406,1.63-0.611,2.681-0.611
			s1.952,0.206,2.682,0.611c0.729,0.407,1.33,0.96,1.783,1.644c0.457,0.69,0.796,1.488,1.005,2.37
			c0.212,0.891,0.318,1.823,0.318,2.773c0,0.909-0.106,1.807-0.318,2.664c-0.209,0.852-0.547,1.628-1.004,2.308
			C379.895,258.269,379.294,258.816,378.565,259.223z"/>
		<path fill="#002648" d="M405.226,251.89c-0.769-0.499-1.552-0.868-2.33-1.097c-0.767-0.224-1.376-0.381-1.802-0.466
			c-1.474-0.371-2.621-0.664-3.507-0.896c-0.88-0.231-1.577-0.464-2.069-0.693c-0.471-0.218-0.785-0.452-0.938-0.697
			s-0.229-0.578-0.229-0.99c0-0.451,0.098-0.825,0.291-1.111c0.199-0.297,0.458-0.548,0.769-0.747
			c0.313-0.2,0.668-0.342,1.052-0.422c0.396-0.083,0.796-0.124,1.189-0.124c0.608,0,1.178,0.052,1.691,0.156
			c0.503,0.102,0.955,0.276,1.342,0.519c0.381,0.238,0.69,0.57,0.922,0.987c0.232,0.422,0.371,0.967,0.413,1.619l0.011,0.178h5.286
			v-0.19c0-1.348-0.264-2.515-0.782-3.469c-0.519-0.95-1.229-1.743-2.112-2.355c-0.878-0.608-1.896-1.054-3.023-1.326
			c-1.12-0.27-2.306-0.405-3.521-0.405c-1.045,0-2.106,0.142-3.153,0.423c-1.053,0.283-2.009,0.723-2.843,1.31
			c-0.837,0.589-1.525,1.336-2.043,2.221c-0.521,0.89-0.785,1.951-0.785,3.154c0,1.073,0.208,2.003,0.62,2.763
			c0.41,0.758,0.955,1.397,1.621,1.903c0.658,0.5,1.415,0.913,2.247,1.228c0.823,0.312,1.679,0.577,2.539,0.79
			c0.835,0.233,1.674,0.449,2.497,0.643c0.806,0.188,1.536,0.413,2.172,0.664c0.62,0.245,1.126,0.555,1.506,0.921
			c0.364,0.351,0.54,0.798,0.54,1.369c0,0.529-0.138,0.97-0.411,1.308c-0.283,0.35-0.641,0.628-1.064,0.827
			c-0.433,0.205-0.904,0.345-1.4,0.416c-0.503,0.073-0.983,0.11-1.428,0.11c-0.648,0-1.285-0.079-1.892-0.234
			c-0.6-0.153-1.128-0.392-1.569-0.707c-0.437-0.312-0.793-0.726-1.058-1.23c-0.265-0.504-0.398-1.132-0.398-1.866v-0.189h-5.295
			l-0.003,0.187c-0.022,1.434,0.246,2.693,0.798,3.741c0.55,1.047,1.304,1.921,2.239,2.596c0.932,0.674,2.019,1.174,3.233,1.488
			c1.208,0.312,2.47,0.471,3.75,0.471c1.586,0,3.002-0.187,4.213-0.554c1.214-0.368,2.247-0.892,3.071-1.556
			c0.827-0.666,1.46-1.471,1.881-2.391c0.418-0.918,0.631-1.925,0.631-2.993c0-1.312-0.288-2.409-0.856-3.259
			C406.675,253.074,405.998,252.394,405.226,251.89z"/>
		<path fill="#002648" d="M442.641,240.912h-5.488l-9.008,23.539l5.644,0.007l1.816-5.158h8.388l1.752,5.158h5.702L442.641,240.912z
			 M437.071,255.121l2.774-7.818l2.687,7.818H437.071z"/>
		<polygon fill="#002648" points="469.188,240.934 463.879,250.465 458.571,240.934 458.315,240.934 452.686,240.934 
			452.43,240.934 452.43,264.408 458.315,264.408 458.315,251.944 463.944,260.763 469.188,251.418 469.188,264.408 
			475.073,264.408 475.073,240.934 		"/>
	</g>
	<path fill="#002648" d="M428.714,248.914c0-6.237-5.66-7.916-6.715-7.916c-0.907,0-5.609,0-6.909,0h-0.336h-5.036v23.171h5.372
		v-7.34c0.641,0,2.102,0,3.531,0l3.233,7.34h5.997l-3.547-8.053C426.279,255.135,428.714,253.005,428.714,248.914z M419.936,251.888
		c-0.872,0-3.843,0-4.846,0v-5.949c1.003,0,3.974,0,4.846,0c1.056,0,3.167,0.192,3.167,2.975
		C423.103,251.695,420.991,251.888,419.936,251.888z"/>
</g>
</svg>
