<?xml version="1.0" encoding="utf-8"?>
<!-- Generator: Adobe Illustrator 21.0.2, SVG Export Plug-In . SVG Version: 6.00 Build 0)  -->
<svg version="1.1" id="Calque_1" xmlns="http://www.w3.org/2000/svg" xmlns:xlink="http://www.w3.org/1999/xlink" x="0px" y="0px"
	 viewBox="0 0 500 176" style="enable-background:new 0 0 500 176;" xml:space="preserve">
<style type="text/css">
	.st0{fill:#002649;}
	.st1{fill:#FF7300;}
	.st2{fill:url(#SVGID_1_);}
	.st3{fill:url(#SVGID_2_);}
	.st4{fill:url(#SVGID_3_);}
	.st5{fill:url(#SVGID_4_);}
	.st6{fill:#002648;}
</style>
<ellipse class="st0" cx="421.5" cy="90.2" rx="62.1" ry="75.5"/>
<ellipse class="st1" cx="419.9" cy="88.6" rx="62.1" ry="75.5"/>
<radialGradient id="SVGID_1_" cx="411.1643" cy="2272.0496" r="25.6801" gradientTransform="matrix(1 0 0 1 0 -2158.3301)" gradientUnits="userSpaceOnUse">
	<stop  offset="0" style="stop-color:#FFFFFF"/>
	<stop  offset="0.4733" style="stop-color:#DDEFF0"/>
	<stop  offset="1" style="stop-color:#B3DBDD"/>
</radialGradient>
<path class="st2" d="M408.5,123.4c0,0.6,0.5,1.1,1.1,1.1h23.1c0.6,0,1.1-0.5,1.1-1.1v-5.3h-25.3V123.4L408.5,123.4z"/>
<radialGradient id="SVGID_2_" cx="413.3088" cy="2279.5554" r="28.0586" gradientTransform="matrix(1 0 0 1 0 -2158.3301)" gradientUnits="userSpaceOnUse">
	<stop  offset="0" style="stop-color:#FFFFFF"/>
	<stop  offset="0.4733" style="stop-color:#DDEFF0"/>
	<stop  offset="1" style="stop-color:#B3DBDD"/>
</radialGradient>
<path class="st3" d="M409.9,135.7c0,0.6,0.4,1.1,1,1.1h20.5c0.5,0,1-0.5,1-1.1v-9.2h-22.5V135.7L409.9,135.7z"/>
<radialGradient id="SVGID_3_" cx="416.884" cy="2294.9263" r="9.3833" gradientTransform="matrix(1 0 0 1 0 -2158.3301)" gradientUnits="userSpaceOnUse">
	<stop  offset="0" style="stop-color:#FFFFFF"/>
	<stop  offset="0.4733" style="stop-color:#DDEFF0"/>
	<stop  offset="1" style="stop-color:#B3DBDD"/>
</radialGradient>
<path class="st4" d="M417.9,140.4h6.5c1.2,0,2.2-0.9,2.2-2.1h-10.9C415.8,139.4,416.7,140.4,417.9,140.4z"/>
<radialGradient id="SVGID_4_" cx="413.3098" cy="2209.1365" r="101.1385" gradientTransform="matrix(1 0 0 1 0 -2158.3301)" gradientUnits="userSpaceOnUse">
	<stop  offset="0" style="stop-color:#FFFFFF"/>
	<stop  offset="0.4733" style="stop-color:#DDEFF0"/>
	<stop  offset="1" style="stop-color:#B3DBDD"/>
</radialGradient>
<path class="st5" d="M449.9,75.2c0-16.3-13.1-29.5-29.3-29.5c-16.2,0-29.3,13.2-29.3,29.5c0,5.8,1.7,11.3,4.6,15.9l0,0
	c0.1,0.1,0.1,0.2,0.2,0.2c0.6,1,1.3,1.9,2,2.7c7,10.3,6.8,18.2,6.8,18.2c0,2.3,1.9,4.2,4.2,4.2h23.8c2.3,0,4.2-1.9,4.2-4.2
	c0-0.1,0-0.2,0-0.4c0-1.7,0.1-8.8,6.1-17.7C447.3,89,449.9,82.4,449.9,75.2z"/>
<path class="st1" d="M74.4,67.2c-2.7-3.1-6.1-5.5-10-7.3S56,57.3,51,57.3c-4.9,0-9.4,0.9-13.3,2.6c-3.9,1.8-7.3,4.2-10,7.3
	c-2.7,3.1-4.8,6.7-6.2,10.9c-1.4,4.1-2.2,8.7-2.2,13.5c0,4.7,0.7,9.1,2.2,13.2c1.4,4.1,3.5,7.7,6.2,10.7s6.1,5.4,10,7.2
	c3.9,1.7,8.4,2.6,13.3,2.6c5,0,9.5-0.9,13.4-2.6s7.3-4.1,10-7.2c2.7-3,4.8-6.6,6.2-10.7c1.4-4.1,2.2-8.5,2.2-13.2
	c0-4.8-0.7-9.3-2.2-13.5C79.2,73.9,77.1,70.3,74.4,67.2z M58.6,110c-2,1.1-4.6,1.7-7.5,1.7s-5.5-0.6-7.5-1.7s-3.7-2.7-5-4.6
	s-2.2-4.1-2.8-6.5c-0.6-2.4-0.9-4.9-0.9-7.4c0-2.7,0.3-5.3,0.9-7.8s1.5-4.7,2.8-6.6s2.9-3.5,5-4.6c2-1.1,4.6-1.7,7.5-1.7
	s5.5,0.6,7.5,1.7s3.7,2.7,5,4.6s2.2,4.2,2.8,6.6c0.6,2.5,0.9,5.1,0.9,7.8c0,2.5-0.3,5-0.9,7.4s-1.5,4.5-2.8,6.5
	C62.3,107.3,60.6,108.8,58.6,110z"/>
<path class="st1" d="M133.1,89.5c-2.1-1.4-4.3-2.4-6.5-3.1c-2.1-0.6-3.8-1.1-5-1.3c-4.1-1-7.3-1.9-9.8-2.5s-4.4-1.3-5.8-1.9
	c-1.3-0.6-2.2-1.3-2.6-1.9c-0.4-0.7-0.6-1.6-0.6-2.8c0-1.3,0.3-2.3,0.8-3.1c0.6-0.8,1.3-1.5,2.1-2.1c0.9-0.6,1.9-1,2.9-1.2
	c1.1-0.2,2.2-0.3,3.3-0.3c1.7,0,3.3,0.1,4.7,0.4s2.7,0.8,3.8,1.5s1.9,1.6,2.6,2.8c0.6,1.2,1,2.7,1.2,4.5V79H139v-0.5
	c0-3.8-0.7-7-2.2-9.7c-1.4-2.7-3.4-4.9-5.9-6.6s-5.3-2.9-8.4-3.7c-3.1-0.8-6.4-1.1-9.8-1.1c-2.9,0-5.9,0.4-8.8,1.2
	c-2.9,0.8-5.6,2-7.9,3.7c-2.3,1.6-4.3,3.7-5.7,6.2c-1.5,2.5-2.2,5.5-2.2,8.8c0,3,0.6,5.6,1.7,7.7c1.1,2.1,2.7,3.9,4.5,5.3
	s4,2.6,6.3,3.4c2.3,0.9,4.7,1.6,7.1,2.2c2.3,0.7,4.7,1.3,7,1.8s4.3,1.2,6.1,1.9c1.7,0.7,3.1,1.6,4.2,2.6c1,1,1.5,2.2,1.5,3.8
	c0,1.5-0.4,2.7-1.1,3.7c-0.8,1-1.8,1.8-3,2.3c-1.2,0.6-2.5,1-3.9,1.2s-2.7,0.3-4,0.3c-1.8,0-3.6-0.2-5.3-0.7c-1.7-0.4-3.2-1.1-4.4-2
	s-2.2-2-3-3.4c-0.7-1.4-1.1-3.2-1.1-5.2v-0.5H85.9v0.5c-0.1,4,0.7,7.5,2.2,10.5c1.5,2.9,3.6,5.4,6.3,7.3c2.6,1.9,5.6,3.3,9,4.2
	c3.4,0.9,6.9,1.3,10.5,1.3c4.4,0,8.4-0.5,11.8-1.5c3.4-1,6.3-2.5,8.6-4.3c2.3-1.9,4.1-4.1,5.3-6.7s1.8-5.4,1.8-8.4
	c0-3.7-0.8-6.7-2.4-9.1C137.1,92.8,135.2,90.9,133.1,89.5z"/>
<path class="st1" d="M237.6,58.8h-15.3l-25.2,65.8h15.8l5.1-14.4h23.4l4.9,14.4h15.9L237.6,58.8z M222,98.5l7.8-21.8l7.5,21.8H222z"
	/>
<polygon class="st1" points="311.8,58.8 297,85.5 282.1,58.8 281.4,58.8 265.7,58.8 265,58.8 265,124.4 281.4,124.4 281.4,89.6 
	297.1,114.3 311.8,88.1 311.8,124.4 328.2,124.4 328.2,58.8 "/>
<path class="st1" d="M198.7,81.1c0-17.4-15.8-22.1-18.8-22.1c-2.5,0-15.7,0-19.3,0h-0.9h-14.1v64.7h15v-20.5c1.8,0,5.9,0,9.9,0
	l9,20.5h16.8l-9.9-22.5C191.9,98.5,198.7,92.6,198.7,81.1z M174.2,89.5c-2.4,0-10.7,0-13.5,0V72.9c2.8,0,11.1,0,13.5,0
	c2.9,0,8.8,0.5,8.8,8.3C183,88.9,177.1,89.5,174.2,89.5z"/>
<path class="st6" d="M384.2,81.9c-1-1.1-2.2-2-3.6-2.6s-3-0.9-4.8-0.9c-1.8,0-3.4,0.3-4.8,0.9s-2.6,1.5-3.6,2.6s-1.7,2.4-2.2,3.9
	s-0.8,3.1-0.8,4.8c0,1.7,0.3,3.3,0.8,4.7c0.5,1.5,1.3,2.7,2.2,3.8c1,1.1,2.2,1.9,3.6,2.6c1.4,0.6,3,0.9,4.8,0.9
	c1.8,0,3.4-0.3,4.8-0.9s2.6-1.5,3.6-2.6s1.7-2.4,2.2-3.8c0.5-1.5,0.8-3,0.8-4.7s-0.3-3.3-0.8-4.8C386,84.3,385.2,83,384.2,81.9z
	 M378.6,97.2c-0.7,0.4-1.6,0.6-2.7,0.6s-2-0.2-2.7-0.6c-0.7-0.4-1.3-1-1.8-1.6c-0.5-0.7-0.8-1.5-1-2.3c-0.2-0.9-0.3-1.8-0.3-2.7
	c0-0.9,0.1-1.9,0.3-2.8c0.2-0.9,0.5-1.7,1-2.4c0.5-0.7,1.1-1.2,1.8-1.6c0.7-0.4,1.6-0.6,2.7-0.6s2,0.2,2.7,0.6
	c0.7,0.4,1.3,1,1.8,1.6c0.5,0.7,0.8,1.5,1,2.4c0.2,0.9,0.3,1.8,0.3,2.8c0,0.9-0.1,1.8-0.3,2.7c-0.2,0.9-0.5,1.6-1,2.3
	C379.9,96.3,379.3,96.8,378.6,97.2z"/>
<path class="st6" d="M405.2,89.9c-0.8-0.5-1.6-0.9-2.3-1.1c-0.8-0.2-1.4-0.4-1.8-0.5c-1.5-0.4-2.6-0.7-3.5-0.9
	c-0.9-0.2-1.6-0.5-2.1-0.7s-0.8-0.5-0.9-0.7c-0.2-0.2-0.2-0.6-0.2-1c0-0.5,0.1-0.8,0.3-1.1c0.2-0.3,0.5-0.5,0.8-0.7s0.7-0.3,1.1-0.4
	s0.8-0.1,1.2-0.1c0.6,0,1.2,0.1,1.7,0.2s1,0.3,1.3,0.5c0.4,0.2,0.7,0.6,0.9,1c0.2,0.4,0.4,1,0.4,1.6v0.2h5.3V86
	c0-1.3-0.3-2.5-0.8-3.5s-1.2-1.7-2.1-2.4c-0.9-0.6-1.9-1.1-3-1.3c-1.1-0.3-2.3-0.4-3.5-0.4c-1,0-2.1,0.1-3.2,0.4
	c-1.1,0.3-2,0.7-2.8,1.3c-0.8,0.6-1.5,1.3-2,2.2c-0.5,0.9-0.8,2-0.8,3.2c0,1.1,0.2,2,0.6,2.8c0.4,0.8,1,1.4,1.6,1.9
	c0.7,0.5,1.4,0.9,2.2,1.2c0.8,0.3,1.7,0.6,2.5,0.8c0.8,0.2,1.7,0.4,2.5,0.6c0.8,0.2,1.5,0.4,2.2,0.7c0.6,0.2,1.1,0.6,1.5,0.9
	c0.4,0.4,0.5,0.8,0.5,1.4c0,0.5-0.1,1-0.4,1.3c-0.3,0.4-0.6,0.6-1.1,0.8c-0.4,0.2-0.9,0.3-1.4,0.4s-1,0.1-1.4,0.1
	c-0.6,0-1.3-0.1-1.9-0.2c-0.6-0.2-1.1-0.4-1.6-0.7c-0.4-0.3-0.8-0.7-1.1-1.2c-0.3-0.5-0.4-1.1-0.4-1.9v-0.2h-5.3v0.2
	c0,1.4,0.2,2.7,0.8,3.7c0.5,1,1.3,1.9,2.2,2.6c0.9,0.7,2,1.2,3.2,1.5c1.2,0.3,2.5,0.5,3.8,0.5c1.6,0,3-0.2,4.2-0.6
	c1.2-0.4,2.2-0.9,3.1-1.6c0.8-0.7,1.5-1.5,1.9-2.4s0.6-1.9,0.6-3c0-1.3-0.3-2.4-0.9-3.3C406.7,91.1,406,90.4,405.2,89.9z"/>
<path class="st6" d="M442.6,78.9h-5.5l-9,23.5h5.6l1.8-5.2h8.5l1.8,5.2h5.7L442.6,78.9z M437.1,93.1l2.8-7.8l2.7,7.8H437.1z"/>
<polygon class="st6" points="469.2,78.9 463.9,88.5 458.6,78.9 458.3,78.9 452.7,78.9 452.4,78.9 452.4,102.4 458.3,102.4 
	458.3,89.9 463.9,98.8 469.2,89.4 469.2,102.4 475.1,102.4 475.1,78.9 "/>
<path class="st6" d="M428.7,86.9c0-6.2-5.7-7.9-6.7-7.9c-0.9,0-5.6,0-6.9,0h-0.3h-5v23.2h5.4v-7.3c0.6,0,2.1,0,3.5,0l3.2,7.3h6
	l-3.5-8.1C426.3,93.1,428.7,91,428.7,86.9z M419.9,89.9c-0.9,0-3.8,0-4.8,0V84c1,0,4,0,4.8,0c1.1,0,3.2,0.2,3.2,3
	C423.1,89.7,421,89.9,419.9,89.9z"/>
</svg>
