<?xml version="1.0" encoding="utf-8"?>
<!-- Generator: Adobe Illustrator 15.0.0, SVG Export Plug-In . SVG Version: 6.00 Build 0)  -->
<!DOCTYPE svg PUBLIC "-//W3C//DTD SVG 1.1//EN" "http://www.w3.org/Graphics/SVG/1.1/DTD/svg11.dtd">
<svg version="1.1" id="Calque_1" xmlns="http://www.w3.org/2000/svg" xmlns:xlink="http://www.w3.org/1999/xlink" x="0px" y="0px"
	 width="500px" height="500px" viewBox="0 0 500 500" enable-background="new 0 0 500 500" xml:space="preserve">
<g>
	<g>
		<circle fill="#0D0909" cx="84.241" cy="252.056" r="70.306"/>
		<path fill="#FFFFFF" d="M52.884,207.915v14.779H38.544c-5.453,8.468-8.629,18.542-8.629,29.361
			c0,12.123,3.974,23.316,10.687,32.355h12.281v11.996v2.784l1.307-1.879l30.975-44.582L52.884,207.915z"/>
		<path fill="#FFFFFF" d="M117.446,207.915l-0.001,14.779h14.341c5.453,8.468,8.63,18.542,8.63,29.361
			c0,12.123-3.975,23.316-10.687,32.355h-12.284l0.001,11.996v2.784l-1.307-1.879L85.165,252.73L117.446,207.915z"/>
		<path fill="#E32120" d="M84.242,228.887c12.775,0,23.17,10.394,23.17,23.169c0,12.776-10.395,23.172-23.17,23.172
			c-12.776,0-23.171-10.396-23.171-23.172C61.071,239.28,71.466,228.887,84.242,228.887 M84.242,218.101
			c-18.752,0-33.956,15.203-33.956,33.955c0,18.753,15.204,33.956,33.956,33.956c18.751,0,33.955-15.203,33.955-33.956
			C118.197,233.304,102.993,218.101,84.242,218.101L84.242,218.101z"/>
	</g>
	<g>
		<polygon fill="#0D0909" points="436.023,181.918 421.735,226.554 407.444,181.918 358.888,181.918 399.733,316.966 
			402.768,316.966 440.702,316.966 443.737,316.966 484.579,181.918 		"/>
		<path fill="#0D0909" d="M212.207,181.918H163.65v0.001h-55.511c22.461,7.651,40.072,25.77,46.999,48.556h8.512v86.491h48.557
			v-86.491h17.071v-48.556L212.207,181.918L212.207,181.918z"/>
		<polygon fill="#0D0909" points="314.884,181.936 285.88,264.869 333.346,264.869 348.141,316.983 393.346,316.983 
			352.503,181.936 		"/>
		<polygon fill="#0D0909" points="279.984,273.929 279.984,181.918 231.427,181.918 231.427,316.966 267.661,316.966 
			267.656,316.983 313.62,316.983 330.904,273.974 		"/>
	</g>
</g>
</svg>
