<?xml version="1.0" encoding="utf-8"?>
<!-- Generator: Adobe Illustrator 21.0.2, SVG Export Plug-In . SVG Version: 6.00 Build 0)  -->
<svg version="1.1" id="Calque_1" xmlns="http://www.w3.org/2000/svg" xmlns:xlink="http://www.w3.org/1999/xlink" x="0px" y="0px"
	 viewBox="0 0 500 182" style="enable-background:new 0 0 500 182;" xml:space="preserve">
<style type="text/css">
	.st0{fill:#0D0909;}
	.st1{fill:#FFFFFF;}
	.st2{fill:#E32120;}
</style>
<circle class="st0" cx="84.2" cy="93" r="70.3"/>
<path class="st1" d="M52.9,48.9v14.8H38.6C33.1,72.2,30,82.2,30,93.1c0,12.1,4,23.3,10.7,32.4H53v12v2.8l1.3-1.9l31-44.6L52.9,48.9z
	"/>
<path class="st1" d="M117.4,48.9v14.8h14.3c5.5,8.5,8.6,18.5,8.6,29.4c0,12.1-4,23.3-10.7,32.4h-12.3v12v2.8l-1.3-1.9L85,93.8
	L117.4,48.9z"/>
<path class="st2" d="M84.2,69.9c12.8,0,23.2,10.4,23.2,23.2c0,12.8-10.4,23.2-23.2,23.2c-12.8,0-23.2-10.4-23.2-23.2
	S71.5,69.9,84.2,69.9 M84.2,59.1c-18.8,0-34,15.2-34,34s15.2,34,34,34s34-15.2,34-34C118.2,74.3,103,59.1,84.2,59.1L84.2,59.1z"/>
<polygon class="st0" points="436,22.9 421.7,67.5 407.4,22.9 358.9,22.9 399.7,158 402.8,158 440.7,158 443.7,158 484.6,22.9 "/>
<path class="st0" d="M212.2,22.9h-48.6l0,0h-55.5c22.5,7.7,40.1,25.8,47,48.6h8.5V158h48.6V71.5h17.1V22.9H212.2L212.2,22.9z"/>
<polygon class="st0" points="314.9,22.9 285.9,105.9 333.3,105.9 348.1,158 393.3,158 352.5,22.9 "/>
<polygon class="st0" points="280,114.9 280,22.9 231.4,22.9 231.4,158 267.7,158 267.7,158 313.6,158 330.9,115 "/>
</svg>
