<?xml version="1.0" encoding="utf-8"?>
<!-- Generator: Adobe Illustrator 21.0.2, SVG Export Plug-In . SVG Version: 6.00 Build 0)  -->
<svg version="1.1" id="Calque_1" xmlns="http://www.w3.org/2000/svg" xmlns:xlink="http://www.w3.org/1999/xlink" x="0px" y="0px"
	 viewBox="0 0 500 192" style="enable-background:new 0 0 500 192;" xml:space="preserve">
<style type="text/css">
	.st0{fill:#020202;}
	.st1{fill:#3F6E91;}
</style>
<path class="st0" d="M64.5,34.7H41.2c-8,0-14.4,6.4-14.4,14.3v93.4c0,7.9,6.5,14.3,14.4,14.3h23.3c8,0,14.4-6.4,14.4-14.3V49
	C78.9,41.1,72.5,34.7,64.5,34.7z M57.5,138.2c0,2.8-2,5.1-4.5,5.1s-4.5-2.3-4.5-5.1v-84c0-2.8,2-5.1,4.5-5.1s4.5,2.3,4.5,5.1V138.2z
	"/>
<path class="st0" d="M400.3,34.7H377c-8,0-14.4,6.4-14.4,14.3v93.4c0,7.9,6.5,14.3,14.4,14.3h23.3c8,0,14.4-6.4,14.4-14.3V49
	C414.7,41.1,408.2,34.7,400.3,34.7z M393.3,138.2c0,2.8-2,5.1-4.5,5.1s-4.5-2.3-4.5-5.1v-84c0-2.8,2-5.1,4.5-5.1s4.5,2.3,4.5,5.1
	V138.2z"/>
<path class="st0" d="M173.6,138.2c0,2.8-2,5.1-4.5,5.1s-4.5-2.3-4.5-5.1v-41h30.5V48.9c0-7.9-6.5-14.3-14.4-14.3h-23.3
	c-8,0-14.4,6.4-14.4,14.3v93.4c0,7.9,6.5,14.3,14.4,14.3h23.3c8,0,14.4-6.4,14.4-14.3v-36.8h-21.4v32.7H173.6z M164.5,54.2
	c0-2.8,2-5.1,4.5-5.1s4.5,2.3,4.5,5.1V82h-9.1V54.2H164.5z"/>
<path class="st0" d="M288.7,52.4h6.8V36h-6.8V16.3H267V36h-4.4v16.4h4.4c0,0,0,59.9,0,82.6s8.7,21.4,13.2,21.4s15,0,15,0v-15.5
	c-4.7,0-6.6-1.5-6.6-4.3l0,0V52.4H288.7z"/>
<path class="st0" d="M339.3,34.7h-5c-1.5,0-7.4,3.1-11,6.1v-5.1h-21.9v121.1h21.9V54.2c0-2.8,2-5.1,4.5-5.1s4.5,2.3,4.5,5.1v43.3
	h21.4V48.9C353.7,41.1,347.3,34.7,339.3,34.7z"/>
<path class="st0" d="M241.8,34.7h-5c-1.5,0-7.4,3.1-11,6.1v-5.1h-21.9v121.1h21.9V54.2c0-2.8,2-5.1,4.5-5.1s4.5,2.3,4.5,5.1v102.9
	h21.4V49C256.2,41.1,249.8,34.7,241.8,34.7z"/>
<path class="st0" d="M462.4,34.7h-5c-1.5,0-7.4,3.1-11,6.1v-5.1h-21.9v121.1h21.9v-26.6c2.3,3.7,6.2,6.1,10.5,6.1h6.7
	c7.2,0,13-6.5,13-14.4V97.6h0.3V49C476.9,41.1,470.4,34.7,462.4,34.7z M455.4,115.7c0,2.8-2,5.1-4.5,5.1s-4.5-2.3-4.5-5.1V56.9
	c0-2.8,2-5.1,4.5-5.1s4.5,2.3,4.5,5.1V115.7z"/>
<polygon class="st0" points="117.4,34.7 111.4,126.2 105.4,34.7 84,34.7 97,156.7 109.4,156.7 113.4,156.7 125.9,156.7 138.8,34.7 
	"/>
<rect x="24.1" y="171.1" class="st1" width="454.6" height="7.5"/>
</svg>
