<?xml version="1.0" encoding="utf-8"?>
<!-- Generator: Adobe Illustrator 15.0.0, SVG Export Plug-In . SVG Version: 6.00 Build 0)  -->
<!DOCTYPE svg PUBLIC "-//W3C//DTD SVG 1.1//EN" "http://www.w3.org/Graphics/SVG/1.1/DTD/svg11.dtd">
<svg version="1.1" id="Calque_1" xmlns="http://www.w3.org/2000/svg" xmlns:xlink="http://www.w3.org/1999/xlink" x="0px" y="0px"
	 width="500px" height="500px" viewBox="0 0 500 500" enable-background="new 0 0 500 500" xml:space="preserve">
<g>
	<path fill="#020202" d="M64.496,188.72H41.229c-7.976,0-14.441,6.382-14.441,14.254v93.443c0,7.871,6.465,14.253,14.441,14.253
		h23.267c7.976,0,14.441-6.382,14.441-14.253v-93.443C78.937,195.102,72.472,188.72,64.496,188.72z M57.542,292.217
		c0,2.807-2.036,5.082-4.547,5.082s-4.547-2.275-4.547-5.082v-83.974c0-2.807,2.036-5.082,4.547-5.082s4.547,2.275,4.547,5.082
		V292.217z"/>
	<path fill="#020202" d="M400.261,188.72h-23.268c-7.976,0-14.441,6.382-14.441,14.254v93.443c0,7.871,6.466,14.253,14.441,14.253
		h23.268c7.976,0,14.441-6.382,14.441-14.253v-93.443C414.702,195.102,408.237,188.72,400.261,188.72z M393.307,292.217
		c0,2.807-2.035,5.082-4.547,5.082c-2.511,0-4.546-2.275-4.546-5.082v-83.974c0-2.807,2.035-5.082,4.546-5.082
		c2.512,0,4.547,2.275,4.547,5.082V292.217z"/>
	<path fill="#020202" d="M173.609,292.217c0,2.807-2.036,5.082-4.546,5.082c-2.511,0-4.547-2.275-4.547-5.082v-40.956l30.488,0.039
		v-48.326c0-7.872-6.465-14.254-14.441-14.254h-23.267c-7.976,0-14.442,6.382-14.442,14.254v93.443
		c0,7.871,6.466,14.253,14.442,14.253h23.267c7.976,0,14.441-6.382,14.441-14.253v-36.826h-21.395V292.217z M164.516,208.243
		c0-2.807,2.036-5.082,4.547-5.082c2.511,0,4.546,2.275,4.546,5.082v27.813h-9.093V208.243z"/>
	<path fill="#020202" d="M288.74,206.37h6.819v-16.447h-6.819v-19.656h-21.662v19.656h-4.413v16.447h4.413c0,0,0,59.872,0,82.638
		s8.691,21.396,13.238,21.396s14.977,0,14.977,0v-15.512c-4.745,0-6.561-1.514-6.561-4.279h0.008V206.37z"/>
	<path fill="#020202" d="M339.285,188.72h-5.015c-1.468,0-7.447,3.052-11.031,6.134v-5.131h-21.863v121.148h21.863V208.225
		c0.009-2.798,2.04-5.064,4.546-5.064c2.511,0,4.547,2.275,4.547,5.082v43.325h21.395v-48.594
		C353.727,195.102,347.262,188.72,339.285,188.72z"/>
	<path fill="#020202" d="M241.805,188.72h-5.015c-1.468,0-7.448,3.052-11.032,6.134v-5.131h-21.863v121.148h21.863V208.225
		c0.009-2.798,2.041-5.064,4.546-5.064c2.511,0,4.547,2.275,4.547,5.082v102.829h21.395V202.974
		C256.246,195.102,249.781,188.72,241.805,188.72z"/>
	<path fill="#020202" d="M462.44,188.72h-5.015c-1.468,0-7.448,3.052-11.031,6.134v-5.131h-21.863v121.148h21.863V284.27
		c2.349,3.673,6.192,6.076,10.547,6.076h6.718c7.155,0,12.955-6.467,12.955-14.441v-24.337h0.268v-48.594
		C476.881,195.102,470.415,188.72,462.44,188.72z M455.352,269.753c0,2.806-2.035,5.081-4.547,5.081
		c-2.511,0-4.546-2.275-4.546-5.081v-58.836c0-2.807,2.035-5.082,4.546-5.082c2.512,0,4.547,2.275,4.547,5.082V269.753z"/>
	<polygon fill="#020202" points="117.448,188.72 111.43,280.183 105.413,188.72 84.018,188.72 96.989,310.67 109.425,310.67 
		113.436,310.67 125.872,310.67 138.843,188.72 	"/>
	<rect x="24.113" y="325.111" fill="#3F6E91" width="454.64" height="7.488"/>
</g>
</svg>
