<?xml version="1.0" encoding="utf-8"?>
<!-- Generator: Adobe Illustrator 19.1.0, SVG Export Plug-In . SVG Version: 6.00 Build 0)  -->
<svg version="1.1" id="Calque_1" xmlns="http://www.w3.org/2000/svg" xmlns:xlink="http://www.w3.org/1999/xlink" x="0px" y="0px"
	 viewBox="-345 170.9 500 500" style="enable-background:new -345 170.9 500 500;" xml:space="preserve">
<style type="text/css">
	.st0{fill:#0D0909;}
	.st1{fill:#FFFFFF;}
	.st2{fill:#989998;}
</style>
<polygon class="st0" points="64.7,591 -333,591 -333,225.2 124.6,225.2 124.6,535.4 "/>
<path class="st1" d="M-105.5,262.5c-10.3-1.1-44.4-2-68.5,0.3s-75.3,3.2-80.2,0c-4.9,3.4-7.2,9.4-7.7,12.5c-0.6,3.2,1,4.8,4.7,4.8
	c3.7,0,18.6-0.7,23.3-0.4c4.7,0.3,9.8,2.5,9.8,2.5l-70.7,173h32.5l31.3-74.9c0,0,11.2-2.4,25.5-1.5c14.3,0.9,37.2,2.9,44.1,2.9
	s36.7,2,45.3-21.8c8.6-23.8,8-23.8,12.3-31.8s20.3-46.4,20.6-56.1C-84,267.3-95.2,263.6-105.5,262.5z M-149.9,362.7h-74.5l35.8-82.2
	h71.3L-149.9,362.7z"/>
<path class="st1" d="M-30.4,281.8l-70.7,173.8h32.5l31.3-74.9c0,0,21.5-3.3,39.2-0.2c17.8,3.2,33.9,5.4,38.1-1
	c4.2-6.4,10.5-16.5,10.5-16.5h-81.2c0,0,30.5-78.4,35.7-82.9c7.7,0,72.6,0,72.6,0l17.3-16.8c0,0-25.8-4.5-52.4-2.6
	C16,262.7-7,263.6-15.5,264c-8.6,0.4-41.2,0.6-45.5-1.1c-6.1,6.3-9,15.3-7.1,16.8c1.9,1.5,14.7,0,20.5,0.1
	C-41.7,279.9-32.5,280.3-30.4,281.8z"/>
<path class="st1" d="M-165.7,513.2c0-1.8-0.1-3.2-0.3-4.6h4l0,2.8h0.2c1.9-1.6,8.7-3.2,14.9-3.2c5.2,0,13.4,1.4,13.4,7.3v10.2h-4.3
	v-9.9c0-2.8-4.9-5.1-11.4-5.1c-4.4,0-10.4,1.5-11.7,3.2c-0.3,0.4-0.5,0.9-0.5,1.5v10.3h-4.4V513.2z"/>
<path class="st1" d="M-51.4,503.1v5h9.2v1.6h-9.2V520c0,4.9,2.8,4.4,4.5,4.4c0.8,0,5.4,0,5.4,0l0,1.7c0,0-8.4,0.1-9.6,0.1
	c-1.5,0-2.6-0.5-3.4-1.3c-0.8-1-1.2-2.5-1.2-4.6v-10.4h-7.2v-1.6h7.2v-5L-51.4,503.1z"/>
<path class="st1" d="M-72.7,503.1v5h9.2v1.6h-9.2V520c0,4.9,2.8,4.4,4.5,4.4c0.8,0,5.4,0,5.4,0l0,1.7c0,0-8.4,0.1-9.6,0.1
	c-1.5,0-2.6-0.5-3.4-1.3c-0.8-1-1.2-2.5-1.2-4.6v-10.4h-7.2v-1.6h7.2v-5L-72.7,503.1z"/>
<path class="st1" d="M-33.5,517.4c0.2,4.4,8,7.1,15.3,7.1c5.2,0,9.5-1.8,11-4.9l4.2,0.1c-0.9,3.5-7.2,6.3-15.7,6.3
	c-14.8,0-19.6-3.6-19.6-9c0-5.4,7.1-9.5,18.7-9.5c13.1,0,16.5,5.1,16.5,8.3c0,0.7-0.1,1.1-0.2,1.5L-33.5,517.4L-33.5,517.4z
	 M-7.9,515.8c0.1-2.4-2.3-6.3-12.3-6.3c-9.1,0-12.9,3.6-13.6,6.3H-7.9z"/>
<path class="st1" d="M-118.9,517.4c0.2,4.4,8,7.1,15.3,7.1c5.2,0,9.5-1.8,11-4.9l4.2,0.1c-0.9,3.5-7.2,6.3-15.7,6.3
	c-14.8,0-19.6-3.6-19.6-9c0-5.4,7.1-9.5,18.7-9.5c13.1,0,16.5,5.1,16.5,8.3c0,0.7-0.1,1.1-0.3,1.5L-118.9,517.4L-118.9,517.4z
	 M-93.2,515.8c0.1-2.4-2.3-6.3-12.3-6.3c-9.1,0-12.9,3.6-13.6,6.3H-93.2z"/>
<path class="st1" d="M50.4,517.4c0.2,4.4,8,7.1,15.3,7.1c5.2,0,9.5-1.8,11-4.9l4.2,0.1c-0.9,3.5-7.2,6.3-15.7,6.3
	c-14.8,0-19.6-3.6-19.6-9c0-5.4,7.1-9.5,18.7-9.5c13.1,0,16.5,5.1,16.5,8.3c0,0.7-0.1,1.1-0.2,1.5L50.4,517.4L50.4,517.4z
	 M76.1,515.8c0.1-2.4-2.3-6.3-12.3-6.3c-9.1,0-12.9,3.6-13.6,6.3H76.1z"/>
<path class="st1" d="M-295.4,513.9c0-2-0.1-3.7-0.3-5.3h2.6l0,3.4h0.3c1.9-2.3,10.7-3.8,15.7-3.8c0.8,0,1.4,0,2,0.1v2.9
	c-0.8-0.1-1.5-0.1-2.5-0.1c-5.3,0-13.2,1.6-14.3,4c-0.2,0.4-0.2,1-0.2,1.4v9.1h-3.2C-295.4,525.7-295.4,513.9-295.4,513.9z"/>
<path class="st1" d="M6.3,513.9c0-2-0.1-3.7-0.3-5.3h2.6l0,3.4h0.3c1.9-2.3,10.7-3.8,15.7-3.8c0.8,0,1.4,0,2,0.1v2.9
	c-0.8-0.1-1.5-0.1-2.5-0.1c-5.3,0-13.2,1.6-14.3,4c-0.2,0.4-0.2,1-0.2,1.4v9.1H6.3L6.3,513.9L6.3,513.9z"/>
<rect x="31.6" y="508.6" class="st1" width="4.1" height="17.1"/>
<rect x="31.6" y="501.8" class="st1" width="4.1" height="4"/>
<rect x="-180.4" y="508.6" class="st1" width="4.1" height="17.1"/>
<rect x="-180.4" y="501.8" class="st1" width="4.1" height="4"/>
<path class="st1" d="M-203.4,508.1h-7.8c-4.1,0-7.8,1.3-10.2,3.2V502h-4.1v23.7h4.1v-2.9c2.4,2,6.1,3.2,10.2,3.2h7.8
	c7.4,0,13.3-4,13.3-9C-190.1,512.1-196.1,508.1-203.4,508.1z M-205.2,524.5h-5.9c-5.6,0-10.1-3.3-10.1-7.4s4.5-7.4,10.1-7.4h5.9
	c5.6,0,10.1,3.3,10.1,7.4C-195.1,521.2-199.6,524.5-205.2,524.5z"/>
<path class="st1" d="M-249.4,508.1h-8.4c-7.9,0-14.3,4-14.3,9c0,5,6.4,9,14.3,9h8.4c7.9,0,14.3-4,14.3-9
	C-235.1,512.1-241.5,508.1-249.4,508.1z M-251.3,524.5h-6.4c-6,0-10.9-3.3-10.9-7.4s4.9-7.4,10.9-7.4h6.4c6,0,10.9,3.3,10.9,7.4
	C-240.4,521.2-245.3,524.5-251.3,524.5z"/>
<rect x="-297.1" y="535" class="st1" width="375.9" height="3.1"/>
<path class="st2" d="M-275.7,546.3c-4.4,0-8.4,0.1-12.4,0.4l-1.3,0.1l-8.2,21.6h9.2l3.1-8.1c8.1,0.4,15.5-0.5,20.3-2.4
	c3.2-1.2,5.2-2.8,6-4.9c0.7-1.9-0.3-3.6-2.9-4.8C-264.6,547-269.2,546.3-275.7,546.3z M-280.3,556.9c-1.5,0-2.7,0-3.6-0.1l2.7-7
	c1-0.1,2.5-0.1,4.4-0.1c4.5,0,9.7,0.6,8.6,3.4C-269.1,555.5-273.5,556.9-280.3,556.9z"/>
<path class="st2" d="M-231.7,564.2l2.2-5.5c1.7-4.3-1.9-6.7-10.4-6.7c-3.9,0-8.2,0.5-11.5,1.4l-1,0.3l0.9,3.1l1.6-0.5
	c2.2-0.6,5.1-1,7.9-1c3.5,0,5,0.8,4.6,2.4c-11.9,0.1-19.5,2.4-21,6.1c-1,2.4,1.7,4.9,8.8,4.9c3.3,0,6.6-0.5,9.2-1.5l-0.2,1.1h7.8
	l0.1-0.7C-232.6,566.8-232.2,565.6-231.7,564.2z M-238.4,560.8l-0.8,1.9c-0.1,0.2-0.3,0.5-0.4,0.7c-1.1,0.9-3.6,2-7.2,2
	c-1.2,0-3.8-0.2-3.1-1.9C-249.2,561.8-245.3,560.9-238.4,560.8z"/>
<path class="st2" d="M-210.6,546.5c-2.3,0-4.4,1-4.9,2.3c-0.4,1.3,0.9,2.3,3.2,2.3c2.4,0,4.5-1,4.9-2.3
	C-206.9,547.5-208.3,546.5-210.6,546.5z"/>
<polygon class="st2" points="-221.4,568.4 -214.4,568.4 -209,552.3 -216,552.3 "/>
<path class="st2" d="M-180.4,552c-3.8,0-7.1,0.8-9.5,1.7l0.4-1.4h-7.3l-0.2,0.7c-0.3,1.1-0.7,2.3-1.4,4l-4.8,11.4h7.8l4-9.5
	c0.2-0.4,0.4-0.8,0.7-1.1c1.2-1.1,3.8-2.3,6.9-2.3c3.7,0,5,1.3,3.9,3.7l-3.8,9.2h7.8l3.9-9.5C-169.6,553.8-175.1,552-180.4,552z"/>
<path class="st2" d="M-151.9,546.5c-2.8,0-5.3,1-5.7,2.3c-0.4,1.3,1.3,2.3,4.1,2.3c2.9,0,5.3-1,5.8-2.3
	C-147.4,547.5-149.2,546.5-151.9,546.5z"/>
<polygon class="st2" points="-163.5,568.4 -155.1,568.4 -149.7,552.3 -158.1,552.3 "/>
<polygon class="st2" points="-125.5,568.4 -115,568.4 -111.9,558.7 -91.3,558.7 -90.1,555 -110.7,555 -108.9,549.2 -86.6,549.2 
	-85.4,545.6 -118.2,545.6 "/>
<path class="st2" d="M-63,551.4c-0.6,0-1.1-0.1-1.7-0.1c-3.2,0-6.4,0.7-8.9,1.8l0.5-1.5h-8.1l-0.2,0.7c-0.3,1.3-0.9,2.8-1.7,4.8
	l-4.6,11.3h8.8l3.6-8.9c0.2-0.4,0.4-0.8,0.7-1.2c1.5-1.9,4.5-3,7.8-3c0.7,0,1.3,0,1.7,0.1l1.7,0.2l1.4-3.5l0.2-0.6L-63,551.4z"/>
<path class="st2" d="M-34.4,564l2.6-5.8c2-4.5-1.7-6.9-10.4-6.9c-4.1,0-8.5,0.5-11.9,1.4l-1.1,0.3l0.8,3.2l1.7-0.5
	c2.3-0.6,5.3-1,8.2-1c3.6,0,5.1,0.8,4.6,2.5c-12.3,0.1-20.2,2.4-22,6.4c-1.1,2.5,1.6,5.1,8.9,5.1c3.4,0,6.8-0.6,9.6-1.5l-0.2,1.2h8
	l0.1-0.8C-35.4,566.7-35,565.4-34.4,564z M-41.2,560.5l-0.9,2c-0.1,0.1-0.2,0.4-0.5,0.7c-1.1,1-3.8,2.1-7.5,2.1
	c-1.2,0-3.9-0.2-3.1-2C-52.4,561.5-48.4,560.5-41.2,560.5z"/>
<path class="st2" d="M-1.8,552.5c-4,0-7.4,0.8-9.9,1.7l0.4-1.4h-7.6l-0.2,0.7c-0.3,1.1-0.6,2.2-1.3,3.8l-4.5,11.1h8.2l3.8-9.3
	c0.2-0.4,0.4-0.8,0.7-1c1.2-1.1,3.9-2.2,7.1-2.2c3.8,0,5.3,1.2,4.3,3.6l-3.6,8.9h8.2l3.7-9.2C9.7,554.2,3.9,552.5-1.8,552.5z"/>
<path class="st2" d="M35.5,556.1c2.4,0,4.4,0.2,5.9,0.6l1.4,0.3l3.4-3.1l-0.9-0.2c-1.5-0.4-4.6-0.8-8.5-0.8
	c-11.1,0-20.2,3.3-22.2,8.1c-1.9,4.7,3.8,7.8,14.3,7.8c4.2,0,8.1-0.5,10.3-0.9l1.1-0.2l-0.3-3.1l-1.7,0.3c-1.8,0.3-3.9,0.6-6.9,0.6
	c-5.9,0-9.1-1.9-7.9-4.7C24.4,558.6,28.1,556.1,35.5,556.1z"/>
<path class="st2" d="M68.4,552.7c-10.4,0-19.1,3.4-21.1,8.3c-2,4.7,4,7.8,15.2,7.8c5.8,0,10-0.5,12.6-1l1.2-0.2l-0.6-3l-1.7,0.3
	c-2,0.3-4.7,0.7-9.2,0.7c-2.9,0-9.2-0.4-8.7-3.7h23.9l0.5-0.5c0.3-0.3,0.6-0.8,0.8-1.3C82.5,556.6,80.1,552.7,68.4,552.7z
	 M66.7,555.7c2.1,0,3.6,0.3,4.6,0.8c1.3,0.7,1.4,1.6,1.3,2.2h-15C58.7,557.6,61.4,555.7,66.7,555.7z"/>
<path class="st0" d="M95.5,594.9c0,0-12.3-1.7-14.1,4.1c-1.8,5.8-2.5,11.3-3.1,13.1c-0.6,1.8-1.6,6.8,2.5,7.1
	c4.1,0.3,7.1-1.4,9.5-0.8c2.5,0.7,4.6,1.4,6.3,1.2c1.7-0.2,6.9-1.5,10.5-9c3.6-7.4,5-9.1,5.6-10.3c0.7-1.2,1.3-6.6-5.3-6.1
	c-3.5,0.1-5.6,1-6,1c-0.4,0,2.4-4.8,5.6-6.7c-0.3-0.9-4.2-1.2-5.3,1.4c-1.1,2.7-1.8,4.4-2.2,5.1c-0.4,0.7-0.8,3.1,2.4,2.5
	s4.3-1,5.6-0.1c1.3,1,0.5,3.4-0.1,4.8c-0.6,1.3-6.7,11.9-9.1,13.6c-3,0.7-15.1,0.6-15.4,0.3c-0.7-2.6,1.6-13.5,2.7-15.4
	c1-1.9,1.6-4.2,9.1-3.6C95,595.5,95.5,594.9,95.5,594.9z"/>
<path class="st0" d="M123.2,562.4c0,0-7.9-1.1-9.1,2.6c-1.2,3.7-1.6,7.2-2,8.4c-0.4,1.2-1,4.3,1.6,4.5c2.6,0.2,4.5-0.9,6.1-0.5
	c1.6,0.4,2.9,0.9,4,0.8c1.1-0.1,4.4-1,6.7-5.7c2.3-4.8,3.2-5.8,3.6-6.6c0.4-0.8,0.9-4.2-3.4-3.9c-2.3,0.1-3.6,0.7-3.9,0.7
	c-0.2,0,1.5-3.1,3.6-4.3c-0.2-0.6-2.7-0.8-3.4,0.9c-0.7,1.7-1.2,2.8-1.4,3.2c-0.2,0.4-0.5,2,1.5,1.6c2-0.4,2.8-0.7,3.6-0.1
	c0.9,0.6,0.3,2.2-0.1,3.1c-0.4,0.9-4.3,7.6-5.8,8.7c-1.9,0.4-9.7,0.4-9.8,0.2c-0.4-1.6,1-8.6,1.7-9.8c0.7-1.2,1-2.7,5.8-2.3
	C122.9,562.8,123.2,562.4,123.2,562.4z"/>
<path class="st0" d="M131.4,590.6c0,0-6.4-0.9-7.4,2.2c-0.9,3-1.3,5.9-1.6,6.8c-0.3,0.9-0.8,3.5,1.3,3.7c2.1,0.1,3.7-0.7,5-0.4
	c1.3,0.3,2.4,0.7,3.3,0.6c0.9-0.1,3.6-0.8,5.5-4.7c1.9-3.9,2.6-4.7,2.9-5.4c0.4-0.6,0.7-3.4-2.7-3.2c-1.8,0-2.9,0.5-3.1,0.5
	s1.2-2.5,2.9-3.5c-0.1-0.5-2.2-0.6-2.8,0.8c-0.6,1.4-0.9,2.3-1.1,2.6c-0.2,0.3-0.4,1.6,1.2,1.3c1.6-0.4,2.2-0.5,2.9,0
	c0.7,0.5,0.2,1.8,0,2.5c-0.3,0.7-3.5,6.2-4.7,7.1c-1.5,0.3-7.9,0.3-8,0.1c-0.3-1.3,0.9-7,1.4-8c0.5-1,0.9-2.2,4.7-1.9
	C131.2,590.9,131.4,590.6,131.4,590.6z"/>
</svg>
