<?xml version="1.0" encoding="utf-8"?>
<!-- Generator: Adobe Illustrator 19.1.0, SVG Export Plug-In . SVG Version: 6.00 Build 0)  -->
<svg version="1.1" id="Calque_1" xmlns="http://www.w3.org/2000/svg" xmlns:xlink="http://www.w3.org/1999/xlink" x="0px" y="0px"
	 viewBox="-345 170.9 500 500" style="enable-background:new -345 170.9 500 500;" xml:space="preserve">
<path d="M-318.7,392.7c3.4-0.8,8.2-1.4,13.2-1.4c5.9,0,11.5,1.5,15,4.7c2.9,2.6,4.4,6.3,4.4,11.1c0,6.8-3.4,12.6-7.3,16
	c-4.7,4-11.6,5.8-18.5,5.8c-2.4,0-4.4-0.2-6.3-0.5l-4.6,24.5h-7.4L-318.7,392.7z M-317,422.1c2.1,0.5,3.9,0.6,6.1,0.6
	c10.3,0,17.2-6.4,17.2-15.1c0-7.3-5.2-10.2-12.1-10.2c-3,0-5.3,0.3-6.6,0.6L-317,422.1z"/>
<path d="M-277.7,433.6l-9.7,19.3h-8l31.6-61.1h8.8l8.5,61.1h-7.7l-2.5-19.3H-277.7z M-257.2,427.6l-2.4-17.7
	c-0.4-3.2-0.8-7.7-1.1-11.2h-0.2c-1.6,3.6-3.2,7.4-5,11.1l-9.2,17.8L-257.2,427.6L-257.2,427.6z"/>
<path d="M-227,391.8h7.5l-10.4,54.6h24.7l-1.3,6.5h-32.1L-227,391.8z"/>
<path d="M-185.1,433.6l-9.7,19.3h-8l31.6-61.1h8.8l8.5,61.1h-7.7l-2.5-19.3H-185.1z M-164.6,427.6l-2.4-17.7
	c-0.4-3.2-0.8-7.7-1.1-11.2h-0.2c-1.6,3.6-3.2,7.4-5,11.1l-9.2,17.8L-164.6,427.6L-164.6,427.6z"/>
<path d="M-146,452.9l11.6-61.1h8.3l14,34.6c2.7,6.9,4.1,11.8,5.4,17l0.2-0.1c0.4-5.5,1-10.6,2.6-19.1l6.2-32.5h7.1l-11.6,61.1h-7.4
	l-14-34.5c-2.9-7.5-4.3-11.8-5.6-17.6l-0.3,0.1c-0.6,5.7-1.6,11.8-3.2,20.1l-6.1,31.9L-146,452.9L-146,452.9z"/>
<path d="M-37.5,452.9l4.4-33c0.8-5.8,2.2-14.8,3.3-20.7h-0.3c-2.8,6.2-6.3,13.4-9.5,19.7l-18.2,33.6h-5.7l-4.5-32.9
	c-0.9-7.1-1.5-14.1-1.9-20.4h-0.3c-1.3,5.6-3.2,14.9-4.6,20.7l-8.3,33h-7.1l15.9-61.1h9.6l4.8,35c0.6,5.3,1.3,10.8,1.5,15.3h0.3
	c1.9-4.5,4.5-10,7.2-15.1l18.9-35.3h9.9l-7.8,61.1L-37.5,452.9L-37.5,452.9z"/>
<path d="M-5.6,433.6l-9.7,19.3h-8l31.6-61.1h8.8l8.5,61.1H18l-2.5-19.3H-5.6z M14.9,427.6l-2.4-17.7c-0.4-3.2-0.8-7.7-1.1-11.2h-0.2
	c-1.6,3.6-3.2,7.4-5,11.1l-9.2,17.8L14.9,427.6L14.9,427.6z"/>
<path d="M49,398.3H31.1l1.3-6.5h43.3l-1.3,6.5h-18l-10.3,54.6h-7.5L49,398.3z"/>
<path d="M90.1,391.8l-11.6,61.1h-7.5l11.6-61.1L90.1,391.8L90.1,391.8z"/>
<path d="M134.4,450.9c-3.4,1.5-9,2.9-15.9,2.9c-15.4,0-24.8-9.7-24.8-25.3c0-11.5,4.6-22.5,13-29.5c6.3-5.4,14.1-8.2,23.1-8.2
	c6.7,0,11.6,1.7,13.2,2.9l-2.4,6.1c-2.3-1.4-6.6-2.4-12.1-2.4c-6.3,0-12.8,2.4-17.5,6.8c-5.7,5.4-9.3,14-9.3,23.2
	c0,11,5,19.9,18.6,19.9c4.6,0,9.7-0.9,13.1-2.6L134.4,450.9z"/>
</svg>
