<?xml version="1.0" encoding="utf-8"?>
<!-- Generator: Adobe Illustrator 21.0.2, SVG Export Plug-In . SVG Version: 6.00 Build 0)  -->
<svg version="1.1" id="Calque_1" xmlns="http://www.w3.org/2000/svg" xmlns:xlink="http://www.w3.org/1999/xlink" x="0px" y="0px"
	 viewBox="0 0 500 98" style="enable-background:new 0 0 500 98;" xml:space="preserve">
<path d="M26.3,20.8c3.4-0.8,8.2-1.4,13.2-1.4c5.9,0,11.5,1.5,15,4.7c2.9,2.6,4.4,6.3,4.4,11.1c0,6.8-3.4,12.6-7.3,16
	C46.9,55.2,40,57,33.1,57c-2.4,0-4.4-0.2-6.3-0.5L22.2,81h-7.4L26.3,20.8z M28,50.2c2.1,0.5,3.9,0.6,6.1,0.6
	c10.3,0,17.2-6.4,17.2-15.1c0-7.3-5.2-10.2-12.1-10.2c-3,0-5.3,0.3-6.6,0.6L28,50.2z"/>
<path d="M67.3,61.7L57.6,81h-8l31.6-61.1H90L98.5,81h-7.7l-2.5-19.3H67.3z M87.8,55.7L85.4,38c-0.4-3.2-0.8-7.7-1.1-11.2h-0.2
	c-1.6,3.6-3.2,7.4-5,11.1l-9.2,17.8L87.8,55.7L87.8,55.7z"/>
<path d="M118,19.9h7.5l-10.4,54.6h24.7l-1.3,6.5h-32.1L118,19.9z"/>
<path d="M159.9,61.7L150.2,81h-8l31.6-61.1h8.8l8.5,61.1h-7.7l-2.5-19.3H159.9z M180.4,55.7L178,38c-0.4-3.2-0.8-7.7-1.1-11.2h-0.2
	c-1.6,3.6-3.2,7.4-5,11.1l-9.2,17.8L180.4,55.7L180.4,55.7z"/>
<path d="M199,81l11.6-61.1h8.3l14,34.6c2.7,6.9,4.1,11.8,5.4,17l0.2-0.1c0.4-5.5,1-10.6,2.6-19.1l6.2-32.5h7.1l-11.6,61.1h-7.4
	l-14-34.5c-2.9-7.5-4.3-11.8-5.6-17.6l-0.3,0.1c-0.6,5.7-1.6,11.8-3.2,20.1l-6.1,31.9L199,81L199,81z"/>
<path d="M307.5,81l4.4-33c0.8-5.8,2.2-14.8,3.3-20.7h-0.3c-2.8,6.2-6.3,13.4-9.5,19.7l-18.2,33.6h-5.7L277,47.7
	c-0.9-7.1-1.5-14.1-1.9-20.4h-0.3c-1.3,5.6-3.2,14.9-4.6,20.7l-8.3,33h-7.1l15.9-61.1h9.6l4.8,35c0.6,5.3,1.3,10.8,1.5,15.3h0.3
	c1.9-4.5,4.5-10,7.2-15.1L313,19.8h9.9l-7.8,61.1L307.5,81L307.5,81z"/>
<path d="M339.4,61.7L329.7,81h-8l31.6-61.1h8.8l8.5,61.1H363l-2.5-19.3H339.4z M359.9,55.7L357.5,38c-0.4-3.2-0.8-7.7-1.1-11.2h-0.2
	c-1.6,3.6-3.2,7.4-5,11.1L342,55.7L359.9,55.7L359.9,55.7z"/>
<path d="M394,26.4h-17.9l1.3-6.5h43.3l-1.3,6.5h-18L391.1,81h-7.5L394,26.4z"/>
<path d="M435.1,19.9L423.5,81H416l11.6-61.1H435.1L435.1,19.9z"/>
<path d="M479.4,79c-3.4,1.5-9,2.9-15.9,2.9c-15.4,0-24.8-9.7-24.8-25.3c0-11.5,4.6-22.5,13-29.5c6.3-5.4,14.1-8.2,23.1-8.2
	c6.7,0,11.6,1.7,13.2,2.9l-2.4,6.1c-2.3-1.4-6.6-2.4-12.1-2.4c-6.3,0-12.8,2.4-17.5,6.8c-5.7,5.4-9.3,14-9.3,23.2
	c0,11,5,19.9,18.6,19.9c4.6,0,9.7-0.9,13.1-2.6L479.4,79z"/>
</svg>
