<?xml version="1.0" encoding="utf-8"?>
<!-- Generator: Adobe Illustrator 15.0.0, SVG Export Plug-In . SVG Version: 6.00 Build 0)  -->
<!DOCTYPE svg PUBLIC "-//W3C//DTD SVG 1.1//EN" "http://www.w3.org/Graphics/SVG/1.1/DTD/svg11.dtd">
<svg version="1.1" id="Calque_1" xmlns="http://www.w3.org/2000/svg" xmlns:xlink="http://www.w3.org/1999/xlink" x="0px" y="0px"
	 width="500px" height="500px" viewBox="0 0 500 500" enable-background="new 0 0 500 500" xml:space="preserve">
<path d="M26.264,221.781c3.354-0.814,8.25-1.356,13.237-1.356c5.894,0,11.516,1.452,14.961,4.713
	c2.901,2.632,4.443,6.255,4.443,11.062c0,6.8-3.356,12.603-7.344,15.957c-4.715,3.991-11.606,5.803-18.498,5.803
	c-2.356,0-4.352-0.18-6.256-0.452l-4.624,24.482h-7.434L26.264,221.781z M27.986,251.162c2.086,0.452,3.9,0.632,6.075,0.632
	c10.337,0,17.227-6.435,17.227-15.05c0-7.342-5.167-10.244-12.148-10.244c-2.994,0-5.26,0.27-6.621,0.632L27.986,251.162z"/>
<path d="M67.335,262.678l-9.701,19.312h-7.979l31.643-61.112h8.794l8.523,61.112H90.91l-2.54-19.312H67.335z M87.828,256.692
	l-2.358-17.682c-0.363-3.174-0.818-7.707-1.089-11.241h-0.181c-1.632,3.623-3.173,7.435-4.987,11.148l-9.157,17.774H87.828z"/>
<path d="M118.018,220.877h7.525l-10.426,54.585h24.662l-1.27,6.527h-32.097L118.018,220.877z"/>
<path d="M159.905,262.678l-9.703,19.312h-7.98l31.644-61.112h8.795l8.523,61.112h-7.706l-2.54-19.312H159.905z M180.396,256.692
	l-2.359-17.682c-0.361-3.174-0.817-7.707-1.088-11.241h-0.182c-1.631,3.623-3.172,7.435-4.985,11.148l-9.16,17.774H180.396z"/>
<path d="M198.981,281.989l11.605-61.112h8.252l13.961,34.636c2.72,6.891,4.081,11.789,5.35,17.047l0.181-0.093
	c0.362-5.527,0.999-10.605,2.63-19.131l6.166-32.459h7.072l-11.605,61.112h-7.435l-13.965-34.546
	c-2.902-7.525-4.262-11.786-5.622-17.589l-0.272,0.09c-0.633,5.713-1.631,11.786-3.173,20.128l-6.074,31.917H198.981z"/>
<path d="M307.507,281.989l4.353-33.004c0.817-5.804,2.177-14.78,3.263-20.673h-0.271c-2.81,6.166-6.255,13.417-9.519,19.676
	l-18.226,33.639h-5.713l-4.533-32.915c-0.904-7.073-1.541-14.145-1.903-20.4h-0.271c-1.271,5.621-3.177,14.87-4.628,20.673
	l-8.338,33.004h-7.073l15.867-61.112h9.608l4.809,34.998c0.633,5.262,1.269,10.789,1.45,15.325h0.272
	c1.903-4.536,4.532-9.974,7.163-15.053l18.859-35.271h9.883l-7.798,61.112H307.507z"/>
<path d="M339.42,262.678l-9.699,19.312h-7.981l31.645-61.112h8.796l8.523,61.112h-7.706l-2.541-19.312H339.42z M359.914,256.692
	l-2.359-17.682c-0.361-3.174-0.817-7.707-1.089-11.241h-0.181c-1.632,3.623-3.173,7.435-4.985,11.148l-9.16,17.774H359.914z"/>
<path d="M394,227.405h-17.859l1.27-6.528h43.341l-1.271,6.528h-17.95l-10.34,54.584h-7.525L394,227.405z"/>
<path d="M435.077,220.877l-11.606,61.112h-7.525l11.607-61.112H435.077z"/>
<path d="M479.412,279.994c-3.442,1.543-8.975,2.902-15.866,2.902c-15.415,0-24.753-9.702-24.753-25.3
	c0-11.513,4.623-22.484,12.966-29.464c6.347-5.351,14.145-8.163,23.12-8.163c6.712,0,11.606,1.722,13.238,2.902l-2.449,6.072
	c-2.266-1.359-6.618-2.443-12.059-2.443c-6.345,0-12.784,2.443-17.499,6.797c-5.712,5.351-9.338,13.962-9.338,23.212
	c0,10.973,4.986,19.948,18.587,19.948c4.626,0,9.701-0.904,13.055-2.631L479.412,279.994z"/>
</svg>
