<?xml version="1.0" encoding="utf-8"?>
<!-- Generator: Adobe Illustrator 21.0.2, SVG Export Plug-In . SVG Version: 6.00 Build 0)  -->
<svg version="1.1" id="Calque_1" xmlns="http://www.w3.org/2000/svg" xmlns:xlink="http://www.w3.org/1999/xlink" x="0px" y="0px"
	 viewBox="0 0 500 194" style="enable-background:new 0 0 500 194;" xml:space="preserve">
<style type="text/css">
	.st0{fill:#296AA8;}
	.st1{fill:#FFFFFF;}
	.st2{fill:url(#SVGID_1_);}
	.st3{fill:url(#SVGID_2_);}
	.st4{fill:url(#SVGID_3_);}
	.st5{fill:url(#SVGID_4_);}
	.st6{fill:url(#SVGID_5_);}
	.st7{fill:url(#SVGID_6_);}
	.st8{fill:url(#SVGID_7_);}
</style>
<rect x="20" y="24.6" class="st0" width="461.6" height="149.4"/>
<rect x="34.6" y="41" class="st1" width="103.7" height="117.2"/>
<linearGradient id="SVGID_1_" gradientUnits="userSpaceOnUse" x1="98.8343" y1="2250.908" x2="131.1308" y2="2194.1765" gradientTransform="matrix(1 0 0 1 0 -2158.3301)">
	<stop  offset="5.600000e-03" style="stop-color:#D3DBE5"/>
	<stop  offset="0.1541" style="stop-color:#BACCDC"/>
	<stop  offset="0.4709" style="stop-color:#78A4C4"/>
	<stop  offset="0.9279" style="stop-color:#11669F"/>
	<stop  offset="1" style="stop-color:#005C99"/>
</linearGradient>
<polygon class="st2" points="89.3,64.5 101.8,52.2 90.1,36.5 134.3,36.3 134.3,101.7 119.6,81.7 100.7,102.1 "/>
<linearGradient id="SVGID_2_" gradientUnits="userSpaceOnUse" x1="38.1" y1="2252.2744" x2="101.5" y2="2252.2744" gradientTransform="matrix(1 0 0 1 0 -2158.3301)">
	<stop  offset="5.600000e-03" style="stop-color:#00548C"/>
	<stop  offset="6.530000e-02" style="stop-color:#0E5D92"/>
	<stop  offset="0.178" style="stop-color:#3374A1"/>
	<stop  offset="0.3318" style="stop-color:#6E9BBA"/>
	<stop  offset="0.5191" style="stop-color:#BFCEDD"/>
	<stop  offset="0.5618" style="stop-color:#D3DBE5"/>
	<stop  offset="0.6492" style="stop-color:#D0D9E4"/>
	<stop  offset="0.712" style="stop-color:#C7D3E0"/>
	<stop  offset="0.7671" style="stop-color:#B7C9D8"/>
	<stop  offset="0.8178" style="stop-color:#A1BACE"/>
	<stop  offset="0.8655" style="stop-color:#84A8C1"/>
	<stop  offset="0.9109" style="stop-color:#6191B2"/>
	<stop  offset="0.9546" style="stop-color:#37759F"/>
	<stop  offset="0.9958" style="stop-color:#075689"/>
	<stop  offset="1" style="stop-color:#025387"/>
</linearGradient>
<path class="st3" d="M101.5,70.7c-0.1-5.4-11.1-7.6-22.4-6c0,0-20.3,2.7-32.5,14.4c-4.8,4.6-8.3,12.1-8.5,19.3l0.2,25.3
	c0,0,6.4-12.2,12.1-15.9c5.7-3.7,48.2-8.8,51.1-7.6L101.5,70.7z"/>
<linearGradient id="SVGID_3_" gradientUnits="userSpaceOnUse" x1="41.446" y1="2251.1152" x2="101.446" y2="2251.1152" gradientTransform="matrix(1 0 0 1 0 -2158.3301)">
	<stop  offset="5.600000e-03" style="stop-color:#00548C"/>
	<stop  offset="6.530000e-02" style="stop-color:#0E5D92"/>
	<stop  offset="0.178" style="stop-color:#3374A1"/>
	<stop  offset="0.3318" style="stop-color:#6E9BBA"/>
	<stop  offset="0.5191" style="stop-color:#BFCEDD"/>
	<stop  offset="0.5618" style="stop-color:#D3DBE5"/>
	<stop  offset="0.6492" style="stop-color:#D0D9E4"/>
	<stop  offset="0.712" style="stop-color:#C7D3E0"/>
	<stop  offset="0.7671" style="stop-color:#B7C9D8"/>
	<stop  offset="0.8178" style="stop-color:#A1BACE"/>
	<stop  offset="0.8655" style="stop-color:#84A8C1"/>
	<stop  offset="0.9109" style="stop-color:#6191B2"/>
	<stop  offset="0.9546" style="stop-color:#37759F"/>
	<stop  offset="0.9958" style="stop-color:#075689"/>
	<stop  offset="1" style="stop-color:#025387"/>
</linearGradient>
<path class="st4" d="M41.6,75.4c0,0,0.1,7.2,10.5,10.8c7.2,2.5,27.2,0.9,33.4-1.9c5.1-2.3,9.2-4.1,13-7.9c2.2-2.2,3.1-4.1,3.1-5.7
	v31.4c0,0-4.5,7.2-15.8,10.7c-12.2,3.8-31.8,3.4-44.2-10.1V75.4z"/>
<linearGradient id="SVGID_4_" gradientUnits="userSpaceOnUse" x1="38.0662" y1="2290.1799" x2="88.83" y2="2290.1799" gradientTransform="matrix(1 0 0 1 0 -2158.3301)">
	<stop  offset="5.600000e-03" style="stop-color:#D3DBE5"/>
	<stop  offset="0.1319" style="stop-color:#B2C6D6"/>
	<stop  offset="0.445" style="stop-color:#6794B5"/>
	<stop  offset="0.7042" style="stop-color:#2F709C"/>
	<stop  offset="0.8962" style="stop-color:#0D598D"/>
	<stop  offset="1" style="stop-color:#005187"/>
</linearGradient>
<path class="st5" d="M38.3,132.1c0,9.5,11.5,15.2,11.5,15.2s0,0,0,22.9c12.3-3,34.4-32.1,39.1-38.7c-28.9-13-39.1-38-39.1-38
	L49.6,116c-8.5-3.5-11.6-10.4-11.4-17.7L38.3,132.1z"/>
<linearGradient id="SVGID_5_" gradientUnits="userSpaceOnUse" x1="41.3748" y1="2217.9299" x2="87.1" y2="2217.9299" gradientTransform="matrix(1 0 0 1 0 -2158.3301)">
	<stop  offset="0" style="stop-color:#DC7E3D"/>
	<stop  offset="0.3393" style="stop-color:#DB7B3D"/>
	<stop  offset="0.5404" style="stop-color:#D9733C"/>
	<stop  offset="0.7055" style="stop-color:#D4653B"/>
	<stop  offset="0.8511" style="stop-color:#CE513A"/>
	<stop  offset="0.9825" style="stop-color:#C53738"/>
	<stop  offset="1" style="stop-color:#C43338"/>
</linearGradient>
<path class="st6" d="M87.1,69.7V36.1c0,0-55.2,19.1-44.3,43.5c0.6,1.4,1.3,2.1,2.3,3.5c11.2-13.3,18-14,18-14L87.1,69.7z"/>
<linearGradient id="SVGID_6_" gradientUnits="userSpaceOnUse" x1="51.1249" y1="2220.2771" x2="116.5212" y2="2296.1455" gradientTransform="matrix(1 0 0 1 0 -2158.3301)">
	<stop  offset="5.600000e-03" style="stop-color:#F4B937"/>
	<stop  offset="7.560000e-02" style="stop-color:#F2B437"/>
	<stop  offset="0.1537" style="stop-color:#EEA737"/>
	<stop  offset="0.2359" style="stop-color:#E69137"/>
	<stop  offset="0.3208" style="stop-color:#DA7138"/>
	<stop  offset="0.407" style="stop-color:#CC4938"/>
	<stop  offset="0.4494" style="stop-color:#C43338"/>
	<stop  offset="0.5976" style="stop-color:#DF8339"/>
	<stop  offset="0.691" style="stop-color:#F1B83A"/>
	<stop  offset="0.7646" style="stop-color:#F0B53A"/>
	<stop  offset="0.814" style="stop-color:#EDAC3A"/>
	<stop  offset="0.8564" style="stop-color:#E89D39"/>
	<stop  offset="0.8947" style="stop-color:#E28839"/>
	<stop  offset="0.9303" style="stop-color:#D96C39"/>
	<stop  offset="0.964" style="stop-color:#CE4A38"/>
	<stop  offset="0.9955" style="stop-color:#C12237"/>
	<stop  offset="1" style="stop-color:#BF1C37"/>
</linearGradient>
<path class="st7" d="M96.7,148.8c-21,2-38.3-27.4-42.9-53.9c-3.1-17.9-1.1-32.6-1.1-32.6c6.3-9.2,28.8-15.2,28.8-15.2
	c-5.9,35.7-1.3,57.2,5.1,72.9c5.8,14.3,12.5,24,19.2,22.3c0,0-1.3,2.9-3.8,4.7C99.3,148.8,96.7,148.8,96.7,148.8"/>
<linearGradient id="SVGID_7_" gradientUnits="userSpaceOnUse" x1="115.4142" y1="2307.335" x2="131.9923" y2="2260.6919" gradientTransform="matrix(1 0 0 1 0 -2158.3301)">
	<stop  offset="5.600000e-03" style="stop-color:#F4B937"/>
	<stop  offset="0.327" style="stop-color:#E48A37"/>
	<stop  offset="1" style="stop-color:#BF1C37"/>
</linearGradient>
<path class="st8" d="M96.7,148.8c0,0,8.9-3.7,11.6-19.4c0,0-1.6-0.1-19.2-0.1c21.5-7.6,37.8-29.4,37.8-29.4l28.8,29.5c0,0,0,0-18,0
	c-3.4,10.3-9.8,17.2-14.6,19.4H96.7L96.7,148.8z"/>
<path class="st1" d="M163.2,116.1h32.4c7.1,0,11.1,1.1,14.6,3.4s5.5,5.1,5.5,8.8c0,4.5-1.1,7.8-4.9,10.3c-3.8,2.5-9.7,3.7-17.6,3.7
	h-11.5v16.1H163L163.2,116.1z M181.7,134.3h5.6c5.7,0,11.4,0.6,11.4-5.1c0-4.9-6.4-4.9-10.6-4.9h-6.4V134.3z"/>
<path class="st1" d="M258,150.3h-24.3l-4,8.1h-15.5l23.6-42.4l18.3,0.1l23.7,42.3h-17.6L258,150.3z M253.9,141.8l-7.7-15.6
	l-8.3,15.6H253.9z"/>
<path class="st1" d="M284.7,116.1h20.6l19.9,24.3v-24.3h14.7v42.4h-16.7l-24.1-29.6v29.6h-14.5L284.7,116.1L284.7,116.1z"/>
<path class="st1" d="M424.8,116.1h18v34.3H469v8.1h-44.2V116.1z"/>
<path class="st1" d="M382.4,115.9c-16.7,0-30.2,9.6-30.2,21.5s13.5,21.5,30.2,21.5c16.7,0,30.2-9.6,30.2-21.5
	S399.1,115.9,382.4,115.9z M382.5,150.7c-6,0-10.8-6-10.8-13.5c0-7.4,4.9-13.5,10.8-13.5c6,0,10.8,6,10.8,13.5
	S388.5,150.7,382.5,150.7z"/>
</svg>
