<?xml version="1.0" encoding="utf-8"?>
<!-- Generator: Adobe Illustrator 19.1.0, SVG Export Plug-In . SVG Version: 6.00 Build 0)  -->
<svg version="1.1" id="Calque_1" xmlns="http://www.w3.org/2000/svg" xmlns:xlink="http://www.w3.org/1999/xlink" x="0px" y="0px"
	 viewBox="-345 170.9 500 500" style="enable-background:new -345 170.9 500 500;" xml:space="preserve">
<style type="text/css">
	.st0{fill:#145900;}
	.st1{fill:#FFFFFF;}
	.st2{fill:#FFE300;}
	.st3{fill:#856B16;}
	.st4{fill:#D9C41D;}
	.st5{fill:#FEE203;}
</style>
<path class="st0" d="M75.5,483.2h-333.6c-34.8,0-63.1-28.3-63.1-63.1c0-34.8,28.3-63.1,63.1-63.1H75.5c34.8,0,63.1,28.3,63.1,63.1
	C138.6,454.9,110.3,483.2,75.5,483.2z"/>
<path class="st1" d="M118.5,420.4c0,24.6-20,44.6-44.6,44.6H58.8c-24.6,0-44.6-20-44.6-44.6l0,0c0-24.6,20-44.6,44.6-44.6h15.1
	C98.5,375.8,118.5,395.8,118.5,420.4L118.5,420.4z"/>
<polygon class="st2" points="66.4,381.1 27,448.9 26.9,449.1 106.3,448.7 106.6,448.7 "/>
<polygon class="st2" points="66.2,425.8 27.6,448.5 66.2,382.1 "/>
<polygon class="st3" points="66.4,426.1 105.7,448.4 27.7,448.8 "/>
<polygon class="st4" points="66.5,425.8 66.5,382 105.9,448.1 "/>
<path class="st5" d="M75.5,483.2h-333.6c-34.8,0-63.1-28.3-63.1-63.1c0-34.8,28.3-63.1,63.1-63.1H75.5c34.8,0,63.1,28.3,63.1,63.1
	C138.6,454.9,110.3,483.2,75.5,483.2z M-258.2,363.3c-31.3,0-56.8,25.5-56.8,56.8c0,31.3,25.5,56.8,56.8,56.8H75.5
	c31.3,0,56.8-25.5,56.8-56.8s-25.5-56.8-56.8-56.8H-258.2z"/>
<path class="st1" d="M-232.2,394.5v-0.2h-9.5v6h3.4l-9.8,23.6h-0.3v0.8l-4.5,10.9h-8.6v6h6.1l7,0.1l4.8-11.9h19.4l2.3,5.8h-2.3v6
	h11.8v-6h-2.5L-232.2,394.5z M-241.3,423.9l7.2-17.9l7.3,17.9H-241.3z"/>
<path class="st1" d="M-249.7,408.4c0-12.8-9-13.6-13.5-13.7l0,0h-23.6v5.7h5.9v35.2h-5.9v6h13.6v-0.1h0v-19.4h8.4v0
	c0.5,0,1.2,0,2.1,0h0v0C-258,422-249.7,420.7-249.7,408.4z M-264.8,416.1L-264.8,416.1l-8.4,0v-15.7h9.5c2.9,0.1,7.8,0.8,7.8,8
	C-255.9,416.8-262.8,416.1-264.8,416.1z"/>
<path class="st1" d="M-79.6,394.7L-79.6,394.7l-23.6,0v5.7h5.9v35.2h-5.9v6h13.6v-0.1h0v-19.4h8.4v0c0.5,0,1.2,0,2.1,0h0v0
	c4.7-0.1,12.9-1.4,12.9-13.7C-66.1,395.6-75.1,394.8-79.6,394.7z M-81.2,416.1L-81.2,416.1l-8.4,0v-15.7h9.5c2.9,0.1,7.8,0.8,7.8,8
	C-72.3,416.8-79.1,416.1-81.2,416.1z"/>
<polygon class="st1" points="-167.2,394.4 -171.3,394.4 -171.3,400.4 -167.2,400.4 -167.2,427.5 -195,394.4 -202.7,394.4 
	-206.7,394.4 -206.7,400.4 -202.7,400.4 -202.7,435.6 -206.7,435.6 -206.7,441.6 -195,441.6 -195,441.3 -195,435.6 -195,408.6 
	-167.2,441.3 -159.5,441.3 -159.5,394.4 -159.5,394.4 "/>
<path class="st1" d="M-130.7,392.9c-13.9,0-25.2,11.3-25.2,25.2c0,13.9,11.3,25.2,25.2,25.2s25.2-11.3,25.2-25.2
	S-116.9,392.9-130.7,392.9z M-130.7,436.7c-10.3,0-18.7-8.4-18.7-18.7s8.4-18.7,18.7-18.7s18.7,8.4,18.7,18.7
	S-120.5,436.7-130.7,436.7z"/>
<polygon class="st1" points="-51.7,400.4 -51.6,400.4 -51.6,394.4 -63.4,394.4 -63.4,400.4 -59.2,400.4 -59.2,435.7 -63.4,435.7 
	-63.4,441.7 -36,441.7 -36,435.7 -51.7,435.7 "/>
<polygon class="st1" points="-10.8,419.9 0.6,400.4 1,400.4 1,399.9 4,394.6 1,394.6 1,394.4 -10.8,394.4 -10.8,400.4 -6.9,400.4 
	-14.2,412.8 -15.2,412.8 -26.4,394.7 -26.4,394.4 -38.1,394.4 -38.1,400.4 -30.4,400.4 -18.3,419.9 -18.3,435.7 -24.2,435.7 
	-24.2,441.7 -10.7,441.7 -10.7,435.7 -10.8,435.7 "/>
<path class="st1" d="M5,436.7L5,436.7c0.8-0.3,1.4-0.9,1.4-1.9c0-0.6-0.2-1.1-0.6-1.4c-0.5-0.4-1.1-0.6-2.1-0.6
	c-0.6,0-1.3,0.1-1.8,0.2v7.3h1v-3.2h0.9c0.9,0,1.3,0.4,1.5,1.4c0.2,0.9,0.4,1.6,0.5,1.8h1c-0.1-0.3-0.3-1-0.6-2
	C5.9,437.5,5.6,436.9,5,436.7z M3.8,436.3h-1v-2.7c0.2,0,0.5-0.1,0.9-0.1c1,0,1.7,0.4,1.7,1.4C5.4,435.8,4.8,436.3,3.8,436.3z"/>
<path class="st1" d="M3.7,430.5c-3.4,0-6.1,2.8-6.1,6.1c0,3.4,2.8,6.1,6.1,6.1c3.4,0,6.1-2.8,6.1-6.1C9.8,433.3,7.1,430.5,3.7,430.5
	z M3.7,441.9c-2.9,0-5.3-2.4-5.3-5.3c0-2.9,2.4-5.3,5.3-5.3s5.3,2.4,5.3,5.3C8.9,439.5,6.6,441.9,3.7,441.9z"/>
</svg>
