<?xml version="1.0" encoding="utf-8"?>
<!-- Generator: Adobe Illustrator 19.1.0, SVG Export Plug-In . SVG Version: 6.00 Build 0)  -->
<svg version="1.1" id="Calque_1" xmlns="http://www.w3.org/2000/svg" xmlns:xlink="http://www.w3.org/1999/xlink" x="0px" y="0px"
	 viewBox="-345 170.9 500 500" style="enable-background:new -345 170.9 500 500;" xml:space="preserve">
<style type="text/css">
	.st0{fill:#296AA8;}
	.st1{fill:#FFFFFF;}
	.st2{fill:url(#SVGID_1_);}
	.st3{fill:url(#SVGID_2_);}
	.st4{fill:url(#SVGID_3_);}
	.st5{fill:url(#SVGID_4_);}
	.st6{fill:url(#SVGID_5_);}
	.st7{fill:url(#SVGID_6_);}
	.st8{fill:url(#SVGID_7_);}
</style>
<rect x="-325" y="348.5" class="st0" width="461.6" height="149.4"/>
<rect x="-310.4" y="364.9" class="st1" width="103.7" height="117.2"/>
<linearGradient id="SVGID_1_" gradientUnits="userSpaceOnUse" x1="-246.1686" y1="425.1938" x2="-213.8721" y2="481.9251" gradientTransform="matrix(1 0 0 -1 0 841.67)">
	<stop  offset="5.600000e-03" style="stop-color:#D3DBE5"/>
	<stop  offset="0.1541" style="stop-color:#BACCDC"/>
	<stop  offset="0.4709" style="stop-color:#78A4C4"/>
	<stop  offset="0.9279" style="stop-color:#11669F"/>
	<stop  offset="1" style="stop-color:#005C99"/>
</linearGradient>
<polygon class="st2" points="-255.7,388.4 -243.2,376.1 -254.9,360.4 -210.7,360.2 -210.7,425.6 -225.4,405.6 -244.3,426 "/>
<linearGradient id="SVGID_2_" gradientUnits="userSpaceOnUse" x1="-306.928" y1="423.7702" x2="-243.501" y2="423.7702" gradientTransform="matrix(1 0 0 -1 0 841.67)">
	<stop  offset="5.600000e-03" style="stop-color:#00548C"/>
	<stop  offset="6.530000e-02" style="stop-color:#0E5D92"/>
	<stop  offset="0.178" style="stop-color:#3374A1"/>
	<stop  offset="0.3318" style="stop-color:#6E9BBA"/>
	<stop  offset="0.5191" style="stop-color:#BFCEDD"/>
	<stop  offset="0.5618" style="stop-color:#D3DBE5"/>
	<stop  offset="0.6492" style="stop-color:#D0D9E4"/>
	<stop  offset="0.712" style="stop-color:#C7D3E0"/>
	<stop  offset="0.7671" style="stop-color:#B7C9D8"/>
	<stop  offset="0.8178" style="stop-color:#A1BACE"/>
	<stop  offset="0.8655" style="stop-color:#84A8C1"/>
	<stop  offset="0.9109" style="stop-color:#6191B2"/>
	<stop  offset="0.9546" style="stop-color:#37759F"/>
	<stop  offset="0.9958" style="stop-color:#075689"/>
	<stop  offset="1" style="stop-color:#025387"/>
</linearGradient>
<path class="st3" d="M-243.5,394.6c-0.1-5.4-11.1-7.6-22.4-6c0,0-20.3,2.7-32.5,14.4c-4.8,4.6-8.3,12.1-8.5,19.3l0.2,25.3
	c0,0,6.4-12.2,12.1-15.9c5.7-3.7,48.2-8.8,51.1-7.6L-243.5,394.6z"/>
<linearGradient id="SVGID_3_" gradientUnits="userSpaceOnUse" x1="-303.554" y1="424.9633" x2="-243.5004" y2="424.9633" gradientTransform="matrix(1 0 0 -1 0 841.67)">
	<stop  offset="5.600000e-03" style="stop-color:#00548C"/>
	<stop  offset="6.530000e-02" style="stop-color:#0E5D92"/>
	<stop  offset="0.178" style="stop-color:#3374A1"/>
	<stop  offset="0.3318" style="stop-color:#6E9BBA"/>
	<stop  offset="0.5191" style="stop-color:#BFCEDD"/>
	<stop  offset="0.5618" style="stop-color:#D3DBE5"/>
	<stop  offset="0.6492" style="stop-color:#D0D9E4"/>
	<stop  offset="0.712" style="stop-color:#C7D3E0"/>
	<stop  offset="0.7671" style="stop-color:#B7C9D8"/>
	<stop  offset="0.8178" style="stop-color:#A1BACE"/>
	<stop  offset="0.8655" style="stop-color:#84A8C1"/>
	<stop  offset="0.9109" style="stop-color:#6191B2"/>
	<stop  offset="0.9546" style="stop-color:#37759F"/>
	<stop  offset="0.9958" style="stop-color:#075689"/>
	<stop  offset="1" style="stop-color:#025387"/>
</linearGradient>
<path class="st4" d="M-303.4,399.3c0,0,0.1,7.2,10.5,10.8c7.2,2.5,27.2,0.9,33.4-1.9c5.1-2.3,9.2-4.1,13-7.9
	c2.2-2.2,3.1-4.1,3.1-5.7l0,31.4c0,0-4.5,7.2-15.8,10.7c-12.2,3.8-31.8,3.4-44.2-10.1L-303.4,399.3z"/>
<linearGradient id="SVGID_4_" gradientUnits="userSpaceOnUse" x1="-306.9338" y1="385.7875" x2="-256.17" y2="385.7875" gradientTransform="matrix(1 0 0 -1 0 841.67)">
	<stop  offset="5.600000e-03" style="stop-color:#D3DBE5"/>
	<stop  offset="0.1319" style="stop-color:#B2C6D6"/>
	<stop  offset="0.445" style="stop-color:#6794B5"/>
	<stop  offset="0.7042" style="stop-color:#2F709C"/>
	<stop  offset="0.8962" style="stop-color:#0D598D"/>
	<stop  offset="1" style="stop-color:#005187"/>
</linearGradient>
<path class="st5" d="M-306.7,456c0,9.5,11.5,15.2,11.5,15.2s0,0,0,22.9c12.3-3,34.4-32.1,39.1-38.7c-28.9-13-39.1-38-39.1-38
	l-0.2,22.5c-8.5-3.5-11.6-10.4-11.4-17.7L-306.7,456z"/>
<linearGradient id="SVGID_5_" gradientUnits="userSpaceOnUse" x1="-303.6078" y1="458.145" x2="-257.87" y2="458.145" gradientTransform="matrix(1 0 0 -1 0 841.67)">
	<stop  offset="0" style="stop-color:#DC7E3D"/>
	<stop  offset="0.3393" style="stop-color:#DB7B3D"/>
	<stop  offset="0.5404" style="stop-color:#D9733C"/>
	<stop  offset="0.7055" style="stop-color:#D4653B"/>
	<stop  offset="0.8511" style="stop-color:#CE513A"/>
	<stop  offset="0.9825" style="stop-color:#C53738"/>
	<stop  offset="1" style="stop-color:#C43338"/>
</linearGradient>
<path class="st6" d="M-257.9,393.6V360c0,0-55.2,19.1-44.3,43.5c0.6,1.4,1.3,2.1,2.3,3.5c11.2-13.3,18-14,18-14L-257.9,393.6z"/>
<linearGradient id="SVGID_6_" gradientUnits="userSpaceOnUse" x1="-293.8967" y1="455.8043" x2="-228.5003" y2="379.9359" gradientTransform="matrix(1 0 0 -1 0 841.67)">
	<stop  offset="5.600000e-03" style="stop-color:#F4B937"/>
	<stop  offset="7.560000e-02" style="stop-color:#F2B437"/>
	<stop  offset="0.1537" style="stop-color:#EEA737"/>
	<stop  offset="0.2359" style="stop-color:#E69137"/>
	<stop  offset="0.3208" style="stop-color:#DA7138"/>
	<stop  offset="0.407" style="stop-color:#CC4938"/>
	<stop  offset="0.4494" style="stop-color:#C43338"/>
	<stop  offset="0.5976" style="stop-color:#DF8339"/>
	<stop  offset="0.691" style="stop-color:#F1B83A"/>
	<stop  offset="0.7646" style="stop-color:#F0B53A"/>
	<stop  offset="0.814" style="stop-color:#EDAC3A"/>
	<stop  offset="0.8564" style="stop-color:#E89D39"/>
	<stop  offset="0.8947" style="stop-color:#E28839"/>
	<stop  offset="0.9303" style="stop-color:#D96C39"/>
	<stop  offset="0.964" style="stop-color:#CE4A38"/>
	<stop  offset="0.9955" style="stop-color:#C12237"/>
	<stop  offset="1" style="stop-color:#BF1C37"/>
</linearGradient>
<path class="st7" d="M-248.3,472.7c-21,2-38.3-27.4-42.9-53.9c-3.1-17.9-1.1-32.6-1.1-32.6c6.3-9.2,28.8-15.2,28.8-15.2
	c-5.9,35.7-1.3,57.2,5.1,72.9c5.8,14.3,12.5,24,19.2,22.3c0,0-1.3,2.9-3.8,4.7C-245.7,472.7-248.3,472.7-248.3,472.7"/>
<linearGradient id="SVGID_7_" gradientUnits="userSpaceOnUse" x1="-229.6599" y1="368.7914" x2="-213.0818" y2="415.4344" gradientTransform="matrix(1 0 0 -1 0 841.67)">
	<stop  offset="5.600000e-03" style="stop-color:#F4B937"/>
	<stop  offset="0.327" style="stop-color:#E48A37"/>
	<stop  offset="1" style="stop-color:#BF1C37"/>
</linearGradient>
<path class="st8" d="M-248.3,472.7c0,0,8.9-3.7,11.6-19.4c0,0-1.6-0.1-19.2-0.1c21.5-7.6,37.8-29.4,37.8-29.4l28.8,29.5
	c0,0,0,0-18,0c-3.4,10.3-9.8,17.2-14.6,19.4L-248.3,472.7L-248.3,472.7z"/>
<path class="st1" d="M-181.8,440h32.4c7.1,0,11.1,1.1,14.6,3.4c3.5,2.3,5.5,5.1,5.5,8.8c0,4.5-1.1,7.8-4.9,10.3
	c-3.8,2.5-9.7,3.7-17.6,3.7h-11.5v16.1H-182L-181.8,440z M-163.3,458.2h5.6c5.7,0,11.4,0.6,11.4-5.1c0-4.9-6.4-4.9-10.6-4.9h-6.4
	V458.2z"/>
<path class="st1" d="M-87,474.2h-24.3l-4,8.1h-15.5l23.6-42.4l18.3,0.1l23.7,42.3h-17.6L-87,474.2z M-91.1,465.7l-7.7-15.6
	l-8.3,15.6H-91.1z"/>
<path class="st1" d="M-60.3,440h20.6l19.9,24.3V440h14.7v42.4h-16.7l-24.1-29.6v29.6h-14.5L-60.3,440L-60.3,440z"/>
<path class="st1" d="M79.8,440h18v34.3H124v8.1H79.8V440z"/>
<path class="st1" d="M37.4,439.8c-16.7,0-30.2,9.6-30.2,21.5c0,11.9,13.5,21.5,30.2,21.5c16.7,0,30.2-9.6,30.2-21.5
	C67.6,449.4,54.1,439.8,37.4,439.8z M37.5,474.6c-6,0-10.8-6-10.8-13.5c0-7.4,4.9-13.5,10.8-13.5c6,0,10.8,6,10.8,13.5
	C48.3,468.6,43.5,474.6,37.5,474.6z"/>
</svg>
