<?xml version="1.0" encoding="utf-8"?>
<!-- Generator: Adobe Illustrator 21.0.2, SVG Export Plug-In . SVG Version: 6.00 Build 0)  -->
<svg version="1.1" id="Calque_1" xmlns="http://www.w3.org/2000/svg" xmlns:xlink="http://www.w3.org/1999/xlink" x="0px" y="0px"
	 viewBox="0 0 380 463" style="enable-background:new 0 0 380 463;" xml:space="preserve">
<style type="text/css">
	.st0{fill:#8ABA26;}
	.st1{fill:#3182BF;}
	.st2{fill:#FFFFFF;}
</style>
<path class="st0" d="M234.3,65.5l28.3,20.4c0,0-11.8,86.2-3.9,135.6h-15.1C243.5,221.5,223.8,134,234.3,65.5z"/>
<path class="st0" d="M228.1,59.7c0,0-9,82.2,10.1,161.8h-21.1c0,0-31.9-107-19.9-185.1L228.1,59.7z"/>
<path class="st1" d="M190.1,30.9c0,0-12.3,99.8,21.9,190.6h-8c0,0-54.6-125.2-44.4-213.6L190.1,30.9z"/>
<path class="st1" d="M334.8,359h-22.5c0,0,13,12.5,25.7,17L334.8,359z"/>
<path class="st0" d="M306.5,359c0,0,11,13.9,32.6,22.9l5.5,29.7c0,0-34.5-21.5-58.6-52.6L306.5,359L306.5,359z"/>
<path class="st0" d="M345.6,417.3c0,0-36.1-20.1-55.6-45.7c0,0,44.6,69.4,61.8,79.2L345.6,417.3z"/>
<path class="st1" d="M329.5,230.4H52c-7.4,27.6-62.4,67.1-2.5,123c0.5,0,245.1,0,284.4,0s40.6-97.7,0-97.7h-15.2
	C318.7,255.7,327.7,244.8,329.5,230.4z"/>
<path class="st2" d="M315.3,262.8c0,0-8.1,24.8-7.3,45.4h-8C299.9,308.2,302,270,315.3,262.8z"/>
<path class="st2" d="M320.9,237.3c0,0-29.1,27.5-29.2,57.2c0,29.8,12.8,44.7,12.6,46.9c-0.2,2.3-254,0-254,0s-44.5-28.6,8.8-104.2
	L320.9,237.3L320.9,237.3z"/>
<path class="st2" d="M316.3,318.8h-13.5c0,0,4.4,26.2,28.2,26.2c32.9,0,32.9-78.3,4.4-78.3C309.5,266.7,316.3,318.8,316.3,318.8z"/>
<polygon class="st0" points="283,320.8 283,330.2 46.4,330.2 42.3,320.8 "/>
<path class="st1" d="M115.6,375.6c-0.7-1.2-1.6-2-2.8-2.4c-0.9-0.3-2.2-0.5-4-0.5h-7.7v24.6h3v-9.9h4.9c2.8,0,4.8-0.7,5.9-2.1
	c1.1-1.4,1.7-3.2,1.7-5.4C116.6,378.2,116.3,376.8,115.6,375.6z M104.1,375.9h4.9c1.3,0,2.2,0.2,2.7,0.4s0.9,0.7,1.3,1.3
	c0.3,0.7,0.5,1.5,0.5,2.4c0,1.4-0.4,2.6-1.1,3.2c-0.7,0.6-1.8,1-3.4,1h-4.9V375.9z"/>
<path class="st1" d="M126.1,372.8L126.1,372.8l-3.1-0.1l-7.8,24.6h3.2l2.2-7.3h8.1l2.3,7.3h3.4L126.1,372.8z M127.8,387h-6.3
	l2.2-6.9c0.3-1.3,0.7-2.5,0.9-3.8c0.3,1.2,0.7,2.6,1.2,4.2L127.8,387z"/>
<path class="st1" d="M150.5,375.6c-0.7-1.2-1.6-2-2.8-2.4c-0.9-0.3-2.2-0.5-4-0.5H136v24.6h3v-9.9h4.9c2.8,0,4.8-0.7,5.9-2.1
	c1.1-1.4,1.7-3.2,1.7-5.4C151.5,378.2,151.2,376.8,150.5,375.6z M148.4,380c0,1.4-0.4,2.5-1.1,3.2c-0.7,0.6-1.8,1-3.4,1H139h-0.1
	v-8.3h4.9c1.4,0,2.3,0.2,2.8,0.4s1,0.7,1.3,1.3C148.2,378.3,148.4,379.1,148.4,380z"/>
<polygon class="st1" points="157.5,394 157.5,386.1 168.4,386.1 168.5,386.1 168.5,382.9 157.5,382.9 157.5,375.9 169.2,375.9 
	169.2,372.7 154.5,372.7 154.5,397.3 169.7,397.3 169.7,394 "/>
<polygon class="st1" points="171.6,372.8 171.6,376 178.1,376 178.1,397.3 181.1,397.3 181.1,376 187.7,376 187.7,372.8 "/>
<polygon class="st1" points="193,394 193,386.1 203.8,386.1 204,386.1 204,382.9 193,382.9 193,375.9 204.7,375.9 204.7,372.7 
	190,372.7 190,397.3 205.2,397.3 205.2,394 "/>
<path class="st1" d="M226.3,397.1L226.3,397.1l-0.2-0.5l-3.4-6.4c-0.6-1.1-1.3-2.2-2.1-3.1c-0.3-0.3-0.7-0.7-1.3-1.1
	c0.8-0.2,1.4-0.4,2-0.7c0.7-0.4,1.3-0.8,1.7-1.4c1-1.2,1.5-2.7,1.5-4.6c0-1.4-0.3-2.6-0.9-3.7c-0.5-1.1-1.3-1.8-2.2-2.3
	s-2.3-0.7-4.2-0.7h-9v24.6h3v-0.1h0.2v-10.6h2.7c0.9,0,1.5,0.1,2,0.3s1,0.6,1.5,1.3s1.3,2.1,2.3,4l2.7,5.2h3.7L226.3,397.1z
	 M221,381.7c-0.3,0.6-0.8,1-1.4,1.3c-0.6,0.3-1.5,0.4-2.7,0.4h-5.5h-0.1v-7.5h6.1c1.4,0,2.4,0.3,3.1,1c0.7,0.6,1,1.5,1,2.7
	C221.5,380.4,221.4,381.1,221,381.7z M211.3,383.5v0.1h-0.1l0-0.1H211.3z M217.8,372.9c-0.1,0-0.2,0-0.4,0h0.1
	C217.6,372.9,217.7,372.9,217.8,372.9z"/>
<rect x="228.9" y="372.7" class="st1" width="3" height="24.6"/>
<polygon class="st1" points="239.1,394 239.1,386.1 250,386.1 250.1,386.1 250.1,382.9 239.1,382.9 239.1,375.9 250.8,375.9 
	250.8,372.7 236.1,372.7 236.1,397.3 251.3,397.3 251.3,394 "/>
<path class="st1" d="M268.9,386.6c-0.6-1-1.6-1.9-2.8-2.5c-0.8-0.4-2.2-0.9-4.2-1.4s-3.3-1.1-3.8-1.6s-0.8-1.2-0.8-2.1
	c0-1,0.4-1.8,1.1-2.4c0.8-0.7,1.9-1,3.3-1c1.4,0,2.5,0.4,3.3,1.1s1.3,1.9,1.4,3.4v0.2l2.9-0.3v-0.2c0-1.5-0.4-2.8-1-3.9
	c-0.6-1.1-1.5-2-2.6-2.6c-1.2-0.6-2.5-0.9-4-0.9c-2.1,0-3.9,0.6-5.2,1.9c-1.3,1.2-2,2.9-2,4.9c0,1.1,0.2,2.1,0.7,3
	c0.4,0.9,1.1,1.6,1.9,2.2c0.8,0.6,2.1,1.1,4,1.7c2.1,0.6,3.5,1.1,4.1,1.4c0.6,0.3,1,0.7,1.3,1.2s0.4,1.1,0.4,1.8
	c0,1.1-0.4,2.1-1.2,2.8c-0.8,0.7-2,1.1-3.5,1.1c-1.1,0-2.1-0.3-2.9-0.7s-1.4-1-1.9-1.7s-0.8-1.7-0.9-3v-0.2l-2.8,0.3v0.2
	c0,2.5,0.8,4.6,2.3,6.1s3.5,2.3,6,2.3c1.6,0,3-0.3,4.2-0.8c1.1-0.6,2-1.5,2.7-2.7c0.7-1.2,1-2.5,1-3.9S269.5,387.6,268.9,386.6z
	 M265.7,387.6c-0.1-0.1-0.3-0.2-0.5-0.3C265.4,387.4,265.5,387.5,265.7,387.6z"/>
<path class="st1" d="M73.3,422c-0.5-1.5-1.1-2.9-2-3.9c-0.9-1.1-1.9-1.8-3.1-2.2c-0.9-0.3-2.2-0.5-3.9-0.5h-7V440h7.3
	c2.1,0,3.8-0.4,5-1.3c1.3-0.8,2.4-2.2,3.2-4.1c0.8-1.9,1.2-4.2,1.2-7C74,425.4,73.8,423.6,73.3,422z M60.2,418.7h4
	c1.5,0,2.6,0.2,3.3,0.5c1,0.4,1.9,1.3,2.5,2.7c0.7,1.4,1,3.3,1,5.7c0,2.2-0.3,4.2-0.9,5.8c-0.5,1.2-1.2,2.1-2,2.6
	c-0.9,0.5-2.1,0.8-3.8,0.8h-4h-0.1V418.7z"/>
<path class="st1" d="M90.9,415.3v14.1c0,3-0.4,5.1-1.2,6.1s-2.1,1.5-3.9,1.5c-1,0-2-0.2-2.7-0.7c-0.7-0.4-1.3-1.2-1.6-2.1
	c-0.3-1-0.5-2.5-0.5-4.7v-14.1h-3v14.2c0,4,0.7,6.8,2,8.4c1.3,1.6,3.3,2.4,6,2.4c1.9,0,3.5-0.4,4.6-1.4c0,0,0,0,0,0c0,0,0,0,0,0
	c1.3-0.9,2.1-2.2,2.6-3.7c0.5-1.5,0.7-3.4,0.7-5.8v-14.2H90.9z"/>
<path class="st1" d="M121.1,431.1v0.2c-0.3,2-1,3.5-2,4.5s-2.2,1.5-3.6,1.5c-1.9,0-3.4-0.8-4.5-2.4c-1.1-1.7-1.7-4.1-1.7-7.4
	c0-2.2,0.3-4,0.9-5.4c0.6-1.4,1.4-2.4,2.3-3.1s2-1,3.3-1c2.6,0,4.2,1.6,5.1,4.9v0.2l2.9-0.8v-0.2c-0.5-2.3-1.5-4.1-2.9-5.3
	c-1.4-1.2-3.1-1.8-5.1-1.8c-1.8,0-3.5,0.4-4.9,1.4c-1.4,1-2.6,2.4-3.4,4.3c-0.9,1.8-1.3,4.1-1.3,6.8c0,2.7,0.5,5.1,1.3,7.1
	c0.9,2,2,3.5,3.3,4.4c1.3,0.9,2.9,1.4,4.8,1.4c2.1,0,3.9-0.7,5.4-2c1.5-1.4,2.5-3.5,3.1-6.2V432L121.1,431.1z"/>
<path class="st1" d="M145.1,420.9c-0.9-1.9-2-3.4-3.5-4.4s-3.1-1.5-4.9-1.5c-2.7,0-5.1,1.2-6.9,3.4c-1.9,2.2-2.8,5.4-2.8,9.6
	c0,3.3,0.9,6.2,2.5,8.5c1.8,2.6,4.2,3.9,7.2,3.9c2.9,0,5.3-1.3,7.2-3.8c1.7-2.3,2.5-5.3,2.5-8.9
	C146.4,425.1,145.9,422.8,145.1,420.9z M132,420.5c1.2-1.6,2.8-2.4,4.7-2.4c1.2,0,2.3,0.4,3.2,1.2c1,0.7,1.8,1.7,2.3,2.9
	c0.7,1.6,1,3.5,1,5.5c0,3.1-0.6,5.6-1.9,7.2c-1.3,1.6-2.8,2.4-4.7,2.4c-1.8,0-3.3-0.8-4.6-2.4c-1.2-1.6-1.9-3.9-1.9-6.8
	C130.1,424.7,130.8,422.1,132,420.5z M132.8,439.2c1.2,0.6,2.5,0.9,3.9,1c0,0,0,0-0.1,0C135.3,440.2,134,439.9,132.8,439.2z"/>
<polygon class="st1" points="148.6,415.5 148.6,418.7 155.1,418.7 155.1,440 158.1,440 158.1,418.7 164.7,418.7 164.7,415.5 "/>
<polygon class="st1" points="170.6,436.7 170.6,428.8 181.4,428.8 181.6,428.8 181.6,425.6 170.6,425.6 170.6,418.6 182.3,418.6 
	182.3,415.4 167.6,415.4 167.6,440 182.8,440 182.8,436.7 "/>
<polygon class="st1" points="199.9,415.4 199.9,433.9 189.8,415.5 189.7,415.4 186.7,415.4 186.7,440 189.6,440 189.6,421.5 
	199.7,440 202.7,440 202.8,440 202.8,415.4 "/>
<polygon class="st1" points="206,415.5 206,418.7 212.5,418.7 212.5,440 215.5,440 215.5,418.7 222.1,418.7 222.1,415.5 "/>
<rect x="225.5" y="415.4" class="st1" width="3" height="24.6"/>
<polygon class="st1" points="246.5,415.4 246.5,433.9 236.4,415.5 236.3,415.4 233.3,415.4 233.3,440 236.2,440 236.2,421.5 
	246.3,440 249.3,440 249.4,440 249.4,415.4 "/>
<path class="st1" d="M276.8,429.3c-0.6-1-1.6-1.9-2.8-2.5c-0.8-0.4-2.2-0.9-4.2-1.4s-3.3-1.1-3.8-1.6s-0.8-1.2-0.8-2.1
	c0-1,0.4-1.8,1.1-2.4c0.8-0.7,1.9-1,3.3-1c1.4,0,2.5,0.4,3.3,1.1c0.8,0.7,1.3,1.9,1.4,3.4v0.2l2.9-0.3v-0.2c0-1.5-0.4-2.8-1-3.9
	c-0.6-1.1-1.5-2-2.6-2.6c-1.2-0.6-2.5-0.9-4-0.9c-2.1,0-3.9,0.6-5.2,1.9c-1.3,1.2-2,2.9-2,4.9c0,1.1,0.2,2.1,0.7,3
	c0.4,0.9,1.1,1.6,1.9,2.2c0.8,0.6,2.1,1.1,4,1.7c2.1,0.6,3.5,1.1,4.1,1.4c0.6,0.3,1,0.7,1.3,1.2c0.3,0.5,0.4,1.1,0.4,1.8
	c0,1.1-0.4,2.1-1.2,2.8c-0.8,0.7-2,1.1-3.5,1.1c-1.1,0-2.1-0.3-2.9-0.7s-1.4-1-1.9-1.7s-0.8-1.7-0.9-3v-0.2l-2.8,0.3v0.2
	c0,2.5,0.8,4.6,2.3,6.1s3.5,2.3,6,2.3c1.6,0,3-0.3,4.2-0.8c1.1-0.6,2-1.5,2.7-2.7s1-2.5,1-3.9S277.4,430.3,276.8,429.3z"/>
<rect x="282" y="436.3" class="st1" width="3.1" height="3.7"/>
<path class="st1" d="M298.7,415.5L298.7,415.5l-3.1-0.1l-7.8,24.6h3.1l2.2-7.3h8l2.3,7.3h3.4L298.7,415.5z M300.3,429.7H294l2.2-6.9
	c0.3-1.3,0.7-2.5,0.9-3.8c0.3,1.2,0.7,2.6,1.2,4.2L300.3,429.7z"/>
<rect x="309.6" y="436.3" class="st1" width="3.1" height="3.7"/>
<path class="st1" d="M86.8,259.3c-1-2.1-2.4-3.7-4.2-4.6c-1.8-0.9-4.2-1.4-7.2-1.4H58.5l-8.7,52.9h9.1l3.2-19.8h5.1
	c3.7,0,6.1-0.2,7.5-0.4c2.3-0.4,4.1-1,5.5-1.8c1.4-0.8,2.7-2,3.9-3.5s2.2-3.6,3-6.1s1.2-5.1,1.2-7.8
	C88.3,263.9,87.8,261.4,86.8,259.3z M79.3,267.7c0,1.8-0.4,3.5-1.2,5c-0.9,1.5-2,2.6-3.4,3.3c-1.5,0.7-4.4,1-8.8,1h-2.2l2.5-14.3
	h5.7c3.3,0,4.6,0.3,5.1,0.5c0.7,0.3,1.3,0.9,1.7,1.6C79.1,265.5,79.3,266.5,79.3,267.7z"/>
<path class="st1" d="M114,253.3h-9.9l-23.5,52.9H90l4.9-11.5h15.7l1.4,11.5h8.7L114,253.3z M109.5,285.3H98.2l9.1-19.4L109.5,285.3z
	"/>
<path class="st1" d="M162,259.3c-1-2.1-2.4-3.7-4.2-4.6c-1.8-0.9-4.2-1.4-7.2-1.4h-16.9l-8.7,52.9h9.1l3.2-19.8h5.1
	c3.7,0,6.1-0.2,7.5-0.4c2.3-0.4,4.1-1,5.5-1.8c1.4-0.8,2.7-2,3.9-3.5s2.2-3.6,3-6.1s1.2-5.1,1.2-7.8
	C163.5,263.9,163,261.4,162,259.3z M153.3,272.7c-0.9,1.5-2,2.6-3.4,3.3c-1.5,0.7-4.4,1-8.8,1h-2.2l2.5-14.3h5.7
	c3.3,0,4.6,0.3,5.1,0.5c0.7,0.3,1.3,0.9,1.7,1.6c0.4,0.7,0.6,1.7,0.6,2.9C154.5,269.5,154.1,271.2,153.3,272.7z"/>
<polygon class="st1" points="201.5,262.7 203,253.3 171.9,253.3 163.2,306.2 195.9,306.2 197.7,296.8 173.9,296.8 176.3,283.3 
	197.5,283.3 199,273.9 177.8,273.9 179.6,262.7 "/>
<path class="st1" d="M242.5,270v-0.3c-0.5-5.3-2.1-9.5-4.9-12.6c-2.8-3.1-6.5-4.7-11-4.7c-4,0-7.8,1.4-11.2,4
	c-3.4,2.7-6.1,6.5-8,11.5c-1.9,4.9-2.9,10.4-2.9,16.4c0,7.3,1.4,13,4.3,16.9c2.8,3.9,6.9,5.9,12,5.9c4.5,0,8.5-1.6,12.1-4.5
	c3.4-3.1,5.9-7.7,7.6-13.6l0.1-0.4l-9.2-1.8l-0.1,0.3c-0.9,3.5-2.2,6.2-4,7.9c-1.7,1.7-3.6,2.6-5.7,2.6c-2.2,0-4.1-1.1-5.6-3.3
	s-2.3-5.4-2.3-9.5c0-3.8,0.6-7.6,1.8-11.4c1.1-3.7,2.7-6.5,4.7-8.3c2-1.7,4.1-2.6,6.3-2.6c2,0,3.6,0.6,4.8,1.9s2.1,3.4,2.5,6.4v0.3
	L242.5,270z"/>
<path class="st1" d="M281.3,258.6c-3.2-4.1-7.4-6.2-12.6-6.2c-3.8,0-7.3,1-10.3,3s-5.5,4.7-7.5,8.1c-2,3.4-3.4,7.4-4.4,12
	c-0.7,3.4-1.1,6.7-1.1,9.8c0,3.4,0.5,6.7,1.6,10s3,6.2,5.6,8.4c2.6,2.3,5.9,3.4,9.8,3.4c4.5,0,8.5-1.4,12.2-4.2
	c3.5-2.8,6.4-6.8,8.4-12c2.1-5.1,3.1-10.6,3.1-16.1C286.1,268.1,284.5,262.7,281.3,258.6z M269.7,294.7c-2,1.9-4.1,2.8-6.3,2.8
	c-2.7,0-4.8-1.2-6.5-3.5c-1.7-2.3-2.5-5.3-2.5-8.8c0-5.7,1.3-11.1,3.8-15.9c2.5-4.8,5.7-7.2,9.7-7.2c2.6,0,4.7,1.1,6.4,3.4
	c1.6,2.3,2.5,5.5,2.5,9.5c0,3.6-0.7,7.4-2,11.2S271.7,292.8,269.7,294.7z"/>
</svg>
