<?xml version="1.0" encoding="utf-8"?>
<!-- Generator: Adobe Illustrator 15.0.0, SVG Export Plug-In . SVG Version: 6.00 Build 0)  -->
<!DOCTYPE svg PUBLIC "-//W3C//DTD SVG 1.1//EN" "http://www.w3.org/Graphics/SVG/1.1/DTD/svg11.dtd">
<svg version="1.1" id="Calque_1" xmlns="http://www.w3.org/2000/svg" xmlns:xlink="http://www.w3.org/1999/xlink" x="0px" y="0px"
	 width="500px" height="500px" viewBox="0 0 500 500" enable-background="new 0 0 500 500" xml:space="preserve">
<path fill="#8ABA26" d="M294.307,89.529l28.294,20.399c0,0-11.845,86.204-3.948,135.557h-15.134
	C303.519,245.485,283.778,157.966,294.307,89.529z"/>
<path fill="#8ABA26" d="M288.146,83.708c0,0-8.976,82.153,10.106,161.777h-21.057c0,0-31.894-107.04-19.894-185.128L288.146,83.708z
	"/>
<path fill="#3182BF" d="M250.052,54.869c0,0-12.339,99.807,21.88,190.616h-7.896c0,0-54.601-125.154-44.411-213.65L250.052,54.869z"
	/>
<path fill="#3182BF" d="M394.842,383.017h-22.551c0,0,13.019,12.456,25.7,17.01L394.842,383.017z"/>
<path fill="#8ABA26" d="M366.474,383.017c0,0,10.982,13.898,32.605,22.893l5.49,29.664c0,0-34.46-21.494-58.594-52.557H366.474z"/>
<path fill="#8ABA26" d="M405.621,441.266c0,0-36.096-20.11-55.575-45.697c0,0,44.608,69.445,61.776,79.209L405.621,441.266z"/>
<path fill="#3182BF" d="M389.516,254.393H111.982c-7.439,27.564-62.366,67.064-2.542,123.027c0.509,0,245.084,0,284.367,0
	c39.285,0,40.611-97.707,0-97.707h-15.071C378.736,279.713,387.669,268.767,389.516,254.393z"/>
<path fill="#FFFFFF" d="M375.273,286.838c0,0-8.082,24.807-7.319,45.417h-8.014C359.94,332.255,361.979,293.961,375.273,286.838z"/>
<path fill="#FFFFFF" d="M380.934,261.267c0,0-29.129,27.479-29.158,57.248c-0.03,29.771,12.773,44.654,12.567,46.945
	c-0.206,2.29-254.014,0-254.014,0s-44.538-28.593,8.779-104.193H380.934z"/>
<path fill="#FFFFFF" d="M376.338,342.858h-13.58c0,0,4.389,26.163,28.16,26.163c32.853,0,32.853-78.287,4.359-78.287
	C369.521,290.734,376.338,342.858,376.338,342.858z"/>
<polygon fill="#8ABA26" points="343.02,344.851 343.02,354.223 106.386,354.223 102.316,344.851 "/>
<g>
	<path fill="#3182BF" stroke="#3182BF" stroke-width="0.3655" stroke-miterlimit="10" d="M161.286,421.093v-24.19h7.475
		c1.76,0,3.057,0.153,3.894,0.462c1.145,0.418,2.058,1.193,2.739,2.326c0.683,1.133,1.024,2.525,1.024,4.175
		c0,2.177-0.556,3.955-1.667,5.33s-3.03,2.062-5.759,2.062h-5.082v9.835H161.286z M163.911,408.402h5.132
		c1.616,0,2.799-0.365,3.547-1.097c0.748-0.732,1.122-1.834,1.122-3.31c0-0.956-0.184-1.775-0.552-2.457
		c-0.37-0.682-0.815-1.15-1.337-1.404c-0.524-0.252-1.466-0.379-2.83-0.379h-5.082V408.402z"/>
	<path fill="#3182BF" stroke="#3182BF" stroke-width="0.3655" stroke-miterlimit="10" d="M175.577,421.093l7.65-24.19h2.806
		l8.123,24.19h-3.002l-2.308-7.326H180.5l-2.156,7.326H175.577z M181.268,411.159h6.757l-2.062-6.7
		c-0.637-2.056-1.105-3.729-1.403-5.016c-0.255,1.551-0.618,3.092-1.086,4.62L181.268,411.159z"/>
	<path fill="#3182BF" stroke="#3182BF" stroke-width="0.3655" stroke-miterlimit="10" d="M196.218,421.093v-24.19h7.476
		c1.759,0,3.059,0.153,3.894,0.462c1.144,0.418,2.058,1.193,2.74,2.326c0.681,1.133,1.022,2.525,1.022,4.175
		c0,2.177-0.556,3.955-1.667,5.33c-1.112,1.375-3.031,2.062-5.758,2.062h-5.083v9.835H196.218z M198.843,408.402h5.131
		c1.617,0,2.8-0.365,3.548-1.097c0.747-0.732,1.122-1.834,1.122-3.31c0-0.956-0.184-1.775-0.552-2.457
		c-0.37-0.682-0.814-1.15-1.336-1.404c-0.523-0.252-1.468-0.379-2.83-0.379h-5.083V408.402z"/>
	<path fill="#3182BF" stroke="#3182BF" stroke-width="0.3655" stroke-miterlimit="10" d="M214.766,421.093v-24.19h14.338v2.854
		H217.39v7.394h10.974v2.854H217.39v8.233h12.177v2.855H214.766z"/>
	<path fill="#3182BF" stroke="#3182BF" stroke-width="0.3655" stroke-miterlimit="10" d="M238.28,421.093v-21.337h-6.534v-2.854
		h15.725v2.854h-6.566v21.337H238.28z"/>
	<path fill="#3182BF" stroke="#3182BF" stroke-width="0.3655" stroke-miterlimit="10" d="M250.177,421.093v-24.19h14.339v2.854
		h-11.715v7.394h10.972v2.854h-10.972v8.233h12.178v2.855H250.177z"/>
	<path fill="#3182BF" stroke="#3182BF" stroke-width="0.3655" stroke-miterlimit="10" d="M268.592,421.093v-24.19h8.794
		c1.838,0,3.193,0.225,4.068,0.676s1.593,1.2,2.153,2.25c0.562,1.05,0.841,2.269,0.841,3.653c0,1.826-0.475,3.304-1.427,4.437
		c-0.952,1.132-2.334,1.852-4.15,2.16c0.736,0.442,1.299,0.891,1.684,1.346c0.781,0.924,1.47,1.951,2.062,3.084l3.467,6.585h-3.302
		l-2.645-5.031c-1.026-1.968-1.799-3.292-2.32-3.976c-0.522-0.683-1.028-1.144-1.516-1.38c-0.489-0.236-1.175-0.354-2.054-0.354
		h-3.033v10.741H268.592z M271.215,407.577h5.644c1.233,0,2.167-0.148,2.807-0.445c0.636-0.297,1.143-0.764,1.517-1.401
		c0.374-0.639,0.562-1.381,0.562-2.228c0-1.221-0.357-2.181-1.073-2.88c-0.714-0.698-1.776-1.049-3.184-1.049h-6.271V407.577z"/>
	<path fill="#3182BF" stroke="#3182BF" stroke-width="0.3655" stroke-miterlimit="10" d="M289.104,421.093v-24.19h2.623v24.19
		H289.104z"/>
	<path fill="#3182BF" stroke="#3182BF" stroke-width="0.3655" stroke-miterlimit="10" d="M296.363,421.093v-24.19h14.34v2.854
		h-11.716v7.394h10.974v2.854h-10.974v8.233h12.179v2.855H296.363z"/>
	<path fill="#3182BF" stroke="#3182BF" stroke-width="0.3655" stroke-miterlimit="10" d="M313.904,413.304l2.475-0.265
		c0.133,1.331,0.433,2.369,0.9,3.109c0.468,0.743,1.136,1.342,2.005,1.792s1.849,0.677,2.938,0.677c1.562,0,2.774-0.382,3.639-1.145
		c0.862-0.763,1.293-1.753,1.293-2.973c0-0.713-0.155-1.335-0.469-1.867c-0.312-0.533-0.788-0.97-1.419-1.311
		c-0.633-0.339-1.998-0.821-4.101-1.442c-1.87-0.556-3.201-1.114-3.993-1.676c-0.793-0.561-1.409-1.271-1.848-2.136
		c-0.44-0.864-0.66-1.84-0.66-2.93c0-1.958,0.633-3.559,1.898-4.8c1.264-1.245,2.97-1.865,5.114-1.865
		c1.474,0,2.764,0.291,3.869,0.874s1.963,1.419,2.574,2.508c0.609,1.089,0.938,2.37,0.981,3.846l-2.525,0.23
		c-0.131-1.572-0.601-2.739-1.41-3.499c-0.808-0.758-1.944-1.138-3.407-1.138c-1.485,0-2.618,0.333-3.397,0.997
		c-0.783,0.666-1.175,1.527-1.175,2.582c0,0.98,0.287,1.738,0.86,2.278c0.571,0.537,1.859,1.085,3.86,1.636
		c1.956,0.542,3.33,1.013,4.123,1.41c1.209,0.617,2.123,1.431,2.74,2.437c0.616,1.006,0.925,2.206,0.925,3.602
		c0,1.385-0.322,2.646-0.974,3.781c-0.648,1.139-1.53,2.004-2.647,2.596c-1.116,0.595-2.462,0.891-4.035,0.891
		c-2.453,0-4.407-0.735-5.866-2.211C314.715,417.819,313.959,415.822,313.904,413.304z"/>
	<path fill="#3182BF" stroke="#3182BF" stroke-width="0.3655" stroke-miterlimit="10" d="M117.457,463.838v-24.188h6.848
		c1.693,0,2.981,0.148,3.861,0.443c1.155,0.386,2.156,1.09,3.002,2.113c0.847,1.022,1.507,2.313,1.98,3.869
		c0.473,1.558,0.708,3.403,0.708,5.537c0,2.738-0.4,5.062-1.204,6.972c-0.803,1.907-1.835,3.262-3.094,4.059
		c-1.259,0.798-2.907,1.195-4.941,1.195H117.457z M120.079,460.984h4.226c1.705,0,2.997-0.277,3.878-0.833
		c0.88-0.555,1.557-1.45,2.029-2.681c0.626-1.64,0.94-3.604,0.94-5.893c0-2.452-0.334-4.38-0.999-5.783
		c-0.666-1.402-1.52-2.341-2.564-2.813c-0.706-0.32-1.822-0.479-3.35-0.479h-4.16V460.984z"/>
	<path fill="#3182BF" stroke="#3182BF" stroke-width="0.3655" stroke-miterlimit="10" d="M151.152,439.649h2.623v13.976
		c0,2.344-0.227,4.265-0.684,5.767s-1.285,2.688-2.489,3.557c-1.204,0.869-2.734,1.303-4.59,1.303c-2.616,0-4.575-0.78-5.877-2.343
		s-1.953-4.322-1.953-8.283v-13.976h2.625v13.959c0,2.189,0.169,3.772,0.511,4.753c0.34,0.979,0.899,1.723,1.674,2.234
		c0.775,0.513,1.718,0.769,2.83,0.769c1.869,0,3.226-0.528,4.068-1.583c0.841-1.058,1.262-3.114,1.262-6.173V439.649z"/>
	<path fill="#3182BF" stroke="#3182BF" stroke-width="0.3655" stroke-miterlimit="10" d="M181.329,455.357l2.64,0.81
		c-0.582,2.715-1.602,4.742-3.062,6.079c-1.456,1.337-3.229,2.005-5.32,2.005c-1.838,0-3.408-0.448-4.712-1.346
		c-1.303-0.896-2.37-2.336-3.201-4.317s-1.245-4.32-1.245-7.018c0-2.665,0.415-4.918,1.246-6.762s1.958-3.236,3.379-4.177
		c1.42-0.941,3.005-1.413,4.756-1.413c1.916,0,3.562,0.597,4.939,1.787s2.34,2.938,2.89,5.242l-2.575,0.743
		c-0.881-3.355-2.65-5.031-5.303-5.031c-1.322,0-2.467,0.336-3.438,1.015c-0.968,0.677-1.742,1.73-2.322,3.163
		c-0.577,1.43-0.867,3.242-0.867,5.433c0,3.313,0.584,5.8,1.749,7.456c1.165,1.657,2.717,2.486,4.654,2.486
		c1.429,0,2.666-0.51,3.705-1.527S180.977,457.426,181.329,455.357z"/>
	<path fill="#3182BF" stroke="#3182BF" stroke-width="0.3655" stroke-miterlimit="10" d="M187.187,452.058
		c0-4.126,0.906-7.297,2.723-9.514c1.814-2.217,4.074-3.325,6.782-3.325c1.748,0,3.344,0.495,4.785,1.485
		c1.44,0.991,2.583,2.429,3.424,4.315c0.841,1.886,1.262,4.133,1.262,6.741c0,3.587-0.815,6.507-2.443,8.762
		c-1.793,2.486-4.141,3.729-7.045,3.729c-2.927,0-5.28-1.274-7.062-3.828C187.996,458.113,187.187,455.324,187.187,452.058z
		 M189.892,452.099c0,2.983,0.657,5.299,1.973,6.945c1.314,1.646,2.912,2.469,4.792,2.469c1.925,0,3.54-0.831,4.844-2.493
		c1.303-1.663,1.956-4.108,1.956-7.334c0-2.081-0.337-3.94-1.009-5.582c-0.517-1.254-1.293-2.26-2.333-3.013
		c-1.04-0.755-2.176-1.131-3.409-1.131c-1.98,0-3.611,0.825-4.893,2.476C190.533,446.088,189.892,448.643,189.892,452.099z"/>
	<path fill="#3182BF" stroke="#3182BF" stroke-width="0.3655" stroke-miterlimit="10" d="M215.254,463.838v-21.335h-6.534v-2.854
		h15.725v2.854h-6.566v21.335H215.254z"/>
	<path fill="#3182BF" stroke="#3182BF" stroke-width="0.3655" stroke-miterlimit="10" d="M227.828,463.838v-24.188h14.338v2.854
		h-11.715v7.393h10.973v2.854h-10.973v8.235h12.178v2.854H227.828z"/>
	<path fill="#3182BF" stroke="#3182BF" stroke-width="0.3655" stroke-miterlimit="10" d="M246.853,463.838v-24.188h2.689
		l10.428,19.028v-19.028h2.51v24.188h-2.69l-10.412-19.033v19.033H246.853z"/>
	<path fill="#3182BF" stroke="#3182BF" stroke-width="0.3655" stroke-miterlimit="10" d="M272.693,463.838v-21.335h-6.535v-2.854
		h15.727v2.854h-6.568v21.335H272.693z"/>
	<path fill="#3182BF" stroke="#3182BF" stroke-width="0.3655" stroke-miterlimit="10" d="M285.711,463.838v-24.188h2.624v24.188
		H285.711z"/>
	<path fill="#3182BF" stroke="#3182BF" stroke-width="0.3655" stroke-miterlimit="10" d="M293.516,463.838v-24.188h2.689
		l10.428,19.028v-19.028h2.509v24.188h-2.69l-10.412-19.033v19.033H293.516z"/>
	<path fill="#3182BF" stroke="#3182BF" stroke-width="0.3655" stroke-miterlimit="10" d="M321.763,456.051l2.477-0.265
		c0.132,1.332,0.431,2.368,0.897,3.111c0.469,0.741,1.137,1.339,2.006,1.79c0.868,0.451,1.848,0.677,2.938,0.677
		c1.562,0,2.774-0.382,3.638-1.145s1.296-1.754,1.296-2.973c0-0.714-0.157-1.336-0.47-1.868c-0.314-0.532-0.788-0.969-1.419-1.31
		c-0.635-0.34-2-0.821-4.103-1.443c-1.87-0.557-3.2-1.112-3.992-1.675c-0.791-0.561-1.408-1.272-1.849-2.137
		s-0.659-1.841-0.659-2.929c0-1.957,0.632-3.56,1.897-4.802c1.266-1.244,2.97-1.865,5.114-1.865c1.475,0,2.765,0.292,3.87,0.874
		c1.104,0.584,1.965,1.419,2.574,2.509s0.938,2.37,0.981,3.846l-2.525,0.231c-0.132-1.573-0.601-2.74-1.411-3.499
		c-0.808-0.759-1.943-1.139-3.406-1.139c-1.484,0-2.619,0.332-3.398,0.998c-0.783,0.665-1.172,1.526-1.172,2.581
		c0,0.979,0.287,1.739,0.857,2.278c0.571,0.539,1.859,1.084,3.861,1.637c1.956,0.541,3.33,1.011,4.122,1.408
		c1.209,0.62,2.123,1.432,2.74,2.438c0.617,1.005,0.926,2.206,0.926,3.602c0,1.385-0.323,2.646-0.975,3.783
		c-0.647,1.137-1.53,2.002-2.646,2.596c-1.117,0.593-2.462,0.89-4.036,0.89c-2.452,0-4.407-0.737-5.864-2.212
		C322.573,460.565,321.818,458.569,321.763,456.051z"/>
	<path fill="#3182BF" stroke="#3182BF" stroke-width="0.3655" stroke-miterlimit="10" d="M342.224,463.838v-3.382h2.771v3.382
		H342.224z"/>
	<path fill="#3182BF" stroke="#3182BF" stroke-width="0.3655" stroke-miterlimit="10" d="M348.014,463.838l7.65-24.188h2.808
		l8.123,24.188h-3.003l-2.308-7.326h-8.346l-2.155,7.326H348.014z M353.705,453.905h6.757l-2.061-6.7
		c-0.638-2.057-1.105-3.729-1.402-5.016c-0.255,1.552-0.618,3.092-1.086,4.62L353.705,453.905z"/>
	<path fill="#3182BF" stroke="#3182BF" stroke-width="0.3655" stroke-miterlimit="10" d="M369.763,463.838v-3.382h2.771v3.382
		H369.763z"/>
</g>
<g>
	<path fill="#3182BF" stroke="#3182BF" stroke-width="0.6987" stroke-miterlimit="10" d="M118.619,329.878h-8.435l8.575-52.213
		h16.647c2.96,0,5.302,0.444,7.024,1.335c1.722,0.89,3.087,2.363,4.092,4.417s1.508,4.504,1.508,7.354c0,2.636-0.4,5.2-1.201,7.693
		c-0.801,2.493-1.784,4.487-2.946,5.982c-1.165,1.496-2.416,2.631-3.758,3.402c-1.339,0.771-3.147,1.358-5.417,1.762
		c-1.322,0.238-3.798,0.356-7.431,0.356h-5.39L118.619,329.878z M123.284,301.312h2.598c4.45,0,7.42-0.354,8.909-1.067
		c1.491-0.713,2.663-1.853,3.52-3.42c0.855-1.566,1.285-3.288,1.285-5.165c0-1.258-0.219-2.29-0.657-3.098
		c-0.438-0.807-1.052-1.396-1.843-1.764c-0.791-0.366-2.556-0.551-5.292-0.551h-6.034L123.284,301.312z"/>
	<path fill="#3182BF" stroke="#3182BF" stroke-width="0.6987" stroke-miterlimit="10" d="M170.933,318.339h-16.227l-4.917,11.539
		h-8.659l23.155-52.213h9.358l6.647,52.213h-7.988L170.933,318.339z M169.9,309.647l-2.374-21.015l-9.888,21.015H169.9z"/>
	<path fill="#3182BF" stroke="#3182BF" stroke-width="0.6987" stroke-miterlimit="10" d="M193.836,329.878h-8.435l8.575-52.213
		h16.646c2.961,0,5.303,0.444,7.025,1.335c1.722,0.89,3.087,2.363,4.092,4.417c1.006,2.054,1.508,4.504,1.508,7.354
		c0,2.636-0.401,5.2-1.2,7.693c-0.802,2.493-1.784,4.487-2.947,5.982c-1.165,1.496-2.417,2.631-3.757,3.402
		c-1.341,0.771-3.148,1.358-5.419,1.762c-1.322,0.238-3.798,0.356-7.429,0.356h-5.392L193.836,329.878z M198.501,301.312h2.598
		c4.449,0,7.419-0.354,8.91-1.067c1.489-0.713,2.662-1.853,3.519-3.42c0.856-1.566,1.285-3.288,1.285-5.165
		c0-1.258-0.219-2.29-0.657-3.098c-0.437-0.807-1.051-1.396-1.842-1.764c-0.792-0.366-2.556-0.551-5.293-0.551h-6.032
		L198.501,301.312z"/>
	<path fill="#3182BF" stroke="#3182BF" stroke-width="0.6987" stroke-miterlimit="10" d="M223.583,329.878l8.545-52.213h30.361
		l-1.424,8.726h-21.927l-1.954,11.86h21.199l-1.425,8.725H235.76l-2.569,14.176h23.824l-1.452,8.727H223.583z"/>
	<path fill="#3182BF" stroke="#3182BF" stroke-width="0.6987" stroke-miterlimit="10" d="M291.397,311.072l8.491,1.639
		c-1.658,5.865-4.143,10.346-7.458,13.445c-3.313,3.1-7.196,4.647-11.645,4.647c-5.011,0-8.925-1.923-11.746-5.77
		s-4.232-9.427-4.232-16.74c0-5.936,0.944-11.367,2.836-16.295c1.89-4.926,4.511-8.696,7.861-11.307
		c3.353-2.613,7.003-3.919,10.949-3.919c4.432,0,8.017,1.514,10.753,4.541c2.737,3.027,4.348,7.154,4.831,12.377l-8.071,0.997
		c-0.446-3.039-1.308-5.241-2.582-6.607c-1.275-1.363-2.975-2.048-5.098-2.048c-2.329,0-4.503,0.904-6.521,2.707
		c-2.021,1.806-3.637,4.626-4.846,8.459c-1.211,3.836-1.816,7.663-1.816,11.486c0,4.18,0.786,7.409,2.36,9.688
		c1.573,2.28,3.534,3.42,5.878,3.42c2.18,0,4.177-0.903,5.992-2.708C289.149,317.283,290.504,314.611,291.397,311.072z"/>
	<path fill="#3182BF" stroke="#3182BF" stroke-width="0.6987" stroke-miterlimit="10" d="M305.698,309.398
		c0-3.086,0.362-6.34,1.088-9.759c0.95-4.583,2.398-8.561,4.343-11.933c1.946-3.369,4.401-6.036,7.359-7.994
		c2.962-1.959,6.331-2.939,10.112-2.939c5.065,0,9.156,2.007,12.275,6.019c3.118,4.015,4.679,9.333,4.679,15.956
		c0,5.51-1.016,10.841-3.046,15.992c-2.028,5.153-4.783,9.118-8.267,11.896c-3.482,2.779-7.421,4.168-11.813,4.168
		c-3.817,0-7.021-1.104-9.609-3.312c-2.588-2.209-4.423-4.944-5.503-8.209C306.238,316.018,305.698,312.724,305.698,309.398z
		 M314.021,309.185c0,3.586,0.856,6.589,2.569,9.01c1.713,2.424,3.966,3.635,6.759,3.635c2.273,0,4.455-0.955,6.552-2.868
		c2.094-1.911,3.825-4.808,5.194-8.688c1.367-3.883,2.054-7.664,2.054-11.345c0-4.108-0.866-7.331-2.6-9.67
		c-1.73-2.339-3.938-3.509-6.619-3.509c-4.115,0-7.462,2.446-10.041,7.337C315.31,297.978,314.021,303.344,314.021,309.185z"/>
</g>
</svg>
