<?xml version="1.0" encoding="utf-8"?>
<!-- Generator: Adobe Illustrator 19.1.0, SVG Export Plug-In . SVG Version: 6.00 Build 0)  -->
<svg version="1.1" id="Calque_1" xmlns="http://www.w3.org/2000/svg" xmlns:xlink="http://www.w3.org/1999/xlink" x="0px" y="0px"
	 viewBox="-345 170.9 500 500" style="enable-background:new -345 170.9 500 500;" xml:space="preserve">
<style type="text/css">
	.st0{fill:#083C63;}
	.st1{fill:#094982;}
	.st2{fill:#FFFFFF;}
</style>
<rect x="-328.6" y="450.5" class="st0" width="469.8" height="19.9"/>
<path class="st0" d="M-280.2,382.1c-5.5,0-16-0.1-16-0.1h-31.5v64.3h31.5v-19.2c0,0,15.1-0.5,20.6-0.5c5.5,0,27.4-2.2,27.4-21.3
	C-248.2,385.2-274.8,382.1-280.2,382.1z M-290,411.1c-1.7,0-6.2,0.1-6.2,0.1v-11.6c0,0,4.6,0.1,6.2,0.1s8.3,0,8.3,5.7
	S-288.3,411.1-290,411.1z"/>
<polygon class="st0" points="-210,382.6 -247.5,382.6 -247.5,445.8 -246.6,445.8 "/>
<polygon class="st0" points="-167,382.6 -129.5,382.6 -129.5,445.8 -130.5,445.8 "/>
<polygon class="st0" points="-170.6,445.7 -173.5,437.8 -199.6,437.8 -202.5,445.7 "/>
<polygon class="st0" points="-179.1,422.4 -186.2,403.2 -186.9,403.2 -193.9,422.3 "/>
<path class="st0" d="M-90.2,425.5c0,0,0.3-0.1,0.8-0.2l0,0l14.7,21l38.5-0.3c0,0-13.3-13.7-17.3-17.8c-4-4.1-8.4-6.8-8.4-6.8
	l-0.1-0.4c8.4-1.5,18.3-5.5,18.3-16.7c0-20.2-27.2-22-32.8-22s-13.7-0.1-13.7-0.1h-32.6v64.3h32.6L-90.2,425.5L-90.2,425.5z
	 M-87.6,399.6c0,0,4.2,0.1,5.8,0.1c1.5,0,7.7,0,7.7,5.4s-6.2,5.4-7.7,5.4c-1.5,0-5.8,0.1-5.8,0.1L-87.6,399.6L-87.6,399.6z"/>
<polygon class="st0" points="56.7,445.7 24.6,413.2 53.6,382 17.1,382 -3.4,408.7 -3.4,382 -36.2,382 -36.2,445.7 -3.4,445.7 
	-3.4,419.5 17.7,445.7 "/>
<polygon class="st0" points="140.6,382 102,382 91.7,399 81.4,382 42.8,382 75.6,418.4 75.6,445.9 108,445.9 108,418.2 "/>
<path class="st1" d="M133.2,400.4v-6.2h2.7c0.6,0,1.1,0.2,1.5,0.5c0.4,0.3,0.6,0.8,0.6,1.3c0,0.3-0.1,0.7-0.3,0.9
	c-0.2,0.3-0.4,0.5-0.7,0.6c0.2,0.2,0.4,0.3,0.5,0.6c0.1,0.2,0.2,0.5,0.2,0.7l0,1.2c0,0.1,0,0.2,0.1,0.3l0,0.1h-0.8l0,0
	c-0.1-0.1-0.1-0.3-0.1-0.3l0-1.2c0-0.3-0.1-0.5-0.4-0.7c-0.2-0.2-0.5-0.3-0.9-0.3H134v2.6H133.2L133.2,400.4z M134,397.2h1.9
	c0.4,0,0.7-0.1,0.9-0.3c0.2-0.2,0.3-0.5,0.3-0.8c0-0.3-0.1-0.6-0.3-0.8c-0.2-0.2-0.5-0.3-0.9-0.3H134V397.2z"/>
<path class="st1" d="M135.1,402.5c-2.7,0-5-2.2-5-5s2.2-5,5-5s5,2.2,5,5S137.9,402.5,135.1,402.5z M135.1,393.2
	c-2.4,0-4.3,1.9-4.3,4.3s1.9,4.3,4.3,4.3s4.3-1.9,4.3-4.3S137.5,393.2,135.1,393.2z"/>
<path class="st2" d="M-322.6,465.8v-10.6h7.7c1.6,0,2.8,0.1,3.8,0.3c0.9,0.2,1.7,0.5,2.2,1c0.5,0.4,0.8,0.9,0.8,1.4
	c0,0.5-0.2,0.9-0.7,1.3c-0.5,0.4-1.2,0.7-2.1,1c1.2,0.2,2.2,0.5,2.9,1c0.7,0.5,1,1,1,1.6c0,0.5-0.2,1-0.6,1.4
	c-0.4,0.4-0.9,0.8-1.5,1c-0.6,0.2-1.3,0.4-2.2,0.5c-0.9,0.1-2,0.2-3.3,0.2L-322.6,465.8L-322.6,465.8z M-319.9,459.6h4.4
	c1.2,0,2.1,0,2.6-0.1c0.7-0.1,1.2-0.3,1.6-0.5c0.3-0.2,0.5-0.6,0.5-0.9c0-0.4-0.2-0.7-0.5-0.9c-0.3-0.3-0.8-0.5-1.4-0.5
	c-0.6-0.1-1.6-0.1-3.1-0.1h-4.1C-319.9,456.4-319.9,459.6-319.9,459.6z M-319.9,464.5h5.1c0.9,0,1.5,0,1.8-0.1
	c0.6-0.1,1.1-0.2,1.6-0.3c0.4-0.1,0.8-0.3,1-0.6c0.3-0.3,0.4-0.6,0.4-0.9c0-0.4-0.2-0.7-0.6-1c-0.4-0.3-0.9-0.5-1.6-0.6
	c-0.7-0.1-1.7-0.2-3-0.2h-4.7L-319.9,464.5L-319.9,464.5z"/>
<path class="st2" d="M-257.6,465.8l7.9-10.6h2.9l8.4,10.6h-3.1l-2.4-3.2h-8.6l-2.2,3.2H-257.6z M-251.7,461.4h6.9l-2.1-2.9
	c-0.7-0.9-1.1-1.6-1.5-2.2c-0.3,0.7-0.6,1.4-1.1,2L-251.7,461.4z"/>
<path class="st2" d="M-188.4,465.8v-10.6h9.1c1.8,0,3.2,0.1,4.2,0.3c0.9,0.2,1.7,0.5,2.3,1c0.6,0.5,0.9,1,0.9,1.6
	c0,0.8-0.5,1.4-1.4,1.9c-0.9,0.5-2.4,0.8-4.4,1c0.7,0.2,1.3,0.4,1.6,0.5c0.8,0.4,1.5,0.8,2.2,1.4l3.6,2.9h-3.4l-2.7-2.2
	c-0.8-0.6-1.4-1.1-2-1.5c-0.5-0.3-1-0.6-1.4-0.7c-0.4-0.1-0.8-0.2-1.2-0.3c-0.3,0-0.8-0.1-1.5-0.1h-3.1v4.7L-188.4,465.8
	L-188.4,465.8z M-185.7,459.8h5.8c1.2,0,2.2-0.1,2.9-0.2c0.7-0.1,1.2-0.3,1.6-0.6c0.4-0.3,0.5-0.6,0.5-1c0-0.5-0.4-0.9-1.1-1.2
	c-0.7-0.3-1.8-0.5-3.3-0.5h-6.5L-185.7,459.8L-185.7,459.8z"/>
<path class="st2" d="M-124.9,465.8v-10.6h9.1c1.8,0,3.2,0.1,4.2,0.3c0.9,0.2,1.7,0.5,2.3,1c0.6,0.5,0.9,1,0.9,1.6
	c0,0.8-0.5,1.4-1.4,1.9c-0.9,0.5-2.4,0.8-4.4,1c0.7,0.2,1.3,0.4,1.6,0.5c0.8,0.4,1.5,0.8,2.2,1.4l3.6,2.9h-3.4l-2.7-2.2
	c-0.8-0.6-1.4-1.1-2-1.5c-0.5-0.3-1-0.6-1.4-0.7c-0.4-0.1-0.8-0.2-1.2-0.3c-0.3,0-0.8-0.1-1.5-0.1h-3.1v4.7L-124.9,465.8
	L-124.9,465.8z M-122.2,459.8h5.8c1.2,0,2.2-0.1,2.9-0.2c0.7-0.1,1.2-0.3,1.6-0.6c0.4-0.3,0.5-0.6,0.5-1c0-0.5-0.4-0.9-1.1-1.2
	c-0.7-0.3-1.8-0.5-3.3-0.5h-6.5L-122.2,459.8L-122.2,459.8z"/>
<path class="st2" d="M-61.1,465.8v-10.6h2.7v10.6H-61.1z"/>
<path class="st2" d="M-8.1,465.8v-10.6H6.7v1.3H-5.4v3.2H5.9v1.2H-5.4v3.6H7.2v1.3L-8.1,465.8L-8.1,465.8z"/>
<path class="st2" d="M53.9,465.8v-10.6H63c1.8,0,3.2,0.1,4.2,0.3c0.9,0.2,1.7,0.5,2.3,1c0.6,0.5,0.9,1,0.9,1.6
	c0,0.8-0.5,1.4-1.4,1.9c-0.9,0.5-2.4,0.8-4.4,1c0.7,0.2,1.3,0.4,1.6,0.5c0.8,0.4,1.5,0.8,2.2,1.4l3.6,2.9h-3.4l-2.7-2.2
	c-0.8-0.6-1.4-1.1-2-1.5c-0.5-0.3-1-0.6-1.4-0.7c-0.4-0.1-0.8-0.2-1.2-0.3c-0.3,0-0.8-0.1-1.5-0.1h-3.1v4.7L53.9,465.8L53.9,465.8z
	 M56.6,459.8h5.8c1.2,0,2.2-0.1,2.9-0.2c0.7-0.1,1.2-0.3,1.6-0.6c0.4-0.3,0.5-0.6,0.5-1c0-0.5-0.4-0.9-1.1-1.2
	c-0.7-0.3-1.8-0.5-3.3-0.5h-6.5L56.6,459.8L56.6,459.8z"/>
<path class="st2" d="M117.5,462.4l2.6-0.1c0.1,0.5,0.4,1,0.8,1.3c0.4,0.3,1.1,0.6,2.1,0.8s2,0.3,3.1,0.3c1,0,1.9-0.1,2.7-0.2
	c0.8-0.2,1.4-0.4,1.8-0.7c0.4-0.3,0.6-0.6,0.6-0.9c0-0.3-0.2-0.6-0.6-0.9c-0.4-0.2-1-0.5-1.8-0.6c-0.5-0.1-1.8-0.3-3.6-0.5
	c-1.9-0.2-3.2-0.5-4-0.7c-1-0.3-1.7-0.6-2.2-1c-0.5-0.4-0.7-0.8-0.7-1.3c0-0.5,0.3-1,0.9-1.5c0.6-0.5,1.4-0.8,2.6-1.1
	c1.1-0.2,2.4-0.4,3.8-0.4c1.5,0,2.9,0.1,4,0.4c1.2,0.3,2,0.6,2.7,1.1c0.6,0.5,1,1,1,1.7l-2.6,0.1c-0.1-0.7-0.6-1.2-1.4-1.5
	c-0.8-0.3-2-0.5-3.6-0.5c-1.6,0-2.8,0.2-3.6,0.5c-0.7,0.3-1.1,0.7-1.1,1.1c0,0.4,0.3,0.7,0.8,0.9c0.5,0.2,1.9,0.5,4.1,0.8
	c2.2,0.3,3.7,0.5,4.5,0.7c1.2,0.3,2.1,0.6,2.6,1.1s0.9,0.9,0.9,1.5c0,0.6-0.3,1.1-0.9,1.6c-0.6,0.5-1.5,0.9-2.7,1.2
	s-2.5,0.4-3.9,0.4c-1.9,0-3.4-0.1-4.7-0.4c-1.3-0.3-2.2-0.7-2.9-1.3S117.5,463.1,117.5,462.4z"/>
</svg>
