<?xml version="1.0" encoding="utf-8"?>
<!-- Generator: Adobe Illustrator 15.0.0, SVG Export Plug-In . SVG Version: 6.00 Build 0)  -->
<!DOCTYPE svg PUBLIC "-//W3C//DTD SVG 1.1//EN" "http://www.w3.org/Graphics/SVG/1.1/DTD/svg11.dtd">
<svg version="1.1" id="Calque_1" xmlns="http://www.w3.org/2000/svg" xmlns:xlink="http://www.w3.org/1999/xlink" x="0px" y="0px"
	 width="500px" height="500px" viewBox="0 0 500 500" enable-background="new 0 0 500 500" xml:space="preserve">
<g>
	<rect x="16.403" y="279.602" fill="#083C63" width="469.775" height="19.92"/>
	<path fill="#083C63" d="M64.75,211.23c-5.49,0-15.978-0.104-15.978-0.104h-31.54v64.324h31.54v-19.159
		c0,0,15.097-0.518,20.587-0.518s27.449-2.214,27.449-21.269C96.808,214.343,70.24,211.23,64.75,211.23z M54.997,240.177
		c-1.66,0-6.225,0.139-6.225,0.139v-11.62c0,0,4.565,0.138,6.225,0.138c1.66,0,8.3,0,8.3,5.672S56.657,240.177,54.997,240.177z"/>
	<polygon fill="#083C63" points="134.953,211.681 97.465,211.681 97.465,274.898 98.434,274.898 	"/>
	<polygon fill="#083C63" points="177.974,211.681 215.462,211.681 215.462,274.898 214.493,274.898 	"/>
	<polygon fill="#083C63" points="174.448,274.832 171.541,266.915 145.387,266.897 142.477,274.822 	"/>
	<polygon fill="#083C63" points="165.888,251.515 158.849,232.337 158.069,232.343 151.057,251.448 	"/>
	<path fill="#083C63" d="M254.822,254.562c0,0,0.298-0.091,0.822-0.244l0.026,0.037l14.71,20.957l38.456-0.276
		c0,0-13.28-13.695-17.292-17.845c-4.011-4.15-8.438-6.779-8.438-6.779l-0.083-0.418c8.413-1.476,18.343-5.545,18.343-16.734
		c0-20.162-27.169-22.029-32.84-22.029s-13.704-0.104-13.704-0.104H222.24v64.324h32.581V254.562z M257.449,228.695
		c0,0,4.238,0.132,5.778,0.132c1.542,0,7.705,0,7.705,5.401c0,5.401-6.163,5.401-7.705,5.401c-1.54,0-5.778,0.132-5.778,0.132
		V228.695z"/>
	<polygon fill="#083C63" points="401.726,274.829 369.642,242.337 398.614,211.127 362.094,211.127 341.552,237.85 341.552,211.127 
		308.767,211.127 308.767,274.829 341.552,274.829 341.552,248.624 362.716,274.829 	"/>
	<polygon fill="#083C63" points="485.555,211.127 446.96,211.127 436.69,228.118 426.418,211.127 387.823,211.127 420.609,247.51 
		420.609,275.037 452.978,275.037 452.978,247.279 	"/>
	<g>
		<path fill="#094982" d="M478.25,229.524v-6.226h2.684c0.614,0,1.105,0.167,1.474,0.502c0.369,0.329,0.553,0.77,0.553,1.323
			c0,0.342-0.089,0.653-0.266,0.933c-0.191,0.28-0.44,0.479-0.748,0.595c0.226,0.157,0.403,0.348,0.532,0.572
			c0.137,0.238,0.205,0.487,0.205,0.746l0.041,1.206c0,0.069,0.037,0.161,0.112,0.276l0.041,0.072h-0.777l-0.021-0.041
			c-0.089-0.15-0.134-0.266-0.134-0.348l-0.04-1.167c0-0.3-0.134-0.546-0.4-0.737c-0.245-0.177-0.539-0.266-0.88-0.266h-1.598v2.56
			H478.25z M479.029,226.268h1.905c0.375,0,0.679-0.103,0.91-0.31c0.225-0.214,0.338-0.493,0.338-0.837
			c0-0.338-0.113-0.61-0.338-0.817c-0.231-0.206-0.535-0.31-0.91-0.31h-1.905V226.268z"/>
	</g>
	<g>
		<path fill="#094982" d="M480.122,231.584c-2.746,0-4.98-2.234-4.98-4.98s2.234-4.98,4.98-4.98s4.979,2.234,4.979,4.98
			S482.868,231.584,480.122,231.584z M480.122,222.312c-2.367,0-4.293,1.926-4.293,4.293s1.926,4.293,4.293,4.293
			s4.293-1.926,4.293-4.293S482.49,222.312,480.122,222.312z"/>
	</g>
	<g>
		<path fill="#FFFFFF" d="M22.399,294.88v-10.607h7.679c1.563,0,2.818,0.108,3.763,0.322c0.945,0.216,1.685,0.545,2.22,0.992
			c0.536,0.445,0.803,0.912,0.803,1.399c0,0.453-0.238,0.88-0.713,1.281c-0.474,0.4-1.191,0.724-2.15,0.969
			c1.238,0.189,2.19,0.509,2.855,0.962c0.665,0.454,0.999,0.989,0.999,1.606c0,0.498-0.203,0.959-0.607,1.387
			c-0.405,0.426-0.905,0.755-1.501,0.987c-0.596,0.231-1.343,0.406-2.241,0.524c-0.898,0.119-1.999,0.177-3.302,0.177H22.399z
			 M25.108,288.729h4.426c1.201,0,2.062-0.04,2.583-0.123c0.689-0.105,1.208-0.282,1.557-0.527c0.349-0.246,0.523-0.556,0.523-0.927
			c0-0.352-0.163-0.661-0.489-0.93c-0.326-0.268-0.791-0.451-1.396-0.55c-0.604-0.1-1.643-0.147-3.113-0.147h-4.091V288.729z
			 M25.108,293.629h5.096c0.875,0,1.489-0.018,1.843-0.051c0.624-0.058,1.146-0.154,1.563-0.29c0.419-0.134,0.764-0.331,1.034-0.589
			c0.27-0.259,0.404-0.557,0.404-0.895c0-0.396-0.195-0.739-0.586-1.03c-0.392-0.292-0.933-0.497-1.627-0.614
			c-0.693-0.119-1.691-0.179-2.995-0.179h-4.733V293.629z"/>
		<path fill="#FFFFFF" d="M87.385,294.88l7.861-10.607h2.918l8.377,10.607h-3.086l-2.388-3.213h-8.559l-2.248,3.213H87.385z
			 M93.29,290.524h6.939l-2.136-2.938c-0.652-0.894-1.136-1.626-1.453-2.199c-0.261,0.68-0.628,1.354-1.103,2.026L93.29,290.524z"/>
		<path fill="#FFFFFF" d="M156.563,294.88v-10.607h9.076c1.825,0,3.211,0.095,4.161,0.286c0.95,0.19,1.708,0.527,2.276,1.01
			c0.568,0.481,0.852,1.016,0.852,1.599c0,0.752-0.47,1.387-1.41,1.903c-0.94,0.516-2.392,0.845-4.356,0.984
			c0.717,0.178,1.261,0.354,1.633,0.528c0.791,0.376,1.541,0.846,2.249,1.41l3.56,2.887h-3.407l-2.709-2.206
			c-0.791-0.637-1.443-1.124-1.954-1.462c-0.512-0.337-0.971-0.574-1.375-0.709c-0.405-0.136-0.817-0.229-1.236-0.281
			c-0.306-0.034-0.81-0.053-1.507-0.053h-3.142v4.711H156.563z M159.272,288.954h5.823c1.238,0,2.206-0.066,2.903-0.198
			c0.699-0.133,1.229-0.346,1.592-0.637c0.363-0.292,0.545-0.61,0.545-0.952c0-0.502-0.352-0.914-1.055-1.236
			c-0.703-0.324-1.812-0.485-3.33-0.485h-6.479V288.954z"/>
		<path fill="#FFFFFF" d="M220.097,294.88v-10.607h9.076c1.824,0,3.21,0.095,4.16,0.286c0.949,0.19,1.708,0.527,2.276,1.01
			c0.567,0.481,0.851,1.016,0.851,1.599c0,0.752-0.47,1.387-1.409,1.903c-0.94,0.516-2.393,0.845-4.357,0.984
			c0.717,0.178,1.261,0.354,1.634,0.528c0.791,0.376,1.54,0.846,2.248,1.41l3.561,2.887h-3.407l-2.708-2.206
			c-0.792-0.637-1.443-1.124-1.955-1.462c-0.512-0.337-0.97-0.574-1.375-0.709c-0.404-0.136-0.816-0.229-1.235-0.281
			c-0.307-0.034-0.81-0.053-1.507-0.053h-3.142v4.711H220.097z M222.806,288.954h5.822c1.238,0,2.206-0.066,2.904-0.198
			c0.698-0.133,1.229-0.346,1.592-0.637c0.362-0.292,0.544-0.61,0.544-0.952c0-0.502-0.351-0.914-1.054-1.236
			c-0.703-0.324-1.813-0.485-3.331-0.485h-6.478V288.954z"/>
		<path fill="#FFFFFF" d="M283.856,294.88v-10.607h2.709v10.607H283.856z"/>
		<path fill="#FFFFFF" d="M336.917,294.88v-10.607h14.799v1.253h-12.09v3.248h11.322v1.245h-11.322v3.61h12.565v1.251H336.917z"/>
		<path fill="#FFFFFF" d="M398.921,294.88v-10.607h9.075c1.824,0,3.211,0.095,4.161,0.286c0.949,0.19,1.708,0.527,2.275,1.01
			c0.568,0.481,0.852,1.016,0.852,1.599c0,0.752-0.47,1.387-1.41,1.903c-0.94,0.516-2.392,0.845-4.355,0.984
			c0.716,0.178,1.261,0.354,1.633,0.528c0.792,0.376,1.541,0.846,2.248,1.41l3.561,2.887h-3.407l-2.709-2.206
			c-0.791-0.637-1.442-1.124-1.954-1.462c-0.512-0.337-0.97-0.574-1.375-0.709c-0.405-0.136-0.817-0.229-1.235-0.281
			c-0.308-0.034-0.811-0.053-1.509-0.053h-3.141v4.711H398.921z M401.63,288.954h5.821c1.238,0,2.206-0.066,2.905-0.198
			c0.698-0.133,1.228-0.346,1.591-0.637c0.363-0.292,0.545-0.61,0.545-0.952c0-0.502-0.352-0.914-1.055-1.236
			c-0.702-0.324-1.812-0.485-3.33-0.485h-6.478V288.954z"/>
		<path fill="#FFFFFF" d="M462.511,291.473l2.556-0.116c0.12,0.531,0.402,0.966,0.844,1.307c0.443,0.34,1.129,0.614,2.06,0.824
			s1.979,0.315,3.142,0.315c1.034,0,1.945-0.08,2.737-0.239c0.791-0.159,1.379-0.377,1.766-0.654
			c0.386-0.277,0.579-0.58,0.579-0.908c0-0.334-0.186-0.624-0.558-0.872c-0.373-0.249-0.987-0.457-1.844-0.626
			c-0.549-0.111-1.764-0.283-3.644-0.518c-1.881-0.234-3.197-0.455-3.952-0.662c-0.977-0.265-1.705-0.595-2.184-0.987
			c-0.48-0.394-0.72-0.833-0.72-1.321c0-0.535,0.293-1.036,0.88-1.501c0.586-0.465,1.442-0.818,2.568-1.061
			c1.126-0.241,2.378-0.361,3.756-0.361c1.517,0,2.855,0.127,4.015,0.38c1.158,0.253,2.049,0.626,2.674,1.118
			c0.623,0.492,0.959,1.049,1.005,1.671l-2.597,0.102c-0.14-0.67-0.612-1.177-1.417-1.52c-0.806-0.342-1.995-0.514-3.568-0.514
			c-1.638,0-2.831,0.155-3.581,0.467c-0.749,0.312-1.123,0.687-1.123,1.125c0,0.381,0.265,0.695,0.796,0.94
			c0.521,0.246,1.882,0.499,4.083,0.757c2.202,0.258,3.712,0.483,4.531,0.676c1.191,0.285,2.071,0.646,2.639,1.082
			s0.852,0.939,0.852,1.509c0,0.564-0.312,1.097-0.936,1.596c-0.624,0.499-1.52,0.888-2.688,1.165s-2.482,0.416-3.944,0.416
			c-1.853,0-3.404-0.14-4.656-0.42c-1.253-0.28-2.234-0.7-2.946-1.263S462.549,292.182,462.511,291.473z"/>
	</g>
</g>
</svg>
