<?xml version="1.0" encoding="utf-8"?>
<!-- Generator: Adobe Illustrator 19.1.0, SVG Export Plug-In . SVG Version: 6.00 Build 0)  -->
<svg version="1.1" id="Calque_1" xmlns="http://www.w3.org/2000/svg" xmlns:xlink="http://www.w3.org/1999/xlink" x="0px" y="0px"
	 viewBox="0 0 500 500" style="enable-background:new 0 0 500 500;" xml:space="preserve">
<style type="text/css">
	.st0{fill:#0D0802;}
	.st1{fill:#FFFFFF;}
	.st2{fill:#4E8739;}
	.st3{fill:#1D1D1B;}
</style>
<g>
	<g>
		<polygon class="st0" points="273.4,211.5 46.6,302.6 16.8,325.6 53.6,320 280.4,228.9 287.6,246.7 304,240.1 281.6,184.4 
			265.2,191 		"/>
		<path class="st1" d="M289.1,241.7l7.9-3l-11.9-32.1c0,0-3.2-3.5-6.9-2.4c-3.7,1.2-2,5.3-2,5.3L289.1,241.7z"/>
		<path class="st1" d="M276.5,225.5c0,0,0.7-3.2-0.9-4.6c-5.5,2.2-220.1,87.4-220.1,87.4l-14.7,8.8l10.7-0.6L276.5,225.5z"/>
		<g>
			<path class="st1" d="M275.4,218.4L275.4,218.4c0.2,0.5,0,1-0.5,1.2l-222.6,88l-18.8,11.9c-0.4,0.3-1,0.1-1.2-0.3
				c-0.3-0.4-0.1-1,0.3-1.2l19-11.9l222.8-88C274.7,217.7,275.2,217.9,275.4,218.4z"/>
		</g>
	</g>
	<g>
		<polygon class="st0" points="43.8,132.4 267.2,231.6 304.5,236.9 274.8,214.4 51.4,115.3 59.2,97.7 43.1,90.6 18.7,145.5 
			34.8,152.6 		"/>
		<path class="st1" d="M54.6,100.1l-7.7-3.6l-14.7,30.9c0,0-0.3,4.7,3.1,6.6c3.4,1.8,5.2-2.2,5.2-2.2L54.6,100.1z"/>
		<path class="st1" d="M51.7,120.5c0,0-2.7,1.7-2.7,3.9c5.4,2.4,216.1,96.9,216.1,96.9l16.6,4.4l-7.9-7.2L51.7,120.5z"/>
		<g>
			<path class="st1" d="M47.4,126.2L47.4,126.2c0.2-0.5,0.7-0.7,1.2-0.5L266.9,224l21.6,5.2c0.5,0.1,0.8,0.6,0.7,1.1
				c-0.1,0.5-0.6,0.8-1.1,0.7l-21.8-5.3L47.8,127.4C47.4,127.2,47.2,126.6,47.4,126.2z"/>
		</g>
	</g>
	<polygon class="st2" points="138.1,337.7 405.7,337.7 469.8,304.8 405.7,270.4 138.1,270.4 	"/>
	<rect x="111.9" y="253.7" class="st0" width="33" height="100.3"/>
	<polygon class="st1" points="140.2,286.8 116.3,286.8 116.3,291.5 124.8,291.5 124.8,306.4 131.5,306.4 131.5,291.5 140.2,291.5 	
		"/>
	<polygon class="st1" points="140.2,264.8 140.2,260 122.6,260 116.4,260 116.4,281.3 116.4,281.3 140.1,281.3 140.1,276.3 
		122.6,276.3 122.6,272.6 139.3,272.6 139.3,268.1 122.6,268.1 122.6,264.8 	"/>
	<g>
		<path class="st0" d="M195.8,282.9c-9.5,0-40.4,0-40.4,0l-0.1,42.3h13.4v-10.1h27.7c0,0,12.5-0.3,12.5-14
			C208.9,287.4,205.4,282.9,195.8,282.9z M195.4,299.3c0,4.7-4.2,4.7-4.2,4.7h-21.5v-5.7v-5h21.5c0,0,4.2,0,4.2,4.7V299.3z"/>
		<polygon class="st0" points="329.4,282.6 277.4,282.6 277.4,292.9 295.9,292.9 295.9,325.2 310.5,325.2 310.5,292.9 329.4,292.9 
					"/>
		<polygon class="st0" points="389.1,291.7 389.1,282 354.1,282 341.6,282 341.6,291.7 341.6,298.2 341.6,307.2 341.6,314.5 
			341.6,324.6 341.6,324.7 388.9,324.7 388.9,314.5 354.1,314.5 354.1,307.2 387.4,307.2 387.4,298.2 354.1,298.2 354.1,291.7 		"/>
		<polygon class="st0" points="343.5,267.6 382.1,253.7 388.3,263.3 		"/>
		<polygon class="st0" points="405.1,279.3 405.1,327.4 452.8,305.4 		"/>
		<path class="st0" d="M253.9,282.3h-9.4h-9.4l-23.3,42.8h15.4l3.3-7.3h14.7h13.2l3.3,7.3h15.4L253.9,282.3z M243.8,308.7h-8.7
			l8.2-16.5h1.1h1.6l8.2,16.5H243.8z"/>
	</g>
	<path class="st1" d="M121.7,319.6c0-1.3,1.2-1.2,1.2-1.2s7.6,0,9.4,0c1.8,0,1.6,1.3,1.6,1.3v1h6.3v-3.1c0,0,0.1-4.1-7.3-4.1
		c-7.4,0-10.9,0-12.1,0s-5.1,0.1-5.1,3.8c0,3.6,0,5.5,0,5.5s0.3,3.3,5.3,3.3c0,0,9,0.5,11.2,0.6s2,1,2,1.9c0,1.3-1.2,1.2-1.2,1.2
		s-7.6,0-9.4,0s-1.6-1.3-1.6-1.3v-1h-6.3v3.1c0,0-0.1,4.1,7.3,4.1c7.4,0,10.9,0,12.1,0s5.1-0.1,5.1-3.8c0-3.6,0-5.5,0-5.5
		s-0.3-3.3-5.3-3.3c-4.2,0-9.9-0.4-11.4-0.4C122,321.5,121.7,320.9,121.7,319.6z"/>
	<rect x="117.3" y="340.9" class="st1" width="21.4" height="7"/>
	<g>
		<path class="st3" d="M120.7,381.9h-1.4v-20.1h-5.5v-1.3h12.4v1.3h-5.5V381.9z"/>
		<path class="st3" d="M143.4,381.9h-1.6l-7-10.1h-0.7v10.1h-1.4v-21.4h2.7c1.7,0,3.4,0,4.9,1.1s2.2,2.8,2.2,4.6
			c0,3.7-2.6,5.7-6.1,5.6L143.4,381.9z M135.9,370.5c1.3,0,2.7-0.1,3.8-1c1-0.8,1.5-2.1,1.5-3.4c0-1.6-0.7-3.2-2.3-3.9
			c-1.1-0.5-2.6-0.5-3.8-0.5h-0.9v8.7L135.9,370.5L135.9,370.5z"/>
		<path class="st3" d="M152.9,361.7v7.8h8.6v1.3h-8.6v9.8h8.9v1.3h-10.2v-21.4h10.2v1.3L152.9,361.7L152.9,361.7z"/>
		<path class="st3" d="M172.1,361.7v7.8h7.1v1.3h-7.1v11.1h-1.4v-21.4h8.6v1.3L172.1,361.7L172.1,361.7z"/>
		<path class="st3" d="M188.8,381.9h-1.4v-21.4h1.4V381.9z"/>
		<path class="st3" d="M199,380.6h5.5v1.3h-6.8v-21.4h1.4L199,380.6L199,380.6z"/>
		<path class="st3" d="M212.6,361.7v7.8h8.6v1.3h-8.6v9.8h8.9v1.3h-10.2v-21.4h10.2v1.3L212.6,361.7L212.6,361.7z"/>
		<path class="st3" d="M240.7,381.9h-1.6l-7-10.1h-0.7v10.1H230v-21.4h2.7c1.7,0,3.4,0,4.9,1.1s2.2,2.8,2.2,4.6
			c0,3.7-2.6,5.7-6.1,5.6L240.7,381.9z M233.2,370.5c1.3,0,2.7-0.1,3.8-1c1-0.8,1.5-2.1,1.5-3.4c0-1.6-0.7-3.2-2.3-3.9
			c-1.1-0.5-2.6-0.5-3.8-0.5h-0.9v8.7L233.2,370.5L233.2,370.5z"/>
		<path class="st3" d="M249.5,381.9h-1.4v-21.4h1.4V381.9z"/>
		<path class="st3" d="M259.7,361.7v7.8h8.6v1.3h-8.6v9.8h8.9v1.3h-10.2v-21.4h10.2v1.3L259.7,361.7L259.7,361.7z"/>
		<path class="st3" d="M323.6,381.9h-1.4v-21.4h3.8c1.7,0,3.3,0.1,4.6,1.3c1.3,1.1,1.9,2.7,1.9,4.4c0,1.5-0.6,3.2-1.8,4.2
			c-1.3,1.1-3.1,1.4-4.8,1.4h-2.4L323.6,381.9L323.6,381.9z M326.1,370.4c1.4,0,2.6-0.2,3.7-1.2c0.9-0.9,1.4-2,1.4-3.2
			c0-1.3-0.5-2.7-1.6-3.5s-2.4-0.9-3.8-0.9h-2.2v8.7h2.5V370.4z"/>
		<path class="st3" d="M361.8,371.2c0,6-5.1,11-11.1,11s-11.1-5-11.1-11s5.1-11,11.1-11C356.7,360.2,361.8,365.1,361.8,371.2z
			 M341,371.2c0,5.3,4.4,9.7,9.7,9.7c5.3,0,9.7-4.5,9.7-9.7c0-5.3-4.4-9.7-9.7-9.7S341,365.9,341,371.2z"/>
		<path class="st3" d="M370.6,381.9h-1.4v-21.4h1.4V381.9z"/>
		<path class="st3" d="M399.7,382.6l-18.8-19.1v18.4h-1.4v-21.7l18.8,19v-18.7h1.4V382.6z"/>
		<path class="st3" d="M413.2,381.9h-1.4v-20.1h-5.5v-1.3h12.4v1.3h-5.5V381.9z"/>
		<path class="st3" d="M426.7,361.7v7.8h8.6v1.3h-8.6v9.8h8.9v1.3h-10.2v-21.4h10.2v1.3L426.7,361.7L426.7,361.7z"/>
		<path class="st3" d="M454.9,381.9h-1.6l-7-10.1h-0.7v10.1h-1.4v-21.4h2.7c1.7,0,3.4,0,4.9,1.1s2.2,2.8,2.2,4.6
			c0,3.7-2.6,5.7-6.1,5.6L454.9,381.9z M447.4,370.5c1.3,0,2.7-0.1,3.8-1c1-0.8,1.5-2.1,1.5-3.4c0-1.6-0.7-3.2-2.3-3.9
			c-1.1-0.5-2.6-0.5-3.8-0.5h-0.9v8.7L447.4,370.5L447.4,370.5z"/>
		<path class="st3" d="M464.2,381.9h-1.4v-21.4h1.4V381.9z"/>
		<path class="st3" d="M474,361.7v7.8h8.6v1.3H474v9.8h8.9v1.3h-10.2v-21.4h10.2v1.3L474,361.7L474,361.7z"/>
		<path class="st3" d="M135,399.9c0.1,2.7-0.3,5.1-2.2,7.1c-2,2.2-5.1,3.5-8.1,3.5c-5.9,0-11-5-11-10.9c0-6.1,5-11.1,11.2-11.1
			c3.9,0,7,1.9,9.3,5l-1.1,0.9c-1.9-2.8-4.8-4.6-8.3-4.6c-5.2,0-9.7,4.6-9.7,9.7c0,5.3,4.4,9.7,9.7,9.7c2.3,0,4.5-0.9,6.3-2.4
			c1.8-1.6,2.5-3.4,2.6-5.7H126v-1.3L135,399.9L135,399.9z"/>
		<path class="st3" d="M155.8,410.2h-1.6l-7-10.1h-0.7v10.1h-1.4v-21.4h2.7c1.7,0,3.4,0,4.9,1.1s2.2,2.8,2.2,4.6
			c0,3.7-2.6,5.7-6.1,5.6L155.8,410.2z M148.3,398.8c1.3,0,2.7-0.1,3.8-1c1-0.8,1.5-2.1,1.5-3.4c0-1.6-0.7-3.2-2.3-3.9
			c-1.1-0.5-2.6-0.5-3.8-0.5h-0.9v8.7L148.3,398.8L148.3,398.8z"/>
		<path class="st3" d="M166.4,410.2H165v-21.4h1.4V410.2z"/>
		<path class="st3" d="M178.2,408.9h5.5v1.3h-6.8v-21.4h1.4L178.2,408.9L178.2,408.9z"/>
		<path class="st3" d="M193.3,408.9h5.5v1.3H192v-21.4h1.4L193.3,408.9L193.3,408.9z"/>
		<path class="st3" d="M209.3,403.1l-2.9,7H205l9-22.1l8.9,22.1h-1.4l-2.9-7H209.3z M214,391.5l-4.2,10.3h8.4L214,391.5z"/>
		<path class="st3" d="M251.8,399.9c0.1,2.7-0.3,5.1-2.2,7.1c-2,2.2-5.1,3.5-8.1,3.5c-5.9,0-11-5-11-10.9c0-6.1,5-11.1,11.2-11.1
			c3.9,0,7,1.9,9.3,5l-1.1,0.9c-1.9-2.8-4.8-4.6-8.3-4.6c-5.2,0-9.7,4.6-9.7,9.7c0,5.3,4.4,9.7,9.7,9.7c2.3,0,4.5-0.9,6.3-2.4
			c1.8-1.6,2.5-3.4,2.6-5.7h-7.7v-1.3L251.8,399.9L251.8,399.9z"/>
		<path class="st3" d="M263.1,390v7.8h8.6v1.3h-8.6v9.8h8.9v1.3h-10.2v-21.4H272v1.3L263.1,390L263.1,390z"/>
		<path class="st3" d="M309.6,406.3c-2.4,2-5.1,4-7.9,4c-3.2,0-5.6-2.6-5.6-5.7c0-3.8,3.6-5.9,6.5-7.8c-1-1.4-2.2-2.8-2.2-4.7
			c0-2.3,1.9-4.1,4.2-4.1c2.2,0,3.9,1.8,3.9,4c0,2.4-1.9,3.9-4,5.3l5.3,7.2l2.7-3l1.1,0.6l-3,3.4l3.3,4.3h-1.5L309.6,406.3z
			 M302.1,398.8c-2,1.3-4.6,3-4.6,5.7c0,2.4,1.7,4.5,4.2,4.5s5.1-2.1,7.1-3.8l-5.4-7.3L302.1,398.8z M301.7,392.3
			c0,1.5,1.1,2.7,1.9,4c1.5-1.2,3.4-2.1,3.4-4.3c0-1.4-1.1-2.7-2.6-2.7S301.7,390.8,301.7,392.3z"/>
		<path class="st3" d="M353.3,392.7c-1.6-2-4.5-3.4-7.2-3.4c-5.3,0-9.7,4.6-9.7,9.9c0,2.5,1.1,4.9,2.9,6.6s4.3,3,6.9,3
			c2.5,0,5.6-1.3,7.2-3.3v1.9c-2,1.7-4.5,2.7-7.1,2.7c-6,0-11.2-5-11.2-11c0-6.1,5.1-11,11.2-11c2.6,0,5.2,1,7.1,2.8L353.3,392.7
			L353.3,392.7z"/>
		<path class="st3" d="M365.3,408.4h5.5v1.3H364v-21.4h1.4v20.1H365.3z"/>
		<path class="st3" d="M400.9,399c0,6-5.1,11-11.1,11s-11.1-5-11.1-11s5.1-11,11.1-11S400.9,393,400.9,399z M380,399
			c0,5.3,4.4,9.7,9.7,9.7c5.3,0,9.7-4.5,9.7-9.7c0-5.3-4.4-9.7-9.7-9.7S380,393.7,380,399z"/>
		<path class="st3" d="M415.4,409.7H414v-20.1h-5.5v-1.3h12.4v1.3h-5.5V409.7z"/>
		<path class="st3" d="M442.5,388.3h1.4v13.4c0,2.2,0,4.1-1.4,5.9c-1.4,1.6-3.7,2.5-5.8,2.5c-2.2,0-4.4-0.9-5.8-2.5
			c-1.5-1.8-1.5-3.7-1.5-5.9v-13.4h1.4v13c0,1.9,0,4,1.1,5.4s3.2,2.1,4.8,2.1c1.7,0,3.8-0.7,4.8-2.1c1.1-1.4,1.1-3.5,1.1-5.4v-13
			H442.5z"/>
		<path class="st3" d="M465,409.7h-1.6l-7-10.1h-0.7v10.1h-1.4v-21.4h2.7c1.7,0,3.4,0,4.9,1.1s2.2,2.8,2.2,4.6
			c0,3.7-2.6,5.7-6.1,5.6L465,409.7z M457.5,398.3c1.3,0,2.7-0.1,3.8-1c1-0.8,1.5-2.1,1.5-3.4c0-1.6-0.7-3.2-2.3-3.9
			c-1.1-0.5-2.6-0.5-3.8-0.5h-0.9v8.7L457.5,398.3L457.5,398.3z"/>
		<path class="st3" d="M475.4,389.6v7.8h8.6v1.3h-8.6v9.8h8.9v1.3h-10.2v-21.4h10.2v1.3L475.4,389.6L475.4,389.6z"/>
		<polygon class="st2" points="304.6,362 304.6,381.3 288.1,372 		"/>
	</g>
	<g>
		<polygon class="st0" points="70.5,386.8 71,142.3 81.4,106.2 89.8,142.4 89.3,386.8 108.5,386.9 108.4,404.5 48.4,404.4 
			48.4,386.7 		"/>
		<path class="st1" d="M104.4,390.1l0.1,8.5l-34.2,0.8c0,0-4.5-1.6-4.8-5.5s4.2-3.9,4.2-3.9L104.4,390.1z"/>
		<path class="st1" d="M84.6,384.4c0,0-2.7,1.8-4.6,0.9c0-6-0.4-236.9-0.4-236.9l2.7-17l3.4,10.1L84.6,384.4z"/>
		<g>
			<path class="st1" d="M77.6,386.1C77.6,386.1,77.7,386.1,77.6,386.1c0.5,0,0.9-0.4,0.9-0.9l-0.8-239.4l4.1-21.9
				c0.1-0.5-0.2-1-0.7-1c-0.5-0.1-1,0.2-1,0.7l-4.1,22l0.8,239.6C76.8,385.7,77.2,386.1,77.6,386.1z"/>
		</g>
	</g>
</g>
</svg>
