<?xml version="1.0" encoding="utf-8"?>
<!-- Generator: Adobe Illustrator 19.1.0, SVG Export Plug-In . SVG Version: 6.00 Build 0)  -->
<svg version="1.1" id="Calque_1" xmlns="http://www.w3.org/2000/svg" xmlns:xlink="http://www.w3.org/1999/xlink" x="0px" y="0px"
	 viewBox="-345 170.9 500 500" style="enable-background:new -345 170.9 500 500;" xml:space="preserve">
<style type="text/css">
	.st0{fill:#FFFFFF;}
	.st1{fill:#FFC200;}
	.st2{opacity:0.15;fill:#FFFFFF;enable-background:new    ;}
	.st3{fill:#E32120;}
</style>
<polygon class="st0" points="130.7,377.9 -93.9,284.5 -317.8,377.9 -317.8,510.5 130.7,510.5 "/>
<polygon class="st1" points="130.7,386.9 130.7,377.9 -93.9,284.5 -317.8,377.9 -317.8,387.5 -93.9,293.9 "/>
<path class="st1" d="M-317.8,510.5v34.9c0,8.1,6.6,14.7,14.7,14.7h419c8.1,0,14.7-6.6,14.7-14.7v-34.9H-317.8z"/>
<path class="st2" d="M-312.5,510.5v32.3c0,7.6,6.4,13.7,14.4,13.7h409c8,0,14.4-6.1,14.4-13.7v-32.3H-312.5z"/>
<path class="st0" d="M120.6,520.6h-429.1c-1.9,0-3.4-1.5-3.4-3.4s1.5-3.4,3.4-3.4h429.1c1.9,0,3.4,1.5,3.4,3.4
	S122.5,520.6,120.6,520.6z"/>
<polygon class="st3" points="-88.5,418.9 -96.6,418.9 -96.6,398.4 -123.8,398.4 -123.8,418.9 -131.9,418.9 -131.9,439 -123.8,439 
	-123.8,489.1 -96.6,489.1 -96.6,439 -88.5,439 "/>
<polygon class="st3" points="-42.5,418.9 -50.5,418.9 -50.5,398.4 -77.8,398.4 -77.8,418.9 -85.9,418.9 -85.9,439 -77.8,439 
	-77.8,489.1 -50.5,489.1 -50.5,439 -42.5,439 "/>
<polygon class="st3" points="70.3,453.6 91.8,420 61.3,420 56.3,433.4 51.2,420 20.7,420 42.2,453.6 20.1,488.4 48.9,488.4 
	56.3,471.3 63.6,488.4 92.5,488.4 "/>
<path class="st3" d="M-233.3,389.7c-3,0-7.5,0-9.8,0v-0.1h-28.2v99.2h28.2v-31.8c2.3,0,6.8,0,9.8,0c4.2,0,31-3.6,31-33.6
	C-202.3,393.3-229,389.7-233.3,389.7z M-239.6,434.3c-1.3,0-3.6,0-3.6,0v-25c0,0,2.2,0,3.6,0s9.8,1.3,9.8,12.5
	C-229.8,433-238.3,434.3-239.6,434.3z"/>
<path class="st3" d="M-162.6,418.7v11c-4.3-7.5-10.5-12.2-17.4-12.2c-12.9,0-23.4,16.3-23.4,36.3c0,20.1,10.5,36.3,23.4,36.3
	c6.9,0,13.2-4.7,17.4-12.2v10.7h26.5v-70.1L-162.6,418.7L-162.6,418.7z M-169.5,471.9c-4.1,0-7.5-7.7-7.5-17.2
	c0-9.5,3.4-17.2,7.5-17.2c4.1,0,7.5,7.7,7.5,17.2C-162.1,464.2-165.4,471.9-169.5,471.9z"/>
<path class="st3" d="M24.6,458.9c0.2-1.5,0.3-3.1,0.3-4.6c0-19.8-14.8-35.8-33-35.8c-18.2,0-33,16-33,35.8c0,19.8,14.8,35.8,33,35.8
	c13.8,0,25.6-9.2,30.6-22.2l-23.5,0c0,0-1.5,4.4-6.5,4.4c-8.2,0-7.5-13.2-7.5-13.2L24.6,458.9L24.6,458.9z M-8,435.5
	c3.8,0,7,4.6,7,10.2c0,0.1,0,0.1,0,0.2H-15c0-0.1,0-0.1,0-0.2C-15,440-11.8,435.5-8,435.5z"/>
<path class="st3" d="M93.7,456.2c0-0.2,0-0.4,0-0.6c0-0.2,0-0.4,0-0.5c0-0.2,0-0.4-0.1-0.7c0-0.2-0.1-0.4-0.2-0.6
	c-0.1-0.2-0.2-0.3-0.4-0.5c-0.2-0.1-0.4-0.2-0.6-0.3v0c0.5-0.2,0.8-0.5,1.1-0.9c0.2-0.4,0.3-0.8,0.3-1.3c0-0.3-0.1-0.6-0.2-0.9
	c-0.1-0.3-0.3-0.5-0.5-0.8c-0.2-0.2-0.5-0.4-0.8-0.5c-0.3-0.1-0.7-0.2-1.1-0.2h-4.7v8.7h1.9v-3.4h1.9c0.5,0,0.8,0.1,1,0.3
	c0.2,0.2,0.4,0.5,0.4,1c0,0.4,0.1,0.7,0.1,1.1c0,0.4,0.1,0.7,0.2,1H94c-0.1-0.1-0.2-0.3-0.2-0.4C93.7,456.6,93.7,456.4,93.7,456.2z
	 M91.5,452.1c-0.2,0.2-0.6,0.3-1,0.3h-2.1v-2.5h2.1c0.4,0,0.8,0.1,1,0.3c0.2,0.2,0.3,0.5,0.3,0.9C91.8,451.6,91.7,451.9,91.5,452.1z
	"/>
<path class="st3" d="M90,445.1c-4.2,0-7.7,3.5-7.7,7.7s3.5,7.7,7.7,7.7c4.2,0,7.7-3.5,7.7-7.7S94.2,445.1,90,445.1z M90,459.4
	c-3.6,0-6.6-3-6.6-6.6c0-3.6,3-6.6,6.6-6.6c3.6,0,6.6,3,6.6,6.6C96.6,456.4,93.6,459.4,90,459.4z"/>
</svg>
