<?xml version="1.0" encoding="utf-8"?>
<!-- Generator: Adobe Illustrator 21.0.2, SVG Export Plug-In . SVG Version: 6.00 Build 0)  -->
<svg version="1.1" id="Calque_1" xmlns="http://www.w3.org/2000/svg" xmlns:xlink="http://www.w3.org/1999/xlink" x="0px" y="0px"
	 viewBox="0 0 500 500" style="enable-background:new 0 0 500 500;" xml:space="preserve">
<style type="text/css">
	.st0{fill:#A41F35;}
	.st1{fill:#FFFFFF;}
</style>
<polygon class="st0" points="485,15 15,15 15,15 15,15 15,485 15,485 485,485 485,485 485,485 485,485 "/>
<path id="n_1_" class="st1" d="M397.7,95.5c-1.4,0.3-2.3,1.3-2.3,2.9v3.4c0,1.2,0.7,2.3,2.3,2.3h40.2c1.6,0,2.3-1.1,2.3-2.3v-5.5
	c0-1.2-0.7-2.3-2.3-2.3h-31.3c-2.3-2.5-4-5.5-4-8.8c0-3.2,1.1-4.8,5.9-4.8h29.3c1.6,0,2.3-1.1,2.3-2.3v-5.5c0-1.2-0.7-2.3-2.3-2.3
	h-32c-8.3,0-11.7,4.2-11.7,11.3c0,5.5,2.5,9.7,6.1,13.3L397.7,95.5z"/>
<path id="n" class="st1" d="M397.7,142.4c-1.4,0.3-2.3,1.3-2.3,2.9v3.4c0,1.2,0.7,2.3,2.3,2.3h40.2c1.6,0,2.3-1.1,2.3-2.3v-5.5
	c0-1.2-0.7-2.3-2.3-2.3h-31.3c-2.3-2.5-4-5.5-4-8.8c0-3.2,1.1-4.8,5.9-4.8h29.3c1.6,0,2.3-1.1,2.3-2.3v-5.5c0-1.2-0.7-2.3-2.3-2.3
	h-32c-8.3,0-11.7,4.2-11.7,11.3c0,5.5,2.5,9.7,6.1,13.3L397.7,142.4z"/>
<path id="a_1_" class="st1" d="M399.6,195.3c0.4,0,0.8-0.1,1.1-0.3l2.7-1.2c1-0.4,1.2-1.1,1.2-1.9c0-0.4-0.1-0.7-0.3-1.1
	c-1.5-3.7-1.9-6.9-1.9-10.8c0-5,2.6-5.6,7.4-5.6h2.5v3.2c0,14,4.5,20,14.8,20c9,0,14.1-4.5,14.1-13.4c0-4.8-2.4-8.3-5-10.8l2-0.6
	c1.1-0.4,1.8-1.2,1.8-2.5v-3.6c0-1.2-0.7-2.3-2.3-2.3h-29.7c-10,0-14,4.7-14,14.7c0,6.2,0.8,11.1,3.2,15.3
	C397.9,194.9,398.6,195.3,399.6,195.3z M418.9,174.3h11.3c1.8,1.8,3.8,4.2,3.8,7.6c0,3.9-1.8,5.4-6.9,5.4c-5.6,0-8.2-1.7-8.2-11.3
	V174.3z"/>
<path id="m" class="st1" d="M394.3,240.4c0,5.1,2.5,8.9,6,12.6l-2.5,0.5c-1.4,0.3-2.3,1.3-2.3,2.9v3.4c0,1.2,0.7,2.3,2.3,2.3h40.2
	c1.6,0,2.3-1.1,2.3-2.3v-5.5c0-1.2-0.7-2.3-2.3-2.3h-31.3c-2.2-2.5-4-5.2-4-7.9c0-3,1.1-4.2,5.8-4.2h29.4c1.6,0,2.3-1.1,2.3-2.3
	v-5.5c0-1.2-0.7-2.3-2.3-2.3h-31.5c-2.1-2.5-3.7-5.3-3.7-7.9c0-3,1.1-4.2,5.8-4.2h29.4c1.6,0,2.3-1.1,2.3-2.3v-5.5
	c0-1.2-0.7-2.3-2.3-2.3h-32.1c-8.3,0-11.5,4.2-11.5,10.6c0,4.9,2.3,8.9,5.8,12.7C396,232.6,394.3,235.9,394.3,240.4z"/>
<path id="l" class="st1" d="M379.4,294.2h3.8c1.2,0,2.3-1,2.3-2.3v-4.3h42.8c8.7,0,12.8-2,12.8-9.6c0-1.8-0.4-4.1-0.8-5.9
	c-0.3-1.1-1.1-1.7-2-1.7c-0.3,0-0.8,0.1-1.3,0.2l-2.9,0.5c-0.6,0.1-1,0.4-1,1.1c0,0.4,0.2,1.6,0.2,2.2c0,2.5-0.6,3.1-3.5,3.1h-50.4
	c-1.2,0-2.3,1-2.3,2.3v12.1C377.1,293.2,378.2,294.2,379.4,294.2z"/>
<path id="u" class="st1" d="M438.3,310c1.1-0.3,1.8-1.2,1.8-2.5v-3.6c0-1.2-0.7-2.3-2.3-2.3h-40.2c-1.6,0-2.3,1.1-2.3,2.3v5.5
	c0,1.2,0.7,2.3,2.3,2.3h31.2c2.4,2.6,4.1,5.4,4.1,8.5c0,3.2-1.4,5-6.2,5h-29.1c-1.6,0-2.3,1.1-2.3,2.3v5.5c0,1.2,0.7,2.3,2.3,2.3
	h31.4c8.3,0,12.2-5.1,12.2-11.9c0-5.6-2.5-9-6.1-12.6L438.3,310z"/>
<path id="a" class="st1" d="M438.3,356.9c1.1-0.4,1.8-1.2,1.8-2.5v-3.6c0-1.2-0.7-2.3-2.3-2.3h-29.7c-10,0-14,4.7-14,14.7
	c0,6.2,0.8,11.1,3.2,15.3c0.4,0.7,1.1,1.1,2.1,1.1c0.4,0,0.8-0.1,1.1-0.3l2.7-1.2c1-0.4,1.2-1.1,1.2-1.9c0-0.4-0.1-0.7-0.3-1.1
	c-1.5-3.7-1.9-6.9-1.9-10.8c0-5,2.6-5.6,7.4-5.6h2.5v3.2c0,14,4.5,20,14.8,20c9,0,14.1-4.5,14.1-13.4c0-4.8-2.4-8.3-5-10.8
	L438.3,356.9z M427.1,371.5c-5.6,0-8.2-1.7-8.2-11.3v-1.6h11.3c1.8,1.8,3.8,4.2,3.8,7.6C434,370,432.3,371.5,427.1,371.5z"/>
<path id="P_1_" class="st1" d="M437.8,408h-4.1c-1.3,0-2.4,1.1-2.4,2.4v4.5h-13.9v-8.3c0-14.7-7.6-19.6-19.6-19.6
	c-13,0-18.7,7.1-18.7,20.6v22c0,1.3,1.1,2.4,2.3,2.4h4.2c1.2,0,2.3-1.1,2.3-2.4v-4.1h43.4v4.1c0,1.2,1.1,2.4,2.4,2.4h4.1
	c1.3,0,2.4-1.1,2.4-2.4v-19.3C440.2,409.1,439.1,408,437.8,408z M408.6,414.9h-20.4v-7.7c0-6.2,2.5-9,10.4-9c7.6,0,10,2.9,10,9
	V414.9z"/>
<path id="P" class="st1" d="M73.9,430.3h121.4c9.3,0,13.9-4.6,13.9-13.9V392c0-9.3-4.6-13.9-13.9-13.9h-26.3v-77h36.2
	c90.4,0,131.7-47.5,131.7-115.7c0-68.2-41.3-115.7-131.7-115.7H73.9c-9.3,0-13.9,4.7-13.9,13.9V108c0,9.3,4.6,13.9,13.9,13.9H94
	v256.2H73.9c-9.3,0-13.9,4.6-13.9,13.9v24.3C59.9,425.6,64.6,430.3,73.9,430.3z M168.9,121.9h34.6c35.6,0,57.8,24.3,57.8,63.5
	S239.2,249,203.5,249h-34.6V121.9z"/>
</svg>
