<?xml version="1.0" encoding="utf-8"?>
<!-- Generator: Adobe Illustrator 21.0.2, SVG Export Plug-In . SVG Version: 6.00 Build 0)  -->
<svg version="1.1" id="Calque_1" xmlns="http://www.w3.org/2000/svg" xmlns:xlink="http://www.w3.org/1999/xlink" x="0px" y="0px"
	 viewBox="0 0 500 378" style="enable-background:new 0 0 500 378;" xml:space="preserve">
<style type="text/css">
	.st0{fill:#E32120;}
	.st1{fill:#003BB2;}
	.st2{fill:#FF0000;}
	.st3{fill:#020202;}
</style>
<path class="st0" d="M248,211.4c0-14.1-15.3-21.7-15.3-21.7s14.4-8.5,14.1-25.2c-0.5-28.1-55.4-26.3-55.4-26.3H169l-26,114.1h24.7
	C239.5,252.3,248,225.2,248,211.4z M172.2,232l16.5-72.4c3.2,0,9.7,0,13.2,0c4.8,0,16.8,1.9,16.8,11s-14.7,14.8-26.8,14.2l-4.4,19.4
	c0,0,11.2,0,16.9,0s16.3,1.7,16.3,10.8C220.7,224.2,215.4,233.8,172.2,232z"/>
<path class="st1" d="M287,179.8h18.4l5.6-19.2h-20c3-14.2,5.4-25.7,5.4-25.7L273.8,147c0,0-1.2,5.4-2.9,13.6h-6.1l-8.1,19.2h10.4
	c-3.2,16.8-6.5,36.4-7.6,49.9c-2.2,28.2,29.8,22,29.8,22s2.8-6.2,8.4-19.5c-16.1,1.6-19.5-6.5-17.1-20.5
	C281.6,206.3,284.2,193.5,287,179.8z"/>
<path class="st1" d="M376.2,160.3h18.6l-20.5,91.5h-17.4l1.9-11.8c0,0-6.8,12.7-28.5,12.7c-21.7,0-17.7-25.7-15.2-35.7
	c2.5-9.9,12.4-56.8,12.4-56.8h18.6l-12.4,55.2c0,0-3.7,16.1,9.9,17.4c13.6,1.2,19.2-12.4,21.4-22
	C367.2,201.2,376.2,160.3,376.2,160.3z"/>
<path class="st1" d="M452.6,157.4c-7.8,0-15.7,2.8-22.9,7.6l7.3-37h-20.5c0,0-5,27.9-12.7,70.1c-0.5,2.9-0.9,5.6-1.3,8.2
	c-1.7,8.2-1.5,15.9,0.1,22.7c1.9,10.3,6.2,14.5,8.6,16.1c5.2,5.3,12.1,8.4,20.4,8.4c21.8,0,44.1-21.5,49.9-48
	C487.3,178.9,474.3,157.4,452.6,157.4z M463.4,205.4c-3.1,15.7-15.2,28.4-26.9,28.4s-18.7-12.7-15.6-28.4
	c3.1-15.7,15.2-28.4,26.9-28.4C459.5,177,466.5,189.7,463.4,205.4z"/>
<path class="st0" d="M105.1,139.8c-6.2,0-31.8-0.4-31.8-0.4L48.5,251.9l26.6-0.3l6.1-32.4c28.5,2.1,71.6-14.1,71.6-46.3
	S111.3,139.8,105.1,139.8z M85,199.3l7.8-39.3c0,0,34-1.8,32.9,16.2C124.4,201.4,85,199.3,85,199.3z"/>
<path class="st2" d="M117.1,112.5c-1.7,0-3.3-1.2-3.6-3c-0.4-2,0.9-4,2.9-4.4c1.6-0.3,157.3-32.3,310.4-28.6c2.1,0,3.7,1.8,3.6,3.8
	c0,2.1-1.7,3.7-3.8,3.6c-152.3-3.7-307.2,28.1-308.7,28.5C117.6,112.5,117.4,112.5,117.1,112.5z"/>
<path class="st2" d="M17.2,329c-1.7,0-3.2-1.1-3.6-2.8c-0.5-2,0.7-4,2.7-4.5c1.3-0.3,136.4-33.7,258.1-41.7c2.1-0.1,3.8,1.4,4,3.5
	c0.1,2.1-1.4,3.8-3.5,4c-121.1,8-255.5,41.1-256.8,41.5C17.8,329,17.5,329,17.2,329z"/>
<path class="st3" d="M336.6,332.5c-27,0-54-16.9-76.2-47.5c-22.2-30.7-36.6-71.3-40.6-114.2c-5-54.1,7.6-102.9,33.8-130.5
	c14.3-15.1,31.8-22.7,50.5-21.9c22.4,0.9,45.6,14,65.2,36.8c0.4,0.5,0.4,1.3-0.1,1.8c-0.5,0.4-1.3,0.4-1.7-0.1
	c-19.2-22.5-41.7-35.3-63.5-36.1c-18-0.7-34.8,6.6-48.6,21.1c-25.7,27.1-38.1,75.2-33.1,128.6c4,42.5,18.2,82.7,40.1,113
	c21.7,30,48,46.5,74.2,46.5c0.2,0,0.4,0,0.5,0c24.2-0.2,45.7-15,60.5-41.6c0.3-0.6,1.1-0.8,1.7-0.5c0.6,0.3,0.8,1.1,0.5,1.7
	c-15.2,27.5-37.4,42.7-62.6,42.9C337,332.5,336.8,332.5,336.6,332.5z"/>
<path class="st3" d="M163.6,121.8c-0.1,0-0.1,0-0.2,0c-0.7-0.1-1.2-0.8-1.1-1.5c5.3-33.4,17.4-61.6,34.1-79.4
	c0.5-0.5,1.3-0.6,1.8-0.1s0.6,1.3,0.1,1.8c-16.3,17.4-28.2,45.2-33.4,78C164.7,121.4,164.2,121.8,163.6,121.8z"/>
<path class="st3" d="M269.1,364.2c-0.1,0-0.1,0-0.2,0c-17.6-2.4-35.3-12.8-51.2-29.9c-15.5-16.7-29-39.4-39.1-65.6
	c-0.3-0.7,0.1-1.4,0.7-1.7c0.7-0.3,1.4,0.1,1.7,0.7c20.4,53.3,54.2,89.2,88.2,93.9c0.7,0.1,1.2,0.8,1.1,1.5
	C270.3,363.8,269.7,364.2,269.1,364.2z"/>
</svg>
