<?xml version="1.0" encoding="utf-8"?>
<!-- Generator: Adobe Illustrator 21.0.2, SVG Export Plug-In . SVG Version: 6.00 Build 0)  -->
<svg version="1.1" id="Calque_1" xmlns="http://www.w3.org/2000/svg" xmlns:xlink="http://www.w3.org/1999/xlink" x="0px" y="0px"
	 viewBox="0 0 500 386" style="enable-background:new 0 0 500 386;" xml:space="preserve">
<style type="text/css">
	.st0{fill:#1B67A1;}
	.st1{fill:#808280;}
</style>
<polygon class="st0" points="266.1,27.8 266.1,21 249.6,21 250.2,27.8 "/>
<path class="st0" d="M465.8,189.2c-1-6.5-2.9-8.4-2.9-8.4l-3.4-4.6l-2.3-6.8l1.7-6.8l-6.3-2.8l-2.3-5.1c0,0,0.9-8.2-1.1-8
	s-6.3-6.2-6.3-6.2s1.7-7.3,0-10.8c-1.7-3.5-11.4-2.3-11.4-2.3s1.4-9.7-1.1-11.9c-2.5-2.2-9.7,0-9.7,0l-9.1-5.7c0,0,4.4-5.7,0.4-8.2
	s-35.8-0.3-35.8-0.3s15.8-11.5,14.3-16c-1.3-4.5-50.5-5.2-50.5-5.2s17.7-3.3,18.2-6.8s-27.9-0.6-27.9-0.6l1.7-8l-29.9-0.3
	c0,0,7-8.3,5.5-12.8s-23.9-1.1-23.9-1.1s10.5-6.3,11.4-10.2c1-4-10.8-6.8-10.8-6.8s-34.7-4-35.2,0s13.2,33.6,6.3,33.6
	c-7,0-47.4-1-48.3,2.3c-1,3.2,9.1,9.7,9.1,9.7s-41.3,0.8-44.3,3s13.7,12.5,13.7,12.5s-35.3,0.9-38.3,3.9s6.4,12.4,6.4,12.4
	s-27.8,3.8-31.3,4.5s1.1,10.2-2.9,10.2s-10.7,0-14.2,1.7c-3.5,1.8,5.7,13.7,5.7,13.7s-27.8-2.7-25,2.3c2.7,5,3.3,13.1,3.3,13.1
	s-34.8-0.5-47.2,3.9c-14.9,5.2-16.4,11.5-16.4,11.5l30.1,2.8c0,0-9.1,8.7-7.4,10.2s16.5,1.1,16.5,1.1s-4.2,15-1.7,16.5
	s5.7,1.1,5.7,1.1l5.7,29.6l10.2-15.9c0,0,4.5,2.6,8,0.6s-0.6-11.4-0.6-11.4s6.3-0.1,6.8-5.1s1.1-11.9,1.1-11.9s2.1,1.1,2.6-3.6
	s0.5-16.8,0.5-16.8l32.1-0.1l15.3,1.6l-10.7-11.3c0,0,68.6-1.2,65.4-3.4c-3.2-2.2,20.8,5.3,30.7,4.5c10-0.7,50,2.3,50,2.3
	s-18.7,5.6-18.2,9.1s35.3,2.8,35.3,2.8s-5.5,12.7-4.5,18.2s25.6,2.3,25.6,2.3s-1.8,11.8,4,12.5c5.7,0.7,26.5-1.7,29-7.4
	c2.5-5.7-9.4-4.6,0.6-9.1s26.7-0.3,26.7-0.3s10.2,5.2,23.7,6.2c13.4,1,26.6-2.5,26.6-2.5l12.2,6l-22.8,4.8h24c0,0,12.9,9.2,20-1.3
	C474.3,194.9,466.8,195.7,465.8,189.2z M219.5,147.8c-3.5,2.5-31.9,3.4-31.9,3.4s-1-5.4,4-7.4C196.6,141.9,223,145.3,219.5,147.8z"
	/>
<polygon class="st0" points="294.2,205.3 310,205.5 310.9,199.8 296.3,199.8 "/>
<path class="st1" d="M37.5,277.7c3.9-0.7,9-1.2,15.5-1.2c8,0,13.8,1.7,17.5,4.6c3.4,2.7,5.5,6.7,5.5,11.7c0,5.1-1.7,9-4.9,11.9
	c-4.3,4.1-11.2,6.1-19.1,6.1c-2.4,0-4.6-0.1-6.5-0.5v22.4h-8.1v-55H37.5z M45.6,304.6c1.8,0.4,4.1,0.6,6.7,0.6
	c9.8,0,15.6-4.3,15.6-11.9c0-7.5-5.8-11-14.7-11c-3.5,0-6.2,0.3-7.6,0.6V304.6z"/>
<path class="st1" d="M118.9,306.7H94.8v20.2h27v6.1H86.6v-55.9h33.8v6.1H94.8v17.7h24.1L118.9,306.7L118.9,306.7z"/>
<path class="st1" d="M132.2,277h8.1v49.8H167v6.1h-34.8V277z"/>
<path class="st1" d="M175.9,277h8.1v49.8h26.7v6.1h-34.8V277z"/>
<path class="st1" d="M251.8,306.7h-24.1v20.2h27v6.1h-35.2v-55.9h33.8v6.1h-25.6v17.7h24.1V306.7z"/>
<path class="st1" d="M277,283.1h-19V277h46.2v6.1h-19.1v49.8H277V283.1L277,283.1z"/>
<path class="st1" d="M340.9,315.3l-6.5,17.6h-8.3l21.2-55.9h9.7l21.3,55.9h-8.6l-6.7-17.6H340.9z M361.3,309.7l-6.2-16.1
	c-1.3-3.7-2.2-7-3.1-10.2h-0.3c-0.8,3.2-1.9,6.7-3.1,10.1l-6.1,16.2H361.3L361.3,309.7z"/>
<path class="st1" d="M386.4,324.1c3.6,2.1,8.8,3.6,14.3,3.6c8.2,0,13.1-3.8,13.1-9.5c0-5.1-3.3-8.2-11.7-11
	c-10.2-3.3-16.5-8.1-16.5-15.9c0-8.7,8-15.2,20.2-15.2c6.3,0,11,1.3,13.7,2.7l-2.2,5.9c-1.9-1.1-6.1-2.7-11.8-2.7
	c-8.5,0-11.7,4.6-11.7,8.4c0,5.2,3.8,7.8,12.4,10.8c10.6,3.7,15.8,8.2,15.8,16.4c0,8.6-7,16.2-21.8,16.2c-6,0-12.6-1.7-15.9-3.7
	L386.4,324.1z"/>
<path class="st1" d="M476.6,331.1c-2.9,1.3-8.9,2.7-16.5,2.7c-17.6,0-30.7-10-30.7-28.4c0-17.6,13.2-29.4,32.6-29.4
	c7.7,0,12.7,1.5,14.8,2.5l-2,5.9c-3-1.3-7.3-2.3-12.5-2.3c-14.6,0-24.4,8.4-24.4,23.1c0,13.8,8.8,22.5,23.9,22.5
	c5,0,10-0.9,13.2-2.3L476.6,331.1z"/>
<path class="st1" d="M39.6,359.8l-2.9,7.9h-3.8l9.7-25.2H47l9.7,25.2h-3.9l-3-7.9H39.6z M48.9,357.3l-2.8-7.2
	c-0.6-1.6-1-3.1-1.4-4.6h-0.1c-0.4,1.5-0.8,3-1.4,4.5l-2.8,7.3H48.9z"/>
<path class="st1" d="M80,366.9c-1.3,0.6-4.1,1.2-7.5,1.2c-8,0-14-4.5-14-12.8c0-7.9,6-13.2,14.9-13.2c3.5,0,5.8,0.7,6.8,1.1
	l-0.9,2.6c-1.3-0.6-3.3-1-5.7-1c-6.7,0-11.1,3.8-11.1,10.4c0,6.2,4,10.1,10.9,10.1c2.3,0,4.6-0.4,6-1L80,366.9z"/>
<path class="st1" d="M103.5,366.9c-1.3,0.6-4.1,1.2-7.5,1.2c-8,0-14-4.5-14-12.8c0-7.9,6-13.2,14.9-13.2c3.5,0,5.8,0.7,6.8,1.1
	l-0.9,2.6c-1.3-0.6-3.3-1-5.7-1c-6.7,0-11.1,3.8-11.1,10.4c0,6.2,4,10.1,10.9,10.1c2.3,0,4.6-0.4,6-1L103.5,366.9z"/>
<path class="st1" d="M122.9,355.9h-11v9.1h12.4v2.7h-16.1v-25.2h15.4v2.7h-11.7v7.9h11L122.9,355.9L122.9,355.9z"/>
<path class="st1" d="M128.5,363.8c1.7,0.9,4,1.6,6.6,1.6c3.8,0,5.9-1.7,5.9-4.3c0-2.3-1.5-3.7-5.4-5c-4.6-1.5-7.5-3.7-7.5-7.2
	c0-3.9,3.7-6.8,9.2-6.8c2.9,0,5,0.6,6.2,1.2l-1,2.6c-0.9-0.5-2.8-1.2-5.4-1.2c-3.9,0-5.4,2.1-5.4,3.8c0,2.3,1.7,3.5,5.7,4.9
	c4.8,1.7,7.2,3.7,7.2,7.4c0,3.9-3.2,7.3-9.9,7.3c-2.7,0-5.7-0.8-7.3-1.6L128.5,363.8z"/>
<path class="st1" d="M149.3,363.8c1.6,0.9,4,1.6,6.5,1.6c3.8,0,6-1.7,6-4.3c0-2.3-1.5-3.7-5.4-5c-4.6-1.5-7.5-3.7-7.5-7.2
	c0-3.9,3.7-6.8,9.2-6.8c2.9,0,5,0.6,6.2,1.2l-1,2.6c-0.9-0.5-2.8-1.2-5.4-1.2c-3.9,0-5.3,2.1-5.3,3.8c0,2.3,1.7,3.5,5.6,4.9
	c4.8,1.7,7.2,3.7,7.2,7.4c0,3.9-3.2,7.3-9.9,7.3c-2.7,0-5.7-0.8-7.3-1.6L149.3,363.8z"/>
<path class="st1" d="M181.7,368.1c-7.6,0-12.8-5.2-12.8-12.8c0-8,5.6-13.2,13.2-13.2c7.8,0,12.8,5.3,12.8,12.7
	C194.9,363.5,189,368.1,181.7,368.1L181.7,368.1L181.7,368.1z M181.9,365.5c5.8,0,9.1-4.8,9.1-10.5c0-5-2.9-10.2-9.1-10.2
	s-9.2,5-9.2,10.5C172.8,360.6,176.1,365.5,181.9,365.5L181.9,365.5L181.9,365.5z"/>
<path class="st1" d="M203.4,342.6v25.2h-3.7v-25.2H203.4z"/>
<path class="st1" d="M209.8,342.9c1.9-0.3,4.6-0.6,7.1-0.6c3.9,0,6.5,0.7,8.3,2.1c1.4,1.1,2.2,2.8,2.2,4.8c0,3.3-2.4,5.5-5.4,6.4
	v0.1c2.1,0.7,3.5,2.5,4.2,5.1c0.9,3.5,1.6,5.9,2.2,6.9h-3.8c-0.5-0.7-1.1-2.9-1.8-6c-0.8-3.5-2.4-4.8-5.7-4.9h-3.5v10.9h-3.7
	L209.8,342.9L209.8,342.9z M213.5,354.3h3.8c3.9,0,6.4-1.9,6.4-4.8c0-3.2-2.7-4.7-6.6-4.7c-1.8,0-3,0.2-3.6,0.3V354.3z"/>
<path class="st1" d="M247.2,355.9h-11v9.1h12.3v2.7h-16.1v-25.2h15.4v2.7h-11.7v7.9h11L247.2,355.9L247.2,355.9z"/>
<path class="st1" d="M252.8,363.8c1.7,0.9,4,1.6,6.6,1.6c3.8,0,6-1.7,6-4.3c0-2.3-1.5-3.7-5.4-5c-4.6-1.5-7.5-3.7-7.5-7.2
	c0-3.9,3.7-6.8,9.2-6.8c2.9,0,5,0.6,6.2,1.2l-1,2.6c-0.9-0.5-2.8-1.2-5.4-1.2c-3.9,0-5.4,2.1-5.4,3.8c0,2.3,1.7,3.5,5.7,4.9
	c4.8,1.7,7.2,3.7,7.2,7.4c0,3.9-3.2,7.3-9.9,7.3c-2.7,0-5.7-0.8-7.3-1.6L252.8,363.8z"/>
<path class="st1" d="M282.6,363.8c1.6,0.9,4,1.6,6.6,1.6c3.8,0,5.9-1.7,5.9-4.3c0-2.3-1.5-3.7-5.4-5c-4.7-1.5-7.5-3.7-7.5-7.2
	c0-3.9,3.7-6.8,9.2-6.8c2.9,0,5,0.6,6.2,1.2l-1,2.6c-0.9-0.5-2.8-1.2-5.4-1.2c-3.9,0-5.4,2.1-5.4,3.8c0,2.3,1.7,3.5,5.7,4.9
	c4.8,1.7,7.2,3.7,7.2,7.4c0,3.9-3.2,7.3-9.9,7.3c-2.7,0-5.7-0.8-7.3-1.6L282.6,363.8z"/>
<path class="st1" d="M308.5,359.8l-2.9,7.9h-3.8l9.7-25.2h4.4l9.7,25.2h-4l-3-7.9H308.5z M317.9,357.3l-2.8-7.2
	c-0.6-1.6-1-3.1-1.4-4.6h-0.1c-0.4,1.5-0.8,3-1.4,4.5l-2.8,7.3H317.9z"/>
<path class="st1" d="M329.8,367.7v-25.2h4l9.1,12.7c2.1,2.9,3.8,5.6,5.1,8.2h0.1c-0.4-3.4-0.4-6.4-0.4-10.3v-10.6h3.5v25.2h-3.8
	l-9-12.8c-2-2.8-3.9-5.7-5.3-8.4H333c0.2,3.2,0.3,6.2,0.3,10.4v10.8L329.8,367.7L329.8,367.7z"/>
<path class="st1" d="M361.2,342.6v25.2h-3.7v-25.2H361.2z"/>
<path class="st1" d="M373,345.3h-8.7v-2.8h21.1v2.8h-8.7v22.4H373V345.3z"/>
<path class="st1" d="M390.1,359.8l-2.9,7.9h-3.8l9.7-25.2h4.4l9.7,25.2h-3.9l-3.1-7.9H390.1z M399.4,357.3l-2.8-7.2
	c-0.6-1.6-1-3.1-1.4-4.6H395c-0.4,1.5-0.8,3-1.4,4.5l-2.8,7.3H399.4z"/>
<path class="st1" d="M415,342.6v25.2h-3.7v-25.2H415z"/>
<path class="st1" d="M421.4,342.9c1.9-0.3,4.6-0.6,7.1-0.6c3.9,0,6.5,0.7,8.3,2.1c1.4,1.1,2.2,2.8,2.2,4.8c0,3.3-2.4,5.5-5.4,6.4
	v0.1c2.2,0.7,3.5,2.5,4.2,5.1c0.9,3.5,1.6,5.9,2.2,6.9h-3.8c-0.5-0.7-1.1-2.9-1.9-6c-0.8-3.5-2.4-4.8-5.7-4.9h-3.5v10.9h-3.7V342.9
	L421.4,342.9z M425.1,354.3h3.8c3.9,0,6.4-1.9,6.4-4.8c0-3.2-2.7-4.7-6.6-4.7c-1.8,0-3,0.2-3.6,0.3
	C425.1,345.1,425.1,354.3,425.1,354.3z"/>
<path class="st1" d="M458.8,355.9h-11v9.1h12.3v2.7h-16v-25.2h15.4v2.7h-11.7v7.9h11C458.8,353.1,458.8,355.9,458.8,355.9z"/>
<path class="st1" d="M464.4,363.8c1.7,0.9,4,1.6,6.6,1.6c3.8,0,6-1.7,6-4.3c0-2.3-1.5-3.7-5.4-5c-4.6-1.5-7.5-3.7-7.5-7.2
	c0-3.9,3.7-6.8,9.2-6.8c2.9,0,5,0.6,6.3,1.2l-1,2.6c-0.9-0.5-2.8-1.2-5.4-1.2c-3.9,0-5.4,2.1-5.4,3.8c0,2.3,1.7,3.5,5.7,4.9
	c4.8,1.7,7.2,3.7,7.2,7.4c0,3.9-3.2,7.3-9.9,7.3c-2.7,0-5.7-0.8-7.3-1.6L464.4,363.8z"/>
</svg>
