<?xml version="1.0" encoding="utf-8"?>
<!-- Generator: Adobe Illustrator 15.0.0, SVG Export Plug-In . SVG Version: 6.00 Build 0)  -->
<!DOCTYPE svg PUBLIC "-//W3C//DTD SVG 1.1//EN" "http://www.w3.org/Graphics/SVG/1.1/DTD/svg11.dtd">
<svg version="1.1" id="Calque_1" xmlns="http://www.w3.org/2000/svg" xmlns:xlink="http://www.w3.org/1999/xlink" x="0px" y="0px"
	 width="500px" height="500px" viewBox="0 0 500 500" enable-background="new 0 0 500 500" xml:space="preserve">
<g>
	<g>
		<g>
			<polygon fill="#1B67A1" points="266.123,84.839 266.123,78.018 249.621,78.018 250.197,84.839 			"/>
			<path fill="#1B67A1" d="M465.782,246.229c-1.004-6.464-2.887-8.409-2.887-8.409l-3.439-4.557l-2.259-6.827l1.719-6.815
				l-6.262-2.843l-2.272-5.121c0,0,0.854-8.208-1.142-7.963c-1.996,0.25-6.264-6.25-6.264-6.25s1.744-7.324,0-10.813
				c-1.732-3.483-11.383-2.278-11.383-2.278s1.368-9.696-1.117-11.942c-2.51-2.234-9.664,0-9.664,0l-9.111-5.679
				c0,0,4.418-5.692,0.438-8.171c-4.003-2.497-35.782-0.288-35.782-0.288s15.801-11.516,14.309-15.997
				c-1.507-4.481-50.63-5.12-50.63-5.12s17.709-3.339,18.223-6.828c0.489-3.477-27.862-0.565-27.862-0.565l1.67-7.956l-29.922-0.283
				c0,0,6.991-8.328,5.485-12.803c-1.481-4.479-23.947-1.135-23.947-1.135s10.454-6.263,11.434-10.241
				c0.991-3.979-10.818-6.828-10.818-6.828s-34.741-3.979-35.242,0c-0.489,3.991,13.229,33.561,6.262,33.561
				c-6.964,0-47.353-0.967-48.333,2.272c-1.003,3.232,9.087,9.664,9.087,9.664s-41.342,0.791-44.33,3.031
				c-2.974,2.234,13.694,12.5,13.694,12.5s-35.331,0.923-38.318,3.922c-2.987,2.987,6.402,12.395,6.402,12.395
				s-27.8,3.808-31.277,4.549c-3.489,0.747,1.13,10.241-2.85,10.241c-3.978,0-10.73-0.044-14.22,1.701
				c-3.477,1.751,5.699,13.654,5.699,13.654s-27.763-2.704-25.027,2.279c2.736,4.969,3.339,13.064,3.339,13.064
				s-34.778-0.483-47.203,3.878c-14.923,5.234-16.417,11.485-16.417,11.485l30.134,2.843c0,0-9.125,8.742-7.38,10.234
				c1.732,1.495,16.491,1.143,16.491,1.143s-4.191,14.992-1.706,16.492c2.485,1.493,5.673,1.136,5.673,1.136l5.698,29.569
				l10.229-15.926c0,0,4.481,2.565,7.97,0.57c3.477-1.983-0.578-11.371-0.578-11.371s6.326-0.145,6.828-5.12
				c0.502-4.971,1.143-11.943,1.143-11.943s2.121,1.111,2.622-3.62c0.503-4.726,0.503-16.781,0.503-16.781l32.129-0.069
				l15.288,1.637l-10.744-11.308c0,0,68.641-1.168,65.415-3.408c-3.238-2.234,20.759,5.29,30.699,4.543
				c9.953-0.74,50.04,2.285,50.04,2.285s-18.688,5.61-18.186,9.093c0.489,3.482,35.254,2.843,35.254,2.843
				s-5.548,12.72-4.542,18.199c0.99,5.472,25.603,2.277,25.603,2.277s-1.757,11.761,3.954,12.514
				c5.722,0.746,26.531-1.677,29.018-7.398c2.472-5.718-9.401-4.619,0.551-9.1c9.966-4.487,26.733-0.282,26.733-0.282
				s10.241,5.189,23.684,6.188c13.43,0.991,26.582-2.485,26.582-2.485l12.225,6.037l-22.805,4.794l23.997-0.031
				c0,0,12.852,9.199,20.032-1.262C474.342,251.934,466.785,252.699,465.782,246.229z M219.485,204.831
				c-3.477,2.484-31.853,3.408-31.853,3.408s-0.992-5.391,3.991-7.386C196.593,198.863,222.975,202.34,219.485,204.831z"/>
			<polygon fill="#1B67A1" points="294.175,262.345 310.015,262.515 310.867,256.766 296.346,256.829 			"/>
		</g>
	</g>
</g>
<g>
	<g>
		<g>
			<path fill="#808280" d="M37.499,334.744c3.891-0.666,8.974-1.16,15.463-1.16c7.958,0,13.793,1.662,17.496,4.643
				c3.426,2.654,5.548,6.721,5.548,11.691c0,5.071-1.669,9.042-4.908,11.948c-4.254,4.066-11.183,6.138-19.064,6.138
				c-2.397,0-4.619-0.083-6.477-0.496v22.391h-8.058V334.744z M45.557,361.616c1.758,0.413,4.079,0.583,6.677,0.583
				c9.79,0,15.626-4.318,15.626-11.861c0-7.462-5.836-11.025-14.709-11.025c-3.515,0-6.212,0.333-7.594,0.577V361.616z"/>
			<path fill="#808280" d="M118.929,363.691H94.782v20.151h27.034v6.056H86.649v-55.901h33.773v6.062h-25.64v17.659h24.147V363.691z
				"/>
			<path fill="#808280" d="M132.17,333.997h8.146v49.846h26.657v6.056H132.17V333.997z"/>
			<path fill="#808280" d="M175.872,333.997h8.132v49.846h26.659v6.056h-34.791V333.997z"/>
			<path fill="#808280" d="M251.841,363.691h-24.147v20.151h27.022v6.056h-35.181v-55.901h33.801v6.062h-25.642v17.659h24.147
				V363.691z"/>
			<path fill="#808280" d="M277.019,340.135h-18.978v-6.138h46.163v6.138h-19.053v49.764h-8.133V340.135z"/>
			<path fill="#808280" d="M340.865,372.32l-6.477,17.578h-8.321l21.186-55.901h9.727l21.273,55.901h-8.597l-6.664-17.578H340.865z
				 M361.323,366.686l-6.2-16.097c-1.292-3.651-2.209-6.965-3.139-10.197h-0.288c-0.828,3.232-1.857,6.709-3.051,10.11
				l-6.099,16.184H361.323z"/>
			<path fill="#808280" d="M386.411,381.113c3.603,2.071,8.798,3.646,14.345,3.646c8.233,0,13.054-3.816,13.054-9.533
				c0-5.146-3.339-8.215-11.748-11.032c-10.204-3.326-16.479-8.133-16.479-15.927c0-8.716,8.046-15.174,20.17-15.174
				c6.287,0,11.007,1.317,13.692,2.735l-2.209,5.887c-1.945-1.079-6.112-2.654-11.759-2.654c-8.499,0-11.749,4.562-11.749,8.37
				c0,5.229,3.79,7.802,12.388,10.782c10.568,3.739,15.839,8.215,15.839,16.423c0,8.628-7.04,16.178-21.75,16.178
				c-6.025,0-12.588-1.662-15.915-3.652L386.411,381.113z"/>
			<path fill="#808280" d="M476.551,388.153c-2.887,1.33-8.886,2.661-16.467,2.661c-17.596,0-30.736-9.953-30.736-28.365
				c0-17.583,13.229-29.355,32.581-29.355c7.681,0,12.688,1.486,14.811,2.479l-2.046,5.892c-2.962-1.329-7.318-2.327-12.489-2.327
				c-14.634,0-24.36,8.378-24.36,23.062c0,13.768,8.798,22.478,23.884,22.478c5.009,0,10.004-0.916,13.241-2.328L476.551,388.153z"
				/>
		</g>
	</g>
	<g>
		<path fill="#808280" d="M39.595,416.808l-2.949,7.913H32.83l9.677-25.159h4.431l9.714,25.159h-3.916l-3.049-7.913H39.595z
			 M48.921,414.271l-2.823-7.241c-0.59-1.644-1.018-3.132-1.444-4.594h-0.125c-0.376,1.462-0.841,3.019-1.381,4.55l-2.786,7.285
			H48.921z"/>
		<path fill="#808280" d="M80.047,423.937c-1.307,0.596-4.055,1.198-7.518,1.198c-8.021,0-14.021-4.481-14.021-12.765
			c0-7.92,6.038-13.216,14.861-13.216c3.513,0,5.798,0.666,6.765,1.117l-0.929,2.648c-1.342-0.597-3.326-1.042-5.698-1.042
			c-6.677,0-11.107,3.766-11.107,10.373c0,6.201,4.016,10.116,10.894,10.116c2.285,0,4.569-0.408,6.05-1.042L80.047,423.937z"/>
		<path fill="#808280" d="M103.542,423.937c-1.307,0.596-4.055,1.198-7.518,1.198c-8.033,0-14.02-4.481-14.02-12.765
			c0-7.92,6.024-13.216,14.86-13.216c3.514,0,5.786,0.666,6.752,1.117l-0.929,2.648c-1.343-0.597-3.338-1.042-5.697-1.042
			c-6.677,0-11.095,3.766-11.095,10.373c0,6.201,3.991,10.116,10.893,10.116c2.285,0,4.556-0.408,6.037-1.042L103.542,423.937z"/>
		<path fill="#808280" d="M122.869,412.93h-11.02v9.067h12.35v2.724h-16.065v-25.159h15.426v2.73H111.85v7.945h11.02V412.93z"/>
		<path fill="#808280" d="M128.493,420.767c1.657,0.936,4.016,1.638,6.551,1.638c3.752,0,5.949-1.719,5.949-4.292
			c0-2.31-1.506-3.696-5.359-4.958c-4.631-1.499-7.518-3.665-7.518-7.166c0-3.922,3.677-6.834,9.212-6.834
			c2.861,0,5.02,0.596,6.25,1.236l-1.004,2.648c-0.904-0.484-2.798-1.198-5.372-1.198c-3.89,0-5.371,2.058-5.371,3.771
			c0,2.348,1.731,3.509,5.672,4.852c4.807,1.676,7.205,3.696,7.205,7.386c0,3.879-3.201,7.286-9.915,7.286
			c-2.737,0-5.749-0.753-7.268-1.644L128.493,420.767z"/>
		<path fill="#808280" d="M149.326,420.767c1.644,0.936,4.005,1.638,6.54,1.638c3.752,0,5.961-1.719,5.961-4.292
			c0-2.31-1.518-3.696-5.371-4.958c-4.644-1.499-7.506-3.665-7.506-7.166c0-3.922,3.665-6.834,9.201-6.834
			c2.873,0,5.02,0.596,6.25,1.236l-1.017,2.648c-0.879-0.484-2.787-1.198-5.372-1.198c-3.877,0-5.347,2.058-5.347,3.771
			c0,2.348,1.732,3.509,5.648,4.852c4.82,1.676,7.229,3.696,7.229,7.386c0,3.879-3.212,7.286-9.928,7.286
			c-2.749,0-5.735-0.753-7.266-1.644L149.326,420.767z"/>
		<path fill="#808280" d="M181.72,425.135c-7.567,0-12.789-5.152-12.789-12.765c0-7.988,5.559-13.216,13.178-13.216
			c7.807,0,12.827,5.259,12.827,12.732c0,8.616-5.95,13.248-13.178,13.248H181.72z M181.884,422.486
			c5.824,0,9.124-4.751,9.124-10.455c0-5.001-2.949-10.229-9.074-10.229s-9.162,5.045-9.162,10.493c0,5.296,3.288,10.19,9.062,10.19
			H181.884z"/>
		<path fill="#808280" d="M203.383,399.562v25.159h-3.714v-25.159H203.383z"/>
		<path fill="#808280" d="M209.797,399.933c1.857-0.326,4.567-0.558,7.053-0.558c3.941,0,6.501,0.677,8.284,2.089
			c1.393,1.091,2.234,2.806,2.234,4.781c0,3.282-2.41,5.485-5.359,6.382v0.114c2.146,0.67,3.464,2.459,4.179,5.082
			c0.929,3.502,1.607,5.925,2.158,6.897h-3.815c-0.451-0.716-1.079-2.875-1.845-6.006c-0.84-3.477-2.409-4.788-5.736-4.895h-3.477
			v10.9h-3.676V399.933z M213.473,411.354h3.766c3.929,0,6.413-1.901,6.413-4.776c0-3.238-2.661-4.668-6.551-4.668
			c-1.771,0-2.988,0.156-3.628,0.301V411.354z"/>
		<path fill="#808280" d="M247.223,412.93h-11.02v9.067h12.337v2.724h-16.053v-25.159h15.412v2.73h-11.697v7.945h11.02V412.93z"/>
		<path fill="#808280" d="M252.833,420.767c1.656,0.936,4.016,1.638,6.551,1.638c3.766,0,5.962-1.719,5.962-4.292
			c0-2.31-1.53-3.696-5.372-4.958c-4.643-1.499-7.518-3.665-7.518-7.166c0-3.922,3.678-6.834,9.213-6.834
			c2.875,0,5.02,0.596,6.25,1.236l-1.003,2.648c-0.892-0.484-2.8-1.198-5.385-1.198c-3.879,0-5.359,2.058-5.359,3.771
			c0,2.348,1.731,3.509,5.66,4.852c4.819,1.676,7.229,3.696,7.229,7.386c0,3.879-3.213,7.286-9.927,7.286
			c-2.749,0-5.749-0.753-7.268-1.644L252.833,420.767z"/>
		<path fill="#808280" d="M282.616,420.767c1.644,0.936,4.003,1.638,6.552,1.638c3.752,0,5.948-1.719,5.948-4.292
			c0-2.31-1.519-3.696-5.359-4.958c-4.655-1.499-7.53-3.665-7.53-7.166c0-3.922,3.69-6.834,9.2-6.834
			c2.888,0,5.046,0.596,6.25,1.236l-0.991,2.648c-0.892-0.484-2.787-1.198-5.359-1.198c-3.892,0-5.384,2.058-5.384,3.771
			c0,2.348,1.731,3.509,5.673,4.852c4.807,1.676,7.216,3.696,7.216,7.386c0,3.879-3.213,7.286-9.927,7.286
			c-2.749,0-5.749-0.753-7.255-1.644L282.616,420.767z"/>
		<path fill="#808280" d="M308.508,416.808l-2.949,7.913h-3.803l9.664-25.159h4.443l9.727,25.159h-3.953l-3.025-7.913H308.508z
			 M317.859,414.271l-2.837-7.241c-0.602-1.644-1.029-3.132-1.442-4.594h-0.126c-0.39,1.462-0.841,3.019-1.394,4.55l-2.786,7.285
			H317.859z"/>
		<path fill="#808280" d="M329.77,424.721v-25.159h4.042l9.086,12.734c2.071,2.942,3.766,5.553,5.07,8.17l0.138-0.038
			c-0.352-3.363-0.426-6.426-0.426-10.305v-10.562h3.464v25.159h-3.728l-9.037-12.765c-1.983-2.805-3.891-5.666-5.284-8.402
			l-0.125,0.044c0.201,3.176,0.251,6.199,0.251,10.373v10.75H329.77z"/>
		<path fill="#808280" d="M361.221,399.562v25.159h-3.715v-25.159H361.221z"/>
		<path fill="#808280" d="M373.045,402.323h-8.661v-2.762h21.073v2.762h-8.711v22.397h-3.701V402.323z"/>
		<path fill="#808280" d="M390.063,416.808l-2.949,7.913h-3.803l9.677-25.159h4.431l9.727,25.159h-3.928l-3.051-7.913H390.063z
			 M399.414,414.271l-2.838-7.241c-0.602-1.644-1.017-3.132-1.442-4.594h-0.126c-0.364,1.462-0.841,3.019-1.393,4.55l-2.787,7.285
			H399.414z"/>
		<path fill="#808280" d="M414.976,399.562v25.159h-3.701v-25.159H414.976z"/>
		<path fill="#808280" d="M421.414,399.933c1.857-0.326,4.556-0.558,7.066-0.558c3.917,0,6.488,0.677,8.271,2.089
			c1.406,1.091,2.234,2.806,2.234,4.781c0,3.282-2.41,5.485-5.359,6.382v0.114c2.159,0.67,3.464,2.459,4.18,5.082
			c0.916,3.502,1.605,5.925,2.159,6.897h-3.804c-0.477-0.716-1.117-2.875-1.882-6.006c-0.829-3.477-2.397-4.788-5.725-4.895h-3.477
			v10.9h-3.665V399.933z M425.079,411.354h3.766c3.929,0,6.426-1.901,6.426-4.776c0-3.238-2.66-4.668-6.551-4.668
			c-1.77,0-2.987,0.156-3.641,0.301V411.354z"/>
		<path fill="#808280" d="M458.829,412.93h-11.032v9.067h12.337v2.724h-16.04v-25.159h15.412v2.73h-11.709v7.945h11.032V412.93z"/>
		<path fill="#808280" d="M464.439,420.767c1.658,0.936,4.017,1.638,6.551,1.638c3.767,0,5.95-1.719,5.95-4.292
			c0-2.31-1.519-3.696-5.359-4.958c-4.644-1.499-7.519-3.665-7.519-7.166c0-3.922,3.679-6.834,9.201-6.834
			c2.887,0,5.045,0.596,6.251,1.236l-0.992,2.648c-0.892-0.484-2.8-1.198-5.372-1.198c-3.879,0-5.385,2.058-5.385,3.771
			c0,2.348,1.732,3.509,5.687,4.852c4.806,1.676,7.216,3.696,7.216,7.386c0,3.879-3.214,7.286-9.94,7.286
			c-2.736,0-5.734-0.753-7.267-1.644L464.439,420.767z"/>
	</g>
</g>
</svg>
