<?xml version="1.0" encoding="utf-8"?>
<!-- Generator: Adobe Illustrator 15.0.0, SVG Export Plug-In . SVG Version: 6.00 Build 0)  -->
<!DOCTYPE svg PUBLIC "-//W3C//DTD SVG 1.1//EN" "http://www.w3.org/Graphics/SVG/1.1/DTD/svg11.dtd">
<svg version="1.1" id="Calque_1" xmlns="http://www.w3.org/2000/svg" xmlns:xlink="http://www.w3.org/1999/xlink" x="0px" y="0px"
	 width="500px" height="500px" viewBox="0 0 500 500" enable-background="new 0 0 500 500" xml:space="preserve">
<g>
	<polygon fill="#008035" points="25.293,470.428 25.293,28.605 476.079,28.605 476.079,471.707 	"/>
	<g>
		<g>
			<path fill="#009EC4" d="M47.649,393.991c-1.044,4.13-1.543,11.691-1.543,23.104v22.122H148.72v-15.31h-45.103v-4.115
				c0-12.378-0.53-20.657-1.653-25.318c-1.59-6.609-4.769-11.881-9.431-15.684c-4.693-3.836-10.679-5.784-17.756-5.784
				c-7.079,0-13.065,1.996-17.804,5.924C52.294,382.812,49.146,387.894,47.649,393.991z M74.806,388.643
				c2.79,0,5.253,0.718,7.5,2.183c2.213,1.45,3.788,3.399,4.787,5.925c1.059,2.744,1.604,7.296,1.604,13.517l-0.171,13.641H61.227
				V409.58c0-7.671,0.826-11.365,1.513-13.111c0.936-2.338,2.463-4.193,4.677-5.644C69.663,389.36,72.094,388.643,74.806,388.643z"
				/>
			<path fill="#009EC4" d="M110.741,284.594c-10.398,0.095-19.238,2.963-26.237,8.513c-9.948,7.826-14.999,18.428-14.999,31.522
				c0,12.723,4.942,23.043,14.654,30.652c7.609,5.954,16.37,8.979,26.067,8.979c10.321,0,19.706-3.555,27.859-10.586
				c8.279-7.124,12.488-17.07,12.488-29.573c0-5.613-0.874-10.727-2.603-15.217c-1.731-4.489-4.272-8.574-7.577-12.176
				c-3.29-3.57-7.64-6.751-12.925-9.432l-2.463-1.278l-6.626,12.597l2.276,1.372c4.412,2.649,7.609,5.114,9.495,7.295
				c1.871,2.152,3.399,4.802,4.553,7.92c1.153,3.149,1.729,6.408,1.729,9.697c0,6.829-2.323,12.426-7.125,17.057
				c-4.24,4.084-9.384,6.392-15.73,7.031v-64.402L110.741,284.594z M99.97,347.126c-4.272-1.637-7.609-3.757-9.917-6.36
				c-4.084-4.567-6.081-9.899-6.081-16.276c0-3.834,0.811-7.545,2.433-11.021c1.621-3.461,3.741-6.269,6.329-8.341
				c1.902-1.513,4.335-2.791,7.235-3.805V347.126z"/>
			<path fill="#009EC4" d="M71.361,79.024h8.404c-2.526,2.587-4.584,5.41-6.174,8.434c-2.713,5.161-4.085,10.975-4.085,17.289
				c0,10.945,3.992,20.423,11.849,28.188c7.856,7.764,17.43,11.692,28.498,11.692c11.257,0,20.954-3.897,28.827-11.583
				c7.888-7.716,11.895-17.133,11.895-28.015c0-6.143-1.311-11.865-3.866-17.041c-1.56-3.18-3.602-6.189-6.112-8.964h8.123V64.292
				H71.361V79.024z M110.399,78.432c4.941,0,9.416,1.09,13.314,3.289c3.866,2.167,6.983,5.316,9.275,9.354
				c4.583,8.185,4.646,17.696-0.016,25.614c-2.322,3.929-5.58,7.094-9.728,9.417c-4.163,2.338-8.558,3.522-13.111,3.522
				c-4.583,0-8.979-1.169-13.111-3.491c-4.085-2.292-7.312-5.442-9.573-9.324c-2.26-3.897-3.414-8.216-3.414-12.815
				c0-7.265,2.463-13.22,7.514-18.178C96.634,80.833,102.806,78.432,110.399,78.432z"/>
			<g>
				<path fill="#009EC4" d="M89.555,256.564c-6.159-3.54-11.085-8.497-14.655-14.733c-1.092-1.902-1.761-3.913-2.51-5.925
					l-0.077,0.141c-4.272,7.608-3.432,14.53,0.716,20.86c1.028,1.542,2.276,3.055,3.741,4.536h-5.409v15.045h77.359v-15.045h-27.08
					c-2.823,0-5.395-0.031-7.764-0.094C112.411,261.506,95.698,260.087,89.555,256.564z"/>
			</g>
			<path fill="#009EC4" d="M175.425,183.259c-0.951-4.022-2.37-7.764-4.349-11.101c-3.883-6.516-9.496-11.178-16.666-13.797
				c-5.021-1.887-12.565-2.821-23.073-2.821H71.361v14.873h8.263c-2.792,3.024-4.973,6.174-6.501,9.385
				c-5.27,11.069-4.77,24.68,1.777,36.091c3.57,6.237,8.496,11.194,14.655,14.733c6.142,3.524,12.845,5.332,19.956,5.332
				c7.107,0,13.718-1.73,19.658-5.128c5.956-3.416,10.757-8.279,14.28-14.515c6.471-11.538,6.923-25.521,1.482-37.168
				c-1.498-3.179-3.369-6.079-5.613-8.667c5.675,0.219,9.711,1.419,12.518,2.37c14.577,4.896,23.868,42.577,23.806,43.559
				L175.425,183.259z M127.469,213.894c-4.629,4.755-10.352,7.062-17.492,7.062c-4.677,0-9.073-1.154-13.08-3.461
				c-3.99-2.276-7.155-5.457-9.432-9.479c-2.276-4.038-3.43-8.481-3.43-13.189c0-4.49,1.123-8.761,3.336-12.659
				c2.184-3.882,5.208-6.922,8.979-9.027c3.789-2.12,8.201-3.196,13.097-3.196c7.577,0,13.5,2.261,18.116,6.922
				c4.582,4.647,6.828,10.695,6.828,18.49C134.392,203.059,132.132,209.108,127.469,213.894z"/>
		</g>
		<path fill="#009EC4" d="M194.523,254.187v184.087h67.957V321.411h18.272c54.939,0,62.234-2.362,82.924-7.344
			c29.355-7.062,52.74-21.17,69.608-41.867c17.025-20.828,25.678-47.402,25.678-78.824c0-31.414-8.854-57.986-26.301-79.026
			c-17.228-20.758-39.787-34.75-66.85-41.383c-18.336-4.638-22.435-6.852-73.088-6.852h-98.201v67.342l67.957-0.22h34.143
			c34.048,0,50.449,3.68,58.198,6.712c10.367,4.155,18.614,10.937,25.053,20.758c6.5,9.97,9.682,20.766,9.682,32.803
			c0,12.386-3.182,23.322-9.682,33.292c-6.438,9.822-15.091,16.822-26.3,21.249c-12.177,4.701-32.382,7.125-60.007,7.125
			l-31.087-0.766L194.523,254.187z"/>
		<path fill="#009EC4" d="M278.944,191.077c0,22.177-17.991,40.16-40.161,40.16c-22.168,0-40.16-17.982-40.16-40.16
			c0-22.177,17.991-40.16,40.16-40.16C260.952,150.917,278.944,168.9,278.944,191.077z"/>
	</g>
</g>
</svg>
