<?xml version="1.0" encoding="utf-8"?>
<!-- Generator: Adobe Illustrator 19.1.0, SVG Export Plug-In . SVG Version: 6.00 Build 0)  -->
<svg version="1.1" id="Calque_1" xmlns="http://www.w3.org/2000/svg" xmlns:xlink="http://www.w3.org/1999/xlink" x="0px" y="0px"
	 viewBox="-345 170.9 500 500" style="enable-background:new -345 170.9 500 500;" xml:space="preserve">
<style type="text/css">
	.st0{fill:#008035;}
	.st1{fill:#009EC4;}
</style>
<polygon class="st0" points="-319.7,641.3 -319.7,199.5 131.1,199.5 131.1,642.6 "/>
<path class="st1" d="M-297.4,564.9c-1,4.1-1.5,11.7-1.5,23.1v22.1h102.6v-15.3h-45.1v-4.1c0-12.4-0.5-20.7-1.7-25.3
	c-1.6-6.6-4.8-11.9-9.4-15.7c-4.7-3.8-10.7-5.8-17.8-5.8c-7.1,0-13.1,2-17.8,5.9C-292.7,553.7-295.9,558.8-297.4,564.9z
	 M-270.2,559.5c2.8,0,5.3,0.7,7.5,2.2c2.2,1.5,3.8,3.4,4.8,5.9c1.1,2.7,1.6,7.3,1.6,13.5l-0.2,13.6h-27.3v-14.3
	c0-7.7,0.8-11.4,1.5-13.1c0.9-2.3,2.5-4.2,4.7-5.6C-275.3,560.2-272.9,559.5-270.2,559.5z"/>
<path class="st1" d="M-234.3,455.5c-10.4,0.1-19.2,3-26.2,8.5c-9.9,7.8-15,18.4-15,31.5c0,12.7,4.9,23,14.7,30.7
	c7.6,6,16.4,9,26.1,9c10.3,0,19.7-3.6,27.9-10.6c8.3-7.1,12.5-17.1,12.5-29.6c0-5.6-0.9-10.7-2.6-15.2c-1.7-4.5-4.3-8.6-7.6-12.2
	c-3.3-3.6-7.6-6.8-12.9-9.4l-2.5-1.3l-6.6,12.6l2.3,1.4c4.4,2.6,7.6,5.1,9.5,7.3c1.9,2.2,3.4,4.8,4.6,7.9c1.2,3.1,1.7,6.4,1.7,9.7
	c0,6.8-2.3,12.4-7.1,17.1c-4.2,4.1-9.4,6.4-15.7,7v-64.4L-234.3,455.5z M-245,518c-4.3-1.6-7.6-3.8-9.9-6.4
	c-4.1-4.6-6.1-9.9-6.1-16.3c0-3.8,0.8-7.5,2.4-11c1.6-3.5,3.7-6.3,6.3-8.3c1.9-1.5,4.3-2.8,7.2-3.8L-245,518L-245,518z"/>
<path class="st1" d="M-273.6,249.9h8.4c-2.5,2.6-4.6,5.4-6.2,8.4c-2.7,5.2-4.1,11-4.1,17.3c0,10.9,4,20.4,11.8,28.2
	c7.9,7.8,17.4,11.7,28.5,11.7c11.3,0,21-3.9,28.8-11.6c7.9-7.7,11.9-17.1,11.9-28c0-6.1-1.3-11.9-3.9-17c-1.6-3.2-3.6-6.2-6.1-9h8.1
	v-14.7h-77.4V249.9z M-234.6,249.3c4.9,0,9.4,1.1,13.3,3.3c3.9,2.2,7,5.3,9.3,9.4c4.6,8.2,4.6,17.7,0,25.6c-2.3,3.9-5.6,7.1-9.7,9.4
	c-4.2,2.3-8.6,3.5-13.1,3.5c-4.6,0-9-1.2-13.1-3.5c-4.1-2.3-7.3-5.4-9.6-9.3c-2.3-3.9-3.4-8.2-3.4-12.8c0-7.3,2.5-13.2,7.5-18.2
	C-248.4,251.7-242.2,249.3-234.6,249.3z"/>
<path class="st1" d="M-255.4,427.5c-6.2-3.5-11.1-8.5-14.7-14.7c-1.1-1.9-1.8-3.9-2.5-5.9l-0.1,0.1c-4.3,7.6-3.4,14.5,0.7,20.9
	c1,1.5,2.3,3.1,3.7,4.5h-5.4v15h77.4v-15h-27.1c-2.8,0-5.4,0-7.8-0.1C-232.6,432.4-249.3,431-255.4,427.5z"/>
<path class="st1" d="M-169.6,354.1c-1-4-2.4-7.8-4.3-11.1c-3.9-6.5-9.5-11.2-16.7-13.8c-5-1.9-12.6-2.8-23.1-2.8h-60v14.9h8.3
	c-2.8,3-5,6.2-6.5,9.4c-5.3,11.1-4.8,24.7,1.8,36.1c3.6,6.2,8.5,11.2,14.7,14.7c6.1,3.5,12.8,5.3,20,5.3c7.1,0,13.7-1.7,19.7-5.1
	c6-3.4,10.8-8.3,14.3-14.5c6.5-11.5,6.9-25.5,1.5-37.2c-1.5-3.2-3.4-6.1-5.6-8.7c5.7,0.2,9.7,1.4,12.5,2.4
	c14.6,4.9,23.9,42.6,23.8,43.6L-169.6,354.1z M-217.5,384.8c-4.6,4.8-10.4,7.1-17.5,7.1c-4.7,0-9.1-1.2-13.1-3.5
	c-4-2.3-7.2-5.5-9.4-9.5c-2.3-4-3.4-8.5-3.4-13.2c0-4.5,1.1-8.8,3.3-12.7c2.2-3.9,5.2-6.9,9-9c3.8-2.1,8.2-3.2,13.1-3.2
	c7.6,0,13.5,2.3,18.1,6.9c4.6,4.6,6.8,10.7,6.8,18.5C-210.6,373.9-212.9,380-217.5,384.8z"/>
<path class="st1" d="M-150.5,425.1v184.1h68V492.3h18.3c54.9,0,62.2-2.4,82.9-7.3c29.4-7.1,52.7-21.2,69.6-41.9
	c17-20.8,25.7-47.4,25.7-78.8c0-31.4-8.9-58-26.3-79c-17.2-20.8-39.8-34.8-66.9-41.4C2.5,239.2-1.6,237-52.3,237h-98.2v67.3l68-0.2
	h34.1c34,0,50.4,3.7,58.2,6.7c10.4,4.2,18.6,10.9,25.1,20.8c6.5,10,9.7,20.8,9.7,32.8c0,12.4-3.2,23.3-9.7,33.3
	c-6.4,9.8-15.1,16.8-26.3,21.2c-12.2,4.7-32.4,7.1-60,7.1l-31.1-0.8L-150.5,425.1z"/>
<path class="st1" d="M-66.1,362c0,22.2-18,40.2-40.2,40.2c-22.2,0-40.2-18-40.2-40.2c0-22.2,18-40.2,40.2-40.2S-66.1,339.8-66.1,362
	z"/>
</svg>
