<?xml version="1.0" encoding="utf-8"?>
<!-- Generator: Adobe Illustrator 19.1.0, SVG Export Plug-In . SVG Version: 6.00 Build 0)  -->
<svg version="1.1" id="Calque_1" xmlns="http://www.w3.org/2000/svg" xmlns:xlink="http://www.w3.org/1999/xlink" x="0px" y="0px"
	 viewBox="-345 170.9 500 500" style="enable-background:new -345 170.9 500 500;" xml:space="preserve">
<style type="text/css">
	.st0{fill:#0D0909;}
	.st1{fill:url(#SVGID_1_);}
	.st2{fill:url(#SVGID_2_);}
	.st3{fill:#0092FF;}
	.st4{fill:url(#SVGID_3_);}
	.st5{opacity:0.61;fill:url(#SVGID_4_);enable-background:new    ;}
	.st6{fill:url(#SVGID_5_);}
</style>
<path class="st0" d="M-137.8,388.8h-14.4h-2.7h-15.8v22v6.2v47.4h18.5V439h14.4c12.1,0,22-9.8,22-22v-6.2
	C-115.8,398.7-125.7,388.8-137.8,388.8z M-135.7,419.4c0,4.7-3.8,8.5-8.5,8.5c-0.8,0-3.7-0.1-8-0.3l0-26.1c4.3-0.2,7.2-0.3,8-0.3
	c4.7,0,8.5,3.8,8.5,8.5V419.4z"/>
<path class="st0" d="M-54.9,410.2c0-12.1-9.8-22-22-22h-11c-12.1,0-22,9.8-22,22v6.9c0,12.1,9.8,22,22,22h28.3v-11.2
	c0,0-18,0-21.5,0c-3.5,0-10.2-2.4-10.2-10.2c6,0,36.3,0,36.3,0L-54.9,410.2z M-72.2,409.2h-18.3c0-0.1,0-0.1,0-0.2
	c0-6,4.1-10.8,9.1-10.8s9.1,4.8,9.1,10.8C-72.2,409.1-72.2,409.1-72.2,409.2z"/>
<path class="st0" d="M-14.9,389.2c0,0-10.8,0-13.7,0c-2.9,0-19.3,1.4-19.3,20.4s0,29.5,0,29.5h18.3c0,0,0-26.1,0-29.3
	c0-3.2,0.8-7.2,7.2-7.2c6.4,0,7.5,0,7.5,0L-14.9,389.2z"/>
<path class="st0" d="M50,389.2c-2.1,0-38.3,0-40.6,0c-2.9,0-19.3,1.4-19.3,20.4s0,29.5,0,29.5H8.4c0,0,0-26.1,0-29.3
	c0-3.2,0.8-7.2,7.2-7.2c3.5,0,5.4,0,6.5,0v36.6h16v-36.6c1.1,0,2.9,0,5.7,0c6.4,0,7.2,4,7.2,7.2c0,3.2,0,29.3,0,29.3h18.3
	c0,0,0-10.5,0-29.5C69.3,390.6,52.9,389.2,50,389.2z"/>
<path class="st0" d="M113,387.9H98.4c-12.1,0-22,9.8-22,22v7.8c0,12.1,9.8,22,22,22H113c12.1,0,22-9.8,22-22v-7.8
	C135,397.7,125.2,387.9,113,387.9z M115.9,419.3c0,5.1-4.5,9.2-10,9.2c-5.5,0-10-4.1-10-9.2v-10.2c0-5.1,4.5-9.2,10-9.2
	c5.5,0,10,4.1,10,9.2V419.3z"/>
<linearGradient id="SVGID_1_" gradientUnits="userSpaceOnUse" x1="-326.243" y1="418.564" x2="-201.327" y2="418.564" gradientTransform="matrix(1 0 0 -1 0 841.67)">
	<stop  offset="0" style="stop-color:#C4C5C6"/>
	<stop  offset="1" style="stop-color:#565759"/>
</linearGradient>
<ellipse class="st1" cx="-263.8" cy="423.1" rx="62.5" ry="65.2"/>
<linearGradient id="SVGID_2_" gradientUnits="userSpaceOnUse" x1="-241.1035" y1="497.379" x2="-288.903" y2="333.5862" gradientTransform="matrix(1 0 0 -1 0 841.67)">
	<stop  offset="0" style="stop-color:#D4DBE1"/>
	<stop  offset="1" style="stop-color:#707173"/>
</linearGradient>
<ellipse class="st2" cx="-264.1" cy="423.1" rx="60.2" ry="63.6"/>
<path class="st3" d="M-141.7,464.2v-12.7h4.7c1,0,1.7,0.1,2.3,0.4c0.6,0.3,1,0.7,1.4,1.2c0.3,0.5,0.5,1.1,0.5,1.7
	c0,0.5-0.1,1-0.4,1.5c-0.3,0.5-0.7,0.9-1.3,1.2c0.8,0.2,1.4,0.6,1.8,1.1c0.4,0.5,0.6,1.2,0.6,1.9c0,0.6-0.1,1.1-0.4,1.7
	c-0.2,0.5-0.6,0.9-0.9,1.2c-0.4,0.3-0.8,0.5-1.4,0.6c-0.6,0.1-1.2,0.2-2,0.2L-141.7,464.2L-141.7,464.2z M-140,456.9h2.7
	c0.7,0,1.3,0,1.6-0.1c0.4-0.1,0.7-0.3,1-0.6c0.2-0.3,0.3-0.7,0.3-1.1c0-0.4-0.1-0.8-0.3-1.1c-0.2-0.3-0.5-0.5-0.9-0.7
	c-0.4-0.1-1-0.2-1.9-0.2h-2.5L-140,456.9L-140,456.9z M-140,462.7h3.2c0.5,0,0.9,0,1.1-0.1c0.4-0.1,0.7-0.2,1-0.3
	c0.3-0.2,0.5-0.4,0.6-0.7c0.2-0.3,0.3-0.7,0.3-1.1c0-0.5-0.1-0.9-0.4-1.2c-0.2-0.4-0.6-0.6-1-0.7c-0.4-0.1-1-0.2-1.9-0.2h-2.9
	L-140,462.7L-140,462.7z"/>
<path class="st3" d="M-127.2,464.2v-12.7h9.2v1.5h-7.5v3.9h7v1.5h-7v4.3h7.8v1.5H-127.2z"/>
<path class="st3" d="M-114.4,460.2l1.6-0.1c0.1,0.6,0.2,1.2,0.5,1.6c0.3,0.4,0.7,0.7,1.3,1s1.2,0.4,1.9,0.4c0.6,0,1.2-0.1,1.7-0.3
	c0.5-0.2,0.9-0.5,1.1-0.8c0.2-0.3,0.4-0.7,0.4-1.1c0-0.4-0.1-0.7-0.3-1c-0.2-0.3-0.6-0.5-1.1-0.7c-0.3-0.1-1.1-0.3-2.3-0.6
	c-1.2-0.3-2-0.5-2.4-0.8c-0.6-0.3-1.1-0.7-1.4-1.2c-0.3-0.5-0.4-1-0.4-1.6c0-0.6,0.2-1.2,0.5-1.8s0.9-1,1.6-1.3
	c0.7-0.3,1.5-0.4,2.3-0.4c0.9,0,1.8,0.2,2.5,0.5s1.3,0.7,1.7,1.3c0.4,0.6,0.6,1.3,0.6,2l-1.6,0.1c-0.1-0.8-0.4-1.4-0.9-1.8
	s-1.2-0.6-2.2-0.6c-1,0-1.8,0.2-2.2,0.6c-0.5,0.4-0.7,0.8-0.7,1.3c0,0.5,0.2,0.8,0.5,1.1c0.3,0.3,1.2,0.6,2.5,0.9
	c1.4,0.3,2.3,0.6,2.8,0.8c0.7,0.3,1.3,0.8,1.6,1.3c0.4,0.5,0.5,1.1,0.5,1.8c0,0.7-0.2,1.3-0.6,1.9c-0.4,0.6-0.9,1.1-1.7,1.4
	c-0.7,0.3-1.5,0.5-2.4,0.5c-1.1,0-2.1-0.2-2.9-0.5c-0.8-0.3-1.4-0.8-1.8-1.5C-114.1,461.8-114.3,461-114.4,460.2z"/>
<path class="st3" d="M-97.9,464.2v-11.2h-4.2v-1.5h10v1.5h-4.2v11.2H-97.9z"/>
<path class="st3" d="M-79.6,464.2l-3.4-12.7h1.7l1.9,8.3c0.2,0.9,0.4,1.7,0.5,2.6c0.3-1.4,0.5-2.1,0.6-2.3l2.4-8.5h2l1.8,6.4
	c0.5,1.6,0.8,3.1,1,4.5c0.2-0.8,0.4-1.7,0.6-2.8l2-8.1h1.7l-3.5,12.7h-1.6l-2.7-9.6c-0.2-0.8-0.4-1.3-0.4-1.5
	c-0.1,0.6-0.3,1.1-0.4,1.5l-2.7,9.6L-79.6,464.2L-79.6,464.2z"/>
<path class="st3" d="M-64.8,464.2l4.9-12.7h1.8l5.2,12.7h-1.9l-1.5-3.8h-5.3l-1.4,3.8H-64.8z M-61.1,459h4.3l-1.3-3.5
	c-0.4-1.1-0.7-1.9-0.9-2.6c-0.2,0.8-0.4,1.6-0.7,2.4L-61.1,459z"/>
<path class="st3" d="M-48.3,464.2v-11.2h-4.2v-1.5h10v1.5h-4.2v11.2H-48.3z"/>
<path class="st3" d="M-38.5,464.2v-12.7h9.2v1.5h-7.5v3.9h7v1.5h-7v4.3h7.8v1.5H-38.5z"/>
<path class="st3" d="M-25.4,464.2v-12.7h5.6c1.1,0,2,0.1,2.6,0.3c0.6,0.2,1.1,0.6,1.4,1.2c0.4,0.6,0.5,1.2,0.5,1.9
	c0,0.9-0.3,1.7-0.9,2.3c-0.6,0.6-1.5,1-2.7,1.2c0.4,0.2,0.8,0.4,1,0.6c0.5,0.4,1,1,1.4,1.7l2.2,3.4h-2.1l-1.7-2.6
	c-0.5-0.8-0.9-1.3-1.2-1.7c-0.3-0.4-0.6-0.7-0.9-0.8c-0.3-0.2-0.5-0.3-0.8-0.3c-0.2,0-0.5-0.1-0.9-0.1h-1.9v5.6L-25.4,464.2
	L-25.4,464.2z M-23.7,457.1h3.6c0.8,0,1.4-0.1,1.8-0.2c0.4-0.2,0.8-0.4,1-0.8c0.2-0.3,0.3-0.7,0.3-1.1c0-0.6-0.2-1.1-0.7-1.5
	c-0.4-0.4-1.1-0.6-2.1-0.6h-4V457.1z"/>
<path class="st3" d="M-1.4,464.2v-11.2h-4.2v-1.5h10v1.5H0.3v11.2H-1.4z"/>
<path class="st3" d="M8.2,464.2v-12.7h9.2v1.5H9.8v3.9h7v1.5h-7v4.3h7.8v1.5H8.2z"/>
<path class="st3" d="M30.5,459.8l1.7,0.4c-0.4,1.4-1,2.4-1.9,3.1s-2,1.1-3.3,1.1c-1.4,0-2.5-0.3-3.3-0.8c-0.9-0.6-1.5-1.4-2-2.4
	c-0.4-1.1-0.7-2.2-0.7-3.4c0-1.3,0.3-2.5,0.8-3.5s1.2-1.7,2.1-2.2c0.9-0.5,2-0.8,3.1-0.8c1.3,0,2.3,0.3,3.2,1
	c0.9,0.6,1.5,1.6,1.8,2.7l-1.6,0.4c-0.3-0.9-0.7-1.6-1.3-2c-0.6-0.4-1.3-0.6-2.1-0.6c-1,0-1.8,0.2-2.4,0.7s-1.1,1.1-1.4,1.9
	c-0.3,0.8-0.4,1.6-0.4,2.4c0,1.1,0.2,2,0.5,2.8s0.8,1.4,1.5,1.8c0.7,0.4,1.4,0.6,2.1,0.6c0.9,0,1.7-0.3,2.4-0.8
	C29.9,461.6,30.3,460.8,30.5,459.8z"/>
<path class="st3" d="M36.1,464.2v-12.7h1.7v5.2h6.6v-5.2H46v12.7h-1.7v-6h-6.6v6H36.1z"/>
<path class="st3" d="M51.1,464.2v-12.7h1.7l6.6,9.9v-9.9H61v12.7h-1.7l-6.6-9.9v9.9H51.1z"/>
<path class="st3" d="M64.8,458.1c0-2.1,0.6-3.7,1.7-4.9c1.1-1.2,2.6-1.8,4.4-1.8c1.2,0,2.2,0.3,3.2,0.8c0.9,0.6,1.7,1.3,2.1,2.3
	c0.5,1,0.7,2.1,0.7,3.4c0,1.3-0.3,2.4-0.8,3.4s-1.3,1.8-2.2,2.3c-1,0.5-2,0.8-3.1,0.8c-1.2,0-2.3-0.3-3.2-0.9
	c-0.9-0.6-1.6-1.4-2.1-2.4S64.8,459.2,64.8,458.1z M66.6,458.1c0,1.5,0.4,2.7,1.2,3.6c0.8,0.9,1.9,1.3,3.1,1.3
	c1.3,0,2.3-0.4,3.1-1.3c0.8-0.9,1.2-2.1,1.2-3.8c0-1-0.2-1.9-0.5-2.7c-0.3-0.8-0.9-1.4-1.5-1.8s-1.4-0.6-2.3-0.6
	c-1.2,0-2.2,0.4-3.1,1.2C67,454.8,66.6,456.2,66.6,458.1z"/>
<path class="st3" d="M80.8,464.2v-12.7h1.7v11.2h6.2v1.5H80.8z"/>
<path class="st3" d="M91.3,458.1c0-2.1,0.6-3.7,1.7-4.9c1.1-1.2,2.6-1.8,4.4-1.8c1.2,0,2.2,0.3,3.2,0.8c0.9,0.6,1.7,1.3,2.1,2.3
	c0.5,1,0.7,2.1,0.7,3.4c0,1.3-0.3,2.4-0.8,3.4s-1.3,1.8-2.2,2.3c-0.9,0.5-2,0.8-3.1,0.8c-1.2,0-2.3-0.3-3.2-0.9
	c-0.9-0.6-1.6-1.4-2.1-2.4C91.5,460.2,91.3,459.2,91.3,458.1z M93,458.1c0,1.5,0.4,2.7,1.2,3.6c0.8,0.9,1.9,1.3,3.1,1.3
	c1.3,0,2.3-0.4,3.1-1.3c0.8-0.9,1.2-2.1,1.2-3.8c0-1-0.2-1.9-0.5-2.7c-0.3-0.8-0.9-1.4-1.5-1.8s-1.4-0.6-2.3-0.6
	c-1.2,0-2.2,0.4-3.1,1.2C93.4,454.8,93,456.2,93,458.1z"/>
<path class="st3" d="M112.2,459.3v-1.5l5.4,0v4.7c-0.8,0.7-1.7,1.1-2.5,1.5c-0.9,0.3-1.8,0.5-2.7,0.5c-1.2,0-2.4-0.3-3.4-0.8
	c-1-0.5-1.8-1.3-2.3-2.3c-0.5-1-0.8-2.1-0.8-3.4c0-1.2,0.3-2.4,0.8-3.4c0.5-1.1,1.3-1.9,2.2-2.4c1-0.5,2.1-0.8,3.3-0.8
	c0.9,0,1.7,0.1,2.5,0.4s1.3,0.7,1.7,1.2c0.4,0.5,0.7,1.2,1,2.1l-1.5,0.4c-0.2-0.6-0.4-1.2-0.7-1.5c-0.3-0.4-0.7-0.7-1.2-0.9
	c-0.5-0.2-1.1-0.3-1.7-0.3c-0.8,0-1.4,0.1-2,0.4c-0.6,0.2-1,0.5-1.4,0.9c-0.3,0.4-0.6,0.8-0.8,1.3c-0.3,0.8-0.5,1.6-0.5,2.5
	c0,1.1,0.2,2.1,0.6,2.8c0.4,0.8,1,1.3,1.7,1.7c0.7,0.4,1.5,0.6,2.4,0.6c0.7,0,1.4-0.1,2.1-0.4c0.7-0.3,1.2-0.6,1.6-0.9v-2.4
	L112.2,459.3L112.2,459.3z"/>
<path class="st3" d="M125.1,464.2v-5.4l-4.9-7.3h2l2.5,3.8c0.5,0.7,0.9,1.4,1.3,2.1c0.4-0.7,0.8-1.4,1.4-2.2l2.5-3.7h2l-5.1,7.3v5.4
	H125.1z"/>
<rect x="-172" y="485" class="st3" width="306.9" height="0.7"/>
<radialGradient id="SVGID_3_" cx="-281.4714" cy="416.6521" r="44.454" gradientTransform="matrix(1 0 0 -1 0 841.67)" gradientUnits="userSpaceOnUse">
	<stop  offset="0" style="stop-color:#0092D0"/>
	<stop  offset="0.3403" style="stop-color:#007EBF"/>
	<stop  offset="1" style="stop-color:#004D97"/>
</radialGradient>
<path class="st4" d="M-264,472.6c7.2,0,30.8-5,32.3-34.7s-32.5-67.4-32.5-67.4s-33.9,37.8-32.5,67.4S-271.2,472.6-264,472.6z"/>
<radialGradient id="SVGID_4_" cx="46.8907" cy="543.4503" r="12.9149" gradientTransform="matrix(1.7564 0 0 -1.6071 -343.7538 1321.34)" gradientUnits="userSpaceOnUse">
	<stop  offset="0" style="stop-color:#FFFFFF;stop-opacity:0.57"/>
	<stop  offset="1" style="stop-color:#FFFFFF;stop-opacity:0"/>
</radialGradient>
<ellipse class="st5" cx="-261.4" cy="448" rx="21.8" ry="21.5"/>
<linearGradient id="SVGID_5_" gradientUnits="userSpaceOnUse" x1="-285.7745" y1="442.227" x2="-267.08" y2="427.1802" gradientTransform="matrix(1 0 0 -1 0 841.67)">
	<stop  offset="0" style="stop-color:#FFFFFF"/>
	<stop  offset="6.690000e-02" style="stop-color:#FFFFFF;stop-opacity:0.9331"/>
	<stop  offset="1" style="stop-color:#FFFFFF;stop-opacity:0"/>
</linearGradient>
<path class="st6" d="M-270.3,381.7c0,0-10.2,12.2-21.2,38.5c-11,32.5,19.6-4.8,36.3-7.6C-238.5,409.7-261.2,366-270.3,381.7z"/>
</svg>
