<?xml version="1.0" encoding="utf-8"?>
<!-- Generator: Adobe Illustrator 15.0.0, SVG Export Plug-In . SVG Version: 6.00 Build 0)  -->
<!DOCTYPE svg PUBLIC "-//W3C//DTD SVG 1.1//EN" "http://www.w3.org/Graphics/SVG/1.1/DTD/svg11.dtd">
<svg version="1.1" id="Calque_1" xmlns="http://www.w3.org/2000/svg" xmlns:xlink="http://www.w3.org/1999/xlink" x="0px" y="0px"
	 width="500px" height="500px" viewBox="0 0 500 500" enable-background="new 0 0 500 500" xml:space="preserve">
<path fill="#0D0909" d="M207.167,217.959h-14.42h-2.668h-15.814v21.988v6.174v47.362h18.482v-25.374h14.42
	c12.143,0,21.988-9.845,21.988-21.988v-6.174C229.155,227.804,219.31,217.959,207.167,217.959z M209.318,248.511
	c0,4.686-3.799,8.484-8.484,8.484c-0.818,0-3.74-0.115-8.007-0.331l-0.002-26.104c4.269-0.216,7.191-0.332,8.009-0.332
	c4.686,0,8.484,3.799,8.484,8.484V248.511z"/>
<path fill="#0D0909" d="M290.1,239.31c0-12.144-9.845-21.988-21.988-21.988h-10.993c-12.144,0-21.988,9.844-21.988,21.988v6.931
	c0,12.143,9.845,21.988,21.988,21.988h28.321v-11.233c0,0-18.045,0-21.511,0c-3.465,0-10.157-2.39-10.157-10.157
	c5.976,0,36.307,0,36.307,0L290.1,239.31z M272.824,238.294h-18.269c-0.001-0.06-0.007-0.119-0.007-0.179
	c0-5.973,4.093-10.815,9.142-10.815s9.142,4.842,9.142,10.815C272.832,238.175,272.825,238.234,272.824,238.294z"/>
<path fill="#0D0909" d="M330.093,218.278c0,0-10.835,0-13.702,0c-2.868,0-19.28,1.434-19.28,20.395s0,29.477,0,29.477h18.324
	c0,0,0-26.131,0-29.318c0-3.186,0.797-7.17,7.17-7.17c6.372,0,7.487,0,7.487,0L330.093,218.278z"/>
<path fill="#0D0909" d="M395.019,218.278c-2.146,0-38.302,0-40.628,0c-2.867,0-19.279,1.434-19.279,20.395s0,29.477,0,29.477h18.323
	c0,0,0-26.131,0-29.318c0-3.186,0.798-7.17,7.171-7.17c3.531,0,5.444,0,6.451,0v36.567h16.014v-36.567c1.119,0,2.908,0,5.734,0
	c6.373,0,7.17,3.984,7.17,7.17c0,3.187,0,29.318,0,29.318h18.324c0,0,0-10.517,0-29.477S397.887,218.278,395.019,218.278z"/>
<path fill="#0D0909" d="M458.037,217.003h-14.659c-12.144,0-21.988,9.844-21.988,21.988v7.808c0,12.144,9.845,21.988,21.988,21.988
	h14.659c12.143,0,21.987-9.844,21.987-21.988v-7.808C480.025,226.847,470.18,217.003,458.037,217.003z M460.906,248.403
	c0,5.097-4.494,9.229-10.039,9.229c-5.543,0-10.037-4.133-10.037-9.229v-10.221c0-5.097,4.494-9.229,10.037-9.229
	c5.545,0,10.039,4.132,10.039,9.229V248.403z"/>
<linearGradient id="SVGID_1_" gradientUnits="userSpaceOnUse" x1="18.7571" y1="252.2158" x2="143.6731" y2="252.2158">
	<stop  offset="0" style="stop-color:#C4C5C6"/>
	<stop  offset="1" style="stop-color:#565759"/>
</linearGradient>
<ellipse fill="url(#SVGID_1_)" cx="81.215" cy="252.216" rx="62.458" ry="65.167"/>
<linearGradient id="SVGID_2_" gradientUnits="userSpaceOnUse" x1="103.8977" y1="173.4014" x2="56.0981" y2="337.1942">
	<stop  offset="0" style="stop-color:#D4DBE1"/>
	<stop  offset="1" style="stop-color:#707173"/>
</linearGradient>
<ellipse fill="url(#SVGID_2_)" cx="80.896" cy="252.216" rx="60.228" ry="63.573"/>
<g>
	<path fill="#0092FF" d="M203.342,293.328V280.67h4.748c0.968,0,1.744,0.127,2.329,0.383c0.584,0.257,1.042,0.652,1.372,1.185
		c0.332,0.532,0.497,1.089,0.497,1.671c0,0.54-0.146,1.05-0.44,1.527c-0.293,0.478-0.738,0.864-1.33,1.157
		c0.766,0.225,1.354,0.607,1.766,1.148c0.412,0.542,0.617,1.181,0.617,1.918c0,0.592-0.125,1.144-0.375,1.652
		c-0.25,0.51-0.56,0.903-0.928,1.179c-0.368,0.277-0.83,0.485-1.385,0.627c-0.556,0.141-1.237,0.211-2.042,0.211H203.342z
		 M205.016,285.988h2.737c0.743,0,1.275-0.049,1.597-0.146c0.426-0.126,0.747-0.337,0.962-0.631
		c0.216-0.293,0.324-0.661,0.324-1.104c0-0.421-0.101-0.79-0.302-1.109c-0.203-0.319-0.49-0.539-0.863-0.657
		c-0.375-0.118-1.016-0.177-1.926-0.177h-2.53V285.988z M205.016,291.834h3.152c0.542,0,0.92-0.021,1.14-0.06
		c0.386-0.07,0.708-0.185,0.966-0.346c0.26-0.161,0.473-0.396,0.64-0.703c0.167-0.309,0.251-0.664,0.251-1.066
		c0-0.473-0.121-0.883-0.363-1.23c-0.242-0.35-0.577-0.594-1.006-0.735c-0.428-0.141-1.045-0.211-1.852-0.211h-2.927V291.834z"/>
	<path fill="#0092FF" d="M217.812,293.328V280.67h9.154v1.493h-7.478v3.877h7.002v1.485h-7.002v4.309h7.771v1.494H217.812z"/>
	<path fill="#0092FF" d="M230.628,289.262l1.58-0.139c0.076,0.633,0.25,1.153,0.523,1.56c0.273,0.404,0.698,0.733,1.274,0.983
		s1.222,0.375,1.943,0.375c0.639,0,1.202-0.095,1.692-0.284c0.488-0.189,0.854-0.451,1.091-0.781
		c0.24-0.331,0.359-0.693,0.359-1.084c0-0.396-0.115-0.744-0.345-1.041c-0.23-0.296-0.61-0.545-1.14-0.747
		c-0.34-0.132-1.091-0.338-2.253-0.617c-1.163-0.279-1.978-0.542-2.444-0.79c-0.604-0.316-1.055-0.709-1.351-1.179
		c-0.297-0.469-0.445-0.993-0.445-1.576c0-0.639,0.181-1.235,0.544-1.791c0.363-0.556,0.893-0.978,1.589-1.266
		c0.696-0.287,1.47-0.431,2.323-0.431c0.938,0,1.765,0.151,2.482,0.453c0.717,0.302,1.268,0.747,1.653,1.333
		c0.385,0.588,0.593,1.252,0.622,1.995l-1.605,0.121c-0.087-0.801-0.379-1.404-0.877-1.813s-1.233-0.613-2.206-0.613
		c-1.013,0-1.751,0.186-2.215,0.558c-0.463,0.371-0.695,0.818-0.695,1.343c0,0.455,0.165,0.828,0.492,1.122
		c0.322,0.294,1.164,0.595,2.526,0.902c1.36,0.309,2.296,0.577,2.802,0.808c0.736,0.34,1.281,0.771,1.632,1.291
		c0.351,0.521,0.526,1.121,0.526,1.801c0,0.673-0.192,1.308-0.579,1.903c-0.386,0.597-0.939,1.06-1.662,1.391
		c-0.723,0.33-1.536,0.497-2.439,0.497c-1.146,0-2.106-0.168-2.88-0.502c-0.774-0.333-1.381-0.835-1.821-1.506
		C230.883,290.866,230.652,290.107,230.628,289.262z"/>
	<path fill="#0092FF" d="M247.115,293.328v-11.165h-4.169v-1.493h10.034v1.493h-4.188v11.165H247.115z"/>
	<path fill="#0092FF" d="M265.385,293.328l-3.359-12.658h1.719l1.926,8.298c0.208,0.868,0.385,1.733,0.535,2.59
		c0.321-1.353,0.512-2.132,0.569-2.339l2.41-8.549h2.021l1.812,6.407c0.455,1.589,0.782,3.082,0.985,4.48
		c0.16-0.8,0.37-1.718,0.63-2.754l1.985-8.134h1.684l-3.47,12.658h-1.615l-2.669-9.646c-0.225-0.806-0.357-1.3-0.396-1.485
		c-0.133,0.582-0.257,1.077-0.372,1.485l-2.686,9.646H265.385z"/>
	<path fill="#0092FF" d="M280.211,293.328l4.861-12.658h1.805l5.181,12.658h-1.907l-1.478-3.833h-5.293l-1.391,3.833H280.211z
		 M283.864,288.13h4.291l-1.32-3.506c-0.403-1.065-0.702-1.939-0.898-2.624c-0.16,0.812-0.389,1.617-0.682,2.417L283.864,288.13z"/>
	<path fill="#0092FF" d="M296.748,293.328v-11.165h-4.17v-1.493h10.033v1.493h-4.188v11.165H296.748z"/>
	<path fill="#0092FF" d="M306.531,293.328V280.67h9.154v1.493h-7.479v3.877h7.004v1.485h-7.004v4.309h7.772v1.494H306.531z"/>
	<path fill="#0092FF" d="M319.627,293.328V280.67h5.613c1.128,0,1.986,0.113,2.573,0.34c0.587,0.229,1.056,0.63,1.407,1.205
		c0.351,0.576,0.527,1.212,0.527,1.908c0,0.897-0.291,1.656-0.872,2.271c-0.581,0.616-1.479,1.007-2.695,1.174
		c0.443,0.214,0.78,0.423,1.011,0.631c0.489,0.449,0.953,1.01,1.391,1.684l2.201,3.445h-2.107l-1.674-2.634
		c-0.49-0.76-0.893-1.342-1.21-1.744c-0.316-0.403-0.6-0.685-0.85-0.847c-0.251-0.16-0.506-0.272-0.764-0.336
		c-0.19-0.041-0.502-0.061-0.933-0.061h-1.943v5.621H319.627z M321.303,286.256h3.6c0.767,0,1.365-0.079,1.797-0.237
		c0.431-0.158,0.761-0.411,0.984-0.76c0.225-0.348,0.337-0.728,0.337-1.136c0-0.599-0.217-1.091-0.652-1.477
		c-0.434-0.385-1.121-0.578-2.06-0.578h-4.006V286.256z"/>
	<path fill="#0092FF" d="M343.616,293.328v-11.165h-4.17v-1.493h10.034v1.493h-4.189v11.165H343.616z"/>
	<path fill="#0092FF" d="M353.174,293.328V280.67h9.152v1.493h-7.478v3.877h7.003v1.485h-7.003v4.309h7.771v1.494H353.174z"/>
	<path fill="#0092FF" d="M375.547,288.89l1.675,0.424c-0.351,1.376-0.981,2.425-1.895,3.147s-2.028,1.084-3.347,1.084
		c-1.364,0-2.474-0.278-3.328-0.834c-0.855-0.556-1.506-1.36-1.952-2.413c-0.446-1.054-0.669-2.185-0.669-3.394
		c0-1.318,0.251-2.469,0.755-3.45s1.222-1.727,2.15-2.236c0.93-0.51,1.953-0.764,3.07-0.764c1.266,0,2.331,0.322,3.194,0.967
		c0.864,0.645,1.465,1.551,1.805,2.72l-1.649,0.39c-0.293-0.923-0.72-1.593-1.278-2.014c-0.558-0.42-1.26-0.629-2.106-0.629
		c-0.973,0-1.786,0.231-2.439,0.698s-1.112,1.093-1.376,1.879c-0.266,0.786-0.398,1.596-0.398,2.431
		c0,1.076,0.157,2.017,0.471,2.819s0.801,1.402,1.464,1.8c0.662,0.398,1.379,0.596,2.15,0.596c0.938,0,1.731-0.271,2.382-0.812
		C374.876,290.758,375.317,289.955,375.547,288.89z"/>
	<path fill="#0092FF" d="M381.053,293.328V280.67h1.676v5.197h6.579v-5.197h1.676v12.658h-1.676v-5.967h-6.579v5.967H381.053z"/>
	<path fill="#0092FF" d="M396.058,293.328V280.67h1.718l6.649,9.938v-9.938h1.605v12.658h-1.719l-6.648-9.947v9.947H396.058z"/>
	<path fill="#0092FF" d="M409.824,287.162c0-2.101,0.564-3.745,1.693-4.935c1.127-1.188,2.584-1.783,4.369-1.783
		c1.169,0,2.222,0.28,3.16,0.839c0.938,0.558,1.653,1.337,2.146,2.336c0.491,0.998,0.737,2.13,0.737,3.396
		c0,1.284-0.259,2.433-0.777,3.446c-0.518,1.013-1.252,1.779-2.201,2.301c-0.95,0.521-1.976,0.782-3.074,0.782
		c-1.192,0-2.257-0.288-3.195-0.865c-0.938-0.574-1.649-1.36-2.133-2.356S409.824,288.273,409.824,287.162z M411.551,287.188
		c0,1.525,0.411,2.729,1.23,3.605c0.821,0.878,1.851,1.316,3.088,1.316c1.261,0,2.298-0.442,3.113-1.329
		c0.813-0.887,1.221-2.145,1.221-3.773c0-1.031-0.174-1.931-0.521-2.698c-0.349-0.77-0.857-1.365-1.528-1.788
		s-1.424-0.634-2.259-0.634c-1.186,0-2.206,0.407-3.061,1.222C411.98,283.923,411.551,285.284,411.551,287.188z"/>
	<path fill="#0092FF" d="M425.826,293.328V280.67h1.675v11.164h6.234v1.494H425.826z"/>
	<path fill="#0092FF" d="M436.258,287.162c0-2.101,0.564-3.745,1.693-4.935c1.128-1.188,2.584-1.783,4.37-1.783
		c1.168,0,2.221,0.28,3.159,0.839c0.938,0.558,1.654,1.337,2.146,2.336c0.491,0.998,0.738,2.13,0.738,3.396
		c0,1.284-0.26,2.433-0.778,3.446c-0.518,1.013-1.252,1.779-2.202,2.301c-0.949,0.521-1.975,0.782-3.073,0.782
		c-1.192,0-2.257-0.288-3.195-0.865c-0.938-0.574-1.648-1.36-2.133-2.356C436.5,289.327,436.258,288.273,436.258,287.162z
		 M437.986,287.188c0,1.525,0.41,2.729,1.23,3.605c0.82,0.878,1.85,1.316,3.087,1.316c1.261,0,2.298-0.442,3.113-1.329
		c0.813-0.887,1.222-2.145,1.222-3.773c0-1.031-0.175-1.931-0.522-2.698c-0.349-0.77-0.857-1.365-1.528-1.788
		s-1.424-0.634-2.259-0.634c-1.186,0-2.206,0.407-3.061,1.222C438.413,283.923,437.986,285.284,437.986,287.188z"/>
	<path fill="#0092FF" d="M457.215,288.363v-1.484l5.361-0.01v4.698c-0.822,0.655-1.671,1.149-2.547,1.48
		c-0.875,0.33-1.772,0.497-2.694,0.497c-1.242,0-2.373-0.268-3.389-0.8c-1.017-0.532-1.783-1.302-2.302-2.31
		c-0.518-1.007-0.777-2.132-0.777-3.377c0-1.231,0.259-2.381,0.772-3.449c0.516-1.068,1.257-1.86,2.225-2.379
		c0.967-0.518,2.081-0.776,3.341-0.776c0.916,0,1.744,0.147,2.483,0.444s1.32,0.709,1.74,1.239c0.419,0.529,0.739,1.221,0.959,2.073
		l-1.513,0.413c-0.189-0.645-0.425-1.151-0.708-1.519c-0.281-0.37-0.685-0.665-1.209-0.886c-0.523-0.222-1.104-0.332-1.743-0.332
		c-0.767,0-1.429,0.116-1.987,0.35c-0.558,0.233-1.009,0.539-1.351,0.919c-0.343,0.38-0.608,0.797-0.799,1.252
		c-0.322,0.782-0.484,1.632-0.484,2.547c0,1.129,0.194,2.073,0.583,2.833c0.39,0.76,0.955,1.323,1.697,1.692
		c0.743,0.369,1.532,0.553,2.366,0.553c0.726,0,1.434-0.14,2.124-0.419c0.691-0.278,1.215-0.577,1.571-0.894v-2.357H457.215z"/>
	<path fill="#0092FF" d="M470.103,293.328v-5.362l-4.879-7.296h2.038l2.495,3.816c0.461,0.714,0.89,1.427,1.287,2.142
		c0.38-0.662,0.84-1.407,1.382-2.237l2.452-3.721h1.951l-5.052,7.296v5.362H470.103z"/>
	<rect x="172.99" y="314.116" fill="#0092FF" width="306.874" height="0.717"/>
</g>
<g>
	<radialGradient id="SVGID_3_" cx="63.5286" cy="254.1279" r="44.454" gradientUnits="userSpaceOnUse">
		<stop  offset="0" style="stop-color:#0092D0"/>
		<stop  offset="0.3403" style="stop-color:#007EBF"/>
		<stop  offset="1" style="stop-color:#004D97"/>
	</radialGradient>
	<path fill="url(#SVGID_3_)" d="M80.976,301.688c7.17,0,30.831-5.02,32.265-34.655s-32.504-67.397-32.504-67.397
		s-33.938,37.762-32.504,67.397S73.806,301.688,80.976,301.688z"/>
</g>
<radialGradient id="SVGID_4_" cx="540.4709" cy="191.9219" r="12.9146" gradientTransform="matrix(1.7564 0 0 1.6071 -865.6698 -31.3747)" gradientUnits="userSpaceOnUse">
	<stop  offset="0" style="stop-color:#FFFFFF;stop-opacity:0.57"/>
	<stop  offset="1" style="stop-color:#FFFFFF;stop-opacity:0"/>
</radialGradient>
<ellipse opacity="0.61" fill="url(#SVGID_4_)" cx="83.605" cy="277.071" rx="21.828" ry="21.51"/>
<linearGradient id="SVGID_5_" gradientUnits="userSpaceOnUse" x1="59.2249" y1="228.5537" x2="77.9194" y2="243.6005">
	<stop  offset="0" style="stop-color:#FFFFFF"/>
	<stop  offset="0.0669" style="stop-color:#FFFFFF;stop-opacity:0.9331"/>
	<stop  offset="1" style="stop-color:#FFFFFF;stop-opacity:0"/>
</linearGradient>
<path fill="url(#SVGID_5_)" d="M74.734,210.844c0,0-10.249,12.213-21.243,38.503c-10.994,32.504,19.598-4.78,36.328-7.648
	C106.549,238.832,83.794,195.131,74.734,210.844z"/>
</svg>
