<?xml version="1.0" encoding="utf-8"?>
<!-- Generator: Adobe Illustrator 21.0.2, SVG Export Plug-In . SVG Version: 6.00 Build 0)  -->
<svg version="1.1" id="Calque_1" xmlns="http://www.w3.org/2000/svg" xmlns:xlink="http://www.w3.org/1999/xlink" x="0px" y="0px"
	 viewBox="0 0 500 500" style="enable-background:new 0 0 500 500;" xml:space="preserve">
<style type="text/css">
	.st0{fill:#0B5ED8;}
	.st1{fill:#FFFFFF;}
</style>
<path class="st0" d="M252.3,28C148,28,75.9,37.6,75.9,37.6v261.8c0,98.7,78.4,175.5,175.5,175.5c96.3,0,175.5-75.8,175.5-177.8V37.6
	C426.9,37.6,357.3,28,252.3,28z M212,152.7l-2.7,20.2c-1.1,6.4-3.9,8.4-10.6,9.4l-19.2,2.4l-2.2-18
	C186.8,161.3,198.5,156.1,212,152.7z M211.9,218.3l-16.8-2.5c-7.9-1.7-12.4-7.2-13.5-17.1l-1.7-12l19.9,2.8c6.6,0.7,8.9,3.9,9.8,11
	L211.9,218.3z M180.6,253.7c2.4-17.1,4.7-21.5,19.1-23.8l40.8-5.4v-2.7l-26.2-3.2l2.6-19.9c0.7-5.8,3.4-8.4,10.6-9.3l21.2-2.9v-1.6
	l-22.6-2.9c-6.5-1.1-8.6-3.8-9.3-9.8l-2.7-20.1c0,0,15.6-4.7,37.3-4.7c84.1,0,134.1,63.6,146.3,110.1c-12.8-8.3-38.9-20.3-70.2-20.3
	c-63.4,0-95.6,40.4-150.9,50.8L180.6,253.7z M172.1,169.9l-3.8,28.5c-0.8,6.1-1.5,9.1-4.8,12.9c-2.8,3.1-7.4,4.2-12.7,5.2l-29.2,3.9
	C132.7,201.9,149.3,183.7,172.1,169.9z M118.4,225.8l31.6,4c6,0.8,10.3,2,13.2,5.2c2.8,3.1,4,5,5.7,16.8l4.7,36.9
	c0,0-9.6,1.7-21.6,1.8c-20.7,0-39.5-5.3-51.4-10.1C103,259.3,109,243.6,118.4,225.8z M300.4,381.6c12.8,1.4,18.8,5.6,20.2,18.3
	l4.3,32.6c-12.7,7.6-39.7,19.1-73.6,19.1c-64.3,0-125.3-40.1-146.4-110.8c18.6,11.7,45.3,20.4,71.1,20.4c67.2,0,99.7-42.7,150-51.6
	l-5.3,41.6c-1.9,10.7-4.8,15.4-17.7,17.5l-41.3,5.3v2.8L300.4,381.6z M330,429.8l3.2-26c2.1-14.7,4.5-20,18.8-21.8l29.6-3.8
	C366.6,402.4,349.9,417,330,429.8z M384.6,373l-29.9-3.9c-15.4-1.8-19.2-5.6-21.2-20.5l-5.1-39.5c0,0,10.2-1.7,21.9-1.7
	c17.4,0,41,5.6,52,10.4C399.8,336.2,396.4,351.1,384.6,373z M341.6,284.1c-71.4,0-100.6,52.5-172.2,52.5c-27.7,0-50.7-7.1-69.1-18.4
	c-0.5-4.3-1-13-1.1-18.8c13.1,6.8,32.8,14.9,61.9,14.9c70.6,0,102.5-52.9,172-52.9c28.6,0,52.8,8.2,69.1,18.4
	c0.7,6.3,0.9,12.6,1.2,19C384.8,289.6,365.5,284.1,341.6,284.1z"/>
<path class="st0" d="M299.5,410.2c-4.7-0.7-6.5-3.2-7.2-7.2l-2.2-17.6h-1.3l-2.3,17.9c-0.9,4.3-2.6,6-7.3,6.8l-17.5,2.4v1.3
	l16.9,2.2c5.6,0.7,7.6,3.3,8.2,8.6l2,16.4h1.2l2.2-16.8c1.1-6.8,3.7-7.4,8.5-8.3l16.4-2.1v-1.3L299.5,410.2z"/>
<rect x="216.8" y="70.6" class="st1" width="16.3" height="53.4"/>
<polygon class="st1" points="188.5,91.8 171.5,91.8 171.5,70.6 155.2,70.6 155.2,124 171.5,124 171.5,103 188.5,103 188.5,124 
	204.8,124 204.8,70.6 188.5,70.6 "/>
<path class="st1" d="M121.7,69.5c-6.5,0-14.3,0.4-19.9,1.1V124h16.3v-12.7h5.8c15.2,0,24.8-7.8,24.8-21.5
	C148.7,74.9,138.4,69.5,121.7,69.5z M120.8,101.7h-1.9V79.6c1-0.1,1.1-0.1,1.9-0.1c8,0,11.8,3.8,11.8,10.5
	C132.6,97,129.3,101.7,120.8,101.7z"/>
<path class="st1" d="M331.4,69.5c-6.5,0-14.3,0.4-19.9,1.1V124h16.3v-12.7h5.8c15.2,0,24.8-7.8,24.8-21.5
	C358.5,74.9,348.2,69.5,331.4,69.5z M330.5,101.7h-2V79.6c0.9-0.1,1.1-0.1,2-0.1c8,0,11.8,3.8,11.8,10.5
	C342.4,97,339,101.7,330.5,101.7z"/>
<path class="st1" d="M379.7,84.2c0-2.9,2.9-4.2,7.6-4.2c5.1,0,10.7,1.1,14.5,2.7l-1.3-11.6c-4.2-0.9-8-1.6-15-1.6
	c-13.2,0-22.1,5.2-22.1,16.1c0,18.8,25.5,15,25.5,23.7c0,3.4-2.5,5.1-8.5,5.1c-5.4,0-13.6-1.8-18.5-4.2l1.8,12.3
	c4.9,1.8,11.6,2.7,17,2.7c13.6,0,24.8-4.5,24.8-17.9C405.4,89.4,379.7,92.7,379.7,84.2z"/>
<polygon class="st1" points="261.5,70.6 245.2,70.6 245.2,124 274.7,124 277.1,113.3 261.5,113.3 "/>
<rect x="283" y="70.6" class="st1" width="16.3" height="53.4"/>
</svg>
