<?xml version="1.0" encoding="utf-8"?>
<!-- Generator: Adobe Illustrator 15.0.0, SVG Export Plug-In . SVG Version: 6.00 Build 0)  -->
<!DOCTYPE svg PUBLIC "-//W3C//DTD SVG 1.1//EN" "http://www.w3.org/Graphics/SVG/1.1/DTD/svg11.dtd">
<svg version="1.1" id="Calque_1" xmlns="http://www.w3.org/2000/svg" xmlns:xlink="http://www.w3.org/1999/xlink" x="0px" y="0px"
	 width="500px" height="500px" viewBox="0 0 500 500" enable-background="new 0 0 500 500" xml:space="preserve">
<g>
	<polygon fill="#031E8E" points="138.591,201.257 149.746,201.257 151.381,191.045 108.25,191.045 106.615,201.257 116.018,201.257 
		106.892,258.159 97.488,258.159 95.851,268.372 138.982,268.372 140.619,258.159 129.465,258.159 	"/>
	<path fill="#031E8E" d="M96.444,197.629c-7.326-5.845-13.52-6.584-21.65-6.584H25.617l-1.636,10.212h9.605l-9.18,57.239H14.262
		l-1.508,9.406h42.46l1.508-9.406h-9.743l4.853-30.257l6.755,11.916c0,0,13.162,9.674,32.231-2.418
		C109.89,225.644,103.771,203.474,96.444,197.629z M67.426,230.279c-7.947,0-13.152-3.485-15.109-5.07l3.842-23.953h16.999
		c8.535,0,12.817,8.868,11.751,15.519C83.843,223.426,77.705,230.279,67.426,230.279z"/>
	<path fill="#031E8E" d="M204.994,248.418c-3.218,6.249-11.411,12.093-18.465,12.093c-18.139,0-22.6-14.915-20.144-30.232
		c2.457-15.318,13.37-31.844,29.695-31.844c16.326,0,17.07,16.729,17.07,16.729h5.845l2.519-15.721
		c-4.769-5.442-15.651-10.48-27.744-10.48c-24.186,0-45.493,19.751-48.757,40.107c-3.265,20.356,6.312,42.325,33.925,42.325
		c27.612,0,34.722-22.976,34.722-22.976S209.025,248.418,204.994,248.418z"/>
	<path fill="#031E8E" d="M473.126,230.354c4.872-30.374-19.177-38.772-46.587-38.772c-21.062,0-41.046,0-41.046,0l-1.551,9.675
		h9.202l-9.223,57.507h-13.907l-13.243-22.975c0,0,18.246-0.672,21.306-19.751c3.04-18.957-12.14-24.382-33.025-24.452v-0.004
		h-41.79l-1.55,9.675h9.201l-9.223,57.507h-15.217l-3.953-67.718h-25.799l-41.223,67.718h-6.046l-1.553,9.674h24.859l1.553-9.674
		h-6.892l13.045-21.229h23.707l0.728,21.229h-6.807l-1.553,9.674h76.455l1.553-9.674h-10.283l9.222-57.507H343.5
		c0,0,18.058-1.613,15.569,13.907c-0.549,3.426-1.958,14.712-27.199,12.496c11.056,21.565,21.143,40.778,21.143,40.778h26.334
		h50.121C429.468,268.438,466.966,268.774,473.126,230.354z M245.749,228.935l17.173-27.946l0.956,27.946H245.749z M407.364,258.764
		c-0.29-0.016-0.569-0.021-0.863-0.038l9.216-57.469h10.001c-0.006,0.077-0.009,0.131-0.009,0.131s30.36-0.402,25.715,28.563
		c-1.453,9.057-5.176,27.079-34.464,28.812H407.364z"/>
	<polygon fill="#031E8E" points="242.178,279.978 242.176,279.978 241.401,284.696 241.403,284.696 240.068,292.821 
		240.066,292.821 239.291,297.539 239.292,297.539 237.957,305.664 237.953,305.664 237.179,310.381 237.179,310.381 
		237.179,310.381 244.302,310.381 244.302,310.381 260.02,310.381 260.798,305.664 245.077,305.664 246.414,297.539 259.85,297.539 
		260.626,292.821 247.189,292.821 248.525,284.696 264.244,284.696 265.019,279.978 249.3,279.978 	"/>
	<polygon fill="#031E8E" points="415.104,279.978 415.104,279.978 414.328,284.696 414.329,284.696 412.995,292.821 
		412.993,292.821 412.217,297.539 412.218,297.539 410.883,305.664 410.88,305.664 410.105,310.381 410.105,310.381 
		410.105,310.381 417.229,310.381 417.229,310.381 432.945,310.381 433.725,305.664 418.003,305.664 419.341,297.539 
		432.775,297.539 433.553,292.821 420.116,292.821 421.452,284.696 437.171,284.696 437.946,279.978 422.227,279.978 	"/>
	<path fill="#031E8E" d="M298.37,287.58c1.349-8.191-10.309-7.603-10.309-7.603h-6.245h-6.788h-0.334l-4.997,30.403h7.12
		l4.225-25.685h5.508c3.091,0,5.323,0.72,4.71,4.455c-0.948,5.768-10.094,4.587-10.094,4.587l5.729,16.643h7.124l-5.016-13.63
		C289.003,296.751,297.022,295.77,298.37,287.58z"/>
	<path fill="#031E8E" d="M332.028,287.58c1.348-8.191-10.31-7.603-10.31-7.603h-6.244h-6.788h-0.333l-4.999,30.403h7.121
		l4.225-25.685h5.508c3.091,0,5.324,0.72,4.709,4.455c-0.947,5.768-10.092,4.587-10.092,4.587l5.728,16.643h7.123l-5.015-13.63
		C322.661,296.751,330.68,295.77,332.028,287.58z"/>
	<path fill="#031E8E" d="M405.122,287.58c1.347-8.191-10.31-7.603-10.31-7.603h-6.244h-6.788h-0.334l-4.999,30.403h7.123
		l4.223-25.685h5.508c3.091,0,5.322,0.72,4.709,4.455c-0.947,5.768-10.092,4.587-10.092,4.587l5.73,16.643h7.12l-5.016-13.63
		C395.753,296.751,403.775,295.77,405.122,287.58z"/>
	<path fill="#031E8E" d="M371.056,279.848h-6.853l-3.05,18.542c-0.854,5.186-5.129,7.616-8.989,7.781
		c-3.492-0.151-6.699-2.219-6.545-6.568h0.017l3.25-19.755h-6.853l-3.05,18.542c0,0-3.256,12.758,11.943,12.758
		c-0.002,0.007-0.003,0.014-0.003,0.02c0.145,0,0.279-0.008,0.422-0.011c0.141,0.003,0.273,0.011,0.419,0.011
		c0-0.006,0.001-0.013,0.003-0.02c14.305-0.363,15.961-9.796,16.148-12.202L371.056,279.848z"/>
	<path fill="#031E8E" d="M223.619,294.394c-3.998-3.475-5.533-5.177-5.318-6.488c0.216-1.31,1.186-3.537,5.554-3.537
		c4.368,0,6.358,1.376,6.358,1.376l0.089-5.438c0,0-13.643-4.061-18.291,4.586c-1.904,5.045,0.534,8.191,2.89,10.223
		c2.352,2.031,6.841,5.373,6.39,8.125c-0.454,2.751-7.043,5.242-13.521,0.916c0.003,4.062,0.105,5.897,0.105,5.897
		s18.157,4.391,20.23-5.766C228.971,300.033,227.615,297.867,223.619,294.394z"/>
	<path fill="#031E8E" d="M458.755,294.394c-3.998-3.475-5.532-5.177-5.316-6.488c0.214-1.31,1.186-3.537,5.553-3.537
		c4.368,0,6.358,1.376,6.358,1.376l0.088-5.438c0,0-13.644-4.061-18.29,4.586c-1.904,5.045,0.534,8.191,2.888,10.223
		s6.845,5.373,6.391,8.125c-0.451,2.751-7.044,5.242-13.521,0.916c0.003,4.062,0.105,5.897,0.105,5.897s18.156,4.391,20.229-5.766
		C464.107,300.033,462.75,297.867,458.755,294.394z"/>
</g>
<g>
	<path fill="#031E8E" d="M477.109,204.647v-8.733h4.026c0.808,0,1.426,0.078,1.846,0.235c0.422,0.156,0.759,0.434,1.01,0.83
		c0.252,0.398,0.378,0.837,0.378,1.318c0,0.619-0.208,1.141-0.627,1.566c-0.416,0.424-1.06,0.694-1.931,0.81
		c0.318,0.147,0.56,0.292,0.724,0.434c0.353,0.311,0.685,0.697,0.997,1.162l1.579,2.377h-1.511l-1.2-1.817
		c-0.353-0.524-0.643-0.926-0.869-1.203c-0.227-0.278-0.431-0.473-0.609-0.584c-0.18-0.111-0.361-0.189-0.548-0.232
		c-0.137-0.028-0.358-0.042-0.669-0.042h-1.395v3.879H477.109z M478.311,199.768h2.583c0.55,0,0.979-0.055,1.29-0.164
		c0.308-0.109,0.545-0.284,0.705-0.524c0.161-0.241,0.24-0.502,0.24-0.783c0-0.414-0.153-0.753-0.465-1.02
		c-0.313-0.266-0.806-0.398-1.479-0.398h-2.875V199.768z"/>
</g>
<g>
	<path fill="#031E8E" d="M480.738,207.696c-4.738,0-8.592-3.42-8.592-7.625c0-4.204,3.854-7.625,8.592-7.625
		c4.736,0,8.589,3.42,8.589,7.625C489.327,204.276,485.475,207.696,480.738,207.696z M480.738,193.463
		c-4.155,0-7.533,2.965-7.533,6.608c0,3.644,3.378,6.608,7.533,6.608c4.151,0,7.53-2.964,7.53-6.608
		C488.269,196.428,484.89,193.463,480.738,193.463z"/>
</g>
</svg>
