<?xml version="1.0" encoding="utf-8"?>
<!-- Generator: Adobe Illustrator 19.1.0, SVG Export Plug-In . SVG Version: 6.00 Build 0)  -->
<svg version="1.1" id="Calque_1" xmlns="http://www.w3.org/2000/svg" xmlns:xlink="http://www.w3.org/1999/xlink" x="0px" y="0px"
	 viewBox="-345 170.9 500 500" style="enable-background:new -345 170.9 500 500;" xml:space="preserve">
<style type="text/css">
	.st0{fill:#031E8E;}
</style>
<polygon class="st0" points="-206.4,372.1 -195.3,372.1 -193.6,361.9 -236.8,361.9 -238.4,372.1 -229,372.1 -238.1,429 -247.5,429 
	-249.1,439.3 -206,439.3 -204.4,429 -215.5,429 "/>
<path class="st0" d="M-248.6,368.5c-7.3-5.8-13.5-6.6-21.6-6.6h-49.2l-1.6,10.2h9.6l-9.2,57.2h-10.1l-1.5,9.4h42.5l1.5-9.4h-9.7
	l4.9-30.3l6.8,11.9c0,0,13.2,9.7,32.2-2.4C-235.1,396.5-241.2,374.4-248.6,368.5z M-277.6,401.2c-7.9,0-13.2-3.5-15.1-5.1l3.8-24h17
	c8.5,0,12.8,8.9,11.8,15.5C-261.2,394.3-267.3,401.2-277.6,401.2z"/>
<path class="st0" d="M-140,419.3c-3.2,6.2-11.4,12.1-18.5,12.1c-18.1,0-22.6-14.9-20.1-30.2c2.5-15.3,13.4-31.8,29.7-31.8
	c16.3,0,17.1,16.7,17.1,16.7h5.8l2.5-15.7c-4.8-5.4-15.7-10.5-27.7-10.5c-24.2,0-45.5,19.8-48.8,40.1c-3.3,20.4,6.3,42.3,33.9,42.3
	c27.6,0,34.7-23,34.7-23S-136,419.3-140,419.3z"/>
<path class="st0" d="M128.1,401.2c4.9-30.4-19.2-38.8-46.6-38.8c-21.1,0-41,0-41,0l-1.6,9.7h9.2l-9.2,57.5H25l-13.2-23
	c0,0,18.2-0.7,21.3-19.8c3-19-12.1-24.4-33-24.5v0h-41.8l-1.5,9.7h9.2l-9.2,57.5h-15.2l-4-67.7h-25.8l-41.2,67.7h-6l-1.6,9.7h24.9
	l1.6-9.7h-6.9l13-21.2h23.7l0.7,21.2h-6.8l-1.6,9.7H-12l1.6-9.7h-10.3l9.2-57.5h10c0,0,18.1-1.6,15.6,13.9
	c-0.5,3.4-2,14.7-27.2,12.5C-2.1,420.1,8,439.3,8,439.3h26.3h50.1C84.5,439.3,122,439.7,128.1,401.2z M-99.3,399.8l17.2-27.9l1,27.9
	H-99.3z M62.4,429.7c-0.3,0-0.6,0-0.9,0l9.2-57.5h10c0,0.1,0,0.1,0,0.1s30.4-0.4,25.7,28.6c-1.5,9.1-5.2,27.1-34.5,28.8L62.4,429.7
	L62.4,429.7z"/>
<polygon class="st0" points="-102.8,450.9 -102.8,450.9 -103.6,455.6 -103.6,455.6 -104.9,463.7 -104.9,463.7 -105.7,468.4 
	-105.7,468.4 -107,476.6 -107,476.6 -107.8,481.3 -107.8,481.3 -107.8,481.3 -100.7,481.3 -100.7,481.3 -85,481.3 -84.2,476.6 
	-99.9,476.6 -98.6,468.4 -85.1,468.4 -84.4,463.7 -97.8,463.7 -96.5,455.6 -80.8,455.6 -80,450.9 -95.7,450.9 "/>
<polygon class="st0" points="70.1,450.9 70.1,450.9 69.3,455.6 69.3,455.6 68,463.7 68,463.7 67.2,468.4 67.2,468.4 65.9,476.6 
	65.9,476.6 65.1,481.3 65.1,481.3 65.1,481.3 72.2,481.3 72.2,481.3 87.9,481.3 88.7,476.6 73,476.6 74.3,468.4 87.8,468.4 
	88.6,463.7 75.1,463.7 76.5,455.6 92.2,455.6 92.9,450.9 77.2,450.9 "/>
<path class="st0" d="M-46.6,458.5c1.3-8.2-10.3-7.6-10.3-7.6h-6.2H-70h-0.3l-5,30.4h7.1l4.2-25.7h5.5c3.1,0,5.3,0.7,4.7,4.5
	c-0.9,5.8-10.1,4.6-10.1,4.6l5.7,16.6h7.1l-5-13.6C-56,467.6-48,466.7-46.6,458.5z"/>
<path class="st0" d="M-13,458.5c1.3-8.2-10.3-7.6-10.3-7.6h-6.2h-6.8h-0.3l-5,30.4h7.1l4.2-25.7h5.5c3.1,0,5.3,0.7,4.7,4.5
	c-0.9,5.8-10.1,4.6-10.1,4.6l5.7,16.6h7.1l-5-13.6C-22.3,467.6-14.3,466.7-13,458.5z"/>
<path class="st0" d="M60.1,458.5c1.3-8.2-10.3-7.6-10.3-7.6h-6.2h-6.8h-0.3l-5,30.4h7.1l4.2-25.7h5.5c3.1,0,5.3,0.7,4.7,4.5
	c-0.9,5.8-10.1,4.6-10.1,4.6l5.7,16.6h7.1l-5-13.6C50.8,467.6,58.8,466.7,60.1,458.5z"/>
<path class="st0" d="M26.1,450.7h-6.9l-3,18.5c-0.9,5.2-5.1,7.6-9,7.8c-3.5-0.2-6.7-2.2-6.5-6.6h0l3.2-19.8H-3l-3,18.5
	c0,0-3.3,12.8,11.9,12.8c0,0,0,0,0,0c0.1,0,0.3,0,0.4,0c0.1,0,0.3,0,0.4,0c0,0,0,0,0,0c14.3-0.4,16-9.8,16.1-12.2L26.1,450.7z"/>
<path class="st0" d="M-121.4,465.3c-4-3.5-5.5-5.2-5.3-6.5c0.2-1.3,1.2-3.5,5.6-3.5s6.4,1.4,6.4,1.4l0.1-5.4c0,0-13.6-4.1-18.3,4.6
	c-1.9,5,0.5,8.2,2.9,10.2c2.4,2,6.8,5.4,6.4,8.1c-0.5,2.8-7,5.2-13.5,0.9c0,4.1,0.1,5.9,0.1,5.9s18.2,4.4,20.2-5.8
	C-116,470.9-117.4,468.8-121.4,465.3z"/>
<path class="st0" d="M113.8,465.3c-4-3.5-5.5-5.2-5.3-6.5c0.2-1.3,1.2-3.5,5.6-3.5c4.4,0,6.4,1.4,6.4,1.4l0.1-5.4
	c0,0-13.6-4.1-18.3,4.6c-1.9,5,0.5,8.2,2.9,10.2s6.8,5.4,6.4,8.1c-0.5,2.8-7,5.2-13.5,0.9c0,4.1,0.1,5.9,0.1,5.9s18.2,4.4,20.2-5.8
	C119.1,470.9,117.8,468.8,113.8,465.3z"/>
<path class="st0" d="M132.1,375.5v-8.7h4c0.8,0,1.4,0.1,1.8,0.2c0.4,0.2,0.8,0.4,1,0.8c0.3,0.4,0.4,0.8,0.4,1.3
	c0,0.6-0.2,1.1-0.6,1.6c-0.4,0.4-1.1,0.7-1.9,0.8c0.3,0.1,0.6,0.3,0.7,0.4c0.4,0.3,0.7,0.7,1,1.2l1.6,2.4h-1.5l-1.2-1.8
	c-0.4-0.5-0.6-0.9-0.9-1.2c-0.2-0.3-0.4-0.5-0.6-0.6c-0.2-0.1-0.4-0.2-0.5-0.2c-0.1,0-0.4,0-0.7,0h-1.4v3.9L132.1,375.5L132.1,375.5
	z M133.3,370.7h2.6c0.5,0,1-0.1,1.3-0.2c0.3-0.1,0.5-0.3,0.7-0.5c0.2-0.2,0.2-0.5,0.2-0.8c0-0.4-0.2-0.8-0.5-1
	c-0.3-0.3-0.8-0.4-1.5-0.4h-2.9L133.3,370.7L133.3,370.7z"/>
<path class="st0" d="M135.7,378.6c-4.7,0-8.6-3.4-8.6-7.6c0-4.2,3.9-7.6,8.6-7.6c4.7,0,8.6,3.4,8.6,7.6
	C144.3,375.2,140.5,378.6,135.7,378.6z M135.7,364.4c-4.2,0-7.5,3-7.5,6.6c0,3.6,3.4,6.6,7.5,6.6c4.2,0,7.5-3,7.5-6.6
	C143.3,367.3,139.9,364.4,135.7,364.4z"/>
</svg>
