<?xml version="1.0" encoding="utf-8"?>
<!-- Generator: Adobe Illustrator 21.0.2, SVG Export Plug-In . SVG Version: 6.00 Build 0)  -->
<svg version="1.1" id="Calque_1" xmlns="http://www.w3.org/2000/svg" xmlns:xlink="http://www.w3.org/1999/xlink" x="0px" y="0px"
	 viewBox="0 0 500 160" style="enable-background:new 0 0 500 160;" xml:space="preserve">
<style type="text/css">
	.st0{fill:#031E8E;}
</style>
<polygon class="st0" points="138.6,31.2 149.7,31.2 151.4,21 108.2,21 106.6,31.2 116,31.2 106.9,88.1 97.5,88.1 95.9,98.4 
	139,98.4 140.6,88.1 129.5,88.1 "/>
<path class="st0" d="M96.4,27.6C89.1,21.8,82.9,21,74.8,21H25.6L24,31.2h9.6l-9.2,57.2H14.3l-1.5,9.4h42.5l1.5-9.4h-9.7L52,58.1
	L58.8,70c0,0,13.2,9.7,32.2-2.4C109.9,55.6,103.8,33.5,96.4,27.6z M67.4,60.3c-7.9,0-13.2-3.5-15.1-5.1l3.8-24h17
	c8.5,0,12.8,8.9,11.8,15.5C83.8,53.4,77.7,60.3,67.4,60.3z"/>
<path class="st0" d="M205,78.4c-3.2,6.2-11.4,12.1-18.5,12.1c-18.1,0-22.6-14.9-20.1-30.2c2.5-15.3,13.4-31.8,29.7-31.8
	s17.1,16.7,17.1,16.7h5.8l2.5-15.7c-4.8-5.4-15.7-10.5-27.7-10.5c-24.2,0-45.5,19.8-48.8,40.1c-3.3,20.4,6.3,42.3,33.9,42.3
	s34.7-23,34.7-23S209,78.4,205,78.4z"/>
<path class="st0" d="M473.1,60.3c4.9-30.4-19.2-38.8-46.6-38.8c-21.1,0-41,0-41,0l-1.6,9.7h9.2l-9.2,57.5H370l-13.2-23
	c0,0,18.2-0.7,21.3-19.8c3-19-12.1-24.4-33-24.5l0,0h-41.8l-1.5,9.7h9.2l-9.2,57.5h-15.2l-4-67.7h-25.8l-41.2,67.7h-6l-1.6,9.7h24.9
	l1.6-9.7h-6.9l13-21.2h23.7l0.7,21.2h-6.8l-1.6,9.7H333l1.6-9.7h-10.3l9.2-57.5h10c0,0,18.1-1.6,15.6,13.9
	c-0.5,3.4-2,14.7-27.2,12.5c11,21.7,21.1,40.9,21.1,40.9h26.3h50.1C429.5,98.4,467,98.8,473.1,60.3z M245.7,58.9L262.9,31l1,27.9
	H245.7z M407.4,88.8c-0.3,0-0.6,0-0.9,0l9.2-57.5h10c0,0.1,0,0.1,0,0.1S456.1,31,451.4,60c-1.5,9.1-5.2,27.1-34.5,28.8H407.4
	L407.4,88.8z"/>
<polygon class="st0" points="242.2,110 242.2,110 241.4,114.7 241.4,114.7 240.1,122.8 240.1,122.8 239.3,127.5 239.3,127.5 
	238,135.7 238,135.7 237.2,140.4 237.2,140.4 237.2,140.4 244.3,140.4 244.3,140.4 260,140.4 260.8,135.7 245.1,135.7 246.4,127.5 
	259.9,127.5 260.6,122.8 247.2,122.8 248.5,114.7 264.2,114.7 265,110 249.3,110 "/>
<polygon class="st0" points="415.1,110 415.1,110 414.3,114.7 414.3,114.7 413,122.8 413,122.8 412.2,127.5 412.2,127.5 
	410.9,135.7 410.9,135.7 410.1,140.4 410.1,140.4 410.1,140.4 417.2,140.4 417.2,140.4 432.9,140.4 433.7,135.7 418,135.7 
	419.3,127.5 432.8,127.5 433.6,122.8 420.1,122.8 421.5,114.7 437.2,114.7 437.9,110 422.2,110 "/>
<path class="st0" d="M298.4,117.6c1.3-8.2-10.3-7.6-10.3-7.6h-6.2H275h-0.3l-5,30.4h7.1l4.2-25.7h5.5c3.1,0,5.3,0.7,4.7,4.5
	c-0.9,5.8-10.1,4.6-10.1,4.6l5.7,16.6h7.1l-5-13.6C289,126.7,297,125.8,298.4,117.6z"/>
<path class="st0" d="M332,117.6c1.3-8.2-10.3-7.6-10.3-7.6h-6.2h-6.8h-0.3l-5,30.4h7.1l4.2-25.7h5.5c3.1,0,5.3,0.7,4.7,4.5
	c-0.9,5.8-10.1,4.6-10.1,4.6l5.7,16.6h7.1l-5-13.6C322.7,126.7,330.7,125.8,332,117.6z"/>
<path class="st0" d="M405.1,117.6c1.3-8.2-10.3-7.6-10.3-7.6h-6.2h-6.8h-0.3l-5,30.4h7.1l4.2-25.7h5.5c3.1,0,5.3,0.7,4.7,4.5
	c-0.9,5.8-10.1,4.6-10.1,4.6l5.7,16.6h7.1l-5-13.6C395.8,126.7,403.8,125.8,405.1,117.6z"/>
<path class="st0" d="M371.1,109.8h-6.9l-3,18.5c-0.9,5.2-5.1,7.6-9,7.8c-3.5-0.2-6.7-2.2-6.5-6.6l0,0l3.2-19.8H342l-3,18.5
	c0,0-3.3,12.8,11.9,12.8l0,0c0.1,0,0.3,0,0.4,0c0.1,0,0.3,0,0.4,0l0,0c14.3-0.4,16-9.8,16.1-12.2L371.1,109.8z"/>
<path class="st0" d="M223.6,124.4c-4-3.5-5.5-5.2-5.3-6.5c0.2-1.3,1.2-3.5,5.6-3.5s6.4,1.4,6.4,1.4l0.1-5.4c0,0-13.6-4.1-18.3,4.6
	c-1.9,5,0.5,8.2,2.9,10.2c2.4,2,6.8,5.4,6.4,8.1c-0.5,2.8-7,5.2-13.5,0.9c0,4.1,0.1,5.9,0.1,5.9s18.2,4.4,20.2-5.8
	C229,130,227.6,127.9,223.6,124.4z"/>
<path class="st0" d="M458.8,124.4c-4-3.5-5.5-5.2-5.3-6.5s1.2-3.5,5.6-3.5s6.4,1.4,6.4,1.4l0.1-5.4c0,0-13.6-4.1-18.3,4.6
	c-1.9,5,0.5,8.2,2.9,10.2c2.4,2,6.8,5.4,6.4,8.1c-0.5,2.8-7,5.2-13.5,0.9c0,4.1,0.1,5.9,0.1,5.9s18.2,4.4,20.2-5.8
	C464.1,130,462.8,127.9,458.8,124.4z"/>
<path class="st0" d="M477.1,34.6v-8.7h4c0.8,0,1.4,0.1,1.8,0.2c0.4,0.2,0.8,0.4,1,0.8c0.3,0.4,0.4,0.8,0.4,1.3
	c0,0.6-0.2,1.1-0.6,1.6c-0.4,0.4-1.1,0.7-1.9,0.8c0.3,0.1,0.6,0.3,0.7,0.4c0.4,0.3,0.7,0.7,1,1.2l1.6,2.4h-1.5l-1.2-1.8
	c-0.4-0.5-0.6-0.9-0.9-1.2c-0.2-0.3-0.4-0.5-0.6-0.6s-0.4-0.2-0.5-0.2c-0.1,0-0.4,0-0.7,0h-1.4v3.9L477.1,34.6L477.1,34.6z
	 M478.3,29.8h2.6c0.5,0,1-0.1,1.3-0.2s0.5-0.3,0.7-0.5c0.2-0.2,0.2-0.5,0.2-0.8c0-0.4-0.2-0.8-0.5-1c-0.3-0.3-0.8-0.4-1.5-0.4h-2.9
	L478.3,29.8L478.3,29.8z"/>
<path class="st0" d="M480.7,37.7c-4.7,0-8.6-3.4-8.6-7.6s3.9-7.6,8.6-7.6c4.7,0,8.6,3.4,8.6,7.6S485.5,37.7,480.7,37.7z M480.7,23.5
	c-4.2,0-7.5,3-7.5,6.6s3.4,6.6,7.5,6.6c4.2,0,7.5-3,7.5-6.6C488.3,26.4,484.9,23.5,480.7,23.5z"/>
</svg>
