<?xml version="1.0" encoding="utf-8"?>
<!-- Generator: Adobe Illustrator 19.1.0, SVG Export Plug-In . SVG Version: 6.00 Build 0)  -->
<svg version="1.1" id="Calque_1" xmlns="http://www.w3.org/2000/svg" xmlns:xlink="http://www.w3.org/1999/xlink" x="0px" y="0px"
	 viewBox="-345 170.9 500 500" style="enable-background:new -345 170.9 500 500;" xml:space="preserve">
<style type="text/css">
	.st0{fill:#089B90;}
</style>
<path class="st0" d="M-290.5,368h-22.3l0,0h-16v73.4h19.4v-19.7h18.9c33,0,35.6-19.4,35.6-27C-254.9,386.1-260.3,368-290.5,368z
	 M-290.8,409.4h-18.6v-29.1h18.6c0,0,15.7-1.3,15.7,14.5C-275,410.7-290.8,409.4-290.8,409.4z"/>
<rect x="-242.8" y="348.8" class="st0" width="21.5" height="74.4"/>
<path class="st0" d="M-156.7,368.6c-10.8,0-47,0-47,0v11.2c0,0,30.7,0,36.2,0s14.9,1.8,14.9,10c0,0-20,0-28.9,0
	c-8.8,0-26.9,1-26.9,15.5v1.2c0,14.5,18.1,15.5,26.9,15.5c8.8,0,28.9,0,28.9,0h19.7c0,0,0-28.9,0-32.8
	C-133,385.3-132.2,368.6-156.7,368.6z M-152.7,411.2c0,0-19.1,0-24.1,0c-3.7,0-11.4-0.1-11.4-5.2c0-5.1,6.9-6,10.8-6s24.7,0,24.7,0
	L-152.7,411.2L-152.7,411.2z"/>
<path class="st0" d="M-189.3,454.5c-8.3,0-36.2,0-36.2,0v8.6c0,0,23.6,0,27.9,0c4.2,0,11.5,1.4,11.5,7.7c0,0-15.5,0-22.3,0
	s-20.8,0.8-20.8,12v0.9c0,11.2,13.9,12,20.8,12s22.3,0,22.3,0h15.2c0,0,0-22.3,0-25.3S-170.4,454.5-189.3,454.5z M-186.2,487.4
	c0,0-14.7,0-18.6,0c-2.9,0-8.8-0.1-8.8-4c0-3.9,5.3-4.6,8.3-4.6s19,0,19,0L-186.2,487.4L-186.2,487.4z"/>
<path class="st0" d="M-48.9,385.3c-0.6-13.3-14.3-16.4-23.2-17.1v0h-0.3c-4.1-0.3-7.1,0-7.1,0h-16.3h-19.7v12.2v42.5h19.7v-42.5
	h21.8c5.8,1.2,5.6,4.9,5.6,4.9v37.5h19.7L-48.9,385.3L-48.9,385.3L-48.9,385.3z"/>
<path class="st0" d="M48.8,467c-0.5-10.1-11.2-12.5-18.2-13v0h-0.3c-3.2-0.2-5.6,0-5.6,0H11.9H-3.5v9.2v32.2h15.4v-32.2H29
	c4.6,0.9,4.4,3.7,4.4,3.7v28.5h15.4L48.8,467L48.8,467L48.8,467z"/>
<path class="st0" d="M142.7,465.9c-0.5-9.4-10.1-11.6-16.4-12.1v0h-0.2c-2.9-0.2-63.8,0-63.8,0v8.6v32.8h13.9v-32.8h19.1l0.2,32.8
	h0.1h13.9h0.1v-32.8h15.4c4.1,0.9,3.9,3.5,3.9,3.5v29.4h13.9L142.7,465.9L142.7,465.9L142.7,465.9z"/>
<path class="st0" d="M31.4,401.5v-12.2h-44.7v-2c0-4.7,6-8.5,13.4-8.5h30.5V369l-47.2,0.1c-7.4,0-13.4,6-13.4,13.4v27.3
	c0,7.4,6,13.4,13.4,13.4h41.9c1.9,0,5.4,0,5.4,0v-9.8H0.1c-7.4,0-13.4-3.8-13.4-8.5v-3.2L31.4,401.5L31.4,401.5z"/>
<path class="st0" d="M91.3,379.4V369H68.5v-20.2H49.2V369H36v10.5h13.3v22.1v3.3c0,0-1.3,18.2,21.1,18.2v0.1h19.9v-11.2l-13-0.1
	c-6.4,0-8.7-6.3-8.7-9.3v-23L91.3,379.4L91.3,379.4z"/>
<path class="st0" d="M-120.7,462.5v-8H-138v-15.4h-14.6v15.4h-10.1v8h10.1v16.8v2.5c0,0-1,13.8,16.1,13.8v0.1h15.1v-8.5l-9.9-0.1
	c-4.9,0-6.6-4.8-6.6-7.1v-17.5L-120.7,462.5L-120.7,462.5z"/>
<path class="st0" d="M-76.9,462.5v-8h-17.3v-15.4h-14.6v15.4H-119v8h10.1v16.8v2.5c0,0-1,13.8,16.1,13.8v0.1h15.1v-8.5l-9.9-0.1
	c-4.9,0-6.6-4.8-6.6-7.1v-17.5L-76.9,462.5L-76.9,462.5z"/>
<polygon class="st0" points="-230.6,453.1 -246.8,453.1 -259.6,478.9 -272.2,453.7 -288.3,453.7 -300.9,478.9 -313.7,453.1 
	-329.8,453.1 -309,495.2 -292.9,495.2 -292.9,495.2 -280.2,469.8 -267.7,495.2 -251.5,495.2 "/>
<rect x="-3.7" y="438.9" class="st0" width="15.7" height="57"/>
<path class="st0" d="M-42.3,453.4c-16.4,0-29.6,9.5-29.6,21.2c0,11.7,13.3,21.2,29.6,21.2c16.4,0,29.6-9.5,29.6-21.2
	C-12.7,462.9-26,453.4-42.3,453.4z M-42.3,488c-8.7,0-15.7-6-15.7-13.3c0-7.4,7-13.3,15.7-13.3c8.7,0,15.7,6,15.7,13.3
	C-26.6,482-33.7,488-42.3,488z"/>
</svg>
