<?xml version="1.0" encoding="utf-8"?>
<!-- Generator: Adobe Illustrator 15.0.0, SVG Export Plug-In . SVG Version: 6.00 Build 0)  -->
<!DOCTYPE svg PUBLIC "-//W3C//DTD SVG 1.1//EN" "http://www.w3.org/Graphics/SVG/1.1/DTD/svg11.dtd">
<svg version="1.1" id="Calque_1" xmlns="http://www.w3.org/2000/svg" xmlns:xlink="http://www.w3.org/1999/xlink" x="0px" y="0px"
	 width="500px" height="500px" viewBox="0 0 500 500" enable-background="new 0 0 500 500" xml:space="preserve">
<g>
	<g>
		<path d="M32.09,297.267V147.44h56.516c9.95,0,17.545,0.479,22.793,1.431c7.36,1.226,13.524,3.561,18.498,7.002
			c4.971,3.44,8.978,8.261,12.011,14.46c3.028,6.201,4.545,13.015,4.545,20.44c0,12.741-4.054,23.523-12.163,32.346
			c-8.109,8.825-22.753,13.234-43.943,13.234H51.919v60.912H32.09z M51.919,218.675h38.733c12.81,0,21.905-2.383,27.286-7.153
			c5.38-4.77,8.076-11.481,8.076-20.135c0-6.268-1.583-11.632-4.752-16.097c-3.17-4.461-7.344-7.41-12.519-8.839
			c-3.341-0.885-9.505-1.33-18.5-1.33H51.919V218.675z"/>
		<path d="M142.69,297.267V147.44h18.395v149.826H142.69z"/>
		<path d="M234.175,283.88c-6.811,5.791-13.369,9.88-19.67,12.264c-6.307,2.384-13.066,3.576-20.288,3.576
			c-11.924,0-21.088-2.912-27.495-8.737c-6.401-5.825-9.606-13.269-9.606-22.33c0-5.314,1.212-10.171,3.63-14.563
			c2.42-4.396,5.585-7.922,9.506-10.579c3.917-2.657,8.329-4.667,13.233-6.029c3.612-0.955,9.063-1.874,16.352-2.76
			c14.853-1.771,25.788-3.885,32.81-6.336c0.066-2.521,0.1-4.122,0.1-4.804c0-7.494-1.736-12.774-5.213-15.841
			c-4.7-4.155-11.683-6.235-20.952-6.235c-8.653,0-15.041,1.517-19.163,4.548c-4.12,3.034-7.168,8.398-9.148,16.098l-17.983-2.453
			c1.633-7.698,4.323-13.917,8.071-18.653c3.75-4.734,9.165-8.378,16.253-10.935c7.084-2.554,15.293-3.831,24.627-3.831
			c9.269,0,16.797,1.09,22.586,3.27c5.792,2.18,10.052,4.923,12.777,8.227c2.723,3.305,4.634,7.479,5.724,12.52
			c0.613,3.135,0.92,8.788,0.92,16.966v24.528c0,17.101,0.391,27.917,1.174,32.448c0.781,4.531,2.336,8.874,4.65,13.029h-19.214
			C235.946,293.454,234.72,288.988,234.175,283.88z M232.646,242.795c-6.678,2.726-16.696,5.042-30.048,6.95
			c-7.564,1.09-12.911,2.317-16.045,3.678c-3.134,1.364-5.553,3.358-7.256,5.98c-1.706,2.623-2.555,5.534-2.555,8.738
			c0,4.902,1.854,8.99,5.569,12.264c3.713,3.27,9.146,4.905,16.301,4.905c7.084,0,13.389-1.55,18.908-4.651
			c5.52-3.099,9.57-7.34,12.16-12.723c1.977-4.156,2.967-10.288,2.967-18.397V242.795z"/>
		<path d="M255.895,297.267V188.73h16.555v15.432c7.975-11.921,19.486-17.884,34.545-17.884c6.541,0,12.557,1.174,18.043,3.525
			c5.48,2.349,9.588,5.434,12.311,9.25c2.725,3.816,4.633,8.347,5.725,13.593c0.682,3.407,1.021,9.368,1.021,17.885v66.736h-18.395
			v-66.02c0-7.494-0.715-13.099-2.146-16.812c-1.432-3.713-3.969-6.676-7.611-8.891c-3.65-2.214-7.924-3.323-12.826-3.323
			c-7.838,0-14.602,2.487-20.289,7.461c-5.691,4.975-8.533,14.41-8.533,28.311v59.275H255.895z"/>
		<path d="M423.938,262.313l19.01,2.353c-3,11.104-8.553,19.725-16.662,25.856c-8.109,6.131-18.465,9.197-31.068,9.197
			c-15.875,0-28.463-4.888-37.764-14.666c-9.297-9.774-13.949-23.488-13.949-41.135c0-18.258,4.699-32.43,14.105-42.515
			c9.402-10.083,21.596-15.125,36.588-15.125c14.51,0,26.365,4.94,35.566,14.818c9.195,9.879,13.795,23.78,13.795,41.698
			c0,1.09-0.033,2.726-0.102,4.906h-80.943c0.684,11.923,4.055,21.052,10.117,27.388c6.062,6.337,13.629,9.506,22.688,9.506
			c6.748,0,12.502-1.771,17.273-5.314C417.361,275.737,421.145,270.083,423.938,262.313z M363.535,232.575h60.604
			c-0.814-9.13-3.133-15.978-6.949-20.542c-5.857-7.085-13.457-10.629-22.787-10.629c-8.453,0-15.555,2.828-21.312,8.482
			C367.332,215.543,364.15,223.106,363.535,232.575z"/>
		<path d="M479.359,280.813l2.662,16.249c-5.18,1.09-9.812,1.635-13.9,1.635c-6.678,0-11.857-1.056-15.535-3.167
			c-3.68-2.111-6.27-4.89-7.766-8.33c-1.504-3.439-2.252-10.681-2.252-21.717v-62.445h-13.49V188.73h13.49v-26.879l18.297-11.039
			v37.917h18.494v14.308h-18.494v63.465c0,5.247,0.32,8.621,0.969,10.119s1.705,2.691,3.17,3.577
			c1.463,0.886,3.557,1.329,6.285,1.329C473.33,281.529,476.023,281.29,479.359,280.813z"/>
	</g>
	<g>
		<path fill="#FF6700" d="M345.816,166.634l3.016-0.447c-0.172,1.138,0.023,2.011,0.586,2.616c0.562,0.606,1.506,0.91,2.836,0.91
			c1.34,0,2.41-0.269,3.217-0.806c0.805-0.537,1.312-1.167,1.523-1.89c0.189-0.649,0.055-1.16-0.408-1.531
			c-0.324-0.256-1.225-0.581-2.695-0.974c-1.984-0.532-3.33-0.992-4.043-1.381c-0.713-0.387-1.182-0.924-1.408-1.611
			c-0.225-0.687-0.217-1.444,0.025-2.273c0.223-0.756,0.604-1.455,1.143-2.099c0.537-0.644,1.174-1.179,1.902-1.604
			c0.549-0.329,1.25-0.609,2.1-0.837c0.85-0.229,1.723-0.343,2.619-0.343c1.35,0,2.48,0.191,3.389,0.575
			c0.908,0.383,1.51,0.901,1.803,1.555c0.295,0.654,0.375,1.53,0.236,2.625l-2.963,0.382c0.125-0.871-0.051-1.552-0.527-2.042
			c-0.479-0.49-1.285-0.734-2.418-0.734c-1.34,0-2.359,0.218-3.059,0.654c-0.699,0.436-1.135,0.947-1.307,1.532
			c-0.109,0.372-0.09,0.707,0.061,1.005c0.148,0.309,0.445,0.563,0.896,0.767c0.26,0.105,1.045,0.351,2.357,0.733
			c1.906,0.542,3.215,0.987,3.928,1.333c0.715,0.346,1.207,0.848,1.479,1.508c0.271,0.659,0.266,1.479-0.021,2.457
			c-0.281,0.957-0.828,1.858-1.643,2.705c-0.816,0.845-1.824,1.499-3.029,1.962s-2.48,0.694-3.832,0.694
			c-2.236,0-3.805-0.458-4.707-1.373C345.967,169.787,345.615,168.432,345.816,166.634z"/>
		<path fill="#FF6700" d="M365.266,171.693l-0.305-16.945h3.012l-0.125,9.781l-0.045,3.638c0.098-0.181,0.734-1.346,1.916-3.495
			l5.641-9.924h2.998l-0.303,9.828l-0.09,3.239l1.947-3.271l5.816-9.796h2.834l-10.338,16.945h-3.029l0.232-10.148l0.182-2.889
			l-7.299,13.037H365.266z"/>
		<path fill="#FF6700" d="M391.945,151.604l0.967-3.303h2.918l-0.969,3.303H391.945z M386.064,171.693l4.961-16.945h2.916
			l-4.961,16.945H386.064z"/>
		<path fill="#FF6700" d="M393.732,166.634l3.014-0.447c-0.17,1.138,0.025,2.011,0.588,2.617c0.562,0.605,1.508,0.909,2.834,0.909
			c1.34,0,2.412-0.269,3.219-0.806c0.805-0.537,1.312-1.167,1.525-1.89c0.189-0.649,0.053-1.16-0.41-1.531
			c-0.326-0.256-1.225-0.581-2.695-0.974c-1.984-0.532-3.33-0.992-4.045-1.381c-0.711-0.387-1.18-0.924-1.406-1.611
			c-0.225-0.687-0.217-1.444,0.025-2.273c0.221-0.756,0.604-1.455,1.143-2.099c0.537-0.644,1.174-1.179,1.902-1.604
			c0.551-0.329,1.25-0.609,2.1-0.837c0.852-0.229,1.723-0.343,2.619-0.343c1.35,0,2.479,0.191,3.389,0.575
			c0.908,0.383,1.51,0.901,1.805,1.555c0.295,0.654,0.373,1.53,0.236,2.625l-2.965,0.382c0.125-0.871-0.051-1.552-0.527-2.042
			c-0.479-0.49-1.283-0.734-2.418-0.734c-1.338,0-2.359,0.218-3.059,0.654c-0.699,0.436-1.135,0.947-1.307,1.532
			c-0.109,0.372-0.088,0.707,0.062,1.005c0.145,0.309,0.443,0.563,0.893,0.767c0.262,0.105,1.047,0.351,2.361,0.733
			c1.902,0.542,3.213,0.987,3.928,1.333c0.711,0.346,1.205,0.848,1.477,1.508c0.271,0.659,0.264,1.479-0.021,2.457
			c-0.281,0.957-0.828,1.858-1.645,2.705c-0.814,0.845-1.822,1.499-3.029,1.962c-1.203,0.463-2.48,0.694-3.83,0.694
			c-2.234,0-3.805-0.458-4.707-1.373C393.883,169.789,393.529,168.432,393.732,166.634z"/>
		<path fill="#FF6700" d="M410.32,166.634l3.014-0.447c-0.17,1.138,0.025,2.011,0.588,2.617c0.562,0.605,1.506,0.909,2.834,0.909
			c1.34,0,2.412-0.269,3.219-0.806c0.805-0.537,1.312-1.167,1.525-1.89c0.189-0.649,0.053-1.16-0.41-1.531
			c-0.326-0.256-1.225-0.581-2.697-0.974c-1.982-0.532-3.328-0.992-4.043-1.381c-0.711-0.387-1.18-0.924-1.406-1.611
			c-0.225-0.687-0.217-1.444,0.025-2.273c0.221-0.756,0.602-1.455,1.141-2.099s1.176-1.179,1.904-1.604
			c0.549-0.329,1.25-0.609,2.1-0.837c0.85-0.229,1.723-0.343,2.619-0.343c1.35,0,2.479,0.191,3.387,0.575
			c0.91,0.383,1.51,0.901,1.807,1.555c0.293,0.654,0.371,1.53,0.236,2.625l-2.965,0.382c0.125-0.871-0.051-1.552-0.527-2.042
			s-1.283-0.734-2.418-0.734c-1.338,0-2.359,0.218-3.059,0.654c-0.699,0.436-1.137,0.947-1.307,1.532
			c-0.111,0.372-0.09,0.707,0.061,1.005c0.146,0.309,0.445,0.563,0.895,0.767c0.262,0.105,1.047,0.351,2.361,0.733
			c1.904,0.542,3.211,0.987,3.926,1.333c0.713,0.346,1.207,0.848,1.479,1.508c0.271,0.659,0.264,1.479-0.023,2.457
			c-0.281,0.957-0.828,1.858-1.643,2.705c-0.814,0.845-1.822,1.499-3.027,1.962s-2.482,0.694-3.832,0.694
			c-2.236,0-3.805-0.458-4.709-1.373C410.469,169.789,410.117,168.432,410.32,166.634z"/>
	</g>
	<g>
		<path d="M19.364,346.358v-27.853h3.265l7.312,14.092c1.667,3.264,3.026,6.156,4.081,9.051l0.102-0.043
			c-0.272-3.719-0.34-7.106-0.34-11.406v-11.693h2.788v27.853h-2.992l-7.277-14.134c-1.598-3.099-3.129-6.28-4.251-9.298
			l-0.101,0.042c0.169,3.511,0.204,6.86,0.204,11.487v11.902H19.364z"/>
		<path d="M48.3,346.812c-4.421,0-7.89-3.968-7.89-10.289c0-6.694,3.639-10.621,8.161-10.621c4.727,0,7.924,4.173,7.924,10.249
			c0,7.437-4.251,10.661-8.162,10.661H48.3z M48.401,344.085c2.857,0,5-3.265,5-7.812c0-3.388-1.395-7.644-4.931-7.644
			c-3.503,0-5.033,3.968-5.033,7.769c0,4.38,2.04,7.687,4.931,7.687H48.401z"/>
		<path d="M74.04,340.903c0,2.065,0.034,3.884,0.135,5.455h-2.651l-0.17-3.265h-0.068c-0.748,1.611-2.516,3.719-5.441,3.719
			c-2.584,0-5.678-1.777-5.678-8.761v-11.694h2.993v11.033c0,3.803,0.986,6.405,3.673,6.405c2.006,0,3.401-1.693,3.945-3.347
			c0.17-0.496,0.271-1.158,0.271-1.86v-12.231h2.993V340.903z"/>
		<path d="M78.591,342.68c0.918,0.662,2.483,1.405,3.979,1.405c2.143,0,3.164-1.281,3.164-2.977c0-1.734-0.851-2.685-3.027-3.676
			c-2.992-1.323-4.387-3.266-4.387-5.662c0-3.224,2.177-5.868,5.679-5.868c1.666,0,3.128,0.537,4.012,1.239l-0.714,2.604
			c-0.645-0.454-1.836-1.156-3.366-1.156c-1.769,0-2.72,1.24-2.72,2.727c0,1.694,0.952,2.438,3.094,3.43
			c2.822,1.282,4.319,3.018,4.319,6.033c0,3.555-2.279,6.034-6.121,6.034c-1.803,0-3.469-0.579-4.625-1.405L78.591,342.68z"/>
		<path d="M103.14,332.598c0-2.356-0.034-4.381-0.136-6.24h2.619l0.135,3.926h0.102c0.748-2.688,2.584-4.381,4.591-4.381
			c0.306,0,0.544,0.042,0.817,0.123v3.39c-0.34-0.04-0.646-0.083-1.055-0.083c-2.109,0-3.605,1.942-4.013,4.629
			c-0.068,0.538-0.102,1.115-0.102,1.735v10.662h-2.993L103.14,332.598z"/>
		<path d="M115.725,336.979c0.067,4.916,2.618,6.941,5.611,6.941c2.143,0,3.469-0.454,4.557-0.991l0.544,2.561
			c-1.054,0.578-2.891,1.282-5.508,1.282c-5.034,0-8.094-4.092-8.094-10.082c0-6.075,2.958-10.829,7.754-10.829
			c5.372,0,6.767,5.743,6.767,9.423c0,0.744-0.034,1.322-0.101,1.735L115.725,336.979z M124.464,334.374
			c0.034-2.273-0.782-5.909-4.114-5.909c-3.061,0-4.353,3.39-4.592,5.909H124.464z"/>
		<path d="M131.058,331.771c0-2.106-0.035-3.76-0.136-5.413h2.653l0.17,3.264h0.067c0.816-1.859,2.721-3.719,5.441-3.719
			c2.278,0,5.815,1.652,5.815,8.513v11.943h-2.993v-11.53c0-3.225-0.986-5.95-3.809-5.95c-1.938,0-3.468,1.694-4.013,3.72
			c-0.135,0.454-0.204,1.115-0.204,1.693v12.067h-2.992V331.771z"/>
		<path d="M164.143,317.018v24.176c0,1.775,0.034,3.801,0.136,5.165h-2.687l-0.136-3.471h-0.067
			c-0.918,2.231-2.891,3.925-5.577,3.925c-3.979,0-7.074-4.091-7.074-10.166c-0.034-6.693,3.401-10.744,7.38-10.744
			c2.55,0,4.25,1.447,4.964,3.017h0.069v-11.901H164.143z M161.15,334.499c0-0.497-0.035-1.074-0.136-1.571
			c-0.443-2.272-2.075-4.173-4.319-4.173c-3.094,0-4.931,3.305-4.931,7.686c0,4.091,1.667,7.438,4.863,7.438
			c2.007,0,3.843-1.653,4.387-4.34c0.101-0.495,0.136-0.991,0.136-1.569V334.499z"/>
		<path d="M175.803,346.812c-4.421,0-7.89-3.968-7.89-10.289c0-6.694,3.639-10.621,8.162-10.621c4.727,0,7.924,4.173,7.924,10.249
			c0,7.437-4.252,10.661-8.162,10.661H175.803z M175.904,344.085c2.857,0,5-3.265,5-7.812c0-3.388-1.395-7.644-4.931-7.644
			c-3.503,0-5.033,3.968-5.033,7.769c0,4.38,2.04,7.687,4.931,7.687H175.904z"/>
		<path d="M187.769,331.771c0-2.106-0.034-3.76-0.136-5.413h2.653l0.168,3.264h0.069c0.816-1.859,2.721-3.719,5.441-3.719
			c2.278,0,5.815,1.652,5.815,8.513v11.943h-2.994v-11.53c0-3.225-0.985-5.95-3.809-5.95c-1.938,0-3.468,1.694-4.012,3.72
			c-0.135,0.454-0.204,1.115-0.204,1.693v12.067h-2.992V331.771z"/>
		<path d="M206.23,342.68c0.918,0.662,2.483,1.405,3.979,1.405c2.143,0,3.164-1.281,3.164-2.977c0-1.734-0.851-2.685-3.027-3.676
			c-2.993-1.323-4.387-3.266-4.387-5.662c0-3.224,2.177-5.868,5.679-5.868c1.666,0,3.128,0.537,4.012,1.239l-0.714,2.604
			c-0.646-0.454-1.836-1.156-3.366-1.156c-1.769,0-2.72,1.24-2.72,2.727c0,1.694,0.952,2.438,3.094,3.43
			c2.822,1.282,4.319,3.018,4.319,6.033c0,3.555-2.279,6.034-6.122,6.034c-1.802,0-3.468-0.579-4.624-1.405L206.23,342.68z"/>
		<path d="M228.25,317.018h2.992v29.341h-2.992V317.018z"/>
		<path d="M237.907,336.979c0.068,4.916,2.618,6.941,5.611,6.941c2.143,0,3.468-0.454,4.557-0.991l0.544,2.561
			c-1.055,0.578-2.891,1.282-5.509,1.282c-5.033,0-8.093-4.092-8.093-10.082c0-6.075,2.958-10.829,7.753-10.829
			c5.373,0,6.767,5.743,6.767,9.423c0,0.744-0.033,1.322-0.102,1.735L237.907,336.979z M246.646,334.374
			c0.034-2.273-0.782-5.909-4.114-5.909c-3.061,0-4.353,3.39-4.592,5.909H246.646z"/>
		<path d="M252.83,342.68c0.918,0.662,2.484,1.405,3.98,1.405c2.141,0,3.162-1.281,3.162-2.977c0-1.734-0.852-2.685-3.027-3.676
			c-2.992-1.323-4.386-3.266-4.386-5.662c0-3.224,2.175-5.868,5.679-5.868c1.666,0,3.127,0.537,4.012,1.239l-0.715,2.604
			c-0.645-0.454-1.836-1.156-3.365-1.156c-1.77,0-2.721,1.24-2.721,2.727c0,1.694,0.951,2.438,3.096,3.43
			c2.82,1.282,4.318,3.018,4.318,6.033c0,3.555-2.279,6.034-6.121,6.034c-1.803,0-3.469-0.579-4.625-1.405L252.83,342.68z"/>
		<path d="M273.514,332.886c0-2.562-0.033-4.628-0.137-6.528h2.688l0.17,3.429h0.068c1.191-2.479,3.164-3.884,5.814-3.884
			c4.012,0,7.006,4.092,7.006,10.167c0,7.189-3.639,10.743-7.48,10.743c-2.211,0-4.082-1.156-5.066-3.141h-0.07v10.868h-2.992
			V332.886z M276.506,338.218c0,0.496,0.033,1.032,0.137,1.486c0.51,2.521,2.348,4.257,4.455,4.257c3.162,0,4.998-3.141,4.998-7.728
			c0-4.009-1.699-7.438-4.861-7.438c-2.041,0-3.98,1.735-4.559,4.464c-0.066,0.495-0.17,1.032-0.17,1.486V338.218z"/>
		<path d="M299.592,346.812c-4.422,0-7.891-3.968-7.891-10.289c0-6.694,3.639-10.621,8.162-10.621c4.727,0,7.924,4.173,7.924,10.249
			c0,7.437-4.252,10.661-8.162,10.661H299.592z M299.693,344.085c2.857,0,5-3.265,5-7.812c0-3.388-1.395-7.644-4.932-7.644
			c-3.504,0-5.033,3.968-5.033,7.769c0,4.38,2.041,7.687,4.932,7.687H299.693z"/>
		<path d="M311.592,332.598c0-2.356-0.033-4.381-0.137-6.24h2.621l0.135,3.926h0.102c0.748-2.688,2.584-4.381,4.592-4.381
			c0.305,0,0.543,0.042,0.816,0.123v3.39c-0.342-0.04-0.648-0.083-1.055-0.083c-2.109,0-3.605,1.942-4.012,4.629
			c-0.07,0.538-0.104,1.115-0.104,1.735v10.662h-2.992L311.592,332.598z"/>
		<path d="M327.096,321.563v4.794h4.283v2.769h-4.283v10.786c0,2.479,0.576,3.884,2.242,3.884c0.816,0,1.293-0.083,1.734-0.248
			l0.137,2.769c-0.578,0.248-1.496,0.496-2.652,0.496c-1.395,0-2.516-0.579-3.23-1.528c-0.816-1.116-1.156-2.894-1.156-5.249
			v-10.909h-2.551v-2.769h2.551v-3.678L327.096,321.563z"/>
		<path d="M336.244,336.979c0.068,4.916,2.619,6.941,5.611,6.941c2.143,0,3.469-0.454,4.557-0.991l0.545,2.561
			c-1.055,0.578-2.891,1.282-5.51,1.282c-5.033,0-8.094-4.092-8.094-10.082c0-6.075,2.959-10.829,7.754-10.829
			c5.373,0,6.768,5.743,6.768,9.423c0,0.744-0.033,1.322-0.102,1.735L336.244,336.979z M344.984,334.374
			c0.033-2.273-0.783-5.909-4.115-5.909c-3.059,0-4.352,3.39-4.592,5.909H344.984z"/>
		<path d="M351.168,342.68c0.918,0.662,2.484,1.405,3.979,1.405c2.143,0,3.164-1.281,3.164-2.977c0-1.734-0.852-2.685-3.027-3.676
			c-2.992-1.323-4.387-3.266-4.387-5.662c0-3.224,2.178-5.868,5.68-5.868c1.666,0,3.127,0.537,4.012,1.239l-0.715,2.604
			c-0.645-0.454-1.836-1.156-3.365-1.156c-1.768,0-2.721,1.24-2.721,2.727c0,1.694,0.953,2.438,3.094,3.43
			c2.822,1.282,4.32,3.018,4.32,6.033c0,3.555-2.279,6.034-6.121,6.034c-1.803,0-3.469-0.579-4.625-1.405L351.168,342.68z"/>
		<path d="M373.551,336.979c0.068,4.916,2.617,6.941,5.611,6.941c2.143,0,3.469-0.454,4.557-0.991l0.543,2.561
			c-1.053,0.578-2.889,1.282-5.508,1.282c-5.033,0-8.094-4.092-8.094-10.082c0-6.075,2.959-10.829,7.754-10.829
			c5.373,0,6.768,5.743,6.768,9.423c0,0.744-0.035,1.322-0.102,1.735L373.551,336.979z M382.291,334.374
			c0.033-2.273-0.783-5.909-4.115-5.909c-3.061,0-4.352,3.39-4.59,5.909H382.291z M383.006,318.01l-4.15,5.91h-2.107l2.992-5.91
			H383.006z"/>
		<path d="M392.49,321.563v4.794h4.283v2.769h-4.283v10.786c0,2.479,0.578,3.884,2.244,3.884c0.814,0,1.291-0.083,1.732-0.248
			l0.137,2.769c-0.578,0.248-1.496,0.496-2.652,0.496c-1.395,0-2.516-0.579-3.23-1.528c-0.816-1.116-1.156-2.894-1.156-5.249
			v-10.909h-2.551v-2.769h2.551v-3.678L392.49,321.563z"/>
		<path d="M411.734,341.563c0,1.735,0.068,3.431,0.238,4.795h-2.688l-0.27-2.521h-0.104c-0.885,1.569-2.688,2.975-5.033,2.975
			c-3.332,0-5.031-2.852-5.031-5.744c0-4.835,3.535-7.479,9.895-7.439v-0.412c0-1.653-0.375-4.67-3.742-4.628
			c-1.562,0-3.162,0.537-4.318,1.486l-0.68-2.437c1.359-1.034,3.367-1.736,5.441-1.736c5.066,0,6.291,4.173,6.291,8.183V341.563z
			 M408.811,336.151c-3.264-0.082-6.973,0.619-6.973,4.503c0,2.398,1.293,3.472,2.789,3.472c2.176,0,3.57-1.653,4.047-3.348
			c0.102-0.37,0.137-0.784,0.137-1.155V336.151z"/>
		<path d="M416.525,331.771c0-2.106-0.035-3.76-0.137-5.413h2.652l0.172,3.264h0.068c0.814-1.859,2.719-3.719,5.439-3.719
			c2.277,0,5.814,1.652,5.814,8.513v11.943h-2.992v-11.53c0-3.225-0.986-5.95-3.809-5.95c-1.938,0-3.469,1.694-4.014,3.72
			c-0.135,0.454-0.203,1.115-0.203,1.693v12.067h-2.992V331.771z"/>
		<path d="M447.127,345.656c-0.781,0.454-2.516,1.156-4.727,1.156c-4.965,0-8.195-4.091-8.195-10.248s3.469-10.662,8.842-10.662
			c1.768,0,3.332,0.537,4.148,1.074l-0.68,2.769c-0.715-0.454-1.836-0.95-3.469-0.95c-3.775,0-5.814,3.43-5.814,7.604
			c0,4.629,2.447,7.48,5.711,7.48c1.701,0,2.824-0.496,3.674-0.95L447.127,345.656z"/>
		<path d="M450.627,317.018h2.992v12.479h0.068c0.475-1.032,1.223-1.983,2.141-2.562c0.885-0.661,1.939-1.033,3.062-1.033
			c2.209,0,5.746,1.652,5.746,8.554v11.902h-2.992v-11.489c0-3.266-0.986-5.95-3.809-5.95c-1.938,0-3.436,1.653-4.014,3.636
			c-0.17,0.497-0.203,1.034-0.203,1.736v12.067h-2.992V317.018z"/>
		<path d="M471.197,336.979c0.066,4.916,2.619,6.941,5.609,6.941c2.145,0,3.469-0.454,4.559-0.991l0.543,2.561
			c-1.055,0.578-2.891,1.282-5.508,1.282c-5.033,0-8.094-4.092-8.094-10.082c0-6.075,2.957-10.829,7.752-10.829
			c5.375,0,6.768,5.743,6.768,9.423c0,0.744-0.033,1.322-0.1,1.735L471.197,336.979z M479.936,334.374
			c0.033-2.273-0.781-5.909-4.113-5.909c-3.061,0-4.354,3.39-4.592,5.909H479.936z"/>
	</g>
</g>
</svg>
