<?xml version="1.0" encoding="utf-8"?>
<!-- Generator: Adobe Illustrator 19.1.0, SVG Export Plug-In . SVG Version: 6.00 Build 0)  -->
<svg version="1.1" id="Calque_1" xmlns="http://www.w3.org/2000/svg" xmlns:xlink="http://www.w3.org/1999/xlink" x="0px" y="0px"
	 viewBox="-345 170.9 500 500" style="enable-background:new -345 170.9 500 500;" xml:space="preserve">
<style type="text/css">
	.st0{fill:#FF6700;}
</style>
<path d="M-312.9,468.2V318.3h56.5c9.9,0,17.5,0.5,22.8,1.4c7.4,1.2,13.5,3.6,18.5,7c5,3.4,9,8.3,12,14.5c3,6.2,4.5,13,4.5,20.4
	c0,12.7-4.1,23.5-12.2,32.3c-8.1,8.8-22.8,13.2-43.9,13.2h-38.4v60.9L-312.9,468.2L-312.9,468.2z M-293.1,389.6h38.7
	c12.8,0,21.9-2.4,27.3-7.2c5.4-4.8,8.1-11.5,8.1-20.1c0-6.3-1.6-11.6-4.8-16.1c-3.2-4.5-7.3-7.4-12.5-8.8c-3.3-0.9-9.5-1.3-18.5-1.3
	h-38.3V389.6z"/>
<path d="M-202.3,468.2V318.3h18.4v149.8L-202.3,468.2L-202.3,468.2z"/>
<path d="M-110.8,454.8c-6.8,5.8-13.4,9.9-19.7,12.3c-6.3,2.4-13.1,3.6-20.3,3.6c-11.9,0-21.1-2.9-27.5-8.7
	c-6.4-5.8-9.6-13.3-9.6-22.3c0-5.3,1.2-10.2,3.6-14.6c2.4-4.4,5.6-7.9,9.5-10.6c3.9-2.7,8.3-4.7,13.2-6c3.6-1,9.1-1.9,16.4-2.8
	c14.9-1.8,25.8-3.9,32.8-6.3c0.1-2.5,0.1-4.1,0.1-4.8c0-7.5-1.7-12.8-5.2-15.8c-4.7-4.2-11.7-6.2-21-6.2c-8.7,0-15,1.5-19.2,4.5
	c-4.1,3-7.2,8.4-9.1,16.1l-18-2.5c1.6-7.7,4.3-13.9,8.1-18.7c3.8-4.7,9.2-8.4,16.3-10.9c7.1-2.6,15.3-3.8,24.6-3.8
	c9.3,0,16.8,1.1,22.6,3.3c5.8,2.2,10.1,4.9,12.8,8.2c2.7,3.3,4.6,7.5,5.7,12.5c0.6,3.1,0.9,8.8,0.9,17v24.5
	c0,17.1,0.4,27.9,1.2,32.4c0.8,4.5,2.3,8.9,4.6,13h-19.2C-109.1,464.3-110.3,459.9-110.8,454.8z M-112.4,413.7c-6.7,2.7-16.7,5-30,7
	c-7.6,1.1-12.9,2.3-16,3.7c-3.1,1.4-5.6,3.4-7.3,6c-1.7,2.6-2.6,5.5-2.6,8.7c0,4.9,1.9,9,5.6,12.3c3.7,3.3,9.1,4.9,16.3,4.9
	c7.1,0,13.4-1.5,18.9-4.7c5.5-3.1,9.6-7.3,12.2-12.7c2-4.2,3-10.3,3-18.4L-112.4,413.7L-112.4,413.7z"/>
<path d="M-89.1,468.2V359.6h16.6v15.4c8-11.9,19.5-17.9,34.5-17.9c6.5,0,12.6,1.2,18,3.5c5.5,2.3,9.6,5.4,12.3,9.2
	c2.7,3.8,4.6,8.3,5.7,13.6c0.7,3.4,1,9.4,1,17.9v66.7h-18.4v-66c0-7.5-0.7-13.1-2.1-16.8c-1.4-3.7-4-6.7-7.6-8.9
	c-3.6-2.2-7.9-3.3-12.8-3.3c-7.8,0-14.6,2.5-20.3,7.5c-5.7,5-8.5,14.4-8.5,28.3v59.3L-89.1,468.2L-89.1,468.2z"/>
<path d="M78.9,433.2l19,2.4c-3,11.1-8.6,19.7-16.7,25.9c-8.1,6.1-18.5,9.2-31.1,9.2c-15.9,0-28.5-4.9-37.8-14.7
	c-9.3-9.8-13.9-23.5-13.9-41.1c0-18.3,4.7-32.4,14.1-42.5c9.4-10.1,21.6-15.1,36.6-15.1c14.5,0,26.4,4.9,35.6,14.8
	c9.2,9.9,13.8,23.8,13.8,41.7c0,1.1,0,2.7-0.1,4.9H17.5c0.7,11.9,4.1,21.1,10.1,27.4c6.1,6.3,13.6,9.5,22.7,9.5
	c6.7,0,12.5-1.8,17.3-5.3C72.4,446.6,76.1,441,78.9,433.2z M18.5,403.5h60.6c-0.8-9.1-3.1-16-6.9-20.5c-5.9-7.1-13.5-10.6-22.8-10.6
	c-8.5,0-15.6,2.8-21.3,8.5C22.3,386.4,19.1,394,18.5,403.5z"/>
<path d="M134.4,451.7L137,468c-5.2,1.1-9.8,1.6-13.9,1.6c-6.7,0-11.9-1.1-15.5-3.2c-3.7-2.1-6.3-4.9-7.8-8.3
	c-1.5-3.4-2.3-10.7-2.3-21.7v-62.4H84.1v-14.3h13.5v-26.9l18.3-11v37.9h18.5v14.3h-18.5v63.5c0,5.2,0.3,8.6,1,10.1s1.7,2.7,3.2,3.6
	c1.5,0.9,3.6,1.3,6.3,1.3C128.3,452.4,131,452.2,134.4,451.7z"/>
<path class="st0" d="M0.8,337.5l3-0.4c-0.2,1.1,0,2,0.6,2.6c0.6,0.6,1.5,0.9,2.8,0.9c1.3,0,2.4-0.3,3.2-0.8c0.8-0.5,1.3-1.2,1.5-1.9
	c0.2-0.6,0.1-1.2-0.4-1.5c-0.3-0.3-1.2-0.6-2.7-1c-2-0.5-3.3-1-4-1.4c-0.7-0.4-1.2-0.9-1.4-1.6c-0.2-0.7-0.2-1.4,0-2.3
	c0.2-0.8,0.6-1.5,1.1-2.1c0.5-0.6,1.2-1.2,1.9-1.6c0.5-0.3,1.2-0.6,2.1-0.8c0.9-0.2,1.7-0.3,2.6-0.3c1.4,0,2.5,0.2,3.4,0.6
	c0.9,0.4,1.5,0.9,1.8,1.6c0.3,0.7,0.4,1.5,0.2,2.6l-3,0.4c0.1-0.9-0.1-1.6-0.5-2c-0.5-0.5-1.3-0.7-2.4-0.7c-1.3,0-2.4,0.2-3.1,0.7
	c-0.7,0.4-1.1,0.9-1.3,1.5c-0.1,0.4-0.1,0.7,0.1,1c0.1,0.3,0.4,0.6,0.9,0.8c0.3,0.1,1,0.4,2.4,0.7c1.9,0.5,3.2,1,3.9,1.3
	c0.7,0.3,1.2,0.8,1.5,1.5c0.3,0.7,0.3,1.5,0,2.5c-0.3,1-0.8,1.9-1.6,2.7c-0.8,0.8-1.8,1.5-3,2S7.9,343,6.6,343
	c-2.2,0-3.8-0.5-4.7-1.4C1,340.7,0.6,339.3,0.8,337.5z"/>
<path class="st0" d="M20.3,342.6L20,325.6h3l-0.1,9.8l0,3.6c0.1-0.2,0.7-1.3,1.9-3.5l5.6-9.9h3l-0.3,9.8l-0.1,3.2l1.9-3.3l5.8-9.8
	h2.8l-10.3,16.9h-3l0.2-10.1l0.2-2.9l-7.3,13H20.3L20.3,342.6z"/>
<path class="st0" d="M46.9,322.5l1-3.3h2.9l-1,3.3H46.9z M41.1,342.6l5-16.9h2.9l-5,16.9H41.1z"/>
<path class="st0" d="M48.7,337.5l3-0.4c-0.2,1.1,0,2,0.6,2.6c0.6,0.6,1.5,0.9,2.8,0.9c1.3,0,2.4-0.3,3.2-0.8
	c0.8-0.5,1.3-1.2,1.5-1.9c0.2-0.6,0.1-1.2-0.4-1.5c-0.3-0.3-1.2-0.6-2.7-1c-2-0.5-3.3-1-4-1.4c-0.7-0.4-1.2-0.9-1.4-1.6
	c-0.2-0.7-0.2-1.4,0-2.3c0.2-0.8,0.6-1.5,1.1-2.1c0.5-0.6,1.2-1.2,1.9-1.6c0.6-0.3,1.2-0.6,2.1-0.8c0.9-0.2,1.7-0.3,2.6-0.3
	c1.4,0,2.5,0.2,3.4,0.6c0.9,0.4,1.5,0.9,1.8,1.6c0.3,0.7,0.4,1.5,0.2,2.6l-3,0.4c0.1-0.9-0.1-1.6-0.5-2c-0.5-0.5-1.3-0.7-2.4-0.7
	c-1.3,0-2.4,0.2-3.1,0.7c-0.7,0.4-1.1,0.9-1.3,1.5c-0.1,0.4-0.1,0.7,0.1,1c0.1,0.3,0.4,0.6,0.9,0.8c0.3,0.1,1,0.4,2.4,0.7
	c1.9,0.5,3.2,1,3.9,1.3c0.7,0.3,1.2,0.8,1.5,1.5c0.3,0.7,0.3,1.5,0,2.5c-0.3,1-0.8,1.9-1.6,2.7c-0.8,0.8-1.8,1.5-3,2
	c-1.2,0.5-2.5,0.7-3.8,0.7c-2.2,0-3.8-0.5-4.7-1.4C48.9,340.7,48.5,339.3,48.7,337.5z"/>
<path class="st0" d="M65.3,337.5l3-0.4c-0.2,1.1,0,2,0.6,2.6c0.6,0.6,1.5,0.9,2.8,0.9c1.3,0,2.4-0.3,3.2-0.8
	c0.8-0.5,1.3-1.2,1.5-1.9c0.2-0.6,0.1-1.2-0.4-1.5c-0.3-0.3-1.2-0.6-2.7-1c-2-0.5-3.3-1-4-1.4c-0.7-0.4-1.2-0.9-1.4-1.6
	c-0.2-0.7-0.2-1.4,0-2.3c0.2-0.8,0.6-1.5,1.1-2.1c0.5-0.6,1.2-1.2,1.9-1.6c0.5-0.3,1.2-0.6,2.1-0.8c0.9-0.2,1.7-0.3,2.6-0.3
	c1.4,0,2.5,0.2,3.4,0.6c0.9,0.4,1.5,0.9,1.8,1.6c0.3,0.7,0.4,1.5,0.2,2.6l-3,0.4c0.1-0.9-0.1-1.6-0.5-2c-0.5-0.5-1.3-0.7-2.4-0.7
	c-1.3,0-2.4,0.2-3.1,0.7c-0.7,0.4-1.1,0.9-1.3,1.5c-0.1,0.4-0.1,0.7,0.1,1c0.1,0.3,0.4,0.6,0.9,0.8c0.3,0.1,1,0.4,2.4,0.7
	c1.9,0.5,3.2,1,3.9,1.3c0.7,0.3,1.2,0.8,1.5,1.5c0.3,0.7,0.3,1.5,0,2.5c-0.3,1-0.8,1.9-1.6,2.7c-0.8,0.8-1.8,1.5-3,2
	s-2.5,0.7-3.8,0.7c-2.2,0-3.8-0.5-4.7-1.4C65.5,340.7,65.1,339.3,65.3,337.5z"/>
<path d="M-325.6,517.2v-27.9h3.3l7.3,14.1c1.7,3.3,3,6.2,4.1,9.1l0.1,0c-0.3-3.7-0.3-7.1-0.3-11.4v-11.7h2.8v27.9h-3l-7.3-14.1
	c-1.6-3.1-3.1-6.3-4.3-9.3l-0.1,0c0.2,3.5,0.2,6.9,0.2,11.5v11.9H-325.6z"/>
<path d="M-296.7,517.7c-4.4,0-7.9-4-7.9-10.3c0-6.7,3.6-10.6,8.2-10.6c4.7,0,7.9,4.2,7.9,10.2C-288.5,514.5-292.8,517.7-296.7,517.7
	L-296.7,517.7z M-296.6,515c2.9,0,5-3.3,5-7.8c0-3.4-1.4-7.6-4.9-7.6c-3.5,0-5,4-5,7.8C-301.6,511.7-299.5,515-296.6,515L-296.6,515
	z"/>
<path d="M-271,511.8c0,2.1,0,3.9,0.1,5.5h-2.7l-0.2-3.3h-0.1c-0.7,1.6-2.5,3.7-5.4,3.7c-2.6,0-5.7-1.8-5.7-8.8v-11.7h3v11
	c0,3.8,1,6.4,3.7,6.4c2,0,3.4-1.7,3.9-3.3c0.2-0.5,0.3-1.2,0.3-1.9v-12.2h3L-271,511.8L-271,511.8z"/>
<path d="M-266.4,513.6c0.9,0.7,2.5,1.4,4,1.4c2.1,0,3.2-1.3,3.2-3c0-1.7-0.9-2.7-3-3.7c-3-1.3-4.4-3.3-4.4-5.7
	c0-3.2,2.2-5.9,5.7-5.9c1.7,0,3.1,0.5,4,1.2l-0.7,2.6c-0.6-0.5-1.8-1.2-3.4-1.2c-1.8,0-2.7,1.2-2.7,2.7c0,1.7,1,2.4,3.1,3.4
	c2.8,1.3,4.3,3,4.3,6c0,3.6-2.3,6-6.1,6c-1.8,0-3.5-0.6-4.6-1.4L-266.4,513.6z"/>
<path d="M-241.9,503.5c0-2.4,0-4.4-0.1-6.2h2.6l0.1,3.9h0.1c0.7-2.7,2.6-4.4,4.6-4.4c0.3,0,0.5,0,0.8,0.1v3.4
	c-0.3,0-0.6-0.1-1.1-0.1c-2.1,0-3.6,1.9-4,4.6c-0.1,0.5-0.1,1.1-0.1,1.7v10.7h-3L-241.9,503.5z"/>
<path d="M-229.3,507.9c0.1,4.9,2.6,6.9,5.6,6.9c2.1,0,3.5-0.5,4.6-1l0.5,2.6c-1.1,0.6-2.9,1.3-5.5,1.3c-5,0-8.1-4.1-8.1-10.1
	c0-6.1,3-10.8,7.8-10.8c5.4,0,6.8,5.7,6.8,9.4c0,0.7,0,1.3-0.1,1.7L-229.3,507.9z M-220.5,505.3c0-2.3-0.8-5.9-4.1-5.9
	c-3.1,0-4.4,3.4-4.6,5.9H-220.5z"/>
<path d="M-213.9,502.7c0-2.1,0-3.8-0.1-5.4h2.7l0.2,3.3h0.1c0.8-1.9,2.7-3.7,5.4-3.7c2.3,0,5.8,1.7,5.8,8.5v11.9h-3v-11.5
	c0-3.2-1-6-3.8-6c-1.9,0-3.5,1.7-4,3.7c-0.1,0.5-0.2,1.1-0.2,1.7v12.1h-3L-213.9,502.7L-213.9,502.7z"/>
<path d="M-180.9,487.9v24.2c0,1.8,0,3.8,0.1,5.2h-2.7l-0.1-3.5h-0.1c-0.9,2.2-2.9,3.9-5.6,3.9c-4,0-7.1-4.1-7.1-10.2
	c0-6.7,3.4-10.7,7.4-10.7c2.6,0,4.2,1.4,5,3h0.1v-11.9L-180.9,487.9L-180.9,487.9z M-183.9,505.4c0-0.5,0-1.1-0.1-1.6
	c-0.4-2.3-2.1-4.2-4.3-4.2c-3.1,0-4.9,3.3-4.9,7.7c0,4.1,1.7,7.4,4.9,7.4c2,0,3.8-1.7,4.4-4.3c0.1-0.5,0.1-1,0.1-1.6V505.4z"/>
<path d="M-169.2,517.7c-4.4,0-7.9-4-7.9-10.3c0-6.7,3.6-10.6,8.2-10.6c4.7,0,7.9,4.2,7.9,10.2C-161,514.5-165.3,517.7-169.2,517.7
	L-169.2,517.7z M-169.1,515c2.9,0,5-3.3,5-7.8c0-3.4-1.4-7.6-4.9-7.6c-3.5,0-5,4-5,7.8C-174.1,511.7-172,515-169.1,515L-169.1,515z"
	/>
<path d="M-157.2,502.7c0-2.1,0-3.8-0.1-5.4h2.7l0.2,3.3h0.1c0.8-1.9,2.7-3.7,5.4-3.7c2.3,0,5.8,1.7,5.8,8.5v11.9h-3v-11.5
	c0-3.2-1-6-3.8-6c-1.9,0-3.5,1.7-4,3.7c-0.1,0.5-0.2,1.1-0.2,1.7v12.1h-3L-157.2,502.7L-157.2,502.7z"/>
<path d="M-138.8,513.6c0.9,0.7,2.5,1.4,4,1.4c2.1,0,3.2-1.3,3.2-3c0-1.7-0.9-2.7-3-3.7c-3-1.3-4.4-3.3-4.4-5.7
	c0-3.2,2.2-5.9,5.7-5.9c1.7,0,3.1,0.5,4,1.2l-0.7,2.6c-0.6-0.5-1.8-1.2-3.4-1.2c-1.8,0-2.7,1.2-2.7,2.7c0,1.7,1,2.4,3.1,3.4
	c2.8,1.3,4.3,3,4.3,6c0,3.6-2.3,6-6.1,6c-1.8,0-3.5-0.6-4.6-1.4L-138.8,513.6z"/>
<path d="M-116.8,487.9h3v29.3h-3V487.9z"/>
<path d="M-107.1,507.9c0.1,4.9,2.6,6.9,5.6,6.9c2.1,0,3.5-0.5,4.6-1l0.5,2.6c-1.1,0.6-2.9,1.3-5.5,1.3c-5,0-8.1-4.1-8.1-10.1
	c0-6.1,3-10.8,7.8-10.8c5.4,0,6.8,5.7,6.8,9.4c0,0.7,0,1.3-0.1,1.7L-107.1,507.9z M-98.4,505.3c0-2.3-0.8-5.9-4.1-5.9
	c-3.1,0-4.4,3.4-4.6,5.9H-98.4z"/>
<path d="M-92.2,513.6c0.9,0.7,2.5,1.4,4,1.4c2.1,0,3.2-1.3,3.2-3c0-1.7-0.9-2.7-3-3.7c-3-1.3-4.4-3.3-4.4-5.7c0-3.2,2.2-5.9,5.7-5.9
	c1.7,0,3.1,0.5,4,1.2l-0.7,2.6c-0.6-0.5-1.8-1.2-3.4-1.2c-1.8,0-2.7,1.2-2.7,2.7c0,1.7,1,2.4,3.1,3.4c2.8,1.3,4.3,3,4.3,6
	c0,3.6-2.3,6-6.1,6c-1.8,0-3.5-0.6-4.6-1.4L-92.2,513.6z"/>
<path d="M-71.5,503.8c0-2.6,0-4.6-0.1-6.5h2.7l0.2,3.4h0.1c1.2-2.5,3.2-3.9,5.8-3.9c4,0,7,4.1,7,10.2c0,7.2-3.6,10.7-7.5,10.7
	c-2.2,0-4.1-1.2-5.1-3.1h-0.1v10.9h-3L-71.5,503.8L-71.5,503.8z M-68.5,509.1c0,0.5,0,1,0.1,1.5c0.5,2.5,2.3,4.3,4.5,4.3
	c3.2,0,5-3.1,5-7.7c0-4-1.7-7.4-4.9-7.4c-2,0-4,1.7-4.6,4.5c-0.1,0.5-0.2,1-0.2,1.5L-68.5,509.1L-68.5,509.1z"/>
<path d="M-45.4,517.7c-4.4,0-7.9-4-7.9-10.3c0-6.7,3.6-10.6,8.2-10.6c4.7,0,7.9,4.2,7.9,10.2C-37.2,514.5-41.5,517.7-45.4,517.7
	L-45.4,517.7z M-45.3,515c2.9,0,5-3.3,5-7.8c0-3.4-1.4-7.6-4.9-7.6c-3.5,0-5,4-5,7.8C-50.3,511.7-48.2,515-45.3,515L-45.3,515z"/>
<path d="M-33.4,503.5c0-2.4,0-4.4-0.1-6.2h2.6l0.1,3.9h0.1c0.7-2.7,2.6-4.4,4.6-4.4c0.3,0,0.5,0,0.8,0.1v3.4c-0.3,0-0.6-0.1-1.1-0.1
	c-2.1,0-3.6,1.9-4,4.6c-0.1,0.5-0.1,1.1-0.1,1.7v10.7h-3L-33.4,503.5z"/>
<path d="M-17.9,492.5v4.8h4.3v2.8h-4.3v10.8c0,2.5,0.6,3.9,2.2,3.9c0.8,0,1.3-0.1,1.7-0.2l0.1,2.8c-0.6,0.2-1.5,0.5-2.7,0.5
	c-1.4,0-2.5-0.6-3.2-1.5c-0.8-1.1-1.2-2.9-1.2-5.2V500h-2.6v-2.8h2.6v-3.7L-17.9,492.5z"/>
<path d="M-8.8,507.9c0.1,4.9,2.6,6.9,5.6,6.9c2.1,0,3.5-0.5,4.6-1l0.5,2.6c-1.1,0.6-2.9,1.3-5.5,1.3c-5,0-8.1-4.1-8.1-10.1
	c0-6.1,3-10.8,7.8-10.8c5.4,0,6.8,5.7,6.8,9.4c0,0.7,0,1.3-0.1,1.7L-8.8,507.9z M0,505.3c0-2.3-0.8-5.9-4.1-5.9
	c-3.1,0-4.4,3.4-4.6,5.9H0z"/>
<path d="M6.2,513.6c0.9,0.7,2.5,1.4,4,1.4c2.1,0,3.2-1.3,3.2-3c0-1.7-0.9-2.7-3-3.7c-3-1.3-4.4-3.3-4.4-5.7c0-3.2,2.2-5.9,5.7-5.9
	c1.7,0,3.1,0.5,4,1.2l-0.7,2.6c-0.6-0.5-1.8-1.2-3.4-1.2c-1.8,0-2.7,1.2-2.7,2.7c0,1.7,1,2.4,3.1,3.4c2.8,1.3,4.3,3,4.3,6
	c0,3.6-2.3,6-6.1,6c-1.8,0-3.5-0.6-4.6-1.4L6.2,513.6z"/>
<path d="M28.6,507.9c0.1,4.9,2.6,6.9,5.6,6.9c2.1,0,3.5-0.5,4.6-1l0.5,2.6c-1.1,0.6-2.9,1.3-5.5,1.3c-5,0-8.1-4.1-8.1-10.1
	c0-6.1,3-10.8,7.8-10.8c5.4,0,6.8,5.7,6.8,9.4c0,0.7,0,1.3-0.1,1.7L28.6,507.9z M37.3,505.3c0-2.3-0.8-5.9-4.1-5.9
	c-3.1,0-4.4,3.4-4.6,5.9H37.3z M38,488.9l-4.1,5.9h-2.1l3-5.9H38z"/>
<path d="M47.5,492.5v4.8h4.3v2.8h-4.3v10.8c0,2.5,0.6,3.9,2.2,3.9c0.8,0,1.3-0.1,1.7-0.2l0.1,2.8c-0.6,0.2-1.5,0.5-2.7,0.5
	c-1.4,0-2.5-0.6-3.2-1.5c-0.8-1.1-1.2-2.9-1.2-5.2V500H42v-2.8h2.6v-3.7L47.5,492.5z"/>
<path d="M66.7,512.5c0,1.7,0.1,3.4,0.2,4.8h-2.7l-0.3-2.5h-0.1c-0.9,1.6-2.7,3-5,3c-3.3,0-5-2.9-5-5.7c0-4.8,3.5-7.5,9.9-7.4v-0.4
	c0-1.7-0.4-4.7-3.7-4.6c-1.6,0-3.2,0.5-4.3,1.5l-0.7-2.4c1.4-1,3.4-1.7,5.4-1.7c5.1,0,6.3,4.2,6.3,8.2L66.7,512.5L66.7,512.5z
	 M63.8,507c-3.3-0.1-7,0.6-7,4.5c0,2.4,1.3,3.5,2.8,3.5c2.2,0,3.6-1.7,4-3.3c0.1-0.4,0.1-0.8,0.1-1.2V507z"/>
<path d="M71.5,502.7c0-2.1,0-3.8-0.1-5.4H74l0.2,3.3h0.1c0.8-1.9,2.7-3.7,5.4-3.7c2.3,0,5.8,1.7,5.8,8.5v11.9h-3v-11.5
	c0-3.2-1-6-3.8-6c-1.9,0-3.5,1.7-4,3.7c-0.1,0.5-0.2,1.1-0.2,1.7v12.1h-3L71.5,502.7L71.5,502.7z"/>
<path d="M102.1,516.5c-0.8,0.5-2.5,1.2-4.7,1.2c-5,0-8.2-4.1-8.2-10.2s3.5-10.7,8.8-10.7c1.8,0,3.3,0.5,4.1,1.1l-0.7,2.8
	c-0.7-0.5-1.8-1-3.5-1c-3.8,0-5.8,3.4-5.8,7.6c0,4.6,2.4,7.5,5.7,7.5c1.7,0,2.8-0.5,3.7-1L102.1,516.5z"/>
<path d="M105.6,487.9h3v12.5h0.1c0.5-1,1.2-2,2.1-2.6c0.9-0.7,1.9-1,3.1-1c2.2,0,5.7,1.7,5.7,8.6v11.9h-3v-11.5c0-3.3-1-6-3.8-6
	c-1.9,0-3.4,1.7-4,3.6c-0.2,0.5-0.2,1-0.2,1.7v12.1h-3L105.6,487.9L105.6,487.9z"/>
<path d="M126.2,507.9c0.1,4.9,2.6,6.9,5.6,6.9c2.1,0,3.5-0.5,4.6-1l0.5,2.6c-1.1,0.6-2.9,1.3-5.5,1.3c-5,0-8.1-4.1-8.1-10.1
	c0-6.1,3-10.8,7.8-10.8c5.4,0,6.8,5.7,6.8,9.4c0,0.7,0,1.3-0.1,1.7L126.2,507.9z M134.9,505.3c0-2.3-0.8-5.9-4.1-5.9
	c-3.1,0-4.4,3.4-4.6,5.9H134.9z"/>
</svg>
