<?xml version="1.0" encoding="utf-8"?>
<!-- Generator: Adobe Illustrator 19.1.0, SVG Export Plug-In . SVG Version: 6.00 Build 0)  -->
<svg version="1.1" id="Calque_1" xmlns="http://www.w3.org/2000/svg" xmlns:xlink="http://www.w3.org/1999/xlink" x="0px" y="0px"
	 viewBox="-345 170.9 500 500" style="enable-background:new -345 170.9 500 500;" xml:space="preserve">
<style type="text/css">
	.st0{fill:#41A8DF;}
	.st1{fill:#FFEC00;}
	.st2{fill:#FFFFFF;}
	.st3{fill:#1D1D1B;}
</style>
<rect x="-329" y="332.1" class="st0" width="473.6" height="179.3"/>
<polygon class="st1" points="-66.3,421.5 -146.5,332.1 -210.9,332.1 -130.6,421.5 "/>
<polygon class="st1" points="-189.6,421.5 -269.8,332.1 -329,332.1 -329,337.8 -254,421.5 "/>
<polygon class="st1" points="-329,405.5 -329,421.5 -314.7,421.5 "/>
<polygon class="st1" points="54.6,421.5 -25.6,332.1 -89.9,332.1 -9.7,421.5 "/>
<polygon class="st1" points="144.6,421.5 144.6,387.6 94.7,332.1 30.4,332.1 110.6,421.5 "/>
<path class="st2" d="M-264.1,447.9c-0.7,0-1.2-0.5-1.2-1.2v-99.1c0-0.7,0.5-1.2,1.2-1.2h19.1c0.7,0,1.2,0.5,1.2,1.2v99.1
	c0,0.7-0.5,1.2-1.2,1.2H-264.1z"/>
<path class="st3" d="M-245,347.6v99.1h-19.1v-99.1H-245 M-245,345.2h-19.1c-1.3,0-2.4,1.1-2.4,2.4v99.1c0,1.3,1.1,2.4,2.4,2.4h19.1
	c1.3,0,2.4-1.1,2.4-2.4v-99.1C-242.6,346.3-243.6,345.2-245,345.2L-245,345.2z"/>
<path class="st2" d="M5.7,447.9c-0.7,0-1.2-0.5-1.2-1.2v-99.4c0-0.7,0.5-1.2,1.2-1.2H24c0.7,0,1.2,0.5,1.2,1.2v99.4
	c0,0.7-0.5,1.2-1.2,1.2H5.7z"/>
<path class="st3" d="M24,347.2v99.4H5.7v-99.4H24 M24,344.9H5.7c-1.3,0-2.4,1.1-2.4,2.4v99.4c0,1.3,1.1,2.4,2.4,2.4H24
	c1.3,0,2.4-1.1,2.4-2.4v-99.4C26.4,345.9,25.3,344.9,24,344.9L24,344.9z"/>
<path class="st2" d="M-319,508.1c-0.7,0-1.2-0.5-1.2-1.2V369.3c0-0.7,0.5-1.2,1.2-1.2h19.1c0.7,0,1.2,0.5,1.2,1.2v4
	c2.9-2.7,7.7-6.2,13.1-6.2c8.4,0,13.6,8,13.6,20.8v42.7c-0.1,6.1-3,17.7-13.2,17.7c-6.6,0-10.9-2.6-13.6-5.1v63.7
	c0,0.7-0.5,1.2-1.2,1.2H-319z M-295.8,386.8c-1.5,0-2.8,1.6-2.8,3.6v35.6c0,2,1.3,3.6,2.8,3.6c1.6,0,2.8-1.6,2.8-3.6v-35.6
	C-293,388.4-294.3,386.8-295.8,386.8z"/>
<path class="st3" d="M-285.5,368.3c8.3,0,12.4,8.6,12.4,19.6c0,11,0,42.7,0,42.7s-0.3,16.5-12,16.5c-8.6,0-13-4.7-14.7-7.2v66.9
	H-319V369.3h19.1v7C-297.9,374-292.2,368.3-285.5,368.3 M-295.8,430.7c2.2,0,4-2.1,4-4.8v-35.6c0-2.6-1.8-4.7-4-4.7
	c-2.2,0-4,2.1-4,4.7v35.6C-299.8,428.6-298.1,430.7-295.8,430.7 M-285.5,365.9c-4.7,0-8.9,2.4-12,4.8v-1.4c0-1.3-1.1-2.4-2.4-2.4
	H-319c-1.3,0-2.4,1.1-2.4,2.4v137.6c0,1.3,1.1,2.4,2.4,2.4h19.1c1.3,0,2.4-1.1,2.4-2.4v-61.1c2.8,2,6.8,3.8,12.4,3.8
	c11.1,0,14.3-12.3,14.4-18.9v-42.8C-270.7,374.3-276.4,365.9-285.5,365.9L-285.5,365.9z M-295.8,428.3c-0.8,0-1.6-1-1.6-2.4v-35.6
	c0-1.4,0.9-2.4,1.6-2.4c0.9,0,1.6,1.1,1.6,2.4v35.6C-294.2,427.2-295,428.3-295.8,428.3L-295.8,428.3z"/>
<path class="st2" d="M-68.6,448.7c-6.6,0-10.9-2.6-13.6-5.1v2.2c0,0.5-0.3,1-0.8,1.1c-0.1,0.6-0.6,1-1.2,1h-18.3
	c-0.7,0-1.2-0.5-1.2-1.2v-99.4c0-0.7,0.5-1.2,1.2-1.2h19.1c0.7,0,1.2,0.5,1.2,1.2l0,26.4c2.9-2.7,7.7-6.2,13.1-6.2
	c8.4,0,13.6,8,13.6,20.8V431C-55.4,437.1-58.3,448.7-68.6,448.7z M-79.3,387.1c-1.5,0-2.8,1.6-2.8,3.6v35.6c0,2,1.3,3.6,2.8,3.6
	c1.6,0,2.8-1.6,2.8-3.6v-35.6C-76.5,388.7-77.7,387.1-79.3,387.1z"/>
<path class="st3" d="M-83.3,347.2l0,29.3c2-2.3,7.6-7.9,14.3-7.9c8.3,0,12.4,8.6,12.4,19.6c0,11,0,42.7,0,42.7s-0.3,16.5-12,16.5
	c-8.6,0-13-4.7-14.7-7.2v5.4l-0.8,0v1h-18.3V446v-76.4v-22.3L-83.3,347.2 M-79.3,431c2.2,0,4-2.1,4-4.8v-35.6c0-2.6-1.8-4.7-4-4.7
	c-2.2,0-4,2.1-4,4.7v35.6C-83.3,428.9-81.5,431-79.3,431 M-83.3,344.9h-19.1c-1.3,0-2.4,1.1-2.4,2.4v22.3V446v0.6
	c0,1.3,1.1,2.4,2.4,2.4h18.3c1,0,1.8-0.6,2.2-1.4c0.5-0.4,0.9-0.9,1-1.6c2.8,2.1,6.8,3.8,12.4,3.8c11.1,0,14.3-12.3,14.4-18.9v-42.8
	c0-13.6-5.7-22-14.8-22c-4.7,0-8.9,2.4-12,4.8l0-23.8C-81,345.9-82,344.9-83.3,344.9L-83.3,344.9z M-79.3,428.6
	c-0.8,0-1.6-1-1.6-2.4v-35.6c0-1.4,0.9-2.4,1.6-2.4c0.9,0,1.6,1.1,1.6,2.4v35.6C-77.7,427.5-78.4,428.6-79.3,428.6L-79.3,428.6z"/>
<path class="st2" d="M-227.7,447.2c-5.5,0-10-5.3-10-11.7v-55.3c0-6.5,4.5-11.7,10-11.7h27.5c5.5,0,10,5.3,10,11.7v55.3
	c0,6.5-4.5,11.7-10,11.7H-227.7z M-214.4,383.1c-1.6,0-2.9,1.6-2.9,3.7v41.8c0,2,1.3,3.7,2.9,3.7s2.9-1.6,2.9-3.7v-41.8
	C-211.5,384.7-212.8,383.1-214.4,383.1z"/>
<path class="st3" d="M-200.2,369.6c4.9,0,8.8,4.7,8.8,10.5v55.3c0,5.8-3.9,10.5-8.8,10.5h-27.5c-4.9,0-8.8-4.7-8.8-10.5v-55.3
	c0-5.8,3.9-10.5,8.8-10.5H-200.2 M-214.4,433.4c2.3,0,4.1-2.2,4.1-4.9v-41.8c0-2.7-1.8-4.9-4.1-4.9c-2.3,0-4.1,2.2-4.1,4.9v41.8
	C-218.5,431.2-216.6,433.4-214.4,433.4 M-200.2,367.2h-27.5c-6.2,0-11.2,5.8-11.2,12.9v55.3c0,7.1,5,12.9,11.2,12.9h27.5
	c6.2,0,11.2-5.8,11.2-12.9v-55.3C-189.1,373-194.1,367.2-200.2,367.2L-200.2,367.2z M-214.4,431c-0.9,0-1.7-1.2-1.7-2.5v-41.8
	c0-1.3,0.8-2.5,1.7-2.5c0.9,0,1.7,1.2,1.7,2.5v41.8C-212.7,429.8-213.5,431-214.4,431L-214.4,431z"/>
<path class="st2" d="M-128.9,447.9c-0.7,0-1.2-0.5-1.2-1.2v-59.3c-0.7-0.4-2-1.1-3.4-1.1c-1.9,0-2.6,0.9-2.9,1.4v59
	c0,0.7-0.5,1.2-1.2,1.2h-18.3c-0.7,0-1.2-0.5-1.2-1.2v-57.3c-0.4-1.3-1.3-3.4-2.9-3.4c-0.6,0-2.5,0-3.2,4.1v56.6
	c0,0.7-0.5,1.2-1.2,1.2h-18.3c-0.7,0-1.2-0.5-1.2-1.2v-77.7c0-0.7,0.5-1.2,1.2-1.2h18.3c0.7,0,1.2,0.5,1.2,1.2v3.8
	c3.7-2.7,8.7-5.3,14.1-5.3c6.9,0,9.7,4.5,10.9,7.5c2.3-2.7,7.2-6.9,16.2-6.9c7.2,0,11.8,6.6,12.6,18.2c0.1,0.1,0.1,0.3,0.1,0.4v2
	c0,0.7,0,1.3,0,1.3v56.6c0,0.7-0.5,1.2-1.2,1.2L-128.9,447.9L-128.9,447.9z"/>
<path class="st3" d="M-149.1,368.6c9.3,0,10.4,9.1,10.4,9.1s4.4-8.4,16.7-8.4c9.2,0,11.1,11.7,11.4,17.5h0.1v2c0,0.7,0,1.2,0,1.2
	v56.7h-18.3v-59.9c0,0-2.2-1.6-4.6-1.6c-1.7,0-3.3,0.6-4.1,2.3v59.2h-18.3v-57.5c-0.4-1.6-1.6-4.4-4.1-4.4c-2.6,0-3.9,2.2-4.4,5.2
	v56.7h-18.3v-77.7h18.3v6.2C-161.2,372.6-155.4,368.6-149.1,368.6 M-149.1,366.2c-4.8,0-9.3,2-12.9,4.3v-1.6c0-1.3-1.1-2.4-2.4-2.4
	h-18.3c-1.3,0-2.4,1.1-2.4,2.4v77.7c0,1.3,1.1,2.4,2.4,2.4h18.3c1.3,0,2.4-1.1,2.4-2.4v-56.5c0.6-3,1.6-3,2-3c0.9,0,1.5,1.6,1.7,2.4
	v57.1c0,1.3,1.1,2.4,2.4,2.4h18.3c1.3,0,2.4-1.1,2.4-2.4v-58.6c0.2-0.3,0.7-0.5,1.7-0.5c0.8,0,1.6,0.3,2.3,0.6v58.5
	c0,1.3,1.1,2.4,2.4,2.4h18.3c1.3,0,2.4-1.1,2.4-2.4V390c0,0,0-0.5,0-1.3v-2c0-0.2,0-0.5-0.1-0.7c-0.9-12.2-5.9-19.2-13.7-19.2
	c-8,0-13,3.2-15.8,5.9C-139.6,369.5-143.1,366.2-149.1,366.2L-149.1,366.2z"/>
<path class="st2" d="M-39.2,447.7c-3.1,0-5.6-1-7.4-2.9c-3.5-3.6-3.2-9.3-3.2-9.5l0-51.4c0-15.3,12-15.4,12.1-15.4h23.8
	c4.3,0,7.5,1.2,9.6,3.7c3,3.5,2.6,8.2,2.5,8.9v27.1c0,0.7-0.5,1.2-1.2,1.2h-26.2l0.3,0.6c0.1,0.2,0.1,0.3,0.1,0.5v16.8
	c0,4,1,5.6,3.5,5.6c3.1,0,3.7-4.2,3.7-4.7v-9.3c0-0.7,0.5-1.2,1.2-1.2h18c0.7,0,1.2,0.5,1.2,1.2V436c0,8.8-7.4,11.7-9.9,11.7
	L-39.2,447.7L-39.2,447.7z M-23,394.3v-7.1c-0.3-1.2-1.3-3.5-2.6-3.5c-1.5,0-1.7,2-1.7,2.3l-0.4,8.3H-23z"/>
<path class="st3" d="M-13.9,369.6c12.6,0,10.9,11.3,10.9,11.3v27.2h-28.1l1.1,2.3c0,0,0,14.2,0,16.8c0,2.6,0.3,6.8,4.6,6.8
	s4.9-5.8,4.9-5.8v-9.4h18c0,0,0,8.7,0,17.2c0,8.4-7.1,10.5-8.7,10.5c-1.6,0-18,0-28,0c-10,0-9.4-11.2-9.4-11.2s0-37.2,0-51.5
	c0-14.2,10.9-14.2,10.9-14.2S-26.5,369.6-13.9,369.6 M-29,395.5h7.1v-8.4c0,0-1.1-4.5-3.8-4.5s-2.9,3.4-2.9,3.4L-29,395.5
	 M-13.9,367.2h-23.8c-0.1,0-13.3,0.2-13.3,16.6v51.4c0,0.7-0.1,6.5,3.5,10.3c2.1,2.2,4.8,3.3,8.3,3.3h28c3,0,11.1-3.1,11.1-12.9
	v-17.2c0-1.3-1.1-2.4-2.4-2.4h-18c-1.3,0-2.4,1.1-2.4,2.4v9.2c-0.1,0.5-0.6,3.6-2.5,3.6c-1,0-2.3,0-2.3-4.4v-16.7H-3
	c1.3,0,2.4-1.1,2.4-2.4v-27.1c0.1-1.1,0.4-6-2.8-9.8C-5.8,368.6-9.3,367.2-13.9,367.2L-13.9,367.2z M-25.8,384.9c0,0,0,0,0.1,0
	c0.4,0.1,1.1,1.4,1.4,2.5v5.7h-2.2l0.3-7.1C-26.1,385.6-25.9,385-25.8,384.9C-25.8,384.9-25.8,384.9-25.8,384.9L-25.8,384.9z"/>
<path class="st2" d="M42.5,447.7c-3.1,0-5.6-1-7.4-2.9c-3.5-3.6-3.2-9.3-3.2-9.5l0-51.4c0-15.3,12-15.4,12.1-15.4h23.8
	c4.3,0,7.5,1.2,9.6,3.7c3,3.5,2.6,8.2,2.5,8.9v27.1c0,0.7-0.5,1.2-1.2,1.2H52.4l0.3,0.6c0.1,0.2,0.1,0.3,0.1,0.5v16.8
	c0,4,1,5.6,3.5,5.6c3.1,0,3.7-4.2,3.7-4.7v-9.3c0-0.7,0.5-1.2,1.2-1.2h18c0.7,0,1.2,0.5,1.2,1.2V436c0,8.8-7.4,11.7-9.9,11.7
	L42.5,447.7L42.5,447.7z M58.6,394.3v-7.1c-0.3-1.2-1.3-3.5-2.6-3.5c-1.6,0-1.7,2.2-1.7,2.3l-0.4,8.3L58.6,394.3L58.6,394.3z"/>
<path class="st3" d="M67.7,369.6c12.6,0,10.9,11.3,10.9,11.3v27.2H50.5l1.1,2.3c0,0,0,14.2,0,16.8c0,2.6,0.3,6.8,4.6,6.8
	s4.9-5.8,4.9-5.8v-9.4h18c0,0,0,8.7,0,17.2c0,8.4-7.1,10.5-8.7,10.5c-1.6,0-18,0-28,0S33,435.3,33,435.3s0-37.2,0-51.5
	c0-14.2,10.9-14.2,10.9-14.2S55.1,369.6,67.7,369.6 M52.7,395.5h7.1v-8.4c0,0-1.1-4.5-3.8-4.5c-2.7,0-2.9,3.4-2.9,3.4L52.7,395.5
	 M67.7,367.2H44c-0.1,0-13.3,0.2-13.3,16.6v51.4c0,0.7-0.1,6.5,3.5,10.3c2.1,2.2,4.8,3.3,8.3,3.3h28c3,0,11.1-3.1,11.1-12.9v-17.2
	c0-1.3-1.1-2.4-2.4-2.4h-18c-1.3,0-2.4,1.1-2.4,2.4v9.2c-0.1,0.5-0.6,3.6-2.5,3.6c-1,0-2.3,0-2.3-4.4v-16.7h24.6
	c1.3,0,2.4-1.1,2.4-2.4v-27.1c0.1-1.1,0.4-6-2.8-9.8C75.9,368.6,72.3,367.2,67.7,367.2L67.7,367.2z M55.9,384.9c0,0,0,0,0.1,0
	c0.4,0.1,1.1,1.3,1.4,2.5v5.7h-2.2l0.3-7.1C55.5,385.6,55.7,385,55.9,384.9C55.9,384.9,55.9,384.9,55.9,384.9L55.9,384.9z"/>
<path class="st2" d="M96.4,447.9c-7.7,0-10.5-8.7-10.5-14.6v-52.6c0-7.9,4.4-12.3,12.4-12.3h24c6.3,0,9.1,3.4,10.5,6.3
	c1,2.1,1.4,4.6,1.4,7.5v14.6c0,0.7-0.5,1.2-1.2,1.2h-19.1c-0.3,0-0.6-0.1-0.9-0.4c-0.2-0.2-0.3-0.5-0.3-0.9c0-0.1,0.1-7.8,0.1-10
	c0-1.3-0.6-3.7-2.8-3.7c-2.6,0-3,2.9-3,4.6V428c0,3.1,1.4,5.4,3.2,5.4c1.9,0,3.3-2.5,3.3-4.2v-13.8c0-0.7,0.5-1.2,1.2-1.2H133
	c0.7,0,1.2,0.5,1.2,1.2V434c0,11.3-7.7,13.8-10.3,13.8H96.4z"/>
<path class="st3" d="M122.3,369.5c10.9,0,10.7,11.1,10.7,12.7c0,1.6,0,14.6,0,14.6h-19.1c0,0,0.1-7.8,0.1-10c0-2.3-1.2-4.9-4-4.9
	c-2.7,0-4.2,2.3-4.2,5.8c0,3.6,0,36.6,0,40.3c0,3.7,1.8,6.6,4.4,6.6c2.6,0,4.5-3.1,4.5-5.3s0-13.8,0-13.8H133c0,0,0,8.4,0,18.5
	c0,10-6.6,12.6-9.1,12.6s-20.2,0-27.4,0c-7.2,0-9.3-9.1-9.3-13.4s0-42.9,0-52.6c0-9.7,6.8-11.1,11.2-11.1S111.4,369.5,122.3,369.5
	 M122.3,367.1h-24c-8.6,0-13.6,4.9-13.6,13.5v52.6c0,6.4,3.1,15.8,11.7,15.8h27.4c4.5,0,11.5-4.1,11.5-15v-18.5
	c0-1.3-1.1-2.4-2.4-2.4h-18.3c-1.3,0-2.4,1.1-2.4,2.4v13.8c0,1.2-1.1,3-2.1,3c-1,0-2-1.7-2-4.3v-40.3c0-1.6,0.3-3.4,1.9-3.4
	c1.6,0,1.6,2.4,1.6,2.5c0,2.2-0.1,9.9-0.1,10c0,0.6,0.2,1.3,0.7,1.7c0.4,0.5,1.1,0.7,1.7,0.7H133c1.3,0,2.4-1.1,2.4-2.4v-14.6v-0.1
	c0-3-0.5-5.7-1.5-8C132.3,371,129.2,367.1,122.3,367.1L122.3,367.1z"/>
</svg>
