<?xml version="1.0" encoding="utf-8"?>
<!-- Generator: Adobe Illustrator 21.0.2, SVG Export Plug-In . SVG Version: 6.00 Build 0)  -->
<svg version="1.1" id="Calque_1" xmlns="http://www.w3.org/2000/svg" xmlns:xlink="http://www.w3.org/1999/xlink" x="0px" y="0px"
	 viewBox="0 0 500 206" style="enable-background:new 0 0 500 206;" xml:space="preserve">
<style type="text/css">
	.st0{fill:#41A8DF;}
	.st1{fill:#FFEC00;}
	.st2{fill:#FFFFFF;}
	.st3{fill:#1D1D1B;}
</style>
<rect x="16" y="14.2" class="st0" width="473.6" height="179.3"/>
<polygon class="st1" points="278.7,103.6 198.5,14.2 134.1,14.2 214.4,103.6 "/>
<polygon class="st1" points="155.4,103.6 75.2,14.2 16,14.2 16,19.9 91,103.6 "/>
<polygon class="st1" points="16,87.6 16,103.6 30.3,103.6 "/>
<polygon class="st1" points="399.6,103.6 319.4,14.2 255.1,14.2 335.3,103.6 "/>
<polygon class="st1" points="489.6,103.6 489.6,69.7 439.7,14.2 375.4,14.2 455.6,103.6 "/>
<path class="st2" d="M80.9,130c-0.7,0-1.2-0.5-1.2-1.2V29.7c0-0.7,0.5-1.2,1.2-1.2H100c0.7,0,1.2,0.5,1.2,1.2v99.1
	c0,0.7-0.5,1.2-1.2,1.2H80.9z"/>
<path class="st3" d="M100,29.7v99.1H80.9V29.7H100 M100,27.3H80.9c-1.3,0-2.4,1.1-2.4,2.4v99.1c0,1.3,1.1,2.4,2.4,2.4H100
	c1.3,0,2.4-1.1,2.4-2.4V29.7C102.4,28.4,101.4,27.3,100,27.3L100,27.3z"/>
<path class="st2" d="M350.7,130c-0.7,0-1.2-0.5-1.2-1.2V29.4c0-0.7,0.5-1.2,1.2-1.2H369c0.7,0,1.2,0.5,1.2,1.2v99.4
	c0,0.7-0.5,1.2-1.2,1.2H350.7z"/>
<path class="st3" d="M369,29.3v99.4h-18.3V29.3H369 M369,27h-18.3c-1.3,0-2.4,1.1-2.4,2.4v99.4c0,1.3,1.1,2.4,2.4,2.4H369
	c1.3,0,2.4-1.1,2.4-2.4V29.4C371.4,28,370.3,27,369,27L369,27z"/>
<path class="st2" d="M26,190.2c-0.7,0-1.2-0.5-1.2-1.2V51.4c0-0.7,0.5-1.2,1.2-1.2h19.1c0.7,0,1.2,0.5,1.2,1.2v4
	c2.9-2.7,7.7-6.2,13.1-6.2c8.4,0,13.6,8,13.6,20.8v42.7c-0.1,6.1-3,17.7-13.2,17.7c-6.6,0-10.9-2.6-13.6-5.1V189
	c0,0.7-0.5,1.2-1.2,1.2H26z M49.2,68.9c-1.5,0-2.8,1.6-2.8,3.6v35.6c0,2,1.3,3.6,2.8,3.6c1.6,0,2.8-1.6,2.8-3.6V72.5
	C52,70.5,50.7,68.9,49.2,68.9z"/>
<path class="st3" d="M59.5,50.4c8.3,0,12.4,8.6,12.4,19.6s0,42.7,0,42.7s-0.3,16.5-12,16.5c-8.6,0-13-4.7-14.7-7.2v66.9H26V51.4
	h19.1v7C47.1,56.1,52.8,50.4,59.5,50.4 M49.2,112.8c2.2,0,4-2.1,4-4.8V72.4c0-2.6-1.8-4.7-4-4.7s-4,2.1-4,4.7V108
	C45.2,110.7,46.9,112.8,49.2,112.8 M59.5,48c-4.7,0-8.9,2.4-12,4.8v-1.4c0-1.3-1.1-2.4-2.4-2.4H26c-1.3,0-2.4,1.1-2.4,2.4V189
	c0,1.3,1.1,2.4,2.4,2.4h19.1c1.3,0,2.4-1.1,2.4-2.4v-61.1c2.8,2,6.8,3.8,12.4,3.8c11.1,0,14.3-12.3,14.4-18.9V70
	C74.3,56.4,68.6,48,59.5,48L59.5,48z M49.2,110.4c-0.8,0-1.6-1-1.6-2.4V72.4c0-1.4,0.9-2.4,1.6-2.4c0.9,0,1.6,1.1,1.6,2.4V108
	C50.8,109.3,50,110.4,49.2,110.4L49.2,110.4z"/>
<path class="st2" d="M276.4,130.8c-6.6,0-10.9-2.6-13.6-5.1v2.2c0,0.5-0.3,1-0.8,1.1c-0.1,0.6-0.6,1-1.2,1h-18.3
	c-0.7,0-1.2-0.5-1.2-1.2V29.4c0-0.7,0.5-1.2,1.2-1.2h19.1c0.7,0,1.2,0.5,1.2,1.2v26.4c2.9-2.7,7.7-6.2,13.1-6.2
	c8.4,0,13.6,8,13.6,20.8v42.7C289.6,119.2,286.7,130.8,276.4,130.8z M265.7,69.2c-1.5,0-2.8,1.6-2.8,3.6v35.6c0,2,1.3,3.6,2.8,3.6
	c1.6,0,2.8-1.6,2.8-3.6V72.8C268.5,70.8,267.3,69.2,265.7,69.2z"/>
<path class="st3" d="M261.7,29.3v29.3c2-2.3,7.6-7.9,14.3-7.9c8.3,0,12.4,8.6,12.4,19.6s0,42.7,0,42.7s-0.3,16.5-12,16.5
	c-8.6,0-13-4.7-14.7-7.2v5.4h-0.8v1h-18.3v-0.6V51.7V29.4L261.7,29.3 M265.7,113.1c2.2,0,4-2.1,4-4.8V72.7c0-2.6-1.8-4.7-4-4.7
	c-2.2,0-4,2.1-4,4.7v35.6C261.7,111,263.5,113.1,265.7,113.1 M261.7,27h-19.1c-1.3,0-2.4,1.1-2.4,2.4v22.3v76.4v0.6
	c0,1.3,1.1,2.4,2.4,2.4h18.3c1,0,1.8-0.6,2.2-1.4c0.5-0.4,0.9-0.9,1-1.6c2.8,2.1,6.8,3.8,12.4,3.8c11.1,0,14.3-12.3,14.4-18.9V70.2
	c0-13.6-5.7-22-14.8-22c-4.7,0-8.9,2.4-12,4.8V29.2C264,28,263,27,261.7,27L261.7,27z M265.7,110.7c-0.8,0-1.6-1-1.6-2.4V72.7
	c0-1.4,0.9-2.4,1.6-2.4c0.9,0,1.6,1.1,1.6,2.4v35.6C267.3,109.6,266.6,110.7,265.7,110.7L265.7,110.7z"/>
<path class="st2" d="M117.3,129.3c-5.5,0-10-5.3-10-11.7V62.3c0-6.5,4.5-11.7,10-11.7h27.5c5.5,0,10,5.3,10,11.7v55.3
	c0,6.5-4.5,11.7-10,11.7H117.3z M130.6,65.2c-1.6,0-2.9,1.6-2.9,3.7v41.8c0,2,1.3,3.7,2.9,3.7s2.9-1.6,2.9-3.7V68.9
	C133.5,66.8,132.2,65.2,130.6,65.2z"/>
<path class="st3" d="M144.8,51.7c4.9,0,8.8,4.7,8.8,10.5v55.3c0,5.8-3.9,10.5-8.8,10.5h-27.5c-4.9,0-8.8-4.7-8.8-10.5V62.2
	c0-5.8,3.9-10.5,8.8-10.5H144.8 M130.6,115.5c2.3,0,4.1-2.2,4.1-4.9V68.8c0-2.7-1.8-4.9-4.1-4.9s-4.1,2.2-4.1,4.9v41.8
	C126.5,113.3,128.4,115.5,130.6,115.5 M144.8,49.3h-27.5c-6.2,0-11.2,5.8-11.2,12.9v55.3c0,7.1,5,12.9,11.2,12.9h27.5
	c6.2,0,11.2-5.8,11.2-12.9V62.2C155.9,55.1,150.9,49.3,144.8,49.3L144.8,49.3z M130.6,113.1c-0.9,0-1.7-1.2-1.7-2.5V68.8
	c0-1.3,0.8-2.5,1.7-2.5s1.7,1.2,1.7,2.5v41.8C132.3,111.9,131.5,113.1,130.6,113.1L130.6,113.1z"/>
<path class="st2" d="M216.1,130c-0.7,0-1.2-0.5-1.2-1.2V69.5c-0.7-0.4-2-1.1-3.4-1.1c-1.9,0-2.6,0.9-2.9,1.4v59
	c0,0.7-0.5,1.2-1.2,1.2h-18.3c-0.7,0-1.2-0.5-1.2-1.2V71.5c-0.4-1.3-1.3-3.4-2.9-3.4c-0.6,0-2.5,0-3.2,4.1v56.6
	c0,0.7-0.5,1.2-1.2,1.2h-18.3c-0.7,0-1.2-0.5-1.2-1.2V51.1c0-0.7,0.5-1.2,1.2-1.2h18.3c0.7,0,1.2,0.5,1.2,1.2v3.8
	c3.7-2.7,8.7-5.3,14.1-5.3c6.9,0,9.7,4.5,10.9,7.5c2.3-2.7,7.2-6.9,16.2-6.9c7.2,0,11.8,6.6,12.6,18.2c0.1,0.1,0.1,0.3,0.1,0.4v2
	c0,0.7,0,1.3,0,1.3v56.6c0,0.7-0.5,1.2-1.2,1.2L216.1,130L216.1,130z"/>
<path class="st3" d="M195.9,50.7c9.3,0,10.4,9.1,10.4,9.1s4.4-8.4,16.7-8.4c9.2,0,11.1,11.7,11.4,17.5h0.1v2c0,0.7,0,1.2,0,1.2v56.7
	h-18.3V68.9c0,0-2.2-1.6-4.6-1.6c-1.7,0-3.3,0.6-4.1,2.3v59.2h-18.3V71.3c-0.4-1.6-1.6-4.4-4.1-4.4c-2.6,0-3.9,2.2-4.4,5.2v56.7
	h-18.3V51.1h18.3v6.2C183.8,54.7,189.6,50.7,195.9,50.7 M195.9,48.3c-4.8,0-9.3,2-12.9,4.3V51c0-1.3-1.1-2.4-2.4-2.4h-18.3
	c-1.3,0-2.4,1.1-2.4,2.4v77.7c0,1.3,1.1,2.4,2.4,2.4h18.3c1.3,0,2.4-1.1,2.4-2.4V72.2c0.6-3,1.6-3,2-3c0.9,0,1.5,1.6,1.7,2.4v57.1
	c0,1.3,1.1,2.4,2.4,2.4h18.3c1.3,0,2.4-1.1,2.4-2.4V70.1c0.2-0.3,0.7-0.5,1.7-0.5c0.8,0,1.6,0.3,2.3,0.6v58.5c0,1.3,1.1,2.4,2.4,2.4
	h18.3c1.3,0,2.4-1.1,2.4-2.4V72.1c0,0,0-0.5,0-1.3v-2c0-0.2,0-0.5-0.1-0.7c-0.9-12.2-5.9-19.2-13.7-19.2c-8,0-13,3.2-15.8,5.9
	C205.4,51.6,201.9,48.3,195.9,48.3L195.9,48.3z"/>
<path class="st2" d="M305.8,129.8c-3.1,0-5.6-1-7.4-2.9c-3.5-3.6-3.2-9.3-3.2-9.5V66c0-15.3,12-15.4,12.1-15.4h23.8
	c4.3,0,7.5,1.2,9.6,3.7c3,3.5,2.6,8.2,2.5,8.9v27.1c0,0.7-0.5,1.2-1.2,1.2h-26.2l0.3,0.6c0.1,0.2,0.1,0.3,0.1,0.5v16.8
	c0,4,1,5.6,3.5,5.6c3.1,0,3.7-4.2,3.7-4.7V101c0-0.7,0.5-1.2,1.2-1.2h18c0.7,0,1.2,0.5,1.2,1.2v17.1c0,8.8-7.4,11.7-9.9,11.7H305.8
	L305.8,129.8z M322,76.4v-7.1c-0.3-1.2-1.3-3.5-2.6-3.5c-1.5,0-1.7,2-1.7,2.3l-0.4,8.3L322,76.4L322,76.4z"/>
<path class="st3" d="M331.1,51.7C343.7,51.7,342,63,342,63v27.2h-28.1l1.1,2.3c0,0,0,14.2,0,16.8c0,2.6,0.3,6.8,4.6,6.8
	c4.3,0,4.9-5.8,4.9-5.8v-9.4h18c0,0,0,8.7,0,17.2c0,8.4-7.1,10.5-8.7,10.5c-1.6,0-18,0-28,0s-9.4-11.2-9.4-11.2s0-37.2,0-51.5
	c0-14.2,10.9-14.2,10.9-14.2S318.5,51.7,331.1,51.7 M316,77.6h7.1v-8.4c0,0-1.1-4.5-3.8-4.5c-2.7,0-2.9,3.4-2.9,3.4L316,77.6
	 M331.1,49.3h-23.8c-0.1,0-13.3,0.2-13.3,16.6v51.4c0,0.7-0.1,6.5,3.5,10.3c2.1,2.2,4.8,3.3,8.3,3.3h28c3,0,11.1-3.1,11.1-12.9
	v-17.2c0-1.3-1.1-2.4-2.4-2.4h-18c-1.3,0-2.4,1.1-2.4,2.4v9.2c-0.1,0.5-0.6,3.6-2.5,3.6c-1,0-2.3,0-2.3-4.4V92.5H342
	c1.3,0,2.4-1.1,2.4-2.4V63c0.1-1.1,0.4-6-2.8-9.8C339.2,50.7,335.7,49.3,331.1,49.3L331.1,49.3z M319.2,67
	C319.2,67,319.2,67,319.2,67c0.5,0.1,1.2,1.4,1.5,2.5v5.7h-2.2l0.3-7.1C318.9,67.7,319.1,67.1,319.2,67L319.2,67L319.2,67z"/>
<path class="st2" d="M387.5,129.8c-3.1,0-5.6-1-7.4-2.9c-3.5-3.6-3.2-9.3-3.2-9.5V66c0-15.3,12-15.4,12.1-15.4h23.8
	c4.3,0,7.5,1.2,9.6,3.7c3,3.5,2.6,8.2,2.5,8.9v27.1c0,0.7-0.5,1.2-1.2,1.2h-26.3l0.3,0.6c0.1,0.2,0.1,0.3,0.1,0.5v16.8
	c0,4,1,5.6,3.5,5.6c3.1,0,3.7-4.2,3.7-4.7V101c0-0.7,0.5-1.2,1.2-1.2h18c0.7,0,1.2,0.5,1.2,1.2v17.1c0,8.8-7.4,11.7-9.9,11.7H387.5
	L387.5,129.8z M403.6,76.4v-7.1c-0.3-1.2-1.3-3.5-2.6-3.5c-1.6,0-1.7,2.2-1.7,2.3l-0.4,8.3L403.6,76.4L403.6,76.4z"/>
<path class="st3" d="M412.7,51.7c12.6,0,10.9,11.3,10.9,11.3v27.2h-28.1l1.1,2.3c0,0,0,14.2,0,16.8c0,2.6,0.3,6.8,4.6,6.8
	c4.3,0,4.9-5.8,4.9-5.8v-9.4h18c0,0,0,8.7,0,17.2c0,8.4-7.1,10.5-8.7,10.5s-18,0-28,0s-9.4-11.2-9.4-11.2s0-37.2,0-51.5
	c0-14.2,10.9-14.2,10.9-14.2S400.1,51.7,412.7,51.7 M397.7,77.6h7.1v-8.4c0,0-1.1-4.5-3.8-4.5s-2.9,3.4-2.9,3.4L397.7,77.6
	 M412.7,49.3H389c-0.1,0-13.3,0.2-13.3,16.6v51.4c0,0.7-0.1,6.5,3.5,10.3c2.1,2.2,4.8,3.3,8.3,3.3h28c3,0,11.1-3.1,11.1-12.9v-17.2
	c0-1.3-1.1-2.4-2.4-2.4h-18c-1.3,0-2.4,1.1-2.4,2.4v9.2c-0.1,0.5-0.6,3.6-2.5,3.6c-1,0-2.3,0-2.3-4.4V92.5h24.6
	c1.3,0,2.4-1.1,2.4-2.4V63c0.1-1.1,0.4-6-2.8-9.8C420.9,50.7,417.3,49.3,412.7,49.3L412.7,49.3z M400.9,67c0,0,0,0,0.1,0
	c0.4,0.1,1.1,1.3,1.4,2.5v5.7h-2.2l0.3-7.1C400.5,67.7,400.7,67.1,400.9,67L400.9,67L400.9,67z"/>
<path class="st2" d="M441.4,130c-7.7,0-10.5-8.7-10.5-14.6V62.8c0-7.9,4.4-12.3,12.4-12.3h24c6.3,0,9.1,3.4,10.5,6.3
	c1,2.1,1.4,4.6,1.4,7.5v14.6c0,0.7-0.5,1.2-1.2,1.2h-19.1c-0.3,0-0.6-0.1-0.9-0.4c-0.2-0.2-0.3-0.5-0.3-0.9c0-0.1,0.1-7.8,0.1-10
	c0-1.3-0.6-3.7-2.8-3.7c-2.6,0-3,2.9-3,4.6v40.4c0,3.1,1.4,5.4,3.2,5.4c1.9,0,3.3-2.5,3.3-4.2V97.5c0-0.7,0.5-1.2,1.2-1.2H478
	c0.7,0,1.2,0.5,1.2,1.2v18.6c0,11.3-7.7,13.8-10.3,13.8h-27.5V130z"/>
<path class="st3" d="M467.3,51.6c10.9,0,10.7,11.1,10.7,12.7s0,14.6,0,14.6h-19.1c0,0,0.1-7.8,0.1-10c0-2.3-1.2-4.9-4-4.9
	c-2.7,0-4.2,2.3-4.2,5.8c0,3.6,0,36.6,0,40.3c0,3.7,1.8,6.6,4.4,6.6c2.6,0,4.5-3.1,4.5-5.3s0-13.8,0-13.8H478c0,0,0,8.4,0,18.5
	c0,10-6.6,12.6-9.1,12.6s-20.2,0-27.4,0s-9.3-9.1-9.3-13.4s0-42.9,0-52.6s6.8-11.1,11.2-11.1S456.4,51.6,467.3,51.6 M467.3,49.2h-24
	c-8.6,0-13.6,4.9-13.6,13.5v52.6c0,6.4,3.1,15.8,11.7,15.8h27.4c4.5,0,11.5-4.1,11.5-15V97.6c0-1.3-1.1-2.4-2.4-2.4h-18.3
	c-1.3,0-2.4,1.1-2.4,2.4v13.8c0,1.2-1.1,3-2.1,3s-2-1.7-2-4.3V69.8c0-1.6,0.3-3.4,1.9-3.4c1.6,0,1.6,2.4,1.6,2.5
	c0,2.2-0.1,9.9-0.1,10c0,0.6,0.2,1.3,0.7,1.7c0.4,0.5,1.1,0.7,1.7,0.7H478c1.3,0,2.4-1.1,2.4-2.4V64.3v-0.1c0-3-0.5-5.7-1.5-8
	C477.3,53.1,474.2,49.2,467.3,49.2L467.3,49.2z"/>
</svg>
