<?xml version="1.0" encoding="utf-8"?>
<!-- Generator: Adobe Illustrator 15.0.0, SVG Export Plug-In . SVG Version: 6.00 Build 0)  -->
<!DOCTYPE svg PUBLIC "-//W3C//DTD SVG 1.1//EN" "http://www.w3.org/Graphics/SVG/1.1/DTD/svg11.dtd">
<svg version="1.1" id="Calque_1" xmlns="http://www.w3.org/2000/svg" xmlns:xlink="http://www.w3.org/1999/xlink" x="0px" y="0px"
	 width="500px" height="500px" viewBox="0 0 500 500" enable-background="new 0 0 500 500" xml:space="preserve">
<g>
	<g>
		<path d="M212.244,291.285c1.145-6.254,1.973-11.298,2.54-15.938h7.431l-1.06,8.373h0.188c4.401-6.054,10.485-9.483,17.824-9.483
			c11.103,0,17.553,9.987,14.84,24.817c-3.214,17.554-14.867,26.229-25.499,26.229c-6.117,0-10.773-2.823-12.615-7.668h-0.188
			l-4.855,26.533h-8.28L212.244,291.285z M219.547,303.842c-0.199,1.087-0.331,2.265-0.259,3.261
			c0.255,5.529,4.122,9.333,9.362,9.333c7.856,0,13.681-6.887,15.522-16.941c1.607-8.789-1.24-16.31-9.099-16.31
			c-5.071,0-10.584,3.807-13.114,9.783c-0.37,1.089-0.838,2.268-1.02,3.264L219.547,303.842z"/>
		<path d="M275.595,324.692c-12.772,0-20.942-9.459-17.991-24.537c3.119-15.966,15.465-25.328,28.53-25.328
			c13.655,0,20.941,9.952,18.109,24.441c-3.471,17.736-17.255,25.424-28.552,25.424H275.595z M277.624,315.859
			c7.206,0,13.944-6.803,15.796-16.271c1.382-7.061-0.403-15.927-9.327-15.927c-8.839,0-14.318,8.266-15.864,16.183
			c-1.786,9.126,2.016,16.015,9.309,16.015H277.624z"/>
		<path d="M305.328,324.174l9.551-48.827h8.849l-9.549,48.827H305.328z"/>
		<path d="M316.149,270.257l2.265-11.316h8.85l-2.265,11.316H316.149z"/>
		<path d="M330.881,288.562c0.907-5.145,1.529-9.181,1.967-13.215h7.072l-0.952,7.97h0.18c2.976-4.539,8.853-9.08,16.104-9.08
			c6.072,0,14.788,4.036,11.835,20.781l-5.139,29.156h-7.978l4.962-28.146c1.388-7.869-0.067-14.526-7.59-14.526
			c-5.165,0-9.975,4.135-12.299,9.079c-0.557,1.109-1.022,2.725-1.27,4.136l-5.193,29.458h-7.978L330.881,288.562z"/>
		<path d="M394.733,262.336l-2.433,14.928h9.457l-1.321,6.76h-9.458l-5.006,24.41c-1.186,6.054-0.146,9.486,4.781,9.486
			c2.415,0,3.861-0.202,5.249-0.605l-0.922,6.756c-1.828,0.607-4.661,1.213-8.08,1.213c-4.123,0-7.167-1.413-8.824-3.731
			c-1.882-2.726-2.039-7.064-0.913-12.814l5.066-24.714h-7.542l1.322-6.76h7.542l3.017-14.728L394.733,262.336z"/>
		<path fill="#E5231B" d="M476.247,279.975c-2.933-3.516-6.957-4.04-9.096-4.04c-4.052,0-7.232,1.029-10.632,3.44
			c-1.897,1.334-3.519,2.817-4.909,4.499c-1.601-4.955-5.632-7.939-10.943-7.939c-5.252,0-9.87,2.087-13.766,6.216l0.698-5.17
			h-8.115l-1.003,0.11l-0.134,0.979c-0.505,3.698-1.026,7.524-1.899,12.308l-6.379,34.928h9.916l5.244-28.717
			c0.265-1.448,0.686-2.711,1.277-3.806c1.84-3.842,5.921-7.733,10.163-7.733c1.878,0,3.326,0.597,4.307,1.771
			c1.564,1.877,1.996,5.269,1.216,9.553l-5.286,28.933h9.918l5.384-29.479c0.218-1.191,0.691-2.618,1.269-3.855
			c1.715-3.191,5.278-6.922,9.678-6.922c2.001,0,3.463,0.587,4.47,1.794c1.688,2.023,2.077,5.845,1.126,11.051l-5.004,27.411h9.917
			l5.12-28.051C480.2,289.507,479.346,283.693,476.247,279.975z"/>
	</g>
	<g>
		<path fill="#5A819E" d="M264.074,240.143c-4.428,1.29-13.281,3.177-23.612,3.177c-11.569,0-21.105-2.233-28.592-7.64
			c-6.588-4.809-10.673-12.531-10.673-21.544c0-17.252,15.775-29.872,41.429-29.872c8.853,0,15.885,1.457,19.175,2.659l0.02,8.886
			c-4.084-1.457-11.709-3.112-19.426-3.112c-10.418,0-26.684,6.586-26.684,21.092c0,14.68,12.316,21.318,25.436,20.775
			c3.418-0.141,8.51-0.565,9.076-0.99v-15.236h-15.417v-8.668h29.269V240.143z"/>
		<path fill="#5A819E" d="M326.636,230.988c0,4.436,0.112,8.34,0.438,11.709h-13.142l0.128-7.007h-0.209
			c-2.37,3.46-6.88,7.982-16.114,7.982c-8.169,0-20.074-3.813-20.074-18.806v-25.106h14.145v23.686
			c0,8.163,2.05,11.461,9.044,11.461c6.33,0,12.002-4.526,12.002-9.537v-25.61h13.782V230.988z"/>
		<rect x="341.394" y="199.761" fill="#5A819E" width="12.959" height="42.937"/>
		<rect x="341.394" y="182.504" fill="#5A819E" width="12.959" height="9.274"/>
		<path fill="#5A819E" d="M387.439,189.467v10.293h12.242v8.449h-12.242v20.647c0,5.323,1.961,6.132,7.607,6.132
			c2.769,0,4.381-0.178,5.871-0.531l0.461,8.149c-1.951,0.534-9.681,1.065-13.601,1.065c-4.718,0-8.518-1.242-10.937-3.283
			c-2.769-2.395-3.92-6.209-3.92-11.266V208.21h-8.639v-8.449h8.639v-7.895L387.439,189.467z"/>
		<path fill="#5A819E" d="M419.861,223.749c0.227,10.557,9.052,11.675,15.664,11.675c7.26,0,13.464-3.05,17.15-4.207l0.127,8.864
			c-3.574,1.242-9.792,3.505-18.657,3.505c-17.053,0-27.417-8.784-27.417-21.649c0-13.039,10.02-23.241,26.264-23.241
			c18.196,0,22.924,12.33,22.924,20.226c0,1.597-0.177,4.029-0.412,4.918L419.861,223.749z M443.295,216.972
			c0.092-3.647-2.145-9.482-11.264-9.482c-8.377,0-11.917,5.438-12.568,9.482H443.295z"/>
		<path fill="#5A819E" d="M467.533,182.353h14.47v60.345h-14.47V182.353z"/>
		<rect x="200.151" y="249.134" fill="#5A819E" width="279.21" height="2.546"/>
	</g>
	<circle fill="#E5231B" cx="120.377" cy="258.187" r="18.67"/>
	<path fill="#FF9D00" d="M115.858,160.771c-46.919,4.194-81.856,45.575-81.856,89.872c0,45.288,31.826,84.164,81.472,90.523
		c-58.086,0-96.559-40.839-96.559-90.523c0-48.927,42.622-94.296,96.937-89.929L115.858,160.771z"/>
	<g>
		<path fill="#AAAAAA" d="M120.377,300.996c-1.846,0-3.7-0.119-5.507-0.352c-2.48-0.318-4.23-2.587-3.911-5.066
			c0.319-2.479,2.594-4.232,5.066-3.911c1.427,0.184,2.891,0.276,4.352,0.276c18.614,0,33.758-15.144,33.758-33.757
			c0-2.5,2.026-4.526,4.526-4.526s4.526,2.026,4.526,4.526C163.188,281.791,143.983,300.996,120.377,300.996z"/>
	</g>
	<g>
		<path fill="#5A819E" d="M138.383,182.373h-4.944c1.606,0.276,3.195,0.602,4.767,0.976L138.383,182.373z"/>
		<path fill="#5A819E" d="M120.377,181.241c-4.453,0-8.812,0.402-13.062,1.132h26.123
			C129.19,181.643,124.831,181.241,120.377,181.241z"/>
		<path fill="#5A819E" d="M120.377,314.763c-31.197,0-56.577-25.38-56.577-56.576c0-31.197,25.38-56.578,56.577-56.578
			c4.901,0,9.658,0.628,14.195,1.805l3.633-20.065c-1.572-0.374-3.161-0.7-4.767-0.976h-26.123
			c-36.225,6.224-63.883,37.839-63.883,75.814c0,42.427,34.518,76.944,76.945,76.944c35.479,0,65.411-24.145,74.269-56.86h-21.388
			C165.138,299.579,144.502,314.763,120.377,314.763z"/>
	</g>
</g>
</svg>
