<?xml version="1.0" encoding="utf-8"?>
<!-- Generator: Adobe Illustrator 19.1.0, SVG Export Plug-In . SVG Version: 6.00 Build 0)  -->
<svg version="1.1" id="Calque_1" xmlns="http://www.w3.org/2000/svg" xmlns:xlink="http://www.w3.org/1999/xlink" x="0px" y="0px"
	 viewBox="-345 170.9 500 500" style="enable-background:new -345 170.9 500 500;" xml:space="preserve">
<style type="text/css">
	.st0{fill:#868686;}
	.st1{fill:#007EC3;}
</style>
<path class="st0" d="M-246.3,351.1h-43.8c-1.1,0-2.2,0.2-3.2,0.6c-1.1-0.5-2.4-0.7-3.7-0.7h-20.4c-5.4,0-9.7,4.4-9.7,9.7v84.9
	c0,5.4,4.4,9.7,9.7,9.7h20.4c5.4,0,9.7-4.3,9.7-9.7v-10.5h41c5.4,0,9.7-4.4,9.7-9.7v-64.6C-236.6,355.5-241,351.1-246.3,351.1z
	 M-275.2,418.3c0,3.4-2.7,6.1-6.1,6.1c-3.4,0-6.1-2.7-6.1-6.1V366c0-3.4,2.7-6.1,6.1-6.1c3.4,0,6.1,2.7,6.1,6.1V418.3z"/>
<path class="st0" d="M-150.7,367.4h-71.6c-5.4,0-9.7,4.4-9.7,9.7v69.3c0,5.4,4.4,9.7,9.7,9.7h71.6c5.4,0,9.7-4.4,9.7-9.7v-69.3
	C-141,371.8-145.4,367.4-150.7,367.4z M-180.9,438.8c0,3.1-2.5,5.6-5.6,5.6c-3.1,0-5.6-2.5-5.6-5.6v-52.3c0-3.1,2.5-5.6,5.6-5.6
	c3.1,0,5.6,2.5,5.6,5.6V438.8z"/>
<path class="st0" d="M-94.6,445.9c0,5.4-4.4,9.7-9.7,9.7h-20.6c-5.4,0-9.7-4.4-9.7-9.7v-86c0-5.4,4.4-9.7,9.7-9.7h20.6
	c5.4,0,9.7,4.4,9.7,9.7L-94.6,445.9L-94.6,445.9z"/>
<path class="st0" d="M-50.3,445.9c0,5.4-4.4,9.7-9.7,9.7h-20.6c-5.4,0-9.7-4.4-9.7-9.7v-86c0-5.4,4.4-9.7,9.7-9.7H-60
	c5.4,0,9.7,4.4,9.7,9.7V445.9z"/>
<path class="st0" d="M34.5,367.1H14.8c-4,0-7.4,2.4-8.9,5.8v65.7c0,3.3-2.7,6-6,6c-3.3,0-6-2.7-6-6v-64.9c-1.3-3.8-4.9-6.5-9.1-6.5
	h-19.7c-5.4,0-9.7,4.3-9.7,9.7v70c0,5.4,4.4,9.7,9.7,9.7h69.4c5.4,0,9.7-4.4,9.7-9.7v-70C44.3,371.4,39.9,367.1,34.5,367.1z"/>
<path class="st0" d="M130.8,405.9c5.4,0,9.7-4.4,9.7-9.7v-19.4c0-5.4-4.4-9.7-9.7-9.7h-20.6c-5.4,0-9.7,4.3-9.7,9.7v19.4
	c0,1.2,0.2,2.3,0.6,3.3c-0.7,2.5-3,4.4-5.8,4.4c-2.8,0-5.1-1.9-5.8-4.4c0.4-1,0.6-2.1,0.6-3.3v-19.4c0-5.4-4.4-9.7-9.7-9.7H60
	c-5.4,0-9.7,4.3-9.7,9.7v19.4c0,5.4,4.4,9.7,9.7,9.7h20.6c0.3,0,0.6-0.1,0.9-0.1c0,0,0,0.1,0,0.1h1.7c3.3,0,6,2.7,6,6
	c0,2.8-1.9,5.1-4.5,5.8c-1.2-0.6-2.6-0.9-4.1-0.9H60c-5.4,0-9.7,4.3-9.7,9.7v19.4c0,5.4,4.4,9.7,9.7,9.7h20.6c5.4,0,9.7-4.4,9.7-9.7
	v-19.4c0-1.1-0.2-2.2-0.6-3.2c0.8-2.5,3-4.3,5.7-4.3c2.7,0,5,1.8,5.7,4.3c-0.3,1-0.6,2-0.6,3.2v19.4c0,5.4,4.4,9.7,9.7,9.7h20.6
	c5.4,0,9.7-4.4,9.7-9.7v-19.4c0-5.4-4.4-9.7-9.7-9.7h-20.6c-1.1,0-2.1,0.2-3.1,0.6c-2-1-3.5-3-3.5-5.4c0-3.3,2.7-6,6-6
	c0,0,0,0,0-0.1c0.2,0,0.4,0.1,0.6,0.1L130.8,405.9L130.8,405.9z"/>
<path class="st1" d="M-250.4,347.7h-43.8c-1.1,0-2.2,0.2-3.2,0.6c-1.1-0.5-2.4-0.7-3.7-0.7h-20.4c-5.4,0-9.7,4.4-9.7,9.7v84.9
	c0,5.4,4.4,9.7,9.7,9.7h20.4c5.4,0,9.7-4.3,9.7-9.7v-10.5h41c5.4,0,9.7-4.4,9.7-9.7v-64.6C-240.7,352.1-245.1,347.7-250.4,347.7z
	 M-279.3,414.9c0,3.4-2.7,6.1-6.1,6.1s-6.1-2.7-6.1-6.1v-52.3c0-3.4,2.7-6.1,6.1-6.1s6.1,2.7,6.1,6.1V414.9z"/>
<path class="st1" d="M-154.9,364h-71.6c-5.4,0-9.7,4.4-9.7,9.7V443c0,5.4,4.4,9.7,9.7,9.7h71.6c5.4,0,9.7-4.4,9.7-9.7v-69.3
	C-145.1,368.3-149.5,364-154.9,364z M-185,435.3c0,3.1-2.5,5.6-5.6,5.6c-3.1,0-5.6-2.5-5.6-5.6v-52.3c0-3.1,2.5-5.6,5.6-5.6
	c3.1,0,5.6,2.5,5.6,5.6V435.3z"/>
<path class="st1" d="M-98.7,442.5c0,5.4-4.4,9.7-9.7,9.7H-129c-5.4,0-9.7-4.4-9.7-9.7v-86c0-5.4,4.4-9.7,9.7-9.7h20.6
	c5.4,0,9.7,4.4,9.7,9.7L-98.7,442.5L-98.7,442.5z"/>
<path class="st1" d="M-54.4,442.5c0,5.4-4.4,9.7-9.7,9.7h-20.6c-5.4,0-9.7-4.4-9.7-9.7v-86c0-5.4,4.4-9.7,9.7-9.7h20.6
	c5.4,0,9.7,4.4,9.7,9.7V442.5z"/>
<path class="st1" d="M30.4,363.6H10.7c-4,0-7.4,2.4-8.9,5.8v65.7c0,3.3-2.7,6-6,6s-6-2.7-6-6v-64.9c-1.3-3.8-4.9-6.5-9.1-6.5H-39
	c-5.4,0-9.7,4.3-9.7,9.7v70c0,5.4,4.4,9.7,9.7,9.7h69.4c5.4,0,9.7-4.3,9.7-9.7v-70C40.1,368,35.8,363.6,30.4,363.6z"/>
<path class="st1" d="M126.7,402.5c5.4,0,9.7-4.4,9.7-9.7v-19.4c0-5.4-4.4-9.7-9.7-9.7h-20.6c-5.4,0-9.7,4.3-9.7,9.7v19.4
	c0,1.2,0.2,2.3,0.6,3.3c-0.7,2.5-3,4.4-5.8,4.4c-2.8,0-5.1-1.9-5.8-4.4c0.4-1,0.6-2.1,0.6-3.3v-19.4c0-5.4-4.4-9.7-9.7-9.7H55.9
	c-5.4,0-9.7,4.3-9.7,9.7v19.4c0,5.4,4.4,9.7,9.7,9.7h20.6c0.3,0,0.6-0.1,0.9-0.1c0,0,0,0.1,0,0.1H79c3.3,0,6,2.7,6,6
	c0,2.8-1.9,5.1-4.5,5.8c-1.2-0.6-2.6-0.9-4.1-0.9H55.9c-5.4,0-9.7,4.3-9.7,9.7v19.4c0,5.4,4.4,9.7,9.7,9.7h20.6
	c5.4,0,9.7-4.4,9.7-9.7v-19.4c0-1.1-0.2-2.2-0.6-3.2c0.8-2.5,3-4.3,5.7-4.3c2.7,0,5,1.8,5.7,4.3c-0.3,1-0.6,2-0.6,3.2v19.4
	c0,5.4,4.4,9.7,9.7,9.7h20.6c5.4,0,9.7-4.4,9.7-9.7v-19.4c0-5.4-4.4-9.7-9.7-9.7h-20.6c-1.1,0-2.1,0.2-3.1,0.6c-2-1-3.5-3-3.5-5.4
	c0-3.3,2.7-6,6-6c0,0,0,0,0-0.1c0.2,0,0.4,0.1,0.6,0.1L126.7,402.5L126.7,402.5z"/>
<path class="st0" d="M-321,500.3l-7.2-19.7h4.5l5.2,14.6l5-14.6h4.4l-7.3,19.7H-321z"/>
<path class="st0" d="M-307.8,490.6c0-2,0.3-3.7,0.9-5.1c0.5-1,1.1-1.9,1.9-2.7c0.8-0.8,1.7-1.4,2.7-1.8c1.3-0.5,2.8-0.8,4.4-0.8
	c3,0,5.5,0.9,7.3,2.7c1.8,1.8,2.7,4.3,2.7,7.5c0,3.2-0.9,5.7-2.7,7.5c-1.8,1.8-4.2,2.7-7.3,2.7c-3.1,0-5.5-0.9-7.3-2.7
	C-306.9,496.2-307.8,493.7-307.8,490.6z M-303.5,490.4c0,2.2,0.5,4,1.6,5.1c1.1,1.2,2.5,1.7,4.1,1.7c1.7,0,3-0.6,4.1-1.7
	c1.1-1.2,1.6-2.9,1.6-5.2c0-2.3-0.5-4-1.6-5.1c-1-1.1-2.4-1.7-4.1-1.7c-1.7,0-3.1,0.6-4.2,1.7C-303,486.4-303.5,488.2-303.5,490.4z"
	/>
<path class="st0" d="M-279.9,500.3v-16.3h-6.1v-3.3h16.3v3.3h-6.1v16.3H-279.9z"/>
<path class="st0" d="M-266.9,500.3v-19.7h8.8c2.2,0,3.8,0.2,4.8,0.5c1,0.4,1.8,1,2.4,1.9c0.6,0.9,0.9,1.9,0.9,3.1
	c0,1.5-0.4,2.7-1.4,3.7c-0.9,1-2.3,1.6-4.1,1.8c0.9,0.5,1.6,1.1,2.2,1.7c0.6,0.6,1.4,1.7,2.4,3.2l2.5,3.8h-4.9l-3-4.3
	c-1.1-1.5-1.8-2.5-2.2-2.9c-0.4-0.4-0.8-0.7-1.3-0.8c-0.4-0.1-1.1-0.2-2.1-0.2h-0.9v8.2L-266.9,500.3L-266.9,500.3z M-262.8,488.9
	h3.1c2,0,3.2-0.1,3.7-0.2c0.5-0.2,0.9-0.4,1.2-0.8c0.3-0.4,0.4-0.9,0.4-1.5c0-0.7-0.2-1.2-0.6-1.6c-0.4-0.4-0.9-0.7-1.6-0.8
	c-0.3,0-1.4-0.1-3-0.1h-3.2V488.9z"/>
<path class="st0" d="M-246.1,500.3v-19.7h15.3v3.3H-242v4.3h10.4v3.3H-242v5.4h11.5v3.3L-246.1,500.3L-246.1,500.3z"/>
<path class="st0" d="M-220,494l4.1-0.4c0.2,1.3,0.7,2.2,1.5,2.8c0.7,0.6,1.7,0.9,3,0.9c1.3,0,2.3-0.3,3-0.8c0.7-0.5,1-1.2,1-1.9
	c0-0.5-0.1-0.9-0.4-1.2c-0.3-0.3-0.8-0.6-1.5-0.8c-0.5-0.2-1.6-0.5-3.3-0.9c-2.2-0.5-3.8-1.2-4.7-2c-1.3-1.1-1.9-2.4-1.9-4
	c0-1,0.3-2,0.9-2.8c0.6-0.9,1.5-1.5,2.6-2c1.1-0.5,2.5-0.7,4.1-0.7c2.6,0,4.5,0.5,5.8,1.6c1.3,1.1,2,2.5,2.1,4.3l-4.2,0.2
	c-0.2-1-0.6-1.7-1.2-2.2c-0.6-0.4-1.5-0.7-2.6-0.7c-1.2,0-2.2,0.2-2.8,0.7c-0.4,0.3-0.7,0.7-0.7,1.2c0,0.5,0.2,0.9,0.6,1.2
	c0.5,0.4,1.8,0.9,3.8,1.3c2,0.5,3.5,0.9,4.5,1.4c1,0.5,1.7,1.2,2.3,2c0.5,0.8,0.8,1.9,0.8,3.1c0,1.1-0.3,2.2-1,3.2
	c-0.7,1-1.6,1.7-2.8,2.2c-1.2,0.5-2.7,0.7-4.5,0.7c-2.6,0-4.6-0.6-6-1.7C-218.9,497.8-219.7,496.1-220,494z"/>
<path class="st0" d="M-199.7,500.3v-19.7h15.3v3.3h-11.1v4.3h10.4v3.3h-10.4v5.4h11.5v3.3L-199.7,500.3L-199.7,500.3z"/>
<path class="st0" d="M-167.2,493l4,1.2c-0.6,2.2-1.7,3.8-3.1,4.8c-1.4,1-3.3,1.6-5.5,1.6c-2.7,0-5-0.9-6.8-2.7
	c-1.8-1.8-2.7-4.2-2.7-7.3c0-3.3,0.9-5.8,2.7-7.6c1.8-1.8,4.1-2.7,7-2.7c2.5,0,4.6,0.7,6.2,2.1c0.9,0.8,1.6,2,2.1,3.6l-4.1,1
	c-0.2-1-0.8-1.8-1.5-2.4c-0.8-0.6-1.7-0.9-2.8-0.9c-1.5,0-2.8,0.5-3.8,1.6c-1,1.1-1.4,2.8-1.4,5.1c0,2.5,0.5,4.3,1.4,5.3
	c0.9,1.1,2.2,1.6,3.7,1.6c1.1,0,2.1-0.3,2.9-1C-168.2,495.5-167.6,494.5-167.2,493z"/>
<path class="st0" d="M-159.7,480.6h4.2v10.7c0,1.7,0.1,2.8,0.2,3.3c0.2,0.8,0.6,1.5,1.3,2c0.7,0.5,1.6,0.7,2.7,0.7
	c1.2,0,2.1-0.2,2.7-0.7c0.6-0.5,1-1,1.1-1.7c0.1-0.7,0.2-1.8,0.2-3.4v-11h4.2V491c0,2.4-0.1,4-0.3,5s-0.6,1.8-1.2,2.5
	c-0.6,0.7-1.4,1.2-2.4,1.6c-1,0.4-2.3,0.6-4,0.6c-2,0-3.5-0.2-4.5-0.6c-1-0.4-1.8-1-2.4-1.7c-0.6-0.7-1-1.4-1.2-2.2
	c-0.3-1.1-0.4-2.8-0.4-5L-159.7,480.6L-159.7,480.6z"/>
<path class="st0" d="M-138.9,500.3v-19.7h8.8c2.2,0,3.8,0.2,4.8,0.5c1,0.4,1.8,1,2.4,1.9c0.6,0.9,0.9,1.9,0.9,3.1
	c0,1.5-0.4,2.7-1.4,3.7c-0.9,1-2.3,1.6-4.1,1.8c0.9,0.5,1.6,1.1,2.2,1.7c0.6,0.6,1.4,1.7,2.4,3.2l2.5,3.8h-4.9l-3-4.3
	c-1.1-1.5-1.8-2.5-2.2-2.9c-0.4-0.4-0.8-0.7-1.3-0.8c-0.4-0.1-1.2-0.2-2.1-0.2h-0.9v8.2L-138.9,500.3L-138.9,500.3z M-134.7,488.9
	h3.1c2,0,3.2-0.1,3.7-0.2c0.5-0.2,0.9-0.4,1.2-0.8c0.3-0.4,0.4-0.9,0.4-1.5c0-0.7-0.2-1.2-0.6-1.6c-0.4-0.4-0.9-0.7-1.6-0.8
	c-0.3,0-1.4-0.1-3-0.1h-3.3L-134.7,488.9L-134.7,488.9z"/>
<path class="st0" d="M-118.2,500.3v-19.7h4.2v19.7H-118.2z"/>
<path class="st0" d="M-105.5,500.3v-16.3h-6.1v-3.3h16.3v3.3h-6.1v16.3H-105.5z"/>
<path class="st0" d="M-92.5,500.3v-19.7h15.3v3.3h-11.1v4.3H-78v3.3h-10.4v5.4h11.5v3.3L-92.5,500.3L-92.5,500.3z"/>
<path class="st0" d="M-46.7,500.3h-4.5l-1.8-4.4h-8.2l-1.7,4.4h-4.5l7.9-19.7h4.5L-46.7,500.3z M-54.3,492.5l-2.9-7.3l-2.7,7.3
	H-54.3z"/>
<path class="st0" d="M-44.5,480.6h4.2v10.7c0,1.7,0,2.8,0.1,3.3c0.2,0.8,0.6,1.5,1.3,2c0.7,0.5,1.6,0.7,2.7,0.7
	c1.2,0,2.1-0.2,2.7-0.7c0.6-0.5,1-1,1.1-1.7c0.1-0.7,0.2-1.8,0.2-3.4v-11h4.2V491c0,2.4-0.1,4-0.3,5c-0.2,1-0.6,1.8-1.2,2.5
	c-0.6,0.7-1.4,1.2-2.4,1.6c-1,0.4-2.3,0.6-4,0.6c-2,0-3.5-0.2-4.5-0.6c-1-0.4-1.8-1-2.4-1.7c-0.6-0.7-1-1.4-1.2-2.2
	c-0.3-1.1-0.4-2.8-0.4-5V480.6z"/>
<path class="st0" d="M0.8,497.8c1,0.7,2.1,1.3,3.3,1.7l-1.5,2.8c-0.6-0.2-1.2-0.4-1.8-0.7c-0.1-0.1-1.1-0.6-2.8-1.7
	c-1.4,0.6-2.8,0.8-4.5,0.8c-3.2,0-5.6-0.9-7.4-2.7c-1.8-1.8-2.7-4.3-2.7-7.5c0-3.2,0.9-5.7,2.7-7.5c1.8-1.8,4.2-2.7,7.3-2.7
	c3.1,0,5.5,0.9,7.3,2.7c1.8,1.8,2.7,4.3,2.7,7.5c0,1.7-0.2,3.2-0.8,4.5C2.3,495.9,1.7,496.8,0.8,497.8z M-2.5,495.6
	c0.5-0.6,1-1.3,1.2-2.2c0.3-0.9,0.4-1.8,0.4-2.9c0-2.3-0.5-4-1.6-5.1c-1.1-1.1-2.4-1.7-4.1-1.7c-1.7,0-3.1,0.6-4.1,1.7
	c-1.1,1.1-1.6,2.8-1.6,5.1c0,2.3,0.5,4,1.6,5.2c1.1,1.1,2.4,1.7,4,1.7c0.6,0,1.2-0.1,1.7-0.3c-0.8-0.5-1.7-0.9-2.6-1.2l1.2-2.3
	C-5.1,494-3.8,494.7-2.5,495.6z"/>
<path class="st0" d="M6.7,480.6h4.2v10.7c0,1.7,0,2.8,0.1,3.3c0.2,0.8,0.6,1.5,1.3,2c0.7,0.5,1.6,0.7,2.7,0.7c1.2,0,2.1-0.2,2.7-0.7
	c0.6-0.5,1-1,1.1-1.7c0.1-0.7,0.2-1.8,0.2-3.4v-11h4.2V491c0,2.4-0.1,4-0.3,5c-0.2,1-0.6,1.8-1.2,2.5c-0.6,0.7-1.4,1.2-2.4,1.6
	c-1,0.4-2.3,0.6-4,0.6c-2,0-3.5-0.2-4.5-0.6c-1-0.4-1.8-1-2.4-1.7c-0.6-0.7-1-1.4-1.2-2.2c-0.3-1.1-0.4-2.8-0.4-5L6.7,480.6
	L6.7,480.6z"/>
<path class="st0" d="M26.6,490.6c0-2,0.3-3.7,0.9-5.1c0.5-1,1.1-1.9,1.9-2.7c0.8-0.8,1.7-1.4,2.7-1.8c1.3-0.5,2.8-0.8,4.4-0.8
	c3,0,5.5,0.9,7.3,2.7c1.8,1.8,2.7,4.3,2.7,7.5c0,3.2-0.9,5.7-2.7,7.5c-1.8,1.8-4.2,2.7-7.2,2.7c-3.1,0-5.5-0.9-7.3-2.7
	C27.5,496.2,26.6,493.7,26.6,490.6z M30.9,490.4c0,2.2,0.5,4,1.6,5.1c1.1,1.2,2.4,1.7,4.1,1.7c1.7,0,3-0.6,4.1-1.7
	c1.1-1.2,1.6-2.9,1.6-5.2c0-2.3-0.5-4-1.6-5.1c-1-1.1-2.4-1.7-4.1-1.7c-1.7,0-3.1,0.6-4.2,1.7C31.4,486.4,30.9,488.2,30.9,490.4z"/>
<path class="st0" d="M54.5,500.3v-16.3h-6.1v-3.3h16.3v3.3h-6.1v16.3H54.5z"/>
<path class="st0" d="M67.4,500.3v-19.7h4.2v19.7H67.4z"/>
<path class="st0" d="M75.5,480.6h7.6c1.7,0,3,0.1,3.9,0.4c1.2,0.3,2.2,0.9,3.1,1.8c0.9,0.9,1.5,1.9,2,3.2c0.5,1.3,0.7,2.8,0.7,4.6
	c0,1.6-0.2,3-0.6,4.2c-0.5,1.4-1.2,2.6-2.2,3.5c-0.7,0.7-1.7,1.2-2.9,1.6c-0.9,0.3-2.1,0.4-3.7,0.4h-7.8L75.5,480.6L75.5,480.6z
	 M79.6,483.9v13h3.1c1.2,0,2-0.1,2.5-0.2c0.7-0.2,1.2-0.4,1.7-0.8c0.5-0.4,0.8-1,1.1-1.9c0.3-0.9,0.4-2.1,0.4-3.6
	c0-1.5-0.1-2.7-0.4-3.5c-0.3-0.8-0.7-1.4-1.2-1.9c-0.5-0.5-1.2-0.8-1.9-0.9c-0.6-0.1-1.7-0.2-3.4-0.2H79.6z"/>
<path class="st0" d="M96.2,500.3v-19.7h4.2v19.7H96.2z"/>
<path class="st0" d="M104.3,500.3v-19.7h15.3v3.3h-11.1v4.3h10.4v3.3h-10.4v5.4H120v3.3L104.3,500.3L104.3,500.3z"/>
<path class="st0" d="M123.5,500.3v-19.7h4l8.5,13.2v-13.2h3.9v19.7h-4.2l-8.4-12.9v12.9H123.5z"/>
</svg>
