<?xml version="1.0" encoding="utf-8"?>
<!-- Generator: Adobe Illustrator 15.0.0, SVG Export Plug-In . SVG Version: 6.00 Build 0)  -->
<!DOCTYPE svg PUBLIC "-//W3C//DTD SVG 1.1//EN" "http://www.w3.org/Graphics/SVG/1.1/DTD/svg11.dtd">
<svg version="1.1" id="Calque_1" xmlns="http://www.w3.org/2000/svg" xmlns:xlink="http://www.w3.org/1999/xlink" x="0px" y="0px"
	 width="500px" height="500px" viewBox="0 0 500 500" enable-background="new 0 0 500 500" xml:space="preserve">
<g>
	<path fill="#FF0000" d="M286.27,219.769c6.816,0,12.361,5.545,12.361,12.362s-5.545,12.362-12.361,12.362
		c-6.815,0-12.361-5.545-12.361-12.362S279.454,219.769,286.27,219.769 M286.27,186.805c-25.033,0-45.325,20.294-45.325,45.326
		s20.292,45.326,45.325,45.326s45.325-20.294,45.325-45.326S311.303,186.805,286.27,186.805L286.27,186.805z"/>
	<circle fill="#FF0000" cx="94.668" cy="260.412" r="18.167"/>
	<g>
		<path fill="#FF0000" d="M50.279,275.957H17.315v-50.569c0-19.305,13.128-40.082,41.954-40.082
			c22.008,0,32.531,18.614,33.661,20.736l-29.113,15.466l0.173,0.312c-0.021-0.037-2.227-3.55-4.721-3.55
			c-5.695,0-8.99,1.165-8.99,7.117V275.957z"/>
	</g>
	<path fill="#FF0000" d="M190.376,186.805c-25.034,0-45.326,20.294-45.326,45.326c0,0.026-0.012,3.221-0.026,8.239h-0.225v67.552
		h32.963h3.468V240.37c-1.979-2.192-3.216-5.063-3.216-8.239c0-6.816,5.545-12.362,12.361-12.362
		c6.815,0,12.361,5.546,12.361,12.362s-5.545,12.361-12.361,12.361c-3.137,0-5.976-1.213-8.159-3.147l3.716,35.86
		c1.463,0.147,2.941,0.252,4.442,0.252c25.032,0,45.325-20.294,45.325-45.326S215.408,186.805,190.376,186.805z"/>
	<path fill="#FF0000" d="M375.422,186.805c-21.723,0-39.332,17.61-39.332,39.332V282.7h31.478l-0.013-57.312
		c0-4.138,3.354-7.492,7.492-7.492s7.492,3.354,7.492,7.492l-0.062,57.312h32.276v-56.563
		C414.754,204.415,397.146,186.805,375.422,186.805z"/>
	<path fill="#FF0000" d="M418.125,283.074c0,0,0-29.03,0-34.837c0,0,20.977-2.997,20.977-19.104c0-37.833,46.449-40.83,46.449-40.83
		v31.84c0,0-19.104-2.436-19.104,21.164C466.448,260.038,462.139,283.074,418.125,283.074z"/>
</g>
</svg>
