<?xml version="1.0" encoding="utf-8"?>
<!-- Generator: Adobe Illustrator 21.0.2, SVG Export Plug-In . SVG Version: 6.00 Build 0)  -->
<svg version="1.1" id="Calque_1" xmlns="http://www.w3.org/2000/svg" xmlns:xlink="http://www.w3.org/1999/xlink" x="0px" y="0px"
	 viewBox="0 0 500 96" style="enable-background:new 0 0 500 96;" xml:space="preserve">
<style type="text/css">
	.st0{fill:#E4221B;}
	.st1{fill:#0D0802;}
	.st2{fill:#007DC4;}
</style>
<path class="st0" d="M464.4,31.4c-4.9-3.8-16.6-14.4-16.6-14.4s-1.7,1.5-4,3.6c3.8,3.4,9.8,8.7,13,11.2c4.9,3.8,12.5,12.4,12.5,19.8
	c0,5.9-5.8,11.3-10.8,13.3c1.2,0.3,2.4,0.5,3.9,0.5c5.1,0,14.5-6.8,14.5-14.2C476.9,43.8,469.3,35.2,464.4,31.4z"/>
<path class="st0" d="M440.3,60.1c-2.9,0-5.4,3.2-9.7,4.8c1,0.3,1.9,0.5,2.8,0.5c4.9,0,7.9-2.3,10.5-4
	C442.6,60.7,441.4,60.1,440.3,60.1z"/>
<path class="st0" d="M448.7,73.2c0.9,0,3,0,8.2,0c-2.7-1.1-8.8-8.8-8.8-8.8s-1.8,2.3-3.9,4.6C445.7,70.7,447.4,72.4,448.7,73.2z"/>
<path class="st1" d="M66.6,32.7c-2-1.3-4.4-2.2-7.1-2.8C56.8,29.3,48.9,29,45.8,29H26.9v47.9h18.9V62.7c3.1,0,11-0.3,13.7-0.9
	s5.1-1.5,7.1-2.8s3.6-2.9,4.8-5c1.2-2.1,1.8-4.6,1.8-7.5s-0.6-6.6-1.8-8.7C70.3,35.7,68.7,34,66.6,32.7z M53,49.2
	c-0.9,0.7-4.5,1-6.5,1h-0.7v-7.6h0.7c2.1,0,5.6,0.3,6.5,1s1.4,1.6,1.4,2.8C54.3,47.6,53.9,48.6,53,49.2z"/>
<path class="st1" d="M127.3,35.6c-2.7-2.2-5.9-3.9-9.5-5.2s-7.5-1.9-11.6-1.9s-8,0.6-11.6,1.9c-3.6,1.3-6.8,3-9.5,5.2
	s-4.8,4.7-6.4,7.7c-1.6,2.9-2.3,6.1-2.3,9.4c0,3.3,0.8,6.4,2.3,9.4c1.6,2.9,3.7,5.5,6.4,7.7c2.7,2.2,5.9,3.9,9.5,5.2
	c3.6,1.3,7.5,1.9,11.6,1.9s8-0.6,11.6-1.9s6.8-3,9.5-5.2s4.8-4.7,6.4-7.7c1.6-2.9,2.3-6.1,2.3-9.4c0-3.3-0.8-6.4-2.3-9.4
	C132.1,40.4,130,37.8,127.3,35.6z M115.6,56.2c-0.5,1.1-1.3,2-2.2,2.8c-0.9,0.8-2,1.4-3.3,1.9c-1.2,0.5-2.6,0.7-4,0.7
	s-2.7-0.2-4-0.7c-1.2-0.5-2.3-1.1-3.3-1.9c-0.9-0.8-1.7-1.8-2.2-2.8c-0.5-1.1-0.8-2.2-0.8-3.5c0-1.2,0.3-2.4,0.8-3.5s1.3-2,2.2-2.8
	c0.9-0.8,2-1.4,3.3-1.9c1.2-0.5,2.6-0.7,4-0.7s2.8,0.2,4,0.7s2.3,1.1,3.3,1.9c0.9,0.8,1.7,1.8,2.2,2.8c0.5,1.1,0.8,2.2,0.8,3.5
	C116.4,53.9,116.2,55.1,115.6,56.2z"/>
<path class="st1" d="M251.6,62.1c1.6-2.9,2.3-6.1,2.3-9.4c0-3.3-0.8-6.4-2.3-9.4c-1.6-2.9-3.7-5.5-6.4-7.7s-5.9-3.9-9.5-5.2
	s-7.5-1.9-11.6-1.9s-8,0.6-11.6,1.9c-3.6,1.3-6.8,3-9.5,5.2s-4.8,4.7-6.4,7.7c-1.6,2.9-2.3,6.1-2.3,9.4s0.8,6.4,2.3,9.4
	c1.6,2.9,3.7,5.5,6.4,7.7s5.9,3.9,9.5,5.2c3.6,1.3,7.5,1.9,11.6,1.9c4,0,7.8-0.6,11.4-1.8l5.1,6l15.8-5.8l-8.7-7.7
	C249.3,65.8,250.6,64.1,251.6,62.1z M233.7,55.8l-12.9,1.9l3.4,4h-0.1c-1.4,0-2.7-0.2-4-0.7c-1.2-0.5-2.3-1.1-3.3-1.9
	c-0.9-0.8-1.7-1.8-2.2-2.8c-0.5-1.1-0.8-2.2-0.8-3.5c0-1.2,0.3-2.4,0.8-3.5s1.3-2,2.2-2.8s2-1.4,3.3-1.9c1.2-0.5,2.6-0.7,4-0.7
	s2.8,0.2,4,0.7s2.3,1.1,3.3,1.9c0.9,0.8,1.7,1.8,2.2,2.8c0.5,1.1,0.8,2.2,0.8,3.5C234.4,53.8,234.1,54.8,233.7,55.8z"/>
<path class="st1" d="M186.5,51.4c0.7-1.7,3.3-11.7-4.6-17.7c-2-1.5-6-4.9-18.8-4.9h-21v48.1h18.7V61.6l8.4,15.3h23.1l-15.1-18.6
	C179.4,57.8,184.2,56.7,186.5,51.4z M166.1,49.5c-1.3,0.6-2.9,1-4.7,1h-0.8V42h0.8c1.9,0,3.4,0.3,4.7,1c1.3,0.6,1.9,1.7,1.9,3.3
	C168.1,47.7,167.4,48.8,166.1,49.5z"/>
<path class="st1" d="M289.6,57.6c0,1.7-0.4,3-1.1,3.9s-1.9,1.4-3.6,1.4s-2.8-0.5-3.6-1.4c-0.7-0.9-1.1-2.2-1.1-3.9V28.8h-19.9v31.1
	c0,3.2,1.9,19.1,24.6,19.1c23.8,0,24.1-15.8,24.1-19.1V28.8h-19.5v28.8L289.6,57.6L289.6,57.6z"/>
<polygon class="st1" points="337.1,59.2 352,59.2 352,46.5 337.1,46.5 337.1,42.1 353.4,42.1 353.4,28.8 317.5,28.8 317.5,77.7 
	353.9,77.7 353.9,63.7 337.1,63.7 "/>
<polygon class="st1" points="358.1,44.3 368.7,44.3 368.7,77.7 388.3,77.7 388.3,44.3 398.6,44.3 398.6,28.8 358.1,28.8 "/>
<path class="st1" d="M453.6,35c-4.9-3.8-16.6-14.4-16.6-14.4S425.3,31.2,420.4,35c-4.9,3.8-12.5,12.4-12.5,19.8S417.3,69,422.4,69
	c7.6,0,10.8-5.6,14.5-5.6c3.8,0,7,5.6,14.5,5.6c5.1,0,14.5-6.8,14.5-14.2C466.1,47.3,458.6,38.7,453.6,35z"/>
<path class="st1" d="M437.3,67.9c0,0-6.1,7.7-8.8,8.8c8.8,0,8.8,0,8.8,0s0,0,8.8,0C443.3,75.6,437.3,67.9,437.3,67.9z"/>
<path class="st2" d="M64.8,30c-2-1.3-4.4-2.2-7.1-2.8C55,26.6,47.1,26.3,44,26.3H25.1v47.9H44V60c3.1,0,11-0.3,13.7-0.9
	s5.1-1.5,7.1-2.8c2-1.3,3.6-3,4.8-5c1.2-2.1,1.8-4.6,1.8-7.5s-0.6-6.6-1.8-8.7C68.5,32.9,66.9,31.2,64.8,30z M51.2,46.5
	c-0.9,0.7-4.5,1-6.5,1H44v-7.6h0.7c2.1,0,5.6,0.3,6.5,1s1.4,1.6,1.4,2.8C52.5,44.9,52.1,45.8,51.2,46.5z"/>
<path class="st2" d="M125.5,32.9c-2.7-2.2-5.9-3.9-9.5-5.2s-7.5-1.9-11.6-1.9s-8,0.6-11.6,1.9c-3.6,1.3-6.8,3-9.5,5.2
	s-4.8,4.8-6.4,7.7s-2.3,6.1-2.3,9.4c0,3.3,0.8,6.4,2.3,9.4c1.6,2.9,3.7,5.5,6.4,7.7c2.7,2.2,5.9,3.9,9.5,5.2
	c3.6,1.3,7.5,1.9,11.6,1.9s8-0.6,11.6-1.9s6.8-3,9.5-5.2s4.8-4.7,6.4-7.7c1.6-2.9,2.3-6.1,2.3-9.4c0-3.3-0.8-6.4-2.3-9.4
	C130.3,37.7,128.2,35.1,125.5,32.9z M113.8,53.5c-0.5,1.1-1.3,2-2.2,2.8c-0.9,0.8-2,1.4-3.3,1.9c-1.2,0.5-2.6,0.7-4,0.7
	s-2.8-0.2-4-0.7S98,57.1,97,56.3c-0.9-0.8-1.7-1.8-2.2-2.8C94.3,52.4,94,51.3,94,50c0-1.2,0.3-2.4,0.8-3.5s1.3-2,2.2-2.8
	c0.9-0.8,2-1.4,3.3-1.9c1.2-0.5,2.6-0.7,4-0.7s2.8,0.2,4,0.7s2.3,1.1,3.3,1.9c0.9,0.8,1.7,1.8,2.2,2.8c0.5,1.1,0.8,2.2,0.8,3.5
	C114.6,51.2,114.4,52.4,113.8,53.5z"/>
<path class="st2" d="M249.8,59.4c1.6-2.9,2.3-6.1,2.3-9.4c0-3.3-0.8-6.4-2.3-9.4c-1.6-2.9-3.7-5.5-6.4-7.7s-5.9-3.9-9.5-5.2
	s-7.5-1.9-11.6-1.9s-8,0.6-11.6,1.9c-3.6,1.3-6.8,3-9.5,5.2s-4.8,4.8-6.4,7.7c-1.6,2.9-2.3,6.1-2.3,9.4c0,3.3,0.8,6.4,2.3,9.4
	c1.6,2.9,3.7,5.5,6.4,7.7s5.9,3.9,9.5,5.2c3.6,1.3,7.5,1.9,11.6,1.9c4,0,7.8-0.6,11.4-1.8l5.1,6l15.8-5.8l-8.7-7.7
	C247.5,63.1,248.8,61.3,249.8,59.4z M231.9,53L219,54.9l3.4,4h-0.1c-1.4,0-2.8-0.2-4-0.7s-2.3-1.1-3.3-1.9c-0.9-0.8-1.7-1.8-2.2-2.8
	c-0.5-1.1-0.8-2.2-0.8-3.5c0-1.2,0.3-2.4,0.8-3.5s1.3-2,2.2-2.8s2-1.4,3.3-1.9c1.2-0.5,2.6-0.7,4-0.7s2.8,0.2,4,0.7s2.3,1.1,3.3,1.9
	c0.9,0.8,1.7,1.8,2.2,2.8c0.5,1.1,0.8,2.2,0.8,3.5C232.6,51.1,232.4,52.1,231.9,53z"/>
<path class="st2" d="M184.7,48.6c0.7-1.7,3.3-11.7-4.6-17.7c-2-1.5-6-4.9-18.8-4.9h-21v48.1H159V58.8l8.5,15.3h23.1l-15.1-18.6
	C177.6,55.1,182.5,54,184.7,48.6z M164.3,46.7c-1.3,0.6-2.9,1-4.7,1h-0.8v-8.5h0.8c1.9,0,3.4,0.3,4.7,1c1.3,0.6,1.9,1.7,1.9,3.3
	C166.3,45,165.6,46.1,164.3,46.7z"/>
<path class="st2" d="M287.8,54.9c0,1.7-0.4,3-1.1,3.9s-1.9,1.4-3.6,1.4s-2.8-0.5-3.6-1.4c-0.7-0.9-1.1-2.2-1.1-3.9V26.1h-19.9v31.1
	c0,3.2,1.9,19.1,24.6,19.1c23.8,0,24.1-15.8,24.1-19.1V26.1h-19.5v28.8L287.8,54.9L287.8,54.9z"/>
<polygon class="st2" points="335.3,56.5 350.3,56.5 350.3,43.8 335.3,43.8 335.3,39.3 351.6,39.3 351.6,26.1 315.7,26.1 315.7,75 
	352.1,75 352.1,61 335.3,61 "/>
<polygon class="st2" points="356.3,41.5 367,41.5 367,75 386.5,75 386.5,41.5 396.8,41.5 396.8,26.1 356.3,26.1 "/>
<path class="st2" d="M451.9,32.2c-4.9-3.8-16.6-14.4-16.6-14.4s-11.7,10.6-16.6,14.4c-4.9,3.8-12.5,12.4-12.5,19.8
	c0,7.4,9.4,14.2,14.5,14.2c7.6,0,10.8-5.6,14.5-5.6c3.8,0,7,5.6,14.5,5.6c5.2,0,14.5-6.8,14.5-14.2C464.3,44.6,456.8,36,451.9,32.2z
	"/>
<path class="st2" d="M435.5,65.2c0,0-6.1,7.7-8.8,8.8c8.8,0,8.8,0,8.8,0s0,0,8.8,0C441.6,72.9,435.5,65.2,435.5,65.2z"/>
</svg>
