<?xml version="1.0" encoding="utf-8"?>
<!-- Generator: Adobe Illustrator 15.0.0, SVG Export Plug-In . SVG Version: 6.00 Build 0)  -->
<!DOCTYPE svg PUBLIC "-//W3C//DTD SVG 1.1//EN" "http://www.w3.org/Graphics/SVG/1.1/DTD/svg11.dtd">
<svg version="1.1" id="Calque_1" xmlns="http://www.w3.org/2000/svg" xmlns:xlink="http://www.w3.org/1999/xlink" x="0px" y="0px"
	 width="500px" height="500px" viewBox="0 0 500 500" enable-background="new 0 0 500 500" xml:space="preserve">
<g>
	<path fill="#148462" d="M168.659,241.054c0.001,0,0.009-0.001,0.009-0.001s-0.012-0.361-0.071-0.979
		c-0.022-0.274-0.038-0.447-0.038-0.447l-0.007,0.002c-0.53-4.722-3.399-19.591-18.538-19.591H110.51v0.165h-2.633v63.865h18.435
		v-20.246h23.703v-0.028c15.561,0,18.157-15.702,18.575-19.955C168.716,243.067,168.702,241.949,168.659,241.054z M153.965,242.229
		c0,4.06-3.95,4.117-3.95,4.117l-0.036,0.057h-23.667v-8.917h23.703c0,0,3.95,0.057,3.95,4.116V242.229z"/>
	<path fill="#148462" d="M234.619,241.052c0,0-0.658-21.015-18.655-21.015H176.46v0.165h-2.634v63.865h18.435v-20.246h19.734
		c1.233,0.526,2.982,1.695,2.982,4.113c0,3.732,0,16.242,0,16.242h18.325c0,0,0-15.911,0-18.765c0-2.553-1.241-5.881-4.012-7.658
		c5.046-6.208,5.329-14.976,5.329-14.976s-0.118-0.021-0.384-0.054v-1.618C234.5,241.073,234.619,241.052,234.619,241.052z
		 M216.019,242.229c0,4.06-3.395,4.117-3.395,4.117l-0.031,0.057h-20.332v-8.917h20.363c0,0,3.395,0.057,3.395,4.116V242.229z"/>
	<polygon fill="#148462" points="364.488,239.021 382.841,239.021 382.841,283.928 401.276,283.928 401.276,239.021 
		419.629,239.021 419.629,220.585 364.488,220.585 	"/>
	<polygon fill="#148462" points="238.075,220.367 238.074,220.367 238.074,284.182 258.074,284.182 258.074,284.162 
		293.217,284.162 293.217,265.467 258.074,265.467 258.074,261.353 290.912,261.353 290.912,244.069 258.074,244.069 
		258.074,238.802 293.217,238.802 293.217,220.367 258.074,220.367 	"/>
	<path fill="#148462" d="M473.509,220.971h-36.651c-7.272,0-13.169,5.896-13.169,13.168v35.993c0,7.271,5.896,13.168,13.169,13.168
		h36.651c7.271,0,13.168-5.896,13.168-13.168v-35.993C486.677,226.867,480.78,220.971,473.509,220.971z M468.021,263.108
		c0,2.183-1.768,3.951-3.95,3.951h-18.436c-2.182,0-3.95-1.769-3.95-3.951v-21.507c0-2.182,1.769-3.95,3.95-3.95h18.436
		c2.183,0,3.95,1.768,3.95,3.95V263.108z"/>
	<path fill="#148462" d="M349.117,220.971h-37.896c-7.519,0-13.615,5.896-13.615,13.168v11.33c0,1.893,0.796,14.32,16.351,14.32
		s26.171,0,26.171,0c2.141,0,4.305,0.769,4.305,3.621c0,2.182-1.961,3.649-4.38,3.649h-20.445c-2.42,0-4.381-1.769-4.381-3.951
		h-17.62v7.023c0,7.271,6.097,13.168,13.615,13.168h37.896c7.52,0,13.616-5.896,13.616-13.168v-10.178
		c0-10.533-6.063-15.638-17.833-15.638c-4.361,0-20.574,0-24.771,0c-4.735,0-4.903-1.792-4.903-3.354
		c0-2.182,1.425-3.311,4.381-3.311h20.445c2.419,0,4.38,1.768,4.38,3.95l18.302-0.166v-7.296
		C362.733,226.867,356.637,220.971,349.117,220.971z"/>
	<path fill="#148462" d="M12.849,286.192h66.758v-66.758H12.849V286.192z M45.987,275.824c-4.26-0.044-8.234-1.271-11.644-3.337
		c0.387-0.256,0.735-0.539,1.067-0.811c0.832-0.682,1.551-1.271,2.676-1.271c1.273,0,1.811,0.413,2.557,0.984
		c0.989,0.76,2.232,1.682,5.344,1.792V275.824z M45.987,271.869c-2.652-0.1-3.624-0.818-4.543-1.524
		c-0.805-0.617-1.637-1.255-3.357-1.255c-1.595,0-2.613,0.833-3.511,1.568c-0.494,0.405-0.959,0.77-1.493,1.028
		c-0.923-0.645-1.786-1.365-2.604-2.134c0.146,0.013,0.293,0.029,0.447,0.029c1.844,0,3.125-1.06,4.254-1.994
		c1-0.828,1.865-1.545,2.989-1.545c1.241,0,1.76,0.477,2.479,1.135c0.975,0.893,2.199,1.977,5.339,2.104V271.869z M45.987,267.969
		c-2.617-0.115-3.56-0.947-4.449-1.764c-0.795-0.727-1.617-1.479-3.369-1.479c-1.597,0-2.731,0.938-3.829,1.847
		c-1.05,0.87-2.043,1.692-3.414,1.692c-1.029,0-1.833-0.45-2.612-1.02c-1.268-1.57-2.326-3.314-3.152-5.183
		c0.545,0.232,1.071,0.626,1.646,1.079c1.092,0.857,2.328,1.831,4.118,1.831c1.844,0,3.125-1.06,4.254-1.995
		c1-0.828,1.865-1.544,2.989-1.544c1.241,0,1.76,0.476,2.479,1.134c0.975,0.893,2.199,1.977,5.339,2.105V267.969z M45.987,263.359
		c-2.617-0.114-3.56-0.946-4.449-1.763c-0.795-0.727-1.617-1.479-3.369-1.479c-1.597,0-2.731,0.938-3.829,1.847
		c-1.05,0.87-2.043,1.691-3.414,1.691c-1.333,0-2.29-0.752-3.302-1.549c-0.909-0.714-1.849-1.443-3.051-1.555
		c-0.23-0.641-0.431-1.293-0.604-1.957c0.098-0.012,0.193-0.042,0.291-0.042c0.9,0,1.664,0.601,2.548,1.297
		c1.092,0.857,2.328,1.831,4.118,1.831c1.844,0,3.125-1.06,4.254-1.995c1-0.828,1.865-1.544,2.989-1.544
		c1.241,0,1.76,0.476,2.479,1.134c0.975,0.893,2.199,1.977,5.339,2.105V263.359z M45.987,260.067
		c-2.617-0.114-3.56-0.946-4.449-1.763c-0.795-0.727-1.617-1.479-3.369-1.479c-1.597,0-2.731,0.938-3.829,1.847
		c-1.05,0.87-2.043,1.691-3.414,1.691c-1.333,0-2.29-0.752-3.302-1.549c-0.988-0.775-2.007-1.578-3.364-1.578
		c-0.206,0-0.407,0.044-0.608,0.077c-0.235-1.185-0.359-2.407-0.404-3.649c0.333-0.122,0.672-0.214,1.012-0.214
		c0.9,0,1.664,0.601,2.548,1.297c1.092,0.857,2.328,1.831,4.118,1.831c1.844,0,3.125-1.06,4.254-1.995
		c1-0.828,1.865-1.544,2.989-1.544c1.241,0,1.76,0.476,2.479,1.134c0.975,0.893,2.199,1.977,5.339,2.105V260.067z M76.901,283.488
		H50.087c13.97-1.749,25.067-12.845,26.814-26.814V283.488z M76.901,222.139v26.814c-1.748-13.969-12.844-25.065-26.814-26.814
		H76.901z M48.127,229.887c11.808,0.971,21.123,10.874,21.123,22.927c0,12.054-9.315,21.956-21.123,22.927V229.887z M45.987,229.803
		v6.809c-2.617-0.115-3.56-0.947-4.449-1.763c-0.795-0.727-1.617-1.479-3.369-1.479c-1.597,0-2.731,0.939-3.829,1.847
		c-1.05,0.871-2.043,1.692-3.414,1.692c-0.406,0-0.769-0.086-1.119-0.206C33.937,232.501,39.658,229.869,45.987,229.803z
		 M28.864,237.751c0.605,0.282,1.278,0.475,2.062,0.475c1.844,0,3.125-1.06,4.254-1.995c1-0.828,1.865-1.544,2.989-1.544
		c1.241,0,1.76,0.476,2.479,1.134c0.975,0.893,2.199,1.977,5.339,2.105v2.636c-2.617-0.114-3.56-0.946-4.449-1.763
		c-0.795-0.727-1.617-1.479-3.369-1.479c-1.597,0-2.731,0.938-3.829,1.847c-1.05,0.871-2.043,1.692-3.414,1.692
		c-1.332,0-2.289-0.751-3.301-1.548C28.018,238.774,28.428,238.253,28.864,237.751z M26.872,240.394
		c1.077,0.846,2.299,1.782,4.055,1.782c1.844,0,3.125-1.06,4.254-1.995c1-0.828,1.865-1.544,2.989-1.544
		c1.241,0,1.76,0.476,2.479,1.134c0.975,0.893,2.199,1.977,5.339,2.105v3.377c-2.617-0.114-3.56-0.946-4.449-1.763
		c-0.795-0.727-1.617-1.479-3.369-1.479c-1.597,0-2.731,0.939-3.829,1.847c-1.05,0.87-2.043,1.692-3.414,1.692
		c-1.333,0-2.29-0.752-3.302-1.55c-0.639-0.501-1.293-1.011-2.042-1.31C25.972,241.9,26.397,241.131,26.872,240.394z
		 M25.008,243.888c0.601,0.216,1.17,0.653,1.8,1.148c1.092,0.857,2.328,1.831,4.118,1.831c1.844,0,3.125-1.06,4.254-1.994
		c1-0.828,1.865-1.544,2.989-1.544c1.241,0,1.76,0.476,2.479,1.134c0.975,0.893,2.199,1.977,5.339,2.104v3.953
		c-2.617-0.114-3.56-0.946-4.449-1.763c-0.795-0.727-1.617-1.479-3.369-1.479c-1.597,0-2.731,0.938-3.829,1.847
		c-1.05,0.87-2.043,1.692-3.414,1.692c-1.333,0-2.29-0.753-3.302-1.55c-0.988-0.775-2.007-1.578-3.364-1.578
		c-0.161,0-0.316,0.04-0.476,0.061C24.085,246.417,24.486,245.122,25.008,243.888z M23.53,249.112
		c0.242-0.066,0.486-0.105,0.73-0.105c0.9,0,1.664,0.601,2.548,1.297c1.092,0.857,2.328,1.831,4.118,1.831
		c1.844,0,3.125-1.06,4.254-1.994c1-0.828,1.865-1.545,2.989-1.545c1.241,0,1.76,0.476,2.479,1.135
		c0.975,0.892,2.199,1.976,5.339,2.104v3.13c-2.617-0.114-3.56-0.946-4.449-1.763c-0.795-0.727-1.617-1.479-3.369-1.479
		c-1.597,0-2.731,0.938-3.829,1.846c-1.05,0.871-2.043,1.692-3.414,1.692c-1.333,0-2.29-0.752-3.302-1.549
		c-0.988-0.775-2.007-1.578-3.364-1.578c-0.35,0-0.692,0.061-1.029,0.15C23.257,251.206,23.361,250.15,23.53,249.112z"/>
</g>
</svg>
