<?xml version="1.0" encoding="utf-8"?>
<!-- Generator: Adobe Illustrator 19.1.0, SVG Export Plug-In . SVG Version: 6.00 Build 0)  -->
<svg version="1.1" id="Calque_1" xmlns="http://www.w3.org/2000/svg" xmlns:xlink="http://www.w3.org/1999/xlink" x="0px" y="0px"
	 viewBox="-345 170.9 500 500" style="enable-background:new -345 170.9 500 500;" xml:space="preserve">
<style type="text/css">
	.st0{fill:#148462;}
</style>
<path class="st0" d="M-176.3,411.9C-176.3,411.9-176.3,411.9-176.3,411.9c0,0,0-0.4-0.1-1c0-0.3,0-0.4,0-0.4l0,0
	c-0.5-4.7-3.4-19.6-18.5-19.6h-39.5v0.2h-2.6V455h18.4v-20.2h23.7v0c15.6,0,18.2-15.7,18.6-20C-176.3,414-176.3,412.8-176.3,411.9z
	 M-191,413.1c0,4.1-3.9,4.1-3.9,4.1l0,0.1h-23.7v-8.9h23.7c0,0,3.9,0.1,3.9,4.1V413.1z"/>
<path class="st0" d="M-110.4,411.9c0,0-0.7-21-18.7-21h-39.5v0.2h-2.6V455h18.4v-20.2h19.7c1.2,0.5,3,1.7,3,4.1c0,3.7,0,16.2,0,16.2
	h18.3c0,0,0-15.9,0-18.8c0-2.6-1.2-5.9-4-7.7c5-6.2,5.3-15,5.3-15s-0.1,0-0.4-0.1V412C-110.5,412-110.4,411.9-110.4,411.9z
	 M-129,413.1c0,4.1-3.4,4.1-3.4,4.1l0,0.1h-20.3v-8.9h20.4c0,0,3.4,0.1,3.4,4.1V413.1z"/>
<polygon class="st0" points="19.5,409.9 37.8,409.9 37.8,454.8 56.3,454.8 56.3,409.9 74.6,409.9 74.6,391.5 19.5,391.5 "/>
<polygon class="st0" points="-106.9,391.3 -106.9,391.3 -106.9,455.1 -86.9,455.1 -86.9,455.1 -51.8,455.1 -51.8,436.4 -86.9,436.4 
	-86.9,432.2 -54.1,432.2 -54.1,415 -86.9,415 -86.9,409.7 -51.8,409.7 -51.8,391.3 -86.9,391.3 "/>
<path class="st0" d="M128.5,391.9H91.9c-7.3,0-13.2,5.9-13.2,13.2v36c0,7.3,5.9,13.2,13.2,13.2h36.7c7.3,0,13.2-5.9,13.2-13.2v-36
	C141.7,397.8,135.8,391.9,128.5,391.9z M123,434c0,2.2-1.8,4-4,4h-18.4c-2.2,0-4-1.8-4-4v-21.5c0-2.2,1.8-3.9,4-3.9h18.4
	c2.2,0,4,1.8,4,3.9V434z"/>
<path class="st0" d="M4.1,391.9h-37.9c-7.5,0-13.6,5.9-13.6,13.2v11.3c0,1.9,0.8,14.3,16.4,14.3s26.2,0,26.2,0
	c2.1,0,4.3,0.8,4.3,3.6c0,2.2-2,3.6-4.4,3.6h-20.4c-2.4,0-4.4-1.8-4.4-4h-17.6v7c0,7.3,6.1,13.2,13.6,13.2H4.1
	c7.5,0,13.6-5.9,13.6-13.2v-10.2c0-10.5-6.1-15.6-17.8-15.6c-4.4,0-20.6,0-24.8,0c-4.7,0-4.9-1.8-4.9-3.4c0-2.2,1.4-3.3,4.4-3.3
	h20.4c2.4,0,4.4,1.8,4.4,3.9l18.3-0.2V405C17.7,397.8,11.6,391.9,4.1,391.9z"/>
<path class="st0" d="M-332.2,457.1h66.8v-66.8h-66.8V457.1z M-299,446.7c-4.3,0-8.2-1.3-11.6-3.3c0.4-0.3,0.7-0.5,1.1-0.8
	c0.8-0.7,1.6-1.3,2.7-1.3c1.3,0,1.8,0.4,2.6,1c1,0.8,2.2,1.7,5.3,1.8V446.7z M-299,442.8c-2.7-0.1-3.6-0.8-4.5-1.5
	c-0.8-0.6-1.6-1.3-3.4-1.3c-1.6,0-2.6,0.8-3.5,1.6c-0.5,0.4-1,0.8-1.5,1c-0.9-0.6-1.8-1.4-2.6-2.1c0.1,0,0.3,0,0.4,0
	c1.8,0,3.1-1.1,4.3-2c1-0.8,1.9-1.5,3-1.5c1.2,0,1.8,0.5,2.5,1.1c1,0.9,2.2,2,5.3,2.1V442.8z M-299,438.9c-2.6-0.1-3.6-0.9-4.4-1.8
	c-0.8-0.7-1.6-1.5-3.4-1.5c-1.6,0-2.7,0.9-3.8,1.8c-1,0.9-2,1.7-3.4,1.7c-1,0-1.8-0.5-2.6-1c-1.3-1.6-2.3-3.3-3.2-5.2
	c0.5,0.2,1.1,0.6,1.6,1.1c1.1,0.9,2.3,1.8,4.1,1.8c1.8,0,3.1-1.1,4.3-2c1-0.8,1.9-1.5,3-1.5c1.2,0,1.8,0.5,2.5,1.1
	c1,0.9,2.2,2,5.3,2.1V438.9z M-299,434.2c-2.6-0.1-3.6-0.9-4.4-1.8c-0.8-0.7-1.6-1.5-3.4-1.5c-1.6,0-2.7,0.9-3.8,1.8
	c-1,0.9-2,1.7-3.4,1.7c-1.3,0-2.3-0.8-3.3-1.5c-0.9-0.7-1.8-1.4-3.1-1.6c-0.2-0.6-0.4-1.3-0.6-2c0.1,0,0.2,0,0.3,0
	c0.9,0,1.7,0.6,2.5,1.3c1.1,0.9,2.3,1.8,4.1,1.8c1.8,0,3.1-1.1,4.3-2c1-0.8,1.9-1.5,3-1.5c1.2,0,1.8,0.5,2.5,1.1
	c1,0.9,2.2,2,5.3,2.1V434.2z M-299,431c-2.6-0.1-3.6-0.9-4.4-1.8c-0.8-0.7-1.6-1.5-3.4-1.5c-1.6,0-2.7,0.9-3.8,1.8
	c-1,0.9-2,1.7-3.4,1.7c-1.3,0-2.3-0.8-3.3-1.5c-1-0.8-2-1.6-3.4-1.6c-0.2,0-0.4,0-0.6,0.1c-0.2-1.2-0.4-2.4-0.4-3.6
	c0.3-0.1,0.7-0.2,1-0.2c0.9,0,1.7,0.6,2.5,1.3c1.1,0.9,2.3,1.8,4.1,1.8c1.8,0,3.1-1.1,4.3-2c1-0.8,1.9-1.5,3-1.5
	c1.2,0,1.8,0.5,2.5,1.1c1,0.9,2.2,2,5.3,2.1V431z M-268.1,454.4h-26.8c14-1.7,25.1-12.8,26.8-26.8V454.4z M-268.1,393v26.8
	c-1.7-14-12.8-25.1-26.8-26.8H-268.1z M-296.9,400.8c11.8,1,21.1,10.9,21.1,22.9c0,12.1-9.3,22-21.1,22.9V400.8z M-299,400.7v6.8
	c-2.6-0.1-3.6-0.9-4.4-1.8c-0.8-0.7-1.6-1.5-3.4-1.5c-1.6,0-2.7,0.9-3.8,1.8c-1,0.9-2,1.7-3.4,1.7c-0.4,0-0.8-0.1-1.1-0.2
	C-311.1,403.4-305.3,400.8-299,400.7z M-316.1,408.6c0.6,0.3,1.3,0.5,2.1,0.5c1.8,0,3.1-1.1,4.3-2c1-0.8,1.9-1.5,3-1.5
	c1.2,0,1.8,0.5,2.5,1.1c1,0.9,2.2,2,5.3,2.1v2.6c-2.6-0.1-3.6-0.9-4.4-1.8c-0.8-0.7-1.6-1.5-3.4-1.5c-1.6,0-2.7,0.9-3.8,1.8
	c-1,0.9-2,1.7-3.4,1.7c-1.3,0-2.3-0.8-3.3-1.5C-317,409.7-316.6,409.1-316.1,408.6z M-318.1,411.3c1.1,0.8,2.3,1.8,4.1,1.8
	c1.8,0,3.1-1.1,4.3-2c1-0.8,1.9-1.5,3-1.5c1.2,0,1.8,0.5,2.5,1.1c1,0.9,2.2,2,5.3,2.1v3.4c-2.6-0.1-3.6-0.9-4.4-1.8
	c-0.8-0.7-1.6-1.5-3.4-1.5c-1.6,0-2.7,0.9-3.8,1.8c-1,0.9-2,1.7-3.4,1.7c-1.3,0-2.3-0.8-3.3-1.6c-0.6-0.5-1.3-1-2-1.3
	C-319,412.8-318.6,412-318.1,411.3z M-320,414.8c0.6,0.2,1.2,0.7,1.8,1.1c1.1,0.9,2.3,1.8,4.1,1.8c1.8,0,3.1-1.1,4.3-2
	c1-0.8,1.9-1.5,3-1.5c1.2,0,1.8,0.5,2.5,1.1c1,0.9,2.2,2,5.3,2.1v4c-2.6-0.1-3.6-0.9-4.4-1.8c-0.8-0.7-1.6-1.5-3.4-1.5
	c-1.6,0-2.7,0.9-3.8,1.8c-1,0.9-2,1.7-3.4,1.7c-1.3,0-2.3-0.8-3.3-1.6c-1-0.8-2-1.6-3.4-1.6c-0.2,0-0.3,0-0.5,0.1
	C-320.9,417.3-320.5,416-320,414.8z M-321.5,420c0.2-0.1,0.5-0.1,0.7-0.1c0.9,0,1.7,0.6,2.5,1.3c1.1,0.9,2.3,1.8,4.1,1.8
	c1.8,0,3.1-1.1,4.3-2c1-0.8,1.9-1.5,3-1.5c1.2,0,1.8,0.5,2.5,1.1c1,0.9,2.2,2,5.3,2.1v3.1c-2.6-0.1-3.6-0.9-4.4-1.8
	c-0.8-0.7-1.6-1.5-3.4-1.5c-1.6,0-2.7,0.9-3.8,1.8c-1,0.9-2,1.7-3.4,1.7c-1.3,0-2.3-0.8-3.3-1.5c-1-0.8-2-1.6-3.4-1.6
	c-0.4,0-0.7,0.1-1,0.1C-321.7,422.1-321.6,421-321.5,420z"/>
</svg>
