<?xml version="1.0" encoding="utf-8"?>
<!-- Generator: Adobe Illustrator 19.1.0, SVG Export Plug-In . SVG Version: 6.00 Build 0)  -->
<svg version="1.1" id="Calque_1" xmlns="http://www.w3.org/2000/svg" xmlns:xlink="http://www.w3.org/1999/xlink" x="0px" y="0px"
	 viewBox="-345 170.9 500 500" style="enable-background:new -345 170.9 500 500;" xml:space="preserve">
<path d="M-311.3,391.7c3.5-0.8,8.5-1.4,13.7-1.4c6.1,0,11.9,1.5,15.5,4.9c3,2.7,4.6,6.5,4.6,11.4c0,7-3.5,13-7.6,16.5
	c-4.9,4.1-12,6-19.1,6c-2.4,0-4.5-0.2-6.5-0.5l-4.8,25.3h-7.7L-311.3,391.7z M-309.5,422c2.2,0.5,4,0.7,6.3,0.7
	c10.7,0,17.8-6.6,17.8-15.5c0-7.6-5.3-10.6-12.5-10.6c-3.1,0-5.4,0.3-6.8,0.7L-309.5,422z"/>
<path d="M-263.8,391.7c3.8-0.9,9.1-1.4,13.8-1.4c6.3,0,11.7,1.5,15.1,4.6c2.9,2.5,4.7,6.1,4.7,10.4c0,9.3-7,16.1-15,18.4l-0.1,0.2
	c4.5,1.5,6.6,6.2,7,12.6c0.7,8.8,1.1,14.9,2,17.4h-8.1c-0.4-1.3-1-8-1.5-15.3c-0.5-8.7-3.7-12.3-9.9-12.3h-6.9l-5.2,27.5h-7.8
	L-263.8,391.7z M-261.5,420.4h6.9c9.8,0,16.2-6.5,16.2-14c0-6.7-5.1-9.8-12.2-9.8c-3.1,0-5.1,0.3-6.6,0.7L-261.5,420.4z"/>
<path d="M-167.6,415.6c0,11-4,23-11.5,30.5c-5.5,5.5-12.9,8.8-21.6,8.8c-16.3,0-23.9-12.3-23.9-25.7c0-11.1,4.3-23.4,12-31
	c5.4-5.2,13.2-8.5,21.2-8.5C-174.4,389.7-167.6,402.1-167.6,415.6z M-206.9,402.6c-6.1,6.1-9.6,17.2-9.6,26c0,10.3,4.6,19.8,17,19.8
	c5.3,0,10.5-2.3,14.4-6.3c5.9-6,9.4-17.3,9.4-26.1c0-9-2.9-19.7-16.8-19.7C-198.1,396.3-203,398.7-206.9,402.6z"/>
<path d="M-120,451.8c-3.6,1.6-9.3,3-16.4,3c-15.9,0-25.6-10-25.6-26.1c0-11.9,4.8-23.2,13.4-30.4c6.6-5.5,14.6-8.4,23.9-8.4
	c6.9,0,12,1.8,13.7,3l-2.5,6.3c-2.3-1.4-6.8-2.5-12.5-2.5c-6.6,0-13.2,2.5-18.1,7c-5.9,5.5-9.6,14.4-9.6,24
	c0,11.3,5.1,20.6,19.2,20.6c4.8,0,10-0.9,13.5-2.7L-120,451.8z"/>
<path d="M-91.9,390.8l-5.1,26.6h29l5.1-26.6h7.8l-12,63.1h-7.8l5.5-29.7h-28.9l-5.6,29.7h-7.8l12-63.1L-91.9,390.8L-91.9,390.8z"/>
<path d="M-33.3,390.8l-12,63.1h-7.8l12-63.1L-33.3,390.8L-33.3,390.8z"/>
<path d="M-31.1,453.9l12-63.1h8.5l14.4,35.8c2.8,7.1,4.2,12.2,5.5,17.6l0.2-0.1c0.4-5.7,1-11,2.7-19.8l6.4-33.5h7.3l-12,63.1H6.2
	l-14.4-35.7c-3-7.8-4.4-12.2-5.8-18.2l-0.3,0.1c-0.7,5.9-1.7,12.2-3.3,20.8l-6.3,33H-31.1z"/>
<path d="M86.7,415.6c0,11-4,23-11.5,30.5c-5.5,5.5-12.9,8.8-21.6,8.8c-16.3,0-23.9-12.3-23.9-25.7c0-11.1,4.3-23.4,12-31
	c5.4-5.2,13.2-8.5,21.2-8.5C79.8,389.7,86.7,402.1,86.7,415.6z M47.3,402.6c-6.1,6.1-9.6,17.2-9.6,26c0,10.3,4.6,19.8,17,19.8
	c5.3,0,10.5-2.3,14.4-6.3c5.9-6,9.4-17.3,9.4-26.1c0-9-2.9-19.7-16.8-19.7C56.1,396.3,51.3,398.7,47.3,402.6z"/>
<path d="M102.5,391.7c3.8-0.9,9.1-1.4,13.8-1.4c6.3,0,11.7,1.5,15.1,4.6c2.9,2.5,4.7,6.1,4.7,10.4c0,9.3-7,16.1-15,18.4l-0.1,0.2
	c4.5,1.5,6.6,6.2,7,12.6c0.7,8.8,1.1,14.9,2,17.4h-8.1c-0.4-1.3-1-8-1.5-15.3c-0.5-8.7-3.7-12.3-9.9-12.3h-6.9l-5.2,27.5h-7.8
	L102.5,391.7z M104.7,420.4h6.9c9.8,0,16.2-6.5,16.2-14c0-6.7-5.1-9.8-12.2-9.8c-3.1,0-5.1,0.3-6.6,0.7L104.7,420.4z"/>
</svg>
