<?xml version="1.0" encoding="utf-8"?>
<!-- Generator: Adobe Illustrator 21.0.2, SVG Export Plug-In . SVG Version: 6.00 Build 0)  -->
<svg version="1.1" id="Calque_1" xmlns="http://www.w3.org/2000/svg" xmlns:xlink="http://www.w3.org/1999/xlink" x="0px" y="0px"
	 viewBox="0 0 500 126" style="enable-background:new 0 0 500 126;" xml:space="preserve">
<path d="M33.7,33.8c3.5-0.8,8.5-1.4,13.7-1.4c6.1,0,11.9,1.5,15.5,4.9c3,2.7,4.6,6.5,4.6,11.4c0,7-3.5,13-7.6,16.5
	c-4.9,4.1-12,6-19.1,6c-2.4,0-4.5-0.2-6.5-0.5L29.5,96h-7.7L33.7,33.8z M35.5,64.1c2.2,0.5,4,0.7,6.3,0.7c10.7,0,17.8-6.6,17.8-15.5
	c0-7.6-5.3-10.6-12.5-10.6c-3.1,0-5.4,0.3-6.8,0.7L35.5,64.1z"/>
<path d="M81.2,33.8c3.8-0.9,9.1-1.4,13.8-1.4c6.3,0,11.7,1.5,15.1,4.6c2.9,2.5,4.7,6.1,4.7,10.4c0,9.3-7,16.1-15,18.4L99.7,66
	c4.5,1.5,6.6,6.2,7,12.6c0.7,8.8,1.1,14.9,2,17.4h-8.1c-0.4-1.3-1-8-1.5-15.3c-0.5-8.7-3.7-12.3-9.9-12.3h-6.9l-5.2,27.5h-7.8
	L81.2,33.8z M83.5,62.5h6.9c9.8,0,16.2-6.5,16.2-14c0-6.7-5.1-9.8-12.2-9.8c-3.1,0-5.1,0.3-6.6,0.7L83.5,62.5z"/>
<path d="M177.4,57.7c0,11-4,23-11.5,30.5c-5.5,5.5-12.9,8.8-21.6,8.8c-16.3,0-23.9-12.3-23.9-25.7c0-11.1,4.3-23.4,12-31
	c5.4-5.2,13.2-8.5,21.2-8.5C170.6,31.8,177.4,44.2,177.4,57.7z M138.1,44.7c-6.1,6.1-9.6,17.2-9.6,26c0,10.3,4.6,19.8,17,19.8
	c5.3,0,10.5-2.3,14.4-6.3c5.9-6,9.4-17.3,9.4-26.1c0-9-2.9-19.7-16.8-19.7C146.9,38.4,142,40.8,138.1,44.7z"/>
<path d="M225,93.9c-3.6,1.6-9.3,3-16.4,3c-15.9,0-25.6-10-25.6-26.1c0-11.9,4.8-23.2,13.4-30.4C203,34.9,211,32,220.3,32
	c6.9,0,12,1.8,13.7,3l-2.5,6.3c-2.3-1.4-6.8-2.5-12.5-2.5c-6.6,0-13.2,2.5-18.1,7c-5.9,5.5-9.6,14.4-9.6,24
	c0,11.3,5.1,20.6,19.2,20.6c4.8,0,10-0.9,13.5-2.7L225,93.9z"/>
<path d="M253.1,32.9L248,59.5h29l5.1-26.6h7.8l-12,63.1h-7.8l5.5-29.7h-28.9L241.1,96h-7.8l12-63.1H253.1L253.1,32.9z"/>
<path d="M311.7,32.9l-12,63.1h-7.8l12-63.1H311.7L311.7,32.9z"/>
<path d="M313.9,96l12-63.1h8.5l14.4,35.8c2.8,7.1,4.2,12.2,5.5,17.6l0.2-0.1c0.4-5.7,1-11,2.7-19.8l6.4-33.5h7.3l-12,63.1h-7.7
	l-14.4-35.7c-3-7.8-4.4-12.2-5.8-18.2l-0.3,0.1c-0.7,5.9-1.7,12.2-3.3,20.8l-6.3,33L313.9,96L313.9,96z"/>
<path d="M431.7,57.7c0,11-4,23-11.5,30.5c-5.5,5.5-12.9,8.8-21.6,8.8c-16.3,0-23.9-12.3-23.9-25.7c0-11.1,4.3-23.4,12-31
	c5.4-5.2,13.2-8.5,21.2-8.5C424.8,31.8,431.7,44.2,431.7,57.7z M392.3,44.7c-6.1,6.1-9.6,17.2-9.6,26c0,10.3,4.6,19.8,17,19.8
	c5.3,0,10.5-2.3,14.4-6.3c5.9-6,9.4-17.3,9.4-26.1c0-9-2.9-19.7-16.8-19.7C401.1,38.4,396.3,40.8,392.3,44.7z"/>
<path d="M447.5,33.8c3.8-0.9,9.1-1.4,13.8-1.4c6.3,0,11.7,1.5,15.1,4.6c2.9,2.5,4.7,6.1,4.7,10.4c0,9.3-7,16.1-15,18.4L466,66
	c4.5,1.5,6.6,6.2,7,12.6c0.7,8.8,1.1,14.9,2,17.4h-8.1c-0.4-1.3-1-8-1.5-15.3c-0.5-8.7-3.7-12.3-9.9-12.3h-6.9l-5.2,27.5h-7.8
	L447.5,33.8z M449.7,62.5h6.9c9.8,0,16.2-6.5,16.2-14c0-6.7-5.1-9.8-12.2-9.8c-3.1,0-5.1,0.3-6.6,0.7L449.7,62.5z"/>
</svg>
