<?xml version="1.0" encoding="utf-8"?>
<!-- Generator: Adobe Illustrator 21.0.2, SVG Export Plug-In . SVG Version: 6.00 Build 0)  -->
<svg version="1.1" id="Calque_1" xmlns="http://www.w3.org/2000/svg" xmlns:xlink="http://www.w3.org/1999/xlink" x="0px" y="0px"
	 viewBox="0 0 500 366" style="enable-background:new 0 0 500 366;" xml:space="preserve">
<style type="text/css">
	.st0{fill:#0087C4;}
	.st1{fill:#323230;}
	.st2{fill:#1D1D1B;}
	.st3{fill:#FFFFFF;}
</style>
<path class="st0" d="M43.8,115.7c12.2-0.2,404.4,0,414.7,0c10.3,0,18.1,5.9,18.1,13.2c0,7.3,0.3,97.7,0,105.3
	c-0.3,7.6-3.7,14-12.7,14.2s-415.9,0-423.5,0c-7.6,0-14.7-9.1-14.7-16.2s-0.2-98.6,0-103.8C26,123.3,31.6,116,43.8,115.7z"/>
<path class="st1" d="M351.2,251.4c-61.9,0-155.4,0-294.3-0.1H40.4c-7.9,0-17.6-8.8-17.6-19.1c0-1.4,0-5.8,0-12.2
	c-0.1-43.3-0.1-88,0-91.8c0.3-7.3,7.8-15.3,21-15.5c7.1-0.1,139.5-0.1,393.5,0c12.3,0,19.9,0,21.2,0c6.7,0,12.8,2.3,16.7,6.2
	c2.8,2.8,4.3,6.3,4.3,10c0,1.4,0,5.9,0,12.3c0.1,28.2,0.2,86.9,0,93c-0.4,10.6-6,16.8-15.6,17C461.8,251.4,436.3,251.4,351.2,251.4z
	 M43.9,118.7c-11.2,0.2-15.1,6.8-15.2,9.9c-0.2,4.1-0.1,65.3,0,91.5c0,6.3,0,10.8,0,12.2c0,5.5,5.9,13.2,11.7,13.2h16.5
	c329.7,0.2,403.2,0.1,406.9,0c6.3-0.2,9.6-4,9.9-11.4c0.2-6.1,0.1-66.9,0-92.8c0-6.4,0-10.9,0-12.3c0-2.6-1.4-4.6-2.6-5.8
	c-2.8-2.9-7.4-4.5-12.6-4.5c-1.3,0-8.9,0-21.2,0C183.3,118.5,51,118.5,43.9,118.7L43.9,118.7z"/>
<polygon class="st2" points="314.6,88.1 345.2,88.1 357.8,5.8 156.2,116.7 340.9,116.3 344.1,95.4 314.8,95.4 "/>
<polygon class="st2" points="362.5,88.1 345.2,88.1 344.1,95.4 362.5,95.4 "/>
<polygon class="st2" points="346.4,245.6 166.1,245.6 161.7,267.3 189.2,267.3 189.2,274.6 160.2,274.6 143,358.3 "/>
<polygon class="st2" points="141.3,267.3 141.5,274.6 160.2,274.6 161.7,267.3 "/>
<path class="st3" d="M97.3,159.1c-10.3,0-16.5-6.4-16.5-14.6c0-8.6,6.7-15,17-15c10.7,0,16.6,6.6,16.6,14.5
	C114.5,153.4,107.6,159.1,97.3,159.1L97.3,159.1z M97.7,154c5.3,0,8.4-4.1,8.4-9.7c0-5.1-3-9.6-8.4-9.6c-5.5,0-8.5,4.3-8.5,9.7
	S92.4,154,97.7,154L97.7,154L97.7,154z"/>
<path class="st3" d="M137.9,130v16.4c0,5,2.3,7.5,6.3,7.5c4.2,0,6.4-2.4,6.4-7.5V130h7.9v16c0,8.8-5.5,13-14.6,13
	c-8.8,0-14-4-14-13.1v-16h8V130z"/>
<path class="st3" d="M182.6,135.4h-9.4V130h26.9v5.4h-9.5v23.2h-7.9v-23.2H182.6z"/>
<path class="st3" d="M222.6,130v28.6h-7.9V130H222.6z"/>
<path class="st3" d="M239.8,130h7.9v23.2h13.9v5.4h-21.8V130L239.8,130z"/>
<path class="st3" d="M276.7,130h7.9v23.2h13.9v5.4h-21.8V130z"/>
<path class="st3" d="M321.9,151.3l-2.4,7.3h-8.2L322,130h10.3l10.9,28.6h-8.5l-2.7-7.3H321.9z M330.8,146.4l-2.2-6.1
	c-0.6-1.7-1.2-3.9-1.7-5.5h-0.2c-0.5,1.7-1,3.9-1.5,5.5l-2.1,6.1H330.8z"/>
<path class="st3" d="M386.2,157.3c-2.5,0.7-7.1,1.6-11.7,1.6c-6.4,0-11-1.3-14.2-3.8c-3.2-2.5-4.9-6.2-4.9-10.4
	c0-9.5,8.5-14.9,20-14.9c4.5,0,8,0.7,9.7,1.4l-1.7,5.2c-1.9-0.7-4.3-1.2-8.1-1.2c-6.6,0-11.6,3.1-11.6,9.3c0,5.9,4.5,9.4,11,9.4
	c1.8,0,3.2-0.2,3.8-0.4v-6h-5.4v-5h13L386.2,157.3L386.2,157.3z"/>
<path class="st3" d="M423.5,146.5h-12.9v6.8H425v5.3h-22.2V130h21.5v5.3h-13.7v5.9h12.9V146.5z"/>
<path class="st3" d="M78.8,169.6v-3.5c5.1,0.4,9.1,0.5,11.9,0.5l9.2-0.2c2.7,0,4.9,0.5,6.5,1.5s2.9,2.9,3.9,5.6s1.5,5.9,1.5,9.8
	c0,6.2-1.2,11.2-3.6,15.2c-2.4,4-5.8,6-10,6c-1.3,0-3-0.3-4.9-0.8c0.1,8.5,0.2,13.5,0.2,14.8l-0.2,3.5c0,3.1,0.2,4.9,0.5,5.5
	c0.5,1,2.2,1.8,5.2,2.4c0.3,0.1,0.8,0.2,1.5,0.3v3.5c-5.3-0.4-9.1-0.5-11.5-0.5c-2.7,0-6.2,0.2-10.4,0.5v-3.5c3.2-1,4.9-1.8,5.3-2.3
	c0.4-0.6,0.6-1.6,0.7-3.2s0.2-10.2,0.3-25.8v-14.4c0-5.8,0-9.2-0.2-10.2c-0.1-1-0.3-1.7-0.7-2.2c-0.5-0.6-1.8-1.2-4-1.9
	C79.8,169.9,79.4,169.8,78.8,169.6z M93.2,198.2c1.1,0.2,2.1,0.4,3,0.4c2.2,0,3.9-1.1,5.1-3.4c1.2-2.3,1.8-5.7,1.8-10.5
	c0-4.2-0.6-7.4-1.8-9.5c-1.2-2.2-2.9-3.2-5.1-3.2c-0.8,0-1.8,0.2-3,0.5V198.2z"/>
<path class="st3" d="M119.7,169.5v-3.4c6.3,0.4,10,0.5,11.1,0.5c1.2,0,3,0,5.2-0.1c2.3-0.1,4-0.1,5.1-0.1c2.8,0,4.9,0.6,6.5,1.8
	c1.5,1.2,2.8,3.1,3.7,5.7s1.4,5.6,1.4,8.8c0,2.8-0.3,5.4-1,8s-1.6,4.7-2.7,6.5c-0.7,1.2-1.9,2.4-3.5,3.8c1.3,3.7,3.1,8.9,5.5,15.7
	c1.8,5,2.9,8,3.5,8.9c0.6,1,1.1,1.7,1.7,2.3c1,0.8,2.7,1.5,5.2,2.2v3.5c-3.1-0.4-5.6-0.5-7.6-0.5s-4.6,0.2-7.6,0.5
	c-2.2-8.9-5.1-19-8.5-30.5c-1.1-0.1-2.3-0.2-3.5-0.4l0.2,19.7c0,2.4,0.1,3.9,0.4,4.5c0.2,0.6,0.5,1,0.9,1.3c0.3,0.2,1.9,0.8,4.9,1.9
	v3.5c-4.4-0.4-7.9-0.5-10.5-0.5s-6.1,0.2-10.4,0.5v-3.5c3.2-1,5-1.7,5.5-2.3c0.4-0.5,0.7-1.6,0.8-3.2c0.1-0.9,0.2-9,0.2-24.5v-14.2
	c0-6.7-0.1-10.7-0.3-12.1c-0.1-1-0.4-1.7-0.8-2.2c-0.4-0.5-1.7-1.1-4-1.7L119.7,169.5z M134.4,197.4c0.9,0.1,1.6,0.1,2,0.1
	c2.6,0,4.5-1.1,5.7-3.2s1.8-5.3,1.8-9.6c0-4.1-0.6-7.2-1.7-9.3c-1.1-2.1-2.7-3.2-4.7-3.2c-0.8,0-1.9,0.1-3.1,0.4V197.4z"/>
<path class="st3" d="M166.2,200.9c0-10.9,2-19.7,5.8-26.3c3.9-6.7,9.1-10,15.6-10c6.2,0,11,3,14.5,9s5.3,14,5.3,24
	c0,6.4-0.7,12.2-2.1,17.5c-1.1,4.2-2.5,7.7-4.2,10.5c-1.7,2.9-3.5,5-5.3,6.4c-2.7,2.1-6,3.1-9.8,3.1c-6.3,0-11.2-3-14.7-9
	C167.9,220.1,166.2,211.7,166.2,200.9z M175.7,198.5c0,11.5,1.2,20,3.7,25.4c1.8,4.1,4.4,6.1,7.8,6.1c2.3,0,4.3-1,5.9-3.1
	c1.6-2.1,2.8-5.4,3.6-9.9s1.2-9.8,1.2-15.8c0-4.6-0.3-9-0.7-13.2c-0.5-4.2-1.1-7.5-2-9.9c-0.8-2.4-1.9-4.3-3.4-5.7
	c-1.4-1.5-3.1-2.2-5.1-2.2c-2.2,0-4.2,1.1-5.9,3.2s-3,5.4-3.9,9.9C176.2,187.7,175.7,192.8,175.7,198.5z"/>
<path class="st3" d="M263.3,198.6v3.5c-2.5,0.8-4.2,1.5-4.9,2c-0.3,0.3-0.6,0.8-0.8,1.6c-0.2,0.8-0.2,3.2-0.2,7.3
	c0,6.5,0.1,12.3,0.2,17.3c-1.3,0.4-2.6,0.8-4.1,1.4c-3.9,1.5-6.7,2.4-8.5,2.8c-1.7,0.4-3.6,0.6-5.6,0.6c-4.6,0-8.3-1-10.9-3
	c-3.4-2.5-5.9-6.4-7.7-11.6s-2.7-11.5-2.7-18.7c0-12.9,2.8-22.8,8.3-29.7c4-5,9.2-7.4,15.7-7.4c4.4,0,9.3,1.1,14.8,3.3
	c0,1.9,0,3.4,0,4.5c0,3.7,0.1,9,0.2,15.9h-2.8c-0.8-5.3-1.6-9-2.4-11c-0.8-2.1-2-3.7-3.7-4.9c-1.7-1.2-3.7-1.8-6.1-1.8
	c-3.1,0-5.8,1.1-7.9,3.3c-2.1,2.2-3.7,5.6-4.9,10.2s-1.7,9.9-1.7,15.9c0,9.5,1.3,16.8,3.9,21.7c2.6,4.9,6,7.3,10.3,7.3
	c2.1,0,4.5-0.8,6.9-2.5v-14.7c0-3.2-0.1-5.3-0.3-6.2c-0.1-0.6-0.4-1-0.8-1.4s-1.6-0.9-3.6-1.6c-0.2-0.1-0.6-0.2-1-0.4v-3.5
	c4.3,0.4,7.5,0.5,9.7,0.5C254.4,199.1,257.9,199,263.3,198.6z"/>
<path class="st3" d="M270.2,169.5v-3.4c6.3,0.4,10,0.5,11.1,0.5c1.2,0,3,0,5.3-0.1c2.3-0.1,4-0.1,5-0.1c2.8,0,4.9,0.6,6.5,1.8
	c1.5,1.2,2.8,3.1,3.7,5.7c0.9,2.6,1.4,5.6,1.4,8.8c0,2.8-0.3,5.4-1,8c-0.7,2.6-1.6,4.7-2.7,6.5c-0.7,1.2-1.9,2.4-3.5,3.8
	c1.2,3.7,3.1,8.9,5.5,15.7c1.8,5,2.9,8,3.5,8.9c0.5,1,1.1,1.7,1.7,2.3c1,0.8,2.7,1.5,5.2,2.2v3.5c-3.1-0.4-5.6-0.5-7.6-0.5
	s-4.6,0.2-7.6,0.5c-2.2-8.9-5.1-19-8.5-30.5c-1.1-0.1-2.3-0.2-3.5-0.4l0.2,19.7c0,2.4,0.1,3.9,0.3,4.5c0.2,0.6,0.5,1,0.8,1.3
	c0.3,0.2,1.9,0.8,4.9,1.9v3.5c-4.4-0.4-7.9-0.5-10.5-0.5s-6.1,0.2-10.4,0.5v-3.5c3.2-1,5-1.7,5.5-2.3s0.7-1.6,0.8-3.2
	c0.1-0.9,0.1-9,0.2-24.5v-14.2c0-6.7-0.1-10.7-0.3-12.1c-0.1-1-0.4-1.7-0.8-2.2s-1.7-1.1-4-1.7L270.2,169.5z M284.9,197.4
	c0.9,0.1,1.6,0.1,2,0.1c2.6,0,4.5-1.1,5.7-3.2c1.2-2.1,1.8-5.3,1.8-9.6c0-4.1-0.6-7.2-1.7-9.3c-1.1-2.1-2.7-3.2-4.7-3.2
	c-0.8,0-1.8,0.1-3.1,0.4V197.4z"/>
<path class="st3" d="M317.3,169.6v-3.5c4.4,0.4,9.3,0.5,14.5,0.5c6.1,0,12.3-0.2,18.7-0.5c0.1,6.5,0.3,12.2,0.7,17.1h-2.3
	c-0.2-1-0.4-1.7-0.5-2.3c-0.9-4.4-1.6-7-2.1-7.7s-1.7-1.1-3.5-1.1h-10.6c-0.1,5.4-0.2,13.1-0.2,23.3l4.8,0.4c2.5,0,4-0.4,4.6-1.3
	s1.2-3.8,1.8-8.8h2.4c-0.1,4.7-0.2,8.8-0.2,12.4c0,3.4,0.1,7.7,0.2,12.8h-2.4c-0.5-5.1-1-8-1.5-8.8s-1.9-1.1-4.3-1.1H332v26.6h11
	c1.2,0,2-0.1,2.4-0.4c0.6-0.4,1.2-1.2,1.8-2.2c1.1-2.2,2.5-5.6,4-10.2h2.4c-1.1,5.2-2.2,11.5-3.5,18.9c-6.3-0.4-12.9-0.5-19.8-0.5
	c-3.1,0-7.5,0.2-13.1,0.5v-3.5c3-1,4.7-1.7,5.2-2.3c0.6-0.7,0.9-2.6,0.9-5.5v-1.6l0.2-18.9v-15.3v-7.1c0-3.4-0.1-5.5-0.3-6.3
	c-0.2-0.8-0.6-1.5-1.2-2C321.4,170.8,319.9,170.2,317.3,169.6z"/>
<path class="st3" d="M388.4,185.4h-2.8c-0.6-6-1.5-10.1-2.8-12.1c-1.2-2.1-2.9-3.1-5.1-3.1c-1.9,0-3.4,0.9-4.5,2.5
	c-1.1,1.7-1.6,3.9-1.6,6.5c0,2.4,0.5,4.5,1.5,6.4s3.3,4.3,7,7.2c3.7,2.9,6.2,5.9,7.7,9c1.5,3.2,2.2,7.2,2.2,11.9
	c0,5.7-1.3,10.7-3.8,15s-6.6,6.4-12.1,6.4c-2,0-3.9-0.3-5.7-0.8c-1.4-0.3-3-1.1-5-2.2c0.3-5.6,0.5-11,0.5-16.5v-3.2h2.8
	c0.7,6.3,1.6,10.6,2.6,12.7c1.4,2.9,3.3,4.4,5.7,4.4c1.9,0,3.5-1,4.6-3c1.2-2,1.8-4.6,1.8-7.7c0-2-0.3-3.7-0.7-5.3
	c-0.5-1.5-1.2-2.9-2.2-4.2c-1-1.2-2.7-2.9-5.3-4.9c-3.9-3.2-6.5-6.3-7.8-9.2c-1.3-2.9-2-6.4-2-10.4c0-5.9,1.3-10.7,3.8-14.6
	s6.1-5.8,10.9-5.8c3.2,0,6.6,1,10.3,3.1c-0.1,5-0.2,8.4-0.2,10.4C388.2,180.3,388.3,182.8,388.4,185.4z"/>
<path class="st3" d="M425.5,185.4h-2.8c-0.6-6-1.6-10.1-2.8-12.1c-1.2-2.1-2.9-3.1-5.1-3.1c-1.9,0-3.4,0.9-4.5,2.5
	c-1.1,1.7-1.6,3.9-1.6,6.5c0,2.4,0.5,4.5,1.5,6.4s3.3,4.3,7,7.2c3.7,2.9,6.3,5.9,7.7,9c1.5,3.2,2.2,7.2,2.2,11.9
	c0,5.7-1.3,10.7-3.8,15s-6.6,6.4-12.1,6.4c-2,0-3.9-0.3-5.7-0.8c-1.4-0.3-3-1.1-5-2.2c0.3-5.6,0.5-11,0.5-16.5v-3.2h2.8
	c0.7,6.3,1.5,10.6,2.6,12.7c1.4,2.9,3.3,4.4,5.7,4.4c2,0,3.5-1,4.7-3c1.2-2,1.8-4.6,1.8-7.7c0-2-0.3-3.7-0.7-5.3
	c-0.5-1.5-1.2-2.9-2.2-4.2c-1-1.2-2.7-2.9-5.3-4.9c-3.9-3.2-6.5-6.3-7.8-9.2c-1.3-2.9-2-6.4-2-10.4c0-5.9,1.3-10.7,3.8-14.6
	s6.1-5.8,10.9-5.8c3.2,0,6.6,1,10.3,3.1c-0.1,5-0.2,8.4-0.2,10.4C425.3,180.3,425.4,182.8,425.5,185.4z"/>
</svg>
