<?xml version="1.0" encoding="utf-8"?>
<!-- Generator: Adobe Illustrator 19.1.0, SVG Export Plug-In . SVG Version: 6.00 Build 0)  -->
<svg version="1.1" id="Calque_1" xmlns="http://www.w3.org/2000/svg" xmlns:xlink="http://www.w3.org/1999/xlink" x="0px" y="0px"
	 viewBox="-345 170.9 500 500" style="enable-background:new -345 170.9 500 500;" xml:space="preserve">
<style type="text/css">
	.st0{fill:#0087C4;}
	.st1{fill:#323230;}
	.st2{fill:#1D1D1B;}
	.st3{fill:#FFFFFF;}
</style>
<g>
	<path class="st0" d="M-301.2,353.6c12.2-0.2,404.4,0,414.7,0c10.3,0,18.1,5.9,18.1,13.2c0,7.3,0.3,97.7,0,105.3
		c-0.3,7.6-3.7,14-12.7,14.2c-9,0.2-415.9,0-423.5,0c-7.6,0-14.7-9.1-14.7-16.2s-0.2-98.6,0-103.8
		C-319,361.2-313.4,353.9-301.2,353.6z"/>
	<path class="st1" d="M6.2,489.3c-61.9,0-155.4,0-294.3-0.1l-16.5,0c-7.9,0-17.6-8.8-17.6-19.1c0-1.4,0-5.8,0-12.2
		c-0.1-43.3-0.1-88,0-91.8c0.3-7.3,7.8-15.3,21-15.5c7.1-0.1,139.5-0.1,393.5,0c12.3,0,19.9,0,21.2,0c6.7,0,12.8,2.3,16.7,6.2
		c2.8,2.8,4.3,6.3,4.3,10c0,1.4,0,5.9,0,12.3c0.1,28.2,0.2,86.9,0,93c-0.4,10.6-6,16.8-15.6,17C116.8,489.3,91.3,489.3,6.2,489.3z
		 M-301.1,356.6c-11.2,0.2-15.1,6.8-15.2,9.9c-0.2,4.1-0.1,65.3,0,91.5c0,6.3,0,10.8,0,12.2c0,5.5,5.9,13.2,11.7,13.2l16.5,0
		c329.7,0.2,403.2,0.1,406.9,0c6.3-0.2,9.6-4,9.9-11.4c0.2-6.1,0.1-66.9,0-92.8c0-6.4,0-10.9,0-12.3c0-2.6-1.4-4.6-2.6-5.8
		c-2.8-2.9-7.4-4.5-12.6-4.5c-1.3,0-8.9,0-21.2,0C-161.7,356.4-294,356.4-301.1,356.6L-301.1,356.6z"/>
</g>
<polygon class="st2" points="-30.4,326 0.2,326 12.8,243.7 -188.8,354.6 -4.1,354.2 -0.9,333.3 -30.2,333.3 "/>
<polygon class="st2" points="17.5,326 0.2,326 -0.9,333.3 17.5,333.3 "/>
<polygon class="st2" points="1.4,483.5 -178.9,483.5 -183.3,505.2 -155.8,505.2 -155.8,512.5 -184.8,512.5 -202,596.2 "/>
<polygon class="st2" points="-203.7,505.2 -203.5,512.5 -184.8,512.5 -183.3,505.2 "/>
<path class="st3" d="M-247.7,397c-10.3,0-16.5-6.4-16.5-14.6c0-8.6,6.7-15,17-15c10.7,0,16.6,6.6,16.6,14.5
	C-230.5,391.3-237.4,397-247.7,397L-247.7,397z M-247.3,391.9c5.3,0,8.4-4.1,8.4-9.7c0-5.1-3-9.6-8.4-9.6c-5.5,0-8.5,4.3-8.5,9.7
	C-255.8,387.7-252.6,391.9-247.3,391.9L-247.3,391.9L-247.3,391.9z"/>
<path class="st3" d="M-207.1,367.9v16.4c0,5,2.3,7.5,6.3,7.5c4.2,0,6.4-2.4,6.4-7.5v-16.4h7.9v16c0,8.8-5.5,13-14.6,13
	c-8.8,0-14-4-14-13.1v-16H-207.1z"/>
<path class="st3" d="M-162.4,373.3h-9.4v-5.4h26.9v5.4h-9.5v23.2h-7.9V373.3z"/>
<path class="st3" d="M-122.4,367.9v28.6h-7.9v-28.6H-122.4z"/>
<path class="st3" d="M-105.2,367.9h7.9v23.2h13.9v5.4h-21.8L-105.2,367.9L-105.2,367.9z"/>
<path class="st3" d="M-68.3,367.9h7.9v23.2h13.9v5.4h-21.8V367.9z"/>
<path class="st3" d="M-23.1,389.2l-2.4,7.3h-8.2l10.7-28.6h10.3l10.9,28.6h-8.5l-2.7-7.3H-23.1z M-14.2,384.3l-2.2-6.1
	c-0.6-1.7-1.2-3.9-1.7-5.5h-0.2c-0.5,1.7-1,3.9-1.5,5.5l-2.1,6.1H-14.2z"/>
<path class="st3" d="M41.2,395.2c-2.5,0.7-7.1,1.6-11.7,1.6c-6.4,0-11-1.3-14.2-3.8c-3.2-2.5-4.9-6.2-4.9-10.4
	c0-9.5,8.5-14.9,20-14.9c4.5,0,8,0.7,9.7,1.4l-1.7,5.2c-1.9-0.7-4.3-1.2-8.1-1.2c-6.6,0-11.6,3.1-11.6,9.3c0,5.9,4.5,9.4,11,9.4
	c1.8,0,3.2-0.2,3.8-0.4v-6h-5.4v-5h13L41.2,395.2L41.2,395.2z"/>
<path class="st3" d="M78.5,384.4H65.6v6.8H80v5.3H57.8v-28.6h21.5v5.3H65.6v5.9h12.9V384.4z"/>
<path class="st3" d="M-266.2,407.5V404c5.1,0.4,9.1,0.5,11.9,0.5l9.2-0.2c2.7,0,4.9,0.5,6.5,1.5c1.6,1,2.9,2.9,3.9,5.6
	c1,2.7,1.5,5.9,1.5,9.8c0,6.2-1.2,11.2-3.6,15.2c-2.4,4-5.8,6-10,6c-1.3,0-3-0.3-4.9-0.8c0.1,8.5,0.2,13.5,0.2,14.8l-0.2,3.5
	c0,3.1,0.2,4.9,0.5,5.5c0.5,1,2.2,1.8,5.2,2.4c0.3,0.1,0.8,0.2,1.5,0.3v3.5c-5.3-0.4-9.1-0.5-11.5-0.5c-2.7,0-6.2,0.2-10.4,0.5v-3.5
	c3.2-1,4.9-1.8,5.3-2.3c0.4-0.6,0.6-1.6,0.7-3.2c0.1-1.6,0.2-10.2,0.3-25.8v-14.4c0-5.8,0-9.2-0.2-10.2c-0.1-1-0.3-1.7-0.7-2.2
	c-0.5-0.6-1.8-1.2-4-1.9C-265.2,407.8-265.6,407.7-266.2,407.5z M-251.8,436.1c1.1,0.2,2.1,0.4,3,0.4c2.2,0,3.9-1.1,5.1-3.4
	c1.2-2.3,1.8-5.7,1.8-10.5c0-4.2-0.6-7.4-1.8-9.5c-1.2-2.2-2.9-3.2-5.1-3.2c-0.8,0-1.8,0.2-3,0.5V436.1z"/>
<path class="st3" d="M-225.3,407.4V404c6.3,0.4,10,0.5,11.1,0.5c1.2,0,3,0,5.2-0.1c2.3-0.1,4-0.1,5.1-0.1c2.8,0,4.9,0.6,6.5,1.8
	c1.5,1.2,2.8,3.1,3.7,5.7c0.9,2.6,1.4,5.6,1.4,8.8c0,2.8-0.3,5.4-1,8c-0.7,2.6-1.6,4.7-2.7,6.5c-0.7,1.2-1.9,2.4-3.5,3.8
	c1.3,3.7,3.1,8.9,5.5,15.7c1.8,5,2.9,8,3.5,8.9c0.6,1,1.1,1.7,1.7,2.3c1,0.8,2.7,1.5,5.2,2.2v3.5c-3.1-0.4-5.6-0.5-7.6-0.5
	c-2,0-4.6,0.2-7.6,0.5c-2.2-8.9-5.1-19-8.5-30.5c-1.1-0.1-2.3-0.2-3.5-0.4l0.2,19.7c0,2.4,0.1,3.9,0.4,4.5c0.2,0.6,0.5,1,0.9,1.3
	c0.3,0.2,1.9,0.8,4.9,1.9v3.5c-4.4-0.4-7.9-0.5-10.5-0.5c-2.6,0-6.1,0.2-10.4,0.5v-3.5c3.2-1,5-1.7,5.5-2.3c0.4-0.5,0.7-1.6,0.8-3.2
	c0.1-0.9,0.2-9,0.2-24.5l0-14.2c0-6.7-0.1-10.7-0.3-12.1c-0.1-1-0.4-1.7-0.8-2.2c-0.4-0.5-1.7-1.1-4-1.7L-225.3,407.4z
	 M-210.6,435.3c0.9,0.1,1.6,0.1,2,0.1c2.6,0,4.5-1.1,5.7-3.2s1.8-5.3,1.8-9.6c0-4.1-0.6-7.2-1.7-9.3c-1.1-2.1-2.7-3.2-4.7-3.2
	c-0.8,0-1.9,0.1-3.1,0.4L-210.6,435.3z"/>
<path class="st3" d="M-178.8,438.8c0-10.9,2-19.7,5.8-26.3c3.9-6.7,9.1-10,15.6-10c6.2,0,11,3,14.5,9c3.5,6,5.3,14,5.3,24
	c0,6.4-0.7,12.2-2.1,17.5c-1.1,4.2-2.5,7.7-4.2,10.5c-1.7,2.9-3.5,5-5.3,6.4c-2.7,2.1-6,3.1-9.8,3.1c-6.3,0-11.2-3-14.7-9
	C-177.1,458-178.8,449.6-178.8,438.8z M-169.3,436.4c0,11.5,1.2,20,3.7,25.4c1.8,4.1,4.4,6.1,7.8,6.1c2.3,0,4.3-1,5.9-3.1
	c1.6-2.1,2.8-5.4,3.6-9.9c0.8-4.5,1.2-9.8,1.2-15.8c0-4.6-0.3-9-0.7-13.2c-0.5-4.2-1.1-7.5-2-9.9c-0.8-2.4-1.9-4.3-3.4-5.7
	c-1.4-1.5-3.1-2.2-5.1-2.2c-2.2,0-4.2,1.1-5.9,3.2c-1.7,2.1-3,5.4-3.9,9.9C-168.8,425.6-169.3,430.7-169.3,436.4z"/>
<path class="st3" d="M-81.7,436.5v3.5c-2.5,0.8-4.2,1.5-4.9,2c-0.3,0.3-0.6,0.8-0.8,1.6c-0.2,0.8-0.2,3.2-0.2,7.3
	c0,6.5,0.1,12.3,0.2,17.3c-1.3,0.4-2.6,0.8-4.1,1.4c-3.9,1.5-6.7,2.4-8.5,2.8c-1.7,0.4-3.6,0.6-5.6,0.6c-4.6,0-8.3-1-10.9-3
	c-3.4-2.5-5.9-6.4-7.7-11.6c-1.8-5.2-2.7-11.5-2.7-18.7c0-12.9,2.8-22.8,8.3-29.7c4-5,9.2-7.4,15.7-7.4c4.4,0,9.3,1.1,14.8,3.3
	c0,1.9,0,3.4,0,4.5c0,3.7,0.1,9,0.2,15.9h-2.8c-0.8-5.3-1.6-9-2.4-11c-0.8-2.1-2-3.7-3.7-4.9c-1.7-1.2-3.7-1.8-6.1-1.8
	c-3.1,0-5.8,1.1-7.9,3.3c-2.1,2.2-3.7,5.6-4.9,10.2c-1.2,4.6-1.7,9.9-1.7,15.9c0,9.5,1.3,16.8,3.9,21.7c2.6,4.9,6,7.3,10.3,7.3
	c2.1,0,4.5-0.8,6.9-2.5v-14.7c0-3.2-0.1-5.3-0.3-6.2c-0.1-0.6-0.4-1-0.8-1.4c-0.4-0.4-1.6-0.9-3.6-1.6c-0.2-0.1-0.6-0.2-1-0.4v-3.5
	c4.3,0.4,7.5,0.5,9.7,0.5C-90.6,437-87.1,436.9-81.7,436.5z"/>
<path class="st3" d="M-74.8,407.4V404c6.3,0.4,10,0.5,11.1,0.5c1.2,0,3,0,5.3-0.1c2.3-0.1,4-0.1,5-0.1c2.8,0,4.9,0.6,6.5,1.8
	c1.5,1.2,2.8,3.1,3.7,5.7c0.9,2.6,1.4,5.6,1.4,8.8c0,2.8-0.3,5.4-1,8c-0.7,2.6-1.6,4.7-2.7,6.5c-0.7,1.2-1.9,2.4-3.5,3.8
	c1.2,3.7,3.1,8.9,5.5,15.7c1.8,5,2.9,8,3.5,8.9c0.5,1,1.1,1.7,1.7,2.3c1,0.8,2.7,1.5,5.2,2.2v3.5c-3.1-0.4-5.6-0.5-7.6-0.5
	c-2,0-4.6,0.2-7.6,0.5c-2.2-8.9-5.1-19-8.5-30.5c-1.1-0.1-2.3-0.2-3.5-0.4l0.2,19.7c0,2.4,0.1,3.9,0.3,4.5c0.2,0.6,0.5,1,0.8,1.3
	c0.3,0.2,1.9,0.8,4.9,1.9v3.5c-4.4-0.4-7.9-0.5-10.5-0.5c-2.6,0-6.1,0.2-10.4,0.5v-3.5c3.2-1,5-1.7,5.5-2.3s0.7-1.6,0.8-3.2
	c0.1-0.9,0.1-9,0.2-24.5l0-14.2c0-6.7-0.1-10.7-0.3-12.1c-0.1-1-0.4-1.7-0.8-2.2c-0.4-0.5-1.7-1.1-4-1.7L-74.8,407.4z M-60.1,435.3
	c0.9,0.1,1.6,0.1,2,0.1c2.6,0,4.5-1.1,5.7-3.2c1.2-2.1,1.8-5.3,1.8-9.6c0-4.1-0.6-7.2-1.7-9.3c-1.1-2.1-2.7-3.2-4.7-3.2
	c-0.8,0-1.8,0.1-3.1,0.4L-60.1,435.3z"/>
<path class="st3" d="M-27.7,407.5V404c4.4,0.4,9.3,0.5,14.5,0.5c6.1,0,12.3-0.2,18.7-0.5c0.1,6.5,0.3,12.2,0.7,17.1H3.9
	c-0.2-1-0.4-1.7-0.5-2.3c-0.9-4.4-1.6-7-2.1-7.7c-0.5-0.7-1.7-1.1-3.5-1.1h-10.6c-0.1,5.4-0.2,13.1-0.2,23.3l4.8,0.4
	c2.5,0,4-0.4,4.6-1.3c0.6-0.9,1.2-3.8,1.8-8.8h2.4c-0.1,4.7-0.2,8.8-0.2,12.4c0,3.4,0.1,7.7,0.2,12.8h-2.4c-0.5-5.1-1-8-1.5-8.8
	c-0.5-0.8-1.9-1.1-4.3-1.1H-13v26.6H-2c1.2,0,2-0.1,2.4-0.4c0.6-0.4,1.2-1.2,1.8-2.2c1.1-2.2,2.5-5.6,4-10.2h2.4
	c-1.1,5.2-2.2,11.5-3.5,18.9c-6.3-0.4-12.9-0.5-19.8-0.5c-3.1,0-7.5,0.2-13.1,0.5v-3.5c3-1,4.7-1.7,5.2-2.3c0.6-0.7,0.9-2.6,0.9-5.5
	v-1.6l0.2-18.9v-15.3v-7.1c0-3.4-0.1-5.5-0.3-6.3c-0.2-0.8-0.6-1.5-1.2-2C-23.6,408.7-25.1,408.1-27.7,407.5z"/>
<path class="st3" d="M43.4,423.3h-2.8c-0.6-6-1.5-10.1-2.8-12.1c-1.2-2.1-2.9-3.1-5.1-3.1c-1.9,0-3.4,0.9-4.5,2.5
	c-1.1,1.7-1.6,3.9-1.6,6.5c0,2.4,0.5,4.5,1.5,6.4c1,1.9,3.3,4.3,7,7.2c3.7,2.9,6.2,5.9,7.7,9c1.5,3.2,2.2,7.2,2.2,11.9
	c0,5.7-1.3,10.7-3.8,15c-2.5,4.3-6.6,6.4-12.1,6.4c-2,0-3.9-0.3-5.7-0.8c-1.4-0.3-3-1.1-5-2.2c0.3-5.6,0.5-11,0.5-16.5v-3.2h2.8
	c0.7,6.3,1.6,10.6,2.6,12.7c1.4,2.9,3.3,4.4,5.7,4.4c1.9,0,3.5-1,4.6-3c1.2-2,1.8-4.6,1.8-7.7c0-2-0.3-3.7-0.7-5.3
	c-0.5-1.5-1.2-2.9-2.2-4.2c-1-1.2-2.7-2.9-5.3-4.9c-3.9-3.2-6.5-6.3-7.8-9.2c-1.3-2.9-2-6.4-2-10.4c0-5.9,1.3-10.7,3.8-14.6
	c2.5-3.9,6.1-5.8,10.9-5.8c3.2,0,6.6,1,10.3,3.1c-0.1,5-0.2,8.4-0.2,10.4C43.2,418.2,43.3,420.7,43.4,423.3z"/>
<path class="st3" d="M80.5,423.3h-2.8c-0.6-6-1.6-10.1-2.8-12.1c-1.2-2.1-2.9-3.1-5.1-3.1c-1.9,0-3.4,0.9-4.5,2.5
	c-1.1,1.7-1.6,3.9-1.6,6.5c0,2.4,0.5,4.5,1.5,6.4c1,1.9,3.3,4.3,7,7.2c3.7,2.9,6.3,5.9,7.7,9c1.5,3.2,2.2,7.2,2.2,11.9
	c0,5.7-1.3,10.7-3.8,15c-2.5,4.3-6.6,6.4-12.1,6.4c-2,0-3.9-0.3-5.7-0.8c-1.4-0.3-3-1.1-5-2.2c0.3-5.6,0.5-11,0.5-16.5v-3.2h2.8
	c0.7,6.3,1.5,10.6,2.6,12.7c1.4,2.9,3.3,4.4,5.7,4.4c2,0,3.5-1,4.7-3c1.2-2,1.8-4.6,1.8-7.7c0-2-0.3-3.7-0.7-5.3
	c-0.5-1.5-1.2-2.9-2.2-4.2c-1-1.2-2.7-2.9-5.3-4.9c-3.9-3.2-6.5-6.3-7.8-9.2c-1.3-2.9-2-6.4-2-10.4c0-5.9,1.3-10.7,3.8-14.6
	c2.5-3.9,6.1-5.8,10.9-5.8c3.2,0,6.6,1,10.3,3.1c-0.1,5-0.2,8.4-0.2,10.4C80.3,418.2,80.4,420.7,80.5,423.3z"/>
</svg>
