<?xml version="1.0" encoding="utf-8"?>
<!-- Generator: Adobe Illustrator 21.0.2, SVG Export Plug-In . SVG Version: 6.00 Build 0)  -->
<svg version="1.1" id="Calque_1" xmlns="http://www.w3.org/2000/svg" xmlns:xlink="http://www.w3.org/1999/xlink" x="0px" y="0px"
	 viewBox="0 0 500 500" style="enable-background:new 0 0 500 500;" xml:space="preserve">
<style type="text/css">
	.st0{fill:#3B69C4;}
</style>
<path class="st0" d="M84.7,337.8c-0.8,0-1.8,0-2.8,0h-15v0.3h-0.1v32.8h0.1V385h15v-14.1c1,0,2,0,2.8,0c6.1,0,23.3,0.6,23.3-16.4
	C108.1,337.5,90.8,337.8,84.7,337.8z M86.9,359.6c-1.7,0-5,0-5,0v-10.1c0,0,3.3,0,5,0s6.5-0.2,6.5,5.1
	C93.4,359.8,88.6,359.6,86.9,359.6z"/>
<path class="st0" d="M155,384.1c-1.4,0-1.8-1.9-1.8-1.9s0-2.1,0-9c0-5.2-2.2-7.4-3.4-8.2c2.1-2.3,3.5-5.6,3.5-10.5
	c0-17-17.3-16.7-23.3-16.7c-0.8,0-1.8,0-2.8,0h-15v0.3h-0.1v32.8c0,0,0,0,0.1,0V385h15v-14.9c1,0,2,0,2.8,0c1.8,0,4.4,0.1,7.4-0.1
	c1.7,0.9,2.6,3.3,2.6,4.7c0,1.8,0,10.8,0,10.8h14.9C155,385.5,155.2,384.1,155,384.1z M132.3,358.8c-1.7,0-5,0-5,0v-9.3
	c0,0,3.3,0,5,0s6.5-0.2,6.5,5.1C138.8,359.8,134,358.8,132.3,358.8z"/>
<path class="st0" d="M183,336.1c-13,0-23.6,11.4-23.6,25.5s10.6,25.5,23.6,25.5s23.6-11.4,23.6-25.5
	C206.7,347.5,196.1,336.1,183,336.1z M183,375.6c-5.1,0-9.2-6.3-9.2-14s4.1-14,9.2-14c5.1,0,9.2,6.3,9.2,14S188.1,375.6,183,375.6z"
	/>
<path class="st0" d="M247,359.4h-10.3v10.3h6.4c0,0-2.2,5.4-7.7,5.4c-5.4,0-9.3-3.9-9.3-11.8c0-6.9,1.5-15,8.5-15
	c6.4,0,7.6,5.9,7.6,5.9H257c-2.9-10.5-11.9-18.2-22.6-18.2c-13,0-23.6,11.4-23.6,25.5s10.6,25.5,23.6,25.5c5.7,0,9.8-2.2,12.6-5.8
	v4.8h10v-26.7L247,359.4L247,359.4L247,359.4z"/>
<path class="st0" d="M293.9,385.8h14.6L292.2,338h-3h-8.1h-3.6l-16.1,47.8H276l1.6-6h14.6L293.9,385.8z M280.8,368.7l4.4-15.9
	l4.2,15.9H280.8z"/>
<path class="st0" d="M421.8,385.8h14.6L420.1,338h-3H409h-3.6l-16.1,47.8H404l1.6-6h14.6L421.8,385.8z M408.7,368.7l4.4-15.9
	l4.2,15.9H408.7z"/>
<polygon class="st0" points="328.8,374.5 328.8,337.8 314.2,337.8 314.2,374.5 314.2,385.2 328.8,385.2 349.4,385.2 349.4,374.5 "/>
<polygon class="st0" points="377.5,338 369.3,363 361.2,338 346.8,338 362,385.2 376.4,385.2 392,338 "/>
<rect x="66.7" y="321.8" class="st0" width="367.9" height="6"/>
<rect x="66.7" y="462.2" class="st0" width="367.9" height="6"/>
<polygon class="st0" points="178.7,88.4 320.6,88.4 298.2,71.6 200.7,71.6 "/>
<polygon class="st0" points="284.3,61.1 249.1,34.5 214.4,61.1 "/>
<polygon class="st0" points="351.3,205 299.9,243.9 249.1,205 103.5,205 249.1,316.7 396.8,205 "/>
<polygon class="st0" points="388,177.3 365.2,194.5 410.7,194.5 433.5,177.3 "/>
<polygon class="st0" points="212.9,177.3 67.3,177.3 89.8,194.5 235.4,194.5 "/>
<polygon class="st0" points="378.8,166.8 424.2,166.8 404.9,152.2 359.4,152.2 "/>
<polygon class="st0" points="241.1,152.2 95.5,152.2 76.5,166.8 222.1,166.8 "/>
<polygon class="st0" points="345.5,141.7 391,141.7 370.7,126.3 325.2,126.3 "/>
<polygon class="st0" points="274.9,126.3 129.3,126.3 109.2,141.7 254.8,141.7 "/>
<polygon class="st0" points="299.9,107.2 311.3,115.8 356.8,115.8 334.5,98.9 165,98.9 143,115.8 288.6,115.8 "/>
<polygon class="st0" points="370.4,175.6 358.8,166.8 358.9,166.8 339.5,152.2 339.4,152.2 325.6,141.7 325.6,141.7 305.3,126.3 
	305.2,126.3 299.9,122.3 294.7,126.3 294.6,126.3 274.6,141.7 274.6,141.7 260.9,152.2 260.9,152.2 241.8,166.8 241.9,166.8 
	230.4,175.6 232.6,177.3 232.6,177.3 237.8,181.3 299.9,228.9 "/>
<rect x="112.7" y="404" class="st0" width="14.5" height="47.7"/>
<rect x="142.1" y="404" class="st0" width="14.5" height="47.7"/>
<rect x="221.4" y="404" class="st0" width="14.5" height="47.7"/>
<rect x="208.3" y="404" class="st0" width="40.7" height="13"/>
<polygon class="st0" points="202.3,415.3 202.3,404 179.9,404 165.4,404 165.3,404 165.3,452 202.3,452 202.3,440.8 179.9,440.8 
	179.9,433.3 199.3,433.3 199.3,422 179.9,422 179.9,415.3 "/>
<polygon class="st0" points="156.6,451.7 142.1,451.7 112.7,404 127.1,404 "/>
<path class="st0" d="M350.9,441.6l12.9-1.6c0.3,1.8,0.9,3.1,1.7,3.8s1.8,1.1,3,1.1c2.1,0,3.7-1.1,4.9-3.2c0.9-1.6,1.5-4.8,1.9-9.9
	c-1.6,1.6-3.1,2.8-4.8,3.5c-1.6,0.7-3.5,1.1-5.7,1.1c-4.2,0-7.7-1.5-10.6-4.5c-2.9-3-4.3-6.7-4.3-11.3c0-3.1,0.7-5.9,2.2-8.5
	s3.5-4.5,6.1-5.8c2.6-1.3,5.8-2,9.7-2c4.7,0,8.4,0.8,11.3,2.4c2.8,1.6,5.1,4.2,6.8,7.7s2.5,8.1,2.5,13.9c0,8.5-1.8,14.6-5.3,18.6
	c-3.6,3.9-8.5,5.9-14.8,5.9c-3.7,0-6.7-0.4-8.8-1.3c-2.1-0.9-3.9-2.1-5.4-3.8C352.8,446.2,351.7,444.1,350.9,441.6z M374.8,420.8
	c0-2.5-0.6-4.5-1.9-6c-1.3-1.4-2.8-2.2-4.7-2.2c-1.7,0-3.2,0.7-4.3,2s-1.7,3.2-1.7,5.8s0.6,4.6,1.8,6s2.6,2.1,4.4,2.1
	c1.8,0,3.4-0.7,4.6-2S374.8,423.3,374.8,420.8z"/>
<path class="st0" d="M325,451.7l-9.4-11.8c0.9-1.5,6-9.2,6.5-11H310c-0.4,1.4-1.6,3.3-2.2,4.6c-1.9-1.5-3.7-3.2-5.4-4.9
	c8.1-3.2,8.6-9.6,8.6-10.4c0-5.7-2-9-4.3-11c-2.4-2-6.1-3-11.1-3c-4.9,0-8.6,1-11,3.1s-4.1,4.8-4.1,8.1c0,5.3,3.3,8.8,4,9.2
	c-3.9,1.6-10.3,5.2-10.3,14.7c0,3.6,1.5,6.7,4.4,9.2s7.4,3.8,13.3,3.8c3.8,0,7.2-0.5,10.2-1.4c2.2-0.7,2.6-0.9,4.8-2.3l2.2,3.1
	L325,451.7z M292.9,413.2c0.8-0.7,1.8-1.1,3.1-1.1s2.3,0.3,3,1s1.1,1.5,1.1,2.5c0,0.9-0.4,1.9-1.3,3c-0.9,1-2.1,2-3.7,2.9
	c-2.2-2.4-3.4-4.3-3.4-5.6C291.7,414.8,292.1,413.9,292.9,413.2z M288.6,441.3c-3.9-4.1,3-7.9,3-7.9l6.9,6.2
	C298.5,439.6,292.5,445.4,288.6,441.3z"/>
<path class="st0" d="M452.3,24.3v458.2H47.4V24.3H452.3 M458.3,18.3h-6H47.4h-6v6v458.2v6h6h404.9h6v-6V24.3L458.3,18.3L458.3,18.3z
	"/>
</svg>
