<?xml version="1.0" encoding="utf-8"?>
<!-- Generator: Adobe Illustrator 19.1.0, SVG Export Plug-In . SVG Version: 6.00 Build 0)  -->
<svg version="1.1" id="Calque_1" xmlns="http://www.w3.org/2000/svg" xmlns:xlink="http://www.w3.org/1999/xlink" x="0px" y="0px"
	 viewBox="-345 170.9 500 500" style="enable-background:new -345 170.9 500 500;" xml:space="preserve">
<style type="text/css">
	.st0{fill:#E21F20;}
	.st1{opacity:0.14;fill:#FDF8F8;enable-background:new    ;}
	.st2{fill:#5B5A5A;}
	.st3{fill:#FFFFFF;}
	.st4{fill:#383838;}
	.st5{opacity:0.53;fill:#3F3F3F;enable-background:new    ;}
</style>
<rect x="-329.7" y="279.6" class="st0" width="475.2" height="144.8"/>
<rect x="-329.7" y="557.8" class="st1" width="475.2" height="7.6"/>
<rect x="-329.7" y="420" class="st2" width="475.2" height="144.8"/>
<path class="st2" d="M84,382.1h-11v-18.2H56.5v-12.5h16.4v-18.3h11v18.3h16.5v12.5H84L84,382.1L84,382.1z"/>
<path class="st2" d="M-252,338c-9.6-3.7-11.4-6.2-11.4-9.8c0-3,2.4-6.6,9.3-6.6c6.2,0,10,2.1,11.1,2.7l4,2.5l5-14.7l-2.7-1.6
	c-2-1.2-7.7-3.9-17.1-3.9c-15.4,0-26.2,9.3-26.2,22.6c0,10.6,6.8,18.2,20.7,23.3c8.9,3.3,10.6,6.1,10.6,10.1c0,5-4,8-10.7,8
	c-4.9,0-10-1.4-13.9-3.9l-4.2-2.7l-4.7,14.9l2.4,1.6c4.6,3,12.7,5.1,19.8,5.1c19.3,0,27.9-11.9,27.9-23.8
	C-232,350.6-238,343.5-252,338z"/>
<path class="st2" d="M-145.1,348.8c-6.9-2.6-7.2-3.8-7.2-5.5c0-3.3,3.8-3.5,4.9-3.5c2.9,0,5.7,0.8,8.5,2.4l3.5,2l4.2-12.7l-2.1-1.4
	c-3.4-2.3-8.6-3.6-13.9-3.6c-11.8,0-20.4,7.5-20.4,17.9c0,7.7,5.2,13.4,15.4,17.1c7,2.6,7,4.5,7,6.1c0,3.4-3.4,4.1-6.3,4.1
	c-3.6,0-7.8-1.5-10.4-3l-3.5-2.1l-4.2,13.2l2.3,1.3c4.3,2.5,10,3.9,15.6,3.9c13,0,21.8-7.3,21.8-18.3
	C-130,358.4-134.8,352.7-145.1,348.8z"/>
<path class="st2" d="M-65,326.5c-15.7,0-26.7,12.4-26.7,30.2c0,17.2,10.9,28.3,27.7,28.3c8.5,0,14.5-1.9,18-3.5l2.2-1l-0.2-13.9
	l-6.2,2.5c-2.7,1.1-6.3,2.2-12.5,2.2c-4.5,0-11.8-1.4-13.4-10.7l34,0.1l0.5-2.6c0.2-1.2,0.4-2.9,0.4-5
	C-41.3,340.9-47.5,326.5-65,326.5z M-65.7,339.5c2.6,0,4.6,0.7,6.1,2.3c1.6,1.7,2.4,4,2.7,5.9h-18.7
	C-74.4,344.3-71.8,339.5-65.7,339.5z"/>
<path class="st2" d="M25.5,326.6c-5.2,0-9,1.2-12.9,4.1c-1.3,1-2.4,2-3.4,3.1c-3.4-4.6-8.6-7.2-14.4-7.2c-5.1,0-9.5,1.5-13.2,4.4
	l-0.2-3.2H-33l0.2,4c0.2,3.8,0.4,7.8,0.4,12.7V384H-17v-33.3c0-1.3,0.2-2.4,0.6-3.4c1-3.3,4-6.8,8.1-6.8c6.2,0,7.1,6.5,7.1,10.4V384
	h15.4v-34.1c0-1.1,0.2-2.3,0.5-3.4c1.1-2.8,3.7-6,7.7-6c5,0,7.5,4,7.5,12V384h15.4v-32.5C45.2,333.1,34.6,326.6,25.5,326.6z"/>
<polygon class="st2" points="-199.8,357.1 -211.3,334.4 -228.6,334.4 -208.4,374.4 -208.3,374.6 -224,407.1 -206.7,407.1 
	-171.5,334.4 -188.9,334.4 "/>
<polygon class="st2" points="-104.5,330 -104.5,315.4 -119.9,315.3 -119.9,330 -124,330 -124,347.1 -119.9,347.1 -119.9,385.7 
	-104.5,385.4 -104.5,347.1 -91.5,347.1 -91.5,330 "/>
<path class="st3" d="M86.6,384.5h-11v-18.2H59.2v-12.5h16.4v-18.3h11v18.3h16.5v12.5H86.6V384.5z"/>
<path class="st3" d="M-249.3,340.3c-9.6-3.7-11.4-6.2-11.4-9.8c0-3,2.4-6.6,9.3-6.6c6.2,0,10,2.1,11.1,2.7l4,2.5l5-14.7l-2.7-1.6
	c-2-1.2-7.7-3.9-17.1-3.9c-15.4,0-26.2,9.3-26.2,22.6c0,10.6,6.8,18.2,20.7,23.3c8.9,3.3,10.6,6.1,10.6,10.1c0,5-4,8-10.7,8
	c-4.9,0-10-1.4-13.9-3.9l-4.2-2.7l-4.7,14.9l2.4,1.6c4.6,3,12.7,5.1,19.8,5.1c19.3,0,27.9-11.9,27.9-23.8
	C-229.4,353-235.3,345.8-249.3,340.3z"/>
<path class="st3" d="M-142.4,351.2c-6.9-2.6-7.2-3.8-7.2-5.5c0-3.3,3.8-3.5,4.9-3.5c2.9,0,5.7,0.8,8.5,2.4l3.5,2l4.2-12.7l-2.1-1.4
	c-3.4-2.3-8.6-3.6-13.9-3.6c-11.8,0-20.4,7.5-20.4,17.9c0,7.7,5.2,13.4,15.4,17.1c7,2.6,7,4.5,7,6.1c0,3.4-3.4,4.1-6.3,4.1
	c-3.6,0-7.8-1.5-10.4-3l-3.5-2.1l-4.2,13.2l2.3,1.3c4.3,2.5,10,3.9,15.6,3.9c13,0,21.8-7.3,21.8-18.3
	C-127.3,360.8-132.1,355-142.4,351.2z"/>
<path class="st3" d="M-62.3,328.9C-78,328.9-89,341.3-89,359c0,17.2,10.9,28.3,27.7,28.3c8.5,0,14.5-1.9,18-3.5l2.2-1l-0.2-13.9
	l-6.2,2.5c-2.7,1.1-6.3,2.2-12.5,2.2c-4.5,0-11.8-1.4-13.4-10.7l34,0.1l0.5-2.6c0.2-1.2,0.4-2.9,0.4-5
	C-38.6,343.2-44.8,328.9-62.3,328.9z M-63,341.9c2.6,0,4.6,0.7,6.1,2.3c1.6,1.7,2.4,4,2.7,5.9h-18.7
	C-71.8,346.7-69.1,341.9-63,341.9z"/>
<path class="st3" d="M28.2,329c-5.2,0-9,1.2-12.9,4.1c-1.3,1-2.4,2-3.4,3.1c-3.4-4.6-8.6-7.2-14.4-7.2c-5.1,0-9.5,1.5-13.2,4.4
	l-0.2-3.2h-14.5l0.2,4c0.2,3.8,0.4,7.8,0.4,12.7v39.5h15.4v-33.3c0-1.3,0.2-2.4,0.6-3.4c1-3.3,4-6.8,8.1-6.8c6.2,0,7.1,6.5,7.1,10.4
	v33.1h15.4v-34.1c0-1.1,0.2-2.3,0.5-3.4c1.1-2.8,3.7-6,7.7-6c5,0,7.5,4,7.5,12v31.4h15.4v-32.5C47.9,335.5,37.3,329,28.2,329z"/>
<polygon class="st3" points="-197.2,359.4 -208.6,336.8 -226,336.8 -205.7,376.8 -205.6,377 -221.4,409.4 -204,409.4 -168.9,336.8 
	-186.2,336.8 "/>
<polygon class="st3" points="-101.8,332.4 -101.8,317.7 -117.2,317.7 -117.2,332.4 -121.3,332.4 -121.3,349.4 -117.2,349.4 
	-117.2,388.1 -101.8,387.8 -101.8,349.4 -88.9,349.4 -88.9,332.4 "/>
<path class="st4" d="M-227.5,454.7c-2.4-2-5.1-3.5-8.4-4.4c-3.3-0.9-7.9-1.4-14-1.4h-20.5c-3.5,0-6.1,0.7-7.7,2.2
	c-1.6,1.5-2.4,3.9-2.4,7.3v59.1c0,3.1,0.7,5.4,2.2,7c1.5,1.6,3.4,2.4,5.8,2.4c2.3,0,4.2-0.8,5.7-2.4c1.5-1.6,2.3-4,2.3-7.1v-21.7
	h14.7c9.8,0,17.2-2,22.2-6.1c5-4,7.4-9.9,7.4-17.7c0-3.7-0.6-7-1.8-9.9C-223.3,459.2-225.1,456.7-227.5,454.7z M-238.5,479.1
	c-1.3,1.8-3.3,3-5.8,3.8c-2.5,0.8-5.7,1.1-9.5,1.1h-10.8v-23.4h10.8c7.1,0,11.9,1.1,14.2,3.4c2,2.1,3.1,4.9,3.1,8.3
	C-236.5,475.1-237.2,477.4-238.5,479.1z"/>
<path class="st4" d="M-174.5,471.2c-2.9-1.5-5.9-2.3-9-2.3c-3.1,0-5.6,0.8-7.4,2.3c-1.9,1.5-3.7,3.7-5.4,6.6c-0.1-3-0.7-5.1-1.8-6.6
	c-1.1-1.5-2.8-2.3-5.3-2.3c-4.8,0-7.2,3.2-7.2,9.6v39.7c0,2.9,0.7,5,2,6.5c1.4,1.5,3.1,2.2,5.2,2.2c2.2,0,3.9-0.7,5.3-2.2
	c1.4-1.5,2.1-3.6,2.1-6.5v-11.9c0-4.3,0.1-7.9,0.4-10.9c0.3-3,0.8-5.5,1.6-7.7c0.8-2.2,1.8-3.8,3.2-4.9c1.4-1.1,3.1-1.6,5.3-1.6
	c1.6,0,3.4,0.3,5.5,0.9c2.1,0.6,3.4,1,3.9,1c1.4,0,2.8-0.6,4-1.7c1.2-1.1,1.9-2.6,1.9-4.3C-170.1,474.6-171.5,472.7-174.5,471.2z"/>
<path class="st4" d="M-48.4,478.3c-1.5-3-3.8-5.3-6.8-6.9c-3.1-1.6-6.5-2.5-10.4-2.5c-4,0-7.5,0.8-10.6,2.3c-3.1,1.6-5.9,4-8.5,7.3
	v-1.7c0-1.7-0.3-3.2-0.9-4.4c-0.6-1.2-1.5-2.1-2.5-2.7c-1-0.6-2.2-0.9-3.5-0.9c-2.1,0-3.8,0.7-5,2c-1.2,1.3-1.8,3.4-1.8,6.1v41.2
	c0,2.8,0.7,4.9,2.1,6.4c1.4,1.5,3.1,2.3,5.2,2.3c2.2,0,4-0.7,5.4-2.2c1.4-1.5,2.1-3.6,2.1-6.5v-17.9c0-5.8,0.4-9.8,1.1-11.9
	c1-2.6,2.6-4.7,4.7-6.3c2.2-1.5,4.5-2.3,7.2-2.3c4,0,6.7,1.2,8.1,3.7c1.3,2.5,2,6.1,2,10.8v23.8c0,2.8,0.7,4.9,2,6.4
	c1.4,1.5,3.1,2.3,5.3,2.3c2.2,0,3.9-0.7,5.2-2.2c1.4-1.5,2-3.6,2-6.5v-26.5c0-3.1-0.1-5.7-0.4-7.7
	C-46.8,481.9-47.4,480.1-48.4,478.3z"/>
<path class="st4" d="M-23.9,444.2c-2,0-3.7,0.6-5.2,1.9c-1.5,1.3-2.2,3-2.2,5c0,2.2,0.7,4,2.2,5.2c1.5,1.2,3.2,1.8,5.3,1.8
	c2,0,3.7-0.6,5.1-1.9c1.4-1.2,2.2-3,2.2-5.1c0-2.3-0.7-4-2.2-5.2C-20.3,444.8-22,444.2-23.9,444.2z"/>
<path class="st4" d="M-24.1,468.9c-2.2,0-3.9,0.7-5.3,2.2c-1.3,1.4-2,3.5-2,6.4v40.8c0,2.8,0.7,4.9,2,6.4c1.3,1.5,3.1,2.3,5.3,2.3
	c2.2,0,3.9-0.7,5.3-2.2c1.4-1.5,2.1-3.6,2.1-6.5V477c0-2.5-0.7-4.5-2.1-6C-20.2,469.6-21.9,468.9-24.1,468.9z"/>
<path class="st4" d="M48.6,499.8c2.1-1.1,3.2-3.4,3.2-7c0-3.9-1-7.7-3.1-11.4c-2.1-3.7-5.1-6.8-9.3-9.1c-4.1-2.4-9-3.5-14.8-3.5
	c-4.4,0-8.4,0.7-12.1,2c-3.6,1.4-6.7,3.4-9.2,6c-2.5,2.6-4.4,5.6-5.7,9.3c-1.3,3.6-1.9,7.5-1.9,11.7c0,9,2.6,16.1,7.9,21.3
	c5.3,5.2,12.6,7.9,22.1,7.9c4.1,0,7.8-0.5,11-1.6c3.2-1.1,5.8-2.4,7.9-3.9c2.1-1.6,3.7-3.2,4.7-5c1-1.7,1.6-3.2,1.6-4.5
	c0-1.4-0.5-2.6-1.4-3.4c-0.9-0.8-2.2-1.2-3.7-1.2c-1.4,0-2.5,0.3-3.2,0.9c-1.8,1.7-3.3,3-4.5,4c-1.1,1-2.4,1.9-3.8,2.7
	c-1.4,0.9-2.8,1.5-4.2,1.9c-1.5,0.4-3.1,0.6-4.8,0.6c-2.6,0-5-0.6-7.2-1.9c-2.2-1.3-3.9-3.1-5.2-5.6c-1.3-2.5-2-5.3-2-8.6h28.8
	C43.5,501.4,46.5,500.9,48.6,499.8z M10.8,493.3c0.5-4.8,1.9-8.5,4.3-10.9c2.4-2.5,5.4-3.7,9-3.7c3.8,0,6.9,1.2,9.3,3.6
	c2.4,2.4,3.7,6.1,4.1,11L10.8,493.3L10.8,493.3z"/>
<path class="st4" d="M100.1,471.2c-2.9-1.5-5.9-2.3-9-2.3c-3.1,0-5.6,0.8-7.4,2.3c-1.8,1.5-3.7,3.7-5.4,6.6c-0.1-3-0.7-5.1-1.8-6.6
	c-1.1-1.5-2.8-2.3-5.3-2.3c-4.8,0-7.2,3.2-7.2,9.6v39.7c0,2.9,0.7,5,2.1,6.5c1.4,1.5,3.1,2.2,5.2,2.2c2.2,0,3.9-0.7,5.3-2.2
	c1.4-1.5,2.1-3.6,2.1-6.5v-11.9c0-4.3,0.1-7.9,0.4-10.9c0.3-3,0.8-5.5,1.6-7.7c0.8-2.2,1.8-3.8,3.2-4.9c1.4-1.1,3.1-1.6,5.3-1.6
	c1.6,0,3.4,0.3,5.5,0.9c2.1,0.6,3.4,1,3.9,1c1.4,0,2.8-0.6,4-1.7c1.2-1.1,1.9-2.6,1.9-4.3C104.5,474.6,103.1,472.7,100.1,471.2z"/>
<path class="st4" d="M-114.8,471c-1.3-1.4-3.1-2.1-5.3-2.1c-2.2,0-4,0.7-5.3,2.2c-1.4,1.4-2,3.5-2,6.4v17.4c0,6.8-0.4,11.2-1.2,13.3
	c-1,2.3-2.6,4.2-4.8,5.6c-1.6,1.1-8.7,1.1-10.4,0c-2.2-1.4-3.8-3.3-4.8-5.6c-0.8-2-1.2-6.4-1.2-13.3v-17.4c0-2.8-0.7-4.9-2.1-6.4
	c-1.4-1.4-3.1-2.2-5.3-2.2c-2.2,0-4,0.7-5.3,2.1c-1.3,1.4-2,3.6-2,6.4c0,0,0.2,20.9,0.2,21.8c0,1.2-2.3,27,24.9,28v0.1
	c0.3,0,1.2,0,1.5,0l0-0.1c27.3-1,25-26.8,24.9-28c0-1,0.2-21.8,0.2-21.8C-112.8,474.6-113.4,472.4-114.8,471z"/>
<path class="st3" d="M-225,457.2c-2.4-2-5.1-3.5-8.4-4.4c-3.3-0.9-7.9-1.3-14-1.3H-268c-3.5,0-6.1,0.7-7.7,2.2
	c-1.6,1.5-2.4,3.9-2.4,7.3v59.1c0,3.1,0.7,5.4,2.2,7c1.5,1.6,3.4,2.4,5.8,2.4c2.3,0,4.2-0.8,5.7-2.4c1.5-1.6,2.3-4,2.3-7.1v-21.7
	h14.7c9.8,0,17.2-2,22.2-6.1c5-4,7.4-9.9,7.4-17.7c0-3.7-0.6-7-1.8-9.9C-220.9,461.7-222.7,459.2-225,457.2z M-236.1,481.7
	c-1.3,1.8-3.3,3-5.8,3.8c-2.5,0.8-5.7,1.1-9.5,1.1h-10.8v-23.4h10.8c7.2,0,11.9,1.1,14.2,3.4c2,2.1,3.1,4.9,3.1,8.3
	C-234.1,477.7-234.7,479.9-236.1,481.7z"/>
<path class="st3" d="M-172,473.7c-2.9-1.5-5.9-2.3-9-2.3c-3.1,0-5.6,0.8-7.4,2.3c-1.8,1.5-3.7,3.7-5.4,6.6c-0.1-3-0.7-5.1-1.8-6.6
	c-1.1-1.5-2.8-2.3-5.3-2.3c-4.8,0-7.2,3.2-7.2,9.6v39.7c0,2.9,0.7,5,2,6.5c1.4,1.5,3.1,2.2,5.2,2.2c2.2,0,3.9-0.7,5.3-2.2
	c1.4-1.5,2.1-3.6,2.1-6.5v-11.9c0-4.3,0.1-7.9,0.4-10.9c0.3-3,0.8-5.5,1.6-7.7c0.8-2.2,1.8-3.8,3.2-4.9c1.4-1.1,3.1-1.6,5.3-1.6
	c1.6,0,3.4,0.3,5.5,0.9c2.1,0.6,3.4,1,3.9,1c1.4,0,2.8-0.6,4-1.7c1.2-1.1,1.9-2.6,1.9-4.3C-167.6,477.2-169.1,475.2-172,473.7z"/>
<path class="st3" d="M-45.9,480.8c-1.5-3-3.8-5.3-6.8-6.9c-3.1-1.6-6.5-2.5-10.4-2.5c-4,0-7.5,0.8-10.6,2.3c-3.1,1.6-5.9,4-8.5,7.3
	v-1.7c0-1.7-0.3-3.2-0.9-4.4c-0.6-1.2-1.5-2.1-2.5-2.7c-1-0.6-2.2-0.9-3.5-0.9c-2.1,0-3.8,0.7-5,2c-1.2,1.3-1.8,3.4-1.8,6.1v41.2
	c0,2.8,0.7,4.9,2.1,6.4c1.4,1.5,3.1,2.3,5.2,2.3c2.2,0,4-0.7,5.4-2.2c1.4-1.5,2.1-3.6,2.1-6.5v-17.9c0-5.8,0.4-9.8,1.1-11.9
	c1-2.6,2.6-4.7,4.8-6.3c2.2-1.5,4.5-2.3,7.2-2.3c4,0,6.7,1.2,8.1,3.7c1.3,2.5,2,6.1,2,10.8v23.8c0,2.8,0.7,4.9,2,6.4
	c1.4,1.5,3.1,2.3,5.3,2.3c2.2,0,3.9-0.7,5.3-2.2c1.4-1.5,2-3.6,2-6.5v-26.5c0-3.1-0.1-5.7-0.4-7.7C-44.3,484.5-45,482.6-45.9,480.8z
	"/>
<path class="st3" d="M-21.5,446.7c-2,0-3.7,0.6-5.2,1.9c-1.5,1.3-2.2,3-2.2,5c0,2.2,0.7,4,2.2,5.2c1.5,1.2,3.2,1.8,5.3,1.8
	c2,0,3.7-0.6,5.1-1.9c1.4-1.2,2.2-2.9,2.2-5.1c0-2.3-0.7-4-2.2-5.2C-17.9,447.3-19.6,446.7-21.5,446.7z"/>
<path class="st3" d="M-21.7,471.4c-2.2,0-3.9,0.7-5.3,2.2c-1.3,1.4-2,3.5-2,6.4v40.8c0,2.8,0.7,4.9,2,6.4c1.3,1.5,3.1,2.3,5.3,2.3
	c2.2,0,3.9-0.7,5.3-2.2c1.4-1.5,2.1-3.6,2.1-6.5v-41.2c0-2.5-0.7-4.5-2.1-6C-17.7,472.1-19.5,471.4-21.7,471.4z"/>
<path class="st3" d="M51,502.3c2.1-1.1,3.2-3.4,3.2-7c0-3.9-1-7.7-3.1-11.4c-2.1-3.7-5.1-6.8-9.3-9.1c-4.1-2.4-9-3.5-14.8-3.5
	c-4.4,0-8.4,0.7-12.1,2c-3.6,1.4-6.7,3.4-9.2,6c-2.5,2.6-4.4,5.6-5.7,9.3c-1.3,3.6-1.9,7.5-1.9,11.7c0,9,2.6,16.1,7.9,21.3
	c5.3,5.2,12.6,7.8,22.1,7.8c4.1,0,7.8-0.5,11-1.6c3.2-1.1,5.8-2.4,7.9-3.9c2.1-1.6,3.7-3.2,4.7-5c1-1.7,1.6-3.2,1.6-4.5
	c0-1.4-0.5-2.6-1.4-3.4c-0.9-0.8-2.2-1.2-3.7-1.2c-1.4,0-2.5,0.3-3.2,0.9c-1.8,1.7-3.3,3-4.5,4c-1.2,1-2.4,1.9-3.8,2.7
	c-1.4,0.9-2.8,1.5-4.2,1.9c-1.5,0.4-3.1,0.6-4.8,0.6c-2.6,0-5-0.6-7.2-1.9c-2.2-1.3-3.9-3.1-5.2-5.6c-1.3-2.5-2-5.3-2-8.6h28.8
	C45.9,503.9,48.9,503.4,51,502.3z M13.3,495.8c0.5-4.8,1.9-8.5,4.3-10.9c2.4-2.5,5.4-3.7,9-3.7c3.8,0,6.9,1.2,9.3,3.6
	c2.4,2.4,3.7,6.1,4.1,11H13.3z"/>
<path class="st3" d="M102.6,473.7c-2.9-1.5-5.9-2.3-9-2.3c-3.1,0-5.6,0.8-7.4,2.3c-1.8,1.5-3.7,3.7-5.4,6.6c-0.1-3-0.7-5.1-1.8-6.6
	c-1.1-1.5-2.8-2.3-5.3-2.3c-4.8,0-7.2,3.2-7.2,9.6v39.7c0,2.9,0.7,5,2.1,6.5c1.4,1.5,3.1,2.2,5.2,2.2c2.2,0,3.9-0.7,5.3-2.2
	c1.4-1.5,2.1-3.6,2.1-6.5v-11.9c0-4.3,0.1-7.9,0.4-10.9c0.3-3,0.8-5.5,1.6-7.7s1.8-3.8,3.2-4.9c1.4-1.1,3.1-1.6,5.3-1.6
	c1.6,0,3.4,0.3,5.5,0.9c2.1,0.6,3.4,1,3.9,1c1.4,0,2.8-0.6,4-1.7c1.2-1.1,1.9-2.6,1.9-4.3C107,477.2,105.5,475.2,102.6,473.7z"/>
<path class="st3" d="M-112.3,473.5c-1.3-1.4-3.1-2.1-5.3-2.1c-2.2,0-4,0.7-5.3,2.2c-1.4,1.4-2,3.5-2,6.4v17.4
	c0,6.8-0.4,11.2-1.2,13.3c-1,2.3-2.6,4.2-4.8,5.6c-1.6,1.1-8.7,1.1-10.4,0c-2.2-1.4-3.8-3.3-4.8-5.6c-0.8-2-1.2-6.4-1.2-13.3v-17.4
	c0-2.8-0.7-4.9-2.1-6.4c-1.4-1.4-3.1-2.2-5.3-2.2c-2.2,0-4,0.7-5.3,2.1c-1.3,1.4-2,3.6-2,6.4c0,0,0.2,20.9,0.2,21.8
	c0,1.2-2.3,27,24.9,28v0.1c0.3,0,1.2,0,1.5,0l0-0.1c27.3-1,25-26.8,24.9-28c0-1,0.2-21.8,0.2-21.8
	C-110.3,477.1-111,474.9-112.3,473.5z"/>
<polygon class="st1" points="145.6,420 138,420 138,557.8 -329.7,557.8 -329.7,565.4 145.5,565.4 145.5,564.9 145.6,564.9 "/>
<polygon class="st1" points="-329.7,420.2 -322.2,420.2 -322.2,287.3 145.6,287.3 145.6,279.8 -329.6,279.8 -329.6,280.3 
	-329.7,280.3 "/>
<polygon class="st5" points="-329.6,564.6 -329.7,420.2 -322.2,420.2 -322.2,557 "/>
<polygon class="st5" points="145.5,279.7 145.6,419.9 138,419.9 138,287 "/>
</svg>
