<?xml version="1.0" encoding="utf-8"?>
<!-- Generator: Adobe Illustrator 19.1.0, SVG Export Plug-In . SVG Version: 6.00 Build 0)  -->
<svg version="1.1" id="Calque_1" xmlns="http://www.w3.org/2000/svg" xmlns:xlink="http://www.w3.org/1999/xlink" x="0px" y="0px"
	 viewBox="0 0 500 500" style="enable-background:new 0 0 500 500;" xml:space="preserve">
<style type="text/css">
	.st0{fill:#1D2D28;}
	.st1{fill:#949597;}
	.st2{fill:#A80B17;}
	.st3{fill:#E2001A;}
</style>
<g id="Calque_2">
	<g>
		<polygon class="st0" points="112.3,218.1 65.9,218.1 71.7,205.4 118.1,205.4 		"/>
		<polygon class="st0" points="103.7,237.8 57.3,237.8 63.1,225.1 109.5,225.1 		"/>
		<polygon class="st0" points="95.1,257.6 48.7,257.6 54.5,244.8 100.9,244.8 		"/>
		<polygon class="st0" points="86.5,277.3 40.1,277.3 45.9,264.5 92.3,264.5 		"/>
		<polygon class="st0" points="469.2,218.1 422.8,218.1 428.6,205.4 475,205.4 		"/>
		<path class="st0" d="M208.5,190.8c-21.2,0-37,8.6-37,8.6l3.1-7.3h-36.6l-43.3,97.6h36.9l13-29.6c0,0,12.9,3.2,23.3,3.2
			s54.8-1.5,72.3-31.2C257.7,202.4,229.6,190.8,208.5,190.8z M205.7,223.3c-5.8,17.4-25.7,24.7-37.4,24.7s-16.4-4.1-16.4-4.1
			s3.9-9,5.5-12.5c1.6-3.5,5.8-14.5,18.9-20.4C189.4,205.2,211.5,205.9,205.7,223.3z"/>
		<path class="st0" d="M278.4,179.7h36.1l-5.7,12.8h26.6l-6.9,15.3h-26.7c0,0-10.1,21.7-12,26.1s-7.2,14.8,18.2,11.9l-7.1,15.9
			c0,0-7.2,1.4-20.7,1.4s-38.6-1.4-28.5-23.9c10.1-22.5,14-30.9,14-30.9h-15.9l6.9-15.6h16L278.4,179.7z"/>
		<path class="st0" d="M420.1,193.5l-6.7,15.3c0,0-7.7-2.7-20.5-2.7s-20.2,1.4-21,6.2c-0.8,4.8,10.7,6.7,19.3,9.1
			c8.6,2.5,24.6,8.7,20.9,20.1c-3.8,11.3-22.2,21.6-57.7,21.6c-28.7,0-35.8-4-35.8-4l6.9-15.5c0,0,15.6,5.4,31.3,5.1
			c15.8-0.3,16.8-4.6,17-7.2c0.2-2.5-2.1-5.2-16.9-9.1c-14.8-3.9-23.3-10.7-22.7-17.2c0.6-6.5,4.9-14.7,27.9-21.1
			S420.1,193.5,420.1,193.5z"/>
		<path class="st0" d="M436.9,244.8C436.9,244.8,436.9,244.8,436.9,244.8c-1.2,4.6-3.9,8.9-8.3,12.8H452l5.8-12.8L436.9,244.8
			L436.9,244.8z"/>
		<path class="st0" d="M425.8,225.1c5,2.9,9.8,7.1,11.2,12.8h23.6l5.8-12.8H425.8z"/>
		<path class="st0" d="M417.1,264.5c-4.6,2-10.1,3.5-16.4,4.5l-3.8,8.3h46.4l5.8-12.8L417.1,264.5L417.1,264.5z"/>
		<g>
			<path class="st0" d="M208.4,272.6l-5.2,11.1c-1.5,3.3-5.7,6-9.3,6H178c-3.6,0-5.3-2.7-3.8-6l5.2-11.1h5.2l-4.6,10.9
				c0,0-1.1,1.7,0.6,1.7s15.8,0,15.8,0s1.2,0,1.8-1.5c0.6-1.5,4.9-11.2,4.9-11.2L208.4,272.6L208.4,272.6z"/>
		</g>
		<g>
			<path class="st0" d="M266,289.6H250c-3.6,0-5.3-2.7-3.8-6l5.2-11.1h5.2l-4.6,10.9c0,0-1.1,1.7,0.6,1.7s15.8,0,15.8,0L266,289.6z"
				/>
		</g>
		<g>
			<path class="st0" d="M291,289.6H275c-3.6,0-5.3-2.7-3.8-6l5.2-11.1h5.2l-4.6,10.9c0,0-1.1,1.7,0.6,1.7c1.7,0,15.8,0,15.8,0
				L291,289.6z"/>
		</g>
		<path class="st0" d="M170.2,272.4h-15.9c-3.6,0-7.8,2.7-9.4,6l-2.5,5.3c-1.5,3.3,0.2,6,3.8,6h15.9c3.6,0,7.8-2.7,9.4-6l2.5-5.3
			C175.5,275.1,173.8,272.4,170.2,272.4z M168.6,278.8l-2.3,5.1c-0.4,0.8-1.4,1.5-2.3,1.5h-15.4c-0.9,0-1.3-0.7-1-1.5l2.3-5.1
			c0.4-0.8,1.4-1.5,2.3-1.5h15.4C168.5,277.3,169,277.9,168.6,278.8z"/>
		<path class="st0" d="M350.8,289.6l4.7-10.7l-14.7,0.1l-1.8,4.3l9.2,0c0,0-0.3,0.6-0.9,1.4c-0.6,0.8-2.2,0.6-2.2,0.6h-15.4
			c-0.9,0-1.3-0.7-1-1.5l2.3-5.1c0.4-0.8,1.4-1.5,2.3-1.5h22.8l2.2-4.8h-22.9c-3.6,0-7.8,2.7-9.4,6l-2.5,5.3c-1.5,3.3,0.2,6,3.8,6
			h15.9H350.8z"/>
		<path class="st0" d="M365.4,277.3h22.8l2.2-4.8h-22.9c-3.6,0-7.8,2.7-9.4,6l-2.5,5.3c-1.5,3.3,0.2,6,3.8,6h15.9h7.1l1.7-4.3h-22.4
			c-0.9,0-1.3-0.7-1-1.5l0.2-0.4H385l2.1-4.5H363l0.1-0.2C363.5,277.9,364.5,277.3,365.4,277.3z"/>
		<polygon class="st0" points="241.5,289.6 235.7,289.6 243.2,272.6 249,272.6 		"/>
		<polygon class="st0" points="240.5,272.4 211.3,272.4 209.4,277 221.5,277 215.9,289.6 221.1,289.6 226.7,277 238.5,277 		"/>
		<path class="st0" d="M309.9,274.1c0,0-1.3-1.7-3.8-1.7s-5.6,1.2-6.9,4.1c-1.2,2.9-5.8,13.1-5.8,13.1h0.2h4.9l2.1-4.3h10.1l3.3,4.3
			h8.2L309.9,274.1z M302.3,281.7l2-4.7l3.6,4.7H302.3z"/>
		<path class="st1" d="M200.6,298.1h-14.4c-0.9,0-2,0.7-2.4,1.5l-2.8,5.5c-0.4,0.8,0,1.5,0.9,1.5h14.4c0.9,0,2-0.7,2.4-1.5l2.8-5.5
			C201.9,298.8,201.5,298.1,200.6,298.1z M195.5,305.1h-11.1l2.7-5.4h11.1L195.5,305.1z"/>
		<path class="st1" d="M149.7,303.2l-0.9,1.8h-10.7l2.6-5.4h10.7l-0.4,0.9l3.2-0.1l0.4-0.8c0.4-0.8,0-1.5-0.9-1.5h-13.9
			c-0.9,0-1.9,0.7-2.3,1.5l-2.7,5.5c-0.4,0.8,0,1.5,0.9,1.5h13.9c0.9,0,1.9-0.7,2.3-1.5l1.7-3.5l-8.9,0.1l-0.6,1.5L149.7,303.2z"/>
		<path class="st1" d="M222.4,298.1l-3.2,6.9h-10.2l3.3-6.9l-3,0l-3.4,7c-0.4,0.8,0,1.5,0.8,1.5h13.2c0.8,0,1.8-0.7,2.2-1.5l3.3-7
			L222.4,298.1z"/>
		<path class="st1" d="M253.6,298.2l-3.9,8.4h14.9l0.7-1.6c0,0-11.5,0-11.5,0s1-2.1,1-2.1h6.6l0.6-1.4h-6.6l0.9-1.9h11.3l0.7-1.4
			L253.6,298.2L253.6,298.2z"/>
		<path class="st1" d="M176.9,300.2c0.9-2-1.5-2-1.5-2h-13.1l-3.9,8.4h3.4l1.4-3.2h3.2l4.2,3.2h4.9l-5-3.3c0,0,0.2,0,2.4,0
			S176,302.2,176.9,300.2z M163.8,301.9l1.1-2.4h8c0,0,1,0.1,0.5,1s-0.6,1.4-1.9,1.4S163.8,301.9,163.8,301.9z"/>
		<path class="st1" d="M245.4,298.1h-12.5l-3.9,8.5h3.3l1.5-3.3h9c2.3,0,3.7-0.7,4.6-2.9C248.3,298.1,245.4,298.1,245.4,298.1z
			 M244,300.7c-0.6,1.1-0.8,1.2-1.9,1.2s-7.7,0-7.7,0l1.1-2.3h8C243.5,299.6,244.6,299.5,244,300.7z"/>
		<path class="st1" d="M135.1,311.7h9.4l-0.4,1l3.1-0.4c0,0,1.2-2.1-2.4-2.1c-3.6,0-9,0-9,0s-2.9-0.1-3.6,1.6s-2,3.4,1.1,3.4
			c3.1,0,9.8,0,9.8,0l-0.9,2h-10.2l0.5-1l-3,0.3c0,0-1.9,2.2,1.2,2.2s11.5,0,11.5,0s2.1,0,2.9-1.5c0.8-1.5,2.3-3.6-1.4-3.6
			s-9.5,0-9.5,0L135.1,311.7z"/>
		<path class="st1" d="M164,310.2h-3.3l-12,8.4h3.5l2.3-1.8h9.1l0.9,1.8h3.8L164,310.2z M156.9,315.2l4.6-3.3l1.5,3.3H156.9z"/>
		<polygon class="st1" points="173.1,318.6 176.9,310.2 179.6,310.2 184,315.3 193,310.3 195.7,310.3 191.9,318.6 188.8,318.6 
			191.5,312.7 183.1,317.7 182.4,317.7 178.5,312.7 175.8,318.6 		"/>
		<path class="st2" d="M122.6,314.2c-1.3,3.4-5.4,6.1-9,6.1H29.4c-3.6,0-5.4-2.7-3.9-6l5.3-11.9c1.5-3.3,5.6-6,9.2-6h83.1
			c3.6,0,5.5,2.7,4.1,6.1L122.6,314.2z"/>
		<path class="st3" d="M31.4,314.8l3.7-8.5c0,0,0.8-4.1,8.3-4.1c7.5,0,77.7,0,77.7,0l-3.5,8.2c0,0-2,4.1-7.8,4.1
			C104.1,314.5,31.4,314.8,31.4,314.8z"/>
	</g>
</g>
<g id="Calque_3">
</g>
</svg>
