<?xml version="1.0" encoding="utf-8"?>
<!-- Generator: Adobe Illustrator 21.0.2, SVG Export Plug-In . SVG Version: 6.00 Build 0)  -->
<svg version="1.1" id="Calque_1" xmlns="http://www.w3.org/2000/svg" xmlns:xlink="http://www.w3.org/1999/xlink" x="0px" y="0px"
	 viewBox="0 0 500 352" style="enable-background:new 0 0 500 352;" xml:space="preserve">
<style type="text/css">
	.st0{fill:#C30A1D;}
	.st1{fill:#A0141C;}
	.st2{fill:#FFFFFF;}
</style>
<rect x="25" y="24.1" class="st0" width="450" height="303.8"/>
<polygon class="st1" points="208.4,327.9 475,327.9 475,159.3 "/>
<path class="st2" d="M382.6,229c0,6-4.8,10.8-10.6,10.8c-5.9,0-10.7-4.8-10.7-10.8c0-5.9,4.8-10.7,10.5-10.7
	C377.9,218.3,382.6,223,382.6,229 M371.8,219.9c-4.8,0-8.9,4.1-8.9,9.2s4.1,9.2,9,9.2c5,0,9-4.1,9-9.2s-4-9.2-9-9.2H371.8z"/>
<path class="st2" d="M377,235.2h-2.8l-3.7-4.9v4.9h-2.3v-12.3h2.5c3.3,0,5.1,1.2,5.1,3.6c0,1.6-1,3-2.5,3.5l-0.1,0.1L377,235.2
	 M370.9,228.4c1.7,0,2.5-0.6,2.5-1.8c0-1.1-0.9-1.6-2.5-1.6h-0.5v3.4H370.9z"/>
<path class="st2" d="M85,294.5c-4.9,0-8.4-1.1-11.5-4.3l3.3-3.2c2.4,2.4,5,3.1,8.3,3.1c4.2,0,6.7-1.8,6.7-5c0-1.4-0.4-2.6-1.3-3.4
	c-0.8-0.8-1.7-1.1-3.6-1.4l-3.8-0.5c-2.6-0.4-4.7-1.3-6.1-2.6c-1.6-1.5-2.4-3.6-2.4-6.2c0-5.6,4.1-9.5,10.8-9.5
	c4.3,0,7.3,1.1,10.1,3.7l-3.1,3.1c-2-1.9-4.3-2.5-7.1-2.5c-3.8,0-5.9,2.2-5.9,5.1c0,1.2,0.4,2.2,1.2,3c0.8,0.7,2.1,1.3,3.6,1.5
	l3.7,0.5c3,0.5,4.7,1.2,6.1,2.4c1.8,1.5,2.6,3.9,2.6,6.7C96.7,290.9,91.8,294.5,85,294.5"/>
<path class="st2" d="M121,294.2l-2.2-6.5H106l-2.2,6.5h-5.2l11.9-32.4h4l11.9,32.4H121z M112.5,269.1l-5.1,14.4h10L112.5,269.1z"/>
<polygon class="st2" points="134.9,266.2 134.9,276.1 148.3,276.1 148.3,280.5 134.9,280.5 134.9,294.2 129.9,294.2 129.9,261.8 
	150.7,261.8 150.7,266.2 "/>
<polygon class="st2" points="155.7,294.2 155.7,261.8 176.4,261.8 176.4,266.2 160.6,266.2 160.6,275.7 174.1,275.7 174.1,280 
	160.6,280 160.6,289.8 176.4,289.8 176.4,294.2 "/>
<polygon class="st2" points="194.2,266.2 194.2,294.2 189.2,294.2 189.2,266.2 180.3,266.2 180.3,261.8 203.1,261.8 203.1,266.2 "/>
<polygon class="st2" points="220.2,280.9 220.2,294.2 215.3,294.2 215.3,280.9 205.6,261.8 211,261.8 217.8,276 224.6,261.8 
	229.9,261.8 "/>
<path class="st2" d="M267.9,58.5c-1.2,0.2-2.3,4.5-4.6,6.8c-1.7,1.6-3.7,1.6-4.9,3.6c-0.4,0.8-0.3,2.1-0.7,3.3
	c-1,2.5-4.2,2.7-4.3,5.4c0,2.9,2.7,3.5,5.1,5.6c1.9,1.6,2,2.8,4.2,3.6c2,0.7,4.8-1.4,7.4-0.7c2.1,0.6,4.2,1.1,4.6,3.3
	c0.4,2,0,5.1-2.6,4.7c-0.9-0.1-4.6-1.3-9.2-0.9c-5.6,0.6-11.9,2.4-12.5,8.6c-0.3,3.5,3.9,7.5,8.1,6.7c2.9-0.6,1.5-3.9,3.1-5.6
	c2-2.1,13.6,7.3,24.3,7.3c4.5,0,7.9-1.2,11.3-4.7c0.3-0.2,0.7-0.8,1.2-0.9c0.4,0.1,1.2,0.5,1.5,0.7c8.7,6.9,15.2,20.9,47,21.1
	c4.5,0,9.6,2.2,13.8,6c3.7,3.4,5.9,8.7,8,14.2c3.2,8.2,8.9,16,17.6,24.8c0.5,0.5,7.6,6.1,8.1,6.5c0.1,0.1,0.6,1.3,0.4,2
	c-0.1,5.3-0.9,20.7,10.5,21.3c2.8,0.2,2.1-1.8,2.1-3.2c0-2.6-0.5-5.3,0.9-8.1c2-3.7-4-5.5-3.9-13.6c0.1-6.1-5-5-7.6-9.7
	c-1.5-2.7-2.8-4.1-2.7-7.3c0.5-18.4-4-30.6-6.2-33.5c-1.8-2.3-3.3-3.1-1.6-4.2c9.5-6.3,11.7-12.2,11.7-12.2
	c5.1-11.9,9.6-22.8,15.9-27.6c1.3-0.9,4.5-3.4,6.5-4.4c5.9-2.8,9-4.4,10.7-6.1c2.7-2.6,4.9-8.2,2.2-11.5c-3.2-4.1-8.8-0.8-11.3,0.6
	c-17.5,10.4-20.1,28.8-26.2,39.3c-4.8,8.4-12.7,14.6-19.8,15.1c-5.3,0.4-11-0.6-16.6-3.1c-13.8-6.1-21.3-13.9-23.1-15.3
	c-3.7-2.9-32.5-31.1-55.8-32.2c0,0-2.9-5.8-3.6-5.9c-1.7-0.2-3.5,3.5-4.7,3.9C271.1,62.7,269.1,58.3,267.9,58.5"/>
<path class="st2" d="M165.2,227.1c-2.2-0.1-4.1-1.8-4.1-4v-72.8h-24v80.2c0,3.9,3.2,7.1,7,7.1H186c3.9,0,7.1-3.2,7.1-7.1v-80.2h-24
	v72.8C169.3,225.3,167.4,227.1,165.2,227.1"/>
<path class="st2" d="M245.5,150.4h-36.2c-4.3,0-7.8,3.5-7.8,7.8v79.5h23.9v-72.9c0-2.2,1.9-4,4.1-4c2.2,0,4,1.7,4.1,4v72.9h23.9
	v-72.9c0-2.2,1.8-4,4.1-4c2.2,0,4,1.8,4.1,4v72.9h23.9v-79.5c0-4.4-3.4-7.8-7.8-7.8L245.5,150.4L245.5,150.4z"/>
<path class="st2" d="M121.2,215.7H97v21.9H73v-87.3h48.3c4.4,0,7.7,3.5,7.7,7.8v49.7C129.1,212.2,125.6,215.7,121.2,215.7
	 M105.2,164.8c0-2.4-2-4.1-4.1-4.1H97v44.2h4.1c2.1,0,4.1-1.7,4.1-4.2C105.2,200.8,105.2,164.8,105.2,164.8z"/>
<path class="st2" d="M329.8,237.6v-21.9h-8.1v21.9h-24v-79.5c0-4.4,3.5-7.8,7.8-7.8H346c4.3,0,7.8,3.5,7.8,7.8v79.5H329.8
	 M329.8,204.9v-40.2c-0.1-2.2-1.9-3.9-4.1-3.9s-4,1.8-4.1,4V205L329.8,204.9L329.8,204.9z"/>
</svg>
