<?xml version="1.0" encoding="utf-8"?>
<!-- Generator: Adobe Illustrator 21.0.2, SVG Export Plug-In . SVG Version: 6.00 Build 0)  -->
<svg version="1.1" id="Calque_1" xmlns="http://www.w3.org/2000/svg" xmlns:xlink="http://www.w3.org/1999/xlink" x="0px" y="0px"
	 viewBox="0 0 500 138" style="enable-background:new 0 0 500 138;" xml:space="preserve">
<style type="text/css">
	.st0{fill:url(#SVGID_1_);}
	.st1{fill:#00508A;}
	.st2{fill:none;}
	.st3{fill:#9B9FA2;}
</style>
<linearGradient id="SVGID_1_" gradientUnits="userSpaceOnUse" x1="309.2778" y1="38.461" x2="396.0595" y2="38.461">
	<stop  offset="0" style="stop-color:#DEE9F7"/>
	<stop  offset="1" style="stop-color:#87B6E2"/>
</linearGradient>
<path class="st0" d="M390.7,31.2c0.1,0,7.4,5.6,4.8,11.4c-0.1,0.1-6.8,3-6.9,3.1c-0.1,0.1-2.5-0.4-2.7-0.4c-2-0.2-4-0.4-6-0.7
	c-5-0.6-10.3-0.3-15.4-0.6c-10.3-0.5-20.6-1.2-30.8-2.1c-7.5-0.7-15.4-1-22.8-2.7c-3.7-0.9,0.2-2,1.7-2.3c4.5-0.9,9-1.2,13.6-1.6
	c10.3-1,20.6-1.8,30.9-2.4C368.2,32.3,379.5,32.1,390.7,31.2"/>
<path class="st1" d="M106,53.1l-3.6,23c-2,12.6,6.2,16.4,17.7,16.4c11.4,0,20.9-3.9,22.9-16.4l3.6-23H133l-3.2,20.4
	c-0.8,4.8-2.5,8.2-8.1,8.2s-6.2-3.4-5.5-8.2l3.2-20.4H106"/>
<path class="st1" d="M179.9,66.6c-0.3-3.9-3.2-6-7.2-6c-3.6,0-7.3,2.4-8.5,6H179.9L179.9,66.6z M150.8,73
	c1.8-13,10.7-21.2,23.9-21.2c12.4,0,20,7.7,18.2,20.4C191,85.3,180.6,92.5,168,92.5c-8.7,0-16.7-4.1-17.5-13.1h13
	c1.1,2.5,3.1,3.5,6,3.5c5.6,0,8.9-3,9.7-8.5h-28.5L150.8,73"/>
<path class="st1" d="M230,54.3c-3.7-1.8-7.9-2.5-12.2-2.5c-8.3,0-17.5,4.2-18.9,13.5c-1.1,6.8,2.8,8.9,6.9,10
	c4.1,1.1,8.3,1.3,7.8,4.2c-0.3,2.1-3,2.9-4.7,2.9c-3.3,0-7.6-1.9-10.1-3.9l-6.4,9.4c4.2,2.8,9.3,4.4,14.7,4.4
	c8.8,0,18.6-4.2,20.2-14.2c1.1-7.1-3.2-10-9.3-11.3c-1.8-0.4-6-0.7-5.6-3.3c0.3-1.9,3.1-2.6,4.6-2.6c2.3,0,5.1,0.7,7,1.9L230,54.3"
	/>
<path class="st1" d="M261.2,91.2h13.5l9.8-61.7H271l-4.3,27.3c-2.3-3.3-6.6-5-11-5c-11.3,0-20.6,9.4-22.3,20.3
	c-1.7,10.9,4.7,20.4,16,20.4c4.5,0,9.4-1.7,12.4-5.5h0.1L261.2,91.2L261.2,91.2z M257.4,63.6c5.5,0,8.1,3.9,7.3,8.6
	c-0.8,4.8-4.5,8.5-10,8.5s-8.1-3.7-7.3-8.5C248,67.5,251.9,63.6,257.4,63.6"/>
<path class="st1" d="M298,66.6c1.4-3.9,5-6,9-6c3.6,0,6.6,2.4,6.7,6H298L298,66.6z M325.3,73c2.1-13-4.3-21.2-17.5-21.2
	c-12.4,0-22.3,7.7-24.3,20.4c-2.1,13.1,6.2,20.3,18.9,20.3c8.7,0,17.9-4.1,21.5-13.1h-13c-1.9,2.5-4.1,3.5-7,3.5c-5.6,0-8-3-7.1-8.5
	H325L325.3,73"/>
<polyline class="st1" points="344.2,53.1 329,53.1 342.9,91.2 351.6,91.2 377.5,53.1 362.4,53.1 350.2,72.7 344.2,53.1 "/>
<polyline class="st1" points="394.4,53.1 380.8,53.1 374.8,91.2 388.3,91.2 394.4,53.1 "/>
<polyline class="st1" points="420.5,29.6 407,29.6 397.2,91.2 410.8,91.2 420.5,29.6 "/>
<polyline class="st1" points="442.9,29.6 429.4,29.6 419.7,91.2 433.2,91.2 442.9,29.6 "/>
<path class="st1" d="M456.9,66.6c1.4-3.9,5-6,9-6c3.6,0,6.6,2.4,6.7,6H456.9L456.9,66.6z M484.1,73c2.1-13-4.3-21.2-17.5-21.2
	c-12.4,0-22.3,7.7-24.3,20.4c-2.1,13.1,6.2,20.3,18.9,20.3c8.7,0,17.9-4.1,21.5-13.1h-13c-1.9,2.5-4.1,3.5-7,3.5c-5.6,0-8-3-7.1-8.5
	h28.5V73"/>
<path class="st2" d="M394.1,34.7c-1.5-2.1-3.4-3.5-3.4-3.5c-12.1,1-33.5,1.3-33.5,1.8c2.1,0-21.1,1.1-20.6,1.4
	c-9.3,1-34.1,2.3-25.8,4.8c5.5,1.3,37.5,4.1,37.5,4.1c0.1-0.4,28.4,1.2,37.5,2L394.1,34.7z"/>
<path class="st2" d="M395.4,42.6C395.5,42.6,395.5,42.6,395.4,42.6c0.1-0.1,0.1-0.1,0.1-0.2L395.4,42.6z"/>
<path class="st1" d="M391.1,30.9c-4.2,0-8.1,3.4-8.8,7.6c-0.7,4.2,2.2,7.6,6.4,7.6c4.2,0,8.1-3.4,8.8-7.6
	C398.2,34.3,395.3,30.9,391.1,30.9"/>
<path class="st3" d="M266,104.2c-0.7-1.6-2.3-2.4-4.3-2.4c-2.8,0-5.7,1.6-6.2,4.1c-0.4,2.2,1.3,3.3,3.3,4.1l1.2,0.5
	c1.5,0.6,3,1.3,2.6,3c-0.3,1.7-2,3.1-4,3.1s-3.4-1.3-3-3l-2.4,0.4c-0.1,2.6,1.9,4.5,4.9,4.5c3.3,0,6.3-2.1,6.8-5
	c0.5-2.7-1.2-3.9-3.7-4.8l-1.2-0.4c-1.1-0.4-2.4-1-2.2-2.3c0.3-1.4,2-2.3,3.5-2.3c1.4,0,2.2,0.5,2.7,1.5L266,104.2"/>
<polyline class="st3" points="270.3,116.5 264.5,123.9 267,123.9 279.2,108.2 276.7,108.2 271.9,114.5 269.2,108.2 266.6,108.2 
	270.3,116.5 "/>
<path class="st3" d="M286.7,109.7c-0.4-1.1-1.4-1.7-2.8-1.7c-1.9,0-3.6,1.3-3.9,2.9c-0.2,1.4,0.6,1.9,1.8,2.5l2,1
	c0.5,0.3,0.7,0.6,0.6,1.1c-0.2,0.8-1.1,1.4-2,1.4c-1.1,0-1.5-0.5-1.9-1.3l-2,0.7c0.4,1.4,1.9,2.2,3.6,2.2c2.1,0,4.2-1.4,4.6-3.3
	c0.3-1.6-0.9-2.3-2.1-2.8c-1.3-0.5-2.5-0.9-2.3-1.8c0.1-0.5,0.8-1,1.4-1c0.6,0,1.1,0.4,1.3,0.9L286.7,109.7"/>
<polyline class="st3" points="292.5,110 294.6,110 295,108.2 292.8,108.2 293.5,104.4 291.3,104.4 290.6,108.2 289.4,108.2 
	289.1,110 290.3,110 288.8,118.2 291,118.2 292.5,110 "/>
<path class="st3" d="M299.2,103.5l3.5,3.2l1.2-0.6l-2.4-3.5L299.2,103.5L299.2,103.5z M305.6,113.5l0.1-0.3c0.5-3-0.8-5.3-4.4-5.3
	c-3.7,0-6,2.3-6.6,5.4c-0.5,2.9,1.2,5.2,4.7,5.2c2.2,0,4.4-1,5.8-2.7l-1.7-0.9c-1.1,1.2-2.1,1.9-3.8,1.9c-2.1,0-3.1-1.6-2.9-3.3
	L305.6,113.5L305.6,113.5z M297.2,112.1c0.5-1.4,2-2.5,3.7-2.5c1.8,0,2.7,1,2.7,2.5H297.2"/>
<path class="st3" d="M310.8,108.2h-2.2l-1.8,9.9h2.2l0.9-4.9c0.3-1.6,0.9-3.7,3.2-3.7c2,0,1.8,2,1.5,3.3l-1,5.3h2.2l0.9-4.9
	c0.3-1.5,0.8-3.7,3.2-3.7c1.9,0,1.8,1.6,1.6,2.9l-1,5.6h2.2l1.1-6c0.4-2.3,0-4.3-3-4.3c-1.4,0-3,0.7-3.9,1.8c-0.5-1.1-1.5-1.8-3-1.8
	c-1.3,0-2.5,0.7-3.3,1.5h-0.1L310.8,108.2"/>
<path class="st3" d="M336.9,113.5l0.1-0.3c0.5-3-0.8-5.3-4.4-5.3c-3.7,0-6,2.3-6.6,5.4c-0.5,2.9,1.2,5.2,4.7,5.2
	c2.2,0,4.4-1,5.8-2.7l-1.7-0.9c-1.1,1.2-2.1,1.9-3.8,1.9c-2.1,0-3.1-1.6-2.9-3.3L336.9,113.5L336.9,113.5z M328.5,112.1
	c0.5-1.4,2-2.5,3.7-2.5c1.8,0,2.7,1,2.7,2.5H328.5"/>
<path class="st3" d="M346.2,109.7c-0.4-1.1-1.4-1.7-2.8-1.7c-1.9,0-3.6,1.3-3.9,2.9c-0.2,1.4,0.6,1.9,1.7,2.5l2,1
	c0.5,0.3,0.7,0.6,0.6,1.1c-0.2,0.8-1.1,1.4-2,1.4c-1.1,0-1.5-0.5-1.9-1.3l-2,0.7c0.4,1.4,1.9,2.2,3.6,2.2c2.1,0,4.2-1.4,4.6-3.3
	c0.3-1.6-0.9-2.3-2.1-2.8s-2.5-0.9-2.3-1.8c0.1-0.5,0.8-1,1.4-1s1.1,0.4,1.3,0.9L346.2,109.7"/>
<path class="st3" d="M360.4,116.8c-2.3,0-3.3-1.7-3-3.6c0.3-1.9,2-3.6,4.3-3.6c2.4,0,3.4,1.6,3.1,3.6
	C364.5,115.2,362.8,116.8,360.4,116.8L360.4,116.8z M363.8,118.2h2.2l3.4-18.4h-2.2l-1.9,10.2l0,0c-0.7-1.2-1.9-2-3.6-2
	c-3.3,0-5.9,2.5-6.4,5.2c-0.5,2.8,1,5.4,4.5,5.4c1.6,0,3.2-0.8,4.3-1.9h0.1L363.8,118.2"/>
<polyline class="st3" points="374,101.8 370.2,107.7 371.5,108.1 375.8,102.5 374,101.8 "/>
<path class="st3" d="M383.2,107.9c-3.4,0-6.6,2.3-7.1,5.3c-0.6,3,1.7,5.3,5.2,5.3c3.4,0,6.6-2.3,7.1-5.3
	C388.9,110.2,386.6,107.9,383.2,107.9L383.2,107.9z M382.9,109.8c2.2,0,3.6,1.6,3.3,3.5c-0.3,1.9-2.4,3.5-4.6,3.5
	c-2.2,0-3.6-1.6-3.3-3.5C378.6,111.3,380.7,109.8,382.9,109.8"/>
<path class="st3" d="M391.5,108.2l-1.1,5.7c-0.5,2.7,0.6,4.6,4,4.6s5.2-1.8,5.7-4.6l1.1-5.7H399l-1,5.5c-0.3,1.6-1,3-3.2,3
	c-2.2,0-2.4-1.4-2.1-3l1-5.5H391.5"/>
<polyline class="st3" points="405,108.2 402.5,108.2 406.4,118.5 414.1,108.2 411.6,108.2 407.2,114.4 405,108.2 "/>
<path class="st3" d="M424.7,113.5l0.1-0.3c0.5-3-0.7-5.3-4.4-5.3c-3.7,0-6,2.3-6.6,5.4c-0.5,2.9,1.2,5.2,4.7,5.2
	c2.2,0,4.4-1,5.8-2.7l-1.7-0.9c-1.1,1.2-2.1,1.9-3.8,1.9c-2.1,0-3.1-1.6-2.9-3.3L424.7,113.5L424.7,113.5z M416.3,112.1
	c0.5-1.4,2-2.5,3.7-2.5c1.8,0,2.7,1,2.7,2.5H416.3"/>
<path class="st3" d="M430.2,108.2H428l-1.8,9.9h2.2l0.9-4.9c0.3-1.6,0.9-3.5,3.3-3.5c0.5,0,0.9,0.1,1.3,0.4l1.3-1.7
	c-0.5-0.3-1.1-0.5-1.7-0.5c-1.5,0-2.7,0.7-3.5,1.9h-0.1L430.2,108.2"/>
<polyline class="st3" points="439.4,110 441.6,110 441.9,108.2 439.7,108.2 440.4,104.4 438.2,104.4 437.5,108.2 436.3,108.2 
	436,110 437.2,110 435.7,118.2 437.9,118.2 439.4,110 "/>
<path class="st3" d="M443.2,108.2l-1.1,5.7c-0.5,2.7,0.6,4.6,4,4.6s5.2-1.8,5.7-4.6l1.1-5.7h-2.2l-1,5.5c-0.3,1.6-1,3-3.2,3
	s-2.4-1.4-2.1-3l1-5.5H443.2"/>
<path class="st3" d="M458.5,108.2h-2.2l-1.8,9.9h2.2l0.9-4.9c0.3-1.6,0.9-3.5,3.3-3.5c0.5,0,0.9,0.1,1.3,0.4l1.3-1.7
	c-0.5-0.3-1.1-0.5-1.7-0.5c-1.5,0-2.7,0.7-3.5,1.9h-0.1L458.5,108.2"/>
<path class="st3" d="M474.2,113.5l0.1-0.3c0.5-3-0.8-5.3-4.4-5.3c-3.7,0-6,2.3-6.6,5.4c-0.5,2.9,1.2,5.2,4.7,5.2
	c2.2,0,4.4-1,5.8-2.7l-1.7-0.9c-1.1,1.2-2.1,1.9-3.8,1.9c-2.1,0-3.2-1.6-2.9-3.3L474.2,113.5L474.2,113.5z M465.8,112.1
	c0.5-1.4,2-2.5,3.7-2.5c1.8,0,2.7,1,2.7,2.5H465.8"/>
<path class="st3" d="M483.4,109.7c-0.4-1.1-1.4-1.7-2.8-1.7c-1.9,0-3.6,1.3-3.9,2.9c-0.2,1.4,0.6,1.9,1.8,2.5l2,1
	c0.5,0.3,0.7,0.6,0.6,1.1c-0.2,0.8-1.1,1.4-2,1.4c-1.1,0-1.5-0.5-1.9-1.3l-2,0.7c0.4,1.4,1.9,2.2,3.6,2.2c2.1,0,4.2-1.4,4.6-3.3
	c0.3-1.6-0.9-2.3-2.1-2.8c-1.3-0.5-2.5-0.9-2.4-1.8c0.1-0.5,0.8-1,1.4-1s1.1,0.4,1.3,0.9L483.4,109.7"/>
<rect x="112.7" y="110.1" class="st1" width="133.2" height="1.5"/>
<path class="st1" d="M82.2,84.9c7.9-7.8,12.5-16.4,14.1-26.3c1.8-11.3-1-21.9-7.8-29.9C81.8,20.8,72,16.5,60.9,16.5
	c-22.7,0-44.2,18.4-47.8,41.1c-1.8,11.1,1,21.5,7.7,29.4s16.6,12.2,27.8,12.2c7.8,0,16.6-2.5,23.5-6.7l19.5,21l17.8,0.3L82.2,84.9z
	 M59.7,29c7.5,0,14,2.9,18.4,8c4.6,5.4,6.4,12.7,5.2,20.5c-1,6.9-4,12.7-9,17.8l-9.9-12.5H47.2L64,82.9c-4.3,2.3-9.6,3.8-14.1,3.8
	c-7.4,0-13.9-2.9-18.4-8.1c-4.6-5.4-6.5-12.7-5.3-20.4C28.7,42.1,43.8,29,59.7,29z"/>
</svg>
