<?xml version="1.0" encoding="utf-8"?>
<!-- Generator: Adobe Illustrator 15.0.0, SVG Export Plug-In . SVG Version: 6.00 Build 0)  -->
<!DOCTYPE svg PUBLIC "-//W3C//DTD SVG 1.1//EN" "http://www.w3.org/Graphics/SVG/1.1/DTD/svg11.dtd">
<svg version="1.1" id="Calque_1" xmlns="http://www.w3.org/2000/svg" xmlns:xlink="http://www.w3.org/1999/xlink" x="0px" y="0px"
	 width="500px" height="500px" viewBox="0 0 500 500" enable-background="new 0 0 500 500" xml:space="preserve">
<g>
	<path fill-rule="evenodd" clip-rule="evenodd" fill="#00508A" d="M105.965,234.129l-3.636,22.963
		c-1.986,12.558,6.243,16.419,17.685,16.419c11.446,0,20.902-3.861,22.882-16.419l3.637-22.963H133.01l-3.224,20.359
		c-0.764,4.83-2.493,8.249-8.064,8.249c-5.576,0-6.221-3.419-5.457-8.249l3.217-20.359H105.965"/>
	<path fill-rule="evenodd" clip-rule="evenodd" fill="#00508A" d="M179.911,247.654c-0.26-3.938-3.229-6.018-7.171-6.018
		c-3.642,0-7.323,2.376-8.506,6.018H179.911L179.911,247.654z M150.769,254.045c1.844-13.005,10.654-21.177,23.883-21.177
		c12.408,0,20.015,7.652,18.217,20.357c-1.868,13.149-12.313,20.285-24.941,20.285c-8.698,0-16.661-4.088-17.543-13.078h13.007
		c1.126,2.525,3.066,3.493,5.967,3.493c5.571,0,8.891-2.973,9.671-8.469H150.57L150.769,254.045"/>
	<path fill-rule="evenodd" clip-rule="evenodd" fill="#00508A" d="M230.001,235.319c-3.659-1.784-7.861-2.451-12.17-2.451
		c-8.326,0-17.453,4.16-18.934,13.523c-1.086,6.834,2.828,8.916,6.881,10.029c4.062,1.118,8.275,1.264,7.8,4.236
		c-0.328,2.081-2.986,2.902-4.694,2.902c-3.337,0-7.646-1.935-10.09-3.869l-6.39,9.434c4.157,2.827,9.264,4.388,14.681,4.388
		c8.846,0,18.646-4.161,20.236-14.192c1.114-7.059-3.173-10.029-9.287-11.294c-1.798-0.37-5.978-0.744-5.565-3.342
		c0.306-1.931,3.087-2.601,4.649-2.601c2.301,0,5.078,0.744,6.984,1.857L230.001,235.319"/>
	<path fill-rule="evenodd" clip-rule="evenodd" fill="#00508A" d="M261.225,272.245h13.523l9.761-61.671h-13.517l-4.321,27.271
		c-2.295-3.342-6.639-4.977-11.028-4.977c-11.292,0-20.574,9.362-22.305,20.283c-1.73,10.927,4.728,20.359,16.022,20.359
		c4.462,0,9.411-1.707,12.391-5.496h0.147L261.225,272.245L261.225,272.245z M257.352,244.609c5.497,0,8.076,3.937,7.33,8.617
		c-0.764,4.829-4.548,8.545-10.045,8.545c-5.497,0-8.11-3.716-7.34-8.545C248.036,248.545,251.854,244.609,257.352,244.609"/>
	<path fill-rule="evenodd" clip-rule="evenodd" fill="#00508A" d="M298.025,247.654c1.448-3.938,5.039-6.018,8.98-6.018
		c3.637,0,6.605,2.376,6.702,6.018H298.025L298.025,247.654z M325.251,254.045c2.06-13.005-4.298-21.177-17.526-21.177
		c-12.407,0-22.311,7.652-24.324,20.357c-2.081,13.149,6.227,20.285,18.855,20.285c8.697,0,17.895-4.088,21.468-13.078h-13.008
		c-1.889,2.525-4.117,3.493-7.018,3.493c-5.571,0-8.003-2.973-7.132-8.469h28.458L325.251,254.045"/>
	<polyline fill-rule="evenodd" clip-rule="evenodd" fill="#00508A" points="344.152,234.129 328.989,234.129 342.946,272.245 
		351.565,272.245 377.514,234.129 362.352,234.129 350.197,253.675 344.152,234.129 	"/>
	<polyline fill-rule="evenodd" clip-rule="evenodd" fill="#00508A" points="394.36,234.129 380.839,234.129 374.804,272.245 
		388.333,272.245 394.36,234.129 	"/>
	<polyline fill-rule="evenodd" clip-rule="evenodd" fill="#00508A" points="420.512,210.574 406.99,210.574 397.233,272.245 
		410.762,272.245 420.512,210.574 	"/>
	<polyline fill-rule="evenodd" clip-rule="evenodd" fill="#00508A" points="442.936,210.574 429.414,210.574 419.658,272.245 
		433.181,272.245 442.936,210.574 	"/>
	<path fill-rule="evenodd" clip-rule="evenodd" fill="#00508A" d="M456.899,247.654c1.437-3.938,5.033-6.018,8.97-6.018
		c3.642,0,6.61,2.376,6.707,6.018H456.899L456.899,247.654z M484.119,254.045c2.053-13.005-4.299-21.177-17.525-21.177
		c-12.41,0-22.312,7.652-24.331,20.357c-2.08,13.149,6.232,20.285,18.861,20.285c8.692,0,17.889-4.088,21.462-13.078h-13.007
		c-1.878,2.525-4.112,3.493-7.013,3.493c-5.565,0-7.997-2.973-7.126-8.469h28.459L484.119,254.045"/>
	<g>
		<defs>
			<path id="SVGID_1_" d="M390.662,212.209c0.113,0.008,7.426,5.602,4.818,11.35c-0.051,0.105-6.775,3.047-6.877,3.098
				c-0.497-0.623-40.188-2.865-40.256-2.407c0.012-0.033-31.986-2.75-37.496-4.128c-8.312-2.455,16.515-3.787,25.807-4.816
				c-0.549-0.253,22.701-1.377,20.637-1.377C357.216,213.465,378.621,213.241,390.662,212.209"/>
		</defs>
		<clipPath id="SVGID_2_">
			<use xlink:href="#SVGID_1_"  overflow="visible"/>
		</clipPath>
		<polyline clip-path="url(#SVGID_2_)" fill="#A2C5E9" points="364.816,262.806 360.168,259.172 394.519,215.212 399.163,218.843 
			364.816,262.806 		"/>
		<polyline clip-path="url(#SVGID_2_)" fill-rule="evenodd" clip-rule="evenodd" fill="#87B6E2" points="360.168,259.172 
			355.52,255.545 389.865,211.582 394.519,215.212 360.168,259.172 		"/>
		<polyline clip-path="url(#SVGID_2_)" fill="#90BBE4" points="355.52,255.545 350.87,251.91 385.222,207.948 389.865,211.582 
			355.52,255.545 		"/>
		<polyline clip-path="url(#SVGID_2_)" fill="#98BFE6" points="350.87,251.91 346.221,248.279 380.572,204.316 385.222,207.948 
			350.87,251.91 		"/>
		<polyline clip-path="url(#SVGID_2_)" fill="#A2C5E9" points="346.221,248.279 341.573,244.648 375.924,200.683 380.572,204.316 
			346.221,248.279 		"/>
		<polyline clip-path="url(#SVGID_2_)" fill="#AAC9EA" points="341.573,244.648 336.924,241.018 371.275,197.052 375.924,200.683 
			341.573,244.648 		"/>
		<polyline clip-path="url(#SVGID_2_)" fill="#B1CDEC" points="336.924,241.018 332.274,237.387 366.627,193.422 371.275,197.052 
			336.924,241.018 		"/>
		<polyline clip-path="url(#SVGID_2_)" fill="#BCD3EF" points="332.274,237.387 327.632,233.753 361.978,189.791 366.627,193.422 
			332.274,237.387 		"/>
		<polyline clip-path="url(#SVGID_2_)" fill="#C2D7F0" points="327.632,233.753 322.982,230.122 357.328,186.16 361.978,189.791 
			327.632,233.753 		"/>
		<polyline clip-path="url(#SVGID_2_)" fill="#CADBF2" points="322.982,230.122 318.335,226.491 352.681,182.529 357.328,186.16 
			322.982,230.122 		"/>
		<polyline clip-path="url(#SVGID_2_)" fill="#D2E1F4" points="318.335,226.491 313.686,222.858 348.037,178.897 352.681,182.529 
			318.335,226.491 		"/>
		<polyline clip-path="url(#SVGID_2_)" fill="#DEE9F7" points="313.686,222.858 309.043,219.228 343.382,175.265 348.037,178.897 
			313.686,222.858 		"/>
	</g>
	<path fill-rule="evenodd" clip-rule="evenodd" fill="#00508A" d="M391.121,211.912c-4.157,0-8.128,3.419-8.784,7.578
		c-0.655,4.163,2.218,7.582,6.38,7.582s8.121-3.419,8.777-7.582C398.162,215.331,395.277,211.912,391.121,211.912"/>
	<path fill-rule="evenodd" clip-rule="evenodd" fill="#9B9FA2" d="M266.05,285.252c-0.724-1.556-2.262-2.427-4.327-2.427
		c-2.805,0-5.746,1.551-6.221,4.146c-0.407,2.229,1.317,3.27,3.285,4.062l1.199,0.464c1.487,0.577,2.952,1.318,2.636,3.037
		c-0.306,1.679-2.002,3.127-3.993,3.127c-1.99,0-3.382-1.278-3.03-3.043l-2.416,0.431c-0.079,2.567,1.906,4.479,4.904,4.479
		c3.325,0,6.311-2.082,6.843-4.993c0.498-2.676-1.238-3.932-3.71-4.825l-1.244-0.44c-1.086-0.385-2.393-1.041-2.161-2.297
		c0.255-1.402,2.042-2.273,3.519-2.273c1.401,0,2.193,0.509,2.697,1.505L266.05,285.252"/>
	<polyline fill-rule="evenodd" clip-rule="evenodd" fill="#9B9FA2" points="270.342,297.49 264.466,304.888 266.966,304.888 
		279.158,289.245 276.676,289.245 271.903,295.557 269.171,289.245 266.592,289.245 270.342,297.49 	"/>
	<path fill-rule="evenodd" clip-rule="evenodd" fill="#9B9FA2" d="M286.737,290.687c-0.419-1.08-1.425-1.74-2.822-1.74
		c-1.872,0-3.631,1.271-3.93,2.889c-0.249,1.362,0.587,1.912,1.752,2.511l1.979,0.995c0.464,0.301,0.713,0.555,0.616,1.087
		c-0.152,0.848-1.069,1.401-2.007,1.401c-1.052,0-1.522-0.53-1.854-1.278l-2.025,0.748c0.356,1.402,1.9,2.228,3.574,2.228
		c2.139,0,4.207-1.402,4.559-3.292c0.294-1.571-0.882-2.295-2.138-2.827c-1.257-0.531-2.512-0.91-2.348-1.787
		c0.103-0.548,0.764-0.973,1.386-0.973c0.634,0,1.131,0.385,1.312,0.871L286.737,290.687"/>
	<polyline fill-rule="evenodd" clip-rule="evenodd" fill="#9B9FA2" points="292.477,291.032 294.644,291.032 294.972,289.245 
		292.805,289.245 293.502,285.438 291.29,285.438 290.594,289.245 289.384,289.245 289.056,291.032 290.266,291.032 
		288.768,299.188 290.979,299.188 292.477,291.032 	"/>
	<path fill-rule="evenodd" clip-rule="evenodd" fill="#9B9FA2" d="M299.201,284.528l3.456,3.166l1.183-0.576l-2.421-3.529
		L299.201,284.528L299.201,284.528z M305.559,294.533l0.052-0.3c0.542-2.952-0.753-5.287-4.412-5.287
		c-3.716,0-6.035,2.289-6.589,5.355c-0.542,2.929,1.177,5.225,4.694,5.225c2.234,0,4.435-0.995,5.831-2.72l-1.702-0.911
		c-1.052,1.188-2.099,1.934-3.796,1.934c-2.108,0-3.149-1.595-2.855-3.296H305.559L305.559,294.533z M297.166,293.092
		c0.532-1.426,2.002-2.49,3.721-2.49c1.775,0,2.722,1.002,2.715,2.49H297.166"/>
	<path fill-rule="evenodd" clip-rule="evenodd" fill="#9B9FA2" d="M310.808,289.245h-2.218l-1.821,9.942h2.206l0.904-4.886
		c0.284-1.551,0.86-3.654,3.224-3.654c2.036,0,1.754,1.974,1.517,3.27l-0.973,5.271h2.216l0.899-4.886
		c0.277-1.527,0.843-3.654,3.207-3.654c1.934,0,1.832,1.635,1.601,2.906l-1.035,5.634h2.217l1.086-5.95
		c0.419-2.251,0-4.291-3.02-4.291c-1.448,0-2.958,0.7-3.868,1.758c-0.532-1.098-1.494-1.758-2.992-1.758
		c-1.255,0-2.533,0.683-3.331,1.549h-0.056L310.808,289.245"/>
	<path fill-rule="evenodd" clip-rule="evenodd" fill="#9B9FA2" d="M336.913,294.533l0.051-0.3c0.537-2.952-0.753-5.287-4.417-5.287
		c-3.71,0-6.028,2.289-6.583,5.355c-0.543,2.929,1.176,5.225,4.693,5.225c2.233,0,4.435-0.995,5.831-2.72l-1.703-0.911
		c-1.052,1.188-2.097,1.934-3.794,1.934c-2.114,0-3.15-1.595-2.862-3.296H336.913L336.913,294.533z M328.521,293.092
		c0.53-1.426,2.001-2.49,3.721-2.49c1.77,0,2.72,1.002,2.715,2.49H328.521"/>
	<path fill-rule="evenodd" clip-rule="evenodd" fill="#9B9FA2" d="M346.165,290.687c-0.413-1.08-1.425-1.74-2.822-1.74
		c-1.872,0-3.625,1.271-3.919,2.889c-0.249,1.362,0.576,1.912,1.747,2.511l1.979,0.995c0.465,0.301,0.713,0.555,0.617,1.087
		c-0.159,0.848-1.074,1.401-2.008,1.401c-1.058,0-1.521-0.53-1.856-1.278l-2.029,0.748c0.356,1.402,1.899,2.228,3.574,2.228
		c2.138,0,4.22-1.402,4.563-3.292c0.288-1.571-0.882-2.295-2.137-2.827c-1.25-0.531-2.511-0.91-2.348-1.787
		c0.097-0.548,0.764-0.973,1.38-0.973c0.64,0,1.137,0.385,1.312,0.871L346.165,290.687"/>
	<path fill-rule="evenodd" clip-rule="evenodd" fill="#9B9FA2" d="M360.445,297.829c-2.336,0-3.32-1.74-2.98-3.613
		c0.339-1.85,2.013-3.568,4.297-3.568c2.388,0,3.435,1.635,3.083,3.568C364.483,296.168,362.849,297.829,360.445,297.829
		L360.445,297.829z M363.811,299.188h2.211l3.387-18.442h-2.216l-1.866,10.151h-0.046c-0.689-1.188-1.928-1.95-3.648-1.95
		c-3.318,0-5.864,2.481-6.361,5.208c-0.532,2.845,0.973,5.372,4.513,5.372c1.629,0,3.167-0.764,4.259-1.889h0.051L363.811,299.188"
		/>
	<polyline fill-rule="evenodd" clip-rule="evenodd" fill="#9B9FA2" points="374.018,282.825 370.24,288.669 371.524,289.153 
		375.845,283.487 374.018,282.825 	"/>
	<path fill-rule="evenodd" clip-rule="evenodd" fill="#9B9FA2" d="M383.197,288.946c-3.445,0-6.572,2.289-7.115,5.287
		c-0.555,2.997,1.731,5.293,5.17,5.293c3.449,0,6.571-2.296,7.12-5.293C388.921,291.235,386.635,288.946,383.197,288.946
		L383.197,288.946z M382.863,290.772c2.189,0,3.642,1.571,3.298,3.461c-0.341,1.871-2.387,3.473-4.57,3.473
		c-2.188,0-3.642-1.602-3.303-3.473C378.639,292.344,380.674,290.772,382.863,290.772"/>
	<path fill-rule="evenodd" clip-rule="evenodd" fill="#9B9FA2" d="M391.454,289.245l-1.052,5.712
		c-0.498,2.726,0.64,4.569,4.026,4.569c3.393,0,5.208-1.844,5.712-4.569l1.052-5.712h-2.216l-1.008,5.502
		c-0.293,1.59-1.017,2.998-3.212,2.998c-2.184,0-2.397-1.408-2.104-2.998l1.008-5.502H391.454"/>
	<polyline fill-rule="evenodd" clip-rule="evenodd" fill="#9B9FA2" points="405.027,289.245 402.545,289.245 406.43,299.526 
		414.121,289.245 411.639,289.245 407.188,295.448 405.027,289.245 	"/>
	<path fill-rule="evenodd" clip-rule="evenodd" fill="#9B9FA2" d="M424.708,294.533l0.057-0.3c0.543-2.952-0.746-5.287-4.411-5.287
		c-3.715,0-6.029,2.289-6.595,5.355c-0.531,2.929,1.183,5.225,4.695,5.225c2.238,0,4.444-0.995,5.842-2.72l-1.703-0.911
		c-1.052,1.188-2.104,1.934-3.8,1.934c-2.115,0-3.15-1.595-2.862-3.296H424.708L424.708,294.533z M416.321,293.092
		c0.526-1.426,2.008-2.49,3.727-2.49c1.765,0,2.715,1.002,2.715,2.49H416.321"/>
	<path fill-rule="evenodd" clip-rule="evenodd" fill="#9B9FA2" d="M430.178,289.245h-2.212l-1.821,9.942h2.206l0.905-4.886
		c0.293-1.612,0.938-3.529,3.324-3.529c0.516,0,0.939,0.106,1.278,0.407l1.329-1.742c-0.492-0.3-1.091-0.491-1.729-0.491
		c-1.477,0-2.743,0.739-3.501,1.91h-0.068L430.178,289.245"/>
	<polyline fill-rule="evenodd" clip-rule="evenodd" fill="#9B9FA2" points="439.391,291.032 441.551,291.032 441.879,289.245 
		439.718,289.245 440.419,285.438 438.202,285.438 437.507,289.245 436.302,289.245 435.974,291.032 437.179,291.032 
		435.681,299.188 437.892,299.188 439.391,291.032 	"/>
	<path fill-rule="evenodd" clip-rule="evenodd" fill="#9B9FA2" d="M443.235,289.245l-1.052,5.712
		c-0.498,2.726,0.64,4.569,4.032,4.569c3.389,0,5.209-1.844,5.706-4.569l1.052-5.712h-2.216l-1.008,5.502
		c-0.293,1.59-1.017,2.998-3.206,2.998s-2.403-1.408-2.109-2.998l1.012-5.502H443.235"/>
	<path fill-rule="evenodd" clip-rule="evenodd" fill="#9B9FA2" d="M458.534,289.245h-2.218l-1.827,9.942h2.218l0.894-4.886
		c0.3-1.612,0.944-3.529,3.325-3.529c0.521,0,0.944,0.106,1.284,0.407l1.329-1.742c-0.486-0.3-1.091-0.491-1.731-0.491
		c-1.476,0-2.742,0.739-3.5,1.91h-0.073L458.534,289.245"/>
	<path fill-rule="evenodd" clip-rule="evenodd" fill="#9B9FA2" d="M474.183,294.533l0.051-0.3c0.548-2.952-0.753-5.287-4.405-5.287
		c-3.721,0-6.035,2.289-6.595,5.355c-0.543,2.929,1.176,5.225,4.694,5.225c2.239,0,4.434-0.995,5.837-2.72l-1.709-0.911
		c-1.052,1.188-2.098,1.934-3.789,1.934c-2.12,0-3.156-1.595-2.867-3.296H474.183L474.183,294.533z M465.79,293.092
		c0.531-1.426,2.007-2.49,3.721-2.49c1.776,0,2.727,1.002,2.716,2.49H465.79"/>
	<path fill-rule="evenodd" clip-rule="evenodd" fill="#9B9FA2" d="M483.44,290.687c-0.412-1.08-1.425-1.74-2.822-1.74
		c-1.878,0-3.63,1.271-3.925,2.889c-0.249,1.362,0.577,1.912,1.754,2.511l1.979,0.995c0.464,0.301,0.708,0.555,0.611,1.087
		c-0.158,0.848-1.074,1.401-2.003,1.401c-1.057,0-1.526-0.53-1.854-1.278l-2.035,0.748c0.361,1.402,1.899,2.228,3.573,2.228
		c2.144,0,4.22-1.402,4.57-3.292c0.282-1.571-0.889-2.295-2.139-2.827c-1.255-0.531-2.516-0.91-2.353-1.787
		c0.102-0.548,0.77-0.973,1.38-0.973c0.645,0,1.138,0.385,1.313,0.871L483.44,290.687"/>
	
		<line fill="none" stroke="#00508A" stroke-width="1.4773" stroke-miterlimit="3.8637" x1="112.689" y1="291.88" x2="245.842" y2="291.88"/>
	<path fill-rule="evenodd" clip-rule="evenodd" fill="#00508A" d="M63.199,246.207H52.193l15.31,18.312
		c-5.158,3.496-12.091,5.6-17.695,5.6c-17.108,0-28.662-14.206-25.971-31.212c2.704-17.11,18.551-31.219,35.855-31.219
		c17.306,0,28.696,14.009,25.97,31.219c-1.278,8.102-5.079,15.004-11.611,20.908L63.199,246.207L63.199,246.207z M92.573,292.231
		l11.255,0.169l-24.93-26.586c8.313-7.601,13.459-16.107,15.123-26.612c3.426-21.61-11.283-39.317-33.096-39.317
		c-21.508,0-42.088,17.507-45.51,39.119c-3.439,21.711,11.645,38.918,33.158,38.918c7.602,0,16.933-2.703,23.878-7.409
		L92.573,292.231"/>
	<g>
		<path fill="none" stroke="#00508A" stroke-width="4.7279" stroke-miterlimit="3.8637" d="M63.199,246.207H52.193l15.31,18.312
			c-5.158,3.496-12.091,5.6-17.695,5.6c-17.108,0-28.662-14.206-25.971-31.212c2.704-17.11,18.551-31.219,35.855-31.219
			c17.306,0,28.696,14.009,25.97,31.219c-1.278,8.102-5.079,15.004-11.611,20.908L63.199,246.207L63.199,246.207z M92.573,292.231
			l11.255,0.169l-24.93-26.586c8.313-7.601,13.459-16.107,15.123-26.612c3.426-21.61-11.283-39.317-33.096-39.317
			c-21.508,0-42.088,17.507-45.51,39.119c-3.439,21.711,11.645,38.918,33.158,38.918c7.602,0,16.933-2.703,23.878-7.409
			L92.573,292.231L92.573,292.231z"/>
	</g>
</g>
</svg>
