<?xml version="1.0" encoding="utf-8"?>
<!-- Generator: Adobe Illustrator 15.0.0, SVG Export Plug-In . SVG Version: 6.00 Build 0)  -->
<!DOCTYPE svg PUBLIC "-//W3C//DTD SVG 1.1//EN" "http://www.w3.org/Graphics/SVG/1.1/DTD/svg11.dtd">
<svg version="1.1" id="Calque_1" xmlns="http://www.w3.org/2000/svg" xmlns:xlink="http://www.w3.org/1999/xlink" x="0px" y="0px"
	 width="500px" height="500px" viewBox="0 0 500 500" enable-background="new 0 0 500 500" xml:space="preserve">
<path fill="#93025C" d="M235.363,240.645l0.007-0.01c0,0-0.092-0.042-0.267-0.094c-0.375-0.132-0.775-0.206-1.19-0.206
	c-0.083,0-0.164,0.008-0.246,0.014c-2.509-0.025-7.654,1.315-14.495,10.356l2.228-10.97l-13.541,3.085v2.014l7.027,0.9
	l-6.813,32.795l6.685-0.016c0,0,1.414-9.641,3.728-21.725c1.645-8.587,8.025-11.2,11.581-11.994
	c0.125,2.197,1.795,3.938,3.845,3.938c2.13,0,3.856-1.88,3.856-4.199C237.769,242.774,236.773,241.269,235.363,240.645z"/>
<path fill="#93025C" d="M462.378,240.645l0.007-0.01c0,0-0.092-0.042-0.267-0.094c-0.375-0.132-0.774-0.206-1.19-0.206
	c-0.083,0-0.164,0.008-0.245,0.014c-2.51-0.025-7.654,1.315-14.495,10.356l2.228-10.97l-13.54,3.085v2.014l7.027,0.9l-6.812,32.795
	l6.685-0.016c0,0,1.414-9.641,3.728-21.725c1.645-8.587,8.025-11.2,11.581-11.994c0.125,2.197,1.796,3.938,3.845,3.938
	c2.13,0,3.856-1.88,3.856-4.199C464.784,242.774,463.788,241.269,462.378,240.645z"/>
<path fill="#93025C" d="M332.808,276.328c0,0,0-0.343,0-2.229c-10.712,3.257-9.77-1.885-9.684-2.999s5.57-31.365,5.57-31.365
	l-13.54,3.085v2.014l7.027,0.9l-4.964,23.896C316.183,273.328,314.211,283.441,332.808,276.328z"/>
<path fill="#93025C" d="M264.121,270.801c1.285-10.412,6.941-30.723,6.941-30.723h-4.242l-1.785,3.256
	c-1.856-2.134-4.492-3.385-7.728-3.385c-8.519,0-17.958,8.662-21.082,19.347c-3.124,10.685,1.25,19.347,9.77,19.347
	c4.153,0,8.524-2.06,12.275-5.406c0.251,4.682,2.241,5.792,4.693,5.792c5.014,0,9.898-2.7,9.898-2.7s0-0.899,0-2.186
	C265.15,276.714,263.864,273.758,264.121,270.801z M248.663,274.471c-6.417-0.308-9.084-8.246-6.099-17.209
	c2.811-8.437,9.636-14.629,15.363-14.272c2.562,0.16,4.566,1.615,5.803,3.928c-3.326,10.663-4.926,17.87-5.36,22.705
	C255.451,272.726,251.962,274.629,248.663,274.471z"/>
<path fill="#93025C" d="M303.817,273.561l9.109-53.879l-13.54,3.085v2.014l7.027,0.9l-3.364,16.461
	c-1.724-1.399-3.917-2.193-6.491-2.193c-8.52,0-17.958,8.662-21.082,19.347c-3.124,10.685,1.25,19.347,9.77,19.347
	c4.153,0,8.524-2.06,12.275-5.406c0.251,4.682,2.24,5.792,4.693,5.792c5.013,0,9.898-2.7,9.898-2.7s0-0.899,0-2.186
	C306.981,275.854,304.696,275.116,303.817,273.561z M287.913,274.471c-6.417-0.308-9.085-8.246-6.099-17.209
	c2.811-8.437,9.636-14.629,15.362-14.272c2.135,0.133,3.88,1.167,5.118,2.845l-2.513,12.296c-0.942,3.738-1.563,6.83-1.917,9.379
	l-0.48,2.354C294.515,272.821,291.124,274.624,287.913,274.471z"/>
<path fill="#93025C" d="M362.846,270.801c1.285-10.412,6.941-30.723,6.941-30.723h-4.242l-1.785,3.256
	c-1.856-2.134-4.492-3.385-7.728-3.385c-8.519,0-17.958,8.662-21.081,19.347c-3.124,10.685,1.25,19.347,9.77,19.347
	c4.152,0,8.523-2.06,12.275-5.406c0.251,4.682,2.24,5.792,4.692,5.792c5.014,0,9.898-2.7,9.898-2.7s0-0.899,0-2.186
	C363.874,276.714,362.589,273.758,362.846,270.801z M347.388,274.471c-6.416-0.308-9.084-8.246-6.099-17.209
	c2.812-8.437,9.636-14.629,15.363-14.272c2.562,0.16,4.566,1.615,5.803,3.928c-3.326,10.663-4.926,17.87-5.36,22.705
	C354.176,272.726,350.687,274.629,347.388,274.471z"/>
<circle fill="#93025C" cx="328.866" cy="226.623" r="4.414"/>
<path fill="#93025C" d="M387.126,244.62h12.013v-3.085h-11.48c0.89-5.16,1.54-8.913,1.54-8.913h-3.343c0,0-3.085,6.427-3.6,7.584
	c-0.317,0.715-2.647,1.577-4.382,2.131l-1.917,0.482v0.085v1.8v0.128l5.742-0.042l-4.964,24.838
	c-1.035,3.698-3.007,13.812,15.591,6.698c0,0,0-0.343,0-2.229c-10.713,3.257-9.77-1.885-9.685-2.999
	C382.696,270.407,385.225,255.652,387.126,244.62z"/>
<path fill="#93025C" d="M417.614,239.597c-9.297,0.023-18.479,8.975-20.508,19.993c-2.029,11.019,3.862,19.933,13.159,19.909
	c9.298-0.023,18.479-8.974,20.508-19.993C432.803,248.488,426.91,239.574,417.614,239.597z M424.585,259.514
	c-1.283,9.155-7.09,16.593-12.97,16.612c-5.879,0.02-9.604-7.388-8.321-16.543s7.089-16.593,12.969-16.612
	C422.142,242.952,425.868,250.358,424.585,259.514z"/>
<path fill="#93025C" d="M472.305,278.706c16.068,0,16.24-12.683,11.184-17.739c-3.632-3.632-11.763-8.163-11.763-11.955
	s3.6-5.463,5.656-5.463s3.728,1.157,5.656,4.627c0.899,1.671,6.042-0.257,4.756-3.985c-1.285-3.728-10.522-5.229-15.297-1.628
	c-2.613,1.971-5.271,5.228-5.271,9.406c0,6.556,6.934,8.669,10.991,12.726c2.121,2.121,5.077,11.892-5.913,11.892
	c-3.472,0-5.335-1.736-5.593-2.828c0.707-1.286,1.929-5.656-1.478-5.656c-3.407,0-4.178,1.928-4.178,4.627
	C461.057,274.4,463.692,278.706,472.305,278.706z"/>
<g>
	<polygon fill="#5B5B5B" points="107.078,238.192 98.851,278.643 106.736,278.643 114.963,238.192 	"/>
	<polygon fill="#5B5B5B" points="193.292,238.192 191.491,248.176 207.303,238.192 	"/>
	<polygon fill="#5B5B5B" points="144.443,238.192 138.825,265.809 127.475,238.192 119.591,238.192 111.363,278.643 
		119.247,278.643 124.865,251.025 136.215,278.643 144.1,278.643 152.327,238.192 	"/>
	<polygon fill="#5B5B5B" points="176.362,265.809 165.011,238.192 157.126,238.192 148.899,278.643 156.783,278.643 
		162.401,251.025 173.751,278.643 181.636,278.643 189.864,238.192 181.979,238.192 	"/>
	<polygon fill="#5B5B5B" points="51.933,276.34 55.659,276.414 65.086,235.107 57.288,227.737 31.15,227.737 23.951,233.65 
		14.866,271.443 23.265,279.671 37.064,279.671 40.652,283.184 55.134,283.184 46.736,274.957 46.734,274.957 43.147,271.443 
		25.614,271.443 34.029,235.964 54.332,235.964 46.051,270.418 	"/>
	<path fill="#5B5B5B" d="M94.566,238.192l-7.309,30.766H70.29l7.309-30.766h-7.885l-7.309,30.766h-0.143
		c0,0.03-0.004,0.061-0.004,0.091c0,4.73,3.315,8.564,7.405,8.564h17.927c4.041,0,7.32-3.745,7.397-8.397h0.093l7.37-31.023H94.566z
		"/>
</g>
</svg>
