<?xml version="1.0" encoding="utf-8"?>
<!-- Generator: Adobe Illustrator 19.1.0, SVG Export Plug-In . SVG Version: 6.00 Build 0)  -->
<svg version="1.1" id="Calque_1" xmlns="http://www.w3.org/2000/svg" xmlns:xlink="http://www.w3.org/1999/xlink" x="0px" y="0px"
	 viewBox="-345 170.9 500 500" style="enable-background:new -345 170.9 500 500;" xml:space="preserve">
<style type="text/css">
	.st0{fill:#93025C;}
	.st1{fill:#5B5B5B;}
</style>
<path class="st0" d="M-109.6,411.5L-109.6,411.5c0,0-0.1-0.1-0.3-0.1c-0.4-0.1-0.8-0.2-1.2-0.2c-0.1,0-0.2,0-0.2,0
	c-2.5,0-7.7,1.3-14.5,10.4l2.2-11l-13.5,3.1v2l7,0.9l-6.8,32.8l6.7,0c0,0,1.4-9.6,3.7-21.7c1.6-8.6,8-11.2,11.6-12
	c0.1,2.2,1.8,3.9,3.8,3.9c2.1,0,3.9-1.9,3.9-4.2C-107.2,413.7-108.2,412.2-109.6,411.5z"/>
<path class="st0" d="M117.4,411.5L117.4,411.5c0,0-0.1-0.1-0.3-0.1c-0.4-0.1-0.8-0.2-1.2-0.2c-0.1,0-0.2,0-0.2,0
	c-2.5,0-7.7,1.3-14.5,10.4l2.2-11l-13.5,3.1v2l7,0.9l-6.8,32.8l6.7,0c0,0,1.4-9.6,3.7-21.7c1.6-8.6,8-11.2,11.6-12
	c0.1,2.2,1.8,3.9,3.8,3.9c2.1,0,3.9-1.9,3.9-4.2C119.8,413.7,118.8,412.2,117.4,411.5z"/>
<path class="st0" d="M-12.2,447.2c0,0,0-0.3,0-2.2c-10.7,3.3-9.8-1.9-9.7-3s5.6-31.4,5.6-31.4l-13.5,3.1v2l7,0.9l-5,23.9
	C-28.8,444.2-30.8,454.3-12.2,447.2z"/>
<path class="st0" d="M-80.9,441.7c1.3-10.4,6.9-30.7,6.9-30.7h-4.2l-1.8,3.3c-1.9-2.1-4.5-3.4-7.7-3.4c-8.5,0-18,8.7-21.1,19.3
	c-3.1,10.7,1.2,19.3,9.8,19.3c4.2,0,8.5-2.1,12.3-5.4c0.3,4.7,2.2,5.8,4.7,5.8c5,0,9.9-2.7,9.9-2.7s0-0.9,0-2.2
	C-79.9,447.6-81.1,444.6-80.9,441.7z M-96.3,445.4c-6.4-0.3-9.1-8.2-6.1-17.2c2.8-8.4,9.6-14.6,15.4-14.3c2.6,0.2,4.6,1.6,5.8,3.9
	c-3.3,10.7-4.9,17.9-5.4,22.7C-89.5,443.6-93,445.5-96.3,445.4z"/>
<path class="st0" d="M-41.2,444.5l9.1-53.9l-13.5,3.1v2l7,0.9L-42,413c-1.7-1.4-3.9-2.2-6.5-2.2c-8.5,0-18,8.7-21.1,19.3
	c-3.1,10.7,1.2,19.3,9.8,19.3c4.2,0,8.5-2.1,12.3-5.4c0.3,4.7,2.2,5.8,4.7,5.8c5,0,9.9-2.7,9.9-2.7s0-0.9,0-2.2
	C-38,446.7-40.3,446-41.2,444.5z M-57.1,445.4c-6.4-0.3-9.1-8.2-6.1-17.2c2.8-8.4,9.6-14.6,15.4-14.3c2.1,0.1,3.9,1.2,5.1,2.8
	l-2.5,12.3c-0.9,3.7-1.6,6.8-1.9,9.4l-0.5,2.4C-50.5,443.7-53.9,445.5-57.1,445.4z"/>
<path class="st0" d="M17.8,441.7c1.3-10.4,6.9-30.7,6.9-30.7h-4.2l-1.8,3.3c-1.9-2.1-4.5-3.4-7.7-3.4c-8.5,0-18,8.7-21.1,19.3
	c-3.1,10.7,1.2,19.3,9.8,19.3c4.2,0,8.5-2.1,12.3-5.4c0.3,4.7,2.2,5.8,4.7,5.8c5,0,9.9-2.7,9.9-2.7s0-0.9,0-2.2
	C18.9,447.6,17.6,444.6,17.8,441.7z M2.4,445.4c-6.4-0.3-9.1-8.2-6.1-17.2c2.8-8.4,9.6-14.6,15.4-14.3c2.6,0.2,4.6,1.6,5.8,3.9
	c-3.3,10.7-4.9,17.9-5.4,22.7C9.2,443.6,5.7,445.5,2.4,445.4z"/>
<circle class="st0" cx="-16.1" cy="397.5" r="4.4"/>
<path class="st0" d="M42.1,415.5h12v-3.1H42.7c0.9-5.2,1.5-8.9,1.5-8.9h-3.3c0,0-3.1,6.4-3.6,7.6c-0.3,0.7-2.6,1.6-4.4,2.1l-1.9,0.5
	v0.1v1.8v0.1l5.7,0l-5,24.8c-1,3.7-3,13.8,15.6,6.7c0,0,0-0.3,0-2.2c-10.7,3.3-9.8-1.9-9.7-3C37.7,441.3,40.2,426.5,42.1,415.5z"/>
<path class="st0" d="M72.6,410.5c-9.3,0-18.5,9-20.5,20c-2,11,3.9,19.9,13.2,19.9c9.3,0,18.5-9,20.5-20
	C87.8,419.4,81.9,410.5,72.6,410.5z M79.6,430.4c-1.3,9.2-7.1,16.6-13,16.6c-5.9,0-9.6-7.4-8.3-16.5s7.1-16.6,13-16.6
	C77.1,413.8,80.9,421.2,79.6,430.4z"/>
<path class="st0" d="M127.3,449.6c16.1,0,16.2-12.7,11.2-17.7c-3.6-3.6-11.8-8.2-11.8-12c0-3.8,3.6-5.5,5.7-5.5s3.7,1.2,5.7,4.6
	c0.9,1.7,6-0.3,4.8-4c-1.3-3.7-10.5-5.2-15.3-1.6c-2.6,2-5.3,5.2-5.3,9.4c0,6.6,6.9,8.7,11,12.7c2.1,2.1,5.1,11.9-5.9,11.9
	c-3.5,0-5.3-1.7-5.6-2.8c0.7-1.3,1.9-5.7-1.5-5.7c-3.4,0-4.2,1.9-4.2,4.6C116.1,445.3,118.7,449.6,127.3,449.6z"/>
<polygon class="st1" points="-237.9,409.1 -246.1,449.5 -238.3,449.5 -230,409.1 "/>
<polygon class="st1" points="-151.7,409.1 -153.5,419.1 -137.7,409.1 "/>
<polygon class="st1" points="-200.6,409.1 -206.2,436.7 -217.5,409.1 -225.4,409.1 -233.6,449.5 -225.8,449.5 -220.1,421.9 
	-208.8,449.5 -200.9,449.5 -192.7,409.1 "/>
<polygon class="st1" points="-168.6,436.7 -180,409.1 -187.9,409.1 -196.1,449.5 -188.2,449.5 -182.6,421.9 -171.2,449.5 
	-163.4,449.5 -155.1,409.1 -163,409.1 "/>
<polygon class="st1" points="-293.1,447.2 -289.3,447.3 -279.9,406 -287.7,398.6 -313.9,398.6 -321,404.5 -330.1,442.3 
	-321.7,450.6 -307.9,450.6 -304.3,454.1 -289.9,454.1 -298.3,445.8 -298.3,445.8 -301.9,442.3 -319.4,442.3 -311,406.9 
	-290.7,406.9 -298.9,441.3 "/>
<path class="st1" d="M-250.4,409.1l-7.3,30.8h-17l7.3-30.8h-7.9l-7.3,30.8h-0.1c0,0,0,0.1,0,0.1c0,4.7,3.3,8.6,7.4,8.6h17.9
	c4,0,7.3-3.7,7.4-8.4h0.1l7.4-31L-250.4,409.1L-250.4,409.1z"/>
</svg>
