<?xml version="1.0" encoding="utf-8"?>
<!-- Generator: Adobe Illustrator 21.0.2, SVG Export Plug-In . SVG Version: 6.00 Build 0)  -->
<svg version="1.1" id="Calque_1" xmlns="http://www.w3.org/2000/svg" xmlns:xlink="http://www.w3.org/1999/xlink" x="0px" y="0px"
	 viewBox="0 0 500 224" style="enable-background:new 0 0 500 224;" xml:space="preserve">
<style type="text/css">
	.st0{fill:#323230;}
	.st1{fill:#FFFFFF;}
</style>
<path class="st0" d="M491.5,114.6c0,51.8-40.3,93.8-90.1,93.8H97.9c-49.8,0-90.1-42-90.1-93.8l0,0c0-51.8,40.4-93.8,90.1-93.8h303.4
	C451.1,20.8,491.5,62.8,491.5,114.6L491.5,114.6z"/>
<path class="st1" d="M401.3,210.7H97.8c-51,0-92.5-43.1-92.5-96.2c0-53,41.5-96.2,92.5-96.2h303.5c51,0,92.5,43.1,92.5,96.2
	C493.9,167.6,452.4,210.7,401.3,210.7z M97.8,23.2c-48.4,0-87.7,41-87.7,91.4S49.5,206,97.8,206h303.5c48.4,0,87.7-41,87.7-91.4
	s-39.4-91.4-87.7-91.4L97.8,23.2L97.8,23.2z"/>
<path class="st1" d="M55.4,160.8v-20.2h10.7v-54H55.4V66.4h40.4v19h0.4c1.3-5.1,3-9.2,5.1-12.3c2.1-3,4.4-5.2,7-6.4
	c2.6-1.2,6-1.8,10.1-1.8v31.6c-15.1,0-22.6,9.3-22.6,27.9v16.1h11.9v20.2L55.4,160.8L55.4,160.8z"/>
<path class="st1" d="M205,160.8h-39.2v-7.4c-6,5.8-12.9,8.6-20.6,8.6c-7.8,0-14.3-2.9-19.5-8.6s-7.8-13-7.8-21.8
	c0-9,2.8-16.5,8.5-22.4c5.6-5.9,12.8-8.9,21.5-8.9c6,0,12,1.9,17.9,5.7V96c0-5.1-0.7-8.7-2.1-10.8c-1.4-2.1-3.8-3.2-7.4-3.2
	c-4.7,0-8,2.4-9.8,7.3l-26.8-5.2c7.9-13.6,21.3-20.4,40.2-20.4c11,0,19.7,2.4,26,7.2c6.3,4.8,9.5,11.9,9.5,21.3v48.4h9.5v20.2H205z
	 M165.8,136.5v-14.1c-2.5-2.9-5.4-4.4-8.6-4.4c-2.9,0-5.3,1.1-7,3.4s-2.6,5.3-2.6,9s0.8,6.5,2.5,8.5c1.6,2,3.9,3,6.8,3
	C160.3,141.8,163.4,140,165.8,136.5z"/>
<path class="st1" d="M294.9,160.8h-39.2v-7.4c-6,5.8-12.9,8.6-20.6,8.6c-7.8,0-14.3-2.9-19.5-8.6c-5.2-5.7-7.8-13-7.8-21.8
	c0-9,2.8-16.5,8.5-22.4c5.6-5.9,12.8-8.9,21.5-8.9c6,0,12,1.9,17.9,5.7V96c0-5.1-0.7-8.7-2.1-10.8c-1.4-2.1-3.8-3.2-7.4-3.2
	c-4.7,0-8,2.4-9.8,7.3l-26.8-5.2c7.9-13.6,21.3-20.4,40.2-20.4c11,0,19.7,2.4,26,7.2c6.3,4.8,9.5,11.9,9.5,21.3v48.4h9.5
	L294.9,160.8L294.9,160.8z M255.7,136.5v-14.1c-2.5-2.9-5.4-4.4-8.6-4.4c-2.9,0-5.3,1.1-7,3.4c-1.7,2.3-2.6,5.3-2.6,9
	s0.8,6.5,2.5,8.5c1.6,2,3.9,3,6.8,3C250.2,141.8,253.2,140,255.7,136.5z"/>
<path class="st1" d="M349.2,123.6l23.1,8c-3.8,21.2-15.9,31.9-36.2,31.9c-12.3,0-21.9-4.5-28.9-13.5s-10.6-21.4-10.6-37.3
	c0-14.3,3-25.8,9.1-34.6c6.1-8.8,14.1-13.2,23.9-13.2c9.5,0,15.8,3.9,19.1,11.8h0.4V66.4h21.4v38.2h-21.3
	c-0.5-6.8-1.6-11.8-3.5-15.1c-1.9-3.2-4.6-4.9-8.3-4.9c-3.9,0-6.5,2.1-7.8,6.4c-1.4,4.3-2,11.5-2,21.6c0,11.1,0.7,18.9,2,23.6
	c1.3,4.7,4.4,7,9.2,7c3.3,0,5.8-1.6,7.3-4.8C347.6,135.3,348.7,130.4,349.2,123.6z"/>
<path class="st1" d="M418.1,163.5c-12.3,0-22.5-4.7-30.4-14c-7.9-9.3-11.9-21.3-11.9-36c0-14.6,3.9-26.6,11.8-35.9
	c7.8-9.3,18-14,30.5-14c12.2,0,22.3,4.7,30.1,14c7.9,9.3,11.8,21.3,11.8,35.9c0,14.7-3.9,26.7-11.8,36
	C440.4,158.8,430.3,163.5,418.1,163.5z M418.1,85.1c-4,0-6.9,2.3-8.7,6.9c-1.8,4.6-2.7,11.8-2.7,21.6c0,9.8,0.9,17,2.7,21.6
	c1.8,4.6,4.7,6.9,8.7,6.9c7.4,0,11-9.5,11-28.5C429.2,94.6,425.5,85.1,418.1,85.1z"/>
</svg>
