<?xml version="1.0" encoding="utf-8"?>
<!-- Generator: Adobe Illustrator 19.1.0, SVG Export Plug-In . SVG Version: 6.00 Build 0)  -->
<svg version="1.1" id="Calque_1" xmlns="http://www.w3.org/2000/svg" xmlns:xlink="http://www.w3.org/1999/xlink" x="0px" y="0px"
	 viewBox="-345 170.9 500 500" style="enable-background:new -345 170.9 500 500;" xml:space="preserve">
<path d="M-305.1,381.2c4.5-1.1,10.8-1.7,16.3-1.7c7.4,0,13.9,1.8,17.9,5.4c3.4,3,5.5,7.2,5.5,12.3c0,11-8.3,19.1-17.7,21.7l-0.1,0.2
	c5.3,1.8,7.8,7.3,8.3,15c0.8,10.4,1.3,17.6,2.3,20.6h-9.5c-0.4-1.6-1.2-9.4-1.8-18.1c-0.6-10.3-4.3-14.5-11.8-14.5h-8.2l-6.1,32.6
	h-9.2L-305.1,381.2z M-302.4,415.2h8.2c11.6,0,19.2-7.7,19.2-16.6c0-8-6-11.6-14.4-11.6c-3.7,0-6,0.3-7.8,0.8L-302.4,415.2z"/>
<path d="M-245.3,431.3l-11.9,23.6h-9.8l38.7-74.7h10.8l10.4,74.7h-9.4l-3.1-23.6H-245.3z M-220.3,423.9l-2.9-21.6
	c-0.4-3.9-1-9.4-1.3-13.8h-0.2c-2,4.4-3.9,9.1-6.1,13.6l-11.2,21.7H-220.3z"/>
<path d="M-183.6,381.1c4.7-0.9,10-1.5,16.1-1.5c7.7,0,13.3,1.5,17.2,5.1c3.5,2.9,5.4,6.8,5.4,11.6c0,9.5-7.7,16.5-16.1,18.7v0.2
	c6.7,2,12.2,7.6,12.2,16.6c0,7.7-4,13.8-8.9,17.4c-6,4.4-14.2,6.1-24.3,6.1c-6.4,0-12-0.4-15.4-1.1L-183.6,381.1z M-187,447.6
	c2.3,0.3,5,0.4,7.5,0.4c10.9,0,21.1-4.5,21.1-16.5c0-8.8-7.4-12.6-15.7-12.6h-7.5L-187,447.6z M-180.2,411.8h6.9
	c10.8,0,19-5.5,19-14.6c0-7.2-5.4-10.3-13.5-10.3c-3.4,0-6.2,0.2-7.7,0.7L-180.2,411.8z"/>
<path d="M-70.6,409.5c0,13-4.8,27.3-13.6,36.2c-6.5,6.5-15.3,10.4-25.6,10.4c-19.3,0-28.3-14.5-28.3-30.4c0-13.2,5.1-27.7,14.2-36.7
	c6.4-6.2,15.6-10.1,25.1-10.1C-78.6,378.9-70.6,393.5-70.6,409.5z M-117.1,394.1c-7.2,7.2-11.3,20.4-11.3,30.8
	c0,12.2,5.4,23.4,20.1,23.4c6.3,0,12.4-2.8,17.1-7.4c7-7.1,11.1-20.5,11.1-30.9c0-10.6-3.4-23.3-19.9-23.3
	C-106.7,386.7-112.5,389.6-117.1,394.1z"/>
<path d="M-65.9,454.9l14.2-74.7h10.1l17.1,42.4c3.3,8.4,5,14.4,6.5,20.8l0.2-0.1c0.4-6.8,1.2-13,3.2-23.4l7.5-39.7h8.7l-14.2,74.7
	h-9.1l-17.1-42.3c-3.5-9.2-5.2-14.4-6.9-21.5l-0.3,0.1c-0.8,7-2,14.4-3.9,24.6l-7.4,39L-65.9,454.9L-65.9,454.9z"/>
<path d="M73.6,409.5c0,13-4.8,27.3-13.6,36.2c-6.5,6.5-15.3,10.4-25.6,10.4c-19.3,0-28.3-14.5-28.3-30.4c0-13.2,5.1-27.7,14.2-36.7
	c6.4-6.2,15.6-10.1,25.1-10.1C65.5,378.9,73.6,393.5,73.6,409.5z M27,394.1c-7.2,7.2-11.3,20.4-11.3,30.8c0,12.2,5.4,23.4,20.1,23.4
	c6.3,0,12.4-2.8,17.1-7.4c7-7.1,11.1-20.5,11.1-30.9c0-10.6-3.4-23.3-19.9-23.3C37.5,386.7,31.7,389.6,27,394.1z"/>
<path d="M92.4,381.2c4.5-1.1,10.8-1.7,16.3-1.7c7.4,0,13.9,1.8,17.9,5.4c3.4,3,5.5,7.2,5.5,12.3c0,11-8.3,19.1-17.7,21.7l-0.1,0.2
	c5.3,1.8,7.8,7.3,8.3,15c0.8,10.4,1.3,17.6,2.3,20.6h-9.5c-0.4-1.6-1.2-9.4-1.8-18.1c-0.6-10.3-4.3-14.5-11.8-14.5h-8.2l-6.1,32.6
	h-9.2L92.4,381.2z M95,415.2h8.2c11.6,0,19.2-7.7,19.2-16.6c0-8-6-11.6-14.4-11.6c-3.7,0-6,0.3-7.8,0.8L95,415.2z"/>
</svg>
