<?xml version="1.0" encoding="utf-8"?>
<!-- Generator: Adobe Illustrator 15.0.0, SVG Export Plug-In . SVG Version: 6.00 Build 0)  -->
<!DOCTYPE svg PUBLIC "-//W3C//DTD SVG 1.1//EN" "http://www.w3.org/Graphics/SVG/1.1/DTD/svg11.dtd">
<svg version="1.1" id="Calque_1" xmlns="http://www.w3.org/2000/svg" xmlns:xlink="http://www.w3.org/1999/xlink" x="0px" y="0px"
	 width="500px" height="500px" viewBox="0 0 500 500" enable-background="new 0 0 500 500" xml:space="preserve">
<path d="M39.898,210.352c4.547-1.112,10.757-1.666,16.302-1.666c7.429,0,13.863,1.776,17.854,5.435
	c3.438,2.992,5.545,7.208,5.545,12.31c0,10.979-8.317,19.074-17.745,21.736l-0.111,0.22c5.324,1.776,7.764,7.32,8.319,14.972
	c0.777,10.423,1.33,17.632,2.328,20.627h-9.536c-0.444-1.553-1.22-9.424-1.774-18.074c-0.555-10.313-4.325-14.529-11.757-14.529
	h-8.207l-6.099,32.604h-9.204L39.898,210.352z M42.56,244.284h8.206c11.645,0,19.187-7.654,19.187-16.634
	c0-7.984-5.988-11.643-14.417-11.643c-3.66,0-5.987,0.33-7.762,0.773L42.56,244.284z"/>
<path d="M99.671,260.366l-11.866,23.619h-9.759l38.705-74.746h10.757l10.425,74.746h-9.43l-3.102-23.619H99.671z M124.735,253.048
	l-2.882-21.629c-0.447-3.882-1-9.423-1.331-13.75h-0.222c-1.996,4.436-3.885,9.095-6.102,13.64l-11.199,21.739H124.735z"/>
<path d="M161.44,210.235c4.655-0.883,9.978-1.549,16.08-1.549c7.651,0,13.307,1.549,17.191,5.098
	c3.549,2.886,5.434,6.768,5.434,11.646c0,9.537-7.655,16.525-16.081,18.745v0.223c6.651,1.992,12.195,7.65,12.195,16.631
	c0,7.651-3.991,13.753-8.872,17.41c-5.987,4.436-14.195,6.1-24.285,6.1c-6.434,0-11.979-0.44-15.416-1.106L161.44,210.235z
	 M158.002,276.667c2.328,0.334,4.991,0.444,7.54,0.444c10.868,0,21.073-4.546,21.073-16.525c0-8.761-7.431-12.639-15.749-12.639
	h-7.54L158.002,276.667z M164.767,240.959h6.876c10.758,0,18.961-5.544,18.961-14.642c0-7.208-5.434-10.311-13.527-10.311
	c-3.438,0-6.212,0.22-7.655,0.663L164.767,240.959z"/>
<path d="M274.445,238.627c0,12.979-4.771,27.284-13.642,36.155c-6.54,6.544-15.301,10.427-25.616,10.427
	c-19.297,0-28.281-14.529-28.281-30.388c0-13.199,5.102-27.724,14.196-36.708c6.434-6.212,15.638-10.094,25.063-10.094
	C266.351,208.019,274.445,222.658,274.445,238.627z M227.868,223.214c-7.209,7.208-11.315,20.404-11.315,30.828
	c0,12.199,5.434,23.398,20.076,23.398c6.319,0,12.421-2.769,17.076-7.428c6.986-7.098,11.093-20.513,11.093-30.939
	c0-10.647-3.438-23.29-19.854-23.29C238.293,215.784,232.523,218.666,227.868,223.214z"/>
<path d="M279.1,283.985l14.195-74.746h10.094l17.076,42.366c3.327,8.428,4.991,14.416,6.545,20.847l0.221-0.113
	c0.442-6.762,1.223-12.972,3.216-23.399l7.541-39.701h8.651l-14.195,74.746h-9.095l-17.079-42.253
	c-3.548-9.204-5.213-14.415-6.876-21.513l-0.333,0.11c-0.774,6.988-1.995,14.418-3.88,24.623l-7.43,39.034H279.1z"/>
<path d="M418.612,238.627c0,12.979-4.77,27.284-13.642,36.155c-6.542,6.544-15.303,10.427-25.618,10.427
	c-19.297,0-28.279-14.529-28.279-30.388c0-13.199,5.102-27.724,14.195-36.708c6.433-6.212,15.638-10.094,25.062-10.094
	C410.518,208.019,418.612,222.658,418.612,238.627z M372.034,223.214c-7.21,7.208-11.314,20.404-11.314,30.828
	c0,12.199,5.433,23.398,20.075,23.398c6.319,0,12.421-2.769,17.076-7.428c6.986-7.098,11.094-20.513,11.094-30.939
	c0-10.647-3.439-23.29-19.854-23.29C382.46,215.784,376.69,218.666,372.034,223.214z"/>
<path d="M437.351,210.352c4.545-1.112,10.757-1.666,16.302-1.666c7.429,0,13.863,1.776,17.854,5.435
	c3.438,2.992,5.545,7.208,5.545,12.31c0,10.979-8.314,19.074-17.744,21.736l-0.11,0.22c5.323,1.776,7.767,7.32,8.318,14.972
	c0.775,10.423,1.332,17.632,2.328,20.627h-9.537c-0.441-1.553-1.219-9.424-1.774-18.074c-0.553-10.313-4.327-14.529-11.757-14.529
	h-8.203l-6.103,32.604h-9.203L437.351,210.352z M440.012,244.284h8.207c11.646,0,19.187-7.654,19.187-16.634
	c0-7.984-5.991-11.643-14.416-11.643c-3.661,0-5.992,0.33-7.766,0.773L440.012,244.284z"/>
</svg>
