<?xml version="1.0" encoding="utf-8"?>
<!-- Generator: Adobe Illustrator 21.0.2, SVG Export Plug-In . SVG Version: 6.00 Build 0)  -->
<svg version="1.1" id="Calque_1" xmlns="http://www.w3.org/2000/svg" xmlns:xlink="http://www.w3.org/1999/xlink" x="0px" y="0px"
	 viewBox="0 0 500 176" style="enable-background:new 0 0 500 176;" xml:space="preserve">
<style type="text/css">
	.st0{fill:#E4221B;}
</style>
<path class="st0" d="M36,32.5V17.8H10.8v95.7H36V39.7h28.4l0.4-21.1C64.7,18.5,48.3,13.1,36,32.5z"/>
<path class="st0" d="M135.2,19.3h-54V40h50.3c-0.1,0.1-0.1,0.1-0.1,0.1s14.1,1.1,14.1,14.7v3.1h-43.2c0,0-27,0.6-27,28.2
	s27,27.1,27,27.1h69V113h0.2V54.7C171.5,54.9,174.3,19.3,135.2,19.3z M145.5,94.5h-32.2c-6.9,0-11.4-3.8-11.4-9.4
	c0-5,3.7-8.5,9.4-9.2h34.3L145.5,94.5L145.5,94.5z"/>
<path class="st0" d="M244.9,114.3h25.2V41.2H291c7.8,0,9.4,8.8,9.6,14.7l0,0v4c0,0.8-0.1,1.3-0.1,1.3s0.1,0,0.1,0.1v53.1h25.2V56
	c0-42.3-34.4-37-34.4-37h-21.3h-25.2H215h-25.2v22.3v73.1H215V41.3h29.9V114.3L244.9,114.3z"/>
<path class="st0" d="M424,69.7l-3.1,2.2h-5.3v-1.4c0,0-4.5,0.7-8.8,3.5H399v-3.3c0,0-1,0-3.1,0c-1.4,0-4.3,2-6.1,3.3h-7v-3.3
	c0,0-1,0-3.1,0c-1.4,0-4.3,2-6.1,3.3h-7.8v-3.5c-4.1,0-8,2.5-9.3,3.5H350v-4.7l-2,0.2c0,0-6.1,3.7-6.1,14.1s5.7,15.1,5.7,15.1h2.4
	V94h5.9c0,0,4.7,3.9,9.8,3.9V94h7.3c1.7,1.3,5.1,3.7,6.6,3.7c2.1,0,3.1,0,3.1,0V94h6.5c1.7,1.3,5.1,3.7,6.6,3.7c2.1,0,3.1,0,3.1,0
	V94h7.2c4.5,3.2,9.4,3.9,9.4,3.9v-1.4h5.3l3.1,2.2v-0.1h65.7V69.5L424,69.7L424,69.7z"/>
<path class="st0" d="M25,133.8c2.6,0,4.8,0.6,6.3,1.3l1-3.3c-1.1-0.6-3.6-1.4-7.5-1.4c-9.8,0-16.5,6.7-16.5,16.6
	c0,10.4,6.7,16.1,15.6,16.1c3.8,0,6.9-0.8,8.4-1.5l-0.8-3.3c-1.6,0.8-4.2,1.3-6.7,1.3c-7.6,0-12.1-4.9-12.1-12.7
	C12.6,138.5,17.6,133.8,25,133.8z"/>
<polygon class="st0" points="56.8,144.1 41.5,144.1 41.5,130.8 37.4,130.8 37.4,162.5 41.5,162.5 41.5,147.6 56.8,147.6 56.8,162.5 
	60.9,162.5 60.9,130.8 56.8,130.8 "/>
<polygon class="st0" points="72.1,147.6 84.4,147.6 84.4,144.3 72.1,144.3 72.1,134.3 85.1,134.3 85.1,130.8 68,130.8 68,162.5 
	85.8,162.5 85.8,159 72.1,159 "/>
<path class="st0" d="M104.6,146.5c-1.5,4.1-2.7,8.1-3.6,11.8h-0.1c-0.9-3.7-2.1-7.6-3.4-11.8l-4.9-15.6h-4.5l10.4,31.6h4.5
	l11.3-31.6h-4.4L104.6,146.5z"/>
<rect x="117.7" y="130.8" class="st0" width="4.1" height="31.6"/>
<polygon class="st0" points="133.1,130.8 128.9,130.8 128.9,162.5 146.6,162.5 146.6,159 133.1,159 "/>
<polygon class="st0" points="155.2,130.8 151.1,130.8 151.1,162.5 168.8,162.5 168.8,159 155.2,159 "/>
<polygon class="st0" points="177.4,147.6 189.7,147.6 189.7,144.3 177.4,144.3 177.4,134.3 190.4,134.3 190.4,130.8 173.3,130.8 
	173.3,162.5 191.1,162.5 191.1,159 177.4,159 "/>
<path class="st0" d="M205.9,144.5c-4.4-1.7-6.3-3.1-6.3-6.1c0-2.2,1.6-4.7,6-4.7c2.9,0,5,0.9,6,1.5l1.1-3.3c-1.4-0.8-3.8-1.5-7-1.5
	c-6.1,0-10.2,3.7-10.2,8.6c0,4.4,3.2,7.1,8.4,9c4.3,1.6,6,3.3,6,6.2c0,3.2-2.4,5.4-6.6,5.4c-2.8,0-5.4-0.9-7.3-2.1l-1.1,3.4
	c1.7,1.1,5,2.1,8.1,2.1c7.5,0,11-4.3,11-9.1C213.9,149.2,211.3,146.6,205.9,144.5z"/>
<polygon class="st0" points="233.6,147.6 245.9,147.6 245.9,144.3 233.6,144.3 233.6,134.3 246.6,134.3 246.6,130.8 229.5,130.8 
	229.5,162.5 247.3,162.5 247.3,159 233.6,159 "/>
<polygon class="st0" points="249.8,134.3 259.4,134.3 259.4,162.5 263.5,162.5 263.5,134.3 273.2,134.3 273.2,130.8 249.8,130.8 "/>
<polygon class="st0" points="286.6,162.5 290.8,162.5 290.8,148.2 302.7,148.2 302.7,144.8 290.8,144.8 290.8,134.3 303.7,134.3 
	303.7,130.8 286.6,130.8 "/>
<rect x="309.5" y="130.8" class="st0" width="4.1" height="31.6"/>
<path class="st0" d="M342.6,130.8h-4.7l-4.3,7.4c-1.2,2-2,3.5-2.9,5.4h-0.1c-0.8-1.7-1.7-3.3-2.9-5.4l-4.2-7.4h-4.7l9.3,15.6
	l-9.7,16h4.7l3.8-6.9c1.6-2.8,2.5-4.5,3.4-6.3h0.1c1,1.8,2,3.6,3.6,6.2l4.1,7h4.7l-9.9-16.2L342.6,130.8z"/>
<path class="st0" d="M355.6,130.8l-10.8,31.6h4.2l3.3-9.9h11.2l3.4,9.9h4.4l-10.8-31.6H355.6z M353.1,149.3l3.1-9.1
	c0.7-1.9,1.1-3.9,1.6-5.7h0.1c0.5,1.8,0.9,3.7,1.6,5.8l3.1,9.1L353.1,149.3L353.1,149.3z"/>
<polygon class="st0" points="368.7,134.3 378.3,134.3 378.3,162.5 382.4,162.5 382.4,134.3 392.1,134.3 392.1,130.8 368.7,130.8 "/>
<rect x="395.6" y="130.8" class="st0" width="4.1" height="31.6"/>
<path class="st0" d="M419.6,130.3c-8.5,0-14.6,6.6-14.6,16.6c0,9.6,5.8,16.1,14.2,16.1c8.1,0,14.7-5.8,14.7-16.7
	C433.9,136.9,428.3,130.3,419.6,130.3z M419.4,159.7c-6.5,0-10.1-6.1-10.1-12.9c0-6.9,3.4-13.2,10.2-13.2s10.1,6.6,10.1,12.9
	C429.6,153.7,425.9,159.7,419.4,159.7z"/>
<path class="st0" d="M459.1,144.1c0,4.9,0.1,8.8,0.5,13h-0.1c-1.5-3.2-3.3-6.6-5.6-10.3l-10.1-16h-4.5v31.6h3.7v-13.5
	c0-5.3,0-9.1-0.3-13h0.1c1.5,3.4,3.7,7,5.9,10.6l10,16h4.1v-31.6H459L459.1,144.1L459.1,144.1z"/>
<path class="st0" d="M479.6,144.5c-4.4-1.7-6.3-3.1-6.3-6.1c0-2.2,1.6-4.7,6-4.7c2.9,0,5,0.9,6,1.5l1.1-3.3
	c-1.4-0.8-3.8-1.5-6.9-1.5c-6.1,0-10.2,3.7-10.2,8.6c0,4.4,3.2,7.1,8.4,9c4.3,1.6,6,3.3,6,6.2c0,3.2-2.4,5.4-6.6,5.4
	c-2.8,0-5.4-0.9-7.3-2.1l-1.1,3.4c1.7,1.1,5,2.1,8.1,2.1c7.5,0,11-4.3,11-9.1C487.6,149.2,484.9,146.6,479.6,144.5z"/>
</svg>
