<?xml version="1.0" encoding="utf-8"?>
<!-- Generator: Adobe Illustrator 19.1.0, SVG Export Plug-In . SVG Version: 6.00 Build 0)  -->
<svg version="1.1" id="Calque_1" xmlns="http://www.w3.org/2000/svg" xmlns:xlink="http://www.w3.org/1999/xlink" x="0px" y="0px"
	 viewBox="-345 170.9 500 500" style="enable-background:new -345 170.9 500 500;" xml:space="preserve">
<style type="text/css">
	.st0{fill:#0D0802;}
	.st1{fill:#062F77;}
	.st2{fill:#0A459B;}
	.st3{fill:#062F77;fill-opacity:0;}
	.st4{fill:#FFFFFF;}
	.st5{fill:url(#SVGID_1_);}
	.st6{fill:url(#SVGID_2_);}
</style>
<path class="st0" d="M-204.5,424c5.4-1.4,12.6-5.2,12.6-15.1c0-12-13.7-13.7-18.6-13.7s-24.3,0-24.3,0v2c0,0,7.8-0.7,7.8,6.2
	l0.1,0.4v46.6h8.7v-25.6c1.3,0,3.4,0,5.4,0l15,25.6h8.7L-204.5,424z M-217.9,420.9l-0.4-16c0,0-0.3-6.1,5.8-6.1c3.3,0,1.3,0,2.6,0
	s9.1,1.2,9.1,10.4c0,9.2-6.7,11.6-10.2,11.6C-214.4,420.9-217.9,420.9-217.9,420.9z"/>
<path class="st0" d="M-171.8,411.3c-13,0-15,7.4-15,11.2c2.4,0,9.3-0.1,9.3-0.1s0-2.7,0-3.6c0-0.9,0.7-5.1,5.9-5.1
	c5.1,0,5.2,6.1,5.2,6.1v9.4c-3.1,0.1-21.1,1-21.1,11.7c0,6.8,4,9.4,10.6,9.4c5.2,0,9.1-3.6,10.5-5.1v5.1h7.9v-30.6
	C-158.6,419.7-158.8,411.3-171.8,411.3z M-173.4,446.6c-0.9,0-5.9-0.1-5.9-5.7c0-9.4,12.7-8.8,12.7-8.8s0.1,2,0.1,7.4
	C-166.5,444.8-171.7,446.6-173.4,446.6z"/>
<path class="st0" d="M-105.4,411.2c-11.2,0-14.3,8.4-14.3,8.4s-1.3-8.2-8.6-8.2c-7.9,0-12.1,5.2-14,8.2v-8.7l-14.6,3.2l0.1,1.6
	c5.8-0.6,6.1,2.9,6.1,4.7c0,1.8,0,30,0,30h8.5v-25.9c1.8-4,5.8-8,9-8c5.4,0,5.4,7.4,5.4,7.4v26.3h8.1c0,0,0-14.2,0-21
	s5.2-12.9,9.4-12.9c5.5,0,5.4,6.3,5.4,6.3v27.8h7.8c0,0,0-26.8,0-29.4C-97.1,418.6-98.8,411.2-105.4,411.2z"/>
<path class="st0" d="M-19.7,429.3c0,6.8,0,21,0,21h-8.3V424c0,0,0-7.4-5.6-7.4c-3.2,0-7.4,4-9.2,8v25.9h-8.7c0,0,0-28.2,0-30
	c0-1.8-0.3-5.3-6.2-4.7l0-1.6l15-3.2v8.7c1.9-3,6.2-8.2,14.3-8.2c6.6,0,8.4,6.3,8.7,7.9L-19.7,429.3z"/>
<path class="st0" d="M146.2,419.9c-0.7-1.7-2.8-2.1-5.4-2.1c-3.2,0-7.5,2.7-9.3,6.7v25.9h-8.7c0,0,0-28.2,0-30
	c0-1.8-0.3-5.3-6.2-4.7l-0.1-1.6l15-3.2v8.7c1.9-3,3.4-10.2,14.5-8.8L146.2,419.9z"/>
<path class="st0" d="M79.5,450.3h-8.2c0,0,0-47.4,0-49.2c0-1.8-0.3-5.3-6.2-4.7l0-1.6l14.5-3.2L79.5,450.3L79.5,450.3z"/>
<path class="st0" d="M-73.1,410.9h-2.4c-9,0-16.2,7.3-16.2,16.4v7.2c0,9.1,7.3,16.4,16.2,16.4h2.4c9,0,16.2-7.3,16.2-16.4v-7.2
	C-56.9,418.2-64.1,410.9-73.1,410.9z M-65.5,434c0,7.9-3.7,14.3-8.2,14.3h-1.2c-4.5,0-8.2-6.4-8.2-14.3v-6.3
	c0-7.9,3.7-14.3,8.2-14.3h1.2c4.5,0,8.2,6.4,8.2,14.3V434z"/>
<path class="st0" d="M50.8,410.9h-2.4c-9,0-16.2,7.3-16.2,16.4v7.2c0,9.1,7.3,16.4,16.2,16.4h2.4c9,0,16.2-7.3,16.2-16.4v-7.2
	C67,418.2,59.8,410.9,50.8,410.9z M58.5,434c0,7.9-3.7,14.3-8.2,14.3H49c-4.5,0-8.2-6.4-8.2-14.3v-6.3c0-7.9,3.7-14.3,8.2-14.3h1.2
	c4.5,0,8.2,6.4,8.2,14.3V434z"/>
<path class="st0" d="M24.7,408.3c-0.9-5.7-5.6-10-11.3-10h-1.7c-3.9,0-7.7,1.8-9.4,5.1c-1.7,3.3,1.5,9.2,5.7,11.4
	c5.5,2.9,17,7.4,19.8,14c2.8,6.5,3.4,17.5-12.5,21.6c-9.3,2.5-22-2.4-22-2.4v-13.1h2.1l0,0.3c0,6.5,5.3,11.9,11.9,11.9h1.8
	c8,0,12.6-5,10.6-11.9c-2.8-7.6-12-9.5-17.3-13.6c-5.3-4.1-8.3-7.1-8.3-15.5c0-8.4,9.5-11.5,17.1-11.5s14.5,1.5,14.5,1.5v12.2
	L24.7,408.3z"/>
<path class="st0" d="M95.2,438.4c-2.9-5.1-2.4-12.1-2.4-12.1h23.3c0-9.1-4.5-15.4-15.9-15.4c-9,0-16.2,5.5-16.2,19.5
	c0,14.6,11.4,19.9,18.3,19.9c8.6,0,13.1-1.8,13.1-1.8s0-1.8,0-3.8C101.4,448.3,98.1,443.6,95.2,438.4z M100.8,413.1
	c8.2,0,7.2,10,7.2,10H92.9C92.9,423.2,92.6,413.1,100.8,413.1z"/>
<circle class="st1" cx="-291.5" cy="423.5" r="41.7"/>
<circle class="st2" cx="-291.5" cy="423.5" r="41.7"/>
<path class="st3" d="M-306.7,389.4c33.1-14.7,59.3,17.3,53.4,37.3c-1.6,5.5-20.3,10.9-26.2-6.1c-6-17-22.1-12-32.5-15.8
	C-321.8,401.2-317.9,394.4-306.7,389.4z"/>
<path class="st4" d="M-297.9,401.5c-1.2,0-12.3,0-12.3,0v31.3h6.1v-13.2c2.2,0,5,0,6.2,0c2.2,0,9.4-0.7,9.4-9
	C-288.5,402.1-295.8,401.5-297.9,401.5z M-299.1,413.9c-1.2,0-5.1,0-5.1,0V407c0,0,3.9,0,5.1,0c1.2,0,5.1,0.3,5.1,3.4
	C-294,413.6-297.9,413.9-299.1,413.9z"/>
<path class="st4" d="M-283.3,433.3c-9.8,0-14.1-8.1-16.9-13.4l-0.5-0.9l5.4-3l0.5,1c3.1,5.9,5.7,10.1,11.4,10.1c4.2,0,6.5-1.2,6.5-3
	c0-2.5-4.1-3.9-6.5-4.4c-7.4-1.8-9.8-4.8-10.5-7c-0.7-2.2,2.5,0.4,1.2-8.4c1.3-1.9,4.1-4.1,9.5-4.1c10,0,13.1,7.7,13.3,8l-2.9,1.2
	l-2.9,1.2c-0.2-0.4-1.9-4.1-7.5-4.1c-2.2,0-3.8,0.5-4.5,1.5c-0.6,0.8-0.6,1.9-0.3,2.7c0.3,0.5,1.8,1.8,6,2.8
	c9.3,2.2,11.3,7,11.3,10.6C-270.6,428.7-274.5,433.3-283.3,433.3z"/>
<path class="st4" d="M-282.4,445.3c-3.5,0-7.3-1.4-10.9-2.7c-2.7-1-5.6-2-7.4-2c-4,0-9.4,3.1-9.4,3.2l-0.1-6
	c0.2-0.1,3.9-2.7,9.5-2.7c2.8,0,6,1.2,9.3,2.4c3.2,1.2,6.5,2.4,9,2.4c5,0,11.5-3,11.6-3.1l0.1,5.9
	C-270.9,442.7-275.9,445.3-282.4,445.3z"/>
<radialGradient id="SVGID_1_" cx="23.0786" cy="277.1986" r="8.3368" gradientTransform="matrix(1.7208 0.3536 -0.2552 -0.888 -243.6762 633.7717)" gradientUnits="userSpaceOnUse">
	<stop  offset="0" style="stop-color:#FFFFFF"/>
	<stop  offset="0.8282" style="stop-color:#062F77;stop-opacity:0"/>
</radialGradient>
<path class="st5" d="M-256.7,405.2c-1.3,2.5-10.5,0.4-20.4-4.9c-10-5.2-17-11.5-15.7-14c1.3-2.5,10.5-0.4,20.5,4.9
	C-262.3,396.4-255.3,402.7-256.7,405.2z"/>
<linearGradient id="SVGID_2_" gradientUnits="userSpaceOnUse" x1="-9.7027" y1="250.7801" x2="-0.315" y2="267.8341" gradientTransform="matrix(1.7208 0.3536 -0.3536 -1.2304 -204.6056 769.7229)">
	<stop  offset="9.200000e-02" style="stop-color:#0B306A"/>
	<stop  offset="1" style="stop-color:#0A459B"/>
</linearGradient>
<path class="st6" d="M-276,459.9c-1.3,2.5-18.6,7.4-34.8-1.3c-14-7.6-21-24.1-19.7-26.7c1.3-2.5,14.5,12.3,24.5,17.5
	C-296,454.6-274.6,457.4-276,459.9z"/>
</svg>
