<?xml version="1.0" encoding="utf-8"?>
<!-- Generator: Adobe Illustrator 21.0.2, SVG Export Plug-In . SVG Version: 6.00 Build 0)  -->
<svg version="1.1" id="Calque_1" xmlns="http://www.w3.org/2000/svg" xmlns:xlink="http://www.w3.org/1999/xlink" x="0px" y="0px"
	 viewBox="0 0 500 234" style="enable-background:new 0 0 500 234;" xml:space="preserve">
<style type="text/css">
	.st0{fill:#00509F;}
	.st1{fill:#9EAEDA;}
	.st2{fill:#FFFFFF;}
</style>
<rect x="23.2" y="19.4" class="st0" width="456.4" height="121.3"/>
<rect x="23.2" y="151.1" class="st1" width="456.4" height="65"/>
<path class="st2" d="M111,123.7H80.6V37.6h59.5c0,0,27.2-0.6,27.2,26s-18.4,24.1-18.4,24.1l13.3,20.3l35.4-70.9h26.6l43,87.4h-31
	l-5.7-13.9h-39.3l-8.2,13.3h-41l-17.1-30.4h-13.6L111,123.7z"/>
<path class="st0" d="M110.7,71.3V57.6h21.8c0,0,5.5,2,5.5,7s-5.1,6.7-5.1,6.7H110.7z"/>
<polygon class="st0" points="223.2,90.7 200,90.7 211.5,67.4 "/>
<polygon class="st2" points="263.5,37.2 235,37.2 277,122.6 287.3,122.6 305.8,87.6 324.8,123.1 335.8,123.1 369.3,57.1 
	369.3,122.8 414.1,122.8 427,99.9 394.5,99.9 394.5,36.9 349.5,36.9 330.7,73.9 306.4,36.1 282.6,73.3 "/>
<path class="st2" d="M437.3,53.3L437.3,53.3c1-0.4,1.9-1.2,1.9-2.5c0-1-0.3-1.7-0.9-2.1c-0.6-0.5-1.6-0.8-3.1-0.8
	c-1.2,0-2,0.1-2.8,0.2V58h1.6v-4h1.1c1.2,0,1.9,0.4,2.1,1.7s0.5,2.2,0.7,2.5h1.7c-0.1-0.4-0.4-1-0.6-2.5S438.2,53.5,437.3,53.3z
	 M435.1,52.5H434v-3.3c0.2-0.1,0.6-0.1,1.1-0.1c1.8,0,2.4,0.8,2.4,1.7C437.5,52,436.4,52.5,435.1,52.5z"/>
<path class="st2" d="M435.7,43.9c-4.9,0-8.9,4-8.9,8.9c0,5,3.9,8.9,8.8,8.9c4.9,0,8.8-3.9,8.8-8.9C444.4,47.9,440.6,43.9,435.7,43.9
	z M435.6,60.3c-3.9,0-7.1-3.3-7.1-7.5c0-4.1,3.2-7.5,7.1-7.5c4,0,7.2,3.4,7.1,7.5C442.7,57,439.6,60.3,435.6,60.3z"/>
<path class="st2" d="M91.6,168.7h27.3v5.3H99.5v6.9h17v5.2h-17v12.6h-8L91.6,168.7L91.6,168.7z"/>
<path class="st2" d="M148.6,198.7h-8v-30h8V198.7z"/>
<path class="st2" d="M179.3,198.7H170l12.3-15.3l-11.7-14.7h9.6l6.8,9.8l7-9.8h9.2l-11.7,14.5l12.4,15.5h-9.7l-7.3-10.2L179.3,198.7
	z"/>
<path class="st2" d="M233.1,198.7h-8v-30h8V198.7z"/>
<path class="st2" d="M257.6,168.7h8.4l15.2,20.9v-20.9h7.5v30h-8l-15.6-21.3v21.3h-7.5V168.7z"/>
<path class="st2" d="M339.1,178c-0.6-2.1-2.1-3.5-4.4-4.3c-1.3-0.4-2.8-0.7-4.4-0.7c-3.1,0-5.6,0.9-7.6,2.7c-2,1.8-3,4.6-3,8.2
	c0,3.7,1.1,6.3,3.2,7.8s4.6,2.3,7.3,2.3c2.7,0,4.9-0.6,6.6-1.8c1.7-1.2,2.8-2.8,3.2-4.8h-8.9v-5h16v16.1h-5.3l-0.8-3.8
	c-1.5,1.4-2.9,2.4-4.2,3c-2.1,1-4.7,1.5-7.8,1.5c-5.1,0-9.2-1.4-12.5-4.1c-3.4-2.8-5.1-6.6-5.1-11.4c0-4.9,1.7-8.8,5.1-11.7
	c3.4-2.9,7.9-4.4,13.5-4.4c4.9,0,8.8,1,11.7,2.9c3,1.9,4.6,4.4,5.1,7.2L339.1,178L339.1,178z"/>
<path class="st2" d="M377.6,189.4c0.2,1.4,0.7,2.4,1.5,3.1c1.3,1.2,3.6,1.9,6.8,1.9c1.9,0,3.5-0.2,4.7-0.5c2.3-0.6,3.4-1.8,3.4-3.5
	c0-1-0.6-1.8-1.7-2.3c-1.1-0.5-2.9-1-5.3-1.4l-4.1-0.7c-4.1-0.7-6.9-1.5-8.4-2.3c-2.6-1.4-3.9-3.6-3.9-6.5c0-2.7,1.3-4.9,3.8-6.7
	c2.5-1.8,6.2-2.7,11.1-2.7c4.1,0,7.6,0.8,10.5,2.5s4.4,4.1,4.5,7.3h-7.7c-0.1-1.8-1.2-3.1-3.1-3.9c-1.3-0.5-2.9-0.8-4.8-0.8
	c-2.1,0-3.8,0.3-5.1,1c-1.3,0.7-1.9,1.6-1.9,2.7s0.6,1.9,1.9,2.4c0.8,0.4,2.5,0.8,5.1,1.2l6.7,1.2c2.9,0.5,5.2,1.3,6.6,2.2
	c2.3,1.4,3.4,3.5,3.4,6.1c0,2.7-1.4,5-4.1,6.8c-2.7,1.8-6.5,2.7-11.5,2.7s-9-0.9-11.9-2.7c-2.9-1.8-4.3-4.2-4.3-7.4L377.6,189.4
	L377.6,189.4z"/>
</svg>
