<?xml version="1.0" encoding="utf-8"?>
<!-- Generator: Adobe Illustrator 19.1.0, SVG Export Plug-In . SVG Version: 6.00 Build 0)  -->
<svg version="1.1" id="Calque_1" xmlns="http://www.w3.org/2000/svg" xmlns:xlink="http://www.w3.org/1999/xlink" x="0px" y="0px"
	 viewBox="-345 170.9 500 500" style="enable-background:new -345 170.9 500 500;" xml:space="preserve">
<style type="text/css">
	.st0{fill:#E5231B;}
	.st1{fill:#0D0802;}
</style>
<path class="st0" d="M-171.8,419.5h-27.9l16.5,16.1h-50.7l-17-17.9h47.2v-0.2c5.2-0.5,5.4-2.1,7.6-6.5c1.7-3.2,9.2-21.7,11.4-26.2
	c2.2-4.5,2.5-8.7,0.7-11.5c-1.8-2.8-4.7-3.3-8.6-3.3c-2.7,0-5,0-6.2,0h-0.9h-114.7l-6.1,17.6h24.3l-4.4,12.5h0l-0.5,1.6l-18,51.1
	h23.8l12.8-35h0.8l38,35v0h0h26.2h29.1l-25.4,16.9h27.9l39.1-25.9L-171.8,419.5z M-271.6,387.6h62.1l-4.6,12.5h-62.1L-271.6,387.6z"
	/>
<path class="st1" d="M92.4,405.2L101,378l-0.2,0.1c1.6-6.5-0.5-8.1-5.7-8.1H6.4L12,354H-6.3L-24,405.5h-57.5c0,0,6.3-20.2,7.1-22.3
	s3.1-1.7,3.1-1.7s17.8,0,22.2,0c4.4,0,3.6,3,3.6,3l-0.7,3.8H-29l2.9-9c2.2-7.6,0.1-9.3-5.4-9.3h-51c-1.7,0-3.5,1.2-4,2.8l-10.9,32.6
	H-113l-40.9-0.1l1.7-4.9h40.9c1.5,0,3.1-1.2,3.6-2.7l0,0l8.3-24.8c0.5-1.5-0.3-2.8-1.9-2.8h-53.1c-1.5,0-3.2,1.2-3.6,2.8l-0.3,1
	l-0.1,0l-6.8,19.9c-0.1,0.2-0.1,0.5-0.2,0.9l-6,17.5c-0.5,1.5-0.5,6.7,4.3,6.7h1.4h48.2h13.6l5.6-11.1l-1,3.1c-1.6,3.7,0,8,4.6,8
	h64.8c1.7,0,3.5-1.2,4-2.8l0-0.1c0.7,1.7,2.3,2.9,4.7,2.9H17c1.7,0,3.5-1.2,4-2.8l1.7-4.9c-0.4,4.6,1.2,7.6,8,7.6
	c10.3,0,90.6,0,90.6,0l5.1-13.3L92.4,405.2L92.4,405.2z M-145,380.7h26.6l-2.7,7.8h-26.6L-145,380.7z M73.4,405.9
	c0,0-13.6-0.3-32.9-0.3c0-9.3,35-6.5,35-6.5L73.4,405.9z M81.1,384.5l-0.5,2.8c-6.5,0-35.9,0-41.2,0c-6,0-12,5.8-14.7,15.2
	c-0.3,1-0.6,2.1-0.9,3H-6.1l8.4-24c1.9,0,70.9,0,75.2,0C81.9,381.5,81.1,384.5,81.1,384.5z"/>
<path class="st1" d="M73.1,454.3h34l5.8-15.6H79.6l5.5-16.2H67.6l-19.9,51.5H34.5l12.8-34.3h-0.9h-19H-0.8l-28.5,35.2l-8.6-35.6
	h-20.2l14.9,51.6H-21l30.2-37.4h13L8.1,491.2h19.9l0.2-0.5h15.2c0,0,0,0,2.6-7.5c-2.9,8.6,8.4,7.8,8.4,7.8H82l5.8-14.4
	c0,0-10.4,0-17.8,0c-7.4,0-3.4-6.1-3.4-6.1L73.1,454.3z"/>
<polygon class="st1" points="54,422.2 34,422.2 28.4,437 48.3,437 "/>
<path class="st1" d="M126.2,377.3l-2.4-4.2h-3.5v-2.3h3.9c0.6,0,1-0.3,1.3-0.8c0.3-0.5,0.5-1.3,0.5-2.3c0-1-0.2-1.7-0.5-2.2
	s-0.8-0.7-1.3-0.7h-5.1v12.5h-1.6v-15.1h6.8c0.5,0,1,0.1,1.4,0.4c0.4,0.3,0.8,0.6,1.1,1.1c0.3,0.5,0.5,1.1,0.7,1.7
	c0.2,0.7,0.2,1.4,0.2,2.3c0,1.3-0.2,2.3-0.5,3.2c-0.3,0.9-0.8,1.5-1.4,1.8l2.8,4.6L126.2,377.3L126.2,377.3z"/>
<path class="st1" d="M123.4,382c-7.5,0-13.5-6.1-13.5-13.5c0-7.5,6.1-13.5,13.5-13.5c7.5,0,13.5,6.1,13.5,13.5
	C137,376,130.9,382,123.4,382z M123.4,356.8c-6.5,0-11.7,5.2-11.7,11.7c0,6.5,5.2,11.7,11.7,11.7c6.5,0,11.7-5.2,11.7-11.7
	C135.1,362.1,129.9,356.8,123.4,356.8z"/>
</svg>
