<?xml version="1.0" encoding="utf-8"?>
<!-- Generator: Adobe Illustrator 15.0.0, SVG Export Plug-In . SVG Version: 6.00 Build 0)  -->
<!DOCTYPE svg PUBLIC "-//W3C//DTD SVG 1.1//EN" "http://www.w3.org/Graphics/SVG/1.1/DTD/svg11.dtd">
<svg version="1.1" id="Calque_1" xmlns="http://www.w3.org/2000/svg" xmlns:xlink="http://www.w3.org/1999/xlink" x="0px" y="0px"
	 width="500px" height="500px" viewBox="0 0 500 500" enable-background="new 0 0 500 500" xml:space="preserve">
<g>
	<path fill="#E5231B" d="M173.21,248.6h-27.894l16.5,16.092h-50.688l-16.952-17.854h47.233v-0.23
		c5.235-0.504,5.369-2.144,7.625-6.475c1.663-3.191,9.196-21.725,11.379-26.208c2.185-4.483,2.529-8.736,0.689-11.495
		c-1.838-2.759-4.712-3.333-8.62-3.333c-2.677,0-5.029,0-6.246,0h-0.881H30.677l-6.129,17.625h24.266l-4.403,12.49h-0.029
		l-0.53,1.585l-17.999,51.059h23.756l12.808-35.019h0.758l38.004,34.984v0.035h0.039h26.208h29.078l-25.438,16.859h27.894
		l39.081-25.9L173.21,248.6z M73.43,216.722h62.088l-4.553,12.49H68.863L73.43,216.722z"/>
	<path fill="#0D0802" d="M437.431,234.346l8.583-27.28l-0.207,0.102c1.603-6.533-0.532-8.071-5.732-8.071h-88.688l5.583-15.939
		h-18.237l-17.708,51.457h-57.505c0,0,6.321-20.23,7.126-22.299s3.104-1.724,3.104-1.724s17.816,0,22.184,0
		c4.368,0,3.563,2.988,3.563,2.988l-0.689,3.793h17.165l2.882-8.966c2.185-7.586,0.115-9.311-5.402-9.311h-51.044
		c-1.729,0-3.525,1.235-4.015,2.759L247.471,234.5h-15.508l-40.889-0.115l1.699-4.942h40.857c1.52,0,3.147-1.23,3.64-2.749
		l0.03-0.002l8.317-24.835c0.489-1.524-0.349-2.759-1.873-2.759h-53.062c-1.524,0-3.156,1.235-3.644,2.759l-0.337,0.989
		l-0.122-0.005l-6.778,19.935c-0.07,0.217-0.127,0.513-0.167,0.852l-5.963,17.54c-0.49,1.523-0.536,6.667,4.291,6.667h1.38h48.158
		h13.606l5.629-11.129l-1.032,3.083c-1.609,3.679,0,8.046,4.598,8.046h64.753c1.729,0,3.525-1.235,4.015-2.758l0.05-0.147
		c0.729,1.689,2.321,2.905,4.748,2.905h38.161c1.729,0,3.525-1.235,4.015-2.758l1.669-4.946c-0.439,4.643,1.215,7.551,7.957,7.551
		c10.269,0,90.577,0,90.577,0l5.058-13.334H437.431z M199.958,209.786h26.556l-2.708,7.816h-26.557L199.958,209.786z
		 M418.384,234.991c0,0-13.598-0.339-32.907-0.339c0-9.349,35.024-6.456,35.024-6.456L418.384,234.991z M426.118,213.579
		l-0.515,2.836c-6.453,0-35.885,0-41.2,0c-5.978,0-11.955,5.824-14.714,15.173c-0.308,1.044-0.599,2.053-0.861,3.026h-29.882
		l8.413-24.023c1.945,0,70.891,0,75.196,0C426.923,210.591,426.118,213.579,426.118,213.579z"/>
	<g>
		<path fill="#0D0802" d="M418.121,283.39h34.023l5.823-15.632h-33.411l5.519-16.246h-17.473l-19.924,51.494h-13.143l12.835-34.328
			h-0.918h-19.005h-28.2l-28.506,35.248l-8.582-35.556h-20.23l14.865,51.648h22.223l30.192-37.396h13.023l-14.096,37.702h19.924
			l0.171-0.46h15.154c0,0,0,0,2.605-7.511c-2.912,8.583,8.43,7.817,8.43,7.817h27.587l5.824-14.407c0,0-10.423,0-17.778,0
			c-7.356,0-3.371-6.13-3.371-6.13L418.121,283.39z"/>
		<polygon fill="#0D0802" points="398.962,251.358 379.038,251.358 373.367,266.071 393.291,266.071 		"/>
	</g>
	<g>
		<g>
			<path fill="#0D0802" d="M471.218,206.384l-2.384-4.204h-3.525v-2.331h3.926c0.597,0,1.046-0.26,1.348-0.781
				c0.303-0.519,0.454-1.272,0.454-2.258c0-0.984-0.158-1.716-0.473-2.195c-0.315-0.479-0.759-0.718-1.329-0.718h-5.131v12.486
				h-1.633v-15.129h6.764c0.536,0,1.016,0.128,1.438,0.385c0.424,0.257,0.782,0.624,1.076,1.103
				c0.293,0.479,0.518,1.058,0.673,1.738c0.156,0.679,0.233,1.442,0.233,2.289c0,1.262-0.171,2.32-0.512,3.173
				c-0.343,0.854-0.818,1.467-1.432,1.842l2.837,4.599H471.218z"/>
		</g>
		<g>
			<path fill="#0D0802" d="M468.449,211.153c-7.465,0-13.539-6.074-13.539-13.541c0-7.466,6.074-13.54,13.539-13.54
				c7.466,0,13.54,6.074,13.54,13.54C481.989,205.079,475.915,211.153,468.449,211.153z M468.449,185.912
				c-6.451,0-11.7,5.249-11.7,11.7c0,6.453,5.249,11.701,11.7,11.701c6.452,0,11.7-5.249,11.7-11.701
				C480.149,191.161,474.901,185.912,468.449,185.912z"/>
		</g>
	</g>
</g>
</svg>
