<?xml version="1.0" encoding="utf-8"?>
<!-- Generator: Adobe Illustrator 21.0.2, SVG Export Plug-In . SVG Version: 6.00 Build 0)  -->
<svg version="1.1" id="Calque_1" xmlns="http://www.w3.org/2000/svg" xmlns:xlink="http://www.w3.org/1999/xlink" x="0px" y="0px"
	 viewBox="0 0 500 96" style="enable-background:new 0 0 500 96;" xml:space="preserve">
<style type="text/css">
	.st0{fill:#FF1F45;}
	.st1{fill:#0D0802;}
	.st2{fill:#FFFFFF;}
</style>
<path class="st0" d="M85.1,69.6C74.6,63.9,68.6,56.2,68,55.4c-4.6-5-4-12.6-4-13.4c0-4.2,2.5-10.8,4.7-14.9c-1.1-0.7-1.8-2.2-2-2.6
	L66,22.9h1.8c1,0,2.6-0.1,3.2-0.4c0.1-0.1,0.4-0.3,0.7-0.5c1.5-1.2,4.4-3.6,9.9-3.6c10.3,0,16.7,7.1,17,14c0.3,7.4-3.2,15.1-6.4,21
	c-3.4,6.5-5.4,15.4-5.5,15.5l-0.3,1.5L85.1,69.6z"/>
<path class="st1" d="M81.5,19.4c9.4,0,15.6,6.2,15.9,12.9c0.3,6.7-2.7,13.8-6.2,20.4c-3.5,6.7-5.6,15.8-5.6,15.8
	c-10.7-5.8-16.7-14-16.7-14c-4.5-4.8-3.7-12.6-3.7-12.6c0-4.4,3-11.8,5.3-15.8c-0.1,0.1-0.3,0.1-0.4,0.1c-1.3,0-2.3-2.3-2.3-2.3
	s2.6,0,3.7-0.6S75.1,19.4,81.5,19.4 M81.5,17.1c-5.9,0-9.1,2.6-10.6,3.8c-0.2,0.2-0.5,0.4-0.5,0.4c-0.3,0.1-1.6,0.3-2.6,0.3h-3.5
	l1.4,3.2c0.2,0.5,0.8,1.6,1.6,2.4c-2,4.1-4.3,10.2-4.4,14.6c-0.1,1.2-0.6,9,4.2,14.2c0.8,1.1,6.9,8.8,17.4,14.5l2.6,1.4l0.7-2.9
	c0-0.1,2-8.9,5.4-15.2c3.2-6,6.8-13.9,6.5-21.6C99.4,24.8,92.5,17.1,81.5,17.1L81.5,17.1z"/>
<path d="M84.4,49.5c0,0-5.4,2.3-6.8-0.8c-1.4-3-8.8-3.2-10.5-5.4l0.9-1l-3.8-0.1c-1.2-0.1-15.6,1.9-24,1.9c-7.8,0-14.6,3.9-17.1,5.5
	l-0.3,0.2L21,51.7l5,2.4c2.2,1.1,8.4,3.8,19.4,3.8c1,0,2.1,0,3.3-0.1c11.3-0.5,16.7-1,22.8-2.8C77.5,53.3,84.4,49.5,84.4,49.5z"/>
<path class="st2" d="M40.2,46.4c8.6,0,24.4-2,26-2.3c0.5,0.4,2.3,2,4,2.5s6,2.9,6.2,5.2c-5.6,1.2-10.9,1.1-14.5,1.1
	c-0.7,0-1.3,0-1.9,0c-0.3,0-0.6,0-0.9,0C57,53,54,52.7,50.6,52.4c-4-0.4-8.5-0.8-12.6-0.7c-5.8,0.1-11.6,0-13.7-0.1
	C26.4,50.2,32.9,46.4,40.2,46.4z"/>
<path class="st2" d="M48.6,55.6c-12.5,0.6-19.3-2.3-21.5-3.4c2.8,0.1,6.9,0.1,11,0c4-0.1,8.5,0.4,12.5,0.7c3.4,0.3,6.4,0.6,8.5,0.5
	c0.8,0,1.7,0,2.8,0c0.8,0,1.8,0,2.8,0c1.8,0,3.8,0,5.9-0.2C66.9,54.3,59.5,55.1,48.6,55.6z"/>
<path class="st2" d="M76.7,43.8c-3.9,0-5.4-2-5.8-2.5c1.9-0.9,5.1-2.5,7.6-4.5c1.6-1.2,3.1-2,4.5-2.5C82.9,36.6,81.3,43.8,76.7,43.8
	z"/>
<path d="M87.4,50.2l-4.3-2.6c-0.4,0.2,1.3,1.5,0.8,1.7c-2.3,1.1-4.6,1.8-6.9,2.4c-0.4-2.6-4.8-5.1-6.6-5.6c-1.8-0.5-3.8-2.5-3.9-2.5
	l-0.1-0.1h-0.1c-0.2,0-17.1,2.3-26.1,2.3c-9.1,0-16.8,5.7-16.9,5.7L22.7,52h0.8c0,0,1,0,2.5,0.1l0,0c0.3,0.2,6,4.1,19.4,4.1
	c1,0,2.1,0,3.3-0.1c13.5-0.6,21.4-1.6,24.2-3.1l0,0c3.7-0.5,7.6-1.4,11.5-3.2C84.6,49.6,87,50.4,87.4,50.2z M40.2,46.4
	c8.6,0,24.4-2,26-2.3c0.5,0.4,2.3,2,4,2.5s6,2.9,6.2,5.2c-5.6,1.2-10.9,1.1-14.5,1.1c-0.7,0-1.3,0-1.9,0c-0.3,0-0.6,0-0.9,0
	C57,53,54,52.7,50.6,52.4c-4-0.4-8.5-0.8-12.6-0.7c-5.8,0.1-11.6,0-13.7-0.1C26.4,50.2,32.9,46.4,40.2,46.4z M48.6,55.6
	c-12.5,0.6-19.3-2.3-21.5-3.4c2.8,0.1,6.9,0.1,11,0c4-0.1,8.5,0.4,12.5,0.7c3.4,0.3,6.4,0.6,8.5,0.5c0.8,0,1.7,0,2.8,0
	c0.8,0,1.8,0,2.8,0c1.8,0,3.8,0,5.9-0.2C66.9,54.3,59.5,55.1,48.6,55.6z"/>
<path d="M78,35.3c-3.5,3.2-8.8,6.5-8.9,6.5c0,0,0.7,0,1.6-0.4c0.3,0.6,2,3.2,6.2,3.2c4.6,0,6.4-7.5,6.4-10.3
	c2.1-0.6,4.1-0.6,6.3-0.6C89.9,33.7,83.7,30.1,78,35.3z M76.7,43.8c-3.9,0-4.3-2.5-4.7-3c1.9-0.9,4-2,6.5-3.9c1.6-1.2,3.1-2,4.5-2.5
	C82.9,36.6,81.3,43.8,76.7,43.8z"/>
<path d="M109.8,74.2c0,1.1,0.1,3,5.3,5.8c-11.2-3.5-27,2.4-27,2.4s3.8-5,10.8-6.5c1.6-0.4,1.6-2,1.6-2S106.9,76.2,109.8,74.2"/>
<path d="M106.9,75.9c-7.5,0-14.5-1-21.6-4.8l0.9-2.6c6.6,3.6,13.6,5.4,20.6,5.4c0.1,0,0.2,0,0.2,0c7.8,0,13-5.2,13.1-5.4l2.3,0.1
	c-0.1,0.2-5.4,7.2-15.2,7.2C107.1,75.9,107,75.9,106.9,75.9z"/>
<path d="M132.8,55.6l-0.1,0.2c-11.8,5.7-15,2.3-15,2.3s7.9-0.5,13.5-3.2l0,0c0.3-0.1,0.5-0.2,0.7-0.3c0.7-0.4,1.4-0.8,1.9-1.2
	c4.5-3.6,7-10.7,7-10.7s-1.3,0-4.4,0c2-1,2.3-3.4,2.3-3.4l-3.3,0.9c0,0,2.4-4.3,0.6-3.3C114.1,49,94.8,48.5,94.8,48.5
	c-1.7,5.7-4.4,10.8-6.1,14.8c34.8,15,52.8-0.7,54.4-4.4C141.1,59.1,137.3,57.8,132.8,55.6z M93.4,52.5l2.1-4c0.1,5.3,4,6.7,4,6.7
	S95.7,57.6,93.4,52.5z"/>
<path d="M72.9,40.3c0,0,0.8,1.4,0,2.4c-1.4-0.6-1.5-1.4-1.5-1.4l0.2-0.4L72.9,40.3z"/>
<path d="M179,55.6c-0.7-0.8-1.5-1.5-2.4-2.2c2.7-0.8,4.8-2.1,6.4-3.8c2.2-2.4,3.3-5.5,3.3-9.1c0-2.9-0.7-5.4-2.1-7.7
	c-1.4-2.3-3.4-3.9-5.8-4.8c-2.3-0.9-5.8-1.3-10.7-1.3h-20.1v46.8h11.5V55.1h0.5c2.4,0,3.5,0.2,4.1,0.4c0.7,0.3,1.5,0.8,2.2,1.5
	c0.8,0.8,2.3,3,4.6,6.3l6.8,10.2H191l-6.6-10.6C182,59.5,180.3,57.1,179,55.6z M159,36.9h5.7c4.4,0,5.9,0.1,6.3,0.1
	c1.1,0.2,2,0.6,2.6,1.3c0.6,0.7,0.9,1.6,0.9,2.7s-0.2,1.9-0.7,2.6c-0.4,0.6-1,1.1-1.8,1.4c-0.5,0.2-2.2,0.5-7.6,0.5h-5.3L159,36.9
	L159,36.9z"/>
<polygon points="207.2,54.2 229.3,54.2 229.3,44.1 207.2,44.1 207.2,36.9 231,36.9 231,26.8 195.6,26.8 195.6,73.6 231.8,73.6 
	231.8,63.6 207.2,63.6 "/>
<path d="M273.7,32.2c-2-2.1-4.4-3.6-7.2-4.4c-2.1-0.6-4.9-0.9-8.8-0.9h-17.6v46.8h18.1c3.5,0,6.2-0.3,8.3-1c2.8-0.9,5.1-2.2,6.8-3.8
	c2.2-2.1,3.9-4.9,5.1-8.3c0.9-2.8,1.4-6.1,1.4-9.8c0-4.3-0.5-7.9-1.5-10.9C277.2,36.8,275.7,34.2,273.7,32.2z M251.6,36.9h2.7
	c4.4,0,6.2,0.2,7,0.4c1.4,0.3,2.6,0.9,3.5,1.8c0.9,0.9,1.7,2.1,2.2,3.7c0.6,1.7,0.8,4.2,0.8,7.5s-0.3,5.9-0.8,7.7
	c-0.5,1.7-1.2,3-2,3.7c-0.8,0.7-1.8,1.2-3,1.5c-1,0.3-2.7,0.4-5.1,0.4h-5.4V36.9H251.6z"/>
<polygon points="325.3,44.2 310.4,44.2 310.4,26.8 298.9,26.8 298.9,73.6 310.4,73.6 310.4,54.3 325.3,54.3 325.3,73.6 336.8,73.6 
	336.8,26.8 325.3,26.8 "/>
<path d="M386,73.2v-9.7h-24.7v-9.4h22.2v-10h-22.2v-7.2h23.8V26.8h-35.3v46.8h36.1h0.1h0.1c0-0.2,0-0.3,0-0.5L386,73.2z"/>
<path d="M418.7,26.8h-11.2l-18,46.3c0,0.2,0,0.3,0,0.5h12.1l3.6-10H421l3.9,10h12.5L418.7,26.8z M408.9,53.5l4.1-11.3l4.2,11.3
	H408.9z"/>
<path d="M481.5,39.8c-1-3-2.5-5.6-4.5-7.6c-2-2.1-4.4-3.6-7.2-4.4c-2.1-0.6-4.9-0.9-8.8-0.9h-17.7v46.8h18.1c3.4,0,6.2-0.3,8.3-1
	c2.8-0.9,5.1-2.2,6.8-3.8c2.2-2.1,3.9-4.9,5.1-8.3c0.9-2.8,1.4-6.1,1.4-9.8C483,46.4,482.5,42.7,481.5,39.8z M454.9,36.9h2.7
	c4.4,0,6.2,0.2,7,0.4c1.4,0.3,2.6,0.9,3.5,1.8s1.7,2.1,2.2,3.7c0.6,1.7,0.8,4.2,0.8,7.5s-0.3,5.9-0.8,7.7c-0.5,1.7-1.2,3-2,3.7
	c-0.8,0.7-1.8,1.2-3,1.5c-1,0.3-2.7,0.4-5.1,0.4h-5.4V36.9H454.9z"/>
</svg>
