<?xml version="1.0" encoding="utf-8"?>
<!-- Generator: Adobe Illustrator 15.0.0, SVG Export Plug-In . SVG Version: 6.00 Build 0)  -->
<!DOCTYPE svg PUBLIC "-//W3C//DTD SVG 1.1//EN" "http://www.w3.org/Graphics/SVG/1.1/DTD/svg11.dtd">
<svg version="1.1" id="Calque_1" xmlns="http://www.w3.org/2000/svg" xmlns:xlink="http://www.w3.org/1999/xlink" x="0px" y="0px"
	 width="500px" height="500px" viewBox="0 0 500 500" enable-background="new 0 0 500 500" xml:space="preserve">
<g>
	<g>
		<path fill="#FF1F45" d="M85.057,271.578c-10.464-5.659-16.451-13.43-17.051-14.229c-4.626-4.97-4.035-12.588-3.954-13.424
			c0.023-4.243,2.542-10.786,4.673-14.916c-1.133-0.74-1.849-2.216-2.018-2.59l-0.72-1.6l1.756-0.002
			c0.952-0.001,2.569-0.14,3.184-0.448c0.124-0.062,0.43-0.31,0.701-0.527c1.543-1.248,4.417-3.568,9.887-3.568
			c10.291,0,16.742,7.122,17.035,14.007c0.316,7.414-3.243,15.13-6.378,21.027c-3.433,6.452-5.445,15.428-5.465,15.517l-0.326,1.47
			L85.057,271.578z"/>
		<path fill="#0D0802" d="M81.515,221.409c9.37,0,15.617,6.248,15.901,12.92c0.284,6.672-2.698,13.771-6.247,20.443
			c-3.549,6.673-5.571,15.807-5.571,15.807c-10.709-5.792-16.718-13.961-16.718-13.961c-4.543-4.827-3.691-12.635-3.691-12.635
			c0-4.401,2.981-11.784,5.252-15.759c-0.128,0.051-0.257,0.075-0.383,0.075c-1.258,0-2.314-2.346-2.314-2.346s2.556,0,3.691-0.568
			S75.126,221.409,81.515,221.409 M81.515,219.138c-5.872,0-9.066,2.58-10.602,3.819c-0.201,0.163-0.452,0.365-0.541,0.421
			c-0.306,0.143-1.607,0.303-2.629,0.303h-3.514l1.442,3.204c0.215,0.478,0.76,1.555,1.633,2.422
			c-2.012,4.089-4.347,10.222-4.388,14.562c-0.102,1.154-0.6,8.987,4.218,14.208c0.811,1.072,6.911,8.836,17.383,14.499l2.646,1.433
			l0.651-2.938c0.02-0.089,2.002-8.918,5.359-15.23c3.203-6.022,6.838-13.919,6.511-21.607
			C99.37,226.813,92.486,219.138,81.515,219.138L81.515,219.138z"/>
		<path d="M84.402,251.461c0,0-5.396,2.271-6.816-0.758c-1.392-2.97-8.801-3.218-10.505-5.395l0.946-1.042l-3.787-0.094
			c-1.18-0.055-15.624,1.939-24.04,1.939c-7.81,0-14.571,3.853-17.114,5.509l-0.273,0.179l-1.827,1.933l4.999,2.446
			c2.162,1.136,8.378,3.778,19.404,3.778c1.046,0,2.139-0.025,3.275-0.075c11.257-0.502,16.709-0.99,22.769-2.767
			C77.494,255.339,84.402,251.461,84.402,251.461z"/>
		<path fill="#FFFFFF" d="M40.201,248.384c8.581,0,24.42-2.046,26.029-2.257c0.451,0.406,2.307,2.012,3.986,2.528
			c1.672,0.515,5.991,2.852,6.247,5.191c-5.571,1.22-10.871,1.137-14.541,1.078c-0.702-0.012-1.343-0.021-1.917-0.021
			c-0.333,0-0.644,0.003-0.93,0.011c-2.11,0.061-5.05-0.215-8.452-0.541c-3.991-0.382-8.515-0.813-12.557-0.736
			c-5.815,0.113-11.599-0.042-13.74-0.111C26.418,252.163,32.882,248.384,40.201,248.384z"/>
		<path fill="#FFFFFF" d="M48.565,257.612c-12.545,0.559-19.313-2.283-21.522-3.446c2.811,0.064,6.916,0.12,11.034,0.038
			c3.999-0.074,8.515,0.355,12.491,0.734c3.423,0.327,6.374,0.604,8.524,0.543c0.764-0.023,1.717-0.007,2.821,0.011
			c0.848,0.013,1.782,0.028,2.787,0.028c1.792,0,3.806-0.047,5.948-0.233C66.92,256.343,59.524,257.124,48.565,257.612z"/>
		<path fill="#FFFFFF" d="M76.688,245.829c-3.938,0-5.427-1.955-5.758-2.484c1.922-0.907,5.092-2.533,7.558-4.451
			c1.602-1.246,3.072-1.998,4.497-2.455C82.937,238.579,81.341,245.829,76.688,245.829z"/>
		<path d="M87.371,252.234l-4.295-2.626c-0.436,0.233,1.262,1.534,0.822,1.743c-2.269,1.076-4.594,1.837-6.88,2.37
			c-0.367-2.614-4.819-5.05-6.636-5.609c-1.76-0.542-3.844-2.472-3.864-2.492l-0.099-0.092l-0.133,0.018
			c-0.17,0.022-17.121,2.27-26.085,2.27c-9.075,0-16.845,5.677-16.921,5.734l-0.649,0.481l0.807,0.03
			c0.025,0.002,0.958,0.037,2.46,0.078l-0.01,0.013c0.254,0.18,5.966,4.102,19.427,4.102c1.043,0,2.136-0.024,3.275-0.075
			c13.513-0.604,21.423-1.613,24.185-3.085l-0.02-0.036c3.687-0.475,7.647-1.408,11.466-3.231
			C84.643,251.626,86.953,252.459,87.371,252.234z M40.201,248.384c8.581,0,24.42-2.046,26.029-2.257
			c0.451,0.406,2.307,2.012,3.986,2.528c1.672,0.515,5.991,2.852,6.247,5.191c-5.571,1.22-10.871,1.137-14.541,1.078
			c-0.702-0.012-1.343-0.021-1.917-0.021c-0.333,0-0.644,0.003-0.93,0.011c-2.11,0.061-5.05-0.215-8.452-0.541
			c-3.991-0.382-8.515-0.813-12.557-0.736c-5.815,0.113-11.599-0.042-13.74-0.111C26.418,252.163,32.882,248.384,40.201,248.384z
			 M48.565,257.612c-12.545,0.559-19.313-2.283-21.522-3.446c2.811,0.064,6.916,0.12,11.034,0.038
			c3.999-0.074,8.515,0.355,12.491,0.734c3.423,0.327,6.374,0.604,8.524,0.543c0.764-0.023,1.717-0.007,2.821,0.011
			c0.848,0.013,1.782,0.028,2.787,0.028c1.792,0,3.806-0.047,5.948-0.233C66.92,256.343,59.524,257.124,48.565,257.612z"/>
		<path d="M78,237.321c-3.506,3.188-8.837,6.509-8.892,6.531c0,0,0.686,0.022,1.561-0.384c0.326,0.554,1.987,3.179,6.173,3.179
			c4.618,0,6.421-7.501,6.428-10.295c2.121-0.625,4.147-0.617,6.349-0.606C89.944,235.746,83.712,232.128,78,237.321z
			 M76.688,245.829c-3.938,0-4.345-2.458-4.675-2.986c1.922-0.907,4.009-2.031,6.475-3.949c1.602-1.246,3.072-1.998,4.497-2.455
			C82.937,238.579,81.341,245.829,76.688,245.829z"/>
		<path d="M109.767,276.21c0,1.136,0.142,2.981,5.252,5.821c-11.215-3.55-26.975,2.413-26.975,2.413s3.833-4.969,10.79-6.531
			c1.562-0.426,1.562-1.986,1.562-1.986S106.926,278.246,109.767,276.21"/>
		<g>
			<path d="M106.95,277.915c-7.519,0-14.515-0.993-21.602-4.829l0.852-2.556c6.583,3.563,13.628,5.396,20.585,5.396
				c0.081,0,0.16,0,0.241,0c7.815,0,12.992-5.233,13.105-5.396l2.271,0.144c-0.148,0.222-5.447,7.239-15.191,7.239
				C107.125,277.915,107.037,277.915,106.95,277.915z"/>
		</g>
		<path d="M132.837,257.594l-0.071,0.16c-11.784,5.679-15.049,2.271-15.049,2.271s7.869-0.526,13.527-3.245
			c-0.014-0.007-0.027-0.013-0.04-0.021c0.253-0.091,0.495-0.216,0.739-0.331c0.693-0.37,1.35-0.77,1.937-1.215
			c4.532-3.566,6.979-10.663,6.979-10.663s-1.277,0-4.401,0c1.988-0.994,2.271-3.407,2.271-3.407l-3.265,0.852
			c0,0,2.414-4.259,0.568-3.266c-21.864,12.068-41.172,11.642-41.172,11.642c-1.704,5.679-4.401,10.789-6.105,14.764
			c34.783,15.049,52.814-0.709,54.375-4.4C141.104,261.115,137.268,259.795,132.837,257.594z M93.44,254.488l2.129-3.975
			c0.143,5.253,3.976,6.672,3.976,6.672S95.712,259.6,93.44,254.488z"/>
		<path d="M72.916,242.3c0,0,0.777,1.448,0,2.386c-1.395-0.643-1.502-1.448-1.502-1.448l0.161-0.429L72.916,242.3z"/>
	</g>
	<g>
		<path d="M178.97,257.638c-0.712-0.763-1.526-1.495-2.44-2.189c2.684-0.797,4.836-2.08,6.417-3.831
			c2.163-2.398,3.258-5.454,3.258-9.085c0-2.851-0.716-5.428-2.13-7.66c-1.435-2.266-3.382-3.866-5.788-4.76
			c-2.309-0.855-5.821-1.271-10.742-1.271h-20.078v46.784h11.532v-18.439h0.501c2.354,0,3.505,0.23,4.055,0.424
			c0.741,0.26,1.47,0.764,2.163,1.501c0.789,0.835,2.325,2.961,4.566,6.323l6.837,10.191h13.722l-6.643-10.614
			C182.008,261.472,180.297,259.061,178.97,257.638z M158.999,238.928h5.652c4.409,0,5.875,0.075,6.293,0.133
			c1.147,0.19,1.993,0.617,2.587,1.298c0.585,0.676,0.872,1.573,0.872,2.745c0,1.051-0.229,1.919-0.679,2.578
			c-0.443,0.648-1.044,1.096-1.84,1.366c-0.521,0.177-2.199,0.474-7.595,0.474h-5.291V238.928z"/>
		<polygon points="207.161,256.16 229.336,256.16 229.336,246.104 207.161,246.104 207.161,238.928 230.994,238.928 
			230.994,228.841 195.629,228.841 195.629,275.625 231.836,275.625 231.836,265.566 207.161,265.566 		"/>
		<path d="M273.712,234.16c-1.998-2.108-4.434-3.596-7.24-4.422c-2.065-0.604-4.935-0.896-8.771-0.896h-17.606v46.784h18.088
			c3.461,0,6.172-0.327,8.293-0.997c2.812-0.902,5.092-2.191,6.78-3.832c2.188-2.125,3.887-4.922,5.055-8.317
			c0.945-2.755,1.425-6.061,1.425-9.824c0-4.261-0.509-7.915-1.516-10.862C277.199,238.805,275.684,236.237,273.712,234.16z
			 M251.627,238.928h2.7c4.386,0,6.246,0.211,7.044,0.391c1.422,0.31,2.602,0.899,3.507,1.753c0.92,0.869,1.654,2.125,2.186,3.737
			c0.557,1.685,0.838,4.193,0.838,7.455c0,3.271-0.284,5.862-0.846,7.708c-0.53,1.738-1.19,2.975-1.962,3.675
			c-0.788,0.714-1.811,1.229-3.047,1.539c-0.994,0.254-2.698,0.381-5.069,0.381h-5.351V238.928z"/>
		<polygon points="325.279,246.226 310.418,246.226 310.418,228.841 298.887,228.841 298.887,275.625 310.418,275.625 
			310.418,256.312 325.279,256.312 325.279,275.625 336.812,275.625 336.812,228.841 325.279,228.841 		"/>
		<path d="M386.017,275.246v-9.68h-24.676v-9.406h22.175v-10.056h-22.175v-7.176h23.832v-10.087h-35.365v46.784h36.06h0.149h0.055
			c0-0.175,0-0.349,0-0.521L386.017,275.246z"/>
		<path d="M418.731,228.841h-11.208l-18.019,46.262c0,0.173,0,0.347,0,0.521h12.086l3.645-10.034h15.842l3.856,10.034h12.532
			L418.731,228.841z M408.93,255.534l4.109-11.292l4.194,11.292H408.93z"/>
		<path d="M481.462,241.792c-1.021-2.989-2.536-5.557-4.507-7.632c-1.999-2.108-4.434-3.595-7.238-4.422
			c-2.069-0.604-4.938-0.896-8.773-0.896h-17.606v46.784h18.088c3.413,0,6.202-0.335,8.293-0.997
			c2.812-0.902,5.093-2.191,6.78-3.832c2.187-2.125,3.889-4.922,5.055-8.317c0.947-2.754,1.426-6.061,1.426-9.824
			C482.979,248.393,482.47,244.738,481.462,241.792z M454.868,238.928h2.7c4.386,0,6.247,0.211,7.045,0.391
			c1.423,0.31,2.603,0.899,3.507,1.753c0.921,0.869,1.656,2.126,2.187,3.737c0.556,1.685,0.839,4.193,0.839,7.455
			c0,3.271-0.286,5.862-0.848,7.708c-0.531,1.738-1.188,2.975-1.962,3.675c-0.788,0.714-1.811,1.229-3.045,1.539
			c-0.995,0.254-2.7,0.381-5.07,0.381h-5.353V238.928z"/>
	</g>
</g>
</svg>
