<?xml version="1.0" encoding="utf-8"?>
<!-- Generator: Adobe Illustrator 19.1.0, SVG Export Plug-In . SVG Version: 6.00 Build 0)  -->
<svg version="1.1" id="Calque_1" xmlns="http://www.w3.org/2000/svg" xmlns:xlink="http://www.w3.org/1999/xlink" x="0px" y="0px"
	 viewBox="-345 170.9 500 500" style="enable-background:new -345 170.9 500 500;" xml:space="preserve">
<style type="text/css">
	.st0{fill:#354B9B;}
</style>
<path class="st0" d="M44.6,421.9L44.6,421.9l0.3-1.3C44.7,421.4,44.6,421.9,44.6,421.9z"/>
<path class="st0" d="M49.1,402.8c-0.1,0.3-0.1,0.7-0.2,1.2L49.1,402.8L49.1,402.8z"/>
<path class="st0" d="M-146.8,427.5c0-6.3-1.4-8.9-4.8-10.5v-0.2c4.1-1.8,5.9-6.7,5.9-13.8c0-5.2-1.6-9.1-4.5-11.8
	c-3.4-3.3-6.9-3.7-14-3.7c-5.8,0-14.4,0.4-14.4,0.4v55.6h8.3v-22.2h7.1c4.5,0.1,6.7,1.3,6.7,9c0,7.1,0.6,11.5,1.3,13.1h10.4
	C-147,439.8-146.8,438.5-146.8,427.5z M-163.6,412.1h-6.7v-14.3c8.7,0,15.3-0.3,15.3,6.2C-155,411.7-159.4,412.1-163.6,412.1z"/>
<polygon class="st0" points="-128.7,419.7 -108,419.7 -108,409.3 -128.7,409.3 -128.7,398.4 -106.7,398.4 -106.7,387.1 -138,387.1 
	-138,443.5 -105.5,443.5 -105.5,433.1 -128.7,433.1 "/>
<path class="st0" d="M-13.3,390.6c-3.8-3.1-10.5-2.8-26.8-2.8v55.6H-30v-20.3c1.2,0.3,2.7,0.3,4.4,0.3c17.9,0,17.7-11.2,17.7-19.3
	C-8,398.7-9.7,393.4-13.3,390.6z M-26.5,413.8c-1.6,0-2.7-0.1-3.6-0.3v-15.2c0.8-0.2,2.3-0.4,4.4-0.4c5.4,0,8.4,2.8,8.4,7.6
	C-17.2,410.7-20.7,413.8-26.5,413.8z"/>
<path class="st0" d="M44.9,420.5c0.9-3.4,3.2-12.6,4-16.5L44.9,420.5z"/>
<polygon class="st0" points="108.3,387.8 108.3,398.4 120.3,398.4 120.3,443.5 130.3,443.5 130.3,398.4 142.4,398.4 142.4,387.8 "/>
<path class="st0" d="M-81,423.2h9.2c0,0-1.7,11-10.1,11s-10.9-10.6-10.9-17.8c0-7.2,2.3-19.8,11-19.8s8.9,9.3,8.9,9.3
	s6.5-0.1,9.1-0.1c0-10.1-7.2-19.4-17.6-19.4s-20.8,8.8-20.8,30.1c0,21.2,10.8,28,19.3,28s12.4-6.8,12.4-6.8v5.9h6.9v-30.2H-81
	L-81,423.2L-81,423.2z"/>
<rect x="-57.7" y="387" class="st0" width="10.8" height="56.7"/>
<polygon class="st0" points="7.6,387 -3.2,387 -3.2,443.6 7.6,443.6 7.6,443.6 27.7,443.6 27.7,432.9 7.6,432.9 "/>
<path class="st0" d="M59.2,443.5h10.4l-15.1-56.4h-9.7L30,443.5h9.3l2.7-11.2h14.6L59.2,443.5z M44.6,421.9L44.6,421.9
	c0,0,0.1-0.5,0.3-1.3l4-16.5c0.1-0.5,0.2-0.9,0.2-1.2h0.1l0.3-1.3l4.7,20.3H44.6z"/>
<path class="st0" d="M81.1,426h-9.3c0,0-1.5,18.5,17.4,18.5c18.8,0,17.4-18.5,17.4-18.5c0-9.2-5.2-12.4-12.7-14.9
	s-12.7-2.3-12.7-8.9c0-5,5.7-5.4,7.2-5.4c2.8,0,7.9,0.9,7.9,8.2h8.7c0,0,1.4-18.5-16.3-18.5S72.4,405,72.4,405s-0.8,10.9,11.4,14.6
	c7.4,2.2,13.8,2.8,13.8,9s-6.4,6.3-8.3,6.3C87.2,434.9,81.1,434.4,81.1,426z"/>
<path class="st0" d="M-266.4,485.1c-35.6,0-64.5-28.7-64.5-64s28.9-64,64.5-64s64.5,28.7,64.5,64S-230.8,485.1-266.4,485.1z
	 M-266.4,360.1c-33.9,0-61.5,27.4-61.5,61c0,33.6,27.6,61,61.5,61s61.5-27.4,61.5-61C-204.9,387.4-232.5,360.1-266.4,360.1z"/>
<polygon class="st0" points="-300.1,468.4 -277.1,428.9 -277.1,375.9 -300.1,375.9 "/>
<path class="st0" d="M-222.8,401c0-25.8-24.1-24.8-29.9-24.8h-18v51.6l25.7,42l19.5-13.8l-20.2-28.5
	C-245.7,427.6-222.8,426.2-222.8,401z"/>
</svg>
