<?xml version="1.0" encoding="utf-8"?>
<!-- Generator: Adobe Illustrator 19.1.0, SVG Export Plug-In . SVG Version: 6.00 Build 0)  -->
<svg version="1.1" id="Calque_1" xmlns="http://www.w3.org/2000/svg" xmlns:xlink="http://www.w3.org/1999/xlink" x="0px" y="0px"
	 viewBox="-345 170.9 500 500" style="enable-background:new -345 170.9 500 500;" xml:space="preserve">
<style type="text/css">
	.st0{fill:#868686;}
	.st1{fill:#129E58;}
	.st2{fill:#689868;}
	.st3{fill:#7F7F7F;}
	.st4{fill:#BC2A5B;}
	.st5{fill:#CA3768;}
	.st6{fill:#FFFFFF;}
</style>
<polygon class="st0" points="-85.6,387.4 -85.6,371.5 -104.9,371.5 -112.3,371.5 -131.6,371.5 -131.6,469.4 -112.3,469.4 
	-104.9,469.4 -85.6,469.4 -85.6,453.1 -104.9,453.1 -104.9,428.6 -85.6,428.6 -85.6,412.3 -104.9,412.3 -104.9,387.4 "/>
<path class="st0" d="M137.1,371.5h-26.7v78.8c-0.4,2-1.5,4.6-5.3,4.6c-3.1,0-4.5-1.8-5-3.6v-79.8H73.4l-0.3,82.4
	c0,8.8,7.1,15.9,15.9,15.9h32.6c8.8,0,15.9-7.1,15.9-15.9L137.1,371.5z"/>
<path class="st0" d="M37.2,371.5l-0.1-0.1c0,0-16.3,0-20.3,0s-17.3,2-17.3,17.3v80.9h26.7v-41h10v41h26.7v-98L37.2,371.5L37.2,371.5
	z M26.3,412.1v-21.7c0,0,0-3.6,10-3v24.7H26.3z"/>
<polygon class="st0" points="-37.9,371.5 -37.9,411.9 -49.4,411.9 -49.4,371.5 -76.1,371.5 -76.1,469.4 -49.4,469.4 -49.4,428.4 
	-37.9,428.4 -37.9,469.4 -11.2,469.4 -11.2,371.5 "/>
<path class="st0" d="M-153.3,420.2c6.2-0.8,11-6.2,11-12.6v-23.4c0-7-5.7-12.7-12.7-12.7h-24.3h-1.3H-206v98h26.7v-41.2
	c1.7,0,5.4,0,6.8,0c1.9,0,4.5,2.5,4.5,5.2v36.3h25.9v-36.4C-142.1,425-149.3,421.5-153.3,420.2z M-179.2,387.1l0.1-0.2
	c0,0,3.7,0,5.5,0s5.6,1.4,5.6,5.6s0,13.5,0,14.9s-0.8,5-3.6,5s-7.6,0-7.6,0V387.1L-179.2,387.1z"/>
<path class="st1" d="M-294.5,379.3c0,0-22.6,34.5-12.7,72c0,0-13.8-14.7-17.3-24.7c-5.3-15.1-4.4-25.5,8.2-35.2
	C-307.1,384.3-294.5,379.3-294.5,379.3z"/>
<path class="st2" d="M-294.5,379.3c0,0-22.6,34.5-12.7,72c0,0-13.8-14.7-17.3-24.7c-5.3-15.1-4.4-25.5,8.2-35.2
	C-307.1,384.3-294.5,379.3-294.5,379.3z"/>
<path class="st3" d="M-231.6,421.5c0,0-19.1-36.6-56.5-46.3c0,0,19.6-4.8,30-3c15.8,2.8,24.4,8.7,26.7,24.4
	C-229.8,408.1-231.6,421.5-231.6,421.5z"/>
<path class="st0" d="M-231.6,421.5c0,0-19.1-36.6-56.5-46.3c0,0,19.6-4.8,30-3c15.8,2.8,24.4,8.7,26.7,24.4
	C-229.8,408.1-231.6,421.5-231.6,421.5z"/>
<path class="st4" d="M-300.5,455.8c0,0,41.2,1.1,68-26.8c0,0-5.3,19.4-12,27.6c-10.1,12.5-19.4,17.1-34.3,11.4
	C-289.6,463.9-300.5,455.8-300.5,455.8z"/>
<path class="st5" d="M-300.5,455.8c0,0,41.2,1.1,68-26.8c0,0-5.3,19.4-12,27.6c-10.1,12.5-19.4,17.1-34.3,11.4
	C-289.6,463.9-300.5,455.8-300.5,455.8z"/>
<path class="st6" d="M121.1,387.5V378h4.1c1,0,1.8,0.1,2.2,0.3c0.5,0.2,0.8,0.5,1.1,0.9s0.4,0.9,0.4,1.5c0,0.7-0.2,1.3-0.6,1.8
	c-0.4,0.5-1,0.8-1.9,0.9c0.4,0.2,0.8,0.5,1,0.8c0.3,0.3,0.6,0.8,1.1,1.5l1.2,1.9h-2.3l-1.4-2.1c-0.5-0.7-0.8-1.2-1-1.4
	s-0.4-0.3-0.6-0.4s-0.5-0.1-1-0.1H123v4L121.1,387.5L121.1,387.5z M123.1,382h1.4c0.9,0,1.5,0,1.7-0.1c0.2-0.1,0.4-0.2,0.5-0.4
	c0.1-0.2,0.2-0.4,0.2-0.7c0-0.3-0.1-0.6-0.3-0.8c-0.2-0.2-0.4-0.3-0.7-0.4c-0.2,0-0.6,0-1.4,0H123L123.1,382L123.1,382z"/>
<path class="st6" d="M125.2,392c-5.2,0-9.4-4.2-9.4-9.4s4.2-9.4,9.4-9.4c5.2,0,9.4,4.2,9.4,9.4S130.4,392,125.2,392z M125.2,374.1
	c-4.7,0-8.5,3.8-8.5,8.5s3.8,8.5,8.5,8.5c4.7,0,8.5-3.8,8.5-8.5C133.7,377.9,129.9,374.1,125.2,374.1z"/>
</svg>
