<?xml version="1.0" encoding="utf-8"?>
<!-- Generator: Adobe Illustrator 21.0.2, SVG Export Plug-In . SVG Version: 6.00 Build 0)  -->
<svg version="1.1" id="Calque_1" xmlns="http://www.w3.org/2000/svg" xmlns:xlink="http://www.w3.org/1999/xlink" x="0px" y="0px"
	 viewBox="0 0 500 272" style="enable-background:new 0 0 500 272;" xml:space="preserve">
<style type="text/css">
	.st0{fill:#FFFFFF;}
	.st1{fill:#FF0000;}
	.st2{fill:#48B700;}
</style>
<path d="M125.9,109.4c7.2-1.7,13.6-7.9,15.4-15.2l13.7-58c2.1-8.7-3.3-15.7-11.9-15.7h-37H73.5H57.9l-3.7,15.7l-13.7,58l-14,59h47.3
	L98.6,48.8c0.4-1.8,2.2-3.2,3.9-3.2c1.8,0,2.8,1.4,2.4,3.2l-16,67.6l15.1,36.9h39.9L125.9,109.4z"/>
<path d="M185.3,127.1c-1.5,0-2.4-1.2-2-2.7s1.8-2.7,3.3-2.7h45.5l12.7-53.6c2.1-8.7-3.2-15.7-11.9-15.7H178c-8.6,0-17.3,7-19.3,15.7
	l-16.2,68.3c-2.1,8.7,3.3,15.7,11.9,15.7h55.1c8.6,0,17.3-7,19.3-15.7l2.2-9.3H185.3L185.3,127.1z M194.2,74.3
	c0.5-2.3,2.8-4.2,5.1-4.2s3.7,1.9,3.2,4.2l-8.2,34.4c-0.5,2.3-2.8,4.2-5.1,4.2s-3.7-1.9-3.1-4.2L194.2,74.3z"/>
<path d="M381.5,93.7l5.7-24.1c2.6-10.9-4.1-19.7-14.8-19.7h-47.7c-10.8,0-21.6,8.8-24.1,19.7l-15.4,64.9c-2.6,10.8,4,19.6,14.8,19.6
	h47.7c10.8,0,21.6-8.8,24.1-19.7l4.5-19.2H336l-2.2,9.3c-0.6,2.4-3,4.4-5.4,4.4s-3.9-2-3.3-4.4l12.2-51.6c0.6-2.4,3-4.4,5.4-4.4
	c2.4,0,3.9,2,3.3,4.4l-4.9,20.6L381.5,93.7L381.5,93.7z"/>
<path d="M467.3,50.4h-52.1c-8.6,0-17.3,7-19.3,15.7l-17,71.7c-2.1,8.7,3.3,15.7,11.9,15.7h52.1c8.6,0,17.3-7,19.3-15.7l17-71.7
	C481.2,57.5,475.9,50.4,467.3,50.4z M429,123.7c-0.6,2.7-3.3,4.9-6,4.9s-4.4-2.2-3.7-4.9l12-50.6c0.6-2.7,3.3-4.9,6-4.9
	c2.7,0,4.4,2.2,3.7,4.9L429,123.7z"/>
<polygon points="273.4,153.1 231,153.1 262.6,20 305,20 "/>
<polygon class="st0" points="461.2,171.3 22.8,171.3 24.2,165.4 462.6,165.4 "/>
<polygon class="st1" points="461.2,171.3 316.4,171.3 317.8,165.4 462.6,165.4 "/>
<polygon class="st2" points="174.8,171.3 22.8,171.3 24.2,165.4 176.2,165.4 "/>
<path d="M65.8,219.1v-7.5h37v23.7c-5.7,3.3-11.5,5.8-17.6,7.5c-6,1.7-12.2,2.5-18.6,2.5c-8.6,0-16.4-1.3-23.4-4s-12.3-6.6-15.9-11.7
	c-3.6-5.1-5.4-10.8-5.4-17.1c0-6.2,1.8-12,5.3-17.4c3.6-5.4,8.7-9.4,15.3-12c6.7-2.6,14.4-3.9,23.1-3.9c6.3,0,12,0.7,17.1,2.2
	s9.1,3.6,12,6.3c2.9,2.7,5.1,6.2,6.6,10.5l-10.4,2.1c-1.3-3.3-2.9-5.8-4.9-7.7c-1.9-1.9-4.7-3.4-8.3-4.5c-3.6-1.1-7.6-1.7-12-1.7
	c-5.3,0-9.9,0.6-13.7,1.8c-3.9,1.2-7,2.7-9.3,4.6c-2.4,1.9-4.2,4-5.5,6.3c-2.2,4-3.3,8.2-3.3,12.9c0,5.7,1.3,10.5,4,14.3
	s6.6,6.7,11.7,8.5c5.1,1.9,10.6,2.8,16.3,2.8c5,0,9.9-0.7,14.7-2.1c4.8-1.4,8.4-2.9,10.8-4.5v-11.9H65.8L65.8,219.1z"/>
<path d="M120,244.1v-63.9h38.7c7.8,0,13.7,0.6,17.8,1.7s7.3,3.2,9.7,6.1s3.6,6.1,3.6,9.6c0,4.5-2,8.4-6,11.5s-10.2,5.1-18.6,5.9
	c3.1,1.1,5.4,2.1,7,3.2c3.4,2.3,6.6,5.1,9.6,8.5l15.2,17.4h-14.5l-11.6-13.3c-3.4-3.8-6.2-6.8-8.3-8.8c-2.2-2-4.1-3.5-5.9-4.3
	c-1.7-0.8-3.5-1.4-5.3-1.7c-1.3-0.2-3.5-0.3-6.4-0.3h-13.4v28.4H120L120,244.1z M131.6,208.4h24.9c5.3,0,9.4-0.4,12.4-1.2
	c3-0.8,5.2-2.1,6.8-3.8c1.6-1.8,2.3-3.7,2.3-5.7c0-3-1.5-5.5-4.5-7.5c-3-1.9-7.7-2.9-14.2-2.9h-27.7V208.4z"/>
<path d="M204.4,213c0-10.6,3.9-18.9,11.7-24.9s17.8-9,30.2-9c8.1,0,15.3,1.4,21.8,4.2c6.5,2.8,11.4,6.8,14.8,11.8s5.1,10.8,5.1,17.2
	c0,6.5-1.8,12.3-5.4,17.4c-3.6,5.1-8.6,9-15.2,11.6s-13.6,3.9-21.2,3.9c-8.2,0-15.6-1.5-22.1-4.4s-11.4-6.9-14.7-11.9
	C206.1,223.9,204.4,218.6,204.4,213z M216.4,213.1c0,7.7,2.8,13.8,8.5,18.2s12.8,6.7,21.3,6.7c8.7,0,15.9-2.2,21.5-6.7
	c5.6-4.5,8.4-10.8,8.4-19.1c0-5.2-1.2-9.7-3.6-13.6s-5.9-6.9-10.5-9s-9.8-3.2-15.6-3.2c-8.2,0-15.2,2.1-21.1,6.2
	C219.3,196.6,216.4,203.5,216.4,213.1z"/>
<path d="M360.2,180.2h11.6v36.9c0,6.4-1,11.5-3,15.3s-5.6,6.9-10.8,9.2c-5.2,2.4-12,3.6-20.4,3.6c-8.2,0-14.9-1-20.1-3.1
	s-8.9-5.1-11.1-9c-2.2-3.9-3.3-9.3-3.3-16v-36.9h11.6v36.9c0,5.6,0.7,9.6,2.1,12.3c1.4,2.6,3.8,4.7,7.3,6.1
	c3.4,1.4,7.6,2.1,12.6,2.1c8.5,0,14.6-1.4,18.2-4.2s5.4-8.2,5.4-16.3L360.2,180.2L360.2,180.2z"/>
<path d="M391,244.1v-63.9h33c5.8,0,10.2,0.2,13.3,0.6c4.3,0.5,7.9,1.5,10.8,3s5.2,3.5,7,6.2s2.7,5.6,2.7,8.7c0,5.4-2.4,10-7.1,13.8
	c-4.7,3.8-13.3,5.6-25.6,5.6h-22.5v26H391L391,244.1z M402.6,210.6h22.6c7.5,0,12.8-1,15.9-3.1c3.1-2,4.7-4.9,4.7-8.6
	c0-2.7-0.9-5-2.8-6.9c-1.8-1.9-4.3-3.2-7.3-3.8c-1.9-0.4-5.5-0.6-10.8-0.6h-22.3V210.6L402.6,210.6z"/>
<path d="M470.5,177.2c-5.8,0-10.4,4.7-10.4,10.4c0,5.7,4.7,10.4,10.4,10.4c5.8,0,10.4-4.7,10.4-10.4
	C480.9,181.9,476.2,177.2,470.5,177.2z M476.5,193.6l-2.1-3.2c-0.4-0.6-0.9-1.2-1.3-1.6c-0.2-0.2-0.5-0.4-1-0.6
	c1.2-0.2,2-0.5,2.6-1.1c0.6-0.6,0.8-1.3,0.8-2.2c0-0.7-0.2-1.3-0.5-1.8s-0.8-0.9-1.3-1.2c-0.6-0.2-1.4-0.3-2.5-0.3h-5.4v12.1h1.6
	v-5.4h1.9c0.4,0,0.7,0,0.9,0.1c0.2,0.1,0.5,0.2,0.7,0.3c0.2,0.2,0.5,0.4,0.8,0.8c0.3,0.4,0.7,0.9,1.2,1.7l1.6,2.5L476.5,193.6
	c-1.6,1.6-3.7,2.5-6,2.5c-4.7,0-8.5-3.8-8.5-8.5s3.8-8.5,8.5-8.5s8.5,3.8,8.5,8.5C478.9,190,478,192.1,476.5,193.6z M470.9,186.9
	h-3.4v-4h3.8c0.9,0,1.6,0.2,2,0.6c0.4,0.4,0.6,0.8,0.6,1.4c0,0.4-0.1,0.8-0.3,1.1c-0.2,0.3-0.5,0.6-0.9,0.7
	C472.2,186.8,471.6,186.9,470.9,186.9z"/>
</svg>
