<?xml version="1.0" encoding="utf-8"?>
<!-- Generator: Adobe Illustrator 21.0.2, SVG Export Plug-In . SVG Version: 6.00 Build 0)  -->
<svg version="1.1" id="Calque_1" xmlns="http://www.w3.org/2000/svg" xmlns:xlink="http://www.w3.org/1999/xlink" x="0px" y="0px"
	 viewBox="0 0 500 258" style="enable-background:new 0 0 500 258;" xml:space="preserve">
<style type="text/css">
	.st0{fill:#E30613;}
	.st1{fill:#004994;}
	.st2{fill:#FFFFFF;}
	.st3{fill-rule:evenodd;clip-rule:evenodd;fill:#FFFFFF;}
</style>
<polygon id="red" class="st0" points="305.8,86.8 324.6,86.8 397.2,26.3 465.2,86.8 483,86.8 397.5,10.6 "/>
<path id="blue" class="st1" d="M318.1,93.3v38.1H17V212h301.1v35.4h154.2V93.3H318.1z M460.2,235.4H330.1V212h105.2v-80.7H330.1
	v-26.1h130.2V235.4z"/>
<path id="s_1_" class="st2" d="M410.9,158.6c-2.5-2.6-6.7-5-11.2-5c-3.5,0-6.2,1.8-6.2,4.8c0,8.3,26.2,6.2,26.2,23.7
	c0,10-8.7,17.1-20.7,17.1c-10.2,0-17.3-4.6-20.3-7.8l6.7-8.7c2.2,2.9,7,7.6,14.1,7.6c3.5,0,7.7-2.2,7.7-6.5c0-9.9-25.5-7.2-25.5-23
	c0-9,7.1-15.6,17.7-15.6c7.6,0,13.5,2.4,17.5,5.7L410.9,158.6"/>
<path id="r_1_" class="st2" d="M361.8,152.4c3.1-4.5,7.9-6.8,13.9-6.8c1.3,0,2.7,0.1,3.9,0.4l-2,11c-1.1-0.3-2.3-0.5-3.4-0.5
	c-8.2,0-12.4,5.2-12.4,18V197h-12.2v-49.8h12.2V152.4"/>
<path id="e_1_" class="st3" d="M304.1,174.8c0,9,5.5,15.6,12.3,15.6c5.7,0,9.7-3.6,11.3-8.9l11.6,1.9c-3.8,10.3-12.4,15.9-23.2,15.9
	c-7.6,0-14-2.8-18.5-7.6c-4.5-4.9-6.7-11.4-6.7-19.2c0-8.2,2.3-14.9,6.6-19.8c4.4-5,10.8-7.8,18.1-7.8c7.5,0,13.8,2.7,17.9,7.4
	c4.2,4.6,6.5,11.2,6.5,19.3v3.1H304.1 M327,166c0-5.5-3.6-12.5-11.3-12.5c-7.6,0-11.2,7.6-11.2,12.5H327z"/>
<path id="m_1_" class="st2" d="M222,151.6c3.5-4,7.9-6.1,14.4-6.1c5.6,0,10.1,2.8,12.7,7.3c4.1-4.9,8.8-7.3,15.9-7.3
	c4.8,0,8.9,1.9,11.5,4.7c3.1,3.4,4.5,8.3,4.5,15.7v31h-12.2v-28.3c0-7.8-3-12.5-8.4-12.5c-5.8,0-8.8,5.1-8.8,13V197h-12.2v-28.3
	c0-7.8-3.4-12.5-8.5-12.5c-5.5,0-8.8,5.1-8.8,13V197h-12.2v-49.8H222V151.6"/>
<path id="m" class="st2" d="M138.3,151.6c3.5-4,7.9-6.1,14.4-6.1c5.6,0,10.1,2.8,12.7,7.3c4.1-4.9,8.8-7.3,15.9-7.3
	c4.8,0,8.9,1.9,11.5,4.7c3.1,3.4,4.5,8.3,4.5,15.7v31h-12.2v-28.3c0-7.8-3-12.5-8.4-12.5c-5.8,0-8.8,5.1-8.8,13V197h-12.2v-28.3
	c0-7.8-3.4-12.5-8.5-12.5c-5.5,0-8.8,5.1-8.8,13V197h-12.2v-49.8h12.2V151.6"/>
<path id="e" class="st3" d="M81.1,174.8c0,9,5.5,15.6,12.3,15.6c5.7,0,9.7-3.6,11.3-8.9l11.6,1.9c-3.8,10.3-12.4,15.9-23.2,15.9
	c-7.6,0-14-2.8-18.5-7.6c-4.5-4.9-6.7-11.4-6.7-19.2c0-8.2,2.3-14.9,6.6-19.8c4.4-5,10.8-7.8,18.1-7.8c7.5,0,13.8,2.7,17.9,7.4
	c4.2,4.6,6.5,11.2,6.5,19.3v3.1H81.1 M104,166c0-5.5-3.6-12.5-11.3-12.5c-7.6,0-11.2,7.6-11.2,12.5H104z"/>
<path id="r" class="st2" d="M49.7,152.4c3.1-4.5,7.9-6.8,13.9-6.8c1.3,0,2.7,0.1,3.9,0.4l-2,11c-1.1-0.3-2.4-0.5-3.4-0.5
	c-8.2,0-12.4,5.2-12.4,18V197H37.5v-49.8h12.2V152.4"/>
</svg>
