<?xml version="1.0" encoding="utf-8"?>
<!-- Generator: Adobe Illustrator 19.1.0, SVG Export Plug-In . SVG Version: 6.00 Build 0)  -->
<svg version="1.1" id="Calque_1" xmlns="http://www.w3.org/2000/svg" xmlns:xlink="http://www.w3.org/1999/xlink" x="0px" y="0px"
	 viewBox="-345 170.9 500 500" style="enable-background:new -345 170.9 500 500;" xml:space="preserve">
<style type="text/css">
	.st0{fill:#FFCE00;}
	.st1{fill:#0D0802;}
</style>
<rect x="-327.5" y="449.5" class="st0" width="468" height="42.5"/>
<polygon class="st1" points="-103.8,382.5 -103.8,355.8 -144.3,355.8 -144.3,355.7 -186.4,355.7 -186.4,469 -186.2,469 
	-186.2,469.1 -103.8,469.1 -103.8,442.5 -144.3,442.5 -144.3,425.7 -103.8,425.7 -103.8,399 -144.3,399 -144.3,382.5 "/>
<polygon class="st1" points="-0.1,355.7 -31.2,399 -61.2,355.7 -96.7,355.7 -96.7,469 -58.9,469 -58.6,416.6 -31.4,449.3 
	-4.8,415.6 -4.6,415.4 -4.6,469 33.6,469 33.6,355.7 "/>
<path class="st1" d="M-202.5,427.7c-2.1-4.3-3.5-8.8-11.2-13.1c8.5-4.9,15.9-13.1,15.9-26.1c0-26-22.6-32.7-38.5-32.7
	c-8.7,0-22.1,0-22.1,0v-0.1H-298V469h39.5v-47.8c0,0,0,0,0.1,0c1.4,0,13.5,0.4,18.5,11.5c5.3,11.7,15.2,36.5,15.2,36.5h40.5
	C-184.2,469.1-200.4,432.1-202.5,427.7z M-258.5,375.6c0,0,4.3,0,7.1,0c2.8,0,12.3,2.8,12.3,13.7s-9.5,13.7-12.3,13.7
	c-2.8,0-7.1,0-7.1,0V375.6z"/>
<path class="st1" d="M40.5,380.2c0,11.8-2.1,24,20,39.9c7.1,4.7,19.3,9.4,16.3,17.4c-3,7.9-21,6.9-36.7-4.9c0,10.7,0,30.3,0,30.3
	s15,7.7,27.5,8.2c12.4,0.4,37.1,0.4,47.4-23.4c10.3-23.8-11.8-38.2-18.9-42.1c-7.1-3.9-19.1-7.5-18-17.6c1.1-10.1,26.2-2.6,32,8.6
	c0-13.9,0-30.3,0-30.3s-13.3-13.3-36.3-13.3C50.8,352.9,40.5,372,40.5,380.2z"/>
</svg>
