<?xml version="1.0" encoding="utf-8"?>
<!-- Generator: Adobe Illustrator 15.0.0, SVG Export Plug-In . SVG Version: 6.00 Build 0)  -->
<!DOCTYPE svg PUBLIC "-//W3C//DTD SVG 1.1//EN" "http://www.w3.org/Graphics/SVG/1.1/DTD/svg11.dtd">
<svg version="1.1" id="Calque_1" xmlns="http://www.w3.org/2000/svg" xmlns:xlink="http://www.w3.org/1999/xlink" x="0px" y="0px"
	 width="500px" height="500px" viewBox="0 0 500 500" enable-background="new 0 0 500 500" xml:space="preserve">
<g>
	<rect x="17.458" y="278.629" fill="#FFCE00" width="467.992" height="42.486"/>
	<polygon fill="#0D0802" points="241.176,211.564 241.176,184.955 200.691,184.955 200.691,184.812 158.632,184.812 
		158.632,298.115 158.775,298.115 158.775,298.258 241.176,298.258 241.176,271.648 200.691,271.648 200.691,254.768 
		241.176,254.768 241.176,228.159 200.691,228.159 200.691,211.564 	"/>
	<polygon fill="#0D0802" points="344.895,184.812 313.779,228.159 283.809,184.812 248.33,184.812 248.33,298.115 286.098,298.115 
		286.445,245.702 313.564,278.373 340.174,244.683 340.388,244.499 340.388,298.115 378.585,298.115 378.585,184.812 	"/>
	<path fill="#0D0802" d="M142.466,256.771c-2.087-4.314-3.5-8.765-11.217-13.086c8.519-4.921,15.938-13.084,15.938-26.076
		c0-26.049-22.603-32.688-38.538-32.688c-8.713,0-22.118,0-22.118,0v-0.107H47.047v113.303h39.484v-47.817c0,0,0.049,0,0.137,0
		c1.399,0.012,13.478,0.437,18.461,11.48c5.293,11.73,15.164,36.479,15.164,36.479h40.486
		C160.778,298.258,144.612,261.205,142.466,256.771z M86.531,204.662c0,0,4.292,0,7.082,0s12.339,2.789,12.339,13.733
		s-9.549,13.733-12.339,13.733s-7.082,0-7.082,0V204.662z"/>
	<path fill="#0D0802" d="M385.451,209.275c0,11.803-2.146,24.034,19.957,39.914c7.081,4.721,19.312,9.441,16.309,17.381
		c-3.004,7.94-21.029,6.867-36.694-4.936c0,10.729,0,30.257,0,30.257s15.021,7.726,27.467,8.154
		c12.446,0.43,37.124,0.43,47.424-23.39c10.301-23.819-11.802-38.197-18.884-42.06c-7.081-3.862-19.098-7.511-18.025-17.596
		c1.073-10.086,26.18-2.575,31.974,8.583c0-13.948,0-30.257,0-30.257s-13.305-13.304-36.265-13.304
		C395.752,182.023,385.451,201.121,385.451,209.275z"/>
</g>
</svg>
