<?xml version="1.0" encoding="utf-8"?>
<!-- Generator: Adobe Illustrator 21.0.2, SVG Export Plug-In . SVG Version: 6.00 Build 0)  -->
<svg version="1.1" id="Calque_1" xmlns="http://www.w3.org/2000/svg" xmlns:xlink="http://www.w3.org/1999/xlink" x="0px" y="0px"
	 viewBox="0 0 500 180" style="enable-background:new 0 0 500 180;" xml:space="preserve">
<style type="text/css">
	.st0{fill:#0D4592;}
	.st1{fill:#FFFFFF;}
</style>
<rect x="12.3" y="16.2" class="st0" width="475.2" height="152.4"/>
<path class="st1" d="M45.7,134.2h-2.9V146h2.9v1.2h-8V146h2.9v-11.8h-2.9V133h8V134.2z"/>
<path class="st1" d="M54,133h2.6l6.5,10.6h0.1V133h2.2v14.4h-2.1l-7-11.5h-0.1v11.3H54V133z"/>
<path class="st1" d="M71.7,133h2.6l6.5,10.6h0.1V133h2.2v14.4H81l-7-11.5h-0.1v11.3h-2.2V133z"/>
<path class="st1" d="M94.9,132.7c6.2,0,6.5,4.7,6.5,7.4c0,1.9,0.2,7.4-6.5,7.4c-6.6,0-6.5-5.4-6.5-7.4
	C88.3,134.1,91.3,132.7,94.9,132.7z M99.2,140.1c0-1.3,0.3-6.2-4.3-6.2c-4.7,0-4.3,5.3-4.3,6.2c0,1.6-0.1,6.2,4.3,6.2
	C97.1,146.2,99.2,145.3,99.2,140.1z"/>
<path class="st1" d="M116.3,133h2.4l-4.8,14.4h-3l-4.7-14.4h2.4l3.8,12.1h0.1L116.3,133z"/>
<path class="st1" d="M137.8,147.2h-2.4l-1.9-4.2H127l-1.9,4.2h-2.4l7.5-15.4L137.8,147.2z M127.6,141.8h5.4l-2.7-5.8L127.6,141.8z"
	/>
<path class="st1" d="M155.1,134.2h-6v13h-2.2v-13H141V133h14.2v1.2H155.1z"/>
<path class="st1" d="M169.7,134.2h-2.9V146h2.9v1.2h-8V146h2.9v-11.8h-2.9V133h8V134.2z"/>
<path class="st1" d="M183.4,132.7c6.2,0,6.5,4.7,6.5,7.4c0,1.9,0.2,7.4-6.5,7.4c-6.6,0-6.5-5.4-6.5-7.4
	C176.9,134.1,179.9,132.7,183.4,132.7z M187.7,140.1c0-1.3,0.3-6.2-4.3-6.2c-4.7,0-4.3,5.3-4.3,6.2c0,1.6-0.1,6.2,4.3,6.2
	C185.6,146.2,187.7,145.3,187.7,140.1z"/>
<path class="st1" d="M195.7,133h2.6l6.5,10.6h0.1V133h2.2v14.4H205l-7-11.5h-0.1v11.3h-2.2V133L195.7,133z"/>
<path class="st1" d="M242.8,134.2H234v5.1h6.3v1.3H234v5.5h9v1.2h-11.2v-14.2h11V134.2z"/>
<path class="st1" d="M248.8,133h2.6l6.5,10.6h0.1V133h2.2v14.4H258l-6.9-11.5H251v11.3h-2.2V133L248.8,133z"/>
<path class="st1" d="M293.4,133h2.5l-4.8,14.4h-3l-4.7-14.4h2.4l3.8,12.1h0.1L293.4,133z"/>
<path class="st1" d="M313.7,134.2h-8.8v5.1h6.3v1.3h-6.3v5.5h9v1.2h-11.2v-14.2h11V134.2z"/>
<path class="st1" d="M319.6,133h2.6l6.5,10.6h0.1V133h2.2v14.4h-2.1l-7-11.5h-0.1v11.3h-2.2V133L319.6,133z"/>
<path class="st1" d="M349.9,134.2h-6v13h-2.2v-13h-5.9V133h14.1V134.2L349.9,134.2z"/>
<path class="st1" d="M364.5,134.2h-2.9V146h2.9v1.2h-8V146h2.9v-11.8h-2.9V133h8V134.2z"/>
<path class="st1" d="M376.2,146h9.2v1.2H374V133h2.2V146L376.2,146z"/>
<path class="st1" d="M403.5,147.2h-2.4l-1.9-4.2h-6.5l-1.9,4.2h-2.4l7.5-15.4L403.5,147.2z M393.3,141.8h5.4L396,136L393.3,141.8z"
	/>
<path class="st1" d="M420.8,134.2h-6.1v13h-2.2v-13h-5.9V133h14.2V134.2L420.8,134.2z"/>
<path class="st1" d="M435.4,134.2h-2.9V146h2.9v1.2h-8V146h2.9v-11.8h-2.9V133h8V134.2L435.4,134.2z"/>
<path class="st1" d="M449.1,132.7c6.2,0,6.5,4.7,6.5,7.4c0,1.9,0.2,7.4-6.5,7.4c-6.5,0-6.5-5.4-6.5-7.4
	C442.6,134.1,445.5,132.7,449.1,132.7z M453.4,140.1c0-1.3,0.3-6.2-4.3-6.2c-4.7,0-4.3,5.3-4.3,6.2c0,1.6-0.1,6.2,4.3,6.2
	C451.3,146.2,453.4,145.3,453.4,140.1z"/>
<path class="st1" d="M461.3,133h2.6l6.5,10.6h0.1V133h2.2v14.4h-2.1l-7-11.5h-0.1v11.3h-2.2V133z"/>
<path class="st1" d="M152.1,68.9h31c9.3,0,17.3,4.8,17.3,14.3c0,5.2-2.5,10.7-7.9,12.6c4.4,1.6,7.2,6.2,7.8,12.5
	c0.2,2.5,0.3,8.4,1.8,10.8h-16.3c-0.8-2.5-1.1-5.1-1.3-7.7c-0.5-4.8-0.9-9.8-7.3-9.8h-8.7v17.5h-16.3L152.1,68.9L152.1,68.9z
	 M168.4,90.8h8.5c3,0,7.2-0.5,7.2-5c0-3.2-1.8-5-8.1-5h-7.6L168.4,90.8L168.4,90.8z"/>
<path class="st1" d="M207,68.9h43.7v12.8h-27.5v6.2h24.9v12h-24.9v6.2h28.3v12.8H207V68.9L207,68.9z"/>
<path class="st1" d="M259.2,68.9h16.7l15.4,26.8h0.2V68.9h15.4V119h-15.8l-16.2-27.4h-0.1V119h-15.4L259.2,68.9L259.2,68.9z"/>
<path class="st1" d="M328.2,102.1c0,1.3,0.2,2.4,0.6,3.3c1.2,3,4.7,3.6,7.8,3.6c2.7,0,6.7-0.9,6.7-4.6c0-2.6-2.3-3.3-11.4-5.8
	c-8.4-2.2-17.9-4.4-17.9-14.5c0-11.6,10.4-16.6,21.3-16.6c11.5,0,21.6,4.1,22.1,16.4H342c0.3-1.9-0.6-3.2-1.9-4
	c-1.3-0.9-3.2-1.3-4.8-1.3c-2.2,0-5.9,0.5-5.9,3.4c0.3,3.6,7.8,4.3,15.3,6.3s14.9,5.3,14.9,14.5c0,13.1-12.7,17.3-24.4,17.3
	c-6,0-23.1-2-23.2-18L328.2,102.1L328.2,102.1z"/>
<path class="st1" d="M389.9,67.7c16.1,0,26.8,10.9,26.8,26.3c0,15.3-10.7,26.3-26.8,26.3s-26.8-11-26.8-26.3
	C363.1,78.6,373.8,67.7,389.9,67.7z M389.9,107.7c4.1,0,10.5-2.6,10.5-13.8c0-11.2-6.4-13.8-10.5-13.8s-10.5,2.6-10.5,13.8
	S385.7,107.7,389.9,107.7z"/>
<path class="st1" d="M423.7,68.9h16.6l15.4,26.8h0.1V68.9h15.4V119h-15.8l-16.2-27.4h-0.1V119h-15.4V68.9L423.7,68.9z"/>
<rect x="39.4" y="108.5" class="st1" width="30.7" height="11.7"/>
<path class="st1" d="M70.1,69.9h29.4v13c-3.3-0.7-6.6-1.2-9.5-1.2c-6.9,0-18,4.2-20.4,5.1H40.2v5.6h30.3l0.4-0.2c0.1,0,12.4-5,19-5
	c2.9,0,6.1,0.6,9.5,1.4c1.9,0.4,3.9,0.9,5.9,1.5c6.4,1.6,13,3.3,19.3,3.3c2,0,3.8-0.1,5.5-0.2c8.3-0.6,12.6-2.6,12.8-2.7v-6
	c0,0-5.1,2.2-12.9,3V69.9L84.4,42.2L39.1,69.9v11.4h30.7L70.1,69.9L70.1,69.9z"/>
<path class="st1" d="M124.8,98.7c-5.7,0-12-1.6-18.1-3.2c-2.5-0.6-4.8-1.2-7.2-1.7c-3.3-0.7-6.6-1.2-9.5-1.2c-6.9,0-18,4.2-20.4,5.1
	H40.2v5.6h30.3l0.4-0.2c0.1,0,12.4-5,19-5c2.9,0,6.1,0.6,9.5,1.4v20.6h30.7v-16c8.3-0.6,12.6-2.6,12.8-2.7v-6c0,0-5.1,2.2-12.9,3
	C128.5,98.6,126.7,98.7,124.8,98.7z"/>
</svg>
