<?xml version="1.0" encoding="utf-8"?>
<!-- Generator: Adobe Illustrator 19.1.0, SVG Export Plug-In . SVG Version: 6.00 Build 0)  -->
<svg version="1.1" id="Calque_1" xmlns="http://www.w3.org/2000/svg" xmlns:xlink="http://www.w3.org/1999/xlink" x="0px" y="0px"
	 viewBox="-345 170.9 500 500" style="enable-background:new -345 170.9 500 500;" xml:space="preserve">
<style type="text/css">
	.st0{fill:#D31D1F;}
</style>
<polygon class="st0" points="132.3,318.6 -92.4,239.8 -319.1,322.4 -319.1,337.1 132.3,337.1 "/>
<path class="st0" d="M-282,444.1h17.3l32.6,35.2h42.3l-33.9-37.8c0,0,21.1-16.8,21.1-42.9c0-26.1-28.8-37.8-28.8-37.8h-86.5
	l-1.3,119.7h35.9L-282,444.1z M-282,391.6c0,0,42-5,42.9,9.6c0.9,14.6-42.9,8.3-42.9,8.3V391.6z"/>
<polygon class="st0" points="33.2,479.4 133.8,479.4 133.8,449.2 81.2,449.2 131.9,391.6 131.9,360 -10.8,360 -10.8,419 
	-55.6,360.5 -93.1,360.5 -93.1,448.3 -159.4,448.3 -159.4,432.3 -116.4,432.3 -116.4,405.3 -160.3,405.3 -160.3,390.7 -100.9,390.7 
	-100.9,358.6 -196,358.6 -194.8,459 -177.7,479.8 -56.5,479.8 -56.5,421.8 -10.8,480.3 24.9,480.3 24.9,390.2 86.7,390.2 
	33.2,448.3 "/>
<polygon class="st0" points="-318.3,501 -318.8,520.2 -92.6,602.3 135.3,520.2 135.3,501 "/>
</svg>
