<?xml version="1.0" encoding="utf-8"?>
<!-- Generator: Adobe Illustrator 15.0.0, SVG Export Plug-In . SVG Version: 6.00 Build 0)  -->
<!DOCTYPE svg PUBLIC "-//W3C//DTD SVG 1.1//EN" "http://www.w3.org/Graphics/SVG/1.1/DTD/svg11.dtd">
<svg version="1.1" id="Calque_1" xmlns="http://www.w3.org/2000/svg" xmlns:xlink="http://www.w3.org/1999/xlink" x="0px" y="0px"
	 width="500px" height="500px" viewBox="0 0 500 500" enable-background="new 0 0 500 500" xml:space="preserve">
<path fill="#D83B2E" d="M486.453,263.476c0,80.48-49.139,105.766-74.954,122.839c-25.817,17.068-44.34,14.782-44.34,14.782
	s93.048-32.69,93.048-113.678c0-48.511-18.297-71.833-75.36-111.805c-85.767-57.88-191.825-26.913-191.825-26.913
	s-22.081,9.154-30.816-1.671c-8.749-10.82,8.318-23.316,8.318-23.316s126.479-62.816,235.555,14.841
	C433.807,158.29,486.453,207.368,486.453,263.476z"/>
<g>
	<g>
		<path fill="#464089" d="M18.134,165.672h28.072c27.893,0,61.168-1.164,61.168,43.988c0,19.085-10.228,34.911-26.782,37.704v0.465
			c7.066,0.699,11.171,9.542,13.774,16.758l20.815,63.531H86.178l-15.612-50.737c-3.723-12.102-7.066-16.752-18.045-16.752h-8.355
			v67.489H18.134V165.672z M44.165,235.028h8.546c12.83,0,27.523-2.328,27.523-22.575c0-19.55-14.513-21.18-27.523-21.18h-8.546
			V235.028z"/>
		<g>
			<polygon fill="#464089" points="149.34,280.83 180.204,280.83 180.204,257.658 149.34,257.658 149.34,237.082 183.057,237.082 
				183.057,213.902 125.875,213.902 125.875,328.309 183.307,328.309 183.307,305.131 149.34,305.131 			"/>
			<polygon fill="#464089" points="229.926,290.289 209.994,213.902 185.038,213.902 216.464,328.309 242.459,328.309 
				273.228,213.902 249.644,213.902 			"/>
			<polygon fill="#464089" points="300.918,280.83 331.782,280.83 331.782,257.658 300.918,257.658 300.918,237.082 
				334.635,237.082 334.635,213.902 277.453,213.902 277.453,328.309 334.887,328.309 334.887,305.131 300.918,305.131 			"/>
			<polygon fill="#464089" points="395.852,268.931 423.422,213.902 397.952,213.902 381.434,248.449 365.249,213.902 
				338.312,213.902 365.607,268.925 335.673,328.309 362.146,328.309 380.407,290.163 398.43,328.309 425.785,328.309 			"/>
		</g>
	</g>
</g>
</svg>
