<?xml version="1.0" encoding="utf-8"?>
<!-- Generator: Adobe Illustrator 21.0.2, SVG Export Plug-In . SVG Version: 6.00 Build 0)  -->
<svg version="1.1" id="Calque_1" xmlns="http://www.w3.org/2000/svg" xmlns:xlink="http://www.w3.org/1999/xlink" x="0px" y="0px"
	 viewBox="0 0 500 338" style="enable-background:new 0 0 500 338;" xml:space="preserve">
<style type="text/css">
	.st0{fill:#D83B2E;}
	.st1{fill:#464089;}
</style>
<path class="st0" d="M486.5,182.5c0,80.5-49.1,105.8-75,122.8c-25.8,17.1-44.3,14.8-44.3,14.8s93-32.7,93-113.7
	c0-48.5-18.3-71.8-75.4-111.8C299.1,36.7,193,67.7,193,67.7s-22.1,9.2-30.8-1.7c-8.7-10.8,8.3-23.3,8.3-23.3S297-20.1,406.1,57.5
	C433.8,77.3,486.5,126.4,486.5,182.5z"/>
<path class="st1" d="M18.1,84.7h28.1c27.9,0,61.2-1.2,61.2,44c0,19.1-10.2,34.9-26.8,37.7v0.5c7.1,0.7,11.2,9.5,13.8,16.8l20.8,63.5
	h-29l-15.6-50.7c-3.7-12.1-7.1-16.8-18-16.8h-8.4v67.4h-26V84.7H18.1z M44.2,154h8.5c12.8,0,27.5-2.3,27.5-22.6
	c0-19.6-14.5-21.2-27.5-21.2h-8.5V154z"/>
<polygon class="st1" points="149.3,199.8 180.2,199.8 180.2,176.6 149.3,176.6 149.3,156.1 183.1,156.1 183.1,132.9 125.9,132.9 
	125.9,247.3 183.3,247.3 183.3,224.1 149.3,224.1 "/>
<polygon class="st1" points="229.9,209.3 210,132.9 185,132.9 216.5,247.3 242.5,247.3 273.2,132.9 249.6,132.9 "/>
<polygon class="st1" points="300.9,199.8 331.8,199.8 331.8,176.6 300.9,176.6 300.9,156.1 334.6,156.1 334.6,132.9 277.5,132.9 
	277.5,247.3 334.9,247.3 334.9,224.1 300.9,224.1 "/>
<polygon class="st1" points="395.9,187.9 423.4,132.9 398,132.9 381.4,167.4 365.2,132.9 338.3,132.9 365.6,187.9 335.7,247.3 
	362.1,247.3 380.4,209.2 398.4,247.3 425.8,247.3 "/>
</svg>
