<?xml version="1.0" encoding="utf-8"?>
<!-- Generator: Adobe Illustrator 19.1.0, SVG Export Plug-In . SVG Version: 6.00 Build 0)  -->
<svg version="1.1" id="Calque_1" xmlns="http://www.w3.org/2000/svg" xmlns:xlink="http://www.w3.org/1999/xlink" x="0px" y="0px"
	 viewBox="-345 170.9 500 500" style="enable-background:new -345 170.9 500 500;" xml:space="preserve">
<style type="text/css">
	.st0{fill:#D83B2E;}
	.st1{fill:#464089;}
</style>
<path class="st0" d="M141.5,434.4c0,80.5-49.1,105.8-75,122.8C40.7,574.3,22.2,572,22.2,572s93-32.7,93-113.7
	c0-48.5-18.3-71.8-75.4-111.8C-45.9,288.6-152,319.6-152,319.6s-22.1,9.2-30.8-1.7c-8.7-10.8,8.3-23.3,8.3-23.3
	S-48,231.8,61.1,309.4C88.8,329.2,141.5,378.3,141.5,434.4z"/>
<path class="st1" d="M-326.9,336.6h28.1c27.9,0,61.2-1.2,61.2,44c0,19.1-10.2,34.9-26.8,37.7v0.5c7.1,0.7,11.2,9.5,13.8,16.8
	l20.8,63.5h-29l-15.6-50.7c-3.7-12.1-7.1-16.8-18-16.8h-8.4V499h-26V336.6z M-300.8,405.9h8.5c12.8,0,27.5-2.3,27.5-22.6
	c0-19.6-14.5-21.2-27.5-21.2h-8.5V405.9z"/>
<polygon class="st1" points="-195.7,451.7 -164.8,451.7 -164.8,428.5 -195.7,428.5 -195.7,408 -161.9,408 -161.9,384.8 
	-219.1,384.8 -219.1,499.2 -161.7,499.2 -161.7,476 -195.7,476 "/>
<polygon class="st1" points="-115.1,461.2 -135,384.8 -160,384.8 -128.5,499.2 -102.5,499.2 -71.8,384.8 -95.4,384.8 "/>
<polygon class="st1" points="-44.1,451.7 -13.2,451.7 -13.2,428.5 -44.1,428.5 -44.1,408 -10.4,408 -10.4,384.8 -67.5,384.8 
	-67.5,499.2 -10.1,499.2 -10.1,476 -44.1,476 "/>
<polygon class="st1" points="50.9,439.8 78.4,384.8 53,384.8 36.4,419.3 20.2,384.8 -6.7,384.8 20.6,439.8 -9.3,499.2 17.1,499.2 
	35.4,461.1 53.4,499.2 80.8,499.2 "/>
</svg>
