<?xml version="1.0" encoding="utf-8"?>
<!-- Generator: Adobe Illustrator 15.0.0, SVG Export Plug-In . SVG Version: 6.00 Build 0)  -->
<!DOCTYPE svg PUBLIC "-//W3C//DTD SVG 1.1//EN" "http://www.w3.org/Graphics/SVG/1.1/DTD/svg11.dtd">
<svg version="1.1" id="Calque_1" xmlns="http://www.w3.org/2000/svg" xmlns:xlink="http://www.w3.org/1999/xlink" x="0px" y="0px"
	 width="500px" height="500px" viewBox="0 0 500 500" enable-background="new 0 0 500 500" xml:space="preserve">
<g>
	<linearGradient id="SVGID_1_" gradientUnits="userSpaceOnUse" x1="-25.8704" y1="251.4336" x2="527.8636" y2="251.4336">
		<stop  offset="0" style="stop-color:#44433B"/>
		<stop  offset="0.0273" style="stop-color:#5B5A53"/>
		<stop  offset="0.0855" style="stop-color:#868580"/>
		<stop  offset="0.1461" style="stop-color:#ABABA7"/>
		<stop  offset="0.2083" style="stop-color:#CAC9C7"/>
		<stop  offset="0.2725" style="stop-color:#E1E1E0"/>
		<stop  offset="0.3397" style="stop-color:#F2F2F1"/>
		<stop  offset="0.4116" style="stop-color:#FCFCFC"/>
		<stop  offset="0.4969" style="stop-color:#FFFFFF"/>
		<stop  offset="0.6065" style="stop-color:#FCFCFC"/>
		<stop  offset="0.6807" style="stop-color:#F4F4F3"/>
		<stop  offset="0.7444" style="stop-color:#E5E5E4"/>
		<stop  offset="0.8022" style="stop-color:#D1D1CF"/>
		<stop  offset="0.856" style="stop-color:#B6B6B3"/>
		<stop  offset="0.9069" style="stop-color:#959590"/>
		<stop  offset="0.9545" style="stop-color:#706F69"/>
		<stop  offset="1" style="stop-color:#44433B"/>
	</linearGradient>
	<path fill="url(#SVGID_1_)" d="M488.048,319.983c0,22.473-18.218,40.69-40.691,40.69H55.51c-22.473,0-40.691-18.218-40.691-40.69
		v-137.1c0-22.473,18.218-40.691,40.691-40.691h391.847c22.474,0,40.691,18.218,40.691,40.691V319.983z"/>
	<linearGradient id="SVGID_2_" gradientUnits="userSpaceOnUse" x1="246.7512" y1="137.5083" x2="257.3656" y2="395.794">
		<stop  offset="0" style="stop-color:#44433B"/>
		<stop  offset="0.0273" style="stop-color:#5B5A53"/>
		<stop  offset="0.0855" style="stop-color:#868580"/>
		<stop  offset="0.1461" style="stop-color:#ABABA7"/>
		<stop  offset="0.2083" style="stop-color:#CAC9C7"/>
		<stop  offset="0.2725" style="stop-color:#E1E1E0"/>
		<stop  offset="0.3397" style="stop-color:#F2F2F1"/>
		<stop  offset="0.4116" style="stop-color:#FCFCFC"/>
		<stop  offset="0.4969" style="stop-color:#FFFFFF"/>
		<stop  offset="0.6065" style="stop-color:#FCFCFC"/>
		<stop  offset="0.6807" style="stop-color:#F4F4F3"/>
		<stop  offset="0.7444" style="stop-color:#E5E5E4"/>
		<stop  offset="0.8022" style="stop-color:#D1D1CF"/>
		<stop  offset="0.856" style="stop-color:#B6B6B3"/>
		<stop  offset="0.9069" style="stop-color:#959590"/>
		<stop  offset="0.9545" style="stop-color:#706F69"/>
		<stop  offset="1" style="stop-color:#44433B"/>
	</linearGradient>
	<path fill="url(#SVGID_2_)" d="M468.888,310.547c0,19.379-16.742,35.09-37.396,35.09H71.374c-20.653,0-37.396-15.711-37.396-35.09
		V192.319c0-19.379,16.743-35.089,37.396-35.089h360.118c20.653,0,37.396,15.71,37.396,35.089V310.547z"/>
	<g>
		<g>
			<linearGradient id="SVGID_3_" gradientUnits="userSpaceOnUse" x1="53.1565" y1="250.6387" x2="176.5618" y2="250.6387">
				<stop  offset="0" style="stop-color:#E2001A"/>
				<stop  offset="0.1847" style="stop-color:#DE011A"/>
				<stop  offset="0.3824" style="stop-color:#D10219"/>
				<stop  offset="0.5862" style="stop-color:#BB0517"/>
				<stop  offset="0.7931" style="stop-color:#9E0914"/>
				<stop  offset="1" style="stop-color:#780E11"/>
			</linearGradient>
			<path fill="url(#SVGID_3_)" d="M146.333,316.801l-29.209-64.827c8.58-5.014,16.783-14.36,16.783-31.406
				c0-31.993-28.896-36.868-34.941-36.868c-1.96,0-7.464,0-14.008,0H53.156v73.736v60.142h31.801v-60.142c0.522,0,1.039,0,1.546,0
				l28.377,60.142h31.452h0.35h29.879V183.699h-30.229V316.801z M101.275,235.802c0,11.598-14.894,14.999-16.314,15.282v-45.427
				c1.614-0.296,3.49-0.521,5.502-0.521c5.972,0,10.812,4.841,10.812,10.812V235.802z"/>
			<linearGradient id="SVGID_4_" gradientUnits="userSpaceOnUse" x1="52.2717" y1="250.6377" x2="177.4465" y2="250.6377">
				<stop  offset="0" style="stop-color:#E2001A"/>
				<stop  offset="0.1847" style="stop-color:#DE011A"/>
				<stop  offset="0.3824" style="stop-color:#D10219"/>
				<stop  offset="0.5862" style="stop-color:#BB0517"/>
				<stop  offset="0.7931" style="stop-color:#9E0914"/>
				<stop  offset="1" style="stop-color:#780E11"/>
			</linearGradient>
			<path fill="url(#SVGID_4_)" d="M146.111,318.461H114.32l-0.239-0.507L85.943,258.32h-0.1v60.141H52.272V182.814h46.694
				c3.513,0,12.26,1.375,20.222,6.581c7.118,4.655,15.604,13.842,15.604,31.172c0,17.744-8.833,27.035-16.538,31.761l27.194,60.356
				v-129.87h31.999v135.646h-30.229H146.111z M147.218,316.692h28.46V184.583h-28.46V316.692z M115.442,316.692h29.871
				l-29.323-65.081l0.687-0.401c7.456-4.357,16.344-13.21,16.344-30.643c0-13.278-4.98-23.268-14.803-29.691
				c-7.895-5.163-16.575-6.293-19.253-6.293H54.041v132.109h30.032v-60.142h2.992l0.239,0.508L115.442,316.692z M84.075,252.163
				V204.92l0.725-0.133c1.937-0.355,3.842-0.535,5.662-0.535c6.45,0,11.697,5.247,11.697,11.696v19.854
				c0,12.609-16.331,16.012-17.026,16.15L84.075,252.163z M85.844,206.403v43.564c3.535-0.926,14.546-4.58,14.546-14.165v-19.854
				c0-5.474-4.454-9.927-9.928-9.927C88.976,206.021,87.426,206.149,85.844,206.403z"/>
		</g>
		<g>
			<linearGradient id="SVGID_5_" gradientUnits="userSpaceOnUse" x1="188.0901" y1="250.6387" x2="253.0305" y2="250.6387">
				<stop  offset="0" style="stop-color:#E2001A"/>
				<stop  offset="0.1847" style="stop-color:#DE011A"/>
				<stop  offset="0.3824" style="stop-color:#D10219"/>
				<stop  offset="0.5862" style="stop-color:#BB0517"/>
				<stop  offset="0.7931" style="stop-color:#9E0914"/>
				<stop  offset="1" style="stop-color:#780E11"/>
			</linearGradient>
			<polygon fill="url(#SVGID_5_)" points="216.468,259.784 246.544,259.784 246.544,234.856 216.468,234.856 216.468,207.299 
				248.105,207.299 248.105,183.699 188.09,183.699 188.09,317.577 253.031,317.577 253.031,292.809 216.468,292.809 			"/>
			<linearGradient id="SVGID_6_" gradientUnits="userSpaceOnUse" x1="187.2058" y1="250.6377" x2="253.9153" y2="250.6377">
				<stop  offset="0" style="stop-color:#E2001A"/>
				<stop  offset="0.1847" style="stop-color:#DE011A"/>
				<stop  offset="0.3824" style="stop-color:#D10219"/>
				<stop  offset="0.5862" style="stop-color:#BB0517"/>
				<stop  offset="0.7931" style="stop-color:#9E0914"/>
				<stop  offset="1" style="stop-color:#780E11"/>
			</linearGradient>
			<path fill="url(#SVGID_6_)" d="M253.915,318.461h-66.709V182.814h61.784v25.369h-31.637v25.789h30.076v26.697h-30.076v31.255
				h36.563V318.461z M188.975,316.692h63.171v-22.999h-36.562v-34.794h30.076v-23.158h-30.076v-29.327h31.637v-21.831h-58.246
				V316.692z"/>
		</g>
		<g>
			<linearGradient id="SVGID_7_" gradientUnits="userSpaceOnUse" x1="260.7815" y1="250.6387" x2="313.7717" y2="250.6387">
				<stop  offset="0" style="stop-color:#E2001A"/>
				<stop  offset="0.1847" style="stop-color:#DE011A"/>
				<stop  offset="0.3824" style="stop-color:#D10219"/>
				<stop  offset="0.5862" style="stop-color:#BB0517"/>
				<stop  offset="0.7931" style="stop-color:#9E0914"/>
				<stop  offset="1" style="stop-color:#780E11"/>
			</linearGradient>
			<polygon fill="url(#SVGID_7_)" points="291.363,183.699 260.781,183.699 260.781,317.577 313.772,317.577 313.772,291.629 
				291.363,291.629 			"/>
			<linearGradient id="SVGID_8_" gradientUnits="userSpaceOnUse" x1="259.8967" y1="250.6377" x2="314.6565" y2="250.6377">
				<stop  offset="0" style="stop-color:#E2001A"/>
				<stop  offset="0.1847" style="stop-color:#DE011A"/>
				<stop  offset="0.3824" style="stop-color:#D10219"/>
				<stop  offset="0.5862" style="stop-color:#BB0517"/>
				<stop  offset="0.7931" style="stop-color:#9E0914"/>
				<stop  offset="1" style="stop-color:#780E11"/>
			</linearGradient>
			<path fill="url(#SVGID_8_)" d="M314.656,318.461h-54.76V182.814h32.351v107.93h22.409V318.461z M261.666,316.692h51.222v-24.179
				h-22.41v-107.93h-28.812V316.692z"/>
		</g>
		<g>
			<linearGradient id="SVGID_9_" gradientUnits="userSpaceOnUse" x1="320.344" y1="251.3311" x2="453.1428" y2="251.3311">
				<stop  offset="0" style="stop-color:#E2001A"/>
				<stop  offset="0.1847" style="stop-color:#DE011A"/>
				<stop  offset="0.3824" style="stop-color:#D10219"/>
				<stop  offset="0.5862" style="stop-color:#BB0517"/>
				<stop  offset="0.7931" style="stop-color:#9E0914"/>
				<stop  offset="1" style="stop-color:#780E11"/>
			</linearGradient>
			<path fill="url(#SVGID_9_)" d="M411.862,180.761c-22.798,0-41.279,18.297-41.279,40.867v59.406c0,3.666,0.494,7.215,1.409,10.595
				h-21.066v-107.93h-30.581v133.878h52.99v-21.87c5.957,15.319,20.955,26.194,38.527,26.194c22.8,0,41.281-18.297,41.281-40.867
				v-59.406C453.143,199.058,434.661,180.761,411.862,180.761z M420.512,281.742c0,5.461-4.137,9.887-9.239,9.887
				c-5.102,0-9.238-4.426-9.238-9.887v-61.216c0-5.459,4.137-9.886,9.238-9.886c5.103,0,9.239,4.426,9.239,9.886V281.742z"/>
			<linearGradient id="SVGID_10_" gradientUnits="userSpaceOnUse" x1="319.4592" y1="251.332" x2="454.0276" y2="251.332">
				<stop  offset="0" style="stop-color:#E2001A"/>
				<stop  offset="0.1847" style="stop-color:#DE011A"/>
				<stop  offset="0.3824" style="stop-color:#D10219"/>
				<stop  offset="0.5862" style="stop-color:#BB0517"/>
				<stop  offset="0.7931" style="stop-color:#9E0914"/>
				<stop  offset="1" style="stop-color:#780E11"/>
			</linearGradient>
			<path fill="url(#SVGID_10_)" d="M411.862,322.786c-15.902,0-30.539-9.072-37.643-22.952v18.627h-54.76V182.814h32.35v107.93
				h19.043c-0.767-3.181-1.154-6.441-1.154-9.71v-59.406c0-23.022,18.915-41.751,42.164-41.751
				c23.251,0,42.166,18.729,42.166,41.751v59.406C454.028,304.057,435.113,322.786,411.862,322.786z M373.041,292.514l1.117,2.872
				c5.962,15.331,21.113,25.631,37.703,25.631c22.275,0,40.396-17.936,40.396-39.982v-59.406c0-22.046-18.121-39.982-40.396-39.982
				c-22.273,0-40.396,17.936-40.396,39.982v59.406c0,3.496,0.464,6.983,1.379,10.364l0.302,1.115H373.041z M321.229,316.692h51.221
				v-24.179H350.04v-107.93h-28.812V316.692z M411.273,292.514c-5.582,0-10.123-4.832-10.123-10.771v-61.216
				c0-5.939,4.541-10.771,10.123-10.771s10.124,4.832,10.124,10.771v61.216C421.397,287.682,416.855,292.514,411.273,292.514z
				 M411.273,211.525c-4.606,0-8.354,4.038-8.354,9.001v61.216c0,4.964,3.747,9.002,8.354,9.002s8.354-4.038,8.354-9.002v-61.216
				C419.627,215.563,415.879,211.525,411.273,211.525z"/>
		</g>
	</g>
	<g>
		<linearGradient id="SVGID_11_" gradientUnits="userSpaceOnUse" x1="114.8591" y1="341.166" x2="114.8591" y2="161.8748">
			<stop  offset="0" style="stop-color:#E2001A"/>
			<stop  offset="0.1364" style="stop-color:#E2041D"/>
			<stop  offset="0.2825" style="stop-color:#E41127"/>
			<stop  offset="0.4332" style="stop-color:#E62737"/>
			<stop  offset="0.587" style="stop-color:#E9454D"/>
			<stop  offset="0.7432" style="stop-color:#ED6B6A"/>
			<stop  offset="0.8992" style="stop-color:#F29A8D"/>
			<stop  offset="1" style="stop-color:#F5BCA7"/>
		</linearGradient>
		<path fill="url(#SVGID_11_)" d="M146.333,316.801l-29.209-64.827c8.58-5.014,16.783-14.36,16.783-31.406
			c0-31.993-28.896-36.868-34.941-36.868c-1.96,0-7.464,0-14.008,0H53.156v73.736v60.142h31.801v-60.142c0.522,0,1.039,0,1.546,0
			l28.377,60.142h31.452h0.35h29.879V183.699h-30.229V316.801z M101.275,235.802c0,11.598-14.894,14.999-16.314,15.282v-45.427
			c1.614-0.296,3.49-0.521,5.502-0.521c5.972,0,10.812,4.841,10.812,10.812V235.802z"/>
		<linearGradient id="SVGID_12_" gradientUnits="userSpaceOnUse" x1="220.5603" y1="341.166" x2="220.5603" y2="161.8748">
			<stop  offset="0" style="stop-color:#E2001A"/>
			<stop  offset="0.1364" style="stop-color:#E2041D"/>
			<stop  offset="0.2825" style="stop-color:#E41127"/>
			<stop  offset="0.4332" style="stop-color:#E62737"/>
			<stop  offset="0.587" style="stop-color:#E9454D"/>
			<stop  offset="0.7432" style="stop-color:#ED6B6A"/>
			<stop  offset="0.8992" style="stop-color:#F29A8D"/>
			<stop  offset="1" style="stop-color:#F5BCA7"/>
		</linearGradient>
		<polygon fill="url(#SVGID_12_)" points="216.468,259.784 246.544,259.784 246.544,234.856 216.468,234.856 216.468,207.299 
			248.105,207.299 248.105,183.699 188.09,183.699 188.09,317.577 253.031,317.577 253.031,292.809 216.468,292.809 		"/>
		<linearGradient id="SVGID_13_" gradientUnits="userSpaceOnUse" x1="287.2766" y1="341.166" x2="287.2766" y2="161.8748">
			<stop  offset="0" style="stop-color:#E2001A"/>
			<stop  offset="0.1364" style="stop-color:#E2041D"/>
			<stop  offset="0.2825" style="stop-color:#E41127"/>
			<stop  offset="0.4332" style="stop-color:#E62737"/>
			<stop  offset="0.587" style="stop-color:#E9454D"/>
			<stop  offset="0.7432" style="stop-color:#ED6B6A"/>
			<stop  offset="0.8992" style="stop-color:#F29A8D"/>
			<stop  offset="1" style="stop-color:#F5BCA7"/>
		</linearGradient>
		<polygon fill="url(#SVGID_13_)" points="291.363,183.699 260.781,183.699 260.781,317.577 313.772,317.577 313.772,291.629 
			291.363,291.629 		"/>
		<linearGradient id="SVGID_14_" gradientUnits="userSpaceOnUse" x1="386.7434" y1="341.166" x2="386.7434" y2="161.8746">
			<stop  offset="0" style="stop-color:#E2001A"/>
			<stop  offset="0.1364" style="stop-color:#E2041D"/>
			<stop  offset="0.2825" style="stop-color:#E41127"/>
			<stop  offset="0.4332" style="stop-color:#E62737"/>
			<stop  offset="0.587" style="stop-color:#E9454D"/>
			<stop  offset="0.7432" style="stop-color:#ED6B6A"/>
			<stop  offset="0.8992" style="stop-color:#F29A8D"/>
			<stop  offset="1" style="stop-color:#F5BCA7"/>
		</linearGradient>
		<path fill="url(#SVGID_14_)" d="M411.862,180.761c-22.798,0-41.279,18.297-41.279,40.867v59.406c0,3.666,0.494,7.215,1.409,10.595
			h-21.066v-107.93h-30.581v133.878h52.99v-21.87c5.957,15.319,20.955,26.194,38.527,26.194c22.8,0,41.281-18.297,41.281-40.867
			v-59.406C453.143,199.058,434.661,180.761,411.862,180.761z M420.512,281.742c0,5.461-4.137,9.887-9.239,9.887
			c-5.102,0-9.238-4.426-9.238-9.887v-61.216c0-5.459,4.137-9.886,9.238-9.886c5.103,0,9.239,4.426,9.239,9.886V281.742z"/>
	</g>
</g>
</svg>
