<?xml version="1.0" encoding="utf-8"?>
<!-- Generator: Adobe Illustrator 19.1.0, SVG Export Plug-In . SVG Version: 6.00 Build 0)  -->
<svg version="1.1" id="Calque_1" xmlns="http://www.w3.org/2000/svg" xmlns:xlink="http://www.w3.org/1999/xlink" x="0px" y="0px"
	 viewBox="-345 170.9 500 500" style="enable-background:new -345 170.9 500 500;" xml:space="preserve">
<style type="text/css">
	.st0{fill:url(#SVGID_1_);}
	.st1{fill:url(#SVGID_2_);}
	.st2{fill:url(#SVGID_3_);}
	.st3{fill:url(#SVGID_4_);}
	.st4{fill:url(#SVGID_5_);}
	.st5{fill:url(#SVGID_6_);}
	.st6{fill:url(#SVGID_7_);}
	.st7{fill:url(#SVGID_8_);}
	.st8{fill:url(#SVGID_9_);}
	.st9{fill:url(#SVGID_10_);}
	.st10{fill:url(#SVGID_11_);}
	.st11{fill:url(#SVGID_12_);}
	.st12{fill:url(#SVGID_13_);}
	.st13{fill:url(#SVGID_14_);}
</style>
<linearGradient id="SVGID_1_" gradientUnits="userSpaceOnUse" x1="-370.8704" y1="419.3475" x2="182.8636" y2="419.3475" gradientTransform="matrix(1 0 0 -1 0 841.67)">
	<stop  offset="0" style="stop-color:#44433B"/>
	<stop  offset="2.730000e-02" style="stop-color:#5B5A53"/>
	<stop  offset="8.550000e-02" style="stop-color:#868580"/>
	<stop  offset="0.1461" style="stop-color:#ABABA7"/>
	<stop  offset="0.2083" style="stop-color:#CAC9C7"/>
	<stop  offset="0.2725" style="stop-color:#E1E1E0"/>
	<stop  offset="0.3397" style="stop-color:#F2F2F1"/>
	<stop  offset="0.4116" style="stop-color:#FCFCFC"/>
	<stop  offset="0.4969" style="stop-color:#FFFFFF"/>
	<stop  offset="0.6065" style="stop-color:#FCFCFC"/>
	<stop  offset="0.6807" style="stop-color:#F4F4F3"/>
	<stop  offset="0.7444" style="stop-color:#E5E5E4"/>
	<stop  offset="0.8022" style="stop-color:#D1D1CF"/>
	<stop  offset="0.856" style="stop-color:#B6B6B3"/>
	<stop  offset="0.9069" style="stop-color:#959590"/>
	<stop  offset="0.9545" style="stop-color:#706F69"/>
	<stop  offset="1" style="stop-color:#44433B"/>
</linearGradient>
<path class="st0" d="M143,490.9c0,22.5-18.2,40.7-40.7,40.7h-391.8c-22.5,0-40.7-18.2-40.7-40.7V353.8c0-22.5,18.2-40.7,40.7-40.7
	h391.8c22.5,0,40.7,18.2,40.7,40.7V490.9z"/>
<linearGradient id="SVGID_2_" gradientUnits="userSpaceOnUse" x1="-98.2488" y1="533.2717" x2="-87.6344" y2="274.986" gradientTransform="matrix(1 0 0 -1 0 841.67)">
	<stop  offset="0" style="stop-color:#44433B"/>
	<stop  offset="2.730000e-02" style="stop-color:#5B5A53"/>
	<stop  offset="8.550000e-02" style="stop-color:#868580"/>
	<stop  offset="0.1461" style="stop-color:#ABABA7"/>
	<stop  offset="0.2083" style="stop-color:#CAC9C7"/>
	<stop  offset="0.2725" style="stop-color:#E1E1E0"/>
	<stop  offset="0.3397" style="stop-color:#F2F2F1"/>
	<stop  offset="0.4116" style="stop-color:#FCFCFC"/>
	<stop  offset="0.4969" style="stop-color:#FFFFFF"/>
	<stop  offset="0.6065" style="stop-color:#FCFCFC"/>
	<stop  offset="0.6807" style="stop-color:#F4F4F3"/>
	<stop  offset="0.7444" style="stop-color:#E5E5E4"/>
	<stop  offset="0.8022" style="stop-color:#D1D1CF"/>
	<stop  offset="0.856" style="stop-color:#B6B6B3"/>
	<stop  offset="0.9069" style="stop-color:#959590"/>
	<stop  offset="0.9545" style="stop-color:#706F69"/>
	<stop  offset="1" style="stop-color:#44433B"/>
</linearGradient>
<path class="st1" d="M123.9,481.4c0,19.4-16.7,35.1-37.4,35.1h-360.1c-20.7,0-37.4-15.7-37.4-35.1V363.2c0-19.4,16.7-35.1,37.4-35.1
	H86.5c20.7,0,37.4,15.7,37.4,35.1V481.4z"/>
<linearGradient id="SVGID_3_" gradientUnits="userSpaceOnUse" x1="-291.844" y1="420.1415" x2="-168.439" y2="420.1415" gradientTransform="matrix(1 0 0 -1 0 841.67)">
	<stop  offset="0" style="stop-color:#E2001A"/>
	<stop  offset="0.1847" style="stop-color:#DE011A"/>
	<stop  offset="0.3824" style="stop-color:#D10219"/>
	<stop  offset="0.5862" style="stop-color:#BB0517"/>
	<stop  offset="0.7931" style="stop-color:#9E0914"/>
	<stop  offset="1" style="stop-color:#780E11"/>
</linearGradient>
<path class="st2" d="M-198.7,487.7l-29.2-64.8c8.6-5,16.8-14.4,16.8-31.4c0-32-28.9-36.9-34.9-36.9c-2,0-7.5,0-14,0h-31.8v73.7v60.1
	h31.8v-60.1c0.5,0,1,0,1.5,0l28.4,60.1h31.5h0.4h29.9V354.6h-30.2L-198.7,487.7L-198.7,487.7z M-243.7,406.7
	c0,11.6-14.9,15-16.3,15.3v-45.4c1.6-0.3,3.5-0.5,5.5-0.5c6,0,10.8,4.8,10.8,10.8C-243.7,386.8-243.7,406.7-243.7,406.7z"/>
<linearGradient id="SVGID_4_" gradientUnits="userSpaceOnUse" x1="-292.728" y1="420.1425" x2="-167.553" y2="420.1425" gradientTransform="matrix(1 0 0 -1 0 841.67)">
	<stop  offset="0" style="stop-color:#E2001A"/>
	<stop  offset="0.1847" style="stop-color:#DE011A"/>
	<stop  offset="0.3824" style="stop-color:#D10219"/>
	<stop  offset="0.5862" style="stop-color:#BB0517"/>
	<stop  offset="0.7931" style="stop-color:#9E0914"/>
	<stop  offset="1" style="stop-color:#780E11"/>
</linearGradient>
<path class="st3" d="M-198.9,489.4h-31.8l-0.2-0.5l-28.1-59.6h-0.1v60.1h-33.6V353.7h46.7c3.5,0,12.3,1.4,20.2,6.6
	c7.1,4.7,15.6,13.8,15.6,31.2c0,17.7-8.8,27-16.5,31.8l27.2,60.4V353.7h32v135.6h-30.2L-198.9,489.4L-198.9,489.4z M-197.8,487.6
	h28.5V355.5h-28.5L-197.8,487.6L-197.8,487.6z M-229.6,487.6h29.9l-29.3-65.1l0.7-0.4c7.5-4.4,16.3-13.2,16.3-30.6
	c0-13.3-5-23.3-14.8-29.7c-7.9-5.2-16.6-6.3-19.3-6.3H-291v132.1h30v-60.1h3l0.2,0.5L-229.6,487.6z M-260.9,423.1v-47.2l0.7-0.1
	c1.9-0.4,3.8-0.5,5.7-0.5c6.4,0,11.7,5.2,11.7,11.7v19.9c0,12.6-16.3,16-17,16.1L-260.9,423.1z M-259.2,377.3v43.6
	c3.5-0.9,14.5-4.6,14.5-14.2v-19.9c0-5.5-4.5-9.9-9.9-9.9C-256,376.9-257.6,377-259.2,377.3z"/>
<linearGradient id="SVGID_5_" gradientUnits="userSpaceOnUse" x1="-156.91" y1="420.142" x2="-91.969" y2="420.142" gradientTransform="matrix(1 0 0 -1 0 841.67)">
	<stop  offset="0" style="stop-color:#E2001A"/>
	<stop  offset="0.1847" style="stop-color:#DE011A"/>
	<stop  offset="0.3824" style="stop-color:#D10219"/>
	<stop  offset="0.5862" style="stop-color:#BB0517"/>
	<stop  offset="0.7931" style="stop-color:#9E0914"/>
	<stop  offset="1" style="stop-color:#780E11"/>
</linearGradient>
<polygon class="st4" points="-128.5,430.7 -98.5,430.7 -98.5,405.7 -128.5,405.7 -128.5,378.2 -96.9,378.2 -96.9,354.6 
	-156.9,354.6 -156.9,488.5 -92,488.5 -92,463.7 -128.5,463.7 "/>
<linearGradient id="SVGID_6_" gradientUnits="userSpaceOnUse" x1="-157.794" y1="420.1425" x2="-91.084" y2="420.1425" gradientTransform="matrix(1 0 0 -1 0 841.67)">
	<stop  offset="0" style="stop-color:#E2001A"/>
	<stop  offset="0.1847" style="stop-color:#DE011A"/>
	<stop  offset="0.3824" style="stop-color:#D10219"/>
	<stop  offset="0.5862" style="stop-color:#BB0517"/>
	<stop  offset="0.7931" style="stop-color:#9E0914"/>
	<stop  offset="1" style="stop-color:#780E11"/>
</linearGradient>
<path class="st5" d="M-91.1,489.4h-66.7V353.7H-96v25.4h-31.6v25.8h30.1v26.7h-30.1v31.3h36.6L-91.1,489.4L-91.1,489.4z M-156,487.6
	h63.2v-23h-36.6v-34.8h30.1v-23.2h-30.1v-29.3h31.6v-21.8H-156V487.6z"/>
<linearGradient id="SVGID_7_" gradientUnits="userSpaceOnUse" x1="-84.219" y1="420.142" x2="-31.228" y2="420.142" gradientTransform="matrix(1 0 0 -1 0 841.67)">
	<stop  offset="0" style="stop-color:#E2001A"/>
	<stop  offset="0.1847" style="stop-color:#DE011A"/>
	<stop  offset="0.3824" style="stop-color:#D10219"/>
	<stop  offset="0.5862" style="stop-color:#BB0517"/>
	<stop  offset="0.7931" style="stop-color:#9E0914"/>
	<stop  offset="1" style="stop-color:#780E11"/>
</linearGradient>
<polygon class="st6" points="-53.6,354.6 -84.2,354.6 -84.2,488.5 -31.2,488.5 -31.2,462.5 -53.6,462.5 "/>
<linearGradient id="SVGID_8_" gradientUnits="userSpaceOnUse" x1="-85.104" y1="420.1425" x2="-30.344" y2="420.1425" gradientTransform="matrix(1 0 0 -1 0 841.67)">
	<stop  offset="0" style="stop-color:#E2001A"/>
	<stop  offset="0.1847" style="stop-color:#DE011A"/>
	<stop  offset="0.3824" style="stop-color:#D10219"/>
	<stop  offset="0.5862" style="stop-color:#BB0517"/>
	<stop  offset="0.7931" style="stop-color:#9E0914"/>
	<stop  offset="1" style="stop-color:#780E11"/>
</linearGradient>
<path class="st7" d="M-30.3,489.4h-54.8V353.7h32.4v107.9h22.4V489.4z M-83.3,487.6h51.2v-24.2h-22.4V355.5h-28.8V487.6z"/>
<linearGradient id="SVGID_9_" gradientUnits="userSpaceOnUse" x1="-24.655" y1="419.449" x2="108.143" y2="419.449" gradientTransform="matrix(1 0 0 -1 0 841.67)">
	<stop  offset="0" style="stop-color:#E2001A"/>
	<stop  offset="0.1847" style="stop-color:#DE011A"/>
	<stop  offset="0.3824" style="stop-color:#D10219"/>
	<stop  offset="0.5862" style="stop-color:#BB0517"/>
	<stop  offset="0.7931" style="stop-color:#9E0914"/>
	<stop  offset="1" style="stop-color:#780E11"/>
</linearGradient>
<path class="st8" d="M66.9,351.7c-22.8,0-41.3,18.3-41.3,40.9v59.4c0,3.7,0.5,7.2,1.4,10.6H5.9V354.6h-30.6v133.9h53v-21.9
	c6,15.3,21,26.2,38.5,26.2c22.8,0,41.3-18.3,41.3-40.9v-59.4C108.1,369.9,89.7,351.7,66.9,351.7z M75.5,452.6c0,5.5-4.1,9.9-9.2,9.9
	c-5.1,0-9.2-4.4-9.2-9.9v-61.2c0-5.5,4.1-9.9,9.2-9.9c5.1,0,9.2,4.4,9.2,9.9V452.6z"/>
<linearGradient id="SVGID_10_" gradientUnits="userSpaceOnUse" x1="-25.541" y1="419.4485" x2="109.028" y2="419.4485" gradientTransform="matrix(1 0 0 -1 0 841.67)">
	<stop  offset="0" style="stop-color:#E2001A"/>
	<stop  offset="0.1847" style="stop-color:#DE011A"/>
	<stop  offset="0.3824" style="stop-color:#D10219"/>
	<stop  offset="0.5862" style="stop-color:#BB0517"/>
	<stop  offset="0.7931" style="stop-color:#9E0914"/>
	<stop  offset="1" style="stop-color:#780E11"/>
</linearGradient>
<path class="st9" d="M66.9,493.7c-15.9,0-30.5-9.1-37.6-23v18.6h-54.8V353.7H6.8v107.9h19c-0.8-3.2-1.2-6.4-1.2-9.7v-59.4
	c0-23,18.9-41.8,42.2-41.8c23.3,0,42.2,18.7,42.2,41.8v59.4C109,474.9,90.1,493.7,66.9,493.7z M28,463.4l1.1,2.9
	c6,15.3,21.1,25.6,37.7,25.6c22.3,0,40.4-17.9,40.4-40v-59.4c0-22-18.1-40-40.4-40c-22.3,0-40.4,17.9-40.4,40v59.4
	c0,3.5,0.5,7,1.4,10.4l0.3,1.1L28,463.4L28,463.4z M-23.8,487.6h51.2v-24.2H5V355.5h-28.8L-23.8,487.6L-23.8,487.6z M66.3,463.4
	c-5.6,0-10.1-4.8-10.1-10.8v-61.2c0-5.9,4.5-10.8,10.1-10.8s10.1,4.8,10.1,10.8v61.2C76.4,458.6,71.9,463.4,66.3,463.4z M66.3,382.4
	c-4.6,0-8.4,4-8.4,9v61.2c0,5,3.7,9,8.4,9s8.4-4,8.4-9v-61.2C74.6,386.5,70.9,382.4,66.3,382.4z"/>
<linearGradient id="SVGID_11_" gradientUnits="userSpaceOnUse" x1="-230.1415" y1="329.614" x2="-230.1415" y2="508.9052" gradientTransform="matrix(1 0 0 -1 0 841.67)">
	<stop  offset="0" style="stop-color:#E2001A"/>
	<stop  offset="0.1364" style="stop-color:#E2041D"/>
	<stop  offset="0.2825" style="stop-color:#E41127"/>
	<stop  offset="0.4332" style="stop-color:#E62737"/>
	<stop  offset="0.587" style="stop-color:#E9454D"/>
	<stop  offset="0.7432" style="stop-color:#ED6B6A"/>
	<stop  offset="0.8992" style="stop-color:#F29A8D"/>
	<stop  offset="1" style="stop-color:#F5BCA7"/>
</linearGradient>
<path class="st10" d="M-198.7,487.7l-29.2-64.8c8.6-5,16.8-14.4,16.8-31.4c0-32-28.9-36.9-34.9-36.9c-2,0-7.5,0-14,0h-31.8v73.7
	v60.1h31.8v-60.1c0.5,0,1,0,1.5,0l28.4,60.1h31.5h0.4h29.9V354.6h-30.2L-198.7,487.7L-198.7,487.7z M-243.7,406.7
	c0,11.6-14.9,15-16.3,15.3v-45.4c1.6-0.3,3.5-0.5,5.5-0.5c6,0,10.8,4.8,10.8,10.8C-243.7,386.8-243.7,406.7-243.7,406.7z"/>
<linearGradient id="SVGID_12_" gradientUnits="userSpaceOnUse" x1="-124.4395" y1="329.614" x2="-124.4395" y2="508.9052" gradientTransform="matrix(1 0 0 -1 0 841.67)">
	<stop  offset="0" style="stop-color:#E2001A"/>
	<stop  offset="0.1364" style="stop-color:#E2041D"/>
	<stop  offset="0.2825" style="stop-color:#E41127"/>
	<stop  offset="0.4332" style="stop-color:#E62737"/>
	<stop  offset="0.587" style="stop-color:#E9454D"/>
	<stop  offset="0.7432" style="stop-color:#ED6B6A"/>
	<stop  offset="0.8992" style="stop-color:#F29A8D"/>
	<stop  offset="1" style="stop-color:#F5BCA7"/>
</linearGradient>
<polygon class="st11" points="-128.5,430.7 -98.5,430.7 -98.5,405.7 -128.5,405.7 -128.5,378.2 -96.9,378.2 -96.9,354.6 
	-156.9,354.6 -156.9,488.5 -92,488.5 -92,463.7 -128.5,463.7 "/>
<linearGradient id="SVGID_13_" gradientUnits="userSpaceOnUse" x1="-57.7235" y1="329.614" x2="-57.7235" y2="508.9052" gradientTransform="matrix(1 0 0 -1 0 841.67)">
	<stop  offset="0" style="stop-color:#E2001A"/>
	<stop  offset="0.1364" style="stop-color:#E2041D"/>
	<stop  offset="0.2825" style="stop-color:#E41127"/>
	<stop  offset="0.4332" style="stop-color:#E62737"/>
	<stop  offset="0.587" style="stop-color:#E9454D"/>
	<stop  offset="0.7432" style="stop-color:#ED6B6A"/>
	<stop  offset="0.8992" style="stop-color:#F29A8D"/>
	<stop  offset="1" style="stop-color:#F5BCA7"/>
</linearGradient>
<polygon class="st12" points="-53.6,354.6 -84.2,354.6 -84.2,488.5 -31.2,488.5 -31.2,462.5 -53.6,462.5 "/>
<linearGradient id="SVGID_14_" gradientUnits="userSpaceOnUse" x1="41.744" y1="329.614" x2="41.744" y2="508.9054" gradientTransform="matrix(1 0 0 -1 0 841.67)">
	<stop  offset="0" style="stop-color:#E2001A"/>
	<stop  offset="0.1364" style="stop-color:#E2041D"/>
	<stop  offset="0.2825" style="stop-color:#E41127"/>
	<stop  offset="0.4332" style="stop-color:#E62737"/>
	<stop  offset="0.587" style="stop-color:#E9454D"/>
	<stop  offset="0.7432" style="stop-color:#ED6B6A"/>
	<stop  offset="0.8992" style="stop-color:#F29A8D"/>
	<stop  offset="1" style="stop-color:#F5BCA7"/>
</linearGradient>
<path class="st13" d="M66.9,351.7c-22.8,0-41.3,18.3-41.3,40.9v59.4c0,3.7,0.5,7.2,1.4,10.6H5.9V354.6h-30.6v133.9h53v-21.9
	c6,15.3,21,26.2,38.5,26.2c22.8,0,41.3-18.3,41.3-40.9v-59.4C108.1,369.9,89.7,351.7,66.9,351.7z M75.5,452.6c0,5.5-4.1,9.9-9.2,9.9
	c-5.1,0-9.2-4.4-9.2-9.9v-61.2c0-5.5,4.1-9.9,9.2-9.9c5.1,0,9.2,4.4,9.2,9.9V452.6z"/>
</svg>
