<?xml version="1.0" encoding="utf-8"?>
<!-- Generator: Adobe Illustrator 21.0.2, SVG Export Plug-In . SVG Version: 6.00 Build 0)  -->
<svg version="1.1" id="Calque_1" xmlns="http://www.w3.org/2000/svg" xmlns:xlink="http://www.w3.org/1999/xlink" x="0px" y="0px"
	 viewBox="0 0 500 164" style="enable-background:new 0 0 500 164;" xml:space="preserve">
<style type="text/css">
	.st0{fill:#FF0000;}
	.st1{fill:#FFF200;}
	.st2{fill:#FFFF00;}
</style>
<path class="st0" d="M423.3,137.8H25.9V29.1h397.4V54h53.6l-53.6,34.8C423.3,88.8,423.3,137.8,423.3,137.8z"/>
<polygon points="461.5,58.5 418.8,58.5 418.8,33.7 30.5,33.7 30.5,133.2 418.8,133.2 418.8,86.3 "/>
<path class="st1" d="M89.3,101.4c0.4-1.9,0.8-3.8,1.1-5.7c0.9-4.9,0.4-8.1-1.6-10c5.6-2.3,11.9-7.1,14.9-13.7
	c2.5-5.3,2.5-9.5,0.2-12.3c-2.5-3.2-7.5-4.6-16.3-4.6c-6.4,0-12.7,0.5-17.3,1.2l-0.9,0.2l-26,56.1h14.4l10-21.6h2.6
	c4.3,0.1,6,1.2,4.3,8c-1.5,6.4-2.3,11.3-2.2,13.1v0.6h15.1l-0.1-1.5C87.6,109.7,88.4,105.7,89.3,101.4z M88.8,73
	c-2,4.3-6.5,6.9-12,6.9H73l6.1-13.2c0.9-0.1,2.3-0.2,4.7-0.2C87.4,66.5,91.3,67.6,88.8,73z"/>
<path class="st1" d="M143.6,54.6c-16.4,0-33.5,12.3-41.6,29.9c-7.9,17.1-2.4,29,13.5,29h0.1c17,0,33.4-11.8,41.9-30
	C164.1,69.1,162.4,54.6,143.6,54.6z M121.6,101.5L121.6,101.5c-7.4,0-9.1-7-4.3-17.4c4-8.7,11.9-17.6,20.5-17.6
	c8.4,0,8.1,8.7,4.2,17.3C136.9,94.6,129,101.5,121.6,101.5z"/>
<path class="st1" d="M267.2,55.5h-18.1l-21.4,18.8c-1.2,1-2.3,2.1-3.5,3.1l10.1-21.9h-14.4l-26.4,57.1h14.4l8.6-18.6l5.4-4.3
	l2.5,22.9h16.9L236.7,80L267.2,55.5z"/>
<polygon class="st1" points="274,89.3 294.3,89.3 299.9,77.1 279.7,77.1 284,67.8 305.5,67.8 311.2,55.5 275.2,55.5 248.7,112.6 
	285.9,112.6 291.6,100.3 268.9,100.3 "/>
<polygon class="st1" points="318.6,55.5 312.7,68 327.6,68 307,112.6 321.5,112.6 342.1,68 357.1,68 362.9,55.5 "/>
<path class="st1" d="M205.4,54.6c-18.6,0-36.7,12.1-45.1,30.2c-8.2,17.7-1.9,28.7,16.6,28.7c5.6,0,10.1-0.9,12.3-1.5l0.9-0.2
	l5.9-12.7l-1.6,0.5c-2.9,0.9-6.7,1.4-9.9,1.4c-10.3,0-13.6-6.3-8.7-16.9c5-10.8,14.1-17.2,24.4-17.2c3.3,0,6.2,0.6,8.5,1.7l1.2,0.6
	l6-13.1l-0.7-0.2C213.4,55.3,210.1,54.6,205.4,54.6z"/>
<polygon class="st1" points="438.9,66.8 408.1,66.8 410.5,40.5 393,66.8 367.6,66.8 381.7,83.4 378.4,88.8 364.8,109.2 366.4,108.3 
	365.7,109.5 386.8,97.2 391.8,94.5 403.7,113.2 406.3,85.8 "/>
<path class="st2" d="M337,103.3c0.5-0.1,1.3-0.2,2.1-0.2c1,0,1.7,0.2,2,0.5c0.3,0.3,0.4,0.8,0.2,1.4c-0.3,0.9-1.1,1.5-1.8,1.7l0,0
	c0.4,0.2,0.5,0.6,0.5,1.3c0,0.8-0.1,1.7-0.1,1.9h-1.6c0-0.2,0-0.8,0-1.6c0.1-0.9-0.1-1.1-0.8-1.1H337l-0.9,2.7h-1.5L337,103.3z
	 M337.6,106.2h0.6c0.8,0,1.4-0.4,1.6-1c0.2-0.6-0.1-0.9-0.8-0.9c-0.4,0-0.6,0-0.7,0.1L337.6,106.2z"/>
<path class="st2" d="M336.1,112.8c-3.4,0-5.3-2.8-4.2-6.2c1.1-3.4,4.8-6.2,8.2-6.2s5.3,2.8,4.2,6.2
	C343.2,110,339.5,112.8,336.1,112.8z M339.8,101.4c-2.9,0-6,2.3-6.9,5.2c-0.9,2.9,0.6,5.2,3.5,5.2s6-2.3,6.9-5.2
	C344.3,103.8,342.7,101.4,339.8,101.4z"/>
</svg>
