<?xml version="1.0" encoding="utf-8"?>
<!-- Generator: Adobe Illustrator 19.1.0, SVG Export Plug-In . SVG Version: 6.00 Build 0)  -->
<svg version="1.1" id="Calque_1" xmlns="http://www.w3.org/2000/svg" xmlns:xlink="http://www.w3.org/1999/xlink" x="0px" y="0px"
	 viewBox="-345 170.9 500 500" style="enable-background:new -345 170.9 500 500;" xml:space="preserve">
<style type="text/css">
	.st0{fill:#FF0000;}
	.st1{fill:#FFF200;}
	.st2{fill:#FFFF00;}
</style>
<path class="st0" d="M78.3,476.7h-397.4V368H78.3v24.9h53.6l-53.6,34.8V476.7z"/>
<polygon points="116.5,397.4 73.8,397.4 73.8,372.6 -314.5,372.6 -314.5,472.1 73.8,472.1 73.8,425.2 "/>
<path class="st1" d="M-255.7,440.3c0.4-1.9,0.8-3.8,1.1-5.7c0.9-4.9,0.4-8.1-1.6-10c5.6-2.3,11.9-7.1,14.9-13.7
	c2.5-5.3,2.5-9.5,0.2-12.3c-2.5-3.2-7.5-4.6-16.3-4.6c-6.4,0-12.7,0.5-17.3,1.2l-0.9,0.2l-26,56.1h14.4l10-21.6h2.6
	c4.3,0.1,6,1.2,4.3,8c-1.5,6.4-2.3,11.3-2.2,13.1l0,0.6h15.1l-0.1-1.5C-257.4,448.6-256.6,444.6-255.7,440.3z M-256.2,411.9
	c-2,4.3-6.5,6.9-12,6.9h-3.8l6.1-13.2c0.9-0.1,2.3-0.2,4.7-0.2C-257.6,405.4-253.7,406.5-256.2,411.9z"/>
<path class="st1" d="M-201.4,393.5c-16.4,0-33.5,12.3-41.6,29.9c-7.9,17.1-2.4,29,13.5,29h0.1c17,0,33.4-11.8,41.9-30
	C-180.9,408-182.6,393.5-201.4,393.5z M-223.4,440.4L-223.4,440.4c-7.4,0-9.1-7-4.3-17.4c4-8.7,11.9-17.6,20.5-17.6
	c8.4,0,8.1,8.7,4.2,17.3C-208.1,433.5-216,440.4-223.4,440.4z"/>
<path class="st1" d="M-77.8,394.4h-18.1l-21.4,18.8c-1.2,1-2.3,2.1-3.5,3.1l10.1-21.9h-14.4l-26.4,57.1h14.4l8.6-18.6l5.4-4.3
	l2.5,22.9h16.9l-4.6-32.6L-77.8,394.4z"/>
<polygon class="st1" points="-71,428.2 -50.7,428.2 -45.1,416 -65.3,416 -61,406.7 -39.5,406.7 -33.8,394.4 -69.8,394.4 
	-96.3,451.5 -59.1,451.5 -53.4,439.2 -76.1,439.2 "/>
<polygon class="st1" points="-26.4,394.4 -32.3,406.9 -17.4,406.9 -38,451.5 -23.5,451.5 -2.9,406.9 12.1,406.9 17.9,394.4 "/>
<path class="st1" d="M-139.6,393.5c-18.6,0-36.7,12.1-45.1,30.2c-8.2,17.7-1.9,28.7,16.6,28.7c5.6,0,10.1-0.9,12.3-1.5l0.9-0.2
	l5.9-12.7l-1.6,0.5c-2.9,0.9-6.7,1.4-9.9,1.4c-10.3,0-13.6-6.3-8.7-16.9c5-10.8,14.1-17.2,24.4-17.2c3.3,0,6.2,0.6,8.5,1.7l1.2,0.6
	l6-13.1l-0.7-0.2C-131.6,394.2-134.9,393.5-139.6,393.5z"/>
<polygon class="st1" points="93.9,405.7 63.1,405.7 65.5,379.4 48,405.7 22.6,405.7 36.7,422.3 33.4,427.7 19.8,448.1 21.4,447.2 
	20.7,448.4 41.8,436.1 46.8,433.4 58.7,452.1 61.3,424.7 "/>
<path class="st2" d="M-8,442.2c0.5-0.1,1.3-0.2,2.1-0.2c1,0,1.7,0.2,2,0.5c0.3,0.3,0.4,0.8,0.2,1.4c-0.3,0.9-1.1,1.5-1.8,1.7l0,0
	c0.4,0.2,0.5,0.6,0.5,1.3c0,0.8-0.1,1.7-0.1,1.9h-1.6c0-0.2,0-0.8,0-1.6c0.1-0.9-0.1-1.1-0.8-1.1h-0.5l-0.9,2.7h-1.5L-8,442.2z
	 M-7.4,445.1h0.6c0.8,0,1.4-0.4,1.6-1c0.2-0.6-0.1-0.9-0.8-0.9c-0.4,0-0.6,0-0.7,0.1L-7.4,445.1z"/>
<path class="st2" d="M-8.9,451.7c-3.4,0-5.3-2.8-4.2-6.2c1.1-3.4,4.8-6.2,8.2-6.2c3.4,0,5.3,2.8,4.2,6.2
	C-1.8,448.9-5.5,451.7-8.9,451.7z M-5.2,440.3c-2.9,0-6,2.3-6.9,5.2c-0.9,2.9,0.6,5.2,3.5,5.2c2.9,0,6-2.3,6.9-5.2
	C-0.7,442.7-2.3,440.3-5.2,440.3z"/>
</svg>
