<?xml version="1.0" encoding="utf-8"?>
<!-- Generator: Adobe Illustrator 21.0.2, SVG Export Plug-In . SVG Version: 6.00 Build 0)  -->
<svg version="1.1" id="Calque_1" xmlns="http://www.w3.org/2000/svg" xmlns:xlink="http://www.w3.org/1999/xlink" x="0px" y="0px"
	 viewBox="0 0 436 302" style="enable-background:new 0 0 436 302;" xml:space="preserve">
<style type="text/css">
	.st0{fill:#FF7900;}
</style>
<path d="M84.4,102.9c0,2.1-0.8,3.9-2.4,5.5c-1.6,1.6-3.4,2.4-5.6,2.4c-2,0-3.8-0.8-5.4-2.4L47.9,85.3v17.6c0,2.3-0.7,4.1-2.2,5.6
	s-3.3,2.2-5.6,2.2c-2.3,0-4.1-0.7-5.6-2.2s-2.2-3.3-2.2-5.6V37.5c0-2.1,0.8-3.9,2.3-5.4c1.6-1.6,3.4-2.3,5.4-2.3h18.2
	c7.2,0,13.3,2.5,18.4,7.6c5,5,7.6,11.2,7.6,18.4c0,5.8-1.8,11.1-5.3,15.7s-8.1,7.7-13.8,9.3l16.8,16.8
	C83.6,99.1,84.4,100.9,84.4,102.9z M68.8,55.7c0-2.9-1-5.4-3-7.4s-4.5-3-7.4-3H48v20.8h10.4c2.9,0,5.4-1,7.4-3
	C67.7,61.1,68.8,58.6,68.8,55.7z"/>
<path d="M176.2,70.3c0,11.2-3.9,20.8-11.8,28.7c-7.9,7.9-17.4,11.8-28.7,11.8S114.9,106.9,107,99S95.2,81.6,95.2,70.3
	c0-11.2,3.9-20.8,11.8-28.7c7.9-7.9,17.4-11.8,28.7-11.8s20.8,3.9,28.7,11.8C172.3,49.5,176.2,59,176.2,70.3z M160.7,70.3
	c0-6.9-2.4-12.8-7.3-17.7c-4.9-4.9-10.8-7.3-17.7-7.3s-12.8,2.4-17.7,7.3s-7.3,10.8-7.3,17.7c0,6.9,2.4,12.8,7.3,17.7
	s10.8,7.3,17.7,7.3s12.8-2.4,17.7-7.3C158.3,83.1,160.7,77.2,160.7,70.3z"/>
<path d="M258.5,93.5c0,2.6-2,5.5-5.9,8.5c-7.5,5.8-15.8,8.7-25.1,8.7c-11.2,0-20.8-3.9-28.6-11.8c-7.9-7.9-11.8-17.4-11.8-28.6
	s3.9-20.8,11.8-28.6c7.9-7.9,17.4-11.8,28.6-11.8c9.3,0,17.6,2.9,25.1,8.7c3.9,3.1,5.9,5.9,5.9,8.5c0,2.1-0.8,4-2.4,5.5
	c-1.6,1.6-3.5,2.4-5.5,2.4c-1.7,0-3.6-0.8-5.4-2.4c-0.4-0.4-1.2-1.1-2.4-2.1c-4.4-3.5-9.5-5.2-15.2-5.2c-6.9,0-12.8,2.4-17.7,7.3
	s-7.3,10.8-7.3,17.7c0,6.9,2.4,12.8,7.3,17.7c4.9,4.9,10.8,7.3,17.7,7.3c5.7,0,10.8-1.7,15.2-5.2c0.5-0.4,1.3-1.1,2.4-2.1
	c1.9-1.6,3.7-2.4,5.4-2.4c2.1,0,4,0.8,5.5,2.4C257.7,89.5,258.5,91.4,258.5,93.5z"/>
<path d="M348.3,70.3c0,11.2-3.9,20.8-11.8,28.7c-7.9,7.9-17.4,11.8-28.7,11.8c-11.2,0-20.8-3.9-28.7-11.8s-11.8-17.4-11.8-28.7
	c0-11.2,3.9-20.8,11.8-28.7c7.9-7.9,17.4-11.8,28.7-11.8c11.2,0,20.8,3.9,28.7,11.8S348.3,59,348.3,70.3z M332.8,70.3
	c0-6.9-2.4-12.8-7.3-17.7c-4.9-4.9-10.8-7.3-17.7-7.3c-6.9,0-12.8,2.4-17.7,7.3s-7.3,10.8-7.3,17.7c0,6.9,2.4,12.8,7.3,17.7
	c4.9,4.9,10.8,7.3,17.7,7.3c6.9,0,12.8-2.4,17.7-7.3C330.4,83.1,332.8,77.2,332.8,70.3z"/>
<path d="M395.7,101.7c0,2.3-0.7,4.1-2.2,5.6s-3.3,2.2-5.6,2.2h-19.4c-7.8,0-13.3-4-13.3-18V36.4c0-2.3,0.7-4.1,2.2-5.6
	s3.3-2.2,5.6-2.2s4.1,0.7,5.6,2.2s2.2,3.3,2.2,5.6v57.7H388c2.3,0,4.1,0.7,5.6,2.2C395,97.5,395.7,99.4,395.7,101.7z"/>
<path class="st0" d="M381.1,141.3c-2-4.9-7.4-8.2-13.4-8.2h-319c-6,0-11.3,3.3-13.4,8.2c-2,4.9-0.4,10.5,4.2,13.8L199,273.4
	c2.6,2,5.9,2.9,9.2,2.9s6.5-1,9.2-2.9l159.5-118.3C381.5,151.7,383.1,146.2,381.1,141.3z"/>
<path d="M398.7,40c0.8-0.2,1.4-0.6,1.9-1.3c0.5-0.6,0.7-1.4,0.7-2.2c0-1-0.4-1.9-1.1-2.6c-0.7-0.7-1.6-1-2.6-1h-2.5
	c-0.3,0-0.5,0.1-0.8,0.3c-0.2,0.2-0.3,0.5-0.3,0.8v9.1c0,0.3,0.1,0.6,0.3,0.8c0.2,0.2,0.5,0.3,0.8,0.3c0.3,0,0.6-0.1,0.8-0.3
	c0.2-0.2,0.3-0.5,0.3-0.8v-2.5l3.2,3.2c0.2,0.2,0.5,0.3,0.8,0.3c0.3,0,0.5-0.1,0.8-0.3c0.2-0.2,0.3-0.5,0.3-0.8s-0.1-0.5-0.3-0.8
	L398.7,40z M396.3,37.9V35h1.4c0.4,0,0.7,0.1,1,0.4c0.3,0.3,0.4,0.6,0.4,1s-0.1,0.7-0.4,1c-0.3,0.3-0.6,0.4-1,0.4L396.3,37.9
	L396.3,37.9z"/>
<path d="M398,30.1c-4.7,0-8.5,3.8-8.5,8.5s3.8,8.5,8.5,8.5s8.5-3.8,8.5-8.5S402.6,30.1,398,30.1z M398,45.1c-3.6,0-6.5-2.9-6.5-6.5
	s2.9-6.5,6.5-6.5s6.5,2.9,6.5,6.5S401.5,45.1,398,45.1z"/>
</svg>
