<?xml version="1.0" encoding="utf-8"?>
<!-- Generator: Adobe Illustrator 15.0.0, SVG Export Plug-In . SVG Version: 6.00 Build 0)  -->
<!DOCTYPE svg PUBLIC "-//W3C//DTD SVG 1.1//EN" "http://www.w3.org/Graphics/SVG/1.1/DTD/svg11.dtd">
<svg version="1.1" id="Calque_1" xmlns="http://www.w3.org/2000/svg" xmlns:xlink="http://www.w3.org/1999/xlink" x="0px" y="0px"
	 width="500px" height="500px" viewBox="0 0 500 500" enable-background="new 0 0 500 500" xml:space="preserve">
<g>
	<g>
		<path d="M116.414,201.931c0,2.095-0.8,3.941-2.399,5.536c-1.6,1.595-3.45,2.393-5.55,2.393c-2.004,0-3.813-0.806-5.428-2.418
			l-23.121-23.076v17.642c0,2.262-0.727,4.12-2.181,5.574c-1.454,1.455-3.312,2.181-5.573,2.181c-2.262,0-4.121-0.727-5.574-2.181
			c-1.454-1.454-2.182-3.312-2.182-5.574v-65.433c0-2.068,0.775-3.878,2.327-5.428c1.55-1.551,3.36-2.327,5.428-2.327h18.176
			c7.205,0,13.329,2.52,18.369,7.559c5.042,5.039,7.562,11.161,7.562,18.365c0,5.847-1.76,11.088-5.279,15.724
			c-3.52,4.635-8.104,7.729-13.755,9.279l16.769,16.771C115.611,198.128,116.414,199.934,116.414,201.931z M100.759,154.75
			c0-2.908-1.011-5.372-3.03-7.392c-2.02-2.019-4.483-3.029-7.391-3.029H79.917v20.842h10.421c2.908,0,5.371-1.01,7.391-3.03
			C99.748,160.122,100.759,157.659,100.759,154.75z"/>
		<path d="M208.202,169.291c0,11.245-3.934,20.801-11.801,28.669c-7.869,7.869-17.425,11.802-28.67,11.802
			s-20.801-3.933-28.669-11.802c-7.869-7.868-11.802-17.425-11.802-28.669c0-11.245,3.934-20.801,11.802-28.669
			c7.868-7.868,17.425-11.802,28.669-11.802s20.801,3.934,28.67,11.802C204.268,148.49,208.202,158.046,208.202,169.291z
			 M192.693,169.291c0-6.915-2.432-12.804-7.294-17.667c-4.863-4.863-10.752-7.294-17.667-7.294c-6.916,0-12.804,2.432-17.667,7.294
			c-4.863,4.864-7.294,10.753-7.294,17.667c0,6.916,2.431,12.804,7.294,17.667c4.863,4.863,10.751,7.294,17.667,7.294
			c6.915,0,12.804-2.431,17.667-7.294C190.261,182.095,192.693,176.207,192.693,169.291z"/>
		<path d="M290.542,192.507c0,2.618-1.971,5.461-5.913,8.53c-7.465,5.817-15.835,8.725-25.107,8.725
			c-11.213,0-20.761-3.941-28.645-11.826c-7.885-7.884-11.826-17.433-11.826-28.645s3.941-20.761,11.826-28.646
			c7.884-7.883,17.432-11.826,28.645-11.826c9.272,0,17.643,2.908,25.107,8.724c3.942,3.07,5.913,5.914,5.913,8.53
			c0,2.102-0.8,3.951-2.399,5.55c-1.6,1.6-3.45,2.4-5.55,2.4c-1.745,0-3.555-0.792-5.429-2.375c-0.421-0.42-1.228-1.131-2.424-2.133
			c-4.394-3.458-9.467-5.187-15.219-5.187c-6.916,0-12.806,2.432-17.666,7.294c-4.864,4.864-7.297,10.753-7.297,17.667
			c0,6.916,2.433,12.804,7.297,17.667c4.86,4.863,10.75,7.294,17.666,7.294c5.719,0,10.792-1.728,15.219-5.187
			c0.453-0.419,1.261-1.13,2.424-2.133c1.874-1.583,3.684-2.375,5.429-2.375c2.1,0,3.95,0.8,5.55,2.399
			C289.742,188.557,290.542,190.407,290.542,192.507z"/>
		<path d="M380.331,169.291c0,11.245-3.933,20.801-11.803,28.669c-7.868,7.869-17.424,11.802-28.668,11.802
			c-11.245,0-20.803-3.933-28.669-11.802c-7.87-7.868-11.803-17.425-11.803-28.669c0-11.245,3.933-20.801,11.803-28.669
			c7.866-7.868,17.424-11.802,28.669-11.802c11.244,0,20.8,3.934,28.668,11.802C376.399,148.49,380.331,158.046,380.331,169.291z
			 M364.822,169.291c0-6.915-2.432-12.804-7.294-17.667c-4.864-4.863-10.754-7.294-17.667-7.294c-6.915,0-12.805,2.432-17.667,7.294
			c-4.864,4.864-7.296,10.753-7.296,17.667c0,6.916,2.432,12.804,7.296,17.667c4.862,4.863,10.752,7.294,17.667,7.294
			c6.913,0,12.803-2.431,17.667-7.294C362.39,182.095,364.822,176.207,364.822,169.291z"/>
		<path d="M427.714,200.674c0,2.262-0.727,4.12-2.181,5.574c-1.456,1.455-3.313,2.181-5.574,2.181h-19.417
			c-7.833,0-13.344-4.048-13.344-18.048v-55.14c0-2.262,0.727-4.12,2.182-5.574c1.454-1.454,3.312-2.181,5.573-2.181
			c2.262,0,4.119,0.727,5.575,2.181c1.453,1.454,2.181,3.312,2.181,5.574v57.678h17.25c2.261,0,4.118,0.727,5.574,2.181
			C426.988,196.554,427.714,198.412,427.714,200.674z"/>
	</g>
	<path fill="#FF7900" d="M413.088,240.298c-2.049-4.93-7.384-8.209-13.354-8.209H80.685c-5.971,0-11.306,3.279-13.355,8.209
		c-2.049,4.931-0.376,10.461,4.187,13.845l159.524,118.293c2.648,1.963,5.908,2.944,9.168,2.944c3.261,0,6.52-0.981,9.168-2.944
		l159.524-118.293C413.465,250.759,415.138,245.229,413.088,240.298z"/>
	<g>
		<path d="M430.727,138.973c0.785-0.215,1.422-0.645,1.912-1.289c0.488-0.644,0.732-1.372,0.732-2.185c0-1-0.35-1.851-1.051-2.551
			c-0.699-0.7-1.551-1.05-2.551-1.05h-2.525c-0.287,0-0.539,0.107-0.754,0.323c-0.215,0.215-0.324,0.467-0.324,0.754v9.09
			c0,0.314,0.102,0.572,0.305,0.774c0.201,0.202,0.459,0.303,0.773,0.303s0.572-0.101,0.773-0.303
			c0.203-0.202,0.305-0.46,0.305-0.774v-2.451l3.211,3.206c0.225,0.224,0.477,0.336,0.754,0.336c0.293,0,0.549-0.111,0.771-0.333
			s0.334-0.478,0.334-0.769c0-0.278-0.113-0.528-0.336-0.752L430.727,138.973z M428.323,136.948v-2.895h1.447
			c0.404,0,0.746,0.14,1.027,0.42c0.279,0.281,0.42,0.623,0.42,1.027c0,0.404-0.141,0.747-0.42,1.027
			c-0.281,0.281-0.623,0.421-1.027,0.421H428.323z"/>
		<path d="M429.959,129.13c-4.687,0-8.5,3.813-8.5,8.5s3.813,8.5,8.5,8.5s8.5-3.813,8.5-8.5S434.646,129.13,429.959,129.13z
			 M429.959,144.13c-3.584,0-6.5-2.916-6.5-6.5s2.916-6.5,6.5-6.5s6.5,2.916,6.5,6.5S433.543,144.13,429.959,144.13z"/>
	</g>
</g>
</svg>
