<?xml version="1.0" encoding="utf-8"?>
<!-- Generator: Adobe Illustrator 21.0.2, SVG Export Plug-In . SVG Version: 6.00 Build 0)  -->
<svg version="1.1" id="Calque_1" xmlns="http://www.w3.org/2000/svg" xmlns:xlink="http://www.w3.org/1999/xlink" x="0px" y="0px"
	 viewBox="0 0 500 176" style="enable-background:new 0 0 500 176;" xml:space="preserve">
<style type="text/css">
	.st0{fill:url(#SVGID_1_);}
	.st1{fill:url(#SVGID_2_);}
	.st2{fill:url(#SVGID_3_);}
	.st3{fill:#1A1A1A;}
</style>
<linearGradient id="SVGID_1_" gradientUnits="userSpaceOnUse" x1="-53.5537" y1="500.373" x2="-49.9955" y2="500.373" gradientTransform="matrix(22.6298 -27.2578 -27.2578 -22.6298 14895.2764 9984.3203)">
	<stop  offset="0" style="stop-color:#D7D20E"/>
	<stop  offset="0.1746" style="stop-color:#DDD80D"/>
	<stop  offset="0.3936" style="stop-color:#BED630"/>
	<stop  offset="0.8068" style="stop-color:#A5CD39"/>
	<stop  offset="1" style="stop-color:#84BC3C"/>
</linearGradient>
<path class="st0" d="M27.5,93.8c7.6,21.8,26.9,38.1,50.3,41.3c2.9,0.4,5.8,0.6,8.8,0.6c9.1-0.1,17.8-2.1,25.5-5.6
	c-0.6,0.2-1.3,0.4-1.9,0.6l-0.6,0.2c-1.3,0.4-2.5,0.7-3.8,1l-0.3,0.1c-2.8,0.6-5.7,0.9-8.7,0.9c-1.6,0-3.2-0.1-4.7-0.2l-0.3,0
	c-4.4-0.5-8.6-1.6-12.6-3.2l-0.3-0.1c-3.9-1.7-7.5-3.9-10.8-6.5l-0.3-0.2c-2.2-1.8-4.1-3.8-5.9-5.9l0,0c-0.9-1-1.7-2.1-2.4-3.2
	l-0.3-0.4c-1.4-2.1-2.7-4.3-3.7-6.7l-0.1-0.3c-2.4-5.5-3.7-11.5-3.7-17.8v-0.1l0-0.2c0-1-0.1-2-0.1-2.9
	c-0.1-14.2,4.6-27.4,12.6-37.9C75.5,32,93.3,22.3,113.5,22.2h0.4c0.7,0,1.5,0,2.2,0.1c0.7,0,1.4,0,2,0.1c1.4,0.1,2.8,0.2,4.2,0.4
	c11.2,1.5,21.4,6,29.9,12.7c-14-14.8-33.7-24-55.7-24h-0.5c-1.3,0-2.6,0-3.8,0.1c-30,1.7-57.3,19.8-66.3,46.8
	c-1.2,4.9-1.9,10.1-1.8,15.4C24.1,80.8,25.3,87.5,27.5,93.8z"/>
<linearGradient id="SVGID_2_" gradientUnits="userSpaceOnUse" x1="-37.2239" y1="502.4558" x2="-33.6657" y2="502.4558" gradientTransform="matrix(23.0014 22.3679 22.3679 -23.0014 -10311.9014 12433.4365)">
	<stop  offset="0" style="stop-color:#4B882F"/>
	<stop  offset="9.448400e-02" style="stop-color:#5C9F38"/>
	<stop  offset="0.3356" style="stop-color:#72BE44"/>
	<stop  offset="1" style="stop-color:#FFC10E"/>
</linearGradient>
<path class="st1" d="M122.3,22.8c-1.4-0.2-2.8-0.3-4.2-0.4c-0.7,0-1.3,0-2-0.1c-0.9,0-1.7-0.1-2.6-0.1C93.3,22.3,75.5,32,64.3,46.9
	c-8,10.5-12.7,23.7-12.6,37.9c0,1,0,2,0.1,2.9c0.1-24.5,20-44.4,44.5-44.5c3.2,0,6.3,0.3,9.3,0.9l0.3,0.1c7.2,1.5,13.7,4.8,19.2,9.3
	l0.1,0.1c10.3,7.4,18.2,17.9,22.4,30.1c2.2,6.3,3.4,13,3.4,19.9c0.1,14.2-4.6,27.4-12.6,37.9c-8.2,10.9-19.8,20-33.6,22.6
	c29.6-3.2,54.1-23.3,63.8-50.3c2.9-8.2,4.5-17,4.4-26.2c-0.1-20.2-8-38.5-20.9-52.1C143.7,28.8,133.5,24.3,122.3,22.8z"/>
<linearGradient id="SVGID_3_" gradientUnits="userSpaceOnUse" x1="-50.5139" y1="498.0567" x2="-46.9556" y2="498.0567" gradientTransform="matrix(30.3205 -17.5762 -17.5762 -30.3205 10324.4023 14341.3398)">
	<stop  offset="0" style="stop-color:#FFEC4E"/>
	<stop  offset="8.083820e-02" style="stop-color:#F9EC00"/>
	<stop  offset="0.1524" style="stop-color:#F7E004"/>
	<stop  offset="0.3844" style="stop-color:#F1BC0F"/>
	<stop  offset="0.5089" style="stop-color:#EFAF13"/>
	<stop  offset="0.743" style="stop-color:#EAAB12"/>
	<stop  offset="0.848" style="stop-color:#E5A812"/>
	<stop  offset="1" style="stop-color:#9B7301"/>
</linearGradient>
<path class="st2" d="M138.4,141.5c8-10.5,12.7-23.7,12.6-37.9c0-7-1.2-13.7-3.4-19.9c-4.2-12.2-12.1-22.7-22.4-30.1
	c0.7,0.6,1.3,1.2,1.9,1.8c0.4,0.4,0.8,0.7,1.2,1.1c0.6,0.6,1.2,1.3,1.8,2c0.4,0.5,0.8,0.9,1.2,1.4c0.6,0.7,1.1,1.4,1.6,2.1
	c0.4,0.5,0.7,1,1.1,1.5c0.5,0.7,0.9,1.5,1.4,2.3c0.3,0.5,0.6,1.1,0.9,1.6c0.4,0.8,0.8,1.6,1.2,2.4c0.2,0.6,0.5,1.1,0.7,1.7
	c0.3,0.9,0.7,1.7,1,2.6c0.2,0.6,0.3,1.1,0.5,1.7c0.3,0.9,0.5,1.8,0.7,2.8c0.1,0.5,0.2,1.1,0.3,1.6c0.2,1,0.4,2,0.5,3
	c0.1,0.4,0.1,0.9,0.1,1.3c0.1,1,0.2,2.1,0.2,3.1c0,1.6-0.1,3.2-0.3,4.8l0,0.2c-0.1,1.4-0.4,2.8-0.6,4.1l-0.1,0.6
	c-0.3,1.2-0.5,2.4-0.9,3.5l-0.3,0.8c-0.3,1.1-0.7,2.1-1.2,3.2l-0.4,0.9c-0.4,1-0.9,2-1.4,3l-0.4,0.8c-0.6,1-1.2,2-1.8,3l-0.4,0.6
	c-0.8,1.2-1.7,2.4-2.7,3.6l-0.3,0.3c-4.8,5.6-10.9,10-17.9,12.7l-0.5,0.3c-7.8,3.6-16.4,5.6-25.5,5.6c-3,0-6-0.2-8.8-0.6
	c-23.5-3.2-42.8-19.5-50.3-41.3c-2.2-6.3-3.4-13-3.4-20c0-5.3,0.2-10.6,1.8-15.4c-3.9,9.3-6,19.4-5.9,30.1
	c0.1,14.9,4.4,28.8,11.9,40.5c13.7,21.5,37.8,35.7,65.1,35.6c2.6,0,5.3,0,7.8-0.4C118.4,160.5,130.2,152.4,138.4,141.5z"/>
<path class="st3" d="M309.6,153.4c0.3,0.9,0.7,1.7,1.3,2.4c0.6,0.7,1.4,1.2,2.3,1.5c0.9,0.4,2.1,0.6,3.4,0.6c0.9,0,1.7-0.1,2.5-0.2
	c0.7-0.1,1.4-0.3,2-0.6c0-0.4-0.1-0.8-0.2-1.2c-0.1-0.4-0.2-0.7-0.4-1c-1.2,0.5-2.5,0.7-3.8,0.7c-1.5,0-2.7-0.4-3.4-1.1
	c-0.8-0.7-1.2-1.9-1.2-3.5h9.8l0.1-0.7l0-0.8c0-1-0.1-1.8-0.4-2.7c-0.3-0.8-0.6-1.5-1.2-2.1c-0.5-0.6-1.1-1.1-1.9-1.4
	c-0.8-0.3-1.6-0.5-2.6-0.5c-1.2,0-2.2,0.2-3,0.6c-0.9,0.4-1.6,0.9-2.1,1.6c-0.6,0.7-1,1.5-1.3,2.4c-0.3,0.9-0.4,1.9-0.4,3
	C309.1,151.5,309.3,152.5,309.6,153.4z M313.2,146c0.6-0.7,1.5-1,2.6-1c0.6,0,1.1,0.1,1.5,0.3c0.4,0.2,0.8,0.5,1,0.9
	c0.3,0.4,0.5,0.8,0.6,1.3c0.1,0.5,0.2,1,0.2,1.5h-7.1C312.3,147.7,312.6,146.7,313.2,146z"/>
<path class="st3" d="M293.5,160.8c0,1.3,0.5,2.2,1.5,2.8c1,0.6,2.5,0.9,4.4,0.9c1.1,0,2.1-0.1,3.1-0.4c0.9-0.2,1.8-0.6,2.5-1
	c0.7-0.4,1.2-1,1.6-1.6c0.4-0.6,0.6-1.3,0.6-2.1c0-1.2-0.4-2.1-1.1-2.8c-0.8-0.7-2-1-3.6-1.1l-3.7-0.1c-0.8,0-1.4-0.2-1.6-0.4
	s-0.4-0.5-0.4-0.9c0-0.4,0.1-0.7,0.4-1l0.8-0.7c0.6,0.2,1.3,0.3,2.1,0.3c0.8,0,1.6-0.1,2.3-0.4c0.7-0.2,1.3-0.6,1.8-1
	c0.5-0.4,0.9-1,1.2-1.6c0.3-0.6,0.4-1.3,0.4-2.1c0-0.5-0.1-0.9-0.2-1.3c-0.1-0.4-0.3-0.7-0.5-1h2.5l0.1-0.7l0-0.6
	c0-0.4,0-0.8-0.1-1.2c-0.8,0-1.5,0.1-2.1,0.3c-0.6,0.2-1.1,0.4-1.5,0.7c-0.5-0.4-1.1-0.7-1.8-0.9c-0.7-0.2-1.5-0.4-2.3-0.4
	c-0.9,0-1.8,0.1-2.5,0.4c-0.7,0.3-1.3,0.6-1.8,1.1c-0.5,0.5-0.9,1-1.1,1.6c-0.3,0.6-0.4,1.3-0.4,2c0,0.9,0.2,1.6,0.6,2.3
	c0.4,0.7,0.9,1.2,1.5,1.7c-0.5,0.4-0.9,0.8-1.3,1.4c-0.3,0.5-0.5,1.1-0.5,1.8c0,0.5,0.1,1,0.4,1.4c0.3,0.4,0.6,0.7,0.9,0.9
	c-0.7,0.4-1.2,0.8-1.6,1.5C293.7,159.4,293.5,160,293.5,160.8z M297.7,145.7c0.5-0.6,1.2-0.9,2.2-0.9c1,0,1.8,0.3,2.3,0.9
	c0.5,0.6,0.7,1.3,0.7,2.2c0,0.9-0.2,1.6-0.7,2.2c-0.5,0.6-1.2,0.8-2.3,0.8c-1,0-1.8-0.3-2.2-0.8c-0.5-0.6-0.7-1.3-0.7-2.2
	C297,147,297.3,146.2,297.7,145.7z M296.8,158.6c0.4-0.5,1.1-0.7,1.9-0.7l3.2,0.1c1,0,1.6,0.2,2,0.5c0.4,0.3,0.5,0.7,0.5,1.3
	c0,0.8-0.4,1.4-1.3,1.9c-0.8,0.5-2,0.7-3.5,0.7c-0.5,0-1,0-1.4-0.1c-0.4-0.1-0.8-0.2-1.1-0.3l-0.7-0.6c-0.2-0.3-0.3-0.6-0.3-1
	C296.1,159.6,296.4,159.1,296.8,158.6z"/>
<path class="st3" d="M235.1,142.8c-0.7,0-1.5,0.1-2.2,0.2c-0.8,0.1-1.5,0.3-2.1,0.5c0,0.9,0.2,1.6,0.5,2.2c0.5-0.2,1.1-0.3,1.7-0.4
	c0.6-0.1,1.2-0.2,1.8-0.2c1.1,0,1.9,0.2,2.5,0.6c0.6,0.4,0.8,1.2,0.8,2.3v0.5c-0.3,0-0.6-0.1-1-0.1c-0.4,0-0.9,0-1.5,0
	c-0.8,0-1.6,0.1-2.3,0.3c-0.7,0.2-1.4,0.5-1.9,0.9c-0.6,0.4-1,0.9-1.3,1.5c-0.3,0.6-0.5,1.3-0.5,2.1c0,0.8,0.1,1.5,0.4,2.1
	c0.3,0.6,0.7,1.1,1.2,1.4c0.5,0.4,1.1,0.6,1.9,0.8c0.7,0.2,1.6,0.3,2.5,0.3c1,0,1.9-0.1,2.9-0.2c0.9-0.2,1.7-0.3,2.4-0.5v-9
	c0-1.9-0.5-3.2-1.5-4.1C238.4,143.2,237,142.8,235.1,142.8z M238.1,155.4c-0.4,0.1-0.8,0.2-1.2,0.2c-0.5,0-0.9,0.1-1.3,0.1
	c-0.3,0-0.7,0-1.1-0.1c-0.4,0-0.7-0.1-1-0.3c-0.3-0.2-0.6-0.4-0.8-0.7c-0.2-0.3-0.3-0.8-0.3-1.3c0-0.9,0.3-1.5,0.9-2
	c0.6-0.4,1.5-0.7,2.7-0.7c0.3,0,0.7,0,1.1,0.1c0.4,0,0.8,0.1,1.1,0.1V155.4z"/>
<path class="st3" d="M265.1,140.7c0.1-0.4,0.3-0.7,0.5-1c0.2-0.2,0.5-0.4,0.8-0.5c0.3-0.1,0.7-0.1,1.1-0.1c0.3,0,0.6,0,0.9,0.1
	l0.6,0.2c0.1-0.3,0.3-0.7,0.4-1c0.1-0.3,0.2-0.8,0.3-1.3c-0.3-0.1-0.7-0.2-1.1-0.2c-0.4-0.1-0.9-0.1-1.4-0.1c-1.7,0-2.9,0.5-3.8,1.4
	c-0.9,0.9-1.3,2.3-1.3,4.1v0.9h-2.4c-0.1,0.3-0.1,0.7-0.1,1.1c0,0.4,0,0.8,0.1,1.1h2.4v12.2l0.7,0.1l0.7,0l0.7,0l0.7-0.1v-12.2h6.1
	v12.2l0.7,0.1l0.7,0l0.7,0l0.7-0.1v-12.2h3.7c0.1-0.3,0.1-0.7,0.1-1c0-0.4,0-0.8-0.1-1.2h-3.7v-0.9c0-0.7,0.1-1.2,0.2-1.6
	c0.1-0.4,0.3-0.8,0.5-1c0.2-0.2,0.5-0.4,0.8-0.5c0.3-0.1,0.7-0.1,1.1-0.1c0.4,0,0.7,0,0.9,0.1l0.7,0.1c0.1-0.4,0.2-0.7,0.3-1
	c0.1-0.3,0.1-0.7,0.2-1.2c-0.3-0.1-0.7-0.2-1-0.2c-0.4,0-0.8-0.1-1.2-0.1c-1.7,0-3,0.5-3.9,1.4c-0.9,0.9-1.3,2.3-1.3,4.1v1H265v-0.8
	C265,141.7,265,141.1,265.1,140.7z"/>
<path class="st3" d="M249,157.6c0.8,0.2,1.7,0.2,2.6,0.2c1,0,1.9-0.1,2.8-0.3c0.9-0.2,1.7-0.3,2.4-0.5v-14l-0.7-0.1l-0.7,0l-0.7,0
	l-0.7,0.1v12.1c-0.7,0.2-1.5,0.3-2.5,0.3c-0.6,0-1.2-0.1-1.7-0.2c-0.5-0.1-0.9-0.4-1.2-0.7c-0.3-0.3-0.6-0.8-0.8-1.4
	c-0.2-0.6-0.3-1.3-0.3-2.2v-7.9l-0.7-0.1l-0.7,0l-0.7,0l-0.7,0.1v8c0,1.4,0.2,2.6,0.5,3.5c0.4,0.9,0.8,1.6,1.5,2.1
	C247.5,157.2,248.2,157.5,249,157.6z"/>
<path class="st3" d="M286.8,148.5c-0.4,0-0.9,0-1.5,0c-0.8,0-1.6,0.1-2.3,0.3c-0.7,0.2-1.4,0.5-1.9,0.9c-0.6,0.4-1,0.9-1.3,1.5
	c-0.3,0.6-0.5,1.3-0.5,2.1c0,0.8,0.1,1.5,0.4,2.1c0.3,0.6,0.7,1.1,1.2,1.4c0.5,0.4,1.1,0.6,1.9,0.8c0.7,0.2,1.6,0.3,2.5,0.3
	c1,0,1.9-0.1,2.9-0.2c0.9-0.2,1.7-0.3,2.4-0.5v-9c0-1.9-0.5-3.2-1.5-4.1c-1-0.9-2.4-1.3-4.3-1.3c-0.7,0-1.5,0.1-2.2,0.2
	c-0.8,0.1-1.5,0.3-2.1,0.5c0,0.9,0.2,1.6,0.5,2.2c0.5-0.2,1.1-0.3,1.7-0.4c0.6-0.1,1.2-0.2,1.8-0.2c1.1,0,1.9,0.2,2.5,0.6
	c0.6,0.4,0.8,1.2,0.8,2.3v0.5C287.5,148.5,287.2,148.5,286.8,148.5z M287.8,155.4c-0.4,0.1-0.8,0.2-1.2,0.2c-0.5,0-0.9,0.1-1.3,0.1
	c-0.3,0-0.7,0-1.1-0.1c-0.4,0-0.7-0.1-1-0.3c-0.3-0.2-0.6-0.4-0.8-0.7c-0.2-0.3-0.3-0.8-0.3-1.3c0-0.9,0.3-1.5,0.9-2
	c0.6-0.4,1.5-0.7,2.7-0.7c0.3,0,0.7,0,1.1,0.1c0.4,0,0.8,0.1,1.1,0.1V155.4z"/>
<path class="st3" d="M221.4,142.8c-0.6,0-1.1,0.1-1.6,0.2c-0.5,0.2-0.9,0.4-1.3,0.6c-0.4,0.3-0.7,0.5-0.9,0.8l-0.6,0.8v-8.4
	l-0.7-0.1l-0.7,0l-0.7,0l-0.7,0.1v20.6l0.7,0.1l0.7,0l0.7,0l0.7-0.1v-7.4c0-0.9,0.1-1.6,0.3-2.3c0.2-0.6,0.5-1.1,0.8-1.5
	c0.4-0.4,0.8-0.7,1.2-0.8c0.5-0.2,1-0.3,1.5-0.3c0.9,0,1.6,0.3,2,0.9c0.4,0.6,0.7,1.6,0.7,2.9v8.4l0.7,0.1l0.7,0l0.7,0l0.7-0.1v-9.1
	c0-1.9-0.4-3.3-1.2-4.2C224.3,143.2,223,142.8,221.4,142.8z"/>
<path class="st3" d="M210.4,155c-0.5,0.2-1,0.3-1.4,0.4c-0.5,0.1-1,0.1-1.6,0.1c-1.4,0-2.5-0.4-3.3-1.3c-0.8-0.8-1.2-2.2-1.2-4
	c0-1.6,0.4-2.8,1.1-3.8c0.7-1,1.8-1.4,3.2-1.4c1.2,0,2.2,0.2,3.2,0.5c0.1-0.3,0.3-0.7,0.4-1.1c0.1-0.4,0.1-0.8,0.1-1.1
	c-0.5-0.2-1.1-0.4-1.7-0.4c-0.6-0.1-1.3-0.1-2.1-0.1c-1.2,0-2.2,0.2-3.1,0.6c-0.9,0.4-1.6,0.9-2.2,1.6c-0.6,0.7-1,1.5-1.3,2.4
	c-0.3,0.9-0.4,1.9-0.4,3c0,2.3,0.6,4.1,1.8,5.5c1.2,1.4,3,2,5.4,2c1.4,0,2.7-0.2,3.8-0.6c0-0.4-0.1-0.8-0.2-1.2
	C210.7,155.6,210.5,155.3,210.4,155z"/>
<path class="st3" d="M471.7,66.8c0.8,0.5,1.8,0.8,2.8,0.8c1,0,2-0.3,2.8-0.8c0.8-0.5,1.5-1.1,2-2c0.5-0.8,0.7-1.8,0.7-2.8
	c0-1-0.3-2-0.7-2.8c-0.5-0.8-1.2-1.5-2-2c-0.8-0.5-1.8-0.7-2.8-0.8c-1,0-2,0.3-2.8,0.8c-0.8,0.5-1.5,1.2-2,2
	c-0.5,0.8-0.8,1.8-0.8,2.8c0,1,0.3,2,0.8,2.8C470.2,65.6,470.8,66.3,471.7,66.8z M470.6,59.7c0.4-0.7,0.9-1.2,1.6-1.6
	c0.7-0.4,1.4-0.6,2.2-0.6c0.8,0,1.6,0.2,2.2,0.6c0.7,0.4,1.2,0.9,1.6,1.6c0.4,0.7,0.6,1.4,0.6,2.3c0,0.8-0.2,1.6-0.6,2.3
	c-0.4,0.7-0.9,1.2-1.6,1.6c-0.7,0.4-1.4,0.6-2.2,0.6c-0.8,0-1.6-0.2-2.2-0.6c-0.7-0.4-1.2-0.9-1.6-1.6c-0.4-0.7-0.6-1.4-0.6-2.3
	C470,61.1,470.2,60.4,470.6,59.7z"/>
<path class="st3" d="M473.4,62.4h0.8l1.9,2.8h1.2l-1.9-2.8c0.5,0,0.9-0.2,1.2-0.5c0.3-0.3,0.5-0.7,0.5-1.3c0-1.2-0.7-1.8-2.2-1.8
	h-2.5v6.5h1V62.4z M473.4,59.7h1.5c0.3,0,0.6,0.1,0.9,0.2l0.3,0.7c0,0.3-0.1,0.6-0.4,0.7c-0.2,0.1-0.6,0.2-1.1,0.2h-1.1V59.7z"/>
<path class="st3" d="M451.9,123.3c7.3,0,15.2-2.7,20.4-7.3l-5-9.1c-4.1,3.3-9.4,5.6-14.5,5.6c-7.7,0-14.4-4.6-15.2-13.4h34.9
	c0.2-1.6,0.4-3.3,0.4-4.9c0-13.4-8-24.1-22.5-24.1c-15.2,0-25.9,10.9-25.9,26.6C424.5,111.2,435,123.3,451.9,123.3z M450.1,79.7
	c5.7,0,10.1,4,10.2,10.7h-22.4C439,84,443.6,79.7,450.1,79.7z"/>
<path class="st3" d="M416.9,123.3c1.7,0,2.9-0.2,3.9-0.3v-11c-1,0.2-1.6,0.2-2.3,0.2c-3.5,0-10.1-1.2-10.1-9.6V81H420V70.2h-11.5
	V56.4l-12.6,4v19.8v24C395.8,121.2,409.9,123.3,416.9,123.3z"/>
<path class="st3" d="M352.8,81.2c0.9-0.1,2.2-0.3,4.1-0.5c1.8-0.2,3.6-0.3,5.3-0.3c2.3,0,4.2,0.3,5.8,0.9c1.6,0.6,2.8,1.6,3.7,3
	c0.9,1.4,1.6,3.1,2,5.3c0.4,2.2,0.6,4.8,0.6,7.8v26h13.3V95.2c0-3.9-0.4-7.4-1.1-10.7c-0.8-3.2-2.1-6-3.9-8.3
	c-1.9-2.3-4.4-4.1-7.5-5.4c-3.1-1.3-7.1-1.9-11.7-1.9c-5,0-9.4,1.2-13.6,1.2c-4.1,0-9.3,0-9.3,0v53.1h12.6V81.2z"/>
<rect x="317.4" y="70.2" class="st3" width="12.6" height="53.1"/>
<circle class="st3" cx="323.7" cy="59" r="6.3"/>
<path class="st3" d="M281.5,123.3c15.4,0,27.9-10.9,27.9-26.6c0-15.5-12.4-26.6-28-26.6c-15.3,0-27.8,11-27.8,26.6
	C253.7,112.4,266.1,123.3,281.5,123.3z M281.5,80.9c8.3,0,15.1,6.5,15.1,15.8c0,9.5-6.9,15.8-15.1,15.8c-8.3,0-15-6.4-15-15.8
	C266.5,87.4,273.3,80.9,281.5,80.9z"/>
<path class="st3" d="M199.2,52.7v70.7h12.8V96.9h12.3l13.9,26.4h14.4l-14.5-26.3c-1.4-2.6-2.3-3.7-2.3-3.7v-0.2
	c7.5-3,11.8-10.9,11.8-19.3c0-9.6-4.7-16.3-11.9-19.3c-3-1.3-6.4-1.9-13.3-1.9H199.2z M229.2,64.9c3.9,1.6,5.6,5.2,5.6,9.7
	c0,7-4.3,11.2-11.1,11.2h-11.5V63.7h9.4C225.3,63.7,227.4,64.1,229.2,64.9z"/>
</svg>
