<?xml version="1.0" encoding="utf-8"?>
<!-- Generator: Adobe Illustrator 15.0.0, SVG Export Plug-In . SVG Version: 6.00 Build 0)  -->
<!DOCTYPE svg PUBLIC "-//W3C//DTD SVG 1.1//EN" "http://www.w3.org/Graphics/SVG/1.1/DTD/svg11.dtd">
<svg version="1.1" id="Calque_1" xmlns="http://www.w3.org/2000/svg" xmlns:xlink="http://www.w3.org/1999/xlink" x="0px" y="0px"
	 width="500px" height="500px" viewBox="0 0 500 500" enable-background="new 0 0 500 500" xml:space="preserve">
<g>
	<path fill="#FF6700" d="M176.25,260.309c5.458-5.185,10.914-13.643,10.914-27.832c0-28.378-21.999-33.29-29.173-33.29
		c-1.422,0-7.391,0-7.391,0h-0.546h-23.466v104.781h24.012v-75.584h6.003c0,0,7.094-0.546,7.094,7.094
		c0,6.549-5.185,7.367-5.185,7.367l-4.218,0.397v27.31l0,0l11.041,33.415h24.012L176.25,260.309z"/>
	<path fill="#FF6700" d="M476.842,223.302c2.687-2.046,5.374-5.383,5.374-10.981c0-11.196-11.42-13.134-11.42-13.134h-6.584h-0.269
		h-11.553v41.339h11.821v-29.82h2.957c0,0,3.492,0.215,3.492,2.799c0,2.584-2.552,2.907-2.552,2.907h-1.882v10.775l-0.269,0.098
		l5.51,13.242h11.822L476.842,223.302z"/>
	<path fill="#FF6700" d="M214.724,209.692c5.492,0,9.96,4.468,9.96,9.959c0,5.492-4.468,9.959-9.96,9.959
		c-5.491,0-9.959-4.468-9.959-9.959C204.765,214.161,209.233,209.692,214.724,209.692 M214.724,197.414
		c-12.281,0-22.238,9.957-22.238,22.238s9.957,22.239,22.238,22.239c12.282,0,22.239-9.957,22.239-22.239
		S227.007,197.414,214.724,197.414L214.724,197.414z"/>
	<rect x="298.903" y="198.369" fill="#FF6700" width="11.733" height="41.476"/>
	<path fill="#FF6700" d="M254.289,225.382v-27.014h-11.733v27.014h0.028c0.583,17.067,17.776,15.894,17.776,15.894v-12.688
		C253.812,228.588,254.289,225.382,254.289,225.382z"/>
	<path fill="#FF6700" d="M281.439,225.382v-27.014h-11.732v27.014h0.027c0.584,17.067,17.776,15.894,17.776,15.894v-12.688
		C280.961,228.588,281.439,225.382,281.439,225.382z"/>
	<path fill="#FF6700" d="M355.25,211.739c0-7.987-6.657-14.462-14.871-14.462s-14.871,6.475-14.871,14.462v0h-0.001v28.105h11.733
		v-27.942c0.622-1.401,1.793-2.347,3.139-2.347c1.344,0,2.515,0.945,3.138,2.343v27.945h11.732v-12.144l0.001,0.001V211.739z"/>
	<path fill="#FF6700" d="M411.597,216.923h-24.013v9.823h8.89c-1.799,1.77-4.263,2.865-6.979,2.865
		c-5.491,0-9.959-4.468-9.959-9.959c0-5.491,4.468-9.959,9.959-9.959c0.996,0,1.957,0.151,2.865,0.425v-12.514
		c-0.938-0.121-1.894-0.19-2.865-0.19c-12.281,0-22.238,9.957-22.238,22.238s9.957,22.239,22.238,22.239
		c12.282,0,22.239-9.957,22.239-22.239C411.734,219.055,411.643,217.509,411.597,216.923z"/>
	<path fill="#FF6700" d="M437.587,215.15H427.43c0.056-2.631,2.197-4.748,4.841-4.748h5.316v-11.692h-8.8
		c-8.138,0-14.734,6.597-14.734,14.735v12.688c0,8.138,6.597,14.735,14.734,14.735h8.8v-11.801h-5.181
		c-2.644,0-4.785-2.117-4.841-4.748h10.021V215.15z"/>
	<g>
		<path d="M19.575,304.809v-32.517h17.212v4.769H25.645v8.238h10.448v4.77H25.645v14.74H19.575z"/>
		<path d="M37.46,285.949c0.216-8.281,0.752-14.438,8.781-14.438c8.028,0,8.565,6.156,8.781,14.438v4.639
			c0,8.671-0.538,15.001-8.781,15.001s-8.781-6.33-8.781-15.001V285.949z M44.255,293.623c0,2.688,0.098,7.067,1.984,7.067
			c1.964,0,1.984-4.466,1.984-7.588v-8.324c0-2.601,0.059-8.368-1.984-8.368c-2.16,0-1.984,5.68-1.984,8.195V293.623z"/>
		<path d="M73.036,272.292h5.267v32.517h-5.492l-4.1-11.576c-1.39-3.858-2.519-7.803-3.76-12.919h-0.076
			c0.188,2.688,0.413,5.982,0.564,9.277c0.15,3.252,0.264,6.504,0.264,9.104v6.113h-5.267v-32.517h5.454l4.1,11.836
			c1.354,3.772,2.482,7.631,3.761,12.92h0.075c-0.188-2.948-0.375-6.113-0.526-9.234c-0.15-3.121-0.264-6.243-0.264-9.148V272.292z"
			/>
		<path d="M84.102,304.809v-32.517h9.492c1.105,0,3.315,0.65,4.713,3.685c1.04,2.255,1.333,5.854,1.333,11.229
			c0,6.417,0,13.83-3.739,16.736c-1.008,0.78-2.243,0.866-3.382,0.866H84.102z M90.636,300.039c4.063,0,4.323-2.861,4.323-12.27
			c0-7.674-0.586-10.709-3.317-10.709h-2.991v22.979H90.636z"/>
		<path d="M105.61,304.809v-32.517h17.083v4.769h-11.014v8.195h10.146v4.769h-10.146v10.015h11.014v4.77H105.61z"/>
		<path d="M197.932,304.809v-32.517h6.071v32.517H197.932z"/>
		<path d="M209.769,304.809v-32.517h17.083v4.769H215.84v8.195h10.145v4.769H215.84v10.015h11.013v4.77H209.769z"/>
	</g>
</g>
</svg>
