<?xml version="1.0" encoding="utf-8"?>
<!-- Generator: Adobe Illustrator 19.1.0, SVG Export Plug-In . SVG Version: 6.00 Build 0)  -->
<svg version="1.1" id="Calque_1" xmlns="http://www.w3.org/2000/svg" xmlns:xlink="http://www.w3.org/1999/xlink" x="0px" y="0px"
	 viewBox="-345 170.9 500 500" style="enable-background:new -345 170.9 500 500;" xml:space="preserve">
<style type="text/css">
	.st0{fill:#FF6700;}
</style>
<path class="st0" d="M-168.8,431.2c5.5-5.2,10.9-13.6,10.9-27.8c0-28.4-22-33.3-29.2-33.3c-1.4,0-7.4,0-7.4,0h-0.5h-23.5v104.8h24
	v-75.6h6c0,0,7.1-0.5,7.1,7.1c0,6.5-5.2,7.4-5.2,7.4l-4.2,0.4v27.3l0,0l11,33.4h24L-168.8,431.2z"/>
<path class="st0" d="M131.8,394.2c2.7-2,5.4-5.4,5.4-11c0-11.2-11.4-13.1-11.4-13.1h-6.6h-0.3h-11.6v41.3h11.8v-29.8h3
	c0,0,3.5,0.2,3.5,2.8c0,2.6-2.6,2.9-2.6,2.9h-1.9v10.8l-0.3,0.1l5.5,13.2h11.8L131.8,394.2z"/>
<path class="st0" d="M-130.3,380.6c5.5,0,10,4.5,10,10c0,5.5-4.5,10-10,10c-5.5,0-10-4.5-10-10
	C-140.2,385.1-135.8,380.6-130.3,380.6 M-130.3,368.3c-12.3,0-22.2,10-22.2,22.2s10,22.2,22.2,22.2c12.3,0,22.2-10,22.2-22.2
	C-108,378.3-118,368.3-130.3,368.3L-130.3,368.3z"/>
<rect x="-46.1" y="369.3" class="st0" width="11.7" height="41.5"/>
<path class="st0" d="M-90.7,396.3v-27h-11.7v27h0c0.6,17.1,17.8,15.9,17.8,15.9v-12.7C-91.2,399.5-90.7,396.3-90.7,396.3z"/>
<path class="st0" d="M-63.6,396.3v-27h-11.7v27h0c0.6,17.1,17.8,15.9,17.8,15.9v-12.7C-64,399.5-63.6,396.3-63.6,396.3z"/>
<path class="st0" d="M10.2,382.6c0-8-6.7-14.5-14.9-14.5s-14.9,6.5-14.9,14.5l0,0h0v28.1h11.7v-27.9c0.6-1.4,1.8-2.3,3.1-2.3
	c1.3,0,2.5,0.9,3.1,2.3v27.9h11.7v-12.1l0,0V382.6z"/>
<path class="st0" d="M66.6,387.8h-24v9.8h8.9c-1.8,1.8-4.3,2.9-7,2.9c-5.5,0-10-4.5-10-10s4.5-10,10-10c1,0,2,0.2,2.9,0.4v-12.5
	c-0.9-0.1-1.9-0.2-2.9-0.2c-12.3,0-22.2,10-22.2,22.2s10,22.2,22.2,22.2c12.3,0,22.2-10,22.2-22.2C66.7,389.9,66.6,388.4,66.6,387.8
	z"/>
<path class="st0" d="M92.6,386H82.4c0.1-2.6,2.2-4.7,4.8-4.7h5.3v-11.7h-8.8c-8.1,0-14.7,6.6-14.7,14.7V397
	c0,8.1,6.6,14.7,14.7,14.7h8.8V400h-5.2c-2.6,0-4.8-2.1-4.8-4.7h10L92.6,386L92.6,386z"/>
<path d="M-325.4,475.7v-32.5h17.2v4.8h-11.1v8.2h10.4v4.8h-10.4v14.7H-325.4z"/>
<path d="M-307.5,456.8c0.2-8.3,0.8-14.4,8.8-14.4c8,0,8.6,6.2,8.8,14.4v4.6c0,8.7-0.5,15-8.8,15s-8.8-6.3-8.8-15V456.8z
	 M-300.7,464.5c0,2.7,0.1,7.1,2,7.1c2,0,2-4.5,2-7.6v-8.3c0-2.6,0.1-8.4-2-8.4c-2.2,0-2,5.7-2,8.2V464.5z"/>
<path d="M-272,443.2h5.3v32.5h-5.5l-4.1-11.6c-1.4-3.9-2.5-7.8-3.8-12.9h-0.1c0.2,2.7,0.4,6,0.6,9.3c0.1,3.3,0.3,6.5,0.3,9.1v6.1
	h-5.3v-32.5h5.5l4.1,11.8c1.4,3.8,2.5,7.6,3.8,12.9h0.1c-0.2-2.9-0.4-6.1-0.5-9.2c-0.1-3.1-0.3-6.2-0.3-9.1
	C-272,449.6-272,443.2-272,443.2z"/>
<path d="M-260.9,475.7v-32.5h9.5c1.1,0,3.3,0.6,4.7,3.7c1,2.3,1.3,5.9,1.3,11.2c0,6.4,0,13.8-3.7,16.7c-1,0.8-2.2,0.9-3.4,0.9
	L-260.9,475.7L-260.9,475.7z M-254.4,470.9c4.1,0,4.3-2.9,4.3-12.3c0-7.7-0.6-10.7-3.3-10.7h-3v23H-254.4z"/>
<path d="M-239.4,475.7v-32.5h17.1v4.8h-11v8.2h10.1v4.8h-10.1v10h11v4.8L-239.4,475.7L-239.4,475.7z"/>
<path d="M-147.1,475.7v-32.5h6.1v32.5H-147.1z"/>
<path d="M-135.2,475.7v-32.5h17.1v4.8h-11v8.2h10.1v4.8h-10.1v10h11v4.8L-135.2,475.7L-135.2,475.7z"/>
</svg>
