<?xml version="1.0" encoding="utf-8"?>
<!-- Generator: Adobe Illustrator 15.0.0, SVG Export Plug-In . SVG Version: 6.00 Build 0)  -->
<!DOCTYPE svg PUBLIC "-//W3C//DTD SVG 1.1//EN" "http://www.w3.org/Graphics/SVG/1.1/DTD/svg11.dtd">
<svg version="1.1" id="Calque_1" xmlns="http://www.w3.org/2000/svg" xmlns:xlink="http://www.w3.org/1999/xlink" x="0px" y="0px"
	 width="500px" height="500px" viewBox="0 0 500 500" enable-background="new 0 0 500 500" xml:space="preserve">
<g>
	<g>
		<path fill="#1D1D1B" d="M98.058,346.404l-20.598-22.609H44.283v-12.53h43.15c5.153,0,9.031-1.402,11.634-4.204
			c2.616-2.796,3.932-6.84,3.932-12.139s-1.369-9.237-4.09-11.813c-2.723-2.576-6.548-3.865-11.476-3.865H36.601v67.161H22.504
			v-81.378h64.929c4.623,0,8.765,0.69,12.417,2.079c3.666,1.381,6.76,3.347,9.296,5.93c2.538,2.576,4.477,5.69,5.818,9.35
			c1.348,3.646,2.018,7.763,2.018,12.312c0,6.786-1.474,12.477-4.422,17.064c-2.948,4.582-13.573,7.89-18.872,9.901l24.509,24.742
			H98.058z"/>
		<path fill="#1D1D1B" d="M179.549,346.404c-5.677,0-10.917-1.056-15.738-3.187c-4.808-2.133-8.992-5.04-12.53-8.726
			c-3.54-3.699-6.303-8.089-8.281-13.155c-1.979-5.086-2.968-10.564-2.968-16.461c0-5.963,0.99-11.416,2.968-16.343
			c1.978-4.926,4.741-9.117,8.281-12.597c3.539-3.459,7.723-6.149,12.53-8.048c4.82-1.905,10.061-2.862,15.738-2.862h19.808
			c5.891,0,11.282,0.977,16.169,2.915c4.887,1.939,9.084,4.662,12.597,8.168c3.506,3.506,6.229,7.71,8.174,12.597
			c1.939,4.888,2.902,10.279,2.902,16.17c0,5.896-0.99,11.375-2.961,16.461c-1.985,5.066-4.749,9.456-8.288,13.155
			c-3.545,3.686-7.742,6.593-12.59,8.726c-4.853,2.131-10.18,3.187-16.003,3.187H179.549z M199.357,332.194
			c3.725,0,7.158-0.671,10.292-2.025c3.135-1.335,5.836-3.188,8.114-5.538c2.278-2.344,4.044-5.159,5.319-8.447
			c1.27-3.279,1.907-6.832,1.907-10.631c0-3.812-0.638-7.338-1.907-10.578c-1.274-3.24-3.041-6.029-5.319-8.341
			c-2.278-2.316-4.979-4.116-8.114-5.431c-3.135-1.303-6.567-1.96-10.292-1.96h-19.808c-3.666,0-7.04,0.657-10.133,1.96
			c-3.095,1.314-5.764,3.114-8.009,5.431c-2.238,2.312-3.984,5.081-5.252,8.288c-1.282,3.207-1.906,6.747-1.906,10.631
			c0,3.799,0.625,7.352,1.906,10.631c1.268,3.288,3.015,6.104,5.252,8.447c2.245,2.351,4.914,4.203,8.009,5.538
			c3.093,1.354,6.467,2.025,10.133,2.025H199.357z"/>
		<path fill="#1D1D1B" d="M264.507,286.86v59.544H250.96V272.53c0-2.603,0.657-4.682,1.959-6.209
			c1.309-1.534,3.081-2.297,5.318-2.297c1.05,0,2.052,0.219,3.028,0.671c0.964,0.451,1.979,1.194,3.021,2.244l57.412,56.967v-59.543
			h13.548v74.538c0,2.695-0.657,4.78-1.959,6.275c-1.303,1.48-3.009,2.23-5.094,2.23c-2.311,0-4.482-1.003-6.495-3.015
			L264.507,286.86z"/>
		<path fill="#1D1D1B" d="M356.596,346.404v-81.378h14.218v81.378H356.596z"/>
		<path fill="#1D1D1B" d="M393.344,346.404v-14.21h61.005c3.806,0,6.727-0.976,8.785-2.915c2.053-1.938,3.082-4.516,3.082-7.723
			c0-3.507-1.029-6.144-3.082-7.889c-2.059-1.747-4.979-2.637-8.785-2.637h-37.385c-3.806,0-7.259-0.57-10.359-1.74
			c-3.095-1.142-5.697-2.748-7.829-4.808c-2.125-2.045-3.771-4.495-4.927-7.324c-1.163-2.842-1.733-5.937-1.733-9.289
			c0-3.288,0.537-6.328,1.62-9.125c1.083-2.809,2.689-5.212,4.821-7.218c2.118-2.019,4.755-3.605,7.889-4.761
			c3.134-1.156,6.713-1.74,10.737-1.74h58.436v14.217h-58.436c-3.28,0-5.811,0.884-7.604,2.637c-1.8,1.747-2.688,4.197-2.688,7.331
			c0,3.135,0.909,5.558,2.742,7.278c1.832,1.713,4.31,2.569,7.443,2.569h37.272c8.281,0,14.562,1.945,18.866,5.817
			c4.29,3.884,6.428,9.774,6.428,17.683c0,3.44-0.519,6.614-1.567,9.516c-1.049,2.909-2.616,5.433-4.701,7.552
			c-2.085,2.13-4.714,3.791-7.889,4.992c-3.174,1.183-6.886,1.786-11.137,1.786H393.344z"/>
	</g>
	<g>
		<path fill="#1D1D1B" d="M33.988,433.229l-4.928-16.097h2.816l2.563,9.29l0.956,3.46c0.041-0.173,0.319-1.282,0.831-3.321
			l2.563-9.429h2.802l2.411,9.337l0.804,3.08l0.922-3.107l2.763-9.31h2.649l-5.026,16.097h-2.843l-2.563-9.636l-0.617-2.749
			l-3.261,12.385H33.988z"/>
		<path fill="#1D1D1B" d="M82.184,433.229l-4.92-16.097h2.823l2.556,9.29l0.956,3.46c0.041-0.173,0.319-1.282,0.831-3.321
			l2.563-9.429h2.802l2.417,9.337l0.797,3.08l0.929-3.107l2.756-9.31h2.649l-5.033,16.097h-2.83l-2.563-9.636l-0.624-2.749
			l-3.254,12.385H82.184z"/>
		<path fill="#1D1D1B" d="M130.141,433.229l-4.927-16.097h2.822l2.563,9.29l0.956,3.46c0.04-0.173,0.312-1.282,0.83-3.321
			l2.563-9.429h2.802l2.41,9.337l0.803,3.08l0.93-3.107l2.756-9.31h2.65l-5.033,16.097h-2.829l-2.563-9.636l-0.624-2.749
			l-3.254,12.385H130.141z"/>
		<path fill="#1D1D1B" d="M176.664,433.229v-3.107h3.107v3.107H176.664z"/>
		<path fill="#1D1D1B" d="M208.843,433.229v-16.097h2.458v2.444c0.625-1.143,1.202-1.9,1.733-2.258
			c0.525-0.366,1.109-0.552,1.747-0.552c0.922,0,1.859,0.299,2.802,0.883l-0.937,2.53c-0.669-0.392-1.334-0.591-1.999-0.591
			c-0.597,0-1.128,0.18-1.606,0.538c-0.479,0.358-0.81,0.855-1.016,1.493c-0.299,0.971-0.458,2.032-0.458,3.182v8.427H208.843z"/>
		<path fill="#1D1D1B" d="M242.782,425.18c0-2.981,0.831-5.186,2.491-6.62c1.381-1.195,3.067-1.793,5.061-1.793
			c2.211,0,4.022,0.73,5.425,2.178c1.401,1.448,2.105,3.453,2.105,6.01c0,2.072-0.307,3.698-0.93,4.887
			c-0.625,1.189-1.527,2.112-2.717,2.77c-1.188,0.657-2.483,0.983-3.884,0.983c-2.259,0-4.078-0.725-5.466-2.166
			C243.479,429.981,242.782,427.902,242.782,425.18z M245.591,425.18c0,2.065,0.445,3.606,1.342,4.628
			c0.903,1.03,2.031,1.541,3.4,1.541c1.354,0,2.482-0.511,3.372-1.547c0.903-1.03,1.354-2.597,1.354-4.708
			c0-1.992-0.451-3.499-1.354-4.529c-0.902-1.022-2.031-1.54-3.372-1.54c-1.369,0-2.497,0.511-3.4,1.534
			C246.037,421.581,245.591,423.121,245.591,425.18z"/>
		<path fill="#1D1D1B" d="M286.908,433.229v-16.097h2.457v2.291c1.182-1.767,2.881-2.656,5.119-2.656
			c0.971,0,1.867,0.179,2.676,0.524c0.811,0.352,1.422,0.804,1.826,1.375c0.406,0.564,0.684,1.234,0.844,2.013
			c0.105,0.504,0.158,1.394,0.158,2.655v9.895h-2.734v-9.788c0-1.116-0.107-1.946-0.318-2.497c-0.207-0.551-0.584-0.989-1.129-1.314
			c-0.531-0.333-1.17-0.498-1.9-0.498c-1.156,0-2.164,0.371-3.008,1.108s-1.268,2.139-1.268,4.197v8.792H286.908z"/>
		<path fill="#1D1D1B" d="M329.686,414.15v-3.142h2.723v3.142H329.686z M329.686,433.229v-16.097h2.723v16.097H329.686z"/>
		<path fill="#1D1D1B" d="M359.021,428.427l2.697-0.425c0.152,1.082,0.57,1.906,1.262,2.484c0.697,0.577,1.66,0.862,2.908,0.862
			s2.178-0.252,2.789-0.763c0.604-0.512,0.902-1.11,0.902-1.8c0-0.611-0.266-1.096-0.795-1.454
			c-0.373-0.239-1.303-0.552-2.789-0.924c-2.006-0.504-3.389-0.943-4.164-1.308c-0.777-0.372-1.363-0.884-1.76-1.534
			c-0.398-0.651-0.598-1.368-0.598-2.158c0-0.718,0.166-1.381,0.49-1.992c0.332-0.611,0.777-1.122,1.342-1.526
			c0.426-0.312,1.01-0.579,1.74-0.791c0.73-0.22,1.514-0.332,2.35-0.332c1.27,0,2.377,0.186,3.334,0.552
			c0.957,0.357,1.66,0.855,2.111,1.474c0.453,0.624,0.771,1.454,0.943,2.497l-2.67,0.358c-0.119-0.824-0.479-1.475-1.055-1.939
			c-0.578-0.465-1.4-0.696-2.465-0.696c-1.248,0-2.145,0.205-2.682,0.623c-0.531,0.412-0.797,0.896-0.797,1.454
			c0,0.353,0.105,0.671,0.332,0.957c0.219,0.292,0.57,0.531,1.043,0.724c0.271,0.105,1.074,0.332,2.41,0.697
			c1.926,0.519,3.279,0.937,4.037,1.269c0.764,0.325,1.367,0.804,1.793,1.434c0.438,0.625,0.656,1.402,0.656,2.332
			c0,0.908-0.264,1.766-0.797,2.569c-0.529,0.803-1.293,1.421-2.295,1.865c-1.004,0.438-2.133,0.658-3.395,0.658
			c-2.092,0-3.686-0.433-4.781-1.302C360.018,431.422,359.328,430.134,359.021,428.427z"/>
		<path fill="#1D1D1B" d="M399.084,433.229v-3.107h3.107v3.107H399.084z"/>
		<path fill="#1D1D1B" d="M430.492,433.229v-13.972h-2.41v-2.125h2.41v-1.714c0-1.081,0.1-1.879,0.287-2.41
			c0.266-0.703,0.73-1.275,1.395-1.719c0.656-0.439,1.58-0.659,2.775-0.659c0.77,0,1.621,0.094,2.551,0.273l-0.412,2.377
			c-0.566-0.099-1.104-0.146-1.607-0.146c-0.824,0-1.414,0.173-1.754,0.524c-0.346,0.358-0.518,1.016-0.518,1.992v1.48h3.135v2.125
			h-3.135v13.972H430.492z"/>
		<path fill="#1D1D1B" d="M464.633,433.229v-16.097h2.449v2.444c0.631-1.143,1.201-1.9,1.732-2.258
			c0.531-0.366,1.117-0.552,1.754-0.552c0.916,0,1.854,0.299,2.803,0.883l-0.943,2.53c-0.664-0.392-1.328-0.591-1.992-0.591
			c-0.598,0-1.137,0.18-1.607,0.538c-0.479,0.358-0.816,0.855-1.021,1.493c-0.301,0.971-0.453,2.032-0.453,3.182v8.427H464.633z"/>
	</g>
	<rect x="21.192" y="378.305" fill="#E42320" width="459.557" height="7.93"/>
	<path fill="#ADACAC" d="M242.858,70.051v33.998c0,0-31.163,3.401-31.163,33.428c0,30.028,29.463,29.471,29.463,29.471
		l-18.699,64.598h-47.599l24.364-46.47c0,0-22.665-12.464-22.665-52.127C176.561,93.279,208.86,70.051,242.858,70.051z"/>
	<path fill="#ADACAC" d="M258.723,70.051v33.998c0,0,31.171,3.401,31.171,33.428c0,30.028-29.472,29.471-29.472,29.471
		l18.701,64.598h47.598l-24.363-46.47c0,0,22.663-12.464,22.663-52.127C325.021,93.279,292.722,70.051,258.723,70.051z"/>
	<g>
		<g>
			<path fill="#1D1D1B" d="M485.379,274.928v-8.565h3.804c0.757,0,1.335,0.078,1.733,0.231s0.718,0.425,0.955,0.817
				c0.24,0.385,0.359,0.816,0.359,1.287c0,0.612-0.199,1.122-0.591,1.534c-0.397,0.419-1.002,0.685-1.826,0.798
				c0.306,0.14,0.525,0.284,0.685,0.424c0.332,0.306,0.644,0.685,0.942,1.142l1.487,2.332h-1.427l-1.13-1.787
				c-0.332-0.512-0.604-0.902-0.822-1.181c-0.214-0.267-0.4-0.459-0.571-0.572c-0.174-0.106-0.339-0.185-0.519-0.226
				c-0.126-0.026-0.339-0.04-0.631-0.04h-1.315v3.806H485.379z M486.513,270.14h2.438c0.518,0,0.924-0.053,1.215-0.159
				c0.292-0.105,0.518-0.279,0.671-0.512c0.146-0.232,0.22-0.498,0.22-0.771c0-0.404-0.146-0.743-0.433-1.002
				c-0.298-0.26-0.763-0.393-1.394-0.393h-2.717V270.14z"/>
		</g>
		<g>
			<path fill="#1D1D1B" d="M488.513,278.168c-4.217,0-7.644-3.427-7.644-7.644c0-4.216,3.427-7.643,7.644-7.643
				c4.216,0,7.643,3.427,7.643,7.643C496.155,274.741,492.729,278.168,488.513,278.168z M488.513,263.871
				c-3.666,0-6.647,2.988-6.647,6.653c0,3.66,2.981,6.647,6.647,6.647c3.665,0,6.646-2.987,6.646-6.647
				C495.159,266.859,492.178,263.871,488.513,263.871z"/>
		</g>
	</g>
</g>
</svg>
