<?xml version="1.0" encoding="utf-8"?>
<!-- Generator: Adobe Illustrator 21.0.2, SVG Export Plug-In . SVG Version: 6.00 Build 0)  -->
<svg version="1.1" id="Calque_1" xmlns="http://www.w3.org/2000/svg" xmlns:xlink="http://www.w3.org/1999/xlink" x="0px" y="0px"
	 viewBox="0 0 500 396" style="enable-background:new 0 0 500 396;" xml:space="preserve">
<style type="text/css">
	.st0{fill:#1D1D1B;}
	.st1{fill:#E42320;}
	.st2{fill:#ADACAC;}
</style>
<path class="st0" d="M98.1,294.4l-20.6-22.6H44.3v-12.5h43.1c5.2,0,9-1.4,11.6-4.2c2.6-2.8,3.9-6.8,3.9-12.1s-1.4-9.2-4.1-11.8
	c-2.7-2.6-6.5-3.9-11.5-3.9H36.5v67.2H22.4v-81.4h64.9c4.6,0,8.8,0.7,12.4,2.1c3.7,1.4,6.8,3.3,9.3,5.9s4.5,5.7,5.8,9.4
	c1.3,3.6,2,7.8,2,12.3c0,6.8-1.5,12.5-4.4,17.1s-13.6,7.9-18.9,9.9l24.5,24.7L98.1,294.4L98.1,294.4z"/>
<path class="st0" d="M179.5,294.4c-5.7,0-10.9-1.1-15.7-3.2c-4.8-2.1-9-5-12.5-8.7s-6.3-8.1-8.3-13.2s-3-10.6-3-16.5
	c0-6,1-11.4,3-16.3s4.7-9.1,8.3-12.6c3.5-3.5,7.7-6.1,12.5-8s10.1-2.9,15.7-2.9h19.8c5.9,0,11.3,1,16.2,2.9s9.1,4.7,12.6,8.2
	s6.2,7.7,8.2,12.6c1.9,4.9,2.9,10.3,2.9,16.2c0,5.9-1,11.4-3,16.5s-4.7,9.5-8.3,13.2c-3.5,3.7-7.7,6.6-12.6,8.7
	c-4.9,2.1-10.2,3.2-16,3.2L179.5,294.4L179.5,294.4z M199.4,280.2c3.7,0,7.2-0.7,10.3-2s5.8-3.2,8.1-5.5c2.3-2.3,4-5.2,5.3-8.4
	c1.3-3.3,1.9-6.8,1.9-10.6c0-3.8-0.6-7.3-1.9-10.6c-1.3-3.2-3-6-5.3-8.3c-2.3-2.3-5-4.1-8.1-5.4c-3.1-1.3-6.6-2-10.3-2h-19.8
	c-3.7,0-7,0.7-10.1,2s-5.8,3.1-8,5.4s-4,5.1-5.3,8.3c-1.3,3.2-1.9,6.7-1.9,10.6c0,3.8,0.6,7.4,1.9,10.6c1.3,3.3,3,6.1,5.3,8.4
	c2.2,2.4,4.9,4.2,8,5.5c3.1,1.4,6.5,2,10.1,2H199.4z"/>
<path class="st0" d="M264.5,234.9v59.5H251v-73.9c0-2.6,0.7-4.7,2-6.2s3.1-2.3,5.3-2.3c1,0,2.1,0.2,3,0.7c1,0.5,2,1.2,3,2.2l57.4,57
	v-59.5h13.5v74.5c0,2.7-0.7,4.8-2,6.3c-1.3,1.5-3,2.2-5.1,2.2c-2.3,0-4.5-1-6.5-3L264.5,234.9z"/>
<path class="st0" d="M356.6,294.4V213h14.2v81.4H356.6z"/>
<path class="st0" d="M393.3,294.4v-14.2h61c3.8,0,6.7-1,8.8-2.9s3.1-4.5,3.1-7.7c0-3.5-1-6.1-3.1-7.9c-2.1-1.7-5-2.6-8.8-2.6H417
	c-3.8,0-7.3-0.6-10.4-1.7s-5.7-2.7-7.8-4.8c-2.1-2-3.8-4.5-4.9-7.3c-1.2-2.8-1.7-5.9-1.7-9.3c0-3.3,0.5-6.3,1.6-9.1
	c1.1-2.8,2.7-5.2,4.8-7.2c2.1-2,4.8-3.6,7.9-4.8c3.1-1.2,6.7-1.7,10.7-1.7h58.4v14.2h-58.4c-3.3,0-5.8,0.9-7.6,2.6
	c-1.8,1.7-2.7,4.2-2.7,7.3c0,3.1,0.9,5.6,2.7,7.3c1.8,1.7,4.3,2.6,7.4,2.6h37.3c8.3,0,14.6,1.9,18.9,5.8c4.3,3.9,6.4,9.8,6.4,17.7
	c0,3.4-0.5,6.6-1.6,9.5c-1,2.9-2.6,5.4-4.7,7.6c-2.1,2.1-4.7,3.8-7.9,5c-3.2,1.2-6.9,1.8-11.1,1.8L393.3,294.4L393.3,294.4z"/>
<path class="st0" d="M34,381.2l-4.9-16.1h2.8l2.6,9.3l1,3.5c0-0.2,0.3-1.3,0.8-3.3l2.6-9.4h2.8l2.4,9.3l0.8,3.1l0.9-3.1l2.8-9.3h2.6
	l-5,16.1h-2.8l-2.6-9.6l-0.6-2.7l-3.3,12.4H34V381.2z"/>
<path class="st0" d="M82.2,381.2l-4.9-16.1h2.8l2.6,9.3l1,3.5c0-0.2,0.3-1.3,0.8-3.3l2.6-9.4h2.8l2.4,9.3l0.8,3.1l0.9-3.1l2.8-9.3
	h2.6l-5,16.1h-2.8l-2.6-9.6l-0.6-2.7l-3.3,12.4h-2.9V381.2z"/>
<path class="st0" d="M130.1,381.2l-4.9-16.1h2.8l2.6,9.3l1,3.5c0-0.2,0.3-1.3,0.8-3.3l2.6-9.4h2.8l2.4,9.3l0.8,3.1l0.9-3.1l2.8-9.3
	h2.6l-5,16.1h-2.8l-2.6-9.6l-0.6-2.7l-3.3,12.4h-2.9V381.2z"/>
<path class="st0" d="M176.7,381.2v-3.1h3.1v3.1H176.7z"/>
<path class="st0" d="M208.8,381.2v-16.1h2.5v2.4c0.6-1.1,1.2-1.9,1.7-2.3c0.5-0.4,1.1-0.6,1.7-0.6c0.9,0,1.9,0.3,2.8,0.9l-0.9,2.5
	c-0.7-0.4-1.3-0.6-2-0.6c-0.6,0-1.1,0.2-1.6,0.5c-0.5,0.4-0.8,0.9-1,1.5c-0.3,1-0.5,2-0.5,3.2v8.4L208.8,381.2L208.8,381.2z"/>
<path class="st0" d="M242.8,373.2c0-3,0.8-5.2,2.5-6.6c1.4-1.2,3.1-1.8,5.1-1.8c2.2,0,4,0.7,5.4,2.2c1.4,1.4,2.1,3.5,2.1,6
	c0,2.1-0.3,3.7-0.9,4.9s-1.5,2.1-2.7,2.8s-2.5,1-3.9,1c-2.3,0-4.1-0.7-5.5-2.2C243.5,378,242.8,375.9,242.8,373.2z M245.6,373.2
	c0,2.1,0.4,3.6,1.3,4.6c0.9,1,2,1.5,3.4,1.5s2.5-0.5,3.4-1.5c0.9-1,1.4-2.6,1.4-4.7c0-2-0.5-3.5-1.4-4.5c-0.9-1-2-1.5-3.4-1.5
	s-2.5,0.5-3.4,1.5C246,369.6,245.6,371.1,245.6,373.2z"/>
<path class="st0" d="M286.9,381.2v-16.1h2.5v2.3c1.2-1.8,2.9-2.7,5.1-2.7c1,0,1.9,0.2,2.7,0.5c0.8,0.4,1.4,0.8,1.8,1.4
	c0.4,0.6,0.7,1.2,0.8,2c0.1,0.5,0.2,1.4,0.2,2.7v9.9h-2.7v-9.8c0-1.1-0.1-1.9-0.3-2.5s-0.6-1-1.1-1.3s-1.2-0.5-1.9-0.5
	c-1.2,0-2.2,0.4-3,1.1s-1.3,2.1-1.3,4.2v8.8L286.9,381.2L286.9,381.2z"/>
<path class="st0" d="M329.7,362.1V359h2.7v3.1H329.7z M329.7,381.2v-16.1h2.7v16.1H329.7z"/>
<path class="st0" d="M359,376.4l2.7-0.4c0.2,1.1,0.6,1.9,1.3,2.5s1.7,0.9,2.9,0.9c1.2,0,2.2-0.3,2.8-0.8c0.6-0.5,0.9-1.1,0.9-1.8
	c0-0.6-0.3-1.1-0.8-1.5c-0.4-0.2-1.3-0.6-2.8-0.9c-2-0.5-3.4-0.9-4.2-1.3c-0.8-0.4-1.4-0.9-1.8-1.5c-0.4-0.7-0.6-1.4-0.6-2.2
	c0-0.7,0.2-1.4,0.5-2c0.3-0.6,0.8-1.1,1.3-1.5c0.4-0.3,1-0.6,1.7-0.8c0.7-0.2,1.5-0.3,2.4-0.3c1.3,0,2.4,0.2,3.3,0.6
	c1,0.4,1.7,0.9,2.1,1.5c0.5,0.6,0.8,1.5,0.9,2.5l-2.7,0.4c-0.1-0.8-0.5-1.5-1.1-1.9c-0.6-0.5-1.4-0.7-2.5-0.7
	c-1.2,0-2.1,0.2-2.7,0.6c-0.5,0.4-0.8,0.9-0.8,1.5c0,0.4,0.1,0.7,0.3,1c0.2,0.3,0.6,0.5,1,0.7c0.3,0.1,1.1,0.3,2.4,0.7
	c1.9,0.5,3.3,0.9,4,1.3c0.8,0.3,1.4,0.8,1.8,1.4c0.4,0.6,0.7,1.4,0.7,2.3c0,0.9-0.3,1.8-0.8,2.6s-1.3,1.4-2.3,1.9
	c-1,0.4-2.1,0.7-3.4,0.7c-2.1,0-3.7-0.4-4.8-1.3C360,379.4,359.3,378.1,359,376.4z"/>
<path class="st0" d="M399.1,381.2v-3.1h3.1v3.1H399.1z"/>
<path class="st0" d="M430.5,381.2v-14h-2.4v-2.1h2.4v-1.7c0-1.1,0.1-1.9,0.3-2.4c0.3-0.7,0.7-1.3,1.4-1.7c0.7-0.4,1.6-0.7,2.8-0.7
	c0.8,0,1.6,0.1,2.6,0.3l-0.4,2.4c-0.6-0.1-1.1-0.1-1.6-0.1c-0.8,0-1.4,0.2-1.8,0.5c-0.3,0.4-0.5,1-0.5,2v1.5h3.1v2.1h-3.1v14
	L430.5,381.2L430.5,381.2z"/>
<path class="st0" d="M464.6,381.2v-16.1h2.4v2.4c0.6-1.1,1.2-1.9,1.7-2.3c0.5-0.4,1.1-0.6,1.8-0.6c0.9,0,1.9,0.3,2.8,0.9l-0.9,2.5
	c-0.7-0.4-1.3-0.6-2-0.6c-0.6,0-1.1,0.2-1.6,0.5c-0.5,0.4-0.8,0.9-1,1.5c-0.3,1-0.5,2-0.5,3.2v8.4L464.6,381.2L464.6,381.2z"/>
<rect x="21.2" y="326.3" class="st1" width="459.6" height="7.9"/>
<path class="st2" d="M242.9,18v34c0,0-31.2,3.4-31.2,33.4s29.5,29.5,29.5,29.5l-18.7,64.6h-47.6l24.4-46.5c0,0-22.7-12.5-22.7-52.1
	C176.6,41.3,208.9,18,242.9,18z"/>
<path class="st2" d="M258.7,18v34c0,0,31.2,3.4,31.2,33.4s-29.5,29.5-29.5,29.5l18.7,64.6h47.6l-24.3-46.4c0,0,22.7-12.5,22.7-52.1
	C325,41.3,292.7,18,258.7,18z"/>
<path class="st0" d="M485.4,222.9v-8.6h3.8c0.8,0,1.3,0.1,1.7,0.2s0.7,0.4,1,0.8c0.2,0.4,0.4,0.8,0.4,1.3c0,0.6-0.2,1.1-0.6,1.5
	s-1,0.7-1.8,0.8c0.3,0.1,0.5,0.3,0.7,0.4c0.3,0.3,0.6,0.7,0.9,1.1l1.5,2.3h-1.4l-1.1-1.8c-0.3-0.5-0.6-0.9-0.8-1.2
	c-0.2-0.3-0.4-0.5-0.6-0.6s-0.3-0.2-0.5-0.2c-0.1,0-0.3,0-0.6,0h-1.3v3.8L485.4,222.9L485.4,222.9z M486.5,218.1h2.4
	c0.5,0,0.9-0.1,1.2-0.2c0.3-0.1,0.5-0.3,0.7-0.5c0.1-0.2,0.2-0.5,0.2-0.8c0-0.4-0.1-0.7-0.4-1s-0.8-0.4-1.4-0.4h-2.7V218.1
	L486.5,218.1z"/>
<path class="st0" d="M488.5,226.2c-4.2,0-7.6-3.4-7.6-7.6s3.4-7.6,7.6-7.6s7.6,3.4,7.6,7.6C496.2,222.7,492.7,226.2,488.5,226.2z
	 M488.5,211.9c-3.7,0-6.6,3-6.6,6.7s3,6.6,6.6,6.6c3.7,0,6.6-3,6.6-6.6C495.2,214.8,492.2,211.9,488.5,211.9z"/>
</svg>
