<?xml version="1.0" encoding="utf-8"?>
<!-- Generator: Adobe Illustrator 15.0.0, SVG Export Plug-In . SVG Version: 6.00 Build 0)  -->
<!DOCTYPE svg PUBLIC "-//W3C//DTD SVG 1.1//EN" "http://www.w3.org/Graphics/SVG/1.1/DTD/svg11.dtd">
<svg version="1.1" id="Calque_1" xmlns="http://www.w3.org/2000/svg" xmlns:xlink="http://www.w3.org/1999/xlink" x="0px" y="0px"
	 width="500px" height="500px" viewBox="0 0 500 500" enable-background="new 0 0 500 500" xml:space="preserve">
<g>
	<path fill="#26377E" d="M75.776,264.037c-4.031,0.309-6.54,0.461-7.522,0.461c-2.331,0-4.336-0.535-6.016-1.611
		c-1.685-1.07-3.89-3.207-6.635-6.42c-5.223-6.131-10.01-12.84-14.357-20.142c9.103-1.527,13.659-5.383,13.659-11.562
		c0-2.651-0.925-4.809-2.761-6.462c-1.832-1.659-4.226-2.493-7.171-2.493c-1.606,0-3.528,0.207-5.748,0.614v37.279
		c0,2.96,0.1,4.902,0.31,5.826c0.467,2.084,1.58,3.591,3.338,4.51H27.352c1.758-0.924,2.872-2.426,3.338-4.53
		c0.205-0.919,0.31-2.871,0.31-5.838v-32.64c0-2.968-0.105-4.911-0.31-5.832c-0.466-2.103-1.58-3.609-3.338-4.533h11.874
		c0.824,0,2.042,0,3.648,0c1.607,0,2.819,0,3.649,0c5.223,0,9.259,1.05,12.11,3.142c3.617,2.651,5.427,6.1,5.427,10.338
		c0,3.113-1.238,5.958-3.722,8.536c-2.489,2.58-5.668,4.354-9.548,5.32c6.104,8.121,10.981,14.068,14.625,17.843
		C69.068,259.627,72.521,262.352,75.776,264.037z"/>
	<path fill="#26377E" d="M133.289,237.005c0,7.934-2.94,14.649-8.808,20.124c-5.875,5.48-13.029,8.215-21.46,8.215
		c-8.331,0-15.396-2.688-21.186-8.068c-5.801-5.375-8.693-11.924-8.693-19.653c0-8.04,2.96-14.774,8.882-20.199
		c5.931-5.426,13.287-8.142,22.084-8.142c8.383,0,15.338,2.661,20.877,7.987c2.587,2.459,4.618,5.454,6.094,8.989
		C132.553,229.788,133.289,233.37,133.289,237.005z M123.976,238.349c0-6.289-1.869-11.654-5.59-16.1
		c-3.933-4.704-9.076-7.052-15.444-7.052c-6,0-10.928,1.955-14.787,5.866c-3.854,3.908-5.78,9.005-5.78,15.292
		c0,6.646,2.2,12.37,6.599,17.173c3.675,4.037,8.462,6.058,14.357,6.058c6.104,0,11.071-1.969,14.903-5.905
		C122.06,249.748,123.976,244.64,123.976,238.349z"/>
	<path fill="#26377E" d="M178.538,248.451c0,4.095-1.68,7.748-5.044,10.977c-4.194,4-9.911,5.994-17.156,5.994
		c-4.913,0-9.726-0.845-14.435-2.535l-2.483-10.062c5.533,4.305,11.539,6.451,18.005,6.451c3.465,0,6.378-0.787,8.729-2.384
		c2.357-1.58,3.533-3.553,3.533-5.91c0-2.257-0.903-4.171-2.719-5.753c-1.543-1.342-5.055-3.229-10.51-5.69
		c-5.458-2.454-9.228-4.604-11.296-6.446c-2.845-2.562-4.267-5.685-4.267-9.373c0-4.352,1.853-7.832,5.547-10.444
		c3.701-2.611,8.651-3.916,14.867-3.916c4.084,0,8.252,0.585,12.493,1.763v9.218c-3.674-3.532-7.995-5.299-12.965-5.299
		c-3.203,0-5.806,0.706-7.796,2.11c-1.989,1.41-2.986,3.242-2.986,5.494c0,1.997,0.788,3.672,2.362,5.029
		c1.58,1.357,4.829,3.16,9.743,5.417c5.848,2.659,9.827,4.834,11.948,6.528C177.062,241.921,178.538,244.866,178.538,248.451z"/>
	<path fill="#26377E" d="M223.551,248.451c0,4.095-1.685,7.748-5.044,10.977c-4.189,4-9.912,5.994-17.156,5.994
		c-4.913,0-9.727-0.845-14.436-2.535l-2.478-10.062c5.533,4.305,11.533,6.451,18.005,6.451c3.464,0,6.373-0.787,8.729-2.384
		c2.357-1.58,3.533-3.553,3.533-5.91c0-2.257-0.903-4.171-2.719-5.753c-1.554-1.342-5.055-3.229-10.521-5.69
		c-5.453-2.454-9.218-4.604-11.286-6.446c-2.85-2.562-4.272-5.685-4.272-9.373c0-4.352,1.847-7.832,5.553-10.444
		c3.696-2.611,8.651-3.916,14.856-3.916c4.089,0,8.252,0.585,12.499,1.763v9.218c-3.668-3.532-7.995-5.299-12.96-5.299
		c-3.208,0-5.806,0.706-7.801,2.11c-1.995,1.41-2.986,3.242-2.986,5.494c0,1.997,0.782,3.672,2.368,5.029
		c1.575,1.357,4.818,3.16,9.743,5.417c5.842,2.659,9.827,4.834,11.947,6.528C222.075,241.921,223.551,244.866,223.551,248.451z"/>
	<path fill="#26377E" d="M306.364,262.966c-0.619,0.048-1.58,0.199-2.872,0.462c-6.313,1.271-11.9,1.916-16.766,1.916
		c-8.798,0-16.011-1.89-21.654-5.68c-7.868-5.276-11.794-12.602-11.794-21.969c0-9.47,4.188-16.997,12.571-22.577
		c5.796-3.84,12.882-5.758,21.266-5.758c3.979,0,8.299,0.459,12.961,1.38v9.294c-3.523-3.276-8.384-4.916-14.588-4.916
		c-6.678,0-12.163,2.023-16.457,6.068c-4.3,4.044-6.441,9.189-6.441,15.433c0,6.352,2.326,11.775,6.987,16.242
		c4.65,4.482,10.268,6.724,16.84,6.724c4.504,0,8.252-0.535,11.249-1.617v-10.747c0-2.969-0.104-4.916-0.304-5.835
		c-0.469-2.102-1.58-3.614-3.339-4.536h12.341c-0.32,0.979-0.468,2.564-0.468,4.764v17.199
		C305.896,260.661,306.044,262.037,306.364,262.966z"/>
	<path fill="#26377E" d="M369.688,210.664c-1.754,1.126-2.919,2.317-3.486,3.57c-0.572,1.257-0.861,3.239-0.861,5.952v46.464
		c-3.978-1.28-7.727-4.12-11.238-8.524l-28.729-36.019v32.407c0,2.661,0.305,4.65,0.897,5.947c0.599,1.312,1.723,2.504,3.376,3.575
		h-14.588c1.753-1.124,2.918-2.31,3.49-3.575c0.566-1.249,0.85-3.233,0.85-5.947v-34.329c0-2.661-0.293-4.646-0.887-5.952
		c-0.604-1.302-1.726-2.494-3.38-3.57h11.952c0.11,0.307,0.756,1.305,1.942,2.995l30.342,38.241v-31.714
		c0-2.661-0.294-4.632-0.882-5.911c-0.594-1.283-1.754-2.485-3.465-3.611H369.688z"/>
	<path fill="#26377E" d="M435.504,237.005c0,7.934-2.935,14.649-8.804,20.124c-5.88,5.48-13.029,8.215-21.464,8.215
		c-8.331,0-15.397-2.688-21.188-8.068c-5.801-5.375-8.688-11.924-8.688-19.653c0-8.04,2.95-14.774,8.882-20.199
		c5.922-5.426,13.286-8.142,22.079-8.142c8.389,0,15.339,2.661,20.876,7.987c2.588,2.459,4.62,5.454,6.1,8.989
		C434.769,229.788,435.504,233.37,435.504,237.005z M426.191,238.349c0-6.289-1.863-11.654-5.591-16.1
		c-3.927-4.704-9.076-7.052-15.443-7.052c-5.995,0-10.935,1.955-14.782,5.866c-3.853,3.908-5.784,9.005-5.784,15.292
		c0,6.646,2.198,12.37,6.598,17.173c3.675,4.037,8.463,6.058,14.361,6.058c6.101,0,11.072-1.969,14.904-5.905
		C424.28,249.748,426.191,244.64,426.191,238.349z"/>
	<path fill="#26377E" d="M480.517,253.286l-4.347,10.751h-33.448c1.752-0.924,2.871-2.426,3.332-4.53
		c0.21-0.919,0.316-2.871,0.316-5.838v-32.64c0-2.968-0.106-4.911-0.316-5.832c-0.461-2.103-1.58-3.609-3.332-4.533h15.521
		c-1.758,0.924-2.871,2.43-3.338,4.533c-0.21,0.921-0.311,2.864-0.311,5.832v36.404c3.828,0.562,7.502,0.846,11.023,0.846
		c2.945,0,5.497-0.356,7.645-1.076C475.409,256.494,477.823,255.181,480.517,253.286z"/>
	<path fill="#26377E" d="M243.619,259.507c-0.199-0.919-0.304-2.871-0.304-5.838v-20.291c-1.333,0.389-2.719,0.664-4.179,0.664
		c-1.412,0-2.75-0.257-4.053-0.625v20.251c0,2.967-0.104,4.919-0.304,5.838c-0.473,2.104-1.58,3.606-3.339,4.53h15.517
		C245.204,263.113,244.091,261.611,243.619,259.507z"/>
	<path fill="#E42324" d="M249.073,219.071c0,5.488-4.446,9.937-9.938,9.937c-5.49,0-9.937-4.449-9.937-9.937
		c0-5.489,4.446-9.938,9.937-9.938C244.627,209.134,249.073,213.583,249.073,219.071z"/>
	<g>
		<path fill="#E4221B" d="M215.388,276.205c-1.029-0.431-2.362-0.651-3.958-0.651h-8.965l1.984,0.919
			c0.462,0.204,0.735,0.551,0.861,1.05c0.037,0.137,0.1,0.535,0.1,1.674v9.922c0,1.134-0.063,1.532-0.1,1.674
			c-0.125,0.494-0.399,0.841-0.861,1.05l-1.984,0.92h9.737l-1.648-0.897c-0.467-0.264-0.793-0.552-0.951-0.861
			c-0.168-0.336-0.256-0.888-0.256-1.622v-4.356l0.204,0.062c0.703,0.241,1.448,0.362,2.236,0.362c1.832,0,3.434-0.494,4.746-1.466
			c1.344-0.997,2.031-2.22,2.031-3.637c0-0.855-0.294-1.665-0.876-2.41C217.12,277.197,216.349,276.614,215.388,276.205z
			 M209.347,284.189v-5.843c0.477-0.073,0.95-0.116,1.422-0.116c1.123,0,2.005,0.236,2.624,0.699c0.61,0.445,0.903,1.06,0.903,1.863
			c0,0.896-0.42,1.643-1.27,2.289c-0.756,0.55-1.879,0.912-3.339,1.07L209.347,284.189z"/>
		<path fill="#E4221B" d="M239.089,289.443c-0.993-1.039-2.327-2.656-3.948-4.824c0.95-0.341,1.769-0.855,2.419-1.548
			c0.84-0.872,1.26-1.864,1.26-2.935c0-1.444-0.62-2.636-1.837-3.533c-0.935-0.692-2.257-1.05-3.931-1.05h-7.738l1.737,0.919
			c0.399,0.204,0.651,0.551,0.761,1.05c0.027,0.137,0.079,0.541,0.079,1.674v9.922c0,1.134-0.052,1.532-0.079,1.674
			c-0.11,0.494-0.362,0.841-0.761,1.05l-1.737,0.92h8.604l-1.744-0.92c-0.393-0.209-0.64-0.556-0.755-1.05
			c-0.032-0.142-0.074-0.535-0.074-1.658v-4.54c1.228,2.041,2.598,3.952,4.062,5.694c0.872,1.024,1.56,1.69,2.11,2.043
			c0.577,0.383,1.281,0.572,2.079,0.572c0.305,0,1.034-0.048,2.294-0.142l1.696-0.132l-1.506-0.788
			C241.152,291.359,240.154,290.551,239.089,289.443z M231.346,283.37v-5.171c1.501-0.226,2.394-0.1,3.065,0.52
			c0.452,0.415,0.671,0.939,0.671,1.611c0,1.617-1.207,2.615-3.705,3.035L231.346,283.37z"/>
		<path fill="#E4221B" d="M286.333,275.554h-10.168l1.742,0.919c0.399,0.204,0.651,0.551,0.756,1.05
			c0.031,0.137,0.085,0.535,0.085,1.674v9.922c0,1.134-0.054,1.532-0.085,1.674c-0.104,0.494-0.356,0.841-0.756,1.05l-1.742,0.92
			h8.609l-1.744-0.92c-0.394-0.209-0.645-0.556-0.756-1.05c-0.031-0.142-0.078-0.535-0.078-1.658v-4.294h1.712
			c0.787,0,1.316,0.163,1.543,0.462l0.882,1.165v-4.84l-0.698,0.32c-0.163,0.079-0.378,0.126-0.636,0.126h-2.803v-3.689
			c0.593-0.074,1.296-0.105,2.084-0.105c0.672,0,1.176,0.041,1.496,0.115c0.389,0.121,0.782,0.362,1.16,0.709l0.819,0.766v-4.656
			l-0.646,0.227C286.895,275.518,286.632,275.554,286.333,275.554z"/>
		<path fill="#E4221B" d="M301.025,289.989c-0.829,0-1.685-0.062-2.551-0.188v-4.961h1.712c0.535,0,1.243,0.084,1.548,0.468
			l0.866,1.107v-4.788l-0.683,0.32c-0.168,0.079-0.378,0.126-0.635,0.126h-2.809v-3.695c0.571-0.068,1.26-0.1,2.063-0.1
			c0.845,0,1.271,0.079,1.501,0.147c0.404,0.104,0.798,0.335,1.176,0.697l0.818,0.798v-4.709l-0.65,0.227
			c-0.215,0.079-0.473,0.115-0.767,0.115h-10.169l1.733,0.919c0.404,0.204,0.65,0.551,0.761,1.044
			c0.037,0.179,0.085,0.62,0.085,1.68v9.901c0,1.07-0.048,1.517-0.085,1.694c-0.11,0.494-0.356,0.841-0.761,1.05l-1.733,0.92h12.589
			l1.806-5.087l-1.297,0.986C304.386,289.543,302.874,289.989,301.025,289.989z"/>
		<path fill="#E4221B" d="M347.897,284.467c-0.825-0.546-2.299-1.218-4.515-2.047c-2.174-0.824-3.076-1.307-3.443-1.569
			c-0.452-0.326-0.678-0.703-0.678-1.166c0-0.535,0.273-0.935,0.855-1.27c0.62-0.373,1.476-0.558,2.52-0.558
			c1.69,0,3.108,0.483,4.357,1.471l1.023,0.809v-4.326l-0.451-0.1c-1.596-0.372-3.196-0.556-4.745-0.556
			c-2.41,0-4.368,0.43-5.812,1.28c-1.527,0.887-2.304,2.095-2.304,3.574c0,1.255,0.598,2.337,1.763,3.208
			c0.824,0.609,2.231,1.27,4.315,2.048c2.42,0.897,3.365,1.391,3.722,1.647c0.541,0.389,0.787,0.846,0.787,1.386
			c0,0.552-0.325,1.008-1.023,1.402c-0.766,0.419-1.732,0.64-2.887,0.64c-2.221,0-4.325-0.629-6.257-1.863l-1.345-0.866l1.386,4.678
			l0.305,0.094c1.79,0.53,3.643,0.799,5.512,0.799c2.819,0,5.077-0.662,6.729-1.959c1.35-1.071,2.037-2.31,2.037-3.689
			C349.75,286.294,349.12,285.26,347.897,284.467z"/>
		<path fill="#E4221B" d="M326.848,284.467c-0.824-0.546-2.3-1.218-4.515-2.047c-2.174-0.824-3.077-1.307-3.443-1.569
			c-0.451-0.326-0.678-0.703-0.678-1.166c0-0.535,0.273-0.935,0.856-1.27c0.618-0.373,1.475-0.558,2.52-0.558
			c1.689,0,3.107,0.483,4.356,1.471l1.024,0.809v-4.326l-0.452-0.1c-1.597-0.372-3.197-0.556-4.746-0.556
			c-2.408,0-4.367,0.43-5.811,1.28c-1.527,0.887-2.304,2.095-2.304,3.574c0,1.255,0.598,2.337,1.764,3.208
			c0.824,0.609,2.231,1.27,4.314,2.048c2.42,0.897,3.364,1.391,3.723,1.647c0.539,0.389,0.787,0.846,0.787,1.386
			c0,0.552-0.326,1.008-1.024,1.402c-0.767,0.419-1.732,0.64-2.888,0.64c-2.22,0-4.325-0.629-6.257-1.863l-1.343-0.866l1.385,4.678
			l0.306,0.094c1.79,0.53,3.643,0.799,5.512,0.799c2.818,0,5.075-0.662,6.729-1.959c1.349-1.071,2.036-2.31,2.036-3.689
			C328.7,286.294,328.07,285.26,326.848,284.467z"/>
		<path fill="#E4221B" d="M360.501,277.522c0.109-0.499,0.368-0.846,0.755-1.05l1.749-0.919h-8.604l1.737,0.919
			c0.404,0.21,0.646,0.551,0.756,1.055c0.026,0.132,0.073,0.536,0.073,1.669v9.922c0,1.134-0.047,1.532-0.073,1.674
			c-0.109,0.494-0.352,0.841-0.756,1.05l-1.737,0.92h8.604l-1.749-0.92c-0.387-0.209-0.646-0.556-0.755-1.054
			c-0.038-0.164-0.073-0.589-0.073-1.67v-9.922C360.428,278.115,360.463,277.69,360.501,277.522z"/>
		<path fill="#E4221B" d="M388.852,277.695c-2.235-1.701-5.07-2.562-8.43-2.562c-3.527,0-6.514,0.871-8.893,2.599
			c-2.378,1.742-3.585,3.932-3.585,6.509c0,2.478,1.181,4.609,3.528,6.331c2.319,1.717,5.19,2.583,8.535,2.583
			c3.375,0,6.277-0.883,8.64-2.63c2.362-1.754,3.56-3.932,3.56-6.474c0-1.165-0.294-2.324-0.882-3.459
			C390.731,279.465,389.897,278.494,388.852,277.695z M380.128,290.431c-2.095,0-3.748-0.546-5.05-1.685
			c-1.569-1.355-2.362-3.004-2.362-4.894c0-1.801,0.667-3.207,2.037-4.31s3.076-1.638,5.223-1.638c2.273,0,4.043,0.641,5.438,1.969
			c1.323,1.255,1.989,2.803,1.989,4.582c0,1.801-0.646,3.219-2.015,4.336C384.028,289.896,382.308,290.431,380.128,290.431z"/>
		<path fill="#E4221B" d="M268.354,277.695c-2.236-1.701-5.071-2.562-8.431-2.562c-3.527,0-6.509,0.871-8.893,2.599
			c-2.373,1.742-3.58,3.932-3.58,6.509c0,2.478,1.176,4.609,3.528,6.331c2.32,1.717,5.187,2.583,8.536,2.583
			c3.37,0,6.277-0.883,8.64-2.63c2.361-1.754,3.559-3.932,3.559-6.474c0-1.165-0.294-2.324-0.881-3.459
			C270.232,279.465,269.404,278.494,268.354,277.695z M259.629,290.431c-2.089,0-3.747-0.546-5.05-1.685
			c-1.563-1.355-2.362-3.004-2.362-4.894c0-1.801,0.672-3.207,2.037-4.31c1.376-1.103,3.076-1.638,5.229-1.638
			c2.268,0,4.042,0.641,5.438,1.969c1.323,1.255,1.983,2.803,1.983,4.582c0,1.801-0.64,3.219-2.015,4.336
			C263.534,289.896,261.813,290.431,259.629,290.431z"/>
		<path fill="#E4221B" d="M411.608,276.446c0.437,0.289,0.72,0.593,0.866,0.893c0.099,0.226,0.221,0.683,0.221,1.601v8.231
			l-8.246-10.499c-0.452-0.641-0.526-0.792-0.526-0.792l-0.11-0.326h-5.569l1.354,0.893c0.415,0.272,0.699,0.566,0.845,0.876
			c0.095,0.227,0.221,0.693,0.221,1.617v10.436c0,0.935-0.11,1.392-0.21,1.611c-0.137,0.295-0.425,0.589-0.866,0.878l-1.396,0.897
			h7.674l-1.37-0.894c-0.414-0.272-0.692-0.572-0.828-0.882c-0.111-0.226-0.231-0.692-0.231-1.611v-8.451l7.778,9.854
			c1.114,1.406,2.337,2.336,3.618,2.75l0.635,0.21v-14.798c0-0.944,0.12-1.401,0.221-1.617c0.136-0.288,0.425-0.587,0.866-0.876
			l1.38-0.893h-7.669L411.608,276.446z"/>
		<path fill="#E4221B" d="M436.064,276.446c0.427,0.289,0.72,0.593,0.867,0.893c0.099,0.226,0.22,0.683,0.22,1.601v8.231
			l-8.246-10.499c-0.451-0.641-0.525-0.792-0.525-0.792l-0.11-0.326H422.7l1.354,0.893c0.415,0.272,0.698,0.566,0.846,0.876
			c0.094,0.227,0.219,0.693,0.219,1.617v10.436c0,0.935-0.109,1.392-0.209,1.611c-0.137,0.295-0.426,0.589-0.877,0.878l-1.38,0.897
			h7.669l-1.37-0.894c-0.414-0.272-0.692-0.572-0.829-0.882c-0.11-0.226-0.23-0.692-0.23-1.611v-8.451l7.778,9.854
			c1.113,1.406,2.336,2.336,3.618,2.75l0.635,0.21v-14.798c0-0.944,0.109-1.401,0.21-1.617c0.131-0.288,0.425-0.587,0.877-0.876
			l1.379-0.893h-7.669L436.064,276.446z"/>
		<path fill="#E4221B" d="M456.668,289.989c-0.818,0-1.674-0.062-2.556-0.188v-4.961h1.711c0.551,0,1.261,0.084,1.564,0.468
			l0.866,1.107v-4.788l-0.692,0.32c-0.174,0.079-0.384,0.126-0.636,0.126h-2.813v-3.695c0.578-0.068,1.271-0.1,2.068-0.1
			c0.839,0,1.28,0.079,1.512,0.147c0.403,0.104,0.782,0.335,1.161,0.697l0.828,0.798v-4.709l-0.656,0.227
			c-0.21,0.079-0.467,0.115-0.771,0.115h-10.162l1.732,0.919c0.403,0.21,0.65,0.551,0.761,1.05c0.036,0.173,0.084,0.614,0.084,1.674
			v9.901c0,1.07-0.048,1.512-0.084,1.694c-0.11,0.494-0.357,0.841-0.761,1.05l-1.732,0.92h12.593l1.795-5.087l-1.291,0.986
			C460.027,289.543,458.512,289.989,456.668,289.989z"/>
		<path fill="#E4221B" d="M479.157,288.608c-0.772,0.546-1.465,0.925-2.063,1.124c-1.233,0.419-3.092,0.356-4.976,0.11v-10.646
			c0-1.081,0.052-1.506,0.089-1.674c0.11-0.499,0.352-0.846,0.756-1.05l1.732-0.919h-8.598l1.736,0.919
			c0.399,0.21,0.646,0.551,0.756,1.055c0.036,0.132,0.085,0.536,0.085,1.669v9.922c0,1.134-0.049,1.532-0.085,1.674
			c-0.109,0.494-0.356,0.841-0.756,1.05l-1.736,0.92h12.361l2.042-5.113L479.157,288.608z"/>
	</g>
	<rect x="24.223" y="274.557" fill="#E4221B" width="170.667" height="18.813"/>
</g>
</svg>
