<?xml version="1.0" encoding="utf-8"?>
<!-- Generator: Adobe Illustrator 19.1.0, SVG Export Plug-In . SVG Version: 6.00 Build 0)  -->
<svg version="1.1" id="Calque_1" xmlns="http://www.w3.org/2000/svg" xmlns:xlink="http://www.w3.org/1999/xlink" x="0px" y="0px"
	 viewBox="-345 170.9 500 500" style="enable-background:new -345 170.9 500 500;" xml:space="preserve">
<style type="text/css">
	.st0{fill:#26377E;}
	.st1{fill:#E42324;}
	.st2{fill:#E4221B;}
</style>
<path class="st0" d="M-269.2,434.9c-4,0.3-6.5,0.5-7.5,0.5c-2.3,0-4.3-0.5-6-1.6c-1.7-1.1-3.9-3.2-6.6-6.4
	c-5.2-6.1-10-12.8-14.4-20.1c9.1-1.5,13.7-5.4,13.7-11.6c0-2.7-0.9-4.8-2.8-6.5c-1.8-1.7-4.2-2.5-7.2-2.5c-1.6,0-3.5,0.2-5.7,0.6
	v37.3c0,3,0.1,4.9,0.3,5.8c0.5,2.1,1.6,3.6,3.3,4.5h-15.5c1.8-0.9,2.9-2.4,3.3-4.5c0.2-0.9,0.3-2.9,0.3-5.8v-32.6
	c0-3-0.1-4.9-0.3-5.8c-0.5-2.1-1.6-3.6-3.3-4.5h11.9c0.8,0,2,0,3.6,0c1.6,0,2.8,0,3.6,0c5.2,0,9.3,1.1,12.1,3.1
	c3.6,2.7,5.4,6.1,5.4,10.3c0,3.1-1.2,6-3.7,8.5c-2.5,2.6-5.7,4.4-9.5,5.3c6.1,8.1,11,14.1,14.6,17.8
	C-275.9,430.5-272.5,433.2-269.2,434.9z"/>
<path class="st0" d="M-211.7,407.9c0,7.9-2.9,14.6-8.8,20.1c-5.9,5.5-13,8.2-21.5,8.2c-8.3,0-15.4-2.7-21.2-8.1
	c-5.8-5.4-8.7-11.9-8.7-19.7c0-8,3-14.8,8.9-20.2c5.9-5.4,13.3-8.1,22.1-8.1c8.4,0,15.3,2.7,20.9,8c2.6,2.5,4.6,5.5,6.1,9
	C-212.4,400.7-211.7,404.3-211.7,407.9z M-221,409.2c0-6.3-1.9-11.7-5.6-16.1c-3.9-4.7-9.1-7.1-15.4-7.1c-6,0-10.9,2-14.8,5.9
	c-3.9,3.9-5.8,9-5.8,15.3c0,6.6,2.2,12.4,6.6,17.2c3.7,4,8.5,6.1,14.4,6.1c6.1,0,11.1-2,14.9-5.9C-222.9,420.6-221,415.5-221,409.2z
	"/>
<path class="st0" d="M-166.5,419.3c0,4.1-1.7,7.7-5,11c-4.2,4-9.9,6-17.2,6c-4.9,0-9.7-0.8-14.4-2.5l-2.5-10.1
	c5.5,4.3,11.5,6.5,18,6.5c3.5,0,6.4-0.8,8.7-2.4c2.4-1.6,3.5-3.6,3.5-5.9c0-2.3-0.9-4.2-2.7-5.8c-1.5-1.3-5.1-3.2-10.5-5.7
	c-5.5-2.5-9.2-4.6-11.3-6.4c-2.8-2.6-4.3-5.7-4.3-9.4c0-4.4,1.9-7.8,5.5-10.4c3.7-2.6,8.7-3.9,14.9-3.9c4.1,0,8.3,0.6,12.5,1.8v9.2
	c-3.7-3.5-8-5.3-13-5.3c-3.2,0-5.8,0.7-7.8,2.1c-2,1.4-3,3.2-3,5.5c0,2,0.8,3.7,2.4,5c1.6,1.4,4.8,3.2,9.7,5.4
	c5.8,2.7,9.8,4.8,11.9,6.5C-167.9,412.8-166.5,415.8-166.5,419.3z"/>
<path class="st0" d="M-121.4,419.3c0,4.1-1.7,7.7-5,11c-4.2,4-9.9,6-17.2,6c-4.9,0-9.7-0.8-14.4-2.5l-2.5-10.1
	c5.5,4.3,11.5,6.5,18,6.5c3.5,0,6.4-0.8,8.7-2.4c2.4-1.6,3.5-3.6,3.5-5.9c0-2.3-0.9-4.2-2.7-5.8c-1.6-1.3-5.1-3.2-10.5-5.7
	c-5.5-2.5-9.2-4.6-11.3-6.4c-2.9-2.6-4.3-5.7-4.3-9.4c0-4.4,1.8-7.8,5.6-10.4c3.7-2.6,8.7-3.9,14.9-3.9c4.1,0,8.3,0.6,12.5,1.8v9.2
	c-3.7-3.5-8-5.3-13-5.3c-3.2,0-5.8,0.7-7.8,2.1c-2,1.4-3,3.2-3,5.5c0,2,0.8,3.7,2.4,5c1.6,1.4,4.8,3.2,9.7,5.4
	c5.8,2.7,9.8,4.8,11.9,6.5C-122.9,412.8-121.4,415.8-121.4,419.3z"/>
<path class="st0" d="M-38.6,433.9c-0.6,0-1.6,0.2-2.9,0.5c-6.3,1.3-11.9,1.9-16.8,1.9c-8.8,0-16-1.9-21.7-5.7
	c-7.9-5.3-11.8-12.6-11.8-22c0-9.5,4.2-17,12.6-22.6c5.8-3.8,12.9-5.8,21.3-5.8c4,0,8.3,0.5,13,1.4v9.3c-3.5-3.3-8.4-4.9-14.6-4.9
	c-6.7,0-12.2,2-16.5,6.1c-4.3,4-6.4,9.2-6.4,15.4c0,6.4,2.3,11.8,7,16.2c4.6,4.5,10.3,6.7,16.8,6.7c4.5,0,8.3-0.5,11.2-1.6v-10.7
	c0-3-0.1-4.9-0.3-5.8c-0.5-2.1-1.6-3.6-3.3-4.5h12.3c-0.3,1-0.5,2.6-0.5,4.8v17.2C-39.1,431.6-39,432.9-38.6,433.9z"/>
<path class="st0" d="M24.7,381.6c-1.8,1.1-2.9,2.3-3.5,3.6c-0.6,1.3-0.9,3.2-0.9,6v46.5c-4-1.3-7.7-4.1-11.2-8.5l-28.7-36v32.4
	c0,2.7,0.3,4.6,0.9,5.9c0.6,1.3,1.7,2.5,3.4,3.6h-14.6c1.8-1.1,2.9-2.3,3.5-3.6c0.6-1.2,0.9-3.2,0.9-5.9v-34.3c0-2.7-0.3-4.6-0.9-6
	c-0.6-1.3-1.7-2.5-3.4-3.6h12c0.1,0.3,0.8,1.3,1.9,3l30.3,38.2v-31.7c0-2.7-0.3-4.6-0.9-5.9c-0.6-1.3-1.8-2.5-3.5-3.6L24.7,381.6
	L24.7,381.6z"/>
<path class="st0" d="M90.5,407.9c0,7.9-2.9,14.6-8.8,20.1c-5.9,5.5-13,8.2-21.5,8.2c-8.3,0-15.4-2.7-21.2-8.1
	c-5.8-5.4-8.7-11.9-8.7-19.7c0-8,3-14.8,8.9-20.2c5.9-5.4,13.3-8.1,22.1-8.1c8.4,0,15.3,2.7,20.9,8c2.6,2.5,4.6,5.5,6.1,9
	C89.8,400.7,90.5,404.3,90.5,407.9z M81.2,409.2c0-6.3-1.9-11.7-5.6-16.1c-3.9-4.7-9.1-7.1-15.4-7.1c-6,0-10.9,2-14.8,5.9
	c-3.9,3.9-5.8,9-5.8,15.3c0,6.6,2.2,12.4,6.6,17.2c3.7,4,8.5,6.1,14.4,6.1c6.1,0,11.1-2,14.9-5.9C79.3,420.6,81.2,415.5,81.2,409.2z
	"/>
<path class="st0" d="M135.5,424.2l-4.3,10.8H97.7c1.8-0.9,2.9-2.4,3.3-4.5c0.2-0.9,0.3-2.9,0.3-5.8v-32.6c0-3-0.1-4.9-0.3-5.8
	c-0.5-2.1-1.6-3.6-3.3-4.5h15.5c-1.8,0.9-2.9,2.4-3.3,4.5c-0.2,0.9-0.3,2.9-0.3,5.8v36.4c3.8,0.6,7.5,0.8,11,0.8
	c2.9,0,5.5-0.4,7.6-1.1C130.4,427.4,132.8,426.1,135.5,424.2z"/>
<path class="st0" d="M-101.4,430.4c-0.2-0.9-0.3-2.9-0.3-5.8v-20.3c-1.3,0.4-2.7,0.7-4.2,0.7c-1.4,0-2.8-0.3-4.1-0.6v20.3
	c0,3-0.1,4.9-0.3,5.8c-0.5,2.1-1.6,3.6-3.3,4.5H-98C-99.8,434-100.9,432.5-101.4,430.4z"/>
<path class="st1" d="M-95.9,390c0,5.5-4.4,9.9-9.9,9.9c-5.5,0-9.9-4.4-9.9-9.9c0-5.5,4.4-9.9,9.9-9.9
	C-100.4,380-95.9,384.5-95.9,390z"/>
<path class="st2" d="M-129.6,447.1c-1-0.4-2.4-0.7-4-0.7h-9l2,0.9c0.5,0.2,0.7,0.6,0.9,1c0,0.1,0.1,0.5,0.1,1.7v9.9
	c0,1.1-0.1,1.5-0.1,1.7c-0.1,0.5-0.4,0.8-0.9,1l-2,0.9h9.7l-1.6-0.9c-0.5-0.3-0.8-0.6-1-0.9c-0.2-0.3-0.3-0.9-0.3-1.6v-4.4l0.2,0.1
	c0.7,0.2,1.4,0.4,2.2,0.4c1.8,0,3.4-0.5,4.7-1.5c1.3-1,2-2.2,2-3.6c0-0.9-0.3-1.7-0.9-2.4C-127.9,448.1-128.7,447.5-129.6,447.1z
	 M-135.7,455.1v-5.8c0.5-0.1,0.9-0.1,1.4-0.1c1.1,0,2,0.2,2.6,0.7c0.6,0.4,0.9,1.1,0.9,1.9c0,0.9-0.4,1.6-1.3,2.3
	c-0.8,0.5-1.9,0.9-3.3,1.1L-135.7,455.1z"/>
<path class="st2" d="M-105.9,460.3c-1-1-2.3-2.7-3.9-4.8c0.9-0.3,1.8-0.9,2.4-1.5c0.8-0.9,1.3-1.9,1.3-2.9c0-1.4-0.6-2.6-1.8-3.5
	c-0.9-0.7-2.3-1-3.9-1h-7.7l1.7,0.9c0.4,0.2,0.7,0.6,0.8,1c0,0.1,0.1,0.5,0.1,1.7v9.9c0,1.1-0.1,1.5-0.1,1.7c-0.1,0.5-0.4,0.8-0.8,1
	l-1.7,0.9h8.6l-1.7-0.9c-0.4-0.2-0.6-0.6-0.8-1c0-0.1-0.1-0.5-0.1-1.7v-4.5c1.2,2,2.6,4,4.1,5.7c0.9,1,1.6,1.7,2.1,2
	c0.6,0.4,1.3,0.6,2.1,0.6c0.3,0,1,0,2.3-0.1l1.7-0.1l-1.5-0.8C-103.8,462.2-104.8,461.4-105.9,460.3z M-113.7,454.3v-5.2
	c1.5-0.2,2.4-0.1,3.1,0.5c0.5,0.4,0.7,0.9,0.7,1.6C-109.9,452.8-111.1,453.8-113.7,454.3L-113.7,454.3z"/>
<path class="st2" d="M-58.7,446.4h-10.2l1.7,0.9c0.4,0.2,0.7,0.6,0.8,1c0,0.1,0.1,0.5,0.1,1.7v9.9c0,1.1-0.1,1.5-0.1,1.7
	c-0.1,0.5-0.4,0.8-0.8,1l-1.7,0.9h8.6l-1.7-0.9c-0.4-0.2-0.6-0.6-0.8-1c0-0.1-0.1-0.5-0.1-1.7v-4.3h1.7c0.8,0,1.3,0.2,1.5,0.5
	l0.9,1.2v-4.8l-0.7,0.3c-0.2,0.1-0.4,0.1-0.6,0.1h-2.8v-3.7c0.6-0.1,1.3-0.1,2.1-0.1c0.7,0,1.2,0,1.5,0.1c0.4,0.1,0.8,0.4,1.2,0.7
	l0.8,0.8v-4.7l-0.6,0.2C-58.1,446.4-58.4,446.4-58.7,446.4z"/>
<path class="st2" d="M-44,460.9c-0.8,0-1.7-0.1-2.6-0.2v-5h1.7c0.5,0,1.2,0.1,1.5,0.5l0.9,1.1v-4.8l-0.7,0.3
	c-0.2,0.1-0.4,0.1-0.6,0.1h-2.8v-3.7c0.6-0.1,1.3-0.1,2.1-0.1c0.8,0,1.3,0.1,1.5,0.1c0.4,0.1,0.8,0.3,1.2,0.7l0.8,0.8v-4.7l-0.6,0.2
	c-0.2,0.1-0.5,0.1-0.8,0.1h-10.2l1.7,0.9c0.4,0.2,0.6,0.6,0.8,1c0,0.2,0.1,0.6,0.1,1.7v9.9c0,1.1,0,1.5-0.1,1.7
	c-0.1,0.5-0.4,0.8-0.8,1l-1.7,0.9H-40l1.8-5.1l-1.3,1C-40.6,460.4-42.1,460.9-44,460.9z"/>
<path class="st2" d="M2.9,455.4c-0.8-0.5-2.3-1.2-4.5-2c-2.2-0.8-3.1-1.3-3.4-1.6c-0.5-0.3-0.7-0.7-0.7-1.2c0-0.5,0.3-0.9,0.9-1.3
	c0.6-0.4,1.5-0.6,2.5-0.6c1.7,0,3.1,0.5,4.4,1.5l1,0.8v-4.3l-0.5-0.1C1,446.2-0.6,446-2.2,446c-2.4,0-4.4,0.4-5.8,1.3
	c-1.5,0.9-2.3,2.1-2.3,3.6c0,1.3,0.6,2.3,1.8,3.2c0.8,0.6,2.2,1.3,4.3,2c2.4,0.9,3.4,1.4,3.7,1.6c0.5,0.4,0.8,0.8,0.8,1.4
	c0,0.6-0.3,1-1,1.4c-0.8,0.4-1.7,0.6-2.9,0.6c-2.2,0-4.3-0.6-6.3-1.9l-1.3-0.9l1.4,4.7l0.3,0.1c1.8,0.5,3.6,0.8,5.5,0.8
	c2.8,0,5.1-0.7,6.7-2c1.4-1.1,2-2.3,2-3.7C4.8,457.2,4.1,456.2,2.9,455.4z"/>
<path class="st2" d="M-18.2,455.4c-0.8-0.5-2.3-1.2-4.5-2c-2.2-0.8-3.1-1.3-3.4-1.6c-0.5-0.3-0.7-0.7-0.7-1.2c0-0.5,0.3-0.9,0.9-1.3
	c0.6-0.4,1.5-0.6,2.5-0.6c1.7,0,3.1,0.5,4.4,1.5l1,0.8v-4.3l-0.5-0.1c-1.6-0.4-3.2-0.6-4.7-0.6c-2.4,0-4.4,0.4-5.8,1.3
	c-1.5,0.9-2.3,2.1-2.3,3.6c0,1.3,0.6,2.3,1.8,3.2c0.8,0.6,2.2,1.3,4.3,2c2.4,0.9,3.4,1.4,3.7,1.6c0.5,0.4,0.8,0.8,0.8,1.4
	c0,0.6-0.3,1-1,1.4c-0.8,0.4-1.7,0.6-2.9,0.6c-2.2,0-4.3-0.6-6.3-1.9l-1.3-0.9l1.4,4.7l0.3,0.1c1.8,0.5,3.6,0.8,5.5,0.8
	c2.8,0,5.1-0.7,6.7-2c1.3-1.1,2-2.3,2-3.7C-16.3,457.2-16.9,456.2-18.2,455.4z"/>
<path class="st2" d="M15.5,448.4c0.1-0.5,0.4-0.8,0.8-1l1.7-0.9H9.4l1.7,0.9c0.4,0.2,0.6,0.6,0.8,1.1c0,0.1,0.1,0.5,0.1,1.7v9.9
	c0,1.1,0,1.5-0.1,1.7c-0.1,0.5-0.4,0.8-0.8,1l-1.7,0.9H18l-1.7-0.9c-0.4-0.2-0.6-0.6-0.8-1.1c0-0.2-0.1-0.6-0.1-1.7v-9.9
	C15.4,449,15.5,448.6,15.5,448.4z"/>
<path class="st2" d="M43.9,448.6c-2.2-1.7-5.1-2.6-8.4-2.6c-3.5,0-6.5,0.9-8.9,2.6c-2.4,1.7-3.6,3.9-3.6,6.5c0,2.5,1.2,4.6,3.5,6.3
	c2.3,1.7,5.2,2.6,8.5,2.6c3.4,0,6.3-0.9,8.6-2.6c2.4-1.8,3.6-3.9,3.6-6.5c0-1.2-0.3-2.3-0.9-3.5C45.7,450.4,44.9,449.4,43.9,448.6z
	 M35.1,461.3c-2.1,0-3.7-0.5-5-1.7c-1.6-1.4-2.4-3-2.4-4.9c0-1.8,0.7-3.2,2-4.3s3.1-1.6,5.2-1.6c2.3,0,4,0.6,5.4,2
	c1.3,1.3,2,2.8,2,4.6c0,1.8-0.6,3.2-2,4.3C39,460.8,37.3,461.3,35.1,461.3z"/>
<path class="st2" d="M-76.6,448.6c-2.2-1.7-5.1-2.6-8.4-2.6c-3.5,0-6.5,0.9-8.9,2.6c-2.4,1.7-3.6,3.9-3.6,6.5c0,2.5,1.2,4.6,3.5,6.3
	c2.3,1.7,5.2,2.6,8.5,2.6c3.4,0,6.3-0.9,8.6-2.6c2.4-1.8,3.6-3.9,3.6-6.5c0-1.2-0.3-2.3-0.9-3.5C-74.8,450.4-75.6,449.4-76.6,448.6z
	 M-85.4,461.3c-2.1,0-3.7-0.5-5.1-1.7c-1.6-1.4-2.4-3-2.4-4.9c0-1.8,0.7-3.2,2-4.3c1.4-1.1,3.1-1.6,5.2-1.6c2.3,0,4,0.6,5.4,2
	c1.3,1.3,2,2.8,2,4.6c0,1.8-0.6,3.2-2,4.3C-81.5,460.8-83.2,461.3-85.4,461.3z"/>
<path class="st2" d="M66.6,447.3c0.4,0.3,0.7,0.6,0.9,0.9c0.1,0.2,0.2,0.7,0.2,1.6v8.2l-8.2-10.5c-0.5-0.6-0.5-0.8-0.5-0.8l-0.1-0.3
	h-5.6l1.4,0.9c0.4,0.3,0.7,0.6,0.8,0.9c0.1,0.2,0.2,0.7,0.2,1.6v10.4c0,0.9-0.1,1.4-0.2,1.6c-0.1,0.3-0.4,0.6-0.9,0.9l-1.4,0.9h7.7
	l-1.4-0.9c-0.4-0.3-0.7-0.6-0.8-0.9c-0.1-0.2-0.2-0.7-0.2-1.6v-8.5l7.8,9.9c1.1,1.4,2.3,2.3,3.6,2.8l0.6,0.2v-14.8
	c0-0.9,0.1-1.4,0.2-1.6c0.1-0.3,0.4-0.6,0.9-0.9l1.4-0.9h-7.7L66.6,447.3z"/>
<path class="st2" d="M91.1,447.3c0.4,0.3,0.7,0.6,0.9,0.9c0.1,0.2,0.2,0.7,0.2,1.6v8.2l-8.2-10.5c-0.5-0.6-0.5-0.8-0.5-0.8l-0.1-0.3
	h-5.6l1.4,0.9c0.4,0.3,0.7,0.6,0.8,0.9c0.1,0.2,0.2,0.7,0.2,1.6v10.4c0,0.9-0.1,1.4-0.2,1.6c-0.1,0.3-0.4,0.6-0.9,0.9l-1.4,0.9h7.7
	l-1.4-0.9c-0.4-0.3-0.7-0.6-0.8-0.9c-0.1-0.2-0.2-0.7-0.2-1.6v-8.5l7.8,9.9c1.1,1.4,2.3,2.3,3.6,2.8l0.6,0.2v-14.8
	c0-0.9,0.1-1.4,0.2-1.6c0.1-0.3,0.4-0.6,0.9-0.9l1.4-0.9h-7.7L91.1,447.3z"/>
<path class="st2" d="M111.7,460.9c-0.8,0-1.7-0.1-2.6-0.2v-5h1.7c0.6,0,1.3,0.1,1.6,0.5l0.9,1.1v-4.8l-0.7,0.3
	c-0.2,0.1-0.4,0.1-0.6,0.1h-2.8v-3.7c0.6-0.1,1.3-0.1,2.1-0.1c0.8,0,1.3,0.1,1.5,0.1c0.4,0.1,0.8,0.3,1.2,0.7l0.8,0.8v-4.7l-0.7,0.2
	c-0.2,0.1-0.5,0.1-0.8,0.1h-10.2l1.7,0.9c0.4,0.2,0.6,0.6,0.8,1c0,0.2,0.1,0.6,0.1,1.7v9.9c0,1.1,0,1.5-0.1,1.7
	c-0.1,0.5-0.4,0.8-0.8,1l-1.7,0.9h12.6l1.8-5.1l-1.3,1C115,460.4,113.5,460.9,111.7,460.9z"/>
<path class="st2" d="M134.2,459.5c-0.8,0.5-1.5,0.9-2.1,1.1c-1.2,0.4-3.1,0.4-5,0.1v-10.6c0-1.1,0.1-1.5,0.1-1.7
	c0.1-0.5,0.4-0.8,0.8-1l1.7-0.9h-8.6l1.7,0.9c0.4,0.2,0.6,0.6,0.8,1.1c0,0.1,0.1,0.5,0.1,1.7v9.9c0,1.1,0,1.5-0.1,1.7
	c-0.1,0.5-0.4,0.8-0.8,1l-1.7,0.9h12.4l2-5.1L134.2,459.5z"/>
<rect x="-320.8" y="445.4" class="st2" width="170.7" height="18.8"/>
</svg>
