<?xml version="1.0" encoding="utf-8"?>
<!-- Generator: Adobe Illustrator 19.1.0, SVG Export Plug-In . SVG Version: 6.00 Build 0)  -->
<svg version="1.1" id="Calque_1" xmlns="http://www.w3.org/2000/svg" xmlns:xlink="http://www.w3.org/1999/xlink" x="0px" y="0px"
	 viewBox="-345 170.9 500 500" style="enable-background:new -345 170.9 500 500;" xml:space="preserve">
<style type="text/css">
	.st0{fill:#7A0000;}
	.st1{fill:#FFFFFF;}
	.st2{fill:#FF0000;}
</style>
<polygon class="st0" points="-295.6,393.9 -295.6,423.3 -329.2,423.3 "/>
<polygon class="st1" points="-329.2,423.3 -329.2,393.9 -295.6,393.9 "/>
<rect x="-326" y="396.7" class="st2" width="27.3" height="23.9"/>
<polygon class="st0" points="-262,393.9 -262,423.3 -295.6,423.3 "/>
<polygon class="st1" points="-295.6,423.3 -295.6,393.9 -262,393.9 "/>
<rect x="-292.5" y="396.7" class="st2" width="27.3" height="23.9"/>
<polygon class="st0" points="-295.6,423.2 -295.6,452.6 -329.2,452.6 "/>
<polygon class="st1" points="-329.2,452.6 -329.2,423.2 -295.6,423.2 "/>
<rect x="-326" y="426" class="st2" width="27.3" height="23.9"/>
<polygon class="st0" points="-262,423.2 -262,452.6 -295.6,452.6 "/>
<polygon class="st1" points="-295.6,452.6 -295.6,423.2 -262,423.2 "/>
<rect x="-292.5" y="426" class="st2" width="27.3" height="23.9"/>
<path d="M-215.4,418.9c2.1-3.2,5.1-16.9-4.9-22.4c-10.3-4.7-25.4-2.3-29.8-2v58.9h0.6c2.2-0.1,6.8-0.4,13.4-0.8v-23.5l0-0.1
	c1.8,0,11,20.3,12.2,23c4.8-0.3,10.2-0.6,16-0.9l-14.5-25.6C-220.5,423.8-217.8,422.4-215.4,418.9z M-228.2,416.5
	c-1.1,1.3-2.8,1.9-5,1.9h-3v-12.7h3.7c2,0,3.5,0.5,4.5,1.5c1,1,1.5,2.5,1.5,4.5C-226.5,413.6-227.1,415.2-228.2,416.5z"/>
<path d="M-187.2,450c1.4,0,2.6-0.1,3.9-0.2c-1.5,0.1-2.9,0.1-4.3,0.2C-187.5,450-187.3,450-187.2,450z"/>
<path d="M-166.8,432.4v-34.6c-5.1,0-10-0.1-14.5-0.2v34.1c0,2.6-0.5,4.6-1.4,5.9c-0.9,1.3-2.4,2-4.3,2c-1.8,0-3.2-0.7-4.1-2.2
	c-0.9-1.4-1.4-3.6-1.4-6.4v-33.5c-5.2-0.1-10-0.2-14.5-0.4v35.3c0,5.8,1.7,10.2,5.2,13.2c3.4,2.9,8.1,4.4,14.1,4.4
	c1.4-0.1,2.9-0.1,4.3-0.2c4.6-0.5,8.3-2,11.2-4.4C-168.6,442.3-166.8,438-166.8,432.4z"/>
<path d="M-147.3,449.2c2.3-0.1,4.5-0.5,6.5-1.2c-4.8,0.2-9.6,0.4-14.2,0.6C-152.3,449.1-149.7,449.4-147.3,449.2z"/>
<path d="M-126.9,430.8c-0.1-3.7-1.2-6.5-3.4-8.6c-2.2-2-5.5-3.8-9.8-5.3c-2.6-0.9-4.4-1.8-5.3-2.6c-1-0.8-1.5-1.8-1.4-3
	c0-1.2,0.6-2.2,1.9-3c1.2-0.8,2.6-1.3,4.3-1.3c3.3,0,6.4,1,8.2,2.4l1.8-9.4c-3.2-1.3-6.3-2.1-9.4-2.3c-1.4,0-2.8,0-4.2,0
	c-4.4,0.3-8.1,1.6-11.1,4c-3.5,2.7-5.3,6.1-5.5,10.1c-0.1,3.2,1.2,9.1,3.3,11.2c2.1,2.1,5.3,3.9,9.4,5.5c2.9,1.2,4.9,2.2,5.9,3.2
	c1,1,0.5,3.2-1,4.4c-1.5,1.2-3.3,1.9-5.4,2c-4.1,0.2-6.7-0.8-9.7-3.4l-3.9,11.5c2.4,1,4.8,1.7,7.1,2.2c4.7-0.2,9.4-0.4,14.2-0.6
	c3.1-1,5.8-2.6,8.2-4.8C-128.7,439.6-126.8,435.5-126.9,430.8z"/>
<path d="M-142.1,397.7c-0.7,0-1.4,0-2.1,0.1c1.4,0,2.7,0,4.2,0C-140.7,397.7-141.4,397.7-142.1,397.7z"/>
<path d="M-87,409.1v-11.4h-36.1l-3.6,11.4h11.7v38.1c4.6-0.1,9.3-0.3,13.9-0.4v-37.7L-87,409.1L-87,409.1z"/>
<rect x="-96" y="418.7" width="14.6" height="9.4"/>
<path d="M-53.9,446.2c7.2,0,13.1-2.2,17.6-6.7c4.5-4.5,6.8-10.5,6.8-18.1c0-7.5-2.3-13.5-6.8-17.8c-4.5-4.3-10.7-6.5-18.4-6.5
	c-3.9,0-7.7,1-11.3,3c-3.6,2-6.4,4.9-8.4,8.7c-2,3.8-3,8.2-3,13c0,7,2,12.8,6.1,17.4C-67.2,443.8-61.4,446.2-53.9,446.2z M-60,410.9
	c1.6-2.6,3.9-3.9,6.9-3.9c2.3,0,4.3,1.2,5.9,3.7c1.6,2.5,2.5,6,2.5,10.6c0,4.4-0.8,8-2.5,10.6c-1.6,2.7-3.8,4-6.5,4
	c-2.7,0-4.9-1.3-6.4-3.9c-1.6-2.6-2.3-6.1-2.3-10.7C-62.4,417-61.6,413.5-60,410.9z"/>
<polygon points="2.6,435.6 -10.5,435.6 -10.5,396.6 -24.4,396.6 -24.4,446.2 -0.1,446.2 "/>
<path d="M20.4,436.4v-8.8h13.3v-10.9H20.4v-7.8h13.3v-12.1l-27.2-0.1v50.2c8.9,0.2,17.7,0.4,26.3,0.7l4.5-11.2L20.4,436.4
	L20.4,436.4z"/>
<path d="M81.8,431.5v-34.6l-14.4,0v34c0,2.5-0.5,4.5-1.4,5.7c-0.9,1.3-2.3,1.9-4.2,1.9c-1.8,0-3.2-0.7-4.1-2.1
	c-0.9-1.4-1.4-3.5-1.4-6.3v-33.3l-14.4,0v34.7c0,5.7,1.7,10,5.2,12.9c2.4,2,5.5,3.3,9.3,3.9c2.7,0.1,5.3,0.2,7.9,0.3
	c5.1-0.4,9.2-1.8,12.2-4.4C80.1,441.2,81.8,437,81.8,431.5z"/>
<path d="M142.3,397.1l-16.9,0l-8.1,33.2l-9.5-33.2l-16.8,0l-3.3,52.7c4.1,0.2,8,0.4,11.8,0.5c0.4-5.8,2.1-28.9,1.8-33.1l8.1,33.5
	c4.4,0.2,8.5,0.4,12.4,0.6l9.5-34c-0.4,4.9-0.3,31.5-0.3,34.5c5.7,0.3,10.6,0.6,14.3,0.8L142.3,397.1z"/>
</svg>
