<?xml version="1.0" encoding="utf-8"?>
<!-- Generator: Adobe Illustrator 15.0.0, SVG Export Plug-In . SVG Version: 6.00 Build 0)  -->
<!DOCTYPE svg PUBLIC "-//W3C//DTD SVG 1.1//EN" "http://www.w3.org/Graphics/SVG/1.1/DTD/svg11.dtd">
<svg version="1.1" id="Calque_1" xmlns="http://www.w3.org/2000/svg" xmlns:xlink="http://www.w3.org/1999/xlink" x="0px" y="0px"
	 width="500px" height="500px" viewBox="0 0 500 500" enable-background="new 0 0 500 500" xml:space="preserve">
<g>
	<rect x="26.433" y="45.712" fill="#2488FF" width="450" height="251.697"/>
	<g>
		<path fill="#FFFFFF" d="M236.815,137.661H224.74h-17.796l-44.916,117.374h17.796l20.23-52.864l-3.705,52.864h17.797l3.663-52.276
			c7.01-5.241,30.447-24.191,30.447-43.382C248.256,136.814,236.815,137.661,236.815,137.661z M227.916,170.024
			c-3.496,12.553-12.077,16.654-18.591,18.591l-4.044-0.105l11.627-30.381C220.614,157.468,231.36,157.659,227.916,170.024z"/>
		<polygon fill="#FFFFFF" points="360.913,159.377 368.859,139.356 350.585,139.356 332.788,139.356 324.526,159.377 
			324.791,159.377 286.708,254.717 304.823,254.717 304.886,254.559 323.255,254.559 331.199,234.537 312.828,234.537 
			324.112,206.094 339.939,206.094 347.884,186.072 332.054,186.072 342.643,159.377 		"/>
		<polygon fill="#FFFFFF" points="305.458,139.356 263.551,212.846 278.128,139.356 258.742,139.356 239.675,254.717 
			255.246,254.717 324.844,139.356 		"/>
	</g>
	<g>
		<path fill="#2488FF" d="M307.994,338.353c-7.367-0.228-17.253-0.477-25.204-0.477c-10.66,0-14.484,10.484-14.521,10.59
			c-0.796,2.34-20.075,58.885-26.913,73.412c-2.437,5.181-6.325,8.736-11.242,10.283c-2.019,0.634-4.057,0.887-6.024,0.887
			c-7.294,0.002-13.624-3.486-14.489-3.984l-0.996-0.572l-0.698-0.912c-0.051-0.068-5.481-7.123-15.68-17.729
			c-5.825-6.059-8.681-12.387-8.49-18.809c0.164-5.494,2.663-10.746,7.038-14.784l0.171-0.151l11.441-9.746
			c9.204-8.089,6.303-13.6,5.822-14.369c-0.871-1.172-9.972-13.437-16.01-21.487c-1.839-2.404-5.438-6.46-8.646-6.039
			c-3.976,0.506-8.064,7.097-9.41,10.188c-1.048,2.997-14.596,41.746-20.637,61.073c-3.734,11.949-8.431,17.676-13.783,20.374
			c-2.098,1.809-4.427,3.009-6.743,3.769H93.384c-5.616,0-10.169,4.554-10.169,10.17c0,5.615,4.554,10.169,10.169,10.169h178.813
			c5.616,0,10.17-4.554,10.17-10.169c0-5.616-4.554-10.17-10.17-10.17h-2.733c-1.282-4.231-1.447-7.824-0.957-10.83
			c3.254-1.111,5.596-4.186,5.596-7.814c0-0.791-0.131-1.546-0.34-2.268c1.425-1.396,2.729-2.243,3.348-2.606h12.034
			c4.563,0,8.263-3.699,8.263-8.263s-3.699-8.263-8.263-8.263h-3.417c-0.132-0.424-0.261-0.865-0.383-1.323
			c-0.684-6.184-0.123-10.846,1.214-14.325c0.791-0.937,1.371-2.051,1.684-3.275c2.776-4.137,6.902-5.861,10.58-6.5h6.425
			c0.394,0,0.777-0.037,1.157-0.09c0.337,0.051,0.537,0.09,0.537,0.09s-0.133-0.039-0.37-0.115c3.932-0.636,6.938-4.035,6.938-8.147
			C313.51,342.538,311.206,339.485,307.994,338.353z"/>
		<path fill="#2488FF" d="M314.57,305.884H135.757c-5.616,0-10.169,4.554-10.169,10.169c0,5.616,4.553,10.17,10.169,10.17h1.326
			c1.302,5.225,1.92,15.028-7.39,24.363h-9.615c-4.563,0-8.263,3.699-8.263,8.263s3.699,8.263,8.263,8.263h3.04
			c1.074,3.651,1.369,8.198-0.71,13.136c-3.529,8.382-6.141,11.554-9.427,12.713h-7.309c-4.563,0-8.263,3.699-8.263,8.263
			c0,2.222,0.881,4.235,2.309,5.721h24.599c0.697,0,1.389,0.009,2.073,0.019c7.692,0.092,11.57,0.152,16.197-14.648
			c6.311-20.2,20.679-61.215,20.823-61.627l0.128-0.331c0.679-1.609,6.967-15.762,18.569-17.24
			c6.761-0.869,13.233,2.662,19.212,10.48c6.396,8.526,16.153,21.676,16.153,21.676c3.578,4.842,6.584,17.274-7.599,29.739
			l-11.412,9.724c-1.468,1.376-3.198,3.628-3.287,6.646c-0.096,3.189,1.738,6.833,5.302,10.538
			c8.511,8.853,13.793,15.274,15.711,17.679c2.341,1.112,7.026,2.759,10.524,1.64c1.165-0.371,2.875-1.214,4.295-4.23
			c6.565-13.954,26.256-71.708,26.455-72.29c0.282-0.803,6.668-18.282,25.33-18.282c6.555,0,14.383,0.167,21.086,0.352
			c0.233-0.188,0.467-0.382,0.699-0.563h9.994c5.616,0,10.17-4.554,10.17-10.17C324.74,310.438,320.186,305.884,314.57,305.884z"/>
	</g>
	<polygon fill="#2488FF" points="292.459,444.541 58.97,444.541 111.143,297.62 95.276,297.62 38.387,457.153 304.048,457.153 
		360.938,297.62 344.633,297.62 	"/>
	<path fill="#FFFFFF" d="M476.433,267.747H371.59l58.25-163.348H164.178l-58.25,163.348H26.433v15.89h73.83l-4.987,13.983h15.867
		l4.966-13.983h233.49l-4.966,13.983h16.305l4.986-13.983h110.509V267.747z M121.751,267.747l51.913-146.188h233.49L355.24,267.747
		H121.751z"/>
</g>
</svg>
