<?xml version="1.0" encoding="utf-8"?>
<!-- Generator: Adobe Illustrator 15.0.0, SVG Export Plug-In . SVG Version: 6.00 Build 0)  -->
<!DOCTYPE svg PUBLIC "-//W3C//DTD SVG 1.1//EN" "http://www.w3.org/Graphics/SVG/1.1/DTD/svg11.dtd">
<svg version="1.1" id="Calque_1" xmlns="http://www.w3.org/2000/svg" xmlns:xlink="http://www.w3.org/1999/xlink" x="0px" y="0px"
	 width="500px" height="500px" viewBox="0 0 500 500" enable-background="new 0 0 500 500" xml:space="preserve">
<g>
	<path d="M45.96,297.571c7.048,4.994,17.669,8.788,29.653,8.788c17.777,0,29.528-9.188,31.576-22.97
		c1.84-12.383-4.253-19.772-21.419-26.564c-20.784-7.989-32.645-19.574-29.855-38.349c3.116-20.973,22.809-36.552,48.974-36.552
		c13.583,0,23.294,3.196,28.582,6.591l-6.9,14.181c-3.809-2.597-12.233-6.392-24.417-6.392c-18.375,0-26.999,10.986-28.364,20.173
		c-1.87,12.583,5.399,18.775,22.907,25.966c21.435,8.988,31.216,19.774,28.278,39.547c-3.086,20.773-20.967,38.949-52.725,38.949
		c-12.983,0-26.571-3.995-33.049-8.789L45.96,297.571z"/>
	<path d="M149.944,320.941c-6.792,0-10.784-5.394-9.715-12.583c1.068-7.191,6.863-12.584,13.854-12.584
		c6.99,0,11.012,5.193,9.914,12.584c-1.068,7.189-6.664,12.583-13.853,12.583H149.944z"/>
	<path d="M204.556,185.919c8.626-1.598,19.79-2.796,33.771-2.796c17.178,0,29.167,3.995,36.088,11.186
		c6.441,6.392,9.58,16.178,7.799,28.163c-1.81,12.184-6.829,21.771-14.859,28.762c-10.642,9.787-26.363,14.78-43.341,14.78
		c-5.193,0-9.958-0.199-13.803-1.199l-8.013,53.93h-17.377L204.556,185.919z M212.318,250.634c3.646,0.999,8.581,1.397,14.173,1.397
		c21.172,0,35.298-10.385,37.999-28.562c2.672-17.976-8.636-26.564-27.811-26.564c-7.59,0-13.5,0.798-16.586,1.398L212.318,250.634z
		"/>
	<path d="M269.602,320.941c-6.791,0-10.783-5.394-9.715-12.583c1.068-7.191,6.862-12.584,13.854-12.584
		c6.99,0,11.012,5.193,9.914,12.584c-1.068,7.189-6.663,12.583-13.854,12.583H269.602z"/>
	<path d="M426.713,259.622c1.792-18.775,3.976-41.545,6.438-58.123h-0.399c-7.107,15.579-15.023,32.557-24.573,51.132
		l-33.475,65.313h-13.183l-12.443-64.114c-3.543-19.175-6.184-36.352-7.604-52.331h-0.4c-2.892,16.777-7.214,39.148-11.44,59.521
		l-12.172,57.724h-16.577l29.39-134.622h22.171l13.295,65.114c3.129,16.579,5.327,31.359,6.846,45.34h0.398
		c5.613-13.582,12.604-28.363,21.118-45.34l33.643-65.114h22.171l-11.614,134.622h-17.177L426.713,259.622z"/>
</g>
</svg>
