<?xml version="1.0" encoding="utf-8"?>
<!-- Generator: Adobe Illustrator 15.0.0, SVG Export Plug-In . SVG Version: 6.00 Build 0)  -->
<!DOCTYPE svg PUBLIC "-//W3C//DTD SVG 1.1//EN" "http://www.w3.org/Graphics/SVG/1.1/DTD/svg11.dtd">
<svg version="1.1" id="Calque_1" xmlns="http://www.w3.org/2000/svg" xmlns:xlink="http://www.w3.org/1999/xlink" x="0px" y="0px"
	 width="500px" height="500px" viewBox="0 0 500 500" enable-background="new 0 0 500 500" xml:space="preserve">
<g>
	<path fill="#1D1D1B" stroke="#1D1D1B" stroke-width="0.6174" stroke-miterlimit="1" d="M475.144,182.672
		c-4.521,0-8.187,4.074-8.161,9.066c0,5.021,3.641,9.069,8.161,9.069c4.494-0.028,8.16-4.048,8.16-9.069
		C483.304,186.747,479.638,182.672,475.144,182.672z M475.144,199.751c-3.997,0.026-7.217-3.568-7.217-7.986
		c-0.025-4.443,3.22-8.036,7.19-8.036c4.001,0,7.239,3.593,7.239,8.01C482.356,196.183,479.118,199.751,475.144,199.751z"/>
	<path fill="#1D1D1B" stroke="#1D1D1B" stroke-width="0.6174" stroke-miterlimit="1" d="M477.791,191.526
		c0.874-0.731,1.23-1.207,1.186-2.494c-0.116-2.26-1.464-2.546-2.863-2.546H472.1v9.987h1.152v-4.288h2.961
		c1.862,0,1.346,1.84,1.533,3.021l0.188,1.268h1.374c-0.501-0.867-0.331-1.082-0.421-2.397
		C478.736,192.342,478.71,192.186,477.791,191.526z M476.139,191.059h-2.887v-3.445h2.887c0.707,0,1.821,0.208,1.652,1.917
		C477.674,190.82,476.916,191.059,476.139,191.059z"/>
</g>
<path fill="#1D1D1B" stroke="#1D1D1B" stroke-width="0.6174" stroke-miterlimit="1" d="M156.919,306.978v-7.647h4.007
	c1.348,0,2.837,0,3.964,0.802c0.992,0.713,1.483,1.885,1.483,3.018c0,0.934-0.312,1.853-0.992,2.565
	c-1.255,1.263-2.7,1.263-4.417,1.263H156.919z M156.919,312.229h4.643c3.283,0,6.125,0.041,8.78-2.02
	c2.294-1.802,3.329-4.572,3.329-7.305c0-2.985-1.391-5.467-4.001-7.19c-2.578-1.645-5.325-1.645-8.343-1.645H149.71v28.833h7.209
	V312.229z"/>
<path fill="#1D1D1B" stroke="#1D1D1B" stroke-width="0.6174" stroke-miterlimit="1" d="M184.981,299.2h3.789
	c1.353,0,3.425-0.169,4.643,0.544c1.037,0.596,1.749,1.813,1.749,2.946c0,1.263-0.629,2.604-1.801,3.277
	c-1.307,0.713-2.927,0.588-4.411,0.588h-3.969V299.2z M184.981,311.519h5.271l4.727,11.385h8.025l-5.717-12.732
	c3.329-1.133,5.361-4.164,5.361-7.436c0-2.815-1.399-5.634-3.926-7.188c-2.382-1.432-5.179-1.478-7.926-1.478h-13.018v28.833h7.203
	V311.519z"/>
<path fill="#1D1D1B" stroke="#1D1D1B" stroke-width="0.6174" stroke-miterlimit="1" d="M218.864,299.161
	c2.253,0,3.556,0.881,4.456,2.811c0.908,1.937,1.133,4.417,1.133,6.515c0,1.893-0.225,4.287-0.951,6.051
	c-0.809,2.148-2.163,3.281-4.638,3.281c-5.089,0-5.679-5.756-5.679-9.371c0-1.812,0.278-4.286,0.998-6.01
	C215.03,300.34,216.384,299.161,218.864,299.161z M218.864,323.33c4.189,0,7.836-1.605,10.233-4.883
	c1.975-2.732,2.919-6.723,2.919-10c0-3.484-1.127-7.563-3.333-10.38c-2.475-3.155-5.727-4.411-9.819-4.411
	c-9.144,0-13.25,7.144-13.25,14.791c0,3.615,0.998,7.358,3.251,10.336C211.293,321.984,214.674,323.33,218.864,323.33z"/>
<path fill="#1D1D1B" stroke="#1D1D1B" stroke-width="0.6174" stroke-miterlimit="1" d="M243.824,299.666v6.554h11.759v5.421h-11.759
	v11.263h-7.214V294.07h21.994v5.596H243.824z"/>
<path fill="#1D1D1B" stroke="#1D1D1B" stroke-width="0.6174" stroke-miterlimit="1" d="M268.193,299.666v5.841h11.717v5.415h-11.717
	v6.392h14.863v5.59h-22.071V294.07h22.071v5.596H268.193z"/>
<path fill="#1D1D1B" stroke="#1D1D1B" stroke-width="0.6174" stroke-miterlimit="1" d="M302.745,302.309
	c-0.895-2.437-2.565-3.399-5.312-3.399c-1.937,0-4.28,0.458-4.28,2.687c0,2.1,2.706,2.604,4.463,2.901
	c2.526,0.505,5.899,1.096,8.055,2.436c2.526,1.554,4.061,3.951,4.061,6.813c0,2.81-1.444,5.504-3.826,7.228
	c-2.481,1.801-5.868,2.356-8.964,2.356c-5.814,0-11.088-2.356-12.479-7.991l6.664-1.425c0.899,3.024,3.236,4.074,6.438,4.074
	c2.071,0,4.824-0.72,4.824-3.109c0-2.396-3.511-2.855-5.408-3.238c-5.493-1.049-10.899-2.558-10.899-8.866
	c0-2.694,1.127-5.044,3.329-6.768c2.254-1.762,4.916-2.351,7.753-2.351c5.4,0,9.817,1.763,11.708,6.762L302.745,302.309z"/>
<path fill="#1D1D1B" stroke="#1D1D1B" stroke-width="0.6174" stroke-miterlimit="1" d="M329.777,302.309
	c-0.9-2.437-2.565-3.399-5.312-3.399c-1.942,0-4.281,0.458-4.281,2.687c0,2.1,2.7,2.604,4.463,2.901
	c2.525,0.505,5.9,1.096,8.069,2.436c2.514,1.554,4.042,3.951,4.042,6.813c0,2.81-1.438,5.504-3.823,7.228
	c-2.484,1.801-5.859,2.356-8.962,2.356c-5.815,0-11.087-2.356-12.485-7.991l6.67-1.425c0.906,3.024,3.236,4.074,6.438,4.074
	c2.086,0,4.818-0.72,4.818-3.109c0-2.396-3.51-2.855-5.4-3.238c-5.492-1.049-10.908-2.558-10.908-8.866
	c0-2.694,1.134-5.044,3.342-6.768c2.254-1.762,4.909-2.351,7.753-2.351c5.394,0,9.812,1.763,11.702,6.762L329.777,302.309z"/>
<path fill="#1D1D1B" stroke="#1D1D1B" stroke-width="0.6174" stroke-miterlimit="1" d="M348.52,322.903h-7.202V294.07h7.202V322.903
	z"/>
<path fill="#1D1D1B" stroke="#1D1D1B" stroke-width="0.6174" stroke-miterlimit="1" d="M376.451,298.067
	c-2.469-3.155-5.727-4.411-9.826-4.411c-9.137,0-13.236,7.144-13.236,14.791c0,3.615,0.985,7.358,3.246,10.336
	c2.434,3.201,5.808,4.547,9.99,4.547c4.205,0,7.85-1.605,10.234-4.883c1.981-2.732,2.927-6.723,2.927-10
	C379.786,304.963,378.66,300.884,376.451,298.067z M371.277,314.537c-0.81,2.148-2.164,3.281-4.652,3.281
	c-5.082,0-5.672-5.756-5.672-9.371c0-1.812,0.272-4.286,0.997-6.01c0.854-2.098,2.202-3.276,4.675-3.276
	c2.261,0,3.562,0.881,4.463,2.811c0.908,1.937,1.133,4.417,1.133,6.515C372.221,310.379,371.996,312.773,371.277,314.537z"/>
<path fill="#1D1D1B" stroke="#1D1D1B" stroke-width="0.6174" stroke-miterlimit="1" d="M408.218,322.903h-6.179l-11.845-19.371
	h-0.183v19.371h-5.582V294.07h7.791l10.315,16.941h0.099V294.07h5.583V322.903z"/>
<path fill="#1D1D1B" stroke="#1D1D1B" stroke-width="0.6174" stroke-miterlimit="1" d="M437.943,322.903h-6.166l-11.845-19.371
	h-0.188v19.371h-5.582V294.07h7.789l10.317,16.941h0.091V294.07h5.583V322.903z"/>
<path fill="#1D1D1B" stroke="#1D1D1B" stroke-width="0.6174" stroke-miterlimit="1" d="M451.103,299.666v5.841h11.717v5.415h-11.717
	v6.392h14.869v5.59H443.9V294.07h22.071v5.596H451.103z"/>
<path fill="#1D1D1B" stroke="#1D1D1B" stroke-width="0.6174" stroke-miterlimit="1" d="M489.487,317.191v5.712h-19.637V294.07h7.209
	v23.121H489.487z"/>
<g>
	<g>
		<path d="M463.782,244.235c1.904-1.373,12.558-9.681,12.558-23.601c0-15.286-8.981-30.165-34.088-30.165
			c-25.107,0-33.652,0-33.652,0v0v20.966v50.692l9.842,24.382h15.319v-76.021h6.868c3.788,0,10.957,2.029,10.957,11.769
			s-8.655,13.392-13.932,13.663l22.348,50.59h22.455L463.782,244.235z"/>
	</g>
	<polygon points="402.89,262.702 378.03,262.702 378.03,247.552 401.537,247.552 401.537,225.639 378.03,225.639 378.03,212.382 
		403.295,212.382 403.295,190.469 378.03,190.469 354.492,190.469 354.492,212.382 354.492,225.639 354.492,247.552 
		354.492,262.702 354.492,286.51 354.492,286.645 412.544,286.645 	"/>
	<g>
		<path fill="none" d="M307.932,212.856v51.132c19.275,0,21.779-13.595,21.779-25.567
			C329.711,226.45,327.207,212.856,307.932,212.856z"/>
		<path d="M307.961,190.458c0,0.004,0,0.007,0,0.011h-25.702v66.891l12.003,29.149h13.699c44.251,0,44.104-36.581,44.07-48.025
			C352.064,227.039,352.212,190.458,307.961,190.458z M307.932,263.988v-51.132c19.275,0,21.779,13.594,21.779,25.565
			C329.711,250.393,327.207,263.988,307.932,263.988z"/>
	</g>
	<path d="M264.173,286.307h22.928l-32.465-95.973h-14.609l-32.464,95.973h22.928l3.503-11.025h26.675L264.173,286.307z
		 M240.828,253.774l6.503-20.463l6.503,20.463H240.828z"/>
	<path d="M214.324,257.83c-0.072-10.179-2.916-21.605-18.934-29.081c-11.635-5.411-12.175-5.952-12.175-9.875
		c0-3.25,3.652-6.087,10.145-6.087s16.097,0,16.097,0l4.921-22.319c0,0-23.589,0-28.188,0c-4.492,0-29.355-0.887-30.515,26.417
		l-0.055-0.039c0,0.429,0.008,0.858,0.021,1.287c-0.004,0.251-0.021,0.486-0.021,0.742l0.049,0.033
		c0.461,9.614,4.416,19.275,19.564,26.344c11.634,5.412,12.31,9.333,12.175,12.58c-0.135,3.247-3.652,6.088-10.145,6.088
		c-6.493,0-27.324,0-27.324,0l7.71,22.318c0,0,22.185,0,26.783,0c4.578,0,29.65,0.928,29.883-28.008l0.012,0.008
		c0-0.103-0.002-0.207-0.002-0.31c0-0.033,0.002-0.062,0.002-0.097L214.324,257.83z"/>
	<path fill="#E5231B" d="M117.647,207.574l-31.701,30.901L54.44,207.574H117.647 M147.5,192.5H24.647l61.238,61.615L147.5,192.5
		L147.5,192.5z"/>
	<path fill="#E5231B" d="M53.935,307.627l31.701-30.9l31.506,30.9H53.935 M24.082,322.701h122.853l-61.237-61.615L24.082,322.701
		L24.082,322.701z"/>
	<polygon fill="#0D0802" points="16.169,195.328 16.169,318.181 77.784,256.942 	"/>
</g>
</svg>
