<?xml version="1.0" encoding="utf-8"?>
<!-- Generator: Adobe Illustrator 15.0.0, SVG Export Plug-In . SVG Version: 6.00 Build 0)  -->
<!DOCTYPE svg PUBLIC "-//W3C//DTD SVG 1.1//EN" "http://www.w3.org/Graphics/SVG/1.1/DTD/svg11.dtd">
<svg version="1.1" id="Calque_1" xmlns="http://www.w3.org/2000/svg" xmlns:xlink="http://www.w3.org/1999/xlink" x="0px" y="0px"
	 width="500px" height="500px" viewBox="0 0 500 500" enable-background="new 0 0 500 500" xml:space="preserve">
<g>
	<path fill="#0063A0" d="M179.921,234.505v-0.036H148.81v-10.093h39.821v-8.573h-42.586v0.062c-4.189,0.429-7.466,4.04-7.466,8.452
		v10.074c0,4.364,3.205,7.948,7.329,8.44v0.211h33.736v10.301h-41.824v8.572h41.824v0.056c5.066-0.154,9.125-3.953,9.125-8.629
		v-10.229C188.767,238.523,184.855,234.788,179.921,234.505z"/>
	<path fill="#0063A0" d="M456.176,261.971c5.066-0.154,9.125-3.953,9.125-8.629v-10.229c0-4.589-3.912-8.325-8.847-8.608v-0.036
		h-31.111v-10.093h39.821v-8.573h-42.586v0.062c-4.189,0.429-7.467,4.04-7.467,8.452v10.074c0,4.364,3.205,7.948,7.329,8.44v0.211
		h33.735v10.301h-41.824v8.572h41.824V261.971z"/>
	<polygon fill="#0063A0" points="237.991,215.25 227.345,215.25 200.66,262.261 211.306,262.261 232.512,224.903 252.51,262.261 
		263.156,262.261 	"/>
	<polygon fill="#0063A0" points="324.687,261.985 324.687,252.859 290.396,252.859 290.396,215.527 278.781,215.527 
		278.781,252.859 278.781,261.985 290.396,261.985 	"/>
	<path fill="#0063A0" d="M391.192,215.596h-11.199v37.748h-29.936v-37.748h-11.199v38.369h0.061
		c0.433,4.771,4.099,8.504,8.581,8.504h35.117c4.676,0,8.475-4.059,8.629-9.125h-0.054V215.596z"/>
	<path fill="#0063A0" d="M93.318,234.729c9.777,5.357,15.809,12.678,15.809,20.757c0,16.418-24.885,29.728-55.583,29.728
		c-10.507,0-20.331-1.561-28.711-4.27c10.094,5.531,24.179,8.97,39.773,8.97c30.698,0,55.583-13.309,55.583-29.727
		C120.189,249.388,109.422,239.936,93.318,234.729z"/>
	<path fill="#0063A0" d="M78.766,268.464c-20.712-2.963-36.007-13.345-36.007-25.699c0-14.662,21.542-26.547,48.117-26.547
		c6.526,0,12.745,0.72,18.419,2.018c-8.099-3.605-18.219-5.751-29.204-5.751c-26.575,0-48.117,12.536-48.117,27.999
		C31.975,255.688,52.805,268.054,78.766,268.464z"/>
	<path fill="#0063A0" d="M146.373,277.718c1.138,0,2.093,0.244,2.744,0.569l0.447-1.443c-0.468-0.243-1.565-0.609-3.253-0.609
		c-4.248,0-7.154,2.886-7.154,7.195c0,4.513,2.886,6.951,6.749,6.951c1.667,0,2.988-0.325,3.618-0.65l-0.346-1.423
		c-0.711,0.346-1.809,0.569-2.906,0.569c-3.313,0-5.245-2.135-5.245-5.509C141.027,279.771,143.161,277.718,146.373,277.718z"/>
	<path fill="#0063A0" d="M173.672,276.234c-3.659,0-6.342,2.846-6.342,7.195c0,4.146,2.521,6.951,6.159,6.951h0.021
		c3.477,0,6.342-2.521,6.342-7.215C179.851,279.101,177.432,276.234,173.672,276.234z M173.571,288.938h-0.02
		c-2.786,0-4.371-2.662-4.371-5.548c0-2.968,1.464-5.712,4.412-5.712c2.947,0,4.37,2.845,4.37,5.569
		C177.961,286.356,176.375,288.938,173.571,288.938z"/>
	<path fill="#0063A0" d="M208.742,282.21c0,2.114,0.041,3.78,0.204,5.61l-0.061,0.02c-0.63-1.422-1.443-2.846-2.439-4.45
		l-4.37-6.932h-1.952v13.699h1.667v-5.854c0-2.277-0.02-3.924-0.122-5.65l0.061-0.021c0.672,1.483,1.585,3.049,2.542,4.573
		l4.35,6.951h1.788v-13.699h-1.667V282.21z"/>
	<polygon fill="#0063A0" points="228.303,277.962 232.469,277.962 232.469,290.157 234.259,290.157 234.259,277.962 
		238.446,277.962 238.446,276.458 228.303,276.458 	"/>
	<path fill="#0063A0" d="M262.99,283.633v-0.062c1.424-0.487,2.582-1.687,2.582-3.476c0-1.077-0.406-2.012-1.077-2.602
		c-0.854-0.772-2.094-1.138-3.984-1.138c-1.199,0-2.5,0.121-3.395,0.305v13.496h1.769v-5.936h1.667
		c1.604,0.062,2.357,0.772,2.764,2.663c0.366,1.708,0.672,2.886,0.895,3.272h1.83c-0.266-0.528-0.59-1.85-1.037-3.76
		C264.657,284.975,264.027,283.998,262.99,283.633z M260.694,282.881h-1.809v-4.979c0.305-0.082,0.895-0.163,1.748-0.163
		c1.87,0,3.15,0.772,3.15,2.541C263.783,281.845,262.584,282.881,260.694,282.881z"/>
	<path fill="#0063A0" d="M291.517,276.234c-3.658,0-6.342,2.846-6.342,7.195c0,4.146,2.521,6.951,6.159,6.951h0.02
		c3.476,0,6.342-2.521,6.342-7.215C297.696,279.101,295.277,276.234,291.517,276.234z M291.415,288.938h-0.02
		c-2.785,0-4.371-2.662-4.371-5.548c0-2.968,1.464-5.712,4.411-5.712c2.946,0,4.37,2.845,4.37,5.569
		C295.806,286.356,294.221,288.938,291.415,288.938z"/>
	<polygon fill="#0063A0" points="319.738,276.458 317.949,276.458 317.949,290.157 325.592,290.157 325.592,288.674 
		319.738,288.674 	"/>
	<path fill="#0063A0" d="M348.815,282.393c-1.891-0.731-2.724-1.361-2.724-2.642c0-0.936,0.711-2.054,2.581-2.054
		c1.24,0,2.154,0.387,2.582,0.65l0.487-1.443c-0.589-0.345-1.626-0.67-3.009-0.67c-2.662,0-4.431,1.585-4.431,3.719
		c0,1.911,1.383,3.09,3.618,3.903c1.85,0.691,2.581,1.443,2.581,2.704c0,1.401-1.057,2.337-2.865,2.337
		c-1.22,0-2.358-0.387-3.151-0.895l-0.467,1.483c0.731,0.488,2.175,0.895,3.496,0.895c3.231,0,4.777-1.85,4.777-3.963
		C352.291,284.405,351.131,283.308,348.815,282.393z"/>
	<path fill="#0063A0" d="M395.942,276.356c-1.422,0-2.54,0.121-3.395,0.284v13.517h1.769v-5.488
		c0.407,0.103,0.895,0.123,1.423,0.123c1.729,0,3.253-0.509,4.187-1.505c0.712-0.711,1.078-1.687,1.078-2.927
		c0-1.22-0.468-2.216-1.22-2.866C398.97,276.762,397.691,276.356,395.942,276.356z M395.78,283.368c-0.569,0-1.078-0.04-1.464-0.142
		v-5.325c0.305-0.062,0.895-0.143,1.668-0.143c1.95,0,3.23,0.874,3.23,2.703C399.214,282.312,397.934,283.368,395.78,283.368z"/>
	<polygon fill="#0063A0" points="426.7,276.458 424.91,276.458 424.91,290.157 432.555,290.157 432.555,288.674 426.7,288.674 	"/>
	<path fill="#0063A0" d="M462.263,277.718c1.138,0,2.094,0.244,2.744,0.569l0.447-1.443c-0.468-0.243-1.565-0.609-3.253-0.609
		c-4.248,0-7.154,2.886-7.154,7.195c0,4.513,2.887,6.951,6.748,6.951c1.667,0,2.988-0.325,3.618-0.65l-0.345-1.423
		c-0.712,0.346-1.811,0.569-2.907,0.569c-3.313,0-5.244-2.135-5.244-5.509C456.917,279.771,459.051,277.718,462.263,277.718z"/>
	<path fill="#0063A0" d="M474.481,220.244v-0.016c0.354-0.121,0.641-0.419,0.641-0.863c0-0.268-0.101-0.5-0.268-0.646
		c-0.212-0.192-0.52-0.283-0.989-0.283c-0.299,0-0.622,0.03-0.844,0.076v3.354h0.439v-1.475h0.414
		c0.399,0.016,0.586,0.192,0.687,0.662c0.092,0.424,0.167,0.717,0.223,0.813h0.455c-0.065-0.131-0.146-0.46-0.258-0.935
		C474.895,220.577,474.739,220.335,474.481,220.244z M473.909,220.057h-0.449v-1.238c0.076-0.02,0.223-0.04,0.434-0.04
		c0.466,0,0.784,0.192,0.784,0.631C474.678,219.799,474.379,220.057,473.909,220.057z"/>
	<path fill="#0063A0" d="M473.995,215.857c-2.227,0-4.038,1.812-4.038,4.039c0,2.227,1.812,4.039,4.038,4.039
		c2.228,0,4.039-1.812,4.039-4.039C478.034,217.668,476.223,215.857,473.995,215.857z M473.995,223.104
		c-1.77,0-3.209-1.44-3.209-3.209c0-1.77,1.439-3.209,3.209-3.209s3.209,1.439,3.209,3.209
		C477.204,221.665,475.765,223.104,473.995,223.104z"/>
</g>
</svg>
