<?xml version="1.0" encoding="utf-8"?>
<!-- Generator: Adobe Illustrator 19.1.0, SVG Export Plug-In . SVG Version: 6.00 Build 0)  -->
<svg version="1.1" id="Calque_1" xmlns="http://www.w3.org/2000/svg" xmlns:xlink="http://www.w3.org/1999/xlink" x="0px" y="0px"
	 viewBox="0 0 500 500" style="enable-background:new 0 0 500 500;" xml:space="preserve">
<style type="text/css">
	.st0{fill:url(#SVGID_1_);}
	.st1{fill:url(#SVGID_2_);}
	.st2{clip-path:url(#SVGID_4_);fill:#96989B;}
	.st3{clip-path:url(#SVGID_6_);fill:#989A9D;}
	.st4{clip-path:url(#SVGID_8_);fill:#9A9D9F;}
	.st5{clip-path:url(#SVGID_10_);fill:#9D9FA1;}
	.st6{clip-path:url(#SVGID_12_);fill:#9FA1A4;}
	.st7{clip-path:url(#SVGID_14_);fill:none;}
	.st8{clip-path:url(#SVGID_16_);fill:#CCCECF;}
	.st9{clip-path:url(#SVGID_18_);fill:#CFD0D2;}
	.st10{clip-path:url(#SVGID_20_);fill:#D1D3D4;}
	.st11{clip-path:url(#SVGID_22_);fill:#CFD0D2;}
	.st12{clip-path:url(#SVGID_24_);fill:#CCCECF;}
	.st13{clip-path:url(#SVGID_26_);fill:#CACBCC;}
	.st14{clip-path:url(#SVGID_28_);fill:#C7C9CB;}
	.st15{clip-path:url(#SVGID_30_);fill:#C5C6C8;}
	.st16{clip-path:url(#SVGID_32_);fill:#C2C4C6;}
	.st17{clip-path:url(#SVGID_34_);fill:#C0C1C4;}
	.st18{clip-path:url(#SVGID_36_);fill:#BDBFC1;}
	.st19{clip-path:url(#SVGID_38_);fill:#BBBCBE;}
	.st20{clip-path:url(#SVGID_40_);fill:#B8B9BC;}
	.st21{clip-path:url(#SVGID_42_);fill:#B6B7B9;}
	.st22{clip-path:url(#SVGID_44_);fill:#B3B4B7;}
	.st23{clip-path:url(#SVGID_46_);fill:#B1B2B4;}
	.st24{clip-path:url(#SVGID_48_);fill:#ADB0B2;}
	.st25{clip-path:url(#SVGID_50_);fill:#ABADB0;}
	.st26{clip-path:url(#SVGID_52_);fill:#A9ABAD;}
	.st27{clip-path:url(#SVGID_54_);fill:#A6A8AB;}
	.st28{clip-path:url(#SVGID_56_);fill:#A4A6A9;}
	.st29{clip-path:url(#SVGID_58_);fill:#A1A4A6;}
	.st30{clip-path:url(#SVGID_60_);fill:#9FA1A4;}
	.st31{clip-path:url(#SVGID_62_);fill:#9D9FA1;}
	.st32{clip-path:url(#SVGID_64_);fill:#9A9D9F;}
	.st33{clip-path:url(#SVGID_66_);fill:#989A9D;}
	.st34{clip-path:url(#SVGID_68_);fill:#96989B;}
	.st35{fill:#96989B;}
	.st36{fill:#D1D3D4;}
	.st37{clip-path:url(#SVGID_70_);fill:#96989B;}
	.st38{clip-path:url(#SVGID_72_);fill:#96989B;}
	.st39{clip-path:url(#SVGID_74_);fill:#989A9D;}
	.st40{clip-path:url(#SVGID_76_);fill:#9A9D9F;}
	.st41{clip-path:url(#SVGID_78_);fill:#9D9FA1;}
	.st42{clip-path:url(#SVGID_80_);fill:#9FA1A4;}
	.st43{clip-path:url(#SVGID_82_);fill:#A1A4A6;}
	.st44{clip-path:url(#SVGID_84_);fill:#A4A6A9;}
	.st45{clip-path:url(#SVGID_86_);fill:#A6A8AB;}
	.st46{clip-path:url(#SVGID_88_);fill:#A9ABAD;}
	.st47{clip-path:url(#SVGID_90_);fill:#ABADB0;}
	.st48{clip-path:url(#SVGID_92_);fill:#ADB0B2;}
	.st49{clip-path:url(#SVGID_94_);fill:#B1B2B4;}
	.st50{clip-path:url(#SVGID_96_);fill:#B3B4B7;}
	.st51{clip-path:url(#SVGID_98_);fill:#B6B7B9;}
	.st52{clip-path:url(#SVGID_100_);fill:#B8B9BC;}
	.st53{clip-path:url(#SVGID_102_);fill:#BBBCBE;}
	.st54{clip-path:url(#SVGID_104_);fill:#BDBFC1;}
	.st55{clip-path:url(#SVGID_106_);fill:#C0C1C4;}
	.st56{clip-path:url(#SVGID_108_);fill:#C2C4C6;}
	.st57{clip-path:url(#SVGID_110_);fill:#C5C6C8;}
	.st58{clip-path:url(#SVGID_112_);fill:#C7C9CB;}
	.st59{clip-path:url(#SVGID_114_);fill:#CACBCC;}
	.st60{clip-path:url(#SVGID_116_);fill:#CCCECF;}
	.st61{clip-path:url(#SVGID_118_);fill:#96989B;}
	.st62{clip-path:url(#SVGID_120_);fill:#96989B;}
	.st63{clip-path:url(#SVGID_122_);fill:#D1D3D4;}
	.st64{clip-path:url(#SVGID_124_);fill:#CFD0D2;}
	.st65{clip-path:url(#SVGID_126_);fill:#CCCECF;}
	.st66{clip-path:url(#SVGID_128_);fill:#CACBCC;}
	.st67{clip-path:url(#SVGID_130_);fill:#C7C9CB;}
	.st68{clip-path:url(#SVGID_132_);fill:#C5C6C8;}
	.st69{clip-path:url(#SVGID_134_);fill:#C2C4C6;}
	.st70{clip-path:url(#SVGID_136_);fill:#C0C1C4;}
	.st71{clip-path:url(#SVGID_138_);fill:#BDBFC1;}
	.st72{clip-path:url(#SVGID_140_);fill:#BBBCBE;}
	.st73{clip-path:url(#SVGID_142_);fill:#B8B9BC;}
	.st74{clip-path:url(#SVGID_144_);fill:#B6B7B9;}
	.st75{clip-path:url(#SVGID_146_);fill:#B3B4B7;}
	.st76{clip-path:url(#SVGID_148_);fill:#B1B2B4;}
	.st77{clip-path:url(#SVGID_150_);fill:#ADB0B2;}
	.st78{clip-path:url(#SVGID_152_);fill:#ABADB0;}
	.st79{clip-path:url(#SVGID_154_);fill:#A9ABAD;}
	.st80{clip-path:url(#SVGID_156_);fill:#A6A8AB;}
	.st81{clip-path:url(#SVGID_158_);fill:#A4A6A9;}
	.st82{clip-path:url(#SVGID_160_);fill:#A1A4A6;}
	.st83{clip-path:url(#SVGID_162_);fill:#9FA1A4;}
	.st84{clip-path:url(#SVGID_164_);fill:#9D9FA1;}
	.st85{clip-path:url(#SVGID_166_);fill:#9A9D9F;}
	.st86{clip-path:url(#SVGID_168_);fill:#989A9D;}
	.st87{clip-path:url(#SVGID_170_);fill:#96989B;}
	.st88{clip-path:url(#SVGID_172_);fill:#9A9D9F;}
	.st89{clip-path:url(#SVGID_174_);fill:#989A9D;}
	.st90{clip-path:url(#SVGID_176_);fill:#96989B;}
	.st91{clip-path:url(#SVGID_178_);fill:#96989B;}
	.st92{clip-path:url(#SVGID_180_);fill:#989A9D;}
	.st93{clip-path:url(#SVGID_182_);fill:#9A9D9F;}
	.st94{clip-path:url(#SVGID_184_);fill:#9D9FA1;}
	.st95{clip-path:url(#SVGID_186_);fill:#9FA1A4;}
	.st96{clip-path:url(#SVGID_188_);fill:#A1A4A6;}
	.st97{clip-path:url(#SVGID_190_);fill:#A4A6A9;}
	.st98{clip-path:url(#SVGID_192_);fill:#A6A8AB;}
	.st99{clip-path:url(#SVGID_194_);fill:#A9ABAD;}
	.st100{clip-path:url(#SVGID_196_);fill:#ABADB0;}
	.st101{clip-path:url(#SVGID_198_);fill:#ADB0B2;}
	.st102{clip-path:url(#SVGID_200_);fill:#B1B2B4;}
	.st103{clip-path:url(#SVGID_202_);fill:#B3B4B7;}
	.st104{clip-path:url(#SVGID_204_);fill:#B6B7B9;}
	.st105{clip-path:url(#SVGID_206_);fill:#B8B9BC;}
	.st106{clip-path:url(#SVGID_208_);fill:#BBBCBE;}
	.st107{clip-path:url(#SVGID_210_);fill:#BDBFC1;}
	.st108{clip-path:url(#SVGID_212_);fill:#C0C1C4;}
	.st109{clip-path:url(#SVGID_214_);fill:#C2C4C6;}
	.st110{clip-path:url(#SVGID_216_);fill:#C5C6C8;}
	.st111{clip-path:url(#SVGID_218_);fill:#C7C9CB;}
	.st112{clip-path:url(#SVGID_220_);fill:#CACBCC;}
	.st113{clip-path:url(#SVGID_222_);fill:#CCCECF;}
	.st114{clip-path:url(#SVGID_224_);fill:#CFD0D2;}
	.st115{clip-path:url(#SVGID_226_);fill:#D1D3D4;}
	.st116{fill:none;}
	.st117{clip-path:url(#SVGID_228_);fill:none;}
	.st118{fill:#A9ABAD;}
	.st119{fill:#949699;}
	.st120{fill:#939598;}
	.st121{clip-path:url(#SVGID_230_);fill:#989A9D;}
	.st122{clip-path:url(#SVGID_232_);fill:#96989B;}
	.st123{clip-path:url(#SVGID_234_);fill:#A4A6A9;}
	.st124{clip-path:url(#SVGID_236_);fill:#A6A8AB;}
	.st125{clip-path:url(#SVGID_238_);fill:#A9ABAD;}
	.st126{clip-path:url(#SVGID_240_);fill:#ABADB0;}
	.st127{clip-path:url(#SVGID_242_);fill:#ADB0B2;}
	.st128{clip-path:url(#SVGID_244_);fill:#B1B2B4;}
	.st129{clip-path:url(#SVGID_246_);fill:#B3B4B7;}
	.st130{clip-path:url(#SVGID_248_);fill:#B6B7B9;}
	.st131{clip-path:url(#SVGID_250_);fill:#B8B9BC;}
	.st132{clip-path:url(#SVGID_252_);fill:#BBBCBE;}
	.st133{clip-path:url(#SVGID_254_);fill:#BDBFC1;}
	.st134{clip-path:url(#SVGID_256_);fill:#C0C1C4;}
	.st135{clip-path:url(#SVGID_258_);fill:#BDBFC1;}
	.st136{clip-path:url(#SVGID_260_);fill:#BBBCBE;}
	.st137{clip-path:url(#SVGID_262_);fill:#B8B9BC;}
	.st138{clip-path:url(#SVGID_264_);fill:#B6B7B9;}
	.st139{clip-path:url(#SVGID_266_);fill:#B3B4B7;}
	.st140{clip-path:url(#SVGID_268_);fill:#B1B2B4;}
	.st141{clip-path:url(#SVGID_270_);fill:#ADB0B2;}
	.st142{clip-path:url(#SVGID_272_);fill:#ABADB0;}
	.st143{clip-path:url(#SVGID_274_);fill:#A9ABAD;}
	.st144{clip-path:url(#SVGID_276_);fill:#A6A8AB;}
	.st145{clip-path:url(#SVGID_278_);fill:#A4A6A9;}
	.st146{clip-path:url(#SVGID_280_);fill:#A1A4A6;}
	.st147{clip-path:url(#SVGID_282_);fill:#9FA1A4;}
	.st148{clip-path:url(#SVGID_284_);fill:#9D9FA1;}
	.st149{clip-path:url(#SVGID_286_);fill:#9A9D9F;}
	.st150{clip-path:url(#SVGID_288_);fill:#989A9D;}
	.st151{clip-path:url(#SVGID_290_);fill:#96989B;}
	.st152{clip-path:url(#SVGID_292_);fill:#B1B2B4;}
	.st153{clip-path:url(#SVGID_294_);fill:#ADB0B2;}
	.st154{clip-path:url(#SVGID_296_);fill:#ABADB0;}
	.st155{clip-path:url(#SVGID_298_);fill:#A9ABAD;}
	.st156{clip-path:url(#SVGID_300_);fill:#A6A8AB;}
	.st157{clip-path:url(#SVGID_302_);fill:#A4A6A9;}
	.st158{clip-path:url(#SVGID_304_);fill:#A1A4A6;}
	.st159{clip-path:url(#SVGID_306_);fill:#9FA1A4;}
	.st160{clip-path:url(#SVGID_308_);fill:#9D9FA1;}
	.st161{clip-path:url(#SVGID_310_);fill:#9A9D9F;}
	.st162{clip-path:url(#SVGID_312_);fill:#989A9D;}
	.st163{clip-path:url(#SVGID_314_);fill:#96989B;}
	.st164{clip-path:url(#SVGID_316_);fill:#989A9D;}
	.st165{clip-path:url(#SVGID_318_);fill:#9A9D9F;}
	.st166{clip-path:url(#SVGID_320_);fill:#9D9FA1;}
	.st167{clip-path:url(#SVGID_322_);fill:#9FA1A4;}
	.st168{clip-path:url(#SVGID_324_);fill:#A1A4A6;}
	.st169{clip-path:url(#SVGID_326_);fill:#A4A6A9;}
	.st170{clip-path:url(#SVGID_328_);fill:#A6A8AB;}
	.st171{clip-path:url(#SVGID_330_);fill:#A9ABAD;}
	.st172{clip-path:url(#SVGID_332_);fill:#ABADB0;}
	.st173{clip-path:url(#SVGID_334_);fill:#ADB0B2;}
	.st174{clip-path:url(#SVGID_336_);fill:#96989B;}
	.st175{clip-path:url(#SVGID_338_);fill:#96989B;}
	.st176{clip-path:url(#SVGID_340_);fill:#989A9D;}
	.st177{clip-path:url(#SVGID_342_);fill:#9A9D9F;}
	.st178{clip-path:url(#SVGID_344_);fill:#9D9FA1;}
	.st179{clip-path:url(#SVGID_346_);fill:#9FA1A4;}
	.st180{clip-path:url(#SVGID_348_);fill:#A1A4A6;}
	.st181{clip-path:url(#SVGID_350_);fill:#A4A6A9;}
	.st182{fill:#FFFFFF;}
	.st183{fill:#231F20;}
	.st184{fill:url(#SVGID_351_);}
</style>
<g>
	<g>
		<path d="M89.2,134C53.8,134,25,162.8,25,198.2v103.6c0,35.4,28.8,64.2,64.2,64.2h321.6c35.4,0,64.2-28.8,64.2-64.2V198.2
			c0-35.4-28.8-64.2-64.2-64.2H89.2"/>
		
			<linearGradient id="SVGID_1_" gradientUnits="userSpaceOnUse" x1="20.7344" y1="249.9995" x2="479.2656" y2="249.9995" gradientTransform="matrix(1 0 0 -1 0 500)">
			<stop  offset="0" style="stop-color:#C6C7C8"/>
			<stop  offset="0.5019" style="stop-color:#3E3D40"/>
			<stop  offset="0.5215" style="stop-color:#3E3D40"/>
			<stop  offset="0.5247" style="stop-color:#3E3D40"/>
			<stop  offset="1" style="stop-color:#C6C7C8"/>
		</linearGradient>
		<path class="st0" d="M410.8,370.3H89.2c-37.8,0-68.5-30.7-68.5-68.5V198.2c0-37.8,30.7-68.5,68.5-68.5h321.6
			c37.7,0,68.5,30.7,68.5,68.5v103.6C479.3,339.5,448.6,370.3,410.8,370.3z M89.2,138.3c-33.1,0-60,26.9-60,60v103.6
			c0,33.1,26.9,60,60,60h321.6c33,0,59.9-26.9,59.9-60V198.2c0-33.1-26.9-60-59.9-60H89.2z"/>
	</g>
	
		<linearGradient id="SVGID_2_" gradientUnits="userSpaceOnUse" x1="249.4145" y1="214.096" x2="249.4145" y2="355.727" gradientTransform="matrix(1 0 0 -1 0 500)">
		<stop  offset="0" style="stop-color:#C6C7C8"/>
		<stop  offset="4.700000e-03" style="stop-color:#C3C5C6"/>
		<stop  offset="7.850000e-02" style="stop-color:#A2A3A5"/>
		<stop  offset="0.1572" style="stop-color:#848587"/>
		<stop  offset="0.2433" style="stop-color:#68696B"/>
		<stop  offset="0.337" style="stop-color:#505052"/>
		<stop  offset="0.4413" style="stop-color:#3C3B3E"/>
		<stop  offset="0.5622" style="stop-color:#222223"/>
		<stop  offset="0.7144" style="stop-color:#0A090A"/>
		<stop  offset="1" style="stop-color:#000000"/>
	</linearGradient>
	<path class="st1" d="M88.6,144.3c-29.5,0-53.5,23.8-53.9,53.1v88.5c19.2-1.5,86.2,3.2,208.6-27.3c100.4-25.4,182.5-4.2,220.8,9.6
		v-69.9c0-29.8-24.2-54-53.9-54"/>
	<g>
		<g>
			<defs>
				<path id="SVGID_3_" d="M393.3,196.2L393.3,196.2c-1.3-0.5-2.5-1-4.7-1.8"/>
			</defs>
			<clipPath id="SVGID_4_">
				<use xlink:href="#SVGID_3_"  style="overflow:visible;"/>
			</clipPath>
			<polyline class="st2" points="388.5,194.6 393.3,196.2 393.3,196.2 388.6,194.4 			"/>
		</g>
		<g>
			<defs>
				<path id="SVGID_5_" d="M393.3,196.2L393.3,196.2c-1.3-0.5-2.5-1-4.7-1.8"/>
			</defs>
			<clipPath id="SVGID_6_">
				<use xlink:href="#SVGID_5_"  style="overflow:visible;"/>
			</clipPath>
			<polyline class="st3" points="388.6,194.4 393.3,196.2 393.3,196.2 388.6,194.4 			"/>
		</g>
		<g>
			<defs>
				<path id="SVGID_7_" d="M393.3,196.2L393.3,196.2c-1.3-0.5-2.5-1-4.7-1.8"/>
			</defs>
			<clipPath id="SVGID_8_">
				<use xlink:href="#SVGID_7_"  style="overflow:visible;"/>
			</clipPath>
			<polyline class="st4" points="388.6,194.4 393.3,196.2 393.3,196.2 			"/>
		</g>
		<g>
			<defs>
				<path id="SVGID_9_" d="M393.3,196.2L393.3,196.2c-1.3-0.5-2.5-1-4.7-1.8"/>
			</defs>
			<clipPath id="SVGID_10_">
				<use xlink:href="#SVGID_9_"  style="overflow:visible;"/>
			</clipPath>
			<polyline class="st5" points="388.6,194.4 393.3,196.2 393.2,196.2 			"/>
		</g>
		<g>
			<defs>
				<path id="SVGID_11_" d="M393.3,196.2L393.3,196.2c-1.3-0.5-2.5-1-4.7-1.8"/>
			</defs>
			<clipPath id="SVGID_12_">
				<use xlink:href="#SVGID_11_"  style="overflow:visible;"/>
			</clipPath>
			<polyline class="st6" points="388.6,194.4 393.2,196.2 393.2,196.2 			"/>
		</g>
		<g>
			<defs>
				<path id="SVGID_13_" d="M393.3,196.2L393.3,196.2c-1.3-0.5-2.5-1-4.7-1.8"/>
			</defs>
			<clipPath id="SVGID_14_">
				<use xlink:href="#SVGID_13_"  style="overflow:visible;"/>
			</clipPath>
			<line class="st7" x1="388.6" y1="194.4" x2="393.2" y2="196.2"/>
		</g>
	</g>
	<g>
		<g>
			<defs>
				<path id="SVGID_15_" d="M397.3,192.8c2.1,0,3.2,0.4,4,3c0.1,0.3,0.1,0.8,0.1,1.2c0,2-1.2,3.6-4.1,3.8l0.3,6.5
					c6.6-0.4,10.3-5.1,10.3-10.3c0-1-0.1-1.9-0.4-2.9c-1.6-6.2-5.9-7.9-10.2-7.9"/>
			</defs>
			<clipPath id="SVGID_16_">
				<use xlink:href="#SVGID_15_"  style="overflow:visible;"/>
			</clipPath>
			<polyline class="st8" points="397.3,192.8 397.3,186.3 397.7,186.3 397.5,192.8 			"/>
		</g>
		<g>
			<defs>
				<path id="SVGID_17_" d="M397.3,192.8c2.1,0,3.2,0.4,4,3c0.1,0.3,0.1,0.8,0.1,1.2c0,2-1.2,3.6-4.1,3.8l0.3,6.5
					c6.6-0.4,10.3-5.1,10.3-10.3c0-1-0.1-1.9-0.4-2.9c-1.6-6.2-5.9-7.9-10.2-7.9"/>
			</defs>
			<clipPath id="SVGID_18_">
				<use xlink:href="#SVGID_17_"  style="overflow:visible;"/>
			</clipPath>
			<polyline class="st9" points="397.5,192.8 397.7,186.3 398.3,186.3 397.8,192.8 			"/>
		</g>
		<g>
			<defs>
				<path id="SVGID_19_" d="M397.3,192.8c2.1,0,3.2,0.4,4,3c0.1,0.3,0.1,0.8,0.1,1.2c0,2-1.2,3.6-4.1,3.8l0.3,6.5
					c6.6-0.4,10.3-5.1,10.3-10.3c0-1-0.1-1.9-0.4-2.9c-1.6-6.2-5.9-7.9-10.2-7.9"/>
			</defs>
			<clipPath id="SVGID_20_">
				<use xlink:href="#SVGID_19_"  style="overflow:visible;"/>
			</clipPath>
			<path class="st10" d="M397.8,192.8l0.5-6.5c4,0.3,7.7,2.1,9.2,7.8c0.2,0.9,0.4,1.9,0.4,2.9c0,0.5,0,1-0.1,1.4l-6.4-0.9l0-0.5
				c0-0.4-0.1-0.8-0.1-1.2C400.6,193.5,399.6,192.9,397.8,192.8"/>
		</g>
		<g>
			<defs>
				<path id="SVGID_21_" d="M397.3,192.8c2.1,0,3.2,0.4,4,3c0.1,0.3,0.1,0.8,0.1,1.2c0,2-1.2,3.6-4.1,3.8l0.3,6.5
					c6.6-0.4,10.3-5.1,10.3-10.3c0-1-0.1-1.9-0.4-2.9c-1.6-6.2-5.9-7.9-10.2-7.9"/>
			</defs>
			<clipPath id="SVGID_22_">
				<use xlink:href="#SVGID_21_"  style="overflow:visible;"/>
			</clipPath>
			<polyline class="st11" points="401.4,197.6 407.9,198.4 407.8,198.9 401.4,197.7 			"/>
		</g>
		<g>
			<defs>
				<path id="SVGID_23_" d="M397.3,192.8c2.1,0,3.2,0.4,4,3c0.1,0.3,0.1,0.8,0.1,1.2c0,2-1.2,3.6-4.1,3.8l0.3,6.5
					c6.6-0.4,10.3-5.1,10.3-10.3c0-1-0.1-1.9-0.4-2.9c-1.6-6.2-5.9-7.9-10.2-7.9"/>
			</defs>
			<clipPath id="SVGID_24_">
				<use xlink:href="#SVGID_23_"  style="overflow:visible;"/>
			</clipPath>
			<polyline class="st12" points="401.4,197.7 407.8,198.9 407.7,199.3 401.4,197.9 			"/>
		</g>
		<g>
			<defs>
				<path id="SVGID_25_" d="M397.3,192.8c2.1,0,3.2,0.4,4,3c0.1,0.3,0.1,0.8,0.1,1.2c0,2-1.2,3.6-4.1,3.8l0.3,6.5
					c6.6-0.4,10.3-5.1,10.3-10.3c0-1-0.1-1.9-0.4-2.9c-1.6-6.2-5.9-7.9-10.2-7.9"/>
			</defs>
			<clipPath id="SVGID_26_">
				<use xlink:href="#SVGID_25_"  style="overflow:visible;"/>
			</clipPath>
			<polyline class="st13" points="401.4,197.9 407.7,199.3 407.6,199.6 401.3,198 			"/>
		</g>
		<g>
			<defs>
				<path id="SVGID_27_" d="M397.3,192.8c2.1,0,3.2,0.4,4,3c0.1,0.3,0.1,0.8,0.1,1.2c0,2-1.2,3.6-4.1,3.8l0.3,6.5
					c6.6-0.4,10.3-5.1,10.3-10.3c0-1-0.1-1.9-0.4-2.9c-1.6-6.2-5.9-7.9-10.2-7.9"/>
			</defs>
			<clipPath id="SVGID_28_">
				<use xlink:href="#SVGID_27_"  style="overflow:visible;"/>
			</clipPath>
			<polyline class="st14" points="401.3,198 407.6,199.6 407.5,200 401.3,198.1 			"/>
		</g>
		<g>
			<defs>
				<path id="SVGID_29_" d="M397.3,192.8c2.1,0,3.2,0.4,4,3c0.1,0.3,0.1,0.8,0.1,1.2c0,2-1.2,3.6-4.1,3.8l0.3,6.5
					c6.6-0.4,10.3-5.1,10.3-10.3c0-1-0.1-1.9-0.4-2.9c-1.6-6.2-5.9-7.9-10.2-7.9"/>
			</defs>
			<clipPath id="SVGID_30_">
				<use xlink:href="#SVGID_29_"  style="overflow:visible;"/>
			</clipPath>
			<polyline class="st15" points="401.3,198.1 407.5,200 407.4,200.4 401.3,198.3 			"/>
		</g>
		<g>
			<defs>
				<path id="SVGID_31_" d="M397.3,192.8c2.1,0,3.2,0.4,4,3c0.1,0.3,0.1,0.8,0.1,1.2c0,2-1.2,3.6-4.1,3.8l0.3,6.5
					c6.6-0.4,10.3-5.1,10.3-10.3c0-1-0.1-1.9-0.4-2.9c-1.6-6.2-5.9-7.9-10.2-7.9"/>
			</defs>
			<clipPath id="SVGID_32_">
				<use xlink:href="#SVGID_31_"  style="overflow:visible;"/>
			</clipPath>
			<polyline class="st16" points="401.3,198.3 407.4,200.4 407.3,200.7 401.2,198.4 			"/>
		</g>
		<g>
			<defs>
				<path id="SVGID_33_" d="M397.3,192.8c2.1,0,3.2,0.4,4,3c0.1,0.3,0.1,0.8,0.1,1.2c0,2-1.2,3.6-4.1,3.8l0.3,6.5
					c6.6-0.4,10.3-5.1,10.3-10.3c0-1-0.1-1.9-0.4-2.9c-1.6-6.2-5.9-7.9-10.2-7.9"/>
			</defs>
			<clipPath id="SVGID_34_">
				<use xlink:href="#SVGID_33_"  style="overflow:visible;"/>
			</clipPath>
			<polyline class="st17" points="401.2,198.4 407.3,200.7 407.2,201.1 401.2,198.5 			"/>
		</g>
		<g>
			<defs>
				<path id="SVGID_35_" d="M397.3,192.8c2.1,0,3.2,0.4,4,3c0.1,0.3,0.1,0.8,0.1,1.2c0,2-1.2,3.6-4.1,3.8l0.3,6.5
					c6.6-0.4,10.3-5.1,10.3-10.3c0-1-0.1-1.9-0.4-2.9c-1.6-6.2-5.9-7.9-10.2-7.9"/>
			</defs>
			<clipPath id="SVGID_36_">
				<use xlink:href="#SVGID_35_"  style="overflow:visible;"/>
			</clipPath>
			<polyline class="st18" points="401.2,198.5 407.2,201.1 407,201.4 401.1,198.6 			"/>
		</g>
		<g>
			<defs>
				<path id="SVGID_37_" d="M397.3,192.8c2.1,0,3.2,0.4,4,3c0.1,0.3,0.1,0.8,0.1,1.2c0,2-1.2,3.6-4.1,3.8l0.3,6.5
					c6.6-0.4,10.3-5.1,10.3-10.3c0-1-0.1-1.9-0.4-2.9c-1.6-6.2-5.9-7.9-10.2-7.9"/>
			</defs>
			<clipPath id="SVGID_38_">
				<use xlink:href="#SVGID_37_"  style="overflow:visible;"/>
			</clipPath>
			<polyline class="st19" points="401.1,198.6 407,201.4 406.9,201.7 401,198.8 			"/>
		</g>
		<g>
			<defs>
				<path id="SVGID_39_" d="M397.3,192.8c2.1,0,3.2,0.4,4,3c0.1,0.3,0.1,0.8,0.1,1.2c0,2-1.2,3.6-4.1,3.8l0.3,6.5
					c6.6-0.4,10.3-5.1,10.3-10.3c0-1-0.1-1.9-0.4-2.9c-1.6-6.2-5.9-7.9-10.2-7.9"/>
			</defs>
			<clipPath id="SVGID_40_">
				<use xlink:href="#SVGID_39_"  style="overflow:visible;"/>
			</clipPath>
			<polyline class="st20" points="401,198.8 406.8,201.7 406.7,202.1 401,198.9 			"/>
		</g>
		<g>
			<defs>
				<path id="SVGID_41_" d="M397.3,192.8c2.1,0,3.2,0.4,4,3c0.1,0.3,0.1,0.8,0.1,1.2c0,2-1.2,3.6-4.1,3.8l0.3,6.5
					c6.6-0.4,10.3-5.1,10.3-10.3c0-1-0.1-1.9-0.4-2.9c-1.6-6.2-5.9-7.9-10.2-7.9"/>
			</defs>
			<clipPath id="SVGID_42_">
				<use xlink:href="#SVGID_41_"  style="overflow:visible;"/>
			</clipPath>
			<polyline class="st21" points="401,198.9 406.7,202.1 406.5,202.4 400.9,199 			"/>
		</g>
		<g>
			<defs>
				<path id="SVGID_43_" d="M397.3,192.8c2.1,0,3.2,0.4,4,3c0.1,0.3,0.1,0.8,0.1,1.2c0,2-1.2,3.6-4.1,3.8l0.3,6.5
					c6.6-0.4,10.3-5.1,10.3-10.3c0-1-0.1-1.9-0.4-2.9c-1.6-6.2-5.9-7.9-10.2-7.9"/>
			</defs>
			<clipPath id="SVGID_44_">
				<use xlink:href="#SVGID_43_"  style="overflow:visible;"/>
			</clipPath>
			<polyline class="st22" points="400.9,199 406.5,202.4 406.3,202.7 400.8,199.1 			"/>
		</g>
		<g>
			<defs>
				<path id="SVGID_45_" d="M397.3,192.8c2.1,0,3.2,0.4,4,3c0.1,0.3,0.1,0.8,0.1,1.2c0,2-1.2,3.6-4.1,3.8l0.3,6.5
					c6.6-0.4,10.3-5.1,10.3-10.3c0-1-0.1-1.9-0.4-2.9c-1.6-6.2-5.9-7.9-10.2-7.9"/>
			</defs>
			<clipPath id="SVGID_46_">
				<use xlink:href="#SVGID_45_"  style="overflow:visible;"/>
			</clipPath>
			<polyline class="st23" points="400.8,199.1 406.3,202.7 406.1,203 400.8,199.2 			"/>
		</g>
		<g>
			<defs>
				<path id="SVGID_47_" d="M397.3,192.8c2.1,0,3.2,0.4,4,3c0.1,0.3,0.1,0.8,0.1,1.2c0,2-1.2,3.6-4.1,3.8l0.3,6.5
					c6.6-0.4,10.3-5.1,10.3-10.3c0-1-0.1-1.9-0.4-2.9c-1.6-6.2-5.9-7.9-10.2-7.9"/>
			</defs>
			<clipPath id="SVGID_48_">
				<use xlink:href="#SVGID_47_"  style="overflow:visible;"/>
			</clipPath>
			<polyline class="st24" points="400.8,199.2 406.1,203 405.8,203.4 400.7,199.4 			"/>
		</g>
		<g>
			<defs>
				<path id="SVGID_49_" d="M397.3,192.8c2.1,0,3.2,0.4,4,3c0.1,0.3,0.1,0.8,0.1,1.2c0,2-1.2,3.6-4.1,3.8l0.3,6.5
					c6.6-0.4,10.3-5.1,10.3-10.3c0-1-0.1-1.9-0.4-2.9c-1.6-6.2-5.9-7.9-10.2-7.9"/>
			</defs>
			<clipPath id="SVGID_50_">
				<use xlink:href="#SVGID_49_"  style="overflow:visible;"/>
			</clipPath>
			<polyline class="st25" points="400.7,199.4 405.8,203.4 405.6,203.7 400.6,199.5 			"/>
		</g>
		<g>
			<defs>
				<path id="SVGID_51_" d="M397.3,192.8c2.1,0,3.2,0.4,4,3c0.1,0.3,0.1,0.8,0.1,1.2c0,2-1.2,3.6-4.1,3.8l0.3,6.5
					c6.6-0.4,10.3-5.1,10.3-10.3c0-1-0.1-1.9-0.4-2.9c-1.6-6.2-5.9-7.9-10.2-7.9"/>
			</defs>
			<clipPath id="SVGID_52_">
				<use xlink:href="#SVGID_51_"  style="overflow:visible;"/>
			</clipPath>
			<polyline class="st26" points="400.6,199.5 405.6,203.7 405.3,204 400.5,199.6 			"/>
		</g>
		<g>
			<defs>
				<path id="SVGID_53_" d="M397.3,192.8c2.1,0,3.2,0.4,4,3c0.1,0.3,0.1,0.8,0.1,1.2c0,2-1.2,3.6-4.1,3.8l0.3,6.5
					c6.6-0.4,10.3-5.1,10.3-10.3c0-1-0.1-1.9-0.4-2.9c-1.6-6.2-5.9-7.9-10.2-7.9"/>
			</defs>
			<clipPath id="SVGID_54_">
				<use xlink:href="#SVGID_53_"  style="overflow:visible;"/>
			</clipPath>
			<polyline class="st27" points="400.5,199.6 405.3,204 404.9,204.4 400.3,199.7 			"/>
		</g>
		<g>
			<defs>
				<path id="SVGID_55_" d="M397.3,192.8c2.1,0,3.2,0.4,4,3c0.1,0.3,0.1,0.8,0.1,1.2c0,2-1.2,3.6-4.1,3.8l0.3,6.5
					c6.6-0.4,10.3-5.1,10.3-10.3c0-1-0.1-1.9-0.4-2.9c-1.6-6.2-5.9-7.9-10.2-7.9"/>
			</defs>
			<clipPath id="SVGID_56_">
				<use xlink:href="#SVGID_55_"  style="overflow:visible;"/>
			</clipPath>
			<polyline class="st28" points="400.3,199.7 404.9,204.4 404.6,204.7 400.2,199.8 			"/>
		</g>
		<g>
			<defs>
				<path id="SVGID_57_" d="M397.3,192.8c2.1,0,3.2,0.4,4,3c0.1,0.3,0.1,0.8,0.1,1.2c0,2-1.2,3.6-4.1,3.8l0.3,6.5
					c6.6-0.4,10.3-5.1,10.3-10.3c0-1-0.1-1.9-0.4-2.9c-1.6-6.2-5.9-7.9-10.2-7.9"/>
			</defs>
			<clipPath id="SVGID_58_">
				<use xlink:href="#SVGID_57_"  style="overflow:visible;"/>
			</clipPath>
			<polyline class="st29" points="400.2,199.8 404.6,204.7 404.1,205 400,200 			"/>
		</g>
		<g>
			<defs>
				<path id="SVGID_59_" d="M397.3,192.8c2.1,0,3.2,0.4,4,3c0.1,0.3,0.1,0.8,0.1,1.2c0,2-1.2,3.6-4.1,3.8l0.3,6.5
					c6.6-0.4,10.3-5.1,10.3-10.3c0-1-0.1-1.9-0.4-2.9c-1.6-6.2-5.9-7.9-10.2-7.9"/>
			</defs>
			<clipPath id="SVGID_60_">
				<use xlink:href="#SVGID_59_"  style="overflow:visible;"/>
			</clipPath>
			<polyline class="st30" points="400,200 404.1,205 403.6,205.4 399.8,200.1 			"/>
		</g>
		<g>
			<defs>
				<path id="SVGID_61_" d="M397.3,192.8c2.1,0,3.2,0.4,4,3c0.1,0.3,0.1,0.8,0.1,1.2c0,2-1.2,3.6-4.1,3.8l0.3,6.5
					c6.6-0.4,10.3-5.1,10.3-10.3c0-1-0.1-1.9-0.4-2.9c-1.6-6.2-5.9-7.9-10.2-7.9"/>
			</defs>
			<clipPath id="SVGID_62_">
				<use xlink:href="#SVGID_61_"  style="overflow:visible;"/>
			</clipPath>
			<polyline class="st31" points="399.8,200.1 403.6,205.4 403,205.8 399.6,200.2 			"/>
		</g>
		<g>
			<defs>
				<path id="SVGID_63_" d="M397.3,192.8c2.1,0,3.2,0.4,4,3c0.1,0.3,0.1,0.8,0.1,1.2c0,2-1.2,3.6-4.1,3.8l0.3,6.5
					c6.6-0.4,10.3-5.1,10.3-10.3c0-1-0.1-1.9-0.4-2.9c-1.6-6.2-5.9-7.9-10.2-7.9"/>
			</defs>
			<clipPath id="SVGID_64_">
				<use xlink:href="#SVGID_63_"  style="overflow:visible;"/>
			</clipPath>
			<polyline class="st32" points="399.6,200.2 403,205.8 402.2,206.2 399.2,200.4 			"/>
		</g>
		<g>
			<defs>
				<path id="SVGID_65_" d="M397.3,192.8c2.1,0,3.2,0.4,4,3c0.1,0.3,0.1,0.8,0.1,1.2c0,2-1.2,3.6-4.1,3.8l0.3,6.5
					c6.6-0.4,10.3-5.1,10.3-10.3c0-1-0.1-1.9-0.4-2.9c-1.6-6.2-5.9-7.9-10.2-7.9"/>
			</defs>
			<clipPath id="SVGID_66_">
				<use xlink:href="#SVGID_65_"  style="overflow:visible;"/>
			</clipPath>
			<path class="st33" d="M399.2,200.4l2.9,5.8c-0.4,0.2-0.8,0.4-1.3,0.5l-2.2-6.2L399.2,200.4"/>
		</g>
		<g>
			<defs>
				<path id="SVGID_67_" d="M397.3,192.8c2.1,0,3.2,0.4,4,3c0.1,0.3,0.1,0.8,0.1,1.2c0,2-1.2,3.6-4.1,3.8l0.3,6.5
					c6.6-0.4,10.3-5.1,10.3-10.3c0-1-0.1-1.9-0.4-2.9c-1.6-6.2-5.9-7.9-10.2-7.9"/>
			</defs>
			<clipPath id="SVGID_68_">
				<use xlink:href="#SVGID_67_"  style="overflow:visible;"/>
			</clipPath>
			<path class="st34" d="M398.7,200.6l2.2,6.2c-1,0.3-2.1,0.5-3.2,0.6l-0.3-6.5C397.8,200.8,398.3,200.7,398.7,200.6"/>
		</g>
	</g>
	<polyline class="st35" points="397.3,200.8 397.7,207.3 397,207.3 397,200.8 	"/>
	<path class="st36" d="M397.3,192.8c2.1,0.1,3.2,0.5,4,3c0.1,0.4,0.1,0.8,0.1,1.2c0,2-1.2,3.6-4.1,3.8l-0.3,0
		c-2.5,0.1-3.6-2.3-3.9-4.4l0.1-0.2C394,193.6,395.4,192.8,397.3,192.8"/>
	<g>
		<g>
			<defs>
				<path id="SVGID_69_" d="M386.7,197.3l6.5-0.9l0.2-0.2c-1.5-0.5-2.6-0.9-4.7-1.8l-1.4-0.6C387.2,193.9,386.7,195.1,386.7,197.3"
					/>
			</defs>
			<clipPath id="SVGID_70_">
				<use xlink:href="#SVGID_69_"  style="overflow:visible;"/>
			</clipPath>
			<path class="st37" d="M393.1,196.4l-6.5,0.9c0-2.2,0.5-3.4,0.5-3.5l6.1,2.4L393.1,196.4"/>
		</g>
	</g>
	<g>
		<g>
			<defs>
				<path id="SVGID_71_" d="M387.2,193.8l6.1,2.4c0.7-2.7,2.1-3.4,4.1-3.4v-6.5C393,186.3,388.5,188.5,387.2,193.8"/>
			</defs>
			<clipPath id="SVGID_72_">
				<use xlink:href="#SVGID_71_"  style="overflow:visible;"/>
			</clipPath>
			<path class="st38" d="M393.2,196.2l-6.1-2.4c0.2-0.9,0.6-1.8,1-2.5l5.5,3.7C393.5,195.4,393.4,195.8,393.2,196.2"/>
		</g>
		<g>
			<defs>
				<path id="SVGID_73_" d="M387.2,193.8l6.1,2.4c0.7-2.7,2.1-3.4,4.1-3.4v-6.5C393,186.3,388.5,188.5,387.2,193.8"/>
			</defs>
			<clipPath id="SVGID_74_">
				<use xlink:href="#SVGID_73_"  style="overflow:visible;"/>
			</clipPath>
			<path class="st39" d="M393.7,195l-5.5-3.7c0.2-0.4,0.4-0.7,0.6-1l5.1,4.3L393.7,195"/>
		</g>
		<g>
			<defs>
				<path id="SVGID_75_" d="M387.2,193.8l6.1,2.4c0.7-2.7,2.1-3.4,4.1-3.4v-6.5C393,186.3,388.5,188.5,387.2,193.8"/>
			</defs>
			<clipPath id="SVGID_76_">
				<use xlink:href="#SVGID_75_"  style="overflow:visible;"/>
			</clipPath>
			<polyline class="st40" points="393.9,194.5 388.8,190.3 389.3,189.6 394.1,194.2 			"/>
		</g>
		<g>
			<defs>
				<path id="SVGID_77_" d="M387.2,193.8l6.1,2.4c0.7-2.7,2.1-3.4,4.1-3.4v-6.5C393,186.3,388.5,188.5,387.2,193.8"/>
			</defs>
			<clipPath id="SVGID_78_">
				<use xlink:href="#SVGID_77_"  style="overflow:visible;"/>
			</clipPath>
			<polyline class="st41" points="394.1,194.2 389.3,189.6 389.8,189.1 394.3,194 			"/>
		</g>
		<g>
			<defs>
				<path id="SVGID_79_" d="M387.2,193.8l6.1,2.4c0.7-2.7,2.1-3.4,4.1-3.4v-6.5C393,186.3,388.5,188.5,387.2,193.8"/>
			</defs>
			<clipPath id="SVGID_80_">
				<use xlink:href="#SVGID_79_"  style="overflow:visible;"/>
			</clipPath>
			<polyline class="st42" points="394.3,194 389.8,189.1 390.2,188.8 394.5,193.8 			"/>
		</g>
		<g>
			<defs>
				<path id="SVGID_81_" d="M387.2,193.8l6.1,2.4c0.7-2.7,2.1-3.4,4.1-3.4v-6.5C393,186.3,388.5,188.5,387.2,193.8"/>
			</defs>
			<clipPath id="SVGID_82_">
				<use xlink:href="#SVGID_81_"  style="overflow:visible;"/>
			</clipPath>
			<polyline class="st43" points="394.5,193.8 390.2,188.8 390.6,188.4 394.6,193.7 			"/>
		</g>
		<g>
			<defs>
				<path id="SVGID_83_" d="M387.2,193.8l6.1,2.4c0.7-2.7,2.1-3.4,4.1-3.4v-6.5C393,186.3,388.5,188.5,387.2,193.8"/>
			</defs>
			<clipPath id="SVGID_84_">
				<use xlink:href="#SVGID_83_"  style="overflow:visible;"/>
			</clipPath>
			<polyline class="st44" points="394.6,193.7 390.6,188.4 391,188.1 394.8,193.6 			"/>
		</g>
		<g>
			<defs>
				<path id="SVGID_85_" d="M387.2,193.8l6.1,2.4c0.7-2.7,2.1-3.4,4.1-3.4v-6.5C393,186.3,388.5,188.5,387.2,193.8"/>
			</defs>
			<clipPath id="SVGID_86_">
				<use xlink:href="#SVGID_85_"  style="overflow:visible;"/>
			</clipPath>
			<polyline class="st45" points="394.8,193.6 391,188.1 391.4,187.9 394.9,193.5 			"/>
		</g>
		<g>
			<defs>
				<path id="SVGID_87_" d="M387.2,193.8l6.1,2.4c0.7-2.7,2.1-3.4,4.1-3.4v-6.5C393,186.3,388.5,188.5,387.2,193.8"/>
			</defs>
			<clipPath id="SVGID_88_">
				<use xlink:href="#SVGID_87_"  style="overflow:visible;"/>
			</clipPath>
			<polyline class="st46" points="394.9,193.5 391.4,187.9 391.8,187.7 395.1,193.4 			"/>
		</g>
		<g>
			<defs>
				<path id="SVGID_89_" d="M387.2,193.8l6.1,2.4c0.7-2.7,2.1-3.4,4.1-3.4v-6.5C393,186.3,388.5,188.5,387.2,193.8"/>
			</defs>
			<clipPath id="SVGID_90_">
				<use xlink:href="#SVGID_89_"  style="overflow:visible;"/>
			</clipPath>
			<polyline class="st47" points="395.1,193.4 391.8,187.7 392.1,187.5 395.2,193.3 			"/>
		</g>
		<g>
			<defs>
				<path id="SVGID_91_" d="M387.2,193.8l6.1,2.4c0.7-2.7,2.1-3.4,4.1-3.4v-6.5C393,186.3,388.5,188.5,387.2,193.8"/>
			</defs>
			<clipPath id="SVGID_92_">
				<use xlink:href="#SVGID_91_"  style="overflow:visible;"/>
			</clipPath>
			<polyline class="st48" points="395.2,193.3 392.1,187.5 392.5,187.3 395.3,193.2 			"/>
		</g>
		<g>
			<defs>
				<path id="SVGID_93_" d="M387.2,193.8l6.1,2.4c0.7-2.7,2.1-3.4,4.1-3.4v-6.5C393,186.3,388.5,188.5,387.2,193.8"/>
			</defs>
			<clipPath id="SVGID_94_">
				<use xlink:href="#SVGID_93_"  style="overflow:visible;"/>
			</clipPath>
			<polyline class="st49" points="395.3,193.2 392.5,187.3 392.9,187.1 395.5,193.2 			"/>
		</g>
		<g>
			<defs>
				<path id="SVGID_95_" d="M387.2,193.8l6.1,2.4c0.7-2.7,2.1-3.4,4.1-3.4v-6.5C393,186.3,388.5,188.5,387.2,193.8"/>
			</defs>
			<clipPath id="SVGID_96_">
				<use xlink:href="#SVGID_95_"  style="overflow:visible;"/>
			</clipPath>
			<polyline class="st50" points="395.5,193.2 392.9,187.1 393.3,187 395.6,193.1 			"/>
		</g>
		<g>
			<defs>
				<path id="SVGID_97_" d="M387.2,193.8l6.1,2.4c0.7-2.7,2.1-3.4,4.1-3.4v-6.5C393,186.3,388.5,188.5,387.2,193.8"/>
			</defs>
			<clipPath id="SVGID_98_">
				<use xlink:href="#SVGID_97_"  style="overflow:visible;"/>
			</clipPath>
			<polyline class="st51" points="395.6,193.1 393.3,187 393.7,186.9 395.8,193 			"/>
		</g>
		<g>
			<defs>
				<path id="SVGID_99_" d="M387.2,193.8l6.1,2.4c0.7-2.7,2.1-3.4,4.1-3.4v-6.5C393,186.3,388.5,188.5,387.2,193.8"/>
			</defs>
			<clipPath id="SVGID_100_">
				<use xlink:href="#SVGID_99_"  style="overflow:visible;"/>
			</clipPath>
			<polyline class="st52" points="395.8,193 393.7,186.9 394.1,186.7 396,193 			"/>
		</g>
		<g>
			<defs>
				<path id="SVGID_101_" d="M387.2,193.8l6.1,2.4c0.7-2.7,2.1-3.4,4.1-3.4v-6.5C393,186.3,388.5,188.5,387.2,193.8"/>
			</defs>
			<clipPath id="SVGID_102_">
				<use xlink:href="#SVGID_101_"  style="overflow:visible;"/>
			</clipPath>
			<polyline class="st53" points="396,193 394.1,186.7 394.5,186.6 396.1,192.9 			"/>
		</g>
		<g>
			<defs>
				<path id="SVGID_103_" d="M387.2,193.8l6.1,2.4c0.7-2.7,2.1-3.4,4.1-3.4v-6.5C393,186.3,388.5,188.5,387.2,193.8"/>
			</defs>
			<clipPath id="SVGID_104_">
				<use xlink:href="#SVGID_103_"  style="overflow:visible;"/>
			</clipPath>
			<polyline class="st54" points="396.1,192.9 394.5,186.6 394.9,186.5 396.3,192.9 			"/>
		</g>
		<g>
			<defs>
				<path id="SVGID_105_" d="M387.2,193.8l6.1,2.4c0.7-2.7,2.1-3.4,4.1-3.4v-6.5C393,186.3,388.5,188.5,387.2,193.8"/>
			</defs>
			<clipPath id="SVGID_106_">
				<use xlink:href="#SVGID_105_"  style="overflow:visible;"/>
			</clipPath>
			<polyline class="st55" points="396.3,192.9 394.9,186.5 395.4,186.5 396.5,192.9 			"/>
		</g>
		<g>
			<defs>
				<path id="SVGID_107_" d="M387.2,193.8l6.1,2.4c0.7-2.7,2.1-3.4,4.1-3.4v-6.5C393,186.3,388.5,188.5,387.2,193.8"/>
			</defs>
			<clipPath id="SVGID_108_">
				<use xlink:href="#SVGID_107_"  style="overflow:visible;"/>
			</clipPath>
			<polyline class="st56" points="396.5,192.9 395.4,186.5 395.8,186.4 396.7,192.9 			"/>
		</g>
		<g>
			<defs>
				<path id="SVGID_109_" d="M387.2,193.8l6.1,2.4c0.7-2.7,2.1-3.4,4.1-3.4v-6.5C393,186.3,388.5,188.5,387.2,193.8"/>
			</defs>
			<clipPath id="SVGID_110_">
				<use xlink:href="#SVGID_109_"  style="overflow:visible;"/>
			</clipPath>
			<polyline class="st57" points="396.7,192.9 395.8,186.4 396.3,186.4 396.9,192.8 			"/>
		</g>
		<g>
			<defs>
				<path id="SVGID_111_" d="M387.2,193.8l6.1,2.4c0.7-2.7,2.1-3.4,4.1-3.4v-6.5C393,186.3,388.5,188.5,387.2,193.8"/>
			</defs>
			<clipPath id="SVGID_112_">
				<use xlink:href="#SVGID_111_"  style="overflow:visible;"/>
			</clipPath>
			<polyline class="st58" points="396.9,192.8 396.3,186.4 396.8,186.3 397.1,192.8 			"/>
		</g>
		<g>
			<defs>
				<path id="SVGID_113_" d="M387.2,193.8l6.1,2.4c0.7-2.7,2.1-3.4,4.1-3.4v-6.5C393,186.3,388.5,188.5,387.2,193.8"/>
			</defs>
			<clipPath id="SVGID_114_">
				<use xlink:href="#SVGID_113_"  style="overflow:visible;"/>
			</clipPath>
			<polyline class="st59" points="397.1,192.8 396.8,186.3 397.3,186.3 397.3,192.8 			"/>
		</g>
		<g>
			<defs>
				<path id="SVGID_115_" d="M387.2,193.8l6.1,2.4c0.7-2.7,2.1-3.4,4.1-3.4v-6.5C393,186.3,388.5,188.5,387.2,193.8"/>
			</defs>
			<clipPath id="SVGID_116_">
				<use xlink:href="#SVGID_115_"  style="overflow:visible;"/>
			</clipPath>
			<polyline class="st60" points="397.3,192.8 397.3,186.3 397.3,186.3 397.3,192.8 			"/>
		</g>
	</g>
	<g>
		<g>
			<defs>
				<path id="SVGID_117_" d="M386.7,197.3c0.5,3.8,3.1,10,10.4,10v-6.5c-2.5,0.1-3.6-2.3-3.9-4.4"/>
			</defs>
			<clipPath id="SVGID_118_">
				<use xlink:href="#SVGID_117_"  style="overflow:visible;"/>
			</clipPath>
			<path class="st61" d="M397,200.8v6.5c-7.3,0-9.8-6.2-10.3-10l6.5-0.9C393.4,198.5,394.5,200.9,397,200.8"/>
		</g>
	</g>
	<path d="M397.3,205.8c-2.4,0-4.7-0.9-6.3-2.6c-1.7-1.7-2.6-3.9-2.6-6.3c0-5,4-9,9-9c4.9,0,9,4,9,9
		C406.3,201.8,402.2,205.8,397.3,205.8z M397.3,189.5c-4,0-7.3,3.3-7.3,7.3c0,1.9,0.8,3.8,2.1,5.2c1.4,1.4,3.2,2.1,5.2,2.1
		c4,0,7.3-3.3,7.3-7.3C404.6,192.8,401.3,189.5,397.3,189.5z"/>
	<g>
		<g>
			<defs>
				<path id="SVGID_119_" d="M85.4,222.9h0.3c-0.9-0.9-2.1-2.1-3-3.1C83.7,220.9,84.4,221.7,85.4,222.9 M82.5,219.6
					c0.1,0.1,0.1,0.1,0.2,0.2C82.6,219.8,82.6,219.7,82.5,219.6z"/>
			</defs>
			<clipPath id="SVGID_120_">
				<use xlink:href="#SVGID_119_"  style="overflow:visible;"/>
			</clipPath>
			<polyline class="st62" points="82.5,219.6 85.7,222.9 85.4,222.9 82.8,219.6 			"/>
		</g>
	</g>
	<g>
		<g>
			<defs>
				<path id="SVGID_121_" d="M80.6,279c1.8-1.7,3.3-3,5.2-4.6v-0.7C84.3,275.3,82.2,277.4,80.6,279"/>
			</defs>
			<clipPath id="SVGID_122_">
				<use xlink:href="#SVGID_121_"  style="overflow:visible;"/>
			</clipPath>
			<polyline class="st63" points="80.6,278.9 85.9,273.7 85.9,273.7 			"/>
		</g>
		<g>
			<defs>
				<path id="SVGID_123_" d="M80.6,279c1.8-1.7,3.3-3,5.2-4.6v-0.7C84.3,275.3,82.2,277.4,80.6,279"/>
			</defs>
			<clipPath id="SVGID_124_">
				<use xlink:href="#SVGID_123_"  style="overflow:visible;"/>
			</clipPath>
			<polyline class="st64" points="80.6,278.9 85.9,273.7 85.9,273.8 			"/>
		</g>
		<g>
			<defs>
				<path id="SVGID_125_" d="M80.6,279c1.8-1.7,3.3-3,5.2-4.6v-0.7C84.3,275.3,82.2,277.4,80.6,279"/>
			</defs>
			<clipPath id="SVGID_126_">
				<use xlink:href="#SVGID_125_"  style="overflow:visible;"/>
			</clipPath>
			<polyline class="st65" points="80.6,278.9 85.9,273.8 85.9,273.8 			"/>
		</g>
		<g>
			<defs>
				<path id="SVGID_127_" d="M80.6,279c1.8-1.7,3.3-3,5.2-4.6v-0.7C84.3,275.3,82.2,277.4,80.6,279"/>
			</defs>
			<clipPath id="SVGID_128_">
				<use xlink:href="#SVGID_127_"  style="overflow:visible;"/>
			</clipPath>
			<polyline class="st66" points="80.6,278.9 85.9,273.8 85.9,273.8 			"/>
		</g>
		<g>
			<defs>
				<path id="SVGID_129_" d="M80.6,279c1.8-1.7,3.3-3,5.2-4.6v-0.7C84.3,275.3,82.2,277.4,80.6,279"/>
			</defs>
			<clipPath id="SVGID_130_">
				<use xlink:href="#SVGID_129_"  style="overflow:visible;"/>
			</clipPath>
			<polyline class="st67" points="80.6,278.9 85.9,273.8 85.9,273.9 80.6,278.9 			"/>
		</g>
		<g>
			<defs>
				<path id="SVGID_131_" d="M80.6,279c1.8-1.7,3.3-3,5.2-4.6v-0.7C84.3,275.3,82.2,277.4,80.6,279"/>
			</defs>
			<clipPath id="SVGID_132_">
				<use xlink:href="#SVGID_131_"  style="overflow:visible;"/>
			</clipPath>
			<polyline class="st68" points="80.6,278.9 85.9,273.9 85.9,273.9 80.6,278.9 			"/>
		</g>
		<g>
			<defs>
				<path id="SVGID_133_" d="M80.6,279c1.8-1.7,3.3-3,5.2-4.6v-0.7C84.3,275.3,82.2,277.4,80.6,279"/>
			</defs>
			<clipPath id="SVGID_134_">
				<use xlink:href="#SVGID_133_"  style="overflow:visible;"/>
			</clipPath>
			<polyline class="st69" points="80.6,278.9 85.9,273.9 85.9,273.9 80.6,278.9 			"/>
		</g>
		<g>
			<defs>
				<path id="SVGID_135_" d="M80.6,279c1.8-1.7,3.3-3,5.2-4.6v-0.7C84.3,275.3,82.2,277.4,80.6,279"/>
			</defs>
			<clipPath id="SVGID_136_">
				<use xlink:href="#SVGID_135_"  style="overflow:visible;"/>
			</clipPath>
			<polyline class="st70" points="80.6,278.9 85.9,273.9 85.9,273.9 80.6,278.9 			"/>
		</g>
		<g>
			<defs>
				<path id="SVGID_137_" d="M80.6,279c1.8-1.7,3.3-3,5.2-4.6v-0.7C84.3,275.3,82.2,277.4,80.6,279"/>
			</defs>
			<clipPath id="SVGID_138_">
				<use xlink:href="#SVGID_137_"  style="overflow:visible;"/>
			</clipPath>
			<polyline class="st71" points="80.6,278.9 85.9,273.9 85.9,274 80.6,278.9 			"/>
		</g>
		<g>
			<defs>
				<path id="SVGID_139_" d="M80.6,279c1.8-1.7,3.3-3,5.2-4.6v-0.7C84.3,275.3,82.2,277.4,80.6,279"/>
			</defs>
			<clipPath id="SVGID_140_">
				<use xlink:href="#SVGID_139_"  style="overflow:visible;"/>
			</clipPath>
			<polyline class="st72" points="80.6,278.9 85.9,274 85.9,274 80.6,278.9 			"/>
		</g>
		<g>
			<defs>
				<path id="SVGID_141_" d="M80.6,279c1.8-1.7,3.3-3,5.2-4.6v-0.7C84.3,275.3,82.2,277.4,80.6,279"/>
			</defs>
			<clipPath id="SVGID_142_">
				<use xlink:href="#SVGID_141_"  style="overflow:visible;"/>
			</clipPath>
			<polyline class="st73" points="80.6,278.9 85.9,274 85.9,274 80.6,278.9 			"/>
		</g>
		<g>
			<defs>
				<path id="SVGID_143_" d="M80.6,279c1.8-1.7,3.3-3,5.2-4.6v-0.7C84.3,275.3,82.2,277.4,80.6,279"/>
			</defs>
			<clipPath id="SVGID_144_">
				<use xlink:href="#SVGID_143_"  style="overflow:visible;"/>
			</clipPath>
			<polyline class="st74" points="80.6,278.9 85.9,274 85.9,274 80.6,278.9 			"/>
		</g>
		<g>
			<defs>
				<path id="SVGID_145_" d="M80.6,279c1.8-1.7,3.3-3,5.2-4.6v-0.7C84.3,275.3,82.2,277.4,80.6,279"/>
			</defs>
			<clipPath id="SVGID_146_">
				<use xlink:href="#SVGID_145_"  style="overflow:visible;"/>
			</clipPath>
			<polyline class="st75" points="80.6,278.9 85.9,274 85.9,274.1 80.6,278.9 			"/>
		</g>
		<g>
			<defs>
				<path id="SVGID_147_" d="M80.6,279c1.8-1.7,3.3-3,5.2-4.6v-0.7C84.3,275.3,82.2,277.4,80.6,279"/>
			</defs>
			<clipPath id="SVGID_148_">
				<use xlink:href="#SVGID_147_"  style="overflow:visible;"/>
			</clipPath>
			<polyline class="st76" points="80.6,278.9 85.9,274.1 85.9,274.1 80.6,278.9 			"/>
		</g>
		<g>
			<defs>
				<path id="SVGID_149_" d="M80.6,279c1.8-1.7,3.3-3,5.2-4.6v-0.7C84.3,275.3,82.2,277.4,80.6,279"/>
			</defs>
			<clipPath id="SVGID_150_">
				<use xlink:href="#SVGID_149_"  style="overflow:visible;"/>
			</clipPath>
			<polyline class="st77" points="80.6,278.9 85.9,274.1 85.9,274.1 80.6,278.9 			"/>
		</g>
		<g>
			<defs>
				<path id="SVGID_151_" d="M80.6,279c1.8-1.7,3.3-3,5.2-4.6v-0.7C84.3,275.3,82.2,277.4,80.6,279"/>
			</defs>
			<clipPath id="SVGID_152_">
				<use xlink:href="#SVGID_151_"  style="overflow:visible;"/>
			</clipPath>
			<polyline class="st78" points="80.6,278.9 85.9,274.1 85.9,274.1 80.6,278.9 			"/>
		</g>
		<g>
			<defs>
				<path id="SVGID_153_" d="M80.6,279c1.8-1.7,3.3-3,5.2-4.6v-0.7C84.3,275.3,82.2,277.4,80.6,279"/>
			</defs>
			<clipPath id="SVGID_154_">
				<use xlink:href="#SVGID_153_"  style="overflow:visible;"/>
			</clipPath>
			<polyline class="st79" points="80.6,278.9 85.9,274.1 85.9,274.1 80.6,278.9 			"/>
		</g>
		<g>
			<defs>
				<path id="SVGID_155_" d="M80.6,279c1.8-1.7,3.3-3,5.2-4.6v-0.7C84.3,275.3,82.2,277.4,80.6,279"/>
			</defs>
			<clipPath id="SVGID_156_">
				<use xlink:href="#SVGID_155_"  style="overflow:visible;"/>
			</clipPath>
			<polyline class="st80" points="80.6,278.9 85.9,274.1 85.9,274.2 80.6,278.8 			"/>
		</g>
		<g>
			<defs>
				<path id="SVGID_157_" d="M80.6,279c1.8-1.7,3.3-3,5.2-4.6v-0.7C84.3,275.3,82.2,277.4,80.6,279"/>
			</defs>
			<clipPath id="SVGID_158_">
				<use xlink:href="#SVGID_157_"  style="overflow:visible;"/>
			</clipPath>
			<polyline class="st81" points="80.6,278.8 85.9,274.2 85.9,274.2 80.6,278.8 			"/>
		</g>
		<g>
			<defs>
				<path id="SVGID_159_" d="M80.6,279c1.8-1.7,3.3-3,5.2-4.6v-0.7C84.3,275.3,82.2,277.4,80.6,279"/>
			</defs>
			<clipPath id="SVGID_160_">
				<use xlink:href="#SVGID_159_"  style="overflow:visible;"/>
			</clipPath>
			<polyline class="st82" points="80.6,278.8 85.9,274.2 85.9,274.2 80.6,278.8 			"/>
		</g>
		<g>
			<defs>
				<path id="SVGID_161_" d="M80.6,279c1.8-1.7,3.3-3,5.2-4.6v-0.7C84.3,275.3,82.2,277.4,80.6,279"/>
			</defs>
			<clipPath id="SVGID_162_">
				<use xlink:href="#SVGID_161_"  style="overflow:visible;"/>
			</clipPath>
			<polyline class="st83" points="80.6,278.8 85.9,274.2 85.9,274.2 80.6,278.8 			"/>
		</g>
		<g>
			<defs>
				<path id="SVGID_163_" d="M80.6,279c1.8-1.7,3.3-3,5.2-4.6v-0.7C84.3,275.3,82.2,277.4,80.6,279"/>
			</defs>
			<clipPath id="SVGID_164_">
				<use xlink:href="#SVGID_163_"  style="overflow:visible;"/>
			</clipPath>
			<polyline class="st84" points="80.6,278.8 85.9,274.2 85.9,274.2 80.6,278.8 			"/>
		</g>
		<g>
			<defs>
				<path id="SVGID_165_" d="M80.6,279c1.8-1.7,3.3-3,5.2-4.6v-0.7C84.3,275.3,82.2,277.4,80.6,279"/>
			</defs>
			<clipPath id="SVGID_166_">
				<use xlink:href="#SVGID_165_"  style="overflow:visible;"/>
			</clipPath>
			<polyline class="st85" points="80.6,278.8 85.9,274.2 85.9,274.2 80.6,278.8 			"/>
		</g>
		<g>
			<defs>
				<path id="SVGID_167_" d="M80.6,279c1.8-1.7,3.3-3,5.2-4.6v-0.7C84.3,275.3,82.2,277.4,80.6,279"/>
			</defs>
			<clipPath id="SVGID_168_">
				<use xlink:href="#SVGID_167_"  style="overflow:visible;"/>
			</clipPath>
			<polyline class="st86" points="80.6,278.8 85.9,274.2 85.9,274.3 80.6,278.8 			"/>
		</g>
		<g>
			<defs>
				<path id="SVGID_169_" d="M80.6,279c1.8-1.7,3.3-3,5.2-4.6v-0.7C84.3,275.3,82.2,277.4,80.6,279"/>
			</defs>
			<clipPath id="SVGID_170_">
				<use xlink:href="#SVGID_169_"  style="overflow:visible;"/>
			</clipPath>
			<polyline class="st87" points="80.6,278.8 85.9,274.3 85.9,274.4 80.6,278.4 			"/>
		</g>
	</g>
	<g>
		<g>
			<defs>
				<path id="SVGID_171_" d="M197.2,192.8C197.2,192.8,197.2,192.8,197.2,192.8S197.2,192.8,197.2,192.8 M196.6,192.5
					c0.4,0.2,0.6,0.2,0.6,0.2c2.4-1.6,4.3-2.5,5.9-3.3L196.6,192.5z"/>
			</defs>
			<clipPath id="SVGID_172_">
				<use xlink:href="#SVGID_171_"  style="overflow:visible;"/>
			</clipPath>
			<polyline class="st88" points="202.5,189.3 197.2,192.8 197,192.7 203,189.5 			"/>
		</g>
		<g>
			<defs>
				<path id="SVGID_173_" d="M197.2,192.8C197.2,192.8,197.2,192.8,197.2,192.8S197.2,192.8,197.2,192.8 M196.6,192.5
					c0.4,0.2,0.6,0.2,0.6,0.2c2.4-1.6,4.3-2.5,5.9-3.3L196.6,192.5z"/>
			</defs>
			<clipPath id="SVGID_174_">
				<use xlink:href="#SVGID_173_"  style="overflow:visible;"/>
			</clipPath>
			<polyline class="st89" points="203,189.5 197,192.7 196.8,192.6 203.1,189.5 			"/>
		</g>
		<g>
			<defs>
				<path id="SVGID_175_" d="M197.2,192.8C197.2,192.8,197.2,192.8,197.2,192.8S197.2,192.8,197.2,192.8 M196.6,192.5
					c0.4,0.2,0.6,0.2,0.6,0.2c2.4-1.6,4.3-2.5,5.9-3.3L196.6,192.5z"/>
			</defs>
			<clipPath id="SVGID_176_">
				<use xlink:href="#SVGID_175_"  style="overflow:visible;"/>
			</clipPath>
			<polyline class="st90" points="203.1,189.5 196.8,192.6 196.6,192.5 203.1,189.5 			"/>
		</g>
	</g>
	<g>
		<g>
			<defs>
				<path id="SVGID_177_" d="M80.3,217.3l5.4,5.6c0-1.3,0.1-2,0.1-2C83.3,219.8,81.8,218.9,80.3,217.3"/>
			</defs>
			<clipPath id="SVGID_178_">
				<use xlink:href="#SVGID_177_"  style="overflow:visible;"/>
			</clipPath>
			<polyline class="st91" points="80.3,218.5 85.8,220.9 85.7,221.2 80.3,217.8 			"/>
		</g>
		<g>
			<defs>
				<path id="SVGID_179_" d="M80.3,217.3l5.4,5.6c0-1.3,0.1-2,0.1-2C83.3,219.8,81.8,218.9,80.3,217.3"/>
			</defs>
			<clipPath id="SVGID_180_">
				<use xlink:href="#SVGID_179_"  style="overflow:visible;"/>
			</clipPath>
			<polyline class="st92" points="80.3,217.8 85.7,221.2 85.7,221.2 80.3,217.8 			"/>
		</g>
		<g>
			<defs>
				<path id="SVGID_181_" d="M80.3,217.3l5.4,5.6c0-1.3,0.1-2,0.1-2C83.3,219.8,81.8,218.9,80.3,217.3"/>
			</defs>
			<clipPath id="SVGID_182_">
				<use xlink:href="#SVGID_181_"  style="overflow:visible;"/>
			</clipPath>
			<polyline class="st93" points="80.3,217.8 85.7,221.2 85.7,221.3 80.3,217.7 			"/>
		</g>
		<g>
			<defs>
				<path id="SVGID_183_" d="M80.3,217.3l5.4,5.6c0-1.3,0.1-2,0.1-2C83.3,219.8,81.8,218.9,80.3,217.3"/>
			</defs>
			<clipPath id="SVGID_184_">
				<use xlink:href="#SVGID_183_"  style="overflow:visible;"/>
			</clipPath>
			<polyline class="st94" points="80.3,217.7 85.7,221.3 85.7,221.3 80.3,217.7 			"/>
		</g>
		<g>
			<defs>
				<path id="SVGID_185_" d="M80.3,217.3l5.4,5.6c0-1.3,0.1-2,0.1-2C83.3,219.8,81.8,218.9,80.3,217.3"/>
			</defs>
			<clipPath id="SVGID_186_">
				<use xlink:href="#SVGID_185_"  style="overflow:visible;"/>
			</clipPath>
			<polyline class="st95" points="80.3,217.7 85.7,221.3 85.7,221.3 80.3,217.7 			"/>
		</g>
		<g>
			<defs>
				<path id="SVGID_187_" d="M80.3,217.3l5.4,5.6c0-1.3,0.1-2,0.1-2C83.3,219.8,81.8,218.9,80.3,217.3"/>
			</defs>
			<clipPath id="SVGID_188_">
				<use xlink:href="#SVGID_187_"  style="overflow:visible;"/>
			</clipPath>
			<polyline class="st96" points="80.3,217.7 85.7,221.3 85.7,221.3 80.3,217.7 			"/>
		</g>
		<g>
			<defs>
				<path id="SVGID_189_" d="M80.3,217.3l5.4,5.6c0-1.3,0.1-2,0.1-2C83.3,219.8,81.8,218.9,80.3,217.3"/>
			</defs>
			<clipPath id="SVGID_190_">
				<use xlink:href="#SVGID_189_"  style="overflow:visible;"/>
			</clipPath>
			<polyline class="st97" points="80.3,217.7 85.7,221.3 85.7,221.3 80.3,217.7 			"/>
		</g>
		<g>
			<defs>
				<path id="SVGID_191_" d="M80.3,217.3l5.4,5.6c0-1.3,0.1-2,0.1-2C83.3,219.8,81.8,218.9,80.3,217.3"/>
			</defs>
			<clipPath id="SVGID_192_">
				<use xlink:href="#SVGID_191_"  style="overflow:visible;"/>
			</clipPath>
			<polyline class="st98" points="80.3,217.7 85.7,221.3 85.7,221.3 80.3,217.7 			"/>
		</g>
		<g>
			<defs>
				<path id="SVGID_193_" d="M80.3,217.3l5.4,5.6c0-1.3,0.1-2,0.1-2C83.3,219.8,81.8,218.9,80.3,217.3"/>
			</defs>
			<clipPath id="SVGID_194_">
				<use xlink:href="#SVGID_193_"  style="overflow:visible;"/>
			</clipPath>
			<polyline class="st99" points="80.3,217.7 85.7,221.3 85.7,221.3 80.3,217.7 			"/>
		</g>
		<g>
			<defs>
				<path id="SVGID_195_" d="M80.3,217.3l5.4,5.6c0-1.3,0.1-2,0.1-2C83.3,219.8,81.8,218.9,80.3,217.3"/>
			</defs>
			<clipPath id="SVGID_196_">
				<use xlink:href="#SVGID_195_"  style="overflow:visible;"/>
			</clipPath>
			<polyline class="st100" points="80.3,217.7 85.7,221.3 85.7,221.4 80.3,217.7 			"/>
		</g>
		<g>
			<defs>
				<path id="SVGID_197_" d="M80.3,217.3l5.4,5.6c0-1.3,0.1-2,0.1-2C83.3,219.8,81.8,218.9,80.3,217.3"/>
			</defs>
			<clipPath id="SVGID_198_">
				<use xlink:href="#SVGID_197_"  style="overflow:visible;"/>
			</clipPath>
			<polyline class="st101" points="80.3,217.7 85.7,221.4 85.7,221.4 80.3,217.7 			"/>
		</g>
		<g>
			<defs>
				<path id="SVGID_199_" d="M80.3,217.3l5.4,5.6c0-1.3,0.1-2,0.1-2C83.3,219.8,81.8,218.9,80.3,217.3"/>
			</defs>
			<clipPath id="SVGID_200_">
				<use xlink:href="#SVGID_199_"  style="overflow:visible;"/>
			</clipPath>
			<polyline class="st102" points="80.3,217.7 85.7,221.4 85.7,221.4 80.3,217.6 			"/>
		</g>
		<g>
			<defs>
				<path id="SVGID_201_" d="M80.3,217.3l5.4,5.6c0-1.3,0.1-2,0.1-2C83.3,219.8,81.8,218.9,80.3,217.3"/>
			</defs>
			<clipPath id="SVGID_202_">
				<use xlink:href="#SVGID_201_"  style="overflow:visible;"/>
			</clipPath>
			<polyline class="st103" points="80.3,217.7 85.7,221.4 85.7,221.4 80.3,217.6 			"/>
		</g>
		<g>
			<defs>
				<path id="SVGID_203_" d="M80.3,217.3l5.4,5.6c0-1.3,0.1-2,0.1-2C83.3,219.8,81.8,218.9,80.3,217.3"/>
			</defs>
			<clipPath id="SVGID_204_">
				<use xlink:href="#SVGID_203_"  style="overflow:visible;"/>
			</clipPath>
			<polyline class="st104" points="80.3,217.6 85.7,221.4 85.7,221.4 80.3,217.6 			"/>
		</g>
		<g>
			<defs>
				<path id="SVGID_205_" d="M80.3,217.3l5.4,5.6c0-1.3,0.1-2,0.1-2C83.3,219.8,81.8,218.9,80.3,217.3"/>
			</defs>
			<clipPath id="SVGID_206_">
				<use xlink:href="#SVGID_205_"  style="overflow:visible;"/>
			</clipPath>
			<polyline class="st105" points="80.3,217.6 85.7,221.4 85.7,221.4 80.3,217.6 			"/>
		</g>
		<g>
			<defs>
				<path id="SVGID_207_" d="M80.3,217.3l5.4,5.6c0-1.3,0.1-2,0.1-2C83.3,219.8,81.8,218.9,80.3,217.3"/>
			</defs>
			<clipPath id="SVGID_208_">
				<use xlink:href="#SVGID_207_"  style="overflow:visible;"/>
			</clipPath>
			<polyline class="st106" points="80.3,217.6 85.7,221.4 85.7,221.5 80.3,217.6 			"/>
		</g>
		<g>
			<defs>
				<path id="SVGID_209_" d="M80.3,217.3l5.4,5.6c0-1.3,0.1-2,0.1-2C83.3,219.8,81.8,218.9,80.3,217.3"/>
			</defs>
			<clipPath id="SVGID_210_">
				<use xlink:href="#SVGID_209_"  style="overflow:visible;"/>
			</clipPath>
			<polyline class="st107" points="80.3,217.6 85.7,221.5 85.7,221.5 80.3,217.6 			"/>
		</g>
		<g>
			<defs>
				<path id="SVGID_211_" d="M80.3,217.3l5.4,5.6c0-1.3,0.1-2,0.1-2C83.3,219.8,81.8,218.9,80.3,217.3"/>
			</defs>
			<clipPath id="SVGID_212_">
				<use xlink:href="#SVGID_211_"  style="overflow:visible;"/>
			</clipPath>
			<polyline class="st108" points="80.3,217.6 85.7,221.5 85.7,221.5 80.3,217.6 			"/>
		</g>
		<g>
			<defs>
				<path id="SVGID_213_" d="M80.3,217.3l5.4,5.6c0-1.3,0.1-2,0.1-2C83.3,219.8,81.8,218.9,80.3,217.3"/>
			</defs>
			<clipPath id="SVGID_214_">
				<use xlink:href="#SVGID_213_"  style="overflow:visible;"/>
			</clipPath>
			<polyline class="st109" points="80.3,217.6 85.7,221.5 85.7,221.5 80.3,217.6 			"/>
		</g>
		<g>
			<defs>
				<path id="SVGID_215_" d="M80.3,217.3l5.4,5.6c0-1.3,0.1-2,0.1-2C83.3,219.8,81.8,218.9,80.3,217.3"/>
			</defs>
			<clipPath id="SVGID_216_">
				<use xlink:href="#SVGID_215_"  style="overflow:visible;"/>
			</clipPath>
			<polyline class="st110" points="80.3,217.6 85.7,221.5 85.7,221.5 80.3,217.6 			"/>
		</g>
		<g>
			<defs>
				<path id="SVGID_217_" d="M80.3,217.3l5.4,5.6c0-1.3,0.1-2,0.1-2C83.3,219.8,81.8,218.9,80.3,217.3"/>
			</defs>
			<clipPath id="SVGID_218_">
				<use xlink:href="#SVGID_217_"  style="overflow:visible;"/>
			</clipPath>
			<polyline class="st111" points="80.3,217.6 85.7,221.5 85.7,221.5 80.3,217.6 			"/>
		</g>
		<g>
			<defs>
				<path id="SVGID_219_" d="M80.3,217.3l5.4,5.6c0-1.3,0.1-2,0.1-2C83.3,219.8,81.8,218.9,80.3,217.3"/>
			</defs>
			<clipPath id="SVGID_220_">
				<use xlink:href="#SVGID_219_"  style="overflow:visible;"/>
			</clipPath>
			<polyline class="st112" points="80.3,217.6 85.7,221.5 85.7,221.6 80.3,217.6 			"/>
		</g>
		<g>
			<defs>
				<path id="SVGID_221_" d="M80.3,217.3l5.4,5.6c0-1.3,0.1-2,0.1-2C83.3,219.8,81.8,218.9,80.3,217.3"/>
			</defs>
			<clipPath id="SVGID_222_">
				<use xlink:href="#SVGID_221_"  style="overflow:visible;"/>
			</clipPath>
			<polyline class="st113" points="80.3,217.6 85.7,221.5 85.7,221.6 80.3,217.6 			"/>
		</g>
		<g>
			<defs>
				<path id="SVGID_223_" d="M80.3,217.3l5.4,5.6c0-1.3,0.1-2,0.1-2C83.3,219.8,81.8,218.9,80.3,217.3"/>
			</defs>
			<clipPath id="SVGID_224_">
				<use xlink:href="#SVGID_223_"  style="overflow:visible;"/>
			</clipPath>
			<polyline class="st114" points="80.3,217.5 85.7,221.6 85.7,221.6 80.3,217.5 			"/>
		</g>
		<g>
			<defs>
				<path id="SVGID_225_" d="M80.3,217.3l5.4,5.6c0-1.3,0.1-2,0.1-2C83.3,219.8,81.8,218.9,80.3,217.3"/>
			</defs>
			<clipPath id="SVGID_226_">
				<use xlink:href="#SVGID_225_"  style="overflow:visible;"/>
			</clipPath>
			<path class="st115" d="M80.3,217.5l5.4,4c0,0.3,0,0.8-0.1,1.3l-5.4-5.6L80.3,217.5"/>
		</g>
	</g>
	<line class="st116" x1="272.4" y1="217.8" x2="276" y2="217.8"/>
	<line class="st116" x1="276" y1="217.8" x2="283.8" y2="184.1"/>
	<line class="st116" x1="283.8" y1="184.1" x2="325.2" y2="184.2"/>
	<line class="st116" x1="325.2" y1="184.2" x2="330.9" y2="201.2"/>
	<line class="st116" x1="331.9" y1="201.8" x2="338" y2="184.2"/>
	<line class="st116" x1="196.5" y1="218" x2="201.9" y2="218"/>
	<line class="st116" x1="380.4" y1="184.3" x2="382.3" y2="196.3"/>
	<line class="st116" x1="383" y1="200.4" x2="385.5" y2="216.5"/>
	<g>
		<g>
			<defs>
				<rect id="SVGID_227_" x="79.2" y="177.3" width="341.7" height="121.6"/>
			</defs>
			<clipPath id="SVGID_228_">
				<use xlink:href="#SVGID_227_"  style="overflow:visible;"/>
			</clipPath>
			<line class="st117" x1="385.5" y1="216.5" x2="420.9" y2="216.5"/>
		</g>
	</g>
	<line class="st116" x1="396.1" y1="281.6" x2="398" y2="297.8"/>
	<line class="st116" x1="338" y1="184.2" x2="380.4" y2="184.3"/>
	<line class="st116" x1="201.9" y1="218" x2="213.8" y2="184"/>
	<line class="st116" x1="213.8" y1="184" x2="260.5" y2="184.2"/>
	<line class="st116" x1="260.5" y1="184.2" x2="272.4" y2="217.8"/>
	<polyline class="st36" points="376.4,201.4 383,200.4 385.5,216.5 379.8,223.1 	"/>
	<polyline class="st118" points="379.8,223.1 385.5,216.5 420.9,216.5 414.3,223.1 	"/>
	<polyline class="st36" points="414.3,223.1 420.9,216.5 420.9,280.5 414.3,273.9 	"/>
	<polyline class="st119" points="414.3,273.9 420.9,280.5 396,280.5 388.6,273.9 	"/>
	<polyline class="st36" points="388.6,273.9 396,280.5 396.1,281.6 389.5,282.3 	"/>
	<polyline class="st36" points="389.5,282.3 396.1,281.6 398,297.8 390.6,291.2 	"/>
	<polyline class="st119" points="390.6,291.2 398,297.8 350.7,297.8 356,291.2 	"/>
	<polyline class="st120" points="356,291.2 350.7,297.8 348.6,288.1 350,264.5 	"/>
	<polyline class="st36" points="350,264.5 348.6,288.1 345.1,297.8 340.5,291.2 	"/>
	<polyline class="st119" points="340.5,291.2 345.1,297.8 315.4,297.8 320.2,291.2 	"/>
	<polyline class="st120" points="320.2,291.2 315.4,297.8 312.1,287.6 311.3,263.6 	"/>
	<polyline class="st36" points="311.3,263.6 312.1,287.6 309.6,297.8 304.4,291.2 	"/>
	<polyline class="st119" points="304.4,291.2 309.6,297.8 249.4,297.8 254.2,291.2 	"/>
	<polyline class="st120" points="254.2,291.2 249.4,297.8 242.6,277 247.3,270.5 	"/>
	<polyline class="st119" points="247.3,270.5 242.6,277 230.9,277 226.4,270.3 	"/>
	<polyline class="st36" points="226.4,270.3 230.9,277 223.1,297.6 218.5,291 	"/>
	<polyline class="st119" points="218.5,291 223.1,297.6 175.6,297.6 184.6,291 	"/>
	<polyline class="st120" points="184.6,291 175.6,297.6 176,296.6 186,286.7 	"/>
	<g>
		<g>
			<defs>
				<path id="SVGID_229_" d="M100.8,280.3c1.1,0.6,21.8,11.7,32.1,15.5c5.5,2,14.3,3.1,23,3.1c7.3,0,14.6-0.8,20-2.3l10-9.9
					c-16.5,4.9-23.2,5.6-30,5.6c-8.2,0-16.2-1-20.8-2.7c-9.7-3.6-30.2-14.6-32.7-15.9"/>
			</defs>
			<clipPath id="SVGID_230_">
				<use xlink:href="#SVGID_229_"  style="overflow:visible;"/>
			</clipPath>
			<path class="st121" d="M186,286.7l-10,9.9c-1.8,0.5-3.7,1-5.9,1.3l2.4-7.6C176.2,289.5,180.5,288.3,186,286.7"/>
		</g>
		<g>
			<defs>
				<path id="SVGID_231_" d="M100.8,280.3c1.1,0.6,21.8,11.7,32.1,15.5c5.5,2,14.3,3.1,23,3.1c7.3,0,14.6-0.8,20-2.3l10-9.9
					c-16.5,4.9-23.2,5.6-30,5.6c-8.2,0-16.2-1-20.8-2.7c-9.7-3.6-30.2-14.6-32.7-15.9"/>
			</defs>
			<clipPath id="SVGID_232_">
				<use xlink:href="#SVGID_231_"  style="overflow:visible;"/>
			</clipPath>
			<path class="st122" d="M172.5,290.3l-2.4,7.6c-4.3,0.7-9.2,1-14.1,1c-8.7,0-17.5-1.1-23.1-3.1c-10.3-3.7-31-14.9-32.1-15.5
				l1.7-6.6c2.5,1.3,23,12.3,32.7,15.9c4.6,1.7,12.6,2.7,20.8,2.7C160.6,292.3,165.1,292,172.5,290.3"/>
		</g>
	</g>
	<g>
		<g>
			<defs>
				<path id="SVGID_233_" d="M79.3,216.3c4.6,4.8,4.6,4.8,6.1,6.6h34.3l-7.2-6.6"/>
			</defs>
			<clipPath id="SVGID_234_">
				<use xlink:href="#SVGID_233_"  style="overflow:visible;"/>
			</clipPath>
			<polyline class="st123" points="85.7,222.9 79.3,216.3 112.5,216.3 119.6,222.9 111.3,222.9 			"/>
		</g>
	</g>
	<g>
		<g>
			<defs>
				<path id="SVGID_235_" d="M162.9,183.9c2.5,0.3,5.5,0.2,7.9,0.5c8.8,1.3,26.1,8.4,26.4,8.4h0c2.4-1.6,4.3-2.5,5.9-3.3l1.6-0.7
					c-1.1-0.5-22.2-9.4-33-10.9c-2.8-0.4-5.8-0.6-8.8-0.6"/>
			</defs>
			<clipPath id="SVGID_236_">
				<use xlink:href="#SVGID_235_"  style="overflow:visible;"/>
			</clipPath>
			<path class="st124" d="M162.9,183.9v-6.6c2,0,3.9,0.1,5.8,0.2l-0.7,6.6C166.3,184.1,164.5,184,162.9,183.9"/>
		</g>
		<g>
			<defs>
				<path id="SVGID_237_" d="M162.9,183.9c2.5,0.3,5.5,0.2,7.9,0.5c8.8,1.3,26.1,8.4,26.4,8.4h0c2.4-1.6,4.3-2.5,5.9-3.3l1.6-0.7
					c-1.1-0.5-22.2-9.4-33-10.9c-2.8-0.4-5.8-0.6-8.8-0.6"/>
			</defs>
			<clipPath id="SVGID_238_">
				<use xlink:href="#SVGID_237_"  style="overflow:visible;"/>
			</clipPath>
			<path class="st125" d="M168,184.1l0.7-6.6c0.6,0.1,1.3,0.1,1.9,0.2l-0.8,6.6C169.2,184.2,168.6,184.2,168,184.1"/>
		</g>
		<g>
			<defs>
				<path id="SVGID_239_" d="M162.9,183.9c2.5,0.3,5.5,0.2,7.9,0.5c8.8,1.3,26.1,8.4,26.4,8.4h0c2.4-1.6,4.3-2.5,5.9-3.3l1.6-0.7
					c-1.1-0.5-22.2-9.4-33-10.9c-2.8-0.4-5.8-0.6-8.8-0.6"/>
			</defs>
			<clipPath id="SVGID_240_">
				<use xlink:href="#SVGID_239_"  style="overflow:visible;"/>
			</clipPath>
			<path class="st126" d="M169.8,184.3l0.8-6.6c0.4,0,0.7,0.1,1.1,0.1l0.1,0l-1,6.5l-0.1,0C170.4,184.3,170.1,184.3,169.8,184.3"/>
		</g>
		<g>
			<defs>
				<path id="SVGID_241_" d="M162.9,183.9c2.5,0.3,5.5,0.2,7.9,0.5c8.8,1.3,26.1,8.4,26.4,8.4h0c2.4-1.6,4.3-2.5,5.9-3.3l1.6-0.7
					c-1.1-0.5-22.2-9.4-33-10.9c-2.8-0.4-5.8-0.6-8.8-0.6"/>
			</defs>
			<clipPath id="SVGID_242_">
				<use xlink:href="#SVGID_241_"  style="overflow:visible;"/>
			</clipPath>
			<path class="st127" d="M170.8,184.4l1-6.5c0.4,0.1,0.8,0.1,1.3,0.2l-1.1,6.5C171.6,184.5,171.2,184.4,170.8,184.4"/>
		</g>
		<g>
			<defs>
				<path id="SVGID_243_" d="M162.9,183.9c2.5,0.3,5.5,0.2,7.9,0.5c8.8,1.3,26.1,8.4,26.4,8.4h0c2.4-1.6,4.3-2.5,5.9-3.3l1.6-0.7
					c-1.1-0.5-22.2-9.4-33-10.9c-2.8-0.4-5.8-0.6-8.8-0.6"/>
			</defs>
			<clipPath id="SVGID_244_">
				<use xlink:href="#SVGID_243_"  style="overflow:visible;"/>
			</clipPath>
			<path class="st128" d="M172,184.6l1.1-6.5c0.5,0.1,1.1,0.2,1.7,0.3l-1.2,6.5C173,184.8,172.5,184.7,172,184.6"/>
		</g>
		<g>
			<defs>
				<path id="SVGID_245_" d="M162.9,183.9c2.5,0.3,5.5,0.2,7.9,0.5c8.8,1.3,26.1,8.4,26.4,8.4h0c2.4-1.6,4.3-2.5,5.9-3.3l1.6-0.7
					c-1.1-0.5-22.2-9.4-33-10.9c-2.8-0.4-5.8-0.6-8.8-0.6"/>
			</defs>
			<clipPath id="SVGID_246_">
				<use xlink:href="#SVGID_245_"  style="overflow:visible;"/>
			</clipPath>
			<path class="st129" d="M173.5,184.9l1.2-6.5c0.7,0.2,1.5,0.3,2.2,0.5l-1.4,6.4C174.9,185.2,174.2,185,173.5,184.9"/>
		</g>
		<g>
			<defs>
				<path id="SVGID_247_" d="M162.9,183.9c2.5,0.3,5.5,0.2,7.9,0.5c8.8,1.3,26.1,8.4,26.4,8.4h0c2.4-1.6,4.3-2.5,5.9-3.3l1.6-0.7
					c-1.1-0.5-22.2-9.4-33-10.9c-2.8-0.4-5.8-0.6-8.8-0.6"/>
			</defs>
			<clipPath id="SVGID_248_">
				<use xlink:href="#SVGID_247_"  style="overflow:visible;"/>
			</clipPath>
			<path class="st130" d="M175.6,185.4l1.4-6.4c1,0.3,2.1,0.6,3.2,0.9l-1.6,6.4C177.5,185.9,176.5,185.6,175.6,185.4"/>
		</g>
		<g>
			<defs>
				<path id="SVGID_249_" d="M162.9,183.9c2.5,0.3,5.5,0.2,7.9,0.5c8.8,1.3,26.1,8.4,26.4,8.4h0c2.4-1.6,4.3-2.5,5.9-3.3l1.6-0.7
					c-1.1-0.5-22.2-9.4-33-10.9c-2.8-0.4-5.8-0.6-8.8-0.6"/>
			</defs>
			<clipPath id="SVGID_250_">
				<use xlink:href="#SVGID_249_"  style="overflow:visible;"/>
			</clipPath>
			<path class="st131" d="M178.5,186.2l1.6-6.4c1.5,0.4,3.1,0.9,4.6,1.4l-2,6.3C181.4,187,179.9,186.6,178.5,186.2"/>
		</g>
		<g>
			<defs>
				<path id="SVGID_251_" d="M162.9,183.9c2.5,0.3,5.5,0.2,7.9,0.5c8.8,1.3,26.1,8.4,26.4,8.4h0c2.4-1.6,4.3-2.5,5.9-3.3l1.6-0.7
					c-1.1-0.5-22.2-9.4-33-10.9c-2.8-0.4-5.8-0.6-8.8-0.6"/>
			</defs>
			<clipPath id="SVGID_252_">
				<use xlink:href="#SVGID_251_"  style="overflow:visible;"/>
			</clipPath>
			<path class="st132" d="M182.8,187.5l2-6.3c2.4,0.8,4.8,1.6,7.1,2.5l-2.8,6C187.1,189,184.9,188.2,182.8,187.5"/>
		</g>
		<g>
			<defs>
				<path id="SVGID_253_" d="M162.9,183.9c2.5,0.3,5.5,0.2,7.9,0.5c8.8,1.3,26.1,8.4,26.4,8.4h0c2.4-1.6,4.3-2.5,5.9-3.3l1.6-0.7
					c-1.1-0.5-22.2-9.4-33-10.9c-2.8-0.4-5.8-0.6-8.8-0.6"/>
			</defs>
			<clipPath id="SVGID_254_">
				<use xlink:href="#SVGID_253_"  style="overflow:visible;"/>
			</clipPath>
			<path class="st133" d="M189,189.7l2.8-6c4.2,1.6,8,3,10.3,4l-5.5,4.9C195.6,192.2,192.6,191,189,189.7"/>
		</g>
		<g>
			<defs>
				<path id="SVGID_255_" d="M162.9,183.9c2.5,0.3,5.5,0.2,7.9,0.5c8.8,1.3,26.1,8.4,26.4,8.4h0c2.4-1.6,4.3-2.5,5.9-3.3l1.6-0.7
					c-1.1-0.5-22.2-9.4-33-10.9c-2.8-0.4-5.8-0.6-8.8-0.6"/>
			</defs>
			<clipPath id="SVGID_256_">
				<use xlink:href="#SVGID_255_"  style="overflow:visible;"/>
			</clipPath>
			<path class="st134" d="M196.7,192.6l5.5-4.9c0.7,0.3,1.3,0.5,1.7,0.7l-6.6,4.4C197.2,192.8,197,192.7,196.7,192.6"/>
		</g>
		<g>
			<defs>
				<path id="SVGID_257_" d="M162.9,183.9c2.5,0.3,5.5,0.2,7.9,0.5c8.8,1.3,26.1,8.4,26.4,8.4h0c2.4-1.6,4.3-2.5,5.9-3.3l1.6-0.7
					c-1.1-0.5-22.2-9.4-33-10.9c-2.8-0.4-5.8-0.6-8.8-0.6"/>
			</defs>
			<clipPath id="SVGID_258_">
				<use xlink:href="#SVGID_257_"  style="overflow:visible;"/>
			</clipPath>
			<polyline class="st135" points="197.2,192.8 203.8,188.4 204.4,188.6 197.1,192.7 			"/>
		</g>
		<g>
			<defs>
				<path id="SVGID_259_" d="M162.9,183.9c2.5,0.3,5.5,0.2,7.9,0.5c8.8,1.3,26.1,8.4,26.4,8.4h0c2.4-1.6,4.3-2.5,5.9-3.3l1.6-0.7
					c-1.1-0.5-22.2-9.4-33-10.9c-2.8-0.4-5.8-0.6-8.8-0.6"/>
			</defs>
			<clipPath id="SVGID_260_">
				<use xlink:href="#SVGID_259_"  style="overflow:visible;"/>
			</clipPath>
			<polyline class="st136" points="197.1,192.7 204.4,188.6 204.4,188.6 197,192.7 			"/>
		</g>
		<g>
			<defs>
				<path id="SVGID_261_" d="M162.9,183.9c2.5,0.3,5.5,0.2,7.9,0.5c8.8,1.3,26.1,8.4,26.4,8.4h0c2.4-1.6,4.3-2.5,5.9-3.3l1.6-0.7
					c-1.1-0.5-22.2-9.4-33-10.9c-2.8-0.4-5.8-0.6-8.8-0.6"/>
			</defs>
			<clipPath id="SVGID_262_">
				<use xlink:href="#SVGID_261_"  style="overflow:visible;"/>
			</clipPath>
			<polyline class="st137" points="197,192.7 204.4,188.7 204.4,188.7 197,192.7 			"/>
		</g>
		<g>
			<defs>
				<path id="SVGID_263_" d="M162.9,183.9c2.5,0.3,5.5,0.2,7.9,0.5c8.8,1.3,26.1,8.4,26.4,8.4h0c2.4-1.6,4.3-2.5,5.9-3.3l1.6-0.7
					c-1.1-0.5-22.2-9.4-33-10.9c-2.8-0.4-5.8-0.6-8.8-0.6"/>
			</defs>
			<clipPath id="SVGID_264_">
				<use xlink:href="#SVGID_263_"  style="overflow:visible;"/>
			</clipPath>
			<polyline class="st138" points="197,192.7 204.4,188.7 204.5,188.7 197,192.7 			"/>
		</g>
		<g>
			<defs>
				<path id="SVGID_265_" d="M162.9,183.9c2.5,0.3,5.5,0.2,7.9,0.5c8.8,1.3,26.1,8.4,26.4,8.4h0c2.4-1.6,4.3-2.5,5.9-3.3l1.6-0.7
					c-1.1-0.5-22.2-9.4-33-10.9c-2.8-0.4-5.8-0.6-8.8-0.6"/>
			</defs>
			<clipPath id="SVGID_266_">
				<use xlink:href="#SVGID_265_"  style="overflow:visible;"/>
			</clipPath>
			<polyline class="st139" points="197,192.7 204.5,188.7 204.5,188.7 197,192.7 			"/>
		</g>
		<g>
			<defs>
				<path id="SVGID_267_" d="M162.9,183.9c2.5,0.3,5.5,0.2,7.9,0.5c8.8,1.3,26.1,8.4,26.4,8.4h0c2.4-1.6,4.3-2.5,5.9-3.3l1.6-0.7
					c-1.1-0.5-22.2-9.4-33-10.9c-2.8-0.4-5.8-0.6-8.8-0.6"/>
			</defs>
			<clipPath id="SVGID_268_">
				<use xlink:href="#SVGID_267_"  style="overflow:visible;"/>
			</clipPath>
			<polyline class="st140" points="197,192.7 204.5,188.7 204.5,188.7 196.9,192.7 			"/>
		</g>
		<g>
			<defs>
				<path id="SVGID_269_" d="M162.9,183.9c2.5,0.3,5.5,0.2,7.9,0.5c8.8,1.3,26.1,8.4,26.4,8.4h0c2.4-1.6,4.3-2.5,5.9-3.3l1.6-0.7
					c-1.1-0.5-22.2-9.4-33-10.9c-2.8-0.4-5.8-0.6-8.8-0.6"/>
			</defs>
			<clipPath id="SVGID_270_">
				<use xlink:href="#SVGID_269_"  style="overflow:visible;"/>
			</clipPath>
			<polyline class="st141" points="196.9,192.7 204.5,188.7 204.5,188.7 196.9,192.7 			"/>
		</g>
		<g>
			<defs>
				<path id="SVGID_271_" d="M162.9,183.9c2.5,0.3,5.5,0.2,7.9,0.5c8.8,1.3,26.1,8.4,26.4,8.4h0c2.4-1.6,4.3-2.5,5.9-3.3l1.6-0.7
					c-1.1-0.5-22.2-9.4-33-10.9c-2.8-0.4-5.8-0.6-8.8-0.6"/>
			</defs>
			<clipPath id="SVGID_272_">
				<use xlink:href="#SVGID_271_"  style="overflow:visible;"/>
			</clipPath>
			<polyline class="st142" points="196.9,192.7 204.5,188.7 204.5,188.7 196.9,192.6 			"/>
		</g>
		<g>
			<defs>
				<path id="SVGID_273_" d="M162.9,183.9c2.5,0.3,5.5,0.2,7.9,0.5c8.8,1.3,26.1,8.4,26.4,8.4h0c2.4-1.6,4.3-2.5,5.9-3.3l1.6-0.7
					c-1.1-0.5-22.2-9.4-33-10.9c-2.8-0.4-5.8-0.6-8.8-0.6"/>
			</defs>
			<clipPath id="SVGID_274_">
				<use xlink:href="#SVGID_273_"  style="overflow:visible;"/>
			</clipPath>
			<polyline class="st143" points="196.9,192.6 204.5,188.7 204.6,188.7 196.9,192.6 			"/>
		</g>
		<g>
			<defs>
				<path id="SVGID_275_" d="M162.9,183.9c2.5,0.3,5.5,0.2,7.9,0.5c8.8,1.3,26.1,8.4,26.4,8.4h0c2.4-1.6,4.3-2.5,5.9-3.3l1.6-0.7
					c-1.1-0.5-22.2-9.4-33-10.9c-2.8-0.4-5.8-0.6-8.8-0.6"/>
			</defs>
			<clipPath id="SVGID_276_">
				<use xlink:href="#SVGID_275_"  style="overflow:visible;"/>
			</clipPath>
			<polyline class="st144" points="196.9,192.6 204.6,188.7 204.6,188.7 196.8,192.6 			"/>
		</g>
		<g>
			<defs>
				<path id="SVGID_277_" d="M162.9,183.9c2.5,0.3,5.5,0.2,7.9,0.5c8.8,1.3,26.1,8.4,26.4,8.4h0c2.4-1.6,4.3-2.5,5.9-3.3l1.6-0.7
					c-1.1-0.5-22.2-9.4-33-10.9c-2.8-0.4-5.8-0.6-8.8-0.6"/>
			</defs>
			<clipPath id="SVGID_278_">
				<use xlink:href="#SVGID_277_"  style="overflow:visible;"/>
			</clipPath>
			<polyline class="st145" points="196.8,192.6 204.6,188.7 204.6,188.7 196.8,192.6 			"/>
		</g>
		<g>
			<defs>
				<path id="SVGID_279_" d="M162.9,183.9c2.5,0.3,5.5,0.2,7.9,0.5c8.8,1.3,26.1,8.4,26.4,8.4h0c2.4-1.6,4.3-2.5,5.9-3.3l1.6-0.7
					c-1.1-0.5-22.2-9.4-33-10.9c-2.8-0.4-5.8-0.6-8.8-0.6"/>
			</defs>
			<clipPath id="SVGID_280_">
				<use xlink:href="#SVGID_279_"  style="overflow:visible;"/>
			</clipPath>
			<polyline class="st146" points="196.8,192.6 204.6,188.7 204.6,188.7 196.8,192.6 			"/>
		</g>
		<g>
			<defs>
				<path id="SVGID_281_" d="M162.9,183.9c2.5,0.3,5.5,0.2,7.9,0.5c8.8,1.3,26.1,8.4,26.4,8.4h0c2.4-1.6,4.3-2.5,5.9-3.3l1.6-0.7
					c-1.1-0.5-22.2-9.4-33-10.9c-2.8-0.4-5.8-0.6-8.8-0.6"/>
			</defs>
			<clipPath id="SVGID_282_">
				<use xlink:href="#SVGID_281_"  style="overflow:visible;"/>
			</clipPath>
			<polyline class="st147" points="196.8,192.6 204.6,188.7 204.6,188.7 196.7,192.6 			"/>
		</g>
		<g>
			<defs>
				<path id="SVGID_283_" d="M162.9,183.9c2.5,0.3,5.5,0.2,7.9,0.5c8.8,1.3,26.1,8.4,26.4,8.4h0c2.4-1.6,4.3-2.5,5.9-3.3l1.6-0.7
					c-1.1-0.5-22.2-9.4-33-10.9c-2.8-0.4-5.8-0.6-8.8-0.6"/>
			</defs>
			<clipPath id="SVGID_284_">
				<use xlink:href="#SVGID_283_"  style="overflow:visible;"/>
			</clipPath>
			<polyline class="st148" points="196.7,192.6 204.6,188.7 204.6,188.7 196.7,192.6 			"/>
		</g>
		<g>
			<defs>
				<path id="SVGID_285_" d="M162.9,183.9c2.5,0.3,5.5,0.2,7.9,0.5c8.8,1.3,26.1,8.4,26.4,8.4h0c2.4-1.6,4.3-2.5,5.9-3.3l1.6-0.7
					c-1.1-0.5-22.2-9.4-33-10.9c-2.8-0.4-5.8-0.6-8.8-0.6"/>
			</defs>
			<clipPath id="SVGID_286_">
				<use xlink:href="#SVGID_285_"  style="overflow:visible;"/>
			</clipPath>
			<polyline class="st149" points="196.7,192.6 204.6,188.7 204.7,188.8 196.6,192.5 			"/>
		</g>
		<g>
			<defs>
				<path id="SVGID_287_" d="M162.9,183.9c2.5,0.3,5.5,0.2,7.9,0.5c8.8,1.3,26.1,8.4,26.4,8.4h0c2.4-1.6,4.3-2.5,5.9-3.3l1.6-0.7
					c-1.1-0.5-22.2-9.4-33-10.9c-2.8-0.4-5.8-0.6-8.8-0.6"/>
			</defs>
			<clipPath id="SVGID_288_">
				<use xlink:href="#SVGID_287_"  style="overflow:visible;"/>
			</clipPath>
			<polyline class="st150" points="196.6,192.5 204.7,188.8 204.7,188.8 196.6,192.5 			"/>
		</g>
		<g>
			<defs>
				<path id="SVGID_289_" d="M162.9,183.9c2.5,0.3,5.5,0.2,7.9,0.5c8.8,1.3,26.1,8.4,26.4,8.4h0c2.4-1.6,4.3-2.5,5.9-3.3l1.6-0.7
					c-1.1-0.5-22.2-9.4-33-10.9c-2.8-0.4-5.8-0.6-8.8-0.6"/>
			</defs>
			<clipPath id="SVGID_290_">
				<use xlink:href="#SVGID_289_"  style="overflow:visible;"/>
			</clipPath>
			<polyline class="st151" points="196.6,192.5 204.7,188.8 204.7,188.8 196.6,192.5 			"/>
		</g>
	</g>
	<polyline class="st36" points="196.6,192.5 204.7,188.8 195.4,218 186.4,224.6 	"/>
	<path class="st36" d="M162.9,183.9c2.5,0.3,5.5,0.2,7.9,0.5c9.8,1.4,30.3,10.1,25.8,8.1l-10.2,32.1h20.1l11.9-33.9l37.4,0.1
		l12,33.6h13.5l7.7-33.6l31.5,0l4.2,12.5l7.1,20.8l6.4-20.3l4.6-13l32,0.1l1,6.5l0.6,4.1l3.4,21.7h34.5v50.8h-25.7l0.9,8.4l1.1,8.9
		l-34.6,0l-6-26.7l-9.5,26.7h-20.2l-8.9-27.6l-6.9,27.6h-50.2l-6.8-20.8l-21-0.1l-7.8,20.7h-33.9l1.4-4.3c-16.5,4.9-23.1,5.6-30,5.6
		c-8.2,0-16.2-1-20.8-2.7c-9.7-3.5-30.2-14.5-32.7-15.9H85.9c0,5.2,0-20.7,0-39.7c0-9.7,0-16.6-0.2-11.1h34
		c-0.7-7.7-0.5-8.5-0.7-8.8c0-6.7,4.3-18.3,22.2-26.7C146.2,185.3,154.7,183.9,162.9,183.9"/>
	<g>
		<g>
			<defs>
				<path id="SVGID_291_" d="M79.2,232.5v2.2c0,18.9,0.1,44.3,0.1,45.6c2.4-2.4,3.7-3.7,6.6-5.9c0,0,0-23.1,0-40.4
					c0-7.3,0-13-0.1-13.1c-2.5-1.1-3.9-2-5.5-3.6l-1-1C79.2,217.3,79.2,223.6,79.2,232.5"/>
			</defs>
			<clipPath id="SVGID_292_">
				<use xlink:href="#SVGID_291_"  style="overflow:visible;"/>
			</clipPath>
			<polyline class="st152" points="85.9,273.7 79.3,280.3 85.9,273.7 			"/>
		</g>
		<g>
			<defs>
				<path id="SVGID_293_" d="M79.2,232.5v2.2c0,18.9,0.1,44.3,0.1,45.6c2.4-2.4,3.7-3.7,6.6-5.9c0,0,0-23.1,0-40.4
					c0-7.3,0-13-0.1-13.1c-2.5-1.1-3.9-2-5.5-3.6l-1-1C79.2,217.3,79.2,223.6,79.2,232.5"/>
			</defs>
			<clipPath id="SVGID_294_">
				<use xlink:href="#SVGID_293_"  style="overflow:visible;"/>
			</clipPath>
			<polyline class="st153" points="85.9,273.7 79.3,280.3 79.3,280.3 85.9,273.8 			"/>
		</g>
		<g>
			<defs>
				<path id="SVGID_295_" d="M79.2,232.5v2.2c0,18.9,0.1,44.3,0.1,45.6c2.4-2.4,3.7-3.7,6.6-5.9c0,0,0-23.1,0-40.4
					c0-7.3,0-13-0.1-13.1c-2.5-1.1-3.9-2-5.5-3.6l-1-1C79.2,217.3,79.2,223.6,79.2,232.5"/>
			</defs>
			<clipPath id="SVGID_296_">
				<use xlink:href="#SVGID_295_"  style="overflow:visible;"/>
			</clipPath>
			<polyline class="st154" points="85.9,273.8 79.3,280.3 79.3,280.3 85.9,273.9 			"/>
		</g>
		<g>
			<defs>
				<path id="SVGID_297_" d="M79.2,232.5v2.2c0,18.9,0.1,44.3,0.1,45.6c2.4-2.4,3.7-3.7,6.6-5.9c0,0,0-23.1,0-40.4
					c0-7.3,0-13-0.1-13.1c-2.5-1.1-3.9-2-5.5-3.6l-1-1C79.2,217.3,79.2,223.6,79.2,232.5"/>
			</defs>
			<clipPath id="SVGID_298_">
				<use xlink:href="#SVGID_297_"  style="overflow:visible;"/>
			</clipPath>
			<polyline class="st155" points="85.9,273.9 79.3,280.3 79.3,280.2 85.9,273.9 			"/>
		</g>
		<g>
			<defs>
				<path id="SVGID_299_" d="M79.2,232.5v2.2c0,18.9,0.1,44.3,0.1,45.6c2.4-2.4,3.7-3.7,6.6-5.9c0,0,0-23.1,0-40.4
					c0-7.3,0-13-0.1-13.1c-2.5-1.1-3.9-2-5.5-3.6l-1-1C79.2,217.3,79.2,223.6,79.2,232.5"/>
			</defs>
			<clipPath id="SVGID_300_">
				<use xlink:href="#SVGID_299_"  style="overflow:visible;"/>
			</clipPath>
			<polyline class="st156" points="85.9,273.9 79.3,280.2 79.3,280.2 85.9,274 			"/>
		</g>
		<g>
			<defs>
				<path id="SVGID_301_" d="M79.2,232.5v2.2c0,18.9,0.1,44.3,0.1,45.6c2.4-2.4,3.7-3.7,6.6-5.9c0,0,0-23.1,0-40.4
					c0-7.3,0-13-0.1-13.1c-2.5-1.1-3.9-2-5.5-3.6l-1-1C79.2,217.3,79.2,223.6,79.2,232.5"/>
			</defs>
			<clipPath id="SVGID_302_">
				<use xlink:href="#SVGID_301_"  style="overflow:visible;"/>
			</clipPath>
			<polyline class="st157" points="85.9,274 79.3,280.2 79.3,280.2 85.9,274 			"/>
		</g>
		<g>
			<defs>
				<path id="SVGID_303_" d="M79.2,232.5v2.2c0,18.9,0.1,44.3,0.1,45.6c2.4-2.4,3.7-3.7,6.6-5.9c0,0,0-23.1,0-40.4
					c0-7.3,0-13-0.1-13.1c-2.5-1.1-3.9-2-5.5-3.6l-1-1C79.2,217.3,79.2,223.6,79.2,232.5"/>
			</defs>
			<clipPath id="SVGID_304_">
				<use xlink:href="#SVGID_303_"  style="overflow:visible;"/>
			</clipPath>
			<polyline class="st158" points="85.9,274 79.3,280.2 79.3,280.1 85.9,274.1 			"/>
		</g>
		<g>
			<defs>
				<path id="SVGID_305_" d="M79.2,232.5v2.2c0,18.9,0.1,44.3,0.1,45.6c2.4-2.4,3.7-3.7,6.6-5.9c0,0,0-23.1,0-40.4
					c0-7.3,0-13-0.1-13.1c-2.5-1.1-3.9-2-5.5-3.6l-1-1C79.2,217.3,79.2,223.6,79.2,232.5"/>
			</defs>
			<clipPath id="SVGID_306_">
				<use xlink:href="#SVGID_305_"  style="overflow:visible;"/>
			</clipPath>
			<polyline class="st159" points="85.9,274.1 79.3,280.1 79.3,280.1 85.9,274.1 			"/>
		</g>
		<g>
			<defs>
				<path id="SVGID_307_" d="M79.2,232.5v2.2c0,18.9,0.1,44.3,0.1,45.6c2.4-2.4,3.7-3.7,6.6-5.9c0,0,0-23.1,0-40.4
					c0-7.3,0-13-0.1-13.1c-2.5-1.1-3.9-2-5.5-3.6l-1-1C79.2,217.3,79.2,223.6,79.2,232.5"/>
			</defs>
			<clipPath id="SVGID_308_">
				<use xlink:href="#SVGID_307_"  style="overflow:visible;"/>
			</clipPath>
			<polyline class="st160" points="85.9,274.1 79.3,280.1 79.3,280.1 85.9,274.2 			"/>
		</g>
		<g>
			<defs>
				<path id="SVGID_309_" d="M79.2,232.5v2.2c0,18.9,0.1,44.3,0.1,45.6c2.4-2.4,3.7-3.7,6.6-5.9c0,0,0-23.1,0-40.4
					c0-7.3,0-13-0.1-13.1c-2.5-1.1-3.9-2-5.5-3.6l-1-1C79.2,217.3,79.2,223.6,79.2,232.5"/>
			</defs>
			<clipPath id="SVGID_310_">
				<use xlink:href="#SVGID_309_"  style="overflow:visible;"/>
			</clipPath>
			<polyline class="st161" points="85.9,274.2 79.3,280.1 79.3,280 85.9,274.2 			"/>
		</g>
		<g>
			<defs>
				<path id="SVGID_311_" d="M79.2,232.5v2.2c0,18.9,0.1,44.3,0.1,45.6c2.4-2.4,3.7-3.7,6.6-5.9c0,0,0-23.1,0-40.4
					c0-7.3,0-13-0.1-13.1c-2.5-1.1-3.9-2-5.5-3.6l-1-1C79.2,217.3,79.2,223.6,79.2,232.5"/>
			</defs>
			<clipPath id="SVGID_312_">
				<use xlink:href="#SVGID_311_"  style="overflow:visible;"/>
			</clipPath>
			<polyline class="st162" points="85.9,274.2 79.3,280 79.3,280 85.9,274.2 			"/>
		</g>
		<g>
			<defs>
				<path id="SVGID_313_" d="M79.2,232.5v2.2c0,18.9,0.1,44.3,0.1,45.6c2.4-2.4,3.7-3.7,6.6-5.9c0,0,0-23.1,0-40.4
					c0-7.3,0-13-0.1-13.1c-2.5-1.1-3.9-2-5.5-3.6l-1-1C79.2,217.3,79.2,223.6,79.2,232.5"/>
			</defs>
			<clipPath id="SVGID_314_">
				<use xlink:href="#SVGID_313_"  style="overflow:visible;"/>
			</clipPath>
			<path class="st163" d="M85.9,274.2l-6.6,5.7c0-3.4,0-27.8,0-46c0-8.3,0-14.6,0-16.9l6.5,4.1c0.1-1.8,0.1,4.5,0.1,12.8
				C85.8,252.1,85.9,276.6,85.9,274.2"/>
		</g>
		<g>
			<defs>
				<path id="SVGID_315_" d="M79.2,232.5v2.2c0,18.9,0.1,44.3,0.1,45.6c2.4-2.4,3.7-3.7,6.6-5.9c0,0,0-23.1,0-40.4
					c0-7.3,0-13-0.1-13.1c-2.5-1.1-3.9-2-5.5-3.6l-1-1C79.2,217.3,79.2,223.6,79.2,232.5"/>
			</defs>
			<clipPath id="SVGID_316_">
				<use xlink:href="#SVGID_315_"  style="overflow:visible;"/>
			</clipPath>
			<polyline class="st164" points="85.7,221.3 79.3,217.1 79.3,217.1 85.7,221.3 			"/>
		</g>
		<g>
			<defs>
				<path id="SVGID_317_" d="M79.2,232.5v2.2c0,18.9,0.1,44.3,0.1,45.6c2.4-2.4,3.7-3.7,6.6-5.9c0,0,0-23.1,0-40.4
					c0-7.3,0-13-0.1-13.1c-2.5-1.1-3.9-2-5.5-3.6l-1-1C79.2,217.3,79.2,223.6,79.2,232.5"/>
			</defs>
			<clipPath id="SVGID_318_">
				<use xlink:href="#SVGID_317_"  style="overflow:visible;"/>
			</clipPath>
			<polyline class="st165" points="85.7,221.3 79.3,217.1 79.3,217 85.7,221.3 			"/>
		</g>
		<g>
			<defs>
				<path id="SVGID_319_" d="M79.2,232.5v2.2c0,18.9,0.1,44.3,0.1,45.6c2.4-2.4,3.7-3.7,6.6-5.9c0,0,0-23.1,0-40.4
					c0-7.3,0-13-0.1-13.1c-2.5-1.1-3.9-2-5.5-3.6l-1-1C79.2,217.3,79.2,223.6,79.2,232.5"/>
			</defs>
			<clipPath id="SVGID_320_">
				<use xlink:href="#SVGID_319_"  style="overflow:visible;"/>
			</clipPath>
			<polyline class="st166" points="85.7,221.3 79.3,217 79.3,217 85.7,221.4 			"/>
		</g>
		<g>
			<defs>
				<path id="SVGID_321_" d="M79.2,232.5v2.2c0,18.9,0.1,44.3,0.1,45.6c2.4-2.4,3.7-3.7,6.6-5.9c0,0,0-23.1,0-40.4
					c0-7.3,0-13-0.1-13.1c-2.5-1.1-3.9-2-5.5-3.6l-1-1C79.2,217.3,79.2,223.6,79.2,232.5"/>
			</defs>
			<clipPath id="SVGID_322_">
				<use xlink:href="#SVGID_321_"  style="overflow:visible;"/>
			</clipPath>
			<polyline class="st167" points="85.7,221.4 79.3,217 79.3,216.9 85.7,221.4 			"/>
		</g>
		<g>
			<defs>
				<path id="SVGID_323_" d="M79.2,232.5v2.2c0,18.9,0.1,44.3,0.1,45.6c2.4-2.4,3.7-3.7,6.6-5.9c0,0,0-23.1,0-40.4
					c0-7.3,0-13-0.1-13.1c-2.5-1.1-3.9-2-5.5-3.6l-1-1C79.2,217.3,79.2,223.6,79.2,232.5"/>
			</defs>
			<clipPath id="SVGID_324_">
				<use xlink:href="#SVGID_323_"  style="overflow:visible;"/>
			</clipPath>
			<polyline class="st168" points="85.7,221.4 79.3,216.9 79.3,216.9 85.7,221.5 			"/>
		</g>
		<g>
			<defs>
				<path id="SVGID_325_" d="M79.2,232.5v2.2c0,18.9,0.1,44.3,0.1,45.6c2.4-2.4,3.7-3.7,6.6-5.9c0,0,0-23.1,0-40.4
					c0-7.3,0-13-0.1-13.1c-2.5-1.1-3.9-2-5.5-3.6l-1-1C79.2,217.3,79.2,223.6,79.2,232.5"/>
			</defs>
			<clipPath id="SVGID_326_">
				<use xlink:href="#SVGID_325_"  style="overflow:visible;"/>
			</clipPath>
			<polyline class="st169" points="85.7,221.5 79.3,216.9 79.3,216.9 85.7,221.5 			"/>
		</g>
		<g>
			<defs>
				<path id="SVGID_327_" d="M79.2,232.5v2.2c0,18.9,0.1,44.3,0.1,45.6c2.4-2.4,3.7-3.7,6.6-5.9c0,0,0-23.1,0-40.4
					c0-7.3,0-13-0.1-13.1c-2.5-1.1-3.9-2-5.5-3.6l-1-1C79.2,217.3,79.2,223.6,79.2,232.5"/>
			</defs>
			<clipPath id="SVGID_328_">
				<use xlink:href="#SVGID_327_"  style="overflow:visible;"/>
			</clipPath>
			<polyline class="st170" points="85.7,221.5 79.3,216.9 79.3,216.8 85.7,221.5 			"/>
		</g>
		<g>
			<defs>
				<path id="SVGID_329_" d="M79.2,232.5v2.2c0,18.9,0.1,44.3,0.1,45.6c2.4-2.4,3.7-3.7,6.6-5.9c0,0,0-23.1,0-40.4
					c0-7.3,0-13-0.1-13.1c-2.5-1.1-3.9-2-5.5-3.6l-1-1C79.2,217.3,79.2,223.6,79.2,232.5"/>
			</defs>
			<clipPath id="SVGID_330_">
				<use xlink:href="#SVGID_329_"  style="overflow:visible;"/>
			</clipPath>
			<polyline class="st171" points="85.7,221.5 79.3,216.8 79.3,216.8 85.7,221.6 			"/>
		</g>
		<g>
			<defs>
				<path id="SVGID_331_" d="M79.2,232.5v2.2c0,18.9,0.1,44.3,0.1,45.6c2.4-2.4,3.7-3.7,6.6-5.9c0,0,0-23.1,0-40.4
					c0-7.3,0-13-0.1-13.1c-2.5-1.1-3.9-2-5.5-3.6l-1-1C79.2,217.3,79.2,223.6,79.2,232.5"/>
			</defs>
			<clipPath id="SVGID_332_">
				<use xlink:href="#SVGID_331_"  style="overflow:visible;"/>
			</clipPath>
			<polyline class="st172" points="85.7,221.6 79.3,216.8 79.3,216.6 85.7,221.9 			"/>
		</g>
		<g>
			<defs>
				<path id="SVGID_333_" d="M79.2,232.5v2.2c0,18.9,0.1,44.3,0.1,45.6c2.4-2.4,3.7-3.7,6.6-5.9c0,0,0-23.1,0-40.4
					c0-7.3,0-13-0.1-13.1c-2.5-1.1-3.9-2-5.5-3.6l-1-1C79.2,217.3,79.2,223.6,79.2,232.5"/>
			</defs>
			<clipPath id="SVGID_334_">
				<use xlink:href="#SVGID_333_"  style="overflow:visible;"/>
			</clipPath>
			<path class="st173" d="M85.7,221.9l-6.4-5.3l0-0.3l6.4,6.6C85.7,222.5,85.7,222.2,85.7,221.9"/>
		</g>
	</g>
	<g>
		<g>
			<defs>
				<path id="SVGID_335_" d="M112.4,214.1c0,0.8,0,1.5,0.1,2.2l7.2,6.6c-0.6-7.7-0.5-8.4-0.7-8.8c0-6.7,4.3-18.3,22.2-26.8l-2.8-6
					C117.8,190.9,112.4,205.1,112.4,214.1"/>
			</defs>
			<clipPath id="SVGID_336_">
				<use xlink:href="#SVGID_335_"  style="overflow:visible;"/>
			</clipPath>
			<path class="st174" d="M119.6,222.9l-7.2-6.6c-0.1-0.7-0.1-1.5-0.1-2.2c0-8.9,5.5-23.1,26-32.7l2.8,6
				c-17.9,8.5-22.2,20-22.2,26.8C119.1,214.5,119,215.2,119.6,222.9"/>
		</g>
	</g>
	<g>
		<g>
			<defs>
				<path id="SVGID_337_" d="M138.3,181.3l2.8,6c5-2,13.6-3.4,21.7-3.4v-6.6C154,177.3,144.6,178.8,138.3,181.3"/>
			</defs>
			<clipPath id="SVGID_338_">
				<use xlink:href="#SVGID_337_"  style="overflow:visible;"/>
			</clipPath>
			<path class="st175" d="M141.1,187.3l-2.8-6c0.6-0.3,1.3-0.5,2-0.8l2.4,6.1C142.2,186.9,141.7,187.1,141.1,187.3"/>
		</g>
		<g>
			<defs>
				<path id="SVGID_339_" d="M138.3,181.3l2.8,6c5-2,13.6-3.4,21.7-3.4v-6.6C154,177.3,144.6,178.8,138.3,181.3"/>
			</defs>
			<clipPath id="SVGID_340_">
				<use xlink:href="#SVGID_339_"  style="overflow:visible;"/>
			</clipPath>
			<path class="st176" d="M142.8,186.7l-2.4-6.1c1.4-0.5,2.8-0.9,4.4-1.2l1.8,6.3C145.2,186,143.9,186.3,142.8,186.7"/>
		</g>
		<g>
			<defs>
				<path id="SVGID_341_" d="M138.3,181.3l2.8,6c5-2,13.6-3.4,21.7-3.4v-6.6C154,177.3,144.6,178.8,138.3,181.3"/>
			</defs>
			<clipPath id="SVGID_342_">
				<use xlink:href="#SVGID_341_"  style="overflow:visible;"/>
			</clipPath>
			<path class="st177" d="M146.5,185.7l-1.8-6.3c1.5-0.4,3-0.7,4.6-0.9l1.2,6.5C149.1,185.1,147.8,185.4,146.5,185.7"/>
		</g>
		<g>
			<defs>
				<path id="SVGID_343_" d="M138.3,181.3l2.8,6c5-2,13.6-3.4,21.7-3.4v-6.6C154,177.3,144.6,178.8,138.3,181.3"/>
			</defs>
			<clipPath id="SVGID_344_">
				<use xlink:href="#SVGID_343_"  style="overflow:visible;"/>
			</clipPath>
			<path class="st178" d="M150.5,184.9l-1.2-6.5c1.5-0.3,3-0.5,4.6-0.6l0.8,6.5C153.2,184.5,151.9,184.7,150.5,184.9"/>
		</g>
		<g>
			<defs>
				<path id="SVGID_345_" d="M138.3,181.3l2.8,6c5-2,13.6-3.4,21.7-3.4v-6.6C154,177.3,144.6,178.8,138.3,181.3"/>
			</defs>
			<clipPath id="SVGID_346_">
				<use xlink:href="#SVGID_345_"  style="overflow:visible;"/>
			</clipPath>
			<path class="st179" d="M154.6,184.3l-0.8-6.5c1.4-0.2,2.8-0.3,4.2-0.4l0.4,6.6C157.2,184.1,155.9,184.2,154.6,184.3"/>
		</g>
		<g>
			<defs>
				<path id="SVGID_347_" d="M138.3,181.3l2.8,6c5-2,13.6-3.4,21.7-3.4v-6.6C154,177.3,144.6,178.8,138.3,181.3"/>
			</defs>
			<clipPath id="SVGID_348_">
				<use xlink:href="#SVGID_347_"  style="overflow:visible;"/>
			</clipPath>
			<path class="st180" d="M158.5,184l-0.4-6.6c1.2-0.1,2.5-0.1,3.7-0.1l0.1,6.6C160.8,183.9,159.6,183.9,158.5,184"/>
		</g>
		<g>
			<defs>
				<path id="SVGID_349_" d="M138.3,181.3l2.8,6c5-2,13.6-3.4,21.7-3.4v-6.6C154,177.3,144.6,178.8,138.3,181.3"/>
			</defs>
			<clipPath id="SVGID_350_">
				<use xlink:href="#SVGID_349_"  style="overflow:visible;"/>
			</clipPath>
			<path class="st181" d="M161.9,183.9l-0.1-6.6c0.4,0,0.7,0,1.1,0v6.6C162.5,183.9,162.2,183.9,161.9,183.9"/>
		</g>
	</g>
	<polyline class="st119" points="102.5,273.7 100.8,280.3 79.3,280.3 85.9,273.7 	"/>
	<polyline class="st118" points="186.4,224.6 195.4,218 196.5,218 196.5,224.6 	"/>
	<polyline class="st118" points="196.5,224.6 196.5,218 201.9,218 206.5,224.6 	"/>
	<polyline class="st120" points="206.5,224.6 201.9,218 213.8,184 218.4,190.6 	"/>
	<polyline class="st118" points="218.4,190.7 213.8,184 260.5,184.2 255.8,190.8 	"/>
	<polyline class="st36" points="255.8,190.8 260.5,184.2 272.4,217.8 267.8,224.4 	"/>
	<polyline class="st118" points="267.8,224.4 272.4,217.8 276,217.8 281.3,224.4 	"/>
	<polyline class="st120" points="281.3,224.4 276,217.8 283.8,184.1 289,190.7 	"/>
	<polyline class="st118" points="289,190.7 283.8,184.1 325.2,184.2 320.5,190.8 	"/>
	<polyline class="st36" points="320.5,190.8 325.2,184.2 330.9,201.2 324.7,203.3 	"/>
	<polyline class="st36" points="324.7,203.3 330.9,201.2 331.5,202.9 331.8,224.1 	"/>
	<polyline class="st120" points="331.8,224.1 331.5,202.9 331.9,201.8 338.2,203.8 	"/>
	<polyline class="st120" points="338.2,203.8 331.9,201.8 338,184.2 342.7,190.8 	"/>
	<polyline class="st118" points="342.7,190.8 338,184.2 380.4,184.3 374.8,190.9 	"/>
	<polyline class="st36" points="374.8,190.9 380.4,184.3 382.3,196.3 375.8,197.4 	"/>
	<polyline class="st36" points="375.8,197.4 382.3,196.3 383,200.4 376.4,201.4 	"/>
	<path d="M394.2,191.5h4.4c0.7,0,1.3,0.1,1.8,0.3c0.9,0.4,1.3,1.2,1.3,2.3c0,0.6-0.1,1.1-0.4,1.4c-0.2,0.4-0.6,0.7-1,0.9
		c0.4,0.1,0.7,0.3,0.9,0.6c0.2,0.3,0.3,0.7,0.3,1.2l0,1.3c0,0.4,0.1,0.6,0.1,0.8c0.1,0.3,0.2,0.5,0.4,0.6v0.2h-1.6l-0.1-0.3
		c0-0.1,0-0.4-0.1-0.8l-0.1-1.6c0-0.6-0.3-1.1-0.7-1.3c-0.2-0.1-0.6-0.2-1.1-0.2h-2.9v4.1h-1.3 M398.4,196c0.6,0,1.1-0.1,1.4-0.4
		c0.4-0.3,0.5-0.7,0.5-1.3c0-0.7-0.3-1.2-0.7-1.4c-0.3-0.1-0.6-0.2-1-0.2h-3.1v3.3L398.4,196L398.4,196z"/>
	<path class="st182" d="M377.9,200.6l-0.7-4.1l-1.1-7.4l-33.7-0.1l-4.6,13.3l-0.2,0.6l-5.7,16.3l-5.2-15.3l-0.3-1l-0.2-0.7
		l-4.5-13.2l-33.1-0.1l-7.8,33.7H269L257,189.1l-38.9-0.1l-11.9,33.9h-17.9l10-31.5c-2.1-0.8-4.7-1.8-7.5-2.9
		c-6.7-2.5-14.9-5.1-19.4-5.8c-2.5-0.4-5.2-0.5-8.1-0.5c-8.1,0-17,1.5-22.3,3.6c-18.7,8.9-22.5,21-22.7,27.6v0.3
		c0,0.5,0,0.9,0.1,1.3l0.7,6.1H85.2c0,3,0,7,0,11.5v1.4c0,13.6,0,31.2,0,40h17.4l1.2,0.7c0,0,5.4,2.9,12.1,6.3
		c6.6,3.4,14.7,7.2,19.3,8.9c4.4,1.6,12.9,2.8,21.2,2.8c7,0,13.9-0.8,18.5-2.1l10-3l-1.2,3.8h36.1l7.8-20.7l19.5,0.1l6.9,20.8h51.9
		l6.2-24.7l8,24.7h21.7l8.6-24l5.3,24l36.6,0l-1.2-10l0-0.1l-0.9-7.3h25.6v-52.9h-34.6L377.9,200.6"/>
	<path class="st182" d="M156.2,294.4c-8.3,0-16.9-1.1-21.5-2.9c-5.3-1.9-14.5-6.4-19.5-9c-0.1-0.1-9.9-5-12.1-6.3l0,0l-0.9-0.5H83.6
		l0-1.6c0-8.8,0-26.4,0-40v-1.4c0-4.5,0-8.5,0-11.5l0-1.6h33.7l-0.5-4.3c0-0.5-0.1-0.9-0.1-1.5v-0.4c0.1-5.4,2.6-19.1,23.6-29.1
		l0.1,0c5.6-2.3,14.7-3.8,22.8-3.8c3.1,0,5.9,0.2,8.5,0.5c5.8,0.8,16.6,4.7,19.7,5.8c2.6,1,5.1,1.9,7,2.7l2,0.8l-9.8,30.8h14.5
		l11.9-33.9l41.2,0.2l11.9,33.6h9.4l7.8-33.7l35.5,0.1l9.1,26.8l9.3-26.8l36.3,0.1l5,32.2h34.9v56.2H392l2.1,17.3l-39.8,0l-4.4-19.7
		l-7.1,19.7h-24.1l-6.6-20.4l-5.1,20.4h-54.3l-6.9-20.8l-17.2-0.1l-7.8,20.7h-39.5l1-3l-7,2.1c-4.6,1.4-11.7,2.2-18.9,2.2
		C156.4,294.4,156.3,294.4,156.2,294.4z M104.9,273.4c1,0.5,5.8,3.1,11.8,6.1c4.9,2.5,14,7,19.1,8.8c4.3,1.6,12.5,2.7,20.4,2.7
		c0.1,0,0.2,0,0.3,0c6.9,0,13.6-0.8,17.9-2.1l13-3.8l-1.5,4.6h32.7l7.8-20.7l21.8,0.1l6.9,20.8h49.4l7.2-29l9.4,29h19.4l10.2-28.3
		l6.3,28.2l33.5,0l-2.1-17.3h25.8V223h-34.4l-5-32.2l-31.1-0.1l-11.7,33.7l-11.4-33.7l-30.6-0.1l-7.8,33.7h-14.4l-11.9-33.6
		l-36.6-0.1l-11.9,33.9H186l10.2-32.2c-1.8-0.7-3.8-1.5-6.1-2.3c-8.2-3-15.4-5.2-19.1-5.7c-2.4-0.3-5.1-0.5-8-0.5
		c-7.7,0-16.3,1.4-21.5,3.5c-19.3,9.2-21.6,21.4-21.7,26.1v0.3c0,0.4,0,0.8,0.1,1.1l0.9,8H86.9c0,2.8,0,6.2,0,9.9v1.4
		c0,12.8,0,29.2,0,38.4H103L104.9,273.4z"/>
	<path class="st183" d="M193,244.7h15.8l3.1-8.6h-26.4C185.5,236.1,191,239.4,193,244.7"/>
	<polyline class="st183" points="268.9,249.4 278.7,283.6 285.3,249.4 	"/>
	<polyline class="st183" points="267.7,244.7 286,244.7 287.7,236.1 265.1,236.1 	"/>
	<polyline class="st183" points="229.2,244.7 248.6,244.7 239.9,215.6 	"/>
	<path class="st183" d="M414.3,263.5h-28l-0.8-5.1h28.8v-8.6h-30.1l-0.8-5.1h30.9v-8.6H382l-0.8-5.1h33.1v-8.6h-34.4l-5-32.1
		l-31.6,0l-11.3,32.1l-11.2-32.2l-31.3,0l-7.8,33.7l-14-0.1l-11.2-33.6h-37.6l-11.9,33.9h-9.1c-10.8,0-29.1,0-30.8-0.1l-0.6,0
		l-0.5-0.3c-2.1-1.3-3.7-3.1-3.8-5.5c0-2.2,1.5-3.8,3.3-4.7c1.8-0.9,4.1-1.4,6.9-1.4c4.2,0,9.7,1.1,16,3.9l7.7-24.4
		c-1.2-0.6-2.9-1.4-5.1-2.3c-4.2-1.8-9.9-3.8-16.1-5c-1.4-0.3-6.3-1-12.3-1c-7,0-15.5,0.9-22.5,3.9c-10.8,5.1-15.6,10.6-17.8,15.7
		c-2.3,5.1-2.1,10.1-2.2,14.6v0.2c0,1.5,0.2,3,0.6,4.5H86.1v8.6h38.2c0.4,0.7,0.8,1.3,1,1.6c0.7,1.1,1.9,2.3,3.3,3.5H86.1v8.6h53.2
		v-0.8l0.7,0.4c4.5,2.8,11.1,5.3,14.1,6c3.1,0.6,5.4,2.7,5.4,5.3c-0.2,3.4-3.1,5.7-6.6,5.7c-0.8,0-1.7-0.2-2.6-0.5
		c-9.8-1.6-17.4-6.6-26-12.5l-1,1.4H86.1v8.6h31.3l-3.4,5.1H86.2v8.5h22.1l-2,3c9.2,6.5,24.7,12.8,30.8,14.2
		c6.5,1.5,13.4,2.3,20.1,2.3c9.9,0,19.1-1.8,24.4-5.3l4.7-3l-1.3,5.5l-0.4,1.6l34,0l7.4-20.6l21.6-0.1l7,20.5l49.8,0l6.9-28.3
		l9.4,28.3h19.8l10.2-29.1l5.7,29.1l34.1,0l-2.9-18.2h26.6 M362.4,283.7l-8.4-50.4l-17.6,50.3l-11-0.1l-16.3-50.9l-10.3,50.9h-38.5
		l-6.3-20h-31l-7.4,19.9l-21.5,0l13.3-34.1l-12.6,0.1c4.4,10.6-2.3,21.4-8.2,26.6c-11,9.8-20.2,10.2-32.4,9.5
		c-14.6-1.1-27.2-5.9-36.1-11.6l10.3-16.1c2.6,2.3,14.5,8.4,21.5,9.5c17.4,4.3,25.4-18.3,8-23c-7.5-2.5-13.7-4.7-20-10
		c-14.9-11.6-10.3-33.9,8.4-40.1c6.8-2.8,27.9-6.2,43.2,2.4l-3.9,11.8c-6.5-2.5-13.3-4.1-21.2-1.2c-11.9,4.1-13.6,22.5,6.5,23.8
		c0,0,20.5-0.2,42.3-0.1l11.7-33.3l27.6,0l11,33.4h25.2l7.1-33.4l20.1,0.1l15.5,47.9l16.3-48l21.3,0l12.3,86.1L362.4,283.7z"/>
	
		<linearGradient id="SVGID_351_" gradientUnits="userSpaceOnUse" x1="86.918" y1="181.068" x2="422.1442" y2="181.068" gradientTransform="matrix(1 0 0 -1 0 500)">
		<stop  offset="0" style="stop-color:#000000"/>
		<stop  offset="0.5" style="stop-color:#E2001A"/>
		<stop  offset="1" style="stop-color:#000000"/>
	</linearGradient>
	<rect x="79.2" y="313.8" class="st184" width="342.8" height="10.2"/>
</g>
</svg>
