<?xml version="1.0" encoding="utf-8"?>
<!-- Generator: Adobe Illustrator 21.0.2, SVG Export Plug-In . SVG Version: 6.00 Build 0)  -->
<svg version="1.1" id="Calque_1" xmlns="http://www.w3.org/2000/svg" xmlns:xlink="http://www.w3.org/1999/xlink" x="0px" y="0px"
	 viewBox="0 0 500 240" style="enable-background:new 0 0 500 240;" xml:space="preserve">
<style type="text/css">
	.st0{fill:#E32120;}
</style>
<path d="M474.7,177.1c-0.4,0-0.8,0.1-1.2,0.1c-13.6,0-27.3,0-40.9,0c-0.4,0-0.7,0-1.2-0.1c0-30.3,0-60.5,0-90.7
	c-0.1,0-0.2,0-0.3-0.1c-0.2,0.4-0.4,0.8-0.5,1.2c-11.4,29.5-22.8,59-34.1,88.5c-0.4,0.9-0.8,1.2-1.7,1.2c-9.8,0-19.6,0-29.4,0
	c-0.9,0-1.4-0.2-1.8-1.1c-9.3-23.4-18.7-46.8-28.1-70.2c-4.9-12.2-9.8-24.4-14.7-36.6c-0.1-0.2-0.2-0.4-0.4-0.9
	c-5.1,13.2-10,26.2-15.1,39.5c-0.5-1.1-0.9-2-1.2-2.9c-6.3-15.7-12.6-31.4-18.9-47.1c-0.3-0.8-0.3-1.5,0-2.3
	c4.5-11.8,8.9-23.7,13.3-35.5c0.3-0.9,0.7-1.2,1.7-1.2c14.8,0,29.5,0,44.3,0c1,0,1.4,0.3,1.8,1.2c11.5,30.5,23,61.1,34.4,91.6
	c0.1,0.3,0.3,0.7,0.5,1.2c0.2-0.5,0.4-0.9,0.6-1.3c11.5-30.5,23.1-61,34.6-91.5c0.4-0.9,0.8-1.2,1.8-1.2c18.4,0,36.8,0,55.2,0
	c0.4,0,0.9,0,1.3,0C474.7,71.6,474.7,124.3,474.7,177.1z"/>
<path d="M106,13.9c1.3,0.1,2.6,0.3,3.9,0.4c13.5,0.9,26.4,4.3,38.8,9.4c0.7,0.3,1.5,0.6,2.4,0.9c-4.5,11.2-9,22.4-13.5,33.7
	c-2-0.7-3.8-1.4-5.7-2.1c-7.6-2.8-15.3-5.1-23.4-6c-6.9-0.8-13.9-1.2-20.8,0.4c-2.7,0.6-5.3,1.6-7.4,3.4c-4.1,3.4-4.4,9.1-0.5,12.7
	c1.9,1.7,4.2,3.2,6.5,4.1c6.6,2.5,13.3,4.8,20,7c8.4,2.8,16.6,5.9,24.1,10.8c9.9,6.6,16,15.7,18,27.6c0.1,0.7,0.1,1.5-0.2,2.2
	c-6.4,16-12.8,32-19.3,48c-0.2,0.6-0.8,1.2-1.3,1.6c-7.3,4.5-15.3,7.3-23.7,8.6c-23.6,3.9-46.7,1.9-69-6.9c-3.2-1.3-6.3-2.8-9.6-4.2
	c4.6-11.6,9.2-22.9,13.8-34.4c1.7,0.7,3.3,1.4,4.9,2c9,3.7,18.3,6.7,28,8.1c8.1,1.2,16.1,1.7,24.2-0.1c2.7-0.6,5.2-1.7,7.5-3.4
	c4.5-3.4,5.9-11,0.2-15.4c-3.5-2.7-7.5-4.5-11.6-5.9c-6.4-2.1-12.8-3.9-19.2-6.1c-9.4-3.1-18.3-7.3-26-13.7
	c-11.8-9.8-16.9-22.4-15.4-37.6c1.4-14.6,9.1-25.5,21.1-33.5c8.5-5.6,18-8.8,27.9-10.5c3.6-0.6,7.3-0.9,10.9-1.3
	c0.2,0,0.4-0.1,0.5-0.2C96.8,13.9,101.4,13.9,106,13.9z"/>
<path d="M315,177.2c-0.6,0-1,0-1.4,0c-13.5,0-27,0-40.4,0c-1,0-1.4-0.3-1.8-1.2c-13.4-34.7-26.9-69.4-40.4-104
	c-0.2-0.5-0.4-1-0.7-1.9c-9.4,24-18.6,47.8-28,71.8c12.1,0,23.9,0,36,0c-0.2,0.5-0.2,0.9-0.3,1.2c-4.2,11-8.4,22.1-12.6,33.1
	c-0.3,0.8-0.7,1.1-1.6,1.1c-26.6,0-53.2,0-79.8,0c-0.4,0-0.7,0-1.2,0c0.1-0.4,0.2-0.7,0.3-1c13.3-33.2,26.6-66.3,39.9-99.5
	c7.7-19.2,15.4-38.4,23-57.6c0.4-0.9,0.8-1.3,1.9-1.3c14.2,0,28.3,0,42.5,0c1.1,0,1.5,0.3,1.9,1.3c13.1,33.1,26.3,66.1,39.5,99.1
	c7.7,19.2,15.3,38.4,22.9,57.6C314.6,176.2,314.7,176.6,315,177.2z"/>
<path class="st0" d="M86,225.7c0-6.5,0-12.9,0-19.4c4.6,0,9.1,0,13.7,0c0,1.1,0,2.2,0,3.4c-3.1,0-6.3,0-9.5,0c0,1.5,0,2.8,0,4.3
	c3.1,0,6.1,0,9.3,0c0,1.3,0,2.4,0,3.7c-3.1,0-6.2,0-9.3,0c0,1.5,0,3,0,4.5c3.2,0,6.3,0,9.5,0c0,1.2,0,2.3,0,3.5
	C95.2,225.7,90.7,225.7,86,225.7z"/>
<path class="st0" d="M169.2,225.7c0-6.6,0-13,0-19.5c4.6,0,9.1,0,13.7,0c0,1.1,0,2.2,0,3.4c-3.1,0-6.2,0-9.6,0c0,1.3,0,2.6,0,3.8
	c0,0.2,0.6,0.5,0.9,0.5c2.3,0,4.6,0,6.8,0c0.5,0,1,0,1.5,0c0,1.2,0,2.4,0,3.6c-3.1,0-6.1,0-9.3,0c0,1.6,0,3,0,4.6c3.2,0,6.3,0,9.5,0
	c0,1.2,0,2.4,0,3.5C178.4,225.7,173.9,225.7,169.2,225.7z"/>
<path class="st0" d="M356.7,206.2c1.4,0,2.7,0,4.2,0c0,0.5,0,0.9,0,1.3c0,3.4,0,6.9,0,10.3c0,2.9,1.7,4.6,4.5,4.6
	c2.8,0,4.5-1.7,4.5-4.6c0-3.8,0-7.7,0-11.6c1.4,0,2.7,0,4.3,0c0,0.4,0,0.7,0,1.1c0,3.5,0,7,0,10.4c0,6-4,8.5-8.3,8.2
	c-1.1-0.1-2.2,0-3.2-0.2c-3.5-0.7-5.7-3-5.9-6.5C356.5,215,356.7,210.6,356.7,206.2z"/>
<path class="st0" d="M196.8,206.2c1.3,0,2.6,0,4.1,0c0,0.4,0,0.9,0,1.3c0,3.4,0,6.8,0,10.2c0,3.6,2.6,5.5,6,4.6
	c1.6-0.4,2.5-1.5,2.9-3.1c0.2-0.7,0.2-1.5,0.2-2.3c0-3.5,0-7.1,0-10.7c1.4,0,2.7,0,4.1,0c0,1.6,0,3.1,0,4.7c0,2.4,0,4.9,0,7.3
	c0,4.8-3,7.8-7.8,7.8c-1.7,0-3.4-0.1-4.9-0.6c-3.2-1-4.5-3.6-4.7-6.7c-0.1-4,0-8.1,0-12.1C196.6,206.5,196.7,206.3,196.8,206.2z"/>
<path class="st0" d="M473.9,208.6c-0.7,1-1.4,1.9-2,2.7c-1.5-0.6-2.9-1.3-4.4-1.7c-0.9-0.2-2-0.2-2.8,0.1c-0.6,0.2-1.2,1-1.5,1.6
	c-0.3,0.9,0.5,1.4,1.3,1.6c1.2,0.4,2.5,0.7,3.8,1.1c1,0.3,2,0.6,2.9,1c1.9,0.8,3.1,2.3,3.2,4.4c0.1,2.3-0.6,4.3-2.7,5.4
	c-1.2,0.6-2.5,1-3.8,1.1c-2.4,0.2-4.9,0.1-7.1-1.2c-0.8-0.5-1.6-1.1-2.5-1.7c0.8-1.1,1.5-2.1,2.3-3.2c0.4,0.3,0.6,0.5,0.9,0.8
	c1.7,1.3,3.6,2,5.8,1.8c0.5,0,1.1,0,1.4-0.3c0.6-0.5,1.3-1.1,1.5-1.8c0.3-0.9-0.5-1.5-1.3-1.7c-1.3-0.4-2.7-0.8-4-1.2
	c-1-0.3-2.1-0.6-3-1.1c-3.4-1.7-3.9-6.1-1-8.6C463.9,204.8,470.9,205.3,473.9,208.6z"/>
<path class="st0" d="M43.9,210.6c-1.1,0.6-2.3,1.1-3.4,1.7c-2.7-3.3-6.2-3.7-8.9-1.3c-2.7,2.5-2.7,7.3,0,9.8c2.7,2.5,6.2,2,8.9-1.3
	c1.1,0.5,2.3,1.1,3.4,1.7c-1.8,3.7-6.2,5.6-10.7,4.6c-4.9-1.1-7.8-5-7.8-10.2c0-4.8,3.2-8.6,7.9-9.7C37.8,205,42.2,206.9,43.9,210.6
	z"/>
<path class="st0" d="M146.4,209.8c-2,0-3.8,0-5.7,0c0-1.2,0-2.4,0-3.6c5.1,0,10.2,0,15.4,0c0,1.1,0,2.3,0,3.6c-0.9,0-1.7,0-2.5,0
	c-3.1,0-3.1,0-3.1,3.2c0,3.8,0,7.6,0,11.4c0,0.4,0,0.9,0,1.4c-1.4,0-2.6,0-4.1,0C146.4,220.5,146.4,215.2,146.4,209.8z"/>
<path class="st0" d="M402.6,209.8c-1.5,0-3,0-4.4,0c-0.9,0-1.2,0.2-1.2,1.2c0,4.4,0,8.9,0,13.3c0,0.4,0,0.9,0,1.4
	c-1.4,0-2.7,0-4.1,0c0-0.5-0.1-0.9-0.1-1.4c0-4.4,0-8.8,0-13.2c0-1.1-0.3-1.4-1.4-1.3c-1.4,0.1-2.8,0-4.3,0c0-1.2,0-2.4,0-3.6
	c5.1,0,10.2,0,15.4,0C402.6,207.3,402.6,208.5,402.6,209.8z"/>
<path class="st0" d="M446.3,222.1c0,1.3,0,2.4,0,3.6c-4.1,0-8.2,0-12.3,0c0-6.4,0-12.9,0-19.5c1.3,0,2.6,0,4.1,0
	c0,5.3,0,10.5,0,15.9C440.9,222.1,443.6,222.1,446.3,222.1z"/>
<path class="st0" d="M415.7,206.2c1.4,0,2.6,0,3.9,0c0,6.5,0,13,0,19.5c-1.3,0-2.6,0-3.9,0C415.7,219.2,415.7,212.7,415.7,206.2z"/>
<path class="st0" d="M307.6,214.2c-0.5-0.4-0.9-0.8-1.4-1.1c0.7-0.9,1.4-1.7,2.3-2.8c-1.6,0-2.5-0.4-2.7-1.7
	c-0.2-1.2,0.5-2.3,1.5-2.7c1.2-0.4,2.6,0.2,2.9,1.4c0.3,1.1,0.3,2.3,0,3.4C310,212.2,309,213.3,307.6,214.2z"/>
<path class="st0" d="M91.9,204.2c1.2-1.3,2.2-2.7,3.6-3.7c0.7-0.5,2-0.2,3.1-0.3c0,0.1,0.1,0.2,0.1,0.3c-1.4,1.3-2.8,2.7-4.3,3.8
	c-0.5,0.4-1.5,0.2-2.3,0.2C92,204.4,92,204.3,91.9,204.2z"/>
<path class="st0" d="M239.8,218.4c0.2-0.1,0.4-0.2,0.5-0.3c2.7-1.2,4-3.6,3.7-6.5c-0.4-3-2.2-5.2-5.2-5.4c-3.4-0.3-6.9-0.1-10.4-0.1
	c0,6.5,0,13,0,19.5c1.4,0,2.7,0,4.1,0c0-2.3,0-4.6,0-6.9c0.6,0,1.1,0.1,1.6,0c1.1-0.2,1.7,0.3,2.2,1.3c0.8,1.7,1.8,3.3,2.7,4.9
	c0.2,0.3,0.4,0.7,0.7,0.7c1.4,0.1,2.9,0,4.5,0C242.6,223.2,241.2,220.8,239.8,218.4z M239.7,213c-0.1,0.4-0.2,0.7-0.4,1
	c-0.4,0.6-1,0.9-1.8,1c-1.6,0.1-3.2,0-4.9,0l0,0c0-1.8,0-3.5,0-5.3c0.9,0,1.7,0,2.6,0c0.9,0,1.7,0,2.6,0.1c0.3,0,0.6,0.1,0.9,0.3
	c0.4,0.2,0.7,0.6,0.9,1c0.1,0.3,0.2,0.6,0.3,0.9c0,0.2,0,0.3,0,0.5C239.7,212.7,239.7,212.9,239.7,213z"/>
<path class="st0" d="M286,206.5c-3.5-0.6-7-0.4-10.6-0.5c0,6.7,0,13.2,0,19.6c3.5,0,6.9,0.3,10.2-0.1c4.7-0.6,7.7-4.3,7.8-9.1
	C293.5,211.3,290.7,207.3,286,206.5z M284.4,221.9c-1.4,0.2-2.9,0.2-4.3,0.2c-0.3,0-0.7-0.6-0.7-0.9c-0.1-1.8,0-3.5,0-5.3
	c0-0.9,0-1.7,0-2.6c0-0.9,0-1.7,0-2.6c0-0.8,0.3-1.1,1-1c1.3,0.1,2.6,0,3.8,0.2c3,0.4,4.8,2.7,4.9,5.9
	C289.2,218.8,287.3,221.4,284.4,221.9z"/>
<path class="st0" d="M333.2,205.8c-6.1,0-10.2,4.1-10.2,10.1c-0.1,6.5,5.2,10.5,10.1,10.1c5,0.5,10.3-3.4,10.3-10
	C343.4,210.1,339.2,205.8,333.2,205.8z M335.6,221.9c-2.2,1-4.4,0.7-6.3-0.9c-2.3-1.9-2.8-5.8-1.3-8.6c1.3-2.4,4.1-3.5,6.8-2.7
	c2.6,0.7,4.3,3.2,4.3,6.9C339,218.6,338.1,220.7,335.6,221.9z"/>
<path class="st0" d="M68.3,218.4c0.3-0.1,0.4-0.2,0.6-0.3c2.8-1.3,4-3.7,3.5-7c-0.4-2.7-2.6-4.8-5.4-4.9c-3.3-0.1-6.6,0-10,0
	c0,6.6,0,13.1,0,19.5c1.4,0,2.6,0,4,0c0-2.3,0-4.6,0-6.9c0.6,0,1.1,0.1,1.6,0c1.1-0.2,1.7,0.3,2.2,1.3c0.8,1.7,1.8,3.3,2.7,4.9
	c0.2,0.3,0.4,0.7,0.7,0.7c1.4,0.1,2.9,0,4.5,0C71.1,223.2,69.7,220.8,68.3,218.4z M66.4,214.9c-1.8,0.2-3.5,0.2-5.4,0.3
	c0-2,0-3.7,0-5.5c1.8,0,3.5-0.1,5.2,0c1.3,0.1,2.1,1.3,2.1,2.6C68.3,213.6,67.6,214.8,66.4,214.9z"/>
<path class="st0" d="M131.1,224.4c-1.8-4.8-3.7-9.6-5.5-14.4c-0.5-1.3-0.7-3.1-1.7-3.7c-1-0.7-2.7-0.2-4.1-0.2c-0.7,0-1,0.2-1.3,0.9
	c-1.6,4.2-3.2,8.3-4.8,12.5c-0.8,2-1.6,4.1-2.4,6.3c0.7,0,1.3,0,1.9,0c2.6,0,2.6,0,3.5-2.4c0.3-0.7,0.6-1,1.4-0.9c1.7,0.1,3.4,0,5,0
	c2.6,0,2.7,0,3.6,2.5c0.2,0.6,0.5,0.9,1.2,0.9c1.2-0.1,2.3,0,3.6,0C131.4,225.2,131.2,224.8,131.1,224.4z M118.2,218.6
	c1-2.9,2.1-5.7,3.2-8.9c1.1,3.2,2.1,6,3.2,8.9C122.5,218.6,120.5,218.6,118.2,218.6z"/>
</svg>
