<?xml version="1.0" encoding="utf-8"?>
<!-- Generator: Adobe Illustrator 15.0.0, SVG Export Plug-In . SVG Version: 6.00 Build 0)  -->
<!DOCTYPE svg PUBLIC "-//W3C//DTD SVG 1.1//EN" "http://www.w3.org/Graphics/SVG/1.1/DTD/svg11.dtd">
<svg version="1.1" id="Calque_1" xmlns="http://www.w3.org/2000/svg" xmlns:xlink="http://www.w3.org/1999/xlink" x="0px" y="0px"
	 width="500px" height="500px" viewBox="0 0 500 500" enable-background="new 0 0 500 500" xml:space="preserve">
<path d="M36.28,275.203c3.783,2.556,8.894,4.396,14.62,4.396c7.771,0,14.927-4.602,14.927-12.881c0-5.112-2.862-8.998-10.122-12.885
	c-8.793-4.804-13.701-10.324-13.701-17.685c0-12.371,10.633-20.245,23.312-20.245c6.748,0,11.758,1.942,14.109,3.58l-3.068,6.955
	c-2.146-1.33-6.441-3.271-11.961-3.271c-8.486,0-13.599,5.623-13.599,11.248c0,5.621,3.476,8.788,10.735,12.776
	c8.485,4.602,13.087,10.021,13.087,18.506c0,11.86-9.304,21.268-24.844,21.268c-6.852-0.102-13.701-2.252-16.562-4.805
	L36.28,275.203z"/>
<path d="M96.803,264.061l-10.939,21.774h-8.997l35.682-68.909h9.917l9.61,68.909h-8.693l-2.859-21.774H96.803z M119.909,257.314
	l-2.656-19.941c-0.412-3.579-0.922-8.691-1.228-12.675h-0.204c-1.84,4.089-3.582,8.383-5.625,12.573l-10.325,20.042H119.909z"/>
<path d="M140.865,285.835l13.087-68.909h9.304l15.743,39.057c3.068,7.77,4.602,13.29,6.034,19.22l0.204-0.105
	c0.409-6.232,1.126-11.959,2.966-21.571l6.952-36.6h7.975l-13.087,68.909h-8.383l-15.747-38.954
	c-3.271-8.484-4.806-13.289-6.339-19.833l-0.306,0.102c-0.714,6.442-1.84,13.293-3.579,22.699l-6.849,35.985H140.865z"/>
<path d="M218.463,217.743c5.315-0.918,11.145-1.327,17.174-1.327c11.451,0,20.246,3.271,25.357,9.201
	c3.681,3.781,6.441,10.018,6.441,18.712c0,12.469-5.009,24.843-13.805,32.406c-7.975,6.749-17.994,9.609-31.284,9.609
	c-6.03,0-12.267-0.304-16.665-0.813L218.463,217.743z M215.395,278.887c3.068,0.405,6.34,0.405,8.894,0.405
	c10.941,0,18.916-3.167,24.639-9.1c6.238-6.335,9.407-15.744,9.407-25.455c0-12.269-5.928-21.369-23.105-21.369
	c-3.068,0-6.952,0.207-9.408,0.716L215.395,278.887z"/>
<path d="M284.709,216.926h34.964l-1.432,7.259h-26.377l-4.496,23.21h24.33l-1.429,7.158h-24.332l-5.83,31.282h-8.485
	L284.709,216.926z"/>
<path d="M332.249,216.926h8.486l-11.757,61.548h27.809l-1.431,7.36h-36.192L332.249,216.926z"/>
<path d="M404.02,253.425h-25.049l-4.703,25.154h28.219l-1.434,7.256h-36.702l13.088-68.909h35.168l-1.429,7.259h-26.585
	l-4.188,22.085h25.046L404.02,253.425z"/>
<path d="M447.877,285.835l-6.544-17.071c-1.84-4.602-3.271-8.488-4.397-12.066h-0.204c-2.149,3.271-4.601,7.056-8.077,11.857
	l-12.372,17.28H406.16l26.893-35.064l-12.883-33.844h8.895l6.543,17.689c1.431,4.088,2.558,7.259,3.474,10.426h0.205
	c2.252-3.373,4.602-6.949,7.056-10.426l13.19-17.689h10.121l-26.582,33.74l13.8,35.169H447.877z"/>
</svg>
