<?xml version="1.0" encoding="utf-8"?>
<!-- Generator: Adobe Illustrator 19.1.0, SVG Export Plug-In . SVG Version: 6.00 Build 0)  -->
<svg version="1.1" id="Calque_1" xmlns="http://www.w3.org/2000/svg" xmlns:xlink="http://www.w3.org/1999/xlink" x="0px" y="0px"
	 viewBox="-345 170.9 500 500" style="enable-background:new -345 170.9 500 500;" xml:space="preserve">
<path d="M-308.7,446.1c3.8,2.6,8.9,4.4,14.6,4.4c7.8,0,14.9-4.6,14.9-12.9c0-5.1-2.9-9-10.1-12.9c-8.8-4.8-13.7-10.3-13.7-17.7
	c0-12.4,10.6-20.2,23.3-20.2c6.7,0,11.8,1.9,14.1,3.6l-3.1,7c-2.1-1.3-6.4-3.3-12-3.3c-8.5,0-13.6,5.6-13.6,11.2
	c0,5.6,3.5,8.8,10.7,12.8c8.5,4.6,13.1,10,13.1,18.5c0,11.9-9.3,21.3-24.8,21.3c-6.9-0.1-13.7-2.3-16.6-4.8L-308.7,446.1z"/>
<path d="M-248.2,435l-10.9,21.8h-9l35.7-68.9h9.9l9.6,68.9h-8.7l-2.9-21.8H-248.2z M-225.1,428.2l-2.7-19.9
	c-0.4-3.6-0.9-8.7-1.2-12.7h-0.2c-1.8,4.1-3.6,8.4-5.6,12.6l-10.3,20L-225.1,428.2L-225.1,428.2z"/>
<path d="M-204.1,456.7l13.1-68.9h9.3l15.7,39.1c3.1,7.8,4.6,13.3,6,19.2l0.2-0.1c0.4-6.2,1.1-12,3-21.6l7-36.6h8l-13.1,68.9h-8.4
	l-15.7-39c-3.3-8.5-4.8-13.3-6.3-19.8l-0.3,0.1c-0.7,6.4-1.8,13.3-3.6,22.7l-6.8,36L-204.1,456.7L-204.1,456.7z"/>
<path d="M-126.5,388.6c5.3-0.9,11.1-1.3,17.2-1.3c11.5,0,20.2,3.3,25.4,9.2c3.7,3.8,6.4,10,6.4,18.7c0,12.5-5,24.8-13.8,32.4
	c-8,6.7-18,9.6-31.3,9.6c-6,0-12.3-0.3-16.7-0.8L-126.5,388.6z M-129.6,449.8c3.1,0.4,6.3,0.4,8.9,0.4c10.9,0,18.9-3.2,24.6-9.1
	c6.2-6.3,9.4-15.7,9.4-25.5c0-12.3-5.9-21.4-23.1-21.4c-3.1,0-7,0.2-9.4,0.7L-129.6,449.8z"/>
<path d="M-60.3,387.8h35l-1.4,7.3h-26.4l-4.5,23.2h24.3l-1.4,7.2h-24.3l-5.8,31.3h-8.5L-60.3,387.8z"/>
<path d="M-12.8,387.8h8.5L-16,449.4h27.8l-1.4,7.4h-36.2L-12.8,387.8z"/>
<path d="M59,424.3H34l-4.7,25.2h28.2l-1.4,7.3H19.4l13.1-68.9h35.2l-1.4,7.3H39.6l-4.2,22.1h25L59,424.3z"/>
<path d="M102.9,456.7l-6.5-17.1c-1.8-4.6-3.3-8.5-4.4-12.1h-0.2c-2.1,3.3-4.6,7.1-8.1,11.9l-12.4,17.3H61.2l26.9-35.1l-12.9-33.8
	h8.9l6.5,17.7c1.4,4.1,2.6,7.3,3.5,10.4h0.2c2.3-3.4,4.6-6.9,7.1-10.4l13.2-17.7h10.1l-26.6,33.7l13.8,35.2L102.9,456.7L102.9,456.7
	z"/>
</svg>
