<?xml version="1.0" encoding="utf-8"?>
<!-- Generator: Adobe Illustrator 15.0.0, SVG Export Plug-In . SVG Version: 6.00 Build 0)  -->
<!DOCTYPE svg PUBLIC "-//W3C//DTD SVG 1.1//EN" "http://www.w3.org/Graphics/SVG/1.1/DTD/svg11.dtd">
<svg version="1.1" id="Calque_1" xmlns="http://www.w3.org/2000/svg" xmlns:xlink="http://www.w3.org/1999/xlink" x="0px" y="0px"
	 width="500px" height="500px" viewBox="0 0 500 500" enable-background="new 0 0 500 500" xml:space="preserve">
<g>
	<path fill="#FF0000" d="M83.066,246.241h53.964l0.902-7.232h-42.22H83.79h-4.936c-6.477,0-12.417,5.524-13.267,12.338l-0.25,2.005
		c-0.773,6.199,2.938,11.315,8.49,12.19h32.061c2.752,0,4.706,2.232,4.362,4.984c-0.264,2.115-1.809,3.918-3.758,4.642H31.39
		l-0.902,7.232h62.22c0.588,0.096,1.196,0.146,1.823,0.146h17.005c6.477,0,12.383-5.25,13.191-11.728l0.604-4.837
		c0.808-6.478-3.787-11.728-10.264-11.728l-30.748,0.293c-2.469,0-4.221-2.002-3.913-4.471
		C80.609,248.445,81.664,247.022,83.066,246.241z"/>
	<path fill="#FF0000" d="M182.099,239.156l-37.479,0.293l-0.859,6.89h35.193l-0.754,8.209h-31.798
		c-6.801,0-13.002,5.513-13.851,12.313l-0.412,3.299c-0.849,6.801,3.977,12.313,10.777,12.313h31.958l-0.019,0.147h16.858
		l4.068-31.03C196.638,244.723,190.512,239.156,182.099,239.156z M174.863,275.511h-19.644c-4.048,0-6.92-3.282-6.416-7.33
		c0.505-4.048,4.197-7.329,8.245-7.329h19.643c0.316,0,0.622,0.026,0.922,0.065l-1.328,14.456
		C175.819,275.462,175.344,275.511,174.863,275.511z"/>
	<polygon fill="#FF0000" points="285.138,282.254 267.401,282.254 272.797,239.009 290.535,239.009 	"/>
	<polygon fill="#FF0000" points="291.962,227.575 274.224,227.575 275.139,220.245 292.877,220.245 	"/>
	<path fill="#FF0000" d="M261.328,254.813c1.636-15.891-7.74-15.902-11.29-15.902c-3.616,0-20.718,0-20.718,0l-4.498,3.932
		l0.478-3.835h-17.737l-5.397,43.245h17.738l4.611-36.945c4.226,0.104,14.423,0.346,16.962,0.346c3.225,0,2.755,4.935,2.755,4.935
		l-3.952,31.664h17.737l3.422-27.413L261.328,254.813z"/>
	<path fill="#00AAFF" d="M393.486,239.156l-37.479,0.293l-0.859,6.89h35.192l-0.754,8.209h-31.798
		c-6.801,0-13.003,5.513-13.851,12.313l-0.412,3.299c-0.143,1.145-0.112,2.247,0.049,3.298h-30.513l6.587-52.773H301.91
		c0,0-5.049,40.459-6.385,51.161s6.178,10.408,6.178,10.408h10.261l0.019-0.146h39.432c0.913,0.23,1.875,0.366,2.888,0.366h31.958
		l-0.019,0.147H403.1l4.067-31.03C408.025,244.723,401.899,239.156,393.486,239.156z M386.249,275.511h-19.644
		c-4.048,0-6.92-3.282-6.415-7.33s4.197-7.329,8.245-7.329h19.644c0.315,0,0.621,0.026,0.922,0.065l-1.328,14.456
		C387.206,275.462,386.731,275.511,386.249,275.511z"/>
	<path fill="#00AAFF" d="M438.338,239.889c-1.59,0.185-3.238,0.46-4.896,0.864l2.511-20.117h-16.81l-4.935,39.534
		c-0.325,1.36-0.594,2.802-0.786,4.347c-2.324,18.617,8.854,17.151,11.785,17.151c0,0,6.542,0.439,20.322,0.439
		c23.308,0,25.32-13.779,26.639-24.334C475.003,235.051,448.452,238.716,438.338,239.889z M441.185,274.631l-11.855-0.146
		l2.964-24.92c0,0,1.941-2.639,9.271-2.639c7.329,0,14.77,3.811,13.434,14.512C453.663,272.139,448.367,274.631,441.185,274.631z"/>
</g>
</svg>
