<?xml version="1.0" encoding="utf-8"?>
<!-- Generator: Adobe Illustrator 21.0.2, SVG Export Plug-In . SVG Version: 6.00 Build 0)  -->
<svg version="1.1" id="Calque_1" xmlns="http://www.w3.org/2000/svg" xmlns:xlink="http://www.w3.org/1999/xlink" x="0px" y="0px"
	 viewBox="0 0 500 218" style="enable-background:new 0 0 500 218;" xml:space="preserve">
<style type="text/css">
	.st0{fill:url(#SVGID_1_);}
	.st1{fill:url(#SVGID_2_);}
	.st2{fill:#FFFFFF;}
	.st3{fill:#FF0000;}
</style>
<linearGradient id="SVGID_1_" gradientUnits="userSpaceOnUse" x1="254.1015" y1="2138.8896" x2="244.1538" y2="2454.3894" gradientTransform="matrix(1 0 0 1 0 -2158.3301)">
	<stop  offset="6.129999e-02" style="stop-color:#D1D2D4"/>
	<stop  offset="0.8221" style="stop-color:#ECEDED"/>
</linearGradient>
<path class="st0" d="M466.8,91.8L408.2,24c-3.4-4-8.1-6.2-13-6.2H105c-4.9,0-9.6,2.2-13,6.2L33.4,91.8c-4.9,3.7-8,10-8,16.9v0.7
	c0,6.9,3.1,13.1,8,16.9L92,194.1c3.4,4,8.1,6.2,13,6.2h290.1c4.9,0,9.6-2.2,13-6.2l58.6-67.8c5-3.7,8-10,8-16.9v-0.7
	C474.8,101.8,471.7,95.5,466.8,91.8z"/>
<linearGradient id="SVGID_2_" gradientUnits="userSpaceOnUse" x1="46.4" y1="2267.3301" x2="453.7" y2="2267.3301" gradientTransform="matrix(1 0 0 1 0 -2158.3301)">
	<stop  offset="6.129999e-02" style="stop-color:#D1D2D4"/>
	<stop  offset="0.8221" style="stop-color:#ECEDED"/>
</linearGradient>
<path class="st1" d="M446.4,93.4L393.3,32c-3.1-3.6-7.4-5.6-11.8-5.6H118.6c-4.5,0-8.7,2-11.8,5.6L53.7,93.4
	c-4.5,3.4-7.3,9.1-7.3,15.3v0.6c0,6.2,2.8,11.9,7.3,15.3l53.1,61.4c3.1,3.6,7.4,5.6,11.8,5.6h262.9c4.5,0,8.7-2,11.8-5.6l53.1-61.4
	c4.5-3.4,7.3-9.1,7.3-15.3v-0.6C453.6,102.5,450.8,96.8,446.4,93.4z"/>
<path class="st2" d="M118.5,26.4c-4,0.1-7.8,1.8-10.5,4.6c-0.7,0.7-1.3,1.4-1.9,2.2l-1.9,2.3l-3.8,4.5L85.2,58.1L69.9,76.2l-15.3,18
	l-0.1,0.1l-0.1,0.1c-2.2,1.7-3.9,4-5.1,6.5c-1.1,2.6-1.7,5.3-1.6,8.2c0,2.8,0.6,5.6,1.7,8.1c1.2,2.5,2.9,4.7,5.1,6.3l0.1,0.1
	l0.1,0.1l29.4,33.7l14.7,16.9l7.3,8.4l1.8,2.1l0.4,0.5l0.4,0.4c0.3,0.3,0.6,0.6,0.9,0.9c1.3,1.1,2.7,1.9,4.3,2.5s3.2,0.8,4.9,0.8
	h5.6h11.2H158l44.7,0.1l44.7,0.2l44.7,0.4c14.9,0.1,29.8,0.2,44.7,0.4c14.9,0.2,29.8,0.4,44.7,0.7c-14.9,0.3-29.8,0.5-44.7,0.7
	s-29.8,0.3-44.7,0.4l-44.7,0.4l-44.7,0.2l-44.7,0.1h-22.4h-11.2h-5.6c-2,0-4.2-0.3-6.1-1c-1.9-0.7-3.7-1.8-5.3-3.1
	c-0.4-0.3-0.8-0.7-1.1-1c-0.2-0.2-0.4-0.4-0.5-0.6l-0.5-0.6l-1.8-2.1l-7.3-8.5l-14.6-17l-29.1-34l0.2,0.2c-2.6-2-4.6-4.6-5.9-7.5
	s-1.9-6.1-1.9-9.2s0.6-6.3,2-9.2c1.3-2.9,3.3-5.4,5.9-7.3l-0.2,0.2L68.2,75l15.7-17.7l15.7-17.7l3.9-4.4l2-2.2
	c0.7-0.7,1.3-1.5,2-2.2C110.6,27.9,114.6,26.3,118.5,26.4z"/>
<path class="st2" d="M381.5,191.6c4-0.1,7.8-1.8,10.5-4.6c0.7-0.7,1.3-1.4,1.9-2.2l1.9-2.3l3.8-4.5l15.2-18.1l15.3-18.1l15.3-18
	l0.1-0.1l0.1-0.1c2.2-1.7,3.9-4,5.1-6.5c1.1-2.6,1.7-5.3,1.6-8.2c0-2.8-0.6-5.6-1.7-8.1c-1.2-2.5-2.9-4.7-5.1-6.3l-0.1-0.1l-0.1-0.1
	l-29.4-33.7l-14.7-16.9l-7.3-8.4l-1.8-2.1l-0.4-0.5l-0.4-0.4c-0.3-0.3-0.6-0.6-0.9-0.9c-1.3-1.1-2.7-1.9-4.3-2.5s-3.2-0.8-4.9-0.8
	h-5.6h-11.2l-22.4,0L297.3,28l-44.7-0.2l-44.7-0.4c-14.9-0.1-29.8-0.2-44.7-0.4c-14.9-0.2-29.8-0.4-44.7-0.7
	c14.9-0.3,29.8-0.5,44.7-0.7s29.8-0.3,44.7-0.4l44.7-0.4l44.7-0.2l44.7-0.1h22.4h11.2h5.6c2,0,4.2,0.3,6.1,1s3.7,1.8,5.3,3.1
	c0.4,0.3,0.8,0.7,1.1,1c0.2,0.2,0.4,0.4,0.5,0.6l0.5,0.6l1.8,2.1l7.3,8.5l14.6,17l29.1,34l-0.2-0.2c2.6,2,4.6,4.6,5.9,7.5
	c1.3,2.9,1.9,6.1,1.9,9.2s-0.6,6.3-2,9.2c-1.3,2.9-3.3,5.4-5.9,7.3l0.2-0.2l-15.8,17.9l-15.7,17.7l-15.7,17.7l-3.9,4.4l-2,2.2
	c-0.7,0.7-1.3,1.5-2,2.2C389.4,190,385.4,191.7,381.5,191.6z"/>
<path class="st3" d="M109.4,72.5c-2.3-0.8-4.7-1.2-7.4-1.2c-3.7,0-6.9,1-9.5,2.9s-3.9,4.4-3.9,7.4c0,1.8,0.4,3.4,1.3,4.7
	c0.8,1.3,2,2.4,3.4,3.5c1.4,1,3,1.9,4.9,2.7c1.8,0.8,3.7,1.6,5.6,2.4c2.2,0.9,4.3,1.9,6.5,2.9c2.2,1.1,4.2,2.3,5.9,3.8
	s3.1,3.2,4.2,5.2c1.1,2,1.6,4.5,1.6,7.4c0,6.2-2.7,11.1-8.1,14.7c-5.4,3.6-12.6,5.3-21.4,5.3c-6.4,0-12.7-0.9-18.9-2.6l-0.3-0.4
	l2.8-16.6l3.3-0.5l4,14.1c2.5,1,5.4,1.5,8.5,1.5c4.5,0,8.1-1,10.8-3s4.1-4.6,4.1-7.9c0-1.9-0.4-3.5-1.3-4.8c-0.8-1.3-2-2.5-3.4-3.5
	s-3.1-1.9-4.9-2.7c-1.8-0.8-3.7-1.6-5.7-2.4c-2.2-0.9-4.3-1.9-6.5-2.9s-4.1-2.2-5.8-3.7c-1.7-1.4-3.1-3.2-4.1-5.2
	c-1.1-2-1.6-4.4-1.6-7.3c0-5.9,2.6-10.5,7.7-14c5.2-3.5,11.9-5.2,20.1-5.2c5.2,0,11.2,0.7,17.9,2.1l0.3,0.4l-3.2,14.8l-2.9,0.4
	L109.4,72.5z"/>
<path class="st3" d="M133.4,93.1c7.5-3,14.8-4.5,21.7-4.5c6.4,0,11.1,1.2,14.3,3.7s4.7,6,4.7,10.7l-0.3,19.2c-0.1,1.6,0,2.8,0.1,3.8
	s0.5,1.7,1,2.2s1.3,0.9,2.3,1.1s2.5,0.3,4.4,0.4l0.3,2.1c-5,1.5-9.2,2.2-12.8,2.2c-4.8,0-8-1.6-9.5-4.9c-4.5,3.3-9.2,4.9-14.3,4.9
	c-4.9,0-9-1.1-12.1-3.2c-3.2-2.1-4.8-5.1-4.8-9c0-4.8,2.6-8.4,7.7-10.6c5.1-2.2,12.9-3.4,23.2-3.4l0.1-3.5c0-3.3-0.9-5.7-2.7-7.3
	c-1.9-1.5-4.7-2.3-8.7-2.3c-3.6,0-8,0.7-13.1,2.1L133.4,93.1z M159.4,112.1c-5.6,0-9.5,0.6-11.9,1.8c-2.4,1.2-3.6,3.3-3.6,6.3
	c0,2.7,0.8,4.6,2.5,5.8c1.7,1.2,3.7,1.7,6,1.7c2.6,0,4.9-0.6,6.8-1.8L159.4,112.1z"/>
<path class="st3" d="M307.5,95.3c-0.2,9.6-0.3,17.7-0.3,24.4c0,3.1,0.5,5.2,1.6,6.4c1.1,1.2,3.2,1.8,6.3,1.8c2.4,0,5-0.1,7.9-0.4
	l0.4,2.8c-5.6,2.4-10.9,3.6-15.8,3.6c-5,0-8.8-0.9-11.5-2.7c-2.7-1.8-4.1-4.5-4.1-8.1c0-6.4,0.1-15.7,0.3-28l-7.2-1.6l-0.5-2.5
	l8.9-0.7l5-10.8c3-0.5,5.7-0.9,8.2-1.3l0.7,0.3c-0.1,3.7-0.2,7.7-0.2,11.8h14.9v5L307.5,95.3L307.5,95.3z"/>
<path class="st3" d="M372.6,129.5c-6.5,2.9-13.4,4.3-20.7,4.3c-8.6,0-15.7-1.9-21.1-5.6c-5.5-3.7-8.2-9.2-8.2-16.4
	c0-6.9,2.6-12.5,7.9-16.8s11.9-6.5,20.1-6.5c7.1,0,12.6,1.7,16.5,5s5.8,7.9,5.8,13.8c0,0.9-0.1,1.8-0.2,2.8h-33.9
	c0,6.2,1.7,10.6,5.2,13.3c3.5,2.7,9.2,4.1,17.2,4.1c3.9,0,7.5-0.3,11-0.9L372.6,129.5z M356.7,105.7v-1.1c0-4.2-0.6-7.2-1.8-9
	c-1.2-1.8-3.1-2.7-5.6-2.7c-3,0-5.4,1.3-7.2,3.8c-1.8,2.5-2.8,5.5-3.1,9.1L356.7,105.7L356.7,105.7z"/>
<path class="st3" d="M427.3,129.5c-5.9,2.9-11.9,4.3-18.2,4.3c-7.7,0-14.1-2-19.1-5.9s-7.5-9.1-7.5-15.6c0-7.1,2.7-12.8,8.1-17.2
	c5.4-4.4,12.3-6.6,20.8-6.6c5.3,0,10.5,0.9,15.4,2.6c-1.3,4.3-2.4,8.9-3.3,13.6l-2.9,0.4l-4.1-11.5c-1-0.3-2.2-0.5-3.9-0.5
	c-4,0-7.3,1.5-9.9,4.6s-3.9,7.1-3.9,12.3c0,6,1.6,10.4,4.9,13.2c3.3,2.8,7.9,4.3,14,4.3c2.9,0,5.9-0.3,9.1-0.9L427.3,129.5z"/>
<path class="st3" d="M243.8,118.8v-16.2c0-4.5-1.5-7.9-4.4-10.4c-2.9-2.4-7-3.7-12.1-3.7c-5.8,0-11.7,1.7-17.7,5.2v-4.9l-0.8-0.4
	c-6.8,1.3-14.2,2.5-22.4,3.5l0.3,1.9l7.6,1.7c0.1,3.4,0.2,7.1,0.2,11.1v15.2c0,1,0,5,0,8.9h15.1c0-5.3,0-11.5,0-13.8V97.1
	c3.1-1.5,6.1-2.2,9.1-2.2c3.4,0,5.9,0.8,7.6,2.5c1.7,1.6,2.5,4.4,2.5,8.1v19.3c0,0.6,0,3.2,0,5.9h15.1
	C243.8,126.2,243.8,121,243.8,118.8z"/>
<path class="st3" d="M261.9,78.4c1.5,1.2,3.4,1.9,5.8,1.9c2.5,0,4.6-0.7,6.2-2s2.4-3,2.4-5.2c0-2.1-0.7-3.8-2.2-4.9
	c-1.5-1.2-3.4-1.7-5.7-1.7c-2.5,0-4.6,0.6-6.2,1.9s-2.4,3-2.4,5.2C259.7,75.6,260.4,77.2,261.9,78.4z"/>
<path class="st3" d="M276.1,119.7v-17.4c0-4.8,0.1-9.3,0.3-13.5l-0.6-0.4c-6.6,1.2-14.2,2.4-22.9,3.5l0.3,1.9l7.6,1.7
	c0.1,3.4,0.2,7.1,0.2,11.1v14.8c0,1.4,0,5.5,0,9.3h15.1C276.1,126.5,276.1,121.7,276.1,119.7z"/>
</svg>
