<?xml version="1.0" encoding="utf-8"?>
<!-- Generator: Adobe Illustrator 21.0.2, SVG Export Plug-In . SVG Version: 6.00 Build 0)  -->
<svg version="1.1" id="Calque_1" xmlns="http://www.w3.org/2000/svg" xmlns:xlink="http://www.w3.org/1999/xlink" x="0px" y="0px"
	 viewBox="0 0 500 142" style="enable-background:new 0 0 500 142;" xml:space="preserve">
<style type="text/css">
	.st0{fill:#004796;}
</style>
<g>
	<path class="st0" d="M45,100.2c0.2,9,8.3,12.6,17.1,12.6c6.4,0,14.6-2.3,14.6-9.6c0-6.2-9.2-8.4-25.2-11.6
		c-12.8-2.6-25.7-6.8-25.7-20c0-19.2,17.8-24.1,35.2-24.1c17.7,0,34,5.5,35.7,24H75.5c-0.6-8-7.2-10.2-15.2-10.2
		c-5,0-12.4,0.9-12.4,7c0,7.4,12.5,8.4,25.2,11.2c13,2.8,25.7,7.1,25.7,21.1c0,19.8-18.5,26.2-36.9,26.2c-18.8,0-37.1-6.5-38-26.4
		H45z"/>
	<path class="st0" d="M156.8,95.5c0,4.5-0.6,17.3-18,17.3c-7.2,0-13.6-1.9-13.6-9.6c0-7.6,6.3-9.7,13.2-11
		c6.9-1.2,14.7-1.3,18.5-4.4V95.5z M127.6,72.6c0.8-8.1,6.3-11.3,14.7-11.3c7.8,0,14.4,1.3,14.4,10.2c0,8.4-12.7,8-26.3,9.9
		c-13.8,1.7-27.6,5.8-27.6,22.8c0,15.4,12.2,22.5,27.6,22.5c9.9,0,20.2-2.5,27.2-9.3c0.2,2.5,0.8,4.9,1.6,7.3h22.5
		c-2-3.1-2.8-9.9-2.8-16.7V68.8c0-18-19.4-21.4-35.5-21.4c-18.2,0-36.8,5.8-38,25.1H127.6z"/>
	<path class="st0" d="M188.4,49.5h21.1v13.9h0.3c4.1-9.4,13.5-16,24.3-16c1.6,0,3.4,0.3,4.9,0.7v19.2c-2-0.4-5.3-0.7-8-0.7
		c-16.3,0-20.4,10.9-20.4,24.1v33.8h-22.2V49.5z"/>
	<rect x="243.5" y="15.4" class="st0" width="22.2" height="109.2"/>
	<path class="st0" d="M325.7,95.5c0,4.5-0.6,17.3-18,17.3c-7.2,0-13.6-1.9-13.6-9.6c0-7.6,6.3-9.7,13.2-11
		c6.9-1.2,14.7-1.3,18.5-4.4V95.5z M296.6,72.6c0.8-8.1,6.3-11.3,14.7-11.3c7.8,0,14.4,1.3,14.4,10.2c0,8.4-12.7,8-26.3,9.9
		c-13.8,1.7-27.6,5.8-27.6,22.8c0,15.4,12.2,22.5,27.6,22.5c9.9,0,20.2-2.5,27.2-9.3c0.2,2.5,0.8,4.9,1.6,7.3h22.5
		c-2-3.1-2.8-9.9-2.8-16.7V68.8c0-18-19.4-21.4-35.5-21.4c-18.2,0-36.8,5.8-38,25.1H296.6z"/>
	<path class="st0" d="M357.2,49.5h21v10.2h0.3c5.8-7.7,11.9-12.2,22.4-12.2c10.2,0,19.3,3.5,23.6,12.5c4.7-6.5,10.8-12.5,22.1-12.5
		c17.2,0,29.6,7.4,29.6,26.9v50.3h-22.2V82c0-10-0.9-18.3-13.6-18.3c-12.5,0-12.5,9.6-12.5,19v41.8h-22.2V82.5
		c0-8.7,0.6-18.7-13.5-18.7c-4.4,0-12.7,2.6-12.7,17.3v43.6h-22.2V49.5z"/>
</g>
</svg>
