<?xml version="1.0" encoding="utf-8"?>
<!-- Generator: Adobe Illustrator 15.0.0, SVG Export Plug-In . SVG Version: 6.00 Build 0)  -->
<!DOCTYPE svg PUBLIC "-//W3C//DTD SVG 1.1//EN" "http://www.w3.org/Graphics/SVG/1.1/DTD/svg11.dtd">
<svg version="1.1" id="Calque_1" xmlns="http://www.w3.org/2000/svg" xmlns:xlink="http://www.w3.org/1999/xlink" x="0px" y="0px"
	 width="500px" height="500px" viewBox="0 0 500 500" enable-background="new 0 0 500 500" xml:space="preserve">
<path d="M38.352,293.021c7.386,4.997,17.365,8.59,28.544,8.59c15.174,0,29.145-8.985,29.145-25.157
	c0-9.979-5.588-17.561-19.762-25.148c-17.167-9.387-26.75-20.159-26.75-34.531c0-24.151,20.761-39.526,45.514-39.526
	c13.175,0,22.956,3.79,27.548,6.981l-5.991,13.58c-4.189-2.598-12.576-6.389-23.353-6.389c-16.569,0-26.55,10.978-26.55,21.96
	c0,10.976,6.787,17.166,20.959,24.946c16.566,8.984,25.552,19.569,25.552,36.136c0,23.152-18.165,41.519-48.505,41.519
	c-13.378-0.198-26.75-4.396-32.337-9.38L38.352,293.021z"/>
<path d="M156.521,271.266l-21.359,42.521h-17.564l69.667-134.541h19.364l18.764,134.541h-16.974l-5.583-42.521H156.521z
	 M201.633,258.094l-5.187-38.932c-0.804-6.981-1.799-16.962-2.396-24.741h-0.399c-3.593,7.977-6.992,16.362-10.982,24.543
	l-20.16,39.13H201.633z"/>
<path d="M244.747,293.021c7.383,4.997,17.363,8.59,28.543,8.59c15.168,0,29.145-8.985,29.145-25.157
	c0-9.979-5.591-17.561-19.762-25.148c-17.171-9.387-26.753-20.159-26.753-34.531c0-24.151,20.766-39.526,45.512-39.526
	c13.181,0,22.962,3.79,27.549,6.981l-5.988,13.58c-4.19-2.598-12.576-6.389-23.354-6.389c-16.566,0-26.553,10.978-26.553,21.96
	c0,10.976,6.793,17.166,20.964,24.946c16.566,8.984,25.551,19.569,25.551,36.136c0,23.152-18.168,41.519-48.506,41.519
	c-13.373-0.198-26.746-4.396-32.337-9.38L244.747,293.021z"/>
<path d="M337.767,293.021c7.383,4.997,17.364,8.59,28.546,8.59c15.166,0,29.144-8.985,29.144-25.157
	c0-9.979-5.592-17.561-19.769-25.148c-17.164-9.387-26.746-20.159-26.746-34.531c0-24.151,20.762-39.526,45.51-39.526
	c13.176,0,22.963,3.79,27.552,6.981l-5.99,13.58c-4.189-2.598-12.575-6.389-23.353-6.389c-16.568,0-26.547,10.978-26.547,21.96
	c0,10.976,6.784,17.166,20.955,24.946c16.565,8.984,25.552,19.569,25.552,36.136c0,23.152-18.169,41.519-48.506,41.519
	c-13.373-0.198-26.754-4.396-32.338-9.38L337.767,293.021z"/>
<path d="M470.5,179.246l-25.551,134.541h-16.567l25.552-134.541H470.5z"/>
</svg>
