<?xml version="1.0" encoding="utf-8"?>
<!-- Generator: Adobe Illustrator 15.0.0, SVG Export Plug-In . SVG Version: 6.00 Build 0)  -->
<!DOCTYPE svg PUBLIC "-//W3C//DTD SVG 1.1//EN" "http://www.w3.org/Graphics/SVG/1.1/DTD/svg11.dtd">
<svg version="1.1" id="Calque_1" xmlns="http://www.w3.org/2000/svg" xmlns:xlink="http://www.w3.org/1999/xlink" x="0px" y="0px"
	 width="500px" height="500px" viewBox="0 0 500 500" enable-background="new 0 0 500 500" xml:space="preserve">
<g>
	<path fill="#FF0000" d="M327.312,175.965c-9.794-10.154-25.053-13.366-37.846-6.868c-12.862,6.532-19.273,20.864-16.743,34.833
		c-1.435,0.188-4.169-0.079-7.67-3.379c-1.448-1.365-3.026-3.248-4.698-5.831c-7.737-11.957-46.654-70.1-46.654-70.1
		s-16.177,6.564-6.799,20.162c8.828,12.8,36.348,54.678,39.548,59.549h-6.488c-1.025-1.103-2.113-2.495-3.25-4.251
		c-6.906-10.671-41.64-62.565-41.64-62.565s-14.439,5.859-6.068,17.995c6.628,9.612,25.066,37.593,32.452,48.821h-5.78
		c-6.983-10.754-34.883-52.431-34.883-52.431s-11.403,8.255-4.724,18.191c4.192,6.237,14.642,22.545,22.107,34.24h-4.681
		c-10.202-14.302-23.003-32.12-23.003-32.12s-8.818,6.37-3.672,14.409c1.944,3.038,6.168,9.91,10.931,17.711h-6.582l-8.848-13.071
		c-0.899,5.121-1.371,10.389-1.371,15.767c0,49.98,40.517,90.497,90.496,90.497c40.906,0,75.473-27.142,86.676-64.398l-0.164-0.896
		C344.003,197.658,334.467,182.362,327.312,175.965z M259.417,226.604l14.066-19.928c1.759,8.206,8.089,14.653,8.089,14.653
		L259.417,226.604z M303.418,202.928c-2.867,1.456-6.417,0.221-7.931-2.758c-1.513-2.979-0.415-6.575,2.451-8.031
		c2.866-1.457,6.418-0.221,7.931,2.758C307.383,197.876,306.285,201.471,303.418,202.928z"/>
	<g>
		<g>
			<path d="M146.563,339.302c0-0.373-0.318-0.674-0.711-0.674h-0.171h-6.735h-0.326c-0.393,0-0.711,0.301-0.711,0.674v24.535
				c0,1.77-0.3,3.223-0.894,4.317c-1.074,1.983-3.055,2.947-6.058,2.947c-0.714,0-1.441,0.015-2.164,0.023
				c-0.27-0.015-0.537-0.023-0.8-0.023c-3.002,0-4.984-0.964-6.057-2.947c-0.594-1.095-0.894-2.548-0.894-4.317v-24.535
				c0-0.373-0.318-0.674-0.71-0.674h-0.327h-6.735h-0.171c-0.393,0-0.711,0.301-0.711,0.674l0.228,26.673
				c0.165,2.553,0.74,4.685,1.73,6.337c2.209,3.731,6.371,5.624,12.369,5.624h5.524c5.998,0,10.159-1.893,12.369-5.624
				c0.99-1.652,1.565-3.784,1.73-6.337L146.563,339.302z"/>
		</g>
		<g>
			<path d="M55.503,346.453c-1.71-0.921-3.919-1.458-6.563-1.611l-18.282-0.14c-0.523-0.13-1.014-0.286-1.437-0.492
				c-2.054-1-3.053-2.846-3.053-5.643c0-0.666-0.014-1.343-0.024-2.017c0.015-0.252,0.024-0.5,0.024-0.745
				c0-2.798,0.999-4.644,3.053-5.644c1.133-0.554,2.638-0.833,4.471-0.833h25.415c0.386,0,0.697-0.296,0.697-0.662v-0.305v-6.274
				v-0.16c0-0.366-0.312-0.662-0.697-0.662l-27.628,0.212c-2.645,0.154-4.853,0.69-6.563,1.612
				c-3.866,2.059-5.825,5.935-5.825,11.523v5.146c0,5.588,1.959,9.464,5.825,11.522c1.71,0.923,3.919,1.459,6.563,1.612l18.282,0.14
				c0.523,0.13,1.014,0.286,1.437,0.492c2.054,1,3.052,2.846,3.052,5.643c0,0.666,0.014,1.343,0.024,2.017
				c-0.014,0.252-0.024,0.5-0.024,0.746c0,2.797-0.999,4.643-3.052,5.643c-1.133,0.554-2.638,0.833-4.471,0.833H21.312
				c-0.386,0-0.697,0.296-0.697,0.662v0.305v6.274v0.16c0,0.366,0.312,0.662,0.697,0.662l27.628-0.212
				c2.645-0.153,4.853-0.69,6.563-1.612c3.866-2.058,5.825-5.935,5.825-11.522v-5.147C61.328,352.389,59.369,348.513,55.503,346.453
				z"/>
		</g>
		<g>
			<path d="M386.167,339.302c0-0.373-0.318-0.674-0.711-0.674h-0.172h-6.735h-0.326c-0.393,0-0.711,0.301-0.711,0.674v24.535
				c0,1.77-0.3,3.223-0.894,4.317c-1.073,1.983-3.056,2.947-6.058,2.947c-0.714,0-1.44,0.015-2.164,0.023
				c-0.27-0.015-0.537-0.023-0.8-0.023c-3.003,0-4.984-0.964-6.058-2.947c-0.594-1.095-0.894-2.548-0.894-4.317v-24.535
				c0-0.373-0.318-0.674-0.711-0.674h-0.326h-6.735h-0.172c-0.393,0-0.711,0.301-0.711,0.674l0.228,26.673
				c0.165,2.553,0.74,4.685,1.73,6.337c2.209,3.731,6.37,5.624,12.368,5.624h5.524c5.998,0,10.159-1.893,12.368-5.624
				c0.99-1.652,1.565-3.784,1.73-6.337L386.167,339.302z"/>
		</g>
		<g>
			<path d="M175.374,337.8c-2.61,0-5.019,0.497-7.158,1.476c-1.704,0.779-3.349,1.967-4.907,3.542v-3.516
				c0-0.373-0.302-0.674-0.674-0.674h-6.222c-0.373,0-0.674,0.301-0.674,0.674v36.959c0,0.372,0.301,0.674,0.674,0.674h6.55
				c0.372,0,0.674-0.302,0.674-0.674V356.9c0-2.348,0.159-4.167,0.471-5.408c0.298-1.185,0.964-2.359,1.978-3.494
				c1.266-1.414,2.75-2.369,4.423-2.841c0.929-0.279,2.15-0.421,3.628-0.421c2.807,0,4.682,1.009,5.732,3.083
				c0.651,1.281,0.981,3.013,0.981,5.147v23.294c0,0.372,0.302,0.674,0.674,0.674h6.661c0.372,0,0.674-0.302,0.674-0.674v-23.708
				c0-3.819-0.566-6.816-1.682-8.908C185.121,339.767,181.15,337.8,175.374,337.8z"/>
		</g>
		<g>
			<path d="M206.462,338.8h-6.661c-0.372,0-0.674,0.302-0.674,0.674v36.787c0,0.372,0.302,0.674,0.674,0.674h6.661
				c0.372,0,0.674-0.302,0.674-0.674v-36.787C207.135,339.102,206.834,338.8,206.462,338.8z"/>
		</g>
		<g>
			<path d="M206.462,321.729h-6.661c-0.372,0-0.674,0.301-0.674,0.673v7.04c0,0.372,0.302,0.673,0.674,0.673h6.661
				c0.372,0,0.674-0.301,0.674-0.673v-7.04C207.135,322.029,206.834,321.729,206.462,321.729z"/>
		</g>
		<g>
			<path d="M250.829,351.506c-0.448-2.569-1.362-4.854-2.713-6.79c-1.413-2.045-3.485-3.729-6.16-5.004
				c-2.662-1.27-5.448-1.912-8.284-1.912c-5.622,0-10.244,1.943-13.738,5.776c-3.476,3.815-5.239,8.832-5.239,14.912
				c0,6.185,1.758,11.076,5.225,14.54c3.467,3.462,7.753,5.218,12.737,5.218c2.015,0,3.854-0.191,5.455-0.568
				c3.018-0.667,5.59-1.977,7.637-3.883c1.225-1.099,2.35-2.531,3.341-4.256c0.998-1.736,1.597-3.348,1.776-4.79
				c0.024-0.191-0.035-0.385-0.163-0.529s-0.312-0.228-0.505-0.228h-6.442c-0.3,0-0.564,0.199-0.648,0.488
				c-0.439,1.532-1.199,2.901-2.247,4.057c-1.907,2.027-4.404,3.013-7.635,3.013c-3.444,0-5.903-1.028-7.516-3.143
				c-1.532-2.009-2.409-4.687-2.612-7.969h27.646c0.005,0.001,0.011,0,0.014,0c0.372,0,0.674-0.302,0.674-0.673
				c0-0.048-0.005-0.094-0.014-0.138C251.414,355.891,251.219,353.222,250.829,351.506z M233.258,344.564
				c3.943,0,6.669,1.36,8.336,4.158c0.819,1.37,1.378,3.195,1.665,5.435h-20.001c0.235-2.68,1.234-4.933,2.976-6.706
				C228.14,345.509,230.438,344.564,233.258,344.564z"/>
		</g>
		<g>
			<path d="M279.132,337.975c-0.709-0.069-1.211-0.115-1.506-0.139c-0.316-0.024-0.54-0.036-0.671-0.036
				c-2.755,0-5.221,0.958-7.329,2.847c-1.091,0.978-1.962,1.872-2.624,2.696v-4.041c0-0.373-0.301-0.674-0.674-0.674h-6.224
				c-0.372,0-0.674,0.301-0.674,0.674v36.959c0,0.372,0.302,0.674,0.674,0.674h6.552c0.372,0,0.674-0.302,0.674-0.674v-21.257
				c0-2.478,0.813-4.606,2.487-6.51c1.63-1.852,4.02-2.791,7.102-2.791c0.371,0,0.714,0.012,1.025,0.033
				c0.303,0.021,0.641,0.064,1.005,0.129c0.195,0.035,0.397-0.019,0.55-0.146s0.241-0.316,0.241-0.516v-6.558
				C279.74,338.299,279.477,338.01,279.132,337.975z"/>
		</g>
		<g>
			<g>
				<path d="M103.14,348.619c0-3.737-1.544-5.909-4.589-7.688c-2.95-1.709-6.818-1.793-11.497-1.793
					c-4.056,0-8.169,0.117-11.912,0.117c-2.55,0-3.287,6.564-0.235,6.564c2.816,0,16.991-0.421,18.462,0.469
					c1.382,0.836,2.054,1.534,2.054,3.423c0,0.925-0.061,3.728-0.061,3.728l-13.248,1.026c-3.777,0.45-6.883,1.673-9.231,3.634
					c-2.408,2.009-3.628,4.861-3.628,8.478c0,3.309,1.232,6.103,3.661,8.306c2.41,2.186,5.544,3.294,9.314,3.294
					c3.099,0,5.978-0.638,8.558-1.897c2.052-1.001,3.746-2.164,5.052-3.467c0.236,0.944-0.292,3.832,0.167,4.424
					c0.82,1.055,5.919,1.653,7.268-0.235L103.14,348.619z M95.594,362.974c0,3.051-1.69,5.19-5.171,6.539
					c-2.1,0.827-4.299,1.246-6.537,1.246c-1.795,0-3.3-0.397-4.601-1.215c-1.238-0.776-1.839-1.812-1.839-3.169
					c0-1.812,0.894-3.095,2.736-3.92c1.14-0.515,2.896-0.9,5.217-1.146l4.032-0.413c1.264-0.122,2.567-0.325,3.872-0.607
					c0.856-0.185,1.622-0.403,2.291-0.651V362.974z"/>
			</g>
		</g>
		<g>
			<g>
				<path d="M466.531,348.619c0-3.737-1.544-5.909-4.589-7.688c-2.95-1.709-6.818-1.793-11.497-1.793
					c-4.056,0-8.169,0.117-11.912,0.117c-2.55,0-3.286,6.564-0.234,6.564c2.815,0,16.99-0.421,18.462,0.469
					c1.382,0.836,2.054,1.534,2.054,3.423c0,0.925-0.061,3.728-0.061,3.728l-13.248,1.026c-3.777,0.45-6.883,1.673-9.231,3.634
					c-2.407,2.009-3.628,4.861-3.628,8.478c0,3.309,1.232,6.103,3.661,8.306c2.41,2.186,5.545,3.294,9.314,3.294
					c3.099,0,5.978-0.638,8.558-1.897c2.053-1.001,3.745-2.164,5.053-3.467c0.235,0.944-0.293,3.832,0.167,4.424
					c0.82,1.055,5.918,1.653,7.268-0.235L466.531,348.619z M458.986,362.974c0,3.051-1.69,5.19-5.172,6.539
					c-2.1,0.827-4.299,1.246-6.536,1.246c-1.795,0-3.3-0.397-4.601-1.215c-1.238-0.776-1.839-1.812-1.839-3.169
					c0-1.812,0.894-3.095,2.735-3.92c1.14-0.515,2.896-0.9,5.218-1.146l4.031-0.413c1.264-0.122,2.567-0.325,3.872-0.607
					c0.856-0.185,1.622-0.403,2.291-0.651V362.974z"/>
			</g>
		</g>
		<g>
			<path d="M299.971,321.613h21.369c7.256,0,12.882,2.667,16.88,7.999c3.566,4.812,5.352,10.974,5.352,18.487
				c0,5.805-1.054,11.049-3.161,15.736c-3.711,8.283-10.092,12.425-19.142,12.425h-21.298V321.613z M319.92,369.938
				c2.396,0,4.364-0.261,5.907-0.781c2.752-0.968,5.005-2.828,6.761-5.581c1.4-2.206,2.408-5.033,3.025-8.481
				c0.355-2.058,0.534-3.968,0.534-5.729c0-6.771-1.288-12.028-3.861-15.773c-2.574-3.744-6.72-5.617-12.438-5.617h-12.563v41.963
				H319.92z"/>
			<path d="M321.269,376.96h-21.298c-0.386,0-0.699-0.312-0.699-0.699v-54.647c0-0.386,0.313-0.699,0.699-0.699h21.369
				c7.452,0,13.32,2.785,17.439,8.278c3.645,4.917,5.491,11.277,5.491,18.907c0,5.875-1.084,11.266-3.222,16.023
				C337.233,372.641,330.577,376.96,321.269,376.96z M300.67,375.562h20.599c8.83,0,14.883-3.93,18.504-12.012
				c2.058-4.576,3.1-9.774,3.1-15.45c0-7.323-1.754-13.403-5.215-18.071c-3.838-5.118-9.329-7.716-16.317-7.716h-20.67V375.562z
				 M319.92,370.637h-12.635c-0.386,0-0.699-0.313-0.699-0.699v-41.963c0-0.386,0.313-0.699,0.699-0.699h12.563
				c5.934,0,10.312,1.992,13.014,5.921c2.644,3.847,3.984,9.287,3.984,16.169c0,1.79-0.184,3.758-0.545,5.848
				c-0.631,3.525-1.682,6.464-3.123,8.737c-1.835,2.876-4.23,4.85-7.119,5.866C324.442,370.361,322.379,370.637,319.92,370.637z
				 M307.985,369.238h11.936c2.307,0,4.22-0.251,5.685-0.745c2.578-0.906,4.732-2.688,6.395-5.294
				c1.343-2.117,2.327-4.887,2.926-8.229c0.347-2.008,0.523-3.896,0.523-5.605c0-6.594-1.258-11.768-3.738-15.377
				c-2.425-3.526-6.416-5.314-11.861-5.314h-11.864V369.238z"/>
		</g>
		<g>
			<path d="M401.08,339.302l10.409,30.092l10.845-30.092h7.171l-14.675,36.959h-6.98l-14.375-36.959H401.08z"/>
			<path d="M414.83,376.935h-6.98c-0.277,0-0.526-0.171-0.627-0.43l-14.376-36.96c-0.081-0.206-0.054-0.44,0.072-0.624
				c0.125-0.184,0.333-0.293,0.556-0.293h7.605c0.287,0,0.543,0.182,0.637,0.453l9.785,28.289l10.198-28.298
				c0.097-0.267,0.351-0.444,0.634-0.444h7.171c0.223,0,0.432,0.11,0.557,0.295c0.126,0.185,0.151,0.42,0.068,0.627l-14.674,36.96
				C415.354,376.766,415.107,376.935,414.83,376.935z M408.311,375.587h6.062l14.141-35.612h-5.705l-10.685,29.647
				c-0.097,0.267-0.351,0.445-0.634,0.445c-0.002,0-0.003,0-0.004,0c-0.286-0.003-0.54-0.184-0.633-0.454l-10.252-29.639h-6.142
				L408.311,375.587z"/>
		</g>
		<g>
			<path d="M476.529,321.815h6.55v54.445h-6.55V321.815z"/>
			<path d="M483.078,376.959h-6.55c-0.386,0-0.698-0.312-0.698-0.698v-54.445c0-0.386,0.312-0.698,0.698-0.698h6.55
				c0.386,0,0.698,0.312,0.698,0.698v54.445C483.777,376.646,483.464,376.959,483.078,376.959z M477.226,375.563h5.155v-53.05
				h-5.155V375.563z"/>
		</g>
	</g>
</g>
</svg>
