<?xml version="1.0" encoding="utf-8"?>
<!-- Generator: Adobe Illustrator 21.0.2, SVG Export Plug-In . SVG Version: 6.00 Build 0)  -->
<svg version="1.1" id="Calque_1" xmlns="http://www.w3.org/2000/svg" xmlns:xlink="http://www.w3.org/1999/xlink" x="0px" y="0px"
	 viewBox="0 0 394 500" style="enable-background:new 0 0 394 500;" xml:space="preserve">
<style type="text/css">
	.st0{fill:#005EA1;}
	.st1{fill:#FFFFFF;}
</style>
<rect x="23.3" y="21" class="st0" width="347.5" height="458"/>
<path class="st1" d="M119,414.7c-6.2-1-15-1.4-26.3-1.3c-7.8,0.1-22.4,0-26.2-0.2c-3.8-0.2-6.3-0.8-7.5-1.7
	c-1.2-0.9-1.7-2.4-1.6-4.5c0-1.9,0.8-3.4,2.3-4.3c1.5-0.9,3.5-1.3,6.1-1.3h33.4c3.3,0,5.8,0.3,7.3,0.8c1.5,0.5,2.5,1.3,2.9,2.4
	c0.4,1.1,0.6,2.5,0.5,4.3h22.2v-2.3c0.1-4.3-0.4-8-1.6-11.2c-1.2-3.2-3.8-5.7-7.8-7.5c-4-1.8-10.2-2.7-18.6-2.7H64.4
	c-6.9,0-12.4,0.6-16.4,1.8c-4,1.2-6.9,2.8-8.7,4.9c-1.8,2.1-3,4.5-3.5,7.4c-0.5,2.8-0.7,5.9-0.6,9.1c-0.1,4.4,0.3,8.1,1.1,10.9
	c0.8,2.8,2.5,5.1,5,6.7c2.5,1.6,6.2,2.7,11.2,3.3c5,0.6,11.6,0.9,19.9,0.9c7.1,0,21.5,0,25.7,0.2c4.2,0.1,7.3,0.4,9.4,0.8
	c2,0.4,3.4,1.1,4,2c0.6,0.9,0.9,2.1,0.9,3.7c-0.1,2.7-1.1,4.4-3,5.2c-1.9,0.7-4.1,1-6.5,0.9h-36c-2.1,0-3.9-0.1-5.3-0.4
	c-1.4-0.3-2.5-1.1-3.2-2.3s-1.1-3-1.1-5.6H35.1v5c0,5.2,0.9,9.2,2.8,12c1.9,2.8,5,4.8,9.1,5.9s9.6,1.6,16.3,1.6h35.7
	c9.7,0.1,17.2-0.4,22.4-1.5c5.2-1.1,8.8-3.3,10.8-6.6c2-3.3,2.9-8.1,2.8-14.5c0.1-6.9-1-12.1-3.3-15.4
	C129.4,417.8,125.2,415.7,119,414.7z"/>
<path class="st1" d="M357,398.1c-1.5-3.7-4.1-6.6-7.9-8.8c-3.8-2.1-9.2-3.2-16.2-3.3h-75.1v72.3H280v-18.2h58.8
	c5.2-0.1,9.3-1.3,12.3-3.6c3-2.3,5.1-5.2,6.3-8.8c1.2-3.5,1.8-7.1,1.8-10.8v-6.2C359.2,406.1,358.5,401.8,357,398.1z M336.3,414.6
	c0,2.2-0.5,4-1.6,5.5c-1.1,1.4-3,2.2-5.6,2.2H280v-18.2h47.3c3.3,0,5.7,0.7,7.1,2c1.4,1.3,2.1,3.2,2,5.7V414.6z"/>
<path class="st1" d="M234.1,421.5c2.1-0.5,3.9-1.3,5.5-2.3c1.6-1,2.9-2.6,3.8-4.8c0.9-2.2,1.4-5.3,1.4-9.4c0-7-2.2-11.9-6.5-14.8
	c-4.4-2.9-10.9-4.3-19.8-4.2h-72.7v72.3h79.5c4.3,0.1,8.1-0.4,11.4-1.4c3.3-1,5.9-2.9,7.8-5.7c1.9-2.8,2.9-6.8,2.9-12
	c0.1-5.4-0.9-9.5-3-12.3C242.3,424,238.9,422.4,234.1,421.5z M168,403.3h48.1c2.1,0,3.7,0.4,4.8,1.3c1.1,0.9,1.7,2.3,1.7,4.4
	c0,2-0.6,3.5-1.7,4.3c-1.1,0.9-2.7,1.3-4.8,1.3H168V403.3z M222.4,439.8c-1.4,0.8-3.4,1.1-5.8,1.1H168v-11.3h48.6
	c2.4-0.1,4.4,0.3,5.8,1.2c1.4,0.8,2.2,2.4,2.2,4.8C224.6,437.7,223.8,439.1,222.4,439.8z"/>
<path class="st1" d="M197,198.6c0,0,4.1-0.7,5.5,6.7l20.7,112.4c0,0,0,8.4,11.6,5.4c11.7-3,77.9-27.1,99.6-83.4
	c19.7-51.2,8-110-18.9-148.1c-8-9-14.1-1.2-14.1-1.2l-73.3,61.7c0,0-14.1,13.9-31.1,13.9c-17.1,0-31.2-13.9-31.2-13.9L92.6,90.4
	c0,0-6.1-7.8-14.1,1.2c-27,38.1-38.7,96.8-18.9,148.1c21.7,56.3,87.9,80.4,99.6,83.4c11.6,3,11.6-5.4,11.6-5.4l20.7-112.4
	C192.8,197.9,197,198.6,197,198.6"/>
</svg>
