<?xml version="1.0" encoding="utf-8"?>
<!-- Generator: Adobe Illustrator 21.0.2, SVG Export Plug-In . SVG Version: 6.00 Build 0)  -->
<svg version="1.1" id="Calque_1" xmlns="http://www.w3.org/2000/svg" xmlns:xlink="http://www.w3.org/1999/xlink" x="0px" y="0px"
	 viewBox="0 0 500 74" style="enable-background:new 0 0 500 74;" xml:space="preserve">
<style type="text/css">
	.st0{fill:url(#SVGID_1_);}
	.st1{fill:url(#SVGID_2_);}
	.st2{fill:#FFFFFF;}
</style>
<linearGradient id="SVGID_1_" gradientUnits="userSpaceOnUse" x1="45.7" y1="2217.0291" x2="45.7" y2="2174.1467" gradientTransform="matrix(1 0 0 1 0 -2158.3301)">
	<stop  offset="0" style="stop-color:#E2003C"/>
	<stop  offset="0.1122" style="stop-color:#E30C44"/>
	<stop  offset="0.3148" style="stop-color:#E52C5A"/>
	<stop  offset="0.5644" style="stop-color:#E85B7B"/>
	<stop  offset="0.6478" style="stop-color:#E04569"/>
	<stop  offset="0.7953" style="stop-color:#D4244E"/>
	<stop  offset="0.918" style="stop-color:#CD0F3D"/>
	<stop  offset="1" style="stop-color:#CA0837"/>
</linearGradient>
<rect x="22.3" y="15.9" class="st0" width="46.8" height="44.9"/>
<linearGradient id="SVGID_2_" gradientUnits="userSpaceOnUse" x1="278.4" y1="2217.0291" x2="278.4" y2="2174.1467" gradientTransform="matrix(1 0 0 1 0 -2158.3301)">
	<stop  offset="0" style="stop-color:#E2003C"/>
	<stop  offset="0.1122" style="stop-color:#E30C44"/>
	<stop  offset="0.3148" style="stop-color:#E52C5A"/>
	<stop  offset="0.5644" style="stop-color:#E85B7B"/>
	<stop  offset="0.6478" style="stop-color:#E04569"/>
	<stop  offset="0.7953" style="stop-color:#D4244E"/>
	<stop  offset="0.918" style="stop-color:#CD0F3D"/>
	<stop  offset="1" style="stop-color:#CA0837"/>
</linearGradient>
<rect x="76.3" y="15.9" class="st1" width="404.2" height="44.9"/>
<path class="st2" d="M124.4,28v-0.2c0-1.8-1.4-3.2-3.2-3.2h-30c-1.8,0-3.2,1.4-3.2,3.2v9.1c0,1.8,1.4,3.2,3.2,3.2h22.9
	c0.3,0,0.5,0,0.8-0.1h4.2v0.1v8.2H86.5v0.2c0,1.8,1.4,3.2,3.2,3.2h30c1.8,0,3.2-1.4,3.2-3.2v-9.1c0-1.8-1.4-3.2-3.2-3.2H96.8
	c-0.1,0-0.1,0-0.2,0l-4.8,0V28H124.4z"/>
<path class="st2" d="M138.8,49V28.2h32.7v-1.3c0-1.8-1.4-3.2-3.2-3.2h-30.7c-1.8,0-3.2,1.4-3.2,3.2v23.6c0,1.8,1.4,3.2,3.2,3.2h30.7
	c1.8,0,3.2-1.4,3.2-3.2V49L138.8,49L138.8,49z"/>
<path class="st2" d="M252.7,41.1h5.3c3.8,0,5.2-3,5.2-4.8v-7.4c0-1.8-1.9-5-5.3-5h-23.7c-0.1,0-0.1,0-0.2,0l0,0h-4.6v29.8h4.6V41.2
	c0.1,0,0.1,0,0.2,0h11.6l14.3,12.5h6.9L252.7,41.1z M234,37.4v-9.8h22c1.8,0,3.2,1.6,3.2,3.5v2.7c0,1.9-1.4,3.5-3.2,3.5L234,37.4
	L234,37.4z"/>
<path class="st2" d="M356.2,38.7c3.2-0.9,5.5-3.7,5.5-7c0-4.1-3.5-7.4-7.8-7.4h-23.8H324l0,0v28.8h6.1h23.7c4.3,0,7.8-3.3,7.8-7.4
	C361.7,42.4,359.4,39.6,356.2,38.7z M353.8,27.9c2.2,0,4.1,1.8,4.1,4.1c0,2.2-1.8,4.1-4.1,4.1h-23.7V28h23.7V27.9z M330.1,38.7h0.1
	C330.1,38.7,330.1,38.7,330.1,38.7L330.1,38.7z M353.8,49.9h-23.7v-8.1h23.7c2.2,0,4.1,1.8,4.1,4.1C357.9,48.1,356,49.9,353.8,49.9z
	"/>
<polygon class="st2" points="406.6,28.7 406.6,24.4 376.7,24.4 376.7,24.3 371.2,24.3 371.2,52.9 371.2,52.9 371.2,53 406.6,53 
	406.6,48.7 376.7,48.7 376.7,40.1 397.5,40.1 397.5,35.8 376.7,35.8 376.7,28.7 "/>
<path class="st2" d="M451,24.3h-28c-3.3,0-6,2.7-6,6v16.6c0,3.3,2.7,6,6,6h28c3.3,0,6-2.7,6-6V30.3C457,27,454.3,24.3,451,24.3z
	 M452.3,49.2h-31.1V28.4h31.1C452.3,28.4,452.3,49.2,452.3,49.2z"/>
<path class="st2" d="M34.5,45.1V45c0-0.4,0-0.8,0-1.3c0-3.6,0.8-7.1,2.3-10.3v-0.1h0.1c4.1,0.3,8.1,1.7,11.5,4l0.1,0.1l-0.1,0.1
	c-3.7,4-8.5,6.7-13.8,7.6L34.5,45.1z M36.9,33.5c-1.5,3.2-2.3,6.6-2.3,10.2c0,0.4,0,0.8,0,1.1c5.2-0.9,9.9-3.5,13.5-7.4
	C44.9,35.2,41,33.8,36.9,33.5z"/>
<path class="st2" d="M38,31.3c4.2-7.1,12-11.8,20.8-11.8c2.9,0,5.8,0.5,8.5,1.5l0.8-2.1c-3-1.1-6.1-1.7-9.3-1.7
	c-10,0-18.8,5.6-23.3,13.9c-0.2,0-0.4,0-0.6,0c-4.5,0-8.8,1.1-12.7,3.2v2.6c3.6-2.2,7.8-3.5,12.2-3.6c-1.4,3.2-2.1,6.7-2.1,10.4
	c0,6.6,2.4,12.6,6.4,17.2h3c-3.7-3.6-6.2-8.4-6.9-13.7c2.6-0.4,5.1-1.3,7.5-2.4L51.8,61h2.6L44.2,43.8c2.2-1.3,4.2-3,5.9-5
	c5.5,4.4,9,11.3,9,18.9c0,1.1-0.1,2.2-0.2,3.3h2.2c0.1-1.1,0.2-2.2,0.2-3.3C61.4,44,51.2,32.8,38,31.3z M34.6,45c0-0.4,0-0.8,0-1.3
	c0-3.7,0.8-7.2,2.3-10.3c4.2,0.3,8.2,1.7,11.5,4C44.7,41.4,39.9,44,34.6,45z"/>
<path class="st2" d="M213,52.1c1.1,2.1,5.2,1.2,5.2,1.2l-16.7-29.8h-4.4l-16.7,29.8c0,0,4.1,0.6,5.2-1.1c1.9-3.3,3.3-5.9,3.3-5.9
	h20.8C209.7,46.2,212.5,51.2,213,52.1z M191.1,42.3l8.2-14.6l8.2,14.6H191.1z"/>
<path class="st2" d="M309.4,52.1c1.1,2.1,5.2,1.2,5.2,1.2l-16.7-29.8h-4.4l-16.7,29.8c0,0,4.1,0.6,5.2-1.1c1.9-3.3,3.3-5.9,3.3-5.9
	h20.8C306.1,46.2,308.9,51.2,309.4,52.1z M287.5,42.3l8.2-14.6l8.2,14.6H287.5z"/>
<path class="st2" d="M470.2,30.7c0-0.1,0-0.2,0-0.3v-0.5c0-0.2,0-0.4-0.1-0.5s-0.2-0.2-0.3-0.2c0.2-0.1,0.3-0.2,0.4-0.3
	c0.1-0.1,0.1-0.3,0.1-0.5c0-0.4-0.2-0.7-0.5-0.9c-0.2-0.1-0.4-0.1-0.7-0.1h-1.7v3.7h0.5v-1.6h1.1c0.2,0,0.3,0,0.4,0.1
	c0.2,0.1,0.3,0.2,0.3,0.5v0.6c0,0.1,0,0.2,0,0.3c0,0.1,0,0.1,0,0.1h0.6V31C470.3,30.9,470.2,30.8,470.2,30.7z M469.5,28.9
	c-0.1,0.1-0.3,0.1-0.5,0.1h-1.1v-1.3h1.2c0.2,0,0.3,0,0.4,0.1c0.2,0.1,0.3,0.3,0.3,0.5C469.7,28.6,469.6,28.8,469.5,28.9z"/>
<path class="st2" d="M468.9,24.8c-2.5,0-4.5,2-4.5,4.5s2,4.5,4.5,4.5s4.5-2,4.5-4.5S471.3,24.8,468.9,24.8z M468.9,32.9
	c-2,0-3.6-1.6-3.6-3.6s1.6-3.6,3.6-3.6s3.6,1.6,3.6,3.6S470.9,32.9,468.9,32.9z"/>
</svg>
