<?xml version="1.0" encoding="utf-8"?>
<!-- Generator: Adobe Illustrator 19.1.0, SVG Export Plug-In . SVG Version: 6.00 Build 0)  -->
<svg version="1.1" id="Calque_1" xmlns="http://www.w3.org/2000/svg" xmlns:xlink="http://www.w3.org/1999/xlink" x="0px" y="0px"
	 viewBox="-345 170.9 500 500" style="enable-background:new -345 170.9 500 500;" xml:space="preserve">
<style type="text/css">
	.st0{fill:url(#SVGID_1_);}
	.st1{fill:url(#SVGID_2_);}
	.st2{fill:#FFFFFF;}
</style>
<linearGradient id="SVGID_1_" gradientUnits="userSpaceOnUse" x1="-299.3065" y1="399.071" x2="-299.3065" y2="441.9532" gradientTransform="matrix(1 0 0 -1 0 841.67)">
	<stop  offset="0" style="stop-color:#E2003C"/>
	<stop  offset="0.1122" style="stop-color:#E30C44"/>
	<stop  offset="0.3148" style="stop-color:#E52C5A"/>
	<stop  offset="0.5644" style="stop-color:#E85B7B"/>
	<stop  offset="0.6478" style="stop-color:#E04569"/>
	<stop  offset="0.7953" style="stop-color:#D4244E"/>
	<stop  offset="0.918" style="stop-color:#CD0F3D"/>
	<stop  offset="1" style="stop-color:#CA0837"/>
</linearGradient>
<rect x="-322.7" y="399.8" class="st0" width="46.8" height="44.9"/>
<linearGradient id="SVGID_2_" gradientUnits="userSpaceOnUse" x1="-66.5665" y1="399.071" x2="-66.5665" y2="441.9532" gradientTransform="matrix(1 0 0 -1 0 841.67)">
	<stop  offset="0" style="stop-color:#E2003C"/>
	<stop  offset="0.1122" style="stop-color:#E30C44"/>
	<stop  offset="0.3148" style="stop-color:#E52C5A"/>
	<stop  offset="0.5644" style="stop-color:#E85B7B"/>
	<stop  offset="0.6478" style="stop-color:#E04569"/>
	<stop  offset="0.7953" style="stop-color:#D4244E"/>
	<stop  offset="0.918" style="stop-color:#CD0F3D"/>
	<stop  offset="1" style="stop-color:#CA0837"/>
</linearGradient>
<rect x="-268.7" y="399.8" class="st1" width="404.2" height="44.9"/>
<path class="st2" d="M-253.2,420.1v-8.2h32.6v-0.2c0-1.8-1.4-3.2-3.2-3.2h-30c-1.8,0-3.2,1.4-3.2,3.2v9.1c0,1.8,1.4,3.2,3.2,3.2
	h22.9c1.8,0,3.2-1.4,3.2-3.2v-0.6L-253.2,420.1L-253.2,420.1z"/>
<path class="st2" d="M-225.9,424v8.2h-32.6v0.2c0,1.8,1.4,3.2,3.2,3.2h30c1.8,0,3.2-1.4,3.2-3.2v-9.1c0-1.8-1.4-3.2-3.2-3.2h-22.9
	c-1.8,0-3.2,1.4-3.2,3.2v0.6H-225.9L-225.9,424z"/>
<path class="st2" d="M-206.2,432.9v-20.8h32.7v-1.3c0-1.8-1.4-3.2-3.2-3.2h-30.7c-1.8,0-3.2,1.4-3.2,3.2v23.6c0,1.8,1.4,3.2,3.2,3.2
	h30.7c1.8,0,3.2-1.4,3.2-3.2v-1.5L-206.2,432.9L-206.2,432.9z"/>
<path class="st2" d="M-92.3,425h5.3c3.8,0,5.2-3,5.2-4.8v-7.4c0-1.8-1.9-5-5.3-5h-23.7c-0.1,0-0.1,0-0.2,0v0h-4.6v29.8h4.6v-12.5
	c0.1,0,0.1,0,0.2,0h11.6l14.3,12.5h6.9L-92.3,425z M-111,421.3v-9.8h22c1.8,0,3.2,1.6,3.2,3.5v2.7c0,1.9-1.4,3.5-3.2,3.5L-111,421.3
	L-111,421.3z"/>
<path class="st2" d="M11.2,422.6c3.2-0.9,5.5-3.7,5.5-7c0-4.1-3.5-7.4-7.8-7.4h-23.8H-21v0V437h6.1H8.8c4.3,0,7.8-3.3,7.8-7.4
	C16.7,426.3,14.4,423.5,11.2,422.6z M8.8,411.8c2.2,0,4.1,1.8,4.1,4.1c0,2.2-1.8,4.1-4.1,4.1h-23.7v-8.1H8.8z M-14.9,422.6
	c0,0,0.1,0,0.1,0C-14.9,422.6-14.9,422.6-14.9,422.6L-14.9,422.6z M8.8,433.8h-23.7v-8.1H8.8c2.2,0,4.1,1.8,4.1,4.1
	C12.9,432,11,433.8,8.8,433.8z"/>
<polygon class="st2" points="61.6,412.6 61.6,408.3 31.7,408.3 31.7,408.2 26.2,408.2 26.2,436.8 26.2,436.8 26.2,436.9 61.6,436.9 
	61.6,432.6 31.7,432.6 31.7,424 52.5,424 52.5,419.7 31.7,419.7 31.7,412.6 "/>
<path class="st2" d="M106,408.2h-28c-3.3,0-6,2.7-6,6v16.6c0,3.3,2.7,6,6,6h28c3.3,0,6-2.7,6-6v-16.6
	C112,410.9,109.3,408.2,106,408.2z M107.3,433.1H76.2v-20.8h31.1V433.1z"/>
<path class="st2" d="M-310.5,429l0-0.1c0-0.4,0-0.8,0-1.3c0-3.6,0.8-7.1,2.3-10.3l0-0.1l0.1,0c4.1,0.3,8.1,1.7,11.5,4l0.1,0.1
	l-0.1,0.1c-3.7,4-8.5,6.7-13.8,7.6L-310.5,429z M-308.1,417.4c-1.5,3.2-2.3,6.6-2.3,10.2c0,0.4,0,0.8,0,1.1
	c5.2-0.9,9.9-3.5,13.5-7.4C-300.1,419.1-304,417.7-308.1,417.4z"/>
<path class="st2" d="M-307,415.2c4.2-7.1,12-11.8,20.8-11.8c2.9,0,5.8,0.5,8.5,1.5l0.8-2.1c-3-1.1-6.1-1.7-9.3-1.7
	c-10,0-18.8,5.6-23.3,13.9c-0.2,0-0.4,0-0.6,0c-4.5,0-8.8,1.1-12.7,3.2v2.6c3.6-2.2,7.8-3.5,12.2-3.6c-1.4,3.2-2.1,6.7-2.1,10.4
	c0,6.6,2.4,12.6,6.4,17.2h3c-3.7-3.6-6.2-8.4-6.9-13.7c2.6-0.4,5.1-1.3,7.5-2.4l9.5,16.2h2.6l-10.2-17.2c2.2-1.3,4.2-3,5.9-5
	c5.5,4.4,9,11.3,9,18.9c0,1.1-0.1,2.2-0.2,3.3h2.2c0.1-1.1,0.2-2.2,0.2-3.3C-283.6,427.9-293.8,416.7-307,415.2z M-310.4,428.9
	c0-0.4,0-0.8,0-1.3c0-3.7,0.8-7.2,2.3-10.3c4.2,0.3,8.2,1.7,11.5,4C-300.3,425.3-305.1,427.9-310.4,428.9z"/>
<path class="st2" d="M-132,436c1.1,2.1,5.2,1.2,5.2,1.2l-16.7-29.8h-4.4l-16.7,29.8c0,0,4.1,0.6,5.2-1.1c1.9-3.3,3.3-5.9,3.3-5.9
	h20.8C-135.3,430.1-132.5,435.1-132,436z M-153.9,426.2l8.2-14.6l8.2,14.6H-153.9z"/>
<path class="st2" d="M-35.6,436c1.1,2.1,5.2,1.2,5.2,1.2l-16.7-29.8h-4.4l-16.7,29.8c0,0,4.1,0.6,5.2-1.1c1.9-3.3,3.3-5.9,3.3-5.9
	h20.8C-38.9,430.1-36.1,435.1-35.6,436z M-57.5,426.2l8.2-14.6l8.2,14.6H-57.5z"/>
<path class="st2" d="M125.2,414.6c0-0.1,0-0.2,0-0.3l0-0.5c0-0.2,0-0.4-0.1-0.5c-0.1-0.1-0.2-0.2-0.3-0.2c0.2-0.1,0.3-0.2,0.4-0.3
	s0.1-0.3,0.1-0.5c0-0.4-0.2-0.7-0.5-0.9c-0.2-0.1-0.4-0.1-0.7-0.1h-1.7v3.7h0.5v-1.6h1.1c0.2,0,0.3,0,0.4,0.1
	c0.2,0.1,0.3,0.2,0.3,0.5l0,0.6c0,0.1,0,0.2,0,0.3c0,0.1,0,0.1,0,0.1h0.6v-0.1C125.3,414.8,125.2,414.7,125.2,414.6z M124.5,412.8
	c-0.1,0.1-0.3,0.1-0.5,0.1h-1.1v-1.3h1.2c0.2,0,0.3,0,0.4,0.1c0.2,0.1,0.3,0.3,0.3,0.5C124.7,412.5,124.6,412.7,124.5,412.8z"/>
<path class="st2" d="M123.9,408.7c-2.5,0-4.5,2-4.5,4.5s2,4.5,4.5,4.5c2.5,0,4.5-2,4.5-4.5S126.3,408.7,123.9,408.7z M123.9,416.8
	c-2,0-3.6-1.6-3.6-3.6c0-2,1.6-3.6,3.6-3.6s3.6,1.6,3.6,3.6S125.9,416.8,123.9,416.8z"/>
</svg>
