<?xml version="1.0" encoding="utf-8"?>
<!-- Generator: Adobe Illustrator 19.1.0, SVG Export Plug-In . SVG Version: 6.00 Build 0)  -->
<svg version="1.1" id="Calque_1" xmlns="http://www.w3.org/2000/svg" xmlns:xlink="http://www.w3.org/1999/xlink" x="0px" y="0px"
	 viewBox="-345 170.9 500 500" style="enable-background:new -345 170.9 500 500;" xml:space="preserve">
<style type="text/css">
	.st0{fill:#FFEC00;}
	.st1{fill:#1D1D1B;}
	.st2{fill:#E4221B;}
</style>
<rect x="-333.8" y="376.7" class="st0" width="480.3" height="91.2"/>
<path class="st1" d="M-197.4,409.8l13.5-0.6c0.3,1.7,0.9,2.9,1.8,3.8c1.5,1.4,3.5,2.1,6.3,2.1c2,0,3.6-0.4,4.7-1.1
	c1.1-0.7,1.6-1.6,1.6-2.5c0-0.9-0.5-1.7-1.6-2.4c-1-0.7-3.5-1.4-7.3-2c-6.2-1.1-10.6-2.5-13.3-4.2c-2.7-1.8-4-4-4-6.7
	c0-1.8,0.7-3.5,2-5.1c1.4-1.6,3.4-2.8,6.2-3.8c2.7-0.9,6.5-1.4,11.3-1.4c5.9,0,10.3,0.8,13.4,2.5c3.1,1.7,4.9,4.3,5.5,7.9l-13.4,0.6
	c-0.4-1.6-1.1-2.7-2.2-3.4c-1.1-0.7-2.7-1.1-4.7-1.1c-1.6,0-2.9,0.3-3.7,0.8c-0.8,0.5-1.3,1.2-1.3,1.9c0,0.6,0.3,1.1,1,1.5
	c0.7,0.5,2.3,0.9,4.8,1.3c6.2,1,10.6,2,13.3,3.1c2.7,1,4.6,2.3,5.9,3.9c1.2,1.5,1.8,3.3,1.8,5.2c0,2.2-0.8,4.3-2.4,6.2
	c-1.6,1.9-3.9,3.3-6.8,4.3c-2.9,1-6.6,1.5-11,1.5c-7.8,0-13.2-1.1-16.2-3.4C-195.4,416.3-197.1,413.4-197.4,409.8z"/>
<path class="st1" d="M-106.5,386.5h12.9v12.2h14.1v-12.2h12.9v34.9h-12.9v-14.1h-14.1v14.1h-12.9V386.5z"/>
<path class="st1" d="M-34.1,415.6h-14.6l-2,5.8h-13.1l15.6-34.9h14l15.6,34.9H-32L-34.1,415.6z M-36.8,408.1l-4.6-12.5l-4.5,12.5
	H-36.8z"/>
<path class="st1" d="M-16.9,386.5h37.8v7.4H-4.4v5.5h19.5v7.1H-4.4v6.9H21v7.9h-38L-16.9,386.5L-16.9,386.5z"/>
<path class="st1" d="M60.3,386.5h37.8v7.4H72.9v5.5h19.5v7.1H72.9v6.9h25.4v7.9h-38L60.3,386.5L60.3,386.5z"/>
<path class="st1" d="M22.9,386.5h34.3v7.5H35.8v6.1h18.7v7H35.8v14.2H22.9V386.5z"/>
<path class="st1" d="M-121.7,407.1c-0.6,2.2-1.6,3.9-3,5c-1.4,1.2-3.4,1.7-6.1,1.7c-2.8,0-4.9-0.7-6.5-2.1c-1.5-1.4-2.3-4.1-2.3-7.9
	c0-3.1,0.6-5.4,1.9-6.9c1.7-2,4.1-2.9,7.3-2.9c1.4,0,2.7,0.2,3.8,0.7c1.1,0.4,2.1,1.1,2.9,1.9c0.5,0.5,0.9,1.3,1.4,2.3l12.2-0.1
	c0,0,0.5-2.9-1.6-5.5c-1.3-1.8-3.5-3.7-5.5-4.7c-3.3-1.8-7.8-2.7-13.5-2.7c-7.3,0-13,1.5-17,4.6c-4,3.1-6,7.5-6,13.3
	c0,4.3,1.1,7.9,3.4,10.6c2.3,2.8,5,4.7,8.1,5.8c3.1,1.1,7.2,1.7,12.1,1.7c4.1,0,7.4-0.5,10.1-1.4c2.6-0.9,4.9-2.2,6.6-4
	c1.8-1.8,3.2-4.8,4-9.4L-121.7,407.1z"/>
<path class="st1" d="M143.4,396.8L143.4,396.8c0-0.2,0-0.4,0-0.6c0-2.2-0.7-4.1-2-5.6c-1.3-1.5-3.1-2.6-5.3-3.2
	c-2.2-0.6-8.7-0.9-12.8-0.9H101v34.9h13.4v-12.3c0,0,12.5,0,13,0c0.9,0.7,1.7,2.7,1.7,4.7c0,2.4,0.2,7.6,0.2,7.6H143
	c0,0,0.6-7-3-12.2c-0.5-0.8-1.9-1.9-3.3-2.6C140.5,404.8,143.4,401.8,143.4,396.8z M114.4,393.5h7.3c3,0,5.1,0.3,6.2,0.9
	c1.1,0.6,1.7,1.5,1.7,2.6c0,0.8-0.3,1.4-1.1,2c-0.7,0.6-1.6,1-2.7,1.1c-2.2,0.3-3.7,0.5-4.4,0.5h-7L114.4,393.5L114.4,393.5z"/>
<path class="st1" d="M118.4,386.6c0,0,25-2.2,25,10.8"/>
<polygon class="st1" points="-317.5,435.5 -320.8,435.5 -320.8,459.5 -307.5,459.5 -307.5,456.1 -317.5,456.1 "/>
<path class="st1" d="M-309.5,439.3h1.3c0,0.7-0.2,1.2-0.4,1.6c-0.2,0.4-0.5,0.7-0.9,0.9l-0.3,0.2l0.9,1.8l0.3-0.2
	c0.9-0.5,1.6-1.2,2-2.1c0.3-0.7,0.5-1.7,0.5-3.2v-3h-3.4C-309.5,435.3-309.5,439.3-309.5,439.3z"/>
<polygon class="st1" points="-295.9,448.8 -288.9,448.8 -288.9,445.4 -295.9,445.4 -295.9,439 -288.2,439 -288.2,435.5 
	-299.3,435.5 -299.3,459.5 -287.7,459.5 -287.7,456.1 -295.9,456.1 "/>
<polygon class="st1" points="-271.4,452.6 -280.3,435.5 -283.4,435.5 -283.4,459.5 -280.3,459.5 -280.3,442.4 -271.4,459.5 
	-268.3,459.5 -268.3,435.5 -271.4,435.5 "/>
<path class="st1" d="M-249.9,451c-0.3,1.9-0.8,3.3-1.6,4.3c-0.7,0.9-1.6,1.4-2.7,1.4c-0.9,0-1.7-0.3-2.4-1c-0.8-0.7-1.3-1.7-1.7-3.1
	c-0.4-1.4-0.6-3.2-0.6-5.1c0-1.5,0.2-3,0.5-4.4c0.3-1.4,0.9-2.5,1.6-3.3c0.7-0.8,1.7-1.2,2.8-1.2c1,0,1.7,0.3,2.4,1
	c0.6,0.7,1.2,1.9,1.5,3.5l0.1,0.4l2.7-0.9l-0.1-0.3c-0.4-2.2-1.2-3.9-2.3-5.2c-1.1-1.3-2.6-1.9-4.2-1.9c-1.5,0-2.8,0.5-4,1.5
	c-1.2,1-2.1,2.4-2.8,4.3c-0.6,1.8-1,4-1,6.5c0,2.2,0.3,4.4,0.8,6.3c0.6,2,1.4,3.5,2.5,4.6c1.1,1.1,2.6,1.6,4.4,1.6
	c1.7,0,3.2-0.7,4.4-2.1c1.2-1.4,2-3.4,2.4-6l0-0.3l-2.8-1L-249.9,451z"/>
<polygon class="st1" points="-231.1,445.1 -237.8,445.1 -237.8,435.5 -240.4,435.5 -240.4,459.5 -237.8,459.5 -237.8,448.5 
	-231.1,448.5 -231.1,459.5 -228.5,459.5 -228.5,435.5 -231.1,435.5 "/>
<path class="st1" d="M-216.8,435.5l-5.9,24h2.8l1.6-7.1h5.6l1.7,7.1h3l-6.2-24H-216.8z M-214.8,443.2l1.4,6h-4.1l1.5-6.4
	c0.2-0.8,0.4-1.6,0.5-2.4C-215.3,441.3-215.1,442.2-214.8,443.2z"/>
<rect x="-200.7" y="435.5" class="st1" width="3.4" height="24"/>
<polygon class="st1" points="-179.5,452.7 -187.8,435.5 -190.7,435.5 -190.7,459.5 -187.8,459.5 -187.8,442.4 -179.5,459.5 
	-176.6,459.5 -176.6,435.5 -179.5,435.5 "/>
<polygon class="st1" points="-166.6,448.8 -159.5,448.8 -159.5,445.4 -166.6,445.4 -166.6,439 -158.7,439 -158.7,435.5 -170,435.5 
	-170,459.5 -158.3,459.5 -158.3,456.1 -166.6,456.1 "/>
<path class="st1" d="M-142.4,452c-0.2,1-0.5,1.8-0.6,2.5c-0.1-0.6-0.3-1.4-0.5-2.2l-4.1-16.7h-3.9v24h2.8v-17.8l4.5,17.8h2.5
	l4.5-17.5v17.5h2.8v-24h-3.6L-142.4,452z"/>
<polygon class="st1" points="-125,448.8 -118.1,448.8 -118.1,445.4 -125,445.4 -125,439 -117.3,439 -117.3,435.5 -128.3,435.5 
	-128.3,459.5 -116.8,459.5 -116.8,456.1 -125,456.1 "/>
<polygon class="st1" points="-40.9,448.8 -34,448.8 -34,445.4 -40.9,445.4 -40.9,439 -33.3,439 -33.3,435.5 -44.3,435.5 
	-44.3,459.5 -32.8,459.5 -32.8,456.1 -40.9,456.1 "/>
<polygon class="st1" points="-99.9,452.6 -108.6,435.5 -111.6,435.5 -111.6,459.5 -108.6,459.5 -108.6,442.4 -99.9,459.5 
	-96.9,459.5 -96.9,435.5 -99.9,435.5 "/>
<polygon class="st1" points="-93.1,439 -88.1,439 -88.1,459.5 -84.7,459.5 -84.7,439 -79.1,439 -79.1,435.5 -93.1,435.5 "/>
<polygon class="st1" points="57.7,439 62.7,439 62.7,459.5 66,459.5 66,439 71.7,439 71.7,435.5 57.7,435.5 "/>
<path class="st1" d="M-54.8,437.7c-0.6-0.9-1.4-1.5-2.3-1.8c-0.6-0.2-1.5-0.4-2.7-0.4H-65v24h5.5c0.9,0,1.7-0.1,2.4-0.4
	c0.7-0.3,1.3-0.7,1.8-1.3c0.5-0.5,1-1.3,1.4-2.2c0.4-0.9,0.7-2.1,1-3.5c0.3-1.4,0.4-3,0.4-4.8c0-2.1-0.2-4-0.6-5.6
	C-53.4,440.1-54,438.8-54.8,437.7z M-62.4,439h2.7c1.1,0,1.8,0.1,2.3,0.4c0.6,0.4,1.2,1.2,1.7,2.5c0.5,1.3,0.7,3.1,0.7,5.5
	c0,1.7-0.1,3.2-0.4,4.4c-0.2,1.2-0.6,2.1-1,2.8c-0.3,0.5-0.7,0.8-1.2,1.1c-0.5,0.3-1.2,0.4-2.1,0.4h-2.7L-62.4,439L-62.4,439z"/>
<path class="st1" d="M-6.3,446.6c-0.7-0.4-2-0.9-3.9-1.5c-2.2-0.7-3-1.2-3.2-1.5c-0.4-0.5-0.6-1.1-0.6-1.8c0-0.9,0.3-1.6,0.8-2.2
	c0.6-0.6,1.5-0.9,2.7-0.9c1.2,0,2.1,0.3,2.7,1c0.6,0.7,1,1.7,1.1,3.1l0,0.4l2.8-0.3l0-0.3c0-1.4-0.3-2.7-0.9-3.8
	c-0.6-1.1-1.3-2-2.4-2.6c-1-0.6-2.2-0.9-3.5-0.9c-1.2,0-2.3,0.3-3.3,0.8c-1,0.6-1.8,1.4-2.3,2.5c-0.5,1.1-0.8,2.2-0.8,3.4
	c0,1.1,0.2,2.1,0.6,3c0.4,0.9,1.1,1.7,1.9,2.3c0.7,0.5,1.8,1,3.4,1.5c1.5,0.5,2.5,0.9,3,1.1c0.6,0.3,1.1,0.8,1.4,1.2
	c0.3,0.5,0.4,1.1,0.4,1.7c0,0.7-0.1,1.3-0.4,1.8c-0.3,0.6-0.7,1-1.3,1.3c-0.6,0.3-1.3,0.5-2.1,0.5c-0.9,0-1.7-0.2-2.4-0.6
	c-0.7-0.4-1.2-1-1.6-1.7c-0.3-0.7-0.6-1.6-0.7-2.7l0-0.4l-2.8,0.3l0,0.3c0,1.6,0.4,3.1,1,4.3c0.6,1.3,1.5,2.3,2.6,2.9
	c1.1,0.6,2.5,1,4.1,1c1.3,0,2.4-0.3,3.5-1s1.8-1.6,2.4-2.7c0.5-1.1,0.8-2.4,0.8-3.7c0-1.3-0.3-2.5-0.7-3.5
	C-4.4,448.1-5.2,447.3-6.3,446.6z"/>
<path class="st1" d="M138.9,449.1c-0.5-1-1.3-1.9-2.3-2.5c-0.7-0.4-2-0.9-3.9-1.5c-2.2-0.7-3-1.2-3.2-1.5c-0.4-0.5-0.6-1.1-0.6-1.8
	c0-0.9,0.3-1.6,0.8-2.2c0.5-0.6,1.5-0.9,2.7-0.9c1.2,0,2.1,0.3,2.7,1c0.6,0.7,1,1.7,1.1,3.1l0,0.4l2.8-0.3l0-0.3
	c0-1.4-0.3-2.7-0.9-3.8c-0.5-1.1-1.3-2-2.4-2.6c-1-0.6-2.2-0.9-3.5-0.9c-1.2,0-2.3,0.3-3.3,0.8c-1,0.6-1.8,1.4-2.3,2.5
	c-0.5,1.1-0.8,2.2-0.8,3.4c0,1.1,0.2,2.1,0.6,3c0.4,0.9,1.1,1.7,1.9,2.3c0.7,0.5,1.8,1,3.4,1.5c1.5,0.5,2.5,0.9,3,1.1
	c0.6,0.3,1.1,0.8,1.4,1.2c0.3,0.5,0.4,1.1,0.4,1.7c0,0.7-0.1,1.3-0.4,1.8c-0.3,0.6-0.7,1-1.3,1.3c-0.6,0.3-1.3,0.5-2.1,0.5
	c-0.9,0-1.7-0.2-2.4-0.6c-0.7-0.4-1.2-1-1.6-1.7c-0.3-0.7-0.6-1.6-0.7-2.7l0-0.4l-2.8,0.3l0,0.3c0,1.6,0.4,3.1,1,4.3
	c0.6,1.3,1.5,2.3,2.6,2.9c1.1,0.6,2.5,1,4.1,1c1.3,0,2.4-0.3,3.5-1s1.8-1.6,2.4-2.7c0.5-1.1,0.8-2.4,0.8-3.7
	C139.7,451.3,139.4,450.1,138.9,449.1z"/>
<path class="st1" d="M12.9,436.8c-1.1-1.1-2.4-1.7-3.9-1.7c-2.2,0-3.9,1.2-5.3,3.5c-1.3,2.2-1.9,5.3-1.9,9.2c0,2.1,0.3,4,0.8,5.9
	c0.6,1.9,1.4,3.4,2.5,4.5c1.1,1.1,2.4,1.7,3.9,1.7c1.3,0,2.6-0.5,3.8-1.5c1.1-1,2-2.5,2.6-4.4c0.6-1.9,0.9-4,0.9-6.4
	c0-2.3-0.3-4.5-0.8-6.3C14.8,439.3,14,437.8,12.9,436.8z M12.8,447.5c0,2.9-0.4,5.2-1.1,6.8c-0.7,1.5-1.6,2.2-2.7,2.2
	c-1.1,0-1.9-0.7-2.6-2.2c-0.8-1.6-1.1-3.7-1.1-6.5c0-3.4,0.4-5.9,1.2-7.3c0.8-1.4,1.6-2.1,2.6-2.1c0.7,0,1.3,0.3,1.9,1
	c0.6,0.7,1.1,1.8,1.4,3.1C12.6,444,12.8,445.7,12.8,447.5z"/>
<path class="st1" d="M96.6,436.8c-1.1-1.1-2.4-1.7-3.9-1.7c-2.2,0-3.9,1.2-5.3,3.5c-1.3,2.2-1.9,5.3-1.9,9.2c0,2.1,0.3,4,0.8,5.9
	c0.6,1.9,1.4,3.4,2.5,4.5c1.1,1.1,2.4,1.7,3.9,1.7c1.3,0,2.6-0.5,3.8-1.5c1.1-1,2-2.5,2.6-4.4c0.6-1.9,0.9-4,0.9-6.4
	c0-2.3-0.3-4.5-0.8-6.3C98.6,439.3,97.7,437.8,96.6,436.8z M96.6,447.5c0,2.9-0.4,5.2-1.1,6.8c-0.7,1.5-1.6,2.2-2.7,2.2
	c-1.1,0-1.9-0.7-2.6-2.2c-0.8-1.6-1.1-3.7-1.1-6.5c0-3.4,0.4-5.9,1.2-7.3c0.8-1.4,1.6-2.1,2.6-2.1c0.7,0,1.3,0.3,1.9,1
	c0.6,0.7,1.1,1.8,1.4,3.1C96.4,444,96.6,445.7,96.6,447.5z"/>
<polygon class="st1" points="26.6,435.5 23.6,435.5 23.6,459.5 35.3,459.5 35.3,456.1 26.6,456.1 "/>
<path class="st1" d="M49.4,449.3c0,2.8-0.3,4.8-0.9,5.7c-0.6,0.9-1.5,1.4-2.9,1.4c-0.8,0-1.5-0.2-2-0.7c-0.6-0.5-1-1.2-1.2-2
	c-0.2-0.9-0.4-2.4-0.4-4.4v-13.8h-2.8v13.8c0,2.5,0.2,4.5,0.6,5.9c0.4,1.5,1.1,2.6,2.1,3.4c1,0.8,2.3,1.2,3.8,1.2
	c1.6,0,2.9-0.5,3.9-1.4c1-0.9,1.6-2.1,2-3.5c0.4-1.4,0.5-3.3,0.5-5.7v-13.8h-2.8L49.4,449.3L49.4,449.3z"/>
<rect x="76" y="435.5" class="st1" width="3.4" height="24"/>
<polygon class="st1" points="117.9,452.6 109.6,435.7 109.5,435.5 106.6,435.5 106.6,459.5 109.5,459.5 109.5,442.5 117.8,459.3 
	117.9,459.5 120.8,459.5 120.8,435.5 117.9,435.5 "/>
<polygon class="st2" points="-236,386.1 -275.5,386.1 -275.5,408 -248.7,408 -248.7,411.5 -275.6,411.5 -275.6,422 -236.1,422 
	-236.1,399.3 -264,399.3 -264,395.9 -236,395.9 "/>
<polygon class="st2" points="-278.4,386.1 -312.4,386.1 -326.3,404.1 -321.8,408 -291.1,408 -291.1,411.5 -319.7,411.5 -312,422 
	-278.5,422 -278.5,399.3 -306.4,399.3 -306.4,395.9 -278.4,395.9 "/>
<rect x="-232.8" y="386" class="st2" width="13.2" height="36"/>
</svg>
