<?xml version="1.0" encoding="utf-8"?>
<!-- Generator: Adobe Illustrator 15.0.0, SVG Export Plug-In . SVG Version: 6.00 Build 0)  -->
<!DOCTYPE svg PUBLIC "-//W3C//DTD SVG 1.1//EN" "http://www.w3.org/Graphics/SVG/1.1/DTD/svg11.dtd">
<svg version="1.1" id="Calque_1" xmlns="http://www.w3.org/2000/svg" xmlns:xlink="http://www.w3.org/1999/xlink" x="0px" y="0px"
	 width="500px" height="500px" viewBox="0 0 500 500" enable-background="new 0 0 500 500" xml:space="preserve">
<g>
	<rect x="11.194" y="205.769" fill="#FFEC00" width="480.257" height="91.212"/>
	<g>
		<path fill="#1D1D1B" d="M147.552,238.946l13.483-0.643c0.292,1.665,0.887,2.934,1.785,3.806c1.458,1.412,3.544,2.117,6.256,2.117
			c2.023,0,3.582-0.36,4.677-1.081c1.097-0.722,1.645-1.559,1.645-2.51c0-0.904-0.523-1.712-1.565-2.426
			c-1.043-0.714-3.463-1.388-7.257-2.022c-6.218-1.062-10.65-2.474-13.299-4.233c-2.671-1.761-4.004-4.004-4.004-6.731
			c0-1.792,0.683-3.485,2.048-5.079c1.367-1.593,3.421-2.846,6.164-3.758c2.742-0.912,6.502-1.368,11.279-1.368
			c5.86,0,10.33,0.83,13.406,2.485c3.076,1.658,4.906,4.294,5.491,7.909l-13.359,0.594c-0.356-1.569-1.1-2.711-2.237-3.424
			c-1.137-0.714-2.707-1.07-4.709-1.07c-1.648,0-2.89,0.265-3.723,0.796c-0.834,0.532-1.252,1.177-1.252,1.938
			c0,0.556,0.344,1.056,1.032,1.499c0.668,0.461,2.253,0.888,4.757,1.285c6.193,1.015,10.632,2.042,13.311,3.08
			c2.682,1.038,4.631,2.327,5.852,3.865c1.221,1.538,1.83,3.258,1.83,5.162c0,2.235-0.813,4.297-2.439,6.185
			c-1.627,1.887-3.901,3.317-6.821,4.292c-2.921,0.975-6.602,1.464-11.044,1.464c-7.801,0-13.203-1.144-16.206-3.427
			C149.647,245.368,147.948,242.466,147.552,238.946z"/>
		<path fill="#1D1D1B" d="M238.482,215.613h12.863v12.201h14.057v-12.201h12.921v34.87h-12.921v-14.105h-14.057v14.105h-12.863
			V215.613z"/>
		<path fill="#1D1D1B" d="M310.889,244.726h-14.604l-2.028,5.757h-13.136l15.647-34.87H310.8l15.642,34.87h-13.469L310.889,244.726z
			 M308.22,237.187l-4.594-12.536l-4.546,12.536H308.22z"/>
		<path fill="#1D1D1B" d="M328.059,215.613h37.807v7.445h-25.239v5.542h19.524v7.112h-19.524v6.874h25.414v7.897h-37.981V215.613z"
			/>
		<path fill="#1D1D1B" d="M405.297,215.613h37.808v7.445h-25.239v5.542h19.524v7.112h-19.524v6.874h25.414v7.897h-37.982V215.613z"
			/>
		<path fill="#1D1D1B" d="M367.868,215.613h34.345v7.492h-21.424v6.09h18.669v7.041h-18.669v14.248h-12.921V215.613z"/>
		<path fill="#1D1D1B" d="M223.33,236.211c-0.622,2.204-1.622,3.885-3.001,5.042s-3.415,1.736-6.109,1.736
			c-2.778,0-4.933-0.717-6.467-2.15c-1.534-1.434-2.301-4.082-2.301-7.947c0-3.12,0.644-5.408,1.928-6.866
			c1.7-1.964,4.146-2.946,7.339-2.946c1.408,0,2.684,0.222,3.822,0.666c1.142,0.444,2.105,1.079,2.893,1.903
			c0.477,0.491,0.933,1.268,1.368,2.331l12.177-0.088c0,0,0.47-2.887-1.592-5.482c-1.309-1.848-3.48-3.653-5.47-4.729
			c-3.287-1.775-7.801-2.665-13.541-2.665c-7.339,0-13.013,1.549-17.023,4.647c-4.011,3.098-6.017,7.531-6.017,13.299
			c0,4.326,1.14,7.876,3.42,10.649c2.28,2.773,4.991,4.71,8.132,5.811c3.14,1.102,7.187,1.654,12.142,1.654
			c4.082,0,7.446-0.454,10.088-1.357c2.645-0.903,4.856-2.243,6.639-4.02c1.783-1.775,3.165-4.847,4.039-9.449L223.33,236.211z"/>
		<path fill="#1D1D1B" d="M488.364,225.942l-0.038,0.019c0.014-0.223,0.042-0.438,0.042-0.668c0-2.22-0.671-4.103-2.008-5.649
			s-3.097-2.604-5.278-3.175c-2.183-0.572-8.718-0.856-12.844-0.856h-22.265v34.87h13.415V238.16c0,0,12.485,0.01,12.958,0.014
			c0.947,0.664,1.688,2.738,1.688,4.718c0,2.354,0.227,7.59,0.227,7.59h13.705c0,0,0.631-6.999-2.999-12.222
			c-0.546-0.785-1.928-1.861-3.253-2.562C485.5,233.904,488.364,230.909,488.364,225.942z M459.389,222.653h7.337
			c3.05,0,5.129,0.302,6.233,0.904c1.106,0.604,1.659,1.467,1.659,2.593c0,0.761-0.349,1.435-1.052,2.022
			c-0.701,0.586-1.603,0.951-2.707,1.093c-2.188,0.317-3.663,0.476-4.429,0.476h-7.042V222.653z"/>
		<path fill="#1D1D1B" d="M463.375,215.73c0,0,24.989-2.221,24.989,10.795"/>
	</g>
	<g>
		<polygon fill="#1D1D1B" points="27.533,264.644 24.151,264.644 24.151,288.632 37.518,288.632 37.518,285.185 27.533,285.185 		
			"/>
		<path fill="#1D1D1B" d="M35.532,268.426h1.282c-0.048,0.654-0.165,1.182-0.354,1.57c-0.211,0.432-0.521,0.739-0.948,0.939
			l-0.335,0.158l0.947,1.755l0.306-0.158c0.905-0.468,1.581-1.175,2.01-2.104c0.31-0.676,0.461-1.727,0.461-3.209v-2.971h-3.369
			V268.426z"/>
		<polygon fill="#1D1D1B" points="49.103,277.956 56.079,277.956 56.079,274.525 49.103,274.525 49.103,268.091 56.838,268.091 
			56.838,264.644 45.723,264.644 45.723,288.632 57.309,288.632 57.309,285.185 49.103,285.185 		"/>
		<polygon fill="#1D1D1B" points="73.592,281.707 64.731,264.644 61.641,264.644 61.641,288.632 64.711,288.632 64.711,271.556 
			73.573,288.632 76.664,288.632 76.664,264.644 73.592,264.644 		"/>
		<path fill="#1D1D1B" d="M95.133,280.066c-0.276,1.887-0.803,3.322-1.567,4.263c-0.743,0.917-1.622,1.363-2.688,1.363
			c-0.879,0-1.678-0.328-2.438-1.007c-0.766-0.68-1.342-1.736-1.713-3.141c-0.38-1.443-0.573-3.157-0.573-5.098
			c0-1.503,0.164-2.981,0.486-4.395c0.312-1.377,0.859-2.484,1.624-3.293c0.748-0.791,1.656-1.177,2.775-1.177
			c0.957,0,1.728,0.341,2.358,1.043c0.649,0.726,1.156,1.917,1.504,3.543l0.085,0.386l2.708-0.944l-0.059-0.298
			c-0.433-2.205-1.216-3.945-2.324-5.171c-1.139-1.257-2.562-1.896-4.229-1.896c-1.461,0-2.818,0.5-4.033,1.484
			c-1.201,0.977-2.138,2.412-2.782,4.271c-0.635,1.835-0.957,4.009-0.957,6.462c0,2.246,0.284,4.378,0.845,6.339
			c0.568,1.987,1.416,3.534,2.518,4.596c1.125,1.082,2.597,1.631,4.378,1.631c1.735,0,3.224-0.711,4.422-2.116
			c1.171-1.372,1.988-3.378,2.434-5.959l0.049-0.285l-2.758-1.03L95.133,280.066z"/>
		<polygon fill="#1D1D1B" points="113.915,274.207 107.204,274.207 107.204,264.644 104.618,264.644 104.618,288.632 
			107.204,288.632 107.204,277.654 113.915,277.654 113.915,288.632 116.501,288.632 116.501,264.644 113.915,264.644 		"/>
		<path fill="#1D1D1B" d="M128.178,264.644l-5.858,23.988h2.84l1.625-7.054h5.608l1.727,7.054h2.991l-6.241-23.988H128.178z
			 M130.173,272.348l1.444,6.021h-4.103l1.524-6.405c0.186-0.797,0.352-1.603,0.492-2.409
			C129.713,270.392,129.927,271.324,130.173,272.348z"/>
		<rect x="144.333" y="264.644" fill="#1D1D1B" width="3.38" height="23.988"/>
		<polygon fill="#1D1D1B" points="165.537,281.762 157.204,264.644 154.337,264.644 154.337,288.632 157.187,288.632 157.187,271.5 
			165.519,288.632 168.387,288.632 168.387,264.644 165.537,264.644 		"/>
		<polygon fill="#1D1D1B" points="178.428,277.956 185.516,277.956 185.516,274.525 178.428,274.525 178.428,268.091 
			186.278,268.091 186.278,264.644 175.048,264.644 175.048,288.632 186.748,288.632 186.748,285.185 178.428,285.185 		"/>
		<path fill="#1D1D1B" d="M202.581,281.098c-0.248,0.984-0.456,1.825-0.626,2.523c-0.147-0.621-0.328-1.365-0.539-2.235
			l-4.137-16.742h-3.947v23.988h2.789v-17.761l4.459,17.761h2.495l4.483-17.478v17.478h2.788v-23.988h-3.581L202.581,281.098z"/>
		<polygon fill="#1D1D1B" points="220.034,277.956 226.932,277.956 226.932,274.525 220.034,274.525 220.034,268.091 
			227.693,268.091 227.693,264.644 216.654,264.644 216.654,288.632 228.163,288.632 228.163,285.185 220.034,285.185 		"/>
		<polygon fill="#1D1D1B" points="304.089,277.956 310.986,277.956 310.986,274.525 304.089,274.525 304.089,268.091 
			311.748,268.091 311.748,264.644 300.709,264.644 300.709,288.632 312.218,288.632 312.218,285.185 304.089,285.185 		"/>
		<polygon fill="#1D1D1B" points="245.108,281.707 236.441,264.644 233.421,264.644 233.421,288.632 236.423,288.632 
			236.423,271.556 245.089,288.632 248.111,288.632 248.111,264.644 245.108,264.644 		"/>
		<polygon fill="#1D1D1B" points="251.929,268.091 256.902,268.091 256.902,288.632 260.284,288.632 260.284,268.091 
			265.909,268.091 265.909,264.644 251.929,264.644 		"/>
		<polygon fill="#1D1D1B" points="402.679,268.091 407.652,268.091 407.652,288.632 411.034,288.632 411.034,268.091 
			416.658,268.091 416.658,264.644 402.679,264.644 		"/>
		<path fill="#1D1D1B" d="M290.192,266.79c-0.62-0.857-1.382-1.46-2.264-1.788c-0.637-0.24-1.513-0.358-2.68-0.358h-5.295v23.988
			h5.529c0.908,0,1.728-0.142,2.435-0.422c0.717-0.283,1.336-0.705,1.842-1.254c0.496-0.54,0.958-1.282,1.37-2.209
			c0.407-0.918,0.744-2.085,1.002-3.47c0.257-1.379,0.388-2.982,0.388-4.768c0-2.094-0.192-3.983-0.571-5.615
			C291.564,269.244,290.973,267.863,290.192,266.79z M282.553,268.091h2.666c1.057,0,1.821,0.142,2.271,0.423
			c0.636,0.4,1.193,1.227,1.657,2.457c0.477,1.262,0.717,3.109,0.717,5.493c0,1.726-0.124,3.212-0.37,4.418
			c-0.241,1.188-0.58,2.141-1.008,2.833c-0.288,0.468-0.665,0.821-1.153,1.082c-0.486,0.257-1.181,0.388-2.062,0.388h-2.717V268.091
			z"/>
		<path fill="#1D1D1B" d="M338.731,275.721c-0.716-0.443-1.977-0.939-3.855-1.521c-2.188-0.676-2.967-1.214-3.235-1.547
			c-0.388-0.475-0.584-1.097-0.584-1.845c0-0.882,0.276-1.612,0.846-2.235c0.551-0.603,1.468-0.91,2.726-0.91
			c1.216,0,2.103,0.33,2.71,1.01c0.615,0.693,0.984,1.746,1.095,3.133l0.028,0.355l2.843-0.291l-0.01-0.324
			c-0.041-1.412-0.335-2.695-0.872-3.812c-0.551-1.142-1.348-2.019-2.369-2.606c-1.016-0.584-2.199-0.881-3.518-0.881
			c-1.204,0-2.314,0.283-3.302,0.84c-0.998,0.562-1.767,1.398-2.284,2.482c-0.509,1.064-0.767,2.224-0.767,3.445
			c0,1.118,0.213,2.143,0.632,3.046c0.422,0.916,1.073,1.692,1.932,2.305c0.662,0.481,1.771,0.974,3.388,1.503
			c1.535,0.504,2.539,0.878,2.984,1.114c0.649,0.339,1.119,0.755,1.392,1.238c0.28,0.489,0.421,1.074,0.421,1.741
			c0,0.658-0.148,1.274-0.442,1.828c-0.292,0.552-0.727,0.974-1.327,1.294c-0.604,0.32-1.317,0.482-2.116,0.482
			c-0.9,0-1.721-0.215-2.438-0.642c-0.713-0.423-1.245-0.982-1.583-1.665c-0.345-0.702-0.57-1.624-0.667-2.743l-0.031-0.36
			l-2.802,0.335l0.007,0.316c0.032,1.604,0.359,3.06,0.971,4.331c0.621,1.291,1.492,2.274,2.591,2.923
			c1.095,0.643,2.459,0.969,4.058,0.969c1.278,0,2.446-0.325,3.472-0.967s1.824-1.552,2.37-2.704
			c0.539-1.139,0.812-2.367,0.812-3.651c0-1.299-0.251-2.467-0.745-3.469C340.561,277.227,339.778,276.381,338.731,275.721z"/>
		<path fill="#1D1D1B" d="M483.946,278.238c-0.498-1.012-1.28-1.857-2.327-2.518c-0.716-0.443-1.978-0.939-3.855-1.521
			c-2.188-0.676-2.967-1.214-3.235-1.547c-0.389-0.475-0.585-1.097-0.585-1.845c0-0.882,0.277-1.612,0.847-2.235
			c0.55-0.603,1.468-0.91,2.725-0.91c1.217,0,2.103,0.33,2.71,1.01c0.616,0.691,0.984,1.746,1.096,3.133l0.028,0.355l2.843-0.291
			l-0.01-0.324c-0.041-1.412-0.335-2.695-0.873-3.812c-0.55-1.142-1.347-2.019-2.368-2.606c-1.016-0.584-2.199-0.881-3.519-0.881
			c-1.204,0-2.313,0.283-3.301,0.84c-0.998,0.562-1.766,1.398-2.284,2.482c-0.509,1.064-0.768,2.224-0.768,3.445
			c0,1.118,0.213,2.143,0.633,3.046c0.422,0.916,1.072,1.692,1.932,2.305c0.662,0.481,1.771,0.974,3.387,1.503
			c1.536,0.504,2.54,0.878,2.984,1.114c0.65,0.339,1.12,0.755,1.393,1.238c0.28,0.489,0.421,1.074,0.421,1.741
			c0,0.658-0.149,1.274-0.442,1.828c-0.292,0.552-0.727,0.974-1.327,1.294c-0.604,0.32-1.317,0.482-2.116,0.482
			c-0.901,0-1.722-0.215-2.438-0.642c-0.712-0.423-1.245-0.982-1.582-1.665c-0.346-0.702-0.57-1.624-0.668-2.743l-0.031-0.36
			l-2.801,0.335l0.007,0.316c0.032,1.604,0.358,3.06,0.971,4.331c0.621,1.291,1.492,2.274,2.591,2.923
			c1.095,0.643,2.459,0.969,4.058,0.969c1.277,0,2.446-0.325,3.472-0.967s1.824-1.552,2.37-2.704
			c0.539-1.139,0.812-2.367,0.812-3.651C484.692,280.408,484.44,279.24,483.946,278.238z"/>
		<path fill="#1D1D1B" d="M357.865,265.891c-1.129-1.101-2.429-1.659-3.858-1.659c-2.165,0-3.938,1.169-5.273,3.475
			c-1.29,2.223-1.944,5.329-1.944,9.234c0,2.063,0.278,4.05,0.827,5.9c0.556,1.876,1.39,3.382,2.479,4.477
			c1.132,1.136,2.443,1.712,3.901,1.712c1.348,0,2.608-0.52,3.752-1.547c1.107-0.996,1.973-2.471,2.57-4.383
			c0.588-1.887,0.887-4.049,0.887-6.43c0-2.348-0.283-4.48-0.843-6.339C359.798,268.45,358.956,266.955,357.865,265.891z
			 M357.801,276.654c0,2.932-0.384,5.216-1.139,6.79c-0.725,1.513-1.6,2.248-2.673,2.248c-1.053,0-1.92-0.728-2.65-2.225
			c-0.76-1.562-1.145-3.741-1.145-6.479c0-3.43,0.399-5.899,1.188-7.34c0.761-1.39,1.622-2.065,2.631-2.065
			c0.697,0,1.319,0.34,1.899,1.04c0.604,0.73,1.074,1.789,1.396,3.147C357.636,273.153,357.801,274.797,357.801,276.654z"/>
		<path fill="#1D1D1B" d="M441.629,265.891c-1.129-1.101-2.429-1.659-3.858-1.659c-2.165,0-3.938,1.169-5.273,3.475
			c-1.291,2.223-1.944,5.329-1.944,9.234c0,2.063,0.278,4.05,0.827,5.9c0.556,1.876,1.39,3.382,2.479,4.477
			c1.132,1.136,2.443,1.712,3.901,1.712c1.348,0,2.607-0.52,3.752-1.547c1.107-0.996,1.973-2.471,2.57-4.383
			c0.587-1.887,0.887-4.049,0.887-6.43c0-2.348-0.283-4.48-0.843-6.339C443.562,268.45,442.72,266.955,441.629,265.891z
			 M441.564,276.654c0,2.932-0.384,5.216-1.139,6.79c-0.725,1.513-1.6,2.248-2.673,2.248c-1.053,0-1.92-0.728-2.65-2.225
			c-0.76-1.562-1.146-3.741-1.146-6.479c0-3.43,0.4-5.899,1.189-7.34c0.761-1.39,1.622-2.065,2.631-2.065
			c0.697,0,1.318,0.34,1.899,1.04c0.603,0.73,1.074,1.789,1.396,3.147C441.399,273.153,441.564,274.797,441.564,276.654z"/>
		<polygon fill="#1D1D1B" points="371.59,264.644 368.554,264.644 368.554,288.632 380.287,288.632 380.287,285.185 371.59,285.185 
					"/>
		<path fill="#1D1D1B" d="M394.382,278.433c0,2.841-0.306,4.772-0.91,5.74c-0.58,0.928-1.54,1.378-2.936,1.378
			c-0.806,0-1.465-0.228-2.015-0.696c-0.553-0.47-0.95-1.155-1.181-2.038c-0.242-0.926-0.365-2.401-0.365-4.384v-13.789h-2.753
			v13.806c0,2.486,0.203,4.482,0.604,5.932c0.415,1.489,1.119,2.648,2.099,3.443c0.986,0.8,2.262,1.205,3.789,1.205
			c1.583,0,2.884-0.467,3.869-1.389c0.966-0.906,1.643-2.093,2.012-3.528c0.358-1.397,0.54-3.303,0.54-5.663v-13.806h-2.754V278.433
			z"/>
		<rect x="420.99" y="264.644" fill="#1D1D1B" width="3.382" height="23.988"/>
		<polygon fill="#1D1D1B" points="462.878,281.694 454.596,264.846 454.496,264.644 451.566,264.644 451.566,288.632 
			454.479,288.632 454.479,271.568 462.761,288.43 462.86,288.632 465.79,288.632 465.79,264.644 462.878,264.644 		"/>
	</g>
	<polygon fill="#E4221B" points="108.992,215.224 69.491,215.224 69.491,237.126 96.286,237.126 96.286,240.621 69.375,240.621 
		69.375,251.105 108.868,251.105 108.868,228.389 81.024,228.389 81.024,225.01 108.992,225.01 	"/>
	<polygon fill="#E4221B" points="66.586,215.224 32.562,215.224 18.696,233.166 23.24,237.126 53.881,237.126 53.881,240.621 
		25.337,240.621 33.025,251.105 66.463,251.105 66.463,228.389 38.619,228.389 38.619,225.01 66.586,225.01 	"/>
	<rect x="112.247" y="215.108" fill="#E4221B" width="13.163" height="35.998"/>
</g>
</svg>
