<?xml version="1.0" encoding="utf-8"?>
<!-- Generator: Adobe Illustrator 21.0.2, SVG Export Plug-In . SVG Version: 6.00 Build 0)  -->
<svg version="1.1" id="Calque_1" xmlns="http://www.w3.org/2000/svg" xmlns:xlink="http://www.w3.org/1999/xlink" x="0px" y="0px"
	 viewBox="0 0 500 134" style="enable-background:new 0 0 500 134;" xml:space="preserve">
<style type="text/css">
	.st0{fill:#9A0020;}
</style>
<path class="st0" d="M25.9,19.8h100.9c5.4,0,9.8,3.6,9.8,8.1s-4.4,8.1-9.8,8.1H25.9c-5.4,0-9.8-3.6-9.8-8.1S20.5,19.8,25.9,19.8z"/>
<path class="st0" d="M44.6,45.8H108c5.4,0,9.8,3.6,9.8,8.1c0,4.5-4.4,8.1-9.8,8.1H44.6c-5.4,0-9.8-3.6-9.8-8.1
	C34.8,49.5,39.2,45.8,44.6,45.8z"/>
<path class="st0" d="M63.3,71.9h26c5.4,0,9.8,3.6,9.8,8.1c0,4.5-4.4,8.1-9.8,8.1h-26c-5.4,0-9.8-3.6-9.8-8.1
	C53.5,75.5,57.9,71.9,63.3,71.9z"/>
<circle class="st0" cx="76.3" cy="106.1" r="8.1"/>
<path d="M165,69c-0.6-1.1-0.8-1.7-0.8-3.1c0-3.4,2.8-6.2,6.2-6.2c1.7,0,3.3,0.7,4.4,1.9c0.4,0.5,1.1,0.9,1.5,1.4
	c2.8,2.9,6.2,5.1,10,5c5.3-0.1,9.3-3.2,9.3-7.5c0-3.4-2-6.8-8.3-7.6c-12.4-1.9-20.1-7.6-20.1-16.3c0-9.1,9.2-16.4,21.1-16.4
	c7.2,0,12.3,1.8,16.3,6.1c0.4,0.5,0.8,0.9,1.1,1.4c0.7,1,1.1,2.2,1.1,3.5c0,3.4-2.8,6.2-6.2,6.2c-1.9,0-3.5-1.3-4.5-2.4
	c-2.7-2.4-4.5-3.9-8-4.1c-5-0.3-8,2-8,5.7c0,3.5,3.1,5.9,8.4,6.7c15.8,1.9,20.8,8.2,20.8,17.7c0,9.9-9.6,18.2-23.5,18
	c-8.8-0.1-16.6-3.8-20.5-9.2C165.4,69.7,165,69.1,165,69z"/>
<path d="M270.8,68.9c-5.5,6.3-13.5,10.1-22.5,10.1c-16.2,0-29.4-13.2-29.4-29.4c0-16.2,13.2-29.4,29.4-29.4c9,0,17.1,3.2,22.4,10.2
	c0.9,1.2,1.8,2.8,1.8,4.4c0,3.4-2.8,6.2-6.2,6.2c-2,0-3.8-1-5-2.6c-3.2-4.1-7.7-6-13-6c-9.5,0-17.2,7.7-17.2,17.2
	c0,9.5,7.7,17.2,17.2,17.2c5.3,0,10.1-2.4,13.3-6.3c1.1-1.3,2.8-2.2,4.7-2.2c3.4,0,6.3,2.8,6.2,6.2
	C272.3,66.3,271.7,67.7,270.8,68.9z"/>
<path d="M319.6,55.5h-23.1l0,17.4c0,3.4-2.7,6.1-6.1,6.1c-3.4,0-6.1-2.7-6.1-6.1V26.3c0-3.4,2.7-6.1,6.1-6.1c3.4,0,6.1,2.7,6.1,6.1
	l0,17.4h23.1V26.4c0-3.4,2.7-6.1,6.1-6.1c3.4,0,6.1,2.7,6.1,6.1v46.5c0,3.4-2.7,6.1-6.1,6.1s-6.1-2.7-6.1-6.1L319.6,55.5z"/>
<path d="M359.8,43.6l16.1,0c3.3,0,6,2.7,6,5.9c0,3.3-2.9,5.9-6.2,5.9h-0.1l-15.9,0l0,11.7l20.8,0c3.3,0,6,2.7,6,5.9
	c0,3.3-2.9,5.9-6.2,5.9h-0.1h-26.6c-3.4,0-6.2-2.8-6.2-6.2V49.6V26.3c0-3.4,2.8-6.2,6.2-6.2h26.6h0.2c3.3,0,5.8,2.6,5.8,5.9
	c0,3.3-2.7,5.9-5.9,5.9h-0.1h-20.5L359.8,43.6L359.8,43.6z"/>
<path d="M404.9,79c-3.4,0-6.2-2.8-6.2-6.2V49.6V26.4c0.1-3.3,2.8-6.1,6.1-6.1c3.4,0,6.1,2.8,6.2,6.2l0.1,40.7h20.7
	c3.3,0,6,2.7,6,5.9c0,3.3-2.9,5.9-6.2,5.9h-0.1L404.9,79z"/>
<path d="M451,78.8c-3.4,0-6.2-2.8-6.2-6.2V49.4V26.3c0.1-3.3,2.8-6.1,6.1-6.1c3.4,0,6.1,2.8,6.2,6.2l0.1,40.7h20.7
	c3.3,0,6,2.7,6,5.9c0,3.3-2.9,5.9-6.2,5.9h-0.1L451,78.8z"/>
</svg>
