<?xml version="1.0" encoding="utf-8"?>
<!-- Generator: Adobe Illustrator 21.0.2, SVG Export Plug-In . SVG Version: 6.00 Build 0)  -->
<svg version="1.1" id="Calque_1" xmlns="http://www.w3.org/2000/svg" xmlns:xlink="http://www.w3.org/1999/xlink" x="0px" y="0px"
	 viewBox="0 0 500 184" style="enable-background:new 0 0 500 184;" xml:space="preserve">
<style type="text/css">
	.st0{fill:#00911F;}
</style>
<path class="st0" d="M51.9,26.6c8,0,15.6,1.7,23,5.2v12.1c-8.5-4.4-16-6.6-22.5-6.6c-4,0-7.1,0.7-9.3,2c-2.2,1.3-3.4,3.1-3.4,5.3
	c0,2.7,2.1,5.1,6.3,7.4c1.2,0.7,5.7,2.6,13.5,5.7c6.7,2.7,11.6,5.8,14.5,9.1c3,3.3,4.5,7.3,4.5,12c0,6.1-2.5,11-7.6,14.7
	s-11.6,5.6-19.6,5.6c-5.2,0-9.7-0.5-13.5-1.5s-8-2.7-12.7-5.1V79.1c8.7,6.3,17,9.4,24.7,9.4c3.9,0,7-0.7,9.4-2.2
	c2.4-1.4,3.6-3.4,3.6-5.8c0-3.3-2.1-5.9-6.2-8c-3.4-1.6-7.9-3.6-13.3-5.8c-6.4-2.5-11.2-5.5-14.4-8.8s-4.8-7.3-4.8-11.7
	c0-5.9,2.6-10.7,7.7-14.2C36.8,28.4,43.5,26.6,51.9,26.6z"/>
<path class="st0" d="M109.4,50.1c6,0,11.5,1.1,16.3,3.2v10.6c-4.8-2.6-9.4-3.8-13.7-3.8c-4.6,0-8.5,1.3-11.4,4
	c-3,2.6-4.4,6.2-4.4,10.8c0,4.4,1.5,8,4.5,10.7s6.9,4,11.9,4c3.7,0,8.4-1.1,14.2-3.3v10.1c-5.4,2-10.9,3-16.6,3
	c-8.4,0-15.2-2.2-20.4-6.6S82,82.6,82,75.3c0-7.5,2.6-13.6,7.7-18.2C94.7,52.4,101.3,50.1,109.4,50.1z"/>
<path class="st0" d="M268.5,50.1c7.5,0,13.4,2.2,17.8,6.7c4.4,4.5,6.5,10.6,6.5,18.5v1.9h-36.1c0.5,4.2,2.2,7.5,5.1,9.7
	c2.9,2.3,6.8,3.4,11.8,3.4c3.2,0,6.3-0.5,9.2-1.5c3-1,6-2.6,9.2-4.7v9.3c-6,3.9-13.2,5.9-21.7,5.9c-8,0-14.6-2.2-19.7-6.7
	S243,82.1,243,74.7c0-7.2,2.4-13.1,7.1-17.6C254.8,52.3,261,50.1,268.5,50.1z M280.3,69.5c-0.4-3.4-1.5-6.1-3.4-8.1
	c-1.9-1.9-4.5-2.9-7.8-2.9c-3.4,0-6.1,0.9-8.2,2.8s-3.4,4.6-3.9,8.2H280.3z"/>
<path class="st0" d="M314,28.7c-1.2-1.5-3-2.1-5.3-2c-2.3,0.1-4.5,1-6.4,2.7c-1.9,1.6-3.1,3.5-3.6,5.8c-0.5,2.2-0.2,4.1,1.1,5.6
	c1.2,1.4,3,2,5.3,1.9c2.4-0.1,4.5-1,6.4-2.6c1.9-1.7,3.2-3.6,3.6-5.9C315.6,32,315.2,30.1,314,28.7z"/>
<rect x="299.9" y="51" class="st0" width="14.2" height="47.3"/>
<path class="st0" d="M358.3,52V27.5h13.5v70.7H348c-8.2,0-14.8-2.2-19.7-6.5c-4.9-4.4-7.4-10.3-7.4-17.8c0-4.5,1.1-8.5,3.4-12.1
	c2.3-3.6,5.4-6.5,9.4-8.6s8.3-3.1,13-3.1C350.4,50.1,354.2,50.7,358.3,52z M351.2,88.7h7.1V61.3c-2.8-1.3-5.7-2-8.7-2
	c-4.5,0-8.1,1.3-10.8,3.9c-2.7,2.6-4,6-4,10.2C334.8,83.7,340.3,88.7,351.2,88.7z"/>
<path class="st0" d="M404.6,50.1c7.6,0,13.6,2.2,18,6.7s6.6,10.6,6.6,18.5v1.9h-36.5c0.6,4.2,2.3,7.5,5.2,9.7
	c2.9,2.3,6.9,3.4,11.9,3.4c3.2,0,6.4-0.5,9.4-1.5s6.1-2.6,9.3-4.7v9.3c-6,3.9-13.4,5.9-22,5.9c-8.1,0-14.8-2.2-20-6.7
	c-5.2-4.5-7.7-10.5-7.7-17.9c0-7.2,2.4-13.1,7.2-17.6C390.7,52.3,396.9,50.1,404.6,50.1z M416.5,69.5c-0.4-3.4-1.5-6.1-3.4-8.1
	c-1.9-1.9-4.6-2.9-7.9-2.9c-3.4,0-6.2,0.9-8.3,2.8s-3.4,4.6-4,8.2H416.5z"/>
<path class="st0" d="M467.1,50.1c1.9,0,3.7,0.4,5.5,1.1c1.8,0.7,3.9,2,6.3,3.7l-5,10.9c-4-2.7-7.3-4-9.8-4c-2.2,0-4.3,0.7-6.4,2.2
	c-2.1,1.4-3.8,3.3-5,5.7c-1.3,2.4-1.9,4.7-1.9,7.1v21.6h-14V51.1h14v12h0.2c2.5-4.6,5.1-7.9,7.7-9.9
	C461.3,51.1,464.1,50.1,467.1,50.1z"/>
<path class="st0" d="M146.6,67c2.1-2.5,4.1-4.3,6-5.4c1.8-1.1,3.8-1.6,5.9-1.6c2.8,0,5.1,0.9,6.7,2.8c1.6,1.9,2.5,4.4,2.5,7.6v16.4
	c1.5-0.5,2.9-1,4.5-1.4c3.2-0.9,6.2-1.4,9.1-1.6V68.1c0-5.3-1.7-9.6-5.1-13c-3.4-3.3-7.8-5-13.3-5c-6.2,0-11.5,2.5-15.9,7.5h-0.3
	V27.5H133v70.7h13.7L146.6,67L146.6,67z"/>
<path class="st0" d="M222.6,107.2h23.3v5.2h-17.4v12.5h16.8v5.3h-16.8v12.7h17.9v5.2h-23.8L222.6,107.2L222.6,107.2z"/>
<path class="st0" d="M260,107.2h5.3v41H260V107.2z"/>
<path class="st0" d="M304,135.1h-19c0.1,2.6,1,4.6,2.6,6.2c1.6,1.5,3.7,2.3,6.2,2.3c3.5,0,6.8-1.1,9.7-3.3v5.2
	c-1.6,1.1-3.3,1.9-4.9,2.4s-3.5,0.7-5.7,0.7c-3,0-5.4-0.6-7.2-1.9c-1.8-1.2-3.3-2.9-4.4-5c-1.1-2.1-1.7-4.5-1.7-7.2
	c0-4.1,1.2-7.5,3.5-10c2.3-2.6,5.4-3.9,9.1-3.9c3.6,0,6.4,1.3,8.6,3.8c2.1,2.5,3.2,5.9,3.2,10.1V135.1L304,135.1z M285.2,131.9h13.6
	c-0.1-2.1-0.8-3.8-1.9-4.9c-1.1-1.2-2.7-1.7-4.6-1.7c-1.9,0-3.5,0.6-4.7,1.7C286.3,128.2,285.5,129.8,285.2,131.9z"/>
<path class="st0" d="M339.9,141.9v5.3c-2.7,1-5.3,1.5-7.9,1.5c-4.2,0-7.6-1.3-10.1-3.8s-3.8-5.9-3.8-10.1s1.2-7.7,3.7-10.3
	c2.4-2.6,5.7-3.9,9.7-3.9c1.4,0,2.6,0.1,3.7,0.4c1.1,0.3,2.5,0.8,4.1,1.5v5.7c-2.7-1.7-5.2-2.6-7.5-2.6c-2.4,0-4.4,0.8-5.9,2.5
	s-2.3,3.9-2.3,6.5c0,2.8,0.8,5,2.5,6.6c1.7,1.6,3.9,2.4,6.8,2.4C334.9,143.7,337.3,143.1,339.9,141.9z"/>
<path class="st0" d="M353.9,125.5l10-9.9v5.6h8.5v4.8H364v13.2c0,3.1,1.3,4.6,3.8,4.6c1.9,0,3.9-0.6,6.1-1.9v5
	c-2.1,1.2-4.3,1.7-6.7,1.7c-2.4,0-4.5-0.7-6.1-2.1c-0.5-0.4-0.9-0.9-1.3-1.5c-0.3-0.5-0.6-1.2-0.8-2.1s-0.3-2.5-0.3-5v-12h-4.8
	V125.5L353.9,125.5z"/>
<path class="st0" d="M393.7,121.2v6.2l0.3-0.5c2.6-4.2,5.2-6.3,7.8-6.3c2,0,4.1,1,6.3,3.1l-2.8,4.7c-1.9-1.8-3.6-2.6-5.2-2.6
	c-1.7,0-3.2,0.8-4.5,2.5c-1.3,1.6-1.9,3.6-1.9,5.8v14.1h-5.4v-27L393.7,121.2L393.7,121.2z"/>
<rect x="422.8" y="121.2" class="st0" width="5.3" height="27"/>
<path class="st0" d="M428,110.3c-0.5-0.5-1.2-0.7-2.1-0.5c-0.8,0.2-1.6,0.6-2.3,1.4c-0.7,0.7-1.1,1.5-1.2,2.6
	c-0.1,0.9,0.1,1.5,0.6,2c0.5,0.4,1.2,0.6,2.1,0.4c0.9-0.2,1.7-0.6,2.3-1.3c0.7-0.8,1.1-1.6,1.2-2.5
	C428.7,111.5,428.5,110.8,428,110.3z"/>
<path class="st0" d="M463.7,141.9v5.3c-2.7,1-5.3,1.5-7.9,1.5c-4.2,0-7.6-1.3-10.1-3.8s-3.8-5.9-3.8-10.1s1.2-7.7,3.7-10.3
	c2.4-2.6,5.7-3.9,9.7-3.9c1.4,0,2.6,0.1,3.7,0.4c1.1,0.3,2.5,0.8,4.1,1.5v5.7c-2.7-1.7-5.2-2.6-7.5-2.6c-2.4,0-4.4,0.8-5.9,2.5
	s-2.3,3.9-2.3,6.5c0,2.8,0.8,5,2.5,6.6c1.7,1.6,3.9,2.4,6.8,2.4C458.7,143.7,461.1,143.1,463.7,141.9z"/>
<path class="st0" d="M198.1,95.6C192,91,183.9,90,174,92.7c-10,2.7-18.7,8.3-26.3,16.7c-1.1,1.2-2.1,2.4-3,3.6h8.7l-2.3,6.2h-10.5
	c-1.1,2-2,3.9-2.8,6h12.4l-2.3,6.2H136c-0.3,1.4-0.5,2.8-0.7,4.2c-1,9.3,1.7,16.2,8.1,20.7c6,4.2,14.1,4.9,24.1,2.1
	c10-2.7,18.6-8.1,25.8-16.2c1.7-1.8,3.2-3.7,4.5-5.6h-12.4l2.3-6.2h13.9c1-2,1.8-3.9,2.5-6h-15.4l2.3-6.2h14.6
	c0.1-0.8,0.2-1.5,0.3-2.3C206.5,106.9,204,100,198.1,95.6z M193.6,113.4h-9.4c-0.7,1.5-1.9,4.5-3.2,9.7c-2,8.1-2.3,23-20.1,23
	c-0.1,0-16-0.1-16-0.1l2.4-9.6h8.9c1.1-0.1,3.3-0.6,3.8-3.6c0.8-4.1,1.5-28.1,21.8-28.1H196L193.6,113.4z"/>
<path class="st0" d="M230.9,55c-3.3-3.3-7.7-5-13.1-5c-3.1,0-5.9,0.6-8.5,1.7c-2.6,1.2-5.2,3.1-7.7,5.8v-6.6h-13.5v32.8
	c5,0.6,9.5,2.2,13.5,4.9V66.7c2.2-2.6,4.2-4.5,6-5.6s3.8-1.7,5.9-1.7c2.7,0,4.9,0.9,6.5,2.7c1.6,1.8,2.4,4.2,2.4,7.3v28.8h13.4V68.1
	C235.9,62.7,234.2,58.4,230.9,55z"/>
</svg>
