<?xml version="1.0" encoding="utf-8"?>
<!-- Generator: Adobe Illustrator 19.1.0, SVG Export Plug-In . SVG Version: 6.00 Build 0)  -->
<svg version="1.1" id="Calque_1" xmlns="http://www.w3.org/2000/svg" xmlns:xlink="http://www.w3.org/1999/xlink" x="0px" y="0px"
	 viewBox="-345 170.9 500 500" style="enable-background:new -345 170.9 500 500;" xml:space="preserve">
<style type="text/css">
	.st0{fill:#00911F;}
</style>
<path class="st0" d="M-293.1,355.5c8,0,15.6,1.7,23,5.2v12.1c-8.5-4.4-16-6.6-22.5-6.6c-4,0-7.1,0.7-9.3,2c-2.2,1.3-3.4,3.1-3.4,5.3
	c0,2.7,2.1,5.1,6.3,7.4c1.2,0.7,5.7,2.6,13.5,5.7c6.7,2.7,11.6,5.8,14.5,9.1c3,3.3,4.5,7.3,4.5,12c0,6.1-2.5,11-7.6,14.7
	c-5.1,3.7-11.6,5.6-19.6,5.6c-5.2,0-9.7-0.5-13.5-1.5c-3.8-1-8-2.7-12.7-5.1v-13.4c8.7,6.3,17,9.4,24.7,9.4c3.9,0,7-0.7,9.4-2.2
	c2.4-1.4,3.6-3.4,3.6-5.8c0-3.3-2.1-5.9-6.2-8c-3.4-1.6-7.9-3.6-13.3-5.8c-6.4-2.5-11.2-5.5-14.4-8.8s-4.8-7.3-4.8-11.7
	c0-5.9,2.6-10.7,7.7-14.2C-308.2,357.3-301.5,355.5-293.1,355.5z"/>
<path class="st0" d="M-235.6,379c6,0,11.5,1.1,16.3,3.2v10.6c-4.8-2.6-9.4-3.8-13.7-3.8c-4.6,0-8.5,1.3-11.4,4
	c-3,2.6-4.4,6.2-4.4,10.8c0,4.4,1.5,8,4.5,10.7c3,2.7,6.9,4,11.9,4c3.7,0,8.4-1.1,14.2-3.3v10.1c-5.4,2-10.9,3-16.6,3
	c-8.4,0-15.2-2.2-20.4-6.6c-5.2-4.4-7.8-10.2-7.8-17.5c0-7.5,2.6-13.6,7.7-18.2C-250.3,381.3-243.7,379-235.6,379z"/>
<path class="st0" d="M-76.5,379c7.5,0,13.4,2.2,17.8,6.7c4.4,4.5,6.5,10.6,6.5,18.5v1.9h-36.1c0.5,4.2,2.2,7.5,5.1,9.7
	c2.9,2.3,6.8,3.4,11.8,3.4c3.2,0,6.3-0.5,9.2-1.5c3-1,6-2.6,9.2-4.7v9.3c-6,3.9-13.2,5.9-21.7,5.9c-8,0-14.6-2.2-19.7-6.7
	c-5.1-4.5-7.6-10.5-7.6-17.9c0-7.2,2.4-13.1,7.1-17.6C-90.2,381.2-84,379-76.5,379z M-64.7,398.4c-0.4-3.4-1.5-6.1-3.4-8.1
	c-1.9-1.9-4.5-2.9-7.8-2.9c-3.4,0-6.1,0.9-8.2,2.8c-2.1,1.9-3.4,4.6-3.9,8.2H-64.7z"/>
<path class="st0" d="M-42.7,358.3c1.9-1.7,4.1-2.6,6.4-2.7c2.3-0.1,4.1,0.5,5.3,2c1.2,1.4,1.6,3.3,1.1,5.5c-0.4,2.3-1.7,4.2-3.6,5.9
	c-1.9,1.6-4,2.5-6.4,2.6c-2.3,0.1-4.1-0.5-5.3-1.9c-1.3-1.5-1.6-3.4-1.1-5.6C-45.8,361.8-44.6,359.9-42.7,358.3z M-30.9,379.9v47.3
	h-14.2v-47.3L-30.9,379.9L-30.9,379.9z"/>
<path class="st0" d="M13.3,380.9v-24.5h13.5v70.7H3c-8.2,0-14.8-2.2-19.7-6.5c-4.9-4.4-7.4-10.3-7.4-17.8c0-4.5,1.1-8.5,3.4-12.1
	s5.4-6.5,9.4-8.6c4-2.1,8.3-3.1,13-3.1C5.4,379,9.2,379.6,13.3,380.9z M6.2,417.6h7.1v-27.4c-2.8-1.3-5.7-2-8.7-2
	c-4.5,0-8.1,1.3-10.8,3.9c-2.7,2.6-4,6-4,10.2C-10.2,412.6-4.7,417.6,6.2,417.6z"/>
<path class="st0" d="M59.6,379c7.6,0,13.6,2.2,18,6.7c4.4,4.5,6.6,10.6,6.6,18.5v1.9H47.7c0.6,4.2,2.3,7.5,5.2,9.7
	c2.9,2.3,6.9,3.4,11.9,3.4c3.2,0,6.4-0.5,9.4-1.5c3-1,6.1-2.6,9.3-4.7v9.3c-6,3.9-13.4,5.9-22,5.9c-8.1,0-14.8-2.2-20-6.7
	c-5.2-4.5-7.7-10.5-7.7-17.9c0-7.2,2.4-13.1,7.2-17.6C45.7,381.2,51.9,379,59.6,379z M71.5,398.4c-0.4-3.4-1.5-6.1-3.4-8.1
	c-1.9-1.9-4.6-2.9-7.9-2.9c-3.4,0-6.2,0.9-8.3,2.8c-2.1,1.9-3.4,4.6-4,8.2H71.5z"/>
<path class="st0" d="M122.1,379c1.9,0,3.7,0.4,5.5,1.1c1.8,0.7,3.9,2,6.3,3.7l-5,10.9c-4-2.7-7.3-4-9.8-4c-2.2,0-4.3,0.7-6.4,2.2
	c-2.1,1.4-3.8,3.3-5,5.7c-1.3,2.4-1.9,4.7-1.9,7.1v21.6h-14v-47.3h14v12h0.2c2.5-4.6,5.1-7.9,7.7-9.9C116.3,380,119.1,379,122.1,379
	z"/>
<path class="st0" d="M-198.4,395.9c2.1-2.5,4.1-4.3,6-5.4c1.8-1.1,3.8-1.6,5.9-1.6c2.8,0,5.1,0.9,6.7,2.8c1.6,1.9,2.5,4.4,2.5,7.6
	v16.4c1.5-0.5,2.9-1,4.5-1.4c3.2-0.9,6.2-1.4,9.1-1.6v-15.7c0-5.3-1.7-9.6-5.1-13c-3.4-3.3-7.8-5-13.3-5c-6.2,0-11.5,2.5-15.9,7.5
	h-0.3v-30.1h-13.7v70.7h13.7L-198.4,395.9L-198.4,395.9z"/>
<path class="st0" d="M-122.4,436.1h23.3v5.2h-17.4v12.5h16.8v5.3h-16.8v12.7h17.9v5.2h-23.8L-122.4,436.1L-122.4,436.1z"/>
<path class="st0" d="M-85,436.1h5.3v41H-85V436.1z"/>
<path class="st0" d="M-41,464h-19c0.1,2.6,1,4.6,2.6,6.2c1.6,1.5,3.7,2.3,6.2,2.3c3.5,0,6.8-1.1,9.7-3.3v5.2
	c-1.6,1.1-3.3,1.9-4.9,2.4c-1.6,0.5-3.5,0.7-5.7,0.7c-3,0-5.4-0.6-7.2-1.9c-1.8-1.2-3.3-2.9-4.4-5c-1.1-2.1-1.7-4.5-1.7-7.2
	c0-4.1,1.2-7.5,3.5-10c2.3-2.6,5.4-3.9,9.1-3.9c3.6,0,6.4,1.3,8.6,3.8c2.1,2.5,3.2,5.9,3.2,10.1L-41,464L-41,464z M-59.8,460.8h13.6
	c-0.1-2.1-0.8-3.8-1.9-4.9c-1.1-1.2-2.7-1.7-4.6-1.7c-1.9,0-3.5,0.6-4.7,1.7C-58.7,457.1-59.5,458.7-59.8,460.8z"/>
<path class="st0" d="M-5.1,470.8v5.3c-2.7,1-5.3,1.5-7.9,1.5c-4.2,0-7.6-1.3-10.1-3.8s-3.8-5.9-3.8-10.1c0-4.2,1.2-7.7,3.7-10.3
	c2.4-2.6,5.7-3.9,9.7-3.9c1.4,0,2.6,0.1,3.7,0.4c1.1,0.3,2.5,0.8,4.1,1.5v5.7c-2.7-1.7-5.2-2.6-7.5-2.6c-2.4,0-4.4,0.8-5.9,2.5
	c-1.5,1.7-2.3,3.9-2.3,6.5c0,2.8,0.8,5,2.5,6.6c1.7,1.6,3.9,2.4,6.8,2.4C-10.1,472.6-7.7,472-5.1,470.8z"/>
<path class="st0" d="M8.9,454.4l10-9.9v5.6h8.5v4.8H19v13.2c0,3.1,1.3,4.6,3.8,4.6c1.9,0,3.9-0.6,6.1-1.9v5
	c-2.1,1.2-4.3,1.7-6.7,1.7c-2.4,0-4.5-0.7-6.1-2.1c-0.5-0.4-0.9-0.9-1.3-1.5c-0.3-0.5-0.6-1.2-0.8-2.1c-0.2-0.9-0.3-2.5-0.3-5v-12
	H8.9L8.9,454.4L8.9,454.4z"/>
<path class="st0" d="M48.7,450.1v6.2l0.3-0.5c2.6-4.2,5.2-6.3,7.8-6.3c2,0,4.1,1,6.3,3.1l-2.8,4.7c-1.9-1.8-3.6-2.6-5.2-2.6
	c-1.7,0-3.2,0.8-4.5,2.5c-1.3,1.6-1.9,3.6-1.9,5.8v14.1h-5.4v-27L48.7,450.1L48.7,450.1z"/>
<path class="st0" d="M78.6,440.1c0.7-0.8,1.5-1.2,2.3-1.4c0.9-0.2,1.6,0,2.1,0.5c0.5,0.5,0.7,1.2,0.6,2.1s-0.5,1.7-1.2,2.5
	c-0.6,0.7-1.4,1.1-2.3,1.3c-0.9,0.2-1.6,0-2.1-0.4c-0.5-0.5-0.7-1.1-0.6-2C77.5,441.6,77.9,440.8,78.6,440.1z M77.8,450.1h5.3v27
	h-5.3V450.1z"/>
<path class="st0" d="M118.7,470.8v5.3c-2.7,1-5.3,1.5-7.9,1.5c-4.2,0-7.6-1.3-10.1-3.8s-3.8-5.9-3.8-10.1c0-4.2,1.2-7.7,3.7-10.3
	c2.4-2.6,5.7-3.9,9.7-3.9c1.4,0,2.6,0.1,3.7,0.4s2.5,0.8,4.1,1.5v5.7c-2.7-1.7-5.2-2.6-7.5-2.6c-2.4,0-4.4,0.8-5.9,2.5
	c-1.5,1.7-2.3,3.9-2.3,6.5c0,2.8,0.8,5,2.5,6.6c1.7,1.6,3.9,2.4,6.8,2.4C113.7,472.6,116.1,472,118.7,470.8z"/>
<path class="st0" d="M-146.9,424.5c-6.1-4.6-14.2-5.6-24.1-2.9c-10,2.7-18.7,8.3-26.3,16.7c-1.1,1.2-2.1,2.4-3,3.6h8.7l-2.3,6.2
	h-10.5c-1.1,2-2,3.9-2.8,6h12.4l-2.3,6.2h-11.9c-0.3,1.4-0.5,2.8-0.7,4.2c-1,9.3,1.7,16.2,8.1,20.7c6,4.2,14.1,4.9,24.1,2.1
	c10-2.7,18.6-8.1,25.8-16.2c1.7-1.8,3.2-3.7,4.5-5.6h-12.4l2.3-6.2h13.9c1-2,1.8-3.9,2.5-6h-15.4l2.3-6.2h14.6
	c0.1-0.8,0.2-1.5,0.3-2.3C-138.5,435.8-141,428.9-146.9,424.5z M-151.4,442.3h-9.4c-0.7,1.5-1.9,4.5-3.2,9.7c-2,8.1-2.3,23-20.1,23
	c-0.1,0-16-0.1-16-0.1l2.4-9.6h8.9c1.1-0.1,3.3-0.6,3.8-3.6c0.8-4.1,1.5-28.1,21.8-28.1h14.2L-151.4,442.3z"/>
<path class="st0" d="M-114.1,383.9c-3.3-3.3-7.7-5-13.1-5c-3.1,0-5.9,0.6-8.5,1.7c-2.6,1.2-5.2,3.1-7.7,5.8v-6.6h-13.5v32.8
	c5,0.6,9.5,2.2,13.5,4.9v-21.9c2.2-2.6,4.2-4.5,6-5.6c1.8-1.1,3.8-1.7,5.9-1.7c2.7,0,4.9,0.9,6.5,2.7c1.6,1.8,2.4,4.2,2.4,7.3v28.8
	h13.4v-30.1C-109.1,391.6-110.8,387.3-114.1,383.9z"/>
</svg>
