<?xml version="1.0" encoding="utf-8"?>
<!-- Generator: Adobe Illustrator 21.0.2, SVG Export Plug-In . SVG Version: 6.00 Build 0)  -->
<svg version="1.1" id="Calque_1" xmlns="http://www.w3.org/2000/svg" xmlns:xlink="http://www.w3.org/1999/xlink" x="0px" y="0px"
	 viewBox="0 0 500 198" style="enable-background:new 0 0 500 198;" xml:space="preserve">
<style type="text/css">
	.st0{fill:#0075AF;}
</style>
<path class="st0" d="M70.5,98.9c-3.8-5.6-8.7-11.5-14.6-17.7c-0.8-0.8-1.4-1.4-1.8-1.8c-0.3-0.4-0.9-0.9-1.6-1.7
	c-14.9-16.2-18-24.5-18-28.6c0-3.1,0.8-5.5,2.6-7.5c1.7-1.9,3.9-2.9,6.7-2.9c4.2,0,7.8,2.6,11.1,8c3.5,5.7,6.4,14.4,8.6,25.9
	c0.2,0.9,0.9,1.6,1.8,1.6h6.4c1,0,1.8-0.9,1.8-2.1V30.7c0-1.1-0.8-2.1-1.8-2.1h-5.2c-0.7,0-1.3,0.4-1.6,1.1
	c-0.6,1.3-1.4,2.3-2.1,2.9s-1.5,0.8-2.3,0.8c-0.2,0-1.3-0.1-5.9-2.5C50.9,29,47.5,28,44.5,28c-7.1,0-13.3,3.3-18.2,9.7
	c-4.9,6.4-7.4,14.3-7.4,23.6c0,4.2,0.6,8.4,1.8,12.4c1.2,4,2.9,8.1,5.2,12.1c2.2,3.6,6.6,9.1,13.7,16.9c2.3,2.5,4,4.4,5.2,5.7
	c8.2,9.3,13.4,16.1,15.5,20.1c2,3.9,3.1,7.7,3.1,11.4c0,3.8-0.9,6.7-2.9,9c-1.9,2.2-4.3,3.3-7.5,3.3c-5,0-9.4-2.9-13.4-8.8
	c-4.2-6.1-7.6-15-10.2-26.5c-0.2-0.9-0.9-1.6-1.8-1.6h-6.7c-1,0-1.8,0.9-1.8,2.1V161c0,1.1,0.8,2.1,1.8,2.1h5.4
	c0.6,0,1.1-0.3,1.5-0.8c2.1-3,3.2-4.2,3.8-4.6c0.7-0.5,1.4-0.8,2.2-0.8c0.2,0,1.4,0.2,6.9,2.9c4.4,2.1,8.6,3.2,12.4,3.2
	c7.6,0,13.9-3.3,18.9-9.9c4.9-6.5,7.4-14.7,7.4-24.6c0-5.4-0.7-10.6-2.2-15.6C75.6,108.2,73.4,103.4,70.5,98.9z"/>
<path class="st0" d="M153.1,117.4h-5.7c-1,0-1.8,0.9-1.8,2.1v1.6c0,9.8-1.4,17.5-4.2,22.8c-2.6,5-6.2,7.5-10.8,7.5
	c-4.8,0-8.2-3.6-10.4-10.9c-2.3-8-3.5-22.4-3.5-42.8c0-22.7,1-38.8,2.9-47.7c1.7-8,4.5-12.1,8.1-12.1c2.8,0,5.6,2.7,8.2,8
	c2.9,5.9,5.7,14.7,8.2,26.4c0.2,0.9,0.9,1.6,1.8,1.6h5.9c0.5,0,1-0.2,1.3-0.6s0.5-0.9,0.5-1.5L153.3,30c0-1.1-0.8-2-1.8-2h-5.1
	c-0.5,0-0.9,0.2-1.2,0.5l-4.4,4.4h-1.4c-1.9-1.6-3.9-2.9-6-3.7c-2.2-0.9-4.5-1.4-6.9-1.4c-10.7,0-19.4,6.6-26,19.5
	c-6.4,12.6-9.6,29.5-9.6,50.1c0,20.4,3.1,36.6,9.2,48c6.3,11.8,15.2,17.8,26.5,17.8c9.4,0,16.5-3.6,21.2-10.6c4.6-6.9,7-17.2,7-30.6
	v-2.7C154.9,118.3,154.1,117.4,153.1,117.4z"/>
<path class="st0" d="M241.5,135.6l-4.3-0.1l0,0c-1,0-1.8,0.9-1.8,2c-0.1,3.9-0.6,7-1.4,9.1c-0.3,0.8-1,2.2-1.6,2.3
	c0,0-1.3-1-1.5-9.2c-0.1-6.1-0.4-11.2-0.9-15.2c-1.4-11.7-3.9-19.9-7.5-25.1c-2.5-3.6-6.1-6.4-10.5-8.5c6.2-2,11.2-5,14.8-8.8
	c5-5.2,7.5-12,7.5-20.3c0-10.2-3.4-18.2-10-23.7c-6.4-5.4-15.7-8.1-27.4-8.1h-30.8c-1,0-1.8,0.9-1.8,2.1v5.8c0,1,0.7,1.9,1.6,2
	c2,0.3,3.3,0.9,4,1.8c0.5,0.6,1.1,2.1,1.1,5.3v97.5c0,2.4-0.4,4.1-1.1,5c-0.5,0.6-1.8,1.5-4.8,1.8c-0.9,0.1-1.6,1-1.6,2v5.9
	c0,1.1,0.8,2.1,1.8,2.1h34.9c1,0,1.8-0.9,1.8-2.1v-5.9c0-1.1-0.7-1.9-1.7-2c-2.9-0.3-4.1-1.1-4.6-1.7s-1.1-2-1.1-5.1V94.4
	c3.7,0.3,6.3,1.7,7.8,4.2c1.3,2.2,3,8.2,3.6,24.6c0,0.5,0,1.4,0.1,2.4c0.5,14,1.8,22.9,4,27.1c1.7,3.3,3.9,5.9,6.6,7.7
	c2.7,1.8,5.7,2.8,8.9,2.8c5.5,0,10-2.4,13.1-7c3-4.5,4.6-10.7,4.8-18.5c0-0.5-0.2-1.1-0.5-1.5C242.5,135.8,242,135.6,241.5,135.6z
	 M209.8,61.5c0,8.7-1.2,14.8-3.6,18.1c-2.2,3.2-6.2,4.9-11.8,4.9V45.7c0-3,0.6-4.1,0.9-4.5c0.6-0.7,1.7-1,3.4-1
	c3.8,0,6.5,1.5,8.2,4.6C208.9,48,209.8,53.7,209.8,61.5z"/>
<path class="st0" d="M323.2,30h-24.4c-1,0-1.8,0.9-1.8,2.1v5.8c0,1,0.7,1.9,1.6,2c2.8,0.5,4.8,1.5,5.7,3.1c0.7,1.2,1.6,3.9,1.6,10.1
	v73.7c0,8.9-1.2,15.3-3.6,19.2c-2.2,3.7-5.8,5.5-10.8,5.5c-4.9,0-8.1-1.5-10-4.6c-2-3.3-3-10-3-19.7V47.1c0-2.6,0.4-4.5,1.2-5.4
	c0.8-0.9,2.2-1.5,4.2-1.6c1-0.1,1.7-1,1.7-2.1v-5.9c0-1.1-0.8-2.1-1.8-2.1h-34.4c-1,0-1.8,0.9-1.8,2.1v5.8c0,1.1,0.7,2,1.7,2.1
	c1.2,0.1,2.2,0.3,2.9,0.5c0.6,0.2,1.1,0.5,1.4,0.9c0.5,0.5,0.8,1.1,1.1,1.8c0.2,0.5,0.4,1.6,0.4,3.8v80.9c0,12.4,2.4,21.5,7.2,27.1
	s12.6,8.5,23.1,8.5c10.8,0,18.7-3,23.6-9c4.8-5.9,7.3-15.6,7.3-28.8V53.1c0-6.3,0.9-9,1.6-10.1c1-1.6,2.9-2.6,5.7-3.1
	c0.9-0.2,1.6-1,1.6-2v-5.8C325,30.9,324.2,30,323.2,30z"/>
<path class="st0" d="M383.4,92.5c5.9-2.2,10.6-5.4,14.3-9.5c5.2-5.8,7.8-13.2,7.8-21.8c0-9.7-3.4-17.5-10-23
	c-6.5-5.4-15.6-8.1-27-8.1h-31.8c-1,0-1.8,0.9-1.8,2.1V38c0,1,0.7,1.9,1.6,2c2,0.3,3.3,0.9,4,1.8c0.5,0.6,1.1,2.1,1.1,5.3v97.5
	c0,3.1-0.6,4.5-1,5.1c-0.7,0.9-2.1,1.4-4,1.7c-0.9,0.1-1.6,1-1.6,2v5.9c0,1.1,0.8,2.1,1.8,2.1h33c12.4,0,22.1-3.1,28.8-9.2
	c6.8-6.2,10.2-15.3,10.2-27c0-9.1-2.9-16.8-8.6-22.7C395.9,98,390.3,94.7,383.4,92.5z M376.8,82.8c-2.3,3.5-6.1,5.3-11.6,5.3H365
	V44.3c0-3.1,0.5-3.7,0.5-3.8c0,0,0.5-0.6,2.7-0.6c4.6,0,7.6,1.5,9.3,4.5c1.8,3.3,2.8,9.8,2.8,19.5C380.4,72.7,379.2,79.1,376.8,82.8
	z M382.8,127.4c0,8.4-1.2,14.6-3.4,18.4c-2.2,3.6-5.4,5.4-10,5.4c-1.7,0-2.8-0.4-3.3-1.2c-0.4-0.6-1-2.1-1-6.1V97.7
	c6.1,0.4,10.4,2.6,13.1,6.6C381.3,108.9,382.8,116.6,382.8,127.4z"/>
<path class="st0" d="M481.9,113.1c-1.4-5-3.6-9.7-6.6-14.2c-3.8-5.6-8.7-11.5-14.6-17.7c-0.8-0.8-1.4-1.4-1.8-1.8
	c-0.3-0.4-0.9-0.9-1.6-1.7c-14.9-16.2-18-24.5-18-28.6c0-3.1,0.8-5.5,2.6-7.5c1.7-1.9,3.9-2.9,6.7-2.9c4.2,0,7.8,2.6,11.1,8
	c3.5,5.7,6.4,14.4,8.6,25.9c0.2,0.9,0.9,1.6,1.8,1.6h6.4c1,0,1.8-0.9,1.8-2.1V30.7c0-1.1-0.8-2.1-1.8-2.1h-5.2
	c-0.7,0-1.3,0.4-1.6,1.1c-0.6,1.3-1.4,2.3-2.1,2.9c-0.7,0.6-1.5,0.8-2.3,0.8c-0.2,0-1.3-0.1-5.9-2.5c-3.7-1.9-7.1-2.9-10.1-2.9
	c-7.1,0-13.3,3.3-18.2,9.7c-4.9,6.4-7.4,14.3-7.4,23.6c0,4.2,0.6,8.4,1.8,12.4c1.2,4,2.9,8.1,5.2,12.1c2.2,3.6,6.6,9.1,13.7,16.9
	c2.3,2.5,4,4.4,5.2,5.7c8.2,9.3,13.4,16.1,15.5,20.1c2,3.9,3.1,7.7,3.1,11.4c0,3.8-0.9,6.7-2.9,9c-1.9,2.2-4.3,3.3-7.5,3.3
	c-5,0-9.4-2.9-13.4-8.8c-4.2-6.1-7.6-15-10.2-26.5c-0.2-0.9-0.9-1.6-1.8-1.6h-6.7c-1,0-1.8,0.9-1.8,2.1V161c0,1.1,0.8,2.1,1.8,2.1
	h5.4c0.6,0,1.1-0.3,1.5-0.8c2.1-3,3.2-4.2,3.8-4.6c0.7-0.5,1.4-0.8,2.2-0.8c0.2,0,1.4,0.2,6.9,2.9c4.4,2.1,8.6,3.2,12.4,3.2
	c7.6,0,13.9-3.3,18.9-9.9c4.9-6.5,7.4-14.7,7.4-24.6C484.1,123.3,483.4,118.1,481.9,113.1z"/>
</svg>
