<?xml version="1.0" encoding="utf-8"?>
<!-- Generator: Adobe Illustrator 15.0.0, SVG Export Plug-In . SVG Version: 6.00 Build 0)  -->
<!DOCTYPE svg PUBLIC "-//W3C//DTD SVG 1.1//EN" "http://www.w3.org/Graphics/SVG/1.1/DTD/svg11.dtd">
<svg version="1.1" id="Calque_1" xmlns="http://www.w3.org/2000/svg" xmlns:xlink="http://www.w3.org/1999/xlink" x="0px" y="0px"
	 width="500px" height="500px" viewBox="0 0 500 500" enable-background="new 0 0 500 500" xml:space="preserve">
<g>
	<polygon fill="#0069B3" points="93.948,177.736 166.467,177.736 83.888,330.319 12.208,329.9 	"/>
	<polygon fill="#0069B3" points="173.175,177.318 213.416,177.318 130.837,330.319 91.433,330.319 	"/>
	<polygon fill="#1D1D1B" points="62.792,203.17 163.395,203.17 163.395,304.055 63.067,304.055 	"/>
	<path fill="#FFFFFF" d="M99.188,216.512h49.464v19.072c0,0-68.327,0-70.843,0C82.63,220.075,96.045,216.931,99.188,216.512z"/>
	<path fill="#FFFFFF" d="M79.141,245.37c0,0,45.127,0,47.924,0c18.306,3.91,21.097,19.001,21.097,19.001s-41.081,0-46.805,0
		C86.265,264.232,79.141,245.37,79.141,245.37z"/>
	<path fill="#FFFFFF" d="M77.883,273.874v18.444c0,0,48.062,0.144,50.157,0c15.93-1.677,20.122-18.588,20.122-18.588L77.883,273.874
		z"/>
	<g>
		<path fill="#1D1D1B" d="M199.446,267.797l18.515-1.867c0.4,4.84,1.219,8.527,2.45,11.056c2.004,4.106,4.867,6.157,8.586,6.157
			c2.784,0,4.919-1.049,6.425-3.151c1.507-2.096,2.254-4.525,2.254-7.289c0-2.626-0.714-4.979-2.147-7.048
			c-1.428-2.076-4.749-4.035-9.962-5.875c-8.534-3.085-14.625-7.192-18.262-12.308c-3.667-5.109-5.502-11.632-5.502-19.557
			c0-5.207,0.943-10.126,2.817-14.757c1.873-4.631,4.695-8.272,8.461-10.918c3.767-2.652,8.928-3.976,15.49-3.976
			c8.049,0,14.181,2.411,18.405,7.224c4.224,4.815,6.74,12.471,7.544,22.977l-18.346,1.729c-0.492-4.558-1.513-7.879-3.071-9.949
			c-1.565-2.077-3.721-3.111-6.464-3.111c-2.266,0-3.969,0.773-5.116,2.312c-1.146,1.545-1.716,3.425-1.716,5.632
			c0,1.617,0.472,3.065,1.415,4.355c0.918,1.335,3.093,2.581,6.53,3.733c8.508,2.948,14.6,5.934,18.28,8.954
			c3.682,3.012,6.36,6.759,8.037,11.226c1.677,4.474,2.508,9.472,2.508,14.999c0,6.498-1.112,12.491-3.346,17.973
			c-2.234,5.481-5.357,9.642-9.367,12.478c-4.008,2.83-9.064,4.251-15.162,4.251c-10.715,0-18.13-3.32-22.256-9.955
			C202.321,286.457,199.989,278.027,199.446,267.797z"/>
		<path fill="#1D1D1B" d="M266.633,199.993h28.917c5.698,0,10.303,1.244,13.807,3.733c3.511,2.483,6.412,6.059,8.704,10.71
			c2.286,4.656,3.95,10.067,4.984,16.243c1.029,6.177,1.546,12.72,1.546,19.629c0,10.827-0.767,19.231-2.299,25.197
			c-1.532,5.967-3.661,10.964-6.379,14.992c-2.725,4.034-5.646,6.721-8.764,8.056c-4.271,1.841-8.136,2.764-11.6,2.764h-28.917
			V199.993z M286.099,222.936v55.367h4.768c4.067,0,6.956-0.728,8.678-2.175c1.717-1.455,3.06-3.989,4.035-7.605
			c0.976-3.614,1.46-9.483,1.46-17.592c0-10.735-1.087-18.084-3.262-22.047c-2.18-3.962-5.789-5.948-10.826-5.948H286.099z"/>
		<path fill="#1D1D1B" d="M334.599,199.993h25.598l9.869,61.654l9.799-61.654h25.577v101.324h-15.936v-77.273l-12.281,77.273
			h-14.429l-12.262-77.273v77.273h-15.936V199.993z"/>
		<path fill="#1D1D1B" d="M415.409,250.721c0-16.538,2.863-29.416,8.593-38.637c5.726-9.216,13.702-13.82,23.928-13.82
			c10.486,0,18.561,4.526,24.227,13.577c5.673,9.059,8.509,21.74,8.509,38.055c0,11.842-1.237,21.556-3.714,29.133
			c-2.477,7.578-6.06,13.479-10.742,17.691c-4.682,4.217-10.519,6.327-17.508,6.327c-7.099,0-12.98-1.821-17.63-5.463
			c-4.658-3.642-8.43-9.398-11.325-17.277C416.857,272.426,415.409,262.569,415.409,250.721z M434.869,250.858
			c0,10.23,1.179,17.587,3.544,22.054c2.363,4.467,5.58,6.699,9.646,6.699c4.179,0,7.415-2.187,9.708-6.562
			c2.291-4.376,3.438-12.234,3.438-23.573c0-9.536-1.197-16.504-3.59-20.906c-2.391-4.401-5.632-6.603-9.726-6.603
			c-3.931,0-7.079,2.24-9.458,6.707C436.055,233.148,434.869,240.543,434.869,250.858z"/>
	</g>
	<g>
		<path fill="#1D1D1B" stroke="#1D1D1B" stroke-width="0.6244" stroke-miterlimit="1" d="M482.217,190.81
			c-3.949,0-7.151,3.562-7.133,7.925c0,4.389,3.184,7.926,7.133,7.926c3.93-0.027,7.133-3.537,7.133-7.926
			C489.35,194.373,486.146,190.81,482.217,190.81z M482.217,205.744c-3.491,0.019-6.308-3.125-6.308-6.982
			c-0.02-3.891,2.816-7.035,6.289-7.035c3.496,0,6.326,3.144,6.326,7.008C488.524,202.62,485.694,205.744,482.217,205.744z"/>
		<path fill="#1D1D1B" stroke="#1D1D1B" stroke-width="0.6244" stroke-miterlimit="1" d="M484.536,198.553
			c0.76-0.642,1.074-1.055,1.033-2.182c-0.104-1.979-1.283-2.233-2.502-2.233h-3.51v8.737h1.008v-3.746h2.588
			c1.631,0,1.172,1.605,1.336,2.64l0.164,1.106h1.205c-0.438-0.76-0.289-0.942-0.366-2.095
			C485.36,199.267,485.335,199.128,484.536,198.553z M483.088,198.139h-2.522v-3.007h2.522c0.616,0,1.592,0.184,1.448,1.678
			C484.432,197.937,483.77,198.139,483.088,198.139z"/>
	</g>
</g>
</svg>
