<?xml version="1.0" encoding="utf-8"?>
<!-- Generator: Adobe Illustrator 21.0.2, SVG Export Plug-In . SVG Version: 6.00 Build 0)  -->
<svg version="1.1" id="Calque_1" xmlns="http://www.w3.org/2000/svg" xmlns:xlink="http://www.w3.org/1999/xlink" x="0px" y="0px"
	 viewBox="0 0 500 206" style="enable-background:new 0 0 500 206;" xml:space="preserve">
<style type="text/css">
	.st0{fill:#0069B3;}
	.st1{fill:#1D1D1B;}
	.st2{fill:#FFFFFF;}
</style>
<polygon class="st0" points="93.9,30.7 166.5,30.7 83.9,183.3 12.2,182.9 "/>
<polygon class="st0" points="173.2,30.3 213.4,30.3 130.8,183.3 91.4,183.3 "/>
<polygon class="st1" points="62.8,56.2 163.4,56.2 163.4,157 63.1,157 "/>
<path class="st2" d="M99.2,69.5h49.5v19.1c0,0-68.3,0-70.8,0C82.6,73.1,96,69.9,99.2,69.5z"/>
<path class="st2" d="M79.1,98.4c0,0,45.1,0,47.9,0c18.3,3.9,21.1,19,21.1,19s-41.1,0-46.8,0C86.3,117.2,79.1,98.4,79.1,98.4z"/>
<path class="st2" d="M77.9,126.9v18.4c0,0,48.1,0.1,50.2,0c15.9-1.7,20.1-18.6,20.1-18.6L77.9,126.9z"/>
<path class="st1" d="M199.4,120.8l18.5-1.9c0.4,4.8,1.2,8.5,2.4,11.1c2,4.1,4.9,6.2,8.6,6.2c2.8,0,4.9-1,6.4-3.2
	c1.5-2.1,2.3-4.5,2.3-7.3c0-2.6-0.7-5-2.1-7c-1.4-2.1-4.7-4-10-5.9c-8.5-3.1-14.6-7.2-18.3-12.3c-3.7-5.1-5.5-11.6-5.5-19.6
	c0-5.2,0.9-10.1,2.8-14.8c1.9-4.6,4.7-8.3,8.5-10.9c3.8-2.7,8.9-4,15.5-4c8,0,14.2,2.4,18.4,7.2c4.2,4.8,6.7,12.5,7.5,23l-18.3,1.7
	c-0.5-4.6-1.5-7.9-3.1-9.9c-1.6-2.1-3.7-3.1-6.5-3.1c-2.3,0-4,0.8-5.1,2.3s-1.7,3.4-1.7,5.6c0,1.6,0.5,3.1,1.4,4.4
	c0.9,1.3,3.1,2.6,6.5,3.7c8.5,2.9,14.6,5.9,18.3,9c3.7,3,6.4,6.8,8,11.2c1.7,4.5,2.5,9.5,2.5,15c0,6.5-1.1,12.5-3.3,18
	c-2.2,5.5-5.4,9.6-9.4,12.5c-4,2.8-9.1,4.3-15.2,4.3c-10.7,0-18.1-3.3-22.3-10C202.3,139.4,200,131,199.4,120.8z"/>
<path class="st1" d="M266.6,53h28.9c5.7,0,10.3,1.2,13.8,3.7s6.4,6.1,8.7,10.7c2.3,4.7,4,10.1,5,16.2c1,6.2,1.5,12.7,1.5,19.6
	c0,10.8-0.8,19.2-2.3,25.2s-3.7,11-6.4,15c-2.7,4-5.6,6.7-8.8,8.1c-4.3,1.8-8.1,2.8-11.6,2.8h-28.9L266.6,53L266.6,53z M286.1,75.9
	v55.4h4.8c4.1,0,7-0.7,8.7-2.2c1.7-1.5,3.1-4,4-7.6c1-3.6,1.5-9.5,1.5-17.6c0-10.7-1.1-18.1-3.3-22c-2.2-4-5.8-5.9-10.8-5.9
	L286.1,75.9L286.1,75.9z"/>
<path class="st1" d="M334.6,53h25.6l9.9,61.7l9.8-61.7h25.6v101.3h-16V77l-12.3,77.3h-14.4L350.5,77v77.3h-15.9V53L334.6,53z"/>
<path class="st1" d="M415.4,103.7c0-16.5,2.9-29.4,8.6-38.6s13.7-13.8,23.9-13.8c10.5,0,18.6,4.5,24.2,13.6
	c5.7,9.1,8.5,21.7,8.5,38.1c0,11.8-1.2,21.6-3.7,29.1c-2.5,7.6-6.1,13.5-10.7,17.7c-4.7,4.2-10.5,6.3-17.5,6.3
	c-7.1,0-13-1.8-17.6-5.5c-4.7-3.6-8.4-9.4-11.3-17.3C416.9,125.4,415.4,115.6,415.4,103.7z M434.9,103.8c0,10.2,1.2,17.6,3.5,22.1
	c2.4,4.5,5.6,6.7,9.6,6.7c4.2,0,7.4-2.2,9.7-6.6c2.3-4.4,3.4-12.2,3.4-23.6c0-9.5-1.2-16.5-3.6-20.9s-5.6-6.6-9.7-6.6
	c-3.9,0-7.1,2.2-9.5,6.7C436.1,86.1,434.9,93.5,434.9,103.8z"/>
<path class="st1" d="M482.2,43.6c-1.8,0-3.6,0.7-5,2.1c-1.5,1.6-2.4,3.8-2.4,6.1c0,4.5,3.3,8.2,7.4,8.2c4.1-0.1,7.5-3.8,7.4-8.2
	C489.6,47.3,486.3,43.6,482.2,43.6z M488.2,51.7c0,3.7-2.7,6.7-6,6.7c-1.5,0-2.9-0.6-4-1.7c-1.3-1.3-2-3.1-2-5c0-1.9,0.7-3.7,2-5
	c1.1-1.1,2.5-1.7,4-1.7C485.5,45,488.2,48,488.2,51.7z"/>
<path class="st1" d="M485.7,54.5c0-0.2,0-0.5,0-0.8c-0.1-1.4-0.2-1.7-0.8-2.2c0.7-0.6,0.9-1.1,0.9-2.2c-0.1-2.2-1.6-2.5-2.8-2.5
	h-3.5l-0.3,0.3v8.7l0.3,0.3h1l0.3-0.3v-3.4h2.3c0.9,0,1,0.5,1,1.6c0.1,0.3,0.1,0.5,0.1,0.8l0.2,1.1l0.3,0.3h1.2l0.1-0.5
	C485.7,55.2,485.7,55,485.7,54.5z M484.2,49.8c0,0.8-0.5,1-1.1,1h-2.2v-2.3h2.2c0.4,0,0.7,0.1,0.9,0.3S484.2,49.3,484.2,49.8z"/>
</svg>
