<?xml version="1.0" encoding="utf-8"?>
<!-- Generator: Adobe Illustrator 21.0.2, SVG Export Plug-In . SVG Version: 6.00 Build 0)  -->
<svg version="1.1" id="Calque_1" xmlns="http://www.w3.org/2000/svg" xmlns:xlink="http://www.w3.org/1999/xlink" x="0px" y="0px"
	 viewBox="0 0 500 358" style="enable-background:new 0 0 500 358;" xml:space="preserve">
<style type="text/css">
	.st0{fill:#C4C4C4;}
	.st1{fill:#FFFFFF;}
	.st2{fill:#E5231B;}
</style>
<rect x="15.9" y="19.1" width="321.1" height="260.7"/>
<rect x="25.9" y="31.1" class="st0" width="458.4" height="236.1"/>
<path class="st1" d="M115.5,121.2c-17.3-6-24.6-9.3-24.6-16.8c0-6,6.3-9,19.3-9c12.8,0,25.1,6.4,30.2,8.7l-0.2-23.4
	c-7.4-2.5-17-7-29.6-7c-31,0-50.1,12.8-50.1,33c0,17.3,14.5,28.2,36.5,35.2c15.9,4.9,22.2,9.3,22.2,16.5c0,7.9-7.3,12.9-21,12.9
	c-12.5,0-24.9-3.5-32.8-7.1v24.3c8.1,2.6,19.5,4.8,31,4.8c36.3,0,53.2-16.8,53.2-36.6C149.7,139.8,138.9,128.9,115.5,121.2z"/>
<polygon points="190.3,169.4 190.3,95.6 256.8,95.6 250.9,74.5 166.3,74.5 166.3,74.8 166.3,95.6 166.3,169.4 166.3,190.4 
	166.3,190.5 252.9,190.5 258.9,169.4 "/>
<polygon class="st2" points="234.8,142.4 247.1,121.3 203.4,121.3 191.4,142.4 "/>
<polygon class="st1" points="315.3,141.7 315.3,215.6 248.8,215.6 254.7,236.7 339.2,236.7 339.2,236.3 339.2,215.6 339.2,141.7 
	339.2,120.8 339.2,120.7 252.7,120.7 246.6,141.7 "/>
<polygon class="st1" points="270.7,168.8 258.4,189.9 302.1,189.9 314.2,168.8 "/>
<path class="st1" d="M351.6,75.8c0,0,21.4,0.1,34.1,0.1c21.4,0,35.4,3.6,46,12c11.6,8.9,18.9,23.2,18.9,43.7
	c0,22-7.8,37.2-18.5,46.6c-11.8,10.1-29.9,12.9-51.9,12.9l-28.8,0.3V75.8H351.6z M376.9,172.2c-0.4,0,8.8,0.1,8.8,0.1
	c23.1,0.2,38.2-12,38.2-38.6c0-23.9-13.6-34.6-35.6-34.6l-11.5,0.3L376.9,172.2L376.9,172.2z"/>
<path d="M73.2,327.4c-3.8,1.1-7.7,1.8-11.7,2.2s-8.2,0.7-12.3,0.7c-4.9,0-9.4-0.4-13.5-1.2s-7.6-2-10.5-3.5s-5.2-3.3-6.8-5.4
	c-1.6-2.1-2.5-4.3-2.5-6.8c0-2.4,0.8-4.7,2.5-6.8c1.6-2.1,3.9-3.8,6.8-5.3s6.4-2.7,10.5-3.5s8.6-1.3,13.5-1.3
	c9.6,0,17.3,1.5,23.2,4.4l-4.4,2.3c-1-0.6-2.2-1.1-3.6-1.6s-3-0.9-4.6-1.3c-1.7-0.3-3.4-0.6-5.2-0.8c-1.8-0.2-3.6-0.3-5.4-0.3
	c-4.2,0-8,0.4-11.3,1.1c-3.4,0.7-6.2,1.7-8.6,3s-4.2,2.8-5.5,4.5s-1.9,3.6-1.9,5.6s0.6,3.9,1.9,5.6c1.3,1.7,3.1,3.2,5.5,4.5
	s5.2,2.3,8.6,3s7.2,1.1,11.3,1.1c3.5,0,6.7-0.1,9.7-0.4c3-0.3,5.8-0.8,8.3-1.5v-10.8H51.7v-2.7h21.5V327.4L73.2,327.4z"/>
<path d="M110.6,297.4h6.2l27.1,32.1h-6.7l-7-8.5H96l-7.3,8.5h-6.3L110.6,297.4z M113.4,300.7l-15,17.6H128L113.4,300.7z"/>
<path d="M235.8,297.4h7.9l20.6,15.4l20.6-15.4h7.5v32.1h-5.3v-28.3H287L265.4,318h-2.3l-21.9-16.8H241v28.3h-5.3L235.8,297.4
	L235.8,297.4z"/>
<path d="M158.9,297.4h7.9l20.6,15.4l20.6-15.4h7.5v32.1h-5.3v-28.3H210L188.4,318h-2.3l-21.9-16.8H164v28.3h-5.3L158.9,297.4
	L158.9,297.4z"/>
<path d="M315.1,297.4h4.8v32.1h-4.8C315.1,329.5,315.1,297.4,315.1,297.4z"/>
<path d="M340.6,323.6c1.6,1.4,3.6,2.4,6.1,3c2.5,0.7,5.4,1,8.6,1c2,0,3.9-0.2,5.6-0.5c1.8-0.3,3.3-0.7,4.6-1.3
	c1.3-0.5,2.3-1.2,3.1-2c0.8-0.8,1.1-1.6,1.1-2.6c0-1.1-0.5-2-1.4-2.8c-0.9-0.7-2.2-1.3-3.8-1.8s-3.4-0.9-5.3-1.2c-2-0.3-4-0.7-6.1-1
	s-4.1-0.7-6.1-1.1c-2-0.4-3.7-1-5.3-1.7c-1.6-0.7-2.8-1.5-3.8-2.6c-0.9-1-1.4-2.3-1.4-3.8c0-1.4,0.6-2.7,1.7-3.8
	c1.1-1.1,2.6-2,4.6-2.8c1.9-0.7,4.1-1.3,6.6-1.7s5.1-0.6,7.8-0.6c3.5,0,6.8,0.3,9.8,0.9c3,0.6,5.6,1.7,7.8,3.1l-5.2,1.9
	c-1.5-1.1-3.3-1.9-5.3-2.4s-4.4-0.8-7.2-0.8c-1.9,0-3.8,0.1-5.6,0.4c-1.8,0.3-3.3,0.6-4.6,1.1c-1.3,0.5-2.4,1.1-3.1,1.9
	c-0.8,0.8-1.2,1.6-1.2,2.7c0,1.6,0.8,2.8,2.5,3.7c1.6,0.9,3.7,1.5,6.1,2c2.5,0.5,5.1,0.9,8,1.3c2.9,0.4,5.6,0.9,8,1.5
	c2.5,0.6,4.5,1.5,6.1,2.7c1.6,1.1,2.5,2.7,2.5,4.7c0,1.5-0.5,2.7-1.6,3.9c-1.1,1.1-2.6,2.1-4.4,2.8c-1.9,0.8-4,1.4-6.4,1.7
	c-2.4,0.4-4.9,0.6-7.6,0.6c-4.3,0-8.2-0.4-11.7-1.1c-3.6-0.7-6.6-2-9.2-3.7L340.6,323.6z"/>
<path d="M407.2,300.2h-22v-2.7h50.1v2.7h-22v29.4h-6L407.2,300.2L407.2,300.2z"/>
<path d="M451.8,297.4h31.7v2.7h-25.7v11.4h25.9v2.7h-25.9v12.5H485v2.7h-33.1v-32H451.8z"/>
<rect x="16.2" y="340.2" class="st2" width="469.4" height="1.9"/>
</svg>
