<?xml version="1.0" encoding="utf-8"?>
<!-- Generator: Adobe Illustrator 19.1.0, SVG Export Plug-In . SVG Version: 6.00 Build 0)  -->
<svg version="1.1" id="Calque_1" xmlns="http://www.w3.org/2000/svg" xmlns:xlink="http://www.w3.org/1999/xlink" x="0px" y="0px"
	 viewBox="-345 170.9 500 500" style="enable-background:new -345 170.9 500 500;" xml:space="preserve">
<style type="text/css">
	.st0{fill:#C4C4C4;}
	.st1{fill:#FFFFFF;}
	.st2{fill:#E5231B;}
</style>
<rect x="-329.1" y="261" width="321.1" height="260.7"/>
<rect x="-319.1" y="273" class="st0" width="458.4" height="236.1"/>
<path class="st1" d="M-229.5,363.1c-17.3-6-24.6-9.3-24.6-16.8c0-6,6.3-9,19.3-9c12.8,0,25.1,6.4,30.2,8.7l-0.2-23.4
	c-7.4-2.5-17-7-29.6-7c-31,0-50.1,12.8-50.1,33c0,17.3,14.5,28.2,36.5,35.2c15.9,4.9,22.2,9.3,22.2,16.5c0,7.9-7.3,12.9-21,12.9
	c-12.5,0-24.9-3.5-32.8-7.1v24.3c8.1,2.6,19.5,4.8,31,4.8c36.3,0,53.2-16.8,53.2-36.6C-195.3,381.7-206.1,370.8-229.5,363.1z"/>
<polygon points="-154.7,411.3 -154.7,337.5 -88.2,337.5 -94.1,316.4 -178.7,316.4 -178.7,316.7 -178.7,337.5 -178.7,411.3 
	-178.7,432.3 -178.7,432.4 -92.1,432.4 -86.1,411.3 "/>
<polygon class="st2" points="-110.2,384.3 -97.9,363.2 -141.6,363.2 -153.6,384.3 "/>
<polygon class="st1" points="-29.7,383.6 -29.7,457.5 -96.2,457.5 -90.3,478.6 -5.8,478.6 -5.8,478.2 -5.8,457.5 -5.8,383.6 
	-5.8,362.7 -5.8,362.6 -92.3,362.6 -98.4,383.6 "/>
<polygon class="st1" points="-74.3,410.7 -86.6,431.8 -42.9,431.8 -30.8,410.7 "/>
<path class="st1" d="M6.6,317.7c0,0,21.4,0.1,34.1,0.1c21.4,0,35.4,3.6,46,12c11.6,8.9,18.9,23.2,18.9,43.7c0,22-7.8,37.2-18.5,46.6
	c-11.8,10.1-29.9,12.9-51.9,12.9l-28.8,0.3V317.7z M31.9,414.1c-0.4,0,8.8,0.1,8.8,0.1c23.1,0.2,38.2-12,38.2-38.6
	c0-23.9-13.6-34.6-35.6-34.6l-11.5,0.3L31.9,414.1L31.9,414.1z"/>
<path d="M-271.8,569.3c-3.8,1.1-7.7,1.8-11.7,2.2c-4,0.4-8.2,0.7-12.3,0.7c-4.9,0-9.4-0.4-13.5-1.2c-4.1-0.8-7.6-2-10.5-3.5
	c-2.9-1.5-5.2-3.3-6.8-5.4c-1.6-2.1-2.5-4.3-2.5-6.8c0-2.4,0.8-4.7,2.5-6.8c1.6-2.1,3.9-3.8,6.8-5.3c2.9-1.5,6.4-2.7,10.5-3.5
	c4.1-0.8,8.6-1.3,13.5-1.3c9.6,0,17.3,1.5,23.2,4.4l-4.4,2.3c-1-0.6-2.2-1.1-3.6-1.6c-1.4-0.5-3-0.9-4.6-1.3
	c-1.7-0.3-3.4-0.6-5.2-0.8c-1.8-0.2-3.6-0.3-5.4-0.3c-4.2,0-8,0.4-11.3,1.1c-3.4,0.7-6.2,1.7-8.6,3c-2.4,1.3-4.2,2.8-5.5,4.5
	c-1.3,1.7-1.9,3.6-1.9,5.6c0,2,0.6,3.9,1.9,5.6c1.3,1.7,3.1,3.2,5.5,4.5c2.4,1.3,5.2,2.3,8.6,3c3.4,0.7,7.2,1.1,11.3,1.1
	c3.5,0,6.7-0.1,9.7-0.4c3-0.3,5.8-0.8,8.3-1.5v-10.8h-15.5v-2.7h21.5L-271.8,569.3L-271.8,569.3z"/>
<path d="M-234.4,539.3h6.2l27.1,32.1h-6.7l-7-8.5H-249l-7.3,8.5h-6.3L-234.4,539.3z M-231.6,542.6l-15,17.6h29.6L-231.6,542.6z"/>
<path d="M-109.2,539.3h7.9l20.6,15.4l20.6-15.4h7.5v32.1h-5.3v-28.3H-58l-21.6,16.8h-2.3l-21.9-16.8h-0.2v28.3h-5.3L-109.2,539.3
	L-109.2,539.3z"/>
<path d="M-186.1,539.3h7.9l20.6,15.4l20.6-15.4h7.5v32.1h-5.3v-28.3h-0.2l-21.6,16.8h-2.3l-21.9-16.8h-0.2v28.3h-5.3L-186.1,539.3
	L-186.1,539.3z"/>
<path d="M-29.9,539.3h4.8v32.1h-4.8V539.3z"/>
<path d="M-4.4,565.5c1.6,1.4,3.6,2.4,6.1,3c2.5,0.7,5.4,1,8.6,1c2,0,3.9-0.2,5.6-0.5c1.8-0.3,3.3-0.7,4.6-1.3c1.3-0.5,2.3-1.2,3.1-2
	c0.8-0.8,1.1-1.6,1.1-2.6c0-1.1-0.5-2-1.4-2.8c-0.9-0.7-2.2-1.3-3.8-1.8c-1.6-0.5-3.4-0.9-5.3-1.2c-2-0.3-4-0.7-6.1-1
	c-2.1-0.3-4.1-0.7-6.1-1.1c-2-0.4-3.7-1-5.3-1.7c-1.6-0.7-2.8-1.5-3.8-2.6c-0.9-1-1.4-2.3-1.4-3.8c0-1.4,0.6-2.7,1.7-3.8
	c1.1-1.1,2.6-2,4.6-2.8c1.9-0.7,4.1-1.3,6.6-1.7c2.5-0.4,5.1-0.6,7.8-0.6c3.5,0,6.8,0.3,9.8,0.9c3,0.6,5.6,1.7,7.8,3.1l-5.2,1.9
	c-1.5-1.1-3.3-1.9-5.3-2.4c-2-0.5-4.4-0.8-7.2-0.8c-1.9,0-3.8,0.1-5.6,0.4c-1.8,0.3-3.3,0.6-4.6,1.1c-1.3,0.5-2.4,1.1-3.1,1.9
	c-0.8,0.8-1.2,1.6-1.2,2.7c0,1.6,0.8,2.8,2.5,3.7c1.6,0.9,3.7,1.5,6.1,2c2.5,0.5,5.1,0.9,8,1.3c2.9,0.4,5.6,0.9,8,1.5
	c2.5,0.6,4.5,1.5,6.1,2.7c1.6,1.1,2.5,2.7,2.5,4.7c0,1.5-0.5,2.7-1.6,3.9c-1.1,1.1-2.6,2.1-4.4,2.8c-1.9,0.8-4,1.4-6.4,1.7
	c-2.4,0.4-4.9,0.6-7.6,0.6c-4.3,0-8.2-0.4-11.7-1.1c-3.6-0.7-6.6-2-9.2-3.7L-4.4,565.5z"/>
<path d="M62.2,542.1h-22v-2.7h50.1v2.7h-22v29.4h-6V542.1z"/>
<path d="M106.8,539.3h31.7v2.7h-25.7v11.4h25.9v2.7h-25.9v12.5H140v2.7h-33.1V539.3z"/>
<rect x="-328.8" y="582.1" class="st2" width="469.4" height="1.9"/>
</svg>
