<?xml version="1.0" encoding="utf-8"?>
<!-- Generator: Adobe Illustrator 21.0.2, SVG Export Plug-In . SVG Version: 6.00 Build 0)  -->
<svg version="1.1" id="Calque_1" xmlns="http://www.w3.org/2000/svg" xmlns:xlink="http://www.w3.org/1999/xlink" x="0px" y="0px"
	 viewBox="0 0 500 100" style="enable-background:new 0 0 500 100;" xml:space="preserve">
<style type="text/css">
	.st0{fill:#4393A8;}
	.st1{fill:#55B6D8;}
</style>
<path class="st0" d="M37.7,37.1c-2.9,0-4.7,1.4-4.7,3.5c0,0.9,0.2,1.6,0.8,2.2c0.5-2.5,2.8-4.4,6.6-4.4c1.8,0,3.4,0.3,4.7,0.8
	l-0.2-0.1C42.6,37.8,40.2,37.1,37.7,37.1z"/>
<path class="st0" d="M37.4,56.5c-0.9-0.5-2-1-3.4-1.5c-0.2-0.1-0.3-0.1-0.5-0.2C34.6,55.4,35.9,56,37.4,56.5z"/>
<path class="st0" d="M51.2,59c0,0.3,0,0.6,0,0.9c0,8.5-6.9,14.3-17.1,14.3c-3,0-6-0.5-8.7-1.4c2.9,1.7,7,2.9,11.4,2.9
	c9.5,0,15.1-5,15.1-12.3C52,61.7,51.7,60.3,51.2,59z"/>
<path class="st0" d="M47.2,40.1c0.6,0.3,1.1,0.5,1.5,0.8l1.8-5.3c-0.4-0.3-0.9-0.5-1.5-0.8L47.2,40.1z"/>
<path class="st0" d="M98.7,71.3c-2.8,1.3-7.6,2.8-14.4,2.8c-2.9,0-5.6-0.4-8-1.2c3,1.7,6.6,2.7,10.8,2.7c6.5,0,11-1.4,13.6-2.6
	l-0.6-2.2L98.7,71.3z"/>
<path class="st0" d="M85.6,38.3c0.8,0,1.6,0.1,2.3,0.2c-1.3-1.1-3-1.7-5.1-1.7c-5.8,0-8.1,5-8.9,8h1.8
	C77.5,41.3,80.6,38.3,85.6,38.3z"/>
<path class="st0" d="M102,45.3c0.1,1.1,0.2,2.3,0.2,3.4c0,1.7-0.1,2.9-0.3,3.9l-0.3,1.6l-28-0.1c0.1,1.1,0.4,2.2,0.7,3.1
	c0-0.5-0.1-1.1-0.1-1.7l28.5,0.1c0.2-0.8,0.3-2,0.3-3.5C102.9,50.1,102.6,47.7,102,45.3z"/>
<path class="st0" d="M131.2,73c-2,0-4-0.3-5.8-0.9c2.5,1.5,5.3,2.3,8.5,2.3s5.9-0.8,8.1-2c0.2-0.9,0.3-2,0.3-3.1
	C139.3,71.7,135.5,73,131.2,73z"/>
<path class="st0" d="M123.4,50.8c0,1.8,0.3,3.7,0.8,5.5c-0.1-0.7-0.1-1.4-0.1-2.1c0-9.5,5-15.5,12.1-15.5c0.9,0,1.7,0.1,2.5,0.3
	c-1.4-1.1-3.2-1.7-5.2-1.7C127.3,37.4,123.4,42.6,123.4,50.8z"/>
<path class="st0" d="M153.7,34c-0.1,2-0.1,4.4-0.1,7.7v23.6c0,9.7-2,15.9-6.4,20.1c-3.9,3.5-9.7,5.4-16.2,5.4
	c-3.6,0-7.2-0.6-10.2-1.6c3.3,2,8.4,3,13,3c5.1,0,10.8-1.3,14.9-4.9c3.9-3.6,5.8-9.2,5.8-18.6V45.1c0-5,0.1-8.2,0.3-11.1H153.7z"/>
<path class="st0" d="M189.6,38.3c0.8,0,1.6,0.1,2.3,0.2c-1.3-1.1-3-1.7-5.1-1.7c-5.8,0-8.1,5-8.9,8h1.8
	C181.5,41.3,184.6,38.3,189.6,38.3z"/>
<path class="st0" d="M206,45.3c0.1,1.1,0.2,2.3,0.2,3.4c0,1.7-0.1,2.9-0.3,3.9l-0.3,1.6l-28-0.1c0.1,1.1,0.4,2.2,0.7,3.1
	c0-0.5-0.1-1.1-0.1-1.7l28.5,0.1c0.2-0.8,0.3-2,0.3-3.5C206.9,50.1,206.6,47.7,206,45.3z"/>
<path class="st0" d="M202.7,71.3c-2.8,1.3-7.6,2.8-14.4,2.8c-2.9,0-5.6-0.4-8-1.2c3,1.7,6.6,2.7,10.8,2.7c6.5,0,11-1.4,13.6-2.6
	l-0.6-2.2L202.7,71.3z"/>
<polygon class="st0" points="231.7,28.6 232.5,28.6 232.5,24.2 231.7,24.5 "/>
<rect x="218.9" y="38.2" class="st0" width="1.6" height="1.4"/>
<path class="st0" d="M242.3,34v4.2h-10.6v19.9c0,2.2,0.3,3.6,0.7,4.5c0-0.3,0-0.7,0-1.1V39.6H243V34H242.3L242.3,34z"/>
<path class="st0" d="M241.8,69.1l0.2,3.5l-1.4,0.5c-1.2,0.4-3.7,1.1-7.2,1.1c-1.4,0-2.7-0.2-3.9-0.5c1.7,1.2,3.9,1.9,6.6,1.9
	c2.9,0,5.1-0.5,6.6-1l-0.3-5.6C242.1,69,241.9,69,241.8,69.1z"/>
<path class="st0" d="M271.5,38.3c0.8,0,1.6,0.1,2.3,0.2c-1.3-1.1-3-1.7-5.1-1.7c-5.8,0-8.1,5-8.9,8h1.8
	C263.4,41.3,266.4,38.3,271.5,38.3z"/>
<path class="st0" d="M287.8,45.3c0.1,1.1,0.2,2.3,0.2,3.4c0,1.7-0.1,2.9-0.3,3.9l-0.3,1.6l-28-0.1c0.1,1.1,0.4,2.2,0.7,3.1
	c0-0.5-0.1-1.1-0.1-1.7l28.5,0.1c0.2-0.8,0.3-2,0.3-3.5C288.8,50.1,288.5,47.7,287.8,45.3z"/>
<path class="st0" d="M284.6,71.3c-2.8,1.3-7.6,2.8-14.4,2.8c-2.9,0-5.6-0.4-8-1.2c3,1.7,6.6,2.7,10.8,2.7c6.5,0,11-1.4,13.6-2.6
	l-0.6-2.2L284.6,71.3z"/>
<path class="st0" d="M315.9,58.8c-0.5,0.9-1.1,1.7-1.6,2.6l-1,1.7l-6.5,10.1h-5.5l-1,1.4h8.1l5.9-9.2c1-1.6,2-3.1,2.9-4.7
	C316.7,60.1,316.3,59.5,315.9,58.8z"/>
<polygon class="st0" points="334.4,34 322.9,50.2 324.2,52.2 337.1,34 "/>
<polygon class="st0" points="328.1,73.2 329,74.6 337.4,74.6 336.5,73.2 "/>
<polygon class="st0" points="368.2,49.3 368.2,53.2 348.2,53.2 348.2,54.6 369,54.6 369,49.3 "/>
<path class="st0" d="M397.9,38.3c0.8,0,1.6,0.1,2.3,0.2c-1.3-1.1-3-1.7-5.1-1.7c-5.8,0-8.1,5-8.9,8h1.8
	C389.8,41.3,392.9,38.3,397.9,38.3z"/>
<path class="st0" d="M414.3,45.3c0.1,1.1,0.2,2.3,0.2,3.4c0,1.7-0.1,2.9-0.3,3.9l-0.3,1.6l-28-0.1c0.1,1.1,0.4,2.2,0.7,3.1
	c0-0.5-0.1-1.1-0.1-1.7l28.5,0.1c0.2-0.8,0.3-2,0.3-3.5C415.2,50.1,415,47.7,414.3,45.3z"/>
<path class="st0" d="M411.1,71.3c-2.8,1.3-7.6,2.8-14.4,2.8c-2.9,0-5.6-0.4-8-1.2c3,1.7,6.6,2.7,10.8,2.7c6.5,0,11-1.4,13.6-2.6
	l-0.6-2.2L411.1,71.3z"/>
<path class="st0" d="M441,19.1c-0.4,3.5-3.1,6-6.7,6h-0.1c-0.2,0-0.4,0-0.6,0c0.8,0.9,2,1.4,3.4,1.4l0,0c2.9,0,4.8-2.2,4.8-4.8
	C441.8,20.7,441.5,19.8,441,19.1z"/>
<polygon class="st0" points="440.1,34 440.1,73.2 433.4,73.2 433.4,74.6 440.8,74.6 440.8,34 "/>
<rect x="453.6" y="38.2" class="st0" width="0.9" height="1.4"/>
<path class="st0" d="M478.9,14.8l-0.9,5.6l-2.4-1c-0.9-0.4-2-0.8-4-0.8c-1.6,0-5.9,0-5.9,9.8v0.2h0.9c0.6-4.8,2.6-8.5,7.7-8.5
	c2.2,0,3.6,0.4,4.8,0.9l0.9-5.7C479.8,15.1,479.4,15,478.9,14.8z"/>
<polygon class="st0" points="475.6,38.2 465.9,38.2 465.9,73.2 459.2,73.2 459.2,74.6 466.6,74.6 466.6,39.6 476.3,39.6 476.3,34 
	475.6,34 "/>
<path class="st1" d="M24.5,63.7c2.3,1.3,6.1,2.9,9.8,2.9c5.3,0,7.8-2.6,7.8-6c0-3.5-2.1-5.5-7.5-7.5c-7.4-2.7-10.8-6.6-10.8-11.5
	c0-6.5,5.4-11.9,14-11.9c4.1,0,7.7,1.1,9.9,2.5l-1.8,5.3c-1.6-0.9-4.5-2.4-8.3-2.4c-4.4,0-6.7,2.5-6.7,5.5c0,3.4,2.4,5,7.6,7
	c7,2.6,10.7,6.1,10.7,12.3c0,7.2-5.6,12.3-15.1,12.3c-4.5,0-8.6-1.2-11.4-2.9L24.5,63.7z"/>
<path class="st1" d="M71.5,52.2c0.2,10,6.5,14.1,13.9,14.1c5.3,0,8.6-0.9,11.3-2l1.3,5.2c-2.6,1.2-7.1,2.6-13.6,2.6
	c-12.4,0-20-8.3-20-20.5c0-12.3,7.3-22,19.1-22c13.3,0,16.7,11.7,16.7,19.1c0,1.5-0.1,2.7-0.3,3.5L71.5,52.2z M93,46.9
	c0.1-4.6-1.9-12-10.2-12c-7.6,0-10.7,6.9-11.3,12H93z"/>
<path class="st1" d="M151.6,65.3c0,9.4-1.9,15-5.8,18.6c-4,3.6-9.7,4.9-14.9,4.9c-4.9,0-10.2-1.2-13.5-3.4l1.8-5.7
	c2.7,1.8,6.9,3.3,11.9,3.3c7.6,0,13.1-3.9,13.1-14.3v-4.5H144c-2.2,3.8-6.6,6.8-12.9,6.8c-10.1,0-17.3-8.6-17.3-19.9
	c0-13.8,9-21.5,18.4-21.5c7.1,0,10.8,3.6,12.7,7h0.2l0.3-6h6.6c-0.3,2.9-0.3,6.1-0.3,11.1L151.6,65.3L151.6,65.3z M144.2,46.5
	c0-1.2-0.1-2.3-0.4-3.3c-1.3-4.4-4.9-7.9-10.3-7.9c-7.1,0-12.1,6-12.1,15.5c0,7.9,4.1,14.6,12,14.6c4.6,0,8.7-2.9,10.2-7.6
	c0.4-1.2,0.6-2.6,0.6-3.9V46.5z"/>
<path class="st1" d="M175.5,52.2c0.2,10,6.5,14.1,13.9,14.1c5.3,0,8.6-0.9,11.3-2l1.3,5.2c-2.6,1.2-7.1,2.6-13.6,2.6
	c-12.4,0-20-8.3-20-20.5c0-12.3,7.3-22,19.1-22c13.3,0,16.7,11.7,16.7,19.1c0,1.5-0.1,2.7-0.3,3.5L175.5,52.2z M197,46.9
	c0.1-4.6-1.9-12-10.2-12c-7.6,0-10.7,6.9-11.3,12H197z"/>
<path class="st1" d="M229.7,20.8v9.7h10.6v5.6h-10.6v22c0,5,1.4,7.9,5.5,7.9c2,0,3.2-0.2,4.3-0.5l0.3,5.6c-1.4,0.5-3.7,1-6.6,1
	c-3.4,0-6.2-1.2-8-3.1c-2-2.3-2.9-5.9-2.9-10.7V36.1H216v-5.6h6.3v-7.4L229.7,20.8z"/>
<path class="st1" d="M257.3,52.2c0.2,10,6.5,14.1,13.9,14.1c5.3,0,8.6-0.9,11.3-2l1.3,5.2c-2.6,1.2-7.1,2.6-13.6,2.6
	c-12.4,0-20-8.3-20-20.5c0-12.3,7.3-22,19.1-22c13.3,0,16.7,11.7,16.7,19.1c0,1.5-0.1,2.7-0.3,3.5L257.3,52.2z M278.9,46.9
	c0.1-4.6-1.9-12-10.2-12c-7.6,0-10.7,6.9-11.3,12H278.9z"/>
<path class="st1" d="M306.4,30.6l5.8,8.6c1.5,2.4,2.8,4.4,4.1,6.6h0.3c1.3-2.4,2.7-4.5,4.1-6.6l5.6-8.6h8.1l-13.9,19.6l14.2,21h-8.4
	l-6-9.2c-1.6-2.4-2.9-4.6-4.4-7.1h-0.2c-1.3,2.4-2.8,4.6-4.3,7.1l-5.9,9.2h-8.1l14.4-20.7L298,30.6H306.4L306.4,30.6z"/>
<path class="st1" d="M366.2,45.9v5.4h-20.7v-5.4H366.2z"/>
<path class="st1" d="M383.8,52.2c0.2,10,6.5,14.1,13.9,14.1c5.3,0,8.6-0.9,11.3-2l1.3,5.2c-2.6,1.2-7.1,2.6-13.6,2.6
	c-12.4,0-20-8.3-20-20.5c0-12.3,7.3-22,19.1-22c13.3,0,16.7,11.7,16.7,19.1c0,1.5-0.1,2.7-0.3,3.5L383.8,52.2z M405.4,46.9
	c0.1-4.6-1.9-12-10.2-12c-7.6,0-10.7,6.9-11.3,12H405.4z"/>
<path class="st1" d="M434.2,23.1c-2.8,0-4.6-2.2-4.6-4.8c0-2.6,1.9-4.7,4.8-4.7s4.7,2.1,4.7,4.7C439.1,20.9,437.2,23.1,434.2,23.1
	L434.2,23.1z M430.7,71.2V30.6h7.4v40.6H430.7z"/>
<path class="st1" d="M456.5,71.2v-35h-5.6v-5.6h5.6v-1.9c0-5.7,1.3-10.9,4.8-14.2c2.8-2.7,6.5-3.8,9.8-3.8c2.7,0,4.9,0.6,6.3,1.2
	l-0.9,5.7c-1.2-0.5-2.6-0.9-4.8-0.9c-6.2,0-7.9,5.5-7.9,11.8v2.2h9.8v5.6h-9.7v35L456.5,71.2L456.5,71.2z"/>
</svg>
