<?xml version="1.0" encoding="utf-8"?>
<!-- Generator: Adobe Illustrator 19.1.0, SVG Export Plug-In . SVG Version: 6.00 Build 0)  -->
<svg version="1.1" id="Calque_1" xmlns="http://www.w3.org/2000/svg" xmlns:xlink="http://www.w3.org/1999/xlink" x="0px" y="0px"
	 viewBox="-345 170.9 500 500" style="enable-background:new -345 170.9 500 500;" xml:space="preserve">
<style type="text/css">
	.st0{fill:#020202;}
	.st1{fill:#FFB600;}
	.st2{fill:#FF7F00;}
	.st3{fill:#001172;}
</style>
<path class="st0" d="M-255.3,443.6c-2.8-1.9-6.3-3.5-10.6-4.9c-4.2-1.4-8.8-2.6-13.6-3.7c-4.9-1.1-9.4-2.1-13.6-3.3
	c-4.2-1.1-7.8-2.4-10.6-3.9c-2.8-1.4-4.2-3.2-4.2-5.3c0-2.6,1.8-4.7,5.3-6.1c3.6-1.5,8.3-2.2,14.1-2.2c3.6,0,6.9,0.3,10.1,0.3
	c19.9,0,21.3,6.1,21.7,4.9c0.4-1.2,0.7-2.4,1-3.6c0.3-1.2,0.4-2.2,0.4-3c-3.3-0.7-7.8-1.3-13.6-1.8c-5.7-0.5-12.1-0.7-19-0.7
	c-5.3,0-10.2,0.3-14.5,1c-4.3,0.6-8.1,1.6-11.2,2.7c-3.1,1.2-5.5,2.6-7.3,4.3c-1.7,1.7-2.6,3.6-2.6,5.8c0,3,1.4,5.5,4.2,7.4
	c2.8,2,6.3,3.7,10.4,5.1c4.1,1.4,8.7,2.6,13.6,3.7c4.9,1,9.4,2.1,13.6,3.2c4.1,1.1,7.6,2.3,10.4,3.7c2.8,1.4,4.2,3.1,4.2,5.2
	c0,1.5-0.7,2.9-2,4.1c-1.4,1.2-3.2,2.2-5.5,3.1c-2.3,0.8-5.1,1.5-8.3,1.9c-3.2,0.4-6.6,0.7-10.2,0.7c-4.3,0-7.6-0.2-9.7-0.7
	c-2.2-0.4-3.9-1-5.3-1.6c0,0-7.2-1.4-14.1-4.4c-1.3-0.5-0.7,2.6-1,3.8c-0.3,1.2-0.5,2.3-0.6,3.2c2.4,0.9,6.4,1.7,12.1,2.5
	c5.7,0.8,12.1,1.2,19.3,1.2c6.5,0,12.3-0.4,17.4-1.1c5.1-0.7,9.4-1.7,13-3.1c3.5-1.3,6.2-3,8.1-4.9c1.9-1.9,2.8-4,2.8-6.3
	C-251.1,447.9-252.5,445.5-255.3,443.6z"/>
<path class="st0" d="M69.7,443.6c-2.8-1.9-6.3-3.5-10.6-4.9c-4.2-1.4-8.8-2.6-13.6-3.7c-4.9-1.1-9.4-2.1-13.6-3.3
	c-4.2-1.1-7.8-2.4-10.6-3.9c-2.8-1.4-4.2-3.2-4.2-5.3c0-2.6,1.8-4.7,5.3-6.1c3.6-1.5,8.3-2.2,14.1-2.2c3.6,0,6.9,0.3,10.1,0.3
	c19.9,0,21.3,6.1,21.7,4.9c0.4-1.2,0.7-2.4,1-3.6c0.3-1.2,0.4-2.2,0.4-3c-3.3-0.7-7.8-1.3-13.6-1.8c-5.7-0.5-12.1-0.7-19-0.7
	c-5.3,0-10.2,0.3-14.5,1c-4.3,0.6-8.1,1.6-11.2,2.7c-3.1,1.2-5.5,2.6-7.3,4.3c-1.7,1.7-2.6,3.6-2.6,5.8c0,3,1.4,5.5,4.2,7.4
	c2.8,2,6.3,3.7,10.4,5.1c4.1,1.4,8.7,2.6,13.6,3.7c4.9,1,9.4,2.1,13.6,3.2c4.1,1.1,7.6,2.3,10.4,3.7c2.8,1.4,4.2,3.1,4.2,5.2
	c0,1.5-0.7,2.9-2,4.1c-1.4,1.2-3.2,2.2-5.5,3.1c-2.3,0.8-5.1,1.5-8.3,1.9c-3.2,0.4-6.6,0.7-10.2,0.7c-4.3,0-7.6-0.2-9.7-0.7
	c-2.2-0.4-3.9-1-5.3-1.6c0,0-7.2-1.4-14.1-4.4c-1.3-0.5-0.7,2.6-1,3.8c-0.3,1.2-0.5,2.3-0.6,3.2c2.4,0.9,6.4,1.7,12.1,2.5
	c5.7,0.8,12.1,1.2,19.3,1.2c6.5,0,12.3-0.4,17.4-1.1c5.1-0.7,9.4-1.7,13-3.1c3.5-1.3,6.2-3,8.1-4.9c1.9-1.9,2.8-4,2.8-6.3
	C73.9,447.9,72.5,445.5,69.7,443.6z"/>
<polygon class="st0" points="-244.5,410.1 -244.5,415.2 -244.5,435.9 -244.5,441.1 -244.5,461.1 -244.5,464.8 -244.5,466.3 
	-188,466.3 -188,461.1 -233.3,461.1 -233.3,441.1 -188,441.1 -188,435.9 -233.3,435.9 -233.3,415.2 -188,415.2 -188,410.1 
	-233.3,410.1 "/>
<polygon class="st0" points="-60.3,410.1 -60.3,415.2 -60.3,435.9 -60.3,441.1 -60.3,461.1 -60.3,464.8 -60.3,466.3 -3.8,466.3 
	-3.8,461.1 -49.1,461.1 -49.1,441.1 -3.8,441.1 -3.8,435.9 -49.1,435.9 -49.1,415.2 -3.8,415.2 -3.8,410.1 -49.1,410.1 "/>
<polygon class="st0" points="-166.1,410.1 -177.3,410.1 -177.3,461.1 -177.3,464.8 -177.3,466.3 -123.6,466.3 -123.6,461.1 
	-166.1,461.1 "/>
<polygon class="st0" points="-107.8,410.1 -118.9,410.1 -118.9,461.1 -118.9,464.8 -118.9,466.3 -65.2,466.3 -65.2,461.1 
	-107.8,461.1 "/>
<ellipse class="st1" cx="126" cy="408.4" rx="10.6" ry="5.3"/>
<path class="st2" d="M64.3,387.9c11,0,27.2-12.5,38.4-16.7c-5.6-1.6-12.3-2.5-19.4-2.5c-17,0-31.3,5.2-35.6,12.2
	C51,384.1,56.5,387.9,64.3,387.9z"/>
<path class="st3" d="M102.7,371.2c-11.2,4.2-27.4,16.7-38.4,16.7c-7.8,0-13.3-3.7-16.6-6.9c-0.8,1.4-1.3,2.9-1.3,4.4
	c0,9.1,16.5,16.6,36.9,16.6c20.4,0,36.9-7.4,36.9-16.6C120.2,379.3,113.2,374.1,102.7,371.2z"/>
</svg>
