<?xml version="1.0" encoding="utf-8"?>
<!-- Generator: Adobe Illustrator 21.0.2, SVG Export Plug-In . SVG Version: 6.00 Build 0)  -->
<svg version="1.1" id="Calque_1" xmlns="http://www.w3.org/2000/svg" xmlns:xlink="http://www.w3.org/1999/xlink" x="0px" y="0px"
	 viewBox="0 0 500 140" style="enable-background:new 0 0 500 140;" xml:space="preserve">
<style type="text/css">
	.st0{fill:#E32120;}
	.st1{fill:#FFFFFF;}
</style>
<path class="st0" d="M474.5,109.4c-1.1,7.2-7.8,13-15,13H28.2c-7.2,0-12.2-5.8-11.1-13l11.4-75.9c1.1-7.2,7.8-13,15-13h431.3
	c7.2,0,12.2,5.8,11.1,13L474.5,109.4z"/>
<polygon class="st1" points="101.2,35.4 99.1,49.2 102.6,49.2 95.8,94.4 92.3,94.4 90.2,108.1 93.8,108.1 115,108.1 133.8,108.1 
	133.9,108 135.9,94.4 137,87.2 125.3,87.2 124.2,94.4 117.1,94.4 119.3,79.6 128.9,79.6 131.3,63.2 121.8,63.2 123.9,49.2 131,49.2 
	129.9,56.2 141.7,56.2 142.7,49.2 144.8,35.4 133.1,35.4 "/>
<polygon class="st1" points="189,35.4 186.6,35.4 184.6,49.2 186.9,49.2 184.3,66.4 177.4,35.4 177.2,35.4 169.1,35.4 154.9,35.4 
	151.1,35.4 149,49.2 152.8,49.2 146,94.3 143.6,94.3 141.5,108 143.9,108 143.9,108.3 158.1,108.3 158.1,108 161.9,108 164,94.3 
	160.2,94.3 163.3,73.3 171.2,108.3 178,108.3 193.5,108.3 193.7,108.3 193.6,107.9 202.4,49.2 204.7,49.2 206.8,35.4 204.5,35.4 "/>
<polygon class="st1" points="346.9,35.4 344.6,35.4 342.5,49.2 344.9,49.2 342.3,66.4 335.3,35.4 335.2,35.4 327,35.4 312.8,35.4 
	309,35.4 307,49.2 310.8,49.2 304,94.3 301.5,94.3 299.5,108 301.9,108 301.9,108.3 316,108.3 316.1,108 319.9,108 322,94.3 
	318.2,94.3 321.3,73.3 329.1,108.3 335.9,108.3 351.5,108.3 351.6,108.3 351.5,107.9 360.4,49.2 362.7,49.2 364.8,35.4 362.5,35.4 
	"/>
<polygon class="st1" points="272.7,49 275.8,49 269,94.3 265.8,94.3 263.8,108 292.1,108 294.2,94.3 291.2,94.3 298,49 301,49 
	303.1,35.3 274.7,35.3 "/>
<polygon class="st1" points="255.5,35.4 250.2,35.4 228,35.4 223.2,35.4 216.5,35.4 211.5,35.4 208.3,56.2 220,56.2 221.1,49.2 
	225.9,49.2 219.1,94.3 215.8,94.3 213.7,108 242.1,108 244.2,94.3 241.3,94.3 248.1,49.2 253.4,49.2 252.4,56.2 264.1,56.2 
	267.2,35.4 261.6,35.4 "/>
<polygon class="st1" points="370,35.4 367.9,49.2 371.5,49.2 364.7,94.4 361.1,94.4 359.1,108.1 362.6,108.1 383.9,108.1 
	402.7,108.1 402.7,108 404.8,94.4 405.8,87.2 394.1,87.2 393,94.4 385.9,94.4 388.2,79.6 397.7,79.6 400.2,63.2 390.6,63.2 
	392.7,49.2 399.8,49.2 398.8,56.2 410.5,56.2 411.6,49.2 413.6,35.4 401.9,35.4 "/>
<polygon class="st1" points="443.3,94.4 436.2,94.4 443.1,49.2 447.3,49.2 449.4,35.4 419.6,35.4 417.6,49.2 421.8,49.2 415,94.4 
	411.4,94.4 409.4,108.1 412.9,108.1 434.2,108.1 453,108.1 453,108 455.1,94.4 456.1,87.2 444.4,87.2 "/>
<path class="st1" d="M73.9,62.5C62.4,59.1,61.1,50,67.7,49.2c3.2-0.4,8,4.9,7.1,10.8h13.4l3.7-24.6H80.2l-0.4,2
	c-1.9-0.8-6.1-2.1-14-2.1c-11.6,0-20.9,6.9-23,20.5c-1.5,10,2.7,19.9,18.5,23.6s4.1,18.8-2.1,11.5c-3.3-3.5-4.5-7.8-4.4-9.9H41.6
	l-4.1,27.3h11.7l0.9-4.1c2.4,1.6,7.5,4.1,15.6,4.1c11.9,0,23-12.5,23.8-22C90.3,75.5,85.4,65.9,73.9,62.5z"/>
<path class="st1" d="M467.4,43.1c-0.2-0.5-0.5-0.8-0.8-1.1c-0.1-0.1-0.3-0.3-0.6-0.4c0.8-0.1,1.5-0.4,1.9-0.8
	c0.5-0.4,0.7-0.9,0.8-1.5c0.1-0.5,0-0.9-0.2-1.3c-0.2-0.4-0.5-0.7-0.8-0.8c-0.4-0.2-0.9-0.2-1.7-0.2h-3.8l-1.3,8.5h1.1l0.6-3.8h1.3
	c0.3,0,0.5,0,0.6,0c0.2,0,0.3,0.1,0.5,0.2s0.3,0.3,0.5,0.6c0.2,0.3,0.4,0.7,0.6,1.2l0.9,1.8h1.4L467.4,43.1z M465.2,40.6h-2.4
	l0.4-2.8h2.7c0.6,0,1.1,0.1,1.3,0.4c0.3,0.3,0.4,0.6,0.3,1c0,0.3-0.2,0.5-0.3,0.8c-0.2,0.2-0.4,0.4-0.7,0.5S465.7,40.6,465.2,40.6z"
	/>
<path class="st1" d="M465.3,33.3c-4.4,0-8.4,3.5-9.1,7.9c-0.7,4.3,2.4,7.9,6.7,7.9c4.3,0,8.4-3.5,9.1-7.9S469.7,33.3,465.3,33.3z
	 M463.1,48c-3.8,0-6.4-3-5.8-6.8c0.6-3.7,4.1-6.8,7.8-6.8c3.8,0,6.4,3,5.8,6.8C470.4,44.9,466.9,48,463.1,48z"/>
</svg>
