<?xml version="1.0" encoding="utf-8"?>
<!-- Generator: Adobe Illustrator 15.0.0, SVG Export Plug-In . SVG Version: 6.00 Build 0)  -->
<!DOCTYPE svg PUBLIC "-//W3C//DTD SVG 1.1//EN" "http://www.w3.org/Graphics/SVG/1.1/DTD/svg11.dtd">
<svg version="1.1" id="Calque_1" xmlns="http://www.w3.org/2000/svg" xmlns:xlink="http://www.w3.org/1999/xlink" x="0px" y="0px"
	 width="500px" height="500px" viewBox="0 0 500 500" enable-background="new 0 0 500 500" xml:space="preserve">
<rect x="394.323" y="219.952" fill="#0072BB" width="80.496" height="70.275"/>
<rect x="397.221" y="222.726" fill="#FFFFFF" width="74.968" height="64.891"/>
<path fill="#0072BB" d="M28.096,242.401c-0.007,0.124-0.014,0.548-0.014,0.548c0,4.946,2.283,11.354,8.035,16.404
	c-3.43,0-9.647,0-9.647,0l-0.17,7.205l-0.007,0.438c0,8.936,6.476,24.269,30.724,25.088c2.685,0.067,15.12,0.027,24.232-6.101
	c0,0.553,0,4.324,0,4.324h70.985c0,0,0-7.134,0-11.595c3.309,5.062,7.585,11.595,7.585,11.595h28.563
	c-0.048-0.054,14.178-0.014,14.178-0.014h2.691c0,0,0-17.969,0-22.109c3.266,0,9.976,0,13.241,0c0,4.141,0,22.062,0,22.062h90.285
	c-0.02,0,22.328,0.293,22.328,0.293l1.572,0.021c0,0,3.758-6.511,5.957-10.329c2.213,3.75,5.938,10.036,5.938,10.036h39.879
	c0,0-24.172-31.839-26.387-34.763c2.229-2.932,27.009-35.567,27.009-35.567h-40.542c0,0-3.846,6.312-6.107,10.03
	c-2.208-3.785-6.026-10.303-6.026-10.303L259,219.945c0,0,0,38.93,0,43.655c-2.863,0-7.016,0-9.879,0c0-4.726,0-43.662,0-43.662
	h-72.659c0,0,0,4.468,0,5.82c-4.865-3.99-10.671-5.862-14.246-5.862l-80.967,0.042c0,0,0,5.329,0,7.658
	c-4.468-4.625-11.833-9.243-23.57-9.243C47.575,218.257,28.341,223.162,28.096,242.401z"/>
<path fill="#FFFFFF" d="M379.669,222.616h-33.628c0,0-4.673,7.666-7.658,12.584c-2.925-5-7.516-12.844-7.516-12.844l-69.182,0.26
	v43.671c-4.257,0-11.703,0-15.25,0c0-7.207,0-43.671,0-43.671h-67.283v10.016c-4.796-7.352-13.28-10.05-16.937-10.05l-78.288,0.034
	v13.295c-3.526-7.044-11.424-14.874-26.25-14.874c-9.175-0.088-26.679,4.27-26.905,21.399c-0.007,0.164-0.014,0.334-0.014,0.512
	c0,5.191,3.212,14.443,14.847,19.088c-4.4,0-16.514,0-16.514,0l-0.11,4.592c0,0.123,0,0.245,0,0.368
	c0,8.151,5.876,21.651,28.123,22.408c1.761,0.043,17.134,0.207,25.605-8.055c0.438-0.416,0.833-0.853,1.217-1.303v7.583h65.615
	c0,0,0-12.053,0-17.929c3.32,5.069,11.731,17.929,11.731,17.929h27.108c0,0-0.027-0.042-0.034-0.056l14.212,0.028
	c0,0,0-16.41,0-22.103c4.167,0,15.126,0,18.623,0v22.061h87.594l22.377,0.301c0,0,4.543-7.897,7.447-12.96
	c2.998,5.075,7.5,12.687,7.5,12.687h32.945c0,0-21.009-27.669-24.35-32.083C358.051,251.079,379.669,222.616,379.669,222.616z"/>
<path fill="#0072BB" d="M64.265,242.935l17.422,0.205c0,0-2.761-17.626-24.008-17.626c0,0-22.218-0.213-22.423,16.99
	c0,0-0.724,12.318,15.413,16.568c0,0,15.29,3.607,15.085,10.623c0,0-1.701,4.824-8.075,4.824c0,0-8.288-0.361-8.288-8.008H33.467
	c0,0-1.285,17.565,23.788,18.42c0,0,26.345,0.689,26.345-16.513c0,0,1.905-12.531-18.7-18.481c0,0-13.808-3.395-13.808-7.857
	c0-4.297,2.76-5.944,6.381-5.944C61.082,236.136,64.265,238.466,64.265,242.935z"/>
<polygon fill="#0072BB" points="88.402,227.098 124.702,227.098 124.702,239.457 102.866,239.457 102.866,248.927 120.492,248.927 
	120.492,261.026 102.866,261.026 102.866,270.762 124.441,270.762 124.441,283.381 88.402,283.381 "/>
<polygon fill="#0072BB" points="183.622,227.098 219.927,227.098 219.927,239.457 198.093,239.457 198.093,248.927 215.719,248.927 
	215.719,261.026 198.093,261.026 198.093,283.121 183.622,283.087 "/>
<polygon fill="#0072BB" points="266.153,227.098 302.459,227.098 302.459,239.457 280.624,239.457 280.624,248.927 298.25,248.927 
	298.25,261.026 280.624,261.026 280.624,270.762 304.304,270.762 304.304,283.381 266.153,283.381 "/>
<polygon fill="#0072BB" points="225.652,227.098 241.968,227.098 241.968,270.762 260.373,270.762 260.373,283.381 225.652,283.381 
	"/>
<polygon fill="#0072BB" points="306.729,283.381 327.725,255.335 306.729,226.832 328.298,226.832 338.293,243.933 348.547,227.098 
	370.644,227.098 349.089,255.506 370.198,283.381 348.821,283.381 338.561,266.027 328.564,283.381 "/>
<path fill="#0072BB" d="M130.619,227.057v56.097h14.457v-19.846h5.629l12.981,19.846h15.933l-14.21-19.601
	c0,0,12.734-4.407,12.734-18.61c0-14.218-13.226-17.886-15.926-17.886H130.619z"/>
<path fill="#FFFFFF" d="M144.828,239.122v11.451h11.267c0,0,6.375-0.246,6.375-5.875c0,0-0.254-5.576-6.622-5.576H144.828z"/>
<path fill="#0072BB" d="M466.73,248.659c0.62,2.201,0.977,4.482,0.977,6.847c0,15.829-14.771,28.668-33.006,28.668
	c-14.962,0-27.595-8.657-31.634-20.517h17.292l14.998-19.725h-7.365l-11.041,14.989h-14.997c-0.163-1.127-0.266-2.255-0.266-3.416
	c0-15.836,14.784-28.674,33.013-28.674c13.486,0,25.065,7.029,30.185,17.101h-16.104l-14.997,19.725h7.365l11.04-14.998H466.73z
	 M423.775,263.657l7.112,0.265l14.73-19.989h-7.365L423.775,263.657z"/>
</svg>
