<?xml version="1.0" encoding="utf-8"?>
<!-- Generator: Adobe Illustrator 19.1.0, SVG Export Plug-In . SVG Version: 6.00 Build 0)  -->
<svg version="1.1" id="Calque_1" xmlns="http://www.w3.org/2000/svg" xmlns:xlink="http://www.w3.org/1999/xlink" x="0px" y="0px"
	 viewBox="-345 170.9 500 500" style="enable-background:new -345 170.9 500 500;" xml:space="preserve">
<style type="text/css">
	.st0{fill:#E5231B;}
</style>
<path class="st0" d="M130.5,412.7c-5.8-5.7-13.2-8.6-22.2-8.6c-8.1,0-15,2.4-20.7,7c-6.8,5.6-10.2,14.2-10.2,25.6
	c0,10.4,2.9,18.5,8.5,24.1c5.7,5.7,13.2,8.5,22.4,8.5c5.7,0,11-1.3,15.8-3.8c4.9-2.6,8.7-6.3,11.2-10.9c2.5-4.6,3.8-10.9,3.8-18.7
	C139.1,426.2,136.2,418.3,130.5,412.7z M117.6,449.8c-2.5,2.8-5.6,4.1-9.4,4.1c-3.8,0-6.9-1.3-9.4-4.1c-2.6-2.8-3.9-7.2-3.9-13.1
	s1.3-10.3,3.8-13c2.5-2.7,5.6-4.1,9.4-4.1c3.8,0,6.8,1.3,9.3,4.1c2.6,2.8,3.9,7.1,3.9,12.7C121.5,442.5,120.2,447,117.6,449.8z"/>
<path class="st0" d="M46.9,452.5c-3.7,0-11-1.8-11-15.8c0-13,7.1-15.7,10.7-15.7c8.2,0,9.9,7.1,9.9,7.1l17.8,0l-0.5-3.7
	c-1.3-6.4-4.3-11.4-8.9-15c-4.6-3.5-10.5-5.3-17.6-5.3c-5.6,0-10.8,1.3-15.6,3.8c-4.9,2.6-8.6,6.5-10.9,11.7
	c-2.3,5-3.4,10.8-3.4,17.4c0,6.3,1,11.7,3.1,16.3h-6.4c-0.1-2.6-0.2-6.4-0.2-11.8v-13c0-4.5-0.2-7.6-0.5-9.6
	c-0.7-3.1-1.9-5.7-3.6-7.7c-1.7-2.1-4.4-3.8-7.8-5.1c-3.3-1.3-7.7-1.9-12.9-1.9c-3.6,0-7,0.4-10.1,1.1h-23.1v0.3
	c-8.7-1.1-14.8,9.8-15.5,10.5v-9.2h-17.7v47.8h-6.2c0.9-1.9,1.7-3.9,2.3-6l-15.9,0c-1.2,2.4-2.6,4.3-4.2,5.5
	c-2.1,1.6-4.6,2.3-7.7,2.3c-4.1,0-7.5-1.4-10.3-4.3c-2.3-2.4-3.8-5.9-4.4-10.4h42.7l0.1-2.4c0-1.2,0.1-2.1,0.1-2.7
	c0-10.1-2.7-18.2-8-23.9c-5.4-5.8-12.3-8.7-20.7-8.7c-4.6,0-8.8,0.9-12.6,2.6h-23.4v-2c0-3.8,0.3-5.5,1.6-6.6
	c2-1.7,16.2-1.1,16.2-1.1l0.1-14.1c0,0-23-1-27.5,2c-2.8,1.9-4.8,4.3-5.9,7.4c-0.8,2.2-1.2,5.3-1.2,9.5v4.9h-19.4
	c-0.3-0.1-0.7-0.3-1-0.5c-3.7-1.4-8-2.1-12.8-2.1c-3.2,0-6.3,0.4-9.2,1.3c-2.9,0.9-5.2,1.9-7,3.2c-2.3,1.7-4.2,3.8-5.6,6.3
	c-1.4,2.6-2.1,5.4-2.1,8.3c0,3.3,0.8,6.3,2.5,9c1.7,2.7,4.2,4.9,7.4,6.4c2.9,1.4,8,3,15.4,4.9c6.8,1.7,8.8,2.7,9.2,3
	c1.2,0.8,1.8,1.8,1.8,3.1c0,1.7-0.8,3.2-2.4,4.5c-1.7,1.4-4.5,2.2-8.4,2.2c-3.8,0-6.8-0.8-8.8-2.5c-2-1.7-3.2-4.1-3.7-7.3l-15-0.2
	l0.4,2.5c1.2,6.7,4,11.9,8.4,15.4c4.4,3.5,10.7,5.2,18.7,5.2c4.9,0,9.3-0.9,13.2-2.6c4-1.8,7.1-4.3,9.3-7.6
	c2.2-3.3,3.3-6.8,3.3-10.6c0-3.8-0.9-7.1-2.8-9.8c-1.8-2.6-4.3-4.6-7.5-6c-2.9-1.2-7.7-2.8-14.8-4.7c-4.7-1.3-7.6-2.1-8.4-2.4
	c-1.3-0.5-2.2-1.1-2.7-1.8c-0.5-0.6-0.7-1.2-0.7-1.9c0-0.8,0.2-1.9,1.9-3.3c1-0.8,3.2-1.7,8.1-1.7c3.2,0,5.7,0.7,7.3,2
	c1.6,1.3,2.5,1.9,2.9,4.2h14.5c-0.2-1.4-0.5-2.7-0.9-4h8.8v48.8h16.6v-48.9h10.3c-2.5,5-3.8,11-3.8,18c0,10,2.7,17.9,8.1,23.6
	c5.4,5.7,12.8,8.6,21.9,8.6c3.6,0,6.9-0.5,9.9-1.4h21.8v0.1h17.8c0,0-0.7-35.1,0.3-38.2c0.6-1.8,6.9-11.9,14.1-7.9l2.9,0l0.1-0.3
	h4.1c-0.1,0.8-0.1,1.7-0.1,2.6l16.5,0c0.9-2.4,2.1-6.1,9-6.1c9.6,0,8.3,5.8,8.3,9c0,0.2,0,0.4,0,0.7c-3.6,1-5.5,1.2-12.1,2
	c-4,0.5-7,1-9.1,1.5c-2.9,0.8-5.5,2-7.8,3.5c-2.4,1.6-4.4,3.8-5.8,6.5c-1.5,2.7-2.2,5.7-2.2,8.9c0,5.5,2,10.1,5.9,13.7
	c3.9,3.5,9.3,4.5,16.3,4.6c7.9,0.1,12.8-4.4,15.5-6.3c0,0.2,0.1,0.4,0.1,0.6v5.1h22h18.9c3,0.9,6.2,1.3,9.6,1.3
	c7.2,0,13.3-2.1,18.3-6.2c5-4.1,8.1-9.9,9.3-17.1l0.4-2.5l-17.8,0C57.3,443.6,54.8,452.5,46.9,452.5z M-109.6,417.1
	c4.2,0,7.6,1.6,10.2,4.8c1.3,1.6,2.2,3.9,2.8,6.8h-26.6c0.6-3.2,1.9-5.8,4-7.8C-116.6,418.4-113.4,417.1-109.6,417.1z M-4.1,440.3
	c0,3.9-0.3,6.9-1,8.7c-0.8,2.4-2.1,4.3-4,5.7c-1.9,1.4-4,2.2-6.5,2.2c-2.3,0-4-0.7-5.1-2c-1.1-1.3-1.5-2.7-1.5-4.6
	c0-1.2,0.2-2.3,0.7-3.3c0.5-1,1.1-1.7,2-2.2c0.7-0.4,2.3-1.1,5.8-1.8C-9.8,442.1-6.7,441.2-4.1,440.3L-4.1,440.3L-4.1,440.3
	L-4.1,440.3z"/>
<path class="st0" d="M-275.5,473.2c-26.6,0-48.2-21.6-48.2-48.2c0-26.6,21.6-48.2,48.2-48.2c26.6,0,48.2,21.6,48.2,48.2
	C-227.3,451.5-248.9,473.2-275.5,473.2z M-275.5,381.8c-23.8,0-43.2,19.4-43.2,43.2c0,23.8,19.4,43.2,43.2,43.2
	c23.8,0,43.2-19.4,43.2-43.2C-232.3,401.2-251.7,381.8-275.5,381.8z"/>
<path class="st0" d="M-279,384.8c-2.5,3.2-4.2,7.6-4.2,13.9c0,11.4,8,16.2,14.4,20c3.1,1.8,6,3.5,7.7,5.7c4.1,5.2,5.5,10.3,4.4,15.7
	c-1.7,7.7-8.3,14.6-14.7,19.6c2.3-7,1.9-15.5-5.1-23.9c-2.3-2.7-5.4-4.9-8.5-7c-6-4.1-11.7-8-11.7-16.2
	C-296.7,399.3-288.6,389.1-279,384.8 M-268.9,379.2c-14.6,0-31.1,13.4-31.1,33.3c0,14.6,14.7,17.8,21,25.3
	c14.4,17.2-3.6,33.1-3.6,33.1s44.9-22.6,24.2-48.7c-6.1-7.7-21.4-9-21.4-23.6c0-12.5,7.3-16.8,16.6-18.8
	C-265.1,379.4-267,379.2-268.9,379.2L-268.9,379.2z"/>
<path class="st0" d="M-269.3,416.5l19.9-28.7c0,0-11.7-12.9-27.2-3.5C-281,393.7-284.8,406.2-269.3,416.5
	C-268.5,414.8-269.3,416.5-269.3,416.5z"/>
<path class="st0" d="M-282.2,433.5l-19.9,28.7c0,0,12.4,16.9,27.2,3.5C-270.5,456.3-266.7,443.7-282.2,433.5
	C-283,435.1-282.2,433.5-282.2,433.5z"/>
</svg>
