<?xml version="1.0" encoding="utf-8"?>
<!-- Generator: Adobe Illustrator 21.0.2, SVG Export Plug-In . SVG Version: 6.00 Build 0)  -->
<svg version="1.1" id="Calque_1" xmlns="http://www.w3.org/2000/svg" xmlns:xlink="http://www.w3.org/1999/xlink" x="0px" y="0px"
	 viewBox="0 0 500 142" style="enable-background:new 0 0 500 142;" xml:space="preserve">
<style type="text/css">
	.st0{fill:#E5231B;}
</style>
<path class="st0" d="M475.5,62.8c-5.8-5.7-13.2-8.6-22.2-8.6c-8.1,0-15,2.4-20.7,7c-6.8,5.6-10.2,14.2-10.2,25.6
	c0,10.4,2.9,18.5,8.5,24.1c5.7,5.7,13.2,8.5,22.4,8.5c5.7,0,11-1.3,15.8-3.8c4.9-2.6,8.7-6.3,11.2-10.9s3.8-10.9,3.8-18.7
	C484.1,76.3,481.2,68.4,475.5,62.8z M462.6,99.9c-2.5,2.8-5.6,4.1-9.4,4.1c-3.8,0-6.9-1.3-9.4-4.1c-2.6-2.8-3.9-7.2-3.9-13.1
	s1.3-10.3,3.8-13s5.6-4.1,9.4-4.1c3.8,0,6.8,1.3,9.3,4.1c2.6,2.8,3.9,7.1,3.9,12.7C466.5,92.6,465.2,97.1,462.6,99.9z"/>
<path class="st0" d="M391.9,102.6c-3.7,0-11-1.8-11-15.8c0-13,7.1-15.7,10.7-15.7c8.2,0,9.9,7.1,9.9,7.1h17.8l-0.5-3.7
	c-1.3-6.4-4.3-11.4-8.9-15c-4.6-3.5-10.5-5.3-17.6-5.3c-5.6,0-10.8,1.3-15.6,3.8c-4.9,2.6-8.6,6.5-10.9,11.7
	c-2.3,5-3.4,10.8-3.4,17.4c0,6.3,1,11.7,3.1,16.3h-6.4c-0.1-2.6-0.2-6.4-0.2-11.8v-13c0-4.5-0.2-7.6-0.5-9.6
	c-0.7-3.1-1.9-5.7-3.6-7.7c-1.7-2.1-4.4-3.8-7.8-5.1c-3.3-1.3-7.7-1.9-12.9-1.9c-3.6,0-7,0.4-10.1,1.1h-23.1v0.3
	c-8.7-1.1-14.8,9.8-15.5,10.5V57h-17.7v47.8h-6.2c0.9-1.9,1.7-3.9,2.3-6h-15.9c-1.2,2.4-2.6,4.3-4.2,5.5c-2.1,1.6-4.6,2.3-7.7,2.3
	c-4.1,0-7.5-1.4-10.3-4.3c-2.3-2.4-3.8-5.9-4.4-10.4H264l0.1-2.4c0-1.2,0.1-2.1,0.1-2.7c0-10.1-2.7-18.2-8-23.9
	c-5.4-5.8-12.3-8.7-20.7-8.7c-4.6,0-8.8,0.9-12.6,2.6h-23.4v-2c0-3.8,0.3-5.5,1.6-6.6c2-1.7,16.2-1.1,16.2-1.1l0.1-14.1
	c0,0-23-1-27.5,2c-2.8,1.9-4.8,4.3-5.9,7.4c-0.8,2.2-1.2,5.3-1.2,9.5v4.9h-19.4c-0.3-0.1-0.7-0.3-1-0.5c-3.7-1.4-8-2.1-12.8-2.1
	c-3.2,0-6.3,0.4-9.2,1.3s-5.2,1.9-7,3.2c-2.3,1.7-4.2,3.8-5.6,6.3c-1.4,2.6-2.1,5.4-2.1,8.3c0,3.3,0.8,6.3,2.5,9s4.2,4.9,7.4,6.4
	c2.9,1.4,8,3,15.4,4.9c6.8,1.7,8.8,2.7,9.2,3c1.2,0.8,1.8,1.8,1.8,3.1c0,1.7-0.8,3.2-2.4,4.5c-1.7,1.4-4.5,2.2-8.4,2.2
	c-3.8,0-6.8-0.8-8.8-2.5s-3.2-4.1-3.7-7.3l-15-0.2l0.4,2.5c1.2,6.7,4,11.9,8.4,15.4s10.7,5.2,18.7,5.2c4.9,0,9.3-0.9,13.2-2.6
	c4-1.8,7.1-4.3,9.3-7.6c2.2-3.3,3.3-6.8,3.3-10.6c0-3.8-0.9-7.1-2.8-9.8c-1.8-2.6-4.3-4.6-7.5-6c-2.9-1.2-7.7-2.8-14.8-4.7
	c-4.7-1.3-7.6-2.1-8.4-2.4c-1.3-0.5-2.2-1.1-2.7-1.8c-0.5-0.6-0.7-1.2-0.7-1.9c0-0.8,0.2-1.9,1.9-3.3c1-0.8,3.2-1.7,8.1-1.7
	c3.2,0,5.7,0.7,7.3,2s2.5,1.9,2.9,4.2h14.5c-0.2-1.4-0.5-2.7-0.9-4h8.8v48.8h16.6V69.2h10.3c-2.5,5-3.8,11-3.8,18
	c0,10,2.7,17.9,8.1,23.6s12.8,8.6,21.9,8.6c3.6,0,6.9-0.5,9.9-1.4h21.8v0.1h17.8c0,0-0.7-35.1,0.3-38.2c0.6-1.8,6.9-11.9,14.1-7.9
	h2.9l0.1-0.3h4.1c-0.1,0.8-0.1,1.7-0.1,2.6h16.5c0.9-2.4,2.1-6.1,9-6.1c9.6,0,8.3,5.8,8.3,9c0,0.2,0,0.4,0,0.7
	c-3.6,1-5.5,1.2-12.1,2c-4,0.5-7,1-9.1,1.5c-2.9,0.8-5.5,2-7.8,3.5c-2.4,1.6-4.4,3.8-5.8,6.5c-1.5,2.7-2.2,5.7-2.2,8.9
	c0,5.5,2,10.1,5.9,13.7c3.9,3.5,9.3,4.5,16.3,4.6c7.9,0.1,12.8-4.4,15.5-6.3c0,0.2,0.1,0.4,0.1,0.6v5.1h22h18.9
	c3,0.9,6.2,1.3,9.6,1.3c7.2,0,13.3-2.1,18.3-6.2s8.1-9.9,9.3-17.1l0.4-2.5H402C402.3,93.7,399.8,102.6,391.9,102.6z M235.4,67.2
	c4.2,0,7.6,1.6,10.2,4.8c1.3,1.6,2.2,3.9,2.8,6.8h-26.6c0.6-3.2,1.9-5.8,4-7.8C228.4,68.5,231.6,67.2,235.4,67.2z M340.9,90.4
	c0,3.9-0.3,6.9-1,8.7c-0.8,2.4-2.1,4.3-4,5.7c-1.9,1.4-4,2.2-6.5,2.2c-2.3,0-4-0.7-5.1-2c-1.1-1.3-1.5-2.7-1.5-4.6
	c0-1.2,0.2-2.3,0.7-3.3s1.1-1.7,2-2.2c0.7-0.4,2.3-1.1,5.8-1.8C335.2,92.2,338.3,91.3,340.9,90.4L340.9,90.4L340.9,90.4L340.9,90.4z
	"/>
<path class="st0" d="M69.5,123.3c-26.6,0-48.2-21.6-48.2-48.2s21.6-48.2,48.2-48.2s48.2,21.6,48.2,48.2
	C117.7,101.6,96.1,123.3,69.5,123.3z M69.5,31.9c-23.8,0-43.2,19.4-43.2,43.2c0,23.8,19.4,43.2,43.2,43.2s43.2-19.4,43.2-43.2
	C112.7,51.3,93.3,31.9,69.5,31.9z"/>
<path class="st0" d="M66,34.9c-2.5,3.2-4.2,7.6-4.2,13.9c0,11.4,8,16.2,14.4,20c3.1,1.8,6,3.5,7.7,5.7c4.1,5.2,5.5,10.3,4.4,15.7
	c-1.7,7.7-8.3,14.6-14.7,19.6c2.3-7,1.9-15.5-5.1-23.9c-2.3-2.7-5.4-4.9-8.5-7c-6-4.1-11.7-8-11.7-16.2C48.3,49.4,56.4,39.2,66,34.9
	 M76.1,29.3C61.5,29.3,45,42.7,45,62.6c0,14.6,14.7,17.8,21,25.3c14.4,17.2-3.6,33.1-3.6,33.1s44.9-22.6,24.2-48.7
	c-6.1-7.7-21.4-9-21.4-23.6c0-12.5,7.3-16.8,16.6-18.8C79.9,29.5,78,29.3,76.1,29.3L76.1,29.3z"/>
<path class="st0" d="M75.7,66.6l19.9-28.7c0,0-11.7-12.9-27.2-3.5C64,43.8,60.2,56.3,75.7,66.6C76.5,64.9,75.7,66.6,75.7,66.6z"/>
<path class="st0" d="M62.8,83.6l-19.9,28.7c0,0,12.4,16.9,27.2,3.5C74.5,106.4,78.3,93.8,62.8,83.6C62,85.2,62.8,83.6,62.8,83.6z"/>
</svg>
