<?xml version="1.0" encoding="utf-8"?>
<!-- Generator: Adobe Illustrator 15.0.0, SVG Export Plug-In . SVG Version: 6.00 Build 0)  -->
<!DOCTYPE svg PUBLIC "-//W3C//DTD SVG 1.1//EN" "http://www.w3.org/Graphics/SVG/1.1/DTD/svg11.dtd">
<svg version="1.1" id="Calque_1" xmlns="http://www.w3.org/2000/svg" xmlns:xlink="http://www.w3.org/1999/xlink" x="0px" y="0px"
	 width="500px" height="500px" viewBox="0 0 500 500" enable-background="new 0 0 500 500" xml:space="preserve">
<g>
	<path fill="#E5231B" d="M475.477,241.788c-5.756-5.681-13.234-8.559-22.227-8.559c-8.07,0-15.033,2.362-20.691,7.021
		c-6.784,5.616-10.224,14.243-10.224,25.641c0,10.37,2.875,18.487,8.543,24.123c5.696,5.668,13.225,8.539,22.372,8.539
		c5.691,0,11.021-1.294,15.845-3.845c4.89-2.586,8.662-6.269,11.222-10.946c2.518-4.595,3.793-10.882,3.793-18.686
		C484.109,255.282,481.205,247.446,475.477,241.788z M462.599,278.938c-2.511,2.754-5.57,4.095-9.351,4.095
		c-3.815,0-6.895-1.331-9.405-4.071c-2.555-2.791-3.852-7.188-3.852-13.064s1.294-10.263,3.845-13.037
		c2.515-2.729,5.597-4.055,9.412-4.055c3.75,0,6.804,1.333,9.334,4.081c2.569,2.787,3.87,7.07,3.87,12.727
		C466.452,271.648,465.155,276.133,462.599,278.938z"/>
	<path fill="#E5231B" d="M391.908,281.652c-3.73,0-11.002-1.823-11.002-15.808c0-13.01,7.058-15.72,10.654-15.72
		c8.167,0,9.898,7.105,9.898,7.105l17.773,0.028l-0.51-3.747c-1.282-6.408-4.279-11.45-8.91-14.986
		c-4.597-3.517-10.53-5.298-17.633-5.298c-5.587,0-10.836,1.285-15.6,3.815c-4.88,2.599-8.562,6.531-10.939,11.696
		c-2.287,4.974-3.446,10.817-3.446,17.368c0,6.273,1.045,11.709,3.095,16.276h-6.357c-0.11-2.622-0.188-6.382-0.188-11.819V257.52
		c0-4.539-0.175-7.647-0.545-9.556c-0.665-3.056-1.858-5.652-3.559-7.715c-1.725-2.089-4.36-3.812-7.839-5.123
		c-3.344-1.258-7.681-1.898-12.895-1.898c-3.644,0-7.008,0.38-10.084,1.087h-23.07v0.308c-8.691-1.125-14.812,9.782-15.47,10.489
		v-9.224H267.6V283.7h-6.184c0.928-1.884,1.745-3.853,2.321-5.986l-15.93-0.022c-1.155,2.439-2.562,4.287-4.198,5.5
		c-2.114,1.568-4.633,2.332-7.698,2.332c-4.15,0-7.512-1.4-10.269-4.285c-2.343-2.449-3.833-5.926-4.441-10.354h42.729l0.074-2.414
		c0.036-1.197,0.057-2.094,0.057-2.688c0-10.136-2.692-18.17-8.008-23.876c-5.36-5.755-12.339-8.676-20.742-8.676
		c-4.64,0-8.831,0.883-12.582,2.576h-23.38v-1.956c0-3.799,0.324-5.513,1.629-6.645c1.972-1.713,16.229-1.09,16.229-1.09l0.14-14.12
		c0,0-23.013-0.977-27.481,1.999c-2.812,1.862-4.808,4.344-5.937,7.388c-0.798,2.177-1.188,5.286-1.188,9.5v4.925h-19.376
		c-0.347-0.149-0.66-0.318-1.023-0.458c-3.69-1.405-8.001-2.119-12.816-2.119c-3.233,0-6.315,0.429-9.162,1.272
		c-2.937,0.869-5.227,1.931-6.962,3.215c-2.329,1.658-4.201,3.784-5.562,6.311c-1.368,2.55-2.063,5.353-2.063,8.33
		c0,3.276,0.848,6.319,2.516,9.045c1.678,2.744,4.155,4.912,7.357,6.438c2.946,1.409,7.981,3.002,15.389,4.871
		c6.849,1.724,8.753,2.663,9.236,2.979c1.216,0.805,1.762,1.773,1.762,3.14c0,1.729-0.752,3.17-2.375,4.534
		c-1.699,1.433-4.524,2.158-8.396,2.158c-3.841,0-6.806-0.846-8.817-2.522c-2.005-1.664-3.206-4.067-3.663-7.346l-15.042-0.194
		l0.444,2.501c1.191,6.716,4.03,11.892,8.433,15.379c4.364,3.458,10.655,5.214,18.701,5.214c4.856,0,9.289-0.865,13.18-2.576
		c4.016-1.765,7.149-4.32,9.311-7.592c2.167-3.283,3.269-6.846,3.269-10.59c0-3.835-0.938-7.131-2.785-9.792
		c-1.82-2.624-4.345-4.643-7.504-6.005c-2.892-1.243-7.741-2.766-14.813-4.652c-4.721-1.287-7.56-2.108-8.367-2.408
		c-1.271-0.512-2.18-1.121-2.726-1.838c-0.451-0.576-0.662-1.172-0.662-1.887c0-0.759,0.198-1.92,1.914-3.251
		c1.006-0.778,3.229-1.706,8.096-1.706c3.205,0,5.654,0.658,7.277,1.956c1.589,1.272,2.526,1.862,2.872,4.205h14.493
		c-0.225-1.351-0.536-2.696-0.89-4.017h8.76v48.848h16.608V248.4h10.324c-2.516,4.968-3.816,10.966-3.816,17.98
		c0,10.006,2.729,17.944,8.108,23.597c5.411,5.691,12.775,8.575,21.89,8.575c3.614,0,6.938-0.454,9.947-1.355H267.6v0.052h17.75
		c0,0-0.658-35.072,0.348-38.223c0.568-1.752,6.853-11.939,14.106-7.909l2.92,0.02l0.124-0.312h4.146
		c-0.07,0.814-0.116,1.665-0.116,2.596l16.502-0.007c0.854-2.435,2.082-6.119,9.039-6.119c9.552,0,8.314,5.817,8.314,9.039
		c0,0.151-0.004,0.394-0.01,0.72c-3.561,1.026-5.505,1.172-12.114,1.965c-4.021,0.485-6.977,0.984-9.069,1.537
		c-2.866,0.799-5.481,1.991-7.771,3.545c-2.406,1.633-4.369,3.815-5.839,6.486c-1.486,2.696-2.238,5.707-2.238,8.948
		c0,5.528,1.991,10.145,5.924,13.725c3.863,3.513,9.348,4.507,16.3,4.597c7.853,0.104,12.849-4.399,15.534-6.334
		c0.042,0.16,0.078,0.363,0.104,0.595v5.133h22.04h18.889c2.962,0.858,6.178,1.305,9.643,1.305c7.177,0,13.334-2.096,18.309-6.231
		c4.965-4.127,8.079-9.869,9.27-17.068l0.415-2.532l-17.828,0.011C402.29,272.73,399.786,281.652,391.908,281.652z M235.423,246.256
		c4.221,0,7.556,1.554,10.209,4.764c1.313,1.569,2.242,3.859,2.771,6.836h-26.581c0.604-3.187,1.928-5.752,4.011-7.8
		C228.435,247.498,231.572,246.256,235.423,246.256z M340.854,269.368c0,3.92-0.327,6.854-0.974,8.709
		c-0.848,2.411-2.15,4.267-3.984,5.675c-1.858,1.432-4.029,2.154-6.462,2.154c-2.313,0-4.043-0.67-5.14-1.992
		c-1.059-1.27-1.549-2.748-1.549-4.65c0-1.226,0.229-2.302,0.7-3.291c0.468-0.979,1.127-1.721,2.022-2.248
		c0.727-0.437,2.326-1.098,5.773-1.778c3.934-0.77,7.108-1.648,9.61-2.667v0.089H340.854z"/>
</g>
<g>
	<g>
		<path fill="#E5231B" d="M69.506,302.261c-26.566,0-48.177-21.61-48.177-48.173c0-26.566,21.61-48.18,48.177-48.18
			c26.564,0,48.176,21.614,48.176,48.18C117.683,280.648,96.071,302.261,69.506,302.261z M69.506,210.891
			c-23.818,0-43.194,19.376-43.194,43.197c0,23.817,19.376,43.189,43.194,43.189c23.816,0,43.193-19.372,43.193-43.189
			C112.699,230.267,93.323,210.891,69.506,210.891z"/>
	</g>
	<g>
		<path fill="#E5231B" d="M65.986,213.882c-2.481,3.187-4.229,7.634-4.229,13.896c0,11.443,8,16.177,14.427,19.982
			c3.063,1.814,5.957,3.527,7.688,5.691c4.11,5.154,5.538,10.288,4.356,15.695c-1.684,7.729-8.341,14.61-14.674,19.606
			c2.287-7.034,1.943-15.541-5.097-23.938c-2.301-2.739-5.447-4.9-8.494-6.986c-6.019-4.131-11.702-8.027-11.702-16.21
			C48.258,228.434,56.395,218.227,65.986,213.882 M76.063,208.273c-14.596,0-31.127,13.354-31.127,33.346
			c0,14.578,14.678,17.824,20.973,25.333c14.396,17.166-3.599,33.086-3.599,33.086s44.92-22.633,24.155-48.659
			c-6.109-7.657-21.387-9.023-21.387-23.601c0-12.455,7.282-16.845,16.621-18.792C79.881,208.506,77.99,208.273,76.063,208.273
			L76.063,208.273z"/>
	</g>
	<path fill="#E5231B" d="M75.667,245.564l19.934-28.655c0,0-11.696-12.942-27.202-3.53
		C63.967,222.792,60.162,235.321,75.667,245.564C76.498,243.903,75.667,245.564,75.667,245.564z"/>
	<path fill="#E5231B" d="M62.792,262.592l-19.935,28.654c0,0,12.362,16.927,27.202,3.529
		C74.492,285.364,78.297,272.833,62.792,262.592C61.962,264.252,62.792,262.592,62.792,262.592z"/>
</g>
</svg>
