<?xml version="1.0" encoding="utf-8"?>
<!-- Generator: Adobe Illustrator 21.0.2, SVG Export Plug-In . SVG Version: 6.00 Build 0)  -->
<svg version="1.1" id="Calque_1" xmlns="http://www.w3.org/2000/svg" xmlns:xlink="http://www.w3.org/1999/xlink" x="0px" y="0px"
	 viewBox="0 0 500 170" style="enable-background:new 0 0 500 170;" xml:space="preserve">
<style type="text/css">
	.st0{fill:#11408B;}
</style>
<path class="st0" d="M17.4,105.2c4.1,2.3,12.9,5.2,19.4,5c9.4-0.2,13.7-4.9,13.5-11c-0.2-6.2-3.9-9.4-13.5-12.7
	c-13.2-4.4-19.4-11.2-19.7-19.9c-0.3-11.6,9-21.3,24.3-21.7c7.3-0.2,10.8,1,14.8,3.4v10.2c-2.9-1.7-8.1-4.1-14.8-3.9
	c-7.7,0.2-11.8,4.8-11.6,10.1c0.1,5.9,4.4,8.5,13.8,12C56,81,62.7,87.1,63,97.8c0.3,12.8-9.4,21.9-26.2,22.3
	c-7.9,0.2-14.3-1.4-19.4-4.2C17.4,115.8,17.4,105.2,17.4,105.2z"/>
<path class="st0" d="M73.5,12.3l11.7-0.6v47.2l0.3-1.3c1.8-3.7,3.9-6.5,7.3-8.7c3.3-2.2,7.2-3.6,11.3-3.6c8.2,0,21.3,5.9,21.3,30.6
	V120H113V78.7c0-11.6-2.2-21.2-12.7-21.2c-7.2,0-12.1,5.3-14.3,12.3c-0.6,1.9-0.8,3.9-0.8,6.2v43.4L73.5,120V12.3L73.5,12.3z"/>
<path class="st0" d="M198.1,82.4c0,26.6-15.7,38.2-30.3,38.2c-16.3,0-29.1-14.3-29.1-37c0-23.9,13.4-38,30.1-38
	C186.3,45.5,198.1,60.5,198.1,82.4z M150,83.1c0,15.7,7.5,27.6,18.3,27.6c10.5,0,18.5-11.7,18.5-27.9c0-12.2-5.1-27.5-18.2-27.5
	C155.6,55.3,150,69.6,150,83.1z"/>
<path class="st0" d="M210.4,70.5c0-9.2-0.2-16.6-0.5-23.5h11l0.1,12.3h0.2c4.3-8.8,10.6-13.8,20.3-13.8c14.6,0,24,14.7,24,36.4
	c0,25.8-11.8,38.6-25.9,38.6c-7.9,0-13.9-4.2-17.5-11.3H222v51.4h-11.6V70.5L210.4,70.5z M222,89.6c0,1.9,0.1,3.7,0.5,5.3
	c2,9.1,7.6,15.3,15.4,15.3c11.5,0,16.8-11.3,16.8-27.8c0-14.3-4.9-26.6-16.4-26.6c-7.4,0-13.6,6.2-15.5,16c-0.4,1.6-0.7,3.6-0.7,5.2
	L222,89.6L222,89.6z"/>
<path class="st0" d="M303.9,25.4L285.5,31v15.4h-11.1v12.4h11.1v36.4c0,9.2,1.7,15.6,5.4,19.7c3.5,3.8,8.8,5.9,15,5.9
	c5.9,0,10-1.2,12-1.8l0.9-0.3l-0.7-12.4l-1.5,0.5c-2,0.6-4,0.8-7.2,0.8c-6,0-5.5-3.8-5.5-12.8V58.9h15.6V46.5H304L303.9,25.4
	L303.9,25.4z"/>
<path class="st0" d="M359.9,44.3c-18.6,0-31.6,16.4-31.6,39.8c0,22.8,13,37.6,33.1,37.6c10.6,0,17.9-2.6,22.2-4.7l0,0v-15.4
	c0,0-6.7,6.6-20.7,6.6c-6.2,0-18.6-4.2-18.6-20.8h42.9l0.2-1c0.3-1.6,0.4-4.6,0.4-7.3C387.9,63.1,380.6,44.3,359.9,44.3z
	 M358.8,56.1c3.6,0,6.5,1.5,8.7,4.4c3.3,4.5,3.9,11.1,3.9,14.3h-26.5C346,65.9,350.1,56.1,358.8,56.1z"/>
<path class="st0" d="M449.1,105c-3.3,1.6-7.6,3.2-13.9,3.2c-10,0-18-10.1-18-25.2c0-12.7,3.4-25.4,18.4-25.4c4.9,0,9.3,1.1,13.1,3.2
	l1.2,0.7l3.3-12l-0.8-0.5c-3.1-1.8-9.3-3.9-16.7-3.9c-21,0-35.6,15.9-35.6,38.7c0,22.2,13.3,37.1,33.1,37.1c8.1,0,15.1-2.2,18.9-4.2
	l0.8-0.4l-2.5-11.9L449.1,105z"/>
<path class="st0" d="M474.8,39v-0.2c1.5-0.5,2.7-1.5,2.7-3.1c0-1.3-0.6-2.2-1.4-2.8c-0.8-0.6-1.9-1-4.4-1c-2.1,0-3.8,0.2-5,0.4v13h3
	l0.1-5.1h1.4c1.7,0,2.5,0.6,2.7,2c0.4,1.6,0.6,2.7,1,3.2h3.2c-0.3-0.5-0.6-1.2-1-3.2C476.7,40.4,476.1,39.4,474.8,39z M471.2,38
	h-1.4l-0.1-3.7c0.4-0.1,0.9-0.2,1.7-0.2c1.9,0,2.8,0.8,2.8,2C474.2,37.4,472.9,38,471.2,38z"/>
<path class="st0" d="M472,25.6c-7.5,0-13.5,5.7-13.5,13c0,7.3,5.9,13.1,13.4,13.1c7.4,0,13.3-5.8,13.3-13.1
	C485.2,31.2,479.3,25.5,472,25.6z M471.9,49c-5.8,0-10.2-4.6-10.2-10.4c0-5.8,4.4-10.5,10-10.4c5.8,0,10.1,4.7,10.1,10.5
	C481.8,44.4,477.5,49.1,471.9,49z"/>
</svg>
