<?xml version="1.0" encoding="utf-8"?>
<!-- Generator: Adobe Illustrator 21.0.2, SVG Export Plug-In . SVG Version: 6.00 Build 0)  -->
<svg version="1.1" id="Calque_1" xmlns="http://www.w3.org/2000/svg" xmlns:xlink="http://www.w3.org/1999/xlink" x="0px" y="0px"
	 viewBox="0 0 500 352" style="enable-background:new 0 0 500 352;" xml:space="preserve">
<style type="text/css">
	.st0{fill:#FFDC00;}
	.st1{fill:#1D1D1B;}
</style>
<polygon class="st0" points="285,136.8 482.9,136.8 385,295.5 "/>
<path d="M280.6,132.8c-3.3,1.5-6.8,2.6-10.4,3.3c-3.6,0.7-7.5,1.1-11.8,1.1c-10,0-18.4-3.1-25.2-9.2c-6.8-6.2-10.2-14-10.2-23.6
	c0-7.7,1.7-13.9,5.2-18.8c3.4-4.9,8.3-8.7,14.7-11.5c6.3-2.8,14-4.8,23.3-6c9.3-1.2,18.9-2.1,28.9-2.6v-0.6c0-5.8-2.4-9.8-7.1-12
	c-4.8-2.2-11.8-3.3-21-3.3c-5.6,0-11.5,1-17.9,2.9c-6.3,1.9-10.9,3.4-13.6,4.5h-3.1V34.1h-33.7v13.6h-32.8V34.1h-28
	c0.4,0.2,1,0.3,1.4,0.5v23.9h-2.9c-4.2-3.3-9.3-6.1-15.4-8.3c-6.1-2.2-12.3-3.4-18.6-3.4c-2.2,0-4.5,0.2-6.7,0.5s-4.3,0.9-6.4,1.7
	c-1.8,0.7-3.4,1.8-4.7,3.2c-1.3,1.4-2,3-2,4.9c0,2.8,1,4.9,3.1,6.3c2.1,1.5,6,2.8,11.9,4c3.8,0.8,7.5,1.6,11,2.3
	c3.5,0.7,7.3,1.8,11.3,3.1c7.9,2.6,13.8,6.2,17.6,10.7s5.7,10.3,5.7,17.5c0,10.2-4.3,18.6-13,25c-8.6,6.4-20.4,9.6-35.2,9.6
	c-2.8,0-5.4-0.1-8-0.3l99.5,158.2l102.1-165.6c-0.2,0.2-0.4,0.3-0.6,0.4C285.5,130.1,283,131.7,280.6,132.8z M197.9,135h-31.2V58.6
	h31.2V135z"/>
<path d="M328.6,63v0.2l18-29.1h-32.9c0.7,0.4,1.4,0.8,2.1,1.2C324.4,41.2,328.6,50.5,328.6,63z"/>
<path d="M96.1,116.3c1.6,0,3.8-0.1,6.4-0.4c2.6-0.3,4.8-0.7,6.5-1.4c2-0.8,3.7-1.9,5-3.2c1.3-1.3,2-3.1,2-5.6c0-2.3-1-4.3-2.9-5.9
	c-1.9-1.7-4.7-2.9-8.5-3.8c-3.9-0.9-8-1.8-12.4-2.6c-4.3-0.8-8.4-1.8-12.2-3.1c-8.7-2.8-15-6.7-18.8-11.6s-5.8-10.9-5.8-18.1
	c0-9.7,4.3-17.6,13-23.7c1.5-1,3.1-1.9,4.7-2.7H23.6L72,111.1c1.4,0.6,2.9,1.2,4.4,1.7C83.2,115.2,89.8,116.3,96.1,116.3z"/>
<path d="M268,88.8c-3.4,1.1-6,2.6-7.8,4.6c-1.8,2-2.7,4.7-2.7,8c0,2.2,0.2,4,0.6,5.3c0.4,1.4,1.3,2.7,2.8,3.9
	c1.4,1.2,3.2,2.2,5.2,2.8c2,0.6,5.1,0.9,9.4,0.9c3.4,0,6.8-0.7,10.3-2.1s6.5-3.2,9.2-5.4V84.9c-4.6,0.4-9.5,0.9-14.9,1.5
	C274.8,87.2,270.8,88,268,88.8z"/>
<path class="st0" d="M130.4,125.9c8.7-6.4,13-14.7,13-25c0-7.2-1.9-13-5.7-17.5s-9.7-8-17.6-10.7c-4.1-1.3-7.8-2.3-11.3-3.1
	c-3.5-0.7-7.2-1.5-11-2.3c-5.8-1.2-9.8-2.5-11.9-4s-3.1-3.6-3.1-6.3c0-1.8,0.6-3.4,2-4.9c1.3-1.4,2.9-2.5,4.7-3.2
	c2-0.8,4.2-1.4,6.4-1.7c2.2-0.3,4.4-0.5,6.7-0.5c6.3,0,12.5,1.1,18.6,3.4c6.1,2.2,11.2,5,15.4,8.3h2.9V34.5c-0.4-0.2-1-0.3-1.4-0.5
	H73.3c-1.6,0.9-3.2,1.7-4.7,2.7c-8.7,6.1-13,14-13,23.7c0,7.2,1.9,13.3,5.8,18.1c3.8,4.9,10.1,8.7,18.8,11.6
	c3.8,1.3,7.9,2.3,12.2,3.1c4.4,0.8,8.5,1.7,12.4,2.6c3.7,0.9,6.5,2.2,8.5,3.8c1.9,1.7,2.9,3.6,2.9,5.9c0,2.5-0.7,4.4-2,5.6
	c-1.3,1.3-3,2.3-5,3.2c-1.7,0.7-3.8,1.1-6.5,1.4c-2.6,0.3-4.8,0.4-6.4,0.4c-6.3,0-12.9-1.2-19.7-3.6c-1.5-0.5-2.9-1.1-4.4-1.7
	L87.4,135c2.5,0.2,5.2,0.3,8,0.3C110,135.5,121.8,132.3,130.4,125.9z"/>
<rect x="165.9" y="34.1" class="st0" width="32.8" height="13.6"/>
<rect x="166.7" y="58.6" class="st0" width="31.2" height="76.4"/>
<path class="st0" d="M328.6,63c0-12.6-4.3-21.8-12.8-27.7c-0.6-0.4-1.4-0.8-2.1-1.2h-81.3v22.8h3.1c2.8-1,7.3-2.5,13.6-4.5
	c6.3-1.9,12.3-2.9,17.9-2.9c9.3,0,16.3,1.1,21,3.3c4.8,2.2,7.1,6.2,7.1,12v0.6c-10,0.6-19.6,1.4-28.9,2.6c-9.3,1.2-17.1,3.2-23.3,6
	c-6.3,2.8-11.2,6.6-14.7,11.5s-5.2,11.1-5.2,18.8c0,9.6,3.4,17.5,10.2,23.6c6.8,6.2,15.2,9.2,25.2,9.2c4.3,0,8.2-0.4,11.8-1.1
	c3.6-0.7,7-1.8,10.4-3.3c2.4-1.1,4.9-2.6,7.6-4.6c0.2-0.2,0.4-0.3,0.6-0.4l39.8-64.5V63L328.6,63z M295,106.9
	c-2.6,2.2-5.7,4.1-9.2,5.4c-3.5,1.4-6.9,2.1-10.3,2.1c-4.3,0-7.4-0.3-9.4-0.9s-3.7-1.5-5.2-2.8c-1.5-1.2-2.5-2.6-2.8-3.9
	c-0.4-1.4-0.6-3.1-0.6-5.3c0-3.3,0.9-6,2.7-8c1.8-2,4.4-3.6,7.8-4.6c2.8-0.9,6.8-1.6,12.1-2.3c5.3-0.7,10.3-1.2,14.9-1.5V106.9z"/>
<path class="st1" d="M67.5,321.7h-5.3l-2.1-5.5h-9.8l-2,5.5H43l9.4-24.4h5.3L67.5,321.7z M58.5,312.1L55,303l-3.3,9.1H58.5z"/>
<path class="st1" d="M89.8,297.4h9.7c1.9,0,3.4,0.1,4.3,0.2c0.9,0.2,1.8,0.5,2.5,1s1.4,1.2,1.9,2.1c0.5,0.9,0.8,1.8,0.8,2.9
	c0,1.1-0.3,2.2-0.9,3.2c-0.6,1-1.4,1.7-2.5,2.1c1.5,0.4,2.6,1.2,3.4,2.2c0.8,1,1.2,2.2,1.2,3.6c0,1.1-0.3,2.2-0.8,3.2
	s-1.2,1.9-2.1,2.5c-0.9,0.6-2,1-3.3,1.1c-0.8,0.1-2.8,0.1-5.9,0.2h-8.3L89.8,297.4L89.8,297.4z M94.7,301.5v5.6h3.2
	c1.9,0,3.1,0,3.6-0.1c0.8-0.1,1.5-0.4,2-0.9s0.7-1.1,0.7-1.9c0-0.8-0.2-1.4-0.6-1.8c-0.4-0.5-1-0.8-1.9-0.9c-0.5,0-1.9-0.1-4.2-0.1
	h-2.8V301.5z M94.7,311.2v6.4h4.6c1.8,0,2.9-0.1,3.4-0.1c0.7-0.1,1.3-0.5,1.8-1s0.7-1.2,0.7-2c0-0.7-0.2-1.3-0.5-1.8
	c-0.4-0.5-0.9-0.9-1.5-1.1c-0.7-0.2-2.1-0.3-4.4-0.3L94.7,311.2L94.7,311.2z"/>
<path class="st1" d="M134.1,321.7v-24.4h10.3c2.6,0,4.5,0.2,5.6,0.7c1.2,0.4,2.1,1.2,2.8,2.3s1.1,2.4,1.1,3.8c0,1.8-0.5,3.3-1.6,4.5
	s-2.7,1.9-4.8,2.3c1.1,0.6,1.9,1.3,2.6,2.1c0.7,0.7,1.6,2.1,2.8,4l3,4.8H150l-3.5-5.3c-1.3-1.9-2.1-3.1-2.6-3.6s-1-0.8-1.5-1
	s-1.3-0.3-2.5-0.3h-1v10.2L134.1,321.7L134.1,321.7z M139,307.7h3.6c2.4,0,3.8-0.1,4.4-0.3c0.6-0.2,1-0.5,1.4-1
	c0.3-0.5,0.5-1.1,0.5-1.8c0-0.8-0.2-1.5-0.6-2c-0.4-0.5-1.1-0.8-1.9-1c-0.4,0-1.6-0.1-3.6-0.1H139L139,307.7L139,307.7z"/>
<path class="st1" d="M200.3,321.7H195l-2.1-5.5h-9.8l-2,5.5h-5.3l9.4-24.4h5.2L200.3,321.7z M191.4,312.1l-3.5-9.1l-3.3,9.1H191.4z"
	/>
<path class="st1" d="M221.4,313.8l4.8-0.5c0.3,1.6,0.9,2.8,1.8,3.5c0.9,0.8,2.1,1.1,3.6,1.1c1.6,0,2.8-0.3,3.6-1
	c0.8-0.7,1.2-1.5,1.2-2.4c0-0.6-0.2-1.1-0.5-1.5c-0.3-0.4-0.9-0.8-1.8-1c-0.6-0.2-1.9-0.6-3.9-1.1c-2.6-0.7-4.5-1.5-5.5-2.4
	c-1.5-1.3-2.2-3-2.2-4.9c0-1.2,0.3-2.4,1.1-3.5c0.7-1.1,1.7-1.9,3-2.5c1.3-0.6,2.9-0.8,4.8-0.8c3.1,0,5.4,0.7,6.9,2s2.3,3.1,2.4,5.3
	l-4.9,0.2c-0.2-1.2-0.7-2.1-1.4-2.7c-0.7-0.5-1.7-0.8-3.1-0.8s-2.5,0.3-3.3,0.9c-0.5,0.4-0.8,0.9-0.8,1.5s0.2,1.1,0.7,1.5
	c0.6,0.5,2.1,1.1,4.5,1.6c2.4,0.6,4.1,1.1,5.3,1.8c1.1,0.6,2,1.4,2.7,2.5c0.6,1.1,1,2.3,1,3.9c0,1.4-0.4,2.7-1.2,3.9
	s-1.9,2.1-3.3,2.7c-1.4,0.6-3.2,0.9-5.3,0.9c-3.1,0-5.4-0.7-7.1-2.1C222.7,318.6,221.7,316.5,221.4,313.8z"/>
<path class="st1" d="M264.9,321.7v-24.4h4.9v24.4H264.9z"/>
<path class="st1" d="M300.3,321.7l-8.6-24.4h5.3l6.1,18l6-18h5.2l-8.7,24.4H300.3z"/>
<path class="st1" d="M336.6,321.7v-24.4h18.1v4.1h-13.2v5.4h12.3v4.1h-12.3v6.6h13.6v4.1L336.6,321.7L336.6,321.7z"/>
<path class="st1" d="M377.7,313.8l4.8-0.5c0.3,1.6,0.9,2.8,1.8,3.5c0.9,0.8,2.1,1.1,3.6,1.1c1.6,0,2.8-0.3,3.6-1s1.2-1.5,1.2-2.4
	c0-0.6-0.2-1.1-0.5-1.5c-0.3-0.4-0.9-0.8-1.8-1c-0.6-0.2-1.9-0.6-3.9-1.1c-2.6-0.7-4.5-1.5-5.6-2.4c-1.5-1.3-2.2-3-2.2-4.9
	c0-1.2,0.3-2.4,1.1-3.5c0.7-1.1,1.7-1.9,3-2.5c1.3-0.6,2.9-0.8,4.8-0.8c3.1,0,5.3,0.7,6.9,2c1.5,1.3,2.3,3.1,2.4,5.3l-4.9,0.2
	c-0.2-1.2-0.7-2.1-1.4-2.7c-0.7-0.5-1.7-0.8-3.1-0.8s-2.5,0.3-3.3,0.9c-0.5,0.4-0.8,0.9-0.8,1.5s0.3,1.1,0.7,1.5
	c0.6,0.5,2.1,1.1,4.5,1.6c2.4,0.6,4.2,1.1,5.3,1.8c1.1,0.6,2,1.4,2.7,2.5c0.6,1.1,1,2.3,1,3.9c0,1.4-0.4,2.7-1.2,3.9
	c-0.8,1.2-1.9,2.1-3.3,2.7c-1.4,0.6-3.2,0.9-5.3,0.9c-3.1,0-5.4-0.7-7.1-2.1C379,318.6,378.1,316.5,377.7,313.8z"/>
</svg>
