<?xml version="1.0" encoding="utf-8"?>
<!-- Generator: Adobe Illustrator 15.0.0, SVG Export Plug-In . SVG Version: 6.00 Build 0)  -->
<!DOCTYPE svg PUBLIC "-//W3C//DTD SVG 1.1//EN" "http://www.w3.org/Graphics/SVG/1.1/DTD/svg11.dtd">
<svg version="1.1" id="Calque_1" xmlns="http://www.w3.org/2000/svg" xmlns:xlink="http://www.w3.org/1999/xlink" x="0px" y="0px"
	 width="500px" height="500px" viewBox="0 0 500 500" enable-background="new 0 0 500 500" xml:space="preserve">
<path fill="#0857B5" d="M123.237,176.526h25.591v66.091c0,0,0.147,5.433,5.729,5.433c0,2.645,0,4.994,0,4.994h-25.555v-65.356
	c0,0-1.542-6.608-5.801-6.608L123.237,176.526z"/>
<path fill="#0857B5" d="M233.79,253.044h26.95c0,0,0-3.158,0-5.948c-5.507,0-7.856-4.773-7.856-4.773l-28.787-65.797h-29.629
	l-0.037,4.553c4.259,0,4.92,2.203,4.92,3.672c0,0,0.048,0.931-0.735,2.889c-0.782,1.957-30.842,65.306-30.842,65.306h26.631V248
	c0,0-3.72,0.587-4.55-1.663c-0.831-2.252,20.437-52.187,20.437-52.187L233.79,253.044z"/>
<path fill="#0857B5" d="M321.297,253.338h-8.42l-25.162-54.145c0,0-3.527,36.716-3.917,41.905c-0.391,5.191,6.95,8.421,6.95,8.421
	l-1.567,3.72h-21.735c0,0,7.441-66.58,7.441-69.418c0-2.839-5.581-2.546-5.581-2.546v-4.798h32.116l19.385,46.703l23.939-46.654
	h24.674l6.414,63.69c0,0,0.884,6.953,6.659,6.953c0,3.622,0,6.364,0,6.364h-26.436l-4.406-57.18l-26.534,56.985H321.297z"/>
<path fill="#0857B5" d="M425.816,176.232l-31.576,0.147v5.19c0,0,5.09-0.586,5.09,5.777s0.003,56.982,0.003,58.158
	s-1.175,7.834-1.175,7.834h27.707v-5.093c0,0-6.559-0.488-6.559-6.069c0-5.581,0-16.842,0-16.842s44.695,5.827,44.695-24.135
	C464.002,174.323,431.251,176.232,425.816,176.232z M432.278,214.564h-12.776v-25.995c18.651-7.637,24.673,6.902,24.673,12.631
	C444.175,206.927,438.007,214.564,432.278,214.564z"/>
<path fill="#0857B5" d="M112.848,227.685c-0.002,9.007-9.205,40.339-59.138,24.086c1.762-7.637,2.742-12.729,2.742-12.729
	s5.09,4.896,20.168,4.896c15.08,0,17.429-8.814,17.429-10.771c0-1.958-2.35-8.027-19.386-11.944
	c-17.037-3.917-21.444-14.295-21.444-24.135c0-8.078,14.98-33.631,55.32-19.925c0,10.378,0,16.644,0,16.644s-3.13,1.959-4.796-0.488
	c-1.666-2.447-3.034-5.873-7.93-6.559c-4.897-0.687-23.205-1.665-23.205,7.44c0,9.106,11.453,9.938,19.383,12.288
	C99.921,208.836,112.85,213.635,112.848,227.685z"/>
<rect x="19.049" y="281.536" fill="#00A439" width="464.488" height="10.965"/>
<g>
	<path fill="#0857B5" d="M64.546,313.07c1.842,3.503,3.77,7.096,5.783,10.782c0.259-0.496,0.64-1.21,1.136-2.14
		c0.496-0.928,1.071-1.992,1.726-3.195c0.652-1.202,1.352-2.5,2.095-3.897c0.745-1.397,1.503-2.816,2.274-4.253
		s1.535-2.849,2.292-4.236c0.76-1.383,1.464-2.675,2.118-3.877h0.51c0.287,2.505,0.556,4.931,0.803,7.269
		c0.248,2.341,0.503,4.641,0.764,6.899c0.262,2.262,0.523,4.497,0.785,6.704c0.262,2.208,0.549,4.396,0.863,6.563
		c-0.314-0.051-0.622-0.078-0.922-0.078s-0.608,0-0.921,0c-0.314,0-0.622,0-0.922,0c-0.3,0-0.605,0.027-0.919,0.078
		c-0.288-3.475-0.577-6.846-0.863-10.11c-0.287-3.268-0.64-6.6-1.058-9.996H80.01c-1.804,3.291-3.576,6.565-5.313,9.817
		c-1.737,3.253-3.389,6.658-4.958,10.211h-0.351c-1.57-3.289-3.208-6.591-4.92-9.895c-1.712-3.308-3.43-6.685-5.154-10.134h-0.078
		c-0.184,1.62-0.388,3.378-0.608,5.273c-0.223,1.894-0.425,3.762-0.608,5.604c-0.184,1.843-0.339,3.58-0.47,5.214
		c-0.131,1.635-0.195,2.974-0.195,4.016c-0.42-0.051-0.877-0.078-1.373-0.078c-0.498,0-0.955,0.027-1.372,0.078
		c0.34-2.115,0.693-4.35,1.058-6.701s0.718-4.718,1.058-7.095c0.339-2.377,0.654-4.723,0.941-7.036
		c0.287-2.312,0.537-4.516,0.746-6.604h0.666C60.881,305.961,62.703,309.569,64.546,313.07z"/>
	<path fill="#0857B5" d="M89.788,315.912c0.562-1.24,1.299-2.247,2.215-3.018c0.916-0.769,1.941-1.334,3.077-1.687
		c1.136-0.352,2.268-0.527,3.392-0.527c1.149,0,2.286,0.176,3.41,0.527c1.123,0.353,2.142,0.918,3.057,1.687
		c0.916,0.771,1.653,1.777,2.215,3.018c0.562,1.243,0.844,2.751,0.844,4.53c0,1.775-0.282,3.285-0.844,4.525
		c-0.562,1.243-1.299,2.248-2.215,3.02c-0.915,0.771-1.934,1.312-3.057,1.624c-1.124,0.314-2.261,0.474-3.41,0.474
		c-1.124,0-2.256-0.159-3.392-0.474c-1.136-0.312-2.162-0.854-3.077-1.624c-0.916-0.771-1.652-1.776-2.215-3.02
		c-0.562-1.24-0.842-2.75-0.842-4.525C88.946,318.663,89.226,317.155,89.788,315.912z M92.688,323.616
		c0.197,1.018,0.53,1.927,1,2.724c0.471,0.798,1.097,1.432,1.882,1.9c0.783,0.472,1.749,0.706,2.9,0.706
		c1.149,0,2.116-0.234,2.901-0.706c0.782-0.469,1.411-1.103,1.882-1.9c0.47-0.797,0.803-1.706,0.998-2.724
		c0.197-1.021,0.293-2.078,0.293-3.174c0-1.1-0.096-2.157-0.293-3.177c-0.195-1.019-0.528-1.928-0.998-2.726
		c-0.471-0.795-1.1-1.43-1.882-1.9c-0.785-0.471-1.751-0.707-2.901-0.707c-1.151,0-2.118,0.236-2.9,0.707
		c-0.785,0.471-1.411,1.105-1.882,1.9c-0.47,0.798-0.803,1.707-1,2.726c-0.195,1.02-0.293,2.077-0.293,3.177
		C92.395,321.538,92.494,322.596,92.688,323.616z"/>
	<path fill="#0857B5" d="M123.989,314.228c-0.757-1.005-1.801-1.51-3.135-1.51c-1.829,0-3.169,0.564-4.018,1.687
		c-0.85,1.122-1.273,2.706-1.273,4.744v3.332c0,1.174,0.018,2.409,0.06,3.703c0.039,1.294,0.122,2.464,0.254,3.506
		c-0.604-0.051-1.191-0.078-1.765-0.078c-0.576,0-1.164,0.027-1.765,0.078c0.131-1.042,0.216-2.212,0.254-3.506
		c0.039-1.294,0.06-2.529,0.06-3.703v-4.078c0-1.178-0.021-2.412-0.06-3.704c-0.039-1.294-0.124-2.504-0.254-3.626
		c0.732,0.131,1.319,0.194,1.765,0.194c0.208,0,0.436-0.018,0.686-0.059c0.248-0.037,0.541-0.084,0.881-0.136
		c-0.078,1.044-0.117,2.09-0.117,3.137h0.078c0.735-1.124,1.613-1.993,2.635-2.606c1.021-0.615,2.242-0.922,3.658-0.922
		c0.731,0,1.473,0.104,2.221,0.312c0.746,0.211,1.42,0.568,2.024,1.078c0.603,0.509,1.094,1.203,1.476,2.08
		c0.378,0.876,0.569,1.991,0.569,3.35c0,1.124-0.025,2.281-0.078,3.47c-0.053,1.188-0.078,2.451-0.078,3.781v2.547
		c0,0.42,0.006,0.831,0.019,1.237c0.013,0.406,0.034,0.791,0.06,1.154c-0.531-0.051-1.084-0.078-1.666-0.078
		c-0.556,0-1.097,0.027-1.627,0.078c0.053-1.358,0.113-2.753,0.177-4.192c0.064-1.437,0.098-2.912,0.098-4.431v-2.392
		C125.127,316.714,124.749,315.232,123.989,314.228z"/>
	<path fill="#0857B5" d="M137.749,311.15c0.991-0.314,2.01-0.47,3.057-0.47c0.94,0,1.804,0.137,2.591,0.412
		c0.785,0.273,1.455,0.665,2.013,1.175c0.555,0.51,0.991,1.124,1.31,1.841c0.317,0.72,0.475,1.51,0.475,2.373
		c0,1.491-0.025,2.975-0.078,4.448c-0.053,1.477-0.078,3.037-0.078,4.684c0,0.314,0.007,0.648,0.021,1.001
		c0.012,0.354,0.071,0.666,0.175,0.941c0.105,0.274,0.254,0.502,0.452,0.685c0.195,0.183,0.489,0.273,0.881,0.273
		c0.131,0,0.268-0.004,0.413-0.018c0.143-0.013,0.28-0.059,0.411-0.138v0.863c-0.287,0.132-0.647,0.233-1.078,0.312
		c-0.432,0.077-0.909,0.12-1.43,0.12c-0.849,0-1.499-0.217-1.951-0.648c-0.449-0.432-0.713-0.987-0.793-1.666
		c-0.939,0.94-1.864,1.635-2.774,2.076c-0.911,0.443-2.031,0.669-3.357,0.669c-0.652,0-1.292-0.093-1.917-0.275
		c-0.624-0.185-1.177-0.483-1.659-0.902c-0.482-0.418-0.872-0.92-1.173-1.508c-0.298-0.589-0.45-1.262-0.45-2.02
		c0-1.569,0.489-2.784,1.467-3.646c0.975-0.86,2.325-1.437,4.043-1.723c1.405-0.236,2.506-0.438,3.301-0.61
		c0.794-0.168,1.381-0.346,1.757-0.528c0.376-0.184,0.606-0.398,0.684-0.647c0.078-0.247,0.117-0.568,0.117-0.959
		c0-0.651-0.078-1.279-0.234-1.881c-0.158-0.602-0.406-1.125-0.746-1.571c-0.339-0.442-0.784-0.803-1.333-1.075
		c-0.549-0.273-1.214-0.412-1.999-0.412c-1.044,0-2.019,0.234-2.918,0.706c-0.902,0.47-1.577,1.122-2.02,1.959h-0.431v-2.036
		C135.67,312.065,136.755,311.464,137.749,311.15z M142.636,320.322c-0.587,0.105-1.177,0.216-1.776,0.336
		c-0.599,0.114-1.188,0.265-1.773,0.449c-0.588,0.183-1.106,0.431-1.561,0.742c-0.457,0.315-0.819,0.708-1.092,1.178
		c-0.273,0.471-0.411,1.072-0.411,1.803c0,1.229,0.352,2.155,1.053,2.786c0.703,0.624,1.483,0.94,2.341,0.94
		c0.989,0,1.891-0.276,2.713-0.827c0.817-0.545,1.447-1.188,1.891-1.918l0.156-5.88C143.733,320.088,143.22,320.22,142.636,320.322z
		"/>
	<path fill="#0857B5" d="M153.271,316.051c0.576-1.229,1.326-2.241,2.253-3.04c0.93-0.795,1.994-1.384,3.197-1.762
		c1.2-0.379,2.43-0.568,3.683-0.568c1.437,0,2.724,0.176,3.863,0.527c1.136,0.353,1.953,0.752,2.448,1.197
		c-0.181,0.391-0.347,0.804-0.489,1.235c-0.144,0.431-0.269,0.88-0.372,1.351h-0.315c-0.184-0.339-0.431-0.686-0.745-1.039
		c-0.312-0.354-0.687-0.679-1.116-0.978c-0.431-0.303-0.908-0.551-1.432-0.746s-1.097-0.296-1.726-0.296
		c-1.175,0-2.187,0.216-3.036,0.646c-0.851,0.432-1.542,1.028-2.079,1.785c-0.535,0.758-0.927,1.653-1.175,2.687
		c-0.248,1.032-0.372,2.147-0.372,3.35c0,2.693,0.573,4.723,1.723,6.095c1.15,1.373,2.836,2.062,5.058,2.062
		c0.521,0,1.058-0.073,1.606-0.217c0.549-0.145,1.083-0.339,1.606-0.59c0.523-0.247,1.014-0.541,1.471-0.88
		c0.457-0.341,0.856-0.706,1.196-1.1l0.195,0.119c-0.13,0.627-0.208,1.267-0.234,1.918c-0.785,0.63-1.758,1.167-2.921,1.608
		c-1.163,0.443-2.37,0.669-3.625,0.669c-1.125,0-2.254-0.166-3.39-0.491c-1.138-0.327-2.164-0.878-3.077-1.648
		c-0.916-0.769-1.655-1.769-2.215-2.997c-0.562-1.229-0.844-2.73-0.844-4.506C152.408,318.743,152.697,317.279,153.271,316.051z"/>
	<path fill="#0857B5" d="M172.576,315.912c0.562-1.24,1.299-2.247,2.215-3.018c0.916-0.769,1.941-1.334,3.077-1.687
		c1.136-0.352,2.268-0.527,3.392-0.527c1.15,0,2.286,0.176,3.41,0.527c1.123,0.353,2.141,0.918,3.057,1.687
		c0.916,0.771,1.652,1.777,2.215,3.018c0.562,1.243,0.844,2.751,0.844,4.53c0,1.775-0.282,3.285-0.844,4.525
		c-0.562,1.243-1.299,2.248-2.215,3.02c-0.916,0.771-1.934,1.312-3.057,1.624c-1.124,0.314-2.26,0.474-3.41,0.474
		c-1.124,0-2.255-0.159-3.392-0.474c-1.136-0.312-2.162-0.854-3.077-1.624c-0.916-0.771-1.652-1.776-2.215-3.02
		c-0.562-1.24-0.842-2.75-0.842-4.525C171.734,318.663,172.015,317.155,172.576,315.912z M175.477,323.616
		c0.197,1.018,0.53,1.927,1,2.724c0.471,0.798,1.097,1.432,1.882,1.9c0.782,0.472,1.749,0.706,2.9,0.706
		c1.15,0,2.116-0.234,2.901-0.706c0.783-0.469,1.411-1.103,1.882-1.9c0.47-0.797,0.803-1.706,0.998-2.724
		c0.197-1.021,0.293-2.078,0.293-3.174c0-1.1-0.096-2.157-0.293-3.177c-0.195-1.019-0.528-1.928-0.998-2.726
		c-0.471-0.795-1.099-1.43-1.882-1.9c-0.785-0.471-1.751-0.707-2.901-0.707c-1.151,0-2.118,0.236-2.9,0.707
		c-0.785,0.471-1.411,1.105-1.882,1.9c-0.47,0.798-0.803,1.707-1,2.726c-0.195,1.02-0.294,2.077-0.294,3.177
		C175.183,321.538,175.282,322.596,175.477,323.616z"/>
</g>
<g>
	<path fill="#00A439" d="M221.666,222.68c-2.875,2.143-7.267,4.124-13.748,4.124c-18.31,0-25.359-9.327-36.228-10.991
		c-7.311-1.119-8.909,1.175-8.909,1.175v9.423c0,0,1.598-2.586,8.909-1.469c10.868,1.666,17.917,11.554,36.228,11.554
		c11.529,0,16.504-2.435,17.938-3.325L221.666,222.68z"/>
</g>
</svg>
