<?xml version="1.0" encoding="utf-8"?>
<!-- Generator: Adobe Illustrator 21.0.2, SVG Export Plug-In . SVG Version: 6.00 Build 0)  -->
<svg version="1.1" id="Calque_1" xmlns="http://www.w3.org/2000/svg" xmlns:xlink="http://www.w3.org/1999/xlink" x="0px" y="0px"
	 viewBox="0 0 500 196" style="enable-background:new 0 0 500 196;" xml:space="preserve">
<style type="text/css">
	.st0{fill:#0857B5;}
	.st1{fill:#00A439;}
</style>
<path class="st0" d="M123.2,24.5h25.6v66.1c0,0,0.1,5.4,5.7,5.4c0,2.6,0,5,0,5H129V35.6c0,0-1.5-6.6-5.8-6.6V24.5z"/>
<path class="st0" d="M233.8,101h26.9c0,0,0-3.2,0-5.9c-5.5,0-7.9-4.8-7.9-4.8L224,24.5h-29.6v4.6c4.3,0,4.9,2.2,4.9,3.7
	c0,0,0,0.9-0.7,2.9c-0.8,2-30.8,65.3-30.8,65.3h26.6v-4.9c0,0-3.7,0.6-4.6-1.7c-0.8-2.3,20.4-52.2,20.4-52.2L233.8,101z"/>
<path class="st0" d="M321.3,101.3h-8.4l-25.2-54.1c0,0-3.5,36.7-3.9,41.9c-0.4,5.2,7,8.4,7,8.4l-1.6,3.7h-21.7
	c0,0,7.4-66.6,7.4-69.4s-5.6-2.5-5.6-2.5v-4.8h32.1l19.4,46.7l23.9-46.7h24.7l6.4,63.7c0,0,0.9,7,6.7,7c0,3.6,0,6.4,0,6.4h-26.4
	l-4.4-57.2l-26.5,57h-3.9V101.3z"/>
<path class="st0" d="M425.8,24.2l-31.6,0.1v5.2c0,0,5.1-0.6,5.1,5.8s0,57,0,58.2s-1.2,7.8-1.2,7.8h27.7v-5.1c0,0-6.6-0.5-6.6-6.1
	s0-16.8,0-16.8s44.7,5.8,44.7-24.1C464,22.3,431.3,24.2,425.8,24.2z M432.3,62.6h-12.8v-26c18.7-7.6,24.7,6.9,24.7,12.6
	C444.2,54.9,438,62.6,432.3,62.6z"/>
<path class="st0" d="M112.8,75.7c0,9-9.2,40.3-59.1,24.1c1.8-7.6,2.7-12.7,2.7-12.7S61.5,92,76.6,92S94,83.2,94,81.2
	s-2.3-8-19.4-11.9c-17-3.9-21.4-14.3-21.4-24.1c0-8.1,15-33.6,55.3-19.9c0,10.4,0,16.6,0,16.6s-3.1,2-4.8-0.5
	c-1.7-2.4-3-5.9-7.9-6.6s-23.2-1.7-23.2,7.4S84.1,52.1,92,54.5C99.9,56.8,112.9,61.6,112.8,75.7z"/>
<rect x="19" y="129.5" class="st1" width="464.5" height="11"/>
<path class="st0" d="M64.5,161.1c1.8,3.5,3.8,7.1,5.8,10.8c0.3-0.5,0.6-1.2,1.1-2.1s1.1-2,1.7-3.2c0.7-1.2,1.4-2.5,2.1-3.9
	s1.5-2.8,2.3-4.3s1.5-2.8,2.3-4.2c0.8-1.4,1.5-2.7,2.1-3.9h0.5c0.3,2.5,0.6,4.9,0.8,7.3c0.2,2.3,0.5,4.6,0.8,6.9s0.5,4.5,0.8,6.7
	s0.5,4.4,0.9,6.6c-0.3-0.1-0.6-0.1-0.9-0.1s-0.6,0-0.9,0s-0.6,0-0.9,0s-0.6,0-0.9,0.1c-0.3-3.5-0.6-6.8-0.9-10.1
	c-0.3-3.3-0.6-6.6-1.1-10H80c-1.8,3.3-3.6,6.6-5.3,9.8c-1.7,3.3-3.4,6.7-5,10.2h-0.4c-1.6-3.3-3.2-6.6-4.9-9.9
	c-1.7-3.3-3.4-6.7-5.2-10.1h-0.1c-0.2,1.6-0.4,3.4-0.6,5.3s-0.4,3.8-0.6,5.6c-0.2,1.8-0.3,3.6-0.5,5.2c-0.1,1.6-0.2,3-0.2,4
	c-0.4-0.1-0.9-0.1-1.4-0.1s-1,0-1.4,0.1c0.3-2.1,0.7-4.4,1.1-6.7s0.7-4.7,1.1-7.1c0.3-2.4,0.7-4.7,0.9-7c0.3-2.3,0.5-4.5,0.7-6.6
	h0.7C60.9,154,62.7,157.6,64.5,161.1z"/>
<path class="st0" d="M89.8,163.9c0.6-1.2,1.3-2.2,2.2-3s1.9-1.3,3.1-1.7c1.1-0.4,2.3-0.5,3.4-0.5c1.1,0,2.3,0.2,3.4,0.5
	c1.1,0.4,2.1,0.9,3.1,1.7c0.9,0.8,1.7,1.8,2.2,3c0.6,1.2,0.8,2.8,0.8,4.5c0,1.8-0.3,3.3-0.8,4.5c-0.6,1.2-1.3,2.2-2.2,3
	s-1.9,1.3-3.1,1.6c-1.1,0.3-2.3,0.5-3.4,0.5c-1.1,0-2.3-0.2-3.4-0.5c-1.1-0.3-2.2-0.9-3.1-1.6c-0.9-0.8-1.7-1.8-2.2-3
	c-0.6-1.2-0.8-2.8-0.8-4.5C88.9,166.7,89.2,165.1,89.8,163.9z M92.7,171.6c0.2,1,0.5,1.9,1,2.7c0.5,0.8,1.1,1.4,1.9,1.9
	c0.8,0.5,1.7,0.7,2.9,0.7c1.1,0,2.1-0.2,2.9-0.7c0.8-0.5,1.4-1.1,1.9-1.9s0.8-1.7,1-2.7s0.3-2.1,0.3-3.2s-0.1-2.2-0.3-3.2
	s-0.5-1.9-1-2.7c-0.5-0.8-1.1-1.4-1.9-1.9c-0.8-0.5-1.8-0.7-2.9-0.7c-1.2,0-2.1,0.2-2.9,0.7c-0.8,0.5-1.4,1.1-1.9,1.9
	s-0.8,1.7-1,2.7s-0.3,2.1-0.3,3.2S92.5,170.6,92.7,171.6z"/>
<path class="st0" d="M124,162.2c-0.8-1-1.8-1.5-3.1-1.5c-1.8,0-3.2,0.6-4,1.7c-0.9,1.1-1.3,2.7-1.3,4.7v3.3c0,1.2,0,2.4,0.1,3.7
	c0,1.3,0.1,2.5,0.3,3.5c-0.6-0.1-1.2-0.1-1.8-0.1s-1.2,0-1.8,0.1c0.1-1,0.2-2.2,0.3-3.5c0-1.3,0.1-2.5,0.1-3.7v-4.1
	c0-1.2,0-2.4-0.1-3.7c0-1.3-0.1-2.5-0.3-3.6c0.7,0.1,1.3,0.2,1.8,0.2c0.2,0,0.4,0,0.7-0.1c0.2,0,0.5-0.1,0.9-0.1
	c-0.1,1-0.1,2.1-0.1,3.1h0.1c0.7-1.1,1.6-2,2.6-2.6s2.2-0.9,3.7-0.9c0.7,0,1.5,0.1,2.2,0.3c0.7,0.2,1.4,0.6,2,1.1s1.1,1.2,1.5,2.1
	s0.6,2,0.6,3.4c0,1.1,0,2.3-0.1,3.5s-0.1,2.5-0.1,3.8v2.5c0,0.4,0,0.8,0,1.2s0,0.8,0.1,1.2c-0.5-0.1-1.1-0.1-1.7-0.1
	c-0.6,0-1.1,0-1.6,0.1c0.1-1.4,0.1-2.8,0.2-4.2c0.1-1.4,0.1-2.9,0.1-4.4v-2.4C125.1,164.7,124.7,163.2,124,162.2z"/>
<path class="st0" d="M137.7,159.1c1-0.3,2-0.5,3.1-0.5c0.9,0,1.8,0.1,2.6,0.4s1.5,0.7,2,1.2c0.6,0.5,1,1.1,1.3,1.8
	c0.3,0.7,0.5,1.5,0.5,2.4c0,1.5,0,3-0.1,4.4c-0.1,1.5-0.1,3-0.1,4.7c0,0.3,0,0.6,0,1s0.1,0.7,0.2,0.9c0.1,0.3,0.3,0.5,0.5,0.7
	s0.5,0.3,0.9,0.3c0.1,0,0.3,0,0.4,0c0.1,0,0.3-0.1,0.4-0.1v0.9c-0.3,0.1-0.6,0.2-1.1,0.3c-0.4,0.1-0.9,0.1-1.4,0.1
	c-0.8,0-1.5-0.2-2-0.6c-0.4-0.4-0.7-1-0.8-1.7c-0.9,0.9-1.9,1.6-2.8,2.1c-0.9,0.4-2,0.7-3.4,0.7c-0.7,0-1.3-0.1-1.9-0.3
	c-0.6-0.2-1.2-0.5-1.7-0.9s-0.9-0.9-1.2-1.5s-0.4-1.3-0.4-2c0-1.6,0.5-2.8,1.5-3.6c1-0.9,2.3-1.4,4-1.7c1.4-0.2,2.5-0.4,3.3-0.6
	s1.4-0.3,1.8-0.5c0.4-0.2,0.6-0.4,0.7-0.6c0.1-0.2,0.1-0.6,0.1-1c0-0.7-0.1-1.3-0.2-1.9c-0.2-0.6-0.4-1.1-0.7-1.6
	c-0.3-0.4-0.8-0.8-1.3-1.1c-0.5-0.3-1.2-0.4-2-0.4c-1,0-2,0.2-2.9,0.7s-1.6,1.1-2,2h-0.4v-2C135.7,160.1,136.8,159.5,137.7,159.1z
	 M142.6,168.3c-0.6,0.1-1.2,0.2-1.8,0.3c-0.6,0.1-1.2,0.3-1.8,0.4c-0.6,0.2-1.1,0.4-1.6,0.7c-0.5,0.3-0.8,0.7-1.1,1.2
	s-0.4,1.1-0.4,1.8c0,1.2,0.4,2.2,1.1,2.8c0.7,0.6,1.5,0.9,2.3,0.9c1,0,1.9-0.3,2.7-0.8s1.4-1.2,1.9-1.9l0.2-5.9
	C143.7,168.1,143.2,168.2,142.6,168.3z"/>
<path class="st0" d="M153.3,164c0.6-1.2,1.3-2.2,2.3-3c0.9-0.8,2-1.4,3.2-1.8s2.4-0.6,3.7-0.6c1.4,0,2.7,0.2,3.9,0.5
	c1.1,0.4,2,0.8,2.4,1.2c-0.2,0.4-0.3,0.8-0.5,1.2c-0.1,0.4-0.3,0.9-0.4,1.4h-0.3c-0.2-0.3-0.4-0.7-0.7-1c-0.3-0.4-0.7-0.7-1.1-1
	c-0.4-0.3-0.9-0.6-1.4-0.7s-1.1-0.3-1.7-0.3c-1.2,0-2.2,0.2-3,0.6c-0.9,0.4-1.5,1-2.1,1.8c-0.5,0.8-0.9,1.7-1.2,2.7
	c-0.2,1-0.4,2.1-0.4,3.4c0,2.7,0.6,4.7,1.7,6.1c1.1,1.4,2.8,2.1,5.1,2.1c0.5,0,1.1-0.1,1.6-0.2s1.1-0.3,1.6-0.6
	c0.5-0.2,1-0.5,1.5-0.9c0.5-0.3,0.9-0.7,1.2-1.1l0.2,0.1c-0.1,0.6-0.2,1.3-0.2,1.9c-0.8,0.6-1.8,1.2-2.9,1.6
	c-1.2,0.4-2.4,0.7-3.6,0.7c-1.1,0-2.3-0.2-3.4-0.5c-1.1-0.3-2.2-0.9-3.1-1.6c-0.9-0.8-1.7-1.8-2.2-3c-0.6-1.2-0.8-2.7-0.8-4.5
	C152.4,166.7,152.7,165.3,153.3,164z"/>
<path class="st0" d="M172.6,163.9c0.6-1.2,1.3-2.2,2.2-3s1.9-1.3,3.1-1.7c1.1-0.4,2.3-0.5,3.4-0.5c1.1,0,2.3,0.2,3.4,0.5
	c1.1,0.4,2.1,0.9,3.1,1.7c0.9,0.8,1.7,1.8,2.2,3c0.6,1.2,0.8,2.8,0.8,4.5c0,1.8-0.3,3.3-0.8,4.5c-0.6,1.2-1.3,2.2-2.2,3
	s-1.9,1.3-3.1,1.6c-1.1,0.3-2.3,0.5-3.4,0.5c-1.1,0-2.3-0.2-3.4-0.5c-1.1-0.3-2.2-0.9-3.1-1.6c-0.9-0.8-1.7-1.8-2.2-3
	c-0.6-1.2-0.8-2.8-0.8-4.5C171.7,166.7,172,165.1,172.6,163.9z M175.5,171.6c0.2,1,0.5,1.9,1,2.7c0.5,0.8,1.1,1.4,1.9,1.9
	c0.8,0.5,1.7,0.7,2.9,0.7c1.1,0,2.1-0.2,2.9-0.7c0.8-0.5,1.4-1.1,1.9-1.9s0.8-1.7,1-2.7s0.3-2.1,0.3-3.2s-0.1-2.2-0.3-3.2
	s-0.5-1.9-1-2.7c-0.5-0.8-1.1-1.4-1.9-1.9c-0.8-0.5-1.8-0.7-2.9-0.7c-1.2,0-2.1,0.2-2.9,0.7c-0.8,0.5-1.4,1.1-1.9,1.9
	s-0.8,1.7-1,2.7s-0.3,2.1-0.3,3.2S175.3,170.6,175.5,171.6z"/>
<path class="st1" d="M221.7,70.7c-2.9,2.1-7.3,4.1-13.7,4.1c-18.3,0-25.4-9.3-36.2-11c-7.3-1.1-8.9,1.2-8.9,1.2v9.4
	c0,0,1.6-2.6,8.9-1.5c10.9,1.7,17.9,11.6,36.2,11.6c11.5,0,16.5-2.4,17.9-3.3L221.7,70.7z"/>
</svg>
