<?xml version="1.0" encoding="utf-8"?>
<!-- Generator: Adobe Illustrator 21.0.2, SVG Export Plug-In . SVG Version: 6.00 Build 0)  -->
<svg version="1.1" id="Calque_1" xmlns="http://www.w3.org/2000/svg" xmlns:xlink="http://www.w3.org/1999/xlink" x="0px" y="0px"
	 viewBox="0 0 500 136" style="enable-background:new 0 0 500 136;" xml:space="preserve">
<path d="M14.2,117.2V87.3c5.1,6.9,10.5,10.4,16.4,10.4c2.2,0,4-0.6,5.4-1.8s2.1-2.6,2.1-4.4c0-2.5-1.5-5-4.6-7.5l-4.2-3.3
	c-2.8-2.1-5.2-4.2-7.1-6.3c-2-2.1-3.6-4.2-4.8-6.4c-1.2-2.2-2.1-4.5-2.7-6.8s-0.9-4.8-0.9-7.4c0-4.4,1-9.1,3.1-13.9
	c1-2.3,2.2-4.3,3.6-6.2c1.4-1.9,2.9-3.5,4.7-5c4.8-4.1,10.7-6.2,17.6-6.2c6.1,0,12.3,1.6,18.5,4.9v29.1c-2.1-3.2-4.5-5.8-7.1-7.7
	c-2.7-1.9-5.3-2.8-7.9-2.8c-2,0-3.6,0.6-4.9,1.7s-2,2.4-2,4c0,2.5,1.7,5.1,5.2,7.6l4.1,3c5.4,3.9,9.3,7.9,11.6,12
	c2.4,4.1,3.6,8.9,3.6,14.4c0,9.4-2.9,17.1-8.6,23.2S42.4,121,33.6,121C27.5,121.2,21.1,119.9,14.2,117.2z"/>
<path d="M99.6,119.6H73.9V24.5h25.7L99.6,119.6L99.6,119.6z"/>
<path d="M162.7,90.3l-1.5,27.5c-5.7,2.3-10.8,3.5-15.3,3.5c-10.6,0-19.6-3.9-26.9-11.7c-8.1-8.8-12.2-21.1-12.2-37.2
	c0-15,3.8-27,11.5-36.1c7.6-9,17.8-13.6,30.6-13.6c4.1,0,8.4,0.8,12.7,2.3v27.2c-3.8-3.8-7.7-5.7-11.8-5.7c-5.3,0-9.4,2.2-12.3,6.7
	c-3,4.5-4.4,10.8-4.4,18.7c0,3.9,0.4,7.3,1.1,10.4c0.7,3,1.8,5.6,3.2,7.7s3.1,3.7,5.1,4.8c2,1.1,4.3,1.7,6.9,1.7
	C153.7,96.5,158.2,94.4,162.7,90.3z"/>
<path d="M240.8,72.3c0,14.5-3.3,26.3-9.9,35.4c-6.6,9-15.1,13.6-25.7,13.6c-9.4,0-17.4-3.5-24.1-10.4c-8.4-8.8-12.6-22-12.6-39.6
	c0-16.8,4.4-29.7,13.2-38.6c6.5-6.6,14.3-9.9,23.2-9.9c11,0,19.7,4.5,26.2,13.4C237.6,45.1,240.8,57.1,240.8,72.3z M214.1,72.5
	c0-17.2-3-25.8-9.1-25.8c-3,0-5.5,2.3-7.3,6.8c-1.8,4.2-2.6,10.4-2.6,18.5c0,8,0.8,14.2,2.5,18.6s4,6.6,6.9,6.6c3,0,5.4-2.2,7-6.5
	C213.3,86.3,214.1,80.3,214.1,72.5z"/>
<path d="M346,119.6h-26.9l-1.9-43.4l-0.8-17.3c-0.3,3.3-0.6,6.5-1,9.5s-0.8,5.9-1.4,8.8l-8.1,42.4h-21L278,77.1
	c-0.4-2.5-1-6.7-1.7-12.7c-0.1-0.9-0.3-2.8-0.6-5.5l-0.6,17.6l-2.3,43.1h-27.4l11.1-95.1h32l5.4,32c0.5,2.6,0.9,5.5,1.2,8.6
	c0.3,3.1,0.7,6.4,1,10c0.5-6,1.3-11.4,2.2-16.2l6.5-34.4h31.7L346,119.6z"/>
<path d="M349.4,119.6V24.5h47.8v22.4h-22.1v13.9h19.8v21.5h-19.8v14.5h22.1v22.9L349.4,119.6L349.4,119.6z"/>
<path d="M443.2,119.6h-25.7V47.3h-14.2V24.5h54.6v22.8h-14.7V119.6L443.2,119.6z"/>
<path d="M471.5,36.6v-11h4.9c1,0,1.7,0.1,2.2,0.3c0.5,0.2,0.9,0.5,1.2,1s0.5,1.1,0.5,1.7c0,0.8-0.3,1.4-0.8,2
	c-0.5,0.5-1.3,0.9-2.3,1c0.4,0.2,0.7,0.4,0.9,0.5c0.4,0.4,0.8,0.9,1.2,1.5l1.9,3h-1.8l-1.5-2.3c-0.4-0.7-0.8-1.2-1.1-1.5
	c-0.3-0.4-0.5-0.6-0.7-0.7c-0.2-0.1-0.4-0.2-0.7-0.3c-0.2,0-0.4-0.1-0.8-0.1h-1.7v4.9H471.5L471.5,36.6z M472.9,30.4h3.1
	c0.7,0,1.2-0.1,1.6-0.2s0.7-0.4,0.9-0.7c0.2-0.3,0.3-0.6,0.3-1c0-0.5-0.2-0.9-0.6-1.3c-0.4-0.3-1-0.5-1.8-0.5h-3.5V30.4L472.9,30.4z
	"/>
<path d="M475.7,42.7c-6.2,0-11.2-5-11.2-11.2s5-11.2,11.2-11.2c6.2,0,11.2,5,11.2,11.2C486.9,37.6,481.9,42.7,475.7,42.7z
	 M475.7,22.8c-4.8,0-8.7,3.9-8.7,8.7s3.9,8.7,8.7,8.7c4.8,0,8.7-3.9,8.7-8.7S480.5,22.8,475.7,22.8z"/>
</svg>
