<?xml version="1.0" encoding="utf-8"?>
<!-- Generator: Adobe Illustrator 19.1.0, SVG Export Plug-In . SVG Version: 6.00 Build 0)  -->
<svg version="1.1" id="Calque_1" xmlns="http://www.w3.org/2000/svg" xmlns:xlink="http://www.w3.org/1999/xlink" x="0px" y="0px"
	 viewBox="-345 170.9 500 500" style="enable-background:new -345 170.9 500 500;" xml:space="preserve">
<style type="text/css">
	.st0{fill:#0093AA;}
</style>
<path class="st0" d="M-276.4,388.1v13.6c-6.5-2.3-13.5-3.6-19.2-3.6c-7,0-10.8,2.1-10.8,5.9c0,2.4,1.7,4,6.6,6.2l13.1,5.9
	c10.5,4.7,15.7,11.6,15.7,20.5c0,13.8-11.9,22.4-30.8,22.4c-6.9,0-14.8-1-23.3-2.9v-14c8.4,2.3,16,3.5,22,3.5c7.8,0,12-2.2,12-6.2
	c0-2.4-1.6-4.2-5.4-5.9l-14.3-6.4c-10.6-4.7-15.5-11.1-15.5-20.2c0-13,11.5-21.3,29.5-21.3C-290.5,385.6-282.7,386.6-276.4,388.1
	L-276.4,388.1z"/>
<polygon class="st0" points="-260.8,387 -239.6,387 -239.6,457.6 -260.8,457.6 "/>
<polygon class="st0" points="-170.9,387 -170.9,400 -202.8,400 -202.8,415.9 -174.9,415.9 -174.9,427.6 -202.8,427.6 -202.8,444.1 
	-170.5,444.1 -170.5,457.6 -223.4,457.6 -223.4,387 "/>
<polygon class="st0" points="-70.9,387 -70.9,457.6 -91.4,457.6 -91.4,411.2 -111.5,458.2 -124.4,458.2 -144.3,411.2 -144.3,457.6 
	-158.4,457.6 -158.4,387 -132.6,387 -114.3,430 -96.2,387 "/>
<polygon class="st0" points="-2.1,387 -2.1,400 -34.1,400 -34.1,415.9 -6.2,415.9 -6.2,427.6 -34.1,427.6 -34.1,444.1 -1.8,444.1 
	-1.8,457.6 -54.7,457.6 -54.7,387 "/>
<polygon class="st0" points="72.4,387 72.4,457.6 49.8,457.6 24.4,412.3 24.4,457.6 10.3,457.6 10.3,387 33.4,387 58.3,431.7 
	58.3,387 "/>
<path class="st0" d="M133.8,388.1v13.6c-6.4-2.2-13.5-3.6-19.1-3.6c-7.1,0-10.9,2.1-10.9,5.9c0,2.5,1.6,4,6.6,6.3l13,5.9
	c10.5,4.8,15.7,11.5,15.7,20.6c0,13.7-11.9,22.3-30.7,22.3c-6.9,0-14.9-1-23.3-2.9v-14c8.4,2.3,16,3.5,21.9,3.5c7.7,0,12-2.2,12-6.1
	c0-2.6-1.5-4.3-5.4-6l-14.3-6.4c-10.7-4.8-15.5-11.1-15.5-20.2c0-13,11.5-21.3,29.4-21.3C119.6,385.6,127.4,386.6,133.8,388.1
	L133.8,388.1z"/>
</svg>
