<?xml version="1.0" encoding="utf-8"?>
<!-- Generator: Adobe Illustrator 15.0.0, SVG Export Plug-In . SVG Version: 6.00 Build 0)  -->
<!DOCTYPE svg PUBLIC "-//W3C//DTD SVG 1.1//EN" "http://www.w3.org/Graphics/SVG/1.1/DTD/svg11.dtd">
<svg version="1.1" id="Calque_1" xmlns="http://www.w3.org/2000/svg" xmlns:xlink="http://www.w3.org/1999/xlink" x="0px" y="0px"
	 width="500px" height="500px" viewBox="0 0 500 500" enable-background="new 0 0 500 500" xml:space="preserve">
<g>
	<path fill-rule="evenodd" clip-rule="evenodd" fill="#0093AA" d="M68.65,217.229v13.581c-6.458-2.258-13.532-3.577-19.171-3.577
		c-6.96,0-10.832,2.121-10.832,5.931c0,2.431,1.696,4.042,6.56,6.229l13.079,5.867c10.462,4.703,15.736,11.564,15.736,20.469
		c0,13.755-11.905,22.431-30.773,22.431c-6.881,0-14.843-0.986-23.275-2.892v-14.037c8.357,2.274,16.017,3.488,21.972,3.488
		c7.802,0,11.979-2.173,11.979-6.22c0-2.438-1.632-4.229-5.369-5.895l-14.315-6.376c-10.609-4.731-15.509-11.108-15.509-20.197
		c0-13.023,11.474-21.328,29.475-21.328C54.508,214.705,62.266,215.664,68.65,217.229L68.65,217.229z"/>
	<polygon fill-rule="evenodd" clip-rule="evenodd" fill="#0093AA" points="84.207,216.128 105.358,216.128 105.358,286.735 
		84.207,286.735 84.207,216.128 	"/>
	<polygon fill-rule="evenodd" clip-rule="evenodd" fill="#0093AA" points="174.129,216.128 174.129,229.065 142.196,229.065 
		142.196,244.99 170.092,244.99 170.092,256.687 142.196,256.687 142.196,273.2 174.543,273.2 174.543,286.735 121.642,286.735 
		121.642,216.128 174.129,216.128 	"/>
	<polygon fill-rule="evenodd" clip-rule="evenodd" fill="#0093AA" points="274.054,216.128 274.054,286.735 253.59,286.735 
		253.59,240.262 233.544,287.286 220.605,287.286 200.695,240.262 200.695,286.735 186.563,286.735 186.563,216.128 212.39,216.128 
		230.652,259.076 248.821,216.128 274.054,216.128 	"/>
	<polygon fill-rule="evenodd" clip-rule="evenodd" fill="#0093AA" points="342.879,216.128 342.879,229.065 310.903,229.065 
		310.903,244.99 338.788,244.99 338.788,256.687 310.903,256.687 310.903,273.2 343.241,273.2 343.241,286.735 290.295,286.735 
		290.295,216.128 342.879,216.128 	"/>
	<polygon fill-rule="evenodd" clip-rule="evenodd" fill="#0093AA" points="417.382,216.128 417.382,286.735 394.811,286.735 
		369.393,241.453 369.393,286.735 355.259,286.735 355.259,216.128 378.427,216.128 403.298,260.815 403.298,216.128 
		417.382,216.128 	"/>
	<path fill-rule="evenodd" clip-rule="evenodd" fill="#0093AA" d="M478.765,217.229v13.581c-6.412-2.244-13.527-3.577-19.062-3.577
		c-7.07,0-10.941,2.087-10.941,5.909c0,2.492,1.581,3.981,6.61,6.251l13.022,5.867c10.538,4.751,15.741,11.55,15.741,20.564
		c0,13.678-11.91,22.336-30.737,22.336c-6.892,0-14.885-0.989-23.306-2.892v-14.037c8.35,2.27,15.991,3.488,21.908,3.488
		c7.748,0,12.043-2.173,12.043-6.093c0-2.599-1.505-4.271-5.423-6.021l-14.256-6.376c-10.677-4.77-15.518-11.071-15.518-20.194
		c0-13.016,11.478-21.327,29.438-21.327C464.605,214.709,472.394,215.664,478.765,217.229L478.765,217.229z"/>
</g>
</svg>
