<?xml version="1.0" encoding="utf-8"?>
<!-- Generator: Adobe Illustrator 15.0.0, SVG Export Plug-In . SVG Version: 6.00 Build 0)  -->
<!DOCTYPE svg PUBLIC "-//W3C//DTD SVG 1.1//EN" "http://www.w3.org/Graphics/SVG/1.1/DTD/svg11.dtd">
<svg version="1.1" id="Calque_1" xmlns="http://www.w3.org/2000/svg" xmlns:xlink="http://www.w3.org/1999/xlink" x="0px" y="0px"
	 width="500px" height="500px" viewBox="0 0 500 500" enable-background="new 0 0 500 500" xml:space="preserve">
<g>
	<g>
		<linearGradient id="SVGID_1_" gradientUnits="userSpaceOnUse" x1="159.3335" y1="192.7139" x2="28.9381" y2="273.2954">
			<stop  offset="0.1633" style="stop-color:#FFFFFF"/>
			<stop  offset="0.169" style="stop-color:#F9F9F9"/>
			<stop  offset="0.1955" style="stop-color:#E4E4E4"/>
			<stop  offset="0.2267" style="stop-color:#D3D3D3"/>
			<stop  offset="0.2653" style="stop-color:#C8C8C7"/>
			<stop  offset="0.3192" style="stop-color:#C1C1C0"/>
			<stop  offset="0.4667" style="stop-color:#BFBFBE"/>
			<stop  offset="0.94" style="stop-color:#FFFFFF"/>
		</linearGradient>
		<polygon fill="url(#SVGID_1_)" points="94.69,209.305 96.432,169.474 96.03,169.511 88.988,166.391 79.329,167.205 86.329,170.5 
			86.729,170.462 84.793,210.265 84.144,223.624 84.042,225.712 83.386,239.206 83.298,241.014 82.636,254.643 82.546,256.469 
			81.877,270.232 79.999,311.123 90.401,310.264 92.063,269.422 92.667,255.621 92.747,253.791 93.344,240.129 93.423,238.317 
			94.015,224.789 94.105,222.695 		"/>
		<linearGradient id="SVGID_2_" gradientUnits="userSpaceOnUse" x1="156.1748" y1="187.604" x2="25.7807" y2="268.1848">
			<stop  offset="0.1633" style="stop-color:#FFFFFF"/>
			<stop  offset="0.169" style="stop-color:#F9F9F9"/>
			<stop  offset="0.1955" style="stop-color:#E4E4E4"/>
			<stop  offset="0.2267" style="stop-color:#D3D3D3"/>
			<stop  offset="0.2653" style="stop-color:#C8C8C7"/>
			<stop  offset="0.3192" style="stop-color:#C1C1C0"/>
			<stop  offset="0.4667" style="stop-color:#BFBFBE"/>
			<stop  offset="0.94" style="stop-color:#FFFFFF"/>
		</linearGradient>
		<polygon fill="url(#SVGID_2_)" points="80.236,239.486 80.912,226.002 81.017,223.915 81.687,210.566 83.69,170.637 
			80.332,170.943 83.716,170.574 76.145,167.525 66.318,168.438 73.558,171.683 74.014,171.632 71.817,211.523 71.083,224.84 
			70.968,226.923 70.228,240.372 70.128,242.175 69.38,255.758 69.279,257.578 68.524,271.295 66.362,312.248 76.733,311.393 
			78.68,270.486 79.37,256.734 79.462,254.908 80.145,241.292 		"/>
		<linearGradient id="SVGID_3_" gradientUnits="userSpaceOnUse" x1="153.1807" y1="182.7607" x2="22.7874" y2="263.341">
			<stop  offset="0.1633" style="stop-color:#FFFFFF"/>
			<stop  offset="0.169" style="stop-color:#F9F9F9"/>
			<stop  offset="0.1955" style="stop-color:#E4E4E4"/>
			<stop  offset="0.2267" style="stop-color:#D3D3D3"/>
			<stop  offset="0.2653" style="stop-color:#C8C8C7"/>
			<stop  offset="0.3192" style="stop-color:#C1C1C0"/>
			<stop  offset="0.4667" style="stop-color:#BFBFBE"/>
			<stop  offset="0.94" style="stop-color:#FFFFFF"/>
		</linearGradient>
		<polygon fill="url(#SVGID_3_)" points="66.821,255.973 67.575,242.399 67.675,240.597 68.422,227.158 68.538,225.076 
			69.278,211.77 71.503,171.749 70.308,171.858 71.595,171.727 63.761,168.675 54.04,169.577 61.925,172.683 59.505,212.718 
			58.702,225.993 58.576,228.069 57.766,241.477 57.656,243.274 56.838,256.812 56.728,258.627 55.901,272.301 53.502,313.311 
			63.771,312.465 65.956,271.5 66.719,257.793 		"/>
		<linearGradient id="SVGID_4_" gradientUnits="userSpaceOnUse" x1="131.917" y1="148.3501" x2="1.5215" y2="228.9317">
			<stop  offset="0.1633" style="stop-color:#FFFFFF"/>
			<stop  offset="0.169" style="stop-color:#F9F9F9"/>
			<stop  offset="0.1955" style="stop-color:#E4E4E4"/>
			<stop  offset="0.2267" style="stop-color:#D3D3D3"/>
			<stop  offset="0.2653" style="stop-color:#C8C8C7"/>
			<stop  offset="0.3192" style="stop-color:#C1C1C0"/>
			<stop  offset="0.4667" style="stop-color:#BFBFBE"/>
			<stop  offset="0.94" style="stop-color:#FFFFFF"/>
		</linearGradient>
		<polygon fill="url(#SVGID_4_)" points="92.948,166.167 100.023,169.137 109.854,168.25 102.768,165.056 		"/>
		<linearGradient id="SVGID_5_" gradientUnits="userSpaceOnUse" x1="164.332" y1="200.8042" x2="33.9374" y2="281.3853">
			<stop  offset="0.1633" style="stop-color:#FFFFFF"/>
			<stop  offset="0.169" style="stop-color:#F9F9F9"/>
			<stop  offset="0.1955" style="stop-color:#E4E4E4"/>
			<stop  offset="0.2267" style="stop-color:#D3D3D3"/>
			<stop  offset="0.2653" style="stop-color:#C8C8C7"/>
			<stop  offset="0.3192" style="stop-color:#C1C1C0"/>
			<stop  offset="0.4667" style="stop-color:#BFBFBE"/>
			<stop  offset="0.94" style="stop-color:#FFFFFF"/>
		</linearGradient>
		<polygon fill="url(#SVGID_5_)" points="99.956,169.153 98.265,208.958 97.695,222.36 97.606,224.457 97.031,237.997 
			96.954,239.81 96.372,253.484 96.295,255.318 95.708,269.131 94.099,309.957 104.718,309.08 106.107,268.303 106.626,254.455 
			106.694,252.617 107.208,238.907 107.276,237.088 107.785,223.515 107.863,221.413 108.366,207.977 109.854,168.25 		"/>
	</g>
	<linearGradient id="SVGID_6_" gradientUnits="userSpaceOnUse" x1="295.2949" y1="218.0601" x2="256.7102" y2="219.0369">
		<stop  offset="0.0433" style="stop-color:#FFFFFF"/>
		<stop  offset="0.3967" style="stop-color:#575756"/>
		<stop  offset="0.5639" style="stop-color:#595958"/>
		<stop  offset="0.6241" style="stop-color:#60605F"/>
		<stop  offset="0.6671" style="stop-color:#6B6B6A"/>
		<stop  offset="0.7018" style="stop-color:#7C7C7B"/>
		<stop  offset="0.7315" style="stop-color:#929291"/>
		<stop  offset="0.7579" style="stop-color:#ADADAD"/>
		<stop  offset="0.7817" style="stop-color:#CDCDCD"/>
		<stop  offset="0.8028" style="stop-color:#F1F1F1"/>
		<stop  offset="0.8098" style="stop-color:#FFFFFF"/>
		<stop  offset="0.9167" style="stop-color:#828281"/>
	</linearGradient>
	<polygon fill="url(#SVGID_6_)" points="292.083,186.652 289.071,183.071 281.583,186.178 284.179,187.355 278.802,187.833 
		281.474,253.557 294.883,252.502 	"/>
	<polygon fill="#A5A5A5" points="66.719,257.793 69.279,257.578 69.38,255.758 66.821,255.973 	"/>
	<polygon fill="#A5A5A5" points="80.145,241.292 83.298,241.014 83.386,239.206 80.236,239.486 	"/>
	<polygon fill="#A5A5A5" points="80.912,226.002 84.042,225.712 84.144,223.624 81.017,223.915 	"/>
	<polygon fill="#A5A5A5" points="68.422,227.158 70.968,226.923 71.083,224.84 68.538,225.076 	"/>
	<polygon fill="#A5A5A5" points="67.575,242.399 70.128,242.175 70.228,240.372 67.675,240.597 	"/>
	<polygon fill="#A5A5A5" points="92.667,255.621 96.295,255.318 96.372,253.484 92.747,253.791 	"/>
	<polygon fill="#A5A5A5" points="93.344,240.129 96.954,239.81 97.031,237.997 93.423,238.317 	"/>
	<polygon fill="#A5A5A5" points="94.015,224.789 97.606,224.457 97.695,222.36 94.105,222.695 	"/>
	<polygon fill="#A5A5A5" points="79.37,256.734 82.546,256.469 82.636,254.643 79.462,254.908 	"/>
	<linearGradient id="SVGID_7_" gradientUnits="userSpaceOnUse" x1="86.7393" y1="215.4575" x2="209.0765" y2="205.9343">
		<stop  offset="0" style="stop-color:#FFFFFF"/>
		<stop  offset="0.0032" style="stop-color:#F2F2F2"/>
		<stop  offset="0.0134" style="stop-color:#CECECD"/>
		<stop  offset="0.0249" style="stop-color:#ADADAD"/>
		<stop  offset="0.0376" style="stop-color:#929292"/>
		<stop  offset="0.0519" style="stop-color:#7C7C7C"/>
		<stop  offset="0.0686" style="stop-color:#6B6B6B"/>
		<stop  offset="0.0892" style="stop-color:#60605F"/>
		<stop  offset="0.118" style="stop-color:#595958"/>
		<stop  offset="0.1967" style="stop-color:#575756"/>
		<stop  offset="0.251" style="stop-color:#696968"/>
		<stop  offset="0.3607" style="stop-color:#999998"/>
		<stop  offset="0.5143" style="stop-color:#E5E5E5"/>
		<stop  offset="0.5633" style="stop-color:#FFFFFF"/>
		<stop  offset="0.9167" style="stop-color:#828281"/>
	</linearGradient>
	<path fill="url(#SVGID_7_)" d="M195.375,213.26c1.584-5.185,3.951-10.037,6.954-14.401l-101.371,9.054l-0.428,10.295l7.333,3.206
		L195.375,213.26z"/>
	<polygon fill="#A5A5A5" points="84.144,223.624 84.793,210.265 81.687,210.566 81.017,223.915 	"/>
	<polygon fill="#A5A5A5" points="71.083,224.84 71.817,211.523 69.278,211.77 68.538,225.076 	"/>
	<polygon fill="#A5A5A5" points="29.298,215.65 29.012,228.759 58.702,225.993 59.505,212.718 	"/>
	<polygon fill="#A5A5A5" points="97.695,222.36 98.265,208.958 94.69,209.305 94.105,222.695 	"/>
	<linearGradient id="SVGID_8_" gradientUnits="userSpaceOnUse" x1="87.9639" y1="231.1841" x2="210.3003" y2="221.6609">
		<stop  offset="0" style="stop-color:#FFFFFF"/>
		<stop  offset="0.0032" style="stop-color:#F2F2F2"/>
		<stop  offset="0.0134" style="stop-color:#CECECD"/>
		<stop  offset="0.0249" style="stop-color:#ADADAD"/>
		<stop  offset="0.0376" style="stop-color:#929292"/>
		<stop  offset="0.0519" style="stop-color:#7C7C7C"/>
		<stop  offset="0.0686" style="stop-color:#6B6B6B"/>
		<stop  offset="0.0892" style="stop-color:#60605F"/>
		<stop  offset="0.118" style="stop-color:#595958"/>
		<stop  offset="0.1967" style="stop-color:#575756"/>
		<stop  offset="0.251" style="stop-color:#696968"/>
		<stop  offset="0.3607" style="stop-color:#999998"/>
		<stop  offset="0.5143" style="stop-color:#E5E5E5"/>
		<stop  offset="0.5633" style="stop-color:#FFFFFF"/>
		<stop  offset="0.9167" style="stop-color:#828281"/>
	</linearGradient>
	<path fill="url(#SVGID_8_)" d="M193.127,229.478c-0.021-0.955-0.018-1.918,0.016-2.889c0.133-3.821,0.687-7.544,1.609-11.125
		l-94.514,8.029l-0.454,10.377l7.492,3.218L193.127,229.478z"/>
	<polygon fill="#A5A5A5" points="93.423,238.317 97.031,237.997 97.606,224.457 94.015,224.789 	"/>
	<polygon fill="#A5A5A5" points="80.236,239.486 83.386,239.206 84.042,225.712 80.912,226.002 	"/>
	<polygon fill="#A5A5A5" points="67.675,240.597 70.228,240.372 70.968,226.923 68.422,227.158 	"/>
	<polygon fill="#A5A5A5" points="28.968,230.811 28.68,244.055 57.766,241.477 58.576,228.069 	"/>
	<linearGradient id="SVGID_9_" gradientUnits="userSpaceOnUse" x1="89.1655" y1="246.6196" x2="211.5014" y2="237.0965">
		<stop  offset="0" style="stop-color:#FFFFFF"/>
		<stop  offset="0.0032" style="stop-color:#F2F2F2"/>
		<stop  offset="0.0134" style="stop-color:#CECECD"/>
		<stop  offset="0.0249" style="stop-color:#ADADAD"/>
		<stop  offset="0.0376" style="stop-color:#929292"/>
		<stop  offset="0.0519" style="stop-color:#7C7C7C"/>
		<stop  offset="0.0686" style="stop-color:#6B6B6B"/>
		<stop  offset="0.0892" style="stop-color:#60605F"/>
		<stop  offset="0.118" style="stop-color:#595958"/>
		<stop  offset="0.1967" style="stop-color:#575756"/>
		<stop  offset="0.251" style="stop-color:#696968"/>
		<stop  offset="0.3607" style="stop-color:#999998"/>
		<stop  offset="0.5143" style="stop-color:#E5E5E5"/>
		<stop  offset="0.5633" style="stop-color:#FFFFFF"/>
		<stop  offset="0.9167" style="stop-color:#828281"/>
	</linearGradient>
	<path fill="url(#SVGID_9_)" d="M196.042,245.097c-1.577-4.296-2.557-8.917-2.841-13.767l-93.464,7.105l-0.558,10.967l7.516,3.214
		L196.042,245.097z"/>
	<polygon fill="#A5A5A5" points="92.747,253.791 96.372,253.484 96.954,239.81 93.344,240.129 	"/>
	<polygon fill="#A5A5A5" points="66.821,255.973 69.38,255.758 70.128,242.175 67.575,242.399 	"/>
	<polygon fill="#A5A5A5" points="28.641,245.831 28.379,259.387 56.838,256.812 57.656,243.274 	"/>
	<polygon fill="#A5A5A5" points="79.462,254.908 82.636,254.643 83.298,241.014 80.145,241.292 	"/>
	<polygon fill="#A5A5A5" points="92.667,255.621 92.063,269.422 95.708,269.131 96.295,255.318 	"/>
	<polygon fill="#A5A5A5" points="28.31,261.26 28.017,274.521 55.901,272.301 56.728,258.627 	"/>
	<polygon fill="#A5A5A5" points="66.719,257.793 65.956,271.5 68.524,271.295 69.279,257.578 	"/>
	<polygon fill="#A5A5A5" points="79.37,256.734 78.68,270.486 81.877,270.232 82.546,256.469 	"/>
	<g>
		<linearGradient id="SVGID_10_" gradientUnits="userSpaceOnUse" x1="370.5752" y1="205.4824" x2="313.434" y2="224.0411">
			<stop  offset="0.2883" style="stop-color:#FFFFFF"/>
			<stop  offset="0.3967" style="stop-color:#575756"/>
			<stop  offset="0.5639" style="stop-color:#595958"/>
			<stop  offset="0.6241" style="stop-color:#60605F"/>
			<stop  offset="0.6671" style="stop-color:#6B6B6A"/>
			<stop  offset="0.7018" style="stop-color:#7C7C7B"/>
			<stop  offset="0.7315" style="stop-color:#929291"/>
			<stop  offset="0.7579" style="stop-color:#ADADAD"/>
			<stop  offset="0.7817" style="stop-color:#CDCDCD"/>
			<stop  offset="0.8028" style="stop-color:#F1F1F1"/>
			<stop  offset="0.8098" style="stop-color:#FFFFFF"/>
			<stop  offset="0.9167" style="stop-color:#828281"/>
		</linearGradient>
		<path fill="url(#SVGID_10_)" d="M359.504,220.498c-2.787,9.192-11.826,16.066-21.882,16.058
			c-11.753-0.011-20.681-9.37-19.932-20.894c0.747-11.507,10.863-20.804,22.587-20.78c5.896,0.012,11.162,2.232,14.766,6.044
			l17.48-1.793c-5.396-11.487-17.156-19.344-31.281-19.38c-20.252-0.053-37.748,15.997-39.057,35.887
			c-1.313,19.937,14.128,36.137,34.465,36.143c20.312,0.008,37.755-16.143,38.983-36.035c0.257-4.17-0.219-8.174-1.319-11.898
			l-35.499,3.268c0,0-8.279,0.876-8.146,8.807c0.134,7.938,8.888,6.572,11.254,6.332
			C344.289,222.018,359.504,220.498,359.504,220.498z"/>
	</g>
	<polygon fill="#545454" points="277.187,250.146 281.474,253.557 294.883,252.502 291.024,248.517 	"/>
	<polygon fill="#545454" points="45.268,311.826 53.502,313.311 63.771,312.465 56.033,310.869 	"/>
	<polygon fill="#545454" points="58.073,310.723 66.303,312.205 76.563,311.357 68.828,309.764 	"/>
	<polygon fill="#545454" points="71.771,309.66 79.997,311.141 90.247,310.295 82.516,308.703 	"/>
	<polygon fill="#545454" points="85.866,308.434 94.088,309.914 104.327,309.068 96.6,307.479 	"/>
	<polygon fill="#A5A5A5" points="21.03,212.552 29.377,215.773 29.014,228.819 20.761,225.537 	"/>
	<polygon fill="#A5A5A5" points="20.639,227.399 29.098,230.991 28.735,244.476 20.413,240.917 	"/>
	<polygon fill="#A5A5A5" points="20.27,242.287 28.736,245.877 28.371,259.387 20.043,255.824 	"/>
	<polygon fill="#A5A5A5" points="19.858,257.4 28.332,261.26 27.967,274.521 19.635,272.262 	"/>
	<linearGradient id="SVGID_11_" gradientUnits="userSpaceOnUse" x1="191.7134" y1="250.5239" x2="199.5276" y2="166.0324">
		<stop  offset="0.0433" style="stop-color:#FFFFFF"/>
		<stop  offset="0.3413" style="stop-color:#878786"/>
		<stop  offset="0.4733" style="stop-color:#575756"/>
		<stop  offset="0.5232" style="stop-color:#696968"/>
		<stop  offset="0.6238" style="stop-color:#999998"/>
		<stop  offset="0.7648" style="stop-color:#E5E5E5"/>
		<stop  offset="0.8098" style="stop-color:#FFFFFF"/>
		<stop  offset="0.9167" style="stop-color:#828281"/>
	</linearGradient>
	<path fill="url(#SVGID_11_)" d="M196.956,195.397l5.373,3.461l-6.954,14.401c0,0-2.803-1.902-5.749-3.274
		C189.626,209.986,191.23,203.055,196.956,195.397z"/>
	<linearGradient id="SVGID_12_" gradientUnits="userSpaceOnUse" x1="188.0991" y1="250.1904" x2="195.9134" y2="165.6983">
		<stop  offset="0.0433" style="stop-color:#FFFFFF"/>
		<stop  offset="0.3413" style="stop-color:#878786"/>
		<stop  offset="0.4733" style="stop-color:#575756"/>
		<stop  offset="0.5232" style="stop-color:#696968"/>
		<stop  offset="0.6238" style="stop-color:#999998"/>
		<stop  offset="0.7648" style="stop-color:#E5E5E5"/>
		<stop  offset="0.8098" style="stop-color:#FFFFFF"/>
		<stop  offset="0.9167" style="stop-color:#828281"/>
	</linearGradient>
	<path fill="url(#SVGID_12_)" d="M194.752,215.464l-5.783-3.271c0,0-1.972,6.246-1.793,14.02c1.383,1.71,5.951,3.264,5.951,3.264
		S192.898,222.469,194.752,215.464z"/>
	<linearGradient id="SVGID_13_" gradientUnits="userSpaceOnUse" x1="190.3599" y1="250.3994" x2="198.1742" y2="165.9072">
		<stop  offset="0.0433" style="stop-color:#FFFFFF"/>
		<stop  offset="0.3413" style="stop-color:#878786"/>
		<stop  offset="0.4733" style="stop-color:#575756"/>
		<stop  offset="0.5232" style="stop-color:#696968"/>
		<stop  offset="0.6238" style="stop-color:#999998"/>
		<stop  offset="0.7648" style="stop-color:#E5E5E5"/>
		<stop  offset="0.8098" style="stop-color:#FFFFFF"/>
		<stop  offset="0.9167" style="stop-color:#828281"/>
	</linearGradient>
	<path fill="url(#SVGID_13_)" d="M187.233,228.063l5.967,3.267c0,0-0.058,5.668,2.841,13.767c-0.458,0.001-4.161-1.765-6.045-3.286
		C189.683,241.557,186.976,232.897,187.233,228.063z"/>
	<linearGradient id="SVGID_14_" gradientUnits="userSpaceOnUse" x1="198.1294" y1="251.1172" x2="205.9437" y2="166.6254">
		<stop  offset="0.0433" style="stop-color:#FFFFFF"/>
		<stop  offset="0.3413" style="stop-color:#878786"/>
		<stop  offset="0.4733" style="stop-color:#575756"/>
		<stop  offset="0.5232" style="stop-color:#696968"/>
		<stop  offset="0.6238" style="stop-color:#999998"/>
		<stop  offset="0.7648" style="stop-color:#E5E5E5"/>
		<stop  offset="0.8098" style="stop-color:#FFFFFF"/>
		<stop  offset="0.9167" style="stop-color:#828281"/>
	</linearGradient>
	<path fill="url(#SVGID_14_)" d="M196.753,246.916l-6.049-3.29c0,0,2.154,6.521,8.665,13.439c1.634,1.266,3.812,2.602,6.019,3.33
		C200.143,255.152,197.05,247.663,196.753,246.916z"/>
	<linearGradient id="SVGID_15_" gradientUnits="userSpaceOnUse" x1="90.3906" y1="262.3613" x2="212.7285" y2="252.838">
		<stop  offset="0" style="stop-color:#FFFFFF"/>
		<stop  offset="0.0032" style="stop-color:#F2F2F2"/>
		<stop  offset="0.0134" style="stop-color:#CECECD"/>
		<stop  offset="0.0249" style="stop-color:#ADADAD"/>
		<stop  offset="0.0376" style="stop-color:#929292"/>
		<stop  offset="0.0519" style="stop-color:#7C7C7C"/>
		<stop  offset="0.0686" style="stop-color:#6B6B6B"/>
		<stop  offset="0.0892" style="stop-color:#60605F"/>
		<stop  offset="0.118" style="stop-color:#595958"/>
		<stop  offset="0.1967" style="stop-color:#575756"/>
		<stop  offset="0.251" style="stop-color:#696968"/>
		<stop  offset="0.3607" style="stop-color:#999998"/>
		<stop  offset="0.5143" style="stop-color:#E5E5E5"/>
		<stop  offset="0.5633" style="stop-color:#FFFFFF"/>
		<stop  offset="0.9167" style="stop-color:#828281"/>
	</linearGradient>
	<path fill="url(#SVGID_15_)" d="M196.753,246.916l-90.127,7.54l-8.149,10.467l7.63,3.381l99.281-7.908
		C201.785,256.512,198.849,251.961,196.753,246.916z"/>
	<path fill="#A5A5A5" d="M439.64,200.145c0,0,0.915,9.598-4.945,13.627c0-3.419,0-6.837,0-6.837S439.334,204.833,439.64,200.145z"/>
	<linearGradient id="SVGID_16_" gradientUnits="userSpaceOnUse" x1="461.6709" y1="204.7446" x2="379.6199" y2="212.559">
		<stop  offset="0.0433" style="stop-color:#FFFFFF"/>
		<stop  offset="0.3413" style="stop-color:#878786"/>
		<stop  offset="0.4733" style="stop-color:#575756"/>
		<stop  offset="0.5232" style="stop-color:#696968"/>
		<stop  offset="0.6238" style="stop-color:#999998"/>
		<stop  offset="0.7648" style="stop-color:#E5E5E5"/>
		<stop  offset="0.8098" style="stop-color:#FFFFFF"/>
		<stop  offset="0.9167" style="stop-color:#828281"/>
	</linearGradient>
	<path fill="url(#SVGID_16_)" d="M458.305,209.571c-7.909-2.914-11.395,3.638-11.395,3.638
		c-2.596,10.114-12.692,17.713-24.685,17.527c-9.686-0.152-17.747-5.339-21.466-12.692c5.038-0.493,25.155-2.463,29.519-2.932
		c4.994-0.537,8.806-3.859,7.436-9.786c-1.37-5.925-7.781-5.756-7.781-5.756l-30.439,3.113c3.024-9.704,12.981-16.694,24.338-16.539
		c7.402,0.101,13.991,3.208,18.331,8.05c0,0,6.423,5.472,12.424,0.656c0.874-0.702,1.53-1.434,2.022-2.172
		c7.521-7.943,3.161-14.364,3.161-14.364c0.163,3.174-0.811,6.579-1.91,9.409c-0.203-2.274-1.261-3.942-1.261-3.942
		c-7.368-8.364-18.659-13.668-31.391-13.705c-22.503-0.066-41.719,16.379-43.098,37.135c-1.407,21.219,16.274,39.054,39.682,39.411
		c18.191,0.275,34.049-10.082,40.569-24.709C462.361,221.913,467.107,212.814,458.305,209.571z"/>
	<linearGradient id="SVGID_17_" gradientUnits="userSpaceOnUse" x1="259.7646" y1="206.9194" x2="217.274" y2="247.9449">
		<stop  offset="0.2883" style="stop-color:#FFFFFF"/>
		<stop  offset="0.3967" style="stop-color:#575756"/>
		<stop  offset="0.5639" style="stop-color:#595958"/>
		<stop  offset="0.6241" style="stop-color:#60605F"/>
		<stop  offset="0.6671" style="stop-color:#6B6B6A"/>
		<stop  offset="0.7018" style="stop-color:#7C7C7B"/>
		<stop  offset="0.7315" style="stop-color:#929291"/>
		<stop  offset="0.7579" style="stop-color:#ADADAD"/>
		<stop  offset="0.7817" style="stop-color:#CDCDCD"/>
		<stop  offset="0.8028" style="stop-color:#F1F1F1"/>
		<stop  offset="0.8098" style="stop-color:#FFFFFF"/>
		<stop  offset="0.9167" style="stop-color:#828281"/>
	</linearGradient>
	<path fill="url(#SVGID_17_)" d="M271.768,214.427l-3.974-3.388l-4.505,4.32l-41.419,4.552c0,0,3.505-12.34,16.363-14.266
		c11.79-1.764,16.232,6.842,16.232,6.842l15.832-2.275c-4.677-10.91-15.102-18.388-27.68-18.415
		c-17.905-0.04-33.434,15.036-34.67,33.708c-0.111,1.672-0.166,3.472-0.132,5.113c-1.74,0.164-3.506,0.521-5.23,1.15l4.934,2.842
		l-3.729,0.389c0,0,2.833,2.015,6.899,3.159l-1.192,0.126c4.032,12.391,15.139,21.132,28.77,21.134
		c17.955,0.002,33.443-15.166,34.612-33.838C273.123,221.671,272.72,217.917,271.768,214.427z M240.014,244.968
		c-13.849,1.275-16.047-8.215-16.047-8.215l-4.531-2.771l38.061-3.646C257.497,230.335,254.792,242.819,240.014,244.968z"/>
	<polygon fill="#545454" points="202.585,231.768 254.965,226.01 251.424,231.015 207.519,234.61 	"/>
	<g>
		<polygon fill="none" points="58.682,254.49 61.27,254.275 61.375,252.469 58.789,252.684 		"/>
		<polygon fill="none" points="72.307,238.088 75.5,237.809 75.595,236.01 72.405,236.292 		"/>
		<polygon fill="none" points="73.134,222.866 76.307,222.574 76.417,220.491 73.248,220.786 		"/>
		<polygon fill="none" points="60.484,224.031 63.062,223.794 63.185,221.719 60.607,221.958 		"/>
		<polygon fill="none" points="59.587,239.198 62.169,238.972 62.275,237.179 59.692,237.407 		"/>
		<polygon fill="none" points="84.928,252.33 88.602,252.027 88.688,250.206 85.016,250.509 		"/>
		<polygon fill="none" points="85.676,236.921 89.334,236.603 89.42,234.797 85.763,235.119 		"/>
		<polygon fill="none" points="86.417,221.642 90.061,221.307 90.161,219.216 86.519,219.554 		"/>
		<polygon fill="none" points="71.472,253.438 74.685,253.172 74.781,251.359 71.571,251.623 		"/>
		<path fill="#E42320" d="M189.626,209.986c1.668-5.197,4.136-10.063,7.247-14.446l-95.814,9.302l-0.577,13.416L189.626,209.986z"/>
		<path fill="#E42320" d="M187.176,226.214c-0.012-0.955,0-1.917,0.044-2.889c0.172-3.821,0.771-7.547,1.749-11.131l-88.578,8.161
			l-0.581,13.53L187.176,226.214z"/>
		<polygon fill="#E42320" points="85.763,235.119 89.42,234.797 90.061,221.307 86.417,221.642 		"/>
		<path fill="#E42320" d="M189.997,241.811c-1.565-4.286-2.521-8.901-2.763-13.748l-87.501,7.633l-0.586,13.642L189.997,241.811z"/>
		<polygon fill="#E42320" points="85.016,250.509 88.688,250.206 89.334,236.603 85.676,236.921 		"/>
		<polygon fill="#E42320" points="71.571,251.623 74.781,251.359 75.5,237.809 72.307,238.088 		"/>
		<polygon fill="#E42320" points="84.928,252.33 84.263,266.029 87.95,265.742 88.602,252.027 		"/>
		<polygon fill="#E42320" points="19.921,257.678 19.618,271.064 47.728,268.875 48.589,255.32 		"/>
		<polygon fill="#E42320" points="58.682,254.49 57.877,268.084 60.47,267.883 61.27,254.275 		"/>
		<polygon fill="#E42320" points="71.472,253.438 70.73,267.084 73.962,266.832 74.685,253.172 		"/>
		<path fill="#E42320" d="M190.704,243.625l-91.636,7.541l-0.591,13.756l100.892-7.857
			C195.737,253.195,192.791,248.658,190.704,243.625z"/>
		<polygon fill="#F29100" points="99.146,249.338 99.732,235.697 99.811,233.884 100.392,220.354 100.482,218.257 101.059,204.842 
			102.768,165.056 92.688,165.99 90.797,205.838 90.161,219.216 90.061,221.307 89.42,234.797 89.334,236.603 88.688,250.206 
			88.602,252.027 87.95,265.742 85.911,308.682 96.633,307.83 98.477,264.922 99.068,251.166 		"/>
		<polygon fill="#F29100" points="85.016,250.509 85.676,236.921 85.763,235.119 86.417,221.642 86.519,219.554 87.168,206.19 
			89.103,166.323 79.239,167.239 77.123,207.166 76.417,220.491 76.307,222.574 75.595,236.01 75.5,237.809 74.781,251.359 
			74.685,253.172 73.962,266.832 71.685,309.809 82.178,308.977 84.263,266.029 84.928,252.33 		"/>
		<polygon fill="#F29100" points="71.571,251.623 72.307,238.088 72.405,236.292 73.134,222.866 73.248,220.786 73.972,207.471 
			76.145,167.525 66.318,168.438 63.965,208.443 63.185,221.719 63.062,223.794 62.275,237.179 62.169,238.972 61.375,252.469 
			61.27,254.275 60.47,267.883 57.94,310.896 68.393,310.07 70.73,267.084 71.472,253.438 		"/>
		<polygon fill="#F29100" points="58.789,252.684 59.587,239.198 59.692,237.407 60.484,224.031 60.607,221.958 61.392,208.693 
			63.761,168.675 54.04,169.577 51.492,209.654 50.651,222.882 50.52,224.949 49.672,238.287 49.558,240.072 48.704,253.52 
			48.589,255.32 47.728,268.875 44.991,311.924 55.331,311.105 57.877,268.084 58.682,254.49 		"/>
	</g>
	<path fill="#305BA6" d="M203.79,234.999c3.981,12.37,15.217,21.089,29.13,21.089c18.346,0,34.4-15.162,35.858-33.864
		c0.305-3.919-0.056-7.684-0.984-11.186l-51.167,5.57c0,0,3.724-12.374,16.91-14.327c12.103-1.793,16.545,6.838,16.545,6.838
		l16.264-2.31c-4.648-10.952-15.247-18.448-28.147-18.448c-18.347,0-34.4,15.161-35.858,33.862
		c-0.274,3.506-0.306,7.591,0.244,9.544l50.366-4.761c0,0-2.931,12.495-18.072,14.653c-14.163,1.28-16.3-8.202-16.3-8.202
		L203.79,234.999z"/>
	<g>
		<path fill="#305BA6" d="M357.935,217.016c-3.047,9.243-12.483,16.154-22.835,16.154c-12.086,0-21.107-9.383-20.146-20.958
			c0.962-11.573,11.538-20.956,23.626-20.956c6.082,0,11.475,2.227,15.123,6.061l18.086-1.841
			c-5.353-11.58-17.354-19.486-31.941-19.486c-20.894,0-39.177,16.217-40.838,36.222c-1.659,20.006,13.932,36.224,34.824,36.224
			c20.895,0,39.177-16.218,40.837-36.224c0.348-4.199-0.062-8.232-1.124-11.983l-36.693,3.355c0,0-8.548,0.896-8.548,8.873
			c0,7.977,9.036,6.594,11.478,6.349C342.225,218.562,357.935,217.016,357.935,217.016z"/>
	</g>
	<path fill="#305BA6" d="M460.905,204.398c-8.14-2.931-11.913,3.692-11.913,3.692c-2.936,10.208-13.574,17.876-25.983,17.698
		c-10.015-0.143-18.237-5.354-21.924-12.754c5.219-0.504,26.087-2.519,30.619-2.999c5.188-0.549,9.217-3.907,7.936-9.89
		c-1.282-5.983-7.936-5.8-7.936-5.8l-31.604,3.203c3.34-9.803,13.81-16.893,25.582-16.763c7.68,0.084,14.444,3.213,18.836,8.101
		c0,0,6.538,5.52,12.888,0.636c6.348-4.884,2.364-11.208,2.364-11.208c-7.457-8.457-19.067-13.802-32.293-13.802
		c-23.348,0-43.598,16.687-45.445,37.635c-1.884,21.365,15.999,39.273,40.171,39.619c18.812,0.269,35.485-10.164,42.607-24.916
		C464.81,216.851,469.966,207.66,460.905,204.398z"/>
	<polygon fill="#305BA6" points="290.944,249.168 277.187,250.226 275.397,184.292 289.071,183.071 	"/>
	<g>
		<path fill="#A5A5A5" d="M102.946,167.143c-0.006-0.36-0.018-0.717-0.03-1.072l-0.015-0.488l-9.645,0.685l0.008,0.358
			c0.006,0.291,0.012,0.582,0.013,0.874c0.154,44.946-32.874,83.914-73.375,90.762l-0.252,13.393
			C66.117,264.395,103.673,218.719,102.946,167.143z"/>
		<path fill="#A5A5A5" d="M68.682,227.116c13.992-17.254,20.947-39.408,20.421-60.793l-9.864,0.916
			c0.377,36.755-24.842,70.189-58.052,77.043l-1.144,11.542C38.041,252.535,55.816,242.982,68.682,227.116z"/>
		<path fill="#A5A5A5" d="M76.408,169.086c-0.001-0.188-0.005-0.377-0.008-0.566l-0.005-0.32l-9.576,0.656l0.001,0.233
			c0.002,0.102,0.003,0.203,0.002,0.305c-0.295,27.928-20.121,53.736-45.301,59.943l-0.238,11.834
			C52.277,234.583,76.527,203.362,76.408,169.086z"/>
		<path fill="#A5A5A5" d="M51.484,207.352c8.479-10.49,13.277-23.512,13.499-36.548c0.001-0.087,0.001-0.171,0-0.256l0.002-0.261
			l-9.445,0.647l-0.001,0.157c-0.618,20.031-14.495,38.435-32.481,43.725l-0.228,11.366
			C33.639,223.519,43.75,216.921,51.484,207.352z"/>
	</g>
	<g>
		<path fill="#305BA6" d="M102.798,166.563c-0.003-0.348-0.011-0.692-0.021-1.036l-0.01-0.471l-10.079,0.935l0.005,0.348
			c0.004,0.281,0.008,0.562,0.006,0.846c-0.188,43.428-32.449,81.793-72.841,90.216l-0.223,14.861
			C65.871,263.039,103.083,216.235,102.798,166.563z"/>
		<path fill="#305BA6" d="M67.194,226.477c13.797-17.109,21.762-38.136,21.915-59c0.002-0.275,0-0.55-0.004-0.824l-0.002-0.33
			l-9.864,0.916l0,0.199c0,0.208-0.001,0.417-0.005,0.627C78.612,203.9,53.192,233.66,20.27,242.287l-0.278,13.489
			C37.875,251.385,54.483,242.239,67.194,226.477z"/>
		<path fill="#305BA6" d="M76.134,168.405c0.004-0.188,0.006-0.375,0.007-0.562l0.004-0.318l-9.827,0.912l-0.004,0.234
			c0,0.102-0.001,0.202-0.004,0.303c-0.896,27.504-20.455,51.024-45.671,58.425l-0.226,13.517
			C51.21,232.711,75.379,201.882,76.134,168.405z"/>
		<path fill="#305BA6" d="M49.633,205.752c8.538-10.593,13.626-23.621,14.115-36.562c0.003-0.084,0.005-0.17,0.006-0.254
			l0.007-0.261l-9.721,0.902l-0.004,0.157c-0.952,19.937-14.812,36.775-33.005,42.818l-0.27,12.985
			C31.679,222.355,41.837,215.425,49.633,205.752z"/>
	</g>
	<polygon fill="#545454" points="266.346,206.81 270.298,210.212 254.466,212.487 250.082,209.12 	"/>
	<polygon fill="#545454" points="371.788,195.475 372.523,199.133 355.043,200.926 353.702,197.316 	"/>
	<path fill="#A5A5A5" d="M336.771,222.563c0,0-7.773-0.312-8.467-10.106c2.728,6.321,5.658,6.932,9.933,6.443
		C336.648,220.854,336.771,222.563,336.771,222.563z"/>
	<g>
		<path fill="#305BA6" d="M128.074,305.986c0.106-1.623,0.236-3.594,0.396-5.033l-0.03,0.002c-0.512,1.379-1.084,2.881-1.775,4.531
			l-2.427,5.799l-0.995,0.072l-1.037-5.443c-0.296-1.629-0.522-3.09-0.654-4.457l-0.03,0.002c-0.192,1.459-0.484,3.406-0.772,5.18
			l-0.83,5.027l-1.251,0.094l2.012-11.734l1.674-0.121l1.102,5.525c0.262,1.406,0.451,2.664,0.586,3.859l0.03-0.004
			c0.404-1.197,0.908-2.506,1.524-4.014l2.439-5.781l1.672-0.123l-0.669,11.637l-1.297,0.096L128.074,305.986z"/>
		<path fill="#305BA6" d="M136.449,308.471c-0.081,0.729-0.131,1.438-0.119,2.002l-1.19,0.088l0.012-1.049l-0.044,0.002
			c-0.48,0.689-1.33,1.336-2.371,1.412c-1.477,0.107-2.097-1.035-1.961-2.246c0.226-2.029,1.917-3.252,4.734-3.439l0.019-0.174
			c0.076-0.676,0.052-1.932-1.443-1.803c-0.693,0.049-1.426,0.326-1.982,0.762l-0.187-1.002c0.65-0.475,1.573-0.836,2.492-0.902
			c2.23-0.164,2.577,1.549,2.392,3.213L136.449,308.471z M135.421,306.293c-1.443,0.072-3.119,0.486-3.3,2.115
			c-0.113,1.006,0.409,1.414,1.073,1.367c0.964-0.072,1.66-0.811,1.949-1.537c0.065-0.176,0.1-0.35,0.115-0.49L135.421,306.293z"/>
		<path fill="#305BA6" d="M146.021,297.561l-1.132,10.141c-0.083,0.746-0.147,1.592-0.181,2.164l-1.176,0.084l0.102-1.451
			l-0.044,0.004c-0.496,0.965-1.45,1.738-2.641,1.824c-1.764,0.131-2.942-1.486-2.659-4.035c0.296-2.789,2.009-4.6,3.772-4.727
			c1.13-0.084,1.801,0.469,2.06,1.104h0.03l0.559-5.012L146.021,297.561z M143.891,304.99c0.021-0.191,0.036-0.449,0.011-0.639
			c-0.089-0.939-0.724-1.684-1.718-1.611c-1.372,0.102-2.34,1.545-2.545,3.385c-0.189,1.697,0.393,3.047,1.809,2.945
			c0.889-0.064,1.78-0.818,2.147-1.961c0.069-0.213,0.107-0.422,0.134-0.664L143.891,304.99z"/>
		<path fill="#305BA6" d="M148.036,305.736c-0.199,2.061,0.835,2.828,2.178,2.73c0.949-0.07,1.558-0.303,2.067-0.58l0.12,1.074
			c-0.495,0.275-1.341,0.631-2.502,0.715c-2.245,0.164-3.395-1.455-3.113-3.984c0.283-2.531,1.799-4.602,3.924-4.758
			c2.396-0.176,2.748,2.174,2.575,3.717c-0.035,0.311-0.075,0.537-0.125,0.713L148.036,305.736z M152.047,304.361
			c0.121-0.953-0.072-2.438-1.564-2.328c-1.357,0.1-2.086,1.545-2.309,2.609L152.047,304.361z"/>
		<path fill="#305BA6" d="M160.279,298.07c-0.058,0.52-0.421,0.961-0.948,0.998c-0.482,0.035-0.752-0.357-0.695-0.877
			c0.059-0.52,0.439-0.979,0.936-1.014C160.055,297.143,160.339,297.533,160.279,298.07z M157.603,308.926l0.937-8.389l1.326-0.098
			l-0.936,8.391L157.603,308.926z"/>
		<path fill="#305BA6" d="M161.812,302.551c0.099-0.885,0.161-1.576,0.192-2.268l1.177-0.084l-0.08,1.379h0.031
			c0.448-0.809,1.378-1.648,2.585-1.736c1.01-0.074,2.5,0.506,2.179,3.383l-0.558,4.992l-1.326,0.098l0.54-4.838
			c0.15-1.352-0.161-2.447-1.411-2.354c-0.86,0.061-1.617,0.82-1.953,1.688c-0.082,0.195-0.142,0.457-0.17,0.719l-0.563,5.043
			l-1.325,0.094L161.812,302.551z"/>
		<path fill="#305BA6" d="M175.345,296.047l-1.303,11.682l-1.326,0.096l1.303-11.68L175.345,296.047z"/>
		<path fill="#305BA6" d="M179.285,297.033l-0.224,2.01l1.899-0.141l-0.129,1.162l-1.899,0.139l-0.506,4.523
			c-0.115,1.039,0.075,1.611,0.813,1.559c0.362-0.027,0.576-0.076,0.78-0.16l-0.07,1.156c-0.267,0.121-0.685,0.256-1.198,0.295
			c-0.618,0.043-1.089-0.162-1.36-0.539c-0.31-0.441-0.378-1.176-0.267-2.164l0.51-4.576l-1.131,0.082l0.13-1.16l1.131-0.082
			l0.173-1.561L179.285,297.033z"/>
		<path fill="#305BA6" d="M186.863,304.801c-0.081,0.729-0.13,1.436-0.119,2.004l-1.19,0.086l0.012-1.049l-0.045,0.002
			c-0.48,0.688-1.331,1.336-2.37,1.412c-1.477,0.105-2.097-1.035-1.962-2.248c0.227-2.027,1.917-3.25,4.735-3.439l0.019-0.174
			c0.076-0.676,0.052-1.93-1.443-1.803c-0.693,0.051-1.426,0.328-1.983,0.764l-0.188-1.002c0.651-0.475,1.573-0.836,2.493-0.904
			c2.231-0.16,2.578,1.551,2.392,3.213L186.863,304.801z M185.835,302.623c-1.443,0.07-3.118,0.486-3.3,2.115
			c-0.113,1.006,0.41,1.414,1.073,1.365c0.964-0.07,1.66-0.807,1.95-1.535c0.064-0.176,0.1-0.352,0.114-0.488L185.835,302.623z"/>
		<path fill="#305BA6" d="M190.149,294.35l1.326-0.098l-1.373,12.307l-1.327,0.096L190.149,294.35z"/>
		<path fill="#305BA6" d="M193.75,297.973l1.029,4.842c0.119,0.543,0.227,1.188,0.292,1.682l0.03-0.002
			c0.192-0.514,0.414-1.166,0.662-1.785l1.998-5.029l1.401-0.102l-2.656,6.125c-1.271,2.947-2.082,4.451-3.088,5.434
			c-0.734,0.689-1.397,0.996-1.736,1.088l-0.189-1.24c0.344-0.146,0.809-0.418,1.243-0.828c0.399-0.357,0.902-0.979,1.305-1.779
			c0.078-0.162,0.137-0.285,0.147-0.373c0.01-0.086-0.007-0.207-0.062-0.391l-1.821-7.535L193.75,297.973z"/>
	</g>
	<g>
		<path fill="#878787" d="M49.103,345.484l-1.479,4.568h-1.903l4.863-14.525h2.199l4.862,14.525h-1.966l-1.522-4.568H49.103z
			 M53.797,344.02l-1.417-4.182c-0.316-0.949-0.528-1.811-0.74-2.65h-0.042c-0.212,0.84-0.422,1.744-0.719,2.629l-1.396,4.203
			H53.797z"/>
		<path fill="#878787" d="M69.36,349.6c-0.656,0.346-2.03,0.689-3.764,0.689c-4.018,0-7.02-2.586-7.02-7.369
			c0-4.57,3.024-7.631,7.442-7.631c1.755,0,2.897,0.389,3.384,0.648l-0.466,1.529c-0.676-0.346-1.67-0.604-2.854-0.604
			c-3.341,0-5.561,2.176-5.561,5.992c0,3.576,2.009,5.84,5.456,5.84c1.141,0,2.283-0.236,3.023-0.604L69.36,349.6z"/>
		<path fill="#878787" d="M81.18,349.6c-0.656,0.346-2.03,0.689-3.763,0.689c-4.018,0-7.02-2.586-7.02-7.369
			c0-4.57,3.023-7.631,7.442-7.631c1.755,0,2.897,0.389,3.383,0.648l-0.465,1.529c-0.677-0.346-1.67-0.604-2.854-0.604
			c-3.341,0-5.561,2.176-5.561,5.992c0,3.576,2.009,5.84,5.456,5.84c1.142,0,2.283-0.236,3.023-0.604L81.18,349.6z"/>
		<path fill="#878787" d="M90.865,343.242h-5.519v5.238h6.174v1.572h-8.035v-14.525h7.717v1.572h-5.857v4.59h5.519V343.242z"/>
		<path fill="#878787" d="M93.677,347.77c0.824,0.537,2.009,0.947,3.277,0.947c1.881,0,2.981-1.014,2.981-2.479
			c0-1.336-0.761-2.133-2.685-2.867c-2.326-0.861-3.763-2.111-3.763-4.137c0-2.264,1.839-3.945,4.609-3.945
			c1.438,0,2.516,0.346,3.129,0.713l-0.507,1.529c-0.443-0.279-1.395-0.689-2.685-0.689c-1.945,0-2.686,1.186-2.686,2.178
			c0,1.357,0.867,2.023,2.834,2.801c2.41,0.947,3.616,2.135,3.616,4.268c0,2.24-1.607,4.201-4.969,4.201
			c-1.374,0-2.875-0.43-3.637-0.947L93.677,347.77z"/>
		<path fill="#878787" d="M104.102,347.77c0.824,0.537,2.008,0.947,3.276,0.947c1.882,0,2.981-1.014,2.981-2.479
			c0-1.336-0.761-2.133-2.685-2.867c-2.326-0.861-3.764-2.111-3.764-4.137c0-2.264,1.84-3.945,4.61-3.945
			c1.437,0,2.515,0.346,3.129,0.713l-0.508,1.529c-0.443-0.279-1.395-0.689-2.685-0.689c-1.945,0-2.685,1.186-2.685,2.178
			c0,1.357,0.866,2.023,2.833,2.801c2.41,0.947,3.615,2.135,3.615,4.268c0,2.24-1.606,4.201-4.969,4.201
			c-1.374,0-2.875-0.43-3.636-0.947L104.102,347.77z"/>
		<path fill="#878787" d="M126.938,342.639c0,4.979-2.981,7.65-6.619,7.65c-3.785,0-6.406-2.996-6.406-7.391
			c0-4.611,2.791-7.629,6.597-7.629C124.421,335.27,126.938,338.307,126.938,342.639z M115.857,342.855
			c0,3.123,1.649,5.904,4.567,5.904c2.918,0,4.567-2.738,4.567-6.033c0-2.91-1.48-5.928-4.546-5.928
			S115.857,339.688,115.857,342.855z"/>
		<path fill="#878787" d="M129.327,335.721c0.931-0.172,2.284-0.303,3.531-0.303c1.966,0,3.256,0.391,4.123,1.186
			c0.698,0.648,1.122,1.639,1.122,2.781c0,1.896-1.185,3.168-2.665,3.686v0.064c1.078,0.389,1.733,1.422,2.072,2.932
			c0.465,2.025,0.803,3.428,1.099,3.986h-1.903c-0.232-0.43-0.549-1.658-0.93-3.469c-0.423-2.006-1.206-2.76-2.875-2.824h-1.734
			v6.293h-1.84V335.721z M131.167,342.336h1.881c1.966,0,3.214-1.098,3.214-2.758c0-1.875-1.332-2.693-3.277-2.693
			c-0.888,0-1.501,0.064-1.818,0.15V342.336z"/>
		<path fill="#878787" d="M142.543,335.527v14.525h-1.861v-14.525H142.543z"/>
		<path fill="#878787" d="M152.079,335.527v14.525h-1.861v-14.525H152.079z"/>
		<path fill="#878787" d="M155.293,350.053v-14.525h2.03l4.545,7.348c1.036,1.703,1.882,3.234,2.537,4.721l0.064-0.021
			c-0.169-1.939-0.211-3.707-0.211-5.969v-6.078h1.733v14.525h-1.86l-4.525-7.369c-0.994-1.617-1.945-3.277-2.643-4.85l-0.063,0.021
			c0.105,1.832,0.127,3.576,0.127,5.99v6.207H155.293z"/>
		<path fill="#878787" d="M173.668,335.527h7.675v1.572h-5.814v4.828h5.371v1.553h-5.371v6.572h-1.86V335.527z"/>
		<path fill="#878787" d="M185.826,335.527v14.525h-1.86v-14.525H185.826z"/>
		<path fill="#878787" d="M189.02,335.527h1.86v12.953h6.09v1.572h-7.95V335.527z"/>
		<path fill="#878787" d="M210.375,342.639c0,4.979-2.982,7.65-6.619,7.65c-3.785,0-6.406-2.996-6.406-7.391
			c0-4.611,2.791-7.629,6.597-7.629C207.859,335.27,210.375,338.307,210.375,342.639z M199.295,342.855
			c0,3.123,1.649,5.904,4.568,5.904c2.917,0,4.566-2.738,4.566-6.033c0-2.91-1.479-5.928-4.545-5.928
			C200.818,336.799,199.295,339.688,199.295,342.855z"/>
		<path fill="#878787" d="M230.967,343.674c-0.105-2.025-0.232-4.482-0.232-6.271h-0.043c-0.507,1.68-1.079,3.512-1.797,5.518
			l-2.517,7.047h-1.395l-2.326-6.918c-0.676-2.068-1.227-3.922-1.627-5.646h-0.043c-0.042,1.809-0.147,4.225-0.274,6.422
			l-0.382,6.229h-1.754l0.993-14.525h2.349l2.432,7.025c0.591,1.789,1.056,3.385,1.437,4.893h0.043
			c0.381-1.467,0.888-3.061,1.522-4.893l2.537-7.025h2.347l0.888,14.525h-1.819L230.967,343.674z"/>
		<path fill="#878787" d="M243.315,343.242h-5.518v5.238h6.173v1.572h-8.035v-14.525h7.717v1.572h-5.855v4.59h5.518V343.242z"/>
		<path fill="#878787" d="M249.405,337.121h-4.334v-1.594h10.549v1.594h-4.354v12.932h-1.86V337.121z"/>
		<path fill="#878787" d="M257.927,345.484l-1.48,4.568h-1.903l4.863-14.525h2.199l4.863,14.525h-1.966l-1.522-4.568H257.927z
			 M262.62,344.02l-1.416-4.182c-0.317-0.949-0.528-1.811-0.741-2.65h-0.041c-0.213,0.84-0.422,1.744-0.719,2.629l-1.396,4.203
			H262.62z"/>
		<path fill="#878787" d="M268.541,335.527h1.86v12.953h6.091v1.572h-7.951V335.527z"/>
		<path fill="#878787" d="M278.521,335.527h1.86v12.953h6.09v1.572h-7.95V335.527z"/>
		<path fill="#878787" d="M290.363,335.527v14.525h-1.861v-14.525H290.363z"/>
		<path fill="#878787" d="M303.515,349.6c-0.656,0.346-2.029,0.689-3.764,0.689c-4.019,0-7.02-2.586-7.02-7.369
			c0-4.57,3.023-7.631,7.442-7.631c1.755,0,2.896,0.389,3.384,0.648l-0.466,1.529c-0.678-0.346-1.671-0.604-2.854-0.604
			c-3.342,0-5.562,2.176-5.562,5.992c0,3.576,2.009,5.84,5.455,5.84c1.143,0,2.282-0.236,3.023-0.604L303.515,349.6z"/>
		<path fill="#878787" d="M317.576,342.639c0,4.979-2.98,7.65-6.618,7.65c-3.784,0-6.406-2.996-6.406-7.391
			c0-4.611,2.791-7.629,6.596-7.629C315.061,335.27,317.576,338.307,317.576,342.639z M306.497,342.855
			c0,3.123,1.648,5.904,4.567,5.904c2.917,0,4.566-2.738,4.566-6.033c0-2.91-1.479-5.928-4.546-5.928
			S306.497,339.688,306.497,342.855z"/>
		<path fill="#878787" d="M324.197,342.705c0-1.145,0.78-2.006,1.873-2.006s1.84,0.828,1.84,2.006c0,1.146-0.747,2.004-1.903,2.004
			C324.946,344.709,324.197,343.852,324.197,342.705z"/>
		<path fill="#878787" d="M336.839,349.723l-1.224-14.053h1.896l0.485,7.111c0.125,1.752,0.208,3.502,0.233,4.859h0.042
			c0.454-1.398,1.161-3.066,1.933-4.881l3.013-7.09h1.875l0.522,7.131c0.118,1.668,0.216,3.338,0.179,4.818h0.042
			c0.541-1.545,1.188-3.109,1.907-4.859l2.994-7.09h1.835l-6.236,14.053h-1.875l-0.552-7.316c-0.14-1.795-0.202-3.17-0.156-4.588
			h-0.041c-0.455,1.396-1.01,2.773-1.821,4.588l-3.177,7.316H336.839z"/>
		<path fill="#878787" d="M356.095,335.67l-2.301,14.053h-1.812l2.299-14.053H356.095z"/>
		<path fill="#878787" d="M359.197,335.857c0.933-0.166,2.271-0.291,3.488-0.291c1.917,0,3.111,0.375,3.829,1.146
			c0.576,0.627,0.831,1.584,0.651,2.689c-0.3,1.836-1.655,3.066-3.179,3.566l-0.01,0.062c0.988,0.375,1.463,1.377,1.554,2.836
			c0.132,1.959,0.239,3.314,0.44,3.855h-1.854c-0.158-0.416-0.271-1.605-0.357-3.355c-0.094-1.939-0.737-2.668-2.354-2.73h-1.689
			l-0.997,6.086h-1.79L359.197,335.857z M359.941,342.26h1.834c1.915,0,3.306-1.064,3.568-2.67c0.298-1.814-0.873-2.605-2.768-2.605
			c-0.864,0-1.472,0.062-1.795,0.145L359.941,342.26z"/>
		<path fill="#878787" d="M376.261,343.135h-5.379l-0.829,5.068h6.016l-0.249,1.52h-7.829l2.302-14.053h7.519l-0.248,1.521h-5.707
			l-0.728,4.441h5.377L376.261,343.135z"/>
		<path fill="#878787" d="M384.789,335.838c0.89-0.146,2.043-0.271,3.483-0.271c1.773,0,3.001,0.418,3.704,1.166
			c0.634,0.668,0.939,1.689,0.733,2.941c-0.208,1.271-0.741,2.273-1.563,3.002c-1.135,1.023-2.745,1.545-4.495,1.545
			c-0.535,0-1.026-0.023-1.422-0.127l-0.921,5.629h-1.793L384.789,335.838z M385.472,342.613c0.374,0.105,0.862,0.146,1.458,0.146
			c2.165,0,3.66-1.084,3.971-2.98c0.309-1.879-0.864-2.773-2.821-2.773c-0.782,0-1.391,0.061-1.713,0.145L385.472,342.613z"/>
		<path fill="#878787" d="M395.748,335.857c0.932-0.166,2.271-0.291,3.486-0.291c1.916,0,3.112,0.375,3.831,1.146
			c0.576,0.627,0.831,1.584,0.65,2.689c-0.301,1.836-1.655,3.066-3.18,3.566l-0.01,0.062c0.989,0.375,1.463,1.377,1.555,2.836
			c0.131,1.959,0.24,3.314,0.44,3.855h-1.855c-0.157-0.416-0.271-1.605-0.356-3.355c-0.095-1.939-0.738-2.668-2.354-2.73h-1.689
			l-0.997,6.086h-1.793L395.748,335.857z M396.491,342.26h1.834c1.914,0,3.305-1.064,3.568-2.67
			c0.297-1.814-0.872-2.605-2.768-2.605c-0.864,0-1.474,0.062-1.795,0.145L396.491,342.26z"/>
		<path fill="#878787" d="M417.663,342.551c-0.789,4.816-4.116,7.402-7.66,7.402c-3.688,0-5.768-2.898-5.071-7.152
			c0.73-4.461,3.927-7.381,7.636-7.381C416.38,335.42,418.35,338.361,417.663,342.551z M406.834,342.76
			c-0.495,3.023,0.672,5.713,3.513,5.713c2.844,0,4.886-2.646,5.408-5.838c0.46-2.814-0.504-5.732-3.492-5.732
			C409.276,336.902,407.335,339.693,406.834,342.76z"/>
		<path fill="#878787" d="M421.084,335.879c1.123-0.188,2.44-0.312,3.862-0.312c2.577,0,4.306,0.625,5.338,1.752
			c1.069,1.146,1.524,2.773,1.152,5.045c-0.376,2.293-1.405,4.17-2.893,5.463c-1.534,1.312-3.792,2.023-6.492,2.023
			c-1.299,0-2.339-0.062-3.228-0.168L421.084,335.879z M420.843,348.307c0.442,0.062,1.098,0.082,1.798,0.082
			c3.854,0,6.267-2.168,6.89-5.963c0.564-3.314-0.946-5.42-4.737-5.42c-0.927,0-1.643,0.082-2.131,0.186L420.843,348.307z"/>
		<path fill="#878787" d="M436.633,335.67l-1.366,8.342c-0.512,3.127,0.649,4.461,2.503,4.461c2.041,0,3.605-1.375,4.11-4.461
			l1.365-8.342h1.814l-1.345,8.217c-0.707,4.316-3.239,6.066-6.247,6.066c-2.844,0-4.721-1.625-4.004-6.006l1.355-8.277H436.633z"/>
		<path fill="#878787" d="M455.624,349.285c-0.693,0.334-2.087,0.668-3.776,0.668c-3.915,0-6.43-2.502-5.673-7.131
			c0.724-4.42,4.154-7.381,8.46-7.381c1.71,0,2.762,0.375,3.194,0.623l-0.694,1.482c-0.606-0.334-1.532-0.584-2.686-0.584
			c-3.256,0-5.765,2.107-6.369,5.797c-0.567,3.461,1.033,5.65,4.391,5.65c1.112,0,2.263-0.229,3.042-0.584L455.624,349.285z"/>
		<path fill="#878787" d="M463.081,337.213h-4.224l0.254-1.543h10.278l-0.252,1.543h-4.243l-2.049,12.51h-1.812L463.081,337.213z"/>
		<path fill="#878787" d="M468.646,347.516c0.718,0.52,1.807,0.916,3.044,0.916c1.834,0,3.064-0.98,3.297-2.398
			c0.211-1.293-0.404-2.062-2.162-2.773c-2.13-0.834-3.332-2.043-3.011-4.004c0.358-2.189,2.415-3.814,5.114-3.814
			c1.399,0,2.397,0.334,2.937,0.688l-0.735,1.48c-0.39-0.27-1.252-0.666-2.51-0.666c-1.895,0-2.803,1.146-2.961,2.104
			c-0.214,1.314,0.525,1.961,2.317,2.711c2.199,0.918,3.186,2.066,2.847,4.129c-0.354,2.17-2.23,4.066-5.507,4.066
			c-1.339,0-2.733-0.416-3.392-0.918L468.646,347.516z"/>
	</g>
	<g>
		<path fill="#305BA6" d="M467.586,150.852h-3.478v-1.255h8.464v1.255h-3.494v10.177h-1.492V150.852z"/>
		<path fill="#305BA6" d="M483.478,156.008c-0.084-1.594-0.186-3.528-0.186-4.936h-0.034c-0.408,1.324-0.864,2.765-1.442,4.343
			l-2.018,5.546h-1.12l-1.865-5.445c-0.543-1.628-0.982-3.087-1.305-4.444h-0.034c-0.033,1.425-0.119,3.324-0.222,5.055
			l-0.306,4.902h-1.407l0.797-11.432h1.884l1.95,5.53c0.475,1.407,0.848,2.663,1.152,3.85h0.036c0.305-1.153,0.712-2.409,1.22-3.85
			l2.035-5.53h1.883l0.713,11.432h-1.459L483.478,156.008z"/>
	</g>
</g>
</svg>
