<?xml version="1.0" encoding="utf-8"?>
<!-- Generator: Adobe Illustrator 21.0.2, SVG Export Plug-In . SVG Version: 6.00 Build 0)  -->
<svg version="1.1" id="Calque_1" xmlns="http://www.w3.org/2000/svg" xmlns:xlink="http://www.w3.org/1999/xlink" x="0px" y="0px"
	 viewBox="0 0 500 418" style="enable-background:new 0 0 500 418;" xml:space="preserve">
<style type="text/css">
	.st0{fill:#0D0802;}
	.st1{fill:#F29100;}
	.st2{fill:#2D5CC4;}
</style>
<path class="st0" d="M103.7,308.9c-4.3,0-8.3,4-8.9,9c-0.6,5,2.4,9,6.7,9s8.3-4,8.9-9C111,312.9,108,308.9,103.7,308.9z"/>
<path class="st0" d="M99.3,335.3c-3.1,0.3-8.1-0.2-7,9.1c0.3,2.6-0.1,6.6-0.6,9.7c-0.5,3.1-5.3,31.7-6.6,38.1
	c-1.3,6.4-2.2,11.2,3.9,12.1c6.1,0.9,8.2-5.3,8-9.5c-0.2-4.1,6.2-39.1,7.6-49C106,335.9,105.4,334.9,99.3,335.3z"/>
<path class="st0" d="M236.8,308.9c-4.3,0-8.3,4-8.9,9c-0.6,5,2.4,9,6.7,9c4.3,0,8.3-4,8.9-9S241.1,308.9,236.8,308.9z"/>
<path class="st0" d="M232.5,335.3c-3.1,0.3-8.1-0.2-7,9.1c0.3,2.6-0.1,6.6-0.6,9.7c-0.5,3.1-5.3,31.7-6.6,38.1
	c-1.3,6.4-2.2,11.2,3.9,12.1c6.1,0.9,8.2-5.3,8-9.5c-0.2-4.1,6.2-39.1,7.6-49C239.1,335.9,238.5,334.9,232.5,335.3z"/>
<path class="st0" d="M373.6,308.9c-4.3,0-8.3,4-8.9,9c-0.6,5,2.4,9,6.7,9c4.3,0,8.3-4,8.9-9C381,312.9,377.9,308.9,373.6,308.9z"/>
<path class="st0" d="M369.3,335.3c-3.1,0.3-8.1-0.2-7,9.1c0.3,2.6-0.1,6.6-0.6,9.7c-0.5,3.1-5.3,31.7-6.6,38.1
	c-1.3,6.4-2.2,11.2,3.9,12.1c6.1,0.9,8.2-5.3,8-9.5c-0.2-4.1,6.2-39.1,7.6-49C375.9,335.9,375.4,334.9,369.3,335.3z"/>
<path class="st0" d="M269.8,396.8c-2.1,0.3-9.7,0.9-9-7.4c0.5-5.8,1.7-13.4,2.5-17.5c2.6-9.5,6.7-38.7,7.9-48
	c1.3-9.8,0.8-10.9-5.3-10.5c-3.1,0.3-8.1-0.2-7,9.1c0.3,2.6-0.1,6.6-0.6,9.7c-0.5,2.9-4.7,27.9-6.3,36.5l0,0c0,0-11.2,36.1,9.6,37
	c13.9,0.6,14.9-7.8,14.1-9.3C274.6,394.2,271.9,396.4,269.8,396.8z"/>
<path class="st0" d="M195,332.4c-11,0-21.4,12.9-24.3,21.2c-0.7,1.8-0.5-1.4-0.7-4.6c-0.2-3.2-2.5-16.6-13.1-16.6
	c-9.7,0-17.3,8.2-23.2,19.9c0.4-2.7,0.8-4.9,1-6.5c1.3-9.8,0.8-10.9-5.3-10.5c-3.1,0.3-8.1-0.2-7,9.1c0.3,2.6-0.1,6.6-0.6,9.7
	c-0.5,3.1-5.3,31.7-6.6,38.1c-1.3,6.4-2.2,11.2,3.9,12.1c6.1,0.9,8.2-5.3,8-9.5c-0.1-2.6,2.4-17.4,4.6-30.5
	c2.6-8.5,8.5-21.7,21.5-20.9c6.7,0.3,4.7,9.4,3.9,15.9c-0.9,6.4-3.7,27.1-5.7,33.6c-2,6.4-0.9,11.5,4,11.5s7.7-2.8,8.3-11.7
	c0.6-9,3.8-30.7,9.6-39.1c5.8-8.4,14.8-13,20-9.3s0.3,16.9-0.9,26.6c-1.2,9.7-3.8,21-4.9,25.3c-1.1,4.3,0.3,8.3,4.9,8.3
	s7.6-2.9,7.8-9.9c0.3-7,3.4-24.4,6.1-38.3C209,342.2,206.1,332.4,195,332.4z"/>
<path class="st0" d="M67.6,312.4c-10.7-0.2-40.2,0.7-41.5,28.2c-0.6,12.2,7.4,15.7,20.1,22.8c12.6,7.1,14.4,12.7,12.3,21.1
	c-2.4,9.8-14.6,12.5-22.3,12.5c-7.7,0-11.4-1.7-13.3-2.9s-5.3-1.3-7.2,2.5c-1.9,3.8,1.5,8.5,6.9,9.5s41.7,3.3,49.7-25.6
	c2.3-8.3-0.3-16-12.9-23.1s-22.9-10.6-20-22.8c4.4-18.6,28.1-12.5,32.4-11c3.9,1.4,7.6,0.8,8-3.8C80,315.4,78.3,312.6,67.6,312.4z"
	/>
<path class="st0" d="M424.6,333.3c-9.2-0.1-17.7,13.2-22,21.3c0.6-3.7,1.1-6.8,1.4-8.9c1.3-9.8,0.8-10.9-5.3-10.5
	c-3.1,0.3-8.1-0.2-7,9.1c0.3,2.6-0.1,6.6-0.6,9.7c-0.5,3.1-5.3,31.7-6.6,38.1c-1.3,6.4-2.2,11.2,3.9,12.1c6.1,0.9,8.2-5.3,8-9.5
	c-0.1-2.8,2.7-19.3,5-32.9c3.5-6.9,9.8-14.1,12.8-15.4c3.9-1.6,12.4-4.7,12.8-7.8C427.4,335,427.2,333.3,424.6,333.3z"/>
<path class="st0" d="M467.9,332.3c-13.4-0.9-39.9,7.8-41.5,44.2s27.7,30.9,36.5,29.3c8.8-1.6,9-10.2,6.8-10.5
	c-2.2-0.3-7.3,3.1-15,3.1c-18.3,0-15.2-21.7-15.2-21.7c38.8,0.3,44.2-19.3,45-26.2C485.3,343.5,481.2,333.2,467.9,332.3z
	 M471.9,352.5c-7.4,19.8-32.2,21.6-32.2,21.6C445.7,327.2,477.3,337.7,471.9,352.5z"/>
<path class="st0" d="M343.3,334.4c-1.6,0-4.5,0.5-5.1,1.9c0,0-25.7-13.3-46,15.7c-20.4,29-8.7,54.2,7.5,54.2c16.2,0,28-23.6,28-23.6
	s-6.3,21.4,3.4,22.2c9.8,0,5.4-6.6,6-11.6s7.1-43.6,8.6-50.2C347.2,336.5,344.8,334.4,343.3,334.4z M326.9,376.3
	c-2.4,8.3-7.7,19.7-22.4,18.6c-14.7-1-9.3-23.3-6.4-31.7s11.3-29.8,35.5-20.2C333.6,343,329.3,368,326.9,376.3z"/>
<path class="st1" d="M375.1,43.8C351.5,18,296.3-2.4,251.5,31.4c-67.2,50.6-24.8,111.8-86.1,143.5c-35.8,14.7-76.7-20.2-89.4-52.4
	S60.3,68,37.2,77.4c-20.3,8.3-10.8,63.7,17.7,102.3s81.6,70.4,131.7,41.4c71.1-41.2,36.5-121,95.2-162.1
	C333,23.1,375.1,43.8,375.1,43.8z"/>
<path class="st2" d="M122.1,239.4c23.7,25.7,78.9,45.9,123.7,12c67-50.8,24.4-111.8,85.6-143.7c35.7-14.8,76.8,20,89.6,52.1
	s15.9,54.4,38.9,44.9c20.3-8.3,10.6-63.7-18-102.2C413.2,64,360.1,32.4,310,61.6c-71,41.4-36.1,121-94.7,162.4
	C164.3,260,122.1,239.4,122.1,239.4z"/>
</svg>
