<?xml version="1.0" encoding="utf-8"?>
<!-- Generator: Adobe Illustrator 19.1.0, SVG Export Plug-In . SVG Version: 6.00 Build 0)  -->
<svg version="1.1" id="Calque_1" xmlns="http://www.w3.org/2000/svg" xmlns:xlink="http://www.w3.org/1999/xlink" x="0px" y="0px"
	 viewBox="-345 170.9 500 500" style="enable-background:new -345 170.9 500 500;" xml:space="preserve">
<style type="text/css">
	.st0{fill:#0D0802;}
	.st1{fill:#24A09D;}
</style>
<path class="st0" d="M-245.2,420.2c-2-0.9-7.1-2.2-10.8-3.1c-3.7-0.8-4-1.9-4.2-3.2c-0.2-1.3-0.2-2.9-0.1-3.6c0.1-3.1,3.8-3,7.3-2.9
	c3.5,0.1,11.2,1.2,11.2,1.2l1-8.7c-4-1-11.2-2.2-19.6-1.3c-6.9,0.7-9,4.3-9.5,6.4c-0.6,2.1-0.9,5.9-0.6,10.7
	c0.3,4.9,3.3,7.4,6.5,8.5c3.2,1.1,7.4,1.8,10.6,2.7c3.2,0.9,3.7,3.2,3.3,6.9s-3.6,3.2-6.4,3.3c-5.8,0.2-13.3-2.3-13.3-2.3
	s-0.7,3.5-1.6,8c9,4,19.8,3.3,24.5,1.8c7-2.3,7.3-8.6,7.2-15.4C-240,422.8-243.2,421.1-245.2,420.2z"/>
<path class="st0" d="M-49.4,420.2c-2-0.9-7.1-2.2-10.8-3.1c-3.7-0.8-4-1.9-4.2-3.2c-0.2-1.3-0.2-2.9-0.1-3.6c0.1-3.1,3.8-3,7.3-2.9
	c3.5,0.1,11.2,1.2,11.2,1.2l1-8.7c-4-1-11.2-2.2-19.6-1.3c-6.9,0.7-9,4.3-9.5,6.4c-0.6,2.1-0.9,5.9-0.6,10.7s3.3,7.4,6.5,8.5
	c3.2,1.1,7.4,1.8,10.6,2.7c3.2,0.9,3.7,3.2,3.3,6.9c-0.4,3.7-3.6,3.2-6.4,3.3c-5.8,0.2-13.3-2.3-13.3-2.3s-0.7,3.5-1.6,8
	c9,4,19.8,3.3,24.5,1.8c7-2.3,7.3-8.6,7.2-15.4C-44.1,422.8-47.4,421.1-49.4,420.2z"/>
<rect x="-233.5" y="399.3" class="st0" width="10.5" height="46.1"/>
<rect x="109.6" y="399.3" class="st0" width="10.5" height="46.1"/>
<polygon class="st0" points="132.5,421.7 145.3,399.3 133.6,399.3 121.2,421.8 134.6,445.4 146.3,445.4 "/>
<polygon class="st0" points="30.5,408.4 30.5,408.4 30.5,445.4 30.5,445.4 41,445.4 60,445.4 60,436.3 41,436.3 41,426 58.4,426 
	58.4,417 41,417 41,408.4 60,408.4 60,399.3 30.5,399.3 "/>
<polygon class="st0" points="-92.1,430.6 -107.2,399.3 -110.2,399.3 -118,399.3 -120.1,399.3 -120.1,445.4 -110.2,445.4 
	-110.2,414.9 -94.9,445.4 -92.1,445.4 -85,445.4 -82.2,445.4 -82.2,399.3 -92.1,399.3 "/>
<polygon class="st0" points="7,432.4 -0.9,399.3 -13.9,399.3 -21.7,432.4 -29.6,399.3 -39.8,399.3 -29.1,445.4 -18.7,445.4 
	-15.2,445.4 -7.4,409.5 0.4,445.4 14.3,445.4 25,399.3 14.9,399.3 "/>
<polygon class="st0" points="-181.2,399.2 -192.3,428.5 -203.4,399.2 -214,399.2 -215.8,445.4 -205.7,445.4 -205.2,419.6 
	-196.9,439.5 -187.7,439.5 -179.5,419.8 -179,445.4 -168.9,445.4 -170.7,399.2 "/>
<path class="st0" d="M101.1,418.2C101.1,418.1,101.1,418.1,101.1,418.2l0-6.1c0,0,0,0,0,0c0-9-5.2-11.1-8.3-12
	c-2.1-0.6-5-0.8-6.5-0.8v0H66.5v0.1v9.1v13.7v9v14.3H77v-14.3h5.7L93,445.4h12.5l-11.2-15.7C97.3,428.5,101.1,425.8,101.1,418.2z
	 M90.7,417.3c0,5.1-4.9,4.5-4.9,4.5H77v-13.3h9.2v-0.1c1.2,0,4.4,0.3,4.4,4.5C90.7,414.8,90.7,415.4,90.7,417.3z"/>
<path class="st0" d="M-127.2,412.1c0,0,0-0.4,0-1.1v-0.2h0c-0.4-3.3-2.9-12.1-17.8-12.4c0,0,0,0,0,0c0,0-0.1,0-0.1,0
	c0,0-0.1,0-0.1,0c0,0,0,0,0,0c-14.9,0.3-17.4,9.1-17.8,12.4h-0.1v0.7c0,0.4,0,0.6,0,0.6l0,0v20.3l0,0c0,0,0,0.2,0,0.6v0.8h0.1
	c0.4,3.4,3,12,17.8,12.3c0,0,0,0,0,0c0,0,0.1,0,0.1,0s0.1,0,0.1,0c0,0,0,0,0,0c14.8-0.3,17.3-8.9,17.8-12.3h0v-0.3
	c0.1-0.7,0-1.1,0-1.1l0,0L-127.2,412.1L-127.2,412.1z M-137.7,432.4c-0.9,4-5.2,4.5-7,4.5c0,0,0,0,0,0s-0.1,0-0.4,0
	c-0.2,0-0.4,0-0.4,0s0,0,0,0c-1.9,0-6.4-0.5-7.1-5.1v-19c0.7-4.6,5.2-5.1,7.1-5.1c0,0,0,0,0,0s0.1,0,0.4,0c0.2,0,0.4,0,0.4,0
	s0,0,0,0c1.8,0,6.1,0.5,7,4.5V432.4z"/>
<polygon class="st1" points="-286,398.1 -312.3,398.1 -333.1,398.1 -333.1,415.3 -333.1,423.2 -312.3,423.2 -312.3,415.3 
	-286,415.3 "/>
<polygon class="st1" points="-333,445.4 -306.7,445.4 -285.9,445.4 -285.9,428.1 -285.9,420.2 -306.7,420.2 -306.7,428.1 
	-333,428.1 "/>
</svg>
