<?xml version="1.0" encoding="utf-8"?>
<!-- Generator: Adobe Illustrator 21.0.2, SVG Export Plug-In . SVG Version: 6.00 Build 0)  -->
<svg version="1.1" id="Calque_1" xmlns="http://www.w3.org/2000/svg" xmlns:xlink="http://www.w3.org/1999/xlink" x="0px" y="0px"
	 viewBox="0 0 500 358" style="enable-background:new 0 0 500 358;" xml:space="preserve">
<style type="text/css">
	.st0{fill:#1D1D1B;}
	.st1{fill:#EE7335;}
	.st2{fill:#FFFFFF;}
</style>
<path class="st0" d="M464.1,326.2h-5.7v15.9h-3.3v-15.8h-5.7v-2.7h14.7V326.2L464.1,326.2z M477.6,337.2l5.2-13.6h5v18.5h-3.3v-15
	h-0.1l-5.8,15h-2.2l-5.8-15h-0.1v15h-3.3v-18.5h5L477.6,337.2z"/>
<path class="st1" d="M14.7,161.4h474.2v155.8H14.7V161.4"/>
<polyline class="st0" points="14.7,147.1 488,147.1 488,21.6 14.7,21.6 14.7,147.1 "/>
<path class="st2" d="M68.5,93.8c0.4,7.5,5,9.9,12.1,9.9c5,0,10.2-1.8,10.2-6.5c0-5.6-9.1-6.7-18.3-9.3c-9.1-2.6-18.7-6.7-18.7-18.4
	c0-13.9,14-19.4,26-19.4c12.7,0,25.4,6.2,25.5,20.5H88.7c0.3-5.8-5.2-7.7-10.3-7.7c-3.6,0-8,1.3-8,5.4c0,4.9,9.2,5.8,18.5,8.4
	c9.2,2.6,18.5,6.9,18.5,18.4c0,16.2-13.7,21.3-27.8,21.3C65,116.4,52,110,51.9,93.6L68.5,93.8L68.5,93.8z"/>
<path class="st2" d="M111.6,51.4h16.6v63.8h-16.6V51.4z"/>
<path class="st2" d="M136.2,51.4h24.5l11,42.5h0.2l11-42.5h24.5v63.8h-15.6V66.8h-0.2l-13.4,48.4h-12.7l-13.4-48.4h-0.2v48.4h-15.6
	L136.2,51.4L136.2,51.4z"/>
<path class="st2" d="M215.2,51.4h30.3c11.9,0,23,5.4,23,20.5c0,15.8-9,22-23,22h-13.7v21.3h-16.6V51.4L215.2,51.4z M231.8,81.1H243
	c5.2,0,8.9-2.1,8.9-7.9c0-6-3.9-8.4-8.9-8.4h-11.2V81.1z"/>
<path class="st2" d="M285.7,93.8c0.4,7.5,5,9.9,12.1,9.9c5,0,10.2-1.8,10.2-6.5c0-5.6-9.1-6.7-18.3-9.3c-9.1-2.6-18.7-6.7-18.7-18.4
	c0-13.9,14-19.4,26-19.4c12.7,0,25.4,6.2,25.5,20.5h-16.6c0.3-5.8-5.2-7.7-10.3-7.7c-3.6,0-8,1.3-8,5.4c0,4.9,9.2,5.8,18.5,8.4
	c9.2,2.6,18.5,6.9,18.5,18.4c0,16.2-13.7,21.3-27.8,21.3c-14.6,0-27.6-6.4-27.7-22.8L285.7,93.8L285.7,93.8z"/>
<path class="st2" d="M357.7,50.1c20.1,0,31.4,14.7,31.4,33.2s-11.4,33.2-31.4,33.2c-20.1,0-31.4-14.7-31.4-33.2
	S337.7,50.1,357.7,50.1z M357.7,102.3c10.7,0,14.8-9.5,14.8-18.9s-4.1-18.9-14.8-18.9c-10.7,0-14.8,9.5-14.8,18.9
	S347,102.3,357.7,102.3z"/>
<path class="st2" d="M394.4,51.4h17l22.1,39.3h0.2V51.4h15.6v63.8h-16.9l-22.1-39.7H410v39.7h-15.6V51.4z"/>
<path class="st2" d="M92.7,224.8h-8c-1.3-10-9.3-15.6-17-15.6c-5,0-9.7,1.8-9.7,8.2c0,12,37.5,2.4,37.5,29.6
	c0,15.3-12,20.4-23.9,20.4c-6.7,0-13.4-1.5-18.9-5.9l-2.3,5.1h-7.3v-25h8c1.1,10,8.7,17,18.9,17c4.5,0,10-2.8,10-8.2
	c0-13.6-37.5-2.6-37.5-29.9c0-15.7,12.9-20,24.9-20c5.9,0,11.5,2.1,16.5,5.5l1.6-4.5h7.2C92.7,201.4,92.7,224.8,92.7,224.8z"/>
<path class="st2" d="M116.4,203.1v17.7h10.7v7.6h-10.7v26.2c0,2,0.9,3.6,2.9,3.6c3.3,0,4.2-2.6,4.2-7v-7.4h6.9v8.5
	c0,9.3-4.2,14.5-14.5,14.5c-8.9,0-13.9-4.8-13.9-14.5v-23.9h-5.8v-7.6c8.7,0,10.9-9.8,11.6-17.7L116.4,203.1L116.4,203.1z"/>
<path class="st2" d="M131,220.8h20.4v7.6h0.2c1.7-4.6,5-9.1,10.1-9.1c5.4,0,9.9,4.6,9.9,10.9c0,4.1-2.8,8.5-6.9,8.5
	c-3.6,0-6.9-1.9-6.9-6.3c0-3.2,1.7-5.2,4.5-5.8c-0.9-1-1.6-1-2.8-1c-4.5,0-7.5,6.4-7.5,11.1v17.1c0,2.7,0.6,4.1,3.1,4.1h3.6v7.6H131
	v-7.6h3.6c2.5,0,3.1-1.4,3.1-4.1v-21.2c0-2.7-0.6-4.1-3.1-4.1H131V220.8L131,220.8z"/>
<path class="st2" d="M215.9,243.1c0,15.3-9.4,23.7-22.4,23.7s-22.4-8.5-22.4-23.7c0-15.3,9.4-23.7,22.4-23.7
	S215.9,227.9,215.9,243.1z M186.5,243.1c0,11.2,1.8,16.1,7,16.1s7-4.9,7-16.1s-1.8-16.1-7-16.1S186.5,231.9,186.5,243.1z"/>
<path class="st2" d="M235.9,220.8v7.3h0.2c3.8-6.1,7.9-8.8,14.9-8.8c9.9,0,13.2,6.3,13.2,16.2v18.1c0,2.7,0.6,4.1,3.1,4.1h3.3v7.6
	h-25.7v-7.6h1.8c2.5,0,3.1-1.4,3.1-4.1v-16.4c0-5.5-0.8-9.3-6.7-9.3c-4,0-6.5,4.1-6.5,8.1v17.6c0,2.7,0.6,4.1,3.1,4.1h2.1v7.6h-26.2
	v-7.6h3.5c2.5,0,3.1-1.4,3.1-4.1v-21.2c0-2.7-0.6-4.1-3.1-4.1h-3.6v-7.6L235.9,220.8L235.9,220.8z"/>
<path class="st2" d="M303.7,259.4c7.5,0,15.2,2,15.2,11.9c0,11.9-11.8,14.3-25.3,14.3c-12.5,0-21.8-2.3-21.8-9.3
	c0-4.5,3.9-6.5,7.3-7.1V269c-3.3-1.2-6.6-4.4-6.6-8.6c0-5.7,2.9-7.7,7.4-9.7c-4.1-3.1-5.9-7.6-5.9-14.5c0-11.4,10.2-16.8,19.3-16.8
	c4.7,0,9.2,1.7,13.2,4.3c2.7-2.6,5.9-4.3,9.5-4.3c4.8,0,9.5,3.2,9.5,9c0,4.4-2.4,6.9-6.4,6.9c-2.8,0-4.8-2.4-4.8-5.4
	c0-2.1,1-3.5,2.4-4.8c-1.9-0.4-4.5-1.7-7.4,2c1.6,2.9,3,6.4,3,9.8c0,12.5-9.2,18-19.9,18c-2.9,0-6.1-0.4-8.8-1.6
	c-0.9,0.3-1.7,1.3-1.7,2.8c0,2.4,3,3.4,4.4,3.4L303.7,259.4L303.7,259.4z M288,237.1c0,7.1,1.2,11.8,5,11.8s5-4.8,5-11.8
	c0-7.1-1.2-11.9-5-11.9S288,230.1,288,237.1z M295.5,279.3c7.3,0,13.1-1.1,13.1-3.9c0-3.3-5.8-3.9-13.1-3.9s-13.1,0.6-13.1,3.9
	C282.4,278.1,288.2,279.3,295.5,279.3z"/>
<path class="st2" d="M331.8,225.7v-24.2h57.5v24.2h-8.1c0-9.7-2.6-15.8-12.6-15.8v42.6c0,2.4,1.2,3.8,3.4,3.8h5.2v8.4h-33.5v-8.4
	h5.4c2.2,0,3.4-1.4,3.4-3.8v-42.6c-10,0-12.6,6.1-12.6,15.8H331.8z"/>
<path class="st2" d="M406.4,217.7c4.2,0,7.5-3.6,7.5-8.3s-3.3-8.3-7.5-8.3c-4.3,0-7.6,3.6-7.6,8.3
	C398.8,214.1,402.2,217.7,406.4,217.7z"/>
<path class="st2" d="M417,258.6c-2.5,0-3.1-1.4-3.1-4.1v-32.9h-21.5v7.6h4c2.5,0,3.1,1.4,3.1,4.1v21.2c0,2.7-0.6,4.1-3.1,4.1h-3.7
	v7.6h27.9v-7.6H417z"/>
<path class="st2" d="M434.7,245.3c0,6.7,1.4,13.3,8.7,13.3c3,0,8-2.6,8.8-8.2h10c-1.4,11.4-11.5,16.4-20.9,16.4
	c-14.8,0-21.9-9.1-21.9-23.7c0-14.8,9.5-23.7,21.9-23.7c14.1,0,22,11.1,22,25.9L434.7,245.3L434.7,245.3z M447.9,237.7v-2.5
	c0-4.9-2.3-8.2-6.5-8.2c-4.2,0-6.6,3.3-6.6,8.2v2.5H447.9z"/>
<path class="st2" d="M318.9,247.8v-10.4h22.2v10.4H318.9z"/>
</svg>
