<?xml version="1.0" encoding="utf-8"?>
<!-- Generator: Adobe Illustrator 15.0.0, SVG Export Plug-In . SVG Version: 6.00 Build 0)  -->
<!DOCTYPE svg PUBLIC "-//W3C//DTD SVG 1.1//EN" "http://www.w3.org/Graphics/SVG/1.1/DTD/svg11.dtd">
<svg version="1.1" id="Calque_1" xmlns="http://www.w3.org/2000/svg" xmlns:xlink="http://www.w3.org/1999/xlink" x="0px" y="0px"
	 width="500px" height="500px" viewBox="0 0 500 500" enable-background="new 0 0 500 500" xml:space="preserve">
<g>
	<path fill="#1D1D1B" d="M464.076,397.254h-5.697v15.812H455.1v-15.812h-5.71v-2.694h14.687V397.254z M477.636,408.176l5.212-13.616
		h5.035v18.507h-3.278v-15.05h-0.089l-5.798,15.05h-2.241l-5.798-15.05h-0.088v15.05h-3.279V394.56h5.023L477.636,408.176z"/>
	<g>
		<g>
			<path fill="#EE7335" d="M14.698,232.413h474.179v155.809H14.698V232.413"/>
			<g>
				<polyline fill="#1D1D1B" points="14.698,218.097 488.038,218.097 488.038,92.599 14.698,92.599 14.698,218.097 				"/>
			</g>
			<g>
				<g>
					<path fill="#FFFFFF" d="M68.517,164.775c0.364,7.503,5.002,9.91,12.068,9.91c4.991,0,10.171-1.789,10.171-6.521
						c0-5.62-9.11-6.697-18.308-9.28c-9.099-2.59-18.651-6.698-18.651-18.391c0-13.929,14.002-19.379,25.972-19.379
						c12.676,0,25.44,6.162,25.529,20.538H88.702c0.265-5.808-5.18-7.679-10.259-7.679c-3.578,0-8.049,1.253-8.049,5.449
						c0,4.914,9.198,5.802,18.473,8.392c9.208,2.589,18.484,6.874,18.484,18.385c0,16.166-13.747,21.344-27.759,21.344
						c-14.642,0-27.583-6.432-27.671-22.769H68.517z"/>
					<path fill="#FFFFFF" d="M111.559,122.457h16.596v63.751h-16.596V122.457z"/>
					<path fill="#FFFFFF" d="M136.183,122.457h24.479l10.977,42.496h0.177l10.975-42.496h24.47v63.751h-15.635v-48.392h-0.177
						l-13.383,48.392h-12.676l-13.394-48.392h-0.188v48.392h-15.625V122.457z"/>
					<path fill="#FFFFFF" d="M215.188,122.457h30.255c11.881,0,23.035,5.443,23.035,20.533c0,15.807-9.012,21.963-23.035,21.963
						h-13.659v21.256h-16.597V122.457z M231.785,152.099h11.163c5.168,0,8.934-2.142,8.934-7.944c0-5.985-3.854-8.397-8.934-8.397
						h-11.163V152.099z"/>
					<path fill="#FFFFFF" d="M285.692,164.775c0.364,7.503,5.002,9.91,12.058,9.91c4.991,0,10.169-1.789,10.169-6.521
						c0-5.62-9.098-6.697-18.297-9.28c-9.108-2.59-18.66-6.698-18.66-18.391c0-13.929,14.022-19.379,25.982-19.379
						c12.675,0,25.44,6.162,25.539,20.538h-16.618c0.266-5.808-5.167-7.679-10.257-7.679c-3.578,0-8.028,1.253-8.028,5.449
						c0,4.914,9.188,5.802,18.474,8.392c9.188,2.589,18.473,6.874,18.473,18.385c0,16.166-13.736,21.344-27.759,21.344
						c-14.642,0-27.596-6.432-27.672-22.769H285.692z"/>
					<path fill="#FFFFFF" d="M357.741,121.115c20.075,0,31.426,14.73,31.426,33.215s-11.351,33.214-31.426,33.214
						c-20.085,0-31.426-14.73-31.426-33.214S337.656,121.115,357.741,121.115z M357.741,173.261c10.71,0,14.818-9.462,14.818-18.931
						s-4.108-18.926-14.818-18.926c-10.711,0-14.818,9.458-14.818,18.926S347.03,173.261,357.741,173.261z"/>
					<path fill="#FFFFFF" d="M394.423,122.457h17.05l22.139,39.282h0.177v-39.282h15.635v63.751h-17.06l-22.139-39.735h-0.177
						v39.735h-15.625V122.457z"/>
				</g>
			</g>
			<g>
				<path fill="#FFFFFF" d="M92.743,295.846h-7.984c-1.281-10-9.34-15.631-16.981-15.631c-5.014,0-9.695,1.811-9.695,8.198
					c0,12.014,37.52,2.385,37.52,29.554c0,15.255-11.958,20.395-23.917,20.395c-6.669,0-13.438-1.523-18.903-5.901l-2.254,5.052
					h-7.265v-24.978h8.049c1.127,10.01,8.668,16.967,18.894,16.967c4.515,0,9.959-2.767,9.959-8.199
					c0-13.631-37.52-2.572-37.52-29.935c0-15.73,12.918-20.02,24.877-20.02c5.885,0,11.518,2.098,16.464,5.533l1.567-4.479h7.189
					V295.846z"/>
				<path fill="#FFFFFF" d="M116.406,274.113v17.733h10.667v7.625h-10.667v26.219c0,1.999,0.95,3.623,2.937,3.623
					c3.291,0,4.174-2.579,4.174-6.963v-7.438h6.914v8.486c0,9.342-4.152,14.493-14.543,14.493c-8.933,0-13.879-4.771-13.879-14.493
					v-23.928H96.2v-7.625c8.679,0,10.931-9.821,11.616-17.733H116.406z"/>
				<path fill="#FFFFFF" d="M130.959,291.847h20.45v7.625h0.166c1.734-4.576,5.024-9.061,10.148-9.061
					c5.367,0,9.872,4.583,9.872,10.871c0,4.097-2.848,8.486-6.935,8.486c-3.644,0-6.935-1.904-6.935-6.294
					c0-3.24,1.656-5.239,4.517-5.813c-0.872-0.95-1.646-1.049-2.782-1.049c-4.495,0-7.454,6.388-7.454,11.059v17.065
					c0,2.672,0.607,4.096,3.125,4.096h3.555v7.631h-27.727v-7.631h3.556c2.496,0,3.114-1.424,3.114-4.096v-21.167
					c0-2.667-0.618-4.098-3.114-4.098h-3.556V291.847z"/>
				<path fill="#FFFFFF" d="M215.884,314.152c0,15.254-9.44,23.74-22.36,23.74s-22.36-8.486-22.36-23.74
					c0-15.255,9.44-23.741,22.36-23.741S215.884,298.897,215.884,314.152z M186.501,314.152c0,11.246,1.822,16.11,7.023,16.11
					s7.023-4.864,7.023-16.11c0-11.247-1.822-16.11-7.023-16.11S186.501,302.905,186.501,314.152z"/>
				<path fill="#FFFFFF" d="M235.903,291.847v7.345h0.166c3.82-6.107,7.896-8.78,14.908-8.78c9.882,0,13.172,6.3,13.172,16.216
					v18.109c0,2.672,0.608,4.096,3.115,4.096h3.302v7.631h-25.74v-7.631h1.832c2.496,0,3.115-1.424,3.115-4.096v-16.398
					c0-5.531-0.784-9.347-6.669-9.347c-3.998,0-6.516,4.107-6.516,8.104v17.641c0,2.672,0.608,4.096,3.115,4.096h2.087v7.631h-26.17
					v-7.631h3.478c2.496,0,3.115-1.424,3.115-4.096v-21.167c0-2.667-0.62-4.098-3.115-4.098h-3.555v-7.625H235.903z"/>
				<path fill="#FFFFFF" d="M303.668,330.455c7.454,0,15.173,2.005,15.173,11.92c0,11.909-11.794,14.295-25.309,14.295
					c-12.478,0-21.843-2.286-21.843-9.342c0-4.478,3.899-6.477,7.278-7.149v-0.193c-3.291-1.237-6.582-4.384-6.582-8.574
					c0-5.721,2.86-7.719,7.443-9.723c-4.064-3.147-5.896-7.63-5.896-14.492c0-11.44,10.158-16.785,19.257-16.785
					c4.682,0,9.176,1.717,13.162,4.296c2.694-2.579,5.907-4.296,9.528-4.296c4.783,0,9.464,3.247,9.464,8.967
					c0,4.389-2.43,6.862-6.427,6.862c-2.848,0-4.759-2.379-4.759-5.433c0-2.098,1.05-3.528,2.418-4.771
					c-1.898-0.381-4.505-1.717-7.442,2.005c1.568,2.86,3.025,6.382,3.025,9.822c0,12.482-9.188,18.02-19.941,18.02
					c-2.938,0-6.051-0.387-8.833-1.628c-0.862,0.293-1.734,1.336-1.734,2.771c0,2.379,3.037,3.428,4.429,3.428H303.668z
					 M287.989,308.15c0,7.051,1.202,11.815,5.023,11.815c3.81,0,5.014-4.765,5.014-11.815c0-7.062-1.204-11.92-5.014-11.92
					C289.191,296.23,287.989,301.089,287.989,308.15z M295.53,350.281c7.277,0,13.085-1.142,13.085-3.908
					c0-3.334-5.808-3.903-13.085-3.903c-7.288,0-13.096,0.569-13.096,3.903C282.435,349.14,288.242,350.281,295.53,350.281z"/>
				<path fill="#FFFFFF" d="M331.825,296.7v-24.216h57.541V296.7h-8.062c0-9.723-2.594-15.828-12.565-15.828v42.616
					c0,2.385,1.226,3.81,3.39,3.81h5.201v8.392h-33.634v-8.392h5.389c2.152,0,3.356-1.425,3.356-3.81v-42.616
					c-9.96,0-12.555,6.105-12.555,15.828H331.825z"/>
				<path fill="#FFFFFF" d="M413.912,325.503c0,2.673,0.597,4.103,3.114,4.103h3.555v7.625h-27.903v-7.625h3.71
					c2.528,0,3.138-1.43,3.138-4.103v-21.161c0-2.673-0.609-4.097-3.138-4.097h-3.974v-7.625h21.498V325.503z M413.912,280.413
					c0,4.67-3.302,8.293-7.542,8.293c-4.239,0-7.553-3.623-7.553-8.293c0-4.671,3.313-8.293,7.553-8.293
					C410.61,272.12,413.912,275.742,413.912,280.413z"/>
				<path fill="#FFFFFF" d="M434.683,316.35c0,6.67,1.379,13.339,8.657,13.339c3.036,0,7.972-2.573,8.756-8.199h10.049
					c-1.381,11.445-11.529,16.403-20.881,16.403c-14.819,0-21.931-9.061-21.931-23.74c0-14.774,9.541-23.741,21.931-23.741
					c14.135,0,22.007,11.064,22.007,25.938H434.683z M447.934,308.72v-2.479c0-4.858-2.342-8.198-6.505-8.198
					c-4.24,0-6.58,3.34-6.58,8.198v2.479H447.934z"/>
				<path fill="#FFFFFF" d="M318.896,318.835V308.46h22.239v10.375H318.896z"/>
			</g>
		</g>
	</g>
</g>
</svg>
