<?xml version="1.0" encoding="utf-8"?>
<!-- Generator: Adobe Illustrator 21.0.2, SVG Export Plug-In . SVG Version: 6.00 Build 0)  -->
<svg version="1.1" id="Calque_1" xmlns="http://www.w3.org/2000/svg" xmlns:xlink="http://www.w3.org/1999/xlink" x="0px" y="0px"
	 viewBox="0 0 500 168" style="enable-background:new 0 0 500 168;" xml:space="preserve">
<style type="text/css">
	.st0{fill:#DD230A;}
</style>
<polygon class="st0" points="243,96.7 189.8,28.6 161,28.6 161,139.3 189.8,139.9 189.8,71.1 242.7,139 272.5,139 272.5,28.6 
	243,28.6 "/>
<path class="st0" d="M67.4,70.8c-10.3-5.1-22.2-6.4-14.1-17.9c5.4-7.7,22.4-1,28.8,2.2l11.5-19.5c0,0-9.9-10.9-34.9-9.9
	S21.5,44.9,21.2,56.4s0,27.8,20.5,34.9c20.5,7,30.1,10.2,26.3,20.5c-3.8,10.2-22.4,10.9-39.1-3.2l-12.5,21.1
	c0,0,13.8,13.1,37.2,13.1c23.4,0,43.2-7.7,43.9-38.1C98.2,74.3,77.7,75.9,67.4,70.8z"/>
<rect x="112.6" y="28.3" class="st0" width="29.2" height="111.7"/>
<path class="st0" d="M488,83.3c-1.9-56-61.8-58.2-61.8-58.2s-61.5,4.5-61.8,58.9c-0.3,54.4,57.7,59.8,64.7,59.8
	C436.2,143.8,490,139.3,488,83.3z M426.5,115.3c-17.3,0-31.4-12.5-30.7-33.6c0.6-21.1,16.7-29.8,29.1-29.4
	c24.7,0.6,32.4,19.8,32.4,34.9C457.3,102.2,443.8,115.3,426.5,115.3z"/>
<polygon class="st0" points="283.3,52.6 306.4,52.6 306.4,139.9 336.5,139.9 336.5,52.6 359.6,52.6 359.6,28.3 283.3,28.3 "/>
</svg>
