<?xml version="1.0" encoding="utf-8"?>
<!-- Generator: Adobe Illustrator 16.0.0, SVG Export Plug-In . SVG Version: 6.00 Build 0)  -->
<!DOCTYPE svg PUBLIC "-//W3C//DTD SVG 1.1//EN" "http://www.w3.org/Graphics/SVG/1.1/DTD/svg11.dtd">
<svg version="1.1" id="Calque_1" xmlns="http://www.w3.org/2000/svg" xmlns:xlink="http://www.w3.org/1999/xlink" x="0px" y="0px"
	 width="500px" height="500px" viewBox="0 0 500 500" enable-background="new 0 0 500 500" xml:space="preserve">
<g>
	<path fill="none" stroke="#FFFFFF" stroke-width="17.081" d="M334.946,307.252H475V188.044H333.221
		c-24.503-57.818-81.475-98.749-148.099-98.749C96.863,89.295,25,161.371,25,250.275c0,88.391,71.863,160.429,160.122,160.429
		C253.403,410.704,311.612,367.858,334.946,307.252z"/>
	<path fill="#EB0029" d="M334.946,307.252H475V188.044H333.221c-24.503-57.818-81.475-98.749-148.099-98.749
		C96.863,89.295,25,161.371,25,250.275c0,88.391,71.863,160.429,160.122,160.429C253.403,410.704,311.612,367.858,334.946,307.252"
		/>
	<polyline fill="#FFFFFF" points="274.35,298.985 300.07,355.062 221.697,328.579 183.794,403.804 146.547,329.521 70.148,356.194 
		101.282,279.658 29.186,247.862 102.203,214.616 70.148,143.065 147.426,164.663 183.794,94.937 221.697,168.023 300.07,143.065 
		274.964,196.39 466.501,196.39 466.501,298.985 	"/>
	<path fill="#E53138" d="M113.513,258.446l1.329,0.953c4.583,3.704,10.299,6.626,16.051,6.626c2.662,0,6.552-1.059,6.552-4.276
		c0-3.196-3.249-3.45-5.588-4.064l-5.234-0.741c-10.056-2-18.698-7.838-18.698-19.036c0-17.221,15.564-26.694,30.896-26.694
		c8.208,0,15.522,1.953,22.604,6.213l-7.081,18.708c-4.255-3.175-9.246-5.467-14.999-5.467c-2.217,0-5.35,0.921-5.35,3.72
		c0,2.662,3.054,3.176,4.943,3.52l6.118,1.371c10.823,2.451,18.75,8.304,18.75,20.45c0,17.052-15.618,25.36-30.981,25.36
		c-8.732,0-19.312-2.604-27.239-6.521"/>
	<rect x="172.087" y="212.34" fill="#E53138" width="26.112" height="71.573"/>
	<path fill="#E53138" d="M210.187,212.34h31.187c16.051,0,29.684,6.827,29.684,25.223c0,10.621-4.297,15.268-13.876,18.454v0.513
		c1.323,1.08,2.932,2.224,4.34,4.171l15.495,23.212h-29.573l-11.468-22.746h-0.598v22.746h-25.191 M235.377,244.247h1.81
		c4.26,0,8.372-0.624,8.372-5.975c0-5.451-3.831-6.118-8.134-6.118h-2.048V244.247z"/>
	<rect x="281.727" y="212.34" fill="#E53138" width="25.863" height="71.573"/>
	<path fill="#E53138" d="M385.477,212.34v42.529c0,20.809-12.913,30.219-33.029,30.219c-19.872,0-33.108-9.41-33.108-30.219V212.34
		h25.996v40.009c0,5.515,0.237,10.521,7.112,10.521c7.166,0,7.372-5.007,7.372-10.521V212.34"/>
	<path fill="#E53138" d="M401.046,258.446l1.535,0.953c4.419,3.704,10.056,6.626,15.961,6.626c2.424,0,6.525-1.059,6.525-4.276
		c0-3.196-3.308-3.45-5.631-4.064l-5.075-0.741c-10.129-2-18.623-7.838-18.623-19.036c0-17.221,15.326-26.694,30.658-26.694
		c8.282,0,15.845,1.953,23.132,6.213l-7.287,18.708c-4.536-3.175-9.537-5.467-15.083-5.467c-2.413,0-5.716,0.921-5.716,3.72
		c0,2.662,3.144,3.176,5.351,3.52l5.795,1.371c11.061,2.451,19.073,8.304,19.073,20.45c0,17.052-15.532,25.36-31.061,25.36
		c-9.007,0-19.348-2.604-27.397-6.521"/>
</g>
</svg>
