<?xml version="1.0" encoding="utf-8"?>
<!-- Generator: Adobe Illustrator 15.0.0, SVG Export Plug-In . SVG Version: 6.00 Build 0)  -->
<!DOCTYPE svg PUBLIC "-//W3C//DTD SVG 1.1//EN" "http://www.w3.org/Graphics/SVG/1.1/DTD/svg11.dtd">
<svg version="1.1" id="Calque_1" xmlns="http://www.w3.org/2000/svg" xmlns:xlink="http://www.w3.org/1999/xlink" x="0px" y="0px"
	 width="500px" height="500px" viewBox="0 0 500 500" enable-background="new 0 0 500 500" xml:space="preserve">
<g>
	<g>
		<radialGradient id="SVGID_1_" cx="173.9822" cy="202.498" r="80.493" gradientUnits="userSpaceOnUse">
			<stop  offset="0" style="stop-color:#FFFFFF"/>
			<stop  offset="1" style="stop-color:#00B1FF"/>
		</radialGradient>
		<path fill="url(#SVGID_1_)" d="M59.957,243.216c-10.819-5.422-17.389-9.185-17.389-15.697c0-8.312,9.525-9.21,13.62-9.21
			c7.319,0,14.692,1.749,21.322,5.058c1.135,0.566,2.475,0.496,3.546-0.183c1.072-0.68,1.724-1.874,1.724-3.159v-11.904
			c0-1.455-0.832-2.775-2.13-3.382c-2.529-1.183-11.803-5.043-24.933-5.043c-20.651,0-35.074,11.986-35.074,29.147
			c0,17.901,15.009,25.398,27.069,31.421c11.305,5.647,18.169,9.604,18.169,16.929c0,9.164-10.009,10.533-15.976,10.533
			c-9.324,0-20.538-1.433-24.9-4.193c-0.839-0.53-1.854-0.694-2.813-0.452c-0.959,0.242-1.782,0.869-2.279,1.738l0.002,11.541
			c-0.162,2.598,0.549,4.063,2.233,5.126c8.382,5.289,16.46,4.854,27.757,4.854c10.865,0,20.192-2.691,26.972-7.781
			c7.253-5.447,11.087-13.19,11.087-22.394C87.964,257.254,72.435,249.47,59.957,243.216z"/>
		<radialGradient id="SVGID_2_" cx="173.9822" cy="202.4985" r="80.4923" gradientUnits="userSpaceOnUse">
			<stop  offset="0" style="stop-color:#FFFFFF"/>
			<stop  offset="1" style="stop-color:#00B1FF"/>
		</radialGradient>
		<path fill="url(#SVGID_2_)" d="M297.462,283.797c-0.369-0.98-1.129-1.758-2.092-2.138c-0.961-0.382-2.038-0.33-2.962,0.139
			c-8.061,4.1-18.998,5.928-26.971,5.928c-20.296,0-33.411-13.538-33.411-34.488c0-20.891,13.806-34.928,34.354-34.928
			c8.652,0,16.101,1.787,24.153,5.794c1.134,0.564,2.473,0.495,3.544-0.186c1.071-0.68,1.723-1.874,1.723-3.158v-12.198
			c0-1.411-0.784-2.7-2.025-3.331c-6.825-3.466-17.183-5.536-27.709-5.536c-15.906,0-30.312,5.587-40.563,15.732
			c-10.033,9.929-15.559,23.565-15.559,38.398c0,15.233,4.959,28.263,14.342,37.682c9.667,9.703,23.407,14.832,39.738,14.832
			c11.139,0,21.825-2.5,31.763-7.431c1.704-0.846,2.49-2.875,1.812-4.677L297.462,283.797z"/>
		<radialGradient id="SVGID_3_" cx="173.9797" cy="202.4985" r="80.4938" gradientUnits="userSpaceOnUse">
			<stop  offset="0" style="stop-color:#FFFFFF"/>
			<stop  offset="1" style="stop-color:#00B1FF"/>
		</radialGradient>
		<path fill="url(#SVGID_3_)" d="M367.891,282.684H328.23v-79.58c0-2.056-1.639-3.723-3.659-3.723H307.93
			c-2.021,0-3.659,1.667-3.659,3.723v96.848c0,2.056,1.639,3.723,3.659,3.723h59.961c2.021,0,3.659-1.667,3.659-3.723v-13.545
			C371.55,284.351,369.911,282.684,367.891,282.684z"/>
		<radialGradient id="SVGID_4_" cx="173.9846" cy="202.4985" r="80.4921" gradientUnits="userSpaceOnUse">
			<stop  offset="0" style="stop-color:#FFFFFF"/>
			<stop  offset="1" style="stop-color:#00B1FF"/>
		</radialGradient>
		<path fill="url(#SVGID_4_)" d="M422.06,264.188c2.018-4.461,8.285-18.189,8.91-19.614c0.695,1.647,9.505,21.425,9.505,21.425
			h-11.301c-2.946,0.489-5.386,4.896-6.403,7.133c-1.016,2.236-4.878,9.96,1.524,9.96c0,0,24.188-1.017,25.611,1.829
			c1.728,4.065,7.776,17.721,7.776,17.721c0.584,1.354,1.898,2.229,3.352,2.229h18.281c1.273,0,2.455-0.674,3.119-1.778
			c0.666-1.104,0.719-2.481,0.14-3.636l-48.702-97.141c-0.625-1.247-1.884-2.031-3.26-2.031c-0.006,0-0.012,0-0.018,0
			c-1.383,0.007-2.644,0.806-3.258,2.064l-47.493,97.142c-0.564,1.153-0.502,2.522,0.165,3.618c0.667,1.095,1.844,1.762,3.11,1.762
			h19.529c1.467,0,2.793-0.893,3.367-2.267l9.233-22.117L422.06,264.188z"/>
	</g>
	<radialGradient id="SVGID_5_" cx="173.9822" cy="202.498" r="80.4929" gradientUnits="userSpaceOnUse">
		<stop  offset="0" style="stop-color:#FFFFFF"/>
		<stop  offset="1" style="stop-color:#00B1FF"/>
	</radialGradient>
	<circle fill="url(#SVGID_5_)" cx="146.695" cy="251.433" r="56.252"/>
	<g>
		<path fill="#009EFF" d="M134.918,272.82c7.593-2.531,14.924-4.975,22.606-4.758c14.17,0.399,28.73,6.542,28.73,6.542
			s-5.746-20.812-28.675-20.951c-10.285-0.063-18.276,3.292-26.499,6.505c-18.311,7.155-31.97,5.689-38.548,4.164
			c0.95,4.696,2.459,9.211,4.468,13.459C116.206,280.168,126.786,275.531,134.918,272.82z"/>
		<path fill="#009EFF" d="M129.408,256.113c24.594-10.882,37.438-5.295,37.438-5.295s-7.74-13.425-22.212-13.314
			c-7.558,0.058-11.666,3.386-18.215,6.383c-5.204,2.382-13.487,2.984-18.375,3.514c-8.875,0.961-14.071,0.195-16.96-0.678
			c-0.174,1.583-0.292,3.19-0.343,4.825c-0.069,2.159-0.023,4.305,0.125,6.431C106.526,264.467,123.33,258.803,129.408,256.113z"/>
		<path fill="#009EFF" d="M122.456,239.619c16.252-7.311,26.815-5.776,26.815-5.776s-12.327-16.173-30.372-6.444
			c-2.878,1.552-8.288,2.214-12.012,2.179c-4.338-0.041-8.095-0.638-11.05-1.583c-1.727,3.752-3.125,7.828-4.132,12.207
			c3.817,1.772,9.333,2.225,15.659,2.619C110.761,243.032,118.55,241.376,122.456,239.619z"/>
	</g>
	<g>
		<path fill="#FFFFFF" d="M109.076,277.956c10.778-0.276,20.167-3.645,28.45-6.617c7.556-2.711,14.694-5.271,21.974-5.271
			c12.99,0,26.585,6.039,26.881,6.454l-0.033-0.047c0,0-5.766-20.076-26.594-20.076c-9.827,0-17.712,3.332-26.017,6.605
			c-19.241,7.585-34.328,6.475-41.852,5.062c1.123,4.893,2.877,9.543,5.185,13.856c2.098,0.059,4.382,0.099,6.774,0.099
			C105.544,278.021,107.299,278.002,109.076,277.956z"/>
		<path fill="#FFFFFF" d="M132.623,254.653c23.269-10.588,34.042-5.812,34.042-5.812s-5.954-11.915-19.016-11.915
			c-7.187,0-14.081,3.047-20.749,5.994c-5.421,2.396-11.219,3.221-16.56,3.835c-10.034,1.152-16.162,0.461-19.665-0.404
			c-0.151,1.674-0.232,3.369-0.232,5.082c0,2.255,0.137,4.478,0.395,6.662c4.098,1.18,9.527,1.975,16.781,2.027
			C115.218,260.178,126.531,257.426,132.623,254.653z"/>
		<path fill="#FFFFFF" d="M124.922,239.149c15.523-6.975,24.161-6.467,24.161-6.467s-11.078-15.244-29.777-5.792
			c-3.081,1.557-6.565,2.438-10.671,2.438c-4.929,0-9.356-0.59-12.974-1.576c-1.857,3.995-3.259,8.244-4.139,12.681
			C107.745,247.088,121.055,240.886,124.922,239.149z"/>
	</g>
</g>
</svg>
