<?xml version="1.0" encoding="utf-8"?>
<!-- Generator: Adobe Illustrator 19.1.0, SVG Export Plug-In . SVG Version: 6.00 Build 0)  -->
<svg version="1.1" id="Calque_1" xmlns="http://www.w3.org/2000/svg" xmlns:xlink="http://www.w3.org/1999/xlink" x="0px" y="0px"
	 viewBox="-345 170.9 500 500" style="enable-background:new -345 170.9 500 500;" xml:space="preserve">
<style type="text/css">
	.st0{fill:#DBDBDB;}
	.st1{fill:url(#SVGID_1_);}
	.st2{fill:url(#SVGID_2_);}
	.st3{fill:url(#SVGID_3_);}
	.st4{fill:url(#SVGID_4_);}
	.st5{fill:url(#SVGID_5_);}
	.st6{fill:url(#SVGID_6_);}
	.st7{fill:url(#SVGID_7_);}
	.st8{fill:url(#SVGID_8_);}
	.st9{fill:#0052A1;}
	.st10{fill:#264696;}
</style>
<path class="st0" d="M-112.5,431.4l3.8-24.4l-9.3-8.4l0-0.2c-0.1,0-0.2,0-0.2,0l-0.6-0.5l-0.1,0.5c-5.4-0.3-10.4-1.7-14.6-4
	c-2.3-3.9-3.6-8.5-3.6-13.5c0-18,16.1-35.7,36.5-40.7c-8.1,7.7-13.2,17.8-13.2,27.9c0,8.6,3.7,15.8,9.7,20.6l-0.2,0
	c3.4,7.5,10.3,12.9,19.1,15.1l-1.4,13.4l9.3,10.4l68.4-4.2l9.2-117.2l-7.2-12.8l-63.1,10.8l-2.3,22.2c-0.8,0.1-1.6,0.2-2.4,0.4
	c-7.8,1.4-15,4.7-21.1,9.2l1.1-18.5l-8-7.9l-53.2,9.1L-181,426.1l59-5.4l0,0.1l-59,5.4l10.1,10.1l58-5.3L-112.5,431.4z M-97.5,337.5
	l-1.4-1.4L-97.5,337.5C-97.5,337.5-97.5,337.5-97.5,337.5z"/>
<path class="st0" d="M-301,486.2c-3.6,3.6-5.8,8.2-6.5,13.8l-1.1,8.7c-0.3,2.4,0,4.8,0.8,7.2c0.9,2.4,2.2,4.2,3.9,5.4
	c2.9,2.2,7.2,3.1,13,2.7l15.8-1.2c3.2-0.2,4.2,0.7,3.8,3.7l-0.7,5.4c-0.6,4.5-2.1,4.6-2.9,4.6l-38.2,2.8l-2.1,16.5l39.6-2.8
	c4.7-0.3,9.1-2.4,13.1-6.3c4-3.8,6.3-8.1,6.9-12.8l1.4-11c0.7-5.1-0.7-9.4-4-12.8c-3.3-3.4-7.6-4.8-12.8-4.4l-17.4,1.4
	c-1.2,0.1-2.1-0.2-2.8-0.8c-0.6-0.5-0.8-1.2-0.7-2.1l0.7-5c0.1-1.1,0.6-1.7,0.9-2c0.5-0.5,1.1-0.8,1.9-0.8l38.1-3.2l2.2-16.8
	l-39.2,3.4C-292.7,480.6-297.3,482.6-301,486.2z"/>
<path class="st0" d="M-179.5,475.8c-3.6-3.1-8.7-4.4-15.2-3.8l-22.2,1.9c-6.7,0.6-12.2,2.8-16.5,6.5c-4.4,3.8-7,8.7-7.7,14.5
	l-4.8,36.4c-0.8,5.9,0.6,10.6,4.2,14c3.5,3.4,8.5,4.8,14.8,4.4l22.1-1.5c6.2-0.4,11.8-2.7,16.4-6.8c4.8-4.1,7.6-9.1,8.3-14.9
	l4.9-37.1C-174.3,483.5-175.8,478.9-179.5,475.8z M-193.1,494.5l-4,30c-0.6,4.5-2.6,6.5-6.8,6.8l-19.4,1.4c-2.2,0.2-3.7-0.2-4.4-1
	c-0.8-0.9-1-2.8-0.6-5.4l3.9-29.3c0.6-4.3,2.4-6.1,6.7-6.4l19.5-1.6C-194,488.7-192.5,490.2-193.1,494.5z"/>
<path class="st0" d="M-152.9,472.6c-3.2,2-5.6,4.4-7.2,7.2c-1.5,2.6-2.5,5.9-3,9.9l-4.7,35.4c-0.8,5.9,0.8,10.8,4.8,14.4
	c3.9,3.6,9.2,5.1,15.7,4.7l31.5-2.2l2.3-17.3l-31.3,2.3c-1.6,0.1-2.9-0.4-3.8-1.5c-1-1.2-1.4-2.6-1.2-4.4l4.2-31.3
	c0.2-1.7,0.9-3,1.9-4c1.1-1,2.5-1.6,4.2-1.7l31.5-2.6l2.3-17.3l-31.5,2.8C-142.9,467.4-148.2,469.3-152.9,472.6z"/>
<path class="st0" d="M-33.4,463.1c-3.9-3.2-9.3-4.5-16.3-3.9l-23.7,2.1c-7.1,0.6-13.1,2.9-17.6,6.7c-4.7,3.9-7.4,9-8.2,15l-5.1,37.7
	c-0.8,6.1,0.7,11,4.5,14.5c3.8,3.5,9.1,5,15.8,4.5l23.6-1.7c6.7-0.5,12.6-2.8,17.6-7.1c5.1-4.3,8.1-9.5,8.9-15.4l5.2-38.4
	C-27.8,471.1-29.4,466.4-33.4,463.1z M-47.9,482.5l-4.2,31c-0.6,4.7-2.8,6.7-7.3,7.1l-20.8,1.5c-2.4,0.2-4-0.2-4.7-1
	c-0.8-0.9-1-2.9-0.7-5.6l4.1-30.3c0.6-4.4,2.6-6.3,7.2-6.7l20.8-1.7C-48.9,476.5-47.3,478.1-47.9,482.5z"/>
<path class="st0" d="M50.6,455c-3.7-2.7-9.4-3.8-17-3.1l-21.3,1.9c-7.5,0.7-13.5,2.7-17.8,6.1c-5.8,4.5-9.3,10.5-10.3,17.8
	l-7.9,57.8l18.9-1.3l7.7-56.4c0.4-3.1,1.3-4.2,1.7-4.5c0.3-0.3,1.5-1.1,5.3-1.4l21.6-1.8c2.4-0.2,4.2,0.1,5.2,0.8
	c0.5,0.5,0.6,0.9,0.6,1l-8.2,60l19.2-1.3l8.1-58.7c0.5-3.7,0.3-7-0.7-9.8C54.7,459.1,53,456.8,50.6,455z"/>
<path class="st0" d="M145.4,454.2c-0.9-2.5-2.3-4.7-4.2-6.6c-2-1.9-4.1-3.1-6.4-3.6c-2.1-0.5-5.2-0.5-9.4-0.2L73,448.4l-2.5,18
	l50.2-4.2c5.4-0.5,5.1,1.3,5,2.2l-0.3,2.2l-31.6,2.6c-7.7,0.6-14,3.5-18.9,8.6c-4.7,4.9-7.6,11.5-8.7,19.6l-1.3,9.1
	c-0.8,6,0.9,11.2,5,15.5c4.2,4.3,9.5,6.3,15.9,5.8l28-2c6.2-0.4,23.8-1.6,23.8-1.6s2.2-16.6,3-22.4l5.5-39.5
	C146.5,459.5,146.3,456.7,145.4,454.2z M122.1,490.3l-1.7,12.3c0,0.3-0.2,1-1,2.2c-0.6,0.9-1.3,1.7-1.9,2.2c-0.1,0.1-1.3,0.7-6.2,1
	l-18.9,1.4c-4.2,0.3-5.7-0.1-6.2-0.3c-0.4-0.4-0.8-1-1.1-1.8c-0.4-1.2-0.4-1.8-0.4-2l1.7-12.2c0.2-1.7,1-3,2.5-4.1
	c1.7-1.2,3.7-1.9,6.4-2.1l19.3-1.5c2.8-0.2,4.9,0.2,6.2,1.1C121.9,487.4,122.3,488.6,122.1,490.3z"/>
<linearGradient id="SVGID_1_" gradientUnits="userSpaceOnUse" x1="-176.202" y1="486.878" x2="-113.391" y2="486.878" gradientTransform="matrix(1 0 0 -1 0 841.67)">
	<stop  offset="5.520000e-02" style="stop-color:#F9BC16"/>
	<stop  offset="1" style="stop-color:#B99200"/>
</linearGradient>
<path class="st1" d="M-150.7,388.1c-2.5-4-3.8-8.7-3.8-14c0-18.8,17.6-37.3,39.2-41.3c0.8-0.1,1.1-0.2,1.9-0.3l-10.4-11l-35.2,10.3
	l-17.2,36.5l2.4,18.2L-150.7,388.1z"/>
<linearGradient id="SVGID_2_" gradientUnits="userSpaceOnUse" x1="-139.5" y1="433.78" x2="-126.153" y2="433.78" gradientTransform="matrix(1 0 0 -1 0 841.67)">
	<stop  offset="5.520000e-02" style="stop-color:#F9BC16"/>
	<stop  offset="1" style="stop-color:#B99200"/>
</linearGradient>
<polygon class="st2" points="-136.2,391.1 -126.2,400.2 -130,424.6 -139.5,414 "/>
<linearGradient id="SVGID_3_" gradientUnits="userSpaceOnUse" x1="-123.323" y1="523.97" x2="-112" y2="523.97" gradientTransform="matrix(1 0 0 -1 0 841.67)">
	<stop  offset="5.520000e-02" style="stop-color:#F9BC16"/>
	<stop  offset="1" style="stop-color:#B99200"/>
</linearGradient>
<polygon class="st3" points="-113.2,332.5 -123.3,322.4 -120,302.9 -112,310.8 "/>
<linearGradient id="SVGID_4_" gradientUnits="userSpaceOnUse" x1="-173.9565" y1="443.0986" x2="-162.6235" y2="415.7656" gradientTransform="matrix(1 0 0 -1 0 841.67)">
	<stop  offset="5.520000e-02" style="stop-color:#F9BC16"/>
	<stop  offset="1" style="stop-color:#B99200"/>
</linearGradient>
<polygon class="st4" points="-130.2,424.2 -139.5,414 -198.5,419.4 -188.4,429.5 "/>
<linearGradient id="SVGID_5_" gradientUnits="userSpaceOnUse" x1="-121.684" y1="453.0385" x2="-95.412" y2="453.0385" gradientTransform="matrix(1 0 0 -1 0 841.67)">
	<stop  offset="6.129999e-02" style="stop-color:#335185"/>
	<stop  offset="1" style="stop-color:#0064B0"/>
</linearGradient>
<path class="st5" d="M-102.5,397.1c-8.8-2.2-15.7-7.6-19.1-15.1l26.3-1.8L-102.5,397.1z"/>
<linearGradient id="SVGID_6_" gradientUnits="userSpaceOnUse" x1="-194.6336" y1="436.2105" x2="-108.6333" y2="531.2108" gradientTransform="matrix(1 0 0 -1 0 841.67)">
	<stop  offset="5.520000e-02" style="stop-color:#F9BC16"/>
	<stop  offset="1" style="stop-color:#FFEC00"/>
</linearGradient>
<path class="st6" d="M-139.1,413.9l-59.4,5.5l25.3-107.3l53.2-9.1l-3.3,19.5c-0.8,0.1-1.6,0.2-2.4,0.4c-21.7,4-39.2,22.5-39.2,41.3
	c0,15.9,12.6,26.9,29.5,27.6L-139.1,413.9"/>
<linearGradient id="SVGID_7_" gradientUnits="userSpaceOnUse" x1="-119.1999" y1="443.395" x2="6.801" y2="546.0619" gradientTransform="matrix(1 0 0 -1 0 841.67)">
	<stop  offset="0" style="stop-color:#0064B0"/>
	<stop  offset="0.1488" style="stop-color:#0467B2"/>
	<stop  offset="0.299" style="stop-color:#106FB7"/>
	<stop  offset="0.4499" style="stop-color:#247DBF"/>
	<stop  offset="0.6013" style="stop-color:#4191CB"/>
	<stop  offset="0.7532" style="stop-color:#65ABDA"/>
	<stop  offset="0.9033" style="stop-color:#91C9EC"/>
	<stop  offset="1" style="stop-color:#B2E0F9"/>
</linearGradient>
<path class="st7" d="M-103.9,410.5l2.2-21.6c-17-0.6-29.5-11.7-29.5-27.6c0-18.8,17.6-37.3,39.2-41.3c0.8-0.1,1.6-0.3,2.4-0.4
	l2.3-22.2l63.1-10.8l-10.7,117.6L-103.9,410.5"/>
<linearGradient id="SVGID_8_" gradientUnits="userSpaceOnUse" x1="-66.6797" y1="433.8474" x2="-58.6797" y2="405.8474" gradientTransform="matrix(1 0 0 -1 0 841.67)">
	<stop  offset="6.129999e-02" style="stop-color:#335185"/>
	<stop  offset="1" style="stop-color:#0064B0"/>
</linearGradient>
<polyline class="st8" points="-26.2,416.6 -94.6,420.9 -103.9,410.5 -34.9,404 -26.2,416.6 "/>
<polygon class="st9" points="-26.2,416.6 -34.8,404.3 -24.2,286.7 -16.9,299.5 "/>
<path class="st10" d="M-318.5,479.5c-3.6,3.6-5.8,8.2-6.5,13.8l-1.1,8.7c-0.3,2.4,0,4.8,0.8,7.2c0.9,2.4,2.2,4.2,3.9,5.4
	c2.9,2.2,7.2,3.1,13,2.7l15.8-1.2c3.2-0.2,4.2,0.7,3.8,3.7l-0.7,5.4c-0.6,4.5-2.1,4.6-2.9,4.6l-38.2,2.8l-2.1,16.5l39.6-2.8
	c4.7-0.3,9.1-2.4,13.1-6.3c4-3.8,6.3-8.1,6.9-12.8l1.5-11c0.7-5.1-0.7-9.4-4-12.8c-3.3-3.4-7.6-4.8-12.8-4.4l-17.4,1.4
	c-1.2,0.1-2.1-0.2-2.8-0.8c-0.6-0.5-0.8-1.2-0.7-2.1l0.7-5c0.1-1.1,0.6-1.7,0.9-2c0.5-0.5,1.1-0.8,1.9-0.8l38.1-3.2l2.2-16.8
	l-39.2,3.4C-310.2,473.8-314.8,475.9-318.5,479.5z"/>
<path class="st10" d="M-197,469c-3.6-3.1-8.7-4.4-15.2-3.8l-22.2,1.9c-6.7,0.6-12.2,2.8-16.5,6.5c-4.4,3.8-7,8.7-7.7,14.5l-4.8,36.4
	c-0.8,5.9,0.6,10.6,4.2,14c3.5,3.4,8.5,4.8,14.8,4.4l22.1-1.5c6.2-0.4,11.8-2.7,16.4-6.8c4.8-4.1,7.6-9.1,8.3-14.9l4.9-37.1
	C-191.8,476.8-193.3,472.2-197,469z M-210.6,487.8l-4,30c-0.6,4.5-2.6,6.5-6.8,6.8l-19.4,1.4c-2.2,0.2-3.7-0.2-4.4-1
	c-0.8-0.9-1-2.8-0.6-5.4l3.9-29.3c0.6-4.3,2.4-6.1,6.7-6.4l19.5-1.6C-211.5,481.9-210,483.5-210.6,487.8z"/>
<path class="st10" d="M-166.1,518.7c-1-1.2-1.4-2.6-1.2-4.4l4.2-31.3c0.2-1.7,0.9-3,1.9-4c1.1-1,2.5-1.6,4.2-1.7l31.5-2.6l2.3-17.3
	l-31.5,2.8c-5.8,0.5-11.1,2.4-15.8,5.7c-3.2,2-5.6,4.4-7.2,7.2c-1.5,2.6-2.5,5.9-3,9.9l-4.7,35.4c-0.8,5.9,0.8,10.8,4.8,14.4
	c3.9,3.6,9.2,5.1,15.7,4.7l31.5-2.2l2.3-17.3l-31.3,2.3C-163.9,520.3-165.1,519.9-166.1,518.7z"/>
<path class="st10" d="M-50.9,456.3c-3.9-3.2-9.3-4.5-16.3-3.9l-23.7,2.1c-7.1,0.6-13.1,2.9-17.6,6.7c-4.7,3.9-7.4,9-8.2,15
	l-5.1,37.7c-0.8,6.1,0.7,11,4.5,14.5c3.8,3.5,9.1,5,15.8,4.5l23.6-1.7c6.7-0.5,12.6-2.8,17.6-7.1c5.1-4.3,8.1-9.5,8.9-15.4l5.2-38.4
	C-45.3,464.3-46.9,459.6-50.9,456.3z M-65.4,475.8l-4.2,31c-0.6,4.7-2.8,6.7-7.3,7.1l-20.8,1.5c-2.4,0.2-4-0.2-4.7-1
	c-0.8-0.9-1-2.9-0.7-5.6l4.1-30.3c0.6-4.4,2.6-6.3,7.2-6.7l20.8-1.7C-66.4,469.7-64.8,471.3-65.4,475.8z"/>
<path class="st10" d="M33.1,448.2c-3.7-2.7-9.4-3.8-17-3.1L-5.2,447c-7.5,0.7-13.5,2.7-17.8,6.1c-5.8,4.5-9.3,10.5-10.3,17.8
	l-7.9,57.8l18.9-1.3l7.7-56.4c0.4-3.1,1.3-4.2,1.7-4.5c0.3-0.3,1.5-1.1,5.3-1.4l21.6-1.8c2.4-0.2,4.2,0.1,5.2,0.8
	c0.5,0.5,0.6,0.9,0.6,1l-8.2,60l19.2-1.4l8.1-58.7c0.5-3.7,0.3-7-0.7-9.8C37.2,452.4,35.5,450,33.1,448.2z"/>
<path class="st10" d="M123.1,495.1l5.5-39.5c0.4-2.8,0.1-5.6-0.7-8.1c-0.9-2.5-2.3-4.7-4.2-6.6c-2-1.9-4.1-3.1-6.4-3.6
	c-2.1-0.5-5.2-0.5-9.4-0.2l-52.4,4.6l-2.5,18l50.2-4.2c5.4-0.5,5.1,1.3,5,2.2l-0.3,2.2l-31.6,2.6c-7.7,0.6-14,3.5-18.9,8.6
	c-4.7,4.9-7.6,11.5-8.7,19.6l-1.3,9.1c-0.8,6,0.9,11.2,5,15.5c4.2,4.3,9.5,6.3,15.9,5.8l28-2c6.2-0.4,23.8-1.6,23.8-1.6
	S122.3,500.9,123.1,495.1z M102.9,495.9c0,0.3-0.2,1-1,2.2c-0.6,0.9-1.3,1.7-1.9,2.2c-0.1,0.1-1.3,0.7-6.2,1l-18.9,1.4
	c-4.2,0.3-5.7-0.1-6.2-0.3c-0.4-0.4-0.8-1-1.1-1.8c-0.4-1.2-0.4-1.8-0.4-2l1.7-12.2c0.2-1.7,1-3,2.5-4.1c1.7-1.2,3.7-1.9,6.4-2.1
	l19.3-1.5c2.8-0.2,4.9,0.2,6.2,1.1c1.2,0.9,1.6,2.1,1.4,3.8L102.9,495.9z"/>
</svg>
