<?xml version="1.0" encoding="utf-8"?>
<!-- Generator: Adobe Illustrator 19.1.0, SVG Export Plug-In . SVG Version: 6.00 Build 0)  -->
<svg version="1.1" id="Calque_1" xmlns="http://www.w3.org/2000/svg" xmlns:xlink="http://www.w3.org/1999/xlink" x="0px" y="0px"
	 viewBox="-345 170.9 500 500" style="enable-background:new -345 170.9 500 500;" xml:space="preserve">
<style type="text/css">
	.st0{fill:#F39200;}
</style>
<path class="st0" d="M-274.2,196.8v356.5H84.1V196.8H-274.2z M-133.2,199.9h98.6v49.3h-98.6L-133.2,199.9L-133.2,199.9z
	 M-141.4,248.6h-19.1c0,0-32.7,66.2-44.1,88.5c-12.7,25-17.2,25.3-38.6,25.3c-20.2,0-23.4,0-23.4,0v-46.8h12.6
	c0,0,10.2,0.5,15.8-13.3c6.7-16.5,27.5-59,33.9-72.1c6.4-13.1,13.5-30.3,38.8-30.3c24,0,24,0.6,24,0.6V248.6z M-33.4,312.5h-54.4
	v49.9H-134v-98.6h0.1h46.1h54.4V312.5z M2,363h-29v-46.4H2c17.8,0,32.3-15.6,32.3-34.8c0-19.2-14.5-33.3-32.3-33.3h-29v-47.8H2
	c42.9,0,77.8,36.4,77.8,81.1C79.8,326.6,44.9,363,2,363z"/>
<path class="st0" d="M-228.2,607.8c-3-1.5-8.3-3.2-16.2-5.2c-9.3-2.4-12.6-4.2-13.8-5.4c-1.6-1.6-2.4-3.7-2.4-6.3
	c0-3,1.2-5.5,3.5-7.6c2.4-2.1,6.3-3.2,11.8-3.2c5.2,0,9.1,1.2,11.7,3.6c2.6,2.4,4.1,6,4.6,10.7l0.1,1.2l11.6-1l0-1.2
	c-0.2-4.9-1.4-9.4-3.7-13.3c-2.3-4-5.7-7-10-9c-4.2-2-9.2-3-14.7-3c-5,0-9.6,1-13.7,2.9c-4.2,1.9-7.4,4.8-9.6,8.6
	c-2.2,3.7-3.3,7.8-3.3,12.1c0,3.9,0.9,7.5,2.7,10.7c1.8,3.2,4.5,5.9,8.1,8c2.8,1.6,7.4,3.3,14.2,5.2c6.5,1.8,10.8,3.1,12.7,3.9
	c2.8,1.2,4.8,2.6,5.9,4.3c1.2,1.7,1.7,3.7,1.7,5.9c0,2.2-0.6,4.3-1.8,6.2c-1.2,1.9-3.1,3.4-5.7,4.5c-2.6,1.1-5.7,1.7-9.1,1.7
	c-3.9,0-7.4-0.8-10.5-2.3c-3-1.5-5.3-3.4-6.7-5.8c-1.5-2.4-2.4-5.6-2.8-9.4l-0.1-1.2l-11.4,1.1l0,1.2c0.1,5.6,1.5,10.7,4.1,15.1
	c2.6,4.5,6.3,7.9,10.9,10.1c4.6,2.2,10.2,3.3,16.9,3.3c5.3,0,10.2-1.1,14.5-3.3c4.3-2.2,7.7-5.4,10-9.3c2.3-4,3.5-8.3,3.5-12.8
	c0-4.5-1.1-8.6-3.2-12.1C-220.5,613-223.8,610.1-228.2,607.8z"/>
<path class="st0" d="M-153.2,573.6c-5.5-3.7-11.8-5.5-18.7-5.5c-10.5,0-19.2,4-25.8,11.8c-6.6,7.8-9.9,18.6-9.9,32.2
	c0,7.2,1.4,14.2,4.2,20.6c2.8,6.5,7.1,11.8,12.6,15.5c5.5,3.8,11.9,5.7,18.9,5.7c6.5,0,12.6-1.7,18.1-5.2c5.6-3.4,10-8.5,13-15.2
	c3-6.6,4.5-14.1,4.5-22.5c0-8.2-1.4-15.7-4.3-22.1C-143.4,582.5-147.7,577.3-153.2,573.6z M-148.6,611.1c0,10-2.2,17.8-6.7,23.2
	c-4.4,5.4-9.9,8-16.7,8c-6.7,0-12.1-2.6-16.6-7.9c-4.4-5.3-6.7-12.8-6.7-22.1c0-11.7,2.3-20.2,6.9-25.1c4.6-4.9,10.1-7.4,16.5-7.4
	c4.4,0,8.5,1.3,12.1,3.8c3.6,2.5,6.4,6.2,8.2,10.8C-149.6,599.1-148.6,604.7-148.6,611.1z"/>
<polygon class="st0" points="-114,581.5 -74.9,581.5 -74.9,569.5 -126,569.5 -126,652.6 -114,652.6 -114,616 -80.2,616 -80.2,604 
	-114,604 "/>
<path class="st0" d="M-38.5,569.5h-12L-79,652.6h12.8l7.9-24.4H-30l8.4,24.4h13.6l-30.1-82.3L-38.5,569.5z M-33.9,617h-20.9l7.3-22
	c1.1-3.4,2.1-6.9,2.9-10.4c1,3.4,2.2,7.3,3.7,11.7L-33.9,617z"/>
<path class="st0" d="M46.8,576.8c-3.1-2.9-6.8-5-11.1-6.1c-3.1-0.8-7.5-1.2-13.1-1.2H-3.6v83.1h27.2c4.4,0,8.4-0.5,11.9-1.4
	c3.5-1,6.5-2.4,9-4.2c2.5-1.9,4.8-4.4,6.9-7.6c2.1-3.2,3.8-7.3,5.1-12.1c1.3-4.9,2-10.4,2-16.6c0-7.3-1-13.9-2.9-19.6
	C53.7,585.3,50.7,580.5,46.8,576.8z M8.5,581.5h13.9c5.5,0,9.4,0.5,11.8,1.5c3.3,1.4,6.1,4.3,8.4,8.5c2.4,4.3,3.6,10.7,3.6,18.8
	c0,5.9-0.6,11-1.8,15.2c-1.2,4.1-2.9,7.3-5,9.7c-1.5,1.6-3.5,2.9-6,3.8c-2.6,0.9-6.2,1.4-10.7,1.4H8.5L8.5,581.5L8.5,581.5z"/>
<rect x="70.7" y="569.5" class="st0" width="12" height="83.1"/>
</svg>
