<?xml version="1.0" encoding="utf-8"?>
<!-- Generator: Adobe Illustrator 19.1.0, SVG Export Plug-In . SVG Version: 6.00 Build 0)  -->
<svg version="1.1" id="Calque_1" xmlns="http://www.w3.org/2000/svg" xmlns:xlink="http://www.w3.org/1999/xlink" x="0px" y="0px"
	 viewBox="-345 170.9 500 500" style="enable-background:new -345 170.9 500 500;" xml:space="preserve">
<style type="text/css">
	.st0{fill:#254092;}
	.st1{fill:#0089D0;}
	.st2{fill:#FFFFFF;}
</style>
<g>
	<path class="st0" d="M138.4,413.7V217.2h-465.9v201c27,6.6,139.5,32.5,237.2,32.5C7,450.8,112.4,421.4,138.4,413.7z"/>
	<path class="st1" d="M-90.3,450.8c-97.7,0-210.2-25.9-237.2-32.5v204.1h465.9V413.7C112.4,421.4,7,450.8-90.3,450.8z"/>
	<path class="st2" d="M-222.3,323.8c-29.4-3.6-27.2-9.4-27.2-10.6c0-1.2-0.3-10.5,22.2-10c22.5,0.5,33.8,7,33.8,7s8.2-7.1,15.5-12.9
		c-2.9-1.6-5.3-2.6-7.3-3.2c-5.7-2.2-16.4-4.8-40-6.3c-35.9-2.3-61.1,10.3-61.1,25.1c-0.4-0.5-3.3,26.3,51,31.3
		c14.4,1.3,22.2,3.4,24.1,8.7c0.1,0.3,0.1,0.6,0.1,1c0.2,7.4-1.3,13.5-27,13.6c-25.8,0.1-41.7-7.5-41.7-7.5l-11.7,14.5l2,1.7
		c10.7,3.5,30.8,6,47.9,6c48.6,0,65.8-14.4,65.8-26.7C-174.9,336.2-192.9,327.4-222.3,323.8z"/>
	<path class="st2" d="M65,290.3H32.6l0,0.1H0.9v90.8H34v-33.5h31c0,0,46.5-0.5,46.5-27.8v-1.7C111.6,290.8,65,290.3,65,290.3z
		 M76,319.2c0,9.8-10.3,13.2-18.2,13.2s-24,0-24,0v-26.9c0,0,16,0,24,0S76,308.9,76,318.7V319.2z"/>
	<path class="st2" d="M-33.5,330.6l-61.1-0.2l2.9,9.5v3.1h0.9l0.9,2.9h22.8V366c-54.9,9.4-53.3-20.8-53.3-29.9
		c0-19.4,12.5-32.2,33.1-32.2c20.5,0,35.4,7.5,35.4,7.5s5.5-4.1,17.1-11.4c-8.4-4.3-19-6.9-19-6.9c-5.4-1.9-16.8-4.2-31-4.2
		c-40.1,0-71.2,18.8-71.2,46.8c0,38.8,48.2,45.8,67.7,45.8c11.2,0,20.9-1.3,27.9-2.6c5.8-0.6,14.9-2,26.9-5.2
		C-33.5,356.3-33.5,330.6-33.5,330.6z"/>
	<path class="st2" d="M108.9,236.1c-8.3,0-15,7.1-15,15.8c0,8.7,6.7,15.8,15,15.8c8.3,0,15-7.1,15-15.8
		C123.9,243.2,117.2,236.1,108.9,236.1z M115.7,261.5c-0.4-0.9-0.8-2.6-1.3-4.9c-0.5-2-1.4-3.4-2.8-3.9v-0.1c2-0.7,3.6-2.4,3.6-4.9
		c0-1.5-0.6-2.9-1.5-3.7c-1.2-1.1-2.9-1.6-5.6-1.6c-1.7,0-3.6,0.2-4.8,0.4V262h2.5v-8.4h2.4c2.3,0.1,3.4,1.1,3.9,3.8
		c0.5,2.4,1,4.1,1.3,4.7h1.8c-1.8,1.2-3.9,2-6.2,2c-6.3,0-11.4-5.4-11.4-12.1c0-6.7,5.1-12.1,11.4-12.1s11.4,5.4,11.4,12.1
		C120.3,255.8,118.5,259.3,115.7,261.5z M108.3,251.7h-2.6v-7.1c0.4-0.1,1.3-0.2,2.5-0.2c2.7,0,4.5,1.1,4.5,3.6
		C112.7,250.2,111,251.7,108.3,251.7z"/>
	<path class="st2" d="M-313.3,591.4c1.4,0.9,3.9,1.8,6.3,1.8c3.4,0,5-1.7,5-3.9c0-2.2-1.3-3.4-4.8-4.7c-4.7-1.7-6.9-4.2-6.9-7.3
		c0-4.2,3.4-7.6,8.9-7.6c2.6,0,4.9,0.7,6.3,1.6l-1.1,3.4c-1-0.6-2.9-1.6-5.3-1.6c-2.8,0-4.3,1.6-4.3,3.5c0,2.1,1.5,3.1,4.9,4.4
		c4.4,1.7,6.8,3.9,6.8,7.8c0,4.6-3.6,7.8-9.6,7.8c-2.8,0-5.5-0.8-7.3-1.8L-313.3,591.4z"/>
	<path class="st2" d="M-259.1,583c0,9.6-8.3,13.8-16.1,13.8c-8.7,0-15.5-5.1-15.5-13.3c0-8.6,7.1-13.7,16-13.7
		C-265.4,569.7-259.1,575.1-259.1,583z M-284.6,583.2c0,5.7,4,10,9.7,10c5.6,0,9.8-4.2,9.8-10.1c0-4.4-2.7-9.9-9.7-9.9
		C-281.6,573.2-284.6,578.4-284.6,583.2z"/>
	<path class="st2" d="M-222.2,592.3c0,6-1.6,9.6-4.9,11.9c-3.4,2.3-8.2,3.1-12.5,3.1c-4.1,0-8.6-0.8-11.4-2.1l1.6-3.6
		c2.3,1.1,5.8,2.1,10,2.1c6.4,0,11-2.5,11-9.1v-2.8h-0.1c-1.8,2.4-5.6,4.3-10.9,4.3c-8.5,0-14.6-5.5-14.6-12.6
		c0-8.8,7.6-13.7,15.5-13.7c5.9,0,9.1,2.3,10.7,4.4h0.1l0.2-3.9h5.5c-0.2,1.8-0.3,4-0.3,7.1L-222.2,592.3L-222.2,592.3z
		 M-228.4,580.4c0-0.8-0.1-1.5-0.4-2.1c-1.1-2.8-4.1-5-8.7-5c-5.9,0-10.2,3.8-10.2,9.8c0,5.1,3.5,9.3,10.1,9.3
		c3.9,0,7.3-1.8,8.6-4.8c0.4-0.8,0.5-1.7,0.5-2.5L-228.4,580.4L-228.4,580.4z"/>
	<path class="st2" d="M-210.2,584c0.1,6.4,5.1,9,11,9c4.2,0,6.8-0.6,8.9-1.3l1.1,3.4c-2.1,0.7-5.6,1.7-10.7,1.7
		c-9.9,0-15.8-5.3-15.8-13.1c0-7.8,5.7-13.9,15-13.9c10.5,0,13.3,7.4,13.3,12.2c0,1-0.1,1.7-0.2,2.2L-210.2,584L-210.2,584z
		 M-193.1,580.7c0.1-2.9-1.5-7.6-8.1-7.6c-6,0-8.5,4.3-8.9,7.6H-193.1z"/>
	<path class="st2" d="M-180.2,578.7c0-3.3-0.1-6-0.3-8.5h5.2l0.3,4.4h0.1c2.3-3.2,6.2-5,11.4-5c7.8,0,13.7,5.3,13.7,13.1
		c0,9.3-7.1,13.9-14.7,13.9c-4.2,0-8-1.5-9.9-4.1h-0.1v14.1h-5.8V578.7z M-174.4,585.6c0,0.7,0.1,1.3,0.3,1.9
		c1.1,3.3,4.6,5.5,8.8,5.5c6.2,0,9.7-4.1,9.7-10c0-5.1-3.4-9.6-9.6-9.6c-4,0-7.8,2.2-8.8,5.8c-0.2,0.6-0.4,1.3-0.4,1.9L-174.4,585.6
		L-174.4,585.6z"/>
	<path class="st2" d="M-142,578.3c0-3-0.1-5.7-0.3-8.1h5.1l0.3,5.1h0.2c1.5-3.5,5.1-5.7,9-5.7c0.6,0,1.1,0.1,1.6,0.1v4.4
		c-0.6-0.1-1.2-0.1-2-0.1c-4.1,0-7.1,2.5-7.9,6c-0.1,0.6-0.2,1.4-0.2,2.2v13.8h-5.9V578.3z"/>
	<path class="st2" d="M-89.4,583c0,9.6-8.6,13.8-16.5,13.8c-8.9,0-15.9-5.1-15.9-13.3c0-8.6,7.3-13.7,16.5-13.7
		C-95.8,569.7-89.4,575.1-89.4,583z M-115.7,583.2c0,5.7,4.1,10,10,10c5.8,0,10.1-4.2,10.1-10.1c0-4.4-2.8-9.9-9.9-9.9
		C-112.6,573.2-115.7,578.4-115.7,583.2z"/>
	<path class="st2" d="M-79.8,570.2l5.8,14.5c1,2.4,1.8,4.5,2.4,6.7h0.2c0.7-2.1,1.5-4.3,2.5-6.7l5.8-14.5h5.7l-11.7,25.9h-5.2
		l-11.3-25.9H-79.8L-79.8,570.2z"/>
	<path class="st2" d="M-47.5,584c0.1,6.4,4.9,9,10.6,9c4,0,6.5-0.6,8.5-1.3l1,3.4c-2,0.7-5.4,1.7-10.3,1.7
		c-9.5,0-15.2-5.3-15.2-13.1c0-7.8,5.5-13.9,14.5-13.9c10.1,0,12.7,7.4,12.7,12.2c0,1-0.1,1.7-0.2,2.2L-47.5,584L-47.5,584z
		 M-31.1,580.7c0.1-2.9-1.5-7.6-7.8-7.6c-5.7,0-8.2,4.3-8.6,7.6H-31.1z"/>
	<path class="st2" d="M-17.4,591.8c0-2.9,2-5,4.8-5c2.8,0,4.7,2,4.8,5c0,2.8-1.9,4.9-4.9,4.9C-15.4,596.7-17.4,594.6-17.4,591.8z"/>
	<path class="st2" d="M29,595.4c-2.1,0.7-6,1.2-10.4,1.2c-12.1,0-19.8-5.2-19.8-13.4c0-7.7,7.5-13.9,21.4-13.9c3.1,0,6.4,0.4,8.9,1
		l-1.8,6c-1.4-0.4-3.4-0.8-6.5-0.8c-6.1,0-10.1,3.1-10,7.3c0,4.8,4.6,7.3,10.3,7.3c2.8,0,4.9-0.3,6.7-0.9L29,595.4z"/>
	<path class="st2" d="M69.9,582.8c0,9.6-9.4,14-19.1,14c-10.6,0-18.7-5-18.7-13.5c0-8.5,7.7-13.9,19.4-13.9
		C62.5,569.3,69.9,574.8,69.9,582.8z M43.8,583c0,4.5,2.6,7.9,7.4,7.9c4.4,0,7.2-3.2,7.2-7.9c0-3.9-2.1-7.8-7.2-7.8
		C45.9,575.2,43.8,579.2,43.8,583z"/>
	<path class="st2" d="M75.3,578.3c0-3.3-0.1-6-0.3-8.4h9.8l0.5,3.5h0.2c1.6-1.7,4.9-4.2,11.2-4.2c4.9,0,8.6,1.8,10.2,4.5h0.2
		c1.4-1.4,3-2.5,4.9-3.2c2-0.8,4.3-1.3,7.1-1.3c7.1,0,12.5,3.5,12.5,11.4v15.4h-11.2v-14.2c0-3.8-1.7-6-5.5-6
		c-2.7,0-4.6,1.3-5.4,2.8c-0.2,0.6-0.4,1.4-0.4,2.1v15.3H97.8v-14.7c0-3.3-1.7-5.5-5.4-5.5c-3,0-4.7,1.6-5.4,2.9
		c-0.4,0.6-0.5,1.4-0.5,2.1v15.3H75.3L75.3,578.3L75.3,578.3z"/>
</g>
</svg>
