<?xml version="1.0" encoding="utf-8"?>
<!-- Generator: Adobe Illustrator 19.1.0, SVG Export Plug-In . SVG Version: 6.00 Build 0)  -->
<svg version="1.1" id="Calque_1" xmlns="http://www.w3.org/2000/svg" xmlns:xlink="http://www.w3.org/1999/xlink" x="0px" y="0px"
	 viewBox="-345 170.9 500 500" style="enable-background:new -345 170.9 500 500;" xml:space="preserve">
<style type="text/css">
	.st0{fill:#1D1D1B;}
	.st1{fill:#CA4D4B;}
</style>
<path class="st0" d="M-287.8,455.8h16v-24.5h-13l-2.7,2.8c0,0-7.3-4.3-14.8-4.3c-7.5,0-24,10.5-24,25s16.5,20.5,23.5,24
	c7,3.5,18.3,8.3,10.5,16c-7.8,7.8-14-4-14.5-7.5h-18v23.5h15l2.5-1.5c0,0,7,5.5,14.5,4.5c7.5-1,24.5-8.5,24-26.5
	c-0.5-18-23-24-26.5-26c-3.5-2-15-7.5-6.5-13C-293.3,442.8-287.8,455.8-287.8,455.8z"/>
<path class="st0" d="M-225.7,429.2c-23.5,0-42.5,19-42.5,42.5s19,42.5,42.5,42.5c23.5,0,42.5-19,42.5-42.5
	C-183.2,448.3-202.2,429.2-225.7,429.2z M-225.7,493.3c-11.9,0-21.5-9.6-21.5-21.5c0-11.9,9.6-21.5,21.5-21.5
	c11.9,0,21.5,9.6,21.5,21.5C-204.2,483.6-213.9,493.3-225.7,493.3z"/>
<path class="st0" d="M-175.7,448.3h-5.5v-16h33v16h-5.5v36c0,0-0.5,10,9,10c9.5,0,9-7.5,9-7.5v-38h-4v-16.5h34v16.5h-7v39
	c0,0-4,26.5-30,26.5s-32.5-25-32.5-25L-175.7,448.3z"/>
<path class="st0" d="M-50.2,431.7h-50v16.5h7l-0.5,47.5h-7v17h46.5c0,0,34-3,34-38.5C-20.2,433.7-50.2,431.7-50.2,431.7z
	 M-53.2,493.8l-17-0.5v-42.5h14c0,0,16,0.5,16,22S-53.2,493.8-53.2,493.8z"/>
<path class="st0" d="M56.4,494.8l-27-62H-2.1v15.5h6.5l-20,47l-5,0.5v16.5h37v-16.5h-9l3.5-4.5h20l2,7.5h-6v14h36v-18L56.4,494.8
	L56.4,494.8z M12.4,475.3l8.5-19l7,19H12.4z"/>
<polygon class="st0" points="77.4,448.8 68.9,448.8 68.9,431.7 105.9,431.7 105.9,448.8 97.9,448.8 97.9,493.3 111.9,493.3 
	111.9,482.8 132.4,482.8 132.4,511.3 69.4,511.3 69.4,496.3 75.4,496.3 "/>
<rect x="-325.1" y="332" class="st1" width="456.5" height="79.8"/>
</svg>
