<?xml version="1.0" encoding="utf-8"?>
<!-- Generator: Adobe Illustrator 15.0.0, SVG Export Plug-In . SVG Version: 6.00 Build 0)  -->
<!DOCTYPE svg PUBLIC "-//W3C//DTD SVG 1.1//EN" "http://www.w3.org/Graphics/SVG/1.1/DTD/svg11.dtd">
<svg version="1.1" id="Calque_1" xmlns="http://www.w3.org/2000/svg" xmlns:xlink="http://www.w3.org/1999/xlink" x="0px" y="0px"
	 width="500px" height="500px" viewBox="0 0 500 500" enable-background="new 0 0 500 500" xml:space="preserve">
<g id="layer1" transform="translate(-36.72372,-286.11)" inkscape:label="Ebene 1" inkscape:groupmode="layer">
	<g id="g1982" transform="translate(3.540624,3.540056)">
		<path id="path8" fill="#00894F" stroke="#00894F" stroke-width="0.979" stroke-miterlimit="3.864" d="M307.827,547.547
			l12.869-33.73l12.559,33.73H307.827z M302.085,490.465l-36.636,83.547h32.034l2.976-7.195h40.165l3.493,7.195h31.517
			l-36.636-83.547H302.085z"/>
		<path id="path12" fill="#00894F" d="M55.566,550.024c0,20.036,24.84,27.464,54.113,27.464c28.027,0,54.771-6.667,54.771-28.189
			c0-15.339-12.194-22.663-30.764-24.978c-25.81-3.213-41.434-4.594-41.434-11.158c0-7.393,29.759-7.911,29.759,3.178h39.078
			c-0.173-19.139-25.706-27.36-51.064-27.36c-23.904,0-51.757,5.147-51.93,25.84c-0.139,15.58,9.493,22.353,27.714,25.806
			c18.396,3.456,41.677,3.145,41.677,10.641c0,10.157-30.036,8.914-30.036-1.243H55.566z"/>
		<path id="path14" fill="#00894F" stroke="#00894F" stroke-width="0.979" stroke-miterlimit="3.864" d="M175.087,574.012h32.831
			v-25.981h29.889c29.061,0,40.062-9.721,40.062-28.956c0-20.515-15.429-28.575-40.062-28.575h-62.72V574.012z M207.848,510.945
			h20.203c8.614,0,15.118,2.525,15.118,8.822c0,6.054-6.331,8.303-15.118,8.303h-20.203V510.945z"/>
		<path id="path20" fill="none" stroke="#00894F" stroke-width="5.3933" stroke-miterlimit="3.864" d="M334.327,534.02
			c0-38.643,31.309-69.985,69.95-69.985c38.643,0,69.986,31.343,69.986,69.985c0,38.644-31.344,69.951-69.986,69.951
			C365.635,603.971,334.327,572.664,334.327,534.02z"/>
		<path id="path22" fill="#00894F" stroke="#00894F" stroke-width="0.979" stroke-miterlimit="3.864" d="M410.781,561.593
			l19.166,19.131l21.104-21.103L431.4,539.97c-3.287-3.251-3.356-8.683-0.069-11.935l19.72-19.581l-21.139-21.103l-19.165,19.2
			c-3.286,3.252-9.133,3.598-12.419,0.312l-19.546-19.511l-21.139,21.103l19.512,19.581c3.287,3.251,2.976,8.925-0.311,12.178
			l-19.201,19.408l21.139,21.103l19.546-19.686c3.286-3.286,8.579-3.286,11.831,0L410.781,561.593z"/>
		<path id="path24" fill="none" stroke="#00894F" stroke-width="2.9406" stroke-miterlimit="3.864" d="M481.459,480.121
			c0-8.856,7.195-16.086,16.086-16.086c8.892,0,16.122,7.23,16.122,16.086c0,8.891-7.23,16.122-16.122,16.122
			C488.654,496.243,481.459,489.012,481.459,480.121z"/>
		<path id="path26" fill="#00894F" stroke="#00894F" stroke-width="0.4912" stroke-miterlimit="3.864" d="M493.601,473.306h5.501
			c1.765,0,3.355,0.484,3.355,2.941c0,2.041-1.142,3.113-3.286,3.113h-5.57V473.306z M490.211,489.912h3.391v-7.992h4.981
			c3.114,0,3.875,1.592,3.875,5.12c0,0.969,0,2.042,0.52,2.872h3.632c-0.727-0.795-1.072-2.872-1.072-5.12
			c0-3.044-1.695-3.909-2.871-4.082v-0.069c0.622-0.207,3.217-1.141,3.217-4.877c0-3.287-2.18-5.224-6.435-5.224h-9.237V489.912z"/>
		<path id="path28" fill="none" stroke="#00894F" stroke-width="2.4113" stroke-miterlimit="3.864" d="M481.459,480.121
			c0-8.856,7.195-16.086,16.086-16.086c8.892,0,16.122,7.23,16.122,16.086c0,8.891-7.23,16.122-16.122,16.122
			C488.654,496.243,481.459,489.012,481.459,480.121z"/>
		<path id="path30" fill="none" stroke="#00894F" stroke-width="4.5354" stroke-miterlimit="3.864" d="M334.327,534.02
			c0-38.643,31.309-69.985,69.95-69.985c38.643,0,69.986,31.343,69.986,69.985c0,38.644-31.344,69.951-69.986,69.951
			C365.635,603.971,334.327,572.664,334.327,534.02z"/>
	</g>
</g>
</svg>
