<?xml version="1.0" encoding="utf-8"?>
<!-- Generator: Adobe Illustrator 19.1.0, SVG Export Plug-In . SVG Version: 6.00 Build 0)  -->
<svg version="1.1" id="Calque_1" xmlns="http://www.w3.org/2000/svg" xmlns:xlink="http://www.w3.org/1999/xlink" x="0px" y="0px"
	 viewBox="-345 170.9 500 500" style="enable-background:new -345 170.9 500 500;" xml:space="preserve">
<style type="text/css">
	.st0{fill:#00894F;stroke:#00894F;stroke-width:0.979;stroke-miterlimit:3.864;}
	.st1{fill:#00894F;}
	.st2{fill:none;stroke:#00894F;stroke-width:5.3933;stroke-miterlimit:3.864;}
	.st3{fill:none;stroke:#00894F;stroke-width:2.9406;stroke-miterlimit:3.864;}
	.st4{fill:#00894F;stroke:#00894F;stroke-width:0.4912;stroke-miterlimit:3.864;}
	.st5{fill:none;stroke:#00894F;stroke-width:2.4113;stroke-miterlimit:3.864;}
	.st6{fill:none;stroke:#00894F;stroke-width:4.5354;stroke-miterlimit:3.864;}
</style>
<path class="st0" d="M-39.2,378.8h-36.9v0l-36.6,83.5h32l3-7.2h40.2l3.5,7.2h31.5L-39.2,378.8z M-70.4,435.9l12.9-33.7l12.6,33.7
	H-70.4z"/>
<path class="st1" d="M-244.5,412.6c-25.8-3.2-41.4-4.6-41.4-11.2c0-7.4,29.8-7.9,29.8,3.2h39.1c-0.2-19.1-25.7-27.4-51.1-27.4
	c-23.9,0-51.8,5.1-51.9,25.8c-0.1,15.6,9.5,22.4,27.7,25.8c18.4,3.5,41.7,3.1,41.7,10.6c0,10.2-30,8.9-30-1.2h-41.9
	c0,20,24.8,27.5,54.1,27.5c28,0,54.8-6.7,54.8-28.2C-213.7,422.3-225.9,415-244.5,412.6z"/>
<path class="st0" d="M-140.4,378.8h-62.7v83.5h32.8v-26h29.9c29.1,0,40.1-9.7,40.1-29C-100.3,386.9-115.7,378.8-140.4,378.8z
	 M-150.1,416.4h-20.2v-17.1h20.2c8.6,0,15.1,2.5,15.1,8.8C-135,414.1-141.3,416.4-150.1,416.4z"/>
<path class="st2" d="M26.1,352.4c-38.6,0-69.9,31.3-69.9,70c0,38.6,31.3,70,69.9,70c38.6,0,70-31.3,70-70
	C96.1,383.7,64.7,352.4,26.1,352.4z"/>
<path class="st0" d="M53.1,416.4l19.7-19.6l-21.1-21.1l-19.2,19.2c-3.3,3.3-9.1,3.6-12.4,0.3L0.6,375.7l-21.1,21.1L-1,416.4
	c3.3,3.3,3,8.9-0.3,12.2l-19.2,19.4L0.6,469l19.5-19.7c3.3-3.3,8.6-3.3,11.8,0l0.6,0.6L51.8,469l21.1-21.1l-19.7-19.7
	C49.9,425,49.9,419.6,53.1,416.4z"/>
<path class="st3" d="M119.4,352.4c-8.9,0-16.1,7.2-16.1,16.1c0,8.9,7.2,16.1,16.1,16.1c8.9,0,16.1-7.2,16.1-16.1
	C135.5,359.6,128.3,352.4,119.4,352.4z"/>
<path class="st4" d="M127.4,373.1c0-3-1.7-3.9-2.9-4.1V369c0.6-0.2,3.2-1.1,3.2-4.9c0-3.3-2.2-5.2-6.4-5.2H112v19.4h3.4v-8h5
	c3.1,0,3.9,1.6,3.9,5.1c0,1,0,2,0.5,2.9h3.6C127.7,377.4,127.4,375.4,127.4,373.1z M121,367.7h-5.6v-6.1h5.5c1.8,0,3.4,0.5,3.4,2.9
	C124.3,366.6,123.1,367.7,121,367.7z"/>
<path class="st5" d="M119.4,352.4c-8.9,0-16.1,7.2-16.1,16.1c0,8.9,7.2,16.1,16.1,16.1c8.9,0,16.1-7.2,16.1-16.1
	C135.5,359.6,128.3,352.4,119.4,352.4z"/>
<path class="st6" d="M26.1,352.4c-38.6,0-69.9,31.3-69.9,70c0,38.6,31.3,70,69.9,70c38.6,0,70-31.3,70-70
	C96.1,383.7,64.7,352.4,26.1,352.4z"/>
</svg>
