<?xml version="1.0" encoding="utf-8"?>
<!-- Generator: Adobe Illustrator 19.1.0, SVG Export Plug-In . SVG Version: 6.00 Build 0)  -->
<svg version="1.1" id="Calque_1" xmlns="http://www.w3.org/2000/svg" xmlns:xlink="http://www.w3.org/1999/xlink" x="0px" y="0px"
	 viewBox="-345 170.9 500 500" style="enable-background:new -345 170.9 500 500;" xml:space="preserve">
<style type="text/css">
	.st0{fill:#003875;}
	.st1{fill:#FF9100;}
</style>
<path class="st0" d="M-271.7,407.2c-4.5,16.5-14.8,30.1-14.8,30.1l-3.2,0.2c0,0-10.1-0.1-18.3,2.9c-0.5,0-1,0-1.4,0
	c-4.7,0-13-1.2-18,5.3s-7,10.2-7,10.2s29.7,0,40.5,0c10.8,0,29.8-3.3,35-22C-253.7,415.2-269.2,407.2-271.7,407.2z"/>
<path class="st0" d="M-285,391.3c-10.8,0-29.8,3.3-35,22c-5.2,18.7,10.3,26.7,12.8,26.7c4.5-16.5,17.2-22.5,17.2-22.5l0.5-8.7
	c0,0,15.3-2,20-2c4.7,0,13,1.2,18-5.3c5-6.5,7-10.2,7-10.2S-274.2,391.3-285,391.3z"/>
<path class="st0" d="M-136.2,401.7L-136.2,401.7l-0.5,0c-1.3-0.1-2.1,0-2.1,0h-28.4c-5.8,0-5.4,8-5.4,8l0.1,36.1h10v-17.4h19.5v0
	h4.1c0,0,18.4,0.6,18.4-12.9v-1.5C-120.5,403.8-131.2,402-136.2,401.7z M-143,418.7h-19.5v-7.2h26.2c5.1,0,6.9,1.5,6.9,3.2
	C-129.4,419.4-143,418.7-143,418.7z"/>
<path class="st0" d="M-89.6,411.5h30v-9.8c0,0-32.6,0-33,0c-1.5,0-22.1,0.8-22.1,21.8v0.5c0,21,20.6,21.8,22.1,21.8c0.4,0,2,0,2,0
	h31V436h-30c-7.1,0-13.7-0.3-13.7-7.3l35.6-0.2v-9.8l-35.6,0.1C-103.3,411.7-96.7,411.5-89.6,411.5z"/>
<rect x="10.2" y="401.6" class="st0" width="11" height="44"/>
<path class="st0" d="M2.3,445.6L-9,427.2c4.8-1.5,9.7-4.6,9.7-11.7v-1.5c0-10.3-10.7-12.1-15.8-12.4v0h-0.5c-1.3,0-2.1,0-2.1,0H-46
	c-5.8,0-5.4,8-5.4,8l0.1,36.1h10v-17.4h19.5v0h2.5l10.5,17.1L2.3,445.6L2.3,445.6z M-41.2,411.5H-15c5.1,0,6.9,1.5,6.9,3.2
	c0,4.7-13.6,4-13.6,4h-19.5V411.5z"/>
<path class="st0" d="M82.9,420.3c-0.2-4.7-2.6-19-26-19c-28.1,0-26,20.5-26,20.5l0.1,0v23.7h10v-15.3h32v15.3h10L82.9,420.3
	L82.9,420.3L82.9,420.3z M57.3,411.1c15.8,0,16.2,4,16.2,6c0,2-1.4,3-1.4,3H42.6c0,0-1.4-1-1.4-3C41.2,415.2,41.6,411.1,57.3,411.1z
	"/>
<path class="st0" d="M138,401.6v32l-2.9-2.7L112,407.7c-3.6-3.6-5.7-6.6-11.9-6.6s-6.7,7.4-6.7,7.4v37h10v-32.1l3.4,3.1l22.8,22.8
	c0,0,0.1,0.1,0.1,0.1c3.6,3.6,5.7,6.6,11.9,6.6s6.5-7.5,6.5-7.5l0-1.7v-35.4H138z"/>
<path class="st0" d="M-196.5,418.8h-1.6h-4.7h-7.9h-6.2c-3,0-6.5-1-6.5-3.9s3.5-3.6,6.5-3.6h4.8h1.5h28.5v-9.6h-28.5h-1.5h-4.8
	c-10,0-16.5,5-16.5,13.2c0,8.2,6.5,13.5,16.5,13.5h6.2h7.9h6.2c3,0,6.5,0.9,6.5,3.8c0,2.9-3.5,3.8-6.5,3.8h-6.2h-30v9.6h30h6.2
	c10,0,16.5-5.2,16.5-13.4S-186.5,418.8-196.5,418.8z"/>
<path class="st1" d="M-307.5,440.3c0,0-6.7-6.7-6.7-13.1s4.2-20.3,43-20.3c0,0,6.7,6.7,6.7,13.1
	C-264.5,426.4-268.7,440.3-307.5,440.3L-307.5,440.3z"/>
</svg>
