<?xml version="1.0" encoding="utf-8"?>
<!-- Generator: Adobe Illustrator 19.1.0, SVG Export Plug-In . SVG Version: 6.00 Build 0)  -->
<svg version="1.1" id="Calque_1" xmlns="http://www.w3.org/2000/svg" xmlns:xlink="http://www.w3.org/1999/xlink" x="0px" y="0px"
	 viewBox="-345 170.9 500 500" style="enable-background:new -345 170.9 500 500;" xml:space="preserve">
<path d="M-286.6,476.7c8.7,5.9,20.4,10.1,33.5,10.1c17.8,0,34.2-10.5,34.2-29.5c0-11.7-6.6-20.6-23.2-29.5
	c-20.1-11-31.3-23.6-31.3-40.5c0-28.3,24.3-46.3,53.3-46.3c15.4,0,26.9,4.4,32.3,8.2l-7,15.9c-4.9-3-14.7-7.5-27.4-7.5
	c-19.4,0-31.1,12.9-31.1,25.7c0,12.9,8,20.1,24.6,29.2c19.4,10.5,29.9,22.9,29.9,42.4c0,27.1-21.3,48.7-56.8,48.7
	c-15.7-0.2-31.3-5.2-37.9-11L-286.6,476.7z"/>
<path d="M-150.4,345.7c8.7-2.1,21.3-3.5,34.2-3.5c15.2,0,29.7,3.7,38.6,12.2c7.5,6.8,11.5,16.1,11.5,28.5c0,17.5-8.7,32.5-19,41.2
	c-12.2,10.3-29.9,15-47.7,15c-6.1,0-11.2-0.5-16.1-1.2l-11.9,63.2h-19.2L-150.4,345.7z M-146,421.5c5.4,1.2,10.1,1.6,15.7,1.6
	c26.7,0,44.5-16.6,44.5-38.8c0-19-13.3-26.4-31.4-26.4c-7.7,0-13.6,0.7-17.1,1.6L-146,421.5z"/>
<path d="M-12.4,343.4L-42.3,501h-19.4l29.9-157.7H-12.4L-12.4,343.4z"/>
<path d="M22.7,345.7c9.6-2.3,22.7-3.5,34.4-3.5c15.7,0,29.2,3.7,37.7,11.5c7.3,6.3,11.7,15.2,11.7,26c0,23.2-17.5,40.2-37.4,45.8
	l-0.2,0.5c11.2,3.7,16.4,15.4,17.5,31.6c1.6,22,2.8,37.2,4.9,43.5H71.1c-0.9-3.3-2.6-19.9-3.7-38.1c-1.2-21.8-9.1-30.6-24.8-30.6
	H25.3L12.4,501H-7L22.7,345.7z M28.3,417.3h17.3c24.6,0,40.5-16.1,40.5-35.1c0-16.8-12.6-24.6-30.4-24.6c-7.7,0-12.6,0.7-16.4,1.6
	L28.3,417.3z"/>
</svg>
