<?xml version="1.0" encoding="utf-8"?>
<!-- Generator: Adobe Illustrator 15.0.0, SVG Export Plug-In . SVG Version: 6.00 Build 0)  -->
<!DOCTYPE svg PUBLIC "-//W3C//DTD SVG 1.1//EN" "http://www.w3.org/Graphics/SVG/1.1/DTD/svg11.dtd">
<svg version="1.1" id="Calque_1" xmlns="http://www.w3.org/2000/svg" xmlns:xlink="http://www.w3.org/1999/xlink" x="0px" y="0px"
	 width="500px" height="500px" viewBox="0 0 500 500" enable-background="new 0 0 500 500" xml:space="preserve">
<g>
	<rect x="21.117" y="349.034" fill="#1D1D1B" width="462.288" height="76.828"/>
	<path fill="#FFFFFF" d="M74.384,383.72h-6.411v-8.624h6.411v-3.211c0-5.523,3.249-7.737,12.201-7.737
		c2.652,0,6.192,0.067,9.062,0.341v7.292H91.5c-2.53,0-3.309,0.773-3.309,2.428v0.888h7.457v8.624h-7.457v21.616H74.384V383.72"/>
	<path fill="#FFFFFF" d="M98.931,375.096h13.831v30.229H98.931V375.096z M98.931,364.488h13.831v7.621H98.931V364.488z"/>
	<polyline fill="#FFFFFF" points="114.733,405.336 128.661,389.511 115.901,375.096 132.809,375.096 138.283,383.216 
		143.756,375.096 160.665,375.096 147.673,389.511 161.821,405.336 144.244,405.336 138.283,396.748 132.298,405.336 
		114.733,405.336 	"/>
	<path fill="#FFFFFF" d="M202.899,396.255c-1.057,3.145-3.37,5.748-6.909,7.523c-3.539,1.776-8.296,2.774-14.646,2.774
		c-14.548,0-22.82-5.321-22.82-16.38c0-10.437,7.956-16.294,21.556-16.294c13.367,0,23.196,4.477,22.965,19.554H172.66
		c0,2.159,2.262,5.475,8.356,5.475c3.589,0,5.681-0.778,7.177-2.652H202.899 M187.961,386.476c-0.279-3.26-3.418-5.304-8.173-5.304
		c-4.818,0-7.591,1.489-8.296,5.304H187.961z"/>
	<polyline fill="#FFFFFF" points="203.727,397.69 220.805,384.486 220.805,384.37 204.724,384.37 204.724,375.096 239.367,375.096 
		239.367,383.057 223.189,395.592 223.189,395.701 239.854,395.701 239.854,405.336 203.727,405.336 203.727,397.69 	"/>
	<path fill="#E28827" d="M21.117,74.531v275.355h462.288V74.531H21.117z M310.527,117.251h42.016l-14.232,46.917h-42.015
		L310.527,117.251z M106.291,148.848c2.263-3.905,2.738-3.752,5.705-5.461c0,0,0.938-0.475,3.199-0.633h156.48
		c0,0,9.696,0.633,14.087,6.569c4.367,5.93,4.367,8.752,4.062,15.017l-185.965-0.091
		C103.858,164.248,103.25,154.085,106.291,148.848z M235.779,287.039h-25.485l18.855-61.454l11.385-37.538
		c0.244-1.631-0.267-2.999-1.387-4.069c-0.863-0.493-1.872-1.004-2.992-0.56c-2.7,7.5-4.83,15.321-7.007,23.088
		c-1.618,5.815-3.942,11.325-5.572,17.133l-28.22,92.028l-1.071,0.432l-38.9-0.741l-0.56-0.571l1.739-6.751l22.26-73.138
		l13.783-44.605c0.486-2.244,1.702-5.212,1.775-7.067l-0.267-0.39l-46.979,0.08l-0.329,0.504l11.447,88.829
		c0.073,4.319-1.374,7.943-4.694,10.82c-2.361,2.02-5.183,2.889-8.249,3.326l-48.181-0.114l-7.506-0.323l-0.742-0.937l-14.39-38.536
		c-0.123-0.498,0.438-0.753,0.876-0.621l34.667,0.305l4.233-0.183v-2.391l-4.684-35.586c-1.312-13.776-3.624-25.654-4.938-39.601
		h183.606l-14.244,48.298l-18.294,59.374C252.529,285.629,244.379,287.008,235.779,287.039z M259,287.039l35.738-118.632h41.991
		l-35.714,118.632H259z M417.683,184.513h-35.653l-1.63,5l-14.256,46.924l-15.948,50.585h-25.582
		c-4.646-1.065-9.074-4.575-11.143-9.015c-1.434-2.883-1.557-6.636-0.996-9.95l11.823-38.73l11.701-37.964
		c2.141-7.639,4.818-15.43,7.128-22.991l78.945,0.036L417.683,184.513z M423.24,164.169h-78.507l14.22-46.917h43.328l-8.598,26.907
		h35.032L423.24,164.169z"/>
	<path fill="#E28827" d="M257.906,406.212h2.542c2.492,0,3.199-0.214,3.199-3.26v-27.856h13.818v30.015
		c0,9.884-4.477,11.046-12.212,11.046c-2.872,0-5.694-0.116-7.348-0.335V406.212 M263.647,364.488h13.818v7.621h-13.818V364.488z"/>
	<path fill="#E28827" d="M320.844,405.336h-13.369v-3.395h-0.11c-1.434,1.953-5.851,4.611-12.504,4.611
		c-7.615,0-13.356-3.432-13.356-11.849v-19.608h13.807v16.02c0,3.814,2.056,5.475,5.315,5.475c4.306,0,6.398-2.712,6.398-7.237
		v-14.257h13.819V405.336"/>
	<path fill="#E28827" d="M333.992,393.323c-8.015-0.833-10.327-4.032-10.327-9.274c0-7.128,6.63-10.17,20.119-10.17
		c9.392,0,19.731,1.709,19.998,10.285h-15.581c0-0.784-0.28-1.441-1.047-1.886c-0.767-0.438-2.043-0.771-4.087-0.771
		c-4.148,0-4.928,0.936-4.928,2.097c0,0.767,0.73,1.602,3.71,1.875L355,386.64c7.457,0.662,10.268,3.978,10.268,9.116
		c0,7.804-6.739,10.797-21.312,10.797c-14.377,0-20.619-2.993-21.068-10.633h16.252c0.169,1.218,0.778,1.989,1.727,2.435
		c0.984,0.438,2.359,0.553,3.918,0.553c3.527,0,4.572-0.943,4.572-2.317c0-0.889-0.425-1.715-1.873-1.886L333.992,393.323"/>
	<path fill="#E28827" d="M364.513,375.096h6.398v-9.725h13.819v9.725h7.468v8.624h-7.468v10.656c0,2.816,1.168,2.986,4.159,2.986
		c1.094,0,2.371-0.066,3.698-0.115v8.089c-2.433,0.329-5.742,0.662-10.048,0.662c-8.419,0-11.629-1.604-11.629-9.846V383.72h-6.398
		V375.096"/>
	<path fill="#E28827" d="M437.133,396.255c-1.059,3.145-3.369,5.748-6.91,7.523c-3.539,1.776-8.296,2.774-14.657,2.774
		c-14.535,0-22.808-5.321-22.808-16.38c0-10.437,7.955-16.294,21.543-16.294c13.38,0,23.222,4.477,23.003,19.554h-30.411
		c0,2.159,2.263,5.475,8.344,5.475c3.601,0,5.706-0.778,7.201-2.652H437.133 M423.363,386.476c-0.269-3.26-3.418-5.304-8.187-5.304
		c-4.805,0-7.566,1.489-8.284,5.304H423.363z"/>
</g>
</svg>
