<?xml version="1.0" encoding="utf-8"?>
<!-- Generator: Adobe Illustrator 15.0.0, SVG Export Plug-In . SVG Version: 6.00 Build 0)  -->
<!DOCTYPE svg PUBLIC "-//W3C//DTD SVG 1.1//EN" "http://www.w3.org/Graphics/SVG/1.1/DTD/svg11.dtd">
<svg version="1.1" id="Calque_1" xmlns="http://www.w3.org/2000/svg" xmlns:xlink="http://www.w3.org/1999/xlink" x="0px" y="0px"
	 width="500px" height="500px" viewBox="0 0 500 500" enable-background="new 0 0 500 500" xml:space="preserve">
<g>
	<polygon fill="#1D1D1B" points="38.771,190.543 38.771,212.622 18.626,212.622 18.626,289.322 37.607,289.322 37.607,309.077 
		462.938,309.077 462.938,290.483 483.853,290.483 483.853,211.464 465.255,211.464 465.255,190.543 	"/>
	<path fill="none" stroke="#1D1D1B" stroke-width="0.8323" d="M480.716,301.049c0,4.118-3.34,7.442-7.442,7.442
		c-4.114,0-7.455-3.324-7.455-7.442c0-4.114,3.341-7.446,7.455-7.446C477.376,293.603,480.716,296.935,480.716,301.049z"/>
	<g>
		<path fill="#1D1D1B" stroke="#1D1D1B" stroke-width="0.1763" d="M469.716,298.022h3.225c1.287,0,2.08,0.697,2.08,1.791
			c0,0.826-0.365,1.508-1.19,1.738v0.02c0.801,0.152,0.96,0.738,1.031,1.41c0.057,0.673,0.02,1.421,0.403,1.892h-1.018
			c-0.263-0.279-0.115-1.018-0.249-1.689c-0.097-0.672-0.263-1.238-1.146-1.238h-2.227v2.928h-0.909V298.022z M472.525,301.177
			c0.857,0,1.587-0.221,1.587-1.219c0-0.672-0.364-1.171-1.223-1.171h-2.265v2.39H472.525z"/>
	</g>
	<path fill="#FFDC00" d="M63.276,263.305c2.611,2.78,5.184,4.86,7.725,6.235c2.541,1.38,5.068,2.067,7.596,2.067
		c2.349,0,4.275-0.592,5.792-1.779c1.51-1.188,2.265-2.69,2.265-4.514c0-2.014-0.659-3.565-1.971-4.657
		c-1.312-1.087-4.288-2.214-8.921-3.371c-6.278-1.601-10.713-3.684-13.318-6.25c-2.598-2.562-3.897-6.083-3.897-10.553
		c0-5.795,2.055-10.518,6.156-14.176c4.108-3.653,9.445-5.484,15.999-5.484c3.532,0,6.886,0.451,10.061,1.348
		c3.174,0.896,6.182,2.256,9.01,4.076l-5.446,11.823c-1.997-1.581-4.044-2.777-6.137-3.584c-2.1-0.803-4.173-1.206-6.227-1.206
		c-2.112,0-3.827,0.477-5.152,1.427c-1.318,0.947-1.972,2.163-1.972,3.648c0,1.51,0.576,2.723,1.741,3.632
		c1.166,0.908,3.417,1.775,6.758,2.602c0.206,0.051,0.461,0.125,0.781,0.205c7.11,1.826,11.788,3.833,14.028,6.016
		c1.516,1.494,2.662,3.286,3.455,5.375c0.788,2.09,1.178,4.403,1.178,6.95c0,6.444-2.24,11.624-6.706,15.538
		c-4.475,3.913-10.432,5.868-17.888,5.868c-4.473,0-8.543-0.72-12.21-2.159c-3.667-1.443-7.199-3.702-10.579-6.781L63.276,263.305z"
		/>
	<path fill="#FFDC00" d="M121.852,282.944v-46.311h-14.375V222.26h46.155v14.374h-14.374v46.311H121.852z"/>
	<path fill="#FFDC00" d="M151.041,282.944L173.1,222.26h21.894l22.162,60.685h-17.388l-3.245-10.856h-24.831l-3.327,10.856H151.041z
		 M175.461,260.271h17.389l-6.528-20.021c-0.205-0.607-0.486-1.587-0.832-2.943c-0.346-1.351-0.806-3.091-1.357-5.219
		c-0.384,1.491-0.754,2.915-1.12,4.269c-0.364,1.354-0.735,2.649-1.114,3.894L175.461,260.271z"/>
	<path fill="#FFDC00" d="M223.273,282.944V222.26h16.933l24.107,31.215c0.468,0.637,1.223,1.913,2.284,3.833
		c1.069,1.923,2.234,4.211,3.521,6.861c-0.353-2.513-0.614-4.753-0.768-6.714c-0.16-1.962-0.244-3.702-0.244-5.226v-29.97h16.769
		v60.685h-16.769L245,251.608c-0.494-0.633-1.274-1.913-2.337-3.833c-1.062-1.923-2.22-4.179-3.469-6.777
		c0.346,2.544,0.603,4.794,0.768,6.759c0.161,1.961,0.244,3.701,0.244,5.222v29.966H223.273z"/>
	<path fill="#FFDC00" d="M299.646,282.944V222.26h17.406v46.475h21.721v14.21H299.646z"/>
	<path fill="#FFDC00" d="M347.35,282.944V222.26h39.293v13.257h-22.201v10.538h20.934v13.096h-20.934v10.221h22.201v13.573H347.35z"
		/>
	<path fill="#FFDC00" d="M409.502,282.944v-27.688l-22.354-32.996h19.992l8.652,15.628c0.058,0.087,0.147,0.237,0.27,0.458
		c0.901,1.632,1.529,3.19,1.88,4.685c0.302-1.354,0.929-2.86,1.895-4.519c0.173-0.307,0.295-0.512,0.352-0.624l8.558-15.628h20.05
		l-22.361,32.996v27.688H409.502z"/>
</g>
</svg>
