<?xml version="1.0" encoding="utf-8"?>
<!-- Generator: Adobe Illustrator 19.1.0, SVG Export Plug-In . SVG Version: 6.00 Build 0)  -->
<svg version="1.1" id="Calque_1" xmlns="http://www.w3.org/2000/svg" xmlns:xlink="http://www.w3.org/1999/xlink" x="0px" y="0px"
	 viewBox="-345 170.9 500 500" style="enable-background:new -345 170.9 500 500;" xml:space="preserve">
<style type="text/css">
	.st0{fill:#F29100;}
</style>
<path class="st0" d="M-256.6,368.7h-32.1v-9.9c0-4.6-0.4-7.6-1.2-8.8c-0.8-1.3-2.2-1.9-4.1-1.9c-2.1,0-3.7,0.9-4.7,2.6
	c-1.1,1.7-1.6,4.3-1.6,7.7c0,4.5,0.6,7.8,1.8,10.1c1.1,2.3,4.4,5,9.8,8.1c15.4,9.2,25,16.7,29,22.5c4,5.9,6,15.3,6,28.4
	c0,9.5-1.1,16.5-3.3,21c-2.2,4.5-6.5,8.3-12.8,11.3c-6.4,3-13.7,4.6-22.2,4.6c-9.3,0-17.1-1.8-23.7-5.3c-6.5-3.5-10.8-8-12.8-13.4
	c-2-5.4-3-13.2-3-23.2v-8.7h32.1v16.4c0,5,0.5,8.3,1.4,9.7c0.9,1.4,2.5,2.2,4.8,2.2c2.3,0,4-0.9,5.1-2.7c1.1-1.8,1.7-4.5,1.7-8.1
	c0-7.9-1.1-13-3.2-15.5c-2.2-2.4-7.5-6.4-16.1-12c-8.6-5.7-14.3-9.8-17.1-12.4c-2.8-2.6-5.1-6.1-6.9-10.7
	c-1.8-4.6-2.7-10.4-2.7-17.4c0-10.2,1.3-17.7,3.9-22.4c2.6-4.7,6.8-8.4,12.6-11.1c5.8-2.7,12.8-4,21-4c9,0,16.6,1.5,22.9,4.4
	c6.3,2.9,10.5,6.6,12.6,11c2.1,4.4,3.1,11.9,3.1,22.4V368.7z"/>
<path class="st0" d="M-209,338.2v17.1h8.9v17.3h-8.9v58.3c0,7.2,0.4,11.2,1.1,12c0.7,0.8,3.9,1.2,9.3,1.2v17.6h-13.4
	c-7.5,0-12.9-0.3-16.2-0.9c-3.2-0.6-6.1-2.1-8.5-4.4c-2.5-2.3-4-4.9-4.6-7.8c-0.6-2.9-0.9-9.8-0.9-20.7v-55.3h-7.1v-17.3h7.1v-17.1
	L-209,338.2L-209,338.2z"/>
<path class="st0" d="M-74.6,352.7l-1.3,14.4c4.8-10.4,11.8-15.9,20.9-16.5v38.4c-6.1,0-10.5,0.8-13.4,2.5c-2.8,1.6-4.6,3.9-5.3,6.9
	c-0.7,2.9-1,9.7-1,20.2v43h-33.1V352.7H-74.6z"/>
<path class="st0" d="M-9.6,338.2v17.1h8.9v17.3h-8.9v58.3c0,7.2,0.4,11.2,1.1,12c0.7,0.8,3.9,1.2,9.3,1.2v17.6h-13.4
	c-7.5,0-12.9-0.3-16.2-0.9c-3.2-0.6-6.1-2.1-8.5-4.4c-2.5-2.3-4-4.9-4.6-7.8c-0.6-2.9-0.9-9.8-0.9-20.7v-55.3h-7.1v-17.3h7.1v-17.1
	L-9.6,338.2L-9.6,338.2z"/>
<path class="st0" d="M82.2,409.2H38.9v23.5c0,4.9,0.4,8.1,1.1,9.5c0.7,1.4,2.1,2.1,4.2,2.1c2.6,0,4.3-0.9,5.1-2.8
	c0.9-1.9,1.3-5.5,1.3-10.9v-14.3h31.6v8c0,6.7-0.4,11.9-1.3,15.5c-0.9,3.6-2.8,7.5-6,11.5c-3.1,4.1-7.1,7.2-11.9,9.2
	c-4.8,2-10.8,3.1-18.1,3.1c-7,0-13.2-1-18.6-3c-5.4-2-9.6-4.8-12.6-8.3c-3-3.5-5.1-7.4-6.2-11.7c-1.1-4.2-1.7-10.4-1.7-18.5v-31.8
	c0-9.5,1.3-17.1,3.9-22.6c2.6-5.5,6.8-9.7,12.7-12.7c5.9-2.9,12.6-4.4,20.3-4.4c9.3,0,17,1.8,23.1,5.3c6.1,3.5,10.3,8.2,12.8,14.1
	c2.5,5.8,3.7,14.1,3.7,24.7L82.2,409.2L82.2,409.2z M49.1,391.4v-8c0-5.6-0.3-9.3-0.9-10.9c-0.6-1.6-1.9-2.5-3.9-2.5
	c-2.4,0-3.9,0.7-4.5,2.1c-0.6,1.4-0.9,5.2-0.9,11.3v8H49.1z"/>
<path class="st0" d="M126,352.7l-1.3,14.4c4.8-10.4,11.8-15.9,20.9-16.5v38.4c-6.1,0-10.5,0.8-13.4,2.5c-2.8,1.6-4.6,3.9-5.3,6.9
	c-0.7,2.9-1,9.7-1,20.2v43H92.9V352.7H126z"/>
<path class="st0" d="M-121,371.2c-1.1-5.8-4.6-10.6-10.3-14.6c-5.7-4-14.2-6-25.4-6c-9.4,0-17,1.8-22.8,5.3
	c-5.9,3.5-9.8,7.6-11.7,12.1c-1.9,4.6-2.9,11.1-2.9,19.5v7.3h31v-11.4c0-6.1,0.3-9.9,0.8-11.3c0.6-1.5,2-2.2,4.3-2.2
	c2,0,3.4,0.9,4.3,2.6c0.9,1.7,1.3,5.4,1.3,11.2c0,4.6-0.4,7.6-1.2,9.1c-0.8,1.5-6.6,4.4-17.5,8.6c-10.2,3.9-16.6,7.4-19.2,10.3
	c-2.6,3-3.9,8.5-3.9,16.7v9c0,11,2.4,18.1,7.3,21.4c4.9,3.3,10.2,4.9,16.1,4.9c4.5,0,8.3-1,11.5-2.9c3.2-2,5.8-4.9,7.9-8.8v9.7h32.1
	v-54.7C-119.3,388.9-119.8,377-121,371.2z M-140.9,448.7l-14.9-10.8l-14.9,10.8l5.7-17.5l-14.9-10.8h18.4l5.7-17.5l5.7,17.5h18.4
	l-14.9,10.8L-140.9,448.7z"/>
<path class="st0" d="M-322.5,507.5v-29.2h10c2.3,0,4,0.1,5.2,0.4c1.7,0.4,3.1,1.1,4.3,2.1c1.5,1.3,2.7,3,3.4,5
	c0.8,2,1.1,4.3,1.1,6.9c0,2.2-0.3,4.2-0.8,5.9c-0.5,1.7-1.2,3.1-2,4.2c-0.8,1.1-1.7,2-2.7,2.6c-1,0.6-2.1,1.1-3.5,1.5
	c-1.4,0.3-2.9,0.5-4.7,0.5L-322.5,507.5L-322.5,507.5z M-318.7,504h6.2c1.9,0,3.4-0.2,4.5-0.5c1.1-0.4,2-0.9,2.6-1.5
	c0.9-0.9,1.6-2.1,2.1-3.7c0.5-1.5,0.8-3.4,0.8-5.6c0-3-0.5-5.4-1.5-7c-1-1.6-2.2-2.7-3.7-3.3c-1-0.4-2.7-0.6-5-0.6h-6.1V504z"/>
<path class="st0" d="M-279.1,500.6l3.7,0.5c-0.6,2.2-1.7,3.8-3.2,5c-1.6,1.2-3.6,1.8-6,1.8c-3.1,0-5.5-1-7.3-2.8
	c-1.8-1.9-2.7-4.6-2.7-8c0-3.5,0.9-6.3,2.7-8.2c1.8-2,4.2-2.9,7.1-2.9c2.8,0,5.1,1,6.9,2.9c1.8,1.9,2.7,4.6,2.7,8.1c0,0.2,0,0.5,0,1
	h-15.8c0.1,2.3,0.8,4.1,2,5.3c1.2,1.2,2.7,1.8,4.4,1.8c1.3,0,2.4-0.4,3.4-1C-280.4,503.2-279.7,502.1-279.1,500.6z M-290.9,494.9
	h11.8c-0.2-1.8-0.6-3.1-1.4-4c-1.1-1.4-2.6-2.1-4.4-2.1c-1.7,0-3,0.5-4.2,1.6C-290.2,491.6-290.8,493.1-290.9,494.9z"/>
<path class="st0" d="M-272.3,501.1l3.5-0.5c0.2,1.4,0.8,2.5,1.7,3.2c0.9,0.8,2.2,1.1,3.8,1.1c1.7,0,2.9-0.3,3.7-1
	c0.8-0.7,1.2-1.4,1.2-2.3c0-0.8-0.4-1.4-1.1-1.9c-0.5-0.3-1.7-0.7-3.7-1.2c-2.6-0.7-4.5-1.2-5.5-1.7s-1.8-1.1-2.3-2
	c-0.5-0.9-0.8-1.8-0.8-2.8c0-0.9,0.2-1.8,0.6-2.6c0.4-0.8,1-1.5,1.8-2c0.6-0.4,1.3-0.8,2.3-1c1-0.3,2-0.4,3.1-0.4
	c1.7,0,3.1,0.2,4.4,0.7c1.3,0.5,2.2,1.1,2.8,1.9c0.6,0.8,1,1.9,1.2,3.3l-3.5,0.5c-0.2-1.1-0.6-1.9-1.4-2.6c-0.8-0.6-1.9-0.9-3.3-0.9
	c-1.7,0-2.8,0.3-3.5,0.8c-0.7,0.5-1.1,1.2-1.1,1.9c0,0.5,0.1,0.9,0.4,1.2c0.3,0.4,0.8,0.7,1.4,0.9c0.4,0.1,1.4,0.4,3.2,0.9
	c2.5,0.7,4.3,1.2,5.3,1.7s1.8,1.1,2.4,1.9c0.6,0.8,0.9,1.8,0.9,3.1c0,1.2-0.3,2.3-1,3.4c-0.7,1.1-1.7,1.9-3,2.4
	c-1.3,0.6-2.8,0.9-4.5,0.9c-2.7,0-4.8-0.6-6.3-1.7C-271,505.1-271.9,503.4-272.3,501.1z"/>
<path class="st0" d="M-239.2,515.5v-29.2h3.3v2.8c0.8-1.1,1.6-1.9,2.6-2.4c1-0.5,2.1-0.8,3.5-0.8c1.8,0,3.4,0.5,4.8,1.4
	c1.4,0.9,2.4,2.2,3.1,3.9s1.1,3.5,1.1,5.5c0,2.2-0.4,4.1-1.2,5.8s-1.9,3-3.4,4c-1.5,0.9-3,1.4-4.7,1.4c-1.2,0-2.3-0.3-3.2-0.8
	c-0.9-0.5-1.7-1.1-2.3-1.9v10.3H-239.2L-239.2,515.5z M-236,497c0,2.7,0.5,4.7,1.7,6c1.1,1.3,2.4,1.9,4,1.9c1.6,0,2.9-0.7,4.1-2
	c1.1-1.3,1.7-3.4,1.7-6.2c0-2.7-0.6-4.7-1.7-6c-1.1-1.3-2.4-2-4-2c-1.5,0-2.9,0.7-4,2.1C-235.4,492.3-236,494.3-236,497z"/>
<path class="st0" d="M-216.6,507.5v-21.1h3.2v3.2c0.8-1.5,1.6-2.5,2.3-3c0.7-0.5,1.5-0.7,2.3-0.7c1.2,0,2.4,0.4,3.7,1.1l-1.3,3.3
	c-0.9-0.5-1.7-0.7-2.6-0.7c-0.8,0-1.5,0.2-2.1,0.7c-0.6,0.5-1.1,1.1-1.3,2c-0.4,1.3-0.6,2.7-0.6,4.2v11L-216.6,507.5L-216.6,507.5z"
	/>
<path class="st0" d="M-203,482.4v-4.1h3.6v4.1H-203z M-203,507.5v-21.1h3.6v21.1H-203z"/>
<path class="st0" d="M-196.4,507.5l7.7-10.9l-7.1-10.2h4.4l3.3,5c0.6,0.9,1.1,1.7,1.5,2.3c0.6-0.9,1.2-1.6,1.6-2.3l3.5-5h4.4
	l-7.2,10.2l7.6,10.9h-4.3l-4.4-6.5l-1-1.6l-5.7,8.1L-196.4,507.5L-196.4,507.5z"/>
<path class="st0" d="M-147.9,500.6l3.7,0.5c-0.6,2.2-1.7,3.8-3.2,5c-1.6,1.2-3.6,1.8-6,1.8c-3.1,0-5.5-1-7.4-2.8
	c-1.8-1.9-2.7-4.6-2.7-8c0-3.5,0.9-6.3,2.7-8.2c1.8-2,4.2-2.9,7.1-2.9c2.8,0,5.1,1,6.9,2.9c1.8,1.9,2.7,4.6,2.7,8.1c0,0.2,0,0.5,0,1
	h-15.8c0.1,2.3,0.8,4.1,2,5.3c1.2,1.2,2.7,1.8,4.4,1.8c1.3,0,2.4-0.4,3.4-1C-149.1,503.2-148.4,502.1-147.9,500.6z M-159.7,494.9
	h11.8c-0.2-1.8-0.6-3.1-1.4-4c-1.1-1.4-2.6-2.1-4.4-2.1c-1.7,0-3,0.5-4.2,1.6C-158.9,491.6-159.5,493.1-159.7,494.9z M-156.6,483.7
	l2.6-5.6h4.7l-4.4,5.6H-156.6z"/>
<path class="st0" d="M-125.8,499.7l3.5,0.5c-0.4,2.4-1.4,4.3-2.9,5.6c-1.6,1.4-3.5,2-5.8,2c-2.9,0-5.2-0.9-7-2.8
	c-1.8-1.9-2.6-4.6-2.6-8.1c0-2.3,0.4-4.3,1.1-6c0.8-1.7,1.9-3,3.4-3.8c1.5-0.9,3.2-1.3,5-1.3c2.3,0,4.2,0.6,5.6,1.7
	c1.5,1.2,2.4,2.8,2.8,5l-3.5,0.5c-0.3-1.4-0.9-2.5-1.8-3.2c-0.8-0.7-1.9-1.1-3-1.1c-1.8,0-3.3,0.6-4.4,1.9c-1.1,1.3-1.7,3.3-1.7,6.1
	c0,2.8,0.5,4.9,1.6,6.2c1.1,1.3,2.5,1.9,4.2,1.9c1.4,0,2.6-0.4,3.5-1.3C-126.7,502.8-126.1,501.5-125.8,499.7z"/>
<path class="st0" d="M-120.6,496.9c0-3.9,1.1-6.8,3.3-8.7c1.8-1.6,4-2.3,6.6-2.3c2.9,0,5.3,0.9,7.1,2.8c1.8,1.9,2.8,4.5,2.8,7.9
	c0,2.7-0.4,4.8-1.2,6.4c-0.8,1.6-2,2.8-3.6,3.6c-1.6,0.9-3.3,1.3-5.1,1.3c-3,0-5.3-0.9-7.2-2.8
	C-119.7,503.2-120.6,500.5-120.6,496.9z M-117,496.9c0,2.7,0.6,4.7,1.8,6.1c1.2,1.3,2.7,2,4.5,2c1.8,0,3.3-0.7,4.4-2
	c1.2-1.3,1.8-3.4,1.8-6.2c0-2.6-0.6-4.6-1.8-5.9c-1.2-1.3-2.7-2-4.4-2c-1.8,0-3.3,0.7-4.5,2C-116.4,492.2-117,494.2-117,496.9z"/>
<path class="st0" d="M-85.3,515.5v-29.2h3.3v2.8c0.8-1.1,1.6-1.9,2.6-2.4c1-0.5,2.1-0.8,3.5-0.8c1.8,0,3.4,0.5,4.8,1.4
	c1.4,0.9,2.4,2.2,3.1,3.9c0.7,1.7,1.1,3.5,1.1,5.5c0,2.2-0.4,4.1-1.2,5.8c-0.8,1.7-1.9,3-3.4,4c-1.5,0.9-3,1.4-4.7,1.4
	c-1.2,0-2.3-0.3-3.2-0.8c-0.9-0.5-1.7-1.1-2.3-1.9v10.3H-85.3L-85.3,515.5z M-82.1,497c0,2.7,0.6,4.7,1.7,6c1.1,1.3,2.4,1.9,4,1.9
	c1.6,0,3-0.7,4.1-2c1.1-1.3,1.7-3.4,1.7-6.2c0-2.7-0.6-4.7-1.7-6c-1.1-1.3-2.4-2-4-2c-1.5,0-2.9,0.7-4,2.1
	C-81.5,492.3-82.1,494.3-82.1,497z"/>
<path class="st0" d="M-64,496.9c0-3.9,1.1-6.8,3.3-8.7c1.8-1.6,4-2.3,6.6-2.3c2.9,0,5.3,0.9,7.1,2.8c1.8,1.9,2.8,4.5,2.8,7.9
	c0,2.7-0.4,4.8-1.2,6.4c-0.8,1.6-2,2.8-3.6,3.6c-1.6,0.9-3.3,1.3-5.1,1.3c-3,0-5.3-0.9-7.2-2.8C-63.1,503.2-64,500.5-64,496.9z
	 M-60.4,496.9c0,2.7,0.6,4.7,1.8,6.1s2.7,2,4.5,2c1.8,0,3.3-0.7,4.4-2c1.2-1.3,1.8-3.4,1.8-6.2c0-2.6-0.6-4.6-1.8-5.9
	c-1.2-1.3-2.7-2-4.4-2c-1.8,0-3.3,0.7-4.5,2C-59.8,492.2-60.4,494.2-60.4,496.9z"/>
<path class="st0" d="M-26.2,507.5v-3.1c-1.6,2.4-3.9,3.6-6.7,3.6c-1.2,0-2.4-0.2-3.5-0.7c-1.1-0.5-1.9-1.1-2.4-1.8
	c-0.5-0.7-0.9-1.6-1.1-2.6c-0.1-0.7-0.2-1.8-0.2-3.3v-13.1h3.6V498c0,1.9,0.1,3.1,0.2,3.8c0.2,0.9,0.7,1.7,1.4,2.2
	c0.7,0.5,1.6,0.8,2.7,0.8c1.1,0,2.1-0.3,3-0.8c0.9-0.5,1.6-1.3,2-2.2c0.4-0.9,0.6-2.3,0.6-4.1v-11.3h3.6v21.1L-26.2,507.5
	L-26.2,507.5z"/>
<path class="st0" d="M-17.4,507.5v-21.1h3.2v3.2c0.8-1.5,1.6-2.5,2.3-3c0.7-0.5,1.5-0.7,2.3-0.7c1.2,0,2.4,0.4,3.7,1.1l-1.3,3.3
	c-0.9-0.5-1.7-0.7-2.6-0.7c-0.8,0-1.5,0.2-2.1,0.7c-0.6,0.5-1.1,1.1-1.3,2c-0.4,1.3-0.6,2.7-0.6,4.2v11L-17.4,507.5L-17.4,507.5z"/>
<path class="st0" d="M7.4,507.5v-29.2H11v29.2H7.4z"/>
<path class="st0" d="M31,500.6l3.7,0.5c-0.6,2.2-1.7,3.8-3.2,5c-1.6,1.2-3.6,1.8-6,1.8c-3.1,0-5.5-1-7.3-2.8c-1.8-1.9-2.7-4.6-2.7-8
	c0-3.5,0.9-6.3,2.7-8.2c1.8-2,4.2-2.9,7.1-2.9c2.8,0,5.1,1,6.9,2.9c1.8,1.9,2.7,4.6,2.7,8.1c0,0.2,0,0.5,0,1H19
	c0.1,2.3,0.8,4.1,2,5.3c1.2,1.2,2.7,1.8,4.4,1.8c1.3,0,2.4-0.4,3.4-1C29.7,503.2,30.4,502.1,31,500.6z M19.2,494.9H31
	c-0.2-1.8-0.6-3.1-1.4-4c-1.1-1.4-2.6-2.1-4.4-2.1c-1.7,0-3,0.5-4.2,1.6C19.9,491.6,19.3,493.1,19.2,494.9z"/>
<path class="st0" d="M37.8,501.1l3.5-0.5c0.2,1.4,0.8,2.5,1.7,3.2c0.9,0.8,2.2,1.1,3.8,1.1c1.7,0,2.9-0.3,3.7-1
	c0.8-0.7,1.2-1.4,1.2-2.3c0-0.8-0.4-1.4-1.1-1.9c-0.5-0.3-1.7-0.7-3.7-1.2c-2.6-0.7-4.5-1.2-5.5-1.7c-1-0.5-1.8-1.1-2.3-2
	c-0.5-0.9-0.8-1.8-0.8-2.8c0-0.9,0.2-1.8,0.6-2.6c0.4-0.8,1-1.5,1.8-2c0.6-0.4,1.3-0.8,2.3-1c1-0.3,2-0.4,3.1-0.4
	c1.7,0,3.1,0.2,4.4,0.7c1.3,0.5,2.2,1.1,2.8,1.9c0.6,0.8,1,1.9,1.2,3.3l-3.5,0.5c-0.2-1.1-0.6-1.9-1.4-2.6c-0.8-0.6-1.9-0.9-3.3-0.9
	c-1.7,0-2.8,0.3-3.5,0.8s-1.1,1.2-1.1,1.9c0,0.5,0.1,0.9,0.4,1.2c0.3,0.4,0.8,0.7,1.4,0.9c0.4,0.1,1.4,0.4,3.2,0.9
	c2.5,0.7,4.3,1.2,5.3,1.7c1,0.4,1.8,1.1,2.4,1.9c0.6,0.8,0.9,1.8,0.9,3.1c0,1.2-0.3,2.3-1,3.4s-1.7,1.9-3,2.4
	c-1.3,0.6-2.8,0.9-4.5,0.9c-2.7,0-4.8-0.6-6.3-1.7C39.1,505.1,38.2,503.4,37.8,501.1z"/>
<path class="st0" d="M71.3,507.5v-29.2h11c1.9,0,3.4,0.1,4.4,0.3c1.4,0.2,2.6,0.7,3.6,1.4c1,0.7,1.7,1.6,2.3,2.8
	c0.6,1.2,0.9,2.5,0.9,4c0,2.5-0.8,4.6-2.4,6.3c-1.6,1.7-4.4,2.6-8.5,2.6h-7.5v11.9H71.3z M75.2,492.2h7.5c2.5,0,4.3-0.5,5.3-1.4
	c1-0.9,1.6-2.2,1.6-3.9c0-1.2-0.3-2.3-0.9-3.1c-0.6-0.9-1.4-1.4-2.4-1.7c-0.7-0.2-1.9-0.3-3.6-0.3h-7.5L75.2,492.2L75.2,492.2z"/>
<path class="st0" d="M98,507.5v-21.1h3.2v3.2c0.8-1.5,1.6-2.5,2.3-3c0.7-0.5,1.5-0.7,2.3-0.7c1.2,0,2.4,0.4,3.7,1.1l-1.3,3.3
	c-0.9-0.5-1.7-0.7-2.6-0.7c-0.8,0-1.5,0.2-2.1,0.7c-0.6,0.5-1.1,1.1-1.3,2c-0.4,1.3-0.6,2.7-0.6,4.2v11L98,507.5L98,507.5z"/>
<path class="st0" d="M110.2,496.9c0-3.9,1.1-6.8,3.3-8.7c1.8-1.6,4-2.3,6.6-2.3c2.9,0,5.3,0.9,7.1,2.8s2.8,4.5,2.8,7.9
	c0,2.7-0.4,4.8-1.2,6.4c-0.8,1.6-2,2.8-3.6,3.6c-1.6,0.9-3.3,1.3-5.1,1.3c-3,0-5.3-0.9-7.2-2.8C111.2,503.2,110.2,500.5,110.2,496.9
	z M113.9,496.9c0,2.7,0.6,4.7,1.8,6.1s2.7,2,4.5,2c1.8,0,3.3-0.7,4.4-2c1.2-1.3,1.8-3.4,1.8-6.2c0-2.6-0.6-4.6-1.8-5.9
	c-1.2-1.3-2.7-2-4.4-2c-1.8,0-3.3,0.7-4.5,2C114.5,492.2,113.9,494.2,113.9,496.9z"/>
</svg>
