<?xml version="1.0" encoding="utf-8"?>
<!-- Generator: Adobe Illustrator 15.0.0, SVG Export Plug-In . SVG Version: 6.00 Build 0)  -->
<!DOCTYPE svg PUBLIC "-//W3C//DTD SVG 1.1//EN" "http://www.w3.org/Graphics/SVG/1.1/DTD/svg11.dtd">
<svg version="1.1" id="Calque_1" xmlns="http://www.w3.org/2000/svg" xmlns:xlink="http://www.w3.org/1999/xlink" x="0px" y="0px"
	 width="500px" height="500px" viewBox="0 0 500 500" enable-background="new 0 0 500 500" xml:space="preserve">
<g>
	<path fill="#1D1D1B" d="M31.479,257.787c1.108,2.215,5.539,2.215,6.642,4.43c2.218,11.082,0,24.379,13.297,27.703
		c9.976,2.219,22.17-4.43,22.17-15.512c-16.624-11.082-35.467-19.945-52.085-31.027c-2.212-14.406,2.212-29.921,15.516-38.785
		c21.055-14.406,46.539-6.648,66.484,3.324c-5.539,9.973-7.758,22.164-14.406,32.137c-1.103-2.218-5.539-2.218-5.539-4.434
		c0-7.758,1.109-16.621-6.648-22.164c-5.539-3.324-12.188-4.43-18.836-2.215c-5.547,2.215-13.297,9.973-8.867,13.297
		c15.516,14.406,35.461,22.164,53.194,33.246c4.423,24.379-14.406,45.43-37.679,47.648c-17.728,1.105-35.461-4.434-49.867-14.406
		C17.072,288.814,28.15,266.65,31.479,257.787z"/>
	<path fill="#1D1D1B" d="M245.155,236.364l-26.411,15.326l-0.183,4.988c0,0,4.619-0.187,5.539,2.214
		c0.92,2.404,1.109,45.065,1.109,45.065s28.257-14.224,31.585-15.513l0.183-9.973c0,0-2.59,2.584-6.094,2.584
		c-3.511,0-4.254-4.619-4.254-4.619l0.188-16.436c0,0,3.321-9.604,8.307-8.677c4.99,0.92,2.407,11.633,2.407,11.633
		s1.475,3.692,2.583,3.138c1.109-0.555,13.67-27.334,13.67-27.334s-2.956-4.062-10.896-4.062c-7.947,0-16.07,7.017-16.07,7.017
		L245.155,236.364z"/>
	<path fill="#1D1D1B" d="M293.913,236.364l-26.405,15.326l-0.189,4.988c0,0,4.62-0.187,5.54,2.214
		c0.927,2.404,1.108,45.065,1.108,45.065s28.258-14.224,31.579-15.513l0.189-9.973c0,0-2.591,2.584-6.094,2.584
		c-3.517,0-4.255-4.619-4.255-4.619l0.189-16.436c0,0,3.328-9.604,8.312-8.677c4.984,0.92,2.401,11.633,2.401,11.633
		s1.474,3.692,2.583,3.138s13.662-27.334,13.662-27.334s-2.948-4.062-10.896-4.062c-7.94,0-16.063,7.017-16.063,7.017
		L293.913,236.364z"/>
	<path fill="#1D1D1B" d="M213.576,243.936c2.219,0,7.203-3.138,5.729-4.619c-1.487-1.478-7.02-4.616-11.822-4.248
		c-4.802,0.369-10.165,3.51-11.822,4.065c-1.664,0.555-4.802-0.372-6.276-0.741c-1.481-0.369-7.203-3.324-16.069-3.324
		c-8.867,0-29.002,4.802-29.002,35.83s20.872,33.797,25.681,33.797c4.802,0,9.226-2.584,11.998-4.803
		c2.773-2.215,5.175-4.426,5.54-3.51c0.371,0.927,1.663,7.758,1.663,7.758l28.623-15.516l0.562-8.123c0,0-6.838,4.619-8.312-2.4
		l-0.183-31.21C209.884,246.892,211.358,243.936,213.576,243.936z M188.092,280.688c0,0-2.407,6.462-8.501,6.462
		c-6.095,0-12.925-5.354-12.925-20.686c0-15.329,10.53-15.972,12.188-16.066c6.654-0.368,9.238,6.466,9.238,6.466V280.688z"/>
	<path fill="#1D1D1B" d="M111.077,248.366h-10.165c0,0-3.133-2.583-1.475-4.43c1.663-1.85,31.768-24.378,31.768-24.378v18.467
		c0,0,3.138,2.773,5.722,2.773c2.591,0,7.575-1.295,7.575-1.295s-0.927,8.312-2.956,8.677c-2.028,0.372-9.231,0.927-9.231,0.927
		v29.181c0,0,2.395,3.689,4.795,3.324c2.408-0.369,5.181-3.324,5.181-3.324v9.05l-31.585,15.88L111.077,248.366z"/>
	<path fill="#1D1D1B" d="M390.045,248.366h-10.159c0,0-3.138-2.583-1.48-4.43c1.663-1.85,31.768-24.378,31.768-24.378v18.467
		c0,0,3.138,2.773,5.722,2.773c2.59,0,7.575-1.295,7.575-1.295s-0.927,8.312-2.956,8.677c-2.029,0.372-9.231,0.927-9.231,0.927
		v29.181c0,0,2.4,3.689,4.802,3.324c2.4-0.369,5.174-3.324,5.174-3.324v9.05l-31.585,15.88L390.045,248.366z"/>
	<path fill="#1D1D1B" d="M430.209,248.366h-10.158c0,0-3.139-2.583-1.475-4.43c1.664-1.85,31.768-24.378,31.768-24.378v18.467
		c0,0,3.145,2.773,5.723,2.773c2.59,0,7.574-1.295,7.574-1.295s-0.926,8.312-2.949,8.677c-2.035,0.372-9.238,0.927-9.238,0.927
		v29.181c0,0,2.395,3.689,4.802,3.324c2.401-0.369,5.168-3.324,5.168-3.324v9.05l-31.579,15.88L430.209,248.366z"/>
	<path fill="#1D1D1B" d="M379.24,275.7c0,0-10.158,12.374-23.456,12.374c-13.304,0-13.114-8.495-13.114-8.495l40.08-16.438
		c0,0-5.174-29.367-33.242-29.367c-28.081,0-34.175,27.892-34.175,37.865s9.604,32.874,33.797,32.874
		c24.199,0,37.313-19.946,37.313-19.946L379.24,275.7z M343.407,248.92c11.085-3.324,14.778,11.268,14.778,11.268l-20.689,7.937
		C337.496,268.125,332.329,252.245,343.407,248.92z"/>
	<g>
		<path fill="#1D1D1B" d="M471.568,196.095c2.57,0,5.082,0.652,7.522,1.971c2.453,1.312,4.365,3.19,5.729,5.63
			c1.364,2.447,2.049,4.991,2.049,7.644c0,2.629-0.672,5.151-2.017,7.572c-1.344,2.424-3.229,4.306-5.663,5.644
			c-2.434,1.344-4.958,2.013-7.62,2.013c-2.649,0-5.181-0.668-7.614-2.013c-2.434-1.337-4.319-3.22-5.67-5.644
			c-1.351-2.421-2.029-4.942-2.029-7.572c0-2.652,0.686-5.197,2.062-7.644c1.371-2.44,3.282-4.319,5.729-5.63
			C466.492,196.747,468.998,196.095,471.568,196.095z M471.568,198.659c-2.146,0-4.229,0.544-6.257,1.638
			c-2.042,1.096-3.628,2.659-4.776,4.694c-1.142,2.032-1.716,4.146-1.716,6.348c0,2.186,0.562,4.287,1.69,6.293
			c1.128,2.006,2.707,3.572,4.723,4.691c2.029,1.122,4.137,1.684,6.336,1.684s4.312-0.562,6.342-1.684
			c2.022-1.119,3.588-2.685,4.717-4.691c1.116-2.006,1.677-4.107,1.677-6.293c0-2.202-0.567-4.316-1.709-6.348
			c-1.148-2.036-2.728-3.599-4.763-4.694C475.789,199.204,473.708,198.659,471.568,198.659z M464.842,219.782v-16.416h5.683
			c1.938,0,3.341,0.153,4.208,0.46c0.875,0.304,1.566,0.835,2.075,1.596c0.521,0.763,0.782,1.569,0.782,2.424
			c0,1.21-0.437,2.261-1.298,3.158c-0.868,0.894-2.029,1.396-3.465,1.507c0.587,0.235,1.058,0.525,1.409,0.861
			c0.666,0.64,1.481,1.713,2.44,3.223l2.017,3.188h-3.27l-1.475-2.567c-1.154-2.003-2.074-3.266-2.766-3.774
			c-0.49-0.382-1.194-0.578-2.141-0.584h-1.565v6.926H464.842z M467.478,210.569h3.269c1.579,0,2.643-0.228,3.217-0.691
			c0.567-0.463,0.854-1.073,0.854-1.83c0-0.489-0.137-0.927-0.417-1.318c-0.274-0.385-0.659-0.672-1.143-0.861
			c-0.482-0.189-1.383-0.287-2.707-0.287h-3.073V210.569z"/>
	</g>
</g>
</svg>
