<?xml version="1.0" encoding="utf-8"?>
<!-- Generator: Adobe Illustrator 21.0.2, SVG Export Plug-In . SVG Version: 6.00 Build 0)  -->
<svg version="1.1" id="Calque_3" xmlns="http://www.w3.org/2000/svg" xmlns:xlink="http://www.w3.org/1999/xlink" x="0px" y="0px"
	 viewBox="0 0 500 250" style="enable-background:new 0 0 500 250;" xml:space="preserve">
<style type="text/css">
	.st0{fill:#004885;}
	.st1{fill:#FEFEFE;}
	.st2{fill:none;}
</style>
<path class="st0" d="M478.7,175.4c0-31.2-0.1-62.4-0.1-93.6c0-6.1,1.9-68.6,0.3-69c-1.4-1.4-454-0.6-454-0.6C25,47.1,25,82,25,116.9
	c0,15.7,0.2,31.4,0,47c-0.2,14.5,4,14.2,17.4,17.9c49.3,13.8,101.2,17.8,152,20.8c65,3.9,131,1.3,195.6-7.6
	C399.8,193.7,478.7,183.1,478.7,175.4z M323,201C323.1,200.9,323,201,323,201z M464,179.9C464,179.9,464.1,179.9,464,179.9z"/>
<path class="st0" d="M49.1,201.4c-0.4,0-0.8-0.1-1.2-0.2c-0.8-0.1-1-0.5-0.8-1.3c0.4-1.2,0.8-2.5,1.1-3.8c0.1-0.5,0.4-1.1-0.7-0.7
	c-0.9,0.3-1.9,0.4-2.9,0.5c-0.7,0.1-1.1,0.4-1.1,1.1c0,0.4-0.1,0.7-0.2,1.1c-0.5,2-0.5,2-2.4,1.4c-0.7,1.2-0.2,1.8,1,1.8
	c0.4,0,0.5,0.3,0.4,0.8c-0.7,2.8-1.4,5.7-2.1,8.5c-0.3,1.4,0.1,3,1.2,3.7c1.4,1,3.1,1.1,4.7,0.9c0.5,0,1-0.3,0.9-0.9
	c-0.1-0.6-0.6-0.2-0.9-0.3c-1.3-0.1-2.1-0.8-1.9-1.9c0.4-2.7,1-5.3,1.8-7.9c0.5-1.9,0.5-1.8,2.5-1.4c0.6,0.1,1.1,0.3,1.1-0.7
	C49.6,201.6,49.7,201.4,49.1,201.4z"/>
<path class="st0" d="M34.3,197.2c-3.3-1-6.5,0.1-8.2,2.8c-0.6,1-0.7,2.2-1.3,3.2c0,1.2,0,2.3,0,3.5c0.5,0.4,0.5,1.1,0.8,1.7
	c1.5,3.1,6.2,4.2,8.7,3.8c1-0.2,1.8-0.6,2.3-1.5c0.1-0.1,0.3-0.2,0.1-0.4c-0.1-0.3-0.3-0.1-0.5-0.1c-0.2,0.1-0.3,0.1-0.5,0.2
	c-4.1,1.2-7.2-1.5-6.6-5.6c0.1-0.6,0.2-1,1.1-0.7c2.5,0.7,5.1,1.3,7.7,1.9c0.2,0,0.4,0.4,0.6-0.1c0.5-1.7,0.8-3.4,0.2-5.1
	C37.8,198.7,36.2,197.8,34.3,197.2z M34.6,203.4c-0.6,0.6-1.4-0.2-2.1-0.3c-0.8-0.2-1.6-0.4-2.4-0.6c-0.4-0.1-0.5-0.2-0.4-0.7
	c0.2-0.7,0.5-1.3,0.8-1.9c0.7-1.3,1.9-2,3.1-1.6c1,0.3,1.4,1.2,1.4,2.7C35.1,201.9,35.2,202.9,34.6,203.4z"/>
<path class="st0" d="M478.3,207.6c-1.3,1.5-3,2.3-5,1.9c-1.9-0.4-2.9-1.7-3.6-3.5c-0.3-0.8-0.1-1,0.6-1.2c2.5-0.6,5-1.2,7.5-1.8
	c0.4-0.1,0.5-0.2,0.4-0.8c-0.9-4.2-3.1-6-7.3-5.4c-2.3,0.3-4.1,1.4-5.3,3.5c-1.7,2.8-0.6,7.4,1.3,9.4c1.9,2.2,4.4,2.6,7.1,2
	c2-0.4,3.8-1.2,5.1-3c0-0.5,0-1,0-1.4C478.7,207,478.5,207.3,478.3,207.6z M469,203c-0.1-0.6-0.3-1.2-0.2-1.8c0-0.5,0-0.9,0.1-1.4
	c0.3-0.9,0.8-1.5,1.8-1.7c1.1-0.2,1.9,0.4,2.4,1.2c0.4,0.7,0.7,1.5,0.9,2.3c0.1,0.5,0,0.7-0.5,0.8c-1.3,0.3-2.6,0.6-3.8,0.9
	C469.3,203.5,469,203.6,469,203z"/>
<path class="st0" d="M431.6,212.4c-0.3-1.8-0.7-3.7-1-5.5c-0.1-0.4-0.2-0.7-0.6-0.5c-1,0.4-2.1,0.5-3.2,0.6c-0.4,0-0.6,0.1-0.4,0.6
	c0.4,1.6,0.7,3.2,1,4.9c0.3,1.6,0.8,3.2,0.7,4.9c-0.1,1.2-0.6,1.9-1.6,2.1c-1.4,0.3-2,0-2.6-1.2c-0.2-0.5-0.4-1-0.5-1.5
	c-0.7-2.7-1.1-5.4-1.4-8.1c-0.1-0.5-0.1-0.8-0.8-0.6c-1.1,0.3-2.2,0.5-3.4,0.6c-0.3,0.1-0.4,0.2-0.3,0.5c1,3.4,1.4,6.9,2.3,10.3
	c0.5,2,2.1,3.2,4,3.1c2.2-0.1,3.9-1.1,5.1-3.2c0.1,0.4,0.3,0.6,0.3,0.8c0,0.9,0.3,1,1.1,0.7c0.8-0.3,1.6-0.5,2.4-0.4
	c0.6,0,0.7-0.2,0.6-0.8C432.6,217.4,432,214.9,431.6,212.4z"/>
<path class="st0" d="M409.3,210.1c-5.4,0.2-8.3,2.8-8.2,7.2c0.1,4.8,2.1,8.2,7,8.2c4.9,0,8.3-2.2,8.3-7.2
	C416.4,213.7,414.3,210.1,409.3,210.1z M412.2,220.3c-0.1,0.6,0,1.2-0.1,1.8c-0.4,1.4-1.4,1.9-2.6,2c-1.1,0.1-1.9-0.6-2.4-1.5
	c-0.9-1.5-1.1-3.2-1.4-4.8c-0.2-1.5-0.4-3,0-4.5c0.3-1.1,1.1-1.5,2-1.7c1-0.2,1.9,0,2.6,0.9c1.2,1.6,1.4,3.5,1.7,5.3
	C412.1,218.6,412.3,219.4,412.2,220.3z"/>
<path class="st0" d="M395.6,218.5c-1.1-0.2-2.2-0.5-3.2-0.8c-0.8-0.2-1.4-0.8-1.4-1.7c0-0.9,0.6-1.5,1.4-1.8c1.3-0.5,2.4,0,3.4,0.8
	c0.4,0.4,0.8,0.9,1.2,1.3c0-0.8,0.2-1.6,0.5-2.3c0.3-0.8-0.1-0.8-0.6-1c-1.9-0.7-3.8-0.5-5.6,0.2c-1.9,0.7-3.1,2.7-2.9,4.7
	c0.2,1.9,0.6,3,3.2,3.8c1.2,0.4,2.5,0.7,3.7,1c0.8,0.2,1.3,0.7,1.4,1.6c0.1,1.5-1.3,2.6-2.9,2.3c-1.3-0.3-2.4-0.9-3.1-2.1
	c-0.1-0.2-0.2-0.5-0.5-0.4c-0.2,0.1-0.2,0.3-0.2,0.5c0,0.8,0,1.5,0,2.3c0,0.4,0.2,0.6,0.6,0.8c1.9,0.6,3.7,0.5,5.6-0.2
	c2.7-0.9,3.6-3.2,3.4-5C399.4,220.7,399.1,219.3,395.6,218.5z"/>
<path class="st0" d="M443,204.9c-0.2-1.7-0.4-1.8-1.9-0.9c-0.5,0.3-0.8,0.7-1.1,1.1c-0.6,0.8-0.6,1.9-1.1,2.8
	c-0.4-0.4-0.2-0.8-0.4-1.1c-0.1-0.2-0.1-0.5-0.1-0.8c-0.2-1.3-0.2-1.3-1.4-0.9c-0.7,0.2-1.5,0.4-2.3,0.5c-0.7,0-0.6,0.3-0.5,0.8
	c1.2,4.4,2.1,8.8,2.8,13.4c1.3-0.3,2.4-0.8,3.7-0.8c0.7,0,0.6-0.4,0.5-0.8c-0.5-1.6-0.9-3.3-1.3-4.9c-0.2-0.8-0.4-1.7-0.4-2.5
	c0-2.3,0.8-3.1,3-3.1c0.8,0,1.2-0.1,0.8-1C443.2,206.1,443,205.5,443,204.9z"/>
<path class="st0" d="M461.4,199.1c-0.9,0.4-1.6,0.9-2.2,1.7c-0.6,1-0.7,2.1-1,3.3c-0.3-1.3-0.5-2.5-0.8-3.7c-1.3,0.5-2.6,0.8-4,0.9
	c1.4,4.7,2.5,9.4,3.3,14.2c1.1-0.4,2.2-0.8,3.4-0.9c0.7-0.1,1-0.3,0.7-1.1c-0.8-2.3-1.4-4.6-1.8-6.9c-0.3-1.5,0.7-3.1,2.3-3.4
	c0.6-0.1,1.2,0.3,1.8,0c-0.6-1.2-0.8-2.5-1-3.7C461.9,198.9,461.8,198.9,461.4,199.1z"/>
<path class="st0" d="M449.8,202.9c-0.1-0.8-0.4-0.7-1-0.5c-1.2,0.4-2.3,0.6-3.6,0.7c1.4,4.7,2.4,9.4,3.1,14.2
	c1.2-0.3,2.4-0.8,3.7-0.8c0.5,0,0.7-0.2,0.5-0.8C451.5,211.5,450.5,207.2,449.8,202.9z"/>
<path class="st0" d="M448.5,197.3c0-1.3-0.9-2.3-2.1-2.3c-1.3,0-2.4,1-2.4,2.2c0,1.3,1,2.3,2.3,2.3
	C447.7,199.5,448.5,198.7,448.5,197.3z"/>
<path class="st0" d="M154,219.2c-2.2-1.4-4.8-1.1-6.8,0.8c-0.3,0.3-0.5,0.7-0.8-0.1c-0.7-1.6-2-2.4-3.7-2.5
	c-1.7-0.1-3.1,0.5-4.4,1.6c-0.3-0.6,0.1-1.1,0.1-1.7c-1.2,0-2.4-0.2-3.5-0.4c-0.4-0.1-0.7-0.1-0.8,0.5c0,1.1-0.1,2.2-0.2,3.3
	c-0.2,1.6-0.3,3.2-0.5,4.8c-0.2,1.7-0.4,3.4-0.7,5c-0.1,0.7,0.2,0.8,0.7,0.8c1,0,2,0,2.9,0.3c0.6,0.2,0.6-0.1,0.6-0.5
	c0-2.4,0.5-4.7,0.7-7c0.1-1.1,0.3-2.3,0.9-3.3c0.3-0.6,0.8-1,1.5-1c1.7-0.1,2.5,0.6,2.6,2.4c0.1,3.4-0.7,6.7-1.2,10.1
	c1.3,0.1,2.7,0,4,0.5c0.3,0.1,0.4-0.1,0.4-0.4c0.1-1.5,0.2-2.9,0.4-4.4c0.2-1.7,0.3-3.5,0.8-5.2c0.4-1.5,1.4-2.2,2.6-2
	c1.2,0.2,1.9,1.1,1.9,2.6c0,3-0.6,6-1.1,9c-0.2,1,0.1,1.1,0.9,1c0.9-0.1,1.8,0,2.5,0.3c1.1,0.4,1-0.2,1-0.9c0.1-1.9,0.3-3.8,0.6-5.7
	c0.2-1.6,0.4-3.2,0.2-4.8C155.5,220.9,155.1,219.9,154,219.2z"/>
<path class="st0" d="M225.9,227.1c0-2.9-3-4-5.1-3.8c-1.5,0.2-2.7,0.9-3.9,2.1c0-0.5,0-0.8,0-1.1c0.1-0.7-0.1-0.9-0.9-0.9
	c-1,0.1-2.1,0-3.2,0c0.1,4.6,0,9.3-0.5,14c0,0.3,0.1,0.4,0.3,0.3c1.1-0.4,2.2,0,3.2,0.1c0.7,0.1,0.9-0.1,0.9-0.9
	c-0.1-2.3,0-4.6,0-6.9c0-1.1,0.2-2.2,0.7-3.1c0.4-0.8,1.5-1.4,2.3-1.3c1.1,0.2,2,1,2,2.1c0.1,3.2,0.1,6.4-0.4,9.5
	c-0.1,0.6,0.1,0.8,0.7,0.8c1.1,0,2.1-0.2,3.2,0.2c0.6,0.2,0.7-0.3,0.6-0.7c-0.2-0.7-0.2-1.5-0.2-2.2
	C225.8,232.7,226,229.9,225.9,227.1z"/>
<path class="st0" d="M204.7,222.8c-2.3-0.5-4.6-0.5-6.6,0.7c-2.5,1.5-3.3,4-3.2,6.9c-0.2,2.6,0.9,4.8,2.7,6c2,1.4,4.2,1.6,6.6,1.3
	c2.1-0.3,3.8-1.3,4.8-3.1c0.8-1.5,1-3.2,1-4.9C210,226.1,208.1,223.6,204.7,222.8z M205,234c-0.4,1.5-1.5,2.6-2.8,2.5
	c-1.5-0.1-2.4-0.9-2.8-2.7c-0.2-0.9-0.2-1.7-0.2-2.5c0-1.7,0.1-3.4,0.6-5c0.5-1.6,1.3-2.5,3.3-2.3c1.2,0.1,2.1,1.1,2.3,2.7
	C205.8,229.1,205.6,231.6,205,234z"/>
<path class="st0" d="M171.3,234c-1.2-0.1-1.5-1-1.4-1.9c0.2-2.1,0.5-4.3,0.7-6.4c0.3-2.6-0.2-4.6-3-5.6c-2.3-0.8-4.5-0.6-6.5,0.6
	c-1.3,0.8-1.4,1.1-0.5,2.5c0.3-0.3,0.5-0.7,0.9-0.9c1-0.8,2.1-1.2,3.4-0.7c1.2,0.5,1.8,1.4,1.7,2.9c0,1.3-1.1,1.1-1.8,1.3
	c-1.1,0.3-2.2,0.5-3.4,0.7c-3.5,0.7-4,4-2.7,6.5c0.2,0.3,0.4,0.5,0.6,0.7c1.6,1.2,4.7,1.4,6.7-0.8c0.2,0.8,0.5,1.5,1.3,1.9
	c1.4,0.6,2.7,0.4,4.1,0.1c0.3,0,0.4-0.3,0.4-0.5C171.8,234.2,171.6,234.1,171.3,234z M166,231.2c-0.2,1.2-1.2,1.8-2.2,1.6
	c-1.1-0.2-1.7-1.1-1.6-2.3c0.2-2.7,1.4-3.2,3.7-3.7c1.1-0.2,0.3,0.8,0.6,1.1C166.3,229.1,166.2,230.1,166,231.2z"/>
<path class="st0" d="M189.9,228.1c-1.2-0.7-2.5-1.1-3.7-1.9c-0.5-0.4-0.9-0.8-0.8-1.5c0.1-0.7,0.4-1.3,1.1-1.6
	c1.2-0.5,2.3-0.1,3.2,0.7c0.7,0.6,1,1.4,1.6,2.3c0.3-0.9,0.6-1.6,0.9-2.3c0.2-0.5,0.1-0.7-0.3-0.9c-2-1.3-4.1-1.5-6.3-0.9
	c-2,0.5-3.1,2.1-3.3,4.1c-0.2,1.7,0.6,2.9,2,3.8c1.2,0.8,2.7,1.2,3.9,2.2c0.9,0.7,1.1,1.4,0.7,2.2c-0.5,1-1.5,1.4-2.4,1.2
	c-1.6-0.4-2.8-1.3-3.3-2.9c-0.1-0.3-0.2-0.5-0.6-0.5c-0.2,0.9-0.2,1.8-0.5,2.6c-0.3,0.7,0.1,0.9,0.6,1.2c2.1,1.1,4.3,1.3,6.5,0.7
	c1.9-0.6,3.1-2,3.3-4C192.7,230.3,192,229.3,189.9,228.1z"/>
<path class="st0" d="M177.7,221.2c-0.3,0-0.6,0-0.9,0c-1.7-0.1-1.7-0.1-1.7,1.8c0.2,0.9-0.2,1.9-0.2,2.9c0,2.7-0.4,5.4-0.8,8
	c-0.3,1.6-0.3,1.6,1.3,1.6c0.3,0,0.7,0,1,0c0.7-0.1,1.5,0.7,1.9,0c0.3-0.5,0.2-1.4,0.2-2.1c0-3.4,0.3-6.8,0.8-10.2
	C179.7,221.3,179.6,221.3,177.7,221.2z"/>
<path class="st0" d="M177.8,213.4c-1.2,0-2.3,1.1-2.3,2.3c0,1.3,1,2.3,2.3,2.3c1.4,0,2.2-0.8,2.2-2.2
	C180,214.3,179.1,213.4,177.8,213.4z"/>
<path class="st0" d="M378.4,227.1c-0.3-0.2-0.5,0.3-0.7,0.5c-1.4,1.4-4.2,1.8-5.8,0.9c-1.5-0.9-2.2-2.4-2.5-4
	c-0.1-0.5,0.3-0.7,0.7-0.7c2.3-0.3,4.5-0.6,6.8-0.8c1.7-0.2,1.7-0.1,1.5-1.8c-0.4-3-2.5-5.5-5.9-5.2c-2.2-0.1-4.1,0.5-5.7,2.2
	c-2.1,2.2-2.2,4.8-1.5,7.6c0.6,2.4,1.9,4.2,4.3,5c2.8,0.9,5.4,0.4,7.9-1c0.6-0.3,1-0.9,1.1-1.6C378.5,227.7,378.8,227.3,378.4,227.1
	z M369,220.9c0-1.1,0.1-2.1,0.8-2.9c1.2-1.3,2.6-1.1,3.5,0.4c0.5,0.8,0.6,1.6,0.8,2.5c0.1,0.7-0.1,1.1-0.9,1.1
	c-0.8,0-1.7,0.2-2.5,0.4C369.2,222.5,369,222.4,369,220.9z"/>
<path class="st0" d="M360.6,210.1c0-0.5-0.2-0.8-0.7-0.7c-1.1,0.3-2.2,0.5-3.3,0.4c-0.4,0-0.6,0.1-0.5,0.5c0.6,2.9,0.9,5.8,1.3,8.6
	c0.4,3,0.8,6,1,9c0.1,1.3,0.3,2.6,0.4,3.9c0,0.3,0.1,0.6,0.5,0.4c1.3-0.5,2.6-0.4,4-0.4c-0.5-3.4-1-6.7-1.4-10
	C361.3,218,360.8,214.1,360.6,210.1z"/>
<path class="st0" d="M261.2,226.4c-1.5-2.5-4.6-3.1-7.5-2.4c-3.3,0.8-4.9,3.1-5.2,6.2c-0.3,2.6,0.3,5.1,2.3,7
	c0.9,0.9,2.1,1.2,3.2,1.7c1.3,0,2.6,0,3.9,0c0.8-0.4,1.8-0.5,2.6-1c0.9-0.5,0.9-1.4,1.2-2.5c-0.6,0.4-0.9,0.6-1.2,0.8
	c-1.6,0.9-3.2,1.2-4.9,0.4c-1.8-0.9-2.5-2.5-2.6-4.5c0-0.5,0.1-0.7,0.7-0.7c2.5,0,4.9-0.1,7.4-0.2c0.2,0,0.5,0,0.7,0
	c0.4,0,0.6-0.2,0.5-0.5C262,229.3,262,227.8,261.2,226.4z M257.3,229.9c-0.4,0-0.8,0-1.4,0c-0.7-0.1-1.5,0.1-2.3,0.2
	c-0.7,0-1-0.2-0.9-0.9c0.2-1.1,0.2-2.3,1-3.2c0.6-0.7,1.3-0.9,2.2-0.9c0.8,0.1,1.3,0.5,1.6,1.2c0.4,0.9,0.5,2,0.5,3
	C257.9,229.8,257.7,230,257.3,229.9z"/>
<path class="st0" d="M315.9,230.2c-0.2-2.5-0.3-5-0.2-7.5c0-0.5-0.1-0.7-0.6-0.7c-1.2,0.1-2.3,0.3-3.5,0.2c-0.2,0-0.5,0.1-0.4,0.3
	c0.3,0.7,0.1,1.4,0.2,2c0.3,2.5,0.4,5.1,0.4,7.7c0,1.3-0.9,2.2-2.1,2.3c-1.3,0.1-2.2-0.6-2.4-1.9c-0.3-1.2-0.4-2.4-0.4-3.6
	c0-2.2-0.4-4.4-0.2-6.5c-1.5,0.1-3,0.3-4.4,0.4c0,1,0.1,2,0.2,2.9c0.1,1,0.1,2,0.2,3c0.1,1.7,0.2,3.3,0.4,5c0.2,1.5,0.9,2.8,2.5,3.3
	c2.5,0.7,4.8-0.1,6.5-2.3c0.1,0.6,0.2,1.1,0.2,1.5c0,0.3,0.1,0.5,0.4,0.4c1-0.3,2-0.2,3.1-0.2c0.5,0,0.7-0.1,0.6-0.7
	C316.3,233.9,316.1,232.1,315.9,230.2z"/>
<path class="st0" d="M292.9,222.9c-5-0.1-7.9,2.7-7.9,7.4c0,5,2.7,7.9,7.4,7.9c5.3-0.1,7.8-2.9,7.8-7.5
	C300.1,226,298,223,292.9,222.9z M295.7,231c0,1.5,0.1,2.5-0.2,3.6c-0.4,1.4-1.4,2.3-2.7,2.4c-1.2,0-2.4-0.8-2.7-2.1
	c-0.7-2.8-0.9-5.6-0.3-8.4c0.3-1.3,1.1-2.1,2.7-2.1c1.4,0,2.2,0.7,2.7,2.1C295.6,228,295.8,229.7,295.7,231z"/>
<path class="st0" d="M346.7,224.1c-0.6-2.2-1.7-3.8-4-4.4c-1.2-0.3-2.4-0.3-3.5-0.1c-1.8,0.3-3.3,1-4.5,2.6
	c-1.6,2.2-1.7,4.6-1.1,7.2c0.4,1.6,1.1,3.1,2.6,4.1c2.3,1.6,4.8,1.5,7.4,0.8c2.3-0.6,3-1.2,3.2-3.3c-0.4,0-0.7,0.3-1,0.6
	c-3.2,2.2-7,1.3-8-3.1c-0.1-0.6-0.1-1,0.8-1c2.4-0.2,4.7-0.5,7.1-0.7c1.3-0.1,1.4-0.2,1.2-1.5C346.9,224.8,346.8,224.4,346.7,224.1z
	 M341.7,225.6c-1.2,0-2.3,0.2-3.4,0.3c-0.2,0-0.5,0.2-0.6-0.2c-0.3-1.4-0.2-2.8,0.6-4c1-1.4,2.8-1.3,3.7,0.2
	c0.3,0.6,0.6,1.5,0.6,2.6C342.9,225.5,342.4,225.6,341.7,225.6z"/>
<path class="st0" d="M272,237.1c-1.4,0.3-2.2,0-2.5-0.9c-0.2-0.6-0.2-1.1-0.2-1.7c0-2.1,0-4.3,0-6.4c0-0.7-0.3-1.7,0.2-2.2
	c0.4-0.5,1.4-0.1,2.1-0.1c0,0,0.1,0,0.1,0c0.5,0.1,0.6-0.1,0.6-0.6c0-0.8,0-1.3-1-0.9c-0.4,0.1-0.8,0-1.2,0
	c-0.5,0.1-0.7-0.1-0.7-0.7c0-1.4,0-2.9,0-4.3c0-0.7-0.1-0.9-0.8-0.6c-1,0.5-2,0.9-3,1.3c-0.5,0.2-0.7,0.5-0.5,0.9
	c0.3,0.7,0.1,1.5,0.2,2.2c0.1,0.9-0.2,1.4-1.1,1.2c-0.8-0.2-1,0.2-0.9,0.9c0,0.2-0.1,0.5,0.1,0.7c1.7-0.4,1.8-0.3,1.9,1.3
	c0.1,2.8-0.2,5.7,0.2,8.5c0.3,2.2,1.4,2.9,3.1,3c0,0.1,0,0.1,0,0.2c0.5,0,1,0,1.4,0c0-0.1,0-0.1,0-0.2c0.9,0,1.7-0.3,2.4-0.6
	c0.5-0.2,0.5-0.7,0.4-1C272.6,236.7,272.3,237.1,272,237.1z"/>
<path class="st0" d="M330.4,220.8c-0.9-0.1-1.1,0.3-1.3,1.1c-0.8,3.1-1.6,6.3-2.5,9.4c-0.4-0.2-0.5-0.6-0.6-0.9
	c-1.2-2.8-2.4-5.6-3.6-8.4c-0.1-0.3-0.2-0.8-0.8-0.6c-1.4,0.3-2.7,0.4-4.2,0.4c0.3,1,0.9,1.7,1.3,2.6c1.7,3.6,3.3,7.2,5,10.8
	c0.2,0.4,0.3,0.6,0.8,0.5c0.7-0.2,1.4-0.2,2.1-0.2c0.5,0,0.7,0,0.8-0.6c1.3-4.8,2.6-9.5,4.4-14.4
	C331.3,220.9,330.8,220.9,330.4,220.8z"/>
<path class="st0" d="M282.5,223.3c-1.1,0.2-2,0.7-2.7,1.7c-0.5,0.7-0.7,1.5-1.3,2.5c0-1.4,0-2.5,0-3.6c-1.4,0.3-2.8,0-4.1,0.2
	c0.1,1,0.2,2.1,0.2,3.1c0.1,3.6,0.4,7.2,0.2,10.8c0,0.5,0.1,0.6,0.5,0.5c1-0.1,2-0.4,3-0.2c1.2,0.3,1-0.4,0.9-1
	c-0.3-2.3-0.5-4.7-0.3-7c0.1-1.7,0.9-3,3-2.8c0.5,0,1,0.1,1.5,0.2c0-1.2-0.1-2.4,0-3.6C283.4,223.3,283,223.2,282.5,223.3z"/>
<path class="st0" d="M247,225c0.2-1.2,0.2-1.2-1-1.1c-0.3,0-0.6,0.2-0.9,0.3c-1.6,0.6-2.2,2-2.9,3.5c0-0.9-0.2-1.8,0.1-2.7
	c0.1-0.4,0.1-0.8-0.6-0.8c-1,0.1-1.9,0-2.9,0c-0.5,0-0.6,0.1-0.6,0.7c0,4.5,0.1,8.9-0.3,13.4c0,0.5,0.1,0.4,0.4,0.4
	c0.8,0,1.5,0,2.3,0c2,0,1.9,0.1,1.7-2c-0.2-2.3-0.4-4.6,0.3-6.9c0.4-1.2,1.2-1.7,2.4-1.8c0.7,0,1.4,0.3,2.1,0.4
	C246.9,227.1,246.8,226.1,247,225z"/>
<path class="st0" d="M78.5,207.3c-4.4,0-7,3-7.1,8.2c-0.1,4.7,3.5,7.1,8.2,7.2c4.2,0.1,7-3.2,7.1-8.2
	C86.9,209.7,83.1,207.3,78.5,207.3z M80.9,219.5c-0.7,1.4-1.8,2-3,1.8c-1.4-0.3-2.4-1.4-2.4-3c0-2.7,0.5-5.2,1.5-7.7
	c0.6-1.4,1.9-2.1,3-1.8c1.7,0.4,2.4,1.4,2.5,3.2c0,0.2,0,0.3,0,0.5C82.3,214.8,82,217.3,80.9,219.5z"/>
<path class="st0" d="M120.5,215c-1.1-0.8-2.4-1.1-3.7-1.2c-2.8-0.3-5,0.6-6.6,2.9c-1.3,1.9-1.6,4.1-1.3,6.3c0.2,1.8,1,3.4,2.5,4.5
	c1.9,1.3,4,1.8,6.2,1.6c1.3-0.1,2.9-0.1,3.4-1.8c0.1-0.2,0.4-0.3,0.2-0.6c-0.2-0.3-0.4,0-0.6,0.1c-1.1,0.5-2.2,0.9-3.4,0.6
	c-3-0.5-4.1-2.7-3.9-5.6c0-0.7,0.3-0.8,0.9-0.7c2.5,0.4,4.9,0.8,7.4,1.2c0.6,0.1,1.1,0,1.1-0.8c0-0.5,0.1-1,0.1-1.4
	C122.9,217.9,122.2,216.2,120.5,215z M118.9,218.9c-0.1,1.3-0.2,1.4-1.5,1.1c-1.1-0.2-2.1-0.3-3.2-0.4c-0.5-0.1-0.6-0.1-0.5-0.7
	c0.2-1,0.4-1.9,1-2.7c0.6-0.9,1.7-1.4,2.6-1.1c0.8,0.2,1.5,1.2,1.6,2.3c0,0.3,0,0.5,0,0.8C118.9,218.4,118.9,218.6,118.9,218.9z"/>
<path class="st0" d="M97.6,211.4c-0.2-0.6-0.9-0.1-1.3-0.3c-0.3-0.1-0.6-0.2-0.9-0.2c-0.5,0-0.6-0.1-0.5-0.7c0.4-1.5,0.5-3,0.9-4.5
	c0.3-0.9-0.2-0.8-0.7-0.7c-0.8,0.2-1.5,0.5-2.2,0.6c-1.2,0.1-2,0.3-1.7,1.8c0.1,0.4-0.1,0.9-0.2,1.3c-0.2,1.4-0.2,1.4-1.6,1
	c-0.5-0.1-0.5-0.2-0.7,0.4c-0.3,1,0.1,1.2,0.9,1.1c0.6,0,0.9,0.2,0.8,0.8c-0.5,2.3-0.9,4.6-1.4,6.9c-0.2,1.3-0.6,2.6-0.1,3.9
	c0.7,1.9,4.8,3,6.5,1.9c0.2-0.2,0.3-0.6,0.3-0.9c-0.1-0.5-0.4-0.1-0.6-0.1c-1.5,0.1-2.6-0.8-2.4-2.1c0.4-2.5,0.8-5,1.3-7.5
	c0.5-2.4,0.6-2.3,3-1.7c0.1,0,0.2,0.1,0.3,0.1C97.4,212.3,97.7,211.7,97.6,211.4z"/>
<path class="st0" d="M71.2,206.1c-1.4-0.9-1.7,0.3-2.3,1.1c-1.4,2.4-2.9,4.7-4.3,7.1c-0.1,0.2-0.2,0.5-0.5,0.4
	c-0.2,0-0.2-0.2-0.2-0.4c-0.1-1.2-0.3-2.4-0.4-3.6c-0.2-2-0.4-4-0.6-6c0-0.4-0.2-0.6-0.6-0.6c-1.3-0.1-2.5-0.4-3.7-0.8
	c-0.3-0.1-0.6-0.1-0.5,0.3c0.2,0.8,0.3,1.7,0.4,2.5c0.7,3.4,1.1,6.8,1.6,10.1c0.1,0.7,0.1,1.4,0.3,2c0.3,0.6,1.2,0.4,1.8,0.5
	c0.3,0,0.6,0.2,0.8,0.3c0.4,0.2,0.7,0,0.9-0.4c0.6-1.1,1.3-2.1,1.9-3.2c1.9-3.1,4-6.2,6.3-9.3C71.8,206.2,71.5,206.3,71.2,206.1z"/>
<path class="st0" d="M108.2,212.4c-1.2-0.1-2.2,0.2-3.1,1.1c-0.6,0.6-1.1,1.2-1.7,1.9c0-1.2,0.4-2.3,0.5-3.3
	c-1.1-0.1-2.2-0.1-3.2-0.5c-0.7-0.2-1,0-1,0.8c-0.1,1.4-0.2,2.7-0.4,4c-0.5,2.9-1,5.8-1.6,8.8c-0.1,0.5-0.1,0.7,0.4,0.6
	c1.1-0.1,2.2,0.2,3.2,0.5c0.6,0.2,0.7,0,0.7-0.5c0.1-2.2,0.4-4.5,0.9-6.7c0.6-2.5,1.5-3.3,3.5-3c0.6,0.1,1.1,0.6,1.8,0.6
	c-0.1-1.3,0.1-2.6,0.5-3.8C108.9,212.4,108.6,212.4,108.2,212.4z"/>
<path class="st1" d="M48,152c0-5,0-10,0-15c0-2.5,0-4.9,0-7.4c0-1.3-0.7-5.4,0.3-6.3c0.5-0.4,4.6-0.3,5.2,0.1c1.5,1,2.7,4.3,3.7,5.8
	c2.5,3.8,5.2,7.5,8.5,10.7c6.1,6,15.2,10.4,23.9,8c7.5-2.1,11.8-9.2,11.3-16.8c-0.7-9.9-11-13.2-18.8-16.2
	c-8.4-3.2-17.2-6.3-24.2-12.2c-13-11.1-13.1-32.1-0.8-43.8c5.3-5.1,12.8-7.6,20.1-7.6c4.3,0,8.6,1.1,12.6,2.8
	c1.5,0.6,3.6,2.4,5.1,2.6c1.5,0.2,2.9-1.7,3.9-2.6c1.3-1,3.6-1.8,5.3-1.3c1.8,0.5,1.8,3.8,2.2,5.6c1.2,5.1,2.4,10.2,3.6,15.3
	c0.5,2.2,1.4,4.6,1.6,6.9c0.1,0.9,0.2,0.8-0.4,1.4c-0.7,0.6-3.3,1.4-4.1,1.6c-2,0.5-2.6-1.8-3.6-3.3c-1.3-1.9-2.6-3.9-3.9-5.7
	c-5-6.8-11.5-15.1-20.5-16.4c-6.8-1-13.5,2.6-15.9,9.2c-2.9,8.1,1.8,14.4,8.8,18c8.7,4.5,18.2,7.2,26.9,11.7
	c7.5,3.9,13.7,9.7,16.2,17.9c2.6,8.5,1.7,18.1-2.9,25.7c-4.4,7.3-11.9,12-20.2,13.8c-9.5,2.1-18.8-0.6-27-5.4
	c-1.7-1-3.6-2.9-5.5-3.6c-1.7-0.6-2.1,1.8-2.7,3.1l0,0c-1,2-2.4,6.9-4.6,7.5c-0.5,0.1-3.3,0.2-3.8,0C47.6,155.7,48,152.8,48,152z"/>
<path class="st1" d="M308.1,139.7c-1.1,1.3-0.3,6.4-2.4,7.2c-0.5,1.4-0.3,4.5-1.5,5.4c-0.9,0.7-2,0.3-3.1,0.2
	c-1.8-0.1-3.3,0.4-4.3-1.2c-0.5-0.9-0.5-2.2-0.7-3.2c-0.3-1.5-1.2-2.6-1.6-4.1c-0.3-1.1-0.2-2.2-0.6-3.2c-0.5-1.3-1.3-1.9-1.1-3.5
	l0,0l0,0c-1-1.3-0.8-2.3-1.1-3.7c-1.4-0.7-1.8-4.4-2.1-5.8c-0.6-2.9-1.6-5.8-2.5-8.7c-1.7-5.6-3.5-11.3-5.3-16.9
	c-0.6-1.8-1-4.5-2.5-5.8c-1.4-1.2-3.4-0.2-4.6-1.1c-0.8-0.6-1.5-3.3-0.7-4.2c1.1-1.1,5.5-0.3,7-0.3c3,0,5.9,0,8.9,0
	c1.6,0,3.2,0,4.8,0c1.1,0,3.9-0.5,4.8,0c0.9,0.5,0.6,0.1,1,1c0.1,0.4,0.2,3.2-0.2,3.4c-1.5,1.2-4.1-0.8-4.9,1.9
	c-0.6,1.9,1.2,5.5,1.8,7.4c0.8,2.7,1.8,5.4,2.6,8.2c1.8,5.9,3.6,11.7,5.4,17.6c1.2-0.8,2.1-5.9,2.6-7.3c1-3,2-6,3-9
	c0.7-2.2,2.3-4.9,2.3-7.2c0-2.3-1.7-5.9-2.5-8c-0.6-1.6-1.2-2.7-2.9-3.2c-1.2-0.4-2.8,0.3-3.6-0.7c-0.3-0.4-0.2-2.3-0.1-2.7
	c0.4-1.5,0.3-1.2,2.2-1.3c3-0.1,5.9,0,8.9,0c3,0,5.9,0,8.9,0c1.4,0,2.7-0.1,4.1,0c2.1,0.1,1.8-0.1,2.2,1.7c0.9,5.1-5.6,0.9-5,5.6
	c0.8,5.4,3.4,10.9,5,16.2c1.6,5.1,2.9,10.5,5,15.4c2.2-6.6,4.4-13.1,6.6-19.7c1.1-3.1,5.8-12,1.4-14.2c-1-0.5-3.1,0-3.8-0.7
	c-0.3-0.3-0.3-3.3-0.1-3.6c0.8-1.6,6.6-0.7,8.4-0.7c3,0,6-0.1,9,0c1.7,0.1,1.4-0.3,1.9,0.9c0.5,0.9,0.2,2.9-0.5,3.6
	c-0.6,0.6-2.3,0.7-3.1,1.1c-1.1,0.6-2.1,1.5-2.9,2.6c-1.6,2.1-2.4,4.9-3.3,7.4c-2.3,6.6-4.4,13.3-6.6,19.9c-2,6-4.6,12.2-6,18.4
	c-0.4,1.9-0.8,6.5-2.7,7.7c-0.5,0.3-4,0.2-4.6,0c-1.4-0.4-1.4-0.6-1.8-2.1c-1.7-0.6-2.7-7.3-3.1-9c-0.6-2.6-1.8-5.1-2.4-7.7
	c-0.7-0.5-1.2-3.7-1.5-4.5c-1.1-0.7-1.6-4.3-2.1-5.6c-0.8-1.8-1.5-4.3-2.1-6.4c-1.4,4.5-2.6,9.5-4.6,13.8c-0.9,1.8-1,3.6-1.7,5.5
	C309.6,136.6,308.2,139.6,308.1,139.7z"/>
<path class="st1" d="M149.5,120.1c0,5.4,0,10.7,0,16.1c0,2.9-1.2,9.3,2.1,10.9c0.6,0.3,1.3,0.4,2,0.4c0.8,0.1,2.9-0.4,3.5,0.1
	c0.6,0.5,0.6,4.2,0,4.7c-0.5,0.4-2.2,0-2.9,0c-1.3,0-2.7,0-4,0c-2.7,0-5.4,0-8.1,0c-2.5,0-5,0-7.5,0c-1.1,0-6,0.7-6.7-0.2
	c-0.6-0.8-0.2-4.1,0.5-4.5c0.5-0.4,3,0,3.7-0.2c0.9-0.2,1.9-0.4,2.6-1.1c1.1-1.2,1-3.4,1-4.9c0.1-2.7,0-5.5,0-8.2
	c0-5.5,0-10.9,0-16.4c0-5.3,0-10.6,0-15.9c0-1.6,0.8-4.3-1.1-4.4c-1.7-0.1-4.4,1.9-5.7,2.9c-1.8,1.4-3.3,3-4.8,4.7
	c-0.7,0.8-1.4,1.7-2.1,2.6c-0.5,0.7-1.4,2.5-2.2,2.8c-1,0.3-3.9-0.9-4.1-1.8c-0.2-0.8,0.8-3,1.1-3.8c0.4-1.3,0.7-2.5,1.1-3.8
	c0.7-2.5,1.3-5.1,2.1-7.7c0.3-0.9,0.2-1.1,1-1.5c0.9-0.4,3.3,0,4.3,0c5.3,0,10.6,0,15.9,0c5.3,0,10.6,0,15.8,0c2,0,5.6-0.7,7.5,0
	c1.7,0.6,1.8,4.6,2.3,6.2c0.7,2.9,1.5,5.8,2.2,8.8c0.2,0.8,0.8,1.9,0.2,2.6c-0.4,0.4-2.5,1-3,1c-2,0.1-3.5-3.3-4.7-4.8
	c-1.6-1.9-3.3-3.7-5.2-5.2c-1.3-1-4.2-3.3-6-3c-1.6,0.3-0.8,3.8-0.8,5.2C149.4,107.8,149.4,113.9,149.5,120.1
	C149.4,120.1,149.5,120.1,149.5,120.1z"/>
<polygon class="st2" points="451.2,139.7 451.2,139.7 451.2,139.7 "/>
<polygon class="st2" points="451.2,139.7 451.2,139.7 451.2,139.7 "/>
<polygon class="st1" points="451.2,139.7 451.2,139.7 451.2,139.7 451.2,139.7 "/>
<polygon class="st1" points="445.8,131 445.8,131 445.8,131 "/>
<path class="st1" d="M460.1,148.1c0.5-0.9-3.5-2-4.4-2.7c-2-1.5-2.5-4.5-4.6-5.7l0,0c0,0,0,0,0,0c0,0,0,0,0,0l0,0
	c-0.6-1.6-1.7-2.5-2.4-4c-0.8-1.7-1.3-3.5-2.9-4.7c0,0,0,0,0,0l0,0c0,0,0,0,0,0c-0.4-1.8-1.6-3.2-2.6-4.7c-0.7-1.1-1.2-2.9-2.4-3.3
	c-1-1.8-2.5-3.5-2.8-5.6c-0.5-3.3,2.7-5.4,4.5-7.9c1-1.5,2-3,2.9-4.5c0.7-1.1,1.6-1.9,2.4-3c1-1.3,1.6-2.2,2.8-3.2
	c0.3-0.3,2.9-1.9,2.9-2.2l0,0l0,0c1.5,0.3,4-0.5,4.6-1.9c0.8-2.1,0.1-4-2-4.3c-3.1-0.4-6.6,0-9.7,0.1c-2.6,0-5.6-0.4-8.1-0.1
	c-2.4,0.3-2.1,1.6-1.9,3.6c0.3,1.9,0,1.6,1.9,2.1c0.9,0.3,2.7,0.5,3.3,1.5c1.1,2-1.5,4.6-2.5,6c-1.8,2.6-3.7,5.1-5.5,7.7
	c-2.5-3.9-5.6-7.9-7.6-12.1c-1.1-2.3-0.4-2.9,1.9-3.4c0,0,1.4-0.1,1.7-0.3c0.3-0.3,0.3-3.6,0.1-3.9c-1.1-1.8-10.8-0.7-13-0.7
	c-2.3,0-4.6,0-6.9,0c-1.4,0-2.8-0.1-4.1,0c-2,0.1-2-0.1-2.1,1.8c-0.1,2.4-0.4,2.6,1.8,3c1.9,0.3,3.4,1,4.7,2.5c3,3.4,5.2,8,7.6,11.8
	c1.4,2.3,2.9,4.6,4.3,6.9c0.9,1.4,3.3,4,3.6,5.7c0.3,1.8-2.3,4.2-3.3,5.7c-1.6,2.2-3.2,4.4-4.7,6.6c-3.3,4.6-12.9,19.4-17.7,8.4
	c-2-4.5-3-9.6-4.5-14.3c-1.5-4.8-2.9-9.5-4.4-14.3s-2.9-9.5-4.4-14.3c-0.8-2.6-1.6-5.2-2.4-7.8c-0.4-1.3-0.5-2.6-1.8-3.1
	c-1.3-0.4-4.5,1.2-5.8,1.6c-1.8,0.5-4.1,0.7-5.3,2.1c-1.2,1.4-1.6,4.5-2.3,6.2c-1.1,3-2.2,6.1-3.3,9.1c-3.9,10.7-7.5,21.6-11.8,32.1
	c-0.8,1.9-1.7,3.6-3.4,4.7c-0.4,0.2-0.8,0.4-1.2,0.6c-0.8,0.4-2.6,0.7-3.2,1.1c-0.9,0.6-1.2,4.3-0.5,5.2c0.6,0.8,5.6,0.7,6.4,0
	c2,0,6.8,1.6,8.5,0c1.4,0,5.1,1.1,5.9-0.6c0.1-0.2-0.3-4.2-0.5-4.4c-0.9-0.9-1.5,0.2-2.5-0.2c-0.2,0.1-2.3-1.1-2.5-1.3
	c-1.1-1-0.8-1.6-0.6-3.3c0.2-2.4,0.8-4.5,1.4-6.7c1-0.5,0.6-1.7,1.3-2.4c0.6-0.5,1.5-0.6,2.3-0.7c1.3-0.2,2.9-0.3,4.2-0.2
	c1.3,0.1,2.2,0,3.5,0c2,0,4.2,0.7,6.4,0.4c2.9-0.4,2.2-0.1,3,2.8c0.3,1.2,1,2.1,1.4,3.2c0.3,1.1,0.2,2.3,0.6,3.4
	c0.7,2.4,1.4,3.7-1.5,4.4c-2.4,0.6-3.9-0.3-4.1,2.7c-0.1,1.5,0.8,5,3.1,3c2.9,0,5.9,0.1,8.7,0.4c4.2,0.4,8.3-0.4,12.4-0.4
	c1.2,1,5.1,0.4,6.4,0.4c1.5,0,6,0.8,7.2-0.4c0.5,0,1,0,1.4,0c0.1,0.1,0.3,0.1,0.4,0c0.3,0,0.7,0,1,0c0.1,0.1,0.1,0.1,0.2,0
	c1.6,0,3.2,1,4.7,0c0-1.1,0.7-4.5-0.1-5.2c-1.1-1-4,0.3-5.1-1.2c-1.3-1.8,2.4-6.3,3.2-7.9c0.1,0,1.5-1.7,1.5-1.8
	c0.9-1.3,1.8-2.7,2.7-4c1.6-2.3,1.6-3,3.3-0.5c1,1.6,2.4,3.1,3.3,4.7c0.7,1.3,1.2,2.7,2.1,4c0.5,0.7,1.1,1.3,1.6,2
	c0.1,0.2,1.2,1.9,1.2,1.9c1,3.8-3.1,1.6-4.5,3.1c-0.1,0-0.3,0-0.4,0c-0.2,0.8-0.6,4.1,0,4.7c0.8,0.8,0.8,0.1,1.7,0.2
	c2.9,0.5,5.7,0.4,8.7,0.3c2.6,0,5.1-0.4,7.6-0.2c1.5,0.1,5.8,1.1,6.9-0.2c0.3,0,0.7,0,1,0C460.8,154,460.1,148.6,460.1,148.1z
	 M378.6,126.7c-4.2,0-9.6,0.9-13.7-0.1c0.3-1.2,7.7-21.6,8.1-22.3c1.2,4.4,2.4,8.7,3.6,13.1C377,118.4,379.7,126.7,378.6,126.7z"/>
<polygon class="st1" points="278.2,162.9 278.2,163 278.2,163 "/>
<path class="st1" d="M367.6,159.3c-0.9-0.2-0.2-1.5-1.8-1.4c-1.3,0.2-3.2,2.7-4.1,3.5c-2,1.9-6.1,4.3-7.3,6.7
	c-1.6,0.3-6.4,3.5-7.1,5c-1,0-1.6,0.6-2.2,1.2c0,0,0,0,0,0l0,0c0,0,0,0,0,0c-4.1,1.4-7.3,3.4-11.6,3.6c-5.2,0.2-10.5,1.2-15.6-0.5
	c-1.8-0.6-4.1-2.1-5.8-3.1c-2.4-1.4-4.6-3-6.7-4.8c-1.6-1.3-3.5-2.5-5-3.8c-1.2-1.1-2.4-4-4.2-4.2c-0.1-0.1-0.1-0.1-0.2-0.2
	c0-1.1-1-1.2-1.6-1.7c0,0,0,0,0,0l0,0c0,0,0,0,0,0c-0.8-2-2.6-2.8-3.9-4.3c-1-1.1-1.8-2.5-2.7-3.6c-2.3-2.9-4.8-5.8-7.1-8.9
	c-2.9-3.7-5.7-7-8.9-10.2c-2-2.1-4.1-4.2-6.3-6.1c-1.1-1-5.7-3.9-5.8-5c6.6-1.8,12.6-5.9,13.1-13.2c0.4-6.1-2.2-11.3-7.6-14.1
	c-7.4-3.7-16.4-3.3-24.5-3.3c-4.1,0-8.2,0-12.3,0c-1.2,0-5.2-0.6-6.1,0.1c-0.5,0.4-0.6,3.1-0.4,3.8c0.9,2.3,4.8,0.3,6.4,2.5
	c1.9,2.6,0.7,8.5,0.7,11.6c0,8.7,0,17.5,0,26.2c0,2.9,0.9,7.7-0.6,10.3c-0.6,1.2-1.6,1.6-2.8,1.9c-2.2,0.5-2.7-0.4-3.4,1.7
	c-0.4,1.2-0.2,2.8,0.5,3.3c0.7,0.6,5.5-0.1,6.5-0.1c4.4,0,8.8,0,13.2,0c1.7,0,5.3,0.7,6.7,0c1.3-0.7,0.8-1,0.8-2.8
	c-0.1-1.6,0.5-2.2-1.7-2.5c-1.3-0.2-3.7,0.2-4.6-1.2c-0.7-1.1-0.4-4.2-0.5-5.5c-0.1-2.5,0-5,0-7.5c0-1-1.3-9.7,2-7.5
	c0.4,1.2,3.3,2.9,4.2,3.9c1.4,1.4,2.6,2.9,3.8,4.4c1.9,2.4,3.6,4.6,5.6,7.1c4,5,8.1,9.6,12.2,14.6c-0.3,1.3,2.7,3.9,3.5,4.7
	c0.9,0.9,2.2,2.8,3.3,3.2c0,0,0,0,0,0l0,0c0,0,0,0,0,0c0.7,1.9,2.8,2.8,4.1,4.2c1.2,1.4,2.4,2.6,3.7,3.9c1.6,1.5,3.7,2.8,5.4,4.1
	c1.4,1,4,3.6,5.7,3.3c1.6,1.2,3.3,2.4,5.3,3.1c1,0.3,2,0.4,3,0.8c1.4,0.6,2.1,1.4,3.6,1.3c0.4,0.5,3.2,1.3,3.8,1.4
	c1.4,0.3,3,0.2,4.5,0.4c2.8,0.4,5.3,1.1,8.2,1.1c3.3,0,5.8-0.7,8.9-1.2c2.1-0.3,7.6-1.3,8.7-3.3c1.7-0.6,3-1.1,4.5-2.1
	c0.7-0.5,1.6-0.9,2.4-1.4c2.4-1.7,5.3-3.8,7.3-5.9c1.9-1.9,3.9-3.9,5.6-5.9c0.4-0.5,0.5-1.2,0.9-1.7c0.5-0.6,1.2-0.9,1.6-1.5
	C366,162.7,367.8,160.1,367.6,159.3z M258.1,111.5c-1.2,5.8-6.8,7-12,7c-3.7-0.1-3-0.8-3-4.2c0-3.3,0-6.7,0-10
	c0-2.3-0.5-5.9,1.7-7.3c2.2-1.3,6.3-0.9,8.6,0C258.8,99.2,259.1,106.5,258.1,111.5z"/>
<polygon class="st1" points="294.7,159.7 294.7,159.7 294.7,159.7 "/>
<polygon class="st1" points="345.3,174.4 345.3,174.4 345.3,174.4 "/>
<path class="st1" d="M220.3,149.4c0-3.1-4.5-1.7-6.3-4.2c-2.7-3.8-3.5-10-4.8-14.4c-3.1-10.2-6.3-20.5-9.4-30.7
	c-0.8-2.6-1.5-5.1-2.3-7.7c-0.7-2.1-0.6-2.5-2.8-2.1c-2.3,0.4-4.6,1.2-6.8,1.9c-3.1,1-3.1,2.9-4.3,5.9c-3.7,10-7.5,20-11.3,29.9
	c-1.6,4.1-3,8.3-4.7,12.4c-0.7,1.8-1.5,3.8-2.9,5.2c-1.2,1.3-3.8,1.2-4.7,2.2c-0.5,0.5-0.9,3.2-0.4,4c0.7,1.2,3.9,0.6,5.3,0.6
	c2.6,0,5.2,0,7.8,0c1.5,0,5.7,0.8,6.8-0.1c0.3-0.3,0.5-4.1,0-4.5c-0.6-0.6-3.3-0.2-4.2-0.6c-3.5-1.7-2-6-1.1-8.9
	c0.3-0.9,0.9-3.3,1.5-4.1c1.3-1.7,1.4-1.4,4.2-1.4c2.4,0,4.8,0,7.2,0c1.6,0,6.4-0.9,7.7,0.1c1.2,0.9,2.1,6,2.5,7.4
	c0.4,1.4,1.9,4.4,1.1,5.8c-1.1,2-3.6,0.7-5.1,1.6c-1,0.6-1.6,3.2-0.8,4.3c0.7,1.1,6.2,0.4,7.4,0.4c2.6,0,5.3,0,7.9,0
	c3.2,0,6.3-0.1,9.5,0C220.1,152.4,220.3,152.2,220.3,149.4z M192.5,126.9c-4.7,0-9.6,0.4-14.2-0.1c2.8-7.5,5.7-15,8.5-22.6
	c1.1,3.9,2.3,7.7,3.4,11.6C190.6,117.3,193.8,126.9,192.5,126.9z"/>
</svg>
