<?xml version="1.0" encoding="utf-8"?>
<!-- Generator: Adobe Illustrator 15.0.0, SVG Export Plug-In . SVG Version: 6.00 Build 0)  -->
<!DOCTYPE svg PUBLIC "-//W3C//DTD SVG 1.1//EN" "http://www.w3.org/Graphics/SVG/1.1/DTD/svg11.dtd">
<svg version="1.1" id="Calque_1" xmlns="http://www.w3.org/2000/svg" xmlns:xlink="http://www.w3.org/1999/xlink" x="0px" y="0px"
	 width="500px" height="500px" viewBox="0 0 500 500" enable-background="new 0 0 500 500" xml:space="preserve">
<g>
	<path fill="#0D0802" d="M53.629,251.267c-5.761,0-7.529-1.354-7.933-1.771c-0.564-0.578-0.584-1.515-0.551-2.773
		c0.006-0.248,0.011-0.469,0.011-0.662c0-1.687,0-6.167,10.629-6.167c3.129,0,6.828,0.423,10.994,1.256l6.96,1.392v-23.625
		l-4.083-1.276c-0.533-0.167-13.198-4.083-24.921-4.083c-3.693,0-6.992,0.393-9.803,1.168
		c-10.145,2.798-22.237,10.506-22.237,31.333c0,18.122,11.536,26.235,22.968,26.235c12.964,0,12.964,4.374,12.964,6.022
		c0,2.526,0,5.393-10.332,5.393c-4.25,0-9.745-0.583-16.332-1.733l-6.819-1.19v24.648l4.547,1.018
		c0.687,0.154,16.963,3.765,29.763,3.765c0,0,0,0,0,0c4.756,0,8.48-0.488,11.385-1.493c13.536-4.687,19.84-14.218,19.84-29.999
		C80.681,256.03,65.969,251.267,53.629,251.267z"/>
	<polygon fill="#0D0802" points="83.334,242.896 97.217,242.896 97.217,307.819 130.087,307.819 130.087,242.896 143.97,242.896 
		143.97,217.376 83.334,217.376 	"/>
	<polygon fill="#0D0802" points="357.828,307.458 420.914,306.956 420.914,282.3 390.291,282.3 390.291,273.113 420.914,273.113 
		420.914,251.676 390.291,251.676 390.291,242.08 421.527,242.08 421.527,217.376 357.828,217.376 	"/>
	<polygon fill="#0D0802" points="464.707,282.604 464.707,217.069 432.857,217.069 432.857,307.41 487.982,307.41 487.982,282.604 	
		"/>
	<path fill="#0D0802" d="M315.67,239.676l-11.902-22.607h-25.172l-0.859,4.793c-0.98,5.47-3.27,10.704-6.621,15.138l-1.178,1.557
		v68.854h30.625v-32.797l14.23,33.206h32.93v-90.852H315.67V239.676z"/>
	<path fill="#0D0802" d="M233.202,249.878l-7.363-2.027v60.377h33.687v-60.376l-7.363,2.026
		C245.967,251.585,239.396,251.585,233.202,249.878z"/>
	<path fill="#0D0802" d="M216.888,242.08l-5.056-8.734c-2.019-3.488-3.417-7.263-4.158-11.22l-0.887-4.75h-54.447v90.082
		l63.085-0.502V282.3h-30.624v-9.187h30.624v-21.438h-30.624v-9.596H216.888z"/>
</g>
<path fill="#FFFFFF" d="M67.92,235.444v-12.25c0,0-19.599-6.125-31.44-2.859c-11.842,3.267-17.966,11.433-17.966,25.725
	c0,14.291,8.166,20.416,17.149,20.416c8.983,0,18.783,2.042,18.783,11.842s-7.758,13.882-33.482,9.391c0,10.209,0,13.066,0,13.066
	s27.357,6.125,37.974,2.45s15.925-10.617,15.925-24.5s-5.716-21.641-21.233-21.641c-15.516,0-14.291-8.574-14.291-11.024
	S39.338,229.728,67.92,235.444z"/>
<polygon fill="#FFFFFF" points="138.151,223.195 89.153,223.195 89.153,237.078 103.036,237.078 103.036,302.001 124.269,302.001 
	124.269,237.078 138.151,237.078 "/>
<polygon fill="#FFFFFF" points="415.096,267.294 415.096,257.494 384.471,257.494 384.471,236.261 415.709,236.261 415.709,223.195 
	384.471,223.195 363.646,223.195 363.646,236.261 363.646,301.592 415.096,301.185 415.096,288.118 384.471,288.118 
	384.471,267.294 "/>
<polygon fill="#FFFFFF" points="458.889,288.423 458.889,222.888 438.676,222.888 438.676,288.423 438.676,301.592 458.889,301.592 
	482.162,301.592 482.162,288.423 "/>
<circle fill="#0D0802" cx="242.682" cy="215.538" r="25.724"/>
<circle fill="#0D0802" cx="242.682" cy="215.538" r="25.724"/>
<circle fill="#F29100" cx="242.683" cy="215.538" r="19.294"/>
<g>
	<g>
		<path fill="#1D1D1B" d="M477.904,220.014c0.844-0.153,2.072-0.268,3.205-0.268c1.785,0,2.957,0.345,3.744,1.055
			c0.633,0.576,1.016,1.459,1.016,2.476c0,1.69-1.074,2.822-2.418,3.283v0.058c0.98,0.346,1.574,1.267,1.881,2.611
			c0.422,1.804,0.73,3.052,1,3.551h-1.729c-0.211-0.384-0.5-1.478-0.844-3.09c-0.385-1.786-1.096-2.458-2.611-2.515h-1.574v5.605
			h-1.67V220.014z M479.574,225.907h1.709c1.783,0,2.916-0.979,2.916-2.457c0-1.67-1.209-2.4-2.975-2.4
			c-0.807,0-1.363,0.058-1.65,0.135V225.907z"/>
	</g>
	<g>
		<path fill="#1D1D1B" d="M481.717,237.698c-6.223,0-11.285-5.062-11.285-11.285s5.062-11.285,11.285-11.285
			c6.221,0,11.283,5.062,11.283,11.285S487.938,237.698,481.717,237.698z M481.717,215.741c-5.887,0-10.674,4.788-10.674,10.672
			c0,5.885,4.787,10.673,10.674,10.673c5.883,0,10.672-4.788,10.672-10.673C492.389,220.529,487.6,215.741,481.717,215.741z"/>
	</g>
</g>
<path fill="#FFFFFF" d="M321.488,222.786v40.434l-21.232-40.332h-16.793c-1.168,6.532-3.859,12.535-7.707,17.621v61.083h18.988
	v-55.328l23.887,55.737h2.857h20.416v-79.215H321.488z"/>
<path fill="#FFFFFF" d="M242.682,256.982c-3.819,0-7.513-0.527-11.025-1.494v46.921h22.05v-46.921
	C250.195,256.455,246.502,256.982,242.682,256.982z"/>
<path fill="#FFFFFF" d="M178.984,236.261h27.813c-2.306-3.984-3.966-8.385-4.841-13.066h-22.972h-20.825v13.066v65.331l51.449-0.407
	v-13.066h-30.624v-20.824h30.624v-9.8h-30.624V236.261z"/>
</svg>
