<?xml version="1.0" encoding="utf-8"?>
<!-- Generator: Adobe Illustrator 21.0.2, SVG Export Plug-In . SVG Version: 6.00 Build 0)  -->
<svg version="1.1" id="Calque_1" xmlns="http://www.w3.org/2000/svg" xmlns:xlink="http://www.w3.org/1999/xlink" x="0px" y="0px"
	 viewBox="0 0 500 156" style="enable-background:new 0 0 500 156;" xml:space="preserve">
<style type="text/css">
	.st0{fill:#0D0802;}
	.st1{fill:#FFFFFF;}
	.st2{fill:#F29100;}
	.st3{fill:#1D1D1B;}
</style>
<path class="st0" d="M53.6,79.3c-5.8,0-7.5-1.4-7.9-1.8c-0.6-0.6-0.6-1.5-0.6-2.8c0-0.2,0-0.5,0-0.7c0-1.7,0-6.2,10.6-6.2
	c3.1,0,6.8,0.4,11,1.3l7,1.4V46.9l-4.1-1.3c-0.5-0.2-13.2-4.1-24.9-4.1c-3.7,0-7,0.4-9.8,1.2C24.8,45.5,12.7,53.2,12.7,74
	c0,18.1,11.5,26.2,23,26.2c13,0,13,4.4,13,6c0,2.5,0,5.4-10.3,5.4c-4.2,0-9.7-0.6-16.3-1.7l-6.8-1.2v24.6l4.5,1
	c0.7,0.2,17,3.8,29.8,3.8l0,0c4.8,0,8.5-0.5,11.4-1.5c13.5-4.7,19.8-14.2,19.8-30C80.7,84,66,79.3,53.6,79.3z"/>
<polygon class="st0" points="83.3,70.9 97.2,70.9 97.2,135.8 130.1,135.8 130.1,70.9 144,70.9 144,45.4 83.3,45.4 "/>
<polygon class="st0" points="357.8,135.4 420.9,134.9 420.9,110.3 390.3,110.3 390.3,101.1 420.9,101.1 420.9,79.7 390.3,79.7 
	390.3,70.1 421.5,70.1 421.5,45.4 357.8,45.4 "/>
<polygon class="st0" points="464.7,110.6 464.7,45.1 432.9,45.1 432.9,135.4 488,135.4 488,110.6 "/>
<path class="st0" d="M315.7,67.7l-11.9-22.6h-25.2l-0.9,4.8c-1,5.5-3.3,10.7-6.6,15.1l-1.2,1.6v68.9h30.6v-32.8l14.2,33.2h33V45
	h-32.1v22.7H315.7z"/>
<path class="st0" d="M233.2,77.9l-7.4-2v60.4h33.7V75.9l-7.4,2C246,79.6,239.4,79.6,233.2,77.9z"/>
<path class="st0" d="M216.9,70.1l-5.1-8.7c-2-3.5-3.4-7.3-4.2-11.2l-0.9-4.8h-54.4v90.1l63.1-0.5v-24.7h-30.6v-9.2h30.6V79.7h-30.6
	v-9.6H216.9L216.9,70.1z"/>
<path class="st1" d="M67.9,63.4V51.2c0,0-19.6-6.1-31.4-2.9c-11.8,3.3-18,11.4-18,25.7c0,14.3,8.2,20.4,17.1,20.4s18.8,2,18.8,11.8
	s-7.8,13.9-33.5,9.4c0,10.2,0,13.1,0,13.1s27.4,6.1,38,2.5s15.9-10.6,15.9-24.5s-5.7-21.6-21.2-21.6s-14.3-8.6-14.3-11
	C39.3,71.6,39.3,57.7,67.9,63.4z"/>
<polygon class="st1" points="138.2,51.2 89.2,51.2 89.2,65.1 103,65.1 103,130 124.3,130 124.3,65.1 138.2,65.1 "/>
<polygon class="st1" points="415.1,95.3 415.1,85.5 384.5,85.5 384.5,64.3 415.7,64.3 415.7,51.2 384.5,51.2 363.6,51.2 363.6,64.3 
	363.6,129.6 415.1,129.2 415.1,116.1 384.5,116.1 384.5,95.3 "/>
<polygon class="st1" points="458.9,116.4 458.9,50.9 438.7,50.9 438.7,116.4 438.7,129.6 458.9,129.6 482.2,129.6 482.2,116.4 "/>
<circle class="st0" cx="242.7" cy="43.5" r="25.7"/>
<circle class="st0" cx="242.7" cy="43.5" r="25.7"/>
<circle class="st2" cx="242.7" cy="43.5" r="19.3"/>
<path class="st3" d="M477.9,48c0.8-0.2,2.1-0.3,3.2-0.3c1.8,0,3,0.3,3.7,1.1c0.6,0.6,1,1.5,1,2.5c0,1.7-1.1,2.8-2.4,3.3v0.1
	c1,0.3,1.6,1.3,1.9,2.6c0.4,1.8,0.7,3.1,1,3.6h-1.7c-0.2-0.4-0.5-1.5-0.8-3.1c-0.4-1.8-1.1-2.5-2.6-2.5h-1.6v5.6h-1.7L477.9,48
	L477.9,48z M479.6,53.9h1.7c1.8,0,2.9-1,2.9-2.5c0-1.7-1.2-2.4-3-2.4c-0.8,0-1.4,0.1-1.6,0.1L479.6,53.9L479.6,53.9z"/>
<path class="st3" d="M481.7,65.7c-6.2,0-11.3-5.1-11.3-11.3c0-6.2,5.1-11.3,11.3-11.3c6.2,0,11.3,5.1,11.3,11.3
	S487.9,65.7,481.7,65.7z M481.7,43.7c-5.9,0-10.7,4.8-10.7,10.7c0,5.9,4.8,10.7,10.7,10.7c5.9,0,10.7-4.8,10.7-10.7
	S487.6,43.7,481.7,43.7z"/>
<path class="st1" d="M321.5,50.8v40.4l-21.2-40.3h-16.8c-1.2,6.5-3.9,12.5-7.7,17.6v61.1h19V74.3l23.9,55.7h2.9H342V50.8L321.5,50.8
	L321.5,50.8z"/>
<path class="st1" d="M242.7,85c-3.8,0-7.5-0.5-11-1.5v46.9h22.1V83.5C250.2,84.4,246.5,85,242.7,85z"/>
<path class="st1" d="M179,64.3h27.8c-2.3-4-4-8.4-4.8-13.1h-23h-20.8v13.1v65.3l51.4-0.4v-13.1H179V95.3h30.6v-9.8H179V64.3
	L179,64.3z"/>
</svg>
