<?xml version="1.0" encoding="utf-8"?>
<!-- Generator: Adobe Illustrator 19.1.0, SVG Export Plug-In . SVG Version: 6.00 Build 0)  -->
<svg version="1.1" id="Calque_1" xmlns="http://www.w3.org/2000/svg" xmlns:xlink="http://www.w3.org/1999/xlink" x="0px" y="0px"
	 viewBox="0 0 500 500" style="enable-background:new 0 0 500 500;" xml:space="preserve">
<style type="text/css">
	.st0{fill:#E2001A;}
</style>
<g>
	<polygon class="st0" points="102.8,214.2 25,214.2 25,229.5 52.9,229.5 52.9,285.8 74.3,285.8 74.3,229.5 102.8,229.5 	"/>
	<rect x="270" y="214.2" class="st0" width="21.5" height="71.6"/>
	<path class="st0" d="M394.1,229.5c-0.8-6.7-5.9-16.4-19.2-16.4c-14.6,0-19.9,10.5-19.9,10.5s-3.8-10.5-16.9-10.5
		c-8.5,0-14,4.3-16.9,7.4v-6.3h-20.6v71.6h20.6v-50.2c1.4-3.2,4.2-6.7,8.7-6.7s6.6,6.6,6.6,6.6v50.3h20.6v-48.9c0-4.6,4-7.4,9.9-7.4
		c5.9,0,6.6,6.1,6.6,6.1v50.2h20.6v-56.3H394.1z"/>
	<path class="st0" d="M181.8,231.2c-0.4-10.4-9-18.7-19.5-18.7h-35c-10.5,0-19,8.4-19.5,18.7h17.8c1.3-2,3.4-3.4,5.9-3.4h24.2
		c2.5,0,4.7,1.4,5.9,3.4h0.1v7.6c-2.5-1.3-5.3-2.1-8.3-2.1h-28.4c-10.1,0-18.3,8.2-18.3,18.3v12.5c0,10.1,8.2,18.3,18.3,18.3h28.4
		c3,0,5.8-0.8,8.3-2.1v2.1h20.1L181.8,231.2L181.8,231.2L181.8,231.2z M161.8,263.1c0,4.7-3.8,8.5-8.5,8.5h-18.8
		c-4.7,0-8.5-3.8-8.5-8.5v-2.2c0-4.7,3.8-8.5,8.5-8.5h18.8c4.7,0,8.5,3.8,8.5,8.5V263.1z"/>
	<path class="st0" d="M474.9,231.2c-0.4-10.4-9-18.7-19.5-18.7h-35c-10.5,0-19,8.4-19.5,18.7h17.8c1.3-2,3.4-3.4,5.9-3.4h24.2
		c2.5,0,4.7,1.4,5.9,3.4h0.1v7.6c-2.5-1.3-5.3-2.1-8.3-2.1h-28.4c-10.1,0-18.3,8.2-18.3,18.3v12.5c0,10.1,8.2,18.3,18.3,18.3h28.4
		c3,0,5.8-0.8,8.3-2.1v2.1H475L474.9,231.2L474.9,231.2L474.9,231.2z M454.9,263.1c0,4.7-3.8,8.5-8.5,8.5h-18.8
		c-4.7,0-8.5-3.8-8.5-8.5v-2.2c0-4.7,3.8-8.5,8.5-8.5h18.8c4.7,0,8.5,3.8,8.5,8.5V263.1z"/>
	<path class="st0" d="M239.9,214.2v40.2c0,8.4-6.9,15.3-15.3,15.3h-1.9c-8.4,0-15.3-6.9-15.3-15.3v-3.5h-20.9v8.2
		c0,15.6,12.8,28.4,28.4,28.4h18.4c15.6,0,28.4-12.8,28.4-28.4v-44.9L239.9,214.2L239.9,214.2z"/>
</g>
</svg>
