<?xml version="1.0" encoding="utf-8"?>
<!-- Generator: Adobe Illustrator 21.0.2, SVG Export Plug-In . SVG Version: 6.00 Build 0)  -->
<svg version="1.1" id="Calque_1" xmlns="http://www.w3.org/2000/svg" xmlns:xlink="http://www.w3.org/1999/xlink" x="0px" y="0px"
	 viewBox="0 0 500 170" style="enable-background:new 0 0 500 170;" xml:space="preserve">
<style type="text/css">
	.st0{fill:#FF0000;}
	.st1{fill:url(#SVGID_1_);}
</style>
<polygon class="st0" points="121.5,57.6 153,57.6 153,42 111.8,42 111.8,42.1 86.9,67.1 99.6,79.7 99.6,79.7 112.2,92.3 112.2,92.5 
	143,92.5 150.9,84.9 143,77.3 120.7,77.3 111.3,67.9 "/>
<polygon class="st0" points="144.2,94.9 112.8,94.9 112.8,110.5 154,110.5 154,110.4 178.8,85.4 166.1,72.8 166.1,72.8 153.5,60.2 
	153.5,60 122.7,60 114.8,67.6 122.7,75.2 145.1,75.2 154.4,84.6 "/>
<polygon class="st0" points="402.4,93.9 183,93.9 168.5,108.2 386.7,108.2 "/>
<linearGradient id="SVGID_1_" gradientUnits="userSpaceOnUse" x1="251.5723" y1="2202.9451" x2="251.5723" y2="2288.6873" gradientTransform="matrix(1 0 0 1 0 -2158.3301)">
	<stop  offset="0" style="stop-color:#FCD5B5"/>
	<stop  offset="1" style="stop-color:#FF0000"/>
</linearGradient>
<path class="st1" d="M448.6,47.7c6.1,1.8,12.1,3.9,18,6.5c2.9,1.3,5.8,2.8,8.5,4.4c2.8,1.7,5.4,3.6,7.8,5.9c2.4,2.3,4.5,5.1,5.5,8.5
	c0.2,0.9,0.4,1.7,0.5,2.6c0,0.4,0.1,0.9,0,1.3c0,0.5,0,0.9-0.1,1.4c-0.2,1.8-0.8,3.5-1.6,5.1c-1.6,3.2-3.9,5.7-6.4,7.9
	c-2.5,2.2-5.2,4.1-8,5.8c-5.6,3.4-11.5,6.1-17.5,8.5s-12.1,4.4-18.2,6.3s-12.3,3.5-18.6,4.9c-6.2,1.5-12.5,2.8-18.8,4
	c-50.2,9.5-101.4,12.6-152.3,12.6c-12.7-0.1-25.5-0.4-38.2-0.9c-12.7-0.6-25.5-1.4-38.2-2.5s-25.4-2.5-38-4.3
	c-6.3-0.9-12.6-1.8-18.9-2.9c-6.3-1.1-12.6-2.3-18.8-3.6c-6.3-1.3-12.5-2.8-18.7-4.4s-12.4-3.4-18.5-5.4c-6.1-2.1-12.1-4.3-18-7.1
	c-5.9-2.7-11.7-5.8-16.8-10.1c-2.6-2.1-5-4.6-6.8-7.6c-0.9-1.5-1.6-3.2-2-5c-0.2-0.9-0.3-1.8-0.3-2.7c0-0.2,0-0.4,0-0.7v-0.6
	c0-0.5,0.1-1,0.2-1.4c0.6-3.6,2.6-6.7,4.9-9.1c2.3-2.5,4.9-4.4,7.7-6.2c5.5-3.5,11.4-6,17.4-8.3c6-2.2,12.1-4,18.2-5.6
	c-6,2.1-11.9,4.3-17.7,6.9c-5.8,2.6-11.4,5.5-16.4,9.1c-2.5,1.8-4.9,3.8-6.8,6.1c-1.9,2.3-3.3,4.9-3.7,7.6c-0.3,2.7,0.5,5.4,2.1,7.7
	c1.6,2.4,3.8,4.4,6.2,6.2c4.8,3.6,10.4,6.4,16.1,8.8s11.7,4.4,17.7,6.1c12,3.5,24.3,6.2,36.7,8.5c6.2,1.1,12.4,2.1,18.7,3
	c6.2,0.9,12.5,1.8,18.8,2.5c12.5,1.5,25.1,2.7,37.7,3.6c12.6,0.9,25.2,1.6,37.8,2.1c12.6,0.5,25.3,0.7,37.9,0.8
	c25.3,0.2,50.5-0.6,75.8-2.2c25.2-1.6,50.4-4.2,75.2-8.2c12.4-2,24.8-4.5,37-7.7c6.1-1.6,12.1-3.3,18-5.4s11.7-4.5,17.1-7.4
	c2.7-1.5,5.3-3.1,7.7-5c2.3-1.9,4.5-4,5.8-6.5c1.4-2.5,1.9-5.2,1.3-8c-0.6-2.7-2.3-5.3-4.3-7.5c-2.1-2.2-4.5-4.2-7-6
	c-2.6-1.8-5.3-3.4-8.1-4.8C460.3,52.4,454.5,50,448.6,47.7z"/>
<path class="st0" d="M195.6,74.2c-0.8,0.1-1.4,0.2-1.8,0.2c-0.6,0-0.9-0.1-1-0.2c-0.2-0.1-0.3-0.2-0.3-0.3c0,0-0.1-0.4-0.1-2V57.3
	h4.6v-4.4h-4.6V42.6l-6.9,4.2V53h-3.3v4.4h3.3v14.3c0,3.9,0.4,5.2,0.7,5.9c0.5,1.1,1.3,2,2.4,2.6c1.1,0.6,2.6,0.9,4.4,0.9
	c1.1,0,2.3-0.1,3.7-0.4l1.1-0.2l-1-6.3L195.6,74.2z"/>
<path class="st0" d="M400.3,74.2c-0.8,0.1-1.4,0.2-1.8,0.2c-0.6,0-0.9-0.1-1-0.2c-0.2-0.1-0.3-0.2-0.3-0.3c0,0-0.1-0.4-0.1-2V57.3
	h4.6v-4.4H397V42.6l-6.9,4.2V53h-3.3v4.4h3.3v14.3c0,3.9,0.4,5.2,0.7,5.9c0.5,1.1,1.3,2,2.4,2.6c1.1,0.6,2.6,0.9,4.4,0.9
	c1.1,0,2.3-0.1,3.7-0.4l1.1-0.2l-1-6.3L400.3,74.2z"/>
<path class="st0" d="M225.6,76c-0.1-0.7-0.3-2.7-0.3-7.9v-6c0-2.1-0.1-3.6-0.3-4.5c-0.3-1.4-0.9-2.6-1.7-3.6c-0.8-1-2-1.8-3.7-2.4
	c-1.6-0.6-3.6-0.9-6-0.9s-4.6,0.3-6.5,1c-2,0.7-3.5,1.7-4.6,3.1c-1,1.3-1.8,3-2.2,5.1l-0.3,1.2l6.8,0.9l0.3-1c0.4-1.6,1-2.8,1.8-3.3
	c0.8-0.6,2.2-0.9,4.1-0.9c2,0,3.5,0.4,4.4,1.3c0.6,0.5,0.9,1.5,0.9,3c0,0.1,0,0.2,0,0.3c-1.7,0.5-4.1,0.9-7.1,1.3
	c-1.9,0.2-3.3,0.5-4.2,0.7c-1.3,0.4-2.6,0.9-3.6,1.7c-1.1,0.8-2,1.8-2.7,3c-0.7,1.3-1,2.7-1,4.2c0,2.6,0.9,4.7,2.8,6.4
	c1.8,1.6,4.4,2.5,7.6,2.5c1.9,0,3.8-0.3,5.4-1c1.2-0.5,2.4-1.1,3.7-2c0.2,0.6,0.4,1.2,0.7,1.7l0.3,0.6h7.5l-1-1.7
	C226.1,78,225.7,77,225.6,76z M218.3,67.6L218.3,67.6c0,1.8-0.2,3.2-0.6,4.1c-0.5,1.1-1.4,2-2.5,2.6c-1.2,0.7-2.6,1-4.1,1
	s-2.6-0.3-3.3-0.9s-1-1.3-1-2.2c0-0.6,0.1-1.1,0.4-1.5c0.3-0.5,0.7-0.8,1.3-1c0.5-0.2,1.5-0.5,3.7-0.8
	C214.7,68.5,216.7,68.1,218.3,67.6z"/>
<rect x="231.7" y="41.1" class="st0" width="6.9" height="39.5"/>
<rect x="245" y="51.3" class="st0" width="8.3" height="29.3"/>
<rect x="245" y="41.1" class="st0" width="8.3" height="7.6"/>
<path class="st0" d="M282,76c-0.1-0.7-0.3-2.7-0.3-7.9v-6c0-2.1-0.1-3.6-0.3-4.5c-0.3-1.4-0.9-2.6-1.7-3.6c-0.8-1-2-1.8-3.7-2.4
	c-1.6-0.6-3.6-0.9-6-0.9c-2.4,0-4.6,0.3-6.5,1c-2,0.7-3.5,1.7-4.6,3.1c-1,1.3-1.8,3-2.2,5.1l-0.3,1.2l6.8,0.9l0.3-1
	c0.4-1.6,1-2.8,1.8-3.3c0.8-0.6,2.2-0.9,4.1-0.9c2,0,3.5,0.4,4.4,1.3c0.6,0.5,0.9,1.5,0.9,3c0,0.1,0,0.2,0,0.3
	c-1.7,0.5-4.1,0.9-7.1,1.3c-1.9,0.2-3.3,0.5-4.2,0.7c-1.3,0.4-2.6,0.9-3.6,1.7c-1.1,0.8-2,1.8-2.7,3c-0.7,1.3-1,2.7-1,4.2
	c0,2.6,0.9,4.7,2.8,6.4c1.8,1.6,4.4,2.5,7.6,2.5c1.9,0,3.8-0.3,5.5-1c1.2-0.4,2.4-1.1,3.7-2c0.2,0.6,0.4,1.2,0.7,1.7l0.3,0.6h7.5
	l-1-1.7C282.5,78,282.1,77,282,76z M274.7,67.6L274.7,67.6c0,1.8-0.2,3.2-0.6,4.1c-0.5,1.1-1.4,2-2.5,2.6c-1.2,0.7-2.6,1-4.1,1
	s-2.6-0.3-3.3-0.9c-0.7-0.6-1-1.3-1-2.2c0-0.6,0.1-1.1,0.4-1.5c0.3-0.5,0.7-0.8,1.3-1c0.5-0.2,1.5-0.5,3.7-0.8
	C271.1,68.5,273.1,68.1,274.7,67.6z"/>
<path class="st0" d="M307.7,52.7c-1.9-1.3-4.2-2-6.7-2c-2,0-3.7,0.4-5.1,1.2c-0.5,0.3-1.1,0.7-1.6,1.1v-1.7h-6.5v39.6h6.9V79.3
	c0.4,0.3,0.8,0.5,1.3,0.8c1.4,0.7,2.9,1.1,4.6,1.1c2.3,0,4.5-0.7,6.6-1.9c2.1-1.3,3.7-3.2,4.8-5.6s1.6-5,1.6-7.9
	c0-2.7-0.5-5.2-1.4-7.5C311.2,55.9,309.7,54,307.7,52.7z M306.6,65.7c0,3.3-0.6,5.7-1.9,7.2c-1.2,1.5-2.6,2.2-4.3,2.2
	c-1.6,0-3-0.7-4.2-2.1c-1.2-1.4-1.8-3.8-1.8-6.9c0-3.2,0.7-5.6,2-7.2c1.3-1.5,2.7-2.3,4.3-2.3c1.6,0,3,0.7,4.2,2.1
	C305.9,60.3,306.6,62.6,306.6,65.7z"/>
<rect x="318.7" y="41.1" class="st0" width="6.9" height="39.5"/>
<path class="st0" d="M356.6,76c-0.1-0.7-0.3-2.7-0.3-7.9v-6c0-2.1-0.1-3.6-0.3-4.5c-0.3-1.4-0.9-2.6-1.7-3.6c-0.8-1-2-1.8-3.7-2.4
	c-1.6-0.6-3.6-0.9-6-0.9s-4.6,0.3-6.5,1c-2,0.7-3.5,1.7-4.6,3.1c-1,1.3-1.8,3-2.2,5.1l-0.3,1.2l7,1l0.3-1c0.4-1.6,1-2.8,1.8-3.3
	c0.8-0.6,2.2-0.9,4.1-0.9c2,0,3.5,0.4,4.4,1.3c0.6,0.5,0.9,1.5,0.9,3c0,0.1,0,0.2,0,0.3c-1.7,0.5-4.1,0.9-7.1,1.3
	c-1.9,0.2-3.3,0.5-4.2,0.7c-1.3,0.4-2.6,0.9-3.6,1.7c-1.1,0.8-2,1.8-2.7,3c-0.7,1.3-1,2.7-1,4.2c0,2.6,0.9,4.7,2.8,6.4
	c1.8,1.6,4.4,2.5,7.6,2.5c1.9,0,3.8-0.3,5.4-1c1.2-0.5,2.4-1.1,3.7-2c0.2,0.6,0.4,1.2,0.7,1.7l0.3,0.7h7.5l-1-1.7
	C357.1,78,356.8,77,356.6,76z M349.4,67.6L349.4,67.6c0,1.8-0.2,3.2-0.6,4.1c-0.5,1.1-1.4,2-2.5,2.6c-1.2,0.7-2.6,1-4.1,1
	s-2.6-0.3-3.3-0.9c-0.7-0.6-1-1.3-1-2.2c0-0.6,0.1-1.1,0.4-1.5c0.3-0.5,0.7-0.8,1.3-1c0.5-0.2,1.5-0.5,3.7-0.8
	C345.8,68.5,347.8,68.1,349.4,67.6z"/>
<path class="st0" d="M378.4,64.1c-1.3-0.6-3.6-1.3-6.9-2.2c-2.7-0.7-3.6-1-3.9-1.1c-0.6-0.2-1-0.5-1.3-0.9c-0.2-0.3-0.3-0.5-0.3-0.9
	s0.1-0.9,0.9-1.5c0.5-0.4,1.5-0.8,3.8-0.8c1.5,0,2.6,0.3,3.4,0.9c0.7,0.6,1.2,1.4,1.3,2.5l0.2,1.2l6.8-0.9l-0.2-1.2
	c-0.3-1.9-0.9-3.5-1.8-4.7s-2.3-2.2-4.1-2.9c-1.7-0.7-3.7-1-6-1c-1.5,0-3,0.2-4.3,0.6c-1.4,0.4-2.4,0.9-3.3,1.5
	c-1.1,0.8-2,1.8-2.6,2.9c-0.6,1.2-1,2.5-1,3.9c0,1.5,0.4,3,1.2,4.2c0.8,1.3,1.9,2.3,3.4,3c1.4,0.7,3.7,1.4,7.2,2.3
	c3.2,0.8,4.1,1.2,4.3,1.4c0.6,0.4,0.8,0.8,0.8,1.5c0,0.8-0.4,1.5-1.1,2.1c-0.8,0.7-2.1,1-3.9,1s-3.2-0.4-4.1-1.2
	c-0.9-0.8-1.5-1.9-1.7-3.4l-0.2-1.2l-6.9,1.1l0.2,1.2c0.6,3.1,1.9,5.6,3.9,7.2s5,2.4,8.7,2.4c2.3,0,4.3-0.4,6.2-1.2
	c1.9-0.8,3.3-2,4.4-3.5c1-1.5,1.5-3.2,1.5-4.9c0-1.8-0.4-3.3-1.3-4.6C381,65.7,379.9,64.8,378.4,64.1z"/>
<path class="st0" d="M410.2,75.7c-0.2-0.3-0.3-0.5-0.5-0.7c0.3-0.1,0.5-0.2,0.6-0.4c0.3-0.3,0.4-0.7,0.4-1.1c0-0.3-0.1-0.6-0.2-0.9
	c-0.2-0.3-0.4-0.5-0.7-0.6c-0.3-0.1-0.6-0.2-1.1-0.2h-2.5v5.6h1.2v-2.2h0.5c0.2,0,0.3,0,0.3,0c0.1,0,0.1,0.1,0.2,0.1
	s0.1,0.1,0.3,0.3c0.1,0.2,0.3,0.4,0.5,0.7l0.7,1.2h1.5L410.2,75.7z M409.5,73.5c0,0.1,0,0.2-0.1,0.3c-0.1,0.1-0.1,0.2-0.3,0.2
	c-0.1,0.1-0.4,0.1-0.6,0.1h-1.2V73h1.3c0.3,0,0.5,0.1,0.6,0.2C409.4,73.2,409.5,73.3,409.5,73.5z"/>
<path class="st0" d="M408.3,79.1c-2.4,0-4.4-2-4.4-4.4s2-4.4,4.4-4.4c2.4,0,4.4,2,4.4,4.4S410.7,79.1,408.3,79.1z M408.3,71
	c-2,0-3.7,1.6-3.7,3.7c0,2,1.6,3.7,3.7,3.7c2.1,0,3.7-1.6,3.7-3.7C411.9,72.7,410.3,71,408.3,71z"/>
</svg>
