<?xml version="1.0" encoding="utf-8"?>
<!-- Generator: Adobe Illustrator 19.1.0, SVG Export Plug-In . SVG Version: 6.00 Build 0)  -->
<svg version="1.1" id="Calque_1" xmlns="http://www.w3.org/2000/svg" xmlns:xlink="http://www.w3.org/1999/xlink" x="0px" y="0px"
	 viewBox="-345 170.9 500 500" style="enable-background:new -345 170.9 500 500;" xml:space="preserve">
<style type="text/css">
	.st0{fill:#0D0802;}
</style>
<polygon class="st0" points="-91.9,516.7 -92.5,516.9 -93.1,516.7 -93.1,517.1 -327.1,590.6 -327.1,611.8 -92.5,538.1 142.1,611.8 
	142.1,590.6 -91.9,517.1 "/>
<polygon class="st0" points="-91.9,496.3 -92.5,496.5 -93.1,496.3 -93.1,496.7 -327.1,570.2 -327.1,580 -92.5,506.4 142.1,580 
	142.1,570.2 -91.9,496.7 "/>
<path class="st0" d="M-29.6,388.6c-4,0-7.3,8.7-7.3,19.4c0,10.7,3.3,19.4,7.3,19.4c2.5,0,4.7-3.4,6-8.6v-21.6
	C-24.8,392.1-27.1,388.6-29.6,388.6z"/>
<path class="st0" d="M-203.1,388.6c-4.1,0-7.4,8.7-7.4,19.4c0,10.7,3.3,19.4,7.4,19.4c2.5,0,4.8-3.4,6.1-8.6v-21.6
	C-198.3,392.1-200.6,388.6-203.1,388.6z"/>
<path class="st0" d="M-91.9,233.6v-0.4l-0.6,0.2l-0.6-0.2v0.4l-234,73.5v256.3l234.6-73.7l234.6,73.7V307.1L-91.9,233.6z
	 M-255.4,453.5h-31.4v-97.6h-18.2v-31.4h67.7v31.4h-18.2V453.5z M-166.9,453.1H-197v-9.5c-4.9,7.1-11.2,11.4-18.1,11.4
	c-15.3,0-27.8-21-27.8-46.9c0-25.9,12.4-46.9,27.8-46.9c6.9,0,13.3,4.3,18.1,11.4v-9.2h30.2L-166.9,453.1L-166.9,453.1z
	 M-79.3,453.5h-29.9V405h0c0,0,0,0,0,0v-2.6c-0.2-3.1-1.2-8-5.7-8c-4.6,0-5.8,6.7-6,10.7v48.4h-29.9v-90.2h29.9v13.9
	c5-9.8,12.4-16.1,20.7-16.1c21.6,0,20.8,28.3,20.8,32h0.1V453.5z M6.3,453.5L6.3,453.5c-0.1,4.9,3.2,41.8-36.5,41.8
	c-37.5,0-36.7-32.9-36.7-32.9h31.1c0,0,0.2,7.4,5.8,7.4c5.5,0,6.4-5.7,6.4-16.7c0,0,0.1,0,0.2,0v-9.5c-4.8,7.1-11.1,11.4-17.9,11.4
	c-15.2,0-27.5-21-27.5-46.9s12.3-46.9,27.5-46.9c6.9,0,13.1,4.3,17.9,11.4v-9.2H6.3L6.3,453.5L6.3,453.5z M52.5,453.5H22.6v-90.2
	h29.9V453.5z M37.9,354.7c-9.8,0-17.7-8.9-17.7-19.9c0-11,7.9-19.9,17.7-19.9c9.8,0,17.7,8.9,17.7,19.9
	C55.6,345.8,47.7,354.7,37.9,354.7z M115.6,389.8h-9.9v63.7H75.9v-63.7H67v-26.5h8.9v-26.5h29.9v26.5h9.9L115.6,389.8L115.6,389.8z"
	/>
</svg>
