<?xml version="1.0" encoding="utf-8"?>
<!-- Generator: Adobe Illustrator 21.0.2, SVG Export Plug-In . SVG Version: 6.00 Build 0)  -->
<svg version="1.1" id="Calque_1" xmlns="http://www.w3.org/2000/svg" xmlns:xlink="http://www.w3.org/1999/xlink" x="0px" y="0px"
	 viewBox="0 0 500 188" style="enable-background:new 0 0 500 188;" xml:space="preserve">
<style type="text/css">
	.st0{fill:#0E2E89;}
	.st1{fill:#FF0000;}
</style>
<polygon class="st0" points="163.4,51.8 163.4,67.1 163.4,89.8 163.4,105.1 163.4,127.8 163.4,143.1 178.7,143.1 218.7,143.1 
	218.7,127.8 178.7,127.8 178.7,105.1 215.7,105.1 215.7,89.8 178.7,89.8 178.7,67.1 218.7,67.1 218.7,51.8 178.7,51.8 "/>
<polygon class="st0" points="370.2,67.1 370.2,51.8 330.2,51.8 314.9,51.8 314.9,67.1 314.9,89.8 314.9,105.1 314.9,127.8 
	314.9,143.1 330.2,143.1 370.2,143.1 370.2,127.8 330.2,127.8 330.2,105.1 367.2,105.1 367.2,89.8 330.2,89.8 330.2,67.1 "/>
<polygon class="st0" points="110.9,51.8 82.4,51.8 82.4,67.1 110.9,67.1 110.9,143.1 126.2,143.1 126.2,67.1 155.2,67.1 155.2,51.8 
	126.2,51.8 "/>
<path class="st0" d="M271.2,61.8c9.7,0,18.4,4.1,24.6,10.8l9.9-9.9c-8.7-9.1-20.9-14.9-34.5-14.9c-26.2,0-47.5,21.3-47.5,47.5
	s21.3,47.5,47.5,47.5c13.2,0,25.2-5.4,33.8-14.2l-9.9-9.9c-6.1,6.2-14.6,10.1-23.9,10.1c-18.5,0-33.5-15-33.5-33.5
	S252.7,61.8,271.2,61.8z"/>
<rect x="391.5" y="64.4" class="st1" width="25" height="25"/>
<rect x="391.5" y="104.6" class="st0" width="25" height="25"/>
</svg>
