<?xml version="1.0" encoding="utf-8"?>
<!-- Generator: Adobe Illustrator 21.0.2, SVG Export Plug-In . SVG Version: 6.00 Build 0)  -->
<svg version="1.1" id="Calque_1" xmlns="http://www.w3.org/2000/svg" xmlns:xlink="http://www.w3.org/1999/xlink" x="0px" y="0px"
	 viewBox="0 0 500 146" style="enable-background:new 0 0 500 146;" xml:space="preserve">
<style type="text/css">
	.st0{fill:#0052A1;}
	.st1{fill:#FFD71F;}
</style>
<path class="st0" d="M462.8,50.2c-2.5-3-7.4-6.7-16.6-6.7h-31.3c-5.9,0-11.1,2.1-14.9,6c-2.9-3-6.8-4.9-11.1-5.4l0.5-2.5
	c1.2-5.8-0.1-11.6-3.6-16c-3.5-4.3-8.9-6.8-14.7-6.8c-10.7,0-20.8,8.2-23,18.7l-1.4,6.4c-3.2,0-6.3,0.8-9.2,2.1
	c-0.5-3-1.7-5.8-3.6-8.1c-3.4-4.3-8.7-6.7-14.6-6.7c-9.4,0-18.1,6.1-21.5,14.7c-1.9-0.9-4-1.6-6.2-1.9l0.5-2.5
	c1.2-5.8-0.1-11.6-3.6-16c-3.5-4.3-8.9-6.8-14.7-6.8c-10.7,0-20.8,8.2-23,18.7l-1.4,6.4c-4.2,0-8.3,1.4-11.9,3.6
	c-3.1-3.2-7.4-5-11.9-5h-35.5c-0.1,0-0.3,0-0.4,0c-0.1,0-0.3,0-0.4,0c-6.8,0-13.3,3.3-17.8,8.5c-0.2-0.3-0.4-0.5-0.6-0.8
	c-2.5-3-7.4-6.7-16.6-6.7H123c-2,0-3.9,0.3-5.7,0.7c-0.7-2.3-1.8-4.4-3.3-6.3c-3.5-4.3-8.8-6.7-14.6-6.7H36.1
	c-10.6,0-20.7,8.3-22.9,18.9C12,56,13.3,61.9,16.8,66.3c3.5,4.3,8.8,6.7,14.6,6.7h8.5l-6.5,30.6c-1.2,5.8,0.1,11.6,3.6,16
	c3.5,4.3,8.9,6.8,14.7,6.8c10.7,0,20.8-8.2,23-18.7L82,73.1h12.6c1.5,0,3-0.2,4.5-0.5l-6.6,31.1c-0.9,4.4-0.4,8.7,1.4,12.5
	c2.7,6.4,8.6,10.3,15.4,10.3h35.5c5.7,0,11.2-2.8,15.2-7.2c0.1,0.2,0.2,0.3,0.3,0.5c3,4.1,7.5,6.6,12.7,7.2c1.1,0.2,2.1,0.3,3.2,0.3
	h35.5c9.8,0,18.9-8.1,21.2-18.9c1.3-6.3,0-12.4-3.5-16.8c-3.1-3.9-7.8-6.1-12.9-6.1h-13.2l0.2-1.1h17.3c4.2,0,8.2-1.5,11.6-4
	c2.3,1.8,5.1,2.9,8.2,3.5l-4,19.8c-1.2,5.8,0.1,11.6,3.6,16c3.5,4.3,8.9,6.8,14.7,6.8c10.7,0,20.8-8.2,23-18.8l4.7-23.4h1.6
	c1.6,0,3.2-0.2,4.8-0.4l-4.2,19.9c-1.2,5.8,0.1,11.6,3.6,16c3.5,4.3,8.9,6.8,14.7,6.8c10.7,0,20.8-8.2,23-18.7l5.5-25.9
	c1.8,1,3.9,1.7,6.1,2.1l-4,19.8c-1.2,5.8,0.1,11.6,3.6,16c3.5,4.3,8.9,6.8,14.7,6.8c10.7,0,20.8-8.2,23-18.8l4.7-23.4h1.6
	c2.5,0,4.9-0.4,7.1-1l-4.3,20.5c-0.9,4.4-0.4,8.7,1.4,12.5c2.7,6.4,8.6,10.3,15.4,10.3h35.5c9.8,0,18.9-8.1,21.2-18.9
	c1.1-5,0.5-9.9-1.6-13.9c3.4-2.6,5.3-6,6-9.3l3.9-18.4V66C467.7,58,465.2,53,462.8,50.2z"/>
<path class="st1" d="M221.1,74.6c5.1,0,10.3-5,11.7-11.2c1.3-6.2-1.8-11.2-6.9-11.2h-35.5c-0.1,0-0.3,0-0.4,0c-0.2,0-0.3,0-0.5,0
	c-6.2,0-12.2,5-13.5,11.2l-9.1,42.7c-1.2,5.9,2.3,10.7,7.9,11.1c0.5,0.1,1.1,0.2,1.7,0.2H212c5.1,0,10.3-5,11.7-11.2
	c1.3-6.2-1.8-11.2-6.9-11.2h-25.2l4.4-20.6h25.1V74.6z"/>
<path class="st1" d="M313.7,68.3c-6.2,0-12.2,4.9-13.5,11l-5.6,26.3c-1.3,6.1,2.7,11,8.8,11c6.2,0,12.2-4.9,13.5-11l5.6-26.3
	C323.8,73.2,319.9,68.3,313.7,68.3z"/>
<path class="st1" d="M319.4,41c-5.9,0-11.7,4.6-12.9,10.2l-0.3,1.4c-1.2,5.6,2.5,10.2,8.5,10.2s11.7-4.6,12.9-10.2l0.3-1.4
	C329.1,45.6,325.3,41,319.4,41z"/>
<path class="st1" d="M289.3,53.7h-9.5l3-14.1c1.3-6.1-2.7-11-8.8-11s-12.2,4.9-13.5,11l-3,14.1h-7.8c-6.1,0-12.1,5-13.4,11.2
	c-1.3,6.2,2.6,9.6,8.7,9.6h7.8l-6.3,31.2c-1.3,6.1,2.7,11,8.8,11c6.2,0,12.2-4.9,13.5-11l6.2-31.3h9.5c6.1,0,12.1-3.4,13.4-9.6
	C299.3,58.7,295.4,53.7,289.3,53.7z"/>
<path class="st1" d="M386.5,53.7H377l3-14.1c1.3-6.1-2.7-11-8.8-11c-6.1,0-12.2,4.9-13.5,11l-3,14.1h-7.9c-6.1,0-12.1,5-13.4,11.2
	c-1.3,6.2,2.6,9.6,8.7,9.6h7.8l-6.3,31.2c-1.3,6.1,2.7,11,8.8,11s12.2-4.9,13.5-11l6.3-31.2h9.5c6.1,0,12.1-3.4,13.4-9.6
	C396.4,58.7,392.6,53.7,386.5,53.7z"/>
<path class="st1" d="M99.6,41H36.3c-6.1,0-12.1,5-13.4,11.2s2.6,11.2,8.7,11.2h20.5v0.1l-9,42.2c-1.3,6.1,2.7,11,8.8,11
	c6.2,0,12.2-4.9,13.5-11l9-42.2v-0.1h20.5c6.1,0,12.1-5,13.4-11.2S105.7,41,99.6,41z"/>
<path class="st1" d="M154.5,53.3h-31.3c-3.3,0-6.6,1.1-8.9,4.2c-1.5,1.7-2.6,3.8-3,6l-9,42.2c-0.5,2.4-0.2,4.6,0.7,6.4
	c1.1,2.8,3.4,4.6,6.5,4.6H145c5.1,0,10.3-5,11.7-11.2c1.3-6.2-1.8-11.2-6.9-11.2H127l1.3-5.9c0,0,20.2-0.1,21.2-0.1
	c6.8,0,10.9-2.5,11.6-6l3.9-18.4C166.6,54.7,159.3,53.3,154.5,53.3z M131.6,71.8h13.7l-1.6,8.4H130L131.6,71.8z"/>
<path class="st1" d="M446.2,53.3h-31.3c-3.3,0-6.6,1.1-8.9,4.2c-1.5,1.7-2.6,3.8-3,6l-9,42.2c-0.5,2.4-0.2,4.6,0.7,6.4
	c1.1,2.8,3.4,4.6,6.5,4.6h35.5c5.1,0,10.3-5,11.7-11.2c1.3-6.2-1.8-11.2-6.9-11.2h-22.8l1.3-5.9c0,0,20.2-0.1,21.2-0.1
	c6.8,0,10.9-2.5,11.6-6l3.9-18.4C458.4,54.7,451.1,53.3,446.2,53.3z M423.3,71.8H437l-1.6,8.4h-13.7L423.3,71.8z"/>
<path class="st0" d="M475.4,59.5v-9.7h4.3c0.9,0,1.5,0.1,2,0.3c0.5,0.2,0.8,0.5,1.1,0.9c0.3,0.4,0.4,0.9,0.4,1.5
	c0,0.7-0.2,1.3-0.7,1.7c-0.4,0.5-1.1,0.8-2.1,0.9c0.3,0.2,0.6,0.3,0.8,0.5c0.4,0.3,0.7,0.8,1.1,1.3l1.7,2.6h-1.6l-1.3-2
	c-0.4-0.6-0.7-1-0.9-1.3c-0.2-0.3-0.5-0.5-0.6-0.6c-0.2-0.1-0.4-0.2-0.6-0.3c-0.1,0-0.4,0-0.7,0h-1.5v4.3L475.4,59.5L475.4,59.5z
	 M476.7,54.1h2.8c0.6,0,1-0.1,1.4-0.2c0.3-0.1,0.6-0.3,0.8-0.6c0.2-0.3,0.3-0.6,0.3-0.9c0-0.5-0.2-0.8-0.5-1.1
	c-0.3-0.3-0.9-0.4-1.6-0.4h-3.1L476.7,54.1L476.7,54.1z"/>
<path class="st0" d="M479.4,64.2c-5.6,0-10.1-4.6-10.1-10.1c0-5.6,4.6-10.1,10.1-10.1s10.1,4.6,10.1,10.1
	C489.6,59.7,485,64.2,479.4,64.2z M479.4,46.5c-4.2,0-7.6,3.4-7.6,7.6s3.4,7.6,7.6,7.6s7.6-3.4,7.6-7.6S483.6,46.5,479.4,46.5z"/>
</svg>
