<?xml version="1.0" encoding="utf-8"?>
<!-- Generator: Adobe Illustrator 19.1.0, SVG Export Plug-In . SVG Version: 6.00 Build 0)  -->
<svg version="1.1" id="Calque_1" xmlns="http://www.w3.org/2000/svg" xmlns:xlink="http://www.w3.org/1999/xlink" x="0px" y="0px"
	 viewBox="-345 170.9 500 500" style="enable-background:new -345 170.9 500 500;" xml:space="preserve">
<style type="text/css">
	.st0{fill:#87008E;}
	.st1{fill:#BABABA;}
</style>
<polygon class="st0" points="-237.9,384.5 -234.2,365.7 -322,365.7 -325.7,384.5 -294,384.5 -304,440.7 -280.6,440.7 -270.6,384.5 
	"/>
<path class="st0" d="M-103.7,419.2C-103.7,419.2-103.7,419.3-103.7,419.2L-103.7,419.2L-103.7,419.2z"/>
<path class="st0" d="M-121.3,387.9h-29.1c-11.5,0-21.2,9.2-23,21.5l-1.4,9.4c-1.8,12.3,5,22.3,16.5,22.3h30.6c11.4,0,22-9.7,24-21.8
	H-123c-1.8,4.1-5.8,7.1-10,7.1h-13.9c-5.2,0-8.8-4.5-8-10.1l0.6-4.2c0.8-5.6,5.7-10.1,10.9-10.1h16.2c4.4,0,5.3,3.2,5.8,7.6l19.2,0
	C-100.4,397.1-101,387.9-121.3,387.9z"/>
<path class="st0" d="M-198.8,387.9h-26.8c-11.5,0-21.2,9.2-23,21.5l-1.4,9.4c-1.8,12.3,5,22.3,16.5,22.3h25.5
	c11.4,0,24.8-5.4,26.8-17.6l-19.8,0.1c-1.9,4.8-6.1,5.2-10.3,5.2h-10.8c-8.9,0-9.7-4.1-8.1-10.1h49.7l0.9-11.2
	C-178,396.2-179.6,387.9-198.8,387.9z M-198.8,406.8h-27.7c2-6.3,4-7.4,7.9-7.4h13.9C-199.4,399.4-198.3,402.6-198.8,406.8z"/>
<path class="st0" d="M120.3,387.9H93.5c-11.5,0-21.2,9.2-23,21.5l-1.4,9.4c-1.8,12.3,5,22.3,16.5,22.3h25.5
	c11.4,0,24.8-5.4,26.8-17.6l-19.8,0.1c-1.9,4.8-6.1,5.2-10.3,5.2H97c-8.9,0-9.7-4.1-8.1-10.1h49.7l0.9-11.2
	C141,396.2,139.5,387.9,120.3,387.9z M120.3,406.8H92.6c2-6.3,4-7.4,7.9-7.4h13.9C119.7,399.4,120.8,402.6,120.3,406.8z"/>
<path class="st0" d="M-63.2,375.3h-19.5l-2.3,12.4h-10.5l-2.7,14.6h10.6l-3.8,21.7c0,0-4.2,17,17.4,17.3c8.1,0.1,11.5,0,12.9,0
	c0,0,23.3,0.6,23.8-24h-17.6c0,0,0.4,9.7-7.5,9.7c-2.7,0-5.6,0-5.6,0s-3.7,0.4-3.8-4.4l3.7-20.3h31.7l3.3-14.6h-32.3L-63.2,375.3z"
	/>
<path class="st0" d="M37.4,375.3H17.9l-2.3,12.4H5.2l-2.7,14.6H13l-3.8,21.7c0,0-4.2,17,17.4,17.3c8.1,0.1,11.5,0,12.9,0
	c0,0,23.3,0.6,23.8-24H45.6c0,0,0.4,9.7-7.5,9.7c-2.7,0-5.6,0-5.6,0s-3.7,0.4-3.8-4.4l3.7-20.3h31.7l3.3-14.6H35.1L37.4,375.3z"/>
<polygon class="st0" points="-31.5,440.7 -12,440.7 -1.7,387.9 -21.2,387.9 "/>
<polygon class="st0" points="-16.8,365.6 -19.8,380.6 -0.3,380.6 2.7,365.6 "/>
<path class="st1" d="M-305.1,459.5c0,0-10,12.9-10.1,13.1c0-0.1-3.6-13.1-3.6-13.1h-7.3l-4.5,18.7h5.7l2.6-10.9l3.1,10.9h4.9
	l8.3-10.7l-2.6,10.7h5.7l4.5-18.7H-305.1z"/>
<polygon class="st1" points="-289.3,470.4 -274.5,470.4 -273.6,466.8 -288.4,466.8 -287.5,463.1 -271.7,463.1 -270.9,459.5 
	-292.5,459.5 -297,478.3 -274.8,478.3 -273.9,474.7 -290.3,474.7 "/>
<polygon class="st1" points="-246.7,459.5 -270.2,459.5 -271,463.1 -262.2,463.1 -265.9,478.3 -260,478.3 -256.4,463.1 
	-247.5,463.1 "/>
<path class="st1" d="M-217.5,459.5h-5.9l-4.4,18.4l-7.3-18.4h-5.4l-15.6,18.7h6.3l4.2-5.2h9.5l1.9,5.2h6.3h0.2h18.8l0.8-3.5h-13.1
	L-217.5,459.5z M-243,469.7l3.3-4c0.2-0.3,0.5-0.6,0.7-0.9c0.1,0.4,0.2,0.8,0.4,1.2l1.3,3.8H-243z"/>
<path class="st1" d="M-170.6,460.6c-0.9-0.5-2.1-0.8-3.5-0.9c-1-0.1-2.4-0.2-4.2-0.2h-11.2l-4.5,18.7h5.9l1.7-7h5.7
	c4.2,0,7.1-0.6,9.1-1.8c1.9-1.2,3.1-2.6,3.5-4.2c0.2-1,0.1-1.9-0.3-2.7C-169,461.8-169.7,461.1-170.6,460.6z M-175.8,467.1
	c-0.8,0.4-2.3,0.6-4.2,0.6h-5.7l1.1-4.7h5.7c2,0,2.7,0.1,3,0.1c0.6,0.1,1.1,0.4,1.4,0.7c0.3,0.4,0.4,0.9,0.3,1.4
	C-174.5,466.1-175,466.7-175.8,467.1z"/>
<path class="st1" d="M-150.8,470.2c-0.6,2.4-1.6,3.4-2.3,3.9c-1,0.6-2.7,0.9-4.9,0.9c-1.3,0-2.4-0.2-3.2-0.5
	c-0.7-0.3-1.2-0.7-1.4-1.3c-0.2-0.6-0.2-1.6,0.2-3l2.6-10.7h-5.9l-2.6,10.7c-0.5,1.9-0.5,3.5,0,4.6c0.5,1.2,1.6,2.1,3.3,2.8
	c1.6,0.6,3.8,0.9,6.5,0.9c2.8,0,5.2-0.4,7.1-1.1c2-0.7,3.5-1.7,4.4-2.9c0.9-1.1,1.6-2.6,2-4.4l2.6-10.7h-5.9L-150.8,470.2z"/>
<path class="st1" d="M-123.2,467.8c-1.1-0.3-3-0.7-5.9-1.1c-3.5-0.5-4.3-0.9-4.6-1.1c-0.4-0.3-0.5-0.6-0.4-1
	c0.1-0.5,0.5-0.9,1.3-1.2c0.8-0.4,2.3-0.6,4.1-0.6c1.8,0,3,0.2,3.8,0.7c0.7,0.4,1,1.1,1,2l-0.1,0.7l5.7-0.3l0.1-0.7
	c0.2-1.1-0.1-2.2-0.8-3.1c-0.7-0.9-1.9-1.6-3.5-2.1c-1.5-0.4-3.4-0.7-5.5-0.7c-1.9,0-3.8,0.2-5.5,0.6c-1.8,0.4-3.3,1.1-4.4,2
	c-1.1,0.9-1.8,1.8-2,2.9c-0.2,0.9-0.1,1.8,0.5,2.5c0.6,0.7,1.5,1.4,2.8,1.9c1,0.4,2.7,0.7,5.2,1.1c2.9,0.5,4,0.7,4.4,0.8
	c0.9,0.2,1.4,0.5,1.7,0.8c0.3,0.3,0.3,0.6,0.3,1c-0.1,0.4-0.3,0.7-0.8,1c-0.4,0.3-1.1,0.6-2,0.8c-0.9,0.2-2,0.3-3.2,0.3
	c-1.4,0-2.5-0.1-3.5-0.4c-0.9-0.3-1.6-0.6-1.9-1.1c-0.4-0.4-0.5-1.1-0.5-1.8l0-0.7l-5.6,0.3l-0.1,0.7c-0.3,1.3,0,2.5,0.8,3.5
	c0.8,1,2.1,1.8,3.8,2.3c1.7,0.5,3.8,0.7,6.4,0.7c2.1,0,4-0.3,5.8-0.7c1.8-0.5,3.4-1.2,4.5-2.2c1.2-0.9,1.9-1.9,2.1-3
	c0.3-1.1,0-2-0.6-2.9C-120.4,469-121.6,468.3-123.2,467.8z"/>
<polygon class="st1" points="-98.3,466.6 -109.9,466.6 -108.2,459.5 -114,459.5 -118.5,478.3 -112.7,478.3 -110.7,470.1 
	-99.2,470.1 -101.1,478.3 -95.2,478.3 -90.8,459.5 -96.6,459.5 "/>
<polygon class="st1" points="-91,473.1 -82.4,473.1 -81.8,469.5 -90.4,469.5 "/>
<polygon class="st1" points="-80.4,478.3 -74.5,478.3 -72.6,470.4 -60.1,470.4 -59.3,466.9 -71.8,466.9 -70.9,463.1 -56.4,463.1 
	-55.6,459.5 -75.9,459.5 "/>
<polygon class="st1" points="-57.4,478.3 -51.5,478.3 -47.1,459.5 -52.9,459.5 "/>
<polygon class="st1" points="-46.4,463.1 -38.4,463.1 -41.7,478.3 -36.3,478.3 -33,463.1 -24.8,463.1 -24.1,459.5 -45.7,459.5 "/>
<path class="st1" d="M5.1,467.8c-1.1-0.3-3-0.7-5.9-1.1c-3.5-0.5-4.3-0.9-4.6-1.1c-0.4-0.3-0.5-0.6-0.4-1c0.1-0.5,0.5-0.9,1.3-1.2
	c0.8-0.4,2.3-0.6,4.1-0.6c1.8,0,3,0.2,3.8,0.7c0.7,0.4,1,1.1,1,2l-0.1,0.7l5.7-0.3l0.1-0.7c0.2-1.1-0.1-2.2-0.8-3.1
	c-0.7-0.9-1.9-1.6-3.5-2.1c-1.5-0.4-3.4-0.7-5.5-0.7c-1.9,0-3.8,0.2-5.5,0.6c-1.8,0.4-3.3,1.1-4.4,2c-1.1,0.9-1.8,1.8-2,2.9
	c-0.2,0.9-0.1,1.8,0.5,2.5c0.6,0.7,1.5,1.4,2.8,1.9c1,0.4,2.7,0.7,5.2,1.1c2.9,0.5,4,0.7,4.4,0.8c0.9,0.2,1.4,0.5,1.7,0.8
	c0.3,0.3,0.3,0.6,0.3,1c-0.1,0.4-0.3,0.7-0.8,1c-0.4,0.3-1.1,0.6-2,0.8c-0.9,0.2-2,0.3-3.2,0.3c-1.4,0-2.5-0.1-3.5-0.4
	c-0.9-0.3-1.6-0.6-1.9-1.1c-0.4-0.4-0.5-1.1-0.5-1.8l0-0.7l-5.6,0.3l-0.1,0.7c-0.3,1.3,0,2.5,0.8,3.5c0.8,1,2.1,1.8,3.8,2.3
	c1.7,0.5,3.8,0.7,6.4,0.7c2.1,0,4-0.3,5.8-0.7c1.8-0.5,3.4-1.2,4.5-2.2c1.2-0.9,1.9-1.9,2.1-3c0.3-1.1,0-2-0.6-2.9
	C7.9,469,6.8,468.3,5.1,467.8z"/>
<path class="st1" d="M32.5,459.5c0,0-6.5,6.8-7.2,7.4c-0.4-0.6-5.6-7.4-5.6-7.4h-7.1l8.7,10.9l-1.9,7.8h5.9l1.9-7.8l12.3-10.9
	L32.5,459.5L32.5,459.5z"/>
<path class="st1" d="M57.5,467.8c-1.1-0.3-3-0.7-5.9-1.1c-3.5-0.5-4.3-0.9-4.6-1.1c-0.4-0.3-0.5-0.6-0.4-1c0.1-0.5,0.5-0.9,1.3-1.2
	c0.8-0.4,2.3-0.6,4.1-0.6c1.8,0,3,0.2,3.8,0.7c0.7,0.4,1,1.1,1,2l-0.1,0.7l5.7-0.3l0.1-0.7c0.2-1.1-0.1-2.2-0.8-3.1
	c-0.7-0.9-1.9-1.6-3.5-2.1c-1.5-0.4-3.4-0.7-5.5-0.7c-1.9,0-3.8,0.2-5.5,0.6c-1.8,0.4-3.3,1.1-4.4,2c-1.1,0.9-1.8,1.8-2,2.9
	c-0.2,0.9-0.1,1.8,0.5,2.5c0.6,0.7,1.5,1.4,2.8,1.9c1,0.4,2.7,0.7,5.2,1.1c2.9,0.5,4,0.7,4.4,0.8c0.9,0.2,1.4,0.5,1.7,0.8
	c0.3,0.3,0.3,0.6,0.3,1c-0.1,0.4-0.3,0.7-0.8,1c-0.4,0.3-1.1,0.6-2,0.8c-0.9,0.2-2,0.3-3.2,0.3c-1.4,0-2.5-0.1-3.5-0.4
	c-0.9-0.3-1.6-0.6-1.9-1.1c-0.4-0.4-0.5-1.1-0.5-1.8l0-0.7l-5.6,0.3l-0.1,0.7c-0.3,1.3,0,2.5,0.8,3.5c0.8,1,2.1,1.8,3.8,2.3
	c1.7,0.5,3.8,0.7,6.4,0.7c2.1,0,4-0.3,5.8-0.7c1.8-0.5,3.4-1.2,4.5-2.2c1.2-0.9,1.9-1.9,2.1-3c0.3-1.1,0-2-0.6-2.9
	C60.3,469,59.1,468.3,57.5,467.8z"/>
<polygon class="st1" points="63.7,463.1 71.9,463.1 68.5,478.3 73.9,478.3 77.3,463.1 85.5,463.1 86.3,459.5 64.5,459.5 "/>
<polygon class="st1" points="92.4,470.4 106.5,470.4 107.3,466.8 93.2,466.8 94,463.1 109.1,463.1 110,459.5 89.2,459.5 84.9,478.3 
	106.3,478.3 107.1,474.7 91.4,474.7 "/>
<path class="st1" d="M136.3,459.5L126.1,472c-0.2,0.2-0.3,0.4-0.5,0.6c0-0.1-0.1-0.2-0.1-0.4l-3.7-12.7h-7.7l-4.7,18.7h6l2.7-10.9
	l3.3,10.9h5.1l8.7-10.7l-2.7,10.7h6l4.7-18.7H136.3z"/>
</svg>
