<?xml version="1.0" encoding="utf-8"?>
<!-- Generator: Adobe Illustrator 19.1.0, SVG Export Plug-In . SVG Version: 6.00 Build 0)  -->
<svg version="1.1" id="Calque_1" xmlns="http://www.w3.org/2000/svg" xmlns:xlink="http://www.w3.org/1999/xlink" x="0px" y="0px"
	 viewBox="-345 170.9 500 500" style="enable-background:new -345 170.9 500 500;" xml:space="preserve">
<style type="text/css">
	.st0{fill:#0052A1;}
	.st1{fill:#FFD71F;}
</style>
<path class="st0" d="M117.8,388.8c-2.5-3-7.4-6.7-16.6-6.7H69.9c-5.9,0-11.1,2.1-14.9,6c-2.9-3-6.8-4.9-11.1-5.4l0.5-2.5
	c1.2-5.8-0.1-11.6-3.6-16c-3.5-4.3-8.9-6.8-14.7-6.8c-10.7,0-20.8,8.2-23,18.7l-1.4,6.4c-3.2,0-6.3,0.8-9.2,2.1
	c-0.5-3-1.7-5.8-3.6-8.1c-3.4-4.3-8.7-6.7-14.6-6.7c-9.4,0-18.1,6.1-21.5,14.7c-1.9-0.9-4-1.6-6.2-1.9l0.5-2.5
	c1.2-5.8-0.1-11.6-3.6-16c-3.5-4.3-8.9-6.8-14.7-6.8c-10.7,0-20.8,8.2-23,18.7l-1.4,6.4c-4.2,0-8.3,1.4-11.9,3.6
	c-3.1-3.2-7.4-5-11.9-5h-35.5c-0.1,0-0.3,0-0.4,0c-0.1,0-0.3,0-0.4,0c-6.8,0-13.3,3.3-17.8,8.5c-0.2-0.3-0.4-0.5-0.6-0.8
	c-2.5-3-7.4-6.7-16.6-6.7h-31.3c-2,0-3.9,0.3-5.7,0.7c-0.7-2.3-1.8-4.4-3.3-6.3c-3.5-4.3-8.8-6.7-14.6-6.7h-63.3
	c-10.6,0-20.7,8.3-22.9,18.9c-1.2,5.9,0.1,11.8,3.6,16.2c3.5,4.3,8.8,6.7,14.6,6.7h8.5l-6.5,30.6c-1.2,5.8,0.1,11.6,3.6,16
	c3.5,4.3,8.9,6.8,14.7,6.8c10.7,0,20.8-8.2,23-18.7l7.3-34.6h12.6c1.5,0,3-0.2,4.5-0.5l-6.6,31.1c-0.9,4.4-0.4,8.7,1.4,12.5
	c2.7,6.4,8.6,10.3,15.4,10.3h35.5c5.7,0,11.2-2.8,15.2-7.2c0.1,0.2,0.2,0.3,0.3,0.5c3,4.1,7.5,6.6,12.7,7.2c1.1,0.2,2.1,0.3,3.2,0.3
	h35.5c9.8,0,18.9-8.1,21.2-18.9c1.3-6.3,0-12.4-3.5-16.8c-3.1-3.9-7.8-6.1-12.9-6.1h-13.2l0.2-1.1h17.3c4.2,0,8.2-1.5,11.6-4
	c2.3,1.8,5.1,2.9,8.2,3.5l-4,19.8c-1.2,5.8,0.1,11.6,3.6,16c3.5,4.3,8.9,6.8,14.7,6.8c10.7,0,20.8-8.2,23-18.8l4.7-23.4h1.6
	c1.6,0,3.2-0.2,4.8-0.4l-4.2,19.9c-1.2,5.8,0.1,11.6,3.6,16c3.5,4.3,8.9,6.8,14.7,6.8c10.7,0,20.8-8.2,23-18.7l5.5-25.9
	c1.8,1,3.9,1.7,6.1,2.1l-4,19.8c-1.2,5.8,0.1,11.6,3.6,16c3.5,4.3,8.9,6.8,14.7,6.8c10.7,0,20.8-8.2,23-18.8l4.7-23.4h1.6
	c2.5,0,4.9-0.4,7.1-1l-4.3,20.5c-0.9,4.4-0.4,8.7,1.4,12.5c2.7,6.4,8.6,10.3,15.4,10.3h35.5c9.8,0,18.9-8.1,21.2-18.9
	c1.1-5,0.5-9.9-1.6-13.9c3.4-2.6,5.3-6,6-9.3l3.9-18.4l0-0.2C122.7,396.6,120.2,391.6,117.8,388.8z"/>
<path class="st1" d="M-123.9,413.2c5.1,0,10.3-5,11.7-11.2c1.3-6.2-1.8-11.2-6.9-11.2h-35.5c-0.1,0-0.3,0-0.4,0c-0.2,0-0.3,0-0.5,0
	c-6.2,0-12.2,5-13.5,11.2l-9.1,42.7c-1.2,5.9,2.3,10.7,7.9,11.1c0.5,0.1,1.1,0.2,1.7,0.2h35.5c5.1,0,10.3-5,11.7-11.2
	c1.3-6.2-1.8-11.2-6.9-11.2h-25.2l4.4-20.6H-123.9L-123.9,413.2z"/>
<path class="st1" d="M-31.3,406.9c-6.2,0-12.2,4.9-13.5,11l-5.6,26.3c-1.3,6.1,2.7,11,8.8,11c6.2,0,12.2-4.9,13.5-11l5.6-26.3
	C-21.2,411.8-25.1,406.9-31.3,406.9z"/>
<path class="st1" d="M-25.6,379.6c-5.9,0-11.7,4.6-12.9,10.2l-0.3,1.4c-1.2,5.6,2.5,10.2,8.5,10.2s11.7-4.6,12.9-10.2l0.3-1.4
	C-15.9,384.2-19.7,379.6-25.6,379.6z"/>
<path class="st1" d="M-55.7,392.3h-9.5l3-14.1c1.3-6.1-2.7-11-8.8-11s-12.2,4.9-13.5,11l-3,14.1h-7.8c-6.1,0-12.1,5-13.4,11.2
	c-1.3,6.2,2.6,9.6,8.7,9.6h7.8l-6.3,31.2c-1.3,6.1,2.7,11,8.8,11c6.2,0,12.2-4.9,13.5-11L-70,413h9.5c6.1,0,12.1-3.4,13.4-9.6
	C-45.7,397.3-49.6,392.3-55.7,392.3z"/>
<path class="st1" d="M41.5,392.3h-9.5l3-14.1c1.3-6.1-2.7-11-8.8-11s-12.2,4.9-13.5,11l-3,14.1H1.8c-6.1,0-12.1,5-13.4,11.2
	c-1.3,6.2,2.6,9.6,8.7,9.6h7.8l-6.3,31.2c-1.3,6.1,2.7,11,8.8,11s12.2-4.9,13.5-11l6.3-31.2h9.5c6.1,0,12.1-3.4,13.4-9.6
	C51.4,397.3,47.6,392.3,41.5,392.3z"/>
<path class="st1" d="M-245.4,379.6h-63.3c-6.1,0-12.1,5-13.4,11.2c-1.3,6.2,2.6,11.2,8.7,11.2h20.5c0,0,0,0.1,0,0.1l-9,42.2
	c-1.3,6.1,2.7,11,8.8,11c6.2,0,12.2-4.9,13.5-11l9-42.2c0,0,0-0.1,0-0.1h20.5c6.1,0,12.1-5,13.4-11.2
	C-235.4,384.6-239.3,379.6-245.4,379.6z"/>
<path class="st1" d="M-190.5,391.9h-31.3c-3.3,0-6.6,1.1-8.9,4.2c-1.5,1.7-2.6,3.8-3,6l-9,42.2c-0.5,2.4-0.2,4.6,0.7,6.4
	c1.1,2.8,3.4,4.6,6.5,4.6h35.5c5.1,0,10.3-5,11.7-11.2c1.3-6.2-1.8-11.2-6.9-11.2h-22.8l1.3-5.9c0,0,20.2-0.1,21.2-0.1
	c6.8,0,10.9-2.5,11.6-6l3.9-18.4C-178.4,393.3-185.7,391.9-190.5,391.9z M-213.4,410.4h13.7l-1.6,8.4h-13.7L-213.4,410.4z"/>
<path class="st1" d="M101.2,391.9H69.9c-3.3,0-6.6,1.1-8.9,4.2c-1.5,1.7-2.6,3.8-3,6l-9,42.2c-0.5,2.4-0.2,4.6,0.7,6.4
	c1.1,2.8,3.4,4.6,6.5,4.6h35.5c5.1,0,10.3-5,11.7-11.2c1.3-6.2-1.8-11.2-6.9-11.2H73.7L75,427c0,0,20.2-0.1,21.2-0.1
	c6.8,0,10.9-2.5,11.6-6l3.9-18.4C113.4,393.3,106.1,391.9,101.2,391.9z M78.3,410.4H92l-1.6,8.4H76.7L78.3,410.4z"/>
<path class="st0" d="M130.4,398.1v-9.7h4.3c0.9,0,1.5,0.1,2,0.3c0.5,0.2,0.8,0.5,1.1,0.9c0.3,0.4,0.4,0.9,0.4,1.5
	c0,0.7-0.2,1.3-0.7,1.7c-0.4,0.5-1.1,0.8-2.1,0.9c0.3,0.2,0.6,0.3,0.8,0.5c0.4,0.3,0.7,0.8,1.1,1.3l1.7,2.6h-1.6l-1.3-2
	c-0.4-0.6-0.7-1-0.9-1.3c-0.2-0.3-0.5-0.5-0.6-0.6c-0.2-0.1-0.4-0.2-0.6-0.3c-0.1,0-0.4,0-0.7,0h-1.5v4.3H130.4z M131.7,392.7h2.8
	c0.6,0,1-0.1,1.4-0.2c0.3-0.1,0.6-0.3,0.8-0.6c0.2-0.3,0.3-0.6,0.3-0.9c0-0.5-0.2-0.8-0.5-1.1c-0.3-0.3-0.9-0.4-1.6-0.4h-3.1
	L131.7,392.7L131.7,392.7z"/>
<path class="st0" d="M134.4,402.8c-5.6,0-10.1-4.6-10.1-10.1c0-5.6,4.6-10.1,10.1-10.1s10.1,4.6,10.1,10.1
	C144.6,398.3,140,402.8,134.4,402.8z M134.4,385.1c-4.2,0-7.6,3.4-7.6,7.6c0,4.2,3.4,7.6,7.6,7.6c4.2,0,7.6-3.4,7.6-7.6
	C142,388.5,138.6,385.1,134.4,385.1z"/>
</svg>
