<?xml version="1.0" encoding="utf-8"?>
<!-- Generator: Adobe Illustrator 19.1.0, SVG Export Plug-In . SVG Version: 6.00 Build 0)  -->
<svg version="1.1" id="Calque_1" xmlns="http://www.w3.org/2000/svg" xmlns:xlink="http://www.w3.org/1999/xlink" x="0px" y="0px"
	 viewBox="-345 170.9 500 500" style="enable-background:new -345 170.9 500 500;" xml:space="preserve">
<style type="text/css">
	.st0{fill:#E20613;stroke:#E20613;stroke-width:0.5969;}
	.st1{fill:#FFE000;}
	.st2{fill:none;stroke:#1D1D1B;stroke-width:1.1422;}
	.st3{fill:none;stroke:#1D1D1B;stroke-width:1.4466;}
	.st4{fill:none;stroke:#1D1D1B;stroke-width:1.7517;}
	.st5{fill:none;stroke:#1D1D1B;stroke-width:2.0561;}
	.st6{fill:none;stroke:#1D1D1B;stroke-width:2.3605;}
	.st7{fill:none;stroke:#1D1D1B;stroke-width:2.665;}
	.st8{fill:none;stroke:#1D1D1B;stroke-width:2.9701;}
	.st9{fill:none;stroke:#1D1D1B;stroke-width:3.2745;}
	.st10{fill:none;stroke:#1D1D1B;stroke-width:3.5789;}
	.st11{fill:none;stroke:#1D1D1B;stroke-width:3.8833;}
	.st12{fill:#1D1D1B;stroke:#1D1D1B;stroke-width:0.8378;}
	.st13{fill:none;stroke:#1D1D1B;stroke-width:4.1884;}
	.st14{fill:#1D1D1B;stroke:#1D1D1B;stroke-width:0.4189;}
	.st15{fill:#E53212;stroke:#E20613;stroke-width:0.5969;}
	.st16{fill:#1D1D1B;}
	.st17{fill:#FFFFFF;}
	.st18{fill:none;}
	.st19{fill:none;stroke:#E20613;stroke-width:3.884;}
	.st20{fill:none;stroke:#1D1D1B;stroke-width:0.687;}
	.st21{fill:#FFFFFF;stroke:#FFFFFF;stroke-width:0.5969;}
</style>
<rect x="-330.4" y="359.2" class="st0" width="473.4" height="127.3"/>
<path class="st1" d="M62.2,370.9c0,0,61.2-2.3,58.9,72.5l-59.3,0L62.2,370.9z"/>
<line class="st2" x1="72.5" y1="369.2" x2="61.2" y2="441.1"/>
<line class="st3" x1="82.5" y1="372.2" x2="61.6" y2="441.4"/>
<line class="st4" x1="91.7" y1="376.2" x2="62.4" y2="441.5"/>
<line class="st5" x1="99.1" y1="381.1" x2="62.4" y2="441.5"/>
<line class="st6" x1="105.4" y1="387.1" x2="62.4" y2="441.5"/>
<line class="st7" x1="110.8" y1="394" x2="62.4" y2="441.5"/>
<line class="st8" x1="115.1" y1="401.8" x2="62.4" y2="441.5"/>
<line class="st9" x1="118.2" y1="411" x2="62.4" y2="441.5"/>
<line class="st10" x1="120.5" y1="420.7" x2="62.4" y2="441.5"/>
<line class="st11" x1="121.7" y1="431" x2="62.4" y2="441.5"/>
<path class="st12" d="M62.7,367.6"/>
<path class="st12" d="M61.7,441.4"/>
<line class="st13" x1="121.8" y1="441.7" x2="70.7" y2="441.7"/>
<path class="st14" d="M62.5,442.6"/>
<path class="st15" d="M63,401.6c0,0,12.7,8.5,13.9,21.7c1.3,13.2-3.8,22.5-3.8,22.5l-1.2,2l-15.5,0.8l1.1-3L63,401.6z"/>
<path class="st16" d="M52.7,396.5c-0.2,1.8,1,3.1,1,3.1s24.1,6.8,20.9,32.6c0,0-3.4,28.4-35.4,49.7c0,0,15.9-15.3,21.6-38.3h-7.2
	c0,0,4.9-7.3,4.3-17c0,0-7.1,10.2-17.5-0.4c-4.7-4.8-2.6-15,2.3-19.6c0,0-10.7-1.9-6.6-10.6c3-6.2,8.9-2.7,8.9-2.7l3.5,0.1
	c0,0,0,0.2,0,0c0-0.2-0.5,1.3-0.5,1.3s1.4,0.5,1.7,0.7l-0.1,1l0.6-0.4"/>
<polygon class="st17" points="52,422.4 57.8,426.5 61.4,420.5 58.4,421.8 61.1,416.5 56.5,419.9 59.8,413.8 54.5,418.3 51.8,415.3 
	"/>
<path class="st18" d="M48,413.3"/>
<path class="st16" d="M62.3,370.7l0.1,10.2H64c0,0,0.4,19-0.3,23.7C63,409.2,55,400,55,400l0.5-19.1H57l-0.1-6.6l1.6,3.6l0,0
	L62.3,370.7z"/>
<path class="st17" d="M47.3,405.9c0,0,8.7-2.3,6.5-6.3c0,0,4,1.1,12.8,19.2C66.9,419.5,58.4,407.2,47.3,405.9z"/>
<path class="st1" d="M52,403.8c0,0,2.2-1.4,2.3-2.5l1.7,3.1l5.5,4.7c0,0,1.2,2.1,2.6,4.8c0.8,1.5,1.5,3.4,2.4,4.8l-4.8-5.3l-3.5-2.9
	l-2.9-5.4L52,403.8z"/>
<path class="st19" d="M62.8,368.7c0,0,60.3,0.1,59.1,75.3"/>
<path class="st20" d="M109,384.4c0,2.8,2.3,5.1,5.1,5.1"/>
<path class="st20" d="M119.1,384.4c0-2.8-2.3-5.1-5.1-5.1c-2.8,0-5.1,2.3-5.1,5.1"/>
<path class="st20" d="M114.1,389.4c2.8,0,5.1-2.3,5.1-5.1"/>
<polyline class="st18" points="130.9,380 111.2,380 111.2,394.8 "/>
<path class="st16" d="M112.6,381.9h2c0.4,0,1.1,0.1,1.1,1c0,0.9-0.6,1-1.2,1h-1.9L112.6,381.9L112.6,381.9z M112.6,384.7h2
	c1,0,1.1,0.6,1.1,1.1c0,0.2,0,1.1,0.1,1.5h1v-0.1c-0.3-0.1-0.3-0.3-0.3-0.6l0-1.1c0-0.8-0.4-1-0.7-1.1c0.4-0.2,0.8-0.6,0.8-1.4
	c0-1.3-1-1.6-2-1.6h-2.8v6h0.8L112.6,384.7L112.6,384.7z"/>
<path class="st21" d="M-283.8,444h-12.6v-39.3h-10.4v-11.1h33.4v11.1h-10.4V444z"/>
<path class="st21" d="M-256.3,404.7v8.4h14.2v11.1h-14.2v8.7h14.9V444h-27.5v-50.4h27.5v11.1L-256.3,404.7L-256.3,404.7z"/>
<path class="st21" d="M-221,432.9h15.1V444h-27.7v-50.4h12.6V432.9z"/>
<path class="st21" d="M-189.3,404.7v8.4h14.2v11.1h-14.2v8.7h14.9V444h-27.5v-50.4h27.5v11.1L-189.3,404.7L-189.3,404.7z"/>
<path class="st21" d="M-140,406.5c-2.3-2-5.3-3.3-8.3-3.3c-2.3,0-5.4,1.4-5.4,4.2c0,2.9,3.4,4.1,5.6,4.8l3.2,1
	c6.7,2.1,11.9,5.6,11.9,13.8c0,5-1.2,10.2-5,13.6c-3.8,3.3-8.9,4.7-13.7,4.7c-6.1,0-12.1-2.1-17-5.7l5.4-10.6
	c3.1,2.9,6.9,5.2,11.2,5.2c3,0,6.1-1.5,6.1-5.1c0-3.7-4.9-4.9-7.6-5.7c-7.9-2.3-13.1-4.5-13.1-14.2c0-10.2,7-16.9,16.7-16.9
	c4.9,0,10.8,1.6,15.1,4.1L-140,406.5z"/>
<path class="st21" d="M-107.8,444h-12.6v-39.3h-10.4v-11.1h33.4v11.1h-10.4V444z"/>
<path class="st21" d="M-80.3,404.7v8.4h14.2v11.1h-14.2v8.7h14.9V444h-27.5v-50.4h27.5v11.1L-80.3,404.7L-80.3,404.7z"/>
<path class="st21" d="M-57.6,393.6h19.2c10.4,0,17.6,5,17.6,16.6c0,11.9-6.2,17.1-17.1,17.1H-45V444h-12.6V393.6z M-45,416.7h2.1
	c4.6,0,9,0,9-6.1c0-6.4-4.2-6.4-9-6.4H-45V416.7z"/>
<path class="st21" d="M11.4,406.5c-2.3-2-5.3-3.3-8.3-3.3c-2.3,0-5.4,1.4-5.4,4.2c0,2.9,3.4,4.1,5.6,4.8l3.2,1
	c6.7,2.1,11.9,5.6,11.9,13.8c0,5-1.1,10.2-5,13.6c-3.8,3.3-8.9,4.7-13.7,4.7c-6.1,0-12.1-2.1-17-5.7L-12,429
	c3.1,2.9,6.9,5.2,11.2,5.2c3,0,6.1-1.5,6.1-5.1c0-3.7-4.9-4.9-7.6-5.7c-7.9-2.3-13.1-4.5-13.1-14.2c0-10.2,7-16.9,16.7-16.9
	c4.9,0,10.9,1.6,15.1,4.1L11.4,406.5z"/>
</svg>
