<?xml version="1.0" encoding="utf-8"?>
<!-- Generator: Adobe Illustrator 19.1.0, SVG Export Plug-In . SVG Version: 6.00 Build 0)  -->
<svg version="1.1" id="Calque_1" xmlns="http://www.w3.org/2000/svg" xmlns:xlink="http://www.w3.org/1999/xlink" x="0px" y="0px"
	 viewBox="-345 170.9 500 500" style="enable-background:new -345 170.9 500 500;" xml:space="preserve">
<style type="text/css">
	.st0{fill:url(#SVGID_1_);}
	.st1{fill:url(#SVGID_2_);}
	.st2{fill:#7F7F7F;}
	.st3{fill:#1BB283;}
	.st4{fill:url(#SVGID_3_);}
	.st5{fill:url(#SVGID_4_);}
	.st6{fill:url(#SVGID_5_);}
	.st7{fill:url(#SVGID_6_);}
</style>
<linearGradient id="SVGID_1_" gradientUnits="userSpaceOnUse" x1="-86.6579" y1="567.717" x2="-102.688" y2="223.4903" gradientTransform="matrix(1 0 0 -1 0 841.67)">
	<stop  offset="0.3681" style="stop-color:#E8E8E8"/>
	<stop  offset="0.6995" style="stop-color:#9C9C9C"/>
	<stop  offset="1" style="stop-color:#5C5C5C"/>
</linearGradient>
<path class="st0" d="M-91.3,349.5c-0.7,0-1.5,0-2.2,0s-1.5,0-2.2,0l0,0c-69.7,0.1-146.3,2.6-225.6,21.4c-0.2,1.9-2.4,33.9-2.3,51.5
	c-0.1,17.6,2.1,49.6,2.3,51.5c79.3,18.7,155.9,21.3,225.6,21.4l0,0c0.7,0,1.5,0,2.2,0s1.5,0,2.2,0l0,0
	c69.7-0.1,146.3-2.6,225.6-21.4c0.2-1.9,2.4-33.9,2.3-51.5c0.1-17.6-2.1-49.5-2.3-51.5C54.9,352.1-21.6,349.6-91.3,349.5
	L-91.3,349.5L-91.3,349.5z"/>
<linearGradient id="SVGID_2_" gradientUnits="userSpaceOnUse" x1="-94.1935" y1="443.7746" x2="-89.6935" y2="268.2775" gradientTransform="matrix(1 0 0 -1 0 841.67)">
	<stop  offset="0" style="stop-color:#E8E8E8"/>
	<stop  offset="0.5244" style="stop-color:#9C9C9C"/>
	<stop  offset="1" style="stop-color:#5C5C5C"/>
</linearGradient>
<path class="st1" d="M-94,357.9h0.4h0.3l1.9,0c68.3,0.1,141.8,2.6,217.6,19.8c1.3,12.7,1.9,28.1,1.8,44.6v0.1v0
	c0.1,16.5-0.5,31.9-1.8,44.6c-75.9,17.2-149.4,19.7-217.6,19.8l-1.8,0h-0.4h-0.3l-1.9,0c-68.3-0.1-141.8-2.6-217.6-19.8
	c-1.3-12.7-1.9-28.1-1.8-44.6v0v-0.1c-0.1-16.5,0.5-31.9,1.8-44.6c75.9-17.2,149.4-19.7,217.6-19.8L-94,357.9"/>
<polygon class="st2" points="-285.2,385.5 -285.2,409.5 -261.6,409.5 -261.6,459.7 -230.8,459.7 -230.8,409.5 -207.2,409.5 
	-207.2,385.5 "/>
<polygon class="st2" points="-47.4,385.5 -47.4,409.5 -23.8,409.5 -23.8,459.7 6.9,459.7 6.9,409.5 30.6,409.5 30.6,385.5 "/>
<polygon class="st2" points="-202.3,385.5 -202.3,459.7 -137.4,459.5 -137.4,439.3 -172.6,439.3 -172.6,433.3 -139.1,433.3 
	-139.1,413 -172.6,413 -172.6,405.7 -137.4,405.7 -137.4,385.5 "/>
<polygon class="st2" points="35.4,385.5 35.4,459.7 100.3,459.5 100.3,439.3 65.1,439.3 65.1,433.3 98.6,433.3 98.6,413 65.1,413 
	65.1,405.7 100.3,405.7 100.3,385.5 "/>
<polygon class="st2" points="-77.4,425.5 -89.1,385.5 -131.7,385.5 -131.7,459.7 -105.1,459.7 -105.1,422 -94.1,459.7 -50.8,459.7 
	-50.8,385.5 -77.4,385.5 "/>
<polygon class="st3" points="-286.3,384.4 -286.3,408.4 -262.7,408.4 -262.7,458.6 -231.9,458.6 -231.9,408.4 -208.3,408.4 
	-208.3,384.4 "/>
<polygon class="st3" points="-48.6,384.4 -48.6,408.4 -24.9,408.4 -24.9,458.6 5.8,458.6 5.8,408.4 29.4,408.4 29.4,384.4 "/>
<polygon class="st3" points="-203.4,384.4 -203.4,458.6 -138.6,458.4 -138.6,438.2 -173.7,438.2 -173.7,432.2 -140.3,432.2 
	-140.3,411.9 -173.7,411.9 -173.7,404.6 -138.6,404.6 -138.6,384.4 "/>
<polygon class="st3" points="34.3,384.4 34.3,458.6 99.2,458.4 99.2,438.2 64,438.2 64,432.2 97.5,432.2 97.5,411.9 64,411.9 
	64,404.6 99.2,404.6 99.2,384.4 "/>
<polygon class="st3" points="-78.6,424.4 -90.2,384.4 -132.8,384.4 -132.8,458.6 -106.2,458.6 -106.2,420.8 -95.3,458.6 
	-51.9,458.6 -51.9,384.4 -78.6,384.4 "/>
<path class="st3" d="M114.7,394.9L114.7,394.9c1.2-0.4,2.1-1.4,2.1-2.9c0-0.9-0.3-1.6-0.9-2.1c-0.7-0.6-1.7-0.9-3.2-0.9
	c-1,0-2,0.1-2.7,0.2v10.9h1.4v-4.8h1.4c1.3,0,1.9,0.6,2.2,2.2c0.3,1.4,0.5,2.3,0.7,2.6h1.5c-0.2-0.4-0.5-1.5-0.8-3
	C116,396,115.5,395.2,114.7,394.9z M112.8,394.3h-1.5v-4c0.2-0.1,0.7-0.1,1.4-0.1c1.5,0,2.6,0.6,2.6,2.1
	C115.3,393.5,114.4,394.3,112.8,394.3z"/>
<path class="st3" d="M113.5,383.7c-5.7,0-10.3,4.6-10.3,10.3c0,5.7,4.6,10.3,10.3,10.3c5.7,0,10.3-4.6,10.3-10.3
	S119.2,383.7,113.5,383.7z M113.5,402.9c-4.9,0-8.9-4-8.9-8.9c0-4.9,4-8.9,8.9-8.9c4.9,0,8.9,4,8.9,8.9S118.4,402.9,113.5,402.9z"/>
<linearGradient id="SVGID_3_" gradientUnits="userSpaceOnUse" x1="-316.0338" y1="371.5251" x2="-307.5967" y2="539.4218" gradientTransform="matrix(1 0 0 -1 0 841.67)">
	<stop  offset="0" style="stop-color:#FFFFFF"/>
	<stop  offset="6.230000e-02" style="stop-color:#E3E3E3"/>
	<stop  offset="0.1692" style="stop-color:#B8B8B8"/>
	<stop  offset="0.2818" style="stop-color:#949494"/>
	<stop  offset="0.3992" style="stop-color:#767676"/>
	<stop  offset="0.5228" style="stop-color:#5F5F5F"/>
	<stop  offset="0.6557" style="stop-color:#4F4F4F"/>
	<stop  offset="0.8041" style="stop-color:#454545"/>
	<stop  offset="1" style="stop-color:#424242"/>
</linearGradient>
<path class="st4" d="M-313.7,467c-1.3-12.7-1.9-28.1-1.8-44.6l0.3-0.1l-0.3,0c-0.1-16.5,0.5-31.9,1.8-44.6l0.6,0.1
	c-1.3,12.7-1.9,28.1-1.8,44.6v0.1c-0.1,16.5,0.5,31.9,1.8,44.6L-313.7,467z"/>
<linearGradient id="SVGID_4_" gradientUnits="userSpaceOnUse" x1="-94.2724" y1="360.3825" x2="-85.8353" y2="528.2783" gradientTransform="matrix(1 0 0 -1 0 841.67)">
	<stop  offset="0" style="stop-color:#FFFFFF"/>
	<stop  offset="6.230000e-02" style="stop-color:#E3E3E3"/>
	<stop  offset="0.1692" style="stop-color:#B8B8B8"/>
	<stop  offset="0.2818" style="stop-color:#949494"/>
	<stop  offset="0.3992" style="stop-color:#767676"/>
	<stop  offset="0.5228" style="stop-color:#5F5F5F"/>
	<stop  offset="0.6557" style="stop-color:#4F4F4F"/>
	<stop  offset="0.8041" style="stop-color:#454545"/>
	<stop  offset="1" style="stop-color:#424242"/>
</linearGradient>
<path class="st5" d="M126.2,466.7c-76,17.2-149.5,19.7-217.6,19.8l-1.8,0h-0.4h-0.3l-1.9,0c-68.1-0.1-141.6-2.6-217.6-19.8l-0.1,0.5
	c76.1,17.2,149.6,19.7,217.7,19.8l1.9,0h0.3h0.4l1.8,0c68.1-0.1,141.6-2.6,217.7-19.8L126.2,466.7z"/>
<linearGradient id="SVGID_5_" gradientUnits="userSpaceOnUse" x1="122.9859" y1="349.4636" x2="131.423" y2="517.3602" gradientTransform="matrix(1 0 0 -1 0 841.67)">
	<stop  offset="0" style="stop-color:#FFFFFF"/>
	<stop  offset="6.230000e-02" style="stop-color:#E3E3E3"/>
	<stop  offset="0.1692" style="stop-color:#B8B8B8"/>
	<stop  offset="0.2818" style="stop-color:#949494"/>
	<stop  offset="0.3992" style="stop-color:#767676"/>
	<stop  offset="0.5228" style="stop-color:#5F5F5F"/>
	<stop  offset="0.6557" style="stop-color:#4F4F4F"/>
	<stop  offset="0.8041" style="stop-color:#454545"/>
	<stop  offset="1" style="stop-color:#424242"/>
</linearGradient>
<path class="st6" d="M126.6,467l-0.6-0.1c1.3-12.7,1.9-28.1,1.8-44.6v-0.1c0.1-16.5-0.5-31.9-1.8-44.6l0.6-0.1
	c1.3,12.7,1.9,28.1,1.8,44.6l-0.3,0.1l0.3,0C128.5,438.9,127.9,454.3,126.6,467z"/>
<linearGradient id="SVGID_6_" gradientUnits="userSpaceOnUse" x1="-98.7758" y1="360.609" x2="-90.3369" y2="528.5419" gradientTransform="matrix(1 0 0 -1 0 841.67)">
	<stop  offset="0" style="stop-color:#FFFFFF"/>
	<stop  offset="6.230000e-02" style="stop-color:#E3E3E3"/>
	<stop  offset="0.1692" style="stop-color:#B8B8B8"/>
	<stop  offset="0.2818" style="stop-color:#949494"/>
	<stop  offset="0.3992" style="stop-color:#767676"/>
	<stop  offset="0.5228" style="stop-color:#5F5F5F"/>
	<stop  offset="0.6557" style="stop-color:#4F4F4F"/>
	<stop  offset="0.8041" style="stop-color:#454545"/>
	<stop  offset="1" style="stop-color:#424242"/>
</linearGradient>
<path class="st7" d="M-91.3,357.6l-1.9,0h-0.3H-94l0,0.3l0-0.3l-1.8,0c-68.1,0.1-141.6,2.6-217.7,19.8l0.1,0.5
	c76-17.2,149.5-19.7,217.6-19.8l1.8,0h0.4h0.3l1.9,0c68.1,0.1,141.6,2.6,217.6,19.8l0.1-0.5C50.3,360.2-23.2,357.7-91.3,357.6z"/>
</svg>
