<?xml version="1.0" encoding="utf-8"?>
<!-- Generator: Adobe Illustrator 15.0.0, SVG Export Plug-In . SVG Version: 6.00 Build 0)  -->
<!DOCTYPE svg PUBLIC "-//W3C//DTD SVG 1.1//EN" "http://www.w3.org/Graphics/SVG/1.1/DTD/svg11.dtd">
<svg version="1.1" id="Calque_1" xmlns="http://www.w3.org/2000/svg" xmlns:xlink="http://www.w3.org/1999/xlink" x="0px" y="0px"
	 width="500px" height="500px" viewBox="0 0 500 500" enable-background="new 0 0 500 500" xml:space="preserve">
<path fill="#1D1D1B" d="M203.579,427.812l-11.736,30.925c-0.011-9.991-9.862-12.026-13.072-12.812
	c-11.031-2.846-13.126-3.252-13.131-6.661c0.005-3.701,3.579-4.99,6.659-4.988c4.63-0.002,8.383,1.35,8.701,6.646h9.363
	c-0.016-10.172-8.453-14.168-17.626-14.167c-7.865-0.006-16.232,4.218-16.446,12.974c-0.657-9.272-8.761-12.963-17.585-12.953
	c-7.929-0.003-16.441,4.322-16.43,13.311c0,8.272,6.595,10.786,13.13,12.511c6.472,1.728,13.072,2.523,13.062,7.266
	c0.005,4.498-5.167,5.48-8.552,5.494c-5.186,0.005-9.736-2.282-9.746-8.136h-9.253l-11.015-29.4h-9.905l-16.675,44.01h9.786
	l3.445-9.796l16.474-0.005l3.326,9.801h10.035l-1.542-4.116c3.553,3.517,9.004,5.164,14.694,5.154
	c8.811,0.008,14.575-3.288,16.994-8.251c3.077,5.652,9.875,8.242,17.023,8.235c6.908,0,11.936-2.03,14.952-5.295l-1.612,4.264h9.8
	l3.449-9.831h16.466l3.335,9.846h10.049l-16.481-44.021h-9.935V427.812z M99.07,454.813l5.734-16.14h0.129l5.55,16.145
	L99.07,454.813z M173.902,465.333c-5.167,0.01-9.725-2.277-9.746-8.113l-6.411-0.007c-0.96-8.653-9.94-10.515-12.981-11.277
	c-11.02-2.831-13.121-3.27-13.131-6.65c0.02-3.705,3.579-5.001,6.659-4.994c4.63,0.002,8.378,1.344,8.696,6.643h9.333
	c0.457,7.57,6.785,9.992,13.081,11.643c6.48,1.721,13.08,2.518,13.08,7.267C182.484,464.341,177.312,465.328,173.902,465.333z
	 M202.663,454.783l5.734-16.146h0.12l5.565,16.14L202.663,454.783z M308.028,447.9c3.828-1.854,5.972-4.881,5.993-9.196
	c-0.021-8.19-5.685-10.906-14.083-10.875l-20.706,0.001l0.016,40.738l-15.252-40.747h-9.939l-16.689,44.016h9.816l3.438-9.801
	h16.471l3.325,9.79l10.054-0.007l-0.008,0.007l20.128,0.008c7.944-0.021,15.521-3.862,15.524-12.796
	C316.111,453.549,313.394,449.428,308.028,447.9z M253.146,454.824l5.744-16.152h0.119l5.556,16.152H253.146z M288.919,435.315
	h9.055c3.443,0.007,6.659,0.865,6.674,5.054c-0.005,3.709-2.548,5.255-5.907,5.248l-9.816,0.002L288.919,435.315z M299.298,464.289
	h-10.363l-0.012-12.082l10.549-0.002c4.126-0.005,6.969,1.789,6.957,6.289C306.43,463.059,303.101,464.289,299.298,464.289z
	 M361.438,426.745c-13.614-0.008-21.633,10.156-21.619,23.232c0.006,5.137,1.335,9.841,3.795,13.645h-16.401l-0.011-35.799h-9.668
	v44.009h28.079v-5.576c3.704,4.076,9.084,6.585,15.854,6.578c13.618,0,21.627-10.172,21.612-22.867
	C383.089,436.892,375.061,426.726,361.438,426.745z M361.462,464.709c-8.697,0-11.956-7.397-11.966-14.731
	c-0.012-7.702,3.245-15.096,11.951-15.104c8.695,0,11.956,7.389,11.976,15.081C373.433,457.311,370.153,464.696,361.462,464.709z
	 M407.713,427.819l-10.219,17.336l-10.304-17.336h-10.915l16.208,26.816v17.19h9.685l-0.005-16.946l16.337-27.065L407.713,427.819z"
	/>
<path fill="#364C9B" d="M417.5,356c0,3.313-2.687,6-6,6h-321c-3.313,0-6-2.687-6-6V35c0-3.313,2.687-6,6-6h321c3.313,0,6,2.687,6,6
	V356z"/>
<polygon fill="#FFFFFF" points="123.875,253.375 123.875,259.375 149.75,258.262 149.75,290.75 157.75,291.375 157.75,257.917 
	157.75,251 "/>
<polygon fill="#FFFFFF" points="193.875,253.375 193.875,259.375 168.333,258.262 168.333,290.75 160,291.375 160,257.917 160,251 
	"/>
<polygon fill="#FFFFFF" points="251.5,259.75 251.5,253.375 207.75,253.375 207.75,253.371 198.879,253.371 198.879,253.375 
	198.875,253.375 198.875,259.75 198.879,259.75 198.879,268.375 198.875,268.375 198.875,274.75 198.879,274.75 198.879,283.125 
	198.875,283.125 198.875,289.5 198.879,289.5 207.75,289.5 251.375,289.5 251.375,283.125 207.75,283.125 207.75,274.75 
	249.5,274.75 249.5,268.375 207.75,268.375 207.75,259.75 "/>
<path fill="#FFFFFF" d="M266.812,268.416c0-0.747,0-2.036,0-4.291c0-2.577,1.375-4.458,3.441-4.458h39.871v-6.25h-38.401
	l-0.036-0.042c0,0-13.625-0.875-13.625,10.188c0,2.074-0.062,4.938-0.062,4.938v6.25h43.438c0,0.747,0,2.036,0,4.291
	c0,2.577-1.469,4.458-4.438,4.458h-38.875v6.25h38.401l0.036,0.042c0,0,13.625,0.875,13.625-10.188
	c0-1.166,0.062-11.188,0.062-11.188H266.812z"/>
<path fill="#FFFFFF" d="M331.167,253.328v0.002c-0.033,0-0.07,0-0.103,0c-1.542,0-13.908-0.83-13.908,10.232
	c0,1.78,0.011,4.771,0.011,4.771v21.251h9.083v-14.917h36v14.917h9.083v-30V253.5v-0.172H331.167z M362.25,268.499h-36v-0.166
	h-0.104c0-0.758,0-2.029,0-4.208c0-2.104,1.521-4.458,3.441-4.458h6.58l-0.008-0.083h26.091V268.499z"/>
<g>
	<path fill="#1D1D1B" d="M70.821,387.166c0,0,0,5.794,0,8.191c0,3.184,2.132,2.795,2.78,2.795c31.589,0,352.385,0.002,354.998,0.002
		c0,2.24,0,8.013,0,8.013h2.79v-7.975c0,0,0.481-2.825-2.834-2.825c-31.906,0-352.326-0.001-354.944-0.001c0-2.24,0-8.2,0-8.2
		H70.821z"/>
</g>
</svg>
