<?xml version="1.0" encoding="utf-8"?>
<!-- Generator: Adobe Illustrator 21.0.2, SVG Export Plug-In . SVG Version: 6.00 Build 0)  -->
<svg version="1.1" id="Calque_1" xmlns="http://www.w3.org/2000/svg" xmlns:xlink="http://www.w3.org/1999/xlink" x="0px" y="0px"
	 viewBox="0 0 500 182" style="enable-background:new 0 0 500 182;" xml:space="preserve">
<style type="text/css">
	.st0{fill:#E20613;}
	.st1{fill:#FFFFFF;}
	.st2{fill:#00B0EA;}
</style>
<rect x="17.3" y="26.7" class="st0" width="435.4" height="128.6"/>
<path class="st1" d="M358.9,55.9c-6.1,0-11,4.4-11,10.1c0,5.5,4.9,10,11,10c6,0,11-4.5,11-10C369.9,60.4,364.9,55.9,358.9,55.9z
	 M358.9,74.2c-5,0-9.1-3.7-9.1-8.2c0-4.7,4.1-8.3,9.1-8.3s9.1,3.6,9.1,8.3C368,70.5,363.9,74.2,358.9,74.2z"/>
<path class="st1" d="M360.4,60.7h-5.2l-2,10.4h3.7l0.8-3.8h1.1l1,3.8h3.7l-1.3-4.2c2.4-0.8,2.4-2.8,2.4-3.1
	C364.6,60.7,361.1,60.7,360.4,60.7z M359.1,64.9H358l0.4-1.9h1.1c0.3,0,1.4,0,1.4,0.9C360.9,64.9,359.6,64.9,359.1,64.9z"/>
<path class="st1" d="M452.6,26.7c0,0-21.7,54-77.4,61.4c0,0,9.9,35.9-28.3,67.2h2.2c0,0,33.8-18.1,62.4-57.7s43.2-70.9,43.2-70.9
	H452.6z"/>
<path class="st1" d="M122.2,74.4H92.6l-7.7,30.2c-7.6,27.4,29.9,13.4,32.4,9.6l3.1,16.1C100.9,146.1,59,146,63.3,110.8l9.1-36.4
	H42.6l9-16.8h24.7l3.8-16.8h20l-3.8,16.8h35.4L122.2,74.4z"/>
<path class="st1" d="M194.5,111.2c-1.2,11.7-11.8,21.2-18,24c-6.3,2.7-12.6,4.1-18.9,4.1c-6,0-11.5-1-16.6-2.9
	c-5-2-9.2-4.7-12.6-8.4c-3.4-3.6-5.8-8-7.4-13.1c-1.6-5.1-1.9-10.8-1-17.1c0.9-6.3,2.8-12,5.7-17.1s6.6-9.5,11-13.1s9.4-6.4,15-8.4
	s11.4-2.9,17.4-2.9c5.6,0,10.5,1,14.8,2.9c4.3,2,7.8,4.7,10.5,8.4c2.7,3.6,4.5,8,5.6,13.1c1,5.1,1.1,10.8,0.2,17.1l-1.1,7.6h-56
	c0.3,4.7,1.9,8.4,4.7,11.1c2.8,2.8,6.6,4.1,11.3,4.1c9.9,0,12.1-5.7,13.8-9.6L194.5,111.2z M177,87c0.6-4.1-4.4-13.2-12.7-13.2
	c-2.7,0-5.1,0.4-7.2,1.3c-2.1,0.9-4,2-5.6,3.3c-1.6,1.4-5.8,6.6-6.3,8.5L177,87L177,87z"/>
<path class="st1" d="M315.7,127.5h-0.3c-3,4.2-6.6,7.2-10.9,9s-8.8,2.7-13.3,2.7c-3.4,0-6.5-0.5-9.5-1.5s-5.5-2.6-7.6-4.6
	s-3.7-4.6-4.7-7.6s-1.2-6.5-0.7-10.5c0.9-6.8,3.2-12,7-15.7c3.8-3.7,8.3-6.4,13.4-8.2c5.2-1.8,10.6-2.8,16.3-3.1
	c5.7-0.3,12.7-0.5,17.4-0.5c0,0,3.3-8.3-0.8-13.1c-2.3-2.7-9-2.4-13.6-0.9c-3.5,1.1-6.6,7.8-6.6,7.8l-21.2-0.4
	c1.4-9,7.8-16.3,13.2-19.2c5.4-2.9,12.5-4.6,18.5-4.6c6.5,0,12.7,1.2,16.7,3s10.7,5.6,12.8,9c2.1,3.4,2.7,7.8,1.6,13.2
	c-1,4.9-2.5,8.7-3.4,15.3c0,0-5.2,20.4-5.9,25.9s-0.6,14.6-0.6,14.6h-18.9L315.7,127.5z M313.3,103c-1.7,0-3.8,0.1-6.3,0.2
	s-5,0.6-7.4,1.4s-4.5,1.9-6.4,3.4c-1.8,1.5-2.9,3.6-3.2,6.3c-0.2,1.5-0.1,2.8,0.4,3.8s1.2,1.9,2.1,2.7c0.9,0.8,1.9,1.3,3.2,1.6
	c1.2,0.3,2.4,0.5,3.6,0.5c2.2,0,4.3-0.3,6.4-1c2.1-0.6,3.6-2,5.4-3.2c1.7-1.2,3.2-2.7,4.4-4.5s2.3-3.6,2.6-6l0.6-5.2L313.3,103
	L313.3,103z"/>
<path class="st1" d="M241.8,72.2c13.2,0,12.8,8.4,12.8,8.4l19.3,0.1c0,0,2.2-7.2-2.6-13.5c0,0-2.9-4.5-12-8
	c-4.9-1.9-9.9-2.5-15.1-2.5c-4.1,0-10.5,0.5-14.7,1.4c-14,2.7-22.5,12.6-22.5,21c0,11,3.9,19.7,27.3,28.3c12.4,4.6,9,12,6.4,14.1
	c-1.9,1.6-5.5,2.3-8.3,2.3c-3.7,0-8.2-0.8-10.7-2.3c-1.7-1-3-3.9-3.2-6.1c-0.3-1.2-0.5-2.6-0.5-3.9c-8.4,0-19.3,0.1-19.3,0.1
	s-3.9,9.9,1,17.4c0,0,3.4,6.1,12.5,9c5.3,1.7,11.1,2.1,16.6,2.1c4.2,0,8.5-0.4,12.9-1.2c4.4-0.8,8.5-2.2,12.2-4.3
	c3.7-2,11.3-9.5,11.3-19c0-8.9-0.8-17.3-18.5-24.7c-8.2-3.4-16-6.8-16-12.1C230.6,76.3,231.8,72.2,241.8,72.2z"/>
<path class="st2" d="M454.7,26.7c0,0-14.6,31.3-43.2,70.9c-28.6,39.6-62.4,57.7-62.4,57.7h133.5V26.7H454.7z"/>
</svg>
