<?xml version="1.0" encoding="utf-8"?>
<!-- Generator: Adobe Illustrator 19.1.0, SVG Export Plug-In . SVG Version: 6.00 Build 0)  -->
<svg version="1.1" id="Calque_1" xmlns="http://www.w3.org/2000/svg" xmlns:xlink="http://www.w3.org/1999/xlink" x="0px" y="0px"
	 viewBox="-345 170.9 500 500" style="enable-background:new -345 170.9 500 500;" xml:space="preserve">
<style type="text/css">
	.st0{fill:#E20613;}
	.st1{fill:#00B0EA;}
	.st2{fill:#FFFFFF;}
</style>
<rect x="-327.7" y="356.6" class="st0" width="435.4" height="128.6"/>
<path class="st1" d="M137.7,485.2H2.9c0,0,29.5-23.9,55.1-54c25.7-30.1,50.6-74.6,50.6-74.6h29v128.6H137.7z"/>
<path class="st2" d="M13.9,385.8c6,0,11,4.5,11,10.1c0,5.5-5,10-11,10c-6.1,0-11-4.5-11-10C2.9,390.2,7.8,385.8,13.9,385.8z
	 M13.9,404.1c5,0,9.1-3.7,9.1-8.2c0-4.7-4.1-8.3-9.1-8.3s-9.1,3.6-9.1,8.3C4.8,400.4,8.9,404.1,13.9,404.1z M18.5,401h-3.7l-1-3.8
	h-1.1l-0.8,3.8H8.2l2-10.4h5.2c0.7,0,4.2,0,4.2,3.1c0,0.3,0,2.3-2.4,3.1L18.5,401z M13,394.8h1.1c0.5,0,1.8,0,1.8-1
	c0-0.9-1.1-0.9-1.4-0.9h-1.1L13,394.8z"/>
<path class="st2" d="M107.6,356.6c0,0-21.7,54-77.4,61.4c0,0,9.9,35.9-28.3,67.2h2.2c0,0,33.8-18.1,62.4-57.7s43.2-70.9,43.2-70.9
	L107.6,356.6z"/>
<path class="st2" d="M-222.8,404.3h-29.6l-7.7,30.2c-7.6,27.4,29.9,13.4,32.4,9.6l3.1,16.1c-19.5,15.8-61.4,15.7-57.1-19.5l9.1-36.4
	h-29.8l9-16.8h24.7l3.8-16.8h20l-3.8,16.8h35.4L-222.8,404.3z"/>
<path class="st2" d="M-150.5,441.1c-1.2,11.7-11.8,21.2-18,24c-6.3,2.7-12.6,4.1-18.9,4.1c-6,0-11.5-1-16.6-2.9
	c-5-2-9.2-4.7-12.6-8.4c-3.4-3.6-5.8-8-7.4-13.1c-1.6-5.1-1.9-10.8-1-17.1c0.9-6.3,2.8-12,5.7-17.1s6.6-9.5,11-13.1s9.4-6.4,15-8.4
	s11.4-2.9,17.4-2.9c5.6,0,10.5,1,14.8,2.9c4.3,2,7.8,4.7,10.5,8.4c2.7,3.6,4.5,8,5.6,13.1c1,5.1,1.1,10.8,0.2,17.1l-1.1,7.6h-56
	c0.3,4.7,1.9,8.4,4.7,11.1c2.8,2.8,6.6,4.1,11.3,4.1c9.9,0,12.1-5.7,13.8-9.6L-150.5,441.1z M-168,416.9c0.6-4.1-4.4-13.2-12.7-13.2
	c-2.7,0-5.1,0.4-7.2,1.3c-2.1,0.9-4,2-5.6,3.3c-1.6,1.4-5.8,6.6-6.3,8.5L-168,416.9L-168,416.9z"/>
<path class="st2" d="M-29.3,457.4h-0.3c-3,4.2-6.6,7.2-10.9,9s-8.8,2.7-13.3,2.7c-3.4,0-6.5-0.5-9.5-1.5c-3-1-5.5-2.6-7.6-4.6
	s-3.7-4.6-4.7-7.6s-1.2-6.5-0.7-10.5c0.9-6.8,3.2-12,7-15.7s8.3-6.4,13.4-8.2c5.2-1.8,10.6-2.8,16.3-3.1c5.7-0.3,12.7-0.5,17.4-0.5
	c0,0,3.3-8.3-0.8-13.1c-2.3-2.7-9-2.4-13.6-0.9c-3.5,1.1-6.6,7.8-6.6,7.8l-21.2-0.4c1.4-9,7.8-16.3,13.2-19.2
	c5.4-2.9,12.5-4.6,18.5-4.6c6.5,0,12.7,1.2,16.7,3s10.7,5.6,12.8,9s2.7,7.8,1.6,13.2c-1,4.9-2.5,8.7-3.4,15.3c0,0-5.2,20.4-5.9,25.9
	s-0.6,14.6-0.6,14.6h-18.9L-29.3,457.4z M-31.7,432.9c-1.7,0-3.8,0.1-6.3,0.2s-5,0.6-7.4,1.4s-4.5,1.9-6.4,3.4
	c-1.8,1.5-2.9,3.6-3.2,6.3c-0.2,1.5-0.1,2.8,0.4,3.8s1.2,1.9,2.1,2.7c0.9,0.8,1.9,1.3,3.2,1.6c1.2,0.3,2.4,0.5,3.6,0.5
	c2.2,0,4.3-0.3,6.4-1c2.1-0.6,3.6-2,5.4-3.2c1.7-1.2,3.2-2.7,4.4-4.5c1.2-1.8,2.3-3.6,2.6-6l0.6-5.2L-31.7,432.9L-31.7,432.9z"/>
<path class="st2" d="M-103.2,402.1c13.2,0,12.8,8.4,12.8,8.4l19.3,0.1c0,0,2.2-7.2-2.6-13.5c0,0-2.9-4.5-12-8
	c-4.9-1.9-9.9-2.5-15.1-2.5c-4.1,0-10.5,0.5-14.7,1.4c-14,2.7-22.5,12.6-22.5,21c0,11,3.9,19.7,27.3,28.3c12.4,4.6,9,12,6.4,14.1
	c-1.9,1.6-5.5,2.3-8.3,2.3c-3.7,0-8.2-0.8-10.7-2.3c-1.7-1-3-3.9-3.2-6.1c-0.3-1.2-0.5-2.6-0.5-3.9c-8.4,0-19.3,0.1-19.3,0.1
	s-3.9,9.9,1,17.4c0,0,3.4,6.1,12.5,9c5.3,1.7,11.1,2.1,16.6,2.1c4.2,0,8.5-0.4,12.9-1.2c4.4-0.8,8.5-2.2,12.2-4.3
	c3.7-2,11.3-9.5,11.3-19c0-8.9-0.8-17.3-18.5-24.7c-8.2-3.4-16-6.8-16-12.1C-114.4,406.2-113.2,402.1-103.2,402.1z"/>
</svg>
