<?xml version="1.0" encoding="utf-8"?>
<!-- Generator: Adobe Illustrator 21.0.2, SVG Export Plug-In . SVG Version: 6.00 Build 0)  -->
<svg version="1.1" id="Calque_1" xmlns="http://www.w3.org/2000/svg" xmlns:xlink="http://www.w3.org/1999/xlink" x="0px" y="0px"
	 viewBox="0 0 500 500" style="enable-background:new 0 0 500 500;" xml:space="preserve">
<style type="text/css">
	.st0{fill:#1D1D1B;}
	.st1{fill:#364C9B;}
	.st2{fill:#FFFFFF;}
</style>
<path class="st0" d="M308,447.9c3.8-1.9,6-4.9,6-9.2c0-8.2-5.7-10.9-14.1-10.9h-20.7v40.7L264,427.8h-9.9l-16.7,44h9.8l3.4-9.8h16.5
	l3.3,9.8h10.1h20.1c7.9,0,15.5-3.9,15.5-12.8C316.1,453.5,313.4,449.4,308,447.9z M253.1,454.8l5.7-16.2h0.1l5.6,16.2H253.1z
	 M298,435.3c3.4,0,6.7,0.9,6.7,5.1c0,3.7-2.5,5.3-5.9,5.2H289l-0.1-10.3H298z M299.3,464.3h-10.4v-12.1h10.5c4.1,0,7,1.8,7,6.3
	C306.4,463.1,303.1,464.3,299.3,464.3z"/>
<polygon class="st0" points="407.7,427.8 397.5,445.1 387.2,427.8 376.3,427.8 392.5,454.6 392.5,471.8 402.2,471.8 402.2,454.9 
	418.5,427.8 "/>
<path class="st0" d="M361.4,426.7c-13.6,0-21.6,10.2-21.6,23.2c0,5.1,1.3,9.8,3.8,13.6h-16.4v-35.8h-9.7v44h28.1v-5.6
	c3.7,4.1,9.1,6.6,15.9,6.6c13.6,0,21.6-10.2,21.6-22.9C383.1,436.9,375.1,426.7,361.4,426.7z M361.5,464.7c-8.7,0-12-7.4-12-14.7
	c0-7.7,3.2-15.1,12-15.1c8.7,0,12,7.4,12,15.1C373.4,457.3,370.2,464.7,361.5,464.7z"/>
<path class="st0" d="M203.6,427.8l-11.7,30.9c0-10-9.9-12-13.1-12.8c-11-2.8-13.1-3.3-13.1-6.7c0-3.7,3.6-5,6.7-5
	c4.6,0,8.4,1.4,8.7,6.6h9.4c0-10.2-8.5-14.2-17.6-14.2c-7.9,0-16.2,4.2-16.4,13c-0.7-9.3-8.8-13-17.6-13c-7.9,0-16.4,4.3-16.4,13.3
	c0,8.3,6.6,10.8,13.1,12.5s13.1,2.5,13.1,7.3c0,4.5-5.2,5.5-8.6,5.5c-5.2,0-9.7-2.3-9.7-8.1h-9.3l-11-29.4H100l-16.7,44h9.8l3.4-9.8
	H113l3.3,9.8h10l-1.5-4.1c3.6,3.5,9,5.2,14.7,5.2c8.8,0,14.6-3.3,17-8.3c3.1,5.7,9.9,8.2,17,8.2c6.9,0,11.9-2,15-5.3l-1.6,4.3h9.8
	l3.4-9.8h16.5l3.3,9.8h10l-16.5-44L203.6,427.8z M99.1,454.8l5.7-16.1h0.1l5.6,16.1H99.1z M173.9,465.3c-5.2,0-9.7-2.3-9.7-8.1h-6.4
	c-1-8.7-9.9-10.5-13-11.3c-11-2.8-13.1-3.3-13.1-6.6c0-3.7,3.6-5,6.7-5c4.6,0,8.4,1.3,8.7,6.6h9.3c0.5,7.6,6.8,10,13.1,11.6
	c6.5,1.7,13.1,2.5,13.1,7.3C182.5,464.3,177.3,465.3,173.9,465.3z M202.7,454.8l5.7-16.1h0.1l5.6,16.1H202.7z"/>
<path class="st1" d="M417.5,356c0,3.3-2.7,6-6,6h-321c-3.3,0-6-2.7-6-6V35c0-3.3,2.7-6,6-6h321c3.3,0,6,2.7,6,6V356z"/>
<polygon class="st2" points="123.9,253.4 123.9,259.4 149.8,258.3 149.8,290.8 157.8,291.4 157.8,257.9 157.8,251 "/>
<polygon class="st2" points="193.9,253.4 193.9,259.4 168.3,258.3 168.3,290.8 160,291.4 160,257.9 160,251 "/>
<polygon class="st2" points="251.5,259.8 251.5,253.4 207.8,253.4 207.8,253.4 198.9,253.4 198.9,253.4 198.9,253.4 198.9,259.8 
	198.9,259.8 198.9,268.4 198.9,268.4 198.9,274.8 198.9,274.8 198.9,283.1 198.9,283.1 198.9,289.5 198.9,289.5 207.8,289.5 
	251.4,289.5 251.4,283.1 207.8,283.1 207.8,274.8 249.5,274.8 249.5,268.4 207.8,268.4 207.8,259.8 "/>
<path class="st2" d="M266.8,268.4c0-0.7,0-2,0-4.3c0-2.6,1.4-4.5,3.4-4.5h39.9v-6.2h-38.4l0,0c0,0-13.6-0.9-13.6,10.2
	c0,2.1-0.1,4.9-0.1,4.9v6.2h43.4c0,0.7,0,2,0,4.3c0,2.6-1.5,4.5-4.4,4.5h-38.9v6.2h38.4l0,0c0,0,13.6,0.9,13.6-10.2
	c0-1.2,0.1-11.2,0.1-11.2h-43.4V268.4z"/>
<path class="st2" d="M331.2,253.3L331.2,253.3h-0.1c-1.5,0-13.9-0.8-13.9,10.2c0,1.8,0,4.8,0,4.8v21.3h9.1v-14.9h36v14.9h9.1v-30
	v-6.1v-0.2L331.2,253.3L331.2,253.3z M362.2,268.5h-36v-0.2h-0.1c0-0.8,0-2,0-4.2c0-2.1,1.5-4.5,3.4-4.5h6.6v-0.1h26.1V268.5z"/>
<path class="st0" d="M70.8,387.2c0,0,0,5.8,0,8.2c0,3.2,2.1,2.8,2.8,2.8c31.6,0,352.4,0,355,0c0,2.2,0,8,0,8h2.8v-8
	c0,0,0.5-2.8-2.8-2.8c-31.9,0-352.3,0-354.9,0c0-2.2,0-8.2,0-8.2H70.8z"/>
</svg>
