<?xml version="1.0" encoding="utf-8"?>
<!-- Generator: Adobe Illustrator 19.1.0, SVG Export Plug-In . SVG Version: 6.00 Build 0)  -->
<svg version="1.1" id="Calque_1" xmlns="http://www.w3.org/2000/svg" xmlns:xlink="http://www.w3.org/1999/xlink" x="0px" y="0px"
	 viewBox="-345 170.9 500 500" style="enable-background:new -345 170.9 500 500;" xml:space="preserve">
<style type="text/css">
	.st0{fill:url(#SVGID_1_);}
	.st1{fill:#FFFFFF;}
</style>
<radialGradient id="SVGID_1_" cx="-27.7951" cy="313.2866" r="230.0766" gradientTransform="matrix(1 0 0 1 0 -0.22)" gradientUnits="userSpaceOnUse">
	<stop  offset="0" style="stop-color:#FFDC5C"/>
	<stop  offset="0.9816" style="stop-color:#D85C1E"/>
</radialGradient>
<ellipse class="st0" cx="-92.4" cy="420.9" rx="227.9" ry="228.5"/>
<path class="st1" d="M-195,435.1c0.9,11.1,9.5,16.3,19.8,16.3c9.6,0,18-8,18-8l18.3,13.1c-7.7,9.4-22.4,14.5-34.6,14.5
	c-30.7,0-48.3-16.7-48.3-43.4c0-21.6,14.4-45.4,45.7-45.4c29.2,0,40.3,21.4,40.3,42.4c0,4.5-0.6,8.5-0.9,10.6L-195,435.1z
	 M-161.9,417.1c0-6.3-3-17.2-15.7-17.2c-12,0-16.8,10.3-17.6,17.2H-161.9z"/>
<path class="st1" d="M-108.2,446c0,0,6.3,7.7,15.2,7.7c9.1,0,12.8-2.6,12.8-7c0-4.6-3-6.7-14-10c-20.1-5.8-27.8-15.7-27.6-25.7
	c0-16.2,15.4-28.4,39.3-28.4c11.2,0,23,4.9,27.3,11.1l-12.6,14.1c0,0-5.6-6.6-13.7-6.6c-7.3,0-11.4,2.6-11.4,6.9
	c0,4.2,3.8,6.3,15.6,10c18.4,5.5,25.9,13.9,26,26.4c0,16.2-14,28-41.6,28c-12.6,0-22.5-5.2-28.8-11.5L-108.2,446z"/>
<path class="st1" d="M-3.1,358.8v27.3h23.9v19.4H-3.1v30.9c0,10.2,5.4,14.9,14.3,14.9c4.1,0,6.1-0.2,8.9-0.7l0.2,19.9
	c-3.7,1.2-11,2.3-19.3,2.3c-9.6,0-17.7-2.9-22.6-7.3c-5.5-5-8.3-13.2-8.3-25.1v-34.9h-17.4v-19.4h17.4v-27.3H-3.1z"/>
<path class="st1" d="M-255.6,358.8v27.5h23.9v19.6h-23.9V437c0,10.3,5.4,15,14.3,15c4.1,0,6.1-0.2,8.9-0.7l0.2,20.1
	c-3.7,1.2-11,2.3-19.3,2.3c-9.6,0-17.7-3-22.6-7.3c-5.5-5.1-8.3-13.3-8.3-25.3V406h-17.4v-19.6h17.4v-27.5L-255.6,358.8z"/>
<path class="st1" d="M71.8,474c-27.5,0-48.7-16.8-48.7-45s20-46.2,50.5-46.2c28.7,0,47.9,18.4,47.9,44.8C121.5,459.4,97,474,72,474
	L71.8,474L71.8,474z M74.5,450c13.7,0,22.2-9.2,22.2-22.9c0-11.2-6.4-22.8-22.2-22.8c-16.5,0-22.9,11.5-22.9,22.9
	c0,12.9,8,22.8,22.7,22.8H74.5L74.5,450z"/>
</svg>
