<?xml version="1.0" encoding="utf-8"?>
<!-- Generator: Adobe Illustrator 19.1.0, SVG Export Plug-In . SVG Version: 6.00 Build 0)  -->
<svg version="1.1" id="Calque_1" xmlns="http://www.w3.org/2000/svg" xmlns:xlink="http://www.w3.org/1999/xlink" x="0px" y="0px"
	 viewBox="0 0 500 500" style="enable-background:new 0 0 500 500;" xml:space="preserve">
<style type="text/css">
	.st0{fill:#1A4596;}
</style>
<g>
	<path class="st0" d="M483.9,237.2c0.5-9.6-1.5-30.6-27.6-35c-12.3-1.6-21.4,6.5-24.8,10.3v-6.5h-29.8v75.8h29.8v-45
		c1.3-4,4.6-9.6,12.3-9.6c7.6,0,9.9,6.1,10.7,10.5v44.1h29.8v-44.4L483.9,237.2L483.9,237.2z"/>
	<path class="st0" d="M360.2,201.7c-19.6,0-35.9,13.7-40.1,32c-3.5-18.1-17.1-31.5-33.3-31.5c-8.8,0-16.9,4-23,10.6v-37.3h-29.8
		v106.2h29.8v-8.5c6.1,6.6,14.1,10.6,23,10.6c16.2,0,29.8-13.5,33.3-31.6c4.2,18.3,20.6,31.9,40.1,31.9c17.6,0,32.6-11,38.5-26.5
		h-27.6c0,0-3.1,5.2-10.9,5.2c-7.8,0-13.7-7.5-13.7-20.9s7.5-19.1,15.4-19.1c9.1,0,12.1,11.8,12.1,11.8h-9.5l-14.2,16.3h50.4
		c0.5-2.6,0.8-5.2,0.8-7.9C401.4,220.2,383,201.7,360.2,201.7z M277.2,261.7c-6.3,0-11.5-5.6-13.3-13.3v-10.8
		c1.7-7.7,7-13.3,13.3-13.3c7.7,0,13.9,8.4,13.9,18.7C291,253.3,284.8,261.7,277.2,261.7z"/>
	<path class="st0" d="M192.6,201.7c-19.4,0-35.7,13.5-40,31.5c0-1-0.1-2.1-0.2-3.3v-1.1h-0.1c-1.5-10.2-7.3-23.3-27.2-26.7
		c-12.3-1.6-21.4,6.5-24.8,10.3v-37H70.3v29.8H56v-29.8H26.2v29.8H15.8v17.2h10.4v41.2h0.2c1.6,16,17.2,18.8,24,18.6
		c7.2-0.2,15.9-0.6,15.9-0.6v-23.6c0,0-3,1.2-6.2-0.2c-2.7-1.2-3.7-4.4-4.1-6.9v-28.5h14.3v59.1h29.8v-45c1.3-4,4.6-9.6,12.3-9.6
		c6.2,0,8.9,4.1,10.1,8v46.7h29.8v-30.2c3.9,18.6,20.5,32.6,40.3,32.6c17.6,0,32.6-11,38.5-26.5h-27.6c0,0-3.1,5.2-10.9,5.2
		c-7.8,0-13.7-7.5-13.7-20.9s7.5-19.1,15.4-19.1c9.1,0,12.1,11.8,12.1,11.8h-9.5l-14.2,16.3H233c0.5-2.6,0.8-5.2,0.8-7.9
		C233.8,220.2,215.3,201.7,192.6,201.7z"/>
</g>
<g>
	<path class="st0" d="M26.5,314.5h-7l4.5-17.8c0.1-0.5-0.2-0.9-0.7-0.9h-2.1c-0.5,0-1,0.4-1.1,0.9l-5.2,20.7
		c-0.1,0.5,0.2,0.9,0.7,0.9h10c0.5,0,1-0.4,1.1-0.9l0.5-2C27.3,314.9,27,314.5,26.5,314.5z"/>
	<path class="st0" d="M48,301.2h-1.9c-0.5,0-1,0.4-1.1,0.9l-0.1,0.5c-0.3-0.4-0.7-0.7-1.1-0.9c-1-0.6-2.2-0.9-3.6-0.9
		c-2.4,0-4.7,0.9-6.9,2.6c-2.1,1.7-3.5,3.8-4.2,6.3c-0.6,2.5-0.3,4.6,1,6.3c1.3,1.7,3.1,2.6,5.5,2.6c1.3,0,2.7-0.3,4-0.9
		c0.6-0.3,1.2-0.6,1.7-0.9l-0.1,0.5c-0.1,0.5,0.2,0.9,0.7,0.9h1.9c0.5,0,1-0.4,1.1-0.9l3.8-15.3C48.8,301.6,48.5,301.2,48,301.2z
		 M34.3,314.4c-0.7-0.5-1.1-1.1-1.4-2c-0.3-0.9-0.3-1.7,0-2.6c0.2-0.9,0.7-1.8,1.4-2.6c0.7-0.8,1.5-1.5,2.4-1.9
		c0.9-0.5,1.8-0.7,2.8-0.7c1.5,0,2.5,0.5,3.3,1.5c0.7,1,0.9,2.3,0.5,3.8c-0.2,1-0.7,1.9-1.3,2.7c-0.6,0.8-1.4,1.4-2.3,1.9
		C37.5,315.3,35.6,315.3,34.3,314.4z"/>
	<path class="st0" d="M63,307.9c-1.2-0.7-1.6-1.2-1.7-1.4c-0.2-0.3-0.2-0.6-0.1-0.8c0.1-0.3,0.3-0.6,0.6-0.8c1-0.8,2.2-0.4,3.3,0.9
		c0.1,0.2,0.3,0.2,0.6,0.3c0.2,0,0.5-0.1,0.7-0.3l1.6-1.3c0.2-0.2,0.4-0.4,0.4-0.6c0.1-0.2,0-0.5-0.1-0.6c-2.3-2.9-5.7-2.9-8.3-0.9
		c-1.2,0.9-2,2.1-2.4,3.5c-0.3,1.1-0.2,2.1,0.2,2.9c0.4,0.8,1.2,1.6,2.5,2.4c1.3,0.8,1.7,1.2,1.8,1.4c0.2,0.3,0.2,0.6,0.1,0.9
		c-0.1,0.4-0.4,0.8-0.8,1.1c-1.2,0.9-2.7,0.7-3.7-0.9c-0.1-0.2-0.3-0.3-0.6-0.3h0c-0.3,0-0.5,0.1-0.8,0.3l-1.6,1.4
		c-0.4,0.3-0.5,0.8-0.3,1.1c0.4,0.8,1,1.4,1.8,1.8c0.8,0.4,1.7,0.7,2.7,0.7c1.6,0,3-0.5,4.3-1.6c1.3-1,2.2-2.3,2.6-3.8
		c0.3-1.1,0.2-2.1-0.2-2.9C65.3,309.5,64.4,308.7,63,307.9z"/>
	<path class="st0" d="M78.7,300.8c-2.8,0-5.4,1.1-7.6,3.2c-1.7,1.7-2.9,3.6-3.4,5.7c-0.6,2.3-0.3,4.3,0.8,6.1
		c1.1,1.8,3.1,2.8,5.8,2.8c1.2,0,2.4-0.2,3.5-0.6c1.1-0.4,2.1-0.9,3.1-1.7c1-0.7,1.9-1.7,2.8-2.8c0.3-0.4,0.3-1-0.1-1.2l-1.4-0.9
		c-0.4-0.2-0.9-0.1-1.3,0.3c-0.8,0.9-1.4,1.6-2,2c-0.5,0.4-1.1,0.7-1.8,0.9c-0.7,0.2-1.4,0.4-2,0.4c-1.4,0-2.4-0.5-3.1-1.4
		c-0.6-0.8-0.8-1.7-0.7-2.8h12.8c0.2,0,0.5-0.1,0.7-0.3c0.2-0.2,0.4-0.4,0.4-0.6c0.6-2.3,0.4-4.2-0.4-5.8
		C83.7,301.9,81.6,300.8,78.7,300.8z M74.3,305.7c1.1-0.8,2.3-1.2,3.6-1.2c0.8,0,1.5,0.2,2.1,0.5c0.6,0.3,1.1,0.7,1.3,1.3
		c0.2,0.3,0.3,0.6,0.3,1.1h-8.9C73.2,306.6,73.7,306.1,74.3,305.7z"/>
	<path class="st0" d="M76.9,300.2h1.9c0.2,0,0.5-0.1,0.7-0.3l5.2-4.3c0.3-0.3,0.5-0.6,0.4-1c-0.1-0.3-0.3-0.5-0.7-0.5h-3
		c-0.3,0-0.6,0.1-0.8,0.4l-4.2,4.3c-0.3,0.3-0.4,0.6-0.3,0.9C76.3,300,76.5,300.2,76.9,300.2z"/>
	<path class="st0" d="M97.2,304.5c2,0,3.4,0.8,4.2,2.3c0.2,0.4,0.7,0.5,1.1,0.2l1.8-1c0.5-0.3,0.8-0.8,0.6-1.2
		c-0.3-0.9-0.8-1.6-1.4-2.1c-0.6-0.6-1.4-1-2.3-1.3c-2.4-0.9-5.5-0.6-8.2,0.7c-1.6,0.8-3.1,1.9-4.2,3.3c-1.2,1.4-2,2.9-2.4,4.6
		c-0.6,2.4-0.2,4.5,1.1,6.2c1.3,1.7,3.3,2.6,6,2.6c1.7,0,3.3-0.3,4.9-1c1.5-0.7,2.9-1.6,4-2.9c0.2-0.2,0.3-0.4,0.3-0.7
		c0-0.2-0.1-0.4-0.2-0.6l-1.3-1c-0.3-0.3-0.9-0.2-1.2,0.2c-1.7,1.6-3.4,2.3-5.4,2.3c-1.1,0-2-0.2-2.7-0.7c-0.7-0.5-1.2-1.1-1.5-1.9
		c-0.3-0.9-0.3-1.7-0.1-2.7c0.4-1.5,1.2-2.7,2.5-3.7C94.1,305,95.5,304.5,97.2,304.5z"/>
	<path class="st0" d="M121.9,301.2h-2c-0.5,0-1,0.4-1.1,0.9l-1.8,7.1c-0.6,2.4-1,3.2-1.1,3.5c-0.4,0.7-0.9,1.2-1.7,1.6
		c-1.4,0.9-3.5,0.9-4.6,0c-0.5-0.4-0.8-1-0.8-1.7c0-0.4,0.1-1.3,0.6-3.3l1.8-7.1c0.1-0.5-0.2-0.9-0.7-0.9h-2c-0.5,0-1,0.4-1.1,0.9
		l-1.9,7.4c-0.6,2.3-0.8,4-0.5,5.3c0.3,1.2,0.9,2.2,1.8,2.9c1,0.7,2.3,1,3.9,1c1.6,0,3.1-0.4,4.4-1c1.3-0.7,2.4-1.7,3.3-2.9
		c0.9-1.2,1.5-2.9,2.1-5.1l1.9-7.5C122.7,301.6,122.4,301.2,121.9,301.2z"/>
	<path class="st0" d="M135.3,295.6c-0.6,0.5-1,1.1-1.2,1.8c-0.2,0.7-0.1,1.3,0.3,1.8c0.4,0.5,0.9,0.7,1.6,0.7c0.7,0,1.4-0.3,2-0.7
		c0.6-0.5,1-1.1,1.2-1.8c0.2-0.7,0.1-1.3-0.3-1.8C138.1,294.7,136.5,294.7,135.3,295.6z"/>
	<path class="st0" d="M136.6,301.2h-2c-0.3,0-0.6,0.2-0.8,0.4c0-0.1-0.1-0.1-0.2-0.2c-1.5-1-3.1-0.8-4.8,0.2
		c-0.2,0.1-0.4,0.2-0.6,0.4c0.1-0.4-0.2-0.8-0.7-0.8h-2c-0.5,0-1,0.4-1.1,0.9l-3.8,15.3c-0.1,0.5,0.2,0.9,0.7,0.9h2
		c0.5,0,1-0.4,1.1-0.9l1.3-5.2c0.8-3.2,1.3-4.5,1.6-5c0.5-1,1.1-1.7,1.6-2.1c0.5-0.4,1-0.6,1.4-0.6c0.1,0,0.3,0,0.6,0.2
		c0.4,0.2,0.9,0,1.2-0.4l1-1.2l-3.6,14.2c-0.1,0.5,0.2,0.9,0.7,0.9h2c0.5,0,1-0.4,1.1-0.9l3.8-15.3
		C137.4,301.6,137.1,301.2,136.6,301.2z"/>
	<path class="st0" d="M147.5,301.2h-2.2l1.2-4.8c0.1-0.5-0.2-0.9-0.7-0.9h-2c-0.5,0-1,0.4-1.1,0.9l-1.2,4.8h-1.8
		c-0.5,0-1,0.4-1.1,0.9l-0.4,1.7c-0.1,0.5,0.2,0.9,0.7,0.9h1.8l-3.2,12.7c-0.1,0.5,0.2,0.9,0.7,0.9h2c0.5,0,1-0.4,1.1-0.9l3.2-12.7
		h2.2c0.5,0,1-0.4,1.1-0.9l0.4-1.7C148.3,301.6,148,301.2,147.5,301.2z"/>
	<path class="st0" d="M157.6,300.8c-2.8,0-5.4,1.1-7.6,3.2c-1.7,1.7-2.9,3.6-3.4,5.7c-0.6,2.3-0.3,4.3,0.8,6.1
		c1.1,1.8,3.1,2.8,5.8,2.8c1.2,0,2.4-0.2,3.5-0.6c1.1-0.4,2.1-0.9,3.1-1.7c1-0.7,1.9-1.7,2.8-2.8c0.3-0.4,0.3-1-0.1-1.2l-1.4-0.9
		c-0.4-0.2-0.9-0.1-1.3,0.3c-0.8,0.9-1.4,1.6-2,2c-0.5,0.4-1.1,0.7-1.8,0.9c-0.7,0.2-1.4,0.4-2,0.4c-1.4,0-2.4-0.5-3.1-1.4
		c-0.6-0.8-0.8-1.7-0.7-2.8h12.8c0.2,0,0.5-0.1,0.7-0.3c0.2-0.2,0.4-0.4,0.4-0.6c0.6-2.3,0.4-4.2-0.4-5.8
		C162.6,301.9,160.5,300.8,157.6,300.8z M153.2,305.7c1.1-0.8,2.3-1.2,3.6-1.2c0.8,0,1.5,0.2,2.1,0.5c0.6,0.3,1.1,0.7,1.3,1.3
		c0.2,0.3,0.3,0.6,0.3,1.1h-8.9C152.1,306.6,152.6,306.1,153.2,305.7z"/>
	<path class="st0" d="M155.8,300.2h1.9c0.2,0,0.5-0.1,0.7-0.3l5.2-4.3c0.3-0.3,0.5-0.6,0.4-1c-0.1-0.3-0.3-0.5-0.7-0.5h-3
		c-0.3,0-0.6,0.1-0.8,0.4l-4.1,4.3c-0.3,0.3-0.4,0.6-0.3,0.9C155.2,300,155.4,300.2,155.8,300.2z"/>
	<path class="st0" d="M193.8,295.3h-1.9c-0.5,0-1,0.4-1.1,0.9l-1.6,6.4c-0.3-0.4-0.7-0.7-1.1-0.9c-1-0.6-2.2-0.9-3.6-0.9
		c-2.4,0-4.7,0.9-6.9,2.6c-2.1,1.7-3.5,3.8-4.2,6.3c-0.6,2.5-0.3,4.6,1,6.3c1.3,1.7,3.1,2.6,5.5,2.6c1.4,0,2.7-0.3,4-0.9
		c0.6-0.3,1.1-0.6,1.7-0.9l-0.1,0.5c-0.1,0.5,0.2,0.9,0.7,0.9h1.9c0.5,0,1-0.4,1.1-0.9l5.3-21.2
		C194.6,295.7,194.3,295.3,193.8,295.3z M178.6,314.4c-0.7-0.5-1.1-1.1-1.4-2c-0.3-0.9-0.3-1.7,0-2.6c0.2-0.9,0.7-1.8,1.4-2.6
		c0.7-0.8,1.5-1.5,2.4-1.9c0.9-0.5,1.8-0.7,2.8-0.7c1.5,0,2.5,0.5,3.3,1.5c0.7,1,0.9,2.3,0.5,3.8c-0.2,1-0.7,1.9-1.3,2.7
		c-0.6,0.8-1.4,1.4-2.3,1.9C181.9,315.3,180,315.3,178.6,314.4z"/>
	<path class="st0" d="M202.2,295.3h-2.5c-0.5,0-1,0.4-1.1,0.9l-1,3.9c-0.1,0.5,0.2,0.9,0.7,0.9h0.2c-0.1,0.1-0.1,0.3-0.2,0.4
		c-0.2,0.4-0.5,0.9-1,1.5c-0.3,0.4-0.3,0.9,0.1,1.2l0.9,0.6c0.1,0.1,0.3,0.1,0.4,0.1c0.1,0,0.2,0,0.3,0c0.3-0.1,0.5-0.2,0.7-0.5
		c0.8-1,1.3-1.9,1.7-2.6c0.4-0.8,0.7-1.8,1-3.1l0.6-2.4C203,295.7,202.7,295.3,202.2,295.3z"/>
	<path class="st0" d="M220,301.2h-2c-0.5,0-1,0.4-1.1,0.9l-1.8,7.1c-0.6,2.4-1,3.2-1.1,3.5c-0.4,0.7-0.9,1.2-1.7,1.6
		c-1.4,0.9-3.5,0.9-4.6,0c-0.5-0.4-0.8-1-0.8-1.7c0-0.4,0.1-1.3,0.6-3.3l1.8-7.1c0.1-0.5-0.2-0.9-0.7-0.9h-2c-0.5,0-1,0.4-1.1,0.9
		l-1.9,7.4c-0.6,2.3-0.7,4-0.5,5.3c0.3,1.2,0.9,2.2,1.8,2.9c1,0.7,2.3,1,3.9,1c1.6,0,3.1-0.4,4.4-1c1.3-0.7,2.4-1.7,3.3-2.9
		c0.9-1.2,1.5-2.9,2.1-5.1l1.9-7.5C220.8,301.6,220.5,301.2,220,301.2z"/>
	<path class="st0" d="M235.4,301.8c-1.7-1.3-4.5-1.3-7-0.1c-0.5,0.2-1,0.5-1.5,0.9l0.1-0.5c0.1-0.5-0.2-0.9-0.7-0.9h-2
		c-0.5,0-1,0.4-1.1,0.9l-3.8,15.3c-0.1,0.5,0.2,0.9,0.7,0.9h2c0.5,0,1-0.4,1.1-0.9l1.4-5.6c0.6-2.4,1-3.5,1.2-3.9
		c0.5-1,1.2-1.8,2.2-2.5c1.8-1.2,3.8-1.2,4.7-0.4c0.4,0.4,0.6,1,0.5,1.8c0,0.4-0.1,1.2-0.6,3.3l-1.8,7.3c-0.1,0.5,0.2,0.9,0.7,0.9h2
		c0.5,0,1-0.4,1.1-0.9l2-7.9c0.6-2.2,0.7-3.8,0.5-4.9C236.8,303.4,236.3,302.5,235.4,301.8z"/>
	<path class="st0" d="M249.1,300.8c-2.8,0-5.4,1.1-7.6,3.2c-1.7,1.7-2.9,3.6-3.4,5.7c-0.6,2.3-0.3,4.3,0.8,6.1
		c1.1,1.8,3.1,2.8,5.8,2.8c1.2,0,2.4-0.2,3.5-0.6c1.1-0.4,2.1-0.9,3.1-1.7c1-0.7,1.9-1.7,2.8-2.8c0.3-0.4,0.3-1-0.1-1.2l-1.4-0.9
		c-0.4-0.2-0.9-0.1-1.3,0.3c-0.8,0.9-1.4,1.6-2,2c-0.5,0.4-1.1,0.7-1.8,0.9c-0.7,0.2-1.4,0.4-2,0.4c-1.4,0-2.4-0.5-3.1-1.4
		c-0.6-0.8-0.8-1.7-0.7-2.8h12.8c0.2,0,0.5-0.1,0.7-0.3c0.2-0.2,0.4-0.4,0.4-0.6c0.6-2.3,0.4-4.2-0.4-5.8
		C254,301.9,252,300.8,249.1,300.8z M244.6,305.7c1.1-0.8,2.3-1.2,3.6-1.2c0.8,0,1.5,0.2,2.1,0.5c0.6,0.3,1.1,0.7,1.3,1.3
		c0.2,0.3,0.3,0.6,0.3,1.1h-8.9C243.6,306.6,244.1,306.1,244.6,305.7z"/>
	<path class="st0" d="M283.7,301.2h-2c-0.5,0-1,0.4-1.1,0.9l-0.1,0.5c-0.4-0.4-0.9-0.7-1.3-1c-2.1-1.2-5.2-1.1-8.1,0.4
		c-1.6,0.8-2.9,1.9-4.1,3.2c-1.1,1.4-1.9,2.8-2.3,4.4c-0.4,1.6-0.4,3,0,4.3c0.4,1.3,1.2,2.4,2.4,3.1c2.2,1.4,5.2,1.5,8.1,0.3
		c0.5-0.2,1.1-0.5,1.6-0.8c-0.3,1-0.7,1.6-0.9,1.9c-0.5,0.6-1.1,1.1-2,1.5c-1.8,0.9-4.6,0.8-6,0c-0.7-0.4-1.1-1-1.4-1.9
		c-0.1-0.3-0.3-0.5-0.7-0.5h-2.1c-0.3,0-0.6,0.2-0.9,0.4c-0.2,0.3-0.3,0.6-0.3,0.9c0.3,1.3,0.7,2.3,1.2,3c0.6,0.7,1.4,1.3,2.4,1.7
		c1,0.4,2.3,0.6,3.7,0.6c1.9,0,3.8-0.4,5.4-1.3c1.7-0.9,3-2.1,4-3.7c0.7-1.1,1.3-2.7,1.9-5l3.1-12.2
		C284.5,301.6,284.2,301.2,283.7,301.2z M268.5,309.7c0.2-1,0.7-1.8,1.4-2.6c0.7-0.8,1.5-1.4,2.4-1.9c0.9-0.5,1.9-0.7,2.8-0.7
		c0.9,0,1.7,0.2,2.4,0.7c0.7,0.4,1.1,1,1.4,1.8c0.2,0.8,0.2,1.7,0,2.6c-0.4,1.5-1.1,2.7-2.3,3.6c-1.2,0.9-2.5,1.4-4.1,1.4
		c-1.6,0-2.7-0.5-3.4-1.4C268.3,312.3,268.1,311.2,268.5,309.7z"/>
	<path class="st0" d="M295.5,302c0-0.2-0.1-0.4-0.3-0.6c-1.5-1-3.1-0.8-4.8,0.2c-0.2,0.1-0.4,0.2-0.6,0.4c0.1-0.4-0.2-0.8-0.7-0.8
		h-2c-0.5,0-1,0.4-1.1,0.9l-3.8,15.3c-0.1,0.5,0.2,0.9,0.7,0.9h2c0.5,0,1-0.4,1.1-0.9l1.3-5.2c0.8-3.2,1.3-4.5,1.6-5
		c0.5-1,1.1-1.7,1.6-2.1c0.5-0.4,1-0.6,1.4-0.6c0.1,0,0.3,0,0.6,0.2c0.4,0.2,0.9,0,1.2-0.4l1.4-1.7
		C295.4,302.5,295.5,302.2,295.5,302z"/>
	<path class="st0" d="M311.8,301.2h-1.9c-0.5,0-1,0.4-1.1,0.9l-0.1,0.5c-0.3-0.4-0.7-0.7-1.1-0.9c-1-0.6-2.2-0.9-3.6-0.9
		c-2.4,0-4.7,0.9-6.9,2.6c-2.1,1.7-3.5,3.8-4.2,6.3c-0.6,2.5-0.3,4.6,1,6.3c1.3,1.7,3.1,2.6,5.5,2.6c1.4,0,2.7-0.3,4-0.9
		c0.6-0.3,1.1-0.6,1.7-0.9l-0.1,0.5c-0.1,0.5,0.2,0.9,0.7,0.9h1.9c0.5,0,1-0.4,1.1-0.9l3.8-15.3
		C312.6,301.6,312.3,301.2,311.8,301.2z M298,314.4c-0.7-0.5-1.1-1.1-1.4-2c-0.3-0.9-0.3-1.7,0-2.6c0.2-0.9,0.7-1.8,1.4-2.6
		c0.7-0.8,1.5-1.5,2.4-1.9c0.9-0.5,1.8-0.7,2.8-0.7c1.5,0,2.5,0.5,3.3,1.5c0.7,1,0.9,2.3,0.5,3.8c-0.3,1-0.7,1.9-1.3,2.7
		c-0.6,0.8-1.4,1.4-2.4,1.9C301.3,315.3,299.4,315.3,298,314.4z"/>
	<path class="st0" d="M327.3,301.8c-1.7-1.3-4.5-1.3-7-0.1c-0.5,0.2-1,0.5-1.5,0.9l0.1-0.5c0.1-0.5-0.2-0.9-0.7-0.9h-2
		c-0.5,0-1,0.4-1.1,0.9l-3.8,15.3c-0.1,0.5,0.2,0.9,0.7,0.9h2c0.5,0,1-0.4,1.1-0.9l1.4-5.6c0.6-2.4,1-3.5,1.2-3.9
		c0.5-1,1.2-1.8,2.2-2.5c1.8-1.2,3.8-1.2,4.7-0.4c0.4,0.4,0.6,1,0.5,1.8c0,0.4-0.1,1.2-0.6,3.3l-1.8,7.3c-0.1,0.5,0.2,0.9,0.7,0.9h2
		c0.5,0,1-0.4,1.1-0.9l2-7.9c0.6-2.2,0.7-3.8,0.5-4.9C328.7,303.4,328.1,302.5,327.3,301.8z"/>
	<path class="st0" d="M350.5,295.3h-1.9c-0.5,0-1,0.4-1.1,0.9l-1.6,6.4c-0.3-0.4-0.7-0.7-1.1-0.9c-1-0.6-2.2-0.9-3.6-0.9
		c-2.4,0-4.7,0.9-6.9,2.6c-2.1,1.7-3.5,3.8-4.2,6.3c-0.6,2.5-0.3,4.6,1,6.3c1.3,1.7,3.1,2.6,5.5,2.6c1.4,0,2.7-0.3,4-0.9
		c0.6-0.3,1.1-0.6,1.7-0.9l-0.1,0.5c-0.1,0.5,0.2,0.9,0.7,0.9h1.9c0.5,0,1-0.4,1.1-0.9l5.3-21.2
		C351.2,295.7,350.9,295.3,350.5,295.3z M335.2,314.4c-0.7-0.5-1.1-1.1-1.4-2c-0.3-0.9-0.3-1.7,0-2.6c0.2-0.9,0.7-1.8,1.4-2.6
		c0.7-0.8,1.5-1.5,2.4-1.9c0.9-0.5,1.8-0.7,2.8-0.7c1.5,0,2.5,0.5,3.3,1.5c0.7,1,0.9,2.3,0.5,3.8c-0.3,1-0.7,1.9-1.3,2.7
		c-0.6,0.8-1.4,1.4-2.3,1.9C338.5,315.3,336.6,315.3,335.2,314.4z"/>
	<path class="st0" d="M360.6,300.8c-2.8,0-5.4,1.1-7.6,3.2c-1.7,1.7-2.9,3.6-3.4,5.7c-0.6,2.3-0.3,4.3,0.8,6.1
		c1.1,1.8,3.1,2.8,5.8,2.8c1.2,0,2.4-0.2,3.5-0.6c1.1-0.4,2.1-0.9,3.1-1.7c1-0.7,1.9-1.7,2.8-2.8c0.3-0.4,0.3-1-0.1-1.2l-1.4-0.9
		c-0.4-0.2-0.9-0.1-1.3,0.3c-0.8,0.9-1.4,1.6-2,2c-0.5,0.4-1.1,0.7-1.8,0.9c-0.7,0.2-1.4,0.4-2,0.4c-1.4,0-2.4-0.5-3.1-1.4
		c-0.6-0.8-0.8-1.7-0.7-2.8H366c0.2,0,0.5-0.1,0.7-0.3c0.2-0.2,0.4-0.4,0.4-0.6c0.6-2.3,0.4-4.2-0.4-5.8
		C365.6,301.9,363.5,300.8,360.6,300.8z M356.1,305.7c1.1-0.8,2.3-1.2,3.6-1.2c0.8,0,1.5,0.2,2.1,0.5c0.6,0.3,1.1,0.7,1.3,1.3
		c0.2,0.3,0.3,0.6,0.3,1.1h-8.9C355.1,306.6,355.6,306.1,356.1,305.7z"/>
	<path class="st0" d="M400.9,301.8c-1.6-1.3-4.4-1.3-7,0.1c-0.8,0.4-1.5,1-2.2,1.6c-0.1-0.3-0.2-0.6-0.4-0.8c-0.4-0.6-0.9-1-1.6-1.4
		c-1.7-0.8-4-0.6-6.2,0.5c-0.3,0.2-0.6,0.3-0.9,0.5l0.1-0.3c0.1-0.5-0.2-0.9-0.7-0.9h-2c-0.5,0-1,0.4-1.1,0.9l-3.8,15.3
		c-0.1,0.5,0.2,0.9,0.7,0.9h2c0.5,0,1-0.4,1.1-0.9l1.6-6.5c0.4-1.8,0.9-3.1,1.5-3.9c0.5-0.8,1.1-1.4,1.9-1.8
		c1.4-0.8,2.9-0.9,3.6-0.2c0.3,0.3,0.5,0.7,0.6,1.1c0,0.4,0,1.3-0.6,3.5l-2,7.8c-0.1,0.5,0.2,0.9,0.7,0.9h2c0.5,0,1-0.4,1.1-0.9
		l1.5-6c0.6-2.6,1.2-3.8,1.6-4.4c0.5-0.8,1.1-1.4,1.9-1.8c1.4-0.8,2.9-0.9,3.7-0.3c0.3,0.3,0.5,0.6,0.6,1.1c0,0.3,0,1.1-0.5,3.1
		l-2.1,8.3c-0.1,0.5,0.2,0.9,0.7,0.9h2c0.5,0,1-0.4,1.1-0.9l2.1-8.3c0.5-2,0.7-3.6,0.5-4.6C402.2,303.3,401.7,302.4,400.9,301.8z"/>
	<path class="st0" d="M422.3,301.2h-1.9c-0.5,0-1,0.4-1.1,0.9l-0.1,0.5c-0.3-0.4-0.7-0.7-1.1-0.9c-1-0.6-2.2-0.9-3.6-0.9
		c-2.4,0-4.7,0.9-6.9,2.6c-2.1,1.7-3.5,3.8-4.2,6.3c-0.6,2.5-0.3,4.6,1,6.3c1.3,1.7,3.1,2.6,5.5,2.6c1.4,0,2.7-0.3,4-0.9
		c0.6-0.3,1.1-0.6,1.7-0.9l-0.1,0.5c-0.1,0.5,0.2,0.9,0.7,0.9h1.9c0.5,0,1-0.4,1.1-0.9l3.8-15.3C423,301.6,422.7,301.2,422.3,301.2z
		 M408.5,314.4c-0.7-0.5-1.1-1.1-1.4-2c-0.3-0.9-0.3-1.7,0-2.6c0.2-0.9,0.7-1.8,1.4-2.6c0.7-0.8,1.5-1.5,2.4-1.9
		c0.9-0.5,1.8-0.7,2.8-0.7c1.5,0,2.5,0.5,3.3,1.5c0.7,1,0.9,2.3,0.5,3.8c-0.3,1-0.7,1.9-1.3,2.7c-0.6,0.8-1.4,1.4-2.4,1.9
		C411.8,315.3,409.9,315.3,408.5,314.4z"/>
	<path class="st0" d="M434.3,302c0-0.2-0.1-0.4-0.3-0.6c-1.5-1-3.1-0.8-4.8,0.2c-0.2,0.1-0.4,0.2-0.6,0.4c0.1-0.4-0.2-0.8-0.7-0.8
		h-2c-0.5,0-1,0.4-1.1,0.9l-3.8,15.3c-0.1,0.5,0.2,0.9,0.7,0.9h2c0.5,0,1-0.4,1.1-0.9l1.3-5.2c0.8-3.2,1.3-4.5,1.6-5
		c0.5-1,1.1-1.7,1.6-2.1c0.5-0.4,1-0.6,1.4-0.6c0.1,0,0.3,0,0.6,0.2c0.4,0.2,0.9,0,1.2-0.4l1.4-1.7
		C434.2,302.5,434.3,302.2,434.3,302z"/>
	<path class="st0" d="M450.3,301.2h-1.9c-0.5,0-1,0.4-1.1,0.9l-0.1,0.5c-0.3-0.4-0.7-0.7-1.1-0.9c-1-0.6-2.2-0.9-3.6-0.9
		c-2.4,0-4.7,0.9-6.9,2.6c-2.1,1.7-3.5,3.8-4.2,6.3c-0.6,2.5-0.3,4.6,1,6.3c1.3,1.7,3.1,2.6,5.5,2.6c1.3,0,2.7-0.3,4-0.9
		c0.6-0.3,1.1-0.6,1.7-0.9L442,323c-0.1,0.5,0.2,0.9,0.7,0.9h1.9c0.5,0,1-0.4,1.1-0.9l5.3-20.9C451.1,301.6,450.8,301.2,450.3,301.2
		z M436.6,314.4c-0.7-0.5-1.1-1.1-1.4-2c-0.3-0.9-0.3-1.7,0-2.6c0.2-0.9,0.7-1.8,1.4-2.6c0.7-0.8,1.5-1.5,2.4-1.9
		c0.9-0.5,1.8-0.7,2.8-0.7c1.5,0,2.5,0.5,3.3,1.5c0.7,1,0.9,2.3,0.5,3.8c-0.3,1-0.7,1.9-1.3,2.7c-0.6,0.8-1.4,1.4-2.3,1.9
		C439.8,315.3,438,315.3,436.6,314.4z"/>
	<path class="st0" d="M467.8,301.2h-2c-0.5,0-1,0.4-1.1,0.9l-1.8,7.1c-0.6,2.4-1,3.2-1.1,3.5c-0.4,0.7-0.9,1.2-1.7,1.6
		c-1.4,0.9-3.5,0.9-4.6,0c-0.5-0.4-0.8-1-0.8-1.7c0-0.4,0.1-1.3,0.6-3.3l1.8-7.1c0.1-0.5-0.2-0.9-0.7-0.9h-2c-0.5,0-1,0.4-1.1,0.9
		l-1.9,7.4c-0.6,2.3-0.7,4-0.5,5.3c0.3,1.2,0.9,2.2,1.8,2.9c1,0.7,2.3,1,3.9,1c1.6,0,3.1-0.4,4.4-1c1.3-0.7,2.4-1.7,3.3-2.9
		c0.9-1.2,1.5-2.9,2.1-5.1l1.9-7.5C468.6,301.6,468.3,301.2,467.8,301.2z"/>
	<path class="st0" d="M485.5,310.5c0.2-0.2,0.4-0.4,0.4-0.6c0.6-2.3,0.4-4.2-0.4-5.8c-1.2-2.2-3.2-3.3-6.1-3.3
		c-2.8,0-5.4,1.1-7.6,3.2c-1.7,1.7-2.9,3.6-3.4,5.7c-0.6,2.3-0.3,4.3,0.8,6.1c1.1,1.8,3.1,2.8,5.8,2.8c1.2,0,2.4-0.2,3.5-0.6
		c1.1-0.4,2.1-0.9,3.1-1.7c1-0.7,1.9-1.7,2.8-2.8c0.3-0.4,0.3-1-0.1-1.2l-1.4-0.9c-0.4-0.2-0.9-0.1-1.3,0.3c-0.8,0.9-1.4,1.6-2,2
		c-0.5,0.4-1.1,0.7-1.8,0.9c-0.7,0.2-1.4,0.4-2,0.4c-1.4,0-2.4-0.5-3.1-1.4c-0.6-0.8-0.8-1.7-0.7-2.8h12.8
		C485,310.8,485.3,310.7,485.5,310.5z M474.9,305.7c1.1-0.8,2.3-1.2,3.6-1.2c0.8,0,1.5,0.2,2.1,0.5c0.6,0.3,1.1,0.7,1.4,1.3
		c0.2,0.3,0.3,0.6,0.3,1.1h-8.9C473.9,306.6,474.4,306.1,474.9,305.7z"/>
</g>
</svg>
