<?xml version="1.0" encoding="utf-8"?>
<!-- Generator: Adobe Illustrator 15.0.0, SVG Export Plug-In . SVG Version: 6.00 Build 0)  -->
<!DOCTYPE svg PUBLIC "-//W3C//DTD SVG 1.1//EN" "http://www.w3.org/Graphics/SVG/1.1/DTD/svg11.dtd">
<svg version="1.1" id="Calque_1" xmlns="http://www.w3.org/2000/svg" xmlns:xlink="http://www.w3.org/1999/xlink" x="0px" y="0px"
	 width="500px" height="500px" viewBox="0 0 500 500" enable-background="new 0 0 500 500" xml:space="preserve">
<g>
	<path fill="#1A4596" d="M483.933,237.225c0.485-9.566-1.514-30.586-27.588-35.046c-12.306-1.56-21.363,6.529-24.828,10.261v-6.532
		H401.69v75.758h29.826v-45.018c1.338-3.97,4.589-9.639,12.302-9.639c7.584,0,9.943,6.123,10.664,10.542v44.114h29.826v-44.441
		H483.933z"/>
	<path fill="#1A4596" d="M360.232,201.732c-19.571,0-35.94,13.664-40.117,31.971c-3.514-18.062-17.063-31.524-33.255-31.524
		c-8.843,0-16.901,4.015-22.967,10.6v-37.294h-29.826v106.181h29.826v-8.513c6.065,6.584,14.124,10.602,22.967,10.602
		c16.216,0,29.781-13.502,33.271-31.605c4.202,18.27,20.556,31.901,40.102,31.901c17.563,0,32.56-11.003,38.468-26.489h-27.581
		c0,0-3.132,5.165-10.887,5.165c-7.756,0-13.721-7.457-13.721-20.878s7.456-19.089,15.36-19.089c9.097,0,12.08,11.782,12.08,11.782
		h-9.544l-14.168,16.286h50.387c0.501-2.567,0.765-5.22,0.765-7.934C401.392,220.16,382.965,201.732,360.232,201.732z
		 M277.167,261.682c-6.262,0-11.55-5.603-13.273-13.294v-10.842c1.724-7.692,7.012-13.295,13.273-13.295
		c7.66,0,13.869,8.379,13.869,18.716C291.036,253.303,284.827,261.682,277.167,261.682z"/>
	<path fill="#1A4596" d="M192.61,201.732c-19.42,0-35.688,13.455-40.019,31.548c-0.039-1.04-0.117-2.137-0.247-3.279v-1.128H152.2
		c-1.455-10.245-7.328-23.292-27.221-26.694c-12.308-1.56-21.365,6.53-24.83,10.261v-36.955H70.322v29.826H56.007v-29.826H26.181
		v29.826H15.816v17.224h10.365v41.235h0.194c1.571,15.979,17.207,18.816,24.002,18.604c7.158-0.225,15.883-0.633,15.883-0.633
		v-23.583c0,0-3.02,1.175-6.152-0.223c-2.745-1.218-3.749-4.365-4.1-6.912v-28.488h14.315v59.131h29.827V236.65
		c1.337-3.97,4.588-9.641,12.303-9.641c6.181,0,8.882,4.072,10.065,7.972v46.685h29.827v-30.231
		c3.933,18.631,20.464,32.616,40.266,32.616c17.564,0,32.56-11.003,38.469-26.489h-27.582c0,0-3.132,5.165-10.887,5.165
		c-7.755,0-13.72-7.457-13.72-20.878s7.456-19.089,15.36-19.089c9.097,0,12.079,11.782,12.079,11.782h-9.543l-14.168,16.286h50.387
		c0.502-2.567,0.765-5.22,0.765-7.934C233.77,220.16,215.342,201.732,192.61,201.732z"/>
</g>
<g>
	<path fill="#1A4596" d="M26.481,314.478h-7.048l4.472-17.76c0.125-0.496-0.177-0.897-0.673-0.897h-2.064
		c-0.495,0-0.999,0.401-1.124,0.897l-5.199,20.652c-0.125,0.496,0.177,0.899,0.672,0.899h10.01c0.497,0,1-0.403,1.125-0.899
		l0.501-1.994C27.278,314.879,26.978,314.478,26.481,314.478z"/>
	<path fill="#1A4596" d="M47.991,301.195h-1.937c-0.497,0-1,0.404-1.125,0.9l-0.13,0.519c-0.339-0.354-0.718-0.657-1.131-0.909
		c-0.989-0.598-2.198-0.901-3.594-0.901c-2.41,0-4.723,0.877-6.87,2.61c-2.144,1.731-3.544,3.843-4.157,6.277
		c-0.624,2.479-0.302,4.612,0.952,6.349c1.261,1.74,3.12,2.621,5.523,2.621c1.35,0,2.686-0.287,3.974-0.85
		c0.578-0.255,1.15-0.566,1.711-0.934l-0.124,0.492c-0.125,0.496,0.176,0.899,0.672,0.899h1.937c0.497,0,1-0.403,1.125-0.899
		l3.845-15.274C48.789,301.6,48.487,301.195,47.991,301.195z M34.271,314.358c-0.682-0.473-1.141-1.111-1.402-1.961
		c-0.264-0.853-0.28-1.718-0.047-2.644c0.236-0.936,0.684-1.802,1.372-2.645c0.68-0.839,1.454-1.469,2.361-1.93
		c0.909-0.462,1.811-0.685,2.75-0.685c1.463,0,2.535,0.496,3.276,1.514c0.745,1.021,0.918,2.265,0.531,3.801
		c-0.25,0.998-0.702,1.903-1.339,2.688c-0.639,0.785-1.408,1.396-2.348,1.858C37.537,315.286,35.641,315.302,34.271,314.358z"/>
	<path fill="#1A4596" d="M63.04,307.88c-1.238-0.73-1.616-1.181-1.735-1.393c-0.166-0.283-0.213-0.56-0.142-0.841
		c0.078-0.311,0.264-0.563,0.601-0.816c1.01-0.758,2.243-0.423,3.263,0.885c0.127,0.168,0.325,0.238,0.576,0.255
		c0.24-0.004,0.492-0.102,0.701-0.272l1.592-1.308c0.209-0.171,0.357-0.402,0.414-0.64c0.055-0.238,0.014-0.464-0.115-0.632
		c-2.266-2.888-5.715-2.899-8.269-0.911c-1.207,0.938-1.999,2.131-2.353,3.539c-0.272,1.076-0.208,2.052,0.184,2.896
		c0.382,0.816,1.211,1.596,2.538,2.382c1.338,0.783,1.73,1.221,1.84,1.402c0.162,0.279,0.196,0.576,0.108,0.93
		c-0.108,0.427-0.369,0.782-0.821,1.118c-1.202,0.896-2.724,0.676-3.707-0.872c-0.123-0.194-0.339-0.302-0.597-0.302h-0.001
		c-0.259,0-0.531,0.109-0.75,0.304l-1.589,1.405c-0.365,0.323-0.501,0.804-0.322,1.144c0.413,0.782,1.035,1.403,1.846,1.845
		c0.81,0.44,1.733,0.664,2.745,0.664c1.561,0,3.017-0.526,4.33-1.565c1.316-1.042,2.174-2.328,2.552-3.824
		c0.271-1.08,0.202-2.065-0.212-2.939C65.308,309.511,64.432,308.71,63.04,307.88z"/>
	<path fill="#1A4596" d="M78.731,300.804c-2.809,0-5.359,1.089-7.579,3.236c-1.732,1.671-2.882,3.601-3.419,5.734
		c-0.571,2.27-0.309,4.333,0.784,6.125c1.115,1.832,3.077,2.762,5.831,2.762c1.229,0,2.404-0.192,3.487-0.572
		c1.09-0.383,2.136-0.945,3.11-1.672c0.971-0.728,1.91-1.681,2.789-2.838c0.334-0.437,0.298-0.973-0.08-1.202l-1.437-0.871
		c-0.37-0.223-0.924-0.073-1.271,0.333c-0.777,0.912-1.445,1.568-1.983,1.953c-0.525,0.373-1.14,0.679-1.828,0.911
		c-0.693,0.232-1.381,0.351-2.048,0.351c-1.37,0-2.37-0.468-3.057-1.429c-0.554-0.773-0.771-1.708-0.657-2.839h12.77
		c0.239,0,0.494-0.098,0.705-0.266c0.213-0.171,0.364-0.401,0.422-0.644c0.554-2.282,0.411-4.222-0.427-5.768
		C83.67,301.915,81.613,300.804,78.731,300.804z M74.26,305.697c1.123-0.817,2.291-1.217,3.573-1.217
		c0.773,0,1.479,0.167,2.098,0.493c0.612,0.321,1.066,0.748,1.349,1.262c0.156,0.291,0.273,0.644,0.343,1.054h-8.87
		C73.225,306.618,73.73,306.086,74.26,305.697z"/>
	<path fill="#1A4596" d="M76.866,300.157h1.937c0.245,0,0.505-0.102,0.719-0.276l5.23-4.325c0.312-0.261,0.48-0.644,0.422-0.974
		c-0.058-0.33-0.329-0.545-0.688-0.545h-3.019c-0.291,0-0.602,0.14-0.828,0.377l-4.15,4.326c-0.263,0.274-0.377,0.635-0.3,0.931
		C76.269,299.971,76.529,300.157,76.866,300.157z"/>
	<path fill="#1A4596" d="M97.157,304.453c2.048,0,3.425,0.762,4.21,2.324c0.186,0.37,0.679,0.468,1.135,0.222l1.801-0.968
		c0.482-0.259,0.751-0.803,0.605-1.226c-0.298-0.863-0.755-1.585-1.357-2.149c-0.593-0.554-1.372-1.007-2.317-1.346
		c-2.444-0.872-5.527-0.6-8.173,0.67c-1.638,0.788-3.065,1.899-4.243,3.303c-1.176,1.403-1.98,2.941-2.392,4.576
		c-0.615,2.442-0.25,4.544,1.089,6.248c1.329,1.693,3.345,2.554,5.989,2.554c1.704,0,3.337-0.335,4.854-1.002
		c1.54-0.672,2.89-1.637,4.015-2.868c0.183-0.198,0.291-0.443,0.302-0.678c0.011-0.232-0.076-0.437-0.243-0.569l-1.301-1.024
		c-0.325-0.255-0.862-0.175-1.245,0.192c-1.65,1.574-3.412,2.342-5.385,2.342c-1.064,0-1.975-0.237-2.705-0.702
		c-0.731-0.467-1.22-1.104-1.493-1.947c-0.275-0.853-0.292-1.733-0.051-2.692c0.371-1.474,1.192-2.69,2.507-3.718
		C94.088,304.958,95.527,304.453,97.157,304.453z"/>
	<path fill="#1A4596" d="M121.936,301.195h-2.007c-0.497,0-1,0.404-1.125,0.9l-1.795,7.131c-0.596,2.367-0.958,3.185-1.119,3.461
		c-0.402,0.68-0.942,1.215-1.654,1.633c-1.449,0.856-3.535,0.859-4.6-0.021c-0.515-0.426-0.784-0.996-0.819-1.725
		c-0.014-0.394,0.079-1.291,0.596-3.348l1.794-7.131c0.125-0.496-0.175-0.9-0.672-0.9h-1.965c-0.496,0-1,0.404-1.125,0.9
		l-1.852,7.355c-0.585,2.322-0.75,4.041-0.504,5.252c0.252,1.242,0.875,2.228,1.849,2.923c0.962,0.686,2.285,1.035,3.933,1.035
		c1.648,0,3.143-0.35,4.443-1.038c1.312-0.695,2.421-1.669,3.294-2.896c0.853-1.196,1.544-2.878,2.113-5.136l1.886-7.495
		C122.733,301.6,122.432,301.195,121.936,301.195z"/>
	<path fill="#1A4596" d="M135.259,295.648c-0.603,0.486-1.014,1.101-1.186,1.786c-0.17,0.675-0.069,1.286,0.291,1.771
		c0.361,0.485,0.908,0.743,1.583,0.743c0.683,0,1.364-0.258,1.971-0.745c0.605-0.482,1.013-1.098,1.182-1.769
		c0.172-0.682,0.073-1.3-0.288-1.786C138.096,294.686,136.479,294.672,135.259,295.648z"/>
	<path fill="#1A4596" d="M136.621,301.195h-1.964c-0.314,0-0.619,0.172-0.842,0.416c-0.045-0.064-0.087-0.129-0.155-0.175
		c-1.474-0.961-3.114-0.779-4.793,0.168c-0.2,0.111-0.403,0.237-0.606,0.376c0.055-0.442-0.237-0.785-0.695-0.785h-2.007
		c-0.497,0-1,0.404-1.125,0.9l-3.845,15.274c-0.125,0.496,0.176,0.899,0.673,0.899h2.007c0.497,0,1-0.403,1.125-0.899l1.301-5.166
		c0.801-3.183,1.312-4.496,1.599-5.035c0.512-0.96,1.064-1.656,1.643-2.078c0.542-0.391,1.015-0.582,1.447-0.582
		c0.071,0,0.274,0.019,0.633,0.194c0.362,0.18,0.88,0.026,1.209-0.352l1.039-1.195l-3.579,14.214
		c-0.125,0.496,0.176,0.899,0.672,0.899h1.965c0.497,0,1.001-0.403,1.126-0.899l3.845-15.274
		C137.419,301.6,137.117,301.195,136.621,301.195z"/>
	<path fill="#1A4596" d="M147.502,301.195h-2.218l1.201-4.771c0.125-0.497-0.177-0.9-0.673-0.9h-1.965c-0.497,0-1,0.403-1.125,0.9
		l-1.202,4.771h-1.783c-0.496,0-1,0.404-1.125,0.9l-0.427,1.698c-0.125,0.495,0.176,0.898,0.672,0.898h1.784l-3.191,12.678
		c-0.125,0.496,0.176,0.899,0.672,0.899h1.965c0.497,0,1-0.403,1.125-0.899l3.191-12.678h2.217c0.497,0,1-0.403,1.125-0.898
		l0.428-1.698C148.299,301.6,147.998,301.195,147.502,301.195z"/>
	<path fill="#1A4596" d="M157.647,300.804c-2.81,0-5.359,1.089-7.579,3.236c-1.731,1.671-2.882,3.601-3.42,5.734
		c-0.572,2.27-0.308,4.333,0.785,6.125c1.115,1.832,3.077,2.762,5.83,2.762c1.23,0,2.405-0.192,3.488-0.572
		c1.09-0.383,2.136-0.945,3.11-1.672c0.971-0.728,1.91-1.681,2.789-2.838c0.334-0.437,0.297-0.973-0.08-1.202l-1.438-0.871
		c-0.369-0.223-0.924-0.073-1.271,0.333c-0.778,0.912-1.445,1.568-1.983,1.953c-0.525,0.373-1.14,0.679-1.828,0.911
		c-0.692,0.232-1.381,0.351-2.047,0.351c-1.37,0-2.37-0.468-3.057-1.429c-0.554-0.773-0.772-1.708-0.657-2.839h12.77
		c0.239,0,0.492-0.098,0.703-0.266c0.213-0.171,0.365-0.401,0.423-0.644c0.554-2.282,0.411-4.222-0.426-5.768
		C162.585,301.915,160.528,300.804,157.647,300.804z M153.175,305.697c1.122-0.817,2.291-1.217,3.573-1.217
		c0.773,0,1.479,0.167,2.098,0.493c0.612,0.321,1.066,0.748,1.348,1.262c0.158,0.291,0.274,0.644,0.345,1.054h-8.871
		C152.14,306.618,152.645,306.086,153.175,305.697z"/>
	<path fill="#1A4596" d="M155.78,300.157h1.937c0.245,0,0.505-0.102,0.72-0.276l5.229-4.325c0.314-0.261,0.48-0.644,0.422-0.974
		c-0.057-0.33-0.328-0.545-0.689-0.545h-3.018c-0.292,0-0.602,0.14-0.83,0.377l-4.148,4.326c-0.264,0.274-0.379,0.635-0.3,0.931
		C155.184,299.971,155.445,300.157,155.78,300.157z"/>
	<path fill="#1A4596" d="M193.829,295.299h-1.938c-0.496,0-1,0.403-1.124,0.898l-1.615,6.417c-0.339-0.354-0.718-0.657-1.13-0.909
		c-0.99-0.598-2.199-0.901-3.595-0.901c-2.41,0-4.722,0.877-6.87,2.61c-2.144,1.731-3.542,3.843-4.156,6.277
		c-0.624,2.479-0.303,4.612,0.952,6.349c1.261,1.74,3.119,2.621,5.522,2.621c1.35,0,2.687-0.287,3.974-0.85
		c0.578-0.255,1.15-0.566,1.711-0.934l-0.123,0.492c-0.125,0.496,0.176,0.899,0.672,0.899h1.938c0.496,0,1-0.403,1.125-0.899
		l5.33-21.173C194.625,295.702,194.324,295.299,193.829,295.299z M178.624,314.358c-0.683-0.473-1.14-1.111-1.403-1.961
		c-0.264-0.853-0.279-1.718-0.046-2.644c0.236-0.936,0.684-1.802,1.371-2.645c0.68-0.839,1.454-1.469,2.362-1.93
		c0.91-0.462,1.81-0.685,2.75-0.685c1.463,0,2.535,0.496,3.277,1.514c0.745,1.021,0.918,2.265,0.531,3.801
		c-0.25,0.998-0.702,1.903-1.34,2.688c-0.639,0.785-1.408,1.396-2.348,1.858C181.89,315.286,179.995,315.302,178.624,314.358z"/>
	<path fill="#1A4596" d="M202.167,295.299h-2.541c-0.496,0-1,0.403-1.125,0.898l-0.972,3.861c-0.125,0.497,0.176,0.898,0.672,0.898
		h0.207c-0.065,0.147-0.132,0.28-0.198,0.4c-0.196,0.353-0.548,0.865-1.046,1.529c-0.319,0.427-0.293,0.945,0.061,1.183l0.926,0.618
		c0.117,0.077,0.262,0.117,0.417,0.117c0.086,0,0.176-0.013,0.268-0.039c0.254-0.07,0.493-0.235,0.659-0.456
		c0.77-1.018,1.327-1.882,1.699-2.646c0.374-0.763,0.715-1.763,1.04-3.052l0.607-2.415
		C202.965,295.702,202.664,295.299,202.167,295.299z"/>
	<path fill="#1A4596" d="M220.001,301.195h-2.008c-0.496,0-1,0.404-1.125,0.9l-1.795,7.131c-0.596,2.367-0.958,3.185-1.118,3.461
		c-0.402,0.68-0.943,1.215-1.654,1.633c-1.45,0.856-3.534,0.859-4.6-0.021c-0.515-0.426-0.783-0.996-0.82-1.725
		c-0.013-0.394,0.08-1.291,0.597-3.348l1.795-7.131c0.125-0.496-0.176-0.9-0.672-0.9h-1.965c-0.497,0-1,0.404-1.125,0.9
		l-1.852,7.355c-0.584,2.322-0.749,4.041-0.504,5.252c0.252,1.242,0.875,2.228,1.849,2.923c0.962,0.686,2.285,1.035,3.932,1.035
		c1.649,0,3.144-0.35,4.444-1.038c1.312-0.695,2.421-1.669,3.294-2.896c0.853-1.196,1.543-2.878,2.112-5.136l1.887-7.495
		C220.798,301.6,220.497,301.195,220.001,301.195z"/>
	<path fill="#1A4596" d="M235.436,301.82c-1.687-1.324-4.537-1.327-7.045-0.128c-0.504,0.24-1.007,0.533-1.504,0.876l0.119-0.473
		c0.125-0.496-0.177-0.9-0.673-0.9h-1.965c-0.497,0-1,0.404-1.125,0.9l-3.845,15.274c-0.125,0.496,0.175,0.899,0.672,0.899h1.965
		c0.496,0,1-0.403,1.125-0.899l1.411-5.602c0.604-2.404,1.012-3.471,1.241-3.933c0.502-0.981,1.215-1.785,2.186-2.453
		c1.75-1.213,3.841-1.235,4.688-0.398c0.387,0.381,0.565,0.961,0.544,1.793c0,0.353-0.113,1.213-0.641,3.307l-1.834,7.286
		c-0.125,0.496,0.176,0.899,0.672,0.899h1.965c0.497,0,1-0.403,1.125-0.899l1.979-7.863c0.56-2.222,0.736-3.838,0.541-4.945
		C236.835,303.419,236.295,302.498,235.436,301.82z"/>
	<path fill="#1A4596" d="M249.099,300.804c-2.81,0-5.359,1.089-7.579,3.236c-1.732,1.671-2.882,3.601-3.419,5.734
		c-0.572,2.27-0.309,4.333,0.783,6.125c1.116,1.832,3.077,2.762,5.831,2.762c1.23,0,2.404-0.192,3.487-0.572
		c1.089-0.383,2.136-0.945,3.111-1.672c0.971-0.728,1.909-1.681,2.788-2.838c0.334-0.437,0.299-0.973-0.08-1.202l-1.437-0.871
		c-0.367-0.223-0.925-0.073-1.271,0.333c-0.778,0.912-1.446,1.568-1.983,1.953c-0.526,0.373-1.141,0.679-1.829,0.911
		c-0.692,0.232-1.382,0.351-2.049,0.351c-1.369,0-2.369-0.468-3.056-1.429c-0.554-0.773-0.772-1.708-0.658-2.839h12.77
		c0.239,0,0.493-0.098,0.704-0.266c0.214-0.171,0.364-0.401,0.422-0.644c0.555-2.282,0.411-4.222-0.426-5.768
		C254.038,301.915,251.979,300.804,249.099,300.804z M244.627,305.697c1.123-0.817,2.292-1.217,3.574-1.217
		c0.772,0,1.479,0.167,2.098,0.493c0.612,0.321,1.066,0.748,1.348,1.262c0.157,0.291,0.274,0.644,0.345,1.054h-8.871
		C243.592,306.618,244.098,306.086,244.627,305.697z"/>
	<path fill="#1A4596" d="M283.683,301.195h-1.965c-0.496,0-1,0.404-1.125,0.9l-0.128,0.508c-0.41-0.412-0.851-0.748-1.321-1.003
		c-2.141-1.164-5.18-1.052-8.058,0.388c-1.572,0.788-2.938,1.876-4.061,3.232c-1.119,1.352-1.888,2.832-2.281,4.398
		c-0.395,1.565-0.382,3.025,0.039,4.336c0.422,1.315,1.232,2.375,2.412,3.15c2.171,1.43,5.227,1.533,8.105,0.325
		c0.545-0.228,1.073-0.5,1.582-0.811c-0.343,1.005-0.667,1.565-0.907,1.873c-0.456,0.591-1.122,1.098-1.984,1.507
		c-1.801,0.859-4.621,0.839-5.965,0.016c-0.671-0.411-1.133-1.031-1.413-1.899c-0.089-0.28-0.344-0.451-0.666-0.451h-2.134
		c-0.307,0-0.631,0.155-0.861,0.414c-0.229,0.257-0.333,0.582-0.275,0.86c0.27,1.298,0.691,2.312,1.25,3.015
		c0.566,0.709,1.388,1.274,2.441,1.688c1.036,0.402,2.274,0.608,3.678,0.608c1.943,0,3.75-0.427,5.369-1.265
		c1.666-0.863,3.012-2.108,3.993-3.698c0.695-1.105,1.312-2.747,1.884-5.02l3.063-12.172
		C284.481,301.6,284.18,301.195,283.683,301.195z M268.509,309.719c0.241-0.956,0.687-1.816,1.361-2.637
		c0.668-0.815,1.45-1.434,2.383-1.895c0.944-0.465,1.872-0.692,2.836-0.692c0.919,0,1.696,0.22,2.38,0.671
		c0.676,0.444,1.118,1.033,1.354,1.796c0.233,0.764,0.228,1.654-0.021,2.643c-0.388,1.535-1.139,2.727-2.3,3.643
		c-1.166,0.923-2.499,1.369-4.073,1.369c-1.559,0-2.668-0.451-3.39-1.387C268.321,312.304,268.148,311.153,268.509,309.719z"/>
	<path fill="#1A4596" d="M295.542,301.995c-0.003-0.237-0.106-0.436-0.29-0.559c-1.475-0.961-3.114-0.779-4.793,0.168
		c-0.199,0.111-0.403,0.237-0.604,0.376c0.054-0.442-0.238-0.785-0.696-0.785h-2.007c-0.496,0-1,0.404-1.125,0.9l-3.845,15.274
		c-0.125,0.496,0.176,0.899,0.672,0.899h2.007c0.496,0,1.001-0.403,1.126-0.899l1.301-5.166c0.801-3.183,1.311-4.496,1.599-5.035
		c0.511-0.96,1.063-1.656,1.643-2.078c0.541-0.391,1.016-0.582,1.446-0.582c0.071,0,0.276,0.019,0.635,0.194
		c0.363,0.18,0.881,0.026,1.209-0.352l1.442-1.656C295.44,302.485,295.542,302.233,295.542,301.995z"/>
	<path fill="#1A4596" d="M311.762,301.195h-1.937c-0.497,0-1.001,0.404-1.126,0.9l-0.131,0.519c-0.338-0.354-0.716-0.657-1.13-0.909
		c-0.988-0.598-2.197-0.901-3.594-0.901c-2.41,0-4.723,0.877-6.87,2.61c-2.145,1.731-3.544,3.843-4.156,6.277
		c-0.623,2.479-0.303,4.612,0.953,6.349c1.261,1.74,3.119,2.621,5.522,2.621c1.35,0,2.686-0.287,3.974-0.85
		c0.577-0.255,1.15-0.566,1.71-0.934l-0.123,0.492c-0.125,0.496,0.177,0.899,0.673,0.899h1.938c0.496,0,0.999-0.403,1.124-0.899
		l3.845-15.274C312.559,301.6,312.259,301.195,311.762,301.195z M298.043,314.358c-0.683-0.473-1.142-1.111-1.403-1.961
		c-0.265-0.853-0.279-1.718-0.046-2.644c0.235-0.936,0.685-1.802,1.371-2.645c0.68-0.839,1.452-1.469,2.362-1.93
		c0.909-0.462,1.809-0.685,2.75-0.685c1.462,0,2.534,0.496,3.276,1.514c0.744,1.021,0.918,2.265,0.531,3.801
		c-0.252,0.998-0.703,1.903-1.34,2.688c-0.641,0.785-1.408,1.396-2.35,1.858C301.309,315.286,299.412,315.302,298.043,314.358z"/>
	<path fill="#1A4596" d="M327.253,301.82c-1.687-1.324-4.537-1.327-7.046-0.128c-0.504,0.24-1.006,0.533-1.503,0.876l0.118-0.473
		c0.125-0.496-0.176-0.9-0.673-0.9h-1.966c-0.496,0-0.999,0.404-1.124,0.9l-3.845,15.274c-0.125,0.496,0.175,0.899,0.672,0.899
		h1.966c0.496,0,1-0.403,1.125-0.899l1.41-5.602c0.604-2.404,1.012-3.471,1.242-3.933c0.501-0.981,1.215-1.785,2.186-2.453
		c1.752-1.213,3.842-1.235,4.688-0.398c0.387,0.381,0.564,0.961,0.544,1.793c-0.001,0.353-0.113,1.213-0.64,3.307l-1.835,7.286
		c-0.124,0.496,0.176,0.899,0.672,0.899h1.966c0.496,0,1-0.403,1.125-0.899l1.979-7.863c0.56-2.222,0.735-3.838,0.541-4.945
		C328.652,303.419,328.113,302.498,327.253,301.82z"/>
	<path fill="#1A4596" d="M350.451,295.299h-1.938c-0.496,0-0.999,0.403-1.125,0.898l-1.615,6.417
		c-0.339-0.354-0.717-0.657-1.13-0.909c-0.989-0.598-2.199-0.901-3.595-0.901c-2.409,0-4.723,0.877-6.871,2.61
		c-2.144,1.731-3.541,3.843-4.154,6.277c-0.625,2.479-0.303,4.612,0.951,6.349c1.262,1.74,3.12,2.621,5.522,2.621
		c1.351,0,2.687-0.287,3.975-0.85c0.577-0.255,1.149-0.566,1.711-0.934l-0.123,0.492c-0.125,0.496,0.175,0.899,0.672,0.899h1.937
		c0.497,0,1-0.403,1.125-0.899l5.33-21.173C351.247,295.702,350.946,295.299,350.451,295.299z M335.247,314.358
		c-0.683-0.473-1.141-1.111-1.403-1.961c-0.264-0.853-0.28-1.718-0.047-2.644c0.237-0.936,0.685-1.802,1.372-2.645
		c0.679-0.839,1.453-1.469,2.361-1.93c0.909-0.462,1.81-0.685,2.751-0.685c1.462,0,2.534,0.496,3.275,1.514
		c0.745,1.021,0.919,2.265,0.532,3.801c-0.252,0.998-0.703,1.903-1.34,2.688c-0.64,0.785-1.407,1.396-2.349,1.858
		C338.512,315.286,336.616,315.302,335.247,314.358z"/>
	<path fill="#1A4596" d="M360.612,300.804c-2.809,0-5.358,1.089-7.578,3.236c-1.731,1.671-2.883,3.601-3.42,5.734
		c-0.571,2.27-0.308,4.333,0.785,6.125c1.114,1.832,3.076,2.762,5.831,2.762c1.229,0,2.403-0.192,3.487-0.572
		c1.089-0.383,2.135-0.945,3.109-1.672c0.971-0.728,1.91-1.681,2.789-2.838c0.334-0.437,0.298-0.973-0.08-1.202l-1.438-0.871
		c-0.368-0.223-0.925-0.073-1.271,0.333c-0.777,0.912-1.443,1.568-1.983,1.953c-0.523,0.373-1.139,0.679-1.827,0.911
		c-0.692,0.232-1.381,0.351-2.048,0.351c-1.37,0-2.369-0.468-3.057-1.429c-0.554-0.773-0.771-1.708-0.656-2.839h12.77
		c0.239,0,0.492-0.098,0.704-0.266c0.213-0.171,0.364-0.401,0.422-0.644c0.554-2.282,0.411-4.222-0.426-5.768
		C365.552,301.915,363.495,300.804,360.612,300.804z M356.142,305.697c1.122-0.817,2.291-1.217,3.573-1.217
		c0.773,0,1.479,0.167,2.098,0.493c0.613,0.321,1.065,0.748,1.349,1.262c0.157,0.291,0.272,0.644,0.344,1.054h-8.87
		C355.106,306.618,355.612,306.086,356.142,305.697z"/>
	<path fill="#1A4596" d="M400.857,301.751c-1.633-1.293-4.434-1.262-6.968,0.126c-0.78,0.426-1.523,0.975-2.225,1.635
		c-0.101-0.303-0.226-0.572-0.371-0.809c-0.363-0.58-0.9-1.048-1.599-1.389c-1.699-0.83-3.991-0.636-6.208,0.523
		c-0.286,0.154-0.577,0.335-0.871,0.54l0.071-0.282c0.125-0.496-0.177-0.9-0.673-0.9h-1.965c-0.497,0-1.001,0.404-1.125,0.9
		l-3.845,15.274c-0.125,0.496,0.176,0.899,0.672,0.899h1.965c0.496,0,1-0.403,1.126-0.899l1.63-6.472
		c0.447-1.782,0.948-3.101,1.485-3.915c0.51-0.77,1.127-1.362,1.892-1.812c1.381-0.812,2.852-0.868,3.615-0.226
		c0.343,0.288,0.531,0.663,0.577,1.144c0.037,0.386-0.034,1.301-0.577,3.46l-1.968,7.821c-0.126,0.496,0.176,0.899,0.673,0.899
		h1.965c0.496,0,0.999-0.403,1.125-0.899l1.505-5.981c0.648-2.577,1.219-3.796,1.584-4.363c0.497-0.776,1.109-1.377,1.874-1.838
		c1.35-0.815,2.893-0.893,3.68-0.267c0.341,0.271,0.532,0.615,0.589,1.053c0.037,0.286,0.023,1.063-0.479,3.058l-2.099,8.339
		c-0.125,0.496,0.176,0.899,0.672,0.899h2.008c0.495,0,0.999-0.403,1.125-0.899l2.099-8.339c0.516-2.046,0.684-3.563,0.512-4.639
		C402.152,303.273,401.657,302.386,400.857,301.751z"/>
	<path fill="#1A4596" d="M422.253,301.195h-1.938c-0.496,0-1.002,0.404-1.126,0.9l-0.131,0.519c-0.34-0.354-0.716-0.657-1.129-0.909
		c-0.989-0.598-2.198-0.901-3.593-0.901c-2.412,0-4.724,0.877-6.872,2.61c-2.145,1.731-3.544,3.843-4.156,6.277
		c-0.623,2.479-0.302,4.612,0.953,6.349c1.26,1.74,3.119,2.621,5.522,2.621c1.351,0,2.687-0.287,3.975-0.85
		c0.576-0.255,1.149-0.566,1.71-0.934l-0.124,0.492c-0.124,0.496,0.177,0.899,0.674,0.899h1.937c0.495,0,0.999-0.403,1.124-0.899
		l3.846-15.274C423.049,301.6,422.748,301.195,422.253,301.195z M408.531,314.358c-0.681-0.473-1.141-1.111-1.403-1.961
		c-0.264-0.853-0.278-1.718-0.045-2.644c0.235-0.936,0.686-1.802,1.37-2.645c0.682-0.839,1.454-1.469,2.362-1.93
		c0.909-0.462,1.812-0.685,2.751-0.685c1.461,0,2.534,0.496,3.275,1.514c0.744,1.021,0.92,2.265,0.531,3.801
		c-0.252,0.998-0.702,1.903-1.338,2.688c-0.641,0.785-1.409,1.396-2.35,1.858C411.799,315.286,409.902,315.302,408.531,314.358z"/>
	<path fill="#1A4596" d="M434.321,301.995c-0.003-0.237-0.108-0.436-0.29-0.559c-1.477-0.961-3.114-0.779-4.794,0.168
		c-0.199,0.111-0.403,0.237-0.606,0.376c0.056-0.442-0.237-0.785-0.693-0.785h-2.009c-0.496,0-0.999,0.404-1.125,0.9l-3.845,15.274
		c-0.124,0.496,0.178,0.899,0.673,0.899h2.008c0.497,0,1-0.403,1.126-0.899l1.3-5.166c0.801-3.183,1.312-4.496,1.598-5.035
		c0.512-0.96,1.065-1.656,1.644-2.078c0.541-0.391,1.016-0.582,1.446-0.582c0.073,0,0.275,0.019,0.636,0.194
		c0.364,0.18,0.881,0.026,1.21-0.352l1.439-1.656C434.221,302.485,434.321,302.233,434.321,301.995z"/>
	<path fill="#1A4596" d="M450.302,301.195h-1.937c-0.496,0-0.999,0.404-1.126,0.9l-0.131,0.519
		c-0.337-0.354-0.716-0.657-1.128-0.909c-0.991-0.598-2.199-0.901-3.596-0.901c-2.41,0-4.722,0.877-6.87,2.61
		c-2.145,1.731-3.544,3.843-4.157,6.277c-0.622,2.479-0.3,4.612,0.954,6.349c1.261,1.74,3.118,2.621,5.522,2.621
		c1.349,0,2.687-0.287,3.974-0.85c0.577-0.255,1.15-0.566,1.71-0.934l-1.53,6.079c-0.123,0.496,0.178,0.897,0.673,0.897h1.937
		c0.497,0,1.001-0.401,1.126-0.897l5.252-20.861C451.098,301.6,450.798,301.195,450.302,301.195z M436.583,314.358
		c-0.682-0.473-1.142-1.111-1.401-1.961c-0.266-0.853-0.28-1.718-0.048-2.644c0.235-0.936,0.684-1.802,1.372-2.645
		c0.678-0.839,1.452-1.469,2.359-1.93c0.91-0.462,1.811-0.685,2.751-0.685c1.464,0,2.533,0.496,3.278,1.514
		c0.744,1.021,0.918,2.265,0.531,3.801c-0.251,0.998-0.703,1.903-1.342,2.688c-0.639,0.785-1.407,1.396-2.348,1.858
		C439.849,315.286,437.953,315.302,436.583,314.358z"/>
	<path fill="#1A4596" d="M467.823,301.195h-2.008c-0.495,0-1,0.404-1.124,0.9l-1.797,7.131c-0.594,2.367-0.958,3.185-1.118,3.461
		c-0.4,0.68-0.94,1.215-1.653,1.633c-1.449,0.856-3.533,0.859-4.6-0.021c-0.514-0.426-0.783-0.996-0.821-1.725
		c-0.011-0.394,0.08-1.291,0.598-3.348l1.797-7.131c0.123-0.496-0.179-0.9-0.673-0.9h-1.967c-0.495,0-1,0.404-1.125,0.9
		l-1.852,7.355c-0.585,2.322-0.749,4.041-0.504,5.252c0.253,1.242,0.874,2.228,1.849,2.923c0.962,0.686,2.286,1.035,3.932,1.035
		c1.649,0,3.145-0.35,4.446-1.038c1.311-0.695,2.419-1.669,3.293-2.896c0.853-1.196,1.544-2.878,2.112-5.136l1.886-7.495
		C468.62,301.6,468.319,301.195,467.823,301.195z"/>
	<path fill="#1A4596" d="M485.502,310.521c0.213-0.171,0.364-0.401,0.423-0.644c0.553-2.282,0.409-4.222-0.426-5.768
		c-1.176-2.194-3.232-3.306-6.113-3.306c-2.809,0-5.358,1.089-7.578,3.236c-1.733,1.671-2.883,3.601-3.42,5.734
		c-0.571,2.27-0.308,4.333,0.785,6.125c1.114,1.832,3.075,2.762,5.829,2.762c1.231,0,2.403-0.192,3.488-0.572
		c1.089-0.383,2.137-0.945,3.109-1.672c0.972-0.728,1.91-1.681,2.791-2.838c0.332-0.437,0.297-0.973-0.08-1.202l-1.438-0.871
		c-0.368-0.223-0.924-0.073-1.271,0.333c-0.778,0.912-1.444,1.568-1.982,1.953c-0.526,0.373-1.142,0.679-1.828,0.911
		c-0.693,0.232-1.383,0.351-2.049,0.351c-1.369,0-2.367-0.468-3.056-1.429c-0.553-0.773-0.773-1.708-0.658-2.839h12.771
		C485.037,310.786,485.291,310.688,485.502,310.521z M474.915,305.697c1.121-0.817,2.289-1.217,3.572-1.217
		c0.773,0,1.479,0.167,2.097,0.493c0.613,0.321,1.066,0.748,1.35,1.262c0.157,0.291,0.274,0.644,0.345,1.054h-8.87
		C473.88,306.618,474.384,306.086,474.915,305.697z"/>
</g>
</svg>
