<?xml version="1.0" encoding="utf-8"?>
<!-- Generator: Adobe Illustrator 21.0.2, SVG Export Plug-In . SVG Version: 6.00 Build 0)  -->
<svg version="1.1" id="Calque_1" xmlns="http://www.w3.org/2000/svg" xmlns:xlink="http://www.w3.org/1999/xlink" x="0px" y="0px"
	 viewBox="0 0 500 144" style="enable-background:new 0 0 500 144;" xml:space="preserve">
<style type="text/css">
	.st0{fill:#1D1D1B;}
	.st1{fill:#ED751B;}
	.st2{fill:#FFFFFF;}
</style>
<path class="st0" d="M231.3,41.1l-0.1,59.5c-0.6,3,4.8,2.6,3.1,5.8c-2.2,2.7-6.7,1.4-10.1,1.8c-3.2-0.4-7.8,1.1-8.8-2.5
	c-0.2-2.6,3-2.4,2.8-5l-0.1-29.4c-0.5,2-0.4,5-2.6,5.9c-1.3,0.1-2.7-0.3-3.5-1.2c-0.9-1-0.5-3.5-1.7-3.6c-4.1,0.7-6.3,4.9-7.3,8.2
	c-1.2,6.7-0.6,14.5-0.5,21.5c0.5,1.9,4,1.6,2.3,4.2c-0.6,1-2.2,1.7-2.2,1.7s-2.8,0.2-7.5,0.2s-7.2-0.2-7.2-0.2
	c-0.7-0.1-1.7-1.2-1.8-2.2c-0.6-0.9,0.4-2,1.1-2.3c0.8-0.1,1.6-1.2,1.8-1.9V72.3c-0.2-2.5-4.3-1.9-3.4-4.5c3.7-3.2,8.8-3.2,12.8-5.7
	c1,0.2,2.3-0.3,3.1,0.4c1.4,1.9,0.1,5,1,7.3h0.5c2.3-3.1,5.3-7.7,10-7.5c1.2,0.1,4.2,0,5.1,1.9c0-6,0.8-14.3-3.1-17.4
	c0-4.2,9.3-3.7,12.3-7.1C228.6,39,231.1,39.1,231.3,41.1z"/>
<path class="st0" d="M340,100.4c-0.5-1.2-2-0.5-2.6-1.6l-0.3-51.1l-0.3-8.3c-0.4-0.7-1-1.4-2-1.1c-3.3,1.7-6.9,3.2-10.4,4.8
	c-1.4,0.3-2.9,0.1-4,0.9c-1.7,2.8,2,3.6,3.2,5.2l-0.1,13.5l-0.5,0.9c-1.7-1-3.4-2-5.3-2.4c-2.7,0.4-5.2,1.2-7.2,3.4
	c-6.6,9-7.7,21.9-5.4,33.3c1.5,4.9,4.8,9.8,10.5,10.3c3.1,1,5.9-1.3,7.9-3.4c1.8,0.7-0.5,2.6,1.3,3.1c4.4-0.1,8-2,11.9-3.4
	C338.6,103.8,340.5,102.9,340,100.4z M321.7,96.6c-0.6,0.9-1.8,1.4-2.7,0.7c-5.4-7.6-4.2-19.6-1-27.8c0.4-0.6,1.3-1.3,1.9-0.5
	c2.2,1.9,2.5,4.6,3.2,7.1C324.3,82.9,324.3,90.4,321.7,96.6z"/>
<path class="st0" d="M187.4,93.9c-0.7-1.5-2.4-1.6-4-1.6c-1.9,0.2-1.5,3-2.3,4.5c-1.7,1.7-4.4,0.6-6.3-0.2c-2.7-1.8-3.6-4.9-4.1-7.9
	c4.8-2.1,10.4-4.4,16.2-7.1c1.6-6.5-1.6-13.5-6.5-17.7c-3.2-2.3-7.8-2.3-11.4-1c-8,3-9.6,12-10.6,19.6h-0.2
	c-0.9-6.1-1.9-12.2-6.3-16.9c-2.2-2.5-5.8-4.2-9.5-3.2c-1.6,0.5-2.3,2.7-3.6,1.4l-0.1-23.1c-0.5-1.4-1.9-1.8-3.2-1.8
	c-3.9,3.1-9.7,2.6-13,6.4c-0.5,2.5,3,2.5,2.9,6.1l0.1,51.9v1.5c-0.8-0.5-1.3,0-1.7-1c-0.8-6.6-1.3-12.5-2-18.7
	c-0.8-7.3-0.9-15.1-6.3-20.5c-2.3-1.9-5.7-1.8-8.7-1.5c-1.9,0.7-2.6,2.4-3.8,3.9c-2.5,0.2-2.7-3.3-5.3-3.7
	c-3.1-1.1-7.6-1.2-10.1,1.4c-1.2,0.7-1.3,3.2-3.1,2.3c-0.6-0.9-0.3-1.7-0.4-3c-0.4-1.6-2.7-1.5-4.1-1c-4.1,2-8.2,3.8-12.4,5.7
	c-1.3,1.8,3.2,2.2,3.4,4.6V102c-0.3,1.8-2.2,2.1-2.9,3.6c-0.4-1.8-3.3-1.5-3.1-3.6l-0.1-37.8c-0.4-1.3-2.2-1.5-3.5-1.4
	c-4.4,2.3-9,3.8-13.4,5.9c-1.4,1.7,3.4,2.4,3.6,4.1V102c0,0.7-1.3,2.5-2.7,2.8c-1.7-0.2-3.2-1.8-3.7-3.3L45,48.4
	c0.2-1.3,1.3-1.3,2.4-1.2c4,3,4.6,8.1,7.2,12c1.2,1,2.7,1.9,4.4,1.2c1.4-0.7,2.6-2.1,2.2-3.9l-3.8-16.8c-0.4-2.9-4.1-2-5,0
	c-10.3,0.2-21.8,0.2-31.1,0c-0.5-1-1.5-1.6-2.5-1.5c-1.1-0.1-1.5,0.9-2,1.5c-1.4,6.3-2.9,12-3.6,18.7c0.2,1.1,1.1,1.6,2,2.3
	c6.7,1.2,6-7.1,9-10.7c0.8-1.4,2.1-2.8,3.8-2.7c0.5,0.5,1.5,0.3,1.6,1.9v52.5c-0.6,1.7-1.5,2.7-3.2,3.3c-0.2,0.6-0.2,1.7,0.6,2.1
	c3.9,1.6,7.4,0.9,11.9,0.9c3.5-0.2,7.5,0.7,10.1-1.4c0.4,0.5,1.1,0.6,1.3,1c6,0.7,10.3,0.1,16.2-0.2c1-0.6,1.1-1.2,1.4-2.2
	c0.1,1.2,1.2,1.9,2.2,2.5c5.2,0.2,10.6,0.4,15.6-0.2l1.4-1c1.5-2.6-2.7-2.2-2.3-4.5V74c0.5-2.2,1.4-2.6,2.9-3.2
	c1.2-0.4,2.6,0.1,3.1,1.4c0.4,1.4,0.3,20.3,0.3,29c-0.4,1.4-1.1,3.4-2.9,3.6c-0.7,0.2-0.4,2.2,0.5,2.4c0.6,0.3,1.1,0.2,1.7,0.5
	c4.6-0.1,11,1,14.8-0.9c1.9-2.9-2.6-2.3-2.4-4.9V73.4c0.2-0.8,1.5-2.6,3-1.9c1.7,0.8,2.4,2.4,2.7,4.4c1.3,8.9,2.1,17.8,1.5,27.1
	c-0.1,2-3.2,0.9-2.4,3.3c0.4,0.5,0.5,1.2,1.7,1.4c1.1,0.3,14.3,0.1,14.2,0.1c1.4-0.2,1.7-0.4,2-1.3c0.6,0.8,1.6,2.1,3.1,1.6
	c3.4-0.3,3-5,5.6-5c1.5,0,1.3,1.6,2,2.4c2.1,3,8.3,4,12.9,2.7c7.7-2.7,9-11.3,9.4-18.7c1.5,7.1,3.5,15.8,11.6,18.3
	c5.3,1.3,11.9,1,15.7-3.2C188.1,101.7,189.4,97.5,187.4,93.9z M144.2,96.6c-0.6,0.5-1.4,2.2-2.4,1.2c-4-5.6-3.6-13.4-3-20.5
	c0.7-3,2.6-8.5,3.9-8.5c2,0,2.1,2.7,2.7,4.3C147.4,80.6,148.1,89.7,144.2,96.6z M169.3,83.4c-1.9-4-1.7-9.3-0.9-13.5
	c0.2-0.9,2.1-2.7,3.6-1.8l2.7,4.6c1.7,3.5,1.6,6.2-0.4,8.4C172.7,82.1,170.9,82.9,169.3,83.4z"/>
<path class="st0" d="M298.5,68.2c3.4,7.3,3.9,16,4.7,24.2c0.3,3.7-0.9,10,2.8,12.2c0.7,0.7,0.4,1.9-0.1,2.5l-1.3,0.7
	c-4.9,0.2-10,0.9-15.3-0.5c-0.6-0.6-0.9-1.6-0.5-2.3c4.4-2,2.3-8.8,2.6-12.5c-1.1-7-2-14.1-5.3-20.3c-0.4-0.6-1.1-1-2-0.7l-1.1,1.3
	l0.2,28.7c0.2,1.3,0.7,3,2.3,3.3c0.8,0.7,0.2,1.8-0.2,2.5c-4.8,1.3-10.4,1.2-15.3,0.7c-1-0.2-1.7-1-2.1-1.8
	c-1.4,1.4-2.9,1.9-5.1,2.1c-3.8,0.2-5.8-1.9-8.1-3.7c-1.5,1.2-3.4,2.3-5,3.2c-3.5,1.8-8.1,0.6-11.4-1.1c-4.7-2.5-5.3-7.4-5.4-12.1
	c-0.4-7.1,5.9-11.9,11.6-14.6c1.8-0.7,5.2-0.9,5.9-3c0.2-2.7,0.1-6.5-2.7-8.6c-1.7,0-3.6-0.7-5.3,0c-1.3,1.9,1.7,1.6,2.2,3.3
	c0.4,1.6,0,3.6-0.9,4.8c-1.7,2-4.9,1.6-7.2,1.1c-1.5-0.7-2.2-2-2.9-3.4c-0.4-2.4-0.3-5.2,1.2-7.1c4.4-5,12.2-4.4,18.4-3.9
	c3.3,0.2,6.6,2.8,7.6,5.7c2.8,9.6,2.9,19.9,3.5,30.1c0.8,3.5,2.7-0.7,3.6,2.7l0.5,3.2c1.6,0,2-1.8,2.5-2.8l-0.1-29.3
	c-0.4-2.4-4.6-2.4-3.2-4.9c3.5-2.5,7.9-3.5,11.7-5.6c1.5-0.4,3-0.1,3.5,1.3c0.5,0.6-0.4,1.8,0.7,2.2c1.4-1.9,2.9-3.7,5.3-3.9
	C293.3,61.4,296.7,64.5,298.5,68.2z M250.3,83.5c-2.1,0.5-3.5,1.9-4.7,3.8c-1,4-1.6,12.3,2,13.3c1.4,0.4,2.9,0.1,3.8-0.9
	c0.4-5.1,0.2-10.9-0.5-15.7L250.3,83.5z"/>
<path class="st0" d="M309.1,38.3c-3,0-5.5,2.3-5.5,5.4c0,3.2,2.6,5.5,5.5,5.4c3,0,5.5-2.3,5.5-5.4C314.6,40.6,312.1,38.3,309.1,38.3
	z M309.2,48.3c-2.5,0-4.5-2-4.4-4.5c0-2.6,1.9-4.5,4.4-4.5c2.4,0,4.4,1.9,4.4,4.5C313.6,46.4,311.7,48.3,309.2,48.3z"/>
<path class="st0" d="M311.6,42.5c0-1.3-0.7-1.8-2.2-1.8H307v6.2h1v-2.7h1l1.7,2.7h1.1l-1.8-2.7C310.9,44.1,311.6,43.6,311.6,42.5z
	 M308,43.4v-1.9h1.2c0.7,0,1.4,0.1,1.4,0.9c0,0.9-0.7,1-1.5,1H308z"/>
<path class="st0" d="M490.6,37.4c0-2.4-2-4.4-4.4-4.4H353.5c-2.4,0-4.4,2-4.4,4.4l-0.3,69c0,2.2,1.9,3.9,4.3,3.9h133.1
	c2.4,0,4.3-1.8,4.3-3.9L490.6,37.4z"/>
<path class="st1" d="M470.7,77.6c-1.6,2.3-3.2,4-5.4,5.5c-10.6-0.3-20.6-3-31.2-3.4l-0.8-1.1C445.7,75.9,458.5,80.1,470.7,77.6z"/>
<path class="st1" d="M458.2,83.7l5.7,0.4c-6.2,4.6-16.8,4.7-23.5,0.8c-2-1.2-3.9-2.5-5.4-4.1C443.1,81.1,450.4,82.9,458.2,83.7z"/>
<path class="st1" d="M450.9,40.5c1.3,2.2,2.3,4.5,3.5,6.7l1.1-0.1c-0.6-2.2-1.7-4.4-2.7-6.5c3.2-1.1,3.1,3.2,4.6,4.7
	c1.7-0.3,3.1-1.7,4.8-2.3c0.5,0,0.7,0.6,1.1,0.7l-4.4,3.8c0,1.3,0.7,2.6,1.2,3.8l4.9-6.5c0.5,0.1,0.8,0.8,1.3,1
	c-0.7,1.2-1.5,2.2-2.2,3.4l0.3,0.2c2.1,0.7,6.2-1.4,6.8,2l-4.9,0.5l-2.2,3.7c3.1,0.5,5.3-1.6,8-2.4l1.1,1.9
	c-3.1,1.4-6.5,2.7-10.1,3.3c-0.6,0.8-1,1.6-1.5,2.4c4.1-0.9,8.3-2,12.4-3c1.9,6.1,0.8,13.2-2.3,18.3l-1.3,0.7
	c-12.7,2.5-25.2-1.6-37.8,0.9c-4.4-6-5.8-15.3-2.8-22.3l5.1-0.1v-0.4c-0.5-1.8-4.4-3.6-1.6-5.4c1.8,1.4,3.3,3.6,4.9,5.3
	c0.6,0,1.2,0.1,1.7-0.1l-5.5-6.3c0.5-1,1.5-1.5,2.3-2.3l4.6,0.9c0.2-1.2,0.1-2.4,0.1-3.9c1-0.7,2.1-0.9,3.1-1.3l2.6,5.2l3.3-6.2
	L450.9,40.5L450.9,40.5z M450.9,44.9l-2.2,4.8c0.1,1.7,0.6,3.2,1.2,4.6c2.6-0.7,2-3.6,2.5-5.5L450.9,44.9z M443.7,45.2
	c0.3,0.9-0.7,3.1,1.2,2.6L443.7,45.2z M437.6,48.1l3.4,3.6c0.1-0.9,0.2-1.8,0.2-2.6C440,48.7,438.9,48.3,437.6,48.1z M455.7,50
	l0.2,0.3c0.2-0.2,0.5-0.5,0.6-0.8C456.2,49.5,455.9,49.7,455.7,50z M443.9,50.2v4.1l1.7-3.5C445.2,50.4,444.5,50.4,443.9,50.2z
	 M463.7,51.8c-0.6,0.1-1.1,0.2-1.3,0.2l-2.3,3.4c0.4,0,1.2,0.1,1.5,0.1L463.7,51.8z M454.4,54.7l0.2,4.4c1.2-2.1,4.7-3.9,3.2-6.7
	C456.5,53,455.5,53.7,454.4,54.7z M448.1,58.3L447,54l-0.9,2.1L448.1,58.3z M451.7,55.9c-1.6-0.2-1.4,2.6-0.1,2.7L451.7,55.9z
	 M438.5,56.5l-1.9,2.4l3.3,1.4l3.4-2.5C442.8,55.5,440.1,56.9,438.5,56.5z M431.1,56.9l2,0.9c1.1,0.8,1.2-0.5,1.7-1
	C433.5,56.9,432.3,56.8,431.1,56.9z M446.7,60.7l-1.4-1.3c-2,1.1-3.8,3.8-6.1,4.7c-1,0-1.6,0-2.7,0c0.6-0.6,1.2-1.5,1.4-2
	c-0.9-0.5-1.8-0.9-2.9-1c-0.7,0.9-1.7,2.4-2.3,2.9c-0.5,0-0.8,0-1.4,0c0.1,2.6,0.1,5.5,1.4,7.6c5.4,0.2,11.5,0.9,17.2,1.6v-8.6
	l-1.1-1.6c-0.9,0.6-2,0.9-3.2,1.1c-1.7,0-3.2,0.1-4.7,0L446.7,60.7z M431.4,59.5l-0.2,2.6c0.6-0.7,1.1-1.4,1.4-2.1L431.4,59.5z
	 M472.5,61.4c0-0.4-0.3-0.7-0.3-0.7c-0.5,0.1-1.3,0.3-2.2,0.5l1.7,3.2h-2.8c-0.2-0.4-0.4-0.8-0.7-1.4c-0.1-0.2-0.6-1.3-0.5-1.3
	c-0.9,0.3-2.6,0.5-3.6,0.7c0.3,0.8,0.4,1.3,0.7,1.9c-0.8,0-1.5,0-2.3,0c-0.3-0.6-0.6-0.9-0.9-1.4c-2.7,0.8-5.2,1.5-7.7,2.3
	c0.1,3,0.2,6.2,0.8,8.7c4.7,0.8,9.7,1.3,14.7,1.3C471.9,71.2,473.5,66.3,472.5,61.4z M460,58.6c-0.4,0-0.9-0.1-1.5,0l-1.9,3.1
	c0.7-0.1,1.3-0.2,1.8-0.4L460,58.6z"/>
<path class="st1" d="M418.5,69.8v-0.4c6.2-2.1,8.9-5,8.9-12c0-11.7-8.7-16.2-19-16.2h-14.2c9.6,4.1,10.5,12.7,10.5,12.7h1.1
	c2.9,0,5.4,0.4,5.4,4c0,3.4-2.7,3.9-5.5,3.9l-0.8-0.1c0,0,0,3.2-3.4,7.7L419,87.6h19C438,87.7,419.3,70.5,418.5,69.8z"/>
<path class="st1" d="M384.8,41.3h-21.1v46.4h16v-14l0,0V62l0,0v-8h1.6c2.7,0,6.1,0.2,6.1,3.8c0,3.7-3.2,4.2-6.1,4.2H381v11.7h7.3
	c9.3,0,15.1-5.9,15.1-15.3C403.4,46.8,395.5,41.3,384.8,41.3z"/>
<polygon class="st1" points="473,45 474,45 474,47.6 474.5,47.6 474.5,45 475.4,45 475.4,44.6 473,44.6 "/>
<polygon class="st1" points="478.6,44.5 477.7,46.8 476.8,44.5 476,44.5 476,47.6 476.5,47.6 476.5,45.1 477.5,47.6 477.9,47.6 
	478.9,45.1 478.9,47.6 479.4,47.6 479.4,44.5 "/>
<path class="st2" d="M369.6,94.4c0,0.8-0.4,1.2-1.4,1.2h-1.6v-2.4h1.6C369.3,93.2,369.6,93.7,369.6,94.4z M372.6,94.4
	c0-2.6-1.7-3.6-4.2-3.6h-4.7v10.9h3v-3.5h1.5C370.8,98.1,372.6,97.2,372.6,94.4z"/>
<path class="st2" d="M379.4,94.4c0,0.8-0.4,1.2-1.4,1.2h-1.8v-2.4h1.8C379.1,93.2,379.4,93.7,379.4,94.4z M382.6,101.7l-2.2-4.1
	c1.2-0.5,2-1.6,2-3.2c0-2.6-1.7-3.5-4.2-3.5h-4.9v10.9h3V98h1.2l1.8,3.7H382.6z"/>
<path class="st2" d="M389.7,96.2c0,2-0.7,3-1.9,3c-1.2,0-1.9-1-1.9-3s0.7-3,1.9-3S389.7,94.3,389.7,96.2z M392.8,96.2
	c0-3.6-2.1-5.6-5-5.6c-3,0-5,2-5,5.6s2.1,5.6,5,5.6C390.7,101.8,392.8,99.8,392.8,96.2z"/>
<path class="st2" d="M403.3,101.8c-1.8,0-3.5-0.6-4.6-1.3l1.5-2.4c0.8,0.5,2.2,1.1,3.2,1.1c1.1,0,1.4-0.2,1.4-0.7
	c0-0.4-0.4-0.6-1.8-1c-2.6-0.6-3.9-1.3-3.9-3.5c0-2,1.7-3.4,4.3-3.4c1.8,0,3.2,0.5,4.3,1.3l-1.5,2.4c-1-0.6-1.9-1-3-1
	c-0.9,0-1.1,0.3-1.1,0.7c0,0.4,0.4,0.6,1.8,0.9c2.7,0.7,3.9,1.5,3.9,3.5C407.8,100.8,405.9,101.8,403.3,101.8z"/>
<path class="st2" d="M409,101.7V90.8h8.3v2.5H412v1.5h3.2v2.5H412v1.9h5.5v2.5H409L409,101.7z"/>
<path class="st2" d="M424.3,94.4c0,0.8-0.4,1.2-1.4,1.2h-1.8v-2.4h1.8C423.9,93.2,424.3,93.7,424.3,94.4z M427.5,101.7l-2.2-4.1
	c1.2-0.5,2-1.6,2-3.2c0-2.6-1.7-3.5-4.2-3.5h-4.9v10.9h3V98h1.2l1.8,3.7H427.5z"/>
<path class="st2" d="M428.1,101.7V90.8h3.1v10.9H428.1z"/>
<path class="st2" d="M432.9,101.7V90.8h8.3v2.5h-5.3v1.5h3.2v2.5h-3.2v1.9h5.5v2.5H432.9L432.9,101.7z"/>
<path class="st2" d="M445.9,101.8c-1.8,0-3.4-0.6-4.6-1.3l1.5-2.4c0.8,0.5,2.2,1.1,3.2,1.1c1.1,0,1.4-0.2,1.4-0.7
	c0-0.4-0.4-0.6-1.9-1c-2.6-0.6-3.9-1.3-3.9-3.5c0-2,1.7-3.4,4.3-3.4c1.8,0,3.2,0.5,4.3,1.3l-1.5,2.4c-1-0.6-1.9-1-3-1
	c-0.9,0-1.1,0.3-1.1,0.7c0,0.4,0.4,0.6,1.8,0.9c2.7,0.7,3.9,1.5,3.9,3.5C450.4,100.8,448.5,101.8,445.9,101.8z"/>
</svg>
