<?xml version="1.0" encoding="utf-8"?>
<!-- Generator: Adobe Illustrator 19.1.0, SVG Export Plug-In . SVG Version: 6.00 Build 0)  -->
<svg version="1.1" id="Calque_1" xmlns="http://www.w3.org/2000/svg" xmlns:xlink="http://www.w3.org/1999/xlink" x="0px" y="0px"
	 viewBox="0 0 500 500" style="enable-background:new 0 0 500 500;" xml:space="preserve">
<style type="text/css">
	.st0{fill:#1D1D1B;}
	.st1{fill:#ED751B;}
	.st2{fill:#FFFFFF;}
</style>
<g>
	<path class="st0" d="M231.3,219.1l-0.1,59.5c-0.6,3,4.8,2.6,3.1,5.8c-2.2,2.7-6.7,1.4-10.1,1.8c-3.2-0.4-7.8,1.1-8.8-2.5
		c-0.2-2.6,3-2.4,2.8-5l-0.1-29.4c-0.5,2-0.4,5-2.6,5.9c-1.3,0.1-2.7-0.3-3.5-1.2c-0.9-1-0.5-3.5-1.7-3.6c-4.1,0.7-6.3,4.9-7.3,8.2
		c-1.2,6.7-0.6,14.5-0.5,21.5c0.5,1.9,4,1.6,2.3,4.2c-0.6,1-2.2,1.7-2.2,1.7s-2.8,0.2-7.5,0.2c-4.7,0-7.2-0.2-7.2-0.2
		c-0.7-0.1-1.7-1.2-1.8-2.2c-0.6-0.9,0.4-2,1.1-2.3c0.8-0.1,1.6-1.2,1.8-1.9l0-29.3c-0.2-2.5-4.3-1.9-3.4-4.5
		c3.7-3.2,8.8-3.2,12.8-5.7c1,0.2,2.3-0.3,3.1,0.4c1.4,1.9,0.1,5,1,7.3h0.5c2.3-3.1,5.3-7.7,10-7.5c1.2,0.1,4.2,0,5.1,1.9
		c0-6,0.8-14.3-3.1-17.4c0-4.2,9.3-3.7,12.3-7.1C228.6,217,231.1,217.1,231.3,219.1z"/>
	<path class="st0" d="M336.8,217.4l0.3,8.3l0.3,51.1c0.6,1.1,2.1,0.4,2.6,1.6c0.5,2.5-1.4,3.4-3.3,4.1c-3.9,1.4-7.5,3.3-11.9,3.4
		c-1.8-0.5,0.5-2.4-1.3-3.1c-2,2.1-4.8,4.4-7.9,3.4c-5.7-0.5-9-5.4-10.5-10.3c-2.3-11.4-1.2-24.3,5.4-33.3c2-2.2,4.5-3,7.2-3.4
		c1.9,0.4,3.6,1.4,5.3,2.4l0.5-0.9l0.1-13.5c-1.2-1.6-4.9-2.4-3.2-5.2c1.1-0.8,2.6-0.6,4-0.9c3.5-1.6,7.1-3.1,10.4-4.8
		C335.8,216,336.4,216.7,336.8,217.4z M319.9,247c-0.6-0.8-1.5-0.1-1.9,0.5c-3.2,8.2-4.4,20.2,1,27.8c0.9,0.7,2.1,0.2,2.7-0.7
		c2.6-6.2,2.6-13.7,1.4-20.5C322.4,251.6,322.1,248.9,319.9,247z"/>
	<path class="st0" d="M57.4,217.7l3.8,16.8c0.4,1.8-0.8,3.2-2.2,3.9c-1.7,0.7-3.2-0.2-4.4-1.2c-2.6-3.9-3.2-9-7.2-12
		c-1.1-0.1-2.2-0.1-2.4,1.2l0.2,53.1c0.5,1.5,2,3.1,3.7,3.3c1.4-0.3,2.7-2.1,2.7-2.8l0-29.2c-0.2-1.7-5-2.4-3.6-4.1
		c4.4-2.1,9-3.6,13.4-5.9c1.3-0.1,3.1,0.1,3.5,1.4l0.1,37.8c-0.2,2.1,2.7,1.8,3.1,3.6c0.7-1.5,2.6-1.8,2.9-3.6v-28.7
		c-0.2-2.4-4.7-2.8-3.4-4.6c4.2-1.9,8.3-3.7,12.4-5.7c1.4-0.5,3.7-0.6,4.1,1c0.1,1.3-0.2,2.1,0.4,3c1.8,0.9,1.9-1.6,3.1-2.3
		c2.5-2.6,7-2.5,10.1-1.4c2.6,0.4,2.8,3.9,5.3,3.7c1.2-1.5,1.9-3.2,3.8-3.9c3-0.3,6.4-0.4,8.7,1.5c5.4,5.4,5.5,13.2,6.3,20.5
		c0.7,6.2,1.2,12.1,2,18.7c0.4,1,0.9,0.5,1.7,1l0-1.5l-0.1-51.9c0.1-3.6-3.4-3.6-2.9-6.1c3.3-3.8,9.1-3.3,13-6.4
		c1.3,0,2.7,0.4,3.2,1.8l0.1,23.1c1.3,1.3,2-0.9,3.6-1.4c3.7-1,7.3,0.7,9.5,3.2c4.4,4.7,5.4,10.8,6.3,16.9h0.2
		c1-7.6,2.6-16.6,10.6-19.6c3.6-1.3,8.2-1.3,11.4,1c4.9,4.2,8.1,11.2,6.5,17.7c-5.8,2.7-11.4,5-16.2,7.1c0.5,3,1.4,6.1,4.1,7.9
		c1.9,0.8,4.6,1.9,6.3,0.2c0.8-1.5,0.4-4.3,2.3-4.5c1.6,0,3.3,0.1,4,1.6c2,3.6,0.7,7.8-1.6,10.7c-3.8,4.2-10.4,4.5-15.7,3.2
		c-8.1-2.5-10.1-11.2-11.6-18.3c-0.4,7.4-1.7,16-9.4,18.7c-4.6,1.3-10.8,0.3-12.9-2.7c-0.7-0.8-0.5-2.4-2-2.4c-2.6,0-2.2,4.7-5.6,5
		c-1.5,0.5-2.5-0.8-3.1-1.6c-0.3,0.9-0.6,1.1-2,1.3c0.1,0-13.1,0.2-14.2-0.1c-1.2-0.2-1.3-0.9-1.7-1.4c-0.8-2.4,2.3-1.3,2.4-3.3
		c0.6-9.3-0.2-18.2-1.5-27.1c-0.3-2-1-3.6-2.7-4.4c-1.5-0.7-2.8,1.1-3,1.9l0,28.5c-0.2,2.6,4.3,2,2.4,4.9
		c-3.8,1.9-10.2,0.8-14.8,0.9c-0.6-0.3-1.1-0.2-1.7-0.5c-0.9-0.2-1.2-2.2-0.5-2.4c1.8-0.2,2.5-2.2,2.9-3.6c0-8.7,0.1-27.6-0.3-29
		c-0.5-1.3-1.9-1.8-3.1-1.4c-1.5,0.6-2.4,1-2.9,3.2l0,28c-0.4,2.3,3.8,1.9,2.3,4.5l-1.4,1c-5,0.6-10.4,0.4-15.6,0.2
		c-1-0.6-2.1-1.3-2.2-2.5c-0.3,1-0.4,1.6-1.4,2.2c-5.9,0.3-10.2,0.9-16.2,0.2c-0.2-0.4-0.9-0.5-1.3-1c-2.6,2.1-6.6,1.2-10.1,1.4
		c-4.5,0-8,0.7-11.9-0.9c-0.8-0.4-0.8-1.5-0.6-2.1c1.7-0.6,2.6-1.6,3.2-3.3l0-52.5c-0.1-1.6-1.1-1.4-1.6-1.9c-1.7-0.1-3,1.3-3.8,2.7
		c-3,3.6-2.3,11.9-9,10.7c-0.9-0.7-1.8-1.2-2-2.3c0.7-6.7,2.2-12.4,3.6-18.7c0.5-0.6,0.9-1.6,2-1.5c1-0.1,2,0.5,2.5,1.5
		c9.3,0.2,20.8,0.2,31.1,0C53.3,215.7,57,214.8,57.4,217.7z M172,246.1c-1.5-0.9-3.4,0.9-3.6,1.8c-0.8,4.2-1,9.5,0.9,13.5
		c1.6-0.5,3.4-1.3,5-2.3c2-2.2,2.1-4.9,0.4-8.4L172,246.1z M142.7,246.8c-1.3,0-3.2,5.5-3.9,8.5c-0.6,7.1-1,14.9,3,20.5
		c1,1,1.8-0.7,2.4-1.2c3.9-6.9,3.2-16,1.2-23.5C144.8,249.5,144.7,246.8,142.7,246.8z"/>
	<path class="st0" d="M298.5,246.2c3.4,7.3,3.9,16,4.7,24.2c0.3,3.7-0.9,10,2.8,12.2c0.7,0.7,0.4,1.9-0.1,2.5l-1.3,0.7
		c-4.9,0.2-10,0.9-15.3-0.5c-0.6-0.6-0.9-1.6-0.5-2.3c4.4-2,2.3-8.8,2.6-12.5c-1.1-7-2-14.1-5.3-20.3c-0.4-0.6-1.1-1-2-0.7l-1.1,1.3
		l0.2,28.7c0.2,1.3,0.7,3,2.3,3.3c0.8,0.7,0.2,1.8-0.2,2.5c-4.8,1.3-10.4,1.2-15.3,0.7c-1-0.2-1.7-1-2.1-1.8
		c-1.4,1.4-2.9,1.9-5.1,2.1c-3.8,0.2-5.8-1.9-8.1-3.7c-1.5,1.2-3.4,2.3-5,3.2c-3.5,1.8-8.1,0.6-11.4-1.1c-4.7-2.5-5.3-7.4-5.4-12.1
		c-0.4-7.1,5.9-11.9,11.6-14.6c1.8-0.7,5.2-0.9,5.9-3c0.2-2.7,0.1-6.5-2.7-8.6c-1.7,0-3.6-0.7-5.3,0c-1.3,1.9,1.7,1.6,2.2,3.3
		c0.4,1.6,0,3.6-0.9,4.8c-1.7,2-4.9,1.6-7.2,1.1c-1.5-0.7-2.2-2-2.9-3.4c-0.4-2.4-0.3-5.2,1.2-7.1c4.4-5,12.2-4.4,18.4-3.9
		c3.3,0.2,6.6,2.8,7.6,5.7c2.8,9.6,2.9,19.9,3.5,30.1c0.8,3.5,2.7-0.7,3.6,2.7l0.5,3.2c1.6,0,2-1.8,2.5-2.8l-0.1-29.3
		c-0.4-2.4-4.6-2.4-3.2-4.9c3.5-2.5,7.9-3.5,11.7-5.6c1.5-0.4,3-0.1,3.5,1.3c0.5,0.6-0.4,1.8,0.7,2.2c1.4-1.9,2.9-3.7,5.3-3.9
		C293.3,239.4,296.7,242.5,298.5,246.2z M250.3,261.5c-2.1,0.5-3.5,1.9-4.7,3.8c-1,4-1.6,12.3,2,13.3c1.4,0.4,2.9,0.1,3.8-0.9
		c0.4-5.1,0.2-10.9-0.5-15.7L250.3,261.5z"/>
	<path class="st0" d="M303.6,221.7c0-3.1,2.5-5.4,5.5-5.4c3,0,5.5,2.3,5.5,5.4c0,3.1-2.5,5.4-5.5,5.4
		C306.2,227.2,303.6,224.9,303.6,221.7z M309.2,226.3c2.5,0,4.4-1.9,4.4-4.5c0-2.6-2-4.5-4.4-4.5c-2.5,0-4.4,1.9-4.4,4.5
		C304.7,224.3,306.7,226.3,309.2,226.3z M308,224.9h-1v-6.2h2.4c1.5,0,2.2,0.5,2.2,1.8c0,1.1-0.7,1.6-1.6,1.7l1.8,2.7h-1.1l-1.7-2.7
		H308L308,224.9L308,224.9z M309.1,221.4c0.8,0,1.5-0.1,1.5-1c0-0.8-0.7-0.9-1.4-0.9H308v1.9L309.1,221.4L309.1,221.4z"/>
</g>
<g>
	<path class="st0" d="M490.6,215.4c0-2.4-2-4.4-4.4-4.4H353.5c-2.4,0-4.4,2-4.4,4.4l-0.3,69c0,2.2,1.9,3.9,4.3,3.9h133.1
		c2.4,0,4.3-1.8,4.3-3.9L490.6,215.4z"/>
	<path class="st1" d="M470.7,255.6c-1.6,2.3-3.2,4-5.4,5.5c-10.6-0.3-20.6-3-31.2-3.4l-0.8-1.1C445.7,253.9,458.5,258.1,470.7,255.6
		z"/>
	<path class="st1" d="M458.2,261.7l5.7,0.4c-6.2,4.6-16.8,4.7-23.5,0.8c-2-1.2-3.9-2.5-5.4-4.1C443.1,259.1,450.4,260.9,458.2,261.7
		z"/>
	<path class="st1" d="M450.9,218.5c1.3,2.2,2.3,4.5,3.5,6.7l1.1-0.1c-0.6-2.2-1.7-4.4-2.7-6.5c3.2-1.1,3.1,3.2,4.6,4.7
		c1.7-0.3,3.1-1.7,4.8-2.3c0.5,0,0.7,0.6,1.1,0.7l-4.4,3.8c0,1.3,0.7,2.6,1.2,3.8l4.9-6.5c0.5,0.1,0.8,0.8,1.3,1
		c-0.7,1.2-1.5,2.2-2.2,3.4l0.3,0.2c2.1,0.7,6.2-1.4,6.8,2l-4.9,0.5l-2.2,3.7c3.1,0.5,5.3-1.6,8-2.4l1.1,1.9
		c-3.1,1.4-6.5,2.7-10.1,3.3c-0.6,0.8-1,1.6-1.5,2.4c4.1-0.9,8.3-2,12.4-3c1.9,6.1,0.8,13.2-2.3,18.3l-1.3,0.7
		c-12.7,2.5-25.2-1.6-37.8,0.9c-4.4-6-5.8-15.3-2.8-22.3l5.1-0.1v-0.4c-0.5-1.8-4.4-3.6-1.6-5.4c1.8,1.4,3.3,3.6,4.9,5.3
		c0.6,0,1.2,0.1,1.7-0.1l-5.5-6.3c0.5-1,1.5-1.5,2.3-2.3l4.6,0.9c0.2-1.2,0.1-2.4,0.1-3.9c1-0.7,2.1-0.9,3.1-1.3l2.6,5.2l3.3-6.2
		L450.9,218.5L450.9,218.5z M450.9,222.9l-2.2,4.8c0.1,1.7,0.6,3.2,1.2,4.6c2.6-0.7,2-3.6,2.5-5.5L450.9,222.9z M443.7,223.2
		c0.3,0.9-0.7,3.1,1.2,2.6L443.7,223.2z M437.6,226.1l3.4,3.6c0.1-0.9,0.2-1.8,0.2-2.6C440,226.7,438.9,226.3,437.6,226.1z
		 M455.7,228l0.2,0.3c0.2-0.2,0.5-0.5,0.6-0.8C456.2,227.5,455.9,227.7,455.7,228z M443.9,228.2v4.1l1.7-3.5
		C445.2,228.4,444.5,228.4,443.9,228.2z M463.7,229.8c-0.6,0.1-1.1,0.2-1.3,0.2l-2.3,3.4c0.4,0,1.2,0.1,1.5,0.1L463.7,229.8z
		 M454.4,232.7l0.2,4.4c1.2-2.1,4.7-3.9,3.2-6.7C456.5,231,455.5,231.7,454.4,232.7z M448.1,236.3l-1.1-4.3l-0.9,2.1L448.1,236.3z
		 M451.7,233.9c-1.6-0.2-1.4,2.6-0.1,2.7L451.7,233.9z M438.5,234.5l-1.9,2.4l3.3,1.4l3.4-2.5C442.8,233.5,440.1,234.9,438.5,234.5z
		 M431.1,234.9l2,0.9c1.1,0.8,1.2-0.5,1.7-1C433.5,234.9,432.3,234.8,431.1,234.9z M446.7,238.7l-1.4-1.3c-2,1.1-3.8,3.8-6.1,4.7
		c-1,0-1.6,0-2.7,0c0.6-0.6,1.2-1.5,1.4-2c-0.9-0.5-1.8-0.9-2.9-1c-0.7,0.9-1.7,2.4-2.3,2.9c-0.5,0-0.8,0-1.4,0
		c0.1,2.6,0.1,5.5,1.4,7.6c5.4,0.2,11.5,0.9,17.2,1.6v-8.6l-1.1-1.6c-0.9,0.6-2,0.9-3.2,1.1c-1.7,0-3.2,0.1-4.7,0L446.7,238.7z
		 M431.4,237.5l-0.2,2.6c0.6-0.7,1.1-1.4,1.4-2.1L431.4,237.5z M472.5,239.4c0-0.4-0.3-0.7-0.3-0.7c-0.5,0.1-1.3,0.3-2.2,0.5
		l1.7,3.2l-2.8,0c-0.2-0.4-0.4-0.8-0.7-1.4c-0.1-0.2-0.6-1.3-0.5-1.3c-0.9,0.3-2.6,0.5-3.6,0.7c0.3,0.8,0.4,1.3,0.7,1.9
		c-0.8,0-1.5,0-2.3,0c-0.3-0.6-0.6-0.9-0.9-1.4c-2.7,0.8-5.2,1.5-7.7,2.3c0.1,3,0.2,6.2,0.8,8.7c4.7,0.8,9.7,1.3,14.7,1.3
		C471.9,249.2,473.5,244.3,472.5,239.4z M460,236.6c-0.4,0-0.9-0.1-1.5,0l-1.9,3.1c0.7-0.1,1.3-0.2,1.8-0.4L460,236.6z"/>
	<g>
		<path class="st1" d="M418.5,247.8v-0.4c6.2-2.1,8.9-5,8.9-12c0-11.7-8.7-16.2-19-16.2h-14.2c9.6,4.1,10.5,12.7,10.5,12.7h1.1
			c2.9,0,5.4,0.4,5.4,4c0,3.4-2.7,3.9-5.5,3.9l-0.8-0.1c0,0,0,3.2-3.4,7.7l17.5,18.2H438C438,265.7,419.3,248.5,418.5,247.8z"/>
	</g>
	<path class="st1" d="M384.8,219.3h-21.1v46.4h16v-14h0V240h0v-8h1.6c2.7,0,6.1,0.2,6.1,3.8c0,3.7-3.2,4.2-6.1,4.2H381v11.7h7.3
		c9.3,0,15.1-5.9,15.1-15.3C403.4,224.8,395.5,219.3,384.8,219.3z"/>
	<path class="st1" d="M477.7,224.8l0.9-2.3h0.8v3.1h-0.5v-2.5h0l-1,2.5h-0.4l-1-2.5h0v2.5h-0.5v-3.1h0.8L477.7,224.8z M475.4,223
		h-0.9v2.6h-0.5V223H473v-0.4h2.4V223z"/>
	<path class="st2" d="M369.6,272.4c0,0.8-0.4,1.2-1.4,1.2h-1.6v-2.4h1.6C369.3,271.2,369.6,271.7,369.6,272.4z M372.6,272.4
		c0-2.6-1.7-3.6-4.2-3.6h-4.7v10.9h3v-3.5h1.5C370.8,276.1,372.6,275.2,372.6,272.4z"/>
	<path class="st2" d="M379.4,272.4c0,0.8-0.4,1.2-1.4,1.2h-1.8v-2.4h1.8C379.1,271.2,379.4,271.7,379.4,272.4z M382.6,279.7
		l-2.2-4.1c1.2-0.5,2-1.6,2-3.2c0-2.6-1.7-3.5-4.2-3.5h-4.9v10.9h3V276h1.2l1.8,3.7H382.6z"/>
	<path class="st2" d="M389.7,274.2c0,2-0.7,3-1.9,3c-1.2,0-1.9-1-1.9-3s0.7-3,1.9-3C389,271.2,389.7,272.3,389.7,274.2z
		 M392.8,274.2c0-3.6-2.1-5.6-5-5.6c-3,0-5,2-5,5.6c0,3.6,2.1,5.6,5,5.6C390.7,279.8,392.8,277.8,392.8,274.2z"/>
	<path class="st2" d="M403.3,279.8c-1.8,0-3.5-0.6-4.6-1.3l1.5-2.4c0.8,0.5,2.2,1.1,3.2,1.1c1.1,0,1.4-0.2,1.4-0.7
		c0-0.4-0.4-0.6-1.8-1c-2.6-0.6-3.9-1.3-3.9-3.5c0-2,1.7-3.4,4.3-3.4c1.8,0,3.2,0.5,4.3,1.3l-1.5,2.4c-1-0.6-1.9-1-3-1
		c-0.9,0-1.1,0.3-1.1,0.7c0,0.4,0.4,0.6,1.8,0.9c2.7,0.7,3.9,1.5,3.9,3.5C407.8,278.8,405.9,279.8,403.3,279.8z"/>
	<path class="st2" d="M409,279.7v-10.9h8.3v2.5H412v1.5h3.2v2.5H412v1.9h5.5v2.5L409,279.7L409,279.7z"/>
	<path class="st2" d="M424.3,272.4c0,0.8-0.4,1.2-1.4,1.2h-1.8v-2.4h1.8C423.9,271.2,424.3,271.7,424.3,272.4z M427.5,279.7
		l-2.2-4.1c1.2-0.5,2-1.6,2-3.2c0-2.6-1.7-3.5-4.2-3.5h-4.9v10.9h3V276h1.2l1.8,3.7H427.5z"/>
	<path class="st2" d="M428.1,279.7v-10.9h3.1v10.9H428.1z"/>
	<path class="st2" d="M432.9,279.7v-10.9h8.3v2.5h-5.3v1.5h3.2v2.5h-3.2v1.9h5.5v2.5L432.9,279.7L432.9,279.7z"/>
	<path class="st2" d="M445.9,279.8c-1.8,0-3.4-0.6-4.6-1.3l1.5-2.4c0.8,0.5,2.2,1.1,3.2,1.1c1.1,0,1.4-0.2,1.4-0.7
		c0-0.4-0.4-0.6-1.9-1c-2.6-0.6-3.9-1.3-3.9-3.5c0-2,1.7-3.4,4.3-3.4c1.8,0,3.2,0.5,4.3,1.3l-1.5,2.4c-1-0.6-1.9-1-3-1
		c-0.9,0-1.1,0.3-1.1,0.7c0,0.4,0.4,0.6,1.8,0.9c2.7,0.7,3.9,1.5,3.9,3.5C450.4,278.8,448.5,279.8,445.9,279.8z"/>
</g>
</svg>
