<?xml version="1.0" encoding="utf-8"?>
<!-- Generator: Adobe Illustrator 19.1.0, SVG Export Plug-In . SVG Version: 6.00 Build 0)  -->
<svg version="1.1" id="Calque_1" xmlns="http://www.w3.org/2000/svg" xmlns:xlink="http://www.w3.org/1999/xlink" x="0px" y="0px"
	 viewBox="0 0 500 500" style="enable-background:new 0 0 500 500;" xml:space="preserve">
<style type="text/css">
	.st0{fill:#E11622;}
	.st1{fill:#1D1D1B;}
	.st2{fill:#FFFFFF;}
</style>
<g>
	<path class="st0" d="M149.7,62.1l247.9-1.3c0,0,0.7,229.3,0,255c-0.6,25.6-30.1,31.4-30.1,31.4H109.9c0,0,1.3-224.2,1.3-252.4
		C111.2,66.6,149.7,62.1,149.7,62.1z"/>
	<polygon class="st1" points="199.6,164.6 306.6,164.6 306.6,211.4 279.1,211.4 279.1,262 227.8,262 227.8,212.7 199.6,212.7 	"/>
	<polygon class="st2" points="215,176.8 291.2,176.8 291.2,197.9 264.3,197.9 264.3,249.8 242.5,249.8 242.5,200.5 215,200.5 	"/>
	<g>
		<g>
			<g>
				<polygon class="st1" points="26.5,403.7 38.8,403.7 38.8,438.5 55.8,438.5 55.8,404.2 66.7,404.2 66.7,388.2 26.5,388.2 				"/>
				<polygon class="st1" points="103.8,439 125.3,439 125.3,387.7 103.3,387.7 				"/>
				<path class="st1" d="M209.9,406.5c0-18.8-20.9-18.3-20.9-18.3h-24.7l-0.5,50.8h20.6v-16l9.1,16h19.7l-12.9-19.9
					C200.2,419.1,209.9,416.1,209.9,406.5z M183,410.6v-9.1c0,0,8.7-1.7,8.7,4.6C191.7,413.2,183,410.6,183,410.6z"/>
				<path class="st1" d="M267.1,388.7l-20,49.6h17.9l1.9-5.6h15.5l2.4,5.6h18.1l-18.7-49.6H267.1z M269.2,421c0,0,6.1-14.7,5.9-14.7
					l4.8,14.7H269.2z"/>
				<path class="st1" d="M388.2,406.5c0-18.8-20.9-18.3-20.9-18.3h-24.7l-0.5,50.8h20.6v-16l9.1,16h19.7l-12.9-19.9
					C378.6,419.1,388.2,416.1,388.2,406.5z M361.3,410.6v-9.1c0,0,8.7-1.7,8.7,4.6C370,413.2,361.3,410.6,361.3,410.6z"/>
				<path class="st1" d="M430.2,388.4l-0.4,50.7c0,0,48.2,7.7,48.2-23.6C478.1,382,430.2,388.4,430.2,388.4z M446,422.2l0.1-16.7
					c0,0,15.8-2.1,15.8,8.9C461.9,424.7,446,422.2,446,422.2z"/>
			</g>
		</g>
	</g>
</g>
</svg>
