<?xml version="1.0" encoding="utf-8"?>
<!-- Generator: Adobe Illustrator 15.0.0, SVG Export Plug-In . SVG Version: 6.00 Build 0)  -->
<!DOCTYPE svg PUBLIC "-//W3C//DTD SVG 1.1//EN" "http://www.w3.org/Graphics/SVG/1.1/DTD/svg11.dtd">
<svg version="1.1" id="Calque_1" xmlns="http://www.w3.org/2000/svg" xmlns:xlink="http://www.w3.org/1999/xlink" x="0px" y="0px"
	 width="500px" height="500px" viewBox="0 0 500 500" enable-background="new 0 0 500 500" xml:space="preserve">
<g>
	<polygon fill="#1C92B2" points="191.767,347.064 94.234,366.17 100.205,346.663 196.942,327.555 	"/>
	<polygon fill="#1C92B2" points="163.104,324.371 180.223,319.195 152.754,453.353 133.246,466.89 	"/>
	<path fill="#1C92B2" d="M242.524,430.265c-5.971-4.577,3.185-37.82,3.185-37.82s5.176,0.995,7.365-3.184
		c2.189-4.182,4.179-13.535,4.179-13.535h-31.648l1.394-4.181h-10.748l-0.399,4.379c0,0-1.394,0-1.394,2.589
		c0,1.593-2.389,0.795-2.389,0.795s-4.378-3.582-13.136-3.582c-8.758,0-25.081,11.942-29.858,35.431
		c-4.776,23.486,7.564,31.848,16.72,32.643c9.157,0.798,32.246-6.368,33.042-48.966c2.39,5.574,0,2.986,2.586,2.589
		c2.588-0.396,0.599-4.579,4.181-4.776c3.584-0.201,8.36-1.195,7.963,0.596c-0.397,1.792-8.161,20.104-5.375,33.441
		c2.785,13.336,12.538,17.914,25.279,16.121c1.395-7.165,3.184-13.137,3.184-13.137S248.496,434.844,242.524,430.265z
		 M195.35,426.483c-3.185,3.981-8.359,1.989-9.951-5.176c-1.592-7.166-1.793-19.109,7.165-25.677c8.957-6.57,10.75-6.172,10.75-4.38
		c0,0-4.578,6.171,2.388,5.971C202.913,411.156,201.321,419.516,195.35,426.483z"/>
	<path fill="#1C92B2" d="M342.089,377.123c-12.209-7.695-24.416-5.307-38.218,20.169c-1.857-3.449-1.857-1.325-5.572-1.062
		c-3.715,0.268-8.494,0-8.759-5.837c-3.98,6.635-7.696,15.923-7.696,15.923s4.513-1.991,4.379,0.067c0,0-5.572,15.127-10.947,20.702
		c-5.373,5.571-6.567,1.591-6.17-10.748c0.398-12.344,13.535-76.038,19.905-95.346c-8.36,4.975-13.536,7.165-13.536,7.165
		s-15.657,47.64-19.904,79.488c-2.653,18.576-0.266,34.5,12.474,33.97c12.737-0.53,20.967-8.758,30.521-32.113
		c1.591-1.592,2.39-1.062,2.39,0.798c0,1.855-9.026,36.357,37.95,27.335c2.388-10.353,3.979-16.453,3.979-16.453
		s-13.004,6.898-14.594,4.245c-1.595-2.654,10.882-15.66,15.924-23.621C349.254,393.843,354.296,384.82,342.089,377.123z
		 M332.27,395.702c-1.856,3.185-10.351,12.472-13.004,15.924c0,0-1.857,2.122-2.919,1.591c-1.062-0.529-0.266-2.123,3.979-11.941
		c5.841-12.739,9.29-13.801,11.412-13.006C333.861,389.065,334.127,392.515,332.27,395.702z"/>
	<path fill="#1C92B2" d="M383.865,324.117c0,0-17.253,80.679-18.578,88.111c-1.33,7.431-1.594,11.146,2.653,11.146
		s10.616-0.531,10.616-0.531l-2.92,18.579c0,0-4.778,0.267-17.78-1.594c-15.66-1.856-14.333-10.614-12.741-18.842
		c1.593-8.229,23.623-100.854,23.623-100.854L383.865,324.117z"/>
	<path fill="#1C92B2" d="M398.456,354.237c0.532-0.079,0.992-0.205,1.386-0.379c0.746-0.333,1.329-0.831,1.734-1.485
		c0.401-0.647,0.604-1.396,0.604-2.23c0-1.009-0.297-1.881-0.885-2.588c-0.581-0.698-1.341-1.159-2.257-1.367
		c-0.566-0.131-1.565-0.194-3.056-0.194h-3.293v14.286h2.764v-5.449l4.222,5.449h3.46L398.456,354.237z M398.54,351.423
		c-0.223,0.088-0.682,0.192-1.618,0.192l-1.469-0.012v-2.872h1.517c1.019,0,1.444,0.108,1.606,0.173
		c0.234,0.094,0.422,0.249,0.571,0.473c0.151,0.229,0.226,0.479,0.226,0.762c0,0.299-0.074,0.559-0.226,0.793
		C399.002,351.157,398.803,351.318,398.54,351.423z"/>
	<g>
		<g>
			<path fill="#1C92B2" d="M396.61,364.044c-5.687,0-10.312-4.625-10.312-10.311c0-5.683,4.625-10.309,10.312-10.309
				c5.683,0,10.308,4.626,10.308,10.309C406.918,359.419,402.293,364.044,396.61,364.044z M396.61,344.909
				c-4.866,0-8.826,3.959-8.826,8.824c0,4.867,3.96,8.825,8.826,8.825c4.865,0,8.822-3.958,8.822-8.825
				C405.433,348.868,401.476,344.909,396.61,344.909z"/>
		</g>
	</g>
</g>
<path fill="#1C92B2" d="M405.261,316.094l-34.682-34.165V124.713l34.3-33.787V20.96h-51.138v35.272h-20.478V20.96h-62.069v35.643
	h-40.075V20.96H169.05v35.272h-20.478V20.96H97.435v69.966l34.301,33.787v157.216l-35.237,34.712l0.09,0.091
	c-33.451,17.668-51.695,40.641-51.695,65.548c0,27.744,22.625,53.095,63.707,71.379c38.353,17.07,89.113,26.471,142.929,26.471
	c53.815,0,104.576-9.4,142.93-26.471c41.082-18.284,63.706-43.635,63.706-71.379C458.164,357.072,439.486,333.844,405.261,316.094z
	 M113.896,84.036V37.42h18.216v35.271h53.399V37.42h29.147v35.643h72.998V37.42h29.147v35.271h53.399V37.42h18.216v46.616
	l-34.302,33.787v170.997l11.617,11.441c-33.465-10.281-72.925-15.831-114.206-15.831c-41.733,0-81.599,5.676-115.296,16.175
	l11.964-11.785V117.823L113.896,84.036z M385.839,434.292c-35.7,15.89-83.398,24.64-134.311,24.64s-98.61-8.75-134.31-24.64
	c-32.492-14.461-51.128-33.42-51.128-52.013s18.636-37.552,51.128-52.014c35.7-15.89,83.398-24.64,134.31-24.64
	s98.61,8.75,134.311,24.64c32.492,14.462,51.128,33.421,51.128,52.014S418.331,419.831,385.839,434.292z"/>
</svg>
