<?xml version="1.0" encoding="utf-8"?>
<!-- Generator: Adobe Illustrator 19.1.0, SVG Export Plug-In . SVG Version: 6.00 Build 0)  -->
<svg version="1.1" id="Calque_1" xmlns="http://www.w3.org/2000/svg" xmlns:xlink="http://www.w3.org/1999/xlink" x="0px" y="0px"
	 viewBox="0 0 500 500" style="enable-background:new 0 0 500 500;" xml:space="preserve">
<style type="text/css">
	.st0{fill:#0069B3;}
	.st1{fill:#FFFFFF;}
</style>
<g>
	<path class="st0" d="M35.3,154.5c0,0,60-33.7,124.3-28.4c64.3,5.3,122.8,33.2,184.3,36.9c61.4,3.6,138.7-28.6,138.7-28.6
		s-24.4,60-128.7,63.1c-69.1,2-140.9-37.3-200.9-48.2C96.8,136.6,35.3,154.5,35.3,154.5z"/>
	<path class="st0" d="M20.6,368.4l0.3-155.7c0,0,70.1-34.4,122.9-24.7c52.9,9.7,128.6,28.7,177.2,26.8
		c48.6-1.9,138.7-28.6,138.7-28.6l-0.3,162.7c0,0-50.7,31.9-95.8,30.3c-57.2-1.8-138.6-24.2-198.6-22.1
		c-60,2.1-144.4,19.7-144.4,19.7L20.6,368.4z"/>
	<path class="st1" d="M238.3,287.4c-3.8,26.1-34.6,46.9-68.1,46.9c-33.5,0-58.3-20.8-54.6-46.9c3.8-26.1,34.6-46.9,68.1-46.9
		C217.3,240.4,242.1,261.2,238.3,287.4z M144.1,287.4c-2,13.7,10.9,26.5,29,26.5s34.7-12.8,36.7-26.5c2-13.7-10.9-26.5-29-26.5
		C162.7,260.8,146.1,273.6,144.1,287.4z"/>
	<path class="st1" d="M333.8,327.1L333.8,327.1L307.7,293c12.2-3.4,20.5-13.5,21.9-22.7c2.9-20.4-15.6-27.7-42.4-27.7h-32.4
		l-13,90.1l-0.1,0l-0.3,1.8l28.5-0.1l0.6-3.3h0l0.1-0.4l0.1-0.5l0,0l5.5-38.3h0.3l27.2,42.1l0,0l0.2,0.4h35.3L333.8,327.1z
		 M300.6,273.5c-1.5,10.6-11.5,13.7-23.7,13.1l3.6-25.1C292.4,261.1,302.2,262.8,300.6,273.5z"/>
	<polygon class="st1" points="437,323.6 407.9,285.3 451.2,246.3 424.1,240.4 379.8,281 379,281 384.8,240.4 356.1,242.5 343.4,330 
		343.3,330 342.7,334.6 371.3,334.4 372,329.6 377.7,289.7 378.6,289.7 408.4,332.3 408.4,332.3 408.5,332.4 409.8,334.3 
		409.8,334.3 410,334.5 445.3,334.4 437.1,323.6 	"/>
	<polygon class="st1" points="39.8,242.5 29.6,262.9 59.1,262.9 49.5,329.4 49.2,329.4 48.3,334.4 77.4,334.2 78.1,329.2 
		87.6,262.9 115.3,262.9 118.2,242.5 	"/>
	<g>
		<path class="st1" d="M433.2,298.2c-6.9,0-12.6-5.7-12.6-12.6c0-7,5.6-12.6,12.6-12.6c0,0,0,0,0,0c3.4,0,6.5,1.3,8.9,3.7
			c2.4,2.4,3.7,5.5,3.7,8.9C445.8,292.5,440.1,298.2,433.2,298.2z M433.2,275.4C433.2,275.4,433.2,275.4,433.2,275.4
			c-5.6,0-10.1,4.5-10.1,10.1c0,5.6,4.5,10.1,10.1,10.1c5.6,0,10.1-4.5,10.1-10.1c0-2.7-1.1-5.2-3-7.1S435.9,275.4,433.2,275.4z"/>
		<g>
			<path class="st1" d="M428.6,293.5v-15.9h4.1c3.4,0,5.9,1.9,5.9,4.6c0,2.4-1.8,4.1-4.8,4.5l6.2,6.1l-1.9,0.8l-7.5-7.7h-0.1v7.5
				L428.6,293.5z M430.5,285.5h2.5c2.4,0,3.6-1.4,3.6-3.4c0-1.5-1.4-3.2-3.6-3.2h-2.6L430.5,285.5L430.5,285.5z"/>
		</g>
	</g>
</g>
</svg>
