<?xml version="1.0" encoding="utf-8"?>
<!-- Generator: Adobe Illustrator 15.0.0, SVG Export Plug-In . SVG Version: 6.00 Build 0)  -->
<!DOCTYPE svg PUBLIC "-//W3C//DTD SVG 1.1//EN" "http://www.w3.org/Graphics/SVG/1.1/DTD/svg11.dtd">
<svg version="1.1" id="Calque_1" xmlns="http://www.w3.org/2000/svg" xmlns:xlink="http://www.w3.org/1999/xlink" x="0px" y="0px"
	 width="500px" height="500px" viewBox="0 0 500 500" enable-background="new 0 0 500 500" xml:space="preserve">
<g>
	<path fill="#0069B3" d="M35.334,154.454c0,0,59.999-33.714,124.303-28.389c64.303,5.314,122.819,33.237,184.268,36.865
		c61.434,3.629,138.669-28.646,138.669-28.646s-24.393,60.038-128.729,63.053c-69.146,2.017-140.914-37.274-200.926-48.233
		C96.805,136.637,35.334,154.454,35.334,154.454z"/>
	<path fill="#0069B3" d="M20.551,368.396l0.282-155.725c0,0,70.089-34.414,122.944-24.724
		c52.854,9.684,128.569,28.713,177.169,26.826c48.589-1.888,138.682-28.646,138.682-28.646l-0.294,162.676
		c0,0-50.722,31.936-95.805,30.337c-57.169-1.79-138.584-24.189-198.621-22.113c-60.025,2.091-144.369,19.71-144.369,19.71
		L20.551,368.396z"/>
	<path fill="#FFFFFF" d="M238.294,287.368c-3.787,26.146-34.603,46.935-68.127,46.935c-33.525,0-58.334-20.789-54.559-46.935
		c3.776-26.139,34.603-46.921,68.128-46.921C217.26,240.447,242.083,261.229,238.294,287.368z M144.095,287.368
		c-1.985,13.729,10.91,26.544,29.014,26.544s34.702-12.815,36.688-26.544c1.985-13.722-10.911-26.524-29.015-26.524
		C162.678,260.844,146.08,273.646,144.095,287.368z"/>
	<path fill="#FFFFFF" d="M333.78,327.113v-0.006l-26.071-34.113c12.232-3.395,20.542-13.459,21.893-22.744
		c2.94-20.39-15.605-27.701-42.412-27.701H254.83l-13.043,90.148l-0.123,0.013l-0.283,1.843l28.524-0.128l0.589-3.267h0.012
		l0.062-0.35l0.085-0.527l-0.011,0.007l5.54-38.348h0.33l27.249,42.104l-0.025,0.007l0.246,0.373h35.326L333.78,327.113z
		 M300.623,273.523c-1.52,10.584-11.521,13.722-23.669,13.066l3.642-25.104C292.374,261.101,302.192,262.799,300.623,273.523z"/>
	<polygon fill="#FFFFFF" points="437.038,323.638 407.853,285.284 451.206,246.33 424.057,240.447 379.832,280.969 378.975,280.969 
		384.845,240.447 356.052,242.549 343.39,330.037 343.329,330.043 342.679,334.553 371.301,334.425 371.962,329.607 
		377.723,289.729 378.557,289.729 408.404,332.28 408.404,332.28 408.465,332.378 409.825,334.303 409.838,334.296 409.998,334.517 
		445.299,334.425 437.111,323.62 	"/>
	<polygon fill="#FFFFFF" points="39.783,242.549 29.634,262.938 59.125,262.938 49.516,329.38 49.172,329.442 48.29,334.425 
		77.438,334.248 78.052,329.179 87.624,262.938 115.277,262.938 118.231,242.549 	"/>
	<g>
		<path fill="none" stroke="#FFFFFF" stroke-width="2.5103" d="M444.527,285.548c0,6.27-5.088,11.351-11.363,11.351
			c-6.263,0-11.337-5.081-11.337-11.351s5.074-11.356,11.337-11.356C439.439,274.191,444.527,279.278,444.527,285.548z"/>
		<g>
			<path fill="#FFFFFF" d="M428.642,293.474v-15.936h4.057c3.359,0,5.884,1.857,5.884,4.609c0,2.364-1.79,4.087-4.793,4.497
				l6.179,6.062l-1.864,0.768l-7.525-7.699h-0.123v7.501L428.642,293.474z M430.455,285.499h2.537c2.402,0,3.591-1.396,3.591-3.352
				c0-1.546-1.421-3.188-3.565-3.188h-2.562V285.499z"/>
		</g>
	</g>
</g>
</svg>
