<?xml version="1.0" encoding="utf-8"?>
<!-- Generator: Adobe Illustrator 19.1.0, SVG Export Plug-In . SVG Version: 6.00 Build 0)  -->
<svg version="1.1" id="Calque_1" xmlns="http://www.w3.org/2000/svg" xmlns:xlink="http://www.w3.org/1999/xlink" x="0px" y="0px"
	 viewBox="0 0 500 500" style="enable-background:new 0 0 500 500;" xml:space="preserve">
<style type="text/css">
	.st0{fill:#E4221B;}
	.st1{fill:#0D0802;}
	.st2{fill:#FFFFFF;}
	.st3{fill:#1D1D1B;}
</style>
<rect x="17" y="17.2" class="st0" width="467.8" height="467"/>
<path class="st1" d="M49.9,67.4H43v6.9v33.4v6.9h6.9h27.6v111v6.9h6.9h41.4h6.9v-6.9v-111h27.6h6.9v-6.9V74.3v-6.9h-6.9
	C160.4,67.4,49.9,67.4,49.9,67.4z M160.4,107.7h-34.5v117.9H84.4V107.7H49.9V74.3h110.4L160.4,107.7L160.4,107.7z"/>
<path class="st1" d="M304.7,213.5V89.2c0-11.4-9.4-20.7-21.1-20.7h-88.4c-11.6,0-21.1,9.3-21.1,20.7v124.2
	c0,11.4,9.4,20.7,21.1,20.7h88.4C295.3,234.2,304.7,224.9,304.7,213.5z M297.8,213.5c0,7.6-6.3,13.8-14.1,13.8h-88.4
	c-7.8,0-14.2-6.2-14.2-13.8V89.2c0-7.6,6.3-13.8,14.2-13.8h88.4c7.8,0,14.1,6.2,14.1,13.8V213.5z"/>
<path class="st1" d="M223.6,194.5h31.6v-87.4h-31.6V194.5z M230.5,114h17.8v73.6h-17.8V114z"/>
<path class="st1" d="M454.8,223.3l-41.4-78.8l34.9-66.4l5.4-10.3h-11.1h-45.6h-3.8l-1.9,3.5L383.2,87l-8.1-15.5l-1.9-3.5h-3.8h-45.6
	h-11.1l5.4,10.3l34.9,66.4l-41.4,78.8l-5.4,10.3h11.1h45.6h3.8l1.9-3.5l14.7-27.9l14.7,27.9l1.9,3.5h3.8h45.6h11.1L454.8,223.3z
	 M403.6,226.7L383.2,188l-20.4,38.7h-45.6l43.1-82.1l-36.6-69.7h45.6l13.8,26.3L397,74.9h45.6L406,144.6l43.1,82.1L403.6,226.7
	L403.6,226.7z"/>
<polygon class="st2" points="160.4,74.3 49.9,74.3 49.9,107.7 84.4,107.7 84.4,225.6 125.9,225.6 125.9,107.7 160.4,107.7 "/>
<path class="st2" d="M283.7,75.4h-88.4c-7.8,0-14.2,6.2-14.2,13.8v124.2c0,7.6,6.3,13.8,14.2,13.8h88.4c7.8,0,14.1-6.2,14.1-13.8
	V89.2C297.8,81.6,291.5,75.4,283.7,75.4z M255.3,194.5h-31.6v-87.4h31.6L255.3,194.5L255.3,194.5z"/>
<polygon class="st2" points="449.1,226.7 406,144.6 442.6,74.9 397.1,74.9 383.2,101.2 369.4,74.9 323.8,74.9 360.4,144.6 
	317.3,226.7 362.9,226.7 383.2,188 403.6,226.7 "/>
<g>
	<path class="st3" d="M443.3,136.9c1.2-0.2,2.9-0.3,4.8-0.3c2.4,0,4,0.4,5.2,1.3c1,0.8,1.5,1.9,1.5,3.4c0,2-1.4,3.4-2.8,3.9v0.1
		c1.1,0.4,1.7,1.5,2.1,3c0.5,1.8,1,3.9,1.3,4.5h-3.7c-0.2-0.5-0.6-1.8-1.1-3.7c-0.4-2-1.1-2.5-2.6-2.6h-1.1v6.3h-3.6L443.3,136.9
		L443.3,136.9z M446.9,143.8h1.4c1.8,0,2.9-0.9,2.9-2.3c0-1.4-1-2.2-2.6-2.2c-0.9,0-1.4,0-1.6,0.1V143.8z"/>
</g>
<g>
	<path class="st3" d="M449.2,159.4c-8,0-14.5-6.5-14.5-14.5s6.5-14.5,14.5-14.5s14.5,6.5,14.5,14.5S457.2,159.4,449.2,159.4z
		 M449.2,133.8c-6.1,0-11.1,5-11.1,11.1c0,6.1,5,11.1,11.1,11.1s11.1-5,11.1-11.1S455.3,133.8,449.2,133.8z"/>
</g>
<g>
	<path class="st2" d="M283.9,447.4c-2.1,0.7-6.1,1.7-10.1,1.7c-5.5,0-9.5-1.4-12.3-4c-2.7-2.6-4.3-6.6-4.3-11
		c0-10,7.3-15.8,17.2-15.8c3.9,0,6.9,0.8,8.4,1.4l-1.4,5.5c-1.7-0.8-3.7-1.3-7-1.3c-5.7,0-10,3.2-10,9.8c0,6.3,3.9,9.9,9.5,9.9
		c1.5,0,2.8-0.2,3.3-0.4v-6.4h-4.7v-5.3h11.2L283.9,447.4L283.9,447.4z"/>
	<path class="st2" d="M307.2,436h-11.1v7.2h12.4v5.6h-19.2v-30.2h18.6v5.6h-11.8v6.3h11.1V436z"/>
	<path class="st2" d="M312,419c2.2-0.4,5.4-0.6,9.1-0.6c4.5,0,7.6,0.7,9.8,2.4c1.8,1.4,2.8,3.6,2.8,6.4c0,3.8-2.7,6.5-5.3,7.4v0.1
		c2.1,0.8,3.3,2.8,4,5.6c0.9,3.5,1.8,7.4,2.4,8.6h-7c-0.4-0.9-1.2-3.3-2.1-7c-0.9-3.8-2.1-4.8-5-4.8h-2v11.9H312L312,419L312,419z
		 M318.7,432h2.7c3.4,0,5.4-1.7,5.4-4.3c0-2.7-1.9-4.2-5-4.2c-1.7,0-2.6,0.1-3.1,0.2L318.7,432L318.7,432z"/>
	<path class="st2" d="M362.1,437.2c-0.1-3.6-0.3-8-0.3-12.4h-0.1c-1,3.9-2.2,8.2-3.4,11.7l-3.7,11.8h-5.3l-3.2-11.6
		c-1-3.6-2-7.9-2.7-11.8h-0.1c-0.1,4.1-0.3,8.7-0.5,12.5l-0.6,11.5h-6.3l1.9-30.2h9.1l3,10.1c1,3.5,1.9,7.3,2.6,10.8h0.2
		c0.8-3.5,1.8-7.5,2.9-10.8l3.2-10h9l1.6,30.2h-6.6L362.1,437.2z"/>
	<path class="st2" d="M384.5,441l-2.2,7.8h-7l9.2-30.2h9l9.4,30.2h-7.4l-2.3-7.8H384.5z M392.1,435.9l-1.9-6.4
		c-0.5-1.8-1.1-4-1.5-5.8h-0.1c-0.4,1.8-0.9,4.1-1.4,5.8l-1.8,6.4H392.1z"/>
	<path class="st2" d="M406.8,448.8v-30.2h8l6.3,11.1c1.8,3.2,3.5,6.9,4.9,10.3h0.1c-0.4-4-0.5-8.1-0.5-12.6v-8.8h6.3v30.2h-7.2
		l-6.5-11.6c-1.8-3.2-3.8-7.1-5.2-10.7h-0.2c0.2,4,0.3,8.3,0.3,13.2v9.1L406.8,448.8L406.8,448.8z"/>
	<path class="st2" d="M443.9,448.8v-12.4l-9.5-17.8h7.8l3,7.3c0.9,2.2,1.6,3.8,2.3,5.8h0.1c0.7-1.9,1.4-3.6,2.3-5.8l3-7.3h7.7
		l-9.9,17.6v12.6H443.9z"/>
</g>
</svg>
