<?xml version="1.0" encoding="utf-8"?>
<!-- Generator: Adobe Illustrator 15.0.0, SVG Export Plug-In . SVG Version: 6.00 Build 0)  -->
<!DOCTYPE svg PUBLIC "-//W3C//DTD SVG 1.1//EN" "http://www.w3.org/Graphics/SVG/1.1/DTD/svg11.dtd">
<svg version="1.1" id="Calque_1" xmlns="http://www.w3.org/2000/svg" xmlns:xlink="http://www.w3.org/1999/xlink" x="0px" y="0px"
	 width="500px" height="500px" viewBox="0 0 500 500" enable-background="new 0 0 500 500" xml:space="preserve">
<rect x="16.966" y="17.17" fill="#E4221B" width="467.753" height="466.988"/>
<path fill="#0D0802" d="M49.938,67.396h-6.901v6.901v33.356v6.901h6.901h27.605V225.55v6.901h6.901h41.408h6.901v-6.901V114.555
	h27.605h6.901v-6.901V74.297v-6.901h-6.901H49.938z M160.358,107.653h-34.506V225.55H84.444V107.653H49.938V74.297h110.421V107.653z
	"/>
<path fill="#0D0802" d="M304.71,213.473V89.25c0-11.416-9.444-20.704-21.052-20.704h-88.445c-11.607,0-21.052,9.288-21.052,20.704
	v124.223c0,11.416,9.444,20.704,21.052,20.704h88.445C295.266,234.177,304.71,224.889,304.71,213.473z M297.809,213.473
	c0,7.623-6.335,13.802-14.15,13.802h-88.445c-7.815,0-14.151-6.18-14.151-13.802V89.25c0-7.623,6.335-13.803,14.151-13.803h88.445
	c7.815,0,14.15,6.18,14.15,13.803V213.473z"/>
<path fill="#0D0802" d="M223.62,194.495h31.631v-87.417H223.62V194.495z M230.521,113.979h17.828v73.614h-17.828V113.979z"/>
<path fill="#0D0802" d="M454.838,223.343l-41.378-78.754l34.868-66.36l5.389-10.259h-11.079h-45.587h-3.828l-1.862,3.544
	l-8.147,15.509l-8.148-15.509l-1.862-3.544h-3.828h-45.586h-11.08l5.392,10.259l34.866,66.36l-41.379,78.754l-5.392,10.258h11.08
	h45.586h3.828l1.862-3.543l14.661-27.903l14.66,27.903l1.862,3.543h3.828h45.587h11.079L454.838,223.343z M403.563,226.701
	l-20.351-38.732l-20.352,38.732h-45.586l43.144-82.111l-36.631-69.717h45.586l13.839,26.338l13.838-26.338h45.587l-36.632,69.717
	l43.145,82.111H403.563z"/>
<polygon fill="#FFFFFF" points="160.358,74.297 49.938,74.297 49.938,107.653 84.444,107.653 84.444,225.55 125.852,225.55 
	125.852,107.653 160.358,107.653 "/>
<path fill="#FFFFFF" d="M283.658,75.447h-88.445c-7.815,0-14.151,6.18-14.151,13.803v124.223c0,7.623,6.335,13.802,14.151,13.802
	h88.445c7.815,0,14.15-6.18,14.15-13.802V89.25C297.809,81.627,291.474,75.447,283.658,75.447z M255.251,194.495H223.62v-87.417
	h31.631V194.495z"/>
<polygon fill="#FFFFFF" points="449.15,226.701 406.006,144.589 442.638,74.872 397.051,74.872 383.213,101.21 369.374,74.872 
	323.788,74.872 360.419,144.589 317.275,226.701 362.861,226.701 383.213,187.968 403.563,226.701 "/>
<g>
	<path fill="#1D1D1B" d="M443.341,136.911c1.159-0.188,2.861-0.33,4.803-0.33c2.365,0,4.021,0.354,5.158,1.253
		c0.968,0.757,1.489,1.893,1.489,3.36c0,2.01-1.442,3.407-2.814,3.903v0.071c1.111,0.449,1.727,1.49,2.129,2.958
		c0.497,1.822,0.971,3.903,1.276,4.519h-3.688c-0.238-0.473-0.641-1.751-1.09-3.714c-0.449-2.011-1.135-2.531-2.626-2.556h-1.065
		v6.27h-3.571V136.911z M446.912,143.772h1.42c1.8,0,2.862-0.899,2.862-2.296c0-1.442-0.993-2.199-2.648-2.199
		c-0.876,0-1.373,0.047-1.634,0.118V143.772z"/>
</g>
<g>
	<path fill="#1D1D1B" d="M449.206,159.413c-8.007,0-14.521-6.514-14.521-14.521s6.515-14.521,14.521-14.521
		s14.521,6.514,14.521,14.521S457.213,159.413,449.206,159.413z M449.206,133.821c-6.104,0-11.071,4.966-11.071,11.071
		c0,6.104,4.968,11.071,11.071,11.071s11.071-4.966,11.071-11.071C460.277,138.787,455.31,133.821,449.206,133.821z"/>
</g>
<g>
	<path fill="#FFFFFF" d="M283.885,447.371c-2.106,0.719-6.09,1.705-10.077,1.705c-5.511,0-9.499-1.391-12.275-4.032
		c-2.733-2.643-4.255-6.587-4.255-11.021c0.043-10.035,7.346-15.769,17.246-15.769c3.898,0,6.899,0.762,8.378,1.434l-1.434,5.511
		c-1.658-0.764-3.673-1.301-6.989-1.301c-5.689,0-10.032,3.181-10.032,9.768c0,6.272,3.94,9.9,9.538,9.9
		c1.525,0,2.779-0.18,3.316-0.404v-6.36h-4.657v-5.33h11.241V447.371z"/>
	<path fill="#FFFFFF" d="M307.173,435.995h-11.111v7.166h12.412v5.601h-19.222v-30.193h18.595v5.601h-11.785v6.271h11.111V435.995z"
		/>
	<path fill="#FFFFFF" d="M311.974,418.971c2.194-0.357,5.421-0.627,9.091-0.627c4.48,0,7.618,0.672,9.769,2.375
		c1.835,1.433,2.823,3.583,2.823,6.359c0,3.808-2.733,6.452-5.33,7.392v0.137c2.103,0.849,3.269,2.821,4.029,5.599
		c0.939,3.45,1.838,7.393,2.42,8.557h-6.989c-0.449-0.896-1.21-3.313-2.062-7.034c-0.85-3.808-2.15-4.792-4.972-4.837h-2.016v11.871
		h-6.764V418.971z M318.737,431.962h2.688c3.403,0,5.421-1.702,5.421-4.347c0-2.729-1.881-4.165-5.017-4.165
		c-1.658,0-2.6,0.09-3.092,0.225V431.962z"/>
	<path fill="#FFFFFF" d="M362.145,437.203c-0.133-3.628-0.268-8.018-0.268-12.407h-0.09c-0.986,3.853-2.239,8.152-3.405,11.69
		l-3.671,11.783h-5.331l-3.229-11.648c-0.985-3.585-1.97-7.885-2.731-11.825h-0.088c-0.137,4.075-0.316,8.734-0.494,12.497
		l-0.582,11.469h-6.316l1.925-30.193h9.097l2.956,10.08c0.983,3.493,1.88,7.254,2.554,10.795h0.176
		c0.809-3.493,1.838-7.481,2.869-10.842l3.183-10.033h8.957l1.613,30.193h-6.63L362.145,437.203z"/>
	<path fill="#FFFFFF" d="M384.469,441.011l-2.152,7.751h-7.034l9.187-30.193h8.956l9.409,30.193h-7.392l-2.329-7.751H384.469z
		 M392.127,435.902l-1.881-6.404c-0.537-1.793-1.078-4.03-1.525-5.823h-0.09c-0.447,1.793-0.896,4.077-1.386,5.823l-1.793,6.404
		H392.127z"/>
	<path fill="#FFFFFF" d="M406.812,448.762v-30.193h7.973l6.272,11.064c1.792,3.181,3.54,6.943,4.927,10.348h0.09
		c-0.402-3.985-0.537-8.063-0.537-12.633v-8.779h6.271v30.193h-7.168l-6.45-11.648c-1.795-3.224-3.808-7.121-5.241-10.662h-0.18
		c0.223,4.033,0.312,8.288,0.312,13.217v9.094H406.812z"/>
	<path fill="#FFFFFF" d="M443.896,448.762v-12.365l-9.543-17.828h7.838l3.048,7.257c0.939,2.194,1.613,3.808,2.33,5.777h0.09
		c0.67-1.88,1.386-3.628,2.285-5.777l3.046-7.257h7.66l-9.945,17.606v12.587H443.896z"/>
</g>
</svg>
