<?xml version="1.0" encoding="utf-8"?>
<!-- Generator: Adobe Illustrator 21.0.2, SVG Export Plug-In . SVG Version: 6.00 Build 0)  -->
<svg version="1.1" id="Calque_1" xmlns="http://www.w3.org/2000/svg" xmlns:xlink="http://www.w3.org/1999/xlink" x="0px" y="0px"
	 viewBox="0 0 500 232" style="enable-background:new 0 0 500 232;" xml:space="preserve">
<style type="text/css">
	.st0{fill:#C90B1C;}
	.st1{fill:#C6C6C6;}
</style>
<path class="st0" d="M209.3,66.6c-8.5,0-15.3-7.8-15.3-17.4c0-9.6,6.9-17.4,15.3-17.4c8.5,0,15.3,7.8,15.3,17.4
	C224.7,58.8,217.8,66.6,209.3,66.6 M209.3,21.8c-15.1,0-27.4,12.3-27.4,27.4s12.3,27.4,27.4,27.4c15.2,0,27.4-12.3,27.4-27.4
	S224.5,21.8,209.3,21.8"/>
<polygon class="st0" points="284,23.7 240.2,23.7 240.2,33.2 256.4,33.2 256.4,33.2 256.4,75.4 267.9,75.4 267.9,33.2 268,33.2 
	284,33.2 "/>
<path class="st0" d="M301.4,55l7.2-18.9h0.1l7.2,18.9h-7.3H301.4z M315.8,23.7h-7.2h-7.2l-21.4,51.8h13.5l4.4-11.6l0,0h10.6h10.6
	l0,0l4.4,11.6h13.5L315.8,23.7"/>
<polygon class="st0" points="70.9,23.7 27.1,23.7 27.1,33.2 43.3,33.2 43.2,33.2 43.2,75.4 54.8,75.4 54.8,33.2 54.8,33.2 
	70.9,33.2 "/>
<path class="st0" d="M101.3,66.6c-8.5,0-15.3-7.8-15.3-17.4c0-9.6,6.9-17.4,15.3-17.4c8.5,0,15.3,7.8,15.3,17.4
	C116.6,58.8,109.8,66.6,101.3,66.6 M101.3,21.8c-15.2,0-27.4,12.3-27.4,27.4s12.3,27.4,27.4,27.4c15.2,0,27.4-12.3,27.4-27.4
	S116.5,21.8,101.3,21.8"/>
<polygon class="st0" points="181.4,23.7 167.9,23.7 155.3,45.4 142.8,23.7 129.3,23.7 149.5,55.8 149.5,56 149.5,75.4 155.3,75.4 
	161.2,75.4 161.2,56 161.2,55.8 "/>
<rect x="27.1" y="101.3" class="st1" width="444.8" height="10.4"/>
<path d="M29.3,163.4h6.2l7.3,22c1,3.1,1.2,3.7,1.4,4.6h0.1c0.5-1.7,0.6-2,1.6-5l7.4-21.6h5.5v31.1H55v-26h-0.1l-8.9,26h-3.7
	L33.4,168h-0.1v26.4h-3.9V163.4z"/>
<path d="M74.1,163.4h4.4l12.7,31.1h-4.6l-3.6-9.5h-13l-3.4,9.5h-4.3L74.1,163.4z M71.1,181.7h10.5l-3.3-8.6c-0.8-2-1.5-3.9-2.1-6.5
	h-0.1c-0.4,2-0.9,4-1.6,5.9L71.1,181.7z"/>
<polygon points="99.5,167.1 89.3,167.1 89.3,163.4 113.9,163.4 113.9,167.1 103.6,167.1 103.6,194.5 99.5,194.5 "/>
<polygon points="118.2,163.4 140.7,163.4 140.7,167.1 122.4,167.1 122.4,176.6 139.5,176.6 139.5,180.3 122.4,180.3 122.4,190.8 
	141.5,190.8 141.5,194.5 118.2,194.5 "/>
<path d="M147.2,163.4H161c2.2,0,4.2,0,6.2,0.8c3.2,1.2,4.9,4.4,4.9,7.7c0,5-3.4,7.7-8.7,8.4v0.1c1.6,0.7,3.4,1.9,5.9,5.6l5.4,8.5
	h-5.2l-4.1-6.4c-4.4-7-5.9-7.3-9.3-7.3h-4.7v13.7h-4.1V163.4z M151.3,177.1h8.8c1.9,0,3.3,0,4.9-0.7c1.6-0.7,2.7-2.6,2.7-4.4
	c0-1.9-1.1-3.5-2.4-4.2c-1.3-0.7-2.6-0.9-4.3-0.9h-9.8V177.1z"/>
<rect x="179.1" y="163.4" width="4.1" height="31.1"/>
<path d="M199,163.4h4.4l12.7,31.1h-4.6l-3.6-9.5h-13l-3.4,9.5h-4.3L199,163.4z M196,181.7h10.5l-3.3-8.6c-0.8-2-1.5-3.9-2.1-6.5
	h-0.1c-0.4,2-0.9,4-1.6,5.9L196,181.7z"/>
<polygon points="219.3,163.4 223.5,163.4 223.5,190.8 238.8,190.8 238.8,194.5 219.3,194.5 "/>
<polygon points="255.7,163.4 259.9,163.4 259.9,176.1 276,176.1 276,163.4 280.1,163.4 280.1,194.5 276,194.5 276,179.8 
	259.9,179.8 259.9,194.5 255.7,194.5 "/>
<path d="M295.5,163.4h4.4l12.7,31.1h-4.6l-3.6-9.5h-13l-3.4,9.5h-4.3L295.5,163.4z M292.5,181.7H303l-3.3-8.6
	c-0.8-2-1.5-3.9-2.1-6.5h-0.1c-0.4,2-0.9,4-1.6,5.9L292.5,181.7z"/>
<polygon points="316,163.4 320.2,163.4 336.4,187.8 336.5,187.8 336.5,163.4 340.4,163.4 340.4,194.5 336.2,194.5 319.9,170.1 
	319.9,170.1 319.9,194.5 316,194.5 "/>
<path d="M347.3,163.4H358c3.5,0,7.9,0,11.2,3.8c1.8,2,3.8,5.3,3.8,11.6c0,5.8-1.8,10-4.5,12.6c-2.6,2.4-6.3,3.1-10,3.1h-11.2V163.4z
	 M351.4,190.8h6.6c3.6,0,10.7,0,10.7-12.1c0-3.3-0.5-7.2-3.3-9.6c-2.2-2-4.8-2-7.5-2h-6.5V190.8z"/>
<polygon points="378.4,163.4 382.6,163.4 382.6,190.8 397.9,190.8 397.9,194.5 378.4,194.5 "/>
<rect x="403.3" y="163.4" width="4.1" height="31.1"/>
<polygon points="414.8,163.4 419,163.4 435.2,187.8 435.3,187.8 435.3,163.4 439.2,163.4 439.2,194.5 435,194.5 418.8,170.1 
	418.7,170.1 418.7,194.5 414.8,194.5 "/>
<path d="M460.5,178.6h13.1v11.5c-1.7,1.3-6.1,4.9-12.8,4.9c-9.4,0-15.9-6.1-15.9-15.9c0-6.1,2.9-16.2,15.6-16.2
	c10.4,0,12.1,7,12.7,9.2l-3.7,1c-0.6-2-1.9-6.7-9-6.7c-10.5,0-11.3,9.4-11.3,12.4c0,3.3,0.6,6.6,2.8,9c2.2,2.4,5.6,3.5,8.6,3.5
	c4.7,0,8.3-2.6,9.1-3.2v-5.8h-9.2V178.6z"/>
</svg>
