<?xml version="1.0" encoding="utf-8"?>
<!-- Generator: Adobe Illustrator 21.0.2, SVG Export Plug-In . SVG Version: 6.00 Build 0)  -->
<svg version="1.1" id="Calque_1" xmlns="http://www.w3.org/2000/svg" xmlns:xlink="http://www.w3.org/1999/xlink" x="0px" y="0px"
	 viewBox="0 0 500 148" style="enable-background:new 0 0 500 148;" xml:space="preserve">
<style type="text/css">
	.st0{fill:#293A88;}
	.st1{fill:none;}
</style>
<g>
	<path class="st0" d="M200.1,29.8h-11.4V19.3H224v10.4h-11.4V60h-12.5V29.8z"/>
	<path class="st0" d="M228.6,19.3h23.9c7.1,0,13.3,3.9,13.3,11.6c0,4.2-1.9,8.7-6.1,10.2c3.4,1.3,5.5,5.1,6,10.1
		c0.2,2,0.2,6.8,1.4,8.7h-12.5c-0.6-2.1-0.9-4.2-1-6.3c-0.3-3.9-0.7-7.9-5.6-7.9h-6.7V60h-12.5V19.3z M241.2,37.1h6.6
		c2.3,0,5.5-0.4,5.5-4c0-2.6-1.4-4-6.2-4h-5.9V37.1z"/>
	<path class="st0" d="M282.1,19.3h12.2L309.2,60h-13l-1.7-5.8h-12.9l-1.8,5.8h-12.6L282.1,19.3z M292,45.5L288.3,33h-0.1l-3.9,12.5
		H292z"/>
	<path class="st0" d="M27.7,76.9h24.1v4.5h-9.4v25.2h-5.2V81.4h-9.4V76.9z"/>
	<path class="st0" d="M69.6,106.6H65v-3h-0.1c-1.2,2.2-3.7,3.6-6.1,3.6c-5.6,0-8-2.8-8-8.4V85.1h4.7v13.2c0,3.8,1.5,5.2,4.1,5.2
		c4,0,5.3-2.5,5.3-5.9V85.1h4.7V106.6z"/>
	<path class="st0" d="M72.2,85.1h5.2l5.6,16.1h0.1l5.5-16.1h5l-8.4,22.7c-1.5,3.9-2.7,7.4-7.6,7.4c-1.1,0-2.2-0.1-3.3-0.2v-4
		c0.7,0.1,1.5,0.3,2.2,0.3c2.2,0,2.7-1.2,3.3-3l0.5-1.7L72.2,85.1z"/>
	<path class="st0" d="M114.2,101.9c0,1.2,0.2,1.6,1.1,1.6c0.3,0,0.7,0,1.2-0.1v3.3c-0.7,0.2-2.2,0.5-3,0.5c-1.9,0-3.3-0.7-3.7-2.6
		c-1.9,1.8-4.9,2.6-7.4,2.6c-3.9,0-7.4-2.1-7.4-6.3c0-5.4,4.3-6.2,8.3-6.7c3.4-0.6,6.4-0.2,6.4-3c0-2.5-2.5-2.9-4.5-2.9
		c-2.7,0-4.5,1.1-4.7,3.4h-4.7c0.3-5.5,5-7.2,9.8-7.2c4.2,0,8.6,1.7,8.6,6.2V101.9z M109.5,95.9c-1.5,1-3.7,0.9-5.8,1.3
		c-2,0.3-3.9,1.1-3.9,3.6c0,2.1,2.7,2.7,4.4,2.7c2.1,0,5.3-1.1,5.3-4.1V95.9z"/>
	<path class="st0" d="M138.2,106.6h-4.7v-3h-0.1c-1.2,2.2-3.7,3.6-6.1,3.6c-5.6,0-8-2.8-8-8.4V85.1h4.7v13.2c0,3.8,1.5,5.2,4.1,5.2
		c4,0,5.3-2.5,5.3-5.9V85.1h4.7V106.6z"/>
	<path class="st0" d="M141.1,85.1h3.6v-6.5h4.7v6.5h4.3v3.5h-4.3v11.5c0,2,0.2,3,2.3,3c0.7,0,1.3,0,2-0.2v3.7c-1,0.1-2,0.2-3.1,0.2
		c-5,0-5.9-1.9-6-5.5V88.7h-3.6V85.1z"/>
	<path class="st0" d="M160.8,97.1c0,3.4,1.8,6.4,5.8,6.4c2.7,0,4.4-1.2,5.2-3.6h4.5c-1,4.7-5,7.3-9.7,7.3c-6.7,0-10.5-4.7-10.5-11.3
		c0-6.1,4-11.4,10.4-11.4c6.8,0,10.9,6.1,10.2,12.6H160.8z M171.9,94c-0.2-3-2.2-5.7-5.4-5.7c-3.3,0-5.5,2.5-5.7,5.7H171.9z"/>
	<path class="st0" d="M180.2,85.1h4.5v4.2h0.1c0.5-2.3,3.4-4.7,6.3-4.7c1.1,0,1.4,0.1,1.8,0.1v4.6c-0.7-0.1-1.4-0.2-2-0.2
		c-3.2,0-5.8,2.6-5.8,7.4v10.2h-4.7V85.1z"/>
	<path class="st0" d="M208.6,97.1c0,3.4,1.8,6.4,5.8,6.4c2.7,0,4.4-1.2,5.2-3.6h4.5c-1,4.7-5,7.3-9.7,7.3c-6.7,0-10.5-4.7-10.5-11.3
		c0-6.1,4-11.4,10.4-11.4c6.8,0,10.9,6.1,10.2,12.6H208.6z M219.7,94c-0.2-3-2.2-5.7-5.4-5.7c-3.3,0-5.5,2.5-5.7,5.7H219.7z"/>
	<path class="st0" d="M243.3,97.1c0,3.4,1.8,6.4,5.8,6.4c2.7,0,4.4-1.2,5.2-3.6h4.5c-1,4.7-5,7.3-9.7,7.3c-6.7,0-10.5-4.7-10.5-11.3
		c0-6.1,4-11.4,10.4-11.4c6.8,0,10.9,6.1,10.2,12.6H243.3z M254.4,94c-0.2-3-2.2-5.7-5.4-5.7c-3.3,0-5.5,2.5-5.7,5.7H254.4z"/>
	<path class="st0" d="M260.6,85.1h3.6v-6.5h4.7v6.5h4.3v3.5h-4.3v11.5c0,2,0.2,3,2.3,3c0.7,0,1.3,0,2-0.2v3.7c-1,0.1-2,0.2-3.1,0.2
		c-5,0-5.9-1.9-6-5.5V88.7h-3.6V85.1z"/>
	<path class="st0" d="M288.9,76.9H303c6.5,0,9.8,3,9.8,8c0,5.7-4,7.2-4.9,7.5v0.1c1.8,0.2,4.4,1.6,4.4,6.3c0,3.5,0.5,6.6,1.6,7.8
		h-5.6c-0.8-1.3-0.8-2.9-0.8-4.4c0-5.5-1.1-7.9-5.9-7.9h-7.7v12.2h-5.2V76.9z M294.1,90.5h8.5c3.3,0,5.1-1.6,5.1-4.7
		c0-3.8-2.5-4.5-5.2-4.5h-8.4V90.5z"/>
	<path class="st0" d="M335.5,101.9c0,1.2,0.2,1.6,1.1,1.6c0.3,0,0.7,0,1.2-0.1v3.3c-0.7,0.2-2.2,0.5-3,0.5c-1.9,0-3.3-0.7-3.7-2.6
		c-1.9,1.8-4.9,2.6-7.4,2.6c-3.9,0-7.4-2.1-7.4-6.3c0-5.4,4.3-6.2,8.3-6.7c3.4-0.6,6.4-0.2,6.4-3c0-2.5-2.5-2.9-4.5-2.9
		c-2.7,0-4.5,1.1-4.7,3.4h-4.7c0.3-5.5,5-7.2,9.8-7.2c4.2,0,8.6,1.7,8.6,6.2V101.9z M330.8,95.9c-1.5,1-3.7,0.9-5.8,1.3
		c-2,0.3-3.9,1.1-3.9,3.6c0,2.1,2.7,2.7,4.4,2.7c2.1,0,5.3-1.1,5.3-4.1V95.9z"/>
	<path class="st0" d="M355.1,92.3c-0.4-2.6-2.3-4-4.9-4c-2.5,0-5.9,1.3-5.9,7.8c0,3.6,1.6,7.4,5.7,7.4c2.7,0,4.7-1.8,5.1-4.9h4.7
		c-0.9,5.6-4.3,8.7-9.9,8.7c-6.7,0-10.4-4.8-10.4-11.1c0-6.5,3.5-11.6,10.6-11.6c5,0,9.2,2.5,9.7,7.8H355.1z"/>
	<path class="st0" d="M378.3,92.3c-0.4-2.6-2.3-4-4.9-4c-2.5,0-5.9,1.3-5.9,7.8c0,3.6,1.6,7.4,5.7,7.4c2.7,0,4.7-1.8,5.1-4.9h4.7
		c-0.9,5.6-4.3,8.7-9.9,8.7c-6.7,0-10.4-4.8-10.4-11.1c0-6.5,3.5-11.6,10.6-11.6c5,0,9.2,2.5,9.7,7.8H378.3z"/>
	<path class="st0" d="M385.9,95.9c0-6.6,4-11.3,10.9-11.3s10.9,4.7,10.9,11.3c0,6.6-4,11.4-10.9,11.4S385.9,102.5,385.9,95.9z
		 M402.9,95.9c0-3.7-1.9-7.6-6.1-7.6s-6.1,3.9-6.1,7.6c0,3.7,1.9,7.6,6.1,7.6S402.9,99.6,402.9,95.9z"/>
	<path class="st0" d="M411.6,85.1h4.5v4.2h0.1c0.5-2.3,3.4-4.7,6.3-4.7c1.1,0,1.4,0.1,1.8,0.1v4.6c-0.7-0.1-1.4-0.2-2-0.2
		c-3.2,0-5.8,2.6-5.8,7.4v10.2h-4.7V85.1z"/>
	<path class="st0" d="M445.7,106.6h-4.5v-2.9h-0.1c-1.2,2.5-4,3.5-6.7,3.5c-6.8,0-10.1-5-10.1-11.5c0-7.8,4.6-11.2,9.3-11.2
		c2.7,0,5.7,1,7.2,3.4h0.1v-11h4.7V106.6z M435.1,103.5c4.2,0,6-3.9,6-7.6c0-4.7-2.3-7.6-6-7.6c-4.5,0-6,4-6,7.8
		C429.2,99.8,431,103.5,435.1,103.5z"/>
	<path class="st0" d="M454.5,99.7c0.2,2.7,2.3,3.7,4.9,3.7c1.8,0,4.9-0.4,4.8-2.8c-0.1-2.5-3.6-2.8-7-3.6c-3.5-0.7-6.9-2-6.9-6.4
		c0-4.7,5.1-6.2,9-6.2c4.4,0,8.4,1.8,9,6.6h-5c-0.4-2.2-2.3-2.9-4.4-2.9c-1.4,0-3.9,0.3-3.9,2.2c0,2.3,3.5,2.7,7,3.5
		c3.5,0.8,6.9,2,6.9,6.3c0,5.1-5.2,7-9.6,7c-5.4,0-9.4-2.4-9.5-7.5H454.5z"/>
	<path class="st0" d="M187.2,125.8c0,0.6,0.1,0.9,0.6,0.9c0.2,0,0.3,0,0.6,0v1.7c-0.4,0.1-1.2,0.3-1.6,0.3c-1,0-1.7-0.3-1.9-1.4
		c-1,1-2.6,1.4-3.9,1.4c-2,0-3.9-1.1-3.9-3.3c0-2.8,2.3-3.3,4.3-3.5c1.8-0.3,3.4-0.1,3.4-1.6c0-1.3-1.3-1.5-2.3-1.5
		c-1.4,0-2.4,0.6-2.5,1.8h-2.5c0.2-2.9,2.6-3.8,5.1-3.8c2.2,0,4.5,0.9,4.5,3.3V125.8z M184.7,122.7c-0.8,0.5-2,0.5-3.1,0.7
		c-1.1,0.2-2,0.6-2,1.9c0,1.1,1.4,1.4,2.3,1.4c1.1,0,2.8-0.6,2.8-2.1V122.7z"/>
	<path class="st0" d="M188.7,117.1h2.7l2.9,8.7h0l2.8-8.7h2.6l-4,11.3h-2.8L188.7,117.1z"/>
	<path class="st0" d="M210.7,125.8c0,0.6,0.1,0.9,0.6,0.9c0.2,0,0.3,0,0.6,0v1.7c-0.4,0.1-1.2,0.3-1.6,0.3c-1,0-1.7-0.3-1.9-1.4
		c-1,1-2.6,1.4-3.9,1.4c-2,0-3.9-1.1-3.9-3.3c0-2.8,2.3-3.3,4.3-3.5c1.8-0.3,3.4-0.1,3.4-1.6c0-1.3-1.3-1.5-2.3-1.5
		c-1.4,0-2.4,0.6-2.5,1.8H201c0.2-2.9,2.6-3.8,5.1-3.8c2.2,0,4.5,0.9,4.5,3.3V125.8z M208.2,122.7c-0.8,0.5-2,0.5-3.1,0.7
		c-1.1,0.2-2,0.6-2,1.9c0,1.1,1.4,1.4,2.3,1.4c1.1,0,2.8-0.6,2.8-2.1V122.7z"/>
	<path class="st0" d="M213.3,117.1h2.4v1.7l0,0c0.7-1.2,2-2,3.5-2c2.4,0,4,1.3,4,3.8v7.8h-2.5v-7.1c0-1.8-0.7-2.5-2.2-2.5
		c-1.7,0-2.7,1.3-2.7,3v6.7h-2.5V117.1z"/>
	<path class="st0" d="M233.5,120.8c-0.2-1.4-1.2-2.1-2.6-2.1c-1.3,0-3.1,0.7-3.1,4.1c0,1.9,0.8,3.9,3,3.9c1.4,0,2.4-1,2.7-2.6h2.5
		c-0.5,2.9-2.3,4.5-5.2,4.5c-3.5,0-5.5-2.5-5.5-5.8c0-3.4,1.9-6.1,5.6-6.1c2.6,0,4.9,1.3,5.1,4.1H233.5z"/>
	<rect x="195" y="76.9" class="st0" width="4.7" height="4.5"/>
	<rect x="195" y="85.1" class="st0" width="4.7" height="21.5"/>
	<path class="st0" d="M242.9,116.8c-3.4,0-5.5,2.8-5.5,6c0,3.5,2,5.9,5.5,5.9c2.5,0,4.6-1.4,5.1-3.8h-2.4c-0.4,1.2-1.3,1.9-2.8,1.9
		c-2.1,0-3-1.6-3-3.3h8.3C248.7,120,246.5,116.8,242.9,116.8z M240,121.7c0.1-1.7,1.2-3,3-3c1.7,0,2.8,1.4,2.8,3H240z"/>
	<polygon class="st0" points="246.1,112.4 243.1,112.4 241.2,115.5 243,115.5 	"/>
	<path class="st0" d="M252.1,124.7c0.1,1.4,1.2,2,2.6,2c0.9,0,2.6-0.2,2.5-1.5c-0.1-1.3-1.9-1.5-3.7-1.9c-1.8-0.4-3.6-1-3.6-3.3
		c0-2.5,2.7-3.2,4.7-3.2c2.3,0,4.4,1,4.7,3.5h-2.6c-0.2-1.2-1.2-1.5-2.3-1.5c-0.7,0-2.1,0.2-2.1,1.2c0,1.2,1.8,1.4,3.7,1.8
		c1.8,0.4,3.6,1.1,3.6,3.3c0,2.7-2.7,3.7-5,3.7c-2.8,0-5-1.3-5-3.9H252.1z"/>
	<path class="st0" d="M269.5,124.7c0.1,1.4,1.2,2,2.6,2c0.9,0,2.6-0.2,2.5-1.5c-0.1-1.3-1.9-1.5-3.7-1.9c-1.8-0.4-3.6-1-3.6-3.3
		c0-2.5,2.7-3.2,4.7-3.2c2.3,0,4.4,1,4.7,3.5h-2.6c-0.2-1.2-1.2-1.5-2.3-1.5c-0.7,0-2.1,0.2-2.1,1.2c0,1.2,1.8,1.4,3.7,1.8
		c1.8,0.4,3.6,1.1,3.6,3.3c0,2.7-2.7,3.7-5,3.7c-2.8,0-5-1.3-5-3.9H269.5z"/>
	<path class="st0" d="M279.1,125.4h3v3h-3V125.4z"/>
	<path class="st0" d="M294.5,125.8c0,0.6,0.1,0.9,0.6,0.9c0.2,0,0.3,0,0.6,0v1.7c-0.4,0.1-1.2,0.3-1.6,0.3c-1,0-1.7-0.3-1.9-1.4
		c-1,1-2.6,1.4-3.9,1.4c-2,0-3.9-1.1-3.9-3.3c0-2.8,2.3-3.3,4.3-3.5c1.8-0.3,3.4-0.1,3.4-1.6c0-1.3-1.3-1.5-2.3-1.5
		c-1.4,0-2.4,0.6-2.5,1.8h-2.5c0.2-2.9,2.6-3.8,5.1-3.8c2.2,0,4.5,0.9,4.5,3.3V125.8z M292,122.7c-0.8,0.5-2,0.5-3.1,0.7
		c-1.1,0.2-2,0.6-2,1.9c0,1.1,1.4,1.4,2.3,1.4c1.1,0,2.8-0.6,2.8-2.1V122.7z"/>
	<path class="st0" d="M297.3,125.4h3v3h-3V125.4z"/>
	<path class="st0" d="M303.2,117.1h2.3v2.2h0c0.3-1.2,1.8-2.5,3.3-2.5c0.6,0,0.7,0,0.9,0.1v2.4c-0.3,0-0.7-0.1-1.1-0.1
		c-1.7,0-3.1,1.4-3.1,3.9v5.4h-2.5V117.1z"/>
	<path class="st0" d="M309.1,125.4h3v3h-3V125.4z"/>
	<path class="st0" d="M315,112.8h2.5v15.6H315V112.8z"/>
	<path class="st0" d="M320.4,125.4h3v3h-3V125.4z"/>
	<polygon class="st1" points="329,108.2 329,120.2 484,120.2 484,95.2 476,95.2 476,108.2 	"/>
	<polygon class="st1" points="26,108.2 26,95.2 16,95.2 16,120.2 167,120.2 167,108.2 	"/>
	<polygon points="484,91.2 476,91.2 476,95.2 484,95.2 484,120.2 329,120.2 329,124.2 484,124.2 488,124.2 488,120.2 488,95.2 
		488,91.2 	"/>
	<polygon points="16,120.2 16,95.2 26,95.2 26,91.2 16,91.2 12,91.2 12,95.2 12,120.2 12,124.2 16,124.2 167,124.2 167,120.2 	"/>
</g>
</svg>
