<?xml version="1.0" encoding="utf-8"?>
<!-- Generator: Adobe Illustrator 19.1.0, SVG Export Plug-In . SVG Version: 6.00 Build 0)  -->
<svg version="1.1" id="Calque_1" xmlns="http://www.w3.org/2000/svg" xmlns:xlink="http://www.w3.org/1999/xlink" x="0px" y="0px"
	 viewBox="0 0 500 500" style="enable-background:new 0 0 500 500;" xml:space="preserve">
<style type="text/css">
	.st0{fill:#009EE2;}
</style>
<g>
	<polygon class="st0" points="85.7,227.1 84.9,229.4 105.1,221.7 105.1,219.8 	"/>
	<polygon class="st0" points="105.1,227.9 115.8,227.9 115.8,286.9 137.8,286.9 137.8,228 148.4,228 148.4,213.3 105.1,213.4 	"/>
	<path class="st0" d="M150.9,223.6h19.9v4.1c2.8-4.3,10.5-4.4,10.5-4.4c16,0,16,14.5,16,14.5v15.5h-20.4v-15.5c0,0,0.4-3-3.2-3
		c-2.9,0-2.9,3-2.9,3v49h-19.9L150.9,223.6L150.9,223.6z"/>
	<path class="st0" d="M222.1,223.6c-23.7,0.1-22.2,17.2-22.2,17.2h19.9v-2.9c0,0-0.2-3,3-3c3.1,0,3.1,3,3.1,3v2.9
		c0-0.1-25.9,8-25.9,19.2v11.8c0,0,0,15.1,13.9,15.1c0,0,6.2,1.1,12.1-2.8v2.8h20.4v-49C246.2,237.9,247.4,223.5,222.1,223.6z
		 M225.9,271.6c0,0-0.1,3.2-2.9,3.2c-3.3,0-3.3-3.1-3.3-3.1v-7.4c0-6.4,6.2-10.2,6.2-10.2V271.6z"/>
	<path class="st0" d="M249.4,240.8c0,0-0.4-17.5,23-17.5c23.4,0,23.4,17.5,23.4,17.5v7.5h-20.4v-10.5c0,0,0-3-3.1-3c-3,0-3,3-3,3
		v33.9c0,0,0.1,3.1,3.1,3.1c3,0,3-3.1,3-3.1v-11.6h20.5l-0.1,11.6c0,0,0,15.1-23.4,15.1c-23,0-23-15.1-23-15.1L249.4,240.8
		L249.4,240.8z"/>
	<path class="st0" d="M298.4,226.7h3.8v-13.7l19.7,0v13.6h3.9v12.1H322v32.8c0,4.3,3.9,3.1,3.9,3.1v12h-11.6c-12,0-12-12-12-12
		v-35.9h-3.8V226.7z"/>
	<rect x="377.7" y="213.3" class="st0" width="19.6" height="73.6"/>
	<path class="st0" d="M374.8,271.8v-11.7h-20.4v11.7c0,0,0,3.1-2.8,3.1c-3.2,0-3.3-3.1-3.3-3.1v-14.7h26.5v-19.1
		c0,0,0-14.5-22.8-14.5c-23.5,0-23.5,14.5-23.5,14.5v33.9c0,0-0.1,15.1,23.1,15.1C374.8,286.9,374.8,271.8,374.8,271.8z
		 M348.3,237.9c0,0,0.3-3,3.2-3c2.9,0,2.9,3,2.9,3v7.5h-6.1V237.9z"/>
	<path class="st0" d="M18.3,286.8l28.3-73.4l58.8-0.1l0,2.1H48.5l-26.8,69.3l71.1,0l21.8-56.8l1.5,0l-0.1,2.6l-21.3,56.3
		C94.8,286.8,18.9,286.8,18.3,286.8z"/>
	<polygon class="st0" points="44.9,237.7 64.3,231.5 67.9,239.2 65.4,240.6 77.7,259.6 61.6,280.8 66.2,281.9 65.6,283.2 
		56.4,283.4 65.5,259.5 	"/>
	<polygon class="st0" points="66,231 69.4,238.4 71,237.6 71,236 82.7,230.9 84.5,226.6 82.5,226 81.2,227.8 69.2,231.4 67.7,230.5 
			"/>
	<polygon class="st0" points="78.8,261.4 74.8,266.7 83.2,275.1 88.5,275.1 91.4,272.7 85.7,272 	"/>
	<path class="st0" d="M43.8,238.8l6.2,6.7c0,0-6.8,6.1-9.6,3.5C37.7,246.3,43.8,238.8,43.8,238.8z"/>
	<path class="st0" d="M52,233.9l10.1-3.2c1.4-1.7,0.5-4.9,0.5-4.9l2.9-0.7l-3.3-0.9c0,0-2.2-6.2-8.9-4.1c-6.7,2-4.8,10-4.8,10
		l1.5-0.6C50,231.7,52,233.9,52,233.9z"/>
	<path class="st0" d="M50.7,246.3l1.5,1.6l-9.6,23c-2.3,6.5-6.5,8.2-6.5,8.2L26,283.6l-1.9-0.2l0.8-1.9l10.8-4.7
		c3.2-1.5,5.4-7.2,5.4-7.2L50.7,246.3z"/>
	<path class="st0" d="M397.2,236.3l8.8-22.9c0,0,75.9,0,76.5,0l-28.7,73.6l-56.5-0.1l-0.1-2.1h55.1l26.8-69.3l-71.2,0.1l-10.7,27.7
		V236.3z"/>
	<path class="st0" d="M415.4,242.8c0.2-2.2-1-3.9-3.4-3.9c-3.5,0-3.8,2.2-3.8,3.8c0,1.5,0.7,2.4,2,2.9c1.1,0.4,2.3,0.9,3.4,1.3
		c4.1,1.5,4.8,3,4.8,5.8c0,4.1-2.6,6.4-6.7,6.4c-2.1,0-4.7-0.6-5.9-3.4c-0.5-1.1-0.4-2.8-0.5-3.9h2.4c-0.1,3.2,0.5,5.2,4.1,5.2
		c2.4,0,4.1-1.2,4.1-3.8c0-3.3-1.3-3.3-3.5-4.1c-1.2-0.5-3.1-1.1-4.2-1.7c-2-1-2.5-2.8-2.5-4.9c0-3.6,2.5-5.9,6-5.9
		c3.9,0,6.3,2,6.1,6.1L415.4,242.8L415.4,242.8z"/>
	<path class="st0" d="M418.8,258.6v-2.9h2.6v2.9H418.8z"/>
	<path class="st0" d="M429.1,237.1h3.1l6.1,21.5h-2.6l-1.7-6.2h-6.8l-1.6,6.2h-2.6L429.1,237.1z M430.6,238.8L430.6,238.8l-2.9,11.4
		h5.7L430.6,238.8z"/>
	<path class="st0" d="M439.7,258.6v-2.9h2.6v2.9H439.7z"/>
	<path class="st0" d="M452.9,242.7c0.2-2.2-1-3.9-3.4-3.9c-3.5,0-3.8,2.2-3.8,3.8c0,1.5,0.7,2.4,2,2.9c1.1,0.4,2.3,0.9,3.4,1.3
		c4.1,1.5,4.8,3,4.8,5.8c0,4.1-2.6,6.5-6.7,6.5c-2.1,0-4.7-0.6-5.9-3.4c-0.5-1.1-0.4-2.8-0.5-3.9h2.4c-0.1,3.2,0.5,5.2,4.1,5.2
		c2.4,0,4.1-1.2,4.1-3.8c0-3.3-1.3-3.3-3.5-4.1c-1.2-0.5-3.1-1.1-4.2-1.7c-2-1-2.6-2.7-2.6-4.9c0-3.6,2.5-5.9,6-5.9
		c3.9,0,6.3,2,6.1,6.1L452.9,242.7L452.9,242.7z"/>
	<path class="st0" d="M456.3,258.7v-2.9h2.6v2.9H456.3z"/>
</g>
</svg>
