<?xml version="1.0" encoding="utf-8"?>
<!-- Generator: Adobe Illustrator 15.0.0, SVG Export Plug-In . SVG Version: 6.00 Build 0)  -->
<!DOCTYPE svg PUBLIC "-//W3C//DTD SVG 1.1//EN" "http://www.w3.org/Graphics/SVG/1.1/DTD/svg11.dtd">
<svg version="1.1" id="Calque_1" xmlns="http://www.w3.org/2000/svg" xmlns:xlink="http://www.w3.org/1999/xlink" x="0px" y="0px"
	 width="500px" height="500px" viewBox="0 0 500 500" enable-background="new 0 0 500 500" xml:space="preserve">
<g>
	<polygon fill="#009EE2" points="85.721,227.111 84.902,229.45 105.06,221.681 105.06,219.78 	"/>
	<polygon fill="#009EE2" points="105.1,227.893 115.842,227.893 115.842,286.937 137.825,286.937 137.825,227.964 148.399,227.964 
		148.399,213.332 105.1,213.368 	"/>
	<path fill="#009EE2" d="M150.885,223.617h19.851v4.132c2.826-4.276,10.54-4.42,10.54-4.42c15.971,0,15.971,14.488,15.971,14.488
		v15.468H176.82v-15.468c0,0,0.432-3.042-3.225-3.042c-2.859,0-2.859,3.042-2.859,3.042v48.976h-19.851V223.617z"/>
	<path fill="#009EE2" d="M222.063,223.601c-23.691,0.069-22.226,17.152-22.226,17.152h19.851v-2.898c0,0-0.183-3.042,3.009-3.042
		c3.115,0,3.076,3.042,3.076,3.042v2.898c-0.033-0.072-25.936,8.004-25.936,19.164v11.789c0,0,0,15.124,13.876,15.124
		c0,0,6.235,1.066,12.059-2.791v2.791h20.425v-48.975C246.198,237.854,247.416,223.525,222.063,223.601z M225.916,271.613
		c0,0-0.143,3.191-2.931,3.191c-3.297,0-3.297-3.1-3.297-3.1v-7.37c0-6.375,6.228-10.216,6.228-10.216V271.613z"/>
	<path fill="#009EE2" d="M249.372,240.844c0,0-0.359-17.499,23.01-17.499c23.358,0,23.358,17.499,23.358,17.499v7.494h-20.427
		v-10.537c0,0,0-3.046-3.101-3.046c-2.984,0-2.984,3.046-2.984,3.046v33.852c0,0,0.053,3.094,3.089,3.094
		c3.049,0,2.996-3.094,2.996-3.094v-11.577h20.537l-0.11,11.577c0,0,0,15.12-23.358,15.12c-23.01,0-23.01-15.12-23.01-15.12V240.844
		z"/>
	<path fill="#009EE2" d="M298.435,226.731h3.848v-13.654l19.707,0.036v13.618h3.912v12.065h-3.912v32.767
		c0,4.343,3.912,3.094,3.912,3.094v12.028h-11.594c-12.025,0-12.025-12.028-12.025-12.028v-35.86h-3.848V226.731z"/>
	<rect x="377.713" y="213.273" fill="#009EE2" width="19.563" height="73.571"/>
	<path fill="#009EE2" d="M374.834,271.797v-11.685h-20.426v11.685c0,0,0,3.095-2.827,3.095c-3.227,0-3.265-3.095-3.265-3.095
		v-14.726h26.518v-19.126c0,0,0-14.456-22.834-14.456c-23.534,0-23.534,14.456-23.534,14.456v33.852c0,0-0.085,15.121,23.115,15.121
		C374.774,286.918,374.834,271.797,374.834,271.797z M348.316,237.945c0,0,0.313-3.045,3.16-3.045c2.932,0,2.932,3.045,2.932,3.045
		v7.534h-6.092V237.945z"/>
	<path fill="#009EE2" d="M18.252,286.753l28.329-73.385l58.793-0.052l-0.039,2.061H48.492l-26.759,69.258l71.066-0.018
		l21.767-56.797l1.538,0.017l-0.064,2.647l-21.284,56.269C94.755,286.753,18.867,286.753,18.252,286.753z"/>
	<polygon fill="#009EE2" points="44.933,237.746 64.345,231.514 67.898,239.228 65.358,240.641 77.672,259.625 61.591,280.78 
		66.23,281.938 65.648,283.244 56.37,283.388 65.503,259.481 	"/>
	<polygon fill="#009EE2" points="65.993,231.026 69.363,238.417 71.044,237.602 71.012,236.006 82.67,230.86 84.49,226.587 
		82.456,226.012 81.154,227.765 69.194,231.403 67.728,230.484 	"/>
	<polygon fill="#009EE2" points="78.759,261.398 74.794,266.723 83.181,275.131 88.546,275.131 91.438,272.664 85.661,272.05 	"/>
	<path fill="#009EE2" d="M43.769,238.756l6.228,6.667c0,0-6.804,6.09-9.565,3.478C37.684,246.294,43.769,238.756,43.769,238.756z"/>
	<path fill="#009EE2" d="M51.974,233.85l10.108-3.207c1.354-1.684,0.53-4.923,0.53-4.923l2.891-0.726l-3.258-0.923
		c0,0-2.25-6.16-8.911-4.131c-6.667,2.028-4.789,9.984-4.789,9.984l1.531-0.582C49.964,231.73,51.974,233.85,51.974,233.85z"/>
	<path fill="#009EE2" d="M50.729,246.294l1.466,1.577l-9.565,23.036c-2.344,6.464-6.465,8.204-6.465,8.204l-10.168,4.508
		l-1.896-0.215l0.811-1.9l10.756-4.676c3.207-1.521,5.385-7.17,5.385-7.17L50.729,246.294z"/>
	<path fill="#009EE2" d="M397.17,236.297l8.826-22.938c0,0,75.889,0,76.504,0l-28.689,73.552l-56.534-0.107l-0.106-2.068h55.09
		l26.766-69.257l-71.151,0.144L397.17,243.36V236.297z"/>
	<path fill="#009EE2" d="M415.411,242.751c0.171-2.237-1.033-3.929-3.409-3.929c-3.474,0-3.84,2.179-3.84,3.844
		c0,1.488,0.654,2.407,2.034,2.92c1.146,0.433,2.265,0.864,3.408,1.293c4.071,1.522,4.823,2.955,4.823,5.796
		c0,4.074-2.553,6.447-6.681,6.447c-2.133,0-4.651-0.602-5.881-3.408c-0.459-1.06-0.438-2.786-0.459-3.932h2.375
		c-0.117,3.187,0.49,5.191,4.069,5.191c2.416,0,4.109-1.232,4.109-3.755c0-3.271-1.321-3.299-3.5-4.133
		c-1.178-0.458-3.068-1.06-4.22-1.662c-2.041-1.033-2.546-2.754-2.546-4.874c0-3.559,2.493-5.882,5.986-5.882
		c3.933,0,6.347,2.035,6.111,6.082H415.411z"/>
	<path fill="#009EE2" d="M418.813,258.61v-2.868h2.61v2.868H418.813z"/>
	<path fill="#009EE2" d="M429.065,237.098h3.147l6.052,21.512h-2.636l-1.688-6.195h-6.805l-1.57,6.195h-2.644L429.065,237.098z
		 M430.61,238.822h-0.059l-2.84,11.443h5.68L430.61,238.822z"/>
	<path fill="#009EE2" d="M439.652,258.61v-2.868h2.61v2.868H439.652z"/>
	<path fill="#009EE2" d="M452.939,242.722c0.171-2.238-1.033-3.929-3.414-3.929c-3.475,0-3.848,2.179-3.848,3.844
		c0,1.488,0.668,2.408,2.041,2.924c1.146,0.433,2.264,0.86,3.416,1.293c4.069,1.521,4.814,2.954,4.814,5.791
		c0,4.072-2.557,6.456-6.679,6.456c-2.128,0-4.653-0.604-5.883-3.417c-0.457-1.061-0.432-2.781-0.457-3.931h2.381
		c-0.118,3.184,0.484,5.191,4.07,5.191c2.406,0,4.101-1.229,4.101-3.755c0-3.269-1.327-3.297-3.5-4.131
		c-1.177-0.458-3.068-1.063-4.213-1.666c-2.035-1.029-2.551-2.748-2.551-4.871c0-3.556,2.492-5.882,5.985-5.882
		c3.939,0,6.347,2.038,6.118,6.082H452.939z"/>
	<path fill="#009EE2" d="M456.343,258.696v-2.869h2.609v2.869H456.343z"/>
</g>
</svg>
