<?xml version="1.0" encoding="utf-8"?>
<!-- Generator: Adobe Illustrator 21.0.2, SVG Export Plug-In . SVG Version: 6.00 Build 0)  -->
<svg version="1.1" id="Calque_1" xmlns="http://www.w3.org/2000/svg" xmlns:xlink="http://www.w3.org/1999/xlink" x="0px" y="0px"
	 viewBox="0 0 500 268" style="enable-background:new 0 0 500 268;" xml:space="preserve">
<style type="text/css">
	.st0{fill:#2853A1;}
	.st1{fill:#EA8518;}
</style>
<path class="st0" d="M19,50c0,0,14.1-15.5,17.9-23.7c23.5-15.6,38.9-18.6,96,9.5c50.6,24.9,96.6,21,128.4,6.4
	c-15.3,16.9-22.2,28.3-22.2,28.3s-50.5,27.3-104.6,5.1C80.4,53.3,54.6,35.4,19,50z"/>
<path class="st0" d="M26.7,74.9l17.5-17.5c0,0,45.1-13,69.6,29.2c24.5,42.3-1.6,74.4-23.2,86.8c10.2-18.8,20.3-47.7-1.9-75
	C66.4,71.1,26.7,74.9,26.7,74.9z"/>
<path class="st1" d="M226.6,84.7L204,114c0,0-44.8,7.9-66.7,49.9s0.3,82,0.3,82v9.9c0,0-48.3-51.8-13.3-116.6S226.6,84.7,226.6,84.7
	z"/>
<polygon class="st0" points="164.6,177.9 178.5,177.9 178.5,213.4 187.6,213.4 187.6,177.9 201.5,177.9 201.5,170.9 164.6,170.9 "/>
<rect x="374.6" y="170.6" class="st0" width="9.1" height="42.7"/>
<polygon class="st0" points="351,170.8 345.7,170.8 335.6,200.7 325.5,170.8 320.7,170.8 316.4,170.8 311.5,170.8 311.5,213.4 
	320.7,213.4 320.7,183.5 330.8,213.4 331.3,213.4 339.9,213.4 340.4,213.4 351,182.2 351,213.4 360.1,213.4 360.1,170.8 
	354.8,170.8 "/>
<path class="st0" d="M275,170.6l-17.5,42.8h9.1l4.3-10.4h17.8l4.4,10.4h9.1l-18.1-42.8H275z M285.4,195.2H274l5.6-13.7L285.4,195.2z
	"/>
<path class="st0" d="M240.5,195c3.6-0.8,8-3.8,8-11.9s-4.4-11.1-8-11.9V171h-1.3c-0.2,0-0.4,0-0.6,0h-6.3l0,0h-10.8h-8.8h-0.3v42.4
	h9.1v-17.1h9.9l9.5,17.1h10.4l-10.9-17.7V195H240.5z M236.6,188.2h-15.1V179h15.2c1.6,0.4,2.4,2,2.4,4.6
	C239.1,186.2,238.3,187.8,236.6,188.2z"/>
<path class="st0" d="M396,191.4c0,14,6.4,20.9,16,21.9h19.4v-7.7h-16.8c-3.2-0.3-8.9-2.1-8.9-14.1c0-10.3,5.2-12.3,8.4-12.7h17.3
	V171H412C412,170.9,396,171.1,396,191.4z"/>
<path class="st0" d="M482.9,191.3L482.9,191.3c0-16.8-11.2-22.8-20.8-22.8s-20.8,6-20.8,22.8l0,0l0,0l0,0l0,0c0,17,11.2,23,20.8,23
	S482.9,208.4,482.9,191.3L482.9,191.3C482.9,191.4,482.9,191.3,482.9,191.3L482.9,191.3z M462.1,205.4c-5.4,0-11.9-2.4-11.9-14.1
	c0-11.5,6.5-13.9,11.9-13.9s11.9,2.4,11.9,13.9C474,203,467.5,205.4,462.1,205.4z"/>
</svg>
