<?xml version="1.0" encoding="utf-8"?>
<!-- Generator: Adobe Illustrator 15.0.0, SVG Export Plug-In . SVG Version: 6.00 Build 0)  -->
<!DOCTYPE svg PUBLIC "-//W3C//DTD SVG 1.1//EN" "http://www.w3.org/Graphics/SVG/1.1/DTD/svg11.dtd">
<svg version="1.1" id="Calque_1" xmlns="http://www.w3.org/2000/svg" xmlns:xlink="http://www.w3.org/1999/xlink" x="0px" y="0px"
	 width="500px" height="500px" viewBox="0 0 500 500" enable-background="new 0 0 500 500" xml:space="preserve">
<g>
	<path fill="#2853A1" d="M18.978,166.014c0,0,14.055-15.484,17.869-23.747c23.487-15.591,38.855-18.601,95.981,9.535
		c50.567,24.904,96.617,20.976,128.398,6.356c-15.293,16.934-22.247,28.286-22.247,28.286s-50.533,27.333-104.562,5.085
		C80.388,169.282,54.574,151.395,18.978,166.014z"/>
	<path fill="#2853A1" d="M26.676,190.893l17.48-17.48c0,0,45.13-13.03,69.603,29.239c24.472,42.27-1.589,74.37-23.201,86.765
		c10.17-18.751,20.341-47.673-1.907-75.005C66.404,187.08,26.676,190.893,26.676,190.893z"/>
	<path fill="#EA8518" d="M226.584,200.746l-22.565,29.239c0,0-44.812,7.945-66.742,49.898c-21.93,41.951,0.317,81.997,0.317,81.997
		v9.853c0,0-48.308-51.805-13.348-116.64S226.584,200.746,226.584,200.746z"/>
	<g>
		<polygon fill="#2853A1" points="164.609,293.866 178.487,293.866 178.487,329.356 187.599,329.356 187.599,293.866 
			201.477,293.866 201.477,286.874 164.609,286.874 		"/>
		<rect x="374.58" y="286.61" fill="#2853A1" width="9.112" height="42.746"/>
		<polygon fill="#2853A1" points="350.957,286.769 345.711,286.769 335.596,316.673 325.479,286.769 320.66,286.769 
			316.367,286.769 311.548,286.769 311.548,329.356 320.66,329.356 320.66,299.457 330.773,329.356 331.305,329.356 
			339.886,329.356 340.417,329.356 350.957,298.202 350.957,329.356 360.069,329.356 360.069,286.769 354.823,286.769 		"/>
		<path fill="#2853A1" d="M274.996,286.557l-17.532,42.8h9.112l4.254-10.383h17.848l4.382,10.383h9.112l-18.063-42.8H274.996z
			 M285.393,311.188h-11.372l5.602-13.674L285.393,311.188z"/>
		<path fill="#2853A1" d="M240.462,310.972c3.574-0.768,7.972-3.838,7.972-11.901c0-8.062-4.397-11.133-7.972-11.9v-0.19h-1.28
			c-0.205-0.015-0.408-0.025-0.601-0.025h-6.277v0.025H221.5h-8.793h-0.319v42.377h9.112V312.3h9.942l9.549,17.057h10.384
			l-10.913-17.679V310.972z M236.615,304.195H221.5v-9.19h15.198c1.613,0.443,2.439,1.968,2.439,4.582
			C239.138,302.248,238.285,303.784,236.615,304.195z"/>
		<path fill="#2853A1" d="M395.983,307.427c0,14.011,6.356,20.882,16.047,21.876h19.387v-7.732h-16.765
			c-3.173-0.284-8.898-2.132-8.898-14.144c0-10.256,5.187-12.304,8.362-12.714h17.301v-7.839H412.03
			C412.03,286.874,395.983,287.087,395.983,307.427z"/>
		<path fill="#2853A1" d="M482.904,307.294h-0.003c-0.037-16.827-11.228-22.803-20.814-22.803s-20.777,5.976-20.812,22.803h-0.005
			c0,0.014,0.003,0.026,0.003,0.04s-0.003,0.026-0.003,0.04h0.005c0.035,17.003,11.226,23.042,20.812,23.042
			s20.777-6.039,20.814-23.042h0.003c0-0.014,0-0.026,0-0.04S482.904,307.308,482.904,307.294z M462.087,321.424
			c-5.431,0-11.9-2.447-11.916-14.09c0.016-11.522,6.485-13.944,11.916-13.944s11.9,2.422,11.918,13.944
			C473.987,318.977,467.518,321.424,462.087,321.424z"/>
	</g>
</g>
</svg>
