<?xml version="1.0" encoding="utf-8"?>
<!-- Generator: Adobe Illustrator 19.1.0, SVG Export Plug-In . SVG Version: 6.00 Build 0)  -->
<svg version="1.1" id="Calque_1" xmlns="http://www.w3.org/2000/svg" xmlns:xlink="http://www.w3.org/1999/xlink" x="0px" y="0px"
	 viewBox="0 0 500 500" style="enable-background:new 0 0 500 500;" xml:space="preserve">
<style type="text/css">
	.st0{fill:#A39245;}
</style>
<g>
	<path d="M65.3,276.8H26.5l0,7.1c0-1.6,3.4-1.4,3.4-1.4h12.5c0,0-0.2,51.9-0.2,54.8s-1.9,3.6-1.9,3.6l5.1,0l0,0h0.5h0.5l0,0l5.1,0
		c0,0-1.9-1-1.9-3.6s-0.2-54.8-0.2-54.8h12.5c0,0,3.4-0.1,3.4,1.4L65.3,276.8z"/>
	<path d="M110.1,337c-1-2.3-13.5-27.5-13.5-27.5s13.4-2.3,13.4-15.2c0-11.6-7-16.4-14.5-17.3l-22.6-0.2H70c0,0,2.5,0.8,2.5,2.2
		c0,1.5-0.2,55.5-0.2,58.3c0,2.9-1.9,3.6-1.9,3.6l5.1,0l0,0H76h0.5l0,0l5.1,0c0,0-1.9-1-1.9-3.6s-0.2-54.2-0.2-54.2
		s11.3,0.3,13.9,0.3c4.8,0,9.2,4.2,9.2,11.2c0,12.1-16.1,11.1-16.1,11.1l17.3,35.2h9.7C113.4,340.9,111.1,339.3,110.1,337z"/>
	<path d="M414.2,337c-1-2.3-13.5-27.5-13.5-27.5s13.4-2.3,13.4-15.2c0-11.6-7-16.4-14.5-17.3l-22.6-0.2h-2.8c0,0,2.5,0.8,2.5,2.2
		c0,1.5-0.2,55.5-0.2,58.3c0,2.9-1.9,3.6-1.9,3.6l5.1,0l0,0h0.5h0.5l0,0l5.1,0c0,0-1.9-1-1.9-3.6s-0.2-54.2-0.2-54.2
		s11.3,0.3,13.9,0.3c4.8,0,9.2,4.2,9.2,11.2c0,12.1-16.1,11.1-16.1,11.1l17.3,35.2h9.7C417.5,340.9,415.2,339.3,414.2,337z"/>
	<path d="M127.3,308.9l0.2,26.3h20.7c2,0,3.7-2.3,3.7-2.3l0,7.9l-33.8,0c0,0,2.1-1,2.1-7.4c0-2.1,0-51,0-51.6c0-3.8-2.6-5-2.6-5
		l34.4,0.1l-0.1,7.7l0,0c-0.1-1.1-2.1-2-3.4-2.1l-21.1,0c0,2.8,0,4.5-0.1,7.3l-0.1,4.2v9.1c1.7,0.1,14.2,0.1,14.2,0.1
		c2.4,0,4.2-0.9,4.3-1.5v9c0-0.8-1.3-1.5-4.3-1.5L127.3,308.9z"/>
	<path d="M235.8,308.9l0.2,26.3h20.7c2,0,3.7-2.3,3.7-2.3l0,7.9l-33.8,0c0,0,2.1-1,2.1-7.4c0-2.1,0-51,0-51.6c0-3.8-2.6-5-2.6-5
		l34.4,0.1l-0.1,7.7l0,0c-0.1-1.1-2.1-2-3.4-2.1l-21.1,0c0,2.8,0,4.5-0.1,7.3l-0.1,4.2v9.1c1.7,0.1,14.2,0.1,14.2,0.1
		c2.4,0,4.2-0.9,4.3-1.5v9c0-0.8-1.3-1.5-4.3-1.5L235.8,308.9z"/>
	<path d="M167.9,335.2c2.2,0.1,11.6,0,14.7,0s5.2-2.4,5.2-2.4l-0.1,8.1l-30.7-0.1c0,0,3.2-1,3.2-3.6s0-56.5,0-57.4
		c0-1.8-1.9-3.1-1.9-3.1h11.9c0,0-2.1,1.7-2.1,3C168,280.5,167.9,335.2,167.9,335.2z"/>
	<path d="M202.2,335.2c2.2,0.1,11.6,0,14.7,0s5.2-2.4,5.2-2.4l-0.1,8.1l-30.7-0.1c0,0,3.2-1,3.2-3.6s0-56.5,0-57.4
		c0-1.8-1.9-3.1-1.9-3.1h11.9c0,0-2.1,1.7-2.1,3C202.3,280.5,202.2,335.2,202.2,335.2z"/>
	<path d="M293.2,307c6.5,0.4,15,4.9,15,13.5c0,20-14.8,21.5-22.3,21.5h-20.7c0,0,3.3-1.6,3.3-4c0-4,0.1-55.4,0.1-56.5
		c0-2.9-4.2-4.7-4.2-4.7l23.8-0.1c9,0,16.6,6,16.6,14.5C305,303,298.8,305.2,293.2,307z M276.3,335.2c2,0.2,3.3,0.2,4.9,0.3
		c7.6,0.2,12.9-1.1,16-3.6c3-2.5,4.3-6,4-10.7c-0.2-3.9-1.7-6.9-4.3-9.1c-2.6-2.2-6.6-3.7-12.2-4h-2.3c-1,0-1.1-1.4,0-1.4
		c5.2,0,8.9-1.5,11.3-3.4c2.7-2.1,4.1-5.2,4.1-9.1c0-3.4-1.1-6.1-3.4-7.9c-2.3-1.8-5.9-2.6-10.9-2.6h-7.2L276.3,335.2z"/>
	<path d="M312.5,309.5c0-9.8,2.7-17.7,8-23.7c5.3-6,12.4-9,21.2-9c8.7,0,15.5,2.8,20.4,8.3c4.9,5.6,7.4,13,7.4,22.2
		c0,9.9-2.9,18.2-8.6,24.9c-5.7,6.7-12.9,10-21.6,10c-5.4,0-10.1-1.3-14.1-3.9c-3.9-2.6-7-6.5-9.3-11.5
		C313.7,321.8,312.5,316,312.5,309.5z M320.2,306.2c0,6.2,1,11.6,2.9,16.2c1.9,4.6,4.5,8,7.8,10.3c3.3,2.3,7,3.4,11.2,3.4
		c3.9,0,7.3-1,10.2-2.9c2.9-1.9,5.2-4.8,6.9-8.7c1.7-3.9,2.5-8.6,2.5-14.1c0-5.8-0.9-10.8-2.8-14.9c-1.8-4.1-4.4-7.2-7.6-9.3
		c-3.2-2.1-7-3.1-11.4-3.1c-4,0-7.5,0.9-10.4,2.8c-2.9,1.8-5.2,4.5-6.8,8.1C321,297.4,320.2,301.5,320.2,306.2z"/>
	<path d="M451.4,305.8C451.4,305.8,451.4,305.8,451.4,305.8c-2.5,0-3.1-1.7-3.1-1.7s0,4.9,0,9.6c0.6-2.3,3.2-2.1,3.2-2.1h8.5
		c0.1,4.1,0,19-0.1,21.3c-2.8,1.3-7.1,2.5-10.9,2.5c-7.3,0-12.6-2.2-16.8-8.8c-3.6-5.6-5.1-10.9-5.1-19.1c0-8.5,6.3-25,21-25
		c13,0,18.8,9.6,18.8,9.6l0-14.6c0,0,0,1.6-1.5,3.2c-1.5,1.6-5.6-4.4-16.3-4.4c-6.6,0-12.1,1.4-16.4,4.2c-4.3,2.8-7.7,6.7-10.1,11.7
		c-2.4,5-3.6,10.8-3.6,17.2c0,6.2,1.1,11.8,3.4,16.7c2.2,4.9,5.5,8.8,9.6,11.5c4.2,2.8,9,4.1,14.6,4.1c3.6,0,7.3-0.5,11.3-1.4
		c3.9-0.9,7.4-2.2,10.6-3.7c0,0,0-23.5,0-26.5s2.5-4.3,2.5-4.3C469.3,306,457.5,306,451.4,305.8z"/>
</g>
<g>
	<polygon class="st0" points="164.4,171.8 164.4,180.1 188.7,180.1 188.7,224.1 197,224.1 197,180.1 221.3,180.1 221.3,171.8 	"/>
	<path class="st0" d="M323.4,158h-7.2h-26.2h-5.4h-28.4h-3.4H129l63.7,100.8l16.9-26.8l16.9,26.8l16.7-26.5l16.7,26.5l16.7-26.4
		l16.7,26.4L356.8,158L323.4,158L323.4,158z M192.6,240.8l-46.5-73.7h93L192.6,240.8z M226.4,240.8l-11.2-17.7l35.3-56h22.4
		L226.4,240.8z M259.8,240.8l-11-17.4l35.5-56.3h22L259.8,240.8z M282.2,223.4l35.5-56.3h22l-46.5,73.7L282.2,223.4z"/>
</g>
</svg>
