<?xml version="1.0" encoding="utf-8"?>
<!-- Generator: Adobe Illustrator 15.0.0, SVG Export Plug-In . SVG Version: 6.00 Build 0)  -->
<!DOCTYPE svg PUBLIC "-//W3C//DTD SVG 1.1//EN" "http://www.w3.org/Graphics/SVG/1.1/DTD/svg11.dtd">
<svg version="1.1" id="Calque_1" xmlns="http://www.w3.org/2000/svg" xmlns:xlink="http://www.w3.org/1999/xlink" x="0px" y="0px"
	 width="500px" height="500px" viewBox="0 0 500 500" enable-background="new 0 0 500 500" xml:space="preserve">
<g>
	<polygon fill="#0069AD" points="93.031,189.745 93.031,275.872 408.625,275.872 408.358,189.349 	"/>
	<g>
		<g>
			<g>
				<g>
					<path fill="#FFFFFF" d="M115.231,237.287h6.74v19.868h13.979v-18.293h2.525c0,0,1.78,20.293,25.551,20.401
						c23.758,0.101,27.226-25.865,27.226-29.02c0-3.153-6-27.125-26.804-27.018c-20.823,0.104-25.764,18.499-25.764,18.499h-2.948
						v-16.398h-13.868v19.765h-6.741v-19.765h-13.245l-0.104,52.045h13.454V237.287z M163.811,218.467
						c16.403-0.107,17.766,26.072,0.215,26.284C146.462,244.962,147.41,218.574,163.811,218.467z"/>
					<polygon fill="#FFFFFF" points="201.873,254.318 227.424,196.913 192.51,196.913 185.472,210.373 204.602,210.477 
						180.109,267.567 214.068,267.567 220.373,254.318 					"/>
					<polygon fill="#FFFFFF" points="249.922,218.36 249.922,205.432 224.482,205.432 224.586,257.266 249.715,257.266 
						249.715,244.962 239.404,244.962 239.404,237.183 249.507,237.183 249.507,225.09 239.3,225.09 239.3,218.36 					"/>
					<path fill="#FFFFFF" d="M280.726,248.221c0,0,9.571,10.724,22.607,10.724c13.039,0,23.441-15.347,24.597-15.347
						c1.156,0,4.214,13.773,16.407,13.773c10.013,0,11.243,0,11.362,0v-11.749c-0.447,0.016-1.364,0.04-3.161,0.077
						c-5.161,0.107-11.246-6.941-11.356-12.933c-0.104-5.991,3.474-14.928,9.266-15.032c5.766-0.106,5.252-0.315,5.252-0.315
						v-10.519c0,0-6.797-1.201-14.679-0.253c-7.884,0.944-11.403,13.713-13.091,13.713c-1.676,0-9.987-15.084-23.231-15.035
						c-17.136,0.055-27.336,12.194-27.862,21.864c-0.525,9.679,1.163,17.979,1.163,17.979h-9.364v-39.737h-13.557l-0.104,51.834
						h25.751V248.221z M303.438,218.467c16.4-0.107,17.765,26.072,0.208,26.284C286.089,244.962,287.037,218.574,303.438,218.467z"
						/>
					<path fill="#FFFFFF" d="M355.699,245.592v0.03C356.534,245.592,355.699,245.592,355.699,245.592z"/>
					<polygon fill="#FFFFFF" points="373.777,256.525 373.777,235.605 382.919,256.422 396.185,256.422 386.075,231.43 
						397.438,206.899 385.107,206.899 373.602,227.372 373.602,207.042 360.739,207.253 360.843,256.525 					"/>
					<polygon fill="#FFFFFF" points="221.359,264.097 219.534,267.882 399.399,267.882 399.399,264.097 					"/>
					<polygon fill="#FFFFFF" points="101.777,267.324 175.655,267.324 177.2,263.821 102.062,263.821 					"/>
				</g>
			</g>
		</g>
		<g>
			<path fill="#1D1D1B" d="M19.562,313.255l3.832-22.695h7.116l-1.298,7.657h6.727l1.292-7.657h7.109l-3.824,22.695h-7.109
				l1.48-8.795H28.16l-1.481,8.795H19.562z"/>
			<path fill="#1D1D1B" d="M68.469,301.782c-1.299,7.72-7.013,12.07-13.429,12.07c-6.817,0-10.623-4.412-9.324-12.135
				c1.208-7.124,6.597-11.759,13.35-11.759C66.819,289.959,69.481,295.793,68.469,301.782z M52.82,301.782
				c-0.488,2.898-0.253,6.524,3.155,6.524c3.078,0,4.746-2.774,5.376-6.524c0.526-3.091-0.129-6.369-3.279-6.275
				C54.846,295.507,53.307,298.912,52.82,301.782z"/>
			<path fill="#1D1D1B" d="M68.793,313.255l0.908-5.389l12.429-12.013h-9.973l0.889-5.294h18.727l-0.89,5.262L78.286,307.96h10.973
				l-0.896,5.295H68.793z"/>
			<path fill="#1D1D1B" d="M91.777,313.255l3.825-22.695h17.693l-0.89,5.294H101.83l-0.552,3.247h8.954l-0.896,5.299h-8.948
				l-0.603,3.561h11.006l-0.896,5.295H91.777z"/>
			<path fill="#1D1D1B" d="M113.543,313.255l3.831-22.695h7.116l-2.934,17.4h9.765l-0.896,5.295H113.543z"/>
			<path fill="#1D1D1B" d="M157.235,301.782c-1.305,7.72-7.013,12.07-13.435,12.07c-6.817,0-10.622-4.412-9.316-12.135
				c1.2-7.124,6.589-11.759,13.35-11.759C155.579,289.959,158.241,295.793,157.235,301.782z M141.586,301.782
				c-0.488,2.898-0.253,6.524,3.148,6.524c3.078,0,4.754-2.774,5.383-6.524c0.526-3.091-0.129-6.369-3.278-6.275
				C143.605,295.507,142.073,298.912,141.586,301.782z"/>
			<path fill="#1D1D1B" d="M174.486,299.228c0.195-2.363-1-3.721-3.233-3.721c-2.5,0-4.384,2.239-5.124,6.619
				c-0.538,3.186-0.376,6.181,3.24,6.181c2.292,0,3.662-1.671,4.299-3.847h6.843c-1.622,5.863-6.232,9.393-11.959,9.393
				c-7.169,0-10.741-4.6-9.494-11.976c1.234-7.348,6.773-11.918,12.831-11.918c6.635,0,9.765,3.437,9.35,9.269H174.486z"/>
			<path fill="#1D1D1B" d="M186.024,290.56h7.109l-1.232,7.343l7.479-7.343h8.35l-9.369,8.541l6.382,14.154h-8.531l-3.689-9.047
				l-2,1.859l-1.213,7.188h-7.109L186.024,290.56z"/>
			<path fill="#1D1D1B" d="M219.853,290.56h19.902l-1.006,5.956h-6.396l-2.819,16.739h-7.116l2.817-16.739h-6.389L219.853,290.56z"
				/>
			<path fill="#1D1D1B" d="M247.143,305.344l-1.331,7.911h-7.116l3.83-22.695h10.253c7.233,0,9.272,2.047,8.525,6.46
				c-0.442,2.616-1.929,4.825-4.584,5.548c2.143,0.884,3.435,1.451,2.662,6.022c-0.501,2.964-0.761,3.971,0.084,3.971l-0.116,0.694
				h-7.208c-0.091-0.503-0.025-1.954,0.312-3.97c0.494-2.965,0.183-3.941-3.135-3.941H247.143z M247.988,300.363h2.804
				c2.202,0,3.469-0.568,3.74-2.146c0.272-1.606-0.805-2.363-2.467-2.363h-3.318L247.988,300.363z"/>
			<path fill="#1D1D1B" d="M262.609,313.255l3.825-22.695h7.115l-3.823,22.695H262.609z"/>
			<path fill="#1D1D1B" d="M290.062,299.228c0.181-2.363-1.007-3.721-3.234-3.721c-2.505,0-4.389,2.239-5.129,6.619
				c-0.532,3.186-0.376,6.181,3.239,6.181c2.292,0,3.656-1.671,4.299-3.847h6.844c-1.623,5.863-6.227,9.393-11.953,9.393
				c-7.181,0-10.746-4.6-9.499-11.976c1.239-7.348,6.771-11.918,12.836-11.918c6.63,0,9.759,3.437,9.35,9.269H290.062z"/>
			<path fill="#1D1D1B" d="M321.372,301.782c-1.299,7.72-7.013,12.07-13.429,12.07c-6.817,0-10.623-4.412-9.324-12.135
				c1.209-7.124,6.598-11.759,13.35-11.759C319.723,289.959,322.385,295.793,321.372,301.782z M305.724,301.782
				c-0.487,2.898-0.253,6.524,3.155,6.524c3.077,0,4.746-2.774,5.376-6.524c0.526-3.091-0.13-6.369-3.279-6.275
				C307.749,295.507,306.21,298.912,305.724,301.782z"/>
			<path fill="#1D1D1B" d="M322.846,313.255l3.823-22.695h16.89l-0.891,5.294h-9.771l-0.694,4.131h7.778l-0.896,5.294h-7.779
				l-1.345,7.977H322.846z"/>
			<path fill="#1D1D1B" d="M343.02,313.255l3.824-22.695h7.116l-2.936,17.4h9.773l-0.896,5.295H343.02z"/>
			<path fill="#1D1D1B" d="M363.129,313.255l3.823-22.695h17.7l-0.889,5.294H373.18l-0.553,3.247h8.961l-0.896,5.299h-8.953
				l-0.604,3.561h11.006l-0.891,5.295H363.129z"/>
			<path fill="#1D1D1B" d="M390.841,313.255h-7.993l9.675-11.791l-5.09-10.904h7.984l2.099,5.798l4.084-5.798h7.993l-9.169,10.904
				l5.403,11.791h-7.993l-2.422-6.365L390.841,313.255z"/>
			<path fill="#1D1D1B" d="M432.24,297.146c0.013-0.789-0.299-1.261-0.766-1.546c-0.469-0.282-1.079-0.409-1.773-0.409
				c-1.564,0-2.338,0.475-2.474,1.292c-0.578,3.406,12.259,1.293,10.87,9.552c-0.891,5.266-5.514,7.817-11.48,7.817
				c-5.727,0-8.875-3.496-8.337-7.597h6.812c0.013,0.821,0.337,1.419,0.876,1.799c0.507,0.377,1.228,0.568,1.922,0.568
				c1.779,0,3.059-0.601,3.24-1.673c0.577-3.435-12.304-1.071-10.844-9.739c0.819-4.824,5.208-7.252,10.63-7.252
				c6.031,0,8.233,3.217,8.076,7.188H432.24z"/>
			<path fill="#1D1D1B" d="M439.681,313.255l1.092-6.492h6.396l-1.099,6.492H439.681z"/>
			<path fill="#1D1D1B" d="M448.245,313.255l11.61-22.695h7.232l3.954,22.695h-7.09l-0.338-2.993h-7.083l-1.318,2.993H448.245z
				 M462.258,297.399l-3.572,8.133h4.494L462.258,297.399z"/>
			<path fill="#1D1D1B" d="M473.179,313.255l1.091-6.492h6.396l-1.097,6.492H473.179z"/>
		</g>
	</g>
</g>
</svg>
