<?xml version="1.0" encoding="utf-8"?>
<!-- Generator: Adobe Illustrator 15.0.0, SVG Export Plug-In . SVG Version: 6.00 Build 0)  -->
<!DOCTYPE svg PUBLIC "-//W3C//DTD SVG 1.1//EN" "http://www.w3.org/Graphics/SVG/1.1/DTD/svg11.dtd">
<svg version="1.1" id="Calque_1" xmlns="http://www.w3.org/2000/svg" xmlns:xlink="http://www.w3.org/1999/xlink" x="0px" y="0px"
	 width="500px" height="500px" viewBox="0 0 500 500" enable-background="new 0 0 500 500" xml:space="preserve">
<g>
	<g>
		<path fill="#009BD5" d="M313.598,177.903c0,0,3.773-20.321-36.23-21.125c-38.351-0.747-36.225,21.125-36.225,21.125v118.871
			c0,0-2.953,21.091,36.225,21.126c39.183-1.583,36.23-21.126,36.23-21.126V177.903z M285.27,285.347
			c-1.017,4.812-8.067,12.78-15.803,0V184.981c0,0,7.735-14.413,15.803-0.629V285.347z"/>
	</g>
	<g>
		<path fill="none" stroke="#009BD5" stroke-width="0.5954" stroke-miterlimit="1" d="M313.598,177.903
			c0,0,3.773-20.321-36.23-21.125c-38.351-0.747-36.225,21.125-36.225,21.125v118.871c0,0-2.953,21.091,36.225,21.126
			c39.183-1.583,36.23-21.126,36.23-21.126V177.903z M285.27,285.347c-1.017,4.812-8.067,12.78-15.803,0V184.981
			c0,0,7.735-14.413,15.803-0.629V285.347z"/>
	</g>
</g>
<g>
	<path fill="#009BD5" d="M473.672,220.621l0.082-26.594l-59.052-18.239l0.411,23.146l13.849,7.445l0.212,83.334
		c-157.798,57.868-304.398,19.177-360.045-0.11l0.211-82.809l17.084-7.448l-13.195-21.276l-45.446,16.719l-0.333,28.495l17.876-5.87
		l0.003,63.4c-0.113,0.28-0.284,0.727-0.483,1.357v15.243c2.432,7.423,9.25,15.674,26.061,21.124
		c20.968,6.802,54.614,16.189,95.842,22.277c70.903,10.469,177.97,12.925,290.02-33.081v-25.981l-0.562-1.286V217L473.672,220.621z"
		/>
	<polygon fill="#009BD5" points="113.704,299.105 139.548,305.671 139.993,238.096 167.468,159.637 134.198,165.243 
		125.288,203.098 107.019,170.229 78.191,177.308 113.704,233.809 	"/>
	<path fill="#009BD5" d="M191.087,246.297c0,0,6.157-6.002,15.496,0l-0.559,69.147l22.271,1.626l-0.826-73.215
		c0-5.691-5.716-7.85-5.716-7.85s5.073,0.076,8.305-7.307c0,0,4.312-2.496,4.853-24.979c0.24-10.082,0.397-27.615-1.08-34.628
		c-3.235-15.328-28.566-14.191-28.566-14.191l-33.924,4.931l-0.784,149.917l19.793,4.067L191.087,246.297z M192.974,189.622h9.595
		c0,0,10.24-1.794,10.78,5.585v8.514c0,0-1.215,8.428-9.77,7.054h-10.605V189.622z"/>
	<polygon fill="#009BD5" points="378.402,277.61 352.843,282.172 352.007,162.11 325.625,158.312 325.625,312.565 378.402,302.688 	
		"/>
	<polygon fill="#009BD5" points="411.401,292.809 411.401,174.27 385.005,168.935 385.278,300.949 	"/>
</g>
</svg>
