<?xml version="1.0" encoding="utf-8"?>
<!-- Generator: Adobe Illustrator 21.0.2, SVG Export Plug-In . SVG Version: 6.00 Build 0)  -->
<svg version="1.1" id="Calque_1" xmlns="http://www.w3.org/2000/svg" xmlns:xlink="http://www.w3.org/1999/xlink" x="0px" y="0px"
	 viewBox="0 0 500 238" style="enable-background:new 0 0 500 238;" xml:space="preserve">
<style type="text/css">
	.st0{fill:#009BD5;}
</style>
<path class="st0" d="M313.9,47c0.1-0.4,0.8-5.5-3.4-10.7c-5.5-6.8-16.6-10.4-33.1-10.7c-15.1-0.3-25.8,2.8-31.8,9.3
	c-5.3,5.7-4.7,11.9-4.7,12.1v118.8c-0.1,0.2-0.8,5.9,4,11.4c5.8,6.6,16.7,10,32.5,10c11.2-0.5,26-2.8,33-11.2
	c4.2-5.1,3.5-10,3.5-10.2V47z M285,53.4v100.9c-0.5,2.4-2.7,6-6,6.6c-3.1,0.5-6.2-1.8-9.2-6.6h0V54c0.3-0.7,3.6-6.3,7.9-6.4
	C280.3,47.6,282.7,49.5,285,53.4z"/>
<path class="st0" d="M473.7,89.6l0.1-26.6l-59.1-18.2l0.4,23.1l13.8,7.4l0.2,83.3c-157.8,57.9-304.4,19.2-360-0.1l0.2-82.8l17.1-7.4
	L73.2,47L27.8,63.7l-0.3,28.5l17.9-5.9v63.4c-0.1,0.3-0.3,0.7-0.5,1.4v15.2c2.4,7.4,9.2,15.7,26.1,21.1c21,6.8,54.6,16.2,95.8,22.3
	c70.9,10.5,178,12.9,290-33.1v-26l-0.6-1.3V86L473.7,89.6z"/>
<polygon class="st0" points="113.7,168.1 139.5,174.7 140,107.1 167.5,28.6 134.2,34.2 125.3,72.1 107,39.2 78.2,46.3 113.7,102.8 
	"/>
<path class="st0" d="M191.1,115.3c0,0,6.2-6,15.5,0l-0.6,69.1l22.3,1.6l-0.8-73.2c0-5.7-5.7-7.9-5.7-7.9s5.1,0.1,8.3-7.3
	c0,0,4.3-2.5,4.9-25c0.2-10.1,0.4-27.6-1.1-34.6c-3.2-15.3-28.6-14.2-28.6-14.2l-33.9,4.9l-0.8,149.9l19.8,4.1L191.1,115.3z
	 M193,58.6h9.6c0,0,10.2-1.8,10.8,5.6v8.5c0,0-1.2,8.4-9.8,7.1H193V58.6z"/>
<polygon class="st0" points="378.4,146.6 352.8,151.2 352,31.1 325.6,27.3 325.6,181.6 378.4,171.7 "/>
<polygon class="st0" points="411.4,161.8 411.4,43.3 385,37.9 385.3,169.9 "/>
</svg>
