<?xml version="1.0" encoding="utf-8"?>
<!-- Generator: Adobe Illustrator 19.1.0, SVG Export Plug-In . SVG Version: 6.00 Build 0)  -->
<svg version="1.1" id="Calque_1" xmlns="http://www.w3.org/2000/svg" xmlns:xlink="http://www.w3.org/1999/xlink" x="0px" y="0px"
	 viewBox="0 0 500 500" style="enable-background:new 0 0 500 500;" xml:space="preserve">
<style type="text/css">
	.st0{fill:#009BD5;}
</style>
<g>
	<g>
		<path class="st0" d="M313.6,177.9c0,0,3.8-20.3-36.2-21.1c-38.4-0.7-36.2,21.1-36.2,21.1v118.9c0,0-3,21.1,36.2,21.1
			c39.2-1.6,36.2-21.1,36.2-21.1V177.9z M285.3,285.3c-1,4.8-8.1,12.8-15.8,0V185c0,0,7.7-14.4,15.8-0.6V285.3z"/>
	</g>
	<g>
		<path class="st0" d="M277.4,318.2c-15.8,0-26.7-3.4-32.5-10c-4.8-5.5-4.1-11.2-4-11.4l0-118.8c0-0.2-0.6-6.4,4.7-12.1
			c6-6.5,16.7-9.6,31.8-9.3c16.5,0.3,27.6,3.9,33.1,10.7c4.2,5.2,3.5,10.3,3.4,10.7v118.8c0,0.2,0.7,5.1-3.5,10.2
			C303.4,315.4,288.6,317.7,277.4,318.2z M275.4,157.1c-13.9,0-23.8,3.1-29.4,9.1c-5.1,5.5-4.6,11.6-4.6,11.7l0,118.9
			c0,0.1-0.7,5.7,3.9,11c5.6,6.5,16.4,9.8,32,9.8c11.1-0.4,25.7-2.7,32.5-11c4.1-4.9,3.4-9.7,3.4-9.8l0-118.9l0-0.1
			c0-0.1,0.9-5.2-3.3-10.3c-6.7-8.3-21.5-10.3-32.7-10.5C276.7,157.1,276.1,157.1,275.4,157.1z M278.1,292.6c-2.3,0-5.5-1.4-8.9-7
			l0-0.2V185l0-0.1c0.1-0.3,3.6-6.7,8.5-6.8c2.8-0.1,5.4,2,7.8,6.1l0,0.2l0,101.1c-0.5,2.6-2.9,6.5-6.5,7.1
			C278.7,292.5,278.4,292.6,278.1,292.6z M269.8,285.3c3,4.8,6.1,7.1,9.2,6.6c3.3-0.6,5.5-4.2,6-6.6V184.4c-2.3-3.9-4.7-5.8-7.3-5.8
			c-4.3,0.1-7.6,5.7-7.9,6.4V285.3z"/>
	</g>
</g>
<g>
	<path class="st0" d="M473.7,220.6l0.1-26.6l-59.1-18.2l0.4,23.1l13.8,7.4l0.2,83.3c-157.8,57.9-304.4,19.2-360-0.1l0.2-82.8
		l17.1-7.4l-13.2-21.3l-45.4,16.7l-0.3,28.5l17.9-5.9l0,63.4c-0.1,0.3-0.3,0.7-0.5,1.4v15.2c2.4,7.4,9.2,15.7,26.1,21.1
		c21,6.8,54.6,16.2,95.8,22.3c70.9,10.5,178,12.9,290-33.1v-26l-0.6-1.3V217L473.7,220.6z"/>
	<polygon class="st0" points="113.7,299.1 139.5,305.7 140,238.1 167.5,159.6 134.2,165.2 125.3,203.1 107,170.2 78.2,177.3 
		113.7,233.8 	"/>
	<path class="st0" d="M191.1,246.3c0,0,6.2-6,15.5,0l-0.6,69.1l22.3,1.6l-0.8-73.2c0-5.7-5.7-7.9-5.7-7.9s5.1,0.1,8.3-7.3
		c0,0,4.3-2.5,4.9-25c0.2-10.1,0.4-27.6-1.1-34.6c-3.2-15.3-28.6-14.2-28.6-14.2l-33.9,4.9l-0.8,149.9l19.8,4.1L191.1,246.3z
		 M193,189.6h9.6c0,0,10.2-1.8,10.8,5.6v8.5c0,0-1.2,8.4-9.8,7.1H193V189.6z"/>
	<polygon class="st0" points="378.4,277.6 352.8,282.2 352,162.1 325.6,158.3 325.6,312.6 378.4,302.7 	"/>
	<polygon class="st0" points="411.4,292.8 411.4,174.3 385,168.9 385.3,300.9 	"/>
</g>
</svg>
