<?xml version="1.0" encoding="utf-8"?>
<!-- Generator: Adobe Illustrator 19.1.0, SVG Export Plug-In . SVG Version: 6.00 Build 0)  -->
<svg version="1.1" id="Calque_1" xmlns="http://www.w3.org/2000/svg" xmlns:xlink="http://www.w3.org/1999/xlink" x="0px" y="0px"
	 viewBox="-345 170.9 500 500" style="enable-background:new -345 170.9 500 500;" xml:space="preserve">
<style type="text/css">
	.st0{fill:#606060;}
	.st1{fill:#FFE600;}
</style>
<path class="st0" d="M-233.8,458.1c0,10.6,0.3,19.1,0.7,25.9h-23.1l0.2-14.2h-0.5c-3.1,5-11.6,16-32.6,16
	c-16.5,0-28.4-10.2-28.4-35.1v-47.4h25.1v43.4c0,11.7,3.8,18.8,12.7,18.8c23.7,0,20.9-18.4,20.9-20.5v-41.7h25.1L-233.8,458.1
	L-233.8,458.1z"/>
<path class="st0" d="M37.4,458.1c0,10.6,0.3,19.1,0.7,25.9H15l0.2-14.2h-0.5c-3.1,5-11.6,16-32.6,16c-16.5,0-28.4-10.2-28.4-35.1
	v-47.4h25.1v43.4c0,11.7,3.8,18.8,12.7,18.8c23.7,0,20.9-18.4,20.9-20.5v-41.7h25.1V458.1z"/>
<path class="st0" d="M-219.5,429c0-10.1-0.3-18.5-0.7-25.7h21.8l-0.1,12.5c0,0,4.7-15.5,33.7-15.5c16.5,0,29.7,7.1,29.7,36.1V484
	h-23v-44.7c0-14.9-5.2-20.6-18-20.6c-16.2,0-21.7,16.5-21.7,18.8V484h-21.7L-219.5,429L-219.5,429z"/>
<path class="st1" d="M-110.4,392.7c-10.3,0-17-7.3-17-16.4c0-9.3,6.9-16.4,17.4-16.4c10.5,0,17,7.1,17.2,16.4
	c0,9.1-6.7,16.4-17.4,16.4H-110.4z"/>
<rect x="-120.6" y="402.2" class="st0" width="22.9" height="81.8"/>
<path class="st0" d="M-83.2,358.8h23.1V484h-23.1V358.8z"/>
<path class="st0" d="M74.7,403.3c0,0,12.4,21.6,14.5,25.6h0.3c2.1-4.5,13.4-25.6,13.4-25.6h27.2l-26.6,38.4l26.9,42.2h-28.4
	c0,0-12.5-22.6-14.4-26.7h-0.5c-2,4.3-13.7,26.7-13.7,26.7H45.9l27.4-41.1l-26.7-39.6L74.7,403.3L74.7,403.3z"/>
</svg>
