<?xml version="1.0" encoding="utf-8"?>
<!-- Generator: Adobe Illustrator 15.0.0, SVG Export Plug-In . SVG Version: 6.00 Build 0)  -->
<!DOCTYPE svg PUBLIC "-//W3C//DTD SVG 1.1//EN" "http://www.w3.org/Graphics/SVG/1.1/DTD/svg11.dtd">
<svg version="1.1" id="Calque_1" xmlns="http://www.w3.org/2000/svg" xmlns:xlink="http://www.w3.org/1999/xlink" x="0px" y="0px"
	 width="500px" height="500px" viewBox="0 0 500 500" enable-background="new 0 0 500 500" xml:space="preserve">
<g>
	<path fill="#FFFFFF" stroke="#6F6F6E" stroke-width="2.5634" d="M171.798,235.268"/>
	<rect x="171.798" y="235.268" fill="#FFFFFF" stroke="#6F6F6E" stroke-width="2.5634" width="303.218" height="82.177"/>
	<polyline fill="#4D4D4D" points="475.512,295.82 171.299,295.82 171.299,318.167 475.512,318.167 	"/>
	<g>
		<path fill="#FFFFFF" stroke="#FFFFFF" stroke-width="0.5723" d="M216.596,307.213h5.938c0,0.092,0.003,0.217,0.01,0.374
			c0.021,0.419,0.031,0.701,0.031,0.851c0,1.828-0.604,3.244-1.814,4.253c-1.207,1.012-2.913,1.517-5.11,1.517
			c-1.231,0-2.33-0.156-3.29-0.471c-0.963-0.311-1.807-0.781-2.533-1.409c-0.708-0.628-1.256-1.356-1.632-2.201
			c-0.377-0.841-0.565-1.74-0.565-2.703c0-0.978,0.192-1.877,0.572-2.707c0.387-0.823,0.959-1.549,1.723-2.181
			c0.726-0.617,1.584-1.088,2.567-1.412c0.98-0.325,2.03-0.488,3.154-0.488c1.179,0,2.232,0.188,3.167,0.558
			c0.931,0.37,1.762,0.935,2.494,1.702l-1.769,1.158c-0.509-0.502-1.078-0.875-1.716-1.123c-0.631-0.244-1.35-0.366-2.135-0.366
			c-1.626,0-2.955,0.45-3.984,1.347c-1.029,0.899-1.545,2.064-1.545,3.506c0,1.458,0.516,2.645,1.545,3.555
			c1.029,0.91,2.365,1.363,4.004,1.363c1.399,0,2.495-0.282,3.297-0.851c0.802-0.565,1.2-1.34,1.2-2.316v-0.188h-3.61V307.213z"/>
		<path fill="#FFFFFF" stroke="#FFFFFF" stroke-width="0.5723" d="M226.611,313.849V300.91h8.365v1.793h-5.919v3.248h5.919v1.842
			h-5.919v4.189h5.919v1.866H226.611z"/>
		<path fill="#FFFFFF" stroke="#FFFFFF" stroke-width="0.5723" d="M238.389,311.273l1.95-0.781c0.182,0.579,0.52,1.022,1.012,1.329
			c0.496,0.308,1.124,0.457,1.891,0.457c0.726,0,1.298-0.171,1.727-0.52c0.425-0.353,0.642-0.816,0.642-1.402
			c0-0.764-0.732-1.44-2.198-2.041c-0.202-0.087-0.363-0.153-0.471-0.195c-1.657-0.69-2.756-1.321-3.304-1.884
			c-0.551-0.564-0.827-1.248-0.827-2.062c0-1.054,0.415-1.908,1.249-2.561c0.83-0.648,1.918-0.979,3.265-0.979
			c1.106,0,2.034,0.188,2.78,0.555c0.743,0.365,1.259,0.899,1.549,1.583l-1.912,0.837c-0.3-0.397-0.631-0.693-0.987-0.875
			c-0.359-0.188-0.774-0.283-1.238-0.283c-0.66,0-1.179,0.146-1.566,0.443c-0.387,0.293-0.583,0.688-0.583,1.176
			c0,0.777,0.848,1.5,2.55,2.166c0.125,0.053,0.23,0.095,0.307,0.126c1.486,0.589,2.505,1.165,3.06,1.727
			c0.551,0.562,0.83,1.267,0.83,2.11c0,1.229-0.45,2.205-1.347,2.924c-0.896,0.722-2.107,1.084-3.631,1.084
			c-1.277,0-2.323-0.254-3.14-0.756C239.173,312.941,238.643,312.216,238.389,311.273z"/>
		<path fill="#FFFFFF" stroke="#FFFFFF" stroke-width="0.5723" d="M257.069,302.703v11.146h-2.449v-11.146h-3.987v-1.793h10.399
			v1.793H257.069z"/>
		<path fill="#FFFFFF" stroke="#FFFFFF" stroke-width="0.5723" d="M264.395,313.849V300.91h2.449v12.938H264.395z"/>
		<path fill="#FFFFFF" stroke="#FFFFFF" stroke-width="0.5723" d="M287.182,307.423c0,0.917-0.199,1.786-0.601,2.605
			c-0.401,0.816-0.98,1.549-1.744,2.19c-0.774,0.643-1.643,1.135-2.609,1.477c-0.974,0.342-1.992,0.512-3.056,0.512
			c-1.074,0-2.101-0.17-3.084-0.512c-0.977-0.35-1.846-0.838-2.596-1.477c-0.764-0.642-1.346-1.371-1.737-2.18
			c-0.4-0.812-0.596-1.686-0.596-2.616c0-0.925,0.195-1.797,0.596-2.616c0.392-0.816,0.974-1.553,1.737-2.201
			c0.768-0.639,1.63-1.127,2.603-1.465c0.967-0.336,1.999-0.506,3.077-0.506c1.081,0,2.104,0.17,3.066,0.506
			c0.97,0.338,1.831,0.826,2.599,1.465c0.764,0.652,1.343,1.395,1.744,2.215S287.182,306.509,287.182,307.423z M284.648,307.416
			c0-0.652-0.14-1.273-0.415-1.863c-0.279-0.59-0.677-1.116-1.193-1.573c-0.509-0.457-1.092-0.802-1.762-1.05
			c-0.662-0.244-1.363-0.366-2.106-0.366c-0.732,0-1.438,0.122-2.101,0.362c-0.669,0.241-1.263,0.594-1.782,1.054
			c-0.517,0.45-0.914,0.977-1.186,1.566c-0.276,0.586-0.412,1.21-0.412,1.87c0,0.659,0.136,1.27,0.412,1.855
			c0.271,0.586,0.669,1.109,1.186,1.566c0.52,0.461,1.113,0.812,1.772,1.05c0.666,0.244,1.371,0.366,2.11,0.366
			c0.732,0,1.43-0.122,2.086-0.366c0.663-0.237,1.256-0.589,1.782-1.05c0.517-0.457,0.914-0.98,1.193-1.57
			C284.509,308.682,284.648,308.064,284.648,307.416z"/>
		<path fill="#FFFFFF" stroke="#FFFFFF" stroke-width="0.5723" d="M291.462,313.849v-13.431l9.523,7.891
			c0.258,0.224,0.52,0.461,0.788,0.719c0.265,0.255,0.541,0.537,0.834,0.854v-8.972h2.26v13.438l-9.712-8.045
			c-0.254-0.217-0.502-0.446-0.746-0.69c-0.244-0.237-0.475-0.492-0.69-0.761v8.997H291.462z"/>
		<path fill="#FFFFFF" stroke="#FFFFFF" stroke-width="0.5723" d="M317.583,313.849V300.91h3.297c2.138,0,3.642,0.094,4.514,0.282
			c0.868,0.185,1.633,0.495,2.292,0.932c0.865,0.568,1.521,1.301,1.971,2.197c0.446,0.896,0.67,1.915,0.67,3.066
			s-0.224,2.167-0.67,3.056c-0.45,0.883-1.105,1.615-1.971,2.194c-0.659,0.437-1.406,0.75-2.243,0.932
			c-0.837,0.188-2.135,0.279-3.903,0.279h-0.659H317.583z M320.031,311.951h2.052c1.127,0,1.971-0.066,2.536-0.192
			c0.562-0.133,1.061-0.353,1.472-0.659c0.565-0.419,0.991-0.938,1.277-1.56s0.429-1.347,0.429-2.17c0-0.83-0.143-1.556-0.429-2.177
			s-0.712-1.141-1.277-1.559c-0.422-0.308-0.931-0.527-1.521-0.656c-0.593-0.129-1.518-0.191-2.777-0.191h-0.879h-0.883V311.951z"/>
		<path fill="#FFFFFF" stroke="#FFFFFF" stroke-width="0.5723" d="M334.578,313.849V300.91h8.365v1.793h-5.916v3.248h5.916v1.842
			h-5.916v4.189h5.916v1.866H334.578z"/>
		<path fill="#FFFFFF" stroke="#FFFFFF" stroke-width="0.5723" d="M346.362,311.273l1.946-0.781
			c0.186,0.579,0.523,1.022,1.016,1.329c0.488,0.308,1.12,0.457,1.887,0.457c0.726,0,1.298-0.171,1.73-0.52
			c0.426-0.353,0.639-0.816,0.639-1.402c0-0.764-0.732-1.44-2.194-2.041c-0.209-0.087-0.366-0.153-0.471-0.195
			c-1.657-0.69-2.763-1.321-3.311-1.884c-0.552-0.564-0.82-1.248-0.82-2.062c0-1.054,0.408-1.908,1.242-2.561
			c0.834-0.648,1.919-0.979,3.266-0.979c1.112,0,2.033,0.188,2.783,0.555c0.747,0.365,1.26,0.899,1.546,1.583l-1.908,0.837
			c-0.301-0.397-0.628-0.693-0.991-0.875c-0.355-0.188-0.768-0.283-1.234-0.283c-0.656,0-1.183,0.146-1.566,0.443
			c-0.384,0.293-0.579,0.688-0.579,1.176c0,0.777,0.848,1.5,2.546,2.166c0.13,0.053,0.234,0.095,0.308,0.126
			c1.486,0.589,2.505,1.165,3.062,1.727c0.551,0.562,0.823,1.267,0.823,2.11c0,1.229-0.442,2.205-1.336,2.924
			c-0.9,0.722-2.11,1.084-3.635,1.084c-1.284,0-2.327-0.254-3.146-0.756C347.147,312.941,346.613,312.216,346.362,311.273z"/>
		<path fill="#FFFFFF" stroke="#FFFFFF" stroke-width="0.5723" d="M377.87,313.849l-1.695-3.3h-5.931l-1.74,3.3h-2.575l7.271-13.431
			l7.238,13.431H377.87z M371.141,308.783h4.172l-1.534-2.951c-0.088-0.188-0.179-0.404-0.276-0.648s-0.188-0.514-0.282-0.816
			c-0.084,0.282-0.174,0.544-0.265,0.791c-0.095,0.244-0.188,0.472-0.283,0.674L371.141,308.783z"/>
		<path fill="#FFFFFF" stroke="#FFFFFF" stroke-width="0.5723" d="M395.393,304.06c-0.698-0.509-1.424-0.89-2.194-1.144
			c-0.771-0.255-1.577-0.381-2.421-0.381c-1.646,0-2.979,0.453-4.009,1.361c-1.025,0.91-1.542,2.086-1.542,3.533
			c0,1.396,0.503,2.554,1.504,3.461c0.994,0.91,2.261,1.363,3.785,1.363c0.89,0,1.737-0.139,2.539-0.408
			c0.803-0.271,1.574-0.68,2.313-1.228v2.379c-0.656,0.405-1.371,0.708-2.139,0.911c-0.778,0.198-1.611,0.299-2.508,0.299
			c-1.155,0-2.212-0.16-3.188-0.484c-0.97-0.324-1.824-0.803-2.564-1.43c-0.732-0.621-1.291-1.351-1.688-2.191
			c-0.391-0.84-0.586-1.737-0.586-2.686c0-0.945,0.195-1.839,0.586-2.676c0.397-0.83,0.963-1.562,1.71-2.194
			c0.746-0.635,1.601-1.12,2.561-1.444c0.963-0.328,2.006-0.492,3.125-0.492c0.879,0,1.72,0.108,2.522,0.328
			c0.799,0.22,1.573,0.548,2.323,0.994L395.393,304.06z"/>
		<path fill="#FFFFFF" stroke="#FFFFFF" stroke-width="0.5723" d="M411.914,304.06c-0.691-0.509-1.417-0.89-2.181-1.144
			c-0.774-0.255-1.58-0.381-2.432-0.381c-1.64,0-2.976,0.453-4.005,1.361c-1.029,0.91-1.538,2.086-1.538,3.533
			c0,1.396,0.495,2.554,1.493,3.461c1.005,0.91,2.268,1.363,3.795,1.363c0.894,0,1.737-0.139,2.543-0.408
			c0.796-0.271,1.566-0.68,2.299-1.228v2.379c-0.652,0.405-1.367,0.708-2.135,0.911c-0.771,0.198-1.615,0.299-2.508,0.299
			c-1.147,0-2.208-0.16-3.182-0.484c-0.977-0.324-1.835-0.803-2.563-1.43c-0.733-0.621-1.302-1.351-1.688-2.191
			c-0.391-0.84-0.594-1.737-0.594-2.686c0-0.945,0.203-1.839,0.594-2.676c0.387-0.83,0.959-1.562,1.709-2.194
			c0.739-0.635,1.591-1.12,2.561-1.444c0.959-0.328,2.002-0.492,3.126-0.492c0.875,0,1.72,0.108,2.515,0.328
			c0.799,0.22,1.57,0.548,2.327,0.994L411.914,304.06z"/>
		<path fill="#FFFFFF" stroke="#FFFFFF" stroke-width="0.5723" d="M416.406,313.849V300.91h8.369v1.793h-5.916v3.248h5.916v1.842
			h-5.916v4.189h5.916v1.866H416.406z"/>
		<path fill="#FFFFFF" stroke="#FFFFFF" stroke-width="0.5723" d="M428.194,311.273l1.942-0.781
			c0.182,0.579,0.527,1.022,1.012,1.329c0.503,0.308,1.124,0.457,1.888,0.457c0.732,0,1.305-0.171,1.737-0.52
			c0.429-0.353,0.635-0.816,0.635-1.402c0-0.764-0.732-1.44-2.188-2.041c-0.209-0.087-0.369-0.153-0.478-0.195
			c-1.65-0.69-2.756-1.321-3.308-1.884c-0.547-0.564-0.819-1.248-0.819-2.062c0-1.054,0.404-1.908,1.242-2.561
			c0.83-0.648,1.918-0.979,3.265-0.979c1.109,0,2.041,0.188,2.78,0.555c0.75,0.365,1.267,0.899,1.553,1.583l-1.912,0.837
			c-0.304-0.397-0.628-0.693-0.987-0.875c-0.366-0.188-0.771-0.283-1.241-0.283c-0.663,0-1.173,0.146-1.57,0.443
			c-0.38,0.293-0.572,0.688-0.572,1.176c0,0.777,0.852,1.5,2.547,2.166c0.129,0.053,0.224,0.095,0.304,0.126
			c1.489,0.589,2.501,1.165,3.06,1.727c0.558,0.562,0.837,1.267,0.837,2.11c0,1.229-0.446,2.205-1.347,2.924
			c-0.893,0.722-2.11,1.084-3.632,1.084c-1.283,0-2.326-0.254-3.139-0.756C428.976,312.941,428.441,312.216,428.194,311.273z"/>
	</g>
	<g>
		<rect x="79.267" y="235.512" fill="#E20613" stroke="#E20613" stroke-width="1.6482" width="19.252" height="19.256"/>
		<rect x="110.395" y="235.512" fill="#E20613" stroke="#E20613" stroke-width="1.6482" width="19.263" height="19.256"/>
		<rect x="141.529" y="235.512" fill="#E20613" stroke="#E20613" stroke-width="1.6482" width="19.259" height="19.256"/>
		<rect x="79.267" y="266.318" fill="#E20613" stroke="#E20613" stroke-width="1.6482" width="19.252" height="19.264"/>
		<rect x="110.395" y="266.318" fill="#E20613" stroke="#E20613" stroke-width="1.6482" width="19.263" height="19.264"/>
		<rect x="141.529" y="266.318" fill="#E20613" stroke="#E20613" stroke-width="1.6482" width="19.259" height="19.264"/>
		<rect x="79.267" y="297.135" fill="#E20613" stroke="#E20613" stroke-width="1.6482" width="19.252" height="19.253"/>
		<rect x="110.395" y="297.135" fill="#E20613" stroke="#E20613" stroke-width="1.6482" width="19.263" height="19.253"/>
		<rect x="141.529" y="297.135" fill="#E20613" stroke="#E20613" stroke-width="1.6482" width="19.259" height="19.253"/>
		<g>
			<path d="M160.806,233.98h-19.252h-1.584v1.581v19.252v1.584h1.584h19.252h1.584v-1.584v-19.252v-1.581H160.806z M159.226,237.145
				v16.092h-16.092v-16.092H159.226z"/>
			<path d="M141.553,264.783h-1.584v1.588v19.26v1.584h1.584h19.252h1.584v-1.584v-19.26v-1.588h-1.584H141.553z M159.226,267.955
				v16.088h-16.092v-16.088H159.226z"/>
			<path d="M141.553,295.601h-1.584v1.58v19.256v1.584h1.584h19.252h1.584v-1.584v-19.256v-1.58h-1.584H141.553z M159.226,298.768
				v16.089h-16.092v-16.089H159.226z"/>
			<path d="M110.422,233.98h-1.581v1.581v19.252v1.584h1.581h19.256h1.581v-1.584v-19.252v-1.581h-1.581H110.422z M128.091,237.145
				v16.092h-16.082v-16.092H128.091z"/>
			<path d="M110.422,264.783h-1.581v1.588v19.26v1.584h1.581h19.256h1.581v-1.584v-19.26v-1.588h-1.581H110.422z M128.091,267.955
				v16.088h-16.082v-16.088H128.091z"/>
			<path d="M110.422,295.601h-1.581v1.58v19.256v1.584h1.581h19.256h1.581v-1.584v-19.256v-1.58h-1.581H110.422z M128.091,298.768
				v16.089h-16.082v-16.089H128.091z"/>
			<path d="M79.277,233.98h-1.57v1.581v19.252v1.584h1.57h19.267h1.581v-1.584v-19.252v-1.581h-1.581H79.277z M96.964,237.145
				v16.092H80.872v-16.092H96.964z"/>
			<path d="M79.277,264.783h-1.57v1.588v19.26v1.584h1.57h19.267h1.581v-1.584v-19.26v-1.588h-1.581H79.277z M96.964,267.955v16.088
				H80.872v-16.088H96.964z"/>
			<path d="M79.277,295.601h-1.57v1.58v19.256v1.584h1.57h19.267h1.581v-1.584v-19.256v-1.58h-1.581H79.277z M96.964,298.768v16.089
				H80.872v-16.089H96.964z"/>
		</g>
		<path d="M69.702,198.716c-0.279-0.499-0.809-0.812-1.385-0.812h-8.714v3.171h5.875l-4.196,6.792
			c-0.279,0.464-0.317,1.036-0.07,1.524l2.599,5.358v15.778h3.164v-16.141c0-0.244-0.062-0.475-0.16-0.691l-2.383-4.908l5.229-8.466
			C69.967,199.836,69.984,199.219,69.702,198.716z"/>
		<path d="M90.692,194.38c-6.82-6.823-15.894-10.573-25.536-10.573c-19.919,0-36.119,16.197-36.119,36.112
			c0,10.897,5.058,21.269,13.514,28.099v47.514c0,6.021,2.351,11.682,6.614,15.935c4.252,4.267,9.917,6.606,15.938,6.606
			c1.971,0,3.938-0.254,5.826-0.764l-1.629-6.111c-1.361,0.366-2.777,0.544-4.197,0.544c-4.333,0-8.407-1.688-11.47-4.747
			c-3.066-3.061-4.741-7.135-4.741-11.463v-48.654c0-0.334-0.059-0.662-0.157-0.977l-0.15-0.46
			c-0.203-0.624-0.597-1.173-1.127-1.563c-7.563-5.603-12.084-14.557-12.084-23.958c0-7.957,3.094-15.433,8.718-21.063
			c5.623-5.623,13.106-8.721,21.063-8.721c7.954,0,15.426,3.098,21.067,8.721c5.62,5.63,8.717,13.106,8.717,21.063
			c0,1.842-0.171,3.687-0.502,5.48l6.227,1.158c0.401-2.18,0.604-4.413,0.604-6.638C101.269,210.27,97.522,201.2,90.692,194.38z"/>
	</g>
	<g>
		<path stroke="#000000" stroke-width="1.1538" d="M225.896,249.57v19.253c0,3.732-0.15,4.58-0.792,6.663
			c-0.597,1.849-1.633,3.488-3.077,4.779c-2.728,2.438-6.353,3.635-10.671,3.635c-6.896,0-12.164-3.137-13.804-8.307
			c-0.687-2.142-0.788-3.139-0.788-6.819V249.57h4.87v19.253c0,4.476,0.439,6.269,2.125,7.964c1.838,1.891,4.375,2.833,7.549,2.833
			c4.912,0,8.679-2.483,9.38-6.217c0.195-0.896,0.346-2.985,0.346-4.58V249.57H225.896z"/>
		<path stroke="#000000" stroke-width="1.1538" d="M262.315,249.57v33.936h-4.165l-22.633-26.121v26.121h-4.566V249.57h3.921
			l22.828,26.316V249.57H262.315z"/>
		<path stroke="#000000" stroke-width="1.1538" d="M274.215,249.57v33.936h-4.863V249.57H274.215z"/>
		<path stroke="#000000" stroke-width="1.1538" d="M400.523,249.57v33.936h-4.175l-22.634-26.121v26.121h-4.559V249.57h3.917
			l22.835,26.316V249.57H400.523z"/>
		<path stroke="#000000" stroke-width="1.1538" d="M412.423,249.57v33.936h-4.866V249.57H412.423z"/>
		<path stroke="#000000" stroke-width="1.1538" d="M306.458,249.518v4.33h-11.805v29.658h-4.87v-29.658h-11.612v-4.33H306.458z"/>
		<path stroke="#000000" stroke-width="1.1538" d="M330.364,249.57v4.329h-14.341v10.354h13.85v4.325h-13.85v10.549h14.798v4.329
			H311.16V249.57H330.364z"/>
		<path stroke="#000000" stroke-width="1.1538" d="M364.275,280.963c-3.732,2.037-7.695,2.938-12.314,2.938
			c-4.918,0-8.686-1.197-11.958-3.932c-3.977-3.283-6.206-8.156-6.206-13.333c0-9.851,7.939-17.515,18.27-17.515
			c3.719,0,7.192,0.799,11.854,2.79v5.226c-4.113-2.341-7.741-3.391-11.613-3.391c-7.737,0-13.5,5.477-13.5,12.89
			c0,7.462,5.609,12.789,13.444,12.789c4.074,0,8.146-1.294,12.024-3.785V280.963z"/>
		<path stroke="#000000" stroke-width="1.1538" d="M447.579,280.963c-3.726,2.037-7.685,2.938-12.304,2.938
			c-4.915,0-8.689-1.197-11.965-3.932c-3.967-3.283-6.213-8.156-6.213-13.333c0-9.851,7.95-17.515,18.272-17.515
			c3.719,0,7.192,0.799,11.86,2.79v5.226c-4.12-2.341-7.744-3.391-11.613-3.391c-7.74,0-13.493,5.477-13.493,12.89
			c0,7.462,5.599,12.789,13.444,12.789c4.078,0,8.139-1.294,12.011-3.785V280.963z"/>
	</g>
</g>
</svg>
