<?xml version="1.0" encoding="utf-8"?>
<!-- Generator: Adobe Illustrator 19.1.0, SVG Export Plug-In . SVG Version: 6.00 Build 0)  -->
<svg version="1.1" id="Calque_1" xmlns="http://www.w3.org/2000/svg" xmlns:xlink="http://www.w3.org/1999/xlink" x="0px" y="0px"
	 viewBox="0 0 500 500" style="enable-background:new 0 0 500 500;" xml:space="preserve">
<style type="text/css">
	.st0{fill:#FFFFFF;stroke:#6F6F6E;stroke-width:2.5634;}
	.st1{fill:#FFFFFF;}
	.st2{fill:#6F6F6E;}
	.st3{fill:#4D4D4D;}
	.st4{fill:#E20613;}
</style>
<g>
	<path class="st0" d="M171.8,235.3"/>
	<g>
		<rect x="171.8" y="235.3" class="st1" width="303.2" height="82.2"/>
		<path class="st2" d="M476.3,318.7H170.5V234h305.8V318.7z M173.1,316.2h300.7v-79.6H173.1V316.2z"/>
	</g>
	<polyline class="st3" points="475.5,295.8 171.3,295.8 171.3,318.2 475.5,318.2 	"/>
	<g>
		<g>
			<path class="st1" d="M216.6,307.2h5.9c0,0.1,0,0.2,0,0.4c0,0.4,0,0.7,0,0.9c0,1.8-0.6,3.2-1.8,4.3c-1.2,1-2.9,1.5-5.1,1.5
				c-1.2,0-2.3-0.2-3.3-0.5c-1-0.3-1.8-0.8-2.5-1.4c-0.7-0.6-1.3-1.4-1.6-2.2c-0.4-0.8-0.6-1.7-0.6-2.7c0-1,0.2-1.9,0.6-2.7
				c0.4-0.8,1-1.5,1.7-2.2c0.7-0.6,1.6-1.1,2.6-1.4c1-0.3,2-0.5,3.2-0.5c1.2,0,2.2,0.2,3.2,0.6c0.9,0.4,1.8,0.9,2.5,1.7l-1.8,1.2
				c-0.5-0.5-1.1-0.9-1.7-1.1c-0.6-0.2-1.4-0.4-2.1-0.4c-1.6,0-3,0.5-4,1.3c-1,0.9-1.5,2.1-1.5,3.5c0,1.5,0.5,2.6,1.5,3.6
				c1,0.9,2.4,1.4,4,1.4c1.4,0,2.5-0.3,3.3-0.9c0.8-0.6,1.2-1.3,1.2-2.3V309h-3.6L216.6,307.2L216.6,307.2z"/>
			<path class="st1" d="M215.7,314.5c-1.3,0-2.4-0.2-3.4-0.5c-1-0.3-1.9-0.8-2.6-1.5c-0.7-0.7-1.3-1.4-1.7-2.3
				c-0.4-0.9-0.6-1.8-0.6-2.8c0-1,0.2-2,0.6-2.8c0.4-0.9,1-1.6,1.8-2.3c0.7-0.6,1.6-1.1,2.7-1.5c1-0.3,2.1-0.5,3.2-0.5
				c1.2,0,2.3,0.2,3.3,0.6c1,0.4,1.8,1,2.6,1.8l0.2,0.2l-2.2,1.5l-0.2-0.2c-0.5-0.5-1-0.8-1.6-1.1c-0.6-0.2-1.3-0.3-2-0.3
				c-1.5,0-2.8,0.4-3.8,1.3c-1,0.8-1.4,1.9-1.4,3.3c0,1.4,0.5,2.5,1.4,3.3c1,0.9,2.3,1.3,3.8,1.3c1.3,0,2.4-0.3,3.1-0.8
				c0.7-0.5,1.1-1.1,1.1-2h-3.6v-2.3h6.5v0.3c0,0.1,0,0.2,0,0.4c0,0.4,0,0.7,0,0.9c0,1.9-0.6,3.4-1.9,4.5
				C219.7,314,217.9,314.5,215.7,314.5z M215.6,300.9c-1.1,0-2.1,0.2-3.1,0.5c-0.9,0.3-1.8,0.8-2.5,1.4c-0.7,0.6-1.3,1.3-1.6,2.1
				c-0.4,0.8-0.5,1.7-0.5,2.6c0,0.9,0.2,1.8,0.5,2.6c0.4,0.8,0.9,1.5,1.6,2.1c0.7,0.6,1.5,1.1,2.4,1.4c0.9,0.3,2,0.5,3.2,0.5
				c2.1,0,3.8-0.5,4.9-1.5c1.2-1,1.7-2.3,1.7-4c0-0.1,0-0.4,0-0.8c0,0,0-0.1,0-0.1h-5.4l0,1.2h3.6v0.5c0,1.1-0.4,1.9-1.3,2.6
				c-0.8,0.6-2,0.9-3.5,0.9c-1.7,0-3.1-0.5-4.2-1.4c-1.1-1-1.6-2.2-1.6-3.8c0-1.5,0.6-2.8,1.6-3.7c1.1-0.9,2.5-1.4,4.2-1.4
				c0.8,0,1.6,0.1,2.2,0.4c0.6,0.2,1.2,0.6,1.6,1l1.3-0.8c-0.6-0.6-1.4-1.1-2.1-1.4C217.8,301.1,216.8,300.9,215.6,300.9z"/>
		</g>
		<g>
			<path class="st1" d="M226.6,313.8v-12.9h8.4v1.8h-5.9v3.2h5.9v1.8h-5.9v4.2h5.9v1.9L226.6,313.8L226.6,313.8z"/>
			<path class="st1" d="M235.3,314.1h-8.9v-13.5h8.9v2.4h-5.9v2.7h5.9v2.4h-5.9v3.6h5.9V314.1z M226.9,301.2v12.4l7.8,0v-1.3h-5.9
				v-4.8h5.9v-1.3h-5.9v-3.8h5.9v-1.2H226.9z"/>
		</g>
		<g>
			<path class="st1" d="M238.4,311.3l1.9-0.8c0.2,0.6,0.5,1,1,1.3c0.5,0.3,1.1,0.5,1.9,0.5c0.7,0,1.3-0.2,1.7-0.5
				c0.4-0.4,0.6-0.8,0.6-1.4c0-0.8-0.7-1.4-2.2-2c-0.2-0.1-0.4-0.2-0.5-0.2c-1.7-0.7-2.8-1.3-3.3-1.9c-0.6-0.6-0.8-1.2-0.8-2.1
				c0-1.1,0.4-1.9,1.2-2.6c0.8-0.6,1.9-1,3.3-1c1.1,0,2,0.2,2.8,0.6c0.7,0.4,1.3,0.9,1.5,1.6l-1.9,0.8c-0.3-0.4-0.6-0.7-1-0.9
				c-0.4-0.2-0.8-0.3-1.2-0.3c-0.7,0-1.2,0.1-1.6,0.4c-0.4,0.3-0.6,0.7-0.6,1.2c0,0.8,0.8,1.5,2.6,2.2c0.1,0.1,0.2,0.1,0.3,0.1
				c1.5,0.6,2.5,1.2,3.1,1.7c0.6,0.6,0.8,1.3,0.8,2.1c0,1.2-0.4,2.2-1.3,2.9c-0.9,0.7-2.1,1.1-3.6,1.1c-1.3,0-2.3-0.3-3.1-0.8
				C239.2,312.9,238.6,312.2,238.4,311.3z"/>
			<path class="st1" d="M243.1,314.5c-1.3,0-2.4-0.3-3.3-0.8c-0.9-0.5-1.5-1.3-1.7-2.3l-0.1-0.2l2.5-1l0.1,0.3
				c0.2,0.5,0.5,0.9,0.9,1.2c0.4,0.3,1,0.4,1.7,0.4c0.7,0,1.2-0.1,1.5-0.5c0.4-0.3,0.5-0.7,0.5-1.2c0-0.6-0.7-1.2-2-1.8
				c-0.2-0.1-0.4-0.2-0.5-0.2c-1.7-0.7-2.8-1.4-3.4-2c-0.6-0.6-0.9-1.4-0.9-2.3c0-1.1,0.5-2.1,1.4-2.8c0.9-0.7,2-1,3.4-1
				c1.1,0,2.1,0.2,2.9,0.6c0.8,0.4,1.4,1,1.7,1.7l0.1,0.3l-2.4,1l-0.1-0.2c-0.3-0.4-0.6-0.6-0.9-0.8c-0.3-0.2-0.7-0.3-1.1-0.3
				c-0.6,0-1.1,0.1-1.4,0.4c-0.3,0.2-0.5,0.6-0.5,1c0,0.6,0.8,1.3,2.4,1.9l0.3,0.1c1.6,0.6,2.6,1.2,3.2,1.8c0.6,0.6,0.9,1.4,0.9,2.3
				c0,1.3-0.5,2.4-1.5,3.1C246,314.1,244.7,314.5,243.1,314.5z M238.7,311.4c0.3,0.8,0.7,1.3,1.4,1.8c0.8,0.5,1.8,0.7,3,0.7
				c1.4,0,2.6-0.3,3.5-1c0.8-0.7,1.2-1.6,1.2-2.7c0-0.8-0.3-1.4-0.7-1.9c-0.5-0.5-1.5-1.1-3-1.7l-0.3-0.1c-1.8-0.7-2.7-1.5-2.7-2.4
				c0-0.6,0.2-1.1,0.7-1.4c0.4-0.3,1-0.5,1.7-0.5c0.5,0,1,0.1,1.4,0.3c0.3,0.2,0.6,0.4,0.9,0.8l1.4-0.6c-0.3-0.5-0.7-0.9-1.3-1.2
				c-0.7-0.3-1.6-0.5-2.7-0.5c-1.3,0-2.3,0.3-3.1,0.9c-0.8,0.6-1.1,1.4-1.1,2.3c0,0.7,0.2,1.3,0.7,1.9c0.5,0.5,1.6,1.2,3.2,1.8
				c0.1,0,0.3,0.1,0.5,0.2c1.6,0.7,2.4,1.4,2.4,2.3c0,0.7-0.3,1.2-0.7,1.6c-0.5,0.4-1.1,0.6-1.9,0.6c-0.8,0-1.5-0.2-2-0.5
				c-0.5-0.3-0.8-0.7-1-1.2L238.7,311.4z"/>
		</g>
		<g>
			<path class="st1" d="M257.1,302.7v11.1h-2.4v-11.1h-4v-1.8H261v1.8H257.1z"/>
			<path class="st1" d="M257.4,314.1h-3V303h-4v-2.4h11v2.4h-4V314.1z M254.9,313.6h1.9v-11.1h4v-1.2h-9.8v1.2h4V313.6z"/>
		</g>
		<g>
			<path class="st1" d="M264.4,313.8v-12.9h2.4v12.9L264.4,313.8L264.4,313.8z"/>
			<path class="st1" d="M267.1,314.1h-3v-13.5h3V314.1z M264.7,301.2v12.4l1.9,0v-12.4H264.7z"/>
		</g>
		<g>
			<path class="st1" d="M287.2,307.4c0,0.9-0.2,1.8-0.6,2.6c-0.4,0.8-1,1.5-1.7,2.2c-0.8,0.6-1.6,1.1-2.6,1.5c-1,0.3-2,0.5-3.1,0.5
				c-1.1,0-2.1-0.2-3.1-0.5c-1-0.4-1.8-0.8-2.6-1.5c-0.8-0.6-1.3-1.4-1.7-2.2c-0.4-0.8-0.6-1.7-0.6-2.6c0-0.9,0.2-1.8,0.6-2.6
				c0.4-0.8,1-1.6,1.7-2.2c0.8-0.6,1.6-1.1,2.6-1.5c1-0.3,2-0.5,3.1-0.5c1.1,0,2.1,0.2,3.1,0.5c1,0.3,1.8,0.8,2.6,1.5
				c0.8,0.7,1.3,1.4,1.7,2.2S287.2,306.5,287.2,307.4z M284.6,307.4c0-0.7-0.1-1.3-0.4-1.9c-0.3-0.6-0.7-1.1-1.2-1.6
				c-0.5-0.5-1.1-0.8-1.8-1c-0.7-0.2-1.4-0.4-2.1-0.4c-0.7,0-1.4,0.1-2.1,0.4c-0.7,0.2-1.3,0.6-1.8,1.1c-0.5,0.5-0.9,1-1.2,1.6
				c-0.3,0.6-0.4,1.2-0.4,1.9c0,0.7,0.1,1.3,0.4,1.9c0.3,0.6,0.7,1.1,1.2,1.6c0.5,0.5,1.1,0.8,1.8,1c0.7,0.2,1.4,0.4,2.1,0.4
				c0.7,0,1.4-0.1,2.1-0.4c0.7-0.2,1.3-0.6,1.8-1c0.5-0.5,0.9-1,1.2-1.6C284.5,308.7,284.6,308.1,284.6,307.4z"/>
			<path class="st1" d="M279.2,314.5c-1.1,0-2.2-0.2-3.2-0.5c-1-0.4-1.9-0.9-2.7-1.5c-0.8-0.7-1.4-1.4-1.8-2.3
				c-0.4-0.8-0.6-1.8-0.6-2.7c0-1,0.2-1.9,0.6-2.7c0.4-0.8,1-1.6,1.8-2.3c0.8-0.7,1.7-1.2,2.7-1.5c2-0.7,4.3-0.7,6.3,0
				c1,0.3,1.9,0.9,2.7,1.5c0.8,0.7,1.4,1.4,1.8,2.3c0.4,0.9,0.6,1.8,0.6,2.7c0,1-0.2,1.9-0.6,2.7c-0.4,0.9-1,1.6-1.8,2.3
				c-0.8,0.7-1.7,1.2-2.7,1.5C281.3,314.3,280.3,314.5,279.2,314.5z M279.2,300.9c-1,0-2,0.2-3,0.5c-0.9,0.3-1.8,0.8-2.5,1.4
				c-0.7,0.6-1.3,1.3-1.7,2.1c-0.4,0.8-0.6,1.6-0.6,2.5c0,0.9,0.2,1.7,0.6,2.5c0.4,0.8,0.9,1.5,1.7,2.1c0.7,0.6,1.6,1.1,2.5,1.4
				c1.9,0.7,4.1,0.7,5.9,0c0.9-0.3,1.8-0.8,2.5-1.4c0.7-0.6,1.3-1.3,1.7-2.1c0.4-0.8,0.6-1.6,0.6-2.5c0-0.9-0.2-1.7-0.6-2.5
				c-0.4-0.8-1-1.5-1.7-2.1c-0.7-0.6-1.6-1.1-2.5-1.4C281.2,301.1,280.2,300.9,279.2,300.9z M279.2,312.5c-0.8,0-1.5-0.1-2.2-0.4
				c-0.7-0.2-1.3-0.6-1.9-1.1c-0.5-0.5-1-1-1.3-1.7c-0.3-0.6-0.4-1.3-0.4-2s0.1-1.4,0.4-2c0.3-0.6,0.7-1.2,1.3-1.7
				c0.5-0.5,1.2-0.9,1.9-1.1c1.4-0.5,3-0.5,4.4,0c0.7,0.3,1.3,0.6,1.9,1.1c0.5,0.5,1,1,1.3,1.7c0.3,0.6,0.4,1.3,0.4,2
				s-0.1,1.3-0.4,2c-0.3,0.6-0.7,1.2-1.3,1.7c-0.6,0.5-1.2,0.9-1.9,1.1C280.7,312.4,279.9,312.5,279.2,312.5z M279.2,302.9
				c-0.7,0-1.4,0.1-2,0.3c-0.6,0.2-1.2,0.6-1.7,1c-0.5,0.4-0.9,0.9-1.1,1.5c-0.3,0.5-0.4,1.1-0.4,1.8c0,0.6,0.1,1.2,0.4,1.7
				c0.3,0.5,0.6,1,1.1,1.5c0.5,0.4,1.1,0.8,1.7,1c1.3,0.5,2.8,0.5,4,0c0.6-0.2,1.2-0.6,1.7-1c0.5-0.4,0.9-0.9,1.1-1.5
				c0.3-0.5,0.4-1.1,0.4-1.7c0-0.6-0.1-1.2-0.4-1.7c-0.3-0.6-0.6-1.1-1.1-1.5c-0.5-0.4-1-0.8-1.7-1
				C280.6,303,279.9,302.9,279.2,302.9z"/>
		</g>
		<g>
			<path class="st1" d="M291.5,313.8v-13.4l9.5,7.9c0.3,0.2,0.5,0.5,0.8,0.7c0.3,0.3,0.5,0.5,0.8,0.9v-9h2.3v13.4l-9.7-8
				c-0.3-0.2-0.5-0.4-0.7-0.7c-0.2-0.2-0.5-0.5-0.7-0.8v9L291.5,313.8L291.5,313.8z"/>
			<path class="st1" d="M305.2,315l-10.2-8.4c-0.3-0.2-0.5-0.5-0.8-0.7c-0.1-0.1-0.1-0.1-0.2-0.2v8.5h-2.8v-14.3l10,8.3
				c0.3,0.2,0.5,0.5,0.8,0.7c0.1,0.1,0.2,0.2,0.3,0.3v-8.5h2.8V315z M293.4,304l0.5,0.6c0.2,0.3,0.4,0.5,0.7,0.7
				c0.2,0.2,0.5,0.5,0.7,0.7l9.2,7.7v-12.5h-1.7v9.4l-0.5-0.5c-0.3-0.3-0.6-0.6-0.8-0.8c-0.3-0.3-0.5-0.5-0.8-0.7l-9-7.5v12.5h1.7
				V304z"/>
		</g>
		<g>
			<path class="st1" d="M317.6,313.8v-12.9h3.3c2.1,0,3.6,0.1,4.5,0.3c0.9,0.2,1.6,0.5,2.3,0.9c0.9,0.6,1.5,1.3,2,2.2
				c0.4,0.9,0.7,1.9,0.7,3.1s-0.2,2.2-0.7,3.1c-0.5,0.9-1.1,1.6-2,2.2c-0.7,0.4-1.4,0.8-2.2,0.9c-0.8,0.2-2.1,0.3-3.9,0.3h-0.7
				L317.6,313.8L317.6,313.8z M320,312h2.1c1.1,0,2-0.1,2.5-0.2c0.6-0.1,1.1-0.4,1.5-0.7c0.6-0.4,1-0.9,1.3-1.6s0.4-1.3,0.4-2.2
				c0-0.8-0.1-1.6-0.4-2.2s-0.7-1.1-1.3-1.6c-0.4-0.3-0.9-0.5-1.5-0.7c-0.6-0.1-1.5-0.2-2.8-0.2h-0.9H320V312z"/>
			<path class="st1" d="M321.5,314.1h-4.2v-13.5h3.6c2.2,0,3.7,0.1,4.6,0.3c0.9,0.2,1.7,0.5,2.4,1c0.9,0.6,1.6,1.4,2.1,2.3
				c0.5,0.9,0.7,2,0.7,3.2c0,1.2-0.2,2.3-0.7,3.2c-0.5,0.9-1.2,1.7-2.1,2.3c-0.7,0.5-1.5,0.8-2.3,1
				C324.6,314,323.4,314.1,321.5,314.1z M317.9,301.2v12.4l3.7,0c1.7,0,3-0.1,3.8-0.3c0.8-0.2,1.5-0.5,2.1-0.9
				c0.8-0.5,1.4-1.2,1.9-2.1c0.4-0.8,0.6-1.8,0.6-2.9c0-1.1-0.2-2.1-0.6-2.9c-0.4-0.8-1.1-1.5-1.9-2.1c-0.6-0.4-1.4-0.7-2.2-0.9
				c-0.8-0.2-2.3-0.3-4.5-0.3H317.9z M322.1,312.2h-2.3v-9.7h2c1.3,0,2.2,0.1,2.8,0.2c0.6,0.1,1.2,0.4,1.6,0.7
				c0.6,0.4,1.1,1,1.4,1.7c0.3,0.7,0.5,1.4,0.5,2.3c0,0.9-0.2,1.6-0.5,2.3c-0.3,0.7-0.8,1.2-1.4,1.7c-0.4,0.3-1,0.6-1.6,0.7
				C324.1,312.2,323.2,312.2,322.1,312.2z M320.3,311.7h1.8c1.1,0,1.9-0.1,2.5-0.2c0.5-0.1,1-0.3,1.4-0.6c0.5-0.4,0.9-0.9,1.2-1.4
				c0.3-0.6,0.4-1.3,0.4-2.1c0-0.8-0.1-1.5-0.4-2.1c-0.3-0.6-0.7-1.1-1.2-1.4c-0.4-0.3-0.9-0.5-1.4-0.6c-0.6-0.1-1.5-0.2-2.7-0.2
				h-1.5V311.7z"/>
		</g>
		<g>
			<path class="st1" d="M334.6,313.8v-12.9h8.4v1.8H337v3.2h5.9v1.8H337v4.2h5.9v1.9L334.6,313.8L334.6,313.8z"/>
			<path class="st1" d="M343.2,314.1h-8.9v-13.5h8.9v2.4h-5.9v2.7h5.9v2.4h-5.9v3.6h5.9V314.1z M334.9,301.2v12.4l7.8,0v-1.3h-5.9
				v-4.8h5.9v-1.3h-5.9v-3.8h5.9v-1.2H334.9z"/>
		</g>
		<g>
			<path class="st1" d="M346.4,311.3l1.9-0.8c0.2,0.6,0.5,1,1,1.3c0.5,0.3,1.1,0.5,1.9,0.5c0.7,0,1.3-0.2,1.7-0.5
				c0.4-0.4,0.6-0.8,0.6-1.4c0-0.8-0.7-1.4-2.2-2c-0.2-0.1-0.4-0.2-0.5-0.2c-1.7-0.7-2.8-1.3-3.3-1.9c-0.6-0.6-0.8-1.2-0.8-2.1
				c0-1.1,0.4-1.9,1.2-2.6c0.8-0.6,1.9-1,3.3-1c1.1,0,2,0.2,2.8,0.6c0.7,0.4,1.3,0.9,1.5,1.6l-1.9,0.8c-0.3-0.4-0.6-0.7-1-0.9
				c-0.4-0.2-0.8-0.3-1.2-0.3c-0.7,0-1.2,0.1-1.6,0.4c-0.4,0.3-0.6,0.7-0.6,1.2c0,0.8,0.8,1.5,2.5,2.2c0.1,0.1,0.2,0.1,0.3,0.1
				c1.5,0.6,2.5,1.2,3.1,1.7c0.6,0.6,0.8,1.3,0.8,2.1c0,1.2-0.4,2.2-1.3,2.9c-0.9,0.7-2.1,1.1-3.6,1.1c-1.3,0-2.3-0.3-3.1-0.8
				C347.1,312.9,346.6,312.2,346.4,311.3z"/>
			<path class="st1" d="M351.1,314.5c-1.3,0-2.4-0.3-3.3-0.8c-0.9-0.5-1.5-1.3-1.7-2.3l-0.1-0.2l2.5-1l0.1,0.3
				c0.2,0.5,0.5,0.9,0.9,1.2c0.4,0.3,1,0.4,1.7,0.4c0.7,0,1.2-0.1,1.6-0.5c0.4-0.3,0.5-0.7,0.5-1.2c0-0.6-0.7-1.2-2-1.8l-0.5-0.2
				c-1.7-0.7-2.8-1.4-3.4-1.9c-0.6-0.6-0.9-1.4-0.9-2.3c0-1.1,0.5-2.1,1.4-2.8c0.9-0.7,2-1,3.4-1c1.1,0,2.1,0.2,2.9,0.6
				c0.8,0.4,1.4,1,1.7,1.7l0.1,0.3l-2.4,1l-0.1-0.2c-0.3-0.4-0.6-0.6-0.9-0.8c-0.3-0.2-0.7-0.3-1.1-0.3c-0.6,0-1.1,0.1-1.4,0.4
				c-0.3,0.2-0.5,0.6-0.5,1c0,0.6,0.8,1.3,2.4,1.9l0.3,0.1c1.5,0.6,2.6,1.2,3.2,1.8c0.6,0.6,0.9,1.4,0.9,2.3c0,1.3-0.5,2.4-1.4,3.1
				C354,314.1,352.7,314.5,351.1,314.5z M346.7,311.4c0.3,0.8,0.7,1.3,1.4,1.8c0.8,0.5,1.8,0.7,3,0.7c1.4,0,2.6-0.3,3.5-1
				c0.8-0.7,1.2-1.5,1.2-2.7c0-0.8-0.2-1.4-0.7-1.9c-0.5-0.5-1.5-1.1-3-1.7l-0.3-0.1c-1.8-0.7-2.7-1.5-2.7-2.4
				c0-0.6,0.2-1.1,0.7-1.4c0.4-0.3,1-0.5,1.7-0.5c0.5,0,1,0.1,1.4,0.3c0.3,0.2,0.6,0.4,0.9,0.8l1.4-0.6c-0.3-0.5-0.7-0.9-1.3-1.2
				c-0.7-0.3-1.6-0.5-2.7-0.5c-1.3,0-2.3,0.3-3.1,0.9c-0.8,0.6-1.1,1.4-1.1,2.3c0,0.7,0.2,1.4,0.7,1.9c0.5,0.5,1.6,1.1,3.2,1.8
				l0.5,0.2c1.6,0.7,2.4,1.4,2.4,2.3c0,0.7-0.2,1.2-0.7,1.6c-0.5,0.4-1.1,0.6-1.9,0.6c-0.8,0-1.5-0.2-2-0.5c-0.5-0.3-0.8-0.7-1-1.2
				L346.7,311.4z"/>
		</g>
		<g>
			<path class="st1" d="M377.9,313.8l-1.7-3.3h-5.9l-1.7,3.3h-2.6l7.3-13.4l7.2,13.4H377.9z M371.1,308.8h4.2l-1.5-3
				c-0.1-0.2-0.2-0.4-0.3-0.6s-0.2-0.5-0.3-0.8c-0.1,0.3-0.2,0.5-0.3,0.8c-0.1,0.2-0.2,0.5-0.3,0.7L371.1,308.8z"/>
			<path class="st1" d="M380.9,314.1h-3.2l-1.7-3.3h-5.6l-1.7,3.3h-3.2l7.8-14.3L380.9,314.1z M378,313.6h1.9l-6.8-12.5l-6.8,12.5
				h1.9l1.7-3.3h6.3L378,313.6z M375.8,309.1h-5.1l1.7-3.4c0.1-0.2,0.2-0.4,0.3-0.6c0.1-0.2,0.2-0.5,0.3-0.8l0.3-0.9l0.3,0.9
				c0.1,0.3,0.2,0.6,0.3,0.8c0.1,0.2,0.2,0.4,0.3,0.6L375.8,309.1z M371.6,308.5h3.2l-1.3-2.5c-0.1-0.2-0.2-0.4-0.3-0.7c0,0,0,0,0,0
				c-0.1,0.3-0.2,0.5-0.3,0.7L371.6,308.5z"/>
		</g>
		<g>
			<path class="st1" d="M395.4,304.1c-0.7-0.5-1.4-0.9-2.2-1.1c-0.8-0.3-1.6-0.4-2.4-0.4c-1.6,0-3,0.5-4,1.4c-1,0.9-1.5,2.1-1.5,3.5
				c0,1.4,0.5,2.6,1.5,3.5c1,0.9,2.3,1.4,3.8,1.4c0.9,0,1.7-0.1,2.5-0.4c0.8-0.3,1.6-0.7,2.3-1.2v2.4c-0.7,0.4-1.4,0.7-2.1,0.9
				c-0.8,0.2-1.6,0.3-2.5,0.3c-1.2,0-2.2-0.2-3.2-0.5c-1-0.3-1.8-0.8-2.6-1.4c-0.7-0.6-1.3-1.4-1.7-2.2c-0.4-0.8-0.6-1.7-0.6-2.7
				c0-0.9,0.2-1.8,0.6-2.7c0.4-0.8,1-1.6,1.7-2.2c0.7-0.6,1.6-1.1,2.6-1.4c1-0.3,2-0.5,3.1-0.5c0.9,0,1.7,0.1,2.5,0.3
				c0.8,0.2,1.6,0.5,2.3,1L395.4,304.1z"/>
			<path class="st1" d="M390.7,314.5c-1.2,0-2.3-0.2-3.3-0.5c-1-0.3-1.9-0.8-2.7-1.5c-0.8-0.6-1.3-1.4-1.8-2.3
				c-0.4-0.9-0.6-1.8-0.6-2.8c0-1,0.2-1.9,0.6-2.8c0.4-0.9,1-1.6,1.8-2.3c0.8-0.7,1.7-1.2,2.7-1.5c1-0.3,2.1-0.5,3.2-0.5
				c0.9,0,1.8,0.1,2.6,0.3c0.8,0.2,1.6,0.6,2.4,1l0.1,0.1l-0.2,2.8l-0.4-0.3c-0.7-0.5-1.4-0.9-2.1-1.1c-0.7-0.2-1.5-0.4-2.3-0.4
				c-1.6,0-2.8,0.4-3.8,1.3c-1,0.9-1.4,1.9-1.4,3.3c0,1.3,0.5,2.4,1.4,3.2c0.9,0.9,2.1,1.3,3.6,1.3c0.8,0,1.7-0.1,2.4-0.4
				c0.8-0.3,1.5-0.7,2.2-1.2l0.5-0.3v3.1l-0.1,0.1c-0.7,0.4-1.4,0.7-2.2,0.9C392.5,314.4,391.6,314.5,390.7,314.5z M390.7,300.9
				c-1.1,0-2.1,0.2-3,0.5c-0.9,0.3-1.7,0.8-2.5,1.4c-0.7,0.6-1.3,1.3-1.6,2.1c-0.4,0.8-0.6,1.7-0.6,2.6c0,0.9,0.2,1.8,0.6,2.6
				c0.4,0.8,0.9,1.5,1.6,2.1c0.7,0.6,1.5,1.1,2.5,1.4c1,0.3,2,0.5,3.1,0.5c0.9,0,1.7-0.1,2.4-0.3c0.7-0.2,1.3-0.4,1.9-0.8v-1.7
				c-0.6,0.4-1.3,0.7-1.9,1c-0.8,0.3-1.7,0.4-2.6,0.4c-1.6,0-2.9-0.5-4-1.4c-1.1-1-1.6-2.2-1.6-3.7c0-1.5,0.6-2.8,1.6-3.7
				c1.1-1,2.5-1.4,4.2-1.4c0.9,0,1.7,0.1,2.5,0.4c0.6,0.2,1.3,0.5,1.8,0.9l0.1-1.4c-0.7-0.4-1.4-0.7-2.1-0.9
				C392.4,301,391.5,300.9,390.7,300.9z"/>
		</g>
		<g>
			<path class="st1" d="M411.9,304.1c-0.7-0.5-1.4-0.9-2.2-1.1c-0.8-0.3-1.6-0.4-2.4-0.4c-1.6,0-3,0.5-4,1.4c-1,0.9-1.5,2.1-1.5,3.5
				c0,1.4,0.5,2.6,1.5,3.5c1,0.9,2.3,1.4,3.8,1.4c0.9,0,1.7-0.1,2.5-0.4c0.8-0.3,1.6-0.7,2.3-1.2v2.4c-0.7,0.4-1.4,0.7-2.1,0.9
				c-0.8,0.2-1.6,0.3-2.5,0.3c-1.1,0-2.2-0.2-3.2-0.5c-1-0.3-1.8-0.8-2.6-1.4c-0.7-0.6-1.3-1.4-1.7-2.2c-0.4-0.8-0.6-1.7-0.6-2.7
				c0-0.9,0.2-1.8,0.6-2.7c0.4-0.8,1-1.6,1.7-2.2c0.7-0.6,1.6-1.1,2.6-1.4c1-0.3,2-0.5,3.1-0.5c0.9,0,1.7,0.1,2.5,0.3
				c0.8,0.2,1.6,0.5,2.3,1L411.9,304.1z"/>
			<path class="st1" d="M407.2,314.5c-1.2,0-2.3-0.2-3.3-0.5c-1-0.3-1.9-0.8-2.7-1.5c-0.8-0.7-1.4-1.4-1.8-2.3
				c-0.4-0.9-0.6-1.8-0.6-2.8c0-1,0.2-1.9,0.6-2.8c0.4-0.9,1-1.6,1.8-2.3c0.8-0.7,1.7-1.2,2.7-1.5c1-0.3,2.1-0.5,3.2-0.5
				c0.9,0,1.8,0.1,2.6,0.3c0.8,0.2,1.6,0.6,2.4,1l0.2,0.1l-0.2,2.8l-0.4-0.3c-0.7-0.5-1.4-0.9-2.1-1.1c-0.7-0.2-1.5-0.4-2.3-0.4
				c-1.6,0-2.8,0.4-3.8,1.3c-1,0.9-1.4,1.9-1.4,3.3c0,1.3,0.5,2.4,1.4,3.2c1,0.9,2.1,1.3,3.6,1.3c0.9,0,1.7-0.1,2.5-0.4
				c0.8-0.3,1.5-0.7,2.2-1.2l0.5-0.3v3.1l-0.1,0.1c-0.7,0.4-1.4,0.7-2.2,0.9C409,314.4,408.2,314.5,407.2,314.5z M407.2,300.9
				c-1.1,0-2.1,0.2-3,0.5c-0.9,0.3-1.8,0.8-2.5,1.4c-0.7,0.6-1.3,1.3-1.6,2.1c-0.4,0.8-0.6,1.7-0.6,2.6c0,0.9,0.2,1.8,0.6,2.6
				c0.4,0.8,0.9,1.5,1.6,2.1c0.7,0.6,1.5,1.1,2.5,1.4c0.9,0.3,2,0.5,3.1,0.5c0.9,0,1.7-0.1,2.4-0.3c0.7-0.2,1.3-0.4,1.9-0.8v-1.7
				c-0.6,0.4-1.3,0.7-1.9,0.9c-0.8,0.3-1.7,0.4-2.6,0.4c-1.6,0-2.9-0.5-4-1.4c-1.1-1-1.6-2.2-1.6-3.7c0-1.5,0.5-2.8,1.6-3.7
				c1.1-1,2.5-1.4,4.2-1.4c0.9,0,1.7,0.1,2.5,0.4c0.6,0.2,1.2,0.5,1.8,0.9l0.1-1.4c-0.7-0.4-1.4-0.7-2.1-0.9
				C408.9,301,408.1,300.9,407.2,300.9z"/>
		</g>
		<g>
			<path class="st1" d="M416.4,313.8v-12.9h8.4v1.8h-5.9v3.2h5.9v1.8h-5.9v4.2h5.9v1.9L416.4,313.8L416.4,313.8z"/>
			<path class="st1" d="M425.1,314.1h-8.9v-13.5h8.9v2.4h-5.9v2.7h5.9v2.4h-5.9v3.6h5.9V314.1z M416.7,301.2v12.4l7.8,0v-1.3h-5.9
				v-4.8h5.9v-1.3h-5.9v-3.8h5.9v-1.2H416.7z"/>
		</g>
		<g>
			<path class="st1" d="M428.2,311.3l1.9-0.8c0.2,0.6,0.5,1,1,1.3c0.5,0.3,1.1,0.5,1.9,0.5c0.7,0,1.3-0.2,1.7-0.5
				c0.4-0.4,0.6-0.8,0.6-1.4c0-0.8-0.7-1.4-2.2-2c-0.2-0.1-0.4-0.2-0.5-0.2c-1.6-0.7-2.8-1.3-3.3-1.9c-0.5-0.6-0.8-1.2-0.8-2.1
				c0-1.1,0.4-1.9,1.2-2.6c0.8-0.6,1.9-1,3.3-1c1.1,0,2,0.2,2.8,0.6c0.8,0.4,1.3,0.9,1.6,1.6l-1.9,0.8c-0.3-0.4-0.6-0.7-1-0.9
				c-0.4-0.2-0.8-0.3-1.2-0.3c-0.7,0-1.2,0.1-1.6,0.4c-0.4,0.3-0.6,0.7-0.6,1.2c0,0.8,0.9,1.5,2.5,2.2c0.1,0.1,0.2,0.1,0.3,0.1
				c1.5,0.6,2.5,1.2,3.1,1.7c0.6,0.6,0.8,1.3,0.8,2.1c0,1.2-0.4,2.2-1.3,2.9c-0.9,0.7-2.1,1.1-3.6,1.1c-1.3,0-2.3-0.3-3.1-0.8
				C429,312.9,428.4,312.2,428.2,311.3z"/>
			<path class="st1" d="M432.9,314.5c-1.3,0-2.4-0.3-3.3-0.8c-0.9-0.5-1.5-1.3-1.7-2.3l-0.1-0.2l2.5-1l0.1,0.3
				c0.2,0.5,0.5,0.9,0.9,1.2c0.5,0.3,1,0.4,1.7,0.4c0.7,0,1.2-0.1,1.6-0.5c0.4-0.3,0.5-0.7,0.5-1.2c0-0.6-0.7-1.2-2-1.8
				c-0.2-0.1-0.4-0.2-0.5-0.2c-1.7-0.7-2.8-1.4-3.4-2c-0.6-0.6-0.9-1.4-0.9-2.3c0-1.2,0.5-2.1,1.4-2.8c0.9-0.7,2-1,3.4-1
				c1.1,0,2.1,0.2,2.9,0.6c0.8,0.4,1.4,1,1.7,1.7l0.1,0.3l-2.4,1l-0.1-0.2c-0.3-0.4-0.6-0.6-0.9-0.8c-0.3-0.2-0.7-0.3-1.1-0.3
				c-0.6,0-1.1,0.1-1.4,0.4c-0.3,0.2-0.5,0.5-0.5,0.9c0,0.6,0.8,1.3,2.4,1.9l0.3,0.1c1.5,0.6,2.6,1.2,3.2,1.8
				c0.6,0.6,0.9,1.4,0.9,2.3c0,1.3-0.5,2.4-1.5,3.1C435.8,314.1,434.5,314.5,432.9,314.5z M428.5,311.4c0.3,0.8,0.7,1.3,1.4,1.8
				c0.8,0.5,1.8,0.7,3,0.7c1.5,0,2.6-0.3,3.5-1c0.8-0.7,1.2-1.5,1.2-2.7c0-0.8-0.2-1.4-0.8-1.9c-0.5-0.5-1.5-1.1-3-1.7l-0.3-0.1
				c-1.8-0.7-2.7-1.5-2.7-2.4c0-0.6,0.2-1.1,0.7-1.4c0.5-0.3,1-0.5,1.7-0.5c0.5,0,1,0.1,1.4,0.3c0.3,0.2,0.6,0.4,0.9,0.8l1.4-0.6
				c-0.3-0.5-0.7-0.9-1.3-1.2c-0.7-0.4-1.6-0.5-2.7-0.5c-1.3,0-2.3,0.3-3.1,0.9c-0.8,0.6-1.1,1.4-1.1,2.3c0,0.7,0.2,1.4,0.7,1.9
				c0.5,0.5,1.6,1.1,3.2,1.8c0.1,0,0.3,0.1,0.5,0.2c1.6,0.7,2.4,1.4,2.4,2.3c0,0.7-0.2,1.2-0.7,1.6c-0.5,0.4-1.1,0.6-1.9,0.6
				c-0.8,0-1.5-0.2-2-0.5c-0.5-0.3-0.8-0.7-1-1.2L428.5,311.4z"/>
		</g>
	</g>
	<g>
		<g>
			<rect x="79.3" y="235.5" class="st4" width="19.3" height="19.3"/>
			<path class="st4" d="M99.3,255.6H78.4v-20.9h20.9V255.6z M80.1,253.9h17.6v-17.6H80.1V253.9z"/>
		</g>
		<g>
			<rect x="110.4" y="235.5" class="st4" width="19.3" height="19.3"/>
			<path class="st4" d="M130.5,255.6h-20.9v-20.9h20.9V255.6z M111.2,253.9h17.6v-17.6h-17.6V253.9z"/>
		</g>
		<g>
			<rect x="141.5" y="235.5" class="st4" width="19.3" height="19.3"/>
			<path class="st4" d="M161.6,255.6h-20.9v-20.9h20.9V255.6z M142.4,253.9H160v-17.6h-17.6V253.9z"/>
		</g>
		<g>
			<rect x="79.3" y="266.3" class="st4" width="19.3" height="19.3"/>
			<path class="st4" d="M99.3,286.4H78.4v-20.9h20.9V286.4z M80.1,284.8h17.6v-17.6H80.1V284.8z"/>
		</g>
		<g>
			<rect x="110.4" y="266.3" class="st4" width="19.3" height="19.3"/>
			<path class="st4" d="M130.5,286.4h-20.9v-20.9h20.9V286.4z M111.2,284.8h17.6v-17.6h-17.6V284.8z"/>
		</g>
		<g>
			<rect x="141.5" y="266.3" class="st4" width="19.3" height="19.3"/>
			<path class="st4" d="M161.6,286.4h-20.9v-20.9h20.9V286.4z M142.4,284.8H160v-17.6h-17.6V284.8z"/>
		</g>
		<g>
			<rect x="79.3" y="297.1" class="st4" width="19.3" height="19.3"/>
			<path class="st4" d="M99.3,317.2H78.4v-20.9h20.9V317.2z M80.1,315.6h17.6V298H80.1V315.6z"/>
		</g>
		<g>
			<rect x="110.4" y="297.1" class="st4" width="19.3" height="19.3"/>
			<path class="st4" d="M130.5,317.2h-20.9v-20.9h20.9V317.2z M111.2,315.6h17.6V298h-17.6V315.6z"/>
		</g>
		<g>
			<rect x="141.5" y="297.1" class="st4" width="19.3" height="19.3"/>
			<path class="st4" d="M161.6,317.2h-20.9v-20.9h20.9V317.2z M142.4,315.6H160V298h-17.6V315.6z"/>
		</g>
		<g>
			<path d="M160.8,234h-19.3H140v1.6v19.3v1.6h1.6h19.3h1.6v-1.6v-19.3V234L160.8,234L160.8,234z M159.2,237.1v16.1h-16.1v-16.1
				H159.2z"/>
			<path d="M141.6,264.8H140v1.6v19.3v1.6h1.6h19.3h1.6v-1.6v-19.3v-1.6h-1.6H141.6z M159.2,268V284h-16.1V268H159.2z"/>
			<path d="M141.6,295.6H140v1.6v19.3v1.6h1.6h19.3h1.6v-1.6v-19.3v-1.6h-1.6H141.6z M159.2,298.8v16.1h-16.1v-16.1H159.2z"/>
			<path d="M110.4,234h-1.6v1.6v19.3v1.6h1.6h19.3h1.6v-1.6v-19.3V234h-1.6L110.4,234L110.4,234z M128.1,237.1v16.1H112v-16.1H128.1
				z"/>
			<path d="M110.4,264.8h-1.6v1.6v19.3v1.6h1.6h19.3h1.6v-1.6v-19.3v-1.6h-1.6H110.4z M128.1,268V284H112V268H128.1z"/>
			<path d="M110.4,295.6h-1.6v1.6v19.3v1.6h1.6h19.3h1.6v-1.6v-19.3v-1.6h-1.6H110.4z M128.1,298.8v16.1H112v-16.1H128.1z"/>
			<path d="M79.3,234h-1.6v1.6v19.3v1.6h1.6h19.3h1.6v-1.6v-19.3V234h-1.6L79.3,234L79.3,234z M97,237.1v16.1H80.9v-16.1H97z"/>
			<path d="M79.3,264.8h-1.6v1.6v19.3v1.6h1.6h19.3h1.6v-1.6v-19.3v-1.6h-1.6H79.3z M97,268V284H80.9V268H97z"/>
			<path d="M79.3,295.6h-1.6v1.6v19.3v1.6h1.6h19.3h1.6v-1.6v-19.3v-1.6h-1.6H79.3z M97,298.8v16.1H80.9v-16.1H97z"/>
		</g>
		<path d="M69.7,198.7c-0.3-0.5-0.8-0.8-1.4-0.8h-8.7v3.2h5.9l-4.2,6.8c-0.3,0.5-0.3,1-0.1,1.5l2.6,5.4v15.8H67v-16.1
			c0-0.2-0.1-0.5-0.2-0.7l-2.4-4.9l5.2-8.5C70,199.8,70,199.2,69.7,198.7z"/>
		<path d="M90.7,194.4c-6.8-6.8-15.9-10.6-25.5-10.6C45.2,183.8,29,200,29,219.9c0,10.9,5.1,21.3,13.5,28.1v47.5
			c0,6,2.4,11.7,6.6,15.9c4.3,4.3,9.9,6.6,15.9,6.6c2,0,3.9-0.3,5.8-0.8l-1.6-6.1c-1.4,0.4-2.8,0.5-4.2,0.5c-4.3,0-8.4-1.7-11.5-4.7
			c-3.1-3.1-4.7-7.1-4.7-11.5v-48.7c0-0.3-0.1-0.7-0.2-1l-0.2-0.5c-0.2-0.6-0.6-1.2-1.1-1.6c-7.6-5.6-12.1-14.6-12.1-24
			c0-8,3.1-15.4,8.7-21.1c5.6-5.6,13.1-8.7,21.1-8.7c8,0,15.4,3.1,21.1,8.7c5.6,5.6,8.7,13.1,8.7,21.1c0,1.8-0.2,3.7-0.5,5.5
			l6.2,1.2c0.4-2.2,0.6-4.4,0.6-6.6C101.3,210.3,97.5,201.2,90.7,194.4z"/>
	</g>
	<g>
		<g>
			<path d="M225.9,249.6v19.3c0,3.7-0.1,4.6-0.8,6.7c-0.6,1.8-1.6,3.5-3.1,4.8c-2.7,2.4-6.4,3.6-10.7,3.6c-6.9,0-12.2-3.1-13.8-8.3
				c-0.7-2.1-0.8-3.1-0.8-6.8v-19.2h4.9v19.3c0,4.5,0.4,6.3,2.1,8c1.8,1.9,4.4,2.8,7.5,2.8c4.9,0,8.7-2.5,9.4-6.2
				c0.2-0.9,0.3-3,0.3-4.6v-19.3H225.9z"/>
			<path d="M211.4,284.5c-7.1,0-12.6-3.3-14.4-8.7c-0.7-2.2-0.8-3.2-0.8-7V249h6v19.8c0,4.4,0.4,6,2,7.6c1.7,1.8,4.1,2.7,7.1,2.7
				c4.6,0,8.2-2.3,8.8-5.7c0.2-0.8,0.3-2.9,0.3-4.5V249h6v19.8c0,3.8-0.2,4.7-0.8,6.8c-0.6,2-1.7,3.7-3.2,5
				C219.6,283.2,215.9,284.5,211.4,284.5z M197.3,250.1v18.6c0,3.7,0.1,4.6,0.8,6.6c1.5,4.9,6.6,7.9,13.3,7.9
				c4.2,0,7.7-1.2,10.3-3.5c1.4-1.2,2.3-2.7,2.9-4.5c0.6-2,0.8-2.8,0.8-6.5v-18.7h-3.7v18.7c0,1.7-0.2,3.8-0.4,4.7
				c-0.7,4-4.7,6.7-9.9,6.7c-3.3,0-6-1-8-3c-1.8-1.8-2.3-3.7-2.3-8.4v-18.7H197.3z"/>
		</g>
		<g>
			<path d="M262.3,249.6v33.9h-4.2l-22.6-26.1v26.1H231v-33.9h3.9l22.8,26.3v-26.3H262.3z"/>
			<path d="M262.9,284.1h-5l-0.2-0.2l-21.6-25v25.2h-5.7V249h4.8l22,25.3V249h5.8V284.1z M258.4,282.9h3.3v-32.8h-3.5v27.3
				l-23.7-27.3h-3.1v32.8h3.4v-27.1L258.4,282.9z"/>
		</g>
		<g>
			<path d="M274.2,249.6v33.9h-4.9v-33.9H274.2z"/>
			<path d="M274.8,284.1h-6V249h6V284.1z M269.9,282.9h3.7v-32.8h-3.7V282.9z"/>
		</g>
		<g>
			<path d="M400.5,249.6v33.9h-4.2l-22.6-26.1v26.1h-4.6v-33.9h3.9l22.8,26.3v-26.3H400.5z"/>
			<path d="M401.1,284.1h-5l-0.2-0.2l-21.6-25v25.2h-5.7V249h4.8l0.2,0.2l21.8,25.1V249h5.8V284.1z M396.6,282.9h3.3v-32.8h-3.5
				v27.3l-23.7-27.3h-3.1v32.8h3.4v-27.1L396.6,282.9z"/>
		</g>
		<g>
			<path d="M412.4,249.6v33.9h-4.9v-33.9H412.4z"/>
			<path d="M413,284.1h-6V249h6V284.1z M408.1,282.9h3.7v-32.8h-3.7V282.9z"/>
		</g>
		<g>
			<path d="M306.5,249.5v4.3h-11.8v29.7h-4.9v-29.7h-11.6v-4.3H306.5z"/>
			<path d="M295.2,284.1h-6v-29.7h-11.6v-5.5H307v5.5h-11.8V284.1z M290.4,282.9h3.7v-29.7h11.8v-3.2h-27.1v3.2h11.6V282.9z"/>
		</g>
		<g>
			<path d="M330.4,249.6v4.3H316v10.4h13.9v4.3H316v10.5h14.8v4.3h-19.7v-33.9H330.4z"/>
			<path d="M331.4,284h-20.8v-35h20.4v5.5h-14.3v9.2h13.8v5.5h-13.8v9.4h14.8V284z M311.7,282.9h18.5v-3.2h-14.8V268h13.8v-3.2
				h-13.8v-11.5h14.3v-3.2h-18V282.9z"/>
		</g>
		<g>
			<path d="M364.3,281c-3.7,2-7.7,2.9-12.3,2.9c-4.9,0-8.7-1.2-12-3.9c-4-3.3-6.2-8.2-6.2-13.3c0-9.9,7.9-17.5,18.3-17.5
				c3.7,0,7.2,0.8,11.9,2.8v5.2c-4.1-2.3-7.7-3.4-11.6-3.4c-7.7,0-13.5,5.5-13.5,12.9c0,7.5,5.6,12.8,13.4,12.8
				c4.1,0,8.1-1.3,12-3.8L364.3,281L364.3,281z"/>
			<path d="M352,284.5c-5.1,0-9-1.3-12.3-4.1c-4.1-3.4-6.4-8.4-6.4-13.8c0-10.1,8.3-18.1,18.8-18.1c3.9,0,7.4,0.8,12.1,2.8l0.4,0.1
				v6.6l-0.9-0.5c-4-2.3-7.5-3.3-11.3-3.3c-7.5,0-12.9,5.2-12.9,12.3c0,7.2,5.3,12.2,12.9,12.2c4,0,7.9-1.2,11.7-3.7l0.9-0.6v6.7
				l-0.3,0.2C360.8,283.5,356.8,284.5,352,284.5z M352.1,249.7c-9.9,0-17.7,7.4-17.7,16.9c0,5,2.2,9.7,6,12.9
				c3.1,2.6,6.7,3.8,11.6,3.8c4.5,0,8.2-0.9,11.7-2.7l0-3.9c-3.7,2.2-7.6,3.3-11.4,3.3c-8.1,0-14-5.6-14-13.4
				c0-7.7,6.1-13.5,14.1-13.5c3.7,0,7.2,1,11,3v-3.9C359,250.5,355.7,249.7,352.1,249.7z"/>
		</g>
		<g>
			<path d="M447.6,281c-3.7,2-7.7,2.9-12.3,2.9c-4.9,0-8.7-1.2-12-3.9c-4-3.3-6.2-8.2-6.2-13.3c0-9.9,8-17.5,18.3-17.5
				c3.7,0,7.2,0.8,11.9,2.8v5.2c-4.1-2.3-7.7-3.4-11.6-3.4c-7.7,0-13.5,5.5-13.5,12.9c0,7.5,5.6,12.8,13.4,12.8
				c4.1,0,8.1-1.3,12-3.8L447.6,281L447.6,281z"/>
			<path d="M435.3,284.5c-5.1,0-9-1.3-12.3-4.1c-4.1-3.4-6.4-8.4-6.4-13.8c0-10.1,8.3-18.1,18.8-18.1c3.9,0,7.4,0.8,12.1,2.8
				l0.4,0.1v6.6l-0.9-0.5c-4-2.3-7.5-3.3-11.3-3.3c-7.5,0-12.9,5.2-12.9,12.3c0,7.2,5.3,12.2,12.9,12.2c4,0,7.9-1.2,11.7-3.7
				l0.9-0.6v6.7l-0.3,0.2C444.1,283.5,440.1,284.5,435.3,284.5z M435.4,249.7c-9.9,0-17.7,7.4-17.7,16.9c0,5,2.2,9.7,6,12.9
				c3.1,2.6,6.7,3.8,11.6,3.8c4.5,0,8.2-0.9,11.7-2.7l0-3.9c-3.7,2.2-7.6,3.3-11.4,3.3c-8.1,0-14-5.6-14-13.4
				c0-7.7,6-13.5,14.1-13.5c3.7,0,7.2,0.9,11,3v-3.9C442.3,250.5,439,249.7,435.4,249.7z"/>
		</g>
	</g>
</g>
</svg>
