<?xml version="1.0" encoding="utf-8"?>
<!-- Generator: Adobe Illustrator 19.1.0, SVG Export Plug-In . SVG Version: 6.00 Build 0)  -->
<svg version="1.1" id="Calque_1" xmlns="http://www.w3.org/2000/svg" xmlns:xlink="http://www.w3.org/1999/xlink" x="0px" y="0px"
	 viewBox="-345 170.9 500 500" style="enable-background:new -345 170.9 500 500;" xml:space="preserve">
<style type="text/css">
	.st0{fill:#666666;}
	.st1{fill:#4A83A3;}
	.st2{fill:#5A9DBA;}
	.st3{fill:#72B6CE;}
</style>
<path class="st0" d="M-72.6,429.2c0,2-2.1,13.8-14.9,14.4v0h-35.4c-12.3-0.9-14.3-12.4-14.3-14.4l-0.1-42.6h-21.4l0,34.1
	c0,0,0,9.1,0,12.7c0,3.6,3.9,25.3,28.4,25.6v0.1h42.9V459c22.1-0.6,25.7-20.8,25.7-24.2c0-1.4,0-48.6,0-48.6h-10.7
	C-72.5,386.3-72.6,427.1-72.6,429.2z"/>
<path class="st0" d="M-44.6,410.4c0,27.5,0,49.6,0,49.6h22.1v-49c0-10.9,9.4-14.9,11.6-14.9h41.3v-9.2H-9.6
	C-9.6,386.9-44.6,384.8-44.6,410.4z"/>
<path class="st0" d="M103.1,386.9H90.2v0H47.3v9.1h15.8v0.1h41.3C106.6,396,116,400,116,411v0.8h-10.6c-0.8-0.1-1.6-0.1-2.4-0.1
	H60.7c-12.1,0-21.9,9.8-21.9,21.9v4.6c0,12.1,9.8,21.9,21.9,21.9H103c0.9,0,1.8-0.1,2.7-0.2H116v0.2h22.1c0,0,0-22.1,0-49.6
	C138.1,384.8,103.1,386.9,103.1,386.9z M116.4,443.5H67.9c-6.3,0-11.4-5-11.4-11.1s5.1-11.1,11.4-11.1h48.4V443.5z"/>
<path class="st0" d="M-264.2,376l-8.2-18.1l-27,11.7l8.4,18.5c3.4,7.4,12.1,10.7,19.5,7.3C-264.2,392.2-260.9,383.4-264.2,376z"/>
<path class="st1" d="M-229.6,387.6l7.4-18.4l-27.2-11.5l-7.6,18.9c-3,7.5,0.6,16.1,8.2,19.2C-241.3,398.8-232.7,395.2-229.6,387.6z"
	/>
<path class="st2" d="M-214.2,419.7l18.3-7.7l-11-27.3l-18.7,7.9c-7.5,3.2-11,11.8-7.8,19.3C-230.3,419.4-221.6,422.9-214.2,419.7z"
	/>
<path class="st3" d="M-226.2,453.6l18.3,7.6l11.8-27l-18.8-7.8c-7.5-3.1-16.1,0.4-19.3,7.9C-237.3,441.8-233.7,450.4-226.2,453.6z"
	/>
<path class="st0" d="M-257.8,468.6l7.8,18.2l27.3-11.1l-8-18.7c-3.2-7.5-11.8-11-19.3-7.8C-257.5,452.5-261,461.1-257.8,468.6z"/>
<path class="st0" d="M-291.1,457.2l-7.3,18.4l27.2,11.3l7.5-18.9c3-7.6-0.7-16.1-8.3-19.1C-279.6,445.9-288.1,449.6-291.1,457.2z"/>
<path class="st0" d="M-306.7,426.1l-18,8.2l11.7,27l18.5-8.4c7.4-3.4,10.7-12.1,7.3-19.5C-290.6,426-299.3,422.7-306.7,426.1z"/>
<path class="st0" d="M-295.7,392.1l-18.5-7.1l-11,27.4l19,7.2c7.6,2.9,16.1-0.9,19-8.5C-284.3,403.5-288.1,395-295.7,392.1z"/>
</svg>
