<?xml version="1.0" encoding="utf-8"?>
<!-- Generator: Adobe Illustrator 19.1.0, SVG Export Plug-In . SVG Version: 6.00 Build 0)  -->
<svg version="1.1" id="Calque_1" xmlns="http://www.w3.org/2000/svg" xmlns:xlink="http://www.w3.org/1999/xlink" x="0px" y="0px"
	 viewBox="0 0 500 500" style="enable-background:new 0 0 500 500;" xml:space="preserve">
<style type="text/css">
	.st0{fill:#03A643;}
</style>
<g>
	<path class="st0" d="M63.4,212.7h27.4v33.2c0,3.3-0.7,6.4-2,9.3c-1.3,2.9-3.4,5.5-6.2,7.7c-2.8,2.2-5.8,3.7-8.9,4.6
		c-4.3,1.2-9.5,1.9-15.6,1.9c-3.5,0-7.3-0.2-11.5-0.6c-4.1-0.4-7.6-1.1-10.4-2.3c-2.8-1.1-5.3-2.7-7.6-4.8c-2.3-2.1-3.9-4.2-4.7-6.4
		c-1.4-3.5-2.1-6.7-2.1-9.4v-33.2h26.8v30.5c0,3-0.3,9.4,7.7,9.4c7.2,0,7.1-6.3,7.1-9.4L63.4,212.7L63.4,212.7z"/>
	<path class="st0" d="M94.7,269.1v-56.5h35.9c23.3,0,28,13.9,28,18.7c0,13.4-11.8,15.3-15,15.9c2.6,0.7,21.1,21.9,21.1,21.9l-31.2,0
		c-1.5-2.2-12.2-18-12.2-18v18.1H94.7z M121.1,238h3.1c0.7,0,2.2-0.2,4.3-0.6c1.1-0.2,2-0.7,2.6-1.5c0.7-0.8,1-1.7,1-2.7
		c0-1.5-0.5-2.7-1.6-3.5c-1.1-0.8-3.1-1.2-6.1-1.2h-3.4V238z"/>
	<path class="st0" d="M165,212.9h40.1c6.7,0,11.8,1.3,15.4,4c3.6,2.7,5.4,6,5.4,10c0,3.3-1.3,7.2-3.8,9.6c-1.7,1.6-4.2,2.8-7.5,3.8
		c5,1,8.6,1.6,11,4c2.4,2.4,3.5,5.3,3.5,8.9c0,2.9-0.8,5.5-2.5,7.9c-1.7,2.3-4,4.2-6.9,5.5c-1.8,0.8-4.5,1.5-8.1,1.8
		c-4.8,0.5-8,0.8-9.6,0.8h-37L165,212.9L165,212.9z M189.9,234.3h5.8c2.1,0,3.5-0.3,4.3-1c0.8-0.7,1.2-1.6,1.2-2.9
		c0-1.2-0.4-2.1-1.2-2.8c-0.8-0.7-2.2-1-4.2-1h-5.9V234.3z M189.9,255.8h7.2c2.4,0,4.2-0.4,5.2-1.3c1-0.8,1.5-2,1.5-3.4
		c0-1.3-0.5-2.4-1.5-3.2c-1-0.8-2.7-1.2-5.2-1.2h-7.2L189.9,255.8L189.9,255.8z"/>
	<g>
		<polygon class="st0" points="263.7,269 293.1,269 290,259.8 266.9,259.8 		"/>
		<polygon class="st0" points="271.3,247.3 285.5,247.3 278.3,227 		"/>
		<polygon class="st0" points="260.5,212.5 296.1,212.5 327,268.5 327,212.5 229.2,212.5 229.2,269 229.4,269 		"/>
	</g>
	<path class="st0" d="M331.3,212.7h25.9l22.6,29.5v-29.5h25.8v56.5h-25.8L357,240.6v28.5h-25.7L331.3,212.7L331.3,212.7z"/>
	<path class="st0" d="M400.4,212.7h31.4l8.8,15.2l8.5-15.2h31.6l-27.1,32.8v23.6h-26.1v-23.6L400.4,212.7z"/>
	<g>
		<path class="st0" d="M249,279.7c0-1.1-1.5-1.6-3.8-1.6c-1,0-1.7,0.1-2.1,0.1v3.2h2.2C247.5,281.4,249,280.8,249,279.7z"/>
		<path class="st0" d="M207.5,278.1c-0.9,0-1.6,0.1-2,0.1v3.4c0.5,0.1,1.1,0.1,1.8,0.1c2.6,0,4.1-0.7,4.1-1.9
			C211.4,278.7,209.8,278.1,207.5,278.1z"/>
		<path class="st0" d="M285.3,278.1c-3.6,0-5.3,1.8-5.3,3.7c0,1.9,1.9,3.6,5.3,3.6h0c3.4,0,5.3-1.7,5.3-3.7
			C290.6,279.9,288.9,278.1,285.3,278.1z"/>
		<path class="st0" d="M21.6,273.5v17H481v-17H21.6z M36.6,285.3c1.3,0,2.7-0.1,3.5-0.4l0.4,0.9c-0.8,0.2-2.4,0.4-4.4,0.4
			c-4.7,0-8.1-1.6-8.1-4.5c0-2.8,3.5-4.6,8.6-4.6c2,0,3.4,0.2,3.9,0.4l-0.5,0.9c-0.8-0.2-1.9-0.4-3.3-0.4c-3.9,0-6.5,1.3-6.5,3.6
			C30.2,283.9,32.6,285.3,36.6,285.3z M69.9,286.1h-2.2v-8.8h2.2V286.1z M108.5,278.3h-5.1v7.9h-2.2v-7.9h-5v-1h12.2L108.5,278.3
			L108.5,278.3z M141.6,282.4v3.8h-2.2v-3.7l-5.3-5.1h2.5l2.3,2.4c0.6,0.7,1.1,1.2,1.6,1.8h0c0.4-0.6,1-1.2,1.7-1.8l2.4-2.4h2.4
			L141.6,282.4z M212.2,281.7c-1.1,0.6-3,1-5.1,1c-0.6,0-1.2,0-1.7-0.1v3.5h-2.1v-8.7c1-0.1,2.4-0.2,4.1-0.2c2.1,0,3.7,0.3,4.6,0.7
			c0.9,0.4,1.5,1.1,1.5,1.8C213.5,280.6,213.1,281.2,212.2,281.7z M249.5,286.1c-0.3-0.2-0.6-1-1.1-2.1c-0.5-1.2-1.4-1.7-3.3-1.7h-2
			v3.8h-2.1v-8.7c1.1-0.1,2.6-0.2,4.1-0.2c2.3,0,3.8,0.2,4.8,0.7c0.8,0.4,1.3,1,1.3,1.7c0,1.2-1.4,1.9-3.1,2.2v0
			c1.3,0.2,2,0.9,2.4,1.8c0.5,1.2,0.9,2.1,1.3,2.4L249.5,286.1L249.5,286.1z M285.2,286.3L285.2,286.3c-4.4,0-7.5-1.8-7.5-4.5
			c0-2.8,3.2-4.6,7.7-4.6c4.5,0,7.5,1.8,7.5,4.5C292.9,284.6,289.4,286.3,285.2,286.3z M325.7,283.2c0,2.3-2.2,3.1-5,3.1
			c-0.8,0-1.8-0.1-2.3-0.2l0.3-0.9c0.4,0.1,1.1,0.2,1.8,0.2c1.9,0,3-0.5,3-2.2v-5.8h2.2L325.7,283.2L325.7,283.2z M363.1,286.1h-9.3
			v-8.8h9v1h-6.8v2.8h6.4v0.9h-6.4v3.2h7.2V286.1z M398,285.3c1.3,0,2.6-0.1,3.5-0.4l0.4,0.9c-0.8,0.2-2.4,0.4-4.4,0.4
			c-4.7,0-8.1-1.6-8.1-4.5c0-2.8,3.5-4.6,8.6-4.6c2,0,3.4,0.2,3.9,0.4l-0.5,0.9c-0.8-0.2-1.9-0.4-3.3-0.4c-3.9,0-6.5,1.3-6.5,3.6
			C391.7,283.9,394,285.3,398,285.3z M439.5,278.3h-5.1v7.9h-2.2v-7.9h-5v-1h12.2V278.3z M469.1,286.3c-1.6,0-3.3-0.3-4.2-0.6l0.6-1
			c1,0.3,2.3,0.6,3.8,0.6c2.2,0,3.5-0.6,3.5-1.5c0-0.8-0.9-1.3-3.1-1.7c-2.7-0.5-4.4-1.3-4.4-2.5c0-1.4,2.1-2.4,5.4-2.4
			c1.7,0,2.9,0.2,3.6,0.4l-0.6,0.9c-0.5-0.2-1.6-0.4-3.1-0.4c-2.3,0-3.1,0.7-3.1,1.3c0,0.8,1,1.2,3.3,1.7c2.8,0.6,4.2,1.3,4.2,2.6
			C474.9,285.1,473,286.3,469.1,286.3z"/>
	</g>
	<g>
		<path class="st0" d="M477.9,264.3c-1.4,0-2.4,0.8-2.4,2c0,0.5,0.2,1,0.4,1.3h-2.4v1.2h5.4c0.3,0,0.8,0,1.1,0l0.2,0v-1.1l-0.4,0
			c0.3-0.3,0.5-0.8,0.5-1.3C480.5,265.4,479.6,264.3,477.9,264.3z M479.4,266.6c0,0.5-0.3,0.8-0.8,1c-0.1,0-0.2,0-0.2,0h-0.8
			c-0.1,0-0.2,0-0.3,0c-0.5-0.1-0.8-0.5-0.8-1c0-0.8,0.8-1.1,1.4-1.1C478.9,265.5,479.4,266,479.4,266.6z"/>
		<path class="st0" d="M482.3,263.7c0-0.1-0.1-0.6-0.5-1.1c-0.5-0.6-1.4-1-2.8-1.5l-3.4-1.3v1.3l2.7,0.9c0.1,0,0.2,0.1,0.3,0.1
			c-0.1,0-0.2,0.1-0.3,0.1l-2.7,1v1.3l4.3-1.7c0.1,0,0.1,0,0.1,0c0,0,0.1,0,0.1,0c0.3,0.1,0.6,0.4,0.8,0.6c0.2,0.2,0.3,0.4,0.3,0.6
			l0.1,0.2l1-0.3L482.3,263.7z"/>
		<path class="st0" d="M480.4,253.9v-1.3l-6.4,2.2v1.2l6.4,2.2V257l-1.9-0.6v-1.8L480.4,253.9z M477.4,254.9v1.2l-1.5-0.5
			c-0.1,0-0.2-0.1-0.4-0.1c0.1,0,0.3-0.1,0.4-0.1L477.4,254.9z"/>
		<path class="st0" d="M478.8,249.5c1.1-0.2,1.4-0.3,1.5-0.4l0.1-0.1v-1.3l-0.3,0.1c-0.2,0.1-0.9,0.3-1.6,0.4
			c-0.5,0.1-0.9,0.3-1.2,0.7c-0.3-0.6-0.9-0.9-1.6-0.9c-0.5,0-1,0.2-1.3,0.5c-0.4,0.4-0.6,1-0.6,1.9c0,0.5,0.1,1.1,0.1,1.5l0,0.2
			h6.3v-1.2h-2.6v-0.5C477.8,249.9,478,249.7,478.8,249.5z M474.9,250.5c0-0.8,0.3-1.2,0.9-1.2c0.6,0,0.9,0.4,0.9,1.1v0.6h-1.8
			C474.9,250.9,474.9,250.8,474.9,250.5z"/>
		<path class="st0" d="M477.2,247.8c2,0,3.3-1.2,3.3-3.2c0-0.8-0.2-1.4-0.3-1.7l-0.1-0.1l-1,0.2l0.1,0.2c0.1,0.3,0.2,0.7,0.2,1.2
			c0,1.3-0.8,2.1-2.2,2.1c-1.4,0-2.3-0.8-2.3-2.1c0-0.4,0.1-0.8,0.2-1.1l0.1-0.2l-1-0.3l-0.1,0.2c-0.1,0.1-0.3,0.6-0.3,1.5
			C473.8,246.4,475.2,247.8,477.2,247.8z"/>
		<path class="st0" d="M477.2,242.8c1.9,0,3.3-1.2,3.3-2.9c0-1.5-1-3-3.4-3c-1.9,0-3.3,1.2-3.3,2.9
			C473.8,241.6,475.2,242.8,477.2,242.8z M474.9,239.9c0-1.2,1.2-1.7,2.2-1.7c1.1,0,2.3,0.5,2.3,1.7c0,1.1-1.1,1.7-2.2,1.7
			C476,241.6,474.9,241.1,474.9,239.9z"/>
	</g>
	<g>
		<g>
			<g>
				<path class="st0" d="M474.9,223.9c0.3-0.1,0.8-0.1,1.3-0.1c0.7,0,1.2,0.1,1.5,0.4c0.3,0.2,0.4,0.6,0.4,1c0,0.7-0.4,1.1-1,1.3v0
					c0.4,0.1,0.6,0.5,0.8,1c0.2,0.7,0.3,1.2,0.4,1.4h-0.7c-0.1-0.1-0.2-0.6-0.3-1.2c-0.2-0.7-0.4-1-1-1h-0.6v2.3h-0.7V223.9z
					 M475.5,226.3h0.7c0.7,0,1.2-0.4,1.2-1c0-0.7-0.5-1-1.2-1c-0.3,0-0.5,0-0.7,0.1L475.5,226.3L475.5,226.3z"/>
			</g>
		</g>
		<g>
			<path class="st0" d="M476.5,230.8c-2.4,0-4.3-1.9-4.3-4.3s1.9-4.3,4.3-4.3s4.3,1.9,4.3,4.3C480.8,228.8,478.9,230.8,476.5,230.8z
				 M476.5,222.7c-2,0-3.7,1.7-3.7,3.7c0,2,1.7,3.7,3.7,3.7s3.7-1.7,3.7-3.7C480.2,224.4,478.5,222.7,476.5,222.7z"/>
		</g>
	</g>
</g>
</svg>
