<?xml version="1.0" encoding="utf-8"?>
<!-- Generator: Adobe Illustrator 21.0.2, SVG Export Plug-In . SVG Version: 6.00 Build 0)  -->
<svg version="1.1" id="Calque_1" xmlns="http://www.w3.org/2000/svg" xmlns:xlink="http://www.w3.org/1999/xlink" x="0px" y="0px"
	 viewBox="0 0 500 146" style="enable-background:new 0 0 500 146;" xml:space="preserve">
<style type="text/css">
	.st0{fill:#03A643;}
</style>
<path class="st0" d="M63.4,35.7h27.4v33.2c0,3.3-0.7,6.4-2,9.3s-3.4,5.5-6.2,7.7c-2.8,2.2-5.8,3.7-8.9,4.6
	c-4.3,1.2-9.5,1.9-15.6,1.9c-3.5,0-7.3-0.2-11.5-0.6c-4.1-0.4-7.6-1.1-10.4-2.3c-2.8-1.1-5.3-2.7-7.6-4.8c-2.3-2.1-3.9-4.2-4.7-6.4
	c-1.4-3.5-2.1-6.7-2.1-9.4V35.7h26.8v30.5c0,3-0.3,9.4,7.7,9.4c7.2,0,7.1-6.3,7.1-9.4L63.4,35.7L63.4,35.7z"/>
<path class="st0" d="M94.7,92.1V35.6h35.9c23.3,0,28,13.9,28,18.7c0,13.4-11.8,15.3-15,15.9c2.6,0.7,21.1,21.9,21.1,21.9h-31.2
	c-1.5-2.2-12.2-18-12.2-18v18.1H94.7V92.1z M121.1,61h3.1c0.7,0,2.2-0.2,4.3-0.6c1.1-0.2,2-0.7,2.6-1.5c0.7-0.8,1-1.7,1-2.7
	c0-1.5-0.5-2.7-1.6-3.5s-3.1-1.2-6.1-1.2H121L121.1,61L121.1,61z"/>
<path class="st0" d="M165,35.9h40.1c6.7,0,11.8,1.3,15.4,4c3.6,2.7,5.4,6,5.4,10c0,3.3-1.3,7.2-3.8,9.6c-1.7,1.6-4.2,2.8-7.5,3.8
	c5,1,8.6,1.6,11,4s3.5,5.3,3.5,8.9c0,2.9-0.8,5.5-2.5,7.9c-1.7,2.3-4,4.2-6.9,5.5c-1.8,0.8-4.5,1.5-8.1,1.8c-4.8,0.5-8,0.8-9.6,0.8
	h-37L165,35.9L165,35.9z M189.9,57.3h5.8c2.1,0,3.5-0.3,4.3-1s1.2-1.6,1.2-2.9c0-1.2-0.4-2.1-1.2-2.8s-2.2-1-4.2-1h-5.9L189.9,57.3
	L189.9,57.3z M189.9,78.8h7.2c2.4,0,4.2-0.4,5.2-1.3c1-0.8,1.5-2,1.5-3.4c0-1.3-0.5-2.4-1.5-3.2s-2.7-1.2-5.2-1.2h-7.2V78.8
	L189.9,78.8z"/>
<polygon class="st0" points="263.7,92 293.1,92 290,82.8 266.9,82.8 "/>
<polygon class="st0" points="271.3,70.3 285.5,70.3 278.3,50 "/>
<polyline class="st0" points="229.2,35.5 229.2,92 229.4,92 260.5,35.5 "/>
<polyline class="st0" points="296.1,35.5 327,91.5 327,35.5 "/>
<path class="st0" d="M331.3,35.7h25.9l22.6,29.5V35.7h25.8v56.5h-25.8L357,63.6v28.5h-25.7V35.7L331.3,35.7z"/>
<path class="st0" d="M400.4,35.7h31.4l8.8,15.2l8.5-15.2h31.6l-27.1,32.8v23.6h-26.1V68.5L400.4,35.7z"/>
<path class="st0" d="M249,102.7c0-1.1-1.5-1.6-3.8-1.6c-1,0-1.7,0.1-2.1,0.1v3.2h2.2C247.5,104.4,249,103.8,249,102.7z"/>
<path class="st0" d="M207.5,101.1c-0.9,0-1.6,0.1-2,0.1v3.4c0.5,0.1,1.1,0.1,1.8,0.1c2.6,0,4.1-0.7,4.1-1.9
	C211.4,101.7,209.8,101.1,207.5,101.1z"/>
<path class="st0" d="M285.3,101.1c-3.6,0-5.3,1.8-5.3,3.7c0,1.9,1.9,3.6,5.3,3.6l0,0c3.4,0,5.3-1.7,5.3-3.7
	C290.6,102.9,288.9,101.1,285.3,101.1z"/>
<path class="st0" d="M21.6,96.5v17H481v-17H21.6z M36.6,108.3c1.3,0,2.7-0.1,3.5-0.4l0.4,0.9c-0.8,0.2-2.4,0.4-4.4,0.4
	c-4.7,0-8.1-1.6-8.1-4.5c0-2.8,3.5-4.6,8.6-4.6c2,0,3.4,0.2,3.9,0.4l-0.5,0.9c-0.8-0.2-1.9-0.4-3.3-0.4c-3.9,0-6.5,1.3-6.5,3.6
	S32.6,108.3,36.6,108.3z M69.9,109.1h-2.2v-8.8h2.2V109.1z M108.5,101.3h-5.1v7.9h-2.2v-7.9h-5v-1h12.2L108.5,101.3L108.5,101.3z
	 M141.6,105.4v3.8h-2.2v-3.7l-5.3-5.1h2.5l2.3,2.4c0.6,0.7,1.1,1.2,1.6,1.8l0,0c0.4-0.6,1-1.2,1.7-1.8l2.4-2.4h2.4L141.6,105.4z
	 M212.2,104.7c-1.1,0.6-3,1-5.1,1c-0.6,0-1.2,0-1.7-0.1v3.5h-2.1v-8.7c1-0.1,2.4-0.2,4.1-0.2c2.1,0,3.7,0.3,4.6,0.7
	c0.9,0.4,1.5,1.1,1.5,1.8C213.5,103.6,213.1,104.2,212.2,104.7z M249.5,109.1c-0.3-0.2-0.6-1-1.1-2.1c-0.5-1.2-1.4-1.7-3.3-1.7h-2
	v3.8H241v-8.7c1.1-0.1,2.6-0.2,4.1-0.2c2.3,0,3.8,0.2,4.8,0.7c0.8,0.4,1.3,1,1.3,1.7c0,1.2-1.4,1.9-3.1,2.2l0,0
	c1.3,0.2,2,0.9,2.4,1.8c0.5,1.2,0.9,2.1,1.3,2.4L249.5,109.1L249.5,109.1z M285.2,109.3L285.2,109.3c-4.4,0-7.5-1.8-7.5-4.5
	c0-2.8,3.2-4.6,7.7-4.6s7.5,1.8,7.5,4.5C292.9,107.6,289.4,109.3,285.2,109.3z M325.7,106.2c0,2.3-2.2,3.1-5,3.1
	c-0.8,0-1.8-0.1-2.3-0.2l0.3-0.9c0.4,0.1,1.1,0.2,1.8,0.2c1.9,0,3-0.5,3-2.2v-5.8h2.2V106.2L325.7,106.2z M363.1,109.1h-9.3v-8.8h9
	v1H356v2.8h6.4v0.9H356v3.2h7.2v0.9H363.1z M398,108.3c1.3,0,2.6-0.1,3.5-0.4l0.4,0.9c-0.8,0.2-2.4,0.4-4.4,0.4
	c-4.7,0-8.1-1.6-8.1-4.5c0-2.8,3.5-4.6,8.6-4.6c2,0,3.4,0.2,3.9,0.4l-0.5,0.9c-0.8-0.2-1.9-0.4-3.3-0.4c-3.9,0-6.5,1.3-6.5,3.6
	C391.7,106.9,394,108.3,398,108.3z M439.5,101.3h-5.1v7.9h-2.2v-7.9h-5v-1h12.2v1H439.5z M469.1,109.3c-1.6,0-3.3-0.3-4.2-0.6l0.6-1
	c1,0.3,2.3,0.6,3.8,0.6c2.2,0,3.5-0.6,3.5-1.5c0-0.8-0.9-1.3-3.1-1.7c-2.7-0.5-4.4-1.3-4.4-2.5c0-1.4,2.1-2.4,5.4-2.4
	c1.7,0,2.9,0.2,3.6,0.4l-0.6,0.9c-0.5-0.2-1.6-0.4-3.1-0.4c-2.3,0-3.1,0.7-3.1,1.3c0,0.8,1,1.2,3.3,1.7c2.8,0.6,4.2,1.3,4.2,2.6
	C474.9,108.1,473,109.3,469.1,109.3z"/>
<path class="st0" d="M477.9,87.3c-1.4,0-2.4,0.8-2.4,2c0,0.5,0.2,1,0.4,1.3h-2.4v1.2h5.4c0.3,0,0.8,0,1.1,0h0.2v-1.1h-0.4
	c0.3-0.3,0.5-0.8,0.5-1.3C480.5,88.4,479.6,87.3,477.9,87.3z M479.4,89.6c0,0.5-0.3,0.8-0.8,1c-0.1,0-0.2,0-0.2,0h-0.8
	c-0.1,0-0.2,0-0.3,0c-0.5-0.1-0.8-0.5-0.8-1c0-0.8,0.8-1.1,1.4-1.1C478.9,88.5,479.4,89,479.4,89.6z"/>
<path class="st0" d="M482.3,86.7c0-0.1-0.1-0.6-0.5-1.1c-0.5-0.6-1.4-1-2.8-1.5l-3.4-1.3v1.3l2.7,0.9c0.1,0,0.2,0.1,0.3,0.1
	c-0.1,0-0.2,0.1-0.3,0.1l-2.7,1v1.3l4.3-1.7c0.1,0,0.1,0,0.1,0h0.1c0.3,0.1,0.6,0.4,0.8,0.6c0.2,0.2,0.3,0.4,0.3,0.6l0.1,0.2l1-0.3
	V86.7z"/>
<path class="st0" d="M480.4,76.9v-1.3l-6.4,2.2V79l6.4,2.2V80l-1.9-0.6v-1.8L480.4,76.9z M477.4,77.9v1.2l-1.5-0.5
	c-0.1,0-0.2-0.1-0.4-0.1c0.1,0,0.3-0.1,0.4-0.1L477.4,77.9z"/>
<path class="st0" d="M478.8,72.5c1.1-0.2,1.4-0.3,1.5-0.4l0.1-0.1v-1.3l-0.3,0.1c-0.2,0.1-0.9,0.3-1.6,0.4c-0.5,0.1-0.9,0.3-1.2,0.7
	c-0.3-0.6-0.9-0.9-1.6-0.9c-0.5,0-1,0.2-1.3,0.5c-0.4,0.4-0.6,1-0.6,1.9c0,0.5,0.1,1.1,0.1,1.5v0.2h6.3v-1.2h-2.6v-0.5
	C477.8,72.9,478,72.7,478.8,72.5z M474.9,73.5c0-0.8,0.3-1.2,0.9-1.2s0.9,0.4,0.9,1.1V74h-1.8C474.9,73.9,474.9,73.8,474.9,73.5z"/>
<path class="st0" d="M477.2,70.8c2,0,3.3-1.2,3.3-3.2c0-0.8-0.2-1.4-0.3-1.7l-0.1-0.1l-1,0.2l0.1,0.2c0.1,0.3,0.2,0.7,0.2,1.2
	c0,1.3-0.8,2.1-2.2,2.1c-1.4,0-2.3-0.8-2.3-2.1c0-0.4,0.1-0.8,0.2-1.1l0.1-0.2l-1-0.3l-0.1,0.2c-0.1,0.1-0.3,0.6-0.3,1.5
	C473.8,69.4,475.2,70.8,477.2,70.8z"/>
<path class="st0" d="M477.2,65.8c1.9,0,3.3-1.2,3.3-2.9c0-1.5-1-3-3.4-3c-1.9,0-3.3,1.2-3.3,2.9C473.8,64.6,475.2,65.8,477.2,65.8z
	 M474.9,62.9c0-1.2,1.2-1.7,2.2-1.7c1.1,0,2.3,0.5,2.3,1.7c0,1.1-1.1,1.7-2.2,1.7C476,64.6,474.9,64.1,474.9,62.9z"/>
<path class="st0" d="M474.9,46.9c0.3-0.1,0.8-0.1,1.3-0.1c0.7,0,1.2,0.1,1.5,0.4c0.3,0.2,0.4,0.6,0.4,1c0,0.7-0.4,1.1-1,1.3l0,0
	c0.4,0.1,0.6,0.5,0.8,1c0.2,0.7,0.3,1.2,0.4,1.4h-0.7c-0.1-0.1-0.2-0.6-0.3-1.2c-0.2-0.7-0.4-1-1-1h-0.6V52H475L474.9,46.9
	L474.9,46.9z M475.5,49.3h0.7c0.7,0,1.2-0.4,1.2-1c0-0.7-0.5-1-1.2-1c-0.3,0-0.5,0-0.7,0.1V49.3L475.5,49.3z"/>
<path class="st0" d="M476.5,53.8c-2.4,0-4.3-1.9-4.3-4.3s1.9-4.3,4.3-4.3s4.3,1.9,4.3,4.3C480.8,51.8,478.9,53.8,476.5,53.8z
	 M476.5,45.7c-2,0-3.7,1.7-3.7,3.7s1.7,3.7,3.7,3.7s3.7-1.7,3.7-3.7S478.5,45.7,476.5,45.7z"/>
</svg>
