<?xml version="1.0" encoding="utf-8"?>
<!-- Generator: Adobe Illustrator 15.0.0, SVG Export Plug-In . SVG Version: 6.00 Build 0)  -->
<!DOCTYPE svg PUBLIC "-//W3C//DTD SVG 1.1//EN" "http://www.w3.org/Graphics/SVG/1.1/DTD/svg11.dtd">
<svg version="1.1" id="Calque_1" xmlns="http://www.w3.org/2000/svg" xmlns:xlink="http://www.w3.org/1999/xlink" x="0px" y="0px"
	 width="500px" height="500px" viewBox="0 0 500 500" enable-background="new 0 0 500 500" xml:space="preserve">
<g>
	<g>
		<path fill="#1D1D1B" d="M40.821,248.008c0,0,0,11.169,0,13.955c0,3.701,2.479,3.249,3.232,3.249
			c36.721,0,409.637,0.003,412.674,0.003c0,2.603,0,13.964,0,13.964h3.243v-13.921c0,0,0.559-3.283-3.295-3.283
			c-37.09,0-409.568-0.003-412.611-0.003c0-2.603,0-13.964,0-13.964H40.821z"/>
	</g>
	<path fill="#1D1D1B" d="M195.602,298.811l-13.561,35.731c-0.012-11.545-11.394-13.895-15.103-14.803
		c-12.745-3.29-15.166-3.759-15.172-7.698c0.006-4.276,4.136-5.766,7.695-5.763c5.349-0.003,9.685,1.559,10.053,7.678h10.818
		c-0.018-11.753-9.766-16.37-20.365-16.368c-9.087-0.008-18.755,4.872-19.002,14.988c-0.759-10.712-10.122-14.977-20.318-14.965
		c-9.161-0.003-18.996,4.995-18.984,15.379c0,9.559,7.62,12.463,15.171,14.455c7.477,1.996,15.103,2.916,15.092,8.396
		c0.006,5.196-5.971,6.332-9.881,6.347c-5.992,0.006-11.249-2.637-11.261-9.4h-10.691l-12.728-33.969H75.921l-19.267,50.849h11.307
		l3.98-11.318l19.035-0.006l3.842,11.324h11.595l-1.782-4.756c4.105,4.062,10.403,5.967,16.977,5.955
		c10.18,0.009,16.84-3.799,19.635-9.533c3.555,6.531,11.41,9.524,19.669,9.516c7.982,0,13.791-2.347,17.276-6.119l-1.863,4.926
		h11.324l3.985-11.358h19.024l3.854,11.376h11.611l-19.042-50.863H195.602z M74.851,330.008l6.626-18.648h0.149l6.412,18.654
		L74.851,330.008z M161.313,342.163c-5.97,0.011-11.237-2.632-11.261-9.375l-7.407-0.009c-1.11-9.998-11.485-12.148-14.999-13.029
		c-12.733-3.271-15.16-3.778-15.172-7.684c0.023-4.281,4.136-5.779,7.695-5.771c5.349,0.003,9.68,1.553,10.047,7.675h10.784
		c0.528,8.747,7.839,11.545,15.114,13.452c7.487,1.989,15.113,2.909,15.113,8.396C171.229,341.016,165.253,342.157,161.313,342.163z
		 M194.544,329.973l6.625-18.656h0.138l6.431,18.648L194.544,329.973z M316.284,322.02c4.423-2.143,6.901-5.64,6.925-10.625
		c-0.023-9.464-6.568-12.602-16.271-12.566l-23.925,0.002l0.018,47.07l-17.622-47.081h-11.484l-19.284,50.857h11.342l3.974-11.324
		h19.03l3.842,11.312l11.617-0.009l-0.011,0.009l23.257,0.009c9.18-0.023,17.933-4.463,17.938-14.786
		C325.624,328.547,322.484,323.785,316.284,322.02z M252.872,330.02l6.637-18.663h0.138l6.419,18.663H252.872z M294.205,307.478
		h10.462c3.979,0.009,7.694,1.001,7.712,5.84c-0.006,4.285-2.944,6.073-6.826,6.065l-11.342,0.002L294.205,307.478z
		 M306.197,340.955h-11.975l-0.012-13.958l12.188-0.003c4.768-0.006,8.051,2.067,8.039,7.267
		C314.438,339.534,310.591,340.955,306.197,340.955z M377.994,297.577c-15.729-0.009-24.994,11.735-24.978,26.843
		c0.006,5.936,1.542,11.37,4.383,15.765h-18.95l-0.012-41.362h-11.169v50.849h32.442v-6.444c4.279,4.71,10.496,7.609,18.317,7.601
		c15.735,0,24.989-11.753,24.972-26.421C403.012,309.301,393.734,297.554,377.994,297.577z M378.022,341.441
		c-10.047,0-13.813-8.547-13.825-17.021c-0.012-8.899,3.75-17.442,13.809-17.451c10.047,0,13.814,8.537,13.837,17.426
		C391.854,332.892,388.064,341.427,378.022,341.441z M431.463,298.819l-11.808,20.028l-11.905-20.028h-12.611l18.726,30.984v19.861
		h11.191l-0.006-19.58l18.876-31.271L431.463,298.819z"/>
	<path fill="#E53027" d="M93.14,169.913c0.926,1.581,3.071,4.747,7.264,4.747c4.198,0,25.23,0,25.23,0c2.3,0,3.221,2.841,1.88,5.294
		c-1.225,2.237-17.592,30.142-17.592,30.142c-1.415,2.151-3.842,2.493-5.223,0l-30.906-54.184l-18.984,19.137l27.829,48.879
		c1.915,2.99,3.963,4.575,7.259,4.713h14.418c3.301,0,5.09-1.973,7.183-5.093l24.534-42.291c1.186-2.194,3.877-5.139,1.11-10.427
		l-8.805-15.413c-1.604-2.789-3.704-4.043-7.942-4.043h-37.86L93.14,169.913z"/>
	<g>
		<path fill="#1D1D1B" d="M212.844,206.016c-4.388,0-7.982,0.021-11.014,1.053c-2.703,0.926-7.229,3.453-7.229,9.94
			c0,11.327,10.847,11.29,19.56,11.29h15.188v-22.143c0,0-0.012,0-0.022,0c-0.173-9.791-3.054-14.533-11.095-14.533
			c-2.996,0-15.625,0-18.736,0v6.797c4.611,0,15.223,0,16.614,0c4.337,0,6.108,2.583,6.062,7.595H212.844z M222.172,212.043
			c0,3.79,0,8.966,0,10.496c-1.356,0-7.131,0-7.131,0c-10.697,0-12.641-0.967-12.641-5.415c0-4.874,4.169-5.081,11.398-5.081
			H222.172z"/>
		<path fill="#1D1D1B" d="M243.135,209.93c0,3.913,1.461,11.565,8.989,11.565h14.643v6.766h-1.334h-12.342
			c-7.902,0-17.564-2.953-17.564-18.331c0-15.379,9.662-18.28,17.564-18.28h12.342h1.334v6.769h-14.643
			C244.596,198.418,243.135,206.016,243.135,209.93z"/>
		<path fill-rule="evenodd" clip-rule="evenodd" fill="#1D1D1B" d="M347.059,213.976v-5.604c0-9.757-6.436-16.365-17.645-16.365
			c-11.479,0-17.834,7.039-17.834,18.208c0,13.65,4.957,18.122,19.082,18.122h14.033v-6.1h-14.033
			c-6.971,0-10.295-1.469-10.984-5.639c-0.173-1.055-0.195-2.622-0.195-2.622H347.059z M329.633,198.205
			c8.534,0,9.523,4.621,9.656,9.579h-19.807C319.855,202.605,321.219,198.205,329.633,198.205z"/>
		<path fill-rule="evenodd" clip-rule="evenodd" fill="#1D1D1B" d="M442.476,213.976v-5.604c0-9.757-6.43-16.365-17.639-16.365
			c-11.479,0-17.822,7.039-17.822,18.208c0,13.65,4.946,18.122,19.076,18.122h14.027v-6.1h-14.027
			c-6.976,0-10.306-1.469-10.984-5.639c-0.173-1.055-0.19-2.622-0.19-2.622H442.476z M425.056,198.205
			c8.534,0,9.524,4.621,9.645,9.579h-19.784C415.279,202.605,416.642,198.205,425.056,198.205z"/>
		<path fill="#1D1D1B" d="M294.89,191.575c0,0-9.569,0-14.263,0v-17.299h-7.638v54.061h7.638v-29.998h12.089
			c3.991,0,6.344,1.895,6.344,6.576c0,4.676,0,23.422,0,23.422h6.763v-23.58C305.822,194.625,298.634,191.575,294.89,191.575z"/>
		<path fill="#1D1D1B" d="M354.362,218.576c0,5.86,4.095,9.76,10.663,9.76c3.221,0,4.589,0,8.391,0v-6.344c0,0-5.211,0-6.671,0
			c-2.928,0-4.785-1.852-4.785-4.586v-19.531h12.308v-6.372H361.96v-9.228h-7.598V218.576z"/>
		<path fill="#1D1D1B" d="M382.25,218.576c0,5.86,4.101,9.76,10.662,9.76c3.221,0,4.596,0,8.408,0v-6.344c0,0-5.222,0-6.688,0
			c-2.927,0-4.778-1.852-4.778-4.586v-19.531h12.307v-6.372h-12.307v-9.228h-7.604V218.576z"/>
		<path fill="#1D1D1B" d="M188.604,174.278l-15.086,43.077c-0.379,1.081-0.645,1.09-1.035,0.003l-15.436-43.08h-8.472l18.823,51.683
			c0.483,1.309,2.013,2.375,3.398,2.375h4.429c1.397,0,2.91-1.066,3.382-2.378l18.49-51.68H188.604z"/>
	</g>
	<path fill="#1D1D1B" d="M459.441,197.486c0,4.029-3.227,7.235-7.234,7.235c-4.025,0-7.27-3.206-7.27-7.235
		c0-3.991,3.244-7.237,7.27-7.237C456.215,190.249,459.441,193.496,459.441,197.486z M446.11,197.452
		c0,3.396,2.721,6.134,6.097,6.134c3.364,0,6.062-2.737,6.062-6.134c0-3.33-2.697-6.059-6.062-6.059
		C448.831,191.394,446.11,194.122,446.11,197.452z M455.812,201.55h-1.271l-2.317-3.552h-1.57v3.552h-1.145v-8.109h3.537
		c1.455,0,2.887,0.399,2.887,2.145c0,1.596-1.087,2.263-2.53,2.301L455.812,201.55z M450.654,197.029h2.128
		c1.628,0,2.013-0.664,2.013-1.461c0-1.066-1.127-1.158-1.979-1.158h-2.162V197.029z"/>
</g>
</svg>
