<?xml version="1.0" encoding="utf-8"?>
<!-- Generator: Adobe Illustrator 21.0.2, SVG Export Plug-In . SVG Version: 6.00 Build 0)  -->
<svg version="1.1" id="Calque_1" xmlns="http://www.w3.org/2000/svg" xmlns:xlink="http://www.w3.org/1999/xlink" x="0px" y="0px"
	 viewBox="0 0 500 254" style="enable-background:new 0 0 500 254;" xml:space="preserve">
<style type="text/css">
	.st0{fill:#1D1D1B;}
	.st1{fill:#E53027;}
</style>
<path class="st0" d="M40.8,123.9c0,0,0,11.2,0,14c0,3.7,2.5,3.2,3.2,3.2c36.7,0,409.6,0,412.7,0c0,2.6,0,14,0,14h3.2v-13.9
	c0,0,0.6-3.3-3.3-3.3c-37.1,0-409.6,0-412.6,0c0-2.6,0-14,0-14L40.8,123.9L40.8,123.9z"/>
<path class="st0" d="M378,173.5c-15.7,0-25,11.7-25,26.8c0,5.9,1.5,11.4,4.4,15.8h-19v-41.4h-11.2v50.8h32.4v-6.4
	c4.3,4.7,10.5,7.6,18.3,7.6c15.7,0,25-11.8,25-26.4C403,185.2,393.7,173.5,378,173.5z M378,217.3c-10,0-13.8-8.5-13.8-17
	c0-8.9,3.8-17.4,13.8-17.5c10,0,13.8,8.5,13.8,17.4C391.9,208.8,388.1,217.3,378,217.3z"/>
<polygon class="st0" points="431.5,174.8 419.7,194.8 407.8,174.8 395.2,174.8 413.9,205.8 413.9,225.6 425.1,225.6 425.1,206 
	444,174.8 "/>
<path class="st0" d="M195.6,174.8L182,210.5c0-11.5-11.4-13.9-15.1-14.8c-12.7-3.3-15.2-3.8-15.2-7.7c0-4.3,4.1-5.8,7.7-5.8
	c5.3,0,9.7,1.6,10.1,7.7h10.8c0-11.8-9.8-16.4-20.4-16.4c-9.1,0-18.8,4.9-19,15c-0.8-10.7-10.1-15-20.3-15c-9.2,0-19,5-19,15.4
	c0,9.6,7.6,12.5,15.2,14.5c7.5,2,15.1,2.9,15.1,8.4c0,5.2-6,6.3-9.9,6.3c-6,0-11.2-2.6-11.3-9.4H100l-12.7-34H75.9l-19.3,50.8H68
	l4-11.3h19l3.8,11.3h11.6l-1.8-4.8c4.1,4.1,10.4,6,17,6c10.2,0,16.8-3.8,19.6-9.5c3.6,6.5,11.4,9.5,19.7,9.5c8,0,13.8-2.3,17.3-6.1
	l-1.9,4.9h11.3l4-11.4h19l3.9,11.4h11.6l-19-50.9L195.6,174.8z M74.9,206l6.6-18.6h0.1L88,206H74.9z M161.3,218.2
	c-6,0-11.2-2.6-11.3-9.4h-7.4c-1.1-10-11.5-12.1-15-13c-12.7-3.3-15.2-3.8-15.2-7.7c0-4.3,4.1-5.8,7.7-5.8c5.3,0,9.7,1.6,10,7.7H141
	c0.5,8.7,7.8,11.5,15.1,13.5c7.5,2,15.1,2.9,15.1,8.4C171.2,217,165.3,218.2,161.3,218.2z M194.5,206l6.6-18.7h0.1l6.4,18.6
	L194.5,206z"/>
<path class="st0" d="M316.3,198c4.4-2.1,6.9-5.6,6.9-10.6c0-9.5-6.6-12.6-16.3-12.6H283v47.1l-17.6-47.1h-11.5l-19.3,50.9H246
	l4-11.3h19l3.8,11.3h11.6h23.3c9.2,0,17.9-4.5,17.9-14.8C325.6,204.5,322.5,199.8,316.3,198z M252.9,206l6.6-18.7h0.1L266,206H252.9
	z M304.7,183.5c4,0,7.7,1,7.7,5.8c0,4.3-2.9,6.1-6.8,6.1h-11.3l-0.1-11.9H304.7z M306.2,217h-12v-14h12.2c4.8,0,8.1,2.1,8,7.3
	C314.4,215.5,310.6,217,306.2,217z"/>
<path class="st1" d="M93.1,45.8c0.9,1.6,3.1,4.7,7.3,4.7c4.2,0,25.2,0,25.2,0c2.3,0,3.2,2.8,1.9,5.3c-1.2,2.2-17.6,30.1-17.6,30.1
	c-1.4,2.2-3.8,2.5-5.2,0L73.8,31.8l-19,19.1l27.8,48.9c1.9,3,4,4.6,7.3,4.7h14.4c3.3,0,5.1-2,7.2-5.1L136,57.1
	c1.2-2.2,3.9-5.1,1.1-10.4l-8.8-15.4c-1.6-2.8-3.7-4-7.9-4H82.5L93.1,45.8z"/>
<path class="st0" d="M212.8,81.9c-4.4,0-8,0-11,1.1c-2.7,0.9-7.2,3.5-7.2,9.9c0,11.3,10.8,11.3,19.6,11.3h15.2V82.1l0,0
	c-0.2-9.8-3.1-14.5-11.1-14.5c-3,0-15.6,0-18.7,0v6.8c4.6,0,15.2,0,16.6,0c4.3,0,6.1,2.6,6.1,7.6L212.8,81.9L212.8,81.9z
	 M222.2,87.9c0,3.8,0,9,0,10.5c-1.4,0-7.1,0-7.1,0c-10.7,0-12.6-1-12.6-5.4c0-4.9,4.2-5.1,11.4-5.1H222.2L222.2,87.9z"/>
<path class="st0" d="M243.1,85.8c0,3.9,1.5,11.6,9,11.6h14.6v6.8h-1.3h-12.3c-7.9,0-17.6-3-17.6-18.3c0-15.4,9.7-18.3,17.6-18.3
	h12.3h1.3v6.8h-14.6C244.6,74.3,243.1,81.9,243.1,85.8z"/>
<path class="st0" d="M347.1,89.9v-5.6c0-9.8-6.4-16.4-17.6-16.4c-11.5,0-17.8,7-17.8,18.2c0,13.6,5,18.1,19.1,18.1h14v-6.1h-14
	c-7,0-10.3-1.5-11-5.6c-0.2-1.1-0.2-2.6-0.2-2.6L347.1,89.9L347.1,89.9z M329.6,74.1c8.5,0,9.5,4.6,9.7,9.6h-19.8
	C319.9,78.6,321.2,74.1,329.6,74.1z"/>
<path class="st0" d="M442.5,89.9v-5.6c0-9.8-6.4-16.4-17.6-16.4c-11.5,0-17.8,7-17.8,18.2c0,13.6,4.9,18.1,19.1,18.1h14v-6.1h-14
	c-7,0-10.3-1.5-11-5.6c-0.2-1.1-0.2-2.6-0.2-2.6L442.5,89.9L442.5,89.9z M425.1,74.1c8.5,0,9.5,4.6,9.6,9.6h-19.8
	C415.3,78.6,416.6,74.1,425.1,74.1z"/>
<path class="st0" d="M294.9,67.6c0,0-9.6,0-14.3,0V50.2H273v54.1h7.6v-30h12.1c4,0,6.3,1.9,6.3,6.6c0,4.7,0,23.4,0,23.4h6.8V80.7
	C305.8,70.6,298.6,67.6,294.9,67.6z"/>
<path class="st0" d="M354.4,94.6c0,5.9,4.1,9.8,10.7,9.8c3.2,0,4.6,0,8.4,0v-6.4c0,0-5.2,0-6.7,0c-2.9,0-4.8-1.9-4.8-4.6V73.8h12.3
	v-6.4H362v-9.2h-7.6V94.6z"/>
<path class="st0" d="M382.2,94.6c0,5.9,4.1,9.8,10.7,9.8c3.2,0,4.6,0,8.4,0v-6.4c0,0-5.2,0-6.7,0c-2.9,0-4.8-1.9-4.8-4.6V73.8h12.3
	v-6.4h-12.3v-9.2h-7.6V94.6z"/>
<path class="st0" d="M188.6,50.2l-15.1,43.1c-0.4,1.1-0.6,1.1-1,0L157,50.2h-8.5l18.8,51.7c0.5,1.3,2,2.4,3.4,2.4h4.4
	c1.4,0,2.9-1.1,3.4-2.4L197,50.2H188.6L188.6,50.2z"/>
<path class="st0" d="M452.2,66.2c-4.1,0-7.3,3.2-7.3,7.2s3.3,7.2,7.3,7.2s7.2-3.2,7.2-7.2S456.2,66.1,452.2,66.2z M452.2,79.5
	c-3.4,0-6.1-2.7-6.1-6.1c0-3.4,2.7-6.1,6.1-6.1s6.1,2.8,6.1,6.1C458.3,76.8,455.6,79.5,452.2,79.5z"/>
<path class="st0" d="M455.9,71.5c0-1.7-1.4-2.1-2.9-2.1h-3.5v8.1h1.1V74h1.6l2.3,3.6h1.3l-2.4-3.7C454.8,73.8,455.9,73.2,455.9,71.5
	z M452.8,73h-2.1h-0.1v-2.7h2.2c0.9,0,2,0.1,2,1.2C454.8,72.2,454.4,73,452.8,73z"/>
</svg>
