<?xml version="1.0" encoding="utf-8"?>
<!-- Generator: Adobe Illustrator 15.0.0, SVG Export Plug-In . SVG Version: 6.00 Build 0)  -->
<!DOCTYPE svg PUBLIC "-//W3C//DTD SVG 1.1//EN" "http://www.w3.org/Graphics/SVG/1.1/DTD/svg11.dtd">
<svg version="1.1" id="Calque_1" xmlns="http://www.w3.org/2000/svg" xmlns:xlink="http://www.w3.org/1999/xlink" x="0px" y="0px"
	 width="500px" height="500px" viewBox="0 0 500 500" enable-background="new 0 0 500 500" xml:space="preserve">
<g>
	<g>
		<path fill="#38819B" d="M117.236,392.262h-13.793c-0.186,0-0.359,0.114-0.43,0.282l-24.421,57.857l-14.305-57.854
			c-0.042-0.17-0.197-0.285-0.383-0.285H49.785c-0.138,0-0.271,0.062-0.36,0.169c-0.09,0.106-0.124,0.244-0.09,0.369l19.635,74.238
			c0.044,0.166,0.198,0.279,0.382,0.279H84.45c0.183,0,0.354-0.111,0.427-0.277l32.718-74.238c0.055-0.125,0.046-0.263-0.026-0.369
			C117.498,392.325,117.374,392.262,117.236,392.262z"/>
		<path fill="#38819B" d="M168.031,412.548h-12.81c-0.252,0-0.474,0.195-0.493,0.437l-0.426,5.073
			c-4.593-4.63-10.054-6.977-16.248-6.977c-7.543,0-14.142,2.716-19.607,8.068c-5.452,5.339-8.556,12.1-9.226,20.097
			c-0.681,8.139,1.279,15.026,5.83,20.479c4.604,5.351,10.859,8.064,18.593,8.064c5.844,0,11.573-2.188,17.039-6.502l-0.381,4.546
			c-0.02,0.241,0.167,0.438,0.419,0.438h12.81c0.254,0,0.473-0.196,0.494-0.438l4.425-52.849
			C168.47,412.743,168.283,412.548,168.031,412.548z M136.561,456.01c-4.263,0-7.714-1.573-10.258-4.677
			c-2.49-3.086-3.542-7.152-3.13-12.087c0.386-4.609,2.146-8.53,5.225-11.648c3.103-3.07,6.816-4.627,11.044-4.627
			c4.489,0,8.058,1.539,10.606,4.57c2.562,3.122,3.656,7.151,3.251,11.976c-0.404,4.826-2.171,8.855-5.25,11.973
			C144.992,454.489,141.128,456.01,136.561,456.01z"/>
		<path fill="#38819B" d="M197.631,392.262h-12.382c-0.236,0-0.442,0.183-0.461,0.408l-6.216,74.238
			c-0.019,0.227,0.157,0.409,0.393,0.409h12.382c0.236,0,0.442-0.183,0.461-0.409l6.216-74.238
			C198.043,392.444,197.867,392.262,197.631,392.262z"/>
		<path fill="#38819B" d="M257.516,421.119c-2.101-2.946-4.889-5.347-8.287-7.133c-3.408-1.79-7.4-2.698-11.866-2.698
			c-4.244,0-8.172,0.783-11.676,2.327c-3.5,1.545-6.592,3.66-9.191,6.287c-2.598,2.627-4.71,5.715-6.279,9.178
			c-1.567,3.46-2.526,7.161-2.847,11.003c-0.351,4.18-0.066,8.072,0.847,11.565c0.914,3.504,2.479,6.562,4.649,9.088
			c2.174,2.529,4.963,4.522,8.29,5.925c3.325,1.401,7.269,2.112,11.72,2.112c3.061,0,6.078-0.408,8.967-1.214
			c2.883-0.803,5.568-2.013,7.979-3.596c2.406-1.581,4.545-3.557,6.353-5.874c1.81-2.321,3.187-4.992,4.095-7.94
			c0.036-0.12,0.016-0.246-0.057-0.343c-0.074-0.096-0.19-0.151-0.32-0.151h-11.729c-0.182,0-0.353,0.11-0.426,0.274
			c-1.293,2.886-3.086,5.074-5.331,6.507c-2.244,1.434-5.164,2.161-8.679,2.161c-2.535,0-4.702-0.424-6.443-1.261
			c-1.746-0.833-3.172-1.968-4.242-3.372c-1.074-1.408-1.841-3.076-2.277-4.955c-0.412-1.763-0.56-3.612-0.439-5.503h40.844
			c0.216,0,0.41-0.154,0.453-0.36c0.85-4.052,0.905-8.039,0.166-11.85C261.047,427.484,259.611,424.061,257.516,421.119z
			 M230.671,422.521c1.769-0.701,3.733-1.058,5.84-1.058c2.022,0,3.845,0.389,5.417,1.153c1.581,0.773,2.914,1.79,3.96,3.023
			c1.05,1.24,1.85,2.721,2.376,4.398c0.484,1.549,0.746,3.18,0.777,4.852h-27.98c0.259-1.791,0.802-3.487,1.618-5.048
			c0.878-1.68,1.998-3.16,3.326-4.4C227.33,424.207,228.9,423.225,230.671,422.521z"/>
		<path fill="#38819B" d="M302.751,411.288c-3.751,0-7.296,0.876-10.535,2.604c-2.92,1.559-5.435,3.673-7.487,6.294l0.589-7.032
			c0.019-0.227-0.156-0.409-0.393-0.409h-11.731c-0.236,0-0.443,0.183-0.462,0.409l-4.501,53.755
			c-0.02,0.227,0.157,0.409,0.393,0.409h12.383c0.236,0,0.442-0.183,0.461-0.409l2.655-31.713c0.158-1.884,0.63-3.691,1.403-5.373
			c0.772-1.677,1.782-3.155,3.005-4.394c1.217-1.231,2.675-2.211,4.334-2.91c1.657-0.7,3.527-1.055,5.559-1.055
			c3.548,0,6.104,0.915,7.597,2.719c1.51,1.825,2.173,4.835,1.971,8.935l-2.829,33.791c-0.02,0.227,0.156,0.409,0.393,0.409h12.383
			c0.236,0,0.442-0.183,0.461-0.409l3.091-36.91c0.519-6.191-0.925-10.912-4.289-14.029
			C313.847,412.863,308.986,411.288,302.751,411.288z"/>
		<path fill="#38819B" d="M366.22,412.744h-10.761l1.315-15.708c0.019-0.226-0.156-0.408-0.393-0.408h-12.383
			c-0.235,0-0.442,0.183-0.461,0.408l-1.315,15.708h-8.914c-0.236,0-0.443,0.183-0.461,0.409l-0.74,8.838
			c-0.02,0.227,0.157,0.409,0.393,0.409h8.914l-2.622,31.315c-0.116,2.226-0.045,4.245,0.213,6.002
			c0.262,1.798,0.938,3.315,2.009,4.508c1.072,1.193,2.63,2.104,4.63,2.709c1.974,0.6,4.641,0.903,7.926,0.903
			c1.374,0,2.747-0.071,4.084-0.211c1.313-0.14,2.664-0.277,4.052-0.417c0.218-0.021,0.397-0.196,0.415-0.406l0.767-9.148
			c0.01-0.126-0.041-0.245-0.138-0.322c-0.097-0.078-0.229-0.105-0.359-0.075c-0.854,0.2-1.713,0.318-2.553,0.353
			c-0.865,0.035-1.73,0.051-2.592,0.051c-1.316,0-2.346-0.147-3.062-0.438c-0.692-0.28-1.179-0.685-1.484-1.239
			c-0.315-0.565-0.49-1.279-0.523-2.12c-0.032-0.876,0.005-1.944,0.107-3.176l2.369-28.288h10.761c0.235,0,0.441-0.183,0.461-0.409
			l0.74-8.838C366.631,412.927,366.456,412.744,366.22,412.744z"/>
		<path fill="#38819B" d="M390.403,392.262h-12.382c-0.236,0-0.442,0.183-0.462,0.408l-0.939,11.229
			c-0.02,0.226,0.156,0.408,0.393,0.408h12.383c0.236,0,0.441-0.183,0.461-0.408l0.94-11.229
			C390.815,392.444,390.639,392.262,390.403,392.262z"/>
		<path fill="#38819B" d="M388.688,412.744h-12.382c-0.236,0-0.443,0.183-0.462,0.409l-4.501,53.755
			c-0.02,0.227,0.157,0.409,0.393,0.409h12.383c0.236,0,0.442-0.183,0.461-0.409l4.502-53.755
			C389.099,412.927,388.924,412.744,388.688,412.744z"/>
		<path fill="#38819B" d="M449.153,415.969c-3.353-3.105-8.214-4.681-14.448-4.681c-3.751,0-7.296,0.876-10.535,2.604
			c-2.92,1.559-5.435,3.673-7.487,6.294l0.589-7.032c0.02-0.227-0.156-0.409-0.393-0.409h-11.731c-0.236,0-0.443,0.183-0.462,0.409
			l-4.501,53.755c-0.02,0.227,0.156,0.409,0.393,0.409h12.383c0.236,0,0.442-0.183,0.461-0.409l2.655-31.713
			c0.158-1.884,0.63-3.691,1.403-5.373c0.772-1.677,1.782-3.155,3.005-4.394c1.217-1.231,2.675-2.211,4.334-2.91
			c1.657-0.7,3.527-1.055,5.558-1.055c3.549,0,6.104,0.915,7.598,2.719c1.51,1.825,2.173,4.835,1.971,8.935l-2.829,33.791
			c-0.02,0.227,0.156,0.409,0.393,0.409h12.383c0.236,0,0.442-0.183,0.461-0.409l3.091-36.91
			C453.96,423.807,452.517,419.086,449.153,415.969z"/>
	</g>
	<g>
		<path fill="#00AAAA" d="M74.614,43.131c-0.077-0.131-0.218-0.212-0.37-0.212H52.89c-0.153,0-0.294,0.082-0.371,0.214
			c-0.076,0.133-0.076,0.296,0.002,0.429l200.31,342.62c0.076,0.131,0.217,0.212,0.368,0.212c0.002,0,0.004,0,0.005,0
			c0.154-0.002,0.296-0.087,0.369-0.221l9.859-17.893c0.072-0.132,0.07-0.291-0.005-0.421L74.614,43.131z"/>
		<path fill="#00AAAA" d="M124.157,43.131c-0.077-0.131-0.218-0.212-0.37-0.212h-21.355c-0.152,0-0.293,0.082-0.37,0.214
			c-0.076,0.132-0.076,0.295,0.001,0.428l174.341,299.837c0.077,0.132,0.218,0.213,0.37,0.213c0.001,0,0.003,0,0.005,0
			c0.153-0.001,0.294-0.087,0.368-0.221l10.391-18.857c0.072-0.131,0.071-0.291-0.004-0.421L124.157,43.131z"/>
		<path fill="#00AAAA" d="M312.887,278.102L176.263,43.131c-0.077-0.131-0.218-0.212-0.37-0.212h-21.355
			c-0.152,0-0.293,0.082-0.37,0.214c-0.076,0.132-0.076,0.295,0,0.428l147.588,253.827c0.076,0.132,0.218,0.212,0.369,0.212
			c0.002,0,0.004,0,0.005,0c0.154-0.001,0.295-0.086,0.369-0.221l10.392-18.857C312.964,278.391,312.962,278.23,312.887,278.102z"/>
	</g>
	<g>
		<path fill="#179BC9" d="M450.887,48.394c-0.148-0.093-0.338-0.085-0.479,0.018c-0.139,0.102-14.138,10.168-39.895,10.168
			c-7.477,0-17.297-5.596-26.798-11.009c-11.63-6.627-23.656-13.479-36.412-13.479c-10.353,0-16.976,6.969-23.38,13.708
			c-2.359,2.481-4.799,5.048-7.359,7.175c-7.506,6.233-14.358,9.013-22.221,9.013c-23.139,0-33.707-11.722-37.685-16.135
			c-0.402-0.447-0.74-0.821-1.019-1.105c-0.123-0.125-0.307-0.163-0.468-0.097c-0.16,0.065-0.265,0.222-0.265,0.396v25.341
			c0,0.143,0.071,0.276,0.19,0.355c0.058,0.039,0.183,0.138,0.373,0.286c6.573,5.131,20.364,13.739,38.872,13.739
			c10.317,0,17.684-6.597,25.482-13.582c7.861-7.041,15.991-14.322,27.478-14.322c6.193,0,15.32,5.2,24.151,10.231
			c12.301,7.008,25.021,14.256,39.059,14.256c33.847,0,40.505-34.174,40.568-34.519C451.112,48.661,451.035,48.487,450.887,48.394z"
			/>
		<path fill="#179BC9" d="M420.669,100.484c-0.16-0.081-0.356-0.052-0.487,0.07c-0.034,0.031-3.597,3.091-25.329,3.091
			c-6.384,0-14.791-5.282-22.923-10.392c-9.979-6.268-20.299-12.75-31.258-12.75c-11.459,0-23.482,11.074-31.439,18.402
			l-1.472,1.354c-6.418,5.877-12.274,8.498-18.99,8.498c-19.795,0-28.839-11.062-32.243-15.226
			c-0.346-0.421-0.635-0.776-0.874-1.044c-0.118-0.132-0.306-0.177-0.471-0.115c-0.166,0.063-0.275,0.222-0.275,0.399v23.949
			c0,0.132,0.067,0.263,0.173,0.343c0.059,0.045,0.172,0.162,0.344,0.334c8.317,8.341,21.026,12.936,35.786,12.936
			c8.879,0,15.203-6.245,21.898-12.856c6.728-6.645,13.686-13.515,23.495-13.515c3.918,0,7.859,2.691,12.85,6.098
			c1.696,1.158,3.448,2.354,5.366,3.559c10.554,6.63,21.467,13.485,33.524,13.485c29.086,0,32.527-25.928,32.559-26.19
			C420.924,100.735,420.828,100.566,420.669,100.484z"/>
		<path fill="#179BC9" d="M400.446,144.479c-0.161-0.08-0.357-0.044-0.489,0.082c-0.029,0.029-3.165,2.876-22.183,2.876
			c-5.58,0-12.95-4.938-20.077-9.714c-8.767-5.874-17.83-11.947-27.471-11.947c-10.085,0-20.646,10.375-27.635,17.24l-1.293,1.268
			c-5.621,5.49-10.747,7.938-16.621,7.938c-17.336,0-25.263-10.338-28.246-14.23c-0.304-0.396-0.559-0.729-0.769-0.98
			c-0.115-0.138-0.305-0.189-0.474-0.128s-0.281,0.222-0.281,0.402v22.416c0,0.127,0.064,0.254,0.161,0.335
			c0.052,0.043,0.149,0.151,0.298,0.309c7.311,7.82,18.479,12.126,31.452,12.126c7.822,0,13.379-5.854,19.264-12.051
			c5.896-6.211,11.994-12.633,20.573-12.633c3.415,0,6.867,2.514,11.237,5.696c1.488,1.084,3.026,2.205,4.711,3.333
			c9.27,6.21,18.854,12.632,29.458,12.632c25.573,0,28.598-24.297,28.625-24.542C400.707,144.728,400.609,144.559,400.446,144.479z"
			/>
	</g>
</g>
</svg>
