<?xml version="1.0" encoding="utf-8"?>
<!-- Generator: Adobe Illustrator 15.0.0, SVG Export Plug-In . SVG Version: 6.00 Build 0)  -->
<!DOCTYPE svg PUBLIC "-//W3C//DTD SVG 1.1//EN" "http://www.w3.org/Graphics/SVG/1.1/DTD/svg11.dtd">
<svg version="1.1" id="Calque_1" xmlns="http://www.w3.org/2000/svg" xmlns:xlink="http://www.w3.org/1999/xlink" x="0px" y="0px"
	 width="500px" height="500px" viewBox="0 0 500 500" enable-background="new 0 0 500 500" xml:space="preserve">
<g>
	<rect x="103.263" y="21.995" fill="#FFE300" width="298.228" height="454.084"/>
	<g>
		<polygon points="157.614,419.227 146.768,419.227 136.01,452.811 135.888,452.811 125.241,419.227 114.41,419.227 
			129.935,466.978 141.78,466.978 		"/>
		<path d="M175.467,453.63c0,2.06-0.266,7.945-7.677,7.945c-3.077,0-5.834-0.869-5.834-4.433c0-3.457,2.683-4.463,5.617-5.07
			c2.968-0.529,6.296-0.609,7.894-2.009V453.63z M163.032,443.064c0.324-3.776,2.677-5.224,6.28-5.224
			c3.341,0,6.155,0.594,6.155,4.669c0,3.896-5.4,3.708-11.228,4.544c-5.883,0.817-11.757,2.664-11.757,10.493
			c0,7.084,5.202,10.386,11.757,10.386c4.208,0,8.633-1.154,11.623-4.273c0.085,1.112,0.345,2.255,0.672,3.318h9.651
			c-0.88-1.391-1.222-4.54-1.222-7.699v-17.949c0-8.308-8.288-9.854-15.165-9.854c-7.762,0-15.724,2.666-16.233,11.59H163.032z"/>
		<rect x="190.191" y="419.22" width="9.514" height="47.758"/>
		<rect x="205.566" y="419.22" width="9.513" height="47.758"/>
		<path d="M220.914,466.978h9.489v-34.562h-9.489V466.978z M230.403,419.227h-9.489v7.821h9.489V419.227z"/>
		<polygon points="319.14,419.227 308.324,419.227 297.542,452.811 297.404,452.811 286.778,419.227 275.942,419.227 
			291.466,466.978 303.288,466.978 		"/>
		<path d="M336.988,453.629c0,2.061-0.262,7.946-7.676,7.946c-3.09,0-5.813-0.869-5.813-4.433c0-3.457,2.659-4.463,5.604-5.07
			c2.95-0.529,6.291-0.609,7.885-2.009V453.629z M324.552,443.064c0.342-3.776,2.695-5.224,6.294-5.224
			c3.357,0,6.143,0.594,6.143,4.667c0,3.897-5.396,3.708-11.215,4.546c-5.885,0.817-11.76,2.664-11.76,10.493
			c0,7.084,5.195,10.386,11.76,10.386c4.212,0,8.622-1.155,11.638-4.278c0.049,1.117,0.314,2.26,0.66,3.323h9.634
			c-0.876-1.391-1.208-4.54-1.208-7.699v-17.949c0-8.308-8.284-9.854-15.183-9.854c-7.723,0-15.705,2.666-16.234,11.59H324.552z"/>
		<rect x="351.739" y="419.22" width="9.497" height="47.758"/>
		<rect x="367.091" y="419.22" width="9.513" height="47.744"/>
		<path d="M382.446,466.978h9.5v-34.562h-9.5V466.978z M391.955,419.227h-9.509v7.821h9.509V419.227z"/>
		<path d="M259.292,429.682c0,3.479-2.225,5.078-4.899,6.818c-1.811-2.223-3.742-4.151-3.742-7.166c0-2.487,2.013-4.213,4.29-4.213
			C257.281,425.121,259.292,427.2,259.292,429.682 M259.748,455.968c-2.204,2.48-4.612,4.207-8.026,4.207
			c-3.612,0-6.824-2.827-6.824-6.289c0-3.893,3.356-6.435,6.696-7.871L259.748,455.968z M268.644,467.029h11.631l-9.705-11.281
			c2.689-3.349,4.162-7.478,4.624-11.757h-8.212c-0.281,1.946-0.802,3.948-1.752,5.662l-6.157-7.539
			c4.827-2.561,8.488-6.328,8.488-11.904c0-7.55-5.885-11.422-13.088-11.422c-6.363,0-12.436,4.275-12.436,10.894
			c0,4.162,1.996,6.996,4.532,10.163c-5.598,2.598-10.681,7.131-10.681,13.841c0,9.022,6.803,14.304,15.43,14.304
			c5.421,0,9.627-1.935,13.438-5.685L268.644,467.029z"/>
	</g>
	<g>
		<path fill="#D20A11" d="M252.789,108.055c-78.109,0-141.371,63.309-141.386,141.465c0.016,78.124,63.277,141.439,141.386,141.439
			c78.201,0,141.447-63.315,141.447-141.439C394.236,171.364,330.99,108.055,252.789,108.055z M334.732,331.407
			c-21.003,20.958-49.922,33.848-81.943,33.895c-31.932-0.047-60.821-12.937-81.894-33.895
			c-20.929-21.02-33.836-49.908-33.836-81.887c0-32.067,12.907-60.933,33.836-81.927c21.073-20.964,49.962-33.93,81.894-33.93
			c32.021,0,60.94,12.965,81.943,33.93c20.94,20.995,33.878,49.86,33.878,81.927C368.61,281.499,355.673,310.388,334.732,331.407z"
			/>
	</g>
	<g>
		<path fill="#D20A11" d="M210.286,211.734c-1.396-0.814-2.925-1.226-4.547-1.226c-2.202,0-4.018,0.571-5.396,1.697
			c-1.25,1.02-2.168,2.206-2.728,3.523c-0.447,1.047-1.082,2.808-1.937,5.378l-13.798,41.021l-13.732-40.661
			c-1.135-3.505-2.24-6.027-3.381-7.711c-1.003-1.481-3.044-3.247-7.072-3.247c-2.62,0-4.84,0.913-6.597,2.712
			c-1.742,1.785-2.625,3.83-2.625,6.079c0,0.824,0.121,1.76,0.368,2.854c0.231,1.034,0.521,2.014,0.863,2.909
			c0.296,0.779,0.583,1.574,0.878,2.425l16.737,45.554c0.613,1.776,1.236,3.484,1.853,5.074c0.663,1.712,1.459,3.272,2.364,4.641
			c1.014,1.531,2.361,2.779,4.005,3.71c1.675,0.948,3.697,1.428,6.009,1.428c2.32,0,4.347-0.491,6.029-1.464
			c1.631-0.942,2.962-2.178,3.958-3.67c0.889-1.334,1.679-2.893,2.346-4.63c0.617-1.606,1.233-3.302,1.833-5.039l17.056-46.028
			c0.283-0.818,0.566-1.613,0.849-2.383c0.319-0.867,0.588-1.764,0.801-2.668c0.231-0.987,0.349-1.932,0.349-2.809
			c0-1.436-0.406-2.854-1.207-4.218C212.772,213.639,211.671,212.546,210.286,211.734z"/>
		<path fill="#D20A11" d="M283.435,270.635c-1.689-1.364-3.052-2.479-4.117-3.366c1.476-2.595,2.65-5.021,3.502-7.229
			c1.104-2.87,1.643-5.097,1.643-6.807c0-2.163-0.853-4.101-2.464-5.603c-1.589-1.478-3.458-2.227-5.56-2.227
			c-2.289,0-4.197,0.86-5.515,2.49c-1.032,1.274-2.069,3.207-3.174,5.905c-0.284,0.693-0.546,1.322-0.785,1.885
			c-0.352-0.384-0.716-0.783-1.086-1.202c-1.255-1.409-2.575-2.954-3.931-4.592c-0.874-1.056-1.791-2.157-2.754-3.303
			c3.682-2.386,6.604-4.777,8.697-7.126c2.746-3.079,4.14-6.746,4.14-10.897c0-3.033-0.846-5.983-2.514-8.771
			c-1.676-2.798-4.21-5.077-7.53-6.774c-3.26-1.665-7.135-2.509-11.515-2.509c-4.392,0-8.296,0.803-11.605,2.386
			c-3.39,1.623-6.013,3.87-7.793,6.679c-1.784,2.811-2.688,5.964-2.688,9.372c0,2.862,0.711,5.669,2.112,8.345
			c0.983,1.879,2.325,3.963,4.001,6.22c-1.804,1.016-3.456,2.06-4.933,3.118c-2.171,1.557-4.034,3.231-5.54,4.977
			c-1.56,1.81-2.786,3.863-3.647,6.104c-0.865,2.255-1.305,4.755-1.305,7.428c0,2.798,0.579,5.579,1.719,8.269
			c1.145,2.701,2.911,5.185,5.25,7.381c2.331,2.192,5.269,3.946,8.729,5.214c3.427,1.256,7.32,1.894,11.571,1.894
			c3.297,0,6.345-0.328,9.055-0.976c2.731-0.651,5.337-1.666,7.747-3.017c1.84-1.033,3.646-2.3,5.391-3.778
			c3.8,3.09,6.295,5.033,7.605,5.928c1.793,1.224,3.7,1.843,5.671,1.843c2.076,0,3.959-0.786,5.596-2.336
			c1.65-1.562,2.522-3.594,2.522-5.878c0-1.773-0.465-3.263-1.383-4.431C288.099,274.68,287.079,273.58,283.435,270.635z
			 M242.843,272.785c-1.22-0.493-2.26-1.187-3.18-2.119c-0.934-0.947-1.647-1.975-2.123-3.055c-0.465-1.055-0.692-2.132-0.692-3.291
			c0-2.042,0.611-3.749,1.869-5.217c1.16-1.355,2.856-2.75,5.057-4.156c2.652,3.193,4.979,5.927,6.933,8.141
			c1.814,2.058,3.827,4.148,6.001,6.236c-0.74,0.623-1.466,1.178-2.168,1.659c-1.191,0.816-2.465,1.456-3.79,1.896
			C248.181,273.736,245.298,273.778,242.843,272.785z M254.641,231.878c-1.072,1.049-2.742,2.333-4.973,3.829
			c-0.747-0.938-1.387-1.756-1.921-2.453c-0.741-0.969-1.367-1.954-1.862-2.93c-0.391-0.771-0.589-1.461-0.589-2.05
			c0-1.21,0.474-2.211,1.49-3.151c1.056-0.975,2.356-1.45,3.977-1.45c1.618,0,2.903,0.459,3.926,1.402
			c0.983,0.909,1.442,1.956,1.442,3.295C256.13,229.77,255.656,230.884,254.641,231.878z"/>
		<path fill="#D20A11" d="M355.874,214.985c-0.79-1.346-1.891-2.439-3.276-3.25c-1.396-0.814-2.926-1.226-4.547-1.226
			c-2.202,0-4.018,0.571-5.397,1.697c-1.248,1.02-2.167,2.206-2.727,3.523c-0.447,1.047-1.082,2.808-1.938,5.378l-13.798,41.021
			l-13.732-40.661c-1.136-3.505-2.239-6.027-3.382-7.711c-1.003-1.481-3.044-3.247-7.071-3.247c-2.62,0-4.84,0.913-6.597,2.712
			c-1.742,1.785-2.627,3.83-2.627,6.079c0,0.824,0.12,1.76,0.369,2.854c0.229,1.034,0.521,2.014,0.861,2.909
			c0.298,0.779,0.584,1.574,0.879,2.425l16.737,45.554c0.612,1.776,1.236,3.484,1.853,5.074c0.664,1.712,1.46,3.272,2.363,4.641
			c1.014,1.531,2.362,2.779,4.006,3.71c1.674,0.948,3.696,1.428,6.01,1.428c2.319,0,4.347-0.491,6.028-1.464
			c1.631-0.942,2.962-2.178,3.958-3.67c0.889-1.334,1.679-2.893,2.345-4.63c0.617-1.606,1.233-3.302,1.835-5.039l17.055-46.028
			c0.283-0.818,0.565-1.613,0.849-2.383c0.319-0.867,0.59-1.764,0.802-2.668c0.231-0.987,0.349-1.932,0.349-2.809
			C357.08,217.767,356.674,216.349,355.874,214.985z"/>
	</g>
</g>
</svg>
