<?xml version="1.0" encoding="utf-8"?>
<!-- Generator: Adobe Illustrator 15.0.0, SVG Export Plug-In . SVG Version: 6.00 Build 0)  -->
<!DOCTYPE svg PUBLIC "-//W3C//DTD SVG 1.1//EN" "http://www.w3.org/Graphics/SVG/1.1/DTD/svg11.dtd">
<svg version="1.1" id="Calque_1" xmlns="http://www.w3.org/2000/svg" xmlns:xlink="http://www.w3.org/1999/xlink" x="0px" y="0px"
	 width="500px" height="500px" viewBox="0 0 500 500" enable-background="new 0 0 500 500" xml:space="preserve">
<g>
	<rect x="31.072" y="99.512" fill="#FFED00" width="441.477" height="164.519"/>
	<polygon points="171.921,153.072 158.833,153.072 145.852,193.6 145.705,193.6 132.856,153.072 119.787,153.072 138.521,210.694 
		152.815,210.694 	"/>
	<path d="M193.466,194.59c0,2.484-0.321,9.586-9.264,9.586c-3.713,0-7.04-1.049-7.04-5.349c0-4.171,3.238-5.386,6.778-6.118
		c3.581-0.64,7.597-0.737,9.526-2.425V194.59z M178.46,181.839c0.391-4.558,3.23-6.304,7.578-6.304c4.031,0,7.428,0.717,7.428,5.635
		c0,4.7-6.517,4.473-13.549,5.482c-7.099,0.986-14.187,3.216-14.187,12.664c0,8.546,6.277,12.531,14.187,12.531
		c5.078,0,10.418-1.392,14.025-5.156c0.103,1.342,0.417,2.72,0.811,4.003h11.646c-1.062-1.678-1.475-5.478-1.475-9.291v-21.659
		c0-10.025-10.001-11.892-18.299-11.892c-9.367,0-18.974,3.216-19.589,13.986H178.46z"/>
	<rect x="211.233" y="153.065" width="11.48" height="57.629"/>
	<rect x="229.787" y="153.065" width="11.48" height="57.629"/>
	<path d="M248.307,210.694h11.451v-41.707h-11.451V210.694z M259.758,153.072h-11.451v9.439h11.451V153.072z"/>
	<polygon points="366.838,153.072 353.786,153.072 340.775,193.6 340.609,193.6 327.787,153.072 314.71,153.072 333.444,210.694 
		347.709,210.694 	"/>
	<path d="M388.378,194.588c0,2.486-0.317,9.588-9.264,9.588c-3.729,0-7.015-1.049-7.015-5.349c0-4.171,3.209-5.386,6.764-6.118
		c3.559-0.64,7.59-0.737,9.515-2.425V194.588z M373.368,181.839c0.413-4.558,3.253-6.304,7.597-6.304
		c4.05,0,7.413,0.717,7.413,5.633c0,4.702-6.513,4.474-13.534,5.484c-7.103,0.986-14.191,3.216-14.191,12.664
		c0,8.546,6.27,12.531,14.191,12.531c5.082,0,10.403-1.394,14.043-5.163c0.059,1.35,0.38,2.727,0.797,4.01h11.624
		c-1.055-1.678-1.457-5.478-1.457-9.291v-21.659c0-10.025-9.997-11.892-18.321-11.892c-9.318,0-18.951,3.216-19.59,13.986H373.368z"
		/>
	<rect x="406.176" y="153.065" width="11.461" height="57.629"/>
	<rect x="424.703" y="153.065" width="11.477" height="57.613"/>
	<path d="M443.23,210.694h11.466v-41.707H443.23V210.694z M454.707,153.072H443.23v9.439h11.477V153.072z"/>
	<path d="M294.619,165.688c0,4.2-2.686,6.129-5.912,8.229c-2.187-2.683-4.518-5.01-4.518-8.648c0-3.002,2.431-5.085,5.178-5.085
		C292.192,160.185,294.619,162.694,294.619,165.688 M295.168,197.409c-2.658,2.993-5.564,5.076-9.684,5.076
		c-4.359,0-8.235-3.411-8.235-7.587c0-4.698,4.05-7.767,8.08-9.5L295.168,197.409z M305.903,210.757h14.036l-11.713-13.614
		c3.245-4.04,5.023-9.022,5.58-14.187h-9.909c-0.34,2.349-0.966,4.765-2.113,6.832l-7.431-9.098
		c5.826-3.088,10.244-7.634,10.244-14.364c0-9.11-7.103-13.781-15.795-13.781c-7.678,0-15.006,5.158-15.006,13.144
		c0,5.024,2.408,8.443,5.47,12.264c-6.756,3.135-12.89,8.605-12.89,16.704c0,10.886,8.21,17.259,18.62,17.259
		c6.542,0,11.617-2.334,16.216-6.859L305.903,210.757z"/>
	<g>
		<path d="M14.721,284.809c0,0,0,12.612,0,15.762c0,4.167,2.799,3.658,3.651,3.658c41.458,0,462.544,0.015,465.978,0.015
			c0,2.936,0,15.755,0,15.755h3.662V304.28c0,0,0.638-3.702-3.721-3.702c-41.875,0-462.49,0-465.905,0c0-2.936,0-15.77,0-15.77
			H14.721z"/>
	</g>
	<path d="M189.494,342.169l-15.312,40.359c-0.019-13.047-12.867-15.702-17.056-16.721c-14.383-3.717-17.123-4.256-17.13-8.688
		c0.007-4.838,4.676-6.52,8.681-6.505c6.056-0.015,10.953,1.748,11.359,8.659h12.214c-0.007-13.27-11.026-18.483-22.997-18.483
		c-10.256,0-21.172,5.502-21.449,16.927c-0.855-12.096-11.425-16.912-22.941-16.897c-10.352-0.008-21.445,5.635-21.438,17.362
		c0,10.798,8.6,14.072,17.126,16.314c8.453,2.265,17.053,3.297,17.038,9.485c0.011,5.871-6.734,7.162-11.152,7.177
		c-6.763,0.007-12.701-2.98-12.708-10.621H81.647l-14.375-38.354H54.35l-21.758,57.42h12.774l4.507-12.79h21.489l4.333,12.79h13.099
		l-2.021-5.37c4.632,4.58,11.749,6.727,19.177,6.712c11.487,0.015,19.007-4.277,22.156-10.769
		c4.027,7.391,12.893,10.762,22.223,10.762c9.021,0,15.555-2.655,19.498-6.919l-2.098,5.568h12.789l4.499-12.833h21.478
		l4.352,12.849h13.114l-21.507-57.435H189.494z M53.155,377.41l7.479-21.058h0.17l7.232,21.058H53.155z M150.771,391.121
		c-6.727,0.022-12.693-2.973-12.701-10.584l-8.375-0.008c-1.247-11.284-12.966-13.719-16.931-14.722
		c-14.375-3.68-17.126-4.263-17.134-8.674c0.022-4.838,4.669-6.52,8.688-6.505c6.041,0,10.927,1.748,11.34,8.659h12.185
		c0.594,9.876,8.847,13.04,17.063,15.187c8.456,2.249,17.06,3.289,17.06,9.478C161.968,389.83,155.227,391.113,150.771,391.121z
		 M188.292,377.351l7.494-21.058h0.155l7.258,21.051L188.292,377.351z M325.77,368.382c4.99-2.427,7.789-6.372,7.811-12
		c-0.021-10.694-7.408-14.235-18.368-14.19h-27.024l0.037,53.148l-19.903-53.156h-12.971l-21.765,57.42h12.793l4.492-12.79h21.489
		l4.337,12.774h13.121h-0.015l26.261,0.016c10.359-0.022,20.242-5.038,20.261-16.699C336.306,375.75,332.766,370.373,325.77,368.382
		z M254.163,377.41l7.49-21.072h0.166l7.235,21.072H254.163z M300.84,351.964h11.819c4.484,0,8.674,1.129,8.688,6.594
		c0,4.831-3.314,6.845-7.699,6.837l-12.809,0.008V351.964z M314.371,389.764h-13.517l-0.015-15.769l13.752-0.008
		c5.385,0,9.098,2.338,9.087,8.209C323.679,388.156,319.331,389.764,314.371,389.764z M395.451,340.775
		c-17.765-0.008-28.23,13.254-28.216,30.307c0.019,6.711,1.748,12.848,4.957,17.812h-21.4l-0.015-46.71l-12.605,0.008v57.412h36.631
		v-7.287c4.831,5.332,11.85,8.6,20.674,8.592c17.775,0,28.227-13.269,28.205-29.834
		C423.692,354.015,413.219,340.745,395.451,340.775z M395.477,390.303c-11.34,0-15.6-9.641-15.606-19.221
		c-0.019-10.039,4.241-19.687,15.592-19.701c11.341,0,15.6,9.633,15.622,19.679C411.091,380.655,406.817,390.295,395.477,390.303z
		 M455.81,342.184l-13.32,22.621l-13.442-22.621h-14.238l21.149,34.99v22.414h12.624v-22.104l21.312-35.314L455.81,342.184z"/>
	<polyline fill="#D20A11" points="74.707,171.974 70.031,171.974 65.398,186.475 65.317,186.475 60.752,171.974 56.046,171.974 
		62.751,192.597 67.87,192.597 74.707,171.974 	"/>
	<polyline fill="#D20A11" points="107.904,171.974 103.217,171.974 98.585,186.475 98.522,186.475 93.946,171.974 89.259,171.974 
		95.956,192.597 101.075,192.597 107.904,171.974 	"/>
	<path fill="#D20A11" d="M87.924,192.619h5.03l-4.204-4.882c1.173-1.438,1.814-3.232,2.021-5.056h-3.57
		c-0.111,0.815-0.347,1.7-0.734,2.439l-2.659-3.264c2.065-1.088,3.666-2.751,3.666-5.146c0-3.26-2.538-4.927-5.657-4.927
		c-2.766,0-5.38,1.849-5.38,4.708c0,1.785,0.866,3.027,1.965,4.387c-2.426,1.136-4.625,3.084-4.625,5.97
		c0,3.898,2.947,6.177,6.675,6.177c2.342,0,4.153-0.839,5.805-2.447L87.924,192.619 M84.074,187.834
		c-0.929,1.062-1.984,1.812-3.444,1.812c-1.579,0-2.943-1.213-2.943-2.711c0-1.678,1.438-2.777,2.876-3.418L84.074,187.834z
		 M83.897,176.49c0,1.484-0.974,2.192-2.139,2.936c-0.767-0.956-1.578-1.792-1.578-3.072c0-1.082,0.83-1.836,1.822-1.836
		C83.026,174.517,83.897,175.422,83.897,176.49"/>
	<path fill="#D20A11" d="M48.154,182.075c0.004-18.693,15.135-33.836,33.817-33.836c18.705,0,33.832,15.143,33.832,33.836
		c0,18.686-15.127,33.83-33.832,33.83v-4.654c8.069-0.011,15.356-3.26,20.648-8.541c5.277-5.297,8.537-12.576,8.537-20.635
		c0-8.08-3.26-15.354-8.537-20.645c-5.292-5.283-12.58-8.55-20.648-8.55c-8.047,0-15.327,3.267-20.637,8.55
		c-5.274,5.291-8.526,12.564-8.526,20.645c0,8.06,3.252,15.338,8.526,20.635c5.31,5.281,12.59,8.53,20.637,8.541v4.654
		C63.289,215.905,48.158,200.761,48.154,182.075"/>
</g>
</svg>
