<?xml version="1.0" encoding="utf-8"?>
<!-- Generator: Adobe Illustrator 21.0.2, SVG Export Plug-In . SVG Version: 6.00 Build 0)  -->
<svg version="1.1" id="Calque_1" xmlns="http://www.w3.org/2000/svg" xmlns:xlink="http://www.w3.org/1999/xlink" x="0px" y="0px"
	 viewBox="0 0 500 364" style="enable-background:new 0 0 500 364;" xml:space="preserve">
<style type="text/css">
	.st0{fill:#FFED00;}
	.st1{fill:#D20A11;}
</style>
<rect x="31.1" y="31.5" class="st0" width="441.5" height="164.5"/>
<polygon points="171.9,85.1 158.8,85.1 145.9,125.6 145.7,125.6 132.9,85.1 119.8,85.1 138.5,142.7 152.8,142.7 "/>
<path d="M193.5,126.6c0,2.5-0.3,9.6-9.3,9.6c-3.7,0-7-1-7-5.3c0-4.2,3.2-5.4,6.8-6.1c3.6-0.6,7.6-0.7,9.5-2.4V126.6z M178.5,113.8
	c0.4-4.6,3.2-6.3,7.6-6.3c4,0,7.4,0.7,7.4,5.6c0,4.7-6.5,4.5-13.5,5.5c-7.1,1-14.2,3.2-14.2,12.7c0,8.5,6.3,12.5,14.2,12.5
	c5.1,0,10.4-1.4,14-5.2c0.1,1.3,0.4,2.7,0.8,4h11.6c-1.1-1.7-1.5-5.5-1.5-9.3v-21.7c0-10-10-11.9-18.3-11.9c-9.4,0-19,3.2-19.6,14
	L178.5,113.8L178.5,113.8z"/>
<rect x="211.2" y="85.1" width="11.5" height="57.6"/>
<rect x="229.8" y="85.1" width="11.5" height="57.6"/>
<path d="M248.3,142.7h11.5V101h-11.5L248.3,142.7L248.3,142.7z M259.8,85.1h-11.5v9.4h11.5V85.1z"/>
<polygon points="366.8,85.1 353.8,85.1 340.8,125.6 340.6,125.6 327.8,85.1 314.7,85.1 333.4,142.7 347.7,142.7 "/>
<path d="M388.4,126.6c0,2.5-0.3,9.6-9.3,9.6c-3.7,0-7-1-7-5.3c0-4.2,3.2-5.4,6.8-6.1c3.6-0.6,7.6-0.7,9.5-2.4V126.6z M373.4,113.8
	c0.4-4.6,3.3-6.3,7.6-6.3c4,0,7.4,0.7,7.4,5.6c0,4.7-6.5,4.5-13.5,5.5c-7.1,1-14.2,3.2-14.2,12.7c0,8.5,6.3,12.5,14.2,12.5
	c5.1,0,10.4-1.4,14-5.2c0.1,1.4,0.4,2.7,0.8,4h11.6c-1.1-1.7-1.5-5.5-1.5-9.3v-21.7c0-10-10-11.9-18.3-11.9c-9.3,0-19,3.2-19.6,14
	L373.4,113.8L373.4,113.8z"/>
<rect x="406.2" y="85.1" width="11.5" height="57.6"/>
<rect x="424.7" y="85.1" width="11.5" height="57.6"/>
<path d="M443.2,142.7h11.5V101h-11.5V142.7z M454.7,85.1h-11.5v9.4h11.5V85.1z"/>
<path d="M294.6,97.7c0,4.2-2.7,6.1-5.9,8.2c-2.2-2.7-4.5-5-4.5-8.6c0-3,2.4-5.1,5.2-5.1C292.2,92.2,294.6,94.7,294.6,97.7
	 M295.2,129.4c-2.7,3-5.6,5.1-9.7,5.1c-4.4,0-8.2-3.4-8.2-7.6c0-4.7,4-7.8,8.1-9.5L295.2,129.4z M305.9,142.8h14l-11.7-13.6
	c3.2-4,5-9,5.6-14.2h-9.9c-0.3,2.3-1,4.8-2.1,6.8l-7.4-9.1c5.8-3.1,10.2-7.6,10.2-14.4c0-9.1-7.1-13.8-15.8-13.8
	c-7.7,0-15,5.2-15,13.1c0,5,2.4,8.4,5.5,12.3c-6.8,3.1-12.9,8.6-12.9,16.7c0,10.9,8.2,17.3,18.6,17.3c6.5,0,11.6-2.3,16.2-6.9
	L305.9,142.8z"/>
<path d="M14.7,216.8c0,0,0,12.6,0,15.8c0,4.2,2.8,3.7,3.7,3.7c41.5,0,462.5,0,466,0c0,2.9,0,15.8,0,15.8h3.7v-15.7
	c0,0,0.6-3.7-3.7-3.7c-41.9,0-462.5,0-465.9,0c0-2.9,0-15.8,0-15.8L14.7,216.8L14.7,216.8z"/>
<path d="M189.5,274.2l-15.3,40.4c0-13-12.9-15.7-17.1-16.7c-14.4-3.7-17.1-4.3-17.1-8.7c0-4.8,4.7-6.5,8.7-6.5
	c6.1,0,11,1.7,11.4,8.7h12.2c0-13.3-11-18.5-23-18.5c-10.3,0-21.2,5.5-21.4,16.9c-0.9-12.1-11.4-16.9-22.9-16.9
	c-10.4,0-21.4,5.6-21.4,17.4c0,10.8,8.6,14.1,17.1,16.3c8.5,2.3,17.1,3.3,17,9.5c0,5.9-6.7,7.2-11.2,7.2c-6.8,0-12.7-3-12.7-10.6
	H81.6l-14.4-38.4H54.3l-21.8,57.4h12.8l4.5-12.8h21.5l4.3,12.8h13.1l-2-5.4c4.6,4.6,11.7,6.7,19.2,6.7c11.5,0,19-4.3,22.2-10.8
	c4,7.4,12.9,10.8,22.2,10.8c9,0,15.6-2.7,19.5-6.9l-2.1,5.6h12.8l4.5-12.8h21.5l4.4,12.8H224l-21.5-57.4L189.5,274.2L189.5,274.2z
	 M53.2,309.4l7.5-21.1h0.2l7.2,21.1H53.2z M150.8,323.1c-6.7,0-12.7-3-12.7-10.6h-8.4c-1.2-11.3-13-13.7-16.9-14.7
	c-14.4-3.7-17.1-4.3-17.1-8.7c0-4.8,4.7-6.5,8.7-6.5c6,0,10.9,1.7,11.3,8.7h12.2c0.6,9.9,8.8,13,17.1,15.2
	c8.5,2.2,17.1,3.3,17.1,9.5C162,321.8,155.2,323.1,150.8,323.1z M188.3,309.4l7.5-21.1h0.2l7.3,21.1H188.3z M325.8,300.4
	c5-2.4,7.8-6.4,7.8-12c0-10.7-7.4-14.2-18.4-14.2h-27v53.1l-19.9-53.2h-13l-21.8,57.4h12.8l4.5-12.8h21.5l4.3,12.8h13.1l0,0H316
	c10.4,0,20.2-5,20.3-16.7C336.3,307.8,332.8,302.4,325.8,300.4z M254.2,309.4l7.5-21.1h0.2l7.2,21.1H254.2z M300.8,284h11.8
	c4.5,0,8.7,1.1,8.7,6.6c0,4.8-3.3,6.8-7.7,6.8h-12.8V284L300.8,284z M314.4,321.8h-13.5V306h13.8c5.4,0,9.1,2.3,9.1,8.2
	C323.7,320.2,319.3,321.8,314.4,321.8z M395.5,272.8c-17.8,0-28.2,13.3-28.2,30.3c0,6.7,1.7,12.8,5,17.8h-21.4v-46.7h-12.6v57.4
	h36.6v-7.3c4.8,5.3,11.9,8.6,20.7,8.6c17.8,0,28.2-13.3,28.2-29.8C423.7,286,413.2,272.7,395.5,272.8z M395.5,322.3
	c-11.3,0-15.6-9.6-15.6-19.2c0-10,4.2-19.7,15.6-19.7c11.3,0,15.6,9.6,15.6,19.7C411.1,312.7,406.8,322.3,395.5,322.3z M455.8,274.2
	l-13.3,22.6L429,274.2h-14.2l21.1,35v22.4h12.6v-22.1l21.3-35.3H455.8z"/>
<polyline class="st1" points="74.7,104 70,104 65.4,118.5 65.3,118.5 60.8,104 56,104 62.8,124.6 67.9,124.6 74.7,104 "/>
<polyline class="st1" points="107.9,104 103.2,104 98.6,118.5 98.5,118.5 93.9,104 89.3,104 96,124.6 101.1,124.6 107.9,104 "/>
<path class="st1" d="M87.9,124.6h5l-4.2-4.9c1.2-1.4,1.8-3.2,2-5.1h-3.6c-0.1,0.8-0.3,1.7-0.7,2.4l-2.7-3.3c2.1-1.1,3.7-2.8,3.7-5.1
	c0-3.3-2.5-4.9-5.7-4.9c-2.8,0-5.4,1.8-5.4,4.7c0,1.8,0.9,3,2,4.4c-2.4,1.1-4.6,3.1-4.6,6c0,3.9,2.9,6.2,6.7,6.2
	c2.3,0,4.2-0.8,5.8-2.4L87.9,124.6 M84.1,119.8c-0.9,1.1-2,1.8-3.4,1.8c-1.6,0-2.9-1.2-2.9-2.7c0-1.7,1.4-2.8,2.9-3.4L84.1,119.8z
	 M83.9,108.5c0,1.5-1,2.2-2.1,2.9c-0.8-1-1.6-1.8-1.6-3.1c0-1.1,0.8-1.8,1.8-1.8C83,106.5,83.9,107.4,83.9,108.5"/>
<path class="st1" d="M48.2,114.1c0-18.7,15.1-33.8,33.8-33.8s33.8,15.1,33.8,33.8s-15.1,33.8-33.8,33.8v-4.7
	c8.1,0,15.4-3.3,20.6-8.5c5.3-5.3,8.5-12.6,8.5-20.6c0-8.1-3.3-15.4-8.5-20.6C97.3,88.2,90,84.9,82,84.9s-15.3,3.3-20.6,8.6
	s-8.5,12.6-8.5,20.6c0,8.1,3.3,15.3,8.5,20.6c5.3,5.3,12.6,8.5,20.6,8.5v4.7C63.3,147.9,48.2,132.8,48.2,114.1"/>
</svg>
