<?xml version="1.0" encoding="utf-8"?>
<!-- Generator: Adobe Illustrator 19.1.0, SVG Export Plug-In . SVG Version: 6.00 Build 0)  -->
<svg version="1.1" id="Calque_1" xmlns="http://www.w3.org/2000/svg" xmlns:xlink="http://www.w3.org/1999/xlink" x="0px" y="0px"
	 viewBox="0 0 500 500" style="enable-background:new 0 0 500 500;" xml:space="preserve">
<style type="text/css">
	.st0{fill:#EAEAEA;}
	.st1{fill:#FFFFFF;}
	.st2{fill:#1C9BD8;}
	.st3{fill:#FFE300;}
	.st4{fill:#856B16;}
	.st5{fill:#D9C41D;}
</style>
<g>
	<path class="st0" d="M421.8,316.1H80.6c-35.6,0-64.5-28.9-64.5-64.5s28.9-64.5,64.5-64.5h341.2c35.6,0,64.5,28.9,64.5,64.5
		S457.4,316.1,421.8,316.1z"/>
	<path class="st1" d="M465.8,251.9c0,25.2-20.4,45.6-45.6,45.6h-15.4c-25.2,0-45.6-20.4-45.6-45.6l0,0c0-25.2,20.4-45.6,45.6-45.6
		h15.4C445.4,206.4,465.8,226.8,465.8,251.9L465.8,251.9z"/>
	<path class="st2" d="M86.9,220.8l-0.3,0.9c-0.4,1.3-8.3,28.3-11.5,40.5C72.1,250,64.4,223.1,64,221.8l-0.3-0.9h-17l19.3,60.3h17.1
		l20.3-60.3L86.9,220.8L86.9,220.8z"/>
	<path class="st2" d="M119.2,234.4c-14.7,0-21.5,11.9-21.5,23.6c0,10.9,7.9,22.8,22.7,22.8c13.9,0,18.7-9.2,18.7-9.2l-1.8-6.6
		c0,0-3.4,4.9-15,4.9c-7.7,0-10.3-4.6-11.4-8.6l27.7,0.1C138.6,261.4,142.5,234.4,119.2,234.4z M118.6,243.9c5.4,0,7.1,6.1,7.1,9.9
		h-15C110.7,249.1,113.7,243.9,118.6,243.9z"/>
	<path class="st2" d="M274.3,234.4c-14.7,0-21.5,11.9-21.5,23.6c0,10.9,7.9,22.8,22.7,22.8c13.9,0,18.7-9.2,18.7-9.2l-1.8-6.6
		c0,0-3.4,4.9-15,4.9c-7.7,0-10.3-4.6-11.4-8.6l27.7,0.1C293.6,261.4,297.5,234.4,274.3,234.4z M273.6,243.9c5.4,0,7.1,6.1,7.1,9.9
		h-15C265.7,249.1,268.8,243.9,273.6,243.9z"/>
	<path class="st2" d="M171.5,233.5c-6.2,0-10.1,2.9-12.2,5.3l-0.4-4.3h-13.4l0,46.7H161c0,0,0.3-23.4,0.3-24.3c0-5.8,2-7.9,5.5-7.9
		c1.3,0,5.3,0,5.3,8.2v24.1h15.6v-27.3C187.8,241.1,181.7,233.5,171.5,233.5z"/>
	<path class="st2" d="M203.3,214.9c-5,0-8.7,3.5-8.7,8.2c0,4.8,3.6,8.2,8.5,8.2h0.1c5,0,8.7-3.5,8.7-8.3
		C211.8,218.3,208.2,214.9,203.3,214.9z"/>
	<rect x="195.4" y="234.8" class="st2" width="15.6" height="46.4"/>
	<path class="st2" d="M236.9,220.5l-15.3,12.7v2.4H216v10h5.6v18.2c0,6.2,1.3,10.6,4,13.3c2.5,2.5,6.4,4,10.8,4
		c3.4,0,6.9-0.5,8.8-1.2l0.8-0.3l-0.1-12.3l-1.5,0.3c-1.1,0.2-1.9,0.3-3.6,0.3c-2.6,0-3.9-0.9-3.9-6.1v-16.2h13.6v-10h-13.6V220.5z"
		/>
	<path class="st2" d="M328.8,256.3l14.7-22.7h-17.4l-4.1,7.9c-0.8,1.6-1.5,3.1-2.3,4.8c-0.8-1.5-1.5-3-2.3-4.5l-4.5-8.2h-17.7
		l14.8,23.3L294.9,281h17.5l4.3-8.8c0.3-0.7,0.7-1.4,1-2.2c0.4-0.8,0.7-1.5,1.1-2.3c0.7,1.5,1.5,3,2.3,4.5l4.6,8.7h17.8L328.8,256.3
		z"/>
	<polygon class="st3" points="412.5,211.8 372.2,281.1 372.1,281.3 453.4,280.9 453.6,280.9 	"/>
	<polygon class="st3" points="412.3,257.5 372.9,280.7 412.3,212.8 	"/>
	<polygon class="st4" points="412.5,257.8 452.7,280.6 373,281 	"/>
	<polygon class="st5" points="412.7,257.5 412.7,212.7 452.9,280.3 	"/>
	<g>
		<path class="st2" d="M350.6,267.6L350.6,267.6c0.9-0.4,1.7-1.1,1.7-2.3c0-0.7-0.3-1.3-0.7-1.7c-0.5-0.5-1.4-0.7-2.6-0.7
			c-0.8,0-1.6,0.1-2.2,0.2v8.7h1.1V268h1.1c1,0,1.5,0.5,1.8,1.7c0.2,1.1,0.4,1.9,0.6,2.1h1.2c-0.2-0.3-0.4-1.2-0.7-2.4
			C351.6,268.5,351.2,267.9,350.6,267.6z M349.1,267.1h-1.2v-3.2c0.2-0.1,0.6-0.1,1.1-0.1c1.2,0,2,0.5,2,1.6
			C351.1,266.5,350.3,267.1,349.1,267.1z"/>
		<path class="st2" d="M349,260.2c-4.1,0-7.4,3.3-7.4,7.4s3.3,7.4,7.4,7.4s7.4-3.3,7.4-7.4S353,260.2,349,260.2z M349,273.8
			c-3.5,0-6.3-2.8-6.3-6.3s2.8-6.3,6.3-6.3s6.3,2.8,6.3,6.3S352.4,273.8,349,273.8z"/>
	</g>
	<g>
		<path class="st2" d="M421.8,316.1H80.6c-35.6,0-64.5-28.9-64.5-64.5s28.9-64.5,64.5-64.5h341.2c35.6,0,64.5,28.9,64.5,64.5
			S457.4,316.1,421.8,316.1z M80.6,193.5c-32,0-58.1,26.1-58.1,58.1c0,32,26.1,58.1,58.1,58.1h341.2c32,0,58.1-26.1,58.1-58.1
			s-26.1-58.1-58.1-58.1H80.6z"/>
	</g>
</g>
</svg>
