<?xml version="1.0" encoding="utf-8"?>
<!-- Generator: Adobe Illustrator 15.0.0, SVG Export Plug-In . SVG Version: 6.00 Build 0)  -->
<!DOCTYPE svg PUBLIC "-//W3C//DTD SVG 1.1//EN" "http://www.w3.org/Graphics/SVG/1.1/DTD/svg11.dtd">
<svg version="1.1" id="Calque_1" xmlns="http://www.w3.org/2000/svg" xmlns:xlink="http://www.w3.org/1999/xlink" x="0px" y="0px"
	 width="500px" height="500px" viewBox="0 0 500 500" enable-background="new 0 0 500 500" xml:space="preserve">
<g>
	<path d="M128.888,240.188c12.266-3.186,31.162-9.322,39.26-11.776c33.384-7.85,39.755-29.448,39.755-29.448h-61.357
		c0,0-22.813,5.647-40.722,20.612c-17.923,14.969-37.804,56.438-37.804,56.438s0.734,3.931-4.413,3.438
		c-5.16-0.493-2.951-3.927-2.951-3.927l20.615-57.417c0,0,2.7-8.101,1.966-11.776c-0.735-3.686-4.91-6.871-4.91-6.871H44.957
		c0,0,5.643,1.717,5.889,8.339c0.244,6.625,0.49,5.888,0.49,5.888L21.88,310.37h46.63c0,0,9.328-0.978,18.658-13.744
		C96.496,283.871,119.805,240.926,128.888,240.188z"/>
	<path d="M168.148,234.3c-32.393,5.154-37.546,24.297-37.546,24.297l-15.952,48.585h32.889
		C147.539,307.182,172.322,237.244,168.148,234.3z"/>
	<path d="M261.652,282.646c10.062-21.107-1.225-32.887-1.225-32.887s12.756-5.888,17.664-25.763
		c4.91-19.878-6.629-26.01-6.629-26.01h-54.728c0,0-4.901,11.779-12.027,17.668c-7.106,5.891-22.079,12.269-22.079,12.269
		l-24.301,78.525l76.819-0.492C235.148,305.955,251.588,303.748,261.652,282.646z M232.197,269.882
		c-2.951,12.764-34.106,10.062-34.106,10.062l6.379-21.599C204.47,258.346,235.148,257.122,232.197,269.882z M243.811,229.958
		c-4.672,12.021-34.432,8.271-34.432,8.271l6.624-16.934C216.002,221.296,248.475,217.934,243.811,229.958z"/>
	<path d="M286.673,303.003l46.385-11.279c0,0,18.652-4.91,22.344-15.217c3.671-10.305,11.885-36.7,18.644-59.137
		c6.134-20.364-8.839-22.822-8.839-22.822h-54.722c0,0-10.308-1.717-19.385,16.444c-9.084,18.158-27.245,65.27-28.713,80.732
		C260.91,307.182,286.673,303.003,286.673,303.003z M300.911,268.412c2.203-9.57,15.707-50.795,19.637-51.288
		c3.931-0.493,12.021-0.493,18.154,0c6.14,0.493,3.195,10.797,3.195,10.797s-10.308,33.368-13.245,40.731
		c-2.951,7.36-6.637,7.854-6.637,7.854H303.61C303.61,276.507,298.709,277.982,300.911,268.412z"/>
	<path d="M445.465,194.547l-28.706,28.465l-8.608-28.465h-31.645l18.413,56.93c0,0-20.956,29.774-42.877,40.898
		c-0.985-0.652-45.487,14.071-61.193,15.703c-15.7,1.64-36.635,15.703-41.231,25.191c-4.57,9.489,4.909,6.874,4.909,6.874
		l54.646-1.312c0,0,33.378,0.655,56.285-16.029c22.894-16.686,115.337-128.256,115.337-128.256H445.465z"/>
	<path d="M177.823,190.202c0,0,37.309-33.371,7.01-29.726c-30.284,3.648-28.326,29.726-28.326,29.726H177.823z"/>
</g>
</svg>
