<?xml version="1.0" encoding="utf-8"?>
<!-- Generator: Adobe Illustrator 21.0.2, SVG Export Plug-In . SVG Version: 6.00 Build 0)  -->
<svg version="1.1" id="Calque_1" xmlns="http://www.w3.org/2000/svg" xmlns:xlink="http://www.w3.org/1999/xlink" x="0px" y="0px"
	 viewBox="0 0 500 500" style="enable-background:new 0 0 500 500;" xml:space="preserve">
<style type="text/css">
	.st0{fill:#FFED00;}
</style>
<rect x="30.1" y="52.1" width="443.4" height="192"/>
<rect x="30.1" y="257.9" class="st0" width="443.4" height="192"/>
<path class="st0" d="M45.5,104.3H83l16.8,55.1l18-55.1h35.6l-33.8,91.9H77.8L45.5,104.3z"/>
<path class="st0" d="M284.5,169.5h-45c0,0-1.4,6.7,7.8,9c15.4,3.8,31.2-1,32.8-3.1l0.3,18.1c0,0-74.1,19.7-74.1-31.9
	c0-10.8,3.4-19.6,10.1-26.3c6.8-6.7,16.1-10,28-10c9.7,0,17.3,1.5,22.9,4.5s9.9,7.3,12.8,13s4.4,14.6,4.4,23.7L284.5,169.5
	L284.5,169.5z M256.3,155.3c-0.4-5.1-1.3-8.8-2.8-11s-3.5-3.3-6-3.3c-2.9,0-5.2,1.7-6.9,5c-1.1,2.1-1.8,5.2-2.1,9.3H256.3z"/>
<path class="st0" d="M343,127.4h30.4c0,0,0,55.2,0,67.4s-10.2,31.1-43.7,30.3c-19.7-0.5-35.3-4.7-35.3-4.7s0.1-21.6,0.1-21.8
	c0,0,13.1,6.1,27,6.4c7.9,0.2,17.8-4.4,18.9-10.4c1-6,0.7-9.1,0.7-9.1c-2.7,3.2-5.4,5.5-8.1,6.9c-4.2,2.2-8.8,3.4-13.6,3.4
	c-9.5,0-17.3-4.2-23.1-12.5c-4.2-5.9-6.2-13.7-6.2-23.5c0-11.1,2.7-19.6,8.1-25.4c5.4-5.8,12.4-8.7,21.1-8.7
	c5.6,0,10.1,0.9,13.8,2.8c3.6,1.9,7,5,10.1,9.3L343,127.4L343,127.4z M325.1,161.1c0,4.6,0.8,8,2.3,10.2s3.5,3.3,6,3.3
	c2.4,0,4.3-1.1,5.9-3.4c1.6-2.3,2.4-5.7,2.4-10.3s-0.8-8.1-2.5-10.6c-1.7-2.4-3.7-3.7-6.2-3.7c-2.4,0-4.4,1.1-5.8,3.4
	C325.8,152.2,325.1,155.9,325.1,161.1z"/>
<path class="st0" d="M390.5,148.9l-0.1-19c0,0,8.1-4.3,31.3-4.3c38.6,0,38.7,21.2,38.7,24.5l-0.1,45.8H430l-0.1-9.5
	c-2.8,4.4-10.6,11.1-22.6,11.1c-8.4,0-14.7-1.9-19-5.8c-4.3-3.9-6.5-8.6-6.5-14.3c0-5.3,1.9-20.2,23.1-24.5c10.1-2,22,0.6,25.3-0.7
	c0-3.3-3.1-9.9-15.2-9.9C404.7,142.4,391.5,145.9,390.5,148.9z M429.9,165.5c-2.8,1-6.5,0.7-9.7,0.7c-10,0-8.3,9.8-6.1,12
	c2.7,2.7,8.4,1.5,10.4,0.4s3.3-2.4,4.1-3.9C429.5,173.1,429.9,165.5,429.9,165.5z"/>
<circle class="st0" cx="179.3" cy="88.2" r="24.5"/>
<path class="st0" d="M179.3,122.4c-5.4,0-10.6-1.3-15.1-3.6V196H198v-78.8h-0.6C192,120.5,185.9,122.4,179.3,122.4z"/>
</svg>
