<?xml version="1.0" encoding="utf-8"?>
<!-- Generator: Adobe Illustrator 19.1.0, SVG Export Plug-In . SVG Version: 6.00 Build 0)  -->
<svg version="1.1" id="Calque_1" xmlns="http://www.w3.org/2000/svg" xmlns:xlink="http://www.w3.org/1999/xlink" x="0px" y="0px"
	 viewBox="0 0 500 500" style="enable-background:new 0 0 500 500;" xml:space="preserve">
<style type="text/css">
	.st0{fill:#E0091D;}
	.st1{clip-path:url(#SVGID_2_);fill:#E0091D;}
	.st2{clip-path:url(#SVGID_4_);fill:#E0091D;}
	.st3{clip-path:url(#SVGID_6_);fill:#E0091D;}
	.st4{clip-path:url(#SVGID_8_);fill:#E0091D;}
	.st5{clip-path:url(#SVGID_10_);fill:#FFFFFF;}
	.st6{clip-path:url(#SVGID_12_);fill:#FFFFFF;}
	.st7{clip-path:url(#SVGID_14_);fill:#FFFFFF;}
	.st8{clip-path:url(#SVGID_16_);fill:#FFFFFF;}
	.st9{clip-path:url(#SVGID_18_);fill:#FFFFFF;}
	.st10{clip-path:url(#SVGID_20_);fill:#FFFFFF;}
</style>
<g>
	<path class="st0" d="M79.1,31.8h341.8v342.3H79.1V31.8z M72.8,380.4h354.3V25H72.8V380.4z"/>
	<g>
		<g>
			<defs>
				<rect id="SVGID_1_" x="72.8" y="25" width="354.3" height="450"/>
			</defs>
			<clipPath id="SVGID_2_">
				<use xlink:href="#SVGID_1_"  style="overflow:visible;"/>
			</clipPath>
			<path class="st1" d="M203,235.4c13.2,0,20.4-6.2,21.1-54.1s-17.3-48.6-24.6-48.6c-20.5,0-19.8,23.6-19.8,23.6s0.4,13.5,0,43.7
				C179.4,230.2,189.8,235.4,203,235.4"/>
		</g>
		<g>
			<defs>
				<rect id="SVGID_3_" x="72.8" y="25" width="354.3" height="450"/>
			</defs>
			<clipPath id="SVGID_4_">
				<use xlink:href="#SVGID_3_"  style="overflow:visible;"/>
			</clipPath>
			<path class="st2" d="M127.7,260V109.3C107.8,135.3,96,167.7,96,202.9s11.8,67.6,31.7,93.6V260z"/>
		</g>
		<g>
			<defs>
				<rect id="SVGID_5_" x="72.8" y="25" width="354.3" height="450"/>
			</defs>
			<clipPath id="SVGID_6_">
				<use xlink:href="#SVGID_5_"  style="overflow:visible;"/>
			</clipPath>
			<path class="st3" d="M179.7,98.4c0,0,8.7-11.1,23.9-11.4c15.3-0.3,37.5,3.1,52.4,31.2c14.9,28.1,12.5,68,12.5,68
				s-2.1,47.4-13.7,67.9c-11.6,20.5-23.6,26.1-36,27.2c-8,1-28,2.7-35.3-11.1v71.8c20.1,9.6,42.6,15,66.4,15c85,0,154-68.9,154-154
				c0-20.1-3.9-39.3-10.9-56.9l-68.3,133.8h-46.5v-189h46.5V172v0.7l38.2-74.4C334.8,67.9,294.6,48.9,250,48.9
				c-40.5,0-77.3,15.6-104.8,41.2h34.5L179.7,98.4L179.7,98.4z"/>
		</g>
		<g>
			<defs>
				<rect id="SVGID_7_" x="72.8" y="25" width="354.3" height="450"/>
			</defs>
			<clipPath id="SVGID_8_">
				<use xlink:href="#SVGID_7_"  style="overflow:visible;"/>
			</clipPath>
			<rect x="72.8" y="391.2" class="st4" width="354.3" height="83.8"/>
		</g>
		<g>
			<defs>
				<rect id="SVGID_9_" x="72.8" y="25" width="354.3" height="450"/>
			</defs>
			<clipPath id="SVGID_10_">
				<use xlink:href="#SVGID_9_"  style="overflow:visible;"/>
			</clipPath>
			<path class="st5" d="M110,463.7l-18.7-45h8.8l10.5,26.9c1.1,2.9,2.2,5.9,3.2,9.1c0.8-2.4,1.8-5.2,3.1-8.6l10.9-27.4h8.6l-18.6,45
				L110,463.7L110,463.7z"/>
		</g>
		<g>
			<defs>
				<rect id="SVGID_11_" x="72.8" y="25" width="354.3" height="450"/>
			</defs>
			<clipPath id="SVGID_12_">
				<use xlink:href="#SVGID_11_"  style="overflow:visible;"/>
			</clipPath>
			<path class="st6" d="M150.4,401.6h8.3v8.8h-8.3V401.6z M150.4,418.7h8.3v45h-8.3V418.7z"/>
		</g>
		<g>
			<defs>
				<rect id="SVGID_13_" x="72.8" y="25" width="354.3" height="450"/>
			</defs>
			<clipPath id="SVGID_14_">
				<use xlink:href="#SVGID_13_"  style="overflow:visible;"/>
			</clipPath>
			<path class="st7" d="M178,463.7v-45h7.5v6.4c3.6-4.9,8.8-7.4,15.6-7.4c3,0,5.7,0.5,8.2,1.5c2.5,1,4.3,2.3,5.6,3.8
				c1.2,1.6,2.1,3.5,2.6,5.6c0.3,1.4,0.5,3.9,0.5,7.4v27.7h-8.3v-27.4c0-3.1-0.3-5.4-1-7c-0.6-1.5-1.8-2.8-3.4-3.7
				c-1.6-0.9-3.6-1.4-5.8-1.4c-3.6,0-6.6,1-9.2,3.1c-2.6,2.1-3.9,6-3.9,11.7v24.6L178,463.7L178,463.7z"/>
		</g>
		<g>
			<defs>
				<rect id="SVGID_15_" x="72.8" y="25" width="354.3" height="450"/>
			</defs>
			<clipPath id="SVGID_16_">
				<use xlink:href="#SVGID_15_"  style="overflow:visible;"/>
			</clipPath>
			<path class="st8" d="M237.3,463.7v-45h7.5v6.3c1.6-2.2,3.6-4,6.1-5.3c2.6-1.3,5.5-2,8.8-2c3.6,0,6.6,0.7,8.9,2.1
				c2.3,1.4,4,3.3,4.9,5.8c3.9-5.3,8.9-7.9,15.1-7.9c4.9,0,8.6,1.2,11.2,3.7c2.6,2.5,3.9,6.3,3.9,11.4v30.9h-8.3v-28.3
				c0-3.1-0.3-5.2-0.8-6.6c-0.5-1.3-1.5-2.4-2.9-3.3c-1.4-0.8-3.1-1.2-5-1.2c-3.5,0-6.3,1.1-8.6,3.1c-2.3,2.1-3.4,5.5-3.4,10.1v26.1
				h-8.3v-29.2c0-3.4-0.7-5.9-2-7.6c-1.4-1.7-3.6-2.5-6.7-2.5c-2.3,0-4.5,0.6-6.5,1.7c-2,1.1-3.4,2.8-4.3,5
				c-0.9,2.2-1.4,5.3-1.4,9.4v23.3L237.3,463.7L237.3,463.7z"/>
		</g>
		<g>
			<defs>
				<rect id="SVGID_17_" x="72.8" y="25" width="354.3" height="450"/>
			</defs>
			<clipPath id="SVGID_18_">
				<use xlink:href="#SVGID_17_"  style="overflow:visible;"/>
			</clipPath>
			<path class="st9" d="M356.4,449.2l8.6,1c-1.4,4.6-3.9,8.2-7.5,10.7c-3.7,2.5-8.4,3.8-14,3.8c-7.2,0-12.9-2-17.1-6.1
				c-4.2-4.1-6.3-9.7-6.3-17c0-7.6,2.1-13.4,6.4-17.6c4.3-4.2,9.8-6.3,16.6-6.3c6.5,0,11.9,2,16.1,6.1c4.2,4.1,6.2,9.9,6.2,17.3
				c0,0.5,0,1.1,0,2h-36.6c0.3,4.9,1.8,8.7,4.6,11.4c2.7,2.6,6.2,3.9,10.3,3.9c3,0,5.6-0.7,7.8-2.2
				C353.4,454.7,355.1,452.4,356.4,449.2 M329.1,436.8h27.4c-0.4-3.8-1.4-6.6-3.2-8.5c-2.6-2.9-6.1-4.4-10.3-4.4
				c-3.8,0-7,1.2-9.6,3.5C330.8,429.8,329.3,432.9,329.1,436.8"/>
		</g>
		<g>
			<defs>
				<rect id="SVGID_19_" x="72.8" y="25" width="354.3" height="450"/>
			</defs>
			<clipPath id="SVGID_20_">
				<use xlink:href="#SVGID_19_"  style="overflow:visible;"/>
			</clipPath>
			<path class="st10" d="M382,463.7v-45h7.5v6.8c1.9-3.2,3.7-5.3,5.3-6.3c1.6-1,3.4-1.5,5.3-1.5c2.8,0,5.6,0.8,8.6,2.5l-2.9,7.1
				c-2-1.1-4.1-1.6-6.1-1.6c-1.8,0-3.5,0.5-4.9,1.5c-1.5,1-2.5,2.4-3.1,4.2c-0.9,2.7-1.4,5.7-1.4,8.9v23.5L382,463.7L382,463.7z"/>
		</g>
	</g>
</g>
</svg>
