<?xml version="1.0" encoding="utf-8"?>
<!-- Generator: Adobe Illustrator 21.0.2, SVG Export Plug-In . SVG Version: 6.00 Build 0)  -->
<svg version="1.1" id="Calque_1" xmlns="http://www.w3.org/2000/svg" xmlns:xlink="http://www.w3.org/1999/xlink" x="0px" y="0px"
	 viewBox="0 0 500 500" style="enable-background:new 0 0 500 500;" xml:space="preserve">
<style type="text/css">
	.st0{fill:#E0091D;}
	.st1{fill:#FFFFFF;}
</style>
<path class="st0" d="M79.1,31.8h341.8v342.3H79.1V31.8z M72.8,380.4h354.3V25H72.8V380.4z"/>
<path class="st0" d="M199.5,132.7c-20.5,0-19.8,23.6-19.8,23.6s0.4,13.5,0,43.7c-0.3,30.2,10.1,35.4,23.3,35.4s20.4-6.2,21.1-54.1
	S206.8,132.7,199.5,132.7z"/>
<path class="st0" d="M127.7,296.5V260V109.3c-19.9,26-31.7,58.4-31.7,93.6C96,238.1,107.8,270.5,127.7,296.5z"/>
<path class="st0" d="M324.7,279.9h-46.5v-189h46.5V172v0.7l38.2-74.4C334.8,67.9,294.6,48.9,250,48.9c-40.5,0-77.3,15.6-104.8,41.2
	h34.5v8.3c0,0,8.7-11.1,23.9-11.4c15.3-0.3,37.5,3.1,52.4,31.2c14.9,28.1,12.5,68,12.5,68s-2.1,47.4-13.7,67.9
	c-11.6,20.5-23.6,26.1-36,27.2c-8,1-28,2.7-35.3-11.1V342c20.1,9.6,42.6,15,66.4,15c85,0,154-68.9,154-154
	c0-20.1-3.9-39.3-10.9-56.9L324.7,279.9z"/>
<rect x="72.8" y="391.2" class="st0" width="354.3" height="83.8"/>
<path class="st1" d="M116.9,446.1c-1.3,3.4-2.3,6.2-3.1,8.6c-1-3.2-2.1-6.2-3.2-9.1l-10.5-26.9h-8.8l18.7,45h7.8l18.6-45h-8.6
	L116.9,446.1z"/>
<rect x="150.4" y="418.7" class="st1" width="8.3" height="45"/>
<rect x="150.4" y="401.6" class="st1" width="8.3" height="8.8"/>
<path class="st1" d="M214.9,423c-1.3-1.5-3.1-2.8-5.6-3.8s-5.2-1.5-8.2-1.5c-6.8,0-12,2.5-15.6,7.4v-6.4H178v45l8.4-0.1V439
	c0-5.7,1.3-9.6,3.9-11.7c2.6-2.1,5.6-3.1,9.2-3.1c2.2,0,4.2,0.5,5.8,1.4c1.6,0.9,2.8,2.2,3.4,3.7c0.7,1.6,1,3.9,1,7v27.4h8.3V436
	c0-3.5-0.2-6-0.5-7.4C217,426.5,216.1,424.6,214.9,423z"/>
<path class="st1" d="M288.6,417.7c-6.2,0-11.2,2.6-15.1,7.9c-0.9-2.5-2.6-4.4-4.9-5.8c-2.3-1.4-5.3-2.1-8.9-2.1
	c-3.3,0-6.2,0.7-8.8,2c-2.5,1.3-4.5,3.1-6.1,5.3v-6.3h-7.5v45h8.2v-23.3c0-4.1,0.5-7.2,1.4-9.4c0.9-2.2,2.3-3.9,4.3-5
	c2-1.1,4.2-1.7,6.5-1.7c3.1,0,5.3,0.8,6.7,2.5c1.3,1.7,2,4.2,2,7.6v29.2h8.3v-26.1c0-4.6,1.1-8,3.4-10.1c2.3-2,5.1-3.1,8.6-3.1
	c1.9,0,3.6,0.4,5,1.2c1.4,0.9,2.4,2,2.9,3.3c0.5,1.4,0.8,3.5,0.8,6.6v28.3h8.3v-30.9c0-5.1-1.3-8.9-3.9-11.4
	C297.2,418.9,293.5,417.7,288.6,417.7z"/>
<path class="st1" d="M343.1,417.7c-6.8,0-12.3,2.1-16.6,6.3s-6.4,10-6.4,17.6c0,7.3,2.1,12.9,6.3,17c4.2,4.1,9.9,6.1,17.1,6.1
	c5.6,0,10.3-1.3,14-3.8c3.6-2.5,6.1-6.1,7.5-10.7l-8.6-1c-1.3,3.2-3,5.5-4.9,7c-2.2,1.5-4.8,2.2-7.8,2.2c-4.1,0-7.6-1.3-10.3-3.9
	c-2.8-2.7-4.3-6.5-4.6-11.4h36.6c0-0.9,0-1.5,0-2c0-7.4-2-13.2-6.2-17.3C355,419.7,349.6,417.7,343.1,417.7z M329.1,436.8
	c0.2-3.9,1.7-7,4.3-9.4c2.6-2.3,5.8-3.5,9.6-3.5c4.2,0,7.7,1.5,10.3,4.4c1.8,1.9,2.8,4.7,3.2,8.5H329.1z"/>
<path class="st1" d="M394.8,419.2c-1.6,1-3.4,3.1-5.3,6.3v-6.8H382v45l8.3,0.1v-23.5c0-3.2,0.5-6.2,1.4-8.9c0.6-1.8,1.6-3.2,3.1-4.2
	c1.4-1,3.1-1.5,4.9-1.5c2,0,4.1,0.5,6.1,1.6l2.9-7.1c-3-1.7-5.8-2.5-8.6-2.5C398.2,417.7,396.4,418.2,394.8,419.2z"/>
</svg>
