<?xml version="1.0" encoding="utf-8"?>
<!-- Generator: Adobe Illustrator 15.0.0, SVG Export Plug-In . SVG Version: 6.00 Build 0)  -->
<!DOCTYPE svg PUBLIC "-//W3C//DTD SVG 1.1//EN" "http://www.w3.org/Graphics/SVG/1.1/DTD/svg11.dtd">
<svg version="1.1" id="Calque_1" xmlns="http://www.w3.org/2000/svg" xmlns:xlink="http://www.w3.org/1999/xlink" x="0px" y="0px"
	 width="500px" height="500px" viewBox="0 0 500 500" enable-background="new 0 0 500 500" xml:space="preserve">
<g>
	<path fill="#D32210" d="M95.167,199.217h30.03l19.654,66.943l21.881-66.943h27.336l-33.631,104.269h-30.876L95.167,199.217z"/>
	<path fill="#D32210" d="M195.175,199.396h27.79v104.63h-27.79V199.396z"/>
	<path fill="#D32210" d="M276.065,200.636c5.388-2.879,18.155-2.158,18.155-2.158l-0.893,23.915c0,0-5.759-2.336-17.084,1.618
		c-11.332,3.955-11.449,20.393-11.449,20.393v59.216h-29.79V199.396h30.031v12.39C265.036,211.786,270.664,203.512,276.065,200.636z
		"/>
	<path fill="#D32210" d="M384.024,198.99h31.886l18.692,25.484l17.249-25.484h32.56l-33.88,49.255l35.969,55.78h-30.622
		l-20.863-30.746l-19.956,30.746h-31.652l34.938-55.78L384.024,198.99z"/>
	<path fill="#D32210" d="M381.069,289.824l-0.356-63.474c0,0-0.537-9.17-6.117-16.544c-10.17-13.456-30.03-12.947-37.039-12.947
		c-7.01,0-19.421-0.36-32.725,8.271c-13.305,8.631-12.769,26.615-12.769,26.615h24.821c2.323-14.747,15.463-15.104,19.057-15.104
		s18.341,2.158,18.341,11.146c0,8.992-8.273,12.768-32.366,14.747c-24.094,1.976-36.862,11.508-36.862,30.745
		c0,19.242,16.177,32.189,37.397,32.189s31.652-12.047,31.652-12.047c-0.178,2.876,1.801,10.246,1.801,10.246h28.23
		C382.691,302.41,381.069,289.824,381.069,289.824z M330.368,287.127c0,0-15.29,1.258-15.29-12.947
		c0-14.207,12.403-13.847,16.361-14.564c3.959-0.723,20.864-1.979,21.936-5.756C353.375,253.859,358.24,287.127,330.368,287.127z"/>
	<path fill="#D32210" d="M56.244,235.26v20.115h23.57l-29.392,46.028l-29.116-46.028h12.754l16.645,26.344l9.428-16.916h-15.53
		V235.26c-16.28,2.773-28.684,16.909-28.684,33.979c0,19.056,15.448,34.508,34.504,34.508c19.057,0,34.512-15.452,34.512-34.508
		C84.935,252.169,72.53,238.033,56.244,235.26z"/>
</g>
</svg>
