<?xml version="1.0" encoding="utf-8"?>
<!-- Generator: Adobe Illustrator 19.1.0, SVG Export Plug-In . SVG Version: 6.00 Build 0)  -->
<svg version="1.1" id="Calque_1" xmlns="http://www.w3.org/2000/svg" xmlns:xlink="http://www.w3.org/1999/xlink" x="0px" y="0px"
	 viewBox="0 0 500 500" style="enable-background:new 0 0 500 500;" xml:space="preserve">
<style type="text/css">
	.st0{fill:#D32210;}
</style>
<g>
	<path class="st0" d="M95.2,199.2h30l19.7,66.9l21.9-66.9h27.3l-33.6,104.3h-30.9L95.2,199.2z"/>
	<path class="st0" d="M195.2,199.4H223V304h-27.8L195.2,199.4L195.2,199.4z"/>
	<path class="st0" d="M276.1,200.6c5.4-2.9,18.2-2.2,18.2-2.2l-0.9,23.9c0,0-5.8-2.3-17.1,1.6c-11.3,4-11.4,20.4-11.4,20.4v59.2H235
		V199.4h30v12.4C265,211.8,270.7,203.5,276.1,200.6z"/>
	<path class="st0" d="M384,199h31.9l18.7,25.5l17.2-25.5h32.6l-33.9,49.3l36,55.8h-30.6L435,273.3l-20,30.7h-31.7l34.9-55.8L384,199
		z"/>
	<path class="st0" d="M381.1,289.8l-0.4-63.5c0,0-0.5-9.2-6.1-16.5c-10.2-13.5-30-12.9-37-12.9c-7,0-19.4-0.4-32.7,8.3
		c-13.3,8.6-12.8,26.6-12.8,26.6h24.8c2.3-14.7,15.5-15.1,19.1-15.1s18.3,2.2,18.3,11.1c0,9-8.3,12.8-32.4,14.7
		c-24.1,2-36.9,11.5-36.9,30.7c0,19.2,16.2,32.2,37.4,32.2s31.7-12,31.7-12c-0.2,2.9,1.8,10.2,1.8,10.2h28.2
		C382.7,302.4,381.1,289.8,381.1,289.8z M330.4,287.1c0,0-15.3,1.3-15.3-12.9c0-14.2,12.4-13.8,16.4-14.6c4-0.7,20.9-2,21.9-5.8
		C353.4,253.9,358.2,287.1,330.4,287.1z"/>
	<path class="st0" d="M56.2,235.3v20.1h23.6l-29.4,46l-29.1-46h12.8l16.6,26.3l9.4-16.9H44.6v-29.5c-16.3,2.8-28.7,16.9-28.7,34
		c0,19.1,15.4,34.5,34.5,34.5c19.1,0,34.5-15.5,34.5-34.5C84.9,252.2,72.5,238,56.2,235.3z"/>
</g>
</svg>
