<?xml version="1.0" encoding="utf-8"?>
<!-- Generator: Adobe Illustrator 21.0.2, SVG Export Plug-In . SVG Version: 6.00 Build 0)  -->
<svg version="1.1" id="Calque_1" xmlns="http://www.w3.org/2000/svg" xmlns:xlink="http://www.w3.org/1999/xlink" x="0px" y="0px"
	 viewBox="0 0 500 224" style="enable-background:new 0 0 500 224;" xml:space="preserve">
<style type="text/css">
	.st0{fill:#323230;}
</style>
<path class="st0" d="M360.3,103.5c4,2.9-5.4,18.6-10.7,15.2C344.9,115.4,356.3,100.6,360.3,103.5 M181.2,122.7
	c1.9,4.8-5.7,17.6-5.7,17.6H196c0,0,9.5-26.1,15.2-28.1s3.9,2.8,10.5,2.6c6.5-0.2,4.3-2.4,7.1-0.7c2.9,1.7-27.6,26.6-27.6,26.6
	l5.9-0.1c0,0,15.5-16.5,18.3-16.5s-3.8,13.6,5.2,17c13.8,0,22.8-16.2,26.7-15.5c3.8,0.7-4.3,14.9,8.4,15.8c12.7,1,20.7-15,23.4-14.5
	c2.7,0.5-0.5,16.8,8.6,17.1c9,0.4,18.1-12.6,22.4-12.4s3.9,12,17.6,13.3c14.2-1.3,52.7-34.6,58.1-36.6s3.3,17.6,3.3,17.6l-4.3,0.4
	c0,0,0.4-3.4-10.4-3c-10.7,0.5-18.4,10.5-13.5,16.9c14.3,8.4,25.2-8.8,25.2-8.8h4.1c0,0-0.4,12.8,13.8,12.8
	c14.2,0,34.8-23.2,35.9-24c1.2-0.8,4.3-3.1,1.4-5.7c-2.9-2.6-8.8,5.8-7.2,3.8c1.7-2-12.5,17-21.4,12.8s-3.7-17.1-1-19
	s7.4,7.7,14.8,6.2c7.4-1.6,11.4-9.8,11.4-12.1c0-2.4-2.6-9.6-9.5-9.5s-13.1,9.6-19.5,9.8c-6.4,0.1-3.2-10.5-11.4-10
	c-8.2,0.5-12.8,5.7-12.8,5.7c4.1-3.3-51.4,36.5-54.5,36.3s-1.8-12.3,3.8-13.9c5.6-1.7,10.4-0.3,11.7-0.2c1.3,0.1,15.9-3.6,18.2-15.1
	c0.5-0.7-0.5-10.9-16.8-11.8c-13.5,0.2-36.7,29.3-40.5,28.1s9-22.8,9-22.8h11.9l1.9-5.2h-10.5l5-17.2l-18.8,0.1l-9,17.6l-8.2-0.1
	l-1.7,4.8l7,0.1c0,0-18.2,24.7-21.9,24.3c-3.7-0.5,10-29.5,10-29.5l-16.5,0.2c0,0-26.2,31.7-29,30.2c-2.9-1.4,11.8-30.9,11.8-30.9
	l-18.6,1c0,0-4.2,10.7-5.8,10.1c-1.7-0.6,1.5-10.4-8.5-10s-6.4,5.4-10.5,5.1c-4-0.2-3.8-4.8-3.8-4.8h-17.1c0,0-23.8,30.2-27.6,29
	c-3.8-1.2,10.9-29.5,10.9-29.5h-17.4L117,137.4l5.2,1.4c0,0,20.9-22.1,25.7-22.4c4.8-0.2-17.1,25,2.4,27.1
	C170.3,140.8,179.3,117.9,181.2,122.7"/>
<path class="st0" d="M172.4,77c-15.9,0.7-10.5,15.2-0.2,14.8C182.4,91.3,188.4,76.3,172.4,77"/>
<path class="st0" d="M377.5,43.2c-48.1-8.4-132.6-12.6-178.3,1.3C156.6,54.6,75.4,148.9,69.4,146s30.5-64.7,30.5-64.7
	s12.7-17.8,4.1-27.6S27.9,70.8,27.9,70.8S81.2,55.6,78,67s-38.7,90.7-38.7,90.7l22.5,0.3c0,0,15.5-4.8,26-14.9
	c10.5-10.2,55.8-81.5,123.7-83.1c18.1,0,72.3-11.7,158.3,0.3c12.4,1.6,99.9,19.9,100.3,49.2s-78.5,57.4-153.6,61.9
	C246.9,171,166.7,154,166.7,154s94.9,38.4,151.4,36.2c61.6-0.6,154.5-16.2,158-81.5C477.4,108.6,475.2,66.7,377.5,43.2"/>
<path class="st0" d="M83.5,164.2c-2.4,0-4.4-2-4.4-4.4s2-4.4,4.4-4.4s4.4,2,4.4,4.4C87.9,162.3,86,164.2,83.5,164.2 M83.5,154.4
	c-3,0-5.4,2.4-5.4,5.4s2.4,5.4,5.4,5.4s5.4-2.4,5.4-5.4C89,156.8,86.6,154.4,83.5,154.4"/>
<path class="st0" d="M81.6,156.6c0.4-0.1,1-0.1,1.6-0.1c0.9,0,1.5,0.2,1.9,0.5c0.3,0.3,0.5,0.7,0.5,1.2c0,0.8-0.5,1.4-1.2,1.6l0,0
	c0.5,0.2,0.8,0.6,0.9,1.3c0.2,0.9,0.4,1.5,0.5,1.8h-0.9c-0.1-0.2-0.2-0.7-0.4-1.5c-0.2-0.9-0.5-1.2-1.3-1.3h-0.8v2.8h-0.8
	L81.6,156.6L81.6,156.6z M82.4,159.5h0.9c0.9,0,1.5-0.5,1.5-1.2c0-0.8-0.6-1.2-1.5-1.2c-0.4,0-0.7,0-0.8,0.1L82.4,159.5L82.4,159.5z
	"/>
</svg>
