<?xml version="1.0" encoding="utf-8"?>
<!-- Generator: Adobe Illustrator 15.0.0, SVG Export Plug-In . SVG Version: 6.00 Build 0)  -->
<!DOCTYPE svg PUBLIC "-//W3C//DTD SVG 1.1//EN" "http://www.w3.org/Graphics/SVG/1.1/DTD/svg11.dtd">
<svg version="1.1" id="Calque_1" xmlns="http://www.w3.org/2000/svg" xmlns:xlink="http://www.w3.org/1999/xlink" x="0px" y="0px"
	 width="500px" height="500px" viewBox="0 0 500 500" enable-background="new 0 0 500 500" xml:space="preserve">
<path fill="#323230" d="M360.284,241.548c3.993,2.905-5.419,18.557-10.662,15.229C344.869,253.442,356.29,238.643,360.284,241.548
	 M181.231,260.677c1.903,4.759-5.729,17.611-5.729,17.611h20.479c0,0,9.518-26.06,15.229-28.074
	c5.711-2.034,3.938,2.849,10.476,2.612c6.543-0.236,4.279-2.382,7.141-0.715c2.85,1.66-27.607,26.649-27.607,26.649l5.947-0.118
	c0,0,15.471-16.534,18.333-16.534c2.842,0-3.814,13.566,5.23,17.013c13.798,0,22.843-16.18,26.657-15.477
	c3.8,0.722-4.286,14.88,8.441,15.825c12.74,0.958,20.715-14.985,23.439-14.513c2.737,0.479-0.474,16.777,8.572,17.139
	c9.044,0.354,18.078-12.604,22.37-12.38c4.285,0.242,3.932,12.019,17.61,13.331c14.165-1.312,52.709-34.624,58.077-36.641
	c5.35-2.027,3.328,17.604,3.328,17.604l-4.291,0.35c0,0,0.36-3.446-10.352-2.968c-10.713,0.479-18.439,10.47-13.45,16.896
	c14.282,8.441,25.231-8.796,25.231-8.796h4.057c0,0-0.361,12.84,13.791,12.84c14.165,0,34.756-23.204,35.943-24.031
	c1.176-0.834,4.273-3.092,1.425-5.711c-2.854-2.619-8.809,5.829-7.154,3.808c1.681-2.022-12.479,17.014-21.398,12.846
	c-8.922-4.162-3.689-17.132-0.959-19.029c2.737-1.91,7.378,7.727,14.762,6.184c7.378-1.55,11.416-9.761,11.416-12.137
	c0-2.383-2.613-9.643-9.519-9.519c-6.904,0.118-13.088,9.637-19.521,9.754c-6.419,0.125-3.197-10.463-11.421-9.996
	c-8.212,0.479-12.846,5.711-12.846,5.711c4.062-3.26-51.365,36.491-54.501,36.292c-3.135-0.199-1.785-12.255,3.808-13.923
	c5.599-1.666,10.357-0.329,11.67-0.211c1.307,0.112,15.938-3.596,18.189-15.136c0.474-0.709-0.467-10.948-16.771-11.781
	c-13.499,0.187-36.652,29.274-40.454,28.08c-3.807-1.182,9.04-22.843,9.04-22.843h11.899l1.903-5.237h-10.469l5.002-17.25
	l-18.812,0.117l-9.032,17.611l-8.211-0.118l-1.667,4.759l7.022,0.118c0,0-18.208,24.746-21.892,24.268
	c-3.694-0.473,9.984-29.505,9.984-29.505l-16.534,0.236c0,0-26.184,31.657-29.045,30.221c-2.85-1.425,11.783-30.931,11.783-30.931
	l-18.558,0.952c0,0-4.161,10.706-5.829,10.115c-1.667-0.598,1.543-10.357-8.453-9.99c-9.984,0.354-6.427,5.35-10.47,5.112
	c-4.044-0.241-3.808-4.759-3.808-4.759h-17.131c0,0-23.794,30.215-27.607,29.026c-3.808-1.188,10.948-29.505,10.948-29.505h-17.381
	l-42.593,39.502l5.244,1.431c0,0,20.939-22.134,25.704-22.376c4.753-0.236-17.138,24.982,2.364,27.129
	C170.283,278.761,179.328,255.918,181.231,260.677"/>
<path fill="#323230" d="M172.428,214.991c-15.949,0.716-10.475,15.235-0.249,14.756
	C182.419,229.269,188.373,214.276,172.428,214.991"/>
<path fill="#323230" d="M377.49,181.201c-48.11-8.374-132.577-12.628-178.337,1.269C156.64,192.622,75.397,286.854,69.375,283.998
	c-6.028-2.861,30.457-64.727,30.457-64.727s12.69-17.767,4.125-27.602c-8.566-9.834-76.149,17.132-76.149,17.132
	s53.312-15.229,50.133-3.801c-3.172,11.422-38.712,90.736-38.712,90.736l22.538,0.317c0,0,15.533-4.759,26.015-14.918
	c10.47-10.152,55.844-81.535,123.75-83.122c18.09,0,72.349-11.738,158.338,0.317c12.373,1.586,99.888,19.863,100.261,49.182
	c0.392,29.312-78.457,57.374-153.573,61.865c-69.554-0.354-149.777-17.448-149.777-17.448s94.878,38.388,151.37,36.167
	c61.562-0.628,154.537-16.18,158.026-81.542C477.44,246.556,475.206,204.678,377.49,181.201"/>
<path fill="#323230" d="M83.546,302.25c-2.432,0-4.392-1.965-4.392-4.397c0-2.427,1.959-4.392,4.392-4.392
	c2.426,0,4.392,1.965,4.392,4.392C87.938,300.285,85.972,302.25,83.546,302.25 M83.546,292.416c-3.011,0-5.437,2.432-5.437,5.437
	c0,3.011,2.426,5.443,5.437,5.443c3.011,0,5.438-2.433,5.438-5.443C88.984,294.848,86.558,292.416,83.546,292.416"/>
<g>
	<path fill="#323230" d="M81.586,294.593c0.417-0.087,1.033-0.144,1.593-0.144c0.889,0,1.475,0.175,1.872,0.535
		c0.317,0.274,0.51,0.722,0.51,1.22c0,0.846-0.547,1.405-1.213,1.643v0.024c0.485,0.174,0.784,0.635,0.945,1.3
		c0.205,0.896,0.361,1.518,0.485,1.767h-0.858c-0.106-0.18-0.249-0.74-0.423-1.536c-0.192-0.89-0.542-1.226-1.3-1.257h-0.784v2.793
		h-0.828V294.593z M82.415,297.517h0.852c0.89,0,1.456-0.485,1.456-1.226c0-0.827-0.604-1.194-1.487-1.194
		c-0.398,0-0.678,0.037-0.821,0.081V297.517z"/>
</g>
</svg>
