<?xml version="1.0" encoding="utf-8"?>
<!-- Generator: Adobe Illustrator 19.1.0, SVG Export Plug-In . SVG Version: 6.00 Build 0)  -->
<svg version="1.1" id="Calque_1" xmlns="http://www.w3.org/2000/svg" xmlns:xlink="http://www.w3.org/1999/xlink" x="0px" y="0px"
	 viewBox="0 0 500 500" style="enable-background:new 0 0 500 500;" xml:space="preserve">
<style type="text/css">
	.st0{fill:#323230;}
</style>
<path class="st0" d="M360.3,241.5c4,2.9-5.4,18.6-10.7,15.2C344.9,253.4,356.3,238.6,360.3,241.5 M181.2,260.7
	c1.9,4.8-5.7,17.6-5.7,17.6H196c0,0,9.5-26.1,15.2-28.1c5.7-2,3.9,2.8,10.5,2.6c6.5-0.2,4.3-2.4,7.1-0.7
	c2.9,1.7-27.6,26.6-27.6,26.6l5.9-0.1c0,0,15.5-16.5,18.3-16.5c2.8,0-3.8,13.6,5.2,17c13.8,0,22.8-16.2,26.7-15.5
	c3.8,0.7-4.3,14.9,8.4,15.8c12.7,1,20.7-15,23.4-14.5c2.7,0.5-0.5,16.8,8.6,17.1c9,0.4,18.1-12.6,22.4-12.4
	c4.3,0.2,3.9,12,17.6,13.3c14.2-1.3,52.7-34.6,58.1-36.6c5.4-2,3.3,17.6,3.3,17.6l-4.3,0.4c0,0,0.4-3.4-10.4-3
	c-10.7,0.5-18.4,10.5-13.5,16.9c14.3,8.4,25.2-8.8,25.2-8.8h4.1c0,0-0.4,12.8,13.8,12.8c14.2,0,34.8-23.2,35.9-24
	c1.2-0.8,4.3-3.1,1.4-5.7c-2.9-2.6-8.8,5.8-7.2,3.8c1.7-2-12.5,17-21.4,12.8c-8.9-4.2-3.7-17.1-1-19c2.7-1.9,7.4,7.7,14.8,6.2
	c7.4-1.6,11.4-9.8,11.4-12.1c0-2.4-2.6-9.6-9.5-9.5c-6.9,0.1-13.1,9.6-19.5,9.8c-6.4,0.1-3.2-10.5-11.4-10
	c-8.2,0.5-12.8,5.7-12.8,5.7c4.1-3.3-51.4,36.5-54.5,36.3c-3.1-0.2-1.8-12.3,3.8-13.9c5.6-1.7,10.4-0.3,11.7-0.2
	c1.3,0.1,15.9-3.6,18.2-15.1c0.5-0.7-0.5-10.9-16.8-11.8c-13.5,0.2-36.7,29.3-40.5,28.1c-3.8-1.2,9-22.8,9-22.8h11.9l1.9-5.2h-10.5
	l5-17.2l-18.8,0.1l-9,17.6l-8.2-0.1l-1.7,4.8l7,0.1c0,0-18.2,24.7-21.9,24.3c-3.7-0.5,10-29.5,10-29.5l-16.5,0.2
	c0,0-26.2,31.7-29,30.2c-2.9-1.4,11.8-30.9,11.8-30.9l-18.6,1c0,0-4.2,10.7-5.8,10.1c-1.7-0.6,1.5-10.4-8.5-10
	c-10,0.4-6.4,5.4-10.5,5.1c-4-0.2-3.8-4.8-3.8-4.8h-17.1c0,0-23.8,30.2-27.6,29c-3.8-1.2,10.9-29.5,10.9-29.5h-17.4L117,275.4
	l5.2,1.4c0,0,20.9-22.1,25.7-22.4c4.8-0.2-17.1,25,2.4,27.1C170.3,278.8,179.3,255.9,181.2,260.7"/>
<path class="st0" d="M172.4,215c-15.9,0.7-10.5,15.2-0.2,14.8C182.4,229.3,188.4,214.3,172.4,215"/>
<path class="st0" d="M377.5,181.2c-48.1-8.4-132.6-12.6-178.3,1.3C156.6,192.6,75.4,286.9,69.4,284c-6-2.9,30.5-64.7,30.5-64.7
	s12.7-17.8,4.1-27.6c-8.6-9.8-76.1,17.1-76.1,17.1s53.3-15.2,50.1-3.8c-3.2,11.4-38.7,90.7-38.7,90.7l22.5,0.3c0,0,15.5-4.8,26-14.9
	c10.5-10.2,55.8-81.5,123.7-83.1c18.1,0,72.3-11.7,158.3,0.3c12.4,1.6,99.9,19.9,100.3,49.2c0.4,29.3-78.5,57.4-153.6,61.9
	c-69.6-0.4-149.8-17.4-149.8-17.4s94.9,38.4,151.4,36.2c61.6-0.6,154.5-16.2,158-81.5C477.4,246.6,475.2,204.7,377.5,181.2"/>
<path class="st0" d="M83.5,302.2c-2.4,0-4.4-2-4.4-4.4c0-2.4,2-4.4,4.4-4.4c2.4,0,4.4,2,4.4,4.4C87.9,300.3,86,302.2,83.5,302.2
	 M83.5,292.4c-3,0-5.4,2.4-5.4,5.4c0,3,2.4,5.4,5.4,5.4c3,0,5.4-2.4,5.4-5.4C89,294.8,86.6,292.4,83.5,292.4"/>
<g>
	<path class="st0" d="M81.6,294.6c0.4-0.1,1-0.1,1.6-0.1c0.9,0,1.5,0.2,1.9,0.5c0.3,0.3,0.5,0.7,0.5,1.2c0,0.8-0.5,1.4-1.2,1.6v0
		c0.5,0.2,0.8,0.6,0.9,1.3c0.2,0.9,0.4,1.5,0.5,1.8h-0.9c-0.1-0.2-0.2-0.7-0.4-1.5c-0.2-0.9-0.5-1.2-1.3-1.3h-0.8v2.8h-0.8
		L81.6,294.6L81.6,294.6z M82.4,297.5h0.9c0.9,0,1.5-0.5,1.5-1.2c0-0.8-0.6-1.2-1.5-1.2c-0.4,0-0.7,0-0.8,0.1V297.5z"/>
</g>
</svg>
