<?xml version="1.0" encoding="utf-8"?>
<!-- Generator: Adobe Illustrator 15.0.0, SVG Export Plug-In . SVG Version: 6.00 Build 0)  -->
<!DOCTYPE svg PUBLIC "-//W3C//DTD SVG 1.1//EN" "http://www.w3.org/Graphics/SVG/1.1/DTD/svg11.dtd">
<svg version="1.1" id="Calque_1" xmlns="http://www.w3.org/2000/svg" xmlns:xlink="http://www.w3.org/1999/xlink" x="0px" y="0px"
	 width="500px" height="500px" viewBox="0 0 500 500" enable-background="new 0 0 500 500" xml:space="preserve">
<g>
	<polygon fill="#1B4892" points="19.5,101.311 89.494,101.311 123.781,218.631 123.781,99.861 149.371,99.861 149.371,290.084 
		89.983,290.084 	"/>
	<polygon fill="#1B4892" points="157.566,101.311 184.007,101.311 184.007,217.181 211.168,100.945 254.262,100.945 
		274.174,222.974 298.793,101.311 362.16,101.311 308.569,291.772 255.699,291.772 234.709,193.645 212.257,291.413 
		158.657,291.413 	"/>
	<rect x="162.22" y="240.836" fill="#FFFFFF" width="13.58" height="44.905"/>
	<path fill="#FFFFFF" d="M179.822,224.968c0,5.449-4.425,9.864-9.875,9.864s-9.874-4.415-9.874-9.864
		c0-5.449,4.425-9.868,9.874-9.868S179.822,219.519,179.822,224.968z"/>
	<g>
		<path fill="#FFFFFF" d="M182.634,272.024c2.593,1.775,7.988,3.765,12.163,3.765c4.273,0,6.038-1.568,6.038-4.185
			c0-2.719-1.395-3.979-6.594-5.961c-9.471-3.455-13.09-9.313-13.002-15.274c0-9.631,7.248-16.846,18.484-16.846
			c5.297,0,9.94,1.461,12.73,3.03l-2.419,10.882c-2.048-1.149-6.039-2.822-9.853-2.822c-3.433,0-5.384,1.568-5.384,4.076
			c0,2.513,1.765,3.771,7.346,5.967c8.631,3.242,12.163,8.261,12.25,15.694c0,9.623-6.583,16.632-19.596,16.632
			c-5.939,0-11.236-1.569-14.67-3.662L182.634,272.024z"/>
	</g>
	<g>
		<g>
			<path fill="#1B4892" d="M346.291,291.359c-13.667,0-24.185-9.608-24.185-25.755c0-16.151,9.939-26.473,25.046-26.473
				c14.244,0,23.813,10.528,23.813,25.656c0,18.189-12.141,26.571-24.576,26.571H346.291z M346.574,280.22
				c5.744,0,9.286-6.031,9.286-15.024c0-7.361-2.683-14.926-9.286-14.926c-6.876,0-9.548,7.564-9.548,15.025
				c0,8.483,3.335,14.925,9.46,14.925H346.574z"/>
			<path fill="#1B4892" d="M401.744,291.359c-13.667,0-24.195-9.608-24.195-25.755c0-16.151,9.952-26.473,25.056-26.473
				c14.244,0,23.803,10.528,23.803,25.656c0,18.189-12.141,26.571-24.566,26.571H401.744z M402.028,280.22
				c5.743,0,9.273-6.031,9.273-15.024c0-7.361-2.68-14.926-9.273-14.926c-6.89,0-9.559,7.564-9.559,15.025
				c0,8.483,3.346,14.925,9.459,14.925H402.028z"/>
			<path fill="#1B4892" d="M481.001,217.666v57.65c0,5.722,0.185,11.548,0.381,14.92h-12.904l-0.578-7.258h-0.284
				c-2.865,5.521-8.608,8.382-14.625,8.382c-11.095,0-19.989-10.12-19.989-25.655c-0.098-16.764,9.757-26.572,20.938-26.572
				c5.831,0,10.233,2.244,12.337,5.619h0.188v-27.085H481.001z M466.463,261.513c0-0.916,0-1.94-0.188-2.861
				c-0.86-4.19-4.021-7.563-8.511-7.563c-6.691,0-10.039,6.337-10.039,14.207c0,8.38,3.924,13.699,9.94,13.699
				c4.207,0,7.65-3.069,8.512-7.461c0.196-1.023,0.285-2.25,0.285-3.477V261.513z"/>
		</g>
		<g>
			<path fill="#1B4892" d="M346.291,291.359c-13.667,0-24.185-9.608-24.185-25.755c0-16.151,9.939-26.473,25.046-26.473
				c14.244,0,23.813,10.528,23.813,25.656c0,18.189-12.141,26.571-24.576,26.571H346.291z M346.574,280.22
				c5.744,0,9.286-6.031,9.286-15.024c0-7.361-2.683-14.926-9.286-14.926c-6.876,0-9.548,7.564-9.548,15.025
				c0,8.483,3.335,14.925,9.46,14.925H346.574z"/>
			<path fill="#1B4892" d="M401.744,291.359c-13.667,0-24.195-9.608-24.195-25.755c0-16.151,9.952-26.473,25.056-26.473
				c14.244,0,23.803,10.528,23.803,25.656c0,18.189-12.141,26.571-24.566,26.571H401.744z M402.028,280.22
				c5.743,0,9.273-6.031,9.273-15.024c0-7.361-2.68-14.926-9.273-14.926c-6.89,0-9.559,7.564-9.559,15.025
				c0,8.483,3.346,14.925,9.459,14.925H402.028z"/>
			<path fill="#1B4892" d="M481.001,217.666v57.65c0,5.722,0.185,11.548,0.381,14.92h-12.904l-0.578-7.258h-0.284
				c-2.865,5.521-8.608,8.382-14.625,8.382c-11.095,0-19.989-10.12-19.989-25.655c-0.098-16.764,9.757-26.572,20.938-26.572
				c5.831,0,10.233,2.244,12.337,5.619h0.188v-27.085H481.001z M466.463,261.513c0-0.916,0-1.94-0.188-2.861
				c-0.86-4.19-4.021-7.563-8.511-7.563c-6.691,0-10.039,6.337-10.039,14.207c0,8.38,3.924,13.699,9.94,13.699
				c4.207,0,7.65-3.069,8.512-7.461c0.196-1.023,0.285-2.25,0.285-3.477V261.513z"/>
		</g>
	</g>
	<path fill="none" d="M233.619,358.349"/>
	<g>
		<polyline fill="#1B4892" points="233.935,241.018 226.458,255.715 226.469,387.241 242.556,387.241 242.556,255.474 
			233.935,241.018 		"/>
		<path fill="#1B4892" d="M234.512,281.959"/>
	</g>
	<path fill="none" d="M234.295,357.63"/>
	<g>
		<path d="M229.389,358.512"/>
	</g>
	<polygon fill="#B0C2CD" points="245.117,352.824 242.272,356.311 226.534,361.231 223.503,359.728 223.375,358.827 226.207,355.34 
		241.967,350.419 244.996,351.925 	"/>
	<polygon fill="#1B4892" points="244.659,352.061 242.032,350.512 226.425,355.199 225.173,356.822 	"/>
	<line fill="none" x1="223.918" y1="358.131" x2="244.551" y2="353.052"/>
	<polygon fill="#B0C2CD" points="245.105,342.448 242.272,345.935 226.534,350.855 223.503,349.346 223.375,348.447 226.207,344.96 
		241.967,340.049 244.996,341.549 	"/>
	<polygon fill="#1B4892" points="244.659,341.695 242.032,340.142 226.425,344.829 225.173,346.453 	"/>
	<line fill="none" x1="224.006" y1="347.755" x2="244.616" y2="342.676"/>
	<polygon fill="#B0C2CD" points="245.105,331.729 242.272,335.216 226.534,340.136 223.494,338.638 223.375,337.732 226.207,334.24 
		241.967,329.326 244.996,330.829 	"/>
	<polygon fill="#1B4892" points="244.659,330.972 242.032,329.429 226.425,334.099 225.173,335.732 	"/>
	<line fill="none" x1="224.006" y1="337.036" x2="244.616" y2="331.957"/>
	<polygon fill="#B0C2CD" points="245.105,321.016 242.272,324.496 226.534,329.429 223.494,327.919 223.375,327.014 
		226.207,323.532 241.967,318.616 244.986,320.115 	"/>
	<polygon fill="#1B4892" points="244.659,320.257 242.032,318.692 226.425,323.392 225.173,325.021 	"/>
	<line fill="none" x1="223.918" y1="326.328" x2="244.551" y2="321.249"/>
	<polygon fill="#B0C2CD" points="245.105,310.409 242.272,313.902 226.534,318.813 223.494,317.32 223.375,316.41 226.207,312.916 
		241.957,308.013 244.986,309.506 	"/>
	<polygon fill="#1B4892" points="244.649,309.652 242.032,308.105 226.425,312.779 225.173,314.415 	"/>
	<line fill="none" x1="223.776" y1="315.831" x2="244.407" y2="310.755"/>
	<polygon fill="#B0C2CD" points="245.105,289.423 242.272,292.918 226.534,297.839 223.494,296.333 223.375,295.436 
		226.207,291.941 241.957,287.032 244.986,288.53 	"/>
	<polygon fill="#1B4892" points="244.649,288.672 242.032,287.124 226.425,291.8 225.173,293.435 	"/>
	<line fill="none" x1="223.776" y1="294.852" x2="244.398" y2="289.777"/>
	<polygon fill="#B0C2CD" points="245.105,300.039 242.272,303.527 226.534,308.443 223.494,306.943 223.375,306.034 
		226.207,302.545 241.957,297.637 244.986,299.141 	"/>
	<polygon fill="#1B4892" points="244.649,299.276 242.032,297.719 226.425,302.409 225.173,304.045 	"/>
	<line fill="none" x1="223.854" y1="305.457" x2="244.473" y2="300.378"/>
	<polygon fill="#B0C2CD" points="236.976,244.805 236.083,245.921 231.047,247.497 230.066,247.018 230.022,246.727 
		230.939,245.611 235.973,244.042 236.953,244.521 	"/>
	<polygon fill="#1B4892" points="236.844,244.56 235.995,244.069 231.003,245.567 230.611,246.09 	"/>
	<polygon fill="#B0C2CD" points="241.16,250.079 239.11,252.598 227.777,256.141 225.597,255.061 225.498,254.406 227.548,251.899 
		238.882,248.363 241.062,249.442 	"/>
	<polygon fill="#1B4892" points="240.834,249.545 238.938,248.429 227.7,251.801 226.795,252.974 	"/>
	<path fill="#749BB0" d="M230.25,353.418c-0.861-0.812-0.926-2.078-0.141-2.999l-3.193,1.26l-0.077,2.882L230.25,353.418z"/>
	<path fill="#749BB0" d="M230.25,342.806c-0.861-0.806-0.926-2.075-0.141-2.996l-3.193,1.269l-0.077,2.885L230.25,342.806z"/>
	<path fill="#749BB0" d="M230.25,332.093c-0.861-0.816-0.926-2.076-0.141-2.991l-3.193,1.259l-0.077,2.877L230.25,332.093z"/>
	<path fill="#749BB0" d="M230.25,321.368c-0.861-0.807-0.926-2.076-0.141-2.997l-3.193,1.27l-0.077,2.885L230.25,321.368z"/>
	<path fill="#749BB0" d="M230.25,310.883c-0.861-0.812-0.926-2.08-0.141-3.001l-3.193,1.27l-0.077,2.883L230.25,310.883z"/>
	<path fill="#749BB0" d="M230.25,300.399c-0.861-0.812-0.926-2.082-0.141-3.002l-3.193,1.27l-0.077,2.876L230.25,300.399z"/>
	<path fill="#749BB0" d="M227.058,259.219l2.693-0.703c0,0-1.004-1.264,0-2.633l-2.126,0.917l-0.72-0.578L227.058,259.219z"/>
	<path fill="#749BB0" d="M230.6,250.346c0-1.847,1.209-2.54,1.492-2.758l-1.197,0.333l-1.506,2.883L230.6,250.346z"/>
	<g>
		<polygon fill="#1B4892" points="214.632,391.48 227.385,378.599 241.814,378.599 254.826,391.469 		"/>
		<path fill="#1B4892" d="M234.73,383.623"/>
	</g>
	<polygon fill="#B0C2CD" points="245.117,363.547 242.272,367.035 226.534,371.944 223.503,370.44 223.375,369.546 226.207,366.049 
		241.967,361.133 244.996,362.637 	"/>
	<polygon fill="#1B4892" points="244.659,362.779 242.032,361.236 226.425,365.913 225.182,367.547 	"/>
	<line fill="none" x1="224.006" y1="368.844" x2="244.616" y2="363.771"/>
	<path fill="#749BB0" d="M230.25,363.896c-0.861-0.802-0.926-2.072-0.141-2.992l-3.183,1.266l-0.087,2.882L230.25,363.896z"/>
	<polygon fill="#B0C2CD" points="245.105,278.809 242.272,282.292 226.534,287.195 223.494,285.696 223.375,284.797 
		226.207,281.304 241.957,276.396 244.986,277.893 	"/>
	<polygon fill="#1B4892" points="244.649,278.029 242.032,276.487 226.425,281.178 225.173,282.803 	"/>
	<line fill="none" x1="223.776" y1="284.221" x2="244.398" y2="279.141"/>
	<path fill="#749BB0" d="M230.24,289.757c-0.852-0.807-0.916-2.07-0.131-2.996l-3.193,1.269l-0.077,2.877L230.24,289.757z"/>
	<polygon fill="#B0C2CD" points="245.105,268.165 242.272,271.653 226.534,276.564 223.494,275.059 223.375,274.155 
		226.207,270.673 241.957,265.764 244.977,267.262 	"/>
	<polygon fill="#1B4892" points="244.649,267.408 242.032,265.851 226.425,270.537 225.161,272.171 	"/>
	<line fill="none" x1="223.776" y1="273.577" x2="244.398" y2="268.503"/>
	<path fill="#749BB0" d="M230.24,279.119c-0.852-0.807-0.916-2.069-0.131-2.991l-3.193,1.265l-0.077,2.887L230.24,279.119z"/>
	<polygon fill="#B0C2CD" points="245.105,257.715 242.272,261.201 226.534,266.111 223.494,264.612 223.375,263.703 
		226.207,260.222 241.957,255.307 244.977,256.81 	"/>
	<polygon fill="#1B4892" points="244.649,256.951 242.032,255.398 226.425,260.085 225.161,261.715 	"/>
	<line fill="none" x1="223.776" y1="263.125" x2="244.398" y2="258.059"/>
	<path fill="#749BB0" d="M230.24,268.667c-0.852-0.8-0.916-2.071-0.131-2.997l-3.193,1.265l-0.077,2.888L230.24,268.667z"/>
	<path fill="#1B4892" d="M214.742,391.672c0,0,7.892,11.384,20.423,11.149c12.534-0.234,19.771-11.165,19.771-11.165
		L214.742,391.672z"/>
	<rect x="239.853" y="393.524" fill="#B0C2CD" width="3.095" height="4.709"/>
	<polygon fill="#B0C2CD" points="240.245,391.307 236.583,393.912 220.104,394.456 217.575,392.199 217.696,391.307 221.369,388.69 
		237.849,388.142 240.376,390.396 	"/>
</g>
</svg>
