<?xml version="1.0" encoding="utf-8"?>
<!-- Generator: Adobe Illustrator 19.1.0, SVG Export Plug-In . SVG Version: 6.00 Build 0)  -->
<svg version="1.1" id="Calque_1" xmlns="http://www.w3.org/2000/svg" xmlns:xlink="http://www.w3.org/1999/xlink" x="0px" y="0px"
	 viewBox="0 0 500 500" style="enable-background:new 0 0 500 500;" xml:space="preserve">
<style type="text/css">
	.st0{fill:#CB2A18;}
	.st1{fill:#FFFFFF;}
	.st2{fill:#1D1D1B;}
</style>
<g>
	<polygon class="st0" points="41.5,312 460.3,312 460.3,336.9 41,336.9 	"/>
	<g>
		<polygon class="st0" points="79.7,214.5 75.4,211.8 78.1,206.6 84.3,206.9 84.6,202.5 88.9,208.2 91.9,204.4 97.3,204.4 
			101.1,209 103.6,211.5 104.9,209.6 114.7,209.6 117.4,209.9 116.8,200.1 114.1,197.7 112.5,191.7 111.3,188.3 116.2,189.1 
			121.5,188.7 121.2,197.1 129,197.1 132.8,199.6 136.4,197.7 139.9,195.5 137.4,192 139.6,189.8 145.3,188.7 151,185.8 156.4,182 
			156.4,169.8 163.7,165.7 169.1,163.8 168.3,169.2 171,172.8 175.9,169 177,175.7 182.4,178.4 188.1,179.2 187.3,186.3 
			191.6,186.8 196.5,179.8 195.4,187.1 202.4,192.5 204.9,194.7 216.8,194.4 217.6,201.5 225.2,197.4 229.5,200.4 239.3,202 
			231.4,215.8 232,228.3 225.5,232.3 224.9,235.9 226.5,301.7 224.9,309 219,314.1 211.4,314.1 204.6,309.8 194.3,307.4 
			187.8,304.4 179.7,310.3 175.1,314.7 174.3,318.7 174,324.4 174.5,329 165.3,327.7 162.6,330.4 154.5,326.3 151.5,326.3 
			148.8,321.5 142,319.3 132.6,322.8 123.3,318.7 114.7,314.1 108.2,309 113.1,303.8 116.6,293.6 117.7,284.9 120.9,284.3 
			118.2,280.6 117.9,274.9 123.3,278.4 118.5,270.3 117.7,266.5 115.5,249.4 110.9,242.6 105.7,235 102,229.9 98.7,231 94.6,229.1 
			93.8,231.5 90.3,226.7 85.4,223.4 79.5,223.1 73.1,220.8 75.1,215.8 		"/>
		<path d="M163,332.4l-8.8-4.4h-3.6l-2.9-5.1l-5.6-1.8l-9.6,3.6l-9.9-4.4l-8.9-4.8l-7.9-6.3l5.9-6.2l3.3-9.8l1.2-9.7l1.9-0.3
			l-1.5-2.1l-0.4-9.3l2.2,1.4l-1.4-2.3l-0.9-4.2l-2.1-16.7l-9.5-14l-3.1-4.1l-2.7,0.9l-3-1.4l-1.2,3.7l-5.2-7.2l-4.3-2.8l-5.8-0.3
			l-8.2-3l3-7.3l1.9-0.6l-2.5-1.6l3.9-7.4l5.7,0.2l0.4-7.1l5.7,7.5l2.2-2.8h7l4.2,5.1l1,1l0.7-1l10.7,0l0.8,0.1l-0.4-7.2l-2.6-2.3
			l-1.7-6.4l-2.1-5.9l7.4,1.2l6.9-0.5l-0.3,8.5h6.7l3.4,2.2l2.7-1.4l2-1.2l-2.2-3.2l3.5-3.5l5.9-1.1l5.4-2.8l4.6-3.2v-12.3l8.4-4.6
			l8-2.8l-1.1,7.4l1.3,1.7l5.8-4.5l1.4,8.7l4.4,2.2l7,1l-0.8,7l1.8,0.2l4.3-6.2l2.9,1.2l-0.9,6.4l6.4,4.9l2,1.7l12.8-0.3l0.7,6.1
			l6.4-3.4l4.8,3.3l11.7,1.9l-8.8,15.4l0.6,12.9l-6.7,4.2l-0.4,2.6l1.6,65.9l-1.8,8l-6.8,5.9h-8.7l-6.9-4.4l-10.3-2.5l-5.6-2.6
			l-7.3,5.3l-4.2,3.9l-0.7,3.4l-0.3,5.4l0.8,6.6l-10.5-1.5L163,332.4z M152.5,324.7h2.4l7.4,3.7l2.5-2.5l7.9,1.2l-0.3-2.6l0.3-6.1
			l0.9-4.6l5.1-4.8l8.9-6.5l7.2,3.3l10.4,2.5l6.6,4.2h6.5l5.1-4.4l1.5-6.6l-1.6-65.8l0.7-4.4l6.3-4l-0.5-12l6.9-12.2l-7.8-1.3
			l-3.8-2.6l-8.8,4.7l-0.9-7.9l-11.1,0.3l-2.9-2.6l-7.8-6l0.2-1.4l-1.5,2.1l-6.9-0.9l0.8-7.1l-4.4-0.6l-6.4-3.2l-0.8-4.9l-4,3.1
			l-4.1-5.4l0.5-3.4l-2.7,1l-6.4,3.5v12.1l-6.3,4.4l-5.9,3.1l-5.4,1l-0.9,0.9l2.6,3.8l-5,3.1l-4.4,2.4l-4.2-2.7h-9.1l0.3-8.3
			l-3.7,0.3l-2.3-0.4l0.3,0.9l1.5,5.5l2.9,2.6l0.7,12.3l-4.5-0.5h-8.8l-2,2.8l-3.9-3.9l-3.3-4h-3.9l-3.8,4.8l-3-3.9l-0.1,1.6
			l-6.8-0.3l-1.5,2.9l6.1,3.8l-7.3,2.2l-1.1,2.7l4.5,1.6l6.2,0.3l5.5,3.7l1.8,2.5l0.4-1.2l5.1,2.4l3.8-1.3l4.5,6.1l10,14.7l2.2,17.4
			l0.7,3.5l4.7,7.9l-2.3,2.2l-2.7-1.8l0.1,2l3.9,5.5l-4.6,0.8l-1,7.8l-3.6,10.6l-3.9,4.1l5,4l8.5,4.5l8.6,3.8l9.4-3.5l7.9,2.5
			L152.5,324.7z"/>
	</g>
	<g>
		<polygon class="st1" points="43.4,239.1 66.2,239.1 85.3,285.8 103.6,239.9 128,239.9 98.7,304.1 72.7,304.1 		"/>
		<path class="st2" d="M99.7,305.7H71.6l-30.7-68.3h26.4l18,44l17.2-43.2h28L99.7,305.7z M73.7,302.5h23.9l27.8-60.9h-20.7
			l-19.4,48.6l-20.2-49.4H46L73.7,302.5z"/>
	</g>
	<g>
		<polygon class="st1" points="134.9,237.5 169,218 201.9,237.5 201.9,278.1 168.6,300.1 135.1,281 		"/>
		<path class="st2" d="M168.6,302l-35.2-20.1l-0.2-45.4l35.8-20.4l34.5,20.5V279L168.6,302z M136.7,280l31.8,18.1l31.8-20.9v-38.8
			L169,219.9l-32.5,18.6L136.7,280z"/>
	</g>
	<g>
		<polygon class="st1" points="167.8,234.6 188.5,247.2 188.5,268 168.6,282.2 146.6,270.8 146.6,246.4 		"/>
		<path class="st2" d="M168.7,284.1L145,271.8v-26.3l22.8-12.7l22.3,13.6v22.5L168.7,284.1z M148.3,269.8l20.2,10.5l18.4-13.2v-19
			l-19.1-11.6l-19.5,10.9V269.8z"/>
	</g>
	<polygon points="147.7,247 157.8,241.5 157.8,264.6 175.9,275.4 168.6,283 148,270.8 	"/>
	<g>
		<polygon class="st1" points="213.3,239.9 237.2,239.9 237.2,288.7 275.9,288.7 275.9,304.1 212.9,304.1 		"/>
		<path class="st2" d="M277.5,305.7h-66.2l0.4-67.4h27.2v48.8h38.6V305.7z M214.5,302.5h59.7v-12.2h-38.6v-48.8h-20.7L214.5,302.5z"
			/>
	</g>
	<g>
		<polygon class="st1" points="262.4,237.9 286.8,237.9 305.5,283.4 323.4,237.5 347,237.5 317.3,303.7 292.9,303.7 		"/>
		<path class="st2" d="M318.3,305.3h-26.5l-32-69.1h28l17.6,42.8l16.8-43.2h27.2L318.3,305.3z M294,302.1h22.3l28.2-63h-19.9
			l-18.9,48.7l-19.8-48.3H265L294,302.1z"/>
	</g>
	<g>
		<polygon class="st1" points="355.1,237.9 379.9,237.9 380,304 354.9,304.1 		"/>
		<path class="st2" d="M353.3,305.8l0.1-69.5h28l0.1,69.3L353.3,305.8z M356.7,239.5l-0.1,63l21.8-0.1l-0.1-62.9H356.7z"/>
	</g>
	<g>
		<g>
			<path class="st1" d="M388.3,284.6l26.2-2.2c1.1,2.9,2.6,5,4.5,6.2c1.9,1.3,4.5,1.9,7.8,1.9c3.5,0,6.3-0.7,8.2-2.1
				c1.5-1,2.3-2.3,2.3-3.9c0-1.7-1-3.1-3-4c-1.4-0.7-5.2-1.5-11.4-2.5c-9.2-1.5-15.5-2.8-19.1-4.1c-3.6-1.2-6.6-3.4-9-6.3
				c-2.4-3-3.7-6.4-3.7-10.2c0-4.2,1.3-7.8,3.9-10.8c2.6-3,6.3-5.3,10.9-6.8c4.6-1.5,10.8-2.2,18.6-2.2c8.2,0,14.2,0.6,18.2,1.7
				c3.9,1.1,7.2,2.9,9.8,5.3c2.6,2.4,4.8,5.7,6.5,9.8l-25,2.2c-0.6-2-1.7-3.5-3.2-4.4c-2.1-1.3-4.6-1.9-7.5-1.9
				c-3,0-5.2,0.5-6.5,1.5c-1.4,1-2,2.2-2,3.5c0,1.6,0.9,2.7,2.6,3.5c1.7,0.8,5.5,1.5,11.3,2.1c8.8,0.9,15.3,2.2,19.6,3.8
				c4.3,1.6,7.6,3.9,9.8,7c2.3,3,3.4,6.3,3.4,9.9c0,3.6-1.2,7.2-3.6,10.6c-2.4,3.4-6.2,6.2-11.3,8.2c-5.2,2-12.2,3.1-21.1,3.1
				c-12.6,0-21.5-1.7-26.9-5C393.2,295.4,389.8,290.7,388.3,284.6z"/>
			<path class="st2" d="M425.4,305.4c-13,0-22.1-1.7-27.7-5.2c-5.7-3.5-9.4-8.6-11-15.1l-0.5-1.8l29.3-2.5l0.4,1.2
				c0.9,2.6,2.2,4.4,3.9,5.4c1.7,1.1,4,1.6,6.9,1.6c3.2,0,5.6-0.6,7.3-1.8c1.4-1,1.6-1.9,1.6-2.5c0-0.7-0.2-1.7-2.1-2.6
				c-0.9-0.4-3.5-1.2-10.9-2.4c-9.4-1.5-15.7-2.9-19.4-4.1c-3.8-1.3-7.1-3.6-9.7-6.8c-2.7-3.3-4-7-4-11.2c0-4.5,1.5-8.5,4.4-11.8
				c2.8-3.2,6.7-5.7,11.6-7.2c4.8-1.5,11.2-2.3,19.1-2.3c8.4,0,14.5,0.6,18.6,1.8c4.1,1.2,7.6,3.1,10.4,5.7
				c2.8,2.6,5.1,6.1,6.9,10.4l0.9,2l-28.5,2.5l-0.4-1.2c-0.5-1.6-1.4-2.8-2.6-3.5c-1.8-1.1-4-1.6-6.7-1.6c-3.3,0-4.8,0.6-5.6,1.2
				c-1.2,0.9-1.4,1.7-1.4,2.2c0,0.6,0.2,1.4,1.7,2c1.1,0.5,3.8,1.2,10.8,2c9,0.9,15.5,2.2,20,3.9c4.6,1.7,8.1,4.2,10.5,7.5
				c2.5,3.3,3.7,6.9,3.7,10.9c0,4-1.3,7.9-3.9,11.6c-2.6,3.7-6.6,6.7-12.1,8.8C441.8,304.3,434.5,305.4,425.4,305.4z M390.4,286.1
				c1.6,4.8,4.6,8.5,9,11.3c5,3.1,13.8,4.7,26,4.7c8.6,0,15.5-1,20.5-2.9c4.8-1.9,8.4-4.5,10.6-7.6c2.2-3.1,3.3-6.4,3.3-9.7
				c0-3.3-1-6.2-3.1-8.9c-2.1-2.7-5.1-4.9-9.1-6.4c-4.1-1.6-10.6-2.8-19.2-3.7c-6-0.7-9.9-1.4-11.8-2.3c-2.9-1.3-3.6-3.4-3.6-5
				c0-1.3,0.5-3.3,2.7-4.9c1.7-1.2,4.1-1.8,7.5-1.8c3.2,0,6,0.7,8.4,2.1c1.5,0.9,2.7,2.3,3.5,4.1l21.5-1.9c-1.5-2.9-3.2-5.4-5.2-7.2
				c-2.4-2.2-5.5-3.9-9.1-5c-3.7-1.1-9.7-1.7-17.7-1.7c-7.6,0-13.6,0.7-18.1,2.2c-4.3,1.4-7.7,3.5-10.1,6.3
				c-2.4,2.7-3.5,5.9-3.5,9.7c0,3.5,1.1,6.4,3.3,9.1c2.2,2.7,5,4.7,8.3,5.8c3.4,1.2,9.8,2.6,18.8,4c8.5,1.4,10.8,2.2,11.8,2.6
				c3.2,1.5,3.9,3.9,3.9,5.5c0,1.5-0.5,3.5-3,5.2c-2.2,1.6-5.3,2.4-9.1,2.4c-3.5,0-6.4-0.7-8.6-2.1c-2-1.3-3.5-3.2-4.7-5.9
				L390.4,286.1z"/>
		</g>
	</g>
	<g>
		<path class="st1" d="M47.3,332.8v-16.4h4.1v14.4h15.3v1.9H47.3z"/>
		<path class="st1" d="M85.8,331.3c-1.4,0.6-2.7,1.1-4.1,1.3c-1.3,0.3-2.7,0.4-4.2,0.4c-2.5,0-4.4-0.3-5.7-1s-2-1.4-2-2.4
			c0-0.6,0.3-1.1,0.8-1.6c0.5-0.5,1.2-0.9,2-1.1c0.8-0.3,1.7-0.5,2.8-0.7c0.8-0.1,1.9-0.2,3.4-0.3c3.1-0.2,5.4-0.4,6.8-0.7
			c0-0.3,0-0.5,0-0.5c0-0.8-0.4-1.4-1.1-1.7c-1-0.5-2.4-0.7-4.4-0.7c-1.8,0-3.1,0.2-4,0.5c-0.9,0.3-1.5,0.9-1.9,1.7l-3.7-0.3
			c0.3-0.8,0.9-1.5,1.7-2c0.8-0.5,1.9-0.9,3.4-1.2s3.2-0.4,5.1-0.4c1.9,0,3.5,0.1,4.7,0.4c1.2,0.2,2.1,0.5,2.7,0.9
			c0.6,0.4,1,0.8,1.2,1.4c0.1,0.3,0.2,1,0.2,1.9v2.7c0,1.9,0.1,3,0.2,3.5c0.2,0.5,0.5,1,0.9,1.4h-3.9
			C86.2,332.3,85.9,331.9,85.8,331.3z M85.5,326.8c-1.4,0.3-3.5,0.5-6.2,0.8c-1.6,0.1-2.7,0.3-3.3,0.4c-0.6,0.1-1.2,0.4-1.5,0.6
			c-0.4,0.3-0.5,0.6-0.5,1c0,0.5,0.4,1,1.2,1.3s1.9,0.5,3.4,0.5c1.5,0,2.8-0.2,3.9-0.5c1.2-0.3,2-0.8,2.5-1.4c0.4-0.5,0.6-1.1,0.6-2
			L85.5,326.8z"/>
		<path class="st1" d="M113.4,332.8l-8.5-11.9h4.1l4.8,7.1c0.5,0.8,1,1.6,1.4,2.4c0.3-0.6,0.8-1.4,1.4-2.3l5-7.2h3.9l-8.5,11.9
			H113.4z"/>
		<path class="st1" d="M129,318.7v-2.3h3.8v2.3H129z M129,332.8v-11.9h3.8v11.9H129z"/>
		<path class="st1" d="M137.1,329.2l3.8-0.3c0.2,0.8,0.8,1.4,1.8,1.8c1,0.4,2.3,0.6,4.1,0.6c1.8,0,3.1-0.2,3.9-0.6
			c0.9-0.4,1.3-0.8,1.3-1.3c0-0.5-0.4-0.8-1.1-1.1c-0.5-0.2-1.8-0.4-3.9-0.7c-2.8-0.4-4.7-0.7-5.8-1c-1.1-0.3-1.9-0.6-2.5-1.1
			c-0.6-0.5-0.8-1-0.8-1.6c0-0.5,0.2-1,0.7-1.5c0.5-0.4,1.1-0.8,1.9-1.1c0.6-0.2,1.4-0.4,2.4-0.6c1-0.2,2.1-0.2,3.3-0.2
			c1.8,0,3.3,0.1,4.6,0.4c1.3,0.3,2.3,0.6,3,1.1c0.6,0.5,1.1,1.1,1.3,1.8l-3.7,0.3c-0.2-0.6-0.7-1.1-1.5-1.4
			c-0.8-0.3-1.9-0.5-3.4-0.5c-1.7,0-3,0.2-3.7,0.5c-0.8,0.3-1.1,0.7-1.1,1.1c0,0.3,0.2,0.5,0.5,0.7c0.3,0.2,0.8,0.4,1.5,0.5
			c0.4,0.1,1.5,0.2,3.4,0.5c2.7,0.4,4.6,0.7,5.6,0.9c1.1,0.2,1.9,0.6,2.5,1.1c0.6,0.5,0.9,1,0.9,1.7c0,0.7-0.4,1.3-1.1,1.9
			c-0.7,0.6-1.8,1-3.2,1.4c-1.4,0.3-3,0.5-4.7,0.5c-2.9,0-5.1-0.3-6.7-1C138.5,331.4,137.5,330.4,137.1,329.2z"/>
		<path class="st1" d="M187,331.3c-1.4,0.6-2.7,1.1-4.1,1.3c-1.3,0.3-2.7,0.4-4.2,0.4c-2.5,0-4.4-0.3-5.7-1c-1.3-0.6-2-1.4-2-2.4
			c0-0.6,0.3-1.1,0.8-1.6c0.5-0.5,1.2-0.9,2-1.1c0.8-0.3,1.7-0.5,2.8-0.7c0.8-0.1,1.9-0.2,3.4-0.3c3.1-0.2,5.4-0.4,6.8-0.7
			c0-0.3,0-0.5,0-0.5c0-0.8-0.4-1.4-1.1-1.7c-1-0.5-2.4-0.7-4.4-0.7c-1.8,0-3.1,0.2-4,0.5c-0.9,0.3-1.5,0.9-1.9,1.7l-3.7-0.3
			c0.3-0.8,0.9-1.5,1.7-2c0.8-0.5,1.9-0.9,3.4-1.2c1.5-0.3,3.2-0.4,5.1-0.4c1.9,0,3.5,0.1,4.7,0.4c1.2,0.2,2.1,0.5,2.7,0.9
			c0.6,0.4,1,0.8,1.2,1.4c0.1,0.3,0.2,1,0.2,1.9v2.7c0,1.9,0.1,3,0.2,3.5c0.2,0.5,0.5,1,0.9,1.4h-3.9
			C187.4,332.3,187.2,331.9,187,331.3z M186.7,326.8c-1.4,0.3-3.5,0.5-6.3,0.8c-1.6,0.1-2.7,0.3-3.3,0.4c-0.7,0.1-1.2,0.4-1.5,0.6
			c-0.4,0.3-0.5,0.6-0.5,1c0,0.5,0.4,1,1.2,1.3c0.8,0.4,1.9,0.5,3.4,0.5c1.5,0,2.8-0.2,3.9-0.5c1.1-0.3,2-0.8,2.5-1.4
			c0.4-0.5,0.6-1.1,0.6-2L186.7,326.8z M185.1,319.5h-3l-4.9-3.1h5.1L185.1,319.5z"/>
		<path class="st1" d="M227.3,320.4l-3.8,0.2c-0.3-0.8-0.8-1.4-1.4-1.7c-1-0.6-2.3-0.9-3.8-0.9c-1.2,0-2.3,0.2-3.2,0.5
			c-1.2,0.5-2.1,1.1-2.8,2c-0.7,0.9-1.1,2.1-1.1,3.8c0.9-0.7,2-1.3,3.4-1.6c1.3-0.4,2.7-0.5,4.2-0.5c2.5,0,4.7,0.5,6.5,1.5
			c1.8,1,2.7,2.3,2.7,3.8c0,1-0.4,2-1.3,2.9c-0.8,0.9-2,1.6-3.5,2c-1.5,0.5-3.1,0.7-5,0.7c-3.2,0-5.8-0.6-7.8-1.8
			c-2-1.2-3-3.2-3-6.1c0-3.2,1.1-5.4,3.3-6.9c1.9-1.2,4.6-1.9,7.8-1.9c2.5,0,4.5,0.4,6,1.1C226,318.2,227,319.2,227.3,320.4z
			 M211.6,327.5c0,0.7,0.3,1.4,0.8,2c0.6,0.6,1.3,1.1,2.3,1.4c1,0.3,2.1,0.5,3.2,0.5c1.6,0,3-0.3,4.2-1c1.1-0.7,1.7-1.6,1.7-2.8
			c0-1.1-0.6-2-1.7-2.7c-1.1-0.7-2.6-1-4.3-1c-1.7,0-3.2,0.3-4.4,1C212.2,325.6,211.6,326.4,211.6,327.5z"/>
		<path class="st1" d="M244.7,337.3v-16.4h3.5v1.6c0.8-0.6,1.8-1.1,2.8-1.4c1-0.3,2.3-0.5,3.8-0.5c1.9,0,3.6,0.3,5.1,0.8
			c1.5,0.5,2.6,1.3,3.3,2.2c0.8,1,1.1,2,1.1,3.1c0,1.2-0.4,2.3-1.2,3.3c-0.8,1-2,1.7-3.6,2.2c-1.6,0.5-3.2,0.8-5,0.8
			c-1.3,0-2.4-0.1-3.4-0.4c-1-0.3-1.8-0.6-2.5-1.1v5.7L244.7,337.3L244.7,337.3z M248.1,326.9c0,1.5,0.6,2.7,1.8,3.4
			c1.2,0.7,2.6,1.1,4.3,1.1c1.7,0,3.2-0.4,4.4-1.1c1.2-0.8,1.8-1.9,1.8-3.5c0-1.5-0.6-2.6-1.8-3.4c-1.2-0.8-2.6-1.1-4.2-1.1
			c-1.6,0-3.1,0.4-4.3,1.2C248.7,324.2,248.1,325.4,248.1,326.9z"/>
		<path class="st1" d="M283.5,331.3c-1.4,0.6-2.7,1.1-4.1,1.3s-2.7,0.4-4.2,0.4c-2.5,0-4.4-0.3-5.7-1c-1.3-0.6-2-1.4-2-2.4
			c0-0.6,0.2-1.1,0.8-1.6c0.5-0.5,1.2-0.9,2-1.1c0.8-0.3,1.7-0.5,2.8-0.7c0.8-0.1,1.9-0.2,3.4-0.3c3.1-0.2,5.4-0.4,6.8-0.7
			c0-0.3,0-0.5,0-0.5c0-0.8-0.4-1.4-1.1-1.7c-1-0.5-2.4-0.7-4.4-0.7c-1.8,0-3.1,0.2-4,0.5c-0.9,0.3-1.5,0.9-1.9,1.7l-3.7-0.3
			c0.3-0.8,0.9-1.5,1.7-2c0.8-0.5,1.9-0.9,3.4-1.2c1.5-0.3,3.2-0.4,5.1-0.4c1.9,0,3.5,0.1,4.7,0.4c1.2,0.2,2.1,0.5,2.7,0.9
			c0.6,0.4,1,0.8,1.2,1.4c0.1,0.3,0.2,1,0.2,1.9v2.7c0,1.9,0.1,3,0.2,3.5c0.2,0.5,0.5,1,0.9,1.4h-3.9
			C283.9,332.3,283.6,331.9,283.5,331.3z M283.2,326.8c-1.4,0.3-3.5,0.5-6.3,0.8c-1.6,0.1-2.7,0.3-3.3,0.4c-0.7,0.1-1.2,0.4-1.5,0.6
			c-0.3,0.3-0.5,0.6-0.5,1c0,0.5,0.4,1,1.2,1.3c0.8,0.4,1.9,0.5,3.4,0.5c1.5,0,2.8-0.2,3.9-0.5c1.2-0.3,2-0.8,2.5-1.4
			c0.4-0.5,0.6-1.1,0.6-2L283.2,326.8z"/>
		<path class="st1" d="M292.9,332.8v-11.9h3.4v1.7c1.7-1.3,4.1-1.9,7.2-1.9c1.4,0,2.6,0.1,3.8,0.4c1.1,0.3,2,0.6,2.6,1
			c0.6,0.4,1,0.9,1.2,1.5c0.1,0.4,0.2,1,0.2,2v7.3h-3.8v-7.2c0-0.8-0.1-1.4-0.4-1.8s-0.8-0.7-1.6-1c-0.8-0.2-1.6-0.4-2.7-0.4
			c-1.6,0-3,0.3-4.2,0.8c-1.2,0.5-1.8,1.6-1.8,3.1v6.5L292.9,332.8L292.9,332.8z"/>
		<path class="st1" d="M315.5,329.2l3.8-0.3c0.2,0.8,0.8,1.4,1.8,1.8c1,0.4,2.3,0.6,4.1,0.6c1.8,0,3.1-0.2,3.9-0.6s1.3-0.8,1.3-1.3
			c0-0.5-0.4-0.8-1.1-1.1c-0.5-0.2-1.8-0.4-3.9-0.7c-2.8-0.4-4.7-0.7-5.8-1c-1.1-0.3-1.9-0.6-2.5-1.1c-0.6-0.5-0.8-1-0.8-1.6
			c0-0.5,0.2-1,0.7-1.5c0.5-0.4,1.1-0.8,1.9-1.1c0.6-0.2,1.4-0.4,2.4-0.6c1-0.2,2.1-0.2,3.3-0.2c1.8,0,3.3,0.1,4.6,0.4
			c1.3,0.3,2.3,0.6,2.9,1.1c0.6,0.5,1.1,1.1,1.3,1.8l-3.7,0.3c-0.2-0.6-0.7-1.1-1.5-1.4c-0.8-0.3-2-0.5-3.4-0.5
			c-1.7,0-3,0.2-3.7,0.5c-0.7,0.3-1.1,0.7-1.1,1.1c0,0.3,0.2,0.5,0.5,0.7c0.3,0.2,0.8,0.4,1.5,0.5c0.4,0.1,1.5,0.2,3.4,0.5
			c2.7,0.4,4.6,0.7,5.6,0.9c1.1,0.2,1.9,0.6,2.5,1.1c0.6,0.5,0.9,1,0.9,1.7c0,0.7-0.4,1.3-1.1,1.9c-0.7,0.6-1.8,1-3.2,1.4
			c-1.4,0.3-3,0.5-4.7,0.5c-2.9,0-5.2-0.3-6.7-1C316.9,331.4,315.9,330.4,315.5,329.2z"/>
		<path class="st1" d="M365.4,328.4l3.8,0.3c-0.4,1.4-1.5,2.4-3.1,3.2c-1.7,0.8-3.8,1.2-6.2,1.2c-3.1,0-5.5-0.5-7.4-1.6
			c-1.9-1.1-2.8-2.6-2.8-4.6c0-1.3,0.4-2.4,1.2-3.4c0.8-1,2-1.7,3.7-2.2c1.6-0.5,3.4-0.7,5.4-0.7c2.4,0,4.4,0.3,6,1
			c1.5,0.7,2.5,1.6,3,2.8l-3.7,0.3c-0.4-0.8-1-1.4-1.9-1.8c-0.9-0.4-2-0.6-3.2-0.6c-1.9,0-3.5,0.4-4.7,1.1c-1.2,0.7-1.8,1.9-1.8,3.5
			c0,1.6,0.6,2.8,1.7,3.5c1.2,0.7,2.7,1.1,4.5,1.1c1.5,0,2.7-0.2,3.7-0.7C364.5,330.2,365.2,329.4,365.4,328.4z"/>
		<path class="st1" d="M372.4,332.8v-11.9h3.4v1.8c0.9-0.8,1.7-1.4,2.4-1.7c0.7-0.3,1.6-0.4,2.5-0.4c1.3,0,2.6,0.2,3.9,0.6l-1.4,1.8
			c-0.9-0.3-1.9-0.4-2.8-0.4c-0.8,0-1.6,0.1-2.2,0.4c-0.7,0.3-1.1,0.6-1.4,1.1c-0.4,0.7-0.6,1.5-0.6,2.4v6.2L372.4,332.8
			L372.4,332.8z"/>
		<path class="st1" d="M402.3,329l3.9,0.3c-0.6,1.2-1.8,2.1-3.5,2.8c-1.7,0.7-3.8,1-6.5,1c-3.3,0-5.9-0.5-7.8-1.6
			c-1.9-1.1-2.9-2.6-2.9-4.5c0-2,1-3.5,2.9-4.6c1.9-1.1,4.5-1.6,7.6-1.6c3,0,5.5,0.5,7.4,1.6c1.9,1.1,2.9,2.6,2.9,4.6
			c0,0.1,0,0.3,0,0.5h-16.8c0.1,1.3,0.8,2.3,2.1,3c1.3,0.7,2.8,1,4.7,1c1.4,0,2.6-0.2,3.6-0.6C401,330.4,401.8,329.8,402.3,329z
			 M389.7,325.7h12.6c-0.2-1-0.7-1.8-1.5-2.3c-1.2-0.8-2.8-1.2-4.8-1.2c-1.8,0-3.2,0.3-4.4,0.9C390.5,323.8,389.9,324.7,389.7,325.7
			z"/>
		<path class="st1" d="M425.8,332.8V331c-1.8,1.3-4.1,2-7.1,2c-1.3,0-2.6-0.1-3.7-0.4c-1.1-0.3-2-0.6-2.6-1c-0.6-0.4-1-0.9-1.2-1.5
			c-0.2-0.4-0.2-1-0.2-1.9v-7.4h3.8v6.6c0,1,0.1,1.8,0.2,2.1c0.2,0.5,0.7,0.9,1.5,1.3c0.8,0.3,1.7,0.5,2.9,0.5s2.2-0.2,3.2-0.5
			c1-0.3,1.7-0.7,2.1-1.3c0.4-0.5,0.6-1.3,0.6-2.3v-6.4h3.8v11.9L425.8,332.8L425.8,332.8z"/>
		<path class="st1" d="M432.5,332.8l8.2-6.2l-7.6-5.7h4.7l3.6,2.8c0.7,0.5,1.2,0.9,1.5,1.3c0.6-0.5,1.2-0.9,1.7-1.3l3.8-2.8h4.7
			l-7.6,5.7l8.2,6.2H449l-4.6-3.7l-1.1-0.9l-6,4.6H432.5z"/>
	</g>
</g>
</svg>
