<?xml version="1.0" encoding="utf-8"?>
<!-- Generator: Adobe Illustrator 15.0.0, SVG Export Plug-In . SVG Version: 6.00 Build 0)  -->
<!DOCTYPE svg PUBLIC "-//W3C//DTD SVG 1.1//EN" "http://www.w3.org/Graphics/SVG/1.1/DTD/svg11.dtd">
<svg version="1.1" id="Calque_1" xmlns="http://www.w3.org/2000/svg" xmlns:xlink="http://www.w3.org/1999/xlink" x="0px" y="0px"
	 width="500px" height="500px" viewBox="0 0 500 500" enable-background="new 0 0 500 500" xml:space="preserve">
<g>
	<polygon fill="#CB2A18" points="41.544,311.973 460.312,311.973 460.312,336.896 41.005,336.896 	"/>
	<polygon fill="#CB2A18" stroke="#000000" stroke-width="3.2504" points="79.744,214.462 75.407,211.755 78.118,206.606 
		84.346,206.879 84.619,202.543 88.949,208.231 91.933,204.441 97.348,204.441 101.138,209.044 103.576,211.481 104.935,209.587 
		114.686,209.587 117.391,209.857 116.85,200.105 114.14,197.667 112.515,191.71 111.295,188.322 116.171,189.135 121.454,188.729 
		121.187,197.127 129.04,197.127 132.83,199.566 136.354,197.667 139.877,195.503 137.438,191.979 139.604,189.814 145.292,188.729 
		150.98,185.751 156.396,181.958 156.396,169.769 163.709,165.706 169.131,163.811 168.318,169.226 171.022,172.75 175.898,168.957 
		176.983,175.727 182.399,178.438 188.087,179.25 187.275,186.291 191.611,186.834 196.487,179.79 195.401,187.104 202.448,192.522 
		204.885,194.69 216.802,194.417 217.615,201.46 225.201,197.397 229.53,200.378 239.282,202.004 231.429,215.818 231.968,228.277 
		225.467,232.34 224.928,235.86 226.546,301.682 224.922,308.995 218.967,314.144 211.387,314.144 204.606,309.808 194.322,307.37 
		187.82,304.393 179.694,310.348 175.085,314.684 174.273,318.746 174.006,324.436 174.54,329.037 165.334,327.686 162.629,330.396 
		154.503,326.333 151.52,326.333 148.815,321.457 142.035,319.286 132.563,322.81 123.345,318.746 114.686,314.144 108.185,308.995 
		113.061,303.847 116.578,293.556 117.657,284.89 120.908,284.344 118.203,280.554 117.936,274.865 123.345,278.389 
		118.469,270.263 117.657,266.467 115.499,249.405 110.889,242.631 105.747,235.048 101.951,229.902 98.7,230.984 94.637,229.089 
		93.825,231.527 90.308,226.651 85.432,223.401 79.464,223.128 73.103,220.827 75.135,215.815 	"/>
	<polygon fill="#FFFFFF" stroke="#1D1D1B" stroke-width="3.2504" points="43.443,239.11 66.196,239.11 85.292,285.836 
		103.576,239.924 127.954,239.924 98.7,304.119 72.696,304.119 	"/>
	<polygon fill="#FFFFFF" stroke="#1D1D1B" stroke-width="3.2504" points="134.862,237.485 168.991,217.983 201.902,237.485 
		201.902,278.115 168.585,300.057 135.065,280.96 	"/>
	<polygon fill="#FFFFFF" stroke="#1D1D1B" stroke-width="3.2504" points="167.772,234.642 188.494,247.236 188.494,267.958 
		168.585,282.18 146.645,270.803 146.645,246.424 	"/>
	<polygon points="147.729,246.967 157.754,241.548 157.754,264.574 175.898,275.405 168.585,282.992 148.003,270.803 	"/>
	<polygon fill="#FFFFFF" stroke="#1D1D1B" stroke-width="3.2504" points="213.278,239.924 237.25,239.924 237.25,288.68 
		275.85,288.68 275.85,304.119 212.872,304.119 	"/>
	<polygon fill="#FFFFFF" stroke="#1D1D1B" stroke-width="3.2504" points="262.441,237.892 286.82,237.892 305.51,283.397 
		323.387,237.485 346.953,237.485 317.292,303.713 292.914,303.713 	"/>
	<polygon fill="#FFFFFF" stroke="#1D1D1B" stroke-width="3.2504" points="355.079,237.892 379.863,237.892 380.003,303.986 
		354.945,304.119 	"/>
	<g>
		<path fill="#FFFFFF" stroke="#1D1D1B" stroke-width="3.2504" d="M388.301,284.636l26.206-2.234
			c1.073,2.914,2.584,4.996,4.527,6.247c1.936,1.251,4.52,1.879,7.758,1.879c3.529,0,6.266-0.692,8.202-2.082
			c1.511-1.028,2.267-2.317,2.267-3.866c0-1.74-0.997-3.092-2.99-4.044c-1.429-0.674-5.212-1.505-11.352-2.495
			c-9.167-1.467-15.528-2.819-19.096-4.076c-3.568-1.244-6.578-3.358-9.016-6.336c-2.443-2.971-3.663-6.36-3.663-10.17
			c0-4.165,1.314-7.751,3.949-10.767c2.635-3.013,6.253-5.264,10.875-6.752c4.621-1.486,10.817-2.232,18.589-2.232
			c8.195,0,14.246,0.575,18.156,1.725c3.904,1.148,7.161,2.93,9.776,5.342c2.609,2.415,4.781,5.682,6.508,9.796l-24.987,2.234
			c-0.648-1.999-1.728-3.473-3.238-4.415c-2.076-1.254-4.578-1.883-7.511-1.883c-2.983,0-5.154,0.486-6.513,1.457
			c-1.359,0.972-2.038,2.152-2.038,3.539c0,1.55,0.869,2.718,2.608,3.505c1.74,0.8,5.511,1.512,11.301,2.146
			c8.773,0.913,15.307,2.177,19.585,3.796c4.279,1.625,7.555,3.942,9.821,6.951c2.272,3.01,3.409,6.317,3.409,9.917
			c0,3.644-1.199,7.192-3.6,10.634c-2.393,3.44-6.171,6.184-11.332,8.228c-5.161,2.031-12.195,3.054-21.083,3.054
			c-12.57,0-21.522-1.657-26.854-4.971C393.233,295.447,389.812,290.743,388.301,284.636z"/>
	</g>
	<g>
		<path fill="#FFFFFF" d="M47.322,332.765V316.41h4.114v14.424h15.287v1.931H47.322z"/>
		<path fill="#FFFFFF" d="M85.812,331.292c-1.384,0.635-2.742,1.078-4.05,1.339c-1.314,0.261-2.717,0.387-4.222,0.387
			c-2.482,0-4.387-0.317-5.72-0.952c-1.333-0.635-2.006-1.447-2.006-2.431c0-0.578,0.254-1.111,0.762-1.588
			c0.502-0.476,1.155-0.863,1.975-1.149c0.819-0.292,1.733-0.508,2.755-0.659c0.755-0.102,1.886-0.204,3.409-0.299
			c3.086-0.197,5.365-0.426,6.825-0.691c0.019-0.279,0.019-0.451,0.019-0.527c0-0.819-0.355-1.396-1.085-1.733
			c-0.984-0.457-2.445-0.686-4.375-0.686c-1.81,0-3.143,0.165-4,0.495c-0.863,0.324-1.498,0.907-1.917,1.739l-3.708-0.254
			c0.343-0.844,0.902-1.523,1.676-2.038c0.788-0.52,1.905-0.92,3.378-1.199s3.18-0.419,5.117-0.419c1.93,0,3.492,0.12,4.692,0.354
			c1.2,0.242,2.088,0.541,2.653,0.902c0.565,0.361,0.958,0.819,1.188,1.371c0.126,0.343,0.19,0.966,0.19,1.854v2.68
			c0,1.866,0.083,3.047,0.242,3.542c0.152,0.501,0.47,0.978,0.927,1.436h-3.911C86.206,332.346,85.94,331.856,85.812,331.292z
			 M85.508,326.821c-1.384,0.299-3.467,0.547-6.247,0.756c-1.575,0.121-2.686,0.254-3.339,0.4c-0.648,0.146-1.156,0.368-1.511,0.647
			c-0.355,0.285-0.533,0.604-0.533,0.952c0,0.533,0.394,0.978,1.168,1.333c0.774,0.355,1.905,0.533,3.397,0.533
			c1.479,0,2.793-0.172,3.942-0.508c1.155-0.343,1.994-0.8,2.539-1.384c0.407-0.451,0.616-1.117,0.616-2L85.508,326.821z"/>
		<path fill="#FFFFFF" d="M113.429,332.765l-8.507-11.885h4.076l4.812,7.116c0.526,0.769,1.009,1.568,1.447,2.394
			c0.343-0.622,0.813-1.377,1.422-2.26l5.002-7.25h3.911l-8.481,11.885H113.429z"/>
		<path fill="#FFFFFF" d="M128.995,318.695v-2.285h3.81v2.285H128.995z M128.995,332.765V320.88h3.81v11.885H128.995z"/>
		<path fill="#FFFFFF" d="M137.058,329.158l3.758-0.254c0.209,0.8,0.799,1.422,1.771,1.847c0.971,0.426,2.33,0.642,4.069,0.642
			c1.752,0,3.06-0.19,3.904-0.571c0.851-0.381,1.276-0.825,1.276-1.333c0-0.463-0.375-0.825-1.124-1.086
			c-0.521-0.184-1.822-0.412-3.886-0.691c-2.787-0.368-4.723-0.692-5.809-0.959c-1.08-0.273-1.905-0.647-2.463-1.13
			c-0.559-0.477-0.838-1.01-0.838-1.587c0-0.527,0.229-1.016,0.686-1.467c0.457-0.444,1.079-0.818,1.866-1.117
			c0.596-0.229,1.403-0.426,2.425-0.584c1.022-0.159,2.121-0.241,3.289-0.241c1.765,0,3.308,0.133,4.635,0.399
			c1.333,0.268,2.323,0.629,2.958,1.079c0.628,0.451,1.066,1.061,1.308,1.822l-3.708,0.254c-0.171-0.609-0.66-1.079-1.473-1.422
			c-0.807-0.337-1.949-0.508-3.428-0.508c-1.74,0-2.983,0.152-3.732,0.463c-0.75,0.312-1.118,0.674-1.118,1.086
			c0,0.261,0.152,0.502,0.463,0.711c0.311,0.216,0.794,0.4,1.454,0.54c0.381,0.076,1.499,0.247,3.359,0.521
			c2.685,0.381,4.564,0.691,5.631,0.934c1.066,0.241,1.898,0.59,2.501,1.054c0.609,0.457,0.914,1.028,0.914,1.714
			c0,0.673-0.368,1.301-1.117,1.892c-0.737,0.591-1.81,1.048-3.206,1.372c-1.403,0.316-2.978,0.481-4.749,0.481
			c-2.926,0-5.148-0.323-6.685-0.971C138.455,331.393,137.477,330.434,137.058,329.158z"/>
		<path fill="#FFFFFF" d="M187.046,331.292c-1.396,0.635-2.743,1.078-4.057,1.339c-1.314,0.261-2.717,0.387-4.222,0.387
			c-2.482,0-4.394-0.317-5.727-0.952c-1.333-0.635-1.993-1.447-1.993-2.431c0-0.578,0.254-1.111,0.755-1.588
			c0.501-0.476,1.162-0.863,1.975-1.149c0.818-0.292,1.739-0.508,2.755-0.659c0.755-0.102,1.892-0.204,3.403-0.299
			c3.098-0.197,5.371-0.426,6.831-0.691c0.013-0.279,0.025-0.451,0.025-0.527c0-0.819-0.368-1.396-1.092-1.733
			c-0.977-0.457-2.438-0.686-4.374-0.686c-1.809,0-3.143,0.165-4.005,0.495c-0.858,0.324-1.493,0.907-1.905,1.739l-3.707-0.254
			c0.343-0.844,0.901-1.523,1.676-2.038c0.774-0.52,1.904-0.92,3.377-1.199c1.473-0.279,3.174-0.419,5.117-0.419
			c1.917,0,3.486,0.12,4.685,0.354c1.207,0.242,2.089,0.541,2.654,0.902c0.571,0.361,0.964,0.819,1.193,1.371
			c0.127,0.343,0.191,0.966,0.191,1.854v2.68c0,1.866,0.076,3.047,0.235,3.542c0.158,0.501,0.463,0.978,0.933,1.436h-3.911
			C187.44,332.346,187.167,331.856,187.046,331.292z M186.742,326.821c-1.39,0.299-3.479,0.547-6.253,0.756
			c-1.568,0.121-2.686,0.254-3.333,0.4c-0.66,0.146-1.155,0.368-1.511,0.647c-0.356,0.285-0.534,0.604-0.534,0.952
			c0,0.533,0.387,0.978,1.162,1.333c0.774,0.355,1.911,0.533,3.396,0.533c1.479,0,2.793-0.172,3.949-0.508
			c1.143-0.343,1.993-0.8,2.533-1.384c0.413-0.451,0.616-1.117,0.616-2L186.742,326.821z M185.116,319.458h-3.047l-4.875-3.099h5.13
			L185.116,319.458z"/>
		<path fill="#FFFFFF" d="M227.284,320.423l-3.81,0.151c-0.343-0.793-0.825-1.371-1.448-1.727c-1.028-0.577-2.304-0.862-3.822-0.862
			c-1.212,0-2.286,0.177-3.225,0.533c-1.187,0.463-2.126,1.136-2.819,2.024c-0.698,0.883-1.054,2.146-1.079,3.777
			c0.914-0.736,2.038-1.282,3.364-1.638c1.327-0.355,2.717-0.533,4.171-0.533c2.546,0,4.705,0.495,6.495,1.473
			c1.777,0.99,2.679,2.261,2.679,3.815c0,1.028-0.425,1.981-1.27,2.857c-0.838,0.882-1.993,1.555-3.459,2.024
			c-1.467,0.464-3.143,0.698-5.003,0.698c-3.181,0-5.771-0.615-7.777-1.841c-2.006-1.231-3.009-3.25-3.009-6.069
			c0-3.154,1.105-5.446,3.333-6.882c1.937-1.244,4.552-1.866,7.84-1.866c2.451,0,4.457,0.362,6.019,1.079
			C226.026,318.162,226.965,319.153,227.284,320.423z M211.64,327.463c0,0.692,0.28,1.359,0.838,1.987
			c0.559,0.635,1.333,1.117,2.324,1.447c1.002,0.33,2.057,0.495,3.174,0.495c1.632,0,3.022-0.343,4.177-1.028
			c1.143-0.686,1.727-1.612,1.727-2.787c0-1.13-0.572-2.025-1.708-2.673c-1.136-0.653-2.583-0.978-4.342-0.978
			c-1.721,0-3.194,0.324-4.388,0.978C212.237,325.552,211.64,326.409,211.64,327.463z"/>
		<path fill="#FFFFFF" d="M244.659,337.284V320.88h3.454v1.555c0.825-0.603,1.758-1.054,2.786-1.358
			c1.041-0.299,2.298-0.45,3.777-0.45c1.93,0,3.632,0.261,5.111,0.78c1.479,0.521,2.597,1.257,3.345,2.203
			c0.756,0.952,1.131,1.994,1.131,3.124c0,1.212-0.413,2.304-1.244,3.275c-0.832,0.971-2.039,1.714-3.619,2.234
			c-1.581,0.515-3.244,0.774-4.996,0.774c-1.27,0-2.419-0.139-3.435-0.419c-1.017-0.279-1.848-0.628-2.502-1.054v5.739H244.659z
			 M248.113,326.904c0,1.53,0.59,2.66,1.771,3.391c1.175,0.729,2.604,1.098,4.279,1.098c1.701,0,3.155-0.381,4.368-1.136
			c1.212-0.756,1.821-1.931,1.821-3.523c0-1.512-0.59-2.647-1.777-3.403c-1.188-0.755-2.604-1.13-4.247-1.13
			c-1.632,0-3.073,0.399-4.33,1.206C248.741,324.206,248.113,325.374,248.113,326.904z"/>
		<path fill="#FFFFFF" d="M283.512,331.292c-1.396,0.635-2.742,1.078-4.057,1.339s-2.717,0.387-4.222,0.387
			c-2.482,0-4.387-0.317-5.72-0.952c-1.334-0.635-2-1.447-2-2.431c0-0.578,0.247-1.111,0.756-1.588
			c0.501-0.476,1.161-0.863,1.974-1.149c0.819-0.292,1.733-0.508,2.756-0.659c0.755-0.102,1.886-0.204,3.409-0.299
			c3.092-0.197,5.364-0.426,6.824-0.691c0.02-0.279,0.025-0.451,0.025-0.527c0-0.819-0.368-1.396-1.092-1.733
			c-0.984-0.457-2.438-0.686-4.374-0.686c-1.81,0-3.143,0.165-4,0.495c-0.863,0.324-1.498,0.907-1.91,1.739l-3.708-0.254
			c0.337-0.844,0.896-1.523,1.676-2.038c0.775-0.52,1.905-0.92,3.378-1.199c1.467-0.279,3.175-0.419,5.11-0.419
			c1.93,0,3.492,0.12,4.691,0.354c1.207,0.242,2.089,0.541,2.653,0.902c0.565,0.361,0.966,0.819,1.194,1.371
			c0.127,0.343,0.19,0.966,0.19,1.854v2.68c0,1.866,0.075,3.047,0.234,3.542c0.159,0.501,0.464,0.978,0.934,1.436h-3.91
			C283.899,332.346,283.633,331.856,283.512,331.292z M283.207,326.821c-1.39,0.299-3.472,0.547-6.253,0.756
			c-1.574,0.121-2.686,0.254-3.34,0.4c-0.653,0.146-1.154,0.368-1.511,0.647c-0.349,0.285-0.526,0.604-0.526,0.952
			c0,0.533,0.387,0.978,1.161,1.333c0.775,0.355,1.904,0.533,3.396,0.533c1.479,0,2.794-0.172,3.943-0.508
			c1.155-0.343,1.999-0.8,2.539-1.384c0.412-0.451,0.615-1.117,0.615-2L283.207,326.821z"/>
		<path fill="#FFFFFF" d="M292.901,332.765V320.88h3.402v1.683c1.657-1.289,4.051-1.937,7.175-1.937
			c1.357,0,2.608,0.127,3.752,0.387c1.136,0.254,1.987,0.591,2.552,1.01c0.571,0.419,0.965,0.914,1.193,1.485
			c0.14,0.374,0.21,1.028,0.21,1.956v7.301h-3.81v-7.231c0-0.819-0.146-1.436-0.444-1.842c-0.298-0.406-0.825-0.729-1.58-0.978
			c-0.756-0.24-1.645-0.361-2.66-0.361c-1.626,0-3.028,0.272-4.209,0.819c-1.182,0.546-1.772,1.58-1.772,3.098v6.495H292.901z"/>
		<path fill="#FFFFFF" d="M315.502,329.158l3.759-0.254c0.209,0.8,0.8,1.422,1.771,1.847c0.973,0.426,2.324,0.642,4.069,0.642
			c1.753,0,3.054-0.19,3.905-0.571c0.851-0.381,1.275-0.825,1.275-1.333c0-0.463-0.374-0.825-1.123-1.086
			c-0.521-0.184-1.815-0.412-3.886-0.691c-2.787-0.368-4.723-0.692-5.809-0.959c-1.079-0.273-1.904-0.647-2.463-1.13
			c-0.56-0.477-0.839-1.01-0.839-1.587c0-0.527,0.229-1.016,0.686-1.467c0.457-0.444,1.079-0.818,1.873-1.117
			c0.591-0.229,1.396-0.426,2.419-0.584c1.022-0.159,2.114-0.241,3.289-0.241c1.758,0,3.307,0.133,4.64,0.399
			c1.327,0.268,2.312,0.629,2.946,1.079c0.635,0.451,1.073,1.061,1.314,1.822l-3.708,0.254c-0.171-0.609-0.66-1.079-1.467-1.422
			c-0.812-0.337-1.955-0.508-3.434-0.508c-1.746,0-2.99,0.152-3.733,0.463c-0.749,0.312-1.117,0.674-1.117,1.086
			c0,0.261,0.152,0.502,0.464,0.711c0.311,0.216,0.793,0.4,1.454,0.54c0.38,0.076,1.497,0.247,3.357,0.521
			c2.686,0.381,4.565,0.691,5.625,0.934c1.066,0.241,1.904,0.59,2.508,1.054c0.609,0.457,0.913,1.028,0.913,1.714
			c0,0.673-0.374,1.301-1.116,1.892c-0.736,0.591-1.81,1.048-3.206,1.372c-1.403,0.316-2.984,0.481-4.749,0.481
			c-2.927,0-5.155-0.323-6.685-0.971C316.898,331.393,315.921,330.434,315.502,329.158z"/>
		<path fill="#FFFFFF" d="M365.439,328.396l3.759,0.254c-0.413,1.364-1.46,2.438-3.143,3.212c-1.683,0.769-3.752,1.155-6.203,1.155
			c-3.072,0-5.542-0.533-7.408-1.593c-1.866-1.061-2.8-2.578-2.8-4.559c0-1.283,0.4-2.399,1.199-3.358
			c0.807-0.965,2.032-1.683,3.67-2.158c1.645-0.482,3.429-0.724,5.364-0.724c2.438,0,4.432,0.33,5.98,0.989
			c1.55,0.661,2.546,1.601,2.984,2.82l-3.708,0.253c-0.355-0.807-0.978-1.416-1.872-1.828c-0.896-0.406-1.975-0.609-3.244-0.609
			c-1.918,0-3.474,0.368-4.667,1.092c-1.2,0.736-1.797,1.892-1.797,3.466c0,1.606,0.578,2.769,1.728,3.492
			c1.155,0.73,2.66,1.092,4.52,1.092c1.492,0,2.736-0.241,3.733-0.736C364.538,330.168,365.173,329.412,365.439,328.396z"/>
		<path fill="#FFFFFF" d="M372.397,332.765V320.88h3.402v1.815c0.877-0.838,1.689-1.396,2.438-1.663
			c0.743-0.273,1.562-0.406,2.457-0.406c1.295,0,2.603,0.216,3.942,0.635l-1.353,1.848c-0.934-0.268-1.86-0.4-2.786-0.4
			c-0.832,0-1.582,0.133-2.241,0.394c-0.66,0.267-1.137,0.635-1.416,1.104c-0.426,0.718-0.635,1.499-0.635,2.35v6.209H372.397z"/>
		<path fill="#FFFFFF" d="M402.337,328.955l3.93,0.254c-0.622,1.206-1.777,2.146-3.459,2.812c-1.683,0.667-3.835,0.997-6.45,0.997
			c-3.295,0-5.911-0.533-7.841-1.6c-1.93-1.073-2.895-2.564-2.895-4.494c0-1.994,0.971-3.543,2.927-4.647
			c1.949-1.099,4.481-1.65,7.593-1.65c3.016,0,5.479,0.539,7.383,1.618c1.911,1.08,2.869,2.598,2.869,4.552
			c0,0.114-0.006,0.293-0.025,0.534h-16.836c0.14,1.313,0.845,2.317,2.107,3.015c1.264,0.699,2.838,1.048,4.73,1.048
			c1.409,0,2.608-0.19,3.599-0.584C400.966,330.422,401.754,329.806,402.337,328.955z M389.735,325.705h12.646
			c-0.172-1.01-0.653-1.771-1.454-2.273c-1.219-0.787-2.806-1.181-4.755-1.181c-1.765,0-3.244,0.312-4.444,0.939
			C390.522,323.819,389.863,324.657,389.735,325.705z"/>
		<path fill="#FFFFFF" d="M425.788,332.765v-1.753c-1.751,1.34-4.132,2.006-7.135,2.006c-1.334,0-2.571-0.133-3.721-0.399
			c-1.149-0.272-2.006-0.609-2.564-1.017c-0.559-0.406-0.953-0.9-1.175-1.491c-0.158-0.394-0.234-1.016-0.234-1.879v-7.352h3.809
			v6.59c0,1.047,0.077,1.759,0.235,2.12c0.241,0.533,0.749,0.945,1.523,1.251c0.774,0.298,1.739,0.451,2.882,0.451
			s2.216-0.153,3.219-0.464c1.003-0.312,1.715-0.73,2.134-1.264c0.412-0.533,0.622-1.308,0.622-2.324v-6.36h3.809v11.885H425.788z"
			/>
		<path fill="#FFFFFF" d="M432.544,332.765l8.233-6.159l-7.625-5.726h4.717l3.575,2.824c0.666,0.502,1.174,0.928,1.518,1.271
			c0.628-0.47,1.206-0.901,1.72-1.289l3.759-2.806h4.653l-7.644,5.72l8.171,6.165h-4.642l-4.628-3.664l-1.123-0.907l-6.031,4.571
			H432.544z"/>
	</g>
</g>
</svg>
