<?xml version="1.0" encoding="utf-8"?>
<!-- Generator: Adobe Illustrator 21.0.2, SVG Export Plug-In . SVG Version: 6.00 Build 0)  -->
<svg version="1.1" id="Calque_1" xmlns="http://www.w3.org/2000/svg" xmlns:xlink="http://www.w3.org/1999/xlink" x="0px" y="0px"
	 viewBox="0 0 500 190" style="enable-background:new 0 0 500 190;" xml:space="preserve">
<style type="text/css">
	.st0{fill:#B0B0B0;}
</style>
<path class="st0" d="M281,61.4c-19.4,0.5-20.6,14.7-7.6,18.3c17.2,4.8,27.2,1.4,42.1,6.1c1,0.3,1.9,0.6,2.8,1
	c4.4,1.7,8.5,3.9,11.7,6.8V74.8l-29.9,0.1C299.9,75,300.4,60.9,281,61.4z"/>
<path class="st0" d="M258.6,146.4c-0.3-0.1-5.3-0.2-6.4-0.2v3.3c0.2,0,0.4,0,0.6,0c0.7,0,5.5-0.1,5.8-0.2c0.3-0.2,0.4-0.5,0.4-0.9
	v-1.1C259.1,146.9,259,146.6,258.6,146.4z"/>
<path class="st0" d="M410.9,148.5c-0.3-0.1-1.1-0.2-2.3-0.2c-1.2,0-3.4-0.1-6.7-0.1v4.9c4.3,0,7-0.1,7.9-0.2c1-0.1,1.5-0.4,1.5-0.9
	v-2.8C411.4,148.8,411.3,148.6,410.9,148.5z"/>
<path class="st0" d="M294.5,152.1h3.5c-0.5-1.3-1-2.8-1.6-4.6C295.4,149.5,294.8,151.1,294.5,152.1z"/>
<path class="st0" d="M231.6,80.5c0-0.1-0.1-0.2-0.1-0.3l-0.1,0.3H231.6z"/>
<polygon class="st0" points="51.6,132.5 136.7,132.5 94.2,47.6 "/>
<path class="st0" d="M259.3,26.3l-13.4,26.1c13.3-5.2,33.1-4.8,52.6-4.1c22.3,0.8,29.4,16.1,31.4,23v-23h17.4h11.3H376l14.8,46.3
	l16.7-46.3h17.2h11.5h17.2v88.4h-28.7V80.2l-20.5,56.6h-28.7l-16.9-53.1v53.1h-28.7v-10.4c-12.8,11.3-40.5,12.6-67.9,11
	c-30.6-1.9-35.1-32.1-35.1-32.1h33.4c0,0-0.5,16,20.7,16s18.8-9.9,18.8-10.8c0-6.2-14.3-8.2-32.7-11c-18.3-2.8-30.3-4.9-35.8-18.8
	l-28.9,56.1h-35.8l-44.2-88.4h81.4l-11.3,21.2h-27.8l22.1,41.4l41.4-84.6H20.8v137.3H482V26.3H259.3L259.3,26.3z M44.8,136.7
	l49.4-98.5l49.4,98.5H44.8z M173.4,157.6H166v-13.8h7.4V157.6z M223.8,157.6h-8.4v-9.3l-3.3,9.3h-5.9l-3.5-9.1v9.1h-8.4v-13.8h12.4
	c0.4,0.8,0.7,1.8,1.1,2.9l1.4,3.5l2.2-6.5h12.5L223.8,157.6L223.8,157.6z M265.9,148.8c0,0.9-0.2,1.5-0.6,1.9s-1.2,0.7-2.3,0.9
	c-1.1,0.2-2.5,0.3-4.3,0.3h-6.4v5.6h-8.1v-13.8h8.1c2.2,0,8.2,0.1,9.4,0.2c1.2,0.2,2.1,0.4,2.7,0.7c0.6,0.3,1,0.6,1.2,1.1
	c0.2,0.4,0.3,1.1,0.3,1.9L265.9,148.8L265.9,148.8z M298.8,157.6l-0.5-2.5h-3.6l-0.6,2.5h-10.5l5.2-13.8h14.7l5.8,13.8H298.8z
	 M346.2,157.6h-16l-6.1-13.8h11.1c1.3,3.8,2.8,7.3,2.8,7.3s1.1-2.7,1.7-4.8l0.7-2.6h11.1L346.2,157.6z M375.5,157.6h-7.4v-13.8h7.4
	V157.6z M418.7,153.5c0,1.2-0.2,2.1-0.5,2.5s-0.9,0.7-1.8,1c-0.8,0.2-1.9,0.4-3.1,0.5s-3.1,0.1-5.6,0.1h-13.1v-13.8h7.8
	c5,0,8.4,0.1,10.2,0.2c1.8,0.2,3.1,0.4,4,0.8s1.5,0.8,1.7,1.2c0.2,0.4,0.3,1.3,0.3,2.6v4.9H418.7z M453.6,157.6h-20.1v-13.8H453v2.8
	h-11.3v2.6h10.9v2.6h-10.9v3h11.8L453.6,157.6L453.6,157.6z"/>
</svg>
