<?xml version="1.0" encoding="utf-8"?>
<!-- Generator: Adobe Illustrator 15.0.0, SVG Export Plug-In . SVG Version: 6.00 Build 0)  -->
<!DOCTYPE svg PUBLIC "-//W3C//DTD SVG 1.1//EN" "http://www.w3.org/Graphics/SVG/1.1/DTD/svg11.dtd">
<svg version="1.1" id="Calque_1" xmlns="http://www.w3.org/2000/svg" xmlns:xlink="http://www.w3.org/1999/xlink" x="0px" y="0px"
	 width="500px" height="500px" viewBox="0 0 500 500" enable-background="new 0 0 500 500" xml:space="preserve">
<g>
	<path fill="#263D8F" d="M310.151,223.37c-3.485,0-6.284,1.545-8.396,4.628c-2.11,3.09-3.166,8.202-3.166,15.33
		c0,7.068,1.047,12.142,3.148,15.231c2.091,3.09,4.946,4.628,8.567,4.628c3.709,0,6.584-1.51,8.618-4.531
		c2.034-3.026,3.061-8.453,3.061-16.287c0-6.585-1.064-11.397-3.195-14.438C316.667,224.89,313.783,223.37,310.151,223.37z"/>
	<path fill="#263D8F" d="M249.284,222.44h-7.543v14.098h7.233c0.784,0,2.304-0.313,4.551-0.948c1.132-0.282,2.062-1.008,2.788-2.174
		c0.718-1.167,1.074-2.503,1.074-4.024c0-2.236-0.57-3.956-1.714-5.151C254.542,223.041,252.41,222.44,249.284,222.44z"/>
	<path fill="#263D8F" d="M190.052,222.44h-4.938v15.493h4.251c3.341,0,5.694-0.717,7.04-2.153c1.355-1.438,2.033-3.28,2.033-5.526
		c0-2.178-0.591-4.022-1.762-5.537C195.504,223.2,193.296,222.44,190.052,222.44z"/>
	<path fill="#263D8F" d="M470.387,177.215c-9.915,0-35.119,0-35.119,0l34.703-62.383H361.733l-36.36,61.972H180.767l-39.449-61.972
		H33.487l35.74,62.8c0,0-21.894,0.822-34.288,0c-12.394-0.823-17.352,15.284-17.352,15.284v101.635c0,0,5.364,11.571,16.936,11.987
		c11.571,0.417,114.852,0,114.852,0l47.931,78.908h111.133l46.683-78.086c0,0,104.529,0.407,115.684,0
		c11.156-0.405,16.112-14.874,16.112-14.874v-97.502C486.916,194.984,480.303,177.215,470.387,177.215z M371.387,131.254H442.5
		l-26.183,44.93h-7.127l21.07-39.817h-54.689l-23.859,39.662h-7.592L371.387,131.254z M61.781,131.356h71.684l26.027,45.036h-7.233
		l-24.372-38.01h-54.12l21.69,38.63h-7.437L61.781,131.356z M299.346,372.014h-91.409l-39.197-63.055h8.676l35.014,57.324h82.269
		l33.773-56.396h6.973L299.346,372.014z M234.43,310.044h6.197l11.465,16.422l10.69-16.732h5.888l-16.578,29.28L234.43,310.044z
		 M474.45,268.987c-0.021,4.579-0.035,8.01-0.035,9.449c0,10.047-11.652,16.669-22.448,17.042c-1.148,0.039-7.443,0.092-48.69,0.092
		c-38.394,0-94.729-0.045-151.241-0.089c-56.86-0.045-113.901-0.09-153.031-0.09c-31.006,0-47.791,0.029-49.887,0.088
		c-0.327,0.009-0.649,0.014-0.962,0.014c-11.501,0-17.582-5.982-18.073-17.78c-0.233-5.585-0.128-31.432-0.052-50.305
		c0.026-6.454,0.047-11.8,0.047-14.661c0-13.66,13.512-23.548,22.62-23.548h400.029c10.949,0,21.286,12.039,21.686,25.259
		C474.657,222.5,474.522,252.741,474.45,268.987z"/>
	<path fill="#263D8F" d="M452.727,199.114H52.698c-3.79,0-12.705,5.757-12.705,13.633c0,2.869-0.021,8.229-0.047,14.701
		c-0.072,17.718-0.18,44.494,0.043,49.853c0.271,6.497,2.025,8.276,8.166,8.276c0.224,0,0.454-0.003,0.688-0.01
		c2.248-0.062,18.188-0.092,50.162-0.092c39.131,0,96.176,0.045,153.039,0.09c56.51,0.045,112.842,0.089,151.233,0.089
		c30.422,0,46.688-0.028,48.35-0.086c6.933-0.239,12.873-4.122,12.873-7.132c0-1.446,0.016-4.893,0.036-9.493
		c0.071-16.186,0.205-46.314-0.033-54.186C464.251,206.479,457.708,199.114,452.727,199.114z M210.086,246.106
		c-3.389,3.951-8.569,5.925-15.522,5.925h-9.451v26.029h-17.352v-69.719h28.691c6.255,0,10.932,1.851,14.05,5.549
		c3.107,3.694,4.667,8.957,4.667,15.775C215.17,236.68,213.475,242.159,210.086,246.106z M259.751,278.061l-9.189-21.347
		c-1.161-2.765-2.208-4.556-3.108-5.389c-1.239-1.075-2.643-1.618-4.202-1.618h-1.51v28.354h-17.354v-69.719h28.731
		c5.325,0,9.401,0.571,12.22,1.709c2.818,1.139,5.083,3.253,6.817,6.338c1.724,3.088,2.585,6.85,2.585,11.281
		c0,3.864-0.669,7.194-1.985,9.997c-1.326,2.804-3.146,5.075-5.461,6.814c-1.482,1.112-3.506,2.033-6.081,2.759
		c2.053,0.857,3.543,1.714,4.483,2.575c0.629,0.571,1.549,1.792,2.75,3.67c1.199,1.878,1.994,3.32,2.402,4.338l8.385,20.238H259.751
		z M335.89,262.75c-2.198,5.229-5.364,9.287-9.519,12.192c-4.145,2.904-9.306,4.356-15.493,4.356
		c-6.295,0-11.504-1.248-15.618-3.766c-4.127-2.499-7.467-6.47-10.032-11.901c-2.557-5.427-3.834-12.22-3.834-20.383
		c0-11.396,2.527-20.271,7.601-26.618c5.074-6.354,12.143-9.528,21.197-9.528c9.276,0,16.432,3.117,21.458,9.358
		c5.015,6.242,7.531,14.975,7.531,26.218C339.181,250.841,338.079,257.531,335.89,262.75z"/>
</g>
</svg>
