<?xml version="1.0" encoding="utf-8"?>
<!-- Generator: Adobe Illustrator 21.0.2, SVG Export Plug-In . SVG Version: 6.00 Build 0)  -->
<svg version="1.1" id="Calque_1" xmlns="http://www.w3.org/2000/svg" xmlns:xlink="http://www.w3.org/1999/xlink" x="0px" y="0px"
	 viewBox="0 0 500 307.3" style="enable-background:new 0 0 500 307.3;" xml:space="preserve">
<style type="text/css">
	.st0{fill:#263D8F;}
</style>
<path class="st0" d="M310.2,127.1c-3.5,0-6.3,1.5-8.4,4.6s-3.2,8.2-3.2,15.3s1,12.1,3.1,15.2c2.1,3.1,4.9,4.6,8.6,4.6
	s6.6-1.5,8.6-4.5s3.1-8.5,3.1-16.3c0-6.6-1.1-11.4-3.2-14.4C316.7,128.6,313.8,127.1,310.2,127.1z"/>
<path class="st0" d="M249.3,126.1h-7.5v14.1h7.2c0.8,0,2.3-0.3,4.6-0.9c1.1-0.3,2.1-1,2.8-2.2c0.7-1.2,1.1-2.5,1.1-4
	c0-2.2-0.6-4-1.7-5.2C254.5,126.7,252.4,126.1,249.3,126.1z"/>
<path class="st0" d="M190.1,126.1h-4.9v15.5h4.3c3.3,0,5.7-0.7,7-2.2c1.4-1.4,2-3.3,2-5.5s-0.6-4-1.8-5.5
	C195.5,126.9,193.3,126.1,190.1,126.1z"/>
<path class="st0" d="M470.4,80.9c-9.9,0-35.1,0-35.1,0L470,18.5H361.7l-36.4,62H180.8l-39.4-62H33.5l35.7,62.8c0,0-21.9,0.8-34.3,0
	S17.5,96.6,17.5,96.6v101.6c0,0,5.4,11.6,16.9,12c11.6,0.4,114.9,0,114.9,0l47.9,78.9h111.1L355,211c0,0,104.5,0.4,115.7,0
	c11.2-0.4,16.1-14.9,16.1-14.9V98.7C486.9,98.7,480.3,80.9,470.4,80.9z M371.4,35h71.1l-26.2,44.9h-7.1l21.1-39.8h-54.7l-23.9,39.6
	h-7.6L371.4,35z M61.8,35.1h71.7l26,45h-7.2l-24.4-38H73.8l21.7,38.6H88L61.8,35.1z M299.3,275.7h-91.4l-39.2-63h8.7l35,57.3h82.3
	l33.8-56.4h7L299.3,275.7z M234.4,213.7h6.2l11.5,16.4l10.7-16.7h5.9l-16.6,29.3L234.4,213.7z M474.5,172.7c0,4.6,0,8,0,9.4
	c0,10-11.7,16.7-22.4,17c-1.1,0-7.4,0.1-48.7,0.1c-38.4,0-94.7,0-151.2-0.1c-56.9,0-113.9-0.1-153-0.1c-31,0-47.8,0-49.9,0.1
	c-0.3,0-0.6,0-1,0c-11.5,0-17.6-6-18.1-17.8c-0.2-5.6-0.1-31.4-0.1-50.3c0-6.5,0-11.8,0-14.7c0-13.7,13.5-23.5,22.6-23.5h400
	c10.9,0,21.3,12,21.7,25.3C474.7,126.2,474.5,156.4,474.5,172.7z"/>
<path class="st0" d="M452.7,102.8h-400c-3.8,0-12.7,5.8-12.7,13.6c0,2.9,0,8.2,0,14.7c-0.1,17.7-0.2,44.5,0,49.9
	c0.3,6.5,2,8.3,8.2,8.3c0.2,0,0.5,0,0.7,0c2.2-0.1,18.2-0.1,50.2-0.1c39.1,0,96.2,0,153,0.1c56.5,0,112.8,0.1,151.2,0.1
	c30.4,0,46.7,0,48.4-0.1c6.9-0.2,12.9-4.1,12.9-7.1c0-1.4,0-4.9,0-9.5c0.1-16.2,0.2-46.3,0-54.2
	C464.3,110.2,457.7,102.8,452.7,102.8z M210.1,149.8c-3.4,4-8.6,5.9-15.5,5.9h-9.5v26h-17.4V112h28.7c6.3,0,10.9,1.9,14.1,5.5
	c3.1,3.7,4.7,9,4.7,15.8C215.2,140.4,213.5,145.9,210.1,149.8z M259.8,181.8l-9.2-21.3c-1.2-2.8-2.2-4.6-3.1-5.4
	c-1.2-1.1-2.6-1.6-4.2-1.6h-1.5v28.4h-17.4v-69.7h28.7c5.3,0,9.4,0.6,12.2,1.7c2.8,1.1,5.1,3.3,6.8,6.3c1.7,3.1,2.6,6.9,2.6,11.3
	c0,3.9-0.7,7.2-2,10s-3.1,5.1-5.5,6.8c-1.5,1.1-3.5,2-6.1,2.8c2.1,0.9,3.5,1.7,4.5,2.6c0.6,0.6,1.5,1.8,2.8,3.7
	c1.2,1.9,2,3.3,2.4,4.3l8.4,20.2L259.8,181.8L259.8,181.8z M335.9,166.5c-2.2,5.2-5.4,9.3-9.5,12.2c-4.1,2.9-9.3,4.4-15.5,4.4
	c-6.3,0-11.5-1.2-15.6-3.8c-4.1-2.5-7.5-6.5-10-11.9c-2.6-5.4-3.8-12.2-3.8-20.4c0-11.4,2.5-20.3,7.6-26.6
	c5.1-6.4,12.1-9.5,21.2-9.5c9.3,0,16.4,3.1,21.5,9.4c5,6.2,7.5,15,7.5,26.2C339.2,154.5,338.1,161.2,335.9,166.5z"/>
</svg>
