<?xml version="1.0" encoding="utf-8"?>
<!-- Generator: Adobe Illustrator 21.0.2, SVG Export Plug-In . SVG Version: 6.00 Build 0)  -->
<svg version="1.1" id="Calque_1" xmlns="http://www.w3.org/2000/svg" xmlns:xlink="http://www.w3.org/1999/xlink" x="0px" y="0px"
	 viewBox="0 0 500 180" style="enable-background:new 0 0 500 180;" xml:space="preserve">
<style type="text/css">
	.st0{fill:#1A171B;}
	.st1{fill:#6FA623;}
</style>
<polygon class="st0" points="208.4,148 211.6,148 209.4,161.9 206.3,161.9 "/>
<polygon class="st0" points="223.1,148 226.2,148 224.1,161.9 221,161.9 216.7,152.9 215.3,161.9 212.1,161.9 214.3,148 217.4,148 
	221.7,157.1 "/>
<polygon class="st0" points="238.3,148 241.4,148 239.3,161.9 236.1,161.9 231.9,152.9 230.5,161.9 227.3,161.9 229.5,148 
	232.6,148 236.9,157.1 "/>
<path class="st0" d="M253,155c-0.7,4.6-3,5-4,5s-3.2-0.4-2.5-5s3-5,4-5S253.7,150.4,253,155L253,155z M256.7,155
	c0.4-2.5,0-7.3-5.8-7.3c-5.8,0-7.7,4.8-8.1,7.3c-0.4,2.5,0,7.3,5.8,7.3C254.4,162.3,256.3,157.5,256.7,155L256.7,155z"/>
<polygon class="st0" points="268,148 271.1,148 264,162.3 261.2,162.3 258.5,148 261.6,148 263.5,156.9 "/>
<path class="st0" d="M276.6,152.3l1.1,4.4h-3.5L276.6,152.3L276.6,152.3z M272.9,159h5.2l0.7,2.9h3.2l-3.3-13.9h-2.9l-7.6,13.9h3.2
	L272.9,159L272.9,159z"/>
<polygon class="st0" points="283,150.3 283.4,148 293.9,148 293.6,150.3 289.9,150.3 288.1,161.9 284.9,161.9 286.7,150.3 "/>
<polygon class="st0" points="295.9,148 299,148 296.9,161.9 293.7,161.9 "/>
<polygon class="st0" points="310.5,148 313.6,148 306.5,162.3 303.7,162.3 301,148 304.1,148 305.9,156.9 "/>
<polygon class="st0" points="317.9,153.7 322.8,153.7 322.4,156 317.6,156 317,159.6 323.5,159.6 323.2,161.9 313.5,161.9 
	315.6,148 324.6,148 324.2,150.3 318.4,150.3 "/>
<path class="st0" d="M343.6,151.5c-0.9-0.8-1.5-1.2-2.7-1.2c-2.3,0-3.9,1.6-4.4,4.7c-0.6,3.7,1.5,4.6,3,4.6c1,0,2.2-0.3,3.4-1.6
	l1.7,1.5c-2.2,2.2-4,2.8-6.2,2.8c-4.3,0-6.3-3.3-5.7-7.2c0.7-4.8,4.6-7.3,8.1-7.3c1.7,0,3.6,0.6,4.5,1.9L343.6,151.5L343.6,151.5z"
	/>
<path class="st0" d="M356.9,155c-0.7,4.6-3,5-4,5s-3.2-0.4-2.5-5c0.7-4.6,3-5,4-5S357.5,150.4,356.9,155L356.9,155z M360.5,155
	c0.4-2.5,0-7.3-5.8-7.3c-5.8,0-7.7,4.8-8.1,7.3s0,7.3,5.8,7.3C358.2,162.3,360.1,157.5,360.5,155L360.5,155z"/>
<polygon class="st0" points="372.4,148 375.5,148 373.4,161.9 370.2,161.9 366,152.9 364.6,161.9 361.4,161.9 363.6,148 366.7,148 
	371,157.1 "/>
<polygon class="st0" points="387.6,148 390.7,148 388.6,161.9 385.4,161.9 381.2,152.9 379.8,161.9 376.6,161.9 378.8,148 
	381.9,148 386.2,157.1 "/>
<polygon class="st0" points="396.3,153.7 401.1,153.7 400.8,156 395.9,156 395.3,159.6 401.9,159.6 401.5,161.9 391.8,161.9 
	394,148 402.9,148 402.5,150.3 396.8,150.3 "/>
<path class="st0" d="M414.8,151.5c-0.9-0.8-1.5-1.2-2.7-1.2c-2.3,0-3.9,1.6-4.4,4.7c-0.6,3.7,1.5,4.6,3,4.6c1,0,2.2-0.3,3.4-1.6
	l1.7,1.5c-2.2,2.2-4,2.8-6.1,2.8c-4.3,0-6.3-3.3-5.7-7.2c0.7-4.8,4.6-7.3,8.2-7.3c1.6,0,3.6,0.6,4.5,1.9L414.8,151.5L414.8,151.5z"
	/>
<polygon class="st0" points="417.8,150.3 418.1,148 428.7,148 428.3,150.3 424.6,150.3 422.9,161.9 419.7,161.9 421.5,150.3 "/>
<polygon class="st0" points="429.8,148 433,148 430.8,161.9 427.7,161.9 "/>
<path class="st0" d="M444,155c-0.7,4.6-3,5-4,5s-3.2-0.4-2.5-5s3-5,4-5S444.7,150.4,444,155L444,155z M447.7,155
	c0.4-2.5,0-7.3-5.8-7.3s-7.7,4.8-8.1,7.3c-0.4,2.5,0,7.3,5.8,7.3C445.4,162.3,447.3,157.5,447.7,155L447.7,155z"/>
<polygon class="st0" points="459.5,148 462.7,148 460.5,161.9 457.4,161.9 453.1,152.9 451.7,161.9 448.6,161.9 450.7,148 
	453.8,148 458.1,157.1 "/>
<path class="st0" d="M473.7,152.2c-0.9-1-2-1.9-3.5-1.9c-1.2,0-1.5,0.7-1.6,1.1c-0.2,1.1,1.8,1.6,3,2c1.7,0.6,4.6,1.7,4.1,4.7
	c-0.3,1.8-2.3,4.2-6.3,4.2c-1.1,0-4.5-0.1-5.8-3.9l2.7-1.6c1.2,2.3,3.1,2.5,3.9,2.5c1.1,0,1.7-0.6,1.8-1.1c0.2-1.4-1.4-1.7-2.6-2.1
	c-1.5-0.5-4.8-1.6-4.4-4.3c0.3-2.1,2.5-4,6-4c2.2,0,4,1,5.1,2.7L473.7,152.2L473.7,152.2z"/>
<path class="st1" d="M431.7,45.9c-4.9,0-59.1,0-68.4,0c-9.3,0-12.8,3.6-12.8,11.3s0,58.9,0,66.6s4.1,13.6,11.5,13.6s62.6,0,69.7,0
	c7.1,0,9.7-5.9,9.7-12.1c0-6.3,0-61.3,0-68.4C441.4,49.7,436.6,45.9,431.7,45.9L431.7,45.9z M408.8,102.6c0,3.2-0.2,3.2-2.2,3.2
	s-17.8,0-20.5,0c-2.6,0-2.6-0.2-2.6-2.8c0-2.6,0-21.5,0-23.5s0.2-2,3.2-2s17.6,0,19.8,0s2.2,0.2,2.2,2
	C408.8,81.3,408.8,99.3,408.8,102.6L408.8,102.6z"/>
<path class="st1" d="M250.5,54.8c0,6.1,0,56.5,0,68.6s9.3,14,14.6,14c5.3,0,59.3,0,65.6,0c6.3,0,10.3-5.1,10.3-12.4s0-29,0-34.6
	c0-5.7-2.6-4.3-2.6-4.3s-34.6,0-38.1,0c-3.4,0-3,1.8-3,1.8s0,2.6,0,6.1c0,3.4,1.4,3.4,1.4,3.4s2.2,0,6.1,0c3.9,0,3.4,1.4,3.4,1.4
	s0,0.6,0,3.4s-0.2,3.4-1.6,3.4s-15,0-19,0c-4.1,0-4.3-1.6-4.3-4.7s0-17.6,0-20.4s0-3.2,3.2-3.2s51.2,0,52.6,0s1.8,0,1.8-3
	s0-28.5,0-28.5s-74.3,0-80.4,0C254.6,45.9,250.5,48.7,250.5,54.8L250.5,54.8z"/>
<path class="st1" d="M238.8,45.9c-3,0-45.6,0-50.2,0c-4.7,0-5.3,2.4-5.3,2.4s-54.7,90.7-58.3,96c-3.6,5.3-5.5,4-5.5,4H108l21.5,20.5
	l44.9-20.5c0,0-7.1,0-9.7,0c-2.6,0-3.8,0-1.8-3.4s9.1-15,11.1-18.2s4.7-2.8,4.7-2.8s21.7,0,26.5,0s3.2,2,3.2,2s0,3.6,0,7.3
	c0,3.6,0,4.3,2.8,4.3s25.5,0,27.9,0c2.4,0,2.6-1.6,2.6-3.8c0-2.2,0-81,0-84.2C241.8,46.1,241.8,45.9,238.8,45.9L238.8,45.9z
	 M208.4,100.7c0,4.5,0,5.1-2.6,5.1s-14.2,0-15.6,0c-1.4,0-3.4,0-1.4-3s13.4-21.7,15.6-25.3c2.2-3.6,4-2.8,4,0
	S208.4,96.3,208.4,100.7L208.4,100.7z"/>
<path class="st1" d="M121.5,133.9c0,0,57.1-93.7,58.7-96.4c1.6-2.6,2.6-2.2,4.3-2.2c1.6,0,11.5,0,11.5,0L176,14l-45.4,21.3
	c0,0,5.7,0,9.1,0c3.4,0,2.4,1.8,2.4,1.8S121.4,71.3,119,75.2c-2.4,3.8-3,2.2-3,0.6s0-24.1,0-25.9s0-4-2.4-4s-28.1,0-30.4,0
	c-2.2,0-3.2,1.6-3.4,1.8C79.6,47.9,66,71,63.2,75.4c-2.8,4.5-3.2,0-3.2,0s0-21.3,0-25.9c0-4.7-2.4-3.6-2.4-3.6s-22.9,0-27.1,0
	c-4.3,0-3.6,2.6-3.6,2.6s0,78,0,84c0,6.1,2.4,4.9,2.4,4.9s25.1,0,30.8,0c5.7,0,5.7,0,7.1-3s12.1-20.9,14.4-24.9
	c2.2-4,4.1-3.6,4.1-0.4s0,21.3,0,23.9s0,4.5,2.4,4.5s24.1,0,28.1,0C120.1,137.4,121.5,133.9,121.5,133.9L121.5,133.9z"/>
<path class="st1" d="M450.4,29c0-3.1-2.6-3.5-4.3-3.5h-4.7v11.6h2.6v-4.7h1l3,4.7h3l-3.2-5C450.4,31.4,450.4,29.5,450.4,29L450.4,29
	z M445.6,30.5H444v-3.2h1.2c1,0,2.3,0,2.3,1.6C447.6,30.3,446.4,30.5,445.6,30.5L445.6,30.5z"/>
<path class="st1" d="M445.7,20.6c-6.1,0-11,4.9-11,11s4.9,11,11,11c6.1,0,11-4.9,11-11S451.8,20.6,445.7,20.6L445.7,20.6z
	 M445.7,40.9c-5.1,0-9.3-4.2-9.3-9.3c0-5.1,4.2-9.3,9.3-9.3c5.1,0,9.3,4.2,9.3,9.3C455,36.7,450.8,40.9,445.7,40.9L445.7,40.9z"/>
</svg>
