<?xml version="1.0" encoding="utf-8"?>
<!-- Generator: Adobe Illustrator 19.1.0, SVG Export Plug-In . SVG Version: 6.00 Build 0)  -->
<svg version="1.1" id="Calque_1" xmlns="http://www.w3.org/2000/svg" xmlns:xlink="http://www.w3.org/1999/xlink" x="0px" y="0px"
	 viewBox="-345 170.9 500 500" style="enable-background:new -345 170.9 500 500;" xml:space="preserve">
<style type="text/css">
	.st0{fill:#1A171B;}
	.st1{fill:#6FA623;}
</style>
<polygon class="st0" points="-136.6,478.9 -133.4,478.9 -135.6,492.8 -138.7,492.8 "/>
<polygon class="st0" points="-121.9,478.9 -118.8,478.9 -120.9,492.8 -124,492.8 -128.3,483.8 -129.7,492.8 -132.9,492.8 
	-130.7,478.9 -127.6,478.9 -123.3,488 "/>
<polygon class="st0" points="-106.7,478.9 -103.6,478.9 -105.7,492.8 -108.9,492.8 -113.1,483.8 -114.5,492.8 -117.7,492.8 
	-115.5,478.9 -112.4,478.9 -108.1,488 "/>
<path class="st0" d="M-92,485.9c-0.7,4.6-3,5-4,5c-1,0-3.2-0.4-2.5-5c0.7-4.6,3-5,4-5C-93.5,480.9-91.3,481.3-92,485.9L-92,485.9z
	 M-88.3,485.9c0.4-2.5,0-7.3-5.8-7.3s-7.7,4.8-8.1,7.3c-0.4,2.5,0,7.3,5.8,7.3C-90.6,493.2-88.7,488.4-88.3,485.9L-88.3,485.9z"/>
<polygon class="st0" points="-77,478.9 -73.9,478.9 -81,493.2 -83.8,493.2 -86.5,478.9 -83.4,478.9 -81.5,487.8 "/>
<path class="st0" d="M-68.4,483.2l1.1,4.4h-3.5L-68.4,483.2L-68.4,483.2z M-72.1,489.9h5.2l0.7,2.9h3.2l-3.3-13.9h-2.9l-7.6,13.9
	h3.2L-72.1,489.9L-72.1,489.9z"/>
<polygon class="st0" points="-62,481.2 -61.6,478.9 -51.1,478.9 -51.4,481.2 -55.1,481.2 -56.9,492.8 -60.1,492.8 -58.3,481.2 "/>
<polygon class="st0" points="-49.1,478.9 -46,478.9 -48.1,492.8 -51.3,492.8 "/>
<polygon class="st0" points="-34.5,478.9 -31.4,478.9 -38.5,493.2 -41.3,493.2 -44,478.9 -40.9,478.9 -39.1,487.8 "/>
<polygon class="st0" points="-27.1,484.6 -22.2,484.6 -22.6,486.9 -27.4,486.9 -28,490.5 -21.5,490.5 -21.8,492.8 -31.5,492.8 
	-29.4,478.9 -20.4,478.9 -20.8,481.2 -26.6,481.2 "/>
<path class="st0" d="M-1.4,482.4c-0.9-0.8-1.5-1.2-2.7-1.2c-2.3,0-3.9,1.6-4.4,4.7c-0.6,3.7,1.5,4.6,3,4.6c1,0,2.2-0.3,3.4-1.6
	l1.7,1.5c-2.2,2.2-4,2.8-6.2,2.8c-4.3,0-6.3-3.3-5.7-7.2c0.7-4.8,4.6-7.3,8.1-7.3c1.7,0,3.6,0.6,4.5,1.9L-1.4,482.4L-1.4,482.4z"/>
<path class="st0" d="M11.9,485.9c-0.7,4.6-3,5-4,5c-1,0-3.2-0.4-2.5-5c0.7-4.6,3-5,4-5C10.4,480.9,12.5,481.3,11.9,485.9L11.9,485.9
	z M15.5,485.9c0.4-2.5,0-7.3-5.8-7.3s-7.7,4.8-8.1,7.3c-0.4,2.5,0,7.3,5.8,7.3S15.1,488.4,15.5,485.9L15.5,485.9z"/>
<polygon class="st0" points="27.4,478.9 30.5,478.9 28.4,492.8 25.2,492.8 21,483.8 19.6,492.8 16.4,492.8 18.6,478.9 21.7,478.9 
	26,488 "/>
<polygon class="st0" points="42.6,478.9 45.7,478.9 43.6,492.8 40.4,492.8 36.2,483.8 34.8,492.8 31.6,492.8 33.8,478.9 36.9,478.9 
	41.2,488 "/>
<polygon class="st0" points="51.3,484.6 56.1,484.6 55.8,486.9 50.9,486.9 50.3,490.5 56.9,490.5 56.5,492.8 46.8,492.8 49,478.9 
	57.9,478.9 57.5,481.2 51.8,481.2 "/>
<path class="st0" d="M69.8,482.4c-0.9-0.8-1.5-1.2-2.7-1.2c-2.3,0-3.9,1.6-4.4,4.7c-0.6,3.7,1.5,4.6,3,4.6c1,0,2.2-0.3,3.4-1.6
	l1.7,1.5c-2.2,2.2-4,2.8-6.1,2.8c-4.3,0-6.3-3.3-5.7-7.2c0.7-4.8,4.6-7.3,8.2-7.3c1.6,0,3.6,0.6,4.5,1.9L69.8,482.4L69.8,482.4z"/>
<polygon class="st0" points="72.8,481.2 73.1,478.9 83.7,478.9 83.3,481.2 79.6,481.2 77.9,492.8 74.7,492.8 76.5,481.2 "/>
<polygon class="st0" points="84.8,478.9 88,478.9 85.8,492.8 82.7,492.8 "/>
<path class="st0" d="M99,485.9c-0.7,4.6-3,5-4,5c-1,0-3.2-0.4-2.5-5c0.7-4.6,3-5,4-5C97.5,480.9,99.7,481.3,99,485.9L99,485.9z
	 M102.7,485.9c0.4-2.5,0-7.3-5.8-7.3s-7.7,4.8-8.1,7.3c-0.4,2.5,0,7.3,5.8,7.3S102.3,488.4,102.7,485.9L102.7,485.9z"/>
<polygon class="st0" points="114.5,478.9 117.7,478.9 115.5,492.8 112.4,492.8 108.1,483.8 106.7,492.8 103.6,492.8 105.7,478.9 
	108.8,478.9 113.1,488 "/>
<path class="st0" d="M128.7,483.1c-0.9-1-2-1.9-3.5-1.9c-1.2,0-1.5,0.7-1.6,1.1c-0.2,1.1,1.8,1.6,3,2c1.7,0.6,4.6,1.7,4.1,4.7
	c-0.3,1.8-2.3,4.2-6.3,4.2c-1.1,0-4.5-0.1-5.8-3.9l2.7-1.6c1.2,2.3,3.1,2.5,3.9,2.5c1.1,0,1.7-0.6,1.8-1.1c0.2-1.4-1.4-1.7-2.6-2.1
	c-1.5-0.5-4.8-1.6-4.4-4.3c0.3-2.1,2.5-4,6-4c2.2,0,4,1,5.1,2.7L128.7,483.1L128.7,483.1z"/>
<path class="st1" d="M86.7,376.8c-4.9,0-59.1,0-68.4,0c-9.3,0-12.8,3.6-12.8,11.3s0,58.9,0,66.6c0,7.7,4.1,13.6,11.5,13.6
	s62.6,0,69.7,0c7.1,0,9.7-5.9,9.7-12.1c0-6.3,0-61.3,0-68.4C96.4,380.6,91.6,376.8,86.7,376.8L86.7,376.8z M63.8,433.5
	c0,3.2-0.2,3.2-2.2,3.2c-2,0-17.8,0-20.5,0c-2.6,0-2.6-0.2-2.6-2.8c0-2.6,0-21.5,0-23.5c0-2,0.2-2,3.2-2s17.6,0,19.8,0
	c2.2,0,2.2,0.2,2.2,2C63.8,412.2,63.8,430.2,63.8,433.5L63.8,433.5z"/>
<path class="st1" d="M-94.5,385.7c0,6.1,0,56.5,0,68.6s9.3,14,14.6,14c5.3,0,59.3,0,65.6,0c6.3,0,10.3-5.1,10.3-12.4
	c0-7.3,0-29,0-34.6c0-5.7-2.6-4.3-2.6-4.3s-34.6,0-38.1,0c-3.4,0-3,1.8-3,1.8s0,2.6,0,6.1c0,3.4,1.4,3.4,1.4,3.4s2.2,0,6.1,0
	c3.9,0,3.4,1.4,3.4,1.4s0,0.6,0,3.4c0,2.8-0.2,3.4-1.6,3.4c-1.4,0-15,0-19,0c-4.1,0-4.3-1.6-4.3-4.7s0-17.6,0-20.4
	c0-2.8,0-3.2,3.2-3.2c3.2,0,51.2,0,52.6,0c1.4,0,1.8,0,1.8-3s0-28.5,0-28.5s-74.3,0-80.4,0C-90.4,376.8-94.5,379.6-94.5,385.7
	L-94.5,385.7z"/>
<path class="st1" d="M-106.2,376.8c-3,0-45.6,0-50.2,0c-4.7,0-5.3,2.4-5.3,2.4s-54.7,90.7-58.3,96c-3.6,5.3-5.5,4-5.5,4H-237
	l21.5,20.5l44.9-20.5c0,0-7.1,0-9.7,0c-2.6,0-3.8,0-1.8-3.4c2-3.4,9.1-15,11.1-18.2c2-3.2,4.7-2.8,4.7-2.8s21.7,0,26.5,0
	s3.2,2,3.2,2s0,3.6,0,7.3c0,3.6,0,4.3,2.8,4.3c2.8,0,25.5,0,27.9,0c2.4,0,2.6-1.6,2.6-3.8c0-2.2,0-81,0-84.2
	C-103.2,377-103.2,376.8-106.2,376.8L-106.2,376.8z M-136.6,431.6c0,4.5,0,5.1-2.6,5.1c-2.6,0-14.2,0-15.6,0c-1.4,0-3.4,0-1.4-3
	c2-3,13.4-21.7,15.6-25.3c2.2-3.6,4-2.8,4,0C-136.6,411.2-136.6,427.2-136.6,431.6L-136.6,431.6z"/>
<path class="st1" d="M-223.5,464.8c0,0,57.1-93.7,58.7-96.4c1.6-2.6,2.6-2.2,4.3-2.2c1.6,0,11.5,0,11.5,0l-20-21.3l-45.4,21.3
	c0,0,5.7,0,9.1,0c3.4,0,2.4,1.8,2.4,1.8s-20.7,34.2-23.1,38.1c-2.4,3.8-3,2.2-3,0.6c0-1.6,0-24.1,0-25.9c0-1.8,0-4-2.4-4
	c-2.4,0-28.1,0-30.4,0c-2.2,0-3.2,1.6-3.4,1.8c-0.2,0.2-13.8,23.3-16.6,27.7c-2.8,4.5-3.2,0-3.2,0s0-21.3,0-25.9
	c0-4.7-2.4-3.6-2.4-3.6s-22.9,0-27.1,0c-4.3,0-3.6,2.6-3.6,2.6s0,78,0,84c0,6.1,2.4,4.9,2.4,4.9s25.1,0,30.8,0c5.7,0,5.7,0,7.1-3
	c1.4-3,12.1-20.9,14.4-24.9c2.2-4,4.1-3.6,4.1-0.4c0,3.2,0,21.3,0,23.9c0,2.6,0,4.5,2.4,4.5c2.4,0,24.1,0,28.1,0
	C-224.9,468.3-223.5,464.8-223.5,464.8L-223.5,464.8z"/>
<path class="st1" d="M105.4,359.9c0-3.1-2.6-3.5-4.3-3.5h-4.7V368H99v-4.7h1l3,4.7h3l-3.2-5C105.4,362.3,105.4,360.4,105.4,359.9
	L105.4,359.9z M100.6,361.4H99v-3.2h1.2c1,0,2.3,0,2.3,1.6C102.6,361.2,101.4,361.4,100.6,361.4L100.6,361.4z"/>
<path class="st1" d="M100.7,351.5c-6.1,0-11,4.9-11,11c0,6.1,4.9,11,11,11s11-4.9,11-11C111.7,356.4,106.8,351.5,100.7,351.5
	L100.7,351.5z M100.7,371.8c-5.1,0-9.3-4.2-9.3-9.3c0-5.1,4.2-9.3,9.3-9.3c5.1,0,9.3,4.2,9.3,9.3C110,367.6,105.8,371.8,100.7,371.8
	L100.7,371.8z"/>
</svg>
