<?xml version="1.0" encoding="utf-8"?>
<!-- Generator: Adobe Illustrator 21.0.2, SVG Export Plug-In . SVG Version: 6.00 Build 0)  -->
<svg version="1.1" id="Calque_1" xmlns="http://www.w3.org/2000/svg" xmlns:xlink="http://www.w3.org/1999/xlink" x="0px" y="0px"
	 viewBox="0 0 500 276" style="enable-background:new 0 0 500 276;" xml:space="preserve">
<style type="text/css">
	.st0{fill:#BF2E3E;}
	.st1{fill:#FFFFFF;}
	.st2{fill:#0D0802;}
</style>
<polygon class="st0" points="110.9,239.3 237.2,239.9 252.6,199.3 266.9,239.6 394,239.6 471.9,35.7 340.5,35.7 325.2,73.3 
	310.9,34.6 194.3,34.6 179.5,73.8 164.7,35.1 33.9,35.1 "/>
<path class="st1" d="M189.2,98.2L179,176.9h-28.4c-2.6-12.1-4.9-25.8-6.9-41.3c-0.9,6.6-3,20.4-6.3,41.3h-28.2L99,98.2h22.1
	l2.4,27.5l2.3,26.6c0.8-13.7,2.9-31.7,6.3-54h23.6c0.3,2.3,1.1,11,2.5,26l2.5,29.9c1.3-19.1,3.4-37.7,6.3-55.9L189.2,98.2
	L189.2,98.2z"/>
<path class="st1" d="M240.9,98.2l14.3,78.7h-25.6l-1.4-14.1h-9l-1.5,14.1h-25.9l12.8-78.7H240.9z M227.6,148.8
	c-1.3-8.9-2.5-19.9-3.8-33.1c-2.6,15.1-4.2,26.1-4.8,33.1H227.6z"/>
<path class="st1" d="M262.4,98.2h18c12,0,20.1,0.4,24.4,1.1c4.3,0.7,7.7,2.6,10.4,5.7c2.7,3.1,4,7.9,4,14.7
	c0,16.2-10.1,21.7-10.1,21.7l15.5,35.5H301l-13.1-35.5v35.5h-25.5L262.4,98.2L262.4,98.2z M287.8,114.5v14.7c2.9,0,4.9-0.3,6-0.9
	c1.1-0.6,1.7-2.7,1.7-6.1v-1.5c0-2.5-0.6-4.1-1.7-4.9C292.8,114.9,290.8,114.5,287.8,114.5z"/>
<path class="st1" d="M396.9,98.2v78.7h-30.8l-9.9-35.8v35.8h-24.4V98.2h30.7l10,35.4V98.2L396.9,98.2L396.9,98.2z"/>
<path class="st2" d="M402,252.5H101.1L13.3,20.7l477.2,1.5l-0.4,1.1L402,252.5z M102.2,251h298.7l87.3-227.2L15.6,22.4L102.2,251z"
	/>
<path d="M423.8,246.9c-0.1-0.2-0.4-0.4-0.7-0.5c0.7-0.1,1.2-0.3,1.5-0.7c0.3-0.3,0.5-0.8,0.5-1.4c0-0.6-0.2-1.1-0.6-1.5
	c-0.4-0.4-1-0.6-1.9-0.6H419v7.6l1.6-0.1v-3.1h0.4c0.4,0,0.8,0.1,1.1,0.4s0.6,0.8,1,1.5l0.6,1.2h1.9l-0.9-1.5
	C424.3,247.5,424,247.1,423.8,246.9z M421.8,245.5h-1.2h-0.1v-2.1h1.4c0.5,0,0.9,0.1,1.2,0.3c0.3,0.2,0.4,0.5,0.4,0.8
	c0,0.4-0.1,0.6-0.4,0.8C422.9,245.4,422.4,245.5,421.8,245.5z"/>
<path d="M427.3,240.9c-1.4-1.4-3.2-2.1-5.3-2.1c-1,0-1.8,0.3-2.9,0.8s-2.1,1.4-2.8,2.5s-1.1,2.4-1.1,3.8c0,1.9,0.7,3.6,2.1,5
	c1.3,1.4,3,2.1,5,2.1c1.9,0,3.6-0.7,5-2.1c1.4-1.4,2.1-3,2.1-5C429.4,244,428.7,242.3,427.3,240.9z M426.2,249.9
	c-1.1,1.1-2.4,1.7-4,1.7c-1.5,0-2.9-0.6-4-1.7c-1.1-1.1-1.7-2.4-1.7-4c0-1.5,0.5-2.9,1.6-4c1.1-1.1,2.5-1.7,4.3-1.7
	c0.8,0,1.6,0.2,2.5,0.6c0.9,0.5,1.6,1.2,2.2,2.1c0.5,0.9,0.8,1.9,0.8,3C427.9,247.4,427.3,248.8,426.2,249.9z"/>
</svg>
