<?xml version="1.0" encoding="utf-8"?>
<!-- Generator: Adobe Illustrator 19.1.0, SVG Export Plug-In . SVG Version: 6.00 Build 0)  -->
<svg version="1.1" id="Calque_1" xmlns="http://www.w3.org/2000/svg" xmlns:xlink="http://www.w3.org/1999/xlink" x="0px" y="0px"
	 viewBox="0 0 500 500" style="enable-background:new 0 0 500 500;" xml:space="preserve">
<style type="text/css">
	.st0{fill:#BF2E3E;}
	.st1{fill:#FFFFFF;}
	.st2{fill:#0D0802;}
</style>
<g>
	<polygon class="st0" points="110.9,351.3 237.2,351.9 252.6,311.3 266.9,351.6 394,351.6 471.9,147.7 340.5,147.7 325.2,185.3 
		310.9,146.6 194.3,146.6 179.5,185.8 164.7,147.1 33.9,147.1 	"/>
	<g>
		<path class="st1" d="M189.2,210.2L179,288.9h-28.4c-2.6-12.1-4.9-25.8-6.9-41.3c-0.9,6.6-3,20.4-6.3,41.3h-28.2L99,210.2h22.1
			l2.4,27.5l2.3,26.6c0.8-13.7,2.9-31.7,6.3-54h23.6c0.3,2.3,1.1,11,2.5,26l2.5,29.9c1.3-19.1,3.4-37.7,6.3-55.9L189.2,210.2
			L189.2,210.2z"/>
		<path class="st1" d="M240.9,210.2l14.3,78.7h-25.6l-1.4-14.1h-9l-1.5,14.1h-25.9l12.8-78.7H240.9z M227.6,260.8
			c-1.3-8.9-2.5-19.9-3.8-33.1c-2.6,15.1-4.2,26.1-4.8,33.1H227.6z"/>
		<path class="st1" d="M262.4,210.2h18c12,0,20.1,0.4,24.4,1.1c4.3,0.7,7.7,2.6,10.4,5.7c2.7,3.1,4,7.9,4,14.7
			c0,16.2-10.1,21.7-10.1,21.7l15.5,35.5h-23.6l-13.1-35.5v35.5h-25.5L262.4,210.2L262.4,210.2z M287.8,226.5v14.7
			c2.9,0,4.9-0.3,6-0.9c1.1-0.6,1.7-2.7,1.7-6.1v-1.5c0-2.5-0.6-4.1-1.7-4.9C292.8,226.9,290.8,226.5,287.8,226.5z"/>
		<path class="st1" d="M396.9,210.2v78.7h-30.8l-9.9-35.8v35.8h-24.4v-78.7h30.7l10,35.4v-35.4H396.9z"/>
	</g>
	<path class="st2" d="M402,364.5H101.1L13.3,132.7l477.2,1.5l-0.4,1.1L402,364.5z M102.2,363h298.7l87.3-227.2l-472.6-1.4L102.2,363
		z"/>
	<g>
		<path d="M422,350.8c2.1,0,3.9,0.7,5.3,2.1c1.4,1.4,2.1,3.1,2.1,5c0,2-0.7,3.6-2.1,5s-3.1,2.1-5,2.1c-2,0-3.7-0.7-5-2.1
			c-1.4-1.4-2.1-3.1-2.1-5c0-1.4,0.4-2.7,1.1-3.8s1.7-2,2.8-2.5S421,350.8,422,350.8z M422.4,352.2c-1.8,0-3.2,0.6-4.3,1.7
			s-1.6,2.5-1.6,4c0,1.6,0.6,2.9,1.7,4c1.1,1.1,2.5,1.7,4,1.7c1.6,0,2.9-0.6,4-1.7c1.1-1.1,1.7-2.5,1.7-4c0-1.1-0.3-2.1-0.8-3
			c-0.6-0.9-1.3-1.6-2.2-2.1C424,352.4,423.2,352.2,422.4,352.2z M419,361.8v-7.6h3.6c0.9,0,1.5,0.2,1.9,0.6
			c0.4,0.4,0.6,0.9,0.6,1.5c0,0.6-0.2,1.1-0.5,1.4c-0.3,0.4-0.8,0.6-1.5,0.7c0.3,0.1,0.6,0.3,0.7,0.5c0.2,0.2,0.5,0.6,0.9,1.3
			l0.9,1.5h-1.9l-0.6-1.2c-0.4-0.7-0.7-1.2-1-1.5c-0.3-0.3-0.7-0.4-1.1-0.4h-0.4v3.1L419,361.8L419,361.8z M420.6,357.5h1.2
			c0.6,0,1.1-0.1,1.3-0.2c0.3-0.2,0.4-0.4,0.4-0.8c0-0.3-0.1-0.6-0.4-0.8s-0.7-0.3-1.2-0.3h-1.4V357.5z"/>
	</g>
</g>
</svg>
