<?xml version="1.0" encoding="utf-8"?>
<!-- Generator: Adobe Illustrator 15.0.0, SVG Export Plug-In . SVG Version: 6.00 Build 0)  -->
<!DOCTYPE svg PUBLIC "-//W3C//DTD SVG 1.1//EN" "http://www.w3.org/Graphics/SVG/1.1/DTD/svg11.dtd">
<svg version="1.1" id="Calque_1" xmlns="http://www.w3.org/2000/svg" xmlns:xlink="http://www.w3.org/1999/xlink" x="0px" y="0px"
	 width="500px" height="500px" viewBox="0 0 500 500" enable-background="new 0 0 500 500" xml:space="preserve">
<g>
	<polygon fill="#BF2E3E" points="110.866,351.304 237.176,351.899 252.6,311.317 266.899,351.568 394.004,351.568 471.855,147.67 
		340.516,147.67 325.156,185.273 310.856,146.612 194.345,146.612 179.515,185.802 164.687,147.142 33.875,147.142 	"/>
	<g>
		<path fill="#FFFFFF" d="M189.16,210.172l-10.125,78.708h-28.385c-2.599-12.089-4.895-25.847-6.884-41.273
			c-0.912,6.611-3.025,20.369-6.346,41.273h-28.223l-10.178-78.708h22.088l2.405,27.46l2.323,26.552
			c0.836-13.741,2.936-31.747,6.282-54.012h23.612c0.316,2.303,1.143,10.956,2.485,25.962l2.51,29.947
			c1.296-19.05,3.409-37.688,6.345-55.91H189.16z"/>
		<path fill="#FFFFFF" d="M240.85,210.172l14.342,78.708H229.57l-1.35-14.149h-8.974l-1.508,14.149h-25.925l12.799-78.708H240.85z
			 M227.567,260.78c-1.271-8.912-2.543-19.933-3.825-33.058c-2.551,15.07-4.158,26.091-4.812,33.058H227.567z"/>
		<path fill="#FFFFFF" d="M262.375,210.172h18.016c12.009,0,20.136,0.374,24.391,1.119c4.251,0.745,7.714,2.647,10.396,5.711
			c2.68,3.063,4.019,7.949,4.019,14.658c0,16.172-10.126,21.732-10.126,21.732l15.491,35.488h-23.634l-13.102-35.489v35.489h-25.45
			V210.172z M287.825,226.464v14.676c2.861,0,4.867-0.315,6.013-0.948c1.149-0.632,1.724-2.681,1.724-6.149v-1.503
			c0-2.495-0.553-4.132-1.66-4.911C292.79,226.855,290.768,226.464,287.825,226.464z"/>
		<path fill="#FFFFFF" d="M396.916,210.172v78.708h-30.848l-9.913-35.781v35.781h-24.4v-78.708h30.738l10.02,35.443v-35.443H396.916
			z"/>
	</g>
	<polygon fill="none" stroke="#0D0802" stroke-width="1.5888" stroke-miterlimit="10" points="14.425,133.511 101.665,363.75 
		401.421,363.75 489.334,134.962 	"/>
	<g>
		<path d="M421.997,350.82c2.129,0,3.881,0.708,5.256,2.123c1.374,1.415,2.062,3.084,2.062,5.009c0,1.961-0.698,3.64-2.095,5.036
			s-3.075,2.095-5.036,2.095c-1.974,0-3.655-0.697-5.046-2.09c-1.39-1.394-2.085-3.074-2.085-5.041c0-1.385,0.367-2.655,1.103-3.812
			c0.736-1.157,1.656-2,2.761-2.527S421.048,350.82,421.997,350.82z M422.352,352.208c-1.751,0-3.169,0.577-4.255,1.731
			s-1.629,2.492-1.629,4.013c0,1.576,0.562,2.926,1.685,4.049c1.124,1.124,2.474,1.686,4.05,1.686c1.57,0,2.917-0.562,4.04-1.686
			c1.124-1.123,1.686-2.473,1.686-4.049c0-1.087-0.282-2.087-0.848-3.003c-0.564-0.915-1.291-1.601-2.178-2.057
			C424.015,352.436,423.164,352.208,422.352,352.208z M419.046,361.76v-7.569h3.585c0.887,0,1.532,0.207,1.936,0.619
			c0.403,0.413,0.605,0.92,0.605,1.522c0,0.583-0.169,1.052-0.508,1.405c-0.338,0.354-0.849,0.593-1.531,0.717
			c0.311,0.118,0.558,0.278,0.74,0.479c0.184,0.202,0.474,0.638,0.871,1.309l0.884,1.518h-1.89l-0.633-1.22
			c-0.379-0.727-0.713-1.222-1.001-1.485c-0.289-0.264-0.666-0.396-1.131-0.396h-0.4v3.101H419.046z M420.573,357.458h1.247
			c0.627,0,1.072-0.082,1.336-0.246c0.264-0.165,0.396-0.434,0.396-0.806c0-0.335-0.13-0.586-0.391-0.754s-0.655-0.251-1.183-0.251
			h-1.405V357.458z"/>
	</g>
</g>
</svg>
