<?xml version="1.0" encoding="utf-8"?>
<!-- Generator: Adobe Illustrator 15.0.0, SVG Export Plug-In . SVG Version: 6.00 Build 0)  -->
<!DOCTYPE svg PUBLIC "-//W3C//DTD SVG 1.1//EN" "http://www.w3.org/Graphics/SVG/1.1/DTD/svg11.dtd">
<svg version="1.1" id="Calque_1" xmlns="http://www.w3.org/2000/svg" xmlns:xlink="http://www.w3.org/1999/xlink" x="0px" y="0px"
	 width="500px" height="500px" viewBox="0 0 500 500" enable-background="new 0 0 500 500" xml:space="preserve">
<polygon fill="#034DA2" points="133.89,234.25 147.01,234.25 147.01,277.822 158.913,277.822 158.913,234.25 171.787,234.25 
	171.787,222.791 133.89,222.791 "/>
<polygon fill="#034DA2" points="175.839,277.822 207.378,277.822 207.378,266.363 190.51,266.363 190.51,256.356 206.807,256.356 
	206.807,243.047 190.51,243.047 190.51,235.79 207.378,235.79 207.378,222.745 175.839,222.745 "/>
<path fill="#034DA2" d="M251.191,251.309c2.685-2.546,3.474-6.376,3.474-10.352c0-5.11-1.867-9.295-5.558-12.445
	c-3.328-2.813-7.841-5.767-20.805-5.767h-13.88v55.077h13.31v-20.338l15.114,20.338h16.693l-17.821-21.931
	C244.067,254.878,248.485,253.875,251.191,251.309z M239.159,240.057c0,3.904-1.34,7.894-11.279,7.894h-0.125v-15.093h0.517
	C239.159,232.857,239.159,237.903,239.159,240.057z"/>
<polygon fill="#EE1C1D" points="386.877,235.79 398.139,235.79 398.139,277.822 410.041,277.822 410.041,235.79 421.271,235.79 
	421.271,224.331 386.877,224.331 "/>
<rect x="430.351" y="224.331" fill="#EE1C1D" width="11.902" height="53.491"/>
<path fill="#EE1C1D" d="M476.34,234.231c4.059,0,7.923,1.582,11.812,4.835l3.703,3.098v-14.88l-1.121-0.653
	c-4.432-2.582-9.104-3.891-13.887-3.891c-8.713,0-15.92,3.289-21.424,9.778c-4.457,5.281-6.718,11.384-6.718,18.141
	c0,7.545,2.709,14.081,8.062,19.434c5.362,5.294,11.926,7.978,19.508,7.978c5.024,0,9.881-1.304,14.433-3.875l1.146-0.648v-15.079
	l-3.709,3.123c-1.133,0.954-2.221,1.776-3.231,2.444c-0.966,0.638-1.901,1.147-2.781,1.514l-0.084,0.037
	c-1.51,0.701-3.421,1.058-5.678,1.058c-4.444,0-8.089-1.513-11.143-4.622c-3.066-3.122-4.557-6.859-4.557-11.426
	c0-4.638,1.494-8.442,4.579-11.64C468.283,235.776,471.909,234.231,476.34,234.231z"/>
<path fill="#034DA2" d="M105.015,224.023l-20.029,53.799h13.841l3.481-9.735h20.726l3.534,9.735h13.058l-19.497-53.799H105.015z
	 M106.03,257.936l6.655-18.498l6.696,18.498H106.03z"/>
<path fill="#EE1C1D" d="M354.207,223.874l-20.029,53.798h13.841l3.481-9.734h20.726l3.534,9.734h13.059l-19.497-53.798H354.207z
	 M355.223,257.786l6.654-18.499l6.696,18.499H355.223z"/>
<g>
	<g>
		<polygon fill="#EE1C1D" points="313.001,245.98 316.527,277.822 330.145,277.822 321.584,224.023 310.244,224.023 
			295.856,255.472 284.146,224.023 271.043,224.023 261.907,277.822 275.104,277.822 279.615,245.754 293.15,278.163 
			298.563,278.163 		"/>
	</g>
</g>
<g>
	<g>
		<polygon fill="#034DA2" points="60.801,277.562 75.351,277.562 91.029,224.331 78.101,224.331 67.569,257.936 56.741,224.023 
			45.313,224.023 33.281,257.936 23.122,224.331 10.224,224.331 24.934,277.562 39.824,277.562 50.65,245.754 		"/>
	</g>
</g>
<path fill="none" stroke="#FF0025" stroke-width="0.9023" stroke-miterlimit="10" d="M112.685,242.438"/>
</svg>
