<?xml version="1.0" encoding="utf-8"?>
<!-- Generator: Adobe Illustrator 21.0.2, SVG Export Plug-In . SVG Version: 6.00 Build 0)  -->
<svg version="1.1" id="Calque_1" xmlns="http://www.w3.org/2000/svg" xmlns:xlink="http://www.w3.org/1999/xlink" x="0px" y="0px"
	 viewBox="0 0 500 100" style="enable-background:new 0 0 500 100;" xml:space="preserve">
<style type="text/css">
	.st0{fill:#034DA2;}
	.st1{fill:#EE1C1D;}
</style>
<polygon class="st0" points="133.9,34.2 147,34.2 147,77.8 158.9,77.8 158.9,34.2 171.8,34.2 171.8,22.8 133.9,22.8 "/>
<polygon class="st0" points="175.8,77.8 207.4,77.8 207.4,66.4 190.5,66.4 190.5,56.4 206.8,56.4 206.8,43 190.5,43 190.5,35.8 
	207.4,35.8 207.4,22.7 175.8,22.7 "/>
<path class="st0" d="M251.2,51.3c2.7-2.5,3.5-6.4,3.5-10.4c0-5.1-1.9-9.3-5.6-12.4c-3.3-2.8-7.8-5.8-20.8-5.8h-13.9v55.1h13.3V57.5
	l15.1,20.3h16.7l-17.8-21.9C244.1,54.9,248.5,53.9,251.2,51.3z M239.2,40.1c0,3.9-1.3,7.9-11.3,7.9h-0.1V32.9h0.5
	C239.2,32.9,239.2,37.9,239.2,40.1z"/>
<polygon class="st1" points="386.9,35.8 398.1,35.8 398.1,77.8 410,77.8 410,35.8 421.3,35.8 421.3,24.3 386.9,24.3 "/>
<rect x="430.4" y="24.3" class="st1" width="11.9" height="53.5"/>
<path class="st1" d="M476.3,34.2c4.1,0,7.9,1.6,11.8,4.8l3.7,3.1V27.2l-1.1-0.7c-4.4-2.6-9.1-3.9-13.9-3.9c-8.7,0-15.9,3.3-21.4,9.8
	c-4.5,5.3-6.7,11.4-6.7,18.1c0,7.5,2.7,14.1,8.1,19.4s11.9,8,19.5,8c5,0,9.9-1.3,14.4-3.9l1.1-0.6V58.3l-3.7,3.1
	c-1.1,1-2.2,1.8-3.2,2.4s-1.9,1.1-2.8,1.5H482c-1.5,0.7-3.4,1.1-5.7,1.1c-4.4,0-8.1-1.5-11.1-4.6c-3.1-3.1-4.6-6.9-4.6-11.4
	c0-4.6,1.5-8.4,4.6-11.6C468.3,35.8,471.9,34.2,476.3,34.2z"/>
<path class="st0" d="M105,24L85,77.8h13.8l3.5-9.7H123l3.5,9.7h13.1L120.1,24H105z M106,57.9l6.7-18.5l6.7,18.5H106z"/>
<path class="st1" d="M354.2,23.9l-20,53.8H348l3.5-9.7h20.7l3.5,9.7h13.1l-19.5-53.8L354.2,23.9L354.2,23.9z M355.2,57.8l6.7-18.5
	l6.7,18.5H355.2z"/>
<polygon class="st1" points="313,46 316.5,77.8 330.1,77.8 321.6,24 310.2,24 295.9,55.5 284.1,24 271,24 261.9,77.8 275.1,77.8 
	279.6,45.8 293.1,78.2 298.6,78.2 "/>
<polygon class="st0" points="60.8,77.6 75.4,77.6 91,24.3 78.1,24.3 67.6,57.9 56.7,24 45.3,24 33.3,57.9 23.1,24.3 10.2,24.3 
	24.9,77.6 39.8,77.6 50.7,45.8 "/>
</svg>
