<?xml version="1.0" encoding="utf-8"?>
<!-- Generator: Adobe Illustrator 21.0.2, SVG Export Plug-In . SVG Version: 6.00 Build 0)  -->
<svg version="1.1" id="Calque_1" xmlns="http://www.w3.org/2000/svg" xmlns:xlink="http://www.w3.org/1999/xlink" x="0px" y="0px"
	 viewBox="0 0 500 208" style="enable-background:new 0 0 500 208;" xml:space="preserve">
<style type="text/css">
	.st0{fill:#FFED00;}
	.st1{fill:#AAC811;}
	.st2{clip-path:url(#SVGID_2_);fill:#3158A4;}
	.st3{fill:none;}
	.st4{fill:#6F4695;}
	.st5{fill:#FFE961;}
	.st6{fill:#FFD402;}
	.st7{fill:#3BBFF0;}
	.st8{fill:#3158A4;}
	.st9{fill:#E52424;}
	.st10{fill:#FFFFFF;}
</style>
<rect x="28.1" y="23.7" class="st0" width="447.3" height="163.6"/>
<path d="M77.5,116H66.4L54.9,55.8h-4.5v-9.9h21.2v9.9h-3.1l4.8,30.1l6.1-30.1h-3v-9.9h17.8v9.9h-3l6.2,30.1l4.9-30.1h-2.9v-9.9h16.5
	v9.9h-2.8L101.3,116H88.6l-5.5-26L77.5,116z"/>
<path d="M140.1,116h-22.6v-10.5h4.5l6.4-50h-3.2v-9.7H160v9.7h-4.6l7.8,50h4.3V116h-21.2v-10.5h3.4l-1.6-13.3h-11.7l-1.8,13.3h5.5
	L140.1,116L140.1,116z M141.8,55.5l-4.2,28.8h8.8L141.8,55.5z"/>
<path d="M203.9,116.7h-27.2v-11.1h5.6V56.9h-5.8V72h-8.8V45.9H213V72h-9.2V56.9H198v48.7h5.8L203.9,116.7L203.9,116.7z"/>
<path d="M253.6,116.7h-27.2v-11.1h5.6V56.9h-5.8V72h-8.8V45.9h45.4V72h-9.2V56.9h-5.8v48.7h5.8L253.6,116.7L253.6,116.7z"/>
<path d="M310.7,116.7H266v-11.6h5V56.9h-4.6V45.8h44.8v22.7h-10.7V56.9h-13.7v18.3h10.1v10.3h-10.1v19.6h12.5v-11h11.5L310.7,116.7
	L310.7,116.7z"/>
<path d="M409.2,116.7h-44.8v-11.6h5V56.9h-4.6V45.8h44.8v22.7h-10.7V56.9h-13.7v18.3h10.1v10.3h-10.1v19.6h12.5v-11h11.5
	L409.2,116.7L409.2,116.7z"/>
<path d="M359.9,116.7h-43.6v-11h4.5v-49h-4.5V45.8h28.9v10.9h-8.6v49h13.6V85.8h9.7V116.7L359.9,116.7z"/>
<path d="M453.5,116.7h-40.3v-11.1l24.7-50h-12.6v11.6h-8.9V45.8h36.9v9.8l-23.4,50l14.1-0.2v-12h9.5L453.5,116.7L453.5,116.7z"/>
<path class="st1" d="M76.6,145.4v-3.6c0.7,0,1.3-0.1,1.6-0.4c0.4-0.3,0.6-0.6,0.7-1s0.2,0.1,0.2-1h-2.5v-7.9h6.7v6.9
	c0,2-0.1,2.1-0.2,2.9s-0.4,1.5-0.9,2.2s-1.1,1.2-1.9,1.5C79.6,145.3,78.4,145.4,76.6,145.4z"/>
<g>
	<g>
		<defs>
			<path id="SVGID_1_" d="M76.6,145.4v-3.6c0.7,0,1.3-0.1,1.6-0.4c0.4-0.3,0.6-0.6,0.7-1s0.2,0.1,0.2-1h-2.5v-7.9h6.7v6.9
				c0,2-0.1,2.1-0.2,2.9s-0.4,1.5-0.9,2.2s-1.1,1.2-1.9,1.5C79.6,145.3,78.4,145.4,76.6,145.4z"/>
		</defs>
		<clipPath id="SVGID_2_">
			<use xlink:href="#SVGID_1_"  style="overflow:visible;"/>
		</clipPath>
		<path class="st2" d="M74.6,144.2c0,0,9.7-2.3,11-4.9C83.6,145.5,78.5,149.4,74.6,144.2z"/>
	</g>
</g>
<path d="M82.7,132.1v6.3c0,1.7,0,2-0.1,2.5v0.2c-0.1,0.7-0.4,1.3-0.8,1.9s-1,1-1.6,1.3c-0.6,0.2-1.5,0.3-2.9,0.4v-2.3
	c0.6-0.1,1-0.3,1.4-0.5c0.5-0.4,0.8-0.8,0.9-1.4c0.2-0.2,0.2-0.5,0.2-1.2v-0.7h-0.7h-1.9V132L82.7,132.1 M83.4,131.5h-6.7v7.9h2.5
	c0,1.1-0.1,0.6-0.2,1s-0.3,0.7-0.7,1c-0.4,0.3-0.9,0.4-1.6,0.4v3.6c1.7,0,3-0.1,3.7-0.4c0.8-0.3,1.4-0.8,1.9-1.5s0.8-1.5,0.9-2.2
	c0.1-0.8,0.2-0.9,0.2-2.9L83.4,131.5L83.4,131.5z"/>
<path class="st3" d="M175.9,157.9c0.2-1.1,0.2-2.5,0.2-4.3l0,0c0-2.1-0.1-3.7-0.4-4.8c-0.3-1.1-0.6-1.7-1.1-1.7
	c-0.1,0-0.1,0-0.2,0.1c-0.3,0.2-0.5,0.8-0.7,1.5c-0.3,1.1-0.4,2.7-0.4,4.9c0,4.4,0.4,6.7,1.4,6.8
	C175.2,160.3,175.6,159.5,175.9,157.9z"/>
<path class="st3" d="M95.3,148.6c-0.1-0.4-0.2-0.8-0.3-1.2l0,0l0,0c-0.4-0.8-0.8-1.2-1.4-1.2l0,0c-0.6,0-1.1,0.4-1.4,1.3
	s-0.5,2-0.5,3.3c0,0.2,0,0.4,0,0.5h3.8c0-0.5,0-0.7,0-0.8v-0.1C95.5,149.8,95.4,149.1,95.3,148.6z"/>
<path class="st3" d="M228.6,151.1L228.6,151.1c0-1.2-0.2-2.3-0.5-3.1l0,0l0,0c-0.4-0.8-0.8-1.2-1.4-1.2c-0.4,0-0.8,0.2-1.1,0.7
	c-0.1,0.2-0.2,0.4-0.3,0.6c-0.3,0.9-0.5,2-0.5,3.3c0,0.1,0,0.2,0,0.3c0,0.1,0,0.2,0,0.2h3.8C228.6,151.4,228.6,151.2,228.6,151.1z"
	/>
<path class="st3" d="M123,157.2c0,0.9,0.2,1.7,0.5,2.2c0.4,0.6,0.8,0.9,1.3,0.9c0.5,0.1,1-0.1,1.5-0.6c0.1-0.1,0.3-0.3,0.4-0.4v-4.2
	c-0.6-0.5-1.2-0.8-1.9-0.8c-0.4,0-0.8,0.1-1.1,0.4c-0.1,0.1-0.2,0.2-0.2,0.3C123.1,155.6,123,156.3,123,157.2z"/>
<path class="st3" d="M329.6,150c-0.4-0.9-1-1.4-1.7-1.4c-1.5,0-2.3,1.7-2.3,5.2c0,1.4,0.2,2.6,0.6,3.5s0.9,1.4,1.7,1.4
	c0.4,0,0.6-0.1,0.9-0.3c0.3-0.2,0.5-0.5,0.8-0.9l0,0c0.4-0.9,0.6-2.2,0.6-3.9C330.2,152.2,330,151,329.6,150L329.6,150z"/>
<path class="st3" d="M259.2,149.6c-0.1,0.5-0.1,1.1-0.1,1.8c0,0.2,0,0.4,0,0.5h3.8c0-0.5,0-0.7,0-0.8l0,0c0-1.2-0.2-2.3-0.5-3.1
	c-0.1-0.3-0.3-0.5-0.5-0.7c-0.3-0.3-0.6-0.5-0.9-0.5c-0.6,0-1.1,0.4-1.4,1.3C259.5,148.5,259.3,149,259.2,149.6z"/>
<path class="st3" d="M430.3,148c-0.4-0.8-0.8-1.2-1.4-1.2s-1.1,0.4-1.4,1.3c-0.1,0.5-0.3,1-0.4,1.5s-0.1,1.1-0.1,1.8
	c0,0.2,0,0.4,0,0.5h3.8c0-0.5,0-0.7,0-0.8l0,0c0-0.7-0.1-1.3-0.2-1.8C430.5,148.8,430.4,148.4,430.3,148z"/>
<path class="st1" d="M71.8,132.2h-2.7c-1.3,1.3-2.8,2.9-4.2,4.5v2h0.7h0.6v0.6v13.3c1.9-0.6,3.8-1.2,5.6-1.6V132.2z"/>
<rect x="65.6" y="139.3" class="st1" width="0" height="13.5"/>
<path class="st1" d="M64.9,163.8v0.5H73v-3.7C70.6,161.4,67.5,162.6,64.9,163.8z"/>
<path class="st4" d="M111.9,132.2H105v6.5h0.7h0.6v0.6v6.5c1.5-1.1,3.8-2,5.6-2.5C111.9,143.3,111.9,132.2,111.9,132.2z"/>
<path class="st4" d="M111.9,159.6V159v-9.3c-1.8,2.1-4,3.3-5.6,4v5.3v0.6h-0.6H105v4.7h8.1v-4.7h-0.6H111.9z"/>
<path class="st1" d="M95,147.4c-0.3-0.8-0.8-1.2-1.4-1.2C94.2,146.2,94.6,146.6,95,147.4z"/>
<path class="st1" d="M91.6,153.6h9.7c-0.1-1.6-0.2-2.9-0.5-4.2c-1.4,0.9-3.2,1.1-4.7,1v0.1c0,0,0,0.3,0,0.8v0.6h-0.6h-3.8h-0.6
	l-0.1-0.6c0-0.1,0-0.3,0-0.5c0-1.4,0.2-2.5,0.5-3.5c0.5-1.4,1.4-1.7,2-1.7s1.4,0.3,2,1.6c0.1,0.3,0.3,0.7,0.4,1.1
	c1.5-0.5,2.9-1.1,4.2-1.7c-0.3-0.7-0.6-1.4-1-2c-1.4-2-3.2-3-5.5-3c-2.4,0-4.2,1.1-5.6,3.3c-1.5,2.2-2.2,5-2.2,8.3
	c0,3.4,0.7,6.1,2.2,8.2c1.5,2,3.5,3,6.4,3c1.6,0,3-0.6,4.2-1.7c0.6-0.5,1.1-1.2,1.5-1.9c0.3-0.5,0.6-1.2,0.8-1.9l-4.3-0.9
	c-0.5,1.6-1.4,2.4-2.5,2.4c-3,0-3-4.7-3-6.2v-0.7h0.5V153.6z"/>
<path class="st1" d="M95.4,148.6c-0.1-0.4-0.2-0.8-0.4-1.2C95.1,147.7,95.2,148.1,95.4,148.6C95.3,148.6,95.3,148.6,95.4,148.6z"/>
<path class="st1" d="M101.4,149L101.4,149c0.3,1.5,0.5,3.3,0.6,5.2l0,0C102,152.2,101.8,150.5,101.4,149z"/>
<path class="st1" d="M101.4,159.5c-0.1,0.1-0.1,0.3-0.2,0.4C101.3,159.8,101.3,159.7,101.4,159.5z"/>
<path class="st1" d="M94.1,159.9c0.9,0,1.6-0.8,2-2.5l5.6,1.2v-0.1l-5.6-1.2c-0.4,1.7-1.1,2.5-2,2.4c-1.6,0-2.4-1.7-2.4-5.3l0,0
	C91.7,158.1,92.5,159.9,94.1,159.9z"/>
<polygon class="st1" points="93.8,139.4 99.5,131.5 99.4,131.5 93.7,139.4 "/>
<polygon class="st1" points="93.5,138.7 98.2,132.1 93.6,132.1 91.5,138.7 "/>
<path class="st1" d="M101.1,160.2c-0.1,0.2-0.1,0.3-0.2,0.4C101,160.5,101,160.4,101.1,160.2z"/>
<path class="st1" d="M93.5,141.1c2.5,0,4.5,1.1,6.1,3.4c0.4,0.6,0.7,1.2,1,1.9c0,0,0,0,0.1,0c-0.3-0.8-0.7-1.5-1.1-2.1
	C98,142.1,96,141,93.5,141.1c-2.6-0.1-4.6,1.1-6.1,3.4s-2.3,5.2-2.3,8.7l0,0c0-3.5,0.8-6.4,2.3-8.7
	C88.9,142.3,90.9,141.1,93.5,141.1z"/>
<path class="st1" d="M95.5,150.5C95.5,150.5,95.5,150.4,95.5,150.5C95.5,150.4,95.5,150.4,95.5,150.5
	C95.5,150.4,95.5,150.5,95.5,150.5z"/>
<path class="st5" d="M126.6,148.5c-0.1-0.6-0.4-1.1-0.8-1.5c-0.5-0.4-1-0.6-1.6-0.6c-1.1,0-1.9,0.7-2.5,2.2l-3.2-0.5l-0.1,0.1
	l3.3,0.6c0.5-1.5,1.4-2.2,2.5-2c0.6,0,1.1,0.2,1.6,0.6c0.4,0.4,0.7,0.9,0.8,1.5c0.1,0.6,0.2,1.6,0.2,3v-0.3
	C126.8,150,126.7,149.1,126.6,148.5z"/>
<path class="st5" d="M116.6,158.5v0.1c0,1.3,0.2,2.4,0.7,3.5h0.1C116.9,161,116.6,159.8,116.6,158.5z"/>
<path class="st5" d="M130.4,164.4h4.1v-5.3C133.6,161,132.1,162.9,130.4,164.4z"/>
<path class="st5" d="M132.9,158L132.9,158v-6.7c0-2-0.1-3.5-0.3-4.4s-0.6-1.7-1.1-2.5c-0.5-0.7-1.2-1.3-2.3-1.6c-0.1,0-0.1,0-0.2,0
	c-3.7,0-7.6,2.7-10,4.9l2.2,0.4c0.7-1.4,1.7-2.1,2.9-2.1c0.8,0,1.4,0.3,2,0.8c0.5,0.6,0.8,1.2,1,1.9c0.1,0.6,0.2,1.6,0.2,3.1v0.7
	v1.3l-1-0.8c-0.8-0.7-2.1-1-3.6-1c-1.7,0-3,0.6-4,1.8c-1.1,1.2-1.6,2.8-1.6,4.8c0,1.3,0.3,2.6,0.8,3.7
	C124,163.1,129.7,160.1,132.9,158z M122.8,154.7c0.5-0.8,1.2-1.2,2-1.2c0.9,0,1.7,0.3,2.4,1l0.2,0.2v0.3v4.2v0.2l-0.1,0.2
	c-0.6,1-1.5,1.5-2.6,1.5c-0.7,0-1.3-0.4-1.9-1.3c-0.4-0.7-0.6-1.6-0.6-2.6S122.4,155.4,122.8,154.7z"/>
<path class="st5" d="M129.4,165.2h6v-0.3h-5.6C129.7,165,129.6,165.1,129.4,165.2z"/>
<path class="st5" d="M124.7,160.4c0.6,0,1.2-0.2,1.6-0.7C125.8,160.2,125.3,160.4,124.7,160.4c-0.4-0.1-0.8-0.4-1.2-1
	c-0.3-0.5-0.5-1.3-0.5-2.2c0-0.9,0.1-1.6,0.5-2.2c0.1-0.1,0.1-0.2,0.2-0.3c-0.1,0.1-0.2,0.2-0.3,0.4c-0.3,0.6-0.5,1.3-0.5,2.2
	s0.1,1.6,0.5,2.2C123.8,160.1,124.2,160.4,124.7,160.4z"/>
<path class="st6" d="M145.2,158.2c-0.2-0.2-0.9-0.6-2.1-1.1c-0.9-0.4-2-0.9-3.1-1.5c-1-0.4-1.7-1.1-2.3-1.8c-0.6-0.8-1-1.5-1.2-2.2
	c0-0.1,0-0.1,0-0.2l0,0c0,0.1,0,0.2,0.1,0.3c0.2,0.7,0.6,1.5,1.2,2.2c0.5,0.7,1.3,1.3,2.3,1.8c1.1,0.5,2.2,1.1,3.1,1.5
	c1.1,0.5,1.8,0.8,2.1,1.1c0.3,0.2,0.4,0.6,0.4,0.9l0,0C145.6,158.8,145.5,158.4,145.2,158.2z"/>
<path class="st6" d="M144,149.5c1.7,0.6,3,1.2,3.9,1.8c0.9,0.6,1.6,1.4,2.1,2.4s0.7,2.2,0.7,3.7c0,0.7,0,1.4-0.1,2l0.1-0.1
	c0.1-0.6,0.1-1.2,0.1-1.9c0-1.5-0.2-2.7-0.7-3.7s-1.2-1.8-2.1-2.4C147.1,150.7,145.8,150.1,144,149.5c-0.1-0.1-0.2-0.1-0.3-0.2
	c0,0,0,0-0.1,0C143.7,149.4,143.9,149.5,144,149.5z"/>
<path class="st6" d="M140.8,163.6v1.4h-4.2v0.1h4.2V163.6C140.9,163.6,140.8,163.6,140.8,163.6z"/>
<path class="st6" d="M142.7,164.3c3.1-1.4,5.6-3.1,7.3-4.5c0.1-0.6,0.2-1.4,0.2-2.1c0-1.4-0.2-2.6-0.6-3.5c-0.4-0.9-1.1-1.7-1.9-2.2
	c-0.9-0.6-2.2-1.2-3.8-1.8c-0.6-0.3-1.1-0.4-1.5-0.6c-2.2,0.5-4,1.1-5.4,1.6c0,0.2,0.1,0.4,0.1,0.5c0.2,0.7,0.6,1.3,1.1,2
	s1.2,1.3,2.1,1.7c1.2,0.6,2.2,1.1,3.1,1.5c1.6,0.7,2.1,1,2.3,1.2c0.4,0.4,0.6,0.9,0.6,1.5c0,0.5-0.3,1.9-2.5,1.9
	c-1.4,0-2.6-0.9-3.7-2.8h-2.9v6h2.9v-0.8v-1.5l1.1,1C141.7,163.8,142.2,164.1,142.7,164.3z"/>
<path class="st5" d="M175.7,148.8c0.3,1.1,0.4,2.7,0.4,4.8c0.1,0,0.1,0,0.2,0v-0.1c0-2-0.2-3.7-0.4-4.8c-0.3-1.1-0.6-1.7-1.1-1.7
	c-0.1,0-0.3,0.1-0.4,0.2c0.1,0,0.1-0.1,0.2-0.1C175.1,147.1,175.4,147.7,175.7,148.8z"/>
<path class="st5" d="M172.7,153c0-1.9,0.1-3.4,0.4-4.5c0.1-0.6,0.5-2.2,1.7-2.2s1.6,1.6,1.7,2.2c0.3,1.2,0.4,2.9,0.4,5v0.1
	c2.2,0,4.8,0,6.4,0.2v-0.1c0-3.4-0.9-6.2-2.5-8.3c-1.7-2.1-3.7-3.1-6.3-3.1c-2.5,0-4.5,1-5.9,3.2c-0.6,0.9-1.1,2-1.5,3.1
	C168.6,150.1,170.8,152.1,172.7,153z"/>
<path class="st5" d="M168,162.2c-0.8-1.1-1.4-2.3-1.8-3.7c0,0,0,0-0.1,0C166.5,159.9,167.1,161.2,168,162.2c1.6,2.4,3.9,3.5,6.8,3.5
	c2.5,0,4.4-0.9,6-2.6c-1.6,1.7-3.5,2.5-5.9,2.5C171.9,165.6,169.6,164.5,168,162.2z"/>
<path class="st5" d="M183.2,155.6c-1.5,0.6-3.9,1.4-6.5,2.1c-0.3,2.3-1,3.3-2,3.3c-0.9,0-1.5-0.8-1.8-2.5c-2.2,0.4-4.3,0.5-5.9,0.3
	c0.4,1.2,0.9,2.2,1.6,3.2c1.5,2.2,3.6,3.2,6.3,3.2c2.5,0,4.5-1.1,6-3.2C182.2,160.2,182.9,158.1,183.2,155.6z"/>
<path class="st5" d="M174.7,160.4L174.7,160.4c0.7,0,1.1-0.8,1.3-2.5h-0.1C175.6,159.5,175.2,160.3,174.7,160.4z"/>
<path class="st6" d="M194.4,158.9v-8.2c0.5-0.7,1-1.1,1.5-1.3c-0.5,0.2-1.1,0.7-1.7,1.4v8.2h1.8v6l0.2-6.1H194.4z"/>
<path class="st6" d="M195.4,159.4h-1.2h-0.6v-0.6v-8.2v-0.2l0.1-0.2c0.6-0.8,1.3-1.3,1.9-1.5c-1.7-0.1-3.2-0.2-4-0.3
	c-1.1-0.1,0.1-1.6,2-3.3V145v-2.5h-7.2v3.4h1h0.6v0.6V159v0.4h-0.6h-1v4.8h9V159.4z"/>
<path class="st6" d="M198.2,150c0.2,0.7,0.3,2.4,0.3,5v5.6c1.7-1.3,3.9-2.6,5.6-4v-5.9v-0.2l0.1-0.2c-1.8-0.8-4.4-1.3-6.8-1.5
	C197.8,149.1,198,149.5,198.2,150z"/>
<path class="st6" d="M194.2,144.6v-2.8h-0.1v2.9C194.1,144.6,194.2,144.6,194.2,144.6z"/>
<path class="st6" d="M204.6,150.8v5.4c0.1-0.1,0.1-0.1,0.2-0.2v-5.3l0,0h-0.1C204.7,150.7,204.6,150.7,204.6,150.8z"/>
<path class="st4" d="M225.3,148.1c0.1-0.2,0.2-0.4,0.3-0.6C225.5,147.7,225.4,147.9,225.3,148.1c-0.3,0.9-0.5,2-0.5,3.3
	c0,0.1,0,0.2,0,0.3c0-0.1,0-0.2,0-0.3C224.8,150.1,225,149,225.3,148.1z"/>
<path class="st4" d="M229.8,165.2c-0.8,0.3-1.6,0.5-2.5,0.5C228.2,165.7,229,165.5,229.8,165.2z"/>
<polygon class="st4" points="224.8,151.9 228.6,151.9 228.6,151.9 "/>
<path class="st4" d="M231.9,144.1L231.9,144.1c-1.5-1.7-3.3-2.5-5.4-2.5C228.7,141.6,230.4,142.4,231.9,144.1z"/>
<path class="st4" d="M224.6,154.2h9.7c0-0.7-0.1-1.4-0.2-2.1c-0.6-0.2-1.3-0.7-2.1-1.4c-1.8-1.7-1.4-4-0.4-5.9
	c-1.3-1.6-3-2.5-5.1-2.5c-2.3,0-4.1,1-5.7,3.2c0,0.1-0.1,0.1-0.1,0.2c1.4,2.6,2,5.5,1.7,7.6c-0.6,3.9-2.1,4.5-3.1,5.8
	c0.4,1.1,0.8,2.1,1.5,2.9c1.5,2,3.5,3,6.4,3c1.6,0,3-0.6,4.2-1.7c0.6-0.5,1.1-1.2,1.5-1.9c0.3-0.6,0.6-1.2,0.8-1.9l-4.3-0.9
	c-0.5,1.6-1.4,2.4-2.5,2.4c-3,0-3-4.7-3-6.2v-0.6H224.6z M224.1,151.4c0-1.4,0.2-2.5,0.5-3.5c0.5-1.4,1.4-1.7,2-1.7s1.4,0.3,2,1.6
	c0.4,0.9,0.6,2,0.6,3.3c0,0,0,0.3,0,0.8v0.6h-0.6h-3.8h-0.6l-0.1-0.6C224.1,151.8,224.1,151.6,224.1,151.4z"/>
<polygon class="st4" points="228.6,138.9 226.5,132.1 221.9,132.1 226.6,138.9 "/>
<polygon class="st4" points="229.6,139.5 227,131.4 229.5,139.5 "/>
<path class="st4" d="M228.1,148c-0.3-0.8-0.8-1.2-1.4-1.2C227.3,146.8,227.7,147.2,228.1,148z"/>
<path class="st4" d="M228.1,148c0.3,0.8,0.5,1.9,0.5,3.1C228.6,149.8,228.5,148.8,228.1,148z"/>
<path class="st4" d="M233.6,161.8L233.6,161.8c0.5-0.8,0.8-1.7,1.1-2.7C234.4,160.1,234,161,233.6,161.8L233.6,161.8z"/>
<polygon class="st4" points="229.1,157.9 229.1,157.9 234.7,159.1 "/>
<path class="st4" d="M234.9,152.3C234.8,152.3,234.8,152.3,234.9,152.3c0.1,0.8,0.1,1.6,0.1,2.5l0,0
	C235,153.9,234.9,153.1,234.9,152.3z"/>
<path class="st4" d="M227.1,160.4c0.9,0,1.6-0.8,2-2.5C228.7,159.5,228,160.4,227.1,160.4c-1.6-0.1-2.4-1.9-2.4-5.5l0,0
	C224.7,158.6,225.5,160.4,227.1,160.4z"/>
<polygon class="st7" points="259.1,151.9 262.9,151.9 262.9,151.9 "/>
<path class="st7" d="M256.4,164.1c-0.6-0.5-1.1-1-1.6-1.7c-1.5-2.2-2.3-5.1-2.3-8.6c0-2,0.3-3.8,0.8-5.4h-0.1
	c-0.5,1.6-0.8,3.4-0.8,5.4c0,3.5,0.8,6.4,2.3,8.6C255.2,163.1,255.7,163.7,256.4,164.1L256.4,164.1z"/>
<path class="st7" d="M262.6,147.3c0.1,0.2,0.2,0.3,0.3,0.5c0.4,0.9,0.6,2,0.6,3.3c0,0,0,0.3,0,0.8v0.6h-0.6h-3.8h-0.6l-0.1-0.6
	c0-0.1,0-0.3,0-0.5c0-1.4,0.2-2.5,0.5-3.5c0.1-0.2,0.1-0.3,0.2-0.4c-1.9,0.2-3.8,0.5-5.2,0.8c-0.6,1.6-0.8,3.5-0.8,5.6
	c0,3.4,0.7,6.1,2.2,8.2c0.4,0.6,0.9,1.1,1.4,1.5c0.7-1.3,1.7-2.4,2.8-3.4c-1.1-1.4-1.1-4.2-1.1-5.3v-0.6h0.7h9.7
	c-0.1-2.5-0.4-4.6-1-6.3C266.2,147.5,264.4,147.3,262.6,147.3z"/>
<path class="st7" d="M262.4,148c0.3,0.8,0.5,1.9,0.5,3.1C262.9,149.8,262.8,148.8,262.4,148z"/>
<path class="st7" d="M262.4,148c-0.1-0.3-0.3-0.5-0.4-0.7l0,0C262.1,147.5,262.3,147.7,262.4,148z"/>
<path class="st8" d="M287.6,153.1C287.6,153.1,287.5,153.1,287.6,153.1l-0.1,5.9h0.1V153.1z"/>
<path class="st8" d="M293.7,143h-6.9v3.3h0.7h0.6v0.6v0.2c1.8-1,3.9-1.9,5.6-2.5L293.7,143L293.7,143z"/>
<path class="st8" d="M293.7,159.6V159v-7.9c-1.7,1.8-3.8,2.4-5.6,2.1v5.8v0.6h-0.6h-0.7v4.7h8v-4.7h-0.5H293.7z"/>
<rect x="286.1" y="159" class="st8" width="0.1" height="6"/>
<path class="st8" d="M287.6,146.9L287.6,146.9l-0.1,0.6c0,0,0.1,0,0.1-0.1V146.9z"/>
<rect x="286.1" y="142.3" class="st8" width="0.1" height="4.6"/>
<path class="st8" d="M288,132.9c0.7-0.7,1.6-1.1,2.7-1.1C289.6,131.8,288.7,132.1,288,132.9z"/>
<path class="st8" d="M291.5,131.9c0.5,0.1,0.9,0.3,1.3,0.6C292.4,132.2,292,132,291.5,131.9z"/>
<path class="st8" d="M288.3,138.4c0.6,0.5,1.3,0.8,2.2,0.8c0.9,0,1.6-0.3,2.2-0.9s0.9-1.4,0.9-2.5c0-1-0.2-1.8-0.8-2.5
	c-0.5-0.6-1.2-0.9-2.1-0.9s-1.6,0.3-2.4,1c-0.6,0.6-0.9,1.4-0.9,2.5C287.4,137,287.7,137.9,288.3,138.4z"/>
<path class="st8" d="M287.5,138.3c-0.3-0.4-0.5-0.9-0.6-1.5C287.1,137.4,287.3,137.9,287.5,138.3z"/>
<path class="st1" d="M318.3,157.8h-1.6V152c0-3.6-0.5-6.2-1.3-7.8c-0.9-1.6-2.1-2.4-3.8-2.4c-1.9,0-3.7,1.1-5.4,3.3v0.1
	c1.7-2.2,3.5-3.3,5.4-3.3c1.7,0,2.9,0.8,3.6,2.3c0.9,1.6,1.3,4.2,1.3,7.8v5.8h1.6v7.2h0.2L318.3,157.8L318.3,157.8z"/>
<rect x="297.7" y="142.2" class="st1" width="8.5" height="0.1"/>
<path class="st1" d="M306.2,150.8v7.1h1.9v7.1l0.2-7.2h-1.9v-7.1c0.3-0.4,0.6-0.6,0.9-0.8C306.9,150.1,306.6,150.4,306.2,150.8z"/>
<path class="st1" d="M310,150.3c0.3,0.8,0.4,2.3,0.4,4.6v9.5h7.1v-5.9h-0.9H316v-0.6v-5.8c0-3.5-0.4-6-1.2-7.5
	c-0.7-1.4-1.8-2.1-3.2-2.1c-1.7,0-3.3,1.1-5,2.9l-1.2,1.5V145v-2.2h-7.2v5.9h1h0.6v0.6v1c2.3-2.1,4.6-3.8,4.6-1.8
	c0,2.4-2.2,5.5-4.6,6.7v2.5v0.6h-0.6h-1v5.9h9.1v-5.9h-1.2h-0.6v-0.6v-7.1v-0.2l0.2-0.2c0.8-0.9,1.6-1.4,2.4-1.4
	C309,148.8,309.7,149.4,310,150.3z"/>
<rect x="297.7" y="157.8" class="st1" width="1.7" height="0.1"/>
<polygon class="st1" points="337.1,132.4 337,132.4 337,157.9 338.6,157.9 338.6,165.1 338.7,165.1 338.7,157.9 337.1,157.9 "/>
<path class="st1" d="M330.2,153.6c0,1.7-0.2,3-0.6,3.9C330,156.7,330.2,155.4,330.2,153.6z"/>
<path class="st1" d="M325.8,165.5L325.8,165.5L325.8,165.5c1.6,0,3-0.6,4.3-1.8v-0.1C328.8,164.9,327.5,165.5,325.8,165.5z"/>
<path class="st1" d="M327.9,148.6L327.9,148.6c-1.5,0-2.3,1.7-2.3,5.2c0,1.4,0.2,2.6,0.6,3.5c-0.4-0.9-0.6-2.1-0.6-3.5
	C325.6,150.3,326.4,148.6,327.9,148.6z"/>
<path class="st1" d="M330.2,143.7c-1.2-1.2-2.5-1.8-4.1-1.8l0,0C327.7,141.9,329,142.5,330.2,143.7L330.2,143.7z"/>
<path class="st1" d="M330.2,153.6c0-1.5-0.2-2.6-0.6-3.6C330,151,330.2,152.2,330.2,153.6z"/>
<path class="st1" d="M330.8,163.5v0.9h7.2v-5.9h-1.1h-0.6v-0.6v-24.8l-7.1-0.2v5.9h1h0.6v0.6v4.2v1.7l-1.1-1.2
	c-1-1.2-2.3-1.7-3.7-1.7c-2,0-3.5,1-4.7,2.9c-1.3,2.1-1.9,5-1.9,8.8c0,0.1,0,0.2,0,0.3c3-0.5,8.8,7.6,7.4,10.3
	c1.1-0.2,2-0.8,2.9-1.7l1.1-1.1L330.8,163.5L330.8,163.5z M330.2,157.8c-0.7,1.3-1.7,1.6-2.3,1.6c-0.7,0-1.7-0.4-2.3-1.8
	c-0.4-1-0.6-2.3-0.6-3.8c0-3.8,1-5.8,3-5.8c0.7,0,1.7,0.3,2.3,1.8c0.4,1,0.6,2.3,0.6,3.8C330.9,155.5,330.7,156.9,330.2,157.8z"/>
<rect x="340.1" y="142.3" class="st9" width="8.4" height="0.1"/>
<path class="st9" d="M352.1,156.8L352.1,156.8c-0.5,0.5-1.1,0.8-1.7,0.9v0.1C351,157.7,351.6,157.4,352.1,156.8z"/>
<path class="st9" d="M348.5,153.8L348.5,153.8c0-0.2,0-0.5,0-0.7v0.1C348.5,153.4,348.5,153.6,348.5,153.8z"/>
<path class="st9" d="M341.7,155v-5.4h-0.1v5.2c0,0.2,0,0.4,0,0.7h0.1C341.7,155.3,341.7,155.1,341.7,155z"/>
<rect x="359" y="157.8" class="st9" width="1.5" height="0.2"/>
<path class="st9" d="M352.7,162.1v2.2h7.1v-5.9h-0.9h-0.6v-0.6v-2.7c-1.8,0.6-4,0.8-3.4-1.8c0.6-2.4,2.2-4,3.4-5v-5.4H351v5.9h1.2
	h0.6v0.6v7.3v0.3l-0.2,0.2c-0.7,0.7-1.4,1.1-2.1,1.2c0.1,1.4,0.2,2.8,0.3,4.2c0.3-0.3,0.6-0.6,0.9-0.9l1.1-1.4v1.8H352.7z"/>
<path class="st9" d="M352.1,162.4v2.6h0.1v-2.7L352.1,162.4z"/>
<path class="st9" d="M347.9,153.2V143h-7.1v5.9h0.9h0.6v0.6v5.4c0,0.1,0,0.2,0,0.4c1.8-0.5,4-1.1,5.6-1.3
	C347.9,153.7,347.9,153.5,347.9,153.2z"/>
<rect x="350.3" y="142.2" class="st9" width="8.6" height="0.1"/>
<path class="st10" d="M388,157.4c-0.5,0-0.8-0.2-0.9-0.7s-0.2-1.5-0.2-2.9V152c0,0-0.1,0-0.1-0.1v1.9c0,1.5,0,2.4,0.2,2.9
	C387.1,157.3,387.4,157.5,388,157.4c0.3,0.1,0.9-0.1,1.5-0.6v7c0,0,0,0,0,0.1c0-0.1,0.1-0.1,0.1-0.2v-7
	C389,157.2,388.4,157.5,388,157.4z"/>
<path class="st10" d="M380.7,148.9v0.6v3.8c0,1,0,1.8,0,2.6c0.7,0.6,1.6,1.6,2.3,2.9c0.8,1.4,1.7,4.1,2.3,6.2c0.6,0,1.4-0.1,2.1-0.5
	c0.6-0.3,1.1-0.6,1.5-1v-5.6c-0.3,0.1-0.6,0.2-0.9,0.2c-0.7,0-1.3-0.4-1.5-1.2c-0.2-0.6-0.3-1.6-0.3-3.1v-2.3
	c-1.6-1.1-3.6-2.2-4.7-3.5c-1.1-1.4,2-4.1,4.7-5.9v-7.5l-5.5,4.6v3.2v0.6h-0.6h-1v5.9h1L380.7,148.9L380.7,148.9z"/>
<path class="st10" d="M386.8,141.7C386.8,141.6,386.9,141.6,386.8,141.7l0.1-8.6l-6.8,5.6l0,0l6.7-5.5L386.8,141.7z"/>
<rect x="378.4" y="142.2" class="st10" width="1.6" height="0.1"/>
<rect x="391.2" y="157.8" class="st10" width="1.8" height="0.1"/>
<path class="st10" d="M400.7,144.3c0.4-0.7,0.9-1.2,1.3-1.6c0.1-0.1,0.2-0.3,0.3-0.4c-0.6,0.3-1.1,1-1.6,1.8
	c-0.2,0.4-0.5,0.9-0.7,1.4c0.1-0.1,0.1-0.2,0.2-0.3C400.4,144.9,400.5,144.6,400.7,144.3z"/>
<path class="st10" d="M399.1,158.4v-0.6c0-1.4,0.1-2.6,0.4-3.5c0.1-0.3,0.3-0.6,0.4-0.9c-0.3-0.7-0.5-1.4-0.7-2l-0.6,2.7V148v-5.1
	h-6.8v5.9h1.1h0.4v0.6v8.4v0.6h-0.6h-1.1v5.9h9.3v-5.9h-1.3H399.1z"/>
<rect x="391.2" y="142.2" class="st10" width="8.1" height="0.1"/>
<path class="st5" d="M409.7,138.4c0.6,0.5,1.3,0.8,2.2,0.8s1.6-0.3,2.2-0.9c0.5-0.6,0.8-1.4,0.8-2.5c0-1-0.2-1.8-0.8-2.5
	c-0.5-0.6-1.2-0.9-2.1-0.9s-1.6,0.3-2.3,1c-0.6,0.6-0.9,1.4-0.9,2.5C408.8,137,409.1,137.9,409.7,138.4z"/>
<path class="st5" d="M409.3,132.9c0.7-0.7,1.6-1.1,2.7-1.1C410.9,131.8,410,132.1,409.3,132.9z"/>
<path class="st5" d="M412,131.8L412,131.8c0.5,0,1,0.1,1.5,0.3C413.1,131.9,412.6,131.8,412,131.8z"/>
<path class="st5" d="M412,139.9L412,139.9L412,139.9z"/>
<path class="st5" d="M408.9,149.5L408.9,149.5l-0.1,0.3h0.1V149.5z"/>
<polygon class="st5" points="416.6,157.9 416.6,157.8 415.7,157.8 415.7,157.9 "/>
<path class="st5" d="M416,158.4h-0.5h-0.6v-0.6v-14.9H408v5.9h0.7h0.6v0.6v0.3c1.7,0,3.4,1.4,3.4,2.9c0,1.7-1.8,2.8-3.4,3.4v1.8v0.6
	h-0.6H408v5.9h8V158.4z"/>
<path class="st5" d="M408.9,157.9v-1.7h-0.1L408.9,157.9l-1.5-0.1v7.2h0.1v-7.1H408.9z"/>
<polygon class="st5" points="415.5,142.3 415.5,142.2 407.4,142.2 407.4,149.4 407.5,149.4 407.5,142.3 "/>
<path class="st9" d="M428.8,165c0.2,0,0.5,0,0.7,0c1.6,0,3-0.6,4.2-1.7c0.6-0.5,1.1-1.2,1.5-1.9c0.3-0.5,0.6-1.2,0.8-1.9l-4.3-0.9
	c-0.5,1.6-1.4,2.4-2.5,2.4c-0.1,0-0.2,0-0.2,0C429,162.3,429,163.8,428.8,165z"/>
<path class="st9" d="M426.8,147.9c0.5-1.4,1.4-1.7,2-1.7s1.4,0.3,2,1.6c0.2,0.5,0.4,1,0.5,1.6c1.9,0.4,3.7,0.8,5,1.4
	c-0.4-2.3-1-4.1-2-5.4c-1.4-2-3.2-3-5.5-3c-2.4,0-4.2,1-5.7,3.2c-0.6,0.8-1,1.8-1.4,2.8c1.4,0.1,3.1,0.2,4.9,0.4
	C426.7,148.4,426.7,148.2,426.8,147.9z"/>
<path class="st9" d="M430.6,149.3C430.6,149.3,430.7,149.3,430.6,149.3c0-0.5-0.1-0.9-0.3-1.3C430.4,148.4,430.5,148.8,430.6,149.3z
	"/>
<path class="st9" d="M430.3,148c-0.3-0.8-0.8-1.2-1.4-1.2C429.5,146.8,429.9,147.2,430.3,148z"/>
<path class="st9" d="M422.7,145.1c1.5-2.3,3.5-3.5,6.1-3.5c0,0,0,0-0.1,0c-2.6,0-4.6,1.2-6.1,3.5c-0.6,0.9-1.1,2-1.5,3.1h0.1
	C421.6,147.1,422.1,146,422.7,145.1z"/>
<path class="st9" d="M428.7,165.7c0.3,0,0.6,0,0.8,0l0,0C429.2,165.7,428.9,165.7,428.7,165.7L428.7,165.7z"/>
<path class="st9" d="M429.4,160.4c0.9,0,1.6-0.8,2-2.5h-0.1c-0.4,1.6-1.1,2.5-2,2.4c-0.1,0-0.2,0-0.4-0.1v0.1
	C429.1,160.4,429.2,160.4,429.4,160.4z"/>
<path class="st9" d="M446.1,133.1h-6.8v5.9h0.7h0.5v0.6v2.2c1.6,0.2,3.8,0.5,5.6,1L446.1,133.1L446.1,133.1z"/>
<polygon class="st9" points="446.8,132.3 438.6,132.3 438.6,132.4 446.8,132.4 446.8,157.9 448,157.9 448,165 448,157.8 
	446.8,157.8 "/>
<rect x="438.6" y="157.8" class="st9" width="1.4" height="0.1"/>
<path class="st9" d="M447.3,158.5h-0.6h-0.6v-0.6v-9.5c-1.7,0.7-3.7,1-5.6,0.3v9.2v0.6h-0.6h-0.7v5.9h8.1L447.3,158.5L447.3,158.5z"
	/>
<path class="st8" d="M73,159.6h-0.6h-0.6V159v-8c-1.8,0.4-3.7,1-5.6,1.6v6.4v0.6h-0.6h-0.7v4.2c2.6-1.2,5.7-2.4,8.1-3.3
	C73,160.5,73,159.6,73,159.6z"/>
<rect x="65.6" y="152.8" class="st8" width="0" height="6.2"/>
<path class="st8" d="M64.9,132.2v4.5c1.4-1.6,3-3.2,4.2-4.5H64.9z"/>
<path class="st7" d="M111.9,149.7v-6.4c-1.8,0.5-4.1,1.4-5.6,2.5v7.9C107.9,153,110.1,151.8,111.9,149.7z"/>
<path class="st8" d="M96.1,150.5c1.5,0.1,3.3-0.1,4.7-1c-0.2-1-0.5-1.9-0.8-2.7c-1.3,0.5-2.7,1.2-4.2,1.7
	C96,149,96.1,149.7,96.1,150.5z"/>
<path class="st8" d="M95.3,148.6c0.1,0.6,0.2,1.2,0.2,1.8l0,0C95.5,149.7,95.5,149.1,95.3,148.6L95.3,148.6z"/>
<path class="st8" d="M101.4,149L101.4,149c-0.2-1-0.4-1.8-0.7-2.6c0,0,0,0-0.1,0C100.9,147.2,101.2,148.1,101.4,149z"/>
<path class="st10" d="M145.6,143c-0.1-0.1-0.2-0.2-0.3-0.3C145.4,142.9,145.5,143,145.6,143L145.6,143z"/>
<path class="st10" d="M140.9,147.6c0,0.5,0.2,0.8,0.5,0.9s1,0.4,2.2,0.9c0,0,0,0,0.1,0c-1.2-0.4-1.9-0.8-2.2-0.8
	C141.2,148.4,141,148.1,140.9,147.6c0.1-0.9,0.7-1.4,1.7-1.4c0,0,0,0-0.1,0C141.4,146.2,140.9,146.6,140.9,147.6z"/>
<polygon class="st10" points="146,148.6 146,148.6 149.8,148.6 149.8,141.9 149.7,141.9 149.7,148.6 "/>
<path class="st10" d="M136.2,148.9L136.2,148.9c0,1.1,0.1,1.9,0.2,2.6l0,0C136.3,150.8,136.2,149.9,136.2,148.9z"/>
<path class="st10" d="M141.2,149.1c-0.3-0.2-0.8-0.5-0.8-1.5c0-1.3,0.8-2.1,2.2-2.1c1.5,0,2.8,0.8,3.8,2.4h2.8v-5.4h-2.9v0.5v1.5
	l-1.1-1.1c-1-0.9-2.1-1.4-3.6-1.4c-1.4,0-2.5,0.5-3.3,1.9c-0.9,1.1-1.4,2.8-1.4,5.2c0,0.8,0.1,1.5,0.2,2.1c1.3-0.5,3.2-1.1,5.4-1.6
	C141.6,149.3,141.3,149.2,141.2,149.1z"/>
<path class="st10" d="M144.2,165.1c-0.1,0-0.3,0-0.4,0C143.9,165.1,144.1,165.1,144.2,165.1z"/>
<path class="st10" d="M145,164.8c1.5,0,2.7-0.6,3.7-1.7c0.7-0.8,1.1-1.8,1.3-3.3c-1.7,1.4-4.2,3.1-7.3,4.5
	C143.4,164.6,144.2,164.8,145,164.8z"/>
<path class="st10" d="M149,163.3c-1.1,1.3-2.5,1.9-4,1.9l0,0C146.6,165.2,148,164.5,149,163.3c0.9-1,1.5-2.3,1.7-4l-0.1,0.1
	C150.3,161.1,149.8,162.3,149,163.3z"/>
<path class="st10" d="M143.1,164.9c-0.1,0-0.3-0.1-0.4-0.1C142.9,164.8,143,164.9,143.1,164.9z"/>
<path class="st9" d="M162.8,142.9h-2.1h-0.6v-0.6v-7.7l-5.5,4.6v3.2v0.6H154h-1v3.3h1h0.6v0.6v6.4c0,2.9,0,4.9,0.1,5.9
	c0,0.5,0.1,1,0.2,1.5c0.1,0.4,0.2,1,0.4,1.5c0.3,0.9,0.8,1.6,1.5,2.1c0.6,0.5,1.3,0.7,2.2,0.7c0.7,0,1.5-0.1,2.3-0.5
	c0.6-0.3,1.1-0.6,1.5-1v-5.6c-0.3,0.1-0.6,0.2-0.9,0.2c-0.7,0-1.3-0.4-1.5-1.2c-0.2-0.6-0.3-1.6-0.3-3.1v-7v-0.6h0.6h2.1
	L162.8,142.9L162.8,142.9z"/>
<rect x="152.3" y="142.2" class="st9" width="1.6" height="0.1"/>
<path class="st9" d="M160.7,153.9c0,1.5,0,2.4,0.2,2.9c0.1,0.5,0.4,0.7,0.9,0.7c0.4,0,1-0.2,1.6-0.7v7c0,0,0,0,0,0.1
	c0-0.1,0.1-0.1,0.1-0.2v-7c-0.7,0.5-1.2,0.8-1.6,0.7c-0.4,0-0.8-0.2-0.9-0.7c-0.1-0.5-0.2-1.5-0.2-2.9v-6.9h-0.1V153.9z"/>
<polygon class="st9" points="160.8,133.1 154,138.7 154,138.7 160.7,133.2 160.7,142.3 163.4,142.3 163.4,146.8 163.5,146.8 
	163.5,142.2 160.8,142.2 "/>
<path class="st9" d="M204.7,150.6C204.8,150.7,204.8,150.7,204.7,150.6c0.5-0.6,1-1,1.5-1.2C205.8,149.6,205.2,150,204.7,150.6z"/>
<path class="st9" d="M204.6,159h1.9v6h0.2v-6.1h-1.9V156c-0.1,0.1-0.1,0.1-0.2,0.2V159z"/>
<path class="st9" d="M198.5,164.3h7.4v-4.8h-1.2h-0.6v-0.6v-2.3c-1.7,1.4-3.9,2.7-5.6,4L198.5,164.3L198.5,164.3z"/>
<path class="st9" d="M191.6,148.4c0.8,0.1,2.3,0.1,4,0.3c0.3-0.1,0.5-0.2,0.8-0.2c0.4,0,0.7,0.1,1,0.3c2.4,0.3,5,0.7,6.8,1.5l0,0
	c0.8-1.1,1.8-1.7,2.7-1.7c0.8,0,1.5,0.5,1.8,1.4c0.2,0.5,0.4,1.5,0.4,5.1v9.3h7.2v-4.8h-1.1h-0.6V159v-6.5c0-2.7-0.2-4.8-0.5-6.2
	c-0.3-1.3-0.8-2.4-1.5-3.2c-0.6-0.7-1.3-1.1-2.3-1.1c-1.8,0-3.7,1.5-5.5,4.2l-0.8,1.2l-0.4-1.4c-0.6-2.8-1.9-4.1-3.8-4.1
	c-0.8,0-1.7,0.4-2.6,1c-1,0.7-1.8,1.5-2.4,2.4l-1.2,1.8v-2C191.7,146.8,190.5,148.3,191.6,148.4z"/>
<path class="st9" d="M213,142.7c0.8,0.9,1.3,2,1.6,3.5s0.5,3.6,0.5,6.3v6.5h1.7v6.1h0.2V159h-1.7v-6.5c0-2.7-0.2-4.8-0.5-6.3
	s-0.8-2.6-1.6-3.5c-0.7-0.9-1.7-1.3-2.8-1.3l0,0C211.5,141.4,212.4,141.8,213,142.7z"/>
<path class="st9" d="M194.1,145l0.1-0.1v-0.3l-0.1,0.1V145z"/>
<path class="st9" d="M204.2,145.9C204.2,145.9,204.2,145.8,204.2,145.9c-0.7-3-2.2-4.5-4.4-4.5l0,0
	C202,141.4,203.4,142.9,204.2,145.9z"/>
<path class="st7" d="M247,159L247,159l-2-0.1v0.1H247z"/>
<rect x="236.4" y="142.2" class="st7" width="8.1" height="0.1"/>
<rect x="236.4" y="158.9" class="st7" width="1.8" height="0.1"/>
<path class="st7" d="M244.8,154.3c0.1-0.1,0.1-0.3,0.2-0.5c0.4-1.5,0.8-2.8,1.5-3.3c0.2-0.1,0.4-0.3,0.6-0.5
	c0.6-0.7,1.6-1.7,2.8-1.7v-5.8c-0.8,0.1-1.4,0.2-1.8,0.5c-0.5,0.2-1.1,0.8-1.6,1.7c-0.6,1-1,2.2-1.3,3.5l-1.3,5.9V148v-5.1h-6.8v3.5
	h1.1h0.6v0.6v11.9v0.6h-0.6h-1.1v4.8h9.3v-4.8h-1.3h-0.7v-0.6C244.4,157.6,244.5,155.3,244.8,154.3z"/>
<path class="st7" d="M245.9,144.3c0.6-1,1.3-1.7,1.9-2c0.6-0.3,1.5-0.4,2.7-0.4v-0.1c-1.2,0-2.1,0.1-2.7,0.4
	C247.1,142.5,246.5,143.2,245.9,144.3c-0.6,1-1.1,2.2-1.4,3.6v0.1C244.8,146.6,245.3,145.3,245.9,144.3z"/>
<path class="st8" d="M254.8,145.1c1.5-2.3,3.5-3.5,6.1-3.5c0,0,0,0-0.1,0C258.2,141.6,256.2,142.8,254.8,145.1
	c-0.7,1-1.2,2.1-1.6,3.3h0.1C253.7,147.2,254.2,146.1,254.8,145.1z"/>
<path class="st8" d="M253.8,148.2c1.5-0.3,3.3-0.6,5.2-0.8c0.5-1,1.3-1.3,1.8-1.3s1.2,0.2,1.7,1.1c1.8,0,3.6,0.2,5.1,0.6
	c-0.3-1-0.8-1.9-1.3-2.6c-1.4-2-3.2-3-5.5-3c-2.4,0-4.2,1-5.7,3.2C254.6,146.3,254.2,147.2,253.8,148.2z"/>
<path class="st8" d="M261.9,147.3C262,147.3,262,147.3,261.9,147.3c-0.2-0.3-0.6-0.5-0.9-0.5C261.4,146.8,261.7,147,261.9,147.3z"/>
<path class="st8" d="M261.5,160.4c0.9,0,1.6-0.8,2-2.5h-0.1C263,159.5,262.4,160.4,261.5,160.4c-0.5-0.1-0.8-0.2-1.1-0.4
	C260.7,160.2,261.1,160.4,261.5,160.4z"/>
<path class="st8" d="M256.3,164.1c1.4,1,3.1,1.6,5.3,1.6l0,0C259.5,165.7,257.7,165.1,256.3,164.1
	C256.4,164.1,256.4,164.1,256.3,164.1z"/>
<path class="st8" d="M256.6,163.5c1.3,1,2.9,1.5,5,1.5c1.6,0,3-0.6,4.2-1.7c0.6-0.5,1.1-1.2,1.5-1.9c0.3-0.6,0.6-1.2,0.8-1.9
	l-4.3-0.9c-0.5,1.6-1.4,2.4-2.5,2.4c-0.8,0-1.4-0.4-1.9-0.9C258.3,161,257.3,162.2,256.6,163.5z"/>
<path class="st1" d="M287.6,147.4C287.6,147.4,287.5,147.4,287.6,147.4l-0.1,5.7h0.1V147.4z"/>
<path class="st1" d="M293.7,151.1v-6.5c-1.7,0.6-3.8,1.5-5.6,2.5v6.1C289.9,153.4,292,152.9,293.7,151.1z"/>
<path class="st8" d="M304.4,148.5c0-2-2.3-0.3-4.6,1.8v4.9C302.2,154,304.4,150.9,304.4,148.5z"/>
<path class="st6" d="M325.8,165.5L325.8,165.5L325.8,165.5L325.8,165.5z"/>
<path class="st6" d="M319.4,154.4c0,3.3,0.7,5.9,2,7.7c1.3,1.8,2.8,2.7,4.4,2.7c0.4,0,0.7,0,1-0.1
	C328.2,162,322.4,153.9,319.4,154.4z"/>
<path class="st1" d="M350,158.5c-0.9,0-1.5-0.5-1.8-1.4c-0.2-0.6-0.3-1.7-0.3-3.2c-1.6,0.3-3.8,0.8-5.6,1.3c0,3.7,0.5,6.3,1.4,7.6
	c0.8,1.3,1.8,1.9,2.9,1.9c1.4,0,2.8-0.8,4.1-2.2c-0.1-1.3-0.2-2.8-0.3-4.2C350.3,158.5,350.2,158.5,350,158.5z"/>
<path class="st1" d="M341.6,155.5c0,3.3,0.4,5.8,1.2,7.2C342.1,161.2,341.7,158.7,341.6,155.5C341.7,155.4,341.6,155.4,341.6,155.5z
	"/>
<path class="st1" d="M348.8,156.9c0.2,0.7,0.6,1,1.2,1c0.1,0,0.3,0,0.4-0.1v-0.1c-0.1,0-0.3,0.1-0.4,0.1
	C349.4,157.8,349,157.4,348.8,156.9c-0.2-0.6-0.3-1.7-0.3-3.1l0,0C348.5,155.3,348.6,156.4,348.8,156.9z"/>
<path class="st4" d="M354.9,153.3c-0.6,2.6,1.6,2.3,3.4,1.8v-6.7C357.1,149.3,355.5,150.9,354.9,153.3z"/>
<path class="st4" d="M370.8,164.8c1.5,0,2.7-0.5,3.7-1.6s1.5-3,1.5-5.4c0-1.3-0.2-2.5-0.6-3.4c-0.4-0.8-1.1-1.6-1.9-2.1
	c-0.9-0.6-2.2-1.2-3.8-1.8c-2-0.7-2.5-0.9-2.7-1c-0.3-0.2-0.8-0.5-0.8-1.5c0-1.3,0.8-2.1,2.2-2.1c1.5,0,2.8,0.8,3.8,2.4h2.8V143
	h-2.9v0.5v1.5l-1.1-1.1c-1-0.9-2.1-1.4-3.6-1.4c-1.4,0-2.5,0.5-3.4,1.7c-0.9,1-1.4,2.8-1.4,5.1c0,1.1,0.1,2,0.3,2.6
	c0.2,0.6,0.6,1.2,1.1,1.9s1.2,1.3,2.1,1.7c1.1,0.6,2.2,1.1,3.1,1.5c1.6,0.7,2.1,1,2.3,1.2c0.4,0.4,0.6,0.9,0.6,1.5
	c0,0.5-0.3,1.9-2.5,1.9c-1.4,0-2.6-1-3.7-2.8H363v5.9h3v-0.8v-1.5l1.1,1C368.1,164.3,369.3,164.8,370.8,164.8z"/>
<path class="st4" d="M367.4,141.9c1.6,0,3,0.5,4,1.7v-0.3C370.3,142.3,369,141.8,367.4,141.9c-1.6-0.1-2.9,0.5-3.9,1.7
	s-1.5,3.1-1.5,5.6c0,0,0,0,0,0.1c0-2.6,0.5-4.4,1.5-5.6S365.8,141.9,367.4,141.9z"/>
<path class="st4" d="M369.6,161c1.2,0,1.8-0.4,1.8-1.3c0,0,0,0,0-0.1C371.4,160.5,370.8,160.9,369.6,161c-1.2-0.1-2.3-1.1-3.3-2.9
	h-3.9v0.1h3.9C367.3,160.1,368.4,161,369.6,161z"/>
<polygon class="st4" points="375.5,148.8 375.6,148.8 375.6,142.2 371.5,142.2 371.5,142.4 375.5,142.4 "/>
<path class="st4" d="M366.6,165.3l0.1-1.2c0,0-0.1,0-0.1-0.1V165.3z"/>
<path class="st4" d="M366.7,148c0,0.5,0.2,0.8,0.5,0.9s1.1,0.5,2.6,1c1.7,0.6,3,1.2,3.9,1.8c0.9,0.6,1.6,1.4,2.1,2.4
	s0.7,2.2,0.7,3.7c0,1.9-0.3,3.4-0.9,4.6c0.7-1.2,1-2.8,1-4.8c0-1.5-0.2-2.7-0.7-3.7s-1.2-1.8-2.1-2.4s-2.2-1.2-3.9-1.8
	c-1.5-0.5-2.3-0.9-2.6-1c-0.3-0.1-0.5-0.4-0.5-0.9c0-0.4,0.1-0.7,0.3-0.9C366.8,147.1,366.7,147.5,366.7,148z"/>
<path class="st5" d="M402.6,142.3c0.6-0.3,1.5-0.4,2.7-0.4v-0.1c-1.2,0-2.1,0.1-2.7,0.4c-0.1,0-0.2,0.1-0.3,0.2
	c-0.1,0.1-0.2,0.2-0.3,0.4C402.2,142.5,402.4,142.4,402.6,142.3z"/>
<path class="st5" d="M401.2,152c0.8-0.5,1.9-0.8,3.4-0.8v-8.7c-0.7,0.1-1.3,0.2-1.7,0.4c-0.5,0.2-1.1,0.8-1.6,1.7
	c-0.6,1-1,2.2-1.3,3.5l-0.7,3.3c0.1,0.6,0.4,1.3,0.7,2C400.3,152.9,400.7,152.4,401.2,152z"/>
<path class="st5" d="M400.2,145.3c-0.1,0.1-0.1,0.2-0.2,0.3c-0.3,0.7-0.6,1.5-0.7,2.3v0.1C399.5,147,399.8,146.1,400.2,145.3z"/>
<path class="st10" d="M412.7,152.6c0-1.5-1.7-2.9-3.4-2.9v6.3C410.9,155.4,412.7,154.3,412.7,152.6z"/>
<path class="st6" d="M428.9,160.3L428.9,160.3c-0.3-0.1-0.5-0.2-0.7-0.4C428.5,160.1,428.7,160.3,428.9,160.3z"/>
<path class="st6" d="M426.2,154.8v-0.6h0.7h9.7c-0.1-1.3-0.2-2.4-0.3-3.5c-1.3-0.6-3-1-5-1.4c0.1,0.5,0.1,1.1,0.1,1.7
	c0,0,0,0.3,0,0.8v0.6h-0.6H427h-0.6l-0.1-0.6c0-0.1,0-0.3,0-0.5c0-1,0.1-1.9,0.3-2.7c-1.8-0.2-3.5-0.3-4.9-0.4
	c-0.6,1.6-0.8,3.5-0.8,5.5c0,3.4,0.7,6.1,2.2,8.2c1.4,1.8,3.2,2.8,5.7,3c0.2-1.2,0.2-2.6,0.2-4C426.2,160.7,426.2,156.3,426.2,154.8
	z"/>
<path class="st6" d="M430.8,151.1c0-0.7,0-1.3-0.1-1.8l0,0C430.7,149.8,430.8,150.4,430.8,151.1z"/>
<path class="st6" d="M422.7,162.4c-1.5-2.2-2.3-5.1-2.3-8.6c0-2.1,0.3-3.9,0.8-5.5h-0.1c-0.5,1.6-0.8,3.5-0.8,5.6
	c0,3.5,0.8,6.4,2.3,8.6c1.4,2,3.4,3.1,6.1,3.3l0,0C426,165.5,424,164.4,422.7,162.4z"/>
<polygon class="st6" points="427,151.9 430.8,151.9 430.8,151.9 "/>
<path class="st4" d="M446.1,148.4v-5.7c-1.8-0.5-4-0.8-5.6-1v6.9C442.4,149.4,444.4,149.1,446.1,148.4z"/>
<path class="st10" d="M116.4,147.7C116.4,147.7,116.4,147.8,116.4,147.7l2,0.4l0.1-0.1L116.4,147.7z"/>
<path class="st10" d="M127.3,142.4c-0.7-0.1-1.5-0.1-2.4-0.1c-2.4,0-4.2,0.4-5.4,1.3c-1.1,0.7-1.9,2-2.4,3.7l1.9,0.3
	c2.4-2.1,6.3-4.9,10-4.9C128.5,142.6,127.9,142.5,127.3,142.4z"/>
<path class="st10" d="M134.5,159.1v-0.6h-1h-0.6V158c-3.2,2.1-8.9,5.1-15,4.3c0.1,0.3,0.3,0.6,0.5,0.9c0.8,1.2,2,1.8,3.6,1.8
	c1.8,0,3.1-0.6,4.2-1.8l1.1-1.3v1.7v0.9h3.1C132.1,162.9,133.6,161,134.5,159.1z"/>
<path class="st10" d="M126.9,164.9v-1.5c-1.2,1.3-2.7,2-4.7,2c-1.9,0-3.3-0.7-4.2-2.1c-0.2-0.4-0.4-0.8-0.6-1.2h-0.1
	c0.2,0.5,0.4,1,0.7,1.5c1,1.4,2.4,2.1,4.2,2.1c2,0,3.5-0.7,4.7-2v1.5h2.5c0.1-0.1,0.3-0.2,0.4-0.3H126.9z"/>
<path class="st10" d="M172.9,158.5c-0.2-1.2-0.3-2.8-0.2-4.9c0-0.2,0-0.4,0-0.6c-2-1-4.1-2.9-5.6-4.4c-0.5,1.5-0.8,3.2-0.8,5
	c0,1.9,0.2,3.6,0.7,5.1C168.6,159,170.7,158.8,172.9,158.5z"/>
<path class="st10" d="M176.1,153.6L176.1,153.6c0,1.8-0.1,3.2-0.2,4.3h0.1c0.2-1.1,0.3-2.5,0.3-4.3
	C176.2,153.6,176.2,153.6,176.1,153.6z"/>
<path class="st10" d="M165.5,153.6L165.5,153.6c0,1.8,0.2,3.5,0.6,5c0,0,0,0,0.1,0C165.7,157,165.5,155.4,165.5,153.6z"/>
<path class="st10" d="M176.9,153.6c0,1.7-0.1,3-0.2,4.1c2.6-0.6,5.1-1.4,6.5-2.1c0.1-0.6,0.1-1.2,0.1-1.8
	C181.7,153.6,179.1,153.6,176.9,153.6z"/>
<path class="st9" d="M220.7,145.7c-1.4,2.2-2.1,4.9-2.1,8.1c0,2,0.2,3.7,0.7,5.3c1-1.2,2.5-1.8,3.1-5.8
	C222.7,151.1,222.1,148.3,220.7,145.7z"/>
<path class="st7" d="M232.6,145c1.2,1.7,1.9,4.2,2.2,7.3l0,0c-0.3-3.2-1-5.7-2.3-7.4c-0.2-0.3-0.4-0.6-0.6-0.8l0,0
	C232.2,144.4,232.4,144.7,232.6,145z"/>
<path class="st7" d="M232,150.7c0.8,0.8,1.5,1.2,2.1,1.4c-0.3-3-1-5.3-2.1-6.8c-0.1-0.2-0.3-0.4-0.4-0.5
	C230.6,146.7,230.2,149,232,150.7z"/>
<path class="st5" d="M381.5,148c1.1,1.4,3.1,2.5,4.7,3.5v-2.1v-0.6h0.6h2.1v-5.9h-2.1h-0.6v-0.6v-0.2
	C383.5,143.9,380.4,146.6,381.5,148z"/>
<path class="st5" d="M386.8,142.3h2.7v7.1h0.1v-7.2L386.8,142.3l0.1-0.7c0,0-0.1,0-0.1,0.1V142.3z"/>
<path class="st5" d="M386.8,152C386.8,152,386.9,152,386.8,152l0.1-2.5h-0.1V152z"/>
<path class="st5" d="M380.7,155.9c0,1.5,0,2.7,0.1,3.3c0,0.5,0.1,1,0.2,1.5c0.1,0.4,0.2,1,0.4,1.5c0.3,0.9,0.8,1.6,1.5,2.1
	c0.6,0.5,1.3,0.7,2.2,0.7c0.1,0,0.1,0,0.2,0c-0.6-2.1-1.6-4.8-2.3-6.2C382.3,157.5,381.4,156.5,380.7,155.9z"/>
<path d="M73.6,159L73.6,159h-1.2v-27.5h-8.2v7.8h1.4l0,0v13.5v6.2l0,0h-1.4v6h9.4l0,0C73.6,165,73.6,159,73.6,159z M64.9,164.3v-0.5
	v-4.2h0.7h0.6V159v-6.4v-13.3v-0.6h-0.6h-0.7v-2v-4.5h4.2h2.7V151v8v0.6h0.6H73v1v3.7L64.9,164.3L64.9,164.3z"/>
<path d="M112.6,131.5h-8.2v7.8h1.4V159h-1.4v6h9.4v-6h-1.2L112.6,131.5z M113.1,159.6v4.7H105v-4.7h0.7h0.6V159v-5.3v-7.9v-6.5v-0.6
	h-0.6H105v-6.5h6.9v11.1v6.4v9.3v0.6h0.6H113.1z"/>
<path d="M95.5,147.3c-0.6-1.3-1.4-1.6-2-1.6s-1.5,0.3-2,1.7c-0.3,1-0.5,2.1-0.5,3.5c0,0.2,0,0.4,0,0.5l0.1,0.6h0.6h3.8h0.6v-0.6
	c0-0.5,0-0.8,0-0.8v-0.1c0-0.8-0.1-1.5-0.2-2.1C95.8,148,95.6,147.6,95.5,147.3z M95.5,150.5c0,0.1,0,0.3,0,0.8h-3.8
	c0-0.1,0-0.3,0-0.5c0-1.3,0.2-2.4,0.5-3.3s0.8-1.3,1.4-1.3l0,0c0.6,0,1.1,0.4,1.4,1.2l0,0l0,0c0.2,0.3,0.3,0.7,0.4,1.2
	C95.5,149.1,95.5,149.7,95.5,150.5C95.5,150.4,95.5,150.5,95.5,150.5z"/>
<path d="M93.7,139.4l5.7-7.9h-6.2h-0.1l-2.6,7.9h0.1H93.7z M93.6,132.1h4.6l-4.7,6.6h-2L93.6,132.1z"/>
<path d="M100.6,146.4c-0.3-0.7-0.6-1.4-1-1.9c-1.6-2.3-3.6-3.4-6.1-3.4c-2.6,0-4.6,1.2-6.1,3.5s-2.3,5.2-2.3,8.7l0,0
	c0,3.5,0.8,6.4,2.3,8.6s3.8,3.3,6.9,3.3c1.8,0,3.4-0.6,4.7-1.8c0.6-0.6,1.2-1.3,1.6-2.1c0.1-0.2,0.2-0.4,0.3-0.6
	c0.1-0.1,0.1-0.3,0.2-0.4c0-0.1,0.1-0.2,0.1-0.3c0.1-0.1,0.1-0.3,0.2-0.4c0.1-0.3,0.2-0.6,0.3-0.9l0,0l-5.6-1.2
	c-0.4,1.7-1.1,2.5-2,2.5c-1.6,0-2.4-1.8-2.4-5.5l0,0H102c0-0.1,0-0.1,0-0.2c-0.1-1.9-0.3-3.7-0.6-5.2
	C101.2,148.1,100.9,147.2,100.6,146.4z M94,160.5c1.1,0,2-0.8,2.5-2.4l4.3,0.9c-0.2,0.7-0.5,1.4-0.8,1.9c-0.4,0.7-0.9,1.4-1.5,1.9
	c-1.2,1.1-2.6,1.7-4.2,1.7c-2.9,0-4.9-1-6.4-3c-1.5-2.1-2.2-4.8-2.2-8.2c0-3.3,0.7-6.1,2.2-8.3c1.4-2.2,3.2-3.3,5.6-3.3
	c2.3,0,4.1,1,5.5,3c0.4,0.6,0.8,1.3,1,2c0.3,0.8,0.6,1.7,0.8,2.7c0.2,1.2,0.4,2.6,0.5,4.2h-9.7H91v0.7C91,155.8,91,160.5,94,160.5z"
	/>
<path d="M133.7,157.7v-6.3v-0.3c0-2.1-0.1-3.6-0.4-4.6c-0.2-1-0.6-1.8-1.2-2.7c-0.6-0.8-1.5-1.4-2.7-1.8c-0.6-0.2-1.2-0.4-2-0.5
	c-0.8,0.2-1.6,0.1-2.5,0.1c-2.5,0-4.4,0.5-5.7,1.4c-1.3,0.9-2.3,2.5-2.8,4.7l0,0l2.1,0.4l3.2,0.5c0.6-1.5,1.4-2.2,2.5-2.2
	c0.6,0,1.1,0.2,1.6,0.6c0.4,0.4,0.7,0.9,0.8,1.5c0.1,0.6,0.2,1.5,0.2,3v0.3v0.4c-1-0.8-2.3-1.1-4-1.1c-1.9,0-3.4,0.7-4.5,2
	c-1.2,1.4-1.7,3.1-1.7,5.2c0,0.1,0,0.1,0,0.2c0,1.3,0.3,2.6,0.8,3.7c0.2,0.4,0.4,0.8,0.6,1.2c0.9,1.4,2.3,2.1,4.2,2.1
	c2,0,3.5-0.7,4.7-2v1.5h2.9h5.6l0,0v-7.2h-1.7V157.7z M130.4,164.4h-3.1v-0.9v-1.7l-1.1,1.3c-1.1,1.2-2.4,1.8-4.2,1.8
	c-1.6,0-2.8-0.6-3.6-1.8c-0.2-0.3-0.4-0.6-0.5-0.9c-0.5-1.1-0.8-2.4-0.8-3.7c0-2,0.5-3.6,1.6-4.8c1-1.2,2.3-1.8,4-1.8
	c1.5,0,2.8,0.3,3.6,1l1,0.8v-1.3v-0.7c0-1.5-0.1-2.5-0.2-3.1c-0.2-0.7-0.5-1.3-1-1.9c-0.6-0.5-1.2-0.8-2-0.8c-1.2,0-2.2,0.7-2.9,2.1
	l-2.2-0.4l-1.9-0.3c0.5-1.7,1.3-3,2.4-3.7c1.2-0.9,3-1.3,5.4-1.3c0.9,0,1.7,0,2.4,0.1c0.6,0.1,1.2,0.2,1.7,0.4c0.1,0,0.1,0,0.2,0
	c1.1,0.3,1.8,0.9,2.3,1.6c0.5,0.8,0.9,1.6,1.1,2.5c0.2,0.9,0.3,2.4,0.3,4.4v6.6v0.1v0.5h0.6h1v0.6v5.3L130.4,164.4L130.4,164.4z"/>
<path d="M124.7,161.1c1.1,0,2-0.5,2.6-1.5l0.1-0.2v-0.2V155v-0.3l-0.2-0.2c-0.7-0.7-1.5-1-2.4-1c-0.8,0-1.5,0.4-2,1.2
	c-0.4,0.7-0.6,1.5-0.6,2.5s0.2,1.9,0.6,2.6C123.4,160.7,124,161.1,124.7,161.1z M123.4,155.1c0.1-0.2,0.2-0.3,0.3-0.4
	c0.3-0.3,0.6-0.4,1.1-0.4c0.7,0,1.3,0.3,1.9,0.8v4.2c-0.1,0.2-0.2,0.3-0.4,0.4c-0.5,0.4-1,0.7-1.6,0.7c-0.5,0-0.9-0.3-1.3-0.9
	s-0.5-1.3-0.5-2.2S123.1,155.7,123.4,155.1z"/>
<path d="M140.8,163.6C140.8,163.6,140.9,163.6,140.8,163.6c0.6,0.5,1.3,0.9,1.9,1.2c0.1,0.1,0.3,0.1,0.4,0.1
	c0.2,0.1,0.4,0.1,0.7,0.2c0.1,0,0.3,0,0.4,0c0.2,0,0.4,0.1,0.7,0.1c0,0,0,0,0.1,0c1.6,0,3-0.6,4-1.9c0.8-1,1.3-2.2,1.6-3.9
	c0.1-0.6,0.1-1.3,0.1-2c0-1.5-0.2-2.7-0.7-3.7s-1.2-1.8-2.1-2.4c-0.9-0.6-2.2-1.2-3.9-1.8c-0.1,0-0.3-0.1-0.4-0.1
	c-1.2-0.4-1.9-0.8-2.2-0.9s-0.5-0.4-0.5-0.9c0-1,0.5-1.4,1.6-1.4c0,0,0,0,0.1,0c1.3,0,2.4,0.8,3.3,2.4h0.1h3.7v-6.7l0,0h-4.1v1.1
	v0.1c-0.1-0.1-0.2-0.2-0.3-0.3c-1-0.9-2.2-1.4-3.7-1.4c-1.6,0-2.9,0.6-3.9,1.8c-1,1.2-1.5,3.1-1.5,5.6c0,0,0,0,0,0.1
	c0,1.1,0.1,1.9,0.3,2.6c0,0.1,0,0.1,0,0.2c0.2,0.7,0.6,1.4,1.2,2.2c0.6,0.7,1.3,1.4,2.3,1.8c1.1,0.6,2.2,1.1,3.1,1.5
	c1.2,0.5,1.9,0.9,2.1,1.1c0.3,0.2,0.4,0.6,0.4,1l0,0c0,0.9-0.6,1.3-1.8,1.3s-2.3-0.9-3.3-2.8h-3.9v0.1v7.2h4.2L140.8,163.6
	L140.8,163.6z M140.2,163.9v0.8h-2.9v-6h2.9c1.1,1.9,2.3,2.8,3.7,2.8c2.2,0,2.5-1.4,2.5-1.9c0-0.6-0.2-1.1-0.6-1.5
	c-0.2-0.2-0.7-0.5-2.3-1.2c-0.9-0.4-1.9-0.9-3.1-1.5c-0.9-0.4-1.6-1-2.1-1.7s-0.9-1.3-1.1-2c-0.1-0.2-0.1-0.3-0.1-0.5
	c-0.1-0.6-0.2-1.3-0.2-2.1c0-2.4,0.5-4.1,1.4-5.2c0.8-1.4,1.9-1.9,3.3-1.9c1.5,0,2.6,0.5,3.6,1.4l1.1,1.1V143v-0.5h2.9v5.4h-2.8
	c-1-1.6-2.3-2.4-3.8-2.4c-1.4,0-2.2,0.8-2.2,2.1c0,1,0.5,1.3,0.8,1.5c0.1,0.1,0.4,0.2,1.2,0.5c0.4,0.1,0.8,0.3,1.5,0.6
	c1.6,0.6,2.9,1.2,3.8,1.8c0.8,0.5,1.5,1.3,1.9,2.2c0.4,0.9,0.6,2.1,0.6,3.5c0,0.8-0.1,1.5-0.2,2.1c-0.2,1.4-0.7,2.5-1.3,3.3
	c-1,1.1-2.2,1.7-3.7,1.7c-0.8,0-1.6-0.2-2.3-0.5c-0.5-0.2-1-0.5-1.4-0.9l-1.1-1L140.2,163.9L140.2,163.9z"/>
<path d="M184,153.6c0-3.6-0.9-6.5-2.6-8.7c-1.9-2.1-4.1-3.3-6.9-3.3s-4.9,1.1-6.6,3.4c-1.6,2.3-2.4,5.1-2.4,8.5c0,0,0,0,0,0.1
	c0,1.8,0.2,3.5,0.7,5c0.4,1.4,1,2.6,1.8,3.7c1.6,2.3,3.9,3.4,6.9,3.4c2.3,0,4.3-0.8,5.9-2.5c0.3-0.3,0.5-0.6,0.7-0.9
	C183.2,159.9,184,157,184,153.6z M174.9,165.1c-2.7,0-4.8-1-6.3-3.2c-0.7-0.9-1.2-2-1.6-3.2c-0.5-1.5-0.7-3.2-0.7-5.1
	c0-1.8,0.3-3.5,0.8-5c0.4-1.1,0.9-2.2,1.5-3.1c1.4-2.2,3.4-3.2,5.9-3.2c2.6,0,4.6,1,6.3,3.1c1.6,2.1,2.5,4.9,2.5,8.3v0.1
	c0,0.6,0,1.2-0.1,1.8c-0.3,2.5-1,4.6-2.3,6.3C179.4,164,177.4,165.1,174.9,165.1z"/>
<path d="M176.9,153.5c0-2.1-0.1-3.8-0.4-5c-0.1-0.6-0.5-2.2-1.7-2.2s-1.6,1.6-1.7,2.2c-0.3,1.1-0.4,2.6-0.4,4.5c0,0.2,0,0.4,0,0.6
	c0,2.1,0,3.7,0.2,4.9c0.3,1.8,0.9,2.5,1.8,2.5c1,0,1.7-1,2-3.3C176.8,156.6,176.9,155.3,176.9,153.5
	C176.9,153.6,176.9,153.5,176.9,153.5z M174.7,160.4L174.7,160.4c-1-0.1-1.4-2.4-1.4-6.8c0-2.2,0.1-3.8,0.4-4.9
	c0.2-0.8,0.4-1.3,0.7-1.5c0.1-0.1,0.2-0.2,0.4-0.2c0.5,0,0.8,0.6,1.1,1.7c0.2,1.1,0.4,2.8,0.4,4.8v0.1c0,1.8-0.1,3.2-0.3,4.3
	C175.7,159.5,175.3,160.4,174.7,160.4z"/>
<path d="M194.2,159v-8.2c0.6-0.8,1.2-1.2,1.7-1.4c0.2-0.1,0.3-0.1,0.5-0.1c0.6,0,1,0.3,1.2,1s0.3,2.3,0.3,4.9v9.9h8.6V165v-6h-1.9
	v-2.8v-5.4c0-0.1,0.1-0.1,0.1-0.2c0.5-0.6,1-1.1,1.5-1.2c0.2-0.1,0.4-0.1,0.5-0.1c0.6,0,1,0.3,1.2,1c0.2,0.6,0.3,2.3,0.3,4.9v10h8.5
	v-0.1V159H215v-6.5c0-2.7-0.2-4.8-0.5-6.3s-0.8-2.6-1.6-3.5c-0.6-0.9-1.5-1.3-2.6-1.3c0,0,0,0-0.1,0c-2.1,0-4.1,1.5-6,4.4
	c0,0,0,0.1-0.1,0.1c-0.8-3-2.2-4.5-4.4-4.5c0,0,0,0-0.1,0c-1,0-2,0.4-3,1.1s-1.8,1.5-2.5,2.4L194,145v-0.3v-2.9h-8.4h-0.1v4.7h0.1
	h1.5V159h-1.5h-0.1v6.1H196V165v-6H194.2z M186.4,159.4h1h0.6V159v-12.5v-0.6h-0.6h-1v-3.4h7.2v2.5v0.1v2l1.2-1.8
	c0.6-0.9,1.4-1.7,2.4-2.4c0.9-0.6,1.8-1,2.6-1c1.9,0,3.2,1.3,3.8,4.1l0.4,1.4l0.8-1.2c1.8-2.7,3.7-4.2,5.5-4.2c1,0,1.7,0.4,2.3,1.1
	c0.7,0.8,1.2,1.9,1.5,3.2c0.3,1.4,0.5,3.5,0.5,6.2v6.5v0.6h0.6h1.1v4.8h-7.2v-9.3c0-3.6-0.2-4.6-0.4-5.1c-0.3-0.9-1-1.4-1.8-1.4
	c-0.9,0-1.9,0.6-2.7,1.7l0,0l-0.1,0.2v0.2v5.9v2.3v0.6h0.6h1.2v4.8h-7.4v-3.7V155c0-2.6-0.1-4.3-0.3-5c-0.2-0.5-0.4-0.9-0.8-1.2
	c-0.3-0.2-0.6-0.3-1-0.3c-0.3,0-0.5,0.1-0.8,0.2c-0.6,0.2-1.3,0.8-1.9,1.5l-0.1,0.2v0.2v8.2v0.6h0.6h1.2v4.8h-9L186.4,159.4
	L186.4,159.4z"/>
<path d="M226.4,139.5h3.1l-2.5-8.1h-6.2h-0.1L226.4,139.5L226.4,139.5z M226.5,132.1l2.1,6.8h-2l-4.7-6.8H226.5z"/>
<path d="M224.8,152.5h3.8h0.6v-0.6c0-0.5,0-0.8,0-0.8c0-1.3-0.2-2.4-0.6-3.3c-0.6-1.3-1.4-1.6-2-1.6s-1.5,0.3-2,1.7
	c-0.3,1-0.5,2.1-0.5,3.5c0,0.2,0,0.4,0,0.5l0.1,0.6L224.8,152.5L224.8,152.5z M224.8,151.9c0,0,0-0.1,0-0.2s0-0.2,0-0.3
	c0-1.3,0.2-2.4,0.5-3.3c0.1-0.2,0.2-0.4,0.3-0.6c0.3-0.5,0.7-0.7,1.1-0.7c0.6,0,1.1,0.4,1.4,1.2l0,0l0,0c0.4,0.8,0.5,1.8,0.5,3.1
	l0,0c0,0.1,0,0.3,0,0.8l0,0H224.8L224.8,151.9z"/>
<path d="M232.6,145c-0.2-0.3-0.4-0.6-0.7-0.9c-1.5-1.7-3.3-2.5-5.4-2.5c-2.6,0-4.6,1.2-6.1,3.5c-0.6,0.9-1,1.8-1.4,2.8
	c-0.6,1.7-0.9,3.7-0.9,5.9s0.3,4.1,0.9,5.8c0.4,1,0.8,1.9,1.4,2.8c1.5,2.2,3.8,3.3,6.9,3.3c0.9,0,1.8-0.1,2.5-0.5
	c0.8-0.3,1.5-0.8,2.2-1.3c0.6-0.6,1.2-1.3,1.6-2.1l0,0c0.4-0.8,0.8-1.7,1.1-2.7l-5.6-1.2l0,0l0,0c-0.4,1.7-1.1,2.5-2,2.5
	c-1.6,0-2.4-1.8-2.4-5.5l0,0H235v-0.1c0-0.9-0.1-1.7-0.2-2.5C234.5,149.2,233.8,146.7,232.6,145z M226.9,161c1.1,0,2-0.8,2.5-2.4
	l4.3,0.9c-0.2,0.7-0.5,1.3-0.8,1.9c-0.4,0.7-0.9,1.4-1.5,1.9c-1.2,1.1-2.6,1.7-4.2,1.7c-2.9,0-4.9-1-6.4-3c-0.6-0.9-1.1-1.9-1.5-2.9
	c-0.5-1.5-0.7-3.3-0.7-5.3c0-3.2,0.7-6,2.1-8.1c0-0.1,0.1-0.1,0.1-0.2c1.6-2.2,3.4-3.2,5.7-3.2c2.1,0,3.8,0.8,5.1,2.5
	c0.1,0.2,0.3,0.3,0.4,0.5c1.1,1.6,1.8,3.9,2.1,6.8c0.1,0.7,0.1,1.3,0.2,2.1h-9.7h-0.7v0.6C223.9,156.3,223.9,161,226.9,161z"/>
<path d="M258.4,151.4c0,0.2,0,0.4,0,0.5l0.1,0.6h0.6h3.8h0.6v-0.6c0-0.5,0-0.8,0-0.8c0-1.3-0.2-2.4-0.6-3.3
	c-0.1-0.2-0.2-0.4-0.3-0.5c-0.6-0.9-1.2-1.1-1.7-1.1s-1.3,0.2-1.8,1.3c-0.1,0.1-0.1,0.3-0.2,0.4C258.6,148.9,258.4,150,258.4,151.4z
	 M261,146.8c0.4,0,0.7,0.2,1,0.5c0.2,0.2,0.3,0.4,0.4,0.7c0.4,0.8,0.5,1.8,0.5,3.1l0,0c0,0.1,0,0.3,0,0.8l0,0h-3.8l0,0
	c0-0.1,0-0.3,0-0.5c0-0.7,0-1.2,0.1-1.8c0.1-0.5,0.2-1,0.4-1.5C259.9,147.2,260.4,146.8,261,146.8z"/>
<path d="M254.8,145.1c-0.6,1-1.1,2.1-1.5,3.3c-0.5,1.6-0.8,3.4-0.8,5.4c0,3.5,0.8,6.4,2.3,8.6c0.4,0.7,1,1.2,1.6,1.7
	c1.4,1.1,3.1,1.6,5.3,1.6c0,0,0,0,0.1,0c1.8,0,3.4-0.6,4.7-1.8c0.6-0.6,1.2-1.3,1.6-2.1c0.4-0.8,0.8-1.7,1.1-2.7l-5.6-1.2l0,0
	c-0.4,1.7-1.1,2.5-2,2.5c-0.4,0-0.8-0.2-1.1-0.4c-0.8-0.7-1.3-2.4-1.3-5.1h10.3c-0.1-4.4-0.9-7.7-2.4-9.9c-1.6-2.3-3.7-3.4-6.1-3.4
	l0,0C258.3,141.6,256.3,142.8,254.8,145.1z M260.9,142.3c2.3,0,4.1,1,5.5,3c0.5,0.7,0.9,1.6,1.3,2.6c0.6,1.7,0.9,3.8,1,6.3H259h-0.7
	v0.6c0,1.1,0,3.8,1.1,5.3c0.4,0.5,1,0.9,1.9,0.9c1.1,0,2-0.8,2.5-2.4l4.3,0.9c-0.2,0.7-0.5,1.3-0.8,1.9c-0.4,0.7-0.9,1.4-1.5,1.9
	c-1.2,1.1-2.6,1.7-4.2,1.7c-2.1,0-3.7-0.5-5-1.5c-0.5-0.4-1-0.9-1.4-1.5c-1.5-2.1-2.2-4.8-2.2-8.2c0-2.1,0.3-3.9,0.8-5.6
	c0.3-1,0.8-1.9,1.4-2.7C256.7,143.3,258.5,142.3,260.9,142.3z"/>
<path d="M294.4,159l-0.1-16.7h-0.1h-8v4.6h1.3h0.1v0.5v5.7v5.9h-0.1h-1.3v6h9.2h0.1v-6h-0.2H294.4z M294.8,164.3h-8v-4.7h0.7h0.6
	V159v-5.8v-6.1v-0.2v-0.6h-0.6h-0.7V143h6.9v1.6v6.5v7.9v0.6h0.6h0.5V164.3z"/>
<path d="M287.5,138.3c0.1,0.2,0.3,0.4,0.5,0.6c0.7,0.7,1.6,1,2.7,1s1.9-0.4,2.6-1.1s1-1.7,1-2.9c0-1.1-0.3-2.1-1-2.9
	c-0.2-0.2-0.3-0.4-0.5-0.5c-0.4-0.3-0.8-0.5-1.3-0.6c-0.2,0-0.5-0.1-0.8-0.1c-1.1,0-2,0.4-2.7,1.1c-0.7,0.8-1.1,1.7-1.1,3
	c0,0.3,0,0.6,0.1,0.9C287.1,137.4,287.3,137.9,287.5,138.3z M288.3,133.4c0.8-0.7,1.5-1,2.4-1s1.6,0.3,2.1,0.9
	c0.6,0.7,0.8,1.5,0.8,2.5c0,1.1-0.3,1.9-0.9,2.5s-1.3,0.9-2.2,0.9c-0.9,0-1.6-0.3-2.2-0.8s-0.9-1.4-0.9-2.5
	C287.4,134.8,287.7,134,288.3,133.4z"/>
<path d="M318.1,157.8h-1.6V152c0-3.6-0.4-6.2-1.3-7.8c-0.7-1.5-1.9-2.3-3.6-2.3c-1.9,0-3.7,1.1-5.4,3.3v-0.1v-2.8h-8.5v7.1v0.1h1.7
	v8.3v0.1h-1.7v7.1v0.1h10.4V165v-7.1h-1.9v-7.1c0.4-0.4,0.7-0.7,1.1-0.9c0.3-0.2,0.6-0.3,0.8-0.3c0.7,0,1.1,0.3,1.3,1
	s0.3,2.2,0.3,4.4v10h8.4l0,0L318.1,157.8L318.1,157.8z M305.7,150.2l-0.2,0.2v0.2v7.1v0.6h0.6h1.2v5.9h-9.1v-5.9h1h0.6v-0.6v-2.5
	v-4.9v-1v-0.6h-0.6h-1v-5.9h7.2v2.2v1.9l1.2-1.5c1.7-1.8,3.3-2.9,5-2.9c1.4,0,2.5,0.7,3.2,2.1c0.8,1.5,1.2,4,1.2,7.5v5.8v0.6h0.6
	h0.9v5.9h-7.1v-9.5c0-2.3-0.1-3.8-0.4-4.6c-0.3-0.9-1-1.5-1.9-1.5C307.3,148.8,306.5,149.3,305.7,150.2z"/>
<path d="M337,157.9v-25.5h-8.4h-0.1v7.2h0.1h1.6v4.1v0.1c-1.2-1.3-2.5-1.9-4.1-1.9c0,0,0,0-0.1,0c-2.2,0-4,1.1-5.3,3.2s-2,5.2-2,9.1
	c0,3.6,0.7,6.4,2.1,8.4s3.1,2.9,4.9,2.9c0,0,0,0,0.1,0c0,0,0,0,0.1,0c1.6,0,3-0.6,4.3-1.9v0.1v1.4h8.5l0,0v-7.2L337,157.9L337,157.9
	z M329.7,163c-0.8,0.9-1.8,1.5-2.9,1.7c-0.3,0.1-0.7,0.1-1,0.1c-1.6,0-3.1-0.9-4.4-2.7c-1.3-1.7-2-4.3-2-7.7c0-0.1,0-0.2,0-0.3
	c0-3.8,0.6-6.7,1.9-8.8c1.2-1.9,2.7-2.9,4.7-2.9c1.4,0,2.7,0.5,3.7,1.7l1.1,1.2v-1.7v-4.2v-0.6h-0.6h-1v-5.9l7.1,0.2v24.8v0.6h0.6
	h1.1v5.9h-7.2v-0.9v-1.6L329.7,163z"/>
<path d="M330.3,149.8c-0.6-1.5-1.6-1.8-2.3-1.8c-2,0-3,2-3,5.8c0,1.5,0.2,2.8,0.6,3.8c0.6,1.4,1.6,1.8,2.3,1.8
	c0.6,0,1.6-0.3,2.3-1.6c0.5-0.9,0.7-2.3,0.7-4.2C330.9,152.1,330.7,150.8,330.3,149.8z M329.6,157.5L329.6,157.5
	c-0.3,0.4-0.5,0.7-0.8,0.9c-0.3,0.2-0.6,0.3-0.9,0.3c-0.8,0-1.3-0.5-1.7-1.4c-0.4-0.9-0.6-2.1-0.6-3.5c0-3.5,0.8-5.2,2.3-5.2l0,0
	c0.7,0,1.3,0.5,1.7,1.4l0,0c0.4,1,0.6,2.1,0.6,3.6C330.2,155.4,330,156.7,329.6,157.5z"/>
<path d="M359,158v-0.2v-15.5h-0.1h-8.6l0,0v7.2h1.8v7.2v0.1c-0.5,0.6-1.1,0.9-1.7,1c-0.1,0-0.3,0.1-0.4,0.1c-0.6,0-1-0.3-1.2-1
	c-0.2-0.5-0.3-1.6-0.3-3.1c0-0.2,0-0.4,0-0.6v-0.1v-10.7h-8.4l0,0v7.2h1.5h0.1v5.4c0,0.1,0,0.3,0,0.4c0,3.3,0.4,5.7,1.1,7.3
	c0.1,0.3,0.2,0.5,0.4,0.7c1,1.5,2.1,2.2,3.5,2.2c1.9,0,3.6-1.1,5.4-3.2l0.1-0.1v2.7v0.2h8.4V158h-0.1H359z M351.6,161.7
	c-0.3,0.3-0.6,0.6-0.9,0.9c-1.4,1.4-2.7,2.2-4.1,2.2c-1.1,0-2.1-0.6-2.9-1.9c-0.9-1.4-1.4-3.9-1.4-7.6c0-0.1,0-0.2,0-0.4v-5.4v-0.6
	h-0.6h-0.9V143h7.1v10.2c0,0.3,0,0.5,0,0.7c0,1.5,0.1,2.6,0.3,3.2c0.3,0.9,0.9,1.4,1.8,1.4c0.2,0,0.3,0,0.5-0.1
	c0.7-0.1,1.5-0.5,2.1-1.2l0.2-0.2v-0.3v-7.3v-0.6h-0.6H351v-5.9h7.3v5.4v6.7v2.7v0.6h0.6h0.9v5.9h-7.1V162v-1.8L351.6,161.7z"/>
<path d="M389.5,156.8c-0.6,0.5-1.2,0.7-1.6,0.7c-0.5,0-0.8-0.2-0.9-0.7c-0.2-0.5-0.2-1.4-0.2-2.9V152v-2.5h0.1h2.6v-0.1v-7.1h-2.7
	v-0.6v-8.5l-6.7,5.5l-0.1,0.1v3.4v0.1h-1.6h-0.1v7.2h1.7v3.8c0,3,0,4.9,0.1,6c0,0.6,0.1,1.1,0.2,1.6s0.3,1,0.5,1.6
	c0.4,1,0.9,1.8,1.7,2.4c0.7,0.6,1.6,0.9,2.6,0.9c0.8,0,1.7-0.2,2.5-0.6s1.4-0.8,1.9-1.3c0,0,0,0,0-0.1V156.8z M379.1,143h1h0.6v-0.6
	v-3.2l5.5-4.6v7.5v0.2v0.6h0.6h2.1v5.9h-2.1h-0.6v0.6v2.1v2.3c0,1.5,0.1,2.5,0.3,3.1c0.2,0.8,0.8,1.2,1.5,1.2c0.3,0,0.6-0.1,0.9-0.2
	v5.6c-0.4,0.4-0.9,0.7-1.5,1c-0.7,0.4-1.4,0.5-2.1,0.5c-0.1,0-0.1,0-0.2,0c-0.9,0-1.6-0.2-2.2-0.7c-0.7-0.5-1.2-1.2-1.5-2.1
	c-0.2-0.5-0.3-1.1-0.4-1.5c-0.1-0.5-0.2-1-0.2-1.5c-0.1-0.7-0.1-1.8-0.1-3.3c0-0.8,0-1.6,0-2.6v-3.8v-0.6h-0.6h-1L379.1,143
	L379.1,143z"/>
<path d="M399.8,157.8c0-1.3,0.1-2.4,0.4-3.2c0.3-0.8,0.7-1.5,1.4-2c0.7-0.5,1.7-0.7,3.1-0.7c0.2,0,0.4,0,0.6,0v-0.1v-9.9
	c-1.2,0-2.1,0.1-2.7,0.4c-0.2,0.1-0.4,0.2-0.6,0.4c-0.4,0.4-0.9,0.9-1.3,1.6c-0.2,0.3-0.3,0.6-0.5,1c-0.4,0.8-0.7,1.7-0.9,2.7v-0.1
	v-5.6h-8.1v7.1v0.1h1.8v8.3v0.1h-1.8v7.1v0.1h10.6V165v-7.1L399.8,157.8C399.8,157.9,399.8,157.8,399.8,157.8z M401,158.4v5.9h-9.3
	v-5.9h1.1h0.6v-0.6v-8.4v-0.6H393h-1.1v-5.9h6.8v5.1v6.1l0.6-2.7l0.7-3.3c0.3-1.3,0.7-2.5,1.3-3.5c0.5-0.9,1.1-1.5,1.6-1.7
	c0.4-0.2,1-0.3,1.7-0.4v8.7c-1.5,0-2.6,0.3-3.4,0.8c-0.5,0.4-0.9,0.9-1.3,1.4c-0.2,0.3-0.3,0.6-0.4,0.9c-0.3,0.9-0.4,2.1-0.4,3.5
	v0.6h0.6H401z"/>
<path d="M409.3,138.9c0.7,0.7,1.6,1,2.7,1l0,0l0,0c1.1,0,1.9-0.4,2.6-1.1s1-1.7,1-2.9c0-1.1-0.3-2.1-1-2.9c-0.3-0.4-0.7-0.7-1.1-0.9
	s-0.9-0.3-1.5-0.3l0,0l0,0c-1.1,0-2,0.4-2.7,1.1l0,0c-0.7,0.8-1.1,1.7-1.1,3c0,0.3,0,0.6,0.1,0.9
	C408.4,137.7,408.8,138.4,409.3,138.9z M412,132.4c0.9,0,1.6,0.3,2.1,0.9c0.6,0.7,0.8,1.5,0.8,2.5c0,1.1-0.3,1.9-0.8,2.5
	c-0.6,0.6-1.3,0.9-2.2,0.9s-1.6-0.3-2.2-0.8s-0.9-1.4-0.9-2.5s0.3-1.9,0.9-2.5C410.4,132.7,411.1,132.4,412,132.4z"/>
<path d="M415.7,157.9L415.7,157.9l-0.1-15.6h-0.1h-8v7.1v0.1h1.3h0.1v0.3v6.4v1.7h-1.4v7.1v0.1h9.3v-7.2h-0.2H415.7z M408,158.4h0.7
	h0.6v-0.6V156v-6.3v-0.3v-0.6h-0.6H408v-5.9h6.9v14.9v0.6h0.6h0.5v5.9h-8V158.4z"/>
<path d="M434.9,145c-1.6-2.3-3.7-3.4-6.1-3.4l0,0c-2.6,0-4.6,1.2-6.1,3.5c-0.6,0.9-1.1,2-1.5,3.2c-0.5,1.6-0.8,3.5-0.8,5.5
	c0,3.5,0.8,6.4,2.3,8.6c1.3,2,3.3,3.1,6,3.3c0.3,0,0.6,0,0.9,0c0,0,0,0,0.1,0c1.8,0,3.4-0.6,4.7-1.8c0.6-0.6,1.2-1.3,1.6-2.1
	c0.5-0.8,0.8-1.7,1.1-2.7l-5.6-1.2l0,0c-0.4,1.7-1.1,2.5-2,2.5c-0.2,0-0.3,0-0.5-0.1c-0.3-0.1-0.5-0.2-0.7-0.4
	c-0.8-0.7-1.3-2.4-1.3-5.1h10.3C437.2,150.5,436.4,147.2,434.9,145z M429,161c0.1,0,0.1,0,0.2,0c1.1,0,2-0.8,2.5-2.4l4.3,0.9
	c-0.2,0.7-0.5,1.4-0.8,1.9c-0.4,0.7-0.9,1.4-1.5,1.9c-1.2,1.1-2.6,1.7-4.2,1.7c-0.2,0-0.5,0-0.7,0c-2.5-0.2-4.3-1.1-5.7-3
	c-1.5-2.1-2.2-4.8-2.2-8.2c0-2,0.3-3.9,0.8-5.5c0.3-1,0.8-1.9,1.4-2.8c1.5-2.2,3.3-3.2,5.7-3.2c2.3,0,4.1,1,5.5,3
	c1,1.3,1.6,3.1,2,5.4c0.2,1.1,0.3,2.2,0.3,3.5h-9.7h-0.7v0.6C426.2,156.3,426.2,160.7,429,161z"/>
<path d="M428.8,146.2c-0.6,0-1.5,0.3-2,1.7c-0.1,0.3-0.1,0.5-0.2,0.8c-0.2,0.8-0.3,1.7-0.3,2.7c0,0.2,0,0.4,0,0.5l0.1,0.6h0.6h3.8
	h0.6v-0.6c0-0.5,0-0.8,0-0.8c0-0.6,0-1.2-0.1-1.7c-0.1-0.6-0.3-1.1-0.5-1.6C430.2,146.5,429.4,146.2,428.8,146.2z M430.8,151.1
	L430.8,151.1c0,0.1,0,0.3,0,0.8l0,0H427l0,0c0-0.1,0-0.3,0-0.5c0-0.7,0-1.2,0.1-1.8c0.1-0.5,0.2-1,0.4-1.5c0.3-0.9,0.8-1.3,1.4-1.3
	s1.1,0.4,1.4,1.2c0.2,0.4,0.3,0.8,0.4,1.3C430.8,149.8,430.8,150.4,430.8,151.1z"/>
<path d="M446.8,157.9v-25.5h-8.2l0,0v7.2l0,0h1.4v18.2v0.1h-1.4l0,0v7.2h9.4V165v-7.1H446.8z M439.2,158.5h0.7h0.6v-0.6v-9.2v-6.9
	v-2.2V139H440h-0.7v-5.9h6.8v9.6v5.7v9.5v0.6h0.6h0.6v5.9h-8.1L439.2,158.5L439.2,158.5z"/>
<path d="M160.7,142.3v-9.1l-6.7,5.5l-0.1,0.1v3.4v0.1h-1.6h-0.1v4.6h1.7v6.4c0,3,0,4.9,0.1,6c0,0.6,0.1,1.1,0.2,1.6s0.3,1,0.5,1.6
	c0.4,1,0.9,1.8,1.7,2.4c0.7,0.6,1.6,0.9,2.6,0.9c0.8,0,1.7-0.2,2.5-0.6s1.4-0.8,1.9-1.3c0,0,0,0,0-0.1v-7c-0.6,0.5-1.2,0.7-1.6,0.7
	c-0.5,0-0.8-0.2-0.9-0.7c-0.2-0.5-0.2-1.4-0.2-2.9v-7h0.1h2.6v-0.1v-4.5H160.7z M160.1,146.2v0.6v7c0,1.5,0.1,2.5,0.3,3.1
	c0.2,0.8,0.8,1.2,1.5,1.2c0.3,0,0.6-0.1,0.9-0.2v5.6c-0.4,0.4-0.9,0.7-1.5,1c-0.8,0.4-1.6,0.5-2.3,0.5c-0.9,0-1.6-0.2-2.2-0.7
	c-0.7-0.5-1.2-1.2-1.5-2.1c-0.2-0.5-0.3-1.1-0.4-1.5c-0.1-0.5-0.2-1-0.2-1.5c-0.1-1-0.1-3-0.1-5.9v-6.4v-0.6H154h-1V143h1h0.6v-0.6
	v-3.2l5.5-4.6v7.7v0.6h0.6h2.1v3.3h-2.1L160.1,146.2L160.1,146.2z"/>
<path d="M250.5,148.9v-7c-1.2,0-2.1,0.1-2.7,0.4c-0.6,0.3-1.3,1-1.9,2c-0.6,1-1.1,2.3-1.4,3.7v-0.1v-5.6h-8.1v4.7v0.1h1.8v11.8v0.1
	h-1.8v6v0.1H247V165v-6h-2v-0.1c0-1.4,0.1-3.4,0.4-4.3c0.3-0.8,0.7-3,1.4-3.5s1.7-2.1,3.1-2.1C250.1,149,250.3,149,250.5,148.9
	L250.5,148.9z M245.1,159.5h1.3v4.8h-9.3v-4.8h1.1h0.6v-0.6V147v-0.6h-0.6h-1.1v-3.5h6.8v5.1v6.1l1.3-5.9c0.3-1.3,0.7-2.5,1.3-3.5
	c0.5-0.9,1.1-1.5,1.6-1.7c0.4-0.3,1-0.4,1.8-0.5v5.8c-1.2,0-2.2,1-2.8,1.7c-0.2,0.2-0.4,0.4-0.6,0.5c-0.7,0.5-1.1,1.8-1.5,3.3
	c-0.1,0.2-0.1,0.4-0.2,0.5c-0.3,1-0.4,3.3-0.4,4.6v0.6H245.1z"/>
<path d="M376.5,157.8c0-1.5-0.2-2.7-0.7-3.7s-1.2-1.8-2.1-2.4s-2.2-1.2-3.9-1.8c-1.5-0.5-2.3-0.9-2.6-1c-0.3-0.1-0.5-0.4-0.5-0.9
	s0.1-0.9,0.4-1.1s0.6-0.3,1.2-0.3c1.3,0,2.4,0.8,3.4,2.4h3.8v-0.2v-6.4h-4h-0.1v0.9v0.3c-1-1.2-2.4-1.7-4-1.7s-2.9,0.6-3.9,1.8
	c-1,1.2-1.5,3-1.5,5.6l0,0c0,1.1,0.1,2.1,0.3,2.8c0.2,0.7,0.6,1.4,1.2,2.2c0.6,0.7,1.3,1.3,2.3,1.8c1.1,0.6,2.2,1.1,3.1,1.5
	c1.2,0.5,1.9,0.9,2.1,1.1c0.3,0.2,0.4,0.6,0.4,0.9c0,0,0,0,0,0.1c0,0.9-0.6,1.3-1.8,1.3c-1.2,0-2.3-0.9-3.3-2.8h-3.9v7.1v0.1h4.2
	v-0.1V164c0,0,0.1,0,0.1,0.1c1.1,1,2.5,1.4,4,1.4c1.6,0,3-0.6,4.1-1.9c0.3-0.3,0.6-0.7,0.8-1.2C376.2,161.2,376.5,159.7,376.5,157.8
	z M366,162.4v1.5v0.8h-3v-5.9h2.9c1.1,1.8,2.3,2.8,3.7,2.8c2.2,0,2.5-1.4,2.5-1.9c0-0.6-0.2-1.1-0.6-1.5c-0.2-0.2-0.7-0.5-2.3-1.2
	c-0.9-0.4-2-0.9-3.1-1.5c-0.9-0.4-1.6-1-2.1-1.7s-0.9-1.3-1.1-1.9s-0.3-1.5-0.3-2.6c0-2.3,0.5-4.1,1.4-5.1c0.9-1.2,2-1.7,3.4-1.7
	c1.5,0,2.6,0.5,3.6,1.4l1.1,1.1v-1.5V143h2.9v5.3h-2.8c-1-1.6-2.3-2.4-3.8-2.4c-1.4,0-2.2,0.8-2.2,2.1c0,1,0.5,1.3,0.8,1.5
	c0.2,0.1,0.7,0.3,2.7,1c1.6,0.6,2.9,1.2,3.8,1.8c0.8,0.5,1.5,1.3,1.9,2.1c0.4,0.9,0.6,2.1,0.6,3.4c0,2.4-0.5,4.3-1.5,5.4
	s-2.2,1.6-3.7,1.6s-2.7-0.5-3.7-1.4L366,162.4z"/>
</svg>
