<?xml version="1.0" encoding="utf-8"?>
<!-- Generator: Adobe Illustrator 19.1.0, SVG Export Plug-In . SVG Version: 6.00 Build 0)  -->
<svg version="1.1" id="Calque_1" xmlns="http://www.w3.org/2000/svg" xmlns:xlink="http://www.w3.org/1999/xlink" x="0px" y="0px"
	 viewBox="0 0 500 500" style="enable-background:new 0 0 500 500;" xml:space="preserve">
<style type="text/css">
	.st0{fill:#FFED00;}
	.st1{fill:#AAC811;}
	.st2{fill:#6F4695;}
	.st3{fill:#FFE961;}
	.st4{fill:#FFD402;}
	.st5{fill:#E52424;}
	.st6{fill:#3BBFF0;}
	.st7{fill:#3158A4;}
	.st8{fill:#FFFFFF;}
	.st9{clip-path:url(#SVGID_2_);}
	.st10{clip-path:url(#SVGID_4_);fill:#3BBFF0;}
	.st11{clip-path:url(#SVGID_6_);fill:#3158A4;}
	.st12{clip-path:url(#SVGID_8_);fill:#3158A4;}
	.st13{clip-path:url(#SVGID_10_);}
	.st14{clip-path:url(#SVGID_12_);fill:#E52424;}
	.st15{clip-path:url(#SVGID_14_);}
	.st16{clip-path:url(#SVGID_16_);fill:#AAC811;}
	.st17{clip-path:url(#SVGID_18_);fill:#3158A4;}
	.st18{clip-path:url(#SVGID_20_);fill:#FFD402;}
	.st19{clip-path:url(#SVGID_22_);fill:#AAC811;}
	.st20{clip-path:url(#SVGID_24_);fill:#6F4695;}
	.st21{clip-path:url(#SVGID_26_);fill:#FFE961;}
	.st22{clip-path:url(#SVGID_28_);fill:#FFFFFF;}
	.st23{clip-path:url(#SVGID_30_);fill:#FFD402;}
	.st24{clip-path:url(#SVGID_32_);fill:#6F4695;}
	.st25{clip-path:url(#SVGID_34_);}
	.st26{clip-path:url(#SVGID_36_);fill:#FFFFFF;}
	.st27{clip-path:url(#SVGID_38_);fill:#E52424;}
	.st28{clip-path:url(#SVGID_40_);fill:#3BBFF0;}
	.st29{clip-path:url(#SVGID_42_);fill:#FFE961;}
	.st30{clip-path:url(#SVGID_44_);fill:#FFE961;}
	.st31{enable-background:new    ;}
</style>
<g>
	<rect x="28.1" y="169.7" class="st0" width="447.3" height="163.6"/>
	<path d="M77.5,262H66.4l-11.5-60.2h-4.5v-9.9h21.2v9.9h-3.1l4.8,30.1l6.1-30.1h-3v-9.9h17.8v9.9h-3l6.2,30.1l4.9-30.1h-2.9v-9.9
		h16.5v9.9h-2.8L101.3,262H88.6l-5.5-26L77.5,262z"/>
	<path d="M140.1,262h-22.6v-10.5l4.5,0l6.4-50h-3.2v-9.7h34.8v9.7h-4.6l7.8,50h4.3V262h-21.2v-10.5h3.4l-1.6-13.3h-11.7l-1.8,13.3
		h5.5L140.1,262L140.1,262z M141.8,201.5l-4.2,28.8h8.8L141.8,201.5z"/>
	<path d="M203.9,262.7h-27.2v-11.1h5.6v-48.7h-5.8V218h-8.8v-26.1H213V218h-9.2v-15.1h-5.8v48.7h5.8V262.7z"/>
	<path d="M253.6,262.7h-27.2v-11.1h5.6v-48.7h-5.8V218h-8.8v-26.1h45.4V218h-9.2v-15.1h-5.8v48.7h5.8V262.7z"/>
	<path d="M310.7,262.7H266v-11.6h5v-48.2h-4.6v-11.1h44.8v22.7h-10.7v-11.6h-13.7v18.3h10.1v10.3h-10.1v19.6h12.5v-11h11.5
		L310.7,262.7L310.7,262.7z"/>
	<path d="M409.2,262.7h-44.8v-11.6h5v-48.2h-4.6v-11.1h44.8v22.7h-10.7v-11.6h-13.7v18.3h10.1v10.3h-10.1v19.6h12.5v-11h11.5
		L409.2,262.7L409.2,262.7z"/>
	<path d="M359.9,262.7h-43.6v-11h4.5v-49h-4.5v-10.9h28.9v10.9h-8.6v49h13.6v-19.9h9.7L359.9,262.7L359.9,262.7z"/>
	<path d="M453.5,262.7h-40.3v-11.1l24.7-50l-12.6,0v11.6h-8.9v-21.4h36.9v9.8l-23.4,50l14.1-0.2v-12h9.5L453.5,262.7L453.5,262.7z"
		/>
	<g>
		<path class="st1" d="M73.6,311h-9.4v-6h1.4v-19.7h-1.4v-7.8h8.2V305h1.2C73.6,305,73.6,311,73.6,311z"/>
		<path class="st2" d="M113.8,311h-9.4v-6h1.4v-19.7h-1.4v-7.8h8.2V305h1.2L113.8,311L113.8,311z"/>
		<path class="st1" d="M76.6,291.4v-3.6c0.7,0,1.3-0.1,1.6-0.4c0.4-0.3,0.6-0.6,0.7-1c0.1-0.4,0.2,0.1,0.2-1h-2.5v-7.9h6.7v6.9
			c0,2-0.1,2.1-0.2,2.9c-0.1,0.8-0.4,1.5-0.9,2.2c-0.5,0.7-1.1,1.2-1.9,1.5C79.6,291.3,78.4,291.4,76.6,291.4z"/>
		<path class="st1" d="M96.1,303.3l5.6,1.2c-0.3,1-0.6,1.9-1.1,2.7c-0.5,0.8-1,1.5-1.6,2.1c-1.3,1.2-2.9,1.8-4.7,1.8
			c-3.1,0-5.3-1.1-6.9-3.3c-1.5-2.2-2.3-5.1-2.3-8.6c0-3.5,0.8-6.4,2.3-8.7c1.5-2.3,3.5-3.5,6.1-3.5c2.5,0,4.5,1.1,6.1,3.3
			c1.5,2.2,2.3,5.5,2.4,9.9H91.7c0,3.7,0.8,5.5,2.4,5.5C95,305.8,95.7,305,96.1,303.3z M93.8,285.4h-3.2l2.6-7.9h6.3L93.8,285.4z
			 M91.7,297.3h3.8c0-0.5,0-0.7,0-0.8c0-1.2-0.2-2.3-0.5-3.1c-0.4-0.8-0.8-1.2-1.4-1.2c-0.6,0-1.1,0.4-1.4,1.3
			c-0.3,0.9-0.5,2-0.5,3.3C91.7,297,91.7,297.2,91.7,297.3z"/>
		<path class="st3" d="M121.7,294.7l-5.3-0.9c0.6-2.2,1.5-3.8,2.8-4.7c1.3-0.9,3.2-1.4,5.7-1.4c0.9,0,1.8,0,2.5,0.1
			c0.7,0.1,1.4,0.3,2,0.5c1.2,0.4,2.1,1,2.7,1.8c0.6,0.8,1,1.7,1.2,2.7c0.2,1,0.4,2.5,0.4,4.6v6.6h1.7v7.2h-8.5v-1.5
			c-1.2,1.3-2.7,2-4.7,2c-1.8,0-3.2-0.7-4.2-2.1c-0.9-1.4-1.4-3.1-1.4-5c0-2.1,0.6-3.9,1.7-5.2c1.2-1.4,2.7-2,4.5-2
			c1.7,0,3,0.4,4,1.1v-0.7c0-1.4-0.1-2.4-0.2-3c-0.1-0.6-0.4-1.1-0.8-1.5c-0.5-0.4-1-0.6-1.6-0.6
			C123.1,292.5,122.2,293.2,121.7,294.7z M126.8,305.2v-4.2c-0.6-0.6-1.2-0.8-1.9-0.8c-0.6,0-1.1,0.3-1.4,0.8
			c-0.4,0.6-0.5,1.3-0.5,2.2c0,0.9,0.2,1.7,0.5,2.2c0.4,0.6,0.8,0.9,1.3,0.9C125.5,306.4,126.2,306,126.8,305.2z"/>
		<path class="st4" d="M140.8,311.1h-4.2v-7.3h3.9c1,1.9,2.1,2.8,3.3,2.8c1.2,0,1.8-0.4,1.8-1.3c0-0.4-0.1-0.8-0.4-1
			c-0.3-0.3-1-0.6-2.1-1.1c-0.9-0.4-2-1-3.1-1.5c-1-0.5-1.8-1.1-2.3-1.8c-0.6-0.7-1-1.5-1.2-2.2c-0.2-0.7-0.3-1.6-0.3-2.8
			c0-2.5,0.5-4.4,1.5-5.6c1-1.2,2.3-1.8,3.9-1.8c1.6,0,3,0.5,4.1,1.6v-1.2h4.1v6.7H146c-1-1.6-2.1-2.4-3.4-2.4c-1,0-1.6,0.5-1.6,1.4
			c0,0.5,0.2,0.8,0.5,0.9c0.3,0.1,1.1,0.5,2.6,1c1.7,0.6,3,1.2,3.9,1.8c0.9,0.6,1.6,1.4,2.1,2.4c0.5,1,0.7,2.2,0.7,3.7
			c0,2.7-0.6,4.6-1.7,5.9c-1.1,1.2-2.5,1.9-4.1,1.9c-1.6,0-3-0.5-4.1-1.6L140.8,311.1L140.8,311.1z"/>
		<path class="st5" d="M163.5,302.7v7c-0.4,0.5-1.1,1-1.9,1.4c-0.9,0.4-1.7,0.6-2.5,0.6c-1,0-1.9-0.3-2.6-0.9
			c-0.7-0.6-1.3-1.4-1.7-2.4c-0.2-0.6-0.4-1.1-0.5-1.6c-0.1-0.5-0.2-1-0.2-1.6c-0.1-1-0.1-3-0.1-6v-6.4h-1.7v-4.6h1.7v-3.5l6.8-5.6
			v9.1h2.7v4.6h-2.7v7c0,1.4,0.1,2.4,0.2,2.9c0.1,0.5,0.5,0.7,0.9,0.7C162.3,303.5,162.8,303.2,163.5,302.7z"/>
		<path class="st3" d="M165.5,299.6c0-3.3,0.8-6.2,2.4-8.5c1.6-2.3,3.8-3.4,6.6-3.4c2.8,0,5,1.1,6.8,3.3c1.7,2.2,2.6,5.1,2.6,8.7
			c0,3.4-0.8,6.3-2.5,8.6c-1.7,2.3-3.8,3.4-6.6,3.4c-2.9,0-5.2-1.1-6.9-3.4C166.3,306,165.5,303.1,165.5,299.6z M173.2,299.6
			c0,4.5,0.5,6.8,1.4,6.8c1,0,1.5-2.3,1.5-6.8c0-2.1-0.1-3.7-0.4-4.8c-0.3-1.1-0.6-1.7-1.1-1.7c-0.5,0-0.8,0.6-1.1,1.7
			C173.4,295.8,173.2,297.4,173.2,299.6z"/>
		<path class="st4" d="M196,311h-10.3V305h1.6v-12.5h-1.6v-4.7h8.5v3.2c0.6-1,1.5-1.8,2.6-2.5c1-0.7,2-1.1,3-1.1
			c2.2,0,3.7,1.5,4.5,4.5c2-3,4.1-4.5,6.1-4.5c1.1,0,2.1,0.4,2.8,1.3c0.8,0.9,1.3,2,1.6,3.5c0.3,1.5,0.5,3.6,0.5,6.3v6.5h1.7v6.1
			h-8.5v-10c0-2.6-0.1-4.2-0.3-4.9c-0.2-0.6-0.6-1-1.2-1c-0.7,0-1.5,0.5-2.2,1.5v8.2h1.9v6.1h-8.6v-9.9c0-2.6-0.1-4.2-0.3-4.9
			c-0.2-0.7-0.6-1-1.2-1c-0.7,0-1.4,0.5-2.2,1.5v8.2h1.8L196,311L196,311z"/>
		<path class="st2" d="M229.1,303.9l5.6,1.2c-0.3,1-0.6,1.9-1.1,2.7c-0.5,0.8-1,1.5-1.6,2.1c-1.3,1.2-2.9,1.8-4.7,1.8
			c-3.1,0-5.4-1.1-6.9-3.3c-1.5-2.2-2.3-5.1-2.3-8.6c0-3.5,0.8-6.4,2.3-8.7c1.5-2.3,3.5-3.5,6.1-3.5c2.5,0,4.5,1.1,6.1,3.3
			c1.5,2.2,2.3,5.5,2.4,9.9h-10.3c0,3.7,0.8,5.5,2.4,5.5C228,306.4,228.7,305.5,229.1,303.9z M227,277.4l2.6,8.1h-3.2l-5.6-8.1H227z
			 M224.8,297.9h3.8c0-0.5,0-0.7,0-0.8c0-1.2-0.2-2.3-0.5-3.1c-0.4-0.8-0.8-1.2-1.4-1.2c-0.6,0-1.1,0.4-1.4,1.3
			c-0.3,0.9-0.5,2-0.5,3.3C224.8,297.6,224.8,297.8,224.8,297.9z"/>
		<path class="st6" d="M247,311h-10.6v-6.1h1.8v-11.9h-1.8v-4.8h8.1v5.7c0.3-1.4,0.8-2.6,1.4-3.7c0.6-1,1.2-1.7,1.9-2
			c0.6-0.3,1.5-0.4,2.7-0.4v7.1c-0.2,0-0.3,0-0.6,0c-1.4,0-2.4,1.6-3.1,2.1c-0.7,0.5-1.2,2.7-1.4,3.5c-0.3,0.8-0.4,3-0.4,4.4h2
			L247,311L247,311L247,311z"/>
		<path class="st6" d="M263.4,303.9l5.6,1.2c-0.3,1-0.6,1.9-1.1,2.7c-0.5,0.8-1,1.5-1.6,2.1c-1.3,1.2-2.9,1.8-4.7,1.8
			c-3.1,0-5.4-1.1-6.9-3.3c-1.5-2.2-2.3-5.1-2.3-8.6c0-3.5,0.8-6.4,2.3-8.7c1.5-2.3,3.5-3.5,6.1-3.5c2.5,0,4.5,1.1,6.1,3.3
			c1.5,2.2,2.3,5.5,2.4,9.9H259c0,3.7,0.8,5.5,2.4,5.5C262.4,306.4,263,305.5,263.4,303.9z M259.1,297.9h3.8c0-0.5,0-0.7,0-0.8
			c0-1.2-0.2-2.3-0.5-3.1c-0.4-0.8-0.8-1.2-1.4-1.2c-0.6,0-1.1,0.4-1.4,1.3c-0.3,0.9-0.5,2-0.5,3.3
			C259.1,297.6,259.1,297.8,259.1,297.9z"/>
		<path class="st7" d="M295.4,311h-9.3v-6h1.4v-12.1h-1.4v-4.6h8.1V305h1.1L295.4,311L295.4,311z M286.9,281.9c0-1.2,0.4-2.2,1.1-3
			c0.7-0.8,1.6-1.1,2.7-1.1c1.1,0,2,0.4,2.6,1.2c0.7,0.8,1,1.8,1,2.9c0,1.2-0.3,2.2-1,2.9c-0.7,0.7-1.6,1.1-2.6,1.1
			c-1.1,0-2-0.3-2.7-1C287.3,284.2,286.9,283.2,286.9,281.9z"/>
		<path class="st1" d="M308.1,311h-10.4v-7.2h1.7v-8.4h-1.7v-7.2h8.5v2.9c1.7-2.2,3.5-3.3,5.4-3.3c1.7,0,2.9,0.8,3.8,2.4
			c0.8,1.6,1.3,4.2,1.3,7.8v5.8h1.6v7.2h-8.4v-10.1c0-2.2-0.1-3.7-0.3-4.4c-0.2-0.7-0.7-1-1.3-1c-0.6,0-1.3,0.4-1.9,1.2v7.1h1.9
			L308.1,311L308.1,311z"/>
		<path class="st1" d="M338.7,303.9v7.2h-8.5v-1.5c-1.3,1.3-2.7,1.9-4.4,1.9c-1.8,0-3.5-1-4.9-2.9c-1.4-2-2.1-4.8-2.1-8.4
			c0-3.9,0.7-7,2-9.1c1.3-2.1,3.1-3.2,5.3-3.2c1.6,0,3,0.6,4.2,1.9v-4.2h-1.7v-7.2h8.5v25.5L338.7,303.9L338.7,303.9z M330.2,299.6
			c0-1.4-0.2-2.6-0.6-3.6c-0.4-0.9-0.9-1.4-1.7-1.4c-1.5,0-2.3,1.7-2.3,5.2c0,1.4,0.2,2.6,0.6,3.5c0.4,0.9,0.9,1.4,1.7,1.4
			c0.7,0,1.2-0.4,1.7-1.2C330,302.6,330.2,301.3,330.2,299.6z"/>
		<path class="st5" d="M341.7,295.5h-1.6v-7.2h8.4v10.8c0,1.8,0.1,3.1,0.3,3.7c0.2,0.6,0.6,1,1.2,1c0.8,0,1.5-0.4,2.1-1.1v-7.3h-1.8
			v-7.2h8.6v15.6h1.6v7.2h-8.4v-2.9c-1.8,2.2-3.6,3.3-5.5,3.3c-1.3,0-2.5-0.7-3.5-2.2c-1-1.5-1.5-4.3-1.5-8.4V295.5z"/>
		<path class="st2" d="M366.6,311.3h-4.2v-7.2h3.9c1,1.8,2.1,2.8,3.3,2.8c1.2,0,1.8-0.4,1.8-1.3c0-0.4-0.1-0.8-0.4-1
			c-0.3-0.2-1-0.6-2.1-1.1c-0.9-0.4-2-0.9-3.1-1.5c-1-0.5-1.8-1.1-2.3-1.8c-0.6-0.7-1-1.5-1.2-2.2c-0.2-0.7-0.3-1.6-0.3-2.8
			c0-2.5,0.5-4.4,1.5-5.6c1-1.2,2.3-1.8,3.9-1.8c1.6,0,3,0.5,4.1,1.6v-1.2h4.1v6.6h-3.8c-1-1.6-2.1-2.4-3.4-2.4
			c-1,0-1.6,0.5-1.6,1.4c0,0.5,0.2,0.8,0.5,0.9c0.3,0.1,1.1,0.5,2.6,1c1.7,0.6,3,1.2,3.9,1.8c0.9,0.6,1.6,1.4,2.1,2.4
			c0.5,1,0.7,2.2,0.7,3.7c0,2.6-0.6,4.6-1.7,5.8c-1.1,1.2-2.5,1.9-4.1,1.9c-1.6,0-3-0.5-4.1-1.5L366.6,311.3L366.6,311.3z"/>
		<path class="st8" d="M389.6,302.7v7c-0.4,0.5-1.1,1-1.9,1.4c-0.9,0.4-1.7,0.6-2.5,0.6c-1,0-1.9-0.3-2.6-0.9
			c-0.7-0.6-1.3-1.4-1.7-2.4c-0.2-0.6-0.4-1.1-0.5-1.6c-0.1-0.5-0.2-1-0.2-1.6c-0.1-1-0.1-3-0.1-6v-3.8h-1.7v-7.2h1.7v-3.5l6.8-5.6
			v9.1h2.7v7.2h-2.7v4.4c0,1.4,0.1,2.4,0.2,2.9c0.1,0.5,0.4,0.7,0.9,0.7C388.4,303.5,389,303.2,389.6,302.7z"/>
		<path class="st8" d="M401.8,311h-10.6v-7.2h1.8v-8.4h-1.8v-7.2h8.1v5.7c0.3-1.4,0.8-2.6,1.4-3.7c0.6-1,1.2-1.7,1.9-2
			c0.6-0.3,1.5-0.4,2.7-0.4v10c-0.2,0-0.3,0-0.6,0c-1.4,0-2.4,0.2-3.1,0.7c-0.7,0.5-1.2,1.2-1.4,2c-0.3,0.8-0.4,2-0.4,3.3h2
			L401.8,311L401.8,311z"/>
		<path class="st3" d="M416.7,311h-9.3v-7.2h1.4v-8.4h-1.4v-7.2h8.1v15.6h1.1L416.7,311L416.7,311z M408.2,281.9
			c0-1.2,0.4-2.2,1.1-3c0.7-0.8,1.6-1.1,2.7-1.1c1.1,0,2,0.4,2.6,1.2c0.7,0.8,1,1.8,1,2.9c0,1.2-0.3,2.2-1,2.9
			c-0.7,0.7-1.6,1.1-2.6,1.1c-1.1,0-2-0.3-2.7-1C408.6,284.2,408.2,283.2,408.2,281.9z"/>
		<path class="st5" d="M431.3,303.9l5.6,1.2c-0.3,1-0.6,1.9-1.1,2.7c-0.5,0.8-1,1.5-1.6,2.1c-1.3,1.2-2.9,1.8-4.7,1.8
			c-3.1,0-5.4-1.1-6.9-3.3c-1.5-2.2-2.3-5.1-2.3-8.6c0-3.5,0.8-6.4,2.3-8.7c1.5-2.3,3.5-3.5,6.1-3.5c2.5,0,4.5,1.1,6.1,3.3
			c1.5,2.2,2.3,5.5,2.4,9.9h-10.3c0,3.7,0.8,5.5,2.4,5.5C430.2,306.4,430.9,305.5,431.3,303.9z M427,297.9h3.8c0-0.5,0-0.7,0-0.8
			c0-1.2-0.2-2.3-0.5-3.1c-0.4-0.8-0.8-1.2-1.4-1.2c-0.6,0-1.1,0.4-1.4,1.3c-0.3,0.9-0.5,2-0.5,3.3C427,297.6,427,297.8,427,297.9z"
			/>
		<path class="st5" d="M448,311h-9.4v-7.2h1.4v-18.3h-1.4v-7.2h8.2v25.5h1.2L448,311L448,311z"/>
		<g>
			<g>
				<defs>
					<polygon id="SVGID_1_" points="73.6,311 64.2,311 64.2,305 65.6,305 65.6,285.3 64.2,285.3 64.2,277.5 72.4,277.5 72.4,305 
						73.6,305 					"/>
				</defs>
				<clipPath id="SVGID_2_">
					<use xlink:href="#SVGID_1_"  style="overflow:visible;"/>
				</clipPath>
				<g class="st9">
					<path class="st7" d="M57,301.8c0,0,20.3-7.8,22-5.2c1.7,2.6-0.4,8.2-3.4,9.1c-3,0.9-9.9,3.4-13.4,5.6
						C58.7,313.4,57,301.8,57,301.8z"/>
					<path class="st7" d="M71.7,275.7c0,0-7.4,6.8-10,11.3c-4.2-9.4,0-11.3,0-11.3H71.7z"/>
				</g>
			</g>
		</g>
		<g>
			<g>
				<defs>
					<polygon id="SVGID_3_" points="113.8,311 104.4,311 104.4,305 105.8,305 105.8,285.3 104.4,285.3 104.4,277.5 112.6,277.5 
						112.6,305 113.8,305 113.8,311 					"/>
				</defs>
				<clipPath id="SVGID_4_">
					<use xlink:href="#SVGID_3_"  style="overflow:visible;"/>
				</clipPath>
				<path class="st10" d="M114.7,288.6c0,0-9.7,1.9-10,5.5s-2.3,6.8,0,6.1C106.9,299.6,114,297,114.7,288.6z"/>
			</g>
		</g>
		<g>
			<g>
				<defs>
					<path id="SVGID_5_" d="M76.6,291.4v-3.6c0.7,0,1.3-0.1,1.6-0.4c0.4-0.3,0.6-0.6,0.7-1c0.1-0.4,0.2,0.1,0.2-1h-2.5v-7.9h6.7v6.9
						c0,2-0.1,2.1-0.2,2.9c-0.1,0.8-0.4,1.5-0.9,2.2c-0.5,0.7-1.1,1.2-1.9,1.5C79.6,291.3,78.4,291.4,76.6,291.4z"/>
				</defs>
				<clipPath id="SVGID_6_">
					<use xlink:href="#SVGID_5_"  style="overflow:visible;"/>
				</clipPath>
				<path class="st11" d="M74.6,290.2c0,0,9.7-2.3,11-4.9C83.6,291.5,78.5,295.4,74.6,290.2z"/>
			</g>
		</g>
		<g>
			<g>
				<defs>
					<path id="SVGID_7_" d="M96.1,303.3l5.6,1.2c-0.3,1-0.6,1.9-1.1,2.7c-0.5,0.8-1,1.5-1.6,2.1c-1.3,1.2-2.9,1.8-4.7,1.8
						c-3.1,0-5.3-1.1-6.9-3.3c-1.5-2.2-2.3-5.1-2.3-8.6c0-3.5,0.8-6.4,2.3-8.7c1.5-2.3,3.5-3.5,6.1-3.5c2.5,0,4.5,1.1,6.1,3.3
						c1.5,2.2,2.3,5.5,2.4,9.9H91.7c0,3.7,0.8,5.5,2.4,5.5C95,305.8,95.7,305,96.1,303.3z M93.8,285.4h-3.2l2.6-7.9h6.3L93.8,285.4z
						 M91.7,297.3h3.8c0-0.5,0-0.7,0-0.8c0-1.2-0.2-2.3-0.5-3.1c-0.4-0.8-0.8-1.2-1.4-1.2c-0.6,0-1.1,0.4-1.4,1.3
						c-0.3,0.9-0.5,2-0.5,3.3C91.7,297,91.7,297.2,91.7,297.3z"/>
				</defs>
				<clipPath id="SVGID_8_">
					<use xlink:href="#SVGID_7_"  style="overflow:visible;"/>
				</clipPath>
				<path class="st12" d="M103.3,291.2c0,0-6.5,3.2-10.7,4.2C93,296.4,102.4,298.6,103.3,291.2z"/>
			</g>
		</g>
		<g>
			<g>
				<defs>
					<path id="SVGID_9_" d="M140.8,311.1h-4.2v-7.3h3.9c1,1.9,2.1,2.8,3.3,2.8c1.2,0,1.8-0.4,1.8-1.3c0-0.4-0.1-0.8-0.4-1
						c-0.3-0.3-1-0.6-2.1-1.1c-0.9-0.4-2-1-3.1-1.5c-1-0.5-1.8-1.1-2.3-1.8c-0.6-0.7-1-1.5-1.2-2.2c-0.2-0.7-0.3-1.6-0.3-2.8
						c0-2.5,0.5-4.4,1.5-5.6c1-1.2,2.3-1.8,3.9-1.8c1.6,0,3,0.5,4.1,1.6v-1.2h4.1v6.7H146c-1-1.6-2.1-2.4-3.4-2.4
						c-1,0-1.6,0.5-1.6,1.4c0,0.5,0.2,0.8,0.5,0.9c0.3,0.1,1.1,0.5,2.6,1c1.7,0.6,3,1.2,3.9,1.8c0.9,0.6,1.6,1.4,2.1,2.4
						c0.5,1,0.7,2.2,0.7,3.7c0,2.7-0.6,4.6-1.7,5.9c-1.1,1.2-2.5,1.9-4.1,1.9c-1.6,0-3-0.5-4.1-1.6L140.8,311.1L140.8,311.1z"/>
				</defs>
				<clipPath id="SVGID_10_">
					<use xlink:href="#SVGID_9_"  style="overflow:visible;"/>
				</clipPath>
				<g class="st13">
					<path class="st8" d="M135,298c0,0,8.7-3.9,16.5-3.2c-0.3-4.9-0.6-9.4-0.6-9.4S132.8,279.9,135,298z"/>
					<path class="st8" d="M152.8,303.2c0,0-4.3,5.2-12,7.9C152.2,314.1,152.8,308.6,152.8,303.2z"/>
				</g>
			</g>
		</g>
		<path class="st5" d="M163.5,302.7v7c-0.4,0.5-1.1,1-1.9,1.4c-0.9,0.4-1.7,0.6-2.5,0.6c-1,0-1.9-0.3-2.6-0.9
			c-0.7-0.6-1.3-1.4-1.7-2.4c-0.2-0.6-0.4-1.1-0.5-1.6c-0.1-0.5-0.2-1-0.2-1.6c-0.1-1-0.1-3-0.1-6v-6.4h-1.7v-4.6h1.7v-3.5l6.8-5.6
			v9.1h2.7v4.6h-2.7v7c0,1.4,0.1,2.4,0.2,2.9c0.1,0.5,0.5,0.7,0.9,0.7C162.3,303.5,162.8,303.2,163.5,302.7z"/>
		<g>
			<g>
				<defs>
					<path id="SVGID_11_" d="M196,311h-10.3V305h1.6v-12.5h-1.6v-4.7h8.5v3.2c0.6-1,1.5-1.8,2.6-2.5c1-0.7,2-1.1,3-1.1
						c2.2,0,3.7,1.5,4.5,4.5c2-3,4.1-4.5,6.1-4.5c1.1,0,2.1,0.4,2.8,1.3c0.8,0.9,1.3,2,1.6,3.5c0.3,1.5,0.5,3.6,0.5,6.3v6.5h1.7v6.1
						h-8.5v-10c0-2.6-0.1-4.2-0.3-4.9c-0.2-0.6-0.6-1-1.2-1c-0.7,0-1.5,0.5-2.2,1.5v8.2h1.9v6.1h-8.6v-9.9c0-2.6-0.1-4.2-0.3-4.9
						c-0.2-0.7-0.6-1-1.2-1c-0.7,0-1.4,0.5-2.2,1.5v8.2h1.8L196,311L196,311z"/>
				</defs>
				<clipPath id="SVGID_12_">
					<use xlink:href="#SVGID_11_"  style="overflow:visible;"/>
				</clipPath>
				<path class="st14" d="M201.3,285c0,0-12.6,9.1-9.7,9.4c2.9,0.3,13.9,0.3,14.9,4.2c1,3.9-10.3,7.8-10.3,11c0,3.2,23,6.5,22.3,0
					c-0.6-6.5,2.9-3.7,3.9-10.3C223.3,292.6,215.9,279.6,201.3,285z"/>
			</g>
		</g>
		<path class="st6" d="M247,311h-10.6v-6.1h1.8v-11.9h-1.8v-4.8h8.1v5.7c0.3-1.4,0.8-2.6,1.4-3.7c0.6-1,1.2-1.7,1.9-2
			c0.6-0.3,1.5-0.4,2.7-0.4v7.1c-0.2,0-0.3,0-0.6,0c-1.4,0-2.4,1.6-3.1,2.1c-0.7,0.5-1.2,2.7-1.4,3.5c-0.3,0.8-0.4,3-0.4,4.4h2
			L247,311L247,311L247,311z"/>
		<g>
			<g>
				<defs>
					<path id="SVGID_13_" d="M263.4,303.9l5.6,1.2c-0.3,1-0.6,1.9-1.1,2.7c-0.5,0.8-1,1.5-1.6,2.1c-1.3,1.2-2.9,1.8-4.7,1.8
						c-3.1,0-5.4-1.1-6.9-3.3c-1.5-2.2-2.3-5.1-2.3-8.6c0-3.5,0.8-6.4,2.3-8.7c1.5-2.3,3.5-3.5,6.1-3.5c2.5,0,4.5,1.1,6.1,3.3
						c1.5,2.2,2.3,5.5,2.4,9.9H259c0,3.7,0.8,5.5,2.4,5.5C262.4,306.4,263,305.5,263.4,303.9z M259.1,297.9h3.8c0-0.5,0-0.7,0-0.8
						c0-1.2-0.2-2.3-0.5-3.1c-0.4-0.8-0.8-1.2-1.4-1.2c-0.6,0-1.1,0.4-1.4,1.3c-0.3,0.9-0.5,2-0.5,3.3
						C259.1,297.6,259.1,297.8,259.1,297.9z"/>
				</defs>
				<clipPath id="SVGID_14_">
					<use xlink:href="#SVGID_13_"  style="overflow:visible;"/>
				</clipPath>
				<g class="st15">
					<path class="st7" d="M250.5,295c0,0,15.1-4.1,20,0.4C266.6,284.7,256.7,279.7,250.5,295z"/>
					<path class="st7" d="M267.6,301.9c0,0-10.3,2.9-11.6,9.4c-1.3,6.5,11.3,4.2,12.9-1.6C270.5,303.8,271.5,302.5,267.6,301.9z"/>
				</g>
			</g>
		</g>
		<g>
			<g>
				<defs>
					<path id="SVGID_15_" d="M295.4,311h-9.3v-6h1.4v-12.1h-1.4v-4.6h8.1V305h1.1L295.4,311L295.4,311z M286.9,281.9
						c0-1.2,0.4-2.2,1.1-3c0.7-0.8,1.6-1.1,2.7-1.1c1.1,0,2,0.4,2.6,1.2c0.7,0.8,1,1.8,1,2.9c0,1.2-0.3,2.2-1,2.9
						c-0.7,0.7-1.6,1.1-2.6,1.1c-1.1,0-2-0.3-2.7-1C287.3,284.2,286.9,283.2,286.9,281.9z"/>
				</defs>
				<clipPath id="SVGID_16_">
					<use xlink:href="#SVGID_15_"  style="overflow:visible;"/>
				</clipPath>
				<path class="st16" d="M296.4,289.6c0,0-13.9,4.5-11.6,7.8C287,300.6,295.7,300.6,296.4,289.6z"/>
			</g>
		</g>
		<g>
			<g>
				<defs>
					<path id="SVGID_17_" d="M308.1,311h-10.4v-7.2h1.7v-8.4h-1.7v-7.2h8.5v2.9c1.7-2.2,3.5-3.3,5.4-3.3c1.7,0,2.9,0.8,3.8,2.4
						c0.8,1.6,1.3,4.2,1.3,7.8v5.8h1.6v7.2h-8.4v-10.1c0-2.2-0.1-3.7-0.3-4.4c-0.2-0.7-0.7-1-1.3-1c-0.6,0-1.3,0.4-1.9,1.2v7.1h1.9
						L308.1,311L308.1,311z"/>
				</defs>
				<clipPath id="SVGID_18_">
					<use xlink:href="#SVGID_17_"  style="overflow:visible;"/>
				</clipPath>
				<path class="st17" d="M295.7,300.6c0,0,8.7-10,8.7-6.1S298.6,304.1,295.7,300.6z"/>
			</g>
		</g>
		<g>
			<g>
				<defs>
					<path id="SVGID_19_" d="M338.7,303.9v7.2h-8.5v-1.5c-1.3,1.3-2.7,1.9-4.4,1.9c-1.8,0-3.5-1-4.9-2.9c-1.4-2-2.1-4.8-2.1-8.4
						c0-3.9,0.7-7,2-9.1c1.3-2.1,3.1-3.2,5.3-3.2c1.6,0,3,0.6,4.2,1.9v-4.2h-1.7v-7.2h8.5v25.5L338.7,303.9L338.7,303.9z
						 M330.2,299.6c0-1.4-0.2-2.6-0.6-3.6c-0.4-0.9-0.9-1.4-1.7-1.4c-1.5,0-2.3,1.7-2.3,5.2c0,1.4,0.2,2.6,0.6,3.5
						c0.4,0.9,0.9,1.4,1.7,1.4c0.7,0,1.2-0.4,1.7-1.2C330,302.6,330.2,301.3,330.2,299.6z"/>
				</defs>
				<clipPath id="SVGID_20_">
					<use xlink:href="#SVGID_19_"  style="overflow:visible;"/>
				</clipPath>
				<path class="st18" d="M318,301.9c0,0-1.2,9.5,7.8,9.6C330.6,310.3,320,295.7,318,301.9z"/>
			</g>
		</g>
		<g>
			<g>
				<defs>
					<path id="SVGID_21_" d="M341.7,295.5h-1.6v-7.2h8.4v10.8c0,1.8,0.1,3.1,0.3,3.7c0.2,0.6,0.6,1,1.2,1c0.8,0,1.5-0.4,2.1-1.1
						v-7.3h-1.8v-7.2h8.6v15.6h1.6v7.2h-8.4v-2.9c-1.8,2.2-3.6,3.3-5.5,3.3c-1.3,0-2.5-0.7-3.5-2.2c-1-1.5-1.5-4.3-1.5-8.4V295.5z"
						/>
				</defs>
				<clipPath id="SVGID_22_">
					<use xlink:href="#SVGID_21_"  style="overflow:visible;"/>
				</clipPath>
				<path class="st19" d="M339,302.2c0,0,10.7-3.2,11-2.3c0.3,1,1,12.9,1,12.9s-8.7,1.3-9.7-1.3C340.3,309,339,302.2,339,302.2z"/>
			</g>
			<g>
				<defs>
					<path id="SVGID_23_" d="M341.7,295.5h-1.6v-7.2h8.4v10.8c0,1.8,0.1,3.1,0.3,3.7c0.2,0.6,0.6,1,1.2,1c0.8,0,1.5-0.4,2.1-1.1
						v-7.3h-1.8v-7.2h8.6v15.6h1.6v7.2h-8.4v-2.9c-1.8,2.2-3.6,3.3-5.5,3.3c-1.3,0-2.5-0.7-3.5-2.2c-1-1.5-1.5-4.3-1.5-8.4V295.5z"
						/>
				</defs>
				<clipPath id="SVGID_24_">
					<use xlink:href="#SVGID_23_"  style="overflow:visible;"/>
				</clipPath>
				<path class="st20" d="M359.9,293.3c0,0-4,1.9-5,6s5.3,1,5.3,1L359.9,293.3z"/>
			</g>
		</g>
		<path class="st2" d="M366.6,311.3h-4.2v-7.2h3.9c1,1.8,2.1,2.8,3.3,2.8c1.2,0,1.8-0.4,1.8-1.3c0-0.4-0.1-0.8-0.4-1
			c-0.3-0.2-1-0.6-2.1-1.1c-0.9-0.4-2-0.9-3.1-1.5c-1-0.5-1.8-1.1-2.3-1.8c-0.6-0.7-1-1.5-1.2-2.2c-0.2-0.7-0.3-1.6-0.3-2.8
			c0-2.5,0.5-4.4,1.5-5.6c1-1.2,2.3-1.8,3.9-1.8c1.6,0,3,0.5,4.1,1.6v-1.2h4.1v6.6h-3.8c-1-1.6-2.1-2.4-3.4-2.4
			c-1,0-1.6,0.5-1.6,1.4c0,0.5,0.2,0.8,0.5,0.9c0.3,0.1,1.1,0.5,2.6,1c1.7,0.6,3,1.2,3.9,1.8c0.9,0.6,1.6,1.4,2.1,2.4
			c0.5,1,0.7,2.2,0.7,3.7c0,2.6-0.6,4.6-1.7,5.8c-1.1,1.2-2.5,1.9-4.1,1.9c-1.6,0-3-0.5-4.1-1.5L366.6,311.3L366.6,311.3z"/>
		<g>
			<g>
				<defs>
					<path id="SVGID_25_" d="M401.8,311h-10.6v-7.2h1.8v-8.4h-1.8v-7.2h8.1v5.7c0.3-1.4,0.8-2.6,1.4-3.7c0.6-1,1.2-1.7,1.9-2
						c0.6-0.3,1.5-0.4,2.7-0.4v10c-0.2,0-0.3,0-0.6,0c-1.4,0-2.4,0.2-3.1,0.7c-0.7,0.5-1.2,1.2-1.4,2c-0.3,0.8-0.4,2-0.4,3.3h2
						L401.8,311L401.8,311z"/>
				</defs>
				<clipPath id="SVGID_26_">
					<use xlink:href="#SVGID_25_"  style="overflow:visible;"/>
				</clipPath>
				<path class="st21" d="M405.6,285.7c0,0-10.9,6.3-4.5,15.8c4.8-1.6,5.8-3.9,5.8-3.9L405.6,285.7z"/>
			</g>
		</g>
		<g>
			<g>
				<defs>
					<path id="SVGID_27_" d="M416.7,311h-9.3v-7.2h1.4v-8.4h-1.4v-7.2h8.1v15.6h1.1L416.7,311L416.7,311z M408.2,281.9
						c0-1.2,0.4-2.2,1.1-3c0.7-0.8,1.6-1.1,2.7-1.1c1.1,0,2,0.4,2.6,1.2c0.7,0.8,1,1.8,1,2.9c0,1.2-0.3,2.2-1,2.9
						c-0.7,0.7-1.6,1.1-2.6,1.1c-1.1,0-2-0.3-2.7-1C408.6,284.2,408.2,283.2,408.2,281.9z"/>
				</defs>
				<clipPath id="SVGID_28_">
					<use xlink:href="#SVGID_27_"  style="overflow:visible;"/>
				</clipPath>
				<path class="st22" d="M406.6,302.8c0,0,6.1-1,6.1-4.2C412.7,295.4,404.7,292.8,406.6,302.8z"/>
			</g>
		</g>
		<g>
			<g>
				<defs>
					<path id="SVGID_29_" d="M431.3,303.9l5.6,1.2c-0.3,1-0.6,1.9-1.1,2.7c-0.5,0.8-1,1.5-1.6,2.1c-1.3,1.2-2.9,1.8-4.7,1.8
						c-3.1,0-5.4-1.1-6.9-3.3c-1.5-2.2-2.3-5.1-2.3-8.6c0-3.5,0.8-6.4,2.3-8.7c1.5-2.3,3.5-3.5,6.1-3.5c2.5,0,4.5,1.1,6.1,3.3
						c1.5,2.2,2.3,5.5,2.4,9.9h-10.3c0,3.7,0.8,5.5,2.4,5.5C430.2,306.4,430.9,305.5,431.3,303.9z M427,297.9h3.8c0-0.5,0-0.7,0-0.8
						c0-1.2-0.2-2.3-0.5-3.1c-0.4-0.8-0.8-1.2-1.4-1.2c-0.6,0-1.1,0.4-1.4,1.3c-0.3,0.9-0.5,2-0.5,3.3
						C427,297.6,427,297.8,427,297.9z"/>
				</defs>
				<clipPath id="SVGID_30_">
					<use xlink:href="#SVGID_29_"  style="overflow:visible;"/>
				</clipPath>
				<path class="st23" d="M418.2,294.1c0,0,19.7,0.6,20,4.5c-0.6,3.9-2.6,3.2-9.7,3.9c0.6,2.6,1.3,12.9-2.3,11.3
					C422.8,312.2,416.6,309.9,418.2,294.1z"/>
			</g>
		</g>
		<g>
			<g>
				<defs>
					<polygon id="SVGID_31_" points="448,311 438.6,311 438.6,303.9 440,303.9 440,285.6 438.6,285.6 438.6,278.4 446.8,278.4 
						446.8,303.9 448,303.9 448,311 					"/>
				</defs>
				<clipPath id="SVGID_32_">
					<use xlink:href="#SVGID_31_"  style="overflow:visible;"/>
				</clipPath>
				<path class="st24" d="M438.3,287.6c0,0,11.6,0.6,11,3.6c-0.6,2.9-6.8,5.8-10.7,2.3C437,288.3,438.3,287.6,438.3,287.6z"/>
			</g>
		</g>
		<g>
			<g>
				<defs>
					<path id="SVGID_33_" d="M121.7,294.7l-5.3-0.9c0.6-2.2,1.5-3.8,2.8-4.7c1.3-0.9,3.2-1.4,5.7-1.4c0.9,0,1.8,0,2.5,0.1
						c0.7,0.1,1.4,0.3,2,0.5c1.2,0.4,2.1,1,2.7,1.8c0.6,0.8,1,1.7,1.2,2.7c0.2,1,0.4,2.5,0.4,4.6v6.6h1.7v7.2h-8.5v-1.5
						c-1.2,1.3-2.7,2-4.7,2c-1.8,0-3.2-0.7-4.2-2.1c-0.9-1.4-1.4-3.1-1.4-5c0-2.1,0.6-3.9,1.7-5.2c1.2-1.4,2.7-2,4.5-2
						c1.7,0,3,0.4,4,1.1v-0.7c0-1.4-0.1-2.4-0.2-3c-0.1-0.6-0.4-1.1-0.8-1.5c-0.5-0.4-1-0.6-1.6-0.6
						C123.1,292.5,122.2,293.2,121.7,294.7z M126.8,305.2v-4.2c-0.6-0.6-1.2-0.8-1.9-0.8c-0.6,0-1.1,0.3-1.4,0.8
						c-0.4,0.6-0.5,1.3-0.5,2.2c0,0.9,0.2,1.7,0.5,2.2c0.4,0.6,0.8,0.9,1.3,0.9C125.5,306.4,126.2,306,126.8,305.2z"/>
				</defs>
				<clipPath id="SVGID_34_">
					<use xlink:href="#SVGID_33_"  style="overflow:visible;"/>
				</clipPath>
				<g class="st25">
					<path class="st8" d="M116.5,296.1c0,0,9.9-11.4,16.8-5.8C131.8,285.4,111.3,280.2,116.5,296.1z"/>
					<path class="st8" d="M135.5,302c0,0-9.6,8.6-19.6,5.8C119.5,321.1,134.4,310.2,135.5,302z"/>
				</g>
			</g>
		</g>
		<g>
			<g>
				<defs>
					<path id="SVGID_35_" d="M165.5,299.6c0-3.3,0.8-6.2,2.4-8.5c1.6-2.3,3.8-3.4,6.6-3.4c2.8,0,5,1.1,6.8,3.3
						c1.7,2.2,2.6,5.1,2.6,8.7c0,3.4-0.8,6.3-2.5,8.6c-1.7,2.3-3.8,3.4-6.6,3.4c-2.9,0-5.2-1.1-6.9-3.4
						C166.3,306,165.5,303.1,165.5,299.6z M173.2,299.6c0,4.5,0.5,6.8,1.4,6.8c1,0,1.5-2.3,1.5-6.8c0-2.1-0.1-3.7-0.4-4.8
						c-0.3-1.1-0.6-1.7-1.1-1.7c-0.5,0-0.8,0.6-1.1,1.7C173.4,295.8,173.2,297.4,173.2,299.6z"/>
				</defs>
				<clipPath id="SVGID_36_">
					<use xlink:href="#SVGID_35_"  style="overflow:visible;"/>
				</clipPath>
				<path class="st26" d="M165.1,292.5c0,0,6.1,7.1,9.7,7.1s11.3-0.3,9.7,1.3c-1.6,1.6-19.7,6.8-20,1.9S162.2,297.7,165.1,292.5z"/>
			</g>
		</g>
		<g>
			<g>
				<defs>
					<path id="SVGID_37_" d="M229.1,303.9l5.6,1.2c-0.3,1-0.6,1.9-1.1,2.7c-0.5,0.8-1,1.5-1.6,2.1c-1.3,1.2-2.9,1.8-4.7,1.8
						c-3.1,0-5.4-1.1-6.9-3.3c-1.5-2.2-2.3-5.1-2.3-8.6c0-3.5,0.8-6.4,2.3-8.7c1.5-2.3,3.5-3.5,6.1-3.5c2.5,0,4.5,1.1,6.1,3.3
						c1.5,2.2,2.3,5.5,2.4,9.9h-10.3c0,3.7,0.8,5.5,2.4,5.5C228,306.4,228.7,305.5,229.1,303.9z M227,277.4l2.6,8.1h-3.2l-5.6-8.1
						H227z M224.8,297.9h3.8c0-0.5,0-0.7,0-0.8c0-1.2-0.2-2.3-0.5-3.1c-0.4-0.8-0.8-1.2-1.4-1.2c-0.6,0-1.1,0.4-1.4,1.3
						c-0.3,0.9-0.5,2-0.5,3.3C224.8,297.6,224.8,297.8,224.8,297.9z"/>
				</defs>
				<clipPath id="SVGID_38_">
					<use xlink:href="#SVGID_37_"  style="overflow:visible;"/>
				</clipPath>
				<path class="st27" d="M201.3,285c0,0-12.6,9.1-9.7,9.4c2.9,0.3,13.9,0.3,14.9,4.2c1,3.9-10.3,7.8-10.3,11c0,3.2,23,6.5,22.3,0
					c-0.6-6.5,2.9-3.7,3.9-10.3C223.3,292.6,215.9,279.6,201.3,285z"/>
			</g>
			<g>
				<defs>
					<path id="SVGID_39_" d="M229.1,303.9l5.6,1.2c-0.3,1-0.6,1.9-1.1,2.7c-0.5,0.8-1,1.5-1.6,2.1c-1.3,1.2-2.9,1.8-4.7,1.8
						c-3.1,0-5.4-1.1-6.9-3.3c-1.5-2.2-2.3-5.1-2.3-8.6c0-3.5,0.8-6.4,2.3-8.7c1.5-2.3,3.5-3.5,6.1-3.5c2.5,0,4.5,1.1,6.1,3.3
						c1.5,2.2,2.3,5.5,2.4,9.9h-10.3c0,3.7,0.8,5.5,2.4,5.5C228,306.4,228.7,305.5,229.1,303.9z M227,277.4l2.6,8.1h-3.2l-5.6-8.1
						H227z M224.8,297.9h3.8c0-0.5,0-0.7,0-0.8c0-1.2-0.2-2.3-0.5-3.1c-0.4-0.8-0.8-1.2-1.4-1.2c-0.6,0-1.1,0.4-1.4,1.3
						c-0.3,0.9-0.5,2-0.5,3.3C224.8,297.6,224.8,297.8,224.8,297.9z"/>
				</defs>
				<clipPath id="SVGID_40_">
					<use xlink:href="#SVGID_39_"  style="overflow:visible;"/>
				</clipPath>
				<path class="st28" d="M234.3,287c0,0-6.1,6.1-2.3,9.7c3.9,3.6,5.2,0.3,5.2,0.3L234.3,287z"/>
			</g>
		</g>
		<g>
			<g>
				<defs>
					<path id="SVGID_41_" d="M389.6,302.7v7c-0.4,0.5-1.1,1-1.9,1.4c-0.9,0.4-1.7,0.6-2.5,0.6c-1,0-1.9-0.3-2.6-0.9
						c-0.7-0.6-1.3-1.4-1.7-2.4c-0.2-0.6-0.4-1.1-0.5-1.6c-0.1-0.5-0.2-1-0.2-1.6c-0.1-1-0.1-3-0.1-6v-3.8h-1.7v-7.2h1.7v-3.5
						l6.8-5.6v9.1h2.7v7.2h-2.7v4.4c0,1.4,0.1,2.4,0.2,2.9c0.1,0.5,0.4,0.7,0.9,0.7C388.4,303.5,389,303.2,389.6,302.7z"/>
				</defs>
				<clipPath id="SVGID_42_">
					<use xlink:href="#SVGID_41_"  style="overflow:visible;"/>
				</clipPath>
				<path class="st29" d="M389.6,285.9c0,0-10,5.7-8.1,8.1c1.9,2.4,6.6,3.9,7,6s2.3-6,2.3-9.1C390.8,287.8,389.6,285.9,389.6,285.9z
					"/>
			</g>
			<g>
				<defs>
					<path id="SVGID_43_" d="M389.6,302.7v7c-0.4,0.5-1.1,1-1.9,1.4c-0.9,0.4-1.7,0.6-2.5,0.6c-1,0-1.9-0.3-2.6-0.9
						c-0.7-0.6-1.3-1.4-1.7-2.4c-0.2-0.6-0.4-1.1-0.5-1.6c-0.1-0.5-0.2-1-0.2-1.6c-0.1-1-0.1-3-0.1-6v-3.8h-1.7v-7.2h1.7v-3.5
						l6.8-5.6v9.1h2.7v7.2h-2.7v4.4c0,1.4,0.1,2.4,0.2,2.9c0.1,0.5,0.4,0.7,0.9,0.7C388.4,303.5,389,303.2,389.6,302.7z"/>
				</defs>
				<clipPath id="SVGID_44_">
					<use xlink:href="#SVGID_43_"  style="overflow:visible;"/>
				</clipPath>
				<path class="st30" d="M379.6,301c0,0-5.9,9.9-3.1,11c2.9,1.2,7.7,0.1,9,1.8c1.3,1.7-1-6.3-2.5-9
					C381.6,302.2,379.6,301,379.6,301z"/>
			</g>
		</g>
		<g class="st31">
			<path d="M71.8,278.1V305v0.6h0.6H73v4.7h-8.1v-4.7h0.7h0.6V305v-19.7v-0.6h-0.6h-0.7v-6.5H71.8 M72.4,277.5h-8.2v7.8h1.4V305
				h-1.4v6h9.4v-6h-1.2V277.5L72.4,277.5z"/>
		</g>
		<g class="st31">
			<path d="M111.9,278.1V305v0.6h0.6h0.6v4.7H105v-4.7h0.7h0.6V305v-19.7v-0.6h-0.6H105v-6.5H111.9 M112.6,277.5h-8.2v7.8h1.4V305
				h-1.4v6h9.4v-6h-1.2L112.6,277.5L112.6,277.5z"/>
		</g>
		<g class="st31">
			<path d="M82.7,278.1v6.3c0,1.7,0,2-0.1,2.5l0,0.2c-0.1,0.7-0.4,1.3-0.8,1.9c-0.4,0.6-1,1-1.6,1.3c-0.6,0.2-1.5,0.3-2.9,0.4v-2.3
				c0.6-0.1,1-0.3,1.4-0.5c0.5-0.4,0.8-0.8,0.9-1.4c0.2-0.2,0.2-0.5,0.2-1.2l0-0.7h-0.7h-1.9v-6.6L82.7,278.1 M83.4,277.5h-6.7v7.9
				h2.5c0,1.1-0.1,0.6-0.2,1c-0.1,0.4-0.3,0.7-0.7,1c-0.4,0.3-0.9,0.4-1.6,0.4v3.6c1.7,0,3-0.1,3.7-0.4c0.8-0.3,1.4-0.8,1.9-1.5
				c0.5-0.7,0.8-1.5,0.9-2.2c0.1-0.8,0.2-0.9,0.2-2.9L83.4,277.5L83.4,277.5z"/>
		</g>
		<g class="st31">
			<path d="M98.2,278.1l-4.7,6.6h-2l2.1-6.6H98.2 M93.5,287.7c2.3,0,4.1,1,5.5,3c1.4,2,2.1,4.9,2.3,8.9h-9.7H91l0,0.7
				c0,1.5,0,6.2,3,6.2c1.1,0,2-0.8,2.5-2.4l4.3,0.9c-0.2,0.7-0.5,1.4-0.8,1.9c-0.4,0.7-0.9,1.4-1.5,1.9c-1.2,1.1-2.6,1.7-4.2,1.7
				c-2.9,0-4.9-1-6.4-3c-1.5-2.1-2.2-4.8-2.2-8.2c0-3.3,0.7-6.1,2.2-8.3C89.3,288.8,91.1,287.7,93.5,287.7 M91.1,298h0.6h3.8h0.6
				l0-0.6c0-0.5,0-0.8,0-0.8c0-1.3-0.2-2.4-0.6-3.3c-0.6-1.3-1.4-1.6-2-1.6c-0.6,0-1.5,0.3-2,1.7c-0.3,1-0.5,2.1-0.5,3.5
				c0,0.2,0,0.4,0,0.5L91.1,298 M99.4,277.5h-6.3l-2.6,7.9h3.2L99.4,277.5L99.4,277.5z M93.5,287.1c-2.6,0-4.6,1.2-6.1,3.5
				c-1.5,2.3-2.3,5.2-2.3,8.7c0,3.5,0.8,6.4,2.3,8.6c1.5,2.2,3.8,3.3,6.9,3.3c1.8,0,3.4-0.6,4.7-1.8c0.6-0.6,1.2-1.3,1.6-2.1
				c0.4-0.8,0.8-1.7,1.1-2.7l-5.6-1.2c-0.4,1.7-1.1,2.5-2,2.5c-1.6,0-2.4-1.8-2.4-5.5H102c-0.1-4.4-0.9-7.7-2.4-9.9
				C98,288.2,96,287.1,93.5,287.1L93.5,287.1z M91.7,297.3c0-0.1,0-0.3,0-0.5c0-1.3,0.2-2.4,0.5-3.3c0.3-0.9,0.8-1.3,1.4-1.3
				c0.6,0,1.1,0.4,1.4,1.2c0.4,0.8,0.5,1.8,0.5,3.1c0,0.1,0,0.3,0,0.8H91.7L91.7,297.3z"/>
		</g>
		<g class="st31">
			<path d="M124.9,288.3c0.9,0,1.7,0,2.4,0.1c0.7,0.1,1.3,0.2,1.9,0.4c1.1,0.3,1.8,0.9,2.3,1.6c0.5,0.8,0.9,1.6,1.1,2.5
				c0.2,0.9,0.3,2.4,0.3,4.4v6.6v0.6h0.6h1v5.9h-7.2v-0.9v-1.7l-1.1,1.3c-1.1,1.2-2.4,1.8-4.2,1.8c-1.6,0-2.8-0.6-3.6-1.8
				c-0.9-1.3-1.3-2.9-1.3-4.6c0-2,0.5-3.6,1.6-4.8c1-1.2,2.3-1.8,4-1.8c1.5,0,2.8,0.3,3.6,1l1,0.8v-1.3v-0.7c0-1.5-0.1-2.5-0.2-3.1
				c-0.2-0.7-0.5-1.3-1-1.9c-0.6-0.5-1.2-0.8-2-0.8c-1.2,0-2.2,0.7-2.9,2.1l-4.1-0.7c0.5-1.7,1.3-3,2.4-3.7
				C120.7,288.7,122.5,288.3,124.9,288.3 M124.7,307.1c1.1,0,2-0.5,2.6-1.5l0.1-0.2v-0.2v-4.2v-0.3l-0.2-0.2c-0.7-0.7-1.5-1-2.4-1
				c-0.8,0-1.5,0.4-2,1.2c-0.4,0.7-0.6,1.5-0.6,2.5c0,1,0.2,1.9,0.6,2.6C123.4,306.7,124,307.1,124.7,307.1 M124.9,287.6
				c-2.5,0-4.4,0.5-5.7,1.4c-1.3,0.9-2.3,2.5-2.8,4.7l5.3,0.9c0.6-1.5,1.4-2.2,2.5-2.2c0.6,0,1.1,0.2,1.6,0.6
				c0.4,0.4,0.7,0.9,0.8,1.5c0.1,0.6,0.2,1.5,0.2,3v0.7c-1-0.8-2.3-1.1-4-1.1c-1.9,0-3.4,0.7-4.5,2c-1.2,1.4-1.7,3.1-1.7,5.2
				c0,1.9,0.5,3.6,1.4,5c0.9,1.4,2.3,2.1,4.2,2.1c2,0,3.5-0.7,4.7-2v1.5h8.5v-7.2h-1.7v-6.6c0-2.1-0.1-3.6-0.4-4.6
				c-0.2-1-0.6-1.8-1.2-2.7c-0.6-0.8-1.5-1.4-2.7-1.8c-0.6-0.2-1.2-0.4-2-0.5C126.6,287.7,125.8,287.6,124.9,287.6L124.9,287.6z
				 M124.7,306.4c-0.5,0-0.9-0.3-1.3-0.9c-0.4-0.6-0.5-1.3-0.5-2.2c0-0.9,0.2-1.6,0.5-2.2c0.4-0.6,0.8-0.8,1.4-0.8
				c0.7,0,1.3,0.3,1.9,0.8v4.2C126.2,306,125.5,306.4,124.7,306.4L124.7,306.4z"/>
		</g>
		<g class="st31">
			<path d="M141.6,288c1.5,0,2.6,0.5,3.6,1.4l1.1,1.1V289v-0.5h2.9v5.4h-2.8c-1-1.6-2.3-2.4-3.8-2.4c-1.4,0-2.2,0.8-2.2,2.1
				c0,1,0.5,1.3,0.8,1.5c0.2,0.1,0.7,0.3,2.7,1.1c1.6,0.6,2.9,1.2,3.8,1.8c0.8,0.5,1.5,1.3,1.9,2.2c0.4,0.9,0.6,2.1,0.6,3.5
				c0,2.5-0.5,4.3-1.5,5.4c-1,1.1-2.2,1.7-3.7,1.7c-1.5,0-2.7-0.5-3.7-1.4l-1.1-1v1.5v0.8h-2.9v-6h2.9c1.1,1.9,2.3,2.8,3.7,2.8
				c2.2,0,2.5-1.4,2.5-1.9c0-0.6-0.2-1.1-0.6-1.5c-0.2-0.2-0.7-0.5-2.3-1.2c-0.9-0.4-1.9-0.9-3.1-1.5c-0.9-0.4-1.6-1-2.1-1.7
				c-0.5-0.7-0.9-1.3-1.1-2c-0.2-0.6-0.3-1.5-0.3-2.6c0-2.4,0.5-4.1,1.4-5.2C139.1,288.5,140.2,288,141.6,288 M141.6,287.4
				c-1.6,0-2.9,0.6-3.9,1.8c-1,1.2-1.5,3.1-1.5,5.6c0,1.2,0.1,2.1,0.3,2.8c0.2,0.7,0.6,1.4,1.2,2.2c0.6,0.7,1.3,1.4,2.3,1.8
				c1.1,0.6,2.2,1.1,3.1,1.5c1.2,0.5,1.9,0.9,2.1,1.1c0.3,0.2,0.4,0.6,0.4,1c0,0.9-0.6,1.3-1.8,1.3c-1.2,0-2.3-0.9-3.3-2.8h-3.9v7.3
				h4.2l0,0v-1.4c1.1,1,2.5,1.6,4.1,1.6c1.6,0,3-0.6,4.1-1.9c1.1-1.3,1.7-3.2,1.7-5.9c0-1.5-0.2-2.7-0.7-3.7c-0.5-1-1.2-1.8-2.1-2.4
				c-0.9-0.6-2.2-1.2-3.9-1.8c-1.5-0.5-2.3-0.9-2.6-1c-0.3-0.1-0.5-0.4-0.5-0.9c0-1,0.5-1.4,1.6-1.4c1.3,0,2.4,0.8,3.4,2.4h3.8v-6.7
				h-4.1v1.2C144.6,287.9,143.2,287.4,141.6,287.4L141.6,287.4z"/>
		</g>
		<g class="st31">
			<path d="M174.5,288.3c2.6,0,4.6,1,6.3,3.1c1.6,2.1,2.5,4.9,2.5,8.3c0,3.3-0.8,6.1-2.4,8.2c-1.5,2.1-3.5,3.2-6,3.2
				c-2.7,0-4.8-1-6.3-3.2c-1.6-2.2-2.3-5-2.3-8.3c0-3.2,0.8-5.9,2.3-8.1C170,289.3,172,288.3,174.5,288.3 M174.7,307
				c1.5,0,2.2-2.2,2.2-7.5c0-2.1-0.1-3.8-0.4-5c-0.1-0.6-0.5-2.2-1.7-2.2c-1.2,0-1.6,1.6-1.7,2.2c-0.3,1.2-0.4,2.9-0.4,5.1
				C172.6,304.9,173.2,307,174.7,307 M174.5,287.6c-2.8,0-4.9,1.1-6.6,3.4c-1.6,2.3-2.4,5.1-2.4,8.5c0,3.5,0.8,6.4,2.5,8.7
				c1.6,2.3,3.9,3.4,6.9,3.4c2.7,0,4.9-1.1,6.6-3.4c1.7-2.3,2.5-5.2,2.5-8.6c0-3.6-0.9-6.5-2.6-8.7
				C179.5,288.8,177.3,287.6,174.5,287.6L174.5,287.6z M174.7,306.4c-1,0-1.4-2.3-1.4-6.8c0-2.2,0.1-3.8,0.4-4.9
				c0.3-1.1,0.6-1.7,1.1-1.7c0.5,0,0.8,0.6,1.1,1.7c0.2,1.1,0.4,2.8,0.4,4.8C176.2,304.1,175.7,306.4,174.7,306.4L174.7,306.4z"/>
		</g>
		<g class="st31">
			<path d="M210.3,288c1,0,1.7,0.4,2.3,1.1c0.7,0.8,1.2,1.9,1.5,3.2c0.3,1.4,0.5,3.5,0.5,6.2v6.5v0.6h0.6h1.1v4.8h-7.2v-9.3
				c0-3.6-0.2-4.6-0.4-5.1c-0.3-0.9-1-1.4-1.8-1.4c-0.9,0-1.9,0.6-2.7,1.7l-0.1,0.2v0.2v8.2v0.6h0.6h1.2v4.8h-7.4v-9.3
				c0-2.6-0.1-4.3-0.3-5c-0.3-0.9-0.9-1.5-1.8-1.5c-0.9,0-1.8,0.6-2.7,1.7l-0.1,0.2v0.2v8.2v0.6h0.6h1.2v4.8h-9v-4.8h1h0.6V305
				v-12.5v-0.6h-0.6h-1v-3.4h7.2v2.5v2.1l1.2-1.8c0.6-0.9,1.4-1.7,2.4-2.4c0.9-0.6,1.8-1,2.6-1c1.9,0,3.2,1.3,3.8,4.1l0.4,1.4
				l0.8-1.2C206.6,289.5,208.5,288,210.3,288 M210.3,287.4c-2.1,0-4.1,1.5-6.1,4.5c-0.8-3-2.2-4.5-4.5-4.5c-1,0-2,0.4-3,1.1
				c-1.1,0.7-1.9,1.6-2.6,2.5v-3.2h-8.5v4.7h1.6V305h-1.6v6.1H196V305h-1.8v-8.2c0.8-1,1.5-1.5,2.2-1.5c0.6,0,1,0.3,1.2,1
				c0.2,0.7,0.3,2.3,0.3,4.9v9.9h8.6V305h-1.9v-8.2c0.7-1,1.5-1.5,2.2-1.5c0.6,0,1,0.3,1.2,1c0.2,0.6,0.3,2.3,0.3,4.9v10h8.5V305
				h-1.7v-6.5c0-2.7-0.2-4.8-0.5-6.3c-0.3-1.5-0.8-2.6-1.6-3.5C212.4,287.8,211.5,287.4,210.3,287.4L210.3,287.4z"/>
		</g>
		<g class="st31">
			<path d="M226.5,278.1l2.1,6.8h-2l-4.7-6.8H226.5 M226.5,288.3c2.3,0,4.1,1,5.5,3c1.4,1.9,2.1,4.9,2.3,8.9h-9.7h-0.7l0,0.6
				c0,1.5,0,6.2,3,6.2c1.1,0,2-0.8,2.5-2.4l4.3,0.9c-0.2,0.7-0.5,1.3-0.8,1.9c-0.4,0.7-0.9,1.4-1.5,1.9c-1.2,1.1-2.6,1.7-4.2,1.7
				c-2.9,0-4.9-1-6.4-3c-1.5-2.1-2.2-4.8-2.2-8.2c0-3.3,0.7-6.1,2.2-8.3C222.4,289.3,224.2,288.3,226.5,288.3 M224.2,298.5h0.6h3.8
				h0.6l0-0.6c0-0.5,0-0.8,0-0.8c0-1.3-0.2-2.4-0.6-3.3c-0.6-1.3-1.4-1.6-2-1.6c-0.6,0-1.5,0.3-2,1.7c-0.3,1-0.5,2.1-0.5,3.5
				c0,0.2,0,0.4,0,0.5L224.2,298.5 M227,277.4h-6.3l5.6,8.1h3.2L227,277.4L227,277.4z M226.5,287.6c-2.6,0-4.6,1.2-6.1,3.5
				c-1.5,2.3-2.3,5.2-2.3,8.7c0,3.5,0.8,6.4,2.3,8.6c1.5,2.2,3.8,3.3,6.9,3.3c1.8,0,3.4-0.6,4.7-1.8c0.6-0.6,1.2-1.3,1.6-2.1
				c0.4-0.8,0.8-1.7,1.1-2.7l-5.6-1.2c-0.4,1.7-1.1,2.5-2,2.5c-1.6,0-2.4-1.8-2.4-5.5H235c-0.1-4.4-0.9-7.7-2.4-9.9
				C231,288.7,229,287.6,226.5,287.6L226.5,287.6z M224.8,297.9c0-0.1,0-0.3,0-0.5c0-1.3,0.2-2.4,0.5-3.3c0.3-0.9,0.8-1.3,1.4-1.3
				c0.6,0,1.1,0.4,1.4,1.2c0.4,0.8,0.5,1.8,0.5,3.1c0,0.1,0,0.3,0,0.8H224.8L224.8,297.9z"/>
		</g>
		<g class="st31">
			<path d="M260.9,288.3c2.3,0,4.1,1,5.5,3c1.4,2,2.1,4.9,2.3,8.9H259h-0.7l0,0.6c0,1.5,0,6.2,3,6.2c1.1,0,2-0.8,2.5-2.4l4.3,0.9
				c-0.2,0.7-0.5,1.3-0.8,1.9c-0.4,0.7-0.9,1.4-1.5,1.9c-1.2,1.1-2.6,1.7-4.2,1.7c-2.9,0-4.9-1-6.4-3c-1.5-2.1-2.2-4.8-2.2-8.2
				c0-3.3,0.7-6.1,2.2-8.3C256.7,289.3,258.5,288.3,260.9,288.3 M258.5,298.5h0.6h3.8h0.6l0-0.6c0-0.5,0-0.8,0-0.8
				c0-1.3-0.2-2.4-0.6-3.3c-0.6-1.3-1.4-1.6-2-1.6c-0.6,0-1.5,0.3-2,1.7c-0.3,1-0.5,2.1-0.5,3.5c0,0.2,0,0.4,0,0.5L258.5,298.5
				 M260.9,287.6c-2.6,0-4.6,1.2-6.1,3.5c-1.5,2.3-2.3,5.2-2.3,8.7c0,3.5,0.8,6.4,2.3,8.6c1.5,2.2,3.8,3.3,6.9,3.3
				c1.8,0,3.4-0.6,4.7-1.8c0.6-0.6,1.2-1.3,1.6-2.1c0.4-0.8,0.8-1.7,1.1-2.7l-5.6-1.2c-0.4,1.7-1.1,2.5-2,2.5
				c-1.6,0-2.4-1.8-2.4-5.5h10.3c-0.1-4.4-0.9-7.7-2.4-9.9C265.4,288.7,263.3,287.6,260.9,287.6L260.9,287.6z M259.1,297.9
				c0-0.1,0-0.3,0-0.5c0-1.3,0.2-2.4,0.5-3.3c0.3-0.9,0.8-1.3,1.4-1.3c0.6,0,1.1,0.4,1.4,1.2c0.4,0.8,0.5,1.8,0.5,3.1
				c0,0.1,0,0.3,0,0.8H259.1L259.1,297.9z"/>
		</g>
		<g class="st31">
			<path d="M290.7,278.4c0.9,0,1.6,0.3,2.1,0.9c0.6,0.7,0.8,1.5,0.8,2.5c0,1.1-0.3,1.9-0.9,2.5c-0.6,0.6-1.3,0.9-2.2,0.9
				c-0.9,0-1.6-0.3-2.2-0.8c-0.6-0.5-0.9-1.4-0.9-2.5c0-1.1,0.3-1.9,0.9-2.5C289.1,278.7,289.8,278.4,290.7,278.4 M293.7,288.9V305
				v0.6h0.6h0.5v4.7h-8v-4.7h0.7h0.6V305v-12.1v-0.6h-0.6h-0.7v-3.3H293.7 M290.7,277.8c-1.1,0-2,0.4-2.7,1.1
				c-0.7,0.8-1.1,1.7-1.1,3c0,1.3,0.4,2.3,1.1,3c0.7,0.7,1.6,1,2.7,1c1.1,0,1.9-0.4,2.6-1.1c0.7-0.7,1-1.7,1-2.9
				c0-1.1-0.3-2.1-1-2.9C292.7,278.2,291.8,277.8,290.7,277.8L290.7,277.8z M294.3,288.3h-8.1v4.6h1.4V305h-1.4v6h9.3h0v-6h-1.1
				L294.3,288.3L294.3,288.3z"/>
		</g>
		<g class="st31">
			<path d="M311.6,288.5c1.4,0,2.5,0.7,3.2,2.1c0.8,1.5,1.2,4,1.2,7.5v5.8v0.6h0.6h0.9v5.9h-7.1v-9.5c0-2.3-0.1-3.8-0.4-4.6
				c-0.3-0.9-1-1.5-1.9-1.5c-0.8,0-1.6,0.5-2.4,1.4l-0.2,0.2v0.2v7.1v0.6h0.6h1.2v5.9h-9.1v-5.9h1h0.6v-0.6v-8.4v-0.6h-0.6h-1v-5.9
				h7.2v2.2v1.9l1.2-1.5C308.3,289.6,309.9,288.5,311.6,288.5 M311.6,287.9c-1.9,0-3.7,1.1-5.4,3.3v-2.9h-8.5v7.2h1.7v8.4h-1.7v7.2
				h10.4v-7.2h-1.9v-7.1c0.7-0.8,1.3-1.2,1.9-1.2c0.7,0,1.1,0.3,1.3,1c0.2,0.7,0.3,2.2,0.3,4.4V311h8.4v-7.2h-1.6v-5.8
				c0-3.6-0.4-6.2-1.3-7.8C314.5,288.7,313.3,287.9,311.6,287.9L311.6,287.9z"/>
		</g>
		<g class="st31">
			<path d="M336.3,279.1v24.8v0.6h0.6h1.1v5.9h-7.2v-0.9v-1.6l-1.1,1.1c-1.1,1.2-2.4,1.8-3.9,1.8c-1.6,0-3.1-0.9-4.4-2.7
				c-1.3-1.8-2-4.5-2-8c0-3.8,0.6-6.7,1.9-8.8c1.2-1.9,2.7-2.9,4.7-2.9c1.4,0,2.7,0.5,3.7,1.7l1.1,1.2v-1.7v-4.2v-0.6h-0.6h-1v-5.9
				L336.3,279.1 M327.9,305.4c0.6,0,1.6-0.3,2.3-1.6c0.5-0.9,0.7-2.3,0.7-4.2c0-1.5-0.2-2.8-0.6-3.8c-0.6-1.5-1.6-1.8-2.3-1.8
				c-2,0-3,2-3,5.8c0,1.5,0.2,2.8,0.6,3.8C326.2,305,327.2,305.4,327.9,305.4 M337,278.4h-8.5v7.2h1.7v4.2c-1.2-1.3-2.5-1.9-4.2-1.9
				c-2.2,0-4,1.1-5.3,3.2c-1.3,2.1-2,5.2-2,9.1c0,3.6,0.7,6.4,2.1,8.4c1.4,2,3.1,2.9,4.9,2.9c1.7,0,3.1-0.6,4.4-1.9v1.5h8.5v-7.2
				H337V278.4L337,278.4z M327.9,304.7c-0.8,0-1.3-0.5-1.7-1.4c-0.4-0.9-0.6-2.1-0.6-3.5c0-3.5,0.8-5.2,2.3-5.2
				c0.7,0,1.3,0.5,1.7,1.4c0.4,1,0.6,2.1,0.6,3.6c0,1.8-0.2,3.1-0.6,3.9C329.1,304.3,328.6,304.7,327.9,304.7L327.9,304.7z
				 M338.7,303.9L338.7,303.9L338.7,303.9L338.7,303.9z"/>
		</g>
		<g class="st31">
			<path d="M358.3,288.9v14.9v0.6h0.6h0.9v5.9h-7.1v-2.2v-1.8l-1.1,1.4c-1.7,2-3.3,3.1-5,3.1c-1.1,0-2.1-0.6-2.9-1.9
				c-0.9-1.4-1.4-4.1-1.4-8v-5.4v-0.6h-0.6h-0.9v-5.9h7.1v10.2c0,1.9,0.1,3.2,0.3,3.9c0.3,0.9,0.9,1.4,1.8,1.4
				c0.9,0,1.8-0.4,2.6-1.3l0.2-0.2v-0.3v-7.3v-0.6h-0.6H351v-5.9L358.3,288.9 M358.9,288.3h-8.6v7.2h1.8v7.3
				c-0.6,0.7-1.4,1.1-2.1,1.1c-0.6,0-1-0.3-1.2-1c-0.2-0.6-0.3-1.9-0.3-3.7v-10.8h-8.4v7.2h1.6v5.4c0,4.1,0.5,6.9,1.5,8.4
				c1,1.5,2.1,2.2,3.5,2.2c1.9,0,3.7-1.1,5.5-3.3v2.9h8.4v-7.2h-1.6V288.3L358.9,288.3z"/>
		</g>
		<g class="st31">
			<path d="M386.2,280.6v7.7v0.6h0.6h2.1v5.9h-2.1h-0.6v0.6v4.4c0,1.5,0.1,2.5,0.3,3.1c0.2,0.8,0.8,1.2,1.5,1.2
				c0.3,0,0.6-0.1,0.9-0.2v5.6c-0.4,0.4-0.9,0.7-1.5,1c-0.8,0.4-1.6,0.5-2.3,0.5c-0.9,0-1.6-0.2-2.2-0.7c-0.7-0.5-1.2-1.2-1.5-2.1
				c-0.2-0.5-0.3-1.1-0.4-1.5c-0.1-0.5-0.2-1-0.2-1.5c-0.1-1-0.1-3-0.1-5.9v-3.8v-0.6h-0.6h-1v-5.9h1h0.6v-0.6v-3.2L386.2,280.6
				 M386.8,279.2l-6.8,5.6v3.5h-1.7v7.2h1.7v3.8c0,3,0,4.9,0.1,6c0,0.6,0.1,1.1,0.2,1.6c0.1,0.5,0.3,1,0.5,1.6
				c0.4,1,0.9,1.8,1.7,2.4c0.7,0.6,1.6,0.9,2.6,0.9c0.8,0,1.7-0.2,2.5-0.6c0.8-0.4,1.5-0.8,1.9-1.4v-7c-0.6,0.5-1.2,0.7-1.6,0.7
				c-0.5,0-0.8-0.2-0.9-0.7c-0.2-0.5-0.2-1.4-0.2-2.9v-4.4h2.7v-7.2h-2.7L386.8,279.2L386.8,279.2z"/>
		</g>
		<g class="st31">
			<path d="M404.6,288.5v8.7c-1.5,0-2.6,0.3-3.4,0.8c-0.8,0.6-1.4,1.4-1.7,2.3c-0.3,0.9-0.4,2.1-0.4,3.5l0,0.6h0.6h1.3l0,5.9h-9.3
				v-5.9h1.1h0.6v-0.6v-8.4v-0.6H393h-1.1v-5.9h6.8v5.1v6.1l1.3-6c0.3-1.3,0.7-2.5,1.3-3.5c0.5-0.9,1.1-1.5,1.6-1.7
				C403.3,288.7,403.9,288.6,404.6,288.5 M405.3,287.9c-1.2,0-2.1,0.1-2.7,0.4c-0.6,0.3-1.3,1-1.9,2c-0.6,1-1.1,2.3-1.4,3.7v-5.7
				h-8.1v7.2h1.8v8.4h-1.8v7.2h10.6h0v-7.2h-2c0-1.4,0.1-2.5,0.4-3.3c0.3-0.8,0.7-1.5,1.4-2c0.7-0.5,1.7-0.7,3.1-0.7
				c0.2,0,0.4,0,0.6,0V287.9L405.3,287.9z"/>
		</g>
		<g class="st31">
			<path d="M412,278.4c0.9,0,1.6,0.3,2.1,0.9c0.6,0.7,0.8,1.5,0.8,2.5c0,1.1-0.3,1.9-0.8,2.5c-0.6,0.6-1.3,0.9-2.2,0.9
				c-0.9,0-1.6-0.3-2.2-0.8c-0.6-0.5-0.9-1.4-0.9-2.5c0-1.1,0.3-1.9,0.9-2.5C410.4,278.7,411.1,278.4,412,278.4 M414.9,288.9v14.9
				v0.6h0.6h0.5v5.9h-8v-5.9h0.7h0.6v-0.6v-8.4v-0.6h-0.6h-0.7v-5.9L414.9,288.9 M412,277.8c-1.1,0-2,0.4-2.7,1.1
				c-0.7,0.8-1.1,1.7-1.1,3c0,1.3,0.4,2.3,1.1,3c0.7,0.7,1.6,1,2.7,1c1.1,0,1.9-0.4,2.6-1.1c0.7-0.7,1-1.7,1-2.9
				c0-1.1-0.3-2.1-1-2.9C414,278.2,413.1,277.8,412,277.8L412,277.8z M415.6,288.3h-8.1v7.2h1.4v8.4h-1.4v7.2h9.3v-7.2h-1.1
				L415.6,288.3L415.6,288.3z"/>
		</g>
		<g class="st31">
			<path d="M428.8,288.3c2.3,0,4.1,1,5.5,3c1.4,1.9,2.1,4.9,2.3,8.9h-9.7h-0.7l0,0.6c0,1.5,0,6.2,3,6.2c1.1,0,2-0.8,2.5-2.4l4.3,0.9
				c-0.2,0.7-0.5,1.4-0.8,1.9c-0.4,0.7-0.9,1.4-1.5,1.9c-1.2,1.1-2.6,1.7-4.2,1.7c-2.9,0-4.9-1-6.4-3c-1.5-2.1-2.2-4.8-2.2-8.2
				c0-3.3,0.7-6.1,2.2-8.3C424.6,289.3,426.4,288.3,428.8,288.3 M426.4,298.5h0.6h3.8h0.6l0-0.6c0-0.5,0-0.8,0-0.8
				c0-1.3-0.2-2.4-0.6-3.3c-0.6-1.3-1.4-1.6-2-1.6c-0.6,0-1.5,0.3-2,1.7c-0.3,1-0.5,2.1-0.5,3.5c0,0.2,0,0.4,0,0.5L426.4,298.5
				 M428.8,287.6c-2.6,0-4.6,1.2-6.1,3.5c-1.5,2.3-2.3,5.2-2.3,8.7c0,3.5,0.8,6.4,2.3,8.6c1.5,2.2,3.8,3.3,6.9,3.3
				c1.8,0,3.4-0.6,4.7-1.8c0.6-0.6,1.2-1.3,1.6-2.1c0.5-0.8,0.8-1.7,1.1-2.7l-5.6-1.2c-0.4,1.7-1.1,2.5-2,2.5
				c-1.6,0-2.4-1.8-2.4-5.5h10.3c-0.1-4.4-0.9-7.7-2.4-9.9C433.3,288.7,431.2,287.6,428.8,287.6L428.8,287.6z M427,297.9
				c0-0.1,0-0.3,0-0.5c0-1.3,0.2-2.4,0.5-3.3c0.3-0.9,0.8-1.3,1.4-1.3c0.6,0,1.1,0.4,1.4,1.2c0.4,0.8,0.5,1.8,0.5,3.1
				c0,0.1,0,0.3,0,0.8H427L427,297.9z"/>
		</g>
		<g class="st31">
			<path d="M446.1,279.1v24.8v0.6h0.6h0.6v5.9h-8.1v-5.9h0.7h0.6v-0.6v-18.3v-0.6H440h-0.7v-5.9L446.1,279.1 M446.8,278.4h-8.2v7.2
				h1.4v18.3h-1.4v7.2h9.4v-7.2h-1.2L446.8,278.4L446.8,278.4z"/>
		</g>
		<g class="st31">
			<path d="M160.1,280.6v7.7v0.6h0.6h2.1v3.3h-2.1h-0.6v0.6v7c0,1.5,0.1,2.5,0.3,3.1c0.2,0.8,0.8,1.2,1.5,1.2c0.3,0,0.6-0.1,0.9-0.2
				v5.6c-0.4,0.4-0.9,0.7-1.5,1c-0.8,0.4-1.6,0.5-2.3,0.5c-0.9,0-1.6-0.2-2.2-0.7c-0.7-0.5-1.2-1.2-1.5-2.1
				c-0.2-0.5-0.3-1.1-0.4-1.5c-0.1-0.5-0.2-1-0.2-1.5c-0.1-1-0.1-3-0.1-5.9v-6.4v-0.6h-0.6h-1v-3.3h1h0.6v-0.6v-3.2L160.1,280.6
				 M160.7,279.2l-6.8,5.6v3.5h-1.7v4.6h1.7v6.4c0,3,0,4.9,0.1,6c0,0.6,0.1,1.1,0.2,1.6c0.1,0.5,0.3,1,0.5,1.6
				c0.4,1,0.9,1.8,1.7,2.4c0.7,0.6,1.6,0.9,2.6,0.9c0.8,0,1.7-0.2,2.5-0.6c0.8-0.4,1.5-0.8,1.9-1.4v-7c-0.6,0.5-1.2,0.7-1.6,0.7
				c-0.5,0-0.8-0.2-0.9-0.7c-0.2-0.5-0.2-1.4-0.2-2.9v-7h2.7v-4.6h-2.7L160.7,279.2L160.7,279.2z"/>
		</g>
		<g class="st31">
			<path d="M249.9,288.5v5.8c-1.2,0-2.2,1-2.8,1.7c-0.2,0.2-0.4,0.4-0.6,0.5c-0.7,0.5-1.1,1.8-1.5,3.3c-0.1,0.2-0.1,0.4-0.2,0.5
				c-0.3,1-0.4,3.3-0.4,4.6l0,0.6h0.7h1.3v4.8h-9.3v-4.8h1.1h0.6v-0.6v-11.9v-0.6h-0.6h-1.1v-3.5h6.8v5.1v6.1l1.3-5.9
				c0.3-1.3,0.7-2.5,1.3-3.5c0.5-0.9,1.1-1.5,1.6-1.7C248.5,288.7,249.1,288.6,249.9,288.5 M250.5,287.9c-1.2,0-2.1,0.1-2.7,0.4
				c-0.6,0.3-1.3,1-1.9,2c-0.6,1-1.1,2.3-1.4,3.7v-5.7h-8.1v4.8h1.8v11.9h-1.8v6.1H247h0v-6.1h-2c0-1.4,0.1-3.5,0.4-4.4
				c0.3-0.8,0.7-3,1.4-3.5c0.7-0.5,1.7-2.1,3.1-2.1c0.2,0,0.4,0,0.6,0L250.5,287.9L250.5,287.9z"/>
		</g>
		<g class="st31">
			<path d="M367.4,288.5c1.5,0,2.6,0.5,3.6,1.4l1.1,1.1v-1.5v-0.5h2.9v5.3h-2.8c-1-1.6-2.3-2.4-3.8-2.4c-1.4,0-2.2,0.8-2.2,2.1
				c0,1,0.5,1.3,0.8,1.5c0.2,0.1,0.7,0.3,2.7,1c1.6,0.6,2.9,1.2,3.8,1.8c0.8,0.5,1.5,1.3,1.9,2.1c0.4,0.9,0.6,2.1,0.6,3.4
				c0,2.4-0.5,4.3-1.5,5.4c-1,1.1-2.2,1.6-3.7,1.6c-1.5,0-2.7-0.5-3.7-1.4l-1.1-1v1.5v0.8H363v-5.9h2.9c1.1,1.8,2.3,2.8,3.7,2.8
				c2.2,0,2.5-1.4,2.5-1.9c0-0.6-0.2-1.1-0.6-1.5c-0.2-0.2-0.7-0.5-2.3-1.2c-0.9-0.4-2-0.9-3.1-1.5c-0.9-0.4-1.6-1-2.1-1.7
				c-0.5-0.7-0.9-1.3-1.1-1.9c-0.2-0.6-0.3-1.5-0.3-2.6c0-2.3,0.5-4.1,1.4-5.1C364.9,289,366,288.5,367.4,288.5 M367.4,287.9
				c-1.6,0-2.9,0.6-3.9,1.8c-1,1.2-1.5,3-1.5,5.6c0,1.1,0.1,2.1,0.3,2.8c0.2,0.7,0.6,1.4,1.2,2.2c0.6,0.7,1.3,1.3,2.3,1.8
				c1.1,0.6,2.2,1.1,3.1,1.5c1.2,0.5,1.9,0.9,2.1,1.1c0.3,0.2,0.4,0.6,0.4,1c0,0.9-0.6,1.3-1.8,1.3c-1.2,0-2.3-0.9-3.3-2.8h-3.9v7.2
				h4.2v-1.4c1.1,1,2.5,1.5,4.1,1.5c1.6,0,3-0.6,4.1-1.9c1.1-1.2,1.7-3.2,1.7-5.8c0-1.5-0.2-2.7-0.7-3.7c-0.5-1-1.2-1.8-2.1-2.4
				c-0.9-0.6-2.2-1.2-3.9-1.8c-1.5-0.5-2.3-0.9-2.6-1c-0.3-0.1-0.5-0.4-0.5-0.9c0-1,0.5-1.4,1.6-1.4c1.3,0,2.4,0.8,3.4,2.4h3.8v-6.6
				h-4.1v1.2C370.4,288.4,369,287.9,367.4,287.9L367.4,287.9z"/>
		</g>
	</g>
</g>
</svg>
