<?xml version="1.0" encoding="utf-8"?>
<!-- Generator: Adobe Illustrator 19.1.0, SVG Export Plug-In . SVG Version: 6.00 Build 0)  -->
<svg version="1.1" id="Calque_1" xmlns="http://www.w3.org/2000/svg" xmlns:xlink="http://www.w3.org/1999/xlink" x="0px" y="0px"
	 viewBox="0 0 500 500" style="enable-background:new 0 0 500 500;" xml:space="preserve">
<style type="text/css">
	.st0{fill:#3C4897;}
	.st1{fill:#FDFCF1;}
	.st2{fill:#E63232;}
	.st3{fill:#3F4092;}
	.st4{fill:#FFFFFF;}
	.st5{fill:#3D4797;}
</style>
<g>
	<path class="st0" d="M84,175l83.8-27.9l18.2,48.5c0,0-46.4,9-74.9,20.3C97.1,195,84,175,84,175z"/>
	<path class="st0" d="M200.5,144.1h108.6L292.7,191c0,0-43.8-5-77,0.5C208.9,169.7,200.5,144.1,200.5,144.1z"/>
	<path class="st0" d="M339.9,147L322,195.8c0,0,49.3,8.7,69.8,19.5c15.8-25.8,29-46.4,29-46.4L339.9,147z"/>
	<path class="st1" d="M129.8,163.2c0,0-6.5,28-7.5,32.9c-1,4.9-1.4,4.7-3.6,10c1.5-0.9,12.8-3.4,12.8-3.4c-1.9-2.6,0-11.9,0-11.9
		s14.5-3.6,20-4.8c2.9,1.5,8.9,5.8,11.1,9.6c4.4-1.8,13.2-3.1,13.2-3.1C168.2,188.9,129.8,163.2,129.8,163.2z M133,185.9l2.1-10.9
		l10.6,7.4L133,185.9z"/>
	<path class="st1" d="M282.2,184.3c0,0-18.1-9.8-23.9-15c10.4-3,14-5.8,14-9.8c0-3.2-8.2-9.6-22.4-9.6c-14.2,0-23.4,0-23.4,0
		s2.4,2.2,2.4,4.6s0,25.3,0,25.3s-0.9,3.6-1.5,4.6c8.4,0,15.9,0,15.9,0s-2.1-2.2-2.1-4.5c0-2.3-0.3-11.4-0.3-11.4
		s22.6,13.3,30.6,15.7C279.7,184.2,282.2,184.3,282.2,184.3z M240.9,167.3v-14.5c0,0,19.8-0.1,19.5,6.9
		C260,166.7,240.9,167.3,240.9,167.3z"/>
	<path class="st1" d="M349.1,161.8l6.8-5.7c0,0,41,12.6,44.8,13.3c-4.1,2.7-7.2,4.9-7.2,4.9s-6.3-5.3-14.2-6.8
		c-5.6,8.9-15.6,25.3-16.6,26.8c-1,1.5-1.2,5.3-1.2,5.3s-10.1-4.2-13.8-4.5c5.5-2.5,18.1-18.4,22.6-29.8
		C364.5,163.5,355.4,161.8,349.1,161.8z"/>
	<path class="st2" d="M249.2,203.4c57.5,0,131.8,23.2,131.8,23.2l-4.5,8.2H130.6l-5.3-8.4C125.3,226.4,191.8,203.4,249.2,203.4"/>
	<path class="st3" d="M380.6,241.6H126.8l-11.8-19l8.1-2.8c2.8-1,68.2-23.3,126.1-23.3c57.9,0,130.8,22.5,133.8,23.5l8,2.5
		L380.6,241.6z M127.4,240.6H380l9.5-17.4l-6.8-2.1c-3.1-1-75.8-23.5-133.5-23.5c-57.7,0-123,22.3-125.8,23.2l-6.9,2.4L127.4,240.6z
		"/>
	<path class="st2" d="M406.6,287.5c0,14-11.3,25.3-25.3,25.3H121.9c-14,0-25.3-11.3-25.3-25.3v-12.7c0-14,11.3-25.3,25.3-25.3h259.4
		c14,0,25.3,11.3,25.3,25.3L406.6,287.5L406.6,287.5z"/>
	<rect x="18.7" y="279.6" class="st2" width="70.3" height="3.5"/>
	<rect x="414.4" y="279.6" class="st2" width="70.3" height="3.5"/>
	<g>
		<path class="st4" d="M157.7,256.3h-13.2c-1.3,0-2.4,0.5-3.3,1.4c-0.9,0.9-1.4,2-1.4,3.3v39.6c0,1.3,0.5,2.4,1.4,3.3
			c0.9,0.9,2,1.4,3.3,1.4h13.2c6.8,0,12.6-2.4,17.3-7.1c4.8-4.8,7.1-10.5,7.1-17.3c0-6.8-2.4-12.6-7.1-17.3
			C170.3,258.7,164.5,256.3,157.7,256.3z M166,289.6c-2.3,2.4-5,3.6-8.2,3.6h-6.5v-24.8h6.5c3.2,0,5.9,1.2,8.2,3.6
			c2.3,2.4,3.4,5.3,3.4,8.8C169.4,284.2,168.2,287.1,166,289.6z"/>
		<path class="st4" d="M212.8,295.9h-17.3v-10.5h12.9c1.4,0,2.5-0.4,3.4-1.3c0.9-0.9,1.3-2,1.3-3.4c0-1.4-0.4-2.5-1.3-3.4
			c-0.9-0.9-2-1.3-3.4-1.3h-12.9v-10.4h17.3c1.4,0,2.5-0.4,3.4-1.3c0.9-0.9,1.3-2,1.3-3.4c0-1.4-0.4-2.5-1.3-3.4
			c-0.9-0.9-2-1.3-3.4-1.3h-22c-1.3,0-2.3,0.5-3.3,1.4s-1.4,2-1.4,3.3v39.6c0,1.3,0.5,2.3,1.4,3.3s2,1.4,3.3,1.4l21.9,0
			c1.4,0,2.5-0.4,3.4-1.3c0.9-0.9,1.3-2,1.3-3.4c0-1.4-0.4-2.5-1.3-3.4C215.3,296.4,214.2,295.9,212.8,295.9z"/>
		<path class="st4" d="M232.5,273.9c-1.2,0-2.2-0.4-3.1-1.3c-0.8-0.8-1.3-1.9-1.3-3.1c0-1.2,0.4-2.2,1.3-3.1
			c0.8-0.8,1.9-1.3,3.1-1.3c1.2,0,2.5,0.8,3.9,2.3c1.4,1.6,2.7,2.3,4,2.3c1.4,0,2.6-0.5,3.6-1.4c1-1,1.6-2.1,1.6-3.4
			c0-0.8-0.3-1.7-0.8-2.6c-1.1-2.1-2.8-3.8-5.1-5.1c-2.3-1.3-4.7-1.9-7.1-1.9c-4,0-7.3,1.4-10.1,4.1c-2.8,2.8-4.1,6.1-4.1,10.1
			c0,3.9,1.4,7.3,4.1,10c2.8,2.8,6.1,4.2,10,4.2c1.9,0,3.4,0.6,4.7,1.9c1.3,1.3,1.9,2.9,1.9,4.7c0,1.8-0.6,3.4-1.9,4.7
			c-1.3,1.3-2.9,1.9-4.7,1.9c-1.9,0-3.7-1-5.4-2.9c-1.7-2-3.2-2.9-4.4-2.9c-1.4,0-2.6,0.5-3.6,1.4c-1.1,0.9-1.6,2.1-1.6,3.5
			c0,0.8,0.2,1.6,0.7,2.6c1.3,2.5,3.3,4.5,6,6.1c2.6,1.5,5.4,2.2,8.3,2.2c4.6,0,8.5-1.6,11.7-4.8c3.2-3.2,4.8-7.1,4.8-11.7
			c0-4.6-1.6-8.5-4.8-11.7C241,275.5,237.1,273.9,232.5,273.9z"/>
		<path class="st4" d="M261,256.3c-1.4,0-2.5,0.5-3.4,1.4c-0.9,0.9-1.3,2-1.3,3.5v40.5c0,1.4,0.4,2.6,1.3,3.5c0.9,0.9,2,1.4,3.4,1.4
			c1.4,0,2.5-0.5,3.4-1.4c0.9-0.9,1.3-2,1.3-3.5v-40.5c0-1.4-0.4-2.6-1.3-3.5C263.4,256.8,262.3,256.3,261,256.3z"/>
		<path class="st4" d="M317.9,280.6c-0.4-2.2-2.2-3.9-4.3-3.9h-15.8c-2.4,0-4.4,2.2-4.4,4.9c0,2.7,1.9,4.9,4.4,4.9h8
			c-0.3,8.7-6.7,10.1-10.2,10.1c-4.3,0-7.9-1.5-10.9-4.5c-3-3-4.5-6.6-4.5-10.9c0-4.3,1.5-7.9,4.5-10.9c3-3,6.6-4.5,10.9-4.5
			c3.5,0,6.6,1.1,9.4,3.2c0.7,0.6,1.2,1.1,1.5,1.3c1.1,1,2.3,1.5,3.3,1.5c1.3,0,2.4-0.5,3.4-1.5c1-1,1.5-2.1,1.5-3.4
			c0-1.6-1.2-3.4-3.6-5.3c-4.6-3.6-9.7-5.4-15.5-5.4c-6.9,0-12.8,2.4-17.6,7.3c-4.9,4.9-7.3,10.7-7.3,17.6s2.4,12.8,7.3,17.6
			c4.9,4.9,10.7,7.3,17.6,7.3c5.7,0,11.5-1,15.5-5.4c4.8-5.4,6.4-9.8,6.4-16.9c0.3-0.7,0.5-1.5,0.5-2.3c0-0.1,0-0.3,0-0.4l0-0.2
			C318,280.8,318,280.7,317.9,280.6z"/>
		<path class="st4" d="M362.7,257.6c-0.9-0.9-2-1.3-3.4-1.3c-1.4,0-2.5,0.4-3.4,1.3c-0.9,0.9-1.3,2-1.3,3.4v25.9l-22.4-28.2
			c-1.3-1.6-2.7-2.4-4.1-2.4c-1.4,0-2.5,0.5-3.5,1.4c-1,0.9-1.4,2-1.4,3.4v39.6c0,1.4,0.4,2.5,1.3,3.4c0.9,0.9,2,1.3,3.4,1.3
			c1.4,0,2.5-0.4,3.4-1.3c0.9-0.9,1.4-2,1.4-3.4v-25.9l22.4,28.2c1.3,1.7,2.7,2.5,4.1,2.5c1.4,0,2.5-0.5,3.5-1.4
			c0.9-0.9,1.4-2,1.4-3.4V261C364,259.6,363.6,258.5,362.7,257.6z"/>
	</g>
	<g>
		<g>
			<path class="st5" d="M151.2,339.4c0,1-0.1,2.1-0.3,3.1c-0.2,1-0.5,2.1-1,3.1c-0.5,1-1.1,2-1.8,3c-0.8,0.9-1.7,1.8-2.8,2.5
				c-1,0.7-2,1.2-3.2,1.5c-1.1,0.3-2.2,0.5-3.2,0.6c-1,0.1-2.2,0.1-3.5,0.1h-8.9l0.5-1.6c0.8,0,1.4-0.2,1.7-0.7
				c0.3-0.5,0.6-1.1,0.9-2l4.3-14.7c0.2-0.7,0.3-1.3,0.3-1.5c0-0.7-0.2-1.1-0.6-1.3c-0.4-0.2-0.9-0.3-1.5-0.3l0.4-1.6h7.9
				c1.3,0,2.4,0.1,3.4,0.2c1,0.2,1.9,0.5,2.9,1.1c1.8,1.1,3,2.4,3.6,4C150.9,336.3,151.2,337.9,151.2,339.4z M146.4,337.8
				c0-1.4-0.2-2.6-0.6-3.5c-0.4-0.9-0.9-1.6-1.4-2c-0.6-0.4-1.2-0.7-2-0.9c-0.7-0.1-1.5-0.2-2.3-0.2h-0.8l-4.9,17.1
				c-0.2,0.8-0.3,1.3-0.3,1.5c0,1.1,0.9,1.7,2.8,1.7c2,0,3.6-0.6,4.9-1.7c1.3-1.2,2.3-2.7,3.1-4.6c0.6-1.4,1-2.8,1.2-4.2
				C146.3,339.6,146.4,338.5,146.4,337.8z"/>
			<path class="st5" d="M166.7,329.5l-0.5,1.6c-0.5,0-0.8,0.1-1.1,0.3c-0.3,0.2-0.5,0.5-0.7,0.8c-0.2,0.4-0.4,0.9-0.6,1.5l-4.2,14.6
				c-0.2,0.7-0.3,1.2-0.3,1.5c0,0.6,0.2,1,0.7,1.3c0.5,0.3,1,0.4,1.6,0.4l-0.4,1.6h-9.3l0.5-1.6c0.8,0,1.4-0.2,1.7-0.7
				s0.6-1.1,0.9-2l4.2-14.6c0.2-0.7,0.3-1.2,0.3-1.5c0-0.7-0.2-1.1-0.6-1.3c-0.4-0.2-0.8-0.3-1.3-0.4l0.5-1.6L166.7,329.5
				L166.7,329.5z"/>
			<path class="st5" d="M184.6,329.5l-1,7.1H182c-0.1-0.8-0.3-1.7-0.6-2.5c-0.3-0.8-0.7-1.6-1.4-2.3c-0.7-0.7-1.7-1-2.9-1
				c-1,0-1.8,0.3-2.5,0.9c-0.7,0.6-1,1.3-1,2.3c0,0.7,0.1,1.3,0.5,1.8c0.3,0.6,0.7,1.2,1.2,1.7c0.5,0.6,1.2,1.2,1.9,1.8
				c1.4,1.3,2.4,2.4,3.2,3.5c0.7,1.1,1.1,2.3,1.1,3.7c0,1.2-0.3,2.3-0.9,3.4c-0.6,1.1-1.4,2-2.5,2.7c-1.1,0.7-2.4,1-3.9,1
				c-0.6,0-1.3-0.1-1.9-0.3c-0.6-0.2-1.3-0.5-1.8-0.8c-0.6-0.4-1.2-0.9-1.7-1.5c-0.3,0.3-0.6,0.9-1.1,2h-1.6l1.1-8.3h1.6
				c0,1.3,0.2,2.4,0.6,3.4c0.4,0.9,0.8,1.7,1.4,2.2c0.6,0.6,1.2,0.9,1.8,1.2c0.6,0.2,1.2,0.4,1.8,0.4c0.6,0,1.2-0.2,1.7-0.5
				c0.5-0.3,0.9-0.7,1.2-1.3c0.3-0.5,0.4-1.1,0.4-1.8c0-0.6-0.1-1.2-0.3-1.7c-0.2-0.5-0.6-1-1-1.5c-0.4-0.5-1.2-1.3-2.3-2.4
				c-1.4-1.4-2.4-2.6-3-3.6c-0.6-1-0.8-2-0.8-3.1c0-1.2,0.3-2.4,1-3.5c0.6-1.1,1.5-1.9,2.5-2.6c1.1-0.6,2.2-1,3.4-1
				c1.8,0,3.4,0.8,4.9,2.3c0.1-0.1,0.2-0.2,0.3-0.4s0.2-0.3,0.4-0.6c0.1-0.2,0.3-0.5,0.4-0.9L184.6,329.5L184.6,329.5z"/>
			<path class="st5" d="M209.6,329.5l-2,6.8h-1.6c0.1-0.6,0.1-1.1,0.1-1.6c0-1.5-0.3-2.5-0.9-2.9c-0.6-0.4-1.4-0.6-2.4-0.6h-2
				l-5,17.2c-0.2,0.7-0.3,1.2-0.3,1.5c0,0.7,0.2,1.1,0.7,1.3c0.5,0.2,0.9,0.3,1.4,0.3h0.8l-0.5,1.6H187l0.4-1.6h0.5
				c1.1,0,1.9-0.2,2.3-0.5c0.4-0.3,0.7-1,1-2.1l5.1-17.8h-1.2h-0.5c-1.1,0-2.2,0.3-3.3,0.9c-1,0.6-2,2-2.9,4.1H187l2-6.8
				L209.6,329.5L209.6,329.5z"/>
			<path class="st5" d="M229.9,335.5c0,0.6-0.1,1.3-0.3,2c-0.2,0.7-0.6,1.4-1.2,2c-0.6,0.7-1.3,1.2-2.3,1.7c-1,0.5-2.3,0.8-3.8,0.9
				c0.6,0.5,1,1,1.3,1.6c0.3,0.6,0.7,1.6,1.1,2.9c0.3,1,0.6,1.8,0.9,2.5c0.3,0.6,0.7,1.2,1.2,1.6c0.5,0.5,1.3,0.8,2.2,0.9l-0.5,1.6
				h-5.8c-0.3-0.4-0.6-1-0.9-1.6c-0.3-0.6-0.7-1.8-1.3-3.5l-0.7-2c-0.3-1.1-0.6-1.8-0.8-2.3c-0.2-0.4-0.5-0.8-1-1
				c-0.4-0.2-1.1-0.4-2-0.4h-0.9l-1.7,6c-0.2,0.7-0.3,1.2-0.3,1.5c0,0.7,0.3,1.2,0.8,1.4c0.5,0.2,1.2,0.3,2,0.3l-0.5,1.6h-10.2
				l0.5-1.6c0.6,0,1.1-0.1,1.4-0.2c0.3-0.2,0.6-0.4,0.9-0.8c0.2-0.4,0.4-0.9,0.6-1.6l4.3-14.8c0.2-0.7,0.3-1.2,0.3-1.4
				c0-0.6-0.2-1-0.6-1.2c-0.4-0.3-0.8-0.4-1.3-0.4h-0.6l0.4-1.6h10.6c1.2,0,2.1,0.1,2.9,0.2c0.8,0.1,1.5,0.4,2.2,0.8
				c0.9,0.5,1.6,1.1,2.1,2C229.6,333.3,229.9,334.3,229.9,335.5z M225.3,334.9c0-1.6-0.5-2.6-1.4-3c-1-0.4-2.1-0.6-3.4-0.6h-2
				l-2.7,9.4h1.7c2.5,0,4.2-0.3,5.1-0.9c0.9-0.5,1.5-1.2,2-2.1C225,336.8,225.3,335.8,225.3,334.9z"/>
			<path class="st5" d="M245,329.5l-0.5,1.6c-0.5,0-0.8,0.1-1.1,0.3c-0.3,0.2-0.5,0.5-0.7,0.8c-0.2,0.4-0.4,0.9-0.6,1.5l-4.2,14.6
				c-0.2,0.7-0.3,1.2-0.3,1.5c0,0.6,0.2,1,0.7,1.3c0.5,0.3,1,0.4,1.6,0.4l-0.4,1.6h-9.3l0.5-1.6c0.8,0,1.4-0.2,1.7-0.7
				c0.3-0.5,0.6-1.1,0.9-2l4.2-14.6c0.2-0.7,0.3-1.2,0.3-1.5c0-0.7-0.2-1.1-0.6-1.3c-0.4-0.2-0.8-0.3-1.3-0.4l0.5-1.6L245,329.5
				L245,329.5z"/>
			<path class="st5" d="M265.1,334.6c0,0.9-0.3,1.8-0.8,2.7c-0.5,0.8-1.3,1.6-2.4,2.2c-1,0.6-2.3,1-3.7,1.2c3,1,4.5,2.9,4.5,5.6
				c0,1.3-0.3,2.4-1,3.4c-0.7,1-1.5,1.8-2.5,2.3c-0.6,0.4-1.3,0.6-2.1,0.8c-0.7,0.2-1.4,0.3-2.1,0.3c-0.6,0-1.4,0.1-2.1,0.1h-9.8
				l0.5-1.6c0.8,0,1.3-0.2,1.6-0.7c0.3-0.4,0.6-1.1,0.9-2l4.3-14.8c0.2-0.6,0.3-1,0.3-1.3c0-1.1-0.6-1.7-1.9-1.7l0.4-1.6h9
				c1,0,1.8,0.1,2.4,0.2c0.7,0.1,1.3,0.4,2,0.8c0.7,0.4,1.3,1,1.8,1.8C264.8,332.9,265.1,333.7,265.1,334.6z M258.1,344.5
				c0-1.2-0.3-2-0.8-2.3c-0.6-0.3-1.3-0.5-2.2-0.5h-2.3l-2,6.8c-0.2,0.6-0.3,1.1-0.3,1.5c0,0.4,0.2,0.8,0.6,1.1c0.4,0.3,1,0.5,2,0.5
				c0.7,0,1.4-0.2,2.1-0.5c0.7-0.3,1.3-1.1,1.9-2.3c0.3-0.6,0.5-1.3,0.7-2C258,345.9,258.1,345.1,258.1,344.5z M260.7,333.6
				c0-1-0.3-1.7-0.9-2c-0.6-0.3-1.5-0.4-2.7-0.4h-1.3l-2.5,8.7h1.5c0.9,0,1.7-0.1,2.4-0.4c0.7-0.3,1.2-0.6,1.5-0.9
				c0.5-0.5,1-1.3,1.4-2.3C260.5,335.2,260.7,334.3,260.7,333.6z"/>
			<path class="st5" d="M291.8,329.5l-0.5,1.6c-0.8,0.1-1.5,0.3-2,0.6s-0.9,0.7-1.2,1.3c-0.3,0.5-0.6,1.2-0.8,2l-2.6,10
				c-0.3,1.1-0.6,2.1-0.9,3c-0.4,0.9-0.9,1.8-1.5,2.7c-0.7,0.9-1.6,1.6-2.7,2.2c-1.1,0.6-2.6,0.9-4.2,0.9c-1.5,0-2.8-0.2-4-0.7
				c-1.2-0.5-2.1-1.1-2.8-2c-0.7-0.9-1-1.8-1-2.9c0-0.5,0.1-1.1,0.2-1.6c0.1-0.6,0.3-1.2,0.5-2l2.9-10.1c0.2-0.8,0.3-1.3,0.3-1.6
				c0-0.7-0.2-1.1-0.7-1.3c-0.5-0.2-1-0.3-1.6-0.3l0.5-1.6h10.2l-0.5,1.6c-0.8,0-1.4,0.1-1.8,0.2c-0.4,0.1-0.7,0.4-1,0.7
				c-0.2,0.4-0.5,0.9-0.7,1.7l-3.5,12c-0.3,1.2-0.5,2.1-0.5,2.7c0,1,0.4,1.9,1.2,2.5c0.8,0.6,1.8,0.9,2.9,0.9c1.2,0,2.2-0.2,3-0.7
				c0.8-0.5,1.5-1.1,2-1.8c0.5-0.7,0.9-1.5,1.2-2.2c0.3-0.7,0.5-1.5,0.7-2.2l2.8-10.4c0.2-0.6,0.2-1,0.2-1.3c0-0.9-0.3-1.4-0.9-1.7
				c-0.6-0.3-1.2-0.4-2-0.4l0.5-1.6L291.8,329.5L291.8,329.5z"/>
			<path class="st5" d="M314,329.5l-2,6.8h-1.6c0.1-0.6,0.1-1.1,0.1-1.6c0-1.5-0.3-2.5-0.9-2.9c-0.6-0.4-1.4-0.6-2.4-0.6h-2l-5,17.2
				c-0.2,0.7-0.3,1.2-0.3,1.5c0,0.7,0.2,1.1,0.7,1.3c0.5,0.2,0.9,0.3,1.4,0.3h0.8l-0.5,1.6h-11.1l0.4-1.6h0.5c1.1,0,1.9-0.2,2.3-0.5
				c0.4-0.3,0.7-1,1-2.1l5.1-17.8h-1.2h-0.5c-1.1,0-2.2,0.3-3.3,0.9c-1,0.6-2,2-2.9,4.1h-1.6l2-6.8L314,329.5L314,329.5z"/>
			<path class="st5" d="M325.1,329.5l-0.5,1.6c-0.5,0-0.8,0.1-1.1,0.3c-0.3,0.2-0.5,0.5-0.7,0.8c-0.2,0.4-0.4,0.9-0.6,1.5l-4.2,14.6
				c-0.2,0.7-0.3,1.2-0.3,1.5c0,0.6,0.2,1,0.7,1.3c0.5,0.3,1,0.4,1.6,0.4l-0.4,1.6h-9.3l0.5-1.6c0.8,0,1.4-0.2,1.7-0.7
				c0.3-0.5,0.6-1.1,0.9-2l4.2-14.6c0.2-0.7,0.3-1.2,0.3-1.5c0-0.7-0.2-1.1-0.6-1.3c-0.4-0.2-0.8-0.3-1.3-0.4l0.5-1.6L325.1,329.5
				L325.1,329.5z"/>
			<path class="st5" d="M349.7,338.8c0,1.6-0.3,3.3-1,5c-0.7,1.7-1.7,3.3-3,4.8c-1.3,1.5-2.8,2.7-4.6,3.6c-1.8,0.9-3.8,1.4-5.9,1.4
				c-2.3,0-4.1-0.5-5.6-1.5c-1.4-1-2.5-2.2-3.1-3.7c-0.6-1.5-0.9-3-0.9-4.5c0-2.3,0.6-4.6,1.8-6.9c1.2-2.3,3-4.3,5.2-5.8
				c2.2-1.5,4.8-2.3,7.6-2.3c2.2,0,4,0.5,5.4,1.4c1.4,1,2.4,2.2,3.1,3.7C349.4,335.6,349.7,337.2,349.7,338.8z M345.1,336.5
				c0-3.9-1.7-5.8-5-5.8c-0.9,0-1.7,0.2-2.6,0.5c-0.8,0.3-1.6,0.9-2.3,1.6c-0.7,0.7-1.4,1.7-2,2.8c-0.8,1.6-1.5,3.4-2.1,5.4
				c-0.6,2-0.9,3.8-0.9,5.5c0,3.7,1.6,5.6,4.9,5.6c1.8,0,3.4-0.6,4.7-1.8c1.3-1.2,2.4-2.9,3.3-5.1
				C344.4,341.7,345.1,338.8,345.1,336.5z"/>
			<path class="st5" d="M377.8,329.5l-0.4,1.6c-0.9,0.1-1.6,0.4-2.1,0.8c-0.5,0.5-1,1.5-1.5,3.2l-5.3,18.3h-2.1l-7.6-17.8l-3.5,12.1
				c-0.2,0.8-0.3,1.4-0.3,1.8c0,0.8,0.3,1.3,0.9,1.6c0.6,0.3,1.2,0.5,1.9,0.5l-0.5,1.6h-7.5l0.5-1.6c1-0.2,1.8-0.6,2.3-1.4
				c0.5-0.8,0.9-1.8,1.2-3l4-14l-0.4-0.6c-0.4-0.6-0.7-1-1-1.2c-0.3-0.1-1-0.2-1.9-0.2l0.5-1.6h6.1l7.5,17.7l3.2-11.1
				c0.1-0.2,0.2-0.5,0.3-0.9c0.1-0.4,0.2-0.7,0.3-1c0.1-0.3,0.1-0.6,0.1-0.9c0-0.5-0.2-1-0.6-1.5c-0.4-0.5-1.1-0.7-2.2-0.7l0.5-1.6
				L377.8,329.5L377.8,329.5z"/>
		</g>
	</g>
</g>
</svg>
