<?xml version="1.0" encoding="utf-8"?>
<!-- Generator: Adobe Illustrator 21.0.2, SVG Export Plug-In . SVG Version: 6.00 Build 0)  -->
<svg version="1.1" id="Calque_1" xmlns="http://www.w3.org/2000/svg" xmlns:xlink="http://www.w3.org/1999/xlink" x="0px" y="0px"
	 viewBox="0 0 500 402" style="enable-background:new 0 0 500 402;" xml:space="preserve">
<style type="text/css">
	.st0{fill:#CE4041;}
</style>
<path class="st0" d="M124.1,218.2c26.3,0,47.7-21.9,47.7-49s-21.4-49-47.7-49s-47.7,21.9-47.7,49C76.4,196.2,97.8,218.2,124.1,218.2
	"/>
<path class="st0" d="M215.8,123.2h100.1l-69.7,145.6c0,0-11.8,31.5-45.5,32.6s-52.3-27-54-38.8L215.8,123.2"/>
<path class="st0" d="M336.4,124.1h100.1L324.6,352.9c0,0-11.8,31.5-45.5,32.6s-52.3-27-54-38.8L336.4,124.1"/>
<polyline points="52.4,60.6 52.6,60.6 67.2,15.7 81.6,15.7 95.3,60.6 95.5,60.6 108.6,15.7 127.4,15.7 105.2,85.3 86.7,85.3 
	74.5,45 74.3,45 60.7,85.3 42.3,85.3 21.5,15.7 40.3,15.7 52.4,60.6 "/>
<rect x="143" y="15.7" width="18.1" height="69.6"/>
<path d="M202.1,70h4.1c10.8,0,20-5.9,20-19.5C226.2,38,218,31,206.3,31h-4.2V70 M184,15.7h25.7c19.4,0,35.4,15.2,35.4,34.8
	S229,85.3,209.7,85.3H184V15.7z"/>
<polyline points="268.5,15.7 286.3,15.7 300.4,52.9 315.4,15.7 333.4,15.7 343.9,85.3 325.8,85.3 320.7,45.2 320.5,45.2 303.8,85.3 
	296.6,85.3 280.7,45.2 280.5,45.2 274.7,85.3 256.7,85.3 268.5,15.7 "/>
<polyline points="380.7,31 380.7,42.6 401.1,42.6 401.1,58 380.7,58 380.7,70 402.2,70 402.2,85.3 362.6,85.3 362.6,15.7 
	402.2,15.7 402.2,31 380.7,31 "/>
<path d="M442.6,46.9h1.8c5.9,0,12.6-1.1,12.6-8.7s-6.6-8.7-12.6-8.7h-1.8V46.9 M482.3,85.3h-22.5l-17.1-26.8h-0.2v26.8h-18.1V15.7
	h27c13.8,0,24.2,6.5,24.2,21.4c0,9.6-5.4,17.9-15.2,19.7L482.3,85.3z"/>
</svg>
