<?xml version="1.0" encoding="utf-8"?>
<!-- Generator: Adobe Illustrator 19.1.0, SVG Export Plug-In . SVG Version: 6.00 Build 0)  -->
<svg version="1.1" id="Calque_1" xmlns="http://www.w3.org/2000/svg" xmlns:xlink="http://www.w3.org/1999/xlink" x="0px" y="0px"
	 viewBox="0 0 500 500" style="enable-background:new 0 0 500 500;" xml:space="preserve">
<style type="text/css">
	.st0{fill:#CE4041;}
</style>
<path class="st0" d="M124.1,267.2c26.3,0,47.7-21.9,47.7-49c0-27.1-21.4-49-47.7-49c-26.3,0-47.7,21.9-47.7,49
	C76.4,245.2,97.8,267.2,124.1,267.2"/>
<path class="st0" d="M215.8,172.2h100.1l-69.7,145.6c0,0-11.8,31.5-45.5,32.6c-33.7,1.1-52.3-27-54-38.8L215.8,172.2"/>
<path class="st0" d="M336.4,173.1h100.1L324.6,401.9c0,0-11.8,31.5-45.5,32.6c-33.7,1.1-52.3-27-54-38.8L336.4,173.1"/>
<polyline points="52.4,109.6 52.6,109.6 67.2,64.7 81.6,64.7 95.3,109.6 95.5,109.6 108.6,64.7 127.4,64.7 105.2,134.3 86.7,134.3 
	74.5,94 74.3,94 60.7,134.3 42.3,134.3 21.5,64.7 40.3,64.7 52.4,109.6 "/>
<rect x="143" y="64.7" width="18.1" height="69.6"/>
<path d="M202.1,119h4.1c10.8,0,20-5.9,20-19.5C226.2,87,218,80,206.3,80h-4.2L202.1,119 M184,64.7h25.7c19.4,0,35.4,15.2,35.4,34.8
	s-16.1,34.8-35.4,34.8H184V64.7z"/>
<polyline points="268.5,64.7 286.3,64.7 300.4,101.9 315.4,64.7 333.4,64.7 343.9,134.3 325.8,134.3 320.7,94.2 320.5,94.2 
	303.8,134.3 296.6,134.3 280.7,94.2 280.5,94.2 274.7,134.3 256.7,134.3 268.5,64.7 "/>
<polyline points="380.7,80 380.7,91.6 401.1,91.6 401.1,107 380.7,107 380.7,119 402.2,119 402.2,134.3 362.6,134.3 362.6,64.7 
	402.2,64.7 402.2,80 380.7,80 "/>
<path d="M442.6,95.9h1.8c5.9,0,12.6-1.1,12.6-8.7c0-7.6-6.6-8.7-12.6-8.7h-1.8V95.9 M482.3,134.3h-22.5l-17.1-26.8h-0.2v26.8h-18.1
	V64.7h27c13.8,0,24.2,6.5,24.2,21.4c0,9.6-5.4,17.9-15.2,19.7L482.3,134.3z"/>
</svg>
