<?xml version="1.0" encoding="utf-8"?>
<!-- Generator: Adobe Illustrator 19.1.0, SVG Export Plug-In . SVG Version: 6.00 Build 0)  -->
<svg version="1.1" id="Calque_1" xmlns="http://www.w3.org/2000/svg" xmlns:xlink="http://www.w3.org/1999/xlink" x="0px" y="0px"
	 viewBox="0 0 500 500" style="enable-background:new 0 0 500 500;" xml:space="preserve">
<style type="text/css">
	.st0{fill:#0D0802;}
	.st1{fill:#004530;}
</style>
<g>
	<g>
		<path class="st0" d="M148.1,308.1c0.6,0,1.1-0.4,1.2-1l16.4-74.6c0.1-0.4,0-0.7-0.2-1c-0.2-0.3-0.6-0.4-0.9-0.4h-21.3
			c-0.1,0-0.2,0-0.3,0h-28.2c-0.5,0-1,0-1.5,0.1h-5.9c-0.4,0-0.9,0.3-1.1,0.7l-22.4,48.9l1.3-48.5c-0.1-0.6-0.6-1.1-1.2-1.1H67
			c-0.4,0-0.9,0.3-1.1,0.7l-21,45.9v-45.4c-0.1-0.6-0.6-1.1-1.2-1.1H25.2c-0.3,0-0.7,0.1-0.9,0.4c-0.2,0.3-0.3,0.6-0.3,0.9l5.1,75.1
			c0.1,0.6,0.6,1.1,1.2,1.1h15.4c0.5,0,0.9-0.3,1.1-0.7l21.7-46.7l0,46.3c0.1,0.6,0.6,1.1,1.2,1.1H86c0.5,0,0.9-0.3,1.1-0.7
			l32.3-61.9h19.6l-13.3,60.6c-0.1,0.4,0,0.7,0.2,1c0.2,0.3,0.6,0.4,0.9,0.4L148.1,308.1L148.1,308.1z"/>
		<path class="st0" d="M153.6,222.6c4.3,0.7,8.1-0.5,11.4-3.4c3.2-2.9,4.8-6.5,4.8-10.7c0-3.3-1-6.2-3-8.6c-2-2.5-4.7-4-8-4.5
			c-4.2-0.7-8,0.5-11.3,3.4c-3.3,2.9-4.9,6.5-4.9,10.7c0,3.2,1,6,3.1,8.5C147.7,220.5,150.4,222.1,153.6,222.6z"/>
		<path class="st0" d="M239.8,247.9c0-12.4-6.1-18.7-18-18.7c-7.8,0-19.3,7.2-22.1,10.5l8.4-40.9c0.1-0.4,0-0.7-0.2-1
			c-0.2-0.3-0.6-0.4-0.9-0.4l-17,3.5c-0.6,0-1.1,0.4-1.2,1l-22.7,105c-0.1,0.4,0,0.7,0.2,1c0.2,0.3,0.6,0.4,0.9,0.4h16.2
			c0.6,0,1.1-0.4,1.2-1l8.6-34.3c7.5-26.6,15-26.7,20.3-26.9c6.9-0.3,2.7,15.1,2.2,17.2l-10.3,43.5c-0.1,0.4,0,0.7,0.2,1
			c0.2,0.3,0.6,0.4,0.9,0.4h18c0.6,0,1.1-0.4,1.2-1l13.1-51.1C239.5,253.2,239.8,250.4,239.8,247.9z"/>
		<path class="st0" d="M322.6,230.7c-0.2-0.3-0.5-0.5-0.9-0.5h-19.6c-0.5,0-1,0.4-1.1,1l-0.2,1.1c-4.3-2.6-10.1-3.9-17.1-3.9
			c-11.2,0-20.4,6.7-27.2,19.9c-5.9,11.1-8.8,23.4-8.8,36.7c0,17.2,6.6,25.9,19.5,25.9c6.9,0,14.1-3.1,21.3-9.2l-0.9,4.9
			c-0.1,0.4,0,0.7,0.2,1c0.2,0.3,0.5,0.5,0.9,0.5h19.7c0.5,0,1-0.4,1.1-1l13.3-75.4C322.9,231.4,322.8,231,322.6,230.7z
			 M292.9,277.1c-1.4,8.2-5.9,12.1-13.6,12.1c-6.2,0-9-3.7-9-11.6c0-7.7,1.7-14.8,5-21c3.8-7.1,8.7-10.6,15.1-10.6
			c2.6,0,5.3,0.2,7.9,0.7L292.9,277.1z"/>
		<path class="st0" d="M37.8,333.6h-9.1V355H33v-7.9h3.6c1.4,0,2.5-0.1,3.3-0.4c0.8-0.2,1.8-0.8,2.9-1.8c1.1-1,1.6-2.6,1.6-4.9
			c0-2.1-0.6-3.7-1.7-4.8C41.6,334.2,39.9,333.6,37.8,333.6z M39.2,342.8c-0.6,0.6-1.5,0.9-2.6,0.9H33v-6.4h3.5c2.4,0,3.6,1,3.6,3.1
			C40.1,341.4,39.8,342.2,39.2,342.8z"/>
		<path class="st0" d="M56,341.7v-2.3h-4V355h4v-9.9c0.9-1.8,2.2-2.7,3.8-2.7c0.6,0,1.2,0.1,1.9,0.4v-3.6c-0.5-0.1-1-0.2-1.5-0.2
			C58.5,339.1,57.2,339.9,56,341.7z"/>
		<path class="st0" d="M76.6,338.9c-2.1,0-3.9,0.8-5.1,2.3c-1.3,1.5-1.9,3.5-1.9,6c0,2.5,0.6,4.5,1.9,6c1.3,1.5,3,2.2,5.2,2.2
			c1.8,0,3.4-0.5,4.5-1.5c1.2-1,1.9-2.4,2.2-4.2h-3.8c-0.3,0.9-0.6,1.6-1.1,2.1c-0.5,0.5-1.1,0.7-1.8,0.7c-0.9,0-1.7-0.4-2.3-1.2
			c-0.6-0.8-0.8-1.8-0.8-3.1h9.9l0-0.8c0-2.7-0.6-4.8-1.8-6.3C80.5,339.7,78.8,338.9,76.6,338.9z M73.6,345.6c0.2-1.3,0.5-2.3,1-3
			c0.5-0.7,1.2-1,2-1c1.7,0,2.7,1.3,3,4H73.6z"/>
		<path class="st0" d="M111.5,339.1c-2,0-3.6,1-4.7,3c-0.7-2-2.2-3-4.4-3c-0.9,0-1.9,0.3-2.7,0.8c-0.9,0.5-1.5,1.2-1.9,2v-2.4h-4
			V355h4v-9.9c0.8-1.6,1.9-2.4,3.2-2.4c0.7,0,1.3,0.2,1.6,0.7c0.3,0.4,0.5,1.2,0.5,2.1v9.5h4.1v-9.7c0.8-1.7,1.8-2.6,3.1-2.6
			c0.6,0,1,0.2,1.4,0.5c0.4,0.3,0.6,0.7,0.7,1.2v1.1v9.5h4v-10.8c0-1.6-0.4-2.8-1.3-3.8C114.2,339.5,113,339.1,111.5,339.1z"/>
		<rect x="125.9" y="339.4" class="st0" width="4" height="15.6"/>
		<rect x="125.9" y="333.6" class="st0" width="4" height="4.4"/>
		<path class="st0" d="M149.8,349.4c-0.8,1.6-1.8,2.4-3,2.4c-1.4,0-2.1-0.9-2.1-2.8v-9.5h-4v10.4c0,0.6,0,1,0.1,1.4
			c0,0.4,0.1,0.7,0.2,1c0.2,0.6,0.6,1.3,1.1,2.1c0.6,0.8,1.7,1.2,3.3,1.2c2.1,0,3.6-0.9,4.5-2.8v2.4h4v-15.6h-4L149.8,349.4
			L149.8,349.4z"/>
		<path class="st0" d="M181.6,339.1c-2,0-3.6,1-4.7,3c-0.7-2-2.2-3-4.4-3c-0.9,0-1.9,0.3-2.7,0.8c-0.9,0.5-1.5,1.2-1.9,2v-2.4h-4
			V355h4v-9.9c0.8-1.6,1.9-2.4,3.2-2.4c0.7,0,1.3,0.2,1.6,0.7c0.3,0.4,0.5,1.2,0.5,2.1v9.5h4.1v-9.7c0.8-1.7,1.8-2.6,3.1-2.6
			c0.6,0,1,0.2,1.4,0.5c0.4,0.3,0.6,0.7,0.7,1.2v1.1v9.5h4v-10.8c0-1.6-0.4-2.8-1.3-3.8C184.3,339.5,183.1,339.1,181.6,339.1z"/>
		<polygon class="st0" points="209.7,337.2 215.4,337.2 215.4,355 219.8,355 219.8,337.2 225.5,337.2 225.5,333.6 209.7,333.6 		"/>
		<path class="st0" d="M238.5,338.9c-2.3,0-4.1,0.8-5.4,2.3c-1.3,1.5-2,3.5-2,6s0.7,4.5,2,6c1.3,1.5,3.1,2.2,5.3,2.2
			c2.3,0,4.1-0.7,5.4-2.2c1.3-1.5,2-3.5,2-6c0-2.5-0.7-4.6-2-6.1C242.5,339.6,240.7,338.9,238.5,338.9z M240.7,351.1
			c-0.5,0.9-1.3,1.4-2.2,1.4c-1,0-1.7-0.5-2.3-1.4c-0.3-0.5-0.5-1.1-0.6-1.7c-0.1-0.6-0.2-1.4-0.2-2.3c0-1.7,0.3-3.1,0.8-4
			c0.5-0.9,1.3-1.4,2.2-1.4c1,0,1.7,0.5,2.3,1.4c0.5,0.9,0.8,2.3,0.8,4C241.5,348.9,241.2,350.2,240.7,351.1z"/>
		<path class="st0" d="M263.5,338.9c-2.3,0-4.1,0.8-5.4,2.3c-1.3,1.5-2,3.5-2,6s0.7,4.5,2,6c1.3,1.5,3.1,2.2,5.3,2.2
			c2.3,0,4.1-0.7,5.4-2.2c1.3-1.5,2-3.5,2-6c0-2.5-0.7-4.6-2-6.1C267.5,339.6,265.7,338.9,263.5,338.9z M265.7,351.1
			c-0.5,0.9-1.3,1.4-2.2,1.4c-1,0-1.7-0.5-2.3-1.4c-0.3-0.5-0.5-1.1-0.6-1.7s-0.2-1.4-0.2-2.3c0-1.7,0.3-3.1,0.8-4
			c0.5-0.9,1.3-1.4,2.2-1.4c1,0,1.7,0.5,2.3,1.4c0.5,0.9,0.8,2.3,0.8,4C266.5,348.9,266.3,350.2,265.7,351.1z"/>
		<rect x="281.3" y="333.6" class="st0" width="4" height="21.4"/>
		<path class="st0" d="M306.2,346.9c-0.5-0.3-0.9-0.5-1.2-0.6c-0.3-0.1-0.5-0.2-0.7-0.3l-2.2-0.6l-1.4-0.4c-0.9-0.2-1.6-0.5-1.8-0.7
			c-0.3-0.3-0.4-0.7-0.4-1.1c0-0.5,0.2-0.9,0.6-1.2c0.4-0.3,0.9-0.4,1.6-0.4c1.8,0,2.6,0.7,2.6,2.2v0.2h3.8c0-1.7-0.6-3-1.7-3.8
			c-1.2-0.9-2.8-1.3-4.9-1.3c-1.9,0-3.4,0.4-4.5,1.3c-1.1,0.8-1.7,2-1.7,3.5c0,0.8,0.2,1.5,0.6,2.2c0.4,0.7,0.8,1.2,1.2,1.4l1,0.5
			c0.2,0.1,0.3,0.1,0.5,0.2c0.1,0,0.3,0.1,0.5,0.1l1.7,0.5l1.9,0.5c0.6,0.1,1.1,0.3,1.3,0.6c0.3,0.2,0.4,0.5,0.4,0.9
			c0,0.6-0.2,1.1-0.7,1.4c-0.5,0.3-1.1,0.5-1.9,0.5c-0.9,0-1.7-0.2-2.3-0.6c-0.6-0.5-0.8-1.1-0.8-1.8v-0.3H294v0.6
			c0,1.6,0.6,2.8,1.8,3.7c1.2,0.9,2.9,1.3,5,1.3c2.1,0,3.6-0.3,4.5-1c0.9-0.7,1.5-1.4,1.8-2.1c0.2-0.4,0.3-0.8,0.4-1.1
			c0.1-0.4,0.1-0.8,0.1-1.1C307.6,348.4,307.1,347.3,306.2,346.9z"/>
	</g>
	<circle class="st1" cx="405.3" cy="185" r="5.9"/>
	<path class="st1" d="M448.5,225.8c0.3-1.4,8.7-32.2,8.7-32.2h-6.1l-1.5,2.8c0,0-1.5-3.1-4.3-3.3c-6.5-1.1-9.6,5.1-9.6,5.1
		s-5.3,20.5-6.7,25c-1.4,4.4-5.7,2.8-5.7,2.8s1.7-6,2.6-11.4c1-5.4,6.7-17.9,4-21c-4.2-3.9-12.2,3.6-12.2,3.6l4.4-16.1H416
		c0,0-10.3,35.8-11.5,40.5c-1.2,4.7-4.6,6.1-5.8,4.2c3.9-13.2,9.2-32.6,9.2-32.6s-1.4,0-6.9,0c-1.2,7.4-7.1,25.8-7.1,25.8
		s-3.1,2.8-6,3.6c8.6-16.2,7.9-41.4,7.9-41.4s-2.4,0-6.7,0c-1.5,39.4-9.4,45.1-12.8,45c-3.3-0.1-1.7-5.3,0.1-10.7s6-22.2,6-22.2
		h-6.7c0,0-6.9,33.6-10.5,32.5c-3.6-1.1-2.9-6.7-0.6-19.4c2.4-12.8,9.9-25.4,9.9-25.4h-7.6c-15.7,37.3-10.5,50.4-4.7,51.1
		c5.8,0.7,5.6-1.9,8.2-1.9c2.6,0,2.6,2.2,6.7,2.2c8.3,0,14.9-6.5,14.9-6.5s-0.3,6.7,4.3,6.8c4.6,0.1,4.6-2.1,5.3-1.9
		c0.7,0.1,1.4,1.7,1.4,1.7h5.8c0,0,6.1-23.2,7.9-30c6.9-5,7.9-3.5,7.4-1.8s-4.3,16.2-6.1,21.9c-1.8,5.7-1.1,9.2,2.4,9.7
		c3.5,0.6,8-2.9,9.7-2.8c1.7,0.1,2.1,2.8,5.7,3.2c3.6,0.4,6.4-1.9,7.5-1.8c1.1,0.1,0.3,1.7,3.5,1.7c3.2,0,6.5-4,6.5-4s0-1.5,0-4.4
		C452.1,225.7,448.2,227.2,448.5,225.8z M447.8,202.7l-5.2,21.8c0,0-1,2.9-4.6,2.3c-3.5-0.6-2.9-3.6-2.6-4.6
		c0.3-0.9,5.5-20.4,5.5-20.4s0.5-2.8,4.4-2.4C449.1,199.7,447.8,202.7,447.8,202.7z"/>
	<path class="st1" d="M437,152.8l31.6,54.7L437,262.2h-63.2l-31.6-54.7l31.6-54.7L437,152.8 M441.9,144.5h-72.8l-36.4,63l36.4,63
		h72.8l36.4-63L441.9,144.5L441.9,144.5z"/>
</g>
</svg>
