<?xml version="1.0" encoding="utf-8"?>
<!-- Generator: Adobe Illustrator 15.0.0, SVG Export Plug-In . SVG Version: 6.00 Build 0)  -->
<!DOCTYPE svg PUBLIC "-//W3C//DTD SVG 1.1//EN" "http://www.w3.org/Graphics/SVG/1.1/DTD/svg11.dtd">
<svg version="1.1" id="Calque_1" xmlns="http://www.w3.org/2000/svg" xmlns:xlink="http://www.w3.org/1999/xlink" x="0px" y="0px"
	 width="500px" height="500px" viewBox="0 0 500 500" enable-background="new 0 0 500 500" xml:space="preserve">
<g>
	<path fill="#009FCC" d="M415.59,188.365c-2.435,0-4.514,0.849-6.237,2.545c-1.723,1.697-2.585,3.744-2.585,6.141
		c0,2.397,0.862,4.444,2.585,6.142c1.724,1.696,3.803,2.545,6.237,2.545s4.514-0.849,6.237-2.545
		c1.723-1.697,2.585-3.744,2.585-6.142c0-2.396-0.862-4.443-2.585-6.141C420.104,189.214,418.024,188.365,415.59,188.365z
		 M417.294,202.805c-1.117-2.19-1.866-3.5-2.248-3.928s-0.764-0.642-1.146-0.642c-0.086,0-0.206,0.015-0.358,0.043v4.526h-2.907
		v-11.507h5.228c1.479,0,2.551,0.294,3.215,0.882s0.995,1.375,0.995,2.361c0,0.771-0.253,1.438-0.759,2.003
		c-0.506,0.563-1.303,0.973-2.392,1.227c0.448,0.169,0.778,0.348,0.988,0.536c0.296,0.263,0.606,0.653,0.931,1.17
		c0.02,0.038,0.649,1.146,1.891,3.328H417.294z"/>
	<path fill="#009FCC" d="M29.881,166.409v115.142H473.13V166.409H29.881z M160.593,260.199h-13.224l-18.429-55.512l-18.395,55.512
		H97.853L74.261,185.95h13.405l16.329,52.133l17.1-52.133h16.081l16.584,52.648l17.563-52.648h13.579L160.593,260.199z
		 M206.509,260.199h-13.238V185.95h13.238V260.199z M267.284,260.199h-49.369v-74.142h14.492v62.554h34.877V260.199z
		 M317.706,260.199l-30.686-34.335v34.335h-12.875V185.95h13.049v28.3l27.293-28.3h18.408l-33.066,33.839l35.568,40.41H317.706z
		 M401.712,260.186l-24.309-57.014l-23.236,57.195l-15.752-0.168l32.551-74.249h12.875l32.168,74.249L401.712,260.186z
		 M425.063,202.438c-0.979,1.664-2.312,2.976-4.003,3.935c-1.689,0.958-3.514,1.438-5.471,1.438c-1.947,0-3.767-0.479-5.456-1.438
		c-1.69-0.959-3.024-2.271-4.003-3.935c-0.979-1.664-1.468-3.459-1.468-5.387c0-1.917,0.488-3.71,1.468-5.379
		c0.979-1.669,2.312-2.982,4.003-3.941c1.689-0.959,3.509-1.438,5.456-1.438c1.957,0,3.781,0.479,5.471,1.438
		c1.69,0.959,3.024,2.272,4.003,3.941s1.468,3.462,1.468,5.379C426.531,198.979,426.042,200.773,425.063,202.438z"/>
	<path fill="#009FCC" d="M416.6,193.702c-0.329-0.268-0.891-0.401-1.683-0.401h-1.375v2.876h1.261c0.84,0,1.432-0.134,1.775-0.401
		c0.344-0.269,0.516-0.613,0.516-1.037C417.094,194.315,416.929,193.971,416.6,193.702z"/>
</g>
<g>
	<path fill="#009FCC" d="M55.008,310.91c-1.374-0.664-3.903-1.449-7.598-2.334c-3.688-0.893-5.976-1.764-6.854-2.609
		c-0.886-0.852-1.327-1.93-1.327-3.244c0-1.516,0.623-2.811,1.877-3.877c1.261-1.08,3.266-1.615,6.009-1.615
		c2.642,0,4.64,0.582,5.988,1.764c1.348,1.166,2.14,2.902,2.38,5.203l4.346-0.342c-0.08-2.16-0.643-4.084-1.689-5.781
		c-1.046-1.703-2.541-2.99-4.486-3.869s-4.191-1.314-6.739-1.314c-2.308,0-4.413,0.422-6.304,1.254
		c-1.891,0.838-3.326,2.059-4.305,3.668c-0.986,1.617-1.477,3.348-1.477,5.197c0,1.689,0.402,3.213,1.208,4.574
		c0.805,1.361,2.032,2.508,3.675,3.42c1.268,0.717,3.48,1.482,6.632,2.293c3.159,0.805,5.197,1.395,6.116,1.783
		c1.436,0.584,2.461,1.295,3.071,2.154c0.61,0.857,0.919,1.863,0.919,3.004c0,1.133-0.329,2.18-0.973,3.131
		c-0.65,0.967-1.63,1.717-2.957,2.268c-1.321,0.557-2.844,0.824-4.574,0.824c-1.944,0-3.701-0.361-5.258-1.086
		c-1.555-0.725-2.709-1.678-3.446-2.85c-0.737-1.174-1.207-2.684-1.408-4.514l-4.292,0.402c0.061,2.447,0.684,4.633,1.878,6.578
		c1.194,1.938,2.843,3.393,4.936,4.359c2.105,0.965,4.7,1.447,7.806,1.447c2.455,0,4.654-0.475,6.612-1.434
		c1.958-0.953,3.46-2.301,4.507-4.018c1.045-1.723,1.568-3.555,1.568-5.506c0-1.957-0.482-3.695-1.428-5.197
		C58.476,313.137,56.999,311.889,55.008,310.91z"/>
	<path fill="#009FCC" d="M88.089,324.281c-1.771,1.562-3.924,2.354-6.465,2.354c-2.1,0-4.044-0.576-5.841-1.73
		c-1.798-1.139-3.118-2.883-3.97-5.203c-0.852-2.326-1.281-5.043-1.281-8.154c0-2.414,0.362-4.762,1.08-7.027
		c0.717-2.281,1.965-4.092,3.734-5.432c1.771-1.355,3.977-2.033,6.612-2.033c2.294,0,4.198,0.611,5.714,1.832
		c1.516,1.213,2.669,3.15,3.46,5.812l4.507-1.119c-0.919-3.387-2.555-6.016-4.902-7.887s-5.237-2.803-8.684-2.803
		c-3.031,0-5.814,0.738-8.343,2.213c-2.528,1.477-4.474,3.635-5.848,6.479c-1.368,2.844-2.052,6.17-2.052,9.992
		c0,3.5,0.609,6.771,1.824,9.816c1.207,3.059,2.977,5.385,5.304,6.994c2.32,1.609,5.339,2.414,9.046,2.414
		c3.582,0,6.613-1.045,9.094-3.137c2.481-2.094,4.198-5.131,5.15-9.121l-4.561-1.227C91.046,320.393,89.853,322.719,88.089,324.281z
		"/>
	<polygon fill="#009FCC" points="122.147,308.535 104.283,308.535 104.283,293.521 99.724,293.521 99.724,330.17 104.283,330.17 
		104.283,312.875 122.147,312.875 122.147,330.17 126.708,330.17 126.708,293.521 122.147,293.521 	"/>
	<polygon fill="#009FCC" points="138.43,293.521 133.87,293.521 133.87,330.17 155.329,330.17 155.329,325.83 138.43,325.83 	"/>
	<rect x="161.747" y="293.521" fill="#009FCC" width="4.56" height="36.648"/>
	<polygon fill="#009FCC" points="177.103,313.385 196.095,313.385 196.095,309.045 177.103,309.045 177.103,297.859 
		197.382,297.859 197.382,293.521 172.543,293.521 172.543,330.17 198.187,330.17 198.187,325.83 177.103,325.83 	"/>
	<path fill="#009FCC" d="M223.938,310.91c-1.375-0.664-3.903-1.449-7.604-2.334c-3.688-0.893-5.969-1.764-6.847-2.609
		c-0.892-0.852-1.335-1.93-1.335-3.244c0-1.516,0.631-2.811,1.885-3.877c1.254-1.08,3.266-1.615,6.008-1.615
		c2.637,0,4.635,0.582,5.988,1.764c1.349,1.166,2.14,2.902,2.375,5.203l4.346-0.342c-0.081-2.16-0.645-4.084-1.69-5.781
		c-1.046-1.703-2.535-2.99-4.479-3.869c-1.945-0.879-4.198-1.314-6.74-1.314c-2.312,0-4.412,0.422-6.303,1.254
		c-1.892,0.838-3.326,2.059-4.312,3.668c-0.979,1.617-1.475,3.348-1.475,5.197c0,1.689,0.402,3.213,1.207,4.574
		s2.038,2.508,3.674,3.42c1.275,0.717,3.488,1.482,6.64,2.293c3.151,0.805,5.19,1.395,6.116,1.783
		c1.435,0.584,2.454,1.295,3.07,2.154c0.604,0.857,0.912,1.863,0.912,3.004c0,1.133-0.321,2.18-0.965,3.131
		c-0.65,0.967-1.637,1.717-2.957,2.268c-1.322,0.557-2.851,0.824-4.581,0.824c-1.944,0-3.702-0.361-5.257-1.086
		c-1.557-0.725-2.703-1.678-3.447-2.85c-0.738-1.174-1.207-2.684-1.408-4.514l-4.292,0.402c0.067,2.447,0.69,4.633,1.884,6.578
		c1.194,1.938,2.838,3.393,4.937,4.359c2.099,0.965,4.7,1.447,7.806,1.447c2.447,0,4.646-0.475,6.605-1.434
		c1.958-0.953,3.46-2.301,4.506-4.018c1.047-1.723,1.569-3.555,1.569-5.506c0-1.957-0.476-3.695-1.421-5.197
		C227.397,313.137,225.923,311.889,223.938,310.91z"/>
	<path fill="#009FCC" d="M255.509,310.91c-1.367-0.664-3.902-1.449-7.591-2.334c-3.695-0.893-5.981-1.764-6.854-2.609
		c-0.886-0.852-1.327-1.93-1.327-3.244c0-1.516,0.623-2.811,1.877-3.877c1.261-1.08,3.26-1.615,6.008-1.615
		c2.643,0,4.641,0.582,5.989,1.764c1.348,1.166,2.14,2.902,2.38,5.203l4.346-0.342c-0.08-2.16-0.644-4.084-1.689-5.781
		c-1.047-1.703-2.549-2.99-4.493-3.869s-4.185-1.314-6.733-1.314c-2.307,0-4.412,0.422-6.303,1.254
		c-1.891,0.838-3.326,2.059-4.305,3.668c-0.993,1.617-1.477,3.348-1.477,5.197c0,1.689,0.402,3.213,1.207,4.574
		s2.025,2.508,3.676,3.42c1.268,0.717,3.474,1.482,6.632,2.293c3.159,0.805,5.197,1.395,6.109,1.783
		c1.441,0.584,2.468,1.295,3.071,2.154c0.617,0.857,0.926,1.863,0.926,3.004c0,1.133-0.329,2.18-0.979,3.131
		c-0.644,0.967-1.623,1.717-2.95,2.268c-1.328,0.557-2.851,0.824-4.574,0.824c-1.951,0-3.701-0.361-5.258-1.086
		c-1.555-0.725-2.709-1.678-3.446-2.85c-0.737-1.174-1.207-2.684-1.408-4.514l-4.292,0.402c0.054,2.447,0.684,4.633,1.878,6.578
		c1.193,1.938,2.843,3.393,4.936,4.359c2.099,0.965,4.7,1.447,7.806,1.447c2.455,0,4.654-0.475,6.611-1.434
		c1.959-0.953,3.461-2.301,4.508-4.018c1.045-1.723,1.568-3.555,1.568-5.506c0-1.957-0.482-3.695-1.428-5.197
		C258.976,313.137,257.507,311.889,255.509,310.91z"/>
	<polygon fill="#009FCC" points="264.556,297.859 275.875,297.859 275.875,330.17 280.435,330.17 280.435,297.859 291.755,297.859 
		291.755,293.521 264.556,293.521 	"/>
	<polygon fill="#009FCC" points="300.733,313.385 319.726,313.385 319.726,309.045 300.733,309.045 300.733,297.859 
		321.013,297.859 321.013,293.521 296.174,293.521 296.174,330.17 321.817,330.17 321.817,325.83 300.733,325.83 	"/>
	<path fill="#009FCC" d="M348.574,324.281c-1.764,1.562-3.923,2.354-6.465,2.354c-2.099,0-4.044-0.576-5.834-1.73
		c-1.798-1.139-3.125-2.883-3.977-5.203c-0.852-2.326-1.274-5.043-1.274-8.154c0-2.414,0.355-4.762,1.073-7.027
		c0.718-2.281,1.965-4.092,3.735-5.432c1.77-1.355,3.977-2.033,6.611-2.033c2.294,0,4.198,0.611,5.714,1.832
		c1.516,1.213,2.669,3.15,3.468,5.812l4.506-1.119c-0.926-3.387-2.562-6.016-4.908-7.887c-2.348-1.871-5.238-2.803-8.678-2.803
		c-3.038,0-5.821,0.738-8.35,2.213c-2.521,1.477-4.473,3.635-5.841,6.479s-2.052,6.17-2.052,9.992c0,3.5,0.604,6.771,1.817,9.816
		c1.214,3.059,2.983,5.385,5.304,6.994c2.328,1.609,5.338,2.414,9.047,2.414c3.588,0,6.619-1.045,9.1-3.137
		c2.475-2.094,4.191-5.131,5.15-9.121l-4.561-1.227C351.538,320.393,350.338,322.719,348.574,324.281z"/>
	<polygon fill="#009FCC" points="383.116,308.535 365.252,308.535 365.252,293.521 360.692,293.521 360.692,330.17 365.252,330.17 
		365.252,312.875 383.116,312.875 383.116,330.17 387.677,330.17 387.677,293.521 383.116,293.521 	"/>
	<polygon fill="#009FCC" points="417.987,322.344 399.787,293.521 395.134,293.521 395.134,330.17 399.479,330.17 399.479,301.354 
		417.686,330.17 422.333,330.17 422.333,293.521 417.987,293.521 	"/>
	<rect x="430.226" y="293.521" fill="#009FCC" width="4.561" height="36.648"/>
	<polygon fill="#009FCC" points="453.153,310.273 469.751,293.668 463.024,293.668 449.311,307.41 449.311,293.668 444.101,293.668 
		444.101,329.994 449.23,329.994 449.23,312.701 463.836,329.994 470.32,329.994 	"/>
</g>
<rect x="27.312" y="163.553" fill="none" width="449.164" height="171.84"/>
</svg>
