<?xml version="1.0" encoding="utf-8"?>
<!-- Generator: Adobe Illustrator 21.0.2, SVG Export Plug-In . SVG Version: 6.00 Build 0)  -->
<svg version="1.1" id="Calque_1" xmlns="http://www.w3.org/2000/svg" xmlns:xlink="http://www.w3.org/1999/xlink" x="0px" y="0px"
	 viewBox="0 0 500 198" style="enable-background:new 0 0 500 198;" xml:space="preserve">
<style type="text/css">
	.st0{fill:#009FCC;}
	.st1{fill:#FFFFFF;}
</style>
<path class="st0" d="M29.9,15.4v115.1h443.2V15.4H29.9z M160.6,109.2h-13.2L129,53.7l-18.4,55.5H97.9L74.3,35h13.4L104,87.1
	L121.1,35h16.1l16.6,52.6L171.4,35H185L160.6,109.2z M206.5,109.2h-13.2V35h13.2V109.2z M267.3,109.2h-49.4V35.1h14.5v62.6h34.9
	V109.2z M317.7,109.2L287,74.9v34.3h-12.9V35h13v28.3L314.4,35h18.4l-33.1,33.8l35.6,40.4L317.7,109.2L317.7,109.2z M401.7,109.2
	l-24.3-57l-23.2,57.2l-15.8-0.2L371,35h12.9l32.2,74.2H401.7z"/>
<path class="st0" d="M55,159.9c-1.4-0.7-3.9-1.4-7.6-2.3c-3.7-0.9-6-1.8-6.9-2.6c-0.9-0.9-1.3-1.9-1.3-3.2c0-1.5,0.6-2.8,1.9-3.9
	c1.3-1.1,3.3-1.6,6-1.6c2.6,0,4.6,0.6,6,1.8c1.3,1.2,2.1,2.9,2.4,5.2l4.3-0.3c-0.1-2.2-0.6-4.1-1.7-5.8c-1-1.7-2.5-3-4.5-3.9
	s-4.2-1.3-6.7-1.3c-2.3,0-4.4,0.4-6.3,1.3c-1.9,0.8-3.3,2.1-4.3,3.7s-1.5,3.3-1.5,5.2c0,1.7,0.4,3.2,1.2,4.6s2,2.5,3.7,3.4
	c1.3,0.7,3.5,1.5,6.6,2.3c3.2,0.8,5.2,1.4,6.1,1.8c1.4,0.6,2.5,1.3,3.1,2.2c0.6,0.9,0.9,1.9,0.9,3s-0.3,2.2-1,3.1
	c-0.7,1-1.6,1.7-3,2.3c-1.3,0.6-2.8,0.8-4.6,0.8c-1.9,0-3.7-0.4-5.3-1.1s-2.7-1.7-3.4-2.9c-0.7-1.2-1.2-2.7-1.4-4.5l-4.3,0.4
	c0.1,2.4,0.7,4.6,1.9,6.6c1.2,1.9,2.8,3.4,4.9,4.4c2.1,1,4.7,1.4,7.8,1.4c2.5,0,4.7-0.5,6.6-1.4c2-1,3.5-2.3,4.5-4s1.6-3.6,1.6-5.5
	c0-2-0.5-3.7-1.4-5.2C58.5,162.1,57,160.9,55,159.9z"/>
<path class="st0" d="M88.1,173.3c-1.8,1.6-3.9,2.4-6.5,2.4c-2.1,0-4-0.6-5.8-1.7s-3.1-2.9-4-5.2c-0.9-2.3-1.3-5-1.3-8.2
	c0-2.4,0.4-4.8,1.1-7c0.7-2.3,2-4.1,3.7-5.4c1.8-1.4,4-2,6.6-2c2.3,0,4.2,0.6,5.7,1.8c1.5,1.2,2.7,3.1,3.5,5.8l4.5-1.1
	c-0.9-3.4-2.6-6-4.9-7.9S85.5,142,82,142c-3,0-5.8,0.7-8.3,2.2s-4.5,3.6-5.8,6.5c-1.4,2.8-2.1,6.2-2.1,10c0,3.5,0.6,6.8,1.8,9.8
	c1.2,3.1,3,5.4,5.3,7s5.3,2.4,9,2.4c3.6,0,6.6-1,9.1-3.1s4.2-5.1,5.2-9.1l-4.6-1.2C91,169.4,89.9,171.7,88.1,173.3z"/>
<polygon class="st0" points="122.1,157.5 104.3,157.5 104.3,142.5 99.7,142.5 99.7,179.2 104.3,179.2 104.3,161.9 122.1,161.9 
	122.1,179.2 126.7,179.2 126.7,142.5 122.1,142.5 "/>
<polygon class="st0" points="138.4,142.5 133.9,142.5 133.9,179.2 155.3,179.2 155.3,174.8 138.4,174.8 "/>
<rect x="161.7" y="142.5" class="st0" width="4.6" height="36.6"/>
<polygon class="st0" points="177.1,162.4 196.1,162.4 196.1,158 177.1,158 177.1,146.9 197.4,146.9 197.4,142.5 172.5,142.5 
	172.5,179.2 198.2,179.2 198.2,174.8 177.1,174.8 "/>
<path class="st0" d="M223.9,159.9c-1.4-0.7-3.9-1.4-7.6-2.3c-3.7-0.9-6-1.8-6.8-2.6c-0.9-0.9-1.3-1.9-1.3-3.2c0-1.5,0.6-2.8,1.9-3.9
	c1.3-1.1,3.3-1.6,6-1.6c2.6,0,4.6,0.6,6,1.8c1.3,1.2,2.1,2.9,2.4,5.2l4.3-0.3c-0.1-2.2-0.6-4.1-1.7-5.8c-1-1.7-2.5-3-4.5-3.9
	c-1.9-0.9-4.2-1.3-6.7-1.3c-2.3,0-4.4,0.4-6.3,1.3c-1.9,0.8-3.3,2.1-4.3,3.7s-1.5,3.3-1.5,5.2c0,1.7,0.4,3.2,1.2,4.6s2,2.5,3.7,3.4
	c1.3,0.7,3.5,1.5,6.6,2.3c3.2,0.8,5.2,1.4,6.1,1.8c1.4,0.6,2.5,1.3,3.1,2.2c0.6,0.9,0.9,1.9,0.9,3s-0.3,2.2-1,3.1
	c-0.6,1-1.6,1.7-3,2.3c-1.3,0.6-2.9,0.8-4.6,0.8c-1.9,0-3.7-0.4-5.3-1.1s-2.7-1.7-3.4-2.9c-0.7-1.2-1.2-2.7-1.4-4.5l-4.3,0.4
	c0.1,2.4,0.7,4.6,1.9,6.6c1.2,1.9,2.8,3.4,4.9,4.4c2.1,1,4.7,1.4,7.8,1.4c2.4,0,4.6-0.5,6.6-1.4c2-1,3.5-2.3,4.5-4s1.6-3.6,1.6-5.5
	c0-2-0.5-3.7-1.4-5.2C227.4,162.1,225.9,160.9,223.9,159.9z"/>
<path class="st0" d="M255.5,159.9c-1.4-0.7-3.9-1.4-7.6-2.3c-3.7-0.9-6-1.8-6.9-2.6c-0.9-0.9-1.3-1.9-1.3-3.2c0-1.5,0.6-2.8,1.9-3.9
	c1.3-1.1,3.3-1.6,6-1.6c2.6,0,4.6,0.6,6,1.8c1.3,1.2,2.1,2.9,2.4,5.2l4.3-0.3c-0.1-2.2-0.6-4.1-1.7-5.8c-1-1.7-2.5-3-4.5-3.9
	s-4.2-1.3-6.7-1.3c-2.3,0-4.4,0.4-6.3,1.3c-1.9,0.8-3.3,2.1-4.3,3.7s-1.5,3.3-1.5,5.2c0,1.7,0.4,3.2,1.2,4.6s2,2.5,3.7,3.4
	c1.3,0.7,3.5,1.5,6.6,2.3c3.2,0.8,5.2,1.4,6.1,1.8c1.4,0.6,2.5,1.3,3.1,2.2c0.6,0.9,0.9,1.9,0.9,3s-0.3,2.2-1,3.1
	c-0.6,1-1.6,1.7-2.9,2.3c-1.3,0.6-2.9,0.8-4.6,0.8c-2,0-3.7-0.4-5.3-1.1s-2.7-1.7-3.4-2.9c-0.7-1.2-1.2-2.7-1.4-4.5l-4.3,0.4
	c0.1,2.4,0.7,4.6,1.9,6.6c1.2,1.9,2.8,3.4,4.9,4.4c2.1,1,4.7,1.4,7.8,1.4c2.5,0,4.7-0.5,6.6-1.4c2-1,3.5-2.3,4.5-4s1.6-3.6,1.6-5.5
	c0-2-0.5-3.7-1.4-5.2C259,162.1,257.5,160.9,255.5,159.9z"/>
<polygon class="st0" points="264.6,146.9 275.9,146.9 275.9,179.2 280.4,179.2 280.4,146.9 291.8,146.9 291.8,142.5 264.6,142.5 "/>
<polygon class="st0" points="300.7,162.4 319.7,162.4 319.7,158 300.7,158 300.7,146.9 321,146.9 321,142.5 296.2,142.5 
	296.2,179.2 321.8,179.2 321.8,174.8 300.7,174.8 "/>
<path class="st0" d="M348.6,173.3c-1.8,1.6-3.9,2.4-6.5,2.4c-2.1,0-4-0.6-5.8-1.7s-3.1-2.9-4-5.2c-0.9-2.3-1.3-5-1.3-8.2
	c0-2.4,0.4-4.8,1.1-7c0.7-2.3,2-4.1,3.7-5.4c1.8-1.4,4-2,6.6-2c2.3,0,4.2,0.6,5.7,1.8c1.5,1.2,2.7,3.1,3.5,5.8l4.5-1.1
	c-0.9-3.4-2.6-6-4.9-7.9s-5.2-2.8-8.7-2.8c-3,0-5.8,0.7-8.4,2.2c-2.5,1.5-4.5,3.6-5.8,6.5s-2.1,6.2-2.1,10c0,3.5,0.6,6.8,1.8,9.8
	c1.2,3.1,3,5.4,5.3,7s5.3,2.4,9,2.4c3.6,0,6.6-1,9.1-3.1s4.2-5.1,5.1-9.1l-4.6-1.2C351.5,169.4,350.3,171.7,348.6,173.3z"/>
<polygon class="st0" points="383.1,157.5 365.3,157.5 365.3,142.5 360.7,142.5 360.7,179.2 365.3,179.2 365.3,161.9 383.1,161.9 
	383.1,179.2 387.7,179.2 387.7,142.5 383.1,142.5 "/>
<polygon class="st0" points="418,171.3 399.8,142.5 395.1,142.5 395.1,179.2 399.5,179.2 399.5,150.4 417.7,179.2 422.3,179.2 
	422.3,142.5 418,142.5 "/>
<rect x="430.2" y="142.5" class="st0" width="4.6" height="36.6"/>
<polygon class="st0" points="453.2,159.3 469.8,142.7 463,142.7 449.3,156.4 449.3,142.7 444.1,142.7 444.1,179 449.2,179 
	449.2,161.7 463.8,179 470.3,179 "/>
<path class="st1" d="M417.9,47.5c-0.2-0.3-0.6-0.6-1.1-0.8c1.1-0.2,1.8-0.5,2.3-1.1c0.5-0.5,0.8-1.2,0.8-2.1c0-0.9-0.3-1.7-0.9-2.3
	c-0.6-0.6-1.5-0.9-2.9-0.9h-5.5v11.5l2.4-0.2v-4.7h0.6c0.6,0,1.2,0.2,1.7,0.6c0.5,0.5,0.9,1.2,1.5,2.3l0.9,1.8h2.9l-1.4-2.3
	C418.6,48.4,418.2,47.8,417.9,47.5z M414.8,45.4H413h-0.2v-3.2h2.1c0.8,0,1.4,0.2,1.8,0.5c0.5,0.3,0.6,0.8,0.6,1.2
	c0,0.6-0.2,0.9-0.6,1.2C416.5,45.2,415.8,45.4,414.8,45.4z"/>
<path class="st1" d="M423.2,38.4c-2.1-2.1-4.8-3.2-8-3.2c-1.5,0-2.7,0.5-4.4,1.2c-1.7,0.8-3.2,2.1-4.2,3.8s-1.7,3.6-1.7,5.8
	c0,2.9,1.1,5.5,3.2,7.6c2,2.1,4.5,3.2,7.6,3.2c2.9,0,5.5-1.1,7.6-3.2c2.1-2.1,3.2-4.5,3.2-7.6C426.3,43.1,425.3,40.5,423.2,38.4z
	 M421.5,52.1c-1.7,1.7-3.6,2.6-6.1,2.6c-2.3,0-4.4-0.9-6.1-2.6c-1.7-1.7-2.6-3.6-2.6-6.1c0-2.3,0.8-4.4,2.4-6.1
	c1.7-1.7,3.8-2.6,6.5-2.6c1.2,0,2.4,0.3,3.8,0.9c1.4,0.8,2.4,1.8,3.3,3.2c0.8,1.4,1.2,2.9,1.2,4.5C424.1,48.3,423.2,50.4,421.5,52.1
	z"/>
</svg>
