<?xml version="1.0" encoding="utf-8"?>
<!-- Generator: Adobe Illustrator 19.1.0, SVG Export Plug-In . SVG Version: 6.00 Build 0)  -->
<svg version="1.1" id="Calque_1" xmlns="http://www.w3.org/2000/svg" xmlns:xlink="http://www.w3.org/1999/xlink" x="0px" y="0px"
	 viewBox="0 0 500 500" style="enable-background:new 0 0 500 500;" xml:space="preserve">
<style type="text/css">
	.st0{fill:#0059A2;}
	.st1{fill:#E9511E;}
</style>
<polygon class="st0" points="109.5,336.5 109.5,77 370,77 "/>
<path class="st0" d="M378.2,155.2v168.3l-169.1,0.8L378.2,155.2 M390.2,126.2L180,336.5l210.2-1V126.2L390.2,126.2z"/>
<g>
	<g>
		<polygon class="st0" points="487.9,359.3 467,359.3 451.7,359.3 432.2,359.3 428.9,371.8 449.6,371.8 441.4,420.3 456.7,420.3 
			464.9,371.8 484.5,371.8 		"/>
		<polygon class="st0" points="98.2,359.2 80,399.3 72,359.5 57,359.5 35.7,398.5 30.8,359.5 14,359.5 25.3,420.2 38.5,420.2 
			60.7,379 70,420.3 83.8,420.3 115.5,359.2 		"/>
		<polygon class="st0" points="110.9,420.3 126.2,420.3 136.5,359.3 121.2,359.3 		"/>
		<path class="st0" d="M337.5,359.3H337h-14.8h-0.5l0.2,0.6L284,420.3h15.3l7.9-12.7h28.1l3.6,12.7h15.3l-17.2-60.4L337.5,359.3z
			 M314.7,395.8l11.9-19.1l5.4,19.1H314.7z"/>
		<polygon class="st0" points="277.5,359.3 269.7,359.3 262.2,359.3 237.9,400.4 230.5,359.3 220.5,359.3 215.2,359.3 205.2,359.3 
			194.9,420.3 210.2,420.3 217.9,374.6 226.2,420.3 241.5,420.3 266.6,377.9 259.4,420.3 274.7,420.3 285,359.3 		"/>
		<polygon class="st0" points="167.2,359.3 151.7,359.3 141.4,420.3 143.9,420.3 156.9,420.3 186.2,420.3 188.7,408 159,408 		"/>
		<path class="st0" d="M407.7,359.4L407.7,359.4l-1,0c-0.3,0-0.4,0-0.5,0h-16.7h-14.8h-0.5l-10.3,61h15.3l4.1-24.1h7.6l13.9,24.1
			h15.3l-14.4-24.8l0.1-0.5c4.9-1.1,19.2-5.5,19.2-19.5C425.2,361.6,412.2,359.6,407.7,359.4z M401.3,385h-16.1l2.2-13.2h16.9
			c2,0.4,4.9,1.7,4.9,5.3C409.2,382.2,405.9,384.1,401.3,385z"/>
	</g>
</g>
<polygon class="st1" points="304.7,86.2 277.4,113.4 303.5,197.5 241.6,149.1 212.2,178.3 238,266 173.2,217.2 146.9,243.4 
	244.9,317.3 277.2,285.2 250.5,195.9 316.8,245.8 343.8,218.8 "/>
</svg>
