<?xml version="1.0" encoding="utf-8"?>
<!-- Generator: Adobe Illustrator 21.0.2, SVG Export Plug-In . SVG Version: 6.00 Build 0)  -->
<svg version="1.1" id="Calque_1" xmlns="http://www.w3.org/2000/svg" xmlns:xlink="http://www.w3.org/1999/xlink" x="0px" y="0px"
	 viewBox="0 0 500 114" style="enable-background:new 0 0 500 114;" xml:space="preserve">
<path d="M28.2,91.5L25,25.3h8.2L34.6,65c0.3,8.5,0.1,13.1,0,17.3h0.2c1.6-4.3,3.2-8.6,6.9-16.8l18.4-40.2h8.6l1.4,38.1
	c0.3,8.6,0.3,14.3,0.2,18.7h0.2c2-5.7,3.9-11,6.5-17l17.8-39.8h8.5L72.7,91.5h-8.6l-1.7-37.6c-0.4-7.8-0.3-11.5,0.2-19.1h-0.3
	c-2.2,6.3-3.9,11.4-6.7,17.4L37,91.5H28.2L28.2,91.5z"/>
<path d="M161.4,51.3c0,11.5-4.2,24.2-12.1,32c-5.8,5.8-13.6,9.2-22.7,9.2c-17.1,0-25-12.9-25-26.9c0-11.7,4.5-24.6,12.6-32.5
	c5.7-5.5,13.8-8.9,22.2-8.9C154.2,24.2,161.4,37.2,161.4,51.3z M120.1,37.7c-6.4,6.4-10,18.1-10,27.3c0,10.8,4.8,20.7,17.8,20.7
	c5.6,0,11-2.5,15.1-6.6c6.2-6.3,9.8-18.2,9.8-27.4c0-9.4-3-20.6-17.6-20.6C129.4,31.1,124.3,33.7,120.1,37.7z"/>
<path d="M178.1,25.3h8.2L175,84.4h26.7l-1.4,7.1h-34.8L178.1,25.3z"/>
<path d="M264.4,91.5l4.7-35.8c0.9-6.3,2.4-16,3.5-22.4h-0.3c-3,6.7-6.8,14.5-10.3,21.3L242.3,91h-6.2l-4.9-35.6
	c-1-7.7-1.7-15.3-2.1-22.1h-0.3c-1.4,6.1-3.4,16.1-5,22.4l-9,35.8h-7.7l17.2-66.2h10.4l5.2,37.9c0.7,5.7,1.4,11.7,1.6,16.6h0.3
	c2.1-4.9,4.9-10.8,7.8-16.3L270,25.3h10.7l-8.4,66.2L264.4,91.5L264.4,91.5z"/>
<path d="M299,70.6l-10.5,20.9h-8.6l34.3-66.2h9.5l9.2,66.2h-8.3l-2.8-20.9L299,70.6L299,70.6z M321.2,64.1l-2.6-19.2
	c-0.4-3.4-0.9-8.3-1.2-12.2h-0.2c-1.8,3.9-3.4,8.1-5.4,12.1L301.9,64h19.3V64.1z"/>
<path d="M341.3,91.5l12.6-66.2h8.9l15.1,37.5c2.9,7.5,4.4,12.8,5.8,18.5l0.2-0.1c0.4-6,1.1-11.5,2.8-20.7l6.7-35.2h7.7l-12.6,66.2
	h-8.1l-15-37.4c-3.1-8.1-4.6-12.8-6.1-19.1l-0.3,0.1c-0.7,6.2-1.8,12.8-3.4,21.8L349,91.5H341.3L341.3,91.5z"/>
<path d="M424,25.3l-12.6,66.2h-8.1l12.6-66.2H424L424,25.3z"/>
<path d="M448.9,32.4h-19.3l1.4-7.1h46.9l-1.4,7.1h-19.4l-11.2,59.1h-8.1L448.9,32.4z"/>
</svg>
