<?xml version="1.0" encoding="utf-8"?>
<!-- Generator: Adobe Illustrator 21.0.2, SVG Export Plug-In . SVG Version: 6.00 Build 0)  -->
<svg version="1.1" id="Calque_1" xmlns="http://www.w3.org/2000/svg" xmlns:xlink="http://www.w3.org/1999/xlink" x="0px" y="0px"
	 viewBox="0 0 500 500" style="enable-background:new 0 0 500 500;" xml:space="preserve">
<style type="text/css">
	.st0{fill:#E42A1D;}
	.st1{fill:#231F21;}
	.st2{fill:#262324;}
</style>
<path d="M273.8,197.2c0.2-12.6,4.4-23.6,13.1-32.8c37.2-38.9,74.5-77.9,111.7-116.8c3.1-3.2,6.3-6.4,10-8.9c1.4-0.9,2.9-2.5,4.5-1.4
	c1.7,1.2,0.6,3.1,0.2,4.7c-1.3,4.6-3.6,8.8-5.9,13c-18.6,34-37.2,67.9-55.8,101.9c-7,12.9-9.4,26.8-9.3,41.3
	c0.1,13.5,2.4,26.6,8.9,38.7c13.4,24.7,27,49.3,40.4,73.9c5.9,10.8,11.8,21.6,17.7,32.5c1.9,3.5,3.6,7.1,4.4,11.1
	c0.2,1.1,0.5,2.2-0.6,3c-1,0.7-2,0.1-2.9-0.4c-3.1-1.7-5.8-4-8.2-6.5c-12.2-12.2-23.9-24.8-35.8-37.3
	c-26.4-27.5-52.7-55.1-79.1-82.7C278.3,221.3,274,210.1,273.8,197.2z"/>
<path d="M150.3,197.4c-0.1-14.1-2.4-27.8-9.3-40.4c-8.6-15.7-17.2-31.5-25.9-47.2c-10.4-19-20.8-38-31.2-57.1
	c-1.9-3.6-3.7-7.2-4.8-11.1c-0.4-1.4-1.2-3.2,0.3-4.2c1.4-1,2.9,0.3,4.1,1.1c5,3.3,9,7.6,13.1,11.9c36.2,37.9,72.5,75.8,108.7,113.7
	c18.1,18.9,18.1,47.8,0,66.7c-36.8,38.5-73.5,76.9-110.3,115.4c-2.9,3-5.8,6-9.1,8.6c-1.2,0.9-2.4,1.9-3.8,2.5
	c-0.9,0.4-1.9,1.1-2.9,0.3c-0.8-0.7-0.6-1.8-0.5-2.7c0.3-1.7,0.9-3.4,1.5-5c2.3-5.6,5.3-10.9,8.2-16.2
	c17.5-31.9,34.9-63.8,52.4-95.7c5.3-9.6,7.8-20,8.9-30.8C150.2,203.8,150.3,200.6,150.3,197.4z"/>
<path d="M246.3,170c-12.7-0.2-23.7-4.4-32.9-13.1c-39.4-37.5-78.8-75.1-118.2-112.6c-3.1-2.9-6-6-8.2-9.6c-0.7-1.1-1.8-2.5-0.9-3.8
	c1-1.4,2.6-0.7,3.9-0.4c3.9,1,7.5,2.7,11,4.6c23.3,12.6,46.5,25.3,69.7,37.9c11.6,6.3,23.3,12.6,34.8,19c9.7,5.4,20.2,8,31.1,9.1
	c13.6,1.3,26.9,0.1,39.9-4.3c7-2.4,13.3-6.3,19.8-9.8C327.5,70,358.8,53,390,36c3.9-2.1,7.9-4.2,12.3-5.4c1.5-0.4,3.3-1.3,4.4,0.2
	c1.1,1.5-0.3,3-1.1,4.2c-3,4.5-6.8,8.2-10.7,11.8c-38.5,36.7-77,73.3-115.5,109.9C270.1,165.7,259,169.8,246.3,170z"/>
<path class="st0" d="M406.8,362.2c-0.3-1.1-1-2.1-1.6-3c-2.8-3.9-6.2-7.3-9.6-10.6c-38.6-36.7-77.2-73.4-115.7-110.2
	c-9.4-8.9-20.5-13.4-33.5-13.6c-12.8,0.2-24,4.4-33.3,13.3c-9.8,9.3-19.5,18.6-29.3,27.9c-29.4,28-58.8,56-88.1,84
	c-3.2,3-6.3,6.2-8.7,9.9c-0.8,1.2-2,2.6-1,4c1,1.5,2.8,0.7,4.2,0.3c3.9-1,7.5-2.7,11-4.6c30.1-16.3,60.1-32.7,90.1-49
	c7.3-3.9,14.3-8.4,22-11.5c13.7-5.4,28-6.7,42.6-5.4c11.1,1,21.6,3.8,31.4,9.2c33,18.1,66.1,36.1,99.2,54.1c4.6,2.5,9.2,5,14.2,6.8
	c1.4,0.5,2.8,0.9,4.2,0.9C406.7,364.6,407.3,363.8,406.8,362.2z"/>
<path d="M361.7,375.3c-5.7,0.1-11.4,0.1-17.1,0c-1.2,0-1.8,0.3-2.2,1.5c-3.8,10.7-7.7,21.4-11.5,32c-0.5,1.4-1,2.8-1.7,4.5
	c-0.4-0.8-0.6-1.3-0.8-1.8c-4.6-11.5-9.3-23.1-13.9-34.6c-0.5-1.2-1.1-1.7-2.5-1.7c-10.9,0.1-21.8,0-32.7,0.1
	c-1.5,0-1.8-0.4-1.8-1.8c0.1-4.7,0-9.4,0.1-14.2c0-1.2-0.2-1.6-1.5-1.5c-5.4,0.1-10.9,0.1-16.3,0c-1.3,0-1.6,0.4-1.6,1.6
	c0.1,4.8,0,9.6,0.1,14.3c0,1.2-0.3,1.6-1.5,1.5c-3.1-0.1-6.3,0-9.4-0.1c-1.1,0-1.6,0.2-1.6,1.4c0.1,4.8,0.1,9.6,0,14.3
	c0,1,0.3,1.4,1.3,1.3c3.1-0.1,6.2,0.1,9.3-0.1c1.7-0.1,2,0.5,1.9,2c-0.1,7.9,0,15.8,0,23.8c0,2.4,0.2,4.8,0.5,7.2
	c1.1,8.8,5.7,13.9,14.3,15.4c3.9,0.7,7.8,0.7,11.7,0.3c2.7-0.3,5.3-0.7,7.8-1.7c1.2-0.5,1.7-1.1,1.7-2.5c-0.1-4.9,0-9.8-0.1-14.7
	c0-0.5,0.2-1.1-0.3-1.7c-0.5,0.4-1.1,0.7-1.6,1.1c-1.7,1.5-3.7,2.2-5.9,2.5c-6.5,0.9-8.8-1-8.8-7.5c-0.1-7.6,0-15.1,0-22.7
	c0-1.3,0.4-1.6,1.7-1.6c4.5,0.1,9,0,13.4,0.1c1.3,0,1.6-0.4,1.6-1.6c-0.1-3.5,0-7,0-10.9c0.3,0.5,0.4,0.6,0.5,0.7
	c8,18.9,16,37.8,24.1,56.7c0.3,0.7,0.3,1.2,0,1.9c-1.2,2.9-2.5,5.8-3.7,8.7c-1.1,2.5-3,3.7-5.7,4.1c-3.9,0.6-7.6-0.4-11.2-1.7
	c-1.1-0.4-1.4-0.2-1.4,1c0,5.2,0,10.4-0.2,15.6c0,1.4,0.5,1.7,1.6,2c4.6,1.2,9.2,1.3,13.9,1c8.9-0.6,15.2-5,19.1-13
	c0.6-1.3,1.3-2.6,1.8-3.9c9.9-25.4,19.8-50.7,29.8-76.1C363.4,375.4,363,375.3,361.7,375.3z"/>
<path d="M121,406.7c-0.7-1-0.9-1.6-0.1-2.6c6.6-8.8,13.2-17.7,19.8-26.6c0.4-0.6,1.1-1.1,1.2-2.1c-7.3,0-14.4,0-21.5,0
	c-0.9,0-1.2,0.7-1.6,1.2c-3.3,4.6-6.7,9.2-10,13.8c-1,1.4-1.4,1.1-2.1-0.1c-2.9-4.5-5.9-8.8-8.8-13.3c-0.8-1.2-1.6-1.7-3-1.7
	c-3.8,0.1-7.6,0-11.4,0c-3.4,0-6.7,0-10.4,0c0.5,0.7,0.8,1.2,1.2,1.7c6.7,9,13.5,18,20.2,27c0.7,0.9,0.9,1.5,0.1,2.6
	c-7.6,10-15.1,20.1-22.7,30.1c-0.7,0.9-1.4,1.9-2.3,3.1c0.9,0,1.5,0,2.1,0c6.4,0,12.8,0,19.2,0c1.4,0,2.2-0.4,3-1.5
	c4.4-6.2,9-12.3,13.6-18.6c4.5,6.2,9,12.3,13.3,18.4c0.9,1.3,1.8,1.8,3.4,1.8c6.5-0.1,13.1,0,19.6-0.1c0.6,0,1.2,0.2,1.8-0.2
	c-0.4-0.5-0.7-1-1-1.5C136.8,427.6,128.9,417.1,121,406.7z"/>
<path d="M408.8,405.3c-3.5-2.5-7.3-4-11.4-5c-4.2-1-8.5-1.6-12.6-3.4c-1.1-0.5-2-1.1-2-2.5c0-1.3,0.6-2.3,1.8-2.9
	c2-1,4.1-1.5,6.3-1.2c4.1,0.4,7,2.7,9.2,6c0.6,0.9,0.9,1.1,1.9,0.3c3.7-3.4,7.4-6.8,11.2-10.1c0.9-0.8,0.9-1.3,0.2-2.2
	c-2.9-3.9-6.5-6.7-11.2-8.3c-5.8-2-11.7-2.6-17.7-1.7c-6.4,0.9-12.2,3.1-16.5,8.2c-8.7,10.3-5.1,25,7.3,30.1c2.2,0.9,4.6,1.5,7,2
	c3.9,0.8,7.9,1.4,11.5,3.2c2.9,1.5,3.1,4.5,0.5,6.4c-0.8,0.6-1.7,1-2.6,1.2c-4.1,1-8,0.6-11.6-2c-2-1.4-3.7-3.1-5.3-4.9
	c-0.6-0.7-1-0.8-1.7-0.1c-3.8,3.6-7.6,7.2-11.5,10.8c-0.7,0.7-0.6,1.1,0,1.7c2,2.3,4.2,4.3,6.8,6c5.8,3.6,12.3,4.6,16.9,4.6
	c9.6,0,16.1-1.7,21.1-4.7C418.2,429.5,418.1,411.9,408.8,405.3z"/>
<path d="M238.1,340.7c-5.3,0.1-10.6,0.1-16,0c-1.5,0-1.9,0.4-1.9,1.9c0.1,15.9,0,31.8,0,47.7c0,15.9,0,31.8,0,47.7
	c0,1.5,0.4,1.9,1.9,1.9c5.3-0.1,10.6-0.1,16,0c1.3,0,1.6-0.4,1.6-1.6c0-32,0-64,0-96C239.8,341,239.4,340.7,238.1,340.7z"/>
<path d="M209.7,400.8c-1.3-8.2-4.4-15.5-11.1-20.8c-6.8-5.4-14.6-6.9-23.1-5.9c-13.1,1.5-23.1,7.8-28.1,20.2
	c-4.9,12.3-3.5,24.1,4.8,34.7c12.2,15.6,41.4,17.8,55.5-1.3c0.7-1,0.3-1.3-0.4-1.8c-3.9-2.9-7.8-5.8-11.6-8.8
	c-1.2-1-1.8-0.9-2.8,0.3c-4.1,5.1-9.2,8.1-16,7.5c-5.3-0.5-9.4-2.9-11.6-8c-0.8-1.9-0.8-1.9,1.2-1.9c7,0,13.9,0,20.9,0
	c7.1,0,14.2,0,21.2,0c1.2,0,1.7-0.3,1.6-1.6C210.2,409.2,210.4,405,209.7,400.8z M189.5,399.5c-8.2,0-16.4,0-24.8,0
	c1.3-4.5,3.6-7.9,8.1-9.3c3.7-1.2,7.5-1,11.2,0.4c3.5,1.4,5.6,4,6.5,7.7C190.7,399,190.7,399.5,189.5,399.5z"/>
<path class="st1" d="M253.9,459.2c0-1.8-0.6-3.5-2.5-4.2c-1.9-0.7-3.7-0.5-5.4,1.6c0.2-2.3-1.2-1.7-2.1-1.7c-1.3,0-0.7,1-0.7,1.6
	c-0.1,3,0,6-0.1,9.1c0,1.3,0.7,1.1,1.5,1.1c0.8,0,1.5,0.1,1.5-1.1c-0.1-1.9-0.1-3.7,0-5.6c0.1-1.7,1.1-2.7,2.6-2.7
	c1.7,0,2.1,1.2,2.2,2.6c0.1,1.9,0.1,3.7,0,5.6c-0.1,1.3,0.7,1.3,1.6,1.3c0.9,0,1.5,0,1.5-1.2C253.8,463.4,253.9,461.3,253.9,459.2z"
	/>
<path class="st1" d="M213.7,459.6c0-2-0.4-3.8-2.5-4.6c-2-0.7-3.8-0.5-5.4,1.4c0.3-1.8-0.9-1.4-1.8-1.5c-1.3-0.1-1.1,0.8-1.1,1.6
	c0,2.9,0,5.8,0,8.7c0,1.1,0.2,1.6,1.5,1.6c1.3,0,1.6-0.5,1.6-1.7c-0.1-1.7-0.1-3.4,0-5.1c0.1-1.6,0.8-2.7,2.6-2.7
	c1.8,0,2.2,1.3,2.2,2.7c0.1,1.8,0.1,3.5,0,5.3c-0.1,1.2,0.4,1.4,1.5,1.5c1.3,0,1.5-0.5,1.5-1.6C213.7,463.3,213.7,461.4,213.7,459.6
	z"/>
<path class="st1" d="M182,454.6c-1.5-0.1-2.8,0.3-4,2c0.1-2.2-1.1-1.7-2-1.7c-1.2,0-0.8,1-0.8,1.6c0,2.8,0,5.7,0,8.5
	c0,1.2,0.2,1.7,1.5,1.7c1.3,0,1.5-0.5,1.4-1.6c-0.1-1.6-0.1-3.3,0-4.9c0.1-1.9,1-2.9,2.5-3c1.5,0,2.2,0.8,2.3,2.8
	c0.1,1.9,0.1,3.8,0,5.6c0,1.2,0.8,1,1.5,1c0.7,0,1.5,0.3,1.5-0.9c-0.1-2.5,0-5.1-0.1-7.6C185.6,456,184.1,454.8,182,454.6z"/>
<path class="st1" d="M114.2,457.4c0.9,0.1,1.6,0.1,1.6-1.2c0-1.3-0.7-1.4-1.6-1.2c-1.6,0.3-1.8-0.6-1.7-1.9c0.1-0.8,0.2-1.6-1.2-1.6
	c-1.5,0-2,0.4-1.7,1.8c0.2,1.1-0.1,1.9-1.5,1.7c-1-0.1-0.9,0.6-1,1.3c0,0.8,0.2,1.3,1.1,1.2c1.2-0.2,1.4,0.4,1.4,1.4
	c-0.1,1.5-0.1,3,0,4.5c0.1,2.6,1.3,3.7,4.2,3.6c0.2,0,0.8-0.1,1.3-0.2c1.1-0.3,0.5-1.2,0.6-1.8c0.1-0.5-0.2-0.6-0.7-0.6
	c-2.2,0.1-2.5-0.2-2.5-2.4c0-0.9,0.1-1.8,0-2.7C112.4,457.8,112.7,457.1,114.2,457.4z"/>
<path class="st1" d="M149.8,457.4c0.9,0.1,1.6,0.1,1.6-1.2c0-1.3-0.7-1.4-1.6-1.2c-1.6,0.3-1.8-0.6-1.7-1.9c0.1-0.8,0.2-1.6-1.2-1.6
	c-1.4,0-2,0.4-1.7,1.8c0.2,1.1-0.1,1.9-1.5,1.7c-1-0.2-1,0.6-1,1.3c0,0.6,0,1.3,0.9,1.2c1.8-0.3,1.6,0.8,1.6,2
	c0,1.9-0.3,3.8,0.3,5.6c0.5,1.7,2.3,2.4,4.7,2c1.8-0.3,1.2-1.4,1.2-2.6c-2.8,0.3-3.2,0-3.2-2.7c0-0.8,0.1-1.7,0-2.5
	C147.9,457.7,148.4,457.2,149.8,457.4z"/>
<path class="st1" d="M139.7,457.9c1.4,0.8,1.6-0.7,2.2-1.2c0.8-0.7-0.2-1-0.6-1.3c-2.1-1.3-4.3-1.2-6.4-0.1
	c-2.1,1.1-3.1,2.9-3.2,4.6c-0.1,5.6,5,8.6,9.4,6.2c0.4-0.2,1.5-0.4,0.9-1.2c-0.5-0.6-0.7-2.1-2.3-1.2c-1.7,0.9-3.3,0.5-4.4-0.9
	c-1-1.3-0.9-3.3,0.2-4.5C136.6,457.2,138,457,139.7,457.9z"/>
<path class="st1" d="M224.5,457.9c1.5,0.9,1.8-0.6,2.3-1.2c0.6-0.7-0.4-1-0.9-1.3c-4.2-2.4-9.3,0.6-9.4,5.4c0,4.8,4.9,7.7,9.3,5.5
	c0.5-0.2,1.6-0.4,0.9-1.3c-0.5-0.6-0.8-2.1-2.3-1.1c-1.5,0.9-3.2,0.5-4.2-0.8c-1-1.3-1-3.3,0-4.5
	C221.3,457.2,222.9,456.9,224.5,457.9z"/>
<path class="st1" d="M89.8,454.7c-0.9,0.2-1.5,0.8-2.3,1.7c0.1-2-1.2-1.5-2.1-1.5c-1.2-0.1-0.9,0.9-0.9,1.5c0,2.9,0,5.8,0,8.7
	c0,1.2,0.2,1.7,1.6,1.7c1.3,0,1.5-0.5,1.5-1.6c-0.1-1.4,0-2.9,0-4.3c0-2.3,1.1-3.4,3.5-3.4c0.8,0,1-0.1,1.1-0.9
	C92,454.8,91.5,454.3,89.8,454.7z"/>
<path class="st1" d="M155.2,454.8c-1,0-1.5,0.2-1.5,1.4c0.1,1.5,0,3,0,4.5c0,1.6,0.1,3.3,0,4.9c-0.1,1.3,0.7,1.1,1.5,1.1
	c0.8,0,1.5,0.1,1.5-1.2c-0.1-3.1-0.1-6.3,0-9.4C156.8,454.9,156.2,454.9,155.2,454.8z"/>
<path class="st1" d="M199.6,460.9c0-1.7,0-3.4,0-5.1c0-1.2-0.8-1-1.5-1c-0.7,0-1.5-0.2-1.5,1c0,3.3,0.1,6.5,0,9.8
	c0,1.2,0.7,1.1,1.4,1c0.7,0,1.6,0.3,1.6-1.1C199.5,464.1,199.6,462.5,199.6,460.9z"/>
<path class="st1" d="M274.2,454.8c-0.9,0-1.5,0-1.4,1.2c0.1,3.1,0.1,6.3,0,9.4c0,1.1,0.4,1.3,1.4,1.3c0.8-0.1,1.7,0.2,1.6-1.2
	c-0.1-1.6,0-3.1,0-4.7c0-1.6-0.1-3.1,0-4.7C275.9,454.8,275.1,454.9,274.2,454.8z"/>
<path class="st1" d="M155.2,449.2c-1.1,0-1.8,0.6-1.9,1.7c0,1.2,0.7,1.7,1.9,1.7c1.1-0.1,1.8-0.6,1.8-1.7
	C157.1,449.7,156.4,449.2,155.2,449.2z"/>
<path class="st1" d="M274.2,449.1c-1,0.1-1.8,0.5-1.8,1.7c0,1.2,0.7,1.8,1.8,1.8c1.1,0,1.9-0.5,1.9-1.7
	C276.2,449.8,275.5,449.2,274.2,449.1z"/>
<path class="st1" d="M198.1,449.2c-1.1,0-1.8,0.6-1.9,1.7c0,1.2,0.7,1.7,1.9,1.8c1-0.1,1.8-0.6,1.8-1.7
	C199.9,449.7,199.2,449.2,198.1,449.2z"/>
<path class="st1" d="M269.4,449.4c0-1.3-0.5-1.3-1.5-1.3c-1,0-1.6,0.1-1.5,1.3c0.1,2.2,0,4.3,0,6.5c-3.8-2-6.6-1.7-8.5,0.8
	c-1.8,2.4-1.7,6.3,0.3,8.4c2.1,2.2,5.1,2.3,8.4,0.2c-0.3,2.1,1.2,1.2,2,1.3c1.1,0.1,0.7-0.9,0.7-1.4
	C269.4,459.9,269.3,454.7,269.4,449.4z M263.2,464.3c-2,0.1-3.6-1.4-3.6-3.5c0-2,1.5-3.6,3.5-3.6c1.9,0,3.4,1.5,3.4,3.5
	C266.5,462.7,265.1,464.2,263.2,464.3z"/>
<path class="st1" d="M77.9,449.6c-2.5-0.6-5.1-0.2-7.6-0.3c-0.9,0-0.7,0.6-0.7,1.1c0,2.5,0,5.1,0,7.6c0,2.5,0,5,0,7.4
	c0,0.1,0,0.1,0,0.2c-0.2,1.1,0.5,1.2,1.3,1.1c0.7-0.1,1.8,0.5,1.8-1c-0.1-1.5,0.1-3,0-4.5c-0.1-1.2,0.3-1.8,1.6-1.7
	c1.2,0.1,2.4,0,3.6-0.2c2.7-0.6,4-2.1,4-4.8C81.9,451.8,80.6,450.2,77.9,449.6z M74.2,456.9c-2.4,0.1-1.3-1.6-1.6-2.5
	c0.1-1.2-0.6-2.7,1.7-2.6c3,0.2,4.3,0.8,4.3,2.5C78.7,456.1,77.3,456.8,74.2,456.9z"/>
<path class="st1" d="M236,454.7c-2.9-0.6-5.8,0.7-7,3.2c-1.3,2.5-0.7,5.6,1.4,7.5c2.1,1.9,5.6,2.1,7.9,0.6c0.5-0.3,1.2-0.7,1.2-1.3
	c0-0.7-0.9-0.9-1.4-1.3c-0.7-0.6-0.9,0.2-1.3,0.4c-1.8,1.2-4,1-5-0.6c-0.5-0.8-0.7-1.5,0.7-1.4c1.1,0,2.2,0,3.3,0c1.1,0,2.3,0,3.4,0
	c0.5,0,0.9,0.1,1.1-0.6C240.9,458.6,238.7,455.3,236,454.7z M237.2,459c-0.1,1.2-1.3,0.3-1.9,0.6c-0.3,0.1-0.6,0-0.9,0
	c-0.4,0-0.9,0.1-1.3,0c-0.5-0.1-1.4,0.4-1.6-0.4c-0.2-0.8,0.4-1.4,1-1.8c0.9-0.7,1.9-0.7,2.9-0.4C236.5,457.3,237.3,458,237.2,459z"
	/>
<path class="st1" d="M286.2,454.7c-2.9-0.6-5.8,0.8-7,3.3c-1.2,2.5-0.6,5.7,1.4,7.5c2.1,1.8,5.6,2,8,0.5c1.5-1,1.4-1.5-0.1-2.5
	c-0.8-0.5-1.1,0.1-1.5,0.4c-1.8,1.2-4,0.9-5-0.6c-0.5-0.9-0.6-1.5,0.7-1.4c1.1,0.1,2.2,0,3.3,0c1.1,0,2.3,0,3.4,0c0.6,0,1,0,1.1-0.8
	C290.9,458.3,288.9,455.2,286.2,454.7z M287.4,459c-0.1,1.2-1.3,0.4-1.9,0.6c-0.3,0.1-0.7,0-1.1,0s-0.7,0-1.1,0
	c-0.6-0.1-1.4,0.4-1.6-0.3c-0.2-0.7,0.4-1.4,1-1.8c0.9-0.7,2-0.7,3.1-0.4C286.7,457.3,287.5,458,287.4,459z"/>
<path class="st1" d="M122.4,454.8c-2.5,0.5-4.5,2.5-4.8,5c-0.4,2.7,0.8,5.2,3.1,6.4c2.4,1.3,5.7,1,7.5-0.7c0.3-0.3,1-0.6,0.4-1.1
	c-0.7-0.6-1.3-1.7-2.6-0.5c-2.1,1.7-4.6,0.8-5.3-2c2.5,0,5-0.1,7.4,0c1.4,0.1,1.6-0.5,1.5-1.7C129.1,456.1,126.3,454,122.4,454.8z
	 M126.4,459.1c-0.1,1.1-1.3,0.3-2,0.5c-0.3,0.1-0.6,0-0.9,0c-0.4,0-0.8,0-1.3,0c-0.6-0.1-1.4,0.3-1.6-0.3c-0.2-0.7,0.4-1.4,0.9-1.8
	c0.9-0.7,1.9-0.7,2.9-0.5C125.6,457.2,126.5,458,126.4,459.1z"/>
<path class="st1" d="M99.4,454.6c-3.7,0-6.5,2.5-6.5,6c-0.1,3.6,2.7,6.4,6.4,6.4c3.7,0,6.4-2.6,6.5-6.2
	C105.8,457.3,103.1,454.7,99.4,454.6z M99.5,464.3c-2,0.1-3.6-1.4-3.6-3.5c0-2,1.5-3.6,3.5-3.6c1.9,0,3.4,1.5,3.4,3.5
	C102.8,462.7,101.4,464.2,99.5,464.3z"/>
<path class="st1" d="M165.9,454.6c-3.7,0-6.4,2.5-6.4,6.1c0,3.6,2.6,6.2,6.3,6.2c3.7,0,6.5-2.6,6.5-6.3
	C172.3,457.2,169.7,454.6,165.9,454.6z M165.9,464.3c-2,0-3.4-1.5-3.4-3.5c0-2,1.4-3.5,3.3-3.6c2-0.1,3.6,1.4,3.6,3.5
	C169.4,462.8,167.9,464.3,165.9,464.3z"/>
<path class="st2" d="M422.8,369.8c-4.3,0-7.7,3.3-7.7,7.5c0,4.1,3.3,7.4,7.6,7.4c4.3,0,7.8-3.3,7.7-7.4
	C430.4,373.1,427,369.8,422.8,369.8z M422.8,383c-3.2,0-5.8-2.4-5.8-5.7c0-3.3,2.5-6,5.7-6c3.2,0,5.8,2.7,5.8,6
	C428.6,380.4,426,383,422.8,383z"/>
<path class="st2" d="M425.5,378.5c-0.6-0.7-0.7-1.1,0.1-2c0.8-0.8,0.5-2.1-0.6-2.6c-1.5-0.8-3.3-0.8-4.8-0.1
	c-0.9,0.4-0.2,1.9-0.4,2.8c0,0.2,0,0.4,0,0.5c0,1,0,2.1,0,3.1c0,0.5,0.1,0.8,0.7,0.8c0.5,0,1,0,1-0.7c0-0.3,0-0.6,0-0.9
	c0.1-0.5-0.3-1.2,0.6-1.3c0.7-0.1,1.3,0.1,1.6,0.9c0.2,0.5,0.3,0.9,0.4,1.4c0.2,0.8,0.9,0.7,1.5,0.6c0.8-0.2,0.3-0.8,0.2-1.1
	C425.8,379.4,425.7,378.8,425.5,378.5z M422.5,377c-1,0.1-0.8-0.6-0.8-1.3c-0.1-0.6,0.1-1,0.9-1c0.8,0.1,1.5,0.2,1.5,1.2
	C424,376.8,423.2,376.9,422.5,377z"/>
</svg>
