<?xml version="1.0" encoding="utf-8"?>
<!-- Generator: Adobe Illustrator 15.0.0, SVG Export Plug-In . SVG Version: 6.00 Build 0)  -->
<!DOCTYPE svg PUBLIC "-//W3C//DTD SVG 1.1//EN" "http://www.w3.org/Graphics/SVG/1.1/DTD/svg11.dtd">
<svg version="1.1" id="Calque_1" xmlns="http://www.w3.org/2000/svg" xmlns:xlink="http://www.w3.org/1999/xlink" x="0px" y="0px"
	 width="500px" height="500px" viewBox="0 0 500 500" enable-background="new 0 0 500 500" xml:space="preserve">
<g>
	<path fill="#FF0000" d="M487.428,323.634c0,8.203-6.649,14.853-14.853,14.853H30.291c-8.204,0-14.853-6.649-14.853-14.853V179.232
		c0-8.203,6.649-14.853,14.853-14.853h442.284c8.203,0,14.853,6.65,14.853,14.853V323.634z"/>
	<polygon fill="#FFFFFF" points="114.457,192.022 96.717,224.177 78.975,192.022 37.305,192.022 79.388,256.359 79.388,310.432 
		114.87,310.432 114.87,255.099 156.128,192.022 	"/>
	<rect x="342.2" y="226.266" fill="#FFFFFF" width="32.594" height="83.752"/>
	<polygon fill="#FFFFFF" points="338.9,226.266 295.991,226.266 270.823,256.327 270.823,184.183 238.231,184.183 238.231,310.019 
		270.823,310.019 270.823,279.488 271.319,279.488 296.404,310.844 342.613,310.844 300.923,267.433 	"/>
	<circle fill="#FFFFFF" cx="359.115" cy="204.812" r="18.36"/>
	<path fill="#FFFFFF" d="M432.608,256.68c-3.143-0.96-13.049-3.185-12.397-4.601c0.65-1.417,3.181-1.249,6.978-1.249
		c8.062,0,14.09,1.908,16.965,3.046l5.708,2.259l8.611-24.446l-5.419-2.037c-7.16-2.69-15.77-4.056-25.589-4.056
		c-24.385,0-40.769,11.156-40.769,27.759c0,12.625,10.041,21.717,29.777,27.442c11.958,3.47,11.105,4.673,11.105,4.522
		c-0.008,0.002,0,0-0.02,0.062c-0.521,1.646-2.354,1.976-8.709,1.976c-8.099,0-16.071-2.113-20.832-4.09l-5.973-2.482l-7.759,24.75
		l4.857,2.124c5.734,2.508,16.765,5.04,28.478,5.04c31.704,0,42.953-15.362,42.953-28.519
		C460.574,266.865,444.576,260.182,432.608,256.68z"/>
	<path fill="#FFFFFF" d="M180.883,223.791c-25.748,0-46.622,20.042-46.622,44.764c0,24.723,20.874,44.765,46.622,44.765
		s46.622-20.042,46.622-44.765C227.504,243.833,206.63,223.791,180.883,223.791z M180.883,284.852
		c-8.431,0-15.266-7.296-15.266-16.297c0-9,6.835-16.297,15.266-16.297c8.43,0,15.265,7.297,15.265,16.297
		C196.148,277.556,189.313,284.852,180.883,284.852z"/>
</g>
</svg>
