<?xml version="1.0" encoding="utf-8"?>
<!-- Generator: Adobe Illustrator 19.1.0, SVG Export Plug-In . SVG Version: 6.00 Build 0)  -->
<svg version="1.1" id="Calque_1" xmlns="http://www.w3.org/2000/svg" xmlns:xlink="http://www.w3.org/1999/xlink" x="0px" y="0px"
	 viewBox="-345 170.9 500 500" style="enable-background:new -345 170.9 500 500;" xml:space="preserve">
<style type="text/css">
	.st0{fill:#FF0000;}
	.st1{fill:#FFFFFF;}
</style>
<g>
	<path class="st0" d="M142.4,494.5c0,8.2-6.6,14.9-14.9,14.9h-442.3c-8.2,0-14.9-6.6-14.9-14.9V350.1c0-8.2,6.6-14.9,14.9-14.9
		h442.3c8.2,0,14.9,6.6,14.9,14.9V494.5z"/>
	<polygon class="st1" points="-230.5,362.9 -248.3,395.1 -266,362.9 -307.7,362.9 -265.6,427.2 -265.6,481.3 -230.1,481.3 
		-230.1,426 -188.9,362.9 	"/>
	<rect x="-2.8" y="397.2" class="st1" width="32.6" height="83.8"/>
	<polygon class="st1" points="-6.1,397.2 -49,397.2 -74.2,427.2 -74.2,355.1 -106.8,355.1 -106.8,480.9 -74.2,480.9 -74.2,450.4 
		-73.7,450.4 -48.6,481.7 -2.4,481.7 -44.1,438.3 	"/>
	<circle class="st1" cx="14.1" cy="375.7" r="18.4"/>
	<path class="st1" d="M87.6,427.6c-3.1-1-13-3.2-12.4-4.6c0.6-1.4,3.2-1.2,7-1.2c8.1,0,14.1,1.9,17,3l5.7,2.3l8.6-24.4l-5.4-2
		c-7.2-2.7-15.8-4.1-25.6-4.1c-24.4,0-40.8,11.2-40.8,27.8c0,12.6,10,21.7,29.8,27.4c12,3.5,11.1,4.7,11.1,4.5c0,0,0,0,0,0.1
		c-0.5,1.6-2.4,2-8.7,2c-8.1,0-16.1-2.1-20.8-4.1l-6-2.5l-7.8,24.8l4.9,2.1c5.7,2.5,16.8,5,28.5,5c31.7,0,43-15.4,43-28.5
		C115.6,437.8,99.6,431.1,87.6,427.6z"/>
	<path class="st1" d="M-164.1,394.7c-25.7,0-46.6,20-46.6,44.8c0,24.7,20.9,44.8,46.6,44.8s46.6-20,46.6-44.8
		C-117.5,414.7-138.4,394.7-164.1,394.7z M-164.1,455.7c-8.4,0-15.3-7.3-15.3-16.3c0-9,6.8-16.3,15.3-16.3c8.4,0,15.3,7.3,15.3,16.3
		C-148.9,448.4-155.7,455.7-164.1,455.7z"/>
</g>
</svg>
