<?xml version="1.0" encoding="utf-8"?>
<!-- Generator: Adobe Illustrator 19.1.0, SVG Export Plug-In . SVG Version: 6.00 Build 0)  -->
<svg version="1.1" id="Calque_1" xmlns="http://www.w3.org/2000/svg" xmlns:xlink="http://www.w3.org/1999/xlink" x="0px" y="0px"
	 viewBox="-345 170.9 500 500" style="enable-background:new -345 170.9 500 500;" xml:space="preserve">
<path d="M-288.1,459.8l60-71.9l-0.1-0.4h-41.9l1.8-9.3h56.6l-1.4,7.1l-59.5,71.5l0.1,0.4h46.4l-1.7,9.3h-61.4L-288.1,459.8z"/>
<path d="M-163.2,424.9h-32.1l-6,32.2h36.2l-1.8,9.3h-47l16.8-88.3h45.1l-1.8,9.3h-34.1l-5.4,28.3h32.1L-163.2,424.9z"/>
<path d="M-152.5,466.5l16.8-88.3h11.9l20.2,50c3.9,10,5.9,17,7.7,24.6l0.3-0.1c0.5-8,1.4-15.3,3.8-27.6l8.9-46.9h10.2l-16.8,88.3
	h-10.7l-20.2-49.9c-4.2-10.9-6.2-17-8.1-25.4l-0.4,0.1c-0.9,8.3-2.4,17-4.6,29.1l-8.8,46.1H-152.5z"/>
<path d="M-42.1,378.2l-16.8,88.3h-10.9l16.8-88.3H-42.1L-42.1,378.2z"/>
<path d="M-8.9,387.6h-25.8l1.8-9.4h62.6l-1.8,9.4H2l-14.9,78.9h-10.9L-8.9,387.6z"/>
<path d="M50.6,378.2l-7.1,37.2h40.6l7.1-37.2h10.9l-16.8,88.3H74.4l7.7-41.5H41.7l-7.9,41.5H23l16.8-88.3H50.6L50.6,378.2z"/>
</svg>
