<?xml version="1.0" encoding="utf-8"?>
<!-- Generator: Adobe Illustrator 15.0.0, SVG Export Plug-In . SVG Version: 6.00 Build 0)  -->
<!DOCTYPE svg PUBLIC "-//W3C//DTD SVG 1.1//EN" "http://www.w3.org/Graphics/SVG/1.1/DTD/svg11.dtd">
<svg version="1.1" id="Calque_1" xmlns="http://www.w3.org/2000/svg" xmlns:xlink="http://www.w3.org/1999/xlink" x="0px" y="0px"
	 width="500px" height="500px" viewBox="0 0 500 500" enable-background="new 0 0 500 500" xml:space="preserve">
<path d="M56.948,288.905l60.005-71.932l-0.131-0.394H74.898l1.834-9.299h56.599l-1.443,7.074l-59.482,71.533l0.134,0.395h46.379
	l-1.705,9.302H55.771L56.948,288.905z"/>
<path d="M181.802,254.053h-32.098l-6.027,32.23h36.16l-1.835,9.302h-47.032l16.77-88.304h45.067l-1.831,9.299H156.91l-5.371,28.3
	h32.097L181.802,254.053z"/>
<path d="M192.544,295.585l16.77-88.304h11.925l20.174,50.048c3.93,9.955,5.896,17.029,7.73,24.631l0.262-0.134
	c0.522-7.987,1.442-15.329,3.799-27.644l8.908-46.901h10.22l-16.769,88.304h-10.744l-20.178-49.916
	c-4.192-10.874-6.158-17.035-8.123-25.421l-0.393,0.134c-0.915,8.252-2.356,17.031-4.584,29.084l-8.777,46.119H192.544z"/>
<path d="M302.852,207.281l-16.771,88.304h-10.873l16.771-88.304H302.852z"/>
<path d="M336.125,216.709h-25.809l1.835-9.428h62.626l-1.836,9.428h-25.938l-14.94,78.876H321.19L336.125,216.709z"/>
<path d="M395.605,207.281l-7.073,37.21h40.612l7.073-37.21h10.879l-16.771,88.304h-10.878l7.73-41.532h-40.48l-7.863,41.532h-10.873
	l16.77-88.304H395.605z"/>
</svg>
